<?xml version='1.0' encoding='ASCII' standalone='yes'?>
<svg xmlns="http://www.w3.org/2000/svg" xmlns:rdkit="http://www.rdkit.org/xml" xmlns:xlink="http://www.w3.org/1999/xlink" version="1.1" baseProfile="full" xml:space="preserve" width="600px" height="300px" viewBox="0 0 600 300">
<!-- END OF HEADER -->
<rect style="opacity:1.0;fill:#FFFFFF;stroke:none" width="600.0" height="300.0" x="0.0" y="0.0"> </rect>
<ellipse cx="79.4" cy="220.4" rx="7.2" ry="7.2" class="atom-22" style="fill:#6B4EF9;fill-rule:evenodd;stroke:#6B4EF9;stroke-width:1.0px;stroke-linecap:butt;stroke-linejoin:miter;stroke-opacity:1"/>
<ellipse cx="132.6" cy="133.6" rx="7.2" ry="7.2" class="atom-29" style="fill:#DC3369;fill-rule:evenodd;stroke:#DC3369;stroke-width:1.0px;stroke-linecap:butt;stroke-linejoin:miter;stroke-opacity:1"/>
<ellipse cx="165.2" cy="227.9" rx="7.2" ry="7.2" class="atom-33" style="fill:#DC3369;fill-rule:evenodd;stroke:#DC3369;stroke-width:1.0px;stroke-linecap:butt;stroke-linejoin:miter;stroke-opacity:1"/>
<path class="bond-0 atom-12 atom-31" d="M 197.9,171.3 L 215.4,171.3" style="fill:none;fill-rule:evenodd;stroke:#000000;stroke-width:2.0px;stroke-linecap:butt;stroke-linejoin:miter;stroke-opacity:1"/>
<path class="bond-1 atom-12 atom-13" d="M 197.9,171.3 L 194.0,178.1" style="fill:none;fill-rule:evenodd;stroke:#000000;stroke-width:2.0px;stroke-linecap:butt;stroke-linejoin:miter;stroke-opacity:1"/>
<path class="bond-1 atom-12 atom-13" d="M 194.0,178.1 L 190.1,184.8" style="fill:none;fill-rule:evenodd;stroke:#0000FF;stroke-width:2.0px;stroke-linecap:butt;stroke-linejoin:miter;stroke-opacity:1"/>
<path class="bond-2 atom-11 atom-12" d="M 187.0,152.4 L 197.9,171.3" style="fill:none;fill-rule:evenodd;stroke:#000000;stroke-width:2.0px;stroke-linecap:butt;stroke-linejoin:miter;stroke-opacity:1"/>
<path class="bond-2 atom-11 atom-12" d="M 185.3,157.2 L 192.9,170.4" style="fill:none;fill-rule:evenodd;stroke:#000000;stroke-width:2.0px;stroke-linecap:butt;stroke-linejoin:miter;stroke-opacity:1"/>
<path class="bond-3 atom-13 atom-14" d="M 182.8,190.2 L 174.0,190.2" style="fill:none;fill-rule:evenodd;stroke:#0000FF;stroke-width:2.0px;stroke-linecap:butt;stroke-linejoin:miter;stroke-opacity:1"/>
<path class="bond-3 atom-13 atom-14" d="M 174.0,190.2 L 165.2,190.2" style="fill:none;fill-rule:evenodd;stroke:#000000;stroke-width:2.0px;stroke-linecap:butt;stroke-linejoin:miter;stroke-opacity:1"/>
<path class="bond-3 atom-13 atom-14" d="M 180.2,186.2 L 174.0,186.2" style="fill:none;fill-rule:evenodd;stroke:#0000FF;stroke-width:2.0px;stroke-linecap:butt;stroke-linejoin:miter;stroke-opacity:1"/>
<path class="bond-3 atom-13 atom-14" d="M 174.0,186.2 L 167.9,186.2" style="fill:none;fill-rule:evenodd;stroke:#000000;stroke-width:2.0px;stroke-linecap:butt;stroke-linejoin:miter;stroke-opacity:1"/>
<path class="bond-4 atom-11 atom-30" d="M 187.0,152.4 L 194.8,138.9" style="fill:none;fill-rule:evenodd;stroke:#000000;stroke-width:2.0px;stroke-linecap:butt;stroke-linejoin:miter;stroke-opacity:1"/>
<path class="bond-5 atom-10 atom-11" d="M 165.2,152.4 L 187.0,152.4" style="fill:none;fill-rule:evenodd;stroke:#000000;stroke-width:2.0px;stroke-linecap:butt;stroke-linejoin:miter;stroke-opacity:1"/>
<path class="bond-6 atom-16 atom-33" d="M 157.4,214.4 L 159.8,218.5" style="fill:none;fill-rule:evenodd;stroke:#0000FF;stroke-width:2.0px;stroke-linecap:butt;stroke-linejoin:miter;stroke-opacity:1"/>
<path class="bond-6 atom-16 atom-33" d="M 159.8,218.5 L 162.2,222.5" style="fill:none;fill-rule:evenodd;stroke:#000000;stroke-width:2.0px;stroke-linecap:butt;stroke-linejoin:miter;stroke-opacity:1"/>
<path class="bond-7 atom-14 atom-16" d="M 165.2,190.2 L 161.3,196.9" style="fill:none;fill-rule:evenodd;stroke:#000000;stroke-width:2.0px;stroke-linecap:butt;stroke-linejoin:miter;stroke-opacity:1"/>
<path class="bond-7 atom-14 atom-16" d="M 161.3,196.9 L 157.4,203.7" style="fill:none;fill-rule:evenodd;stroke:#0000FF;stroke-width:2.0px;stroke-linecap:butt;stroke-linejoin:miter;stroke-opacity:1"/>
<path class="bond-8 atom-14 atom-15" d="M 165.2,190.2 L 154.4,171.3" style="fill:none;fill-rule:evenodd;stroke:#000000;stroke-width:2.0px;stroke-linecap:butt;stroke-linejoin:miter;stroke-opacity:1"/>
<path class="bond-9 atom-21 atom-22" d="M 101.2,220.4 L 92.0,220.4" style="fill:none;fill-rule:evenodd;stroke:#000000;stroke-width:2.0px;stroke-linecap:butt;stroke-linejoin:miter;stroke-opacity:1"/>
<path class="bond-9 atom-21 atom-22" d="M 92.0,220.4 L 82.9,220.4" style="fill:none;fill-rule:evenodd;stroke:#33CCCC;stroke-width:2.0px;stroke-linecap:butt;stroke-linejoin:miter;stroke-opacity:1"/>
<path class="bond-10 atom-16 atom-17" d="M 150.1,209.0 L 141.3,209.0" style="fill:none;fill-rule:evenodd;stroke:#0000FF;stroke-width:2.0px;stroke-linecap:butt;stroke-linejoin:miter;stroke-opacity:1"/>
<path class="bond-10 atom-16 atom-17" d="M 141.3,209.0 L 132.6,209.0" style="fill:none;fill-rule:evenodd;stroke:#000000;stroke-width:2.0px;stroke-linecap:butt;stroke-linejoin:miter;stroke-opacity:1"/>
<path class="bond-11 atom-21 atom-25" d="M 102.8,215.4 L 101.4,215.2" style="fill:none;fill-rule:evenodd;stroke:#000000;stroke-width:1.0px;stroke-linecap:butt;stroke-linejoin:miter;stroke-opacity:1"/>
<path class="bond-11 atom-21 atom-25" d="M 104.4,210.4 L 101.6,209.9" style="fill:none;fill-rule:evenodd;stroke:#000000;stroke-width:1.0px;stroke-linecap:butt;stroke-linejoin:miter;stroke-opacity:1"/>
<path class="bond-11 atom-21 atom-25" d="M 106.1,205.4 L 101.8,204.7" style="fill:none;fill-rule:evenodd;stroke:#000000;stroke-width:1.0px;stroke-linecap:butt;stroke-linejoin:miter;stroke-opacity:1"/>
<path class="bond-12 atom-7 atom-8" d="M 165.2,112.7 L 173.7,112.7" style="fill:none;fill-rule:evenodd;stroke:#000000;stroke-width:2.0px;stroke-linecap:butt;stroke-linejoin:miter;stroke-opacity:1"/>
<path class="bond-12 atom-7 atom-8" d="M 173.7,112.7 L 182.1,112.7" style="fill:none;fill-rule:evenodd;stroke:#FF0000;stroke-width:2.0px;stroke-linecap:butt;stroke-linejoin:miter;stroke-opacity:1"/>
<path class="bond-12 atom-7 atom-8" d="M 165.2,116.7 L 173.7,116.7" style="fill:none;fill-rule:evenodd;stroke:#000000;stroke-width:2.0px;stroke-linecap:butt;stroke-linejoin:miter;stroke-opacity:1"/>
<path class="bond-12 atom-7 atom-8" d="M 173.7,116.7 L 182.1,116.7" style="fill:none;fill-rule:evenodd;stroke:#FF0000;stroke-width:2.0px;stroke-linecap:butt;stroke-linejoin:miter;stroke-opacity:1"/>
<path class="bond-13 atom-10 atom-15" d="M 165.2,152.4 L 154.4,171.3" style="fill:none;fill-rule:evenodd;stroke:#000000;stroke-width:2.0px;stroke-linecap:butt;stroke-linejoin:miter;stroke-opacity:1"/>
<path class="bond-13 atom-10 atom-15" d="M 167.0,157.2 L 159.4,170.4" style="fill:none;fill-rule:evenodd;stroke:#000000;stroke-width:2.0px;stroke-linecap:butt;stroke-linejoin:miter;stroke-opacity:1"/>
<path class="bond-14 atom-9 atom-10" d="M 157.4,138.9 L 161.3,145.7" style="fill:none;fill-rule:evenodd;stroke:#0000FF;stroke-width:2.0px;stroke-linecap:butt;stroke-linejoin:miter;stroke-opacity:1"/>
<path class="bond-14 atom-9 atom-10" d="M 161.3,145.7 L 165.2,152.4" style="fill:none;fill-rule:evenodd;stroke:#000000;stroke-width:2.0px;stroke-linecap:butt;stroke-linejoin:miter;stroke-opacity:1"/>
<path class="bond-15 atom-19 atom-21" d="M 121.7,227.9 L 101.2,220.4" style="fill:none;fill-rule:evenodd;stroke:#000000;stroke-width:2.0px;stroke-linecap:butt;stroke-linejoin:miter;stroke-opacity:1"/>
<path class="bond-16 atom-20 atom-21" d="M 105.0,241.9 L 101.2,220.4" style="fill:none;fill-rule:evenodd;stroke:#000000;stroke-width:2.0px;stroke-linecap:butt;stroke-linejoin:miter;stroke-opacity:1"/>
<path class="bond-17 atom-15 atom-32" d="M 154.4,171.3 L 136.9,171.3" style="fill:none;fill-rule:evenodd;stroke:#000000;stroke-width:2.0px;stroke-linecap:butt;stroke-linejoin:miter;stroke-opacity:1"/>
<path class="bond-18 atom-17 atom-19" d="M 132.6,209.0 L 121.7,227.9" style="fill:none;fill-rule:evenodd;stroke:#000000;stroke-width:2.0px;stroke-linecap:butt;stroke-linejoin:miter;stroke-opacity:1"/>
<path class="bond-19 atom-17 atom-18" d="M 130.9,210.0 L 127.0,203.3" style="fill:none;fill-rule:evenodd;stroke:#000000;stroke-width:2.0px;stroke-linecap:butt;stroke-linejoin:miter;stroke-opacity:1"/>
<path class="bond-19 atom-17 atom-18" d="M 127.0,203.3 L 123.2,196.7" style="fill:none;fill-rule:evenodd;stroke:#FF0000;stroke-width:2.0px;stroke-linecap:butt;stroke-linejoin:miter;stroke-opacity:1"/>
<path class="bond-19 atom-17 atom-18" d="M 134.3,208.0 L 130.4,201.4" style="fill:none;fill-rule:evenodd;stroke:#000000;stroke-width:2.0px;stroke-linecap:butt;stroke-linejoin:miter;stroke-opacity:1"/>
<path class="bond-19 atom-17 atom-18" d="M 130.4,201.4 L 126.6,194.7" style="fill:none;fill-rule:evenodd;stroke:#FF0000;stroke-width:2.0px;stroke-linecap:butt;stroke-linejoin:miter;stroke-opacity:1"/>
<path class="bond-20 atom-19 atom-24" d="M 125.1,231.7 L 126.0,230.6" style="fill:none;fill-rule:evenodd;stroke:#000000;stroke-width:1.0px;stroke-linecap:butt;stroke-linejoin:miter;stroke-opacity:1"/>
<path class="bond-20 atom-19 atom-24" d="M 128.5,235.5 L 130.4,233.3" style="fill:none;fill-rule:evenodd;stroke:#000000;stroke-width:1.0px;stroke-linecap:butt;stroke-linejoin:miter;stroke-opacity:1"/>
<path class="bond-20 atom-19 atom-24" d="M 131.9,239.3 L 134.7,236.0" style="fill:none;fill-rule:evenodd;stroke:#000000;stroke-width:1.0px;stroke-linecap:butt;stroke-linejoin:miter;stroke-opacity:1"/>
<path class="bond-21 atom-19 atom-20" d="M 121.7,227.9 L 105.0,241.9" style="fill:none;fill-rule:evenodd;stroke:#000000;stroke-width:2.0px;stroke-linecap:butt;stroke-linejoin:miter;stroke-opacity:1"/>
<path class="bond-22 atom-7 atom-9" d="M 165.2,114.7 L 161.3,121.5" style="fill:none;fill-rule:evenodd;stroke:#000000;stroke-width:2.0px;stroke-linecap:butt;stroke-linejoin:miter;stroke-opacity:1"/>
<path class="bond-22 atom-7 atom-9" d="M 161.3,121.5 L 157.4,128.2" style="fill:none;fill-rule:evenodd;stroke:#0000FF;stroke-width:2.0px;stroke-linecap:butt;stroke-linejoin:miter;stroke-opacity:1"/>
<path class="bond-23 atom-3 atom-7" d="M 154.4,95.8 L 165.2,114.7" style="fill:none;fill-rule:evenodd;stroke:#000000;stroke-width:2.0px;stroke-linecap:butt;stroke-linejoin:miter;stroke-opacity:1"/>
<path class="bond-24 atom-9 atom-29" d="M 150.1,133.6 L 143.5,133.6" style="fill:none;fill-rule:evenodd;stroke:#0000FF;stroke-width:2.0px;stroke-linecap:butt;stroke-linejoin:miter;stroke-opacity:1"/>
<path class="bond-24 atom-9 atom-29" d="M 143.5,133.6 L 136.9,133.6" style="fill:none;fill-rule:evenodd;stroke:#000000;stroke-width:2.0px;stroke-linecap:butt;stroke-linejoin:miter;stroke-opacity:1"/>
<path class="bond-25 atom-2 atom-23" d="M 132.6,95.8 L 127.8,104.1" style="fill:none;fill-rule:evenodd;stroke:#000000;stroke-width:2.0px;stroke-linecap:butt;stroke-linejoin:miter;stroke-opacity:1"/>
<path class="bond-25 atom-2 atom-23" d="M 127.8,104.1 L 123.0,112.4" style="fill:none;fill-rule:evenodd;stroke:#00CC00;stroke-width:2.0px;stroke-linecap:butt;stroke-linejoin:miter;stroke-opacity:1"/>
<path class="bond-26 atom-20 atom-34" d="M 105.0,241.9 L 112.8,255.4" style="fill:none;fill-rule:evenodd;stroke:#000000;stroke-width:2.0px;stroke-linecap:butt;stroke-linejoin:miter;stroke-opacity:1"/>
<path class="bond-27 atom-20 atom-35" d="M 105.0,241.9 L 88.9,247.8" style="fill:none;fill-rule:evenodd;stroke:#000000;stroke-width:2.0px;stroke-linecap:butt;stroke-linejoin:miter;stroke-opacity:1"/>
<path class="bond-28 atom-2 atom-3" d="M 132.6,95.8 L 154.4,95.8" style="fill:none;fill-rule:evenodd;stroke:#000000;stroke-width:2.0px;stroke-linecap:butt;stroke-linejoin:miter;stroke-opacity:1"/>
<path class="bond-28 atom-2 atom-3" d="M 135.8,91.9 L 151.1,91.9" style="fill:none;fill-rule:evenodd;stroke:#000000;stroke-width:2.0px;stroke-linecap:butt;stroke-linejoin:miter;stroke-opacity:1"/>
<path class="bond-29 atom-3 atom-4" d="M 154.4,95.8 L 165.2,77.0" style="fill:none;fill-rule:evenodd;stroke:#000000;stroke-width:2.0px;stroke-linecap:butt;stroke-linejoin:miter;stroke-opacity:1"/>
<path class="bond-30 atom-1 atom-2" d="M 121.7,77.0 L 132.6,95.8" style="fill:none;fill-rule:evenodd;stroke:#000000;stroke-width:2.0px;stroke-linecap:butt;stroke-linejoin:miter;stroke-opacity:1"/>
<path class="bond-31 atom-4 atom-6" d="M 165.2,77.0 L 174.0,77.0" style="fill:none;fill-rule:evenodd;stroke:#000000;stroke-width:2.0px;stroke-linecap:butt;stroke-linejoin:miter;stroke-opacity:1"/>
<path class="bond-31 atom-4 atom-6" d="M 174.0,77.0 L 182.7,77.0" style="fill:none;fill-rule:evenodd;stroke:#00CC00;stroke-width:2.0px;stroke-linecap:butt;stroke-linejoin:miter;stroke-opacity:1"/>
<path class="bond-32 atom-4 atom-5" d="M 165.2,77.0 L 154.4,58.1" style="fill:none;fill-rule:evenodd;stroke:#000000;stroke-width:2.0px;stroke-linecap:butt;stroke-linejoin:miter;stroke-opacity:1"/>
<path class="bond-32 atom-4 atom-5" d="M 160.2,76.1 L 152.6,62.9" style="fill:none;fill-rule:evenodd;stroke:#000000;stroke-width:2.0px;stroke-linecap:butt;stroke-linejoin:miter;stroke-opacity:1"/>
<path class="bond-33 atom-1 atom-27" d="M 121.7,77.0 L 104.2,77.0" style="fill:none;fill-rule:evenodd;stroke:#000000;stroke-width:2.0px;stroke-linecap:butt;stroke-linejoin:miter;stroke-opacity:1"/>
<path class="bond-34 atom-0 atom-1" d="M 132.6,58.1 L 121.7,77.0" style="fill:none;fill-rule:evenodd;stroke:#000000;stroke-width:2.0px;stroke-linecap:butt;stroke-linejoin:miter;stroke-opacity:1"/>
<path class="bond-34 atom-0 atom-1" d="M 134.3,62.9 L 126.7,76.1" style="fill:none;fill-rule:evenodd;stroke:#000000;stroke-width:2.0px;stroke-linecap:butt;stroke-linejoin:miter;stroke-opacity:1"/>
<path class="bond-35 atom-0 atom-5" d="M 132.6,58.1 L 154.4,58.1" style="fill:none;fill-rule:evenodd;stroke:#000000;stroke-width:2.0px;stroke-linecap:butt;stroke-linejoin:miter;stroke-opacity:1"/>
<path class="bond-36 atom-5 atom-28" d="M 154.4,58.1 L 162.2,44.6" style="fill:none;fill-rule:evenodd;stroke:#000000;stroke-width:2.0px;stroke-linecap:butt;stroke-linejoin:miter;stroke-opacity:1"/>
<path class="bond-37 atom-0 atom-26" d="M 132.6,58.1 L 124.8,44.6" style="fill:none;fill-rule:evenodd;stroke:#000000;stroke-width:2.0px;stroke-linecap:butt;stroke-linejoin:miter;stroke-opacity:1"/>
<path class="atom-6" d="M 183.5 77.3 Q 183.5 75.0, 184.5 73.8 Q 185.6 72.6, 187.7 72.6 Q 189.6 72.6, 190.6 73.9 L 189.7 74.6 Q 189.0 73.6, 187.7 73.6 Q 186.3 73.6, 185.5 74.6 Q 184.8 75.5, 184.8 77.3 Q 184.8 79.1, 185.6 80.1 Q 186.3 81.0, 187.8 81.0 Q 188.8 81.0, 190.0 80.4 L 190.4 81.4 Q 189.9 81.7, 189.2 81.9 Q 188.4 82.0, 187.6 82.0 Q 185.6 82.0, 184.5 80.8 Q 183.5 79.6, 183.5 77.3 " fill="#00CC00"/>
<path class="atom-6" d="M 191.1 72.0 L 192.3 72.0 L 192.3 81.9 L 191.1 81.9 L 191.1 72.0 " fill="#00CC00"/>
<path class="atom-8" d="M 182.8 114.7 Q 182.8 112.5, 183.9 111.3 Q 185.0 110.0, 187.0 110.0 Q 189.1 110.0, 190.2 111.3 Q 191.3 112.5, 191.3 114.7 Q 191.3 117.0, 190.2 118.3 Q 189.1 119.5, 187.0 119.5 Q 185.0 119.5, 183.9 118.3 Q 182.8 117.0, 182.8 114.7 M 187.0 118.5 Q 188.4 118.5, 189.2 117.5 Q 190.0 116.6, 190.0 114.7 Q 190.0 112.9, 189.2 112.0 Q 188.4 111.1, 187.0 111.1 Q 185.6 111.1, 184.8 112.0 Q 184.1 112.9, 184.1 114.7 Q 184.1 116.6, 184.8 117.5 Q 185.6 118.5, 187.0 118.5 " fill="#FF0000"/>
<path class="atom-9" d="M 152.3 128.9 L 155.3 133.8 Q 155.6 134.3, 156.1 135.2 Q 156.6 136.1, 156.6 136.1 L 156.6 128.9 L 157.9 128.9 L 157.9 138.2 L 156.6 138.2 L 153.3 132.8 Q 153.0 132.2, 152.6 131.5 Q 152.2 130.8, 152.0 130.5 L 152.0 138.2 L 150.8 138.2 L 150.8 128.9 L 152.3 128.9 " fill="#0000FF"/>
<path class="atom-13" d="M 185.0 185.5 L 188.0 190.4 Q 188.3 190.9, 188.8 191.8 Q 189.3 192.7, 189.3 192.7 L 189.3 185.5 L 190.5 185.5 L 190.5 194.8 L 189.3 194.8 L 186.0 189.4 Q 185.6 188.8, 185.2 188.1 Q 184.8 187.4, 184.7 187.1 L 184.7 194.8 L 183.5 194.8 L 183.5 185.5 L 185.0 185.5 " fill="#0000FF"/>
<path class="atom-16" d="M 152.3 204.4 L 155.3 209.3 Q 155.6 209.8, 156.1 210.7 Q 156.6 211.5, 156.6 211.6 L 156.6 204.4 L 157.9 204.4 L 157.9 213.7 L 156.6 213.7 L 153.3 208.3 Q 153.0 207.7, 152.6 206.9 Q 152.2 206.2, 152.0 206.0 L 152.0 213.7 L 150.8 213.7 L 150.8 204.4 L 152.3 204.4 " fill="#0000FF"/>
<path class="atom-18" d="M 117.4 190.2 Q 117.4 188.0, 118.5 186.7 Q 119.6 185.5, 121.7 185.5 Q 123.7 185.5, 124.8 186.7 Q 125.9 188.0, 125.9 190.2 Q 125.9 192.4, 124.8 193.7 Q 123.7 195.0, 121.7 195.0 Q 119.6 195.0, 118.5 193.7 Q 117.4 192.4, 117.4 190.2 M 121.7 193.9 Q 123.1 193.9, 123.8 193.0 Q 124.6 192.0, 124.6 190.2 Q 124.6 188.4, 123.8 187.5 Q 123.1 186.5, 121.7 186.5 Q 120.3 186.5, 119.5 187.4 Q 118.7 188.4, 118.7 190.2 Q 118.7 192.1, 119.5 193.0 Q 120.3 193.9, 121.7 193.9 " fill="#FF0000"/>
<path class="atom-22" d="M 76.7 215.8 L 82.2 215.8 L 82.2 216.9 L 77.9 216.9 L 77.9 219.7 L 81.7 219.7 L 81.7 220.8 L 77.9 220.8 L 77.9 225.1 L 76.7 225.1 L 76.7 215.8 " fill="#33CCCC"/>
<path class="atom-23" d="M 113.4 115.0 Q 113.4 112.7, 114.5 111.5 Q 115.6 110.3, 117.6 110.3 Q 119.5 110.3, 120.6 111.6 L 119.7 112.4 Q 118.9 111.4, 117.6 111.4 Q 116.2 111.4, 115.5 112.3 Q 114.8 113.2, 114.8 115.0 Q 114.8 116.9, 115.5 117.8 Q 116.3 118.7, 117.8 118.7 Q 118.8 118.7, 120.0 118.1 L 120.3 119.1 Q 119.9 119.4, 119.1 119.6 Q 118.4 119.8, 117.6 119.8 Q 115.6 119.8, 114.5 118.6 Q 113.4 117.3, 113.4 115.0 " fill="#00CC00"/>
<path class="atom-23" d="M 121.1 109.7 L 122.3 109.7 L 122.3 119.7 L 121.1 119.7 L 121.1 109.7 " fill="#00CC00"/>
<path class="atom-24" d="M 134.7 237.3 L 136.0 237.3 L 136.0 241.2 L 140.7 241.2 L 140.7 237.3 L 142.0 237.3 L 142.0 246.5 L 140.7 246.5 L 140.7 242.2 L 136.0 242.2 L 136.0 246.5 L 134.7 246.5 L 134.7 237.3 " fill="#000000"/>
<path class="atom-25" d="M 101.4 194.4 L 102.6 194.4 L 102.6 198.3 L 107.4 198.3 L 107.4 194.4 L 108.6 194.4 L 108.6 203.6 L 107.4 203.6 L 107.4 199.3 L 102.6 199.3 L 102.6 203.6 L 101.4 203.6 L 101.4 194.4 " fill="#000000"/>
<path class="atom-26" d="M 118.1 34.6 L 119.3 34.6 L 119.3 38.5 L 124.0 38.5 L 124.0 34.6 L 125.3 34.6 L 125.3 43.9 L 124.0 43.9 L 124.0 39.6 L 119.3 39.6 L 119.3 43.9 L 118.1 43.9 L 118.1 34.6 " fill="#000000"/>
<path class="atom-27" d="M 96.3 72.3 L 97.5 72.3 L 97.5 76.3 L 102.3 76.3 L 102.3 72.3 L 103.5 72.3 L 103.5 81.6 L 102.3 81.6 L 102.3 77.3 L 97.5 77.3 L 97.5 81.6 L 96.3 81.6 L 96.3 72.3 " fill="#000000"/>
<path class="atom-28" d="M 161.6 34.6 L 162.9 34.6 L 162.9 38.5 L 167.6 38.5 L 167.6 34.6 L 168.9 34.6 L 168.9 43.9 L 167.6 43.9 L 167.6 39.6 L 162.9 39.6 L 162.9 43.9 L 161.6 43.9 L 161.6 34.6 " fill="#000000"/>
<path class="atom-29" d="M 128.9 128.9 L 130.2 128.9 L 130.2 132.9 L 134.9 132.9 L 134.9 128.9 L 136.2 128.9 L 136.2 138.2 L 134.9 138.2 L 134.9 133.9 L 130.2 133.9 L 130.2 138.2 L 128.9 138.2 L 128.9 128.9 " fill="#000000"/>
<path class="atom-30" d="M 194.3 128.9 L 195.6 128.9 L 195.6 132.9 L 200.3 132.9 L 200.3 128.9 L 201.5 128.9 L 201.5 138.2 L 200.3 138.2 L 200.3 133.9 L 195.6 133.9 L 195.6 138.2 L 194.3 138.2 L 194.3 128.9 " fill="#000000"/>
<path class="atom-31" d="M 216.1 166.7 L 217.3 166.7 L 217.3 170.6 L 222.1 170.6 L 222.1 166.7 L 223.3 166.7 L 223.3 175.9 L 222.1 175.9 L 222.1 171.6 L 217.3 171.6 L 217.3 175.9 L 216.1 175.9 L 216.1 166.7 " fill="#000000"/>
<path class="atom-32" d="M 128.9 166.7 L 130.2 166.7 L 130.2 170.6 L 134.9 170.6 L 134.9 166.7 L 136.2 166.7 L 136.2 175.9 L 134.9 175.9 L 134.9 171.6 L 130.2 171.6 L 130.2 175.9 L 128.9 175.9 L 128.9 166.7 " fill="#000000"/>
<path class="atom-33" d="M 161.6 223.3 L 162.9 223.3 L 162.9 227.2 L 167.6 227.2 L 167.6 223.3 L 168.9 223.3 L 168.9 232.5 L 167.6 232.5 L 167.6 228.2 L 162.9 228.2 L 162.9 232.5 L 161.6 232.5 L 161.6 223.3 " fill="#000000"/>
<path class="atom-34" d="M 112.3 256.1 L 113.5 256.1 L 113.5 260.1 L 118.2 260.1 L 118.2 256.1 L 119.5 256.1 L 119.5 265.4 L 118.2 265.4 L 118.2 261.1 L 113.5 261.1 L 113.5 265.4 L 112.3 265.4 L 112.3 256.1 " fill="#000000"/>
<path class="atom-35" d="M 80.9 244.7 L 82.2 244.7 L 82.2 248.6 L 86.9 248.6 L 86.9 244.7 L 88.1 244.7 L 88.1 254.0 L 86.9 254.0 L 86.9 249.7 L 82.2 249.7 L 82.2 254.0 L 80.9 254.0 L 80.9 244.7 " fill="#000000"/>
<ellipse cx="390.7" cy="220.4" rx="7.2" ry="7.2" class="atom-22" style="fill:#6B4EF9;fill-rule:evenodd;stroke:#6B4EF9;stroke-width:1.0px;stroke-linecap:butt;stroke-linejoin:miter;stroke-opacity:1"/>
<ellipse cx="443.8" cy="133.6" rx="7.2" ry="7.2" class="atom-29" style="fill:#DC3369;fill-rule:evenodd;stroke:#DC3369;stroke-width:1.0px;stroke-linecap:butt;stroke-linejoin:miter;stroke-opacity:1"/>
<ellipse cx="476.5" cy="227.9" rx="7.2" ry="7.2" class="atom-33" style="fill:#DC3369;fill-rule:evenodd;stroke:#DC3369;stroke-width:1.0px;stroke-linecap:butt;stroke-linejoin:miter;stroke-opacity:1"/>
<ellipse cx="368.9" cy="220.4" rx="7.2" ry="7.2" class="atom-36" style="fill:#DC3369;fill-rule:evenodd;stroke:#DC3369;stroke-width:1.0px;stroke-linecap:butt;stroke-linejoin:miter;stroke-opacity:1"/>
<path class="bond-0 atom-0 atom-1" d="M 443.8,58.1 L 433.0,77.0" style="fill:none;fill-rule:evenodd;stroke:#000000;stroke-width:2.0px;stroke-linecap:butt;stroke-linejoin:miter;stroke-opacity:1"/>
<path class="bond-0 atom-0 atom-1" d="M 445.6,62.9 L 438.0,76.1" style="fill:none;fill-rule:evenodd;stroke:#000000;stroke-width:2.0px;stroke-linecap:butt;stroke-linejoin:miter;stroke-opacity:1"/>
<path class="bond-1 atom-0 atom-5" d="M 443.8,58.1 L 465.6,58.1" style="fill:none;fill-rule:evenodd;stroke:#000000;stroke-width:2.0px;stroke-linecap:butt;stroke-linejoin:miter;stroke-opacity:1"/>
<path class="bond-2 atom-0 atom-26" d="M 443.8,58.1 L 436.0,44.6" style="fill:none;fill-rule:evenodd;stroke:#000000;stroke-width:2.0px;stroke-linecap:butt;stroke-linejoin:miter;stroke-opacity:1"/>
<path class="bond-3 atom-1 atom-2" d="M 433.0,77.0 L 443.8,95.8" style="fill:none;fill-rule:evenodd;stroke:#000000;stroke-width:2.0px;stroke-linecap:butt;stroke-linejoin:miter;stroke-opacity:1"/>
<path class="bond-4 atom-1 atom-27" d="M 433.0,77.0 L 415.5,77.0" style="fill:none;fill-rule:evenodd;stroke:#000000;stroke-width:2.0px;stroke-linecap:butt;stroke-linejoin:miter;stroke-opacity:1"/>
<path class="bond-5 atom-2 atom-23" d="M 443.8,95.8 L 439.1,104.1" style="fill:none;fill-rule:evenodd;stroke:#000000;stroke-width:2.0px;stroke-linecap:butt;stroke-linejoin:miter;stroke-opacity:1"/>
<path class="bond-5 atom-2 atom-23" d="M 439.1,104.1 L 434.3,112.4" style="fill:none;fill-rule:evenodd;stroke:#00CC00;stroke-width:2.0px;stroke-linecap:butt;stroke-linejoin:miter;stroke-opacity:1"/>
<path class="bond-6 atom-2 atom-3" d="M 443.8,95.8 L 465.6,95.8" style="fill:none;fill-rule:evenodd;stroke:#000000;stroke-width:2.0px;stroke-linecap:butt;stroke-linejoin:miter;stroke-opacity:1"/>
<path class="bond-6 atom-2 atom-3" d="M 447.1,91.9 L 462.4,91.9" style="fill:none;fill-rule:evenodd;stroke:#000000;stroke-width:2.0px;stroke-linecap:butt;stroke-linejoin:miter;stroke-opacity:1"/>
<path class="bond-7 atom-3 atom-7" d="M 465.6,95.8 L 476.5,114.7" style="fill:none;fill-rule:evenodd;stroke:#000000;stroke-width:2.0px;stroke-linecap:butt;stroke-linejoin:miter;stroke-opacity:1"/>
<path class="bond-8 atom-3 atom-4" d="M 465.6,95.8 L 476.5,77.0" style="fill:none;fill-rule:evenodd;stroke:#000000;stroke-width:2.0px;stroke-linecap:butt;stroke-linejoin:miter;stroke-opacity:1"/>
<path class="bond-9 atom-4 atom-6" d="M 476.5,77.0 L 485.3,77.0" style="fill:none;fill-rule:evenodd;stroke:#000000;stroke-width:2.0px;stroke-linecap:butt;stroke-linejoin:miter;stroke-opacity:1"/>
<path class="bond-9 atom-4 atom-6" d="M 485.3,77.0 L 494.0,77.0" style="fill:none;fill-rule:evenodd;stroke:#00CC00;stroke-width:2.0px;stroke-linecap:butt;stroke-linejoin:miter;stroke-opacity:1"/>
<path class="bond-10 atom-4 atom-5" d="M 476.5,77.0 L 465.6,58.1" style="fill:none;fill-rule:evenodd;stroke:#000000;stroke-width:2.0px;stroke-linecap:butt;stroke-linejoin:miter;stroke-opacity:1"/>
<path class="bond-10 atom-4 atom-5" d="M 471.5,76.1 L 463.9,62.9" style="fill:none;fill-rule:evenodd;stroke:#000000;stroke-width:2.0px;stroke-linecap:butt;stroke-linejoin:miter;stroke-opacity:1"/>
<path class="bond-11 atom-5 atom-28" d="M 465.6,58.1 L 473.4,44.6" style="fill:none;fill-rule:evenodd;stroke:#000000;stroke-width:2.0px;stroke-linecap:butt;stroke-linejoin:miter;stroke-opacity:1"/>
<path class="bond-12 atom-7 atom-8" d="M 476.5,112.7 L 484.9,112.7" style="fill:none;fill-rule:evenodd;stroke:#000000;stroke-width:2.0px;stroke-linecap:butt;stroke-linejoin:miter;stroke-opacity:1"/>
<path class="bond-12 atom-7 atom-8" d="M 484.9,112.7 L 493.3,112.7" style="fill:none;fill-rule:evenodd;stroke:#FF0000;stroke-width:2.0px;stroke-linecap:butt;stroke-linejoin:miter;stroke-opacity:1"/>
<path class="bond-12 atom-7 atom-8" d="M 476.5,116.7 L 484.9,116.7" style="fill:none;fill-rule:evenodd;stroke:#000000;stroke-width:2.0px;stroke-linecap:butt;stroke-linejoin:miter;stroke-opacity:1"/>
<path class="bond-12 atom-7 atom-8" d="M 484.9,116.7 L 493.3,116.7" style="fill:none;fill-rule:evenodd;stroke:#FF0000;stroke-width:2.0px;stroke-linecap:butt;stroke-linejoin:miter;stroke-opacity:1"/>
<path class="bond-13 atom-7 atom-9" d="M 476.5,114.7 L 472.6,121.5" style="fill:none;fill-rule:evenodd;stroke:#000000;stroke-width:2.0px;stroke-linecap:butt;stroke-linejoin:miter;stroke-opacity:1"/>
<path class="bond-13 atom-7 atom-9" d="M 472.6,121.5 L 468.7,128.2" style="fill:none;fill-rule:evenodd;stroke:#0000FF;stroke-width:2.0px;stroke-linecap:butt;stroke-linejoin:miter;stroke-opacity:1"/>
<path class="bond-14 atom-9 atom-10" d="M 468.7,138.9 L 472.6,145.7" style="fill:none;fill-rule:evenodd;stroke:#0000FF;stroke-width:2.0px;stroke-linecap:butt;stroke-linejoin:miter;stroke-opacity:1"/>
<path class="bond-14 atom-9 atom-10" d="M 472.6,145.7 L 476.5,152.4" style="fill:none;fill-rule:evenodd;stroke:#000000;stroke-width:2.0px;stroke-linecap:butt;stroke-linejoin:miter;stroke-opacity:1"/>
<path class="bond-15 atom-9 atom-29" d="M 461.4,133.6 L 454.8,133.6" style="fill:none;fill-rule:evenodd;stroke:#0000FF;stroke-width:2.0px;stroke-linecap:butt;stroke-linejoin:miter;stroke-opacity:1"/>
<path class="bond-15 atom-9 atom-29" d="M 454.8,133.6 L 448.2,133.6" style="fill:none;fill-rule:evenodd;stroke:#000000;stroke-width:2.0px;stroke-linecap:butt;stroke-linejoin:miter;stroke-opacity:1"/>
<path class="bond-16 atom-10 atom-11" d="M 476.5,152.4 L 498.3,152.4" style="fill:none;fill-rule:evenodd;stroke:#000000;stroke-width:2.0px;stroke-linecap:butt;stroke-linejoin:miter;stroke-opacity:1"/>
<path class="bond-16 atom-10 atom-11" d="M 479.8,156.4 L 495.0,156.4" style="fill:none;fill-rule:evenodd;stroke:#000000;stroke-width:2.0px;stroke-linecap:butt;stroke-linejoin:miter;stroke-opacity:1"/>
<path class="bond-17 atom-10 atom-15" d="M 476.5,152.4 L 465.6,171.3" style="fill:none;fill-rule:evenodd;stroke:#000000;stroke-width:2.0px;stroke-linecap:butt;stroke-linejoin:miter;stroke-opacity:1"/>
<path class="bond-18 atom-11 atom-12" d="M 498.3,152.4 L 509.2,171.3" style="fill:none;fill-rule:evenodd;stroke:#000000;stroke-width:2.0px;stroke-linecap:butt;stroke-linejoin:miter;stroke-opacity:1"/>
<path class="bond-19 atom-11 atom-30" d="M 498.3,152.4 L 506.1,138.9" style="fill:none;fill-rule:evenodd;stroke:#000000;stroke-width:2.0px;stroke-linecap:butt;stroke-linejoin:miter;stroke-opacity:1"/>
<path class="bond-20 atom-12 atom-31" d="M 509.2,171.3 L 526.6,171.3" style="fill:none;fill-rule:evenodd;stroke:#000000;stroke-width:2.0px;stroke-linecap:butt;stroke-linejoin:miter;stroke-opacity:1"/>
<path class="bond-21 atom-12 atom-13" d="M 509.2,171.3 L 505.3,178.1" style="fill:none;fill-rule:evenodd;stroke:#000000;stroke-width:2.0px;stroke-linecap:butt;stroke-linejoin:miter;stroke-opacity:1"/>
<path class="bond-21 atom-12 atom-13" d="M 505.3,178.1 L 501.4,184.8" style="fill:none;fill-rule:evenodd;stroke:#0000FF;stroke-width:2.0px;stroke-linecap:butt;stroke-linejoin:miter;stroke-opacity:1"/>
<path class="bond-21 atom-12 atom-13" d="M 504.6,171.4 L 501.9,176.1" style="fill:none;fill-rule:evenodd;stroke:#000000;stroke-width:2.0px;stroke-linecap:butt;stroke-linejoin:miter;stroke-opacity:1"/>
<path class="bond-21 atom-12 atom-13" d="M 501.9,176.1 L 499.2,180.8" style="fill:none;fill-rule:evenodd;stroke:#0000FF;stroke-width:2.0px;stroke-linecap:butt;stroke-linejoin:miter;stroke-opacity:1"/>
<path class="bond-22 atom-13 atom-14" d="M 494.1,190.2 L 485.3,190.2" style="fill:none;fill-rule:evenodd;stroke:#0000FF;stroke-width:2.0px;stroke-linecap:butt;stroke-linejoin:miter;stroke-opacity:1"/>
<path class="bond-22 atom-13 atom-14" d="M 485.3,190.2 L 476.5,190.2" style="fill:none;fill-rule:evenodd;stroke:#000000;stroke-width:2.0px;stroke-linecap:butt;stroke-linejoin:miter;stroke-opacity:1"/>
<path class="bond-23 atom-14 atom-16" d="M 476.5,190.2 L 472.6,196.9" style="fill:none;fill-rule:evenodd;stroke:#000000;stroke-width:2.0px;stroke-linecap:butt;stroke-linejoin:miter;stroke-opacity:1"/>
<path class="bond-23 atom-14 atom-16" d="M 472.6,196.9 L 468.7,203.7" style="fill:none;fill-rule:evenodd;stroke:#0000FF;stroke-width:2.0px;stroke-linecap:butt;stroke-linejoin:miter;stroke-opacity:1"/>
<path class="bond-24 atom-14 atom-15" d="M 476.5,190.2 L 465.6,171.3" style="fill:none;fill-rule:evenodd;stroke:#000000;stroke-width:2.0px;stroke-linecap:butt;stroke-linejoin:miter;stroke-opacity:1"/>
<path class="bond-24 atom-14 atom-15" d="M 478.3,185.4 L 470.7,172.2" style="fill:none;fill-rule:evenodd;stroke:#000000;stroke-width:2.0px;stroke-linecap:butt;stroke-linejoin:miter;stroke-opacity:1"/>
<path class="bond-25 atom-15 atom-32" d="M 465.6,171.3 L 448.2,171.3" style="fill:none;fill-rule:evenodd;stroke:#000000;stroke-width:2.0px;stroke-linecap:butt;stroke-linejoin:miter;stroke-opacity:1"/>
<path class="bond-26 atom-16 atom-33" d="M 468.7,214.4 L 471.1,218.5" style="fill:none;fill-rule:evenodd;stroke:#0000FF;stroke-width:2.0px;stroke-linecap:butt;stroke-linejoin:miter;stroke-opacity:1"/>
<path class="bond-26 atom-16 atom-33" d="M 471.1,218.5 L 473.4,222.5" style="fill:none;fill-rule:evenodd;stroke:#000000;stroke-width:2.0px;stroke-linecap:butt;stroke-linejoin:miter;stroke-opacity:1"/>
<path class="bond-27 atom-16 atom-17" d="M 461.4,209.0 L 452.6,209.0" style="fill:none;fill-rule:evenodd;stroke:#0000FF;stroke-width:2.0px;stroke-linecap:butt;stroke-linejoin:miter;stroke-opacity:1"/>
<path class="bond-27 atom-16 atom-17" d="M 452.6,209.0 L 443.8,209.0" style="fill:none;fill-rule:evenodd;stroke:#000000;stroke-width:2.0px;stroke-linecap:butt;stroke-linejoin:miter;stroke-opacity:1"/>
<path class="bond-28 atom-17 atom-19" d="M 443.8,209.0 L 433.0,227.9" style="fill:none;fill-rule:evenodd;stroke:#000000;stroke-width:2.0px;stroke-linecap:butt;stroke-linejoin:miter;stroke-opacity:1"/>
<path class="bond-29 atom-17 atom-18" d="M 442.1,210.0 L 438.3,203.3" style="fill:none;fill-rule:evenodd;stroke:#000000;stroke-width:2.0px;stroke-linecap:butt;stroke-linejoin:miter;stroke-opacity:1"/>
<path class="bond-29 atom-17 atom-18" d="M 438.3,203.3 L 434.5,196.7" style="fill:none;fill-rule:evenodd;stroke:#FF0000;stroke-width:2.0px;stroke-linecap:butt;stroke-linejoin:miter;stroke-opacity:1"/>
<path class="bond-29 atom-17 atom-18" d="M 445.5,208.0 L 441.7,201.4" style="fill:none;fill-rule:evenodd;stroke:#000000;stroke-width:2.0px;stroke-linecap:butt;stroke-linejoin:miter;stroke-opacity:1"/>
<path class="bond-29 atom-17 atom-18" d="M 441.7,201.4 L 437.8,194.7" style="fill:none;fill-rule:evenodd;stroke:#FF0000;stroke-width:2.0px;stroke-linecap:butt;stroke-linejoin:miter;stroke-opacity:1"/>
<path class="bond-30 atom-19 atom-21" d="M 433.0,227.9 L 412.5,220.4" style="fill:none;fill-rule:evenodd;stroke:#000000;stroke-width:2.0px;stroke-linecap:butt;stroke-linejoin:miter;stroke-opacity:1"/>
<path class="bond-31 atom-19 atom-24" d="M 436.4,231.7 L 437.3,230.6" style="fill:none;fill-rule:evenodd;stroke:#000000;stroke-width:1.0px;stroke-linecap:butt;stroke-linejoin:miter;stroke-opacity:1"/>
<path class="bond-31 atom-19 atom-24" d="M 439.8,235.5 L 441.6,233.3" style="fill:none;fill-rule:evenodd;stroke:#000000;stroke-width:1.0px;stroke-linecap:butt;stroke-linejoin:miter;stroke-opacity:1"/>
<path class="bond-31 atom-19 atom-24" d="M 443.2,239.3 L 446.0,236.0" style="fill:none;fill-rule:evenodd;stroke:#000000;stroke-width:1.0px;stroke-linecap:butt;stroke-linejoin:miter;stroke-opacity:1"/>
<path class="bond-32 atom-19 atom-20" d="M 433.0,227.9 L 416.3,241.9" style="fill:none;fill-rule:evenodd;stroke:#000000;stroke-width:2.0px;stroke-linecap:butt;stroke-linejoin:miter;stroke-opacity:1"/>
<path class="bond-33 atom-20 atom-21" d="M 416.3,241.9 L 412.5,220.4" style="fill:none;fill-rule:evenodd;stroke:#000000;stroke-width:2.0px;stroke-linecap:butt;stroke-linejoin:miter;stroke-opacity:1"/>
<path class="bond-34 atom-20 atom-34" d="M 416.3,241.9 L 424.1,255.4" style="fill:none;fill-rule:evenodd;stroke:#000000;stroke-width:2.0px;stroke-linecap:butt;stroke-linejoin:miter;stroke-opacity:1"/>
<path class="bond-35 atom-20 atom-35" d="M 416.3,241.9 L 400.1,247.8" style="fill:none;fill-rule:evenodd;stroke:#000000;stroke-width:2.0px;stroke-linecap:butt;stroke-linejoin:miter;stroke-opacity:1"/>
<path class="bond-36 atom-21 atom-22" d="M 412.5,220.4 L 390.7,220.4" style="fill:none;fill-rule:evenodd;stroke:#000000;stroke-width:2.0px;stroke-linecap:butt;stroke-linejoin:miter;stroke-opacity:1"/>
<path class="bond-37 atom-21 atom-25" d="M 414.1,215.4 L 412.7,215.2" style="fill:none;fill-rule:evenodd;stroke:#000000;stroke-width:1.0px;stroke-linecap:butt;stroke-linejoin:miter;stroke-opacity:1"/>
<path class="bond-37 atom-21 atom-25" d="M 415.7,210.4 L 412.9,209.9" style="fill:none;fill-rule:evenodd;stroke:#000000;stroke-width:1.0px;stroke-linecap:butt;stroke-linejoin:miter;stroke-opacity:1"/>
<path class="bond-37 atom-21 atom-25" d="M 417.3,205.4 L 413.0,204.7" style="fill:none;fill-rule:evenodd;stroke:#000000;stroke-width:1.0px;stroke-linecap:butt;stroke-linejoin:miter;stroke-opacity:1"/>
<path class="bond-38 atom-22 atom-36" d="M 390.7,220.4 L 381.9,220.4" style="fill:none;fill-rule:evenodd;stroke:#000000;stroke-width:2.0px;stroke-linecap:butt;stroke-linejoin:miter;stroke-opacity:1"/>
<path class="bond-38 atom-22 atom-36" d="M 381.9,220.4 L 373.1,220.4" style="fill:none;fill-rule:evenodd;stroke:#0000FF;stroke-width:2.0px;stroke-linecap:butt;stroke-linejoin:miter;stroke-opacity:1"/>
<path class="bond-38 atom-22 atom-36" d="M 388.1,224.4 L 380.6,224.4" style="fill:none;fill-rule:evenodd;stroke:#000000;stroke-width:2.0px;stroke-linecap:butt;stroke-linejoin:miter;stroke-opacity:1"/>
<path class="bond-38 atom-22 atom-36" d="M 380.6,224.4 L 373.1,224.4" style="fill:none;fill-rule:evenodd;stroke:#0000FF;stroke-width:2.0px;stroke-linecap:butt;stroke-linejoin:miter;stroke-opacity:1"/>
<path class="bond-38 atom-22 atom-36" d="M 388.1,216.5 L 380.6,216.5" style="fill:none;fill-rule:evenodd;stroke:#000000;stroke-width:2.0px;stroke-linecap:butt;stroke-linejoin:miter;stroke-opacity:1"/>
<path class="bond-38 atom-22 atom-36" d="M 380.6,216.5 L 373.1,216.5" style="fill:none;fill-rule:evenodd;stroke:#0000FF;stroke-width:2.0px;stroke-linecap:butt;stroke-linejoin:miter;stroke-opacity:1"/>
<path class="atom-6" d="M 494.7 77.3 Q 494.7 75.0, 495.8 73.8 Q 496.9 72.6, 498.9 72.6 Q 500.8 72.6, 501.9 73.9 L 501.0 74.6 Q 500.3 73.6, 498.9 73.6 Q 497.5 73.6, 496.8 74.6 Q 496.1 75.5, 496.1 77.3 Q 496.1 79.1, 496.8 80.1 Q 497.6 81.0, 499.1 81.0 Q 500.1 81.0, 501.3 80.4 L 501.7 81.4 Q 501.2 81.7, 500.4 81.9 Q 499.7 82.0, 498.9 82.0 Q 496.9 82.0, 495.8 80.8 Q 494.7 79.6, 494.7 77.3 " fill="#00CC00"/>
<path class="atom-6" d="M 502.4 72.0 L 503.6 72.0 L 503.6 81.9 L 502.4 81.9 L 502.4 72.0 " fill="#00CC00"/>
<path class="atom-8" d="M 494.1 114.7 Q 494.1 112.5, 495.2 111.3 Q 496.2 110.0, 498.3 110.0 Q 500.4 110.0, 501.5 111.3 Q 502.5 112.5, 502.5 114.7 Q 502.5 117.0, 501.4 118.3 Q 500.3 119.5, 498.3 119.5 Q 496.3 119.5, 495.2 118.3 Q 494.1 117.0, 494.1 114.7 M 498.3 118.5 Q 499.7 118.5, 500.5 117.5 Q 501.2 116.6, 501.2 114.7 Q 501.2 112.9, 500.5 112.0 Q 499.7 111.1, 498.3 111.1 Q 496.9 111.1, 496.1 112.0 Q 495.4 112.9, 495.4 114.7 Q 495.4 116.6, 496.1 117.5 Q 496.9 118.5, 498.3 118.5 " fill="#FF0000"/>
<path class="atom-9" d="M 463.6 128.9 L 466.6 133.8 Q 466.9 134.3, 467.4 135.2 Q 467.9 136.1, 467.9 136.1 L 467.9 128.9 L 469.1 128.9 L 469.1 138.2 L 467.9 138.2 L 464.6 132.8 Q 464.2 132.2, 463.8 131.5 Q 463.4 130.8, 463.3 130.5 L 463.3 138.2 L 462.1 138.2 L 462.1 128.9 L 463.6 128.9 " fill="#0000FF"/>
<path class="atom-13" d="M 496.3 185.5 L 499.3 190.4 Q 499.6 190.9, 500.1 191.8 Q 500.6 192.7, 500.6 192.7 L 500.6 185.5 L 501.8 185.5 L 501.8 194.8 L 500.5 194.8 L 497.3 189.4 Q 496.9 188.8, 496.5 188.1 Q 496.1 187.4, 496.0 187.1 L 496.0 194.8 L 494.8 194.8 L 494.8 185.5 L 496.3 185.5 " fill="#0000FF"/>
<path class="atom-16" d="M 463.6 204.4 L 466.6 209.3 Q 466.9 209.8, 467.4 210.7 Q 467.9 211.5, 467.9 211.6 L 467.9 204.4 L 469.1 204.4 L 469.1 213.7 L 467.9 213.7 L 464.6 208.3 Q 464.2 207.7, 463.8 206.9 Q 463.4 206.2, 463.3 206.0 L 463.3 213.7 L 462.1 213.7 L 462.1 204.4 L 463.6 204.4 " fill="#0000FF"/>
<path class="atom-18" d="M 428.7 190.2 Q 428.7 188.0, 429.8 186.7 Q 430.9 185.5, 432.9 185.5 Q 435.0 185.5, 436.1 186.7 Q 437.2 188.0, 437.2 190.2 Q 437.2 192.4, 436.1 193.7 Q 435.0 195.0, 432.9 195.0 Q 430.9 195.0, 429.8 193.7 Q 428.7 192.4, 428.7 190.2 M 432.9 193.9 Q 434.4 193.9, 435.1 193.0 Q 435.9 192.0, 435.9 190.2 Q 435.9 188.4, 435.1 187.5 Q 434.4 186.5, 432.9 186.5 Q 431.5 186.5, 430.8 187.4 Q 430.0 188.4, 430.0 190.2 Q 430.0 192.1, 430.8 193.0 Q 431.5 193.9, 432.9 193.9 " fill="#FF0000"/>
<path class="atom-23" d="M 424.7 115.0 Q 424.7 112.7, 425.8 111.5 Q 426.8 110.3, 428.9 110.3 Q 430.8 110.3, 431.8 111.6 L 431.0 112.4 Q 430.2 111.4, 428.9 111.4 Q 427.5 111.4, 426.8 112.3 Q 426.0 113.2, 426.0 115.0 Q 426.0 116.9, 426.8 117.8 Q 427.6 118.7, 429.0 118.7 Q 430.1 118.7, 431.2 118.1 L 431.6 119.1 Q 431.1 119.4, 430.4 119.6 Q 429.7 119.8, 428.9 119.8 Q 426.8 119.8, 425.8 118.6 Q 424.7 117.3, 424.7 115.0 " fill="#00CC00"/>
<path class="atom-23" d="M 432.3 109.7 L 433.5 109.7 L 433.5 119.7 L 432.3 119.7 L 432.3 109.7 " fill="#00CC00"/>
<path class="atom-24" d="M 446.0 237.3 L 447.3 237.3 L 447.3 241.2 L 452.0 241.2 L 452.0 237.3 L 453.3 237.3 L 453.3 246.5 L 452.0 246.5 L 452.0 242.2 L 447.3 242.2 L 447.3 246.5 L 446.0 246.5 L 446.0 237.3 " fill="#000000"/>
<path class="atom-25" d="M 412.6 194.4 L 413.9 194.4 L 413.9 198.3 L 418.6 198.3 L 418.6 194.4 L 419.9 194.4 L 419.9 203.6 L 418.6 203.6 L 418.6 199.3 L 413.9 199.3 L 413.9 203.6 L 412.6 203.6 L 412.6 194.4 " fill="#000000"/>
<path class="atom-26" d="M 429.3 34.6 L 430.6 34.6 L 430.6 38.5 L 435.3 38.5 L 435.3 34.6 L 436.6 34.6 L 436.6 43.9 L 435.3 43.9 L 435.3 39.6 L 430.6 39.6 L 430.6 43.9 L 429.3 43.9 L 429.3 34.6 " fill="#000000"/>
<path class="atom-27" d="M 407.5 72.3 L 408.8 72.3 L 408.8 76.3 L 413.5 76.3 L 413.5 72.3 L 414.8 72.3 L 414.8 81.6 L 413.5 81.6 L 413.5 77.3 L 408.8 77.3 L 408.8 81.6 L 407.5 81.6 L 407.5 72.3 " fill="#000000"/>
<path class="atom-28" d="M 472.9 34.6 L 474.2 34.6 L 474.2 38.5 L 478.9 38.5 L 478.9 34.6 L 480.1 34.6 L 480.1 43.9 L 478.9 43.9 L 478.9 39.6 L 474.2 39.6 L 474.2 43.9 L 472.9 43.9 L 472.9 34.6 " fill="#000000"/>
<path class="atom-29" d="M 440.2 128.9 L 441.5 128.9 L 441.5 132.9 L 446.2 132.9 L 446.2 128.9 L 447.5 128.9 L 447.5 138.2 L 446.2 138.2 L 446.2 133.9 L 441.5 133.9 L 441.5 138.2 L 440.2 138.2 L 440.2 128.9 " fill="#000000"/>
<path class="atom-30" d="M 505.6 128.9 L 506.8 128.9 L 506.8 132.9 L 511.6 132.9 L 511.6 128.9 L 512.8 128.9 L 512.8 138.2 L 511.6 138.2 L 511.6 133.9 L 506.8 133.9 L 506.8 138.2 L 505.6 138.2 L 505.6 128.9 " fill="#000000"/>
<path class="atom-31" d="M 527.4 166.7 L 528.6 166.7 L 528.6 170.6 L 533.3 170.6 L 533.3 166.7 L 534.6 166.7 L 534.6 175.9 L 533.3 175.9 L 533.3 171.6 L 528.6 171.6 L 528.6 175.9 L 527.4 175.9 L 527.4 166.7 " fill="#000000"/>
<path class="atom-32" d="M 440.2 166.7 L 441.5 166.7 L 441.5 170.6 L 446.2 170.6 L 446.2 166.7 L 447.5 166.7 L 447.5 175.9 L 446.2 175.9 L 446.2 171.6 L 441.5 171.6 L 441.5 175.9 L 440.2 175.9 L 440.2 166.7 " fill="#000000"/>
<path class="atom-33" d="M 472.9 223.3 L 474.2 223.3 L 474.2 227.2 L 478.9 227.2 L 478.9 223.3 L 480.1 223.3 L 480.1 232.5 L 478.9 232.5 L 478.9 228.2 L 474.2 228.2 L 474.2 232.5 L 472.9 232.5 L 472.9 223.3 " fill="#000000"/>
<path class="atom-34" d="M 423.5 256.1 L 424.8 256.1 L 424.8 260.1 L 429.5 260.1 L 429.5 256.1 L 430.8 256.1 L 430.8 265.4 L 429.5 265.4 L 429.5 261.1 L 424.8 261.1 L 424.8 265.4 L 423.5 265.4 L 423.5 256.1 " fill="#000000"/>
<path class="atom-35" d="M 392.2 244.7 L 393.4 244.7 L 393.4 248.6 L 398.2 248.6 L 398.2 244.7 L 399.4 244.7 L 399.4 254.0 L 398.2 254.0 L 398.2 249.7 L 393.4 249.7 L 393.4 254.0 L 392.2 254.0 L 392.2 244.7 " fill="#000000"/>
<path class="atom-36" d="M 366.9 215.8 L 369.9 220.7 Q 370.2 221.2, 370.7 222.1 Q 371.2 222.9, 371.2 223.0 L 371.2 215.8 L 372.4 215.8 L 372.4 225.1 L 371.2 225.1 L 367.9 219.7 Q 367.5 219.1, 367.1 218.4 Q 366.7 217.6, 366.6 217.4 L 366.6 225.1 L 365.4 225.1 L 365.4 215.8 L 366.9 215.8 " fill="#0000FF"/>
<text x="300" y="20" font-size="20" font-family="sans-serif" font-weight="normal" letter-spacing="0" text-anchor="middle" fill="black"> jmc_23 -&gt; jmc_30 </text><text x="150" y="285" font-size="15" font-family="sans-serif" font-weight="normal" letter-spacing="0" text-anchor="middle" fill="black">jmc_23</text><text x="450" y="285" font-size="15" font-family="sans-serif" font-weight="normal" letter-spacing="0" text-anchor="middle" fill="black">jmc_30</text></svg>
