<?xml version='1.0' encoding='ASCII' standalone='yes'?>
<svg xmlns="http://www.w3.org/2000/svg" xmlns:rdkit="http://www.rdkit.org/xml" xmlns:xlink="http://www.w3.org/1999/xlink" version="1.1" baseProfile="full" xml:space="preserve" width="600px" height="300px" viewBox="0 0 600 300">
<!-- END OF HEADER -->
<rect style="opacity:1.0;fill:#FFFFFF;stroke:none" width="600.0" height="300.0" x="0.0" y="0.0"> </rect>
<path class="bond-0 atom-17 atom-18" d="M 129.9,162.7 L 128.5,179.3" style="fill:none;fill-rule:evenodd;stroke:#000000;stroke-width:2.0px;stroke-linecap:butt;stroke-linejoin:miter;stroke-opacity:1"/>
<path class="bond-1 atom-17 atom-19" d="M 129.9,162.7 L 131.4,146.2" style="fill:none;fill-rule:evenodd;stroke:#000000;stroke-width:2.0px;stroke-linecap:butt;stroke-linejoin:miter;stroke-opacity:1"/>
<path class="bond-2 atom-13 atom-14" d="M 105.4,124.4 L 122.2,120.5" style="fill:none;fill-rule:evenodd;stroke:#000000;stroke-width:2.0px;stroke-linecap:butt;stroke-linejoin:miter;stroke-opacity:1"/>
<path class="bond-3 atom-11 atom-12" d="M 91.7,109.6 L 96.5,93.9" style="fill:none;fill-rule:evenodd;stroke:#000000;stroke-width:2.0px;stroke-linecap:butt;stroke-linejoin:miter;stroke-opacity:1"/>
<path class="bond-4 atom-16 atom-17" d="M 109.9,160.9 L 129.9,162.7" style="fill:none;fill-rule:evenodd;stroke:#000000;stroke-width:2.0px;stroke-linecap:butt;stroke-linejoin:miter;stroke-opacity:1"/>
<path class="bond-5 atom-17 atom-20" d="M 129.9,162.7 L 150.0,164.5" style="fill:none;fill-rule:evenodd;stroke:#000000;stroke-width:2.0px;stroke-linecap:butt;stroke-linejoin:miter;stroke-opacity:1"/>
<path class="bond-6 atom-11 atom-13" d="M 91.7,109.6 L 105.4,124.4" style="fill:none;fill-rule:evenodd;stroke:#000000;stroke-width:2.0px;stroke-linecap:butt;stroke-linejoin:miter;stroke-opacity:1"/>
<path class="bond-7 atom-13 atom-15" d="M 105.4,124.4 L 99.5,143.7" style="fill:none;fill-rule:evenodd;stroke:#000000;stroke-width:2.0px;stroke-linecap:butt;stroke-linejoin:miter;stroke-opacity:1"/>
<path class="bond-7 atom-13 atom-15" d="M 100.7,126.1 L 96.5,139.6" style="fill:none;fill-rule:evenodd;stroke:#000000;stroke-width:2.0px;stroke-linecap:butt;stroke-linejoin:miter;stroke-opacity:1"/>
<path class="bond-8 atom-9 atom-11" d="M 72.0,114.1 L 91.7,109.6" style="fill:none;fill-rule:evenodd;stroke:#000000;stroke-width:2.0px;stroke-linecap:butt;stroke-linejoin:miter;stroke-opacity:1"/>
<path class="bond-8 atom-9 atom-11" d="M 75.9,117.4 L 89.6,114.2" style="fill:none;fill-rule:evenodd;stroke:#000000;stroke-width:2.0px;stroke-linecap:butt;stroke-linejoin:miter;stroke-opacity:1"/>
<path class="bond-9 atom-36 atom-39" d="M 230.4,171.6 L 237.2,186.4" style="fill:none;fill-rule:evenodd;stroke:#000000;stroke-width:2.0px;stroke-linecap:butt;stroke-linejoin:miter;stroke-opacity:1"/>
<path class="bond-10 atom-15 atom-16" d="M 99.5,143.7 L 109.9,160.9" style="fill:none;fill-rule:evenodd;stroke:#000000;stroke-width:2.0px;stroke-linecap:butt;stroke-linejoin:miter;stroke-opacity:1"/>
<path class="bond-11 atom-3 atom-16" d="M 96.6,176.2 L 109.9,160.9" style="fill:none;fill-rule:evenodd;stroke:#000000;stroke-width:2.0px;stroke-linecap:butt;stroke-linejoin:miter;stroke-opacity:1"/>
<path class="bond-11 atom-3 atom-16" d="M 95.6,171.2 L 104.8,160.6" style="fill:none;fill-rule:evenodd;stroke:#000000;stroke-width:2.0px;stroke-linecap:butt;stroke-linejoin:miter;stroke-opacity:1"/>
<path class="bond-12 atom-6 atom-15" d="M 79.8,148.2 L 99.5,143.7" style="fill:none;fill-rule:evenodd;stroke:#000000;stroke-width:2.0px;stroke-linecap:butt;stroke-linejoin:miter;stroke-opacity:1"/>
<path class="bond-13 atom-36 atom-37" d="M 230.4,171.6 L 215.0,178.8" style="fill:none;fill-rule:evenodd;stroke:#000000;stroke-width:2.0px;stroke-linecap:butt;stroke-linejoin:miter;stroke-opacity:1"/>
<path class="bond-14 atom-20 atom-21" d="M 150.0,164.5 L 148.6,181.1" style="fill:none;fill-rule:evenodd;stroke:#000000;stroke-width:2.0px;stroke-linecap:butt;stroke-linejoin:miter;stroke-opacity:1"/>
<path class="bond-15 atom-9 atom-10" d="M 72.0,114.1 L 61.2,102.5" style="fill:none;fill-rule:evenodd;stroke:#000000;stroke-width:2.0px;stroke-linecap:butt;stroke-linejoin:miter;stroke-opacity:1"/>
<path class="bond-16 atom-7 atom-9" d="M 66.1,133.4 L 72.0,114.1" style="fill:none;fill-rule:evenodd;stroke:#000000;stroke-width:2.0px;stroke-linecap:butt;stroke-linejoin:miter;stroke-opacity:1"/>
<path class="bond-17 atom-1 atom-3" d="M 101.1,195.8 L 96.6,176.2" style="fill:none;fill-rule:evenodd;stroke:#000000;stroke-width:2.0px;stroke-linecap:butt;stroke-linejoin:miter;stroke-opacity:1"/>
<path class="bond-18 atom-3 atom-4" d="M 96.6,176.2 L 88.8,172.8" style="fill:none;fill-rule:evenodd;stroke:#000000;stroke-width:2.0px;stroke-linecap:butt;stroke-linejoin:miter;stroke-opacity:1"/>
<path class="bond-18 atom-3 atom-4" d="M 88.8,172.8 L 80.9,169.5" style="fill:none;fill-rule:evenodd;stroke:#0000FF;stroke-width:2.0px;stroke-linecap:butt;stroke-linejoin:miter;stroke-opacity:1"/>
<path class="bond-19 atom-0 atom-1" d="M 89.7,206.5 L 95.4,201.1" style="fill:none;fill-rule:evenodd;stroke:#FF0000;stroke-width:2.0px;stroke-linecap:butt;stroke-linejoin:miter;stroke-opacity:1"/>
<path class="bond-19 atom-0 atom-1" d="M 95.4,201.1 L 101.1,195.8" style="fill:none;fill-rule:evenodd;stroke:#000000;stroke-width:2.0px;stroke-linecap:butt;stroke-linejoin:miter;stroke-opacity:1"/>
<path class="bond-20 atom-6 atom-7" d="M 79.8,148.2 L 66.1,133.4" style="fill:none;fill-rule:evenodd;stroke:#000000;stroke-width:2.0px;stroke-linecap:butt;stroke-linejoin:miter;stroke-opacity:1"/>
<path class="bond-20 atom-6 atom-7" d="M 80.7,143.2 L 71.1,132.9" style="fill:none;fill-rule:evenodd;stroke:#000000;stroke-width:2.0px;stroke-linecap:butt;stroke-linejoin:miter;stroke-opacity:1"/>
<path class="bond-21 atom-4 atom-6" d="M 78.4,164.7 L 79.1,156.5" style="fill:none;fill-rule:evenodd;stroke:#0000FF;stroke-width:2.0px;stroke-linecap:butt;stroke-linejoin:miter;stroke-opacity:1"/>
<path class="bond-21 atom-4 atom-6" d="M 79.1,156.5 L 79.8,148.2" style="fill:none;fill-rule:evenodd;stroke:#000000;stroke-width:2.0px;stroke-linecap:butt;stroke-linejoin:miter;stroke-opacity:1"/>
<path class="bond-22 atom-1 atom-2" d="M 101.7,193.9 L 109.7,196.3" style="fill:none;fill-rule:evenodd;stroke:#000000;stroke-width:2.0px;stroke-linecap:butt;stroke-linejoin:miter;stroke-opacity:1"/>
<path class="bond-22 atom-1 atom-2" d="M 109.7,196.3 L 117.7,198.8" style="fill:none;fill-rule:evenodd;stroke:#FF0000;stroke-width:2.0px;stroke-linecap:butt;stroke-linejoin:miter;stroke-opacity:1"/>
<path class="bond-22 atom-1 atom-2" d="M 100.5,197.7 L 108.5,200.2" style="fill:none;fill-rule:evenodd;stroke:#000000;stroke-width:2.0px;stroke-linecap:butt;stroke-linejoin:miter;stroke-opacity:1"/>
<path class="bond-22 atom-1 atom-2" d="M 108.5,200.2 L 116.5,202.6" style="fill:none;fill-rule:evenodd;stroke:#FF0000;stroke-width:2.0px;stroke-linecap:butt;stroke-linejoin:miter;stroke-opacity:1"/>
<path class="bond-23 atom-7 atom-8" d="M 66.1,133.4 L 49.4,137.3" style="fill:none;fill-rule:evenodd;stroke:#000000;stroke-width:2.0px;stroke-linecap:butt;stroke-linejoin:miter;stroke-opacity:1"/>
<path class="bond-24 atom-36 atom-38" d="M 230.4,171.6 L 245.8,164.5" style="fill:none;fill-rule:evenodd;stroke:#000000;stroke-width:2.0px;stroke-linecap:butt;stroke-linejoin:miter;stroke-opacity:1"/>
<path class="bond-25 atom-36 atom-40" d="M 230.4,171.6 L 221.9,153.3" style="fill:none;fill-rule:evenodd;stroke:#000000;stroke-width:2.0px;stroke-linecap:butt;stroke-linejoin:miter;stroke-opacity:1"/>
<path class="bond-26 atom-20 atom-22" d="M 150.0,164.5 L 151.5,147.9" style="fill:none;fill-rule:evenodd;stroke:#000000;stroke-width:2.0px;stroke-linecap:butt;stroke-linejoin:miter;stroke-opacity:1"/>
<path class="bond-27 atom-20 atom-23" d="M 150.0,164.5 L 170.1,166.3" style="fill:none;fill-rule:evenodd;stroke:#000000;stroke-width:2.0px;stroke-linecap:butt;stroke-linejoin:miter;stroke-opacity:1"/>
<path class="bond-28 atom-4 atom-5" d="M 75.2,169.9 L 69.5,173.4" style="fill:none;fill-rule:evenodd;stroke:#0000FF;stroke-width:2.0px;stroke-linecap:butt;stroke-linejoin:miter;stroke-opacity:1"/>
<path class="bond-28 atom-4 atom-5" d="M 69.5,173.4 L 63.7,176.9" style="fill:none;fill-rule:evenodd;stroke:#000000;stroke-width:2.0px;stroke-linecap:butt;stroke-linejoin:miter;stroke-opacity:1"/>
<path class="bond-29 atom-23 atom-26" d="M 170.1,166.3 L 178.5,167.0" style="fill:none;fill-rule:evenodd;stroke:#000000;stroke-width:2.0px;stroke-linecap:butt;stroke-linejoin:miter;stroke-opacity:1"/>
<path class="bond-29 atom-23 atom-26" d="M 178.5,167.0 L 186.9,167.8" style="fill:none;fill-rule:evenodd;stroke:#FF0000;stroke-width:2.0px;stroke-linecap:butt;stroke-linejoin:miter;stroke-opacity:1"/>
<path class="bond-30 atom-26 atom-27" d="M 192.7,164.5 L 197.2,158.0" style="fill:none;fill-rule:evenodd;stroke:#FF0000;stroke-width:2.0px;stroke-linecap:butt;stroke-linejoin:miter;stroke-opacity:1"/>
<path class="bond-30 atom-26 atom-27" d="M 197.2,158.0 L 201.8,151.6" style="fill:none;fill-rule:evenodd;stroke:#000000;stroke-width:2.0px;stroke-linecap:butt;stroke-linejoin:miter;stroke-opacity:1"/>
<path class="bond-31 atom-23 atom-25" d="M 170.1,166.3 L 168.7,182.9" style="fill:none;fill-rule:evenodd;stroke:#000000;stroke-width:2.0px;stroke-linecap:butt;stroke-linejoin:miter;stroke-opacity:1"/>
<path class="bond-32 atom-23 atom-24" d="M 170.1,166.3 L 171.6,149.7" style="fill:none;fill-rule:evenodd;stroke:#000000;stroke-width:2.0px;stroke-linecap:butt;stroke-linejoin:miter;stroke-opacity:1"/>
<path class="bond-33 atom-27 atom-40" d="M 201.8,151.6 L 221.9,153.3" style="fill:none;fill-rule:evenodd;stroke:#000000;stroke-width:2.0px;stroke-linecap:butt;stroke-linejoin:miter;stroke-opacity:1"/>
<path class="bond-34 atom-34 atom-40" d="M 233.5,136.8 L 221.9,153.3" style="fill:none;fill-rule:evenodd;stroke:#000000;stroke-width:2.0px;stroke-linecap:butt;stroke-linejoin:miter;stroke-opacity:1"/>
<path class="bond-34 atom-34 atom-40" d="M 228.4,137.0 L 220.3,148.6" style="fill:none;fill-rule:evenodd;stroke:#000000;stroke-width:2.0px;stroke-linecap:butt;stroke-linejoin:miter;stroke-opacity:1"/>
<path class="bond-35 atom-27 atom-28" d="M 201.8,151.6 L 193.3,133.3" style="fill:none;fill-rule:evenodd;stroke:#000000;stroke-width:2.0px;stroke-linecap:butt;stroke-linejoin:miter;stroke-opacity:1"/>
<path class="bond-35 atom-27 atom-28" d="M 204.2,147.1 L 198.2,134.3" style="fill:none;fill-rule:evenodd;stroke:#000000;stroke-width:2.0px;stroke-linecap:butt;stroke-linejoin:miter;stroke-opacity:1"/>
<path class="bond-36 atom-34 atom-35" d="M 233.5,136.8 L 250.6,138.4" style="fill:none;fill-rule:evenodd;stroke:#000000;stroke-width:2.0px;stroke-linecap:butt;stroke-linejoin:miter;stroke-opacity:1"/>
<path class="bond-37 atom-32 atom-34" d="M 225.0,118.6 L 233.5,136.8" style="fill:none;fill-rule:evenodd;stroke:#000000;stroke-width:2.0px;stroke-linecap:butt;stroke-linejoin:miter;stroke-opacity:1"/>
<path class="bond-38 atom-28 atom-29" d="M 193.3,133.3 L 176.1,131.8" style="fill:none;fill-rule:evenodd;stroke:#000000;stroke-width:2.0px;stroke-linecap:butt;stroke-linejoin:miter;stroke-opacity:1"/>
<path class="bond-39 atom-28 atom-30" d="M 193.3,133.3 L 204.9,116.8" style="fill:none;fill-rule:evenodd;stroke:#000000;stroke-width:2.0px;stroke-linecap:butt;stroke-linejoin:miter;stroke-opacity:1"/>
<path class="bond-40 atom-30 atom-32" d="M 204.9,116.8 L 225.0,118.6" style="fill:none;fill-rule:evenodd;stroke:#000000;stroke-width:2.0px;stroke-linecap:butt;stroke-linejoin:miter;stroke-opacity:1"/>
<path class="bond-40 atom-30 atom-32" d="M 207.5,121.1 L 221.6,122.3" style="fill:none;fill-rule:evenodd;stroke:#000000;stroke-width:2.0px;stroke-linecap:butt;stroke-linejoin:miter;stroke-opacity:1"/>
<path class="bond-41 atom-32 atom-33" d="M 225.0,118.6 L 234.1,105.6" style="fill:none;fill-rule:evenodd;stroke:#000000;stroke-width:2.0px;stroke-linecap:butt;stroke-linejoin:miter;stroke-opacity:1"/>
<path class="bond-42 atom-30 atom-31" d="M 204.9,116.8 L 198.0,102.0" style="fill:none;fill-rule:evenodd;stroke:#000000;stroke-width:2.0px;stroke-linecap:butt;stroke-linejoin:miter;stroke-opacity:1"/>
<path class="atom-0" d="M 83.7 209.6 Q 83.7 208.2, 84.4 207.4 Q 85.1 206.7, 86.4 206.7 Q 87.6 206.7, 88.3 207.4 Q 89.0 208.2, 89.0 209.6 Q 89.0 210.9, 88.3 211.7 Q 87.6 212.5, 86.4 212.5 Q 85.1 212.5, 84.4 211.7 Q 83.7 211.0, 83.7 209.6 M 86.4 211.9 Q 87.2 211.9, 87.7 211.3 Q 88.2 210.7, 88.2 209.6 Q 88.2 208.4, 87.7 207.9 Q 87.2 207.3, 86.4 207.3 Q 85.5 207.3, 85.0 207.9 Q 84.6 208.4, 84.6 209.6 Q 84.6 210.7, 85.0 211.3 Q 85.5 211.9, 86.4 211.9 " fill="#FF0000"/>
<path class="atom-0" d="M 89.4 207.6 L 91.3 207.6 L 91.3 208.0 L 89.4 208.0 L 89.4 207.6 " fill="#FF0000"/>
<path class="atom-2" d="M 117.8 201.7 Q 117.8 200.4, 118.5 199.6 Q 119.1 198.8, 120.4 198.8 Q 121.7 198.8, 122.4 199.6 Q 123.0 200.4, 123.0 201.7 Q 123.0 203.1, 122.3 203.9 Q 121.7 204.7, 120.4 204.7 Q 119.2 204.7, 118.5 203.9 Q 117.8 203.1, 117.8 201.7 M 120.4 204.1 Q 121.3 204.1, 121.7 203.5 Q 122.2 202.9, 122.2 201.7 Q 122.2 200.6, 121.7 200.1 Q 121.3 199.5, 120.4 199.5 Q 119.5 199.5, 119.1 200.0 Q 118.6 200.6, 118.6 201.7 Q 118.6 202.9, 119.1 203.5 Q 119.5 204.1, 120.4 204.1 " fill="#FF0000"/>
<path class="atom-4" d="M 76.8 165.4 L 78.7 168.4 Q 78.9 168.7, 79.2 169.3 Q 79.5 169.8, 79.5 169.8 L 79.5 165.4 L 80.2 165.4 L 80.2 171.1 L 79.4 171.1 L 77.4 167.8 Q 77.2 167.4, 77.0 167.0 Q 76.7 166.5, 76.6 166.4 L 76.6 171.1 L 75.9 171.1 L 75.9 165.4 L 76.8 165.4 " fill="#0000FF"/>
<path class="atom-5" d="M 58.5 175.8 L 59.3 175.8 L 59.3 178.2 L 62.2 178.2 L 62.2 175.8 L 63.0 175.8 L 63.0 181.5 L 62.2 181.5 L 62.2 178.8 L 59.3 178.8 L 59.3 181.5 L 58.5 181.5 L 58.5 175.8 " fill="#000000"/>
<path class="atom-8" d="M 44.2 135.1 L 45.0 135.1 L 45.0 137.5 L 47.9 137.5 L 47.9 135.1 L 48.7 135.1 L 48.7 140.8 L 47.9 140.8 L 47.9 138.1 L 45.0 138.1 L 45.0 140.8 L 44.2 140.8 L 44.2 135.1 " fill="#000000"/>
<path class="atom-10" d="M 56.1 96.5 L 56.8 96.5 L 56.8 98.9 L 59.8 98.9 L 59.8 96.5 L 60.5 96.5 L 60.5 102.2 L 59.8 102.2 L 59.8 99.6 L 56.8 99.6 L 56.8 102.2 L 56.1 102.2 L 56.1 96.5 " fill="#000000"/>
<path class="atom-12" d="M 95.4 87.5 L 96.1 87.5 L 96.1 89.9 L 99.1 89.9 L 99.1 87.5 L 99.8 87.5 L 99.8 93.2 L 99.1 93.2 L 99.1 90.6 L 96.1 90.6 L 96.1 93.2 L 95.4 93.2 L 95.4 87.5 " fill="#000000"/>
<path class="atom-14" d="M 122.8 117.0 L 123.6 117.0 L 123.6 119.4 L 126.5 119.4 L 126.5 117.0 L 127.3 117.0 L 127.3 122.7 L 126.5 122.7 L 126.5 120.1 L 123.6 120.1 L 123.6 122.7 L 122.8 122.7 L 122.8 117.0 " fill="#000000"/>
<path class="atom-18" d="M 125.9 180.0 L 126.7 180.0 L 126.7 182.4 L 129.6 182.4 L 129.6 180.0 L 130.4 180.0 L 130.4 185.7 L 129.6 185.7 L 129.6 183.0 L 126.7 183.0 L 126.7 185.7 L 125.9 185.7 L 125.9 180.0 " fill="#000000"/>
<path class="atom-19" d="M 129.5 139.8 L 130.3 139.8 L 130.3 142.2 L 133.2 142.2 L 133.2 139.8 L 134.0 139.8 L 134.0 145.5 L 133.2 145.5 L 133.2 142.9 L 130.3 142.9 L 130.3 145.5 L 129.5 145.5 L 129.5 139.8 " fill="#000000"/>
<path class="atom-21" d="M 146.0 181.7 L 146.8 181.7 L 146.8 184.2 L 149.7 184.2 L 149.7 181.7 L 150.5 181.7 L 150.5 187.4 L 149.7 187.4 L 149.7 184.8 L 146.8 184.8 L 146.8 187.4 L 146.0 187.4 L 146.0 181.7 " fill="#000000"/>
<path class="atom-22" d="M 149.6 141.6 L 150.4 141.6 L 150.4 144.0 L 153.3 144.0 L 153.3 141.6 L 154.0 141.6 L 154.0 147.3 L 153.3 147.3 L 153.3 144.6 L 150.4 144.6 L 150.4 147.3 L 149.6 147.3 L 149.6 141.6 " fill="#000000"/>
<path class="atom-24" d="M 169.7 143.3 L 170.4 143.3 L 170.4 145.8 L 173.4 145.8 L 173.4 143.3 L 174.1 143.3 L 174.1 149.1 L 173.4 149.1 L 173.4 146.4 L 170.4 146.4 L 170.4 149.1 L 169.7 149.1 L 169.7 143.3 " fill="#000000"/>
<path class="atom-25" d="M 166.1 183.5 L 166.9 183.5 L 166.9 185.9 L 169.8 185.9 L 169.8 183.5 L 170.6 183.5 L 170.6 189.2 L 169.8 189.2 L 169.8 186.6 L 166.9 186.6 L 166.9 189.2 L 166.1 189.2 L 166.1 183.5 " fill="#000000"/>
<path class="atom-26" d="M 187.6 168.1 Q 187.6 166.7, 188.3 165.9 Q 188.9 165.2, 190.2 165.2 Q 191.5 165.2, 192.1 165.9 Q 192.8 166.7, 192.8 168.1 Q 192.8 169.5, 192.1 170.3 Q 191.5 171.0, 190.2 171.0 Q 188.9 171.0, 188.3 170.3 Q 187.6 169.5, 187.6 168.1 M 190.2 170.4 Q 191.1 170.4, 191.5 169.8 Q 192.0 169.2, 192.0 168.1 Q 192.0 167.0, 191.5 166.4 Q 191.1 165.8, 190.2 165.8 Q 189.3 165.8, 188.9 166.4 Q 188.4 167.0, 188.4 168.1 Q 188.4 169.2, 188.9 169.8 Q 189.3 170.4, 190.2 170.4 " fill="#FF0000"/>
<path class="atom-29" d="M 171.0 128.6 L 171.7 128.6 L 171.7 131.1 L 174.7 131.1 L 174.7 128.6 L 175.4 128.6 L 175.4 134.4 L 174.7 134.4 L 174.7 131.7 L 171.7 131.7 L 171.7 134.4 L 171.0 134.4 L 171.0 128.6 " fill="#000000"/>
<path class="atom-31" d="M 194.1 95.6 L 194.9 95.6 L 194.9 98.1 L 197.8 98.1 L 197.8 95.6 L 198.6 95.6 L 198.6 101.3 L 197.8 101.3 L 197.8 98.7 L 194.9 98.7 L 194.9 101.3 L 194.1 101.3 L 194.1 95.6 " fill="#000000"/>
<path class="atom-33" d="M 234.3 99.2 L 235.1 99.2 L 235.1 101.6 L 238.0 101.6 L 238.0 99.2 L 238.8 99.2 L 238.8 104.9 L 238.0 104.9 L 238.0 102.3 L 235.1 102.3 L 235.1 104.9 L 234.3 104.9 L 234.3 99.2 " fill="#000000"/>
<path class="atom-35" d="M 251.3 135.8 L 252.1 135.8 L 252.1 138.2 L 255.0 138.2 L 255.0 135.8 L 255.8 135.8 L 255.8 141.5 L 255.0 141.5 L 255.0 138.8 L 252.1 138.8 L 252.1 141.5 L 251.3 141.5 L 251.3 135.8 " fill="#000000"/>
<path class="atom-37" d="M 209.9 177.3 L 210.6 177.3 L 210.6 179.7 L 213.5 179.7 L 213.5 177.3 L 214.3 177.3 L 214.3 183.0 L 213.5 183.0 L 213.5 180.3 L 210.6 180.3 L 210.6 183.0 L 209.9 183.0 L 209.9 177.3 " fill="#000000"/>
<path class="atom-38" d="M 246.4 160.3 L 247.2 160.3 L 247.2 162.7 L 250.1 162.7 L 250.1 160.3 L 250.9 160.3 L 250.9 166.0 L 250.1 166.0 L 250.1 163.3 L 247.2 163.3 L 247.2 166.0 L 246.4 166.0 L 246.4 160.3 " fill="#000000"/>
<path class="atom-39" d="M 236.6 187.1 L 237.4 187.1 L 237.4 189.5 L 240.3 189.5 L 240.3 187.1 L 241.1 187.1 L 241.1 192.8 L 240.3 192.8 L 240.3 190.1 L 237.4 190.1 L 237.4 192.8 L 236.6 192.8 L 236.6 187.1 " fill="#000000"/>
<path class="bond-0 atom-17 atom-18" d="M 418.2,165.6 L 415.4,182.0" style="fill:none;fill-rule:evenodd;stroke:#000000;stroke-width:2.0px;stroke-linecap:butt;stroke-linejoin:miter;stroke-opacity:1"/>
<path class="bond-1 atom-17 atom-19" d="M 418.2,165.6 L 420.9,149.2" style="fill:none;fill-rule:evenodd;stroke:#000000;stroke-width:2.0px;stroke-linecap:butt;stroke-linejoin:miter;stroke-opacity:1"/>
<path class="bond-2 atom-13 atom-14" d="M 396.7,125.5 L 413.7,122.9" style="fill:none;fill-rule:evenodd;stroke:#000000;stroke-width:2.0px;stroke-linecap:butt;stroke-linejoin:miter;stroke-opacity:1"/>
<path class="bond-3 atom-11 atom-12" d="M 384.1,109.7 L 390.1,94.5" style="fill:none;fill-rule:evenodd;stroke:#000000;stroke-width:2.0px;stroke-linecap:butt;stroke-linejoin:miter;stroke-opacity:1"/>
<path class="bond-4 atom-16 atom-17" d="M 398.3,162.3 L 418.2,165.6" style="fill:none;fill-rule:evenodd;stroke:#000000;stroke-width:2.0px;stroke-linecap:butt;stroke-linejoin:miter;stroke-opacity:1"/>
<path class="bond-5 atom-17 atom-20" d="M 418.2,165.6 L 438.1,168.9" style="fill:none;fill-rule:evenodd;stroke:#000000;stroke-width:2.0px;stroke-linecap:butt;stroke-linejoin:miter;stroke-opacity:1"/>
<path class="bond-6 atom-11 atom-13" d="M 384.1,109.7 L 396.7,125.5" style="fill:none;fill-rule:evenodd;stroke:#000000;stroke-width:2.0px;stroke-linecap:butt;stroke-linejoin:miter;stroke-opacity:1"/>
<path class="bond-7 atom-13 atom-15" d="M 396.7,125.5 L 389.3,144.3" style="fill:none;fill-rule:evenodd;stroke:#000000;stroke-width:2.0px;stroke-linecap:butt;stroke-linejoin:miter;stroke-opacity:1"/>
<path class="bond-7 atom-13 atom-15" d="M 391.8,126.8 L 386.6,140.0" style="fill:none;fill-rule:evenodd;stroke:#000000;stroke-width:2.0px;stroke-linecap:butt;stroke-linejoin:miter;stroke-opacity:1"/>
<path class="bond-8 atom-9 atom-11" d="M 364.2,112.7 L 384.1,109.7" style="fill:none;fill-rule:evenodd;stroke:#000000;stroke-width:2.0px;stroke-linecap:butt;stroke-linejoin:miter;stroke-opacity:1"/>
<path class="bond-8 atom-9 atom-11" d="M 367.8,116.2 L 381.7,114.1" style="fill:none;fill-rule:evenodd;stroke:#000000;stroke-width:2.0px;stroke-linecap:butt;stroke-linejoin:miter;stroke-opacity:1"/>
<path class="bond-9 atom-15 atom-16" d="M 389.3,144.3 L 398.3,162.3" style="fill:none;fill-rule:evenodd;stroke:#000000;stroke-width:2.0px;stroke-linecap:butt;stroke-linejoin:miter;stroke-opacity:1"/>
<path class="bond-10 atom-3 atom-16" d="M 383.9,176.4 L 398.3,162.3" style="fill:none;fill-rule:evenodd;stroke:#000000;stroke-width:2.0px;stroke-linecap:butt;stroke-linejoin:miter;stroke-opacity:1"/>
<path class="bond-10 atom-3 atom-16" d="M 383.2,171.4 L 393.3,161.5" style="fill:none;fill-rule:evenodd;stroke:#000000;stroke-width:2.0px;stroke-linecap:butt;stroke-linejoin:miter;stroke-opacity:1"/>
<path class="bond-11 atom-6 atom-15" d="M 369.3,147.2 L 389.3,144.3" style="fill:none;fill-rule:evenodd;stroke:#000000;stroke-width:2.0px;stroke-linecap:butt;stroke-linejoin:miter;stroke-opacity:1"/>
<path class="bond-12 atom-20 atom-21" d="M 438.1,168.9 L 435.3,185.3" style="fill:none;fill-rule:evenodd;stroke:#000000;stroke-width:2.0px;stroke-linecap:butt;stroke-linejoin:miter;stroke-opacity:1"/>
<path class="bond-13 atom-9 atom-10" d="M 364.2,112.7 L 354.4,100.4" style="fill:none;fill-rule:evenodd;stroke:#000000;stroke-width:2.0px;stroke-linecap:butt;stroke-linejoin:miter;stroke-opacity:1"/>
<path class="bond-14 atom-7 atom-9" d="M 356.8,131.5 L 364.2,112.7" style="fill:none;fill-rule:evenodd;stroke:#000000;stroke-width:2.0px;stroke-linecap:butt;stroke-linejoin:miter;stroke-opacity:1"/>
<path class="bond-15 atom-1 atom-3" d="M 386.9,196.4 L 383.9,176.4" style="fill:none;fill-rule:evenodd;stroke:#000000;stroke-width:2.0px;stroke-linecap:butt;stroke-linejoin:miter;stroke-opacity:1"/>
<path class="bond-16 atom-3 atom-4" d="M 383.9,176.4 L 376.4,172.5" style="fill:none;fill-rule:evenodd;stroke:#000000;stroke-width:2.0px;stroke-linecap:butt;stroke-linejoin:miter;stroke-opacity:1"/>
<path class="bond-16 atom-3 atom-4" d="M 376.4,172.5 L 368.9,168.6" style="fill:none;fill-rule:evenodd;stroke:#0000FF;stroke-width:2.0px;stroke-linecap:butt;stroke-linejoin:miter;stroke-opacity:1"/>
<path class="bond-17 atom-0 atom-1" d="M 374.4,206.3 L 380.7,201.3" style="fill:none;fill-rule:evenodd;stroke:#FF0000;stroke-width:2.0px;stroke-linecap:butt;stroke-linejoin:miter;stroke-opacity:1"/>
<path class="bond-17 atom-0 atom-1" d="M 380.7,201.3 L 386.9,196.4" style="fill:none;fill-rule:evenodd;stroke:#000000;stroke-width:2.0px;stroke-linecap:butt;stroke-linejoin:miter;stroke-opacity:1"/>
<path class="bond-18 atom-6 atom-7" d="M 369.3,147.2 L 356.8,131.5" style="fill:none;fill-rule:evenodd;stroke:#000000;stroke-width:2.0px;stroke-linecap:butt;stroke-linejoin:miter;stroke-opacity:1"/>
<path class="bond-18 atom-6 atom-7" d="M 370.6,142.4 L 361.8,131.3" style="fill:none;fill-rule:evenodd;stroke:#000000;stroke-width:2.0px;stroke-linecap:butt;stroke-linejoin:miter;stroke-opacity:1"/>
<path class="bond-19 atom-4 atom-6" d="M 366.6,163.6 L 368.0,155.4" style="fill:none;fill-rule:evenodd;stroke:#0000FF;stroke-width:2.0px;stroke-linecap:butt;stroke-linejoin:miter;stroke-opacity:1"/>
<path class="bond-19 atom-4 atom-6" d="M 368.0,155.4 L 369.3,147.2" style="fill:none;fill-rule:evenodd;stroke:#000000;stroke-width:2.0px;stroke-linecap:butt;stroke-linejoin:miter;stroke-opacity:1"/>
<path class="bond-20 atom-1 atom-2" d="M 387.6,194.5 L 395.4,197.5" style="fill:none;fill-rule:evenodd;stroke:#000000;stroke-width:2.0px;stroke-linecap:butt;stroke-linejoin:miter;stroke-opacity:1"/>
<path class="bond-20 atom-1 atom-2" d="M 395.4,197.5 L 403.1,200.6" style="fill:none;fill-rule:evenodd;stroke:#FF0000;stroke-width:2.0px;stroke-linecap:butt;stroke-linejoin:miter;stroke-opacity:1"/>
<path class="bond-20 atom-1 atom-2" d="M 386.2,198.2 L 393.9,201.3" style="fill:none;fill-rule:evenodd;stroke:#000000;stroke-width:2.0px;stroke-linecap:butt;stroke-linejoin:miter;stroke-opacity:1"/>
<path class="bond-20 atom-1 atom-2" d="M 393.9,201.3 L 401.6,204.3" style="fill:none;fill-rule:evenodd;stroke:#FF0000;stroke-width:2.0px;stroke-linecap:butt;stroke-linejoin:miter;stroke-opacity:1"/>
<path class="bond-21 atom-7 atom-8" d="M 356.8,131.5 L 339.7,134.0" style="fill:none;fill-rule:evenodd;stroke:#000000;stroke-width:2.0px;stroke-linecap:butt;stroke-linejoin:miter;stroke-opacity:1"/>
<path class="bond-22 atom-20 atom-22" d="M 438.1,168.9 L 440.8,152.6" style="fill:none;fill-rule:evenodd;stroke:#000000;stroke-width:2.0px;stroke-linecap:butt;stroke-linejoin:miter;stroke-opacity:1"/>
<path class="bond-23 atom-20 atom-23" d="M 438.1,168.9 L 458.0,172.3" style="fill:none;fill-rule:evenodd;stroke:#000000;stroke-width:2.0px;stroke-linecap:butt;stroke-linejoin:miter;stroke-opacity:1"/>
<path class="bond-24 atom-4 atom-5" d="M 363.2,168.5 L 357.0,171.6" style="fill:none;fill-rule:evenodd;stroke:#0000FF;stroke-width:2.0px;stroke-linecap:butt;stroke-linejoin:miter;stroke-opacity:1"/>
<path class="bond-24 atom-4 atom-5" d="M 357.0,171.6 L 350.9,174.7" style="fill:none;fill-rule:evenodd;stroke:#000000;stroke-width:2.0px;stroke-linecap:butt;stroke-linejoin:miter;stroke-opacity:1"/>
<path class="bond-25 atom-39 atom-40" d="M 483.6,141.1 L 466.6,138.3" style="fill:none;fill-rule:evenodd;stroke:#000000;stroke-width:2.0px;stroke-linecap:butt;stroke-linejoin:miter;stroke-opacity:1"/>
<path class="bond-26 atom-23 atom-26" d="M 458.0,172.3 L 466.3,173.6" style="fill:none;fill-rule:evenodd;stroke:#000000;stroke-width:2.0px;stroke-linecap:butt;stroke-linejoin:miter;stroke-opacity:1"/>
<path class="bond-26 atom-23 atom-26" d="M 466.3,173.6 L 474.6,175.0" style="fill:none;fill-rule:evenodd;stroke:#FF0000;stroke-width:2.0px;stroke-linecap:butt;stroke-linejoin:miter;stroke-opacity:1"/>
<path class="bond-27 atom-26 atom-27" d="M 480.8,172.0 L 485.7,166.0" style="fill:none;fill-rule:evenodd;stroke:#FF0000;stroke-width:2.0px;stroke-linecap:butt;stroke-linejoin:miter;stroke-opacity:1"/>
<path class="bond-27 atom-26 atom-27" d="M 485.7,166.0 L 490.7,160.0" style="fill:none;fill-rule:evenodd;stroke:#000000;stroke-width:2.0px;stroke-linecap:butt;stroke-linejoin:miter;stroke-opacity:1"/>
<path class="bond-28 atom-23 atom-25" d="M 458.0,172.3 L 455.2,188.6" style="fill:none;fill-rule:evenodd;stroke:#000000;stroke-width:2.0px;stroke-linecap:butt;stroke-linejoin:miter;stroke-opacity:1"/>
<path class="bond-29 atom-23 atom-24" d="M 458.0,172.3 L 460.7,155.9" style="fill:none;fill-rule:evenodd;stroke:#000000;stroke-width:2.0px;stroke-linecap:butt;stroke-linejoin:miter;stroke-opacity:1"/>
<path class="bond-30 atom-27 atom-39" d="M 490.7,160.0 L 483.6,141.1" style="fill:none;fill-rule:evenodd;stroke:#000000;stroke-width:2.0px;stroke-linecap:butt;stroke-linejoin:miter;stroke-opacity:1"/>
<path class="bond-31 atom-37 atom-39" d="M 496.4,125.6 L 483.6,141.1" style="fill:none;fill-rule:evenodd;stroke:#000000;stroke-width:2.0px;stroke-linecap:butt;stroke-linejoin:miter;stroke-opacity:1"/>
<path class="bond-31 atom-37 atom-39" d="M 497.6,130.5 L 488.6,141.4" style="fill:none;fill-rule:evenodd;stroke:#000000;stroke-width:2.0px;stroke-linecap:butt;stroke-linejoin:miter;stroke-opacity:1"/>
<path class="bond-32 atom-27 atom-28" d="M 490.7,160.0 L 510.6,163.3" style="fill:none;fill-rule:evenodd;stroke:#000000;stroke-width:2.0px;stroke-linecap:butt;stroke-linejoin:miter;stroke-opacity:1"/>
<path class="bond-32 atom-27 atom-28" d="M 494.3,156.5 L 508.2,158.9" style="fill:none;fill-rule:evenodd;stroke:#000000;stroke-width:2.0px;stroke-linecap:butt;stroke-linejoin:miter;stroke-opacity:1"/>
<path class="bond-33 atom-37 atom-38" d="M 496.4,125.6 L 490.7,110.2" style="fill:none;fill-rule:evenodd;stroke:#000000;stroke-width:2.0px;stroke-linecap:butt;stroke-linejoin:miter;stroke-opacity:1"/>
<path class="bond-34 atom-35 atom-37" d="M 516.3,128.9 L 496.4,125.6" style="fill:none;fill-rule:evenodd;stroke:#000000;stroke-width:2.0px;stroke-linecap:butt;stroke-linejoin:miter;stroke-opacity:1"/>
<path class="bond-35 atom-28 atom-29" d="M 510.6,163.3 L 516.3,178.7" style="fill:none;fill-rule:evenodd;stroke:#000000;stroke-width:2.0px;stroke-linecap:butt;stroke-linejoin:miter;stroke-opacity:1"/>
<path class="bond-36 atom-28 atom-30" d="M 510.6,163.3 L 523.4,147.8" style="fill:none;fill-rule:evenodd;stroke:#000000;stroke-width:2.0px;stroke-linecap:butt;stroke-linejoin:miter;stroke-opacity:1"/>
<path class="bond-37 atom-30 atom-35" d="M 523.4,147.8 L 516.3,128.9" style="fill:none;fill-rule:evenodd;stroke:#000000;stroke-width:2.0px;stroke-linecap:butt;stroke-linejoin:miter;stroke-opacity:1"/>
<path class="bond-37 atom-30 atom-35" d="M 518.5,146.3 L 513.6,133.1" style="fill:none;fill-rule:evenodd;stroke:#000000;stroke-width:2.0px;stroke-linecap:butt;stroke-linejoin:miter;stroke-opacity:1"/>
<path class="bond-38 atom-35 atom-36" d="M 516.3,128.9 L 521.3,122.8" style="fill:none;fill-rule:evenodd;stroke:#000000;stroke-width:2.0px;stroke-linecap:butt;stroke-linejoin:miter;stroke-opacity:1"/>
<path class="bond-38 atom-35 atom-36" d="M 521.3,122.8 L 526.3,116.8" style="fill:none;fill-rule:evenodd;stroke:#00CC00;stroke-width:2.0px;stroke-linecap:butt;stroke-linejoin:miter;stroke-opacity:1"/>
<path class="bond-39 atom-30 atom-31" d="M 523.4,147.8 L 543.3,151.1" style="fill:none;fill-rule:evenodd;stroke:#000000;stroke-width:2.0px;stroke-linecap:butt;stroke-linejoin:miter;stroke-opacity:1"/>
<path class="bond-40 atom-31 atom-33" d="M 543.3,151.1 L 540.5,167.5" style="fill:none;fill-rule:evenodd;stroke:#000000;stroke-width:2.0px;stroke-linecap:butt;stroke-linejoin:miter;stroke-opacity:1"/>
<path class="bond-41 atom-31 atom-32" d="M 543.3,151.1 L 546.0,134.7" style="fill:none;fill-rule:evenodd;stroke:#000000;stroke-width:2.0px;stroke-linecap:butt;stroke-linejoin:miter;stroke-opacity:1"/>
<path class="bond-42 atom-31 atom-34" d="M 543.3,151.1 L 560.3,153.9" style="fill:none;fill-rule:evenodd;stroke:#000000;stroke-width:2.0px;stroke-linecap:butt;stroke-linejoin:miter;stroke-opacity:1"/>
<path class="atom-0" d="M 368.5 208.9 Q 368.5 207.6, 369.2 206.8 Q 369.9 206.0, 371.1 206.0 Q 372.4 206.0, 373.1 206.8 Q 373.8 207.6, 373.8 208.9 Q 373.8 210.3, 373.1 211.1 Q 372.4 211.9, 371.1 211.9 Q 369.9 211.9, 369.2 211.1 Q 368.5 210.3, 368.5 208.9 M 371.1 211.3 Q 372.0 211.3, 372.5 210.7 Q 372.9 210.1, 372.9 208.9 Q 372.9 207.8, 372.5 207.3 Q 372.0 206.7, 371.1 206.7 Q 370.3 206.7, 369.8 207.3 Q 369.3 207.8, 369.3 208.9 Q 369.3 210.1, 369.8 210.7 Q 370.3 211.3, 371.1 211.3 " fill="#FF0000"/>
<path class="atom-0" d="M 374.2 207.0 L 376.1 207.0 L 376.1 207.4 L 374.2 207.4 L 374.2 207.0 " fill="#FF0000"/>
<path class="atom-2" d="M 403.0 203.8 Q 403.0 202.4, 403.7 201.6 Q 404.4 200.9, 405.7 200.9 Q 406.9 200.9, 407.6 201.6 Q 408.3 202.4, 408.3 203.8 Q 408.3 205.2, 407.6 205.9 Q 406.9 206.7, 405.7 206.7 Q 404.4 206.7, 403.7 205.9 Q 403.0 205.2, 403.0 203.8 M 405.7 206.1 Q 406.5 206.1, 407.0 205.5 Q 407.5 204.9, 407.5 203.8 Q 407.5 202.7, 407.0 202.1 Q 406.5 201.5, 405.7 201.5 Q 404.8 201.5, 404.3 202.1 Q 403.9 202.6, 403.9 203.8 Q 403.9 204.9, 404.3 205.5 Q 404.8 206.1, 405.7 206.1 " fill="#FF0000"/>
<path class="atom-4" d="M 364.8 164.3 L 366.6 167.3 Q 366.8 167.6, 367.1 168.1 Q 367.4 168.7, 367.4 168.7 L 367.4 164.3 L 368.2 164.3 L 368.2 170.0 L 367.4 170.0 L 365.4 166.7 Q 365.2 166.3, 364.9 165.8 Q 364.7 165.4, 364.6 165.3 L 364.6 170.0 L 363.9 170.0 L 363.9 164.3 L 364.8 164.3 " fill="#0000FF"/>
<path class="atom-5" d="M 345.8 173.3 L 346.5 173.3 L 346.5 175.7 L 349.4 175.7 L 349.4 173.3 L 350.2 173.3 L 350.2 179.0 L 349.4 179.0 L 349.4 176.3 L 346.5 176.3 L 346.5 179.0 L 345.8 179.0 L 345.8 173.3 " fill="#000000"/>
<path class="atom-8" d="M 334.6 131.6 L 335.4 131.6 L 335.4 134.0 L 338.3 134.0 L 338.3 131.6 L 339.1 131.6 L 339.1 137.3 L 338.3 137.3 L 338.3 134.7 L 335.4 134.7 L 335.4 137.3 L 334.6 137.3 L 334.6 131.6 " fill="#000000"/>
<path class="atom-10" d="M 349.4 94.1 L 350.2 94.1 L 350.2 96.5 L 353.1 96.5 L 353.1 94.1 L 353.8 94.1 L 353.8 99.8 L 353.1 99.8 L 353.1 97.1 L 350.2 97.1 L 350.2 99.8 L 349.4 99.8 L 349.4 94.1 " fill="#000000"/>
<path class="atom-12" d="M 389.3 88.1 L 390.0 88.1 L 390.0 90.5 L 393.0 90.5 L 393.0 88.1 L 393.7 88.1 L 393.7 93.8 L 393.0 93.8 L 393.0 91.2 L 390.0 91.2 L 390.0 93.8 L 389.3 93.8 L 389.3 88.1 " fill="#000000"/>
<path class="atom-14" d="M 414.4 119.6 L 415.2 119.6 L 415.2 122.1 L 418.1 122.1 L 418.1 119.6 L 418.8 119.6 L 418.8 125.4 L 418.1 125.4 L 418.1 122.7 L 415.2 122.7 L 415.2 125.4 L 414.4 125.4 L 414.4 119.6 " fill="#000000"/>
<path class="atom-18" d="M 412.6 182.6 L 413.4 182.6 L 413.4 185.1 L 416.3 185.1 L 416.3 182.6 L 417.1 182.6 L 417.1 188.4 L 416.3 188.4 L 416.3 185.7 L 413.4 185.7 L 413.4 188.4 L 412.6 188.4 L 412.6 182.6 " fill="#000000"/>
<path class="atom-19" d="M 419.3 142.9 L 420.0 142.9 L 420.0 145.3 L 423.0 145.3 L 423.0 142.9 L 423.7 142.9 L 423.7 148.6 L 423.0 148.6 L 423.0 145.9 L 420.0 145.9 L 420.0 148.6 L 419.3 148.6 L 419.3 142.9 " fill="#000000"/>
<path class="atom-21" d="M 432.5 186.0 L 433.3 186.0 L 433.3 188.4 L 436.2 188.4 L 436.2 186.0 L 437.0 186.0 L 437.0 191.7 L 436.2 191.7 L 436.2 189.0 L 433.3 189.0 L 433.3 191.7 L 432.5 191.7 L 432.5 186.0 " fill="#000000"/>
<path class="atom-22" d="M 439.2 146.2 L 439.9 146.2 L 439.9 148.6 L 442.8 148.6 L 442.8 146.2 L 443.6 146.2 L 443.6 151.9 L 442.8 151.9 L 442.8 149.3 L 439.9 149.3 L 439.9 151.9 L 439.2 151.9 L 439.2 146.2 " fill="#000000"/>
<path class="atom-24" d="M 459.0 149.5 L 459.8 149.5 L 459.8 151.9 L 462.7 151.9 L 462.7 149.5 L 463.5 149.5 L 463.5 155.2 L 462.7 155.2 L 462.7 152.6 L 459.8 152.6 L 459.8 155.2 L 459.0 155.2 L 459.0 149.5 " fill="#000000"/>
<path class="atom-25" d="M 452.4 189.3 L 453.2 189.3 L 453.2 191.7 L 456.1 191.7 L 456.1 189.3 L 456.9 189.3 L 456.9 195.0 L 456.1 195.0 L 456.1 192.4 L 453.2 192.4 L 453.2 195.0 L 452.4 195.0 L 452.4 189.3 " fill="#000000"/>
<path class="atom-26" d="M 475.2 175.6 Q 475.2 174.2, 475.9 173.5 Q 476.6 172.7, 477.8 172.7 Q 479.1 172.7, 479.8 173.5 Q 480.5 174.2, 480.5 175.6 Q 480.5 177.0, 479.8 177.8 Q 479.1 178.6, 477.8 178.6 Q 476.6 178.6, 475.9 177.8 Q 475.2 177.0, 475.2 175.6 M 477.8 177.9 Q 478.7 177.9, 479.2 177.3 Q 479.7 176.7, 479.7 175.6 Q 479.7 174.5, 479.2 173.9 Q 478.7 173.3, 477.8 173.3 Q 477.0 173.3, 476.5 173.9 Q 476.0 174.5, 476.0 175.6 Q 476.0 176.7, 476.5 177.3 Q 477.0 177.9, 477.8 177.9 " fill="#FF0000"/>
<path class="atom-29" d="M 515.4 179.4 L 516.2 179.4 L 516.2 181.8 L 519.1 181.8 L 519.1 179.4 L 519.9 179.4 L 519.9 185.1 L 519.1 185.1 L 519.1 182.4 L 516.2 182.4 L 516.2 185.1 L 515.4 185.1 L 515.4 179.4 " fill="#000000"/>
<path class="atom-32" d="M 544.3 128.3 L 545.1 128.3 L 545.1 130.8 L 548.0 130.8 L 548.0 128.3 L 548.8 128.3 L 548.8 134.1 L 548.0 134.1 L 548.0 131.4 L 545.1 131.4 L 545.1 134.1 L 544.3 134.1 L 544.3 128.3 " fill="#000000"/>
<path class="atom-33" d="M 537.7 168.1 L 538.5 168.1 L 538.5 170.6 L 541.4 170.6 L 541.4 168.1 L 542.2 168.1 L 542.2 173.8 L 541.4 173.8 L 541.4 171.2 L 538.5 171.2 L 538.5 173.8 L 537.7 173.8 L 537.7 168.1 " fill="#000000"/>
<path class="atom-34" d="M 560.9 151.6 L 561.7 151.6 L 561.7 154.0 L 564.6 154.0 L 564.6 151.6 L 565.4 151.6 L 565.4 157.3 L 564.6 157.3 L 564.6 154.6 L 561.7 154.6 L 561.7 157.3 L 560.9 157.3 L 560.9 151.6 " fill="#000000"/>
<path class="atom-36" d="M 526.9 113.5 Q 526.9 112.1, 527.6 111.4 Q 528.3 110.6, 529.5 110.6 Q 530.7 110.6, 531.3 111.4 L 530.8 111.9 Q 530.3 111.3, 529.5 111.3 Q 528.7 111.3, 528.2 111.8 Q 527.7 112.4, 527.7 113.5 Q 527.7 114.6, 528.2 115.2 Q 528.7 115.8, 529.6 115.8 Q 530.2 115.8, 531.0 115.4 L 531.2 116.0 Q 530.9 116.2, 530.4 116.3 Q 530.0 116.5, 529.5 116.5 Q 528.3 116.5, 527.6 115.7 Q 526.9 114.9, 526.9 113.5 " fill="#00CC00"/>
<path class="atom-36" d="M 531.6 110.3 L 532.4 110.3 L 532.4 116.4 L 531.6 116.4 L 531.6 110.3 " fill="#00CC00"/>
<path class="atom-38" d="M 487.1 103.8 L 487.9 103.8 L 487.9 106.3 L 490.8 106.3 L 490.8 103.8 L 491.6 103.8 L 491.6 109.5 L 490.8 109.5 L 490.8 106.9 L 487.9 106.9 L 487.9 109.5 L 487.1 109.5 L 487.1 103.8 " fill="#000000"/>
<path class="atom-40" d="M 461.5 135.0 L 462.2 135.0 L 462.2 137.4 L 465.2 137.4 L 465.2 135.0 L 465.9 135.0 L 465.9 140.7 L 465.2 140.7 L 465.2 138.0 L 462.2 138.0 L 462.2 140.7 L 461.5 140.7 L 461.5 135.0 " fill="#000000"/>
<text x="300" y="20" font-size="20" font-family="sans-serif" font-weight="normal" letter-spacing="0" text-anchor="middle" fill="black">mcl1: 28 -&gt; 35</text><text x="300" y="35" font-size="15" font-family="sans-serif" font-weight="normal" letter-spacing="0" text-anchor="middle" fill="black"></text><text x="150" y="285" font-size="15" font-family="sans-serif" font-weight="normal" letter-spacing="0" text-anchor="middle" fill="black">28</text><text x="450" y="285" font-size="15" font-family="sans-serif" font-weight="normal" letter-spacing="0" text-anchor="middle" fill="black">35</text></svg>
