<?xml version='1.0' encoding='ASCII' standalone='yes'?>
<svg xmlns="http://www.w3.org/2000/svg" xmlns:rdkit="http://www.rdkit.org/xml" xmlns:xlink="http://www.w3.org/1999/xlink" version="1.1" baseProfile="full" xml:space="preserve" width="600px" height="300px" viewBox="0 0 600 300">
<!-- END OF HEADER -->
<rect style="opacity:1.0;fill:#FFFFFF;stroke:none" width="600.0" height="300.0" x="0.0" y="0.0"> </rect>
<path class="bond-0 atom-0 atom-1" d="M 83.7,204.9 L 77.3,184.2" style="fill:none;fill-rule:evenodd;stroke:#000000;stroke-width:2.0px;stroke-linecap:butt;stroke-linejoin:miter;stroke-opacity:1"/>
<path class="bond-1 atom-0 atom-23" d="M 83.7,204.9 L 101.3,199.5" style="fill:none;fill-rule:evenodd;stroke:#000000;stroke-width:2.0px;stroke-linecap:butt;stroke-linejoin:miter;stroke-opacity:1"/>
<path class="bond-2 atom-0 atom-24" d="M 83.7,204.9 L 66.1,210.3" style="fill:none;fill-rule:evenodd;stroke:#000000;stroke-width:2.0px;stroke-linecap:butt;stroke-linejoin:miter;stroke-opacity:1"/>
<path class="bond-3 atom-0 atom-25" d="M 83.7,204.9 L 88.9,221.8" style="fill:none;fill-rule:evenodd;stroke:#000000;stroke-width:2.0px;stroke-linecap:butt;stroke-linejoin:miter;stroke-opacity:1"/>
<path class="bond-4 atom-1 atom-2" d="M 77.3,184.2 L 74.7,175.8" style="fill:none;fill-rule:evenodd;stroke:#000000;stroke-width:2.0px;stroke-linecap:butt;stroke-linejoin:miter;stroke-opacity:1"/>
<path class="bond-4 atom-1 atom-2" d="M 74.7,175.8 L 72.1,167.4" style="fill:none;fill-rule:evenodd;stroke:#FF0000;stroke-width:2.0px;stroke-linecap:butt;stroke-linejoin:miter;stroke-opacity:1"/>
<path class="bond-5 atom-1 atom-26" d="M 77.3,184.2 L 59.7,189.6" style="fill:none;fill-rule:evenodd;stroke:#000000;stroke-width:2.0px;stroke-linecap:butt;stroke-linejoin:miter;stroke-opacity:1"/>
<path class="bond-6 atom-1 atom-27" d="M 77.3,184.2 L 94.9,178.8" style="fill:none;fill-rule:evenodd;stroke:#000000;stroke-width:2.0px;stroke-linecap:butt;stroke-linejoin:miter;stroke-opacity:1"/>
<path class="bond-7 atom-2 atom-3" d="M 74.4,159.7 L 80.0,153.6" style="fill:none;fill-rule:evenodd;stroke:#FF0000;stroke-width:2.0px;stroke-linecap:butt;stroke-linejoin:miter;stroke-opacity:1"/>
<path class="bond-7 atom-2 atom-3" d="M 80.0,153.6 L 85.6,147.6" style="fill:none;fill-rule:evenodd;stroke:#000000;stroke-width:2.0px;stroke-linecap:butt;stroke-linejoin:miter;stroke-opacity:1"/>
<path class="bond-8 atom-3 atom-9" d="M 85.6,147.6 L 79.2,126.9" style="fill:none;fill-rule:evenodd;stroke:#000000;stroke-width:2.0px;stroke-linecap:butt;stroke-linejoin:miter;stroke-opacity:1"/>
<path class="bond-8 atom-3 atom-9" d="M 88.8,143.2 L 84.3,128.7" style="fill:none;fill-rule:evenodd;stroke:#000000;stroke-width:2.0px;stroke-linecap:butt;stroke-linejoin:miter;stroke-opacity:1"/>
<path class="bond-9 atom-3 atom-4" d="M 85.6,147.6 L 94.6,149.7" style="fill:none;fill-rule:evenodd;stroke:#000000;stroke-width:2.0px;stroke-linecap:butt;stroke-linejoin:miter;stroke-opacity:1"/>
<path class="bond-9 atom-3 atom-4" d="M 94.6,149.7 L 103.7,151.7" style="fill:none;fill-rule:evenodd;stroke:#0000FF;stroke-width:2.0px;stroke-linecap:butt;stroke-linejoin:miter;stroke-opacity:1"/>
<path class="bond-10 atom-4 atom-5" d="M 109.8,149.1 L 115.6,142.8" style="fill:none;fill-rule:evenodd;stroke:#0000FF;stroke-width:2.0px;stroke-linecap:butt;stroke-linejoin:miter;stroke-opacity:1"/>
<path class="bond-10 atom-4 atom-5" d="M 115.6,142.8 L 121.5,136.5" style="fill:none;fill-rule:evenodd;stroke:#000000;stroke-width:2.0px;stroke-linecap:butt;stroke-linejoin:miter;stroke-opacity:1"/>
<path class="bond-10 atom-4 atom-5" d="M 108.4,144.3 L 112.4,139.9" style="fill:none;fill-rule:evenodd;stroke:#0000FF;stroke-width:2.0px;stroke-linecap:butt;stroke-linejoin:miter;stroke-opacity:1"/>
<path class="bond-10 atom-4 atom-5" d="M 112.4,139.9 L 116.5,135.5" style="fill:none;fill-rule:evenodd;stroke:#000000;stroke-width:2.0px;stroke-linecap:butt;stroke-linejoin:miter;stroke-opacity:1"/>
<path class="bond-11 atom-5 atom-6" d="M 121.5,136.5 L 115.1,115.8" style="fill:none;fill-rule:evenodd;stroke:#000000;stroke-width:2.0px;stroke-linecap:butt;stroke-linejoin:miter;stroke-opacity:1"/>
<path class="bond-12 atom-5 atom-12" d="M 121.5,136.5 L 130.5,138.6" style="fill:none;fill-rule:evenodd;stroke:#000000;stroke-width:2.0px;stroke-linecap:butt;stroke-linejoin:miter;stroke-opacity:1"/>
<path class="bond-12 atom-5 atom-12" d="M 130.5,138.6 L 139.6,140.6" style="fill:none;fill-rule:evenodd;stroke:#0000FF;stroke-width:2.0px;stroke-linecap:butt;stroke-linejoin:miter;stroke-opacity:1"/>
<path class="bond-13 atom-6 atom-7" d="M 115.1,115.8 L 93.9,111.0" style="fill:none;fill-rule:evenodd;stroke:#000000;stroke-width:2.0px;stroke-linecap:butt;stroke-linejoin:miter;stroke-opacity:1"/>
<path class="bond-13 atom-6 atom-7" d="M 110.9,119.3 L 96.1,115.9" style="fill:none;fill-rule:evenodd;stroke:#000000;stroke-width:2.0px;stroke-linecap:butt;stroke-linejoin:miter;stroke-opacity:1"/>
<path class="bond-14 atom-6 atom-28" d="M 115.1,115.8 L 126.7,103.3" style="fill:none;fill-rule:evenodd;stroke:#000000;stroke-width:2.0px;stroke-linecap:butt;stroke-linejoin:miter;stroke-opacity:1"/>
<path class="bond-15 atom-7 atom-8" d="M 93.9,111.0 L 91.3,102.5" style="fill:none;fill-rule:evenodd;stroke:#000000;stroke-width:2.0px;stroke-linecap:butt;stroke-linejoin:miter;stroke-opacity:1"/>
<path class="bond-15 atom-7 atom-8" d="M 91.3,102.5 L 88.7,94.1" style="fill:none;fill-rule:evenodd;stroke:#0000FF;stroke-width:2.0px;stroke-linecap:butt;stroke-linejoin:miter;stroke-opacity:1"/>
<path class="bond-16 atom-7 atom-9" d="M 93.9,111.0 L 79.2,126.9" style="fill:none;fill-rule:evenodd;stroke:#000000;stroke-width:2.0px;stroke-linecap:butt;stroke-linejoin:miter;stroke-opacity:1"/>
<path class="bond-17 atom-8 atom-29" d="M 90.6,87.0 L 94.9,82.4" style="fill:none;fill-rule:evenodd;stroke:#0000FF;stroke-width:2.0px;stroke-linecap:butt;stroke-linejoin:miter;stroke-opacity:1"/>
<path class="bond-17 atom-8 atom-29" d="M 94.9,82.4 L 99.2,77.8" style="fill:none;fill-rule:evenodd;stroke:#000000;stroke-width:2.0px;stroke-linecap:butt;stroke-linejoin:miter;stroke-opacity:1"/>
<path class="bond-18 atom-8 atom-30" d="M 84.5,89.6 L 77.0,87.9" style="fill:none;fill-rule:evenodd;stroke:#0000FF;stroke-width:2.0px;stroke-linecap:butt;stroke-linejoin:miter;stroke-opacity:1"/>
<path class="bond-18 atom-8 atom-30" d="M 77.0,87.9 L 69.5,86.2" style="fill:none;fill-rule:evenodd;stroke:#000000;stroke-width:2.0px;stroke-linecap:butt;stroke-linejoin:miter;stroke-opacity:1"/>
<path class="bond-19 atom-9 atom-10" d="M 79.2,126.9 L 58.1,122.1" style="fill:none;fill-rule:evenodd;stroke:#000000;stroke-width:2.0px;stroke-linecap:butt;stroke-linejoin:miter;stroke-opacity:1"/>
<path class="bond-20 atom-10 atom-11" d="M 58.1,122.1 L 49.0,120.0" style="fill:none;fill-rule:evenodd;stroke:#000000;stroke-width:2.0px;stroke-linecap:butt;stroke-linejoin:miter;stroke-opacity:1"/>
<path class="bond-20 atom-10 atom-11" d="M 49.0,120.0 L 40.0,118.0" style="fill:none;fill-rule:evenodd;stroke:#0000FF;stroke-width:2.0px;stroke-linecap:butt;stroke-linejoin:miter;stroke-opacity:1"/>
<path class="bond-20 atom-10 atom-11" d="M 54.4,125.7 L 46.7,123.9" style="fill:none;fill-rule:evenodd;stroke:#000000;stroke-width:2.0px;stroke-linecap:butt;stroke-linejoin:miter;stroke-opacity:1"/>
<path class="bond-20 atom-10 atom-11" d="M 46.7,123.9 L 39.0,122.2" style="fill:none;fill-rule:evenodd;stroke:#0000FF;stroke-width:2.0px;stroke-linecap:butt;stroke-linejoin:miter;stroke-opacity:1"/>
<path class="bond-20 atom-10 atom-11" d="M 56.3,117.2 L 48.6,115.5" style="fill:none;fill-rule:evenodd;stroke:#000000;stroke-width:2.0px;stroke-linecap:butt;stroke-linejoin:miter;stroke-opacity:1"/>
<path class="bond-20 atom-10 atom-11" d="M 48.6,115.5 L 40.9,113.7" style="fill:none;fill-rule:evenodd;stroke:#0000FF;stroke-width:2.0px;stroke-linecap:butt;stroke-linejoin:miter;stroke-opacity:1"/>
<path class="bond-21 atom-12 atom-13" d="M 145.6,138.0 L 151.5,131.7" style="fill:none;fill-rule:evenodd;stroke:#0000FF;stroke-width:2.0px;stroke-linecap:butt;stroke-linejoin:miter;stroke-opacity:1"/>
<path class="bond-21 atom-12 atom-13" d="M 151.5,131.7 L 157.3,125.4" style="fill:none;fill-rule:evenodd;stroke:#000000;stroke-width:2.0px;stroke-linecap:butt;stroke-linejoin:miter;stroke-opacity:1"/>
<path class="bond-22 atom-12 atom-31" d="M 143.8,145.1 L 145.8,151.7" style="fill:none;fill-rule:evenodd;stroke:#0000FF;stroke-width:2.0px;stroke-linecap:butt;stroke-linejoin:miter;stroke-opacity:1"/>
<path class="bond-22 atom-12 atom-31" d="M 145.8,151.7 L 147.8,158.2" style="fill:none;fill-rule:evenodd;stroke:#000000;stroke-width:2.0px;stroke-linecap:butt;stroke-linejoin:miter;stroke-opacity:1"/>
<path class="bond-23 atom-13 atom-14" d="M 155.3,126.1 L 152.7,117.7" style="fill:none;fill-rule:evenodd;stroke:#000000;stroke-width:2.0px;stroke-linecap:butt;stroke-linejoin:miter;stroke-opacity:1"/>
<path class="bond-23 atom-13 atom-14" d="M 152.7,117.7 L 150.1,109.3" style="fill:none;fill-rule:evenodd;stroke:#FF0000;stroke-width:2.0px;stroke-linecap:butt;stroke-linejoin:miter;stroke-opacity:1"/>
<path class="bond-23 atom-13 atom-14" d="M 159.4,124.8 L 156.8,116.4" style="fill:none;fill-rule:evenodd;stroke:#000000;stroke-width:2.0px;stroke-linecap:butt;stroke-linejoin:miter;stroke-opacity:1"/>
<path class="bond-23 atom-13 atom-14" d="M 156.8,116.4 L 154.2,108.0" style="fill:none;fill-rule:evenodd;stroke:#FF0000;stroke-width:2.0px;stroke-linecap:butt;stroke-linejoin:miter;stroke-opacity:1"/>
<path class="bond-24 atom-13 atom-15" d="M 157.3,125.4 L 178.5,130.2" style="fill:none;fill-rule:evenodd;stroke:#000000;stroke-width:2.0px;stroke-linecap:butt;stroke-linejoin:miter;stroke-opacity:1"/>
<path class="bond-25 atom-15 atom-16" d="M 178.5,130.2 L 199.6,135.0" style="fill:none;fill-rule:evenodd;stroke:#000000;stroke-width:2.0px;stroke-linecap:butt;stroke-linejoin:miter;stroke-opacity:1"/>
<path class="bond-26 atom-15 atom-32" d="M 178.5,130.2 L 182.4,112.9" style="fill:none;fill-rule:evenodd;stroke:#000000;stroke-width:2.0px;stroke-linecap:butt;stroke-linejoin:miter;stroke-opacity:1"/>
<path class="bond-27 atom-15 atom-33" d="M 178.5,130.2 L 174.5,147.6" style="fill:none;fill-rule:evenodd;stroke:#000000;stroke-width:2.0px;stroke-linecap:butt;stroke-linejoin:miter;stroke-opacity:1"/>
<path class="bond-28 atom-16 atom-22" d="M 199.6,135.0 L 214.3,119.2" style="fill:none;fill-rule:evenodd;stroke:#000000;stroke-width:2.0px;stroke-linecap:butt;stroke-linejoin:miter;stroke-opacity:1"/>
<path class="bond-29 atom-16 atom-17" d="M 199.6,135.0 L 206.0,155.8" style="fill:none;fill-rule:evenodd;stroke:#000000;stroke-width:2.0px;stroke-linecap:butt;stroke-linejoin:miter;stroke-opacity:1"/>
<path class="bond-29 atom-16 atom-17" d="M 204.7,136.9 L 209.2,151.4" style="fill:none;fill-rule:evenodd;stroke:#000000;stroke-width:2.0px;stroke-linecap:butt;stroke-linejoin:miter;stroke-opacity:1"/>
<path class="bond-30 atom-17 atom-18" d="M 206.0,155.8 L 227.1,160.6" style="fill:none;fill-rule:evenodd;stroke:#000000;stroke-width:2.0px;stroke-linecap:butt;stroke-linejoin:miter;stroke-opacity:1"/>
<path class="bond-31 atom-17 atom-34" d="M 206.0,155.8 L 194.4,168.3" style="fill:none;fill-rule:evenodd;stroke:#000000;stroke-width:2.0px;stroke-linecap:butt;stroke-linejoin:miter;stroke-opacity:1"/>
<path class="bond-32 atom-18 atom-19" d="M 227.1,160.6 L 233.5,181.3" style="fill:none;fill-rule:evenodd;stroke:#000000;stroke-width:2.0px;stroke-linecap:butt;stroke-linejoin:miter;stroke-opacity:1"/>
<path class="bond-33 atom-18 atom-20" d="M 227.1,160.6 L 241.9,144.7" style="fill:none;fill-rule:evenodd;stroke:#000000;stroke-width:2.0px;stroke-linecap:butt;stroke-linejoin:miter;stroke-opacity:1"/>
<path class="bond-33 atom-18 atom-20" d="M 226.2,155.2 L 236.5,144.1" style="fill:none;fill-rule:evenodd;stroke:#000000;stroke-width:2.0px;stroke-linecap:butt;stroke-linejoin:miter;stroke-opacity:1"/>
<path class="bond-34 atom-19 atom-35" d="M 233.5,181.3 L 251.1,175.8" style="fill:none;fill-rule:evenodd;stroke:#000000;stroke-width:2.0px;stroke-linecap:butt;stroke-linejoin:miter;stroke-opacity:1"/>
<path class="bond-35 atom-19 atom-36" d="M 233.5,181.3 L 215.9,186.7" style="fill:none;fill-rule:evenodd;stroke:#000000;stroke-width:2.0px;stroke-linecap:butt;stroke-linejoin:miter;stroke-opacity:1"/>
<path class="bond-36 atom-19 atom-37" d="M 233.5,181.3 L 238.7,198.2" style="fill:none;fill-rule:evenodd;stroke:#000000;stroke-width:2.0px;stroke-linecap:butt;stroke-linejoin:miter;stroke-opacity:1"/>
<path class="bond-37 atom-20 atom-21" d="M 241.9,144.7 L 235.5,124.0" style="fill:none;fill-rule:evenodd;stroke:#000000;stroke-width:2.0px;stroke-linecap:butt;stroke-linejoin:miter;stroke-opacity:1"/>
<path class="bond-38 atom-20 atom-38" d="M 241.9,144.7 L 259.9,148.8" style="fill:none;fill-rule:evenodd;stroke:#000000;stroke-width:2.0px;stroke-linecap:butt;stroke-linejoin:miter;stroke-opacity:1"/>
<path class="bond-39 atom-21 atom-22" d="M 235.5,124.0 L 214.3,119.2" style="fill:none;fill-rule:evenodd;stroke:#000000;stroke-width:2.0px;stroke-linecap:butt;stroke-linejoin:miter;stroke-opacity:1"/>
<path class="bond-39 atom-21 atom-22" d="M 231.3,127.5 L 216.5,124.1" style="fill:none;fill-rule:evenodd;stroke:#000000;stroke-width:2.0px;stroke-linecap:butt;stroke-linejoin:miter;stroke-opacity:1"/>
<path class="bond-40 atom-21 atom-39" d="M 235.5,124.0 L 247.1,111.4" style="fill:none;fill-rule:evenodd;stroke:#000000;stroke-width:2.0px;stroke-linecap:butt;stroke-linejoin:miter;stroke-opacity:1"/>
<path class="bond-41 atom-22 atom-40" d="M 214.3,119.2 L 209.1,102.2" style="fill:none;fill-rule:evenodd;stroke:#000000;stroke-width:2.0px;stroke-linecap:butt;stroke-linejoin:miter;stroke-opacity:1"/>
<path class="atom-2" d="M 68.1 163.5 Q 68.1 162.0, 68.8 161.2 Q 69.5 160.4, 70.9 160.4 Q 72.2 160.4, 73.0 161.2 Q 73.7 162.0, 73.7 163.5 Q 73.7 165.0, 73.0 165.8 Q 72.2 166.7, 70.9 166.7 Q 69.5 166.7, 68.8 165.8 Q 68.1 165.0, 68.1 163.5 M 70.9 166.0 Q 71.8 166.0, 72.3 165.4 Q 72.8 164.7, 72.8 163.5 Q 72.8 162.3, 72.3 161.7 Q 71.8 161.1, 70.9 161.1 Q 69.9 161.1, 69.4 161.7 Q 68.9 162.3, 68.9 163.5 Q 68.9 164.7, 69.4 165.4 Q 69.9 166.0, 70.9 166.0 " fill="#FF0000"/>
<path class="atom-4" d="M 105.4 149.3 L 107.4 152.6 Q 107.6 152.9, 107.9 153.5 Q 108.2 154.1, 108.2 154.1 L 108.2 149.3 L 109.1 149.3 L 109.1 155.5 L 108.2 155.5 L 106.1 151.9 Q 105.8 151.5, 105.5 151.0 Q 105.3 150.6, 105.2 150.4 L 105.2 155.5 L 104.4 155.5 L 104.4 149.3 L 105.4 149.3 " fill="#0000FF"/>
<path class="atom-8" d="M 86.2 87.2 L 88.2 90.5 Q 88.4 90.8, 88.7 91.4 Q 89.0 92.0, 89.0 92.0 L 89.0 87.2 L 89.9 87.2 L 89.9 93.4 L 89.0 93.4 L 86.9 89.8 Q 86.6 89.4, 86.3 88.9 Q 86.1 88.4, 86.0 88.3 L 86.0 93.4 L 85.2 93.4 L 85.2 87.2 L 86.2 87.2 " fill="#0000FF"/>
<path class="atom-11" d="M 35.6 114.2 L 37.6 117.4 Q 37.8 117.8, 38.1 118.4 Q 38.4 118.9, 38.5 119.0 L 38.5 114.2 L 39.3 114.2 L 39.3 120.3 L 38.4 120.3 L 36.3 116.8 Q 36.0 116.4, 35.8 115.9 Q 35.5 115.4, 35.4 115.3 L 35.4 120.3 L 34.6 120.3 L 34.6 114.2 L 35.6 114.2 " fill="#0000FF"/>
<path class="atom-12" d="M 141.2 138.3 L 143.3 141.5 Q 143.5 141.8, 143.8 142.4 Q 144.1 143.0, 144.1 143.0 L 144.1 138.3 L 144.9 138.3 L 144.9 144.4 L 144.1 144.4 L 141.9 140.8 Q 141.7 140.4, 141.4 139.9 Q 141.1 139.5, 141.1 139.3 L 141.1 144.4 L 140.3 144.4 L 140.3 138.3 L 141.2 138.3 " fill="#0000FF"/>
<path class="atom-14" d="M 148.1 104.7 Q 148.1 103.3, 148.8 102.4 Q 149.6 101.6, 150.9 101.6 Q 152.3 101.6, 153.0 102.4 Q 153.7 103.3, 153.7 104.7 Q 153.7 106.2, 153.0 107.1 Q 152.3 107.9, 150.9 107.9 Q 149.6 107.9, 148.8 107.1 Q 148.1 106.2, 148.1 104.7 M 150.9 107.2 Q 151.9 107.2, 152.4 106.6 Q 152.9 106.0, 152.9 104.7 Q 152.9 103.5, 152.4 102.9 Q 151.9 102.3, 150.9 102.3 Q 150.0 102.3, 149.5 102.9 Q 149.0 103.5, 149.0 104.7 Q 149.0 106.0, 149.5 106.6 Q 150.0 107.2, 150.9 107.2 " fill="#FF0000"/>
<path class="atom-23" d="M 102.0 195.4 L 102.8 195.4 L 102.8 198.0 L 105.9 198.0 L 105.9 195.4 L 106.8 195.4 L 106.8 201.6 L 105.9 201.6 L 105.9 198.7 L 102.8 198.7 L 102.8 201.6 L 102.0 201.6 L 102.0 195.4 " fill="#000000"/>
<path class="atom-24" d="M 60.6 208.2 L 61.4 208.2 L 61.4 210.8 L 64.5 210.8 L 64.5 208.2 L 65.4 208.2 L 65.4 214.4 L 64.5 214.4 L 64.5 211.5 L 61.4 211.5 L 61.4 214.4 L 60.6 214.4 L 60.6 208.2 " fill="#000000"/>
<path class="atom-25" d="M 87.7 222.5 L 88.5 222.5 L 88.5 225.1 L 91.6 225.1 L 91.6 222.5 L 92.5 222.5 L 92.5 228.7 L 91.6 228.7 L 91.6 225.8 L 88.5 225.8 L 88.5 228.7 L 87.7 228.7 L 87.7 222.5 " fill="#000000"/>
<path class="atom-26" d="M 54.2 187.5 L 55.0 187.5 L 55.0 190.1 L 58.1 190.1 L 58.1 187.5 L 59.0 187.5 L 59.0 193.7 L 58.1 193.7 L 58.1 190.8 L 55.0 190.8 L 55.0 193.7 L 54.2 193.7 L 54.2 187.5 " fill="#000000"/>
<path class="atom-27" d="M 95.6 174.7 L 96.4 174.7 L 96.4 177.3 L 99.5 177.3 L 99.5 174.7 L 100.4 174.7 L 100.4 180.9 L 99.5 180.9 L 99.5 178.0 L 96.4 178.0 L 96.4 180.9 L 95.6 180.9 L 95.6 174.7 " fill="#000000"/>
<path class="atom-28" d="M 127.4 96.8 L 128.2 96.8 L 128.2 99.5 L 131.4 99.5 L 131.4 96.8 L 132.2 96.8 L 132.2 103.0 L 131.4 103.0 L 131.4 100.1 L 128.2 100.1 L 128.2 103.0 L 127.4 103.0 L 127.4 96.8 " fill="#000000"/>
<path class="atom-29" d="M 99.9 71.3 L 100.7 71.3 L 100.7 73.9 L 103.8 73.9 L 103.8 71.3 L 104.7 71.3 L 104.7 77.5 L 103.8 77.5 L 103.8 74.6 L 100.7 74.6 L 100.7 77.5 L 99.9 77.5 L 99.9 71.3 " fill="#000000"/>
<path class="atom-30" d="M 64.0 82.4 L 64.8 82.4 L 64.8 85.0 L 68.0 85.0 L 68.0 82.4 L 68.8 82.4 L 68.8 88.5 L 68.0 88.5 L 68.0 85.7 L 64.8 85.7 L 64.8 88.5 L 64.0 88.5 L 64.0 82.4 " fill="#000000"/>
<path class="atom-31" d="M 146.6 159.0 L 147.4 159.0 L 147.4 161.6 L 150.6 161.6 L 150.6 159.0 L 151.4 159.0 L 151.4 165.1 L 150.6 165.1 L 150.6 162.3 L 147.4 162.3 L 147.4 165.1 L 146.6 165.1 L 146.6 159.0 " fill="#000000"/>
<path class="atom-32" d="M 180.9 106.0 L 181.7 106.0 L 181.7 108.6 L 184.8 108.6 L 184.8 106.0 L 185.7 106.0 L 185.7 112.2 L 184.8 112.2 L 184.8 109.3 L 181.7 109.3 L 181.7 112.2 L 180.9 112.2 L 180.9 106.0 " fill="#000000"/>
<path class="atom-33" d="M 171.2 148.3 L 172.1 148.3 L 172.1 150.9 L 175.2 150.9 L 175.2 148.3 L 176.1 148.3 L 176.1 154.4 L 175.2 154.4 L 175.2 151.6 L 172.1 151.6 L 172.1 154.4 L 171.2 154.4 L 171.2 148.3 " fill="#000000"/>
<path class="atom-34" d="M 188.9 168.6 L 189.7 168.6 L 189.7 171.2 L 192.8 171.2 L 192.8 168.6 L 193.7 168.6 L 193.7 174.7 L 192.8 174.7 L 192.8 171.9 L 189.7 171.9 L 189.7 174.7 L 188.9 174.7 L 188.9 168.6 " fill="#000000"/>
<path class="atom-35" d="M 251.8 171.8 L 252.7 171.8 L 252.7 174.4 L 255.8 174.4 L 255.8 171.8 L 256.6 171.8 L 256.6 177.9 L 255.8 177.9 L 255.8 175.1 L 252.7 175.1 L 252.7 177.9 L 251.8 177.9 L 251.8 171.8 " fill="#000000"/>
<path class="atom-36" d="M 210.4 184.6 L 211.2 184.6 L 211.2 187.2 L 214.4 187.2 L 214.4 184.6 L 215.2 184.6 L 215.2 190.7 L 214.4 190.7 L 214.4 187.9 L 211.2 187.9 L 211.2 190.7 L 210.4 190.7 L 210.4 184.6 " fill="#000000"/>
<path class="atom-37" d="M 237.5 198.9 L 238.4 198.9 L 238.4 201.5 L 241.5 201.5 L 241.5 198.9 L 242.3 198.9 L 242.3 205.0 L 241.5 205.0 L 241.5 202.2 L 238.4 202.2 L 238.4 205.0 L 237.5 205.0 L 237.5 198.9 " fill="#000000"/>
<path class="atom-38" d="M 260.6 146.4 L 261.4 146.4 L 261.4 149.0 L 264.6 149.0 L 264.6 146.4 L 265.4 146.4 L 265.4 152.6 L 264.6 152.6 L 264.6 149.7 L 261.4 149.7 L 261.4 152.6 L 260.6 152.6 L 260.6 146.4 " fill="#000000"/>
<path class="atom-39" d="M 247.8 105.0 L 248.6 105.0 L 248.6 107.6 L 251.8 107.6 L 251.8 105.0 L 252.6 105.0 L 252.6 111.1 L 251.8 111.1 L 251.8 108.3 L 248.6 108.3 L 248.6 111.1 L 247.8 111.1 L 247.8 105.0 " fill="#000000"/>
<path class="atom-40" d="M 205.5 95.4 L 206.4 95.4 L 206.4 98.0 L 209.5 98.0 L 209.5 95.4 L 210.3 95.4 L 210.3 101.5 L 209.5 101.5 L 209.5 98.7 L 206.4 98.7 L 206.4 101.5 L 205.5 101.5 L 205.5 95.4 " fill="#000000"/>
<path class="bond-0 atom-0 atom-1" d="M 375.6,203.2 L 371.6,181.9" style="fill:none;fill-rule:evenodd;stroke:#000000;stroke-width:2.0px;stroke-linecap:butt;stroke-linejoin:miter;stroke-opacity:1"/>
<path class="bond-1 atom-0 atom-23" d="M 375.6,203.2 L 393.8,199.7" style="fill:none;fill-rule:evenodd;stroke:#000000;stroke-width:2.0px;stroke-linecap:butt;stroke-linejoin:miter;stroke-opacity:1"/>
<path class="bond-2 atom-0 atom-24" d="M 375.6,203.2 L 357.5,206.7" style="fill:none;fill-rule:evenodd;stroke:#000000;stroke-width:2.0px;stroke-linecap:butt;stroke-linejoin:miter;stroke-opacity:1"/>
<path class="bond-3 atom-0 atom-25" d="M 375.6,203.2 L 379.0,220.7" style="fill:none;fill-rule:evenodd;stroke:#000000;stroke-width:2.0px;stroke-linecap:butt;stroke-linejoin:miter;stroke-opacity:1"/>
<path class="bond-4 atom-1 atom-2" d="M 371.6,181.9 L 369.9,173.2" style="fill:none;fill-rule:evenodd;stroke:#000000;stroke-width:2.0px;stroke-linecap:butt;stroke-linejoin:miter;stroke-opacity:1"/>
<path class="bond-4 atom-1 atom-2" d="M 369.9,173.2 L 368.2,164.5" style="fill:none;fill-rule:evenodd;stroke:#FF0000;stroke-width:2.0px;stroke-linecap:butt;stroke-linejoin:miter;stroke-opacity:1"/>
<path class="bond-5 atom-1 atom-26" d="M 371.6,181.9 L 353.4,185.4" style="fill:none;fill-rule:evenodd;stroke:#000000;stroke-width:2.0px;stroke-linecap:butt;stroke-linejoin:miter;stroke-opacity:1"/>
<path class="bond-6 atom-1 atom-27" d="M 371.6,181.9 L 389.7,178.4" style="fill:none;fill-rule:evenodd;stroke:#000000;stroke-width:2.0px;stroke-linecap:butt;stroke-linejoin:miter;stroke-opacity:1"/>
<path class="bond-7 atom-2 atom-3" d="M 371.0,157.6 L 377.4,152.0" style="fill:none;fill-rule:evenodd;stroke:#FF0000;stroke-width:2.0px;stroke-linecap:butt;stroke-linejoin:miter;stroke-opacity:1"/>
<path class="bond-7 atom-2 atom-3" d="M 377.4,152.0 L 383.9,146.4" style="fill:none;fill-rule:evenodd;stroke:#000000;stroke-width:2.0px;stroke-linecap:butt;stroke-linejoin:miter;stroke-opacity:1"/>
<path class="bond-8 atom-3 atom-9" d="M 383.9,146.4 L 379.8,125.2" style="fill:none;fill-rule:evenodd;stroke:#000000;stroke-width:2.0px;stroke-linecap:butt;stroke-linejoin:miter;stroke-opacity:1"/>
<path class="bond-8 atom-3 atom-9" d="M 387.5,142.4 L 384.7,127.5" style="fill:none;fill-rule:evenodd;stroke:#000000;stroke-width:2.0px;stroke-linecap:butt;stroke-linejoin:miter;stroke-opacity:1"/>
<path class="bond-9 atom-3 atom-4" d="M 383.9,146.4 L 392.6,149.5" style="fill:none;fill-rule:evenodd;stroke:#000000;stroke-width:2.0px;stroke-linecap:butt;stroke-linejoin:miter;stroke-opacity:1"/>
<path class="bond-9 atom-3 atom-4" d="M 392.6,149.5 L 401.3,152.5" style="fill:none;fill-rule:evenodd;stroke:#0000FF;stroke-width:2.0px;stroke-linecap:butt;stroke-linejoin:miter;stroke-opacity:1"/>
<path class="bond-10 atom-4 atom-5" d="M 407.4,150.9 L 414.1,145.2" style="fill:none;fill-rule:evenodd;stroke:#0000FF;stroke-width:2.0px;stroke-linecap:butt;stroke-linejoin:miter;stroke-opacity:1"/>
<path class="bond-10 atom-4 atom-5" d="M 414.1,145.2 L 420.7,139.4" style="fill:none;fill-rule:evenodd;stroke:#000000;stroke-width:2.0px;stroke-linecap:butt;stroke-linejoin:miter;stroke-opacity:1"/>
<path class="bond-10 atom-4 atom-5" d="M 406.6,145.9 L 411.2,141.9" style="fill:none;fill-rule:evenodd;stroke:#0000FF;stroke-width:2.0px;stroke-linecap:butt;stroke-linejoin:miter;stroke-opacity:1"/>
<path class="bond-10 atom-4 atom-5" d="M 411.2,141.9 L 415.9,137.8" style="fill:none;fill-rule:evenodd;stroke:#000000;stroke-width:2.0px;stroke-linecap:butt;stroke-linejoin:miter;stroke-opacity:1"/>
<path class="bond-11 atom-5 atom-6" d="M 420.7,139.4 L 416.7,118.1" style="fill:none;fill-rule:evenodd;stroke:#000000;stroke-width:2.0px;stroke-linecap:butt;stroke-linejoin:miter;stroke-opacity:1"/>
<path class="bond-12 atom-5 atom-12" d="M 420.7,139.4 L 429.5,142.4" style="fill:none;fill-rule:evenodd;stroke:#000000;stroke-width:2.0px;stroke-linecap:butt;stroke-linejoin:miter;stroke-opacity:1"/>
<path class="bond-12 atom-5 atom-12" d="M 429.5,142.4 L 438.2,145.4" style="fill:none;fill-rule:evenodd;stroke:#0000FF;stroke-width:2.0px;stroke-linecap:butt;stroke-linejoin:miter;stroke-opacity:1"/>
<path class="bond-13 atom-6 atom-7" d="M 416.7,118.1 L 396.2,111.0" style="fill:none;fill-rule:evenodd;stroke:#000000;stroke-width:2.0px;stroke-linecap:butt;stroke-linejoin:miter;stroke-opacity:1"/>
<path class="bond-13 atom-6 atom-7" d="M 412.2,121.1 L 397.8,116.1" style="fill:none;fill-rule:evenodd;stroke:#000000;stroke-width:2.0px;stroke-linecap:butt;stroke-linejoin:miter;stroke-opacity:1"/>
<path class="bond-14 atom-6 atom-28" d="M 416.7,118.1 L 429.9,106.6" style="fill:none;fill-rule:evenodd;stroke:#000000;stroke-width:2.0px;stroke-linecap:butt;stroke-linejoin:miter;stroke-opacity:1"/>
<path class="bond-15 atom-7 atom-8" d="M 396.2,111.0 L 394.5,102.2" style="fill:none;fill-rule:evenodd;stroke:#000000;stroke-width:2.0px;stroke-linecap:butt;stroke-linejoin:miter;stroke-opacity:1"/>
<path class="bond-15 atom-7 atom-8" d="M 394.5,102.2 L 392.8,93.5" style="fill:none;fill-rule:evenodd;stroke:#0000FF;stroke-width:2.0px;stroke-linecap:butt;stroke-linejoin:miter;stroke-opacity:1"/>
<path class="bond-16 atom-7 atom-9" d="M 396.2,111.0 L 379.8,125.2" style="fill:none;fill-rule:evenodd;stroke:#000000;stroke-width:2.0px;stroke-linecap:butt;stroke-linejoin:miter;stroke-opacity:1"/>
<path class="bond-17 atom-8 atom-29" d="M 395.2,87.1 L 400.3,82.6" style="fill:none;fill-rule:evenodd;stroke:#0000FF;stroke-width:2.0px;stroke-linecap:butt;stroke-linejoin:miter;stroke-opacity:1"/>
<path class="bond-17 atom-8 atom-29" d="M 400.3,82.6 L 405.4,78.2" style="fill:none;fill-rule:evenodd;stroke:#000000;stroke-width:2.0px;stroke-linecap:butt;stroke-linejoin:miter;stroke-opacity:1"/>
<path class="bond-18 atom-8 atom-30" d="M 389.1,88.6 L 381.9,86.2" style="fill:none;fill-rule:evenodd;stroke:#0000FF;stroke-width:2.0px;stroke-linecap:butt;stroke-linejoin:miter;stroke-opacity:1"/>
<path class="bond-18 atom-8 atom-30" d="M 381.9,86.2 L 374.8,83.7" style="fill:none;fill-rule:evenodd;stroke:#000000;stroke-width:2.0px;stroke-linecap:butt;stroke-linejoin:miter;stroke-opacity:1"/>
<path class="bond-19 atom-9 atom-10" d="M 379.8,125.2 L 359.3,118.0" style="fill:none;fill-rule:evenodd;stroke:#000000;stroke-width:2.0px;stroke-linecap:butt;stroke-linejoin:miter;stroke-opacity:1"/>
<path class="bond-20 atom-10 atom-11" d="M 359.3,118.0 L 350.6,115.0" style="fill:none;fill-rule:evenodd;stroke:#000000;stroke-width:2.0px;stroke-linecap:butt;stroke-linejoin:miter;stroke-opacity:1"/>
<path class="bond-20 atom-10 atom-11" d="M 350.6,115.0 L 341.9,112.0" style="fill:none;fill-rule:evenodd;stroke:#0000FF;stroke-width:2.0px;stroke-linecap:butt;stroke-linejoin:miter;stroke-opacity:1"/>
<path class="bond-20 atom-10 atom-11" d="M 355.3,121.2 L 347.9,118.7" style="fill:none;fill-rule:evenodd;stroke:#000000;stroke-width:2.0px;stroke-linecap:butt;stroke-linejoin:miter;stroke-opacity:1"/>
<path class="bond-20 atom-10 atom-11" d="M 347.9,118.7 L 340.5,116.1" style="fill:none;fill-rule:evenodd;stroke:#0000FF;stroke-width:2.0px;stroke-linecap:butt;stroke-linejoin:miter;stroke-opacity:1"/>
<path class="bond-20 atom-10 atom-11" d="M 358.1,113.0 L 350.7,110.5" style="fill:none;fill-rule:evenodd;stroke:#000000;stroke-width:2.0px;stroke-linecap:butt;stroke-linejoin:miter;stroke-opacity:1"/>
<path class="bond-20 atom-10 atom-11" d="M 350.7,110.5 L 343.3,107.9" style="fill:none;fill-rule:evenodd;stroke:#0000FF;stroke-width:2.0px;stroke-linecap:butt;stroke-linejoin:miter;stroke-opacity:1"/>
<path class="bond-21 atom-12 atom-13" d="M 444.3,143.9 L 450.9,138.1" style="fill:none;fill-rule:evenodd;stroke:#0000FF;stroke-width:2.0px;stroke-linecap:butt;stroke-linejoin:miter;stroke-opacity:1"/>
<path class="bond-21 atom-12 atom-13" d="M 450.9,138.1 L 457.6,132.3" style="fill:none;fill-rule:evenodd;stroke:#000000;stroke-width:2.0px;stroke-linecap:butt;stroke-linejoin:miter;stroke-opacity:1"/>
<path class="bond-22 atom-12 atom-31" d="M 441.9,150.3 L 443.2,157.1" style="fill:none;fill-rule:evenodd;stroke:#0000FF;stroke-width:2.0px;stroke-linecap:butt;stroke-linejoin:miter;stroke-opacity:1"/>
<path class="bond-22 atom-12 atom-31" d="M 443.2,157.1 L 444.6,164.0" style="fill:none;fill-rule:evenodd;stroke:#000000;stroke-width:2.0px;stroke-linecap:butt;stroke-linejoin:miter;stroke-opacity:1"/>
<path class="bond-23 atom-13 atom-14" d="M 455.5,132.7 L 453.8,124.0" style="fill:none;fill-rule:evenodd;stroke:#000000;stroke-width:2.0px;stroke-linecap:butt;stroke-linejoin:miter;stroke-opacity:1"/>
<path class="bond-23 atom-13 atom-14" d="M 453.8,124.0 L 452.2,115.4" style="fill:none;fill-rule:evenodd;stroke:#FF0000;stroke-width:2.0px;stroke-linecap:butt;stroke-linejoin:miter;stroke-opacity:1"/>
<path class="bond-23 atom-13 atom-14" d="M 459.7,131.9 L 458.1,123.2" style="fill:none;fill-rule:evenodd;stroke:#000000;stroke-width:2.0px;stroke-linecap:butt;stroke-linejoin:miter;stroke-opacity:1"/>
<path class="bond-23 atom-13 atom-14" d="M 458.1,123.2 L 456.4,114.5" style="fill:none;fill-rule:evenodd;stroke:#FF0000;stroke-width:2.0px;stroke-linecap:butt;stroke-linejoin:miter;stroke-opacity:1"/>
<path class="bond-24 atom-13 atom-15" d="M 457.6,132.3 L 478.1,139.4" style="fill:none;fill-rule:evenodd;stroke:#000000;stroke-width:2.0px;stroke-linecap:butt;stroke-linejoin:miter;stroke-opacity:1"/>
<path class="bond-25 atom-15 atom-16" d="M 478.1,139.4 L 498.5,146.6" style="fill:none;fill-rule:evenodd;stroke:#000000;stroke-width:2.0px;stroke-linecap:butt;stroke-linejoin:miter;stroke-opacity:1"/>
<path class="bond-26 atom-15 atom-32" d="M 478.1,139.4 L 483.9,122.8" style="fill:none;fill-rule:evenodd;stroke:#000000;stroke-width:2.0px;stroke-linecap:butt;stroke-linejoin:miter;stroke-opacity:1"/>
<path class="bond-27 atom-15 atom-33" d="M 478.1,139.4 L 472.3,156.1" style="fill:none;fill-rule:evenodd;stroke:#000000;stroke-width:2.0px;stroke-linecap:butt;stroke-linejoin:miter;stroke-opacity:1"/>
<path class="bond-28 atom-16 atom-22" d="M 498.5,146.6 L 514.9,132.4" style="fill:none;fill-rule:evenodd;stroke:#000000;stroke-width:2.0px;stroke-linecap:butt;stroke-linejoin:miter;stroke-opacity:1"/>
<path class="bond-29 atom-16 atom-17" d="M 498.5,146.6 L 502.6,167.8" style="fill:none;fill-rule:evenodd;stroke:#000000;stroke-width:2.0px;stroke-linecap:butt;stroke-linejoin:miter;stroke-opacity:1"/>
<path class="bond-29 atom-16 atom-17" d="M 503.4,148.9 L 506.3,163.8" style="fill:none;fill-rule:evenodd;stroke:#000000;stroke-width:2.0px;stroke-linecap:butt;stroke-linejoin:miter;stroke-opacity:1"/>
<path class="bond-30 atom-17 atom-18" d="M 502.6,167.8 L 523.1,175.0" style="fill:none;fill-rule:evenodd;stroke:#000000;stroke-width:2.0px;stroke-linecap:butt;stroke-linejoin:miter;stroke-opacity:1"/>
<path class="bond-31 atom-17 atom-34" d="M 502.6,167.8 L 489.3,179.3" style="fill:none;fill-rule:evenodd;stroke:#000000;stroke-width:2.0px;stroke-linecap:butt;stroke-linejoin:miter;stroke-opacity:1"/>
<path class="bond-32 atom-18 atom-19" d="M 523.1,175.0 L 539.5,160.8" style="fill:none;fill-rule:evenodd;stroke:#000000;stroke-width:2.0px;stroke-linecap:butt;stroke-linejoin:miter;stroke-opacity:1"/>
<path class="bond-32 atom-18 atom-19" d="M 522.7,169.5 L 534.2,159.6" style="fill:none;fill-rule:evenodd;stroke:#000000;stroke-width:2.0px;stroke-linecap:butt;stroke-linejoin:miter;stroke-opacity:1"/>
<path class="bond-33 atom-18 atom-35" d="M 523.1,175.0 L 526.4,192.5" style="fill:none;fill-rule:evenodd;stroke:#000000;stroke-width:2.0px;stroke-linecap:butt;stroke-linejoin:miter;stroke-opacity:1"/>
<path class="bond-34 atom-19 atom-20" d="M 539.5,160.8 L 548.2,163.8" style="fill:none;fill-rule:evenodd;stroke:#000000;stroke-width:2.0px;stroke-linecap:butt;stroke-linejoin:miter;stroke-opacity:1"/>
<path class="bond-34 atom-19 atom-20" d="M 548.2,163.8 L 556.9,166.8" style="fill:none;fill-rule:evenodd;stroke:#00CC00;stroke-width:2.0px;stroke-linecap:butt;stroke-linejoin:miter;stroke-opacity:1"/>
<path class="bond-35 atom-19 atom-21" d="M 539.5,160.8 L 535.4,139.5" style="fill:none;fill-rule:evenodd;stroke:#000000;stroke-width:2.0px;stroke-linecap:butt;stroke-linejoin:miter;stroke-opacity:1"/>
<path class="bond-36 atom-21 atom-22" d="M 535.4,139.5 L 514.9,132.4" style="fill:none;fill-rule:evenodd;stroke:#000000;stroke-width:2.0px;stroke-linecap:butt;stroke-linejoin:miter;stroke-opacity:1"/>
<path class="bond-36 atom-21 atom-22" d="M 530.9,142.5 L 516.6,137.5" style="fill:none;fill-rule:evenodd;stroke:#000000;stroke-width:2.0px;stroke-linecap:butt;stroke-linejoin:miter;stroke-opacity:1"/>
<path class="bond-37 atom-21 atom-36" d="M 535.4,139.5 L 548.7,128.0" style="fill:none;fill-rule:evenodd;stroke:#000000;stroke-width:2.0px;stroke-linecap:butt;stroke-linejoin:miter;stroke-opacity:1"/>
<path class="bond-38 atom-22 atom-37" d="M 514.9,132.4 L 511.6,114.9" style="fill:none;fill-rule:evenodd;stroke:#000000;stroke-width:2.0px;stroke-linecap:butt;stroke-linejoin:miter;stroke-opacity:1"/>
<path class="atom-2" d="M 364.7 160.6 Q 364.7 159.2, 365.4 158.3 Q 366.1 157.5, 367.5 157.5 Q 368.8 157.5, 369.6 158.3 Q 370.3 159.2, 370.3 160.6 Q 370.3 162.1, 369.6 163.0 Q 368.8 163.8, 367.5 163.8 Q 366.1 163.8, 365.4 163.0 Q 364.7 162.1, 364.7 160.6 M 367.5 163.1 Q 368.4 163.1, 368.9 162.5 Q 369.4 161.9, 369.4 160.6 Q 369.4 159.4, 368.9 158.8 Q 368.4 158.2, 367.5 158.2 Q 366.5 158.2, 366.0 158.8 Q 365.5 159.4, 365.5 160.6 Q 365.5 161.9, 366.0 162.5 Q 366.5 163.1, 367.5 163.1 " fill="#FF0000"/>
<path class="atom-4" d="M 403.0 150.5 L 405.0 153.7 Q 405.2 154.1, 405.5 154.6 Q 405.8 155.2, 405.9 155.3 L 405.9 150.5 L 406.7 150.5 L 406.7 156.6 L 405.8 156.6 L 403.7 153.1 Q 403.4 152.7, 403.2 152.2 Q 402.9 151.7, 402.8 151.6 L 402.8 156.6 L 402.0 156.6 L 402.0 150.5 L 403.0 150.5 " fill="#0000FF"/>
<path class="atom-8" d="M 390.8 86.6 L 392.8 89.9 Q 393.0 90.2, 393.3 90.8 Q 393.6 91.4, 393.6 91.4 L 393.6 86.6 L 394.4 86.6 L 394.4 92.8 L 393.6 92.8 L 391.4 89.2 Q 391.2 88.8, 390.9 88.3 Q 390.7 87.8, 390.6 87.7 L 390.6 92.8 L 389.8 92.8 L 389.8 86.6 L 390.8 86.6 " fill="#0000FF"/>
<path class="atom-11" d="M 337.5 107.9 L 339.5 111.1 Q 339.7 111.4, 340.0 112.0 Q 340.4 112.6, 340.4 112.6 L 340.4 107.9 L 341.2 107.9 L 341.2 114.0 L 340.3 114.0 L 338.2 110.4 Q 337.9 110.0, 337.7 109.6 Q 337.4 109.1, 337.3 108.9 L 337.3 114.0 L 336.5 114.0 L 336.5 107.9 L 337.5 107.9 " fill="#0000FF"/>
<path class="atom-12" d="M 439.9 143.4 L 441.9 146.7 Q 442.1 147.0, 442.4 147.6 Q 442.7 148.2, 442.7 148.2 L 442.7 143.4 L 443.5 143.4 L 443.5 149.6 L 442.7 149.6 L 440.5 146.0 Q 440.3 145.6, 440.0 145.1 Q 439.8 144.6, 439.7 144.5 L 439.7 149.6 L 438.9 149.6 L 438.9 143.4 L 439.9 143.4 " fill="#0000FF"/>
<path class="atom-14" d="M 450.7 111.1 Q 450.7 109.6, 451.4 108.8 Q 452.2 107.9, 453.5 107.9 Q 454.9 107.9, 455.6 108.8 Q 456.3 109.6, 456.3 111.1 Q 456.3 112.6, 455.6 113.4 Q 454.9 114.2, 453.5 114.2 Q 452.2 114.2, 451.4 113.4 Q 450.7 112.6, 450.7 111.1 M 453.5 113.5 Q 454.5 113.5, 455.0 112.9 Q 455.5 112.3, 455.5 111.1 Q 455.5 109.9, 455.0 109.2 Q 454.5 108.6, 453.5 108.6 Q 452.6 108.6, 452.1 109.2 Q 451.6 109.8, 451.6 111.1 Q 451.6 112.3, 452.1 112.9 Q 452.6 113.5, 453.5 113.5 " fill="#FF0000"/>
<path class="atom-20" d="M 557.6 168.1 Q 557.6 166.6, 558.3 165.8 Q 559.0 165.0, 560.4 165.0 Q 561.7 165.0, 562.3 165.9 L 561.8 166.3 Q 561.3 165.7, 560.4 165.7 Q 559.5 165.7, 559.0 166.3 Q 558.5 166.9, 558.5 168.1 Q 558.5 169.3, 559.0 169.9 Q 559.5 170.6, 560.5 170.6 Q 561.2 170.6, 561.9 170.2 L 562.2 170.8 Q 561.9 171.0, 561.4 171.1 Q 560.9 171.3, 560.4 171.3 Q 559.0 171.3, 558.3 170.4 Q 557.6 169.6, 557.6 168.1 " fill="#00CC00"/>
<path class="atom-20" d="M 562.7 164.6 L 563.5 164.6 L 563.5 171.2 L 562.7 171.2 L 562.7 164.6 " fill="#00CC00"/>
<path class="atom-23" d="M 394.5 196.0 L 395.3 196.0 L 395.3 198.7 L 398.5 198.7 L 398.5 196.0 L 399.3 196.0 L 399.3 202.2 L 398.5 202.2 L 398.5 199.3 L 395.3 199.3 L 395.3 202.2 L 394.5 202.2 L 394.5 196.0 " fill="#000000"/>
<path class="atom-24" d="M 351.9 204.2 L 352.8 204.2 L 352.8 206.8 L 355.9 206.8 L 355.9 204.2 L 356.7 204.2 L 356.7 210.3 L 355.9 210.3 L 355.9 207.5 L 352.8 207.5 L 352.8 210.3 L 351.9 210.3 L 351.9 204.2 " fill="#000000"/>
<path class="atom-25" d="M 377.3 221.4 L 378.1 221.4 L 378.1 224.0 L 381.3 224.0 L 381.3 221.4 L 382.1 221.4 L 382.1 227.5 L 381.3 227.5 L 381.3 224.7 L 378.1 224.7 L 378.1 227.5 L 377.3 227.5 L 377.3 221.4 " fill="#000000"/>
<path class="atom-26" d="M 347.9 182.9 L 348.7 182.9 L 348.7 185.5 L 351.8 185.5 L 351.8 182.9 L 352.7 182.9 L 352.7 189.0 L 351.8 189.0 L 351.8 186.2 L 348.7 186.2 L 348.7 189.0 L 347.9 189.0 L 347.9 182.9 " fill="#000000"/>
<path class="atom-27" d="M 390.4 174.8 L 391.3 174.8 L 391.3 177.4 L 394.4 177.4 L 394.4 174.8 L 395.2 174.8 L 395.2 180.9 L 394.4 180.9 L 394.4 178.1 L 391.3 178.1 L 391.3 180.9 L 390.4 180.9 L 390.4 174.8 " fill="#000000"/>
<path class="atom-28" d="M 430.7 100.9 L 431.5 100.9 L 431.5 103.5 L 434.6 103.5 L 434.6 100.9 L 435.5 100.9 L 435.5 107.0 L 434.6 107.0 L 434.6 104.2 L 431.5 104.2 L 431.5 107.0 L 430.7 107.0 L 430.7 100.9 " fill="#000000"/>
<path class="atom-29" d="M 406.1 72.5 L 406.9 72.5 L 406.9 75.1 L 410.1 75.1 L 410.1 72.5 L 410.9 72.5 L 410.9 78.6 L 410.1 78.6 L 410.1 75.8 L 406.9 75.8 L 406.9 78.6 L 406.1 78.6 L 406.1 72.5 " fill="#000000"/>
<path class="atom-30" d="M 369.2 79.5 L 370.1 79.5 L 370.1 82.1 L 373.2 82.1 L 373.2 79.5 L 374.0 79.5 L 374.0 85.7 L 373.2 85.7 L 373.2 82.8 L 370.1 82.8 L 370.1 85.7 L 369.2 85.7 L 369.2 79.5 " fill="#000000"/>
<path class="atom-31" d="M 442.9 164.7 L 443.7 164.7 L 443.7 167.3 L 446.9 167.3 L 446.9 164.7 L 447.7 164.7 L 447.7 170.9 L 446.9 170.9 L 446.9 168.0 L 443.7 168.0 L 443.7 170.9 L 442.9 170.9 L 442.9 164.7 " fill="#000000"/>
<path class="atom-32" d="M 482.8 115.9 L 483.6 115.9 L 483.6 118.5 L 486.8 118.5 L 486.8 115.9 L 487.6 115.9 L 487.6 122.0 L 486.8 122.0 L 486.8 119.2 L 483.6 119.2 L 483.6 122.0 L 482.8 122.0 L 482.8 115.9 " fill="#000000"/>
<path class="atom-33" d="M 468.6 156.8 L 469.4 156.8 L 469.4 159.5 L 472.5 159.5 L 472.5 156.8 L 473.4 156.8 L 473.4 163.0 L 472.5 163.0 L 472.5 160.1 L 469.4 160.1 L 469.4 163.0 L 468.6 163.0 L 468.6 156.8 " fill="#000000"/>
<path class="atom-34" d="M 483.8 178.9 L 484.7 178.9 L 484.7 181.6 L 487.8 181.6 L 487.8 178.9 L 488.6 178.9 L 488.6 185.1 L 487.8 185.1 L 487.8 182.2 L 484.7 182.2 L 484.7 185.1 L 483.8 185.1 L 483.8 178.9 " fill="#000000"/>
<path class="atom-35" d="M 524.8 193.2 L 525.6 193.2 L 525.6 195.8 L 528.7 195.8 L 528.7 193.2 L 529.6 193.2 L 529.6 199.3 L 528.7 199.3 L 528.7 196.5 L 525.6 196.5 L 525.6 199.3 L 524.8 199.3 L 524.8 193.2 " fill="#000000"/>
<path class="atom-36" d="M 549.4 122.3 L 550.2 122.3 L 550.2 124.9 L 553.4 124.9 L 553.4 122.3 L 554.2 122.3 L 554.2 128.4 L 553.4 128.4 L 553.4 125.6 L 550.2 125.6 L 550.2 128.4 L 549.4 128.4 L 549.4 122.3 " fill="#000000"/>
<path class="atom-37" d="M 508.5 108.0 L 509.3 108.0 L 509.3 110.6 L 512.4 110.6 L 512.4 108.0 L 513.3 108.0 L 513.3 114.2 L 512.4 114.2 L 512.4 111.3 L 509.3 111.3 L 509.3 114.2 L 508.5 114.2 L 508.5 108.0 " fill="#000000"/>
<text x="300" y="20" font-size="20" font-family="sans-serif" font-weight="normal" letter-spacing="0" text-anchor="middle" fill="black">jnk1: 18629-1 -&gt; 18627-1</text><text x="300" y="35" font-size="15" font-family="sans-serif" font-weight="normal" letter-spacing="0" text-anchor="middle" fill="black"></text><text x="150" y="285" font-size="15" font-family="sans-serif" font-weight="normal" letter-spacing="0" text-anchor="middle" fill="black">18629-1</text><text x="450" y="285" font-size="15" font-family="sans-serif" font-weight="normal" letter-spacing="0" text-anchor="middle" fill="black">18627-1</text></svg>
