<svg class="main-svg" xmlns="http://www.w3.org/2000/svg" xmlns:xlink="http://www.w3.org/1999/xlink" width="400" height="400" style="" viewBox="0 0 400 400"><rect x="0" y="0" width="400" height="400" style="fill: rgb(255, 255, 255); fill-opacity: 1;"/><defs id="defs-ab43f2"><g class="clips"><clipPath id="clipab43f2xyplot" class="plotclip"><rect width="240" height="220"/></clipPath><clipPath class="axesclip" id="clipab43f2x"><rect x="80" y="0" width="240" height="400"/></clipPath><clipPath class="axesclip" id="clipab43f2y"><rect x="0" y="100" width="400" height="220"/></clipPath><clipPath class="axesclip" id="clipab43f2xy"><rect x="80" y="100" width="240" height="220"/></clipPath></g><g class="gradients"/><g class="patterns"/></defs><g class="bglayer"/><g class="layer-below"><g class="imagelayer"/><g class="shapelayer"/></g><g class="cartesianlayer"><g class="subplot xy"><g class="layer-subplot"><g class="shapelayer"/><g class="imagelayer"/></g><g class="gridlayer"><g class="x"/><g class="y"/></g><g class="zerolinelayer"/><path class="xlines-below"/><path class="ylines-below"/><g class="overlines-below"/><g class="xaxislayer-below"/><g class="yaxislayer-below"/><g class="overaxes-below"/><g class="plot" transform="translate(80,100)" clip-path="url(#clipab43f2xyplot)"><g class="scatterlayer mlayer"><g class="trace scatter tracefe53d2" style="stroke-miterlimit: 2; opacity: 1;"><g class="fills"/><g class="errorbars"/><g class="lines"><path class="js-line" d="M120,220L120,0" style="vector-effect: non-scaling-stroke; fill: none; stroke: rgb(0, 0, 0); stroke-opacity: 1; stroke-width: 2px; opacity: 1;"/></g><g class="points"/><g class="text"/></g><g class="trace scatter trace49826c" style="stroke-miterlimit: 2; opacity: 1;"><g class="fills"/><g class="errorbars"/><g class="lines"><path class="js-line" d="M0,110L240,110" style="vector-effect: non-scaling-stroke; fill: none; stroke: rgb(0, 0, 0); stroke-opacity: 1; stroke-width: 2px; opacity: 1;"/></g><g class="points"/><g class="text"/></g><g class="trace scatter tracece17e6" style="stroke-miterlimit: 2; opacity: 1;"><g class="fills"><g><path class="js-fill" d="M0,204.29L240,-15.71L240,15.71L0,235.71Z" style="fill: rgb(0, 0, 0); fill-opacity: 0.2; stroke-width: 0;"/></g></g><g class="errorbars"/><g class="lines"><path class="js-line" d="M0,204.29L240,-15.71L240,15.71L0,235.71" style="vector-effect: non-scaling-stroke; fill: none; stroke: rgb(44, 160, 44); stroke-opacity: 1; stroke-width: 0px; opacity: 1;"/></g><g class="points"/><g class="text"/></g><g class="trace scatter trace817fcc" style="stroke-miterlimit: 2; opacity: 1;"><g class="fills"><g><path class="js-fill" d="M0,212.14L240,-7.86L240,7.86L0,227.86Z" style="fill: rgb(0, 0, 0); fill-opacity: 0.2; stroke-width: 0;"/></g></g><g class="errorbars"/><g class="lines"><path class="js-line" d="M0,212.14L240,-7.86L240,7.86L0,227.86" style="vector-effect: non-scaling-stroke; fill: none; stroke: rgb(214, 39, 40); stroke-opacity: 1; stroke-width: 0px; opacity: 1;"/></g><g class="points"/><g class="text"/></g><g class="trace scatter trace2e5c68" style="stroke-miterlimit: 2; opacity: 1;"><g class="fills"/><g class="errorbars"/><g class="lines"><path class="js-line" d="M0,220L240,0" style="vector-effect: non-scaling-stroke; fill: none; stroke: rgb(0, 0, 0); stroke-opacity: 1; stroke-width: 2px; opacity: 1;"/></g><g class="points"/><g class="text"/></g><g class="trace scatter tracecac477" style="stroke-miterlimit: 2; opacity: 1;"><g class="fills"/><g class="errorbars"><g class="errorbar"><path class="yerror" d="M111.71,157.03h8m-4,0V177.58m-4,0h8" style="vector-effect: non-scaling-stroke; stroke-width: 2px; stroke: rgb(140, 86, 75); stroke-opacity: 1;"/><path class="xerror" d="M122.5,163.3v8m0,-4H108.93m0,-4v8" style="vector-effect: non-scaling-stroke; stroke-width: 2px; stroke: rgb(140, 86, 75); stroke-opacity: 1;"/></g><g class="errorbar"><path class="yerror" d="M111.03,139.4h8m-4,0V150.79m-4,0h8" style="vector-effect: non-scaling-stroke; stroke-width: 2px; stroke: rgb(140, 86, 75); stroke-opacity: 1;"/><path class="xerror" d="M121.82,141.1v8m0,-4H108.24m0,-4v8" style="vector-effect: non-scaling-stroke; stroke-width: 2px; stroke: rgb(140, 86, 75); stroke-opacity: 1;"/></g><g class="errorbar"><path class="yerror" d="M79.66,88.83h8m-4,0V120.8m-4,0h8" style="vector-effect: non-scaling-stroke; stroke-width: 2px; stroke: rgb(140, 86, 75); stroke-opacity: 1;"/><path class="xerror" d="M90.45,100.81v8m0,-4H76.87m0,-4v8" style="vector-effect: non-scaling-stroke; stroke-width: 2px; stroke: rgb(140, 86, 75); stroke-opacity: 1;"/></g><g class="errorbar"><path class="yerror" d="M148.91,110.65h8m-4,0V126.53m-4,0h8" style="vector-effect: non-scaling-stroke; stroke-width: 2px; stroke: rgb(140, 86, 75); stroke-opacity: 1;"/><path class="xerror" d="M159.7,114.59v8m0,-4H146.13m0,-4v8" style="vector-effect: non-scaling-stroke; stroke-width: 2px; stroke: rgb(140, 86, 75); stroke-opacity: 1;"/></g><g class="errorbar"><path class="yerror" d="M143.77,101.52h8m-4,0V115.55m-4,0h8" style="vector-effect: non-scaling-stroke; stroke-width: 2px; stroke: rgb(140, 86, 75); stroke-opacity: 1;"/><path class="xerror" d="M154.56,104.53v8m0,-4H140.98m0,-4v8" style="vector-effect: non-scaling-stroke; stroke-width: 2px; stroke: rgb(140, 86, 75); stroke-opacity: 1;"/></g><g class="errorbar"><path class="yerror" d="M110.51,143.24h8m-4,0V149.89m-4,0h8" style="vector-effect: non-scaling-stroke; stroke-width: 2px; stroke: rgb(140, 86, 75); stroke-opacity: 1;"/><path class="xerror" d="M121.3,142.56v8m0,-4H107.73m0,-4v8" style="vector-effect: non-scaling-stroke; stroke-width: 2px; stroke: rgb(140, 86, 75); stroke-opacity: 1;"/></g><g class="errorbar"><path class="yerror" d="M169.66,118.42h8m-4,0V138.25m-4,0h8" style="vector-effect: non-scaling-stroke; stroke-width: 2px; stroke: rgb(140, 86, 75); stroke-opacity: 1;"/><path class="xerror" d="M180.45,124.33000000000001v8m0,-4H166.87m0,-4v8" style="vector-effect: non-scaling-stroke; stroke-width: 2px; stroke: rgb(140, 86, 75); stroke-opacity: 1;"/></g><g class="errorbar"><path class="yerror" d="M104.34,92.46h8m-4,0V109.63m-4,0h8" style="vector-effect: non-scaling-stroke; stroke-width: 2px; stroke: rgb(140, 86, 75); stroke-opacity: 1;"/><path class="xerror" d="M115.13,97.04v8m0,-4H101.55m0,-4v8" style="vector-effect: non-scaling-stroke; stroke-width: 2px; stroke: rgb(140, 86, 75); stroke-opacity: 1;"/></g><g class="errorbar"><path class="yerror" d="M190.57,67.89h8m-4,0V93.13m-4,0h8" style="vector-effect: non-scaling-stroke; stroke-width: 2px; stroke: rgb(140, 86, 75); stroke-opacity: 1;"/><path class="xerror" d="M201.36,76.51v8m0,-4H187.78m0,-4v8" style="vector-effect: non-scaling-stroke; stroke-width: 2px; stroke: rgb(140, 86, 75); stroke-opacity: 1;"/></g><g class="errorbar"><path class="yerror" d="M139.31,90.27h8m-4,0V98.3m-4,0h8" style="vector-effect: non-scaling-stroke; stroke-width: 2px; stroke: rgb(140, 86, 75); stroke-opacity: 1;"/><path class="xerror" d="M150.1,90.29v8m0,-4H136.53m0,-4v8" style="vector-effect: non-scaling-stroke; stroke-width: 2px; stroke: rgb(140, 86, 75); stroke-opacity: 1;"/></g><g class="errorbar"><path class="yerror" d="M110.86,76.94h8m-4,0V90.15m-4,0h8" style="vector-effect: non-scaling-stroke; stroke-width: 2px; stroke: rgb(140, 86, 75); stroke-opacity: 1;"/><path class="xerror" d="M121.65,79.55v8m0,-4H108.07m0,-4v8" style="vector-effect: non-scaling-stroke; stroke-width: 2px; stroke: rgb(140, 86, 75); stroke-opacity: 1;"/></g><g class="errorbar"><path class="yerror" d="M146.86,91.5h8m-4,0V104.3m-4,0h8" style="vector-effect: non-scaling-stroke; stroke-width: 2px; stroke: rgb(140, 86, 75); stroke-opacity: 1;"/><path class="xerror" d="M157.65,93.9v8m0,-4H144.07m0,-4v8" style="vector-effect: non-scaling-stroke; stroke-width: 2px; stroke: rgb(140, 86, 75); stroke-opacity: 1;"/></g><g class="errorbar"><path class="yerror" d="M141.71,76.74h8m-4,0V90.57m-4,0h8" style="vector-effect: non-scaling-stroke; stroke-width: 2px; stroke: rgb(140, 86, 75); stroke-opacity: 1;"/><path class="xerror" d="M152.5,79.65v8m0,-4H138.93m0,-4v8" style="vector-effect: non-scaling-stroke; stroke-width: 2px; stroke: rgb(140, 86, 75); stroke-opacity: 1;"/></g><g class="errorbar"><path class="yerror" d="M167.6,102.04h8m-4,0V116.07m-4,0h8" style="vector-effect: non-scaling-stroke; stroke-width: 2px; stroke: rgb(140, 86, 75); stroke-opacity: 1;"/><path class="xerror" d="M178.39,105.06v8m0,-4H164.81m0,-4v8" style="vector-effect: non-scaling-stroke; stroke-width: 2px; stroke: rgb(140, 86, 75); stroke-opacity: 1;"/></g><g class="errorbar"><path class="yerror" d="M115.31,82.62h8m-4,0V96m-4,0h8" style="vector-effect: non-scaling-stroke; stroke-width: 2px; stroke: rgb(140, 86, 75); stroke-opacity: 1;"/><path class="xerror" d="M126.1,85.31v8m0,-4H112.53m0,-4v8" style="vector-effect: non-scaling-stroke; stroke-width: 2px; stroke: rgb(140, 86, 75); stroke-opacity: 1;"/></g><g class="errorbar"><path class="yerror" d="M125.25999999999999,104.01h8m-4,0V110.23m-4,0h8" style="vector-effect: non-scaling-stroke; stroke-width: 2px; stroke: rgb(140, 86, 75); stroke-opacity: 1;"/><path class="xerror" d="M136.05,103.12v8m0,-4H122.47m0,-4v8" style="vector-effect: non-scaling-stroke; stroke-width: 2px; stroke: rgb(140, 86, 75); stroke-opacity: 1;"/></g><g class="errorbar"><path class="yerror" d="M84.29,92.86h8m-4,0V99.17m-4,0h8" style="vector-effect: non-scaling-stroke; stroke-width: 2px; stroke: rgb(140, 86, 75); stroke-opacity: 1;"/><path class="xerror" d="M95.07,92.01v8m0,-4H81.5m0,-4v8" style="vector-effect: non-scaling-stroke; stroke-width: 2px; stroke: rgb(140, 86, 75); stroke-opacity: 1;"/></g><g class="errorbar"><path class="yerror" d="M127.83000000000001,107.85h8m-4,0V123.68m-4,0h8" style="vector-effect: non-scaling-stroke; stroke-width: 2px; stroke: rgb(140, 86, 75); stroke-opacity: 1;"/><path class="xerror" d="M138.62,111.76v8m0,-4H125.04m0,-4v8" style="vector-effect: non-scaling-stroke; stroke-width: 2px; stroke: rgb(140, 86, 75); stroke-opacity: 1;"/></g><g class="errorbar"><path class="yerror" d="M112.91,70.62h8m-4,0V83.38m-4,0h8" style="vector-effect: non-scaling-stroke; stroke-width: 2px; stroke: rgb(140, 86, 75); stroke-opacity: 1;"/><path class="xerror" d="M123.7,73v8m0,-4H110.13m0,-4v8" style="vector-effect: non-scaling-stroke; stroke-width: 2px; stroke: rgb(140, 86, 75); stroke-opacity: 1;"/></g><g class="errorbar"><path class="yerror" d="M148.23,84.28h8m-4,0V128.39m-4,0h8" style="vector-effect: non-scaling-stroke; stroke-width: 2px; stroke: rgb(140, 86, 75); stroke-opacity: 1;"/><path class="xerror" d="M159.02,102.33v8m0,-4H145.44m0,-4v8" style="vector-effect: non-scaling-stroke; stroke-width: 2px; stroke: rgb(140, 86, 75); stroke-opacity: 1;"/></g><g class="errorbar"><path class="yerror" d="M85.83,72.82h8m-4,0V97.1m-4,0h8" style="vector-effect: non-scaling-stroke; stroke-width: 2px; stroke: rgb(140, 86, 75); stroke-opacity: 1;"/><path class="xerror" d="M96.62,80.96v8m0,-4H83.04m0,-4v8" style="vector-effect: non-scaling-stroke; stroke-width: 2px; stroke: rgb(140, 86, 75); stroke-opacity: 1;"/></g><g class="errorbar"><path class="yerror" d="M92.51,104.23h8m-4,0V128.23m-4,0h8" style="vector-effect: non-scaling-stroke; stroke-width: 2px; stroke: rgb(140, 86, 75); stroke-opacity: 1;"/><path class="xerror" d="M103.3,112.23v8m0,-4H89.73m0,-4v8" style="vector-effect: non-scaling-stroke; stroke-width: 2px; stroke: rgb(140, 86, 75); stroke-opacity: 1;"/></g><g class="errorbar"><path class="yerror" d="M105.54,103.38h8m-4,0V112.01m-4,0h8" style="vector-effect: non-scaling-stroke; stroke-width: 2px; stroke: rgb(140, 86, 75); stroke-opacity: 1;"/><path class="xerror" d="M116.33,103.7v8m0,-4H102.75m0,-4v8" style="vector-effect: non-scaling-stroke; stroke-width: 2px; stroke: rgb(140, 86, 75); stroke-opacity: 1;"/></g><g class="errorbar"><path class="yerror" d="M75.03,53.21h8m-4,0V76.49m-4,0h8" style="vector-effect: non-scaling-stroke; stroke-width: 2px; stroke: rgb(140, 86, 75); stroke-opacity: 1;"/><path class="xerror" d="M85.82,60.849999999999994v8m0,-4H72.24m0,-4v8" style="vector-effect: non-scaling-stroke; stroke-width: 2px; stroke: rgb(140, 86, 75); stroke-opacity: 1;"/></g><g class="errorbar"><path class="yerror" d="M84.97,81.57h8m-4,0V91.92m-4,0h8" style="vector-effect: non-scaling-stroke; stroke-width: 2px; stroke: rgb(140, 86, 75); stroke-opacity: 1;"/><path class="xerror" d="M95.76,82.74v8m0,-4H82.18m0,-4v8" style="vector-effect: non-scaling-stroke; stroke-width: 2px; stroke: rgb(140, 86, 75); stroke-opacity: 1;"/></g><g class="errorbar"><path class="yerror" d="M147.89,104.79h8m-4,0V110.81m-4,0h8" style="vector-effect: non-scaling-stroke; stroke-width: 2px; stroke: rgb(140, 86, 75); stroke-opacity: 1;"/><path class="xerror" d="M158.67,103.8v8m0,-4H145.1m0,-4v8" style="vector-effect: non-scaling-stroke; stroke-width: 2px; stroke: rgb(140, 86, 75); stroke-opacity: 1;"/></g><g class="errorbar"><path class="yerror" d="M91.31,146.31h8m-4,0V176.04m-4,0h8" style="vector-effect: non-scaling-stroke; stroke-width: 2px; stroke: rgb(140, 86, 75); stroke-opacity: 1;"/><path class="xerror" d="M102.1,157.18v8m0,-4H88.53m0,-4v8" style="vector-effect: non-scaling-stroke; stroke-width: 2px; stroke: rgb(140, 86, 75); stroke-opacity: 1;"/></g><g class="errorbar"><path class="yerror" d="M86.17,105.41h8m-4,0V111.97m-4,0h8" style="vector-effect: non-scaling-stroke; stroke-width: 2px; stroke: rgb(140, 86, 75); stroke-opacity: 1;"/><path class="xerror" d="M96.96,104.69v8m0,-4H83.38m0,-4v8" style="vector-effect: non-scaling-stroke; stroke-width: 2px; stroke: rgb(140, 86, 75); stroke-opacity: 1;"/></g><g class="errorbar"><path class="yerror" d="M85.49,94h8m-4,0V109.24m-4,0h8" style="vector-effect: non-scaling-stroke; stroke-width: 2px; stroke: rgb(140, 86, 75); stroke-opacity: 1;"/><path class="xerror" d="M96.27,97.62v8m0,-4H82.7m0,-4v8" style="vector-effect: non-scaling-stroke; stroke-width: 2px; stroke: rgb(140, 86, 75); stroke-opacity: 1;"/></g><g class="errorbar"><path class="yerror" d="M87.37,113.21h8m-4,0V117.37m-4,0h8" style="vector-effect: non-scaling-stroke; stroke-width: 2px; stroke: rgb(140, 86, 75); stroke-opacity: 1;"/><path class="xerror" d="M98.16,111.29v8m0,-4H84.58m0,-4v8" style="vector-effect: non-scaling-stroke; stroke-width: 2px; stroke: rgb(140, 86, 75); stroke-opacity: 1;"/></g><g class="errorbar"><path class="yerror" d="M92.51,120.23h8m-4,0V139.26m-4,0h8" style="vector-effect: non-scaling-stroke; stroke-width: 2px; stroke: rgb(140, 86, 75); stroke-opacity: 1;"/><path class="xerror" d="M103.3,125.75v8m0,-4H89.73m0,-4v8" style="vector-effect: non-scaling-stroke; stroke-width: 2px; stroke: rgb(140, 86, 75); stroke-opacity: 1;"/></g><g class="errorbar"><path class="yerror" d="M133.83,105.33h8m-4,0V108.39m-4,0h8" style="vector-effect: non-scaling-stroke; stroke-width: 2px; stroke: rgb(140, 86, 75); stroke-opacity: 1;"/><path class="xerror" d="M144.62,102.86v8m0,-4H131.04m0,-4v8" style="vector-effect: non-scaling-stroke; stroke-width: 2px; stroke: rgb(140, 86, 75); stroke-opacity: 1;"/></g><g class="errorbar"><path class="yerror" d="M140.69,94.37h8m-4,0V100.38m-4,0h8" style="vector-effect: non-scaling-stroke; stroke-width: 2px; stroke: rgb(140, 86, 75); stroke-opacity: 1;"/><path class="xerror" d="M151.47,93.38v8m0,-4H137.9m0,-4v8" style="vector-effect: non-scaling-stroke; stroke-width: 2px; stroke: rgb(140, 86, 75); stroke-opacity: 1;"/></g><g class="errorbar"><path class="yerror" d="M152.34,92.99h8m-4,0V97.57m-4,0h8" style="vector-effect: non-scaling-stroke; stroke-width: 2px; stroke: rgb(140, 86, 75); stroke-opacity: 1;"/><path class="xerror" d="M163.13,91.28v8m0,-4H149.55m0,-4v8" style="vector-effect: non-scaling-stroke; stroke-width: 2px; stroke: rgb(140, 86, 75); stroke-opacity: 1;"/></g><g class="errorbar"><path class="yerror" d="M141.89,85.58h8m-4,0V92.51m-4,0h8" style="vector-effect: non-scaling-stroke; stroke-width: 2px; stroke: rgb(140, 86, 75); stroke-opacity: 1;"/><path class="xerror" d="M152.67,85.05v8m0,-4H139.1m0,-4v8" style="vector-effect: non-scaling-stroke; stroke-width: 2px; stroke: rgb(140, 86, 75); stroke-opacity: 1;"/></g><g class="errorbar"><path class="yerror" d="M143.94,58.17h8m-4,0V69.33m-4,0h8" style="vector-effect: non-scaling-stroke; stroke-width: 2px; stroke: rgb(140, 86, 75); stroke-opacity: 1;"/><path class="xerror" d="M154.73,59.75v8m0,-4H141.15m0,-4v8" style="vector-effect: non-scaling-stroke; stroke-width: 2px; stroke: rgb(140, 86, 75); stroke-opacity: 1;"/></g><g class="errorbar"><path class="yerror" d="M164.69,84.9h8m-4,0V92.04m-4,0h8" style="vector-effect: non-scaling-stroke; stroke-width: 2px; stroke: rgb(140, 86, 75); stroke-opacity: 1;"/><path class="xerror" d="M175.47,84.47v8m0,-4H161.9m0,-4v8" style="vector-effect: non-scaling-stroke; stroke-width: 2px; stroke: rgb(140, 86, 75); stroke-opacity: 1;"/></g><g class="errorbar"><path class="yerror" d="M153.2,84.43h8m-4,0V116.4m-4,0h8" style="vector-effect: non-scaling-stroke; stroke-width: 2px; stroke: rgb(140, 86, 75); stroke-opacity: 1;"/><path class="xerror" d="M163.99,96.41v8m0,-4H150.41m0,-4v8" style="vector-effect: non-scaling-stroke; stroke-width: 2px; stroke: rgb(140, 86, 75); stroke-opacity: 1;"/></g><g class="errorbar"><path class="yerror" d="M135.37,125.38h8m-4,0V138.73m-4,0h8" style="vector-effect: non-scaling-stroke; stroke-width: 2px; stroke: rgb(140, 86, 75); stroke-opacity: 1;"/><path class="xerror" d="M146.16,128.05v8m0,-4H132.58m0,-4v8" style="vector-effect: non-scaling-stroke; stroke-width: 2px; stroke: rgb(140, 86, 75); stroke-opacity: 1;"/></g><g class="errorbar"><path class="yerror" d="M91.49,96.04h8m-4,0V100.8m-4,0h8" style="vector-effect: non-scaling-stroke; stroke-width: 2px; stroke: rgb(140, 86, 75); stroke-opacity: 1;"/><path class="xerror" d="M102.27,94.42v8m0,-4H88.7m0,-4v8" style="vector-effect: non-scaling-stroke; stroke-width: 2px; stroke: rgb(140, 86, 75); stroke-opacity: 1;"/></g><g class="errorbar"><path class="yerror" d="M166.06,34.93h8m-4,0V141.07m-4,0h8" style="vector-effect: non-scaling-stroke; stroke-width: 2px; stroke: rgb(140, 86, 75); stroke-opacity: 1;"/><path class="xerror" d="M176.85,84v8m0,-4H163.27m0,-4v8" style="vector-effect: non-scaling-stroke; stroke-width: 2px; stroke: rgb(140, 86, 75); stroke-opacity: 1;"/></g><g class="errorbar"><path class="yerror" d="M105.03,96.74h8m-4,0V104.09m-4,0h8" style="vector-effect: non-scaling-stroke; stroke-width: 2px; stroke: rgb(140, 86, 75); stroke-opacity: 1;"/><path class="xerror" d="M115.82,96.41v8m0,-4H102.24m0,-4v8" style="vector-effect: non-scaling-stroke; stroke-width: 2px; stroke: rgb(140, 86, 75); stroke-opacity: 1;"/></g><g class="errorbar"><path class="yerror" d="M114.63,128.45h8m-4,0V153.67m-4,0h8" style="vector-effect: non-scaling-stroke; stroke-width: 2px; stroke: rgb(140, 86, 75); stroke-opacity: 1;"/><path class="xerror" d="M125.42,137.06v8m0,-4H111.84m0,-4v8" style="vector-effect: non-scaling-stroke; stroke-width: 2px; stroke: rgb(140, 86, 75); stroke-opacity: 1;"/></g><g class="errorbar"><path class="yerror" d="M121.83,128.85h8m-4,0V135.57m-4,0h8" style="vector-effect: non-scaling-stroke; stroke-width: 2px; stroke: rgb(140, 86, 75); stroke-opacity: 1;"/><path class="xerror" d="M132.62,128.21v8m0,-4H119.04m0,-4v8" style="vector-effect: non-scaling-stroke; stroke-width: 2px; stroke: rgb(140, 86, 75); stroke-opacity: 1;"/></g><g class="errorbar"><path class="yerror" d="M153.03,106.7h8m-4,0V109.95m-4,0h8" style="vector-effect: non-scaling-stroke; stroke-width: 2px; stroke: rgb(140, 86, 75); stroke-opacity: 1;"/><path class="xerror" d="M163.82,104.32v8m0,-4H150.24m0,-4v8" style="vector-effect: non-scaling-stroke; stroke-width: 2px; stroke: rgb(140, 86, 75); stroke-opacity: 1;"/></g><g class="errorbar"><path class="yerror" d="M91.14,94.78h8m-4,0V107.52m-4,0h8" style="vector-effect: non-scaling-stroke; stroke-width: 2px; stroke: rgb(140, 86, 75); stroke-opacity: 1;"/><path class="xerror" d="M101.93,97.15v8m0,-4H88.35m0,-4v8" style="vector-effect: non-scaling-stroke; stroke-width: 2px; stroke: rgb(140, 86, 75); stroke-opacity: 1;"/></g><g class="errorbar"><path class="yerror" d="M91.66,71.4h8m-4,0V100.2m-4,0h8" style="vector-effect: non-scaling-stroke; stroke-width: 2px; stroke: rgb(140, 86, 75); stroke-opacity: 1;"/><path class="xerror" d="M102.45,81.8v8m0,-4H88.87m0,-4v8" style="vector-effect: non-scaling-stroke; stroke-width: 2px; stroke: rgb(140, 86, 75); stroke-opacity: 1;"/></g><g class="errorbar"><path class="yerror" d="M88.4,86.45h8m-4,0V105.57m-4,0h8" style="vector-effect: non-scaling-stroke; stroke-width: 2px; stroke: rgb(140, 86, 75); stroke-opacity: 1;"/><path class="xerror" d="M99.19,92.01v8m0,-4H85.61m0,-4v8" style="vector-effect: non-scaling-stroke; stroke-width: 2px; stroke: rgb(140, 86, 75); stroke-opacity: 1;"/></g><g class="errorbar"><path class="yerror" d="M80.34,104.53h8m-4,0V129.62m-4,0h8" style="vector-effect: non-scaling-stroke; stroke-width: 2px; stroke: rgb(140, 86, 75); stroke-opacity: 1;"/><path class="xerror" d="M91.13,113.07v8m0,-4H77.55m0,-4v8" style="vector-effect: non-scaling-stroke; stroke-width: 2px; stroke: rgb(140, 86, 75); stroke-opacity: 1;"/></g><g class="errorbar"><path class="yerror" d="M80.86,92.03h8m-4,0V98.95m-4,0h8" style="vector-effect: non-scaling-stroke; stroke-width: 2px; stroke: rgb(140, 86, 75); stroke-opacity: 1;"/><path class="xerror" d="M91.65,91.49v8m0,-4H78.07m0,-4v8" style="vector-effect: non-scaling-stroke; stroke-width: 2px; stroke: rgb(140, 86, 75); stroke-opacity: 1;"/></g><g class="errorbar"><path class="yerror" d="M104.34,83.07h8m-4,0V90.94m-4,0h8" style="vector-effect: non-scaling-stroke; stroke-width: 2px; stroke: rgb(140, 86, 75); stroke-opacity: 1;"/><path class="xerror" d="M115.13,83v8m0,-4H101.55m0,-4v8" style="vector-effect: non-scaling-stroke; stroke-width: 2px; stroke: rgb(140, 86, 75); stroke-opacity: 1;"/></g><g class="errorbar"><path class="yerror" d="M86.34,99.35h8m-4,0V109.02m-4,0h8" style="vector-effect: non-scaling-stroke; stroke-width: 2px; stroke: rgb(140, 86, 75); stroke-opacity: 1;"/><path class="xerror" d="M97.13,100.19v8m0,-4H83.55m0,-4v8" style="vector-effect: non-scaling-stroke; stroke-width: 2px; stroke: rgb(140, 86, 75); stroke-opacity: 1;"/></g><g class="errorbar"><path class="yerror" d="M64.91,114.42h8m-4,0V132.82m-4,0h8" style="vector-effect: non-scaling-stroke; stroke-width: 2px; stroke: rgb(140, 86, 75); stroke-opacity: 1;"/><path class="xerror" d="M75.7,119.62v8m0,-4H62.13m0,-4v8" style="vector-effect: non-scaling-stroke; stroke-width: 2px; stroke: rgb(140, 86, 75); stroke-opacity: 1;"/></g><g class="errorbar"><path class="yerror" d="M78.8,133.98h8m-4,0V170.24m-4,0h8" style="vector-effect: non-scaling-stroke; stroke-width: 2px; stroke: rgb(140, 86, 75); stroke-opacity: 1;"/><path class="xerror" d="M89.59,148.11v8m0,-4H76.01m0,-4v8" style="vector-effect: non-scaling-stroke; stroke-width: 2px; stroke: rgb(140, 86, 75); stroke-opacity: 1;"/></g><g class="errorbar"><path class="yerror" d="M66.97,144.79h8m-4,0V167.09m-4,0h8" style="vector-effect: non-scaling-stroke; stroke-width: 2px; stroke: rgb(140, 86, 75); stroke-opacity: 1;"/><path class="xerror" d="M77.76,151.94v8m0,-4H64.18m0,-4v8" style="vector-effect: non-scaling-stroke; stroke-width: 2px; stroke: rgb(140, 86, 75); stroke-opacity: 1;"/></g><g class="errorbar"><path class="yerror" d="M69.89,172.31h8m-4,0V178.86m-4,0h8" style="vector-effect: non-scaling-stroke; stroke-width: 2px; stroke: rgb(140, 86, 75); stroke-opacity: 1;"/><path class="xerror" d="M80.67,171.58v8m0,-4H67.1m0,-4v8" style="vector-effect: non-scaling-stroke; stroke-width: 2px; stroke: rgb(140, 86, 75); stroke-opacity: 1;"/></g><g class="errorbar"><path class="yerror" d="M90.11,65.02h8m-4,0V93.38m-4,0h8" style="vector-effect: non-scaling-stroke; stroke-width: 2px; stroke: rgb(140, 86, 75); stroke-opacity: 1;"/><path class="xerror" d="M100.9,75.2v8m0,-4H87.33m0,-4v8" style="vector-effect: non-scaling-stroke; stroke-width: 2px; stroke: rgb(140, 86, 75); stroke-opacity: 1;"/></g><g class="errorbar"><path class="yerror" d="M76.23,118.52h8m-4,0V135.21m-4,0h8" style="vector-effect: non-scaling-stroke; stroke-width: 2px; stroke: rgb(140, 86, 75); stroke-opacity: 1;"/><path class="xerror" d="M87.02,122.87v8m0,-4H73.44m0,-4v8" style="vector-effect: non-scaling-stroke; stroke-width: 2px; stroke: rgb(140, 86, 75); stroke-opacity: 1;"/></g><g class="errorbar"><path class="yerror" d="M84.8,110.08h8m-4,0V130.03m-4,0h8" style="vector-effect: non-scaling-stroke; stroke-width: 2px; stroke: rgb(140, 86, 75); stroke-opacity: 1;"/><path class="xerror" d="M95.59,116.06v8m0,-4H82.01m0,-4v8" style="vector-effect: non-scaling-stroke; stroke-width: 2px; stroke: rgb(140, 86, 75); stroke-opacity: 1;"/></g></g><g class="lines"/><g class="points"><path class="point" transform="translate(115.71,167.3)" d="M1.5,0A1.5,1.5 0 1,1 0,-1.5A1.5,1.5 0 0,1 1.5,0Z" style="opacity: 1; stroke-width: 0px; fill: rgb(140, 86, 75); fill-opacity: 1;"/><path class="point" transform="translate(115.03,145.1)" d="M1.5,0A1.5,1.5 0 1,1 0,-1.5A1.5,1.5 0 0,1 1.5,0Z" style="opacity: 1; stroke-width: 0px; fill: rgb(140, 86, 75); fill-opacity: 1;"/><path class="point" transform="translate(83.66,104.81)" d="M1.5,0A1.5,1.5 0 1,1 0,-1.5A1.5,1.5 0 0,1 1.5,0Z" style="opacity: 1; stroke-width: 0px; fill: rgb(140, 86, 75); fill-opacity: 1;"/><path class="point" transform="translate(152.91,118.59)" d="M1.5,0A1.5,1.5 0 1,1 0,-1.5A1.5,1.5 0 0,1 1.5,0Z" style="opacity: 1; stroke-width: 0px; fill: rgb(140, 86, 75); fill-opacity: 1;"/><path class="point" transform="translate(147.77,108.53)" d="M1.5,0A1.5,1.5 0 1,1 0,-1.5A1.5,1.5 0 0,1 1.5,0Z" style="opacity: 1; stroke-width: 0px; fill: rgb(140, 86, 75); fill-opacity: 1;"/><path class="point" transform="translate(114.51,146.56)" d="M1.5,0A1.5,1.5 0 1,1 0,-1.5A1.5,1.5 0 0,1 1.5,0Z" style="opacity: 1; stroke-width: 0px; fill: rgb(140, 86, 75); fill-opacity: 1;"/><path class="point" transform="translate(173.66,128.33)" d="M1.5,0A1.5,1.5 0 1,1 0,-1.5A1.5,1.5 0 0,1 1.5,0Z" style="opacity: 1; stroke-width: 0px; fill: rgb(140, 86, 75); fill-opacity: 1;"/><path class="point" transform="translate(108.34,101.04)" d="M1.5,0A1.5,1.5 0 1,1 0,-1.5A1.5,1.5 0 0,1 1.5,0Z" style="opacity: 1; stroke-width: 0px; fill: rgb(140, 86, 75); fill-opacity: 1;"/><path class="point" transform="translate(194.57,80.51)" d="M1.5,0A1.5,1.5 0 1,1 0,-1.5A1.5,1.5 0 0,1 1.5,0Z" style="opacity: 1; stroke-width: 0px; fill: rgb(140, 86, 75); fill-opacity: 1;"/><path class="point" transform="translate(143.31,94.29)" d="M1.5,0A1.5,1.5 0 1,1 0,-1.5A1.5,1.5 0 0,1 1.5,0Z" style="opacity: 1; stroke-width: 0px; fill: rgb(140, 86, 75); fill-opacity: 1;"/><path class="point" transform="translate(114.86,83.55)" d="M1.5,0A1.5,1.5 0 1,1 0,-1.5A1.5,1.5 0 0,1 1.5,0Z" style="opacity: 1; stroke-width: 0px; fill: rgb(140, 86, 75); fill-opacity: 1;"/><path class="point" transform="translate(150.86,97.9)" d="M1.5,0A1.5,1.5 0 1,1 0,-1.5A1.5,1.5 0 0,1 1.5,0Z" style="opacity: 1; stroke-width: 0px; fill: rgb(140, 86, 75); fill-opacity: 1;"/><path class="point" transform="translate(145.71,83.65)" d="M1.5,0A1.5,1.5 0 1,1 0,-1.5A1.5,1.5 0 0,1 1.5,0Z" style="opacity: 1; stroke-width: 0px; fill: rgb(140, 86, 75); fill-opacity: 1;"/><path class="point" transform="translate(171.6,109.06)" d="M1.5,0A1.5,1.5 0 1,1 0,-1.5A1.5,1.5 0 0,1 1.5,0Z" style="opacity: 1; stroke-width: 0px; fill: rgb(140, 86, 75); fill-opacity: 1;"/><path class="point" transform="translate(119.31,89.31)" d="M1.5,0A1.5,1.5 0 1,1 0,-1.5A1.5,1.5 0 0,1 1.5,0Z" style="opacity: 1; stroke-width: 0px; fill: rgb(140, 86, 75); fill-opacity: 1;"/><path class="point" transform="translate(129.26,107.12)" d="M1.5,0A1.5,1.5 0 1,1 0,-1.5A1.5,1.5 0 0,1 1.5,0Z" style="opacity: 1; stroke-width: 0px; fill: rgb(140, 86, 75); fill-opacity: 1;"/><path class="point" transform="translate(88.29,96.01)" d="M1.5,0A1.5,1.5 0 1,1 0,-1.5A1.5,1.5 0 0,1 1.5,0Z" style="opacity: 1; stroke-width: 0px; fill: rgb(140, 86, 75); fill-opacity: 1;"/><path class="point" transform="translate(131.83,115.76)" d="M1.5,0A1.5,1.5 0 1,1 0,-1.5A1.5,1.5 0 0,1 1.5,0Z" style="opacity: 1; stroke-width: 0px; fill: rgb(140, 86, 75); fill-opacity: 1;"/><path class="point" transform="translate(116.91,77)" d="M1.5,0A1.5,1.5 0 1,1 0,-1.5A1.5,1.5 0 0,1 1.5,0Z" style="opacity: 1; stroke-width: 0px; fill: rgb(140, 86, 75); fill-opacity: 1;"/><path class="point" transform="translate(152.23,106.33)" d="M1.5,0A1.5,1.5 0 1,1 0,-1.5A1.5,1.5 0 0,1 1.5,0Z" style="opacity: 1; stroke-width: 0px; fill: rgb(140, 86, 75); fill-opacity: 1;"/><path class="point" transform="translate(89.83,84.96)" d="M1.5,0A1.5,1.5 0 1,1 0,-1.5A1.5,1.5 0 0,1 1.5,0Z" style="opacity: 1; stroke-width: 0px; fill: rgb(140, 86, 75); fill-opacity: 1;"/><path class="point" transform="translate(96.51,116.23)" d="M1.5,0A1.5,1.5 0 1,1 0,-1.5A1.5,1.5 0 0,1 1.5,0Z" style="opacity: 1; stroke-width: 0px; fill: rgb(140, 86, 75); fill-opacity: 1;"/><path class="point" transform="translate(109.54,107.7)" d="M1.5,0A1.5,1.5 0 1,1 0,-1.5A1.5,1.5 0 0,1 1.5,0Z" style="opacity: 1; stroke-width: 0px; fill: rgb(140, 86, 75); fill-opacity: 1;"/><path class="point" transform="translate(79.03,64.85)" d="M1.5,0A1.5,1.5 0 1,1 0,-1.5A1.5,1.5 0 0,1 1.5,0Z" style="opacity: 1; stroke-width: 0px; fill: rgb(140, 86, 75); fill-opacity: 1;"/><path class="point" transform="translate(88.97,86.74)" d="M1.5,0A1.5,1.5 0 1,1 0,-1.5A1.5,1.5 0 0,1 1.5,0Z" style="opacity: 1; stroke-width: 0px; fill: rgb(140, 86, 75); fill-opacity: 1;"/><path class="point" transform="translate(151.89,107.8)" d="M1.5,0A1.5,1.5 0 1,1 0,-1.5A1.5,1.5 0 0,1 1.5,0Z" style="opacity: 1; stroke-width: 0px; fill: rgb(140, 86, 75); fill-opacity: 1;"/><path class="point" transform="translate(95.31,161.18)" d="M1.5,0A1.5,1.5 0 1,1 0,-1.5A1.5,1.5 0 0,1 1.5,0Z" style="opacity: 1; stroke-width: 0px; fill: rgb(140, 86, 75); fill-opacity: 1;"/><path class="point" transform="translate(90.17,108.69)" d="M1.5,0A1.5,1.5 0 1,1 0,-1.5A1.5,1.5 0 0,1 1.5,0Z" style="opacity: 1; stroke-width: 0px; fill: rgb(140, 86, 75); fill-opacity: 1;"/><path class="point" transform="translate(89.49,101.62)" d="M1.5,0A1.5,1.5 0 1,1 0,-1.5A1.5,1.5 0 0,1 1.5,0Z" style="opacity: 1; stroke-width: 0px; fill: rgb(140, 86, 75); fill-opacity: 1;"/><path class="point" transform="translate(91.37,115.29)" d="M1.5,0A1.5,1.5 0 1,1 0,-1.5A1.5,1.5 0 0,1 1.5,0Z" style="opacity: 1; stroke-width: 0px; fill: rgb(140, 86, 75); fill-opacity: 1;"/><path class="point" transform="translate(96.51,129.75)" d="M1.5,0A1.5,1.5 0 1,1 0,-1.5A1.5,1.5 0 0,1 1.5,0Z" style="opacity: 1; stroke-width: 0px; fill: rgb(140, 86, 75); fill-opacity: 1;"/><path class="point" transform="translate(137.83,106.86)" d="M1.5,0A1.5,1.5 0 1,1 0,-1.5A1.5,1.5 0 0,1 1.5,0Z" style="opacity: 1; stroke-width: 0px; fill: rgb(140, 86, 75); fill-opacity: 1;"/><path class="point" transform="translate(144.69,97.38)" d="M1.5,0A1.5,1.5 0 1,1 0,-1.5A1.5,1.5 0 0,1 1.5,0Z" style="opacity: 1; stroke-width: 0px; fill: rgb(140, 86, 75); fill-opacity: 1;"/><path class="point" transform="translate(156.34,95.28)" d="M1.5,0A1.5,1.5 0 1,1 0,-1.5A1.5,1.5 0 0,1 1.5,0Z" style="opacity: 1; stroke-width: 0px; fill: rgb(140, 86, 75); fill-opacity: 1;"/><path class="point" transform="translate(145.89,89.05)" d="M1.5,0A1.5,1.5 0 1,1 0,-1.5A1.5,1.5 0 0,1 1.5,0Z" style="opacity: 1; stroke-width: 0px; fill: rgb(140, 86, 75); fill-opacity: 1;"/><path class="point" transform="translate(147.94,63.75)" d="M1.5,0A1.5,1.5 0 1,1 0,-1.5A1.5,1.5 0 0,1 1.5,0Z" style="opacity: 1; stroke-width: 0px; fill: rgb(140, 86, 75); fill-opacity: 1;"/><path class="point" transform="translate(168.69,88.47)" d="M1.5,0A1.5,1.5 0 1,1 0,-1.5A1.5,1.5 0 0,1 1.5,0Z" style="opacity: 1; stroke-width: 0px; fill: rgb(140, 86, 75); fill-opacity: 1;"/><path class="point" transform="translate(157.2,100.41)" d="M1.5,0A1.5,1.5 0 1,1 0,-1.5A1.5,1.5 0 0,1 1.5,0Z" style="opacity: 1; stroke-width: 0px; fill: rgb(140, 86, 75); fill-opacity: 1;"/><path class="point" transform="translate(139.37,132.05)" d="M1.5,0A1.5,1.5 0 1,1 0,-1.5A1.5,1.5 0 0,1 1.5,0Z" style="opacity: 1; stroke-width: 0px; fill: rgb(140, 86, 75); fill-opacity: 1;"/><path class="point" transform="translate(95.49,98.42)" d="M1.5,0A1.5,1.5 0 1,1 0,-1.5A1.5,1.5 0 0,1 1.5,0Z" style="opacity: 1; stroke-width: 0px; fill: rgb(140, 86, 75); fill-opacity: 1;"/><path class="point" transform="translate(170.06,88)" d="M1.5,0A1.5,1.5 0 1,1 0,-1.5A1.5,1.5 0 0,1 1.5,0Z" style="opacity: 1; stroke-width: 0px; fill: rgb(140, 86, 75); fill-opacity: 1;"/><path class="point" transform="translate(109.03,100.41)" d="M1.5,0A1.5,1.5 0 1,1 0,-1.5A1.5,1.5 0 0,1 1.5,0Z" style="opacity: 1; stroke-width: 0px; fill: rgb(140, 86, 75); fill-opacity: 1;"/><path class="point" transform="translate(118.63,141.06)" d="M1.5,0A1.5,1.5 0 1,1 0,-1.5A1.5,1.5 0 0,1 1.5,0Z" style="opacity: 1; stroke-width: 0px; fill: rgb(140, 86, 75); fill-opacity: 1;"/><path class="point" transform="translate(125.83,132.21)" d="M1.5,0A1.5,1.5 0 1,1 0,-1.5A1.5,1.5 0 0,1 1.5,0Z" style="opacity: 1; stroke-width: 0px; fill: rgb(140, 86, 75); fill-opacity: 1;"/><path class="point" transform="translate(157.03,108.32)" d="M1.5,0A1.5,1.5 0 1,1 0,-1.5A1.5,1.5 0 0,1 1.5,0Z" style="opacity: 1; stroke-width: 0px; fill: rgb(140, 86, 75); fill-opacity: 1;"/><path class="point" transform="translate(95.14,101.15)" d="M1.5,0A1.5,1.5 0 1,1 0,-1.5A1.5,1.5 0 0,1 1.5,0Z" style="opacity: 1; stroke-width: 0px; fill: rgb(140, 86, 75); fill-opacity: 1;"/><path class="point" transform="translate(95.66,85.8)" d="M1.5,0A1.5,1.5 0 1,1 0,-1.5A1.5,1.5 0 0,1 1.5,0Z" style="opacity: 1; stroke-width: 0px; fill: rgb(140, 86, 75); fill-opacity: 1;"/><path class="point" transform="translate(92.4,96.01)" d="M1.5,0A1.5,1.5 0 1,1 0,-1.5A1.5,1.5 0 0,1 1.5,0Z" style="opacity: 1; stroke-width: 0px; fill: rgb(140, 86, 75); fill-opacity: 1;"/><path class="point" transform="translate(84.34,117.07)" d="M1.5,0A1.5,1.5 0 1,1 0,-1.5A1.5,1.5 0 0,1 1.5,0Z" style="opacity: 1; stroke-width: 0px; fill: rgb(140, 86, 75); fill-opacity: 1;"/><path class="point" transform="translate(84.86,95.49)" d="M1.5,0A1.5,1.5 0 1,1 0,-1.5A1.5,1.5 0 0,1 1.5,0Z" style="opacity: 1; stroke-width: 0px; fill: rgb(140, 86, 75); fill-opacity: 1;"/><path class="point" transform="translate(108.34,87)" d="M1.5,0A1.5,1.5 0 1,1 0,-1.5A1.5,1.5 0 0,1 1.5,0Z" style="opacity: 1; stroke-width: 0px; fill: rgb(140, 86, 75); fill-opacity: 1;"/><path class="point" transform="translate(90.34,104.19)" d="M1.5,0A1.5,1.5 0 1,1 0,-1.5A1.5,1.5 0 0,1 1.5,0Z" style="opacity: 1; stroke-width: 0px; fill: rgb(140, 86, 75); fill-opacity: 1;"/><path class="point" transform="translate(68.91,123.62)" d="M1.5,0A1.5,1.5 0 1,1 0,-1.5A1.5,1.5 0 0,1 1.5,0Z" style="opacity: 1; stroke-width: 0px; fill: rgb(140, 86, 75); fill-opacity: 1;"/><path class="point" transform="translate(82.8,152.11)" d="M1.5,0A1.5,1.5 0 1,1 0,-1.5A1.5,1.5 0 0,1 1.5,0Z" style="opacity: 1; stroke-width: 0px; fill: rgb(140, 86, 75); fill-opacity: 1;"/><path class="point" transform="translate(70.97,155.94)" d="M1.5,0A1.5,1.5 0 1,1 0,-1.5A1.5,1.5 0 0,1 1.5,0Z" style="opacity: 1; stroke-width: 0px; fill: rgb(140, 86, 75); fill-opacity: 1;"/><path class="point" transform="translate(73.89,175.58)" d="M1.5,0A1.5,1.5 0 1,1 0,-1.5A1.5,1.5 0 0,1 1.5,0Z" style="opacity: 1; stroke-width: 0px; fill: rgb(140, 86, 75); fill-opacity: 1;"/><path class="point" transform="translate(94.11,79.2)" d="M1.5,0A1.5,1.5 0 1,1 0,-1.5A1.5,1.5 0 0,1 1.5,0Z" style="opacity: 1; stroke-width: 0px; fill: rgb(140, 86, 75); fill-opacity: 1;"/><path class="point" transform="translate(80.23,126.87)" d="M1.5,0A1.5,1.5 0 1,1 0,-1.5A1.5,1.5 0 0,1 1.5,0Z" style="opacity: 1; stroke-width: 0px; fill: rgb(140, 86, 75); fill-opacity: 1;"/><path class="point" transform="translate(88.8,120.06)" d="M1.5,0A1.5,1.5 0 1,1 0,-1.5A1.5,1.5 0 0,1 1.5,0Z" style="opacity: 1; stroke-width: 0px; fill: rgb(140, 86, 75); fill-opacity: 1;"/></g><g class="text"/></g></g></g><g class="overplot"/><path class="xlines-above crisp" d="M79,320.5H320" style="fill: none; stroke-width: 1px; stroke: rgb(36, 36, 36); stroke-opacity: 1;"/><path class="ylines-above crisp" d="M79.5,100V320" style="fill: none; stroke-width: 1px; stroke: rgb(36, 36, 36); stroke-opacity: 1;"/><g class="overlines-above"/><g class="xaxislayer-above"><path class="xtick ticks crisp" d="M0,321v5" transform="translate(114.28999999999999,0)" style="stroke: rgb(68, 68, 68); stroke-opacity: 1; stroke-width: 1px;"/><path class="xtick ticks crisp" d="M0,321v5" transform="translate(200,0)" style="stroke: rgb(68, 68, 68); stroke-opacity: 1; stroke-width: 1px;"/><path class="xtick ticks crisp" d="M0,321v5" transform="translate(285.71000000000004,0)" style="stroke: rgb(68, 68, 68); stroke-opacity: 1; stroke-width: 1px;"/><g class="xtick"><text text-anchor="middle" x="0" y="340.4" transform="translate(114.28999999999999,0)" style="font-family: 'Open Sans', verdana, arial, sans-serif; font-size: 12px; fill: rgb(36, 36, 36); fill-opacity: 1; white-space: pre; opacity: 1;">−5</text></g><g class="xtick"><text text-anchor="middle" x="0" y="340.4" style="font-family: 'Open Sans', verdana, arial, sans-serif; font-size: 12px; fill: rgb(36, 36, 36); fill-opacity: 1; white-space: pre; opacity: 1;" transform="translate(200,0)">0</text></g><g class="xtick"><text text-anchor="middle" x="0" y="340.4" style="font-family: 'Open Sans', verdana, arial, sans-serif; font-size: 12px; fill: rgb(36, 36, 36); fill-opacity: 1; white-space: pre; opacity: 1;" transform="translate(285.71000000000004,0)">5</text></g></g><g class="yaxislayer-above"><path class="ytick ticks crisp" d="M79,0h-5" transform="translate(0,288.57)" style="stroke: rgb(68, 68, 68); stroke-opacity: 1; stroke-width: 1px;"/><path class="ytick ticks crisp" d="M79,0h-5" transform="translate(0,210)" style="stroke: rgb(68, 68, 68); stroke-opacity: 1; stroke-width: 1px;"/><path class="ytick ticks crisp" d="M79,0h-5" transform="translate(0,131.43)" style="stroke: rgb(68, 68, 68); stroke-opacity: 1; stroke-width: 1px;"/><g class="ytick"><text text-anchor="end" x="71.6" y="4.199999999999999" transform="translate(0,288.57)" style="font-family: 'Open Sans', verdana, arial, sans-serif; font-size: 12px; fill: rgb(36, 36, 36); fill-opacity: 1; white-space: pre; opacity: 1;">−5</text></g><g class="ytick"><text text-anchor="end" x="71.6" y="4.199999999999999" style="font-family: 'Open Sans', verdana, arial, sans-serif; font-size: 12px; fill: rgb(36, 36, 36); fill-opacity: 1; white-space: pre; opacity: 1;" transform="translate(0,210)">0</text></g><g class="ytick"><text text-anchor="end" x="71.6" y="4.199999999999999" style="font-family: 'Open Sans', verdana, arial, sans-serif; font-size: 12px; fill: rgb(36, 36, 36); fill-opacity: 1; white-space: pre; opacity: 1;" transform="translate(0,131.43)">5</text></g></g><g class="overaxes-above"/></g></g><g class="polarlayer"/><g class="smithlayer"/><g class="ternarylayer"/><g class="geolayer"/><g class="funnelarealayer"/><g class="pielayer"/><g class="iciclelayer"/><g class="treemaplayer"/><g class="sunburstlayer"/><g class="glimages"/><defs id="topdefs-ab43f2"><g class="clips"/></defs><g class="layer-above"><g class="imagelayer"/><g class="shapelayer"/></g><g class="infolayer"><g class="g-gtitle"><text class="gtitle" x="80" y="40" text-anchor="start" dy="0.7em" style="font-family: 'Open Sans', verdana, arial, sans-serif; font-size: 12px; fill: rgb(36, 36, 36); opacity: 1; font-weight: normal; white-space: pre;"><tspan class="line" dy="0em" x="80" y="40">pde10 (N = 59)</tspan><tspan class="line" dy="1.3em" x="80" y="40">RMSE: 2.09 [95%:  1.80,  2.40]</tspan><tspan class="line" dy="2.6em" x="80" y="40">MUE:  1.76 [95%:  1.55,  2.07]</tspan></text></g><g class="g-xtitle"><text class="xtitle" x="200" y="369.20625" text-anchor="middle" style="font-family: 'Open Sans', verdana, arial, sans-serif; font-size: 14px; fill: rgb(36, 36, 36); opacity: 1; font-weight: normal; white-space: pre;">DDG Exp. [kcal/mol]</text></g><g class="g-ytitle"><text class="ytitle" transform="rotate(-90,33.075,210)" x="33.075" y="210" text-anchor="middle" style="font-family: 'Open Sans', verdana, arial, sans-serif; font-size: 14px; fill: rgb(36, 36, 36); opacity: 1; font-weight: normal; white-space: pre;">DDG CGenFF/MATCH* [kcal/mol]</text></g></g></svg>