<svg class="main-svg" xmlns="http://www.w3.org/2000/svg" xmlns:xlink="http://www.w3.org/1999/xlink" width="400" height="400" style="" viewBox="0 0 400 400"><rect x="0" y="0" width="400" height="400" style="fill: rgb(255, 255, 255); fill-opacity: 1;"/><defs id="defs-0d7993"><g class="clips"><clipPath id="clip0d7993xyplot" class="plotclip"><rect width="240" height="220"/></clipPath><clipPath class="axesclip" id="clip0d7993x"><rect x="80" y="0" width="240" height="400"/></clipPath><clipPath class="axesclip" id="clip0d7993y"><rect x="0" y="100" width="400" height="220"/></clipPath><clipPath class="axesclip" id="clip0d7993xy"><rect x="80" y="100" width="240" height="220"/></clipPath></g><g class="gradients"/><g class="patterns"/></defs><g class="bglayer"/><g class="layer-below"><g class="imagelayer"/><g class="shapelayer"/></g><g class="cartesianlayer"><g class="subplot xy"><g class="layer-subplot"><g class="shapelayer"/><g class="imagelayer"/></g><g class="gridlayer"><g class="x"/><g class="y"/></g><g class="zerolinelayer"/><path class="xlines-below"/><path class="ylines-below"/><g class="overlines-below"/><g class="xaxislayer-below"/><g class="yaxislayer-below"/><g class="overaxes-below"/><g class="plot" transform="translate(80,100)" clip-path="url(#clip0d7993xyplot)"><g class="scatterlayer mlayer"><g class="trace scatter trace8a2344" style="stroke-miterlimit: 2; opacity: 1;"><g class="fills"/><g class="errorbars"/><g class="lines"><path class="js-line" d="M120,220L120,0" style="vector-effect: non-scaling-stroke; fill: none; stroke: rgb(0, 0, 0); stroke-opacity: 1; stroke-width: 2px; opacity: 1;"/></g><g class="points"/><g class="text"/></g><g class="trace scatter traceeaae2b" style="stroke-miterlimit: 2; opacity: 1;"><g class="fills"/><g class="errorbars"/><g class="lines"><path class="js-line" d="M0,110L240,110" style="vector-effect: non-scaling-stroke; fill: none; stroke: rgb(0, 0, 0); stroke-opacity: 1; stroke-width: 2px; opacity: 1;"/></g><g class="points"/><g class="text"/></g><g class="trace scatter trace55966d" style="stroke-miterlimit: 2; opacity: 1;"><g class="fills"><g><path class="js-fill" d="M0,204.29L240,-15.71L240,15.71L0,235.71Z" style="fill: rgb(0, 0, 0); fill-opacity: 0.2; stroke-width: 0;"/></g></g><g class="errorbars"/><g class="lines"><path class="js-line" d="M0,204.29L240,-15.71L240,15.71L0,235.71" style="vector-effect: non-scaling-stroke; fill: none; stroke: rgb(44, 160, 44); stroke-opacity: 1; stroke-width: 0px; opacity: 1;"/></g><g class="points"/><g class="text"/></g><g class="trace scatter trace034396" style="stroke-miterlimit: 2; opacity: 1;"><g class="fills"><g><path class="js-fill" d="M0,212.14L240,-7.86L240,7.86L0,227.86Z" style="fill: rgb(0, 0, 0); fill-opacity: 0.2; stroke-width: 0;"/></g></g><g class="errorbars"/><g class="lines"><path class="js-line" d="M0,212.14L240,-7.86L240,7.86L0,227.86" style="vector-effect: non-scaling-stroke; fill: none; stroke: rgb(214, 39, 40); stroke-opacity: 1; stroke-width: 0px; opacity: 1;"/></g><g class="points"/><g class="text"/></g><g class="trace scatter tracee31175" style="stroke-miterlimit: 2; opacity: 1;"><g class="fills"/><g class="errorbars"/><g class="lines"><path class="js-line" d="M0,220L240,0" style="vector-effect: non-scaling-stroke; fill: none; stroke: rgb(0, 0, 0); stroke-opacity: 1; stroke-width: 2px; opacity: 1;"/></g><g class="points"/><g class="text"/></g><g class="trace scatter trace314601" style="stroke-miterlimit: 2; opacity: 1;"><g class="fills"/><g class="errorbars"><g class="errorbar"><path class="yerror" d="M140,84.34h8m-4,0V87.89m-4,0h8" style="vector-effect: non-scaling-stroke; stroke-width: 2px; stroke: rgb(140, 86, 75); stroke-opacity: 1;"/><path class="xerror" d="M150.79,82.11v8m0,-4H137.21m0,-4v8" style="vector-effect: non-scaling-stroke; stroke-width: 2px; stroke: rgb(140, 86, 75); stroke-opacity: 1;"/></g><g class="errorbar"><path class="yerror" d="M115.66,132.82h8m-4,0V137.78m-4,0h8" style="vector-effect: non-scaling-stroke; stroke-width: 2px; stroke: rgb(140, 86, 75); stroke-opacity: 1;"/><path class="xerror" d="M126.45,131.3v8m0,-4H112.87m0,-4v8" style="vector-effect: non-scaling-stroke; stroke-width: 2px; stroke: rgb(140, 86, 75); stroke-opacity: 1;"/></g><g class="errorbar"><path class="yerror" d="M99.71,122.28h8m-4,0V137.21m-4,0h8" style="vector-effect: non-scaling-stroke; stroke-width: 2px; stroke: rgb(140, 86, 75); stroke-opacity: 1;"/><path class="xerror" d="M110.5,125.75v8m0,-4H96.93m0,-4v8" style="vector-effect: non-scaling-stroke; stroke-width: 2px; stroke: rgb(140, 86, 75); stroke-opacity: 1;"/></g><g class="errorbar"><path class="yerror" d="M114.11,114h8m-4,0V122.66m-4,0h8" style="vector-effect: non-scaling-stroke; stroke-width: 2px; stroke: rgb(140, 86, 75); stroke-opacity: 1;"/><path class="xerror" d="M124.9,114.33v8m0,-4H111.33m0,-4v8" style="vector-effect: non-scaling-stroke; stroke-width: 2px; stroke: rgb(140, 86, 75); stroke-opacity: 1;"/></g><g class="errorbar"><path class="yerror" d="M102.63,130.99h8m-4,0V139.19m-4,0h8" style="vector-effect: non-scaling-stroke; stroke-width: 2px; stroke: rgb(140, 86, 75); stroke-opacity: 1;"/><path class="xerror" d="M113.42,131.09v8m0,-4H99.84m0,-4v8" style="vector-effect: non-scaling-stroke; stroke-width: 2px; stroke: rgb(140, 86, 75); stroke-opacity: 1;"/></g><g class="errorbar"><path class="yerror" d="M106.91,91.61h8m-4,0V109.43m-4,0h8" style="vector-effect: non-scaling-stroke; stroke-width: 2px; stroke: rgb(140, 86, 75); stroke-opacity: 1;"/><path class="xerror" d="M117.7,96.52v8m0,-4H104.13m0,-4v8" style="vector-effect: non-scaling-stroke; stroke-width: 2px; stroke: rgb(140, 86, 75); stroke-opacity: 1;"/></g><g class="errorbar"><path class="yerror" d="M86.69,108.75h8m-4,0V121.1m-4,0h8" style="vector-effect: non-scaling-stroke; stroke-width: 2px; stroke: rgb(140, 86, 75); stroke-opacity: 1;"/><path class="xerror" d="M97.47,110.92v8m0,-4H83.9m0,-4v8" style="vector-effect: non-scaling-stroke; stroke-width: 2px; stroke: rgb(140, 86, 75); stroke-opacity: 1;"/></g><g class="errorbar"><path class="yerror" d="M160.74,72.92h8m-4,0V77.73m-4,0h8" style="vector-effect: non-scaling-stroke; stroke-width: 2px; stroke: rgb(140, 86, 75); stroke-opacity: 1;"/><path class="xerror" d="M171.53,71.32v8m0,-4H157.95m0,-4v8" style="vector-effect: non-scaling-stroke; stroke-width: 2px; stroke: rgb(140, 86, 75); stroke-opacity: 1;"/></g><g class="errorbar"><path class="yerror" d="M129.89,103.61h8m-4,0V108.22m-4,0h8" style="vector-effect: non-scaling-stroke; stroke-width: 2px; stroke: rgb(140, 86, 75); stroke-opacity: 1;"/><path class="xerror" d="M140.67,101.91v8m0,-4H127.1m0,-4v8" style="vector-effect: non-scaling-stroke; stroke-width: 2px; stroke: rgb(140, 86, 75); stroke-opacity: 1;"/></g><g class="errorbar"><path class="yerror" d="M113.94,103.39h8m-4,0V110.53m-4,0h8" style="vector-effect: non-scaling-stroke; stroke-width: 2px; stroke: rgb(140, 86, 75); stroke-opacity: 1;"/><path class="xerror" d="M124.73,102.96v8m0,-4H111.15m0,-4v8" style="vector-effect: non-scaling-stroke; stroke-width: 2px; stroke: rgb(140, 86, 75); stroke-opacity: 1;"/></g><g class="errorbar"><path class="yerror" d="M110.51,114.01h8m-4,0V122.44m-4,0h8" style="vector-effect: non-scaling-stroke; stroke-width: 2px; stroke: rgb(140, 86, 75); stroke-opacity: 1;"/><path class="xerror" d="M121.3,114.22v8m0,-4H107.73m0,-4v8" style="vector-effect: non-scaling-stroke; stroke-width: 2px; stroke: rgb(140, 86, 75); stroke-opacity: 1;"/></g><g class="errorbar"><path class="yerror" d="M112.57,104.8h8m-4,0V108.28m-4,0h8" style="vector-effect: non-scaling-stroke; stroke-width: 2px; stroke: rgb(140, 86, 75); stroke-opacity: 1;"/><path class="xerror" d="M123.36,102.54v8m0,-4H109.78m0,-4v8" style="vector-effect: non-scaling-stroke; stroke-width: 2px; stroke: rgb(140, 86, 75); stroke-opacity: 1;"/></g><g class="errorbar"><path class="yerror" d="M116.86,106.03h8m-4,0V109.67m-4,0h8" style="vector-effect: non-scaling-stroke; stroke-width: 2px; stroke: rgb(140, 86, 75); stroke-opacity: 1;"/><path class="xerror" d="M127.65,103.85v8m0,-4H114.07m0,-4v8" style="vector-effect: non-scaling-stroke; stroke-width: 2px; stroke: rgb(140, 86, 75); stroke-opacity: 1;"/></g><g class="errorbar"><path class="yerror" d="M124.91,88.55h8m-4,0V92.37m-4,0h8" style="vector-effect: non-scaling-stroke; stroke-width: 2px; stroke: rgb(140, 86, 75); stroke-opacity: 1;"/><path class="xerror" d="M135.7,86.46v8m0,-4H122.13m0,-4v8" style="vector-effect: non-scaling-stroke; stroke-width: 2px; stroke: rgb(140, 86, 75); stroke-opacity: 1;"/></g><g class="errorbar"><path class="yerror" d="M105.54,111.18h8m-4,0V115.63m-4,0h8" style="vector-effect: non-scaling-stroke; stroke-width: 2px; stroke: rgb(140, 86, 75); stroke-opacity: 1;"/><path class="xerror" d="M116.33,109.4v8m0,-4H102.75m0,-4v8" style="vector-effect: non-scaling-stroke; stroke-width: 2px; stroke: rgb(140, 86, 75); stroke-opacity: 1;"/></g><g class="errorbar"><path class="yerror" d="M111.89,76.71h8m-4,0V84.72m-4,0h8" style="vector-effect: non-scaling-stroke; stroke-width: 2px; stroke: rgb(140, 86, 75); stroke-opacity: 1;"/><path class="xerror" d="M122.67,76.72v8m0,-4H109.1m0,-4v8" style="vector-effect: non-scaling-stroke; stroke-width: 2px; stroke: rgb(140, 86, 75); stroke-opacity: 1;"/></g><g class="errorbar"><path class="yerror" d="M89.09,105.52h8m-4,0V110.5m-4,0h8" style="vector-effect: non-scaling-stroke; stroke-width: 2px; stroke: rgb(140, 86, 75); stroke-opacity: 1;"/><path class="xerror" d="M99.87,104.01v8m0,-4H86.3m0,-4v8" style="vector-effect: non-scaling-stroke; stroke-width: 2px; stroke: rgb(140, 86, 75); stroke-opacity: 1;"/></g><g class="errorbar"><path class="yerror" d="M84.8,123.15h8m-4,0V128.49m-4,0h8" style="vector-effect: non-scaling-stroke; stroke-width: 2px; stroke: rgb(140, 86, 75); stroke-opacity: 1;"/><path class="xerror" d="M95.59,121.82v8m0,-4H82.01m0,-4v8" style="vector-effect: non-scaling-stroke; stroke-width: 2px; stroke: rgb(140, 86, 75); stroke-opacity: 1;"/></g><g class="errorbar"><path class="yerror" d="M104.69,114.48h8m-4,0V129.2m-4,0h8" style="vector-effect: non-scaling-stroke; stroke-width: 2px; stroke: rgb(140, 86, 75); stroke-opacity: 1;"/><path class="xerror" d="M115.47,117.84v8m0,-4H101.9m0,-4v8" style="vector-effect: non-scaling-stroke; stroke-width: 2px; stroke: rgb(140, 86, 75); stroke-opacity: 1;"/></g><g class="errorbar"><path class="yerror" d="M117.03,108.07h8m-4,0V119.58m-4,0h8" style="vector-effect: non-scaling-stroke; stroke-width: 2px; stroke: rgb(140, 86, 75); stroke-opacity: 1;"/><path class="xerror" d="M127.82,109.82v8m0,-4H114.24m0,-4v8" style="vector-effect: non-scaling-stroke; stroke-width: 2px; stroke: rgb(140, 86, 75); stroke-opacity: 1;"/></g><g class="errorbar"><path class="yerror" d="M82.06,131.26h8m-4,0V143.74m-4,0h8" style="vector-effect: non-scaling-stroke; stroke-width: 2px; stroke: rgb(140, 86, 75); stroke-opacity: 1;"/><path class="xerror" d="M92.85,133.5v8m0,-4H79.27m0,-4v8" style="vector-effect: non-scaling-stroke; stroke-width: 2px; stroke: rgb(140, 86, 75); stroke-opacity: 1;"/></g><g class="errorbar"><path class="yerror" d="M101.26,122.61h8m-4,0V129.45m-4,0h8" style="vector-effect: non-scaling-stroke; stroke-width: 2px; stroke: rgb(140, 86, 75); stroke-opacity: 1;"/><path class="xerror" d="M112.05,122.03v8m0,-4H98.47m0,-4v8" style="vector-effect: non-scaling-stroke; stroke-width: 2px; stroke: rgb(140, 86, 75); stroke-opacity: 1;"/></g><g class="errorbar"><path class="yerror" d="M105.54,118.88h8m-4,0V125.74m-4,0h8" style="vector-effect: non-scaling-stroke; stroke-width: 2px; stroke: rgb(140, 86, 75); stroke-opacity: 1;"/><path class="xerror" d="M116.33,118.31v8m0,-4H102.75m0,-4v8" style="vector-effect: non-scaling-stroke; stroke-width: 2px; stroke: rgb(140, 86, 75); stroke-opacity: 1;"/></g><g class="errorbar"><path class="yerror" d="M109.14,108.82h8m-4,0V129.62m-4,0h8" style="vector-effect: non-scaling-stroke; stroke-width: 2px; stroke: rgb(140, 86, 75); stroke-opacity: 1;"/><path class="xerror" d="M119.93,115.22v8m0,-4H106.35m0,-4v8" style="vector-effect: non-scaling-stroke; stroke-width: 2px; stroke: rgb(140, 86, 75); stroke-opacity: 1;"/></g><g class="errorbar"><path class="yerror" d="M107.43,103.26h8m-4,0V105.11m-4,0h8" style="vector-effect: non-scaling-stroke; stroke-width: 2px; stroke: rgb(140, 86, 75); stroke-opacity: 1;"/><path class="xerror" d="M118.22,100.19v8m0,-4H104.64m0,-4v8" style="vector-effect: non-scaling-stroke; stroke-width: 2px; stroke: rgb(140, 86, 75); stroke-opacity: 1;"/></g><g class="errorbar"><path class="yerror" d="M84.8,116.12h8m-4,0V122.42m-4,0h8" style="vector-effect: non-scaling-stroke; stroke-width: 2px; stroke: rgb(140, 86, 75); stroke-opacity: 1;"/><path class="xerror" d="M95.59,115.27v8m0,-4H82.01m0,-4v8" style="vector-effect: non-scaling-stroke; stroke-width: 2px; stroke: rgb(140, 86, 75); stroke-opacity: 1;"/></g><g class="errorbar"><path class="yerror" d="M118.91,121.15h8m-4,0V124.1m-4,0h8" style="vector-effect: non-scaling-stroke; stroke-width: 2px; stroke: rgb(140, 86, 75); stroke-opacity: 1;"/><path class="xerror" d="M129.7,118.62v8m0,-4H116.13m0,-4v8" style="vector-effect: non-scaling-stroke; stroke-width: 2px; stroke: rgb(140, 86, 75); stroke-opacity: 1;"/></g><g class="errorbar"><path class="yerror" d="M116.69,94.19h8m-4,0V98.15m-4,0h8" style="vector-effect: non-scaling-stroke; stroke-width: 2px; stroke: rgb(140, 86, 75); stroke-opacity: 1;"/><path class="xerror" d="M127.47,92.17v8m0,-4H113.9m0,-4v8" style="vector-effect: non-scaling-stroke; stroke-width: 2px; stroke: rgb(140, 86, 75); stroke-opacity: 1;"/></g><g class="errorbar"><path class="yerror" d="M121.66,110.18h8m-4,0V112.65m-4,0h8" style="vector-effect: non-scaling-stroke; stroke-width: 2px; stroke: rgb(140, 86, 75); stroke-opacity: 1;"/><path class="xerror" d="M132.45,107.41v8m0,-4H118.87m0,-4v8" style="vector-effect: non-scaling-stroke; stroke-width: 2px; stroke: rgb(140, 86, 75); stroke-opacity: 1;"/></g><g class="errorbar"><path class="yerror" d="M114.63,88.68h8m-4,0V93.61m-4,0h8" style="vector-effect: non-scaling-stroke; stroke-width: 2px; stroke: rgb(140, 86, 75); stroke-opacity: 1;"/><path class="xerror" d="M125.42,87.14v8m0,-4H111.84m0,-4v8" style="vector-effect: non-scaling-stroke; stroke-width: 2px; stroke: rgb(140, 86, 75); stroke-opacity: 1;"/></g><g class="errorbar"><path class="yerror" d="M129.03,87.61h8m-4,0V90.06m-4,0h8" style="vector-effect: non-scaling-stroke; stroke-width: 2px; stroke: rgb(140, 86, 75); stroke-opacity: 1;"/><path class="xerror" d="M139.82,84.84v8m0,-4H126.24m0,-4v8" style="vector-effect: non-scaling-stroke; stroke-width: 2px; stroke: rgb(140, 86, 75); stroke-opacity: 1;"/></g><g class="errorbar"><path class="yerror" d="M70.4,125.93h8m-4,0V141.53m-4,0h8" style="vector-effect: non-scaling-stroke; stroke-width: 2px; stroke: rgb(140, 86, 75); stroke-opacity: 1;"/><path class="xerror" d="M81.19,129.73v8m0,-4H67.61m0,-4v8" style="vector-effect: non-scaling-stroke; stroke-width: 2px; stroke: rgb(140, 86, 75); stroke-opacity: 1;"/></g><g class="errorbar"><path class="yerror" d="M138.63,93.6h8m-4,0V98.01m-4,0h8" style="vector-effect: non-scaling-stroke; stroke-width: 2px; stroke: rgb(140, 86, 75); stroke-opacity: 1;"/><path class="xerror" d="M149.42,91.8v8m0,-4H135.84m0,-4v8" style="vector-effect: non-scaling-stroke; stroke-width: 2px; stroke: rgb(140, 86, 75); stroke-opacity: 1;"/></g><g class="errorbar"><path class="yerror" d="M105.37,115.45h8m-4,0V118.27m-4,0h8" style="vector-effect: non-scaling-stroke; stroke-width: 2px; stroke: rgb(140, 86, 75); stroke-opacity: 1;"/><path class="xerror" d="M116.16,112.86v8m0,-4H102.58m0,-4v8" style="vector-effect: non-scaling-stroke; stroke-width: 2px; stroke: rgb(140, 86, 75); stroke-opacity: 1;"/></g><g class="errorbar"><path class="yerror" d="M116.69,102.79h8m-4,0V110.3m-4,0h8" style="vector-effect: non-scaling-stroke; stroke-width: 2px; stroke: rgb(140, 86, 75); stroke-opacity: 1;"/><path class="xerror" d="M127.47,102.54v8m0,-4H113.9m0,-4v8" style="vector-effect: non-scaling-stroke; stroke-width: 2px; stroke: rgb(140, 86, 75); stroke-opacity: 1;"/></g><g class="errorbar"><path class="yerror" d="M117.37,110.06h8m-4,0V113.08m-4,0h8" style="vector-effect: non-scaling-stroke; stroke-width: 2px; stroke: rgb(140, 86, 75); stroke-opacity: 1;"/><path class="xerror" d="M128.16,107.57v8m0,-4H114.58m0,-4v8" style="vector-effect: non-scaling-stroke; stroke-width: 2px; stroke: rgb(140, 86, 75); stroke-opacity: 1;"/></g><g class="errorbar"><path class="yerror" d="M115.83,72.25h8m-4,0V84.58m-4,0h8" style="vector-effect: non-scaling-stroke; stroke-width: 2px; stroke: rgb(140, 86, 75); stroke-opacity: 1;"/><path class="xerror" d="M126.62,74.41v8m0,-4H113.04m0,-4v8" style="vector-effect: non-scaling-stroke; stroke-width: 2px; stroke: rgb(140, 86, 75); stroke-opacity: 1;"/></g><g class="errorbar"><path class="yerror" d="M99.03,105.59h8m-4,0V111.48m-4,0h8" style="vector-effect: non-scaling-stroke; stroke-width: 2px; stroke: rgb(140, 86, 75); stroke-opacity: 1;"/><path class="xerror" d="M109.82,104.53v8m0,-4H96.24m0,-4v8" style="vector-effect: non-scaling-stroke; stroke-width: 2px; stroke: rgb(140, 86, 75); stroke-opacity: 1;"/></g><g class="errorbar"><path class="yerror" d="M108.97,80.31h8m-4,0V90.66m-4,0h8" style="vector-effect: non-scaling-stroke; stroke-width: 2px; stroke: rgb(140, 86, 75); stroke-opacity: 1;"/><path class="xerror" d="M119.76,81.49v8m0,-4H106.18m0,-4v8" style="vector-effect: non-scaling-stroke; stroke-width: 2px; stroke: rgb(140, 86, 75); stroke-opacity: 1;"/></g><g class="errorbar"><path class="yerror" d="M104.69,104.25h8m-4,0V109.15m-4,0h8" style="vector-effect: non-scaling-stroke; stroke-width: 2px; stroke: rgb(140, 86, 75); stroke-opacity: 1;"/><path class="xerror" d="M115.47,102.7v8m0,-4H101.9m0,-4v8" style="vector-effect: non-scaling-stroke; stroke-width: 2px; stroke: rgb(140, 86, 75); stroke-opacity: 1;"/></g><g class="errorbar"><path class="yerror" d="M112.4,104.62h8m-4,0V108.36m-4,0h8" style="vector-effect: non-scaling-stroke; stroke-width: 2px; stroke: rgb(140, 86, 75); stroke-opacity: 1;"/><path class="xerror" d="M123.19,102.49v8m0,-4H109.61m0,-4v8" style="vector-effect: non-scaling-stroke; stroke-width: 2px; stroke: rgb(140, 86, 75); stroke-opacity: 1;"/></g><g class="errorbar"><path class="yerror" d="M62.17,129.54h8m-4,0V138.76m-4,0h8" style="vector-effect: non-scaling-stroke; stroke-width: 2px; stroke: rgb(140, 86, 75); stroke-opacity: 1;"/><path class="xerror" d="M72.96,130.15v8m0,-4H59.38m0,-4v8" style="vector-effect: non-scaling-stroke; stroke-width: 2px; stroke: rgb(140, 86, 75); stroke-opacity: 1;"/></g><g class="errorbar"><path class="yerror" d="M73.14,126.87h8m-4,0V134.19m-4,0h8" style="vector-effect: non-scaling-stroke; stroke-width: 2px; stroke: rgb(140, 86, 75); stroke-opacity: 1;"/><path class="xerror" d="M83.93,126.53v8m0,-4H70.35m0,-4v8" style="vector-effect: non-scaling-stroke; stroke-width: 2px; stroke: rgb(140, 86, 75); stroke-opacity: 1;"/></g><g class="errorbar"><path class="yerror" d="M69.71,147.58h8m-4,0V150.68m-4,0h8" style="vector-effect: non-scaling-stroke; stroke-width: 2px; stroke: rgb(140, 86, 75); stroke-opacity: 1;"/><path class="xerror" d="M80.5,145.13v8m0,-4H66.93m0,-4v8" style="vector-effect: non-scaling-stroke; stroke-width: 2px; stroke: rgb(140, 86, 75); stroke-opacity: 1;"/></g><g class="errorbar"><path class="yerror" d="M74.51,73.92h8m-4,0V97.36m-4,0h8" style="vector-effect: non-scaling-stroke; stroke-width: 2px; stroke: rgb(140, 86, 75); stroke-opacity: 1;"/><path class="xerror" d="M85.3,81.64v8m0,-4H71.73m0,-4v8" style="vector-effect: non-scaling-stroke; stroke-width: 2px; stroke: rgb(140, 86, 75); stroke-opacity: 1;"/></g><g class="errorbar"><path class="yerror" d="M135.37,89.15h8m-4,0V94.19m-4,0h8" style="vector-effect: non-scaling-stroke; stroke-width: 2px; stroke: rgb(140, 86, 75); stroke-opacity: 1;"/><path class="xerror" d="M146.16,87.67v8m0,-4H132.58m0,-4v8" style="vector-effect: non-scaling-stroke; stroke-width: 2px; stroke: rgb(140, 86, 75); stroke-opacity: 1;"/></g><g class="errorbar"><path class="yerror" d="M106.23,109.99h8m-4,0V115.35m-4,0h8" style="vector-effect: non-scaling-stroke; stroke-width: 2px; stroke: rgb(140, 86, 75); stroke-opacity: 1;"/><path class="xerror" d="M117.02,108.67v8m0,-4H103.44m0,-4v8" style="vector-effect: non-scaling-stroke; stroke-width: 2px; stroke: rgb(140, 86, 75); stroke-opacity: 1;"/></g><g class="errorbar"><path class="yerror" d="M118.06,105.34h8m-4,0V111.83m-4,0h8" style="vector-effect: non-scaling-stroke; stroke-width: 2px; stroke: rgb(140, 86, 75); stroke-opacity: 1;"/><path class="xerror" d="M128.85,104.59v8m0,-4H115.27m0,-4v8" style="vector-effect: non-scaling-stroke; stroke-width: 2px; stroke: rgb(140, 86, 75); stroke-opacity: 1;"/></g><g class="errorbar"><path class="yerror" d="M101.6,134.78h8m-4,0V147.45m-4,0h8" style="vector-effect: non-scaling-stroke; stroke-width: 2px; stroke: rgb(140, 86, 75); stroke-opacity: 1;"/><path class="xerror" d="M112.39,137.11v8m0,-4H98.81m0,-4v8" style="vector-effect: non-scaling-stroke; stroke-width: 2px; stroke: rgb(140, 86, 75); stroke-opacity: 1;"/></g><g class="errorbar"><path class="yerror" d="M184.06,60.37h8m-4,0V86.71m-4,0h8" style="vector-effect: non-scaling-stroke; stroke-width: 2px; stroke: rgb(140, 86, 75); stroke-opacity: 1;"/><path class="xerror" d="M194.85,69.54v8m0,-4H181.27m0,-4v8" style="vector-effect: non-scaling-stroke; stroke-width: 2px; stroke: rgb(140, 86, 75); stroke-opacity: 1;"/></g><g class="errorbar"><path class="yerror" d="M156.8,90.29h8m-4,0V93.56m-4,0h8" style="vector-effect: non-scaling-stroke; stroke-width: 2px; stroke: rgb(140, 86, 75); stroke-opacity: 1;"/><path class="xerror" d="M167.59,87.93v8m0,-4H154.01m0,-4v8" style="vector-effect: non-scaling-stroke; stroke-width: 2px; stroke: rgb(140, 86, 75); stroke-opacity: 1;"/></g><g class="errorbar"><path class="yerror" d="M127.83000000000001,111.19h8m-4,0V115.83m-4,0h8" style="vector-effect: non-scaling-stroke; stroke-width: 2px; stroke: rgb(140, 86, 75); stroke-opacity: 1;"/><path class="xerror" d="M138.62,109.51v8m0,-4H125.04m0,-4v8" style="vector-effect: non-scaling-stroke; stroke-width: 2px; stroke: rgb(140, 86, 75); stroke-opacity: 1;"/></g><g class="errorbar"><path class="yerror" d="M103.66,130.49h8m-4,0V137.28m-4,0h8" style="vector-effect: non-scaling-stroke; stroke-width: 2px; stroke: rgb(140, 86, 75); stroke-opacity: 1;"/><path class="xerror" d="M114.45,129.89v8m0,-4H100.87m0,-4v8" style="vector-effect: non-scaling-stroke; stroke-width: 2px; stroke: rgb(140, 86, 75); stroke-opacity: 1;"/></g><g class="errorbar"><path class="yerror" d="M106.4,102.24h8m-4,0V104.45m-4,0h8" style="vector-effect: non-scaling-stroke; stroke-width: 2px; stroke: rgb(140, 86, 75); stroke-opacity: 1;"/><path class="xerror" d="M117.19,99.35v8m0,-4H103.61m0,-4v8" style="vector-effect: non-scaling-stroke; stroke-width: 2px; stroke: rgb(140, 86, 75); stroke-opacity: 1;"/></g><g class="errorbar"><path class="yerror" d="M87.03,118.18h8m-4,0V127.59m-4,0h8" style="vector-effect: non-scaling-stroke; stroke-width: 2px; stroke: rgb(140, 86, 75); stroke-opacity: 1;"/><path class="xerror" d="M97.82,118.89v8m0,-4H84.24m0,-4v8" style="vector-effect: non-scaling-stroke; stroke-width: 2px; stroke: rgb(140, 86, 75); stroke-opacity: 1;"/></g><g class="errorbar"><path class="yerror" d="M100.74,122.69h8m-4,0V133.46m-4,0h8" style="vector-effect: non-scaling-stroke; stroke-width: 2px; stroke: rgb(140, 86, 75); stroke-opacity: 1;"/><path class="xerror" d="M111.53,124.07v8m0,-4H97.95m0,-4v8" style="vector-effect: non-scaling-stroke; stroke-width: 2px; stroke: rgb(140, 86, 75); stroke-opacity: 1;"/></g><g class="errorbar"><path class="yerror" d="M133.31,88.04h8m-4,0V98.65m-4,0h8" style="vector-effect: non-scaling-stroke; stroke-width: 2px; stroke: rgb(140, 86, 75); stroke-opacity: 1;"/><path class="xerror" d="M144.1,89.34v8m0,-4H130.53m0,-4v8" style="vector-effect: non-scaling-stroke; stroke-width: 2px; stroke: rgb(140, 86, 75); stroke-opacity: 1;"/></g></g><g class="lines"/><g class="points"><path class="point" transform="translate(144,86.11)" d="M1.5,0A1.5,1.5 0 1,1 0,-1.5A1.5,1.5 0 0,1 1.5,0Z" style="opacity: 1; stroke-width: 0px; fill: rgb(140, 86, 75); fill-opacity: 1;"/><path class="point" transform="translate(119.66,135.3)" d="M1.5,0A1.5,1.5 0 1,1 0,-1.5A1.5,1.5 0 0,1 1.5,0Z" style="opacity: 1; stroke-width: 0px; fill: rgb(140, 86, 75); fill-opacity: 1;"/><path class="point" transform="translate(103.71,129.75)" d="M1.5,0A1.5,1.5 0 1,1 0,-1.5A1.5,1.5 0 0,1 1.5,0Z" style="opacity: 1; stroke-width: 0px; fill: rgb(140, 86, 75); fill-opacity: 1;"/><path class="point" transform="translate(118.11,118.33)" d="M1.5,0A1.5,1.5 0 1,1 0,-1.5A1.5,1.5 0 0,1 1.5,0Z" style="opacity: 1; stroke-width: 0px; fill: rgb(140, 86, 75); fill-opacity: 1;"/><path class="point" transform="translate(106.63,135.09)" d="M1.5,0A1.5,1.5 0 1,1 0,-1.5A1.5,1.5 0 0,1 1.5,0Z" style="opacity: 1; stroke-width: 0px; fill: rgb(140, 86, 75); fill-opacity: 1;"/><path class="point" transform="translate(110.91,100.52)" d="M1.5,0A1.5,1.5 0 1,1 0,-1.5A1.5,1.5 0 0,1 1.5,0Z" style="opacity: 1; stroke-width: 0px; fill: rgb(140, 86, 75); fill-opacity: 1;"/><path class="point" transform="translate(90.69,114.92)" d="M1.5,0A1.5,1.5 0 1,1 0,-1.5A1.5,1.5 0 0,1 1.5,0Z" style="opacity: 1; stroke-width: 0px; fill: rgb(140, 86, 75); fill-opacity: 1;"/><path class="point" transform="translate(164.74,75.32)" d="M1.5,0A1.5,1.5 0 1,1 0,-1.5A1.5,1.5 0 0,1 1.5,0Z" style="opacity: 1; stroke-width: 0px; fill: rgb(140, 86, 75); fill-opacity: 1;"/><path class="point" transform="translate(133.89,105.91)" d="M1.5,0A1.5,1.5 0 1,1 0,-1.5A1.5,1.5 0 0,1 1.5,0Z" style="opacity: 1; stroke-width: 0px; fill: rgb(140, 86, 75); fill-opacity: 1;"/><path class="point" transform="translate(117.94,106.96)" d="M1.5,0A1.5,1.5 0 1,1 0,-1.5A1.5,1.5 0 0,1 1.5,0Z" style="opacity: 1; stroke-width: 0px; fill: rgb(140, 86, 75); fill-opacity: 1;"/><path class="point" transform="translate(114.51,118.22)" d="M1.5,0A1.5,1.5 0 1,1 0,-1.5A1.5,1.5 0 0,1 1.5,0Z" style="opacity: 1; stroke-width: 0px; fill: rgb(140, 86, 75); fill-opacity: 1;"/><path class="point" transform="translate(116.57,106.54)" d="M1.5,0A1.5,1.5 0 1,1 0,-1.5A1.5,1.5 0 0,1 1.5,0Z" style="opacity: 1; stroke-width: 0px; fill: rgb(140, 86, 75); fill-opacity: 1;"/><path class="point" transform="translate(120.86,107.85)" d="M1.5,0A1.5,1.5 0 1,1 0,-1.5A1.5,1.5 0 0,1 1.5,0Z" style="opacity: 1; stroke-width: 0px; fill: rgb(140, 86, 75); fill-opacity: 1;"/><path class="point" transform="translate(128.91,90.46)" d="M1.5,0A1.5,1.5 0 1,1 0,-1.5A1.5,1.5 0 0,1 1.5,0Z" style="opacity: 1; stroke-width: 0px; fill: rgb(140, 86, 75); fill-opacity: 1;"/><path class="point" transform="translate(109.54,113.4)" d="M1.5,0A1.5,1.5 0 1,1 0,-1.5A1.5,1.5 0 0,1 1.5,0Z" style="opacity: 1; stroke-width: 0px; fill: rgb(140, 86, 75); fill-opacity: 1;"/><path class="point" transform="translate(115.89,80.72)" d="M1.5,0A1.5,1.5 0 1,1 0,-1.5A1.5,1.5 0 0,1 1.5,0Z" style="opacity: 1; stroke-width: 0px; fill: rgb(140, 86, 75); fill-opacity: 1;"/><path class="point" transform="translate(93.09,108.01)" d="M1.5,0A1.5,1.5 0 1,1 0,-1.5A1.5,1.5 0 0,1 1.5,0Z" style="opacity: 1; stroke-width: 0px; fill: rgb(140, 86, 75); fill-opacity: 1;"/><path class="point" transform="translate(88.8,125.82)" d="M1.5,0A1.5,1.5 0 1,1 0,-1.5A1.5,1.5 0 0,1 1.5,0Z" style="opacity: 1; stroke-width: 0px; fill: rgb(140, 86, 75); fill-opacity: 1;"/><path class="point" transform="translate(108.69,121.84)" d="M1.5,0A1.5,1.5 0 1,1 0,-1.5A1.5,1.5 0 0,1 1.5,0Z" style="opacity: 1; stroke-width: 0px; fill: rgb(140, 86, 75); fill-opacity: 1;"/><path class="point" transform="translate(121.03,113.82)" d="M1.5,0A1.5,1.5 0 1,1 0,-1.5A1.5,1.5 0 0,1 1.5,0Z" style="opacity: 1; stroke-width: 0px; fill: rgb(140, 86, 75); fill-opacity: 1;"/><path class="point" transform="translate(86.06,137.5)" d="M1.5,0A1.5,1.5 0 1,1 0,-1.5A1.5,1.5 0 0,1 1.5,0Z" style="opacity: 1; stroke-width: 0px; fill: rgb(140, 86, 75); fill-opacity: 1;"/><path class="point" transform="translate(105.26,126.03)" d="M1.5,0A1.5,1.5 0 1,1 0,-1.5A1.5,1.5 0 0,1 1.5,0Z" style="opacity: 1; stroke-width: 0px; fill: rgb(140, 86, 75); fill-opacity: 1;"/><path class="point" transform="translate(109.54,122.31)" d="M1.5,0A1.5,1.5 0 1,1 0,-1.5A1.5,1.5 0 0,1 1.5,0Z" style="opacity: 1; stroke-width: 0px; fill: rgb(140, 86, 75); fill-opacity: 1;"/><path class="point" transform="translate(113.14,119.22)" d="M1.5,0A1.5,1.5 0 1,1 0,-1.5A1.5,1.5 0 0,1 1.5,0Z" style="opacity: 1; stroke-width: 0px; fill: rgb(140, 86, 75); fill-opacity: 1;"/><path class="point" transform="translate(111.43,104.19)" d="M1.5,0A1.5,1.5 0 1,1 0,-1.5A1.5,1.5 0 0,1 1.5,0Z" style="opacity: 1; stroke-width: 0px; fill: rgb(140, 86, 75); fill-opacity: 1;"/><path class="point" transform="translate(88.8,119.27)" d="M1.5,0A1.5,1.5 0 1,1 0,-1.5A1.5,1.5 0 0,1 1.5,0Z" style="opacity: 1; stroke-width: 0px; fill: rgb(140, 86, 75); fill-opacity: 1;"/><path class="point" transform="translate(122.91,122.62)" d="M1.5,0A1.5,1.5 0 1,1 0,-1.5A1.5,1.5 0 0,1 1.5,0Z" style="opacity: 1; stroke-width: 0px; fill: rgb(140, 86, 75); fill-opacity: 1;"/><path class="point" transform="translate(120.69,96.17)" d="M1.5,0A1.5,1.5 0 1,1 0,-1.5A1.5,1.5 0 0,1 1.5,0Z" style="opacity: 1; stroke-width: 0px; fill: rgb(140, 86, 75); fill-opacity: 1;"/><path class="point" transform="translate(125.66,111.41)" d="M1.5,0A1.5,1.5 0 1,1 0,-1.5A1.5,1.5 0 0,1 1.5,0Z" style="opacity: 1; stroke-width: 0px; fill: rgb(140, 86, 75); fill-opacity: 1;"/><path class="point" transform="translate(118.63,91.14)" d="M1.5,0A1.5,1.5 0 1,1 0,-1.5A1.5,1.5 0 0,1 1.5,0Z" style="opacity: 1; stroke-width: 0px; fill: rgb(140, 86, 75); fill-opacity: 1;"/><path class="point" transform="translate(133.03,88.84)" d="M1.5,0A1.5,1.5 0 1,1 0,-1.5A1.5,1.5 0 0,1 1.5,0Z" style="opacity: 1; stroke-width: 0px; fill: rgb(140, 86, 75); fill-opacity: 1;"/><path class="point" transform="translate(74.4,133.73)" d="M1.5,0A1.5,1.5 0 1,1 0,-1.5A1.5,1.5 0 0,1 1.5,0Z" style="opacity: 1; stroke-width: 0px; fill: rgb(140, 86, 75); fill-opacity: 1;"/><path class="point" transform="translate(142.63,95.8)" d="M1.5,0A1.5,1.5 0 1,1 0,-1.5A1.5,1.5 0 0,1 1.5,0Z" style="opacity: 1; stroke-width: 0px; fill: rgb(140, 86, 75); fill-opacity: 1;"/><path class="point" transform="translate(109.37,116.86)" d="M1.5,0A1.5,1.5 0 1,1 0,-1.5A1.5,1.5 0 0,1 1.5,0Z" style="opacity: 1; stroke-width: 0px; fill: rgb(140, 86, 75); fill-opacity: 1;"/><path class="point" transform="translate(120.69,106.54)" d="M1.5,0A1.5,1.5 0 1,1 0,-1.5A1.5,1.5 0 0,1 1.5,0Z" style="opacity: 1; stroke-width: 0px; fill: rgb(140, 86, 75); fill-opacity: 1;"/><path class="point" transform="translate(121.37,111.57)" d="M1.5,0A1.5,1.5 0 1,1 0,-1.5A1.5,1.5 0 0,1 1.5,0Z" style="opacity: 1; stroke-width: 0px; fill: rgb(140, 86, 75); fill-opacity: 1;"/><path class="point" transform="translate(119.83,78.41)" d="M1.5,0A1.5,1.5 0 1,1 0,-1.5A1.5,1.5 0 0,1 1.5,0Z" style="opacity: 1; stroke-width: 0px; fill: rgb(140, 86, 75); fill-opacity: 1;"/><path class="point" transform="translate(103.03,108.53)" d="M1.5,0A1.5,1.5 0 1,1 0,-1.5A1.5,1.5 0 0,1 1.5,0Z" style="opacity: 1; stroke-width: 0px; fill: rgb(140, 86, 75); fill-opacity: 1;"/><path class="point" transform="translate(112.97,85.49)" d="M1.5,0A1.5,1.5 0 1,1 0,-1.5A1.5,1.5 0 0,1 1.5,0Z" style="opacity: 1; stroke-width: 0px; fill: rgb(140, 86, 75); fill-opacity: 1;"/><path class="point" transform="translate(108.69,106.7)" d="M1.5,0A1.5,1.5 0 1,1 0,-1.5A1.5,1.5 0 0,1 1.5,0Z" style="opacity: 1; stroke-width: 0px; fill: rgb(140, 86, 75); fill-opacity: 1;"/><path class="point" transform="translate(116.4,106.49)" d="M1.5,0A1.5,1.5 0 1,1 0,-1.5A1.5,1.5 0 0,1 1.5,0Z" style="opacity: 1; stroke-width: 0px; fill: rgb(140, 86, 75); fill-opacity: 1;"/><path class="point" transform="translate(66.17,134.15)" d="M1.5,0A1.5,1.5 0 1,1 0,-1.5A1.5,1.5 0 0,1 1.5,0Z" style="opacity: 1; stroke-width: 0px; fill: rgb(140, 86, 75); fill-opacity: 1;"/><path class="point" transform="translate(77.14,130.53)" d="M1.5,0A1.5,1.5 0 1,1 0,-1.5A1.5,1.5 0 0,1 1.5,0Z" style="opacity: 1; stroke-width: 0px; fill: rgb(140, 86, 75); fill-opacity: 1;"/><path class="point" transform="translate(73.71,149.13)" d="M1.5,0A1.5,1.5 0 1,1 0,-1.5A1.5,1.5 0 0,1 1.5,0Z" style="opacity: 1; stroke-width: 0px; fill: rgb(140, 86, 75); fill-opacity: 1;"/><path class="point" transform="translate(78.51,85.64)" d="M1.5,0A1.5,1.5 0 1,1 0,-1.5A1.5,1.5 0 0,1 1.5,0Z" style="opacity: 1; stroke-width: 0px; fill: rgb(140, 86, 75); fill-opacity: 1;"/><path class="point" transform="translate(139.37,91.67)" d="M1.5,0A1.5,1.5 0 1,1 0,-1.5A1.5,1.5 0 0,1 1.5,0Z" style="opacity: 1; stroke-width: 0px; fill: rgb(140, 86, 75); fill-opacity: 1;"/><path class="point" transform="translate(110.23,112.67)" d="M1.5,0A1.5,1.5 0 1,1 0,-1.5A1.5,1.5 0 0,1 1.5,0Z" style="opacity: 1; stroke-width: 0px; fill: rgb(140, 86, 75); fill-opacity: 1;"/><path class="point" transform="translate(122.06,108.59)" d="M1.5,0A1.5,1.5 0 1,1 0,-1.5A1.5,1.5 0 0,1 1.5,0Z" style="opacity: 1; stroke-width: 0px; fill: rgb(140, 86, 75); fill-opacity: 1;"/><path class="point" transform="translate(105.6,141.11)" d="M1.5,0A1.5,1.5 0 1,1 0,-1.5A1.5,1.5 0 0,1 1.5,0Z" style="opacity: 1; stroke-width: 0px; fill: rgb(140, 86, 75); fill-opacity: 1;"/><path class="point" transform="translate(188.06,73.54)" d="M1.5,0A1.5,1.5 0 1,1 0,-1.5A1.5,1.5 0 0,1 1.5,0Z" style="opacity: 1; stroke-width: 0px; fill: rgb(140, 86, 75); fill-opacity: 1;"/><path class="point" transform="translate(160.8,91.93)" d="M1.5,0A1.5,1.5 0 1,1 0,-1.5A1.5,1.5 0 0,1 1.5,0Z" style="opacity: 1; stroke-width: 0px; fill: rgb(140, 86, 75); fill-opacity: 1;"/><path class="point" transform="translate(131.83,113.51)" d="M1.5,0A1.5,1.5 0 1,1 0,-1.5A1.5,1.5 0 0,1 1.5,0Z" style="opacity: 1; stroke-width: 0px; fill: rgb(140, 86, 75); fill-opacity: 1;"/><path class="point" transform="translate(107.66,133.89)" d="M1.5,0A1.5,1.5 0 1,1 0,-1.5A1.5,1.5 0 0,1 1.5,0Z" style="opacity: 1; stroke-width: 0px; fill: rgb(140, 86, 75); fill-opacity: 1;"/><path class="point" transform="translate(110.4,103.35)" d="M1.5,0A1.5,1.5 0 1,1 0,-1.5A1.5,1.5 0 0,1 1.5,0Z" style="opacity: 1; stroke-width: 0px; fill: rgb(140, 86, 75); fill-opacity: 1;"/><path class="point" transform="translate(91.03,122.89)" d="M1.5,0A1.5,1.5 0 1,1 0,-1.5A1.5,1.5 0 0,1 1.5,0Z" style="opacity: 1; stroke-width: 0px; fill: rgb(140, 86, 75); fill-opacity: 1;"/><path class="point" transform="translate(104.74,128.07)" d="M1.5,0A1.5,1.5 0 1,1 0,-1.5A1.5,1.5 0 0,1 1.5,0Z" style="opacity: 1; stroke-width: 0px; fill: rgb(140, 86, 75); fill-opacity: 1;"/><path class="point" transform="translate(137.31,93.34)" d="M1.5,0A1.5,1.5 0 1,1 0,-1.5A1.5,1.5 0 0,1 1.5,0Z" style="opacity: 1; stroke-width: 0px; fill: rgb(140, 86, 75); fill-opacity: 1;"/></g><g class="text"/></g></g></g><g class="overplot"/><path class="xlines-above crisp" d="M79,320.5H320" style="fill: none; stroke-width: 1px; stroke: rgb(36, 36, 36); stroke-opacity: 1;"/><path class="ylines-above crisp" d="M79.5,100V320" style="fill: none; stroke-width: 1px; stroke: rgb(36, 36, 36); stroke-opacity: 1;"/><g class="overlines-above"/><g class="xaxislayer-above"><path class="xtick ticks crisp" d="M0,321v5" transform="translate(114.28999999999999,0)" style="stroke: rgb(68, 68, 68); stroke-opacity: 1; stroke-width: 1px;"/><path class="xtick ticks crisp" d="M0,321v5" transform="translate(200,0)" style="stroke: rgb(68, 68, 68); stroke-opacity: 1; stroke-width: 1px;"/><path class="xtick ticks crisp" d="M0,321v5" transform="translate(285.71000000000004,0)" style="stroke: rgb(68, 68, 68); stroke-opacity: 1; stroke-width: 1px;"/><g class="xtick"><text text-anchor="middle" x="0" y="340.4" transform="translate(114.28999999999999,0)" style="font-family: 'Open Sans', verdana, arial, sans-serif; font-size: 12px; fill: rgb(36, 36, 36); fill-opacity: 1; white-space: pre; opacity: 1;">−5</text></g><g class="xtick"><text text-anchor="middle" x="0" y="340.4" style="font-family: 'Open Sans', verdana, arial, sans-serif; font-size: 12px; fill: rgb(36, 36, 36); fill-opacity: 1; white-space: pre; opacity: 1;" transform="translate(200,0)">0</text></g><g class="xtick"><text text-anchor="middle" x="0" y="340.4" style="font-family: 'Open Sans', verdana, arial, sans-serif; font-size: 12px; fill: rgb(36, 36, 36); fill-opacity: 1; white-space: pre; opacity: 1;" transform="translate(285.71000000000004,0)">5</text></g></g><g class="yaxislayer-above"><path class="ytick ticks crisp" d="M79,0h-5" transform="translate(0,288.57)" style="stroke: rgb(68, 68, 68); stroke-opacity: 1; stroke-width: 1px;"/><path class="ytick ticks crisp" d="M79,0h-5" transform="translate(0,210)" style="stroke: rgb(68, 68, 68); stroke-opacity: 1; stroke-width: 1px;"/><path class="ytick ticks crisp" d="M79,0h-5" transform="translate(0,131.43)" style="stroke: rgb(68, 68, 68); stroke-opacity: 1; stroke-width: 1px;"/><g class="ytick"><text text-anchor="end" x="71.6" y="4.199999999999999" transform="translate(0,288.57)" style="font-family: 'Open Sans', verdana, arial, sans-serif; font-size: 12px; fill: rgb(36, 36, 36); fill-opacity: 1; white-space: pre; opacity: 1;">−5</text></g><g class="ytick"><text text-anchor="end" x="71.6" y="4.199999999999999" style="font-family: 'Open Sans', verdana, arial, sans-serif; font-size: 12px; fill: rgb(36, 36, 36); fill-opacity: 1; white-space: pre; opacity: 1;" transform="translate(0,210)">0</text></g><g class="ytick"><text text-anchor="end" x="71.6" y="4.199999999999999" style="font-family: 'Open Sans', verdana, arial, sans-serif; font-size: 12px; fill: rgb(36, 36, 36); fill-opacity: 1; white-space: pre; opacity: 1;" transform="translate(0,131.43)">5</text></g></g><g class="overaxes-above"/></g></g><g class="polarlayer"/><g class="smithlayer"/><g class="ternarylayer"/><g class="geolayer"/><g class="funnelarealayer"/><g class="pielayer"/><g class="iciclelayer"/><g class="treemaplayer"/><g class="sunburstlayer"/><g class="glimages"/><defs id="topdefs-0d7993"><g class="clips"/></defs><g class="layer-above"><g class="imagelayer"/><g class="shapelayer"/></g><g class="infolayer"><g class="g-gtitle"><text class="gtitle" x="80" y="40" text-anchor="start" dy="0.7em" style="font-family: 'Open Sans', verdana, arial, sans-serif; font-size: 12px; fill: rgb(36, 36, 36); opacity: 1; font-weight: normal; white-space: pre;"><tspan class="line" dy="0em" x="80" y="40">tnks2 (N = 57)</tspan><tspan class="line" dy="1.3em" x="80" y="40">RMSE: 1.00 [95%:  0.80,  1.32]</tspan><tspan class="line" dy="2.6em" x="80" y="40">MUE:  0.76 [95%:  0.61,  0.98]</tspan></text></g><g class="g-xtitle"><text class="xtitle" x="200" y="369.20625" text-anchor="middle" style="font-family: 'Open Sans', verdana, arial, sans-serif; font-size: 14px; fill: rgb(36, 36, 36); opacity: 1; font-weight: normal; white-space: pre;">DDG Exp. [kcal/mol]</text></g><g class="g-ytitle"><text class="ytitle" transform="rotate(-90,33.075,210)" x="33.075" y="210" text-anchor="middle" style="font-family: 'Open Sans', verdana, arial, sans-serif; font-size: 14px; fill: rgb(36, 36, 36); opacity: 1; font-weight: normal; white-space: pre;">DDG OpenFF-1.2_converged [kcal/mol]</text></g></g></svg>