<svg class="main-svg" xmlns="http://www.w3.org/2000/svg" xmlns:xlink="http://www.w3.org/1999/xlink" width="400" height="400" style="" viewBox="0 0 400 400"><rect x="0" y="0" width="400" height="400" style="fill: rgb(255, 255, 255); fill-opacity: 1;"/><defs id="defs-07c54d"><g class="clips"><clipPath id="clip07c54dxyplot" class="plotclip"><rect width="240" height="220"/></clipPath><clipPath class="axesclip" id="clip07c54dx"><rect x="80" y="0" width="240" height="400"/></clipPath><clipPath class="axesclip" id="clip07c54dy"><rect x="0" y="100" width="400" height="220"/></clipPath><clipPath class="axesclip" id="clip07c54dxy"><rect x="80" y="100" width="240" height="220"/></clipPath></g><g class="gradients"/><g class="patterns"/></defs><g class="bglayer"/><g class="layer-below"><g class="imagelayer"/><g class="shapelayer"/></g><g class="cartesianlayer"><g class="subplot xy"><g class="layer-subplot"><g class="shapelayer"/><g class="imagelayer"/></g><g class="gridlayer"><g class="x"/><g class="y"/></g><g class="zerolinelayer"/><path class="xlines-below"/><path class="ylines-below"/><g class="overlines-below"/><g class="xaxislayer-below"/><g class="yaxislayer-below"/><g class="overaxes-below"/><g class="plot" transform="translate(80,100)" clip-path="url(#clip07c54dxyplot)"><g class="scatterlayer mlayer"><g class="trace scatter trace25f047" style="stroke-miterlimit: 2; opacity: 1;"><g class="fills"/><g class="errorbars"/><g class="lines"><path class="js-line" d="M120,220L120,0" style="vector-effect: non-scaling-stroke; fill: none; stroke: rgb(0, 0, 0); stroke-opacity: 1; stroke-width: 2px; opacity: 1;"/></g><g class="points"/><g class="text"/></g><g class="trace scatter tracea451c0" style="stroke-miterlimit: 2; opacity: 1;"><g class="fills"/><g class="errorbars"/><g class="lines"><path class="js-line" d="M0,110L240,110" style="vector-effect: non-scaling-stroke; fill: none; stroke: rgb(0, 0, 0); stroke-opacity: 1; stroke-width: 2px; opacity: 1;"/></g><g class="points"/><g class="text"/></g><g class="trace scatter trace5a7d96" style="stroke-miterlimit: 2; opacity: 1;"><g class="fills"><g><path class="js-fill" d="M0,204.29L240,-15.71L240,15.71L0,235.71Z" style="fill: rgb(0, 0, 0); fill-opacity: 0.2; stroke-width: 0;"/></g></g><g class="errorbars"/><g class="lines"><path class="js-line" d="M0,204.29L240,-15.71L240,15.71L0,235.71" style="vector-effect: non-scaling-stroke; fill: none; stroke: rgb(44, 160, 44); stroke-opacity: 1; stroke-width: 0px; opacity: 1;"/></g><g class="points"/><g class="text"/></g><g class="trace scatter traceb9fcbe" style="stroke-miterlimit: 2; opacity: 1;"><g class="fills"><g><path class="js-fill" d="M0,212.14L240,-7.86L240,7.86L0,227.86Z" style="fill: rgb(0, 0, 0); fill-opacity: 0.2; stroke-width: 0;"/></g></g><g class="errorbars"/><g class="lines"><path class="js-line" d="M0,212.14L240,-7.86L240,7.86L0,227.86" style="vector-effect: non-scaling-stroke; fill: none; stroke: rgb(214, 39, 40); stroke-opacity: 1; stroke-width: 0px; opacity: 1;"/></g><g class="points"/><g class="text"/></g><g class="trace scatter traceb7311a" style="stroke-miterlimit: 2; opacity: 1;"><g class="fills"/><g class="errorbars"/><g class="lines"><path class="js-line" d="M0,220L240,0" style="vector-effect: non-scaling-stroke; fill: none; stroke: rgb(0, 0, 0); stroke-opacity: 1; stroke-width: 2px; opacity: 1;"/></g><g class="points"/><g class="text"/></g><g class="trace scatter trace6d9118" style="stroke-miterlimit: 2; opacity: 1;"><g class="fills"/><g class="errorbars"><g class="errorbar"><path class="yerror" d="M95.43,122.36h8m-4,0V125.66m-4,0h8" style="vector-effect: non-scaling-stroke; stroke-width: 2px; stroke: rgb(140, 86, 75); stroke-opacity: 1;"/><path class="xerror" d="M106.22,120.01v8m0,-4H92.64m0,-4v8" style="vector-effect: non-scaling-stroke; stroke-width: 2px; stroke: rgb(140, 86, 75); stroke-opacity: 1;"/></g><g class="errorbar"><path class="yerror" d="M90.11,139.18h8m-4,0V147.52m-4,0h8" style="vector-effect: non-scaling-stroke; stroke-width: 2px; stroke: rgb(140, 86, 75); stroke-opacity: 1;"/><path class="xerror" d="M100.9,139.35v8m0,-4H87.33m0,-4v8" style="vector-effect: non-scaling-stroke; stroke-width: 2px; stroke: rgb(140, 86, 75); stroke-opacity: 1;"/></g><g class="errorbar"><path class="yerror" d="M97.49,134h8m-4,0V137.61m-4,0h8" style="vector-effect: non-scaling-stroke; stroke-width: 2px; stroke: rgb(140, 86, 75); stroke-opacity: 1;"/><path class="xerror" d="M108.27,131.8v8m0,-4H94.7m0,-4v8" style="vector-effect: non-scaling-stroke; stroke-width: 2px; stroke: rgb(140, 86, 75); stroke-opacity: 1;"/></g><g class="errorbar"><path class="yerror" d="M95.94,142.04h8m-4,0V144.37m-4,0h8" style="vector-effect: non-scaling-stroke; stroke-width: 2px; stroke: rgb(140, 86, 75); stroke-opacity: 1;"/><path class="xerror" d="M106.73,139.2v8m0,-4H93.15m0,-4v8" style="vector-effect: non-scaling-stroke; stroke-width: 2px; stroke: rgb(140, 86, 75); stroke-opacity: 1;"/></g><g class="errorbar"><path class="yerror" d="M126.63,75.33h8m-4,0V79.09m-4,0h8" style="vector-effect: non-scaling-stroke; stroke-width: 2px; stroke: rgb(140, 86, 75); stroke-opacity: 1;"/><path class="xerror" d="M137.42,73.21v8m0,-4H123.84m0,-4v8" style="vector-effect: non-scaling-stroke; stroke-width: 2px; stroke: rgb(140, 86, 75); stroke-opacity: 1;"/></g><g class="errorbar"><path class="yerror" d="M143.26,95.65h8m-4,0V101.14m-4,0h8" style="vector-effect: non-scaling-stroke; stroke-width: 2px; stroke: rgb(140, 86, 75); stroke-opacity: 1;"/><path class="xerror" d="M154.05,94.39v8m0,-4H140.47m0,-4v8" style="vector-effect: non-scaling-stroke; stroke-width: 2px; stroke: rgb(140, 86, 75); stroke-opacity: 1;"/></g><g class="errorbar"><path class="yerror" d="M172.91,66.02h8m-4,0V75.11m-4,0h8" style="vector-effect: non-scaling-stroke; stroke-width: 2px; stroke: rgb(140, 86, 75); stroke-opacity: 1;"/><path class="xerror" d="M183.7,66.56v8m0,-4H170.13m0,-4v8" style="vector-effect: non-scaling-stroke; stroke-width: 2px; stroke: rgb(140, 86, 75); stroke-opacity: 1;"/></g><g class="errorbar"><path class="yerror" d="M129.37,103.65h8m-4,0V109.29m-4,0h8" style="vector-effect: non-scaling-stroke; stroke-width: 2px; stroke: rgb(140, 86, 75); stroke-opacity: 1;"/><path class="xerror" d="M140.16,102.47v8m0,-4H126.58m0,-4v8" style="vector-effect: non-scaling-stroke; stroke-width: 2px; stroke: rgb(140, 86, 75); stroke-opacity: 1;"/></g><g class="errorbar"><path class="yerror" d="M101.26,99.93h8m-4,0V105.57m-4,0h8" style="vector-effect: non-scaling-stroke; stroke-width: 2px; stroke: rgb(140, 86, 75); stroke-opacity: 1;"/><path class="xerror" d="M112.05,98.75v8m0,-4H98.47m0,-4v8" style="vector-effect: non-scaling-stroke; stroke-width: 2px; stroke: rgb(140, 86, 75); stroke-opacity: 1;"/></g><g class="errorbar"><path class="yerror" d="M59.26,124.95h8m-4,0V140.12m-4,0h8" style="vector-effect: non-scaling-stroke; stroke-width: 2px; stroke: rgb(140, 86, 75); stroke-opacity: 1;"/><path class="xerror" d="M70.05,128.53v8m0,-4H56.47m0,-4v8" style="vector-effect: non-scaling-stroke; stroke-width: 2px; stroke: rgb(140, 86, 75); stroke-opacity: 1;"/></g><g class="errorbar"><path class="yerror" d="M118.06,97.68h8m-4,0V101.66m-4,0h8" style="vector-effect: non-scaling-stroke; stroke-width: 2px; stroke: rgb(140, 86, 75); stroke-opacity: 1;"/><path class="xerror" d="M128.85,95.67v8m0,-4H115.27m0,-4v8" style="vector-effect: non-scaling-stroke; stroke-width: 2px; stroke: rgb(140, 86, 75); stroke-opacity: 1;"/></g><g class="errorbar"><path class="yerror" d="M132.8,81.76h8m-4,0V89.49m-4,0h8" style="vector-effect: non-scaling-stroke; stroke-width: 2px; stroke: rgb(140, 86, 75); stroke-opacity: 1;"/><path class="xerror" d="M143.59,81.62v8m0,-4H130.01m0,-4v8" style="vector-effect: non-scaling-stroke; stroke-width: 2px; stroke: rgb(140, 86, 75); stroke-opacity: 1;"/></g><g class="errorbar"><path class="yerror" d="M117.03,96.52h8m-4,0V100.12m-4,0h8" style="vector-effect: non-scaling-stroke; stroke-width: 2px; stroke: rgb(140, 86, 75); stroke-opacity: 1;"/><path class="xerror" d="M127.82,94.32v8m0,-4H114.24m0,-4v8" style="vector-effect: non-scaling-stroke; stroke-width: 2px; stroke: rgb(140, 86, 75); stroke-opacity: 1;"/></g><g class="errorbar"><path class="yerror" d="M115.83,100.99h8m-4,0V104.97m-4,0h8" style="vector-effect: non-scaling-stroke; stroke-width: 2px; stroke: rgb(140, 86, 75); stroke-opacity: 1;"/><path class="xerror" d="M126.62,98.98v8m0,-4H113.04m0,-4v8" style="vector-effect: non-scaling-stroke; stroke-width: 2px; stroke: rgb(140, 86, 75); stroke-opacity: 1;"/></g><g class="errorbar"><path class="yerror" d="M125.25999999999999,85.1h8m-4,0V97.64m-4,0h8" style="vector-effect: non-scaling-stroke; stroke-width: 2px; stroke: rgb(140, 86, 75); stroke-opacity: 1;"/><path class="xerror" d="M136.05,87.37v8m0,-4H122.47m0,-4v8" style="vector-effect: non-scaling-stroke; stroke-width: 2px; stroke: rgb(140, 86, 75); stroke-opacity: 1;"/></g><g class="errorbar"><path class="yerror" d="M150.11,100.69h8m-4,0V106.54m-4,0h8" style="vector-effect: non-scaling-stroke; stroke-width: 2px; stroke: rgb(140, 86, 75); stroke-opacity: 1;"/><path class="xerror" d="M160.9,99.62v8m0,-4H147.33m0,-4v8" style="vector-effect: non-scaling-stroke; stroke-width: 2px; stroke: rgb(140, 86, 75); stroke-opacity: 1;"/></g><g class="errorbar"><path class="yerror" d="M133.83,115.41h8m-4,0V119.77m-4,0h8" style="vector-effect: non-scaling-stroke; stroke-width: 2px; stroke: rgb(140, 86, 75); stroke-opacity: 1;"/><path class="xerror" d="M144.62,113.59v8m0,-4H131.04m0,-4v8" style="vector-effect: non-scaling-stroke; stroke-width: 2px; stroke: rgb(140, 86, 75); stroke-opacity: 1;"/></g><g class="errorbar"><path class="yerror" d="M123.89,109.66h8m-4,0V112.22m-4,0h8" style="vector-effect: non-scaling-stroke; stroke-width: 2px; stroke: rgb(140, 86, 75); stroke-opacity: 1;"/><path class="xerror" d="M134.67,106.94v8m0,-4H121.1m0,-4v8" style="vector-effect: non-scaling-stroke; stroke-width: 2px; stroke: rgb(140, 86, 75); stroke-opacity: 1;"/></g><g class="errorbar"><path class="yerror" d="M50.69,157.06h8m-4,0V166.52m-4,0h8" style="vector-effect: non-scaling-stroke; stroke-width: 2px; stroke: rgb(140, 86, 75); stroke-opacity: 1;"/><path class="xerror" d="M61.47,157.79v8m0,-4H47.9m0,-4v8" style="vector-effect: non-scaling-stroke; stroke-width: 2px; stroke: rgb(140, 86, 75); stroke-opacity: 1;"/></g><g class="errorbar"><path class="yerror" d="M88.06,128.25h8m-4,0V133.44m-4,0h8" style="vector-effect: non-scaling-stroke; stroke-width: 2px; stroke: rgb(140, 86, 75); stroke-opacity: 1;"/><path class="xerror" d="M98.85,126.84v8m0,-4H85.27m0,-4v8" style="vector-effect: non-scaling-stroke; stroke-width: 2px; stroke: rgb(140, 86, 75); stroke-opacity: 1;"/></g><g class="errorbar"><path class="yerror" d="M58.4,130.99h8m-4,0V135.05m-4,0h8" style="vector-effect: non-scaling-stroke; stroke-width: 2px; stroke: rgb(140, 86, 75); stroke-opacity: 1;"/><path class="xerror" d="M69.19,129.02v8m0,-4H55.61m0,-4v8" style="vector-effect: non-scaling-stroke; stroke-width: 2px; stroke: rgb(140, 86, 75); stroke-opacity: 1;"/></g><g class="errorbar"><path class="yerror" d="M72.11,126.98h8m-4,0V130.21m-4,0h8" style="vector-effect: non-scaling-stroke; stroke-width: 2px; stroke: rgb(140, 86, 75); stroke-opacity: 1;"/><path class="xerror" d="M82.9,124.59v8m0,-4H69.33m0,-4v8" style="vector-effect: non-scaling-stroke; stroke-width: 2px; stroke: rgb(140, 86, 75); stroke-opacity: 1;"/></g><g class="errorbar"><path class="yerror" d="M158,64.52h8m-4,0V68.65m-4,0h8" style="vector-effect: non-scaling-stroke; stroke-width: 2px; stroke: rgb(140, 86, 75); stroke-opacity: 1;"/><path class="xerror" d="M168.79,62.58v8m0,-4H155.21m0,-4v8" style="vector-effect: non-scaling-stroke; stroke-width: 2px; stroke: rgb(140, 86, 75); stroke-opacity: 1;"/></g><g class="errorbar"><path class="yerror" d="M114.63,101.85h8m-4,0V103.8m-4,0h8" style="vector-effect: non-scaling-stroke; stroke-width: 2px; stroke: rgb(140, 86, 75); stroke-opacity: 1;"/><path class="xerror" d="M125.42,98.83v8m0,-4H111.84m0,-4v8" style="vector-effect: non-scaling-stroke; stroke-width: 2px; stroke: rgb(140, 86, 75); stroke-opacity: 1;"/></g><g class="errorbar"><path class="yerror" d="M129.2,74.21h8m-4,0V81.94m-4,0h8" style="vector-effect: non-scaling-stroke; stroke-width: 2px; stroke: rgb(140, 86, 75); stroke-opacity: 1;"/><path class="xerror" d="M139.99,74.08v8m0,-4H126.41m0,-4v8" style="vector-effect: non-scaling-stroke; stroke-width: 2px; stroke: rgb(140, 86, 75); stroke-opacity: 1;"/></g><g class="errorbar"><path class="yerror" d="M130.23,88.4h8m-4,0V95.69m-4,0h8" style="vector-effect: non-scaling-stroke; stroke-width: 2px; stroke: rgb(140, 86, 75); stroke-opacity: 1;"/><path class="xerror" d="M141.02,88.05v8m0,-4H127.44m0,-4v8" style="vector-effect: non-scaling-stroke; stroke-width: 2px; stroke: rgb(140, 86, 75); stroke-opacity: 1;"/></g><g class="errorbar"><path class="yerror" d="M125.43,80.44h8m-4,0V94.56m-4,0h8" style="vector-effect: non-scaling-stroke; stroke-width: 2px; stroke: rgb(140, 86, 75); stroke-opacity: 1;"/><path class="xerror" d="M136.22,83.5v8m0,-4H122.64m0,-4v8" style="vector-effect: non-scaling-stroke; stroke-width: 2px; stroke: rgb(140, 86, 75); stroke-opacity: 1;"/></g><g class="errorbar"><path class="yerror" d="M114.11,109.74h8m-4,0V113.49m-4,0h8" style="vector-effect: non-scaling-stroke; stroke-width: 2px; stroke: rgb(140, 86, 75); stroke-opacity: 1;"/><path class="xerror" d="M124.9,107.61v8m0,-4H111.33m0,-4v8" style="vector-effect: non-scaling-stroke; stroke-width: 2px; stroke: rgb(140, 86, 75); stroke-opacity: 1;"/></g><g class="errorbar"><path class="yerror" d="M96.11,140.01h8m-4,0V143.76m-4,0h8" style="vector-effect: non-scaling-stroke; stroke-width: 2px; stroke: rgb(140, 86, 75); stroke-opacity: 1;"/><path class="xerror" d="M106.9,137.89v8m0,-4H93.33m0,-4v8" style="vector-effect: non-scaling-stroke; stroke-width: 2px; stroke: rgb(140, 86, 75); stroke-opacity: 1;"/></g><g class="errorbar"><path class="yerror" d="M115.14,76.8h8m-4,0V81.23m-4,0h8" style="vector-effect: non-scaling-stroke; stroke-width: 2px; stroke: rgb(140, 86, 75); stroke-opacity: 1;"/><path class="xerror" d="M125.93,75.01v8m0,-4H112.35m0,-4v8" style="vector-effect: non-scaling-stroke; stroke-width: 2px; stroke: rgb(140, 86, 75); stroke-opacity: 1;"/></g><g class="errorbar"><path class="yerror" d="M179.43,45.78h8m-4,0V52.01m-4,0h8" style="vector-effect: non-scaling-stroke; stroke-width: 2px; stroke: rgb(140, 86, 75); stroke-opacity: 1;"/><path class="xerror" d="M190.22,44.89v8m0,-4H176.64m0,-4v8" style="vector-effect: non-scaling-stroke; stroke-width: 2px; stroke: rgb(140, 86, 75); stroke-opacity: 1;"/></g><g class="errorbar"><path class="yerror" d="M114.46,111.24h8m-4,0V112.59m-4,0h8" style="vector-effect: non-scaling-stroke; stroke-width: 2px; stroke: rgb(140, 86, 75); stroke-opacity: 1;"/><path class="xerror" d="M125.25,107.92v8m0,-4H111.67m0,-4v8" style="vector-effect: non-scaling-stroke; stroke-width: 2px; stroke: rgb(140, 86, 75); stroke-opacity: 1;"/></g><g class="errorbar"><path class="yerror" d="M99.37,94.23h8m-4,0V97.31m-4,0h8" style="vector-effect: non-scaling-stroke; stroke-width: 2px; stroke: rgb(140, 86, 75); stroke-opacity: 1;"/><path class="xerror" d="M110.16,91.77v8m0,-4H96.58m0,-4v8" style="vector-effect: non-scaling-stroke; stroke-width: 2px; stroke: rgb(140, 86, 75); stroke-opacity: 1;"/></g><g class="errorbar"><path class="yerror" d="M125.09,109.47h8m-4,0V115.03m-4,0h8" style="vector-effect: non-scaling-stroke; stroke-width: 2px; stroke: rgb(140, 86, 75); stroke-opacity: 1;"/><path class="xerror" d="M135.87,108.25v8m0,-4H122.3m0,-4v8" style="vector-effect: non-scaling-stroke; stroke-width: 2px; stroke: rgb(140, 86, 75); stroke-opacity: 1;"/></g><g class="errorbar"><path class="yerror" d="M161.43,113.61h8m-4,0V120.37m-4,0h8" style="vector-effect: non-scaling-stroke; stroke-width: 2px; stroke: rgb(140, 86, 75); stroke-opacity: 1;"/><path class="xerror" d="M172.22,112.99v8m0,-4H158.64m0,-4v8" style="vector-effect: non-scaling-stroke; stroke-width: 2px; stroke: rgb(140, 86, 75); stroke-opacity: 1;"/></g><g class="errorbar"><path class="yerror" d="M112.06,88.18h8m-4,0V98.77m-4,0h8" style="vector-effect: non-scaling-stroke; stroke-width: 2px; stroke: rgb(140, 86, 75); stroke-opacity: 1;"/><path class="xerror" d="M122.85,89.47v8m0,-4H109.27m0,-4v8" style="vector-effect: non-scaling-stroke; stroke-width: 2px; stroke: rgb(140, 86, 75); stroke-opacity: 1;"/></g><g class="errorbar"><path class="yerror" d="M118.74,88.85h8m-4,0V99.45m-4,0h8" style="vector-effect: non-scaling-stroke; stroke-width: 2px; stroke: rgb(140, 86, 75); stroke-opacity: 1;"/><path class="xerror" d="M129.53,90.15v8m0,-4H115.95m0,-4v8" style="vector-effect: non-scaling-stroke; stroke-width: 2px; stroke: rgb(140, 86, 75); stroke-opacity: 1;"/></g><g class="errorbar"><path class="yerror" d="M101.94,83.82h8m-4,0V102m-4,0h8" style="vector-effect: non-scaling-stroke; stroke-width: 2px; stroke: rgb(140, 86, 75); stroke-opacity: 1;"/><path class="xerror" d="M112.73,88.91v8m0,-4H99.15m0,-4v8" style="vector-effect: non-scaling-stroke; stroke-width: 2px; stroke: rgb(140, 86, 75); stroke-opacity: 1;"/></g><g class="errorbar"><path class="yerror" d="M94.57,95.47h8m-4,0V119.5m-4,0h8" style="vector-effect: non-scaling-stroke; stroke-width: 2px; stroke: rgb(140, 86, 75); stroke-opacity: 1;"/><path class="xerror" d="M105.36,103.48v8m0,-4H91.78m0,-4v8" style="vector-effect: non-scaling-stroke; stroke-width: 2px; stroke: rgb(140, 86, 75); stroke-opacity: 1;"/></g><g class="errorbar"><path class="yerror" d="M108.29,92.72h8m-4,0V103.31m-4,0h8" style="vector-effect: non-scaling-stroke; stroke-width: 2px; stroke: rgb(140, 86, 75); stroke-opacity: 1;"/><path class="xerror" d="M119.07,94.02v8m0,-4H105.5m0,-4v8" style="vector-effect: non-scaling-stroke; stroke-width: 2px; stroke: rgb(140, 86, 75); stroke-opacity: 1;"/></g><g class="errorbar"><path class="yerror" d="M161.43,58.7h8m-4,0V65.53m-4,0h8" style="vector-effect: non-scaling-stroke; stroke-width: 2px; stroke: rgb(140, 86, 75); stroke-opacity: 1;"/><path class="xerror" d="M172.22,58.11v8m0,-4H158.64m0,-4v8" style="vector-effect: non-scaling-stroke; stroke-width: 2px; stroke: rgb(140, 86, 75); stroke-opacity: 1;"/></g><g class="errorbar"><path class="yerror" d="M117.54,76.16h8m-4,0V84.57m-4,0h8" style="vector-effect: non-scaling-stroke; stroke-width: 2px; stroke: rgb(140, 86, 75); stroke-opacity: 1;"/><path class="xerror" d="M128.33,76.37v8m0,-4H114.75m0,-4v8" style="vector-effect: non-scaling-stroke; stroke-width: 2px; stroke: rgb(140, 86, 75); stroke-opacity: 1;"/></g><g class="errorbar"><path class="yerror" d="M69.71,131.82h8m-4,0V134.68m-4,0h8" style="vector-effect: non-scaling-stroke; stroke-width: 2px; stroke: rgb(140, 86, 75); stroke-opacity: 1;"/><path class="xerror" d="M80.5,129.25v8m0,-4H66.93m0,-4v8" style="vector-effect: non-scaling-stroke; stroke-width: 2px; stroke: rgb(140, 86, 75); stroke-opacity: 1;"/></g><g class="errorbar"><path class="yerror" d="M60.8,145.68h8m-4,0V149.14m-4,0h8" style="vector-effect: non-scaling-stroke; stroke-width: 2px; stroke: rgb(140, 86, 75); stroke-opacity: 1;"/><path class="xerror" d="M71.59,143.41v8m0,-4H58.01m0,-4v8" style="vector-effect: non-scaling-stroke; stroke-width: 2px; stroke: rgb(140, 86, 75); stroke-opacity: 1;"/></g><g class="errorbar"><path class="yerror" d="M59.94,132.16h8m-4,0V140.27m-4,0h8" style="vector-effect: non-scaling-stroke; stroke-width: 2px; stroke: rgb(140, 86, 75); stroke-opacity: 1;"/><path class="xerror" d="M70.73,132.22v8m0,-4H57.15m0,-4v8" style="vector-effect: non-scaling-stroke; stroke-width: 2px; stroke: rgb(140, 86, 75); stroke-opacity: 1;"/></g><g class="errorbar"><path class="yerror" d="M74.69,101.02h8m-4,0V117.7m-4,0h8" style="vector-effect: non-scaling-stroke; stroke-width: 2px; stroke: rgb(140, 86, 75); stroke-opacity: 1;"/><path class="xerror" d="M85.47,105.36v8m0,-4H71.9m0,-4v8" style="vector-effect: non-scaling-stroke; stroke-width: 2px; stroke: rgb(140, 86, 75); stroke-opacity: 1;"/></g><g class="errorbar"><path class="yerror" d="M114.11,130.43h8m-4,0V133.59m-4,0h8" style="vector-effect: non-scaling-stroke; stroke-width: 2px; stroke: rgb(140, 86, 75); stroke-opacity: 1;"/><path class="xerror" d="M124.9,128.01v8m0,-4H111.33m0,-4v8" style="vector-effect: non-scaling-stroke; stroke-width: 2px; stroke: rgb(140, 86, 75); stroke-opacity: 1;"/></g><g class="errorbar"><path class="yerror" d="M157.14,101.62h8m-4,0V103.35m-4,0h8" style="vector-effect: non-scaling-stroke; stroke-width: 2px; stroke: rgb(140, 86, 75); stroke-opacity: 1;"/><path class="xerror" d="M167.93,98.49v8m0,-4H154.35m0,-4v8" style="vector-effect: non-scaling-stroke; stroke-width: 2px; stroke: rgb(140, 86, 75); stroke-opacity: 1;"/></g><g class="errorbar"><path class="yerror" d="M91.31,122.39h8m-4,0V148.31m-4,0h8" style="vector-effect: non-scaling-stroke; stroke-width: 2px; stroke: rgb(140, 86, 75); stroke-opacity: 1;"/><path class="xerror" d="M102.1,131.35v8m0,-4H88.53m0,-4v8" style="vector-effect: non-scaling-stroke; stroke-width: 2px; stroke: rgb(140, 86, 75); stroke-opacity: 1;"/></g><g class="errorbar"><path class="yerror" d="M72.97,130.13h8m-4,0V137.49m-4,0h8" style="vector-effect: non-scaling-stroke; stroke-width: 2px; stroke: rgb(140, 86, 75); stroke-opacity: 1;"/><path class="xerror" d="M83.76,129.81v8m0,-4H70.18m0,-4v8" style="vector-effect: non-scaling-stroke; stroke-width: 2px; stroke: rgb(140, 86, 75); stroke-opacity: 1;"/></g><g class="errorbar"><path class="yerror" d="M86.34,135.99h8m-4,0V149.59m-4,0h8" style="vector-effect: non-scaling-stroke; stroke-width: 2px; stroke: rgb(140, 86, 75); stroke-opacity: 1;"/><path class="xerror" d="M97.13,138.79v8m0,-4H83.55m0,-4v8" style="vector-effect: non-scaling-stroke; stroke-width: 2px; stroke: rgb(140, 86, 75); stroke-opacity: 1;"/></g><g class="errorbar"><path class="yerror" d="M123.37,82.28h8m-4,0V86.11m-4,0h8" style="vector-effect: non-scaling-stroke; stroke-width: 2px; stroke: rgb(140, 86, 75); stroke-opacity: 1;"/><path class="xerror" d="M134.16,80.2v8m0,-4H120.58m0,-4v8" style="vector-effect: non-scaling-stroke; stroke-width: 2px; stroke: rgb(140, 86, 75); stroke-opacity: 1;"/></g><g class="errorbar"><path class="yerror" d="M102.29,138.77h8m-4,0V143.73m-4,0h8" style="vector-effect: non-scaling-stroke; stroke-width: 2px; stroke: rgb(140, 86, 75); stroke-opacity: 1;"/><path class="xerror" d="M113.07,137.25v8m0,-4H99.5m0,-4v8" style="vector-effect: non-scaling-stroke; stroke-width: 2px; stroke: rgb(140, 86, 75); stroke-opacity: 1;"/></g><g class="errorbar"><path class="yerror" d="M112.23,113.79h8m-4,0V116.42m-4,0h8" style="vector-effect: non-scaling-stroke; stroke-width: 2px; stroke: rgb(140, 86, 75); stroke-opacity: 1;"/><path class="xerror" d="M123.02,111.11v8m0,-4H109.44m0,-4v8" style="vector-effect: non-scaling-stroke; stroke-width: 2px; stroke: rgb(140, 86, 75); stroke-opacity: 1;"/></g><g class="errorbar"><path class="yerror" d="M113.43,92.91h8m-4,0V96.22m-4,0h8" style="vector-effect: non-scaling-stroke; stroke-width: 2px; stroke: rgb(140, 86, 75); stroke-opacity: 1;"/><path class="xerror" d="M124.22,90.56v8m0,-4H110.64m0,-4v8" style="vector-effect: non-scaling-stroke; stroke-width: 2px; stroke: rgb(140, 86, 75); stroke-opacity: 1;"/></g><g class="errorbar"><path class="yerror" d="M101.26,126.07h8m-4,0V128.78m-4,0h8" style="vector-effect: non-scaling-stroke; stroke-width: 2px; stroke: rgb(140, 86, 75); stroke-opacity: 1;"/><path class="xerror" d="M112.05,123.43v8m0,-4H98.47m0,-4v8" style="vector-effect: non-scaling-stroke; stroke-width: 2px; stroke: rgb(140, 86, 75); stroke-opacity: 1;"/></g><g class="errorbar"><path class="yerror" d="M107.77,112.07h8m-4,0V117.32m-4,0h8" style="vector-effect: non-scaling-stroke; stroke-width: 2px; stroke: rgb(140, 86, 75); stroke-opacity: 1;"/><path class="xerror" d="M118.56,110.69v8m0,-4H104.98m0,-4v8" style="vector-effect: non-scaling-stroke; stroke-width: 2px; stroke: rgb(140, 86, 75); stroke-opacity: 1;"/></g><g class="errorbar"><path class="yerror" d="M88.23,143.73h8m-4,0V154.77m-4,0h8" style="vector-effect: non-scaling-stroke; stroke-width: 2px; stroke: rgb(140, 86, 75); stroke-opacity: 1;"/><path class="xerror" d="M99.02,145.25v8m0,-4H85.44m0,-4v8" style="vector-effect: non-scaling-stroke; stroke-width: 2px; stroke: rgb(140, 86, 75); stroke-opacity: 1;"/></g><g class="errorbar"><path class="yerror" d="M167.77,67.11h8m-4,0V80.7m-4,0h8" style="vector-effect: non-scaling-stroke; stroke-width: 2px; stroke: rgb(140, 86, 75); stroke-opacity: 1;"/><path class="xerror" d="M178.56,69.91v8m0,-4H164.98m0,-4v8" style="vector-effect: non-scaling-stroke; stroke-width: 2px; stroke: rgb(140, 86, 75); stroke-opacity: 1;"/></g><g class="errorbar"><path class="yerror" d="M122.34,46.45h8m-4,0V62.45m-4,0h8" style="vector-effect: non-scaling-stroke; stroke-width: 2px; stroke: rgb(140, 86, 75); stroke-opacity: 1;"/><path class="xerror" d="M133.13,50.45v8m0,-4H119.55m0,-4v8" style="vector-effect: non-scaling-stroke; stroke-width: 2px; stroke: rgb(140, 86, 75); stroke-opacity: 1;"/></g></g><g class="lines"/><g class="points"><path class="point" transform="translate(99.43,124.01)" d="M1.5,0A1.5,1.5 0 1,1 0,-1.5A1.5,1.5 0 0,1 1.5,0Z" style="opacity: 1; stroke-width: 0px; fill: rgb(140, 86, 75); fill-opacity: 1;"/><path class="point" transform="translate(94.11,143.35)" d="M1.5,0A1.5,1.5 0 1,1 0,-1.5A1.5,1.5 0 0,1 1.5,0Z" style="opacity: 1; stroke-width: 0px; fill: rgb(140, 86, 75); fill-opacity: 1;"/><path class="point" transform="translate(101.49,135.8)" d="M1.5,0A1.5,1.5 0 1,1 0,-1.5A1.5,1.5 0 0,1 1.5,0Z" style="opacity: 1; stroke-width: 0px; fill: rgb(140, 86, 75); fill-opacity: 1;"/><path class="point" transform="translate(99.94,143.2)" d="M1.5,0A1.5,1.5 0 1,1 0,-1.5A1.5,1.5 0 0,1 1.5,0Z" style="opacity: 1; stroke-width: 0px; fill: rgb(140, 86, 75); fill-opacity: 1;"/><path class="point" transform="translate(130.63,77.21)" d="M1.5,0A1.5,1.5 0 1,1 0,-1.5A1.5,1.5 0 0,1 1.5,0Z" style="opacity: 1; stroke-width: 0px; fill: rgb(140, 86, 75); fill-opacity: 1;"/><path class="point" transform="translate(147.26,98.39)" d="M1.5,0A1.5,1.5 0 1,1 0,-1.5A1.5,1.5 0 0,1 1.5,0Z" style="opacity: 1; stroke-width: 0px; fill: rgb(140, 86, 75); fill-opacity: 1;"/><path class="point" transform="translate(176.91,70.56)" d="M1.5,0A1.5,1.5 0 1,1 0,-1.5A1.5,1.5 0 0,1 1.5,0Z" style="opacity: 1; stroke-width: 0px; fill: rgb(140, 86, 75); fill-opacity: 1;"/><path class="point" transform="translate(133.37,106.47)" d="M1.5,0A1.5,1.5 0 1,1 0,-1.5A1.5,1.5 0 0,1 1.5,0Z" style="opacity: 1; stroke-width: 0px; fill: rgb(140, 86, 75); fill-opacity: 1;"/><path class="point" transform="translate(105.26,102.75)" d="M1.5,0A1.5,1.5 0 1,1 0,-1.5A1.5,1.5 0 0,1 1.5,0Z" style="opacity: 1; stroke-width: 0px; fill: rgb(140, 86, 75); fill-opacity: 1;"/><path class="point" transform="translate(63.26,132.53)" d="M1.5,0A1.5,1.5 0 1,1 0,-1.5A1.5,1.5 0 0,1 1.5,0Z" style="opacity: 1; stroke-width: 0px; fill: rgb(140, 86, 75); fill-opacity: 1;"/><path class="point" transform="translate(122.06,99.67)" d="M1.5,0A1.5,1.5 0 1,1 0,-1.5A1.5,1.5 0 0,1 1.5,0Z" style="opacity: 1; stroke-width: 0px; fill: rgb(140, 86, 75); fill-opacity: 1;"/><path class="point" transform="translate(136.8,85.62)" d="M1.5,0A1.5,1.5 0 1,1 0,-1.5A1.5,1.5 0 0,1 1.5,0Z" style="opacity: 1; stroke-width: 0px; fill: rgb(140, 86, 75); fill-opacity: 1;"/><path class="point" transform="translate(121.03,98.32)" d="M1.5,0A1.5,1.5 0 1,1 0,-1.5A1.5,1.5 0 0,1 1.5,0Z" style="opacity: 1; stroke-width: 0px; fill: rgb(140, 86, 75); fill-opacity: 1;"/><path class="point" transform="translate(119.83,102.98)" d="M1.5,0A1.5,1.5 0 1,1 0,-1.5A1.5,1.5 0 0,1 1.5,0Z" style="opacity: 1; stroke-width: 0px; fill: rgb(140, 86, 75); fill-opacity: 1;"/><path class="point" transform="translate(129.26,91.37)" d="M1.5,0A1.5,1.5 0 1,1 0,-1.5A1.5,1.5 0 0,1 1.5,0Z" style="opacity: 1; stroke-width: 0px; fill: rgb(140, 86, 75); fill-opacity: 1;"/><path class="point" transform="translate(154.11,103.62)" d="M1.5,0A1.5,1.5 0 1,1 0,-1.5A1.5,1.5 0 0,1 1.5,0Z" style="opacity: 1; stroke-width: 0px; fill: rgb(140, 86, 75); fill-opacity: 1;"/><path class="point" transform="translate(137.83,117.59)" d="M1.5,0A1.5,1.5 0 1,1 0,-1.5A1.5,1.5 0 0,1 1.5,0Z" style="opacity: 1; stroke-width: 0px; fill: rgb(140, 86, 75); fill-opacity: 1;"/><path class="point" transform="translate(127.89,110.94)" d="M1.5,0A1.5,1.5 0 1,1 0,-1.5A1.5,1.5 0 0,1 1.5,0Z" style="opacity: 1; stroke-width: 0px; fill: rgb(140, 86, 75); fill-opacity: 1;"/><path class="point" transform="translate(54.69,161.79)" d="M1.5,0A1.5,1.5 0 1,1 0,-1.5A1.5,1.5 0 0,1 1.5,0Z" style="opacity: 1; stroke-width: 0px; fill: rgb(140, 86, 75); fill-opacity: 1;"/><path class="point" transform="translate(92.06,130.84)" d="M1.5,0A1.5,1.5 0 1,1 0,-1.5A1.5,1.5 0 0,1 1.5,0Z" style="opacity: 1; stroke-width: 0px; fill: rgb(140, 86, 75); fill-opacity: 1;"/><path class="point" transform="translate(62.4,133.02)" d="M1.5,0A1.5,1.5 0 1,1 0,-1.5A1.5,1.5 0 0,1 1.5,0Z" style="opacity: 1; stroke-width: 0px; fill: rgb(140, 86, 75); fill-opacity: 1;"/><path class="point" transform="translate(76.11,128.59)" d="M1.5,0A1.5,1.5 0 1,1 0,-1.5A1.5,1.5 0 0,1 1.5,0Z" style="opacity: 1; stroke-width: 0px; fill: rgb(140, 86, 75); fill-opacity: 1;"/><path class="point" transform="translate(162,66.58)" d="M1.5,0A1.5,1.5 0 1,1 0,-1.5A1.5,1.5 0 0,1 1.5,0Z" style="opacity: 1; stroke-width: 0px; fill: rgb(140, 86, 75); fill-opacity: 1;"/><path class="point" transform="translate(118.63,102.83)" d="M1.5,0A1.5,1.5 0 1,1 0,-1.5A1.5,1.5 0 0,1 1.5,0Z" style="opacity: 1; stroke-width: 0px; fill: rgb(140, 86, 75); fill-opacity: 1;"/><path class="point" transform="translate(133.2,78.08)" d="M1.5,0A1.5,1.5 0 1,1 0,-1.5A1.5,1.5 0 0,1 1.5,0Z" style="opacity: 1; stroke-width: 0px; fill: rgb(140, 86, 75); fill-opacity: 1;"/><path class="point" transform="translate(134.23,92.05)" d="M1.5,0A1.5,1.5 0 1,1 0,-1.5A1.5,1.5 0 0,1 1.5,0Z" style="opacity: 1; stroke-width: 0px; fill: rgb(140, 86, 75); fill-opacity: 1;"/><path class="point" transform="translate(129.43,87.5)" d="M1.5,0A1.5,1.5 0 1,1 0,-1.5A1.5,1.5 0 0,1 1.5,0Z" style="opacity: 1; stroke-width: 0px; fill: rgb(140, 86, 75); fill-opacity: 1;"/><path class="point" transform="translate(118.11,111.61)" d="M1.5,0A1.5,1.5 0 1,1 0,-1.5A1.5,1.5 0 0,1 1.5,0Z" style="opacity: 1; stroke-width: 0px; fill: rgb(140, 86, 75); fill-opacity: 1;"/><path class="point" transform="translate(100.11,141.89)" d="M1.5,0A1.5,1.5 0 1,1 0,-1.5A1.5,1.5 0 0,1 1.5,0Z" style="opacity: 1; stroke-width: 0px; fill: rgb(140, 86, 75); fill-opacity: 1;"/><path class="point" transform="translate(119.14,79.01)" d="M1.5,0A1.5,1.5 0 1,1 0,-1.5A1.5,1.5 0 0,1 1.5,0Z" style="opacity: 1; stroke-width: 0px; fill: rgb(140, 86, 75); fill-opacity: 1;"/><path class="point" transform="translate(183.43,48.89)" d="M1.5,0A1.5,1.5 0 1,1 0,-1.5A1.5,1.5 0 0,1 1.5,0Z" style="opacity: 1; stroke-width: 0px; fill: rgb(140, 86, 75); fill-opacity: 1;"/><path class="point" transform="translate(118.46,111.92)" d="M1.5,0A1.5,1.5 0 1,1 0,-1.5A1.5,1.5 0 0,1 1.5,0Z" style="opacity: 1; stroke-width: 0px; fill: rgb(140, 86, 75); fill-opacity: 1;"/><path class="point" transform="translate(103.37,95.77)" d="M1.5,0A1.5,1.5 0 1,1 0,-1.5A1.5,1.5 0 0,1 1.5,0Z" style="opacity: 1; stroke-width: 0px; fill: rgb(140, 86, 75); fill-opacity: 1;"/><path class="point" transform="translate(129.09,112.25)" d="M1.5,0A1.5,1.5 0 1,1 0,-1.5A1.5,1.5 0 0,1 1.5,0Z" style="opacity: 1; stroke-width: 0px; fill: rgb(140, 86, 75); fill-opacity: 1;"/><path class="point" transform="translate(165.43,116.99)" d="M1.5,0A1.5,1.5 0 1,1 0,-1.5A1.5,1.5 0 0,1 1.5,0Z" style="opacity: 1; stroke-width: 0px; fill: rgb(140, 86, 75); fill-opacity: 1;"/><path class="point" transform="translate(116.06,93.47)" d="M1.5,0A1.5,1.5 0 1,1 0,-1.5A1.5,1.5 0 0,1 1.5,0Z" style="opacity: 1; stroke-width: 0px; fill: rgb(140, 86, 75); fill-opacity: 1;"/><path class="point" transform="translate(122.74,94.15)" d="M1.5,0A1.5,1.5 0 1,1 0,-1.5A1.5,1.5 0 0,1 1.5,0Z" style="opacity: 1; stroke-width: 0px; fill: rgb(140, 86, 75); fill-opacity: 1;"/><path class="point" transform="translate(105.94,92.91)" d="M1.5,0A1.5,1.5 0 1,1 0,-1.5A1.5,1.5 0 0,1 1.5,0Z" style="opacity: 1; stroke-width: 0px; fill: rgb(140, 86, 75); fill-opacity: 1;"/><path class="point" transform="translate(98.57,107.48)" d="M1.5,0A1.5,1.5 0 1,1 0,-1.5A1.5,1.5 0 0,1 1.5,0Z" style="opacity: 1; stroke-width: 0px; fill: rgb(140, 86, 75); fill-opacity: 1;"/><path class="point" transform="translate(112.29,98.02)" d="M1.5,0A1.5,1.5 0 1,1 0,-1.5A1.5,1.5 0 0,1 1.5,0Z" style="opacity: 1; stroke-width: 0px; fill: rgb(140, 86, 75); fill-opacity: 1;"/><path class="point" transform="translate(165.43,62.11)" d="M1.5,0A1.5,1.5 0 1,1 0,-1.5A1.5,1.5 0 0,1 1.5,0Z" style="opacity: 1; stroke-width: 0px; fill: rgb(140, 86, 75); fill-opacity: 1;"/><path class="point" transform="translate(121.54,80.37)" d="M1.5,0A1.5,1.5 0 1,1 0,-1.5A1.5,1.5 0 0,1 1.5,0Z" style="opacity: 1; stroke-width: 0px; fill: rgb(140, 86, 75); fill-opacity: 1;"/><path class="point" transform="translate(73.71,133.25)" d="M1.5,0A1.5,1.5 0 1,1 0,-1.5A1.5,1.5 0 0,1 1.5,0Z" style="opacity: 1; stroke-width: 0px; fill: rgb(140, 86, 75); fill-opacity: 1;"/><path class="point" transform="translate(64.8,147.41)" d="M1.5,0A1.5,1.5 0 1,1 0,-1.5A1.5,1.5 0 0,1 1.5,0Z" style="opacity: 1; stroke-width: 0px; fill: rgb(140, 86, 75); fill-opacity: 1;"/><path class="point" transform="translate(63.94,136.22)" d="M1.5,0A1.5,1.5 0 1,1 0,-1.5A1.5,1.5 0 0,1 1.5,0Z" style="opacity: 1; stroke-width: 0px; fill: rgb(140, 86, 75); fill-opacity: 1;"/><path class="point" transform="translate(78.69,109.36)" d="M1.5,0A1.5,1.5 0 1,1 0,-1.5A1.5,1.5 0 0,1 1.5,0Z" style="opacity: 1; stroke-width: 0px; fill: rgb(140, 86, 75); fill-opacity: 1;"/><path class="point" transform="translate(118.11,132.01)" d="M1.5,0A1.5,1.5 0 1,1 0,-1.5A1.5,1.5 0 0,1 1.5,0Z" style="opacity: 1; stroke-width: 0px; fill: rgb(140, 86, 75); fill-opacity: 1;"/><path class="point" transform="translate(161.14,102.49)" d="M1.5,0A1.5,1.5 0 1,1 0,-1.5A1.5,1.5 0 0,1 1.5,0Z" style="opacity: 1; stroke-width: 0px; fill: rgb(140, 86, 75); fill-opacity: 1;"/><path class="point" transform="translate(95.31,135.35)" d="M1.5,0A1.5,1.5 0 1,1 0,-1.5A1.5,1.5 0 0,1 1.5,0Z" style="opacity: 1; stroke-width: 0px; fill: rgb(140, 86, 75); fill-opacity: 1;"/><path class="point" transform="translate(76.97,133.81)" d="M1.5,0A1.5,1.5 0 1,1 0,-1.5A1.5,1.5 0 0,1 1.5,0Z" style="opacity: 1; stroke-width: 0px; fill: rgb(140, 86, 75); fill-opacity: 1;"/><path class="point" transform="translate(90.34,142.79)" d="M1.5,0A1.5,1.5 0 1,1 0,-1.5A1.5,1.5 0 0,1 1.5,0Z" style="opacity: 1; stroke-width: 0px; fill: rgb(140, 86, 75); fill-opacity: 1;"/><path class="point" transform="translate(127.37,84.2)" d="M1.5,0A1.5,1.5 0 1,1 0,-1.5A1.5,1.5 0 0,1 1.5,0Z" style="opacity: 1; stroke-width: 0px; fill: rgb(140, 86, 75); fill-opacity: 1;"/><path class="point" transform="translate(106.29,141.25)" d="M1.5,0A1.5,1.5 0 1,1 0,-1.5A1.5,1.5 0 0,1 1.5,0Z" style="opacity: 1; stroke-width: 0px; fill: rgb(140, 86, 75); fill-opacity: 1;"/><path class="point" transform="translate(116.23,115.11)" d="M1.5,0A1.5,1.5 0 1,1 0,-1.5A1.5,1.5 0 0,1 1.5,0Z" style="opacity: 1; stroke-width: 0px; fill: rgb(140, 86, 75); fill-opacity: 1;"/><path class="point" transform="translate(117.43,94.56)" d="M1.5,0A1.5,1.5 0 1,1 0,-1.5A1.5,1.5 0 0,1 1.5,0Z" style="opacity: 1; stroke-width: 0px; fill: rgb(140, 86, 75); fill-opacity: 1;"/><path class="point" transform="translate(105.26,127.43)" d="M1.5,0A1.5,1.5 0 1,1 0,-1.5A1.5,1.5 0 0,1 1.5,0Z" style="opacity: 1; stroke-width: 0px; fill: rgb(140, 86, 75); fill-opacity: 1;"/><path class="point" transform="translate(111.77,114.69)" d="M1.5,0A1.5,1.5 0 1,1 0,-1.5A1.5,1.5 0 0,1 1.5,0Z" style="opacity: 1; stroke-width: 0px; fill: rgb(140, 86, 75); fill-opacity: 1;"/><path class="point" transform="translate(92.23,149.25)" d="M1.5,0A1.5,1.5 0 1,1 0,-1.5A1.5,1.5 0 0,1 1.5,0Z" style="opacity: 1; stroke-width: 0px; fill: rgb(140, 86, 75); fill-opacity: 1;"/><path class="point" transform="translate(171.77,73.91)" d="M1.5,0A1.5,1.5 0 1,1 0,-1.5A1.5,1.5 0 0,1 1.5,0Z" style="opacity: 1; stroke-width: 0px; fill: rgb(140, 86, 75); fill-opacity: 1;"/><path class="point" transform="translate(126.34,54.45)" d="M1.5,0A1.5,1.5 0 1,1 0,-1.5A1.5,1.5 0 0,1 1.5,0Z" style="opacity: 1; stroke-width: 0px; fill: rgb(140, 86, 75); fill-opacity: 1;"/></g><g class="text"/></g></g></g><g class="overplot"/><path class="xlines-above crisp" d="M79,320.5H320" style="fill: none; stroke-width: 1px; stroke: rgb(36, 36, 36); stroke-opacity: 1;"/><path class="ylines-above crisp" d="M79.5,100V320" style="fill: none; stroke-width: 1px; stroke: rgb(36, 36, 36); stroke-opacity: 1;"/><g class="overlines-above"/><g class="xaxislayer-above"><path class="xtick ticks crisp" d="M0,321v5" transform="translate(114.28999999999999,0)" style="stroke: rgb(68, 68, 68); stroke-opacity: 1; stroke-width: 1px;"/><path class="xtick ticks crisp" d="M0,321v5" transform="translate(200,0)" style="stroke: rgb(68, 68, 68); stroke-opacity: 1; stroke-width: 1px;"/><path class="xtick ticks crisp" d="M0,321v5" transform="translate(285.71000000000004,0)" style="stroke: rgb(68, 68, 68); stroke-opacity: 1; stroke-width: 1px;"/><g class="xtick"><text text-anchor="middle" x="0" y="340.4" transform="translate(114.28999999999999,0)" style="font-family: 'Open Sans', verdana, arial, sans-serif; font-size: 12px; fill: rgb(36, 36, 36); fill-opacity: 1; white-space: pre; opacity: 1;">−5</text></g><g class="xtick"><text text-anchor="middle" x="0" y="340.4" style="font-family: 'Open Sans', verdana, arial, sans-serif; font-size: 12px; fill: rgb(36, 36, 36); fill-opacity: 1; white-space: pre; opacity: 1;" transform="translate(200,0)">0</text></g><g class="xtick"><text text-anchor="middle" x="0" y="340.4" style="font-family: 'Open Sans', verdana, arial, sans-serif; font-size: 12px; fill: rgb(36, 36, 36); fill-opacity: 1; white-space: pre; opacity: 1;" transform="translate(285.71000000000004,0)">5</text></g></g><g class="yaxislayer-above"><path class="ytick ticks crisp" d="M79,0h-5" transform="translate(0,288.57)" style="stroke: rgb(68, 68, 68); stroke-opacity: 1; stroke-width: 1px;"/><path class="ytick ticks crisp" d="M79,0h-5" transform="translate(0,210)" style="stroke: rgb(68, 68, 68); stroke-opacity: 1; stroke-width: 1px;"/><path class="ytick ticks crisp" d="M79,0h-5" transform="translate(0,131.43)" style="stroke: rgb(68, 68, 68); stroke-opacity: 1; stroke-width: 1px;"/><g class="ytick"><text text-anchor="end" x="71.6" y="4.199999999999999" transform="translate(0,288.57)" style="font-family: 'Open Sans', verdana, arial, sans-serif; font-size: 12px; fill: rgb(36, 36, 36); fill-opacity: 1; white-space: pre; opacity: 1;">−5</text></g><g class="ytick"><text text-anchor="end" x="71.6" y="4.199999999999999" style="font-family: 'Open Sans', verdana, arial, sans-serif; font-size: 12px; fill: rgb(36, 36, 36); fill-opacity: 1; white-space: pre; opacity: 1;" transform="translate(0,210)">0</text></g><g class="ytick"><text text-anchor="end" x="71.6" y="4.199999999999999" style="font-family: 'Open Sans', verdana, arial, sans-serif; font-size: 12px; fill: rgb(36, 36, 36); fill-opacity: 1; white-space: pre; opacity: 1;" transform="translate(0,131.43)">5</text></g></g><g class="overaxes-above"/></g></g><g class="polarlayer"/><g class="smithlayer"/><g class="ternarylayer"/><g class="geolayer"/><g class="funnelarealayer"/><g class="pielayer"/><g class="iciclelayer"/><g class="treemaplayer"/><g class="sunburstlayer"/><g class="glimages"/><defs id="topdefs-07c54d"><g class="clips"/></defs><g class="layer-above"><g class="imagelayer"/><g class="shapelayer"/></g><g class="infolayer"><g class="g-gtitle"><text class="gtitle" x="80" y="40" text-anchor="start" dy="0.7em" style="font-family: 'Open Sans', verdana, arial, sans-serif; font-size: 12px; fill: rgb(36, 36, 36); opacity: 1; font-weight: normal; white-space: pre;"><tspan class="line" dy="0em" x="80" y="40">bace_hunt (N = 60)</tspan><tspan class="line" dy="1.3em" x="80" y="40">RMSE: 1.22 [95%:  1.03,  1.42]</tspan><tspan class="line" dy="2.6em" x="80" y="40">MUE:  1.05 [95%:  0.84,  1.19]</tspan></text></g><g class="g-xtitle"><text class="xtitle" x="200" y="369.20625" text-anchor="middle" style="font-family: 'Open Sans', verdana, arial, sans-serif; font-size: 14px; fill: rgb(36, 36, 36); opacity: 1; font-weight: normal; white-space: pre;">DDG Exp. [kcal/mol]</text></g><g class="g-ytitle"><text class="ytitle" transform="rotate(-90,33.075,210)" x="33.075" y="210" text-anchor="middle" style="font-family: 'Open Sans', verdana, arial, sans-serif; font-size: 14px; fill: rgb(36, 36, 36); opacity: 1; font-weight: normal; white-space: pre;">DDG GAFF2.1x [kcal/mol]</text></g></g></svg>