<svg class="main-svg" xmlns="http://www.w3.org/2000/svg" xmlns:xlink="http://www.w3.org/1999/xlink" width="400" height="400" style="" viewBox="0 0 400 400"><rect x="0" y="0" width="400" height="400" style="fill: rgb(255, 255, 255); fill-opacity: 1;"/><defs id="defs-07581a"><g class="clips"><clipPath id="clip07581axyplot" class="plotclip"><rect width="240" height="220"/></clipPath><clipPath class="axesclip" id="clip07581ax"><rect x="80" y="0" width="240" height="400"/></clipPath><clipPath class="axesclip" id="clip07581ay"><rect x="0" y="100" width="400" height="220"/></clipPath><clipPath class="axesclip" id="clip07581axy"><rect x="80" y="100" width="240" height="220"/></clipPath></g><g class="gradients"/><g class="patterns"/></defs><g class="bglayer"/><g class="layer-below"><g class="imagelayer"/><g class="shapelayer"/></g><g class="cartesianlayer"><g class="subplot xy"><g class="layer-subplot"><g class="shapelayer"/><g class="imagelayer"/></g><g class="gridlayer"><g class="x"/><g class="y"/></g><g class="zerolinelayer"/><path class="xlines-below"/><path class="ylines-below"/><g class="overlines-below"/><g class="xaxislayer-below"/><g class="yaxislayer-below"/><g class="overaxes-below"/><g class="plot" transform="translate(80,100)" clip-path="url(#clip07581axyplot)"><g class="scatterlayer mlayer"><g class="trace scatter traceca680d" style="stroke-miterlimit: 2; opacity: 1;"><g class="fills"/><g class="errorbars"/><g class="lines"><path class="js-line" d="M120,220L120,0" style="vector-effect: non-scaling-stroke; fill: none; stroke: rgb(0, 0, 0); stroke-opacity: 1; stroke-width: 2px; opacity: 1;"/></g><g class="points"/><g class="text"/></g><g class="trace scatter traceb83ff8" style="stroke-miterlimit: 2; opacity: 1;"><g class="fills"/><g class="errorbars"/><g class="lines"><path class="js-line" d="M0,110L240,110" style="vector-effect: non-scaling-stroke; fill: none; stroke: rgb(0, 0, 0); stroke-opacity: 1; stroke-width: 2px; opacity: 1;"/></g><g class="points"/><g class="text"/></g><g class="trace scatter tracea2e5df" style="stroke-miterlimit: 2; opacity: 1;"><g class="fills"><g><path class="js-fill" d="M0,204.29L240,-15.71L240,15.71L0,235.71Z" style="fill: rgb(0, 0, 0); fill-opacity: 0.2; stroke-width: 0;"/></g></g><g class="errorbars"/><g class="lines"><path class="js-line" d="M0,204.29L240,-15.71L240,15.71L0,235.71" style="vector-effect: non-scaling-stroke; fill: none; stroke: rgb(44, 160, 44); stroke-opacity: 1; stroke-width: 0px; opacity: 1;"/></g><g class="points"/><g class="text"/></g><g class="trace scatter trace3aa802" style="stroke-miterlimit: 2; opacity: 1;"><g class="fills"><g><path class="js-fill" d="M0,212.14L240,-7.86L240,7.86L0,227.86Z" style="fill: rgb(0, 0, 0); fill-opacity: 0.2; stroke-width: 0;"/></g></g><g class="errorbars"/><g class="lines"><path class="js-line" d="M0,212.14L240,-7.86L240,7.86L0,227.86" style="vector-effect: non-scaling-stroke; fill: none; stroke: rgb(214, 39, 40); stroke-opacity: 1; stroke-width: 0px; opacity: 1;"/></g><g class="points"/><g class="text"/></g><g class="trace scatter traceea630f" style="stroke-miterlimit: 2; opacity: 1;"><g class="fills"/><g class="errorbars"/><g class="lines"><path class="js-line" d="M0,220L240,0" style="vector-effect: non-scaling-stroke; fill: none; stroke: rgb(0, 0, 0); stroke-opacity: 1; stroke-width: 2px; opacity: 1;"/></g><g class="points"/><g class="text"/></g><g class="trace scatter trace8d4c1d" style="stroke-miterlimit: 2; opacity: 1;"><g class="fills"/><g class="errorbars"><g class="errorbar"><path class="yerror" d="M117.37,140.23h8m-4,0V147.45m-4,0h8" style="vector-effect: non-scaling-stroke; stroke-width: 2px; stroke: rgb(140, 86, 75); stroke-opacity: 1;"/><path class="xerror" d="M128.16,139.84v8m0,-4H114.58m0,-4v8" style="vector-effect: non-scaling-stroke; stroke-width: 2px; stroke: rgb(140, 86, 75); stroke-opacity: 1;"/></g><g class="errorbar"><path class="yerror" d="M100.57,94.64h8m-4,0V98.02m-4,0h8" style="vector-effect: non-scaling-stroke; stroke-width: 2px; stroke: rgb(140, 86, 75); stroke-opacity: 1;"/><path class="xerror" d="M111.36,92.33v8m0,-4H97.78m0,-4v8" style="vector-effect: non-scaling-stroke; stroke-width: 2px; stroke: rgb(140, 86, 75); stroke-opacity: 1;"/></g><g class="errorbar"><path class="yerror" d="M105.2,105.68h8m-4,0V109.21m-4,0h8" style="vector-effect: non-scaling-stroke; stroke-width: 2px; stroke: rgb(140, 86, 75); stroke-opacity: 1;"/><path class="xerror" d="M115.99,103.45v8m0,-4H102.41m0,-4v8" style="vector-effect: non-scaling-stroke; stroke-width: 2px; stroke: rgb(140, 86, 75); stroke-opacity: 1;"/></g><g class="errorbar"><path class="yerror" d="M105.37,92.5h8m-4,0V94.38m-4,0h8" style="vector-effect: non-scaling-stroke; stroke-width: 2px; stroke: rgb(140, 86, 75); stroke-opacity: 1;"/><path class="xerror" d="M116.16,89.44v8m0,-4H102.58m0,-4v8" style="vector-effect: non-scaling-stroke; stroke-width: 2px; stroke: rgb(140, 86, 75); stroke-opacity: 1;"/></g><g class="errorbar"><path class="yerror" d="M113.6,113.34h8m-4,0V116.42m-4,0h8" style="vector-effect: non-scaling-stroke; stroke-width: 2px; stroke: rgb(140, 86, 75); stroke-opacity: 1;"/><path class="xerror" d="M124.39,110.88v8m0,-4H110.81m0,-4v8" style="vector-effect: non-scaling-stroke; stroke-width: 2px; stroke: rgb(140, 86, 75); stroke-opacity: 1;"/></g><g class="errorbar"><path class="yerror" d="M139.14,88.07h8m-4,0V97.38m-4,0h8" style="vector-effect: non-scaling-stroke; stroke-width: 2px; stroke: rgb(140, 86, 75); stroke-opacity: 1;"/><path class="xerror" d="M149.93,88.72v8m0,-4H136.35m0,-4v8" style="vector-effect: non-scaling-stroke; stroke-width: 2px; stroke: rgb(140, 86, 75); stroke-opacity: 1;"/></g><g class="errorbar"><path class="yerror" d="M139.49,93.06h8m-4,0V96.89m-4,0h8" style="vector-effect: non-scaling-stroke; stroke-width: 2px; stroke: rgb(140, 86, 75); stroke-opacity: 1;"/><path class="xerror" d="M150.27,90.98v8m0,-4H136.7m0,-4v8" style="vector-effect: non-scaling-stroke; stroke-width: 2px; stroke: rgb(140, 86, 75); stroke-opacity: 1;"/></g><g class="errorbar"><path class="yerror" d="M130.23,84.8h8m-4,0V93.21m-4,0h8" style="vector-effect: non-scaling-stroke; stroke-width: 2px; stroke: rgb(140, 86, 75); stroke-opacity: 1;"/><path class="xerror" d="M141.02,85.01v8m0,-4H127.44m0,-4v8" style="vector-effect: non-scaling-stroke; stroke-width: 2px; stroke: rgb(140, 86, 75); stroke-opacity: 1;"/></g><g class="errorbar"><path class="yerror" d="M136.57,107.82h8m-4,0V120.89m-4,0h8" style="vector-effect: non-scaling-stroke; stroke-width: 2px; stroke: rgb(140, 86, 75); stroke-opacity: 1;"/><path class="xerror" d="M147.36,110.36v8m0,-4H133.78m0,-4v8" style="vector-effect: non-scaling-stroke; stroke-width: 2px; stroke: rgb(140, 86, 75); stroke-opacity: 1;"/></g><g class="errorbar"><path class="yerror" d="M111.37,122.17h8m-4,0V124.05m-4,0h8" style="vector-effect: non-scaling-stroke; stroke-width: 2px; stroke: rgb(140, 86, 75); stroke-opacity: 1;"/><path class="xerror" d="M122.16,119.11v8m0,-4H108.58m0,-4v8" style="vector-effect: non-scaling-stroke; stroke-width: 2px; stroke: rgb(140, 86, 75); stroke-opacity: 1;"/></g><g class="errorbar"><path class="yerror" d="M133.83,65.79h8m-4,0V66.92m-4,0h8" style="vector-effect: non-scaling-stroke; stroke-width: 2px; stroke: rgb(140, 86, 75); stroke-opacity: 1;"/><path class="xerror" d="M144.62,62.36v8m0,-4H131.04m0,-4v8" style="vector-effect: non-scaling-stroke; stroke-width: 2px; stroke: rgb(140, 86, 75); stroke-opacity: 1;"/></g><g class="errorbar"><path class="yerror" d="M118.4,110.26h8m-4,0V111.54m-4,0h8" style="vector-effect: non-scaling-stroke; stroke-width: 2px; stroke: rgb(140, 86, 75); stroke-opacity: 1;"/><path class="xerror" d="M129.19,106.9v8m0,-4H115.61m0,-4v8" style="vector-effect: non-scaling-stroke; stroke-width: 2px; stroke: rgb(140, 86, 75); stroke-opacity: 1;"/></g><g class="errorbar"><path class="yerror" d="M119.77,86.75h8m-4,0V88.4m-4,0h8" style="vector-effect: non-scaling-stroke; stroke-width: 2px; stroke: rgb(140, 86, 75); stroke-opacity: 1;"/><path class="xerror" d="M130.56,83.58v8m0,-4H116.98m0,-4v8" style="vector-effect: non-scaling-stroke; stroke-width: 2px; stroke: rgb(140, 86, 75); stroke-opacity: 1;"/></g><g class="errorbar"><path class="yerror" d="M124.4,97.72h8m-4,0V103.13m-4,0h8" style="vector-effect: non-scaling-stroke; stroke-width: 2px; stroke: rgb(140, 86, 75); stroke-opacity: 1;"/><path class="xerror" d="M135.19,96.42v8m0,-4H121.61m0,-4v8" style="vector-effect: non-scaling-stroke; stroke-width: 2px; stroke: rgb(140, 86, 75); stroke-opacity: 1;"/></g><g class="errorbar"><path class="yerror" d="M105.03,92.69h8m-4,0V96.82m-4,0h8" style="vector-effect: non-scaling-stroke; stroke-width: 2px; stroke: rgb(140, 86, 75); stroke-opacity: 1;"/><path class="xerror" d="M115.82,90.75v8m0,-4H102.24m0,-4v8" style="vector-effect: non-scaling-stroke; stroke-width: 2px; stroke: rgb(140, 86, 75); stroke-opacity: 1;"/></g><g class="errorbar"><path class="yerror" d="M109.66,103.43h8m-4,0V105.98m-4,0h8" style="vector-effect: non-scaling-stroke; stroke-width: 2px; stroke: rgb(140, 86, 75); stroke-opacity: 1;"/><path class="xerror" d="M120.45,100.7v8m0,-4H106.87m0,-4v8" style="vector-effect: non-scaling-stroke; stroke-width: 2px; stroke: rgb(140, 86, 75); stroke-opacity: 1;"/></g><g class="errorbar"><path class="yerror" d="M118.91,112.7h8m-4,0V118.26m-4,0h8" style="vector-effect: non-scaling-stroke; stroke-width: 2px; stroke: rgb(140, 86, 75); stroke-opacity: 1;"/><path class="xerror" d="M129.7,111.48v8m0,-4H116.13m0,-4v8" style="vector-effect: non-scaling-stroke; stroke-width: 2px; stroke: rgb(140, 86, 75); stroke-opacity: 1;"/></g><g class="errorbar"><path class="yerror" d="M105.03,87.16h8m-4,0V89.49m-4,0h8" style="vector-effect: non-scaling-stroke; stroke-width: 2px; stroke: rgb(140, 86, 75); stroke-opacity: 1;"/><path class="xerror" d="M115.82,84.33v8m0,-4H102.24m0,-4v8" style="vector-effect: non-scaling-stroke; stroke-width: 2px; stroke: rgb(140, 86, 75); stroke-opacity: 1;"/></g><g class="errorbar"><path class="yerror" d="M117.03,64.7h8m-4,0V67.26m-4,0h8" style="vector-effect: non-scaling-stroke; stroke-width: 2px; stroke: rgb(140, 86, 75); stroke-opacity: 1;"/><path class="xerror" d="M127.82,61.980000000000004v8m0,-4H114.24m0,-4v8" style="vector-effect: non-scaling-stroke; stroke-width: 2px; stroke: rgb(140, 86, 75); stroke-opacity: 1;"/></g><g class="errorbar"><path class="yerror" d="M126.11000000000001,57.79h8m-4,0V64.18m-4,0h8" style="vector-effect: non-scaling-stroke; stroke-width: 2px; stroke: rgb(140, 86, 75); stroke-opacity: 1;"/><path class="xerror" d="M136.9,56.99v8m0,-4H123.33m0,-4v8" style="vector-effect: non-scaling-stroke; stroke-width: 2px; stroke: rgb(140, 86, 75); stroke-opacity: 1;"/></g><g class="errorbar"><path class="yerror" d="M110.86,147.33h8m-4,0V158.07m-4,0h8" style="vector-effect: non-scaling-stroke; stroke-width: 2px; stroke: rgb(140, 86, 75); stroke-opacity: 1;"/><path class="xerror" d="M121.65,148.7v8m0,-4H108.07m0,-4v8" style="vector-effect: non-scaling-stroke; stroke-width: 2px; stroke: rgb(140, 86, 75); stroke-opacity: 1;"/></g><g class="errorbar"><path class="yerror" d="M96.11,178.36h8m-4,0V183.61m-4,0h8" style="vector-effect: non-scaling-stroke; stroke-width: 2px; stroke: rgb(140, 86, 75); stroke-opacity: 1;"/><path class="xerror" d="M106.9,176.98v8m0,-4H93.33m0,-4v8" style="vector-effect: non-scaling-stroke; stroke-width: 2px; stroke: rgb(140, 86, 75); stroke-opacity: 1;"/></g><g class="errorbar"><path class="yerror" d="M120.8,109.89h8m-4,0V122.81m-4,0h8" style="vector-effect: non-scaling-stroke; stroke-width: 2px; stroke: rgb(140, 86, 75); stroke-opacity: 1;"/><path class="xerror" d="M131.59,112.35v8m0,-4H118.01m0,-4v8" style="vector-effect: non-scaling-stroke; stroke-width: 2px; stroke: rgb(140, 86, 75); stroke-opacity: 1;"/></g><g class="errorbar"><path class="yerror" d="M85.31,133.44h8m-4,0V139.07m-4,0h8" style="vector-effect: non-scaling-stroke; stroke-width: 2px; stroke: rgb(140, 86, 75); stroke-opacity: 1;"/><path class="xerror" d="M96.1,132.25v8m0,-4H82.53m0,-4v8" style="vector-effect: non-scaling-stroke; stroke-width: 2px; stroke: rgb(140, 86, 75); stroke-opacity: 1;"/></g><g class="errorbar"><path class="yerror" d="M100.06,113.98h8m-4,0V119.09m-4,0h8" style="vector-effect: non-scaling-stroke; stroke-width: 2px; stroke: rgb(140, 86, 75); stroke-opacity: 1;"/><path class="xerror" d="M110.85,112.54v8m0,-4H97.27m0,-4v8" style="vector-effect: non-scaling-stroke; stroke-width: 2px; stroke: rgb(140, 86, 75); stroke-opacity: 1;"/></g><g class="errorbar"><path class="yerror" d="M108.29,126.94h8m-4,0V127.92m-4,0h8" style="vector-effect: non-scaling-stroke; stroke-width: 2px; stroke: rgb(140, 86, 75); stroke-opacity: 1;"/><path class="xerror" d="M119.07,123.43v8m0,-4H105.5m0,-4v8" style="vector-effect: non-scaling-stroke; stroke-width: 2px; stroke: rgb(140, 86, 75); stroke-opacity: 1;"/></g><g class="errorbar"><path class="yerror" d="M116,113.49h8m-4,0V114.47m-4,0h8" style="vector-effect: non-scaling-stroke; stroke-width: 2px; stroke: rgb(140, 86, 75); stroke-opacity: 1;"/><path class="xerror" d="M126.79,109.98v8m0,-4H113.21m0,-4v8" style="vector-effect: non-scaling-stroke; stroke-width: 2px; stroke: rgb(140, 86, 75); stroke-opacity: 1;"/></g><g class="errorbar"><path class="yerror" d="M113.26,100.01h8m-4,0V101.96m-4,0h8" style="vector-effect: non-scaling-stroke; stroke-width: 2px; stroke: rgb(140, 86, 75); stroke-opacity: 1;"/><path class="xerror" d="M124.05,96.99v8m0,-4H110.47m0,-4v8" style="vector-effect: non-scaling-stroke; stroke-width: 2px; stroke: rgb(140, 86, 75); stroke-opacity: 1;"/></g><g class="errorbar"><path class="yerror" d="M105.89,112.07h8m-4,0V114.02m-4,0h8" style="vector-effect: non-scaling-stroke; stroke-width: 2px; stroke: rgb(140, 86, 75); stroke-opacity: 1;"/><path class="xerror" d="M116.67,109.04v8m0,-4H103.1m0,-4v8" style="vector-effect: non-scaling-stroke; stroke-width: 2px; stroke: rgb(140, 86, 75); stroke-opacity: 1;"/></g><g class="errorbar"><path class="yerror" d="M123.03,109.85h8m-4,0V113.91m-4,0h8" style="vector-effect: non-scaling-stroke; stroke-width: 2px; stroke: rgb(140, 86, 75); stroke-opacity: 1;"/><path class="xerror" d="M133.82,107.88v8m0,-4H120.24m0,-4v8" style="vector-effect: non-scaling-stroke; stroke-width: 2px; stroke: rgb(140, 86, 75); stroke-opacity: 1;"/></g><g class="errorbar"><path class="yerror" d="M124.06,139.9h8m-4,0V144.1m-4,0h8" style="vector-effect: non-scaling-stroke; stroke-width: 2px; stroke: rgb(140, 86, 75); stroke-opacity: 1;"/><path class="xerror" d="M134.85,138v8m0,-4H121.27m0,-4v8" style="vector-effect: non-scaling-stroke; stroke-width: 2px; stroke: rgb(140, 86, 75); stroke-opacity: 1;"/></g><g class="errorbar"><path class="yerror" d="M113.94,135.16h8m-4,0V136.89m-4,0h8" style="vector-effect: non-scaling-stroke; stroke-width: 2px; stroke: rgb(140, 86, 75); stroke-opacity: 1;"/><path class="xerror" d="M124.73,132.03v8m0,-4H111.15m0,-4v8" style="vector-effect: non-scaling-stroke; stroke-width: 2px; stroke: rgb(140, 86, 75); stroke-opacity: 1;"/></g><g class="errorbar"><path class="yerror" d="M121.31,96.74h8m-4,0V97.49m-4,0h8" style="vector-effect: non-scaling-stroke; stroke-width: 2px; stroke: rgb(140, 86, 75); stroke-opacity: 1;"/><path class="xerror" d="M132.1,93.12v8m0,-4H118.53m0,-4v8" style="vector-effect: non-scaling-stroke; stroke-width: 2px; stroke: rgb(140, 86, 75); stroke-opacity: 1;"/></g><g class="errorbar"><path class="yerror" d="M121.31,127.13h8m-4,0V128.18m-4,0h8" style="vector-effect: non-scaling-stroke; stroke-width: 2px; stroke: rgb(140, 86, 75); stroke-opacity: 1;"/><path class="xerror" d="M132.1,123.65v8m0,-4H118.53m0,-4v8" style="vector-effect: non-scaling-stroke; stroke-width: 2px; stroke: rgb(140, 86, 75); stroke-opacity: 1;"/></g><g class="errorbar"><path class="yerror" d="M122.34,120.59h8m-4,0V123.07m-4,0h8" style="vector-effect: non-scaling-stroke; stroke-width: 2px; stroke: rgb(140, 86, 75); stroke-opacity: 1;"/><path class="xerror" d="M133.13,117.83v8m0,-4H119.55m0,-4v8" style="vector-effect: non-scaling-stroke; stroke-width: 2px; stroke: rgb(140, 86, 75); stroke-opacity: 1;"/></g><g class="errorbar"><path class="yerror" d="M94.23,141.06h8m-4,0V142.64m-4,0h8" style="vector-effect: non-scaling-stroke; stroke-width: 2px; stroke: rgb(140, 86, 75); stroke-opacity: 1;"/><path class="xerror" d="M105.02,137.85v8m0,-4H91.44m0,-4v8" style="vector-effect: non-scaling-stroke; stroke-width: 2px; stroke: rgb(140, 86, 75); stroke-opacity: 1;"/></g><g class="errorbar"><path class="yerror" d="M145.83,85.59h8m-4,0V88.97m-4,0h8" style="vector-effect: non-scaling-stroke; stroke-width: 2px; stroke: rgb(140, 86, 75); stroke-opacity: 1;"/><path class="xerror" d="M156.62,83.28v8m0,-4H143.04m0,-4v8" style="vector-effect: non-scaling-stroke; stroke-width: 2px; stroke: rgb(140, 86, 75); stroke-opacity: 1;"/></g><g class="errorbar"><path class="yerror" d="M155.26,83.56h8m-4,0V84.91m-4,0h8" style="vector-effect: non-scaling-stroke; stroke-width: 2px; stroke: rgb(140, 86, 75); stroke-opacity: 1;"/><path class="xerror" d="M166.05,80.24v8m0,-4H152.47m0,-4v8" style="vector-effect: non-scaling-stroke; stroke-width: 2px; stroke: rgb(140, 86, 75); stroke-opacity: 1;"/></g><g class="errorbar"><path class="yerror" d="M85.66,175.65h8m-4,0V178.73m-4,0h8" style="vector-effect: non-scaling-stroke; stroke-width: 2px; stroke: rgb(140, 86, 75); stroke-opacity: 1;"/><path class="xerror" d="M96.45,173.19v8m0,-4H82.87m0,-4v8" style="vector-effect: non-scaling-stroke; stroke-width: 2px; stroke: rgb(140, 86, 75); stroke-opacity: 1;"/></g><g class="errorbar"><path class="yerror" d="M91.14,118.75h8m-4,0V120.1m-4,0h8" style="vector-effect: non-scaling-stroke; stroke-width: 2px; stroke: rgb(140, 86, 75); stroke-opacity: 1;"/><path class="xerror" d="M101.93,115.43v8m0,-4H88.35m0,-4v8" style="vector-effect: non-scaling-stroke; stroke-width: 2px; stroke: rgb(140, 86, 75); stroke-opacity: 1;"/></g><g class="errorbar"><path class="yerror" d="M89.77,124.87h8m-4,0V128.48m-4,0h8" style="vector-effect: non-scaling-stroke; stroke-width: 2px; stroke: rgb(140, 86, 75); stroke-opacity: 1;"/><path class="xerror" d="M100.56,122.68v8m0,-4H86.98m0,-4v8" style="vector-effect: non-scaling-stroke; stroke-width: 2px; stroke: rgb(140, 86, 75); stroke-opacity: 1;"/></g><g class="errorbar"><path class="yerror" d="M107.43,173.59h8m-4,0V174.94m-4,0h8" style="vector-effect: non-scaling-stroke; stroke-width: 2px; stroke: rgb(140, 86, 75); stroke-opacity: 1;"/><path class="xerror" d="M118.22,170.26v8m0,-4H104.64m0,-4v8" style="vector-effect: non-scaling-stroke; stroke-width: 2px; stroke: rgb(140, 86, 75); stroke-opacity: 1;"/></g><g class="errorbar"><path class="yerror" d="M109.83,121.04h8m-4,0V121.79m-4,0h8" style="vector-effect: non-scaling-stroke; stroke-width: 2px; stroke: rgb(140, 86, 75); stroke-opacity: 1;"/><path class="xerror" d="M120.62,117.42v8m0,-4H107.04m0,-4v8" style="vector-effect: non-scaling-stroke; stroke-width: 2px; stroke: rgb(140, 86, 75); stroke-opacity: 1;"/></g><g class="errorbar"><path class="yerror" d="M89.77,140.05h8m-4,0V144.1m-4,0h8" style="vector-effect: non-scaling-stroke; stroke-width: 2px; stroke: rgb(140, 86, 75); stroke-opacity: 1;"/><path class="xerror" d="M100.56,138.07v8m0,-4H86.98m0,-4v8" style="vector-effect: non-scaling-stroke; stroke-width: 2px; stroke: rgb(140, 86, 75); stroke-opacity: 1;"/></g><g class="errorbar"><path class="yerror" d="M109.83,187.78h8m-4,0V189.66m-4,0h8" style="vector-effect: non-scaling-stroke; stroke-width: 2px; stroke: rgb(140, 86, 75); stroke-opacity: 1;"/><path class="xerror" d="M120.62,184.72v8m0,-4H107.04m0,-4v8" style="vector-effect: non-scaling-stroke; stroke-width: 2px; stroke: rgb(140, 86, 75); stroke-opacity: 1;"/></g><g class="errorbar"><path class="yerror" d="M123.03,114.39h8m-4,0V117.32m-4,0h8" style="vector-effect: non-scaling-stroke; stroke-width: 2px; stroke: rgb(140, 86, 75); stroke-opacity: 1;"/><path class="xerror" d="M133.82,111.86v8m0,-4H120.24m0,-4v8" style="vector-effect: non-scaling-stroke; stroke-width: 2px; stroke: rgb(140, 86, 75); stroke-opacity: 1;"/></g><g class="errorbar"><path class="yerror" d="M106.57,151.09h8m-4,0V153.79m-4,0h8" style="vector-effect: non-scaling-stroke; stroke-width: 2px; stroke: rgb(140, 86, 75); stroke-opacity: 1;"/><path class="xerror" d="M117.36,148.44v8m0,-4H103.78m0,-4v8" style="vector-effect: non-scaling-stroke; stroke-width: 2px; stroke: rgb(140, 86, 75); stroke-opacity: 1;"/></g><g class="errorbar"><path class="yerror" d="M122.69,148.68h8m-4,0V153.27m-4,0h8" style="vector-effect: non-scaling-stroke; stroke-width: 2px; stroke: rgb(140, 86, 75); stroke-opacity: 1;"/><path class="xerror" d="M133.47,146.98v8m0,-4H119.9m0,-4v8" style="vector-effect: non-scaling-stroke; stroke-width: 2px; stroke: rgb(140, 86, 75); stroke-opacity: 1;"/></g><g class="errorbar"><path class="yerror" d="M138.29,75.07h8m-4,0V82.73m-4,0h8" style="vector-effect: non-scaling-stroke; stroke-width: 2px; stroke: rgb(140, 86, 75); stroke-opacity: 1;"/><path class="xerror" d="M149.07,74.9v8m0,-4H135.5m0,-4v8" style="vector-effect: non-scaling-stroke; stroke-width: 2px; stroke: rgb(140, 86, 75); stroke-opacity: 1;"/></g><g class="errorbar"><path class="yerror" d="M118.23,83.22h8m-4,0V86.3m-4,0h8" style="vector-effect: non-scaling-stroke; stroke-width: 2px; stroke: rgb(140, 86, 75); stroke-opacity: 1;"/><path class="xerror" d="M129.02,80.76v8m0,-4H115.44m0,-4v8" style="vector-effect: non-scaling-stroke; stroke-width: 2px; stroke: rgb(140, 86, 75); stroke-opacity: 1;"/></g><g class="errorbar"><path class="yerror" d="M138.29,61.78h8m-4,0V65.53m-4,0h8" style="vector-effect: non-scaling-stroke; stroke-width: 2px; stroke: rgb(140, 86, 75); stroke-opacity: 1;"/><path class="xerror" d="M149.07,59.65v8m0,-4H135.5m0,-4v8" style="vector-effect: non-scaling-stroke; stroke-width: 2px; stroke: rgb(140, 86, 75); stroke-opacity: 1;"/></g><g class="errorbar"><path class="yerror" d="M112.74,73.61h8m-4,0V76.09m-4,0h8" style="vector-effect: non-scaling-stroke; stroke-width: 2px; stroke: rgb(140, 86, 75); stroke-opacity: 1;"/><path class="xerror" d="M123.53,70.85v8m0,-4H109.95m0,-4v8" style="vector-effect: non-scaling-stroke; stroke-width: 2px; stroke: rgb(140, 86, 75); stroke-opacity: 1;"/></g><g class="errorbar"><path class="yerror" d="M116.86,110.19h8m-4,0V111.61m-4,0h8" style="vector-effect: non-scaling-stroke; stroke-width: 2px; stroke: rgb(140, 86, 75); stroke-opacity: 1;"/><path class="xerror" d="M127.65,106.9v8m0,-4H114.07m0,-4v8" style="vector-effect: non-scaling-stroke; stroke-width: 2px; stroke: rgb(140, 86, 75); stroke-opacity: 1;"/></g><g class="errorbar"><path class="yerror" d="M100.06,126.64h8m-4,0V128.14m-4,0h8" style="vector-effect: non-scaling-stroke; stroke-width: 2px; stroke: rgb(140, 86, 75); stroke-opacity: 1;"/><path class="xerror" d="M110.85,123.39v8m0,-4H97.27m0,-4v8" style="vector-effect: non-scaling-stroke; stroke-width: 2px; stroke: rgb(140, 86, 75); stroke-opacity: 1;"/></g><g class="errorbar"><path class="yerror" d="M105.71,152.4h8m-4,0V157.06m-4,0h8" style="vector-effect: non-scaling-stroke; stroke-width: 2px; stroke: rgb(140, 86, 75); stroke-opacity: 1;"/><path class="xerror" d="M116.5,150.73v8m0,-4H102.93m0,-4v8" style="vector-effect: non-scaling-stroke; stroke-width: 2px; stroke: rgb(140, 86, 75); stroke-opacity: 1;"/></g><g class="errorbar"><path class="yerror" d="M111.54,123.11h8m-4,0V124.76m-4,0h8" style="vector-effect: non-scaling-stroke; stroke-width: 2px; stroke: rgb(140, 86, 75); stroke-opacity: 1;"/><path class="xerror" d="M122.33,119.93v8m0,-4H108.75m0,-4v8" style="vector-effect: non-scaling-stroke; stroke-width: 2px; stroke: rgb(140, 86, 75); stroke-opacity: 1;"/></g><g class="errorbar"><path class="yerror" d="M120.63,117.06h8m-4,0V121.04m-4,0h8" style="vector-effect: non-scaling-stroke; stroke-width: 2px; stroke: rgb(140, 86, 75); stroke-opacity: 1;"/><path class="xerror" d="M131.42,115.05v8m0,-4H117.84m0,-4v8" style="vector-effect: non-scaling-stroke; stroke-width: 2px; stroke: rgb(140, 86, 75); stroke-opacity: 1;"/></g><g class="errorbar"><path class="yerror" d="M122.51,135.8h8m-4,0V137.3m-4,0h8" style="vector-effect: non-scaling-stroke; stroke-width: 2px; stroke: rgb(140, 86, 75); stroke-opacity: 1;"/><path class="xerror" d="M133.3,132.55v8m0,-4H119.73m0,-4v8" style="vector-effect: non-scaling-stroke; stroke-width: 2px; stroke: rgb(140, 86, 75); stroke-opacity: 1;"/></g></g><g class="lines"/><g class="points"><path class="point" transform="translate(121.37,143.84)" d="M1.5,0A1.5,1.5 0 1,1 0,-1.5A1.5,1.5 0 0,1 1.5,0Z" style="opacity: 1; stroke-width: 0px; fill: rgb(140, 86, 75); fill-opacity: 1;"/><path class="point" transform="translate(104.57,96.33)" d="M1.5,0A1.5,1.5 0 1,1 0,-1.5A1.5,1.5 0 0,1 1.5,0Z" style="opacity: 1; stroke-width: 0px; fill: rgb(140, 86, 75); fill-opacity: 1;"/><path class="point" transform="translate(109.2,107.45)" d="M1.5,0A1.5,1.5 0 1,1 0,-1.5A1.5,1.5 0 0,1 1.5,0Z" style="opacity: 1; stroke-width: 0px; fill: rgb(140, 86, 75); fill-opacity: 1;"/><path class="point" transform="translate(109.37,93.44)" d="M1.5,0A1.5,1.5 0 1,1 0,-1.5A1.5,1.5 0 0,1 1.5,0Z" style="opacity: 1; stroke-width: 0px; fill: rgb(140, 86, 75); fill-opacity: 1;"/><path class="point" transform="translate(117.6,114.88)" d="M1.5,0A1.5,1.5 0 1,1 0,-1.5A1.5,1.5 0 0,1 1.5,0Z" style="opacity: 1; stroke-width: 0px; fill: rgb(140, 86, 75); fill-opacity: 1;"/><path class="point" transform="translate(143.14,92.72)" d="M1.5,0A1.5,1.5 0 1,1 0,-1.5A1.5,1.5 0 0,1 1.5,0Z" style="opacity: 1; stroke-width: 0px; fill: rgb(140, 86, 75); fill-opacity: 1;"/><path class="point" transform="translate(143.49,94.98)" d="M1.5,0A1.5,1.5 0 1,1 0,-1.5A1.5,1.5 0 0,1 1.5,0Z" style="opacity: 1; stroke-width: 0px; fill: rgb(140, 86, 75); fill-opacity: 1;"/><path class="point" transform="translate(134.23,89.01)" d="M1.5,0A1.5,1.5 0 1,1 0,-1.5A1.5,1.5 0 0,1 1.5,0Z" style="opacity: 1; stroke-width: 0px; fill: rgb(140, 86, 75); fill-opacity: 1;"/><path class="point" transform="translate(140.57,114.36)" d="M1.5,0A1.5,1.5 0 1,1 0,-1.5A1.5,1.5 0 0,1 1.5,0Z" style="opacity: 1; stroke-width: 0px; fill: rgb(140, 86, 75); fill-opacity: 1;"/><path class="point" transform="translate(115.37,123.11)" d="M1.5,0A1.5,1.5 0 1,1 0,-1.5A1.5,1.5 0 0,1 1.5,0Z" style="opacity: 1; stroke-width: 0px; fill: rgb(140, 86, 75); fill-opacity: 1;"/><path class="point" transform="translate(137.83,66.36)" d="M1.5,0A1.5,1.5 0 1,1 0,-1.5A1.5,1.5 0 0,1 1.5,0Z" style="opacity: 1; stroke-width: 0px; fill: rgb(140, 86, 75); fill-opacity: 1;"/><path class="point" transform="translate(122.4,110.9)" d="M1.5,0A1.5,1.5 0 1,1 0,-1.5A1.5,1.5 0 0,1 1.5,0Z" style="opacity: 1; stroke-width: 0px; fill: rgb(140, 86, 75); fill-opacity: 1;"/><path class="point" transform="translate(123.77,87.58)" d="M1.5,0A1.5,1.5 0 1,1 0,-1.5A1.5,1.5 0 0,1 1.5,0Z" style="opacity: 1; stroke-width: 0px; fill: rgb(140, 86, 75); fill-opacity: 1;"/><path class="point" transform="translate(128.4,100.42)" d="M1.5,0A1.5,1.5 0 1,1 0,-1.5A1.5,1.5 0 0,1 1.5,0Z" style="opacity: 1; stroke-width: 0px; fill: rgb(140, 86, 75); fill-opacity: 1;"/><path class="point" transform="translate(109.03,94.75)" d="M1.5,0A1.5,1.5 0 1,1 0,-1.5A1.5,1.5 0 0,1 1.5,0Z" style="opacity: 1; stroke-width: 0px; fill: rgb(140, 86, 75); fill-opacity: 1;"/><path class="point" transform="translate(113.66,104.7)" d="M1.5,0A1.5,1.5 0 1,1 0,-1.5A1.5,1.5 0 0,1 1.5,0Z" style="opacity: 1; stroke-width: 0px; fill: rgb(140, 86, 75); fill-opacity: 1;"/><path class="point" transform="translate(122.91,115.48)" d="M1.5,0A1.5,1.5 0 1,1 0,-1.5A1.5,1.5 0 0,1 1.5,0Z" style="opacity: 1; stroke-width: 0px; fill: rgb(140, 86, 75); fill-opacity: 1;"/><path class="point" transform="translate(109.03,88.33)" d="M1.5,0A1.5,1.5 0 1,1 0,-1.5A1.5,1.5 0 0,1 1.5,0Z" style="opacity: 1; stroke-width: 0px; fill: rgb(140, 86, 75); fill-opacity: 1;"/><path class="point" transform="translate(121.03,65.98)" d="M1.5,0A1.5,1.5 0 1,1 0,-1.5A1.5,1.5 0 0,1 1.5,0Z" style="opacity: 1; stroke-width: 0px; fill: rgb(140, 86, 75); fill-opacity: 1;"/><path class="point" transform="translate(130.11,60.99)" d="M1.5,0A1.5,1.5 0 1,1 0,-1.5A1.5,1.5 0 0,1 1.5,0Z" style="opacity: 1; stroke-width: 0px; fill: rgb(140, 86, 75); fill-opacity: 1;"/><path class="point" transform="translate(114.86,152.7)" d="M1.5,0A1.5,1.5 0 1,1 0,-1.5A1.5,1.5 0 0,1 1.5,0Z" style="opacity: 1; stroke-width: 0px; fill: rgb(140, 86, 75); fill-opacity: 1;"/><path class="point" transform="translate(100.11,180.98)" d="M1.5,0A1.5,1.5 0 1,1 0,-1.5A1.5,1.5 0 0,1 1.5,0Z" style="opacity: 1; stroke-width: 0px; fill: rgb(140, 86, 75); fill-opacity: 1;"/><path class="point" transform="translate(124.8,116.35)" d="M1.5,0A1.5,1.5 0 1,1 0,-1.5A1.5,1.5 0 0,1 1.5,0Z" style="opacity: 1; stroke-width: 0px; fill: rgb(140, 86, 75); fill-opacity: 1;"/><path class="point" transform="translate(89.31,136.25)" d="M1.5,0A1.5,1.5 0 1,1 0,-1.5A1.5,1.5 0 0,1 1.5,0Z" style="opacity: 1; stroke-width: 0px; fill: rgb(140, 86, 75); fill-opacity: 1;"/><path class="point" transform="translate(104.06,116.54)" d="M1.5,0A1.5,1.5 0 1,1 0,-1.5A1.5,1.5 0 0,1 1.5,0Z" style="opacity: 1; stroke-width: 0px; fill: rgb(140, 86, 75); fill-opacity: 1;"/><path class="point" transform="translate(112.29,127.43)" d="M1.5,0A1.5,1.5 0 1,1 0,-1.5A1.5,1.5 0 0,1 1.5,0Z" style="opacity: 1; stroke-width: 0px; fill: rgb(140, 86, 75); fill-opacity: 1;"/><path class="point" transform="translate(120,113.98)" d="M1.5,0A1.5,1.5 0 1,1 0,-1.5A1.5,1.5 0 0,1 1.5,0Z" style="opacity: 1; stroke-width: 0px; fill: rgb(140, 86, 75); fill-opacity: 1;"/><path class="point" transform="translate(117.26,100.99)" d="M1.5,0A1.5,1.5 0 1,1 0,-1.5A1.5,1.5 0 0,1 1.5,0Z" style="opacity: 1; stroke-width: 0px; fill: rgb(140, 86, 75); fill-opacity: 1;"/><path class="point" transform="translate(109.89,113.04)" d="M1.5,0A1.5,1.5 0 1,1 0,-1.5A1.5,1.5 0 0,1 1.5,0Z" style="opacity: 1; stroke-width: 0px; fill: rgb(140, 86, 75); fill-opacity: 1;"/><path class="point" transform="translate(127.03,111.88)" d="M1.5,0A1.5,1.5 0 1,1 0,-1.5A1.5,1.5 0 0,1 1.5,0Z" style="opacity: 1; stroke-width: 0px; fill: rgb(140, 86, 75); fill-opacity: 1;"/><path class="point" transform="translate(128.06,142)" d="M1.5,0A1.5,1.5 0 1,1 0,-1.5A1.5,1.5 0 0,1 1.5,0Z" style="opacity: 1; stroke-width: 0px; fill: rgb(140, 86, 75); fill-opacity: 1;"/><path class="point" transform="translate(117.94,136.03)" d="M1.5,0A1.5,1.5 0 1,1 0,-1.5A1.5,1.5 0 0,1 1.5,0Z" style="opacity: 1; stroke-width: 0px; fill: rgb(140, 86, 75); fill-opacity: 1;"/><path class="point" transform="translate(125.31,97.12)" d="M1.5,0A1.5,1.5 0 1,1 0,-1.5A1.5,1.5 0 0,1 1.5,0Z" style="opacity: 1; stroke-width: 0px; fill: rgb(140, 86, 75); fill-opacity: 1;"/><path class="point" transform="translate(125.31,127.65)" d="M1.5,0A1.5,1.5 0 1,1 0,-1.5A1.5,1.5 0 0,1 1.5,0Z" style="opacity: 1; stroke-width: 0px; fill: rgb(140, 86, 75); fill-opacity: 1;"/><path class="point" transform="translate(126.34,121.83)" d="M1.5,0A1.5,1.5 0 1,1 0,-1.5A1.5,1.5 0 0,1 1.5,0Z" style="opacity: 1; stroke-width: 0px; fill: rgb(140, 86, 75); fill-opacity: 1;"/><path class="point" transform="translate(98.23,141.85)" d="M1.5,0A1.5,1.5 0 1,1 0,-1.5A1.5,1.5 0 0,1 1.5,0Z" style="opacity: 1; stroke-width: 0px; fill: rgb(140, 86, 75); fill-opacity: 1;"/><path class="point" transform="translate(149.83,87.28)" d="M1.5,0A1.5,1.5 0 1,1 0,-1.5A1.5,1.5 0 0,1 1.5,0Z" style="opacity: 1; stroke-width: 0px; fill: rgb(140, 86, 75); fill-opacity: 1;"/><path class="point" transform="translate(159.26,84.24)" d="M1.5,0A1.5,1.5 0 1,1 0,-1.5A1.5,1.5 0 0,1 1.5,0Z" style="opacity: 1; stroke-width: 0px; fill: rgb(140, 86, 75); fill-opacity: 1;"/><path class="point" transform="translate(89.66,177.19)" d="M1.5,0A1.5,1.5 0 1,1 0,-1.5A1.5,1.5 0 0,1 1.5,0Z" style="opacity: 1; stroke-width: 0px; fill: rgb(140, 86, 75); fill-opacity: 1;"/><path class="point" transform="translate(95.14,119.43)" d="M1.5,0A1.5,1.5 0 1,1 0,-1.5A1.5,1.5 0 0,1 1.5,0Z" style="opacity: 1; stroke-width: 0px; fill: rgb(140, 86, 75); fill-opacity: 1;"/><path class="point" transform="translate(93.77,126.68)" d="M1.5,0A1.5,1.5 0 1,1 0,-1.5A1.5,1.5 0 0,1 1.5,0Z" style="opacity: 1; stroke-width: 0px; fill: rgb(140, 86, 75); fill-opacity: 1;"/><path class="point" transform="translate(111.43,174.26)" d="M1.5,0A1.5,1.5 0 1,1 0,-1.5A1.5,1.5 0 0,1 1.5,0Z" style="opacity: 1; stroke-width: 0px; fill: rgb(140, 86, 75); fill-opacity: 1;"/><path class="point" transform="translate(113.83,121.42)" d="M1.5,0A1.5,1.5 0 1,1 0,-1.5A1.5,1.5 0 0,1 1.5,0Z" style="opacity: 1; stroke-width: 0px; fill: rgb(140, 86, 75); fill-opacity: 1;"/><path class="point" transform="translate(93.77,142.07)" d="M1.5,0A1.5,1.5 0 1,1 0,-1.5A1.5,1.5 0 0,1 1.5,0Z" style="opacity: 1; stroke-width: 0px; fill: rgb(140, 86, 75); fill-opacity: 1;"/><path class="point" transform="translate(113.83,188.72)" d="M1.5,0A1.5,1.5 0 1,1 0,-1.5A1.5,1.5 0 0,1 1.5,0Z" style="opacity: 1; stroke-width: 0px; fill: rgb(140, 86, 75); fill-opacity: 1;"/><path class="point" transform="translate(127.03,115.86)" d="M1.5,0A1.5,1.5 0 1,1 0,-1.5A1.5,1.5 0 0,1 1.5,0Z" style="opacity: 1; stroke-width: 0px; fill: rgb(140, 86, 75); fill-opacity: 1;"/><path class="point" transform="translate(110.57,152.44)" d="M1.5,0A1.5,1.5 0 1,1 0,-1.5A1.5,1.5 0 0,1 1.5,0Z" style="opacity: 1; stroke-width: 0px; fill: rgb(140, 86, 75); fill-opacity: 1;"/><path class="point" transform="translate(126.69,150.98)" d="M1.5,0A1.5,1.5 0 1,1 0,-1.5A1.5,1.5 0 0,1 1.5,0Z" style="opacity: 1; stroke-width: 0px; fill: rgb(140, 86, 75); fill-opacity: 1;"/><path class="point" transform="translate(142.29,78.9)" d="M1.5,0A1.5,1.5 0 1,1 0,-1.5A1.5,1.5 0 0,1 1.5,0Z" style="opacity: 1; stroke-width: 0px; fill: rgb(140, 86, 75); fill-opacity: 1;"/><path class="point" transform="translate(122.23,84.76)" d="M1.5,0A1.5,1.5 0 1,1 0,-1.5A1.5,1.5 0 0,1 1.5,0Z" style="opacity: 1; stroke-width: 0px; fill: rgb(140, 86, 75); fill-opacity: 1;"/><path class="point" transform="translate(142.29,63.65)" d="M1.5,0A1.5,1.5 0 1,1 0,-1.5A1.5,1.5 0 0,1 1.5,0Z" style="opacity: 1; stroke-width: 0px; fill: rgb(140, 86, 75); fill-opacity: 1;"/><path class="point" transform="translate(116.74,74.85)" d="M1.5,0A1.5,1.5 0 1,1 0,-1.5A1.5,1.5 0 0,1 1.5,0Z" style="opacity: 1; stroke-width: 0px; fill: rgb(140, 86, 75); fill-opacity: 1;"/><path class="point" transform="translate(120.86,110.9)" d="M1.5,0A1.5,1.5 0 1,1 0,-1.5A1.5,1.5 0 0,1 1.5,0Z" style="opacity: 1; stroke-width: 0px; fill: rgb(140, 86, 75); fill-opacity: 1;"/><path class="point" transform="translate(104.06,127.39)" d="M1.5,0A1.5,1.5 0 1,1 0,-1.5A1.5,1.5 0 0,1 1.5,0Z" style="opacity: 1; stroke-width: 0px; fill: rgb(140, 86, 75); fill-opacity: 1;"/><path class="point" transform="translate(109.71,154.73)" d="M1.5,0A1.5,1.5 0 1,1 0,-1.5A1.5,1.5 0 0,1 1.5,0Z" style="opacity: 1; stroke-width: 0px; fill: rgb(140, 86, 75); fill-opacity: 1;"/><path class="point" transform="translate(115.54,123.93)" d="M1.5,0A1.5,1.5 0 1,1 0,-1.5A1.5,1.5 0 0,1 1.5,0Z" style="opacity: 1; stroke-width: 0px; fill: rgb(140, 86, 75); fill-opacity: 1;"/><path class="point" transform="translate(124.63,119.05)" d="M1.5,0A1.5,1.5 0 1,1 0,-1.5A1.5,1.5 0 0,1 1.5,0Z" style="opacity: 1; stroke-width: 0px; fill: rgb(140, 86, 75); fill-opacity: 1;"/><path class="point" transform="translate(126.51,136.55)" d="M1.5,0A1.5,1.5 0 1,1 0,-1.5A1.5,1.5 0 0,1 1.5,0Z" style="opacity: 1; stroke-width: 0px; fill: rgb(140, 86, 75); fill-opacity: 1;"/></g><g class="text"/></g></g></g><g class="overplot"/><path class="xlines-above crisp" d="M79,320.5H320" style="fill: none; stroke-width: 1px; stroke: rgb(36, 36, 36); stroke-opacity: 1;"/><path class="ylines-above crisp" d="M79.5,100V320" style="fill: none; stroke-width: 1px; stroke: rgb(36, 36, 36); stroke-opacity: 1;"/><g class="overlines-above"/><g class="xaxislayer-above"><path class="xtick ticks crisp" d="M0,321v5" transform="translate(114.28999999999999,0)" style="stroke: rgb(68, 68, 68); stroke-opacity: 1; stroke-width: 1px;"/><path class="xtick ticks crisp" d="M0,321v5" transform="translate(200,0)" style="stroke: rgb(68, 68, 68); stroke-opacity: 1; stroke-width: 1px;"/><path class="xtick ticks crisp" d="M0,321v5" transform="translate(285.71000000000004,0)" style="stroke: rgb(68, 68, 68); stroke-opacity: 1; stroke-width: 1px;"/><g class="xtick"><text text-anchor="middle" x="0" y="340.4" transform="translate(114.28999999999999,0)" style="font-family: 'Open Sans', verdana, arial, sans-serif; font-size: 12px; fill: rgb(36, 36, 36); fill-opacity: 1; white-space: pre; opacity: 1;">−5</text></g><g class="xtick"><text text-anchor="middle" x="0" y="340.4" style="font-family: 'Open Sans', verdana, arial, sans-serif; font-size: 12px; fill: rgb(36, 36, 36); fill-opacity: 1; white-space: pre; opacity: 1;" transform="translate(200,0)">0</text></g><g class="xtick"><text text-anchor="middle" x="0" y="340.4" style="font-family: 'Open Sans', verdana, arial, sans-serif; font-size: 12px; fill: rgb(36, 36, 36); fill-opacity: 1; white-space: pre; opacity: 1;" transform="translate(285.71000000000004,0)">5</text></g></g><g class="yaxislayer-above"><path class="ytick ticks crisp" d="M79,0h-5" transform="translate(0,288.57)" style="stroke: rgb(68, 68, 68); stroke-opacity: 1; stroke-width: 1px;"/><path class="ytick ticks crisp" d="M79,0h-5" transform="translate(0,210)" style="stroke: rgb(68, 68, 68); stroke-opacity: 1; stroke-width: 1px;"/><path class="ytick ticks crisp" d="M79,0h-5" transform="translate(0,131.43)" style="stroke: rgb(68, 68, 68); stroke-opacity: 1; stroke-width: 1px;"/><g class="ytick"><text text-anchor="end" x="71.6" y="4.199999999999999" transform="translate(0,288.57)" style="font-family: 'Open Sans', verdana, arial, sans-serif; font-size: 12px; fill: rgb(36, 36, 36); fill-opacity: 1; white-space: pre; opacity: 1;">−5</text></g><g class="ytick"><text text-anchor="end" x="71.6" y="4.199999999999999" style="font-family: 'Open Sans', verdana, arial, sans-serif; font-size: 12px; fill: rgb(36, 36, 36); fill-opacity: 1; white-space: pre; opacity: 1;" transform="translate(0,210)">0</text></g><g class="ytick"><text text-anchor="end" x="71.6" y="4.199999999999999" style="font-family: 'Open Sans', verdana, arial, sans-serif; font-size: 12px; fill: rgb(36, 36, 36); fill-opacity: 1; white-space: pre; opacity: 1;" transform="translate(0,131.43)">5</text></g></g><g class="overaxes-above"/></g></g><g class="polarlayer"/><g class="smithlayer"/><g class="ternarylayer"/><g class="geolayer"/><g class="funnelarealayer"/><g class="pielayer"/><g class="iciclelayer"/><g class="treemaplayer"/><g class="sunburstlayer"/><g class="glimages"/><defs id="topdefs-07581a"><g class="clips"/></defs><g class="layer-above"><g class="imagelayer"/><g class="shapelayer"/></g><g class="infolayer"><g class="g-gtitle"><text class="gtitle" x="80" y="40" text-anchor="start" dy="0.7em" style="font-family: 'Open Sans', verdana, arial, sans-serif; font-size: 12px; fill: rgb(36, 36, 36); opacity: 1; font-weight: normal; white-space: pre;"><tspan class="line" dy="0em" x="80" y="40">bace (N = 58)</tspan><tspan class="line" dy="1.3em" x="80" y="40">RMSE: 1.60 [95%:  1.30,  1.91]</tspan><tspan class="line" dy="2.6em" x="80" y="40">MUE:  1.24 [95%:  1.00,  1.53]</tspan></text></g><g class="g-xtitle"><text class="xtitle" x="200" y="369.20625" text-anchor="middle" style="font-family: 'Open Sans', verdana, arial, sans-serif; font-size: 14px; fill: rgb(36, 36, 36); opacity: 1; font-weight: normal; white-space: pre;">DDG Exp. [kcal/mol]</text></g><g class="g-ytitle"><text class="ytitle" transform="rotate(-90,33.075,210)" x="33.075" y="210" text-anchor="middle" style="font-family: 'Open Sans', verdana, arial, sans-serif; font-size: 14px; fill: rgb(36, 36, 36); opacity: 1; font-weight: normal; white-space: pre;">DDG OPLS3e [kcal/mol]</text></g></g></svg>