<svg class="main-svg" xmlns="http://www.w3.org/2000/svg" xmlns:xlink="http://www.w3.org/1999/xlink" width="400" height="400" style="" viewBox="0 0 400 400"><rect x="0" y="0" width="400" height="400" style="fill: rgb(255, 255, 255); fill-opacity: 1;"/><defs id="defs-510619"><g class="clips"><clipPath id="clip510619xyplot" class="plotclip"><rect width="240" height="220"/></clipPath><clipPath class="axesclip" id="clip510619x"><rect x="80" y="0" width="240" height="400"/></clipPath><clipPath class="axesclip" id="clip510619y"><rect x="0" y="100" width="400" height="220"/></clipPath><clipPath class="axesclip" id="clip510619xy"><rect x="80" y="100" width="240" height="220"/></clipPath></g><g class="gradients"/></defs><g class="bglayer"><rect class="bg" x="80" y="100" width="240" height="220" style="fill: rgb(229, 236, 246); fill-opacity: 1; stroke-width: 0;"/></g><g class="layer-below"><g class="imagelayer"/><g class="shapelayer"/></g><g class="cartesianlayer"><g class="subplot xy"><g class="layer-subplot"><g class="shapelayer"/><g class="imagelayer"/></g><g class="gridlayer"><g class="x"><path class="xgrid crisp" transform="translate(147.88,0)" d="M0,100v220" style="stroke: rgb(255, 255, 255); stroke-opacity: 1; stroke-width: 1px;"/><path class="xgrid crisp" transform="translate(306.71000000000004,0)" d="M0,100v220" style="stroke: rgb(255, 255, 255); stroke-opacity: 1; stroke-width: 1px;"/></g><g class="y"><path class="ygrid crisp" transform="translate(0,294.16999999999996)" d="M80,0h240" style="stroke: rgb(255, 255, 255); stroke-opacity: 1; stroke-width: 1px;"/><path class="ygrid crisp" transform="translate(0,257.78)" d="M80,0h240" style="stroke: rgb(255, 255, 255); stroke-opacity: 1; stroke-width: 1px;"/><path class="ygrid crisp" transform="translate(0,221.38)" d="M80,0h240" style="stroke: rgb(255, 255, 255); stroke-opacity: 1; stroke-width: 1px;"/><path class="ygrid crisp" transform="translate(0,148.57999999999998)" d="M80,0h240" style="stroke: rgb(255, 255, 255); stroke-opacity: 1; stroke-width: 1px;"/><path class="ygrid crisp" transform="translate(0,112.18)" d="M80,0h240" style="stroke: rgb(255, 255, 255); stroke-opacity: 1; stroke-width: 1px;"/></g></g><g class="zerolinelayer"><path class="xzl zl crisp" transform="translate(227.29,0)" d="M0,100v220" style="stroke: rgb(255, 255, 255); stroke-opacity: 1; stroke-width: 2px;"/><path class="yzl zl crisp" transform="translate(0,184.98000000000002)" d="M80,0h240" style="stroke: rgb(255, 255, 255); stroke-opacity: 1; stroke-width: 2px;"/></g><path class="xlines-below"/><path class="ylines-below"/><g class="overlines-below"/><g class="xaxislayer-below"/><g class="yaxislayer-below"/><g class="overaxes-below"/><g class="plot" transform="translate(80, 100)" clip-path="url('#clip510619xyplot')"><g class="scatterlayer mlayer"><g class="trace scatter trace4d578d" style="stroke-miterlimit: 2; opacity: 1;"><g class="fills"><g><path class="js-fill" d="M0,183.6L200.29,0L240,0L240,36.4L39.71,220L0,220Z" style="fill: rgb(0, 0, 0); fill-opacity: 0.2; stroke-width: 0;"/></g></g><g class="errorbars"/><g class="lines"><path class="js-line" d="M0,183.6L200.29,0L240,0L240,36.4L39.71,220L0,220" style="vector-effect: non-scaling-stroke; fill: none; stroke: rgb(99, 110, 250); stroke-opacity: 1; stroke-width: 0px; opacity: 1;"/></g><g class="points"/><g class="text"/></g><g class="trace scatter trace1ead71" style="stroke-miterlimit: 2; opacity: 1;"><g class="fills"><g><path class="js-fill" d="M0,201.8L220.15,0L240,0L240,18.2L19.85,220L0,220Z" style="fill: rgb(0, 0, 0); fill-opacity: 0.2; stroke-width: 0;"/></g></g><g class="errorbars"/><g class="lines"><path class="js-line" d="M0,201.8L220.15,0L240,0L240,18.2L19.85,220L0,220" style="vector-effect: non-scaling-stroke; fill: none; stroke: rgb(239, 85, 59); stroke-opacity: 1; stroke-width: 0px; opacity: 1;"/></g><g class="points"/><g class="text"/></g><g class="trace scatter trace7652cd" style="stroke-miterlimit: 2; opacity: 1;"><g class="fills"/><g class="errorbars"/><g class="lines"><path class="js-line" d="M0,220L240,0" style="vector-effect: non-scaling-stroke; fill: none; stroke: rgb(0, 0, 0); stroke-opacity: 1; stroke-width: 2px; opacity: 1;"/></g><g class="points"/><g class="text"/></g><g class="trace scatter tracec198db" style="stroke-miterlimit: 2; opacity: 1;"><g class="fills"/><g class="errorbars"><g class="errorbar"><path class="yerror" d="M120.45,130.91h8m-4,0V144.96m-4,0h8" style="vector-effect: non-scaling-stroke; stroke-width: 2px; stroke: rgb(0, 0, 0); stroke-opacity: 1;"/><path class="xerror" d="M135.97,133.93v8m0,-4H112.94m0,-4v8" style="vector-effect: non-scaling-stroke; stroke-width: 2px; stroke: rgb(0, 0, 0); stroke-opacity: 1;"/></g><g class="errorbar"><path class="yerror" d="M130.78,90.6h8m-4,0V119.88m-4,0h8" style="vector-effect: non-scaling-stroke; stroke-width: 2px; stroke: rgb(0, 0, 0); stroke-opacity: 1;"/><path class="xerror" d="M143.91,101.24v8m0,-4H125.65m0,-4v8" style="vector-effect: non-scaling-stroke; stroke-width: 2px; stroke: rgb(0, 0, 0); stroke-opacity: 1;"/></g><g class="errorbar"><path class="yerror" d="M107.35,114.17h8m-4,0V123.82m-4,0h8" style="vector-effect: non-scaling-stroke; stroke-width: 2px; stroke: rgb(0, 0, 0); stroke-opacity: 1;"/><path class="xerror" d="M112.94,115v8m0,-4H109.76m0,-4v8" style="vector-effect: non-scaling-stroke; stroke-width: 2px; stroke: rgb(0, 0, 0); stroke-opacity: 1;"/></g><g class="errorbar"><path class="yerror" d="M152.62,51.61h8m-4,0V59.45m-4,0h8" style="vector-effect: non-scaling-stroke; stroke-width: 2px; stroke: rgb(0, 0, 0); stroke-opacity: 1;"/><path class="xerror" d="M162.18,51.53v8m0,-4H151.06m0,-4v8" style="vector-effect: non-scaling-stroke; stroke-width: 2px; stroke: rgb(0, 0, 0); stroke-opacity: 1;"/></g><g class="errorbar"><path class="yerror" d="M167.7,14.82h8m-4,0V23.33m-4,0h8" style="vector-effect: non-scaling-stroke; stroke-width: 2px; stroke: rgb(0, 0, 0); stroke-opacity: 1;"/><path class="xerror" d="M177.66,15.07v8m0,-4H165.75m0,-4v8" style="vector-effect: non-scaling-stroke; stroke-width: 2px; stroke: rgb(0, 0, 0); stroke-opacity: 1;"/></g><g class="errorbar"><path class="yerror" d="M183.19,18.69h8m-4,0V28.33m-4,0h8" style="vector-effect: non-scaling-stroke; stroke-width: 2px; stroke: rgb(0, 0, 0); stroke-opacity: 1;"/><path class="xerror" d="M193.54,19.51v8m0,-4H180.84m0,-4v8" style="vector-effect: non-scaling-stroke; stroke-width: 2px; stroke: rgb(0, 0, 0); stroke-opacity: 1;"/></g><g class="errorbar"><path class="yerror" d="M168.1,36.96h8m-4,0V45.8m-4,0h8" style="vector-effect: non-scaling-stroke; stroke-width: 2px; stroke: rgb(0, 0, 0); stroke-opacity: 1;"/><path class="xerror" d="M178.85,37.38v8m0,-4H165.35m0,-4v8" style="vector-effect: non-scaling-stroke; stroke-width: 2px; stroke: rgb(0, 0, 0); stroke-opacity: 1;"/></g><g class="errorbar"><path class="yerror" d="M159.37,24.38h8m-4,0V33.19m-4,0h8" style="vector-effect: non-scaling-stroke; stroke-width: 2px; stroke: rgb(0, 0, 0); stroke-opacity: 1;"/><path class="xerror" d="M170.51,24.79v8m0,-4H156.22m0,-4v8" style="vector-effect: non-scaling-stroke; stroke-width: 2px; stroke: rgb(0, 0, 0); stroke-opacity: 1;"/></g><g class="errorbar"><path class="yerror" d="M141.5,29.09h8m-4,0V38.04m-4,0h8" style="vector-effect: non-scaling-stroke; stroke-width: 2px; stroke: rgb(0, 0, 0); stroke-opacity: 1;"/><path class="xerror" d="M145.9,29.57v8m0,-4H145.1m0,-4v8" style="vector-effect: non-scaling-stroke; stroke-width: 2px; stroke: rgb(0, 0, 0); stroke-opacity: 1;"/></g><g class="errorbar"><path class="yerror" d="M143.88,48.39h8m-4,0V58.64m-4,0h8" style="vector-effect: non-scaling-stroke; stroke-width: 2px; stroke: rgb(0, 0, 0); stroke-opacity: 1;"/><path class="xerror" d="M158.6,49.51v8m0,-4H137.16m0,-4v8" style="vector-effect: non-scaling-stroke; stroke-width: 2px; stroke: rgb(0, 0, 0); stroke-opacity: 1;"/></g><g class="errorbar"><path class="yerror" d="M119.26,123.52h8m-4,0V139.24m-4,0h8" style="vector-effect: non-scaling-stroke; stroke-width: 2px; stroke: rgb(0, 0, 0); stroke-opacity: 1;"/><path class="xerror" d="M126.84,127.38v8m0,-4H119.69m0,-4v8" style="vector-effect: non-scaling-stroke; stroke-width: 2px; stroke: rgb(0, 0, 0); stroke-opacity: 1;"/></g><g class="errorbar"><path class="yerror" d="M128.79,96.05h8m-4,0V113.98m-4,0h8" style="vector-effect: non-scaling-stroke; stroke-width: 2px; stroke: rgb(0, 0, 0); stroke-opacity: 1;"/><path class="xerror" d="M135.57,101.02v8m0,-4H130.01m0,-4v8" style="vector-effect: non-scaling-stroke; stroke-width: 2px; stroke: rgb(0, 0, 0); stroke-opacity: 1;"/></g><g class="errorbar"><path class="yerror" d="M159.37,140.75h8m-4,0V175.07m-4,0h8" style="vector-effect: non-scaling-stroke; stroke-width: 2px; stroke: rgb(0, 0, 0); stroke-opacity: 1;"/><path class="xerror" d="M166.15,153.91v8m0,-4H160.59m0,-4v8" style="vector-effect: non-scaling-stroke; stroke-width: 2px; stroke: rgb(0, 0, 0); stroke-opacity: 1;"/></g><g class="errorbar"><path class="yerror" d="M160.56,37h8m-4,0V47.85m-4,0h8" style="vector-effect: non-scaling-stroke; stroke-width: 2px; stroke: rgb(0, 0, 0); stroke-opacity: 1;"/><path class="xerror" d="M167.73,38.42v8m0,-4H161.38m0,-4v8" style="vector-effect: non-scaling-stroke; stroke-width: 2px; stroke: rgb(0, 0, 0); stroke-opacity: 1;"/></g><g class="errorbar"><path class="yerror" d="M79.95,162.71h8m-4,0V240.89m-4,0h8" style="vector-effect: non-scaling-stroke; stroke-width: 2px; stroke: rgb(0, 0, 0); stroke-opacity: 1;"/><path class="xerror" d="M87.53,197.8v8m0,-4H80.38m0,-4v8" style="vector-effect: non-scaling-stroke; stroke-width: 2px; stroke: rgb(0, 0, 0); stroke-opacity: 1;"/></g><g class="errorbar"><path class="yerror" d="M140.31,42.19h8m-4,0V52.67m-4,0h8" style="vector-effect: non-scaling-stroke; stroke-width: 2px; stroke: rgb(0, 0, 0); stroke-opacity: 1;"/><path class="xerror" d="M152.25,43.43v8m0,-4H136.37m0,-4v8" style="vector-effect: non-scaling-stroke; stroke-width: 2px; stroke: rgb(0, 0, 0); stroke-opacity: 1;"/></g><g class="errorbar"><path class="yerror" d="M101.79,125.49h8m-4,0V153.27m-4,0h8" style="vector-effect: non-scaling-stroke; stroke-width: 2px; stroke: rgb(0, 0, 0); stroke-opacity: 1;"/><path class="xerror" d="M116.51,135.38v8m0,-4H95.07m0,-4v8" style="vector-effect: non-scaling-stroke; stroke-width: 2px; stroke: rgb(0, 0, 0); stroke-opacity: 1;"/></g><g class="errorbar"><path class="yerror" d="M216.15,27.81h8m-4,0V38.57m-4,0h8" style="vector-effect: non-scaling-stroke; stroke-width: 2px; stroke: rgb(0, 0, 0); stroke-opacity: 1;"/><path class="xerror" d="M223.72,29.189999999999998v8m0,-4H216.57m0,-4v8" style="vector-effect: non-scaling-stroke; stroke-width: 2px; stroke: rgb(0, 0, 0); stroke-opacity: 1;"/></g><g class="errorbar"><path class="yerror" d="M207.01,18.48h8m-4,0V28.68m-4,0h8" style="vector-effect: non-scaling-stroke; stroke-width: 2px; stroke: rgb(0, 0, 0); stroke-opacity: 1;"/><path class="xerror" d="M223.72,19.58v8m0,-4H198.31m0,-4v8" style="vector-effect: non-scaling-stroke; stroke-width: 2px; stroke: rgb(0, 0, 0); stroke-opacity: 1;"/></g><g class="errorbar"><path class="yerror" d="M103.38,137.37h8m-4,0V151.79m-4,0h8" style="vector-effect: non-scaling-stroke; stroke-width: 2px; stroke: rgb(0, 0, 0); stroke-opacity: 1;"/><path class="xerror" d="M110.56,140.58v8m0,-4H104.2m0,-4v8" style="vector-effect: non-scaling-stroke; stroke-width: 2px; stroke: rgb(0, 0, 0); stroke-opacity: 1;"/></g><g class="errorbar"><path class="yerror" d="M117.67,134.72h8m-4,0V146.01m-4,0h8" style="vector-effect: non-scaling-stroke; stroke-width: 2px; stroke: rgb(0, 0, 0); stroke-opacity: 1;"/><path class="xerror" d="M126.44,136.36v8m0,-4H116.91m0,-4v8" style="vector-effect: non-scaling-stroke; stroke-width: 2px; stroke: rgb(0, 0, 0); stroke-opacity: 1;"/></g></g><g class="lines"/><g class="points"><path class="point" transform="translate(124.45,137.93)" d="M3,0A3,3 0 1,1 0,-3A3,3 0 0,1 3,0Z" style="opacity: 1; stroke-width: 0px; fill: rgb(91, 0, 164); fill-opacity: 1;"/><path class="point" transform="translate(134.78,105.24)" d="M3,0A3,3 0 1,1 0,-3A3,3 0 0,1 3,0Z" style="opacity: 1; stroke-width: 0px; fill: rgb(23, 0, 232); fill-opacity: 1;"/><path class="point" transform="translate(111.35,119)" d="M3,0A3,3 0 1,1 0,-3A3,3 0 0,1 3,0Z" style="opacity: 1; stroke-width: 0px; fill: rgb(0, 0, 255); fill-opacity: 1;"/><path class="point" transform="translate(156.62,55.53)" d="M3,0A3,3 0 1,1 0,-3A3,3 0 0,1 3,0Z" style="opacity: 1; stroke-width: 0px; fill: rgb(58, 0, 197); fill-opacity: 1;"/><path class="point" transform="translate(171.7,19.07)" d="M3,0A3,3 0 1,1 0,-3A3,3 0 0,1 3,0Z" style="opacity: 1; stroke-width: 0px; fill: rgb(125, 0, 130); fill-opacity: 1;"/><path class="point" transform="translate(187.19,23.51)" d="M3,0A3,3 0 1,1 0,-3A3,3 0 0,1 3,0Z" style="opacity: 1; stroke-width: 0px; fill: rgb(70, 0, 185); fill-opacity: 1;"/><path class="point" transform="translate(172.1,41.38)" d="M3,0A3,3 0 1,1 0,-3A3,3 0 0,1 3,0Z" style="opacity: 1; stroke-width: 0px; fill: rgb(58, 0, 197); fill-opacity: 1;"/><path class="point" transform="translate(163.37,28.79)" d="M3,0A3,3 0 1,1 0,-3A3,3 0 0,1 3,0Z" style="opacity: 1; stroke-width: 0px; fill: rgb(119, 0, 136); fill-opacity: 1;"/><path class="point" transform="translate(145.5,33.57)" d="M3,0A3,3 0 1,1 0,-3A3,3 0 0,1 3,0Z" style="opacity: 1; stroke-width: 0px; fill: rgb(153, 0, 102); fill-opacity: 1;"/><path class="point" transform="translate(147.88,53.51)" d="M3,0A3,3 0 1,1 0,-3A3,3 0 0,1 3,0Z" style="opacity: 1; stroke-width: 0px; fill: rgb(88, 0, 167); fill-opacity: 1;"/><path class="point" transform="translate(123.26,131.38)" d="M3,0A3,3 0 1,1 0,-3A3,3 0 0,1 3,0Z" style="opacity: 1; stroke-width: 0px; fill: rgb(69, 0, 186); fill-opacity: 1;"/><path class="point" transform="translate(132.79,105.02)" d="M3,0A3,3 0 1,1 0,-3A3,3 0 0,1 3,0Z" style="opacity: 1; stroke-width: 0px; fill: rgb(17, 0, 238); fill-opacity: 1;"/><path class="point" transform="translate(163.37,157.91)" d="M3,0A3,3 0 1,1 0,-3A3,3 0 0,1 3,0Z" style="opacity: 1; stroke-width: 0px; fill: rgb(255, 0, 0); fill-opacity: 1;"/><path class="point" transform="translate(164.56,42.42)" d="M3,0A3,3 0 1,1 0,-3A3,3 0 0,1 3,0Z" style="opacity: 1; stroke-width: 0px; fill: rgb(76, 0, 179); fill-opacity: 1;"/><path class="point" transform="translate(83.95,201.8)" d="M3,0A3,3 0 1,1 0,-3A3,3 0 0,1 3,0Z" style="opacity: 1; stroke-width: 0px; fill: rgb(170, 0, 85); fill-opacity: 1;"/><path class="point" transform="translate(144.31,47.43)" d="M3,0A3,3 0 1,1 0,-3A3,3 0 0,1 3,0Z" style="opacity: 1; stroke-width: 0px; fill: rgb(115, 0, 140); fill-opacity: 1;"/><path class="point" transform="translate(105.79,139.38)" d="M3,0A3,3 0 1,1 0,-3A3,3 0 0,1 3,0Z" style="opacity: 1; stroke-width: 0px; fill: rgb(45, 0, 210); fill-opacity: 1;"/><path class="point" transform="translate(220.15,33.19)" d="M3,0A3,3 0 1,1 0,-3A3,3 0 0,1 3,0Z" style="opacity: 1; stroke-width: 0px; fill: rgb(41, 0, 214); fill-opacity: 1;"/><path class="point" transform="translate(211.01,23.58)" d="M3,0A3,3 0 1,1 0,-3A3,3 0 0,1 3,0Z" style="opacity: 1; stroke-width: 0px; fill: rgb(6, 0, 249); fill-opacity: 1;"/><path class="point" transform="translate(107.38,144.58)" d="M3,0A3,3 0 1,1 0,-3A3,3 0 0,1 3,0Z" style="opacity: 1; stroke-width: 0px; fill: rgb(65, 0, 190); fill-opacity: 1;"/><path class="point" transform="translate(121.67,140.36)" d="M3,0A3,3 0 1,1 0,-3A3,3 0 0,1 3,0Z" style="opacity: 1; stroke-width: 0px; fill: rgb(91, 0, 164); fill-opacity: 1;"/></g><g class="text"/></g></g></g><g class="overplot"/><path class="xlines-above crisp" d="M0,0" style="fill: none;"/><path class="ylines-above crisp" d="M0,0" style="fill: none;"/><g class="overlines-above"/><g class="xaxislayer-above"><g class="xtick"><text text-anchor="middle" x="0" y="333" transform="translate(147.88,0)" style="font-family: 'Open Sans', verdana, arial, sans-serif; font-size: 12px; fill: rgb(42, 63, 95); fill-opacity: 1; white-space: pre;">−2</text></g><g class="xtick"><text text-anchor="middle" x="0" y="333" transform="translate(227.29,0)" style="font-family: 'Open Sans', verdana, arial, sans-serif; font-size: 12px; fill: rgb(42, 63, 95); fill-opacity: 1; white-space: pre;">0</text></g><g class="xtick"><text text-anchor="middle" x="0" y="333" transform="translate(306.71000000000004,0)" style="font-family: 'Open Sans', verdana, arial, sans-serif; font-size: 12px; fill: rgb(42, 63, 95); fill-opacity: 1; white-space: pre;">2</text></g></g><g class="yaxislayer-above"><g class="ytick"><text text-anchor="end" x="79" y="4.199999999999999" transform="translate(0,294.16999999999996)" style="font-family: 'Open Sans', verdana, arial, sans-serif; font-size: 12px; fill: rgb(42, 63, 95); fill-opacity: 1; white-space: pre;">−3</text></g><g class="ytick"><text text-anchor="end" x="79" y="4.199999999999999" transform="translate(0,257.78)" style="font-family: 'Open Sans', verdana, arial, sans-serif; font-size: 12px; fill: rgb(42, 63, 95); fill-opacity: 1; white-space: pre;">−2</text></g><g class="ytick"><text text-anchor="end" x="79" y="4.199999999999999" transform="translate(0,221.38)" style="font-family: 'Open Sans', verdana, arial, sans-serif; font-size: 12px; fill: rgb(42, 63, 95); fill-opacity: 1; white-space: pre;">−1</text></g><g class="ytick"><text text-anchor="end" x="79" y="4.199999999999999" transform="translate(0,184.98000000000002)" style="font-family: 'Open Sans', verdana, arial, sans-serif; font-size: 12px; fill: rgb(42, 63, 95); fill-opacity: 1; white-space: pre;">0</text></g><g class="ytick"><text text-anchor="end" x="79" y="4.199999999999999" transform="translate(0,148.57999999999998)" style="font-family: 'Open Sans', verdana, arial, sans-serif; font-size: 12px; fill: rgb(42, 63, 95); fill-opacity: 1; white-space: pre;">1</text></g><g class="ytick"><text text-anchor="end" x="79" y="4.199999999999999" transform="translate(0,112.18)" style="font-family: 'Open Sans', verdana, arial, sans-serif; font-size: 12px; fill: rgb(42, 63, 95); fill-opacity: 1; white-space: pre;">2</text></g></g><g class="overaxes-above"/></g></g><g class="polarlayer"/><g class="ternarylayer"/><g class="geolayer"/><g class="funnelarealayer"/><g class="pielayer"/><g class="treemaplayer"/><g class="sunburstlayer"/><g class="glimages"/><defs id="topdefs-510619"><g class="clips"/></defs><g class="layer-above"><g class="imagelayer"/><g class="shapelayer"/></g><g class="infolayer"><g class="g-gtitle"><text class="gtitle" x="80" y="0" text-anchor="start" dy="0.7em" style="font-family: monospace; font-size: 14px; fill: rgb(42, 63, 95); opacity: 1; font-weight: normal; white-space: pre;"><tspan class="line" dy="0em" x="80" y="0"></tspan><tspan class="line" dy="1.3em" x="80" y="0">jnk1 (N = 21)</tspan><tspan class="line" dy="2.6em" x="80" y="0">RMSE: 0.97 [95%:  0.70,  1.25]</tspan><tspan class="line" dy="3.9000000000000004em" x="80" y="0">MUE:  0.80 [95%:  0.60,  1.03]</tspan><tspan class="line" dy="5.2em" x="80" y="0">R2:   0.64 [95%:  0.31,  0.88]</tspan><tspan class="line" dy="6.5em" x="80" y="0">rho:  0.80 [95%:  0.59,  0.95]</tspan></text></g><g class="g-xtitle"><text class="xtitle" x="200" y="361.8" text-anchor="middle" style="font-family: 'Open Sans', verdana, arial, sans-serif; font-size: 14px; fill: rgb(42, 63, 95); opacity: 1; font-weight: normal; white-space: pre;">Experimental ΔG [kcal mol​<tspan style="font-size:70%" dy="-0.6em">-1</tspan><tspan dy="0.42em">​</tspan>]</text></g><g class="g-ytitle"><text class="ytitle" transform="rotate(-90,40.465625,210)" x="40.465625" y="210" text-anchor="middle" style="font-family: 'Open Sans', verdana, arial, sans-serif; font-size: 14px; fill: rgb(42, 63, 95); opacity: 1; font-weight: normal; white-space: pre;">Calculated ΔG pmx_gaff_gapsys [kcal mol​<tspan style="font-size:70%" dy="-0.6em">-1</tspan><tspan dy="0.42em">​</tspan>]</text></g></g></svg>