<svg class="main-svg" xmlns="http://www.w3.org/2000/svg" xmlns:xlink="http://www.w3.org/1999/xlink" width="400" height="400" style="" viewBox="0 0 400 400"><rect x="0" y="0" width="400" height="400" style="fill: rgb(255, 255, 255); fill-opacity: 1;"/><defs id="defs-c3d727"><g class="clips"><clipPath id="clipc3d727xyplot" class="plotclip"><rect width="240" height="220"/></clipPath><clipPath class="axesclip" id="clipc3d727x"><rect x="80" y="0" width="240" height="400"/></clipPath><clipPath class="axesclip" id="clipc3d727y"><rect x="0" y="100" width="400" height="220"/></clipPath><clipPath class="axesclip" id="clipc3d727xy"><rect x="80" y="100" width="240" height="220"/></clipPath></g><g class="gradients"/></defs><g class="bglayer"><rect class="bg" x="80" y="100" width="240" height="220" style="fill: rgb(229, 236, 246); fill-opacity: 1; stroke-width: 0;"/></g><g class="layer-below"><g class="imagelayer"/><g class="shapelayer"/></g><g class="cartesianlayer"><g class="subplot xy"><g class="layer-subplot"><g class="shapelayer"/><g class="imagelayer"/></g><g class="gridlayer"><g class="x"><path class="xgrid crisp" transform="translate(98.12,0)" d="M0,100v220" style="stroke: rgb(255, 255, 255); stroke-opacity: 1; stroke-width: 1px;"/><path class="xgrid crisp" transform="translate(283.09000000000003,0)" d="M0,100v220" style="stroke: rgb(255, 255, 255); stroke-opacity: 1; stroke-width: 1px;"/></g><g class="y"><path class="ygrid crisp" transform="translate(0,303.39)" d="M80,0h240" style="stroke: rgb(255, 255, 255); stroke-opacity: 1; stroke-width: 1px;"/><path class="ygrid crisp" transform="translate(0,261)" d="M80,0h240" style="stroke: rgb(255, 255, 255); stroke-opacity: 1; stroke-width: 1px;"/><path class="ygrid crisp" transform="translate(0,176.22)" d="M80,0h240" style="stroke: rgb(255, 255, 255); stroke-opacity: 1; stroke-width: 1px;"/><path class="ygrid crisp" transform="translate(0,133.82999999999998)" d="M80,0h240" style="stroke: rgb(255, 255, 255); stroke-opacity: 1; stroke-width: 1px;"/></g></g><g class="zerolinelayer"><path class="xzl zl crisp" transform="translate(190.61,0)" d="M0,100v220" style="stroke: rgb(255, 255, 255); stroke-opacity: 1; stroke-width: 2px;"/><path class="yzl zl crisp" transform="translate(0,218.61)" d="M80,0h240" style="stroke: rgb(255, 255, 255); stroke-opacity: 1; stroke-width: 2px;"/></g><path class="xlines-below"/><path class="ylines-below"/><g class="overlines-below"/><g class="xaxislayer-below"/><g class="yaxislayer-below"/><g class="overaxes-below"/><g class="plot" transform="translate(80, 100)" clip-path="url('#clipc3d727xyplot')"><g class="scatterlayer mlayer"><g class="trace scatter tracebe7b83" style="stroke-miterlimit: 2; opacity: 1;"><g class="fills"><g><path class="js-fill" d="M0,177.61L193.76,0L240,0L240,42.39L46.24,220L0,220Z" style="fill: rgb(0, 0, 0); fill-opacity: 0.2; stroke-width: 0;"/></g></g><g class="errorbars"/><g class="lines"><path class="js-line" d="M0,177.61L193.76,0L240,0L240,42.39L46.24,220L0,220" style="vector-effect: non-scaling-stroke; fill: none; stroke: rgb(99, 110, 250); stroke-opacity: 1; stroke-width: 0px; opacity: 1;"/></g><g class="points"/><g class="text"/></g><g class="trace scatter trace9f5e2d" style="stroke-miterlimit: 2; opacity: 1;"><g class="fills"><g><path class="js-fill" d="M0,198.81L216.88,0L240,0L240,21.19L23.12,220L0,220Z" style="fill: rgb(0, 0, 0); fill-opacity: 0.2; stroke-width: 0;"/></g></g><g class="errorbars"/><g class="lines"><path class="js-line" d="M0,198.81L216.88,0L240,0L240,21.19L23.12,220L0,220" style="vector-effect: non-scaling-stroke; fill: none; stroke: rgb(239, 85, 59); stroke-opacity: 1; stroke-width: 0px; opacity: 1;"/></g><g class="points"/><g class="text"/></g><g class="trace scatter trace373f8b" style="stroke-miterlimit: 2; opacity: 1;"><g class="fills"/><g class="errorbars"/><g class="lines"><path class="js-line" d="M0,220L240,0" style="vector-effect: non-scaling-stroke; fill: none; stroke: rgb(0, 0, 0); stroke-opacity: 1; stroke-width: 2px; opacity: 1;"/></g><g class="points"/><g class="text"/></g><g class="trace scatter trace939f42" style="stroke-miterlimit: 2; opacity: 1;"><g class="fills"/><g class="errorbars"><g class="errorbar"><path class="yerror" d="M99.12,114.79h8m-4,0V122.42m-4,0h8" style="vector-effect: non-scaling-stroke; stroke-width: 2px; stroke: rgb(0, 0, 0); stroke-opacity: 1;"/><path class="xerror" d="M115.14,114.61v8m0,-4H91.1m0,-4v8" style="vector-effect: non-scaling-stroke; stroke-width: 2px; stroke: rgb(0, 0, 0); stroke-opacity: 1;"/></g><g class="errorbar"><path class="yerror" d="M79.24,114.42h8m-4,0V122.8m-4,0h8" style="vector-effect: non-scaling-stroke; stroke-width: 2px; stroke: rgb(0, 0, 0); stroke-opacity: 1;"/><path class="xerror" d="M83.7,114.61v8m0,-4H82.77m0,-4v8" style="vector-effect: non-scaling-stroke; stroke-width: 2px; stroke: rgb(0, 0, 0); stroke-opacity: 1;"/></g><g class="errorbar"><path class="yerror" d="M62.129999999999995,114.42h8m-4,0V122.8m-4,0h8" style="vector-effect: non-scaling-stroke; stroke-width: 2px; stroke: rgb(0, 0, 0); stroke-opacity: 1;"/><path class="xerror" d="M490.17,114.61v8m0,-4H-357.92m0,-4v8" style="vector-effect: non-scaling-stroke; stroke-width: 2px; stroke: rgb(0, 0, 0); stroke-opacity: 1;"/></g><g class="errorbar"><path class="yerror" d="M40.86,114.19h8m-4,0V123.03m-4,0h8" style="vector-effect: non-scaling-stroke; stroke-width: 2px; stroke: rgb(0, 0, 0); stroke-opacity: 1;"/><path class="xerror" d="M51.79,114.61v8m0,-4H37.92m0,-4v8" style="vector-effect: non-scaling-stroke; stroke-width: 2px; stroke: rgb(0, 0, 0); stroke-opacity: 1;"/></g><g class="errorbar"><path class="yerror" d="M197.16,116.98h8m-4,0V120.24m-4,0h8" style="vector-effect: non-scaling-stroke; stroke-width: 2px; stroke: rgb(0, 0, 0); stroke-opacity: 1;"/><path class="xerror" d="M206.71,114.61v8m0,-4H195.61m0,-4v8" style="vector-effect: non-scaling-stroke; stroke-width: 2px; stroke: rgb(0, 0, 0); stroke-opacity: 1;"/></g><g class="errorbar"><path class="yerror" d="M71.84,115.64h8m-4,0V121.58m-4,0h8" style="vector-effect: non-scaling-stroke; stroke-width: 2px; stroke: rgb(0, 0, 0); stroke-opacity: 1;"/><path class="xerror" d="M78.15,114.61v8m0,-4H73.53m0,-4v8" style="vector-effect: non-scaling-stroke; stroke-width: 2px; stroke: rgb(0, 0, 0); stroke-opacity: 1;"/></g><g class="errorbar"><path class="yerror" d="M66.29,115.51h8m-4,0V121.71m-4,0h8" style="vector-effect: non-scaling-stroke; stroke-width: 2px; stroke: rgb(0, 0, 0); stroke-opacity: 1;"/><path class="xerror" d="M79.54,114.61v8m0,-4H61.04m0,-4v8" style="vector-effect: non-scaling-stroke; stroke-width: 2px; stroke: rgb(0, 0, 0); stroke-opacity: 1;"/></g><g class="errorbar"><path class="yerror" d="M128.72,115.31h8m-4,0V121.91m-4,0h8" style="vector-effect: non-scaling-stroke; stroke-width: 2px; stroke: rgb(0, 0, 0); stroke-opacity: 1;"/><path class="xerror" d="M133.64,114.61v8m0,-4H131.79m0,-4v8" style="vector-effect: non-scaling-stroke; stroke-width: 2px; stroke: rgb(0, 0, 0); stroke-opacity: 1;"/></g><g class="errorbar"><path class="yerror" d="M174.03,115.72h8m-4,0V121.49m-4,0h8" style="vector-effect: non-scaling-stroke; stroke-width: 2px; stroke: rgb(0, 0, 0); stroke-opacity: 1;"/><path class="xerror" d="M179.42,114.61v8m0,-4H176.65m0,-4v8" style="vector-effect: non-scaling-stroke; stroke-width: 2px; stroke: rgb(0, 0, 0); stroke-opacity: 1;"/></g><g class="errorbar"><path class="yerror" d="M72.76,116.97h8m-4,0V120.24m-4,0h8" style="vector-effect: non-scaling-stroke; stroke-width: 2px; stroke: rgb(0, 0, 0); stroke-opacity: 1;"/><path class="xerror" d="M86.94,114.61v8m0,-4H66.59m0,-4v8" style="vector-effect: non-scaling-stroke; stroke-width: 2px; stroke: rgb(0, 0, 0); stroke-opacity: 1;"/></g><g class="errorbar"><path class="yerror" d="M212.88,114.66h8m-4,0V122.56m-4,0h8" style="vector-effect: non-scaling-stroke; stroke-width: 2px; stroke: rgb(0, 0, 0); stroke-opacity: 1;"/><path class="xerror" d="M224.28,114.61v8m0,-4H209.48m0,-4v8" style="vector-effect: non-scaling-stroke; stroke-width: 2px; stroke: rgb(0, 0, 0); stroke-opacity: 1;"/></g><g class="errorbar"><path class="yerror" d="M159.24,115.76h8m-4,0V121.46m-4,0h8" style="vector-effect: non-scaling-stroke; stroke-width: 2px; stroke: rgb(0, 0, 0); stroke-opacity: 1;"/><path class="xerror" d="M168.79,114.61v8m0,-4H157.69m0,-4v8" style="vector-effect: non-scaling-stroke; stroke-width: 2px; stroke: rgb(0, 0, 0); stroke-opacity: 1;"/></g><g class="errorbar"><path class="yerror" d="M144.9,114.97h8m-4,0V122.25m-4,0h8" style="vector-effect: non-scaling-stroke; stroke-width: 2px; stroke: rgb(0, 0, 0); stroke-opacity: 1;"/><path class="xerror" d="M150.29,114.61v8m0,-4H147.51m0,-4v8" style="vector-effect: non-scaling-stroke; stroke-width: 2px; stroke: rgb(0, 0, 0); stroke-opacity: 1;"/></g><g class="errorbar"><path class="yerror" d="M117.16,115.98h8m-4,0V121.23m-4,0h8" style="vector-effect: non-scaling-stroke; stroke-width: 2px; stroke: rgb(0, 0, 0); stroke-opacity: 1;"/><path class="xerror" d="M129.94,114.61v8m0,-4H112.37m0,-4v8" style="vector-effect: non-scaling-stroke; stroke-width: 2px; stroke: rgb(0, 0, 0); stroke-opacity: 1;"/></g><g class="errorbar"><path class="yerror" d="M172.18,115.21h8m-4,0V122.01m-4,0h8" style="vector-effect: non-scaling-stroke; stroke-width: 2px; stroke: rgb(0, 0, 0); stroke-opacity: 1;"/><path class="xerror" d="M176.65,114.61v8m0,-4H175.72m0,-4v8" style="vector-effect: non-scaling-stroke; stroke-width: 2px; stroke: rgb(0, 0, 0); stroke-opacity: 1;"/></g><g class="errorbar"><path class="yerror" d="M113.92,115.32h8m-4,0V121.89m-4,0h8" style="vector-effect: non-scaling-stroke; stroke-width: 2px; stroke: rgb(0, 0, 0); stroke-opacity: 1;"/><path class="xerror" d="M119.31,114.61v8m0,-4H116.53m0,-4v8" style="vector-effect: non-scaling-stroke; stroke-width: 2px; stroke: rgb(0, 0, 0); stroke-opacity: 1;"/></g><g class="errorbar"><path class="yerror" d="M175.88,116.02h8m-4,0V121.2m-4,0h8" style="vector-effect: non-scaling-stroke; stroke-width: 2px; stroke: rgb(0, 0, 0); stroke-opacity: 1;"/><path class="xerror" d="M185.43,114.61v8m0,-4H174.34m0,-4v8" style="vector-effect: non-scaling-stroke; stroke-width: 2px; stroke: rgb(0, 0, 0); stroke-opacity: 1;"/></g><g class="errorbar"><path class="yerror" d="M162.47,115.2h8m-4,0V122.01m-4,0h8" style="vector-effect: non-scaling-stroke; stroke-width: 2px; stroke: rgb(0, 0, 0); stroke-opacity: 1;"/><path class="xerror" d="M175.26,114.61v8m0,-4H157.69m0,-4v8" style="vector-effect: non-scaling-stroke; stroke-width: 2px; stroke: rgb(0, 0, 0); stroke-opacity: 1;"/></g><g class="errorbar"><path class="yerror" d="M162.01,115.46h8m-4,0V121.75m-4,0h8" style="vector-effect: non-scaling-stroke; stroke-width: 2px; stroke: rgb(0, 0, 0); stroke-opacity: 1;"/><path class="xerror" d="M174.34,114.61v8m0,-4H157.69m0,-4v8" style="vector-effect: non-scaling-stroke; stroke-width: 2px; stroke: rgb(0, 0, 0); stroke-opacity: 1;"/></g><g class="errorbar"><path class="yerror" d="M101.9,115.26h8m-4,0V121.95m-4,0h8" style="vector-effect: non-scaling-stroke; stroke-width: 2px; stroke: rgb(0, 0, 0); stroke-opacity: 1;"/><path class="xerror" d="M108.21,114.61v8m0,-4H103.58m0,-4v8" style="vector-effect: non-scaling-stroke; stroke-width: 2px; stroke: rgb(0, 0, 0); stroke-opacity: 1;"/></g><g class="errorbar"><path class="yerror" d="M66.29,115.32h8m-4,0V121.89m-4,0h8" style="vector-effect: non-scaling-stroke; stroke-width: 2px; stroke: rgb(0, 0, 0); stroke-opacity: 1;"/><path class="xerror" d="M84.16,114.61v8m0,-4H56.42m0,-4v8" style="vector-effect: non-scaling-stroke; stroke-width: 2px; stroke: rgb(0, 0, 0); stroke-opacity: 1;"/></g><g class="errorbar"><path class="yerror" d="M155.08,115.2h8m-4,0V122.01m-4,0h8" style="vector-effect: non-scaling-stroke; stroke-width: 2px; stroke: rgb(0, 0, 0); stroke-opacity: 1;"/><path class="xerror" d="M161.39,114.61v8m0,-4H156.76m0,-4v8" style="vector-effect: non-scaling-stroke; stroke-width: 2px; stroke: rgb(0, 0, 0); stroke-opacity: 1;"/></g><g class="errorbar"><path class="yerror" d="M19.12,115.32h8m-4,0V121.89m-4,0h8" style="vector-effect: non-scaling-stroke; stroke-width: 2px; stroke: rgb(0, 0, 0); stroke-opacity: 1;"/><path class="xerror" d="M32.37,114.61v8m0,-4H13.87m0,-4v8" style="vector-effect: non-scaling-stroke; stroke-width: 2px; stroke: rgb(0, 0, 0); stroke-opacity: 1;"/></g><g class="errorbar"><path class="yerror" d="M67.68,116.44h8m-4,0V120.77m-4,0h8" style="vector-effect: non-scaling-stroke; stroke-width: 2px; stroke: rgb(0, 0, 0); stroke-opacity: 1;"/><path class="xerror" d="M72.6,114.61v8m0,-4H70.75m0,-4v8" style="vector-effect: non-scaling-stroke; stroke-width: 2px; stroke: rgb(0, 0, 0); stroke-opacity: 1;"/></g><g class="errorbar"><path class="yerror" d="M155.54,115.26h8m-4,0V121.95m-4,0h8" style="vector-effect: non-scaling-stroke; stroke-width: 2px; stroke: rgb(0, 0, 0); stroke-opacity: 1;"/><path class="xerror" d="M166.94,114.61v8m0,-4H152.14m0,-4v8" style="vector-effect: non-scaling-stroke; stroke-width: 2px; stroke: rgb(0, 0, 0); stroke-opacity: 1;"/></g><g class="errorbar"><path class="yerror" d="M150.45,115.2h8m-4,0V122.01m-4,0h8" style="vector-effect: non-scaling-stroke; stroke-width: 2px; stroke: rgb(0, 0, 0); stroke-opacity: 1;"/><path class="xerror" d="M157.23,114.61v8m0,-4H151.68m0,-4v8" style="vector-effect: non-scaling-stroke; stroke-width: 2px; stroke: rgb(0, 0, 0); stroke-opacity: 1;"/></g><g class="errorbar"><path class="yerror" d="M68.6,114.79h8m-4,0V122.42m-4,0h8" style="vector-effect: non-scaling-stroke; stroke-width: 2px; stroke: rgb(0, 0, 0); stroke-opacity: 1;"/><path class="xerror" d="M80.92,114.61v8m0,-4H64.28m0,-4v8" style="vector-effect: non-scaling-stroke; stroke-width: 2px; stroke: rgb(0, 0, 0); stroke-opacity: 1;"/></g><g class="errorbar"><path class="yerror" d="M89.41,114.48h8m-4,0V122.74m-4,0h8" style="vector-effect: non-scaling-stroke; stroke-width: 2px; stroke: rgb(0, 0, 0); stroke-opacity: 1;"/><path class="xerror" d="M102.66,114.61v8m0,-4H84.16m0,-4v8" style="vector-effect: non-scaling-stroke; stroke-width: 2px; stroke: rgb(0, 0, 0); stroke-opacity: 1;"/></g><g class="errorbar"><path class="yerror" d="M154.61,114.9h8m-4,0V122.32m-4,0h8" style="vector-effect: non-scaling-stroke; stroke-width: 2px; stroke: rgb(0, 0, 0); stroke-opacity: 1;"/><path class="xerror" d="M160.92,114.61v8m0,-4H156.3m0,-4v8" style="vector-effect: non-scaling-stroke; stroke-width: 2px; stroke: rgb(0, 0, 0); stroke-opacity: 1;"/></g><g class="errorbar"><path class="yerror" d="M93.57,115.32h8m-4,0V121.89m-4,0h8" style="vector-effect: non-scaling-stroke; stroke-width: 2px; stroke: rgb(0, 0, 0); stroke-opacity: 1;"/><path class="xerror" d="M103.12,114.61v8m0,-4H92.02m0,-4v8" style="vector-effect: non-scaling-stroke; stroke-width: 2px; stroke: rgb(0, 0, 0); stroke-opacity: 1;"/></g><g class="errorbar"><path class="yerror" d="M129.64,116.77h8m-4,0V120.45m-4,0h8" style="vector-effect: non-scaling-stroke; stroke-width: 2px; stroke: rgb(0, 0, 0); stroke-opacity: 1;"/><path class="xerror" d="M134.57,114.61v8m0,-4H132.72m0,-4v8" style="vector-effect: non-scaling-stroke; stroke-width: 2px; stroke: rgb(0, 0, 0); stroke-opacity: 1;"/></g><g class="errorbar"><path class="yerror" d="M48.72,115.2h8m-4,0V122.02m-4,0h8" style="vector-effect: non-scaling-stroke; stroke-width: 2px; stroke: rgb(0, 0, 0); stroke-opacity: 1;"/><path class="xerror" d="M59.65,114.61v8m0,-4H45.78m0,-4v8" style="vector-effect: non-scaling-stroke; stroke-width: 2px; stroke: rgb(0, 0, 0); stroke-opacity: 1;"/></g><g class="errorbar"><path class="yerror" d="M53.34,115.2h8m-4,0V122.02m-4,0h8" style="vector-effect: non-scaling-stroke; stroke-width: 2px; stroke: rgb(0, 0, 0); stroke-opacity: 1;"/><path class="xerror" d="M60.12,114.61v8m0,-4H54.57m0,-4v8" style="vector-effect: non-scaling-stroke; stroke-width: 2px; stroke: rgb(0, 0, 0); stroke-opacity: 1;"/></g><g class="errorbar"><path class="yerror" d="M27.91,114.42h8m-4,0V122.8m-4,0h8" style="vector-effect: non-scaling-stroke; stroke-width: 2px; stroke: rgb(0, 0, 0); stroke-opacity: 1;"/><path class="xerror" d="M41.16,114.61v8m0,-4H22.66m0,-4v8" style="vector-effect: non-scaling-stroke; stroke-width: 2px; stroke: rgb(0, 0, 0); stroke-opacity: 1;"/></g><g class="errorbar"><path class="yerror" d="M51.95,115.26h8m-4,0V121.95m-4,0h8" style="vector-effect: non-scaling-stroke; stroke-width: 2px; stroke: rgb(0, 0, 0); stroke-opacity: 1;"/><path class="xerror" d="M57.34,114.61v8m0,-4H54.57m0,-4v8" style="vector-effect: non-scaling-stroke; stroke-width: 2px; stroke: rgb(0, 0, 0); stroke-opacity: 1;"/></g><g class="errorbar"><path class="yerror" d="M45.02,115.2h8m-4,0V122.02m-4,0h8" style="vector-effect: non-scaling-stroke; stroke-width: 2px; stroke: rgb(0, 0, 0); stroke-opacity: 1;"/><path class="xerror" d="M50.87,114.61v8m0,-4H47.17m0,-4v8" style="vector-effect: non-scaling-stroke; stroke-width: 2px; stroke: rgb(0, 0, 0); stroke-opacity: 1;"/></g><g class="errorbar"><path class="yerror" d="M106.52,115.2h8m-4,0V122.02m-4,0h8" style="vector-effect: non-scaling-stroke; stroke-width: 2px; stroke: rgb(0, 0, 0); stroke-opacity: 1;"/><path class="xerror" d="M121.62,114.61v8m0,-4H99.42m0,-4v8" style="vector-effect: non-scaling-stroke; stroke-width: 2px; stroke: rgb(0, 0, 0); stroke-opacity: 1;"/></g><g class="errorbar"><path class="yerror" d="M112.07,114.48h8m-4,0V122.74m-4,0h8" style="vector-effect: non-scaling-stroke; stroke-width: 2px; stroke: rgb(0, 0, 0); stroke-opacity: 1;"/><path class="xerror" d="M123.01,114.61v8m0,-4H109.13m0,-4v8" style="vector-effect: non-scaling-stroke; stroke-width: 2px; stroke: rgb(0, 0, 0); stroke-opacity: 1;"/></g><g class="errorbar"><path class="yerror" d="M61.2,115.2h8m-4,0V122.02m-4,0h8" style="vector-effect: non-scaling-stroke; stroke-width: 2px; stroke: rgb(0, 0, 0); stroke-opacity: 1;"/><path class="xerror" d="M69.83,114.61v8m0,-4H60.58m0,-4v8" style="vector-effect: non-scaling-stroke; stroke-width: 2px; stroke: rgb(0, 0, 0); stroke-opacity: 1;"/></g><g class="errorbar"><path class="yerror" d="M91.26,115.2h8m-4,0V122.02m-4,0h8" style="vector-effect: non-scaling-stroke; stroke-width: 2px; stroke: rgb(0, 0, 0); stroke-opacity: 1;"/><path class="xerror" d="M104.05,114.61v8m0,-4H86.47m0,-4v8" style="vector-effect: non-scaling-stroke; stroke-width: 2px; stroke: rgb(0, 0, 0); stroke-opacity: 1;"/></g><g class="errorbar"><path class="yerror" d="M90.34,114.42h8m-4,0V122.8m-4,0h8" style="vector-effect: non-scaling-stroke; stroke-width: 2px; stroke: rgb(0, 0, 0); stroke-opacity: 1;"/><path class="xerror" d="M99.88,114.61v8m0,-4H88.79m0,-4v8" style="vector-effect: non-scaling-stroke; stroke-width: 2px; stroke: rgb(0, 0, 0); stroke-opacity: 1;"/></g><g class="errorbar"><path class="yerror" d="M124.55000000000001,114.73h8m-4,0V122.49m-4,0h8" style="vector-effect: non-scaling-stroke; stroke-width: 2px; stroke: rgb(0, 0, 0); stroke-opacity: 1;"/><path class="xerror" d="M140.58,114.61v8m0,-4H116.53m0,-4v8" style="vector-effect: non-scaling-stroke; stroke-width: 2px; stroke: rgb(0, 0, 0); stroke-opacity: 1;"/></g></g><g class="lines"/><g class="points"><path class="point" transform="translate(103.12,118.61)" d="M3,0A3,3 0 1,1 0,-3A3,3 0 0,1 3,0Z" style="opacity: 1; stroke-width: 0px; fill: rgb(18, 0, 237); fill-opacity: 1;"/><path class="point" transform="translate(83.24,118.61)" d="M3,0A3,3 0 1,1 0,-3A3,3 0 0,1 3,0Z" style="opacity: 1; stroke-width: 0px; fill: rgb(66, 0, 189); fill-opacity: 1;"/><path class="point" transform="translate(66.13,118.61)" d="M3,0A3,3 0 1,1 0,-3A3,3 0 0,1 3,0Z" style="opacity: 1; stroke-width: 0px; fill: rgb(107, 0, 148); fill-opacity: 1;"/><path class="point" transform="translate(44.86,118.61)" d="M3,0A3,3 0 1,1 0,-3A3,3 0 0,1 3,0Z" style="opacity: 1; stroke-width: 0px; fill: rgb(158, 0, 97); fill-opacity: 1;"/><path class="point" transform="translate(201.16,118.61)" d="M3,0A3,3 0 1,1 0,-3A3,3 0 0,1 3,0Z" style="opacity: 1; stroke-width: 0px; fill: rgb(217, 0, 38); fill-opacity: 1;"/><path class="point" transform="translate(75.84,118.61)" d="M3,0A3,3 0 1,1 0,-3A3,3 0 0,1 3,0Z" style="opacity: 1; stroke-width: 0px; fill: rgb(83, 0, 172); fill-opacity: 1;"/><path class="point" transform="translate(70.29,118.61)" d="M3,0A3,3 0 1,1 0,-3A3,3 0 0,1 3,0Z" style="opacity: 1; stroke-width: 0px; fill: rgb(97, 0, 158); fill-opacity: 1;"/><path class="point" transform="translate(132.72,118.61)" d="M3,0A3,3 0 1,1 0,-3A3,3 0 0,1 3,0Z" style="opacity: 1; stroke-width: 0px; fill: rgb(53, 0, 202); fill-opacity: 1;"/><path class="point" transform="translate(178.03,118.61)" d="M3,0A3,3 0 1,1 0,-3A3,3 0 0,1 3,0Z" style="opacity: 1; stroke-width: 0px; fill: rgb(162, 0, 93); fill-opacity: 1;"/><path class="point" transform="translate(76.76,118.61)" d="M3,0A3,3 0 1,1 0,-3A3,3 0 0,1 3,0Z" style="opacity: 1; stroke-width: 0px; fill: rgb(81, 0, 174); fill-opacity: 1;"/><path class="point" transform="translate(216.88,118.61)" d="M3,0A3,3 0 1,1 0,-3A3,3 0 0,1 3,0Z" style="opacity: 1; stroke-width: 0px; fill: rgb(255, 0, 0); fill-opacity: 1;"/><path class="point" transform="translate(163.24,118.61)" d="M3,0A3,3 0 1,1 0,-3A3,3 0 0,1 3,0Z" style="opacity: 1; stroke-width: 0px; fill: rgb(126, 0, 129); fill-opacity: 1;"/><path class="point" transform="translate(148.9,118.61)" d="M3,0A3,3 0 1,1 0,-3A3,3 0 0,1 3,0Z" style="opacity: 1; stroke-width: 0px; fill: rgb(92, 0, 163); fill-opacity: 1;"/><path class="point" transform="translate(121.16,118.61)" d="M3,0A3,3 0 1,1 0,-3A3,3 0 0,1 3,0Z" style="opacity: 1; stroke-width: 0px; fill: rgb(25, 0, 230); fill-opacity: 1;"/><path class="point" transform="translate(176.18,118.61)" d="M3,0A3,3 0 1,1 0,-3A3,3 0 0,1 3,0Z" style="opacity: 1; stroke-width: 0px; fill: rgb(157, 0, 98); fill-opacity: 1;"/><path class="point" transform="translate(117.92,118.61)" d="M3,0A3,3 0 1,1 0,-3A3,3 0 0,1 3,0Z" style="opacity: 1; stroke-width: 0px; fill: rgb(17, 0, 238); fill-opacity: 1;"/><path class="point" transform="translate(179.88,118.61)" d="M3,0A3,3 0 1,1 0,-3A3,3 0 0,1 3,0Z" style="opacity: 1; stroke-width: 0px; fill: rgb(166, 0, 89); fill-opacity: 1;"/><path class="point" transform="translate(166.47,118.61)" d="M3,0A3,3 0 1,1 0,-3A3,3 0 0,1 3,0Z" style="opacity: 1; stroke-width: 0px; fill: rgb(134, 0, 121); fill-opacity: 1;"/><path class="point" transform="translate(166.01,118.61)" d="M3,0A3,3 0 1,1 0,-3A3,3 0 0,1 3,0Z" style="opacity: 1; stroke-width: 0px; fill: rgb(133, 0, 122); fill-opacity: 1;"/><path class="point" transform="translate(105.9,118.61)" d="M3,0A3,3 0 1,1 0,-3A3,3 0 0,1 3,0Z" style="opacity: 1; stroke-width: 0px; fill: rgb(11, 0, 244); fill-opacity: 1;"/><path class="point" transform="translate(70.29,118.61)" d="M3,0A3,3 0 1,1 0,-3A3,3 0 0,1 3,0Z" style="opacity: 1; stroke-width: 0px; fill: rgb(97, 0, 158); fill-opacity: 1;"/><path class="point" transform="translate(159.08,118.61)" d="M3,0A3,3 0 1,1 0,-3A3,3 0 0,1 3,0Z" style="opacity: 1; stroke-width: 0px; fill: rgb(116, 0, 139); fill-opacity: 1;"/><path class="point" transform="translate(23.12,118.61)" d="M3,0A3,3 0 1,1 0,-3A3,3 0 0,1 3,0Z" style="opacity: 1; stroke-width: 0px; fill: rgb(210, 0, 45); fill-opacity: 1;"/><path class="point" transform="translate(71.68,118.61)" d="M3,0A3,3 0 1,1 0,-3A3,3 0 0,1 3,0Z" style="opacity: 1; stroke-width: 0px; fill: rgb(93, 0, 162); fill-opacity: 1;"/><path class="point" transform="translate(159.54,118.61)" d="M3,0A3,3 0 1,1 0,-3A3,3 0 0,1 3,0Z" style="opacity: 1; stroke-width: 0px; fill: rgb(117, 0, 138); fill-opacity: 1;"/><path class="point" transform="translate(154.45,118.61)" d="M3,0A3,3 0 1,1 0,-3A3,3 0 0,1 3,0Z" style="opacity: 1; stroke-width: 0px; fill: rgb(105, 0, 150); fill-opacity: 1;"/><path class="point" transform="translate(72.6,118.61)" d="M3,0A3,3 0 1,1 0,-3A3,3 0 0,1 3,0Z" style="opacity: 1; stroke-width: 0px; fill: rgb(91, 0, 164); fill-opacity: 1;"/><path class="point" transform="translate(93.41,118.61)" d="M3,0A3,3 0 1,1 0,-3A3,3 0 0,1 3,0Z" style="opacity: 1; stroke-width: 0px; fill: rgb(41, 0, 214); fill-opacity: 1;"/><path class="point" transform="translate(158.61,118.61)" d="M3,0A3,3 0 1,1 0,-3A3,3 0 0,1 3,0Z" style="opacity: 1; stroke-width: 0px; fill: rgb(115, 0, 140); fill-opacity: 1;"/><path class="point" transform="translate(97.57,118.61)" d="M3,0A3,3 0 1,1 0,-3A3,3 0 0,1 3,0Z" style="opacity: 1; stroke-width: 0px; fill: rgb(31, 0, 224); fill-opacity: 1;"/><path class="point" transform="translate(133.64,118.61)" d="M3,0A3,3 0 1,1 0,-3A3,3 0 0,1 3,0Z" style="opacity: 1; stroke-width: 0px; fill: rgb(55, 0, 200); fill-opacity: 1;"/><path class="point" transform="translate(52.72,118.61)" d="M3,0A3,3 0 1,1 0,-3A3,3 0 0,1 3,0Z" style="opacity: 1; stroke-width: 0px; fill: rgb(139, 0, 116); fill-opacity: 1;"/><path class="point" transform="translate(57.34,118.61)" d="M3,0A3,3 0 1,1 0,-3A3,3 0 0,1 3,0Z" style="opacity: 1; stroke-width: 0px; fill: rgb(128, 0, 127); fill-opacity: 1;"/><path class="point" transform="translate(31.91,118.61)" d="M3,0A3,3 0 1,1 0,-3A3,3 0 0,1 3,0Z" style="opacity: 1; stroke-width: 0px; fill: rgb(189, 0, 66); fill-opacity: 1;"/><path class="point" transform="translate(55.95,118.61)" d="M3,0A3,3 0 1,1 0,-3A3,3 0 0,1 3,0Z" style="opacity: 1; stroke-width: 0px; fill: rgb(131, 0, 124); fill-opacity: 1;"/><path class="point" transform="translate(49.02,118.61)" d="M3,0A3,3 0 1,1 0,-3A3,3 0 0,1 3,0Z" style="opacity: 1; stroke-width: 0px; fill: rgb(148, 0, 107); fill-opacity: 1;"/><path class="point" transform="translate(110.52,118.61)" d="M3,0A3,3 0 1,1 0,-3A3,3 0 0,1 3,0Z" style="opacity: 1; stroke-width: 0px; fill: rgb(0, 0, 255); fill-opacity: 1;"/><path class="point" transform="translate(116.07,118.61)" d="M3,0A3,3 0 1,1 0,-3A3,3 0 0,1 3,0Z" style="opacity: 1; stroke-width: 0px; fill: rgb(13, 0, 242); fill-opacity: 1;"/><path class="point" transform="translate(65.2,118.61)" d="M3,0A3,3 0 1,1 0,-3A3,3 0 0,1 3,0Z" style="opacity: 1; stroke-width: 0px; fill: rgb(109, 0, 146); fill-opacity: 1;"/><path class="point" transform="translate(95.26,118.61)" d="M3,0A3,3 0 1,1 0,-3A3,3 0 0,1 3,0Z" style="opacity: 1; stroke-width: 0px; fill: rgb(37, 0, 218); fill-opacity: 1;"/><path class="point" transform="translate(94.34,118.61)" d="M3,0A3,3 0 1,1 0,-3A3,3 0 0,1 3,0Z" style="opacity: 1; stroke-width: 0px; fill: rgb(39, 0, 216); fill-opacity: 1;"/><path class="point" transform="translate(128.55,118.61)" d="M3,0A3,3 0 1,1 0,-3A3,3 0 0,1 3,0Z" style="opacity: 1; stroke-width: 0px; fill: rgb(43, 0, 212); fill-opacity: 1;"/></g><g class="text"/></g></g></g><g class="overplot"/><path class="xlines-above crisp" d="M0,0" style="fill: none;"/><path class="ylines-above crisp" d="M0,0" style="fill: none;"/><g class="overlines-above"/><g class="xaxislayer-above"><g class="xtick"><text text-anchor="middle" x="0" y="333" transform="translate(98.12,0)" style="font-family: 'Open Sans', verdana, arial, sans-serif; font-size: 12px; fill: rgb(42, 63, 95); fill-opacity: 1; white-space: pre;">−2</text></g><g class="xtick"><text text-anchor="middle" x="0" y="333" transform="translate(190.61,0)" style="font-family: 'Open Sans', verdana, arial, sans-serif; font-size: 12px; fill: rgb(42, 63, 95); fill-opacity: 1; white-space: pre;">0</text></g><g class="xtick"><text text-anchor="middle" x="0" y="333" transform="translate(283.09000000000003,0)" style="font-family: 'Open Sans', verdana, arial, sans-serif; font-size: 12px; fill: rgb(42, 63, 95); fill-opacity: 1; white-space: pre;">2</text></g></g><g class="yaxislayer-above"><g class="ytick"><text text-anchor="end" x="79" y="4.199999999999999" transform="translate(0,303.39)" style="font-family: 'Open Sans', verdana, arial, sans-serif; font-size: 12px; fill: rgb(42, 63, 95); fill-opacity: 1; white-space: pre;">−2</text></g><g class="ytick"><text text-anchor="end" x="79" y="4.199999999999999" transform="translate(0,261)" style="font-family: 'Open Sans', verdana, arial, sans-serif; font-size: 12px; fill: rgb(42, 63, 95); fill-opacity: 1; white-space: pre;">−1</text></g><g class="ytick"><text text-anchor="end" x="79" y="4.199999999999999" transform="translate(0,218.61)" style="font-family: 'Open Sans', verdana, arial, sans-serif; font-size: 12px; fill: rgb(42, 63, 95); fill-opacity: 1; white-space: pre;">0</text></g><g class="ytick"><text text-anchor="end" x="79" y="4.199999999999999" transform="translate(0,176.22)" style="font-family: 'Open Sans', verdana, arial, sans-serif; font-size: 12px; fill: rgb(42, 63, 95); fill-opacity: 1; white-space: pre;">1</text></g><g class="ytick"><text text-anchor="end" x="79" y="4.199999999999999" transform="translate(0,133.82999999999998)" style="font-family: 'Open Sans', verdana, arial, sans-serif; font-size: 12px; fill: rgb(42, 63, 95); fill-opacity: 1; white-space: pre;">2</text></g></g><g class="overaxes-above"/></g></g><g class="polarlayer"/><g class="ternarylayer"/><g class="geolayer"/><g class="funnelarealayer"/><g class="pielayer"/><g class="treemaplayer"/><g class="sunburstlayer"/><g class="glimages"/><defs id="topdefs-c3d727"><g class="clips"/></defs><g class="layer-above"><g class="imagelayer"/><g class="shapelayer"/></g><g class="infolayer"><g class="g-gtitle"><text class="gtitle" x="80" y="0" text-anchor="start" dy="0.7em" style="font-family: monospace; font-size: 14px; fill: rgb(42, 63, 95); opacity: 1; font-weight: normal; white-space: pre;"><tspan class="line" dy="0em" x="80" y="0"></tspan><tspan class="line" dy="1.3em" x="80" y="0">mcl1 (N = 42)</tspan><tspan class="line" dy="2.6em" x="80" y="0">RMSE: 1.05 [95%:  0.89,  1.23]</tspan><tspan class="line" dy="3.9000000000000004em" x="80" y="0">MUE:  0.90 [95%:  0.74,  1.07]</tspan><tspan class="line" dy="5.2em" x="80" y="0">R2:   0.00 [95%:  0.00,  0.00]</tspan><tspan class="line" dy="6.5em" x="80" y="0">rho:   nan [95%:   nan,   nan]</tspan></text></g><g class="g-xtitle"><text class="xtitle" x="200" y="361.8" text-anchor="middle" style="font-family: 'Open Sans', verdana, arial, sans-serif; font-size: 14px; fill: rgb(42, 63, 95); opacity: 1; font-weight: normal; white-space: pre;">Experimental ΔG [kcal mol​<tspan style="font-size:70%" dy="-0.6em">-1</tspan><tspan dy="0.42em">​</tspan>]</text></g><g class="g-ytitle"><text class="ytitle" transform="rotate(-90,40.465625,210)" x="40.465625" y="210" text-anchor="middle" style="font-family: 'Open Sans', verdana, arial, sans-serif; font-size: 14px; fill: rgb(42, 63, 95); opacity: 1; font-weight: normal; white-space: pre;">Calculated ΔG null_null_hahn [kcal mol​<tspan style="font-size:70%" dy="-0.6em">-1</tspan><tspan dy="0.42em">​</tspan>]</text></g></g></svg>