<svg class="main-svg" xmlns="http://www.w3.org/2000/svg" xmlns:xlink="http://www.w3.org/1999/xlink" width="400" height="400" style="" viewBox="0 0 400 400"><rect x="0" y="0" width="400" height="400" style="fill: rgb(255, 255, 255); fill-opacity: 1;"/><defs id="defs-d014ad"><g class="clips"><clipPath id="clipd014adxyplot" class="plotclip"><rect width="240" height="220"/></clipPath><clipPath class="axesclip" id="clipd014adx"><rect x="80" y="0" width="240" height="400"/></clipPath><clipPath class="axesclip" id="clipd014ady"><rect x="0" y="100" width="400" height="220"/></clipPath><clipPath class="axesclip" id="clipd014adxy"><rect x="80" y="100" width="240" height="220"/></clipPath></g><g class="gradients"/></defs><g class="bglayer"><rect class="bg" x="80" y="100" width="240" height="220" style="fill: rgb(229, 236, 246); fill-opacity: 1; stroke-width: 0;"/></g><g class="layer-below"><g class="imagelayer"/><g class="shapelayer"/></g><g class="cartesianlayer"><g class="subplot xy"><g class="layer-subplot"><g class="shapelayer"/><g class="imagelayer"/></g><g class="gridlayer"><g class="x"><path class="xgrid crisp" transform="translate(131.02,0)" d="M0,100v220" style="stroke: rgb(255, 255, 255); stroke-opacity: 1; stroke-width: 1px;"/><path class="xgrid crisp" transform="translate(243.62,0)" d="M0,100v220" style="stroke: rgb(255, 255, 255); stroke-opacity: 1; stroke-width: 1px;"/><path class="xgrid crisp" transform="translate(299.91999999999996,0)" d="M0,100v220" style="stroke: rgb(255, 255, 255); stroke-opacity: 1; stroke-width: 1px;"/></g><g class="y"><path class="ygrid crisp" transform="translate(0,273.23)" d="M80,0h240" style="stroke: rgb(255, 255, 255); stroke-opacity: 1; stroke-width: 1px;"/><path class="ygrid crisp" transform="translate(0,170.01)" d="M80,0h240" style="stroke: rgb(255, 255, 255); stroke-opacity: 1; stroke-width: 1px;"/><path class="ygrid crisp" transform="translate(0,118.4)" d="M80,0h240" style="stroke: rgb(255, 255, 255); stroke-opacity: 1; stroke-width: 1px;"/></g></g><g class="zerolinelayer"><path class="xzl zl crisp" transform="translate(187.32,0)" d="M0,100v220" style="stroke: rgb(255, 255, 255); stroke-opacity: 1; stroke-width: 2px;"/><path class="yzl zl crisp" transform="translate(0,221.62)" d="M80,0h240" style="stroke: rgb(255, 255, 255); stroke-opacity: 1; stroke-width: 2px;"/></g><path class="xlines-below"/><path class="ylines-below"/><g class="overlines-below"/><g class="xaxislayer-below"/><g class="yaxislayer-below"/><g class="overaxes-below"/><g class="plot" transform="translate(80, 100)" clip-path="url('#clipd014adxyplot')"><g class="scatterlayer mlayer"><g class="trace scatter tracec9c1c6" style="stroke-miterlimit: 2; opacity: 1;"><g class="fills"><g><path class="js-fill" d="M0,194.2L211.85,0L240,0L240,25.8L28.15,220L0,220Z" style="fill: rgb(0, 0, 0); fill-opacity: 0.2; stroke-width: 0;"/></g></g><g class="errorbars"/><g class="lines"><path class="js-line" d="M0,194.2L211.85,0L240,0L240,25.8L28.15,220L0,220" style="vector-effect: non-scaling-stroke; fill: none; stroke: rgb(99, 110, 250); stroke-opacity: 1; stroke-width: 0px; opacity: 1;"/></g><g class="points"/><g class="text"/></g><g class="trace scatter trace682f92" style="stroke-miterlimit: 2; opacity: 1;"><g class="fills"><g><path class="js-fill" d="M0,207.1L225.93,0L240,0L240,12.9L14.07,220L0,220Z" style="fill: rgb(0, 0, 0); fill-opacity: 0.2; stroke-width: 0;"/></g></g><g class="errorbars"/><g class="lines"><path class="js-line" d="M0,207.1L225.93,0L240,0L240,12.9L14.07,220L0,220" style="vector-effect: non-scaling-stroke; fill: none; stroke: rgb(239, 85, 59); stroke-opacity: 1; stroke-width: 0px; opacity: 1;"/></g><g class="points"/><g class="text"/></g><g class="trace scatter tracedea11f" style="stroke-miterlimit: 2; opacity: 1;"><g class="fills"/><g class="errorbars"/><g class="lines"><path class="js-line" d="M0,220L240,0" style="vector-effect: non-scaling-stroke; fill: none; stroke: rgb(0, 0, 0); stroke-opacity: 1; stroke-width: 2px; opacity: 1;"/></g><g class="points"/><g class="text"/></g><g class="trace scatter trace2bb098" style="stroke-miterlimit: 2; opacity: 1;"><g class="fills"/><g class="errorbars"><g class="errorbar"><path class="yerror" d="M100.87,95.64h8m-4,0V129.79m-4,0h8" style="vector-effect: non-scaling-stroke; stroke-width: 2px; stroke: rgb(0, 0, 0); stroke-opacity: 1;"/><path class="xerror" d="M112.19,108.72v8m0,-4H97.55m0,-4v8" style="vector-effect: non-scaling-stroke; stroke-width: 2px; stroke: rgb(0, 0, 0); stroke-opacity: 1;"/></g><g class="errorbar"><path class="yerror" d="M88.77,87.25h8m-4,0V123.29m-4,0h8" style="vector-effect: non-scaling-stroke; stroke-width: 2px; stroke: rgb(0, 0, 0); stroke-opacity: 1;"/><path class="xerror" d="M93.05,101.27v8m0,-4H92.48m0,-4v8" style="vector-effect: non-scaling-stroke; stroke-width: 2px; stroke: rgb(0, 0, 0); stroke-opacity: 1;"/></g><g class="errorbar"><path class="yerror" d="M78.35,77h8m-4,0V110.63m-4,0h8" style="vector-effect: non-scaling-stroke; stroke-width: 2px; stroke: rgb(0, 0, 0); stroke-opacity: 1;"/><path class="xerror" d="M340.49,89.81v8m0,-4H-175.79m0,-4v8" style="vector-effect: non-scaling-stroke; stroke-width: 2px; stroke: rgb(0, 0, 0); stroke-opacity: 1;"/></g><g class="errorbar"><path class="yerror" d="M65.4,124.13h8m-4,0V158.4m-4,0h8" style="vector-effect: non-scaling-stroke; stroke-width: 2px; stroke: rgb(0, 0, 0); stroke-opacity: 1;"/><path class="xerror" d="M73.62,137.27v8m0,-4H65.18m0,-4v8" style="vector-effect: non-scaling-stroke; stroke-width: 2px; stroke: rgb(0, 0, 0); stroke-opacity: 1;"/></g><g class="errorbar"><path class="yerror" d="M160.55,78.41h8m-4,0V93.89m-4,0h8" style="vector-effect: non-scaling-stroke; stroke-width: 2px; stroke: rgb(0, 0, 0); stroke-opacity: 1;"/><path class="xerror" d="M167.93,82.15v8m0,-4H161.17m0,-4v8" style="vector-effect: non-scaling-stroke; stroke-width: 2px; stroke: rgb(0, 0, 0); stroke-opacity: 1;"/></g><g class="errorbar"><path class="yerror" d="M84.26,89.72h8m-4,0V121.98m-4,0h8" style="vector-effect: non-scaling-stroke; stroke-width: 2px; stroke: rgb(0, 0, 0); stroke-opacity: 1;"/><path class="xerror" d="M89.67,101.85v8m0,-4H86.85m0,-4v8" style="vector-effect: non-scaling-stroke; stroke-width: 2px; stroke: rgb(0, 0, 0); stroke-opacity: 1;"/></g><g class="errorbar"><path class="yerror" d="M118.89,86.52h8m-4,0V103.52m-4,0h8" style="vector-effect: non-scaling-stroke; stroke-width: 2px; stroke: rgb(0, 0, 0); stroke-opacity: 1;"/><path class="xerror" d="M123.45,91.02v8m0,-4H122.32m0,-4v8" style="vector-effect: non-scaling-stroke; stroke-width: 2px; stroke: rgb(0, 0, 0); stroke-opacity: 1;"/></g><g class="errorbar"><path class="yerror" d="M146.47,51.97h8m-4,0V70.01m-4,0h8" style="vector-effect: non-scaling-stroke; stroke-width: 2px; stroke: rgb(0, 0, 0); stroke-opacity: 1;"/><path class="xerror" d="M151.32,56.99v8m0,-4H149.63m0,-4v8" style="vector-effect: non-scaling-stroke; stroke-width: 2px; stroke: rgb(0, 0, 0); stroke-opacity: 1;"/></g><g class="errorbar"><path class="yerror" d="M84.82,90.97h8m-4,0V106.4m-4,0h8" style="vector-effect: non-scaling-stroke; stroke-width: 2px; stroke: rgb(0, 0, 0); stroke-opacity: 1;"/><path class="xerror" d="M95.02,94.69v8m0,-4H82.63m0,-4v8" style="vector-effect: non-scaling-stroke; stroke-width: 2px; stroke: rgb(0, 0, 0); stroke-opacity: 1;"/></g><g class="errorbar"><path class="yerror" d="M170.12,64.9h8m-4,0V92.66m-4,0h8" style="vector-effect: non-scaling-stroke; stroke-width: 2px; stroke: rgb(0, 0, 0); stroke-opacity: 1;"/><path class="xerror" d="M178.62,74.78v8m0,-4H169.62m0,-4v8" style="vector-effect: non-scaling-stroke; stroke-width: 2px; stroke: rgb(0, 0, 0); stroke-opacity: 1;"/></g><g class="errorbar"><path class="yerror" d="M111.85,87.93h8m-4,0V107.7m-4,0h8" style="vector-effect: non-scaling-stroke; stroke-width: 2px; stroke: rgb(0, 0, 0); stroke-opacity: 1;"/><path class="xerror" d="M121.2,93.81v8m0,-4H110.5m0,-4v8" style="vector-effect: non-scaling-stroke; stroke-width: 2px; stroke: rgb(0, 0, 0); stroke-opacity: 1;"/></g><g class="errorbar"><path class="yerror" d="M145.35,2.91h8m-4,0V22.9m-4,0h8" style="vector-effect: non-scaling-stroke; stroke-width: 2px; stroke: rgb(0, 0, 0); stroke-opacity: 1;"/><path class="xerror" d="M149.63,8.9v8m0,-4H149.07m0,-4v8" style="vector-effect: non-scaling-stroke; stroke-width: 2px; stroke: rgb(0, 0, 0); stroke-opacity: 1;"/></g><g class="errorbar"><path class="yerror" d="M109.88,66.84h8m-4,0V84.33m-4,0h8" style="vector-effect: non-scaling-stroke; stroke-width: 2px; stroke: rgb(0, 0, 0); stroke-opacity: 1;"/><path class="xerror" d="M114.72,71.58v8m0,-4H113.03m0,-4v8" style="vector-effect: non-scaling-stroke; stroke-width: 2px; stroke: rgb(0, 0, 0); stroke-opacity: 1;"/></g><g class="errorbar"><path class="yerror" d="M147.6,82.21h8m-4,0V101.69m-4,0h8" style="vector-effect: non-scaling-stroke; stroke-width: 2px; stroke: rgb(0, 0, 0); stroke-opacity: 1;"/><path class="xerror" d="M154.98,87.95v8m0,-4H148.22m0,-4v8" style="vector-effect: non-scaling-stroke; stroke-width: 2px; stroke: rgb(0, 0, 0); stroke-opacity: 1;"/></g><g class="errorbar"><path class="yerror" d="M139.44,94.15h8m-4,0V115.42m-4,0h8" style="vector-effect: non-scaling-stroke; stroke-width: 2px; stroke: rgb(0, 0, 0); stroke-opacity: 1;"/><path class="xerror" d="M148.78,100.79v8m0,-4H138.09m0,-4v8" style="vector-effect: non-scaling-stroke; stroke-width: 2px; stroke: rgb(0, 0, 0); stroke-opacity: 1;"/></g><g class="errorbar"><path class="yerror" d="M139.15,97.52h8m-4,0V113.59m-4,0h8" style="vector-effect: non-scaling-stroke; stroke-width: 2px; stroke: rgb(0, 0, 0); stroke-opacity: 1;"/><path class="xerror" d="M148.22,101.55v8m0,-4H138.09m0,-4v8" style="vector-effect: non-scaling-stroke; stroke-width: 2px; stroke: rgb(0, 0, 0); stroke-opacity: 1;"/></g><g class="errorbar"><path class="yerror" d="M102.56,103.02h8m-4,0V126.61m-4,0h8" style="vector-effect: non-scaling-stroke; stroke-width: 2px; stroke: rgb(0, 0, 0); stroke-opacity: 1;"/><path class="xerror" d="M107.97,110.81v8m0,-4H105.15m0,-4v8" style="vector-effect: non-scaling-stroke; stroke-width: 2px; stroke: rgb(0, 0, 0); stroke-opacity: 1;"/></g><g class="errorbar"><path class="yerror" d="M80.88,141.69h8m-4,0V158.2m-4,0h8" style="vector-effect: non-scaling-stroke; stroke-width: 2px; stroke: rgb(0, 0, 0); stroke-opacity: 1;"/><path class="xerror" d="M93.33,145.94v8m0,-4H76.44m0,-4v8" style="vector-effect: non-scaling-stroke; stroke-width: 2px; stroke: rgb(0, 0, 0); stroke-opacity: 1;"/></g><g class="errorbar"><path class="yerror" d="M134.93,77.22h8m-4,0V98.16m-4,0h8" style="vector-effect: non-scaling-stroke; stroke-width: 2px; stroke: rgb(0, 0, 0); stroke-opacity: 1;"/><path class="xerror" d="M140.34,83.69v8m0,-4H137.52m0,-4v8" style="vector-effect: non-scaling-stroke; stroke-width: 2px; stroke: rgb(0, 0, 0); stroke-opacity: 1;"/></g><g class="errorbar"><path class="yerror" d="M52.17,171.66h8m-4,0V192.34m-4,0h8" style="vector-effect: non-scaling-stroke; stroke-width: 2px; stroke: rgb(0, 0, 0); stroke-opacity: 1;"/><path class="xerror" d="M61.8,178v8m0,-4H50.54m0,-4v8" style="vector-effect: non-scaling-stroke; stroke-width: 2px; stroke: rgb(0, 0, 0); stroke-opacity: 1;"/></g><g class="errorbar"><path class="yerror" d="M81.73,154.31h8m-4,0V170.89m-4,0h8" style="vector-effect: non-scaling-stroke; stroke-width: 2px; stroke: rgb(0, 0, 0); stroke-opacity: 1;"/><path class="xerror" d="M86.29,158.6v8m0,-4H85.17m0,-4v8" style="vector-effect: non-scaling-stroke; stroke-width: 2px; stroke: rgb(0, 0, 0); stroke-opacity: 1;"/></g><g class="errorbar"><path class="yerror" d="M135.21,137.2h8m-4,0V175.27m-4,0h8" style="vector-effect: non-scaling-stroke; stroke-width: 2px; stroke: rgb(0, 0, 0); stroke-opacity: 1;"/><path class="xerror" d="M143.72,152.23v8m0,-4H134.71m0,-4v8" style="vector-effect: non-scaling-stroke; stroke-width: 2px; stroke: rgb(0, 0, 0); stroke-opacity: 1;"/></g><g class="errorbar"><path class="yerror" d="M82.29,69.14h8m-4,0V102.57m-4,0h8" style="vector-effect: non-scaling-stroke; stroke-width: 2px; stroke: rgb(0, 0, 0); stroke-opacity: 1;"/><path class="xerror" d="M91.36,81.86v8m0,-4H81.22m0,-4v8" style="vector-effect: non-scaling-stroke; stroke-width: 2px; stroke: rgb(0, 0, 0); stroke-opacity: 1;"/></g><g class="errorbar"><path class="yerror" d="M94.96,70.23h8m-4,0V107.49m-4,0h8" style="vector-effect: non-scaling-stroke; stroke-width: 2px; stroke: rgb(0, 0, 0); stroke-opacity: 1;"/><path class="xerror" d="M104.59,84.86v8m0,-4H93.33m0,-4v8" style="vector-effect: non-scaling-stroke; stroke-width: 2px; stroke: rgb(0, 0, 0); stroke-opacity: 1;"/></g><g class="errorbar"><path class="yerror" d="M134.65,77.63h8m-4,0V105.1m-4,0h8" style="vector-effect: non-scaling-stroke; stroke-width: 2px; stroke: rgb(0, 0, 0); stroke-opacity: 1;"/><path class="xerror" d="M140.06,87.36v8m0,-4H137.24m0,-4v8" style="vector-effect: non-scaling-stroke; stroke-width: 2px; stroke: rgb(0, 0, 0); stroke-opacity: 1;"/></g><g class="errorbar"><path class="yerror" d="M97.49,136.93h8m-4,0V159.71m-4,0h8" style="vector-effect: non-scaling-stroke; stroke-width: 2px; stroke: rgb(0, 0, 0); stroke-opacity: 1;"/><path class="xerror" d="M104.87,144.32v8m0,-4H98.11m0,-4v8" style="vector-effect: non-scaling-stroke; stroke-width: 2px; stroke: rgb(0, 0, 0); stroke-opacity: 1;"/></g><g class="errorbar"><path class="yerror" d="M70.19,149.61h8m-4,0V170m-4,0h8" style="vector-effect: non-scaling-stroke; stroke-width: 2px; stroke: rgb(0, 0, 0); stroke-opacity: 1;"/><path class="xerror" d="M78.41,155.8v8m0,-4H69.96m0,-4v8" style="vector-effect: non-scaling-stroke; stroke-width: 2px; stroke: rgb(0, 0, 0); stroke-opacity: 1;"/></g><g class="errorbar"><path class="yerror" d="M80.88,120.53h8m-4,0V155.12m-4,0h8" style="vector-effect: non-scaling-stroke; stroke-width: 2px; stroke: rgb(0, 0, 0); stroke-opacity: 1;"/><path class="xerror" d="M90.51,133.82v8m0,-4H79.25m0,-4v8" style="vector-effect: non-scaling-stroke; stroke-width: 2px; stroke: rgb(0, 0, 0); stroke-opacity: 1;"/></g><g class="errorbar"><path class="yerror" d="M73,173.86h8m-4,0V191.93m-4,0h8" style="vector-effect: non-scaling-stroke; stroke-width: 2px; stroke: rgb(0, 0, 0); stroke-opacity: 1;"/><path class="xerror" d="M78.69,178.9v8m0,-4H75.31m0,-4v8" style="vector-effect: non-scaling-stroke; stroke-width: 2px; stroke: rgb(0, 0, 0); stroke-opacity: 1;"/></g><g class="errorbar"><path class="yerror" d="M57.52,125.04h8m-4,0V158.09m-4,0h8" style="vector-effect: non-scaling-stroke; stroke-width: 2px; stroke: rgb(0, 0, 0); stroke-opacity: 1;"/><path class="xerror" d="M67.15,137.56v8m0,-4H55.89m0,-4v8" style="vector-effect: non-scaling-stroke; stroke-width: 2px; stroke: rgb(0, 0, 0); stroke-opacity: 1;"/></g><g class="errorbar"><path class="yerror" d="M72.16,148.01h8m-4,0V166.61m-4,0h8" style="vector-effect: non-scaling-stroke; stroke-width: 2px; stroke: rgb(0, 0, 0); stroke-opacity: 1;"/><path class="xerror" d="M77,153.31v8m0,-4H75.31m0,-4v8" style="vector-effect: non-scaling-stroke; stroke-width: 2px; stroke: rgb(0, 0, 0); stroke-opacity: 1;"/></g><g class="errorbar"><path class="yerror" d="M67.93,196.14h8m-4,0V218.06m-4,0h8" style="vector-effect: non-scaling-stroke; stroke-width: 2px; stroke: rgb(0, 0, 0); stroke-opacity: 1;"/><path class="xerror" d="M73.06,203.1v8m0,-4H70.81m0,-4v8" style="vector-effect: non-scaling-stroke; stroke-width: 2px; stroke: rgb(0, 0, 0); stroke-opacity: 1;"/></g><g class="errorbar"><path class="yerror" d="M105.37,120.05h8m-4,0V152.85m-4,0h8" style="vector-effect: non-scaling-stroke; stroke-width: 2px; stroke: rgb(0, 0, 0); stroke-opacity: 1;"/><path class="xerror" d="M116.13,132.45v8m0,-4H102.62m0,-4v8" style="vector-effect: non-scaling-stroke; stroke-width: 2px; stroke: rgb(0, 0, 0); stroke-opacity: 1;"/></g><g class="errorbar"><path class="yerror" d="M108.75,71.54h8m-4,0V108.4m-4,0h8" style="vector-effect: non-scaling-stroke; stroke-width: 2px; stroke: rgb(0, 0, 0); stroke-opacity: 1;"/><path class="xerror" d="M116.97,85.97v8m0,-4H108.53m0,-4v8" style="vector-effect: non-scaling-stroke; stroke-width: 2px; stroke: rgb(0, 0, 0); stroke-opacity: 1;"/></g><g class="errorbar"><path class="yerror" d="M77.79,186.82h8m-4,0V205.8m-4,0h8" style="vector-effect: non-scaling-stroke; stroke-width: 2px; stroke: rgb(0, 0, 0); stroke-opacity: 1;"/><path class="xerror" d="M84.6,192.31v8m0,-4H78.97m0,-4v8" style="vector-effect: non-scaling-stroke; stroke-width: 2px; stroke: rgb(0, 0, 0); stroke-opacity: 1;"/></g><g class="errorbar"><path class="yerror" d="M96.08,181.94h8m-4,0V198.35m-4,0h8" style="vector-effect: non-scaling-stroke; stroke-width: 2px; stroke: rgb(0, 0, 0); stroke-opacity: 1;"/><path class="xerror" d="M105.43,186.15v8m0,-4H94.74m0,-4v8" style="vector-effect: non-scaling-stroke; stroke-width: 2px; stroke: rgb(0, 0, 0); stroke-opacity: 1;"/></g><g class="errorbar"><path class="yerror" d="M119.45,161.69h8m-4,0V177.91m-4,0h8" style="vector-effect: non-scaling-stroke; stroke-width: 2px; stroke: rgb(0, 0, 0); stroke-opacity: 1;"/><path class="xerror" d="M124.01,165.8v8m0,-4H122.89m0,-4v8" style="vector-effect: non-scaling-stroke; stroke-width: 2px; stroke: rgb(0, 0, 0); stroke-opacity: 1;"/></g><g class="errorbar"><path class="yerror" d="M95.52,125.6h8m-4,0V158.3m-4,0h8" style="vector-effect: non-scaling-stroke; stroke-width: 2px; stroke: rgb(0, 0, 0); stroke-opacity: 1;"/><path class="xerror" d="M102.9,137.95v8m0,-4H96.14m0,-4v8" style="vector-effect: non-scaling-stroke; stroke-width: 2px; stroke: rgb(0, 0, 0); stroke-opacity: 1;"/></g><g class="errorbar"><path class="yerror" d="M116.35,80.39h8m-4,0V114.06m-4,0h8" style="vector-effect: non-scaling-stroke; stroke-width: 2px; stroke: rgb(0, 0, 0); stroke-opacity: 1;"/><path class="xerror" d="M127.67,93.23v8m0,-4H113.03m0,-4v8" style="vector-effect: non-scaling-stroke; stroke-width: 2px; stroke: rgb(0, 0, 0); stroke-opacity: 1;"/></g></g><g class="lines"/><g class="points"><path class="point" transform="translate(104.87,112.72)" d="M3,0A3,3 0 1,1 0,-3A3,3 0 0,1 3,0Z" style="opacity: 1; stroke-width: 0px; fill: rgb(36, 0, 219); fill-opacity: 1;"/><path class="point" transform="translate(92.77,105.27)" d="M3,0A3,3 0 1,1 0,-3A3,3 0 0,1 3,0Z" style="opacity: 1; stroke-width: 0px; fill: rgb(105, 0, 150); fill-opacity: 1;"/><path class="point" transform="translate(82.35,93.81)" d="M3,0A3,3 0 1,1 0,-3A3,3 0 0,1 3,0Z" style="opacity: 1; stroke-width: 0px; fill: rgb(183, 0, 72); fill-opacity: 1;"/><path class="point" transform="translate(69.4,141.27)" d="M3,0A3,3 0 1,1 0,-3A3,3 0 0,1 3,0Z" style="opacity: 1; stroke-width: 0px; fill: rgb(50, 0, 205); fill-opacity: 1;"/><path class="point" transform="translate(164.55,86.15)" d="M3,0A3,3 0 1,1 0,-3A3,3 0 0,1 3,0Z" style="opacity: 1; stroke-width: 0px; fill: rgb(57, 0, 198); fill-opacity: 1;"/><path class="point" transform="translate(88.26,105.85)" d="M3,0A3,3 0 1,1 0,-3A3,3 0 0,1 3,0Z" style="opacity: 1; stroke-width: 0px; fill: rgb(118, 0, 137); fill-opacity: 1;"/><path class="point" transform="translate(122.89,95.02)" d="M3,0A3,3 0 1,1 0,-3A3,3 0 0,1 3,0Z" style="opacity: 1; stroke-width: 0px; fill: rgb(40, 0, 215); fill-opacity: 1;"/><path class="point" transform="translate(150.47,60.99)" d="M3,0A3,3 0 1,1 0,-3A3,3 0 0,1 3,0Z" style="opacity: 1; stroke-width: 0px; fill: rgb(73, 0, 182); fill-opacity: 1;"/><path class="point" transform="translate(88.82,98.69)" d="M3,0A3,3 0 1,1 0,-3A3,3 0 0,1 3,0Z" style="opacity: 1; stroke-width: 0px; fill: rgb(142, 0, 113); fill-opacity: 1;"/><path class="point" transform="translate(174.12,78.78)" d="M3,0A3,3 0 1,1 0,-3A3,3 0 0,1 3,0Z" style="opacity: 1; stroke-width: 0px; fill: rgb(63, 0, 192); fill-opacity: 1;"/><path class="point" transform="translate(115.85,97.81)" d="M3,0A3,3 0 1,1 0,-3A3,3 0 0,1 3,0Z" style="opacity: 1; stroke-width: 0px; fill: rgb(54, 0, 201); fill-opacity: 1;"/><path class="point" transform="translate(149.35,12.9)" d="M3,0A3,3 0 1,1 0,-3A3,3 0 0,1 3,0Z" style="opacity: 1; stroke-width: 0px; fill: rgb(255, 0, 0); fill-opacity: 1;"/><path class="point" transform="translate(113.88,75.58)" d="M3,0A3,3 0 1,1 0,-3A3,3 0 0,1 3,0Z" style="opacity: 1; stroke-width: 0px; fill: rgb(143, 0, 112); fill-opacity: 1;"/><path class="point" transform="translate(151.6,91.95)" d="M3,0A3,3 0 1,1 0,-3A3,3 0 0,1 3,0Z" style="opacity: 1; stroke-width: 0px; fill: rgb(35, 0, 220); fill-opacity: 1;"/><path class="point" transform="translate(143.44,104.79)" d="M3,0A3,3 0 1,1 0,-3A3,3 0 0,1 3,0Z" style="opacity: 1; stroke-width: 0px; fill: rgb(55, 0, 200); fill-opacity: 1;"/><path class="point" transform="translate(143.15,105.55)" d="M3,0A3,3 0 1,1 0,-3A3,3 0 0,1 3,0Z" style="opacity: 1; stroke-width: 0px; fill: rgb(57, 0, 198); fill-opacity: 1;"/><path class="point" transform="translate(106.56,114.81)" d="M3,0A3,3 0 1,1 0,-3A3,3 0 0,1 3,0Z" style="opacity: 1; stroke-width: 0px; fill: rgb(22, 0, 233); fill-opacity: 1;"/><path class="point" transform="translate(84.88,149.94)" d="M3,0A3,3 0 1,1 0,-3A3,3 0 0,1 3,0Z" style="opacity: 1; stroke-width: 0px; fill: rgb(23, 0, 232); fill-opacity: 1;"/><path class="point" transform="translate(138.93,87.69)" d="M3,0A3,3 0 1,1 0,-3A3,3 0 0,1 3,0Z" style="opacity: 1; stroke-width: 0px; fill: rgb(13, 0, 242); fill-opacity: 1;"/><path class="point" transform="translate(56.17,182)" d="M3,0A3,3 0 1,1 0,-3A3,3 0 0,1 3,0Z" style="opacity: 1; stroke-width: 0px; fill: rgb(44, 0, 211); fill-opacity: 1;"/><path class="point" transform="translate(85.73,162.6)" d="M3,0A3,3 0 1,1 0,-3A3,3 0 0,1 3,0Z" style="opacity: 1; stroke-width: 0px; fill: rgb(73, 0, 182); fill-opacity: 1;"/><path class="point" transform="translate(139.21,156.23)" d="M3,0A3,3 0 1,1 0,-3A3,3 0 0,1 3,0Z" style="opacity: 1; stroke-width: 0px; fill: rgb(231, 0, 24); fill-opacity: 1;"/><path class="point" transform="translate(86.29,85.86)" d="M3,0A3,3 0 1,1 0,-3A3,3 0 0,1 3,0Z" style="opacity: 1; stroke-width: 0px; fill: rgb(199, 0, 56); fill-opacity: 1;"/><path class="point" transform="translate(98.96,88.86)" d="M3,0A3,3 0 1,1 0,-3A3,3 0 0,1 3,0Z" style="opacity: 1; stroke-width: 0px; fill: rgb(144, 0, 111); fill-opacity: 1;"/><path class="point" transform="translate(138.65,91.36)" d="M3,0A3,3 0 1,1 0,-3A3,3 0 0,1 3,0Z" style="opacity: 1; stroke-width: 0px; fill: rgb(0, 0, 255); fill-opacity: 1;"/><path class="point" transform="translate(101.49,148.32)" d="M3,0A3,3 0 1,1 0,-3A3,3 0 0,1 3,0Z" style="opacity: 1; stroke-width: 0px; fill: rgb(74, 0, 181); fill-opacity: 1;"/><path class="point" transform="translate(74.19,159.8)" d="M3,0A3,3 0 1,1 0,-3A3,3 0 0,1 3,0Z" style="opacity: 1; stroke-width: 0px; fill: rgb(23, 0, 232); fill-opacity: 1;"/><path class="point" transform="translate(84.88,137.82)" d="M3,0A3,3 0 1,1 0,-3A3,3 0 0,1 3,0Z" style="opacity: 1; stroke-width: 0px; fill: rgb(10, 0, 245); fill-opacity: 1;"/><path class="point" transform="translate(77,182.9)" d="M3,0A3,3 0 1,1 0,-3A3,3 0 0,1 3,0Z" style="opacity: 1; stroke-width: 0px; fill: rgb(119, 0, 136); fill-opacity: 1;"/><path class="point" transform="translate(61.52,141.56)" d="M3,0A3,3 0 1,1 0,-3A3,3 0 0,1 3,0Z" style="opacity: 1; stroke-width: 0px; fill: rgb(76, 0, 179); fill-opacity: 1;"/><path class="point" transform="translate(76.16,157.31)" d="M3,0A3,3 0 1,1 0,-3A3,3 0 0,1 3,0Z" style="opacity: 1; stroke-width: 0px; fill: rgb(21, 0, 234); fill-opacity: 1;"/><path class="point" transform="translate(71.93,207.1)" d="M3,0A3,3 0 1,1 0,-3A3,3 0 0,1 3,0Z" style="opacity: 1; stroke-width: 0px; fill: rgb(191, 0, 64); fill-opacity: 1;"/><path class="point" transform="translate(109.37,136.45)" d="M3,0A3,3 0 1,1 0,-3A3,3 0 0,1 3,0Z" style="opacity: 1; stroke-width: 0px; fill: rgb(56, 0, 199); fill-opacity: 1;"/><path class="point" transform="translate(112.75,89.97)" d="M3,0A3,3 0 1,1 0,-3A3,3 0 0,1 3,0Z" style="opacity: 1; stroke-width: 0px; fill: rgb(93, 0, 162); fill-opacity: 1;"/><path class="point" transform="translate(81.79,196.31)" d="M3,0A3,3 0 1,1 0,-3A3,3 0 0,1 3,0Z" style="opacity: 1; stroke-width: 0px; fill: rgb(185, 0, 70); fill-opacity: 1;"/><path class="point" transform="translate(100.08,190.15)" d="M3,0A3,3 0 1,1 0,-3A3,3 0 0,1 3,0Z" style="opacity: 1; stroke-width: 0px; fill: rgb(224, 0, 31); fill-opacity: 1;"/><path class="point" transform="translate(123.45,169.8)" d="M3,0A3,3 0 1,1 0,-3A3,3 0 0,1 3,0Z" style="opacity: 1; stroke-width: 0px; fill: rgb(228, 0, 27); fill-opacity: 1;"/><path class="point" transform="translate(99.52,141.95)" d="M3,0A3,3 0 1,1 0,-3A3,3 0 0,1 3,0Z" style="opacity: 1; stroke-width: 0px; fill: rgb(43, 0, 212); fill-opacity: 1;"/><path class="point" transform="translate(120.35,97.23)" d="M3,0A3,3 0 1,1 0,-3A3,3 0 0,1 3,0Z" style="opacity: 1; stroke-width: 0px; fill: rgb(41, 0, 214); fill-opacity: 1;"/></g><g class="text"/></g></g></g><g class="overplot"/><path class="xlines-above crisp" d="M0,0" style="fill: none;"/><path class="ylines-above crisp" d="M0,0" style="fill: none;"/><g class="overlines-above"/><g class="xaxislayer-above"><g class="xtick"><text text-anchor="middle" x="0" y="333" transform="translate(131.02,0)" style="font-family: 'Open Sans', verdana, arial, sans-serif; font-size: 12px; fill: rgb(42, 63, 95); fill-opacity: 1; white-space: pre;">−2</text></g><g class="xtick"><text text-anchor="middle" x="0" y="333" transform="translate(187.32,0)" style="font-family: 'Open Sans', verdana, arial, sans-serif; font-size: 12px; fill: rgb(42, 63, 95); fill-opacity: 1; white-space: pre;">0</text></g><g class="xtick"><text text-anchor="middle" x="0" y="333" transform="translate(243.62,0)" style="font-family: 'Open Sans', verdana, arial, sans-serif; font-size: 12px; fill: rgb(42, 63, 95); fill-opacity: 1; white-space: pre;">2</text></g><g class="xtick"><text text-anchor="middle" x="0" y="333" transform="translate(299.91999999999996,0)" style="font-family: 'Open Sans', verdana, arial, sans-serif; font-size: 12px; fill: rgb(42, 63, 95); fill-opacity: 1; white-space: pre;">4</text></g></g><g class="yaxislayer-above"><g class="ytick"><text text-anchor="end" x="79" y="4.199999999999999" transform="translate(0,273.23)" style="font-family: 'Open Sans', verdana, arial, sans-serif; font-size: 12px; fill: rgb(42, 63, 95); fill-opacity: 1; white-space: pre;">−2</text></g><g class="ytick"><text text-anchor="end" x="79" y="4.199999999999999" transform="translate(0,221.62)" style="font-family: 'Open Sans', verdana, arial, sans-serif; font-size: 12px; fill: rgb(42, 63, 95); fill-opacity: 1; white-space: pre;">0</text></g><g class="ytick"><text text-anchor="end" x="79" y="4.199999999999999" transform="translate(0,170.01)" style="font-family: 'Open Sans', verdana, arial, sans-serif; font-size: 12px; fill: rgb(42, 63, 95); fill-opacity: 1; white-space: pre;">2</text></g><g class="ytick"><text text-anchor="end" x="79" y="4.199999999999999" transform="translate(0,118.4)" style="font-family: 'Open Sans', verdana, arial, sans-serif; font-size: 12px; fill: rgb(42, 63, 95); fill-opacity: 1; white-space: pre;">4</text></g></g><g class="overaxes-above"/></g></g><g class="polarlayer"/><g class="ternarylayer"/><g class="geolayer"/><g class="funnelarealayer"/><g class="pielayer"/><g class="treemaplayer"/><g class="sunburstlayer"/><g class="glimages"/><defs id="topdefs-d014ad"><g class="clips"/></defs><g class="layer-above"><g class="imagelayer"/><g class="shapelayer"/></g><g class="infolayer"><g class="g-gtitle"><text class="gtitle" x="80" y="0" text-anchor="start" dy="0.7em" style="font-family: monospace; font-size: 14px; fill: rgb(42, 63, 95); opacity: 1; font-weight: normal; white-space: pre;"><tspan class="line" dy="0em" x="80" y="0"></tspan><tspan class="line" dy="1.3em" x="80" y="0">mcl1 (N = 39)</tspan><tspan class="line" dy="2.6em" x="80" y="0">RMSE: 1.26 [95%:  0.99,  1.50]</tspan><tspan class="line" dy="3.9000000000000004em" x="80" y="0">MUE:  1.02 [95%:  0.78,  1.26]</tspan><tspan class="line" dy="5.2em" x="80" y="0">R2:   0.39 [95%:  0.19,  0.59]</tspan><tspan class="line" dy="6.5em" x="80" y="0">rho:  0.62 [95%:  0.42,  0.77]</tspan></text></g><g class="g-xtitle"><text class="xtitle" x="200" y="361.8" text-anchor="middle" style="font-family: 'Open Sans', verdana, arial, sans-serif; font-size: 14px; fill: rgb(42, 63, 95); opacity: 1; font-weight: normal; white-space: pre;">Experimental ΔG [kcal mol​<tspan style="font-size:70%" dy="-0.6em">-1</tspan><tspan dy="0.42em">​</tspan>]</text></g><g class="g-ytitle"><text class="ytitle" transform="rotate(-90,40.465625,210)" x="40.465625" y="210" text-anchor="middle" style="font-family: 'Open Sans', verdana, arial, sans-serif; font-size: 14px; fill: rgb(42, 63, 95); opacity: 1; font-weight: normal; white-space: pre;">Calculated ΔG pmx_repeatfilter_openff-1.0.0.offxml_hahn [kcal mol​<tspan style="font-size:70%" dy="-0.6em">-1</tspan><tspan dy="0.42em">​</tspan>]</text></g></g></svg>