<svg class="main-svg" xmlns="http://www.w3.org/2000/svg" xmlns:xlink="http://www.w3.org/1999/xlink" width="400" height="400" style="" viewBox="0 0 400 400"><rect x="0" y="0" width="400" height="400" style="fill: rgb(255, 255, 255); fill-opacity: 1;"/><defs id="defs-0db4dd"><g class="clips"><clipPath id="clip0db4ddxyplot" class="plotclip"><rect width="240" height="220"/></clipPath><clipPath class="axesclip" id="clip0db4ddx"><rect x="80" y="0" width="240" height="400"/></clipPath><clipPath class="axesclip" id="clip0db4ddy"><rect x="0" y="100" width="400" height="220"/></clipPath><clipPath class="axesclip" id="clip0db4ddxy"><rect x="80" y="100" width="240" height="220"/></clipPath></g><g class="gradients"/></defs><g class="bglayer"><rect class="bg" x="80" y="100" width="240" height="220" style="fill: rgb(229, 236, 246); fill-opacity: 1; stroke-width: 0;"/></g><g class="layer-below"><g class="imagelayer"/><g class="shapelayer"/></g><g class="cartesianlayer"><g class="subplot xy"><g class="layer-subplot"><g class="shapelayer"/><g class="imagelayer"/></g><g class="gridlayer"><g class="x"><path class="xgrid crisp" transform="translate(156.31,0)" d="M0,100v220" style="stroke: rgb(255, 255, 255); stroke-opacity: 1; stroke-width: 1px;"/><path class="xgrid crisp" transform="translate(311.9,0)" d="M0,100v220" style="stroke: rgb(255, 255, 255); stroke-opacity: 1; stroke-width: 1px;"/></g><g class="y"><path class="ygrid crisp" transform="translate(0,285.71000000000004)" d="M80,0h240" style="stroke: rgb(255, 255, 255); stroke-opacity: 1; stroke-width: 1px;"/><path class="ygrid crisp" transform="translate(0,250.05)" d="M80,0h240" style="stroke: rgb(255, 255, 255); stroke-opacity: 1; stroke-width: 1px;"/><path class="ygrid crisp" transform="translate(0,214.39)" d="M80,0h240" style="stroke: rgb(255, 255, 255); stroke-opacity: 1; stroke-width: 1px;"/><path class="ygrid crisp" transform="translate(0,143.07999999999998)" d="M80,0h240" style="stroke: rgb(255, 255, 255); stroke-opacity: 1; stroke-width: 1px;"/><path class="ygrid crisp" transform="translate(0,107.42)" d="M80,0h240" style="stroke: rgb(255, 255, 255); stroke-opacity: 1; stroke-width: 1px;"/></g></g><g class="zerolinelayer"><path class="xzl zl crisp" transform="translate(234.11,0)" d="M0,100v220" style="stroke: rgb(255, 255, 255); stroke-opacity: 1; stroke-width: 2px;"/><path class="yzl zl crisp" transform="translate(0,178.74)" d="M80,0h240" style="stroke: rgb(255, 255, 255); stroke-opacity: 1; stroke-width: 2px;"/></g><path class="xlines-below"/><path class="ylines-below"/><g class="overlines-below"/><g class="xaxislayer-below"/><g class="yaxislayer-below"/><g class="overaxes-below"/><g class="plot" transform="translate(80, 100)" clip-path="url('#clip0db4ddxyplot')"><g class="scatterlayer mlayer"><g class="trace scatter trace1aac9d" style="stroke-miterlimit: 2; opacity: 1;"><g class="fills"><g><path class="js-fill" d="M0,184.34L201.1,0L240,0L240,35.66L38.9,220L0,220Z" style="fill: rgb(0, 0, 0); fill-opacity: 0.2; stroke-width: 0;"/></g></g><g class="errorbars"/><g class="lines"><path class="js-line" d="M0,184.34L201.1,0L240,0L240,35.66L38.9,220L0,220" style="vector-effect: non-scaling-stroke; fill: none; stroke: rgb(99, 110, 250); stroke-opacity: 1; stroke-width: 0px; opacity: 1;"/></g><g class="points"/><g class="text"/></g><g class="trace scatter traceea2c3b" style="stroke-miterlimit: 2; opacity: 1;"><g class="fills"><g><path class="js-fill" d="M0,202.17L220.55,0L240,0L240,17.83L19.45,220L0,220Z" style="fill: rgb(0, 0, 0); fill-opacity: 0.2; stroke-width: 0;"/></g></g><g class="errorbars"/><g class="lines"><path class="js-line" d="M0,202.17L220.55,0L240,0L240,17.83L19.45,220L0,220" style="vector-effect: non-scaling-stroke; fill: none; stroke: rgb(239, 85, 59); stroke-opacity: 1; stroke-width: 0px; opacity: 1;"/></g><g class="points"/><g class="text"/></g><g class="trace scatter trace6fba4d" style="stroke-miterlimit: 2; opacity: 1;"><g class="fills"/><g class="errorbars"/><g class="lines"><path class="js-line" d="M0,220L240,0" style="vector-effect: non-scaling-stroke; fill: none; stroke: rgb(0, 0, 0); stroke-opacity: 1; stroke-width: 2px; opacity: 1;"/></g><g class="points"/><g class="text"/></g><g class="trace scatter trace6776d9" style="stroke-miterlimit: 2; opacity: 1;"><g class="fills"/><g class="errorbars"><g class="errorbar"><path class="yerror" d="M56.29,81.9h8m-4,0V106.94m-4,0h8" style="vector-effect: non-scaling-stroke; stroke-width: 2px; stroke: rgb(0, 0, 0); stroke-opacity: 1;"/><path class="xerror" d="M60.29,90.42v8m0,-4H60.29m0,-4v8" style="vector-effect: non-scaling-stroke; stroke-width: 2px; stroke: rgb(0, 0, 0); stroke-opacity: 1;"/></g><g class="errorbar"><path class="yerror" d="M145.76,61.08h8m-4,0V77.3m-4,0h8" style="vector-effect: non-scaling-stroke; stroke-width: 2px; stroke: rgb(0, 0, 0); stroke-opacity: 1;"/><path class="xerror" d="M149.76,65.19v8m0,-4H149.76m0,-4v8" style="vector-effect: non-scaling-stroke; stroke-width: 2px; stroke: rgb(0, 0, 0); stroke-opacity: 1;"/></g><g class="errorbar"><path class="yerror" d="M111.92,80h8m-4,0V100.43m-4,0h8" style="vector-effect: non-scaling-stroke; stroke-width: 2px; stroke: rgb(0, 0, 0); stroke-opacity: 1;"/><path class="xerror" d="M115.92,86.22v8m0,-4H115.92m0,-4v8" style="vector-effect: non-scaling-stroke; stroke-width: 2px; stroke: rgb(0, 0, 0); stroke-opacity: 1;"/></g><g class="errorbar"><path class="yerror" d="M72.63,48.39h8m-4,0V79.44m-4,0h8" style="vector-effect: non-scaling-stroke; stroke-width: 2px; stroke: rgb(0, 0, 0); stroke-opacity: 1;"/><path class="xerror" d="M76.63,59.92v8m0,-4H76.63m0,-4v8" style="vector-effect: non-scaling-stroke; stroke-width: 2px; stroke: rgb(0, 0, 0); stroke-opacity: 1;"/></g><g class="errorbar"><path class="yerror" d="M15.45,132.03h8m-4,0V161.11m-4,0h8" style="vector-effect: non-scaling-stroke; stroke-width: 2px; stroke: rgb(0, 0, 0); stroke-opacity: 1;"/><path class="xerror" d="M19.45,142.57v8m0,-4H19.45m0,-4v8" style="vector-effect: non-scaling-stroke; stroke-width: 2px; stroke: rgb(0, 0, 0); stroke-opacity: 1;"/></g><g class="errorbar"><path class="yerror" d="M166.76,46.87h8m-4,0V74.31m-4,0h8" style="vector-effect: non-scaling-stroke; stroke-width: 2px; stroke: rgb(0, 0, 0); stroke-opacity: 1;"/><path class="xerror" d="M170.76,56.59v8m0,-4H170.76m0,-4v8" style="vector-effect: non-scaling-stroke; stroke-width: 2px; stroke: rgb(0, 0, 0); stroke-opacity: 1;"/></g><g class="errorbar"><path class="yerror" d="M196.71,53.71h8m-4,0V67.19m-4,0h8" style="vector-effect: non-scaling-stroke; stroke-width: 2px; stroke: rgb(0, 0, 0); stroke-opacity: 1;"/><path class="xerror" d="M200.71,56.45v8m0,-4H200.71m0,-4v8" style="vector-effect: non-scaling-stroke; stroke-width: 2px; stroke: rgb(0, 0, 0); stroke-opacity: 1;"/></g><g class="errorbar"><path class="yerror" d="M165.21,84.38h8m-4,0V119.8m-4,0h8" style="vector-effect: non-scaling-stroke; stroke-width: 2px; stroke: rgb(0, 0, 0); stroke-opacity: 1;"/><path class="xerror" d="M169.21,98.09v8m0,-4H169.21m0,-4v8" style="vector-effect: non-scaling-stroke; stroke-width: 2px; stroke: rgb(0, 0, 0); stroke-opacity: 1;"/></g><g class="errorbar"><path class="yerror" d="M148.09,82.76h8m-4,0V97.42m-4,0h8" style="vector-effect: non-scaling-stroke; stroke-width: 2px; stroke: rgb(0, 0, 0); stroke-opacity: 1;"/><path class="xerror" d="M152.09,86.09v8m0,-4H152.09m0,-4v8" style="vector-effect: non-scaling-stroke; stroke-width: 2px; stroke: rgb(0, 0, 0); stroke-opacity: 1;"/></g><g class="errorbar"><path class="yerror" d="M107.25,106.62h8m-4,0V126.51m-4,0h8" style="vector-effect: non-scaling-stroke; stroke-width: 2px; stroke: rgb(0, 0, 0); stroke-opacity: 1;"/><path class="xerror" d="M111.25,112.56v8m0,-4H111.25m0,-4v8" style="vector-effect: non-scaling-stroke; stroke-width: 2px; stroke: rgb(0, 0, 0); stroke-opacity: 1;"/></g><g class="errorbar"><path class="yerror" d="M157.43,53.27h8m-4,0V68.9m-4,0h8" style="vector-effect: non-scaling-stroke; stroke-width: 2px; stroke: rgb(0, 0, 0); stroke-opacity: 1;"/><path class="xerror" d="M161.43,57.09v8m0,-4H161.43m0,-4v8" style="vector-effect: non-scaling-stroke; stroke-width: 2px; stroke: rgb(0, 0, 0); stroke-opacity: 1;"/></g><g class="errorbar"><path class="yerror" d="M116.97,53.52h8m-4,0V89.42m-4,0h8" style="vector-effect: non-scaling-stroke; stroke-width: 2px; stroke: rgb(0, 0, 0); stroke-opacity: 1;"/><path class="xerror" d="M120.97,67.47v8m0,-4H120.97m0,-4v8" style="vector-effect: non-scaling-stroke; stroke-width: 2px; stroke: rgb(0, 0, 0); stroke-opacity: 1;"/></g><g class="errorbar"><path class="yerror" d="M162.48,88.78h8m-4,0V112.4m-4,0h8" style="vector-effect: non-scaling-stroke; stroke-width: 2px; stroke: rgb(0, 0, 0); stroke-opacity: 1;"/><path class="xerror" d="M166.48,96.59v8m0,-4H166.48m0,-4v8" style="vector-effect: non-scaling-stroke; stroke-width: 2px; stroke: rgb(0, 0, 0); stroke-opacity: 1;"/></g><g class="errorbar"><path class="yerror" d="M216.55,46.92h8m-4,0V62.28m-4,0h8" style="vector-effect: non-scaling-stroke; stroke-width: 2px; stroke: rgb(0, 0, 0); stroke-opacity: 1;"/><path class="xerror" d="M220.55,50.6v8m0,-4H220.55m0,-4v8" style="vector-effect: non-scaling-stroke; stroke-width: 2px; stroke: rgb(0, 0, 0); stroke-opacity: 1;"/></g><g class="errorbar"><path class="yerror" d="M200.6,46.97h8m-4,0V63.98m-4,0h8" style="vector-effect: non-scaling-stroke; stroke-width: 2px; stroke: rgb(0, 0, 0); stroke-opacity: 1;"/><path class="xerror" d="M204.6,51.48v8m0,-4H204.6m0,-4v8" style="vector-effect: non-scaling-stroke; stroke-width: 2px; stroke: rgb(0, 0, 0); stroke-opacity: 1;"/></g><g class="errorbar"><path class="yerror" d="M201.77,41.97h8m-4,0V71.85m-4,0h8" style="vector-effect: non-scaling-stroke; stroke-width: 2px; stroke: rgb(0, 0, 0); stroke-opacity: 1;"/><path class="xerror" d="M205.77,52.91v8m0,-4H205.77m0,-4v8" style="vector-effect: non-scaling-stroke; stroke-width: 2px; stroke: rgb(0, 0, 0); stroke-opacity: 1;"/></g><g class="errorbar"><path class="yerror" d="M201.77,25.99h8m-4,0V52.83m-4,0h8" style="vector-effect: non-scaling-stroke; stroke-width: 2px; stroke: rgb(0, 0, 0); stroke-opacity: 1;"/><path class="xerror" d="M205.77,35.41v8m0,-4H205.77m0,-4v8" style="vector-effect: non-scaling-stroke; stroke-width: 2px; stroke: rgb(0, 0, 0); stroke-opacity: 1;"/></g><g class="errorbar"><path class="yerror" d="M175.32,76.35h8m-4,0V105.66m-4,0h8" style="vector-effect: non-scaling-stroke; stroke-width: 2px; stroke: rgb(0, 0, 0); stroke-opacity: 1;"/><path class="xerror" d="M179.32,87.01v8m0,-4H179.32m0,-4v8" style="vector-effect: non-scaling-stroke; stroke-width: 2px; stroke: rgb(0, 0, 0); stroke-opacity: 1;"/></g><g class="errorbar"><path class="yerror" d="M135.25,107.81h8m-4,0V152.48m-4,0h8" style="vector-effect: non-scaling-stroke; stroke-width: 2px; stroke: rgb(0, 0, 0); stroke-opacity: 1;"/><path class="xerror" d="M139.25,126.13999999999999v8m0,-4H139.25m0,-4v8" style="vector-effect: non-scaling-stroke; stroke-width: 2px; stroke: rgb(0, 0, 0); stroke-opacity: 1;"/></g><g class="errorbar"><path class="yerror" d="M200.6,34.77h8m-4,0V54.16m-4,0h8" style="vector-effect: non-scaling-stroke; stroke-width: 2px; stroke: rgb(0, 0, 0); stroke-opacity: 1;"/><path class="xerror" d="M204.6,40.46v8m0,-4H204.6m0,-4v8" style="vector-effect: non-scaling-stroke; stroke-width: 2px; stroke: rgb(0, 0, 0); stroke-opacity: 1;"/></g><g class="errorbar"><path class="yerror" d="M146.92,24.45h8m-4,0V83.97m-4,0h8" style="vector-effect: non-scaling-stroke; stroke-width: 2px; stroke: rgb(0, 0, 0); stroke-opacity: 1;"/><path class="xerror" d="M150.92,50.21v8m0,-4H150.92m0,-4v8" style="vector-effect: non-scaling-stroke; stroke-width: 2px; stroke: rgb(0, 0, 0); stroke-opacity: 1;"/></g><g class="errorbar"><path class="yerror" d="M200.6,58.02h8m-4,0V99.41m-4,0h8" style="vector-effect: non-scaling-stroke; stroke-width: 2px; stroke: rgb(0, 0, 0); stroke-opacity: 1;"/><path class="xerror" d="M204.6,74.71v8m0,-4H204.6m0,-4v8" style="vector-effect: non-scaling-stroke; stroke-width: 2px; stroke: rgb(0, 0, 0); stroke-opacity: 1;"/></g></g><g class="lines"/><g class="points"><path class="point" transform="translate(60.29,94.42)" d="M3,0A3,3 0 1,1 0,-3A3,3 0 0,1 3,0Z" style="opacity: 1; stroke-width: 0px; fill: rgb(208, 0, 47); fill-opacity: 1;"/><path class="point" transform="translate(149.76,69.19)" d="M3,0A3,3 0 1,1 0,-3A3,3 0 0,1 3,0Z" style="opacity: 1; stroke-width: 0px; fill: rgb(36, 0, 219); fill-opacity: 1;"/><path class="point" transform="translate(115.92,90.22)" d="M3,0A3,3 0 1,1 0,-3A3,3 0 0,1 3,0Z" style="opacity: 1; stroke-width: 0px; fill: rgb(67, 0, 188); fill-opacity: 1;"/><path class="point" transform="translate(76.63,63.92)" d="M3,0A3,3 0 1,1 0,-3A3,3 0 0,1 3,0Z" style="opacity: 1; stroke-width: 0px; fill: rgb(255, 0, 0); fill-opacity: 1;"/><path class="point" transform="translate(19.45,146.57)" d="M3,0A3,3 0 1,1 0,-3A3,3 0 0,1 3,0Z" style="opacity: 1; stroke-width: 0px; fill: rgb(164, 0, 91); fill-opacity: 1;"/><path class="point" transform="translate(170.76,60.59)" d="M3,0A3,3 0 1,1 0,-3A3,3 0 0,1 3,0Z" style="opacity: 1; stroke-width: 0px; fill: rgb(4, 0, 251); fill-opacity: 1;"/><path class="point" transform="translate(200.71,60.45)" d="M3,0A3,3 0 1,1 0,-3A3,3 0 0,1 3,0Z" style="opacity: 1; stroke-width: 0px; fill: rgb(69, 0, 186); fill-opacity: 1;"/><path class="point" transform="translate(169.21,102.09)" d="M3,0A3,3 0 1,1 0,-3A3,3 0 0,1 3,0Z" style="opacity: 1; stroke-width: 0px; fill: rgb(108, 0, 147); fill-opacity: 1;"/><path class="point" transform="translate(152.09,90.09)" d="M3,0A3,3 0 1,1 0,-3A3,3 0 0,1 3,0Z" style="opacity: 1; stroke-width: 0px; fill: rgb(24, 0, 231); fill-opacity: 1;"/><path class="point" transform="translate(111.25,116.56)" d="M3,0A3,3 0 1,1 0,-3A3,3 0 0,1 3,0Z" style="opacity: 1; stroke-width: 0px; fill: rgb(0, 0, 255); fill-opacity: 1;"/><path class="point" transform="translate(161.43,61.09)" d="M3,0A3,3 0 1,1 0,-3A3,3 0 0,1 3,0Z" style="opacity: 1; stroke-width: 0px; fill: rgb(29, 0, 226); fill-opacity: 1;"/><path class="point" transform="translate(120.97,71.47)" d="M3,0A3,3 0 1,1 0,-3A3,3 0 0,1 3,0Z" style="opacity: 1; stroke-width: 0px; fill: rgb(109, 0, 146); fill-opacity: 1;"/><path class="point" transform="translate(166.48,100.59)" d="M3,0A3,3 0 1,1 0,-3A3,3 0 0,1 3,0Z" style="opacity: 1; stroke-width: 0px; fill: rgb(96, 0, 159); fill-opacity: 1;"/><path class="point" transform="translate(220.55,54.6)" d="M3,0A3,3 0 1,1 0,-3A3,3 0 0,1 3,0Z" style="opacity: 1; stroke-width: 0px; fill: rgb(107, 0, 148); fill-opacity: 1;"/><path class="point" transform="translate(204.6,55.48)" d="M3,0A3,3 0 1,1 0,-3A3,3 0 0,1 3,0Z" style="opacity: 1; stroke-width: 0px; fill: rgb(65, 0, 190); fill-opacity: 1;"/><path class="point" transform="translate(205.77,56.91)" d="M3,0A3,3 0 1,1 0,-3A3,3 0 0,1 3,0Z" style="opacity: 1; stroke-width: 0px; fill: rgb(73, 0, 182); fill-opacity: 1;"/><path class="point" transform="translate(205.77,39.41)" d="M3,0A3,3 0 1,1 0,-3A3,3 0 0,1 3,0Z" style="opacity: 1; stroke-width: 0px; fill: rgb(20, 0, 235); fill-opacity: 1;"/><path class="point" transform="translate(179.32,91.01)" d="M3,0A3,3 0 1,1 0,-3A3,3 0 0,1 3,0Z" style="opacity: 1; stroke-width: 0px; fill: rgb(103, 0, 152); fill-opacity: 1;"/><path class="point" transform="translate(139.25,130.14)" d="M3,0A3,3 0 1,1 0,-3A3,3 0 0,1 3,0Z" style="opacity: 1; stroke-width: 0px; fill: rgb(110, 0, 145); fill-opacity: 1;"/><path class="point" transform="translate(204.6,44.46)" d="M3,0A3,3 0 1,1 0,-3A3,3 0 0,1 3,0Z" style="opacity: 1; stroke-width: 0px; fill: rgb(32, 0, 223); fill-opacity: 1;"/><path class="point" transform="translate(150.92,54.21)" d="M3,0A3,3 0 1,1 0,-3A3,3 0 0,1 3,0Z" style="opacity: 1; stroke-width: 0px; fill: rgb(79, 0, 176); fill-opacity: 1;"/><path class="point" transform="translate(204.6,78.71)" d="M3,0A3,3 0 1,1 0,-3A3,3 0 0,1 3,0Z" style="opacity: 1; stroke-width: 0px; fill: rgb(135, 0, 120); fill-opacity: 1;"/></g><g class="text"/></g></g></g><g class="overplot"/><path class="xlines-above crisp" d="M0,0" style="fill: none;"/><path class="ylines-above crisp" d="M0,0" style="fill: none;"/><g class="overlines-above"/><g class="xaxislayer-above"><g class="xtick"><text text-anchor="middle" x="0" y="333" transform="translate(156.31,0)" style="font-family: 'Open Sans', verdana, arial, sans-serif; font-size: 12px; fill: rgb(42, 63, 95); fill-opacity: 1; white-space: pre;">−2</text></g><g class="xtick"><text text-anchor="middle" x="0" y="333" transform="translate(234.11,0)" style="font-family: 'Open Sans', verdana, arial, sans-serif; font-size: 12px; fill: rgb(42, 63, 95); fill-opacity: 1; white-space: pre;">0</text></g><g class="xtick"><text text-anchor="middle" x="0" y="333" transform="translate(311.9,0)" style="font-family: 'Open Sans', verdana, arial, sans-serif; font-size: 12px; fill: rgb(42, 63, 95); fill-opacity: 1; white-space: pre;">2</text></g></g><g class="yaxislayer-above"><g class="ytick"><text text-anchor="end" x="79" y="4.199999999999999" transform="translate(0,285.71000000000004)" style="font-family: 'Open Sans', verdana, arial, sans-serif; font-size: 12px; fill: rgb(42, 63, 95); fill-opacity: 1; white-space: pre;">−3</text></g><g class="ytick"><text text-anchor="end" x="79" y="4.199999999999999" transform="translate(0,250.05)" style="font-family: 'Open Sans', verdana, arial, sans-serif; font-size: 12px; fill: rgb(42, 63, 95); fill-opacity: 1; white-space: pre;">−2</text></g><g class="ytick"><text text-anchor="end" x="79" y="4.199999999999999" transform="translate(0,214.39)" style="font-family: 'Open Sans', verdana, arial, sans-serif; font-size: 12px; fill: rgb(42, 63, 95); fill-opacity: 1; white-space: pre;">−1</text></g><g class="ytick"><text text-anchor="end" x="79" y="4.199999999999999" transform="translate(0,178.74)" style="font-family: 'Open Sans', verdana, arial, sans-serif; font-size: 12px; fill: rgb(42, 63, 95); fill-opacity: 1; white-space: pre;">0</text></g><g class="ytick"><text text-anchor="end" x="79" y="4.199999999999999" transform="translate(0,143.07999999999998)" style="font-family: 'Open Sans', verdana, arial, sans-serif; font-size: 12px; fill: rgb(42, 63, 95); fill-opacity: 1; white-space: pre;">1</text></g><g class="ytick"><text text-anchor="end" x="79" y="4.199999999999999" transform="translate(0,107.42)" style="font-family: 'Open Sans', verdana, arial, sans-serif; font-size: 12px; fill: rgb(42, 63, 95); fill-opacity: 1; white-space: pre;">2</text></g></g><g class="overaxes-above"/></g></g><g class="polarlayer"/><g class="ternarylayer"/><g class="geolayer"/><g class="funnelarealayer"/><g class="pielayer"/><g class="treemaplayer"/><g class="sunburstlayer"/><g class="glimages"/><defs id="topdefs-0db4dd"><g class="clips"/></defs><g class="layer-above"><g class="imagelayer"/><g class="shapelayer"/></g><g class="infolayer"><g class="g-gtitle"><text class="gtitle" x="80" y="0" text-anchor="start" dy="0.7em" style="font-family: monospace; font-size: 14px; fill: rgb(42, 63, 95); opacity: 1; font-weight: normal; white-space: pre;"><tspan class="line" dy="0em" x="80" y="0"></tspan><tspan class="line" dy="1.3em" x="80" y="0">ptp1b (N = 22)</tspan><tspan class="line" dy="2.6em" x="80" y="0">RMSE: 1.02 [95%:  0.74,  1.30]</tspan><tspan class="line" dy="3.9000000000000004em" x="80" y="0">MUE:  0.84 [95%:  0.61,  1.09]</tspan><tspan class="line" dy="5.2em" x="80" y="0">R2:   0.41 [95%:  0.08,  0.73]</tspan><tspan class="line" dy="6.5em" x="80" y="0">rho:  0.64 [95%:  0.28,  0.85]</tspan></text></g><g class="g-xtitle"><text class="xtitle" x="200" y="361.8" text-anchor="middle" style="font-family: 'Open Sans', verdana, arial, sans-serif; font-size: 14px; fill: rgb(42, 63, 95); opacity: 1; font-weight: normal; white-space: pre;">Experimental ΔG [kcal mol​<tspan style="font-size:70%" dy="-0.6em">-1</tspan><tspan dy="0.42em">​</tspan>]</text></g><g class="g-ytitle"><text class="ytitle" transform="rotate(-90,40.465625,210)" x="40.465625" y="210" text-anchor="middle" style="font-family: 'Open Sans', verdana, arial, sans-serif; font-size: 14px; fill: rgb(42, 63, 95); opacity: 1; font-weight: normal; white-space: pre;">Calculated ΔG pmx_converged_openff-1.0.0.offxml_hahn [kcal mol​<tspan style="font-size:70%" dy="-0.6em">-1</tspan><tspan dy="0.42em">​</tspan>]</text></g></g></svg>