<svg class="main-svg" xmlns="http://www.w3.org/2000/svg" xmlns:xlink="http://www.w3.org/1999/xlink" width="400" height="400" style="" viewBox="0 0 400 400"><rect x="0" y="0" width="400" height="400" style="fill: rgb(255, 255, 255); fill-opacity: 1;"/><defs id="defs-fb97b5"><g class="clips"><clipPath id="clipfb97b5xyplot" class="plotclip"><rect width="240" height="220"/></clipPath><clipPath class="axesclip" id="clipfb97b5x"><rect x="80" y="0" width="240" height="400"/></clipPath><clipPath class="axesclip" id="clipfb97b5y"><rect x="0" y="100" width="400" height="220"/></clipPath><clipPath class="axesclip" id="clipfb97b5xy"><rect x="80" y="100" width="240" height="220"/></clipPath></g><g class="gradients"/></defs><g class="bglayer"><rect class="bg" x="80" y="100" width="240" height="220" style="fill: rgb(229, 236, 246); fill-opacity: 1; stroke-width: 0;"/></g><g class="layer-below"><g class="imagelayer"/><g class="shapelayer"/></g><g class="cartesianlayer"><g class="subplot xy"><g class="layer-subplot"><g class="shapelayer"/><g class="imagelayer"/></g><g class="gridlayer"><g class="x"><path class="xgrid crisp" transform="translate(136.25,0)" d="M0,100v220" style="stroke: rgb(255, 255, 255); stroke-opacity: 1; stroke-width: 1px;"/><path class="xgrid crisp" transform="translate(258.28,0)" d="M0,100v220" style="stroke: rgb(255, 255, 255); stroke-opacity: 1; stroke-width: 1px;"/></g><g class="y"><path class="ygrid crisp" transform="translate(0,268.44)" d="M80,0h240" style="stroke: rgb(255, 255, 255); stroke-opacity: 1; stroke-width: 1px;"/><path class="ygrid crisp" transform="translate(0,156.57)" d="M80,0h240" style="stroke: rgb(255, 255, 255); stroke-opacity: 1; stroke-width: 1px;"/></g></g><g class="zerolinelayer"><path class="xzl zl crisp" transform="translate(197.26999999999998,0)" d="M0,100v220" style="stroke: rgb(255, 255, 255); stroke-opacity: 1; stroke-width: 2px;"/><path class="yzl zl crisp" transform="translate(0,212.51)" d="M80,0h240" style="stroke: rgb(255, 255, 255); stroke-opacity: 1; stroke-width: 2px;"/></g><path class="xlines-below"/><path class="ylines-below"/><g class="overlines-below"/><g class="xaxislayer-below"/><g class="yaxislayer-below"/><g class="overaxes-below"/><g class="plot" transform="translate(80, 100)" clip-path="url('#clipfb97b5xyplot')"><g class="scatterlayer mlayer"><g class="trace scatter trace706cd3" style="stroke-miterlimit: 2; opacity: 1;"><g class="fills"><g><path class="js-fill" d="M0,164.07L178.98,0L240,0L240,55.93L61.02,220L0,220Z" style="fill: rgb(0, 0, 0); fill-opacity: 0.2; stroke-width: 0;"/></g></g><g class="errorbars"/><g class="lines"><path class="js-line" d="M0,164.07L178.98,0L240,0L240,55.93L61.02,220L0,220" style="vector-effect: non-scaling-stroke; fill: none; stroke: rgb(99, 110, 250); stroke-opacity: 1; stroke-width: 0px; opacity: 1;"/></g><g class="points"/><g class="text"/></g><g class="trace scatter tracecbc16f" style="stroke-miterlimit: 2; opacity: 1;"><g class="fills"><g><path class="js-fill" d="M0,192.03L209.49,0L240,0L240,27.97L30.51,220L0,220Z" style="fill: rgb(0, 0, 0); fill-opacity: 0.2; stroke-width: 0;"/></g></g><g class="errorbars"/><g class="lines"><path class="js-line" d="M0,192.03L209.49,0L240,0L240,27.97L30.51,220L0,220" style="vector-effect: non-scaling-stroke; fill: none; stroke: rgb(239, 85, 59); stroke-opacity: 1; stroke-width: 0px; opacity: 1;"/></g><g class="points"/><g class="text"/></g><g class="trace scatter tracec61bce" style="stroke-miterlimit: 2; opacity: 1;"><g class="fills"/><g class="errorbars"/><g class="lines"><path class="js-line" d="M0,220L240,0" style="vector-effect: non-scaling-stroke; fill: none; stroke: rgb(0, 0, 0); stroke-opacity: 1; stroke-width: 2px; opacity: 1;"/></g><g class="points"/><g class="text"/></g><g class="trace scatter trace6c298c" style="stroke-miterlimit: 2; opacity: 1;"><g class="fills"/><g class="errorbars"><g class="errorbar"><path class="yerror" d="M165.5,93.53h8m-4,0V105.84m-4,0h8" style="vector-effect: non-scaling-stroke; stroke-width: 2px; stroke: rgb(0, 0, 0); stroke-opacity: 1;"/><path class="xerror" d="M172.42,95.68v8m0,-4H166.58m0,-4v8" style="vector-effect: non-scaling-stroke; stroke-width: 2px; stroke: rgb(0, 0, 0); stroke-opacity: 1;"/></g><g class="errorbar"><path class="yerror" d="M159.67,85.9h8m-4,0V105.07m-4,0h8" style="vector-effect: non-scaling-stroke; stroke-width: 2px; stroke: rgb(0, 0, 0); stroke-opacity: 1;"/><path class="xerror" d="M163.67,91.48v8m0,-4H163.67m0,-4v8" style="vector-effect: non-scaling-stroke; stroke-width: 2px; stroke: rgb(0, 0, 0); stroke-opacity: 1;"/></g><g class="errorbar"><path class="yerror" d="M105.71,188.23h8m-4,0V195.84m-4,0h8" style="vector-effect: non-scaling-stroke; stroke-width: 2px; stroke: rgb(0, 0, 0); stroke-opacity: 1;"/><path class="xerror" d="M121.38,188.03v8m0,-4H98.04m0,-4v8" style="vector-effect: non-scaling-stroke; stroke-width: 2px; stroke: rgb(0, 0, 0); stroke-opacity: 1;"/></g><g class="errorbar"><path class="yerror" d="M99.88,124.52h8m-4,0V133.3m-4,0h8" style="vector-effect: non-scaling-stroke; stroke-width: 2px; stroke: rgb(0, 0, 0); stroke-opacity: 1;"/><path class="xerror" d="M114.08,124.91v8m0,-4H93.67m0,-4v8" style="vector-effect: non-scaling-stroke; stroke-width: 2px; stroke: rgb(0, 0, 0); stroke-opacity: 1;"/></g><g class="errorbar"><path class="yerror" d="M142.17,18.14h8m-4,0V37.79m-4,0h8" style="vector-effect: non-scaling-stroke; stroke-width: 2px; stroke: rgb(0, 0, 0); stroke-opacity: 1;"/><path class="xerror" d="M153.46,23.97v8m0,-4H138.88m0,-4v8" style="vector-effect: non-scaling-stroke; stroke-width: 2px; stroke: rgb(0, 0, 0); stroke-opacity: 1;"/></g><g class="errorbar"><path class="yerror" d="M120.29,86.62h8m-4,0V101.24m-4,0h8" style="vector-effect: non-scaling-stroke; stroke-width: 2px; stroke: rgb(0, 0, 0); stroke-opacity: 1;"/><path class="xerror" d="M125.75,89.93v8m0,-4H122.83m0,-4v8" style="vector-effect: non-scaling-stroke; stroke-width: 2px; stroke: rgb(0, 0, 0); stroke-opacity: 1;"/></g><g class="errorbar"><path class="yerror" d="M118.83,72.16h8m-4,0V79.76m-4,0h8" style="vector-effect: non-scaling-stroke; stroke-width: 2px; stroke: rgb(0, 0, 0); stroke-opacity: 1;"/><path class="xerror" d="M127.21,71.96v8m0,-4H118.46m0,-4v8" style="vector-effect: non-scaling-stroke; stroke-width: 2px; stroke: rgb(0, 0, 0); stroke-opacity: 1;"/></g><g class="errorbar"><path class="yerror" d="M78,147.58h8m-4,0V159.74m-4,0h8" style="vector-effect: non-scaling-stroke; stroke-width: 2px; stroke: rgb(0, 0, 0); stroke-opacity: 1;"/><path class="xerror" d="M86.38,149.66v8m0,-4H77.63m0,-4v8" style="vector-effect: non-scaling-stroke; stroke-width: 2px; stroke: rgb(0, 0, 0); stroke-opacity: 1;"/></g><g class="errorbar"><path class="yerror" d="M114.46,164.1h8m-4,0V175.52m-4,0h8" style="vector-effect: non-scaling-stroke; stroke-width: 2px; stroke: rgb(0, 0, 0); stroke-opacity: 1;"/><path class="xerror" d="M127.21,165.81v8m0,-4H109.71m0,-4v8" style="vector-effect: non-scaling-stroke; stroke-width: 2px; stroke: rgb(0, 0, 0); stroke-opacity: 1;"/></g><g class="errorbar"><path class="yerror" d="M61.959999999999994,122.35h8m-4,0V136.42m-4,0h8" style="vector-effect: non-scaling-stroke; stroke-width: 2px; stroke: rgb(0, 0, 0); stroke-opacity: 1;"/><path class="xerror" d="M68.88,125.38v8m0,-4H63.04m0,-4v8" style="vector-effect: non-scaling-stroke; stroke-width: 2px; stroke: rgb(0, 0, 0); stroke-opacity: 1;"/></g><g class="errorbar"><path class="yerror" d="M79.46,64.17h8m-4,0V77.31m-4,0h8" style="vector-effect: non-scaling-stroke; stroke-width: 2px; stroke: rgb(0, 0, 0); stroke-opacity: 1;"/><path class="xerror" d="M90.75,66.74v8m0,-4H76.17m0,-4v8" style="vector-effect: non-scaling-stroke; stroke-width: 2px; stroke: rgb(0, 0, 0); stroke-opacity: 1;"/></g></g><g class="lines"/><g class="points"><path class="point" transform="translate(169.5,99.68)" d="M3,0A3,3 0 1,1 0,-3A3,3 0 0,1 3,0Z" style="opacity: 1; stroke-width: 0px; fill: rgb(115, 0, 140); fill-opacity: 1;"/><path class="point" transform="translate(163.67,95.48)" d="M3,0A3,3 0 1,1 0,-3A3,3 0 0,1 3,0Z" style="opacity: 1; stroke-width: 0px; fill: rgb(79, 0, 176); fill-opacity: 1;"/><path class="point" transform="translate(109.71,192.03)" d="M3,0A3,3 0 1,1 0,-3A3,3 0 0,1 3,0Z" style="opacity: 1; stroke-width: 0px; fill: rgb(254, 0, 1); fill-opacity: 1;"/><path class="point" transform="translate(103.88,128.91)" d="M3,0A3,3 0 1,1 0,-3A3,3 0 0,1 3,0Z" style="opacity: 1; stroke-width: 0px; fill: rgb(0, 0, 255); fill-opacity: 1;"/><path class="point" transform="translate(146.17,27.97)" d="M3,0A3,3 0 1,1 0,-3A3,3 0 0,1 3,0Z" style="opacity: 1; stroke-width: 0px; fill: rgb(200, 0, 55); fill-opacity: 1;"/><path class="point" transform="translate(124.29,93.93)" d="M3,0A3,3 0 1,1 0,-3A3,3 0 0,1 3,0Z" style="opacity: 1; stroke-width: 0px; fill: rgb(30, 0, 225); fill-opacity: 1;"/><path class="point" transform="translate(122.83,75.96)" d="M3,0A3,3 0 1,1 0,-3A3,3 0 0,1 3,0Z" style="opacity: 1; stroke-width: 0px; fill: rgb(101, 0, 154); fill-opacity: 1;"/><path class="point" transform="translate(82,153.66)" d="M3,0A3,3 0 1,1 0,-3A3,3 0 0,1 3,0Z" style="opacity: 1; stroke-width: 0px; fill: rgb(17, 0, 238); fill-opacity: 1;"/><path class="point" transform="translate(118.46,169.81)" d="M3,0A3,3 0 1,1 0,-3A3,3 0 0,1 3,0Z" style="opacity: 1; stroke-width: 0px; fill: rgb(202, 0, 53); fill-opacity: 1;"/><path class="point" transform="translate(65.96,129.38)" d="M3,0A3,3 0 1,1 0,-3A3,3 0 0,1 3,0Z" style="opacity: 1; stroke-width: 0px; fill: rgb(97, 0, 158); fill-opacity: 1;"/><path class="point" transform="translate(83.46,70.74)" d="M3,0A3,3 0 1,1 0,-3A3,3 0 0,1 3,0Z" style="opacity: 1; stroke-width: 0px; fill: rgb(255, 0, 0); fill-opacity: 1;"/></g><g class="text"/></g></g></g><g class="overplot"/><path class="xlines-above crisp" d="M0,0" style="fill: none;"/><path class="ylines-above crisp" d="M0,0" style="fill: none;"/><g class="overlines-above"/><g class="xaxislayer-above"><g class="xtick"><text text-anchor="middle" x="0" y="333" transform="translate(136.25,0)" style="font-family: 'Open Sans', verdana, arial, sans-serif; font-size: 12px; fill: rgb(42, 63, 95); fill-opacity: 1; white-space: pre;">−1</text></g><g class="xtick"><text text-anchor="middle" x="0" y="333" transform="translate(197.26999999999998,0)" style="font-family: 'Open Sans', verdana, arial, sans-serif; font-size: 12px; fill: rgb(42, 63, 95); fill-opacity: 1; white-space: pre;">0</text></g><g class="xtick"><text text-anchor="middle" x="0" y="333" transform="translate(258.28,0)" style="font-family: 'Open Sans', verdana, arial, sans-serif; font-size: 12px; fill: rgb(42, 63, 95); fill-opacity: 1; white-space: pre;">1</text></g><g class="xtick"><text text-anchor="middle" x="0" y="333" transform="translate(319.3,0)" style="font-family: 'Open Sans', verdana, arial, sans-serif; font-size: 12px; fill: rgb(42, 63, 95); fill-opacity: 1; white-space: pre;">2</text></g></g><g class="yaxislayer-above"><g class="ytick"><text text-anchor="end" x="79" y="4.199999999999999" transform="translate(0,268.44)" style="font-family: 'Open Sans', verdana, arial, sans-serif; font-size: 12px; fill: rgb(42, 63, 95); fill-opacity: 1; white-space: pre;">−1</text></g><g class="ytick"><text text-anchor="end" x="79" y="4.199999999999999" transform="translate(0,212.51)" style="font-family: 'Open Sans', verdana, arial, sans-serif; font-size: 12px; fill: rgb(42, 63, 95); fill-opacity: 1; white-space: pre;">0</text></g><g class="ytick"><text text-anchor="end" x="79" y="4.199999999999999" transform="translate(0,156.57)" style="font-family: 'Open Sans', verdana, arial, sans-serif; font-size: 12px; fill: rgb(42, 63, 95); fill-opacity: 1; white-space: pre;">1</text></g><g class="ytick"><text text-anchor="end" x="79" y="4.199999999999999" transform="translate(0,100.64)" style="font-family: 'Open Sans', verdana, arial, sans-serif; font-size: 12px; fill: rgb(42, 63, 95); fill-opacity: 1; white-space: pre;">2</text></g></g><g class="overaxes-above"/></g></g><g class="polarlayer"/><g class="ternarylayer"/><g class="geolayer"/><g class="funnelarealayer"/><g class="pielayer"/><g class="treemaplayer"/><g class="sunburstlayer"/><g class="glimages"/><defs id="topdefs-fb97b5"><g class="clips"/></defs><g class="layer-above"><g class="imagelayer"/><g class="shapelayer"/></g><g class="infolayer"><g class="g-gtitle"><text class="gtitle" x="80" y="0" text-anchor="start" dy="0.7em" style="font-family: monospace; font-size: 14px; fill: rgb(42, 63, 95); opacity: 1; font-weight: normal; white-space: pre;"><tspan class="line" dy="0em" x="80" y="0"></tspan><tspan class="line" dy="1.3em" x="80" y="0">thrombin (N = 11)</tspan><tspan class="line" dy="2.6em" x="80" y="0">RMSE: 0.79 [95%:  0.53,  1.00]</tspan><tspan class="line" dy="3.9000000000000004em" x="80" y="0">MUE:  0.66 [95%:  0.41,  0.93]</tspan><tspan class="line" dy="5.2em" x="80" y="0">R2:   0.14 [95%:  0.00,  0.50]</tspan><tspan class="line" dy="6.5em" x="80" y="0">rho:  0.37 [95%: -0.10,  0.71]</tspan></text></g><g class="g-xtitle"><text class="xtitle" x="200" y="361.8" text-anchor="middle" style="font-family: 'Open Sans', verdana, arial, sans-serif; font-size: 14px; fill: rgb(42, 63, 95); opacity: 1; font-weight: normal; white-space: pre;">Experimental ΔG [kcal mol​<tspan style="font-size:70%" dy="-0.6em">-1</tspan><tspan dy="0.42em">​</tspan>]</text></g><g class="g-ytitle"><text class="ytitle" transform="rotate(-90,40.465625,210)" x="40.465625" y="210" text-anchor="middle" style="font-family: 'Open Sans', verdana, arial, sans-serif; font-size: 14px; fill: rgb(42, 63, 95); opacity: 1; font-weight: normal; white-space: pre;">Calculated ΔG pmx_repeatfilter_openff-1.0.0.offxml_hahn [kcal mol​<tspan style="font-size:70%" dy="-0.6em">-1</tspan><tspan dy="0.42em">​</tspan>]</text></g></g></svg>