<?xml version='1.0' encoding='ASCII' standalone='yes'?>
<svg xmlns="http://www.w3.org/2000/svg" xmlns:rdkit="http://www.rdkit.org/xml" xmlns:xlink="http://www.w3.org/1999/xlink" version="1.1" baseProfile="full" xml:space="preserve" width="600px" height="300px" viewBox="0 0 600 300">
<!-- END OF HEADER -->
<rect style="opacity:1.0;fill:#FFFFFF;stroke:none" width="600.0" height="300.0" x="0.0" y="0.0"> </rect>
<path class="bond-0 atom-0 atom-1" d="M 96.2,174.0 L 108.0,158.3" style="fill:none;fill-rule:evenodd;stroke:#000000;stroke-width:2.0px;stroke-linecap:butt;stroke-linejoin:miter;stroke-opacity:1"/>
<path class="bond-0 atom-0 atom-1" d="M 94.8,169.3 L 103.1,158.3" style="fill:none;fill-rule:evenodd;stroke:#000000;stroke-width:2.0px;stroke-linecap:butt;stroke-linejoin:miter;stroke-opacity:1"/>
<path class="bond-1 atom-0 atom-2" d="M 96.2,174.0 L 76.7,171.7" style="fill:none;fill-rule:evenodd;stroke:#000000;stroke-width:2.0px;stroke-linecap:butt;stroke-linejoin:miter;stroke-opacity:1"/>
<path class="bond-2 atom-0 atom-22" d="M 96.2,174.0 L 102.4,188.7" style="fill:none;fill-rule:evenodd;stroke:#000000;stroke-width:2.0px;stroke-linecap:butt;stroke-linejoin:miter;stroke-opacity:1"/>
<path class="bond-3 atom-1 atom-3" d="M 108.0,158.3 L 100.3,140.3" style="fill:none;fill-rule:evenodd;stroke:#000000;stroke-width:2.0px;stroke-linecap:butt;stroke-linejoin:miter;stroke-opacity:1"/>
<path class="bond-4 atom-1 atom-4" d="M 108.0,158.3 L 116.4,159.4" style="fill:none;fill-rule:evenodd;stroke:#000000;stroke-width:2.0px;stroke-linecap:butt;stroke-linejoin:miter;stroke-opacity:1"/>
<path class="bond-4 atom-1 atom-4" d="M 116.4,159.4 L 124.8,160.4" style="fill:none;fill-rule:evenodd;stroke:#0000FF;stroke-width:2.0px;stroke-linecap:butt;stroke-linejoin:miter;stroke-opacity:1"/>
<path class="bond-5 atom-2 atom-5" d="M 76.7,171.7 L 69.0,153.6" style="fill:none;fill-rule:evenodd;stroke:#000000;stroke-width:2.0px;stroke-linecap:butt;stroke-linejoin:miter;stroke-opacity:1"/>
<path class="bond-5 atom-2 atom-5" d="M 79.2,167.4 L 73.8,154.8" style="fill:none;fill-rule:evenodd;stroke:#000000;stroke-width:2.0px;stroke-linecap:butt;stroke-linejoin:miter;stroke-opacity:1"/>
<path class="bond-6 atom-2 atom-23" d="M 76.7,171.7 L 67.4,184.0" style="fill:none;fill-rule:evenodd;stroke:#000000;stroke-width:2.0px;stroke-linecap:butt;stroke-linejoin:miter;stroke-opacity:1"/>
<path class="bond-7 atom-3 atom-6" d="M 100.3,140.3 L 80.8,137.9" style="fill:none;fill-rule:evenodd;stroke:#000000;stroke-width:2.0px;stroke-linecap:butt;stroke-linejoin:miter;stroke-opacity:1"/>
<path class="bond-7 atom-3 atom-6" d="M 96.9,143.8 L 83.3,142.1" style="fill:none;fill-rule:evenodd;stroke:#000000;stroke-width:2.0px;stroke-linecap:butt;stroke-linejoin:miter;stroke-opacity:1"/>
<path class="bond-8 atom-3 atom-7" d="M 100.3,140.3 L 112.1,124.6" style="fill:none;fill-rule:evenodd;stroke:#000000;stroke-width:2.0px;stroke-linecap:butt;stroke-linejoin:miter;stroke-opacity:1"/>
<path class="bond-9 atom-4 atom-10" d="M 130.1,157.3 L 134.7,151.2" style="fill:none;fill-rule:evenodd;stroke:#0000FF;stroke-width:2.0px;stroke-linecap:butt;stroke-linejoin:miter;stroke-opacity:1"/>
<path class="bond-9 atom-4 atom-10" d="M 134.7,151.2 L 139.3,145.0" style="fill:none;fill-rule:evenodd;stroke:#000000;stroke-width:2.0px;stroke-linecap:butt;stroke-linejoin:miter;stroke-opacity:1"/>
<path class="bond-9 atom-4 atom-10" d="M 128.3,153.1 L 131.6,148.8" style="fill:none;fill-rule:evenodd;stroke:#0000FF;stroke-width:2.0px;stroke-linecap:butt;stroke-linejoin:miter;stroke-opacity:1"/>
<path class="bond-9 atom-4 atom-10" d="M 131.6,148.8 L 134.8,144.5" style="fill:none;fill-rule:evenodd;stroke:#000000;stroke-width:2.0px;stroke-linecap:butt;stroke-linejoin:miter;stroke-opacity:1"/>
<path class="bond-10 atom-5 atom-6" d="M 69.0,153.6 L 80.8,137.9" style="fill:none;fill-rule:evenodd;stroke:#000000;stroke-width:2.0px;stroke-linecap:butt;stroke-linejoin:miter;stroke-opacity:1"/>
<path class="bond-11 atom-5 atom-24" d="M 69.0,153.6 L 52.3,151.5" style="fill:none;fill-rule:evenodd;stroke:#000000;stroke-width:2.0px;stroke-linecap:butt;stroke-linejoin:miter;stroke-opacity:1"/>
<path class="bond-12 atom-6 atom-21" d="M 80.8,137.9 L 77.7,130.5" style="fill:none;fill-rule:evenodd;stroke:#000000;stroke-width:2.0px;stroke-linecap:butt;stroke-linejoin:miter;stroke-opacity:1"/>
<path class="bond-12 atom-6 atom-21" d="M 77.7,130.5 L 74.6,123.2" style="fill:none;fill-rule:evenodd;stroke:#33CCCC;stroke-width:2.0px;stroke-linecap:butt;stroke-linejoin:miter;stroke-opacity:1"/>
<path class="bond-13 atom-7 atom-8" d="M 112.1,124.6 L 120.5,125.6" style="fill:none;fill-rule:evenodd;stroke:#000000;stroke-width:2.0px;stroke-linecap:butt;stroke-linejoin:miter;stroke-opacity:1"/>
<path class="bond-13 atom-7 atom-8" d="M 120.5,125.6 L 128.9,126.6" style="fill:none;fill-rule:evenodd;stroke:#0000FF;stroke-width:2.0px;stroke-linecap:butt;stroke-linejoin:miter;stroke-opacity:1"/>
<path class="bond-14 atom-7 atom-9" d="M 110.3,125.3 L 107.2,118.1" style="fill:none;fill-rule:evenodd;stroke:#000000;stroke-width:2.0px;stroke-linecap:butt;stroke-linejoin:miter;stroke-opacity:1"/>
<path class="bond-14 atom-7 atom-9" d="M 107.2,118.1 L 104.1,110.8" style="fill:none;fill-rule:evenodd;stroke:#FF0000;stroke-width:2.0px;stroke-linecap:butt;stroke-linejoin:miter;stroke-opacity:1"/>
<path class="bond-14 atom-7 atom-9" d="M 113.9,123.8 L 110.8,116.5" style="fill:none;fill-rule:evenodd;stroke:#000000;stroke-width:2.0px;stroke-linecap:butt;stroke-linejoin:miter;stroke-opacity:1"/>
<path class="bond-14 atom-7 atom-9" d="M 110.8,116.5 L 107.7,109.2" style="fill:none;fill-rule:evenodd;stroke:#FF0000;stroke-width:2.0px;stroke-linecap:butt;stroke-linejoin:miter;stroke-opacity:1"/>
<path class="bond-15 atom-8 atom-10" d="M 133.1,130.3 L 136.2,137.7" style="fill:none;fill-rule:evenodd;stroke:#0000FF;stroke-width:2.0px;stroke-linecap:butt;stroke-linejoin:miter;stroke-opacity:1"/>
<path class="bond-15 atom-8 atom-10" d="M 136.2,137.7 L 139.3,145.0" style="fill:none;fill-rule:evenodd;stroke:#000000;stroke-width:2.0px;stroke-linecap:butt;stroke-linejoin:miter;stroke-opacity:1"/>
<path class="bond-16 atom-8 atom-25" d="M 134.2,123.5 L 137.5,119.1" style="fill:none;fill-rule:evenodd;stroke:#0000FF;stroke-width:2.0px;stroke-linecap:butt;stroke-linejoin:miter;stroke-opacity:1"/>
<path class="bond-16 atom-8 atom-25" d="M 137.5,119.1 L 140.9,114.6" style="fill:none;fill-rule:evenodd;stroke:#000000;stroke-width:2.0px;stroke-linecap:butt;stroke-linejoin:miter;stroke-opacity:1"/>
<path class="bond-17 atom-10 atom-11" d="M 139.3,145.0 L 158.8,147.4" style="fill:none;fill-rule:evenodd;stroke:#000000;stroke-width:2.0px;stroke-linecap:butt;stroke-linejoin:miter;stroke-opacity:1"/>
<path class="bond-18 atom-11 atom-12" d="M 158.8,147.4 L 166.5,165.5" style="fill:none;fill-rule:evenodd;stroke:#000000;stroke-width:2.0px;stroke-linecap:butt;stroke-linejoin:miter;stroke-opacity:1"/>
<path class="bond-18 atom-11 atom-12" d="M 163.6,148.6 L 169.0,161.2" style="fill:none;fill-rule:evenodd;stroke:#000000;stroke-width:2.0px;stroke-linecap:butt;stroke-linejoin:miter;stroke-opacity:1"/>
<path class="bond-19 atom-11 atom-16" d="M 158.8,147.4 L 170.7,131.7" style="fill:none;fill-rule:evenodd;stroke:#000000;stroke-width:2.0px;stroke-linecap:butt;stroke-linejoin:miter;stroke-opacity:1"/>
<path class="bond-20 atom-12 atom-13" d="M 166.5,165.5 L 186.0,167.9" style="fill:none;fill-rule:evenodd;stroke:#000000;stroke-width:2.0px;stroke-linecap:butt;stroke-linejoin:miter;stroke-opacity:1"/>
<path class="bond-21 atom-12 atom-26" d="M 166.5,165.5 L 157.3,177.8" style="fill:none;fill-rule:evenodd;stroke:#000000;stroke-width:2.0px;stroke-linecap:butt;stroke-linejoin:miter;stroke-opacity:1"/>
<path class="bond-22 atom-13 atom-14" d="M 186.0,167.9 L 197.9,152.2" style="fill:none;fill-rule:evenodd;stroke:#000000;stroke-width:2.0px;stroke-linecap:butt;stroke-linejoin:miter;stroke-opacity:1"/>
<path class="bond-22 atom-13 atom-14" d="M 184.7,163.1 L 192.9,152.2" style="fill:none;fill-rule:evenodd;stroke:#000000;stroke-width:2.0px;stroke-linecap:butt;stroke-linejoin:miter;stroke-opacity:1"/>
<path class="bond-23 atom-13 atom-27" d="M 186.0,167.9 L 189.1,175.1" style="fill:none;fill-rule:evenodd;stroke:#000000;stroke-width:2.0px;stroke-linecap:butt;stroke-linejoin:miter;stroke-opacity:1"/>
<path class="bond-24 atom-14 atom-15" d="M 197.9,152.2 L 190.2,134.1" style="fill:none;fill-rule:evenodd;stroke:#000000;stroke-width:2.0px;stroke-linecap:butt;stroke-linejoin:miter;stroke-opacity:1"/>
<path class="bond-25 atom-14 atom-17" d="M 197.9,152.2 L 217.4,154.5" style="fill:none;fill-rule:evenodd;stroke:#000000;stroke-width:2.0px;stroke-linecap:butt;stroke-linejoin:miter;stroke-opacity:1"/>
<path class="bond-26 atom-15 atom-16" d="M 190.2,134.1 L 170.7,131.7" style="fill:none;fill-rule:evenodd;stroke:#000000;stroke-width:2.0px;stroke-linecap:butt;stroke-linejoin:miter;stroke-opacity:1"/>
<path class="bond-26 atom-15 atom-16" d="M 186.8,137.6 L 173.1,136.0" style="fill:none;fill-rule:evenodd;stroke:#000000;stroke-width:2.0px;stroke-linecap:butt;stroke-linejoin:miter;stroke-opacity:1"/>
<path class="bond-27 atom-15 atom-28" d="M 190.2,134.1 L 194.6,128.2" style="fill:none;fill-rule:evenodd;stroke:#000000;stroke-width:2.0px;stroke-linecap:butt;stroke-linejoin:miter;stroke-opacity:1"/>
<path class="bond-28 atom-16 atom-29" d="M 170.7,131.7 L 164.4,117.0" style="fill:none;fill-rule:evenodd;stroke:#000000;stroke-width:2.0px;stroke-linecap:butt;stroke-linejoin:miter;stroke-opacity:1"/>
<path class="bond-29 atom-17 atom-18" d="M 217.4,154.5 L 225.5,155.5" style="fill:none;fill-rule:evenodd;stroke:#000000;stroke-width:2.0px;stroke-linecap:butt;stroke-linejoin:miter;stroke-opacity:1"/>
<path class="bond-29 atom-17 atom-18" d="M 225.5,155.5 L 233.7,156.5" style="fill:none;fill-rule:evenodd;stroke:#FF0000;stroke-width:2.0px;stroke-linecap:butt;stroke-linejoin:miter;stroke-opacity:1"/>
<path class="bond-30 atom-17 atom-19" d="M 217.4,154.5 L 215.0,174.0" style="fill:none;fill-rule:evenodd;stroke:#000000;stroke-width:2.0px;stroke-linecap:butt;stroke-linejoin:miter;stroke-opacity:1"/>
<path class="bond-31 atom-17 atom-20" d="M 217.4,154.5 L 219.7,135.0" style="fill:none;fill-rule:evenodd;stroke:#000000;stroke-width:2.0px;stroke-linecap:butt;stroke-linejoin:miter;stroke-opacity:1"/>
<path class="bond-32 atom-18 atom-30" d="M 240.0,153.6 L 243.9,149.7" style="fill:none;fill-rule:evenodd;stroke:#FF0000;stroke-width:2.0px;stroke-linecap:butt;stroke-linejoin:miter;stroke-opacity:1"/>
<path class="bond-32 atom-18 atom-30" d="M 243.9,149.7 L 247.7,145.7" style="fill:none;fill-rule:evenodd;stroke:#000000;stroke-width:2.0px;stroke-linecap:butt;stroke-linejoin:miter;stroke-opacity:1"/>
<path class="bond-33 atom-19 atom-31" d="M 215.0,174.0 L 206.3,175.1" style="fill:none;fill-rule:evenodd;stroke:#000000;stroke-width:2.0px;stroke-linecap:butt;stroke-linejoin:miter;stroke-opacity:1"/>
<path class="bond-34 atom-19 atom-32" d="M 215.0,174.0 L 231.7,176.1" style="fill:none;fill-rule:evenodd;stroke:#000000;stroke-width:2.0px;stroke-linecap:butt;stroke-linejoin:miter;stroke-opacity:1"/>
<path class="bond-35 atom-19 atom-33" d="M 215.0,174.0 L 213.0,190.1" style="fill:none;fill-rule:evenodd;stroke:#000000;stroke-width:2.0px;stroke-linecap:butt;stroke-linejoin:miter;stroke-opacity:1"/>
<path class="bond-36 atom-20 atom-34" d="M 219.7,135.0 L 236.6,135.0" style="fill:none;fill-rule:evenodd;stroke:#000000;stroke-width:2.0px;stroke-linecap:butt;stroke-linejoin:miter;stroke-opacity:1"/>
<path class="bond-37 atom-20 atom-35" d="M 219.7,135.0 L 211.7,132.0" style="fill:none;fill-rule:evenodd;stroke:#000000;stroke-width:2.0px;stroke-linecap:butt;stroke-linejoin:miter;stroke-opacity:1"/>
<path class="bond-38 atom-20 atom-36" d="M 219.7,135.0 L 221.7,118.9" style="fill:none;fill-rule:evenodd;stroke:#000000;stroke-width:2.0px;stroke-linecap:butt;stroke-linejoin:miter;stroke-opacity:1"/>
<path class="atom-4" d="M 126.3 157.9 L 128.1 160.9 Q 128.3 161.2, 128.6 161.7 Q 128.9 162.2, 128.9 162.3 L 128.9 157.9 L 129.6 157.9 L 129.6 163.5 L 128.9 163.5 L 126.9 160.3 Q 126.7 159.9, 126.4 159.5 Q 126.2 159.0, 126.1 158.9 L 126.1 163.5 L 125.4 163.5 L 125.4 157.9 L 126.3 157.9 " fill="#0000FF"/>
<path class="atom-8" d="M 130.4 124.2 L 132.2 127.1 Q 132.4 127.4, 132.7 127.9 Q 133.0 128.4, 133.0 128.5 L 133.0 124.2 L 133.8 124.2 L 133.8 129.7 L 133.0 129.7 L 131.0 126.5 Q 130.8 126.1, 130.6 125.7 Q 130.3 125.3, 130.3 125.1 L 130.3 129.7 L 129.5 129.7 L 129.5 124.2 L 130.4 124.2 " fill="#0000FF"/>
<path class="atom-9" d="M 101.9 106.5 Q 101.9 105.2, 102.5 104.4 Q 103.2 103.7, 104.4 103.7 Q 105.7 103.7, 106.3 104.4 Q 107.0 105.2, 107.0 106.5 Q 107.0 107.8, 106.3 108.6 Q 105.7 109.4, 104.4 109.4 Q 103.2 109.4, 102.5 108.6 Q 101.9 107.9, 101.9 106.5 M 104.4 108.8 Q 105.3 108.8, 105.7 108.2 Q 106.2 107.6, 106.2 106.5 Q 106.2 105.4, 105.7 104.9 Q 105.3 104.3, 104.4 104.3 Q 103.6 104.3, 103.1 104.8 Q 102.7 105.4, 102.7 106.5 Q 102.7 107.6, 103.1 108.2 Q 103.6 108.8, 104.4 108.8 " fill="#FF0000"/>
<path class="atom-18" d="M 234.3 156.9 Q 234.3 155.6, 235.0 154.9 Q 235.6 154.1, 236.9 154.1 Q 238.1 154.1, 238.8 154.9 Q 239.4 155.6, 239.4 156.9 Q 239.4 158.3, 238.7 159.1 Q 238.1 159.8, 236.9 159.8 Q 235.6 159.8, 235.0 159.1 Q 234.3 158.3, 234.3 156.9 M 236.9 159.2 Q 237.7 159.2, 238.2 158.6 Q 238.6 158.1, 238.6 156.9 Q 238.6 155.8, 238.2 155.3 Q 237.7 154.7, 236.9 154.7 Q 236.0 154.7, 235.6 155.3 Q 235.1 155.8, 235.1 156.9 Q 235.1 158.1, 235.6 158.6 Q 236.0 159.2, 236.9 159.2 " fill="#FF0000"/>
<path class="atom-21" d="M 71.5 117.0 L 74.8 117.0 L 74.8 117.7 L 72.2 117.7 L 72.2 119.3 L 74.5 119.3 L 74.5 120.0 L 72.2 120.0 L 72.2 122.6 L 71.5 122.6 L 71.5 117.0 " fill="#33CCCC"/>
<path class="atom-22" d="M 101.7 189.3 L 102.5 189.3 L 102.5 191.7 L 105.3 191.7 L 105.3 189.3 L 106.1 189.3 L 106.1 194.9 L 105.3 194.9 L 105.3 192.3 L 102.5 192.3 L 102.5 194.9 L 101.7 194.9 L 101.7 189.3 " fill="#000000"/>
<path class="atom-23" d="M 62.7 184.6 L 63.5 184.6 L 63.5 187.0 L 66.3 187.0 L 66.3 184.6 L 67.1 184.6 L 67.1 190.2 L 66.3 190.2 L 66.3 187.6 L 63.5 187.6 L 63.5 190.2 L 62.7 190.2 L 62.7 184.6 " fill="#000000"/>
<path class="atom-24" d="M 47.3 148.4 L 48.1 148.4 L 48.1 150.8 L 50.9 150.8 L 50.9 148.4 L 51.7 148.4 L 51.7 154.0 L 50.9 154.0 L 50.9 151.4 L 48.1 151.4 L 48.1 154.0 L 47.3 154.0 L 47.3 148.4 " fill="#000000"/>
<path class="atom-25" d="M 141.3 108.5 L 142.0 108.5 L 142.0 110.8 L 144.9 110.8 L 144.9 108.5 L 145.6 108.5 L 145.6 114.0 L 144.9 114.0 L 144.9 111.5 L 142.0 111.5 L 142.0 114.0 L 141.3 114.0 L 141.3 108.5 " fill="#000000"/>
<path class="atom-26" d="M 152.5 178.4 L 153.3 178.4 L 153.3 180.8 L 156.1 180.8 L 156.1 178.4 L 156.9 178.4 L 156.9 184.0 L 156.1 184.0 L 156.1 181.4 L 153.3 181.4 L 153.3 184.0 L 152.5 184.0 L 152.5 178.4 " fill="#000000"/>
<path class="atom-27" d="M 188.4 175.8 L 189.2 175.8 L 189.2 178.1 L 192.0 178.1 L 192.0 175.8 L 192.8 175.8 L 192.8 181.3 L 192.0 181.3 L 192.0 178.8 L 189.2 178.8 L 189.2 181.3 L 188.4 181.3 L 188.4 175.8 " fill="#000000"/>
<path class="atom-28" d="M 195.0 122.0 L 195.7 122.0 L 195.7 124.4 L 198.6 124.4 L 198.6 122.0 L 199.3 122.0 L 199.3 127.6 L 198.6 127.6 L 198.6 125.0 L 195.7 125.0 L 195.7 127.6 L 195.0 127.6 L 195.0 122.0 " fill="#000000"/>
<path class="atom-29" d="M 160.8 110.8 L 161.5 110.8 L 161.5 113.2 L 164.4 113.2 L 164.4 110.8 L 165.1 110.8 L 165.1 116.4 L 164.4 116.4 L 164.4 113.8 L 161.5 113.8 L 161.5 116.4 L 160.8 116.4 L 160.8 110.8 " fill="#000000"/>
<path class="atom-30" d="M 248.3 140.0 L 249.1 140.0 L 249.1 142.4 L 251.9 142.4 L 251.9 140.0 L 252.7 140.0 L 252.7 145.6 L 251.9 145.6 L 251.9 143.0 L 249.1 143.0 L 249.1 145.6 L 248.3 145.6 L 248.3 140.0 " fill="#000000"/>
<path class="atom-31" d="M 201.3 172.7 L 202.0 172.7 L 202.0 175.1 L 204.9 175.1 L 204.9 172.7 L 205.6 172.7 L 205.6 178.3 L 204.9 178.3 L 204.9 175.7 L 202.0 175.7 L 202.0 178.3 L 201.3 178.3 L 201.3 172.7 " fill="#000000"/>
<path class="atom-32" d="M 232.3 173.6 L 233.1 173.6 L 233.1 176.0 L 235.9 176.0 L 235.9 173.6 L 236.7 173.6 L 236.7 179.2 L 235.9 179.2 L 235.9 176.6 L 233.1 176.6 L 233.1 179.2 L 232.3 179.2 L 232.3 173.6 " fill="#000000"/>
<path class="atom-33" d="M 210.4 190.8 L 211.2 190.8 L 211.2 193.1 L 214.0 193.1 L 214.0 190.8 L 214.8 190.8 L 214.8 196.3 L 214.0 196.3 L 214.0 193.8 L 211.2 193.8 L 211.2 196.3 L 210.4 196.3 L 210.4 190.8 " fill="#000000"/>
<path class="atom-34" d="M 237.2 132.2 L 238.0 132.2 L 238.0 134.6 L 240.8 134.6 L 240.8 132.2 L 241.6 132.2 L 241.6 137.8 L 240.8 137.8 L 240.8 135.2 L 238.0 135.2 L 238.0 137.8 L 237.2 137.8 L 237.2 132.2 " fill="#000000"/>
<path class="atom-35" d="M 206.7 128.1 L 207.5 128.1 L 207.5 130.5 L 210.3 130.5 L 210.3 128.1 L 211.1 128.1 L 211.1 133.7 L 210.3 133.7 L 210.3 131.1 L 207.5 131.1 L 207.5 133.7 L 206.7 133.7 L 206.7 128.1 " fill="#000000"/>
<path class="atom-36" d="M 219.9 112.7 L 220.7 112.7 L 220.7 115.1 L 223.5 115.1 L 223.5 112.7 L 224.3 112.7 L 224.3 118.3 L 223.5 118.3 L 223.5 115.7 L 220.7 115.7 L 220.7 118.3 L 219.9 118.3 L 219.9 112.7 " fill="#000000"/>
<path class="bond-0 atom-0 atom-1" d="M 454.6,152.5 L 448.7,133.7" style="fill:none;fill-rule:evenodd;stroke:#000000;stroke-width:2.0px;stroke-linecap:butt;stroke-linejoin:miter;stroke-opacity:1"/>
<path class="bond-0 atom-0 atom-1" d="M 449.9,150.9 L 445.9,137.7" style="fill:none;fill-rule:evenodd;stroke:#000000;stroke-width:2.0px;stroke-linecap:butt;stroke-linejoin:miter;stroke-opacity:1"/>
<path class="bond-1 atom-0 atom-2" d="M 454.6,152.5 L 441.2,166.9" style="fill:none;fill-rule:evenodd;stroke:#000000;stroke-width:2.0px;stroke-linecap:butt;stroke-linejoin:miter;stroke-opacity:1"/>
<path class="bond-2 atom-0 atom-3" d="M 454.6,152.5 L 473.7,156.8" style="fill:none;fill-rule:evenodd;stroke:#000000;stroke-width:2.0px;stroke-linecap:butt;stroke-linejoin:miter;stroke-opacity:1"/>
<path class="bond-3 atom-1 atom-4" d="M 448.7,133.7 L 429.6,129.4" style="fill:none;fill-rule:evenodd;stroke:#000000;stroke-width:2.0px;stroke-linecap:butt;stroke-linejoin:miter;stroke-opacity:1"/>
<path class="bond-4 atom-1 atom-25" d="M 448.7,133.7 L 459.3,122.3" style="fill:none;fill-rule:evenodd;stroke:#000000;stroke-width:2.0px;stroke-linecap:butt;stroke-linejoin:miter;stroke-opacity:1"/>
<path class="bond-5 atom-2 atom-5" d="M 441.2,166.9 L 422.1,162.6" style="fill:none;fill-rule:evenodd;stroke:#000000;stroke-width:2.0px;stroke-linecap:butt;stroke-linejoin:miter;stroke-opacity:1"/>
<path class="bond-5 atom-2 atom-5" d="M 439.2,162.5 L 425.8,159.4" style="fill:none;fill-rule:evenodd;stroke:#000000;stroke-width:2.0px;stroke-linecap:butt;stroke-linejoin:miter;stroke-opacity:1"/>
<path class="bond-6 atom-2 atom-26" d="M 441.2,166.9 L 446.0,182.3" style="fill:none;fill-rule:evenodd;stroke:#000000;stroke-width:2.0px;stroke-linecap:butt;stroke-linejoin:miter;stroke-opacity:1"/>
<path class="bond-7 atom-3 atom-7" d="M 473.7,156.8 L 476.1,164.5" style="fill:none;fill-rule:evenodd;stroke:#000000;stroke-width:2.0px;stroke-linecap:butt;stroke-linejoin:miter;stroke-opacity:1"/>
<path class="bond-7 atom-3 atom-7" d="M 476.1,164.5 L 478.5,172.2" style="fill:none;fill-rule:evenodd;stroke:#0000FF;stroke-width:2.0px;stroke-linecap:butt;stroke-linejoin:miter;stroke-opacity:1"/>
<path class="bond-8 atom-3 atom-9" d="M 473.7,156.8 L 479.0,151.1" style="fill:none;fill-rule:evenodd;stroke:#000000;stroke-width:2.0px;stroke-linecap:butt;stroke-linejoin:miter;stroke-opacity:1"/>
<path class="bond-8 atom-3 atom-9" d="M 479.0,151.1 L 484.3,145.4" style="fill:none;fill-rule:evenodd;stroke:#0000FF;stroke-width:2.0px;stroke-linecap:butt;stroke-linejoin:miter;stroke-opacity:1"/>
<path class="bond-8 atom-3 atom-9" d="M 478.2,157.8 L 481.9,153.8" style="fill:none;fill-rule:evenodd;stroke:#000000;stroke-width:2.0px;stroke-linecap:butt;stroke-linejoin:miter;stroke-opacity:1"/>
<path class="bond-8 atom-3 atom-9" d="M 481.9,153.8 L 485.6,149.8" style="fill:none;fill-rule:evenodd;stroke:#0000FF;stroke-width:2.0px;stroke-linecap:butt;stroke-linejoin:miter;stroke-opacity:1"/>
<path class="bond-9 atom-4 atom-6" d="M 429.6,129.4 L 416.2,143.8" style="fill:none;fill-rule:evenodd;stroke:#000000;stroke-width:2.0px;stroke-linecap:butt;stroke-linejoin:miter;stroke-opacity:1"/>
<path class="bond-9 atom-4 atom-6" d="M 430.5,134.2 L 421.1,144.3" style="fill:none;fill-rule:evenodd;stroke:#000000;stroke-width:2.0px;stroke-linecap:butt;stroke-linejoin:miter;stroke-opacity:1"/>
<path class="bond-10 atom-4 atom-27" d="M 429.6,129.4 L 427.2,121.7" style="fill:none;fill-rule:evenodd;stroke:#000000;stroke-width:2.0px;stroke-linecap:butt;stroke-linejoin:miter;stroke-opacity:1"/>
<path class="bond-11 atom-5 atom-6" d="M 422.1,162.6 L 416.2,143.8" style="fill:none;fill-rule:evenodd;stroke:#000000;stroke-width:2.0px;stroke-linecap:butt;stroke-linejoin:miter;stroke-opacity:1"/>
<path class="bond-12 atom-5 atom-28" d="M 422.1,162.6 L 417.0,168.1" style="fill:none;fill-rule:evenodd;stroke:#000000;stroke-width:2.0px;stroke-linecap:butt;stroke-linejoin:miter;stroke-opacity:1"/>
<path class="bond-13 atom-6 atom-17" d="M 416.2,143.8 L 397.1,139.5" style="fill:none;fill-rule:evenodd;stroke:#000000;stroke-width:2.0px;stroke-linecap:butt;stroke-linejoin:miter;stroke-opacity:1"/>
<path class="bond-14 atom-7 atom-8" d="M 482.3,176.2 L 490.5,178.1" style="fill:none;fill-rule:evenodd;stroke:#0000FF;stroke-width:2.0px;stroke-linecap:butt;stroke-linejoin:miter;stroke-opacity:1"/>
<path class="bond-14 atom-7 atom-8" d="M 490.5,178.1 L 498.7,180.0" style="fill:none;fill-rule:evenodd;stroke:#000000;stroke-width:2.0px;stroke-linecap:butt;stroke-linejoin:miter;stroke-opacity:1"/>
<path class="bond-15 atom-7 atom-29" d="M 476.8,178.6 L 472.9,182.8" style="fill:none;fill-rule:evenodd;stroke:#0000FF;stroke-width:2.0px;stroke-linecap:butt;stroke-linejoin:miter;stroke-opacity:1"/>
<path class="bond-15 atom-7 atom-29" d="M 472.9,182.8 L 469.0,187.0" style="fill:none;fill-rule:evenodd;stroke:#000000;stroke-width:2.0px;stroke-linecap:butt;stroke-linejoin:miter;stroke-opacity:1"/>
<path class="bond-16 atom-8 atom-11" d="M 498.7,180.0 L 512.1,165.5" style="fill:none;fill-rule:evenodd;stroke:#000000;stroke-width:2.0px;stroke-linecap:butt;stroke-linejoin:miter;stroke-opacity:1"/>
<path class="bond-17 atom-8 atom-16" d="M 500.6,179.4 L 503.0,187.0" style="fill:none;fill-rule:evenodd;stroke:#000000;stroke-width:2.0px;stroke-linecap:butt;stroke-linejoin:miter;stroke-opacity:1"/>
<path class="bond-17 atom-8 atom-16" d="M 503.0,187.0 L 505.4,194.7" style="fill:none;fill-rule:evenodd;stroke:#FF0000;stroke-width:2.0px;stroke-linecap:butt;stroke-linejoin:miter;stroke-opacity:1"/>
<path class="bond-17 atom-8 atom-16" d="M 496.8,180.5 L 499.2,188.2" style="fill:none;fill-rule:evenodd;stroke:#000000;stroke-width:2.0px;stroke-linecap:butt;stroke-linejoin:miter;stroke-opacity:1"/>
<path class="bond-17 atom-8 atom-16" d="M 499.2,188.2 L 501.6,195.9" style="fill:none;fill-rule:evenodd;stroke:#FF0000;stroke-width:2.0px;stroke-linecap:butt;stroke-linejoin:miter;stroke-opacity:1"/>
<path class="bond-18 atom-9 atom-10" d="M 489.8,143.0 L 498.0,144.9" style="fill:none;fill-rule:evenodd;stroke:#0000FF;stroke-width:2.0px;stroke-linecap:butt;stroke-linejoin:miter;stroke-opacity:1"/>
<path class="bond-18 atom-9 atom-10" d="M 498.0,144.9 L 506.2,146.8" style="fill:none;fill-rule:evenodd;stroke:#000000;stroke-width:2.0px;stroke-linecap:butt;stroke-linejoin:miter;stroke-opacity:1"/>
<path class="bond-19 atom-10 atom-11" d="M 506.2,146.8 L 512.1,165.5" style="fill:none;fill-rule:evenodd;stroke:#000000;stroke-width:2.0px;stroke-linecap:butt;stroke-linejoin:miter;stroke-opacity:1"/>
<path class="bond-19 atom-10 atom-11" d="M 503.4,150.7 L 507.4,163.9" style="fill:none;fill-rule:evenodd;stroke:#000000;stroke-width:2.0px;stroke-linecap:butt;stroke-linejoin:miter;stroke-opacity:1"/>
<path class="bond-20 atom-10 atom-15" d="M 506.2,146.8 L 519.6,132.3" style="fill:none;fill-rule:evenodd;stroke:#000000;stroke-width:2.0px;stroke-linecap:butt;stroke-linejoin:miter;stroke-opacity:1"/>
<path class="bond-21 atom-11 atom-12" d="M 512.1,165.5 L 531.2,169.9" style="fill:none;fill-rule:evenodd;stroke:#000000;stroke-width:2.0px;stroke-linecap:butt;stroke-linejoin:miter;stroke-opacity:1"/>
<path class="bond-22 atom-12 atom-13" d="M 531.2,169.9 L 544.6,155.4" style="fill:none;fill-rule:evenodd;stroke:#000000;stroke-width:2.0px;stroke-linecap:butt;stroke-linejoin:miter;stroke-opacity:1"/>
<path class="bond-22 atom-12 atom-13" d="M 530.3,165.0 L 539.7,154.9" style="fill:none;fill-rule:evenodd;stroke:#000000;stroke-width:2.0px;stroke-linecap:butt;stroke-linejoin:miter;stroke-opacity:1"/>
<path class="bond-23 atom-12 atom-30" d="M 531.2,169.9 L 536.0,185.2" style="fill:none;fill-rule:evenodd;stroke:#000000;stroke-width:2.0px;stroke-linecap:butt;stroke-linejoin:miter;stroke-opacity:1"/>
<path class="bond-24 atom-13 atom-14" d="M 544.6,155.4 L 538.7,136.7" style="fill:none;fill-rule:evenodd;stroke:#000000;stroke-width:2.0px;stroke-linecap:butt;stroke-linejoin:miter;stroke-opacity:1"/>
<path class="bond-25 atom-13 atom-21" d="M 544.6,155.4 L 553.0,157.4" style="fill:none;fill-rule:evenodd;stroke:#000000;stroke-width:2.0px;stroke-linecap:butt;stroke-linejoin:miter;stroke-opacity:1"/>
<path class="bond-25 atom-13 atom-21" d="M 553.0,157.4 L 561.5,159.3" style="fill:none;fill-rule:evenodd;stroke:#33CCCC;stroke-width:2.0px;stroke-linecap:butt;stroke-linejoin:miter;stroke-opacity:1"/>
<path class="bond-26 atom-14 atom-15" d="M 538.7,136.7 L 519.6,132.3" style="fill:none;fill-rule:evenodd;stroke:#000000;stroke-width:2.0px;stroke-linecap:butt;stroke-linejoin:miter;stroke-opacity:1"/>
<path class="bond-26 atom-14 atom-15" d="M 535.0,139.9 L 521.6,136.8" style="fill:none;fill-rule:evenodd;stroke:#000000;stroke-width:2.0px;stroke-linecap:butt;stroke-linejoin:miter;stroke-opacity:1"/>
<path class="bond-27 atom-14 atom-31" d="M 538.7,136.7 L 549.3,125.3" style="fill:none;fill-rule:evenodd;stroke:#000000;stroke-width:2.0px;stroke-linecap:butt;stroke-linejoin:miter;stroke-opacity:1"/>
<path class="bond-28 atom-15 atom-32" d="M 519.6,132.3 L 514.8,117.0" style="fill:none;fill-rule:evenodd;stroke:#000000;stroke-width:2.0px;stroke-linecap:butt;stroke-linejoin:miter;stroke-opacity:1"/>
<path class="bond-29 atom-17 atom-18" d="M 397.1,139.5 L 392.7,158.7" style="fill:none;fill-rule:evenodd;stroke:#000000;stroke-width:2.0px;stroke-linecap:butt;stroke-linejoin:miter;stroke-opacity:1"/>
<path class="bond-30 atom-17 atom-19" d="M 397.1,139.5 L 401.4,120.3" style="fill:none;fill-rule:evenodd;stroke:#000000;stroke-width:2.0px;stroke-linecap:butt;stroke-linejoin:miter;stroke-opacity:1"/>
<path class="bond-31 atom-17 atom-20" d="M 397.1,139.5 L 389.1,137.7" style="fill:none;fill-rule:evenodd;stroke:#000000;stroke-width:2.0px;stroke-linecap:butt;stroke-linejoin:miter;stroke-opacity:1"/>
<path class="bond-31 atom-17 atom-20" d="M 389.1,137.7 L 381.1,135.9" style="fill:none;fill-rule:evenodd;stroke:#FF0000;stroke-width:2.0px;stroke-linecap:butt;stroke-linejoin:miter;stroke-opacity:1"/>
<path class="bond-32 atom-18 atom-33" d="M 392.7,158.7 L 400.3,162.5" style="fill:none;fill-rule:evenodd;stroke:#000000;stroke-width:2.0px;stroke-linecap:butt;stroke-linejoin:miter;stroke-opacity:1"/>
<path class="bond-33 atom-18 atom-34" d="M 392.7,158.7 L 384.0,159.9" style="fill:none;fill-rule:evenodd;stroke:#000000;stroke-width:2.0px;stroke-linecap:butt;stroke-linejoin:miter;stroke-opacity:1"/>
<path class="bond-34 atom-18 atom-35" d="M 392.7,158.7 L 389.2,174.4" style="fill:none;fill-rule:evenodd;stroke:#000000;stroke-width:2.0px;stroke-linecap:butt;stroke-linejoin:miter;stroke-opacity:1"/>
<path class="bond-35 atom-19 atom-36" d="M 401.4,120.3 L 385.0,116.6" style="fill:none;fill-rule:evenodd;stroke:#000000;stroke-width:2.0px;stroke-linecap:butt;stroke-linejoin:miter;stroke-opacity:1"/>
<path class="bond-36 atom-19 atom-37" d="M 401.4,120.3 L 410.2,120.1" style="fill:none;fill-rule:evenodd;stroke:#000000;stroke-width:2.0px;stroke-linecap:butt;stroke-linejoin:miter;stroke-opacity:1"/>
<path class="bond-37 atom-19 atom-38" d="M 401.4,120.3 L 405.0,104.6" style="fill:none;fill-rule:evenodd;stroke:#000000;stroke-width:2.0px;stroke-linecap:butt;stroke-linejoin:miter;stroke-opacity:1"/>
<path class="bond-38 atom-20 atom-22" d="M 374.7,138.6 L 369.6,144.1" style="fill:none;fill-rule:evenodd;stroke:#FF0000;stroke-width:2.0px;stroke-linecap:butt;stroke-linejoin:miter;stroke-opacity:1"/>
<path class="bond-38 atom-20 atom-22" d="M 369.6,144.1 L 364.6,149.6" style="fill:none;fill-rule:evenodd;stroke:#000000;stroke-width:2.0px;stroke-linecap:butt;stroke-linejoin:miter;stroke-opacity:1"/>
<path class="bond-39 atom-22 atom-23" d="M 364.6,149.6 L 351.2,164.0" style="fill:none;fill-rule:evenodd;stroke:#000000;stroke-width:2.0px;stroke-linecap:butt;stroke-linejoin:miter;stroke-opacity:1"/>
<path class="bond-40 atom-22 atom-39" d="M 364.6,149.6 L 352.9,138.8" style="fill:none;fill-rule:evenodd;stroke:#000000;stroke-width:2.0px;stroke-linecap:butt;stroke-linejoin:miter;stroke-opacity:1"/>
<path class="bond-41 atom-22 atom-40" d="M 364.6,149.6 L 369.3,155.1" style="fill:none;fill-rule:evenodd;stroke:#000000;stroke-width:2.0px;stroke-linecap:butt;stroke-linejoin:miter;stroke-opacity:1"/>
<path class="bond-42 atom-23 atom-24" d="M 351.2,164.0 L 346.1,169.5" style="fill:none;fill-rule:evenodd;stroke:#000000;stroke-width:2.0px;stroke-linecap:butt;stroke-linejoin:miter;stroke-opacity:1"/>
<path class="bond-42 atom-23 atom-24" d="M 346.1,169.5 L 341.0,175.0" style="fill:none;fill-rule:evenodd;stroke:#FF0000;stroke-width:2.0px;stroke-linecap:butt;stroke-linejoin:miter;stroke-opacity:1"/>
<path class="bond-43 atom-23 atom-41" d="M 351.2,164.0 L 362.9,174.8" style="fill:none;fill-rule:evenodd;stroke:#000000;stroke-width:2.0px;stroke-linecap:butt;stroke-linejoin:miter;stroke-opacity:1"/>
<path class="bond-44 atom-23 atom-42" d="M 351.2,164.0 L 339.6,153.2" style="fill:none;fill-rule:evenodd;stroke:#000000;stroke-width:2.0px;stroke-linecap:butt;stroke-linejoin:miter;stroke-opacity:1"/>
<path class="bond-45 atom-24 atom-43" d="M 339.0,181.9 L 340.8,187.9" style="fill:none;fill-rule:evenodd;stroke:#FF0000;stroke-width:2.0px;stroke-linecap:butt;stroke-linejoin:miter;stroke-opacity:1"/>
<path class="bond-45 atom-24 atom-43" d="M 340.8,187.9 L 342.6,193.8" style="fill:none;fill-rule:evenodd;stroke:#000000;stroke-width:2.0px;stroke-linecap:butt;stroke-linejoin:miter;stroke-opacity:1"/>
<path class="atom-7" d="M 478.3 172.8 L 480.1 175.8 Q 480.3 176.1, 480.6 176.6 Q 480.9 177.1, 480.9 177.2 L 480.9 172.8 L 481.7 172.8 L 481.7 178.4 L 480.9 178.4 L 478.9 175.2 Q 478.7 174.8, 478.5 174.4 Q 478.2 173.9, 478.2 173.8 L 478.2 178.4 L 477.4 178.4 L 477.4 172.8 L 478.3 172.8 " fill="#0000FF"/>
<path class="atom-9" d="M 485.8 139.6 L 487.7 142.6 Q 487.8 142.9, 488.1 143.4 Q 488.4 143.9, 488.4 144.0 L 488.4 139.6 L 489.2 139.6 L 489.2 145.2 L 488.4 145.2 L 486.5 142.0 Q 486.2 141.6, 486.0 141.2 Q 485.8 140.7, 485.7 140.6 L 485.7 145.2 L 485.0 145.2 L 485.0 139.6 L 485.8 139.6 " fill="#0000FF"/>
<path class="atom-16" d="M 502.0 198.7 Q 502.0 197.4, 502.6 196.7 Q 503.3 195.9, 504.5 195.9 Q 505.8 195.9, 506.4 196.7 Q 507.1 197.4, 507.1 198.7 Q 507.1 200.1, 506.4 200.9 Q 505.8 201.6, 504.5 201.6 Q 503.3 201.6, 502.6 200.9 Q 502.0 200.1, 502.0 198.7 M 504.5 201.0 Q 505.4 201.0, 505.8 200.4 Q 506.3 199.9, 506.3 198.7 Q 506.3 197.6, 505.8 197.1 Q 505.4 196.5, 504.5 196.5 Q 503.7 196.5, 503.2 197.1 Q 502.8 197.6, 502.8 198.7 Q 502.8 199.9, 503.2 200.4 Q 503.7 201.0, 504.5 201.0 " fill="#FF0000"/>
<path class="atom-20" d="M 375.3 135.2 Q 375.3 133.8, 376.0 133.1 Q 376.7 132.3, 377.9 132.3 Q 379.1 132.3, 379.8 133.1 Q 380.5 133.8, 380.5 135.2 Q 380.5 136.5, 379.8 137.3 Q 379.1 138.0, 377.9 138.0 Q 376.7 138.0, 376.0 137.3 Q 375.3 136.5, 375.3 135.2 M 377.9 137.4 Q 378.8 137.4, 379.2 136.9 Q 379.7 136.3, 379.7 135.2 Q 379.7 134.1, 379.2 133.5 Q 378.8 133.0, 377.9 133.0 Q 377.1 133.0, 376.6 133.5 Q 376.1 134.1, 376.1 135.2 Q 376.1 136.3, 376.6 136.9 Q 377.1 137.4, 377.9 137.4 " fill="#FF0000"/>
<path class="atom-21" d="M 562.1 157.0 L 565.4 157.0 L 565.4 157.6 L 562.8 157.6 L 562.8 159.3 L 565.1 159.3 L 565.1 160.0 L 562.8 160.0 L 562.8 162.6 L 562.1 162.6 L 562.1 157.0 " fill="#33CCCC"/>
<path class="atom-24" d="M 335.3 178.4 Q 335.3 177.1, 336.0 176.4 Q 336.6 175.6, 337.9 175.6 Q 339.1 175.6, 339.8 176.4 Q 340.4 177.1, 340.4 178.4 Q 340.4 179.8, 339.8 180.6 Q 339.1 181.3, 337.9 181.3 Q 336.7 181.3, 336.0 180.6 Q 335.3 179.8, 335.3 178.4 M 337.9 180.7 Q 338.7 180.7, 339.2 180.1 Q 339.6 179.6, 339.6 178.4 Q 339.6 177.4, 339.2 176.8 Q 338.7 176.2, 337.9 176.2 Q 337.0 176.2, 336.6 176.8 Q 336.1 177.3, 336.1 178.4 Q 336.1 179.6, 336.6 180.1 Q 337.0 180.7, 337.9 180.7 " fill="#FF0000"/>
<path class="atom-25" d="M 459.9 116.5 L 460.7 116.5 L 460.7 118.9 L 463.5 118.9 L 463.5 116.5 L 464.3 116.5 L 464.3 122.1 L 463.5 122.1 L 463.5 119.5 L 460.7 119.5 L 460.7 122.1 L 459.9 122.1 L 459.9 116.5 " fill="#000000"/>
<path class="atom-26" d="M 444.9 182.9 L 445.6 182.9 L 445.6 185.3 L 448.5 185.3 L 448.5 182.9 L 449.2 182.9 L 449.2 188.5 L 448.5 188.5 L 448.5 185.9 L 445.6 185.9 L 445.6 188.5 L 444.9 188.5 L 444.9 182.9 " fill="#000000"/>
<path class="atom-27" d="M 424.0 115.5 L 424.7 115.5 L 424.7 117.9 L 427.6 117.9 L 427.6 115.5 L 428.3 115.5 L 428.3 121.1 L 427.6 121.1 L 427.6 118.5 L 424.7 118.5 L 424.7 121.1 L 424.0 121.1 L 424.0 115.5 " fill="#000000"/>
<path class="atom-28" d="M 412.0 168.3 L 412.8 168.3 L 412.8 170.7 L 415.6 170.7 L 415.6 168.3 L 416.4 168.3 L 416.4 173.9 L 415.6 173.9 L 415.6 171.3 L 412.8 171.3 L 412.8 173.9 L 412.0 173.9 L 412.0 168.3 " fill="#000000"/>
<path class="atom-29" d="M 464.0 187.3 L 464.8 187.3 L 464.8 189.6 L 467.6 189.6 L 467.6 187.3 L 468.4 187.3 L 468.4 192.8 L 467.6 192.8 L 467.6 190.3 L 464.8 190.3 L 464.8 192.8 L 464.0 192.8 L 464.0 187.3 " fill="#000000"/>
<path class="atom-30" d="M 534.9 185.9 L 535.6 185.9 L 535.6 188.2 L 538.5 188.2 L 538.5 185.9 L 539.2 185.9 L 539.2 191.4 L 538.5 191.4 L 538.5 188.8 L 535.6 188.8 L 535.6 191.4 L 534.9 191.4 L 534.9 185.9 " fill="#000000"/>
<path class="atom-31" d="M 549.9 119.5 L 550.7 119.5 L 550.7 121.8 L 553.5 121.8 L 553.5 119.5 L 554.3 119.5 L 554.3 125.0 L 553.5 125.0 L 553.5 122.5 L 550.7 122.5 L 550.7 125.0 L 549.9 125.0 L 549.9 119.5 " fill="#000000"/>
<path class="atom-32" d="M 511.6 110.8 L 512.3 110.8 L 512.3 113.1 L 515.2 113.1 L 515.2 110.8 L 515.9 110.8 L 515.9 116.3 L 515.2 116.3 L 515.2 113.8 L 512.3 113.8 L 512.3 116.3 L 511.6 116.3 L 511.6 110.8 " fill="#000000"/>
<path class="atom-33" d="M 400.9 161.1 L 401.7 161.1 L 401.7 163.5 L 404.5 163.5 L 404.5 161.1 L 405.3 161.1 L 405.3 166.7 L 404.5 166.7 L 404.5 164.1 L 401.7 164.1 L 401.7 166.7 L 400.9 166.7 L 400.9 161.1 " fill="#000000"/>
<path class="atom-34" d="M 379.1 157.5 L 379.8 157.5 L 379.8 159.9 L 382.7 159.9 L 382.7 157.5 L 383.4 157.5 L 383.4 163.1 L 382.7 163.1 L 382.7 160.5 L 379.8 160.5 L 379.8 163.1 L 379.1 163.1 L 379.1 157.5 " fill="#000000"/>
<path class="atom-35" d="M 386.2 175.0 L 387.0 175.0 L 387.0 177.4 L 389.8 177.4 L 389.8 175.0 L 390.6 175.0 L 390.6 180.6 L 389.8 180.6 L 389.8 178.0 L 387.0 178.0 L 387.0 180.6 L 386.2 180.6 L 386.2 175.0 " fill="#000000"/>
<path class="atom-36" d="M 380.1 113.2 L 380.8 113.2 L 380.8 115.6 L 383.7 115.6 L 383.7 113.2 L 384.4 113.2 L 384.4 118.8 L 383.7 118.8 L 383.7 116.2 L 380.8 116.2 L 380.8 118.8 L 380.1 118.8 L 380.1 113.2 " fill="#000000"/>
<path class="atom-37" d="M 410.8 117.3 L 411.6 117.3 L 411.6 119.7 L 414.4 119.7 L 414.4 117.3 L 415.2 117.3 L 415.2 122.9 L 414.4 122.9 L 414.4 120.3 L 411.6 120.3 L 411.6 122.9 L 410.8 122.9 L 410.8 117.3 " fill="#000000"/>
<path class="atom-38" d="M 403.6 98.4 L 404.3 98.4 L 404.3 100.7 L 407.2 100.7 L 407.2 98.4 L 407.9 98.4 L 407.9 103.9 L 407.2 103.9 L 407.2 101.4 L 404.3 101.4 L 404.3 103.9 L 403.6 103.9 L 403.6 98.4 " fill="#000000"/>
<path class="atom-39" d="M 348.0 133.5 L 348.7 133.5 L 348.7 135.8 L 351.6 135.8 L 351.6 133.5 L 352.3 133.5 L 352.3 139.0 L 351.6 139.0 L 351.6 136.4 L 348.7 136.4 L 348.7 139.0 L 348.0 139.0 L 348.0 133.5 " fill="#000000"/>
<path class="atom-40" d="M 369.9 155.7 L 370.6 155.7 L 370.6 158.0 L 373.5 158.0 L 373.5 155.7 L 374.2 155.7 L 374.2 161.2 L 373.5 161.2 L 373.5 158.6 L 370.6 158.6 L 370.6 161.2 L 369.9 161.2 L 369.9 155.7 " fill="#000000"/>
<path class="atom-41" d="M 363.5 174.6 L 364.2 174.6 L 364.2 176.9 L 367.1 176.9 L 367.1 174.6 L 367.8 174.6 L 367.8 180.1 L 367.1 180.1 L 367.1 177.6 L 364.2 177.6 L 364.2 180.1 L 363.5 180.1 L 363.5 174.6 " fill="#000000"/>
<path class="atom-42" d="M 334.6 147.9 L 335.4 147.9 L 335.4 150.2 L 338.2 150.2 L 338.2 147.9 L 339.0 147.9 L 339.0 153.4 L 338.2 153.4 L 338.2 150.9 L 335.4 150.9 L 335.4 153.4 L 334.6 153.4 L 334.6 147.9 " fill="#000000"/>
<path class="atom-43" d="M 341.5 194.4 L 342.3 194.4 L 342.3 196.8 L 345.1 196.8 L 345.1 194.4 L 345.9 194.4 L 345.9 200.0 L 345.1 200.0 L 345.1 197.4 L 342.3 197.4 L 342.3 200.0 L 341.5 200.0 L 341.5 194.4 " fill="#000000"/>
<text x="300" y="20" font-size="20" font-family="sans-serif" font-weight="normal" letter-spacing="0" text-anchor="middle" fill="black">tnks2: 5b -&gt; 5n</text><text x="300" y="35" font-size="15" font-family="sans-serif" font-weight="normal" letter-spacing="0" text-anchor="middle" fill="black"></text><text x="150" y="285" font-size="15" font-family="sans-serif" font-weight="normal" letter-spacing="0" text-anchor="middle" fill="black">5b</text><text x="450" y="285" font-size="15" font-family="sans-serif" font-weight="normal" letter-spacing="0" text-anchor="middle" fill="black">5n</text></svg>
