<?xml version='1.0' encoding='ASCII' standalone='yes'?>
<svg xmlns="http://www.w3.org/2000/svg" xmlns:rdkit="http://www.rdkit.org/xml" xmlns:xlink="http://www.w3.org/1999/xlink" version="1.1" baseProfile="full" xml:space="preserve" width="600px" height="300px" viewBox="0 0 600 300">
<!-- END OF HEADER -->
<rect style="opacity:1.0;fill:#FFFFFF;stroke:none" width="600.0" height="300.0" x="0.0" y="0.0"> </rect>
<path class="bond-0 atom-0 atom-1" d="M 87.8,178.3 L 96.7,160.2" style="fill:none;fill-rule:evenodd;stroke:#000000;stroke-width:2.0px;stroke-linecap:butt;stroke-linejoin:miter;stroke-opacity:1"/>
<path class="bond-0 atom-0 atom-1" d="M 85.5,173.9 L 91.7,161.2" style="fill:none;fill-rule:evenodd;stroke:#000000;stroke-width:2.0px;stroke-linecap:butt;stroke-linejoin:miter;stroke-opacity:1"/>
<path class="bond-1 atom-0 atom-2" d="M 87.8,178.3 L 67.7,179.7" style="fill:none;fill-rule:evenodd;stroke:#000000;stroke-width:2.0px;stroke-linecap:butt;stroke-linejoin:miter;stroke-opacity:1"/>
<path class="bond-2 atom-0 atom-17" d="M 87.8,178.3 L 92.3,185.0" style="fill:none;fill-rule:evenodd;stroke:#000000;stroke-width:2.0px;stroke-linecap:butt;stroke-linejoin:miter;stroke-opacity:1"/>
<path class="bond-2 atom-0 atom-17" d="M 92.3,185.0 L 96.7,191.6" style="fill:none;fill-rule:evenodd;stroke:#33CCCC;stroke-width:2.0px;stroke-linecap:butt;stroke-linejoin:miter;stroke-opacity:1"/>
<path class="bond-3 atom-1 atom-3" d="M 96.7,160.2 L 85.4,143.5" style="fill:none;fill-rule:evenodd;stroke:#000000;stroke-width:2.0px;stroke-linecap:butt;stroke-linejoin:miter;stroke-opacity:1"/>
<path class="bond-4 atom-1 atom-4" d="M 96.7,160.2 L 105.3,159.6" style="fill:none;fill-rule:evenodd;stroke:#000000;stroke-width:2.0px;stroke-linecap:butt;stroke-linejoin:miter;stroke-opacity:1"/>
<path class="bond-4 atom-1 atom-4" d="M 105.3,159.6 L 114.0,159.1" style="fill:none;fill-rule:evenodd;stroke:#0000FF;stroke-width:2.0px;stroke-linecap:butt;stroke-linejoin:miter;stroke-opacity:1"/>
<path class="bond-5 atom-2 atom-5" d="M 67.7,179.7 L 56.4,163.0" style="fill:none;fill-rule:evenodd;stroke:#000000;stroke-width:2.0px;stroke-linecap:butt;stroke-linejoin:miter;stroke-opacity:1"/>
<path class="bond-5 atom-2 atom-5" d="M 69.3,175.0 L 61.5,163.2" style="fill:none;fill-rule:evenodd;stroke:#000000;stroke-width:2.0px;stroke-linecap:butt;stroke-linejoin:miter;stroke-opacity:1"/>
<path class="bond-6 atom-2 atom-26" d="M 67.7,179.7 L 60.5,194.3" style="fill:none;fill-rule:evenodd;stroke:#000000;stroke-width:2.0px;stroke-linecap:butt;stroke-linejoin:miter;stroke-opacity:1"/>
<path class="bond-7 atom-3 atom-6" d="M 85.4,143.5 L 65.3,144.9" style="fill:none;fill-rule:evenodd;stroke:#000000;stroke-width:2.0px;stroke-linecap:butt;stroke-linejoin:miter;stroke-opacity:1"/>
<path class="bond-7 atom-3 atom-6" d="M 82.7,147.7 L 68.6,148.7" style="fill:none;fill-rule:evenodd;stroke:#000000;stroke-width:2.0px;stroke-linecap:butt;stroke-linejoin:miter;stroke-opacity:1"/>
<path class="bond-8 atom-3 atom-7" d="M 85.4,143.5 L 94.3,125.4" style="fill:none;fill-rule:evenodd;stroke:#000000;stroke-width:2.0px;stroke-linecap:butt;stroke-linejoin:miter;stroke-opacity:1"/>
<path class="bond-9 atom-4 atom-10" d="M 118.5,155.4 L 122.1,148.1" style="fill:none;fill-rule:evenodd;stroke:#0000FF;stroke-width:2.0px;stroke-linecap:butt;stroke-linejoin:miter;stroke-opacity:1"/>
<path class="bond-9 atom-4 atom-10" d="M 122.1,148.1 L 125.7,140.8" style="fill:none;fill-rule:evenodd;stroke:#000000;stroke-width:2.0px;stroke-linecap:butt;stroke-linejoin:miter;stroke-opacity:1"/>
<path class="bond-9 atom-4 atom-10" d="M 116.0,151.4 L 118.5,146.3" style="fill:none;fill-rule:evenodd;stroke:#0000FF;stroke-width:2.0px;stroke-linecap:butt;stroke-linejoin:miter;stroke-opacity:1"/>
<path class="bond-9 atom-4 atom-10" d="M 118.5,146.3 L 121.0,141.2" style="fill:none;fill-rule:evenodd;stroke:#000000;stroke-width:2.0px;stroke-linecap:butt;stroke-linejoin:miter;stroke-opacity:1"/>
<path class="bond-10 atom-5 atom-6" d="M 56.4,163.0 L 65.3,144.9" style="fill:none;fill-rule:evenodd;stroke:#000000;stroke-width:2.0px;stroke-linecap:butt;stroke-linejoin:miter;stroke-opacity:1"/>
<path class="bond-11 atom-5 atom-18" d="M 56.4,163.0 L 47.5,163.6" style="fill:none;fill-rule:evenodd;stroke:#000000;stroke-width:2.0px;stroke-linecap:butt;stroke-linejoin:miter;stroke-opacity:1"/>
<path class="bond-11 atom-5 atom-18" d="M 47.5,163.6 L 38.7,164.2" style="fill:none;fill-rule:evenodd;stroke:#33CCCC;stroke-width:2.0px;stroke-linecap:butt;stroke-linejoin:miter;stroke-opacity:1"/>
<path class="bond-12 atom-6 atom-27" d="M 65.3,144.9 L 56.4,131.6" style="fill:none;fill-rule:evenodd;stroke:#000000;stroke-width:2.0px;stroke-linecap:butt;stroke-linejoin:miter;stroke-opacity:1"/>
<path class="bond-13 atom-7 atom-8" d="M 94.3,125.4 L 103.0,124.8" style="fill:none;fill-rule:evenodd;stroke:#000000;stroke-width:2.0px;stroke-linecap:butt;stroke-linejoin:miter;stroke-opacity:1"/>
<path class="bond-13 atom-7 atom-8" d="M 103.0,124.8 L 111.6,124.2" style="fill:none;fill-rule:evenodd;stroke:#0000FF;stroke-width:2.0px;stroke-linecap:butt;stroke-linejoin:miter;stroke-opacity:1"/>
<path class="bond-14 atom-7 atom-9" d="M 92.6,126.5 L 88.2,120.0" style="fill:none;fill-rule:evenodd;stroke:#000000;stroke-width:2.0px;stroke-linecap:butt;stroke-linejoin:miter;stroke-opacity:1"/>
<path class="bond-14 atom-7 atom-9" d="M 88.2,120.0 L 83.8,113.4" style="fill:none;fill-rule:evenodd;stroke:#FF0000;stroke-width:2.0px;stroke-linecap:butt;stroke-linejoin:miter;stroke-opacity:1"/>
<path class="bond-14 atom-7 atom-9" d="M 96.0,124.3 L 91.6,117.7" style="fill:none;fill-rule:evenodd;stroke:#000000;stroke-width:2.0px;stroke-linecap:butt;stroke-linejoin:miter;stroke-opacity:1"/>
<path class="bond-14 atom-7 atom-9" d="M 91.6,117.7 L 87.2,111.1" style="fill:none;fill-rule:evenodd;stroke:#FF0000;stroke-width:2.0px;stroke-linecap:butt;stroke-linejoin:miter;stroke-opacity:1"/>
<path class="bond-15 atom-8 atom-10" d="M 116.8,127.5 L 121.2,134.1" style="fill:none;fill-rule:evenodd;stroke:#0000FF;stroke-width:2.0px;stroke-linecap:butt;stroke-linejoin:miter;stroke-opacity:1"/>
<path class="bond-15 atom-8 atom-10" d="M 121.2,134.1 L 125.7,140.8" style="fill:none;fill-rule:evenodd;stroke:#000000;stroke-width:2.0px;stroke-linecap:butt;stroke-linejoin:miter;stroke-opacity:1"/>
<path class="bond-16 atom-8 atom-28" d="M 116.1,120.5 L 118.9,115.0" style="fill:none;fill-rule:evenodd;stroke:#0000FF;stroke-width:2.0px;stroke-linecap:butt;stroke-linejoin:miter;stroke-opacity:1"/>
<path class="bond-16 atom-8 atom-28" d="M 118.9,115.0 L 121.6,109.4" style="fill:none;fill-rule:evenodd;stroke:#000000;stroke-width:2.0px;stroke-linecap:butt;stroke-linejoin:miter;stroke-opacity:1"/>
<path class="bond-17 atom-10 atom-11" d="M 125.7,140.8 L 145.8,139.4" style="fill:none;fill-rule:evenodd;stroke:#000000;stroke-width:2.0px;stroke-linecap:butt;stroke-linejoin:miter;stroke-opacity:1"/>
<path class="bond-18 atom-11 atom-12" d="M 145.8,139.4 L 157.0,156.1" style="fill:none;fill-rule:evenodd;stroke:#000000;stroke-width:2.0px;stroke-linecap:butt;stroke-linejoin:miter;stroke-opacity:1"/>
<path class="bond-18 atom-11 atom-12" d="M 150.8,139.6 L 158.7,151.4" style="fill:none;fill-rule:evenodd;stroke:#000000;stroke-width:2.0px;stroke-linecap:butt;stroke-linejoin:miter;stroke-opacity:1"/>
<path class="bond-19 atom-11 atom-16" d="M 145.8,139.4 L 154.7,121.3" style="fill:none;fill-rule:evenodd;stroke:#000000;stroke-width:2.0px;stroke-linecap:butt;stroke-linejoin:miter;stroke-opacity:1"/>
<path class="bond-20 atom-12 atom-13" d="M 157.0,156.1 L 177.2,154.8" style="fill:none;fill-rule:evenodd;stroke:#000000;stroke-width:2.0px;stroke-linecap:butt;stroke-linejoin:miter;stroke-opacity:1"/>
<path class="bond-21 atom-12 atom-29" d="M 157.0,156.1 L 149.9,170.7" style="fill:none;fill-rule:evenodd;stroke:#000000;stroke-width:2.0px;stroke-linecap:butt;stroke-linejoin:miter;stroke-opacity:1"/>
<path class="bond-22 atom-13 atom-14" d="M 177.2,154.8 L 186.0,136.6" style="fill:none;fill-rule:evenodd;stroke:#000000;stroke-width:2.0px;stroke-linecap:butt;stroke-linejoin:miter;stroke-opacity:1"/>
<path class="bond-22 atom-13 atom-14" d="M 174.9,150.3 L 181.1,137.6" style="fill:none;fill-rule:evenodd;stroke:#000000;stroke-width:2.0px;stroke-linecap:butt;stroke-linejoin:miter;stroke-opacity:1"/>
<path class="bond-23 atom-13 atom-30" d="M 177.2,154.8 L 183.6,167.4" style="fill:none;fill-rule:evenodd;stroke:#000000;stroke-width:2.0px;stroke-linecap:butt;stroke-linejoin:miter;stroke-opacity:1"/>
<path class="bond-24 atom-14 atom-15" d="M 186.0,136.6 L 174.8,119.9" style="fill:none;fill-rule:evenodd;stroke:#000000;stroke-width:2.0px;stroke-linecap:butt;stroke-linejoin:miter;stroke-opacity:1"/>
<path class="bond-25 atom-14 atom-19" d="M 186.0,136.6 L 206.1,135.3" style="fill:none;fill-rule:evenodd;stroke:#000000;stroke-width:2.0px;stroke-linecap:butt;stroke-linejoin:miter;stroke-opacity:1"/>
<path class="bond-26 atom-15 atom-16" d="M 174.8,119.9 L 154.7,121.3" style="fill:none;fill-rule:evenodd;stroke:#000000;stroke-width:2.0px;stroke-linecap:butt;stroke-linejoin:miter;stroke-opacity:1"/>
<path class="bond-26 atom-15 atom-16" d="M 172.0,124.1 L 158.0,125.1" style="fill:none;fill-rule:evenodd;stroke:#000000;stroke-width:2.0px;stroke-linecap:butt;stroke-linejoin:miter;stroke-opacity:1"/>
<path class="bond-27 atom-15 atom-31" d="M 174.8,119.9 L 181.9,105.3" style="fill:none;fill-rule:evenodd;stroke:#000000;stroke-width:2.0px;stroke-linecap:butt;stroke-linejoin:miter;stroke-opacity:1"/>
<path class="bond-28 atom-16 atom-32" d="M 154.7,121.3 L 145.8,108.0" style="fill:none;fill-rule:evenodd;stroke:#000000;stroke-width:2.0px;stroke-linecap:butt;stroke-linejoin:miter;stroke-opacity:1"/>
<path class="bond-29 atom-19 atom-20" d="M 206.1,135.3 L 204.0,155.3" style="fill:none;fill-rule:evenodd;stroke:#000000;stroke-width:2.0px;stroke-linecap:butt;stroke-linejoin:miter;stroke-opacity:1"/>
<path class="bond-30 atom-19 atom-24" d="M 206.1,135.3 L 224.6,127.1" style="fill:none;fill-rule:evenodd;stroke:#000000;stroke-width:2.0px;stroke-linecap:butt;stroke-linejoin:miter;stroke-opacity:1"/>
<path class="bond-31 atom-19 atom-33" d="M 206.1,135.3 L 200.4,120.3 L 204.2,119.4 Z" style="fill:#000000;fill-rule:evenodd;fill-opacity:1;stroke:#000000;stroke-width:1.0px;stroke-linecap:butt;stroke-linejoin:miter;stroke-opacity:1;"/>
<path class="bond-32 atom-20 atom-21" d="M 204.0,155.3 L 220.3,167.2" style="fill:none;fill-rule:evenodd;stroke:#000000;stroke-width:2.0px;stroke-linecap:butt;stroke-linejoin:miter;stroke-opacity:1"/>
<path class="bond-33 atom-20 atom-34" d="M 204.0,155.3 L 199.9,167.3" style="fill:none;fill-rule:evenodd;stroke:#000000;stroke-width:2.0px;stroke-linecap:butt;stroke-linejoin:miter;stroke-opacity:1"/>
<path class="bond-34 atom-20 atom-35" d="M 204.0,155.3 L 192.2,154.9" style="fill:none;fill-rule:evenodd;stroke:#000000;stroke-width:2.0px;stroke-linecap:butt;stroke-linejoin:miter;stroke-opacity:1"/>
<path class="bond-35 atom-21 atom-22" d="M 220.3,167.2 L 228.1,163.8" style="fill:none;fill-rule:evenodd;stroke:#000000;stroke-width:2.0px;stroke-linecap:butt;stroke-linejoin:miter;stroke-opacity:1"/>
<path class="bond-35 atom-21 atom-22" d="M 228.1,163.8 L 235.9,160.3" style="fill:none;fill-rule:evenodd;stroke:#0000FF;stroke-width:2.0px;stroke-linecap:butt;stroke-linejoin:miter;stroke-opacity:1"/>
<path class="bond-36 atom-21 atom-36" d="M 220.3,167.2 L 223.4,173.3" style="fill:none;fill-rule:evenodd;stroke:#000000;stroke-width:2.0px;stroke-linecap:butt;stroke-linejoin:miter;stroke-opacity:1"/>
<path class="bond-37 atom-21 atom-37" d="M 220.3,167.2 L 210.1,177.0" style="fill:none;fill-rule:evenodd;stroke:#000000;stroke-width:2.0px;stroke-linecap:butt;stroke-linejoin:miter;stroke-opacity:1"/>
<path class="bond-38 atom-22 atom-23" d="M 239.1,155.5 L 240.0,147.3" style="fill:none;fill-rule:evenodd;stroke:#0000FF;stroke-width:2.0px;stroke-linecap:butt;stroke-linejoin:miter;stroke-opacity:1"/>
<path class="bond-38 atom-22 atom-23" d="M 240.0,147.3 L 240.9,139.0" style="fill:none;fill-rule:evenodd;stroke:#000000;stroke-width:2.0px;stroke-linecap:butt;stroke-linejoin:miter;stroke-opacity:1"/>
<path class="bond-39 atom-22 atom-25" d="M 239.6,162.5 L 241.6,170.6" style="fill:none;fill-rule:evenodd;stroke:#0000FF;stroke-width:2.0px;stroke-linecap:butt;stroke-linejoin:miter;stroke-opacity:1"/>
<path class="bond-39 atom-22 atom-25" d="M 241.6,170.6 L 243.6,178.6" style="fill:none;fill-rule:evenodd;stroke:#000000;stroke-width:2.0px;stroke-linecap:butt;stroke-linejoin:miter;stroke-opacity:1"/>
<path class="bond-40 atom-22 atom-45" d="M 248.7,159.0 L 248.6,157.7" style="fill:none;fill-rule:evenodd;stroke:#0000FF;stroke-width:1.0px;stroke-linecap:butt;stroke-linejoin:miter;stroke-opacity:1"/>
<path class="bond-40 atom-22 atom-45" d="M 252.1,159.4 L 251.9,156.8" style="fill:none;fill-rule:evenodd;stroke:#000000;stroke-width:1.0px;stroke-linecap:butt;stroke-linejoin:miter;stroke-opacity:1"/>
<path class="bond-40 atom-22 atom-45" d="M 255.5,159.9 L 255.2,156.0" style="fill:none;fill-rule:evenodd;stroke:#000000;stroke-width:1.0px;stroke-linecap:butt;stroke-linejoin:miter;stroke-opacity:1"/>
<path class="bond-41 atom-23 atom-24" d="M 240.9,139.0 L 224.6,127.1" style="fill:none;fill-rule:evenodd;stroke:#000000;stroke-width:2.0px;stroke-linecap:butt;stroke-linejoin:miter;stroke-opacity:1"/>
<path class="bond-42 atom-23 atom-38" d="M 240.9,139.0 L 248.0,124.4" style="fill:none;fill-rule:evenodd;stroke:#000000;stroke-width:2.0px;stroke-linecap:butt;stroke-linejoin:miter;stroke-opacity:1"/>
<path class="bond-43 atom-23 atom-39" d="M 240.9,139.0 L 257.4,143.8" style="fill:none;fill-rule:evenodd;stroke:#000000;stroke-width:2.0px;stroke-linecap:butt;stroke-linejoin:miter;stroke-opacity:1"/>
<path class="bond-44 atom-24 atom-40" d="M 224.6,127.1 L 215.7,113.9" style="fill:none;fill-rule:evenodd;stroke:#000000;stroke-width:2.0px;stroke-linecap:butt;stroke-linejoin:miter;stroke-opacity:1"/>
<path class="bond-45 atom-24 atom-41" d="M 224.6,127.1 L 236.2,115.9" style="fill:none;fill-rule:evenodd;stroke:#000000;stroke-width:2.0px;stroke-linecap:butt;stroke-linejoin:miter;stroke-opacity:1"/>
<path class="bond-46 atom-25 atom-42" d="M 243.6,178.6 L 260.3,174.5" style="fill:none;fill-rule:evenodd;stroke:#000000;stroke-width:2.0px;stroke-linecap:butt;stroke-linejoin:miter;stroke-opacity:1"/>
<path class="bond-47 atom-25 atom-43" d="M 243.6,178.6 L 236.4,181.3" style="fill:none;fill-rule:evenodd;stroke:#000000;stroke-width:2.0px;stroke-linecap:butt;stroke-linejoin:miter;stroke-opacity:1"/>
<path class="bond-48 atom-25 atom-44" d="M 243.6,178.6 L 247.6,194.7" style="fill:none;fill-rule:evenodd;stroke:#000000;stroke-width:2.0px;stroke-linecap:butt;stroke-linejoin:miter;stroke-opacity:1"/>
<path class="atom-4" d="M 115.5 156.0 L 117.4 159.0 Q 117.6 159.3, 117.9 159.9 Q 118.2 160.4, 118.2 160.4 L 118.2 156.0 L 119.0 156.0 L 119.0 161.7 L 118.2 161.7 L 116.2 158.4 Q 115.9 158.0, 115.7 157.6 Q 115.4 157.1, 115.4 157.0 L 115.4 161.7 L 114.6 161.7 L 114.6 156.0 L 115.5 156.0 " fill="#0000FF"/>
<path class="atom-8" d="M 113.2 121.2 L 115.0 124.2 Q 115.2 124.5, 115.5 125.0 Q 115.8 125.6, 115.8 125.6 L 115.8 121.2 L 116.6 121.2 L 116.6 126.9 L 115.8 126.9 L 113.8 123.6 Q 113.6 123.2, 113.3 122.7 Q 113.1 122.3, 113.0 122.2 L 113.0 126.9 L 112.3 126.9 L 112.3 121.2 L 113.2 121.2 " fill="#0000FF"/>
<path class="atom-9" d="M 80.4 108.7 Q 80.4 107.3, 81.1 106.5 Q 81.8 105.8, 83.1 105.8 Q 84.3 105.8, 85.0 106.5 Q 85.7 107.3, 85.7 108.7 Q 85.7 110.1, 85.0 110.8 Q 84.3 111.6, 83.1 111.6 Q 81.8 111.6, 81.1 110.8 Q 80.4 110.1, 80.4 108.7 M 83.1 111.0 Q 83.9 111.0, 84.4 110.4 Q 84.9 109.8, 84.9 108.7 Q 84.9 107.5, 84.4 107.0 Q 83.9 106.4, 83.1 106.4 Q 82.2 106.4, 81.7 107.0 Q 81.2 107.5, 81.2 108.7 Q 81.2 109.8, 81.7 110.4 Q 82.2 111.0, 83.1 111.0 " fill="#FF0000"/>
<path class="atom-17" d="M 97.3 192.2 L 100.7 192.2 L 100.7 192.9 L 98.1 192.9 L 98.1 194.6 L 100.5 194.6 L 100.5 195.3 L 98.1 195.3 L 98.1 197.9 L 97.3 197.9 L 97.3 192.2 " fill="#33CCCC"/>
<path class="atom-18" d="M 34.6 161.5 L 38.0 161.5 L 38.0 162.1 L 35.4 162.1 L 35.4 163.9 L 37.7 163.9 L 37.7 164.5 L 35.4 164.5 L 35.4 167.2 L 34.6 167.2 L 34.6 161.5 " fill="#33CCCC"/>
<path class="atom-22" d="M 237.5 156.2 L 239.3 159.2 Q 239.5 159.5, 239.8 160.1 Q 240.1 160.6, 240.1 160.6 L 240.1 156.2 L 240.9 156.2 L 240.9 161.9 L 240.1 161.9 L 238.1 158.6 Q 237.9 158.2, 237.6 157.8 Q 237.4 157.3, 237.3 157.2 L 237.3 161.9 L 236.6 161.9 L 236.6 156.2 L 237.5 156.2 " fill="#0000FF"/>
<path class="atom-22" d="M 241.6 157.2 L 242.6 157.2 L 242.6 156.2 L 243.0 156.2 L 243.0 157.2 L 244.1 157.2 L 244.1 157.6 L 243.0 157.6 L 243.0 158.7 L 242.6 158.7 L 242.6 157.6 L 241.6 157.6 L 241.6 157.2 " fill="#0000FF"/>
<path class="atom-26" d="M 56.6 195.0 L 57.3 195.0 L 57.3 197.4 L 60.3 197.4 L 60.3 195.0 L 61.0 195.0 L 61.0 200.7 L 60.3 200.7 L 60.3 198.0 L 57.3 198.0 L 57.3 200.7 L 56.6 200.7 L 56.6 195.0 " fill="#000000"/>
<path class="atom-27" d="M 51.8 125.3 L 52.6 125.3 L 52.6 127.7 L 55.5 127.7 L 55.5 125.3 L 56.3 125.3 L 56.3 131.0 L 55.5 131.0 L 55.5 128.3 L 52.6 128.3 L 52.6 131.0 L 51.8 131.0 L 51.8 125.3 " fill="#000000"/>
<path class="atom-28" d="M 121.1 103.1 L 121.8 103.1 L 121.8 105.5 L 124.8 105.5 L 124.8 103.1 L 125.5 103.1 L 125.5 108.8 L 124.8 108.8 L 124.8 106.1 L 121.8 106.1 L 121.8 108.8 L 121.1 108.8 L 121.1 103.1 " fill="#000000"/>
<path class="atom-29" d="M 145.9 171.4 L 146.7 171.4 L 146.7 173.8 L 149.6 173.8 L 149.6 171.4 L 150.4 171.4 L 150.4 177.1 L 149.6 177.1 L 149.6 174.5 L 146.7 174.5 L 146.7 177.1 L 145.9 177.1 L 145.9 171.4 " fill="#000000"/>
<path class="atom-30" d="M 183.1 168.1 L 183.9 168.1 L 183.9 170.5 L 186.8 170.5 L 186.8 168.1 L 187.6 168.1 L 187.6 173.8 L 186.8 173.8 L 186.8 171.2 L 183.9 171.2 L 183.9 173.8 L 183.1 173.8 L 183.1 168.1 " fill="#000000"/>
<path class="atom-31" d="M 181.4 98.9 L 182.2 98.9 L 182.2 101.4 L 185.1 101.4 L 185.1 98.9 L 185.9 98.9 L 185.9 104.7 L 185.1 104.7 L 185.1 102.0 L 182.2 102.0 L 182.2 104.7 L 181.4 104.7 L 181.4 98.9 " fill="#000000"/>
<path class="atom-32" d="M 141.2 101.7 L 142.0 101.7 L 142.0 104.1 L 144.9 104.1 L 144.9 101.7 L 145.6 101.7 L 145.6 107.4 L 144.9 107.4 L 144.9 104.8 L 142.0 104.8 L 142.0 107.4 L 141.2 107.4 L 141.2 101.7 " fill="#000000"/>
<path class="atom-33" d="M 199.1 112.8 L 199.8 112.8 L 199.8 115.3 L 202.8 115.3 L 202.8 112.8 L 203.5 112.8 L 203.5 118.6 L 202.8 118.6 L 202.8 115.9 L 199.8 115.9 L 199.8 118.6 L 199.1 118.6 L 199.1 112.8 " fill="#000000"/>
<path class="atom-34" d="M 196.4 167.9 L 197.2 167.9 L 197.2 170.3 L 200.1 170.3 L 200.1 167.9 L 200.9 167.9 L 200.9 173.6 L 200.1 173.6 L 200.1 171.0 L 197.2 171.0 L 197.2 173.6 L 196.4 173.6 L 196.4 167.9 " fill="#000000"/>
<path class="atom-35" d="M 187.1 151.9 L 187.8 151.9 L 187.8 154.4 L 190.8 154.4 L 190.8 151.9 L 191.5 151.9 L 191.5 157.6 L 190.8 157.6 L 190.8 155.0 L 187.8 155.0 L 187.8 157.6 L 187.1 157.6 L 187.1 151.9 " fill="#000000"/>
<path class="atom-36" d="M 222.9 173.9 L 223.7 173.9 L 223.7 176.3 L 226.6 176.3 L 226.6 173.9 L 227.4 173.9 L 227.4 179.6 L 226.6 179.6 L 226.6 177.0 L 223.7 177.0 L 223.7 179.6 L 222.9 179.6 L 222.9 173.9 " fill="#000000"/>
<path class="atom-37" d="M 205.0 176.9 L 205.8 176.9 L 205.8 179.4 L 208.7 179.4 L 208.7 176.9 L 209.4 176.9 L 209.4 182.7 L 208.7 182.7 L 208.7 180.0 L 205.8 180.0 L 205.8 182.7 L 205.0 182.7 L 205.0 176.9 " fill="#000000"/>
<path class="atom-38" d="M 247.5 118.0 L 248.3 118.0 L 248.3 120.5 L 251.2 120.5 L 251.2 118.0 L 252.0 118.0 L 252.0 123.7 L 251.2 123.7 L 251.2 121.1 L 248.3 121.1 L 248.3 123.7 L 247.5 123.7 L 247.5 118.0 " fill="#000000"/>
<path class="atom-39" d="M 258.0 141.7 L 258.8 141.7 L 258.8 144.2 L 261.7 144.2 L 261.7 141.7 L 262.5 141.7 L 262.5 147.4 L 261.7 147.4 L 261.7 144.8 L 258.8 144.8 L 258.8 147.4 L 258.0 147.4 L 258.0 141.7 " fill="#000000"/>
<path class="atom-40" d="M 211.1 107.5 L 211.9 107.5 L 211.9 109.9 L 214.8 109.9 L 214.8 107.5 L 215.6 107.5 L 215.6 113.2 L 214.8 113.2 L 214.8 110.6 L 211.9 110.6 L 211.9 113.2 L 211.1 113.2 L 211.1 107.5 " fill="#000000"/>
<path class="atom-41" d="M 236.9 110.3 L 237.7 110.3 L 237.7 112.7 L 240.6 112.7 L 240.6 110.3 L 241.4 110.3 L 241.4 116.0 L 240.6 116.0 L 240.6 113.3 L 237.7 113.3 L 237.7 116.0 L 236.9 116.0 L 236.9 110.3 " fill="#000000"/>
<path class="atom-42" d="M 260.9 170.9 L 261.7 170.9 L 261.7 173.4 L 264.6 173.4 L 264.6 170.9 L 265.4 170.9 L 265.4 176.6 L 264.6 176.6 L 264.6 174.0 L 261.7 174.0 L 261.7 176.6 L 260.9 176.6 L 260.9 170.9 " fill="#000000"/>
<path class="atom-43" d="M 231.3 179.6 L 232.1 179.6 L 232.1 182.0 L 235.0 182.0 L 235.0 179.6 L 235.8 179.6 L 235.8 185.3 L 235.0 185.3 L 235.0 182.7 L 232.1 182.7 L 232.1 185.3 L 231.3 185.3 L 231.3 179.6 " fill="#000000"/>
<path class="atom-44" d="M 246.2 195.3 L 247.0 195.3 L 247.0 197.8 L 249.9 197.8 L 249.9 195.3 L 250.7 195.3 L 250.7 201.1 L 249.9 201.1 L 249.9 198.4 L 247.0 198.4 L 247.0 201.1 L 246.2 201.1 L 246.2 195.3 " fill="#000000"/>
<path class="atom-45" d="M 256.6 154.8 L 257.4 154.8 L 257.4 157.3 L 260.3 157.3 L 260.3 154.8 L 261.1 154.8 L 261.1 160.5 L 260.3 160.5 L 260.3 157.9 L 257.4 157.9 L 257.4 160.5 L 256.6 160.5 L 256.6 154.8 " fill="#000000"/>
<path class="bond-0 atom-0 atom-1" d="M 394.5,174.7 L 406.6,158.6" style="fill:none;fill-rule:evenodd;stroke:#000000;stroke-width:2.0px;stroke-linecap:butt;stroke-linejoin:miter;stroke-opacity:1"/>
<path class="bond-0 atom-0 atom-1" d="M 393.1,169.8 L 401.6,158.6" style="fill:none;fill-rule:evenodd;stroke:#000000;stroke-width:2.0px;stroke-linecap:butt;stroke-linejoin:miter;stroke-opacity:1"/>
<path class="bond-1 atom-0 atom-2" d="M 394.5,174.7 L 374.5,172.2" style="fill:none;fill-rule:evenodd;stroke:#000000;stroke-width:2.0px;stroke-linecap:butt;stroke-linejoin:miter;stroke-opacity:1"/>
<path class="bond-2 atom-0 atom-19" d="M 394.5,174.7 L 397.7,182.2" style="fill:none;fill-rule:evenodd;stroke:#000000;stroke-width:2.0px;stroke-linecap:butt;stroke-linejoin:miter;stroke-opacity:1"/>
<path class="bond-2 atom-0 atom-19" d="M 397.7,182.2 L 400.9,189.7" style="fill:none;fill-rule:evenodd;stroke:#33CCCC;stroke-width:2.0px;stroke-linecap:butt;stroke-linejoin:miter;stroke-opacity:1"/>
<path class="bond-3 atom-1 atom-3" d="M 406.6,158.6 L 398.7,140.0" style="fill:none;fill-rule:evenodd;stroke:#000000;stroke-width:2.0px;stroke-linecap:butt;stroke-linejoin:miter;stroke-opacity:1"/>
<path class="bond-4 atom-1 atom-4" d="M 406.6,158.6 L 415.3,159.6" style="fill:none;fill-rule:evenodd;stroke:#000000;stroke-width:2.0px;stroke-linecap:butt;stroke-linejoin:miter;stroke-opacity:1"/>
<path class="bond-4 atom-1 atom-4" d="M 415.3,159.6 L 423.9,160.7" style="fill:none;fill-rule:evenodd;stroke:#0000FF;stroke-width:2.0px;stroke-linecap:butt;stroke-linejoin:miter;stroke-opacity:1"/>
<path class="bond-5 atom-2 atom-5" d="M 374.5,172.2 L 366.6,153.7" style="fill:none;fill-rule:evenodd;stroke:#000000;stroke-width:2.0px;stroke-linecap:butt;stroke-linejoin:miter;stroke-opacity:1"/>
<path class="bond-5 atom-2 atom-5" d="M 377.0,167.9 L 371.5,154.9" style="fill:none;fill-rule:evenodd;stroke:#000000;stroke-width:2.0px;stroke-linecap:butt;stroke-linejoin:miter;stroke-opacity:1"/>
<path class="bond-6 atom-2 atom-23" d="M 374.5,172.2 L 365.0,184.9" style="fill:none;fill-rule:evenodd;stroke:#000000;stroke-width:2.0px;stroke-linecap:butt;stroke-linejoin:miter;stroke-opacity:1"/>
<path class="bond-7 atom-3 atom-6" d="M 398.7,140.0 L 378.7,137.6" style="fill:none;fill-rule:evenodd;stroke:#000000;stroke-width:2.0px;stroke-linecap:butt;stroke-linejoin:miter;stroke-opacity:1"/>
<path class="bond-7 atom-3 atom-6" d="M 395.3,143.6 L 381.2,141.9" style="fill:none;fill-rule:evenodd;stroke:#000000;stroke-width:2.0px;stroke-linecap:butt;stroke-linejoin:miter;stroke-opacity:1"/>
<path class="bond-8 atom-3 atom-7" d="M 398.7,140.0 L 410.9,123.9" style="fill:none;fill-rule:evenodd;stroke:#000000;stroke-width:2.0px;stroke-linecap:butt;stroke-linejoin:miter;stroke-opacity:1"/>
<path class="bond-9 atom-4 atom-10" d="M 429.3,157.5 L 434.0,151.2" style="fill:none;fill-rule:evenodd;stroke:#0000FF;stroke-width:2.0px;stroke-linecap:butt;stroke-linejoin:miter;stroke-opacity:1"/>
<path class="bond-9 atom-4 atom-10" d="M 434.0,151.2 L 438.8,144.9" style="fill:none;fill-rule:evenodd;stroke:#000000;stroke-width:2.0px;stroke-linecap:butt;stroke-linejoin:miter;stroke-opacity:1"/>
<path class="bond-9 atom-4 atom-10" d="M 427.5,153.2 L 430.8,148.8" style="fill:none;fill-rule:evenodd;stroke:#0000FF;stroke-width:2.0px;stroke-linecap:butt;stroke-linejoin:miter;stroke-opacity:1"/>
<path class="bond-9 atom-4 atom-10" d="M 430.8,148.8 L 434.1,144.4" style="fill:none;fill-rule:evenodd;stroke:#000000;stroke-width:2.0px;stroke-linecap:butt;stroke-linejoin:miter;stroke-opacity:1"/>
<path class="bond-10 atom-5 atom-6" d="M 366.6,153.7 L 378.7,137.6" style="fill:none;fill-rule:evenodd;stroke:#000000;stroke-width:2.0px;stroke-linecap:butt;stroke-linejoin:miter;stroke-opacity:1"/>
<path class="bond-11 atom-5 atom-20" d="M 366.6,153.7 L 357.8,152.6" style="fill:none;fill-rule:evenodd;stroke:#000000;stroke-width:2.0px;stroke-linecap:butt;stroke-linejoin:miter;stroke-opacity:1"/>
<path class="bond-11 atom-5 atom-20" d="M 357.8,152.6 L 348.9,151.5" style="fill:none;fill-rule:evenodd;stroke:#33CCCC;stroke-width:2.0px;stroke-linecap:butt;stroke-linejoin:miter;stroke-opacity:1"/>
<path class="bond-12 atom-6 atom-24" d="M 378.7,137.6 L 372.3,122.5" style="fill:none;fill-rule:evenodd;stroke:#000000;stroke-width:2.0px;stroke-linecap:butt;stroke-linejoin:miter;stroke-opacity:1"/>
<path class="bond-13 atom-7 atom-8" d="M 410.9,123.9 L 419.5,124.9" style="fill:none;fill-rule:evenodd;stroke:#000000;stroke-width:2.0px;stroke-linecap:butt;stroke-linejoin:miter;stroke-opacity:1"/>
<path class="bond-13 atom-7 atom-8" d="M 419.5,124.9 L 428.1,126.0" style="fill:none;fill-rule:evenodd;stroke:#0000FF;stroke-width:2.0px;stroke-linecap:butt;stroke-linejoin:miter;stroke-opacity:1"/>
<path class="bond-14 atom-7 atom-9" d="M 409.0,124.7 L 405.8,117.2" style="fill:none;fill-rule:evenodd;stroke:#000000;stroke-width:2.0px;stroke-linecap:butt;stroke-linejoin:miter;stroke-opacity:1"/>
<path class="bond-14 atom-7 atom-9" d="M 405.8,117.2 L 402.7,109.7" style="fill:none;fill-rule:evenodd;stroke:#FF0000;stroke-width:2.0px;stroke-linecap:butt;stroke-linejoin:miter;stroke-opacity:1"/>
<path class="bond-14 atom-7 atom-9" d="M 412.7,123.1 L 409.6,115.6" style="fill:none;fill-rule:evenodd;stroke:#000000;stroke-width:2.0px;stroke-linecap:butt;stroke-linejoin:miter;stroke-opacity:1"/>
<path class="bond-14 atom-7 atom-9" d="M 409.6,115.6 L 406.4,108.2" style="fill:none;fill-rule:evenodd;stroke:#FF0000;stroke-width:2.0px;stroke-linecap:butt;stroke-linejoin:miter;stroke-opacity:1"/>
<path class="bond-15 atom-8 atom-10" d="M 432.4,129.8 L 435.6,137.4" style="fill:none;fill-rule:evenodd;stroke:#0000FF;stroke-width:2.0px;stroke-linecap:butt;stroke-linejoin:miter;stroke-opacity:1"/>
<path class="bond-15 atom-8 atom-10" d="M 435.6,137.4 L 438.8,144.9" style="fill:none;fill-rule:evenodd;stroke:#000000;stroke-width:2.0px;stroke-linecap:butt;stroke-linejoin:miter;stroke-opacity:1"/>
<path class="bond-16 atom-8 atom-25" d="M 433.5,122.8 L 437.0,118.3" style="fill:none;fill-rule:evenodd;stroke:#0000FF;stroke-width:2.0px;stroke-linecap:butt;stroke-linejoin:miter;stroke-opacity:1"/>
<path class="bond-16 atom-8 atom-25" d="M 437.0,118.3 L 440.4,113.7" style="fill:none;fill-rule:evenodd;stroke:#000000;stroke-width:2.0px;stroke-linecap:butt;stroke-linejoin:miter;stroke-opacity:1"/>
<path class="bond-17 atom-10 atom-11" d="M 438.8,144.9 L 458.8,147.3" style="fill:none;fill-rule:evenodd;stroke:#000000;stroke-width:2.0px;stroke-linecap:butt;stroke-linejoin:miter;stroke-opacity:1"/>
<path class="bond-18 atom-11 atom-12" d="M 458.8,147.3 L 466.7,165.9" style="fill:none;fill-rule:evenodd;stroke:#000000;stroke-width:2.0px;stroke-linecap:butt;stroke-linejoin:miter;stroke-opacity:1"/>
<path class="bond-18 atom-11 atom-12" d="M 463.7,148.5 L 469.2,161.5" style="fill:none;fill-rule:evenodd;stroke:#000000;stroke-width:2.0px;stroke-linecap:butt;stroke-linejoin:miter;stroke-opacity:1"/>
<path class="bond-19 atom-11 atom-16" d="M 458.8,147.3 L 470.9,131.2" style="fill:none;fill-rule:evenodd;stroke:#000000;stroke-width:2.0px;stroke-linecap:butt;stroke-linejoin:miter;stroke-opacity:1"/>
<path class="bond-20 atom-12 atom-13" d="M 466.7,165.9 L 486.7,168.3" style="fill:none;fill-rule:evenodd;stroke:#000000;stroke-width:2.0px;stroke-linecap:butt;stroke-linejoin:miter;stroke-opacity:1"/>
<path class="bond-21 atom-12 atom-26" d="M 466.7,165.9 L 457.2,178.5" style="fill:none;fill-rule:evenodd;stroke:#000000;stroke-width:2.0px;stroke-linecap:butt;stroke-linejoin:miter;stroke-opacity:1"/>
<path class="bond-22 atom-13 atom-14" d="M 486.7,168.3 L 498.8,152.2" style="fill:none;fill-rule:evenodd;stroke:#000000;stroke-width:2.0px;stroke-linecap:butt;stroke-linejoin:miter;stroke-opacity:1"/>
<path class="bond-22 atom-13 atom-14" d="M 485.3,163.5 L 493.8,152.2" style="fill:none;fill-rule:evenodd;stroke:#000000;stroke-width:2.0px;stroke-linecap:butt;stroke-linejoin:miter;stroke-opacity:1"/>
<path class="bond-23 atom-13 atom-27" d="M 486.7,168.3 L 489.9,175.8" style="fill:none;fill-rule:evenodd;stroke:#000000;stroke-width:2.0px;stroke-linecap:butt;stroke-linejoin:miter;stroke-opacity:1"/>
<path class="bond-24 atom-14 atom-15" d="M 498.8,152.2 L 490.9,133.7" style="fill:none;fill-rule:evenodd;stroke:#000000;stroke-width:2.0px;stroke-linecap:butt;stroke-linejoin:miter;stroke-opacity:1"/>
<path class="bond-25 atom-14 atom-17" d="M 498.8,152.2 L 518.9,154.7" style="fill:none;fill-rule:evenodd;stroke:#000000;stroke-width:2.0px;stroke-linecap:butt;stroke-linejoin:miter;stroke-opacity:1"/>
<path class="bond-26 atom-15 atom-16" d="M 490.9,133.7 L 470.9,131.2" style="fill:none;fill-rule:evenodd;stroke:#000000;stroke-width:2.0px;stroke-linecap:butt;stroke-linejoin:miter;stroke-opacity:1"/>
<path class="bond-26 atom-15 atom-16" d="M 487.5,137.3 L 473.4,135.6" style="fill:none;fill-rule:evenodd;stroke:#000000;stroke-width:2.0px;stroke-linecap:butt;stroke-linejoin:miter;stroke-opacity:1"/>
<path class="bond-27 atom-15 atom-28" d="M 490.9,133.7 L 495.5,127.6" style="fill:none;fill-rule:evenodd;stroke:#000000;stroke-width:2.0px;stroke-linecap:butt;stroke-linejoin:miter;stroke-opacity:1"/>
<path class="bond-28 atom-16 atom-29" d="M 470.9,131.2 L 464.5,116.2" style="fill:none;fill-rule:evenodd;stroke:#000000;stroke-width:2.0px;stroke-linecap:butt;stroke-linejoin:miter;stroke-opacity:1"/>
<path class="bond-29 atom-17 atom-18" d="M 518.9,154.7 L 527.2,155.7" style="fill:none;fill-rule:evenodd;stroke:#000000;stroke-width:2.0px;stroke-linecap:butt;stroke-linejoin:miter;stroke-opacity:1"/>
<path class="bond-29 atom-17 atom-18" d="M 527.2,155.7 L 535.6,156.7" style="fill:none;fill-rule:evenodd;stroke:#FF0000;stroke-width:2.0px;stroke-linecap:butt;stroke-linejoin:miter;stroke-opacity:1"/>
<path class="bond-30 atom-17 atom-21" d="M 518.9,154.7 L 516.4,174.7" style="fill:none;fill-rule:evenodd;stroke:#000000;stroke-width:2.0px;stroke-linecap:butt;stroke-linejoin:miter;stroke-opacity:1"/>
<path class="bond-31 atom-17 atom-22" d="M 518.9,154.7 L 521.3,134.6" style="fill:none;fill-rule:evenodd;stroke:#000000;stroke-width:2.0px;stroke-linecap:butt;stroke-linejoin:miter;stroke-opacity:1"/>
<path class="bond-32 atom-18 atom-30" d="M 542.1,153.7 L 546.1,149.6" style="fill:none;fill-rule:evenodd;stroke:#FF0000;stroke-width:2.0px;stroke-linecap:butt;stroke-linejoin:miter;stroke-opacity:1"/>
<path class="bond-32 atom-18 atom-30" d="M 546.1,149.6 L 550.0,145.6" style="fill:none;fill-rule:evenodd;stroke:#000000;stroke-width:2.0px;stroke-linecap:butt;stroke-linejoin:miter;stroke-opacity:1"/>
<path class="bond-33 atom-21 atom-31" d="M 516.4,174.7 L 507.5,175.8" style="fill:none;fill-rule:evenodd;stroke:#000000;stroke-width:2.0px;stroke-linecap:butt;stroke-linejoin:miter;stroke-opacity:1"/>
<path class="bond-34 atom-21 atom-32" d="M 516.4,174.7 L 533.6,176.8" style="fill:none;fill-rule:evenodd;stroke:#000000;stroke-width:2.0px;stroke-linecap:butt;stroke-linejoin:miter;stroke-opacity:1"/>
<path class="bond-35 atom-21 atom-33" d="M 516.4,174.7 L 514.4,191.2" style="fill:none;fill-rule:evenodd;stroke:#000000;stroke-width:2.0px;stroke-linecap:butt;stroke-linejoin:miter;stroke-opacity:1"/>
<path class="bond-36 atom-22 atom-34" d="M 521.3,134.6 L 538.6,134.6" style="fill:none;fill-rule:evenodd;stroke:#000000;stroke-width:2.0px;stroke-linecap:butt;stroke-linejoin:miter;stroke-opacity:1"/>
<path class="bond-37 atom-22 atom-35" d="M 521.3,134.6 L 513.1,131.5" style="fill:none;fill-rule:evenodd;stroke:#000000;stroke-width:2.0px;stroke-linecap:butt;stroke-linejoin:miter;stroke-opacity:1"/>
<path class="bond-38 atom-22 atom-36" d="M 521.3,134.6 L 523.3,118.1" style="fill:none;fill-rule:evenodd;stroke:#000000;stroke-width:2.0px;stroke-linecap:butt;stroke-linejoin:miter;stroke-opacity:1"/>
<path class="atom-4" d="M 425.4 158.2 L 427.3 161.2 Q 427.5 161.5, 427.8 162.0 Q 428.1 162.6, 428.1 162.6 L 428.1 158.2 L 428.8 158.2 L 428.8 163.9 L 428.0 163.9 L 426.0 160.6 Q 425.8 160.2, 425.6 159.7 Q 425.3 159.3, 425.2 159.1 L 425.2 163.9 L 424.5 163.9 L 424.5 158.2 L 425.4 158.2 " fill="#0000FF"/>
<path class="atom-8" d="M 429.6 123.5 L 431.5 126.5 Q 431.7 126.8, 432.0 127.3 Q 432.3 127.9, 432.3 127.9 L 432.3 123.5 L 433.1 123.5 L 433.1 129.2 L 432.3 129.2 L 430.3 125.9 Q 430.0 125.5, 429.8 125.1 Q 429.5 124.6, 429.5 124.5 L 429.5 129.2 L 428.7 129.2 L 428.7 123.5 L 429.6 123.5 " fill="#0000FF"/>
<path class="atom-9" d="M 400.4 105.4 Q 400.4 104.0, 401.0 103.2 Q 401.7 102.4, 403.0 102.4 Q 404.2 102.4, 404.9 103.2 Q 405.6 104.0, 405.6 105.4 Q 405.6 106.7, 404.9 107.5 Q 404.2 108.3, 403.0 108.3 Q 401.7 108.3, 401.0 107.5 Q 400.4 106.7, 400.4 105.4 M 403.0 107.7 Q 403.9 107.7, 404.3 107.1 Q 404.8 106.5, 404.8 105.4 Q 404.8 104.2, 404.3 103.7 Q 403.9 103.1, 403.0 103.1 Q 402.1 103.1, 401.6 103.7 Q 401.2 104.2, 401.2 105.4 Q 401.2 106.5, 401.6 107.1 Q 402.1 107.7, 403.0 107.7 " fill="#FF0000"/>
<path class="atom-18" d="M 536.3 157.1 Q 536.3 155.7, 536.9 155.0 Q 537.6 154.2, 538.9 154.2 Q 540.1 154.2, 540.8 155.0 Q 541.5 155.7, 541.5 157.1 Q 541.5 158.5, 540.8 159.3 Q 540.1 160.1, 538.9 160.1 Q 537.6 160.1, 536.9 159.3 Q 536.3 158.5, 536.3 157.1 M 538.9 159.4 Q 539.7 159.4, 540.2 158.9 Q 540.7 158.3, 540.7 157.1 Q 540.7 156.0, 540.2 155.4 Q 539.7 154.9, 538.9 154.9 Q 538.0 154.9, 537.5 155.4 Q 537.1 156.0, 537.1 157.1 Q 537.1 158.3, 537.5 158.9 Q 538.0 159.4, 538.9 159.4 " fill="#FF0000"/>
<path class="atom-19" d="M 400.7 190.4 L 404.1 190.4 L 404.1 191.0 L 401.5 191.0 L 401.5 192.8 L 403.8 192.8 L 403.8 193.4 L 401.5 193.4 L 401.5 196.1 L 400.7 196.1 L 400.7 190.4 " fill="#33CCCC"/>
<path class="atom-20" d="M 344.9 148.4 L 348.3 148.4 L 348.3 149.0 L 345.7 149.0 L 345.7 150.8 L 348.0 150.8 L 348.0 151.4 L 345.7 151.4 L 345.7 154.1 L 344.9 154.1 L 344.9 148.4 " fill="#33CCCC"/>
<path class="atom-23" d="M 360.1 185.5 L 360.9 185.5 L 360.9 187.9 L 363.8 187.9 L 363.8 185.5 L 364.6 185.5 L 364.6 191.2 L 363.8 191.2 L 363.8 188.6 L 360.9 188.6 L 360.9 191.2 L 360.1 191.2 L 360.1 185.5 " fill="#000000"/>
<path class="atom-24" d="M 368.6 116.2 L 369.4 116.2 L 369.4 118.6 L 372.3 118.6 L 372.3 116.2 L 373.1 116.2 L 373.1 121.9 L 372.3 121.9 L 372.3 119.2 L 369.4 119.2 L 369.4 121.9 L 368.6 121.9 L 368.6 116.2 " fill="#000000"/>
<path class="atom-25" d="M 440.8 107.4 L 441.6 107.4 L 441.6 109.8 L 444.5 109.8 L 444.5 107.4 L 445.2 107.4 L 445.2 113.1 L 444.5 113.1 L 444.5 110.4 L 441.6 110.4 L 441.6 113.1 L 440.8 113.1 L 440.8 107.4 " fill="#000000"/>
<path class="atom-26" d="M 452.3 179.2 L 453.1 179.2 L 453.1 181.6 L 456.0 181.6 L 456.0 179.2 L 456.8 179.2 L 456.8 184.9 L 456.0 184.9 L 456.0 182.2 L 453.1 182.2 L 453.1 184.9 L 452.3 184.9 L 452.3 179.2 " fill="#000000"/>
<path class="atom-27" d="M 489.1 176.4 L 489.9 176.4 L 489.9 178.9 L 492.8 178.9 L 492.8 176.4 L 493.6 176.4 L 493.6 182.1 L 492.8 182.1 L 492.8 179.5 L 489.9 179.5 L 489.9 182.1 L 489.1 182.1 L 489.1 176.4 " fill="#000000"/>
<path class="atom-28" d="M 495.9 121.3 L 496.6 121.3 L 496.6 123.7 L 499.6 123.7 L 499.6 121.3 L 500.3 121.3 L 500.3 127.0 L 499.6 127.0 L 499.6 124.4 L 496.6 124.4 L 496.6 127.0 L 495.9 127.0 L 495.9 121.3 " fill="#000000"/>
<path class="atom-29" d="M 460.8 109.8 L 461.6 109.8 L 461.6 112.2 L 464.5 112.2 L 464.5 109.8 L 465.3 109.8 L 465.3 115.5 L 464.5 115.5 L 464.5 112.9 L 461.6 112.9 L 461.6 115.5 L 460.8 115.5 L 460.8 109.8 " fill="#000000"/>
<path class="atom-30" d="M 550.6 139.7 L 551.4 139.7 L 551.4 142.2 L 554.3 142.2 L 554.3 139.7 L 555.1 139.7 L 555.1 145.4 L 554.3 145.4 L 554.3 142.8 L 551.4 142.8 L 551.4 145.4 L 550.6 145.4 L 550.6 139.7 " fill="#000000"/>
<path class="atom-31" d="M 502.4 173.3 L 503.1 173.3 L 503.1 175.7 L 506.1 175.7 L 506.1 173.3 L 506.8 173.3 L 506.8 179.0 L 506.1 179.0 L 506.1 176.4 L 503.1 176.4 L 503.1 179.0 L 502.4 179.0 L 502.4 173.3 " fill="#000000"/>
<path class="atom-32" d="M 534.2 174.3 L 535.0 174.3 L 535.0 176.7 L 537.9 176.7 L 537.9 174.3 L 538.7 174.3 L 538.7 180.0 L 537.9 180.0 L 537.9 177.3 L 535.0 177.3 L 535.0 180.0 L 534.2 180.0 L 534.2 174.3 " fill="#000000"/>
<path class="atom-33" d="M 511.7 191.8 L 512.5 191.8 L 512.5 194.3 L 515.4 194.3 L 515.4 191.8 L 516.2 191.8 L 516.2 197.6 L 515.4 197.6 L 515.4 194.9 L 512.5 194.9 L 512.5 197.6 L 511.7 197.6 L 511.7 191.8 " fill="#000000"/>
<path class="atom-34" d="M 539.2 131.8 L 540.0 131.8 L 540.0 134.2 L 542.9 134.2 L 542.9 131.8 L 543.7 131.8 L 543.7 137.5 L 542.9 137.5 L 542.9 134.8 L 540.0 134.8 L 540.0 137.5 L 539.2 137.5 L 539.2 131.8 " fill="#000000"/>
<path class="atom-35" d="M 507.9 127.5 L 508.7 127.5 L 508.7 130.0 L 511.6 130.0 L 511.6 127.5 L 512.4 127.5 L 512.4 133.2 L 511.6 133.2 L 511.6 130.6 L 508.7 130.6 L 508.7 133.2 L 507.9 133.2 L 507.9 127.5 " fill="#000000"/>
<path class="atom-36" d="M 521.5 111.8 L 522.3 111.8 L 522.3 114.2 L 525.2 114.2 L 525.2 111.8 L 526.0 111.8 L 526.0 117.5 L 525.2 117.5 L 525.2 114.8 L 522.3 114.8 L 522.3 117.5 L 521.5 117.5 L 521.5 111.8 " fill="#000000"/>
<text x="300" y="20" font-size="20" font-family="sans-serif" font-weight="normal" letter-spacing="0" text-anchor="middle" fill="black">tnks2: 8e -&gt; 5k</text><text x="300" y="35" font-size="15" font-family="sans-serif" font-weight="normal" letter-spacing="0" text-anchor="middle" fill="black"></text><text x="150" y="285" font-size="15" font-family="sans-serif" font-weight="normal" letter-spacing="0" text-anchor="middle" fill="black">8e</text><text x="450" y="285" font-size="15" font-family="sans-serif" font-weight="normal" letter-spacing="0" text-anchor="middle" fill="black">5k</text></svg>
