<?xml version='1.0' encoding='ASCII' standalone='yes'?>
<svg xmlns="http://www.w3.org/2000/svg" xmlns:rdkit="http://www.rdkit.org/xml" xmlns:xlink="http://www.w3.org/1999/xlink" version="1.1" baseProfile="full" xml:space="preserve" width="600px" height="300px" viewBox="0 0 600 300">
<!-- END OF HEADER -->
<rect style="opacity:1.0;fill:#FFFFFF;stroke:none" width="600.0" height="300.0" x="0.0" y="0.0"> </rect>
<path class="bond-0 atom-0 atom-1" d="M 84.8,159.1 L 82.6,136.4" style="fill:none;fill-rule:evenodd;stroke:#000000;stroke-width:2.0px;stroke-linecap:butt;stroke-linejoin:miter;stroke-opacity:1"/>
<path class="bond-1 atom-0 atom-24" d="M 84.8,159.1 L 74.9,161.3" style="fill:none;fill-rule:evenodd;stroke:#000000;stroke-width:2.0px;stroke-linecap:butt;stroke-linejoin:miter;stroke-opacity:1"/>
<path class="bond-2 atom-0 atom-25" d="M 84.8,159.1 L 104.1,161.9" style="fill:none;fill-rule:evenodd;stroke:#000000;stroke-width:2.0px;stroke-linecap:butt;stroke-linejoin:miter;stroke-opacity:1"/>
<path class="bond-3 atom-0 atom-26" d="M 84.8,159.1 L 86.6,177.8" style="fill:none;fill-rule:evenodd;stroke:#000000;stroke-width:2.0px;stroke-linecap:butt;stroke-linejoin:miter;stroke-opacity:1"/>
<path class="bond-4 atom-1 atom-2" d="M 82.6,136.4 L 80.4,113.6" style="fill:none;fill-rule:evenodd;stroke:#000000;stroke-width:2.0px;stroke-linecap:butt;stroke-linejoin:miter;stroke-opacity:1"/>
<path class="bond-5 atom-1 atom-3" d="M 82.6,136.4 L 59.9,138.6" style="fill:none;fill-rule:evenodd;stroke:#000000;stroke-width:2.0px;stroke-linecap:butt;stroke-linejoin:miter;stroke-opacity:1"/>
<path class="bond-6 atom-1 atom-4" d="M 82.6,136.4 L 105.3,134.2" style="fill:none;fill-rule:evenodd;stroke:#000000;stroke-width:2.0px;stroke-linecap:butt;stroke-linejoin:miter;stroke-opacity:1"/>
<path class="bond-7 atom-2 atom-27" d="M 80.4,113.6 L 70.1,113.4" style="fill:none;fill-rule:evenodd;stroke:#000000;stroke-width:2.0px;stroke-linecap:butt;stroke-linejoin:miter;stroke-opacity:1"/>
<path class="bond-8 atom-2 atom-28" d="M 80.4,113.6 L 89.8,110.3" style="fill:none;fill-rule:evenodd;stroke:#000000;stroke-width:2.0px;stroke-linecap:butt;stroke-linejoin:miter;stroke-opacity:1"/>
<path class="bond-9 atom-2 atom-29" d="M 80.4,113.6 L 78.6,94.9" style="fill:none;fill-rule:evenodd;stroke:#000000;stroke-width:2.0px;stroke-linecap:butt;stroke-linejoin:miter;stroke-opacity:1"/>
<path class="bond-10 atom-3 atom-30" d="M 59.9,138.6 L 57.8,129.4" style="fill:none;fill-rule:evenodd;stroke:#000000;stroke-width:2.0px;stroke-linecap:butt;stroke-linejoin:miter;stroke-opacity:1"/>
<path class="bond-11 atom-3 atom-31" d="M 59.9,138.6 L 59.6,148.1" style="fill:none;fill-rule:evenodd;stroke:#000000;stroke-width:2.0px;stroke-linecap:butt;stroke-linejoin:miter;stroke-opacity:1"/>
<path class="bond-12 atom-3 atom-32" d="M 59.9,138.6 L 40.4,140.4" style="fill:none;fill-rule:evenodd;stroke:#000000;stroke-width:2.0px;stroke-linecap:butt;stroke-linejoin:miter;stroke-opacity:1"/>
<path class="bond-13 atom-4 atom-5" d="M 105.3,134.2 L 114.7,113.4" style="fill:none;fill-rule:evenodd;stroke:#000000;stroke-width:2.0px;stroke-linecap:butt;stroke-linejoin:miter;stroke-opacity:1"/>
<path class="bond-13 atom-4 atom-5" d="M 110.9,132.9 L 117.5,118.4" style="fill:none;fill-rule:evenodd;stroke:#000000;stroke-width:2.0px;stroke-linecap:butt;stroke-linejoin:miter;stroke-opacity:1"/>
<path class="bond-14 atom-4 atom-9" d="M 105.3,134.2 L 118.5,152.7" style="fill:none;fill-rule:evenodd;stroke:#000000;stroke-width:2.0px;stroke-linecap:butt;stroke-linejoin:miter;stroke-opacity:1"/>
<path class="bond-15 atom-5 atom-6" d="M 114.7,113.4 L 137.5,111.2" style="fill:none;fill-rule:evenodd;stroke:#000000;stroke-width:2.0px;stroke-linecap:butt;stroke-linejoin:miter;stroke-opacity:1"/>
<path class="bond-16 atom-5 atom-33" d="M 114.7,113.4 L 109.7,106.4" style="fill:none;fill-rule:evenodd;stroke:#000000;stroke-width:2.0px;stroke-linecap:butt;stroke-linejoin:miter;stroke-opacity:1"/>
<path class="bond-17 atom-6 atom-7" d="M 137.5,111.2 L 150.7,129.8" style="fill:none;fill-rule:evenodd;stroke:#000000;stroke-width:2.0px;stroke-linecap:butt;stroke-linejoin:miter;stroke-opacity:1"/>
<path class="bond-17 atom-6 atom-7" d="M 135.7,116.6 L 145.0,129.6" style="fill:none;fill-rule:evenodd;stroke:#000000;stroke-width:2.0px;stroke-linecap:butt;stroke-linejoin:miter;stroke-opacity:1"/>
<path class="bond-18 atom-6 atom-34" d="M 137.5,111.2 L 145.1,94.4" style="fill:none;fill-rule:evenodd;stroke:#000000;stroke-width:2.0px;stroke-linecap:butt;stroke-linejoin:miter;stroke-opacity:1"/>
<path class="bond-19 atom-7 atom-8" d="M 150.7,129.8 L 141.3,150.5" style="fill:none;fill-rule:evenodd;stroke:#000000;stroke-width:2.0px;stroke-linecap:butt;stroke-linejoin:miter;stroke-opacity:1"/>
<path class="bond-20 atom-7 atom-23" d="M 150.7,129.8 L 160.5,128.8" style="fill:none;fill-rule:evenodd;stroke:#000000;stroke-width:2.0px;stroke-linecap:butt;stroke-linejoin:miter;stroke-opacity:1"/>
<path class="bond-20 atom-7 atom-23" d="M 160.5,128.8 L 170.3,127.9" style="fill:none;fill-rule:evenodd;stroke:#0000FF;stroke-width:2.0px;stroke-linecap:butt;stroke-linejoin:miter;stroke-opacity:1"/>
<path class="bond-21 atom-8 atom-9" d="M 141.3,150.5 L 118.5,152.7" style="fill:none;fill-rule:evenodd;stroke:#000000;stroke-width:2.0px;stroke-linecap:butt;stroke-linejoin:miter;stroke-opacity:1"/>
<path class="bond-21 atom-8 atom-9" d="M 137.4,146.3 L 121.5,147.9" style="fill:none;fill-rule:evenodd;stroke:#000000;stroke-width:2.0px;stroke-linecap:butt;stroke-linejoin:miter;stroke-opacity:1"/>
<path class="bond-22 atom-8 atom-10" d="M 141.3,150.5 L 154.5,169.1" style="fill:none;fill-rule:evenodd;stroke:#000000;stroke-width:2.0px;stroke-linecap:butt;stroke-linejoin:miter;stroke-opacity:1"/>
<path class="bond-23 atom-9 atom-35" d="M 118.5,152.7 L 110.9,169.5" style="fill:none;fill-rule:evenodd;stroke:#000000;stroke-width:2.0px;stroke-linecap:butt;stroke-linejoin:miter;stroke-opacity:1"/>
<path class="bond-24 atom-10 atom-11" d="M 154.5,169.1 L 150.7,177.5" style="fill:none;fill-rule:evenodd;stroke:#000000;stroke-width:2.0px;stroke-linecap:butt;stroke-linejoin:miter;stroke-opacity:1"/>
<path class="bond-24 atom-10 atom-11" d="M 150.7,177.5 L 146.9,185.9" style="fill:none;fill-rule:evenodd;stroke:#FF0000;stroke-width:2.0px;stroke-linecap:butt;stroke-linejoin:miter;stroke-opacity:1"/>
<path class="bond-25 atom-10 atom-15" d="M 154.5,169.1 L 177.2,166.9" style="fill:none;fill-rule:evenodd;stroke:#000000;stroke-width:2.0px;stroke-linecap:butt;stroke-linejoin:miter;stroke-opacity:1"/>
<path class="bond-26 atom-10 atom-36" d="M 154.5,169.1 L 136.0,173.1 L 135.6,168.7 Z" style="fill:#000000;fill-rule:evenodd;fill-opacity:1;stroke:#000000;stroke-width:1.0px;stroke-linecap:butt;stroke-linejoin:miter;stroke-opacity:1;"/>
<path class="bond-27 atom-11 atom-12" d="M 148.0,194.0 L 153.2,201.2" style="fill:none;fill-rule:evenodd;stroke:#FF0000;stroke-width:2.0px;stroke-linecap:butt;stroke-linejoin:miter;stroke-opacity:1"/>
<path class="bond-27 atom-11 atom-12" d="M 153.2,201.2 L 158.3,208.4" style="fill:none;fill-rule:evenodd;stroke:#000000;stroke-width:2.0px;stroke-linecap:butt;stroke-linejoin:miter;stroke-opacity:1"/>
<path class="bond-28 atom-12 atom-13" d="M 158.3,208.4 L 181.1,206.2" style="fill:none;fill-rule:evenodd;stroke:#000000;stroke-width:2.0px;stroke-linecap:butt;stroke-linejoin:miter;stroke-opacity:1"/>
<path class="bond-29 atom-12 atom-37" d="M 158.3,208.4 L 163.4,226.5" style="fill:none;fill-rule:evenodd;stroke:#000000;stroke-width:2.0px;stroke-linecap:butt;stroke-linejoin:miter;stroke-opacity:1"/>
<path class="bond-30 atom-12 atom-38" d="M 158.3,208.4 L 141.0,216.7" style="fill:none;fill-rule:evenodd;stroke:#000000;stroke-width:2.0px;stroke-linecap:butt;stroke-linejoin:miter;stroke-opacity:1"/>
<path class="bond-31 atom-13 atom-14" d="M 181.1,206.2 L 190.5,185.5" style="fill:none;fill-rule:evenodd;stroke:#000000;stroke-width:2.0px;stroke-linecap:butt;stroke-linejoin:miter;stroke-opacity:1"/>
<path class="bond-32 atom-13 atom-39" d="M 181.1,206.2 L 199.9,211.1" style="fill:none;fill-rule:evenodd;stroke:#000000;stroke-width:2.0px;stroke-linecap:butt;stroke-linejoin:miter;stroke-opacity:1"/>
<path class="bond-33 atom-13 atom-40" d="M 181.1,206.2 L 179.6,225.0" style="fill:none;fill-rule:evenodd;stroke:#000000;stroke-width:2.0px;stroke-linecap:butt;stroke-linejoin:miter;stroke-opacity:1"/>
<path class="bond-34 atom-14 atom-15" d="M 190.5,185.5 L 177.2,166.9" style="fill:none;fill-rule:evenodd;stroke:#000000;stroke-width:2.0px;stroke-linecap:butt;stroke-linejoin:miter;stroke-opacity:1"/>
<path class="bond-35 atom-14 atom-41" d="M 190.5,185.5 L 206.7,175.5" style="fill:none;fill-rule:evenodd;stroke:#000000;stroke-width:2.0px;stroke-linecap:butt;stroke-linejoin:miter;stroke-opacity:1"/>
<path class="bond-36 atom-14 atom-42" d="M 190.5,185.5 L 206.1,196.2" style="fill:none;fill-rule:evenodd;stroke:#000000;stroke-width:2.0px;stroke-linecap:butt;stroke-linejoin:miter;stroke-opacity:1"/>
<path class="bond-37 atom-15 atom-16" d="M 177.2,166.9 L 186.7,146.1" style="fill:none;fill-rule:evenodd;stroke:#000000;stroke-width:2.0px;stroke-linecap:butt;stroke-linejoin:miter;stroke-opacity:1"/>
<path class="bond-38 atom-15 atom-43" d="M 177.2,166.9 L 195.8,162.9 L 196.2,167.2 Z" style="fill:#000000;fill-rule:evenodd;fill-opacity:1;stroke:#000000;stroke-width:1.0px;stroke-linecap:butt;stroke-linejoin:miter;stroke-opacity:1;"/>
<path class="bond-39 atom-16 atom-17" d="M 186.7,146.1 L 202.7,129.8" style="fill:none;fill-rule:evenodd;stroke:#000000;stroke-width:2.0px;stroke-linecap:butt;stroke-linejoin:miter;stroke-opacity:1"/>
<path class="bond-40 atom-16 atom-23" d="M 186.7,146.1 L 181.5,138.8" style="fill:none;fill-rule:evenodd;stroke:#000000;stroke-width:2.0px;stroke-linecap:butt;stroke-linejoin:miter;stroke-opacity:1"/>
<path class="bond-40 atom-16 atom-23" d="M 181.5,138.8 L 176.2,131.5" style="fill:none;fill-rule:evenodd;stroke:#0000FF;stroke-width:2.0px;stroke-linecap:butt;stroke-linejoin:miter;stroke-opacity:1"/>
<path class="bond-41 atom-16 atom-44" d="M 192.2,149.0 L 192.8,147.6" style="fill:none;fill-rule:evenodd;stroke:#000000;stroke-width:1.0px;stroke-linecap:butt;stroke-linejoin:miter;stroke-opacity:1"/>
<path class="bond-41 atom-16 atom-44" d="M 197.8,151.8 L 198.8,149.1" style="fill:none;fill-rule:evenodd;stroke:#000000;stroke-width:1.0px;stroke-linecap:butt;stroke-linejoin:miter;stroke-opacity:1"/>
<path class="bond-41 atom-16 atom-44" d="M 203.3,154.7 L 204.9,150.6" style="fill:none;fill-rule:evenodd;stroke:#000000;stroke-width:1.0px;stroke-linecap:butt;stroke-linejoin:miter;stroke-opacity:1"/>
<path class="bond-42 atom-17 atom-18" d="M 202.7,129.8 L 224.8,135.5" style="fill:none;fill-rule:evenodd;stroke:#000000;stroke-width:2.0px;stroke-linecap:butt;stroke-linejoin:miter;stroke-opacity:1"/>
<path class="bond-42 atom-17 atom-18" d="M 207.1,126.3 L 222.6,130.3" style="fill:none;fill-rule:evenodd;stroke:#000000;stroke-width:2.0px;stroke-linecap:butt;stroke-linejoin:miter;stroke-opacity:1"/>
<path class="bond-43 atom-17 atom-22" d="M 202.7,129.8 L 196.6,107.8" style="fill:none;fill-rule:evenodd;stroke:#000000;stroke-width:2.0px;stroke-linecap:butt;stroke-linejoin:miter;stroke-opacity:1"/>
<path class="bond-44 atom-18 atom-19" d="M 224.8,135.5 L 240.8,119.3" style="fill:none;fill-rule:evenodd;stroke:#000000;stroke-width:2.0px;stroke-linecap:butt;stroke-linejoin:miter;stroke-opacity:1"/>
<path class="bond-45 atom-18 atom-45" d="M 224.8,135.5 L 229.8,153.6" style="fill:none;fill-rule:evenodd;stroke:#000000;stroke-width:2.0px;stroke-linecap:butt;stroke-linejoin:miter;stroke-opacity:1"/>
<path class="bond-46 atom-19 atom-20" d="M 240.8,119.3 L 234.6,97.3" style="fill:none;fill-rule:evenodd;stroke:#000000;stroke-width:2.0px;stroke-linecap:butt;stroke-linejoin:miter;stroke-opacity:1"/>
<path class="bond-46 atom-19 atom-20" d="M 235.4,117.2 L 231.2,101.8" style="fill:none;fill-rule:evenodd;stroke:#000000;stroke-width:2.0px;stroke-linecap:butt;stroke-linejoin:miter;stroke-opacity:1"/>
<path class="bond-47 atom-19 atom-46" d="M 240.8,119.3 L 259.6,124.1" style="fill:none;fill-rule:evenodd;stroke:#000000;stroke-width:2.0px;stroke-linecap:butt;stroke-linejoin:miter;stroke-opacity:1"/>
<path class="bond-48 atom-20 atom-21" d="M 234.6,97.3 L 212.6,91.6" style="fill:none;fill-rule:evenodd;stroke:#000000;stroke-width:2.0px;stroke-linecap:butt;stroke-linejoin:miter;stroke-opacity:1"/>
<path class="bond-49 atom-20 atom-47" d="M 234.6,97.3 L 247.4,84.3" style="fill:none;fill-rule:evenodd;stroke:#000000;stroke-width:2.0px;stroke-linecap:butt;stroke-linejoin:miter;stroke-opacity:1"/>
<path class="bond-50 atom-21 atom-22" d="M 212.6,91.6 L 196.6,107.8" style="fill:none;fill-rule:evenodd;stroke:#000000;stroke-width:2.0px;stroke-linecap:butt;stroke-linejoin:miter;stroke-opacity:1"/>
<path class="bond-50 atom-21 atom-22" d="M 213.4,97.2 L 202.2,108.6" style="fill:none;fill-rule:evenodd;stroke:#000000;stroke-width:2.0px;stroke-linecap:butt;stroke-linejoin:miter;stroke-opacity:1"/>
<path class="bond-51 atom-21 atom-48" d="M 212.6,91.6 L 207.5,73.5" style="fill:none;fill-rule:evenodd;stroke:#000000;stroke-width:2.0px;stroke-linecap:butt;stroke-linejoin:miter;stroke-opacity:1"/>
<path class="bond-52 atom-22 atom-49" d="M 196.6,107.8 L 178.6,100.8" style="fill:none;fill-rule:evenodd;stroke:#000000;stroke-width:2.0px;stroke-linecap:butt;stroke-linejoin:miter;stroke-opacity:1"/>
<path class="bond-53 atom-23 atom-50" d="M 174.7,123.6 L 176.9,116.7" style="fill:none;fill-rule:evenodd;stroke:#0000FF;stroke-width:2.0px;stroke-linecap:butt;stroke-linejoin:miter;stroke-opacity:1"/>
<path class="bond-53 atom-23 atom-50" d="M 176.9,116.7 L 179.0,109.7" style="fill:none;fill-rule:evenodd;stroke:#000000;stroke-width:2.0px;stroke-linecap:butt;stroke-linejoin:miter;stroke-opacity:1"/>
<path class="atom-11" d="M 142.1 189.9 Q 142.1 188.3, 142.9 187.5 Q 143.6 186.6, 145.1 186.6 Q 146.5 186.6, 147.3 187.5 Q 148.0 188.3, 148.0 189.9 Q 148.0 191.5, 147.3 192.3 Q 146.5 193.2, 145.1 193.2 Q 143.7 193.2, 142.9 192.3 Q 142.1 191.5, 142.1 189.9 M 145.1 192.5 Q 146.1 192.5, 146.6 191.8 Q 147.1 191.2, 147.1 189.9 Q 147.1 188.6, 146.6 188.0 Q 146.1 187.3, 145.1 187.3 Q 144.1 187.3, 143.6 188.0 Q 143.0 188.6, 143.0 189.9 Q 143.0 191.2, 143.6 191.8 Q 144.1 192.5, 145.1 192.5 " fill="#FF0000"/>
<path class="atom-23" d="M 172.0 124.3 L 174.1 127.7 Q 174.3 128.1, 174.7 128.7 Q 175.0 129.3, 175.0 129.3 L 175.0 124.3 L 175.9 124.3 L 175.9 130.8 L 175.0 130.8 L 172.7 127.0 Q 172.5 126.6, 172.2 126.1 Q 171.9 125.6, 171.8 125.4 L 171.8 130.8 L 171.0 130.8 L 171.0 124.3 L 172.0 124.3 " fill="#0000FF"/>
<path class="atom-24" d="M 69.1 158.8 L 70.0 158.8 L 70.0 161.5 L 73.3 161.5 L 73.3 158.8 L 74.1 158.8 L 74.1 165.2 L 73.3 165.2 L 73.3 162.2 L 70.0 162.2 L 70.0 165.2 L 69.1 165.2 L 69.1 158.8 " fill="#000000"/>
<path class="atom-25" d="M 104.8 159.2 L 105.7 159.2 L 105.7 161.9 L 109.0 161.9 L 109.0 159.2 L 109.9 159.2 L 109.9 165.7 L 109.0 165.7 L 109.0 162.7 L 105.7 162.7 L 105.7 165.7 L 104.8 165.7 L 104.8 159.2 " fill="#000000"/>
<path class="atom-26" d="M 84.4 178.6 L 85.3 178.6 L 85.3 181.3 L 88.6 181.3 L 88.6 178.6 L 89.5 178.6 L 89.5 185.0 L 88.6 185.0 L 88.6 182.0 L 85.3 182.0 L 85.3 185.0 L 84.4 185.0 L 84.4 178.6 " fill="#000000"/>
<path class="atom-27" d="M 64.4 110.1 L 65.2 110.1 L 65.2 112.8 L 68.6 112.8 L 68.6 110.1 L 69.4 110.1 L 69.4 116.5 L 68.6 116.5 L 68.6 113.5 L 65.2 113.5 L 65.2 116.5 L 64.4 116.5 L 64.4 110.1 " fill="#000000"/>
<path class="atom-28" d="M 90.5 105.9 L 91.4 105.9 L 91.4 108.7 L 94.7 108.7 L 94.7 105.9 L 95.6 105.9 L 95.6 112.4 L 94.7 112.4 L 94.7 109.4 L 91.4 109.4 L 91.4 112.4 L 90.5 112.4 L 90.5 105.9 " fill="#000000"/>
<path class="atom-29" d="M 75.6 87.7 L 76.5 87.7 L 76.5 90.4 L 79.8 90.4 L 79.8 87.7 L 80.7 87.7 L 80.7 94.2 L 79.8 94.2 L 79.8 91.2 L 76.5 91.2 L 76.5 94.2 L 75.6 94.2 L 75.6 87.7 " fill="#000000"/>
<path class="atom-30" d="M 54.4 122.2 L 55.3 122.2 L 55.3 124.9 L 58.6 124.9 L 58.6 122.2 L 59.5 122.2 L 59.5 128.6 L 58.6 128.6 L 58.6 125.6 L 55.3 125.6 L 55.3 128.6 L 54.4 128.6 L 54.4 122.2 " fill="#000000"/>
<path class="atom-31" d="M 57.0 148.8 L 57.9 148.8 L 57.9 151.5 L 61.2 151.5 L 61.2 148.8 L 62.0 148.8 L 62.0 155.3 L 61.2 155.3 L 61.2 152.3 L 57.9 152.3 L 57.9 155.3 L 57.0 155.3 L 57.0 148.8 " fill="#000000"/>
<path class="atom-32" d="M 34.6 137.5 L 35.5 137.5 L 35.5 140.3 L 38.8 140.3 L 38.8 137.5 L 39.7 137.5 L 39.7 144.0 L 38.8 144.0 L 38.8 141.0 L 35.5 141.0 L 35.5 144.0 L 34.6 144.0 L 34.6 137.5 " fill="#000000"/>
<path class="atom-33" d="M 104.4 99.2 L 105.3 99.2 L 105.3 101.9 L 108.6 101.9 L 108.6 99.2 L 109.4 99.2 L 109.4 105.6 L 108.6 105.6 L 108.6 102.7 L 105.3 102.7 L 105.3 105.6 L 104.4 105.6 L 104.4 99.2 " fill="#000000"/>
<path class="atom-34" d="M 144.4 87.2 L 145.3 87.2 L 145.3 89.9 L 148.6 89.9 L 148.6 87.2 L 149.4 87.2 L 149.4 93.6 L 148.6 93.6 L 148.6 90.7 L 145.3 90.7 L 145.3 93.6 L 144.4 93.6 L 144.4 87.2 " fill="#000000"/>
<path class="atom-35" d="M 106.6 170.3 L 107.4 170.3 L 107.4 173.0 L 110.8 173.0 L 110.8 170.3 L 111.6 170.3 L 111.6 176.7 L 110.8 176.7 L 110.8 173.7 L 107.4 173.7 L 107.4 176.7 L 106.6 176.7 L 106.6 170.3 " fill="#000000"/>
<path class="atom-36" d="M 129.3 168.1 L 130.2 168.1 L 130.2 170.8 L 133.5 170.8 L 133.5 168.1 L 134.3 168.1 L 134.3 174.5 L 133.5 174.5 L 133.5 171.5 L 130.2 171.5 L 130.2 174.5 L 129.3 174.5 L 129.3 168.1 " fill="#000000"/>
<path class="atom-37" d="M 161.9 227.2 L 162.8 227.2 L 162.8 229.9 L 166.1 229.9 L 166.1 227.2 L 167.0 227.2 L 167.0 233.7 L 166.1 233.7 L 166.1 230.7 L 162.8 230.7 L 162.8 233.7 L 161.9 233.7 L 161.9 227.2 " fill="#000000"/>
<path class="atom-38" d="M 135.2 215.0 L 136.1 215.0 L 136.1 217.8 L 139.4 217.8 L 139.4 215.0 L 140.3 215.0 L 140.3 221.5 L 139.4 221.5 L 139.4 218.5 L 136.1 218.5 L 136.1 221.5 L 135.2 221.5 L 135.2 215.0 " fill="#000000"/>
<path class="atom-39" d="M 200.6 208.7 L 201.5 208.7 L 201.5 211.5 L 204.8 211.5 L 204.8 208.7 L 205.7 208.7 L 205.7 215.2 L 204.8 215.2 L 204.8 212.2 L 201.5 212.2 L 201.5 215.2 L 200.6 215.2 L 200.6 208.7 " fill="#000000"/>
<path class="atom-40" d="M 176.7 225.8 L 177.6 225.8 L 177.6 228.5 L 180.9 228.5 L 180.9 225.8 L 181.8 225.8 L 181.8 232.2 L 180.9 232.2 L 180.9 229.2 L 177.6 229.2 L 177.6 232.2 L 176.7 232.2 L 176.7 225.8 " fill="#000000"/>
<path class="atom-41" d="M 207.4 170.3 L 208.3 170.3 L 208.3 173.0 L 211.6 173.0 L 211.6 170.3 L 212.5 170.3 L 212.5 176.8 L 211.6 176.8 L 211.6 173.8 L 208.3 173.8 L 208.3 176.8 L 207.4 176.8 L 207.4 170.3 " fill="#000000"/>
<path class="atom-42" d="M 206.8 195.1 L 207.7 195.1 L 207.7 197.9 L 211.0 197.9 L 211.0 195.1 L 211.8 195.1 L 211.8 201.6 L 211.0 201.6 L 211.0 198.6 L 207.7 198.6 L 207.7 201.6 L 206.8 201.6 L 206.8 195.1 " fill="#000000"/>
<path class="atom-43" d="M 197.4 161.5 L 198.3 161.5 L 198.3 164.2 L 201.6 164.2 L 201.6 161.5 L 202.5 161.5 L 202.5 167.9 L 201.6 167.9 L 201.6 164.9 L 198.3 164.9 L 198.3 167.9 L 197.4 167.9 L 197.4 161.5 " fill="#000000"/>
<path class="atom-44" d="M 205.5 150.9 L 206.4 150.9 L 206.4 153.6 L 209.7 153.6 L 209.7 150.9 L 210.6 150.9 L 210.6 157.3 L 209.7 157.3 L 209.7 154.3 L 206.4 154.3 L 206.4 157.3 L 205.5 157.3 L 205.5 150.9 " fill="#000000"/>
<path class="atom-45" d="M 228.4 154.3 L 229.2 154.3 L 229.2 157.0 L 232.5 157.0 L 232.5 154.3 L 233.4 154.3 L 233.4 160.8 L 232.5 160.8 L 232.5 157.8 L 229.2 157.8 L 229.2 160.8 L 228.4 160.8 L 228.4 154.3 " fill="#000000"/>
<path class="atom-46" d="M 260.3 121.7 L 261.2 121.7 L 261.2 124.5 L 264.5 124.5 L 264.5 121.7 L 265.4 121.7 L 265.4 128.2 L 264.5 128.2 L 264.5 125.2 L 261.2 125.2 L 261.2 128.2 L 260.3 128.2 L 260.3 121.7 " fill="#000000"/>
<path class="atom-47" d="M 248.1 77.7 L 249.0 77.7 L 249.0 80.5 L 252.3 80.5 L 252.3 77.7 L 253.2 77.7 L 253.2 84.2 L 252.3 84.2 L 252.3 81.2 L 249.0 81.2 L 249.0 84.2 L 248.1 84.2 L 248.1 77.7 " fill="#000000"/>
<path class="atom-48" d="M 203.9 66.3 L 204.8 66.3 L 204.8 69.1 L 208.1 69.1 L 208.1 66.3 L 209.0 66.3 L 209.0 72.8 L 208.1 72.8 L 208.1 69.8 L 204.8 69.8 L 204.8 72.8 L 203.9 72.8 L 203.9 66.3 " fill="#000000"/>
<path class="atom-49" d="M 172.8 96.3 L 173.7 96.3 L 173.7 99.0 L 177.0 99.0 L 177.0 96.3 L 177.9 96.3 L 177.9 102.7 L 177.0 102.7 L 177.0 99.7 L 173.7 99.7 L 173.7 102.7 L 172.8 102.7 L 172.8 96.3 " fill="#000000"/>
<path class="atom-50" d="M 177.7 102.6 L 178.6 102.6 L 178.6 105.3 L 181.9 105.3 L 181.9 102.6 L 182.8 102.6 L 182.8 109.0 L 181.9 109.0 L 181.9 106.0 L 178.6 106.0 L 178.6 109.0 L 177.7 109.0 L 177.7 102.6 " fill="#000000"/>
<path class="bond-0 atom-0 atom-1" d="M 390.3,165.6 L 386.2,143.2" style="fill:none;fill-rule:evenodd;stroke:#000000;stroke-width:2.0px;stroke-linecap:butt;stroke-linejoin:miter;stroke-opacity:1"/>
<path class="bond-1 atom-0 atom-23" d="M 390.3,165.6 L 380.6,168.6" style="fill:none;fill-rule:evenodd;stroke:#000000;stroke-width:2.0px;stroke-linecap:butt;stroke-linejoin:miter;stroke-opacity:1"/>
<path class="bond-2 atom-0 atom-24" d="M 390.3,165.6 L 409.8,166.9" style="fill:none;fill-rule:evenodd;stroke:#000000;stroke-width:2.0px;stroke-linecap:butt;stroke-linejoin:miter;stroke-opacity:1"/>
<path class="bond-3 atom-0 atom-25" d="M 390.3,165.6 L 393.6,184.2" style="fill:none;fill-rule:evenodd;stroke:#000000;stroke-width:2.0px;stroke-linecap:butt;stroke-linejoin:miter;stroke-opacity:1"/>
<path class="bond-4 atom-1 atom-2" d="M 386.2,143.2 L 382.1,120.7" style="fill:none;fill-rule:evenodd;stroke:#000000;stroke-width:2.0px;stroke-linecap:butt;stroke-linejoin:miter;stroke-opacity:1"/>
<path class="bond-5 atom-1 atom-3" d="M 386.2,143.2 L 363.7,147.2" style="fill:none;fill-rule:evenodd;stroke:#000000;stroke-width:2.0px;stroke-linecap:butt;stroke-linejoin:miter;stroke-opacity:1"/>
<path class="bond-6 atom-1 atom-4" d="M 386.2,143.2 L 408.7,139.1" style="fill:none;fill-rule:evenodd;stroke:#000000;stroke-width:2.0px;stroke-linecap:butt;stroke-linejoin:miter;stroke-opacity:1"/>
<path class="bond-7 atom-2 atom-26" d="M 382.1,120.7 L 371.9,121.3" style="fill:none;fill-rule:evenodd;stroke:#000000;stroke-width:2.0px;stroke-linecap:butt;stroke-linejoin:miter;stroke-opacity:1"/>
<path class="bond-8 atom-2 atom-27" d="M 382.1,120.7 L 391.2,116.7" style="fill:none;fill-rule:evenodd;stroke:#000000;stroke-width:2.0px;stroke-linecap:butt;stroke-linejoin:miter;stroke-opacity:1"/>
<path class="bond-9 atom-2 atom-28" d="M 382.1,120.7 L 378.8,102.2" style="fill:none;fill-rule:evenodd;stroke:#000000;stroke-width:2.0px;stroke-linecap:butt;stroke-linejoin:miter;stroke-opacity:1"/>
<path class="bond-10 atom-3 atom-29" d="M 363.7,147.2 L 361.0,138.3" style="fill:none;fill-rule:evenodd;stroke:#000000;stroke-width:2.0px;stroke-linecap:butt;stroke-linejoin:miter;stroke-opacity:1"/>
<path class="bond-11 atom-3 atom-30" d="M 363.7,147.2 L 364.3,156.7" style="fill:none;fill-rule:evenodd;stroke:#000000;stroke-width:2.0px;stroke-linecap:butt;stroke-linejoin:miter;stroke-opacity:1"/>
<path class="bond-12 atom-3 atom-31" d="M 363.7,147.2 L 344.5,150.7" style="fill:none;fill-rule:evenodd;stroke:#000000;stroke-width:2.0px;stroke-linecap:butt;stroke-linejoin:miter;stroke-opacity:1"/>
<path class="bond-13 atom-4 atom-5" d="M 408.7,139.1 L 416.4,117.7" style="fill:none;fill-rule:evenodd;stroke:#000000;stroke-width:2.0px;stroke-linecap:butt;stroke-linejoin:miter;stroke-opacity:1"/>
<path class="bond-13 atom-4 atom-5" d="M 414.1,137.5 L 419.5,122.4" style="fill:none;fill-rule:evenodd;stroke:#000000;stroke-width:2.0px;stroke-linecap:butt;stroke-linejoin:miter;stroke-opacity:1"/>
<path class="bond-14 atom-4 atom-9" d="M 408.7,139.1 L 423.4,156.6" style="fill:none;fill-rule:evenodd;stroke:#000000;stroke-width:2.0px;stroke-linecap:butt;stroke-linejoin:miter;stroke-opacity:1"/>
<path class="bond-15 atom-5 atom-6" d="M 416.4,117.7 L 438.8,113.6" style="fill:none;fill-rule:evenodd;stroke:#000000;stroke-width:2.0px;stroke-linecap:butt;stroke-linejoin:miter;stroke-opacity:1"/>
<path class="bond-16 atom-5 atom-32" d="M 416.4,117.7 L 410.9,111.2" style="fill:none;fill-rule:evenodd;stroke:#000000;stroke-width:2.0px;stroke-linecap:butt;stroke-linejoin:miter;stroke-opacity:1"/>
<path class="bond-17 atom-6 atom-7" d="M 438.8,113.6 L 453.6,131.0" style="fill:none;fill-rule:evenodd;stroke:#000000;stroke-width:2.0px;stroke-linecap:butt;stroke-linejoin:miter;stroke-opacity:1"/>
<path class="bond-17 atom-6 atom-7" d="M 437.6,119.2 L 447.9,131.4" style="fill:none;fill-rule:evenodd;stroke:#000000;stroke-width:2.0px;stroke-linecap:butt;stroke-linejoin:miter;stroke-opacity:1"/>
<path class="bond-18 atom-6 atom-33" d="M 438.8,113.6 L 445.1,96.1" style="fill:none;fill-rule:evenodd;stroke:#000000;stroke-width:2.0px;stroke-linecap:butt;stroke-linejoin:miter;stroke-opacity:1"/>
<path class="bond-19 atom-7 atom-8" d="M 453.6,131.0 L 445.9,152.5" style="fill:none;fill-rule:evenodd;stroke:#000000;stroke-width:2.0px;stroke-linecap:butt;stroke-linejoin:miter;stroke-opacity:1"/>
<path class="bond-20 atom-7 atom-22" d="M 453.6,131.0 L 463.2,129.3" style="fill:none;fill-rule:evenodd;stroke:#000000;stroke-width:2.0px;stroke-linecap:butt;stroke-linejoin:miter;stroke-opacity:1"/>
<path class="bond-20 atom-7 atom-22" d="M 463.2,129.3 L 472.9,127.5" style="fill:none;fill-rule:evenodd;stroke:#0000FF;stroke-width:2.0px;stroke-linecap:butt;stroke-linejoin:miter;stroke-opacity:1"/>
<path class="bond-21 atom-8 atom-9" d="M 445.9,152.5 L 423.4,156.6" style="fill:none;fill-rule:evenodd;stroke:#000000;stroke-width:2.0px;stroke-linecap:butt;stroke-linejoin:miter;stroke-opacity:1"/>
<path class="bond-21 atom-8 atom-9" d="M 441.7,148.6 L 426.0,151.5" style="fill:none;fill-rule:evenodd;stroke:#000000;stroke-width:2.0px;stroke-linecap:butt;stroke-linejoin:miter;stroke-opacity:1"/>
<path class="bond-22 atom-8 atom-10" d="M 445.9,152.5 L 460.6,169.9" style="fill:none;fill-rule:evenodd;stroke:#000000;stroke-width:2.0px;stroke-linecap:butt;stroke-linejoin:miter;stroke-opacity:1"/>
<path class="bond-23 atom-9 atom-34" d="M 423.4,156.6 L 417.1,174.1" style="fill:none;fill-rule:evenodd;stroke:#000000;stroke-width:2.0px;stroke-linecap:butt;stroke-linejoin:miter;stroke-opacity:1"/>
<path class="bond-24 atom-10 atom-11" d="M 460.6,169.9 L 457.5,178.7" style="fill:none;fill-rule:evenodd;stroke:#000000;stroke-width:2.0px;stroke-linecap:butt;stroke-linejoin:miter;stroke-opacity:1"/>
<path class="bond-24 atom-10 atom-11" d="M 457.5,178.7 L 454.3,187.4" style="fill:none;fill-rule:evenodd;stroke:#FF0000;stroke-width:2.0px;stroke-linecap:butt;stroke-linejoin:miter;stroke-opacity:1"/>
<path class="bond-25 atom-10 atom-15" d="M 460.6,169.9 L 483.1,165.9" style="fill:none;fill-rule:evenodd;stroke:#000000;stroke-width:2.0px;stroke-linecap:butt;stroke-linejoin:miter;stroke-opacity:1"/>
<path class="bond-26 atom-10 atom-35" d="M 460.6,169.9 L 442.5,175.4 L 441.7,171.1 Z" style="fill:#000000;fill-rule:evenodd;fill-opacity:1;stroke:#000000;stroke-width:1.0px;stroke-linecap:butt;stroke-linejoin:miter;stroke-opacity:1;"/>
<path class="bond-27 atom-11 atom-12" d="M 456.3,195.5 L 462.0,202.1" style="fill:none;fill-rule:evenodd;stroke:#FF0000;stroke-width:2.0px;stroke-linecap:butt;stroke-linejoin:miter;stroke-opacity:1"/>
<path class="bond-27 atom-11 atom-12" d="M 462.0,202.1 L 467.6,208.8" style="fill:none;fill-rule:evenodd;stroke:#000000;stroke-width:2.0px;stroke-linecap:butt;stroke-linejoin:miter;stroke-opacity:1"/>
<path class="bond-28 atom-12 atom-13" d="M 467.6,208.8 L 490.1,204.8" style="fill:none;fill-rule:evenodd;stroke:#000000;stroke-width:2.0px;stroke-linecap:butt;stroke-linejoin:miter;stroke-opacity:1"/>
<path class="bond-29 atom-12 atom-36" d="M 467.6,208.8 L 474.1,226.3" style="fill:none;fill-rule:evenodd;stroke:#000000;stroke-width:2.0px;stroke-linecap:butt;stroke-linejoin:miter;stroke-opacity:1"/>
<path class="bond-30 atom-12 atom-37" d="M 467.6,208.8 L 451.2,218.4" style="fill:none;fill-rule:evenodd;stroke:#000000;stroke-width:2.0px;stroke-linecap:butt;stroke-linejoin:miter;stroke-opacity:1"/>
<path class="bond-31 atom-13 atom-14" d="M 490.1,204.8 L 497.8,183.3" style="fill:none;fill-rule:evenodd;stroke:#000000;stroke-width:2.0px;stroke-linecap:butt;stroke-linejoin:miter;stroke-opacity:1"/>
<path class="bond-32 atom-13 atom-38" d="M 490.1,204.8 L 509.3,208.1" style="fill:none;fill-rule:evenodd;stroke:#000000;stroke-width:2.0px;stroke-linecap:butt;stroke-linejoin:miter;stroke-opacity:1"/>
<path class="bond-33 atom-13 atom-39" d="M 490.1,204.8 L 490.2,223.6" style="fill:none;fill-rule:evenodd;stroke:#000000;stroke-width:2.0px;stroke-linecap:butt;stroke-linejoin:miter;stroke-opacity:1"/>
<path class="bond-34 atom-14 atom-15" d="M 497.8,183.3 L 483.1,165.9" style="fill:none;fill-rule:evenodd;stroke:#000000;stroke-width:2.0px;stroke-linecap:butt;stroke-linejoin:miter;stroke-opacity:1"/>
<path class="bond-35 atom-14 atom-40" d="M 497.8,183.3 L 513.0,172.2" style="fill:none;fill-rule:evenodd;stroke:#000000;stroke-width:2.0px;stroke-linecap:butt;stroke-linejoin:miter;stroke-opacity:1"/>
<path class="bond-36 atom-14 atom-41" d="M 497.8,183.3 L 514.4,192.8" style="fill:none;fill-rule:evenodd;stroke:#000000;stroke-width:2.0px;stroke-linecap:butt;stroke-linejoin:miter;stroke-opacity:1"/>
<path class="bond-37 atom-15 atom-16" d="M 483.1,165.9 L 490.8,144.4" style="fill:none;fill-rule:evenodd;stroke:#000000;stroke-width:2.0px;stroke-linecap:butt;stroke-linejoin:miter;stroke-opacity:1"/>
<path class="bond-38 atom-15 atom-42" d="M 483.1,165.9 L 501.2,160.4 L 501.9,164.7 Z" style="fill:#000000;fill-rule:evenodd;fill-opacity:1;stroke:#000000;stroke-width:1.0px;stroke-linecap:butt;stroke-linejoin:miter;stroke-opacity:1;"/>
<path class="bond-39 atom-16 atom-17" d="M 490.8,144.4 L 505.4,126.8" style="fill:none;fill-rule:evenodd;stroke:#000000;stroke-width:2.0px;stroke-linecap:butt;stroke-linejoin:miter;stroke-opacity:1"/>
<path class="bond-40 atom-16 atom-22" d="M 490.8,144.4 L 485.0,137.5" style="fill:none;fill-rule:evenodd;stroke:#000000;stroke-width:2.0px;stroke-linecap:butt;stroke-linejoin:miter;stroke-opacity:1"/>
<path class="bond-40 atom-16 atom-22" d="M 485.0,137.5 L 479.2,130.7" style="fill:none;fill-rule:evenodd;stroke:#0000FF;stroke-width:2.0px;stroke-linecap:butt;stroke-linejoin:miter;stroke-opacity:1"/>
<path class="bond-41 atom-16 atom-43" d="M 496.6,146.8 L 497.0,145.4" style="fill:none;fill-rule:evenodd;stroke:#000000;stroke-width:1.0px;stroke-linecap:butt;stroke-linejoin:miter;stroke-opacity:1"/>
<path class="bond-41 atom-16 atom-43" d="M 502.4,149.2 L 503.2,146.4" style="fill:none;fill-rule:evenodd;stroke:#000000;stroke-width:1.0px;stroke-linecap:butt;stroke-linejoin:miter;stroke-opacity:1"/>
<path class="bond-41 atom-16 atom-43" d="M 508.2,151.6 L 509.4,147.4" style="fill:none;fill-rule:evenodd;stroke:#000000;stroke-width:1.0px;stroke-linecap:butt;stroke-linejoin:miter;stroke-opacity:1"/>
<path class="bond-42 atom-17 atom-18" d="M 505.4,126.8 L 499.8,104.7" style="fill:none;fill-rule:evenodd;stroke:#000000;stroke-width:2.0px;stroke-linecap:butt;stroke-linejoin:miter;stroke-opacity:1"/>
<path class="bond-42 atom-17 atom-18" d="M 508.9,122.4 L 505.0,106.9" style="fill:none;fill-rule:evenodd;stroke:#000000;stroke-width:2.0px;stroke-linecap:butt;stroke-linejoin:miter;stroke-opacity:1"/>
<path class="bond-43 atom-17 atom-21" d="M 505.4,126.8 L 515.4,127.5" style="fill:none;fill-rule:evenodd;stroke:#000000;stroke-width:2.0px;stroke-linecap:butt;stroke-linejoin:miter;stroke-opacity:1"/>
<path class="bond-43 atom-17 atom-21" d="M 515.4,127.5 L 525.3,128.2" style="fill:none;fill-rule:evenodd;stroke:#CCCC00;stroke-width:2.0px;stroke-linecap:butt;stroke-linejoin:miter;stroke-opacity:1"/>
<path class="bond-44 atom-18 atom-19" d="M 499.8,104.7 L 519.1,92.5" style="fill:none;fill-rule:evenodd;stroke:#000000;stroke-width:2.0px;stroke-linecap:butt;stroke-linejoin:miter;stroke-opacity:1"/>
<path class="bond-45 atom-18 atom-44" d="M 499.8,104.7 L 483.0,95.5" style="fill:none;fill-rule:evenodd;stroke:#000000;stroke-width:2.0px;stroke-linecap:butt;stroke-linejoin:miter;stroke-opacity:1"/>
<path class="bond-46 atom-19 atom-20" d="M 519.1,92.5 L 536.6,107.1" style="fill:none;fill-rule:evenodd;stroke:#000000;stroke-width:2.0px;stroke-linecap:butt;stroke-linejoin:miter;stroke-opacity:1"/>
<path class="bond-46 atom-19 atom-20" d="M 518.8,98.2 L 531.0,108.5" style="fill:none;fill-rule:evenodd;stroke:#000000;stroke-width:2.0px;stroke-linecap:butt;stroke-linejoin:miter;stroke-opacity:1"/>
<path class="bond-47 atom-19 atom-45" d="M 519.1,92.5 L 520.3,73.7" style="fill:none;fill-rule:evenodd;stroke:#000000;stroke-width:2.0px;stroke-linecap:butt;stroke-linejoin:miter;stroke-opacity:1"/>
<path class="bond-48 atom-20 atom-21" d="M 536.6,107.1 L 533.2,115.8" style="fill:none;fill-rule:evenodd;stroke:#000000;stroke-width:2.0px;stroke-linecap:butt;stroke-linejoin:miter;stroke-opacity:1"/>
<path class="bond-48 atom-20 atom-21" d="M 533.2,115.8 L 529.7,124.4" style="fill:none;fill-rule:evenodd;stroke:#CCCC00;stroke-width:2.0px;stroke-linecap:butt;stroke-linejoin:miter;stroke-opacity:1"/>
<path class="bond-49 atom-20 atom-46" d="M 536.6,107.1 L 555.5,102.4" style="fill:none;fill-rule:evenodd;stroke:#000000;stroke-width:2.0px;stroke-linecap:butt;stroke-linejoin:miter;stroke-opacity:1"/>
<path class="bond-50 atom-22 atom-47" d="M 476.9,123.0 L 478.5,115.8" style="fill:none;fill-rule:evenodd;stroke:#0000FF;stroke-width:2.0px;stroke-linecap:butt;stroke-linejoin:miter;stroke-opacity:1"/>
<path class="bond-50 atom-22 atom-47" d="M 478.5,115.8 L 480.2,108.7" style="fill:none;fill-rule:evenodd;stroke:#000000;stroke-width:2.0px;stroke-linecap:butt;stroke-linejoin:miter;stroke-opacity:1"/>
<path class="atom-11" d="M 449.9 191.4 Q 449.9 189.9, 450.7 189.0 Q 451.4 188.1, 452.9 188.1 Q 454.3 188.1, 455.1 189.0 Q 455.8 189.9, 455.8 191.4 Q 455.8 193.0, 455.1 193.9 Q 454.3 194.8, 452.9 194.8 Q 451.5 194.8, 450.7 193.9 Q 449.9 193.0, 449.9 191.4 M 452.9 194.0 Q 453.9 194.0, 454.4 193.4 Q 454.9 192.7, 454.9 191.4 Q 454.9 190.1, 454.4 189.5 Q 453.9 188.9, 452.9 188.9 Q 451.9 188.9, 451.4 189.5 Q 450.8 190.1, 450.8 191.4 Q 450.8 192.7, 451.4 193.4 Q 451.9 194.0, 452.9 194.0 " fill="#FF0000"/>
<path class="atom-21" d="M 526.3 130.6 Q 526.4 130.6, 526.7 130.7 Q 527.0 130.8, 527.3 130.9 Q 527.7 131.0, 528.0 131.0 Q 528.6 131.0, 528.9 130.7 Q 529.3 130.4, 529.3 129.9 Q 529.3 129.5, 529.1 129.3 Q 528.9 129.1, 528.7 129.0 Q 528.4 128.8, 527.9 128.7 Q 527.4 128.5, 527.0 128.4 Q 526.7 128.2, 526.4 127.9 Q 526.2 127.5, 526.2 126.9 Q 526.2 126.1, 526.7 125.6 Q 527.3 125.1, 528.4 125.1 Q 529.1 125.1, 530.0 125.5 L 529.8 126.2 Q 529.0 125.9, 528.4 125.9 Q 527.8 125.9, 527.5 126.1 Q 527.1 126.4, 527.1 126.8 Q 527.1 127.2, 527.3 127.4 Q 527.5 127.6, 527.7 127.7 Q 528.0 127.8, 528.4 128.0 Q 529.0 128.1, 529.4 128.3 Q 529.7 128.5, 530.0 128.9 Q 530.2 129.3, 530.2 129.9 Q 530.2 130.8, 529.6 131.3 Q 529.0 131.7, 528.0 131.7 Q 527.4 131.7, 527.0 131.6 Q 526.6 131.5, 526.1 131.3 L 526.3 130.6 " fill="#CCCC00"/>
<path class="atom-22" d="M 474.6 123.7 L 476.7 127.2 Q 476.9 127.5, 477.3 128.1 Q 477.6 128.7, 477.6 128.8 L 477.6 123.7 L 478.5 123.7 L 478.5 130.2 L 477.6 130.2 L 475.3 126.5 Q 475.1 126.0, 474.8 125.5 Q 474.5 125.0, 474.4 124.9 L 474.4 130.2 L 473.6 130.2 L 473.6 123.7 L 474.6 123.7 " fill="#0000FF"/>
<path class="atom-23" d="M 374.9 166.4 L 375.7 166.4 L 375.7 169.2 L 379.0 169.2 L 379.0 166.4 L 379.9 166.4 L 379.9 172.9 L 379.0 172.9 L 379.0 169.9 L 375.7 169.9 L 375.7 172.9 L 374.9 172.9 L 374.9 166.4 " fill="#000000"/>
<path class="atom-24" d="M 410.5 163.9 L 411.4 163.9 L 411.4 166.7 L 414.7 166.7 L 414.7 163.9 L 415.6 163.9 L 415.6 170.4 L 414.7 170.4 L 414.7 167.4 L 411.4 167.4 L 411.4 170.4 L 410.5 170.4 L 410.5 163.9 " fill="#000000"/>
<path class="atom-25" d="M 391.8 184.9 L 392.7 184.9 L 392.7 187.6 L 396.0 187.6 L 396.0 184.9 L 396.8 184.9 L 396.8 191.3 L 396.0 191.3 L 396.0 188.3 L 392.7 188.3 L 392.7 191.3 L 391.8 191.3 L 391.8 184.9 " fill="#000000"/>
<path class="atom-26" d="M 366.2 118.3 L 367.0 118.3 L 367.0 121.0 L 370.3 121.0 L 370.3 118.3 L 371.2 118.3 L 371.2 124.7 L 370.3 124.7 L 370.3 121.7 L 367.0 121.7 L 367.0 124.7 L 366.2 124.7 L 366.2 118.3 " fill="#000000"/>
<path class="atom-27" d="M 391.9 112.0 L 392.8 112.0 L 392.8 114.7 L 396.1 114.7 L 396.1 112.0 L 397.0 112.0 L 397.0 118.4 L 396.1 118.4 L 396.1 115.4 L 392.8 115.4 L 392.8 118.4 L 391.9 118.4 L 391.9 112.0 " fill="#000000"/>
<path class="atom-28" d="M 375.6 95.0 L 376.4 95.0 L 376.4 97.8 L 379.7 97.8 L 379.7 95.0 L 380.6 95.0 L 380.6 101.5 L 379.7 101.5 L 379.7 98.5 L 376.4 98.5 L 376.4 101.5 L 375.6 101.5 L 375.6 95.0 " fill="#000000"/>
<path class="atom-29" d="M 357.2 131.1 L 358.1 131.1 L 358.1 133.9 L 361.4 133.9 L 361.4 131.1 L 362.3 131.1 L 362.3 137.6 L 361.4 137.6 L 361.4 134.6 L 358.1 134.6 L 358.1 137.6 L 357.2 137.6 L 357.2 131.1 " fill="#000000"/>
<path class="atom-30" d="M 362.0 157.5 L 362.9 157.5 L 362.9 160.2 L 366.2 160.2 L 366.2 157.5 L 367.0 157.5 L 367.0 163.9 L 366.2 163.9 L 366.2 160.9 L 362.9 160.9 L 362.9 163.9 L 362.0 163.9 L 362.0 157.5 " fill="#000000"/>
<path class="atom-31" d="M 338.8 148.1 L 339.6 148.1 L 339.6 150.8 L 342.9 150.8 L 342.9 148.1 L 343.8 148.1 L 343.8 154.5 L 342.9 154.5 L 342.9 151.5 L 339.6 151.5 L 339.6 154.5 L 338.8 154.5 L 338.8 148.1 " fill="#000000"/>
<path class="atom-32" d="M 405.1 104.1 L 406.0 104.1 L 406.0 106.9 L 409.3 106.9 L 409.3 104.1 L 410.2 104.1 L 410.2 110.6 L 409.3 110.6 L 409.3 107.6 L 406.0 107.6 L 406.0 110.6 L 405.1 110.6 L 405.1 104.1 " fill="#000000"/>
<path class="atom-33" d="M 444.0 88.9 L 444.9 88.9 L 444.9 91.6 L 448.2 91.6 L 448.2 88.9 L 449.1 88.9 L 449.1 95.4 L 448.2 95.4 L 448.2 92.4 L 444.9 92.4 L 444.9 95.4 L 444.0 95.4 L 444.0 88.9 " fill="#000000"/>
<path class="atom-34" d="M 413.2 174.8 L 414.0 174.8 L 414.0 177.5 L 417.3 177.5 L 417.3 174.8 L 418.2 174.8 L 418.2 181.3 L 417.3 181.3 L 417.3 178.3 L 414.0 178.3 L 414.0 181.3 L 413.2 181.3 L 413.2 174.8 " fill="#000000"/>
<path class="atom-35" d="M 435.6 170.7 L 436.5 170.7 L 436.5 173.5 L 439.8 173.5 L 439.8 170.7 L 440.7 170.7 L 440.7 177.2 L 439.8 177.2 L 439.8 174.2 L 436.5 174.2 L 436.5 177.2 L 435.6 177.2 L 435.6 170.7 " fill="#000000"/>
<path class="atom-36" d="M 473.0 227.0 L 473.9 227.0 L 473.9 229.7 L 477.2 229.7 L 477.2 227.0 L 478.0 227.0 L 478.0 233.5 L 477.2 233.5 L 477.2 230.5 L 473.9 230.5 L 473.9 233.5 L 473.0 233.5 L 473.0 227.0 " fill="#000000"/>
<path class="atom-37" d="M 445.4 217.1 L 446.3 217.1 L 446.3 219.8 L 449.6 219.8 L 449.6 217.1 L 450.4 217.1 L 450.4 223.5 L 449.6 223.5 L 449.6 220.6 L 446.3 220.6 L 446.3 223.5 L 445.4 223.5 L 445.4 217.1 " fill="#000000"/>
<path class="atom-38" d="M 510.0 205.4 L 510.9 205.4 L 510.9 208.1 L 514.2 208.1 L 514.2 205.4 L 515.1 205.4 L 515.1 211.9 L 514.2 211.9 L 514.2 208.9 L 510.9 208.9 L 510.9 211.9 L 510.0 211.9 L 510.0 205.4 " fill="#000000"/>
<path class="atom-39" d="M 487.6 224.3 L 488.5 224.3 L 488.5 227.1 L 491.8 227.1 L 491.8 224.3 L 492.7 224.3 L 492.7 230.8 L 491.8 230.8 L 491.8 227.8 L 488.5 227.8 L 488.5 230.8 L 487.6 230.8 L 487.6 224.3 " fill="#000000"/>
<path class="atom-40" d="M 513.7 166.6 L 514.5 166.6 L 514.5 169.3 L 517.9 169.3 L 517.9 166.6 L 518.7 166.6 L 518.7 173.0 L 517.9 173.0 L 517.9 170.0 L 514.5 170.0 L 514.5 173.0 L 513.7 173.0 L 513.7 166.6 " fill="#000000"/>
<path class="atom-41" d="M 515.1 191.4 L 516.0 191.4 L 516.0 194.1 L 519.3 194.1 L 519.3 191.4 L 520.1 191.4 L 520.1 197.8 L 519.3 197.8 L 519.3 194.9 L 516.0 194.9 L 516.0 197.8 L 515.1 197.8 L 515.1 191.4 " fill="#000000"/>
<path class="atom-42" d="M 503.0 158.6 L 503.9 158.6 L 503.9 161.3 L 507.2 161.3 L 507.2 158.6 L 508.0 158.6 L 508.0 165.0 L 507.2 165.0 L 507.2 162.0 L 503.9 162.0 L 503.9 165.0 L 503.0 165.0 L 503.0 158.6 " fill="#000000"/>
<path class="atom-43" d="M 510.2 147.3 L 511.1 147.3 L 511.1 150.1 L 514.4 150.1 L 514.4 147.3 L 515.3 147.3 L 515.3 153.8 L 514.4 153.8 L 514.4 150.8 L 511.1 150.8 L 511.1 153.8 L 510.2 153.8 L 510.2 147.3 " fill="#000000"/>
<path class="atom-44" d="M 477.2 90.5 L 478.1 90.5 L 478.1 93.3 L 481.4 93.3 L 481.4 90.5 L 482.3 90.5 L 482.3 97.0 L 481.4 97.0 L 481.4 94.0 L 478.1 94.0 L 478.1 97.0 L 477.2 97.0 L 477.2 90.5 " fill="#000000"/>
<path class="atom-45" d="M 518.0 66.5 L 518.9 66.5 L 518.9 69.3 L 522.2 69.3 L 522.2 66.5 L 523.1 66.5 L 523.1 73.0 L 522.2 73.0 L 522.2 70.0 L 518.9 70.0 L 518.9 73.0 L 518.0 73.0 L 518.0 66.5 " fill="#000000"/>
<path class="atom-46" d="M 556.2 98.3 L 557.1 98.3 L 557.1 101.0 L 560.4 101.0 L 560.4 98.3 L 561.2 98.3 L 561.2 104.8 L 560.4 104.8 L 560.4 101.8 L 557.1 101.8 L 557.1 104.8 L 556.2 104.8 L 556.2 98.3 " fill="#000000"/>
<path class="atom-47" d="M 478.5 101.5 L 479.4 101.5 L 479.4 104.2 L 482.7 104.2 L 482.7 101.5 L 483.6 101.5 L 483.6 107.9 L 482.7 107.9 L 482.7 105.0 L 479.4 105.0 L 479.4 107.9 L 478.5 107.9 L 478.5 101.5 " fill="#000000"/>
<text x="300" y="20" font-size="20" font-family="sans-serif" font-weight="normal" letter-spacing="0" text-anchor="middle" fill="black">eg5: CHEMBL1089056 -&gt; CHEMBL1078998</text><text x="300" y="35" font-size="15" font-family="sans-serif" font-weight="normal" letter-spacing="0" text-anchor="middle" fill="black"></text><text x="150" y="285" font-size="15" font-family="sans-serif" font-weight="normal" letter-spacing="0" text-anchor="middle" fill="black">CHEMBL1089056</text><text x="450" y="285" font-size="15" font-family="sans-serif" font-weight="normal" letter-spacing="0" text-anchor="middle" fill="black">CHEMBL1078998</text></svg>
