<?xml version='1.0' encoding='ASCII' standalone='yes'?>
<svg xmlns="http://www.w3.org/2000/svg" xmlns:rdkit="http://www.rdkit.org/xml" xmlns:xlink="http://www.w3.org/1999/xlink" version="1.1" baseProfile="full" xml:space="preserve" width="600px" height="300px" viewBox="0 0 600 300">
<!-- END OF HEADER -->
<rect style="opacity:1.0;fill:#FFFFFF;stroke:none" width="600.0" height="300.0" x="0.0" y="0.0"> </rect>
<ellipse cx="191.7" cy="96.2" rx="6.8" ry="6.8" class="atom-4" style="fill:#588A93;fill-rule:evenodd;stroke:#588A93;stroke-width:1.0px;stroke-linecap:butt;stroke-linejoin:miter;stroke-opacity:1"/>
<ellipse cx="210.4" cy="87.9" rx="6.8" ry="6.8" class="atom-5" style="fill:#DC3369;fill-rule:evenodd;stroke:#DC3369;stroke-width:1.0px;stroke-linecap:butt;stroke-linejoin:miter;stroke-opacity:1"/>
<ellipse cx="146.7" cy="39.3" rx="6.8" ry="6.8" class="atom-10" style="fill:#DC3369;fill-rule:evenodd;stroke:#DC3369;stroke-width:1.0px;stroke-linecap:butt;stroke-linejoin:miter;stroke-opacity:1"/>
<path class="bond-0 atom-17 atom-18" d="M 156.9,136.5 L 170.7,144.3" style="fill:none;fill-rule:evenodd;stroke:#000000;stroke-width:2.0px;stroke-linecap:butt;stroke-linejoin:miter;stroke-opacity:1"/>
<path class="bond-1 atom-17 atom-19" d="M 156.9,136.5 L 157.1,152.0" style="fill:none;fill-rule:evenodd;stroke:#000000;stroke-width:2.0px;stroke-linecap:butt;stroke-linejoin:miter;stroke-opacity:1"/>
<path class="bond-2 atom-13 atom-14" d="M 139.1,93.2 L 127.6,103.2" style="fill:none;fill-rule:evenodd;stroke:#000000;stroke-width:2.0px;stroke-linecap:butt;stroke-linejoin:miter;stroke-opacity:1"/>
<path class="bond-3 atom-11 atom-12" d="M 134.8,73.1 L 119.4,68.1" style="fill:none;fill-rule:evenodd;stroke:#000000;stroke-width:2.0px;stroke-linecap:butt;stroke-linejoin:miter;stroke-opacity:1"/>
<path class="bond-4 atom-16 atom-17" d="M 167.0,118.5 L 156.9,136.5" style="fill:none;fill-rule:evenodd;stroke:#000000;stroke-width:2.0px;stroke-linecap:butt;stroke-linejoin:miter;stroke-opacity:1"/>
<path class="bond-5 atom-17 atom-20" d="M 156.9,136.5 L 136.8,136.7" style="fill:none;fill-rule:evenodd;stroke:#000000;stroke-width:2.0px;stroke-linecap:butt;stroke-linejoin:miter;stroke-opacity:1"/>
<path class="bond-6 atom-11 atom-13" d="M 134.8,73.1 L 139.1,93.2" style="fill:none;fill-rule:evenodd;stroke:#000000;stroke-width:2.0px;stroke-linecap:butt;stroke-linejoin:miter;stroke-opacity:1"/>
<path class="bond-7 atom-13 atom-15" d="M 139.1,93.2 L 158.7,99.7" style="fill:none;fill-rule:evenodd;stroke:#000000;stroke-width:2.0px;stroke-linecap:butt;stroke-linejoin:miter;stroke-opacity:1"/>
<path class="bond-7 atom-13 atom-15" d="M 143.2,90.7 L 156.9,95.2" style="fill:none;fill-rule:evenodd;stroke:#000000;stroke-width:2.0px;stroke-linecap:butt;stroke-linejoin:miter;stroke-opacity:1"/>
<path class="bond-8 atom-9 atom-11" d="M 150.1,59.4 L 134.8,73.1" style="fill:none;fill-rule:evenodd;stroke:#000000;stroke-width:2.0px;stroke-linecap:butt;stroke-linejoin:miter;stroke-opacity:1"/>
<path class="bond-8 atom-9 atom-11" d="M 150.3,64.2 L 139.5,73.8" style="fill:none;fill-rule:evenodd;stroke:#000000;stroke-width:2.0px;stroke-linecap:butt;stroke-linejoin:miter;stroke-opacity:1"/>
<path class="bond-9 atom-38 atom-39" d="M 167.3,225.3 L 183.7,225.3" style="fill:none;fill-rule:evenodd;stroke:#000000;stroke-width:2.0px;stroke-linecap:butt;stroke-linejoin:miter;stroke-opacity:1"/>
<path class="bond-10 atom-15 atom-16" d="M 158.7,99.7 L 167.0,118.5" style="fill:none;fill-rule:evenodd;stroke:#000000;stroke-width:2.0px;stroke-linecap:butt;stroke-linejoin:miter;stroke-opacity:1"/>
<path class="bond-11 atom-3 atom-16" d="M 187.4,116.3 L 167.0,118.5" style="fill:none;fill-rule:evenodd;stroke:#000000;stroke-width:2.0px;stroke-linecap:butt;stroke-linejoin:miter;stroke-opacity:1"/>
<path class="bond-11 atom-3 atom-16" d="M 184.0,113.0 L 169.7,114.5" style="fill:none;fill-rule:evenodd;stroke:#000000;stroke-width:2.0px;stroke-linecap:butt;stroke-linejoin:miter;stroke-opacity:1"/>
<path class="bond-12 atom-6 atom-15" d="M 173.9,85.9 L 158.7,99.7" style="fill:none;fill-rule:evenodd;stroke:#000000;stroke-width:2.0px;stroke-linecap:butt;stroke-linejoin:miter;stroke-opacity:1"/>
<path class="bond-13 atom-20 atom-21" d="M 136.8,136.7 L 137.1,121.7" style="fill:none;fill-rule:evenodd;stroke:#000000;stroke-width:2.0px;stroke-linecap:butt;stroke-linejoin:miter;stroke-opacity:1"/>
<path class="bond-14 atom-9 atom-10" d="M 150.1,59.4 L 148.5,52.1" style="fill:none;fill-rule:evenodd;stroke:#000000;stroke-width:2.0px;stroke-linecap:butt;stroke-linejoin:miter;stroke-opacity:1"/>
<path class="bond-14 atom-9 atom-10" d="M 148.5,52.1 L 147.0,44.8" style="fill:none;fill-rule:evenodd;stroke:#00CC00;stroke-width:2.0px;stroke-linecap:butt;stroke-linejoin:miter;stroke-opacity:1"/>
<path class="bond-15 atom-7 atom-9" d="M 169.6,65.8 L 150.1,59.4" style="fill:none;fill-rule:evenodd;stroke:#000000;stroke-width:2.0px;stroke-linecap:butt;stroke-linejoin:miter;stroke-opacity:1"/>
<path class="bond-16 atom-36 atom-37" d="M 156.9,207.6 L 164.3,194.8" style="fill:none;fill-rule:evenodd;stroke:#000000;stroke-width:2.0px;stroke-linecap:butt;stroke-linejoin:miter;stroke-opacity:1"/>
<path class="bond-17 atom-1 atom-3" d="M 201.2,131.6 L 187.4,116.3" style="fill:none;fill-rule:evenodd;stroke:#000000;stroke-width:2.0px;stroke-linecap:butt;stroke-linejoin:miter;stroke-opacity:1"/>
<path class="bond-18 atom-3 atom-4" d="M 187.4,116.3 L 189.0,108.8" style="fill:none;fill-rule:evenodd;stroke:#000000;stroke-width:2.0px;stroke-linecap:butt;stroke-linejoin:miter;stroke-opacity:1"/>
<path class="bond-18 atom-3 atom-4" d="M 189.0,108.8 L 190.6,101.3" style="fill:none;fill-rule:evenodd;stroke:#0000FF;stroke-width:2.0px;stroke-linecap:butt;stroke-linejoin:miter;stroke-opacity:1"/>
<path class="bond-19 atom-0 atom-1" d="M 216.6,128.3 L 208.9,130.0" style="fill:none;fill-rule:evenodd;stroke:#FF0000;stroke-width:2.0px;stroke-linecap:butt;stroke-linejoin:miter;stroke-opacity:1"/>
<path class="bond-19 atom-0 atom-1" d="M 208.9,130.0 L 201.2,131.6" style="fill:none;fill-rule:evenodd;stroke:#000000;stroke-width:2.0px;stroke-linecap:butt;stroke-linejoin:miter;stroke-opacity:1"/>
<path class="bond-20 atom-6 atom-7" d="M 173.9,85.9 L 169.6,65.8" style="fill:none;fill-rule:evenodd;stroke:#000000;stroke-width:2.0px;stroke-linecap:butt;stroke-linejoin:miter;stroke-opacity:1"/>
<path class="bond-20 atom-6 atom-7" d="M 169.6,83.7 L 166.7,69.6" style="fill:none;fill-rule:evenodd;stroke:#000000;stroke-width:2.0px;stroke-linecap:butt;stroke-linejoin:miter;stroke-opacity:1"/>
<path class="bond-21 atom-4 atom-6" d="M 187.7,93.9 L 180.8,89.9" style="fill:none;fill-rule:evenodd;stroke:#0000FF;stroke-width:2.0px;stroke-linecap:butt;stroke-linejoin:miter;stroke-opacity:1"/>
<path class="bond-21 atom-4 atom-6" d="M 180.8,89.9 L 173.9,85.9" style="fill:none;fill-rule:evenodd;stroke:#000000;stroke-width:2.0px;stroke-linecap:butt;stroke-linejoin:miter;stroke-opacity:1"/>
<path class="bond-22 atom-1 atom-2" d="M 202.9,132.2 L 200.6,139.4" style="fill:none;fill-rule:evenodd;stroke:#000000;stroke-width:2.0px;stroke-linecap:butt;stroke-linejoin:miter;stroke-opacity:1"/>
<path class="bond-22 atom-1 atom-2" d="M 200.6,139.4 L 198.3,146.6" style="fill:none;fill-rule:evenodd;stroke:#FF0000;stroke-width:2.0px;stroke-linecap:butt;stroke-linejoin:miter;stroke-opacity:1"/>
<path class="bond-22 atom-1 atom-2" d="M 199.4,131.0 L 197.1,138.3" style="fill:none;fill-rule:evenodd;stroke:#000000;stroke-width:2.0px;stroke-linecap:butt;stroke-linejoin:miter;stroke-opacity:1"/>
<path class="bond-22 atom-1 atom-2" d="M 197.1,138.3 L 194.7,145.5" style="fill:none;fill-rule:evenodd;stroke:#FF0000;stroke-width:2.0px;stroke-linecap:butt;stroke-linejoin:miter;stroke-opacity:1"/>
<path class="bond-23 atom-7 atom-8" d="M 169.6,65.8 L 180.8,55.8" style="fill:none;fill-rule:evenodd;stroke:#000000;stroke-width:2.0px;stroke-linecap:butt;stroke-linejoin:miter;stroke-opacity:1"/>
<path class="bond-24 atom-20 atom-22" d="M 136.8,136.7 L 123.2,128.6" style="fill:none;fill-rule:evenodd;stroke:#000000;stroke-width:2.0px;stroke-linecap:butt;stroke-linejoin:miter;stroke-opacity:1"/>
<path class="bond-25 atom-20 atom-23" d="M 136.8,136.7 L 126.5,154.3" style="fill:none;fill-rule:evenodd;stroke:#000000;stroke-width:2.0px;stroke-linecap:butt;stroke-linejoin:miter;stroke-opacity:1"/>
<path class="bond-26 atom-36 atom-38" d="M 156.9,207.6 L 167.3,225.3" style="fill:none;fill-rule:evenodd;stroke:#000000;stroke-width:2.0px;stroke-linecap:butt;stroke-linejoin:miter;stroke-opacity:1"/>
<path class="bond-27 atom-38 atom-40" d="M 167.3,225.3 L 157.0,243.2" style="fill:none;fill-rule:evenodd;stroke:#000000;stroke-width:2.0px;stroke-linecap:butt;stroke-linejoin:miter;stroke-opacity:1"/>
<path class="bond-27 atom-38 atom-40" d="M 162.5,226.2 L 155.3,238.6" style="fill:none;fill-rule:evenodd;stroke:#000000;stroke-width:2.0px;stroke-linecap:butt;stroke-linejoin:miter;stroke-opacity:1"/>
<path class="bond-28 atom-4 atom-5" d="M 195.7,94.5 L 201.0,92.1" style="fill:none;fill-rule:evenodd;stroke:#0000FF;stroke-width:2.0px;stroke-linecap:butt;stroke-linejoin:miter;stroke-opacity:1"/>
<path class="bond-28 atom-4 atom-5" d="M 201.0,92.1 L 206.4,89.7" style="fill:none;fill-rule:evenodd;stroke:#000000;stroke-width:2.0px;stroke-linecap:butt;stroke-linejoin:miter;stroke-opacity:1"/>
<path class="bond-29 atom-35 atom-36" d="M 136.4,207.6 L 156.9,207.6" style="fill:none;fill-rule:evenodd;stroke:#000000;stroke-width:2.0px;stroke-linecap:butt;stroke-linejoin:miter;stroke-opacity:1"/>
<path class="bond-29 atom-35 atom-36" d="M 139.5,211.3 L 153.8,211.3" style="fill:none;fill-rule:evenodd;stroke:#000000;stroke-width:2.0px;stroke-linecap:butt;stroke-linejoin:miter;stroke-opacity:1"/>
<path class="bond-30 atom-40 atom-41" d="M 157.0,243.2 L 164.4,255.9" style="fill:none;fill-rule:evenodd;stroke:#000000;stroke-width:2.0px;stroke-linecap:butt;stroke-linejoin:miter;stroke-opacity:1"/>
<path class="bond-31 atom-23 atom-26" d="M 126.5,154.3 L 130.1,160.6" style="fill:none;fill-rule:evenodd;stroke:#000000;stroke-width:2.0px;stroke-linecap:butt;stroke-linejoin:miter;stroke-opacity:1"/>
<path class="bond-31 atom-23 atom-26" d="M 130.1,160.6 L 133.6,167.0" style="fill:none;fill-rule:evenodd;stroke:#FF0000;stroke-width:2.0px;stroke-linecap:butt;stroke-linejoin:miter;stroke-opacity:1"/>
<path class="bond-32 atom-26 atom-27" d="M 133.4,177.3 L 129.7,183.6" style="fill:none;fill-rule:evenodd;stroke:#FF0000;stroke-width:2.0px;stroke-linecap:butt;stroke-linejoin:miter;stroke-opacity:1"/>
<path class="bond-32 atom-26 atom-27" d="M 129.7,183.6 L 125.9,189.9" style="fill:none;fill-rule:evenodd;stroke:#000000;stroke-width:2.0px;stroke-linecap:butt;stroke-linejoin:miter;stroke-opacity:1"/>
<path class="bond-33 atom-40 atom-42" d="M 157.0,243.2 L 136.4,243.2" style="fill:none;fill-rule:evenodd;stroke:#000000;stroke-width:2.0px;stroke-linecap:butt;stroke-linejoin:miter;stroke-opacity:1"/>
<path class="bond-34 atom-23 atom-25" d="M 126.5,154.3 L 112.9,146.3" style="fill:none;fill-rule:evenodd;stroke:#000000;stroke-width:2.0px;stroke-linecap:butt;stroke-linejoin:miter;stroke-opacity:1"/>
<path class="bond-35 atom-23 atom-24" d="M 126.5,154.3 L 113.2,161.9" style="fill:none;fill-rule:evenodd;stroke:#000000;stroke-width:2.0px;stroke-linecap:butt;stroke-linejoin:miter;stroke-opacity:1"/>
<path class="bond-36 atom-27 atom-35" d="M 125.9,189.9 L 136.4,207.6" style="fill:none;fill-rule:evenodd;stroke:#000000;stroke-width:2.0px;stroke-linecap:butt;stroke-linejoin:miter;stroke-opacity:1"/>
<path class="bond-37 atom-34 atom-35" d="M 126.1,225.4 L 136.4,207.6" style="fill:none;fill-rule:evenodd;stroke:#000000;stroke-width:2.0px;stroke-linecap:butt;stroke-linejoin:miter;stroke-opacity:1"/>
<path class="bond-38 atom-27 atom-28" d="M 125.9,189.9 L 105.3,189.9" style="fill:none;fill-rule:evenodd;stroke:#000000;stroke-width:2.0px;stroke-linecap:butt;stroke-linejoin:miter;stroke-opacity:1"/>
<path class="bond-38 atom-27 atom-28" d="M 122.8,193.6 L 108.4,193.6" style="fill:none;fill-rule:evenodd;stroke:#000000;stroke-width:2.0px;stroke-linecap:butt;stroke-linejoin:miter;stroke-opacity:1"/>
<path class="bond-39 atom-34 atom-42" d="M 126.1,225.4 L 136.4,243.2" style="fill:none;fill-rule:evenodd;stroke:#000000;stroke-width:2.0px;stroke-linecap:butt;stroke-linejoin:miter;stroke-opacity:1"/>
<path class="bond-39 atom-34 atom-42" d="M 130.9,226.2 L 138.1,238.7" style="fill:none;fill-rule:evenodd;stroke:#000000;stroke-width:2.0px;stroke-linecap:butt;stroke-linejoin:miter;stroke-opacity:1"/>
<path class="bond-40 atom-42 atom-43" d="M 136.4,243.2 L 129.1,256.0" style="fill:none;fill-rule:evenodd;stroke:#000000;stroke-width:2.0px;stroke-linecap:butt;stroke-linejoin:miter;stroke-opacity:1"/>
<path class="bond-41 atom-32 atom-34" d="M 105.5,225.5 L 126.1,225.4" style="fill:none;fill-rule:evenodd;stroke:#000000;stroke-width:2.0px;stroke-linecap:butt;stroke-linejoin:miter;stroke-opacity:1"/>
<path class="bond-42 atom-28 atom-29" d="M 105.3,189.9 L 97.7,177.2" style="fill:none;fill-rule:evenodd;stroke:#000000;stroke-width:2.0px;stroke-linecap:butt;stroke-linejoin:miter;stroke-opacity:1"/>
<path class="bond-43 atom-28 atom-30" d="M 105.3,189.9 L 95.1,207.8" style="fill:none;fill-rule:evenodd;stroke:#000000;stroke-width:2.0px;stroke-linecap:butt;stroke-linejoin:miter;stroke-opacity:1"/>
<path class="bond-44 atom-30 atom-32" d="M 95.1,207.8 L 105.5,225.5" style="fill:none;fill-rule:evenodd;stroke:#000000;stroke-width:2.0px;stroke-linecap:butt;stroke-linejoin:miter;stroke-opacity:1"/>
<path class="bond-44 atom-30 atom-32" d="M 99.9,208.6 L 107.1,221.0" style="fill:none;fill-rule:evenodd;stroke:#000000;stroke-width:2.0px;stroke-linecap:butt;stroke-linejoin:miter;stroke-opacity:1"/>
<path class="bond-45 atom-32 atom-33" d="M 105.5,225.5 L 98.2,238.3" style="fill:none;fill-rule:evenodd;stroke:#000000;stroke-width:2.0px;stroke-linecap:butt;stroke-linejoin:miter;stroke-opacity:1"/>
<path class="bond-46 atom-30 atom-31" d="M 95.1,207.8 L 78.6,207.9" style="fill:none;fill-rule:evenodd;stroke:#000000;stroke-width:2.0px;stroke-linecap:butt;stroke-linejoin:miter;stroke-opacity:1"/>
<path class="atom-0" d="M 217.3 127.3 Q 217.3 125.2, 218.3 124.1 Q 219.3 122.9, 221.3 122.9 Q 223.2 122.9, 224.2 124.1 Q 225.3 125.2, 225.3 127.3 Q 225.3 129.4, 224.2 130.7 Q 223.2 131.8, 221.3 131.8 Q 219.3 131.8, 218.3 130.7 Q 217.3 129.5, 217.3 127.3 M 221.3 130.9 Q 222.6 130.9, 223.3 130.0 Q 224.0 129.1, 224.0 127.3 Q 224.0 125.6, 223.3 124.7 Q 222.6 123.9, 221.3 123.9 Q 219.9 123.9, 219.2 124.7 Q 218.5 125.6, 218.5 127.3 Q 218.5 129.1, 219.2 130.0 Q 219.9 130.9, 221.3 130.9 " fill="#FF0000"/>
<path class="atom-0" d="M 225.9 124.3 L 228.9 124.3 L 228.9 125.0 L 225.9 125.0 L 225.9 124.3 " fill="#FF0000"/>
<path class="atom-2" d="M 190.8 151.2 Q 190.8 149.1, 191.9 147.9 Q 192.9 146.7, 194.9 146.7 Q 196.8 146.7, 197.8 147.9 Q 198.9 149.1, 198.9 151.2 Q 198.9 153.3, 197.8 154.5 Q 196.8 155.7, 194.9 155.7 Q 192.9 155.7, 191.9 154.5 Q 190.8 153.3, 190.8 151.2 M 194.9 154.7 Q 196.2 154.7, 196.9 153.8 Q 197.6 152.9, 197.6 151.2 Q 197.6 149.5, 196.9 148.6 Q 196.2 147.7, 194.9 147.7 Q 193.5 147.7, 192.8 148.6 Q 192.1 149.4, 192.1 151.2 Q 192.1 152.9, 192.8 153.8 Q 193.5 154.7, 194.9 154.7 " fill="#FF0000"/>
<path class="atom-4" d="M 189.8 91.9 L 192.6 96.5 Q 192.9 96.9, 193.4 97.8 Q 193.8 98.6, 193.8 98.6 L 193.8 91.9 L 195.0 91.9 L 195.0 100.6 L 193.8 100.6 L 190.7 95.5 Q 190.4 95.0, 190.0 94.3 Q 189.6 93.6, 189.5 93.4 L 189.5 100.6 L 188.4 100.6 L 188.4 91.9 L 189.8 91.9 " fill="#0000FF"/>
<path class="atom-5" d="M 207.0 83.5 L 208.2 83.5 L 208.2 87.2 L 212.7 87.2 L 212.7 83.5 L 213.9 83.5 L 213.9 92.2 L 212.7 92.2 L 212.7 88.2 L 208.2 88.2 L 208.2 92.2 L 207.0 92.2 L 207.0 83.5 " fill="#000000"/>
<path class="atom-8" d="M 181.5 47.7 L 182.7 47.7 L 182.7 51.4 L 187.1 51.4 L 187.1 47.7 L 188.3 47.7 L 188.3 56.5 L 187.1 56.5 L 187.1 52.4 L 182.7 52.4 L 182.7 56.5 L 181.5 56.5 L 181.5 47.7 " fill="#000000"/>
<path class="atom-10" d="M 142.5 39.6 Q 142.5 37.4, 143.5 36.3 Q 144.5 35.1, 146.5 35.1 Q 148.3 35.1, 149.2 36.4 L 148.4 37.1 Q 147.7 36.2, 146.5 36.2 Q 145.1 36.2, 144.4 37.0 Q 143.7 37.9, 143.7 39.6 Q 143.7 41.3, 144.5 42.2 Q 145.2 43.1, 146.6 43.1 Q 147.6 43.1, 148.7 42.5 L 149.0 43.4 Q 148.6 43.7, 147.9 43.9 Q 147.2 44.1, 146.4 44.1 Q 144.5 44.1, 143.5 42.9 Q 142.5 41.8, 142.5 39.6 " fill="#00CC00"/>
<path class="atom-10" d="M 149.7 34.6 L 150.8 34.6 L 150.8 44.0 L 149.7 44.0 L 149.7 34.6 " fill="#00CC00"/>
<path class="atom-12" d="M 111.9 62.4 L 113.0 62.4 L 113.0 66.1 L 117.5 66.1 L 117.5 62.4 L 118.7 62.4 L 118.7 71.1 L 117.5 71.1 L 117.5 67.1 L 113.0 67.1 L 113.0 71.1 L 111.9 71.1 L 111.9 62.4 " fill="#000000"/>
<path class="atom-14" d="M 120.1 102.4 L 121.3 102.4 L 121.3 106.1 L 125.8 106.1 L 125.8 102.4 L 127.0 102.4 L 127.0 111.1 L 125.8 111.1 L 125.8 107.0 L 121.3 107.0 L 121.3 111.1 L 120.1 111.1 L 120.1 102.4 " fill="#000000"/>
<path class="atom-18" d="M 171.4 142.2 L 172.6 142.2 L 172.6 145.9 L 177.0 145.9 L 177.0 142.2 L 178.2 142.2 L 178.2 150.9 L 177.0 150.9 L 177.0 146.9 L 172.6 146.9 L 172.6 150.9 L 171.4 150.9 L 171.4 142.2 " fill="#000000"/>
<path class="atom-19" d="M 153.7 152.7 L 154.9 152.7 L 154.9 156.4 L 159.3 156.4 L 159.3 152.7 L 160.5 152.7 L 160.5 161.4 L 159.3 161.4 L 159.3 157.4 L 154.9 157.4 L 154.9 161.4 L 153.7 161.4 L 153.7 152.7 " fill="#000000"/>
<path class="atom-21" d="M 133.8 112.3 L 135.0 112.3 L 135.0 116.0 L 139.5 116.0 L 139.5 112.3 L 140.6 112.3 L 140.6 121.0 L 139.5 121.0 L 139.5 117.0 L 135.0 117.0 L 135.0 121.0 L 133.8 121.0 L 133.8 112.3 " fill="#000000"/>
<path class="atom-22" d="M 115.7 121.8 L 116.9 121.8 L 116.9 125.5 L 121.4 125.5 L 121.4 121.8 L 122.5 121.8 L 122.5 130.6 L 121.4 130.6 L 121.4 126.5 L 116.9 126.5 L 116.9 130.6 L 115.7 130.6 L 115.7 121.8 " fill="#000000"/>
<path class="atom-24" d="M 105.7 159.9 L 106.9 159.9 L 106.9 163.6 L 111.3 163.6 L 111.3 159.9 L 112.5 159.9 L 112.5 168.6 L 111.3 168.6 L 111.3 164.6 L 106.9 164.6 L 106.9 168.6 L 105.7 168.6 L 105.7 159.9 " fill="#000000"/>
<path class="atom-25" d="M 105.4 139.6 L 106.5 139.6 L 106.5 143.3 L 111.0 143.3 L 111.0 139.6 L 112.2 139.6 L 112.2 148.3 L 111.0 148.3 L 111.0 144.3 L 106.5 144.3 L 106.5 148.3 L 105.4 148.3 L 105.4 139.6 " fill="#000000"/>
<path class="atom-26" d="M 132.5 172.1 Q 132.5 170.0, 133.5 168.8 Q 134.5 167.6, 136.5 167.6 Q 138.4 167.6, 139.4 168.8 Q 140.5 170.0, 140.5 172.1 Q 140.5 174.2, 139.4 175.4 Q 138.4 176.6, 136.5 176.6 Q 134.5 176.6, 133.5 175.4 Q 132.5 174.2, 132.5 172.1 M 136.5 175.6 Q 137.8 175.6, 138.5 174.7 Q 139.2 173.8, 139.2 172.1 Q 139.2 170.4, 138.5 169.5 Q 137.8 168.6, 136.5 168.6 Q 135.1 168.6, 134.4 169.5 Q 133.7 170.4, 133.7 172.1 Q 133.7 173.8, 134.4 174.7 Q 135.1 175.6, 136.5 175.6 " fill="#FF0000"/>
<path class="atom-29" d="M 91.3 167.8 L 92.5 167.8 L 92.5 171.5 L 96.9 171.5 L 96.9 167.8 L 98.1 167.8 L 98.1 176.5 L 96.9 176.5 L 96.9 172.5 L 92.5 172.5 L 92.5 176.5 L 91.3 176.5 L 91.3 167.8 " fill="#000000"/>
<path class="atom-31" d="M 71.1 203.5 L 72.3 203.5 L 72.3 207.2 L 76.8 207.2 L 76.8 203.5 L 78.0 203.5 L 78.0 212.2 L 76.8 212.2 L 76.8 208.2 L 72.3 208.2 L 72.3 212.2 L 71.1 212.2 L 71.1 203.5 " fill="#000000"/>
<path class="atom-33" d="M 91.9 239.0 L 93.1 239.0 L 93.1 242.7 L 97.5 242.7 L 97.5 239.0 L 98.7 239.0 L 98.7 247.7 L 97.5 247.7 L 97.5 243.7 L 93.1 243.7 L 93.1 247.7 L 91.9 247.7 L 91.9 239.0 " fill="#000000"/>
<path class="atom-37" d="M 163.7 185.4 L 164.9 185.4 L 164.9 189.1 L 169.4 189.1 L 169.4 185.4 L 170.6 185.4 L 170.6 194.1 L 169.4 194.1 L 169.4 190.1 L 164.9 190.1 L 164.9 194.1 L 163.7 194.1 L 163.7 185.4 " fill="#000000"/>
<path class="atom-39" d="M 184.4 220.9 L 185.6 220.9 L 185.6 224.6 L 190.0 224.6 L 190.0 220.9 L 191.2 220.9 L 191.2 229.7 L 190.0 229.7 L 190.0 225.6 L 185.6 225.6 L 185.6 229.7 L 184.4 229.7 L 184.4 220.9 " fill="#000000"/>
<path class="atom-41" d="M 163.9 256.6 L 165.1 256.6 L 165.1 260.3 L 169.6 260.3 L 169.6 256.6 L 170.7 256.6 L 170.7 265.3 L 169.6 265.3 L 169.6 261.3 L 165.1 261.3 L 165.1 265.3 L 163.9 265.3 L 163.9 256.6 " fill="#000000"/>
<path class="atom-43" d="M 122.8 256.7 L 124.0 256.7 L 124.0 260.4 L 128.4 260.4 L 128.4 256.7 L 129.6 256.7 L 129.6 265.4 L 128.4 265.4 L 128.4 261.4 L 124.0 261.4 L 124.0 265.4 L 122.8 265.4 L 122.8 256.7 " fill="#000000"/>
<ellipse cx="491.7" cy="96.2" rx="6.8" ry="6.8" class="atom-4" style="fill:#588A93;fill-rule:evenodd;stroke:#588A93;stroke-width:1.0px;stroke-linecap:butt;stroke-linejoin:miter;stroke-opacity:1"/>
<ellipse cx="445.9" cy="39.1" rx="6.8" ry="6.8" class="atom-9" style="fill:#DC3369;fill-rule:evenodd;stroke:#DC3369;stroke-width:1.0px;stroke-linecap:butt;stroke-linejoin:miter;stroke-opacity:1"/>
<path class="bond-0 atom-16 atom-17" d="M 456.9,136.4 L 470.7,144.1" style="fill:none;fill-rule:evenodd;stroke:#000000;stroke-width:2.0px;stroke-linecap:butt;stroke-linejoin:miter;stroke-opacity:1"/>
<path class="bond-1 atom-16 atom-18" d="M 456.9,136.4 L 457.1,151.9" style="fill:none;fill-rule:evenodd;stroke:#000000;stroke-width:2.0px;stroke-linecap:butt;stroke-linejoin:miter;stroke-opacity:1"/>
<path class="bond-2 atom-12 atom-13" d="M 439.1,93.1 L 427.7,103.0" style="fill:none;fill-rule:evenodd;stroke:#000000;stroke-width:2.0px;stroke-linecap:butt;stroke-linejoin:miter;stroke-opacity:1"/>
<path class="bond-3 atom-10 atom-11" d="M 434.8,72.9 L 419.4,67.9" style="fill:none;fill-rule:evenodd;stroke:#000000;stroke-width:2.0px;stroke-linecap:butt;stroke-linejoin:miter;stroke-opacity:1"/>
<path class="bond-4 atom-15 atom-16" d="M 467.0,118.3 L 456.9,136.4" style="fill:none;fill-rule:evenodd;stroke:#000000;stroke-width:2.0px;stroke-linecap:butt;stroke-linejoin:miter;stroke-opacity:1"/>
<path class="bond-5 atom-16 atom-19" d="M 456.9,136.4 L 436.8,136.5" style="fill:none;fill-rule:evenodd;stroke:#000000;stroke-width:2.0px;stroke-linecap:butt;stroke-linejoin:miter;stroke-opacity:1"/>
<path class="bond-6 atom-10 atom-12" d="M 434.8,72.9 L 439.1,93.1" style="fill:none;fill-rule:evenodd;stroke:#000000;stroke-width:2.0px;stroke-linecap:butt;stroke-linejoin:miter;stroke-opacity:1"/>
<path class="bond-7 atom-12 atom-14" d="M 439.1,93.1 L 458.7,99.5" style="fill:none;fill-rule:evenodd;stroke:#000000;stroke-width:2.0px;stroke-linecap:butt;stroke-linejoin:miter;stroke-opacity:1"/>
<path class="bond-7 atom-12 atom-14" d="M 443.2,90.5 L 456.9,95.0" style="fill:none;fill-rule:evenodd;stroke:#000000;stroke-width:2.0px;stroke-linecap:butt;stroke-linejoin:miter;stroke-opacity:1"/>
<path class="bond-8 atom-8 atom-10" d="M 450.1,59.3 L 434.8,72.9" style="fill:none;fill-rule:evenodd;stroke:#000000;stroke-width:2.0px;stroke-linecap:butt;stroke-linejoin:miter;stroke-opacity:1"/>
<path class="bond-8 atom-8 atom-10" d="M 450.3,64.1 L 439.5,73.6" style="fill:none;fill-rule:evenodd;stroke:#000000;stroke-width:2.0px;stroke-linecap:butt;stroke-linejoin:miter;stroke-opacity:1"/>
<path class="bond-9 atom-37 atom-38" d="M 467.3,225.2 L 483.7,225.1" style="fill:none;fill-rule:evenodd;stroke:#000000;stroke-width:2.0px;stroke-linecap:butt;stroke-linejoin:miter;stroke-opacity:1"/>
<path class="bond-10 atom-14 atom-15" d="M 458.7,99.5 L 467.0,118.3" style="fill:none;fill-rule:evenodd;stroke:#000000;stroke-width:2.0px;stroke-linecap:butt;stroke-linejoin:miter;stroke-opacity:1"/>
<path class="bond-11 atom-3 atom-15" d="M 487.4,116.2 L 467.0,118.3" style="fill:none;fill-rule:evenodd;stroke:#000000;stroke-width:2.0px;stroke-linecap:butt;stroke-linejoin:miter;stroke-opacity:1"/>
<path class="bond-11 atom-3 atom-15" d="M 484.0,112.8 L 469.7,114.3" style="fill:none;fill-rule:evenodd;stroke:#000000;stroke-width:2.0px;stroke-linecap:butt;stroke-linejoin:miter;stroke-opacity:1"/>
<path class="bond-12 atom-5 atom-14" d="M 473.9,85.8 L 458.7,99.5" style="fill:none;fill-rule:evenodd;stroke:#000000;stroke-width:2.0px;stroke-linecap:butt;stroke-linejoin:miter;stroke-opacity:1"/>
<path class="bond-13 atom-19 atom-20" d="M 436.8,136.5 L 437.1,121.5" style="fill:none;fill-rule:evenodd;stroke:#000000;stroke-width:2.0px;stroke-linecap:butt;stroke-linejoin:miter;stroke-opacity:1"/>
<path class="bond-14 atom-8 atom-9" d="M 450.1,59.3 L 446.9,44.2" style="fill:none;fill-rule:evenodd;stroke:#000000;stroke-width:2.0px;stroke-linecap:butt;stroke-linejoin:miter;stroke-opacity:1"/>
<path class="bond-15 atom-6 atom-8" d="M 469.6,65.7 L 450.1,59.3" style="fill:none;fill-rule:evenodd;stroke:#000000;stroke-width:2.0px;stroke-linecap:butt;stroke-linejoin:miter;stroke-opacity:1"/>
<path class="bond-16 atom-35 atom-36" d="M 456.9,207.4 L 464.3,194.6" style="fill:none;fill-rule:evenodd;stroke:#000000;stroke-width:2.0px;stroke-linecap:butt;stroke-linejoin:miter;stroke-opacity:1"/>
<path class="bond-17 atom-1 atom-3" d="M 501.2,131.4 L 487.4,116.2" style="fill:none;fill-rule:evenodd;stroke:#000000;stroke-width:2.0px;stroke-linecap:butt;stroke-linejoin:miter;stroke-opacity:1"/>
<path class="bond-18 atom-3 atom-4" d="M 487.4,116.2 L 489.0,108.8" style="fill:none;fill-rule:evenodd;stroke:#000000;stroke-width:2.0px;stroke-linecap:butt;stroke-linejoin:miter;stroke-opacity:1"/>
<path class="bond-18 atom-3 atom-4" d="M 489.0,108.8 L 490.6,101.3" style="fill:none;fill-rule:evenodd;stroke:#CCCC00;stroke-width:2.0px;stroke-linecap:butt;stroke-linejoin:miter;stroke-opacity:1"/>
<path class="bond-19 atom-0 atom-1" d="M 516.6,128.1 L 508.9,129.8" style="fill:none;fill-rule:evenodd;stroke:#FF0000;stroke-width:2.0px;stroke-linecap:butt;stroke-linejoin:miter;stroke-opacity:1"/>
<path class="bond-19 atom-0 atom-1" d="M 508.9,129.8 L 501.2,131.4" style="fill:none;fill-rule:evenodd;stroke:#000000;stroke-width:2.0px;stroke-linecap:butt;stroke-linejoin:miter;stroke-opacity:1"/>
<path class="bond-20 atom-5 atom-6" d="M 473.9,85.8 L 469.6,65.7" style="fill:none;fill-rule:evenodd;stroke:#000000;stroke-width:2.0px;stroke-linecap:butt;stroke-linejoin:miter;stroke-opacity:1"/>
<path class="bond-20 atom-5 atom-6" d="M 469.6,83.5 L 466.7,69.4" style="fill:none;fill-rule:evenodd;stroke:#000000;stroke-width:2.0px;stroke-linecap:butt;stroke-linejoin:miter;stroke-opacity:1"/>
<path class="bond-21 atom-4 atom-5" d="M 488.2,94.1 L 481.1,89.9" style="fill:none;fill-rule:evenodd;stroke:#CCCC00;stroke-width:2.0px;stroke-linecap:butt;stroke-linejoin:miter;stroke-opacity:1"/>
<path class="bond-21 atom-4 atom-5" d="M 481.1,89.9 L 473.9,85.8" style="fill:none;fill-rule:evenodd;stroke:#000000;stroke-width:2.0px;stroke-linecap:butt;stroke-linejoin:miter;stroke-opacity:1"/>
<path class="bond-22 atom-1 atom-2" d="M 502.9,132.0 L 500.6,139.2" style="fill:none;fill-rule:evenodd;stroke:#000000;stroke-width:2.0px;stroke-linecap:butt;stroke-linejoin:miter;stroke-opacity:1"/>
<path class="bond-22 atom-1 atom-2" d="M 500.6,139.2 L 498.3,146.5" style="fill:none;fill-rule:evenodd;stroke:#FF0000;stroke-width:2.0px;stroke-linecap:butt;stroke-linejoin:miter;stroke-opacity:1"/>
<path class="bond-22 atom-1 atom-2" d="M 499.4,130.9 L 497.1,138.1" style="fill:none;fill-rule:evenodd;stroke:#000000;stroke-width:2.0px;stroke-linecap:butt;stroke-linejoin:miter;stroke-opacity:1"/>
<path class="bond-22 atom-1 atom-2" d="M 497.1,138.1 L 494.7,145.3" style="fill:none;fill-rule:evenodd;stroke:#FF0000;stroke-width:2.0px;stroke-linecap:butt;stroke-linejoin:miter;stroke-opacity:1"/>
<path class="bond-23 atom-6 atom-7" d="M 469.6,65.7 L 480.8,55.6" style="fill:none;fill-rule:evenodd;stroke:#000000;stroke-width:2.0px;stroke-linecap:butt;stroke-linejoin:miter;stroke-opacity:1"/>
<path class="bond-24 atom-19 atom-21" d="M 436.8,136.5 L 423.2,128.5" style="fill:none;fill-rule:evenodd;stroke:#000000;stroke-width:2.0px;stroke-linecap:butt;stroke-linejoin:miter;stroke-opacity:1"/>
<path class="bond-25 atom-19 atom-22" d="M 436.8,136.5 L 426.5,154.1" style="fill:none;fill-rule:evenodd;stroke:#000000;stroke-width:2.0px;stroke-linecap:butt;stroke-linejoin:miter;stroke-opacity:1"/>
<path class="bond-26 atom-35 atom-37" d="M 456.9,207.4 L 467.3,225.2" style="fill:none;fill-rule:evenodd;stroke:#000000;stroke-width:2.0px;stroke-linecap:butt;stroke-linejoin:miter;stroke-opacity:1"/>
<path class="bond-27 atom-37 atom-39" d="M 467.3,225.2 L 457.0,243.0" style="fill:none;fill-rule:evenodd;stroke:#000000;stroke-width:2.0px;stroke-linecap:butt;stroke-linejoin:miter;stroke-opacity:1"/>
<path class="bond-27 atom-37 atom-39" d="M 462.5,226.0 L 455.3,238.5" style="fill:none;fill-rule:evenodd;stroke:#000000;stroke-width:2.0px;stroke-linecap:butt;stroke-linejoin:miter;stroke-opacity:1"/>
<path class="bond-28 atom-34 atom-35" d="M 436.4,207.5 L 456.9,207.4" style="fill:none;fill-rule:evenodd;stroke:#000000;stroke-width:2.0px;stroke-linecap:butt;stroke-linejoin:miter;stroke-opacity:1"/>
<path class="bond-28 atom-34 atom-35" d="M 439.5,211.1 L 453.8,211.1" style="fill:none;fill-rule:evenodd;stroke:#000000;stroke-width:2.0px;stroke-linecap:butt;stroke-linejoin:miter;stroke-opacity:1"/>
<path class="bond-29 atom-39 atom-40" d="M 457.0,243.0 L 464.4,255.7" style="fill:none;fill-rule:evenodd;stroke:#000000;stroke-width:2.0px;stroke-linecap:butt;stroke-linejoin:miter;stroke-opacity:1"/>
<path class="bond-30 atom-22 atom-25" d="M 426.5,154.1 L 430.1,160.5" style="fill:none;fill-rule:evenodd;stroke:#000000;stroke-width:2.0px;stroke-linecap:butt;stroke-linejoin:miter;stroke-opacity:1"/>
<path class="bond-30 atom-22 atom-25" d="M 430.1,160.5 L 433.6,166.8" style="fill:none;fill-rule:evenodd;stroke:#FF0000;stroke-width:2.0px;stroke-linecap:butt;stroke-linejoin:miter;stroke-opacity:1"/>
<path class="bond-31 atom-25 atom-26" d="M 433.4,177.1 L 429.7,183.4" style="fill:none;fill-rule:evenodd;stroke:#FF0000;stroke-width:2.0px;stroke-linecap:butt;stroke-linejoin:miter;stroke-opacity:1"/>
<path class="bond-31 atom-25 atom-26" d="M 429.7,183.4 L 425.9,189.7" style="fill:none;fill-rule:evenodd;stroke:#000000;stroke-width:2.0px;stroke-linecap:butt;stroke-linejoin:miter;stroke-opacity:1"/>
<path class="bond-32 atom-39 atom-41" d="M 457.0,243.0 L 436.5,243.1" style="fill:none;fill-rule:evenodd;stroke:#000000;stroke-width:2.0px;stroke-linecap:butt;stroke-linejoin:miter;stroke-opacity:1"/>
<path class="bond-33 atom-22 atom-24" d="M 426.5,154.1 L 412.9,146.2" style="fill:none;fill-rule:evenodd;stroke:#000000;stroke-width:2.0px;stroke-linecap:butt;stroke-linejoin:miter;stroke-opacity:1"/>
<path class="bond-34 atom-22 atom-23" d="M 426.5,154.1 L 413.2,161.7" style="fill:none;fill-rule:evenodd;stroke:#000000;stroke-width:2.0px;stroke-linecap:butt;stroke-linejoin:miter;stroke-opacity:1"/>
<path class="bond-35 atom-26 atom-34" d="M 425.9,189.7 L 436.4,207.5" style="fill:none;fill-rule:evenodd;stroke:#000000;stroke-width:2.0px;stroke-linecap:butt;stroke-linejoin:miter;stroke-opacity:1"/>
<path class="bond-36 atom-33 atom-34" d="M 426.1,225.3 L 436.4,207.5" style="fill:none;fill-rule:evenodd;stroke:#000000;stroke-width:2.0px;stroke-linecap:butt;stroke-linejoin:miter;stroke-opacity:1"/>
<path class="bond-37 atom-26 atom-27" d="M 425.9,189.7 L 405.3,189.8" style="fill:none;fill-rule:evenodd;stroke:#000000;stroke-width:2.0px;stroke-linecap:butt;stroke-linejoin:miter;stroke-opacity:1"/>
<path class="bond-37 atom-26 atom-27" d="M 422.8,193.4 L 408.4,193.5" style="fill:none;fill-rule:evenodd;stroke:#000000;stroke-width:2.0px;stroke-linecap:butt;stroke-linejoin:miter;stroke-opacity:1"/>
<path class="bond-38 atom-33 atom-41" d="M 426.1,225.3 L 436.5,243.1" style="fill:none;fill-rule:evenodd;stroke:#000000;stroke-width:2.0px;stroke-linecap:butt;stroke-linejoin:miter;stroke-opacity:1"/>
<path class="bond-38 atom-33 atom-41" d="M 430.9,226.1 L 438.1,238.5" style="fill:none;fill-rule:evenodd;stroke:#000000;stroke-width:2.0px;stroke-linecap:butt;stroke-linejoin:miter;stroke-opacity:1"/>
<path class="bond-39 atom-41 atom-42" d="M 436.5,243.1 L 429.1,255.8" style="fill:none;fill-rule:evenodd;stroke:#000000;stroke-width:2.0px;stroke-linecap:butt;stroke-linejoin:miter;stroke-opacity:1"/>
<path class="bond-40 atom-31 atom-33" d="M 405.5,225.4 L 426.1,225.3" style="fill:none;fill-rule:evenodd;stroke:#000000;stroke-width:2.0px;stroke-linecap:butt;stroke-linejoin:miter;stroke-opacity:1"/>
<path class="bond-41 atom-27 atom-28" d="M 405.3,189.8 L 397.7,177.0" style="fill:none;fill-rule:evenodd;stroke:#000000;stroke-width:2.0px;stroke-linecap:butt;stroke-linejoin:miter;stroke-opacity:1"/>
<path class="bond-42 atom-27 atom-29" d="M 405.3,189.8 L 395.1,207.6" style="fill:none;fill-rule:evenodd;stroke:#000000;stroke-width:2.0px;stroke-linecap:butt;stroke-linejoin:miter;stroke-opacity:1"/>
<path class="bond-43 atom-29 atom-31" d="M 395.1,207.6 L 405.5,225.4" style="fill:none;fill-rule:evenodd;stroke:#000000;stroke-width:2.0px;stroke-linecap:butt;stroke-linejoin:miter;stroke-opacity:1"/>
<path class="bond-43 atom-29 atom-31" d="M 399.9,208.4 L 407.1,220.9" style="fill:none;fill-rule:evenodd;stroke:#000000;stroke-width:2.0px;stroke-linecap:butt;stroke-linejoin:miter;stroke-opacity:1"/>
<path class="bond-44 atom-31 atom-32" d="M 405.5,225.4 L 398.2,238.2" style="fill:none;fill-rule:evenodd;stroke:#000000;stroke-width:2.0px;stroke-linecap:butt;stroke-linejoin:miter;stroke-opacity:1"/>
<path class="bond-45 atom-29 atom-30" d="M 395.1,207.6 L 378.6,207.7" style="fill:none;fill-rule:evenodd;stroke:#000000;stroke-width:2.0px;stroke-linecap:butt;stroke-linejoin:miter;stroke-opacity:1"/>
<path class="atom-0" d="M 517.3 127.2 Q 517.3 125.1, 518.3 123.9 Q 519.3 122.7, 521.3 122.7 Q 523.2 122.7, 524.2 123.9 Q 525.3 125.1, 525.3 127.2 Q 525.3 129.3, 524.2 130.5 Q 523.2 131.7, 521.3 131.7 Q 519.3 131.7, 518.3 130.5 Q 517.3 129.3, 517.3 127.2 M 521.3 130.7 Q 522.6 130.7, 523.3 129.8 Q 524.0 128.9, 524.0 127.2 Q 524.0 125.5, 523.3 124.6 Q 522.6 123.7, 521.3 123.7 Q 519.9 123.7, 519.2 124.6 Q 518.5 125.4, 518.5 127.2 Q 518.5 128.9, 519.2 129.8 Q 519.9 130.7, 521.3 130.7 " fill="#FF0000"/>
<path class="atom-0" d="M 525.9 124.2 L 528.9 124.2 L 528.9 124.8 L 525.9 124.8 L 525.9 124.2 " fill="#FF0000"/>
<path class="atom-2" d="M 490.8 151.0 Q 490.8 148.9, 491.9 147.7 Q 492.9 146.6, 494.9 146.6 Q 496.8 146.6, 497.8 147.7 Q 498.9 148.9, 498.9 151.0 Q 498.9 153.1, 497.8 154.3 Q 496.8 155.5, 494.9 155.5 Q 492.9 155.5, 491.9 154.3 Q 490.8 153.1, 490.8 151.0 M 494.9 154.6 Q 496.2 154.6, 496.9 153.7 Q 497.6 152.8, 497.6 151.0 Q 497.6 149.3, 496.9 148.4 Q 496.2 147.6, 494.9 147.6 Q 493.5 147.6, 492.8 148.4 Q 492.1 149.3, 492.1 151.0 Q 492.1 152.8, 492.8 153.7 Q 493.5 154.6, 494.9 154.6 " fill="#FF0000"/>
<path class="atom-4" d="M 489.2 99.1 Q 489.3 99.1, 489.7 99.3 Q 490.1 99.5, 490.6 99.6 Q 491.0 99.7, 491.5 99.7 Q 492.3 99.7, 492.8 99.3 Q 493.3 98.9, 493.3 98.2 Q 493.3 97.7, 493.0 97.4 Q 492.8 97.1, 492.4 96.9 Q 492.1 96.8, 491.4 96.6 Q 490.7 96.4, 490.2 96.1 Q 489.7 95.9, 489.4 95.4 Q 489.1 95.0, 489.1 94.2 Q 489.1 93.1, 489.8 92.4 Q 490.6 91.7, 492.1 91.7 Q 493.1 91.7, 494.2 92.2 L 493.9 93.2 Q 492.9 92.7, 492.1 92.7 Q 491.2 92.7, 490.8 93.1 Q 490.3 93.4, 490.3 94.0 Q 490.3 94.5, 490.6 94.8 Q 490.8 95.1, 491.1 95.2 Q 491.5 95.4, 492.1 95.6 Q 492.9 95.8, 493.4 96.1 Q 493.8 96.3, 494.2 96.8 Q 494.5 97.3, 494.5 98.2 Q 494.5 99.4, 493.7 100.0 Q 492.9 100.7, 491.5 100.7 Q 490.8 100.7, 490.2 100.5 Q 489.6 100.3, 488.9 100.1 L 489.2 99.1 " fill="#CCCC00"/>
<path class="atom-7" d="M 481.5 47.6 L 482.7 47.6 L 482.7 51.3 L 487.2 51.3 L 487.2 47.6 L 488.3 47.6 L 488.3 56.3 L 487.2 56.3 L 487.2 52.3 L 482.7 52.3 L 482.7 56.3 L 481.5 56.3 L 481.5 47.6 " fill="#000000"/>
<path class="atom-9" d="M 442.4 34.8 L 443.6 34.8 L 443.6 38.5 L 448.1 38.5 L 448.1 34.8 L 449.3 34.8 L 449.3 43.5 L 448.1 43.5 L 448.1 39.5 L 443.6 39.5 L 443.6 43.5 L 442.4 43.5 L 442.4 34.8 " fill="#000000"/>
<path class="atom-11" d="M 411.9 62.2 L 413.0 62.2 L 413.0 65.9 L 417.5 65.9 L 417.5 62.2 L 418.7 62.2 L 418.7 70.9 L 417.5 70.9 L 417.5 66.9 L 413.0 66.9 L 413.0 70.9 L 411.9 70.9 L 411.9 62.2 " fill="#000000"/>
<path class="atom-13" d="M 420.1 102.2 L 421.3 102.2 L 421.3 105.9 L 425.8 105.9 L 425.8 102.2 L 427.0 102.2 L 427.0 110.9 L 425.8 110.9 L 425.8 106.9 L 421.3 106.9 L 421.3 110.9 L 420.1 110.9 L 420.1 102.2 " fill="#000000"/>
<path class="atom-17" d="M 471.4 142.1 L 472.6 142.1 L 472.6 145.8 L 477.0 145.8 L 477.0 142.1 L 478.2 142.1 L 478.2 150.8 L 477.0 150.8 L 477.0 146.8 L 472.6 146.8 L 472.6 150.8 L 471.4 150.8 L 471.4 142.1 " fill="#000000"/>
<path class="atom-18" d="M 453.7 152.5 L 454.9 152.5 L 454.9 156.2 L 459.3 156.2 L 459.3 152.5 L 460.5 152.5 L 460.5 161.3 L 459.3 161.3 L 459.3 157.2 L 454.9 157.2 L 454.9 161.3 L 453.7 161.3 L 453.7 152.5 " fill="#000000"/>
<path class="atom-20" d="M 433.8 112.1 L 435.0 112.1 L 435.0 115.8 L 439.4 115.8 L 439.4 112.1 L 440.6 112.1 L 440.6 120.8 L 439.4 120.8 L 439.4 116.8 L 435.0 116.8 L 435.0 120.8 L 433.8 120.8 L 433.8 112.1 " fill="#000000"/>
<path class="atom-21" d="M 415.7 121.7 L 416.9 121.7 L 416.9 125.4 L 421.4 125.4 L 421.4 121.7 L 422.5 121.7 L 422.5 130.4 L 421.4 130.4 L 421.4 126.4 L 416.9 126.4 L 416.9 130.4 L 415.7 130.4 L 415.7 121.7 " fill="#000000"/>
<path class="atom-23" d="M 405.7 159.7 L 406.9 159.7 L 406.9 163.4 L 411.3 163.4 L 411.3 159.7 L 412.5 159.7 L 412.5 168.4 L 411.3 168.4 L 411.3 164.4 L 406.9 164.4 L 406.9 168.4 L 405.7 168.4 L 405.7 159.7 " fill="#000000"/>
<path class="atom-24" d="M 405.4 139.4 L 406.5 139.4 L 406.5 143.1 L 411.0 143.1 L 411.0 139.4 L 412.2 139.4 L 412.2 148.1 L 411.0 148.1 L 411.0 144.1 L 406.5 144.1 L 406.5 148.1 L 405.4 148.1 L 405.4 139.4 " fill="#000000"/>
<path class="atom-25" d="M 432.5 171.9 Q 432.5 169.8, 433.5 168.7 Q 434.5 167.5, 436.5 167.5 Q 438.4 167.5, 439.4 168.7 Q 440.5 169.8, 440.5 171.9 Q 440.5 174.0, 439.4 175.2 Q 438.4 176.4, 436.5 176.4 Q 434.5 176.4, 433.5 175.2 Q 432.5 174.1, 432.5 171.9 M 436.5 175.5 Q 437.8 175.5, 438.5 174.6 Q 439.2 173.7, 439.2 171.9 Q 439.2 170.2, 438.5 169.3 Q 437.8 168.5, 436.5 168.5 Q 435.1 168.5, 434.4 169.3 Q 433.7 170.2, 433.7 171.9 Q 433.7 173.7, 434.4 174.6 Q 435.1 175.5, 436.5 175.5 " fill="#FF0000"/>
<path class="atom-28" d="M 391.3 167.6 L 392.5 167.6 L 392.5 171.4 L 396.9 171.4 L 396.9 167.6 L 398.1 167.6 L 398.1 176.4 L 396.9 176.4 L 396.9 172.3 L 392.5 172.3 L 392.5 176.4 L 391.3 176.4 L 391.3 167.6 " fill="#000000"/>
<path class="atom-30" d="M 371.1 203.4 L 372.3 203.4 L 372.3 207.1 L 376.8 207.1 L 376.8 203.4 L 378.0 203.4 L 378.0 212.1 L 376.8 212.1 L 376.8 208.1 L 372.3 208.1 L 372.3 212.1 L 371.1 212.1 L 371.1 203.4 " fill="#000000"/>
<path class="atom-32" d="M 391.9 238.9 L 393.1 238.9 L 393.1 242.6 L 397.5 242.6 L 397.5 238.9 L 398.7 238.9 L 398.7 247.6 L 397.5 247.6 L 397.5 243.6 L 393.1 243.6 L 393.1 247.6 L 391.9 247.6 L 391.9 238.9 " fill="#000000"/>
<path class="atom-36" d="M 463.7 185.2 L 464.9 185.2 L 464.9 188.9 L 469.4 188.9 L 469.4 185.2 L 470.6 185.2 L 470.6 194.0 L 469.4 194.0 L 469.4 189.9 L 464.9 189.9 L 464.9 194.0 L 463.7 194.0 L 463.7 185.2 " fill="#000000"/>
<path class="atom-38" d="M 484.4 220.8 L 485.6 220.8 L 485.6 224.5 L 490.0 224.5 L 490.0 220.8 L 491.2 220.8 L 491.2 229.5 L 490.0 229.5 L 490.0 225.5 L 485.6 225.5 L 485.6 229.5 L 484.4 229.5 L 484.4 220.8 " fill="#000000"/>
<path class="atom-40" d="M 463.9 256.4 L 465.1 256.4 L 465.1 260.1 L 469.6 260.1 L 469.6 256.4 L 470.7 256.4 L 470.7 265.1 L 469.6 265.1 L 469.6 261.1 L 465.1 261.1 L 465.1 265.1 L 463.9 265.1 L 463.9 256.4 " fill="#000000"/>
<path class="atom-42" d="M 422.8 256.5 L 424.0 256.5 L 424.0 260.2 L 428.4 260.2 L 428.4 256.5 L 429.6 256.5 L 429.6 265.2 L 428.4 265.2 L 428.4 261.2 L 424.0 261.2 L 424.0 265.2 L 422.8 265.2 L 422.8 256.5 " fill="#000000"/>
<text x="300" y="20" font-size="20" font-family="sans-serif" font-weight="normal" letter-spacing="0" text-anchor="middle" fill="black">mcl1 54 -&gt; 23 </text><text x="150" y="285" font-size="15" font-family="sans-serif" font-weight="normal" letter-spacing="0" text-anchor="middle" fill="black">54</text><text x="450" y="285" font-size="15" font-family="sans-serif" font-weight="normal" letter-spacing="0" text-anchor="middle" fill="black">23</text></svg>
