<?xml version='1.0' encoding='ASCII' standalone='yes'?>
<svg xmlns="http://www.w3.org/2000/svg" xmlns:rdkit="http://www.rdkit.org/xml" xmlns:xlink="http://www.w3.org/1999/xlink" version="1.1" baseProfile="full" xml:space="preserve" width="600px" height="300px" viewBox="0 0 600 300">
<!-- END OF HEADER -->
<rect style="opacity:1.0;fill:#FFFFFF;stroke:none" width="600.0" height="300.0" x="0.0" y="0.0"> </rect>
<ellipse cx="115.6" cy="127.1" rx="7.4" ry="7.4" class="atom-13" style="fill:#DC3369;fill-rule:evenodd;stroke:#DC3369;stroke-width:1.0px;stroke-linecap:butt;stroke-linejoin:miter;stroke-opacity:1"/>
<path class="bond-0 atom-16 atom-17" d="M 158.8,106.6 L 172.1,96.5" style="fill:none;fill-rule:evenodd;stroke:#000000;stroke-width:2.0px;stroke-linecap:butt;stroke-linejoin:miter;stroke-opacity:1"/>
<path class="bond-1 atom-12 atom-13" d="M 108.2,105.7 L 110.7,113.7" style="fill:none;fill-rule:evenodd;stroke:#000000;stroke-width:2.0px;stroke-linecap:butt;stroke-linejoin:miter;stroke-opacity:1"/>
<path class="bond-1 atom-12 atom-13" d="M 110.7,113.7 L 113.1,121.8" style="fill:none;fill-rule:evenodd;stroke:#00CC00;stroke-width:2.0px;stroke-linecap:butt;stroke-linejoin:miter;stroke-opacity:1"/>
<path class="bond-2 atom-16 atom-18" d="M 158.8,106.6 L 174.7,113.1" style="fill:none;fill-rule:evenodd;stroke:#000000;stroke-width:2.0px;stroke-linecap:butt;stroke-linejoin:miter;stroke-opacity:1"/>
<path class="bond-3 atom-10 atom-11" d="M 86.5,100.9 L 75.9,112.6" style="fill:none;fill-rule:evenodd;stroke:#000000;stroke-width:2.0px;stroke-linecap:butt;stroke-linejoin:miter;stroke-opacity:1"/>
<path class="bond-4 atom-15 atom-16" d="M 145.6,89.2 L 158.8,106.6" style="fill:none;fill-rule:evenodd;stroke:#000000;stroke-width:2.0px;stroke-linecap:butt;stroke-linejoin:miter;stroke-opacity:1"/>
<path class="bond-5 atom-16 atom-19" d="M 158.8,106.6 L 150.1,126.9" style="fill:none;fill-rule:evenodd;stroke:#000000;stroke-width:2.0px;stroke-linecap:butt;stroke-linejoin:miter;stroke-opacity:1"/>
<path class="bond-6 atom-10 atom-12" d="M 86.5,100.9 L 108.2,105.7" style="fill:none;fill-rule:evenodd;stroke:#000000;stroke-width:2.0px;stroke-linecap:butt;stroke-linejoin:miter;stroke-opacity:1"/>
<path class="bond-7 atom-12 atom-14" d="M 108.2,105.7 L 123.2,89.1" style="fill:none;fill-rule:evenodd;stroke:#000000;stroke-width:2.0px;stroke-linecap:butt;stroke-linejoin:miter;stroke-opacity:1"/>
<path class="bond-7 atom-12 atom-14" d="M 107.5,100.5 L 118.0,88.9" style="fill:none;fill-rule:evenodd;stroke:#000000;stroke-width:2.0px;stroke-linecap:butt;stroke-linejoin:miter;stroke-opacity:1"/>
<path class="bond-8 atom-8 atom-10" d="M 79.7,79.7 L 86.5,100.9" style="fill:none;fill-rule:evenodd;stroke:#000000;stroke-width:2.0px;stroke-linecap:butt;stroke-linejoin:miter;stroke-opacity:1"/>
<path class="bond-8 atom-8 atom-10" d="M 84.6,81.7 L 89.3,96.5" style="fill:none;fill-rule:evenodd;stroke:#000000;stroke-width:2.0px;stroke-linecap:butt;stroke-linejoin:miter;stroke-opacity:1"/>
<path class="bond-9 atom-14 atom-15" d="M 123.2,89.1 L 145.6,89.2" style="fill:none;fill-rule:evenodd;stroke:#000000;stroke-width:2.0px;stroke-linecap:butt;stroke-linejoin:miter;stroke-opacity:1"/>
<path class="bond-10 atom-3 atom-15" d="M 152.6,68.0 L 145.6,89.2" style="fill:none;fill-rule:evenodd;stroke:#000000;stroke-width:2.0px;stroke-linecap:butt;stroke-linejoin:miter;stroke-opacity:1"/>
<path class="bond-10 atom-3 atom-15" d="M 147.7,69.9 L 142.8,84.7" style="fill:none;fill-rule:evenodd;stroke:#000000;stroke-width:2.0px;stroke-linecap:butt;stroke-linejoin:miter;stroke-opacity:1"/>
<path class="bond-11 atom-5 atom-14" d="M 116.5,67.9 L 123.2,89.1" style="fill:none;fill-rule:evenodd;stroke:#000000;stroke-width:2.0px;stroke-linecap:butt;stroke-linejoin:miter;stroke-opacity:1"/>
<path class="bond-12 atom-19 atom-20" d="M 150.1,126.9 L 135.0,119.7" style="fill:none;fill-rule:evenodd;stroke:#000000;stroke-width:2.0px;stroke-linecap:butt;stroke-linejoin:miter;stroke-opacity:1"/>
<path class="bond-13 atom-8 atom-9" d="M 79.7,79.7 L 62.4,76.0" style="fill:none;fill-rule:evenodd;stroke:#000000;stroke-width:2.0px;stroke-linecap:butt;stroke-linejoin:miter;stroke-opacity:1"/>
<path class="bond-14 atom-6 atom-8" d="M 94.8,63.2 L 79.7,79.7" style="fill:none;fill-rule:evenodd;stroke:#000000;stroke-width:2.0px;stroke-linecap:butt;stroke-linejoin:miter;stroke-opacity:1"/>
<path class="bond-15 atom-1 atom-3" d="M 173.8,61.2 L 152.6,68.0" style="fill:none;fill-rule:evenodd;stroke:#000000;stroke-width:2.0px;stroke-linecap:butt;stroke-linejoin:miter;stroke-opacity:1"/>
<path class="bond-16 atom-3 atom-4" d="M 152.6,68.0 L 145.5,62.8" style="fill:none;fill-rule:evenodd;stroke:#000000;stroke-width:2.0px;stroke-linecap:butt;stroke-linejoin:miter;stroke-opacity:1"/>
<path class="bond-16 atom-3 atom-4" d="M 145.5,62.8 L 138.4,57.6" style="fill:none;fill-rule:evenodd;stroke:#CCCC00;stroke-width:2.0px;stroke-linecap:butt;stroke-linejoin:miter;stroke-opacity:1"/>
<path class="bond-17 atom-0 atom-1" d="M 177.2,45.1 L 175.5,53.1" style="fill:none;fill-rule:evenodd;stroke:#FF0000;stroke-width:2.0px;stroke-linecap:butt;stroke-linejoin:miter;stroke-opacity:1"/>
<path class="bond-17 atom-0 atom-1" d="M 175.5,53.1 L 173.8,61.2" style="fill:none;fill-rule:evenodd;stroke:#000000;stroke-width:2.0px;stroke-linecap:butt;stroke-linejoin:miter;stroke-opacity:1"/>
<path class="bond-18 atom-5 atom-6" d="M 116.5,67.9 L 94.8,63.2" style="fill:none;fill-rule:evenodd;stroke:#000000;stroke-width:2.0px;stroke-linecap:butt;stroke-linejoin:miter;stroke-opacity:1"/>
<path class="bond-18 atom-5 atom-6" d="M 112.4,71.1 L 97.2,67.8" style="fill:none;fill-rule:evenodd;stroke:#000000;stroke-width:2.0px;stroke-linecap:butt;stroke-linejoin:miter;stroke-opacity:1"/>
<path class="bond-19 atom-4 atom-5" d="M 130.8,57.6 L 123.7,62.7" style="fill:none;fill-rule:evenodd;stroke:#CCCC00;stroke-width:2.0px;stroke-linecap:butt;stroke-linejoin:miter;stroke-opacity:1"/>
<path class="bond-19 atom-4 atom-5" d="M 123.7,62.7 L 116.5,67.9" style="fill:none;fill-rule:evenodd;stroke:#000000;stroke-width:2.0px;stroke-linecap:butt;stroke-linejoin:miter;stroke-opacity:1"/>
<path class="bond-20 atom-1 atom-2" d="M 175.1,59.7 L 180.8,64.9" style="fill:none;fill-rule:evenodd;stroke:#000000;stroke-width:2.0px;stroke-linecap:butt;stroke-linejoin:miter;stroke-opacity:1"/>
<path class="bond-20 atom-1 atom-2" d="M 180.8,64.9 L 186.6,70.1" style="fill:none;fill-rule:evenodd;stroke:#FF0000;stroke-width:2.0px;stroke-linecap:butt;stroke-linejoin:miter;stroke-opacity:1"/>
<path class="bond-20 atom-1 atom-2" d="M 172.4,62.7 L 178.1,67.9" style="fill:none;fill-rule:evenodd;stroke:#000000;stroke-width:2.0px;stroke-linecap:butt;stroke-linejoin:miter;stroke-opacity:1"/>
<path class="bond-20 atom-1 atom-2" d="M 178.1,67.9 L 183.9,73.1" style="fill:none;fill-rule:evenodd;stroke:#FF0000;stroke-width:2.0px;stroke-linecap:butt;stroke-linejoin:miter;stroke-opacity:1"/>
<path class="bond-21 atom-6 atom-7" d="M 94.8,63.2 L 89.7,47.4" style="fill:none;fill-rule:evenodd;stroke:#000000;stroke-width:2.0px;stroke-linecap:butt;stroke-linejoin:miter;stroke-opacity:1"/>
<path class="bond-22 atom-19 atom-21" d="M 150.1,126.9 L 136.3,136.6" style="fill:none;fill-rule:evenodd;stroke:#000000;stroke-width:2.0px;stroke-linecap:butt;stroke-linejoin:miter;stroke-opacity:1"/>
<path class="bond-23 atom-19 atom-22" d="M 150.1,126.9 L 162.9,145.0" style="fill:none;fill-rule:evenodd;stroke:#000000;stroke-width:2.0px;stroke-linecap:butt;stroke-linejoin:miter;stroke-opacity:1"/>
<path class="bond-24 atom-41 atom-42" d="M 189.0,181.8 L 195.7,167.8" style="fill:none;fill-rule:evenodd;stroke:#000000;stroke-width:2.0px;stroke-linecap:butt;stroke-linejoin:miter;stroke-opacity:1"/>
<path class="bond-25 atom-22 atom-25" d="M 162.9,145.0 L 159.6,152.5" style="fill:none;fill-rule:evenodd;stroke:#000000;stroke-width:2.0px;stroke-linecap:butt;stroke-linejoin:miter;stroke-opacity:1"/>
<path class="bond-25 atom-22 atom-25" d="M 159.6,152.5 L 156.2,160.0" style="fill:none;fill-rule:evenodd;stroke:#FF0000;stroke-width:2.0px;stroke-linecap:butt;stroke-linejoin:miter;stroke-opacity:1"/>
<path class="bond-26 atom-25 atom-26" d="M 157.7,171.2 L 162.2,177.5" style="fill:none;fill-rule:evenodd;stroke:#FF0000;stroke-width:2.0px;stroke-linecap:butt;stroke-linejoin:miter;stroke-opacity:1"/>
<path class="bond-26 atom-25 atom-26" d="M 162.2,177.5 L 166.7,183.8" style="fill:none;fill-rule:evenodd;stroke:#000000;stroke-width:2.0px;stroke-linecap:butt;stroke-linejoin:miter;stroke-opacity:1"/>
<path class="bond-27 atom-37 atom-39" d="M 224.0,197.7 L 222.3,181.0" style="fill:none;fill-rule:evenodd;stroke:#000000;stroke-width:2.0px;stroke-linecap:butt;stroke-linejoin:miter;stroke-opacity:1"/>
<path class="bond-28 atom-22 atom-24" d="M 162.9,145.0 L 176.5,135.7" style="fill:none;fill-rule:evenodd;stroke:#000000;stroke-width:2.0px;stroke-linecap:butt;stroke-linejoin:miter;stroke-opacity:1"/>
<path class="bond-29 atom-22 atom-23" d="M 162.9,145.0 L 178.2,151.8" style="fill:none;fill-rule:evenodd;stroke:#000000;stroke-width:2.0px;stroke-linecap:butt;stroke-linejoin:miter;stroke-opacity:1"/>
<path class="bond-30 atom-26 atom-41" d="M 166.7,183.8 L 189.0,181.8" style="fill:none;fill-rule:evenodd;stroke:#000000;stroke-width:2.0px;stroke-linecap:butt;stroke-linejoin:miter;stroke-opacity:1"/>
<path class="bond-31 atom-36 atom-41" d="M 201.9,200.0 L 189.0,181.8" style="fill:none;fill-rule:evenodd;stroke:#000000;stroke-width:2.0px;stroke-linecap:butt;stroke-linejoin:miter;stroke-opacity:1"/>
<path class="bond-31 atom-36 atom-41" d="M 196.7,199.6 L 187.6,186.9" style="fill:none;fill-rule:evenodd;stroke:#000000;stroke-width:2.0px;stroke-linecap:butt;stroke-linejoin:miter;stroke-opacity:1"/>
<path class="bond-32 atom-37 atom-40" d="M 224.0,197.7 L 237.6,187.9" style="fill:none;fill-rule:evenodd;stroke:#000000;stroke-width:2.0px;stroke-linecap:butt;stroke-linejoin:miter;stroke-opacity:1"/>
<path class="bond-33 atom-26 atom-27" d="M 166.7,183.8 L 157.4,204.1" style="fill:none;fill-rule:evenodd;stroke:#000000;stroke-width:2.0px;stroke-linecap:butt;stroke-linejoin:miter;stroke-opacity:1"/>
<path class="bond-33 atom-26 atom-27" d="M 169.0,188.5 L 162.4,202.7" style="fill:none;fill-rule:evenodd;stroke:#000000;stroke-width:2.0px;stroke-linecap:butt;stroke-linejoin:miter;stroke-opacity:1"/>
<path class="bond-34 atom-36 atom-37" d="M 201.9,200.0 L 224.0,197.7" style="fill:none;fill-rule:evenodd;stroke:#000000;stroke-width:2.0px;stroke-linecap:butt;stroke-linejoin:miter;stroke-opacity:1"/>
<path class="bond-35 atom-37 atom-38" d="M 224.0,197.7 L 233.1,210.3" style="fill:none;fill-rule:evenodd;stroke:#000000;stroke-width:2.0px;stroke-linecap:butt;stroke-linejoin:miter;stroke-opacity:1"/>
<path class="bond-36 atom-34 atom-36" d="M 192.5,220.2 L 201.9,200.0" style="fill:none;fill-rule:evenodd;stroke:#000000;stroke-width:2.0px;stroke-linecap:butt;stroke-linejoin:miter;stroke-opacity:1"/>
<path class="bond-37 atom-27 atom-28" d="M 157.4,204.1 L 139.6,205.7" style="fill:none;fill-rule:evenodd;stroke:#000000;stroke-width:2.0px;stroke-linecap:butt;stroke-linejoin:miter;stroke-opacity:1"/>
<path class="bond-38 atom-27 atom-29" d="M 157.4,204.1 L 170.2,222.3" style="fill:none;fill-rule:evenodd;stroke:#000000;stroke-width:2.0px;stroke-linecap:butt;stroke-linejoin:miter;stroke-opacity:1"/>
<path class="bond-39 atom-29 atom-34" d="M 170.2,222.3 L 192.5,220.2" style="fill:none;fill-rule:evenodd;stroke:#000000;stroke-width:2.0px;stroke-linecap:butt;stroke-linejoin:miter;stroke-opacity:1"/>
<path class="bond-39 atom-29 atom-34" d="M 173.2,218.0 L 188.7,216.5" style="fill:none;fill-rule:evenodd;stroke:#000000;stroke-width:2.0px;stroke-linecap:butt;stroke-linejoin:miter;stroke-opacity:1"/>
<path class="bond-40 atom-34 atom-35" d="M 192.5,220.2 L 197.0,226.7" style="fill:none;fill-rule:evenodd;stroke:#000000;stroke-width:2.0px;stroke-linecap:butt;stroke-linejoin:miter;stroke-opacity:1"/>
<path class="bond-40 atom-34 atom-35" d="M 197.0,226.7 L 201.6,233.2" style="fill:none;fill-rule:evenodd;stroke:#00CC00;stroke-width:2.0px;stroke-linecap:butt;stroke-linejoin:miter;stroke-opacity:1"/>
<path class="bond-41 atom-29 atom-30" d="M 170.2,222.3 L 161.1,242.6" style="fill:none;fill-rule:evenodd;stroke:#000000;stroke-width:2.0px;stroke-linecap:butt;stroke-linejoin:miter;stroke-opacity:1"/>
<path class="bond-42 atom-30 atom-32" d="M 161.1,242.6 L 145.2,235.5" style="fill:none;fill-rule:evenodd;stroke:#000000;stroke-width:2.0px;stroke-linecap:butt;stroke-linejoin:miter;stroke-opacity:1"/>
<path class="bond-43 atom-30 atom-31" d="M 161.1,242.6 L 147.5,252.4" style="fill:none;fill-rule:evenodd;stroke:#000000;stroke-width:2.0px;stroke-linecap:butt;stroke-linejoin:miter;stroke-opacity:1"/>
<path class="bond-44 atom-30 atom-33" d="M 161.1,242.6 L 170.2,255.2" style="fill:none;fill-rule:evenodd;stroke:#000000;stroke-width:2.0px;stroke-linecap:butt;stroke-linejoin:miter;stroke-opacity:1"/>
<path class="atom-0" d="M 174.1 39.4 Q 174.1 37.2, 175.2 35.9 Q 176.4 34.6, 178.5 34.6 Q 180.6 34.6, 181.7 35.9 Q 182.8 37.2, 182.8 39.4 Q 182.8 41.7, 181.7 43.0 Q 180.5 44.3, 178.5 44.3 Q 176.4 44.3, 175.2 43.0 Q 174.1 41.7, 174.1 39.4 M 178.5 43.3 Q 179.9 43.3, 180.7 42.3 Q 181.5 41.3, 181.5 39.4 Q 181.5 37.6, 180.7 36.6 Q 179.9 35.7, 178.5 35.7 Q 177.0 35.7, 176.2 36.6 Q 175.4 37.6, 175.4 39.4 Q 175.4 41.3, 176.2 42.3 Q 177.0 43.3, 178.5 43.3 " fill="#FF0000"/>
<path class="atom-0" d="M 183.5 36.2 L 186.7 36.2 L 186.7 36.9 L 183.5 36.9 L 183.5 36.2 " fill="#FF0000"/>
<path class="atom-2" d="M 185.9 76.2 Q 185.9 73.9, 187.1 72.6 Q 188.2 71.4, 190.3 71.4 Q 192.4 71.4, 193.5 72.6 Q 194.6 73.9, 194.6 76.2 Q 194.6 78.5, 193.5 79.8 Q 192.4 81.1, 190.3 81.1 Q 188.2 81.1, 187.1 79.8 Q 185.9 78.5, 185.9 76.2 M 190.3 80.0 Q 191.7 80.0, 192.5 79.1 Q 193.3 78.1, 193.3 76.2 Q 193.3 74.3, 192.5 73.4 Q 191.7 72.4, 190.3 72.4 Q 188.9 72.4, 188.1 73.4 Q 187.3 74.3, 187.3 76.2 Q 187.3 78.1, 188.1 79.1 Q 188.9 80.0, 190.3 80.0 " fill="#FF0000"/>
<path class="atom-4" d="M 131.9 58.1 Q 132.0 58.2, 132.5 58.3 Q 132.9 58.5, 133.4 58.7 Q 133.9 58.8, 134.4 58.8 Q 135.2 58.8, 135.8 58.3 Q 136.3 57.9, 136.3 57.1 Q 136.3 56.6, 136.0 56.3 Q 135.8 56.0, 135.4 55.8 Q 135.0 55.6, 134.3 55.4 Q 133.5 55.2, 132.9 54.9 Q 132.5 54.7, 132.1 54.2 Q 131.7 53.7, 131.7 52.8 Q 131.7 51.6, 132.5 50.9 Q 133.4 50.1, 135.0 50.1 Q 136.1 50.1, 137.3 50.7 L 137.0 51.7 Q 135.9 51.2, 135.0 51.2 Q 134.1 51.2, 133.6 51.6 Q 133.1 52.0, 133.1 52.6 Q 133.1 53.2, 133.3 53.5 Q 133.6 53.8, 134.0 53.9 Q 134.4 54.1, 135.0 54.3 Q 135.9 54.6, 136.4 54.9 Q 136.9 55.1, 137.2 55.7 Q 137.6 56.2, 137.6 57.1 Q 137.6 58.4, 136.7 59.1 Q 135.9 59.8, 134.4 59.8 Q 133.6 59.8, 132.9 59.7 Q 132.3 59.5, 131.5 59.2 L 131.9 58.1 " fill="#CCCC00"/>
<path class="atom-7" d="M 84.2 37.2 L 85.5 37.2 L 85.5 41.3 L 90.3 41.3 L 90.3 37.2 L 91.6 37.2 L 91.6 46.7 L 90.3 46.7 L 90.3 42.3 L 85.5 42.3 L 85.5 46.7 L 84.2 46.7 L 84.2 37.2 " fill="#000000"/>
<path class="atom-9" d="M 54.2 70.3 L 55.5 70.3 L 55.5 74.3 L 60.4 74.3 L 60.4 70.3 L 61.7 70.3 L 61.7 79.7 L 60.4 79.7 L 60.4 75.4 L 55.5 75.4 L 55.5 79.7 L 54.2 79.7 L 54.2 70.3 " fill="#000000"/>
<path class="atom-11" d="M 67.8 112.7 L 69.1 112.7 L 69.1 116.8 L 73.9 116.8 L 73.9 112.7 L 75.2 112.7 L 75.2 122.2 L 73.9 122.2 L 73.9 117.8 L 69.1 117.8 L 69.1 122.2 L 67.8 122.2 L 67.8 112.7 " fill="#000000"/>
<path class="atom-13" d="M 111.0 127.3 Q 111.0 125.0, 112.1 123.7 Q 113.2 122.5, 115.3 122.5 Q 117.3 122.5, 118.3 123.9 L 117.5 124.6 Q 116.7 123.6, 115.3 123.6 Q 113.9 123.6, 113.2 124.6 Q 112.4 125.5, 112.4 127.3 Q 112.4 129.2, 113.2 130.2 Q 114.0 131.1, 115.5 131.1 Q 116.5 131.1, 117.8 130.5 L 118.1 131.5 Q 117.6 131.8, 116.9 132.0 Q 116.1 132.2, 115.3 132.2 Q 113.2 132.2, 112.1 130.9 Q 111.0 129.7, 111.0 127.3 " fill="#00CC00"/>
<path class="atom-13" d="M 118.9 121.9 L 120.1 121.9 L 120.1 132.1 L 118.9 132.1 L 118.9 121.9 " fill="#00CC00"/>
<path class="atom-17" d="M 172.8 88.4 L 174.1 88.4 L 174.1 92.4 L 178.9 92.4 L 178.9 88.4 L 180.2 88.4 L 180.2 97.8 L 178.9 97.8 L 178.9 93.4 L 174.1 93.4 L 174.1 97.8 L 172.8 97.8 L 172.8 88.4 " fill="#000000"/>
<path class="atom-18" d="M 175.5 110.1 L 176.8 110.1 L 176.8 114.2 L 181.6 114.2 L 181.6 110.1 L 182.9 110.1 L 182.9 119.6 L 181.6 119.6 L 181.6 115.2 L 176.8 115.2 L 176.8 119.6 L 175.5 119.6 L 175.5 110.1 " fill="#000000"/>
<path class="atom-20" d="M 126.8 112.9 L 128.1 112.9 L 128.1 116.9 L 132.9 116.9 L 132.9 112.9 L 134.2 112.9 L 134.2 122.3 L 132.9 122.3 L 132.9 118.0 L 128.1 118.0 L 128.1 122.3 L 126.8 122.3 L 126.8 112.9 " fill="#000000"/>
<path class="atom-21" d="M 128.1 135.0 L 129.4 135.0 L 129.4 139.0 L 134.2 139.0 L 134.2 135.0 L 135.5 135.0 L 135.5 144.4 L 134.2 144.4 L 134.2 140.1 L 129.4 140.1 L 129.4 144.4 L 128.1 144.4 L 128.1 135.0 " fill="#000000"/>
<path class="atom-23" d="M 178.9 149.1 L 180.2 149.1 L 180.2 153.1 L 185.0 153.1 L 185.0 149.1 L 186.3 149.1 L 186.3 158.6 L 185.0 158.6 L 185.0 154.2 L 180.2 154.2 L 180.2 158.6 L 178.9 158.6 L 178.9 149.1 " fill="#000000"/>
<path class="atom-24" d="M 177.3 127.9 L 178.5 127.9 L 178.5 131.9 L 183.4 131.9 L 183.4 127.9 L 184.7 127.9 L 184.7 137.4 L 183.4 137.4 L 183.4 133.0 L 178.5 133.0 L 178.5 137.4 L 177.3 137.4 L 177.3 127.9 " fill="#000000"/>
<path class="atom-25" d="M 149.4 165.5 Q 149.4 163.2, 150.5 162.0 Q 151.6 160.7, 153.7 160.7 Q 155.8 160.7, 156.9 162.0 Q 158.1 163.2, 158.1 165.5 Q 158.1 167.8, 156.9 169.1 Q 155.8 170.4, 153.7 170.4 Q 151.6 170.4, 150.5 169.1 Q 149.4 167.8, 149.4 165.5 M 153.7 169.3 Q 155.1 169.3, 155.9 168.4 Q 156.7 167.4, 156.7 165.5 Q 156.7 163.6, 155.9 162.7 Q 155.1 161.8, 153.7 161.8 Q 152.3 161.8, 151.5 162.7 Q 150.7 163.6, 150.7 165.5 Q 150.7 167.4, 151.5 168.4 Q 152.3 169.3, 153.7 169.3 " fill="#FF0000"/>
<path class="atom-28" d="M 131.4 201.4 L 132.7 201.4 L 132.7 205.4 L 137.6 205.4 L 137.6 201.4 L 138.9 201.4 L 138.9 210.8 L 137.6 210.8 L 137.6 206.5 L 132.7 206.5 L 132.7 210.8 L 131.4 210.8 L 131.4 201.4 " fill="#000000"/>
<path class="atom-31" d="M 139.3 250.9 L 140.6 250.9 L 140.6 255.0 L 145.4 255.0 L 145.4 250.9 L 146.7 250.9 L 146.7 260.4 L 145.4 260.4 L 145.4 256.0 L 140.6 256.0 L 140.6 260.4 L 139.3 260.4 L 139.3 250.9 " fill="#000000"/>
<path class="atom-32" d="M 137.0 228.7 L 138.3 228.7 L 138.3 232.8 L 143.1 232.8 L 143.1 228.7 L 144.4 228.7 L 144.4 238.2 L 143.1 238.2 L 143.1 233.8 L 138.3 233.8 L 138.3 238.2 L 137.0 238.2 L 137.0 228.7 " fill="#000000"/>
<path class="atom-33" d="M 170.4 255.9 L 171.7 255.9 L 171.7 259.9 L 176.6 259.9 L 176.6 255.9 L 177.9 255.9 L 177.9 265.4 L 176.6 265.4 L 176.6 261.0 L 171.7 261.0 L 171.7 265.4 L 170.4 265.4 L 170.4 255.9 " fill="#000000"/>
<path class="atom-35" d="M 201.7 238.7 Q 201.7 236.4, 202.8 235.1 Q 203.9 233.9, 206.0 233.9 Q 207.9 233.9, 209.0 235.3 L 208.1 236.0 Q 207.3 235.0, 206.0 235.0 Q 204.6 235.0, 203.8 236.0 Q 203.0 236.9, 203.0 238.7 Q 203.0 240.6, 203.8 241.6 Q 204.6 242.5, 206.1 242.5 Q 207.2 242.5, 208.4 241.9 L 208.8 242.9 Q 208.3 243.2, 207.5 243.4 Q 206.8 243.6, 206.0 243.6 Q 203.9 243.6, 202.8 242.3 Q 201.7 241.1, 201.7 238.7 " fill="#00CC00"/>
<path class="atom-35" d="M 209.5 233.3 L 210.8 233.3 L 210.8 243.5 L 209.5 243.5 L 209.5 233.3 " fill="#00CC00"/>
<path class="atom-38" d="M 233.4 211.1 L 234.7 211.1 L 234.7 215.1 L 239.5 215.1 L 239.5 211.1 L 240.8 211.1 L 240.8 220.5 L 239.5 220.5 L 239.5 216.1 L 234.7 216.1 L 234.7 220.5 L 233.4 220.5 L 233.4 211.1 " fill="#000000"/>
<path class="atom-39" d="M 218.0 170.8 L 219.3 170.8 L 219.3 174.8 L 224.1 174.8 L 224.1 170.8 L 225.4 170.8 L 225.4 180.3 L 224.1 180.3 L 224.1 175.9 L 219.3 175.9 L 219.3 180.3 L 218.0 180.3 L 218.0 170.8 " fill="#000000"/>
<path class="atom-40" d="M 238.3 179.9 L 239.6 179.9 L 239.6 183.9 L 244.5 183.9 L 244.5 179.9 L 245.8 179.9 L 245.8 189.4 L 244.5 189.4 L 244.5 185.0 L 239.6 185.0 L 239.6 189.4 L 238.3 189.4 L 238.3 179.9 " fill="#000000"/>
<path class="atom-42" d="M 194.6 157.6 L 195.9 157.6 L 195.9 161.6 L 200.7 161.6 L 200.7 157.6 L 202.0 157.6 L 202.0 167.1 L 200.7 167.1 L 200.7 162.7 L 195.9 162.7 L 195.9 167.1 L 194.6 167.1 L 194.6 157.6 " fill="#000000"/>
<ellipse cx="414.7" cy="127.0" rx="7.4" ry="7.4" class="atom-13" style="fill:#DC3369;fill-rule:evenodd;stroke:#DC3369;stroke-width:1.0px;stroke-linecap:butt;stroke-linejoin:miter;stroke-opacity:1"/>
<path class="bond-0 atom-16 atom-17" d="M 458.8,106.6 L 472.1,96.5" style="fill:none;fill-rule:evenodd;stroke:#000000;stroke-width:2.0px;stroke-linecap:butt;stroke-linejoin:miter;stroke-opacity:1"/>
<path class="bond-1 atom-16 atom-18" d="M 458.8,106.6 L 474.7,113.1" style="fill:none;fill-rule:evenodd;stroke:#000000;stroke-width:2.0px;stroke-linecap:butt;stroke-linejoin:miter;stroke-opacity:1"/>
<path class="bond-2 atom-12 atom-13" d="M 408.2,105.7 L 413.0,121.5" style="fill:none;fill-rule:evenodd;stroke:#000000;stroke-width:2.0px;stroke-linecap:butt;stroke-linejoin:miter;stroke-opacity:1"/>
<path class="bond-3 atom-10 atom-11" d="M 386.5,100.9 L 375.9,112.6" style="fill:none;fill-rule:evenodd;stroke:#000000;stroke-width:2.0px;stroke-linecap:butt;stroke-linejoin:miter;stroke-opacity:1"/>
<path class="bond-4 atom-15 atom-16" d="M 445.6,89.2 L 458.8,106.6" style="fill:none;fill-rule:evenodd;stroke:#000000;stroke-width:2.0px;stroke-linecap:butt;stroke-linejoin:miter;stroke-opacity:1"/>
<path class="bond-5 atom-16 atom-19" d="M 458.8,106.6 L 450.1,126.9" style="fill:none;fill-rule:evenodd;stroke:#000000;stroke-width:2.0px;stroke-linecap:butt;stroke-linejoin:miter;stroke-opacity:1"/>
<path class="bond-6 atom-10 atom-12" d="M 386.5,100.9 L 408.2,105.7" style="fill:none;fill-rule:evenodd;stroke:#000000;stroke-width:2.0px;stroke-linecap:butt;stroke-linejoin:miter;stroke-opacity:1"/>
<path class="bond-7 atom-12 atom-14" d="M 408.2,105.7 L 423.2,89.1" style="fill:none;fill-rule:evenodd;stroke:#000000;stroke-width:2.0px;stroke-linecap:butt;stroke-linejoin:miter;stroke-opacity:1"/>
<path class="bond-7 atom-12 atom-14" d="M 407.5,100.5 L 418.0,88.9" style="fill:none;fill-rule:evenodd;stroke:#000000;stroke-width:2.0px;stroke-linecap:butt;stroke-linejoin:miter;stroke-opacity:1"/>
<path class="bond-8 atom-8 atom-10" d="M 379.7,79.7 L 386.5,100.9" style="fill:none;fill-rule:evenodd;stroke:#000000;stroke-width:2.0px;stroke-linecap:butt;stroke-linejoin:miter;stroke-opacity:1"/>
<path class="bond-8 atom-8 atom-10" d="M 384.6,81.7 L 389.3,96.5" style="fill:none;fill-rule:evenodd;stroke:#000000;stroke-width:2.0px;stroke-linecap:butt;stroke-linejoin:miter;stroke-opacity:1"/>
<path class="bond-9 atom-14 atom-15" d="M 423.2,89.1 L 445.6,89.2" style="fill:none;fill-rule:evenodd;stroke:#000000;stroke-width:2.0px;stroke-linecap:butt;stroke-linejoin:miter;stroke-opacity:1"/>
<path class="bond-10 atom-3 atom-15" d="M 452.6,68.0 L 445.6,89.2" style="fill:none;fill-rule:evenodd;stroke:#000000;stroke-width:2.0px;stroke-linecap:butt;stroke-linejoin:miter;stroke-opacity:1"/>
<path class="bond-10 atom-3 atom-15" d="M 447.7,69.9 L 442.8,84.7" style="fill:none;fill-rule:evenodd;stroke:#000000;stroke-width:2.0px;stroke-linecap:butt;stroke-linejoin:miter;stroke-opacity:1"/>
<path class="bond-11 atom-5 atom-14" d="M 416.5,67.9 L 423.2,89.1" style="fill:none;fill-rule:evenodd;stroke:#000000;stroke-width:2.0px;stroke-linecap:butt;stroke-linejoin:miter;stroke-opacity:1"/>
<path class="bond-12 atom-19 atom-20" d="M 450.1,126.9 L 435.0,119.7" style="fill:none;fill-rule:evenodd;stroke:#000000;stroke-width:2.0px;stroke-linecap:butt;stroke-linejoin:miter;stroke-opacity:1"/>
<path class="bond-13 atom-8 atom-9" d="M 379.7,79.7 L 362.4,76.0" style="fill:none;fill-rule:evenodd;stroke:#000000;stroke-width:2.0px;stroke-linecap:butt;stroke-linejoin:miter;stroke-opacity:1"/>
<path class="bond-14 atom-6 atom-8" d="M 394.8,63.2 L 379.7,79.7" style="fill:none;fill-rule:evenodd;stroke:#000000;stroke-width:2.0px;stroke-linecap:butt;stroke-linejoin:miter;stroke-opacity:1"/>
<path class="bond-15 atom-1 atom-3" d="M 473.8,61.2 L 452.6,68.0" style="fill:none;fill-rule:evenodd;stroke:#000000;stroke-width:2.0px;stroke-linecap:butt;stroke-linejoin:miter;stroke-opacity:1"/>
<path class="bond-16 atom-3 atom-4" d="M 452.6,68.0 L 445.5,62.8" style="fill:none;fill-rule:evenodd;stroke:#000000;stroke-width:2.0px;stroke-linecap:butt;stroke-linejoin:miter;stroke-opacity:1"/>
<path class="bond-16 atom-3 atom-4" d="M 445.5,62.8 L 438.4,57.6" style="fill:none;fill-rule:evenodd;stroke:#CCCC00;stroke-width:2.0px;stroke-linecap:butt;stroke-linejoin:miter;stroke-opacity:1"/>
<path class="bond-17 atom-0 atom-1" d="M 477.2,45.1 L 475.5,53.1" style="fill:none;fill-rule:evenodd;stroke:#FF0000;stroke-width:2.0px;stroke-linecap:butt;stroke-linejoin:miter;stroke-opacity:1"/>
<path class="bond-17 atom-0 atom-1" d="M 475.5,53.1 L 473.8,61.2" style="fill:none;fill-rule:evenodd;stroke:#000000;stroke-width:2.0px;stroke-linecap:butt;stroke-linejoin:miter;stroke-opacity:1"/>
<path class="bond-18 atom-5 atom-6" d="M 416.5,67.9 L 394.8,63.2" style="fill:none;fill-rule:evenodd;stroke:#000000;stroke-width:2.0px;stroke-linecap:butt;stroke-linejoin:miter;stroke-opacity:1"/>
<path class="bond-18 atom-5 atom-6" d="M 412.4,71.1 L 397.2,67.8" style="fill:none;fill-rule:evenodd;stroke:#000000;stroke-width:2.0px;stroke-linecap:butt;stroke-linejoin:miter;stroke-opacity:1"/>
<path class="bond-19 atom-4 atom-5" d="M 430.8,57.6 L 423.7,62.7" style="fill:none;fill-rule:evenodd;stroke:#CCCC00;stroke-width:2.0px;stroke-linecap:butt;stroke-linejoin:miter;stroke-opacity:1"/>
<path class="bond-19 atom-4 atom-5" d="M 423.7,62.7 L 416.5,67.9" style="fill:none;fill-rule:evenodd;stroke:#000000;stroke-width:2.0px;stroke-linecap:butt;stroke-linejoin:miter;stroke-opacity:1"/>
<path class="bond-20 atom-1 atom-2" d="M 475.1,59.7 L 480.8,64.9" style="fill:none;fill-rule:evenodd;stroke:#000000;stroke-width:2.0px;stroke-linecap:butt;stroke-linejoin:miter;stroke-opacity:1"/>
<path class="bond-20 atom-1 atom-2" d="M 480.8,64.9 L 486.6,70.1" style="fill:none;fill-rule:evenodd;stroke:#FF0000;stroke-width:2.0px;stroke-linecap:butt;stroke-linejoin:miter;stroke-opacity:1"/>
<path class="bond-20 atom-1 atom-2" d="M 472.4,62.7 L 478.1,67.9" style="fill:none;fill-rule:evenodd;stroke:#000000;stroke-width:2.0px;stroke-linecap:butt;stroke-linejoin:miter;stroke-opacity:1"/>
<path class="bond-20 atom-1 atom-2" d="M 478.1,67.9 L 483.9,73.1" style="fill:none;fill-rule:evenodd;stroke:#FF0000;stroke-width:2.0px;stroke-linecap:butt;stroke-linejoin:miter;stroke-opacity:1"/>
<path class="bond-21 atom-6 atom-7" d="M 394.8,63.2 L 389.7,47.4" style="fill:none;fill-rule:evenodd;stroke:#000000;stroke-width:2.0px;stroke-linecap:butt;stroke-linejoin:miter;stroke-opacity:1"/>
<path class="bond-22 atom-19 atom-21" d="M 450.1,126.9 L 436.3,136.6" style="fill:none;fill-rule:evenodd;stroke:#000000;stroke-width:2.0px;stroke-linecap:butt;stroke-linejoin:miter;stroke-opacity:1"/>
<path class="bond-23 atom-19 atom-22" d="M 450.1,126.9 L 462.9,145.0" style="fill:none;fill-rule:evenodd;stroke:#000000;stroke-width:2.0px;stroke-linecap:butt;stroke-linejoin:miter;stroke-opacity:1"/>
<path class="bond-24 atom-41 atom-42" d="M 489.0,181.8 L 495.7,167.8" style="fill:none;fill-rule:evenodd;stroke:#000000;stroke-width:2.0px;stroke-linecap:butt;stroke-linejoin:miter;stroke-opacity:1"/>
<path class="bond-25 atom-22 atom-25" d="M 462.9,145.0 L 459.6,152.5" style="fill:none;fill-rule:evenodd;stroke:#000000;stroke-width:2.0px;stroke-linecap:butt;stroke-linejoin:miter;stroke-opacity:1"/>
<path class="bond-25 atom-22 atom-25" d="M 459.6,152.5 L 456.2,160.0" style="fill:none;fill-rule:evenodd;stroke:#FF0000;stroke-width:2.0px;stroke-linecap:butt;stroke-linejoin:miter;stroke-opacity:1"/>
<path class="bond-26 atom-25 atom-26" d="M 457.7,171.2 L 462.2,177.5" style="fill:none;fill-rule:evenodd;stroke:#FF0000;stroke-width:2.0px;stroke-linecap:butt;stroke-linejoin:miter;stroke-opacity:1"/>
<path class="bond-26 atom-25 atom-26" d="M 462.2,177.5 L 466.7,183.8" style="fill:none;fill-rule:evenodd;stroke:#000000;stroke-width:2.0px;stroke-linecap:butt;stroke-linejoin:miter;stroke-opacity:1"/>
<path class="bond-27 atom-37 atom-39" d="M 524.0,197.7 L 522.3,181.0" style="fill:none;fill-rule:evenodd;stroke:#000000;stroke-width:2.0px;stroke-linecap:butt;stroke-linejoin:miter;stroke-opacity:1"/>
<path class="bond-28 atom-22 atom-24" d="M 462.9,145.0 L 476.5,135.7" style="fill:none;fill-rule:evenodd;stroke:#000000;stroke-width:2.0px;stroke-linecap:butt;stroke-linejoin:miter;stroke-opacity:1"/>
<path class="bond-29 atom-22 atom-23" d="M 462.9,145.0 L 478.2,151.8" style="fill:none;fill-rule:evenodd;stroke:#000000;stroke-width:2.0px;stroke-linecap:butt;stroke-linejoin:miter;stroke-opacity:1"/>
<path class="bond-30 atom-26 atom-41" d="M 466.7,183.8 L 489.0,181.8" style="fill:none;fill-rule:evenodd;stroke:#000000;stroke-width:2.0px;stroke-linecap:butt;stroke-linejoin:miter;stroke-opacity:1"/>
<path class="bond-31 atom-36 atom-41" d="M 501.9,200.0 L 489.0,181.8" style="fill:none;fill-rule:evenodd;stroke:#000000;stroke-width:2.0px;stroke-linecap:butt;stroke-linejoin:miter;stroke-opacity:1"/>
<path class="bond-31 atom-36 atom-41" d="M 496.7,199.6 L 487.6,186.9" style="fill:none;fill-rule:evenodd;stroke:#000000;stroke-width:2.0px;stroke-linecap:butt;stroke-linejoin:miter;stroke-opacity:1"/>
<path class="bond-32 atom-37 atom-40" d="M 524.0,197.7 L 537.6,187.9" style="fill:none;fill-rule:evenodd;stroke:#000000;stroke-width:2.0px;stroke-linecap:butt;stroke-linejoin:miter;stroke-opacity:1"/>
<path class="bond-33 atom-26 atom-27" d="M 466.7,183.8 L 457.4,204.1" style="fill:none;fill-rule:evenodd;stroke:#000000;stroke-width:2.0px;stroke-linecap:butt;stroke-linejoin:miter;stroke-opacity:1"/>
<path class="bond-33 atom-26 atom-27" d="M 469.0,188.5 L 462.4,202.7" style="fill:none;fill-rule:evenodd;stroke:#000000;stroke-width:2.0px;stroke-linecap:butt;stroke-linejoin:miter;stroke-opacity:1"/>
<path class="bond-34 atom-36 atom-37" d="M 501.9,200.0 L 524.0,197.7" style="fill:none;fill-rule:evenodd;stroke:#000000;stroke-width:2.0px;stroke-linecap:butt;stroke-linejoin:miter;stroke-opacity:1"/>
<path class="bond-35 atom-37 atom-38" d="M 524.0,197.7 L 533.1,210.3" style="fill:none;fill-rule:evenodd;stroke:#000000;stroke-width:2.0px;stroke-linecap:butt;stroke-linejoin:miter;stroke-opacity:1"/>
<path class="bond-36 atom-34 atom-36" d="M 492.5,220.2 L 501.9,200.0" style="fill:none;fill-rule:evenodd;stroke:#000000;stroke-width:2.0px;stroke-linecap:butt;stroke-linejoin:miter;stroke-opacity:1"/>
<path class="bond-37 atom-27 atom-28" d="M 457.4,204.1 L 439.6,205.7" style="fill:none;fill-rule:evenodd;stroke:#000000;stroke-width:2.0px;stroke-linecap:butt;stroke-linejoin:miter;stroke-opacity:1"/>
<path class="bond-38 atom-27 atom-29" d="M 457.4,204.1 L 470.2,222.3" style="fill:none;fill-rule:evenodd;stroke:#000000;stroke-width:2.0px;stroke-linecap:butt;stroke-linejoin:miter;stroke-opacity:1"/>
<path class="bond-39 atom-29 atom-34" d="M 470.2,222.3 L 492.5,220.2" style="fill:none;fill-rule:evenodd;stroke:#000000;stroke-width:2.0px;stroke-linecap:butt;stroke-linejoin:miter;stroke-opacity:1"/>
<path class="bond-39 atom-29 atom-34" d="M 473.2,218.0 L 488.7,216.5" style="fill:none;fill-rule:evenodd;stroke:#000000;stroke-width:2.0px;stroke-linecap:butt;stroke-linejoin:miter;stroke-opacity:1"/>
<path class="bond-40 atom-34 atom-35" d="M 492.5,220.2 L 497.0,226.7" style="fill:none;fill-rule:evenodd;stroke:#000000;stroke-width:2.0px;stroke-linecap:butt;stroke-linejoin:miter;stroke-opacity:1"/>
<path class="bond-40 atom-34 atom-35" d="M 497.0,226.7 L 501.6,233.2" style="fill:none;fill-rule:evenodd;stroke:#00CC00;stroke-width:2.0px;stroke-linecap:butt;stroke-linejoin:miter;stroke-opacity:1"/>
<path class="bond-41 atom-29 atom-30" d="M 470.2,222.3 L 461.1,242.6" style="fill:none;fill-rule:evenodd;stroke:#000000;stroke-width:2.0px;stroke-linecap:butt;stroke-linejoin:miter;stroke-opacity:1"/>
<path class="bond-42 atom-30 atom-32" d="M 461.1,242.6 L 445.2,235.5" style="fill:none;fill-rule:evenodd;stroke:#000000;stroke-width:2.0px;stroke-linecap:butt;stroke-linejoin:miter;stroke-opacity:1"/>
<path class="bond-43 atom-30 atom-31" d="M 461.1,242.6 L 447.5,252.4" style="fill:none;fill-rule:evenodd;stroke:#000000;stroke-width:2.0px;stroke-linecap:butt;stroke-linejoin:miter;stroke-opacity:1"/>
<path class="bond-44 atom-30 atom-33" d="M 461.1,242.6 L 470.2,255.2" style="fill:none;fill-rule:evenodd;stroke:#000000;stroke-width:2.0px;stroke-linecap:butt;stroke-linejoin:miter;stroke-opacity:1"/>
<path class="atom-0" d="M 474.1 39.4 Q 474.1 37.2, 475.2 35.9 Q 476.4 34.6, 478.5 34.6 Q 480.6 34.6, 481.7 35.9 Q 482.8 37.2, 482.8 39.4 Q 482.8 41.7, 481.7 43.0 Q 480.5 44.3, 478.5 44.3 Q 476.4 44.3, 475.2 43.0 Q 474.1 41.7, 474.1 39.4 M 478.5 43.3 Q 479.9 43.3, 480.7 42.3 Q 481.5 41.3, 481.5 39.4 Q 481.5 37.6, 480.7 36.6 Q 479.9 35.7, 478.5 35.7 Q 477.0 35.7, 476.2 36.6 Q 475.4 37.6, 475.4 39.4 Q 475.4 41.3, 476.2 42.3 Q 477.0 43.3, 478.5 43.3 " fill="#FF0000"/>
<path class="atom-0" d="M 483.5 36.2 L 486.7 36.2 L 486.7 36.9 L 483.5 36.9 L 483.5 36.2 " fill="#FF0000"/>
<path class="atom-2" d="M 485.9 76.2 Q 485.9 73.9, 487.1 72.6 Q 488.2 71.4, 490.3 71.4 Q 492.4 71.4, 493.5 72.6 Q 494.6 73.9, 494.6 76.2 Q 494.6 78.5, 493.5 79.8 Q 492.4 81.1, 490.3 81.1 Q 488.2 81.1, 487.1 79.8 Q 485.9 78.5, 485.9 76.2 M 490.3 80.0 Q 491.7 80.0, 492.5 79.1 Q 493.3 78.1, 493.3 76.2 Q 493.3 74.3, 492.5 73.4 Q 491.7 72.4, 490.3 72.4 Q 488.9 72.4, 488.1 73.4 Q 487.3 74.3, 487.3 76.2 Q 487.3 78.1, 488.1 79.1 Q 488.9 80.0, 490.3 80.0 " fill="#FF0000"/>
<path class="atom-4" d="M 431.9 58.1 Q 432.0 58.2, 432.5 58.3 Q 432.9 58.5, 433.4 58.7 Q 433.9 58.8, 434.4 58.8 Q 435.2 58.8, 435.8 58.3 Q 436.3 57.9, 436.3 57.1 Q 436.3 56.6, 436.0 56.3 Q 435.8 56.0, 435.4 55.8 Q 435.0 55.6, 434.3 55.4 Q 433.5 55.2, 432.9 54.9 Q 432.5 54.7, 432.1 54.2 Q 431.7 53.7, 431.7 52.8 Q 431.7 51.6, 432.5 50.9 Q 433.4 50.1, 435.0 50.1 Q 436.1 50.1, 437.3 50.7 L 437.0 51.7 Q 435.9 51.2, 435.0 51.2 Q 434.1 51.2, 433.6 51.6 Q 433.1 52.0, 433.1 52.6 Q 433.1 53.2, 433.3 53.5 Q 433.6 53.8, 434.0 53.9 Q 434.4 54.1, 435.0 54.3 Q 435.9 54.6, 436.4 54.9 Q 436.9 55.1, 437.2 55.7 Q 437.6 56.2, 437.6 57.1 Q 437.6 58.4, 436.7 59.1 Q 435.9 59.8, 434.4 59.8 Q 433.6 59.8, 432.9 59.7 Q 432.3 59.5, 431.5 59.2 L 431.9 58.1 " fill="#CCCC00"/>
<path class="atom-7" d="M 384.2 37.2 L 385.5 37.2 L 385.5 41.3 L 390.3 41.3 L 390.3 37.2 L 391.6 37.2 L 391.6 46.7 L 390.3 46.7 L 390.3 42.3 L 385.5 42.3 L 385.5 46.7 L 384.2 46.7 L 384.2 37.2 " fill="#000000"/>
<path class="atom-9" d="M 354.2 70.3 L 355.5 70.3 L 355.5 74.3 L 360.4 74.3 L 360.4 70.3 L 361.7 70.3 L 361.7 79.7 L 360.4 79.7 L 360.4 75.4 L 355.5 75.4 L 355.5 79.7 L 354.2 79.7 L 354.2 70.3 " fill="#000000"/>
<path class="atom-11" d="M 367.8 112.7 L 369.1 112.7 L 369.1 116.8 L 373.9 116.8 L 373.9 112.7 L 375.2 112.7 L 375.2 122.2 L 373.9 122.2 L 373.9 117.8 L 369.1 117.8 L 369.1 122.2 L 367.8 122.2 L 367.8 112.7 " fill="#000000"/>
<path class="atom-13" d="M 411.0 122.3 L 412.3 122.3 L 412.3 126.3 L 417.1 126.3 L 417.1 122.3 L 418.4 122.3 L 418.4 131.7 L 417.1 131.7 L 417.1 127.4 L 412.3 127.4 L 412.3 131.7 L 411.0 131.7 L 411.0 122.3 " fill="#000000"/>
<path class="atom-17" d="M 472.8 88.4 L 474.1 88.4 L 474.1 92.4 L 478.9 92.4 L 478.9 88.4 L 480.2 88.4 L 480.2 97.8 L 478.9 97.8 L 478.9 93.4 L 474.1 93.4 L 474.1 97.8 L 472.8 97.8 L 472.8 88.4 " fill="#000000"/>
<path class="atom-18" d="M 475.5 110.1 L 476.8 110.1 L 476.8 114.2 L 481.6 114.2 L 481.6 110.1 L 482.9 110.1 L 482.9 119.6 L 481.6 119.6 L 481.6 115.2 L 476.8 115.2 L 476.8 119.6 L 475.5 119.6 L 475.5 110.1 " fill="#000000"/>
<path class="atom-20" d="M 426.8 112.9 L 428.1 112.9 L 428.1 116.9 L 432.9 116.9 L 432.9 112.9 L 434.2 112.9 L 434.2 122.3 L 432.9 122.3 L 432.9 118.0 L 428.1 118.0 L 428.1 122.3 L 426.8 122.3 L 426.8 112.9 " fill="#000000"/>
<path class="atom-21" d="M 428.1 135.0 L 429.4 135.0 L 429.4 139.0 L 434.2 139.0 L 434.2 135.0 L 435.5 135.0 L 435.5 144.4 L 434.2 144.4 L 434.2 140.1 L 429.4 140.1 L 429.4 144.4 L 428.1 144.4 L 428.1 135.0 " fill="#000000"/>
<path class="atom-23" d="M 478.9 149.1 L 480.2 149.1 L 480.2 153.1 L 485.0 153.1 L 485.0 149.1 L 486.3 149.1 L 486.3 158.6 L 485.0 158.6 L 485.0 154.2 L 480.2 154.2 L 480.2 158.6 L 478.9 158.6 L 478.9 149.1 " fill="#000000"/>
<path class="atom-24" d="M 477.3 127.9 L 478.5 127.9 L 478.5 131.9 L 483.4 131.9 L 483.4 127.9 L 484.7 127.9 L 484.7 137.4 L 483.4 137.4 L 483.4 133.0 L 478.5 133.0 L 478.5 137.4 L 477.3 137.4 L 477.3 127.9 " fill="#000000"/>
<path class="atom-25" d="M 449.4 165.5 Q 449.4 163.2, 450.5 162.0 Q 451.6 160.7, 453.7 160.7 Q 455.8 160.7, 456.9 162.0 Q 458.1 163.2, 458.1 165.5 Q 458.1 167.8, 456.9 169.1 Q 455.8 170.4, 453.7 170.4 Q 451.6 170.4, 450.5 169.1 Q 449.4 167.8, 449.4 165.5 M 453.7 169.3 Q 455.1 169.3, 455.9 168.4 Q 456.7 167.4, 456.7 165.5 Q 456.7 163.6, 455.9 162.7 Q 455.1 161.8, 453.7 161.8 Q 452.3 161.8, 451.5 162.7 Q 450.7 163.6, 450.7 165.5 Q 450.7 167.4, 451.5 168.4 Q 452.3 169.3, 453.7 169.3 " fill="#FF0000"/>
<path class="atom-28" d="M 431.4 201.4 L 432.7 201.4 L 432.7 205.4 L 437.6 205.4 L 437.6 201.4 L 438.9 201.4 L 438.9 210.8 L 437.6 210.8 L 437.6 206.5 L 432.7 206.5 L 432.7 210.8 L 431.4 210.8 L 431.4 201.4 " fill="#000000"/>
<path class="atom-31" d="M 439.3 250.9 L 440.6 250.9 L 440.6 255.0 L 445.4 255.0 L 445.4 250.9 L 446.7 250.9 L 446.7 260.4 L 445.4 260.4 L 445.4 256.0 L 440.6 256.0 L 440.6 260.4 L 439.3 260.4 L 439.3 250.9 " fill="#000000"/>
<path class="atom-32" d="M 437.0 228.7 L 438.3 228.7 L 438.3 232.8 L 443.1 232.8 L 443.1 228.7 L 444.4 228.7 L 444.4 238.2 L 443.1 238.2 L 443.1 233.8 L 438.3 233.8 L 438.3 238.2 L 437.0 238.2 L 437.0 228.7 " fill="#000000"/>
<path class="atom-33" d="M 470.4 255.9 L 471.7 255.9 L 471.7 259.9 L 476.6 259.9 L 476.6 255.9 L 477.9 255.9 L 477.9 265.4 L 476.6 265.4 L 476.6 261.0 L 471.7 261.0 L 471.7 265.4 L 470.4 265.4 L 470.4 255.9 " fill="#000000"/>
<path class="atom-35" d="M 501.7 238.7 Q 501.7 236.4, 502.8 235.1 Q 503.9 233.9, 506.0 233.9 Q 507.9 233.9, 509.0 235.3 L 508.1 236.0 Q 507.3 235.0, 506.0 235.0 Q 504.6 235.0, 503.8 236.0 Q 503.0 236.9, 503.0 238.7 Q 503.0 240.6, 503.8 241.6 Q 504.6 242.5, 506.1 242.5 Q 507.2 242.5, 508.4 241.9 L 508.8 242.9 Q 508.3 243.2, 507.5 243.4 Q 506.8 243.6, 506.0 243.6 Q 503.9 243.6, 502.8 242.3 Q 501.7 241.1, 501.7 238.7 " fill="#00CC00"/>
<path class="atom-35" d="M 509.5 233.3 L 510.8 233.3 L 510.8 243.5 L 509.5 243.5 L 509.5 233.3 " fill="#00CC00"/>
<path class="atom-38" d="M 533.4 211.1 L 534.7 211.1 L 534.7 215.1 L 539.5 215.1 L 539.5 211.1 L 540.8 211.1 L 540.8 220.5 L 539.5 220.5 L 539.5 216.1 L 534.7 216.1 L 534.7 220.5 L 533.4 220.5 L 533.4 211.1 " fill="#000000"/>
<path class="atom-39" d="M 518.0 170.8 L 519.3 170.8 L 519.3 174.8 L 524.1 174.8 L 524.1 170.8 L 525.4 170.8 L 525.4 180.3 L 524.1 180.3 L 524.1 175.9 L 519.3 175.9 L 519.3 180.3 L 518.0 180.3 L 518.0 170.8 " fill="#000000"/>
<path class="atom-40" d="M 538.3 179.9 L 539.6 179.9 L 539.6 183.9 L 544.5 183.9 L 544.5 179.9 L 545.8 179.9 L 545.8 189.4 L 544.5 189.4 L 544.5 185.0 L 539.6 185.0 L 539.6 189.4 L 538.3 189.4 L 538.3 179.9 " fill="#000000"/>
<path class="atom-42" d="M 494.6 157.6 L 495.9 157.6 L 495.9 161.6 L 500.7 161.6 L 500.7 157.6 L 502.0 157.6 L 502.0 167.1 L 500.7 167.1 L 500.7 162.7 L 495.9 162.7 L 495.9 167.1 L 494.6 167.1 L 494.6 157.6 " fill="#000000"/>
<text x="300" y="20" font-size="20" font-family="sans-serif" font-weight="normal" letter-spacing="0" text-anchor="middle" fill="black">mcl1 61 -&gt; 60 </text><text x="150" y="285" font-size="15" font-family="sans-serif" font-weight="normal" letter-spacing="0" text-anchor="middle" fill="black">61</text><text x="450" y="285" font-size="15" font-family="sans-serif" font-weight="normal" letter-spacing="0" text-anchor="middle" fill="black">60</text></svg>
