<?xml version='1.0' encoding='ASCII' standalone='yes'?>
<svg xmlns="http://www.w3.org/2000/svg" xmlns:rdkit="http://www.rdkit.org/xml" xmlns:xlink="http://www.w3.org/1999/xlink" version="1.1" baseProfile="full" xml:space="preserve" width="600px" height="300px" viewBox="0 0 600 300">
<!-- END OF HEADER -->
<rect style="opacity:1.0;fill:#FFFFFF;stroke:none" width="600.0" height="300.0" x="0.0" y="0.0"> </rect>
<ellipse cx="209.3" cy="191.8" rx="7.1" ry="7.1" class="atom-4" style="fill:#588A93;fill-rule:evenodd;stroke:#588A93;stroke-width:1.0px;stroke-linecap:butt;stroke-linejoin:miter;stroke-opacity:1"/>
<ellipse cx="230.4" cy="195.9" rx="7.1" ry="7.1" class="atom-5" style="fill:#DC3369;fill-rule:evenodd;stroke:#DC3369;stroke-width:1.0px;stroke-linecap:butt;stroke-linejoin:miter;stroke-opacity:1"/>
<ellipse cx="246.7" cy="210.1" rx="7.1" ry="7.1" class="atom-6" style="fill:#DC3369;fill-rule:evenodd;stroke:#DC3369;stroke-width:1.0px;stroke-linecap:butt;stroke-linejoin:miter;stroke-opacity:1"/>
<ellipse cx="226.3" cy="217.0" rx="7.1" ry="7.1" class="atom-7" style="fill:#DC3369;fill-rule:evenodd;stroke:#DC3369;stroke-width:1.0px;stroke-linecap:butt;stroke-linejoin:miter;stroke-opacity:1"/>
<ellipse cx="244.6" cy="179.6" rx="7.1" ry="7.1" class="atom-8" style="fill:#DC3369;fill-rule:evenodd;stroke:#DC3369;stroke-width:1.0px;stroke-linecap:butt;stroke-linejoin:miter;stroke-opacity:1"/>
<path class="bond-0 atom-20 atom-21" d="M 164.1,159.0 L 175.7,148.4" style="fill:none;fill-rule:evenodd;stroke:#000000;stroke-width:2.0px;stroke-linecap:butt;stroke-linejoin:miter;stroke-opacity:1"/>
<path class="bond-1 atom-20 atom-22" d="M 164.1,159.0 L 160.5,143.3" style="fill:none;fill-rule:evenodd;stroke:#000000;stroke-width:2.0px;stroke-linecap:butt;stroke-linejoin:miter;stroke-opacity:1"/>
<path class="bond-2 atom-16 atom-17" d="M 156.2,207.4 L 141.4,199.5" style="fill:none;fill-rule:evenodd;stroke:#000000;stroke-width:2.0px;stroke-linecap:butt;stroke-linejoin:miter;stroke-opacity:1"/>
<path class="bond-3 atom-14 atom-15" d="M 156.5,228.9 L 142.4,237.4" style="fill:none;fill-rule:evenodd;stroke:#000000;stroke-width:2.0px;stroke-linecap:butt;stroke-linejoin:miter;stroke-opacity:1"/>
<path class="bond-4 atom-19 atom-20" d="M 178.7,175.0 L 164.1,159.0" style="fill:none;fill-rule:evenodd;stroke:#000000;stroke-width:2.0px;stroke-linecap:butt;stroke-linejoin:miter;stroke-opacity:1"/>
<path class="bond-5 atom-20 atom-23" d="M 164.1,159.0 L 143.7,163.9" style="fill:none;fill-rule:evenodd;stroke:#000000;stroke-width:2.0px;stroke-linecap:butt;stroke-linejoin:miter;stroke-opacity:1"/>
<path class="bond-6 atom-14 atom-16" d="M 156.5,228.9 L 156.2,207.4" style="fill:none;fill-rule:evenodd;stroke:#000000;stroke-width:2.0px;stroke-linecap:butt;stroke-linejoin:miter;stroke-opacity:1"/>
<path class="bond-7 atom-16 atom-18" d="M 156.2,207.4 L 174.7,196.1" style="fill:none;fill-rule:evenodd;stroke:#000000;stroke-width:2.0px;stroke-linecap:butt;stroke-linejoin:miter;stroke-opacity:1"/>
<path class="bond-7 atom-16 atom-18" d="M 160.9,209.0 L 173.9,201.1" style="fill:none;fill-rule:evenodd;stroke:#000000;stroke-width:2.0px;stroke-linecap:butt;stroke-linejoin:miter;stroke-opacity:1"/>
<path class="bond-8 atom-12 atom-14" d="M 175.4,239.2 L 156.5,228.9" style="fill:none;fill-rule:evenodd;stroke:#000000;stroke-width:2.0px;stroke-linecap:butt;stroke-linejoin:miter;stroke-opacity:1"/>
<path class="bond-8 atom-12 atom-14" d="M 174.5,234.3 L 161.2,227.0" style="fill:none;fill-rule:evenodd;stroke:#000000;stroke-width:2.0px;stroke-linecap:butt;stroke-linejoin:miter;stroke-opacity:1"/>
<path class="bond-9 atom-18 atom-19" d="M 174.7,196.1 L 178.7,175.0" style="fill:none;fill-rule:evenodd;stroke:#000000;stroke-width:2.0px;stroke-linecap:butt;stroke-linejoin:miter;stroke-opacity:1"/>
<path class="bond-10 atom-3 atom-19" d="M 200.1,172.2 L 178.7,175.0" style="fill:none;fill-rule:evenodd;stroke:#000000;stroke-width:2.0px;stroke-linecap:butt;stroke-linejoin:miter;stroke-opacity:1"/>
<path class="bond-10 atom-3 atom-19" d="M 197.4,176.5 L 182.4,178.4" style="fill:none;fill-rule:evenodd;stroke:#000000;stroke-width:2.0px;stroke-linecap:butt;stroke-linejoin:miter;stroke-opacity:1"/>
<path class="bond-11 atom-9 atom-18" d="M 193.5,206.5 L 174.7,196.1" style="fill:none;fill-rule:evenodd;stroke:#000000;stroke-width:2.0px;stroke-linecap:butt;stroke-linejoin:miter;stroke-opacity:1"/>
<path class="bond-12 atom-23 atom-24" d="M 143.7,163.9 L 147.7,178.8" style="fill:none;fill-rule:evenodd;stroke:#000000;stroke-width:2.0px;stroke-linecap:butt;stroke-linejoin:miter;stroke-opacity:1"/>
<path class="bond-13 atom-12 atom-13" d="M 175.4,239.2 L 175.8,255.5" style="fill:none;fill-rule:evenodd;stroke:#000000;stroke-width:2.0px;stroke-linecap:butt;stroke-linejoin:miter;stroke-opacity:1"/>
<path class="bond-14 atom-10 atom-12" d="M 194.0,228.1 L 175.4,239.2" style="fill:none;fill-rule:evenodd;stroke:#000000;stroke-width:2.0px;stroke-linecap:butt;stroke-linejoin:miter;stroke-opacity:1"/>
<path class="bond-15 atom-1 atom-3" d="M 210.6,153.4 L 200.1,172.2" style="fill:none;fill-rule:evenodd;stroke:#000000;stroke-width:2.0px;stroke-linecap:butt;stroke-linejoin:miter;stroke-opacity:1"/>
<path class="bond-16 atom-3 atom-4" d="M 200.1,172.2 L 203.5,179.3" style="fill:none;fill-rule:evenodd;stroke:#000000;stroke-width:2.0px;stroke-linecap:butt;stroke-linejoin:miter;stroke-opacity:1"/>
<path class="bond-16 atom-3 atom-4" d="M 203.5,179.3 L 206.8,186.5" style="fill:none;fill-rule:evenodd;stroke:#0000FF;stroke-width:2.0px;stroke-linecap:butt;stroke-linejoin:miter;stroke-opacity:1"/>
<path class="bond-17 atom-0 atom-1" d="M 202.8,140.4 L 206.7,146.9" style="fill:none;fill-rule:evenodd;stroke:#FF0000;stroke-width:2.0px;stroke-linecap:butt;stroke-linejoin:miter;stroke-opacity:1"/>
<path class="bond-17 atom-0 atom-1" d="M 206.7,146.9 L 210.6,153.4" style="fill:none;fill-rule:evenodd;stroke:#000000;stroke-width:2.0px;stroke-linecap:butt;stroke-linejoin:miter;stroke-opacity:1"/>
<path class="bond-18 atom-9 atom-10" d="M 193.5,206.5 L 194.0,228.1" style="fill:none;fill-rule:evenodd;stroke:#000000;stroke-width:2.0px;stroke-linecap:butt;stroke-linejoin:miter;stroke-opacity:1"/>
<path class="bond-18 atom-9 atom-10" d="M 189.7,209.8 L 190.0,224.9" style="fill:none;fill-rule:evenodd;stroke:#000000;stroke-width:2.0px;stroke-linecap:butt;stroke-linejoin:miter;stroke-opacity:1"/>
<path class="bond-19 atom-4 atom-9" d="M 205.1,195.7 L 199.3,201.1" style="fill:none;fill-rule:evenodd;stroke:#0000FF;stroke-width:2.0px;stroke-linecap:butt;stroke-linejoin:miter;stroke-opacity:1"/>
<path class="bond-19 atom-4 atom-9" d="M 199.3,201.1 L 193.5,206.5" style="fill:none;fill-rule:evenodd;stroke:#000000;stroke-width:2.0px;stroke-linecap:butt;stroke-linejoin:miter;stroke-opacity:1"/>
<path class="bond-20 atom-1 atom-2" d="M 210.5,151.5 L 218.8,151.3" style="fill:none;fill-rule:evenodd;stroke:#000000;stroke-width:2.0px;stroke-linecap:butt;stroke-linejoin:miter;stroke-opacity:1"/>
<path class="bond-20 atom-1 atom-2" d="M 218.8,151.3 L 227.2,151.2" style="fill:none;fill-rule:evenodd;stroke:#FF0000;stroke-width:2.0px;stroke-linecap:butt;stroke-linejoin:miter;stroke-opacity:1"/>
<path class="bond-20 atom-1 atom-2" d="M 210.6,155.3 L 218.9,155.2" style="fill:none;fill-rule:evenodd;stroke:#000000;stroke-width:2.0px;stroke-linecap:butt;stroke-linejoin:miter;stroke-opacity:1"/>
<path class="bond-20 atom-1 atom-2" d="M 218.9,155.2 L 227.2,155.1" style="fill:none;fill-rule:evenodd;stroke:#FF0000;stroke-width:2.0px;stroke-linecap:butt;stroke-linejoin:miter;stroke-opacity:1"/>
<path class="bond-21 atom-10 atom-11" d="M 194.0,228.1 L 208.5,236.1" style="fill:none;fill-rule:evenodd;stroke:#000000;stroke-width:2.0px;stroke-linecap:butt;stroke-linejoin:miter;stroke-opacity:1"/>
<path class="bond-22 atom-23 atom-25" d="M 143.7,163.9 L 132.6,174.9" style="fill:none;fill-rule:evenodd;stroke:#000000;stroke-width:2.0px;stroke-linecap:butt;stroke-linejoin:miter;stroke-opacity:1"/>
<path class="bond-23 atom-23 atom-26" d="M 143.7,163.9 L 128.8,148.7" style="fill:none;fill-rule:evenodd;stroke:#000000;stroke-width:2.0px;stroke-linecap:butt;stroke-linejoin:miter;stroke-opacity:1"/>
<path class="bond-24 atom-5 atom-7" d="M 230.4,195.9 L 227.3,211.8" style="fill:none;fill-rule:evenodd;stroke:#000000;stroke-width:2.0px;stroke-linecap:butt;stroke-linejoin:miter;stroke-opacity:1"/>
<path class="bond-25 atom-4 atom-5" d="M 213.5,192.6 L 222.0,194.2" style="fill:none;fill-rule:evenodd;stroke:#0000FF;stroke-width:2.0px;stroke-linecap:butt;stroke-linejoin:miter;stroke-opacity:1"/>
<path class="bond-25 atom-4 atom-5" d="M 222.0,194.2 L 230.4,195.9" style="fill:none;fill-rule:evenodd;stroke:#000000;stroke-width:2.0px;stroke-linecap:butt;stroke-linejoin:miter;stroke-opacity:1"/>
<path class="bond-26 atom-45 atom-46" d="M 98.8,116.7 L 94.0,131.6" style="fill:none;fill-rule:evenodd;stroke:#000000;stroke-width:2.0px;stroke-linecap:butt;stroke-linejoin:miter;stroke-opacity:1"/>
<path class="bond-27 atom-5 atom-6" d="M 230.4,195.9 L 242.4,206.3" style="fill:none;fill-rule:evenodd;stroke:#000000;stroke-width:2.0px;stroke-linecap:butt;stroke-linejoin:miter;stroke-opacity:1"/>
<path class="bond-28 atom-5 atom-8" d="M 230.4,195.9 L 240.3,184.6" style="fill:none;fill-rule:evenodd;stroke:#000000;stroke-width:2.0px;stroke-linecap:butt;stroke-linejoin:miter;stroke-opacity:1"/>
<path class="bond-29 atom-26 atom-29" d="M 128.8,148.7 L 131.0,141.1" style="fill:none;fill-rule:evenodd;stroke:#000000;stroke-width:2.0px;stroke-linecap:butt;stroke-linejoin:miter;stroke-opacity:1"/>
<path class="bond-29 atom-26 atom-29" d="M 131.0,141.1 L 133.2,133.4" style="fill:none;fill-rule:evenodd;stroke:#FF0000;stroke-width:2.0px;stroke-linecap:butt;stroke-linejoin:miter;stroke-opacity:1"/>
<path class="bond-30 atom-29 atom-30" d="M 129.8,122.6 L 124.9,117.3" style="fill:none;fill-rule:evenodd;stroke:#FF0000;stroke-width:2.0px;stroke-linecap:butt;stroke-linejoin:miter;stroke-opacity:1"/>
<path class="bond-30 atom-29 atom-30" d="M 124.9,117.3 L 119.9,112.0" style="fill:none;fill-rule:evenodd;stroke:#000000;stroke-width:2.0px;stroke-linecap:butt;stroke-linejoin:miter;stroke-opacity:1"/>
<path class="bond-31 atom-41 atom-43" d="M 63.3,105.6 L 59.7,89.9" style="fill:none;fill-rule:evenodd;stroke:#000000;stroke-width:2.0px;stroke-linecap:butt;stroke-linejoin:miter;stroke-opacity:1"/>
<path class="bond-32 atom-26 atom-28" d="M 128.8,148.7 L 117.7,159.6" style="fill:none;fill-rule:evenodd;stroke:#000000;stroke-width:2.0px;stroke-linecap:butt;stroke-linejoin:miter;stroke-opacity:1"/>
<path class="bond-33 atom-26 atom-27" d="M 128.8,148.7 L 112.6,144.3" style="fill:none;fill-rule:evenodd;stroke:#000000;stroke-width:2.0px;stroke-linecap:butt;stroke-linejoin:miter;stroke-opacity:1"/>
<path class="bond-34 atom-30 atom-45" d="M 119.9,112.0 L 98.8,116.7" style="fill:none;fill-rule:evenodd;stroke:#000000;stroke-width:2.0px;stroke-linecap:butt;stroke-linejoin:miter;stroke-opacity:1"/>
<path class="bond-35 atom-40 atom-45" d="M 84.3,100.8 L 98.8,116.7" style="fill:none;fill-rule:evenodd;stroke:#000000;stroke-width:2.0px;stroke-linecap:butt;stroke-linejoin:miter;stroke-opacity:1"/>
<path class="bond-35 atom-40 atom-45" d="M 89.4,100.6 L 99.5,111.7" style="fill:none;fill-rule:evenodd;stroke:#000000;stroke-width:2.0px;stroke-linecap:butt;stroke-linejoin:miter;stroke-opacity:1"/>
<path class="bond-36 atom-30 atom-31" d="M 119.9,112.0 L 126.5,91.5" style="fill:none;fill-rule:evenodd;stroke:#000000;stroke-width:2.0px;stroke-linecap:butt;stroke-linejoin:miter;stroke-opacity:1"/>
<path class="bond-36 atom-30 atom-31" d="M 117.2,107.8 L 121.8,93.4" style="fill:none;fill-rule:evenodd;stroke:#000000;stroke-width:2.0px;stroke-linecap:butt;stroke-linejoin:miter;stroke-opacity:1"/>
<path class="bond-37 atom-41 atom-44" d="M 63.3,105.6 L 47.0,100.6" style="fill:none;fill-rule:evenodd;stroke:#000000;stroke-width:2.0px;stroke-linecap:butt;stroke-linejoin:miter;stroke-opacity:1"/>
<path class="bond-38 atom-40 atom-41" d="M 84.3,100.8 L 63.3,105.6" style="fill:none;fill-rule:evenodd;stroke:#000000;stroke-width:2.0px;stroke-linecap:butt;stroke-linejoin:miter;stroke-opacity:1"/>
<path class="bond-39 atom-41 atom-42" d="M 63.3,105.6 L 58.6,120.9" style="fill:none;fill-rule:evenodd;stroke:#000000;stroke-width:2.0px;stroke-linecap:butt;stroke-linejoin:miter;stroke-opacity:1"/>
<path class="bond-40 atom-38 atom-40" d="M 90.8,80.2 L 84.3,100.8" style="fill:none;fill-rule:evenodd;stroke:#000000;stroke-width:2.0px;stroke-linecap:butt;stroke-linejoin:miter;stroke-opacity:1"/>
<path class="bond-41 atom-31 atom-32" d="M 126.5,91.5 L 143.3,87.8" style="fill:none;fill-rule:evenodd;stroke:#000000;stroke-width:2.0px;stroke-linecap:butt;stroke-linejoin:miter;stroke-opacity:1"/>
<path class="bond-42 atom-31 atom-33" d="M 126.5,91.5 L 111.9,75.6" style="fill:none;fill-rule:evenodd;stroke:#000000;stroke-width:2.0px;stroke-linecap:butt;stroke-linejoin:miter;stroke-opacity:1"/>
<path class="bond-43 atom-33 atom-38" d="M 111.9,75.6 L 90.8,80.2" style="fill:none;fill-rule:evenodd;stroke:#000000;stroke-width:2.0px;stroke-linecap:butt;stroke-linejoin:miter;stroke-opacity:1"/>
<path class="bond-43 atom-33 atom-38" d="M 109.6,80.1 L 94.8,83.3" style="fill:none;fill-rule:evenodd;stroke:#000000;stroke-width:2.0px;stroke-linecap:butt;stroke-linejoin:miter;stroke-opacity:1"/>
<path class="bond-44 atom-38 atom-39" d="M 90.8,80.2 L 84.2,73.0" style="fill:none;fill-rule:evenodd;stroke:#000000;stroke-width:2.0px;stroke-linecap:butt;stroke-linejoin:miter;stroke-opacity:1"/>
<path class="bond-44 atom-38 atom-39" d="M 84.2,73.0 L 77.6,65.8" style="fill:none;fill-rule:evenodd;stroke:#00CC00;stroke-width:2.0px;stroke-linecap:butt;stroke-linejoin:miter;stroke-opacity:1"/>
<path class="bond-45 atom-33 atom-34" d="M 111.9,75.6 L 118.3,55.0" style="fill:none;fill-rule:evenodd;stroke:#000000;stroke-width:2.0px;stroke-linecap:butt;stroke-linejoin:miter;stroke-opacity:1"/>
<path class="bond-46 atom-34 atom-35" d="M 118.3,55.0 L 134.6,60.0" style="fill:none;fill-rule:evenodd;stroke:#000000;stroke-width:2.0px;stroke-linecap:butt;stroke-linejoin:miter;stroke-opacity:1"/>
<path class="bond-47 atom-34 atom-36" d="M 118.3,55.0 L 129.8,44.3" style="fill:none;fill-rule:evenodd;stroke:#000000;stroke-width:2.0px;stroke-linecap:butt;stroke-linejoin:miter;stroke-opacity:1"/>
<path class="bond-48 atom-34 atom-37" d="M 118.3,55.0 L 107.9,43.8" style="fill:none;fill-rule:evenodd;stroke:#000000;stroke-width:2.0px;stroke-linecap:butt;stroke-linejoin:miter;stroke-opacity:1"/>
<path class="atom-0" d="M 195.3 135.0 Q 195.3 132.8, 196.3 131.5 Q 197.4 130.3, 199.5 130.3 Q 201.5 130.3, 202.6 131.5 Q 203.7 132.8, 203.7 135.0 Q 203.7 137.2, 202.6 138.5 Q 201.5 139.7, 199.5 139.7 Q 197.4 139.7, 196.3 138.5 Q 195.3 137.2, 195.3 135.0 M 199.5 138.7 Q 200.9 138.7, 201.6 137.7 Q 202.4 136.8, 202.4 135.0 Q 202.4 133.2, 201.6 132.3 Q 200.9 131.3, 199.5 131.3 Q 198.1 131.3, 197.3 132.2 Q 196.5 133.1, 196.5 135.0 Q 196.5 136.8, 197.3 137.7 Q 198.1 138.7, 199.5 138.7 " fill="#FF0000"/>
<path class="atom-0" d="M 204.3 131.8 L 207.4 131.8 L 207.4 132.5 L 204.3 132.5 L 204.3 131.8 " fill="#FF0000"/>
<path class="atom-2" d="M 227.9 153.1 Q 227.9 150.9, 229.0 149.6 Q 230.1 148.4, 232.1 148.4 Q 234.2 148.4, 235.2 149.6 Q 236.3 150.9, 236.3 153.1 Q 236.3 155.3, 235.2 156.6 Q 234.1 157.8, 232.1 157.8 Q 230.1 157.8, 229.0 156.6 Q 227.9 155.3, 227.9 153.1 M 232.1 156.8 Q 233.5 156.8, 234.3 155.9 Q 235.0 154.9, 235.0 153.1 Q 235.0 151.3, 234.3 150.4 Q 233.5 149.4, 232.1 149.4 Q 230.7 149.4, 230.0 150.4 Q 229.2 151.3, 229.2 153.1 Q 229.2 154.9, 230.0 155.9 Q 230.7 156.8, 232.1 156.8 " fill="#FF0000"/>
<path class="atom-4" d="M 207.3 187.2 L 210.3 192.0 Q 210.6 192.5, 211.0 193.4 Q 211.5 194.2, 211.5 194.3 L 211.5 187.2 L 212.8 187.2 L 212.8 196.3 L 211.5 196.3 L 208.3 191.0 Q 207.9 190.4, 207.5 189.7 Q 207.1 189.0, 207.0 188.8 L 207.0 196.3 L 205.8 196.3 L 205.8 187.2 L 207.3 187.2 " fill="#0000FF"/>
<path class="atom-6" d="M 243.1 205.5 L 244.3 205.5 L 244.3 209.4 L 249.0 209.4 L 249.0 205.5 L 250.3 205.5 L 250.3 214.6 L 249.0 214.6 L 249.0 210.4 L 244.3 210.4 L 244.3 214.6 L 243.1 214.6 L 243.1 205.5 " fill="#000000"/>
<path class="atom-7" d="M 222.7 212.5 L 223.9 212.5 L 223.9 216.4 L 228.6 216.4 L 228.6 212.5 L 229.9 212.5 L 229.9 221.6 L 228.6 221.6 L 228.6 217.4 L 223.9 217.4 L 223.9 221.6 L 222.7 221.6 L 222.7 212.5 " fill="#000000"/>
<path class="atom-8" d="M 241.0 175.0 L 242.3 175.0 L 242.3 178.9 L 247.0 178.9 L 247.0 175.0 L 248.2 175.0 L 248.2 184.2 L 247.0 184.2 L 247.0 180.0 L 242.3 180.0 L 242.3 184.2 L 241.0 184.2 L 241.0 175.0 " fill="#000000"/>
<path class="atom-11" d="M 209.2 233.9 L 210.5 233.9 L 210.5 237.8 L 215.2 237.8 L 215.2 233.9 L 216.4 233.9 L 216.4 243.1 L 215.2 243.1 L 215.2 238.8 L 210.5 238.8 L 210.5 243.1 L 209.2 243.1 L 209.2 233.9 " fill="#000000"/>
<path class="atom-13" d="M 172.3 256.2 L 173.5 256.2 L 173.5 260.1 L 178.2 260.1 L 178.2 256.2 L 179.5 256.2 L 179.5 265.4 L 178.2 265.4 L 178.2 261.2 L 173.5 261.2 L 173.5 265.4 L 172.3 265.4 L 172.3 256.2 " fill="#000000"/>
<path class="atom-15" d="M 134.5 235.5 L 135.7 235.5 L 135.7 239.4 L 140.4 239.4 L 140.4 235.5 L 141.7 235.5 L 141.7 244.6 L 140.4 244.6 L 140.4 240.4 L 135.7 240.4 L 135.7 244.6 L 134.5 244.6 L 134.5 235.5 " fill="#000000"/>
<path class="atom-17" d="M 133.5 192.7 L 134.7 192.7 L 134.7 196.6 L 139.4 196.6 L 139.4 192.7 L 140.6 192.7 L 140.6 201.9 L 139.4 201.9 L 139.4 197.6 L 134.7 197.6 L 134.7 201.9 L 133.5 201.9 L 133.5 192.7 " fill="#000000"/>
<path class="atom-21" d="M 176.4 139.8 L 177.6 139.8 L 177.6 143.7 L 182.3 143.7 L 182.3 139.8 L 183.6 139.8 L 183.6 149.0 L 182.3 149.0 L 182.3 144.8 L 177.6 144.8 L 177.6 149.0 L 176.4 149.0 L 176.4 139.8 " fill="#000000"/>
<path class="atom-22" d="M 155.7 133.5 L 156.9 133.5 L 156.9 137.4 L 161.6 137.4 L 161.6 133.5 L 162.9 133.5 L 162.9 142.6 L 161.6 142.6 L 161.6 138.4 L 156.9 138.4 L 156.9 142.6 L 155.7 142.6 L 155.7 133.5 " fill="#000000"/>
<path class="atom-24" d="M 145.6 179.6 L 146.9 179.6 L 146.9 183.4 L 151.5 183.4 L 151.5 179.6 L 152.8 179.6 L 152.8 188.7 L 151.5 188.7 L 151.5 184.5 L 146.9 184.5 L 146.9 188.7 L 145.6 188.7 L 145.6 179.6 " fill="#000000"/>
<path class="atom-25" d="M 124.7 174.6 L 126.0 174.6 L 126.0 178.5 L 130.7 178.5 L 130.7 174.6 L 131.9 174.6 L 131.9 183.7 L 130.7 183.7 L 130.7 179.5 L 126.0 179.5 L 126.0 183.7 L 124.7 183.7 L 124.7 174.6 " fill="#000000"/>
<path class="atom-27" d="M 104.8 138.5 L 106.0 138.5 L 106.0 142.4 L 110.7 142.4 L 110.7 138.5 L 111.9 138.5 L 111.9 147.7 L 110.7 147.7 L 110.7 143.5 L 106.0 143.5 L 106.0 147.7 L 104.8 147.7 L 104.8 138.5 " fill="#000000"/>
<path class="atom-28" d="M 109.8 159.3 L 111.0 159.3 L 111.0 163.1 L 115.7 163.1 L 115.7 159.3 L 117.0 159.3 L 117.0 168.4 L 115.7 168.4 L 115.7 164.2 L 111.0 164.2 L 111.0 168.4 L 109.8 168.4 L 109.8 159.3 " fill="#000000"/>
<path class="atom-29" d="M 130.5 127.9 Q 130.5 125.7, 131.6 124.5 Q 132.7 123.3, 134.7 123.3 Q 136.8 123.3, 137.8 124.5 Q 138.9 125.7, 138.9 127.9 Q 138.9 130.2, 137.8 131.4 Q 136.7 132.7, 134.7 132.7 Q 132.7 132.7, 131.6 131.4 Q 130.5 130.2, 130.5 127.9 M 134.7 131.7 Q 136.1 131.7, 136.9 130.7 Q 137.6 129.8, 137.6 127.9 Q 137.6 126.1, 136.9 125.2 Q 136.1 124.3, 134.7 124.3 Q 133.3 124.3, 132.6 125.2 Q 131.8 126.1, 131.8 127.9 Q 131.8 129.8, 132.6 130.7 Q 133.3 131.7, 134.7 131.7 " fill="#FF0000"/>
<path class="atom-32" d="M 144.0 82.3 L 145.2 82.3 L 145.2 86.2 L 149.9 86.2 L 149.9 82.3 L 151.1 82.3 L 151.1 91.4 L 149.9 91.4 L 149.9 87.2 L 145.2 87.2 L 145.2 91.4 L 144.0 91.4 L 144.0 82.3 " fill="#000000"/>
<path class="atom-35" d="M 135.3 56.7 L 136.6 56.7 L 136.6 60.6 L 141.3 60.6 L 141.3 56.7 L 142.5 56.7 L 142.5 65.9 L 141.3 65.9 L 141.3 61.7 L 136.6 61.7 L 136.6 65.9 L 135.3 65.9 L 135.3 56.7 " fill="#000000"/>
<path class="atom-36" d="M 130.5 35.7 L 131.8 35.7 L 131.8 39.6 L 136.4 39.6 L 136.4 35.7 L 137.7 35.7 L 137.7 44.9 L 136.4 44.9 L 136.4 40.6 L 131.8 40.6 L 131.8 44.9 L 130.5 44.9 L 130.5 35.7 " fill="#000000"/>
<path class="atom-37" d="M 100.0 34.6 L 101.3 34.6 L 101.3 38.5 L 106.0 38.5 L 106.0 34.6 L 107.2 34.6 L 107.2 43.8 L 106.0 43.8 L 106.0 39.5 L 101.3 39.5 L 101.3 43.8 L 100.0 43.8 L 100.0 34.6 " fill="#000000"/>
<path class="atom-39" d="M 68.1 64.7 Q 68.1 62.4, 69.2 61.2 Q 70.3 60.0, 72.3 60.0 Q 74.2 60.0, 75.2 61.3 L 74.3 62.0 Q 73.6 61.0, 72.3 61.0 Q 70.9 61.0, 70.2 62.0 Q 69.4 62.9, 69.4 64.7 Q 69.4 66.5, 70.2 67.4 Q 71.0 68.3, 72.4 68.3 Q 73.4 68.3, 74.6 67.7 L 75.0 68.7 Q 74.5 69.0, 73.8 69.2 Q 73.0 69.4, 72.2 69.4 Q 70.3 69.4, 69.2 68.1 Q 68.1 66.9, 68.1 64.7 " fill="#00CC00"/>
<path class="atom-39" d="M 75.7 59.4 L 76.9 59.4 L 76.9 69.2 L 75.7 69.2 L 75.7 59.4 " fill="#00CC00"/>
<path class="atom-42" d="M 53.4 121.6 L 54.6 121.6 L 54.6 125.5 L 59.3 125.5 L 59.3 121.6 L 60.6 121.6 L 60.6 130.8 L 59.3 130.8 L 59.3 126.6 L 54.6 126.6 L 54.6 130.8 L 53.4 130.8 L 53.4 121.6 " fill="#000000"/>
<path class="atom-43" d="M 54.9 80.0 L 56.1 80.0 L 56.1 83.9 L 60.8 83.9 L 60.8 80.0 L 62.1 80.0 L 62.1 89.2 L 60.8 89.2 L 60.8 84.9 L 56.1 84.9 L 56.1 89.2 L 54.9 89.2 L 54.9 80.0 " fill="#000000"/>
<path class="atom-44" d="M 39.1 94.7 L 40.3 94.7 L 40.3 98.6 L 45.0 98.6 L 45.0 94.7 L 46.3 94.7 L 46.3 103.9 L 45.0 103.9 L 45.0 99.6 L 40.3 99.6 L 40.3 103.9 L 39.1 103.9 L 39.1 94.7 " fill="#000000"/>
<path class="atom-46" d="M 88.7 132.3 L 90.0 132.3 L 90.0 136.2 L 94.6 136.2 L 94.6 132.3 L 95.9 132.3 L 95.9 141.4 L 94.6 141.4 L 94.6 137.2 L 90.0 137.2 L 90.0 141.4 L 88.7 141.4 L 88.7 132.3 " fill="#000000"/>
<ellipse cx="521.6" cy="191.9" rx="7.1" ry="7.1" class="atom-4" style="fill:#588A93;fill-rule:evenodd;stroke:#588A93;stroke-width:1.0px;stroke-linecap:butt;stroke-linejoin:miter;stroke-opacity:1"/>
<path class="bond-0 atom-16 atom-17" d="M 476.4,159.0 L 488.0,148.4" style="fill:none;fill-rule:evenodd;stroke:#000000;stroke-width:2.0px;stroke-linecap:butt;stroke-linejoin:miter;stroke-opacity:1"/>
<path class="bond-1 atom-16 atom-18" d="M 476.4,159.0 L 472.8,143.3" style="fill:none;fill-rule:evenodd;stroke:#000000;stroke-width:2.0px;stroke-linecap:butt;stroke-linejoin:miter;stroke-opacity:1"/>
<path class="bond-2 atom-12 atom-13" d="M 468.4,207.4 L 453.7,199.5" style="fill:none;fill-rule:evenodd;stroke:#000000;stroke-width:2.0px;stroke-linecap:butt;stroke-linejoin:miter;stroke-opacity:1"/>
<path class="bond-3 atom-10 atom-11" d="M 468.8,228.9 L 454.7,237.4" style="fill:none;fill-rule:evenodd;stroke:#000000;stroke-width:2.0px;stroke-linecap:butt;stroke-linejoin:miter;stroke-opacity:1"/>
<path class="bond-4 atom-15 atom-16" d="M 491.0,175.0 L 476.4,159.0" style="fill:none;fill-rule:evenodd;stroke:#000000;stroke-width:2.0px;stroke-linecap:butt;stroke-linejoin:miter;stroke-opacity:1"/>
<path class="bond-5 atom-16 atom-19" d="M 476.4,159.0 L 455.9,163.9" style="fill:none;fill-rule:evenodd;stroke:#000000;stroke-width:2.0px;stroke-linecap:butt;stroke-linejoin:miter;stroke-opacity:1"/>
<path class="bond-6 atom-10 atom-12" d="M 468.8,228.9 L 468.4,207.4" style="fill:none;fill-rule:evenodd;stroke:#000000;stroke-width:2.0px;stroke-linecap:butt;stroke-linejoin:miter;stroke-opacity:1"/>
<path class="bond-7 atom-12 atom-14" d="M 468.4,207.4 L 487.0,196.1" style="fill:none;fill-rule:evenodd;stroke:#000000;stroke-width:2.0px;stroke-linecap:butt;stroke-linejoin:miter;stroke-opacity:1"/>
<path class="bond-7 atom-12 atom-14" d="M 473.2,209.0 L 486.2,201.1" style="fill:none;fill-rule:evenodd;stroke:#000000;stroke-width:2.0px;stroke-linecap:butt;stroke-linejoin:miter;stroke-opacity:1"/>
<path class="bond-8 atom-8 atom-10" d="M 487.7,239.2 L 468.8,228.9" style="fill:none;fill-rule:evenodd;stroke:#000000;stroke-width:2.0px;stroke-linecap:butt;stroke-linejoin:miter;stroke-opacity:1"/>
<path class="bond-8 atom-8 atom-10" d="M 486.7,234.3 L 473.5,227.0" style="fill:none;fill-rule:evenodd;stroke:#000000;stroke-width:2.0px;stroke-linecap:butt;stroke-linejoin:miter;stroke-opacity:1"/>
<path class="bond-9 atom-14 atom-15" d="M 487.0,196.1 L 491.0,175.0" style="fill:none;fill-rule:evenodd;stroke:#000000;stroke-width:2.0px;stroke-linecap:butt;stroke-linejoin:miter;stroke-opacity:1"/>
<path class="bond-10 atom-3 atom-15" d="M 512.4,172.2 L 491.0,175.0" style="fill:none;fill-rule:evenodd;stroke:#000000;stroke-width:2.0px;stroke-linecap:butt;stroke-linejoin:miter;stroke-opacity:1"/>
<path class="bond-10 atom-3 atom-15" d="M 509.7,176.5 L 494.7,178.4" style="fill:none;fill-rule:evenodd;stroke:#000000;stroke-width:2.0px;stroke-linecap:butt;stroke-linejoin:miter;stroke-opacity:1"/>
<path class="bond-11 atom-5 atom-14" d="M 505.8,206.5 L 487.0,196.1" style="fill:none;fill-rule:evenodd;stroke:#000000;stroke-width:2.0px;stroke-linecap:butt;stroke-linejoin:miter;stroke-opacity:1"/>
<path class="bond-12 atom-19 atom-20" d="M 455.9,163.9 L 460.0,178.9" style="fill:none;fill-rule:evenodd;stroke:#000000;stroke-width:2.0px;stroke-linecap:butt;stroke-linejoin:miter;stroke-opacity:1"/>
<path class="bond-13 atom-8 atom-9" d="M 487.7,239.2 L 488.1,255.5" style="fill:none;fill-rule:evenodd;stroke:#000000;stroke-width:2.0px;stroke-linecap:butt;stroke-linejoin:miter;stroke-opacity:1"/>
<path class="bond-14 atom-6 atom-8" d="M 506.2,228.1 L 487.7,239.2" style="fill:none;fill-rule:evenodd;stroke:#000000;stroke-width:2.0px;stroke-linecap:butt;stroke-linejoin:miter;stroke-opacity:1"/>
<path class="bond-15 atom-1 atom-3" d="M 522.8,153.4 L 512.4,172.2" style="fill:none;fill-rule:evenodd;stroke:#000000;stroke-width:2.0px;stroke-linecap:butt;stroke-linejoin:miter;stroke-opacity:1"/>
<path class="bond-16 atom-3 atom-4" d="M 512.4,172.2 L 515.8,179.4" style="fill:none;fill-rule:evenodd;stroke:#000000;stroke-width:2.0px;stroke-linecap:butt;stroke-linejoin:miter;stroke-opacity:1"/>
<path class="bond-16 atom-3 atom-4" d="M 515.8,179.4 L 519.1,186.5" style="fill:none;fill-rule:evenodd;stroke:#CCCC00;stroke-width:2.0px;stroke-linecap:butt;stroke-linejoin:miter;stroke-opacity:1"/>
<path class="bond-17 atom-0 atom-1" d="M 515.0,140.4 L 518.9,146.9" style="fill:none;fill-rule:evenodd;stroke:#FF0000;stroke-width:2.0px;stroke-linecap:butt;stroke-linejoin:miter;stroke-opacity:1"/>
<path class="bond-17 atom-0 atom-1" d="M 518.9,146.9 L 522.8,153.4" style="fill:none;fill-rule:evenodd;stroke:#000000;stroke-width:2.0px;stroke-linecap:butt;stroke-linejoin:miter;stroke-opacity:1"/>
<path class="bond-18 atom-5 atom-6" d="M 505.8,206.5 L 506.2,228.1" style="fill:none;fill-rule:evenodd;stroke:#000000;stroke-width:2.0px;stroke-linecap:butt;stroke-linejoin:miter;stroke-opacity:1"/>
<path class="bond-18 atom-5 atom-6" d="M 502.0,209.8 L 502.3,224.9" style="fill:none;fill-rule:evenodd;stroke:#000000;stroke-width:2.0px;stroke-linecap:butt;stroke-linejoin:miter;stroke-opacity:1"/>
<path class="bond-19 atom-4 atom-5" d="M 517.9,195.2 L 511.9,200.9" style="fill:none;fill-rule:evenodd;stroke:#CCCC00;stroke-width:2.0px;stroke-linecap:butt;stroke-linejoin:miter;stroke-opacity:1"/>
<path class="bond-19 atom-4 atom-5" d="M 511.9,200.9 L 505.8,206.5" style="fill:none;fill-rule:evenodd;stroke:#000000;stroke-width:2.0px;stroke-linecap:butt;stroke-linejoin:miter;stroke-opacity:1"/>
<path class="bond-20 atom-1 atom-2" d="M 522.8,151.5 L 531.1,151.3" style="fill:none;fill-rule:evenodd;stroke:#000000;stroke-width:2.0px;stroke-linecap:butt;stroke-linejoin:miter;stroke-opacity:1"/>
<path class="bond-20 atom-1 atom-2" d="M 531.1,151.3 L 539.5,151.2" style="fill:none;fill-rule:evenodd;stroke:#FF0000;stroke-width:2.0px;stroke-linecap:butt;stroke-linejoin:miter;stroke-opacity:1"/>
<path class="bond-20 atom-1 atom-2" d="M 522.9,155.3 L 531.2,155.2" style="fill:none;fill-rule:evenodd;stroke:#000000;stroke-width:2.0px;stroke-linecap:butt;stroke-linejoin:miter;stroke-opacity:1"/>
<path class="bond-20 atom-1 atom-2" d="M 531.2,155.2 L 539.5,155.1" style="fill:none;fill-rule:evenodd;stroke:#FF0000;stroke-width:2.0px;stroke-linecap:butt;stroke-linejoin:miter;stroke-opacity:1"/>
<path class="bond-21 atom-6 atom-7" d="M 506.2,228.1 L 520.8,236.1" style="fill:none;fill-rule:evenodd;stroke:#000000;stroke-width:2.0px;stroke-linecap:butt;stroke-linejoin:miter;stroke-opacity:1"/>
<path class="bond-22 atom-19 atom-21" d="M 455.9,163.9 L 444.9,174.9" style="fill:none;fill-rule:evenodd;stroke:#000000;stroke-width:2.0px;stroke-linecap:butt;stroke-linejoin:miter;stroke-opacity:1"/>
<path class="bond-23 atom-19 atom-22" d="M 455.9,163.9 L 441.1,148.7" style="fill:none;fill-rule:evenodd;stroke:#000000;stroke-width:2.0px;stroke-linecap:butt;stroke-linejoin:miter;stroke-opacity:1"/>
<path class="bond-24 atom-41 atom-42" d="M 411.1,116.7 L 406.3,131.5" style="fill:none;fill-rule:evenodd;stroke:#000000;stroke-width:2.0px;stroke-linecap:butt;stroke-linejoin:miter;stroke-opacity:1"/>
<path class="bond-25 atom-22 atom-25" d="M 441.1,148.7 L 443.3,141.1" style="fill:none;fill-rule:evenodd;stroke:#000000;stroke-width:2.0px;stroke-linecap:butt;stroke-linejoin:miter;stroke-opacity:1"/>
<path class="bond-25 atom-22 atom-25" d="M 443.3,141.1 L 445.5,133.4" style="fill:none;fill-rule:evenodd;stroke:#FF0000;stroke-width:2.0px;stroke-linecap:butt;stroke-linejoin:miter;stroke-opacity:1"/>
<path class="bond-26 atom-25 atom-26" d="M 442.1,122.6 L 437.2,117.3" style="fill:none;fill-rule:evenodd;stroke:#FF0000;stroke-width:2.0px;stroke-linecap:butt;stroke-linejoin:miter;stroke-opacity:1"/>
<path class="bond-26 atom-25 atom-26" d="M 437.2,117.3 L 432.2,112.0" style="fill:none;fill-rule:evenodd;stroke:#000000;stroke-width:2.0px;stroke-linecap:butt;stroke-linejoin:miter;stroke-opacity:1"/>
<path class="bond-27 atom-37 atom-39" d="M 375.6,105.6 L 372.0,89.9" style="fill:none;fill-rule:evenodd;stroke:#000000;stroke-width:2.0px;stroke-linecap:butt;stroke-linejoin:miter;stroke-opacity:1"/>
<path class="bond-28 atom-22 atom-24" d="M 441.1,148.7 L 430.0,159.6" style="fill:none;fill-rule:evenodd;stroke:#000000;stroke-width:2.0px;stroke-linecap:butt;stroke-linejoin:miter;stroke-opacity:1"/>
<path class="bond-29 atom-22 atom-23" d="M 441.1,148.7 L 425.0,144.3" style="fill:none;fill-rule:evenodd;stroke:#000000;stroke-width:2.0px;stroke-linecap:butt;stroke-linejoin:miter;stroke-opacity:1"/>
<path class="bond-30 atom-26 atom-41" d="M 432.2,112.0 L 411.1,116.7" style="fill:none;fill-rule:evenodd;stroke:#000000;stroke-width:2.0px;stroke-linecap:butt;stroke-linejoin:miter;stroke-opacity:1"/>
<path class="bond-31 atom-36 atom-41" d="M 396.6,100.8 L 411.1,116.7" style="fill:none;fill-rule:evenodd;stroke:#000000;stroke-width:2.0px;stroke-linecap:butt;stroke-linejoin:miter;stroke-opacity:1"/>
<path class="bond-31 atom-36 atom-41" d="M 401.7,100.6 L 411.8,111.7" style="fill:none;fill-rule:evenodd;stroke:#000000;stroke-width:2.0px;stroke-linecap:butt;stroke-linejoin:miter;stroke-opacity:1"/>
<path class="bond-32 atom-37 atom-40" d="M 375.6,105.6 L 359.3,100.6" style="fill:none;fill-rule:evenodd;stroke:#000000;stroke-width:2.0px;stroke-linecap:butt;stroke-linejoin:miter;stroke-opacity:1"/>
<path class="bond-33 atom-26 atom-27" d="M 432.2,112.0 L 438.8,91.5" style="fill:none;fill-rule:evenodd;stroke:#000000;stroke-width:2.0px;stroke-linecap:butt;stroke-linejoin:miter;stroke-opacity:1"/>
<path class="bond-33 atom-26 atom-27" d="M 429.5,107.8 L 434.1,93.4" style="fill:none;fill-rule:evenodd;stroke:#000000;stroke-width:2.0px;stroke-linecap:butt;stroke-linejoin:miter;stroke-opacity:1"/>
<path class="bond-34 atom-36 atom-37" d="M 396.6,100.8 L 375.6,105.6" style="fill:none;fill-rule:evenodd;stroke:#000000;stroke-width:2.0px;stroke-linecap:butt;stroke-linejoin:miter;stroke-opacity:1"/>
<path class="bond-35 atom-37 atom-38" d="M 375.6,105.6 L 370.9,120.9" style="fill:none;fill-rule:evenodd;stroke:#000000;stroke-width:2.0px;stroke-linecap:butt;stroke-linejoin:miter;stroke-opacity:1"/>
<path class="bond-36 atom-34 atom-36" d="M 403.1,80.2 L 396.6,100.8" style="fill:none;fill-rule:evenodd;stroke:#000000;stroke-width:2.0px;stroke-linecap:butt;stroke-linejoin:miter;stroke-opacity:1"/>
<path class="bond-37 atom-27 atom-28" d="M 438.8,91.5 L 455.6,87.8" style="fill:none;fill-rule:evenodd;stroke:#000000;stroke-width:2.0px;stroke-linecap:butt;stroke-linejoin:miter;stroke-opacity:1"/>
<path class="bond-38 atom-27 atom-29" d="M 438.8,91.5 L 424.2,75.6" style="fill:none;fill-rule:evenodd;stroke:#000000;stroke-width:2.0px;stroke-linecap:butt;stroke-linejoin:miter;stroke-opacity:1"/>
<path class="bond-39 atom-29 atom-34" d="M 424.2,75.6 L 403.1,80.2" style="fill:none;fill-rule:evenodd;stroke:#000000;stroke-width:2.0px;stroke-linecap:butt;stroke-linejoin:miter;stroke-opacity:1"/>
<path class="bond-39 atom-29 atom-34" d="M 421.9,80.1 L 407.1,83.3" style="fill:none;fill-rule:evenodd;stroke:#000000;stroke-width:2.0px;stroke-linecap:butt;stroke-linejoin:miter;stroke-opacity:1"/>
<path class="bond-40 atom-34 atom-35" d="M 403.1,80.2 L 396.5,73.0" style="fill:none;fill-rule:evenodd;stroke:#000000;stroke-width:2.0px;stroke-linecap:butt;stroke-linejoin:miter;stroke-opacity:1"/>
<path class="bond-40 atom-34 atom-35" d="M 396.5,73.0 L 389.9,65.8" style="fill:none;fill-rule:evenodd;stroke:#00CC00;stroke-width:2.0px;stroke-linecap:butt;stroke-linejoin:miter;stroke-opacity:1"/>
<path class="bond-41 atom-29 atom-30" d="M 424.2,75.6 L 430.6,55.0" style="fill:none;fill-rule:evenodd;stroke:#000000;stroke-width:2.0px;stroke-linecap:butt;stroke-linejoin:miter;stroke-opacity:1"/>
<path class="bond-42 atom-30 atom-32" d="M 430.6,55.0 L 446.9,60.0" style="fill:none;fill-rule:evenodd;stroke:#000000;stroke-width:2.0px;stroke-linecap:butt;stroke-linejoin:miter;stroke-opacity:1"/>
<path class="bond-43 atom-30 atom-31" d="M 430.6,55.0 L 442.1,44.3" style="fill:none;fill-rule:evenodd;stroke:#000000;stroke-width:2.0px;stroke-linecap:butt;stroke-linejoin:miter;stroke-opacity:1"/>
<path class="bond-44 atom-30 atom-33" d="M 430.6,55.0 L 420.2,43.8" style="fill:none;fill-rule:evenodd;stroke:#000000;stroke-width:2.0px;stroke-linecap:butt;stroke-linejoin:miter;stroke-opacity:1"/>
<path class="atom-0" d="M 507.5 135.0 Q 507.5 132.8, 508.6 131.5 Q 509.7 130.3, 511.7 130.3 Q 513.8 130.3, 514.9 131.5 Q 516.0 132.8, 516.0 135.0 Q 516.0 137.2, 514.9 138.5 Q 513.8 139.7, 511.7 139.7 Q 509.7 139.7, 508.6 138.5 Q 507.5 137.2, 507.5 135.0 M 511.7 138.7 Q 513.1 138.7, 513.9 137.7 Q 514.7 136.8, 514.7 135.0 Q 514.7 133.2, 513.9 132.3 Q 513.1 131.3, 511.7 131.3 Q 510.4 131.3, 509.6 132.2 Q 508.8 133.1, 508.8 135.0 Q 508.8 136.8, 509.6 137.7 Q 510.4 138.7, 511.7 138.7 " fill="#FF0000"/>
<path class="atom-0" d="M 516.6 131.8 L 519.7 131.8 L 519.7 132.5 L 516.6 132.5 L 516.6 131.8 " fill="#FF0000"/>
<path class="atom-2" d="M 540.2 153.1 Q 540.2 150.9, 541.3 149.6 Q 542.4 148.4, 544.4 148.4 Q 546.4 148.4, 547.5 149.6 Q 548.6 150.9, 548.6 153.1 Q 548.6 155.3, 547.5 156.6 Q 546.4 157.8, 544.4 157.8 Q 542.4 157.8, 541.3 156.6 Q 540.2 155.3, 540.2 153.1 M 544.4 156.8 Q 545.8 156.8, 546.6 155.9 Q 547.3 154.9, 547.3 153.1 Q 547.3 151.3, 546.6 150.4 Q 545.8 149.4, 544.4 149.4 Q 543.0 149.4, 542.3 150.4 Q 541.5 151.3, 541.5 153.1 Q 541.5 154.9, 542.3 155.9 Q 543.0 156.8, 544.4 156.8 " fill="#FF0000"/>
<path class="atom-4" d="M 519.0 194.9 Q 519.1 194.9, 519.5 195.1 Q 520.0 195.3, 520.4 195.4 Q 520.9 195.5, 521.4 195.5 Q 522.2 195.5, 522.7 195.1 Q 523.2 194.7, 523.2 193.9 Q 523.2 193.4, 523.0 193.1 Q 522.7 192.8, 522.3 192.6 Q 522.0 192.5, 521.3 192.3 Q 520.5 192.0, 520.0 191.8 Q 519.5 191.6, 519.2 191.1 Q 518.8 190.6, 518.8 189.8 Q 518.8 188.6, 519.6 187.9 Q 520.4 187.2, 522.0 187.2 Q 523.0 187.2, 524.2 187.7 L 523.9 188.7 Q 522.8 188.2, 522.0 188.2 Q 521.1 188.2, 520.6 188.6 Q 520.1 189.0, 520.1 189.6 Q 520.1 190.1, 520.4 190.4 Q 520.6 190.7, 521.0 190.9 Q 521.4 191.0, 522.0 191.2 Q 522.8 191.5, 523.3 191.7 Q 523.8 192.0, 524.2 192.5 Q 524.5 193.0, 524.5 193.9 Q 524.5 195.2, 523.7 195.9 Q 522.8 196.6, 521.4 196.6 Q 520.6 196.6, 520.0 196.4 Q 519.4 196.2, 518.6 195.9 L 519.0 194.9 " fill="#CCCC00"/>
<path class="atom-7" d="M 521.5 233.9 L 522.8 233.9 L 522.8 237.8 L 527.5 237.8 L 527.5 233.9 L 528.7 233.9 L 528.7 243.1 L 527.5 243.1 L 527.5 238.8 L 522.8 238.8 L 522.8 243.1 L 521.5 243.1 L 521.5 233.9 " fill="#000000"/>
<path class="atom-9" d="M 484.6 256.2 L 485.8 256.2 L 485.8 260.1 L 490.5 260.1 L 490.5 256.2 L 491.8 256.2 L 491.8 265.4 L 490.5 265.4 L 490.5 261.2 L 485.8 261.2 L 485.8 265.4 L 484.6 265.4 L 484.6 256.2 " fill="#000000"/>
<path class="atom-11" d="M 446.8 235.5 L 448.0 235.5 L 448.0 239.4 L 452.7 239.4 L 452.7 235.5 L 454.0 235.5 L 454.0 244.6 L 452.7 244.6 L 452.7 240.4 L 448.0 240.4 L 448.0 244.6 L 446.8 244.6 L 446.8 235.5 " fill="#000000"/>
<path class="atom-13" d="M 445.8 192.7 L 447.0 192.7 L 447.0 196.6 L 451.7 196.6 L 451.7 192.7 L 453.0 192.7 L 453.0 201.8 L 451.7 201.8 L 451.7 197.6 L 447.0 197.6 L 447.0 201.8 L 445.8 201.8 L 445.8 192.7 " fill="#000000"/>
<path class="atom-17" d="M 488.7 139.8 L 489.9 139.8 L 489.9 143.7 L 494.6 143.7 L 494.6 139.8 L 495.9 139.8 L 495.9 149.0 L 494.6 149.0 L 494.6 144.8 L 489.9 144.8 L 489.9 149.0 L 488.7 149.0 L 488.7 139.8 " fill="#000000"/>
<path class="atom-18" d="M 468.0 133.5 L 469.2 133.5 L 469.2 137.4 L 473.9 137.4 L 473.9 133.5 L 475.2 133.5 L 475.2 142.6 L 473.9 142.6 L 473.9 138.4 L 469.2 138.4 L 469.2 142.6 L 468.0 142.6 L 468.0 133.5 " fill="#000000"/>
<path class="atom-20" d="M 457.9 179.6 L 459.1 179.6 L 459.1 183.5 L 463.8 183.5 L 463.8 179.6 L 465.1 179.6 L 465.1 188.7 L 463.8 188.7 L 463.8 184.5 L 459.1 184.5 L 459.1 188.7 L 457.9 188.7 L 457.9 179.6 " fill="#000000"/>
<path class="atom-21" d="M 437.0 174.6 L 438.3 174.6 L 438.3 178.5 L 443.0 178.5 L 443.0 174.6 L 444.2 174.6 L 444.2 183.7 L 443.0 183.7 L 443.0 179.5 L 438.3 179.5 L 438.3 183.7 L 437.0 183.7 L 437.0 174.6 " fill="#000000"/>
<path class="atom-23" d="M 417.1 138.6 L 418.3 138.6 L 418.3 142.5 L 423.0 142.5 L 423.0 138.6 L 424.2 138.6 L 424.2 147.7 L 423.0 147.7 L 423.0 143.5 L 418.3 143.5 L 418.3 147.7 L 417.1 147.7 L 417.1 138.6 " fill="#000000"/>
<path class="atom-24" d="M 422.1 159.3 L 423.3 159.3 L 423.3 163.1 L 428.0 163.1 L 428.0 159.3 L 429.3 159.3 L 429.3 168.4 L 428.0 168.4 L 428.0 164.2 L 423.3 164.2 L 423.3 168.4 L 422.1 168.4 L 422.1 159.3 " fill="#000000"/>
<path class="atom-25" d="M 442.8 127.9 Q 442.8 125.7, 443.9 124.5 Q 445.0 123.3, 447.0 123.3 Q 449.1 123.3, 450.1 124.5 Q 451.2 125.7, 451.2 127.9 Q 451.2 130.2, 450.1 131.4 Q 449.0 132.7, 447.0 132.7 Q 445.0 132.7, 443.9 131.4 Q 442.8 130.2, 442.8 127.9 M 447.0 131.7 Q 448.4 131.7, 449.2 130.7 Q 449.9 129.8, 449.9 127.9 Q 449.9 126.1, 449.2 125.2 Q 448.4 124.3, 447.0 124.3 Q 445.6 124.3, 444.9 125.2 Q 444.1 126.1, 444.1 127.9 Q 444.1 129.8, 444.9 130.7 Q 445.6 131.7, 447.0 131.7 " fill="#FF0000"/>
<path class="atom-28" d="M 456.3 82.3 L 457.5 82.3 L 457.5 86.2 L 462.2 86.2 L 462.2 82.3 L 463.4 82.3 L 463.4 91.4 L 462.2 91.4 L 462.2 87.2 L 457.5 87.2 L 457.5 91.4 L 456.3 91.4 L 456.3 82.3 " fill="#000000"/>
<path class="atom-31" d="M 442.8 35.7 L 444.0 35.7 L 444.0 39.6 L 448.7 39.6 L 448.7 35.7 L 450.0 35.7 L 450.0 44.9 L 448.7 44.9 L 448.7 40.6 L 444.0 40.6 L 444.0 44.9 L 442.8 44.9 L 442.8 35.7 " fill="#000000"/>
<path class="atom-32" d="M 447.6 56.7 L 448.9 56.7 L 448.9 60.6 L 453.6 60.6 L 453.6 56.7 L 454.8 56.7 L 454.8 65.9 L 453.6 65.9 L 453.6 61.7 L 448.9 61.7 L 448.9 65.9 L 447.6 65.9 L 447.6 56.7 " fill="#000000"/>
<path class="atom-33" d="M 412.3 34.6 L 413.6 34.6 L 413.6 38.5 L 418.3 38.5 L 418.3 34.6 L 419.5 34.6 L 419.5 43.8 L 418.3 43.8 L 418.3 39.5 L 413.6 39.5 L 413.6 43.8 L 412.3 43.8 L 412.3 34.6 " fill="#000000"/>
<path class="atom-35" d="M 380.4 64.7 Q 380.4 62.4, 381.5 61.2 Q 382.5 60.0, 384.6 60.0 Q 386.5 60.0, 387.5 61.3 L 386.6 62.0 Q 385.9 61.0, 384.6 61.0 Q 383.2 61.0, 382.5 62.0 Q 381.7 62.9, 381.7 64.7 Q 381.7 66.5, 382.5 67.4 Q 383.2 68.3, 384.7 68.3 Q 385.7 68.3, 386.9 67.7 L 387.3 68.7 Q 386.8 69.0, 386.1 69.2 Q 385.3 69.4, 384.5 69.4 Q 382.5 69.4, 381.5 68.1 Q 380.4 66.9, 380.4 64.7 " fill="#00CC00"/>
<path class="atom-35" d="M 388.0 59.4 L 389.2 59.4 L 389.2 69.2 L 388.0 69.2 L 388.0 59.4 " fill="#00CC00"/>
<path class="atom-38" d="M 365.7 121.6 L 366.9 121.6 L 366.9 125.5 L 371.6 125.5 L 371.6 121.6 L 372.8 121.6 L 372.8 130.8 L 371.6 130.8 L 371.6 126.6 L 366.9 126.6 L 366.9 130.8 L 365.7 130.8 L 365.7 121.6 " fill="#000000"/>
<path class="atom-39" d="M 367.2 80.0 L 368.4 80.0 L 368.4 83.9 L 373.1 83.9 L 373.1 80.0 L 374.3 80.0 L 374.3 89.2 L 373.1 89.2 L 373.1 84.9 L 368.4 84.9 L 368.4 89.2 L 367.2 89.2 L 367.2 80.0 " fill="#000000"/>
<path class="atom-40" d="M 351.4 94.7 L 352.6 94.7 L 352.6 98.6 L 357.3 98.6 L 357.3 94.7 L 358.6 94.7 L 358.6 103.9 L 357.3 103.9 L 357.3 99.6 L 352.6 99.6 L 352.6 103.9 L 351.4 103.9 L 351.4 94.7 " fill="#000000"/>
<path class="atom-42" d="M 401.0 132.2 L 402.2 132.2 L 402.2 136.1 L 406.9 136.1 L 406.9 132.2 L 408.2 132.2 L 408.2 141.4 L 406.9 141.4 L 406.9 137.2 L 402.2 137.2 L 402.2 141.4 L 401.0 141.4 L 401.0 132.2 " fill="#000000"/>
<text x="300" y="20" font-size="20" font-family="sans-serif" font-weight="normal" letter-spacing="0" text-anchor="middle" fill="black">mcl1 56 -&gt; 60 </text><text x="150" y="285" font-size="15" font-family="sans-serif" font-weight="normal" letter-spacing="0" text-anchor="middle" fill="black">56</text><text x="450" y="285" font-size="15" font-family="sans-serif" font-weight="normal" letter-spacing="0" text-anchor="middle" fill="black">60</text></svg>
