<?xml version='1.0' encoding='ASCII' standalone='yes'?>
<svg xmlns="http://www.w3.org/2000/svg" xmlns:rdkit="http://www.rdkit.org/xml" xmlns:xlink="http://www.w3.org/1999/xlink" version="1.1" baseProfile="full" xml:space="preserve" width="600px" height="300px" viewBox="0 0 600 300">
<!-- END OF HEADER -->
<rect style="opacity:1.0;fill:#FFFFFF;stroke:none" width="600.0" height="300.0" x="0.0" y="0.0"> </rect>
<path class="bond-0 atom-0 atom-2" d="M 220.2,136.9 L 228.6,141.3" style="fill:none;fill-rule:evenodd;stroke:#000000;stroke-width:2.0px;stroke-linecap:butt;stroke-linejoin:miter;stroke-opacity:1"/>
<path class="bond-0 atom-0 atom-2" d="M 228.6,141.3 L 236.9,145.8" style="fill:none;fill-rule:evenodd;stroke:#FF0000;stroke-width:2.0px;stroke-linecap:butt;stroke-linejoin:miter;stroke-opacity:1"/>
<path class="bond-0 atom-0 atom-2" d="M 218.1,140.9 L 226.4,145.4" style="fill:none;fill-rule:evenodd;stroke:#000000;stroke-width:2.0px;stroke-linecap:butt;stroke-linejoin:miter;stroke-opacity:1"/>
<path class="bond-0 atom-0 atom-2" d="M 226.4,145.4 L 234.7,149.9" style="fill:none;fill-rule:evenodd;stroke:#FF0000;stroke-width:2.0px;stroke-linecap:butt;stroke-linejoin:miter;stroke-opacity:1"/>
<path class="bond-1 atom-0 atom-3" d="M 219.1,138.9 L 197.2,146.4" style="fill:none;fill-rule:evenodd;stroke:#000000;stroke-width:2.0px;stroke-linecap:butt;stroke-linejoin:miter;stroke-opacity:1"/>
<path class="bond-2 atom-0 atom-4" d="M 219.1,138.9 L 219.0,129.3" style="fill:none;fill-rule:evenodd;stroke:#000000;stroke-width:2.0px;stroke-linecap:butt;stroke-linejoin:miter;stroke-opacity:1"/>
<path class="bond-2 atom-0 atom-4" d="M 219.0,129.3 L 218.9,119.8" style="fill:none;fill-rule:evenodd;stroke:#0000FF;stroke-width:2.0px;stroke-linecap:butt;stroke-linejoin:miter;stroke-opacity:1"/>
<path class="bond-3 atom-1 atom-3" d="M 186.4,131.9 L 191.8,139.1" style="fill:none;fill-rule:evenodd;stroke:#0000FF;stroke-width:2.0px;stroke-linecap:butt;stroke-linejoin:miter;stroke-opacity:1"/>
<path class="bond-3 atom-1 atom-3" d="M 191.8,139.1 L 197.2,146.4" style="fill:none;fill-rule:evenodd;stroke:#000000;stroke-width:2.0px;stroke-linecap:butt;stroke-linejoin:miter;stroke-opacity:1"/>
<path class="bond-4 atom-1 atom-5" d="M 186.2,123.8 L 191.4,116.4" style="fill:none;fill-rule:evenodd;stroke:#0000FF;stroke-width:2.0px;stroke-linecap:butt;stroke-linejoin:miter;stroke-opacity:1"/>
<path class="bond-4 atom-1 atom-5" d="M 191.4,116.4 L 196.7,108.9" style="fill:none;fill-rule:evenodd;stroke:#000000;stroke-width:2.0px;stroke-linecap:butt;stroke-linejoin:miter;stroke-opacity:1"/>
<path class="bond-4 atom-1 atom-5" d="M 191.6,124.2 L 195.2,119.0" style="fill:none;fill-rule:evenodd;stroke:#0000FF;stroke-width:2.0px;stroke-linecap:butt;stroke-linejoin:miter;stroke-opacity:1"/>
<path class="bond-4 atom-1 atom-5" d="M 195.2,119.0 L 198.9,113.8" style="fill:none;fill-rule:evenodd;stroke:#000000;stroke-width:2.0px;stroke-linecap:butt;stroke-linejoin:miter;stroke-opacity:1"/>
<path class="bond-5 atom-1 atom-47" d="M 180.1,127.5 L 171.9,126.6" style="fill:none;fill-rule:evenodd;stroke:#0000FF;stroke-width:2.0px;stroke-linecap:butt;stroke-linejoin:miter;stroke-opacity:1"/>
<path class="bond-5 atom-1 atom-47" d="M 171.9,126.6 L 163.6,125.7" style="fill:none;fill-rule:evenodd;stroke:#000000;stroke-width:2.0px;stroke-linecap:butt;stroke-linejoin:miter;stroke-opacity:1"/>
<path class="bond-6 atom-3 atom-19" d="M 197.2,146.4 L 178.5,160.2 L 176.2,156.3 Z" style="fill:#000000;fill-rule:evenodd;fill-opacity:1;stroke:#000000;stroke-width:1.0px;stroke-linecap:butt;stroke-linejoin:miter;stroke-opacity:1;"/>
<path class="bond-7 atom-3 atom-13" d="M 197.2,146.4 L 207.0,167.4" style="fill:none;fill-rule:evenodd;stroke:#000000;stroke-width:2.0px;stroke-linecap:butt;stroke-linejoin:miter;stroke-opacity:1"/>
<path class="bond-8 atom-4 atom-7" d="M 222.0,113.3 L 229.7,107.6" style="fill:none;fill-rule:evenodd;stroke:#0000FF;stroke-width:2.0px;stroke-linecap:butt;stroke-linejoin:miter;stroke-opacity:1"/>
<path class="bond-8 atom-4 atom-7" d="M 229.7,107.6 L 237.3,101.9" style="fill:none;fill-rule:evenodd;stroke:#000000;stroke-width:2.0px;stroke-linecap:butt;stroke-linejoin:miter;stroke-opacity:1"/>
<path class="bond-9 atom-4 atom-5" d="M 215.6,114.7 L 206.1,111.8" style="fill:none;fill-rule:evenodd;stroke:#0000FF;stroke-width:2.0px;stroke-linecap:butt;stroke-linejoin:miter;stroke-opacity:1"/>
<path class="bond-9 atom-4 atom-5" d="M 206.1,111.8 L 196.7,108.9" style="fill:none;fill-rule:evenodd;stroke:#000000;stroke-width:2.0px;stroke-linecap:butt;stroke-linejoin:miter;stroke-opacity:1"/>
<path class="bond-10 atom-5 atom-6" d="M 196.7,108.9 L 193.6,100.0" style="fill:none;fill-rule:evenodd;stroke:#000000;stroke-width:2.0px;stroke-linecap:butt;stroke-linejoin:miter;stroke-opacity:1"/>
<path class="bond-10 atom-5 atom-6" d="M 193.6,100.0 L 190.6,91.0" style="fill:none;fill-rule:evenodd;stroke:#0000FF;stroke-width:2.0px;stroke-linecap:butt;stroke-linejoin:miter;stroke-opacity:1"/>
<path class="bond-11 atom-6 atom-42" d="M 192.4,83.3 L 196.8,78.3" style="fill:none;fill-rule:evenodd;stroke:#0000FF;stroke-width:2.0px;stroke-linecap:butt;stroke-linejoin:miter;stroke-opacity:1"/>
<path class="bond-11 atom-6 atom-42" d="M 196.8,78.3 L 201.1,73.4" style="fill:none;fill-rule:evenodd;stroke:#000000;stroke-width:2.0px;stroke-linecap:butt;stroke-linejoin:miter;stroke-opacity:1"/>
<path class="bond-12 atom-6 atom-43" d="M 186.0,86.4 L 177.9,84.8" style="fill:none;fill-rule:evenodd;stroke:#0000FF;stroke-width:2.0px;stroke-linecap:butt;stroke-linejoin:miter;stroke-opacity:1"/>
<path class="bond-12 atom-6 atom-43" d="M 177.9,84.8 L 169.8,83.2" style="fill:none;fill-rule:evenodd;stroke:#000000;stroke-width:2.0px;stroke-linecap:butt;stroke-linejoin:miter;stroke-opacity:1"/>
<path class="bond-13 atom-7 atom-46" d="M 237.3,101.9 L 252.5,90.5" style="fill:none;fill-rule:evenodd;stroke:#000000;stroke-width:2.0px;stroke-linecap:butt;stroke-linejoin:miter;stroke-opacity:1"/>
<path class="bond-14 atom-7 atom-44" d="M 237.3,101.9 L 226.5,87.4" style="fill:none;fill-rule:evenodd;stroke:#000000;stroke-width:2.0px;stroke-linecap:butt;stroke-linejoin:miter;stroke-opacity:1"/>
<path class="bond-15 atom-7 atom-45" d="M 237.3,101.9 L 248.2,116.4" style="fill:none;fill-rule:evenodd;stroke:#000000;stroke-width:2.0px;stroke-linecap:butt;stroke-linejoin:miter;stroke-opacity:1"/>
<path class="bond-16 atom-8 atom-25" d="M 76.9,148.2 L 76.6,125.0" style="fill:none;fill-rule:evenodd;stroke:#000000;stroke-width:2.0px;stroke-linecap:butt;stroke-linejoin:miter;stroke-opacity:1"/>
<path class="bond-16 atom-8 atom-25" d="M 81.5,144.6 L 81.3,128.4" style="fill:none;fill-rule:evenodd;stroke:#000000;stroke-width:2.0px;stroke-linecap:butt;stroke-linejoin:miter;stroke-opacity:1"/>
<path class="bond-17 atom-8 atom-27" d="M 76.9,148.2 L 97.2,159.5" style="fill:none;fill-rule:evenodd;stroke:#000000;stroke-width:2.0px;stroke-linecap:butt;stroke-linejoin:miter;stroke-opacity:1"/>
<path class="bond-18 atom-8 atom-9" d="M 76.9,148.2 L 57.1,160.0" style="fill:none;fill-rule:evenodd;stroke:#000000;stroke-width:2.0px;stroke-linecap:butt;stroke-linejoin:miter;stroke-opacity:1"/>
<path class="bond-19 atom-9 atom-12" d="M 57.1,160.0 L 40.5,169.9" style="fill:none;fill-rule:evenodd;stroke:#000000;stroke-width:2.0px;stroke-linecap:butt;stroke-linejoin:miter;stroke-opacity:1"/>
<path class="bond-20 atom-9 atom-10" d="M 57.1,160.0 L 47.6,144.2" style="fill:none;fill-rule:evenodd;stroke:#000000;stroke-width:2.0px;stroke-linecap:butt;stroke-linejoin:miter;stroke-opacity:1"/>
<path class="bond-21 atom-9 atom-11" d="M 57.1,160.0 L 66.5,175.9" style="fill:none;fill-rule:evenodd;stroke:#000000;stroke-width:2.0px;stroke-linecap:butt;stroke-linejoin:miter;stroke-opacity:1"/>
<path class="bond-22 atom-13 atom-18" d="M 207.0,167.4 L 193.6,186.3" style="fill:none;fill-rule:evenodd;stroke:#000000;stroke-width:2.0px;stroke-linecap:butt;stroke-linejoin:miter;stroke-opacity:1"/>
<path class="bond-23 atom-13 atom-14" d="M 207.0,167.4 L 230.0,169.5" style="fill:none;fill-rule:evenodd;stroke:#000000;stroke-width:2.0px;stroke-linecap:butt;stroke-linejoin:miter;stroke-opacity:1"/>
<path class="bond-23 atom-13 atom-14" d="M 210.0,172.3 L 226.2,173.8" style="fill:none;fill-rule:evenodd;stroke:#000000;stroke-width:2.0px;stroke-linecap:butt;stroke-linejoin:miter;stroke-opacity:1"/>
<path class="bond-24 atom-14 atom-15" d="M 230.0,169.5 L 239.8,190.5" style="fill:none;fill-rule:evenodd;stroke:#000000;stroke-width:2.0px;stroke-linecap:butt;stroke-linejoin:miter;stroke-opacity:1"/>
<path class="bond-25 atom-14 atom-41" d="M 230.0,169.5 L 242.2,156.0" style="fill:none;fill-rule:evenodd;stroke:#000000;stroke-width:2.0px;stroke-linecap:butt;stroke-linejoin:miter;stroke-opacity:1"/>
<path class="bond-26 atom-15 atom-16" d="M 239.8,190.5 L 226.4,209.4" style="fill:none;fill-rule:evenodd;stroke:#000000;stroke-width:2.0px;stroke-linecap:butt;stroke-linejoin:miter;stroke-opacity:1"/>
<path class="bond-26 atom-15 atom-16" d="M 234.0,190.7 L 224.6,203.9" style="fill:none;fill-rule:evenodd;stroke:#000000;stroke-width:2.0px;stroke-linecap:butt;stroke-linejoin:miter;stroke-opacity:1"/>
<path class="bond-27 atom-15 atom-38" d="M 239.8,190.5 L 259.5,192.3" style="fill:none;fill-rule:evenodd;stroke:#000000;stroke-width:2.0px;stroke-linecap:butt;stroke-linejoin:miter;stroke-opacity:1"/>
<path class="bond-28 atom-16 atom-17" d="M 226.4,209.4 L 203.4,207.3" style="fill:none;fill-rule:evenodd;stroke:#000000;stroke-width:2.0px;stroke-linecap:butt;stroke-linejoin:miter;stroke-opacity:1"/>
<path class="bond-29 atom-16 atom-40" d="M 226.4,209.4 L 234.3,226.4" style="fill:none;fill-rule:evenodd;stroke:#000000;stroke-width:2.0px;stroke-linecap:butt;stroke-linejoin:miter;stroke-opacity:1"/>
<path class="bond-30 atom-17 atom-39" d="M 203.4,207.3 L 192.9,222.2" style="fill:none;fill-rule:evenodd;stroke:#000000;stroke-width:2.0px;stroke-linecap:butt;stroke-linejoin:miter;stroke-opacity:1"/>
<path class="bond-31 atom-17 atom-18" d="M 203.4,207.3 L 193.6,186.3" style="fill:none;fill-rule:evenodd;stroke:#000000;stroke-width:2.0px;stroke-linecap:butt;stroke-linejoin:miter;stroke-opacity:1"/>
<path class="bond-31 atom-17 atom-18" d="M 206.1,202.2 L 199.3,187.5" style="fill:none;fill-rule:evenodd;stroke:#000000;stroke-width:2.0px;stroke-linecap:butt;stroke-linejoin:miter;stroke-opacity:1"/>
<path class="bond-32 atom-18 atom-37" d="M 193.6,186.3 L 174.1,189.4" style="fill:none;fill-rule:evenodd;stroke:#000000;stroke-width:2.0px;stroke-linecap:butt;stroke-linejoin:miter;stroke-opacity:1"/>
<path class="bond-33 atom-19 atom-20" d="M 177.4,158.3 L 177.7,181.4" style="fill:none;fill-rule:evenodd;stroke:#000000;stroke-width:2.0px;stroke-linecap:butt;stroke-linejoin:miter;stroke-opacity:1"/>
<path class="bond-33 atom-19 atom-20" d="M 172.8,161.8 L 173.0,178.0" style="fill:none;fill-rule:evenodd;stroke:#000000;stroke-width:2.0px;stroke-linecap:butt;stroke-linejoin:miter;stroke-opacity:1"/>
<path class="bond-34 atom-19 atom-24" d="M 177.4,158.3 L 157.1,147.0" style="fill:none;fill-rule:evenodd;stroke:#000000;stroke-width:2.0px;stroke-linecap:butt;stroke-linejoin:miter;stroke-opacity:1"/>
<path class="bond-35 atom-20 atom-21" d="M 177.7,181.4 L 157.8,193.3" style="fill:none;fill-rule:evenodd;stroke:#000000;stroke-width:2.0px;stroke-linecap:butt;stroke-linejoin:miter;stroke-opacity:1"/>
<path class="bond-36 atom-20 atom-35" d="M 177.7,181.4 L 183.4,186.7" style="fill:none;fill-rule:evenodd;stroke:#000000;stroke-width:2.0px;stroke-linecap:butt;stroke-linejoin:miter;stroke-opacity:1"/>
<path class="bond-37 atom-21 atom-36" d="M 157.8,193.3 L 158.1,212.4" style="fill:none;fill-rule:evenodd;stroke:#000000;stroke-width:2.0px;stroke-linecap:butt;stroke-linejoin:miter;stroke-opacity:1"/>
<path class="bond-38 atom-21 atom-22" d="M 157.8,193.3 L 137.6,182.0" style="fill:none;fill-rule:evenodd;stroke:#000000;stroke-width:2.0px;stroke-linecap:butt;stroke-linejoin:miter;stroke-opacity:1"/>
<path class="bond-38 atom-21 atom-22" d="M 157.0,187.5 L 142.9,179.7" style="fill:none;fill-rule:evenodd;stroke:#000000;stroke-width:2.0px;stroke-linecap:butt;stroke-linejoin:miter;stroke-opacity:1"/>
<path class="bond-39 atom-22 atom-34" d="M 137.6,182.0 L 121.0,191.9" style="fill:none;fill-rule:evenodd;stroke:#000000;stroke-width:2.0px;stroke-linecap:butt;stroke-linejoin:miter;stroke-opacity:1"/>
<path class="bond-40 atom-22 atom-23" d="M 137.6,182.0 L 137.3,158.9" style="fill:none;fill-rule:evenodd;stroke:#000000;stroke-width:2.0px;stroke-linecap:butt;stroke-linejoin:miter;stroke-opacity:1"/>
<path class="bond-41 atom-23 atom-28" d="M 137.3,158.9 L 117.0,147.6" style="fill:none;fill-rule:evenodd;stroke:#000000;stroke-width:2.0px;stroke-linecap:butt;stroke-linejoin:miter;stroke-opacity:1"/>
<path class="bond-42 atom-23 atom-24" d="M 137.3,158.9 L 157.1,147.0" style="fill:none;fill-rule:evenodd;stroke:#000000;stroke-width:2.0px;stroke-linecap:butt;stroke-linejoin:miter;stroke-opacity:1"/>
<path class="bond-42 atom-23 atom-24" d="M 142.6,161.0 L 156.5,152.7" style="fill:none;fill-rule:evenodd;stroke:#000000;stroke-width:2.0px;stroke-linecap:butt;stroke-linejoin:miter;stroke-opacity:1"/>
<path class="bond-43 atom-24 atom-33" d="M 157.1,147.0 L 154.5,128.1" style="fill:none;fill-rule:evenodd;stroke:#000000;stroke-width:2.0px;stroke-linecap:butt;stroke-linejoin:miter;stroke-opacity:1"/>
<path class="bond-44 atom-25 atom-31" d="M 76.6,125.0 L 84.9,120.1" style="fill:none;fill-rule:evenodd;stroke:#000000;stroke-width:2.0px;stroke-linecap:butt;stroke-linejoin:miter;stroke-opacity:1"/>
<path class="bond-44 atom-25 atom-31" d="M 84.9,120.1 L 93.2,115.1" style="fill:none;fill-rule:evenodd;stroke:#0000FF;stroke-width:2.0px;stroke-linecap:butt;stroke-linejoin:miter;stroke-opacity:1"/>
<path class="bond-45 atom-25 atom-26" d="M 76.6,125.0 L 59.7,115.6" style="fill:none;fill-rule:evenodd;stroke:#000000;stroke-width:2.0px;stroke-linecap:butt;stroke-linejoin:miter;stroke-opacity:1"/>
<path class="bond-46 atom-27 atom-28" d="M 97.2,159.5 L 117.0,147.6" style="fill:none;fill-rule:evenodd;stroke:#000000;stroke-width:2.0px;stroke-linecap:butt;stroke-linejoin:miter;stroke-opacity:1"/>
<path class="bond-46 atom-27 atom-28" d="M 97.8,153.7 L 111.7,145.4" style="fill:none;fill-rule:evenodd;stroke:#000000;stroke-width:2.0px;stroke-linecap:butt;stroke-linejoin:miter;stroke-opacity:1"/>
<path class="bond-47 atom-27 atom-32" d="M 97.2,159.5 L 97.4,178.6" style="fill:none;fill-rule:evenodd;stroke:#000000;stroke-width:2.0px;stroke-linecap:butt;stroke-linejoin:miter;stroke-opacity:1"/>
<path class="bond-48 atom-28 atom-29" d="M 117.0,147.6 L 116.7,124.4" style="fill:none;fill-rule:evenodd;stroke:#000000;stroke-width:2.0px;stroke-linecap:butt;stroke-linejoin:miter;stroke-opacity:1"/>
<path class="bond-49 atom-29 atom-30" d="M 116.7,124.4 L 133.2,114.5" style="fill:none;fill-rule:evenodd;stroke:#000000;stroke-width:2.0px;stroke-linecap:butt;stroke-linejoin:miter;stroke-opacity:1"/>
<path class="bond-50 atom-29 atom-31" d="M 116.7,124.4 L 108.2,119.7" style="fill:none;fill-rule:evenodd;stroke:#000000;stroke-width:2.0px;stroke-linecap:butt;stroke-linejoin:miter;stroke-opacity:1"/>
<path class="bond-50 atom-29 atom-31" d="M 108.2,119.7 L 99.7,115.0" style="fill:none;fill-rule:evenodd;stroke:#0000FF;stroke-width:2.0px;stroke-linecap:butt;stroke-linejoin:miter;stroke-opacity:1"/>
<path class="bond-50 atom-29 atom-31" d="M 111.9,127.1 L 105.9,123.7" style="fill:none;fill-rule:evenodd;stroke:#000000;stroke-width:2.0px;stroke-linecap:butt;stroke-linejoin:miter;stroke-opacity:1"/>
<path class="bond-50 atom-29 atom-31" d="M 105.9,123.7 L 100.0,120.4" style="fill:none;fill-rule:evenodd;stroke:#0000FF;stroke-width:2.0px;stroke-linecap:butt;stroke-linejoin:miter;stroke-opacity:1"/>
<path class="atom-1" d="M 181.9 124.6 L 184.0 128.1 Q 184.3 128.4, 184.6 129.0 Q 184.9 129.6, 185.0 129.7 L 185.0 124.6 L 185.8 124.6 L 185.8 131.1 L 184.9 131.1 L 182.6 127.3 Q 182.4 126.9, 182.1 126.4 Q 181.8 125.9, 181.7 125.7 L 181.7 131.1 L 180.9 131.1 L 180.9 124.6 L 181.9 124.6 " fill="#0000FF"/>
<path class="atom-1" d="M 186.6 125.8 L 187.8 125.8 L 187.8 124.5 L 188.3 124.5 L 188.3 125.8 L 189.5 125.8 L 189.5 126.2 L 188.3 126.2 L 188.3 127.4 L 187.8 127.4 L 187.8 126.2 L 186.6 126.2 L 186.6 125.8 " fill="#0000FF"/>
<path class="atom-2" d="M 236.6 149.8 Q 236.6 148.3, 237.3 147.4 Q 238.1 146.5, 239.6 146.5 Q 241.0 146.5, 241.8 147.4 Q 242.6 148.3, 242.6 149.8 Q 242.6 151.4, 241.8 152.3 Q 241.0 153.2, 239.6 153.2 Q 238.1 153.2, 237.3 152.3 Q 236.6 151.4, 236.6 149.8 M 239.6 152.5 Q 240.6 152.5, 241.1 151.8 Q 241.6 151.2, 241.6 149.8 Q 241.6 148.6, 241.1 147.9 Q 240.6 147.2, 239.6 147.2 Q 238.6 147.2, 238.0 147.9 Q 237.5 148.5, 237.5 149.8 Q 237.5 151.2, 238.0 151.8 Q 238.6 152.5, 239.6 152.5 " fill="#FF0000"/>
<path class="atom-4" d="M 217.4 112.5 L 219.5 115.9 Q 219.7 116.3, 220.1 116.9 Q 220.4 117.5, 220.4 117.6 L 220.4 112.5 L 221.3 112.5 L 221.3 119.0 L 220.4 119.0 L 218.1 115.2 Q 217.8 114.8, 217.5 114.3 Q 217.3 113.8, 217.2 113.6 L 217.2 119.0 L 216.3 119.0 L 216.3 112.5 L 217.4 112.5 " fill="#0000FF"/>
<path class="atom-6" d="M 187.7 83.7 L 189.9 87.2 Q 190.1 87.5, 190.4 88.2 Q 190.8 88.8, 190.8 88.8 L 190.8 83.7 L 191.7 83.7 L 191.7 90.3 L 190.8 90.3 L 188.5 86.5 Q 188.2 86.0, 187.9 85.5 Q 187.6 85.0, 187.6 84.9 L 187.6 90.3 L 186.7 90.3 L 186.7 83.7 L 187.7 83.7 " fill="#0000FF"/>
<path class="atom-10" d="M 42.6 136.9 L 43.5 136.9 L 43.5 139.7 L 46.9 139.7 L 46.9 136.9 L 47.7 136.9 L 47.7 143.5 L 46.9 143.5 L 46.9 140.4 L 43.5 140.4 L 43.5 143.5 L 42.6 143.5 L 42.6 136.9 " fill="#000000"/>
<path class="atom-11" d="M 66.4 176.6 L 67.3 176.6 L 67.3 179.4 L 70.6 179.4 L 70.6 176.6 L 71.5 176.6 L 71.5 183.2 L 70.6 183.2 L 70.6 180.2 L 67.3 180.2 L 67.3 183.2 L 66.4 183.2 L 66.4 176.6 " fill="#000000"/>
<path class="atom-12" d="M 34.6 168.6 L 35.5 168.6 L 35.5 171.4 L 38.9 171.4 L 38.9 168.6 L 39.7 168.6 L 39.7 175.2 L 38.9 175.2 L 38.9 172.2 L 35.5 172.2 L 35.5 175.2 L 34.6 175.2 L 34.6 168.6 " fill="#000000"/>
<path class="atom-26" d="M 53.8 110.5 L 54.7 110.5 L 54.7 113.3 L 58.0 113.3 L 58.0 110.5 L 58.9 110.5 L 58.9 117.0 L 58.0 117.0 L 58.0 114.0 L 54.7 114.0 L 54.7 117.0 L 53.8 117.0 L 53.8 110.5 " fill="#000000"/>
<path class="atom-30" d="M 134.0 109.3 L 134.9 109.3 L 134.9 112.1 L 138.2 112.1 L 138.2 109.3 L 139.1 109.3 L 139.1 115.8 L 138.2 115.8 L 138.2 112.8 L 134.9 112.8 L 134.9 115.8 L 134.0 115.8 L 134.0 109.3 " fill="#000000"/>
<path class="atom-31" d="M 95.0 109.9 L 97.2 113.3 Q 97.4 113.7, 97.7 114.3 Q 98.1 114.9, 98.1 115.0 L 98.1 109.9 L 99.0 109.9 L 99.0 116.4 L 98.1 116.4 L 95.8 112.6 Q 95.5 112.2, 95.2 111.7 Q 94.9 111.2, 94.8 111.0 L 94.8 116.4 L 94.0 116.4 L 94.0 109.9 L 95.0 109.9 " fill="#0000FF"/>
<path class="atom-32" d="M 94.9 179.3 L 95.8 179.3 L 95.8 182.1 L 99.2 182.1 L 99.2 179.3 L 100.1 179.3 L 100.1 185.9 L 99.2 185.9 L 99.2 182.9 L 95.8 182.9 L 95.8 185.9 L 94.9 185.9 L 94.9 179.3 " fill="#000000"/>
<path class="atom-33" d="M 151.4 120.8 L 152.3 120.8 L 152.3 123.6 L 155.6 123.6 L 155.6 120.8 L 156.5 120.8 L 156.5 127.3 L 155.6 127.3 L 155.6 124.3 L 152.3 124.3 L 152.3 127.3 L 151.4 127.3 L 151.4 120.8 " fill="#000000"/>
<path class="atom-34" d="M 115.2 190.6 L 116.0 190.6 L 116.0 193.4 L 119.4 193.4 L 119.4 190.6 L 120.3 190.6 L 120.3 197.2 L 119.4 197.2 L 119.4 194.1 L 116.0 194.1 L 116.0 197.2 L 115.2 197.2 L 115.2 190.6 " fill="#000000"/>
<path class="atom-35" d="M 184.1 186.5 L 185.0 186.5 L 185.0 189.3 L 188.4 189.3 L 188.4 186.5 L 189.2 186.5 L 189.2 193.1 L 188.4 193.1 L 188.4 190.1 L 185.0 190.1 L 185.0 193.1 L 184.1 193.1 L 184.1 186.5 " fill="#000000"/>
<path class="atom-36" d="M 155.6 213.2 L 156.5 213.2 L 156.5 215.9 L 159.8 215.9 L 159.8 213.2 L 160.7 213.2 L 160.7 219.7 L 159.8 219.7 L 159.8 216.7 L 156.5 216.7 L 156.5 219.7 L 155.6 219.7 L 155.6 213.2 " fill="#000000"/>
<path class="atom-37" d="M 168.2 186.6 L 169.1 186.6 L 169.1 189.4 L 172.4 189.4 L 172.4 186.6 L 173.3 186.6 L 173.3 193.2 L 172.4 193.2 L 172.4 190.1 L 169.1 190.1 L 169.1 193.2 L 168.2 193.2 L 168.2 186.6 " fill="#000000"/>
<path class="atom-38" d="M 260.3 189.3 L 261.1 189.3 L 261.1 192.1 L 264.5 192.1 L 264.5 189.3 L 265.4 189.3 L 265.4 195.8 L 264.5 195.8 L 264.5 192.8 L 261.1 192.8 L 261.1 195.8 L 260.3 195.8 L 260.3 189.3 " fill="#000000"/>
<path class="atom-39" d="M 187.5 223.0 L 188.4 223.0 L 188.4 225.8 L 191.7 225.8 L 191.7 223.0 L 192.6 223.0 L 192.6 229.5 L 191.7 229.5 L 191.7 226.5 L 188.4 226.5 L 188.4 229.5 L 187.5 229.5 L 187.5 223.0 " fill="#000000"/>
<path class="atom-40" d="M 233.6 227.1 L 234.5 227.1 L 234.5 229.9 L 237.8 229.9 L 237.8 227.1 L 238.7 227.1 L 238.7 233.7 L 237.8 233.7 L 237.8 230.7 L 234.5 230.7 L 234.5 233.7 L 233.6 233.7 L 233.6 227.1 " fill="#000000"/>
<path class="atom-41" d="M 243.0 149.0 L 243.9 149.0 L 243.9 151.8 L 247.2 151.8 L 247.2 149.0 L 248.1 149.0 L 248.1 155.6 L 247.2 155.6 L 247.2 152.6 L 243.9 152.6 L 243.9 155.6 L 243.0 155.6 L 243.0 149.0 " fill="#000000"/>
<path class="atom-42" d="M 201.9 66.3 L 202.8 66.3 L 202.8 69.1 L 206.1 69.1 L 206.1 66.3 L 207.0 66.3 L 207.0 72.9 L 206.1 72.9 L 206.1 69.8 L 202.8 69.8 L 202.8 72.9 L 201.9 72.9 L 201.9 66.3 " fill="#000000"/>
<path class="atom-43" d="M 163.9 79.3 L 164.8 79.3 L 164.8 82.0 L 168.2 82.0 L 168.2 79.3 L 169.0 79.3 L 169.0 85.8 L 168.2 85.8 L 168.2 82.8 L 164.8 82.8 L 164.8 85.8 L 163.9 85.8 L 163.9 79.3 " fill="#000000"/>
<path class="atom-44" d="M 220.9 80.1 L 221.8 80.1 L 221.8 82.8 L 225.1 82.8 L 225.1 80.1 L 226.0 80.1 L 226.0 86.6 L 225.1 86.6 L 225.1 83.6 L 221.8 83.6 L 221.8 86.6 L 220.9 86.6 L 220.9 80.1 " fill="#000000"/>
<path class="atom-45" d="M 248.7 117.1 L 249.5 117.1 L 249.5 119.9 L 252.9 119.9 L 252.9 117.1 L 253.8 117.1 L 253.8 123.7 L 252.9 123.7 L 252.9 120.6 L 249.5 120.6 L 249.5 123.7 L 248.7 123.7 L 248.7 117.1 " fill="#000000"/>
<path class="atom-46" d="M 253.3 84.7 L 254.2 84.7 L 254.2 87.5 L 257.5 87.5 L 257.5 84.7 L 258.4 84.7 L 258.4 91.3 L 257.5 91.3 L 257.5 88.2 L 254.2 88.2 L 254.2 91.3 L 253.3 91.3 L 253.3 84.7 " fill="#000000"/>
<path class="atom-47" d="M 157.8 122.1 L 158.7 122.1 L 158.7 124.9 L 162.0 124.9 L 162.0 122.1 L 162.9 122.1 L 162.9 128.7 L 162.0 128.7 L 162.0 125.6 L 158.7 125.6 L 158.7 128.7 L 157.8 128.7 L 157.8 122.1 " fill="#000000"/>
<path class="bond-0 atom-0 atom-2" d="M 507.3,135.4 L 516.3,138.5" style="fill:none;fill-rule:evenodd;stroke:#000000;stroke-width:2.0px;stroke-linecap:butt;stroke-linejoin:miter;stroke-opacity:1"/>
<path class="bond-0 atom-0 atom-2" d="M 516.3,138.5 L 525.4,141.6" style="fill:none;fill-rule:evenodd;stroke:#FF0000;stroke-width:2.0px;stroke-linecap:butt;stroke-linejoin:miter;stroke-opacity:1"/>
<path class="bond-0 atom-0 atom-2" d="M 505.8,139.8 L 514.8,142.9" style="fill:none;fill-rule:evenodd;stroke:#000000;stroke-width:2.0px;stroke-linecap:butt;stroke-linejoin:miter;stroke-opacity:1"/>
<path class="bond-0 atom-0 atom-2" d="M 514.8,142.9 L 523.9,146.0" style="fill:none;fill-rule:evenodd;stroke:#FF0000;stroke-width:2.0px;stroke-linecap:butt;stroke-linejoin:miter;stroke-opacity:1"/>
<path class="bond-1 atom-0 atom-3" d="M 506.5,137.6 L 486.1,148.5" style="fill:none;fill-rule:evenodd;stroke:#000000;stroke-width:2.0px;stroke-linecap:butt;stroke-linejoin:miter;stroke-opacity:1"/>
<path class="bond-2 atom-0 atom-4" d="M 506.5,137.6 L 504.9,128.2" style="fill:none;fill-rule:evenodd;stroke:#000000;stroke-width:2.0px;stroke-linecap:butt;stroke-linejoin:miter;stroke-opacity:1"/>
<path class="bond-2 atom-0 atom-4" d="M 504.9,128.2 L 503.2,118.8" style="fill:none;fill-rule:evenodd;stroke:#0000FF;stroke-width:2.0px;stroke-linecap:butt;stroke-linejoin:miter;stroke-opacity:1"/>
<path class="bond-3 atom-1 atom-3" d="M 472.7,135.5 L 479.4,142.0" style="fill:none;fill-rule:evenodd;stroke:#0000FF;stroke-width:2.0px;stroke-linecap:butt;stroke-linejoin:miter;stroke-opacity:1"/>
<path class="bond-3 atom-1 atom-3" d="M 479.4,142.0 L 486.1,148.5" style="fill:none;fill-rule:evenodd;stroke:#000000;stroke-width:2.0px;stroke-linecap:butt;stroke-linejoin:miter;stroke-opacity:1"/>
<path class="bond-4 atom-1 atom-5" d="M 471.4,128.4 L 475.5,120.0" style="fill:none;fill-rule:evenodd;stroke:#0000FF;stroke-width:2.0px;stroke-linecap:butt;stroke-linejoin:miter;stroke-opacity:1"/>
<path class="bond-4 atom-1 atom-5" d="M 475.5,120.0 L 479.5,111.6" style="fill:none;fill-rule:evenodd;stroke:#000000;stroke-width:2.0px;stroke-linecap:butt;stroke-linejoin:miter;stroke-opacity:1"/>
<path class="bond-4 atom-1 atom-5" d="M 476.8,127.9 L 479.6,122.0" style="fill:none;fill-rule:evenodd;stroke:#0000FF;stroke-width:2.0px;stroke-linecap:butt;stroke-linejoin:miter;stroke-opacity:1"/>
<path class="bond-4 atom-1 atom-5" d="M 479.6,122.0 L 482.5,116.1" style="fill:none;fill-rule:evenodd;stroke:#000000;stroke-width:2.0px;stroke-linecap:butt;stroke-linejoin:miter;stroke-opacity:1"/>
<path class="bond-5 atom-1 atom-43" d="M 466.2,132.6 L 457.9,133.0" style="fill:none;fill-rule:evenodd;stroke:#0000FF;stroke-width:2.0px;stroke-linecap:butt;stroke-linejoin:miter;stroke-opacity:1"/>
<path class="bond-5 atom-1 atom-43" d="M 457.9,133.0 L 449.6,133.5" style="fill:none;fill-rule:evenodd;stroke:#000000;stroke-width:2.0px;stroke-linecap:butt;stroke-linejoin:miter;stroke-opacity:1"/>
<path class="bond-6 atom-3 atom-15" d="M 486.1,148.5 L 469.8,165.1 L 466.9,161.6 Z" style="fill:#000000;fill-rule:evenodd;fill-opacity:1;stroke:#000000;stroke-width:1.0px;stroke-linecap:butt;stroke-linejoin:miter;stroke-opacity:1;"/>
<path class="bond-7 atom-3 atom-9" d="M 486.1,148.5 L 499.0,167.7" style="fill:none;fill-rule:evenodd;stroke:#000000;stroke-width:2.0px;stroke-linecap:butt;stroke-linejoin:miter;stroke-opacity:1"/>
<path class="bond-8 atom-4 atom-7" d="M 505.7,111.4 L 512.1,104.8" style="fill:none;fill-rule:evenodd;stroke:#0000FF;stroke-width:2.0px;stroke-linecap:butt;stroke-linejoin:miter;stroke-opacity:1"/>
<path class="bond-8 atom-4 atom-7" d="M 512.1,104.8 L 518.6,98.1" style="fill:none;fill-rule:evenodd;stroke:#000000;stroke-width:2.0px;stroke-linecap:butt;stroke-linejoin:miter;stroke-opacity:1"/>
<path class="bond-9 atom-4 atom-5" d="M 499.2,114.3 L 489.4,113.0" style="fill:none;fill-rule:evenodd;stroke:#0000FF;stroke-width:2.0px;stroke-linecap:butt;stroke-linejoin:miter;stroke-opacity:1"/>
<path class="bond-9 atom-4 atom-5" d="M 489.4,113.0 L 479.5,111.6" style="fill:none;fill-rule:evenodd;stroke:#000000;stroke-width:2.0px;stroke-linecap:butt;stroke-linejoin:miter;stroke-opacity:1"/>
<path class="bond-10 atom-5 atom-6" d="M 479.5,111.6 L 475.2,103.4" style="fill:none;fill-rule:evenodd;stroke:#000000;stroke-width:2.0px;stroke-linecap:butt;stroke-linejoin:miter;stroke-opacity:1"/>
<path class="bond-10 atom-5 atom-6" d="M 475.2,103.4 L 470.8,95.2" style="fill:none;fill-rule:evenodd;stroke:#0000FF;stroke-width:2.0px;stroke-linecap:butt;stroke-linejoin:miter;stroke-opacity:1"/>
<path class="bond-11 atom-6 atom-38" d="M 471.2,87.1 L 474.8,81.3" style="fill:none;fill-rule:evenodd;stroke:#0000FF;stroke-width:2.0px;stroke-linecap:butt;stroke-linejoin:miter;stroke-opacity:1"/>
<path class="bond-11 atom-6 atom-38" d="M 474.8,81.3 L 478.4,75.5" style="fill:none;fill-rule:evenodd;stroke:#000000;stroke-width:2.0px;stroke-linecap:butt;stroke-linejoin:miter;stroke-opacity:1"/>
<path class="bond-12 atom-6 atom-39" d="M 465.4,91.0 L 457.1,90.8" style="fill:none;fill-rule:evenodd;stroke:#0000FF;stroke-width:2.0px;stroke-linecap:butt;stroke-linejoin:miter;stroke-opacity:1"/>
<path class="bond-12 atom-6 atom-39" d="M 457.1,90.8 L 448.8,90.5" style="fill:none;fill-rule:evenodd;stroke:#000000;stroke-width:2.0px;stroke-linecap:butt;stroke-linejoin:miter;stroke-opacity:1"/>
<path class="bond-13 atom-7 atom-42" d="M 518.6,98.1 L 531.3,84.9" style="fill:none;fill-rule:evenodd;stroke:#000000;stroke-width:2.0px;stroke-linecap:butt;stroke-linejoin:miter;stroke-opacity:1"/>
<path class="bond-14 atom-7 atom-40" d="M 518.6,98.1 L 505.2,85.3" style="fill:none;fill-rule:evenodd;stroke:#000000;stroke-width:2.0px;stroke-linecap:butt;stroke-linejoin:miter;stroke-opacity:1"/>
<path class="bond-15 atom-7 atom-41" d="M 518.6,98.1 L 531.9,111.0" style="fill:none;fill-rule:evenodd;stroke:#000000;stroke-width:2.0px;stroke-linecap:butt;stroke-linejoin:miter;stroke-opacity:1"/>
<path class="bond-16 atom-8 atom-21" d="M 366.9,165.4 L 365.2,156.0" style="fill:none;fill-rule:evenodd;stroke:#0000FF;stroke-width:2.0px;stroke-linecap:butt;stroke-linejoin:miter;stroke-opacity:1"/>
<path class="bond-16 atom-8 atom-21" d="M 365.2,156.0 L 363.6,146.7" style="fill:none;fill-rule:evenodd;stroke:#000000;stroke-width:2.0px;stroke-linecap:butt;stroke-linejoin:miter;stroke-opacity:1"/>
<path class="bond-16 atom-8 atom-21" d="M 371.0,161.8 L 369.8,155.2" style="fill:none;fill-rule:evenodd;stroke:#0000FF;stroke-width:2.0px;stroke-linecap:butt;stroke-linejoin:miter;stroke-opacity:1"/>
<path class="bond-16 atom-8 atom-21" d="M 369.8,155.2 L 368.6,148.7" style="fill:none;fill-rule:evenodd;stroke:#000000;stroke-width:2.0px;stroke-linecap:butt;stroke-linejoin:miter;stroke-opacity:1"/>
<path class="bond-17 atom-8 atom-23" d="M 370.9,170.6 L 380.1,174.0" style="fill:none;fill-rule:evenodd;stroke:#0000FF;stroke-width:2.0px;stroke-linecap:butt;stroke-linejoin:miter;stroke-opacity:1"/>
<path class="bond-17 atom-8 atom-23" d="M 380.1,174.0 L 389.4,177.4" style="fill:none;fill-rule:evenodd;stroke:#000000;stroke-width:2.0px;stroke-linecap:butt;stroke-linejoin:miter;stroke-opacity:1"/>
<path class="bond-18 atom-9 atom-14" d="M 499.0,167.7 L 522.1,166.0" style="fill:none;fill-rule:evenodd;stroke:#000000;stroke-width:2.0px;stroke-linecap:butt;stroke-linejoin:miter;stroke-opacity:1"/>
<path class="bond-19 atom-9 atom-10" d="M 499.0,167.7 L 488.9,188.5" style="fill:none;fill-rule:evenodd;stroke:#000000;stroke-width:2.0px;stroke-linecap:butt;stroke-linejoin:miter;stroke-opacity:1"/>
<path class="bond-19 atom-9 atom-10" d="M 501.7,172.8 L 494.6,187.4" style="fill:none;fill-rule:evenodd;stroke:#000000;stroke-width:2.0px;stroke-linecap:butt;stroke-linejoin:miter;stroke-opacity:1"/>
<path class="bond-20 atom-10 atom-11" d="M 488.9,188.5 L 501.9,207.7" style="fill:none;fill-rule:evenodd;stroke:#000000;stroke-width:2.0px;stroke-linecap:butt;stroke-linejoin:miter;stroke-opacity:1"/>
<path class="bond-21 atom-10 atom-37" d="M 488.9,188.5 L 470.2,194.6" style="fill:none;fill-rule:evenodd;stroke:#000000;stroke-width:2.0px;stroke-linecap:butt;stroke-linejoin:miter;stroke-opacity:1"/>
<path class="bond-22 atom-11 atom-12" d="M 501.9,207.7 L 525.0,206.0" style="fill:none;fill-rule:evenodd;stroke:#000000;stroke-width:2.0px;stroke-linecap:butt;stroke-linejoin:miter;stroke-opacity:1"/>
<path class="bond-22 atom-11 atom-12" d="M 505.0,202.8 L 521.2,201.7" style="fill:none;fill-rule:evenodd;stroke:#000000;stroke-width:2.0px;stroke-linecap:butt;stroke-linejoin:miter;stroke-opacity:1"/>
<path class="bond-23 atom-11 atom-34" d="M 501.9,207.7 L 493.7,224.5" style="fill:none;fill-rule:evenodd;stroke:#000000;stroke-width:2.0px;stroke-linecap:butt;stroke-linejoin:miter;stroke-opacity:1"/>
<path class="bond-24 atom-12 atom-13" d="M 525.0,206.0 L 535.1,185.2" style="fill:none;fill-rule:evenodd;stroke:#000000;stroke-width:2.0px;stroke-linecap:butt;stroke-linejoin:miter;stroke-opacity:1"/>
<path class="bond-25 atom-12 atom-36" d="M 525.0,206.0 L 535.2,221.2" style="fill:none;fill-rule:evenodd;stroke:#000000;stroke-width:2.0px;stroke-linecap:butt;stroke-linejoin:miter;stroke-opacity:1"/>
<path class="bond-26 atom-13 atom-35" d="M 535.1,185.2 L 554.9,183.8" style="fill:none;fill-rule:evenodd;stroke:#000000;stroke-width:2.0px;stroke-linecap:butt;stroke-linejoin:miter;stroke-opacity:1"/>
<path class="bond-27 atom-13 atom-14" d="M 535.1,185.2 L 522.1,166.0" style="fill:none;fill-rule:evenodd;stroke:#000000;stroke-width:2.0px;stroke-linecap:butt;stroke-linejoin:miter;stroke-opacity:1"/>
<path class="bond-27 atom-13 atom-14" d="M 529.3,184.9 L 520.2,171.5" style="fill:none;fill-rule:evenodd;stroke:#000000;stroke-width:2.0px;stroke-linecap:butt;stroke-linejoin:miter;stroke-opacity:1"/>
<path class="bond-28 atom-14 atom-33" d="M 522.1,166.0 L 532.1,150.6" style="fill:none;fill-rule:evenodd;stroke:#000000;stroke-width:2.0px;stroke-linecap:butt;stroke-linejoin:miter;stroke-opacity:1"/>
<path class="bond-29 atom-15 atom-16" d="M 468.4,163.4 L 472.4,186.2" style="fill:none;fill-rule:evenodd;stroke:#000000;stroke-width:2.0px;stroke-linecap:butt;stroke-linejoin:miter;stroke-opacity:1"/>
<path class="bond-29 atom-15 atom-16" d="M 464.4,167.6 L 467.2,183.6" style="fill:none;fill-rule:evenodd;stroke:#000000;stroke-width:2.0px;stroke-linecap:butt;stroke-linejoin:miter;stroke-opacity:1"/>
<path class="bond-30 atom-15 atom-20" d="M 468.4,163.4 L 446.6,155.5" style="fill:none;fill-rule:evenodd;stroke:#000000;stroke-width:2.0px;stroke-linecap:butt;stroke-linejoin:miter;stroke-opacity:1"/>
<path class="bond-31 atom-16 atom-17" d="M 472.4,186.2 L 454.7,201.1" style="fill:none;fill-rule:evenodd;stroke:#000000;stroke-width:2.0px;stroke-linecap:butt;stroke-linejoin:miter;stroke-opacity:1"/>
<path class="bond-32 atom-16 atom-31" d="M 472.4,186.2 L 479.3,190.8" style="fill:none;fill-rule:evenodd;stroke:#000000;stroke-width:2.0px;stroke-linecap:butt;stroke-linejoin:miter;stroke-opacity:1"/>
<path class="bond-33 atom-17 atom-32" d="M 454.7,201.1 L 458.0,219.8" style="fill:none;fill-rule:evenodd;stroke:#000000;stroke-width:2.0px;stroke-linecap:butt;stroke-linejoin:miter;stroke-opacity:1"/>
<path class="bond-34 atom-17 atom-18" d="M 454.7,201.1 L 432.9,193.2" style="fill:none;fill-rule:evenodd;stroke:#000000;stroke-width:2.0px;stroke-linecap:butt;stroke-linejoin:miter;stroke-opacity:1"/>
<path class="bond-34 atom-17 atom-18" d="M 453.0,195.5 L 437.7,190.0" style="fill:none;fill-rule:evenodd;stroke:#000000;stroke-width:2.0px;stroke-linecap:butt;stroke-linejoin:miter;stroke-opacity:1"/>
<path class="bond-35 atom-18 atom-30" d="M 432.9,193.2 L 418.5,205.3" style="fill:none;fill-rule:evenodd;stroke:#000000;stroke-width:2.0px;stroke-linecap:butt;stroke-linejoin:miter;stroke-opacity:1"/>
<path class="bond-36 atom-18 atom-19" d="M 432.9,193.2 L 428.9,170.4" style="fill:none;fill-rule:evenodd;stroke:#000000;stroke-width:2.0px;stroke-linecap:butt;stroke-linejoin:miter;stroke-opacity:1"/>
<path class="bond-37 atom-19 atom-24" d="M 428.9,170.4 L 407.1,162.5" style="fill:none;fill-rule:evenodd;stroke:#000000;stroke-width:2.0px;stroke-linecap:butt;stroke-linejoin:miter;stroke-opacity:1"/>
<path class="bond-38 atom-19 atom-20" d="M 428.9,170.4 L 446.6,155.5" style="fill:none;fill-rule:evenodd;stroke:#000000;stroke-width:2.0px;stroke-linecap:butt;stroke-linejoin:miter;stroke-opacity:1"/>
<path class="bond-38 atom-19 atom-20" d="M 434.5,171.7 L 446.9,161.3" style="fill:none;fill-rule:evenodd;stroke:#000000;stroke-width:2.0px;stroke-linecap:butt;stroke-linejoin:miter;stroke-opacity:1"/>
<path class="bond-39 atom-20 atom-29" d="M 446.6,155.5 L 441.0,137.4" style="fill:none;fill-rule:evenodd;stroke:#000000;stroke-width:2.0px;stroke-linecap:butt;stroke-linejoin:miter;stroke-opacity:1"/>
<path class="bond-40 atom-21 atom-26" d="M 363.6,146.7 L 381.3,131.8" style="fill:none;fill-rule:evenodd;stroke:#000000;stroke-width:2.0px;stroke-linecap:butt;stroke-linejoin:miter;stroke-opacity:1"/>
<path class="bond-41 atom-21 atom-22" d="M 363.6,146.7 L 345.1,140.0" style="fill:none;fill-rule:evenodd;stroke:#000000;stroke-width:2.0px;stroke-linecap:butt;stroke-linejoin:miter;stroke-opacity:1"/>
<path class="bond-42 atom-23 atom-24" d="M 389.4,177.4 L 407.1,162.5" style="fill:none;fill-rule:evenodd;stroke:#000000;stroke-width:2.0px;stroke-linecap:butt;stroke-linejoin:miter;stroke-opacity:1"/>
<path class="bond-42 atom-23 atom-24" d="M 389.1,171.6 L 401.5,161.2" style="fill:none;fill-rule:evenodd;stroke:#000000;stroke-width:2.0px;stroke-linecap:butt;stroke-linejoin:miter;stroke-opacity:1"/>
<path class="bond-43 atom-23 atom-28" d="M 389.4,177.4 L 392.7,196.1" style="fill:none;fill-rule:evenodd;stroke:#000000;stroke-width:2.0px;stroke-linecap:butt;stroke-linejoin:miter;stroke-opacity:1"/>
<path class="bond-44 atom-24 atom-25" d="M 407.1,162.5 L 405.4,153.1" style="fill:none;fill-rule:evenodd;stroke:#000000;stroke-width:2.0px;stroke-linecap:butt;stroke-linejoin:miter;stroke-opacity:1"/>
<path class="bond-44 atom-24 atom-25" d="M 405.4,153.1 L 403.8,143.7" style="fill:none;fill-rule:evenodd;stroke:#0000FF;stroke-width:2.0px;stroke-linecap:butt;stroke-linejoin:miter;stroke-opacity:1"/>
<path class="bond-45 atom-25 atom-26" d="M 399.8,138.5 L 390.6,135.1" style="fill:none;fill-rule:evenodd;stroke:#0000FF;stroke-width:2.0px;stroke-linecap:butt;stroke-linejoin:miter;stroke-opacity:1"/>
<path class="bond-45 atom-25 atom-26" d="M 390.6,135.1 L 381.3,131.8" style="fill:none;fill-rule:evenodd;stroke:#000000;stroke-width:2.0px;stroke-linecap:butt;stroke-linejoin:miter;stroke-opacity:1"/>
<path class="bond-45 atom-25 atom-26" d="M 395.5,141.8 L 389.0,139.5" style="fill:none;fill-rule:evenodd;stroke:#0000FF;stroke-width:2.0px;stroke-linecap:butt;stroke-linejoin:miter;stroke-opacity:1"/>
<path class="bond-45 atom-25 atom-26" d="M 389.0,139.5 L 382.5,137.1" style="fill:none;fill-rule:evenodd;stroke:#000000;stroke-width:2.0px;stroke-linecap:butt;stroke-linejoin:miter;stroke-opacity:1"/>
<path class="bond-46 atom-26 atom-27" d="M 381.3,131.8 L 378.0,113.0" style="fill:none;fill-rule:evenodd;stroke:#000000;stroke-width:2.0px;stroke-linecap:butt;stroke-linejoin:miter;stroke-opacity:1"/>
<path class="atom-1" d="M 468.0 129.1 L 470.1 132.6 Q 470.3 132.9, 470.7 133.6 Q 471.0 134.2, 471.0 134.2 L 471.0 129.1 L 471.9 129.1 L 471.9 135.7 L 471.0 135.7 L 468.7 131.9 Q 468.4 131.4, 468.1 130.9 Q 467.9 130.4, 467.8 130.3 L 467.8 135.7 L 466.9 135.7 L 466.9 129.1 L 468.0 129.1 " fill="#0000FF"/>
<path class="atom-1" d="M 472.7 130.3 L 473.8 130.3 L 473.8 129.1 L 474.3 129.1 L 474.3 130.3 L 475.5 130.3 L 475.5 130.8 L 474.3 130.8 L 474.3 132.0 L 473.8 132.0 L 473.8 130.8 L 472.7 130.8 L 472.7 130.3 " fill="#0000FF"/>
<path class="atom-2" d="M 525.4 145.1 Q 525.4 143.6, 526.2 142.7 Q 527.0 141.8, 528.4 141.8 Q 529.9 141.8, 530.6 142.7 Q 531.4 143.6, 531.4 145.1 Q 531.4 146.7, 530.6 147.6 Q 529.8 148.5, 528.4 148.5 Q 527.0 148.5, 526.2 147.6 Q 525.4 146.7, 525.4 145.1 M 528.4 147.8 Q 529.4 147.8, 529.9 147.1 Q 530.5 146.5, 530.5 145.1 Q 530.5 143.9, 529.9 143.2 Q 529.4 142.5, 528.4 142.5 Q 527.4 142.5, 526.9 143.2 Q 526.3 143.8, 526.3 145.1 Q 526.3 146.5, 526.9 147.1 Q 527.4 147.8, 528.4 147.8 " fill="#FF0000"/>
<path class="atom-4" d="M 501.0 111.5 L 503.2 115.0 Q 503.4 115.3, 503.7 116.0 Q 504.1 116.6, 504.1 116.6 L 504.1 111.5 L 505.0 111.5 L 505.0 118.1 L 504.1 118.1 L 501.8 114.3 Q 501.5 113.8, 501.2 113.3 Q 500.9 112.8, 500.8 112.7 L 500.8 118.1 L 500.0 118.1 L 500.0 111.5 L 501.0 111.5 " fill="#0000FF"/>
<path class="atom-6" d="M 467.2 87.9 L 469.4 91.3 Q 469.6 91.7, 469.9 92.3 Q 470.3 92.9, 470.3 93.0 L 470.3 87.9 L 471.1 87.9 L 471.1 94.4 L 470.3 94.4 L 467.9 90.6 Q 467.7 90.2, 467.4 89.7 Q 467.1 89.2, 467.0 89.0 L 467.0 94.4 L 466.2 94.4 L 466.2 87.9 L 467.2 87.9 " fill="#0000FF"/>
<path class="atom-8" d="M 366.2 166.2 L 368.3 169.6 Q 368.5 170.0, 368.9 170.6 Q 369.2 171.2, 369.2 171.3 L 369.2 166.2 L 370.1 166.2 L 370.1 172.7 L 369.2 172.7 L 366.9 168.9 Q 366.6 168.5, 366.3 168.0 Q 366.1 167.5, 366.0 167.3 L 366.0 172.7 L 365.1 172.7 L 365.1 166.2 L 366.2 166.2 " fill="#0000FF"/>
<path class="atom-22" d="M 339.2 135.5 L 340.1 135.5 L 340.1 138.3 L 343.5 138.3 L 343.5 135.5 L 344.4 135.5 L 344.4 142.0 L 343.5 142.0 L 343.5 139.0 L 340.1 139.0 L 340.1 142.0 L 339.2 142.0 L 339.2 135.5 " fill="#000000"/>
<path class="atom-25" d="M 401.6 136.4 L 403.8 139.9 Q 404.0 140.2, 404.3 140.8 Q 404.7 141.4, 404.7 141.5 L 404.7 136.4 L 405.5 136.4 L 405.5 142.9 L 404.6 142.9 L 402.3 139.1 Q 402.1 138.7, 401.8 138.2 Q 401.5 137.7, 401.4 137.5 L 401.4 142.9 L 400.6 142.9 L 400.6 136.4 L 401.6 136.4 " fill="#0000FF"/>
<path class="atom-27" d="M 374.7 105.7 L 375.6 105.7 L 375.6 108.5 L 378.9 108.5 L 378.9 105.7 L 379.8 105.7 L 379.8 112.2 L 378.9 112.2 L 378.9 109.2 L 375.6 109.2 L 375.6 112.2 L 374.7 112.2 L 374.7 105.7 " fill="#000000"/>
<path class="atom-28" d="M 390.8 196.9 L 391.7 196.9 L 391.7 199.7 L 395.1 199.7 L 395.1 196.9 L 396.0 196.9 L 396.0 203.4 L 395.1 203.4 L 395.1 200.4 L 391.7 200.4 L 391.7 203.4 L 390.8 203.4 L 390.8 196.9 " fill="#000000"/>
<path class="atom-29" d="M 437.2 130.1 L 438.1 130.1 L 438.1 132.8 L 441.5 132.8 L 441.5 130.1 L 442.4 130.1 L 442.4 136.6 L 441.5 136.6 L 441.5 133.6 L 438.1 133.6 L 438.1 136.6 L 437.2 136.6 L 437.2 130.1 " fill="#000000"/>
<path class="atom-30" d="M 412.6 204.8 L 413.5 204.8 L 413.5 207.6 L 416.8 207.6 L 416.8 204.8 L 417.7 204.8 L 417.7 211.3 L 416.8 211.3 L 416.8 208.3 L 413.5 208.3 L 413.5 211.3 L 412.6 211.3 L 412.6 204.8 " fill="#000000"/>
<path class="atom-31" d="M 480.0 189.8 L 480.9 189.8 L 480.9 192.6 L 484.3 192.6 L 484.3 189.8 L 485.2 189.8 L 485.2 196.3 L 484.3 196.3 L 484.3 193.3 L 480.9 193.3 L 480.9 196.3 L 480.0 196.3 L 480.0 189.8 " fill="#000000"/>
<path class="atom-32" d="M 456.1 220.6 L 457.0 220.6 L 457.0 223.4 L 460.4 223.4 L 460.4 220.6 L 461.3 220.6 L 461.3 227.1 L 460.4 227.1 L 460.4 224.1 L 457.0 224.1 L 457.0 227.1 L 456.1 227.1 L 456.1 220.6 " fill="#000000"/>
<path class="atom-33" d="M 532.2 143.3 L 533.1 143.3 L 533.1 146.1 L 536.4 146.1 L 536.4 143.3 L 537.3 143.3 L 537.3 149.9 L 536.4 149.9 L 536.4 146.9 L 533.1 146.9 L 533.1 149.9 L 532.2 149.9 L 532.2 143.3 " fill="#000000"/>
<path class="atom-34" d="M 489.2 225.2 L 490.1 225.2 L 490.1 228.0 L 493.4 228.0 L 493.4 225.2 L 494.3 225.2 L 494.3 231.8 L 493.4 231.8 L 493.4 228.7 L 490.1 228.7 L 490.1 231.8 L 489.2 231.8 L 489.2 225.2 " fill="#000000"/>
<path class="atom-35" d="M 555.6 180.3 L 556.5 180.3 L 556.5 183.1 L 559.9 183.1 L 559.9 180.3 L 560.8 180.3 L 560.8 186.9 L 559.9 186.9 L 559.9 183.8 L 556.5 183.8 L 556.5 186.9 L 555.6 186.9 L 555.6 180.3 " fill="#000000"/>
<path class="atom-36" d="M 535.4 221.9 L 536.2 221.9 L 536.2 224.7 L 539.6 224.7 L 539.6 221.9 L 540.5 221.9 L 540.5 228.5 L 539.6 228.5 L 539.6 225.5 L 536.2 225.5 L 536.2 228.5 L 535.4 228.5 L 535.4 221.9 " fill="#000000"/>
<path class="atom-37" d="M 464.3 192.4 L 465.2 192.4 L 465.2 195.2 L 468.6 195.2 L 468.6 192.4 L 469.5 192.4 L 469.5 198.9 L 468.6 198.9 L 468.6 195.9 L 465.2 195.9 L 465.2 198.9 L 464.3 198.9 L 464.3 192.4 " fill="#000000"/>
<path class="atom-38" d="M 478.4 68.2 L 479.2 68.2 L 479.2 71.0 L 482.6 71.0 L 482.6 68.2 L 483.5 68.2 L 483.5 74.8 L 482.6 74.8 L 482.6 71.8 L 479.2 71.8 L 479.2 74.8 L 478.4 74.8 L 478.4 68.2 " fill="#000000"/>
<path class="atom-39" d="M 443.0 87.1 L 443.8 87.1 L 443.8 89.9 L 447.2 89.9 L 447.2 87.1 L 448.1 87.1 L 448.1 93.6 L 447.2 93.6 L 447.2 90.6 L 443.8 90.6 L 443.8 93.6 L 443.0 93.6 L 443.0 87.1 " fill="#000000"/>
<path class="atom-40" d="M 499.3 78.8 L 500.2 78.8 L 500.2 81.6 L 503.6 81.6 L 503.6 78.8 L 504.4 78.8 L 504.4 85.3 L 503.6 85.3 L 503.6 82.3 L 500.2 82.3 L 500.2 85.3 L 499.3 85.3 L 499.3 78.8 " fill="#000000"/>
<path class="atom-41" d="M 532.7 110.9 L 533.5 110.9 L 533.5 113.7 L 536.9 113.7 L 536.9 110.9 L 537.8 110.9 L 537.8 117.5 L 536.9 117.5 L 536.9 114.5 L 533.5 114.5 L 533.5 117.5 L 532.7 117.5 L 532.7 110.9 " fill="#000000"/>
<path class="atom-42" d="M 532.1 78.2 L 532.9 78.2 L 532.9 81.0 L 536.3 81.0 L 536.3 78.2 L 537.2 78.2 L 537.2 84.7 L 536.3 84.7 L 536.3 81.7 L 532.9 81.7 L 532.9 84.7 L 532.1 84.7 L 532.1 78.2 " fill="#000000"/>
<path class="atom-43" d="M 443.7 130.4 L 444.6 130.4 L 444.6 133.1 L 448.0 133.1 L 448.0 130.4 L 448.9 130.4 L 448.9 136.9 L 448.0 136.9 L 448.0 133.9 L 444.6 133.9 L 444.6 136.9 L 443.7 136.9 L 443.7 130.4 " fill="#000000"/>
<text x="300" y="20" font-size="20" font-family="sans-serif" font-weight="normal" letter-spacing="0" text-anchor="middle" fill="black">bace: CAT-4m -&gt; CAT-4l</text><text x="300" y="35" font-size="15" font-family="sans-serif" font-weight="normal" letter-spacing="0" text-anchor="middle" fill="black"></text><text x="150" y="285" font-size="15" font-family="sans-serif" font-weight="normal" letter-spacing="0" text-anchor="middle" fill="black">CAT-4m</text><text x="450" y="285" font-size="15" font-family="sans-serif" font-weight="normal" letter-spacing="0" text-anchor="middle" fill="black">CAT-4l</text></svg>
