<?xml version='1.0' encoding='ASCII' standalone='yes'?>
<svg xmlns="http://www.w3.org/2000/svg" xmlns:rdkit="http://www.rdkit.org/xml" xmlns:xlink="http://www.w3.org/1999/xlink" version="1.1" baseProfile="full" xml:space="preserve" width="600px" height="300px" viewBox="0 0 600 300">
<!-- END OF HEADER -->
<rect style="opacity:1.0;fill:#FFFFFF;stroke:none" width="600.0" height="300.0" x="0.0" y="0.0"> </rect>
<ellipse cx="65.2" cy="69.3" rx="6.9" ry="6.9" class="atom-9" style="fill:#DC3369;fill-rule:evenodd;stroke:#DC3369;stroke-width:1.0px;stroke-linecap:butt;stroke-linejoin:miter;stroke-opacity:1"/>
<ellipse cx="215.9" cy="150.6" rx="6.9" ry="6.9" class="atom-11" style="fill:#6B4EF9;fill-rule:evenodd;stroke:#6B4EF9;stroke-width:1.0px;stroke-linecap:butt;stroke-linejoin:miter;stroke-opacity:1"/>
<ellipse cx="195.6" cy="120.9" rx="6.9" ry="6.9" class="atom-15" style="fill:#A19F62;fill-rule:evenodd;stroke:#A19F62;stroke-width:1.0px;stroke-linecap:butt;stroke-linejoin:miter;stroke-opacity:1"/>
<ellipse cx="100.3" cy="123.6" rx="6.9" ry="6.9" class="atom-26" style="fill:#B8A444;fill-rule:evenodd;stroke:#B8A444;stroke-width:1.0px;stroke-linecap:butt;stroke-linejoin:miter;stroke-opacity:1"/>
<ellipse cx="110.8" cy="141.7" rx="6.9" ry="6.9" class="atom-27" style="fill:#DC3369;fill-rule:evenodd;stroke:#DC3369;stroke-width:1.0px;stroke-linecap:butt;stroke-linejoin:miter;stroke-opacity:1"/>
<ellipse cx="213.0" cy="207.1" rx="6.9" ry="6.9" class="atom-38" style="fill:#DC3369;fill-rule:evenodd;stroke:#DC3369;stroke-width:1.0px;stroke-linecap:butt;stroke-linejoin:miter;stroke-opacity:1"/>
<ellipse cx="180.1" cy="222.3" rx="6.9" ry="6.9" class="atom-39" style="fill:#DC3369;fill-rule:evenodd;stroke:#DC3369;stroke-width:1.0px;stroke-linecap:butt;stroke-linejoin:miter;stroke-opacity:1"/>
<ellipse cx="214.3" cy="167.2" rx="6.9" ry="6.9" class="atom-43" style="fill:#DC3369;fill-rule:evenodd;stroke:#DC3369;stroke-width:1.0px;stroke-linecap:butt;stroke-linejoin:miter;stroke-opacity:1"/>
<path class="bond-0 atom-0 atom-2" d="M 159.1,163.4 L 152.7,160.1" style="fill:none;fill-rule:evenodd;stroke:#000000;stroke-width:2.0px;stroke-linecap:butt;stroke-linejoin:miter;stroke-opacity:1"/>
<path class="bond-0 atom-0 atom-2" d="M 152.7,160.1 L 146.2,156.8" style="fill:none;fill-rule:evenodd;stroke:#FF0000;stroke-width:2.0px;stroke-linecap:butt;stroke-linejoin:miter;stroke-opacity:1"/>
<path class="bond-0 atom-0 atom-2" d="M 160.8,160.0 L 154.4,156.7" style="fill:none;fill-rule:evenodd;stroke:#000000;stroke-width:2.0px;stroke-linecap:butt;stroke-linejoin:miter;stroke-opacity:1"/>
<path class="bond-0 atom-0 atom-2" d="M 154.4,156.7 L 147.9,153.5" style="fill:none;fill-rule:evenodd;stroke:#FF0000;stroke-width:2.0px;stroke-linecap:butt;stroke-linejoin:miter;stroke-opacity:1"/>
<path class="bond-1 atom-0 atom-3" d="M 160.0,161.7 L 178.9,152.7" style="fill:none;fill-rule:evenodd;stroke:#000000;stroke-width:2.0px;stroke-linecap:butt;stroke-linejoin:miter;stroke-opacity:1"/>
<path class="bond-2 atom-0 atom-4" d="M 160.0,161.7 L 161.0,169.5" style="fill:none;fill-rule:evenodd;stroke:#000000;stroke-width:2.0px;stroke-linecap:butt;stroke-linejoin:miter;stroke-opacity:1"/>
<path class="bond-2 atom-0 atom-4" d="M 161.0,169.5 L 162.1,177.3" style="fill:none;fill-rule:evenodd;stroke:#0000FF;stroke-width:2.0px;stroke-linecap:butt;stroke-linejoin:miter;stroke-opacity:1"/>
<path class="bond-3 atom-1 atom-3" d="M 189.2,163.5 L 184.0,158.1" style="fill:none;fill-rule:evenodd;stroke:#0000FF;stroke-width:2.0px;stroke-linecap:butt;stroke-linejoin:miter;stroke-opacity:1"/>
<path class="bond-3 atom-1 atom-3" d="M 184.0,158.1 L 178.9,152.7" style="fill:none;fill-rule:evenodd;stroke:#000000;stroke-width:2.0px;stroke-linecap:butt;stroke-linejoin:miter;stroke-opacity:1"/>
<path class="bond-4 atom-1 atom-5" d="M 190.5,172.9 L 186.9,179.6" style="fill:none;fill-rule:evenodd;stroke:#0000FF;stroke-width:2.0px;stroke-linecap:butt;stroke-linejoin:miter;stroke-opacity:1"/>
<path class="bond-4 atom-1 atom-5" d="M 186.9,179.6 L 183.3,186.3" style="fill:none;fill-rule:evenodd;stroke:#000000;stroke-width:2.0px;stroke-linecap:butt;stroke-linejoin:miter;stroke-opacity:1"/>
<path class="bond-4 atom-1 atom-5" d="M 186.1,173.1 L 183.6,177.8" style="fill:none;fill-rule:evenodd;stroke:#0000FF;stroke-width:2.0px;stroke-linecap:butt;stroke-linejoin:miter;stroke-opacity:1"/>
<path class="bond-4 atom-1 atom-5" d="M 183.6,177.8 L 181.1,182.5" style="fill:none;fill-rule:evenodd;stroke:#000000;stroke-width:2.0px;stroke-linecap:butt;stroke-linejoin:miter;stroke-opacity:1"/>
<path class="bond-5 atom-1 atom-43" d="M 202.3,167.5 L 206.2,167.4" style="fill:none;fill-rule:evenodd;stroke:#0000FF;stroke-width:2.0px;stroke-linecap:butt;stroke-linejoin:miter;stroke-opacity:1"/>
<path class="bond-5 atom-1 atom-43" d="M 206.2,167.4 L 210.2,167.3" style="fill:none;fill-rule:evenodd;stroke:#000000;stroke-width:2.0px;stroke-linecap:butt;stroke-linejoin:miter;stroke-opacity:1"/>
<path class="bond-6 atom-3 atom-16" d="M 178.9,152.7 L 160.8,123.8 L 164.5,121.8 Z" style="fill:#000000;fill-rule:evenodd;fill-opacity:1;stroke:#000000;stroke-width:1.0px;stroke-linecap:butt;stroke-linejoin:miter;stroke-opacity:1;"/>
<path class="bond-7 atom-3 atom-10" d="M 178.9,152.7 L 197.1,141.6" style="fill:none;fill-rule:evenodd;stroke:#000000;stroke-width:2.0px;stroke-linecap:butt;stroke-linejoin:miter;stroke-opacity:1"/>
<path class="bond-8 atom-4 atom-7" d="M 158.7,186.2 L 153.1,191.4" style="fill:none;fill-rule:evenodd;stroke:#0000FF;stroke-width:2.0px;stroke-linecap:butt;stroke-linejoin:miter;stroke-opacity:1"/>
<path class="bond-8 atom-4 atom-7" d="M 153.1,191.4 L 147.5,196.6" style="fill:none;fill-rule:evenodd;stroke:#000000;stroke-width:2.0px;stroke-linecap:butt;stroke-linejoin:miter;stroke-opacity:1"/>
<path class="bond-9 atom-4 atom-5" d="M 166.8,183.2 L 175.1,184.7" style="fill:none;fill-rule:evenodd;stroke:#0000FF;stroke-width:2.0px;stroke-linecap:butt;stroke-linejoin:miter;stroke-opacity:1"/>
<path class="bond-9 atom-4 atom-5" d="M 175.1,184.7 L 183.3,186.3" style="fill:none;fill-rule:evenodd;stroke:#000000;stroke-width:2.0px;stroke-linecap:butt;stroke-linejoin:miter;stroke-opacity:1"/>
<path class="bond-10 atom-5 atom-6" d="M 183.3,186.3 L 186.5,193.2" style="fill:none;fill-rule:evenodd;stroke:#000000;stroke-width:2.0px;stroke-linecap:butt;stroke-linejoin:miter;stroke-opacity:1"/>
<path class="bond-10 atom-5 atom-6" d="M 186.5,193.2 L 189.8,200.1" style="fill:none;fill-rule:evenodd;stroke:#0000FF;stroke-width:2.0px;stroke-linecap:butt;stroke-linejoin:miter;stroke-opacity:1"/>
<path class="bond-11 atom-6 atom-38" d="M 196.3,205.6 L 202.5,206.1" style="fill:none;fill-rule:evenodd;stroke:#0000FF;stroke-width:2.0px;stroke-linecap:butt;stroke-linejoin:miter;stroke-opacity:1"/>
<path class="bond-11 atom-6 atom-38" d="M 202.5,206.1 L 208.8,206.7" style="fill:none;fill-rule:evenodd;stroke:#000000;stroke-width:2.0px;stroke-linecap:butt;stroke-linejoin:miter;stroke-opacity:1"/>
<path class="bond-12 atom-6 atom-39" d="M 188.6,210.3 L 186.2,213.7" style="fill:none;fill-rule:evenodd;stroke:#0000FF;stroke-width:2.0px;stroke-linecap:butt;stroke-linejoin:miter;stroke-opacity:1"/>
<path class="bond-12 atom-6 atom-39" d="M 186.2,213.7 L 183.7,217.2" style="fill:none;fill-rule:evenodd;stroke:#000000;stroke-width:2.0px;stroke-linecap:butt;stroke-linejoin:miter;stroke-opacity:1"/>
<path class="bond-13 atom-7 atom-42" d="M 147.5,196.6 L 157.4,207.4" style="fill:none;fill-rule:evenodd;stroke:#000000;stroke-width:2.0px;stroke-linecap:butt;stroke-linejoin:miter;stroke-opacity:1"/>
<path class="bond-14 atom-7 atom-40" d="M 147.5,196.6 L 142.7,211.3" style="fill:none;fill-rule:evenodd;stroke:#000000;stroke-width:2.0px;stroke-linecap:butt;stroke-linejoin:miter;stroke-opacity:1"/>
<path class="bond-15 atom-7 atom-41" d="M 147.5,196.6 L 131.7,191.5" style="fill:none;fill-rule:evenodd;stroke:#000000;stroke-width:2.0px;stroke-linecap:butt;stroke-linejoin:miter;stroke-opacity:1"/>
<path class="bond-16 atom-8 atom-22" d="M 79.3,87.4 L 68.9,105.5" style="fill:none;fill-rule:evenodd;stroke:#000000;stroke-width:2.0px;stroke-linecap:butt;stroke-linejoin:miter;stroke-opacity:1"/>
<path class="bond-16 atom-8 atom-22" d="M 81.0,91.9 L 73.8,104.6" style="fill:none;fill-rule:evenodd;stroke:#000000;stroke-width:2.0px;stroke-linecap:butt;stroke-linejoin:miter;stroke-opacity:1"/>
<path class="bond-17 atom-8 atom-24" d="M 79.3,87.4 L 100.3,87.3" style="fill:none;fill-rule:evenodd;stroke:#000000;stroke-width:2.0px;stroke-linecap:butt;stroke-linejoin:miter;stroke-opacity:1"/>
<path class="bond-18 atom-8 atom-9" d="M 79.3,87.4 L 74.8,79.4" style="fill:none;fill-rule:evenodd;stroke:#000000;stroke-width:2.0px;stroke-linecap:butt;stroke-linejoin:miter;stroke-opacity:1"/>
<path class="bond-18 atom-8 atom-9" d="M 74.8,79.4 L 70.2,71.5" style="fill:none;fill-rule:evenodd;stroke:#00CC00;stroke-width:2.0px;stroke-linecap:butt;stroke-linejoin:miter;stroke-opacity:1"/>
<path class="bond-19 atom-10 atom-15" d="M 197.1,141.6 L 196.6,133.8" style="fill:none;fill-rule:evenodd;stroke:#000000;stroke-width:2.0px;stroke-linecap:butt;stroke-linejoin:miter;stroke-opacity:1"/>
<path class="bond-19 atom-10 atom-15" d="M 196.6,133.8 L 196.0,126.0" style="fill:none;fill-rule:evenodd;stroke:#0000FF;stroke-width:2.0px;stroke-linecap:butt;stroke-linejoin:miter;stroke-opacity:1"/>
<path class="bond-20 atom-10 atom-11" d="M 197.1,141.6 L 204.5,145.1" style="fill:none;fill-rule:evenodd;stroke:#000000;stroke-width:2.0px;stroke-linecap:butt;stroke-linejoin:miter;stroke-opacity:1"/>
<path class="bond-20 atom-10 atom-11" d="M 204.5,145.1 L 211.8,148.6" style="fill:none;fill-rule:evenodd;stroke:#0000FF;stroke-width:2.0px;stroke-linecap:butt;stroke-linejoin:miter;stroke-opacity:1"/>
<path class="bond-20 atom-10 atom-11" d="M 201.0,139.2 L 206.1,141.7" style="fill:none;fill-rule:evenodd;stroke:#000000;stroke-width:2.0px;stroke-linecap:butt;stroke-linejoin:miter;stroke-opacity:1"/>
<path class="bond-20 atom-10 atom-11" d="M 206.1,141.7 L 211.3,144.2" style="fill:none;fill-rule:evenodd;stroke:#0000FF;stroke-width:2.0px;stroke-linecap:butt;stroke-linejoin:miter;stroke-opacity:1"/>
<path class="bond-21 atom-11 atom-12" d="M 220.0,147.8 L 226.5,143.3" style="fill:none;fill-rule:evenodd;stroke:#0000FF;stroke-width:2.0px;stroke-linecap:butt;stroke-linejoin:miter;stroke-opacity:1"/>
<path class="bond-21 atom-11 atom-12" d="M 226.5,143.3 L 233.1,138.8" style="fill:none;fill-rule:evenodd;stroke:#000000;stroke-width:2.0px;stroke-linecap:butt;stroke-linejoin:miter;stroke-opacity:1"/>
<path class="bond-22 atom-12 atom-13" d="M 233.1,138.8 L 231.6,118.1" style="fill:none;fill-rule:evenodd;stroke:#000000;stroke-width:2.0px;stroke-linecap:butt;stroke-linejoin:miter;stroke-opacity:1"/>
<path class="bond-22 atom-12 atom-13" d="M 229.1,136.0 L 228.0,121.5" style="fill:none;fill-rule:evenodd;stroke:#000000;stroke-width:2.0px;stroke-linecap:butt;stroke-linejoin:miter;stroke-opacity:1"/>
<path class="bond-23 atom-12 atom-35" d="M 233.1,138.8 L 247.8,145.8" style="fill:none;fill-rule:evenodd;stroke:#000000;stroke-width:2.0px;stroke-linecap:butt;stroke-linejoin:miter;stroke-opacity:1"/>
<path class="bond-24 atom-13 atom-14" d="M 231.6,118.1 L 212.8,109.2" style="fill:none;fill-rule:evenodd;stroke:#000000;stroke-width:2.0px;stroke-linecap:butt;stroke-linejoin:miter;stroke-opacity:1"/>
<path class="bond-25 atom-13 atom-37" d="M 231.6,118.1 L 244.5,109.1" style="fill:none;fill-rule:evenodd;stroke:#000000;stroke-width:2.0px;stroke-linecap:butt;stroke-linejoin:miter;stroke-opacity:1"/>
<path class="bond-26 atom-14 atom-36" d="M 212.8,109.2 L 211.5,93.5" style="fill:none;fill-rule:evenodd;stroke:#000000;stroke-width:2.0px;stroke-linecap:butt;stroke-linejoin:miter;stroke-opacity:1"/>
<path class="bond-27 atom-14 atom-15" d="M 212.8,109.2 L 206.2,113.7" style="fill:none;fill-rule:evenodd;stroke:#000000;stroke-width:2.0px;stroke-linecap:butt;stroke-linejoin:miter;stroke-opacity:1"/>
<path class="bond-27 atom-14 atom-15" d="M 206.2,113.7 L 199.6,118.1" style="fill:none;fill-rule:evenodd;stroke:#0000FF;stroke-width:2.0px;stroke-linecap:butt;stroke-linejoin:miter;stroke-opacity:1"/>
<path class="bond-27 atom-14 atom-15" d="M 212.9,113.7 L 208.3,116.8" style="fill:none;fill-rule:evenodd;stroke:#000000;stroke-width:2.0px;stroke-linecap:butt;stroke-linejoin:miter;stroke-opacity:1"/>
<path class="bond-27 atom-14 atom-15" d="M 208.3,116.8 L 203.7,119.9" style="fill:none;fill-rule:evenodd;stroke:#0000FF;stroke-width:2.0px;stroke-linecap:butt;stroke-linejoin:miter;stroke-opacity:1"/>
<path class="bond-28 atom-16 atom-17" d="M 162.7,122.8 L 173.0,104.5" style="fill:none;fill-rule:evenodd;stroke:#000000;stroke-width:2.0px;stroke-linecap:butt;stroke-linejoin:miter;stroke-opacity:1"/>
<path class="bond-28 atom-16 atom-17" d="M 160.9,118.2 L 168.2,105.4" style="fill:none;fill-rule:evenodd;stroke:#000000;stroke-width:2.0px;stroke-linecap:butt;stroke-linejoin:miter;stroke-opacity:1"/>
<path class="bond-29 atom-16 atom-21" d="M 162.7,122.8 L 141.7,123.0" style="fill:none;fill-rule:evenodd;stroke:#000000;stroke-width:2.0px;stroke-linecap:butt;stroke-linejoin:miter;stroke-opacity:1"/>
<path class="bond-30 atom-17 atom-18" d="M 173.0,104.5 L 162.4,86.5" style="fill:none;fill-rule:evenodd;stroke:#000000;stroke-width:2.0px;stroke-linecap:butt;stroke-linejoin:miter;stroke-opacity:1"/>
<path class="bond-31 atom-17 atom-33" d="M 173.0,104.5 L 188.5,103.1" style="fill:none;fill-rule:evenodd;stroke:#000000;stroke-width:2.0px;stroke-linecap:butt;stroke-linejoin:miter;stroke-opacity:1"/>
<path class="bond-32 atom-18 atom-34" d="M 162.4,86.5 L 169.8,73.5" style="fill:none;fill-rule:evenodd;stroke:#000000;stroke-width:2.0px;stroke-linecap:butt;stroke-linejoin:miter;stroke-opacity:1"/>
<path class="bond-33 atom-18 atom-19" d="M 162.4,86.5 L 141.4,86.7" style="fill:none;fill-rule:evenodd;stroke:#000000;stroke-width:2.0px;stroke-linecap:butt;stroke-linejoin:miter;stroke-opacity:1"/>
<path class="bond-33 atom-18 atom-19" d="M 159.3,90.3 L 144.6,90.4" style="fill:none;fill-rule:evenodd;stroke:#000000;stroke-width:2.0px;stroke-linecap:butt;stroke-linejoin:miter;stroke-opacity:1"/>
<path class="bond-34 atom-19 atom-32" d="M 141.4,86.7 L 133.9,73.8" style="fill:none;fill-rule:evenodd;stroke:#000000;stroke-width:2.0px;stroke-linecap:butt;stroke-linejoin:miter;stroke-opacity:1"/>
<path class="bond-35 atom-19 atom-20" d="M 141.4,86.7 L 131.1,104.9" style="fill:none;fill-rule:evenodd;stroke:#000000;stroke-width:2.0px;stroke-linecap:butt;stroke-linejoin:miter;stroke-opacity:1"/>
<path class="bond-36 atom-20 atom-25" d="M 131.1,104.9 L 110.7,105.4" style="fill:none;fill-rule:evenodd;stroke:#000000;stroke-width:2.0px;stroke-linecap:butt;stroke-linejoin:miter;stroke-opacity:1"/>
<path class="bond-37 atom-20 atom-21" d="M 131.1,104.9 L 141.7,123.0" style="fill:none;fill-rule:evenodd;stroke:#000000;stroke-width:2.0px;stroke-linecap:butt;stroke-linejoin:miter;stroke-opacity:1"/>
<path class="bond-37 atom-20 atom-21" d="M 135.9,105.8 L 143.3,118.4" style="fill:none;fill-rule:evenodd;stroke:#000000;stroke-width:2.0px;stroke-linecap:butt;stroke-linejoin:miter;stroke-opacity:1"/>
<path class="bond-38 atom-21 atom-31" d="M 141.7,123.0 L 134.5,134.8" style="fill:none;fill-rule:evenodd;stroke:#000000;stroke-width:2.0px;stroke-linecap:butt;stroke-linejoin:miter;stroke-opacity:1"/>
<path class="bond-39 atom-22 atom-28" d="M 68.9,105.5 L 79.3,123.6" style="fill:none;fill-rule:evenodd;stroke:#000000;stroke-width:2.0px;stroke-linecap:butt;stroke-linejoin:miter;stroke-opacity:1"/>
<path class="bond-40 atom-22 atom-23" d="M 68.9,105.5 L 52.2,105.5" style="fill:none;fill-rule:evenodd;stroke:#000000;stroke-width:2.0px;stroke-linecap:butt;stroke-linejoin:miter;stroke-opacity:1"/>
<path class="bond-41 atom-24 atom-25" d="M 100.3,87.3 L 110.7,105.4" style="fill:none;fill-rule:evenodd;stroke:#000000;stroke-width:2.0px;stroke-linecap:butt;stroke-linejoin:miter;stroke-opacity:1"/>
<path class="bond-41 atom-24 atom-25" d="M 98.6,91.9 L 105.9,104.6" style="fill:none;fill-rule:evenodd;stroke:#000000;stroke-width:2.0px;stroke-linecap:butt;stroke-linejoin:miter;stroke-opacity:1"/>
<path class="bond-42 atom-24 atom-30" d="M 100.3,87.3 L 107.8,74.4" style="fill:none;fill-rule:evenodd;stroke:#000000;stroke-width:2.0px;stroke-linecap:butt;stroke-linejoin:miter;stroke-opacity:1"/>
<path class="bond-43 atom-25 atom-26" d="M 110.7,105.4 L 100.3,123.6" style="fill:none;fill-rule:evenodd;stroke:#000000;stroke-width:2.0px;stroke-linecap:butt;stroke-linejoin:miter;stroke-opacity:1"/>
<path class="bond-44 atom-26 atom-27" d="M 100.3,123.6 L 107.8,136.5" style="fill:none;fill-rule:evenodd;stroke:#000000;stroke-width:2.0px;stroke-linecap:butt;stroke-linejoin:miter;stroke-opacity:1"/>
<path class="bond-45 atom-26 atom-28" d="M 100.3,123.6 L 79.3,123.6" style="fill:none;fill-rule:evenodd;stroke:#000000;stroke-width:2.0px;stroke-linecap:butt;stroke-linejoin:miter;stroke-opacity:1"/>
<path class="bond-45 atom-26 atom-28" d="M 97.2,119.8 L 82.5,119.8" style="fill:none;fill-rule:evenodd;stroke:#000000;stroke-width:2.0px;stroke-linecap:butt;stroke-linejoin:miter;stroke-opacity:1"/>
<path class="bond-46 atom-28 atom-29" d="M 79.3,123.6 L 71.9,136.6" style="fill:none;fill-rule:evenodd;stroke:#000000;stroke-width:2.0px;stroke-linecap:butt;stroke-linejoin:miter;stroke-opacity:1"/>
<path class="atom-1" d="M 191.3 163.3 L 194.2 168.0 Q 194.5 168.5, 195.0 169.3 Q 195.5 170.2, 195.5 170.2 L 195.5 163.3 L 196.7 163.3 L 196.7 172.2 L 195.4 172.2 L 192.3 167.1 Q 192.0 166.5, 191.6 165.8 Q 191.2 165.1, 191.1 164.9 L 191.1 172.2 L 189.9 172.2 L 189.9 163.3 L 191.3 163.3 " fill="#0000FF"/>
<path class="atom-1" d="M 197.7 164.9 L 199.3 164.9 L 199.3 163.3 L 200.0 163.3 L 200.0 164.9 L 201.6 164.9 L 201.6 165.5 L 200.0 165.5 L 200.0 167.2 L 199.3 167.2 L 199.3 165.5 L 197.7 165.5 L 197.7 164.9 " fill="#0000FF"/>
<path class="atom-2" d="M 138.2 152.8 Q 138.2 150.6, 139.3 149.4 Q 140.3 148.2, 142.3 148.2 Q 144.3 148.2, 145.3 149.4 Q 146.4 150.6, 146.4 152.8 Q 146.4 154.9, 145.3 156.1 Q 144.2 157.4, 142.3 157.4 Q 140.3 157.4, 139.3 156.1 Q 138.2 154.9, 138.2 152.8 M 142.3 156.4 Q 143.7 156.4, 144.4 155.4 Q 145.1 154.5, 145.1 152.8 Q 145.1 151.0, 144.4 150.1 Q 143.7 149.2, 142.3 149.2 Q 140.9 149.2, 140.2 150.1 Q 139.5 151.0, 139.5 152.8 Q 139.5 154.5, 140.2 155.4 Q 140.9 156.4, 142.3 156.4 " fill="#FF0000"/>
<path class="atom-4" d="M 160.8 178.0 L 163.7 182.7 Q 164.0 183.2, 164.5 184.0 Q 164.9 184.9, 165.0 184.9 L 165.0 178.0 L 166.1 178.0 L 166.1 186.9 L 164.9 186.9 L 161.8 181.8 Q 161.4 181.2, 161.1 180.5 Q 160.7 179.8, 160.6 179.6 L 160.6 186.9 L 159.4 186.9 L 159.4 178.0 L 160.8 178.0 " fill="#0000FF"/>
<path class="atom-6" d="M 190.2 200.8 L 193.1 205.5 Q 193.4 205.9, 193.9 206.8 Q 194.3 207.6, 194.4 207.7 L 194.4 200.8 L 195.6 200.8 L 195.6 209.6 L 194.3 209.6 L 191.2 204.5 Q 190.8 203.9, 190.5 203.2 Q 190.1 202.5, 190.0 202.3 L 190.0 209.6 L 188.8 209.6 L 188.8 200.8 L 190.2 200.8 " fill="#0000FF"/>
<path class="atom-9" d="M 61.0 69.6 Q 61.0 67.4, 62.0 66.2 Q 63.0 65.0, 65.0 65.0 Q 66.8 65.0, 67.8 66.3 L 67.0 67.0 Q 66.3 66.1, 65.0 66.1 Q 63.7 66.1, 63.0 67.0 Q 62.2 67.9, 62.2 69.6 Q 62.2 71.3, 63.0 72.2 Q 63.7 73.1, 65.1 73.1 Q 66.1 73.1, 67.3 72.5 L 67.6 73.5 Q 67.2 73.8, 66.5 74.0 Q 65.7 74.1, 65.0 74.1 Q 63.0 74.1, 62.0 72.9 Q 61.0 71.8, 61.0 69.6 " fill="#00CC00"/>
<path class="atom-9" d="M 68.3 64.5 L 69.5 64.5 L 69.5 74.0 L 68.3 74.0 L 68.3 64.5 " fill="#00CC00"/>
<path class="atom-11" d="M 213.9 146.2 L 216.9 150.9 Q 217.1 151.3, 217.6 152.2 Q 218.1 153.0, 218.1 153.1 L 218.1 146.2 L 219.3 146.2 L 219.3 155.0 L 218.1 155.0 L 214.9 149.9 Q 214.6 149.3, 214.2 148.6 Q 213.8 147.9, 213.7 147.7 L 213.7 155.0 L 212.5 155.0 L 212.5 146.2 L 213.9 146.2 " fill="#0000FF"/>
<path class="atom-15" d="M 193.6 116.4 L 196.5 121.1 Q 196.8 121.6, 197.3 122.5 Q 197.7 123.3, 197.8 123.3 L 197.8 116.4 L 199.0 116.4 L 199.0 125.3 L 197.7 125.3 L 194.6 120.2 Q 194.2 119.6, 193.9 118.9 Q 193.5 118.2, 193.4 118.0 L 193.4 125.3 L 192.2 125.3 L 192.2 116.4 L 193.6 116.4 " fill="#0000FF"/>
<path class="atom-23" d="M 44.5 101.0 L 45.7 101.0 L 45.7 104.8 L 50.3 104.8 L 50.3 101.0 L 51.5 101.0 L 51.5 109.9 L 50.3 109.9 L 50.3 105.8 L 45.7 105.8 L 45.7 109.9 L 44.5 109.9 L 44.5 101.0 " fill="#000000"/>
<path class="atom-27" d="M 107.3 137.2 L 108.5 137.2 L 108.5 141.0 L 113.0 141.0 L 113.0 137.2 L 114.2 137.2 L 114.2 146.1 L 113.0 146.1 L 113.0 142.0 L 108.5 142.0 L 108.5 146.1 L 107.3 146.1 L 107.3 137.2 " fill="#000000"/>
<path class="atom-29" d="M 65.4 137.3 L 66.6 137.3 L 66.6 141.0 L 71.2 141.0 L 71.2 137.3 L 72.4 137.3 L 72.4 146.1 L 71.2 146.1 L 71.2 142.0 L 66.6 142.0 L 66.6 146.1 L 65.4 146.1 L 65.4 137.3 " fill="#000000"/>
<path class="atom-30" d="M 107.2 64.8 L 108.4 64.8 L 108.4 68.6 L 113.0 68.6 L 113.0 64.8 L 114.2 64.8 L 114.2 73.7 L 113.0 73.7 L 113.0 69.6 L 108.4 69.6 L 108.4 73.7 L 107.2 73.7 L 107.2 64.8 " fill="#000000"/>
<path class="atom-31" d="M 127.9 135.5 L 129.1 135.5 L 129.1 139.3 L 133.7 139.3 L 133.7 135.5 L 134.9 135.5 L 134.9 144.4 L 133.7 144.4 L 133.7 140.3 L 129.1 140.3 L 129.1 144.4 L 127.9 144.4 L 127.9 135.5 " fill="#000000"/>
<path class="atom-32" d="M 127.4 64.2 L 128.6 64.2 L 128.6 68.0 L 133.1 68.0 L 133.1 64.2 L 134.3 64.2 L 134.3 73.1 L 133.1 73.1 L 133.1 69.0 L 128.6 69.0 L 128.6 73.1 L 127.4 73.1 L 127.4 64.2 " fill="#000000"/>
<path class="atom-33" d="M 189.2 98.2 L 190.4 98.2 L 190.4 102.0 L 194.9 102.0 L 194.9 98.2 L 196.1 98.2 L 196.1 107.1 L 194.9 107.1 L 194.9 103.0 L 190.4 103.0 L 190.4 107.1 L 189.2 107.1 L 189.2 98.2 " fill="#000000"/>
<path class="atom-34" d="M 169.3 63.9 L 170.5 63.9 L 170.5 67.7 L 175.0 67.7 L 175.0 63.9 L 176.2 63.9 L 176.2 72.8 L 175.0 72.8 L 175.0 68.7 L 170.5 68.7 L 170.5 72.8 L 169.3 72.8 L 169.3 63.9 " fill="#000000"/>
<path class="atom-35" d="M 248.5 143.3 L 249.7 143.3 L 249.7 147.1 L 254.3 147.1 L 254.3 143.3 L 255.5 143.3 L 255.5 152.2 L 254.3 152.2 L 254.3 148.1 L 249.7 148.1 L 249.7 152.2 L 248.5 152.2 L 248.5 143.3 " fill="#000000"/>
<path class="atom-36" d="M 207.6 83.9 L 208.8 83.9 L 208.8 87.7 L 213.3 87.7 L 213.3 83.9 L 214.5 83.9 L 214.5 92.8 L 213.3 92.8 L 213.3 88.7 L 208.8 88.7 L 208.8 92.8 L 207.6 92.8 L 207.6 83.9 " fill="#000000"/>
<path class="atom-37" d="M 245.2 101.8 L 246.4 101.8 L 246.4 105.6 L 251.0 105.6 L 251.0 101.8 L 252.2 101.8 L 252.2 110.7 L 251.0 110.7 L 251.0 106.6 L 246.4 106.6 L 246.4 110.7 L 245.2 110.7 L 245.2 101.8 " fill="#000000"/>
<path class="atom-38" d="M 209.5 202.6 L 210.7 202.6 L 210.7 206.4 L 215.3 206.4 L 215.3 202.6 L 216.5 202.6 L 216.5 211.5 L 215.3 211.5 L 215.3 207.4 L 210.7 207.4 L 210.7 211.5 L 209.5 211.5 L 209.5 202.6 " fill="#000000"/>
<path class="atom-39" d="M 176.6 217.9 L 177.9 217.9 L 177.9 221.6 L 182.4 221.6 L 182.4 217.9 L 183.6 217.9 L 183.6 226.7 L 182.4 226.7 L 182.4 222.6 L 177.9 222.6 L 177.9 226.7 L 176.6 226.7 L 176.6 217.9 " fill="#000000"/>
<path class="atom-40" d="M 137.6 212.0 L 138.8 212.0 L 138.8 215.8 L 143.4 215.8 L 143.4 212.0 L 144.6 212.0 L 144.6 220.9 L 143.4 220.9 L 143.4 216.8 L 138.8 216.8 L 138.8 220.9 L 137.6 220.9 L 137.6 212.0 " fill="#000000"/>
<path class="atom-41" d="M 124.1 185.8 L 125.3 185.8 L 125.3 189.5 L 129.8 189.5 L 129.8 185.8 L 131.0 185.8 L 131.0 194.6 L 129.8 194.6 L 129.8 190.5 L 125.3 190.5 L 125.3 194.6 L 124.1 194.6 L 124.1 185.8 " fill="#000000"/>
<path class="atom-42" d="M 158.1 207.6 L 159.3 207.6 L 159.3 211.3 L 163.8 211.3 L 163.8 207.6 L 165.0 207.6 L 165.0 216.5 L 163.8 216.5 L 163.8 212.3 L 159.3 212.3 L 159.3 216.5 L 158.1 216.5 L 158.1 207.6 " fill="#000000"/>
<path class="atom-43" d="M 210.9 162.7 L 212.1 162.7 L 212.1 166.5 L 216.6 166.5 L 216.6 162.7 L 217.8 162.7 L 217.8 171.6 L 216.6 171.6 L 216.6 167.5 L 212.1 167.5 L 212.1 171.6 L 210.9 171.6 L 210.9 162.7 " fill="#000000"/>
<ellipse cx="359.3" cy="154.2" rx="6.9" ry="6.9" class="atom-9" style="fill:#DC3369;fill-rule:evenodd;stroke:#DC3369;stroke-width:1.0px;stroke-linecap:butt;stroke-linejoin:miter;stroke-opacity:1"/>
<ellipse cx="525.7" cy="131.5" rx="6.9" ry="6.9" class="atom-11" style="fill:#6B4EF9;fill-rule:evenodd;stroke:#6B4EF9;stroke-width:1.0px;stroke-linecap:butt;stroke-linejoin:miter;stroke-opacity:1"/>
<ellipse cx="504.7" cy="102.0" rx="6.9" ry="6.9" class="atom-15" style="fill:#A19F62;fill-rule:evenodd;stroke:#A19F62;stroke-width:1.0px;stroke-linecap:butt;stroke-linejoin:miter;stroke-opacity:1"/>
<ellipse cx="390.0" cy="99.3" rx="6.9" ry="6.9" class="atom-26" style="fill:#B8A444;fill-rule:evenodd;stroke:#B8A444;stroke-width:1.0px;stroke-linecap:butt;stroke-linejoin:miter;stroke-opacity:1"/>
<ellipse cx="485.6" cy="93.3" rx="6.9" ry="6.9" class="atom-33" style="fill:#DC3369;fill-rule:evenodd;stroke:#DC3369;stroke-width:1.0px;stroke-linecap:butt;stroke-linejoin:miter;stroke-opacity:1"/>
<ellipse cx="527.8" cy="152.3" rx="6.9" ry="6.9" class="atom-37" style="fill:#DC3369;fill-rule:evenodd;stroke:#DC3369;stroke-width:1.0px;stroke-linecap:butt;stroke-linejoin:miter;stroke-opacity:1"/>
<ellipse cx="496.1" cy="209.1" rx="6.9" ry="6.9" class="atom-38" style="fill:#DC3369;fill-rule:evenodd;stroke:#DC3369;stroke-width:1.0px;stroke-linecap:butt;stroke-linejoin:miter;stroke-opacity:1"/>
<ellipse cx="462.1" cy="221.7" rx="6.9" ry="6.9" class="atom-39" style="fill:#DC3369;fill-rule:evenodd;stroke:#DC3369;stroke-width:1.0px;stroke-linecap:butt;stroke-linejoin:miter;stroke-opacity:1"/>
<ellipse cx="500.8" cy="167.2" rx="6.9" ry="6.9" class="atom-44" style="fill:#DC3369;fill-rule:evenodd;stroke:#DC3369;stroke-width:1.0px;stroke-linecap:butt;stroke-linejoin:miter;stroke-opacity:1"/>
<path class="bond-0 atom-0 atom-2" d="M 446.8,160.4 L 442.8,158.8" style="fill:none;fill-rule:evenodd;stroke:#000000;stroke-width:2.0px;stroke-linecap:butt;stroke-linejoin:miter;stroke-opacity:1"/>
<path class="bond-0 atom-0 atom-2" d="M 442.8,158.8 L 438.7,157.2" style="fill:none;fill-rule:evenodd;stroke:#FF0000;stroke-width:2.0px;stroke-linecap:butt;stroke-linejoin:miter;stroke-opacity:1"/>
<path class="bond-0 atom-0 atom-2" d="M 448.2,156.9 L 444.1,155.3" style="fill:none;fill-rule:evenodd;stroke:#000000;stroke-width:2.0px;stroke-linecap:butt;stroke-linejoin:miter;stroke-opacity:1"/>
<path class="bond-0 atom-0 atom-2" d="M 444.1,155.3 L 440.1,153.7" style="fill:none;fill-rule:evenodd;stroke:#FF0000;stroke-width:2.0px;stroke-linecap:butt;stroke-linejoin:miter;stroke-opacity:1"/>
<path class="bond-1 atom-0 atom-3" d="M 447.5,158.7 L 467.2,151.3" style="fill:none;fill-rule:evenodd;stroke:#000000;stroke-width:2.0px;stroke-linecap:butt;stroke-linejoin:miter;stroke-opacity:1"/>
<path class="bond-2 atom-0 atom-4" d="M 447.5,158.7 L 447.8,166.5" style="fill:none;fill-rule:evenodd;stroke:#000000;stroke-width:2.0px;stroke-linecap:butt;stroke-linejoin:miter;stroke-opacity:1"/>
<path class="bond-2 atom-0 atom-4" d="M 447.8,166.5 L 448.2,174.3" style="fill:none;fill-rule:evenodd;stroke:#0000FF;stroke-width:2.0px;stroke-linecap:butt;stroke-linejoin:miter;stroke-opacity:1"/>
<path class="bond-3 atom-1 atom-3" d="M 476.0,162.5 L 471.6,156.9" style="fill:none;fill-rule:evenodd;stroke:#0000FF;stroke-width:2.0px;stroke-linecap:butt;stroke-linejoin:miter;stroke-opacity:1"/>
<path class="bond-3 atom-1 atom-3" d="M 471.6,156.9 L 467.2,151.3" style="fill:none;fill-rule:evenodd;stroke:#000000;stroke-width:2.0px;stroke-linecap:butt;stroke-linejoin:miter;stroke-opacity:1"/>
<path class="bond-4 atom-1 atom-5" d="M 476.6,172.8 L 472.5,178.9" style="fill:none;fill-rule:evenodd;stroke:#0000FF;stroke-width:2.0px;stroke-linecap:butt;stroke-linejoin:miter;stroke-opacity:1"/>
<path class="bond-4 atom-1 atom-5" d="M 472.5,178.9 L 468.4,185.1" style="fill:none;fill-rule:evenodd;stroke:#000000;stroke-width:2.0px;stroke-linecap:butt;stroke-linejoin:miter;stroke-opacity:1"/>
<path class="bond-4 atom-1 atom-5" d="M 472.3,172.5 L 469.4,176.9" style="fill:none;fill-rule:evenodd;stroke:#0000FF;stroke-width:2.0px;stroke-linecap:butt;stroke-linejoin:miter;stroke-opacity:1"/>
<path class="bond-4 atom-1 atom-5" d="M 469.4,176.9 L 466.5,181.2" style="fill:none;fill-rule:evenodd;stroke:#000000;stroke-width:2.0px;stroke-linecap:butt;stroke-linejoin:miter;stroke-opacity:1"/>
<path class="bond-5 atom-1 atom-44" d="M 489.0,167.5 L 492.8,167.4" style="fill:none;fill-rule:evenodd;stroke:#0000FF;stroke-width:2.0px;stroke-linecap:butt;stroke-linejoin:miter;stroke-opacity:1"/>
<path class="bond-5 atom-1 atom-44" d="M 492.8,167.4 L 496.6,167.3" style="fill:none;fill-rule:evenodd;stroke:#000000;stroke-width:2.0px;stroke-linecap:butt;stroke-linejoin:miter;stroke-opacity:1"/>
<path class="bond-6 atom-3 atom-16" d="M 467.2,151.3 L 446.3,136.1 L 449.1,132.9 Z" style="fill:#000000;fill-rule:evenodd;fill-opacity:1;stroke:#000000;stroke-width:1.0px;stroke-linecap:butt;stroke-linejoin:miter;stroke-opacity:1;"/>
<path class="bond-7 atom-3 atom-10" d="M 467.2,151.3 L 506.6,122.8" style="fill:none;fill-rule:evenodd;stroke:#000000;stroke-width:2.0px;stroke-linecap:butt;stroke-linejoin:miter;stroke-opacity:1"/>
<path class="bond-8 atom-4 atom-7" d="M 444.3,183.0 L 437.9,188.6" style="fill:none;fill-rule:evenodd;stroke:#0000FF;stroke-width:2.0px;stroke-linecap:butt;stroke-linejoin:miter;stroke-opacity:1"/>
<path class="bond-8 atom-4 atom-7" d="M 437.9,188.6 L 431.4,194.2" style="fill:none;fill-rule:evenodd;stroke:#000000;stroke-width:2.0px;stroke-linecap:butt;stroke-linejoin:miter;stroke-opacity:1"/>
<path class="bond-9 atom-4 atom-5" d="M 452.5,180.6 L 460.5,182.9" style="fill:none;fill-rule:evenodd;stroke:#0000FF;stroke-width:2.0px;stroke-linecap:butt;stroke-linejoin:miter;stroke-opacity:1"/>
<path class="bond-9 atom-4 atom-5" d="M 460.5,182.9 L 468.4,185.1" style="fill:none;fill-rule:evenodd;stroke:#000000;stroke-width:2.0px;stroke-linecap:butt;stroke-linejoin:miter;stroke-opacity:1"/>
<path class="bond-10 atom-5 atom-6" d="M 468.4,185.1 L 471.1,192.6" style="fill:none;fill-rule:evenodd;stroke:#000000;stroke-width:2.0px;stroke-linecap:butt;stroke-linejoin:miter;stroke-opacity:1"/>
<path class="bond-10 atom-5 atom-6" d="M 471.1,192.6 L 473.8,200.2" style="fill:none;fill-rule:evenodd;stroke:#0000FF;stroke-width:2.0px;stroke-linecap:butt;stroke-linejoin:miter;stroke-opacity:1"/>
<path class="bond-11 atom-6 atom-38" d="M 479.7,206.1 L 485.8,207.2" style="fill:none;fill-rule:evenodd;stroke:#0000FF;stroke-width:2.0px;stroke-linecap:butt;stroke-linejoin:miter;stroke-opacity:1"/>
<path class="bond-11 atom-6 atom-38" d="M 485.8,207.2 L 491.9,208.3" style="fill:none;fill-rule:evenodd;stroke:#000000;stroke-width:2.0px;stroke-linecap:butt;stroke-linejoin:miter;stroke-opacity:1"/>
<path class="bond-12 atom-6 atom-39" d="M 471.6,210.3 L 468.9,213.5" style="fill:none;fill-rule:evenodd;stroke:#0000FF;stroke-width:2.0px;stroke-linecap:butt;stroke-linejoin:miter;stroke-opacity:1"/>
<path class="bond-12 atom-6 atom-39" d="M 468.9,213.5 L 466.3,216.7" style="fill:none;fill-rule:evenodd;stroke:#000000;stroke-width:2.0px;stroke-linecap:butt;stroke-linejoin:miter;stroke-opacity:1"/>
<path class="bond-13 atom-7 atom-42" d="M 431.4,194.2 L 441.1,205.2" style="fill:none;fill-rule:evenodd;stroke:#000000;stroke-width:2.0px;stroke-linecap:butt;stroke-linejoin:miter;stroke-opacity:1"/>
<path class="bond-14 atom-7 atom-40" d="M 431.4,194.2 L 426.6,209.4" style="fill:none;fill-rule:evenodd;stroke:#000000;stroke-width:2.0px;stroke-linecap:butt;stroke-linejoin:miter;stroke-opacity:1"/>
<path class="bond-15 atom-7 atom-41" d="M 431.4,194.2 L 415.3,189.4" style="fill:none;fill-rule:evenodd;stroke:#000000;stroke-width:2.0px;stroke-linecap:butt;stroke-linejoin:miter;stroke-opacity:1"/>
<path class="bond-16 atom-8 atom-22" d="M 369.5,135.8 L 358.9,117.8" style="fill:none;fill-rule:evenodd;stroke:#000000;stroke-width:2.0px;stroke-linecap:butt;stroke-linejoin:miter;stroke-opacity:1"/>
<path class="bond-16 atom-8 atom-22" d="M 371.1,131.2 L 363.7,118.6" style="fill:none;fill-rule:evenodd;stroke:#000000;stroke-width:2.0px;stroke-linecap:butt;stroke-linejoin:miter;stroke-opacity:1"/>
<path class="bond-17 atom-8 atom-24" d="M 369.5,135.8 L 390.4,135.6" style="fill:none;fill-rule:evenodd;stroke:#000000;stroke-width:2.0px;stroke-linecap:butt;stroke-linejoin:miter;stroke-opacity:1"/>
<path class="bond-18 atom-8 atom-9" d="M 369.5,135.8 L 362.1,149.0" style="fill:none;fill-rule:evenodd;stroke:#000000;stroke-width:2.0px;stroke-linecap:butt;stroke-linejoin:miter;stroke-opacity:1"/>
<path class="bond-19 atom-10 atom-15" d="M 506.6,122.8 L 504.7,102.0" style="fill:none;fill-rule:evenodd;stroke:#000000;stroke-width:2.0px;stroke-linecap:butt;stroke-linejoin:miter;stroke-opacity:1"/>
<path class="bond-20 atom-10 atom-11" d="M 506.6,122.8 L 525.7,131.5" style="fill:none;fill-rule:evenodd;stroke:#000000;stroke-width:2.0px;stroke-linecap:butt;stroke-linejoin:miter;stroke-opacity:1"/>
<path class="bond-20 atom-10 atom-11" d="M 511.0,120.7 L 524.4,126.8" style="fill:none;fill-rule:evenodd;stroke:#000000;stroke-width:2.0px;stroke-linecap:butt;stroke-linejoin:miter;stroke-opacity:1"/>
<path class="bond-21 atom-11 atom-12" d="M 525.7,131.5 L 542.9,119.3" style="fill:none;fill-rule:evenodd;stroke:#000000;stroke-width:2.0px;stroke-linecap:butt;stroke-linejoin:miter;stroke-opacity:1"/>
<path class="bond-22 atom-11 atom-37" d="M 525.7,131.5 L 527.3,147.2" style="fill:none;fill-rule:evenodd;stroke:#000000;stroke-width:2.0px;stroke-linecap:butt;stroke-linejoin:miter;stroke-opacity:1"/>
<path class="bond-23 atom-12 atom-13" d="M 542.9,119.3 L 540.9,98.4" style="fill:none;fill-rule:evenodd;stroke:#000000;stroke-width:2.0px;stroke-linecap:butt;stroke-linejoin:miter;stroke-opacity:1"/>
<path class="bond-23 atom-12 atom-13" d="M 538.8,116.5 L 537.4,101.9" style="fill:none;fill-rule:evenodd;stroke:#000000;stroke-width:2.0px;stroke-linecap:butt;stroke-linejoin:miter;stroke-opacity:1"/>
<path class="bond-24 atom-12 atom-34" d="M 542.9,119.3 L 557.7,126.0" style="fill:none;fill-rule:evenodd;stroke:#000000;stroke-width:2.0px;stroke-linecap:butt;stroke-linejoin:miter;stroke-opacity:1"/>
<path class="bond-25 atom-13 atom-14" d="M 540.9,98.4 L 521.8,89.7" style="fill:none;fill-rule:evenodd;stroke:#000000;stroke-width:2.0px;stroke-linecap:butt;stroke-linejoin:miter;stroke-opacity:1"/>
<path class="bond-26 atom-13 atom-36" d="M 540.9,98.4 L 553.7,89.2" style="fill:none;fill-rule:evenodd;stroke:#000000;stroke-width:2.0px;stroke-linecap:butt;stroke-linejoin:miter;stroke-opacity:1"/>
<path class="bond-27 atom-14 atom-35" d="M 521.8,89.7 L 520.2,74.1" style="fill:none;fill-rule:evenodd;stroke:#000000;stroke-width:2.0px;stroke-linecap:butt;stroke-linejoin:miter;stroke-opacity:1"/>
<path class="bond-28 atom-14 atom-15" d="M 521.8,89.7 L 504.7,102.0" style="fill:none;fill-rule:evenodd;stroke:#000000;stroke-width:2.0px;stroke-linecap:butt;stroke-linejoin:miter;stroke-opacity:1"/>
<path class="bond-28 atom-14 atom-15" d="M 521.4,94.6 L 509.4,103.2" style="fill:none;fill-rule:evenodd;stroke:#000000;stroke-width:2.0px;stroke-linecap:butt;stroke-linejoin:miter;stroke-opacity:1"/>
<path class="bond-29 atom-15 atom-33" d="M 504.7,102.0 L 489.8,95.2" style="fill:none;fill-rule:evenodd;stroke:#000000;stroke-width:2.0px;stroke-linecap:butt;stroke-linejoin:miter;stroke-opacity:1"/>
<path class="bond-30 atom-16 atom-17" d="M 447.7,134.5 L 459.2,117.3" style="fill:none;fill-rule:evenodd;stroke:#000000;stroke-width:2.0px;stroke-linecap:butt;stroke-linejoin:miter;stroke-opacity:1"/>
<path class="bond-30 atom-16 atom-17" d="M 446.3,129.8 L 454.4,117.7" style="fill:none;fill-rule:evenodd;stroke:#000000;stroke-width:2.0px;stroke-linecap:butt;stroke-linejoin:miter;stroke-opacity:1"/>
<path class="bond-31 atom-16 atom-21" d="M 447.7,134.5 L 426.7,133.1" style="fill:none;fill-rule:evenodd;stroke:#000000;stroke-width:2.0px;stroke-linecap:butt;stroke-linejoin:miter;stroke-opacity:1"/>
<path class="bond-32 atom-17 atom-18" d="M 459.2,117.3 L 450.1,98.5" style="fill:none;fill-rule:evenodd;stroke:#000000;stroke-width:2.0px;stroke-linecap:butt;stroke-linejoin:miter;stroke-opacity:1"/>
<path class="bond-33 atom-17 atom-31" d="M 459.2,117.3 L 476.4,118.9" style="fill:none;fill-rule:evenodd;stroke:#000000;stroke-width:2.0px;stroke-linecap:butt;stroke-linejoin:miter;stroke-opacity:1"/>
<path class="bond-34 atom-18 atom-32" d="M 450.1,98.5 L 458.8,86.8" style="fill:none;fill-rule:evenodd;stroke:#000000;stroke-width:2.0px;stroke-linecap:butt;stroke-linejoin:miter;stroke-opacity:1"/>
<path class="bond-35 atom-18 atom-19" d="M 450.1,98.5 L 429.2,97.0" style="fill:none;fill-rule:evenodd;stroke:#000000;stroke-width:2.0px;stroke-linecap:butt;stroke-linejoin:miter;stroke-opacity:1"/>
<path class="bond-35 atom-18 atom-19" d="M 446.7,102.0 L 432.1,101.0" style="fill:none;fill-rule:evenodd;stroke:#000000;stroke-width:2.0px;stroke-linecap:butt;stroke-linejoin:miter;stroke-opacity:1"/>
<path class="bond-36 atom-19 atom-30" d="M 429.2,97.0 L 423.2,83.5" style="fill:none;fill-rule:evenodd;stroke:#000000;stroke-width:2.0px;stroke-linecap:butt;stroke-linejoin:miter;stroke-opacity:1"/>
<path class="bond-37 atom-19 atom-20" d="M 429.2,97.0 L 417.5,114.4" style="fill:none;fill-rule:evenodd;stroke:#000000;stroke-width:2.0px;stroke-linecap:butt;stroke-linejoin:miter;stroke-opacity:1"/>
<path class="bond-38 atom-20 atom-25" d="M 417.5,114.4 L 400.6,117.2" style="fill:none;fill-rule:evenodd;stroke:#000000;stroke-width:2.0px;stroke-linecap:butt;stroke-linejoin:miter;stroke-opacity:1"/>
<path class="bond-39 atom-20 atom-21" d="M 417.5,114.4 L 426.7,133.1" style="fill:none;fill-rule:evenodd;stroke:#000000;stroke-width:2.0px;stroke-linecap:butt;stroke-linejoin:miter;stroke-opacity:1"/>
<path class="bond-39 atom-20 atom-21" d="M 422.2,115.6 L 428.6,128.6" style="fill:none;fill-rule:evenodd;stroke:#000000;stroke-width:2.0px;stroke-linecap:butt;stroke-linejoin:miter;stroke-opacity:1"/>
<path class="bond-40 atom-21 atom-29" d="M 426.7,133.1 L 417.5,150.3" style="fill:none;fill-rule:evenodd;stroke:#000000;stroke-width:2.0px;stroke-linecap:butt;stroke-linejoin:miter;stroke-opacity:1"/>
<path class="bond-41 atom-22 atom-27" d="M 358.9,117.8 L 369.1,99.7" style="fill:none;fill-rule:evenodd;stroke:#000000;stroke-width:2.0px;stroke-linecap:butt;stroke-linejoin:miter;stroke-opacity:1"/>
<path class="bond-42 atom-22 atom-23" d="M 358.9,117.8 L 342.3,118.0" style="fill:none;fill-rule:evenodd;stroke:#000000;stroke-width:2.0px;stroke-linecap:butt;stroke-linejoin:miter;stroke-opacity:1"/>
<path class="bond-43 atom-24 atom-25" d="M 390.4,135.6 L 400.6,117.2" style="fill:none;fill-rule:evenodd;stroke:#000000;stroke-width:2.0px;stroke-linecap:butt;stroke-linejoin:miter;stroke-opacity:1"/>
<path class="bond-43 atom-24 atom-25" d="M 388.6,131.0 L 395.8,118.1" style="fill:none;fill-rule:evenodd;stroke:#000000;stroke-width:2.0px;stroke-linecap:butt;stroke-linejoin:miter;stroke-opacity:1"/>
<path class="bond-44 atom-24 atom-28" d="M 390.4,135.6 L 396.0,148.1" style="fill:none;fill-rule:evenodd;stroke:#000000;stroke-width:2.0px;stroke-linecap:butt;stroke-linejoin:miter;stroke-opacity:1"/>
<path class="bond-45 atom-25 atom-26" d="M 400.6,117.2 L 396.9,110.9" style="fill:none;fill-rule:evenodd;stroke:#000000;stroke-width:2.0px;stroke-linecap:butt;stroke-linejoin:miter;stroke-opacity:1"/>
<path class="bond-45 atom-25 atom-26" d="M 396.9,110.9 L 393.1,104.5" style="fill:none;fill-rule:evenodd;stroke:#0000FF;stroke-width:2.0px;stroke-linecap:butt;stroke-linejoin:miter;stroke-opacity:1"/>
<path class="bond-46 atom-26 atom-27" d="M 385.9,99.4 L 377.5,99.5" style="fill:none;fill-rule:evenodd;stroke:#0000FF;stroke-width:2.0px;stroke-linecap:butt;stroke-linejoin:miter;stroke-opacity:1"/>
<path class="bond-46 atom-26 atom-27" d="M 377.5,99.5 L 369.1,99.7" style="fill:none;fill-rule:evenodd;stroke:#000000;stroke-width:2.0px;stroke-linecap:butt;stroke-linejoin:miter;stroke-opacity:1"/>
<path class="bond-46 atom-26 atom-27" d="M 383.5,103.2 L 377.6,103.3" style="fill:none;fill-rule:evenodd;stroke:#0000FF;stroke-width:2.0px;stroke-linecap:butt;stroke-linejoin:miter;stroke-opacity:1"/>
<path class="bond-46 atom-26 atom-27" d="M 377.6,103.3 L 371.7,103.4" style="fill:none;fill-rule:evenodd;stroke:#000000;stroke-width:2.0px;stroke-linecap:butt;stroke-linejoin:miter;stroke-opacity:1"/>
<path class="bond-47 atom-27 atom-43" d="M 369.1,99.7 L 361.7,86.9" style="fill:none;fill-rule:evenodd;stroke:#000000;stroke-width:2.0px;stroke-linecap:butt;stroke-linejoin:miter;stroke-opacity:1"/>
<path class="atom-1" d="M 478.1 163.2 L 481.0 167.9 Q 481.3 168.4, 481.7 169.2 Q 482.2 170.0, 482.2 170.1 L 482.2 163.2 L 483.4 163.2 L 483.4 172.1 L 482.2 172.1 L 479.1 166.9 Q 478.7 166.3, 478.3 165.6 Q 477.9 164.9, 477.8 164.7 L 477.8 172.1 L 476.7 172.1 L 476.7 163.2 L 478.1 163.2 " fill="#0000FF"/>
<path class="atom-1" d="M 484.5 164.8 L 486.0 164.8 L 486.0 163.1 L 486.7 163.1 L 486.7 164.8 L 488.3 164.8 L 488.3 165.4 L 486.7 165.4 L 486.7 167.0 L 486.0 167.0 L 486.0 165.4 L 484.5 165.4 L 484.5 164.8 " fill="#0000FF"/>
<path class="atom-2" d="M 430.5 153.6 Q 430.5 151.5, 431.6 150.3 Q 432.6 149.1, 434.6 149.1 Q 436.6 149.1, 437.6 150.3 Q 438.7 151.5, 438.7 153.6 Q 438.7 155.8, 437.6 157.0 Q 436.5 158.2, 434.6 158.2 Q 432.6 158.2, 431.6 157.0 Q 430.5 155.8, 430.5 153.6 M 434.6 157.2 Q 435.9 157.2, 436.7 156.3 Q 437.4 155.4, 437.4 153.6 Q 437.4 151.9, 436.7 151.0 Q 435.9 150.1, 434.6 150.1 Q 433.2 150.1, 432.5 151.0 Q 431.8 151.9, 431.8 153.6 Q 431.8 155.4, 432.5 156.3 Q 433.2 157.2, 434.6 157.2 " fill="#FF0000"/>
<path class="atom-4" d="M 446.4 175.0 L 449.3 179.7 Q 449.6 180.2, 450.1 181.0 Q 450.6 181.9, 450.6 181.9 L 450.6 175.0 L 451.8 175.0 L 451.8 183.9 L 450.5 183.9 L 447.4 178.8 Q 447.1 178.2, 446.7 177.5 Q 446.3 176.8, 446.2 176.6 L 446.2 183.9 L 445.0 183.9 L 445.0 175.0 L 446.4 175.0 " fill="#0000FF"/>
<path class="atom-6" d="M 473.7 200.9 L 476.6 205.6 Q 476.9 206.1, 477.3 206.9 Q 477.8 207.8, 477.8 207.8 L 477.8 200.9 L 479.0 200.9 L 479.0 209.8 L 477.8 209.8 L 474.7 204.6 Q 474.3 204.0, 473.9 203.4 Q 473.5 202.7, 473.4 202.5 L 473.4 209.8 L 472.3 209.8 L 472.3 200.9 L 473.7 200.9 " fill="#0000FF"/>
<path class="atom-9" d="M 355.8 149.7 L 357.0 149.7 L 357.0 153.5 L 361.5 153.5 L 361.5 149.7 L 362.8 149.7 L 362.8 158.6 L 361.5 158.6 L 361.5 154.5 L 357.0 154.5 L 357.0 158.6 L 355.8 158.6 L 355.8 149.7 " fill="#000000"/>
<path class="atom-23" d="M 334.6 113.6 L 335.8 113.6 L 335.8 117.4 L 340.4 117.4 L 340.4 113.6 L 341.6 113.6 L 341.6 122.5 L 340.4 122.5 L 340.4 118.4 L 335.8 118.4 L 335.8 122.5 L 334.6 122.5 L 334.6 113.6 " fill="#000000"/>
<path class="atom-26" d="M 388.0 94.9 L 390.9 99.6 Q 391.2 100.1, 391.7 100.9 Q 392.2 101.8, 392.2 101.8 L 392.2 94.9 L 393.4 94.9 L 393.4 103.8 L 392.1 103.8 L 389.0 98.6 Q 388.7 98.0, 388.3 97.4 Q 387.9 96.7, 387.8 96.4 L 387.8 103.8 L 386.6 103.8 L 386.6 94.9 L 388.0 94.9 " fill="#0000FF"/>
<path class="atom-28" d="M 394.8 148.8 L 396.0 148.8 L 396.0 152.6 L 400.5 152.6 L 400.5 148.8 L 401.7 148.8 L 401.7 157.7 L 400.5 157.7 L 400.5 153.6 L 396.0 153.6 L 396.0 157.7 L 394.8 157.7 L 394.8 148.8 " fill="#000000"/>
<path class="atom-29" d="M 411.3 151.0 L 412.5 151.0 L 412.5 154.8 L 417.0 154.8 L 417.0 151.0 L 418.2 151.0 L 418.2 159.9 L 417.0 159.9 L 417.0 155.8 L 412.5 155.8 L 412.5 159.9 L 411.3 159.9 L 411.3 151.0 " fill="#000000"/>
<path class="atom-30" d="M 417.4 73.9 L 418.6 73.9 L 418.6 77.7 L 423.1 77.7 L 423.1 73.9 L 424.3 73.9 L 424.3 82.8 L 423.1 82.8 L 423.1 78.7 L 418.6 78.7 L 418.6 82.8 L 417.4 82.8 L 417.4 73.9 " fill="#000000"/>
<path class="atom-31" d="M 477.1 114.9 L 478.3 114.9 L 478.3 118.7 L 482.8 118.7 L 482.8 114.9 L 484.0 114.9 L 484.0 123.8 L 482.8 123.8 L 482.8 119.7 L 478.3 119.7 L 478.3 123.8 L 477.1 123.8 L 477.1 114.9 " fill="#000000"/>
<path class="atom-32" d="M 459.1 77.2 L 460.3 77.2 L 460.3 81.0 L 464.8 81.0 L 464.8 77.2 L 466.0 77.2 L 466.0 86.1 L 464.8 86.1 L 464.8 82.0 L 460.3 82.0 L 460.3 86.1 L 459.1 86.1 L 459.1 77.2 " fill="#000000"/>
<path class="atom-33" d="M 482.1 88.9 L 483.4 88.9 L 483.4 92.7 L 487.9 92.7 L 487.9 88.9 L 489.1 88.9 L 489.1 97.8 L 487.9 97.8 L 487.9 93.7 L 483.4 93.7 L 483.4 97.8 L 482.1 97.8 L 482.1 88.9 " fill="#000000"/>
<path class="atom-34" d="M 558.4 123.5 L 559.6 123.5 L 559.6 127.3 L 564.2 127.3 L 564.2 123.5 L 565.4 123.5 L 565.4 132.4 L 564.2 132.4 L 564.2 128.3 L 559.6 128.3 L 559.6 132.4 L 558.4 132.4 L 558.4 123.5 " fill="#000000"/>
<path class="atom-35" d="M 516.2 64.5 L 517.4 64.5 L 517.4 68.3 L 522.0 68.3 L 522.0 64.5 L 523.2 64.5 L 523.2 73.4 L 522.0 73.4 L 522.0 69.3 L 517.4 69.3 L 517.4 73.4 L 516.2 73.4 L 516.2 64.5 " fill="#000000"/>
<path class="atom-36" d="M 554.4 81.8 L 555.6 81.8 L 555.6 85.6 L 560.1 85.6 L 560.1 81.8 L 561.3 81.8 L 561.3 90.7 L 560.1 90.7 L 560.1 86.6 L 555.6 86.6 L 555.6 90.7 L 554.4 90.7 L 554.4 81.8 " fill="#000000"/>
<path class="atom-37" d="M 524.3 147.9 L 525.5 147.9 L 525.5 151.6 L 530.1 151.6 L 530.1 147.9 L 531.3 147.9 L 531.3 156.8 L 530.1 156.8 L 530.1 152.6 L 525.5 152.6 L 525.5 156.8 L 524.3 156.8 L 524.3 147.9 " fill="#000000"/>
<path class="atom-38" d="M 492.7 204.6 L 493.9 204.6 L 493.9 208.4 L 498.4 208.4 L 498.4 204.6 L 499.6 204.6 L 499.6 213.5 L 498.4 213.5 L 498.4 209.4 L 493.9 209.4 L 493.9 213.5 L 492.7 213.5 L 492.7 204.6 " fill="#000000"/>
<path class="atom-39" d="M 458.6 217.3 L 459.8 217.3 L 459.8 221.0 L 464.3 221.0 L 464.3 217.3 L 465.5 217.3 L 465.5 226.1 L 464.3 226.1 L 464.3 222.0 L 459.8 222.0 L 459.8 226.1 L 458.6 226.1 L 458.6 217.3 " fill="#000000"/>
<path class="atom-40" d="M 421.5 210.1 L 422.7 210.1 L 422.7 213.9 L 427.3 213.9 L 427.3 210.1 L 428.5 210.1 L 428.5 219.0 L 427.3 219.0 L 427.3 214.9 L 422.7 214.9 L 422.7 219.0 L 421.5 219.0 L 421.5 210.1 " fill="#000000"/>
<path class="atom-41" d="M 407.7 183.7 L 408.9 183.7 L 408.9 187.5 L 413.4 187.5 L 413.4 183.7 L 414.6 183.7 L 414.6 192.6 L 413.4 192.6 L 413.4 188.5 L 408.9 188.5 L 408.9 192.6 L 407.7 192.6 L 407.7 183.7 " fill="#000000"/>
<path class="atom-42" d="M 441.8 205.5 L 443.0 205.5 L 443.0 209.3 L 447.5 209.3 L 447.5 205.5 L 448.7 205.5 L 448.7 214.4 L 447.5 214.4 L 447.5 210.3 L 443.0 210.3 L 443.0 214.4 L 441.8 214.4 L 441.8 205.5 " fill="#000000"/>
<path class="atom-43" d="M 355.2 77.3 L 356.4 77.3 L 356.4 81.1 L 360.9 81.1 L 360.9 77.3 L 362.1 77.3 L 362.1 86.2 L 360.9 86.2 L 360.9 82.1 L 356.4 82.1 L 356.4 86.2 L 355.2 86.2 L 355.2 77.3 " fill="#000000"/>
<path class="atom-44" d="M 497.3 162.8 L 498.5 162.8 L 498.5 166.6 L 503.1 166.6 L 503.1 162.8 L 504.3 162.8 L 504.3 171.7 L 503.1 171.7 L 503.1 167.6 L 498.5 167.6 L 498.5 171.7 L 497.3 171.7 L 497.3 162.8 " fill="#000000"/>
<text x="300" y="20" font-size="20" font-family="sans-serif" font-weight="normal" letter-spacing="0" text-anchor="middle" fill="black">bace CAT-13n -&gt; CAT-4i </text><text x="150" y="285" font-size="15" font-family="sans-serif" font-weight="normal" letter-spacing="0" text-anchor="middle" fill="black">CAT-13n</text><text x="450" y="285" font-size="15" font-family="sans-serif" font-weight="normal" letter-spacing="0" text-anchor="middle" fill="black">CAT-4i</text></svg>
