<?xml version='1.0' encoding='ASCII' standalone='yes'?>
<svg xmlns="http://www.w3.org/2000/svg" xmlns:rdkit="http://www.rdkit.org/xml" xmlns:xlink="http://www.w3.org/1999/xlink" version="1.1" baseProfile="full" xml:space="preserve" width="600px" height="300px" viewBox="0 0 600 300">
<!-- END OF HEADER -->
<rect style="opacity:1.0;fill:#FFFFFF;stroke:none" width="600.0" height="300.0" x="0.0" y="0.0"> </rect>
<ellipse cx="199.3" cy="238.1" rx="7.0" ry="7.0" class="atom-9" style="fill:#5446F4;fill-rule:evenodd;stroke:#5446F4;stroke-width:1.0px;stroke-linecap:butt;stroke-linejoin:miter;stroke-opacity:1"/>
<ellipse cx="229.3" cy="190.9" rx="7.0" ry="7.0" class="atom-28" style="fill:#588A93;fill-rule:evenodd;stroke:#588A93;stroke-width:1.0px;stroke-linecap:butt;stroke-linejoin:miter;stroke-opacity:1"/>
<ellipse cx="77.2" cy="219.0" rx="7.0" ry="7.0" class="atom-39" style="fill:#DC3369;fill-rule:evenodd;stroke:#DC3369;stroke-width:1.0px;stroke-linecap:butt;stroke-linejoin:miter;stroke-opacity:1"/>
<ellipse cx="60.2" cy="186.5" rx="7.0" ry="7.0" class="atom-40" style="fill:#DC3369;fill-rule:evenodd;stroke:#DC3369;stroke-width:1.0px;stroke-linecap:butt;stroke-linejoin:miter;stroke-opacity:1"/>
<ellipse cx="85.1" cy="151.9" rx="7.0" ry="7.0" class="atom-44" style="fill:#DC3369;fill-rule:evenodd;stroke:#DC3369;stroke-width:1.0px;stroke-linecap:butt;stroke-linejoin:miter;stroke-opacity:1"/>
<path class="bond-0 atom-0 atom-2" d="M 131.5,179.8 L 135.7,181.4" style="fill:none;fill-rule:evenodd;stroke:#000000;stroke-width:2.0px;stroke-linecap:butt;stroke-linejoin:miter;stroke-opacity:1"/>
<path class="bond-0 atom-0 atom-2" d="M 135.7,181.4 L 139.8,183.0" style="fill:none;fill-rule:evenodd;stroke:#FF0000;stroke-width:2.0px;stroke-linecap:butt;stroke-linejoin:miter;stroke-opacity:1"/>
<path class="bond-0 atom-0 atom-2" d="M 130.2,183.4 L 134.3,184.9" style="fill:none;fill-rule:evenodd;stroke:#000000;stroke-width:2.0px;stroke-linecap:butt;stroke-linejoin:miter;stroke-opacity:1"/>
<path class="bond-0 atom-0 atom-2" d="M 134.3,184.9 L 138.5,186.5" style="fill:none;fill-rule:evenodd;stroke:#FF0000;stroke-width:2.0px;stroke-linecap:butt;stroke-linejoin:miter;stroke-opacity:1"/>
<path class="bond-1 atom-0 atom-3" d="M 130.8,181.6 L 121.1,162.7" style="fill:none;fill-rule:evenodd;stroke:#000000;stroke-width:2.0px;stroke-linecap:butt;stroke-linejoin:miter;stroke-opacity:1"/>
<path class="bond-2 atom-0 atom-4" d="M 130.8,181.6 L 125.5,187.0" style="fill:none;fill-rule:evenodd;stroke:#000000;stroke-width:2.0px;stroke-linecap:butt;stroke-linejoin:miter;stroke-opacity:1"/>
<path class="bond-2 atom-0 atom-4" d="M 125.5,187.0 L 120.2,192.4" style="fill:none;fill-rule:evenodd;stroke:#0000FF;stroke-width:2.0px;stroke-linecap:butt;stroke-linejoin:miter;stroke-opacity:1"/>
<path class="bond-3 atom-1 atom-3" d="M 109.4,164.7 L 115.3,163.7" style="fill:none;fill-rule:evenodd;stroke:#0000FF;stroke-width:2.0px;stroke-linecap:butt;stroke-linejoin:miter;stroke-opacity:1"/>
<path class="bond-3 atom-1 atom-3" d="M 115.3,163.7 L 121.1,162.7" style="fill:none;fill-rule:evenodd;stroke:#000000;stroke-width:2.0px;stroke-linecap:butt;stroke-linejoin:miter;stroke-opacity:1"/>
<path class="bond-4 atom-1 atom-5" d="M 99.6,171.4 L 98.4,179.3" style="fill:none;fill-rule:evenodd;stroke:#0000FF;stroke-width:2.0px;stroke-linecap:butt;stroke-linejoin:miter;stroke-opacity:1"/>
<path class="bond-4 atom-1 atom-5" d="M 98.4,179.3 L 97.3,187.2" style="fill:none;fill-rule:evenodd;stroke:#000000;stroke-width:2.0px;stroke-linecap:butt;stroke-linejoin:miter;stroke-opacity:1"/>
<path class="bond-4 atom-1 atom-5" d="M 103.0,174.3 L 102.2,179.8" style="fill:none;fill-rule:evenodd;stroke:#0000FF;stroke-width:2.0px;stroke-linecap:butt;stroke-linejoin:miter;stroke-opacity:1"/>
<path class="bond-4 atom-1 atom-5" d="M 102.2,179.8 L 101.4,185.4" style="fill:none;fill-rule:evenodd;stroke:#000000;stroke-width:2.0px;stroke-linecap:butt;stroke-linejoin:miter;stroke-opacity:1"/>
<path class="bond-5 atom-1 atom-44" d="M 96.2,162.3 L 92.8,159.1" style="fill:none;fill-rule:evenodd;stroke:#0000FF;stroke-width:2.0px;stroke-linecap:butt;stroke-linejoin:miter;stroke-opacity:1"/>
<path class="bond-5 atom-1 atom-44" d="M 92.8,159.1 L 89.3,155.9" style="fill:none;fill-rule:evenodd;stroke:#000000;stroke-width:2.0px;stroke-linecap:butt;stroke-linejoin:miter;stroke-opacity:1"/>
<path class="bond-6 atom-3 atom-16" d="M 126.3,163.3 L 126.3,162.4" style="fill:none;fill-rule:evenodd;stroke:#000000;stroke-width:1.0px;stroke-linecap:butt;stroke-linejoin:miter;stroke-opacity:1"/>
<path class="bond-6 atom-3 atom-16" d="M 131.5,163.8 L 131.6,162.1" style="fill:none;fill-rule:evenodd;stroke:#000000;stroke-width:1.0px;stroke-linecap:butt;stroke-linejoin:miter;stroke-opacity:1"/>
<path class="bond-6 atom-3 atom-16" d="M 136.7,164.4 L 136.8,161.8" style="fill:none;fill-rule:evenodd;stroke:#000000;stroke-width:1.0px;stroke-linecap:butt;stroke-linejoin:miter;stroke-opacity:1"/>
<path class="bond-6 atom-3 atom-16" d="M 141.9,165.0 L 142.0,161.5" style="fill:none;fill-rule:evenodd;stroke:#000000;stroke-width:1.0px;stroke-linecap:butt;stroke-linejoin:miter;stroke-opacity:1"/>
<path class="bond-6 atom-3 atom-16" d="M 147.1,165.5 L 147.2,161.2" style="fill:none;fill-rule:evenodd;stroke:#000000;stroke-width:1.0px;stroke-linecap:butt;stroke-linejoin:miter;stroke-opacity:1"/>
<path class="bond-7 atom-3 atom-10" d="M 121.1,162.7 L 110.8,114.7" style="fill:none;fill-rule:evenodd;stroke:#000000;stroke-width:2.0px;stroke-linecap:butt;stroke-linejoin:miter;stroke-opacity:1"/>
<path class="bond-8 atom-4 atom-7" d="M 116.7,201.8 L 117.8,210.5" style="fill:none;fill-rule:evenodd;stroke:#0000FF;stroke-width:2.0px;stroke-linecap:butt;stroke-linejoin:miter;stroke-opacity:1"/>
<path class="bond-8 atom-4 atom-7" d="M 117.8,210.5 L 118.9,219.2" style="fill:none;fill-rule:evenodd;stroke:#000000;stroke-width:2.0px;stroke-linecap:butt;stroke-linejoin:miter;stroke-opacity:1"/>
<path class="bond-9 atom-4 atom-5" d="M 112.0,194.6 L 104.6,190.9" style="fill:none;fill-rule:evenodd;stroke:#0000FF;stroke-width:2.0px;stroke-linecap:butt;stroke-linejoin:miter;stroke-opacity:1"/>
<path class="bond-9 atom-4 atom-5" d="M 104.6,190.9 L 97.3,187.2" style="fill:none;fill-rule:evenodd;stroke:#000000;stroke-width:2.0px;stroke-linecap:butt;stroke-linejoin:miter;stroke-opacity:1"/>
<path class="bond-10 atom-5 atom-6" d="M 97.3,187.2 L 89.7,191.2" style="fill:none;fill-rule:evenodd;stroke:#000000;stroke-width:2.0px;stroke-linecap:butt;stroke-linejoin:miter;stroke-opacity:1"/>
<path class="bond-10 atom-5 atom-6" d="M 89.7,191.2 L 82.2,195.3" style="fill:none;fill-rule:evenodd;stroke:#0000FF;stroke-width:2.0px;stroke-linecap:butt;stroke-linejoin:miter;stroke-opacity:1"/>
<path class="bond-11 atom-6 atom-39" d="M 77.9,202.7 L 77.7,208.3" style="fill:none;fill-rule:evenodd;stroke:#0000FF;stroke-width:2.0px;stroke-linecap:butt;stroke-linejoin:miter;stroke-opacity:1"/>
<path class="bond-11 atom-6 atom-39" d="M 77.7,208.3 L 77.4,213.8" style="fill:none;fill-rule:evenodd;stroke:#000000;stroke-width:2.0px;stroke-linecap:butt;stroke-linejoin:miter;stroke-opacity:1"/>
<path class="bond-12 atom-6 atom-40" d="M 74.0,195.0 L 69.2,192.0" style="fill:none;fill-rule:evenodd;stroke:#0000FF;stroke-width:2.0px;stroke-linecap:butt;stroke-linejoin:miter;stroke-opacity:1"/>
<path class="bond-12 atom-6 atom-40" d="M 69.2,192.0 L 64.4,189.1" style="fill:none;fill-rule:evenodd;stroke:#000000;stroke-width:2.0px;stroke-linecap:butt;stroke-linejoin:miter;stroke-opacity:1"/>
<path class="bond-13 atom-7 atom-43" d="M 118.9,219.2 L 102.0,221.1" style="fill:none;fill-rule:evenodd;stroke:#000000;stroke-width:2.0px;stroke-linecap:butt;stroke-linejoin:miter;stroke-opacity:1"/>
<path class="bond-14 atom-7 atom-41" d="M 118.9,219.2 L 112.3,233.6" style="fill:none;fill-rule:evenodd;stroke:#000000;stroke-width:2.0px;stroke-linecap:butt;stroke-linejoin:miter;stroke-opacity:1"/>
<path class="bond-15 atom-7 atom-42" d="M 118.9,219.2 L 133.9,226.4" style="fill:none;fill-rule:evenodd;stroke:#000000;stroke-width:2.0px;stroke-linecap:butt;stroke-linejoin:miter;stroke-opacity:1"/>
<path class="bond-16 atom-8 atom-22" d="M 204.1,217.5 L 224.3,211.4" style="fill:none;fill-rule:evenodd;stroke:#000000;stroke-width:2.0px;stroke-linecap:butt;stroke-linejoin:miter;stroke-opacity:1"/>
<path class="bond-16 atom-8 atom-22" d="M 206.0,212.9 L 220.2,208.7" style="fill:none;fill-rule:evenodd;stroke:#000000;stroke-width:2.0px;stroke-linecap:butt;stroke-linejoin:miter;stroke-opacity:1"/>
<path class="bond-17 atom-8 atom-24" d="M 204.1,217.5 L 188.8,202.9" style="fill:none;fill-rule:evenodd;stroke:#000000;stroke-width:2.0px;stroke-linecap:butt;stroke-linejoin:miter;stroke-opacity:1"/>
<path class="bond-18 atom-8 atom-9" d="M 204.1,217.5 L 202.3,225.2" style="fill:none;fill-rule:evenodd;stroke:#000000;stroke-width:2.0px;stroke-linecap:butt;stroke-linejoin:miter;stroke-opacity:1"/>
<path class="bond-18 atom-8 atom-9" d="M 202.3,225.2 L 200.5,232.8" style="fill:none;fill-rule:evenodd;stroke:#33CCCC;stroke-width:2.0px;stroke-linecap:butt;stroke-linejoin:miter;stroke-opacity:1"/>
<path class="bond-19 atom-10 atom-15" d="M 110.8,114.7 L 90.6,108.3" style="fill:none;fill-rule:evenodd;stroke:#000000;stroke-width:2.0px;stroke-linecap:butt;stroke-linejoin:miter;stroke-opacity:1"/>
<path class="bond-20 atom-10 atom-11" d="M 110.8,114.7 L 126.3,100.3" style="fill:none;fill-rule:evenodd;stroke:#000000;stroke-width:2.0px;stroke-linecap:butt;stroke-linejoin:miter;stroke-opacity:1"/>
<path class="bond-20 atom-10 atom-11" d="M 110.5,109.8 L 121.4,99.7" style="fill:none;fill-rule:evenodd;stroke:#000000;stroke-width:2.0px;stroke-linecap:butt;stroke-linejoin:miter;stroke-opacity:1"/>
<path class="bond-21 atom-11 atom-12" d="M 126.3,100.3 L 121.8,79.5" style="fill:none;fill-rule:evenodd;stroke:#000000;stroke-width:2.0px;stroke-linecap:butt;stroke-linejoin:miter;stroke-opacity:1"/>
<path class="bond-22 atom-11 atom-38" d="M 126.3,100.3 L 142.3,105.4" style="fill:none;fill-rule:evenodd;stroke:#000000;stroke-width:2.0px;stroke-linecap:butt;stroke-linejoin:miter;stroke-opacity:1"/>
<path class="bond-23 atom-12 atom-13" d="M 121.8,79.5 L 101.6,73.2" style="fill:none;fill-rule:evenodd;stroke:#000000;stroke-width:2.0px;stroke-linecap:butt;stroke-linejoin:miter;stroke-opacity:1"/>
<path class="bond-23 atom-12 atom-13" d="M 117.6,82.2 L 103.5,77.8" style="fill:none;fill-rule:evenodd;stroke:#000000;stroke-width:2.0px;stroke-linecap:butt;stroke-linejoin:miter;stroke-opacity:1"/>
<path class="bond-24 atom-12 atom-35" d="M 121.8,79.5 L 133.2,69.2" style="fill:none;fill-rule:evenodd;stroke:#000000;stroke-width:2.0px;stroke-linecap:butt;stroke-linejoin:miter;stroke-opacity:1"/>
<path class="bond-25 atom-13 atom-14" d="M 101.6,73.2 L 85.9,87.5" style="fill:none;fill-rule:evenodd;stroke:#000000;stroke-width:2.0px;stroke-linecap:butt;stroke-linejoin:miter;stroke-opacity:1"/>
<path class="bond-26 atom-13 atom-37" d="M 101.6,73.2 L 98.2,57.7" style="fill:none;fill-rule:evenodd;stroke:#000000;stroke-width:2.0px;stroke-linecap:butt;stroke-linejoin:miter;stroke-opacity:1"/>
<path class="bond-27 atom-14 atom-36" d="M 85.9,87.5 L 70.0,82.4" style="fill:none;fill-rule:evenodd;stroke:#000000;stroke-width:2.0px;stroke-linecap:butt;stroke-linejoin:miter;stroke-opacity:1"/>
<path class="bond-28 atom-14 atom-15" d="M 85.9,87.5 L 90.6,108.3" style="fill:none;fill-rule:evenodd;stroke:#000000;stroke-width:2.0px;stroke-linecap:butt;stroke-linejoin:miter;stroke-opacity:1"/>
<path class="bond-28 atom-14 atom-15" d="M 90.3,89.8 L 93.6,104.3" style="fill:none;fill-rule:evenodd;stroke:#000000;stroke-width:2.0px;stroke-linecap:butt;stroke-linejoin:miter;stroke-opacity:1"/>
<path class="bond-29 atom-15 atom-34" d="M 90.6,108.3 L 79.1,118.6" style="fill:none;fill-rule:evenodd;stroke:#000000;stroke-width:2.0px;stroke-linecap:butt;stroke-linejoin:miter;stroke-opacity:1"/>
<path class="bond-30 atom-16 atom-17" d="M 147.2,163.3 L 150.1,142.6" style="fill:none;fill-rule:evenodd;stroke:#000000;stroke-width:2.0px;stroke-linecap:butt;stroke-linejoin:miter;stroke-opacity:1"/>
<path class="bond-30 atom-16 atom-17" d="M 151.4,160.8 L 153.4,146.2" style="fill:none;fill-rule:evenodd;stroke:#000000;stroke-width:2.0px;stroke-linecap:butt;stroke-linejoin:miter;stroke-opacity:1"/>
<path class="bond-31 atom-16 atom-21" d="M 147.2,163.3 L 163.8,176.6" style="fill:none;fill-rule:evenodd;stroke:#000000;stroke-width:2.0px;stroke-linecap:butt;stroke-linejoin:miter;stroke-opacity:1"/>
<path class="bond-32 atom-17 atom-18" d="M 150.1,142.6 L 169.7,134.7" style="fill:none;fill-rule:evenodd;stroke:#000000;stroke-width:2.0px;stroke-linecap:butt;stroke-linejoin:miter;stroke-opacity:1"/>
<path class="bond-33 atom-17 atom-32" d="M 150.1,142.6 L 137.0,132.8" style="fill:none;fill-rule:evenodd;stroke:#000000;stroke-width:2.0px;stroke-linecap:butt;stroke-linejoin:miter;stroke-opacity:1"/>
<path class="bond-34 atom-18 atom-33" d="M 169.7,134.7 L 171.3,118.8" style="fill:none;fill-rule:evenodd;stroke:#000000;stroke-width:2.0px;stroke-linecap:butt;stroke-linejoin:miter;stroke-opacity:1"/>
<path class="bond-35 atom-18 atom-19" d="M 169.7,134.7 L 186.4,147.7" style="fill:none;fill-rule:evenodd;stroke:#000000;stroke-width:2.0px;stroke-linecap:butt;stroke-linejoin:miter;stroke-opacity:1"/>
<path class="bond-35 atom-18 atom-19" d="M 169.8,139.7 L 181.5,148.8" style="fill:none;fill-rule:evenodd;stroke:#000000;stroke-width:2.0px;stroke-linecap:butt;stroke-linejoin:miter;stroke-opacity:1"/>
<path class="bond-36 atom-19 atom-31" d="M 186.4,147.7 L 201.1,141.3" style="fill:none;fill-rule:evenodd;stroke:#000000;stroke-width:2.0px;stroke-linecap:butt;stroke-linejoin:miter;stroke-opacity:1"/>
<path class="bond-37 atom-19 atom-20" d="M 186.4,147.7 L 183.4,168.7" style="fill:none;fill-rule:evenodd;stroke:#000000;stroke-width:2.0px;stroke-linecap:butt;stroke-linejoin:miter;stroke-opacity:1"/>
<path class="bond-38 atom-20 atom-25" d="M 183.4,168.7 L 193.8,182.2" style="fill:none;fill-rule:evenodd;stroke:#000000;stroke-width:2.0px;stroke-linecap:butt;stroke-linejoin:miter;stroke-opacity:1"/>
<path class="bond-39 atom-20 atom-21" d="M 183.4,168.7 L 163.8,176.6" style="fill:none;fill-rule:evenodd;stroke:#000000;stroke-width:2.0px;stroke-linecap:butt;stroke-linejoin:miter;stroke-opacity:1"/>
<path class="bond-39 atom-20 atom-21" d="M 179.0,166.4 L 165.4,171.9" style="fill:none;fill-rule:evenodd;stroke:#000000;stroke-width:2.0px;stroke-linecap:butt;stroke-linejoin:miter;stroke-opacity:1"/>
<path class="bond-40 atom-21 atom-30" d="M 163.8,176.6 L 158.9,196.2" style="fill:none;fill-rule:evenodd;stroke:#000000;stroke-width:2.0px;stroke-linecap:butt;stroke-linejoin:miter;stroke-opacity:1"/>
<path class="bond-41 atom-22 atom-28" d="M 224.3,211.4 L 226.2,203.8" style="fill:none;fill-rule:evenodd;stroke:#000000;stroke-width:2.0px;stroke-linecap:butt;stroke-linejoin:miter;stroke-opacity:1"/>
<path class="bond-41 atom-22 atom-28" d="M 226.2,203.8 L 228.1,196.1" style="fill:none;fill-rule:evenodd;stroke:#0000FF;stroke-width:2.0px;stroke-linecap:butt;stroke-linejoin:miter;stroke-opacity:1"/>
<path class="bond-42 atom-22 atom-23" d="M 224.3,211.4 L 235.6,221.9" style="fill:none;fill-rule:evenodd;stroke:#000000;stroke-width:2.0px;stroke-linecap:butt;stroke-linejoin:miter;stroke-opacity:1"/>
<path class="bond-43 atom-24 atom-25" d="M 188.8,202.9 L 193.8,182.2" style="fill:none;fill-rule:evenodd;stroke:#000000;stroke-width:2.0px;stroke-linecap:butt;stroke-linejoin:miter;stroke-opacity:1"/>
<path class="bond-43 atom-24 atom-25" d="M 193.2,200.7 L 196.7,186.2" style="fill:none;fill-rule:evenodd;stroke:#000000;stroke-width:2.0px;stroke-linecap:butt;stroke-linejoin:miter;stroke-opacity:1"/>
<path class="bond-44 atom-24 atom-29" d="M 188.8,202.9 L 175.8,209.0" style="fill:none;fill-rule:evenodd;stroke:#000000;stroke-width:2.0px;stroke-linecap:butt;stroke-linejoin:miter;stroke-opacity:1"/>
<path class="bond-45 atom-25 atom-26" d="M 193.8,182.2 L 214.0,176.4" style="fill:none;fill-rule:evenodd;stroke:#000000;stroke-width:2.0px;stroke-linecap:butt;stroke-linejoin:miter;stroke-opacity:1"/>
<path class="bond-46 atom-26 atom-27" d="M 214.0,176.4 L 217.6,161.0" style="fill:none;fill-rule:evenodd;stroke:#000000;stroke-width:2.0px;stroke-linecap:butt;stroke-linejoin:miter;stroke-opacity:1"/>
<path class="bond-47 atom-26 atom-28" d="M 214.0,176.4 L 219.6,181.7" style="fill:none;fill-rule:evenodd;stroke:#000000;stroke-width:2.0px;stroke-linecap:butt;stroke-linejoin:miter;stroke-opacity:1"/>
<path class="bond-47 atom-26 atom-28" d="M 219.6,181.7 L 225.2,187.0" style="fill:none;fill-rule:evenodd;stroke:#0000FF;stroke-width:2.0px;stroke-linecap:butt;stroke-linejoin:miter;stroke-opacity:1"/>
<path class="bond-47 atom-26 atom-28" d="M 213.1,180.7 L 217.0,184.4" style="fill:none;fill-rule:evenodd;stroke:#000000;stroke-width:2.0px;stroke-linecap:butt;stroke-linejoin:miter;stroke-opacity:1"/>
<path class="bond-47 atom-26 atom-28" d="M 217.0,184.4 L 220.9,188.2" style="fill:none;fill-rule:evenodd;stroke:#0000FF;stroke-width:2.0px;stroke-linecap:butt;stroke-linejoin:miter;stroke-opacity:1"/>
<path class="atom-1" d="M 98.4 161.7 L 101.3 166.5 Q 101.6 166.9, 102.1 167.8 Q 102.5 168.7, 102.6 168.7 L 102.6 161.7 L 103.8 161.7 L 103.8 170.7 L 102.5 170.7 L 99.4 165.5 Q 99.0 164.9, 98.6 164.2 Q 98.2 163.5, 98.1 163.3 L 98.1 170.7 L 96.9 170.7 L 96.9 161.7 L 98.4 161.7 " fill="#0000FF"/>
<path class="atom-1" d="M 104.8 163.3 L 106.4 163.3 L 106.4 161.7 L 107.1 161.7 L 107.1 163.3 L 108.7 163.3 L 108.7 163.9 L 107.1 163.9 L 107.1 165.6 L 106.4 165.6 L 106.4 163.9 L 104.8 163.9 L 104.8 163.3 " fill="#0000FF"/>
<path class="atom-2" d="M 139.8 186.6 Q 139.8 184.5, 140.9 183.3 Q 142.0 182.1, 144.0 182.1 Q 146.0 182.1, 147.0 183.3 Q 148.1 184.5, 148.1 186.6 Q 148.1 188.8, 147.0 190.1 Q 145.9 191.3, 144.0 191.3 Q 142.0 191.3, 140.9 190.1 Q 139.8 188.8, 139.8 186.6 M 144.0 190.3 Q 145.3 190.3, 146.1 189.4 Q 146.8 188.4, 146.8 186.6 Q 146.8 184.9, 146.1 184.0 Q 145.3 183.1, 144.0 183.1 Q 142.6 183.1, 141.9 184.0 Q 141.1 184.9, 141.1 186.6 Q 141.1 188.4, 141.9 189.4 Q 142.6 190.3, 144.0 190.3 " fill="#FF0000"/>
<path class="atom-4" d="M 114.1 192.1 L 117.1 196.9 Q 117.3 197.4, 117.8 198.2 Q 118.3 199.1, 118.3 199.1 L 118.3 192.1 L 119.5 192.1 L 119.5 201.1 L 118.3 201.1 L 115.1 195.9 Q 114.7 195.3, 114.4 194.6 Q 114.0 193.9, 113.9 193.7 L 113.9 201.1 L 112.7 201.1 L 112.7 192.1 L 114.1 192.1 " fill="#0000FF"/>
<path class="atom-6" d="M 76.1 193.0 L 79.1 197.8 Q 79.3 198.3, 79.8 199.1 Q 80.3 200.0, 80.3 200.0 L 80.3 193.0 L 81.5 193.0 L 81.5 202.0 L 80.3 202.0 L 77.1 196.8 Q 76.7 196.2, 76.3 195.5 Q 76.0 194.8, 75.9 194.6 L 75.9 202.0 L 74.7 202.0 L 74.7 193.0 L 76.1 193.0 " fill="#0000FF"/>
<path class="atom-9" d="M 196.6 233.6 L 202.0 233.6 L 202.0 234.6 L 197.8 234.6 L 197.8 237.3 L 201.5 237.3 L 201.5 238.4 L 197.8 238.4 L 197.8 242.5 L 196.6 242.5 L 196.6 233.6 " fill="#33CCCC"/>
<path class="atom-23" d="M 236.3 221.4 L 237.5 221.4 L 237.5 225.2 L 242.1 225.2 L 242.1 221.4 L 243.3 221.4 L 243.3 230.4 L 242.1 230.4 L 242.1 226.2 L 237.5 226.2 L 237.5 230.4 L 236.3 230.4 L 236.3 221.4 " fill="#000000"/>
<path class="atom-27" d="M 215.3 151.3 L 216.6 151.3 L 216.6 155.1 L 221.2 155.1 L 221.2 151.3 L 222.4 151.3 L 222.4 160.2 L 221.2 160.2 L 221.2 156.1 L 216.6 156.1 L 216.6 160.2 L 215.3 160.2 L 215.3 151.3 " fill="#000000"/>
<path class="atom-28" d="M 227.4 186.4 L 230.3 191.2 Q 230.6 191.6, 231.1 192.5 Q 231.5 193.3, 231.6 193.4 L 231.6 186.4 L 232.7 186.4 L 232.7 195.4 L 231.5 195.4 L 228.4 190.2 Q 228.0 189.6, 227.6 188.9 Q 227.2 188.2, 227.1 188.0 L 227.1 195.4 L 225.9 195.4 L 225.9 186.4 L 227.4 186.4 " fill="#0000FF"/>
<path class="atom-29" d="M 168.0 206.4 L 169.2 206.4 L 169.2 210.3 L 173.8 210.3 L 173.8 206.4 L 175.0 206.4 L 175.0 215.4 L 173.8 215.4 L 173.8 211.3 L 169.2 211.3 L 169.2 215.4 L 168.0 215.4 L 168.0 206.4 " fill="#000000"/>
<path class="atom-30" d="M 154.1 196.9 L 155.3 196.9 L 155.3 200.7 L 159.9 200.7 L 159.9 196.9 L 161.1 196.9 L 161.1 205.9 L 159.9 205.9 L 159.9 201.7 L 155.3 201.7 L 155.3 205.9 L 154.1 205.9 L 154.1 196.9 " fill="#000000"/>
<path class="atom-31" d="M 201.8 134.9 L 203.0 134.9 L 203.0 138.7 L 207.6 138.7 L 207.6 134.9 L 208.8 134.9 L 208.8 143.9 L 207.6 143.9 L 207.6 139.8 L 203.0 139.8 L 203.0 143.9 L 201.8 143.9 L 201.8 134.9 " fill="#000000"/>
<path class="atom-32" d="M 129.2 125.2 L 130.4 125.2 L 130.4 129.0 L 135.0 129.0 L 135.0 125.2 L 136.3 125.2 L 136.3 134.2 L 135.0 134.2 L 135.0 130.0 L 130.4 130.0 L 130.4 134.2 L 129.2 134.2 L 129.2 125.2 " fill="#000000"/>
<path class="atom-33" d="M 168.3 109.1 L 169.5 109.1 L 169.5 112.9 L 174.1 112.9 L 174.1 109.1 L 175.3 109.1 L 175.3 118.1 L 174.1 118.1 L 174.1 113.9 L 169.5 113.9 L 169.5 118.1 L 168.3 118.1 L 168.3 109.1 " fill="#000000"/>
<path class="atom-34" d="M 71.4 118.0 L 72.6 118.0 L 72.6 121.8 L 77.2 121.8 L 77.2 118.0 L 78.4 118.0 L 78.4 127.0 L 77.2 127.0 L 77.2 122.8 L 72.6 122.8 L 72.6 127.0 L 71.4 127.0 L 71.4 118.0 " fill="#000000"/>
<path class="atom-35" d="M 133.9 60.9 L 135.1 60.9 L 135.1 64.7 L 139.7 64.7 L 139.7 60.9 L 141.0 60.9 L 141.0 69.8 L 139.7 69.8 L 139.7 65.7 L 135.1 65.7 L 135.1 69.8 L 133.9 69.8 L 133.9 60.9 " fill="#000000"/>
<path class="atom-36" d="M 62.3 76.6 L 63.5 76.6 L 63.5 80.4 L 68.1 80.4 L 68.1 76.6 L 69.3 76.6 L 69.3 85.5 L 68.1 85.5 L 68.1 81.4 L 63.5 81.4 L 63.5 85.5 L 62.3 85.5 L 62.3 76.6 " fill="#000000"/>
<path class="atom-37" d="M 93.6 48.0 L 94.8 48.0 L 94.8 51.8 L 99.4 51.8 L 99.4 48.0 L 100.6 48.0 L 100.6 57.0 L 99.4 57.0 L 99.4 52.8 L 94.8 52.8 L 94.8 57.0 L 93.6 57.0 L 93.6 48.0 " fill="#000000"/>
<path class="atom-38" d="M 143.0 102.3 L 144.2 102.3 L 144.2 106.1 L 148.8 106.1 L 148.8 102.3 L 150.0 102.3 L 150.0 111.2 L 148.8 111.2 L 148.8 107.1 L 144.2 107.1 L 144.2 111.2 L 143.0 111.2 L 143.0 102.3 " fill="#000000"/>
<path class="atom-39" d="M 73.7 214.5 L 74.9 214.5 L 74.9 218.3 L 79.5 218.3 L 79.5 214.5 L 80.7 214.5 L 80.7 223.5 L 79.5 223.5 L 79.5 219.4 L 74.9 219.4 L 74.9 223.5 L 73.7 223.5 L 73.7 214.5 " fill="#000000"/>
<path class="atom-40" d="M 56.7 182.0 L 57.9 182.0 L 57.9 185.8 L 62.5 185.8 L 62.5 182.0 L 63.7 182.0 L 63.7 191.0 L 62.5 191.0 L 62.5 186.8 L 57.9 186.8 L 57.9 191.0 L 56.7 191.0 L 56.7 182.0 " fill="#000000"/>
<path class="atom-41" d="M 106.4 234.3 L 107.6 234.3 L 107.6 238.1 L 112.2 238.1 L 112.2 234.3 L 113.4 234.3 L 113.4 243.3 L 112.2 243.3 L 112.2 239.2 L 107.6 239.2 L 107.6 243.3 L 106.4 243.3 L 106.4 234.3 " fill="#000000"/>
<path class="atom-42" d="M 134.6 223.9 L 135.8 223.9 L 135.8 227.7 L 140.4 227.7 L 140.4 223.9 L 141.6 223.9 L 141.6 232.9 L 140.4 232.9 L 140.4 228.7 L 135.8 228.7 L 135.8 232.9 L 134.6 232.9 L 134.6 223.9 " fill="#000000"/>
<path class="atom-43" d="M 94.3 217.1 L 95.5 217.1 L 95.5 220.9 L 100.1 220.9 L 100.1 217.1 L 101.3 217.1 L 101.3 226.1 L 100.1 226.1 L 100.1 222.0 L 95.5 222.0 L 95.5 226.1 L 94.3 226.1 L 94.3 217.1 " fill="#000000"/>
<path class="atom-44" d="M 81.6 147.4 L 82.8 147.4 L 82.8 151.2 L 87.4 151.2 L 87.4 147.4 L 88.6 147.4 L 88.6 156.4 L 87.4 156.4 L 87.4 152.2 L 82.8 152.2 L 82.8 156.4 L 81.6 156.4 L 81.6 147.4 " fill="#000000"/>
<ellipse cx="489.5" cy="224.8" rx="7.0" ry="7.0" class="atom-9" style="fill:#5446F4;fill-rule:evenodd;stroke:#5446F4;stroke-width:1.0px;stroke-linecap:butt;stroke-linejoin:miter;stroke-opacity:1"/>
<ellipse cx="469.7" cy="231.3" rx="7.0" ry="7.0" class="atom-10" style="fill:#DC3369;fill-rule:evenodd;stroke:#DC3369;stroke-width:1.0px;stroke-linecap:butt;stroke-linejoin:miter;stroke-opacity:1"/>
<ellipse cx="453.9" cy="217.3" rx="7.0" ry="7.0" class="atom-11" style="fill:#DC3369;fill-rule:evenodd;stroke:#DC3369;stroke-width:1.0px;stroke-linecap:butt;stroke-linejoin:miter;stroke-opacity:1"/>
<ellipse cx="455.6" cy="247.1" rx="7.0" ry="7.0" class="atom-12" style="fill:#DC3369;fill-rule:evenodd;stroke:#DC3369;stroke-width:1.0px;stroke-linecap:butt;stroke-linejoin:miter;stroke-opacity:1"/>
<ellipse cx="476.4" cy="251.4" rx="7.0" ry="7.0" class="atom-13" style="fill:#DC3369;fill-rule:evenodd;stroke:#DC3369;stroke-width:1.0px;stroke-linecap:butt;stroke-linejoin:miter;stroke-opacity:1"/>
<ellipse cx="519.2" cy="177.5" rx="7.0" ry="7.0" class="atom-32" style="fill:#588A93;fill-rule:evenodd;stroke:#588A93;stroke-width:1.0px;stroke-linecap:butt;stroke-linejoin:miter;stroke-opacity:1"/>
<ellipse cx="539.4" cy="171.4" rx="7.0" ry="7.0" class="atom-33" style="fill:#DC3369;fill-rule:evenodd;stroke:#DC3369;stroke-width:1.0px;stroke-linecap:butt;stroke-linejoin:miter;stroke-opacity:1"/>
<ellipse cx="367.1" cy="205.8" rx="7.0" ry="7.0" class="atom-44" style="fill:#DC3369;fill-rule:evenodd;stroke:#DC3369;stroke-width:1.0px;stroke-linecap:butt;stroke-linejoin:miter;stroke-opacity:1"/>
<ellipse cx="350.2" cy="173.2" rx="7.0" ry="7.0" class="atom-45" style="fill:#DC3369;fill-rule:evenodd;stroke:#DC3369;stroke-width:1.0px;stroke-linecap:butt;stroke-linejoin:miter;stroke-opacity:1"/>
<ellipse cx="374.9" cy="138.8" rx="7.0" ry="7.0" class="atom-49" style="fill:#DC3369;fill-rule:evenodd;stroke:#DC3369;stroke-width:1.0px;stroke-linecap:butt;stroke-linejoin:miter;stroke-opacity:1"/>
<path class="bond-0 atom-0 atom-2" d="M 421.6,166.6 L 425.6,168.1" style="fill:none;fill-rule:evenodd;stroke:#000000;stroke-width:2.0px;stroke-linecap:butt;stroke-linejoin:miter;stroke-opacity:1"/>
<path class="bond-0 atom-0 atom-2" d="M 425.6,168.1 L 429.7,169.6" style="fill:none;fill-rule:evenodd;stroke:#FF0000;stroke-width:2.0px;stroke-linecap:butt;stroke-linejoin:miter;stroke-opacity:1"/>
<path class="bond-0 atom-0 atom-2" d="M 420.2,170.1 L 424.3,171.7" style="fill:none;fill-rule:evenodd;stroke:#000000;stroke-width:2.0px;stroke-linecap:butt;stroke-linejoin:miter;stroke-opacity:1"/>
<path class="bond-0 atom-0 atom-2" d="M 424.3,171.7 L 428.3,173.2" style="fill:none;fill-rule:evenodd;stroke:#FF0000;stroke-width:2.0px;stroke-linecap:butt;stroke-linejoin:miter;stroke-opacity:1"/>
<path class="bond-1 atom-0 atom-3" d="M 420.9,168.4 L 411.0,149.5" style="fill:none;fill-rule:evenodd;stroke:#000000;stroke-width:2.0px;stroke-linecap:butt;stroke-linejoin:miter;stroke-opacity:1"/>
<path class="bond-2 atom-0 atom-4" d="M 420.9,168.4 L 415.6,173.8" style="fill:none;fill-rule:evenodd;stroke:#000000;stroke-width:2.0px;stroke-linecap:butt;stroke-linejoin:miter;stroke-opacity:1"/>
<path class="bond-2 atom-0 atom-4" d="M 415.6,173.8 L 410.2,179.2" style="fill:none;fill-rule:evenodd;stroke:#0000FF;stroke-width:2.0px;stroke-linecap:butt;stroke-linejoin:miter;stroke-opacity:1"/>
<path class="bond-3 atom-1 atom-3" d="M 399.3,151.6 L 405.1,150.5" style="fill:none;fill-rule:evenodd;stroke:#0000FF;stroke-width:2.0px;stroke-linecap:butt;stroke-linejoin:miter;stroke-opacity:1"/>
<path class="bond-3 atom-1 atom-3" d="M 405.1,150.5 L 411.0,149.5" style="fill:none;fill-rule:evenodd;stroke:#000000;stroke-width:2.0px;stroke-linecap:butt;stroke-linejoin:miter;stroke-opacity:1"/>
<path class="bond-4 atom-1 atom-5" d="M 389.4,158.3 L 388.3,166.2" style="fill:none;fill-rule:evenodd;stroke:#0000FF;stroke-width:2.0px;stroke-linecap:butt;stroke-linejoin:miter;stroke-opacity:1"/>
<path class="bond-4 atom-1 atom-5" d="M 388.3,166.2 L 387.2,174.1" style="fill:none;fill-rule:evenodd;stroke:#000000;stroke-width:2.0px;stroke-linecap:butt;stroke-linejoin:miter;stroke-opacity:1"/>
<path class="bond-4 atom-1 atom-5" d="M 392.9,161.2 L 392.1,166.8" style="fill:none;fill-rule:evenodd;stroke:#0000FF;stroke-width:2.0px;stroke-linecap:butt;stroke-linejoin:miter;stroke-opacity:1"/>
<path class="bond-4 atom-1 atom-5" d="M 392.1,166.8 L 391.3,172.3" style="fill:none;fill-rule:evenodd;stroke:#000000;stroke-width:2.0px;stroke-linecap:butt;stroke-linejoin:miter;stroke-opacity:1"/>
<path class="bond-5 atom-1 atom-49" d="M 386.1,149.2 L 382.6,146.0" style="fill:none;fill-rule:evenodd;stroke:#0000FF;stroke-width:2.0px;stroke-linecap:butt;stroke-linejoin:miter;stroke-opacity:1"/>
<path class="bond-5 atom-1 atom-49" d="M 382.6,146.0 L 379.1,142.8" style="fill:none;fill-rule:evenodd;stroke:#000000;stroke-width:2.0px;stroke-linecap:butt;stroke-linejoin:miter;stroke-opacity:1"/>
<path class="bond-6 atom-3 atom-20" d="M 416.2,150.1 L 416.2,149.2" style="fill:none;fill-rule:evenodd;stroke:#000000;stroke-width:1.0px;stroke-linecap:butt;stroke-linejoin:miter;stroke-opacity:1"/>
<path class="bond-6 atom-3 atom-20" d="M 421.4,150.6 L 421.4,148.9" style="fill:none;fill-rule:evenodd;stroke:#000000;stroke-width:1.0px;stroke-linecap:butt;stroke-linejoin:miter;stroke-opacity:1"/>
<path class="bond-6 atom-3 atom-20" d="M 426.6,151.1 L 426.6,148.5" style="fill:none;fill-rule:evenodd;stroke:#000000;stroke-width:1.0px;stroke-linecap:butt;stroke-linejoin:miter;stroke-opacity:1"/>
<path class="bond-6 atom-3 atom-20" d="M 431.8,151.7 L 431.8,148.2" style="fill:none;fill-rule:evenodd;stroke:#000000;stroke-width:1.0px;stroke-linecap:butt;stroke-linejoin:miter;stroke-opacity:1"/>
<path class="bond-6 atom-3 atom-20" d="M 436.9,152.2 L 437.0,147.9" style="fill:none;fill-rule:evenodd;stroke:#000000;stroke-width:1.0px;stroke-linecap:butt;stroke-linejoin:miter;stroke-opacity:1"/>
<path class="bond-7 atom-3 atom-14" d="M 411.0,149.5 L 400.6,101.3" style="fill:none;fill-rule:evenodd;stroke:#000000;stroke-width:2.0px;stroke-linecap:butt;stroke-linejoin:miter;stroke-opacity:1"/>
<path class="bond-8 atom-4 atom-7" d="M 406.8,188.6 L 407.8,197.3" style="fill:none;fill-rule:evenodd;stroke:#0000FF;stroke-width:2.0px;stroke-linecap:butt;stroke-linejoin:miter;stroke-opacity:1"/>
<path class="bond-8 atom-4 atom-7" d="M 407.8,197.3 L 408.9,205.9" style="fill:none;fill-rule:evenodd;stroke:#000000;stroke-width:2.0px;stroke-linecap:butt;stroke-linejoin:miter;stroke-opacity:1"/>
<path class="bond-9 atom-4 atom-5" d="M 402.0,181.4 L 394.6,177.8" style="fill:none;fill-rule:evenodd;stroke:#0000FF;stroke-width:2.0px;stroke-linecap:butt;stroke-linejoin:miter;stroke-opacity:1"/>
<path class="bond-9 atom-4 atom-5" d="M 394.6,177.8 L 387.2,174.1" style="fill:none;fill-rule:evenodd;stroke:#000000;stroke-width:2.0px;stroke-linecap:butt;stroke-linejoin:miter;stroke-opacity:1"/>
<path class="bond-10 atom-5 atom-6" d="M 387.2,174.1 L 379.7,178.1" style="fill:none;fill-rule:evenodd;stroke:#000000;stroke-width:2.0px;stroke-linecap:butt;stroke-linejoin:miter;stroke-opacity:1"/>
<path class="bond-10 atom-5 atom-6" d="M 379.7,178.1 L 372.2,182.2" style="fill:none;fill-rule:evenodd;stroke:#0000FF;stroke-width:2.0px;stroke-linecap:butt;stroke-linejoin:miter;stroke-opacity:1"/>
<path class="bond-11 atom-6 atom-44" d="M 367.8,189.6 L 367.6,195.1" style="fill:none;fill-rule:evenodd;stroke:#0000FF;stroke-width:2.0px;stroke-linecap:butt;stroke-linejoin:miter;stroke-opacity:1"/>
<path class="bond-11 atom-6 atom-44" d="M 367.6,195.1 L 367.3,200.6" style="fill:none;fill-rule:evenodd;stroke:#000000;stroke-width:2.0px;stroke-linecap:butt;stroke-linejoin:miter;stroke-opacity:1"/>
<path class="bond-12 atom-6 atom-45" d="M 363.9,181.8 L 359.2,178.8" style="fill:none;fill-rule:evenodd;stroke:#0000FF;stroke-width:2.0px;stroke-linecap:butt;stroke-linejoin:miter;stroke-opacity:1"/>
<path class="bond-12 atom-6 atom-45" d="M 359.2,178.8 L 354.4,175.9" style="fill:none;fill-rule:evenodd;stroke:#000000;stroke-width:2.0px;stroke-linecap:butt;stroke-linejoin:miter;stroke-opacity:1"/>
<path class="bond-13 atom-7 atom-48" d="M 408.9,205.9 L 392.0,207.8" style="fill:none;fill-rule:evenodd;stroke:#000000;stroke-width:2.0px;stroke-linecap:butt;stroke-linejoin:miter;stroke-opacity:1"/>
<path class="bond-14 atom-7 atom-46" d="M 408.9,205.9 L 402.2,220.3" style="fill:none;fill-rule:evenodd;stroke:#000000;stroke-width:2.0px;stroke-linecap:butt;stroke-linejoin:miter;stroke-opacity:1"/>
<path class="bond-15 atom-7 atom-47" d="M 408.9,205.9 L 423.9,213.1" style="fill:none;fill-rule:evenodd;stroke:#000000;stroke-width:2.0px;stroke-linecap:butt;stroke-linejoin:miter;stroke-opacity:1"/>
<path class="bond-16 atom-8 atom-26" d="M 494.0,204.1 L 514.2,198.1" style="fill:none;fill-rule:evenodd;stroke:#000000;stroke-width:2.0px;stroke-linecap:butt;stroke-linejoin:miter;stroke-opacity:1"/>
<path class="bond-16 atom-8 atom-26" d="M 495.9,199.6 L 510.1,195.3" style="fill:none;fill-rule:evenodd;stroke:#000000;stroke-width:2.0px;stroke-linecap:butt;stroke-linejoin:miter;stroke-opacity:1"/>
<path class="bond-17 atom-8 atom-28" d="M 494.0,204.1 L 478.7,189.6" style="fill:none;fill-rule:evenodd;stroke:#000000;stroke-width:2.0px;stroke-linecap:butt;stroke-linejoin:miter;stroke-opacity:1"/>
<path class="bond-18 atom-8 atom-9" d="M 494.0,204.1 L 492.3,211.8" style="fill:none;fill-rule:evenodd;stroke:#000000;stroke-width:2.0px;stroke-linecap:butt;stroke-linejoin:miter;stroke-opacity:1"/>
<path class="bond-18 atom-8 atom-9" d="M 492.3,211.8 L 490.6,219.5" style="fill:none;fill-rule:evenodd;stroke:#FF0000;stroke-width:2.0px;stroke-linecap:butt;stroke-linejoin:miter;stroke-opacity:1"/>
<path class="bond-19 atom-9 atom-10" d="M 484.7,226.4 L 477.2,228.8" style="fill:none;fill-rule:evenodd;stroke:#FF0000;stroke-width:2.0px;stroke-linecap:butt;stroke-linejoin:miter;stroke-opacity:1"/>
<path class="bond-19 atom-9 atom-10" d="M 477.2,228.8 L 469.7,231.3" style="fill:none;fill-rule:evenodd;stroke:#000000;stroke-width:2.0px;stroke-linecap:butt;stroke-linejoin:miter;stroke-opacity:1"/>
<path class="bond-20 atom-10 atom-13" d="M 469.7,231.3 L 474.6,246.2" style="fill:none;fill-rule:evenodd;stroke:#000000;stroke-width:2.0px;stroke-linecap:butt;stroke-linejoin:miter;stroke-opacity:1"/>
<path class="bond-21 atom-10 atom-12" d="M 469.7,231.3 L 459.9,242.4" style="fill:none;fill-rule:evenodd;stroke:#000000;stroke-width:2.0px;stroke-linecap:butt;stroke-linejoin:miter;stroke-opacity:1"/>
<path class="bond-22 atom-10 atom-11" d="M 469.7,231.3 L 458.2,221.1" style="fill:none;fill-rule:evenodd;stroke:#000000;stroke-width:2.0px;stroke-linecap:butt;stroke-linejoin:miter;stroke-opacity:1"/>
<path class="bond-23 atom-14 atom-19" d="M 400.6,101.3 L 380.4,94.9" style="fill:none;fill-rule:evenodd;stroke:#000000;stroke-width:2.0px;stroke-linecap:butt;stroke-linejoin:miter;stroke-opacity:1"/>
<path class="bond-24 atom-14 atom-15" d="M 400.6,101.3 L 416.2,87.0" style="fill:none;fill-rule:evenodd;stroke:#000000;stroke-width:2.0px;stroke-linecap:butt;stroke-linejoin:miter;stroke-opacity:1"/>
<path class="bond-24 atom-14 atom-15" d="M 400.4,96.4 L 411.3,86.3" style="fill:none;fill-rule:evenodd;stroke:#000000;stroke-width:2.0px;stroke-linecap:butt;stroke-linejoin:miter;stroke-opacity:1"/>
<path class="bond-25 atom-15 atom-16" d="M 416.2,87.0 L 411.6,66.2" style="fill:none;fill-rule:evenodd;stroke:#000000;stroke-width:2.0px;stroke-linecap:butt;stroke-linejoin:miter;stroke-opacity:1"/>
<path class="bond-26 atom-15 atom-43" d="M 416.2,87.0 L 432.1,92.0" style="fill:none;fill-rule:evenodd;stroke:#000000;stroke-width:2.0px;stroke-linecap:butt;stroke-linejoin:miter;stroke-opacity:1"/>
<path class="bond-27 atom-16 atom-17" d="M 411.6,66.2 L 391.4,59.8" style="fill:none;fill-rule:evenodd;stroke:#000000;stroke-width:2.0px;stroke-linecap:butt;stroke-linejoin:miter;stroke-opacity:1"/>
<path class="bond-27 atom-16 atom-17" d="M 407.5,68.9 L 393.3,64.4" style="fill:none;fill-rule:evenodd;stroke:#000000;stroke-width:2.0px;stroke-linecap:butt;stroke-linejoin:miter;stroke-opacity:1"/>
<path class="bond-28 atom-16 atom-40" d="M 411.6,66.2 L 423.1,55.8" style="fill:none;fill-rule:evenodd;stroke:#000000;stroke-width:2.0px;stroke-linecap:butt;stroke-linejoin:miter;stroke-opacity:1"/>
<path class="bond-29 atom-17 atom-18" d="M 391.4,59.8 L 375.8,74.1" style="fill:none;fill-rule:evenodd;stroke:#000000;stroke-width:2.0px;stroke-linecap:butt;stroke-linejoin:miter;stroke-opacity:1"/>
<path class="bond-30 atom-17 atom-42" d="M 391.4,59.8 L 388.1,44.3" style="fill:none;fill-rule:evenodd;stroke:#000000;stroke-width:2.0px;stroke-linecap:butt;stroke-linejoin:miter;stroke-opacity:1"/>
<path class="bond-31 atom-18 atom-41" d="M 375.8,74.1 L 359.9,69.0" style="fill:none;fill-rule:evenodd;stroke:#000000;stroke-width:2.0px;stroke-linecap:butt;stroke-linejoin:miter;stroke-opacity:1"/>
<path class="bond-32 atom-18 atom-19" d="M 375.8,74.1 L 380.4,94.9" style="fill:none;fill-rule:evenodd;stroke:#000000;stroke-width:2.0px;stroke-linecap:butt;stroke-linejoin:miter;stroke-opacity:1"/>
<path class="bond-32 atom-18 atom-19" d="M 380.2,76.4 L 383.4,90.9" style="fill:none;fill-rule:evenodd;stroke:#000000;stroke-width:2.0px;stroke-linecap:butt;stroke-linejoin:miter;stroke-opacity:1"/>
<path class="bond-33 atom-19 atom-39" d="M 380.4,94.9 L 369.0,105.3" style="fill:none;fill-rule:evenodd;stroke:#000000;stroke-width:2.0px;stroke-linecap:butt;stroke-linejoin:miter;stroke-opacity:1"/>
<path class="bond-34 atom-20 atom-21" d="M 437.0,150.0 L 439.9,129.3" style="fill:none;fill-rule:evenodd;stroke:#000000;stroke-width:2.0px;stroke-linecap:butt;stroke-linejoin:miter;stroke-opacity:1"/>
<path class="bond-34 atom-20 atom-21" d="M 441.2,147.4 L 443.2,132.9" style="fill:none;fill-rule:evenodd;stroke:#000000;stroke-width:2.0px;stroke-linecap:butt;stroke-linejoin:miter;stroke-opacity:1"/>
<path class="bond-35 atom-20 atom-25" d="M 437.0,150.0 L 453.7,163.2" style="fill:none;fill-rule:evenodd;stroke:#000000;stroke-width:2.0px;stroke-linecap:butt;stroke-linejoin:miter;stroke-opacity:1"/>
<path class="bond-36 atom-21 atom-22" d="M 439.9,129.3 L 459.4,121.3" style="fill:none;fill-rule:evenodd;stroke:#000000;stroke-width:2.0px;stroke-linecap:butt;stroke-linejoin:miter;stroke-opacity:1"/>
<path class="bond-37 atom-21 atom-37" d="M 439.9,129.3 L 426.7,119.5" style="fill:none;fill-rule:evenodd;stroke:#000000;stroke-width:2.0px;stroke-linecap:butt;stroke-linejoin:miter;stroke-opacity:1"/>
<path class="bond-38 atom-22 atom-38" d="M 459.4,121.3 L 460.9,105.4" style="fill:none;fill-rule:evenodd;stroke:#000000;stroke-width:2.0px;stroke-linecap:butt;stroke-linejoin:miter;stroke-opacity:1"/>
<path class="bond-39 atom-22 atom-23" d="M 459.4,121.3 L 476.1,134.3" style="fill:none;fill-rule:evenodd;stroke:#000000;stroke-width:2.0px;stroke-linecap:butt;stroke-linejoin:miter;stroke-opacity:1"/>
<path class="bond-39 atom-22 atom-23" d="M 459.6,126.3 L 471.3,135.3" style="fill:none;fill-rule:evenodd;stroke:#000000;stroke-width:2.0px;stroke-linecap:butt;stroke-linejoin:miter;stroke-opacity:1"/>
<path class="bond-40 atom-23 atom-36" d="M 476.1,134.3 L 490.8,127.8" style="fill:none;fill-rule:evenodd;stroke:#000000;stroke-width:2.0px;stroke-linecap:butt;stroke-linejoin:miter;stroke-opacity:1"/>
<path class="bond-41 atom-23 atom-24" d="M 476.1,134.3 L 473.2,155.3" style="fill:none;fill-rule:evenodd;stroke:#000000;stroke-width:2.0px;stroke-linecap:butt;stroke-linejoin:miter;stroke-opacity:1"/>
<path class="bond-42 atom-24 atom-29" d="M 473.2,155.3 L 483.6,168.9" style="fill:none;fill-rule:evenodd;stroke:#000000;stroke-width:2.0px;stroke-linecap:butt;stroke-linejoin:miter;stroke-opacity:1"/>
<path class="bond-43 atom-24 atom-25" d="M 473.2,155.3 L 453.7,163.2" style="fill:none;fill-rule:evenodd;stroke:#000000;stroke-width:2.0px;stroke-linecap:butt;stroke-linejoin:miter;stroke-opacity:1"/>
<path class="bond-43 atom-24 atom-25" d="M 468.9,153.0 L 455.2,158.5" style="fill:none;fill-rule:evenodd;stroke:#000000;stroke-width:2.0px;stroke-linecap:butt;stroke-linejoin:miter;stroke-opacity:1"/>
<path class="bond-44 atom-25 atom-35" d="M 453.7,163.2 L 448.8,182.8" style="fill:none;fill-rule:evenodd;stroke:#000000;stroke-width:2.0px;stroke-linecap:butt;stroke-linejoin:miter;stroke-opacity:1"/>
<path class="bond-45 atom-26 atom-32" d="M 514.2,198.1 L 519.2,177.5" style="fill:none;fill-rule:evenodd;stroke:#000000;stroke-width:2.0px;stroke-linecap:butt;stroke-linejoin:miter;stroke-opacity:1"/>
<path class="bond-46 atom-26 atom-27" d="M 514.2,198.1 L 525.5,208.6" style="fill:none;fill-rule:evenodd;stroke:#000000;stroke-width:2.0px;stroke-linecap:butt;stroke-linejoin:miter;stroke-opacity:1"/>
<path class="bond-47 atom-28 atom-29" d="M 478.7,189.6 L 483.6,168.9" style="fill:none;fill-rule:evenodd;stroke:#000000;stroke-width:2.0px;stroke-linecap:butt;stroke-linejoin:miter;stroke-opacity:1"/>
<path class="bond-47 atom-28 atom-29" d="M 483.1,187.4 L 486.6,172.9" style="fill:none;fill-rule:evenodd;stroke:#000000;stroke-width:2.0px;stroke-linecap:butt;stroke-linejoin:miter;stroke-opacity:1"/>
<path class="bond-48 atom-28 atom-34" d="M 478.7,189.6 L 465.6,195.6" style="fill:none;fill-rule:evenodd;stroke:#000000;stroke-width:2.0px;stroke-linecap:butt;stroke-linejoin:miter;stroke-opacity:1"/>
<path class="bond-49 atom-29 atom-30" d="M 483.6,168.9 L 503.9,163.0" style="fill:none;fill-rule:evenodd;stroke:#000000;stroke-width:2.0px;stroke-linecap:butt;stroke-linejoin:miter;stroke-opacity:1"/>
<path class="bond-50 atom-30 atom-31" d="M 503.9,163.0 L 507.5,147.6" style="fill:none;fill-rule:evenodd;stroke:#000000;stroke-width:2.0px;stroke-linecap:butt;stroke-linejoin:miter;stroke-opacity:1"/>
<path class="bond-51 atom-30 atom-32" d="M 503.9,163.0 L 519.2,177.5" style="fill:none;fill-rule:evenodd;stroke:#000000;stroke-width:2.0px;stroke-linecap:butt;stroke-linejoin:miter;stroke-opacity:1"/>
<path class="bond-51 atom-30 atom-32" d="M 503.5,167.9 L 514.3,178.1" style="fill:none;fill-rule:evenodd;stroke:#000000;stroke-width:2.0px;stroke-linecap:butt;stroke-linejoin:miter;stroke-opacity:1"/>
<path class="bond-52 atom-32 atom-33" d="M 519.2,177.5 L 535.2,172.7" style="fill:none;fill-rule:evenodd;stroke:#000000;stroke-width:2.0px;stroke-linecap:butt;stroke-linejoin:miter;stroke-opacity:1"/>
<path class="atom-1" d="M 388.2 148.6 L 391.1 153.4 Q 391.4 153.9, 391.9 154.7 Q 392.4 155.6, 392.4 155.6 L 392.4 148.6 L 393.6 148.6 L 393.6 157.6 L 392.4 157.6 L 389.2 152.4 Q 388.8 151.8, 388.4 151.1 Q 388.1 150.4, 387.9 150.2 L 387.9 157.6 L 386.8 157.6 L 386.8 148.6 L 388.2 148.6 " fill="#0000FF"/>
<path class="atom-1" d="M 394.6 150.2 L 396.2 150.2 L 396.2 148.6 L 396.9 148.6 L 396.9 150.2 L 398.6 150.2 L 398.6 150.9 L 396.9 150.9 L 396.9 152.5 L 396.2 152.5 L 396.2 150.9 L 394.6 150.9 L 394.6 150.2 " fill="#0000FF"/>
<path class="atom-2" d="M 429.7 173.3 Q 429.7 171.1, 430.8 169.9 Q 431.8 168.7, 433.8 168.7 Q 435.8 168.7, 436.9 169.9 Q 438.0 171.1, 438.0 173.3 Q 438.0 175.4, 436.9 176.7 Q 435.8 177.9, 433.8 177.9 Q 431.8 177.9, 430.8 176.7 Q 429.7 175.5, 429.7 173.3 M 433.8 176.9 Q 435.2 176.9, 435.9 176.0 Q 436.7 175.1, 436.7 173.3 Q 436.7 171.5, 435.9 170.6 Q 435.2 169.7, 433.8 169.7 Q 432.5 169.7, 431.7 170.6 Q 431.0 171.5, 431.0 173.3 Q 431.0 175.1, 431.7 176.0 Q 432.5 176.9, 433.8 176.9 " fill="#FF0000"/>
<path class="atom-4" d="M 404.1 178.9 L 407.1 183.7 Q 407.4 184.2, 407.8 185.0 Q 408.3 185.9, 408.3 185.9 L 408.3 178.9 L 409.5 178.9 L 409.5 187.9 L 408.3 187.9 L 405.1 182.7 Q 404.8 182.1, 404.4 181.4 Q 404.0 180.7, 403.9 180.5 L 403.9 187.9 L 402.7 187.9 L 402.7 178.9 L 404.1 178.9 " fill="#0000FF"/>
<path class="atom-6" d="M 366.1 179.9 L 369.0 184.6 Q 369.3 185.1, 369.8 186.0 Q 370.2 186.8, 370.3 186.9 L 370.3 179.9 L 371.5 179.9 L 371.5 188.9 L 370.2 188.9 L 367.1 183.7 Q 366.7 183.1, 366.3 182.4 Q 365.9 181.7, 365.8 181.4 L 365.8 188.9 L 364.6 188.9 L 364.6 179.9 L 366.1 179.9 " fill="#0000FF"/>
<path class="atom-9" d="M 485.4 224.8 Q 485.4 222.6, 486.4 221.4 Q 487.5 220.2, 489.5 220.2 Q 491.5 220.2, 492.6 221.4 Q 493.6 222.6, 493.6 224.8 Q 493.6 227.0, 492.5 228.2 Q 491.5 229.4, 489.5 229.4 Q 487.5 229.4, 486.4 228.2 Q 485.4 227.0, 485.4 224.8 M 489.5 228.4 Q 490.9 228.4, 491.6 227.5 Q 492.4 226.6, 492.4 224.8 Q 492.4 223.0, 491.6 222.1 Q 490.9 221.2, 489.5 221.2 Q 488.1 221.2, 487.4 222.1 Q 486.6 223.0, 486.6 224.8 Q 486.6 226.6, 487.4 227.5 Q 488.1 228.4, 489.5 228.4 " fill="#FF0000"/>
<path class="atom-11" d="M 450.4 212.8 L 451.6 212.8 L 451.6 216.6 L 456.2 216.6 L 456.2 212.8 L 457.5 212.8 L 457.5 221.8 L 456.2 221.8 L 456.2 217.6 L 451.6 217.6 L 451.6 221.8 L 450.4 221.8 L 450.4 212.8 " fill="#000000"/>
<path class="atom-12" d="M 452.1 242.6 L 453.3 242.6 L 453.3 246.4 L 457.9 246.4 L 457.9 242.6 L 459.2 242.6 L 459.2 251.6 L 457.9 251.6 L 457.9 247.5 L 453.3 247.5 L 453.3 251.6 L 452.1 251.6 L 452.1 242.6 " fill="#000000"/>
<path class="atom-13" d="M 472.9 246.9 L 474.1 246.9 L 474.1 250.8 L 478.7 250.8 L 478.7 246.9 L 479.9 246.9 L 479.9 255.9 L 478.7 255.9 L 478.7 251.8 L 474.1 251.8 L 474.1 255.9 L 472.9 255.9 L 472.9 246.9 " fill="#000000"/>
<path class="atom-27" d="M 526.2 208.0 L 527.4 208.0 L 527.4 211.8 L 532.0 211.8 L 532.0 208.0 L 533.2 208.0 L 533.2 217.0 L 532.0 217.0 L 532.0 212.8 L 527.4 212.8 L 527.4 217.0 L 526.2 217.0 L 526.2 208.0 " fill="#000000"/>
<path class="atom-31" d="M 505.2 137.9 L 506.4 137.9 L 506.4 141.7 L 511.0 141.7 L 511.0 137.9 L 512.2 137.9 L 512.2 146.9 L 511.0 146.9 L 511.0 142.7 L 506.4 142.7 L 506.4 146.9 L 505.2 146.9 L 505.2 137.9 " fill="#000000"/>
<path class="atom-33" d="M 535.9 166.9 L 537.1 166.9 L 537.1 170.7 L 541.7 170.7 L 541.7 166.9 L 542.9 166.9 L 542.9 175.9 L 541.7 175.9 L 541.7 171.7 L 537.1 171.7 L 537.1 175.9 L 535.9 175.9 L 535.9 166.9 " fill="#000000"/>
<path class="atom-34" d="M 457.8 193.1 L 459.0 193.1 L 459.0 196.9 L 463.6 196.9 L 463.6 193.1 L 464.9 193.1 L 464.9 202.1 L 463.6 202.1 L 463.6 197.9 L 459.0 197.9 L 459.0 202.1 L 457.8 202.1 L 457.8 193.1 " fill="#000000"/>
<path class="atom-35" d="M 443.9 183.5 L 445.2 183.5 L 445.2 187.4 L 449.7 187.4 L 449.7 183.5 L 451.0 183.5 L 451.0 192.5 L 449.7 192.5 L 449.7 188.4 L 445.2 188.4 L 445.2 192.5 L 443.9 192.5 L 443.9 183.5 " fill="#000000"/>
<path class="atom-36" d="M 491.5 121.4 L 492.8 121.4 L 492.8 125.2 L 497.4 125.2 L 497.4 121.4 L 498.6 121.4 L 498.6 130.4 L 497.4 130.4 L 497.4 126.3 L 492.8 126.3 L 492.8 130.4 L 491.5 130.4 L 491.5 121.4 " fill="#000000"/>
<path class="atom-37" d="M 418.9 111.9 L 420.1 111.9 L 420.1 115.7 L 424.7 115.7 L 424.7 111.9 L 426.0 111.9 L 426.0 120.9 L 424.7 120.9 L 424.7 116.8 L 420.1 116.8 L 420.1 120.9 L 418.9 120.9 L 418.9 111.9 " fill="#000000"/>
<path class="atom-38" d="M 457.9 95.7 L 459.1 95.7 L 459.1 99.5 L 463.7 99.5 L 463.7 95.7 L 465.0 95.7 L 465.0 104.7 L 463.7 104.7 L 463.7 100.5 L 459.1 100.5 L 459.1 104.7 L 457.9 104.7 L 457.9 95.7 " fill="#000000"/>
<path class="atom-39" d="M 361.2 104.6 L 362.4 104.6 L 362.4 108.4 L 367.0 108.4 L 367.0 104.6 L 368.3 104.6 L 368.3 113.6 L 367.0 113.6 L 367.0 109.4 L 362.4 109.4 L 362.4 113.6 L 361.2 113.6 L 361.2 104.6 " fill="#000000"/>
<path class="atom-40" d="M 423.8 47.5 L 425.0 47.5 L 425.0 51.3 L 429.6 51.3 L 429.6 47.5 L 430.8 47.5 L 430.8 56.5 L 429.6 56.5 L 429.6 52.3 L 425.0 52.3 L 425.0 56.5 L 423.8 56.5 L 423.8 47.5 " fill="#000000"/>
<path class="atom-41" d="M 352.1 63.2 L 353.4 63.2 L 353.4 67.0 L 358.0 67.0 L 358.0 63.2 L 359.2 63.2 L 359.2 72.2 L 358.0 72.2 L 358.0 68.0 L 353.4 68.0 L 353.4 72.2 L 352.1 72.2 L 352.1 63.2 " fill="#000000"/>
<path class="atom-42" d="M 383.4 34.6 L 384.7 34.6 L 384.7 38.4 L 389.2 38.4 L 389.2 34.6 L 390.5 34.6 L 390.5 43.6 L 389.2 43.6 L 389.2 39.4 L 384.7 39.4 L 384.7 43.6 L 383.4 43.6 L 383.4 34.6 " fill="#000000"/>
<path class="atom-43" d="M 432.8 88.9 L 434.1 88.9 L 434.1 92.7 L 438.7 92.7 L 438.7 88.9 L 439.9 88.9 L 439.9 97.9 L 438.7 97.9 L 438.7 93.7 L 434.1 93.7 L 434.1 97.9 L 432.8 97.9 L 432.8 88.9 " fill="#000000"/>
<path class="atom-44" d="M 363.6 201.3 L 364.8 201.3 L 364.8 205.1 L 369.4 205.1 L 369.4 201.3 L 370.6 201.3 L 370.6 210.3 L 369.4 210.3 L 369.4 206.2 L 364.8 206.2 L 364.8 210.3 L 363.6 210.3 L 363.6 201.3 " fill="#000000"/>
<path class="atom-45" d="M 346.6 168.7 L 347.9 168.7 L 347.9 172.5 L 352.5 172.5 L 352.5 168.7 L 353.7 168.7 L 353.7 177.7 L 352.5 177.7 L 352.5 173.6 L 347.9 173.6 L 347.9 177.7 L 346.6 177.7 L 346.6 168.7 " fill="#000000"/>
<path class="atom-46" d="M 396.3 221.0 L 397.5 221.0 L 397.5 224.8 L 402.1 224.8 L 402.1 221.0 L 403.3 221.0 L 403.3 230.0 L 402.1 230.0 L 402.1 225.8 L 397.5 225.8 L 397.5 230.0 L 396.3 230.0 L 396.3 221.0 " fill="#000000"/>
<path class="atom-47" d="M 424.6 210.6 L 425.8 210.6 L 425.8 214.5 L 430.4 214.5 L 430.4 210.6 L 431.6 210.6 L 431.6 219.6 L 430.4 219.6 L 430.4 215.5 L 425.8 215.5 L 425.8 219.6 L 424.6 219.6 L 424.6 210.6 " fill="#000000"/>
<path class="atom-48" d="M 384.3 203.8 L 385.5 203.8 L 385.5 207.6 L 390.1 207.6 L 390.1 203.8 L 391.3 203.8 L 391.3 212.7 L 390.1 212.7 L 390.1 208.6 L 385.5 208.6 L 385.5 212.7 L 384.3 212.7 L 384.3 203.8 " fill="#000000"/>
<path class="atom-49" d="M 371.4 134.3 L 372.6 134.3 L 372.6 138.1 L 377.2 138.1 L 377.2 134.3 L 378.4 134.3 L 378.4 143.3 L 377.2 143.3 L 377.2 139.1 L 372.6 139.1 L 372.6 143.3 L 371.4 143.3 L 371.4 134.3 " fill="#000000"/>
<text x="300" y="20" font-size="20" font-family="sans-serif" font-weight="normal" letter-spacing="0" text-anchor="middle" fill="black">bace CAT-4o -&gt; CAT-4b </text><text x="150" y="285" font-size="15" font-family="sans-serif" font-weight="normal" letter-spacing="0" text-anchor="middle" fill="black">CAT-4o</text><text x="450" y="285" font-size="15" font-family="sans-serif" font-weight="normal" letter-spacing="0" text-anchor="middle" fill="black">CAT-4b</text></svg>
