<?xml version='1.0' encoding='ASCII' standalone='yes'?>
<svg xmlns="http://www.w3.org/2000/svg" xmlns:rdkit="http://www.rdkit.org/xml" xmlns:xlink="http://www.w3.org/1999/xlink" version="1.1" baseProfile="full" xml:space="preserve" width="600px" height="300px" viewBox="0 0 600 300">
<!-- END OF HEADER -->
<rect style="opacity:1.0;fill:#FFFFFF;stroke:none" width="600.0" height="300.0" x="0.0" y="0.0"> </rect>
<ellipse cx="62.5" cy="138.5" rx="8.2" ry="8.2" class="atom-19" style="fill:#3053DA;fill-rule:evenodd;stroke:#3053DA;stroke-width:1.0px;stroke-linecap:butt;stroke-linejoin:miter;stroke-opacity:1"/>
<ellipse cx="38.7" cy="145.9" rx="8.2" ry="8.2" class="atom-20" style="fill:#DC3369;fill-rule:evenodd;stroke:#DC3369;stroke-width:1.0px;stroke-linecap:butt;stroke-linejoin:miter;stroke-opacity:1"/>
<ellipse cx="212.3" cy="90.4" rx="8.2" ry="8.2" class="atom-28" style="fill:#DC3369;fill-rule:evenodd;stroke:#DC3369;stroke-width:1.0px;stroke-linecap:butt;stroke-linejoin:miter;stroke-opacity:1"/>
<ellipse cx="169.2" cy="94.6" rx="8.2" ry="8.2" class="atom-29" style="fill:#DC3369;fill-rule:evenodd;stroke:#DC3369;stroke-width:1.0px;stroke-linecap:butt;stroke-linejoin:miter;stroke-opacity:1"/>
<ellipse cx="162.8" cy="143.4" rx="8.2" ry="8.2" class="atom-46" style="fill:#DC3369;fill-rule:evenodd;stroke:#DC3369;stroke-width:1.0px;stroke-linecap:butt;stroke-linejoin:miter;stroke-opacity:1"/>
<path class="bond-0 atom-0 atom-2" d="M 215.8,165.0 L 221.2,170.0" style="fill:none;fill-rule:evenodd;stroke:#000000;stroke-width:2.0px;stroke-linecap:butt;stroke-linejoin:miter;stroke-opacity:1"/>
<path class="bond-0 atom-0 atom-2" d="M 221.2,170.0 L 226.7,174.9" style="fill:none;fill-rule:evenodd;stroke:#FF0000;stroke-width:2.0px;stroke-linecap:butt;stroke-linejoin:miter;stroke-opacity:1"/>
<path class="bond-0 atom-0 atom-2" d="M 212.8,168.3 L 218.2,173.3" style="fill:none;fill-rule:evenodd;stroke:#000000;stroke-width:2.0px;stroke-linecap:butt;stroke-linejoin:miter;stroke-opacity:1"/>
<path class="bond-0 atom-0 atom-2" d="M 218.2,173.3 L 223.7,178.2" style="fill:none;fill-rule:evenodd;stroke:#FF0000;stroke-width:2.0px;stroke-linecap:butt;stroke-linejoin:miter;stroke-opacity:1"/>
<path class="bond-1 atom-0 atom-3" d="M 214.3,166.6 L 189.8,170.9" style="fill:none;fill-rule:evenodd;stroke:#000000;stroke-width:2.0px;stroke-linecap:butt;stroke-linejoin:miter;stroke-opacity:1"/>
<path class="bond-2 atom-0 atom-4" d="M 214.3,166.6 L 215.6,157.3" style="fill:none;fill-rule:evenodd;stroke:#000000;stroke-width:2.0px;stroke-linecap:butt;stroke-linejoin:miter;stroke-opacity:1"/>
<path class="bond-2 atom-0 atom-4" d="M 215.6,157.3 L 216.9,148.1" style="fill:none;fill-rule:evenodd;stroke:#0000FF;stroke-width:2.0px;stroke-linecap:butt;stroke-linejoin:miter;stroke-opacity:1"/>
<path class="bond-3 atom-1 atom-3" d="M 181.4,155.0 L 185.6,162.9" style="fill:none;fill-rule:evenodd;stroke:#0000FF;stroke-width:2.0px;stroke-linecap:butt;stroke-linejoin:miter;stroke-opacity:1"/>
<path class="bond-3 atom-1 atom-3" d="M 185.6,162.9 L 189.8,170.9" style="fill:none;fill-rule:evenodd;stroke:#000000;stroke-width:2.0px;stroke-linecap:butt;stroke-linejoin:miter;stroke-opacity:1"/>
<path class="bond-4 atom-1 atom-5" d="M 184.1,142.7 L 189.8,136.9" style="fill:none;fill-rule:evenodd;stroke:#0000FF;stroke-width:2.0px;stroke-linecap:butt;stroke-linejoin:miter;stroke-opacity:1"/>
<path class="bond-4 atom-1 atom-5" d="M 189.8,136.9 L 195.4,131.1" style="fill:none;fill-rule:evenodd;stroke:#000000;stroke-width:2.0px;stroke-linecap:butt;stroke-linejoin:miter;stroke-opacity:1"/>
<path class="bond-4 atom-1 atom-5" d="M 189.0,144.1 L 193.0,140.0" style="fill:none;fill-rule:evenodd;stroke:#0000FF;stroke-width:2.0px;stroke-linecap:butt;stroke-linejoin:miter;stroke-opacity:1"/>
<path class="bond-4 atom-1 atom-5" d="M 193.0,140.0 L 197.0,135.9" style="fill:none;fill-rule:evenodd;stroke:#000000;stroke-width:2.0px;stroke-linecap:butt;stroke-linejoin:miter;stroke-opacity:1"/>
<path class="bond-5 atom-1 atom-46" d="M 173.3,147.1 L 170.5,146.1" style="fill:none;fill-rule:evenodd;stroke:#0000FF;stroke-width:2.0px;stroke-linecap:butt;stroke-linejoin:miter;stroke-opacity:1"/>
<path class="bond-5 atom-1 atom-46" d="M 170.5,146.1 L 167.8,145.1" style="fill:none;fill-rule:evenodd;stroke:#000000;stroke-width:2.0px;stroke-linecap:butt;stroke-linejoin:miter;stroke-opacity:1"/>
<path class="bond-6 atom-3 atom-9" d="M 189.8,170.9 L 159.1,170.5" style="fill:none;fill-rule:evenodd;stroke:#000000;stroke-width:2.0px;stroke-linecap:butt;stroke-linejoin:miter;stroke-opacity:1"/>
<path class="bond-7 atom-3 atom-36" d="M 191.1,179.1 L 191.9,178.9" style="fill:none;fill-rule:evenodd;stroke:#000000;stroke-width:1.0px;stroke-linecap:butt;stroke-linejoin:miter;stroke-opacity:1"/>
<path class="bond-7 atom-3 atom-36" d="M 192.5,187.3 L 194.1,186.9" style="fill:none;fill-rule:evenodd;stroke:#000000;stroke-width:1.0px;stroke-linecap:butt;stroke-linejoin:miter;stroke-opacity:1"/>
<path class="bond-7 atom-3 atom-36" d="M 193.8,195.5 L 196.3,194.9" style="fill:none;fill-rule:evenodd;stroke:#000000;stroke-width:1.0px;stroke-linecap:butt;stroke-linejoin:miter;stroke-opacity:1"/>
<path class="bond-7 atom-3 atom-36" d="M 195.2,203.7 L 198.4,203.0" style="fill:none;fill-rule:evenodd;stroke:#000000;stroke-width:1.0px;stroke-linecap:butt;stroke-linejoin:miter;stroke-opacity:1"/>
<path class="bond-7 atom-3 atom-36" d="M 196.5,211.9 L 200.6,211.0" style="fill:none;fill-rule:evenodd;stroke:#000000;stroke-width:1.0px;stroke-linecap:butt;stroke-linejoin:miter;stroke-opacity:1"/>
<path class="bond-7 atom-3 atom-36" d="M 197.9,220.1 L 202.8,219.0" style="fill:none;fill-rule:evenodd;stroke:#000000;stroke-width:1.0px;stroke-linecap:butt;stroke-linejoin:miter;stroke-opacity:1"/>
<path class="bond-8 atom-4 atom-7" d="M 222.6,139.4 L 231.5,134.7" style="fill:none;fill-rule:evenodd;stroke:#0000FF;stroke-width:2.0px;stroke-linecap:butt;stroke-linejoin:miter;stroke-opacity:1"/>
<path class="bond-8 atom-4 atom-7" d="M 231.5,134.7 L 240.5,130.0" style="fill:none;fill-rule:evenodd;stroke:#000000;stroke-width:2.0px;stroke-linecap:butt;stroke-linejoin:miter;stroke-opacity:1"/>
<path class="bond-9 atom-4 atom-5" d="M 212.9,139.6 L 204.2,135.3" style="fill:none;fill-rule:evenodd;stroke:#0000FF;stroke-width:2.0px;stroke-linecap:butt;stroke-linejoin:miter;stroke-opacity:1"/>
<path class="bond-9 atom-4 atom-5" d="M 204.2,135.3 L 195.4,131.1" style="fill:none;fill-rule:evenodd;stroke:#000000;stroke-width:2.0px;stroke-linecap:butt;stroke-linejoin:miter;stroke-opacity:1"/>
<path class="bond-10 atom-5 atom-6" d="M 195.4,131.1 L 194.1,121.2" style="fill:none;fill-rule:evenodd;stroke:#000000;stroke-width:2.0px;stroke-linecap:butt;stroke-linejoin:miter;stroke-opacity:1"/>
<path class="bond-10 atom-5 atom-6" d="M 194.1,121.2 L 192.8,111.3" style="fill:none;fill-rule:evenodd;stroke:#0000FF;stroke-width:2.0px;stroke-linecap:butt;stroke-linejoin:miter;stroke-opacity:1"/>
<path class="bond-11 atom-6 atom-28" d="M 196.9,101.7 L 202.1,97.9" style="fill:none;fill-rule:evenodd;stroke:#0000FF;stroke-width:2.0px;stroke-linecap:butt;stroke-linejoin:miter;stroke-opacity:1"/>
<path class="bond-11 atom-6 atom-28" d="M 202.1,97.9 L 207.4,94.0" style="fill:none;fill-rule:evenodd;stroke:#000000;stroke-width:2.0px;stroke-linecap:butt;stroke-linejoin:miter;stroke-opacity:1"/>
<path class="bond-12 atom-6 atom-29" d="M 187.2,103.0 L 180.7,100.0" style="fill:none;fill-rule:evenodd;stroke:#0000FF;stroke-width:2.0px;stroke-linecap:butt;stroke-linejoin:miter;stroke-opacity:1"/>
<path class="bond-12 atom-6 atom-29" d="M 180.7,100.0 L 174.2,96.9" style="fill:none;fill-rule:evenodd;stroke:#000000;stroke-width:2.0px;stroke-linecap:butt;stroke-linejoin:miter;stroke-opacity:1"/>
<path class="bond-13 atom-7 atom-32" d="M 240.5,130.0 L 232.5,113.5" style="fill:none;fill-rule:evenodd;stroke:#000000;stroke-width:2.0px;stroke-linecap:butt;stroke-linejoin:miter;stroke-opacity:1"/>
<path class="bond-14 atom-7 atom-30" d="M 240.5,130.0 L 250.4,115.2" style="fill:none;fill-rule:evenodd;stroke:#000000;stroke-width:2.0px;stroke-linecap:butt;stroke-linejoin:miter;stroke-opacity:1"/>
<path class="bond-15 atom-7 atom-31" d="M 240.5,130.0 L 256.3,140.3" style="fill:none;fill-rule:evenodd;stroke:#000000;stroke-width:2.0px;stroke-linecap:butt;stroke-linejoin:miter;stroke-opacity:1"/>
<path class="bond-16 atom-8 atom-15" d="M 91.9,107.0 L 68.1,114.3" style="fill:none;fill-rule:evenodd;stroke:#000000;stroke-width:2.0px;stroke-linecap:butt;stroke-linejoin:miter;stroke-opacity:1"/>
<path class="bond-16 atom-8 atom-15" d="M 89.7,112.4 L 73.0,117.5" style="fill:none;fill-rule:evenodd;stroke:#000000;stroke-width:2.0px;stroke-linecap:butt;stroke-linejoin:miter;stroke-opacity:1"/>
<path class="bond-17 atom-8 atom-16" d="M 91.9,107.0 L 110.1,124.0" style="fill:none;fill-rule:evenodd;stroke:#000000;stroke-width:2.0px;stroke-linecap:butt;stroke-linejoin:miter;stroke-opacity:1"/>
<path class="bond-18 atom-8 atom-41" d="M 91.9,107.0 L 93.9,97.8" style="fill:none;fill-rule:evenodd;stroke:#000000;stroke-width:2.0px;stroke-linecap:butt;stroke-linejoin:miter;stroke-opacity:1"/>
<path class="bond-18 atom-8 atom-41" d="M 93.9,97.8 L 95.8,88.5" style="fill:none;fill-rule:evenodd;stroke:#FF0000;stroke-width:2.0px;stroke-linecap:butt;stroke-linejoin:miter;stroke-opacity:1"/>
<path class="bond-19 atom-9 atom-10" d="M 159.1,170.5 L 155.6,194.9" style="fill:none;fill-rule:evenodd;stroke:#000000;stroke-width:2.0px;stroke-linecap:butt;stroke-linejoin:miter;stroke-opacity:1"/>
<path class="bond-19 atom-9 atom-10" d="M 154.1,173.5 L 151.6,190.6" style="fill:none;fill-rule:evenodd;stroke:#000000;stroke-width:2.0px;stroke-linecap:butt;stroke-linejoin:miter;stroke-opacity:1"/>
<path class="bond-20 atom-9 atom-14" d="M 159.1,170.5 L 139.4,155.1" style="fill:none;fill-rule:evenodd;stroke:#000000;stroke-width:2.0px;stroke-linecap:butt;stroke-linejoin:miter;stroke-opacity:1"/>
<path class="bond-21 atom-10 atom-11" d="M 155.6,194.9 L 132.6,204.3" style="fill:none;fill-rule:evenodd;stroke:#000000;stroke-width:2.0px;stroke-linecap:butt;stroke-linejoin:miter;stroke-opacity:1"/>
<path class="bond-22 atom-10 atom-26" d="M 155.6,194.9 L 170.4,205.2" style="fill:none;fill-rule:evenodd;stroke:#000000;stroke-width:2.0px;stroke-linecap:butt;stroke-linejoin:miter;stroke-opacity:1"/>
<path class="bond-23 atom-11 atom-27" d="M 132.6,204.3 L 130.7,223.0" style="fill:none;fill-rule:evenodd;stroke:#000000;stroke-width:2.0px;stroke-linecap:butt;stroke-linejoin:miter;stroke-opacity:1"/>
<path class="bond-24 atom-11 atom-12" d="M 132.6,204.3 L 113.0,189.0" style="fill:none;fill-rule:evenodd;stroke:#000000;stroke-width:2.0px;stroke-linecap:butt;stroke-linejoin:miter;stroke-opacity:1"/>
<path class="bond-24 atom-11 atom-12" d="M 132.4,198.5 L 118.7,187.8" style="fill:none;fill-rule:evenodd;stroke:#000000;stroke-width:2.0px;stroke-linecap:butt;stroke-linejoin:miter;stroke-opacity:1"/>
<path class="bond-25 atom-12 atom-25" d="M 113.0,189.0 L 95.6,196.6" style="fill:none;fill-rule:evenodd;stroke:#000000;stroke-width:2.0px;stroke-linecap:butt;stroke-linejoin:miter;stroke-opacity:1"/>
<path class="bond-26 atom-12 atom-13" d="M 113.0,189.0 L 116.4,164.2" style="fill:none;fill-rule:evenodd;stroke:#000000;stroke-width:2.0px;stroke-linecap:butt;stroke-linejoin:miter;stroke-opacity:1"/>
<path class="bond-27 atom-13 atom-17" d="M 116.4,164.2 L 104.4,148.3" style="fill:none;fill-rule:evenodd;stroke:#000000;stroke-width:2.0px;stroke-linecap:butt;stroke-linejoin:miter;stroke-opacity:1"/>
<path class="bond-28 atom-13 atom-14" d="M 116.4,164.2 L 139.4,155.1" style="fill:none;fill-rule:evenodd;stroke:#000000;stroke-width:2.0px;stroke-linecap:butt;stroke-linejoin:miter;stroke-opacity:1"/>
<path class="bond-28 atom-13 atom-14" d="M 121.5,167.0 L 137.6,160.6" style="fill:none;fill-rule:evenodd;stroke:#000000;stroke-width:2.0px;stroke-linecap:butt;stroke-linejoin:miter;stroke-opacity:1"/>
<path class="bond-29 atom-14 atom-24" d="M 139.4,155.1 L 145.3,132.0" style="fill:none;fill-rule:evenodd;stroke:#000000;stroke-width:2.0px;stroke-linecap:butt;stroke-linejoin:miter;stroke-opacity:1"/>
<path class="bond-30 atom-15 atom-19" d="M 68.1,114.3 L 62.5,138.5" style="fill:none;fill-rule:evenodd;stroke:#000000;stroke-width:2.0px;stroke-linecap:butt;stroke-linejoin:miter;stroke-opacity:1"/>
<path class="bond-31 atom-15 atom-21" d="M 68.1,114.3 L 55.2,102.8" style="fill:none;fill-rule:evenodd;stroke:#000000;stroke-width:2.0px;stroke-linecap:butt;stroke-linejoin:miter;stroke-opacity:1"/>
<path class="bond-32 atom-16 atom-17" d="M 110.1,124.0 L 104.4,148.3" style="fill:none;fill-rule:evenodd;stroke:#000000;stroke-width:2.0px;stroke-linecap:butt;stroke-linejoin:miter;stroke-opacity:1"/>
<path class="bond-32 atom-16 atom-17" d="M 104.9,126.6 L 100.9,143.7" style="fill:none;fill-rule:evenodd;stroke:#000000;stroke-width:2.0px;stroke-linecap:butt;stroke-linejoin:miter;stroke-opacity:1"/>
<path class="bond-33 atom-16 atom-23" d="M 110.1,124.0 L 125.7,116.8" style="fill:none;fill-rule:evenodd;stroke:#000000;stroke-width:2.0px;stroke-linecap:butt;stroke-linejoin:miter;stroke-opacity:1"/>
<path class="bond-34 atom-17 atom-18" d="M 104.4,148.3 L 80.6,155.4" style="fill:none;fill-rule:evenodd;stroke:#000000;stroke-width:2.0px;stroke-linecap:butt;stroke-linejoin:miter;stroke-opacity:1"/>
<path class="bond-35 atom-18 atom-22" d="M 80.6,155.4 L 76.5,173.6" style="fill:none;fill-rule:evenodd;stroke:#000000;stroke-width:2.0px;stroke-linecap:butt;stroke-linejoin:miter;stroke-opacity:1"/>
<path class="bond-36 atom-18 atom-19" d="M 80.6,155.4 L 62.5,138.5" style="fill:none;fill-rule:evenodd;stroke:#000000;stroke-width:2.0px;stroke-linecap:butt;stroke-linejoin:miter;stroke-opacity:1"/>
<path class="bond-36 atom-18 atom-19" d="M 81.0,149.6 L 68.2,137.8" style="fill:none;fill-rule:evenodd;stroke:#000000;stroke-width:2.0px;stroke-linecap:butt;stroke-linejoin:miter;stroke-opacity:1"/>
<path class="bond-37 atom-19 atom-20" d="M 62.5,138.5 L 43.7,144.3" style="fill:none;fill-rule:evenodd;stroke:#000000;stroke-width:2.0px;stroke-linecap:butt;stroke-linejoin:miter;stroke-opacity:1"/>
<path class="bond-38 atom-33 atom-36" d="M 225.2,221.8 L 200.3,219.5" style="fill:none;fill-rule:evenodd;stroke:#000000;stroke-width:2.0px;stroke-linecap:butt;stroke-linejoin:miter;stroke-opacity:1"/>
<path class="bond-39 atom-33 atom-34" d="M 225.2,221.8 L 243.0,230.6" style="fill:none;fill-rule:evenodd;stroke:#000000;stroke-width:2.0px;stroke-linecap:butt;stroke-linejoin:miter;stroke-opacity:1"/>
<path class="bond-40 atom-33 atom-38" d="M 225.2,221.8 L 210.9,242.2" style="fill:none;fill-rule:evenodd;stroke:#000000;stroke-width:2.0px;stroke-linecap:butt;stroke-linejoin:miter;stroke-opacity:1"/>
<path class="bond-41 atom-33 atom-35" d="M 225.2,221.8 L 229.4,207.7" style="fill:none;fill-rule:evenodd;stroke:#000000;stroke-width:2.0px;stroke-linecap:butt;stroke-linejoin:miter;stroke-opacity:1"/>
<path class="bond-42 atom-36 atom-37" d="M 200.3,219.5 L 182.3,227.3" style="fill:none;fill-rule:evenodd;stroke:#000000;stroke-width:2.0px;stroke-linecap:butt;stroke-linejoin:miter;stroke-opacity:1"/>
<path class="bond-43 atom-36 atom-38" d="M 200.3,219.5 L 210.9,242.2" style="fill:none;fill-rule:evenodd;stroke:#000000;stroke-width:2.0px;stroke-linecap:butt;stroke-linejoin:miter;stroke-opacity:1"/>
<path class="bond-44 atom-38 atom-40" d="M 210.9,242.2 L 196.5,254.3" style="fill:none;fill-rule:evenodd;stroke:#000000;stroke-width:2.0px;stroke-linecap:butt;stroke-linejoin:miter;stroke-opacity:1"/>
<path class="bond-45 atom-38 atom-39" d="M 210.9,242.2 L 225.0,254.9" style="fill:none;fill-rule:evenodd;stroke:#000000;stroke-width:2.0px;stroke-linecap:butt;stroke-linejoin:miter;stroke-opacity:1"/>
<path class="bond-46 atom-41 atom-42" d="M 91.5,76.9 L 84.9,70.8" style="fill:none;fill-rule:evenodd;stroke:#FF0000;stroke-width:2.0px;stroke-linecap:butt;stroke-linejoin:miter;stroke-opacity:1"/>
<path class="bond-46 atom-41 atom-42" d="M 84.9,70.8 L 78.3,64.7" style="fill:none;fill-rule:evenodd;stroke:#000000;stroke-width:2.0px;stroke-linecap:butt;stroke-linejoin:miter;stroke-opacity:1"/>
<path class="bond-47 atom-42 atom-45" d="M 78.3,64.7 L 66.7,76.9" style="fill:none;fill-rule:evenodd;stroke:#000000;stroke-width:2.0px;stroke-linecap:butt;stroke-linejoin:miter;stroke-opacity:1"/>
<path class="bond-48 atom-42 atom-44" d="M 78.3,64.7 L 59.0,60.3" style="fill:none;fill-rule:evenodd;stroke:#000000;stroke-width:2.0px;stroke-linecap:butt;stroke-linejoin:miter;stroke-opacity:1"/>
<path class="bond-49 atom-42 atom-43" d="M 78.3,64.7 L 82.4,46.7" style="fill:none;fill-rule:evenodd;stroke:#000000;stroke-width:2.0px;stroke-linecap:butt;stroke-linejoin:miter;stroke-opacity:1"/>
<path class="atom-1" d="M 175.8 143.6 L 179.2 149.2 Q 179.6 149.7, 180.1 150.7 Q 180.7 151.7, 180.7 151.8 L 180.7 143.6 L 182.1 143.6 L 182.1 154.1 L 180.7 154.1 L 177.0 148.0 Q 176.5 147.3, 176.1 146.5 Q 175.6 145.7, 175.5 145.4 L 175.5 154.1 L 174.1 154.1 L 174.1 143.6 L 175.8 143.6 " fill="#0000FF"/>
<path class="atom-1" d="M 183.4 145.5 L 185.2 145.5 L 185.2 143.5 L 186.1 143.5 L 186.1 145.5 L 188.0 145.5 L 188.0 146.2 L 186.1 146.2 L 186.1 148.1 L 185.2 148.1 L 185.2 146.2 L 183.4 146.2 L 183.4 145.5 " fill="#0000FF"/>
<path class="atom-2" d="M 226.0 181.8 Q 226.0 179.3, 227.3 177.9 Q 228.5 176.5, 230.9 176.5 Q 233.2 176.5, 234.5 177.9 Q 235.7 179.3, 235.7 181.8 Q 235.7 184.4, 234.4 185.9 Q 233.2 187.3, 230.9 187.3 Q 228.5 187.3, 227.3 185.9 Q 226.0 184.4, 226.0 181.8 M 230.9 186.1 Q 232.5 186.1, 233.3 185.0 Q 234.2 184.0, 234.2 181.8 Q 234.2 179.8, 233.3 178.7 Q 232.5 177.7, 230.9 177.7 Q 229.2 177.7, 228.4 178.7 Q 227.5 179.7, 227.5 181.8 Q 227.5 184.0, 228.4 185.0 Q 229.2 186.1, 230.9 186.1 " fill="#FF0000"/>
<path class="atom-4" d="M 215.4 136.7 L 218.9 142.3 Q 219.2 142.8, 219.8 143.8 Q 220.3 144.8, 220.4 144.9 L 220.4 136.7 L 221.8 136.7 L 221.8 147.3 L 220.3 147.3 L 216.6 141.1 Q 216.2 140.4, 215.7 139.6 Q 215.2 138.8, 215.1 138.5 L 215.1 147.3 L 213.7 147.3 L 213.7 136.7 L 215.4 136.7 " fill="#0000FF"/>
<path class="atom-6" d="M 189.7 99.9 L 193.2 105.5 Q 193.5 106.1, 194.1 107.1 Q 194.6 108.1, 194.6 108.1 L 194.6 99.9 L 196.0 99.9 L 196.0 110.5 L 194.6 110.5 L 190.9 104.4 Q 190.5 103.7, 190.0 102.8 Q 189.5 102.0, 189.4 101.8 L 189.4 110.5 L 188.0 110.5 L 188.0 99.9 L 189.7 99.9 " fill="#0000FF"/>
<path class="atom-20" d="M 34.6 140.6 L 36.0 140.6 L 36.0 145.1 L 41.5 145.1 L 41.5 140.6 L 42.9 140.6 L 42.9 151.2 L 41.5 151.2 L 41.5 146.3 L 36.0 146.3 L 36.0 151.2 L 34.6 151.2 L 34.6 140.6 " fill="#000000"/>
<path class="atom-21" d="M 46.1 93.1 L 47.5 93.1 L 47.5 97.6 L 52.9 97.6 L 52.9 93.1 L 54.3 93.1 L 54.3 103.7 L 52.9 103.7 L 52.9 98.8 L 47.5 98.8 L 47.5 103.7 L 46.1 103.7 L 46.1 93.1 " fill="#000000"/>
<path class="atom-22" d="M 71.0 174.4 L 72.4 174.4 L 72.4 178.9 L 77.8 178.9 L 77.8 174.4 L 79.3 174.4 L 79.3 185.0 L 77.8 185.0 L 77.8 180.1 L 72.4 180.1 L 72.4 185.0 L 71.0 185.0 L 71.0 174.4 " fill="#000000"/>
<path class="atom-23" d="M 126.5 109.3 L 127.9 109.3 L 127.9 113.8 L 133.3 113.8 L 133.3 109.3 L 134.8 109.3 L 134.8 119.8 L 133.3 119.8 L 133.3 115.0 L 127.9 115.0 L 127.9 119.8 L 126.5 119.8 L 126.5 109.3 " fill="#000000"/>
<path class="atom-24" d="M 142.7 120.6 L 144.2 120.6 L 144.2 125.1 L 149.6 125.1 L 149.6 120.6 L 151.0 120.6 L 151.0 131.2 L 149.6 131.2 L 149.6 126.3 L 144.2 126.3 L 144.2 131.2 L 142.7 131.2 L 142.7 120.6 " fill="#000000"/>
<path class="atom-25" d="M 86.5 193.5 L 87.9 193.5 L 87.9 198.0 L 93.3 198.0 L 93.3 193.5 L 94.8 193.5 L 94.8 204.1 L 93.3 204.1 L 93.3 199.2 L 87.9 199.2 L 87.9 204.1 L 86.5 204.1 L 86.5 193.5 " fill="#000000"/>
<path class="atom-26" d="M 171.2 203.4 L 172.7 203.4 L 172.7 207.9 L 178.1 207.9 L 178.1 203.4 L 179.5 203.4 L 179.5 214.0 L 178.1 214.0 L 178.1 209.1 L 172.7 209.1 L 172.7 214.0 L 171.2 214.0 L 171.2 203.4 " fill="#000000"/>
<path class="atom-27" d="M 125.9 223.9 L 127.4 223.9 L 127.4 228.4 L 132.8 228.4 L 132.8 223.9 L 134.2 223.9 L 134.2 234.4 L 132.8 234.4 L 132.8 229.5 L 127.4 229.5 L 127.4 234.4 L 125.9 234.4 L 125.9 223.9 " fill="#000000"/>
<path class="atom-28" d="M 208.2 85.1 L 209.6 85.1 L 209.6 89.6 L 215.0 89.6 L 215.0 85.1 L 216.5 85.1 L 216.5 95.7 L 215.0 95.7 L 215.0 90.8 L 209.6 90.8 L 209.6 95.7 L 208.2 95.7 L 208.2 85.1 " fill="#000000"/>
<path class="atom-29" d="M 165.1 89.4 L 166.5 89.4 L 166.5 93.9 L 172.0 93.9 L 172.0 89.4 L 173.4 89.4 L 173.4 99.9 L 172.0 99.9 L 172.0 95.0 L 166.5 95.0 L 166.5 99.9 L 165.1 99.9 L 165.1 89.4 " fill="#000000"/>
<path class="atom-30" d="M 250.4 103.8 L 251.8 103.8 L 251.8 108.3 L 257.2 108.3 L 257.2 103.8 L 258.7 103.8 L 258.7 114.4 L 257.2 114.4 L 257.2 109.5 L 251.8 109.5 L 251.8 114.4 L 250.4 114.4 L 250.4 103.8 " fill="#000000"/>
<path class="atom-31" d="M 257.1 138.2 L 258.5 138.2 L 258.5 142.7 L 264.0 142.7 L 264.0 138.2 L 265.4 138.2 L 265.4 148.8 L 264.0 148.8 L 264.0 143.9 L 258.5 143.9 L 258.5 148.8 L 257.1 148.8 L 257.1 138.2 " fill="#000000"/>
<path class="atom-32" d="M 225.3 102.1 L 226.8 102.1 L 226.8 106.6 L 232.2 106.6 L 232.2 102.1 L 233.6 102.1 L 233.6 112.7 L 232.2 112.7 L 232.2 107.8 L 226.8 107.8 L 226.8 112.7 L 225.3 112.7 L 225.3 102.1 " fill="#000000"/>
<path class="atom-34" d="M 243.8 227.8 L 245.2 227.8 L 245.2 232.3 L 250.7 232.3 L 250.7 227.8 L 252.1 227.8 L 252.1 238.4 L 250.7 238.4 L 250.7 233.5 L 245.2 233.5 L 245.2 238.4 L 243.8 238.4 L 243.8 227.8 " fill="#000000"/>
<path class="atom-35" d="M 227.2 196.3 L 228.6 196.3 L 228.6 200.8 L 234.0 200.8 L 234.0 196.3 L 235.4 196.3 L 235.4 206.9 L 234.0 206.9 L 234.0 202.0 L 228.6 202.0 L 228.6 206.9 L 227.2 206.9 L 227.2 196.3 " fill="#000000"/>
<path class="atom-37" d="M 173.2 224.1 L 174.6 224.1 L 174.6 228.6 L 180.0 228.6 L 180.0 224.1 L 181.5 224.1 L 181.5 234.7 L 180.0 234.7 L 180.0 229.8 L 174.6 229.8 L 174.6 234.7 L 173.2 234.7 L 173.2 224.1 " fill="#000000"/>
<path class="atom-39" d="M 225.8 254.2 L 227.2 254.2 L 227.2 258.7 L 232.6 258.7 L 232.6 254.2 L 234.1 254.2 L 234.1 264.7 L 232.6 264.7 L 232.6 259.9 L 227.2 259.9 L 227.2 264.7 L 225.8 264.7 L 225.8 254.2 " fill="#000000"/>
<path class="atom-40" d="M 187.4 253.3 L 188.8 253.3 L 188.8 257.7 L 194.2 257.7 L 194.2 253.3 L 195.7 253.3 L 195.7 263.8 L 194.2 263.8 L 194.2 258.9 L 188.8 258.9 L 188.8 263.8 L 187.4 263.8 L 187.4 253.3 " fill="#000000"/>
<path class="atom-41" d="M 92.3 82.2 Q 92.3 79.7, 93.6 78.3 Q 94.8 76.9, 97.2 76.9 Q 99.5 76.9, 100.8 78.3 Q 102.0 79.7, 102.0 82.2 Q 102.0 84.8, 100.8 86.3 Q 99.5 87.7, 97.2 87.7 Q 94.9 87.7, 93.6 86.3 Q 92.3 84.8, 92.3 82.2 M 97.2 86.5 Q 98.8 86.5, 99.7 85.4 Q 100.5 84.3, 100.5 82.2 Q 100.5 80.2, 99.7 79.1 Q 98.8 78.0, 97.2 78.0 Q 95.6 78.0, 94.7 79.1 Q 93.8 80.1, 93.8 82.2 Q 93.8 84.4, 94.7 85.4 Q 95.6 86.5, 97.2 86.5 " fill="#FF0000"/>
<path class="atom-43" d="M 79.6 35.3 L 81.0 35.3 L 81.0 39.8 L 86.4 39.8 L 86.4 35.3 L 87.9 35.3 L 87.9 45.8 L 86.4 45.8 L 86.4 41.0 L 81.0 41.0 L 81.0 45.8 L 79.6 45.8 L 79.6 35.3 " fill="#000000"/>
<path class="atom-44" d="M 49.9 53.9 L 51.3 53.9 L 51.3 58.4 L 56.7 58.4 L 56.7 53.9 L 58.2 53.9 L 58.2 64.5 L 56.7 64.5 L 56.7 59.6 L 51.3 59.6 L 51.3 64.5 L 49.9 64.5 L 49.9 53.9 " fill="#000000"/>
<path class="atom-45" d="M 57.6 76.9 L 59.0 76.9 L 59.0 81.4 L 64.4 81.4 L 64.4 76.9 L 65.8 76.9 L 65.8 87.5 L 64.4 87.5 L 64.4 82.6 L 59.0 82.6 L 59.0 87.5 L 57.6 87.5 L 57.6 76.9 " fill="#000000"/>
<path class="atom-46" d="M 158.7 138.1 L 160.1 138.1 L 160.1 142.6 L 165.5 142.6 L 165.5 138.1 L 166.9 138.1 L 166.9 148.6 L 165.5 148.6 L 165.5 143.8 L 160.1 143.8 L 160.1 148.6 L 158.7 148.6 L 158.7 138.1 " fill="#000000"/>
<ellipse cx="356.7" cy="138.5" rx="8.2" ry="8.2" class="atom-19" style="fill:#3053DA;fill-rule:evenodd;stroke:#3053DA;stroke-width:1.0px;stroke-linecap:butt;stroke-linejoin:miter;stroke-opacity:1"/>
<ellipse cx="506.6" cy="90.4" rx="8.2" ry="8.2" class="atom-27" style="fill:#DC3369;fill-rule:evenodd;stroke:#DC3369;stroke-width:1.0px;stroke-linecap:butt;stroke-linejoin:miter;stroke-opacity:1"/>
<ellipse cx="463.5" cy="94.6" rx="8.2" ry="8.2" class="atom-28" style="fill:#DC3369;fill-rule:evenodd;stroke:#DC3369;stroke-width:1.0px;stroke-linecap:butt;stroke-linejoin:miter;stroke-opacity:1"/>
<ellipse cx="457.1" cy="143.3" rx="8.2" ry="8.2" class="atom-45" style="fill:#DC3369;fill-rule:evenodd;stroke:#DC3369;stroke-width:1.0px;stroke-linecap:butt;stroke-linejoin:miter;stroke-opacity:1"/>
<path class="bond-0 atom-0 atom-2" d="M 510.1,164.9 L 515.5,169.9" style="fill:none;fill-rule:evenodd;stroke:#000000;stroke-width:2.0px;stroke-linecap:butt;stroke-linejoin:miter;stroke-opacity:1"/>
<path class="bond-0 atom-0 atom-2" d="M 515.5,169.9 L 521.0,174.9" style="fill:none;fill-rule:evenodd;stroke:#FF0000;stroke-width:2.0px;stroke-linecap:butt;stroke-linejoin:miter;stroke-opacity:1"/>
<path class="bond-0 atom-0 atom-2" d="M 507.0,168.2 L 512.5,173.2" style="fill:none;fill-rule:evenodd;stroke:#000000;stroke-width:2.0px;stroke-linecap:butt;stroke-linejoin:miter;stroke-opacity:1"/>
<path class="bond-0 atom-0 atom-2" d="M 512.5,173.2 L 518.0,178.2" style="fill:none;fill-rule:evenodd;stroke:#FF0000;stroke-width:2.0px;stroke-linecap:butt;stroke-linejoin:miter;stroke-opacity:1"/>
<path class="bond-1 atom-0 atom-3" d="M 508.5,166.5 L 484.1,170.8" style="fill:none;fill-rule:evenodd;stroke:#000000;stroke-width:2.0px;stroke-linecap:butt;stroke-linejoin:miter;stroke-opacity:1"/>
<path class="bond-2 atom-0 atom-4" d="M 508.5,166.5 L 509.8,157.3" style="fill:none;fill-rule:evenodd;stroke:#000000;stroke-width:2.0px;stroke-linecap:butt;stroke-linejoin:miter;stroke-opacity:1"/>
<path class="bond-2 atom-0 atom-4" d="M 509.8,157.3 L 511.1,148.0" style="fill:none;fill-rule:evenodd;stroke:#0000FF;stroke-width:2.0px;stroke-linecap:butt;stroke-linejoin:miter;stroke-opacity:1"/>
<path class="bond-3 atom-1 atom-3" d="M 475.7,154.9 L 479.9,162.8" style="fill:none;fill-rule:evenodd;stroke:#0000FF;stroke-width:2.0px;stroke-linecap:butt;stroke-linejoin:miter;stroke-opacity:1"/>
<path class="bond-3 atom-1 atom-3" d="M 479.9,162.8 L 484.1,170.8" style="fill:none;fill-rule:evenodd;stroke:#000000;stroke-width:2.0px;stroke-linecap:butt;stroke-linejoin:miter;stroke-opacity:1"/>
<path class="bond-4 atom-1 atom-5" d="M 478.4,142.6 L 484.1,136.8" style="fill:none;fill-rule:evenodd;stroke:#0000FF;stroke-width:2.0px;stroke-linecap:butt;stroke-linejoin:miter;stroke-opacity:1"/>
<path class="bond-4 atom-1 atom-5" d="M 484.1,136.8 L 489.7,131.0" style="fill:none;fill-rule:evenodd;stroke:#000000;stroke-width:2.0px;stroke-linecap:butt;stroke-linejoin:miter;stroke-opacity:1"/>
<path class="bond-4 atom-1 atom-5" d="M 483.3,144.0 L 487.3,139.9" style="fill:none;fill-rule:evenodd;stroke:#0000FF;stroke-width:2.0px;stroke-linecap:butt;stroke-linejoin:miter;stroke-opacity:1"/>
<path class="bond-4 atom-1 atom-5" d="M 487.3,139.9 L 491.2,135.9" style="fill:none;fill-rule:evenodd;stroke:#000000;stroke-width:2.0px;stroke-linecap:butt;stroke-linejoin:miter;stroke-opacity:1"/>
<path class="bond-5 atom-1 atom-45" d="M 467.6,147.1 L 464.8,146.1" style="fill:none;fill-rule:evenodd;stroke:#0000FF;stroke-width:2.0px;stroke-linecap:butt;stroke-linejoin:miter;stroke-opacity:1"/>
<path class="bond-5 atom-1 atom-45" d="M 464.8,146.1 L 462.1,145.1" style="fill:none;fill-rule:evenodd;stroke:#000000;stroke-width:2.0px;stroke-linecap:butt;stroke-linejoin:miter;stroke-opacity:1"/>
<path class="bond-6 atom-3 atom-9" d="M 484.1,170.8 L 453.3,170.5" style="fill:none;fill-rule:evenodd;stroke:#000000;stroke-width:2.0px;stroke-linecap:butt;stroke-linejoin:miter;stroke-opacity:1"/>
<path class="bond-7 atom-3 atom-35" d="M 485.4,179.0 L 486.2,178.8" style="fill:none;fill-rule:evenodd;stroke:#000000;stroke-width:1.0px;stroke-linecap:butt;stroke-linejoin:miter;stroke-opacity:1"/>
<path class="bond-7 atom-3 atom-35" d="M 486.8,187.2 L 488.4,186.9" style="fill:none;fill-rule:evenodd;stroke:#000000;stroke-width:1.0px;stroke-linecap:butt;stroke-linejoin:miter;stroke-opacity:1"/>
<path class="bond-7 atom-3 atom-35" d="M 488.1,195.4 L 490.6,194.9" style="fill:none;fill-rule:evenodd;stroke:#000000;stroke-width:1.0px;stroke-linecap:butt;stroke-linejoin:miter;stroke-opacity:1"/>
<path class="bond-7 atom-3 atom-35" d="M 489.4,203.7 L 492.7,203.0" style="fill:none;fill-rule:evenodd;stroke:#000000;stroke-width:1.0px;stroke-linecap:butt;stroke-linejoin:miter;stroke-opacity:1"/>
<path class="bond-7 atom-3 atom-35" d="M 490.8,211.9 L 494.9,211.0" style="fill:none;fill-rule:evenodd;stroke:#000000;stroke-width:1.0px;stroke-linecap:butt;stroke-linejoin:miter;stroke-opacity:1"/>
<path class="bond-7 atom-3 atom-35" d="M 492.1,220.1 L 497.1,219.0" style="fill:none;fill-rule:evenodd;stroke:#000000;stroke-width:1.0px;stroke-linecap:butt;stroke-linejoin:miter;stroke-opacity:1"/>
<path class="bond-8 atom-4 atom-7" d="M 516.8,139.4 L 525.8,134.7" style="fill:none;fill-rule:evenodd;stroke:#0000FF;stroke-width:2.0px;stroke-linecap:butt;stroke-linejoin:miter;stroke-opacity:1"/>
<path class="bond-8 atom-4 atom-7" d="M 525.8,134.7 L 534.7,130.0" style="fill:none;fill-rule:evenodd;stroke:#000000;stroke-width:2.0px;stroke-linecap:butt;stroke-linejoin:miter;stroke-opacity:1"/>
<path class="bond-9 atom-4 atom-5" d="M 507.2,139.6 L 498.4,135.3" style="fill:none;fill-rule:evenodd;stroke:#0000FF;stroke-width:2.0px;stroke-linecap:butt;stroke-linejoin:miter;stroke-opacity:1"/>
<path class="bond-9 atom-4 atom-5" d="M 498.4,135.3 L 489.7,131.0" style="fill:none;fill-rule:evenodd;stroke:#000000;stroke-width:2.0px;stroke-linecap:butt;stroke-linejoin:miter;stroke-opacity:1"/>
<path class="bond-10 atom-5 atom-6" d="M 489.7,131.0 L 488.4,121.2" style="fill:none;fill-rule:evenodd;stroke:#000000;stroke-width:2.0px;stroke-linecap:butt;stroke-linejoin:miter;stroke-opacity:1"/>
<path class="bond-10 atom-5 atom-6" d="M 488.4,121.2 L 487.1,111.3" style="fill:none;fill-rule:evenodd;stroke:#0000FF;stroke-width:2.0px;stroke-linecap:butt;stroke-linejoin:miter;stroke-opacity:1"/>
<path class="bond-11 atom-6 atom-27" d="M 491.1,101.6 L 496.4,97.8" style="fill:none;fill-rule:evenodd;stroke:#0000FF;stroke-width:2.0px;stroke-linecap:butt;stroke-linejoin:miter;stroke-opacity:1"/>
<path class="bond-11 atom-6 atom-27" d="M 496.4,97.8 L 501.6,94.0" style="fill:none;fill-rule:evenodd;stroke:#000000;stroke-width:2.0px;stroke-linecap:butt;stroke-linejoin:miter;stroke-opacity:1"/>
<path class="bond-12 atom-6 atom-28" d="M 481.5,102.9 L 475.0,99.9" style="fill:none;fill-rule:evenodd;stroke:#0000FF;stroke-width:2.0px;stroke-linecap:butt;stroke-linejoin:miter;stroke-opacity:1"/>
<path class="bond-12 atom-6 atom-28" d="M 475.0,99.9 L 468.5,96.9" style="fill:none;fill-rule:evenodd;stroke:#000000;stroke-width:2.0px;stroke-linecap:butt;stroke-linejoin:miter;stroke-opacity:1"/>
<path class="bond-13 atom-7 atom-31" d="M 534.7,130.0 L 526.7,113.5" style="fill:none;fill-rule:evenodd;stroke:#000000;stroke-width:2.0px;stroke-linecap:butt;stroke-linejoin:miter;stroke-opacity:1"/>
<path class="bond-14 atom-7 atom-29" d="M 534.7,130.0 L 544.7,115.2" style="fill:none;fill-rule:evenodd;stroke:#000000;stroke-width:2.0px;stroke-linecap:butt;stroke-linejoin:miter;stroke-opacity:1"/>
<path class="bond-15 atom-7 atom-30" d="M 534.7,130.0 L 550.5,140.3" style="fill:none;fill-rule:evenodd;stroke:#000000;stroke-width:2.0px;stroke-linecap:butt;stroke-linejoin:miter;stroke-opacity:1"/>
<path class="bond-16 atom-8 atom-15" d="M 386.2,107.0 L 362.4,114.3" style="fill:none;fill-rule:evenodd;stroke:#000000;stroke-width:2.0px;stroke-linecap:butt;stroke-linejoin:miter;stroke-opacity:1"/>
<path class="bond-16 atom-8 atom-15" d="M 383.9,112.4 L 367.3,117.5" style="fill:none;fill-rule:evenodd;stroke:#000000;stroke-width:2.0px;stroke-linecap:butt;stroke-linejoin:miter;stroke-opacity:1"/>
<path class="bond-17 atom-8 atom-16" d="M 386.2,107.0 L 404.3,124.0" style="fill:none;fill-rule:evenodd;stroke:#000000;stroke-width:2.0px;stroke-linecap:butt;stroke-linejoin:miter;stroke-opacity:1"/>
<path class="bond-18 atom-8 atom-40" d="M 386.2,107.0 L 388.2,97.8" style="fill:none;fill-rule:evenodd;stroke:#000000;stroke-width:2.0px;stroke-linecap:butt;stroke-linejoin:miter;stroke-opacity:1"/>
<path class="bond-18 atom-8 atom-40" d="M 388.2,97.8 L 390.1,88.5" style="fill:none;fill-rule:evenodd;stroke:#FF0000;stroke-width:2.0px;stroke-linecap:butt;stroke-linejoin:miter;stroke-opacity:1"/>
<path class="bond-19 atom-9 atom-10" d="M 453.3,170.5 L 449.9,195.0" style="fill:none;fill-rule:evenodd;stroke:#000000;stroke-width:2.0px;stroke-linecap:butt;stroke-linejoin:miter;stroke-opacity:1"/>
<path class="bond-19 atom-9 atom-10" d="M 448.4,173.6 L 446.0,190.7" style="fill:none;fill-rule:evenodd;stroke:#000000;stroke-width:2.0px;stroke-linecap:butt;stroke-linejoin:miter;stroke-opacity:1"/>
<path class="bond-20 atom-9 atom-14" d="M 453.3,170.5 L 433.7,155.0" style="fill:none;fill-rule:evenodd;stroke:#000000;stroke-width:2.0px;stroke-linecap:butt;stroke-linejoin:miter;stroke-opacity:1"/>
<path class="bond-21 atom-10 atom-11" d="M 449.9,195.0 L 426.9,204.3" style="fill:none;fill-rule:evenodd;stroke:#000000;stroke-width:2.0px;stroke-linecap:butt;stroke-linejoin:miter;stroke-opacity:1"/>
<path class="bond-22 atom-10 atom-25" d="M 449.9,195.0 L 464.8,205.2" style="fill:none;fill-rule:evenodd;stroke:#000000;stroke-width:2.0px;stroke-linecap:butt;stroke-linejoin:miter;stroke-opacity:1"/>
<path class="bond-23 atom-11 atom-26" d="M 426.9,204.3 L 425.0,223.0" style="fill:none;fill-rule:evenodd;stroke:#000000;stroke-width:2.0px;stroke-linecap:butt;stroke-linejoin:miter;stroke-opacity:1"/>
<path class="bond-24 atom-11 atom-12" d="M 426.9,204.3 L 407.2,189.0" style="fill:none;fill-rule:evenodd;stroke:#000000;stroke-width:2.0px;stroke-linecap:butt;stroke-linejoin:miter;stroke-opacity:1"/>
<path class="bond-24 atom-11 atom-12" d="M 426.7,198.4 L 412.9,187.8" style="fill:none;fill-rule:evenodd;stroke:#000000;stroke-width:2.0px;stroke-linecap:butt;stroke-linejoin:miter;stroke-opacity:1"/>
<path class="bond-25 atom-12 atom-24" d="M 407.2,189.0 L 389.9,196.6" style="fill:none;fill-rule:evenodd;stroke:#000000;stroke-width:2.0px;stroke-linecap:butt;stroke-linejoin:miter;stroke-opacity:1"/>
<path class="bond-26 atom-12 atom-13" d="M 407.2,189.0 L 410.7,164.3" style="fill:none;fill-rule:evenodd;stroke:#000000;stroke-width:2.0px;stroke-linecap:butt;stroke-linejoin:miter;stroke-opacity:1"/>
<path class="bond-27 atom-13 atom-17" d="M 410.7,164.3 L 398.7,148.3" style="fill:none;fill-rule:evenodd;stroke:#000000;stroke-width:2.0px;stroke-linecap:butt;stroke-linejoin:miter;stroke-opacity:1"/>
<path class="bond-28 atom-13 atom-14" d="M 410.7,164.3 L 433.7,155.0" style="fill:none;fill-rule:evenodd;stroke:#000000;stroke-width:2.0px;stroke-linecap:butt;stroke-linejoin:miter;stroke-opacity:1"/>
<path class="bond-28 atom-13 atom-14" d="M 415.8,167.1 L 431.9,160.5" style="fill:none;fill-rule:evenodd;stroke:#000000;stroke-width:2.0px;stroke-linecap:butt;stroke-linejoin:miter;stroke-opacity:1"/>
<path class="bond-29 atom-14 atom-23" d="M 433.7,155.0 L 439.6,132.0" style="fill:none;fill-rule:evenodd;stroke:#000000;stroke-width:2.0px;stroke-linecap:butt;stroke-linejoin:miter;stroke-opacity:1"/>
<path class="bond-30 atom-15 atom-19" d="M 362.4,114.3 L 360.3,123.3" style="fill:none;fill-rule:evenodd;stroke:#000000;stroke-width:2.0px;stroke-linecap:butt;stroke-linejoin:miter;stroke-opacity:1"/>
<path class="bond-30 atom-15 atom-19" d="M 360.3,123.3 L 358.2,132.4" style="fill:none;fill-rule:evenodd;stroke:#0000FF;stroke-width:2.0px;stroke-linecap:butt;stroke-linejoin:miter;stroke-opacity:1"/>
<path class="bond-31 atom-15 atom-20" d="M 362.4,114.3 L 349.5,102.8" style="fill:none;fill-rule:evenodd;stroke:#000000;stroke-width:2.0px;stroke-linecap:butt;stroke-linejoin:miter;stroke-opacity:1"/>
<path class="bond-32 atom-16 atom-17" d="M 404.3,124.0 L 398.7,148.3" style="fill:none;fill-rule:evenodd;stroke:#000000;stroke-width:2.0px;stroke-linecap:butt;stroke-linejoin:miter;stroke-opacity:1"/>
<path class="bond-32 atom-16 atom-17" d="M 399.1,126.6 L 395.1,143.7" style="fill:none;fill-rule:evenodd;stroke:#000000;stroke-width:2.0px;stroke-linecap:butt;stroke-linejoin:miter;stroke-opacity:1"/>
<path class="bond-33 atom-16 atom-22" d="M 404.3,124.0 L 419.9,116.8" style="fill:none;fill-rule:evenodd;stroke:#000000;stroke-width:2.0px;stroke-linecap:butt;stroke-linejoin:miter;stroke-opacity:1"/>
<path class="bond-34 atom-17 atom-18" d="M 398.7,148.3 L 374.9,155.4" style="fill:none;fill-rule:evenodd;stroke:#000000;stroke-width:2.0px;stroke-linecap:butt;stroke-linejoin:miter;stroke-opacity:1"/>
<path class="bond-35 atom-18 atom-21" d="M 374.9,155.4 L 370.8,173.6" style="fill:none;fill-rule:evenodd;stroke:#000000;stroke-width:2.0px;stroke-linecap:butt;stroke-linejoin:miter;stroke-opacity:1"/>
<path class="bond-36 atom-18 atom-19" d="M 374.9,155.4 L 368.2,149.2" style="fill:none;fill-rule:evenodd;stroke:#000000;stroke-width:2.0px;stroke-linecap:butt;stroke-linejoin:miter;stroke-opacity:1"/>
<path class="bond-36 atom-18 atom-19" d="M 368.2,149.2 L 361.6,143.0" style="fill:none;fill-rule:evenodd;stroke:#0000FF;stroke-width:2.0px;stroke-linecap:butt;stroke-linejoin:miter;stroke-opacity:1"/>
<path class="bond-36 atom-18 atom-19" d="M 375.9,150.3 L 371.3,145.9" style="fill:none;fill-rule:evenodd;stroke:#000000;stroke-width:2.0px;stroke-linecap:butt;stroke-linejoin:miter;stroke-opacity:1"/>
<path class="bond-36 atom-18 atom-19" d="M 371.3,145.9 L 366.6,141.6" style="fill:none;fill-rule:evenodd;stroke:#0000FF;stroke-width:2.0px;stroke-linecap:butt;stroke-linejoin:miter;stroke-opacity:1"/>
<path class="bond-37 atom-32 atom-35" d="M 519.4,221.8 L 494.6,219.6" style="fill:none;fill-rule:evenodd;stroke:#000000;stroke-width:2.0px;stroke-linecap:butt;stroke-linejoin:miter;stroke-opacity:1"/>
<path class="bond-38 atom-32 atom-33" d="M 519.4,221.8 L 537.3,230.6" style="fill:none;fill-rule:evenodd;stroke:#000000;stroke-width:2.0px;stroke-linecap:butt;stroke-linejoin:miter;stroke-opacity:1"/>
<path class="bond-39 atom-32 atom-37" d="M 519.4,221.8 L 505.2,242.2" style="fill:none;fill-rule:evenodd;stroke:#000000;stroke-width:2.0px;stroke-linecap:butt;stroke-linejoin:miter;stroke-opacity:1"/>
<path class="bond-40 atom-32 atom-34" d="M 519.4,221.8 L 523.7,207.7" style="fill:none;fill-rule:evenodd;stroke:#000000;stroke-width:2.0px;stroke-linecap:butt;stroke-linejoin:miter;stroke-opacity:1"/>
<path class="bond-41 atom-35 atom-36" d="M 494.6,219.6 L 476.5,227.3" style="fill:none;fill-rule:evenodd;stroke:#000000;stroke-width:2.0px;stroke-linecap:butt;stroke-linejoin:miter;stroke-opacity:1"/>
<path class="bond-42 atom-35 atom-37" d="M 494.6,219.6 L 505.2,242.2" style="fill:none;fill-rule:evenodd;stroke:#000000;stroke-width:2.0px;stroke-linecap:butt;stroke-linejoin:miter;stroke-opacity:1"/>
<path class="bond-43 atom-37 atom-39" d="M 505.2,242.2 L 490.8,254.4" style="fill:none;fill-rule:evenodd;stroke:#000000;stroke-width:2.0px;stroke-linecap:butt;stroke-linejoin:miter;stroke-opacity:1"/>
<path class="bond-44 atom-37 atom-38" d="M 505.2,242.2 L 519.2,255.0" style="fill:none;fill-rule:evenodd;stroke:#000000;stroke-width:2.0px;stroke-linecap:butt;stroke-linejoin:miter;stroke-opacity:1"/>
<path class="bond-45 atom-40 atom-41" d="M 385.8,76.9 L 379.2,70.8" style="fill:none;fill-rule:evenodd;stroke:#FF0000;stroke-width:2.0px;stroke-linecap:butt;stroke-linejoin:miter;stroke-opacity:1"/>
<path class="bond-45 atom-40 atom-41" d="M 379.2,70.8 L 372.6,64.6" style="fill:none;fill-rule:evenodd;stroke:#000000;stroke-width:2.0px;stroke-linecap:butt;stroke-linejoin:miter;stroke-opacity:1"/>
<path class="bond-46 atom-41 atom-44" d="M 372.6,64.6 L 360.9,76.9" style="fill:none;fill-rule:evenodd;stroke:#000000;stroke-width:2.0px;stroke-linecap:butt;stroke-linejoin:miter;stroke-opacity:1"/>
<path class="bond-47 atom-41 atom-43" d="M 372.6,64.6 L 353.2,60.3" style="fill:none;fill-rule:evenodd;stroke:#000000;stroke-width:2.0px;stroke-linecap:butt;stroke-linejoin:miter;stroke-opacity:1"/>
<path class="bond-48 atom-41 atom-42" d="M 372.6,64.6 L 376.6,46.7" style="fill:none;fill-rule:evenodd;stroke:#000000;stroke-width:2.0px;stroke-linecap:butt;stroke-linejoin:miter;stroke-opacity:1"/>
<path class="atom-1" d="M 470.1 143.5 L 473.5 149.1 Q 473.9 149.7, 474.4 150.7 Q 475.0 151.7, 475.0 151.7 L 475.0 143.5 L 476.4 143.5 L 476.4 154.1 L 475.0 154.1 L 471.3 148.0 Q 470.8 147.2, 470.4 146.4 Q 469.9 145.6, 469.8 145.3 L 469.8 154.1 L 468.4 154.1 L 468.4 143.5 L 470.1 143.5 " fill="#0000FF"/>
<path class="atom-1" d="M 477.7 145.4 L 479.5 145.4 L 479.5 143.4 L 480.4 143.4 L 480.4 145.4 L 482.3 145.4 L 482.3 146.1 L 480.4 146.1 L 480.4 148.1 L 479.5 148.1 L 479.5 146.1 L 477.7 146.1 L 477.7 145.4 " fill="#0000FF"/>
<path class="atom-2" d="M 520.4 181.8 Q 520.4 179.3, 521.6 177.9 Q 522.9 176.4, 525.2 176.4 Q 527.5 176.4, 528.8 177.9 Q 530.1 179.3, 530.1 181.8 Q 530.1 184.4, 528.8 185.8 Q 527.5 187.3, 525.2 187.3 Q 522.9 187.3, 521.6 185.8 Q 520.4 184.4, 520.4 181.8 M 525.2 186.1 Q 526.8 186.1, 527.7 185.0 Q 528.6 183.9, 528.6 181.8 Q 528.6 179.7, 527.7 178.7 Q 526.8 177.6, 525.2 177.6 Q 523.6 177.6, 522.7 178.7 Q 521.8 179.7, 521.8 181.8 Q 521.8 183.9, 522.7 185.0 Q 523.6 186.1, 525.2 186.1 " fill="#FF0000"/>
<path class="atom-4" d="M 509.7 136.6 L 513.1 142.2 Q 513.5 142.8, 514.0 143.8 Q 514.6 144.8, 514.6 144.8 L 514.6 136.6 L 516.0 136.6 L 516.0 147.2 L 514.6 147.2 L 510.8 141.1 Q 510.4 140.4, 510.0 139.5 Q 509.5 138.7, 509.4 138.5 L 509.4 147.2 L 508.0 147.2 L 508.0 136.6 L 509.7 136.6 " fill="#0000FF"/>
<path class="atom-6" d="M 484.0 99.9 L 487.4 105.5 Q 487.8 106.0, 488.3 107.0 Q 488.9 108.0, 488.9 108.1 L 488.9 99.9 L 490.3 99.9 L 490.3 110.5 L 488.9 110.5 L 485.1 104.3 Q 484.7 103.6, 484.2 102.8 Q 483.8 102.0, 483.7 101.7 L 483.7 110.5 L 482.3 110.5 L 482.3 99.9 L 484.0 99.9 " fill="#0000FF"/>
<path class="atom-19" d="M 354.4 133.2 L 357.9 138.8 Q 358.2 139.3, 358.8 140.3 Q 359.3 141.3, 359.3 141.4 L 359.3 133.2 L 360.8 133.2 L 360.8 143.8 L 359.3 143.8 L 355.6 137.6 Q 355.2 136.9, 354.7 136.1 Q 354.2 135.3, 354.1 135.0 L 354.1 143.8 L 352.7 143.8 L 352.7 133.2 L 354.4 133.2 " fill="#0000FF"/>
<path class="atom-20" d="M 340.4 93.1 L 341.8 93.1 L 341.8 97.6 L 347.2 97.6 L 347.2 93.1 L 348.6 93.1 L 348.6 103.7 L 347.2 103.7 L 347.2 98.8 L 341.8 98.8 L 341.8 103.7 L 340.4 103.7 L 340.4 93.1 " fill="#000000"/>
<path class="atom-21" d="M 365.2 174.4 L 366.7 174.4 L 366.7 178.9 L 372.1 178.9 L 372.1 174.4 L 373.5 174.4 L 373.5 185.0 L 372.1 185.0 L 372.1 180.1 L 366.7 180.1 L 366.7 185.0 L 365.2 185.0 L 365.2 174.4 " fill="#000000"/>
<path class="atom-22" d="M 420.7 109.3 L 422.2 109.3 L 422.2 113.8 L 427.6 113.8 L 427.6 109.3 L 429.0 109.3 L 429.0 119.8 L 427.6 119.8 L 427.6 115.0 L 422.2 115.0 L 422.2 119.8 L 420.7 119.8 L 420.7 109.3 " fill="#000000"/>
<path class="atom-23" d="M 437.0 120.6 L 438.4 120.6 L 438.4 125.1 L 443.8 125.1 L 443.8 120.6 L 445.3 120.6 L 445.3 131.2 L 443.8 131.2 L 443.8 126.3 L 438.4 126.3 L 438.4 131.2 L 437.0 131.2 L 437.0 120.6 " fill="#000000"/>
<path class="atom-24" d="M 380.8 193.5 L 382.2 193.5 L 382.2 198.0 L 387.6 198.0 L 387.6 193.5 L 389.1 193.5 L 389.1 204.1 L 387.6 204.1 L 387.6 199.2 L 382.2 199.2 L 382.2 204.1 L 380.8 204.1 L 380.8 193.5 " fill="#000000"/>
<path class="atom-25" d="M 465.6 203.4 L 467.0 203.4 L 467.0 207.9 L 472.4 207.9 L 472.4 203.4 L 473.9 203.4 L 473.9 214.0 L 472.4 214.0 L 472.4 209.1 L 467.0 209.1 L 467.0 214.0 L 465.6 214.0 L 465.6 203.4 " fill="#000000"/>
<path class="atom-26" d="M 420.3 223.9 L 421.7 223.9 L 421.7 228.4 L 427.1 228.4 L 427.1 223.9 L 428.5 223.9 L 428.5 234.4 L 427.1 234.4 L 427.1 229.6 L 421.7 229.6 L 421.7 234.4 L 420.3 234.4 L 420.3 223.9 " fill="#000000"/>
<path class="atom-27" d="M 502.5 85.1 L 503.9 85.1 L 503.9 89.6 L 509.3 89.6 L 509.3 85.1 L 510.7 85.1 L 510.7 95.6 L 509.3 95.6 L 509.3 90.8 L 503.9 90.8 L 503.9 95.6 L 502.5 95.6 L 502.5 85.1 " fill="#000000"/>
<path class="atom-28" d="M 459.4 89.3 L 460.8 89.3 L 460.8 93.8 L 466.2 93.8 L 466.2 89.3 L 467.7 89.3 L 467.7 99.9 L 466.2 99.9 L 466.2 95.0 L 460.8 95.0 L 460.8 99.9 L 459.4 99.9 L 459.4 89.3 " fill="#000000"/>
<path class="atom-29" d="M 544.7 103.8 L 546.1 103.8 L 546.1 108.3 L 551.5 108.3 L 551.5 103.8 L 552.9 103.8 L 552.9 114.4 L 551.5 114.4 L 551.5 109.5 L 546.1 109.5 L 546.1 114.4 L 544.7 114.4 L 544.7 103.8 " fill="#000000"/>
<path class="atom-30" d="M 551.4 138.2 L 552.8 138.2 L 552.8 142.7 L 558.2 142.7 L 558.2 138.2 L 559.6 138.2 L 559.6 148.8 L 558.2 148.8 L 558.2 143.9 L 552.8 143.9 L 552.8 148.8 L 551.4 148.8 L 551.4 138.2 " fill="#000000"/>
<path class="atom-31" d="M 519.6 102.1 L 521.1 102.1 L 521.1 106.6 L 526.5 106.6 L 526.5 102.1 L 527.9 102.1 L 527.9 112.7 L 526.5 112.7 L 526.5 107.8 L 521.1 107.8 L 521.1 112.7 L 519.6 112.7 L 519.6 102.1 " fill="#000000"/>
<path class="atom-33" d="M 538.1 227.8 L 539.5 227.8 L 539.5 232.3 L 544.9 232.3 L 544.9 227.8 L 546.4 227.8 L 546.4 238.4 L 544.9 238.4 L 544.9 233.5 L 539.5 233.5 L 539.5 238.4 L 538.1 238.4 L 538.1 227.8 " fill="#000000"/>
<path class="atom-34" d="M 521.4 196.3 L 522.9 196.3 L 522.9 200.8 L 528.3 200.8 L 528.3 196.3 L 529.7 196.3 L 529.7 206.9 L 528.3 206.9 L 528.3 202.0 L 522.9 202.0 L 522.9 206.9 L 521.4 206.9 L 521.4 196.3 " fill="#000000"/>
<path class="atom-36" d="M 467.4 224.2 L 468.9 224.2 L 468.9 228.6 L 474.3 228.6 L 474.3 224.2 L 475.7 224.2 L 475.7 234.7 L 474.3 234.7 L 474.3 229.8 L 468.9 229.8 L 468.9 234.7 L 467.4 234.7 L 467.4 224.2 " fill="#000000"/>
<path class="atom-38" d="M 520.1 254.2 L 521.5 254.2 L 521.5 258.7 L 526.9 258.7 L 526.9 254.2 L 528.4 254.2 L 528.4 264.7 L 526.9 264.7 L 526.9 259.9 L 521.5 259.9 L 521.5 264.7 L 520.1 264.7 L 520.1 254.2 " fill="#000000"/>
<path class="atom-39" d="M 481.7 253.2 L 483.1 253.2 L 483.1 257.7 L 488.5 257.7 L 488.5 253.2 L 490.0 253.2 L 490.0 263.8 L 488.5 263.8 L 488.5 258.9 L 483.1 258.9 L 483.1 263.8 L 481.7 263.8 L 481.7 253.2 " fill="#000000"/>
<path class="atom-40" d="M 386.6 82.2 Q 386.6 79.7, 387.9 78.3 Q 389.1 76.8, 391.5 76.8 Q 393.8 76.8, 395.1 78.3 Q 396.3 79.7, 396.3 82.2 Q 396.3 84.8, 395.0 86.2 Q 393.8 87.7, 391.5 87.7 Q 389.1 87.7, 387.9 86.2 Q 386.6 84.8, 386.6 82.2 M 391.5 86.5 Q 393.1 86.5, 393.9 85.4 Q 394.8 84.3, 394.8 82.2 Q 394.8 80.1, 393.9 79.1 Q 393.1 78.0, 391.5 78.0 Q 389.8 78.0, 389.0 79.1 Q 388.1 80.1, 388.1 82.2 Q 388.1 84.4, 389.0 85.4 Q 389.8 86.5, 391.5 86.5 " fill="#FF0000"/>
<path class="atom-42" d="M 373.8 35.3 L 375.3 35.3 L 375.3 39.7 L 380.7 39.7 L 380.7 35.3 L 382.1 35.3 L 382.1 45.8 L 380.7 45.8 L 380.7 40.9 L 375.3 40.9 L 375.3 45.8 L 373.8 45.8 L 373.8 35.3 " fill="#000000"/>
<path class="atom-43" d="M 344.1 53.9 L 345.6 53.9 L 345.6 58.4 L 351.0 58.4 L 351.0 53.9 L 352.4 53.9 L 352.4 64.5 L 351.0 64.5 L 351.0 59.6 L 345.6 59.6 L 345.6 64.5 L 344.1 64.5 L 344.1 53.9 " fill="#000000"/>
<path class="atom-44" d="M 351.8 76.8 L 353.3 76.8 L 353.3 81.3 L 358.7 81.3 L 358.7 76.8 L 360.1 76.8 L 360.1 87.4 L 358.7 87.4 L 358.7 82.5 L 353.3 82.5 L 353.3 87.4 L 351.8 87.4 L 351.8 76.8 " fill="#000000"/>
<path class="atom-45" d="M 452.9 138.1 L 454.4 138.1 L 454.4 142.6 L 459.8 142.6 L 459.8 138.1 L 461.2 138.1 L 461.2 148.6 L 459.8 148.6 L 459.8 143.8 L 454.4 143.8 L 454.4 148.6 L 452.9 148.6 L 452.9 138.1 " fill="#000000"/>
<text x="300" y="20" font-size="20" font-family="sans-serif" font-weight="normal" letter-spacing="0" text-anchor="middle" fill="black">bace CAT-17b -&gt; CAT-17e </text><text x="150" y="285" font-size="15" font-family="sans-serif" font-weight="normal" letter-spacing="0" text-anchor="middle" fill="black">CAT-17b</text><text x="450" y="285" font-size="15" font-family="sans-serif" font-weight="normal" letter-spacing="0" text-anchor="middle" fill="black">CAT-17e</text></svg>
