<?xml version='1.0' encoding='ASCII' standalone='yes'?>
<svg xmlns="http://www.w3.org/2000/svg" xmlns:rdkit="http://www.rdkit.org/xml" xmlns:xlink="http://www.w3.org/1999/xlink" version="1.1" baseProfile="full" xml:space="preserve" width="600px" height="300px" viewBox="0 0 600 300">
<!-- END OF HEADER -->
<rect style="opacity:1.0;fill:#FFFFFF;stroke:none" width="600.0" height="300.0" x="0.0" y="0.0"> </rect>
<ellipse cx="205.8" cy="249.6" rx="7.9" ry="7.9" class="atom-9" style="fill:#DC3369;fill-rule:evenodd;stroke:#DC3369;stroke-width:1.0px;stroke-linecap:butt;stroke-linejoin:miter;stroke-opacity:1"/>
<ellipse cx="48.4" cy="191.2" rx="7.9" ry="7.9" class="atom-39" style="fill:#DC3369;fill-rule:evenodd;stroke:#DC3369;stroke-width:1.0px;stroke-linecap:butt;stroke-linejoin:miter;stroke-opacity:1"/>
<ellipse cx="67.7" cy="228.1" rx="7.9" ry="7.9" class="atom-40" style="fill:#DC3369;fill-rule:evenodd;stroke:#DC3369;stroke-width:1.0px;stroke-linecap:butt;stroke-linejoin:miter;stroke-opacity:1"/>
<ellipse cx="76.6" cy="152.1" rx="7.9" ry="7.9" class="atom-44" style="fill:#DC3369;fill-rule:evenodd;stroke:#DC3369;stroke-width:1.0px;stroke-linecap:butt;stroke-linejoin:miter;stroke-opacity:1"/>
<path class="bond-0 atom-0 atom-2" d="M 129.1,183.7 L 133.8,185.5" style="fill:none;fill-rule:evenodd;stroke:#000000;stroke-width:2.0px;stroke-linecap:butt;stroke-linejoin:miter;stroke-opacity:1"/>
<path class="bond-0 atom-0 atom-2" d="M 133.8,185.5 L 138.5,187.3" style="fill:none;fill-rule:evenodd;stroke:#FF0000;stroke-width:2.0px;stroke-linecap:butt;stroke-linejoin:miter;stroke-opacity:1"/>
<path class="bond-0 atom-0 atom-2" d="M 127.6,187.7 L 132.2,189.5" style="fill:none;fill-rule:evenodd;stroke:#000000;stroke-width:2.0px;stroke-linecap:butt;stroke-linejoin:miter;stroke-opacity:1"/>
<path class="bond-0 atom-0 atom-2" d="M 132.2,189.5 L 136.9,191.3" style="fill:none;fill-rule:evenodd;stroke:#FF0000;stroke-width:2.0px;stroke-linecap:butt;stroke-linejoin:miter;stroke-opacity:1"/>
<path class="bond-1 atom-0 atom-3" d="M 128.3,185.7 L 117.3,164.4" style="fill:none;fill-rule:evenodd;stroke:#000000;stroke-width:2.0px;stroke-linecap:butt;stroke-linejoin:miter;stroke-opacity:1"/>
<path class="bond-2 atom-0 atom-4" d="M 128.3,185.7 L 122.3,191.8" style="fill:none;fill-rule:evenodd;stroke:#000000;stroke-width:2.0px;stroke-linecap:butt;stroke-linejoin:miter;stroke-opacity:1"/>
<path class="bond-2 atom-0 atom-4" d="M 122.3,191.8 L 116.3,198.0" style="fill:none;fill-rule:evenodd;stroke:#0000FF;stroke-width:2.0px;stroke-linecap:butt;stroke-linejoin:miter;stroke-opacity:1"/>
<path class="bond-3 atom-1 atom-3" d="M 104.1,166.6 L 110.7,165.5" style="fill:none;fill-rule:evenodd;stroke:#0000FF;stroke-width:2.0px;stroke-linecap:butt;stroke-linejoin:miter;stroke-opacity:1"/>
<path class="bond-3 atom-1 atom-3" d="M 110.7,165.5 L 117.3,164.4" style="fill:none;fill-rule:evenodd;stroke:#000000;stroke-width:2.0px;stroke-linecap:butt;stroke-linejoin:miter;stroke-opacity:1"/>
<path class="bond-4 atom-1 atom-5" d="M 93.0,174.2 L 91.7,183.1" style="fill:none;fill-rule:evenodd;stroke:#0000FF;stroke-width:2.0px;stroke-linecap:butt;stroke-linejoin:miter;stroke-opacity:1"/>
<path class="bond-4 atom-1 atom-5" d="M 91.7,183.1 L 90.3,192.0" style="fill:none;fill-rule:evenodd;stroke:#000000;stroke-width:2.0px;stroke-linecap:butt;stroke-linejoin:miter;stroke-opacity:1"/>
<path class="bond-4 atom-1 atom-5" d="M 96.8,177.5 L 95.9,183.8" style="fill:none;fill-rule:evenodd;stroke:#0000FF;stroke-width:2.0px;stroke-linecap:butt;stroke-linejoin:miter;stroke-opacity:1"/>
<path class="bond-4 atom-1 atom-5" d="M 95.9,183.8 L 95.0,190.0" style="fill:none;fill-rule:evenodd;stroke:#000000;stroke-width:2.0px;stroke-linecap:butt;stroke-linejoin:miter;stroke-opacity:1"/>
<path class="bond-5 atom-1 atom-44" d="M 89.2,164.0 L 85.3,160.3" style="fill:none;fill-rule:evenodd;stroke:#0000FF;stroke-width:2.0px;stroke-linecap:butt;stroke-linejoin:miter;stroke-opacity:1"/>
<path class="bond-5 atom-1 atom-44" d="M 85.3,160.3 L 81.4,156.6" style="fill:none;fill-rule:evenodd;stroke:#000000;stroke-width:2.0px;stroke-linecap:butt;stroke-linejoin:miter;stroke-opacity:1"/>
<path class="bond-6 atom-3 atom-16" d="M 123.2,165.0 L 123.2,164.0" style="fill:none;fill-rule:evenodd;stroke:#000000;stroke-width:1.0px;stroke-linecap:butt;stroke-linejoin:miter;stroke-opacity:1"/>
<path class="bond-6 atom-3 atom-16" d="M 129.1,165.7 L 129.1,163.7" style="fill:none;fill-rule:evenodd;stroke:#000000;stroke-width:1.0px;stroke-linecap:butt;stroke-linejoin:miter;stroke-opacity:1"/>
<path class="bond-6 atom-3 atom-16" d="M 135.0,166.3 L 135.0,163.3" style="fill:none;fill-rule:evenodd;stroke:#000000;stroke-width:1.0px;stroke-linecap:butt;stroke-linejoin:miter;stroke-opacity:1"/>
<path class="bond-6 atom-3 atom-16" d="M 140.9,166.9 L 141.0,163.0" style="fill:none;fill-rule:evenodd;stroke:#000000;stroke-width:1.0px;stroke-linecap:butt;stroke-linejoin:miter;stroke-opacity:1"/>
<path class="bond-6 atom-3 atom-16" d="M 146.7,167.6 L 146.9,162.6" style="fill:none;fill-rule:evenodd;stroke:#000000;stroke-width:1.0px;stroke-linecap:butt;stroke-linejoin:miter;stroke-opacity:1"/>
<path class="bond-7 atom-3 atom-10" d="M 117.3,164.4 L 105.7,110.1" style="fill:none;fill-rule:evenodd;stroke:#000000;stroke-width:2.0px;stroke-linecap:butt;stroke-linejoin:miter;stroke-opacity:1"/>
<path class="bond-8 atom-4 atom-7" d="M 112.4,208.6 L 113.6,218.4" style="fill:none;fill-rule:evenodd;stroke:#0000FF;stroke-width:2.0px;stroke-linecap:butt;stroke-linejoin:miter;stroke-opacity:1"/>
<path class="bond-8 atom-4 atom-7" d="M 113.6,218.4 L 114.8,228.3" style="fill:none;fill-rule:evenodd;stroke:#000000;stroke-width:2.0px;stroke-linecap:butt;stroke-linejoin:miter;stroke-opacity:1"/>
<path class="bond-9 atom-4 atom-5" d="M 107.0,200.4 L 98.7,196.2" style="fill:none;fill-rule:evenodd;stroke:#0000FF;stroke-width:2.0px;stroke-linecap:butt;stroke-linejoin:miter;stroke-opacity:1"/>
<path class="bond-9 atom-4 atom-5" d="M 98.7,196.2 L 90.3,192.0" style="fill:none;fill-rule:evenodd;stroke:#000000;stroke-width:2.0px;stroke-linecap:butt;stroke-linejoin:miter;stroke-opacity:1"/>
<path class="bond-10 atom-5 atom-6" d="M 90.3,192.0 L 81.8,196.6" style="fill:none;fill-rule:evenodd;stroke:#000000;stroke-width:2.0px;stroke-linecap:butt;stroke-linejoin:miter;stroke-opacity:1"/>
<path class="bond-10 atom-5 atom-6" d="M 81.8,196.6 L 73.3,201.2" style="fill:none;fill-rule:evenodd;stroke:#0000FF;stroke-width:2.0px;stroke-linecap:butt;stroke-linejoin:miter;stroke-opacity:1"/>
<path class="bond-11 atom-6 atom-39" d="M 64.0,200.9 L 58.6,197.5" style="fill:none;fill-rule:evenodd;stroke:#0000FF;stroke-width:2.0px;stroke-linecap:butt;stroke-linejoin:miter;stroke-opacity:1"/>
<path class="bond-11 atom-6 atom-39" d="M 58.6,197.5 L 53.2,194.2" style="fill:none;fill-rule:evenodd;stroke:#000000;stroke-width:2.0px;stroke-linecap:butt;stroke-linejoin:miter;stroke-opacity:1"/>
<path class="bond-12 atom-6 atom-40" d="M 68.4,209.7 L 68.2,215.9" style="fill:none;fill-rule:evenodd;stroke:#0000FF;stroke-width:2.0px;stroke-linecap:butt;stroke-linejoin:miter;stroke-opacity:1"/>
<path class="bond-12 atom-6 atom-40" d="M 68.2,215.9 L 67.9,222.2" style="fill:none;fill-rule:evenodd;stroke:#000000;stroke-width:2.0px;stroke-linecap:butt;stroke-linejoin:miter;stroke-opacity:1"/>
<path class="bond-13 atom-7 atom-43" d="M 114.8,228.3 L 95.7,230.5" style="fill:none;fill-rule:evenodd;stroke:#000000;stroke-width:2.0px;stroke-linecap:butt;stroke-linejoin:miter;stroke-opacity:1"/>
<path class="bond-14 atom-7 atom-41" d="M 114.8,228.3 L 107.3,244.6" style="fill:none;fill-rule:evenodd;stroke:#000000;stroke-width:2.0px;stroke-linecap:butt;stroke-linejoin:miter;stroke-opacity:1"/>
<path class="bond-15 atom-7 atom-42" d="M 114.8,228.3 L 131.8,236.4" style="fill:none;fill-rule:evenodd;stroke:#000000;stroke-width:2.0px;stroke-linecap:butt;stroke-linejoin:miter;stroke-opacity:1"/>
<path class="bond-16 atom-8 atom-22" d="M 211.2,226.3 L 234.1,219.5" style="fill:none;fill-rule:evenodd;stroke:#000000;stroke-width:2.0px;stroke-linecap:butt;stroke-linejoin:miter;stroke-opacity:1"/>
<path class="bond-16 atom-8 atom-22" d="M 213.4,221.2 L 229.4,216.4" style="fill:none;fill-rule:evenodd;stroke:#000000;stroke-width:2.0px;stroke-linecap:butt;stroke-linejoin:miter;stroke-opacity:1"/>
<path class="bond-17 atom-8 atom-24" d="M 211.2,226.3 L 193.9,209.8" style="fill:none;fill-rule:evenodd;stroke:#000000;stroke-width:2.0px;stroke-linecap:butt;stroke-linejoin:miter;stroke-opacity:1"/>
<path class="bond-18 atom-8 atom-9" d="M 211.2,226.3 L 207.1,243.7" style="fill:none;fill-rule:evenodd;stroke:#000000;stroke-width:2.0px;stroke-linecap:butt;stroke-linejoin:miter;stroke-opacity:1"/>
<path class="bond-19 atom-10 atom-15" d="M 105.7,110.1 L 82.8,102.8" style="fill:none;fill-rule:evenodd;stroke:#000000;stroke-width:2.0px;stroke-linecap:butt;stroke-linejoin:miter;stroke-opacity:1"/>
<path class="bond-20 atom-10 atom-11" d="M 105.7,110.1 L 123.2,93.8" style="fill:none;fill-rule:evenodd;stroke:#000000;stroke-width:2.0px;stroke-linecap:butt;stroke-linejoin:miter;stroke-opacity:1"/>
<path class="bond-20 atom-10 atom-11" d="M 105.4,104.5 L 117.7,93.1" style="fill:none;fill-rule:evenodd;stroke:#000000;stroke-width:2.0px;stroke-linecap:butt;stroke-linejoin:miter;stroke-opacity:1"/>
<path class="bond-21 atom-11 atom-12" d="M 123.2,93.8 L 118.1,70.3" style="fill:none;fill-rule:evenodd;stroke:#000000;stroke-width:2.0px;stroke-linecap:butt;stroke-linejoin:miter;stroke-opacity:1"/>
<path class="bond-22 atom-11 atom-38" d="M 123.2,93.8 L 141.3,99.6" style="fill:none;fill-rule:evenodd;stroke:#000000;stroke-width:2.0px;stroke-linecap:butt;stroke-linejoin:miter;stroke-opacity:1"/>
<path class="bond-23 atom-12 atom-13" d="M 118.1,70.3 L 95.2,63.1" style="fill:none;fill-rule:evenodd;stroke:#000000;stroke-width:2.0px;stroke-linecap:butt;stroke-linejoin:miter;stroke-opacity:1"/>
<path class="bond-23 atom-12 atom-13" d="M 113.4,73.3 L 97.4,68.3" style="fill:none;fill-rule:evenodd;stroke:#000000;stroke-width:2.0px;stroke-linecap:butt;stroke-linejoin:miter;stroke-opacity:1"/>
<path class="bond-24 atom-12 atom-35" d="M 118.1,70.3 L 131.0,58.6" style="fill:none;fill-rule:evenodd;stroke:#000000;stroke-width:2.0px;stroke-linecap:butt;stroke-linejoin:miter;stroke-opacity:1"/>
<path class="bond-25 atom-13 atom-14" d="M 95.2,63.1 L 77.5,79.3" style="fill:none;fill-rule:evenodd;stroke:#000000;stroke-width:2.0px;stroke-linecap:butt;stroke-linejoin:miter;stroke-opacity:1"/>
<path class="bond-26 atom-13 atom-37" d="M 95.2,63.1 L 91.4,45.6" style="fill:none;fill-rule:evenodd;stroke:#000000;stroke-width:2.0px;stroke-linecap:butt;stroke-linejoin:miter;stroke-opacity:1"/>
<path class="bond-27 atom-14 atom-36" d="M 77.5,79.3 L 59.6,73.5" style="fill:none;fill-rule:evenodd;stroke:#000000;stroke-width:2.0px;stroke-linecap:butt;stroke-linejoin:miter;stroke-opacity:1"/>
<path class="bond-28 atom-14 atom-15" d="M 77.5,79.3 L 82.8,102.8" style="fill:none;fill-rule:evenodd;stroke:#000000;stroke-width:2.0px;stroke-linecap:butt;stroke-linejoin:miter;stroke-opacity:1"/>
<path class="bond-28 atom-14 atom-15" d="M 82.5,81.9 L 86.2,98.3" style="fill:none;fill-rule:evenodd;stroke:#000000;stroke-width:2.0px;stroke-linecap:butt;stroke-linejoin:miter;stroke-opacity:1"/>
<path class="bond-29 atom-15 atom-34" d="M 82.8,102.8 L 69.8,114.5" style="fill:none;fill-rule:evenodd;stroke:#000000;stroke-width:2.0px;stroke-linecap:butt;stroke-linejoin:miter;stroke-opacity:1"/>
<path class="bond-30 atom-16 atom-17" d="M 146.8,165.1 L 150.1,141.6" style="fill:none;fill-rule:evenodd;stroke:#000000;stroke-width:2.0px;stroke-linecap:butt;stroke-linejoin:miter;stroke-opacity:1"/>
<path class="bond-30 atom-16 atom-17" d="M 151.6,162.2 L 153.9,145.7" style="fill:none;fill-rule:evenodd;stroke:#000000;stroke-width:2.0px;stroke-linecap:butt;stroke-linejoin:miter;stroke-opacity:1"/>
<path class="bond-31 atom-16 atom-21" d="M 146.8,165.1 L 165.7,180.1" style="fill:none;fill-rule:evenodd;stroke:#000000;stroke-width:2.0px;stroke-linecap:butt;stroke-linejoin:miter;stroke-opacity:1"/>
<path class="bond-32 atom-17 atom-18" d="M 150.1,141.6 L 172.2,132.7" style="fill:none;fill-rule:evenodd;stroke:#000000;stroke-width:2.0px;stroke-linecap:butt;stroke-linejoin:miter;stroke-opacity:1"/>
<path class="bond-33 atom-17 atom-32" d="M 150.1,141.6 L 135.3,130.6" style="fill:none;fill-rule:evenodd;stroke:#000000;stroke-width:2.0px;stroke-linecap:butt;stroke-linejoin:miter;stroke-opacity:1"/>
<path class="bond-34 atom-18 atom-33" d="M 172.2,132.7 L 174.1,114.7" style="fill:none;fill-rule:evenodd;stroke:#000000;stroke-width:2.0px;stroke-linecap:butt;stroke-linejoin:miter;stroke-opacity:1"/>
<path class="bond-35 atom-18 atom-19" d="M 172.2,132.7 L 191.2,147.4" style="fill:none;fill-rule:evenodd;stroke:#000000;stroke-width:2.0px;stroke-linecap:butt;stroke-linejoin:miter;stroke-opacity:1"/>
<path class="bond-35 atom-18 atom-19" d="M 172.4,138.3 L 185.7,148.6" style="fill:none;fill-rule:evenodd;stroke:#000000;stroke-width:2.0px;stroke-linecap:butt;stroke-linejoin:miter;stroke-opacity:1"/>
<path class="bond-36 atom-19 atom-31" d="M 191.2,147.4 L 207.8,140.1" style="fill:none;fill-rule:evenodd;stroke:#000000;stroke-width:2.0px;stroke-linecap:butt;stroke-linejoin:miter;stroke-opacity:1"/>
<path class="bond-37 atom-19 atom-20" d="M 191.2,147.4 L 187.8,171.2" style="fill:none;fill-rule:evenodd;stroke:#000000;stroke-width:2.0px;stroke-linecap:butt;stroke-linejoin:miter;stroke-opacity:1"/>
<path class="bond-38 atom-20 atom-25" d="M 187.8,171.2 L 199.5,186.5" style="fill:none;fill-rule:evenodd;stroke:#000000;stroke-width:2.0px;stroke-linecap:butt;stroke-linejoin:miter;stroke-opacity:1"/>
<path class="bond-39 atom-20 atom-21" d="M 187.8,171.2 L 165.7,180.1" style="fill:none;fill-rule:evenodd;stroke:#000000;stroke-width:2.0px;stroke-linecap:butt;stroke-linejoin:miter;stroke-opacity:1"/>
<path class="bond-39 atom-20 atom-21" d="M 182.8,168.5 L 167.4,174.7" style="fill:none;fill-rule:evenodd;stroke:#000000;stroke-width:2.0px;stroke-linecap:butt;stroke-linejoin:miter;stroke-opacity:1"/>
<path class="bond-40 atom-21 atom-30" d="M 165.7,180.1 L 160.1,202.2" style="fill:none;fill-rule:evenodd;stroke:#000000;stroke-width:2.0px;stroke-linecap:butt;stroke-linejoin:miter;stroke-opacity:1"/>
<path class="bond-41 atom-22 atom-28" d="M 234.1,219.5 L 236.2,210.8" style="fill:none;fill-rule:evenodd;stroke:#000000;stroke-width:2.0px;stroke-linecap:butt;stroke-linejoin:miter;stroke-opacity:1"/>
<path class="bond-41 atom-22 atom-28" d="M 236.2,210.8 L 238.3,202.2" style="fill:none;fill-rule:evenodd;stroke:#0000FF;stroke-width:2.0px;stroke-linecap:butt;stroke-linejoin:miter;stroke-opacity:1"/>
<path class="bond-42 atom-22 atom-23" d="M 234.1,219.5 L 246.8,231.4" style="fill:none;fill-rule:evenodd;stroke:#000000;stroke-width:2.0px;stroke-linecap:butt;stroke-linejoin:miter;stroke-opacity:1"/>
<path class="bond-43 atom-24 atom-25" d="M 193.9,209.8 L 199.5,186.5" style="fill:none;fill-rule:evenodd;stroke:#000000;stroke-width:2.0px;stroke-linecap:butt;stroke-linejoin:miter;stroke-opacity:1"/>
<path class="bond-43 atom-24 atom-25" d="M 198.9,207.3 L 202.9,191.0" style="fill:none;fill-rule:evenodd;stroke:#000000;stroke-width:2.0px;stroke-linecap:butt;stroke-linejoin:miter;stroke-opacity:1"/>
<path class="bond-44 atom-24 atom-29" d="M 193.9,209.8 L 179.1,216.7" style="fill:none;fill-rule:evenodd;stroke:#000000;stroke-width:2.0px;stroke-linecap:butt;stroke-linejoin:miter;stroke-opacity:1"/>
<path class="bond-45 atom-25 atom-26" d="M 199.5,186.5 L 222.4,179.8" style="fill:none;fill-rule:evenodd;stroke:#000000;stroke-width:2.0px;stroke-linecap:butt;stroke-linejoin:miter;stroke-opacity:1"/>
<path class="bond-46 atom-26 atom-27" d="M 222.4,179.8 L 226.5,162.4" style="fill:none;fill-rule:evenodd;stroke:#000000;stroke-width:2.0px;stroke-linecap:butt;stroke-linejoin:miter;stroke-opacity:1"/>
<path class="bond-47 atom-26 atom-28" d="M 222.4,179.8 L 228.7,185.8" style="fill:none;fill-rule:evenodd;stroke:#000000;stroke-width:2.0px;stroke-linecap:butt;stroke-linejoin:miter;stroke-opacity:1"/>
<path class="bond-47 atom-26 atom-28" d="M 228.7,185.8 L 235.1,191.8" style="fill:none;fill-rule:evenodd;stroke:#0000FF;stroke-width:2.0px;stroke-linecap:butt;stroke-linejoin:miter;stroke-opacity:1"/>
<path class="bond-47 atom-26 atom-28" d="M 221.4,184.7 L 225.8,188.9" style="fill:none;fill-rule:evenodd;stroke:#000000;stroke-width:2.0px;stroke-linecap:butt;stroke-linejoin:miter;stroke-opacity:1"/>
<path class="bond-47 atom-26 atom-28" d="M 225.8,188.9 L 230.2,193.2" style="fill:none;fill-rule:evenodd;stroke:#0000FF;stroke-width:2.0px;stroke-linecap:butt;stroke-linejoin:miter;stroke-opacity:1"/>
<path class="atom-1" d="M 91.6 163.3 L 94.9 168.6 Q 95.3 169.2, 95.8 170.1 Q 96.3 171.1, 96.4 171.2 L 96.4 163.3 L 97.7 163.3 L 97.7 173.4 L 96.3 173.4 L 92.7 167.5 Q 92.3 166.8, 91.9 166.1 Q 91.4 165.3, 91.3 165.0 L 91.3 173.4 L 90.0 173.4 L 90.0 163.3 L 91.6 163.3 " fill="#0000FF"/>
<path class="atom-1" d="M 98.9 165.1 L 100.7 165.1 L 100.7 163.2 L 101.5 163.2 L 101.5 165.1 L 103.3 165.1 L 103.3 165.8 L 101.5 165.8 L 101.5 167.7 L 100.7 167.7 L 100.7 165.8 L 98.9 165.8 L 98.9 165.1 " fill="#0000FF"/>
<path class="atom-2" d="M 138.5 191.4 Q 138.5 189.0, 139.7 187.6 Q 140.9 186.3, 143.2 186.3 Q 145.4 186.3, 146.6 187.6 Q 147.8 189.0, 147.8 191.4 Q 147.8 193.9, 146.6 195.3 Q 145.4 196.7, 143.2 196.7 Q 140.9 196.7, 139.7 195.3 Q 138.5 193.9, 138.5 191.4 M 143.2 195.5 Q 144.7 195.5, 145.6 194.5 Q 146.4 193.5, 146.4 191.4 Q 146.4 189.4, 145.6 188.4 Q 144.7 187.4, 143.2 187.4 Q 141.6 187.4, 140.8 188.4 Q 140.0 189.4, 140.0 191.4 Q 140.0 193.5, 140.8 194.5 Q 141.6 195.5, 143.2 195.5 " fill="#FF0000"/>
<path class="atom-4" d="M 109.4 197.7 L 112.7 203.0 Q 113.1 203.6, 113.6 204.5 Q 114.1 205.5, 114.2 205.6 L 114.2 197.7 L 115.5 197.7 L 115.5 207.8 L 114.1 207.8 L 110.5 201.9 Q 110.1 201.2, 109.7 200.5 Q 109.2 199.7, 109.1 199.4 L 109.1 207.8 L 107.8 207.8 L 107.8 197.7 L 109.4 197.7 " fill="#0000FF"/>
<path class="atom-6" d="M 66.4 198.7 L 69.8 204.1 Q 70.1 204.6, 70.6 205.6 Q 71.1 206.5, 71.2 206.6 L 71.2 198.7 L 72.5 198.7 L 72.5 208.8 L 71.1 208.8 L 67.6 203.0 Q 67.1 202.3, 66.7 201.5 Q 66.3 200.7, 66.1 200.5 L 66.1 208.8 L 64.8 208.8 L 64.8 198.7 L 66.4 198.7 " fill="#0000FF"/>
<path class="atom-9" d="M 201.8 244.5 L 203.2 244.5 L 203.2 248.8 L 208.4 248.8 L 208.4 244.5 L 209.7 244.5 L 209.7 254.7 L 208.4 254.7 L 208.4 250.0 L 203.2 250.0 L 203.2 254.7 L 201.8 254.7 L 201.8 244.5 " fill="#000000"/>
<path class="atom-23" d="M 247.6 230.8 L 249.0 230.8 L 249.0 235.1 L 254.2 235.1 L 254.2 230.8 L 255.6 230.8 L 255.6 240.9 L 254.2 240.9 L 254.2 236.2 L 249.0 236.2 L 249.0 240.9 L 247.6 240.9 L 247.6 230.8 " fill="#000000"/>
<path class="atom-27" d="M 223.9 151.4 L 225.3 151.4 L 225.3 155.7 L 230.5 155.7 L 230.5 151.4 L 231.9 151.4 L 231.9 161.6 L 230.5 161.6 L 230.5 156.9 L 225.3 156.9 L 225.3 161.6 L 223.9 161.6 L 223.9 151.4 " fill="#000000"/>
<path class="atom-28" d="M 237.5 191.2 L 240.8 196.6 Q 241.1 197.1, 241.7 198.1 Q 242.2 199.0, 242.2 199.1 L 242.2 191.2 L 243.6 191.2 L 243.6 201.3 L 242.2 201.3 L 238.6 195.5 Q 238.2 194.8, 237.8 194.0 Q 237.3 193.2, 237.2 193.0 L 237.2 201.3 L 235.9 201.3 L 235.9 191.2 L 237.5 191.2 " fill="#0000FF"/>
<path class="atom-29" d="M 170.4 213.8 L 171.8 213.8 L 171.8 218.2 L 176.9 218.2 L 176.9 213.8 L 178.3 213.8 L 178.3 224.0 L 176.9 224.0 L 176.9 219.3 L 171.8 219.3 L 171.8 224.0 L 170.4 224.0 L 170.4 213.8 " fill="#000000"/>
<path class="atom-30" d="M 154.6 203.0 L 156.0 203.0 L 156.0 207.4 L 161.2 207.4 L 161.2 203.0 L 162.5 203.0 L 162.5 213.2 L 161.2 213.2 L 161.2 208.5 L 156.0 208.5 L 156.0 213.2 L 154.6 213.2 L 154.6 203.0 " fill="#000000"/>
<path class="atom-31" d="M 208.6 133.0 L 210.0 133.0 L 210.0 137.3 L 215.2 137.3 L 215.2 133.0 L 216.6 133.0 L 216.6 143.1 L 215.2 143.1 L 215.2 138.4 L 210.0 138.4 L 210.0 143.1 L 208.6 143.1 L 208.6 133.0 " fill="#000000"/>
<path class="atom-32" d="M 126.5 121.9 L 127.9 121.9 L 127.9 126.3 L 133.1 126.3 L 133.1 121.9 L 134.5 121.9 L 134.5 132.1 L 133.1 132.1 L 133.1 127.4 L 127.9 127.4 L 127.9 132.1 L 126.5 132.1 L 126.5 121.9 " fill="#000000"/>
<path class="atom-33" d="M 170.7 103.7 L 172.1 103.7 L 172.1 108.1 L 177.3 108.1 L 177.3 103.7 L 178.6 103.7 L 178.6 113.9 L 177.3 113.9 L 177.3 109.2 L 172.1 109.2 L 172.1 113.9 L 170.7 113.9 L 170.7 103.7 " fill="#000000"/>
<path class="atom-34" d="M 61.1 113.8 L 62.5 113.8 L 62.5 118.1 L 67.7 118.1 L 67.7 113.8 L 69.0 113.8 L 69.0 123.9 L 67.7 123.9 L 67.7 119.3 L 62.5 119.3 L 62.5 123.9 L 61.1 123.9 L 61.1 113.8 " fill="#000000"/>
<path class="atom-35" d="M 131.8 49.2 L 133.2 49.2 L 133.2 53.5 L 138.4 53.5 L 138.4 49.2 L 139.8 49.2 L 139.8 59.3 L 138.4 59.3 L 138.4 54.6 L 133.2 54.6 L 133.2 59.3 L 131.8 59.3 L 131.8 49.2 " fill="#000000"/>
<path class="atom-36" d="M 50.8 66.9 L 52.2 66.9 L 52.2 71.3 L 57.4 71.3 L 57.4 66.9 L 58.7 66.9 L 58.7 77.1 L 57.4 77.1 L 57.4 72.4 L 52.2 72.4 L 52.2 77.1 L 50.8 77.1 L 50.8 66.9 " fill="#000000"/>
<path class="atom-37" d="M 86.2 34.6 L 87.5 34.6 L 87.5 38.9 L 92.7 38.9 L 92.7 34.6 L 94.1 34.6 L 94.1 44.8 L 92.7 44.8 L 92.7 40.1 L 87.5 40.1 L 87.5 44.8 L 86.2 44.8 L 86.2 34.6 " fill="#000000"/>
<path class="atom-38" d="M 142.1 96.0 L 143.5 96.0 L 143.5 100.3 L 148.6 100.3 L 148.6 96.0 L 150.0 96.0 L 150.0 106.2 L 148.6 106.2 L 148.6 101.5 L 143.5 101.5 L 143.5 106.2 L 142.1 106.2 L 142.1 96.0 " fill="#000000"/>
<path class="atom-39" d="M 44.4 186.2 L 45.8 186.2 L 45.8 190.5 L 51.0 190.5 L 51.0 186.2 L 52.4 186.2 L 52.4 196.3 L 51.0 196.3 L 51.0 191.6 L 45.8 191.6 L 45.8 196.3 L 44.4 196.3 L 44.4 186.2 " fill="#000000"/>
<path class="atom-40" d="M 63.7 223.0 L 65.1 223.0 L 65.1 227.3 L 70.3 227.3 L 70.3 223.0 L 71.7 223.0 L 71.7 233.1 L 70.3 233.1 L 70.3 228.5 L 65.1 228.5 L 65.1 233.1 L 63.7 233.1 L 63.7 223.0 " fill="#000000"/>
<path class="atom-41" d="M 100.6 245.4 L 102.0 245.4 L 102.0 249.7 L 107.2 249.7 L 107.2 245.4 L 108.6 245.4 L 108.6 255.5 L 107.2 255.5 L 107.2 250.8 L 102.0 250.8 L 102.0 255.5 L 100.6 255.5 L 100.6 245.4 " fill="#000000"/>
<path class="atom-42" d="M 132.6 233.6 L 134.0 233.6 L 134.0 237.9 L 139.2 237.9 L 139.2 233.6 L 140.6 233.6 L 140.6 243.8 L 139.2 243.8 L 139.2 239.1 L 134.0 239.1 L 134.0 243.8 L 132.6 243.8 L 132.6 233.6 " fill="#000000"/>
<path class="atom-43" d="M 87.0 225.9 L 88.4 225.9 L 88.4 230.2 L 93.6 230.2 L 93.6 225.9 L 94.9 225.9 L 94.9 236.1 L 93.6 236.1 L 93.6 231.4 L 88.4 231.4 L 88.4 236.1 L 87.0 236.1 L 87.0 225.9 " fill="#000000"/>
<path class="atom-44" d="M 72.6 147.0 L 74.0 147.0 L 74.0 151.4 L 79.2 151.4 L 79.2 147.0 L 80.6 147.0 L 80.6 157.2 L 79.2 157.2 L 79.2 152.5 L 74.0 152.5 L 74.0 157.2 L 72.6 157.2 L 72.6 147.0 " fill="#000000"/>
<ellipse cx="505.8" cy="249.6" rx="7.9" ry="7.9" class="atom-9" style="fill:#DC3369;fill-rule:evenodd;stroke:#DC3369;stroke-width:1.0px;stroke-linecap:butt;stroke-linejoin:miter;stroke-opacity:1"/>
<ellipse cx="348.4" cy="191.2" rx="7.9" ry="7.9" class="atom-39" style="fill:#DC3369;fill-rule:evenodd;stroke:#DC3369;stroke-width:1.0px;stroke-linecap:butt;stroke-linejoin:miter;stroke-opacity:1"/>
<ellipse cx="367.7" cy="228.1" rx="7.9" ry="7.9" class="atom-40" style="fill:#DC3369;fill-rule:evenodd;stroke:#DC3369;stroke-width:1.0px;stroke-linecap:butt;stroke-linejoin:miter;stroke-opacity:1"/>
<ellipse cx="376.6" cy="152.1" rx="7.9" ry="7.9" class="atom-44" style="fill:#DC3369;fill-rule:evenodd;stroke:#DC3369;stroke-width:1.0px;stroke-linecap:butt;stroke-linejoin:miter;stroke-opacity:1"/>
<path class="bond-0 atom-0 atom-2" d="M 429.1,183.7 L 433.8,185.5" style="fill:none;fill-rule:evenodd;stroke:#000000;stroke-width:2.0px;stroke-linecap:butt;stroke-linejoin:miter;stroke-opacity:1"/>
<path class="bond-0 atom-0 atom-2" d="M 433.8,185.5 L 438.5,187.3" style="fill:none;fill-rule:evenodd;stroke:#FF0000;stroke-width:2.0px;stroke-linecap:butt;stroke-linejoin:miter;stroke-opacity:1"/>
<path class="bond-0 atom-0 atom-2" d="M 427.6,187.7 L 432.2,189.5" style="fill:none;fill-rule:evenodd;stroke:#000000;stroke-width:2.0px;stroke-linecap:butt;stroke-linejoin:miter;stroke-opacity:1"/>
<path class="bond-0 atom-0 atom-2" d="M 432.2,189.5 L 436.9,191.3" style="fill:none;fill-rule:evenodd;stroke:#FF0000;stroke-width:2.0px;stroke-linecap:butt;stroke-linejoin:miter;stroke-opacity:1"/>
<path class="bond-1 atom-0 atom-3" d="M 428.3,185.7 L 417.3,164.4" style="fill:none;fill-rule:evenodd;stroke:#000000;stroke-width:2.0px;stroke-linecap:butt;stroke-linejoin:miter;stroke-opacity:1"/>
<path class="bond-2 atom-0 atom-4" d="M 428.3,185.7 L 422.3,191.8" style="fill:none;fill-rule:evenodd;stroke:#000000;stroke-width:2.0px;stroke-linecap:butt;stroke-linejoin:miter;stroke-opacity:1"/>
<path class="bond-2 atom-0 atom-4" d="M 422.3,191.8 L 416.3,198.0" style="fill:none;fill-rule:evenodd;stroke:#0000FF;stroke-width:2.0px;stroke-linecap:butt;stroke-linejoin:miter;stroke-opacity:1"/>
<path class="bond-3 atom-1 atom-3" d="M 404.1,166.6 L 410.7,165.5" style="fill:none;fill-rule:evenodd;stroke:#0000FF;stroke-width:2.0px;stroke-linecap:butt;stroke-linejoin:miter;stroke-opacity:1"/>
<path class="bond-3 atom-1 atom-3" d="M 410.7,165.5 L 417.3,164.4" style="fill:none;fill-rule:evenodd;stroke:#000000;stroke-width:2.0px;stroke-linecap:butt;stroke-linejoin:miter;stroke-opacity:1"/>
<path class="bond-4 atom-1 atom-5" d="M 393.0,174.2 L 391.7,183.1" style="fill:none;fill-rule:evenodd;stroke:#0000FF;stroke-width:2.0px;stroke-linecap:butt;stroke-linejoin:miter;stroke-opacity:1"/>
<path class="bond-4 atom-1 atom-5" d="M 391.7,183.1 L 390.3,192.0" style="fill:none;fill-rule:evenodd;stroke:#000000;stroke-width:2.0px;stroke-linecap:butt;stroke-linejoin:miter;stroke-opacity:1"/>
<path class="bond-4 atom-1 atom-5" d="M 396.8,177.5 L 395.9,183.8" style="fill:none;fill-rule:evenodd;stroke:#0000FF;stroke-width:2.0px;stroke-linecap:butt;stroke-linejoin:miter;stroke-opacity:1"/>
<path class="bond-4 atom-1 atom-5" d="M 395.9,183.8 L 395.0,190.0" style="fill:none;fill-rule:evenodd;stroke:#000000;stroke-width:2.0px;stroke-linecap:butt;stroke-linejoin:miter;stroke-opacity:1"/>
<path class="bond-5 atom-1 atom-44" d="M 389.2,164.0 L 385.3,160.3" style="fill:none;fill-rule:evenodd;stroke:#0000FF;stroke-width:2.0px;stroke-linecap:butt;stroke-linejoin:miter;stroke-opacity:1"/>
<path class="bond-5 atom-1 atom-44" d="M 385.3,160.3 L 381.4,156.6" style="fill:none;fill-rule:evenodd;stroke:#000000;stroke-width:2.0px;stroke-linecap:butt;stroke-linejoin:miter;stroke-opacity:1"/>
<path class="bond-6 atom-3 atom-16" d="M 423.2,165.0 L 423.2,164.0" style="fill:none;fill-rule:evenodd;stroke:#000000;stroke-width:1.0px;stroke-linecap:butt;stroke-linejoin:miter;stroke-opacity:1"/>
<path class="bond-6 atom-3 atom-16" d="M 429.1,165.7 L 429.1,163.7" style="fill:none;fill-rule:evenodd;stroke:#000000;stroke-width:1.0px;stroke-linecap:butt;stroke-linejoin:miter;stroke-opacity:1"/>
<path class="bond-6 atom-3 atom-16" d="M 435.0,166.3 L 435.0,163.3" style="fill:none;fill-rule:evenodd;stroke:#000000;stroke-width:1.0px;stroke-linecap:butt;stroke-linejoin:miter;stroke-opacity:1"/>
<path class="bond-6 atom-3 atom-16" d="M 440.9,166.9 L 441.0,163.0" style="fill:none;fill-rule:evenodd;stroke:#000000;stroke-width:1.0px;stroke-linecap:butt;stroke-linejoin:miter;stroke-opacity:1"/>
<path class="bond-6 atom-3 atom-16" d="M 446.7,167.6 L 446.9,162.6" style="fill:none;fill-rule:evenodd;stroke:#000000;stroke-width:1.0px;stroke-linecap:butt;stroke-linejoin:miter;stroke-opacity:1"/>
<path class="bond-7 atom-3 atom-10" d="M 417.3,164.4 L 405.7,110.1" style="fill:none;fill-rule:evenodd;stroke:#000000;stroke-width:2.0px;stroke-linecap:butt;stroke-linejoin:miter;stroke-opacity:1"/>
<path class="bond-8 atom-4 atom-7" d="M 412.4,208.6 L 413.6,218.4" style="fill:none;fill-rule:evenodd;stroke:#0000FF;stroke-width:2.0px;stroke-linecap:butt;stroke-linejoin:miter;stroke-opacity:1"/>
<path class="bond-8 atom-4 atom-7" d="M 413.6,218.4 L 414.8,228.3" style="fill:none;fill-rule:evenodd;stroke:#000000;stroke-width:2.0px;stroke-linecap:butt;stroke-linejoin:miter;stroke-opacity:1"/>
<path class="bond-9 atom-4 atom-5" d="M 407.0,200.4 L 398.7,196.2" style="fill:none;fill-rule:evenodd;stroke:#0000FF;stroke-width:2.0px;stroke-linecap:butt;stroke-linejoin:miter;stroke-opacity:1"/>
<path class="bond-9 atom-4 atom-5" d="M 398.7,196.2 L 390.3,192.0" style="fill:none;fill-rule:evenodd;stroke:#000000;stroke-width:2.0px;stroke-linecap:butt;stroke-linejoin:miter;stroke-opacity:1"/>
<path class="bond-10 atom-5 atom-6" d="M 390.3,192.0 L 381.8,196.6" style="fill:none;fill-rule:evenodd;stroke:#000000;stroke-width:2.0px;stroke-linecap:butt;stroke-linejoin:miter;stroke-opacity:1"/>
<path class="bond-10 atom-5 atom-6" d="M 381.8,196.6 L 373.3,201.2" style="fill:none;fill-rule:evenodd;stroke:#0000FF;stroke-width:2.0px;stroke-linecap:butt;stroke-linejoin:miter;stroke-opacity:1"/>
<path class="bond-11 atom-6 atom-39" d="M 364.0,200.9 L 358.6,197.5" style="fill:none;fill-rule:evenodd;stroke:#0000FF;stroke-width:2.0px;stroke-linecap:butt;stroke-linejoin:miter;stroke-opacity:1"/>
<path class="bond-11 atom-6 atom-39" d="M 358.6,197.5 L 353.2,194.2" style="fill:none;fill-rule:evenodd;stroke:#000000;stroke-width:2.0px;stroke-linecap:butt;stroke-linejoin:miter;stroke-opacity:1"/>
<path class="bond-12 atom-6 atom-40" d="M 368.4,209.7 L 368.2,215.9" style="fill:none;fill-rule:evenodd;stroke:#0000FF;stroke-width:2.0px;stroke-linecap:butt;stroke-linejoin:miter;stroke-opacity:1"/>
<path class="bond-12 atom-6 atom-40" d="M 368.2,215.9 L 367.9,222.2" style="fill:none;fill-rule:evenodd;stroke:#000000;stroke-width:2.0px;stroke-linecap:butt;stroke-linejoin:miter;stroke-opacity:1"/>
<path class="bond-13 atom-7 atom-43" d="M 414.8,228.3 L 395.7,230.5" style="fill:none;fill-rule:evenodd;stroke:#000000;stroke-width:2.0px;stroke-linecap:butt;stroke-linejoin:miter;stroke-opacity:1"/>
<path class="bond-14 atom-7 atom-41" d="M 414.8,228.3 L 407.3,244.6" style="fill:none;fill-rule:evenodd;stroke:#000000;stroke-width:2.0px;stroke-linecap:butt;stroke-linejoin:miter;stroke-opacity:1"/>
<path class="bond-15 atom-7 atom-42" d="M 414.8,228.3 L 431.8,236.4" style="fill:none;fill-rule:evenodd;stroke:#000000;stroke-width:2.0px;stroke-linecap:butt;stroke-linejoin:miter;stroke-opacity:1"/>
<path class="bond-16 atom-8 atom-22" d="M 511.2,226.3 L 534.1,219.5" style="fill:none;fill-rule:evenodd;stroke:#000000;stroke-width:2.0px;stroke-linecap:butt;stroke-linejoin:miter;stroke-opacity:1"/>
<path class="bond-16 atom-8 atom-22" d="M 513.4,221.2 L 529.4,216.4" style="fill:none;fill-rule:evenodd;stroke:#000000;stroke-width:2.0px;stroke-linecap:butt;stroke-linejoin:miter;stroke-opacity:1"/>
<path class="bond-17 atom-8 atom-24" d="M 511.2,226.3 L 493.9,209.8" style="fill:none;fill-rule:evenodd;stroke:#000000;stroke-width:2.0px;stroke-linecap:butt;stroke-linejoin:miter;stroke-opacity:1"/>
<path class="bond-18 atom-8 atom-9" d="M 511.2,226.3 L 509.2,235.0" style="fill:none;fill-rule:evenodd;stroke:#000000;stroke-width:2.0px;stroke-linecap:butt;stroke-linejoin:miter;stroke-opacity:1"/>
<path class="bond-18 atom-8 atom-9" d="M 509.2,235.0 L 507.1,243.7" style="fill:none;fill-rule:evenodd;stroke:#33CCCC;stroke-width:2.0px;stroke-linecap:butt;stroke-linejoin:miter;stroke-opacity:1"/>
<path class="bond-19 atom-10 atom-15" d="M 405.7,110.1 L 382.8,102.8" style="fill:none;fill-rule:evenodd;stroke:#000000;stroke-width:2.0px;stroke-linecap:butt;stroke-linejoin:miter;stroke-opacity:1"/>
<path class="bond-20 atom-10 atom-11" d="M 405.7,110.1 L 423.2,93.8" style="fill:none;fill-rule:evenodd;stroke:#000000;stroke-width:2.0px;stroke-linecap:butt;stroke-linejoin:miter;stroke-opacity:1"/>
<path class="bond-20 atom-10 atom-11" d="M 405.4,104.5 L 417.7,93.1" style="fill:none;fill-rule:evenodd;stroke:#000000;stroke-width:2.0px;stroke-linecap:butt;stroke-linejoin:miter;stroke-opacity:1"/>
<path class="bond-21 atom-11 atom-12" d="M 423.2,93.8 L 418.1,70.3" style="fill:none;fill-rule:evenodd;stroke:#000000;stroke-width:2.0px;stroke-linecap:butt;stroke-linejoin:miter;stroke-opacity:1"/>
<path class="bond-22 atom-11 atom-38" d="M 423.2,93.8 L 441.3,99.6" style="fill:none;fill-rule:evenodd;stroke:#000000;stroke-width:2.0px;stroke-linecap:butt;stroke-linejoin:miter;stroke-opacity:1"/>
<path class="bond-23 atom-12 atom-13" d="M 418.1,70.3 L 395.2,63.1" style="fill:none;fill-rule:evenodd;stroke:#000000;stroke-width:2.0px;stroke-linecap:butt;stroke-linejoin:miter;stroke-opacity:1"/>
<path class="bond-23 atom-12 atom-13" d="M 413.4,73.3 L 397.4,68.3" style="fill:none;fill-rule:evenodd;stroke:#000000;stroke-width:2.0px;stroke-linecap:butt;stroke-linejoin:miter;stroke-opacity:1"/>
<path class="bond-24 atom-12 atom-35" d="M 418.1,70.3 L 431.0,58.6" style="fill:none;fill-rule:evenodd;stroke:#000000;stroke-width:2.0px;stroke-linecap:butt;stroke-linejoin:miter;stroke-opacity:1"/>
<path class="bond-25 atom-13 atom-14" d="M 395.2,63.1 L 377.5,79.3" style="fill:none;fill-rule:evenodd;stroke:#000000;stroke-width:2.0px;stroke-linecap:butt;stroke-linejoin:miter;stroke-opacity:1"/>
<path class="bond-26 atom-13 atom-37" d="M 395.2,63.1 L 391.4,45.6" style="fill:none;fill-rule:evenodd;stroke:#000000;stroke-width:2.0px;stroke-linecap:butt;stroke-linejoin:miter;stroke-opacity:1"/>
<path class="bond-27 atom-14 atom-36" d="M 377.5,79.3 L 359.6,73.5" style="fill:none;fill-rule:evenodd;stroke:#000000;stroke-width:2.0px;stroke-linecap:butt;stroke-linejoin:miter;stroke-opacity:1"/>
<path class="bond-28 atom-14 atom-15" d="M 377.5,79.3 L 382.8,102.8" style="fill:none;fill-rule:evenodd;stroke:#000000;stroke-width:2.0px;stroke-linecap:butt;stroke-linejoin:miter;stroke-opacity:1"/>
<path class="bond-28 atom-14 atom-15" d="M 382.5,81.9 L 386.2,98.3" style="fill:none;fill-rule:evenodd;stroke:#000000;stroke-width:2.0px;stroke-linecap:butt;stroke-linejoin:miter;stroke-opacity:1"/>
<path class="bond-29 atom-15 atom-34" d="M 382.8,102.8 L 369.8,114.5" style="fill:none;fill-rule:evenodd;stroke:#000000;stroke-width:2.0px;stroke-linecap:butt;stroke-linejoin:miter;stroke-opacity:1"/>
<path class="bond-30 atom-16 atom-17" d="M 446.8,165.1 L 450.1,141.6" style="fill:none;fill-rule:evenodd;stroke:#000000;stroke-width:2.0px;stroke-linecap:butt;stroke-linejoin:miter;stroke-opacity:1"/>
<path class="bond-30 atom-16 atom-17" d="M 451.6,162.2 L 453.9,145.7" style="fill:none;fill-rule:evenodd;stroke:#000000;stroke-width:2.0px;stroke-linecap:butt;stroke-linejoin:miter;stroke-opacity:1"/>
<path class="bond-31 atom-16 atom-21" d="M 446.8,165.1 L 465.7,180.1" style="fill:none;fill-rule:evenodd;stroke:#000000;stroke-width:2.0px;stroke-linecap:butt;stroke-linejoin:miter;stroke-opacity:1"/>
<path class="bond-32 atom-17 atom-18" d="M 450.1,141.6 L 472.2,132.7" style="fill:none;fill-rule:evenodd;stroke:#000000;stroke-width:2.0px;stroke-linecap:butt;stroke-linejoin:miter;stroke-opacity:1"/>
<path class="bond-33 atom-17 atom-32" d="M 450.1,141.6 L 435.3,130.6" style="fill:none;fill-rule:evenodd;stroke:#000000;stroke-width:2.0px;stroke-linecap:butt;stroke-linejoin:miter;stroke-opacity:1"/>
<path class="bond-34 atom-18 atom-33" d="M 472.2,132.7 L 474.1,114.7" style="fill:none;fill-rule:evenodd;stroke:#000000;stroke-width:2.0px;stroke-linecap:butt;stroke-linejoin:miter;stroke-opacity:1"/>
<path class="bond-35 atom-18 atom-19" d="M 472.2,132.7 L 491.2,147.4" style="fill:none;fill-rule:evenodd;stroke:#000000;stroke-width:2.0px;stroke-linecap:butt;stroke-linejoin:miter;stroke-opacity:1"/>
<path class="bond-35 atom-18 atom-19" d="M 472.4,138.3 L 485.7,148.6" style="fill:none;fill-rule:evenodd;stroke:#000000;stroke-width:2.0px;stroke-linecap:butt;stroke-linejoin:miter;stroke-opacity:1"/>
<path class="bond-36 atom-19 atom-31" d="M 491.2,147.4 L 507.8,140.1" style="fill:none;fill-rule:evenodd;stroke:#000000;stroke-width:2.0px;stroke-linecap:butt;stroke-linejoin:miter;stroke-opacity:1"/>
<path class="bond-37 atom-19 atom-20" d="M 491.2,147.4 L 487.8,171.2" style="fill:none;fill-rule:evenodd;stroke:#000000;stroke-width:2.0px;stroke-linecap:butt;stroke-linejoin:miter;stroke-opacity:1"/>
<path class="bond-38 atom-20 atom-25" d="M 487.8,171.2 L 499.5,186.5" style="fill:none;fill-rule:evenodd;stroke:#000000;stroke-width:2.0px;stroke-linecap:butt;stroke-linejoin:miter;stroke-opacity:1"/>
<path class="bond-39 atom-20 atom-21" d="M 487.8,171.2 L 465.7,180.1" style="fill:none;fill-rule:evenodd;stroke:#000000;stroke-width:2.0px;stroke-linecap:butt;stroke-linejoin:miter;stroke-opacity:1"/>
<path class="bond-39 atom-20 atom-21" d="M 482.8,168.5 L 467.4,174.7" style="fill:none;fill-rule:evenodd;stroke:#000000;stroke-width:2.0px;stroke-linecap:butt;stroke-linejoin:miter;stroke-opacity:1"/>
<path class="bond-40 atom-21 atom-30" d="M 465.7,180.1 L 460.1,202.2" style="fill:none;fill-rule:evenodd;stroke:#000000;stroke-width:2.0px;stroke-linecap:butt;stroke-linejoin:miter;stroke-opacity:1"/>
<path class="bond-41 atom-22 atom-28" d="M 534.1,219.5 L 536.2,210.8" style="fill:none;fill-rule:evenodd;stroke:#000000;stroke-width:2.0px;stroke-linecap:butt;stroke-linejoin:miter;stroke-opacity:1"/>
<path class="bond-41 atom-22 atom-28" d="M 536.2,210.8 L 538.3,202.2" style="fill:none;fill-rule:evenodd;stroke:#0000FF;stroke-width:2.0px;stroke-linecap:butt;stroke-linejoin:miter;stroke-opacity:1"/>
<path class="bond-42 atom-22 atom-23" d="M 534.1,219.5 L 546.8,231.4" style="fill:none;fill-rule:evenodd;stroke:#000000;stroke-width:2.0px;stroke-linecap:butt;stroke-linejoin:miter;stroke-opacity:1"/>
<path class="bond-43 atom-24 atom-25" d="M 493.9,209.8 L 499.5,186.5" style="fill:none;fill-rule:evenodd;stroke:#000000;stroke-width:2.0px;stroke-linecap:butt;stroke-linejoin:miter;stroke-opacity:1"/>
<path class="bond-43 atom-24 atom-25" d="M 498.9,207.3 L 502.9,191.0" style="fill:none;fill-rule:evenodd;stroke:#000000;stroke-width:2.0px;stroke-linecap:butt;stroke-linejoin:miter;stroke-opacity:1"/>
<path class="bond-44 atom-24 atom-29" d="M 493.9,209.8 L 479.1,216.7" style="fill:none;fill-rule:evenodd;stroke:#000000;stroke-width:2.0px;stroke-linecap:butt;stroke-linejoin:miter;stroke-opacity:1"/>
<path class="bond-45 atom-25 atom-26" d="M 499.5,186.5 L 522.4,179.8" style="fill:none;fill-rule:evenodd;stroke:#000000;stroke-width:2.0px;stroke-linecap:butt;stroke-linejoin:miter;stroke-opacity:1"/>
<path class="bond-46 atom-26 atom-27" d="M 522.4,179.8 L 526.5,162.4" style="fill:none;fill-rule:evenodd;stroke:#000000;stroke-width:2.0px;stroke-linecap:butt;stroke-linejoin:miter;stroke-opacity:1"/>
<path class="bond-47 atom-26 atom-28" d="M 522.4,179.8 L 528.7,185.8" style="fill:none;fill-rule:evenodd;stroke:#000000;stroke-width:2.0px;stroke-linecap:butt;stroke-linejoin:miter;stroke-opacity:1"/>
<path class="bond-47 atom-26 atom-28" d="M 528.7,185.8 L 535.1,191.8" style="fill:none;fill-rule:evenodd;stroke:#0000FF;stroke-width:2.0px;stroke-linecap:butt;stroke-linejoin:miter;stroke-opacity:1"/>
<path class="bond-47 atom-26 atom-28" d="M 521.4,184.7 L 525.8,188.9" style="fill:none;fill-rule:evenodd;stroke:#000000;stroke-width:2.0px;stroke-linecap:butt;stroke-linejoin:miter;stroke-opacity:1"/>
<path class="bond-47 atom-26 atom-28" d="M 525.8,188.9 L 530.2,193.2" style="fill:none;fill-rule:evenodd;stroke:#0000FF;stroke-width:2.0px;stroke-linecap:butt;stroke-linejoin:miter;stroke-opacity:1"/>
<path class="atom-1" d="M 391.6 163.3 L 394.9 168.6 Q 395.3 169.2, 395.8 170.1 Q 396.3 171.1, 396.4 171.2 L 396.4 163.3 L 397.7 163.3 L 397.7 173.4 L 396.3 173.4 L 392.7 167.5 Q 392.3 166.8, 391.9 166.1 Q 391.4 165.3, 391.3 165.0 L 391.3 173.4 L 390.0 173.4 L 390.0 163.3 L 391.6 163.3 " fill="#0000FF"/>
<path class="atom-1" d="M 398.9 165.1 L 400.7 165.1 L 400.7 163.2 L 401.5 163.2 L 401.5 165.1 L 403.3 165.1 L 403.3 165.8 L 401.5 165.8 L 401.5 167.7 L 400.7 167.7 L 400.7 165.8 L 398.9 165.8 L 398.9 165.1 " fill="#0000FF"/>
<path class="atom-2" d="M 438.5 191.4 Q 438.5 189.0, 439.7 187.6 Q 440.9 186.3, 443.2 186.3 Q 445.4 186.3, 446.6 187.6 Q 447.8 189.0, 447.8 191.4 Q 447.8 193.9, 446.6 195.3 Q 445.4 196.7, 443.2 196.7 Q 440.9 196.7, 439.7 195.3 Q 438.5 193.9, 438.5 191.4 M 443.2 195.5 Q 444.7 195.5, 445.6 194.5 Q 446.4 193.5, 446.4 191.4 Q 446.4 189.4, 445.6 188.4 Q 444.7 187.4, 443.2 187.4 Q 441.6 187.4, 440.8 188.4 Q 440.0 189.4, 440.0 191.4 Q 440.0 193.5, 440.8 194.5 Q 441.6 195.5, 443.2 195.5 " fill="#FF0000"/>
<path class="atom-4" d="M 409.4 197.7 L 412.7 203.0 Q 413.1 203.6, 413.6 204.5 Q 414.1 205.5, 414.2 205.6 L 414.2 197.7 L 415.5 197.7 L 415.5 207.8 L 414.1 207.8 L 410.5 201.9 Q 410.1 201.2, 409.7 200.5 Q 409.2 199.7, 409.1 199.4 L 409.1 207.8 L 407.8 207.8 L 407.8 197.7 L 409.4 197.7 " fill="#0000FF"/>
<path class="atom-6" d="M 366.4 198.7 L 369.8 204.1 Q 370.1 204.6, 370.6 205.6 Q 371.1 206.5, 371.2 206.6 L 371.2 198.7 L 372.5 198.7 L 372.5 208.8 L 371.1 208.8 L 367.6 203.0 Q 367.1 202.3, 366.7 201.5 Q 366.3 200.7, 366.1 200.5 L 366.1 208.8 L 364.8 208.8 L 364.8 198.7 L 366.4 198.7 " fill="#0000FF"/>
<path class="atom-9" d="M 502.7 244.5 L 508.8 244.5 L 508.8 245.7 L 504.1 245.7 L 504.1 248.8 L 508.3 248.8 L 508.3 249.9 L 504.1 249.9 L 504.1 254.7 L 502.7 254.7 L 502.7 244.5 " fill="#33CCCC"/>
<path class="atom-23" d="M 547.6 230.8 L 549.0 230.8 L 549.0 235.1 L 554.2 235.1 L 554.2 230.8 L 555.6 230.8 L 555.6 240.9 L 554.2 240.9 L 554.2 236.2 L 549.0 236.2 L 549.0 240.9 L 547.6 240.9 L 547.6 230.8 " fill="#000000"/>
<path class="atom-27" d="M 523.9 151.4 L 525.3 151.4 L 525.3 155.7 L 530.5 155.7 L 530.5 151.4 L 531.9 151.4 L 531.9 161.6 L 530.5 161.6 L 530.5 156.9 L 525.3 156.9 L 525.3 161.6 L 523.9 161.6 L 523.9 151.4 " fill="#000000"/>
<path class="atom-28" d="M 537.5 191.2 L 540.8 196.6 Q 541.1 197.1, 541.7 198.1 Q 542.2 199.0, 542.2 199.1 L 542.2 191.2 L 543.6 191.2 L 543.6 201.3 L 542.2 201.3 L 538.6 195.5 Q 538.2 194.8, 537.8 194.0 Q 537.3 193.2, 537.2 193.0 L 537.2 201.3 L 535.9 201.3 L 535.9 191.2 L 537.5 191.2 " fill="#0000FF"/>
<path class="atom-29" d="M 470.4 213.8 L 471.8 213.8 L 471.8 218.2 L 476.9 218.2 L 476.9 213.8 L 478.3 213.8 L 478.3 224.0 L 476.9 224.0 L 476.9 219.3 L 471.8 219.3 L 471.8 224.0 L 470.4 224.0 L 470.4 213.8 " fill="#000000"/>
<path class="atom-30" d="M 454.6 203.0 L 456.0 203.0 L 456.0 207.4 L 461.2 207.4 L 461.2 203.0 L 462.5 203.0 L 462.5 213.2 L 461.2 213.2 L 461.2 208.5 L 456.0 208.5 L 456.0 213.2 L 454.6 213.2 L 454.6 203.0 " fill="#000000"/>
<path class="atom-31" d="M 508.6 133.0 L 510.0 133.0 L 510.0 137.3 L 515.2 137.3 L 515.2 133.0 L 516.6 133.0 L 516.6 143.1 L 515.2 143.1 L 515.2 138.4 L 510.0 138.4 L 510.0 143.1 L 508.6 143.1 L 508.6 133.0 " fill="#000000"/>
<path class="atom-32" d="M 426.5 121.9 L 427.9 121.9 L 427.9 126.3 L 433.1 126.3 L 433.1 121.9 L 434.5 121.9 L 434.5 132.1 L 433.1 132.1 L 433.1 127.4 L 427.9 127.4 L 427.9 132.1 L 426.5 132.1 L 426.5 121.9 " fill="#000000"/>
<path class="atom-33" d="M 470.7 103.7 L 472.1 103.7 L 472.1 108.1 L 477.3 108.1 L 477.3 103.7 L 478.6 103.7 L 478.6 113.9 L 477.3 113.9 L 477.3 109.2 L 472.1 109.2 L 472.1 113.9 L 470.7 113.9 L 470.7 103.7 " fill="#000000"/>
<path class="atom-34" d="M 361.1 113.8 L 362.5 113.8 L 362.5 118.1 L 367.7 118.1 L 367.7 113.8 L 369.0 113.8 L 369.0 123.9 L 367.7 123.9 L 367.7 119.3 L 362.5 119.3 L 362.5 123.9 L 361.1 123.9 L 361.1 113.8 " fill="#000000"/>
<path class="atom-35" d="M 431.8 49.2 L 433.2 49.2 L 433.2 53.5 L 438.4 53.5 L 438.4 49.2 L 439.8 49.2 L 439.8 59.3 L 438.4 59.3 L 438.4 54.6 L 433.2 54.6 L 433.2 59.3 L 431.8 59.3 L 431.8 49.2 " fill="#000000"/>
<path class="atom-36" d="M 350.8 66.9 L 352.2 66.9 L 352.2 71.3 L 357.4 71.3 L 357.4 66.9 L 358.7 66.9 L 358.7 77.1 L 357.4 77.1 L 357.4 72.4 L 352.2 72.4 L 352.2 77.1 L 350.8 77.1 L 350.8 66.9 " fill="#000000"/>
<path class="atom-37" d="M 386.2 34.6 L 387.5 34.6 L 387.5 38.9 L 392.7 38.9 L 392.7 34.6 L 394.1 34.6 L 394.1 44.8 L 392.7 44.8 L 392.7 40.1 L 387.5 40.1 L 387.5 44.8 L 386.2 44.8 L 386.2 34.6 " fill="#000000"/>
<path class="atom-38" d="M 442.1 96.0 L 443.5 96.0 L 443.5 100.3 L 448.6 100.3 L 448.6 96.0 L 450.0 96.0 L 450.0 106.2 L 448.6 106.2 L 448.6 101.5 L 443.5 101.5 L 443.5 106.2 L 442.1 106.2 L 442.1 96.0 " fill="#000000"/>
<path class="atom-39" d="M 344.4 186.2 L 345.8 186.2 L 345.8 190.5 L 351.0 190.5 L 351.0 186.2 L 352.4 186.2 L 352.4 196.3 L 351.0 196.3 L 351.0 191.6 L 345.8 191.6 L 345.8 196.3 L 344.4 196.3 L 344.4 186.2 " fill="#000000"/>
<path class="atom-40" d="M 363.7 223.0 L 365.1 223.0 L 365.1 227.3 L 370.3 227.3 L 370.3 223.0 L 371.7 223.0 L 371.7 233.1 L 370.3 233.1 L 370.3 228.5 L 365.1 228.5 L 365.1 233.1 L 363.7 233.1 L 363.7 223.0 " fill="#000000"/>
<path class="atom-41" d="M 400.6 245.4 L 402.0 245.4 L 402.0 249.7 L 407.2 249.7 L 407.2 245.4 L 408.6 245.4 L 408.6 255.5 L 407.2 255.5 L 407.2 250.8 L 402.0 250.8 L 402.0 255.5 L 400.6 255.5 L 400.6 245.4 " fill="#000000"/>
<path class="atom-42" d="M 432.6 233.6 L 434.0 233.6 L 434.0 237.9 L 439.2 237.9 L 439.2 233.6 L 440.6 233.6 L 440.6 243.8 L 439.2 243.8 L 439.2 239.1 L 434.0 239.1 L 434.0 243.8 L 432.6 243.8 L 432.6 233.6 " fill="#000000"/>
<path class="atom-43" d="M 387.0 225.9 L 388.4 225.9 L 388.4 230.2 L 393.6 230.2 L 393.6 225.9 L 394.9 225.9 L 394.9 236.1 L 393.6 236.1 L 393.6 231.4 L 388.4 231.4 L 388.4 236.1 L 387.0 236.1 L 387.0 225.9 " fill="#000000"/>
<path class="atom-44" d="M 372.6 147.0 L 374.0 147.0 L 374.0 151.4 L 379.2 151.4 L 379.2 147.0 L 380.6 147.0 L 380.6 157.2 L 379.2 157.2 L 379.2 152.5 L 374.0 152.5 L 374.0 157.2 L 372.6 157.2 L 372.6 147.0 " fill="#000000"/>
<text x="300" y="20" font-size="20" font-family="sans-serif" font-weight="normal" letter-spacing="0" text-anchor="middle" fill="black">bace CAT-4j -&gt; CAT-4o </text><text x="150" y="285" font-size="15" font-family="sans-serif" font-weight="normal" letter-spacing="0" text-anchor="middle" fill="black">CAT-4j</text><text x="450" y="285" font-size="15" font-family="sans-serif" font-weight="normal" letter-spacing="0" text-anchor="middle" fill="black">CAT-4o</text></svg>
