<?xml version='1.0' encoding='ASCII' standalone='yes'?>
<svg xmlns="http://www.w3.org/2000/svg" xmlns:rdkit="http://www.rdkit.org/xml" xmlns:xlink="http://www.w3.org/1999/xlink" version="1.1" baseProfile="full" xml:space="preserve" width="600px" height="300px" viewBox="0 0 600 300">
<!-- END OF HEADER -->
<rect style="opacity:1.0;fill:#FFFFFF;stroke:none" width="600.0" height="300.0" x="0.0" y="0.0"> </rect>
<ellipse cx="237.2" cy="167.7" rx="8.1" ry="8.1" class="atom-22" style="fill:#6B4EF9;fill-rule:evenodd;stroke:#6B4EF9;stroke-width:1.0px;stroke-linecap:butt;stroke-linejoin:miter;stroke-opacity:1"/>
<ellipse cx="244.4" cy="191.2" rx="8.1" ry="8.1" class="atom-26" style="fill:#DC3369;fill-rule:evenodd;stroke:#DC3369;stroke-width:1.0px;stroke-linecap:butt;stroke-linejoin:miter;stroke-opacity:1"/>
<ellipse cx="219.0" cy="65.8" rx="8.1" ry="8.1" class="atom-27" style="fill:#DC3369;fill-rule:evenodd;stroke:#DC3369;stroke-width:1.0px;stroke-linecap:butt;stroke-linejoin:miter;stroke-opacity:1"/>
<path class="bond-0 atom-0 atom-1" d="M 215.8,94.8 L 207.2,101.0" style="fill:none;fill-rule:evenodd;stroke:#FF0000;stroke-width:2.0px;stroke-linecap:butt;stroke-linejoin:miter;stroke-opacity:1"/>
<path class="bond-0 atom-0 atom-1" d="M 207.2,101.0 L 198.6,107.1" style="fill:none;fill-rule:evenodd;stroke:#000000;stroke-width:2.0px;stroke-linecap:butt;stroke-linejoin:miter;stroke-opacity:1"/>
<path class="bond-1 atom-0 atom-27" d="M 220.8,84.7 L 220.2,78.3" style="fill:none;fill-rule:evenodd;stroke:#FF0000;stroke-width:2.0px;stroke-linecap:butt;stroke-linejoin:miter;stroke-opacity:1"/>
<path class="bond-1 atom-0 atom-27" d="M 220.2,78.3 L 219.6,71.8" style="fill:none;fill-rule:evenodd;stroke:#000000;stroke-width:2.0px;stroke-linecap:butt;stroke-linejoin:miter;stroke-opacity:1"/>
<path class="bond-2 atom-1 atom-2" d="M 198.6,107.1 L 186.3,85.9" style="fill:none;fill-rule:evenodd;stroke:#000000;stroke-width:2.0px;stroke-linecap:butt;stroke-linejoin:miter;stroke-opacity:1"/>
<path class="bond-3 atom-1 atom-5" d="M 198.6,107.1 L 182.2,125.4" style="fill:none;fill-rule:evenodd;stroke:#000000;stroke-width:2.0px;stroke-linecap:butt;stroke-linejoin:miter;stroke-opacity:1"/>
<path class="bond-4 atom-1 atom-28" d="M 201.0,110.7 L 202.2,109.6" style="fill:none;fill-rule:evenodd;stroke:#000000;stroke-width:1.0px;stroke-linecap:butt;stroke-linejoin:miter;stroke-opacity:1"/>
<path class="bond-4 atom-1 atom-28" d="M 203.4,114.3 L 205.7,112.0" style="fill:none;fill-rule:evenodd;stroke:#000000;stroke-width:1.0px;stroke-linecap:butt;stroke-linejoin:miter;stroke-opacity:1"/>
<path class="bond-4 atom-1 atom-28" d="M 205.8,117.9 L 209.3,114.5" style="fill:none;fill-rule:evenodd;stroke:#000000;stroke-width:1.0px;stroke-linecap:butt;stroke-linejoin:miter;stroke-opacity:1"/>
<path class="bond-5 atom-2 atom-3" d="M 186.3,85.9 L 162.4,91.0" style="fill:none;fill-rule:evenodd;stroke:#000000;stroke-width:2.0px;stroke-linecap:butt;stroke-linejoin:miter;stroke-opacity:1"/>
<path class="bond-6 atom-2 atom-23" d="M 186.3,85.9 L 183.0,77.6" style="fill:none;fill-rule:evenodd;stroke:#000000;stroke-width:2.0px;stroke-linecap:butt;stroke-linejoin:miter;stroke-opacity:1"/>
<path class="bond-6 atom-2 atom-23" d="M 183.0,77.6 L 179.6,69.3" style="fill:none;fill-rule:evenodd;stroke:#33CCCC;stroke-width:2.0px;stroke-linecap:butt;stroke-linejoin:miter;stroke-opacity:1"/>
<path class="bond-7 atom-2 atom-24" d="M 186.3,85.9 L 191.4,82.6" style="fill:none;fill-rule:evenodd;stroke:#000000;stroke-width:2.0px;stroke-linecap:butt;stroke-linejoin:miter;stroke-opacity:1"/>
<path class="bond-7 atom-2 atom-24" d="M 191.4,82.6 L 196.5,79.2" style="fill:none;fill-rule:evenodd;stroke:#33CCCC;stroke-width:2.0px;stroke-linecap:butt;stroke-linejoin:miter;stroke-opacity:1"/>
<path class="bond-8 atom-3 atom-4" d="M 162.4,91.0 L 159.7,115.3" style="fill:none;fill-rule:evenodd;stroke:#000000;stroke-width:2.0px;stroke-linecap:butt;stroke-linejoin:miter;stroke-opacity:1"/>
<path class="bond-9 atom-3 atom-29" d="M 162.4,91.0 L 142.7,92.4" style="fill:none;fill-rule:evenodd;stroke:#000000;stroke-width:2.0px;stroke-linecap:butt;stroke-linejoin:miter;stroke-opacity:1"/>
<path class="bond-10 atom-3 atom-30" d="M 162.4,91.0 L 159.1,73.5" style="fill:none;fill-rule:evenodd;stroke:#000000;stroke-width:2.0px;stroke-linecap:butt;stroke-linejoin:miter;stroke-opacity:1"/>
<path class="bond-11 atom-4 atom-5" d="M 159.7,115.3 L 182.2,125.4" style="fill:none;fill-rule:evenodd;stroke:#000000;stroke-width:2.0px;stroke-linecap:butt;stroke-linejoin:miter;stroke-opacity:1"/>
<path class="bond-11 atom-4 atom-5" d="M 161.3,120.8 L 177.0,127.9" style="fill:none;fill-rule:evenodd;stroke:#000000;stroke-width:2.0px;stroke-linecap:butt;stroke-linejoin:miter;stroke-opacity:1"/>
<path class="bond-12 atom-4 atom-9" d="M 159.7,115.3 L 139.8,129.5" style="fill:none;fill-rule:evenodd;stroke:#000000;stroke-width:2.0px;stroke-linecap:butt;stroke-linejoin:miter;stroke-opacity:1"/>
<path class="bond-13 atom-5 atom-6" d="M 182.2,125.4 L 184.5,149.7" style="fill:none;fill-rule:evenodd;stroke:#000000;stroke-width:2.0px;stroke-linecap:butt;stroke-linejoin:miter;stroke-opacity:1"/>
<path class="bond-14 atom-6 atom-7" d="M 184.5,149.7 L 164.5,163.9" style="fill:none;fill-rule:evenodd;stroke:#000000;stroke-width:2.0px;stroke-linecap:butt;stroke-linejoin:miter;stroke-opacity:1"/>
<path class="bond-14 atom-6 atom-7" d="M 178.9,148.3 L 165.0,158.2" style="fill:none;fill-rule:evenodd;stroke:#000000;stroke-width:2.0px;stroke-linecap:butt;stroke-linejoin:miter;stroke-opacity:1"/>
<path class="bond-15 atom-6 atom-19" d="M 184.5,149.7 L 196.6,154.5" style="fill:none;fill-rule:evenodd;stroke:#000000;stroke-width:2.0px;stroke-linecap:butt;stroke-linejoin:miter;stroke-opacity:1"/>
<path class="bond-15 atom-6 atom-19" d="M 196.6,154.5 L 208.7,159.3" style="fill:none;fill-rule:evenodd;stroke:#CCCC00;stroke-width:2.0px;stroke-linecap:butt;stroke-linejoin:miter;stroke-opacity:1"/>
<path class="bond-16 atom-7 atom-8" d="M 164.5,163.9 L 142.1,153.7" style="fill:none;fill-rule:evenodd;stroke:#000000;stroke-width:2.0px;stroke-linecap:butt;stroke-linejoin:miter;stroke-opacity:1"/>
<path class="bond-17 atom-7 atom-31" d="M 164.5,163.9 L 167.5,183.0" style="fill:none;fill-rule:evenodd;stroke:#000000;stroke-width:2.0px;stroke-linecap:butt;stroke-linejoin:miter;stroke-opacity:1"/>
<path class="bond-18 atom-8 atom-9" d="M 142.1,153.7 L 139.8,129.5" style="fill:none;fill-rule:evenodd;stroke:#000000;stroke-width:2.0px;stroke-linecap:butt;stroke-linejoin:miter;stroke-opacity:1"/>
<path class="bond-18 atom-8 atom-9" d="M 146.2,149.6 L 144.6,132.7" style="fill:none;fill-rule:evenodd;stroke:#000000;stroke-width:2.0px;stroke-linecap:butt;stroke-linejoin:miter;stroke-opacity:1"/>
<path class="bond-19 atom-8 atom-32" d="M 142.1,153.7 L 134.3,161.6" style="fill:none;fill-rule:evenodd;stroke:#000000;stroke-width:2.0px;stroke-linecap:butt;stroke-linejoin:miter;stroke-opacity:1"/>
<path class="bond-20 atom-9 atom-10" d="M 139.8,129.5 L 132.9,129.0" style="fill:none;fill-rule:evenodd;stroke:#000000;stroke-width:2.0px;stroke-linecap:butt;stroke-linejoin:miter;stroke-opacity:1"/>
<path class="bond-20 atom-9 atom-10" d="M 132.9,129.0 L 125.9,128.4" style="fill:none;fill-rule:evenodd;stroke:#FF0000;stroke-width:2.0px;stroke-linecap:butt;stroke-linejoin:miter;stroke-opacity:1"/>
<path class="bond-21 atom-10 atom-11" d="M 115.9,134.3 L 109.0,143.8" style="fill:none;fill-rule:evenodd;stroke:#FF0000;stroke-width:2.0px;stroke-linecap:butt;stroke-linejoin:miter;stroke-opacity:1"/>
<path class="bond-21 atom-10 atom-11" d="M 109.0,143.8 L 102.2,153.3" style="fill:none;fill-rule:evenodd;stroke:#000000;stroke-width:2.0px;stroke-linecap:butt;stroke-linejoin:miter;stroke-opacity:1"/>
<path class="bond-22 atom-11 atom-12" d="M 102.2,153.3 L 80.2,142.2" style="fill:none;fill-rule:evenodd;stroke:#000000;stroke-width:2.0px;stroke-linecap:butt;stroke-linejoin:miter;stroke-opacity:1"/>
<path class="bond-22 atom-11 atom-12" d="M 96.9,155.5 L 81.5,147.8" style="fill:none;fill-rule:evenodd;stroke:#000000;stroke-width:2.0px;stroke-linecap:butt;stroke-linejoin:miter;stroke-opacity:1"/>
<path class="bond-23 atom-11 atom-18" d="M 102.2,153.3 L 103.6,178.3" style="fill:none;fill-rule:evenodd;stroke:#000000;stroke-width:2.0px;stroke-linecap:butt;stroke-linejoin:miter;stroke-opacity:1"/>
<path class="bond-24 atom-12 atom-13" d="M 80.2,142.2 L 59.9,155.6" style="fill:none;fill-rule:evenodd;stroke:#000000;stroke-width:2.0px;stroke-linecap:butt;stroke-linejoin:miter;stroke-opacity:1"/>
<path class="bond-25 atom-12 atom-33" d="M 80.2,142.2 L 78.7,122.6" style="fill:none;fill-rule:evenodd;stroke:#000000;stroke-width:2.0px;stroke-linecap:butt;stroke-linejoin:miter;stroke-opacity:1"/>
<path class="bond-26 atom-13 atom-14" d="M 59.9,155.6 L 50.7,151.0" style="fill:none;fill-rule:evenodd;stroke:#000000;stroke-width:2.0px;stroke-linecap:butt;stroke-linejoin:miter;stroke-opacity:1"/>
<path class="bond-26 atom-13 atom-14" d="M 50.7,151.0 L 41.6,146.3" style="fill:none;fill-rule:evenodd;stroke:#33CCCC;stroke-width:2.0px;stroke-linecap:butt;stroke-linejoin:miter;stroke-opacity:1"/>
<path class="bond-27 atom-13 atom-15" d="M 59.9,155.6 L 61.2,180.3" style="fill:none;fill-rule:evenodd;stroke:#000000;stroke-width:2.0px;stroke-linecap:butt;stroke-linejoin:miter;stroke-opacity:1"/>
<path class="bond-27 atom-13 atom-15" d="M 64.5,159.1 L 65.4,176.3" style="fill:none;fill-rule:evenodd;stroke:#000000;stroke-width:2.0px;stroke-linecap:butt;stroke-linejoin:miter;stroke-opacity:1"/>
<path class="bond-28 atom-15 atom-16" d="M 61.2,180.3 L 83.2,191.5" style="fill:none;fill-rule:evenodd;stroke:#000000;stroke-width:2.0px;stroke-linecap:butt;stroke-linejoin:miter;stroke-opacity:1"/>
<path class="bond-29 atom-15 atom-34" d="M 61.2,180.3 L 46.3,190.1" style="fill:none;fill-rule:evenodd;stroke:#000000;stroke-width:2.0px;stroke-linecap:butt;stroke-linejoin:miter;stroke-opacity:1"/>
<path class="bond-30 atom-16 atom-17" d="M 83.2,191.5 L 87.5,213.9" style="fill:none;fill-rule:evenodd;stroke:#000000;stroke-width:2.0px;stroke-linecap:butt;stroke-linejoin:miter;stroke-opacity:1"/>
<path class="bond-31 atom-16 atom-18" d="M 83.2,191.5 L 103.6,178.3" style="fill:none;fill-rule:evenodd;stroke:#000000;stroke-width:2.0px;stroke-linecap:butt;stroke-linejoin:miter;stroke-opacity:1"/>
<path class="bond-31 atom-16 atom-18" d="M 83.9,185.8 L 98.1,176.6" style="fill:none;fill-rule:evenodd;stroke:#000000;stroke-width:2.0px;stroke-linecap:butt;stroke-linejoin:miter;stroke-opacity:1"/>
<path class="bond-32 atom-17 atom-25" d="M 87.5,213.9 L 90.0,222.3" style="fill:none;fill-rule:evenodd;stroke:#000000;stroke-width:2.0px;stroke-linecap:butt;stroke-linejoin:miter;stroke-opacity:1"/>
<path class="bond-32 atom-17 atom-25" d="M 90.0,222.3 L 92.6,230.7" style="fill:none;fill-rule:evenodd;stroke:#0000FF;stroke-width:2.0px;stroke-linecap:butt;stroke-linejoin:miter;stroke-opacity:1"/>
<path class="bond-32 atom-17 atom-25" d="M 92.5,215.2 L 94.7,222.3" style="fill:none;fill-rule:evenodd;stroke:#000000;stroke-width:2.0px;stroke-linecap:butt;stroke-linejoin:miter;stroke-opacity:1"/>
<path class="bond-32 atom-17 atom-25" d="M 94.7,222.3 L 96.8,229.5" style="fill:none;fill-rule:evenodd;stroke:#0000FF;stroke-width:2.0px;stroke-linecap:butt;stroke-linejoin:miter;stroke-opacity:1"/>
<path class="bond-32 atom-17 atom-25" d="M 84.0,217.7 L 86.2,224.8" style="fill:none;fill-rule:evenodd;stroke:#000000;stroke-width:2.0px;stroke-linecap:butt;stroke-linejoin:miter;stroke-opacity:1"/>
<path class="bond-32 atom-17 atom-25" d="M 86.2,224.8 L 88.3,232.0" style="fill:none;fill-rule:evenodd;stroke:#0000FF;stroke-width:2.0px;stroke-linecap:butt;stroke-linejoin:miter;stroke-opacity:1"/>
<path class="bond-33 atom-18 atom-35" d="M 103.6,178.3 L 128.5,184.4" style="fill:none;fill-rule:evenodd;stroke:#000000;stroke-width:2.0px;stroke-linecap:butt;stroke-linejoin:miter;stroke-opacity:1"/>
<path class="bond-34 atom-19 atom-20" d="M 213.0,167.8 L 211.4,173.1" style="fill:none;fill-rule:evenodd;stroke:#CCCC00;stroke-width:2.0px;stroke-linecap:butt;stroke-linejoin:miter;stroke-opacity:1"/>
<path class="bond-34 atom-19 atom-20" d="M 211.4,173.1 L 209.7,178.5" style="fill:none;fill-rule:evenodd;stroke:#FF0000;stroke-width:2.0px;stroke-linecap:butt;stroke-linejoin:miter;stroke-opacity:1"/>
<path class="bond-34 atom-19 atom-20" d="M 208.8,166.5 L 207.1,171.9" style="fill:none;fill-rule:evenodd;stroke:#CCCC00;stroke-width:2.0px;stroke-linecap:butt;stroke-linejoin:miter;stroke-opacity:1"/>
<path class="bond-34 atom-19 atom-20" d="M 207.1,171.9 L 205.5,177.2" style="fill:none;fill-rule:evenodd;stroke:#FF0000;stroke-width:2.0px;stroke-linecap:butt;stroke-linejoin:miter;stroke-opacity:1"/>
<path class="bond-35 atom-19 atom-21" d="M 212.9,154.1 L 214.5,149.9" style="fill:none;fill-rule:evenodd;stroke:#CCCC00;stroke-width:2.0px;stroke-linecap:butt;stroke-linejoin:miter;stroke-opacity:1"/>
<path class="bond-35 atom-19 atom-21" d="M 214.5,149.9 L 216.0,145.8" style="fill:none;fill-rule:evenodd;stroke:#FF0000;stroke-width:2.0px;stroke-linecap:butt;stroke-linejoin:miter;stroke-opacity:1"/>
<path class="bond-35 atom-19 atom-21" d="M 217.1,155.7 L 218.6,151.5" style="fill:none;fill-rule:evenodd;stroke:#CCCC00;stroke-width:2.0px;stroke-linecap:butt;stroke-linejoin:miter;stroke-opacity:1"/>
<path class="bond-35 atom-19 atom-21" d="M 218.6,151.5 L 220.2,147.3" style="fill:none;fill-rule:evenodd;stroke:#FF0000;stroke-width:2.0px;stroke-linecap:butt;stroke-linejoin:miter;stroke-opacity:1"/>
<path class="bond-36 atom-19 atom-22" d="M 217.0,162.1 L 227.1,164.9" style="fill:none;fill-rule:evenodd;stroke:#CCCC00;stroke-width:2.0px;stroke-linecap:butt;stroke-linejoin:miter;stroke-opacity:1"/>
<path class="bond-36 atom-19 atom-22" d="M 227.1,164.9 L 237.2,167.7" style="fill:none;fill-rule:evenodd;stroke:#000000;stroke-width:2.0px;stroke-linecap:butt;stroke-linejoin:miter;stroke-opacity:1"/>
<path class="bond-37 atom-22 atom-26" d="M 237.2,167.7 L 239.6,176.6" style="fill:none;fill-rule:evenodd;stroke:#000000;stroke-width:2.0px;stroke-linecap:butt;stroke-linejoin:miter;stroke-opacity:1"/>
<path class="bond-37 atom-22 atom-26" d="M 239.6,176.6 L 241.9,185.4" style="fill:none;fill-rule:evenodd;stroke:#00CC00;stroke-width:2.0px;stroke-linecap:butt;stroke-linejoin:miter;stroke-opacity:1"/>
<path class="bond-38 atom-22 atom-36" d="M 237.2,167.7 L 242.4,149.8" style="fill:none;fill-rule:evenodd;stroke:#000000;stroke-width:2.0px;stroke-linecap:butt;stroke-linejoin:miter;stroke-opacity:1"/>
<path class="bond-39 atom-22 atom-37" d="M 237.2,167.7 L 256.4,162.8" style="fill:none;fill-rule:evenodd;stroke:#000000;stroke-width:2.0px;stroke-linecap:butt;stroke-linejoin:miter;stroke-opacity:1"/>
<path class="atom-0" d="M 216.6 90.8 Q 216.6 88.3, 217.8 86.9 Q 219.1 85.5, 221.4 85.5 Q 223.7 85.5, 224.9 86.9 Q 226.2 88.3, 226.2 90.8 Q 226.2 93.4, 224.9 94.8 Q 223.7 96.3, 221.4 96.3 Q 219.1 96.3, 217.8 94.8 Q 216.6 93.4, 216.6 90.8 M 221.4 95.1 Q 223.0 95.1, 223.8 94.0 Q 224.7 92.9, 224.7 90.8 Q 224.7 88.8, 223.8 87.8 Q 223.0 86.7, 221.4 86.7 Q 219.8 86.7, 218.9 87.8 Q 218.1 88.8, 218.1 90.8 Q 218.1 93.0, 218.9 94.0 Q 219.8 95.1, 221.4 95.1 " fill="#FF0000"/>
<path class="atom-10" d="M 115.6 128.0 Q 115.6 125.5, 116.8 124.1 Q 118.0 122.7, 120.4 122.7 Q 122.7 122.7, 123.9 124.1 Q 125.1 125.5, 125.1 128.0 Q 125.1 130.6, 123.9 132.0 Q 122.6 133.4, 120.4 133.4 Q 118.1 133.4, 116.8 132.0 Q 115.6 130.6, 115.6 128.0 M 120.4 132.3 Q 121.9 132.3, 122.8 131.2 Q 123.7 130.1, 123.7 128.0 Q 123.7 126.0, 122.8 125.0 Q 121.9 123.9, 120.4 123.9 Q 118.8 123.9, 117.9 124.9 Q 117.0 126.0, 117.0 128.0 Q 117.0 130.1, 117.9 131.2 Q 118.8 132.3, 120.4 132.3 " fill="#FF0000"/>
<path class="atom-14" d="M 34.6 139.1 L 40.8 139.1 L 40.8 140.3 L 36.0 140.3 L 36.0 143.5 L 40.3 143.5 L 40.3 144.7 L 36.0 144.7 L 36.0 149.5 L 34.6 149.5 L 34.6 139.1 " fill="#33CCCC"/>
<path class="atom-19" d="M 209.9 164.5 Q 210.0 164.5, 210.5 164.7 Q 210.9 164.9, 211.5 165.1 Q 212.0 165.2, 212.6 165.2 Q 213.5 165.2, 214.1 164.7 Q 214.7 164.2, 214.7 163.4 Q 214.7 162.8, 214.4 162.5 Q 214.1 162.1, 213.7 161.9 Q 213.2 161.7, 212.5 161.5 Q 211.6 161.2, 211.0 161.0 Q 210.5 160.7, 210.1 160.1 Q 209.7 159.6, 209.7 158.6 Q 209.7 157.3, 210.6 156.5 Q 211.5 155.7, 213.2 155.7 Q 214.4 155.7, 215.8 156.3 L 215.5 157.4 Q 214.2 156.9, 213.3 156.9 Q 212.3 156.9, 211.7 157.3 Q 211.1 157.7, 211.2 158.5 Q 211.2 159.0, 211.4 159.4 Q 211.7 159.7, 212.1 159.9 Q 212.6 160.1, 213.3 160.3 Q 214.2 160.6, 214.8 160.9 Q 215.3 161.2, 215.7 161.8 Q 216.1 162.4, 216.1 163.4 Q 216.1 164.8, 215.2 165.6 Q 214.2 166.4, 212.6 166.4 Q 211.7 166.4, 211.0 166.2 Q 210.3 166.0, 209.5 165.6 L 209.9 164.5 " fill="#CCCC00"/>
<path class="atom-20" d="M 201.0 183.9 Q 201.0 181.4, 202.2 180.0 Q 203.5 178.6, 205.8 178.6 Q 208.1 178.6, 209.3 180.0 Q 210.6 181.4, 210.6 183.9 Q 210.6 186.5, 209.3 187.9 Q 208.1 189.3, 205.8 189.3 Q 203.5 189.3, 202.2 187.9 Q 201.0 186.5, 201.0 183.9 M 205.8 188.1 Q 207.4 188.1, 208.2 187.1 Q 209.1 186.0, 209.1 183.9 Q 209.1 181.9, 208.2 180.8 Q 207.4 179.8, 205.8 179.8 Q 204.2 179.8, 203.3 180.8 Q 202.5 181.9, 202.5 183.9 Q 202.5 186.0, 203.3 187.1 Q 204.2 188.1, 205.8 188.1 " fill="#FF0000"/>
<path class="atom-21" d="M 215.6 140.3 Q 215.6 137.8, 216.8 136.4 Q 218.1 135.0, 220.4 135.0 Q 222.7 135.0, 223.9 136.4 Q 225.2 137.8, 225.2 140.3 Q 225.2 142.8, 223.9 144.3 Q 222.7 145.7, 220.4 145.7 Q 218.1 145.7, 216.8 144.3 Q 215.6 142.9, 215.6 140.3 M 220.4 144.5 Q 222.0 144.5, 222.8 143.5 Q 223.7 142.4, 223.7 140.3 Q 223.7 138.3, 222.8 137.2 Q 222.0 136.2, 220.4 136.2 Q 218.8 136.2, 217.9 137.2 Q 217.1 138.2, 217.1 140.3 Q 217.1 142.4, 217.9 143.5 Q 218.8 144.5, 220.4 144.5 " fill="#FF0000"/>
<path class="atom-23" d="M 174.1 58.0 L 180.3 58.0 L 180.3 59.2 L 175.5 59.2 L 175.5 62.4 L 179.7 62.4 L 179.7 63.6 L 175.5 63.6 L 175.5 68.5 L 174.1 68.5 L 174.1 58.0 " fill="#33CCCC"/>
<path class="atom-24" d="M 197.3 71.5 L 203.5 71.5 L 203.5 72.7 L 198.7 72.7 L 198.7 75.9 L 203.0 75.9 L 203.0 77.1 L 198.7 77.1 L 198.7 81.9 L 197.3 81.9 L 197.3 71.5 " fill="#33CCCC"/>
<path class="atom-25" d="M 92.1 231.5 L 95.5 237.1 Q 95.8 237.6, 96.4 238.6 Q 96.9 239.6, 96.9 239.6 L 96.9 231.5 L 98.3 231.5 L 98.3 242.0 L 96.9 242.0 L 93.2 235.9 Q 92.8 235.2, 92.3 234.4 Q 91.9 233.6, 91.8 233.3 L 91.8 242.0 L 90.4 242.0 L 90.4 231.5 L 92.1 231.5 " fill="#0000FF"/>
<path class="atom-26" d="M 239.4 191.5 Q 239.4 188.9, 240.6 187.6 Q 241.9 186.2, 244.2 186.2 Q 246.3 186.2, 247.5 187.7 L 246.5 188.5 Q 245.7 187.4, 244.2 187.4 Q 242.6 187.4, 241.8 188.5 Q 240.9 189.5, 240.9 191.5 Q 240.9 193.6, 241.8 194.7 Q 242.7 195.7, 244.3 195.7 Q 245.5 195.7, 246.8 195.0 L 247.2 196.1 Q 246.7 196.5, 245.9 196.7 Q 245.0 196.9, 244.1 196.9 Q 241.9 196.9, 240.6 195.5 Q 239.4 194.1, 239.4 191.5 " fill="#00CC00"/>
<path class="atom-26" d="M 248.1 185.6 L 249.4 185.6 L 249.4 196.8 L 248.1 196.8 L 248.1 185.6 " fill="#00CC00"/>
<path class="atom-27" d="M 215.0 60.5 L 216.4 60.5 L 216.4 65.0 L 221.7 65.0 L 221.7 60.5 L 223.1 60.5 L 223.1 71.0 L 221.7 71.0 L 221.7 66.2 L 216.4 66.2 L 216.4 71.0 L 215.0 71.0 L 215.0 60.5 " fill="#000000"/>
<path class="atom-28" d="M 209.1 116.8 L 210.5 116.8 L 210.5 121.2 L 215.9 121.2 L 215.9 116.8 L 217.3 116.8 L 217.3 127.2 L 215.9 127.2 L 215.9 122.4 L 210.5 122.4 L 210.5 127.2 L 209.1 127.2 L 209.1 116.8 " fill="#000000"/>
<path class="atom-29" d="M 133.7 87.5 L 135.1 87.5 L 135.1 91.9 L 140.4 91.9 L 140.4 87.5 L 141.9 87.5 L 141.9 97.9 L 140.4 97.9 L 140.4 93.1 L 135.1 93.1 L 135.1 97.9 L 133.7 97.9 L 133.7 87.5 " fill="#000000"/>
<path class="atom-30" d="M 153.9 62.3 L 155.3 62.3 L 155.3 66.7 L 160.6 66.7 L 160.6 62.3 L 162.0 62.3 L 162.0 72.7 L 160.6 72.7 L 160.6 67.9 L 155.3 67.9 L 155.3 72.7 L 153.9 72.7 L 153.9 62.3 " fill="#000000"/>
<path class="atom-31" d="M 164.4 183.8 L 165.8 183.8 L 165.8 188.3 L 171.1 188.3 L 171.1 183.8 L 172.6 183.8 L 172.6 194.3 L 171.1 194.3 L 171.1 189.5 L 165.8 189.5 L 165.8 194.3 L 164.4 194.3 L 164.4 183.8 " fill="#000000"/>
<path class="atom-32" d="M 125.3 161.4 L 126.7 161.4 L 126.7 165.8 L 132.1 165.8 L 132.1 161.4 L 133.5 161.4 L 133.5 171.8 L 132.1 171.8 L 132.1 167.0 L 126.7 167.0 L 126.7 171.8 L 125.3 171.8 L 125.3 161.4 " fill="#000000"/>
<path class="atom-33" d="M 74.1 111.4 L 75.6 111.4 L 75.6 115.8 L 80.9 115.8 L 80.9 111.4 L 82.3 111.4 L 82.3 121.8 L 80.9 121.8 L 80.9 117.0 L 75.6 117.0 L 75.6 121.8 L 74.1 121.8 L 74.1 111.4 " fill="#000000"/>
<path class="atom-34" d="M 37.4 188.1 L 38.8 188.1 L 38.8 192.5 L 44.1 192.5 L 44.1 188.1 L 45.5 188.1 L 45.5 198.5 L 44.1 198.5 L 44.1 193.7 L 38.8 193.7 L 38.8 198.5 L 37.4 198.5 L 37.4 188.1 " fill="#000000"/>
<path class="atom-35" d="M 129.3 180.4 L 130.7 180.4 L 130.7 184.8 L 136.1 184.8 L 136.1 180.4 L 137.5 180.4 L 137.5 190.8 L 136.1 190.8 L 136.1 186.0 L 130.7 186.0 L 130.7 190.8 L 129.3 190.8 L 129.3 180.4 " fill="#000000"/>
<path class="atom-36" d="M 240.1 138.5 L 241.5 138.5 L 241.5 143.0 L 246.8 143.0 L 246.8 138.5 L 248.3 138.5 L 248.3 149.0 L 246.8 149.0 L 246.8 144.2 L 241.5 144.2 L 241.5 149.0 L 240.1 149.0 L 240.1 138.5 " fill="#000000"/>
<path class="atom-37" d="M 257.2 156.3 L 258.6 156.3 L 258.6 160.7 L 264.0 160.7 L 264.0 156.3 L 265.4 156.3 L 265.4 166.7 L 264.0 166.7 L 264.0 161.9 L 258.6 161.9 L 258.6 166.7 L 257.2 166.7 L 257.2 156.3 " fill="#000000"/>
<ellipse cx="540.3" cy="167.9" rx="8.1" ry="8.1" class="atom-22" style="fill:#6B4EF9;fill-rule:evenodd;stroke:#6B4EF9;stroke-width:1.0px;stroke-linecap:butt;stroke-linejoin:miter;stroke-opacity:1"/>
<ellipse cx="522.1" cy="65.8" rx="8.1" ry="8.1" class="atom-26" style="fill:#DC3369;fill-rule:evenodd;stroke:#DC3369;stroke-width:1.0px;stroke-linecap:butt;stroke-linejoin:miter;stroke-opacity:1"/>
<path class="bond-0 atom-0 atom-1" d="M 518.9,94.9 L 510.4,101.0" style="fill:none;fill-rule:evenodd;stroke:#FF0000;stroke-width:2.0px;stroke-linecap:butt;stroke-linejoin:miter;stroke-opacity:1"/>
<path class="bond-0 atom-0 atom-1" d="M 510.4,101.0 L 501.9,107.2" style="fill:none;fill-rule:evenodd;stroke:#000000;stroke-width:2.0px;stroke-linecap:butt;stroke-linejoin:miter;stroke-opacity:1"/>
<path class="bond-1 atom-0 atom-26" d="M 523.9,84.8 L 523.3,78.3" style="fill:none;fill-rule:evenodd;stroke:#FF0000;stroke-width:2.0px;stroke-linecap:butt;stroke-linejoin:miter;stroke-opacity:1"/>
<path class="bond-1 atom-0 atom-26" d="M 523.3,78.3 L 522.7,71.8" style="fill:none;fill-rule:evenodd;stroke:#000000;stroke-width:2.0px;stroke-linecap:butt;stroke-linejoin:miter;stroke-opacity:1"/>
<path class="bond-2 atom-1 atom-2" d="M 501.9,107.2 L 489.4,85.9" style="fill:none;fill-rule:evenodd;stroke:#000000;stroke-width:2.0px;stroke-linecap:butt;stroke-linejoin:miter;stroke-opacity:1"/>
<path class="bond-3 atom-1 atom-5" d="M 501.9,107.2 L 485.3,125.4" style="fill:none;fill-rule:evenodd;stroke:#000000;stroke-width:2.0px;stroke-linecap:butt;stroke-linejoin:miter;stroke-opacity:1"/>
<path class="bond-4 atom-1 atom-27" d="M 504.2,110.7 L 505.4,109.6" style="fill:none;fill-rule:evenodd;stroke:#000000;stroke-width:1.0px;stroke-linecap:butt;stroke-linejoin:miter;stroke-opacity:1"/>
<path class="bond-4 atom-1 atom-27" d="M 506.5,114.3 L 508.9,112.0" style="fill:none;fill-rule:evenodd;stroke:#000000;stroke-width:1.0px;stroke-linecap:butt;stroke-linejoin:miter;stroke-opacity:1"/>
<path class="bond-4 atom-1 atom-27" d="M 508.9,117.9 L 512.4,114.5" style="fill:none;fill-rule:evenodd;stroke:#000000;stroke-width:1.0px;stroke-linecap:butt;stroke-linejoin:miter;stroke-opacity:1"/>
<path class="bond-5 atom-2 atom-3" d="M 489.4,85.9 L 465.5,91.0" style="fill:none;fill-rule:evenodd;stroke:#000000;stroke-width:2.0px;stroke-linecap:butt;stroke-linejoin:miter;stroke-opacity:1"/>
<path class="bond-6 atom-2 atom-23" d="M 489.4,85.9 L 486.1,77.6" style="fill:none;fill-rule:evenodd;stroke:#000000;stroke-width:2.0px;stroke-linecap:butt;stroke-linejoin:miter;stroke-opacity:1"/>
<path class="bond-6 atom-2 atom-23" d="M 486.1,77.6 L 482.8,69.3" style="fill:none;fill-rule:evenodd;stroke:#33CCCC;stroke-width:2.0px;stroke-linecap:butt;stroke-linejoin:miter;stroke-opacity:1"/>
<path class="bond-7 atom-2 atom-24" d="M 489.4,85.9 L 494.5,82.6" style="fill:none;fill-rule:evenodd;stroke:#000000;stroke-width:2.0px;stroke-linecap:butt;stroke-linejoin:miter;stroke-opacity:1"/>
<path class="bond-7 atom-2 atom-24" d="M 494.5,82.6 L 499.6,79.3" style="fill:none;fill-rule:evenodd;stroke:#33CCCC;stroke-width:2.0px;stroke-linecap:butt;stroke-linejoin:miter;stroke-opacity:1"/>
<path class="bond-8 atom-3 atom-4" d="M 465.5,91.0 L 462.9,115.3" style="fill:none;fill-rule:evenodd;stroke:#000000;stroke-width:2.0px;stroke-linecap:butt;stroke-linejoin:miter;stroke-opacity:1"/>
<path class="bond-9 atom-3 atom-28" d="M 465.5,91.0 L 445.8,92.3" style="fill:none;fill-rule:evenodd;stroke:#000000;stroke-width:2.0px;stroke-linecap:butt;stroke-linejoin:miter;stroke-opacity:1"/>
<path class="bond-10 atom-3 atom-29" d="M 465.5,91.0 L 462.2,73.5" style="fill:none;fill-rule:evenodd;stroke:#000000;stroke-width:2.0px;stroke-linecap:butt;stroke-linejoin:miter;stroke-opacity:1"/>
<path class="bond-11 atom-4 atom-5" d="M 462.9,115.3 L 485.3,125.4" style="fill:none;fill-rule:evenodd;stroke:#000000;stroke-width:2.0px;stroke-linecap:butt;stroke-linejoin:miter;stroke-opacity:1"/>
<path class="bond-11 atom-4 atom-5" d="M 464.4,120.8 L 480.2,127.9" style="fill:none;fill-rule:evenodd;stroke:#000000;stroke-width:2.0px;stroke-linecap:butt;stroke-linejoin:miter;stroke-opacity:1"/>
<path class="bond-12 atom-4 atom-9" d="M 462.9,115.3 L 443.0,129.5" style="fill:none;fill-rule:evenodd;stroke:#000000;stroke-width:2.0px;stroke-linecap:butt;stroke-linejoin:miter;stroke-opacity:1"/>
<path class="bond-13 atom-5 atom-6" d="M 485.3,125.4 L 487.7,149.8" style="fill:none;fill-rule:evenodd;stroke:#000000;stroke-width:2.0px;stroke-linecap:butt;stroke-linejoin:miter;stroke-opacity:1"/>
<path class="bond-14 atom-6 atom-7" d="M 487.7,149.8 L 467.6,163.9" style="fill:none;fill-rule:evenodd;stroke:#000000;stroke-width:2.0px;stroke-linecap:butt;stroke-linejoin:miter;stroke-opacity:1"/>
<path class="bond-14 atom-6 atom-7" d="M 482.1,148.3 L 468.1,158.2" style="fill:none;fill-rule:evenodd;stroke:#000000;stroke-width:2.0px;stroke-linecap:butt;stroke-linejoin:miter;stroke-opacity:1"/>
<path class="bond-15 atom-6 atom-19" d="M 487.7,149.8 L 499.7,154.6" style="fill:none;fill-rule:evenodd;stroke:#000000;stroke-width:2.0px;stroke-linecap:butt;stroke-linejoin:miter;stroke-opacity:1"/>
<path class="bond-15 atom-6 atom-19" d="M 499.7,154.6 L 511.7,159.3" style="fill:none;fill-rule:evenodd;stroke:#CCCC00;stroke-width:2.0px;stroke-linecap:butt;stroke-linejoin:miter;stroke-opacity:1"/>
<path class="bond-16 atom-7 atom-8" d="M 467.6,163.9 L 445.2,153.6" style="fill:none;fill-rule:evenodd;stroke:#000000;stroke-width:2.0px;stroke-linecap:butt;stroke-linejoin:miter;stroke-opacity:1"/>
<path class="bond-17 atom-7 atom-30" d="M 467.6,163.9 L 470.6,183.1" style="fill:none;fill-rule:evenodd;stroke:#000000;stroke-width:2.0px;stroke-linecap:butt;stroke-linejoin:miter;stroke-opacity:1"/>
<path class="bond-18 atom-8 atom-9" d="M 445.2,153.6 L 443.0,129.5" style="fill:none;fill-rule:evenodd;stroke:#000000;stroke-width:2.0px;stroke-linecap:butt;stroke-linejoin:miter;stroke-opacity:1"/>
<path class="bond-18 atom-8 atom-9" d="M 449.3,149.6 L 447.7,132.7" style="fill:none;fill-rule:evenodd;stroke:#000000;stroke-width:2.0px;stroke-linecap:butt;stroke-linejoin:miter;stroke-opacity:1"/>
<path class="bond-19 atom-8 atom-31" d="M 445.2,153.6 L 437.4,161.6" style="fill:none;fill-rule:evenodd;stroke:#000000;stroke-width:2.0px;stroke-linecap:butt;stroke-linejoin:miter;stroke-opacity:1"/>
<path class="bond-20 atom-9 atom-10" d="M 443.0,129.5 L 436.0,128.9" style="fill:none;fill-rule:evenodd;stroke:#000000;stroke-width:2.0px;stroke-linecap:butt;stroke-linejoin:miter;stroke-opacity:1"/>
<path class="bond-20 atom-9 atom-10" d="M 436.0,128.9 L 429.1,128.4" style="fill:none;fill-rule:evenodd;stroke:#FF0000;stroke-width:2.0px;stroke-linecap:butt;stroke-linejoin:miter;stroke-opacity:1"/>
<path class="bond-21 atom-10 atom-11" d="M 419.0,134.2 L 412.1,143.7" style="fill:none;fill-rule:evenodd;stroke:#FF0000;stroke-width:2.0px;stroke-linecap:butt;stroke-linejoin:miter;stroke-opacity:1"/>
<path class="bond-21 atom-10 atom-11" d="M 412.1,143.7 L 405.3,153.3" style="fill:none;fill-rule:evenodd;stroke:#000000;stroke-width:2.0px;stroke-linecap:butt;stroke-linejoin:miter;stroke-opacity:1"/>
<path class="bond-22 atom-11 atom-12" d="M 405.3,153.3 L 383.4,142.1" style="fill:none;fill-rule:evenodd;stroke:#000000;stroke-width:2.0px;stroke-linecap:butt;stroke-linejoin:miter;stroke-opacity:1"/>
<path class="bond-22 atom-11 atom-12" d="M 400.0,155.5 L 384.6,147.7" style="fill:none;fill-rule:evenodd;stroke:#000000;stroke-width:2.0px;stroke-linecap:butt;stroke-linejoin:miter;stroke-opacity:1"/>
<path class="bond-23 atom-11 atom-18" d="M 405.3,153.3 L 406.6,178.3" style="fill:none;fill-rule:evenodd;stroke:#000000;stroke-width:2.0px;stroke-linecap:butt;stroke-linejoin:miter;stroke-opacity:1"/>
<path class="bond-24 atom-12 atom-13" d="M 383.4,142.1 L 362.9,155.5" style="fill:none;fill-rule:evenodd;stroke:#000000;stroke-width:2.0px;stroke-linecap:butt;stroke-linejoin:miter;stroke-opacity:1"/>
<path class="bond-25 atom-12 atom-32" d="M 383.4,142.1 L 381.8,122.6" style="fill:none;fill-rule:evenodd;stroke:#000000;stroke-width:2.0px;stroke-linecap:butt;stroke-linejoin:miter;stroke-opacity:1"/>
<path class="bond-26 atom-13 atom-14" d="M 362.9,155.5 L 353.8,150.9" style="fill:none;fill-rule:evenodd;stroke:#000000;stroke-width:2.0px;stroke-linecap:butt;stroke-linejoin:miter;stroke-opacity:1"/>
<path class="bond-26 atom-13 atom-14" d="M 353.8,150.9 L 344.7,146.2" style="fill:none;fill-rule:evenodd;stroke:#33CCCC;stroke-width:2.0px;stroke-linecap:butt;stroke-linejoin:miter;stroke-opacity:1"/>
<path class="bond-27 atom-13 atom-15" d="M 362.9,155.5 L 364.3,180.2" style="fill:none;fill-rule:evenodd;stroke:#000000;stroke-width:2.0px;stroke-linecap:butt;stroke-linejoin:miter;stroke-opacity:1"/>
<path class="bond-27 atom-13 atom-15" d="M 367.5,159.0 L 368.5,176.2" style="fill:none;fill-rule:evenodd;stroke:#000000;stroke-width:2.0px;stroke-linecap:butt;stroke-linejoin:miter;stroke-opacity:1"/>
<path class="bond-28 atom-15 atom-16" d="M 364.3,180.2 L 386.2,191.5" style="fill:none;fill-rule:evenodd;stroke:#000000;stroke-width:2.0px;stroke-linecap:butt;stroke-linejoin:miter;stroke-opacity:1"/>
<path class="bond-29 atom-15 atom-33" d="M 364.3,180.2 L 349.3,190.0" style="fill:none;fill-rule:evenodd;stroke:#000000;stroke-width:2.0px;stroke-linecap:butt;stroke-linejoin:miter;stroke-opacity:1"/>
<path class="bond-30 atom-16 atom-17" d="M 386.2,191.5 L 390.5,213.9" style="fill:none;fill-rule:evenodd;stroke:#000000;stroke-width:2.0px;stroke-linecap:butt;stroke-linejoin:miter;stroke-opacity:1"/>
<path class="bond-31 atom-16 atom-18" d="M 386.2,191.5 L 406.6,178.3" style="fill:none;fill-rule:evenodd;stroke:#000000;stroke-width:2.0px;stroke-linecap:butt;stroke-linejoin:miter;stroke-opacity:1"/>
<path class="bond-31 atom-16 atom-18" d="M 386.9,185.8 L 401.2,176.6" style="fill:none;fill-rule:evenodd;stroke:#000000;stroke-width:2.0px;stroke-linecap:butt;stroke-linejoin:miter;stroke-opacity:1"/>
<path class="bond-32 atom-17 atom-25" d="M 390.5,213.9 L 393.1,222.3" style="fill:none;fill-rule:evenodd;stroke:#000000;stroke-width:2.0px;stroke-linecap:butt;stroke-linejoin:miter;stroke-opacity:1"/>
<path class="bond-32 atom-17 atom-25" d="M 393.1,222.3 L 395.6,230.7" style="fill:none;fill-rule:evenodd;stroke:#0000FF;stroke-width:2.0px;stroke-linecap:butt;stroke-linejoin:miter;stroke-opacity:1"/>
<path class="bond-32 atom-17 atom-25" d="M 395.5,215.1 L 397.7,222.3" style="fill:none;fill-rule:evenodd;stroke:#000000;stroke-width:2.0px;stroke-linecap:butt;stroke-linejoin:miter;stroke-opacity:1"/>
<path class="bond-32 atom-17 atom-25" d="M 397.7,222.3 L 399.8,229.4" style="fill:none;fill-rule:evenodd;stroke:#0000FF;stroke-width:2.0px;stroke-linecap:butt;stroke-linejoin:miter;stroke-opacity:1"/>
<path class="bond-32 atom-17 atom-25" d="M 387.1,217.7 L 389.2,224.8" style="fill:none;fill-rule:evenodd;stroke:#000000;stroke-width:2.0px;stroke-linecap:butt;stroke-linejoin:miter;stroke-opacity:1"/>
<path class="bond-32 atom-17 atom-25" d="M 389.2,224.8 L 391.3,232.0" style="fill:none;fill-rule:evenodd;stroke:#0000FF;stroke-width:2.0px;stroke-linecap:butt;stroke-linejoin:miter;stroke-opacity:1"/>
<path class="bond-33 atom-18 atom-34" d="M 406.6,178.3 L 431.6,184.4" style="fill:none;fill-rule:evenodd;stroke:#000000;stroke-width:2.0px;stroke-linecap:butt;stroke-linejoin:miter;stroke-opacity:1"/>
<path class="bond-34 atom-19 atom-20" d="M 516.0,167.9 L 514.4,173.2" style="fill:none;fill-rule:evenodd;stroke:#CCCC00;stroke-width:2.0px;stroke-linecap:butt;stroke-linejoin:miter;stroke-opacity:1"/>
<path class="bond-34 atom-19 atom-20" d="M 514.4,173.2 L 512.8,178.5" style="fill:none;fill-rule:evenodd;stroke:#FF0000;stroke-width:2.0px;stroke-linecap:butt;stroke-linejoin:miter;stroke-opacity:1"/>
<path class="bond-34 atom-19 atom-20" d="M 511.8,166.6 L 510.2,171.9" style="fill:none;fill-rule:evenodd;stroke:#CCCC00;stroke-width:2.0px;stroke-linecap:butt;stroke-linejoin:miter;stroke-opacity:1"/>
<path class="bond-34 atom-19 atom-20" d="M 510.2,171.9 L 508.6,177.2" style="fill:none;fill-rule:evenodd;stroke:#FF0000;stroke-width:2.0px;stroke-linecap:butt;stroke-linejoin:miter;stroke-opacity:1"/>
<path class="bond-35 atom-19 atom-21" d="M 516.0,154.2 L 517.5,150.0" style="fill:none;fill-rule:evenodd;stroke:#CCCC00;stroke-width:2.0px;stroke-linecap:butt;stroke-linejoin:miter;stroke-opacity:1"/>
<path class="bond-35 atom-19 atom-21" d="M 517.5,150.0 L 519.1,145.8" style="fill:none;fill-rule:evenodd;stroke:#FF0000;stroke-width:2.0px;stroke-linecap:butt;stroke-linejoin:miter;stroke-opacity:1"/>
<path class="bond-35 atom-19 atom-21" d="M 520.1,155.7 L 521.7,151.5" style="fill:none;fill-rule:evenodd;stroke:#CCCC00;stroke-width:2.0px;stroke-linecap:butt;stroke-linejoin:miter;stroke-opacity:1"/>
<path class="bond-35 atom-19 atom-21" d="M 521.7,151.5 L 523.3,147.3" style="fill:none;fill-rule:evenodd;stroke:#FF0000;stroke-width:2.0px;stroke-linecap:butt;stroke-linejoin:miter;stroke-opacity:1"/>
<path class="bond-36 atom-19 atom-22" d="M 520.0,162.2 L 527.8,164.3" style="fill:none;fill-rule:evenodd;stroke:#CCCC00;stroke-width:2.0px;stroke-linecap:butt;stroke-linejoin:miter;stroke-opacity:1"/>
<path class="bond-36 atom-19 atom-22" d="M 527.8,164.3 L 535.5,166.5" style="fill:none;fill-rule:evenodd;stroke:#0000FF;stroke-width:2.0px;stroke-linecap:butt;stroke-linejoin:miter;stroke-opacity:1"/>
<path class="bond-37 atom-22 atom-35" d="M 541.9,173.9 L 543.4,179.6" style="fill:none;fill-rule:evenodd;stroke:#0000FF;stroke-width:2.0px;stroke-linecap:butt;stroke-linejoin:miter;stroke-opacity:1"/>
<path class="bond-37 atom-22 atom-35" d="M 543.4,179.6 L 544.9,185.3" style="fill:none;fill-rule:evenodd;stroke:#000000;stroke-width:2.0px;stroke-linecap:butt;stroke-linejoin:miter;stroke-opacity:1"/>
<path class="bond-38 atom-22 atom-36" d="M 545.0,163.2 L 549.2,159.2" style="fill:none;fill-rule:evenodd;stroke:#0000FF;stroke-width:2.0px;stroke-linecap:butt;stroke-linejoin:miter;stroke-opacity:1"/>
<path class="bond-38 atom-22 atom-36" d="M 549.2,159.2 L 553.3,155.1" style="fill:none;fill-rule:evenodd;stroke:#000000;stroke-width:2.0px;stroke-linecap:butt;stroke-linejoin:miter;stroke-opacity:1"/>
<path class="atom-0" d="M 519.7 90.9 Q 519.7 88.4, 521.0 87.0 Q 522.2 85.6, 524.5 85.6 Q 526.8 85.6, 528.1 87.0 Q 529.3 88.4, 529.3 90.9 Q 529.3 93.4, 528.0 94.8 Q 526.8 96.3, 524.5 96.3 Q 522.2 96.3, 521.0 94.8 Q 519.7 93.4, 519.7 90.9 M 524.5 95.1 Q 526.1 95.1, 527.0 94.0 Q 527.8 93.0, 527.8 90.9 Q 527.8 88.8, 527.0 87.8 Q 526.1 86.8, 524.5 86.8 Q 522.9 86.8, 522.0 87.8 Q 521.2 88.8, 521.2 90.9 Q 521.2 93.0, 522.0 94.0 Q 522.9 95.1, 524.5 95.1 " fill="#FF0000"/>
<path class="atom-10" d="M 418.7 128.0 Q 418.7 125.5, 419.9 124.1 Q 421.1 122.7, 423.5 122.7 Q 425.8 122.7, 427.0 124.1 Q 428.2 125.5, 428.2 128.0 Q 428.2 130.5, 427.0 132.0 Q 425.7 133.4, 423.5 133.4 Q 421.2 133.4, 419.9 132.0 Q 418.7 130.6, 418.7 128.0 M 423.5 132.2 Q 425.1 132.2, 425.9 131.2 Q 426.8 130.1, 426.8 128.0 Q 426.8 126.0, 425.9 124.9 Q 425.1 123.9, 423.5 123.9 Q 421.9 123.9, 421.0 124.9 Q 420.1 125.9, 420.1 128.0 Q 420.1 130.1, 421.0 131.2 Q 421.9 132.2, 423.5 132.2 " fill="#FF0000"/>
<path class="atom-14" d="M 337.7 139.0 L 343.9 139.0 L 343.9 140.2 L 339.1 140.2 L 339.1 143.4 L 343.4 143.4 L 343.4 144.6 L 339.1 144.6 L 339.1 149.4 L 337.7 149.4 L 337.7 139.0 " fill="#33CCCC"/>
<path class="atom-19" d="M 512.9 164.6 Q 513.0 164.6, 513.5 164.8 Q 514.0 165.0, 514.5 165.2 Q 515.1 165.3, 515.6 165.3 Q 516.6 165.3, 517.2 164.8 Q 517.7 164.3, 517.7 163.5 Q 517.7 162.9, 517.4 162.5 Q 517.2 162.2, 516.7 162.0 Q 516.3 161.8, 515.5 161.6 Q 514.6 161.3, 514.1 161.0 Q 513.5 160.8, 513.1 160.2 Q 512.7 159.7, 512.7 158.7 Q 512.7 157.4, 513.6 156.6 Q 514.5 155.8, 516.3 155.8 Q 517.5 155.8, 518.9 156.4 L 518.5 157.5 Q 517.3 157.0, 516.3 157.0 Q 515.3 157.0, 514.7 157.4 Q 514.2 157.8, 514.2 158.5 Q 514.2 159.1, 514.5 159.4 Q 514.8 159.8, 515.2 160.0 Q 515.6 160.2, 516.3 160.4 Q 517.3 160.7, 517.8 161.0 Q 518.4 161.3, 518.8 161.9 Q 519.2 162.5, 519.2 163.5 Q 519.2 164.9, 518.2 165.7 Q 517.3 166.5, 515.7 166.5 Q 514.7 166.5, 514.0 166.3 Q 513.3 166.1, 512.5 165.7 L 512.9 164.6 " fill="#CCCC00"/>
<path class="atom-20" d="M 504.0 184.0 Q 504.0 181.5, 505.3 180.1 Q 506.5 178.7, 508.8 178.7 Q 511.1 178.7, 512.4 180.1 Q 513.6 181.5, 513.6 184.0 Q 513.6 186.5, 512.3 187.9 Q 511.1 189.4, 508.8 189.4 Q 506.5 189.4, 505.3 187.9 Q 504.0 186.5, 504.0 184.0 M 508.8 188.2 Q 510.4 188.2, 511.2 187.1 Q 512.1 186.1, 512.1 184.0 Q 512.1 181.9, 511.2 180.9 Q 510.4 179.8, 508.8 179.8 Q 507.2 179.8, 506.3 180.9 Q 505.5 181.9, 505.5 184.0 Q 505.5 186.1, 506.3 187.1 Q 507.2 188.2, 508.8 188.2 " fill="#FF0000"/>
<path class="atom-21" d="M 518.7 140.3 Q 518.7 137.8, 519.9 136.4 Q 521.2 135.0, 523.5 135.0 Q 525.8 135.0, 527.0 136.4 Q 528.3 137.8, 528.3 140.3 Q 528.3 142.8, 527.0 144.3 Q 525.8 145.7, 523.5 145.7 Q 521.2 145.7, 519.9 144.3 Q 518.7 142.8, 518.7 140.3 M 523.5 144.5 Q 525.1 144.5, 525.9 143.5 Q 526.8 142.4, 526.8 140.3 Q 526.8 138.3, 525.9 137.2 Q 525.1 136.2, 523.5 136.2 Q 521.9 136.2, 521.0 137.2 Q 520.2 138.2, 520.2 140.3 Q 520.2 142.4, 521.0 143.5 Q 521.9 144.5, 523.5 144.5 " fill="#FF0000"/>
<path class="atom-22" d="M 538.0 162.7 L 541.4 168.2 Q 541.7 168.7, 542.3 169.7 Q 542.8 170.7, 542.9 170.8 L 542.9 162.7 L 544.2 162.7 L 544.2 173.1 L 542.8 173.1 L 539.1 167.0 Q 538.7 166.3, 538.3 165.5 Q 537.8 164.7, 537.7 164.5 L 537.7 173.1 L 536.3 173.1 L 536.3 162.7 L 538.0 162.7 " fill="#0000FF"/>
<path class="atom-23" d="M 477.2 58.1 L 483.4 58.1 L 483.4 59.3 L 478.6 59.3 L 478.6 62.4 L 482.9 62.4 L 482.9 63.6 L 478.6 63.6 L 478.6 68.5 L 477.2 68.5 L 477.2 58.1 " fill="#33CCCC"/>
<path class="atom-24" d="M 500.4 71.6 L 506.6 71.6 L 506.6 72.8 L 501.8 72.8 L 501.8 75.9 L 506.1 75.9 L 506.1 77.1 L 501.8 77.1 L 501.8 82.0 L 500.4 82.0 L 500.4 71.6 " fill="#33CCCC"/>
<path class="atom-25" d="M 395.1 231.5 L 398.5 237.0 Q 398.8 237.6, 399.4 238.6 Q 399.9 239.6, 399.9 239.6 L 399.9 231.5 L 401.3 231.5 L 401.3 241.9 L 399.9 241.9 L 396.2 235.9 Q 395.8 235.2, 395.4 234.4 Q 394.9 233.6, 394.8 233.3 L 394.8 241.9 L 393.4 241.9 L 393.4 231.5 L 395.1 231.5 " fill="#0000FF"/>
<path class="atom-26" d="M 518.0 60.6 L 519.4 60.6 L 519.4 65.0 L 524.8 65.0 L 524.8 60.6 L 526.2 60.6 L 526.2 71.0 L 524.8 71.0 L 524.8 66.2 L 519.4 66.2 L 519.4 71.0 L 518.0 71.0 L 518.0 60.6 " fill="#000000"/>
<path class="atom-27" d="M 512.2 116.8 L 513.6 116.8 L 513.6 121.2 L 519.0 121.2 L 519.0 116.8 L 520.4 116.8 L 520.4 127.2 L 519.0 127.2 L 519.0 122.4 L 513.6 122.4 L 513.6 127.2 L 512.2 127.2 L 512.2 116.8 " fill="#000000"/>
<path class="atom-28" d="M 436.9 87.5 L 438.3 87.5 L 438.3 91.9 L 443.6 91.9 L 443.6 87.5 L 445.0 87.5 L 445.0 97.9 L 443.6 97.9 L 443.6 93.1 L 438.3 93.1 L 438.3 97.9 L 436.9 97.9 L 436.9 87.5 " fill="#000000"/>
<path class="atom-29" d="M 457.0 62.3 L 458.4 62.3 L 458.4 66.7 L 463.8 66.7 L 463.8 62.3 L 465.2 62.3 L 465.2 72.7 L 463.8 72.7 L 463.8 67.9 L 458.4 67.9 L 458.4 72.7 L 457.0 72.7 L 457.0 62.3 " fill="#000000"/>
<path class="atom-30" d="M 467.4 183.9 L 468.9 183.9 L 468.9 188.3 L 474.2 188.3 L 474.2 183.9 L 475.6 183.9 L 475.6 194.3 L 474.2 194.3 L 474.2 189.5 L 468.9 189.5 L 468.9 194.3 L 467.4 194.3 L 467.4 183.9 " fill="#000000"/>
<path class="atom-31" d="M 428.4 161.4 L 429.8 161.4 L 429.8 165.8 L 435.1 165.8 L 435.1 161.4 L 436.5 161.4 L 436.5 171.8 L 435.1 171.8 L 435.1 167.0 L 429.8 167.0 L 429.8 171.8 L 428.4 171.8 L 428.4 161.4 " fill="#000000"/>
<path class="atom-32" d="M 377.3 111.3 L 378.7 111.3 L 378.7 115.8 L 384.0 115.8 L 384.0 111.3 L 385.4 111.3 L 385.4 121.8 L 384.0 121.8 L 384.0 116.9 L 378.7 116.9 L 378.7 121.8 L 377.3 121.8 L 377.3 111.3 " fill="#000000"/>
<path class="atom-33" d="M 340.4 188.0 L 341.8 188.0 L 341.8 192.4 L 347.1 192.4 L 347.1 188.0 L 348.5 188.0 L 348.5 198.4 L 347.1 198.4 L 347.1 193.6 L 341.8 193.6 L 341.8 198.4 L 340.4 198.4 L 340.4 188.0 " fill="#000000"/>
<path class="atom-34" d="M 432.4 180.4 L 433.8 180.4 L 433.8 184.8 L 439.1 184.8 L 439.1 180.4 L 440.5 180.4 L 440.5 190.8 L 439.1 190.8 L 439.1 186.0 L 433.8 186.0 L 433.8 190.8 L 432.4 190.8 L 432.4 180.4 " fill="#000000"/>
<path class="atom-35" d="M 542.5 186.1 L 543.9 186.1 L 543.9 190.5 L 549.2 190.5 L 549.2 186.1 L 550.6 186.1 L 550.6 196.5 L 549.2 196.5 L 549.2 191.7 L 543.9 191.7 L 543.9 196.5 L 542.5 196.5 L 542.5 186.1 " fill="#000000"/>
<path class="atom-36" d="M 554.1 145.2 L 555.6 145.2 L 555.6 149.6 L 560.9 149.6 L 560.9 145.2 L 562.3 145.2 L 562.3 155.6 L 560.9 155.6 L 560.9 150.8 L 555.6 150.8 L 555.6 155.6 L 554.1 155.6 L 554.1 145.2 " fill="#000000"/>
<text x="300" y="20" font-size="20" font-family="sans-serif" font-weight="normal" letter-spacing="0" text-anchor="middle" fill="black">hif2a 215 -&gt; 252 </text><text x="150" y="285" font-size="15" font-family="sans-serif" font-weight="normal" letter-spacing="0" text-anchor="middle" fill="black">215</text><text x="450" y="285" font-size="15" font-family="sans-serif" font-weight="normal" letter-spacing="0" text-anchor="middle" fill="black">252</text></svg>
