<?xml version='1.0' encoding='ASCII' standalone='yes'?>
<svg xmlns="http://www.w3.org/2000/svg" xmlns:rdkit="http://www.rdkit.org/xml" xmlns:xlink="http://www.w3.org/1999/xlink" version="1.1" baseProfile="full" xml:space="preserve" width="600px" height="300px" viewBox="0 0 600 300">
<!-- END OF HEADER -->
<rect style="opacity:1.0;fill:#FFFFFF;stroke:none" width="600.0" height="300.0" x="0.0" y="0.0"> </rect>
<ellipse cx="65.4" cy="176.2" rx="8.1" ry="8.1" class="atom-0" style="fill:#DC3369;fill-rule:evenodd;stroke:#DC3369;stroke-width:1.0px;stroke-linecap:butt;stroke-linejoin:miter;stroke-opacity:1"/>
<ellipse cx="47.9" cy="156.6" rx="8.1" ry="8.1" class="atom-26" style="fill:#DC3369;fill-rule:evenodd;stroke:#DC3369;stroke-width:1.0px;stroke-linecap:butt;stroke-linejoin:miter;stroke-opacity:1"/>
<ellipse cx="56.5" cy="199.2" rx="8.1" ry="8.1" class="atom-27" style="fill:#DC3369;fill-rule:evenodd;stroke:#DC3369;stroke-width:1.0px;stroke-linecap:butt;stroke-linejoin:miter;stroke-opacity:1"/>
<path class="bond-0 atom-0 atom-1" d="M 70.1,175.4 L 82.4,173.5" style="fill:none;fill-rule:evenodd;stroke:#0000FF;stroke-width:2.0px;stroke-linecap:butt;stroke-linejoin:miter;stroke-opacity:1"/>
<path class="bond-0 atom-0 atom-1" d="M 82.4,173.5 L 94.6,171.6" style="fill:none;fill-rule:evenodd;stroke:#000000;stroke-width:2.0px;stroke-linecap:butt;stroke-linejoin:miter;stroke-opacity:1"/>
<path class="bond-1 atom-0 atom-26" d="M 60.6,170.8 L 56.7,166.5" style="fill:none;fill-rule:evenodd;stroke:#0000FF;stroke-width:2.0px;stroke-linecap:butt;stroke-linejoin:miter;stroke-opacity:1"/>
<path class="bond-1 atom-0 atom-26" d="M 56.7,166.5 L 52.8,162.1" style="fill:none;fill-rule:evenodd;stroke:#000000;stroke-width:2.0px;stroke-linecap:butt;stroke-linejoin:miter;stroke-opacity:1"/>
<path class="bond-2 atom-0 atom-27" d="M 63.0,182.2 L 60.9,187.7" style="fill:none;fill-rule:evenodd;stroke:#0000FF;stroke-width:2.0px;stroke-linecap:butt;stroke-linejoin:miter;stroke-opacity:1"/>
<path class="bond-2 atom-0 atom-27" d="M 60.9,187.7 L 58.9,193.1" style="fill:none;fill-rule:evenodd;stroke:#000000;stroke-width:2.0px;stroke-linecap:butt;stroke-linejoin:miter;stroke-opacity:1"/>
<path class="bond-3 atom-1 atom-2" d="M 94.6,171.6 L 89.3,147.5" style="fill:none;fill-rule:evenodd;stroke:#000000;stroke-width:2.0px;stroke-linecap:butt;stroke-linejoin:miter;stroke-opacity:1"/>
<path class="bond-4 atom-1 atom-5" d="M 94.6,171.6 L 119.2,173.9" style="fill:none;fill-rule:evenodd;stroke:#000000;stroke-width:2.0px;stroke-linecap:butt;stroke-linejoin:miter;stroke-opacity:1"/>
<path class="bond-5 atom-1 atom-28" d="M 94.0,176.8 L 95.6,176.8" style="fill:none;fill-rule:evenodd;stroke:#000000;stroke-width:1.0px;stroke-linecap:butt;stroke-linejoin:miter;stroke-opacity:1"/>
<path class="bond-5 atom-1 atom-28" d="M 93.4,182.0 L 96.6,181.9" style="fill:none;fill-rule:evenodd;stroke:#000000;stroke-width:1.0px;stroke-linecap:butt;stroke-linejoin:miter;stroke-opacity:1"/>
<path class="bond-5 atom-1 atom-28" d="M 92.7,187.3 L 97.6,187.1" style="fill:none;fill-rule:evenodd;stroke:#000000;stroke-width:1.0px;stroke-linecap:butt;stroke-linejoin:miter;stroke-opacity:1"/>
<path class="bond-6 atom-2 atom-3" d="M 89.3,147.5 L 110.4,135.0" style="fill:none;fill-rule:evenodd;stroke:#000000;stroke-width:2.0px;stroke-linecap:butt;stroke-linejoin:miter;stroke-opacity:1"/>
<path class="bond-7 atom-2 atom-23" d="M 89.3,147.5 L 85.2,139.6" style="fill:none;fill-rule:evenodd;stroke:#000000;stroke-width:2.0px;stroke-linecap:butt;stroke-linejoin:miter;stroke-opacity:1"/>
<path class="bond-7 atom-2 atom-23" d="M 85.2,139.6 L 81.1,131.8" style="fill:none;fill-rule:evenodd;stroke:#33CCCC;stroke-width:2.0px;stroke-linecap:butt;stroke-linejoin:miter;stroke-opacity:1"/>
<path class="bond-8 atom-2 atom-24" d="M 89.3,147.5 L 81.9,149.4" style="fill:none;fill-rule:evenodd;stroke:#000000;stroke-width:2.0px;stroke-linecap:butt;stroke-linejoin:miter;stroke-opacity:1"/>
<path class="bond-8 atom-2 atom-24" d="M 81.9,149.4 L 74.4,151.4" style="fill:none;fill-rule:evenodd;stroke:#33CCCC;stroke-width:2.0px;stroke-linecap:butt;stroke-linejoin:miter;stroke-opacity:1"/>
<path class="bond-9 atom-3 atom-4" d="M 110.4,135.0 L 129.1,151.4" style="fill:none;fill-rule:evenodd;stroke:#000000;stroke-width:2.0px;stroke-linecap:butt;stroke-linejoin:miter;stroke-opacity:1"/>
<path class="bond-10 atom-3 atom-29" d="M 110.4,135.0 L 122.4,122.6" style="fill:none;fill-rule:evenodd;stroke:#000000;stroke-width:2.0px;stroke-linecap:butt;stroke-linejoin:miter;stroke-opacity:1"/>
<path class="bond-11 atom-3 atom-30" d="M 110.4,135.0 L 99.4,121.2" style="fill:none;fill-rule:evenodd;stroke:#000000;stroke-width:2.0px;stroke-linecap:butt;stroke-linejoin:miter;stroke-opacity:1"/>
<path class="bond-12 atom-4 atom-5" d="M 129.1,151.4 L 119.2,173.9" style="fill:none;fill-rule:evenodd;stroke:#000000;stroke-width:2.0px;stroke-linecap:butt;stroke-linejoin:miter;stroke-opacity:1"/>
<path class="bond-12 atom-4 atom-5" d="M 131.7,156.5 L 124.8,172.3" style="fill:none;fill-rule:evenodd;stroke:#000000;stroke-width:2.0px;stroke-linecap:butt;stroke-linejoin:miter;stroke-opacity:1"/>
<path class="bond-13 atom-4 atom-9" d="M 129.1,151.4 L 153.8,148.7" style="fill:none;fill-rule:evenodd;stroke:#000000;stroke-width:2.0px;stroke-linecap:butt;stroke-linejoin:miter;stroke-opacity:1"/>
<path class="bond-14 atom-5 atom-6" d="M 119.2,173.9 L 134.1,194.0" style="fill:none;fill-rule:evenodd;stroke:#000000;stroke-width:2.0px;stroke-linecap:butt;stroke-linejoin:miter;stroke-opacity:1"/>
<path class="bond-15 atom-6 atom-7" d="M 134.1,194.0 L 158.8,191.3" style="fill:none;fill-rule:evenodd;stroke:#000000;stroke-width:2.0px;stroke-linecap:butt;stroke-linejoin:miter;stroke-opacity:1"/>
<path class="bond-15 atom-6 atom-7" d="M 137.4,189.2 L 154.6,187.3" style="fill:none;fill-rule:evenodd;stroke:#000000;stroke-width:2.0px;stroke-linecap:butt;stroke-linejoin:miter;stroke-opacity:1"/>
<path class="bond-16 atom-6 atom-19" d="M 134.1,194.0 L 132.0,201.4" style="fill:none;fill-rule:evenodd;stroke:#000000;stroke-width:2.0px;stroke-linecap:butt;stroke-linejoin:miter;stroke-opacity:1"/>
<path class="bond-16 atom-6 atom-19" d="M 132.0,201.4 L 129.8,208.9" style="fill:none;fill-rule:evenodd;stroke:#CCCC00;stroke-width:2.0px;stroke-linecap:butt;stroke-linejoin:miter;stroke-opacity:1"/>
<path class="bond-17 atom-7 atom-8" d="M 158.8,191.3 L 168.8,169.2" style="fill:none;fill-rule:evenodd;stroke:#000000;stroke-width:2.0px;stroke-linecap:butt;stroke-linejoin:miter;stroke-opacity:1"/>
<path class="bond-18 atom-7 atom-31" d="M 158.8,191.3 L 169.2,203.5" style="fill:none;fill-rule:evenodd;stroke:#000000;stroke-width:2.0px;stroke-linecap:butt;stroke-linejoin:miter;stroke-opacity:1"/>
<path class="bond-19 atom-8 atom-9" d="M 168.8,169.2 L 153.8,148.7" style="fill:none;fill-rule:evenodd;stroke:#000000;stroke-width:2.0px;stroke-linecap:butt;stroke-linejoin:miter;stroke-opacity:1"/>
<path class="bond-19 atom-8 atom-9" d="M 162.9,168.8 L 152.4,154.4" style="fill:none;fill-rule:evenodd;stroke:#000000;stroke-width:2.0px;stroke-linecap:butt;stroke-linejoin:miter;stroke-opacity:1"/>
<path class="bond-20 atom-8 atom-32" d="M 168.8,169.2 L 193.9,162.4" style="fill:none;fill-rule:evenodd;stroke:#000000;stroke-width:2.0px;stroke-linecap:butt;stroke-linejoin:miter;stroke-opacity:1"/>
<path class="bond-21 atom-9 atom-10" d="M 153.8,148.7 L 155.4,135.9" style="fill:none;fill-rule:evenodd;stroke:#000000;stroke-width:2.0px;stroke-linecap:butt;stroke-linejoin:miter;stroke-opacity:1"/>
<path class="bond-21 atom-9 atom-10" d="M 155.4,135.9 L 157.0,123.1" style="fill:none;fill-rule:evenodd;stroke:#FF0000;stroke-width:2.0px;stroke-linecap:butt;stroke-linejoin:miter;stroke-opacity:1"/>
<path class="bond-22 atom-10 atom-11" d="M 163.4,114.4 L 170.5,111.4" style="fill:none;fill-rule:evenodd;stroke:#FF0000;stroke-width:2.0px;stroke-linecap:butt;stroke-linejoin:miter;stroke-opacity:1"/>
<path class="bond-22 atom-10 atom-11" d="M 170.5,111.4 L 177.6,108.4" style="fill:none;fill-rule:evenodd;stroke:#000000;stroke-width:2.0px;stroke-linecap:butt;stroke-linejoin:miter;stroke-opacity:1"/>
<path class="bond-23 atom-11 atom-12" d="M 177.6,108.4 L 190.7,128.9" style="fill:none;fill-rule:evenodd;stroke:#000000;stroke-width:2.0px;stroke-linecap:butt;stroke-linejoin:miter;stroke-opacity:1"/>
<path class="bond-23 atom-11 atom-12" d="M 183.3,109.0 L 192.5,123.4" style="fill:none;fill-rule:evenodd;stroke:#000000;stroke-width:2.0px;stroke-linecap:butt;stroke-linejoin:miter;stroke-opacity:1"/>
<path class="bond-24 atom-11 atom-18" d="M 177.6,108.4 L 188.9,86.4" style="fill:none;fill-rule:evenodd;stroke:#000000;stroke-width:2.0px;stroke-linecap:butt;stroke-linejoin:miter;stroke-opacity:1"/>
<path class="bond-25 atom-12 atom-13" d="M 190.7,128.9 L 215.5,127.7" style="fill:none;fill-rule:evenodd;stroke:#000000;stroke-width:2.0px;stroke-linecap:butt;stroke-linejoin:miter;stroke-opacity:1"/>
<path class="bond-26 atom-12 atom-33" d="M 190.7,128.9 L 187.7,140.3" style="fill:none;fill-rule:evenodd;stroke:#000000;stroke-width:2.0px;stroke-linecap:butt;stroke-linejoin:miter;stroke-opacity:1"/>
<path class="bond-27 atom-13 atom-14" d="M 215.5,127.7 L 221.3,135.4" style="fill:none;fill-rule:evenodd;stroke:#000000;stroke-width:2.0px;stroke-linecap:butt;stroke-linejoin:miter;stroke-opacity:1"/>
<path class="bond-27 atom-13 atom-14" d="M 221.3,135.4 L 227.1,143.1" style="fill:none;fill-rule:evenodd;stroke:#33CCCC;stroke-width:2.0px;stroke-linecap:butt;stroke-linejoin:miter;stroke-opacity:1"/>
<path class="bond-28 atom-13 atom-15" d="M 215.5,127.7 L 226.9,105.8" style="fill:none;fill-rule:evenodd;stroke:#000000;stroke-width:2.0px;stroke-linecap:butt;stroke-linejoin:miter;stroke-opacity:1"/>
<path class="bond-28 atom-13 atom-15" d="M 213.3,122.3 L 221.3,107.1" style="fill:none;fill-rule:evenodd;stroke:#000000;stroke-width:2.0px;stroke-linecap:butt;stroke-linejoin:miter;stroke-opacity:1"/>
<path class="bond-29 atom-15 atom-16" d="M 226.9,105.8 L 213.6,85.2" style="fill:none;fill-rule:evenodd;stroke:#000000;stroke-width:2.0px;stroke-linecap:butt;stroke-linejoin:miter;stroke-opacity:1"/>
<path class="bond-30 atom-15 atom-34" d="M 226.9,105.8 L 247.2,104.6" style="fill:none;fill-rule:evenodd;stroke:#000000;stroke-width:2.0px;stroke-linecap:butt;stroke-linejoin:miter;stroke-opacity:1"/>
<path class="bond-31 atom-16 atom-17" d="M 213.6,85.2 L 224.1,62.6" style="fill:none;fill-rule:evenodd;stroke:#000000;stroke-width:2.0px;stroke-linecap:butt;stroke-linejoin:miter;stroke-opacity:1"/>
<path class="bond-32 atom-16 atom-18" d="M 213.6,85.2 L 188.9,86.4" style="fill:none;fill-rule:evenodd;stroke:#000000;stroke-width:2.0px;stroke-linecap:butt;stroke-linejoin:miter;stroke-opacity:1"/>
<path class="bond-32 atom-16 atom-18" d="M 210.1,89.8 L 192.8,90.7" style="fill:none;fill-rule:evenodd;stroke:#000000;stroke-width:2.0px;stroke-linecap:butt;stroke-linejoin:miter;stroke-opacity:1"/>
<path class="bond-33 atom-17 atom-25" d="M 224.1,62.6 L 227.6,54.3" style="fill:none;fill-rule:evenodd;stroke:#000000;stroke-width:2.0px;stroke-linecap:butt;stroke-linejoin:miter;stroke-opacity:1"/>
<path class="bond-33 atom-17 atom-25" d="M 227.6,54.3 L 231.2,45.9" style="fill:none;fill-rule:evenodd;stroke:#0000FF;stroke-width:2.0px;stroke-linecap:butt;stroke-linejoin:miter;stroke-opacity:1"/>
<path class="bond-33 atom-17 atom-25" d="M 221.1,58.4 L 224.1,51.3" style="fill:none;fill-rule:evenodd;stroke:#000000;stroke-width:2.0px;stroke-linecap:butt;stroke-linejoin:miter;stroke-opacity:1"/>
<path class="bond-33 atom-17 atom-25" d="M 224.1,51.3 L 227.1,44.2" style="fill:none;fill-rule:evenodd;stroke:#0000FF;stroke-width:2.0px;stroke-linecap:butt;stroke-linejoin:miter;stroke-opacity:1"/>
<path class="bond-33 atom-17 atom-25" d="M 229.2,61.9 L 232.3,54.7" style="fill:none;fill-rule:evenodd;stroke:#000000;stroke-width:2.0px;stroke-linecap:butt;stroke-linejoin:miter;stroke-opacity:1"/>
<path class="bond-33 atom-17 atom-25" d="M 232.3,54.7 L 235.3,47.6" style="fill:none;fill-rule:evenodd;stroke:#0000FF;stroke-width:2.0px;stroke-linecap:butt;stroke-linejoin:miter;stroke-opacity:1"/>
<path class="bond-34 atom-18 atom-35" d="M 188.9,86.4 L 179.7,72.2" style="fill:none;fill-rule:evenodd;stroke:#000000;stroke-width:2.0px;stroke-linecap:butt;stroke-linejoin:miter;stroke-opacity:1"/>
<path class="bond-35 atom-19 atom-20" d="M 123.2,215.5 L 118.6,213.8" style="fill:none;fill-rule:evenodd;stroke:#CCCC00;stroke-width:2.0px;stroke-linecap:butt;stroke-linejoin:miter;stroke-opacity:1"/>
<path class="bond-35 atom-19 atom-20" d="M 118.6,213.8 L 114.0,212.2" style="fill:none;fill-rule:evenodd;stroke:#FF0000;stroke-width:2.0px;stroke-linecap:butt;stroke-linejoin:miter;stroke-opacity:1"/>
<path class="bond-35 atom-19 atom-20" d="M 124.7,211.3 L 120.1,209.7" style="fill:none;fill-rule:evenodd;stroke:#CCCC00;stroke-width:2.0px;stroke-linecap:butt;stroke-linejoin:miter;stroke-opacity:1"/>
<path class="bond-35 atom-19 atom-20" d="M 120.1,209.7 L 115.5,208.0" style="fill:none;fill-rule:evenodd;stroke:#FF0000;stroke-width:2.0px;stroke-linecap:butt;stroke-linejoin:miter;stroke-opacity:1"/>
<path class="bond-36 atom-19 atom-21" d="M 132.9,214.1 L 139.9,216.2" style="fill:none;fill-rule:evenodd;stroke:#CCCC00;stroke-width:2.0px;stroke-linecap:butt;stroke-linejoin:miter;stroke-opacity:1"/>
<path class="bond-36 atom-19 atom-21" d="M 139.9,216.2 L 146.9,218.3" style="fill:none;fill-rule:evenodd;stroke:#FF0000;stroke-width:2.0px;stroke-linecap:butt;stroke-linejoin:miter;stroke-opacity:1"/>
<path class="bond-36 atom-19 atom-21" d="M 131.6,218.3 L 138.6,220.4" style="fill:none;fill-rule:evenodd;stroke:#CCCC00;stroke-width:2.0px;stroke-linecap:butt;stroke-linejoin:miter;stroke-opacity:1"/>
<path class="bond-36 atom-19 atom-21" d="M 138.6,220.4 L 145.6,222.6" style="fill:none;fill-rule:evenodd;stroke:#FF0000;stroke-width:2.0px;stroke-linecap:butt;stroke-linejoin:miter;stroke-opacity:1"/>
<path class="bond-37 atom-19 atom-22" d="M 125.8,221.2 L 123.0,228.7" style="fill:none;fill-rule:evenodd;stroke:#CCCC00;stroke-width:2.0px;stroke-linecap:butt;stroke-linejoin:miter;stroke-opacity:1"/>
<path class="bond-37 atom-19 atom-22" d="M 123.0,228.7 L 120.2,236.3" style="fill:none;fill-rule:evenodd;stroke:#000000;stroke-width:2.0px;stroke-linecap:butt;stroke-linejoin:miter;stroke-opacity:1"/>
<path class="bond-38 atom-22 atom-36" d="M 120.2,236.3 L 138.3,243.0" style="fill:none;fill-rule:evenodd;stroke:#000000;stroke-width:2.0px;stroke-linecap:butt;stroke-linejoin:miter;stroke-opacity:1"/>
<path class="bond-39 atom-22 atom-37" d="M 120.2,236.3 L 122.9,254.1" style="fill:none;fill-rule:evenodd;stroke:#000000;stroke-width:2.0px;stroke-linecap:butt;stroke-linejoin:miter;stroke-opacity:1"/>
<path class="bond-40 atom-22 atom-38" d="M 120.2,236.3 L 100.9,238.9" style="fill:none;fill-rule:evenodd;stroke:#000000;stroke-width:2.0px;stroke-linecap:butt;stroke-linejoin:miter;stroke-opacity:1"/>
<path class="atom-0" d="M 63.1 170.9 L 66.5 176.5 Q 66.8 177.0, 67.4 178.0 Q 67.9 179.0, 67.9 179.1 L 67.9 170.9 L 69.3 170.9 L 69.3 181.4 L 67.9 181.4 L 64.2 175.3 Q 63.8 174.6, 63.3 173.8 Q 62.9 173.0, 62.8 172.8 L 62.8 181.4 L 61.4 181.4 L 61.4 170.9 L 63.1 170.9 " fill="#0000FF"/>
<path class="atom-10" d="M 153.0 116.8 Q 153.0 114.3, 154.2 112.9 Q 155.5 111.5, 157.8 111.5 Q 160.1 111.5, 161.4 112.9 Q 162.6 114.3, 162.6 116.8 Q 162.6 119.4, 161.3 120.8 Q 160.1 122.2, 157.8 122.2 Q 155.5 122.2, 154.2 120.8 Q 153.0 119.4, 153.0 116.8 M 157.8 121.1 Q 159.4 121.1, 160.3 120.0 Q 161.1 118.9, 161.1 116.8 Q 161.1 114.8, 160.3 113.7 Q 159.4 112.7, 157.8 112.7 Q 156.2 112.7, 155.3 113.7 Q 154.5 114.8, 154.5 116.8 Q 154.5 118.9, 155.3 120.0 Q 156.2 121.1, 157.8 121.1 " fill="#FF0000"/>
<path class="atom-14" d="M 227.9 143.0 L 234.1 143.0 L 234.1 144.2 L 229.3 144.2 L 229.3 147.4 L 233.6 147.4 L 233.6 148.6 L 229.3 148.6 L 229.3 153.5 L 227.9 153.5 L 227.9 143.0 " fill="#33CCCC"/>
<path class="atom-19" d="M 125.1 218.5 Q 125.3 218.5, 125.7 218.7 Q 126.2 219.0, 126.8 219.1 Q 127.3 219.2, 127.8 219.2 Q 128.8 219.2, 129.4 218.7 Q 130.0 218.2, 130.0 217.4 Q 130.0 216.8, 129.7 216.5 Q 129.4 216.1, 129.0 215.9 Q 128.5 215.7, 127.8 215.5 Q 126.9 215.2, 126.3 215.0 Q 125.7 214.7, 125.4 214.1 Q 125.0 213.6, 125.0 212.6 Q 125.0 211.3, 125.9 210.5 Q 126.8 209.7, 128.5 209.7 Q 129.7 209.7, 131.1 210.3 L 130.8 211.4 Q 129.5 210.9, 128.6 210.9 Q 127.6 210.9, 127.0 211.3 Q 126.4 211.7, 126.4 212.5 Q 126.4 213.0, 126.7 213.4 Q 127.0 213.7, 127.4 213.9 Q 127.9 214.1, 128.6 214.3 Q 129.5 214.6, 130.1 214.9 Q 130.6 215.2, 131.0 215.8 Q 131.4 216.4, 131.4 217.4 Q 131.4 218.8, 130.5 219.6 Q 129.5 220.4, 127.9 220.4 Q 127.0 220.4, 126.3 220.2 Q 125.6 220.0, 124.7 219.7 L 125.1 218.5 " fill="#CCCC00"/>
<path class="atom-20" d="M 104.4 208.1 Q 104.4 205.6, 105.6 204.2 Q 106.9 202.8, 109.2 202.8 Q 111.5 202.8, 112.7 204.2 Q 114.0 205.6, 114.0 208.1 Q 114.0 210.6, 112.7 212.1 Q 111.5 213.5, 109.2 213.5 Q 106.9 213.5, 105.6 212.1 Q 104.4 210.7, 104.4 208.1 M 109.2 212.3 Q 110.8 212.3, 111.6 211.3 Q 112.5 210.2, 112.5 208.1 Q 112.5 206.1, 111.6 205.0 Q 110.8 204.0, 109.2 204.0 Q 107.6 204.0, 106.7 205.0 Q 105.9 206.0, 105.9 208.1 Q 105.9 210.2, 106.7 211.3 Q 107.6 212.3, 109.2 212.3 " fill="#FF0000"/>
<path class="atom-21" d="M 147.1 222.2 Q 147.1 219.7, 148.3 218.3 Q 149.6 216.9, 151.9 216.9 Q 154.2 216.9, 155.4 218.3 Q 156.7 219.7, 156.7 222.2 Q 156.7 224.7, 155.4 226.2 Q 154.2 227.6, 151.9 227.6 Q 149.6 227.6, 148.3 226.2 Q 147.1 224.8, 147.1 222.2 M 151.9 226.4 Q 153.5 226.4, 154.3 225.4 Q 155.2 224.3, 155.2 222.2 Q 155.2 220.1, 154.3 219.1 Q 153.5 218.1, 151.9 218.1 Q 150.3 218.1, 149.4 219.1 Q 148.6 220.1, 148.6 222.2 Q 148.6 224.3, 149.4 225.4 Q 150.3 226.4, 151.9 226.4 " fill="#FF0000"/>
<path class="atom-23" d="M 74.8 120.5 L 81.0 120.5 L 81.0 121.7 L 76.2 121.7 L 76.2 124.9 L 80.5 124.9 L 80.5 126.1 L 76.2 126.1 L 76.2 131.0 L 74.8 131.0 L 74.8 120.5 " fill="#33CCCC"/>
<path class="atom-24" d="M 67.4 147.2 L 73.6 147.2 L 73.6 148.4 L 68.8 148.4 L 68.8 151.5 L 73.1 151.5 L 73.1 152.8 L 68.8 152.8 L 68.8 157.6 L 67.4 157.6 L 67.4 147.2 " fill="#33CCCC"/>
<path class="atom-25" d="M 231.4 34.6 L 234.9 40.2 Q 235.2 40.7, 235.8 41.7 Q 236.3 42.7, 236.3 42.7 L 236.3 34.6 L 237.7 34.6 L 237.7 45.1 L 236.3 45.1 L 232.6 39.0 Q 232.2 38.3, 231.7 37.5 Q 231.3 36.7, 231.1 36.4 L 231.1 45.1 L 229.8 45.1 L 229.8 34.6 L 231.4 34.6 " fill="#0000FF"/>
<path class="atom-26" d="M 43.8 151.4 L 45.2 151.4 L 45.2 155.8 L 50.6 155.8 L 50.6 151.4 L 52.0 151.4 L 52.0 161.8 L 50.6 161.8 L 50.6 157.0 L 45.2 157.0 L 45.2 161.8 L 43.8 161.8 L 43.8 151.4 " fill="#000000"/>
<path class="atom-27" d="M 52.4 193.9 L 53.9 193.9 L 53.9 198.4 L 59.2 198.4 L 59.2 193.9 L 60.6 193.9 L 60.6 204.4 L 59.2 204.4 L 59.2 199.6 L 53.9 199.6 L 53.9 204.4 L 52.4 204.4 L 52.4 193.9 " fill="#000000"/>
<path class="atom-28" d="M 91.3 188.8 L 92.7 188.8 L 92.7 193.2 L 98.1 193.2 L 98.1 188.8 L 99.5 188.8 L 99.5 199.2 L 98.1 199.2 L 98.1 194.4 L 92.7 194.4 L 92.7 199.2 L 91.3 199.2 L 91.3 188.8 " fill="#000000"/>
<path class="atom-29" d="M 123.2 112.3 L 124.7 112.3 L 124.7 116.8 L 130.0 116.8 L 130.0 112.3 L 131.4 112.3 L 131.4 122.8 L 130.0 122.8 L 130.0 117.9 L 124.7 117.9 L 124.7 122.8 L 123.2 122.8 L 123.2 112.3 " fill="#000000"/>
<path class="atom-30" d="M 90.5 109.9 L 91.9 109.9 L 91.9 114.4 L 97.2 114.4 L 97.2 109.9 L 98.6 109.9 L 98.6 120.4 L 97.2 120.4 L 97.2 115.6 L 91.9 115.6 L 91.9 120.4 L 90.5 120.4 L 90.5 109.9 " fill="#000000"/>
<path class="atom-31" d="M 170.0 204.1 L 171.4 204.1 L 171.4 208.5 L 176.7 208.5 L 176.7 204.1 L 178.1 204.1 L 178.1 214.5 L 176.7 214.5 L 176.7 209.7 L 171.4 209.7 L 171.4 214.5 L 170.0 214.5 L 170.0 204.1 " fill="#000000"/>
<path class="atom-32" d="M 194.7 155.9 L 196.1 155.9 L 196.1 160.3 L 201.5 160.3 L 201.5 155.9 L 202.9 155.9 L 202.9 166.3 L 201.5 166.3 L 201.5 161.5 L 196.1 161.5 L 196.1 166.3 L 194.7 166.3 L 194.7 155.9 " fill="#000000"/>
<path class="atom-33" d="M 181.9 141.1 L 183.3 141.1 L 183.3 145.5 L 188.7 145.5 L 188.7 141.1 L 190.1 141.1 L 190.1 151.5 L 188.7 151.5 L 188.7 146.7 L 183.3 146.7 L 183.3 151.5 L 181.9 151.5 L 181.9 141.1 " fill="#000000"/>
<path class="atom-34" d="M 248.0 99.1 L 249.4 99.1 L 249.4 103.5 L 254.8 103.5 L 254.8 99.1 L 256.2 99.1 L 256.2 109.5 L 254.8 109.5 L 254.8 104.7 L 249.4 104.7 L 249.4 109.5 L 248.0 109.5 L 248.0 99.1 " fill="#000000"/>
<path class="atom-35" d="M 171.7 61.0 L 173.1 61.0 L 173.1 65.4 L 178.5 65.4 L 178.5 61.0 L 179.9 61.0 L 179.9 71.4 L 178.5 71.4 L 178.5 66.6 L 173.1 66.6 L 173.1 71.4 L 171.7 71.4 L 171.7 61.0 " fill="#000000"/>
<path class="atom-36" d="M 139.1 239.6 L 140.5 239.6 L 140.5 244.0 L 145.9 244.0 L 145.9 239.6 L 147.3 239.6 L 147.3 250.0 L 145.9 250.0 L 145.9 245.2 L 140.5 245.2 L 140.5 250.0 L 139.1 250.0 L 139.1 239.6 " fill="#000000"/>
<path class="atom-37" d="M 119.7 254.9 L 121.1 254.9 L 121.1 259.4 L 126.5 259.4 L 126.5 254.9 L 127.9 254.9 L 127.9 265.4 L 126.5 265.4 L 126.5 260.6 L 121.1 260.6 L 121.1 265.4 L 119.7 265.4 L 119.7 254.9 " fill="#000000"/>
<path class="atom-38" d="M 91.9 234.3 L 93.3 234.3 L 93.3 238.8 L 98.6 238.8 L 98.6 234.3 L 100.0 234.3 L 100.0 244.8 L 98.6 244.8 L 98.6 240.0 L 93.3 240.0 L 93.3 244.8 L 91.9 244.8 L 91.9 234.3 " fill="#000000"/>
<ellipse cx="363.1" cy="171.5" rx="8.1" ry="8.1" class="atom-0" style="fill:#DC3369;fill-rule:evenodd;stroke:#DC3369;stroke-width:1.0px;stroke-linecap:butt;stroke-linejoin:miter;stroke-opacity:1"/>
<ellipse cx="354.6" cy="195.0" rx="8.1" ry="8.1" class="atom-26" style="fill:#DC3369;fill-rule:evenodd;stroke:#DC3369;stroke-width:1.0px;stroke-linecap:butt;stroke-linejoin:miter;stroke-opacity:1"/>
<path class="bond-0 atom-0 atom-1" d="M 368.7,170.7 L 378.1,169.3" style="fill:none;fill-rule:evenodd;stroke:#FF0000;stroke-width:2.0px;stroke-linecap:butt;stroke-linejoin:miter;stroke-opacity:1"/>
<path class="bond-0 atom-0 atom-1" d="M 378.1,169.3 L 387.4,168.0" style="fill:none;fill-rule:evenodd;stroke:#000000;stroke-width:2.0px;stroke-linecap:butt;stroke-linejoin:miter;stroke-opacity:1"/>
<path class="bond-1 atom-0 atom-26" d="M 360.8,177.7 L 358.8,183.4" style="fill:none;fill-rule:evenodd;stroke:#FF0000;stroke-width:2.0px;stroke-linecap:butt;stroke-linejoin:miter;stroke-opacity:1"/>
<path class="bond-1 atom-0 atom-26" d="M 358.8,183.4 L 356.7,189.0" style="fill:none;fill-rule:evenodd;stroke:#000000;stroke-width:2.0px;stroke-linecap:butt;stroke-linejoin:miter;stroke-opacity:1"/>
<path class="bond-2 atom-1 atom-2" d="M 387.4,168.0 L 383.3,143.7" style="fill:none;fill-rule:evenodd;stroke:#000000;stroke-width:2.0px;stroke-linecap:butt;stroke-linejoin:miter;stroke-opacity:1"/>
<path class="bond-3 atom-1 atom-5" d="M 387.4,168.0 L 411.9,171.7" style="fill:none;fill-rule:evenodd;stroke:#000000;stroke-width:2.0px;stroke-linecap:butt;stroke-linejoin:miter;stroke-opacity:1"/>
<path class="bond-4 atom-1 atom-27" d="M 387.4,168.0 L 389.9,181.4 L 385.0,181.4 Z" style="fill:#000000;fill-rule:evenodd;fill-opacity:1;stroke:#000000;stroke-width:1.0px;stroke-linecap:butt;stroke-linejoin:miter;stroke-opacity:1;"/>
<path class="bond-5 atom-2 atom-3" d="M 383.3,143.7 L 405.2,132.4" style="fill:none;fill-rule:evenodd;stroke:#000000;stroke-width:2.0px;stroke-linecap:butt;stroke-linejoin:miter;stroke-opacity:1"/>
<path class="bond-6 atom-2 atom-23" d="M 383.3,143.7 L 379.3,135.6" style="fill:none;fill-rule:evenodd;stroke:#000000;stroke-width:2.0px;stroke-linecap:butt;stroke-linejoin:miter;stroke-opacity:1"/>
<path class="bond-6 atom-2 atom-23" d="M 379.3,135.6 L 375.4,127.5" style="fill:none;fill-rule:evenodd;stroke:#33CCCC;stroke-width:2.0px;stroke-linecap:butt;stroke-linejoin:miter;stroke-opacity:1"/>
<path class="bond-7 atom-2 atom-24" d="M 383.3,143.7 L 373.3,147.1" style="fill:none;fill-rule:evenodd;stroke:#000000;stroke-width:2.0px;stroke-linecap:butt;stroke-linejoin:miter;stroke-opacity:1"/>
<path class="bond-7 atom-2 atom-24" d="M 373.3,147.1 L 363.3,150.5" style="fill:none;fill-rule:evenodd;stroke:#33CCCC;stroke-width:2.0px;stroke-linecap:butt;stroke-linejoin:miter;stroke-opacity:1"/>
<path class="bond-8 atom-3 atom-4" d="M 405.2,132.4 L 423.0,149.9" style="fill:none;fill-rule:evenodd;stroke:#000000;stroke-width:2.0px;stroke-linecap:butt;stroke-linejoin:miter;stroke-opacity:1"/>
<path class="bond-9 atom-3 atom-28" d="M 405.2,132.4 L 417.7,120.2" style="fill:none;fill-rule:evenodd;stroke:#000000;stroke-width:2.0px;stroke-linecap:butt;stroke-linejoin:miter;stroke-opacity:1"/>
<path class="bond-10 atom-3 atom-29" d="M 405.2,132.4 L 394.4,118.1" style="fill:none;fill-rule:evenodd;stroke:#000000;stroke-width:2.0px;stroke-linecap:butt;stroke-linejoin:miter;stroke-opacity:1"/>
<path class="bond-11 atom-4 atom-5" d="M 423.0,149.9 L 411.9,171.7" style="fill:none;fill-rule:evenodd;stroke:#000000;stroke-width:2.0px;stroke-linecap:butt;stroke-linejoin:miter;stroke-opacity:1"/>
<path class="bond-11 atom-4 atom-5" d="M 425.3,155.1 L 417.5,170.4" style="fill:none;fill-rule:evenodd;stroke:#000000;stroke-width:2.0px;stroke-linecap:butt;stroke-linejoin:miter;stroke-opacity:1"/>
<path class="bond-12 atom-4 atom-9" d="M 423.0,149.9 L 447.8,148.6" style="fill:none;fill-rule:evenodd;stroke:#000000;stroke-width:2.0px;stroke-linecap:butt;stroke-linejoin:miter;stroke-opacity:1"/>
<path class="bond-13 atom-5 atom-6" d="M 411.9,171.7 L 425.5,192.5" style="fill:none;fill-rule:evenodd;stroke:#000000;stroke-width:2.0px;stroke-linecap:butt;stroke-linejoin:miter;stroke-opacity:1"/>
<path class="bond-14 atom-6 atom-7" d="M 425.5,192.5 L 450.3,191.5" style="fill:none;fill-rule:evenodd;stroke:#000000;stroke-width:2.0px;stroke-linecap:butt;stroke-linejoin:miter;stroke-opacity:1"/>
<path class="bond-14 atom-6 atom-7" d="M 429.1,187.9 L 446.4,187.2" style="fill:none;fill-rule:evenodd;stroke:#000000;stroke-width:2.0px;stroke-linecap:butt;stroke-linejoin:miter;stroke-opacity:1"/>
<path class="bond-15 atom-6 atom-19" d="M 425.5,192.5 L 422.7,200.0" style="fill:none;fill-rule:evenodd;stroke:#000000;stroke-width:2.0px;stroke-linecap:butt;stroke-linejoin:miter;stroke-opacity:1"/>
<path class="bond-15 atom-6 atom-19" d="M 422.7,200.0 L 420.0,207.6" style="fill:none;fill-rule:evenodd;stroke:#CCCC00;stroke-width:2.0px;stroke-linecap:butt;stroke-linejoin:miter;stroke-opacity:1"/>
<path class="bond-16 atom-7 atom-8" d="M 450.3,191.5 L 461.5,170.0" style="fill:none;fill-rule:evenodd;stroke:#000000;stroke-width:2.0px;stroke-linecap:butt;stroke-linejoin:miter;stroke-opacity:1"/>
<path class="bond-17 atom-7 atom-30" d="M 450.3,191.5 L 459.9,204.0" style="fill:none;fill-rule:evenodd;stroke:#000000;stroke-width:2.0px;stroke-linecap:butt;stroke-linejoin:miter;stroke-opacity:1"/>
<path class="bond-18 atom-8 atom-9" d="M 461.5,170.0 L 447.8,148.6" style="fill:none;fill-rule:evenodd;stroke:#000000;stroke-width:2.0px;stroke-linecap:butt;stroke-linejoin:miter;stroke-opacity:1"/>
<path class="bond-18 atom-8 atom-9" d="M 455.7,169.2 L 446.2,154.2" style="fill:none;fill-rule:evenodd;stroke:#000000;stroke-width:2.0px;stroke-linecap:butt;stroke-linejoin:miter;stroke-opacity:1"/>
<path class="bond-19 atom-8 atom-31" d="M 461.5,170.0 L 487.2,163.2" style="fill:none;fill-rule:evenodd;stroke:#000000;stroke-width:2.0px;stroke-linecap:butt;stroke-linejoin:miter;stroke-opacity:1"/>
<path class="bond-20 atom-9 atom-10" d="M 447.8,148.6 L 449.6,136.0" style="fill:none;fill-rule:evenodd;stroke:#000000;stroke-width:2.0px;stroke-linecap:butt;stroke-linejoin:miter;stroke-opacity:1"/>
<path class="bond-20 atom-9 atom-10" d="M 449.6,136.0 L 451.3,123.3" style="fill:none;fill-rule:evenodd;stroke:#FF0000;stroke-width:2.0px;stroke-linecap:butt;stroke-linejoin:miter;stroke-opacity:1"/>
<path class="bond-21 atom-10 atom-11" d="M 457.7,114.7 L 464.3,111.8" style="fill:none;fill-rule:evenodd;stroke:#FF0000;stroke-width:2.0px;stroke-linecap:butt;stroke-linejoin:miter;stroke-opacity:1"/>
<path class="bond-21 atom-10 atom-11" d="M 464.3,111.8 L 470.8,109.0" style="fill:none;fill-rule:evenodd;stroke:#000000;stroke-width:2.0px;stroke-linecap:butt;stroke-linejoin:miter;stroke-opacity:1"/>
<path class="bond-22 atom-11 atom-12" d="M 470.8,109.0 L 484.0,129.5" style="fill:none;fill-rule:evenodd;stroke:#000000;stroke-width:2.0px;stroke-linecap:butt;stroke-linejoin:miter;stroke-opacity:1"/>
<path class="bond-22 atom-11 atom-12" d="M 476.5,109.7 L 485.7,124.0" style="fill:none;fill-rule:evenodd;stroke:#000000;stroke-width:2.0px;stroke-linecap:butt;stroke-linejoin:miter;stroke-opacity:1"/>
<path class="bond-23 atom-11 atom-18" d="M 470.8,109.0 L 482.2,87.1" style="fill:none;fill-rule:evenodd;stroke:#000000;stroke-width:2.0px;stroke-linecap:butt;stroke-linejoin:miter;stroke-opacity:1"/>
<path class="bond-24 atom-12 atom-13" d="M 484.0,129.5 L 508.7,128.5" style="fill:none;fill-rule:evenodd;stroke:#000000;stroke-width:2.0px;stroke-linecap:butt;stroke-linejoin:miter;stroke-opacity:1"/>
<path class="bond-25 atom-12 atom-32" d="M 484.0,129.5 L 481.0,141.0" style="fill:none;fill-rule:evenodd;stroke:#000000;stroke-width:2.0px;stroke-linecap:butt;stroke-linejoin:miter;stroke-opacity:1"/>
<path class="bond-26 atom-13 atom-14" d="M 508.7,128.5 L 514.6,136.2" style="fill:none;fill-rule:evenodd;stroke:#000000;stroke-width:2.0px;stroke-linecap:butt;stroke-linejoin:miter;stroke-opacity:1"/>
<path class="bond-26 atom-13 atom-14" d="M 514.6,136.2 L 520.5,143.9" style="fill:none;fill-rule:evenodd;stroke:#33CCCC;stroke-width:2.0px;stroke-linecap:butt;stroke-linejoin:miter;stroke-opacity:1"/>
<path class="bond-27 atom-13 atom-15" d="M 508.7,128.5 L 520.0,106.6" style="fill:none;fill-rule:evenodd;stroke:#000000;stroke-width:2.0px;stroke-linecap:butt;stroke-linejoin:miter;stroke-opacity:1"/>
<path class="bond-27 atom-13 atom-15" d="M 506.4,123.1 L 514.4,107.9" style="fill:none;fill-rule:evenodd;stroke:#000000;stroke-width:2.0px;stroke-linecap:butt;stroke-linejoin:miter;stroke-opacity:1"/>
<path class="bond-28 atom-15 atom-16" d="M 520.0,106.6 L 506.9,85.9" style="fill:none;fill-rule:evenodd;stroke:#000000;stroke-width:2.0px;stroke-linecap:butt;stroke-linejoin:miter;stroke-opacity:1"/>
<path class="bond-29 atom-15 atom-33" d="M 520.0,106.6 L 540.5,105.5" style="fill:none;fill-rule:evenodd;stroke:#000000;stroke-width:2.0px;stroke-linecap:butt;stroke-linejoin:miter;stroke-opacity:1"/>
<path class="bond-30 atom-16 atom-17" d="M 506.9,85.9 L 517.5,63.4" style="fill:none;fill-rule:evenodd;stroke:#000000;stroke-width:2.0px;stroke-linecap:butt;stroke-linejoin:miter;stroke-opacity:1"/>
<path class="bond-31 atom-16 atom-18" d="M 506.9,85.9 L 482.2,87.1" style="fill:none;fill-rule:evenodd;stroke:#000000;stroke-width:2.0px;stroke-linecap:butt;stroke-linejoin:miter;stroke-opacity:1"/>
<path class="bond-31 atom-16 atom-18" d="M 503.4,90.5 L 486.1,91.4" style="fill:none;fill-rule:evenodd;stroke:#000000;stroke-width:2.0px;stroke-linecap:butt;stroke-linejoin:miter;stroke-opacity:1"/>
<path class="bond-32 atom-17 atom-25" d="M 517.5,63.4 L 521.0,55.0" style="fill:none;fill-rule:evenodd;stroke:#000000;stroke-width:2.0px;stroke-linecap:butt;stroke-linejoin:miter;stroke-opacity:1"/>
<path class="bond-32 atom-17 atom-25" d="M 521.0,55.0 L 524.6,46.7" style="fill:none;fill-rule:evenodd;stroke:#0000FF;stroke-width:2.0px;stroke-linecap:butt;stroke-linejoin:miter;stroke-opacity:1"/>
<path class="bond-32 atom-17 atom-25" d="M 514.5,59.2 L 517.5,52.0" style="fill:none;fill-rule:evenodd;stroke:#000000;stroke-width:2.0px;stroke-linecap:butt;stroke-linejoin:miter;stroke-opacity:1"/>
<path class="bond-32 atom-17 atom-25" d="M 517.5,52.0 L 520.5,44.9" style="fill:none;fill-rule:evenodd;stroke:#0000FF;stroke-width:2.0px;stroke-linecap:butt;stroke-linejoin:miter;stroke-opacity:1"/>
<path class="bond-32 atom-17 atom-25" d="M 522.6,62.6 L 525.7,55.5" style="fill:none;fill-rule:evenodd;stroke:#000000;stroke-width:2.0px;stroke-linecap:butt;stroke-linejoin:miter;stroke-opacity:1"/>
<path class="bond-32 atom-17 atom-25" d="M 525.7,55.5 L 528.7,48.4" style="fill:none;fill-rule:evenodd;stroke:#0000FF;stroke-width:2.0px;stroke-linecap:butt;stroke-linejoin:miter;stroke-opacity:1"/>
<path class="bond-33 atom-18 atom-34" d="M 482.2,87.1 L 473.1,72.9" style="fill:none;fill-rule:evenodd;stroke:#000000;stroke-width:2.0px;stroke-linecap:butt;stroke-linejoin:miter;stroke-opacity:1"/>
<path class="bond-34 atom-19 atom-20" d="M 412.8,214.2 L 407.0,212.0" style="fill:none;fill-rule:evenodd;stroke:#CCCC00;stroke-width:2.0px;stroke-linecap:butt;stroke-linejoin:miter;stroke-opacity:1"/>
<path class="bond-34 atom-19 atom-20" d="M 407.0,212.0 L 401.3,209.9" style="fill:none;fill-rule:evenodd;stroke:#FF0000;stroke-width:2.0px;stroke-linecap:butt;stroke-linejoin:miter;stroke-opacity:1"/>
<path class="bond-34 atom-19 atom-20" d="M 414.3,210.0 L 408.6,207.9" style="fill:none;fill-rule:evenodd;stroke:#CCCC00;stroke-width:2.0px;stroke-linecap:butt;stroke-linejoin:miter;stroke-opacity:1"/>
<path class="bond-34 atom-19 atom-20" d="M 408.6,207.9 L 402.8,205.8" style="fill:none;fill-rule:evenodd;stroke:#FF0000;stroke-width:2.0px;stroke-linecap:butt;stroke-linejoin:miter;stroke-opacity:1"/>
<path class="bond-35 atom-19 atom-21" d="M 422.6,212.8 L 429.5,215.0" style="fill:none;fill-rule:evenodd;stroke:#CCCC00;stroke-width:2.0px;stroke-linecap:butt;stroke-linejoin:miter;stroke-opacity:1"/>
<path class="bond-35 atom-19 atom-21" d="M 429.5,215.0 L 436.4,217.2" style="fill:none;fill-rule:evenodd;stroke:#FF0000;stroke-width:2.0px;stroke-linecap:butt;stroke-linejoin:miter;stroke-opacity:1"/>
<path class="bond-35 atom-19 atom-21" d="M 421.2,217.0 L 428.1,219.2" style="fill:none;fill-rule:evenodd;stroke:#CCCC00;stroke-width:2.0px;stroke-linecap:butt;stroke-linejoin:miter;stroke-opacity:1"/>
<path class="bond-35 atom-19 atom-21" d="M 428.1,219.2 L 435.0,221.5" style="fill:none;fill-rule:evenodd;stroke:#FF0000;stroke-width:2.0px;stroke-linecap:butt;stroke-linejoin:miter;stroke-opacity:1"/>
<path class="bond-36 atom-19 atom-22" d="M 415.7,219.9 L 413.2,227.8" style="fill:none;fill-rule:evenodd;stroke:#CCCC00;stroke-width:2.0px;stroke-linecap:butt;stroke-linejoin:miter;stroke-opacity:1"/>
<path class="bond-36 atom-19 atom-22" d="M 413.2,227.8 L 410.6,235.6" style="fill:none;fill-rule:evenodd;stroke:#000000;stroke-width:2.0px;stroke-linecap:butt;stroke-linejoin:miter;stroke-opacity:1"/>
<path class="bond-37 atom-22 atom-35" d="M 410.6,235.6 L 429.4,241.3" style="fill:none;fill-rule:evenodd;stroke:#000000;stroke-width:2.0px;stroke-linecap:butt;stroke-linejoin:miter;stroke-opacity:1"/>
<path class="bond-38 atom-22 atom-36" d="M 410.6,235.6 L 414.7,253.3" style="fill:none;fill-rule:evenodd;stroke:#000000;stroke-width:2.0px;stroke-linecap:butt;stroke-linejoin:miter;stroke-opacity:1"/>
<path class="bond-39 atom-22 atom-37" d="M 410.6,235.6 L 391.8,239.6" style="fill:none;fill-rule:evenodd;stroke:#000000;stroke-width:2.0px;stroke-linecap:butt;stroke-linejoin:miter;stroke-opacity:1"/>
<path class="atom-0" d="M 358.3 171.5 Q 358.3 169.0, 359.5 167.6 Q 360.8 166.2, 363.1 166.2 Q 365.4 166.2, 366.7 167.6 Q 367.9 169.0, 367.9 171.5 Q 367.9 174.0, 366.6 175.5 Q 365.4 176.9, 363.1 176.9 Q 360.8 176.9, 359.5 175.5 Q 358.3 174.0, 358.3 171.5 M 363.1 175.7 Q 364.7 175.7, 365.6 174.7 Q 366.4 173.6, 366.4 171.5 Q 366.4 169.4, 365.6 168.4 Q 364.7 167.4, 363.1 167.4 Q 361.5 167.4, 360.6 168.4 Q 359.8 169.4, 359.8 171.5 Q 359.8 173.6, 360.6 174.7 Q 361.5 175.7, 363.1 175.7 " fill="#FF0000"/>
<path class="atom-10" d="M 447.3 117.1 Q 447.3 114.6, 448.6 113.2 Q 449.8 111.8, 452.1 111.8 Q 454.4 111.8, 455.7 113.2 Q 456.9 114.6, 456.9 117.1 Q 456.9 119.7, 455.7 121.1 Q 454.4 122.5, 452.1 122.5 Q 449.8 122.5, 448.6 121.1 Q 447.3 119.7, 447.3 117.1 M 452.1 121.3 Q 453.7 121.3, 454.6 120.3 Q 455.4 119.2, 455.4 117.1 Q 455.4 115.1, 454.6 114.0 Q 453.7 113.0, 452.1 113.0 Q 450.5 113.0, 449.6 114.0 Q 448.8 115.0, 448.8 117.1 Q 448.8 119.2, 449.6 120.3 Q 450.5 121.3, 452.1 121.3 " fill="#FF0000"/>
<path class="atom-14" d="M 521.3 143.8 L 527.5 143.8 L 527.5 145.0 L 522.7 145.0 L 522.7 148.2 L 527.0 148.2 L 527.0 149.4 L 522.7 149.4 L 522.7 154.3 L 521.3 154.3 L 521.3 143.8 " fill="#33CCCC"/>
<path class="atom-19" d="M 414.8 217.2 Q 414.9 217.2, 415.4 217.4 Q 415.9 217.6, 416.4 217.8 Q 416.9 217.9, 417.5 217.9 Q 418.5 217.9, 419.0 217.4 Q 419.6 216.9, 419.6 216.1 Q 419.6 215.5, 419.3 215.2 Q 419.0 214.8, 418.6 214.6 Q 418.2 214.4, 417.4 214.2 Q 416.5 213.9, 415.9 213.7 Q 415.4 213.4, 415.0 212.8 Q 414.6 212.3, 414.6 211.3 Q 414.6 210.0, 415.5 209.2 Q 416.4 208.4, 418.2 208.4 Q 419.4 208.4, 420.7 209.0 L 420.4 210.1 Q 419.1 209.6, 418.2 209.6 Q 417.2 209.6, 416.6 210.0 Q 416.1 210.4, 416.1 211.2 Q 416.1 211.7, 416.3 212.1 Q 416.6 212.4, 417.1 212.6 Q 417.5 212.8, 418.2 213.0 Q 419.1 213.3, 419.7 213.6 Q 420.3 213.9, 420.7 214.5 Q 421.1 215.1, 421.1 216.1 Q 421.1 217.5, 420.1 218.3 Q 419.1 219.1, 417.5 219.1 Q 416.6 219.1, 415.9 218.9 Q 415.2 218.7, 414.4 218.4 L 414.8 217.2 " fill="#CCCC00"/>
<path class="atom-20" d="M 391.7 205.8 Q 391.7 203.3, 392.9 201.9 Q 394.1 200.5, 396.5 200.5 Q 398.8 200.5, 400.0 201.9 Q 401.3 203.3, 401.3 205.8 Q 401.3 208.4, 400.0 209.8 Q 398.7 211.2, 396.5 211.2 Q 394.2 211.2, 392.9 209.8 Q 391.7 208.4, 391.7 205.8 M 396.5 210.1 Q 398.0 210.1, 398.9 209.0 Q 399.8 207.9, 399.8 205.8 Q 399.8 203.8, 398.9 202.7 Q 398.0 201.7, 396.5 201.7 Q 394.9 201.7, 394.0 202.7 Q 393.1 203.8, 393.1 205.8 Q 393.1 207.9, 394.0 209.0 Q 394.9 210.1, 396.5 210.1 " fill="#FF0000"/>
<path class="atom-21" d="M 436.5 221.2 Q 436.5 218.7, 437.7 217.3 Q 439.0 215.9, 441.3 215.9 Q 443.6 215.9, 444.9 217.3 Q 446.1 218.7, 446.1 221.2 Q 446.1 223.7, 444.8 225.2 Q 443.6 226.6, 441.3 226.6 Q 439.0 226.6, 437.7 225.2 Q 436.5 223.7, 436.5 221.2 M 441.3 225.4 Q 442.9 225.4, 443.8 224.3 Q 444.6 223.3, 444.6 221.2 Q 444.6 219.1, 443.8 218.1 Q 442.9 217.0, 441.3 217.0 Q 439.7 217.0, 438.8 218.1 Q 438.0 219.1, 438.0 221.2 Q 438.0 223.3, 438.8 224.3 Q 439.7 225.4, 441.3 225.4 " fill="#FF0000"/>
<path class="atom-23" d="M 369.3 116.3 L 375.5 116.3 L 375.5 117.5 L 370.7 117.5 L 370.7 120.7 L 375.0 120.7 L 375.0 121.9 L 370.7 121.9 L 370.7 126.7 L 369.3 126.7 L 369.3 116.3 " fill="#33CCCC"/>
<path class="atom-24" d="M 356.3 146.6 L 362.5 146.6 L 362.5 147.8 L 357.7 147.8 L 357.7 150.9 L 362.0 150.9 L 362.0 152.2 L 357.7 152.2 L 357.7 157.0 L 356.3 157.0 L 356.3 146.6 " fill="#33CCCC"/>
<path class="atom-25" d="M 524.9 35.4 L 528.3 40.9 Q 528.6 41.5, 529.2 42.5 Q 529.7 43.5, 529.8 43.5 L 529.8 35.4 L 531.2 35.4 L 531.2 45.8 L 529.7 45.8 L 526.0 39.8 Q 525.6 39.1, 525.2 38.3 Q 524.7 37.5, 524.6 37.2 L 524.6 45.8 L 523.2 45.8 L 523.2 35.4 L 524.9 35.4 " fill="#0000FF"/>
<path class="atom-26" d="M 350.5 189.8 L 351.9 189.8 L 351.9 194.3 L 357.2 194.3 L 357.2 189.8 L 358.6 189.8 L 358.6 200.3 L 357.2 200.3 L 357.2 195.4 L 351.9 195.4 L 351.9 200.3 L 350.5 200.3 L 350.5 189.8 " fill="#000000"/>
<path class="atom-27" d="M 383.4 183.0 L 384.8 183.0 L 384.8 187.5 L 390.1 187.5 L 390.1 183.0 L 391.5 183.0 L 391.5 193.5 L 390.1 193.5 L 390.1 188.7 L 384.8 188.7 L 384.8 193.5 L 383.4 193.5 L 383.4 183.0 " fill="#000000"/>
<path class="atom-28" d="M 418.5 110.2 L 419.9 110.2 L 419.9 114.7 L 425.2 114.7 L 425.2 110.2 L 426.7 110.2 L 426.7 120.7 L 425.2 120.7 L 425.2 115.8 L 419.9 115.8 L 419.9 120.7 L 418.5 120.7 L 418.5 110.2 " fill="#000000"/>
<path class="atom-29" d="M 385.7 106.9 L 387.1 106.9 L 387.1 111.3 L 392.4 111.3 L 392.4 106.9 L 393.8 106.9 L 393.8 117.3 L 392.4 117.3 L 392.4 112.5 L 387.1 112.5 L 387.1 117.3 L 385.7 117.3 L 385.7 106.9 " fill="#000000"/>
<path class="atom-30" d="M 460.4 204.9 L 461.9 204.9 L 461.9 209.3 L 467.2 209.3 L 467.2 204.9 L 468.6 204.9 L 468.6 215.3 L 467.2 215.3 L 467.2 210.5 L 461.9 210.5 L 461.9 215.3 L 460.4 215.3 L 460.4 204.9 " fill="#000000"/>
<path class="atom-31" d="M 488.0 156.6 L 489.4 156.6 L 489.4 161.1 L 494.8 161.1 L 494.8 156.6 L 496.2 156.6 L 496.2 167.1 L 494.8 167.1 L 494.8 162.3 L 489.4 162.3 L 489.4 167.1 L 488.0 167.1 L 488.0 156.6 " fill="#000000"/>
<path class="atom-32" d="M 475.3 141.8 L 476.7 141.8 L 476.7 146.3 L 482.0 146.3 L 482.0 141.8 L 483.5 141.8 L 483.5 152.3 L 482.0 152.3 L 482.0 147.5 L 476.7 147.5 L 476.7 152.3 L 475.3 152.3 L 475.3 141.8 " fill="#000000"/>
<path class="atom-33" d="M 541.4 100.0 L 542.8 100.0 L 542.8 104.4 L 548.1 104.4 L 548.1 100.0 L 549.5 100.0 L 549.5 110.4 L 548.1 110.4 L 548.1 105.6 L 542.8 105.6 L 542.8 110.4 L 541.4 110.4 L 541.4 100.0 " fill="#000000"/>
<path class="atom-34" d="M 465.2 61.6 L 466.6 61.6 L 466.6 66.1 L 471.9 66.1 L 471.9 61.6 L 473.4 61.6 L 473.4 72.1 L 471.9 72.1 L 471.9 67.3 L 466.6 67.3 L 466.6 72.1 L 465.2 72.1 L 465.2 61.6 " fill="#000000"/>
<path class="atom-35" d="M 430.2 237.6 L 431.7 237.6 L 431.7 242.0 L 437.0 242.0 L 437.0 237.6 L 438.4 237.6 L 438.4 248.0 L 437.0 248.0 L 437.0 243.2 L 431.7 243.2 L 431.7 248.0 L 430.2 248.0 L 430.2 237.6 " fill="#000000"/>
<path class="atom-36" d="M 412.0 254.2 L 413.4 254.2 L 413.4 258.6 L 418.8 258.6 L 418.8 254.2 L 420.2 254.2 L 420.2 264.6 L 418.8 264.6 L 418.8 259.8 L 413.4 259.8 L 413.4 264.6 L 412.0 264.6 L 412.0 254.2 " fill="#000000"/>
<path class="atom-37" d="M 382.8 235.4 L 384.2 235.4 L 384.2 239.9 L 389.5 239.9 L 389.5 235.4 L 390.9 235.4 L 390.9 245.9 L 389.5 245.9 L 389.5 241.1 L 384.2 241.1 L 384.2 245.9 L 382.8 245.9 L 382.8 235.4 " fill="#000000"/>
<text x="300" y="20" font-size="20" font-family="sans-serif" font-weight="normal" letter-spacing="0" text-anchor="middle" fill="black">hif2a 164 -&gt; 163 </text><text x="150" y="285" font-size="15" font-family="sans-serif" font-weight="normal" letter-spacing="0" text-anchor="middle" fill="black">164</text><text x="450" y="285" font-size="15" font-family="sans-serif" font-weight="normal" letter-spacing="0" text-anchor="middle" fill="black">163</text></svg>
