<?xml version='1.0' encoding='ASCII' standalone='yes'?>
<svg xmlns="http://www.w3.org/2000/svg" xmlns:rdkit="http://www.rdkit.org/xml" xmlns:xlink="http://www.w3.org/1999/xlink" version="1.1" baseProfile="full" xml:space="preserve" width="600px" height="300px" viewBox="0 0 600 300">
<!-- END OF HEADER -->
<rect style="opacity:1.0;fill:#FFFFFF;stroke:none" width="600.0" height="300.0" x="0.0" y="0.0"> </rect>
<ellipse cx="100.6" cy="84.9" rx="7.5" ry="7.5" class="atom-17" style="fill:#3D79AB;fill-rule:evenodd;stroke:#3D79AB;stroke-width:1.0px;stroke-linecap:butt;stroke-linejoin:miter;stroke-opacity:1"/>
<ellipse cx="91.0" cy="204.4" rx="7.5" ry="7.5" class="atom-25" style="fill:#DC3369;fill-rule:evenodd;stroke:#DC3369;stroke-width:1.0px;stroke-linecap:butt;stroke-linejoin:miter;stroke-opacity:1"/>
<ellipse cx="101.4" cy="138.0" rx="7.5" ry="7.5" class="atom-27" style="fill:#DC3369;fill-rule:evenodd;stroke:#DC3369;stroke-width:1.0px;stroke-linecap:butt;stroke-linejoin:miter;stroke-opacity:1"/>
<ellipse cx="92.3" cy="165.8" rx="7.5" ry="7.5" class="atom-28" style="fill:#DC3369;fill-rule:evenodd;stroke:#DC3369;stroke-width:1.0px;stroke-linecap:butt;stroke-linejoin:miter;stroke-opacity:1"/>
<path class="bond-0 atom-0 atom-1" d="M 103.2,182.0 L 111.6,180.3" style="fill:none;fill-rule:evenodd;stroke:#FF0000;stroke-width:2.0px;stroke-linecap:butt;stroke-linejoin:miter;stroke-opacity:1"/>
<path class="bond-0 atom-0 atom-1" d="M 111.6,180.3 L 119.9,178.6" style="fill:none;fill-rule:evenodd;stroke:#000000;stroke-width:2.0px;stroke-linecap:butt;stroke-linejoin:miter;stroke-opacity:1"/>
<path class="bond-1 atom-0 atom-25" d="M 96.2,188.8 L 94.5,193.8" style="fill:none;fill-rule:evenodd;stroke:#FF0000;stroke-width:2.0px;stroke-linecap:butt;stroke-linejoin:miter;stroke-opacity:1"/>
<path class="bond-1 atom-0 atom-25" d="M 94.5,193.8 L 92.8,198.8" style="fill:none;fill-rule:evenodd;stroke:#000000;stroke-width:2.0px;stroke-linecap:butt;stroke-linejoin:miter;stroke-opacity:1"/>
<path class="bond-2 atom-1 atom-2" d="M 119.9,178.6 L 113.3,157.0" style="fill:none;fill-rule:evenodd;stroke:#000000;stroke-width:2.0px;stroke-linecap:butt;stroke-linejoin:miter;stroke-opacity:1"/>
<path class="bond-3 atom-1 atom-5" d="M 119.9,178.6 L 142.5,179.0" style="fill:none;fill-rule:evenodd;stroke:#000000;stroke-width:2.0px;stroke-linecap:butt;stroke-linejoin:miter;stroke-opacity:1"/>
<path class="bond-4 atom-1 atom-26" d="M 119.9,178.6 L 122.9,190.0 L 118.4,190.3 Z" style="fill:#000000;fill-rule:evenodd;fill-opacity:1;stroke:#000000;stroke-width:1.0px;stroke-linecap:butt;stroke-linejoin:miter;stroke-opacity:1;"/>
<path class="bond-5 atom-2 atom-3" d="M 113.3,157.0 L 131.9,144.0" style="fill:none;fill-rule:evenodd;stroke:#000000;stroke-width:2.0px;stroke-linecap:butt;stroke-linejoin:miter;stroke-opacity:1"/>
<path class="bond-6 atom-2 atom-27" d="M 113.3,157.0 L 104.9,143.5" style="fill:none;fill-rule:evenodd;stroke:#000000;stroke-width:2.0px;stroke-linecap:butt;stroke-linejoin:miter;stroke-opacity:1"/>
<path class="bond-7 atom-2 atom-28" d="M 113.3,157.0 L 96.8,163.9" style="fill:none;fill-rule:evenodd;stroke:#000000;stroke-width:2.0px;stroke-linecap:butt;stroke-linejoin:miter;stroke-opacity:1"/>
<path class="bond-8 atom-3 atom-4" d="M 131.9,144.0 L 149.9,157.6" style="fill:none;fill-rule:evenodd;stroke:#000000;stroke-width:2.0px;stroke-linecap:butt;stroke-linejoin:miter;stroke-opacity:1"/>
<path class="bond-9 atom-3 atom-29" d="M 131.9,144.0 L 143.2,132.4" style="fill:none;fill-rule:evenodd;stroke:#000000;stroke-width:2.0px;stroke-linecap:butt;stroke-linejoin:miter;stroke-opacity:1"/>
<path class="bond-10 atom-3 atom-30" d="M 131.9,144.0 L 120.8,132.4" style="fill:none;fill-rule:evenodd;stroke:#000000;stroke-width:2.0px;stroke-linecap:butt;stroke-linejoin:miter;stroke-opacity:1"/>
<path class="bond-11 atom-4 atom-5" d="M 149.9,157.6 L 142.5,179.0" style="fill:none;fill-rule:evenodd;stroke:#000000;stroke-width:2.0px;stroke-linecap:butt;stroke-linejoin:miter;stroke-opacity:1"/>
<path class="bond-11 atom-4 atom-5" d="M 152.7,162.1 L 147.5,177.1" style="fill:none;fill-rule:evenodd;stroke:#000000;stroke-width:2.0px;stroke-linecap:butt;stroke-linejoin:miter;stroke-opacity:1"/>
<path class="bond-12 atom-4 atom-9" d="M 149.9,157.6 L 171.9,153.2" style="fill:none;fill-rule:evenodd;stroke:#000000;stroke-width:2.0px;stroke-linecap:butt;stroke-linejoin:miter;stroke-opacity:1"/>
<path class="bond-13 atom-5 atom-6" d="M 142.5,179.0 L 157.4,196.1" style="fill:none;fill-rule:evenodd;stroke:#000000;stroke-width:2.0px;stroke-linecap:butt;stroke-linejoin:miter;stroke-opacity:1"/>
<path class="bond-14 atom-6 atom-7" d="M 157.4,196.1 L 179.5,191.7" style="fill:none;fill-rule:evenodd;stroke:#000000;stroke-width:2.0px;stroke-linecap:butt;stroke-linejoin:miter;stroke-opacity:1"/>
<path class="bond-14 atom-6 atom-7" d="M 159.9,191.4 L 175.4,188.3" style="fill:none;fill-rule:evenodd;stroke:#000000;stroke-width:2.0px;stroke-linecap:butt;stroke-linejoin:miter;stroke-opacity:1"/>
<path class="bond-15 atom-6 atom-19" d="M 157.4,196.1 L 154.8,204.3" style="fill:none;fill-rule:evenodd;stroke:#000000;stroke-width:2.0px;stroke-linecap:butt;stroke-linejoin:miter;stroke-opacity:1"/>
<path class="bond-15 atom-6 atom-19" d="M 154.8,204.3 L 152.3,212.6" style="fill:none;fill-rule:evenodd;stroke:#CCCC00;stroke-width:2.0px;stroke-linecap:butt;stroke-linejoin:miter;stroke-opacity:1"/>
<path class="bond-16 atom-7 atom-8" d="M 179.5,191.7 L 186.8,170.2" style="fill:none;fill-rule:evenodd;stroke:#000000;stroke-width:2.0px;stroke-linecap:butt;stroke-linejoin:miter;stroke-opacity:1"/>
<path class="bond-17 atom-7 atom-31" d="M 179.5,191.7 L 190.0,203.5" style="fill:none;fill-rule:evenodd;stroke:#000000;stroke-width:2.0px;stroke-linecap:butt;stroke-linejoin:miter;stroke-opacity:1"/>
<path class="bond-18 atom-8 atom-9" d="M 186.8,170.2 L 171.9,153.2" style="fill:none;fill-rule:evenodd;stroke:#000000;stroke-width:2.0px;stroke-linecap:butt;stroke-linejoin:miter;stroke-opacity:1"/>
<path class="bond-18 atom-8 atom-9" d="M 181.5,170.4 L 171.1,158.5" style="fill:none;fill-rule:evenodd;stroke:#000000;stroke-width:2.0px;stroke-linecap:butt;stroke-linejoin:miter;stroke-opacity:1"/>
<path class="bond-19 atom-8 atom-32" d="M 186.8,170.2 L 204.5,166.7" style="fill:none;fill-rule:evenodd;stroke:#000000;stroke-width:2.0px;stroke-linecap:butt;stroke-linejoin:miter;stroke-opacity:1"/>
<path class="bond-20 atom-9 atom-10" d="M 171.9,153.2 L 175.0,141.7" style="fill:none;fill-rule:evenodd;stroke:#000000;stroke-width:2.0px;stroke-linecap:butt;stroke-linejoin:miter;stroke-opacity:1"/>
<path class="bond-20 atom-9 atom-10" d="M 175.0,141.7 L 178.2,130.1" style="fill:none;fill-rule:evenodd;stroke:#FF0000;stroke-width:2.0px;stroke-linecap:butt;stroke-linejoin:miter;stroke-opacity:1"/>
<path class="bond-21 atom-10 atom-11" d="M 176.0,118.7 L 169.3,108.9" style="fill:none;fill-rule:evenodd;stroke:#FF0000;stroke-width:2.0px;stroke-linecap:butt;stroke-linejoin:miter;stroke-opacity:1"/>
<path class="bond-21 atom-10 atom-11" d="M 169.3,108.9 L 162.7,99.1" style="fill:none;fill-rule:evenodd;stroke:#000000;stroke-width:2.0px;stroke-linecap:butt;stroke-linejoin:miter;stroke-opacity:1"/>
<path class="bond-22 atom-11 atom-12" d="M 162.7,99.1 L 172.3,78.6" style="fill:none;fill-rule:evenodd;stroke:#000000;stroke-width:2.0px;stroke-linecap:butt;stroke-linejoin:miter;stroke-opacity:1"/>
<path class="bond-22 atom-11 atom-12" d="M 160.5,94.3 L 167.1,79.9" style="fill:none;fill-rule:evenodd;stroke:#000000;stroke-width:2.0px;stroke-linecap:butt;stroke-linejoin:miter;stroke-opacity:1"/>
<path class="bond-23 atom-11 atom-18" d="M 162.7,99.1 L 140.1,101.1" style="fill:none;fill-rule:evenodd;stroke:#000000;stroke-width:2.0px;stroke-linecap:butt;stroke-linejoin:miter;stroke-opacity:1"/>
<path class="bond-24 atom-12 atom-13" d="M 172.3,78.6 L 159.3,60.0" style="fill:none;fill-rule:evenodd;stroke:#000000;stroke-width:2.0px;stroke-linecap:butt;stroke-linejoin:miter;stroke-opacity:1"/>
<path class="bond-25 atom-12 atom-33" d="M 172.3,78.6 L 190.3,76.9" style="fill:none;fill-rule:evenodd;stroke:#000000;stroke-width:2.0px;stroke-linecap:butt;stroke-linejoin:miter;stroke-opacity:1"/>
<path class="bond-26 atom-13 atom-14" d="M 159.3,60.0 L 162.7,52.5" style="fill:none;fill-rule:evenodd;stroke:#000000;stroke-width:2.0px;stroke-linecap:butt;stroke-linejoin:miter;stroke-opacity:1"/>
<path class="bond-26 atom-13 atom-14" d="M 162.7,52.5 L 166.1,45.0" style="fill:none;fill-rule:evenodd;stroke:#33CCCC;stroke-width:2.0px;stroke-linecap:butt;stroke-linejoin:miter;stroke-opacity:1"/>
<path class="bond-27 atom-13 atom-15" d="M 159.3,60.0 L 136.7,62.1" style="fill:none;fill-rule:evenodd;stroke:#000000;stroke-width:2.0px;stroke-linecap:butt;stroke-linejoin:miter;stroke-opacity:1"/>
<path class="bond-27 atom-13 atom-15" d="M 156.3,64.4 L 140.4,65.9" style="fill:none;fill-rule:evenodd;stroke:#000000;stroke-width:2.0px;stroke-linecap:butt;stroke-linejoin:miter;stroke-opacity:1"/>
<path class="bond-28 atom-15 atom-16" d="M 136.7,62.1 L 127.1,82.7" style="fill:none;fill-rule:evenodd;stroke:#000000;stroke-width:2.0px;stroke-linecap:butt;stroke-linejoin:miter;stroke-opacity:1"/>
<path class="bond-29 atom-15 atom-34" d="M 136.7,62.1 L 127.5,49.2" style="fill:none;fill-rule:evenodd;stroke:#000000;stroke-width:2.0px;stroke-linecap:butt;stroke-linejoin:miter;stroke-opacity:1"/>
<path class="bond-30 atom-16 atom-17" d="M 127.1,82.7 L 116.5,83.7" style="fill:none;fill-rule:evenodd;stroke:#000000;stroke-width:2.0px;stroke-linecap:butt;stroke-linejoin:miter;stroke-opacity:1"/>
<path class="bond-30 atom-16 atom-17" d="M 116.5,83.7 L 106.0,84.7" style="fill:none;fill-rule:evenodd;stroke:#00CC00;stroke-width:2.0px;stroke-linecap:butt;stroke-linejoin:miter;stroke-opacity:1"/>
<path class="bond-31 atom-16 atom-18" d="M 127.1,82.7 L 140.1,101.1" style="fill:none;fill-rule:evenodd;stroke:#000000;stroke-width:2.0px;stroke-linecap:butt;stroke-linejoin:miter;stroke-opacity:1"/>
<path class="bond-31 atom-16 atom-18" d="M 132.4,83.1 L 141.5,96.0" style="fill:none;fill-rule:evenodd;stroke:#000000;stroke-width:2.0px;stroke-linecap:butt;stroke-linejoin:miter;stroke-opacity:1"/>
<path class="bond-32 atom-18 atom-35" d="M 140.1,101.1 L 134.7,112.5" style="fill:none;fill-rule:evenodd;stroke:#000000;stroke-width:2.0px;stroke-linecap:butt;stroke-linejoin:miter;stroke-opacity:1"/>
<path class="bond-33 atom-19 atom-20" d="M 146.0,218.7 L 140.8,216.9" style="fill:none;fill-rule:evenodd;stroke:#CCCC00;stroke-width:2.0px;stroke-linecap:butt;stroke-linejoin:miter;stroke-opacity:1"/>
<path class="bond-33 atom-19 atom-20" d="M 140.8,216.9 L 135.6,215.1" style="fill:none;fill-rule:evenodd;stroke:#FF0000;stroke-width:2.0px;stroke-linecap:butt;stroke-linejoin:miter;stroke-opacity:1"/>
<path class="bond-33 atom-19 atom-20" d="M 147.3,214.9 L 142.1,213.1" style="fill:none;fill-rule:evenodd;stroke:#CCCC00;stroke-width:2.0px;stroke-linecap:butt;stroke-linejoin:miter;stroke-opacity:1"/>
<path class="bond-33 atom-19 atom-20" d="M 142.1,213.1 L 136.9,211.3" style="fill:none;fill-rule:evenodd;stroke:#FF0000;stroke-width:2.0px;stroke-linecap:butt;stroke-linejoin:miter;stroke-opacity:1"/>
<path class="bond-34 atom-19 atom-21" d="M 155.0,217.5 L 161.2,219.6" style="fill:none;fill-rule:evenodd;stroke:#CCCC00;stroke-width:2.0px;stroke-linecap:butt;stroke-linejoin:miter;stroke-opacity:1"/>
<path class="bond-34 atom-19 atom-21" d="M 161.2,219.6 L 167.3,221.7" style="fill:none;fill-rule:evenodd;stroke:#FF0000;stroke-width:2.0px;stroke-linecap:butt;stroke-linejoin:miter;stroke-opacity:1"/>
<path class="bond-34 atom-19 atom-21" d="M 153.7,221.3 L 159.8,223.4" style="fill:none;fill-rule:evenodd;stroke:#CCCC00;stroke-width:2.0px;stroke-linecap:butt;stroke-linejoin:miter;stroke-opacity:1"/>
<path class="bond-34 atom-19 atom-21" d="M 159.8,223.4 L 166.0,225.5" style="fill:none;fill-rule:evenodd;stroke:#FF0000;stroke-width:2.0px;stroke-linecap:butt;stroke-linejoin:miter;stroke-opacity:1"/>
<path class="bond-35 atom-19 atom-22" d="M 148.4,223.9 L 145.6,231.2" style="fill:none;fill-rule:evenodd;stroke:#CCCC00;stroke-width:2.0px;stroke-linecap:butt;stroke-linejoin:miter;stroke-opacity:1"/>
<path class="bond-35 atom-19 atom-22" d="M 145.6,231.2 L 142.9,238.5" style="fill:none;fill-rule:evenodd;stroke:#000000;stroke-width:2.0px;stroke-linecap:butt;stroke-linejoin:miter;stroke-opacity:1"/>
<path class="bond-36 atom-22 atom-23" d="M 142.9,238.5 L 144.3,246.7" style="fill:none;fill-rule:evenodd;stroke:#000000;stroke-width:2.0px;stroke-linecap:butt;stroke-linejoin:miter;stroke-opacity:1"/>
<path class="bond-36 atom-22 atom-23" d="M 144.3,246.7 L 145.7,255.0" style="fill:none;fill-rule:evenodd;stroke:#33CCCC;stroke-width:2.0px;stroke-linecap:butt;stroke-linejoin:miter;stroke-opacity:1"/>
<path class="bond-37 atom-22 atom-24" d="M 142.9,238.5 L 133.6,239.9" style="fill:none;fill-rule:evenodd;stroke:#000000;stroke-width:2.0px;stroke-linecap:butt;stroke-linejoin:miter;stroke-opacity:1"/>
<path class="bond-37 atom-22 atom-24" d="M 133.6,239.9 L 124.2,241.4" style="fill:none;fill-rule:evenodd;stroke:#33CCCC;stroke-width:2.0px;stroke-linecap:butt;stroke-linejoin:miter;stroke-opacity:1"/>
<path class="bond-38 atom-22 atom-36" d="M 142.9,238.5 L 159.5,244.5" style="fill:none;fill-rule:evenodd;stroke:#000000;stroke-width:2.0px;stroke-linecap:butt;stroke-linejoin:miter;stroke-opacity:1"/>
<path class="atom-0" d="M 93.6 183.0 Q 93.6 180.7, 94.8 179.4 Q 95.9 178.1, 98.1 178.1 Q 100.2 178.1, 101.3 179.4 Q 102.5 180.7, 102.5 183.0 Q 102.5 185.4, 101.3 186.7 Q 100.2 188.0, 98.1 188.0 Q 95.9 188.0, 94.8 186.7 Q 93.6 185.4, 93.6 183.0 M 98.1 186.9 Q 99.5 186.9, 100.3 185.9 Q 101.1 185.0, 101.1 183.0 Q 101.1 181.1, 100.3 180.2 Q 99.5 179.2, 98.1 179.2 Q 96.6 179.2, 95.8 180.2 Q 95.0 181.1, 95.0 183.0 Q 95.0 185.0, 95.8 185.9 Q 96.6 186.9, 98.1 186.9 " fill="#FF0000"/>
<path class="atom-10" d="M 175.4 124.4 Q 175.4 122.1, 176.5 120.8 Q 177.6 119.5, 179.8 119.5 Q 181.9 119.5, 183.0 120.8 Q 184.2 122.1, 184.2 124.4 Q 184.2 126.7, 183.0 128.0 Q 181.9 129.3, 179.8 129.3 Q 177.7 129.3, 176.5 128.0 Q 175.4 126.7, 175.4 124.4 M 179.8 128.3 Q 181.2 128.3, 182.0 127.3 Q 182.8 126.3, 182.8 124.4 Q 182.8 122.5, 182.0 121.5 Q 181.2 120.6, 179.8 120.6 Q 178.3 120.6, 177.5 121.5 Q 176.7 122.5, 176.7 124.4 Q 176.7 126.3, 177.5 127.3 Q 178.3 128.3, 179.8 128.3 " fill="#FF0000"/>
<path class="atom-14" d="M 165.8 34.7 L 171.5 34.7 L 171.5 35.8 L 167.1 35.8 L 167.1 38.7 L 171.0 38.7 L 171.0 39.8 L 167.1 39.8 L 167.1 44.3 L 165.8 44.3 L 165.8 34.7 " fill="#33CCCC"/>
<path class="atom-17" d="M 96.0 85.1 Q 96.0 82.7, 97.1 81.5 Q 98.3 80.2, 100.4 80.2 Q 102.4 80.2, 103.4 81.6 L 102.5 82.4 Q 101.8 81.3, 100.4 81.3 Q 98.9 81.3, 98.2 82.3 Q 97.4 83.3, 97.4 85.1 Q 97.4 87.0, 98.2 88.0 Q 99.0 89.0, 100.5 89.0 Q 101.6 89.0, 102.8 88.3 L 103.2 89.4 Q 102.7 89.7, 102.0 89.9 Q 101.2 90.1, 100.4 90.1 Q 98.3 90.1, 97.1 88.8 Q 96.0 87.5, 96.0 85.1 " fill="#00CC00"/>
<path class="atom-17" d="M 104.0 79.6 L 105.2 79.6 L 105.2 89.9 L 104.0 89.9 L 104.0 79.6 " fill="#00CC00"/>
<path class="atom-19" d="M 147.8 221.4 Q 147.9 221.4, 148.4 221.6 Q 148.8 221.8, 149.3 221.9 Q 149.8 222.1, 150.3 222.1 Q 151.2 222.1, 151.7 221.6 Q 152.3 221.2, 152.3 220.4 Q 152.3 219.9, 152.0 219.5 Q 151.7 219.2, 151.3 219.0 Q 150.9 218.9, 150.2 218.7 Q 149.4 218.4, 148.9 218.2 Q 148.4 217.9, 148.0 217.4 Q 147.6 216.9, 147.6 216.0 Q 147.6 214.8, 148.5 214.1 Q 149.3 213.3, 150.9 213.3 Q 152.0 213.3, 153.3 213.8 L 153.0 214.9 Q 151.8 214.4, 150.9 214.4 Q 150.0 214.4, 149.5 214.8 Q 149.0 215.2, 149.0 215.8 Q 149.0 216.4, 149.3 216.7 Q 149.5 217.0, 149.9 217.2 Q 150.3 217.3, 150.9 217.5 Q 151.8 217.8, 152.3 218.1 Q 152.8 218.4, 153.2 218.9 Q 153.6 219.5, 153.6 220.4 Q 153.6 221.7, 152.7 222.4 Q 151.8 223.1, 150.3 223.1 Q 149.5 223.1, 148.8 223.0 Q 148.2 222.8, 147.4 222.5 L 147.8 221.4 " fill="#CCCC00"/>
<path class="atom-20" d="M 126.6 211.5 Q 126.6 209.2, 127.8 207.9 Q 128.9 206.6, 131.1 206.6 Q 133.2 206.6, 134.3 207.9 Q 135.5 209.2, 135.5 211.5 Q 135.5 213.8, 134.3 215.1 Q 133.2 216.4, 131.1 216.4 Q 128.9 216.4, 127.8 215.1 Q 126.6 213.8, 126.6 211.5 M 131.1 215.4 Q 132.5 215.4, 133.3 214.4 Q 134.1 213.4, 134.1 211.5 Q 134.1 209.6, 133.3 208.6 Q 132.5 207.7, 131.1 207.7 Q 129.6 207.7, 128.8 208.6 Q 128.0 209.6, 128.0 211.5 Q 128.0 213.4, 128.8 214.4 Q 129.6 215.4, 131.1 215.4 " fill="#FF0000"/>
<path class="atom-21" d="M 167.4 225.4 Q 167.4 223.1, 168.6 221.8 Q 169.7 220.5, 171.8 220.5 Q 174.0 220.5, 175.1 221.8 Q 176.2 223.1, 176.2 225.4 Q 176.2 227.7, 175.1 229.1 Q 173.9 230.4, 171.8 230.4 Q 169.7 230.4, 168.6 229.1 Q 167.4 227.8, 167.4 225.4 M 171.8 229.3 Q 173.3 229.3, 174.1 228.3 Q 174.9 227.3, 174.9 225.4 Q 174.9 223.5, 174.1 222.6 Q 173.3 221.6, 171.8 221.6 Q 170.4 221.6, 169.6 222.6 Q 168.8 223.5, 168.8 225.4 Q 168.8 227.3, 169.6 228.3 Q 170.4 229.3, 171.8 229.3 " fill="#FF0000"/>
<path class="atom-23" d="M 143.7 255.7 L 149.5 255.7 L 149.5 256.8 L 145.0 256.8 L 145.0 259.7 L 149.0 259.7 L 149.0 260.8 L 145.0 260.8 L 145.0 265.3 L 143.7 265.3 L 143.7 255.7 " fill="#33CCCC"/>
<path class="atom-24" d="M 117.7 237.2 L 123.4 237.2 L 123.4 238.3 L 119.0 238.3 L 119.0 241.2 L 122.9 241.2 L 122.9 242.3 L 119.0 242.3 L 119.0 246.8 L 117.7 246.8 L 117.7 237.2 " fill="#33CCCC"/>
<path class="atom-25" d="M 87.3 199.6 L 88.6 199.6 L 88.6 203.7 L 93.5 203.7 L 93.5 199.6 L 94.8 199.6 L 94.8 209.2 L 93.5 209.2 L 93.5 204.8 L 88.6 204.8 L 88.6 209.2 L 87.3 209.2 L 87.3 199.6 " fill="#000000"/>
<path class="atom-26" d="M 117.3 191.6 L 118.6 191.6 L 118.6 195.7 L 123.5 195.7 L 123.5 191.6 L 124.8 191.6 L 124.8 201.3 L 123.5 201.3 L 123.5 196.8 L 118.6 196.8 L 118.6 201.3 L 117.3 201.3 L 117.3 191.6 " fill="#000000"/>
<path class="atom-27" d="M 97.6 133.2 L 98.9 133.2 L 98.9 137.2 L 103.8 137.2 L 103.8 133.2 L 105.1 133.2 L 105.1 142.8 L 103.8 142.8 L 103.8 138.3 L 98.9 138.3 L 98.9 142.8 L 97.6 142.8 L 97.6 133.2 " fill="#000000"/>
<path class="atom-28" d="M 88.6 161.0 L 89.9 161.0 L 89.9 165.1 L 94.8 165.1 L 94.8 161.0 L 96.1 161.0 L 96.1 170.7 L 94.8 170.7 L 94.8 166.2 L 89.9 166.2 L 89.9 170.7 L 88.6 170.7 L 88.6 161.0 " fill="#000000"/>
<path class="atom-29" d="M 144.0 123.0 L 145.3 123.0 L 145.3 127.0 L 150.2 127.0 L 150.2 123.0 L 151.5 123.0 L 151.5 132.6 L 150.2 132.6 L 150.2 128.1 L 145.3 128.1 L 145.3 132.6 L 144.0 132.6 L 144.0 123.0 " fill="#000000"/>
<path class="atom-30" d="M 112.5 122.9 L 113.8 122.9 L 113.8 127.0 L 118.7 127.0 L 118.7 122.9 L 120.0 122.9 L 120.0 132.5 L 118.7 132.5 L 118.7 128.1 L 113.8 128.1 L 113.8 132.5 L 112.5 132.5 L 112.5 122.9 " fill="#000000"/>
<path class="atom-31" d="M 190.7 203.9 L 192.0 203.9 L 192.0 208.0 L 196.9 208.0 L 196.9 203.9 L 198.2 203.9 L 198.2 213.5 L 196.9 213.5 L 196.9 209.0 L 192.0 209.0 L 192.0 213.5 L 190.7 213.5 L 190.7 203.9 " fill="#000000"/>
<path class="atom-32" d="M 205.2 161.0 L 206.5 161.0 L 206.5 165.1 L 211.4 165.1 L 211.4 161.0 L 212.7 161.0 L 212.7 170.6 L 211.4 170.6 L 211.4 166.2 L 206.5 166.2 L 206.5 170.6 L 205.2 170.6 L 205.2 161.0 " fill="#000000"/>
<path class="atom-33" d="M 191.1 71.6 L 192.4 71.6 L 192.4 75.7 L 197.3 75.7 L 197.3 71.6 L 198.6 71.6 L 198.6 81.2 L 197.3 81.2 L 197.3 76.8 L 192.4 76.8 L 192.4 81.2 L 191.1 81.2 L 191.1 71.6 " fill="#000000"/>
<path class="atom-34" d="M 119.8 38.9 L 121.1 38.9 L 121.1 43.0 L 126.0 43.0 L 126.0 38.9 L 127.3 38.9 L 127.3 48.5 L 126.0 48.5 L 126.0 44.1 L 121.1 44.1 L 121.1 48.5 L 119.8 48.5 L 119.8 38.9 " fill="#000000"/>
<path class="atom-35" d="M 128.3 113.2 L 129.6 113.2 L 129.6 117.3 L 134.5 117.3 L 134.5 113.2 L 135.8 113.2 L 135.8 122.8 L 134.5 122.8 L 134.5 118.4 L 129.6 118.4 L 129.6 122.8 L 128.3 122.8 L 128.3 113.2 " fill="#000000"/>
<path class="atom-36" d="M 160.3 241.4 L 161.6 241.4 L 161.6 245.4 L 166.5 245.4 L 166.5 241.4 L 167.8 241.4 L 167.8 251.0 L 166.5 251.0 L 166.5 246.5 L 161.6 246.5 L 161.6 251.0 L 160.3 251.0 L 160.3 241.4 " fill="#000000"/>
<ellipse cx="408.9" cy="86.1" rx="7.5" ry="7.5" class="atom-17" style="fill:#3D79AB;fill-rule:evenodd;stroke:#3D79AB;stroke-width:1.0px;stroke-linecap:butt;stroke-linejoin:miter;stroke-opacity:1"/>
<ellipse cx="405.6" cy="137.9" rx="7.5" ry="7.5" class="atom-25" style="fill:#DC3369;fill-rule:evenodd;stroke:#DC3369;stroke-width:1.0px;stroke-linecap:butt;stroke-linejoin:miter;stroke-opacity:1"/>
<ellipse cx="396.5" cy="165.8" rx="7.5" ry="7.5" class="atom-26" style="fill:#DC3369;fill-rule:evenodd;stroke:#DC3369;stroke-width:1.0px;stroke-linecap:butt;stroke-linejoin:miter;stroke-opacity:1"/>
<ellipse cx="386.7" cy="90.1" rx="7.5" ry="7.5" class="atom-27" style="fill:#DC3369;fill-rule:evenodd;stroke:#DC3369;stroke-width:1.0px;stroke-linecap:butt;stroke-linejoin:miter;stroke-opacity:1"/>
<ellipse cx="395.2" cy="204.4" rx="7.5" ry="7.5" class="atom-28" style="fill:#DC3369;fill-rule:evenodd;stroke:#DC3369;stroke-width:1.0px;stroke-linecap:butt;stroke-linejoin:miter;stroke-opacity:1"/>
<path class="bond-0 atom-0 atom-1" d="M 407.4,181.9 L 415.8,180.2" style="fill:none;fill-rule:evenodd;stroke:#FF0000;stroke-width:2.0px;stroke-linecap:butt;stroke-linejoin:miter;stroke-opacity:1"/>
<path class="bond-0 atom-0 atom-1" d="M 415.8,180.2 L 424.1,178.6" style="fill:none;fill-rule:evenodd;stroke:#000000;stroke-width:2.0px;stroke-linecap:butt;stroke-linejoin:miter;stroke-opacity:1"/>
<path class="bond-1 atom-0 atom-28" d="M 400.4,188.7 L 398.7,193.8" style="fill:none;fill-rule:evenodd;stroke:#FF0000;stroke-width:2.0px;stroke-linecap:butt;stroke-linejoin:miter;stroke-opacity:1"/>
<path class="bond-1 atom-0 atom-28" d="M 398.7,193.8 L 397.1,198.8" style="fill:none;fill-rule:evenodd;stroke:#000000;stroke-width:2.0px;stroke-linecap:butt;stroke-linejoin:miter;stroke-opacity:1"/>
<path class="bond-2 atom-1 atom-2" d="M 424.1,178.6 L 417.6,156.9" style="fill:none;fill-rule:evenodd;stroke:#000000;stroke-width:2.0px;stroke-linecap:butt;stroke-linejoin:miter;stroke-opacity:1"/>
<path class="bond-3 atom-1 atom-5" d="M 424.1,178.6 L 446.7,179.0" style="fill:none;fill-rule:evenodd;stroke:#000000;stroke-width:2.0px;stroke-linecap:butt;stroke-linejoin:miter;stroke-opacity:1"/>
<path class="bond-4 atom-1 atom-29" d="M 424.1,178.6 L 427.1,189.9 L 422.6,190.2 Z" style="fill:#000000;fill-rule:evenodd;fill-opacity:1;stroke:#000000;stroke-width:1.0px;stroke-linecap:butt;stroke-linejoin:miter;stroke-opacity:1;"/>
<path class="bond-5 atom-2 atom-3" d="M 417.6,156.9 L 436.1,144.0" style="fill:none;fill-rule:evenodd;stroke:#000000;stroke-width:2.0px;stroke-linecap:butt;stroke-linejoin:miter;stroke-opacity:1"/>
<path class="bond-6 atom-2 atom-25" d="M 417.6,156.9 L 413.3,150.2" style="fill:none;fill-rule:evenodd;stroke:#000000;stroke-width:2.0px;stroke-linecap:butt;stroke-linejoin:miter;stroke-opacity:1"/>
<path class="bond-6 atom-2 atom-25" d="M 413.3,150.2 L 409.1,143.4" style="fill:none;fill-rule:evenodd;stroke:#33CCCC;stroke-width:2.0px;stroke-linecap:butt;stroke-linejoin:miter;stroke-opacity:1"/>
<path class="bond-7 atom-2 atom-26" d="M 417.6,156.9 L 408.8,160.6" style="fill:none;fill-rule:evenodd;stroke:#000000;stroke-width:2.0px;stroke-linecap:butt;stroke-linejoin:miter;stroke-opacity:1"/>
<path class="bond-7 atom-2 atom-26" d="M 408.8,160.6 L 400.1,164.3" style="fill:none;fill-rule:evenodd;stroke:#33CCCC;stroke-width:2.0px;stroke-linecap:butt;stroke-linejoin:miter;stroke-opacity:1"/>
<path class="bond-8 atom-3 atom-4" d="M 436.1,144.0 L 454.1,157.6" style="fill:none;fill-rule:evenodd;stroke:#000000;stroke-width:2.0px;stroke-linecap:butt;stroke-linejoin:miter;stroke-opacity:1"/>
<path class="bond-9 atom-3 atom-30" d="M 436.1,144.0 L 447.5,132.4" style="fill:none;fill-rule:evenodd;stroke:#000000;stroke-width:2.0px;stroke-linecap:butt;stroke-linejoin:miter;stroke-opacity:1"/>
<path class="bond-10 atom-3 atom-31" d="M 436.1,144.0 L 425.0,132.4" style="fill:none;fill-rule:evenodd;stroke:#000000;stroke-width:2.0px;stroke-linecap:butt;stroke-linejoin:miter;stroke-opacity:1"/>
<path class="bond-11 atom-4 atom-5" d="M 454.1,157.6 L 446.7,179.0" style="fill:none;fill-rule:evenodd;stroke:#000000;stroke-width:2.0px;stroke-linecap:butt;stroke-linejoin:miter;stroke-opacity:1"/>
<path class="bond-11 atom-4 atom-5" d="M 456.9,162.1 L 451.7,177.1" style="fill:none;fill-rule:evenodd;stroke:#000000;stroke-width:2.0px;stroke-linecap:butt;stroke-linejoin:miter;stroke-opacity:1"/>
<path class="bond-12 atom-4 atom-9" d="M 454.1,157.6 L 476.1,153.2" style="fill:none;fill-rule:evenodd;stroke:#000000;stroke-width:2.0px;stroke-linecap:butt;stroke-linejoin:miter;stroke-opacity:1"/>
<path class="bond-13 atom-5 atom-6" d="M 446.7,179.0 L 461.6,196.1" style="fill:none;fill-rule:evenodd;stroke:#000000;stroke-width:2.0px;stroke-linecap:butt;stroke-linejoin:miter;stroke-opacity:1"/>
<path class="bond-14 atom-6 atom-7" d="M 461.6,196.1 L 483.7,191.6" style="fill:none;fill-rule:evenodd;stroke:#000000;stroke-width:2.0px;stroke-linecap:butt;stroke-linejoin:miter;stroke-opacity:1"/>
<path class="bond-14 atom-6 atom-7" d="M 464.1,191.4 L 479.6,188.3" style="fill:none;fill-rule:evenodd;stroke:#000000;stroke-width:2.0px;stroke-linecap:butt;stroke-linejoin:miter;stroke-opacity:1"/>
<path class="bond-15 atom-6 atom-19" d="M 461.6,196.1 L 459.0,204.3" style="fill:none;fill-rule:evenodd;stroke:#000000;stroke-width:2.0px;stroke-linecap:butt;stroke-linejoin:miter;stroke-opacity:1"/>
<path class="bond-15 atom-6 atom-19" d="M 459.0,204.3 L 456.4,212.6" style="fill:none;fill-rule:evenodd;stroke:#CCCC00;stroke-width:2.0px;stroke-linecap:butt;stroke-linejoin:miter;stroke-opacity:1"/>
<path class="bond-16 atom-7 atom-8" d="M 483.7,191.6 L 491.0,170.2" style="fill:none;fill-rule:evenodd;stroke:#000000;stroke-width:2.0px;stroke-linecap:butt;stroke-linejoin:miter;stroke-opacity:1"/>
<path class="bond-17 atom-7 atom-32" d="M 483.7,191.6 L 494.1,203.5" style="fill:none;fill-rule:evenodd;stroke:#000000;stroke-width:2.0px;stroke-linecap:butt;stroke-linejoin:miter;stroke-opacity:1"/>
<path class="bond-18 atom-8 atom-9" d="M 491.0,170.2 L 476.1,153.2" style="fill:none;fill-rule:evenodd;stroke:#000000;stroke-width:2.0px;stroke-linecap:butt;stroke-linejoin:miter;stroke-opacity:1"/>
<path class="bond-18 atom-8 atom-9" d="M 485.7,170.3 L 475.3,158.4" style="fill:none;fill-rule:evenodd;stroke:#000000;stroke-width:2.0px;stroke-linecap:butt;stroke-linejoin:miter;stroke-opacity:1"/>
<path class="bond-19 atom-8 atom-33" d="M 491.0,170.2 L 508.7,166.7" style="fill:none;fill-rule:evenodd;stroke:#000000;stroke-width:2.0px;stroke-linecap:butt;stroke-linejoin:miter;stroke-opacity:1"/>
<path class="bond-20 atom-9 atom-10" d="M 476.1,153.2 L 479.3,141.6" style="fill:none;fill-rule:evenodd;stroke:#000000;stroke-width:2.0px;stroke-linecap:butt;stroke-linejoin:miter;stroke-opacity:1"/>
<path class="bond-20 atom-9 atom-10" d="M 479.3,141.6 L 482.4,130.0" style="fill:none;fill-rule:evenodd;stroke:#FF0000;stroke-width:2.0px;stroke-linecap:butt;stroke-linejoin:miter;stroke-opacity:1"/>
<path class="bond-21 atom-10 atom-11" d="M 480.2,118.7 L 473.6,108.9" style="fill:none;fill-rule:evenodd;stroke:#FF0000;stroke-width:2.0px;stroke-linecap:butt;stroke-linejoin:miter;stroke-opacity:1"/>
<path class="bond-21 atom-10 atom-11" d="M 473.6,108.9 L 466.9,99.1" style="fill:none;fill-rule:evenodd;stroke:#000000;stroke-width:2.0px;stroke-linecap:butt;stroke-linejoin:miter;stroke-opacity:1"/>
<path class="bond-22 atom-11 atom-12" d="M 466.9,99.1 L 476.4,78.5" style="fill:none;fill-rule:evenodd;stroke:#000000;stroke-width:2.0px;stroke-linecap:butt;stroke-linejoin:miter;stroke-opacity:1"/>
<path class="bond-22 atom-11 atom-12" d="M 464.6,94.3 L 471.3,79.8" style="fill:none;fill-rule:evenodd;stroke:#000000;stroke-width:2.0px;stroke-linecap:butt;stroke-linejoin:miter;stroke-opacity:1"/>
<path class="bond-23 atom-11 atom-18" d="M 466.9,99.1 L 444.4,101.3" style="fill:none;fill-rule:evenodd;stroke:#000000;stroke-width:2.0px;stroke-linecap:butt;stroke-linejoin:miter;stroke-opacity:1"/>
<path class="bond-24 atom-12 atom-13" d="M 476.4,78.5 L 463.2,60.1" style="fill:none;fill-rule:evenodd;stroke:#000000;stroke-width:2.0px;stroke-linecap:butt;stroke-linejoin:miter;stroke-opacity:1"/>
<path class="bond-25 atom-12 atom-34" d="M 476.4,78.5 L 494.4,76.7" style="fill:none;fill-rule:evenodd;stroke:#000000;stroke-width:2.0px;stroke-linecap:butt;stroke-linejoin:miter;stroke-opacity:1"/>
<path class="bond-26 atom-13 atom-14" d="M 463.2,60.1 L 466.6,52.5" style="fill:none;fill-rule:evenodd;stroke:#000000;stroke-width:2.0px;stroke-linecap:butt;stroke-linejoin:miter;stroke-opacity:1"/>
<path class="bond-26 atom-13 atom-14" d="M 466.6,52.5 L 470.0,45.0" style="fill:none;fill-rule:evenodd;stroke:#33CCCC;stroke-width:2.0px;stroke-linecap:butt;stroke-linejoin:miter;stroke-opacity:1"/>
<path class="bond-27 atom-13 atom-15" d="M 463.2,60.1 L 440.6,62.2" style="fill:none;fill-rule:evenodd;stroke:#000000;stroke-width:2.0px;stroke-linecap:butt;stroke-linejoin:miter;stroke-opacity:1"/>
<path class="bond-27 atom-13 atom-15" d="M 460.2,64.4 L 444.4,66.0" style="fill:none;fill-rule:evenodd;stroke:#000000;stroke-width:2.0px;stroke-linecap:butt;stroke-linejoin:miter;stroke-opacity:1"/>
<path class="bond-28 atom-15 atom-16" d="M 440.6,62.2 L 431.3,82.9" style="fill:none;fill-rule:evenodd;stroke:#000000;stroke-width:2.0px;stroke-linecap:butt;stroke-linejoin:miter;stroke-opacity:1"/>
<path class="bond-29 atom-15 atom-35" d="M 440.6,62.2 L 431.4,49.5" style="fill:none;fill-rule:evenodd;stroke:#000000;stroke-width:2.0px;stroke-linecap:butt;stroke-linejoin:miter;stroke-opacity:1"/>
<path class="bond-30 atom-16 atom-17" d="M 431.3,82.9 L 408.9,86.1" style="fill:none;fill-rule:evenodd;stroke:#000000;stroke-width:2.0px;stroke-linecap:butt;stroke-linejoin:miter;stroke-opacity:1"/>
<path class="bond-31 atom-16 atom-18" d="M 431.3,82.9 L 444.4,101.3" style="fill:none;fill-rule:evenodd;stroke:#000000;stroke-width:2.0px;stroke-linecap:butt;stroke-linejoin:miter;stroke-opacity:1"/>
<path class="bond-31 atom-16 atom-18" d="M 436.5,83.3 L 445.7,96.1" style="fill:none;fill-rule:evenodd;stroke:#000000;stroke-width:2.0px;stroke-linecap:butt;stroke-linejoin:miter;stroke-opacity:1"/>
<path class="bond-32 atom-17 atom-27" d="M 408.9,86.1 L 400.0,87.7" style="fill:none;fill-rule:evenodd;stroke:#000000;stroke-width:2.0px;stroke-linecap:butt;stroke-linejoin:miter;stroke-opacity:1"/>
<path class="bond-32 atom-17 atom-27" d="M 400.0,87.7 L 391.1,89.3" style="fill:none;fill-rule:evenodd;stroke:#0000FF;stroke-width:2.0px;stroke-linecap:butt;stroke-linejoin:miter;stroke-opacity:1"/>
<path class="bond-32 atom-17 atom-27" d="M 407.0,90.5 L 399.4,91.9" style="fill:none;fill-rule:evenodd;stroke:#000000;stroke-width:2.0px;stroke-linecap:butt;stroke-linejoin:miter;stroke-opacity:1"/>
<path class="bond-32 atom-17 atom-27" d="M 399.4,91.9 L 391.8,93.3" style="fill:none;fill-rule:evenodd;stroke:#0000FF;stroke-width:2.0px;stroke-linecap:butt;stroke-linejoin:miter;stroke-opacity:1"/>
<path class="bond-32 atom-17 atom-27" d="M 405.5,82.5 L 398.0,83.9" style="fill:none;fill-rule:evenodd;stroke:#000000;stroke-width:2.0px;stroke-linecap:butt;stroke-linejoin:miter;stroke-opacity:1"/>
<path class="bond-32 atom-17 atom-27" d="M 398.0,83.9 L 390.4,85.3" style="fill:none;fill-rule:evenodd;stroke:#0000FF;stroke-width:2.0px;stroke-linecap:butt;stroke-linejoin:miter;stroke-opacity:1"/>
<path class="bond-33 atom-18 atom-36" d="M 444.4,101.3 L 439.0,112.5" style="fill:none;fill-rule:evenodd;stroke:#000000;stroke-width:2.0px;stroke-linecap:butt;stroke-linejoin:miter;stroke-opacity:1"/>
<path class="bond-34 atom-19 atom-20" d="M 450.2,218.8 L 444.9,217.0" style="fill:none;fill-rule:evenodd;stroke:#CCCC00;stroke-width:2.0px;stroke-linecap:butt;stroke-linejoin:miter;stroke-opacity:1"/>
<path class="bond-34 atom-19 atom-20" d="M 444.9,217.0 L 439.7,215.2" style="fill:none;fill-rule:evenodd;stroke:#FF0000;stroke-width:2.0px;stroke-linecap:butt;stroke-linejoin:miter;stroke-opacity:1"/>
<path class="bond-34 atom-19 atom-20" d="M 451.5,214.9 L 446.3,213.1" style="fill:none;fill-rule:evenodd;stroke:#CCCC00;stroke-width:2.0px;stroke-linecap:butt;stroke-linejoin:miter;stroke-opacity:1"/>
<path class="bond-34 atom-19 atom-20" d="M 446.3,213.1 L 441.0,211.3" style="fill:none;fill-rule:evenodd;stroke:#FF0000;stroke-width:2.0px;stroke-linecap:butt;stroke-linejoin:miter;stroke-opacity:1"/>
<path class="bond-35 atom-19 atom-21" d="M 459.1,217.5 L 465.3,219.6" style="fill:none;fill-rule:evenodd;stroke:#CCCC00;stroke-width:2.0px;stroke-linecap:butt;stroke-linejoin:miter;stroke-opacity:1"/>
<path class="bond-35 atom-19 atom-21" d="M 465.3,219.6 L 471.5,221.7" style="fill:none;fill-rule:evenodd;stroke:#FF0000;stroke-width:2.0px;stroke-linecap:butt;stroke-linejoin:miter;stroke-opacity:1"/>
<path class="bond-35 atom-19 atom-21" d="M 457.8,221.4 L 464.0,223.5" style="fill:none;fill-rule:evenodd;stroke:#CCCC00;stroke-width:2.0px;stroke-linecap:butt;stroke-linejoin:miter;stroke-opacity:1"/>
<path class="bond-35 atom-19 atom-21" d="M 464.0,223.5 L 470.2,225.6" style="fill:none;fill-rule:evenodd;stroke:#FF0000;stroke-width:2.0px;stroke-linecap:butt;stroke-linejoin:miter;stroke-opacity:1"/>
<path class="bond-36 atom-19 atom-22" d="M 452.5,224.0 L 449.8,231.2" style="fill:none;fill-rule:evenodd;stroke:#CCCC00;stroke-width:2.0px;stroke-linecap:butt;stroke-linejoin:miter;stroke-opacity:1"/>
<path class="bond-36 atom-19 atom-22" d="M 449.8,231.2 L 447.1,238.5" style="fill:none;fill-rule:evenodd;stroke:#000000;stroke-width:2.0px;stroke-linecap:butt;stroke-linejoin:miter;stroke-opacity:1"/>
<path class="bond-37 atom-22 atom-23" d="M 447.1,238.5 L 448.4,246.8" style="fill:none;fill-rule:evenodd;stroke:#000000;stroke-width:2.0px;stroke-linecap:butt;stroke-linejoin:miter;stroke-opacity:1"/>
<path class="bond-37 atom-22 atom-23" d="M 448.4,246.8 L 449.8,255.0" style="fill:none;fill-rule:evenodd;stroke:#33CCCC;stroke-width:2.0px;stroke-linecap:butt;stroke-linejoin:miter;stroke-opacity:1"/>
<path class="bond-38 atom-22 atom-24" d="M 447.1,238.5 L 437.7,240.0" style="fill:none;fill-rule:evenodd;stroke:#000000;stroke-width:2.0px;stroke-linecap:butt;stroke-linejoin:miter;stroke-opacity:1"/>
<path class="bond-38 atom-22 atom-24" d="M 437.7,240.0 L 428.3,241.5" style="fill:none;fill-rule:evenodd;stroke:#33CCCC;stroke-width:2.0px;stroke-linecap:butt;stroke-linejoin:miter;stroke-opacity:1"/>
<path class="bond-39 atom-22 atom-37" d="M 447.1,238.5 L 463.7,244.6" style="fill:none;fill-rule:evenodd;stroke:#000000;stroke-width:2.0px;stroke-linecap:butt;stroke-linejoin:miter;stroke-opacity:1"/>
<path class="atom-0" d="M 397.8 183.0 Q 397.8 180.7, 399.0 179.4 Q 400.1 178.1, 402.3 178.1 Q 404.4 178.1, 405.5 179.4 Q 406.7 180.7, 406.7 183.0 Q 406.7 185.3, 405.5 186.7 Q 404.4 188.0, 402.3 188.0 Q 400.1 188.0, 399.0 186.7 Q 397.8 185.3, 397.8 183.0 M 402.3 186.9 Q 403.7 186.9, 404.5 185.9 Q 405.3 184.9, 405.3 183.0 Q 405.3 181.1, 404.5 180.2 Q 403.7 179.2, 402.3 179.2 Q 400.8 179.2, 400.0 180.1 Q 399.2 181.1, 399.2 183.0 Q 399.2 184.9, 400.0 185.9 Q 400.8 186.9, 402.3 186.9 " fill="#FF0000"/>
<path class="atom-10" d="M 479.6 124.3 Q 479.6 122.0, 480.7 120.7 Q 481.9 119.4, 484.0 119.4 Q 486.1 119.4, 487.3 120.7 Q 488.4 122.0, 488.4 124.3 Q 488.4 126.6, 487.3 128.0 Q 486.1 129.3, 484.0 129.3 Q 481.9 129.3, 480.7 128.0 Q 479.6 126.6, 479.6 124.3 M 484.0 128.2 Q 485.5 128.2, 486.3 127.2 Q 487.1 126.2, 487.1 124.3 Q 487.1 122.4, 486.3 121.5 Q 485.5 120.5, 484.0 120.5 Q 482.6 120.5, 481.8 121.4 Q 481.0 122.4, 481.0 124.3 Q 481.0 126.2, 481.8 127.2 Q 482.6 128.2, 484.0 128.2 " fill="#FF0000"/>
<path class="atom-14" d="M 469.7 34.6 L 475.4 34.6 L 475.4 35.7 L 470.9 35.7 L 470.9 38.6 L 474.9 38.6 L 474.9 39.7 L 470.9 39.7 L 470.9 44.2 L 469.7 44.2 L 469.7 34.6 " fill="#33CCCC"/>
<path class="atom-19" d="M 451.9 221.5 Q 452.0 221.5, 452.5 221.7 Q 452.9 221.9, 453.4 222.0 Q 453.9 222.1, 454.4 222.1 Q 455.3 222.1, 455.9 221.7 Q 456.4 221.2, 456.4 220.5 Q 456.4 219.9, 456.1 219.6 Q 455.9 219.3, 455.5 219.1 Q 455.0 218.9, 454.4 218.7 Q 453.5 218.5, 453.0 218.2 Q 452.5 218.0, 452.1 217.5 Q 451.8 216.9, 451.8 216.1 Q 451.8 214.9, 452.6 214.1 Q 453.4 213.4, 455.0 213.4 Q 456.2 213.4, 457.4 213.9 L 457.1 214.9 Q 456.0 214.5, 455.1 214.5 Q 454.1 214.5, 453.6 214.9 Q 453.1 215.2, 453.1 215.9 Q 453.1 216.4, 453.4 216.7 Q 453.7 217.1, 454.0 217.2 Q 454.4 217.4, 455.1 217.6 Q 456.0 217.9, 456.5 218.2 Q 457.0 218.4, 457.4 219.0 Q 457.7 219.5, 457.7 220.5 Q 457.7 221.8, 456.8 222.5 Q 456.0 223.2, 454.5 223.2 Q 453.6 223.2, 453.0 223.0 Q 452.3 222.8, 451.6 222.5 L 451.9 221.5 " fill="#CCCC00"/>
<path class="atom-20" d="M 430.8 211.5 Q 430.8 209.2, 431.9 207.9 Q 433.1 206.6, 435.2 206.6 Q 437.3 206.6, 438.5 207.9 Q 439.6 209.2, 439.6 211.5 Q 439.6 213.8, 438.5 215.1 Q 437.3 216.5, 435.2 216.5 Q 433.1 216.5, 431.9 215.1 Q 430.8 213.8, 430.8 211.5 M 435.2 215.4 Q 436.7 215.4, 437.4 214.4 Q 438.2 213.4, 438.2 211.5 Q 438.2 209.6, 437.4 208.6 Q 436.7 207.7, 435.2 207.7 Q 433.7 207.7, 432.9 208.6 Q 432.1 209.6, 432.1 211.5 Q 432.1 213.4, 432.9 214.4 Q 433.7 215.4, 435.2 215.4 " fill="#FF0000"/>
<path class="atom-21" d="M 471.6 225.4 Q 471.6 223.1, 472.7 221.8 Q 473.9 220.6, 476.0 220.6 Q 478.1 220.6, 479.3 221.8 Q 480.4 223.1, 480.4 225.4 Q 480.4 227.8, 479.2 229.1 Q 478.1 230.4, 476.0 230.4 Q 473.9 230.4, 472.7 229.1 Q 471.6 227.8, 471.6 225.4 M 476.0 229.3 Q 477.4 229.3, 478.2 228.4 Q 479.0 227.4, 479.0 225.4 Q 479.0 223.6, 478.2 222.6 Q 477.4 221.6, 476.0 221.6 Q 474.5 221.6, 473.7 222.6 Q 472.9 223.5, 472.9 225.4 Q 472.9 227.4, 473.7 228.4 Q 474.5 229.3, 476.0 229.3 " fill="#FF0000"/>
<path class="atom-23" d="M 447.9 255.8 L 453.6 255.8 L 453.6 256.9 L 449.2 256.9 L 449.2 259.8 L 453.1 259.8 L 453.1 260.9 L 449.2 260.9 L 449.2 265.4 L 447.9 265.4 L 447.9 255.8 " fill="#33CCCC"/>
<path class="atom-24" d="M 421.8 237.2 L 427.6 237.2 L 427.6 238.3 L 423.1 238.3 L 423.1 241.2 L 427.1 241.2 L 427.1 242.3 L 423.1 242.3 L 423.1 246.8 L 421.8 246.8 L 421.8 237.2 " fill="#33CCCC"/>
<path class="atom-25" d="M 402.8 133.1 L 408.5 133.1 L 408.5 134.2 L 404.1 134.2 L 404.1 137.1 L 408.0 137.1 L 408.0 138.2 L 404.1 138.2 L 404.1 142.7 L 402.8 142.7 L 402.8 133.1 " fill="#33CCCC"/>
<path class="atom-26" d="M 393.7 161.0 L 399.4 161.0 L 399.4 162.1 L 395.0 162.1 L 395.0 165.0 L 398.9 165.0 L 398.9 166.1 L 395.0 166.1 L 395.0 170.6 L 393.7 170.6 L 393.7 161.0 " fill="#33CCCC"/>
<path class="atom-27" d="M 384.6 85.3 L 387.7 90.4 Q 388.1 90.9, 388.6 91.8 Q 389.1 92.7, 389.1 92.8 L 389.1 85.3 L 390.4 85.3 L 390.4 94.9 L 389.0 94.9 L 385.7 89.3 Q 385.3 88.7, 384.8 87.9 Q 384.4 87.2, 384.3 87.0 L 384.3 94.9 L 383.1 94.9 L 383.1 85.3 L 384.6 85.3 " fill="#0000FF"/>
<path class="atom-28" d="M 391.5 199.6 L 392.8 199.6 L 392.8 203.7 L 397.7 203.7 L 397.7 199.6 L 399.0 199.6 L 399.0 209.2 L 397.7 209.2 L 397.7 204.7 L 392.8 204.7 L 392.8 209.2 L 391.5 209.2 L 391.5 199.6 " fill="#000000"/>
<path class="atom-29" d="M 421.5 191.5 L 422.8 191.5 L 422.8 195.6 L 427.7 195.6 L 427.7 191.5 L 429.0 191.5 L 429.0 201.1 L 427.7 201.1 L 427.7 196.7 L 422.8 196.7 L 422.8 201.1 L 421.5 201.1 L 421.5 191.5 " fill="#000000"/>
<path class="atom-30" d="M 448.2 123.0 L 449.5 123.0 L 449.5 127.1 L 454.4 127.1 L 454.4 123.0 L 455.7 123.0 L 455.7 132.6 L 454.4 132.6 L 454.4 128.2 L 449.5 128.2 L 449.5 132.6 L 448.2 132.6 L 448.2 123.0 " fill="#000000"/>
<path class="atom-31" d="M 416.8 122.9 L 418.1 122.9 L 418.1 126.9 L 423.0 126.9 L 423.0 122.9 L 424.3 122.9 L 424.3 132.5 L 423.0 132.5 L 423.0 128.0 L 418.1 128.0 L 418.1 132.5 L 416.8 132.5 L 416.8 122.9 " fill="#000000"/>
<path class="atom-32" d="M 494.9 203.8 L 496.2 203.8 L 496.2 207.9 L 501.1 207.9 L 501.1 203.8 L 502.4 203.8 L 502.4 213.5 L 501.1 213.5 L 501.1 209.0 L 496.2 209.0 L 496.2 213.5 L 494.9 213.5 L 494.9 203.8 " fill="#000000"/>
<path class="atom-33" d="M 509.4 161.0 L 510.7 161.0 L 510.7 165.1 L 515.6 165.1 L 515.6 161.0 L 516.9 161.0 L 516.9 170.6 L 515.6 170.6 L 515.6 166.2 L 510.7 166.2 L 510.7 170.6 L 509.4 170.6 L 509.4 161.0 " fill="#000000"/>
<path class="atom-34" d="M 495.1 71.4 L 496.4 71.4 L 496.4 75.5 L 501.4 75.5 L 501.4 71.4 L 502.7 71.4 L 502.7 81.0 L 501.4 81.0 L 501.4 76.6 L 496.4 76.6 L 496.4 81.0 L 495.1 81.0 L 495.1 71.4 " fill="#000000"/>
<path class="atom-35" d="M 423.7 39.1 L 425.0 39.1 L 425.0 43.2 L 429.9 43.2 L 429.9 39.1 L 431.2 39.1 L 431.2 48.7 L 429.9 48.7 L 429.9 44.3 L 425.0 44.3 L 425.0 48.7 L 423.7 48.7 L 423.7 39.1 " fill="#000000"/>
<path class="atom-36" d="M 432.6 113.2 L 433.9 113.2 L 433.9 117.3 L 438.8 117.3 L 438.8 113.2 L 440.1 113.2 L 440.1 122.8 L 438.8 122.8 L 438.8 118.4 L 433.9 118.4 L 433.9 122.8 L 432.6 122.8 L 432.6 113.2 " fill="#000000"/>
<path class="atom-37" d="M 464.4 241.4 L 465.7 241.4 L 465.7 245.5 L 470.6 245.5 L 470.6 241.4 L 471.9 241.4 L 471.9 251.0 L 470.6 251.0 L 470.6 246.6 L 465.7 246.6 L 465.7 251.0 L 464.4 251.0 L 464.4 241.4 " fill="#000000"/>
<text x="300" y="20" font-size="20" font-family="sans-serif" font-weight="normal" letter-spacing="0" text-anchor="middle" fill="black">hif2a 1 -&gt; 15 </text><text x="150" y="285" font-size="15" font-family="sans-serif" font-weight="normal" letter-spacing="0" text-anchor="middle" fill="black">1</text><text x="450" y="285" font-size="15" font-family="sans-serif" font-weight="normal" letter-spacing="0" text-anchor="middle" fill="black">15</text></svg>
