<?xml version='1.0' encoding='ASCII' standalone='yes'?>
<svg xmlns="http://www.w3.org/2000/svg" xmlns:rdkit="http://www.rdkit.org/xml" xmlns:xlink="http://www.w3.org/1999/xlink" version="1.1" baseProfile="full" xml:space="preserve" width="600px" height="300px" viewBox="0 0 600 300">
<!-- END OF HEADER -->
<rect style="opacity:1.0;fill:#FFFFFF;stroke:none" width="600.0" height="300.0" x="0.0" y="0.0"> </rect>
<path class="bond-0 atom-0 atom-1" d="M 204.3,141.5 L 214.1,158.5" style="fill:none;fill-rule:evenodd;stroke:#000000;stroke-width:2.0px;stroke-linecap:butt;stroke-linejoin:miter;stroke-opacity:1"/>
<path class="bond-0 atom-0 atom-1" d="M 209.1,142.1 L 216.1,154.0" style="fill:none;fill-rule:evenodd;stroke:#000000;stroke-width:2.0px;stroke-linecap:butt;stroke-linejoin:miter;stroke-opacity:1"/>
<path class="bond-1 atom-0 atom-5" d="M 204.3,141.5 L 214.0,124.5" style="fill:none;fill-rule:evenodd;stroke:#000000;stroke-width:2.0px;stroke-linecap:butt;stroke-linejoin:miter;stroke-opacity:1"/>
<path class="bond-2 atom-0 atom-6" d="M 204.3,141.5 L 184.6,141.6" style="fill:none;fill-rule:evenodd;stroke:#000000;stroke-width:2.0px;stroke-linecap:butt;stroke-linejoin:miter;stroke-opacity:1"/>
<path class="bond-3 atom-1 atom-2" d="M 214.1,158.5 L 233.8,158.4" style="fill:none;fill-rule:evenodd;stroke:#000000;stroke-width:2.0px;stroke-linecap:butt;stroke-linejoin:miter;stroke-opacity:1"/>
<path class="bond-4 atom-1 atom-13" d="M 214.1,158.5 L 212.1,163.3" style="fill:none;fill-rule:evenodd;stroke:#000000;stroke-width:2.0px;stroke-linecap:butt;stroke-linejoin:miter;stroke-opacity:1"/>
<path class="bond-4 atom-1 atom-13" d="M 212.1,163.3 L 210.1,168.0" style="fill:none;fill-rule:evenodd;stroke:#00CC00;stroke-width:2.0px;stroke-linecap:butt;stroke-linejoin:miter;stroke-opacity:1"/>
<path class="bond-5 atom-2 atom-3" d="M 233.8,158.4 L 243.6,141.4" style="fill:none;fill-rule:evenodd;stroke:#000000;stroke-width:2.0px;stroke-linecap:butt;stroke-linejoin:miter;stroke-opacity:1"/>
<path class="bond-5 atom-2 atom-3" d="M 231.8,153.9 L 238.7,142.0" style="fill:none;fill-rule:evenodd;stroke:#000000;stroke-width:2.0px;stroke-linecap:butt;stroke-linejoin:miter;stroke-opacity:1"/>
<path class="bond-6 atom-2 atom-12" d="M 233.8,158.4 L 237.8,165.3" style="fill:none;fill-rule:evenodd;stroke:#000000;stroke-width:2.0px;stroke-linecap:butt;stroke-linejoin:miter;stroke-opacity:1"/>
<path class="bond-6 atom-2 atom-12" d="M 237.8,165.3 L 241.8,172.1" style="fill:none;fill-rule:evenodd;stroke:#00CC00;stroke-width:2.0px;stroke-linecap:butt;stroke-linejoin:miter;stroke-opacity:1"/>
<path class="bond-7 atom-3 atom-4" d="M 243.6,141.4 L 233.7,124.4" style="fill:none;fill-rule:evenodd;stroke:#000000;stroke-width:2.0px;stroke-linecap:butt;stroke-linejoin:miter;stroke-opacity:1"/>
<path class="bond-8 atom-3 atom-22" d="M 243.6,141.4 L 260.4,141.3" style="fill:none;fill-rule:evenodd;stroke:#000000;stroke-width:2.0px;stroke-linecap:butt;stroke-linejoin:miter;stroke-opacity:1"/>
<path class="bond-9 atom-4 atom-5" d="M 233.7,124.4 L 214.0,124.5" style="fill:none;fill-rule:evenodd;stroke:#000000;stroke-width:2.0px;stroke-linecap:butt;stroke-linejoin:miter;stroke-opacity:1"/>
<path class="bond-9 atom-4 atom-5" d="M 230.7,128.3 L 217.0,128.4" style="fill:none;fill-rule:evenodd;stroke:#000000;stroke-width:2.0px;stroke-linecap:butt;stroke-linejoin:miter;stroke-opacity:1"/>
<path class="bond-10 atom-4 atom-23" d="M 233.7,124.4 L 241.5,110.7" style="fill:none;fill-rule:evenodd;stroke:#000000;stroke-width:2.0px;stroke-linecap:butt;stroke-linejoin:miter;stroke-opacity:1"/>
<path class="bond-11 atom-5 atom-24" d="M 214.0,124.5 L 206.1,110.9" style="fill:none;fill-rule:evenodd;stroke:#000000;stroke-width:2.0px;stroke-linecap:butt;stroke-linejoin:miter;stroke-opacity:1"/>
<path class="bond-12 atom-6 atom-7" d="M 184.6,141.6 L 180.7,134.8" style="fill:none;fill-rule:evenodd;stroke:#000000;stroke-width:2.0px;stroke-linecap:butt;stroke-linejoin:miter;stroke-opacity:1"/>
<path class="bond-12 atom-6 atom-7" d="M 180.7,134.8 L 176.7,128.0" style="fill:none;fill-rule:evenodd;stroke:#0000FF;stroke-width:2.0px;stroke-linecap:butt;stroke-linejoin:miter;stroke-opacity:1"/>
<path class="bond-12 atom-6 atom-7" d="M 180.0,141.5 L 177.3,136.8" style="fill:none;fill-rule:evenodd;stroke:#000000;stroke-width:2.0px;stroke-linecap:butt;stroke-linejoin:miter;stroke-opacity:1"/>
<path class="bond-12 atom-6 atom-7" d="M 177.3,136.8 L 174.5,132.0" style="fill:none;fill-rule:evenodd;stroke:#0000FF;stroke-width:2.0px;stroke-linecap:butt;stroke-linejoin:miter;stroke-opacity:1"/>
<path class="bond-13 atom-6 atom-11" d="M 184.6,141.6 L 174.8,158.6" style="fill:none;fill-rule:evenodd;stroke:#000000;stroke-width:2.0px;stroke-linecap:butt;stroke-linejoin:miter;stroke-opacity:1"/>
<path class="bond-14 atom-7 atom-8" d="M 172.0,124.6 L 163.5,124.6" style="fill:none;fill-rule:evenodd;stroke:#0000FF;stroke-width:2.0px;stroke-linecap:butt;stroke-linejoin:miter;stroke-opacity:1"/>
<path class="bond-14 atom-7 atom-8" d="M 163.5,124.6 L 155.1,124.7" style="fill:none;fill-rule:evenodd;stroke:#000000;stroke-width:2.0px;stroke-linecap:butt;stroke-linejoin:miter;stroke-opacity:1"/>
<path class="bond-15 atom-8 atom-9" d="M 155.1,124.7 L 145.3,141.7" style="fill:none;fill-rule:evenodd;stroke:#000000;stroke-width:2.0px;stroke-linecap:butt;stroke-linejoin:miter;stroke-opacity:1"/>
<path class="bond-15 atom-8 atom-9" d="M 157.0,129.2 L 150.2,141.1" style="fill:none;fill-rule:evenodd;stroke:#000000;stroke-width:2.0px;stroke-linecap:butt;stroke-linejoin:miter;stroke-opacity:1"/>
<path class="bond-16 atom-8 atom-25" d="M 155.1,124.7 L 147.2,111.1" style="fill:none;fill-rule:evenodd;stroke:#000000;stroke-width:2.0px;stroke-linecap:butt;stroke-linejoin:miter;stroke-opacity:1"/>
<path class="bond-17 atom-9 atom-10" d="M 145.3,141.7 L 149.3,148.5" style="fill:none;fill-rule:evenodd;stroke:#000000;stroke-width:2.0px;stroke-linecap:butt;stroke-linejoin:miter;stroke-opacity:1"/>
<path class="bond-17 atom-9 atom-10" d="M 149.3,148.5 L 153.2,155.3" style="fill:none;fill-rule:evenodd;stroke:#0000FF;stroke-width:2.0px;stroke-linecap:butt;stroke-linejoin:miter;stroke-opacity:1"/>
<path class="bond-18 atom-9 atom-15" d="M 145.3,141.7 L 136.8,141.8" style="fill:none;fill-rule:evenodd;stroke:#000000;stroke-width:2.0px;stroke-linecap:butt;stroke-linejoin:miter;stroke-opacity:1"/>
<path class="bond-18 atom-9 atom-15" d="M 136.8,141.8 L 128.4,141.8" style="fill:none;fill-rule:evenodd;stroke:#0000FF;stroke-width:2.0px;stroke-linecap:butt;stroke-linejoin:miter;stroke-opacity:1"/>
<path class="bond-19 atom-10 atom-11" d="M 157.9,158.7 L 166.4,158.7" style="fill:none;fill-rule:evenodd;stroke:#0000FF;stroke-width:2.0px;stroke-linecap:butt;stroke-linejoin:miter;stroke-opacity:1"/>
<path class="bond-19 atom-10 atom-11" d="M 166.4,158.7 L 174.8,158.6" style="fill:none;fill-rule:evenodd;stroke:#000000;stroke-width:2.0px;stroke-linecap:butt;stroke-linejoin:miter;stroke-opacity:1"/>
<path class="bond-19 atom-10 atom-11" d="M 160.4,154.8 L 166.4,154.7" style="fill:none;fill-rule:evenodd;stroke:#0000FF;stroke-width:2.0px;stroke-linecap:butt;stroke-linejoin:miter;stroke-opacity:1"/>
<path class="bond-19 atom-10 atom-11" d="M 166.4,154.7 L 172.3,154.7" style="fill:none;fill-rule:evenodd;stroke:#000000;stroke-width:2.0px;stroke-linecap:butt;stroke-linejoin:miter;stroke-opacity:1"/>
<path class="bond-20 atom-11 atom-14" d="M 174.8,158.6 L 178.8,165.4" style="fill:none;fill-rule:evenodd;stroke:#000000;stroke-width:2.0px;stroke-linecap:butt;stroke-linejoin:miter;stroke-opacity:1"/>
<path class="bond-20 atom-11 atom-14" d="M 178.8,165.4 L 182.7,172.2" style="fill:none;fill-rule:evenodd;stroke:#0000FF;stroke-width:2.0px;stroke-linecap:butt;stroke-linejoin:miter;stroke-opacity:1"/>
<path class="bond-21 atom-14 atom-26" d="M 187.5,175.9 L 191.1,176.4" style="fill:none;fill-rule:evenodd;stroke:#0000FF;stroke-width:2.0px;stroke-linecap:butt;stroke-linejoin:miter;stroke-opacity:1"/>
<path class="bond-21 atom-14 atom-26" d="M 191.1,176.4 L 194.7,176.8" style="fill:none;fill-rule:evenodd;stroke:#000000;stroke-width:2.0px;stroke-linecap:butt;stroke-linejoin:miter;stroke-opacity:1"/>
<path class="bond-22 atom-14 atom-27" d="M 182.8,179.0 L 179.8,184.1" style="fill:none;fill-rule:evenodd;stroke:#0000FF;stroke-width:2.0px;stroke-linecap:butt;stroke-linejoin:miter;stroke-opacity:1"/>
<path class="bond-22 atom-14 atom-27" d="M 179.8,184.1 L 176.9,189.3" style="fill:none;fill-rule:evenodd;stroke:#000000;stroke-width:2.0px;stroke-linecap:butt;stroke-linejoin:miter;stroke-opacity:1"/>
<path class="bond-23 atom-15 atom-16" d="M 123.2,145.2 L 118.7,151.5" style="fill:none;fill-rule:evenodd;stroke:#0000FF;stroke-width:2.0px;stroke-linecap:butt;stroke-linejoin:miter;stroke-opacity:1"/>
<path class="bond-23 atom-15 atom-16" d="M 118.7,151.5 L 114.2,157.7" style="fill:none;fill-rule:evenodd;stroke:#000000;stroke-width:2.0px;stroke-linecap:butt;stroke-linejoin:miter;stroke-opacity:1"/>
<path class="bond-24 atom-15 atom-19" d="M 123.2,138.4 L 118.6,132.2" style="fill:none;fill-rule:evenodd;stroke:#0000FF;stroke-width:2.0px;stroke-linecap:butt;stroke-linejoin:miter;stroke-opacity:1"/>
<path class="bond-24 atom-15 atom-19" d="M 118.6,132.2 L 114.0,125.9" style="fill:none;fill-rule:evenodd;stroke:#000000;stroke-width:2.0px;stroke-linecap:butt;stroke-linejoin:miter;stroke-opacity:1"/>
<path class="bond-25 atom-16 atom-17" d="M 114.2,157.7 L 95.4,151.7" style="fill:none;fill-rule:evenodd;stroke:#000000;stroke-width:2.0px;stroke-linecap:butt;stroke-linejoin:miter;stroke-opacity:1"/>
<path class="bond-26 atom-16 atom-28" d="M 114.2,157.7 L 128.4,165.9" style="fill:none;fill-rule:evenodd;stroke:#000000;stroke-width:2.0px;stroke-linecap:butt;stroke-linejoin:miter;stroke-opacity:1"/>
<path class="bond-27 atom-16 atom-29" d="M 114.2,157.7 L 107.7,172.3" style="fill:none;fill-rule:evenodd;stroke:#000000;stroke-width:2.0px;stroke-linecap:butt;stroke-linejoin:miter;stroke-opacity:1"/>
<path class="bond-28 atom-17 atom-18" d="M 95.4,151.7 L 95.4,132.1" style="fill:none;fill-rule:evenodd;stroke:#000000;stroke-width:2.0px;stroke-linecap:butt;stroke-linejoin:miter;stroke-opacity:1"/>
<path class="bond-29 atom-17 atom-20" d="M 95.4,151.7 L 75.9,149.7" style="fill:none;fill-rule:evenodd;stroke:#000000;stroke-width:2.0px;stroke-linecap:butt;stroke-linejoin:miter;stroke-opacity:1"/>
<path class="bond-30 atom-17 atom-30" d="M 95.4,151.7 L 94.1,167.3 L 90.4,166.6 Z" style="fill:#000000;fill-rule:evenodd;fill-opacity:1;stroke:#000000;stroke-width:1.0px;stroke-linecap:butt;stroke-linejoin:miter;stroke-opacity:1;"/>
<path class="bond-31 atom-18 atom-19" d="M 95.4,132.1 L 114.0,125.9" style="fill:none;fill-rule:evenodd;stroke:#000000;stroke-width:2.0px;stroke-linecap:butt;stroke-linejoin:miter;stroke-opacity:1"/>
<path class="bond-32 atom-18 atom-31" d="M 95.4,132.1 L 87.7,132.0" style="fill:none;fill-rule:evenodd;stroke:#000000;stroke-width:2.0px;stroke-linecap:butt;stroke-linejoin:miter;stroke-opacity:1"/>
<path class="bond-33 atom-18 atom-32" d="M 95.4,132.1 L 92.0,116.3" style="fill:none;fill-rule:evenodd;stroke:#000000;stroke-width:2.0px;stroke-linecap:butt;stroke-linejoin:miter;stroke-opacity:1"/>
<path class="bond-34 atom-19 atom-33" d="M 114.0,125.9 L 107.5,111.4" style="fill:none;fill-rule:evenodd;stroke:#000000;stroke-width:2.0px;stroke-linecap:butt;stroke-linejoin:miter;stroke-opacity:1"/>
<path class="bond-35 atom-19 atom-34" d="M 114.0,125.9 L 128.2,117.7" style="fill:none;fill-rule:evenodd;stroke:#000000;stroke-width:2.0px;stroke-linecap:butt;stroke-linejoin:miter;stroke-opacity:1"/>
<path class="bond-36 atom-20 atom-21" d="M 75.9,149.7 L 67.5,148.9" style="fill:none;fill-rule:evenodd;stroke:#000000;stroke-width:2.0px;stroke-linecap:butt;stroke-linejoin:miter;stroke-opacity:1"/>
<path class="bond-36 atom-20 atom-21" d="M 67.5,148.9 L 59.1,148.0" style="fill:none;fill-rule:evenodd;stroke:#0000FF;stroke-width:2.0px;stroke-linecap:butt;stroke-linejoin:miter;stroke-opacity:1"/>
<path class="bond-37 atom-20 atom-35" d="M 75.9,149.7 L 74.3,165.9" style="fill:none;fill-rule:evenodd;stroke:#000000;stroke-width:2.0px;stroke-linecap:butt;stroke-linejoin:miter;stroke-opacity:1"/>
<path class="bond-38 atom-20 atom-36" d="M 75.9,149.7 L 75.7,142.7" style="fill:none;fill-rule:evenodd;stroke:#000000;stroke-width:2.0px;stroke-linecap:butt;stroke-linejoin:miter;stroke-opacity:1"/>
<path class="bond-39 atom-21 atom-37" d="M 56.0,151.2 L 55.4,157.5" style="fill:none;fill-rule:evenodd;stroke:#0000FF;stroke-width:2.0px;stroke-linecap:butt;stroke-linejoin:miter;stroke-opacity:1"/>
<path class="bond-39 atom-21 atom-37" d="M 55.4,157.5 L 54.7,163.9" style="fill:none;fill-rule:evenodd;stroke:#000000;stroke-width:2.0px;stroke-linecap:butt;stroke-linejoin:miter;stroke-opacity:1"/>
<path class="bond-40 atom-21 atom-38" d="M 56.7,144.4 L 57.3,138.0" style="fill:none;fill-rule:evenodd;stroke:#0000FF;stroke-width:2.0px;stroke-linecap:butt;stroke-linejoin:miter;stroke-opacity:1"/>
<path class="bond-40 atom-21 atom-38" d="M 57.3,138.0 L 58.0,131.6" style="fill:none;fill-rule:evenodd;stroke:#000000;stroke-width:2.0px;stroke-linecap:butt;stroke-linejoin:miter;stroke-opacity:1"/>
<path class="bond-41 atom-21 atom-39" d="M 53.6,147.5 L 46.6,146.8" style="fill:none;fill-rule:evenodd;stroke:#0000FF;stroke-width:2.0px;stroke-linecap:butt;stroke-linejoin:miter;stroke-opacity:1"/>
<path class="bond-41 atom-21 atom-39" d="M 46.6,146.8 L 39.6,146.1" style="fill:none;fill-rule:evenodd;stroke:#000000;stroke-width:2.0px;stroke-linecap:butt;stroke-linejoin:miter;stroke-opacity:1"/>
<path class="atom-7" d="M 173.5 121.8 L 175.3 124.8 Q 175.5 125.1, 175.8 125.6 Q 176.1 126.1, 176.1 126.1 L 176.1 121.8 L 176.8 121.8 L 176.8 127.4 L 176.1 127.4 L 174.1 124.2 Q 173.9 123.8, 173.6 123.3 Q 173.4 122.9, 173.3 122.8 L 173.3 127.4 L 172.6 127.4 L 172.6 121.8 L 173.5 121.8 " fill="#0000FF"/>
<path class="atom-10" d="M 154.0 155.9 L 155.8 158.9 Q 156.0 159.2, 156.3 159.7 Q 156.5 160.2, 156.6 160.2 L 156.6 155.9 L 157.3 155.9 L 157.3 161.5 L 156.5 161.5 L 154.6 158.3 Q 154.4 157.9, 154.1 157.5 Q 153.9 157.0, 153.8 156.9 L 153.8 161.5 L 153.1 161.5 L 153.1 155.9 L 154.0 155.9 " fill="#0000FF"/>
<path class="atom-12" d="M 241.5 175.6 Q 241.5 174.2, 242.2 173.5 Q 242.8 172.8, 244.1 172.8 Q 245.2 172.8, 245.8 173.6 L 245.3 174.0 Q 244.9 173.4, 244.1 173.4 Q 243.2 173.4, 242.8 174.0 Q 242.3 174.5, 242.3 175.6 Q 242.3 176.7, 242.8 177.3 Q 243.3 177.8, 244.2 177.8 Q 244.8 177.8, 245.5 177.5 L 245.7 178.0 Q 245.4 178.2, 245.0 178.3 Q 244.5 178.5, 244.0 178.5 Q 242.8 178.5, 242.2 177.7 Q 241.5 177.0, 241.5 175.6 " fill="#00CC00"/>
<path class="atom-12" d="M 246.1 172.4 L 246.9 172.4 L 246.9 178.4 L 246.1 178.4 L 246.1 172.4 " fill="#00CC00"/>
<path class="atom-13" d="M 204.2 170.6 Q 204.2 169.2, 204.8 168.5 Q 205.5 167.7, 206.7 167.7 Q 207.9 167.7, 208.5 168.5 L 208.0 169.0 Q 207.5 168.4, 206.7 168.4 Q 205.9 168.4, 205.4 168.9 Q 205.0 169.5, 205.0 170.6 Q 205.0 171.7, 205.4 172.2 Q 205.9 172.8, 206.8 172.8 Q 207.4 172.8, 208.1 172.4 L 208.3 173.0 Q 208.1 173.2, 207.6 173.3 Q 207.2 173.4, 206.7 173.4 Q 205.5 173.4, 204.8 172.7 Q 204.2 172.0, 204.2 170.6 " fill="#00CC00"/>
<path class="atom-13" d="M 208.8 167.4 L 209.5 167.4 L 209.5 173.4 L 208.8 173.4 L 208.8 167.4 " fill="#00CC00"/>
<path class="atom-14" d="M 183.5 172.8 L 185.3 175.8 Q 185.5 176.1, 185.8 176.6 Q 186.1 177.1, 186.1 177.2 L 186.1 172.8 L 186.8 172.8 L 186.8 178.4 L 186.1 178.4 L 184.1 175.2 Q 183.9 174.8, 183.6 174.4 Q 183.4 173.9, 183.3 173.8 L 183.3 178.4 L 182.6 178.4 L 182.6 172.8 L 183.5 172.8 " fill="#0000FF"/>
<path class="atom-15" d="M 124.4 139.0 L 126.2 142.0 Q 126.4 142.2, 126.7 142.8 Q 127.0 143.3, 127.0 143.3 L 127.0 139.0 L 127.8 139.0 L 127.8 144.6 L 127.0 144.6 L 125.0 141.4 Q 124.8 141.0, 124.6 140.5 Q 124.3 140.1, 124.3 140.0 L 124.3 144.6 L 123.5 144.6 L 123.5 139.0 L 124.4 139.0 " fill="#0000FF"/>
<path class="atom-21" d="M 55.1 145.0 L 56.9 147.9 Q 57.1 148.2, 57.4 148.7 Q 57.7 149.3, 57.7 149.3 L 57.7 145.0 L 58.5 145.0 L 58.5 150.5 L 57.7 150.5 L 55.7 147.3 Q 55.5 146.9, 55.3 146.5 Q 55.0 146.1, 55.0 145.9 L 55.0 150.5 L 54.2 150.5 L 54.2 145.0 L 55.1 145.0 " fill="#0000FF"/>
<path class="atom-21" d="M 59.1 146.0 L 60.1 146.0 L 60.1 145.0 L 60.5 145.0 L 60.5 146.0 L 61.5 146.0 L 61.5 146.4 L 60.5 146.4 L 60.5 147.4 L 60.1 147.4 L 60.1 146.4 L 59.1 146.4 L 59.1 146.0 " fill="#0000FF"/>
<path class="atom-22" d="M 261.0 138.5 L 261.8 138.5 L 261.8 140.9 L 264.6 140.9 L 264.6 138.5 L 265.4 138.5 L 265.4 144.1 L 264.6 144.1 L 264.6 141.5 L 261.8 141.5 L 261.8 144.1 L 261.0 144.1 L 261.0 138.5 " fill="#000000"/>
<path class="atom-23" d="M 241.3 104.5 L 242.0 104.5 L 242.0 106.9 L 244.9 106.9 L 244.9 104.5 L 245.6 104.5 L 245.6 110.1 L 244.9 110.1 L 244.9 107.5 L 242.0 107.5 L 242.0 110.1 L 241.3 110.1 L 241.3 104.5 " fill="#000000"/>
<path class="atom-24" d="M 202.0 104.7 L 202.7 104.7 L 202.7 107.1 L 205.6 107.1 L 205.6 104.7 L 206.3 104.7 L 206.3 110.3 L 205.6 110.3 L 205.6 107.7 L 202.7 107.7 L 202.7 110.3 L 202.0 110.3 L 202.0 104.7 " fill="#000000"/>
<path class="atom-25" d="M 143.0 104.9 L 143.8 104.9 L 143.8 107.3 L 146.6 107.3 L 146.6 104.9 L 147.4 104.9 L 147.4 110.5 L 146.6 110.5 L 146.6 107.9 L 143.8 107.9 L 143.8 110.5 L 143.0 110.5 L 143.0 104.9 " fill="#000000"/>
<path class="atom-26" d="M 195.4 174.4 L 196.1 174.4 L 196.1 176.7 L 199.0 176.7 L 199.0 174.4 L 199.7 174.4 L 199.7 179.9 L 199.0 179.9 L 199.0 177.4 L 196.1 177.4 L 196.1 179.9 L 195.4 179.9 L 195.4 174.4 " fill="#000000"/>
<path class="atom-27" d="M 172.8 189.9 L 173.5 189.9 L 173.5 192.3 L 176.4 192.3 L 176.4 189.9 L 177.1 189.9 L 177.1 195.5 L 176.4 195.5 L 176.4 192.9 L 173.5 192.9 L 173.5 195.5 L 172.8 195.5 L 172.8 189.9 " fill="#000000"/>
<path class="atom-28" d="M 129.0 164.7 L 129.8 164.7 L 129.8 167.1 L 132.6 167.1 L 132.6 164.7 L 133.4 164.7 L 133.4 170.3 L 132.6 170.3 L 132.6 167.7 L 129.8 167.7 L 129.8 170.3 L 129.0 170.3 L 129.0 164.7 " fill="#000000"/>
<path class="atom-29" d="M 104.1 172.9 L 104.8 172.9 L 104.8 175.3 L 107.7 175.3 L 107.7 172.9 L 108.4 172.9 L 108.4 178.5 L 107.7 178.5 L 107.7 175.9 L 104.8 175.9 L 104.8 178.5 L 104.1 178.5 L 104.1 172.9 " fill="#000000"/>
<path class="atom-30" d="M 89.3 168.2 L 90.0 168.2 L 90.0 170.5 L 92.9 170.5 L 92.9 168.2 L 93.6 168.2 L 93.6 173.7 L 92.9 173.7 L 92.9 171.2 L 90.0 171.2 L 90.0 173.7 L 89.3 173.7 L 89.3 168.2 " fill="#000000"/>
<path class="atom-31" d="M 82.8 129.2 L 83.5 129.2 L 83.5 131.5 L 86.4 131.5 L 86.4 129.2 L 87.1 129.2 L 87.1 134.7 L 86.4 134.7 L 86.4 132.1 L 83.5 132.1 L 83.5 134.7 L 82.8 134.7 L 82.8 129.2 " fill="#000000"/>
<path class="atom-32" d="M 89.0 110.1 L 89.8 110.1 L 89.8 112.5 L 92.6 112.5 L 92.6 110.1 L 93.4 110.1 L 93.4 115.7 L 92.6 115.7 L 92.6 113.1 L 89.8 113.1 L 89.8 115.7 L 89.0 115.7 L 89.0 110.1 " fill="#000000"/>
<path class="atom-33" d="M 103.8 105.2 L 104.6 105.2 L 104.6 107.6 L 107.4 107.6 L 107.4 105.2 L 108.2 105.2 L 108.2 110.8 L 107.4 110.8 L 107.4 108.2 L 104.6 108.2 L 104.6 110.8 L 103.8 110.8 L 103.8 105.2 " fill="#000000"/>
<path class="atom-34" d="M 128.8 113.3 L 129.6 113.3 L 129.6 115.6 L 132.4 115.6 L 132.4 113.3 L 133.2 113.3 L 133.2 118.8 L 132.4 118.8 L 132.4 116.3 L 129.6 116.3 L 129.6 118.8 L 128.8 118.8 L 128.8 113.3 " fill="#000000"/>
<path class="atom-35" d="M 71.7 166.5 L 72.5 166.5 L 72.5 168.9 L 75.3 168.9 L 75.3 166.5 L 76.1 166.5 L 76.1 172.1 L 75.3 172.1 L 75.3 169.5 L 72.5 169.5 L 72.5 172.1 L 71.7 172.1 L 71.7 166.5 " fill="#000000"/>
<path class="atom-36" d="M 73.5 136.5 L 74.3 136.5 L 74.3 138.9 L 77.1 138.9 L 77.1 136.5 L 77.9 136.5 L 77.9 142.1 L 77.1 142.1 L 77.1 139.5 L 74.3 139.5 L 74.3 142.1 L 73.5 142.1 L 73.5 136.5 " fill="#000000"/>
<path class="atom-37" d="M 52.2 164.5 L 52.9 164.5 L 52.9 166.9 L 55.8 166.9 L 55.8 164.5 L 56.5 164.5 L 56.5 170.1 L 55.8 170.1 L 55.8 167.5 L 52.9 167.5 L 52.9 170.1 L 52.2 170.1 L 52.2 164.5 " fill="#000000"/>
<path class="atom-38" d="M 56.1 125.4 L 56.9 125.4 L 56.9 127.8 L 59.7 127.8 L 59.7 125.4 L 60.5 125.4 L 60.5 131.0 L 59.7 131.0 L 59.7 128.4 L 56.9 128.4 L 56.9 131.0 L 56.1 131.0 L 56.1 125.4 " fill="#000000"/>
<path class="atom-39" d="M 34.6 143.0 L 35.4 143.0 L 35.4 145.4 L 38.2 145.4 L 38.2 143.0 L 39.0 143.0 L 39.0 148.6 L 38.2 148.6 L 38.2 146.0 L 35.4 146.0 L 35.4 148.6 L 34.6 148.6 L 34.6 143.0 " fill="#000000"/>
<path class="bond-0 atom-0 atom-1" d="M 477.3,155.2 L 481.7,161.5" style="fill:none;fill-rule:evenodd;stroke:#0000FF;stroke-width:2.0px;stroke-linecap:butt;stroke-linejoin:miter;stroke-opacity:1"/>
<path class="bond-0 atom-0 atom-1" d="M 481.7,161.5 L 486.1,167.9" style="fill:none;fill-rule:evenodd;stroke:#000000;stroke-width:2.0px;stroke-linecap:butt;stroke-linejoin:miter;stroke-opacity:1"/>
<path class="bond-1 atom-0 atom-5" d="M 476.5,148.4 L 480.0,141.2" style="fill:none;fill-rule:evenodd;stroke:#0000FF;stroke-width:2.0px;stroke-linecap:butt;stroke-linejoin:miter;stroke-opacity:1"/>
<path class="bond-1 atom-0 atom-5" d="M 480.0,141.2 L 483.4,134.0" style="fill:none;fill-rule:evenodd;stroke:#000000;stroke-width:2.0px;stroke-linecap:butt;stroke-linejoin:miter;stroke-opacity:1"/>
<path class="bond-2 atom-0 atom-15" d="M 472.2,152.0 L 463.8,152.7" style="fill:none;fill-rule:evenodd;stroke:#0000FF;stroke-width:2.0px;stroke-linecap:butt;stroke-linejoin:miter;stroke-opacity:1"/>
<path class="bond-2 atom-0 atom-15" d="M 463.8,152.7 L 455.3,153.3" style="fill:none;fill-rule:evenodd;stroke:#000000;stroke-width:2.0px;stroke-linecap:butt;stroke-linejoin:miter;stroke-opacity:1"/>
<path class="bond-3 atom-1 atom-2" d="M 486.1,167.9 L 505.7,166.4" style="fill:none;fill-rule:evenodd;stroke:#000000;stroke-width:2.0px;stroke-linecap:butt;stroke-linejoin:miter;stroke-opacity:1"/>
<path class="bond-4 atom-1 atom-22" d="M 486.1,167.9 L 490.2,183.6" style="fill:none;fill-rule:evenodd;stroke:#000000;stroke-width:2.0px;stroke-linecap:butt;stroke-linejoin:miter;stroke-opacity:1"/>
<path class="bond-5 atom-1 atom-23" d="M 486.1,167.9 L 471.0,174.8" style="fill:none;fill-rule:evenodd;stroke:#000000;stroke-width:2.0px;stroke-linecap:butt;stroke-linejoin:miter;stroke-opacity:1"/>
<path class="bond-6 atom-2 atom-3" d="M 505.7,166.4 L 514.1,148.6" style="fill:none;fill-rule:evenodd;stroke:#000000;stroke-width:2.0px;stroke-linecap:butt;stroke-linejoin:miter;stroke-opacity:1"/>
<path class="bond-7 atom-2 atom-24" d="M 505.7,166.4 L 513.6,169.6" style="fill:none;fill-rule:evenodd;stroke:#000000;stroke-width:2.0px;stroke-linecap:butt;stroke-linejoin:miter;stroke-opacity:1"/>
<path class="bond-8 atom-2 atom-25" d="M 505.7,166.4 L 504.2,182.5" style="fill:none;fill-rule:evenodd;stroke:#000000;stroke-width:2.0px;stroke-linecap:butt;stroke-linejoin:miter;stroke-opacity:1"/>
<path class="bond-9 atom-3 atom-4" d="M 514.1,148.6 L 502.9,132.4" style="fill:none;fill-rule:evenodd;stroke:#000000;stroke-width:2.0px;stroke-linecap:butt;stroke-linejoin:miter;stroke-opacity:1"/>
<path class="bond-10 atom-3 atom-21" d="M 514.1,148.6 L 520.8,153.3" style="fill:none;fill-rule:evenodd;stroke:#000000;stroke-width:2.0px;stroke-linecap:butt;stroke-linejoin:miter;stroke-opacity:1"/>
<path class="bond-10 atom-3 atom-21" d="M 520.8,153.3 L 527.4,158.0" style="fill:none;fill-rule:evenodd;stroke:#0000FF;stroke-width:2.0px;stroke-linecap:butt;stroke-linejoin:miter;stroke-opacity:1"/>
<path class="bond-11 atom-3 atom-37" d="M 514.1,148.6 L 519.4,141.9" style="fill:none;fill-rule:evenodd;stroke:#000000;stroke-width:2.0px;stroke-linecap:butt;stroke-linejoin:miter;stroke-opacity:1"/>
<path class="bond-12 atom-4 atom-5" d="M 502.9,132.4 L 483.4,134.0" style="fill:none;fill-rule:evenodd;stroke:#000000;stroke-width:2.0px;stroke-linecap:butt;stroke-linejoin:miter;stroke-opacity:1"/>
<path class="bond-13 atom-4 atom-26" d="M 502.9,132.4 L 498.9,116.8" style="fill:none;fill-rule:evenodd;stroke:#000000;stroke-width:2.0px;stroke-linecap:butt;stroke-linejoin:miter;stroke-opacity:1"/>
<path class="bond-14 atom-4 atom-27" d="M 502.9,132.4 L 515.2,124.9" style="fill:none;fill-rule:evenodd;stroke:#000000;stroke-width:2.0px;stroke-linecap:butt;stroke-linejoin:miter;stroke-opacity:1"/>
<path class="bond-15 atom-5 atom-28" d="M 483.4,134.0 L 467.2,129.6" style="fill:none;fill-rule:evenodd;stroke:#000000;stroke-width:2.0px;stroke-linecap:butt;stroke-linejoin:miter;stroke-opacity:1"/>
<path class="bond-16 atom-5 atom-29" d="M 483.4,134.0 L 484.9,117.8" style="fill:none;fill-rule:evenodd;stroke:#000000;stroke-width:2.0px;stroke-linecap:butt;stroke-linejoin:miter;stroke-opacity:1"/>
<path class="bond-17 atom-6 atom-7" d="M 396.6,158.1 L 385.4,141.9" style="fill:none;fill-rule:evenodd;stroke:#000000;stroke-width:2.0px;stroke-linecap:butt;stroke-linejoin:miter;stroke-opacity:1"/>
<path class="bond-17 atom-6 atom-7" d="M 391.7,157.9 L 383.9,146.6" style="fill:none;fill-rule:evenodd;stroke:#000000;stroke-width:2.0px;stroke-linecap:butt;stroke-linejoin:miter;stroke-opacity:1"/>
<path class="bond-18 atom-6 atom-11" d="M 396.6,158.1 L 388.2,175.8" style="fill:none;fill-rule:evenodd;stroke:#000000;stroke-width:2.0px;stroke-linecap:butt;stroke-linejoin:miter;stroke-opacity:1"/>
<path class="bond-19 atom-6 atom-12" d="M 396.6,158.1 L 416.2,156.5" style="fill:none;fill-rule:evenodd;stroke:#000000;stroke-width:2.0px;stroke-linecap:butt;stroke-linejoin:miter;stroke-opacity:1"/>
<path class="bond-20 atom-7 atom-8" d="M 385.4,141.9 L 365.8,143.5" style="fill:none;fill-rule:evenodd;stroke:#000000;stroke-width:2.0px;stroke-linecap:butt;stroke-linejoin:miter;stroke-opacity:1"/>
<path class="bond-21 atom-7 atom-19" d="M 385.4,141.9 L 387.9,134.4" style="fill:none;fill-rule:evenodd;stroke:#000000;stroke-width:2.0px;stroke-linecap:butt;stroke-linejoin:miter;stroke-opacity:1"/>
<path class="bond-21 atom-7 atom-19" d="M 387.9,134.4 L 390.4,126.9" style="fill:none;fill-rule:evenodd;stroke:#00CC00;stroke-width:2.0px;stroke-linecap:butt;stroke-linejoin:miter;stroke-opacity:1"/>
<path class="bond-22 atom-8 atom-9" d="M 365.8,143.5 L 357.4,161.2" style="fill:none;fill-rule:evenodd;stroke:#000000;stroke-width:2.0px;stroke-linecap:butt;stroke-linejoin:miter;stroke-opacity:1"/>
<path class="bond-22 atom-8 atom-9" d="M 368.1,147.8 L 362.2,160.3" style="fill:none;fill-rule:evenodd;stroke:#000000;stroke-width:2.0px;stroke-linecap:butt;stroke-linejoin:miter;stroke-opacity:1"/>
<path class="bond-23 atom-8 atom-18" d="M 365.8,143.5 L 360.7,136.1" style="fill:none;fill-rule:evenodd;stroke:#000000;stroke-width:2.0px;stroke-linecap:butt;stroke-linejoin:miter;stroke-opacity:1"/>
<path class="bond-23 atom-8 atom-18" d="M 360.7,136.1 L 355.6,128.7" style="fill:none;fill-rule:evenodd;stroke:#00CC00;stroke-width:2.0px;stroke-linecap:butt;stroke-linejoin:miter;stroke-opacity:1"/>
<path class="bond-24 atom-9 atom-10" d="M 357.4,161.2 L 368.6,177.4" style="fill:none;fill-rule:evenodd;stroke:#000000;stroke-width:2.0px;stroke-linecap:butt;stroke-linejoin:miter;stroke-opacity:1"/>
<path class="bond-25 atom-9 atom-30" d="M 357.4,161.2 L 340.6,162.6" style="fill:none;fill-rule:evenodd;stroke:#000000;stroke-width:2.0px;stroke-linecap:butt;stroke-linejoin:miter;stroke-opacity:1"/>
<path class="bond-26 atom-10 atom-11" d="M 368.6,177.4 L 388.2,175.8" style="fill:none;fill-rule:evenodd;stroke:#000000;stroke-width:2.0px;stroke-linecap:butt;stroke-linejoin:miter;stroke-opacity:1"/>
<path class="bond-26 atom-10 atom-11" d="M 371.2,173.3 L 384.9,172.2" style="fill:none;fill-rule:evenodd;stroke:#000000;stroke-width:2.0px;stroke-linecap:butt;stroke-linejoin:miter;stroke-opacity:1"/>
<path class="bond-27 atom-10 atom-31" d="M 368.6,177.4 L 361.8,191.8" style="fill:none;fill-rule:evenodd;stroke:#000000;stroke-width:2.0px;stroke-linecap:butt;stroke-linejoin:miter;stroke-opacity:1"/>
<path class="bond-28 atom-11 atom-32" d="M 388.2,175.8 L 397.0,188.6" style="fill:none;fill-rule:evenodd;stroke:#000000;stroke-width:2.0px;stroke-linecap:butt;stroke-linejoin:miter;stroke-opacity:1"/>
<path class="bond-29 atom-12 atom-13" d="M 416.2,156.5 L 427.3,172.7" style="fill:none;fill-rule:evenodd;stroke:#000000;stroke-width:2.0px;stroke-linecap:butt;stroke-linejoin:miter;stroke-opacity:1"/>
<path class="bond-29 atom-12 atom-13" d="M 421.1,156.7 L 428.9,168.0" style="fill:none;fill-rule:evenodd;stroke:#000000;stroke-width:2.0px;stroke-linecap:butt;stroke-linejoin:miter;stroke-opacity:1"/>
<path class="bond-30 atom-12 atom-17" d="M 416.2,156.5 L 424.6,138.8" style="fill:none;fill-rule:evenodd;stroke:#000000;stroke-width:2.0px;stroke-linecap:butt;stroke-linejoin:miter;stroke-opacity:1"/>
<path class="bond-31 atom-13 atom-14" d="M 427.3,172.7 L 435.8,172.0" style="fill:none;fill-rule:evenodd;stroke:#000000;stroke-width:2.0px;stroke-linecap:butt;stroke-linejoin:miter;stroke-opacity:1"/>
<path class="bond-31 atom-13 atom-14" d="M 435.8,172.0 L 444.2,171.3" style="fill:none;fill-rule:evenodd;stroke:#0000FF;stroke-width:2.0px;stroke-linecap:butt;stroke-linejoin:miter;stroke-opacity:1"/>
<path class="bond-32 atom-13 atom-36" d="M 427.3,172.7 L 420.5,187.0" style="fill:none;fill-rule:evenodd;stroke:#000000;stroke-width:2.0px;stroke-linecap:butt;stroke-linejoin:miter;stroke-opacity:1"/>
<path class="bond-33 atom-14 atom-15" d="M 448.5,167.7 L 451.9,160.5" style="fill:none;fill-rule:evenodd;stroke:#0000FF;stroke-width:2.0px;stroke-linecap:butt;stroke-linejoin:miter;stroke-opacity:1"/>
<path class="bond-33 atom-14 atom-15" d="M 451.9,160.5 L 455.3,153.3" style="fill:none;fill-rule:evenodd;stroke:#000000;stroke-width:2.0px;stroke-linecap:butt;stroke-linejoin:miter;stroke-opacity:1"/>
<path class="bond-33 atom-14 atom-15" d="M 446.0,163.9 L 448.4,158.8" style="fill:none;fill-rule:evenodd;stroke:#0000FF;stroke-width:2.0px;stroke-linecap:butt;stroke-linejoin:miter;stroke-opacity:1"/>
<path class="bond-33 atom-14 atom-15" d="M 448.4,158.8 L 450.8,153.8" style="fill:none;fill-rule:evenodd;stroke:#000000;stroke-width:2.0px;stroke-linecap:butt;stroke-linejoin:miter;stroke-opacity:1"/>
<path class="bond-34 atom-15 atom-16" d="M 455.3,153.3 L 450.9,147.0" style="fill:none;fill-rule:evenodd;stroke:#000000;stroke-width:2.0px;stroke-linecap:butt;stroke-linejoin:miter;stroke-opacity:1"/>
<path class="bond-34 atom-15 atom-16" d="M 450.9,147.0 L 446.5,140.6" style="fill:none;fill-rule:evenodd;stroke:#0000FF;stroke-width:2.0px;stroke-linecap:butt;stroke-linejoin:miter;stroke-opacity:1"/>
<path class="bond-35 atom-16 atom-17" d="M 441.5,137.4 L 433.0,138.1" style="fill:none;fill-rule:evenodd;stroke:#0000FF;stroke-width:2.0px;stroke-linecap:butt;stroke-linejoin:miter;stroke-opacity:1"/>
<path class="bond-35 atom-16 atom-17" d="M 433.0,138.1 L 424.6,138.8" style="fill:none;fill-rule:evenodd;stroke:#000000;stroke-width:2.0px;stroke-linecap:butt;stroke-linejoin:miter;stroke-opacity:1"/>
<path class="bond-35 atom-16 atom-17" d="M 439.2,141.5 L 433.3,142.0" style="fill:none;fill-rule:evenodd;stroke:#0000FF;stroke-width:2.0px;stroke-linecap:butt;stroke-linejoin:miter;stroke-opacity:1"/>
<path class="bond-35 atom-16 atom-17" d="M 433.3,142.0 L 427.4,142.5" style="fill:none;fill-rule:evenodd;stroke:#000000;stroke-width:2.0px;stroke-linecap:butt;stroke-linejoin:miter;stroke-opacity:1"/>
<path class="bond-36 atom-17 atom-20" d="M 424.6,138.8 L 420.2,132.4" style="fill:none;fill-rule:evenodd;stroke:#000000;stroke-width:2.0px;stroke-linecap:butt;stroke-linejoin:miter;stroke-opacity:1"/>
<path class="bond-36 atom-17 atom-20" d="M 420.2,132.4 L 415.8,126.0" style="fill:none;fill-rule:evenodd;stroke:#0000FF;stroke-width:2.0px;stroke-linecap:butt;stroke-linejoin:miter;stroke-opacity:1"/>
<path class="bond-37 atom-20 atom-35" d="M 415.0,119.2 L 417.6,113.7" style="fill:none;fill-rule:evenodd;stroke:#0000FF;stroke-width:2.0px;stroke-linecap:butt;stroke-linejoin:miter;stroke-opacity:1"/>
<path class="bond-37 atom-20 atom-35" d="M 417.6,113.7 L 420.2,108.2" style="fill:none;fill-rule:evenodd;stroke:#000000;stroke-width:2.0px;stroke-linecap:butt;stroke-linejoin:miter;stroke-opacity:1"/>
<path class="bond-38 atom-20 atom-45" d="M 410.7,122.5 L 403.7,122.2" style="fill:none;fill-rule:evenodd;stroke:#0000FF;stroke-width:2.0px;stroke-linecap:butt;stroke-linejoin:miter;stroke-opacity:1"/>
<path class="bond-38 atom-20 atom-45" d="M 403.7,122.2 L 396.6,121.9" style="fill:none;fill-rule:evenodd;stroke:#000000;stroke-width:2.0px;stroke-linecap:butt;stroke-linejoin:miter;stroke-opacity:1"/>
<path class="bond-39 atom-21 atom-33" d="M 532.6,156.5 L 537.0,150.3" style="fill:none;fill-rule:evenodd;stroke:#0000FF;stroke-width:2.0px;stroke-linecap:butt;stroke-linejoin:miter;stroke-opacity:1"/>
<path class="bond-39 atom-21 atom-33" d="M 537.0,150.3 L 541.5,144.0" style="fill:none;fill-rule:evenodd;stroke:#000000;stroke-width:2.0px;stroke-linecap:butt;stroke-linejoin:miter;stroke-opacity:1"/>
<path class="bond-40 atom-21 atom-34" d="M 532.9,161.9 L 539.5,166.6" style="fill:none;fill-rule:evenodd;stroke:#0000FF;stroke-width:2.0px;stroke-linecap:butt;stroke-linejoin:miter;stroke-opacity:1"/>
<path class="bond-40 atom-21 atom-34" d="M 539.5,166.6 L 546.2,171.4" style="fill:none;fill-rule:evenodd;stroke:#000000;stroke-width:2.0px;stroke-linecap:butt;stroke-linejoin:miter;stroke-opacity:1"/>
<path class="bond-41 atom-21 atom-44" d="M 528.3,163.4 L 527.4,165.1" style="fill:none;fill-rule:evenodd;stroke:#0000FF;stroke-width:2.0px;stroke-linecap:butt;stroke-linejoin:miter;stroke-opacity:1"/>
<path class="bond-41 atom-21 atom-44" d="M 527.4,165.1 L 526.5,166.8" style="fill:none;fill-rule:evenodd;stroke:#000000;stroke-width:2.0px;stroke-linecap:butt;stroke-linejoin:miter;stroke-opacity:1"/>
<path class="bond-42 atom-33 atom-38" d="M 541.5,144.0 L 536.8,138.4" style="fill:none;fill-rule:evenodd;stroke:#000000;stroke-width:2.0px;stroke-linecap:butt;stroke-linejoin:miter;stroke-opacity:1"/>
<path class="bond-43 atom-33 atom-39" d="M 541.5,144.0 L 548.9,148.0" style="fill:none;fill-rule:evenodd;stroke:#000000;stroke-width:2.0px;stroke-linecap:butt;stroke-linejoin:miter;stroke-opacity:1"/>
<path class="bond-44 atom-33 atom-40" d="M 541.5,144.0 L 550.5,131.3" style="fill:none;fill-rule:evenodd;stroke:#000000;stroke-width:2.0px;stroke-linecap:butt;stroke-linejoin:miter;stroke-opacity:1"/>
<path class="bond-45 atom-34 atom-41" d="M 546.2,171.4 L 537.2,184.0" style="fill:none;fill-rule:evenodd;stroke:#000000;stroke-width:2.0px;stroke-linecap:butt;stroke-linejoin:miter;stroke-opacity:1"/>
<path class="bond-46 atom-34 atom-42" d="M 546.2,171.4 L 551.2,165.8" style="fill:none;fill-rule:evenodd;stroke:#000000;stroke-width:2.0px;stroke-linecap:butt;stroke-linejoin:miter;stroke-opacity:1"/>
<path class="bond-47 atom-34 atom-43" d="M 546.2,171.4 L 559.4,180.8" style="fill:none;fill-rule:evenodd;stroke:#000000;stroke-width:2.0px;stroke-linecap:butt;stroke-linejoin:miter;stroke-opacity:1"/>
<path class="atom-0" d="M 473.7 149.0 L 475.5 151.9 Q 475.7 152.2, 476.0 152.7 Q 476.3 153.3, 476.3 153.3 L 476.3 149.0 L 477.0 149.0 L 477.0 154.5 L 476.3 154.5 L 474.3 151.3 Q 474.1 150.9, 473.9 150.5 Q 473.6 150.1, 473.5 149.9 L 473.5 154.5 L 472.8 154.5 L 472.8 149.0 L 473.7 149.0 " fill="#0000FF"/>
<path class="atom-14" d="M 445.7 168.3 L 447.5 171.3 Q 447.7 171.6, 448.0 172.1 Q 448.3 172.6, 448.3 172.6 L 448.3 168.3 L 449.0 168.3 L 449.0 173.9 L 448.3 173.9 L 446.3 170.7 Q 446.1 170.3, 445.8 169.8 Q 445.6 169.4, 445.5 169.3 L 445.5 173.9 L 444.8 173.9 L 444.8 168.3 L 445.7 168.3 " fill="#0000FF"/>
<path class="atom-16" d="M 443.0 134.4 L 444.8 137.3 Q 445.0 137.6, 445.3 138.2 Q 445.5 138.7, 445.6 138.7 L 445.6 134.4 L 446.3 134.4 L 446.3 140.0 L 445.5 140.0 L 443.6 136.7 Q 443.3 136.4, 443.1 135.9 Q 442.9 135.5, 442.8 135.4 L 442.8 140.0 L 442.1 140.0 L 442.1 134.4 L 443.0 134.4 " fill="#0000FF"/>
<path class="atom-18" d="M 349.7 127.5 Q 349.7 126.1, 350.3 125.4 Q 351.0 124.7, 352.2 124.7 Q 353.4 124.7, 354.0 125.5 L 353.5 125.9 Q 353.0 125.3, 352.2 125.3 Q 351.4 125.3, 350.9 125.9 Q 350.5 126.4, 350.5 127.5 Q 350.5 128.6, 351.0 129.2 Q 351.4 129.7, 352.3 129.7 Q 352.9 129.7, 353.7 129.4 L 353.9 130.0 Q 353.6 130.2, 353.1 130.3 Q 352.7 130.4, 352.2 130.4 Q 351.0 130.4, 350.3 129.6 Q 349.7 128.9, 349.7 127.5 " fill="#00CC00"/>
<path class="atom-18" d="M 354.3 124.3 L 355.0 124.3 L 355.0 130.3 L 354.3 130.3 L 354.3 124.3 " fill="#00CC00"/>
<path class="atom-19" d="M 389.5 123.5 Q 389.5 122.1, 390.1 121.4 Q 390.8 120.6, 392.0 120.6 Q 393.2 120.6, 393.8 121.4 L 393.2 121.9 Q 392.8 121.3, 392.0 121.3 Q 391.2 121.3, 390.7 121.8 Q 390.3 122.4, 390.3 123.5 Q 390.3 124.6, 390.7 125.1 Q 391.2 125.7, 392.1 125.7 Q 392.7 125.7, 393.4 125.3 L 393.6 125.9 Q 393.3 126.1, 392.9 126.2 Q 392.5 126.3, 392.0 126.3 Q 390.8 126.3, 390.1 125.6 Q 389.5 124.8, 389.5 123.5 " fill="#00CC00"/>
<path class="atom-19" d="M 394.1 120.3 L 394.8 120.3 L 394.8 126.2 L 394.1 126.2 L 394.1 120.3 " fill="#00CC00"/>
<path class="atom-20" d="M 412.2 119.8 L 414.0 122.7 Q 414.2 123.0, 414.5 123.6 Q 414.8 124.1, 414.8 124.1 L 414.8 119.8 L 415.5 119.8 L 415.5 125.4 L 414.8 125.4 L 412.8 122.1 Q 412.6 121.8, 412.4 121.3 Q 412.1 120.9, 412.0 120.8 L 412.0 125.4 L 411.3 125.4 L 411.3 119.8 L 412.2 119.8 " fill="#0000FF"/>
<path class="atom-21" d="M 528.9 157.2 L 530.7 160.1 Q 530.9 160.4, 531.2 161.0 Q 531.5 161.5, 531.5 161.5 L 531.5 157.2 L 532.2 157.2 L 532.2 162.8 L 531.5 162.8 L 529.5 159.5 Q 529.3 159.2, 529.1 158.7 Q 528.8 158.3, 528.7 158.2 L 528.7 162.8 L 528.0 162.8 L 528.0 157.2 L 528.9 157.2 " fill="#0000FF"/>
<path class="atom-21" d="M 532.9 158.2 L 533.9 158.2 L 533.9 157.2 L 534.3 157.2 L 534.3 158.2 L 535.3 158.2 L 535.3 158.6 L 534.3 158.6 L 534.3 159.6 L 533.9 159.6 L 533.9 158.6 L 532.9 158.6 L 532.9 158.2 " fill="#0000FF"/>
<path class="atom-22" d="M 488.9 184.2 L 489.6 184.2 L 489.6 186.5 L 492.5 186.5 L 492.5 184.2 L 493.2 184.2 L 493.2 189.7 L 492.5 189.7 L 492.5 187.2 L 489.6 187.2 L 489.6 189.7 L 488.9 189.7 L 488.9 184.2 " fill="#000000"/>
<path class="atom-23" d="M 466.1 173.3 L 466.8 173.3 L 466.8 175.7 L 469.7 175.7 L 469.7 173.3 L 470.4 173.3 L 470.4 178.9 L 469.7 178.9 L 469.7 176.3 L 466.8 176.3 L 466.8 178.9 L 466.1 178.9 L 466.1 173.3 " fill="#000000"/>
<path class="atom-24" d="M 514.2 168.0 L 515.0 168.0 L 515.0 170.4 L 517.8 170.4 L 517.8 168.0 L 518.6 168.0 L 518.6 173.6 L 517.8 173.6 L 517.8 171.0 L 515.0 171.0 L 515.0 173.6 L 514.2 173.6 L 514.2 168.0 " fill="#000000"/>
<path class="atom-25" d="M 501.7 183.1 L 502.4 183.1 L 502.4 185.5 L 505.3 185.5 L 505.3 183.1 L 506.0 183.1 L 506.0 188.7 L 505.3 188.7 L 505.3 186.1 L 502.4 186.1 L 502.4 188.7 L 501.7 188.7 L 501.7 183.1 " fill="#000000"/>
<path class="atom-26" d="M 495.8 110.6 L 496.6 110.6 L 496.6 113.0 L 499.4 113.0 L 499.4 110.6 L 500.2 110.6 L 500.2 116.2 L 499.4 116.2 L 499.4 113.6 L 496.6 113.6 L 496.6 116.2 L 495.8 116.2 L 495.8 110.6 " fill="#000000"/>
<path class="atom-27" d="M 515.8 120.4 L 516.6 120.4 L 516.6 122.7 L 519.4 122.7 L 519.4 120.4 L 520.2 120.4 L 520.2 125.9 L 519.4 125.9 L 519.4 123.4 L 516.6 123.4 L 516.6 125.9 L 515.8 125.9 L 515.8 120.4 " fill="#000000"/>
<path class="atom-28" d="M 462.2 126.0 L 463.0 126.0 L 463.0 128.4 L 465.8 128.4 L 465.8 126.0 L 466.6 126.0 L 466.6 131.6 L 465.8 131.6 L 465.8 129.0 L 463.0 129.0 L 463.0 131.6 L 462.2 131.6 L 462.2 126.0 " fill="#000000"/>
<path class="atom-29" d="M 483.0 111.7 L 483.8 111.7 L 483.8 114.0 L 486.6 114.0 L 486.6 111.7 L 487.4 111.7 L 487.4 117.2 L 486.6 117.2 L 486.6 114.7 L 483.8 114.7 L 483.8 117.2 L 483.0 117.2 L 483.0 111.7 " fill="#000000"/>
<path class="atom-30" d="M 335.6 160.0 L 336.4 160.0 L 336.4 162.4 L 339.2 162.4 L 339.2 160.0 L 340.0 160.0 L 340.0 165.6 L 339.2 165.6 L 339.2 163.0 L 336.4 163.0 L 336.4 165.6 L 335.6 165.6 L 335.6 160.0 " fill="#000000"/>
<path class="atom-31" d="M 358.0 192.4 L 358.7 192.4 L 358.7 194.8 L 361.6 194.8 L 361.6 192.4 L 362.3 192.4 L 362.3 198.0 L 361.6 198.0 L 361.6 195.4 L 358.7 195.4 L 358.7 198.0 L 358.0 198.0 L 358.0 192.4 " fill="#000000"/>
<path class="atom-32" d="M 397.1 189.2 L 397.9 189.2 L 397.9 191.6 L 400.7 191.6 L 400.7 189.2 L 401.5 189.2 L 401.5 194.8 L 400.7 194.8 L 400.7 192.2 L 397.9 192.2 L 397.9 194.8 L 397.1 194.8 L 397.1 189.2 " fill="#000000"/>
<path class="atom-35" d="M 419.7 102.0 L 420.4 102.0 L 420.4 104.4 L 423.3 104.4 L 423.3 102.0 L 424.0 102.0 L 424.0 107.6 L 423.3 107.6 L 423.3 105.0 L 420.4 105.0 L 420.4 107.6 L 419.7 107.6 L 419.7 102.0 " fill="#000000"/>
<path class="atom-36" d="M 416.7 187.6 L 417.5 187.6 L 417.5 190.0 L 420.3 190.0 L 420.3 187.6 L 421.1 187.6 L 421.1 193.2 L 420.3 193.2 L 420.3 190.6 L 417.5 190.6 L 417.5 193.2 L 416.7 193.2 L 416.7 187.6 " fill="#000000"/>
<path class="atom-37" d="M 519.9 135.7 L 520.7 135.7 L 520.7 138.1 L 523.5 138.1 L 523.5 135.7 L 524.3 135.7 L 524.3 141.3 L 523.5 141.3 L 523.5 138.7 L 520.7 138.7 L 520.7 141.3 L 519.9 141.3 L 519.9 135.7 " fill="#000000"/>
<path class="atom-38" d="M 531.8 132.4 L 532.5 132.4 L 532.5 134.7 L 535.4 134.7 L 535.4 132.4 L 536.1 132.4 L 536.1 137.9 L 535.4 137.9 L 535.4 135.4 L 532.5 135.4 L 532.5 137.9 L 531.8 137.9 L 531.8 132.4 " fill="#000000"/>
<path class="atom-39" d="M 549.5 146.7 L 550.3 146.7 L 550.3 149.1 L 553.1 149.1 L 553.1 146.7 L 553.9 146.7 L 553.9 152.3 L 553.1 152.3 L 553.1 149.7 L 550.3 149.7 L 550.3 152.3 L 549.5 152.3 L 549.5 146.7 " fill="#000000"/>
<path class="atom-40" d="M 550.7 125.2 L 551.5 125.2 L 551.5 127.5 L 554.3 127.5 L 554.3 125.2 L 555.1 125.2 L 555.1 130.7 L 554.3 130.7 L 554.3 128.1 L 551.5 128.1 L 551.5 130.7 L 550.7 130.7 L 550.7 125.2 " fill="#000000"/>
<path class="atom-41" d="M 532.6 184.6 L 533.4 184.6 L 533.4 187.0 L 536.2 187.0 L 536.2 184.6 L 537.0 184.6 L 537.0 190.2 L 536.2 190.2 L 536.2 187.6 L 533.4 187.6 L 533.4 190.2 L 532.6 190.2 L 532.6 184.6 " fill="#000000"/>
<path class="atom-42" d="M 551.8 160.0 L 552.6 160.0 L 552.6 162.4 L 555.4 162.4 L 555.4 160.0 L 556.2 160.0 L 556.2 165.6 L 555.4 165.6 L 555.4 163.0 L 552.6 163.0 L 552.6 165.6 L 551.8 165.6 L 551.8 160.0 " fill="#000000"/>
<path class="atom-43" d="M 560.0 180.0 L 560.8 180.0 L 560.8 182.3 L 563.6 182.3 L 563.6 180.0 L 564.4 180.0 L 564.4 185.5 L 563.6 185.5 L 563.6 182.9 L 560.8 182.9 L 560.8 185.5 L 560.0 185.5 L 560.0 180.0 " fill="#000000"/>
<path class="atom-44" d="M 522.4 167.4 L 523.2 167.4 L 523.2 169.8 L 526.0 169.8 L 526.0 167.4 L 526.8 167.4 L 526.8 173.0 L 526.0 173.0 L 526.0 170.4 L 523.2 170.4 L 523.2 173.0 L 522.4 173.0 L 522.4 167.4 " fill="#000000"/>
<path class="atom-45" d="M 391.6 119.0 L 392.4 119.0 L 392.4 121.3 L 395.2 121.3 L 395.2 119.0 L 396.0 119.0 L 396.0 124.5 L 395.2 124.5 L 395.2 122.0 L 392.4 122.0 L 392.4 124.5 L 391.6 124.5 L 391.6 119.0 " fill="#000000"/>
<path class="atom-19" d="M 390.3,122.0 L 390.3,124.6 L 392.9,124.6 L 392.9,122.0 L 390.3,122.0" style="fill:none;stroke:#FF0000;stroke-width:2.0px;stroke-linecap:butt;stroke-linejoin:miter;stroke-opacity:1;"/>
<text x="300" y="20" font-size="20" font-family="sans-serif" font-weight="normal" letter-spacing="0" text-anchor="middle" fill="black">shp2: E14 -&gt; 7</text><text x="300" y="35" font-size="15" font-family="sans-serif" font-weight="normal" letter-spacing="0" text-anchor="middle" fill="black"></text><text x="150" y="285" font-size="15" font-family="sans-serif" font-weight="normal" letter-spacing="0" text-anchor="middle" fill="black">E14</text><text x="450" y="285" font-size="15" font-family="sans-serif" font-weight="normal" letter-spacing="0" text-anchor="middle" fill="black">7</text></svg>
