<?xml version='1.0' encoding='ASCII' standalone='yes'?>
<svg xmlns="http://www.w3.org/2000/svg" xmlns:rdkit="http://www.rdkit.org/xml" xmlns:xlink="http://www.w3.org/1999/xlink" version="1.1" baseProfile="full" xml:space="preserve" width="600px" height="300px" viewBox="0 0 600 300">
<!-- END OF HEADER -->
<rect style="opacity:1.0;fill:#FFFFFF;stroke:none" width="600.0" height="300.0" x="0.0" y="0.0"> </rect>
<path class="bond-0 atom-0 atom-1" d="M 185.8,159.5 L 189.9,166.2" style="fill:none;fill-rule:evenodd;stroke:#0000FF;stroke-width:2.0px;stroke-linecap:butt;stroke-linejoin:miter;stroke-opacity:1"/>
<path class="bond-0 atom-0 atom-1" d="M 189.9,166.2 L 194.0,172.8" style="fill:none;fill-rule:evenodd;stroke:#000000;stroke-width:2.0px;stroke-linecap:butt;stroke-linejoin:miter;stroke-opacity:1"/>
<path class="bond-1 atom-0 atom-5" d="M 185.6,152.7 L 189.3,145.7" style="fill:none;fill-rule:evenodd;stroke:#0000FF;stroke-width:2.0px;stroke-linecap:butt;stroke-linejoin:miter;stroke-opacity:1"/>
<path class="bond-1 atom-0 atom-5" d="M 189.3,145.7 L 193.1,138.8" style="fill:none;fill-rule:evenodd;stroke:#000000;stroke-width:2.0px;stroke-linecap:butt;stroke-linejoin:miter;stroke-opacity:1"/>
<path class="bond-2 atom-0 atom-15" d="M 181.0,156.2 L 172.5,156.4" style="fill:none;fill-rule:evenodd;stroke:#0000FF;stroke-width:2.0px;stroke-linecap:butt;stroke-linejoin:miter;stroke-opacity:1"/>
<path class="bond-2 atom-0 atom-15" d="M 172.5,156.4 L 164.1,156.6" style="fill:none;fill-rule:evenodd;stroke:#000000;stroke-width:2.0px;stroke-linecap:butt;stroke-linejoin:miter;stroke-opacity:1"/>
<path class="bond-3 atom-1 atom-2" d="M 194.0,172.8 L 213.6,172.3" style="fill:none;fill-rule:evenodd;stroke:#000000;stroke-width:2.0px;stroke-linecap:butt;stroke-linejoin:miter;stroke-opacity:1"/>
<path class="bond-4 atom-1 atom-23" d="M 194.0,172.8 L 197.2,188.7" style="fill:none;fill-rule:evenodd;stroke:#000000;stroke-width:2.0px;stroke-linecap:butt;stroke-linejoin:miter;stroke-opacity:1"/>
<path class="bond-5 atom-1 atom-24" d="M 194.0,172.8 L 178.5,178.9" style="fill:none;fill-rule:evenodd;stroke:#000000;stroke-width:2.0px;stroke-linecap:butt;stroke-linejoin:miter;stroke-opacity:1"/>
<path class="bond-6 atom-2 atom-3" d="M 213.6,172.3 L 223.0,155.0" style="fill:none;fill-rule:evenodd;stroke:#000000;stroke-width:2.0px;stroke-linecap:butt;stroke-linejoin:miter;stroke-opacity:1"/>
<path class="bond-7 atom-2 atom-25" d="M 213.6,172.3 L 221.3,175.9" style="fill:none;fill-rule:evenodd;stroke:#000000;stroke-width:2.0px;stroke-linecap:butt;stroke-linejoin:miter;stroke-opacity:1"/>
<path class="bond-8 atom-2 atom-26" d="M 213.6,172.3 L 211.3,188.3" style="fill:none;fill-rule:evenodd;stroke:#000000;stroke-width:2.0px;stroke-linecap:butt;stroke-linejoin:miter;stroke-opacity:1"/>
<path class="bond-9 atom-3 atom-4" d="M 223.0,155.0 L 212.7,138.3" style="fill:none;fill-rule:evenodd;stroke:#000000;stroke-width:2.0px;stroke-linecap:butt;stroke-linejoin:miter;stroke-opacity:1"/>
<path class="bond-10 atom-3 atom-21" d="M 223.0,155.0 L 229.3,160.0" style="fill:none;fill-rule:evenodd;stroke:#000000;stroke-width:2.0px;stroke-linecap:butt;stroke-linejoin:miter;stroke-opacity:1"/>
<path class="bond-10 atom-3 atom-21" d="M 229.3,160.0 L 235.7,165.1" style="fill:none;fill-rule:evenodd;stroke:#0000FF;stroke-width:2.0px;stroke-linecap:butt;stroke-linejoin:miter;stroke-opacity:1"/>
<path class="bond-11 atom-3 atom-22" d="M 223.0,155.0 L 237.7,142.0" style="fill:none;fill-rule:evenodd;stroke:#000000;stroke-width:2.0px;stroke-linecap:butt;stroke-linejoin:miter;stroke-opacity:1"/>
<path class="bond-12 atom-4 atom-5" d="M 212.7,138.3 L 193.1,138.8" style="fill:none;fill-rule:evenodd;stroke:#000000;stroke-width:2.0px;stroke-linecap:butt;stroke-linejoin:miter;stroke-opacity:1"/>
<path class="bond-13 atom-4 atom-27" d="M 212.7,138.3 L 209.5,122.4" style="fill:none;fill-rule:evenodd;stroke:#000000;stroke-width:2.0px;stroke-linecap:butt;stroke-linejoin:miter;stroke-opacity:1"/>
<path class="bond-14 atom-4 atom-28" d="M 212.7,138.3 L 227.2,130.4" style="fill:none;fill-rule:evenodd;stroke:#000000;stroke-width:2.0px;stroke-linecap:butt;stroke-linejoin:miter;stroke-opacity:1"/>
<path class="bond-15 atom-5 atom-29" d="M 193.1,138.8 L 177.2,133.5" style="fill:none;fill-rule:evenodd;stroke:#000000;stroke-width:2.0px;stroke-linecap:butt;stroke-linejoin:miter;stroke-opacity:1"/>
<path class="bond-16 atom-5 atom-30" d="M 193.1,138.8 L 195.5,122.8" style="fill:none;fill-rule:evenodd;stroke:#000000;stroke-width:2.0px;stroke-linecap:butt;stroke-linejoin:miter;stroke-opacity:1"/>
<path class="bond-17 atom-6 atom-7" d="M 105.1,158.2 L 95.8,175.5" style="fill:none;fill-rule:evenodd;stroke:#000000;stroke-width:2.0px;stroke-linecap:butt;stroke-linejoin:miter;stroke-opacity:1"/>
<path class="bond-17 atom-6 atom-7" d="M 100.3,159.0 L 93.7,171.1" style="fill:none;fill-rule:evenodd;stroke:#000000;stroke-width:2.0px;stroke-linecap:butt;stroke-linejoin:miter;stroke-opacity:1"/>
<path class="bond-18 atom-6 atom-11" d="M 105.1,158.2 L 94.9,141.5" style="fill:none;fill-rule:evenodd;stroke:#000000;stroke-width:2.0px;stroke-linecap:butt;stroke-linejoin:miter;stroke-opacity:1"/>
<path class="bond-19 atom-6 atom-12" d="M 105.1,158.2 L 124.8,157.7" style="fill:none;fill-rule:evenodd;stroke:#000000;stroke-width:2.0px;stroke-linecap:butt;stroke-linejoin:miter;stroke-opacity:1"/>
<path class="bond-20 atom-7 atom-8" d="M 95.8,175.5 L 76.1,176.1" style="fill:none;fill-rule:evenodd;stroke:#000000;stroke-width:2.0px;stroke-linecap:butt;stroke-linejoin:miter;stroke-opacity:1"/>
<path class="bond-21 atom-7 atom-19" d="M 95.8,175.5 L 99.9,182.3" style="fill:none;fill-rule:evenodd;stroke:#000000;stroke-width:2.0px;stroke-linecap:butt;stroke-linejoin:miter;stroke-opacity:1"/>
<path class="bond-21 atom-7 atom-19" d="M 99.9,182.3 L 104.1,189.0" style="fill:none;fill-rule:evenodd;stroke:#00CC00;stroke-width:2.0px;stroke-linecap:butt;stroke-linejoin:miter;stroke-opacity:1"/>
<path class="bond-22 atom-8 atom-9" d="M 76.1,176.1 L 65.9,159.3" style="fill:none;fill-rule:evenodd;stroke:#000000;stroke-width:2.0px;stroke-linecap:butt;stroke-linejoin:miter;stroke-opacity:1"/>
<path class="bond-22 atom-8 atom-9" d="M 77.9,171.5 L 70.7,159.8" style="fill:none;fill-rule:evenodd;stroke:#000000;stroke-width:2.0px;stroke-linecap:butt;stroke-linejoin:miter;stroke-opacity:1"/>
<path class="bond-23 atom-8 atom-18" d="M 76.1,176.1 L 72.0,183.8" style="fill:none;fill-rule:evenodd;stroke:#000000;stroke-width:2.0px;stroke-linecap:butt;stroke-linejoin:miter;stroke-opacity:1"/>
<path class="bond-23 atom-8 atom-18" d="M 72.0,183.8 L 67.8,191.5" style="fill:none;fill-rule:evenodd;stroke:#00CC00;stroke-width:2.0px;stroke-linecap:butt;stroke-linejoin:miter;stroke-opacity:1"/>
<path class="bond-24 atom-9 atom-10" d="M 65.9,159.3 L 75.2,142.0" style="fill:none;fill-rule:evenodd;stroke:#000000;stroke-width:2.0px;stroke-linecap:butt;stroke-linejoin:miter;stroke-opacity:1"/>
<path class="bond-25 atom-9 atom-31" d="M 65.9,159.3 L 49.0,159.8" style="fill:none;fill-rule:evenodd;stroke:#000000;stroke-width:2.0px;stroke-linecap:butt;stroke-linejoin:miter;stroke-opacity:1"/>
<path class="bond-26 atom-10 atom-11" d="M 75.2,142.0 L 94.9,141.5" style="fill:none;fill-rule:evenodd;stroke:#000000;stroke-width:2.0px;stroke-linecap:butt;stroke-linejoin:miter;stroke-opacity:1"/>
<path class="bond-26 atom-10 atom-11" d="M 78.3,145.9 L 92.0,145.5" style="fill:none;fill-rule:evenodd;stroke:#000000;stroke-width:2.0px;stroke-linecap:butt;stroke-linejoin:miter;stroke-opacity:1"/>
<path class="bond-27 atom-10 atom-32" d="M 75.2,142.0 L 67.0,128.7" style="fill:none;fill-rule:evenodd;stroke:#000000;stroke-width:2.0px;stroke-linecap:butt;stroke-linejoin:miter;stroke-opacity:1"/>
<path class="bond-28 atom-11 atom-33" d="M 94.9,141.5 L 98.2,132.9" style="fill:none;fill-rule:evenodd;stroke:#000000;stroke-width:2.0px;stroke-linecap:butt;stroke-linejoin:miter;stroke-opacity:1"/>
<path class="bond-29 atom-12 atom-13" d="M 124.8,157.7 L 128.9,164.4" style="fill:none;fill-rule:evenodd;stroke:#000000;stroke-width:2.0px;stroke-linecap:butt;stroke-linejoin:miter;stroke-opacity:1"/>
<path class="bond-29 atom-12 atom-13" d="M 128.9,164.4 L 133.0,171.0" style="fill:none;fill-rule:evenodd;stroke:#0000FF;stroke-width:2.0px;stroke-linecap:butt;stroke-linejoin:miter;stroke-opacity:1"/>
<path class="bond-29 atom-12 atom-13" d="M 129.4,157.6 L 132.2,162.3" style="fill:none;fill-rule:evenodd;stroke:#000000;stroke-width:2.0px;stroke-linecap:butt;stroke-linejoin:miter;stroke-opacity:1"/>
<path class="bond-29 atom-12 atom-13" d="M 132.2,162.3 L 135.1,167.0" style="fill:none;fill-rule:evenodd;stroke:#0000FF;stroke-width:2.0px;stroke-linecap:butt;stroke-linejoin:miter;stroke-opacity:1"/>
<path class="bond-30 atom-12 atom-17" d="M 124.8,157.7 L 134.1,140.4" style="fill:none;fill-rule:evenodd;stroke:#000000;stroke-width:2.0px;stroke-linecap:butt;stroke-linejoin:miter;stroke-opacity:1"/>
<path class="bond-31 atom-13 atom-14" d="M 137.8,174.4 L 146.3,174.1" style="fill:none;fill-rule:evenodd;stroke:#0000FF;stroke-width:2.0px;stroke-linecap:butt;stroke-linejoin:miter;stroke-opacity:1"/>
<path class="bond-31 atom-13 atom-14" d="M 146.3,174.1 L 154.7,173.9" style="fill:none;fill-rule:evenodd;stroke:#000000;stroke-width:2.0px;stroke-linecap:butt;stroke-linejoin:miter;stroke-opacity:1"/>
<path class="bond-32 atom-14 atom-15" d="M 154.7,173.9 L 164.1,156.6" style="fill:none;fill-rule:evenodd;stroke:#000000;stroke-width:2.0px;stroke-linecap:butt;stroke-linejoin:miter;stroke-opacity:1"/>
<path class="bond-32 atom-14 atom-15" d="M 152.7,169.4 L 159.2,157.3" style="fill:none;fill-rule:evenodd;stroke:#000000;stroke-width:2.0px;stroke-linecap:butt;stroke-linejoin:miter;stroke-opacity:1"/>
<path class="bond-33 atom-14 atom-34" d="M 154.7,173.9 L 162.9,187.2" style="fill:none;fill-rule:evenodd;stroke:#000000;stroke-width:2.0px;stroke-linecap:butt;stroke-linejoin:miter;stroke-opacity:1"/>
<path class="bond-34 atom-15 atom-16" d="M 164.1,156.6 L 160.0,150.0" style="fill:none;fill-rule:evenodd;stroke:#000000;stroke-width:2.0px;stroke-linecap:butt;stroke-linejoin:miter;stroke-opacity:1"/>
<path class="bond-34 atom-15 atom-16" d="M 160.0,150.0 L 155.9,143.3" style="fill:none;fill-rule:evenodd;stroke:#0000FF;stroke-width:2.0px;stroke-linecap:butt;stroke-linejoin:miter;stroke-opacity:1"/>
<path class="bond-35 atom-16 atom-17" d="M 151.1,140.0 L 142.6,140.2" style="fill:none;fill-rule:evenodd;stroke:#0000FF;stroke-width:2.0px;stroke-linecap:butt;stroke-linejoin:miter;stroke-opacity:1"/>
<path class="bond-35 atom-16 atom-17" d="M 142.6,140.2 L 134.1,140.4" style="fill:none;fill-rule:evenodd;stroke:#000000;stroke-width:2.0px;stroke-linecap:butt;stroke-linejoin:miter;stroke-opacity:1"/>
<path class="bond-35 atom-16 atom-17" d="M 148.6,144.0 L 142.7,144.1" style="fill:none;fill-rule:evenodd;stroke:#0000FF;stroke-width:2.0px;stroke-linecap:butt;stroke-linejoin:miter;stroke-opacity:1"/>
<path class="bond-35 atom-16 atom-17" d="M 142.7,144.1 L 136.8,144.3" style="fill:none;fill-rule:evenodd;stroke:#000000;stroke-width:2.0px;stroke-linecap:butt;stroke-linejoin:miter;stroke-opacity:1"/>
<path class="bond-36 atom-17 atom-20" d="M 134.1,140.4 L 130.0,133.8" style="fill:none;fill-rule:evenodd;stroke:#000000;stroke-width:2.0px;stroke-linecap:butt;stroke-linejoin:miter;stroke-opacity:1"/>
<path class="bond-36 atom-17 atom-20" d="M 130.0,133.8 L 126.0,127.1" style="fill:none;fill-rule:evenodd;stroke:#0000FF;stroke-width:2.0px;stroke-linecap:butt;stroke-linejoin:miter;stroke-opacity:1"/>
<path class="bond-37 atom-20 atom-35" d="M 121.1,123.4 L 117.5,123.1" style="fill:none;fill-rule:evenodd;stroke:#0000FF;stroke-width:2.0px;stroke-linecap:butt;stroke-linejoin:miter;stroke-opacity:1"/>
<path class="bond-37 atom-20 atom-35" d="M 117.5,123.1 L 113.8,122.7" style="fill:none;fill-rule:evenodd;stroke:#000000;stroke-width:2.0px;stroke-linecap:butt;stroke-linejoin:miter;stroke-opacity:1"/>
<path class="bond-38 atom-20 atom-36" d="M 125.7,120.3 L 128.5,115.0" style="fill:none;fill-rule:evenodd;stroke:#0000FF;stroke-width:2.0px;stroke-linecap:butt;stroke-linejoin:miter;stroke-opacity:1"/>
<path class="bond-38 atom-20 atom-36" d="M 128.5,115.0 L 131.4,109.8" style="fill:none;fill-rule:evenodd;stroke:#000000;stroke-width:2.0px;stroke-linecap:butt;stroke-linejoin:miter;stroke-opacity:1"/>
<path class="bond-39 atom-21 atom-37" d="M 241.9,163.8 L 245.7,160.0" style="fill:none;fill-rule:evenodd;stroke:#0000FF;stroke-width:2.0px;stroke-linecap:butt;stroke-linejoin:miter;stroke-opacity:1"/>
<path class="bond-39 atom-21 atom-37" d="M 245.7,160.0 L 249.6,156.2" style="fill:none;fill-rule:evenodd;stroke:#000000;stroke-width:2.0px;stroke-linecap:butt;stroke-linejoin:miter;stroke-opacity:1"/>
<path class="bond-40 atom-21 atom-38" d="M 236.3,170.6 L 235.7,171.7" style="fill:none;fill-rule:evenodd;stroke:#0000FF;stroke-width:2.0px;stroke-linecap:butt;stroke-linejoin:miter;stroke-opacity:1"/>
<path class="bond-40 atom-21 atom-38" d="M 235.7,171.7 L 235.0,172.7" style="fill:none;fill-rule:evenodd;stroke:#000000;stroke-width:2.0px;stroke-linecap:butt;stroke-linejoin:miter;stroke-opacity:1"/>
<path class="bond-41 atom-21 atom-42" d="M 241.1,169.4 L 246.1,173.3" style="fill:none;fill-rule:evenodd;stroke:#0000FF;stroke-width:2.0px;stroke-linecap:butt;stroke-linejoin:miter;stroke-opacity:1"/>
<path class="bond-41 atom-21 atom-42" d="M 246.1,173.3 L 251.0,177.2" style="fill:none;fill-rule:evenodd;stroke:#000000;stroke-width:2.0px;stroke-linecap:butt;stroke-linejoin:miter;stroke-opacity:1"/>
<path class="bond-42 atom-22 atom-39" d="M 237.7,142.0 L 249.6,152.5" style="fill:none;fill-rule:evenodd;stroke:#000000;stroke-width:2.0px;stroke-linecap:butt;stroke-linejoin:miter;stroke-opacity:1"/>
<path class="bond-43 atom-22 atom-40" d="M 237.7,142.0 L 228.9,129.2" style="fill:none;fill-rule:evenodd;stroke:#000000;stroke-width:2.0px;stroke-linecap:butt;stroke-linejoin:miter;stroke-opacity:1"/>
<path class="bond-44 atom-22 atom-41" d="M 237.7,142.0 L 249.6,131.4" style="fill:none;fill-rule:evenodd;stroke:#000000;stroke-width:2.0px;stroke-linecap:butt;stroke-linejoin:miter;stroke-opacity:1"/>
<path class="atom-0" d="M 182.5 153.3 L 184.3 156.3 Q 184.5 156.5, 184.8 157.1 Q 185.1 157.6, 185.1 157.6 L 185.1 153.3 L 185.8 153.3 L 185.8 158.9 L 185.1 158.9 L 183.1 155.7 Q 182.9 155.3, 182.6 154.8 Q 182.4 154.4, 182.3 154.3 L 182.3 158.9 L 181.6 158.9 L 181.6 153.3 L 182.5 153.3 " fill="#0000FF"/>
<path class="atom-13" d="M 133.8 171.7 L 135.7 174.6 Q 135.8 174.9, 136.1 175.4 Q 136.4 176.0, 136.4 176.0 L 136.4 171.7 L 137.2 171.7 L 137.2 177.2 L 136.4 177.2 L 134.5 174.0 Q 134.2 173.6, 134.0 173.2 Q 133.8 172.8, 133.7 172.6 L 133.7 177.2 L 133.0 177.2 L 133.0 171.7 L 133.8 171.7 " fill="#0000FF"/>
<path class="atom-16" d="M 152.6 137.1 L 154.4 140.0 Q 154.6 140.3, 154.9 140.9 Q 155.1 141.4, 155.2 141.4 L 155.2 137.1 L 155.9 137.1 L 155.9 142.7 L 155.1 142.7 L 153.2 139.4 Q 152.9 139.1, 152.7 138.6 Q 152.5 138.2, 152.4 138.1 L 152.4 142.7 L 151.7 142.7 L 151.7 137.1 L 152.6 137.1 " fill="#0000FF"/>
<path class="atom-18" d="M 61.8 193.5 Q 61.8 192.1, 62.5 191.4 Q 63.1 190.7, 64.3 190.7 Q 65.5 190.7, 66.1 191.5 L 65.6 191.9 Q 65.1 191.3, 64.3 191.3 Q 63.5 191.3, 63.1 191.9 Q 62.6 192.5, 62.6 193.5 Q 62.6 194.6, 63.1 195.2 Q 63.5 195.8, 64.4 195.8 Q 65.0 195.8, 65.8 195.4 L 66.0 196.0 Q 65.7 196.2, 65.2 196.3 Q 64.8 196.4, 64.3 196.4 Q 63.1 196.4, 62.5 195.6 Q 61.8 194.9, 61.8 193.5 " fill="#00CC00"/>
<path class="atom-18" d="M 66.4 190.4 L 67.1 190.4 L 67.1 196.3 L 66.4 196.3 L 66.4 190.4 " fill="#00CC00"/>
<path class="atom-19" d="M 103.9 192.5 Q 103.9 191.1, 104.6 190.3 Q 105.2 189.6, 106.5 189.6 Q 107.6 189.6, 108.2 190.4 L 107.7 190.8 Q 107.2 190.3, 106.5 190.3 Q 105.6 190.3, 105.2 190.8 Q 104.7 191.4, 104.7 192.5 Q 104.7 193.6, 105.2 194.1 Q 105.6 194.7, 106.5 194.7 Q 107.2 194.7, 107.9 194.3 L 108.1 194.9 Q 107.8 195.1, 107.4 195.2 Q 106.9 195.3, 106.4 195.3 Q 105.2 195.3, 104.6 194.6 Q 103.9 193.8, 103.9 192.5 " fill="#00CC00"/>
<path class="atom-19" d="M 108.5 189.3 L 109.3 189.3 L 109.3 195.2 L 108.5 195.2 L 108.5 189.3 " fill="#00CC00"/>
<path class="atom-20" d="M 122.6 120.9 L 124.4 123.8 Q 124.6 124.1, 124.9 124.7 Q 125.2 125.2, 125.2 125.2 L 125.2 120.9 L 126.0 120.9 L 126.0 126.5 L 125.2 126.5 L 123.2 123.2 Q 123.0 122.9, 122.8 122.4 Q 122.5 122.0, 122.5 121.9 L 122.5 126.5 L 121.7 126.5 L 121.7 120.9 L 122.6 120.9 " fill="#0000FF"/>
<path class="atom-21" d="M 237.2 164.5 L 239.0 167.4 Q 239.2 167.7, 239.5 168.2 Q 239.8 168.7, 239.8 168.8 L 239.8 164.5 L 240.5 164.5 L 240.5 170.0 L 239.7 170.0 L 237.8 166.8 Q 237.6 166.4, 237.3 166.0 Q 237.1 165.6, 237.0 165.4 L 237.0 170.0 L 236.3 170.0 L 236.3 164.5 L 237.2 164.5 " fill="#0000FF"/>
<path class="atom-21" d="M 241.2 165.5 L 242.1 165.5 L 242.1 164.4 L 242.6 164.4 L 242.6 165.5 L 243.6 165.5 L 243.6 165.8 L 242.6 165.8 L 242.6 166.9 L 242.1 166.9 L 242.1 165.8 L 241.2 165.8 L 241.2 165.5 " fill="#0000FF"/>
<path class="atom-23" d="M 195.8 189.3 L 196.5 189.3 L 196.5 191.7 L 199.4 191.7 L 199.4 189.3 L 200.1 189.3 L 200.1 194.9 L 199.4 194.9 L 199.4 192.3 L 196.5 192.3 L 196.5 194.9 L 195.8 194.9 L 195.8 189.3 " fill="#000000"/>
<path class="atom-24" d="M 173.6 177.3 L 174.3 177.3 L 174.3 179.6 L 177.2 179.6 L 177.2 177.3 L 177.9 177.3 L 177.9 182.8 L 177.2 182.8 L 177.2 180.3 L 174.3 180.3 L 174.3 182.8 L 173.6 182.8 L 173.6 177.3 " fill="#000000"/>
<path class="atom-25" d="M 221.9 174.5 L 222.7 174.5 L 222.7 176.9 L 225.5 176.9 L 225.5 174.5 L 226.3 174.5 L 226.3 180.1 L 225.5 180.1 L 225.5 177.5 L 222.7 177.5 L 222.7 180.1 L 221.9 180.1 L 221.9 174.5 " fill="#000000"/>
<path class="atom-26" d="M 208.6 189.0 L 209.3 189.0 L 209.3 191.3 L 212.2 191.3 L 212.2 189.0 L 212.9 189.0 L 212.9 194.5 L 212.2 194.5 L 212.2 191.9 L 209.3 191.9 L 209.3 194.5 L 208.6 194.5 L 208.6 189.0 " fill="#000000"/>
<path class="atom-27" d="M 206.6 116.2 L 207.4 116.2 L 207.4 118.6 L 210.2 118.6 L 210.2 116.2 L 211.0 116.2 L 211.0 121.8 L 210.2 121.8 L 210.2 119.2 L 207.4 119.2 L 207.4 121.8 L 206.6 121.8 L 206.6 116.2 " fill="#000000"/>
<path class="atom-28" d="M 227.8 126.1 L 228.6 126.1 L 228.6 128.5 L 231.4 128.5 L 231.4 126.1 L 232.2 126.1 L 232.2 131.7 L 231.4 131.7 L 231.4 129.1 L 228.6 129.1 L 228.6 131.7 L 227.8 131.7 L 227.8 126.1 " fill="#000000"/>
<path class="atom-29" d="M 172.3 129.8 L 173.0 129.8 L 173.0 132.2 L 175.9 132.2 L 175.9 129.8 L 176.6 129.8 L 176.6 135.4 L 175.9 135.4 L 175.9 132.8 L 173.0 132.8 L 173.0 135.4 L 172.3 135.4 L 172.3 129.8 " fill="#000000"/>
<path class="atom-30" d="M 193.8 116.6 L 194.5 116.6 L 194.5 119.0 L 197.4 119.0 L 197.4 116.6 L 198.1 116.6 L 198.1 122.2 L 197.4 122.2 L 197.4 119.6 L 194.5 119.6 L 194.5 122.2 L 193.8 122.2 L 193.8 116.6 " fill="#000000"/>
<path class="atom-31" d="M 44.0 157.1 L 44.8 157.1 L 44.8 159.4 L 47.6 159.4 L 47.6 157.1 L 48.4 157.1 L 48.4 162.6 L 47.6 162.6 L 47.6 160.1 L 44.8 160.1 L 44.8 162.6 L 44.0 162.6 L 44.0 157.1 " fill="#000000"/>
<path class="atom-32" d="M 62.7 122.5 L 63.5 122.5 L 63.5 124.9 L 66.3 124.9 L 66.3 122.5 L 67.1 122.5 L 67.1 128.1 L 66.3 128.1 L 66.3 125.5 L 63.5 125.5 L 63.5 128.1 L 62.7 128.1 L 62.7 122.5 " fill="#000000"/>
<path class="atom-33" d="M 97.4 126.7 L 98.1 126.7 L 98.1 129.1 L 101.0 129.1 L 101.0 126.7 L 101.7 126.7 L 101.7 132.3 L 101.0 132.3 L 101.0 129.7 L 98.1 129.7 L 98.1 132.3 L 97.4 132.3 L 97.4 126.7 " fill="#000000"/>
<path class="atom-34" d="M 162.8 187.9 L 163.6 187.9 L 163.6 190.2 L 166.4 190.2 L 166.4 187.9 L 167.2 187.9 L 167.2 193.4 L 166.4 193.4 L 166.4 190.9 L 163.6 190.9 L 163.6 193.4 L 162.8 193.4 L 162.8 187.9 " fill="#000000"/>
<path class="atom-35" d="M 108.8 119.7 L 109.6 119.7 L 109.6 122.0 L 112.4 122.0 L 112.4 119.7 L 113.2 119.7 L 113.2 125.2 L 112.4 125.2 L 112.4 122.7 L 109.6 122.7 L 109.6 125.2 L 108.8 125.2 L 108.8 119.7 " fill="#000000"/>
<path class="atom-36" d="M 131.0 103.6 L 131.8 103.6 L 131.8 106.0 L 134.6 106.0 L 134.6 103.6 L 135.4 103.6 L 135.4 109.2 L 134.6 109.2 L 134.6 106.6 L 131.8 106.6 L 131.8 109.2 L 131.0 109.2 L 131.0 103.6 " fill="#000000"/>
<path class="atom-37" d="M 250.2 150.7 L 251.0 150.7 L 251.0 153.0 L 253.8 153.0 L 253.8 150.7 L 254.6 150.7 L 254.6 156.2 L 253.8 156.2 L 253.8 153.7 L 251.0 153.7 L 251.0 156.2 L 250.2 156.2 L 250.2 150.7 " fill="#000000"/>
<path class="atom-38" d="M 230.8 173.4 L 231.5 173.4 L 231.5 175.7 L 234.4 175.7 L 234.4 173.4 L 235.1 173.4 L 235.1 178.9 L 234.4 178.9 L 234.4 176.4 L 231.5 176.4 L 231.5 178.9 L 230.8 178.9 L 230.8 173.4 " fill="#000000"/>
<path class="atom-39" d="M 250.3 152.2 L 251.0 152.2 L 251.0 154.6 L 253.9 154.6 L 253.9 152.2 L 254.6 152.2 L 254.6 157.8 L 253.9 157.8 L 253.9 155.2 L 251.0 155.2 L 251.0 157.8 L 250.3 157.8 L 250.3 152.2 " fill="#000000"/>
<path class="atom-40" d="M 224.4 123.0 L 225.1 123.0 L 225.1 125.4 L 228.0 125.4 L 228.0 123.0 L 228.7 123.0 L 228.7 128.6 L 228.0 128.6 L 228.0 126.0 L 225.1 126.0 L 225.1 128.6 L 224.4 128.6 L 224.4 123.0 " fill="#000000"/>
<path class="atom-41" d="M 250.2 126.2 L 251.0 126.2 L 251.0 128.5 L 253.8 128.5 L 253.8 126.2 L 254.6 126.2 L 254.6 131.7 L 253.8 131.7 L 253.8 129.2 L 251.0 129.2 L 251.0 131.7 L 250.2 131.7 L 250.2 126.2 " fill="#000000"/>
<path class="atom-42" d="M 251.6 176.7 L 252.4 176.7 L 252.4 179.0 L 255.2 179.0 L 255.2 176.7 L 256.0 176.7 L 256.0 182.2 L 255.2 182.2 L 255.2 179.7 L 252.4 179.7 L 252.4 182.2 L 251.6 182.2 L 251.6 176.7 " fill="#000000"/>
<path class="atom-37" d="M 251.1,152.1 L 251.1,154.8 L 253.7,154.8 L 253.7,152.1 L 251.1,152.1" style="fill:none;stroke:#FF0000;stroke-width:2.0px;stroke-linecap:butt;stroke-linejoin:miter;stroke-opacity:1;"/>
<path class="bond-0 atom-0 atom-1" d="M 504.3,141.5 L 514.1,158.5" style="fill:none;fill-rule:evenodd;stroke:#000000;stroke-width:2.0px;stroke-linecap:butt;stroke-linejoin:miter;stroke-opacity:1"/>
<path class="bond-0 atom-0 atom-1" d="M 509.1,142.1 L 516.1,154.0" style="fill:none;fill-rule:evenodd;stroke:#000000;stroke-width:2.0px;stroke-linecap:butt;stroke-linejoin:miter;stroke-opacity:1"/>
<path class="bond-1 atom-0 atom-5" d="M 504.3,141.5 L 514.0,124.5" style="fill:none;fill-rule:evenodd;stroke:#000000;stroke-width:2.0px;stroke-linecap:butt;stroke-linejoin:miter;stroke-opacity:1"/>
<path class="bond-2 atom-0 atom-6" d="M 504.3,141.5 L 484.6,141.6" style="fill:none;fill-rule:evenodd;stroke:#000000;stroke-width:2.0px;stroke-linecap:butt;stroke-linejoin:miter;stroke-opacity:1"/>
<path class="bond-3 atom-1 atom-2" d="M 514.1,158.5 L 533.8,158.4" style="fill:none;fill-rule:evenodd;stroke:#000000;stroke-width:2.0px;stroke-linecap:butt;stroke-linejoin:miter;stroke-opacity:1"/>
<path class="bond-4 atom-1 atom-13" d="M 514.1,158.5 L 512.1,163.3" style="fill:none;fill-rule:evenodd;stroke:#000000;stroke-width:2.0px;stroke-linecap:butt;stroke-linejoin:miter;stroke-opacity:1"/>
<path class="bond-4 atom-1 atom-13" d="M 512.1,163.3 L 510.1,168.0" style="fill:none;fill-rule:evenodd;stroke:#00CC00;stroke-width:2.0px;stroke-linecap:butt;stroke-linejoin:miter;stroke-opacity:1"/>
<path class="bond-5 atom-2 atom-3" d="M 533.8,158.4 L 543.6,141.4" style="fill:none;fill-rule:evenodd;stroke:#000000;stroke-width:2.0px;stroke-linecap:butt;stroke-linejoin:miter;stroke-opacity:1"/>
<path class="bond-5 atom-2 atom-3" d="M 531.8,153.9 L 538.7,142.0" style="fill:none;fill-rule:evenodd;stroke:#000000;stroke-width:2.0px;stroke-linecap:butt;stroke-linejoin:miter;stroke-opacity:1"/>
<path class="bond-6 atom-2 atom-12" d="M 533.8,158.4 L 537.8,165.3" style="fill:none;fill-rule:evenodd;stroke:#000000;stroke-width:2.0px;stroke-linecap:butt;stroke-linejoin:miter;stroke-opacity:1"/>
<path class="bond-6 atom-2 atom-12" d="M 537.8,165.3 L 541.8,172.1" style="fill:none;fill-rule:evenodd;stroke:#00CC00;stroke-width:2.0px;stroke-linecap:butt;stroke-linejoin:miter;stroke-opacity:1"/>
<path class="bond-7 atom-3 atom-4" d="M 543.6,141.4 L 533.7,124.4" style="fill:none;fill-rule:evenodd;stroke:#000000;stroke-width:2.0px;stroke-linecap:butt;stroke-linejoin:miter;stroke-opacity:1"/>
<path class="bond-8 atom-3 atom-22" d="M 543.6,141.4 L 560.4,141.3" style="fill:none;fill-rule:evenodd;stroke:#000000;stroke-width:2.0px;stroke-linecap:butt;stroke-linejoin:miter;stroke-opacity:1"/>
<path class="bond-9 atom-4 atom-5" d="M 533.7,124.4 L 514.0,124.5" style="fill:none;fill-rule:evenodd;stroke:#000000;stroke-width:2.0px;stroke-linecap:butt;stroke-linejoin:miter;stroke-opacity:1"/>
<path class="bond-9 atom-4 atom-5" d="M 530.7,128.3 L 517.0,128.4" style="fill:none;fill-rule:evenodd;stroke:#000000;stroke-width:2.0px;stroke-linecap:butt;stroke-linejoin:miter;stroke-opacity:1"/>
<path class="bond-10 atom-4 atom-23" d="M 533.7,124.4 L 541.5,110.7" style="fill:none;fill-rule:evenodd;stroke:#000000;stroke-width:2.0px;stroke-linecap:butt;stroke-linejoin:miter;stroke-opacity:1"/>
<path class="bond-11 atom-5 atom-24" d="M 514.0,124.5 L 506.1,110.9" style="fill:none;fill-rule:evenodd;stroke:#000000;stroke-width:2.0px;stroke-linecap:butt;stroke-linejoin:miter;stroke-opacity:1"/>
<path class="bond-12 atom-6 atom-7" d="M 484.6,141.6 L 480.7,134.8" style="fill:none;fill-rule:evenodd;stroke:#000000;stroke-width:2.0px;stroke-linecap:butt;stroke-linejoin:miter;stroke-opacity:1"/>
<path class="bond-12 atom-6 atom-7" d="M 480.7,134.8 L 476.7,128.0" style="fill:none;fill-rule:evenodd;stroke:#0000FF;stroke-width:2.0px;stroke-linecap:butt;stroke-linejoin:miter;stroke-opacity:1"/>
<path class="bond-12 atom-6 atom-7" d="M 480.0,141.5 L 477.3,136.8" style="fill:none;fill-rule:evenodd;stroke:#000000;stroke-width:2.0px;stroke-linecap:butt;stroke-linejoin:miter;stroke-opacity:1"/>
<path class="bond-12 atom-6 atom-7" d="M 477.3,136.8 L 474.5,132.0" style="fill:none;fill-rule:evenodd;stroke:#0000FF;stroke-width:2.0px;stroke-linecap:butt;stroke-linejoin:miter;stroke-opacity:1"/>
<path class="bond-13 atom-6 atom-11" d="M 484.6,141.6 L 474.8,158.6" style="fill:none;fill-rule:evenodd;stroke:#000000;stroke-width:2.0px;stroke-linecap:butt;stroke-linejoin:miter;stroke-opacity:1"/>
<path class="bond-14 atom-7 atom-8" d="M 472.0,124.6 L 463.5,124.6" style="fill:none;fill-rule:evenodd;stroke:#0000FF;stroke-width:2.0px;stroke-linecap:butt;stroke-linejoin:miter;stroke-opacity:1"/>
<path class="bond-14 atom-7 atom-8" d="M 463.5,124.6 L 455.1,124.7" style="fill:none;fill-rule:evenodd;stroke:#000000;stroke-width:2.0px;stroke-linecap:butt;stroke-linejoin:miter;stroke-opacity:1"/>
<path class="bond-15 atom-8 atom-9" d="M 455.1,124.7 L 445.3,141.7" style="fill:none;fill-rule:evenodd;stroke:#000000;stroke-width:2.0px;stroke-linecap:butt;stroke-linejoin:miter;stroke-opacity:1"/>
<path class="bond-15 atom-8 atom-9" d="M 457.0,129.2 L 450.2,141.1" style="fill:none;fill-rule:evenodd;stroke:#000000;stroke-width:2.0px;stroke-linecap:butt;stroke-linejoin:miter;stroke-opacity:1"/>
<path class="bond-16 atom-8 atom-25" d="M 455.1,124.7 L 447.2,111.1" style="fill:none;fill-rule:evenodd;stroke:#000000;stroke-width:2.0px;stroke-linecap:butt;stroke-linejoin:miter;stroke-opacity:1"/>
<path class="bond-17 atom-9 atom-10" d="M 445.3,141.7 L 449.3,148.5" style="fill:none;fill-rule:evenodd;stroke:#000000;stroke-width:2.0px;stroke-linecap:butt;stroke-linejoin:miter;stroke-opacity:1"/>
<path class="bond-17 atom-9 atom-10" d="M 449.3,148.5 L 453.2,155.3" style="fill:none;fill-rule:evenodd;stroke:#0000FF;stroke-width:2.0px;stroke-linecap:butt;stroke-linejoin:miter;stroke-opacity:1"/>
<path class="bond-18 atom-9 atom-15" d="M 445.3,141.7 L 436.8,141.8" style="fill:none;fill-rule:evenodd;stroke:#000000;stroke-width:2.0px;stroke-linecap:butt;stroke-linejoin:miter;stroke-opacity:1"/>
<path class="bond-18 atom-9 atom-15" d="M 436.8,141.8 L 428.4,141.8" style="fill:none;fill-rule:evenodd;stroke:#0000FF;stroke-width:2.0px;stroke-linecap:butt;stroke-linejoin:miter;stroke-opacity:1"/>
<path class="bond-19 atom-10 atom-11" d="M 457.9,158.7 L 466.4,158.7" style="fill:none;fill-rule:evenodd;stroke:#0000FF;stroke-width:2.0px;stroke-linecap:butt;stroke-linejoin:miter;stroke-opacity:1"/>
<path class="bond-19 atom-10 atom-11" d="M 466.4,158.7 L 474.8,158.6" style="fill:none;fill-rule:evenodd;stroke:#000000;stroke-width:2.0px;stroke-linecap:butt;stroke-linejoin:miter;stroke-opacity:1"/>
<path class="bond-19 atom-10 atom-11" d="M 460.4,154.8 L 466.4,154.7" style="fill:none;fill-rule:evenodd;stroke:#0000FF;stroke-width:2.0px;stroke-linecap:butt;stroke-linejoin:miter;stroke-opacity:1"/>
<path class="bond-19 atom-10 atom-11" d="M 466.4,154.7 L 472.3,154.7" style="fill:none;fill-rule:evenodd;stroke:#000000;stroke-width:2.0px;stroke-linecap:butt;stroke-linejoin:miter;stroke-opacity:1"/>
<path class="bond-20 atom-11 atom-14" d="M 474.8,158.6 L 478.8,165.4" style="fill:none;fill-rule:evenodd;stroke:#000000;stroke-width:2.0px;stroke-linecap:butt;stroke-linejoin:miter;stroke-opacity:1"/>
<path class="bond-20 atom-11 atom-14" d="M 478.8,165.4 L 482.7,172.2" style="fill:none;fill-rule:evenodd;stroke:#0000FF;stroke-width:2.0px;stroke-linecap:butt;stroke-linejoin:miter;stroke-opacity:1"/>
<path class="bond-21 atom-14 atom-26" d="M 487.5,175.9 L 491.1,176.4" style="fill:none;fill-rule:evenodd;stroke:#0000FF;stroke-width:2.0px;stroke-linecap:butt;stroke-linejoin:miter;stroke-opacity:1"/>
<path class="bond-21 atom-14 atom-26" d="M 491.1,176.4 L 494.7,176.8" style="fill:none;fill-rule:evenodd;stroke:#000000;stroke-width:2.0px;stroke-linecap:butt;stroke-linejoin:miter;stroke-opacity:1"/>
<path class="bond-22 atom-14 atom-27" d="M 482.8,179.0 L 479.8,184.1" style="fill:none;fill-rule:evenodd;stroke:#0000FF;stroke-width:2.0px;stroke-linecap:butt;stroke-linejoin:miter;stroke-opacity:1"/>
<path class="bond-22 atom-14 atom-27" d="M 479.8,184.1 L 476.9,189.3" style="fill:none;fill-rule:evenodd;stroke:#000000;stroke-width:2.0px;stroke-linecap:butt;stroke-linejoin:miter;stroke-opacity:1"/>
<path class="bond-23 atom-15 atom-16" d="M 423.2,145.2 L 418.7,151.5" style="fill:none;fill-rule:evenodd;stroke:#0000FF;stroke-width:2.0px;stroke-linecap:butt;stroke-linejoin:miter;stroke-opacity:1"/>
<path class="bond-23 atom-15 atom-16" d="M 418.7,151.5 L 414.2,157.7" style="fill:none;fill-rule:evenodd;stroke:#000000;stroke-width:2.0px;stroke-linecap:butt;stroke-linejoin:miter;stroke-opacity:1"/>
<path class="bond-24 atom-15 atom-19" d="M 423.2,138.4 L 418.6,132.2" style="fill:none;fill-rule:evenodd;stroke:#0000FF;stroke-width:2.0px;stroke-linecap:butt;stroke-linejoin:miter;stroke-opacity:1"/>
<path class="bond-24 atom-15 atom-19" d="M 418.6,132.2 L 414.0,125.9" style="fill:none;fill-rule:evenodd;stroke:#000000;stroke-width:2.0px;stroke-linecap:butt;stroke-linejoin:miter;stroke-opacity:1"/>
<path class="bond-25 atom-16 atom-17" d="M 414.2,157.7 L 395.4,151.7" style="fill:none;fill-rule:evenodd;stroke:#000000;stroke-width:2.0px;stroke-linecap:butt;stroke-linejoin:miter;stroke-opacity:1"/>
<path class="bond-26 atom-16 atom-28" d="M 414.2,157.7 L 428.4,165.9" style="fill:none;fill-rule:evenodd;stroke:#000000;stroke-width:2.0px;stroke-linecap:butt;stroke-linejoin:miter;stroke-opacity:1"/>
<path class="bond-27 atom-16 atom-29" d="M 414.2,157.7 L 407.7,172.3" style="fill:none;fill-rule:evenodd;stroke:#000000;stroke-width:2.0px;stroke-linecap:butt;stroke-linejoin:miter;stroke-opacity:1"/>
<path class="bond-28 atom-17 atom-18" d="M 395.4,151.7 L 395.4,132.1" style="fill:none;fill-rule:evenodd;stroke:#000000;stroke-width:2.0px;stroke-linecap:butt;stroke-linejoin:miter;stroke-opacity:1"/>
<path class="bond-29 atom-17 atom-20" d="M 395.4,151.7 L 375.9,149.7" style="fill:none;fill-rule:evenodd;stroke:#000000;stroke-width:2.0px;stroke-linecap:butt;stroke-linejoin:miter;stroke-opacity:1"/>
<path class="bond-30 atom-17 atom-30" d="M 395.4,151.7 L 394.1,167.3 L 390.4,166.6 Z" style="fill:#000000;fill-rule:evenodd;fill-opacity:1;stroke:#000000;stroke-width:1.0px;stroke-linecap:butt;stroke-linejoin:miter;stroke-opacity:1;"/>
<path class="bond-31 atom-18 atom-19" d="M 395.4,132.1 L 414.0,125.9" style="fill:none;fill-rule:evenodd;stroke:#000000;stroke-width:2.0px;stroke-linecap:butt;stroke-linejoin:miter;stroke-opacity:1"/>
<path class="bond-32 atom-18 atom-31" d="M 395.4,132.1 L 387.7,132.0" style="fill:none;fill-rule:evenodd;stroke:#000000;stroke-width:2.0px;stroke-linecap:butt;stroke-linejoin:miter;stroke-opacity:1"/>
<path class="bond-33 atom-18 atom-32" d="M 395.4,132.1 L 392.0,116.3" style="fill:none;fill-rule:evenodd;stroke:#000000;stroke-width:2.0px;stroke-linecap:butt;stroke-linejoin:miter;stroke-opacity:1"/>
<path class="bond-34 atom-19 atom-33" d="M 414.0,125.9 L 407.5,111.4" style="fill:none;fill-rule:evenodd;stroke:#000000;stroke-width:2.0px;stroke-linecap:butt;stroke-linejoin:miter;stroke-opacity:1"/>
<path class="bond-35 atom-19 atom-34" d="M 414.0,125.9 L 428.2,117.7" style="fill:none;fill-rule:evenodd;stroke:#000000;stroke-width:2.0px;stroke-linecap:butt;stroke-linejoin:miter;stroke-opacity:1"/>
<path class="bond-36 atom-20 atom-21" d="M 375.9,149.7 L 367.5,148.9" style="fill:none;fill-rule:evenodd;stroke:#000000;stroke-width:2.0px;stroke-linecap:butt;stroke-linejoin:miter;stroke-opacity:1"/>
<path class="bond-36 atom-20 atom-21" d="M 367.5,148.9 L 359.1,148.0" style="fill:none;fill-rule:evenodd;stroke:#0000FF;stroke-width:2.0px;stroke-linecap:butt;stroke-linejoin:miter;stroke-opacity:1"/>
<path class="bond-37 atom-20 atom-35" d="M 375.9,149.7 L 374.3,165.9" style="fill:none;fill-rule:evenodd;stroke:#000000;stroke-width:2.0px;stroke-linecap:butt;stroke-linejoin:miter;stroke-opacity:1"/>
<path class="bond-38 atom-20 atom-36" d="M 375.9,149.7 L 375.7,142.7" style="fill:none;fill-rule:evenodd;stroke:#000000;stroke-width:2.0px;stroke-linecap:butt;stroke-linejoin:miter;stroke-opacity:1"/>
<path class="bond-39 atom-21 atom-37" d="M 356.0,151.2 L 355.4,157.5" style="fill:none;fill-rule:evenodd;stroke:#0000FF;stroke-width:2.0px;stroke-linecap:butt;stroke-linejoin:miter;stroke-opacity:1"/>
<path class="bond-39 atom-21 atom-37" d="M 355.4,157.5 L 354.7,163.9" style="fill:none;fill-rule:evenodd;stroke:#000000;stroke-width:2.0px;stroke-linecap:butt;stroke-linejoin:miter;stroke-opacity:1"/>
<path class="bond-40 atom-21 atom-38" d="M 356.7,144.4 L 357.3,138.0" style="fill:none;fill-rule:evenodd;stroke:#0000FF;stroke-width:2.0px;stroke-linecap:butt;stroke-linejoin:miter;stroke-opacity:1"/>
<path class="bond-40 atom-21 atom-38" d="M 357.3,138.0 L 358.0,131.6" style="fill:none;fill-rule:evenodd;stroke:#000000;stroke-width:2.0px;stroke-linecap:butt;stroke-linejoin:miter;stroke-opacity:1"/>
<path class="bond-41 atom-21 atom-39" d="M 353.6,147.5 L 346.6,146.8" style="fill:none;fill-rule:evenodd;stroke:#0000FF;stroke-width:2.0px;stroke-linecap:butt;stroke-linejoin:miter;stroke-opacity:1"/>
<path class="bond-41 atom-21 atom-39" d="M 346.6,146.8 L 339.6,146.1" style="fill:none;fill-rule:evenodd;stroke:#000000;stroke-width:2.0px;stroke-linecap:butt;stroke-linejoin:miter;stroke-opacity:1"/>
<path class="atom-7" d="M 473.5 121.8 L 475.3 124.8 Q 475.5 125.1, 475.8 125.6 Q 476.1 126.1, 476.1 126.1 L 476.1 121.8 L 476.8 121.8 L 476.8 127.4 L 476.1 127.4 L 474.1 124.2 Q 473.9 123.8, 473.6 123.3 Q 473.4 122.9, 473.3 122.8 L 473.3 127.4 L 472.6 127.4 L 472.6 121.8 L 473.5 121.8 " fill="#0000FF"/>
<path class="atom-10" d="M 454.0 155.9 L 455.8 158.9 Q 456.0 159.2, 456.3 159.7 Q 456.5 160.2, 456.6 160.2 L 456.6 155.9 L 457.3 155.9 L 457.3 161.5 L 456.5 161.5 L 454.6 158.3 Q 454.4 157.9, 454.1 157.5 Q 453.9 157.0, 453.8 156.9 L 453.8 161.5 L 453.1 161.5 L 453.1 155.9 L 454.0 155.9 " fill="#0000FF"/>
<path class="atom-12" d="M 541.5 175.6 Q 541.5 174.2, 542.2 173.5 Q 542.8 172.8, 544.1 172.8 Q 545.2 172.8, 545.8 173.6 L 545.3 174.0 Q 544.9 173.4, 544.1 173.4 Q 543.2 173.4, 542.8 174.0 Q 542.3 174.5, 542.3 175.6 Q 542.3 176.7, 542.8 177.3 Q 543.3 177.8, 544.2 177.8 Q 544.8 177.8, 545.5 177.5 L 545.7 178.0 Q 545.4 178.2, 545.0 178.3 Q 544.5 178.5, 544.0 178.5 Q 542.8 178.5, 542.2 177.7 Q 541.5 177.0, 541.5 175.6 " fill="#00CC00"/>
<path class="atom-12" d="M 546.1 172.4 L 546.9 172.4 L 546.9 178.4 L 546.1 178.4 L 546.1 172.4 " fill="#00CC00"/>
<path class="atom-13" d="M 504.2 170.6 Q 504.2 169.2, 504.8 168.5 Q 505.5 167.7, 506.7 167.7 Q 507.9 167.7, 508.5 168.5 L 508.0 169.0 Q 507.5 168.4, 506.7 168.4 Q 505.9 168.4, 505.4 168.9 Q 505.0 169.5, 505.0 170.6 Q 505.0 171.7, 505.4 172.2 Q 505.9 172.8, 506.8 172.8 Q 507.4 172.8, 508.1 172.4 L 508.3 173.0 Q 508.1 173.2, 507.6 173.3 Q 507.2 173.4, 506.7 173.4 Q 505.5 173.4, 504.8 172.7 Q 504.2 172.0, 504.2 170.6 " fill="#00CC00"/>
<path class="atom-13" d="M 508.8 167.4 L 509.5 167.4 L 509.5 173.4 L 508.8 173.4 L 508.8 167.4 " fill="#00CC00"/>
<path class="atom-14" d="M 483.5 172.8 L 485.3 175.8 Q 485.5 176.1, 485.8 176.6 Q 486.1 177.1, 486.1 177.2 L 486.1 172.8 L 486.8 172.8 L 486.8 178.4 L 486.1 178.4 L 484.1 175.2 Q 483.9 174.8, 483.6 174.4 Q 483.4 173.9, 483.3 173.8 L 483.3 178.4 L 482.6 178.4 L 482.6 172.8 L 483.5 172.8 " fill="#0000FF"/>
<path class="atom-15" d="M 424.4 139.0 L 426.2 142.0 Q 426.4 142.2, 426.7 142.8 Q 427.0 143.3, 427.0 143.3 L 427.0 139.0 L 427.8 139.0 L 427.8 144.6 L 427.0 144.6 L 425.0 141.4 Q 424.8 141.0, 424.6 140.5 Q 424.3 140.1, 424.3 140.0 L 424.3 144.6 L 423.5 144.6 L 423.5 139.0 L 424.4 139.0 " fill="#0000FF"/>
<path class="atom-21" d="M 355.1 145.0 L 356.9 147.9 Q 357.1 148.2, 357.4 148.7 Q 357.7 149.3, 357.7 149.3 L 357.7 145.0 L 358.5 145.0 L 358.5 150.5 L 357.7 150.5 L 355.7 147.3 Q 355.5 146.9, 355.3 146.5 Q 355.0 146.1, 355.0 145.9 L 355.0 150.5 L 354.2 150.5 L 354.2 145.0 L 355.1 145.0 " fill="#0000FF"/>
<path class="atom-21" d="M 359.1 146.0 L 360.1 146.0 L 360.1 145.0 L 360.5 145.0 L 360.5 146.0 L 361.5 146.0 L 361.5 146.4 L 360.5 146.4 L 360.5 147.4 L 360.1 147.4 L 360.1 146.4 L 359.1 146.4 L 359.1 146.0 " fill="#0000FF"/>
<path class="atom-22" d="M 561.0 138.5 L 561.8 138.5 L 561.8 140.9 L 564.6 140.9 L 564.6 138.5 L 565.4 138.5 L 565.4 144.1 L 564.6 144.1 L 564.6 141.5 L 561.8 141.5 L 561.8 144.1 L 561.0 144.1 L 561.0 138.5 " fill="#000000"/>
<path class="atom-23" d="M 541.3 104.5 L 542.0 104.5 L 542.0 106.9 L 544.9 106.9 L 544.9 104.5 L 545.6 104.5 L 545.6 110.1 L 544.9 110.1 L 544.9 107.5 L 542.0 107.5 L 542.0 110.1 L 541.3 110.1 L 541.3 104.5 " fill="#000000"/>
<path class="atom-24" d="M 502.0 104.7 L 502.7 104.7 L 502.7 107.1 L 505.6 107.1 L 505.6 104.7 L 506.3 104.7 L 506.3 110.3 L 505.6 110.3 L 505.6 107.7 L 502.7 107.7 L 502.7 110.3 L 502.0 110.3 L 502.0 104.7 " fill="#000000"/>
<path class="atom-25" d="M 443.0 104.9 L 443.8 104.9 L 443.8 107.3 L 446.6 107.3 L 446.6 104.9 L 447.4 104.9 L 447.4 110.5 L 446.6 110.5 L 446.6 107.9 L 443.8 107.9 L 443.8 110.5 L 443.0 110.5 L 443.0 104.9 " fill="#000000"/>
<path class="atom-26" d="M 495.4 174.4 L 496.1 174.4 L 496.1 176.7 L 499.0 176.7 L 499.0 174.4 L 499.7 174.4 L 499.7 179.9 L 499.0 179.9 L 499.0 177.4 L 496.1 177.4 L 496.1 179.9 L 495.4 179.9 L 495.4 174.4 " fill="#000000"/>
<path class="atom-27" d="M 472.8 189.9 L 473.5 189.9 L 473.5 192.3 L 476.4 192.3 L 476.4 189.9 L 477.1 189.9 L 477.1 195.5 L 476.4 195.5 L 476.4 192.9 L 473.5 192.9 L 473.5 195.5 L 472.8 195.5 L 472.8 189.9 " fill="#000000"/>
<path class="atom-28" d="M 429.0 164.7 L 429.8 164.7 L 429.8 167.1 L 432.6 167.1 L 432.6 164.7 L 433.4 164.7 L 433.4 170.3 L 432.6 170.3 L 432.6 167.7 L 429.8 167.7 L 429.8 170.3 L 429.0 170.3 L 429.0 164.7 " fill="#000000"/>
<path class="atom-29" d="M 404.1 172.9 L 404.8 172.9 L 404.8 175.3 L 407.7 175.3 L 407.7 172.9 L 408.4 172.9 L 408.4 178.5 L 407.7 178.5 L 407.7 175.9 L 404.8 175.9 L 404.8 178.5 L 404.1 178.5 L 404.1 172.9 " fill="#000000"/>
<path class="atom-30" d="M 389.3 168.2 L 390.0 168.2 L 390.0 170.5 L 392.9 170.5 L 392.9 168.2 L 393.6 168.2 L 393.6 173.7 L 392.9 173.7 L 392.9 171.2 L 390.0 171.2 L 390.0 173.7 L 389.3 173.7 L 389.3 168.2 " fill="#000000"/>
<path class="atom-31" d="M 382.8 129.2 L 383.5 129.2 L 383.5 131.5 L 386.4 131.5 L 386.4 129.2 L 387.1 129.2 L 387.1 134.7 L 386.4 134.7 L 386.4 132.1 L 383.5 132.1 L 383.5 134.7 L 382.8 134.7 L 382.8 129.2 " fill="#000000"/>
<path class="atom-32" d="M 389.0 110.1 L 389.8 110.1 L 389.8 112.5 L 392.6 112.5 L 392.6 110.1 L 393.4 110.1 L 393.4 115.7 L 392.6 115.7 L 392.6 113.1 L 389.8 113.1 L 389.8 115.7 L 389.0 115.7 L 389.0 110.1 " fill="#000000"/>
<path class="atom-33" d="M 403.8 105.2 L 404.6 105.2 L 404.6 107.6 L 407.4 107.6 L 407.4 105.2 L 408.2 105.2 L 408.2 110.8 L 407.4 110.8 L 407.4 108.2 L 404.6 108.2 L 404.6 110.8 L 403.8 110.8 L 403.8 105.2 " fill="#000000"/>
<path class="atom-34" d="M 428.8 113.3 L 429.6 113.3 L 429.6 115.6 L 432.4 115.6 L 432.4 113.3 L 433.2 113.3 L 433.2 118.8 L 432.4 118.8 L 432.4 116.3 L 429.6 116.3 L 429.6 118.8 L 428.8 118.8 L 428.8 113.3 " fill="#000000"/>
<path class="atom-35" d="M 371.7 166.5 L 372.5 166.5 L 372.5 168.9 L 375.3 168.9 L 375.3 166.5 L 376.1 166.5 L 376.1 172.1 L 375.3 172.1 L 375.3 169.5 L 372.5 169.5 L 372.5 172.1 L 371.7 172.1 L 371.7 166.5 " fill="#000000"/>
<path class="atom-36" d="M 373.5 136.5 L 374.3 136.5 L 374.3 138.9 L 377.1 138.9 L 377.1 136.5 L 377.9 136.5 L 377.9 142.1 L 377.1 142.1 L 377.1 139.5 L 374.3 139.5 L 374.3 142.1 L 373.5 142.1 L 373.5 136.5 " fill="#000000"/>
<path class="atom-37" d="M 352.2 164.5 L 352.9 164.5 L 352.9 166.9 L 355.8 166.9 L 355.8 164.5 L 356.5 164.5 L 356.5 170.1 L 355.8 170.1 L 355.8 167.5 L 352.9 167.5 L 352.9 170.1 L 352.2 170.1 L 352.2 164.5 " fill="#000000"/>
<path class="atom-38" d="M 356.1 125.4 L 356.9 125.4 L 356.9 127.8 L 359.7 127.8 L 359.7 125.4 L 360.5 125.4 L 360.5 131.0 L 359.7 131.0 L 359.7 128.4 L 356.9 128.4 L 356.9 131.0 L 356.1 131.0 L 356.1 125.4 " fill="#000000"/>
<path class="atom-39" d="M 334.6 143.0 L 335.4 143.0 L 335.4 145.4 L 338.2 145.4 L 338.2 143.0 L 339.0 143.0 L 339.0 148.6 L 338.2 148.6 L 338.2 146.0 L 335.4 146.0 L 335.4 148.6 L 334.6 148.6 L 334.6 143.0 " fill="#000000"/>
<text x="300" y="20" font-size="20" font-family="sans-serif" font-weight="normal" letter-spacing="0" text-anchor="middle" fill="black">shp2: SHP099-1 -&gt; E14</text><text x="300" y="35" font-size="15" font-family="sans-serif" font-weight="normal" letter-spacing="0" text-anchor="middle" fill="black"></text><text x="150" y="285" font-size="15" font-family="sans-serif" font-weight="normal" letter-spacing="0" text-anchor="middle" fill="black">SHP099-1</text><text x="450" y="285" font-size="15" font-family="sans-serif" font-weight="normal" letter-spacing="0" text-anchor="middle" fill="black">E14</text></svg>
