<?xml version='1.0' encoding='ASCII' standalone='yes'?>
<svg xmlns="http://www.w3.org/2000/svg" xmlns:rdkit="http://www.rdkit.org/xml" xmlns:xlink="http://www.w3.org/1999/xlink" version="1.1" baseProfile="full" xml:space="preserve" width="600px" height="300px" viewBox="0 0 600 300">
<!-- END OF HEADER -->
<rect style="opacity:1.0;fill:#FFFFFF;stroke:none" width="600.0" height="300.0" x="0.0" y="0.0"> </rect>
<path class="bond-0 atom-0 atom-1" d="M 192.8,150.8 L 197.3,158.0" style="fill:none;fill-rule:evenodd;stroke:#0000FF;stroke-width:2.0px;stroke-linecap:butt;stroke-linejoin:miter;stroke-opacity:1"/>
<path class="bond-0 atom-0 atom-1" d="M 197.3,158.0 L 201.7,165.2" style="fill:none;fill-rule:evenodd;stroke:#000000;stroke-width:2.0px;stroke-linecap:butt;stroke-linejoin:miter;stroke-opacity:1"/>
<path class="bond-1 atom-0 atom-5" d="M 192.5,143.4 L 196.6,135.8" style="fill:none;fill-rule:evenodd;stroke:#0000FF;stroke-width:2.0px;stroke-linecap:butt;stroke-linejoin:miter;stroke-opacity:1"/>
<path class="bond-1 atom-0 atom-5" d="M 196.6,135.8 L 200.7,128.3" style="fill:none;fill-rule:evenodd;stroke:#000000;stroke-width:2.0px;stroke-linecap:butt;stroke-linejoin:miter;stroke-opacity:1"/>
<path class="bond-2 atom-0 atom-15" d="M 187.6,147.1 L 178.4,147.4" style="fill:none;fill-rule:evenodd;stroke:#0000FF;stroke-width:2.0px;stroke-linecap:butt;stroke-linejoin:miter;stroke-opacity:1"/>
<path class="bond-2 atom-0 atom-15" d="M 178.4,147.4 L 169.2,147.7" style="fill:none;fill-rule:evenodd;stroke:#000000;stroke-width:2.0px;stroke-linecap:butt;stroke-linejoin:miter;stroke-opacity:1"/>
<path class="bond-3 atom-1 atom-2" d="M 201.7,165.2 L 223.0,164.6" style="fill:none;fill-rule:evenodd;stroke:#000000;stroke-width:2.0px;stroke-linecap:butt;stroke-linejoin:miter;stroke-opacity:1"/>
<path class="bond-4 atom-1 atom-23" d="M 201.7,165.2 L 202.3,172.8" style="fill:none;fill-rule:evenodd;stroke:#000000;stroke-width:2.0px;stroke-linecap:butt;stroke-linejoin:miter;stroke-opacity:1"/>
<path class="bond-5 atom-1 atom-24" d="M 201.7,165.2 L 184.9,171.9" style="fill:none;fill-rule:evenodd;stroke:#000000;stroke-width:2.0px;stroke-linecap:butt;stroke-linejoin:miter;stroke-opacity:1"/>
<path class="bond-6 atom-2 atom-3" d="M 223.0,164.6 L 227.1,157.1" style="fill:none;fill-rule:evenodd;stroke:#000000;stroke-width:2.0px;stroke-linecap:butt;stroke-linejoin:miter;stroke-opacity:1"/>
<path class="bond-6 atom-2 atom-3" d="M 227.1,157.1 L 231.2,149.6" style="fill:none;fill-rule:evenodd;stroke:#0000FF;stroke-width:2.0px;stroke-linecap:butt;stroke-linejoin:miter;stroke-opacity:1"/>
<path class="bond-7 atom-2 atom-20" d="M 223.0,164.6 L 219.9,185.7" style="fill:none;fill-rule:evenodd;stroke:#000000;stroke-width:2.0px;stroke-linecap:butt;stroke-linejoin:miter;stroke-opacity:1"/>
<path class="bond-8 atom-2 atom-25" d="M 228.3,167.1 L 228.8,165.8" style="fill:none;fill-rule:evenodd;stroke:#000000;stroke-width:1.0px;stroke-linecap:butt;stroke-linejoin:miter;stroke-opacity:1"/>
<path class="bond-8 atom-2 atom-25" d="M 233.6,169.6 L 234.5,167.0" style="fill:none;fill-rule:evenodd;stroke:#000000;stroke-width:1.0px;stroke-linecap:butt;stroke-linejoin:miter;stroke-opacity:1"/>
<path class="bond-8 atom-2 atom-25" d="M 238.9,172.1 L 240.2,168.2" style="fill:none;fill-rule:evenodd;stroke:#000000;stroke-width:1.0px;stroke-linecap:butt;stroke-linejoin:miter;stroke-opacity:1"/>
<path class="bond-9 atom-3 atom-4" d="M 230.9,142.2 L 226.4,134.9" style="fill:none;fill-rule:evenodd;stroke:#0000FF;stroke-width:2.0px;stroke-linecap:butt;stroke-linejoin:miter;stroke-opacity:1"/>
<path class="bond-9 atom-3 atom-4" d="M 226.4,134.9 L 222.0,127.7" style="fill:none;fill-rule:evenodd;stroke:#000000;stroke-width:2.0px;stroke-linecap:butt;stroke-linejoin:miter;stroke-opacity:1"/>
<path class="bond-10 atom-3 atom-26" d="M 238.6,142.1 L 243.1,139.0" style="fill:none;fill-rule:evenodd;stroke:#0000FF;stroke-width:2.0px;stroke-linecap:butt;stroke-linejoin:miter;stroke-opacity:1"/>
<path class="bond-10 atom-3 atom-26" d="M 243.1,139.0 L 247.7,135.9" style="fill:none;fill-rule:evenodd;stroke:#000000;stroke-width:2.0px;stroke-linecap:butt;stroke-linejoin:miter;stroke-opacity:1"/>
<path class="bond-11 atom-3 atom-42" d="M 236.1,148.2 L 241.5,152.5" style="fill:none;fill-rule:evenodd;stroke:#0000FF;stroke-width:2.0px;stroke-linecap:butt;stroke-linejoin:miter;stroke-opacity:1"/>
<path class="bond-11 atom-3 atom-42" d="M 241.5,152.5 L 246.8,156.7" style="fill:none;fill-rule:evenodd;stroke:#000000;stroke-width:2.0px;stroke-linecap:butt;stroke-linejoin:miter;stroke-opacity:1"/>
<path class="bond-12 atom-4 atom-5" d="M 222.0,127.7 L 200.7,128.3" style="fill:none;fill-rule:evenodd;stroke:#000000;stroke-width:2.0px;stroke-linecap:butt;stroke-linejoin:miter;stroke-opacity:1"/>
<path class="bond-13 atom-4 atom-21" d="M 222.0,127.7 L 241.8,119.9" style="fill:none;fill-rule:evenodd;stroke:#000000;stroke-width:2.0px;stroke-linecap:butt;stroke-linejoin:miter;stroke-opacity:1"/>
<path class="bond-14 atom-4 atom-27" d="M 221.5,122.1 L 220.2,122.3" style="fill:none;fill-rule:evenodd;stroke:#000000;stroke-width:1.0px;stroke-linecap:butt;stroke-linejoin:miter;stroke-opacity:1"/>
<path class="bond-14 atom-4 atom-27" d="M 221.1,116.4 L 218.4,117.0" style="fill:none;fill-rule:evenodd;stroke:#000000;stroke-width:1.0px;stroke-linecap:butt;stroke-linejoin:miter;stroke-opacity:1"/>
<path class="bond-14 atom-4 atom-27" d="M 220.6,110.8 L 216.6,111.6" style="fill:none;fill-rule:evenodd;stroke:#000000;stroke-width:1.0px;stroke-linecap:butt;stroke-linejoin:miter;stroke-opacity:1"/>
<path class="bond-15 atom-5 atom-28" d="M 200.7,128.3 L 183.5,122.6" style="fill:none;fill-rule:evenodd;stroke:#000000;stroke-width:2.0px;stroke-linecap:butt;stroke-linejoin:miter;stroke-opacity:1"/>
<path class="bond-16 atom-5 atom-29" d="M 200.7,128.3 L 203.2,110.9" style="fill:none;fill-rule:evenodd;stroke:#000000;stroke-width:2.0px;stroke-linecap:butt;stroke-linejoin:miter;stroke-opacity:1"/>
<path class="bond-17 atom-6 atom-7" d="M 105.3,149.5 L 95.2,168.2" style="fill:none;fill-rule:evenodd;stroke:#000000;stroke-width:2.0px;stroke-linecap:butt;stroke-linejoin:miter;stroke-opacity:1"/>
<path class="bond-17 atom-6 atom-7" d="M 100.1,150.3 L 93.0,163.4" style="fill:none;fill-rule:evenodd;stroke:#000000;stroke-width:2.0px;stroke-linecap:butt;stroke-linejoin:miter;stroke-opacity:1"/>
<path class="bond-18 atom-6 atom-11" d="M 105.3,149.5 L 94.1,131.3" style="fill:none;fill-rule:evenodd;stroke:#000000;stroke-width:2.0px;stroke-linecap:butt;stroke-linejoin:miter;stroke-opacity:1"/>
<path class="bond-19 atom-6 atom-12" d="M 105.3,149.5 L 126.6,148.9" style="fill:none;fill-rule:evenodd;stroke:#000000;stroke-width:2.0px;stroke-linecap:butt;stroke-linejoin:miter;stroke-opacity:1"/>
<path class="bond-20 atom-7 atom-8" d="M 95.2,168.2 L 73.9,168.8" style="fill:none;fill-rule:evenodd;stroke:#000000;stroke-width:2.0px;stroke-linecap:butt;stroke-linejoin:miter;stroke-opacity:1"/>
<path class="bond-21 atom-7 atom-30" d="M 95.2,168.2 L 104.1,182.7" style="fill:none;fill-rule:evenodd;stroke:#000000;stroke-width:2.0px;stroke-linecap:butt;stroke-linejoin:miter;stroke-opacity:1"/>
<path class="bond-22 atom-8 atom-9" d="M 73.9,168.8 L 62.7,150.7" style="fill:none;fill-rule:evenodd;stroke:#000000;stroke-width:2.0px;stroke-linecap:butt;stroke-linejoin:miter;stroke-opacity:1"/>
<path class="bond-22 atom-8 atom-9" d="M 75.8,163.9 L 68.0,151.2" style="fill:none;fill-rule:evenodd;stroke:#000000;stroke-width:2.0px;stroke-linecap:butt;stroke-linejoin:miter;stroke-opacity:1"/>
<path class="bond-23 atom-8 atom-18" d="M 73.9,168.8 L 69.3,177.2" style="fill:none;fill-rule:evenodd;stroke:#000000;stroke-width:2.0px;stroke-linecap:butt;stroke-linejoin:miter;stroke-opacity:1"/>
<path class="bond-23 atom-8 atom-18" d="M 69.3,177.2 L 64.8,185.6" style="fill:none;fill-rule:evenodd;stroke:#00CC00;stroke-width:2.0px;stroke-linecap:butt;stroke-linejoin:miter;stroke-opacity:1"/>
<path class="bond-24 atom-9 atom-10" d="M 62.7,150.7 L 72.8,131.9" style="fill:none;fill-rule:evenodd;stroke:#000000;stroke-width:2.0px;stroke-linecap:butt;stroke-linejoin:miter;stroke-opacity:1"/>
<path class="bond-25 atom-9 atom-22" d="M 62.7,150.7 L 52.6,151.0" style="fill:none;fill-rule:evenodd;stroke:#000000;stroke-width:2.0px;stroke-linecap:butt;stroke-linejoin:miter;stroke-opacity:1"/>
<path class="bond-25 atom-9 atom-22" d="M 52.6,151.0 L 42.5,151.2" style="fill:none;fill-rule:evenodd;stroke:#00CC00;stroke-width:2.0px;stroke-linecap:butt;stroke-linejoin:miter;stroke-opacity:1"/>
<path class="bond-26 atom-10 atom-11" d="M 72.8,131.9 L 94.1,131.3" style="fill:none;fill-rule:evenodd;stroke:#000000;stroke-width:2.0px;stroke-linecap:butt;stroke-linejoin:miter;stroke-opacity:1"/>
<path class="bond-26 atom-10 atom-11" d="M 76.2,136.1 L 91.1,135.7" style="fill:none;fill-rule:evenodd;stroke:#000000;stroke-width:2.0px;stroke-linecap:butt;stroke-linejoin:miter;stroke-opacity:1"/>
<path class="bond-27 atom-10 atom-31" d="M 72.8,131.9 L 63.9,117.5" style="fill:none;fill-rule:evenodd;stroke:#000000;stroke-width:2.0px;stroke-linecap:butt;stroke-linejoin:miter;stroke-opacity:1"/>
<path class="bond-28 atom-11 atom-32" d="M 94.1,131.3 L 97.8,122.0" style="fill:none;fill-rule:evenodd;stroke:#000000;stroke-width:2.0px;stroke-linecap:butt;stroke-linejoin:miter;stroke-opacity:1"/>
<path class="bond-29 atom-12 atom-13" d="M 126.6,148.9 L 137.8,167.0" style="fill:none;fill-rule:evenodd;stroke:#000000;stroke-width:2.0px;stroke-linecap:butt;stroke-linejoin:miter;stroke-opacity:1"/>
<path class="bond-29 atom-12 atom-13" d="M 131.9,149.4 L 139.8,162.1" style="fill:none;fill-rule:evenodd;stroke:#000000;stroke-width:2.0px;stroke-linecap:butt;stroke-linejoin:miter;stroke-opacity:1"/>
<path class="bond-30 atom-12 atom-17" d="M 126.6,148.9 L 136.8,130.1" style="fill:none;fill-rule:evenodd;stroke:#000000;stroke-width:2.0px;stroke-linecap:butt;stroke-linejoin:miter;stroke-opacity:1"/>
<path class="bond-31 atom-13 atom-14" d="M 137.8,167.0 L 147.0,166.8" style="fill:none;fill-rule:evenodd;stroke:#000000;stroke-width:2.0px;stroke-linecap:butt;stroke-linejoin:miter;stroke-opacity:1"/>
<path class="bond-31 atom-13 atom-14" d="M 147.0,166.8 L 156.1,166.5" style="fill:none;fill-rule:evenodd;stroke:#0000FF;stroke-width:2.0px;stroke-linecap:butt;stroke-linejoin:miter;stroke-opacity:1"/>
<path class="bond-32 atom-13 atom-33" d="M 137.8,167.0 L 129.7,182.1" style="fill:none;fill-rule:evenodd;stroke:#000000;stroke-width:2.0px;stroke-linecap:butt;stroke-linejoin:miter;stroke-opacity:1"/>
<path class="bond-33 atom-14 atom-15" d="M 161.1,162.7 L 165.2,155.2" style="fill:none;fill-rule:evenodd;stroke:#0000FF;stroke-width:2.0px;stroke-linecap:butt;stroke-linejoin:miter;stroke-opacity:1"/>
<path class="bond-33 atom-14 atom-15" d="M 165.2,155.2 L 169.2,147.7" style="fill:none;fill-rule:evenodd;stroke:#000000;stroke-width:2.0px;stroke-linecap:butt;stroke-linejoin:miter;stroke-opacity:1"/>
<path class="bond-33 atom-14 atom-15" d="M 158.6,158.4 L 161.4,153.2" style="fill:none;fill-rule:evenodd;stroke:#0000FF;stroke-width:2.0px;stroke-linecap:butt;stroke-linejoin:miter;stroke-opacity:1"/>
<path class="bond-33 atom-14 atom-15" d="M 161.4,153.2 L 164.3,147.9" style="fill:none;fill-rule:evenodd;stroke:#000000;stroke-width:2.0px;stroke-linecap:butt;stroke-linejoin:miter;stroke-opacity:1"/>
<path class="bond-34 atom-15 atom-16" d="M 169.2,147.7 L 164.8,140.4" style="fill:none;fill-rule:evenodd;stroke:#000000;stroke-width:2.0px;stroke-linecap:butt;stroke-linejoin:miter;stroke-opacity:1"/>
<path class="bond-34 atom-15 atom-16" d="M 164.8,140.4 L 160.3,133.2" style="fill:none;fill-rule:evenodd;stroke:#0000FF;stroke-width:2.0px;stroke-linecap:butt;stroke-linejoin:miter;stroke-opacity:1"/>
<path class="bond-35 atom-16 atom-17" d="M 155.1,129.6 L 145.9,129.9" style="fill:none;fill-rule:evenodd;stroke:#0000FF;stroke-width:2.0px;stroke-linecap:butt;stroke-linejoin:miter;stroke-opacity:1"/>
<path class="bond-35 atom-16 atom-17" d="M 145.9,129.9 L 136.8,130.1" style="fill:none;fill-rule:evenodd;stroke:#000000;stroke-width:2.0px;stroke-linecap:butt;stroke-linejoin:miter;stroke-opacity:1"/>
<path class="bond-35 atom-16 atom-17" d="M 152.5,133.9 L 146.1,134.1" style="fill:none;fill-rule:evenodd;stroke:#0000FF;stroke-width:2.0px;stroke-linecap:butt;stroke-linejoin:miter;stroke-opacity:1"/>
<path class="bond-35 atom-16 atom-17" d="M 146.1,134.1 L 139.6,134.3" style="fill:none;fill-rule:evenodd;stroke:#000000;stroke-width:2.0px;stroke-linecap:butt;stroke-linejoin:miter;stroke-opacity:1"/>
<path class="bond-36 atom-17 atom-19" d="M 136.8,130.1 L 132.3,122.9" style="fill:none;fill-rule:evenodd;stroke:#000000;stroke-width:2.0px;stroke-linecap:butt;stroke-linejoin:miter;stroke-opacity:1"/>
<path class="bond-36 atom-17 atom-19" d="M 132.3,122.9 L 127.9,115.7" style="fill:none;fill-rule:evenodd;stroke:#0000FF;stroke-width:2.0px;stroke-linecap:butt;stroke-linejoin:miter;stroke-opacity:1"/>
<path class="bond-37 atom-19 atom-34" d="M 127.6,108.3 L 130.7,102.6" style="fill:none;fill-rule:evenodd;stroke:#0000FF;stroke-width:2.0px;stroke-linecap:butt;stroke-linejoin:miter;stroke-opacity:1"/>
<path class="bond-37 atom-19 atom-34" d="M 130.7,102.6 L 133.7,96.9" style="fill:none;fill-rule:evenodd;stroke:#000000;stroke-width:2.0px;stroke-linecap:butt;stroke-linejoin:miter;stroke-opacity:1"/>
<path class="bond-38 atom-19 atom-35" d="M 122.6,111.7 L 118.7,111.3" style="fill:none;fill-rule:evenodd;stroke:#0000FF;stroke-width:2.0px;stroke-linecap:butt;stroke-linejoin:miter;stroke-opacity:1"/>
<path class="bond-38 atom-19 atom-35" d="M 118.7,111.3 L 114.7,110.9" style="fill:none;fill-rule:evenodd;stroke:#000000;stroke-width:2.0px;stroke-linecap:butt;stroke-linejoin:miter;stroke-opacity:1"/>
<path class="bond-39 atom-20 atom-36" d="M 219.9,185.7 L 238.0,188.4" style="fill:none;fill-rule:evenodd;stroke:#000000;stroke-width:2.0px;stroke-linecap:butt;stroke-linejoin:miter;stroke-opacity:1"/>
<path class="bond-40 atom-20 atom-37" d="M 219.9,185.7 L 211.6,185.5" style="fill:none;fill-rule:evenodd;stroke:#000000;stroke-width:2.0px;stroke-linecap:butt;stroke-linejoin:miter;stroke-opacity:1"/>
<path class="bond-41 atom-20 atom-38" d="M 219.9,185.7 L 217.4,203.1" style="fill:none;fill-rule:evenodd;stroke:#000000;stroke-width:2.0px;stroke-linecap:butt;stroke-linejoin:miter;stroke-opacity:1"/>
<path class="bond-42 atom-21 atom-39" d="M 241.8,119.9 L 250.0,134.9" style="fill:none;fill-rule:evenodd;stroke:#000000;stroke-width:2.0px;stroke-linecap:butt;stroke-linejoin:miter;stroke-opacity:1"/>
<path class="bond-43 atom-21 atom-40" d="M 241.8,119.9 L 235.4,103.7" style="fill:none;fill-rule:evenodd;stroke:#000000;stroke-width:2.0px;stroke-linecap:butt;stroke-linejoin:miter;stroke-opacity:1"/>
<path class="bond-44 atom-21 atom-41" d="M 241.8,119.9 L 258.6,113.2" style="fill:none;fill-rule:evenodd;stroke:#000000;stroke-width:2.0px;stroke-linecap:butt;stroke-linejoin:miter;stroke-opacity:1"/>
<path class="atom-0" d="M 189.2 144.0 L 191.2 147.2 Q 191.4 147.6, 191.7 148.1 Q 192.0 148.7, 192.0 148.7 L 192.0 144.0 L 192.8 144.0 L 192.8 150.1 L 192.0 150.1 L 189.9 146.6 Q 189.6 146.2, 189.4 145.7 Q 189.1 145.2, 189.0 145.1 L 189.0 150.1 L 188.3 150.1 L 188.3 144.0 L 189.2 144.0 " fill="#0000FF"/>
<path class="atom-3" d="M 231.8 142.8 L 233.8 146.0 Q 234.0 146.4, 234.3 146.9 Q 234.6 147.5, 234.7 147.5 L 234.7 142.8 L 235.5 142.8 L 235.5 148.9 L 234.6 148.9 L 232.5 145.4 Q 232.3 145.0, 232.0 144.5 Q 231.7 144.0, 231.7 143.9 L 231.7 148.9 L 230.9 148.9 L 230.9 142.8 L 231.8 142.8 " fill="#0000FF"/>
<path class="atom-3" d="M 236.2 143.9 L 237.2 143.9 L 237.2 142.8 L 237.7 142.8 L 237.7 143.9 L 238.8 143.9 L 238.8 144.3 L 237.7 144.3 L 237.7 145.5 L 237.2 145.5 L 237.2 144.3 L 236.2 144.3 L 236.2 143.9 " fill="#0000FF"/>
<path class="atom-14" d="M 157.8 163.4 L 159.8 166.6 Q 159.9 166.9, 160.3 167.5 Q 160.6 168.1, 160.6 168.1 L 160.6 163.4 L 161.4 163.4 L 161.4 169.4 L 160.6 169.4 L 158.4 165.9 Q 158.2 165.5, 157.9 165.1 Q 157.7 164.6, 157.6 164.4 L 157.6 169.4 L 156.8 169.4 L 156.8 163.4 L 157.8 163.4 " fill="#0000FF"/>
<path class="atom-16" d="M 156.7 126.5 L 158.7 129.7 Q 158.9 130.0, 159.2 130.6 Q 159.5 131.1, 159.6 131.2 L 159.6 126.5 L 160.4 126.5 L 160.4 132.5 L 159.5 132.5 L 157.4 129.0 Q 157.2 128.6, 156.9 128.2 Q 156.6 127.7, 156.6 127.5 L 156.6 132.5 L 155.8 132.5 L 155.8 126.5 L 156.7 126.5 " fill="#0000FF"/>
<path class="atom-18" d="M 58.4 187.8 Q 58.4 186.3, 59.1 185.5 Q 59.8 184.7, 61.1 184.7 Q 62.3 184.7, 63.0 185.6 L 62.5 186.0 Q 62.0 185.4, 61.1 185.4 Q 60.2 185.4, 59.7 186.0 Q 59.2 186.6, 59.2 187.8 Q 59.2 189.0, 59.7 189.6 Q 60.2 190.2, 61.2 190.2 Q 61.9 190.2, 62.6 189.8 L 62.9 190.4 Q 62.6 190.6, 62.1 190.8 Q 61.6 190.9, 61.1 190.9 Q 59.8 190.9, 59.1 190.1 Q 58.4 189.3, 58.4 187.8 " fill="#00CC00"/>
<path class="atom-18" d="M 63.4 184.3 L 64.1 184.3 L 64.1 190.8 L 63.4 190.8 L 63.4 184.3 " fill="#00CC00"/>
<path class="atom-19" d="M 124.3 108.9 L 126.2 112.1 Q 126.4 112.5, 126.7 113.0 Q 127.1 113.6, 127.1 113.6 L 127.1 108.9 L 127.9 108.9 L 127.9 115.0 L 127.1 115.0 L 124.9 111.5 Q 124.7 111.1, 124.4 110.6 Q 124.2 110.1, 124.1 110.0 L 124.1 115.0 L 123.3 115.0 L 123.3 108.9 L 124.3 108.9 " fill="#0000FF"/>
<path class="atom-22" d="M 36.0 151.5 Q 36.0 150.0, 36.7 149.2 Q 37.4 148.4, 38.8 148.4 Q 40.0 148.4, 40.7 149.3 L 40.1 149.7 Q 39.6 149.1, 38.8 149.1 Q 37.8 149.1, 37.4 149.7 Q 36.9 150.3, 36.9 151.5 Q 36.9 152.7, 37.4 153.3 Q 37.9 153.9, 38.9 153.9 Q 39.5 153.9, 40.3 153.5 L 40.5 154.1 Q 40.2 154.3, 39.7 154.5 Q 39.3 154.6, 38.7 154.6 Q 37.4 154.6, 36.7 153.8 Q 36.0 153.0, 36.0 151.5 " fill="#00CC00"/>
<path class="atom-22" d="M 41.0 148.0 L 41.8 148.0 L 41.8 154.5 L 41.0 154.5 L 41.0 148.0 " fill="#00CC00"/>
<path class="atom-23" d="M 200.3 173.5 L 201.1 173.5 L 201.1 176.1 L 204.2 176.1 L 204.2 173.5 L 205.0 173.5 L 205.0 179.5 L 204.2 179.5 L 204.2 176.7 L 201.1 176.7 L 201.1 179.5 L 200.3 179.5 L 200.3 173.5 " fill="#000000"/>
<path class="atom-24" d="M 179.5 170.1 L 180.4 170.1 L 180.4 172.6 L 183.5 172.6 L 183.5 170.1 L 184.3 170.1 L 184.3 176.1 L 183.5 176.1 L 183.5 173.3 L 180.4 173.3 L 180.4 176.1 L 179.5 176.1 L 179.5 170.1 " fill="#000000"/>
<path class="atom-25" d="M 240.9 168.3 L 241.7 168.3 L 241.7 170.9 L 244.8 170.9 L 244.8 168.3 L 245.6 168.3 L 245.6 174.4 L 244.8 174.4 L 244.8 171.6 L 241.7 171.6 L 241.7 174.4 L 240.9 174.4 L 240.9 168.3 " fill="#000000"/>
<path class="atom-26" d="M 248.3 130.7 L 249.2 130.7 L 249.2 133.3 L 252.3 133.3 L 252.3 130.7 L 253.1 130.7 L 253.1 136.8 L 252.3 136.8 L 252.3 134.0 L 249.2 134.0 L 249.2 136.8 L 248.3 136.8 L 248.3 130.7 " fill="#000000"/>
<path class="atom-27" d="M 215.3 103.8 L 216.2 103.8 L 216.2 106.4 L 219.2 106.4 L 219.2 103.8 L 220.1 103.8 L 220.1 109.9 L 219.2 109.9 L 219.2 107.1 L 216.2 107.1 L 216.2 109.9 L 215.3 109.9 L 215.3 103.8 " fill="#000000"/>
<path class="atom-28" d="M 178.1 118.6 L 178.9 118.6 L 178.9 121.1 L 182.0 121.1 L 182.0 118.6 L 182.8 118.6 L 182.8 124.6 L 182.0 124.6 L 182.0 121.8 L 178.9 121.8 L 178.9 124.6 L 178.1 124.6 L 178.1 118.6 " fill="#000000"/>
<path class="atom-29" d="M 201.4 104.2 L 202.3 104.2 L 202.3 106.8 L 205.3 106.8 L 205.3 104.2 L 206.2 104.2 L 206.2 110.2 L 205.3 110.2 L 205.3 107.5 L 202.3 107.5 L 202.3 110.2 L 201.4 110.2 L 201.4 104.2 " fill="#000000"/>
<path class="atom-30" d="M 104.0 183.4 L 104.8 183.4 L 104.8 185.9 L 107.9 185.9 L 107.9 183.4 L 108.7 183.4 L 108.7 189.4 L 107.9 189.4 L 107.9 186.6 L 104.8 186.6 L 104.8 189.4 L 104.0 189.4 L 104.0 183.4 " fill="#000000"/>
<path class="atom-31" d="M 59.3 110.7 L 60.1 110.7 L 60.1 113.3 L 63.2 113.3 L 63.2 110.7 L 64.0 110.7 L 64.0 116.8 L 63.2 116.8 L 63.2 114.0 L 60.1 114.0 L 60.1 116.8 L 59.3 116.8 L 59.3 110.7 " fill="#000000"/>
<path class="atom-32" d="M 96.9 115.3 L 97.7 115.3 L 97.7 117.8 L 100.8 117.8 L 100.8 115.3 L 101.6 115.3 L 101.6 121.3 L 100.8 121.3 L 100.8 118.5 L 97.7 118.5 L 97.7 121.3 L 96.9 121.3 L 96.9 115.3 " fill="#000000"/>
<path class="atom-33" d="M 125.3 182.8 L 126.1 182.8 L 126.1 185.3 L 129.2 185.3 L 129.2 182.8 L 130.0 182.8 L 130.0 188.8 L 129.2 188.8 L 129.2 186.0 L 126.1 186.0 L 126.1 188.8 L 125.3 188.8 L 125.3 182.8 " fill="#000000"/>
<path class="atom-34" d="M 133.4 90.2 L 134.2 90.2 L 134.2 92.8 L 137.3 92.8 L 137.3 90.2 L 138.1 90.2 L 138.1 96.2 L 137.3 96.2 L 137.3 93.4 L 134.2 93.4 L 134.2 96.2 L 133.4 96.2 L 133.4 90.2 " fill="#000000"/>
<path class="atom-35" d="M 109.3 107.6 L 110.1 107.6 L 110.1 110.2 L 113.2 110.2 L 113.2 107.6 L 114.0 107.6 L 114.0 113.7 L 113.2 113.7 L 113.2 110.9 L 110.1 110.9 L 110.1 113.7 L 109.3 113.7 L 109.3 107.6 " fill="#000000"/>
<path class="atom-36" d="M 238.6 185.8 L 239.5 185.8 L 239.5 188.4 L 242.6 188.4 L 242.6 185.8 L 243.4 185.8 L 243.4 191.8 L 242.6 191.8 L 242.6 189.0 L 239.5 189.0 L 239.5 191.8 L 238.6 191.8 L 238.6 185.8 " fill="#000000"/>
<path class="atom-37" d="M 206.2 182.4 L 207.1 182.4 L 207.1 185.0 L 210.1 185.0 L 210.1 182.4 L 211.0 182.4 L 211.0 188.4 L 210.1 188.4 L 210.1 185.7 L 207.1 185.7 L 207.1 188.4 L 206.2 188.4 L 206.2 182.4 " fill="#000000"/>
<path class="atom-38" d="M 214.5 203.8 L 215.3 203.8 L 215.3 206.3 L 218.4 206.3 L 218.4 203.8 L 219.2 203.8 L 219.2 209.8 L 218.4 209.8 L 218.4 207.0 L 215.3 207.0 L 215.3 209.8 L 214.5 209.8 L 214.5 203.8 " fill="#000000"/>
<path class="atom-39" d="M 249.7 135.6 L 250.5 135.6 L 250.5 138.1 L 253.6 138.1 L 253.6 135.6 L 254.4 135.6 L 254.4 141.6 L 253.6 141.6 L 253.6 138.8 L 250.5 138.8 L 250.5 141.6 L 249.7 141.6 L 249.7 135.6 " fill="#000000"/>
<path class="atom-40" d="M 231.6 97.0 L 232.4 97.0 L 232.4 99.6 L 235.5 99.6 L 235.5 97.0 L 236.3 97.0 L 236.3 103.1 L 235.5 103.1 L 235.5 100.3 L 232.4 100.3 L 232.4 103.1 L 231.6 103.1 L 231.6 97.0 " fill="#000000"/>
<path class="atom-41" d="M 259.3 109.0 L 260.1 109.0 L 260.1 111.6 L 263.2 111.6 L 263.2 109.0 L 264.0 109.0 L 264.0 115.0 L 263.2 115.0 L 263.2 112.2 L 260.1 112.2 L 260.1 115.0 L 259.3 115.0 L 259.3 109.0 " fill="#000000"/>
<path class="atom-42" d="M 247.5 156.1 L 248.3 156.1 L 248.3 158.6 L 251.4 158.6 L 251.4 156.1 L 252.2 156.1 L 252.2 162.1 L 251.4 162.1 L 251.4 159.3 L 248.3 159.3 L 248.3 162.1 L 247.5 162.1 L 247.5 156.1 " fill="#000000"/>
<path class="bond-0 atom-0 atom-1" d="M 487.3,151.6 L 490.9,159.4" style="fill:none;fill-rule:evenodd;stroke:#0000FF;stroke-width:2.0px;stroke-linecap:butt;stroke-linejoin:miter;stroke-opacity:1"/>
<path class="bond-0 atom-0 atom-1" d="M 490.9,159.4 L 494.6,167.3" style="fill:none;fill-rule:evenodd;stroke:#000000;stroke-width:2.0px;stroke-linecap:butt;stroke-linejoin:miter;stroke-opacity:1"/>
<path class="bond-1 atom-0 atom-5" d="M 488.2,144.2 L 493.0,137.3" style="fill:none;fill-rule:evenodd;stroke:#0000FF;stroke-width:2.0px;stroke-linecap:butt;stroke-linejoin:miter;stroke-opacity:1"/>
<path class="bond-1 atom-0 atom-5" d="M 493.0,137.3 L 497.9,130.5" style="fill:none;fill-rule:evenodd;stroke:#000000;stroke-width:2.0px;stroke-linecap:butt;stroke-linejoin:miter;stroke-opacity:1"/>
<path class="bond-2 atom-0 atom-15" d="M 482.6,147.7 L 473.5,146.8" style="fill:none;fill-rule:evenodd;stroke:#0000FF;stroke-width:2.0px;stroke-linecap:butt;stroke-linejoin:miter;stroke-opacity:1"/>
<path class="bond-2 atom-0 atom-15" d="M 473.5,146.8 L 464.4,146.0" style="fill:none;fill-rule:evenodd;stroke:#000000;stroke-width:2.0px;stroke-linecap:butt;stroke-linejoin:miter;stroke-opacity:1"/>
<path class="bond-3 atom-1 atom-2" d="M 494.6,167.3 L 515.8,169.1" style="fill:none;fill-rule:evenodd;stroke:#000000;stroke-width:2.0px;stroke-linecap:butt;stroke-linejoin:miter;stroke-opacity:1"/>
<path class="bond-4 atom-1 atom-23" d="M 494.6,167.3 L 496.1,184.8" style="fill:none;fill-rule:evenodd;stroke:#000000;stroke-width:2.0px;stroke-linecap:butt;stroke-linejoin:miter;stroke-opacity:1"/>
<path class="bond-5 atom-1 atom-24" d="M 494.6,167.3 L 477.0,171.9" style="fill:none;fill-rule:evenodd;stroke:#000000;stroke-width:2.0px;stroke-linecap:butt;stroke-linejoin:miter;stroke-opacity:1"/>
<path class="bond-6 atom-2 atom-3" d="M 515.8,169.1 L 528.1,151.7" style="fill:none;fill-rule:evenodd;stroke:#000000;stroke-width:2.0px;stroke-linecap:butt;stroke-linejoin:miter;stroke-opacity:1"/>
<path class="bond-7 atom-2 atom-25" d="M 515.8,169.1 L 530.8,178.6" style="fill:none;fill-rule:evenodd;stroke:#000000;stroke-width:2.0px;stroke-linecap:butt;stroke-linejoin:miter;stroke-opacity:1"/>
<path class="bond-8 atom-2 atom-26" d="M 515.8,169.1 L 511.2,186.0" style="fill:none;fill-rule:evenodd;stroke:#000000;stroke-width:2.0px;stroke-linecap:butt;stroke-linejoin:miter;stroke-opacity:1"/>
<path class="bond-9 atom-3 atom-4" d="M 528.1,151.7 L 519.1,132.4" style="fill:none;fill-rule:evenodd;stroke:#000000;stroke-width:2.0px;stroke-linecap:butt;stroke-linejoin:miter;stroke-opacity:1"/>
<path class="bond-10 atom-3 atom-21" d="M 528.1,151.7 L 545.5,139.5" style="fill:none;fill-rule:evenodd;stroke:#000000;stroke-width:2.0px;stroke-linecap:butt;stroke-linejoin:miter;stroke-opacity:1"/>
<path class="bond-11 atom-3 atom-22" d="M 528.1,151.7 L 534.1,157.8" style="fill:none;fill-rule:evenodd;stroke:#000000;stroke-width:2.0px;stroke-linecap:butt;stroke-linejoin:miter;stroke-opacity:1"/>
<path class="bond-11 atom-3 atom-22" d="M 534.1,157.8 L 540.1,163.8" style="fill:none;fill-rule:evenodd;stroke:#0000FF;stroke-width:2.0px;stroke-linecap:butt;stroke-linejoin:miter;stroke-opacity:1"/>
<path class="bond-12 atom-4 atom-5" d="M 519.1,132.4 L 497.9,130.5" style="fill:none;fill-rule:evenodd;stroke:#000000;stroke-width:2.0px;stroke-linecap:butt;stroke-linejoin:miter;stroke-opacity:1"/>
<path class="bond-13 atom-4 atom-27" d="M 519.1,132.4 L 517.6,114.8" style="fill:none;fill-rule:evenodd;stroke:#000000;stroke-width:2.0px;stroke-linecap:butt;stroke-linejoin:miter;stroke-opacity:1"/>
<path class="bond-14 atom-4 atom-28" d="M 519.1,132.4 L 526.6,129.4" style="fill:none;fill-rule:evenodd;stroke:#000000;stroke-width:2.0px;stroke-linecap:butt;stroke-linejoin:miter;stroke-opacity:1"/>
<path class="bond-15 atom-5 atom-29" d="M 497.9,130.5 L 481.6,122.9" style="fill:none;fill-rule:evenodd;stroke:#000000;stroke-width:2.0px;stroke-linecap:butt;stroke-linejoin:miter;stroke-opacity:1"/>
<path class="bond-16 atom-5 atom-30" d="M 497.9,130.5 L 502.4,113.6" style="fill:none;fill-rule:evenodd;stroke:#000000;stroke-width:2.0px;stroke-linecap:butt;stroke-linejoin:miter;stroke-opacity:1"/>
<path class="bond-17 atom-6 atom-7" d="M 400.7,140.3 L 391.7,121.0" style="fill:none;fill-rule:evenodd;stroke:#000000;stroke-width:2.0px;stroke-linecap:butt;stroke-linejoin:miter;stroke-opacity:1"/>
<path class="bond-17 atom-6 atom-7" d="M 395.5,139.2 L 389.2,125.7" style="fill:none;fill-rule:evenodd;stroke:#000000;stroke-width:2.0px;stroke-linecap:butt;stroke-linejoin:miter;stroke-opacity:1"/>
<path class="bond-18 atom-6 atom-11" d="M 400.7,140.3 L 388.4,157.8" style="fill:none;fill-rule:evenodd;stroke:#000000;stroke-width:2.0px;stroke-linecap:butt;stroke-linejoin:miter;stroke-opacity:1"/>
<path class="bond-19 atom-6 atom-12" d="M 400.7,140.3 L 421.9,142.2" style="fill:none;fill-rule:evenodd;stroke:#000000;stroke-width:2.0px;stroke-linecap:butt;stroke-linejoin:miter;stroke-opacity:1"/>
<path class="bond-20 atom-7 atom-8" d="M 391.7,121.0 L 370.5,119.1" style="fill:none;fill-rule:evenodd;stroke:#000000;stroke-width:2.0px;stroke-linecap:butt;stroke-linejoin:miter;stroke-opacity:1"/>
<path class="bond-21 atom-7 atom-19" d="M 391.7,121.0 L 393.9,116.8" style="fill:none;fill-rule:evenodd;stroke:#000000;stroke-width:2.0px;stroke-linecap:butt;stroke-linejoin:miter;stroke-opacity:1"/>
<path class="bond-21 atom-7 atom-19" d="M 393.9,116.8 L 396.2,112.7" style="fill:none;fill-rule:evenodd;stroke:#00CC00;stroke-width:2.0px;stroke-linecap:butt;stroke-linejoin:miter;stroke-opacity:1"/>
<path class="bond-22 atom-8 atom-9" d="M 370.5,119.1 L 358.2,136.5" style="fill:none;fill-rule:evenodd;stroke:#000000;stroke-width:2.0px;stroke-linecap:butt;stroke-linejoin:miter;stroke-opacity:1"/>
<path class="bond-22 atom-8 atom-9" d="M 372.1,124.2 L 363.5,136.4" style="fill:none;fill-rule:evenodd;stroke:#000000;stroke-width:2.0px;stroke-linecap:butt;stroke-linejoin:miter;stroke-opacity:1"/>
<path class="bond-23 atom-8 atom-18" d="M 370.5,119.1 L 366.5,110.6" style="fill:none;fill-rule:evenodd;stroke:#000000;stroke-width:2.0px;stroke-linecap:butt;stroke-linejoin:miter;stroke-opacity:1"/>
<path class="bond-23 atom-8 atom-18" d="M 366.5,110.6 L 362.6,102.1" style="fill:none;fill-rule:evenodd;stroke:#00CC00;stroke-width:2.0px;stroke-linecap:butt;stroke-linejoin:miter;stroke-opacity:1"/>
<path class="bond-24 atom-9 atom-10" d="M 358.2,136.5 L 367.2,155.9" style="fill:none;fill-rule:evenodd;stroke:#000000;stroke-width:2.0px;stroke-linecap:butt;stroke-linejoin:miter;stroke-opacity:1"/>
<path class="bond-25 atom-9 atom-31" d="M 358.2,136.5 L 340.0,134.9" style="fill:none;fill-rule:evenodd;stroke:#000000;stroke-width:2.0px;stroke-linecap:butt;stroke-linejoin:miter;stroke-opacity:1"/>
<path class="bond-26 atom-10 atom-11" d="M 367.2,155.9 L 388.4,157.8" style="fill:none;fill-rule:evenodd;stroke:#000000;stroke-width:2.0px;stroke-linecap:butt;stroke-linejoin:miter;stroke-opacity:1"/>
<path class="bond-26 atom-10 atom-11" d="M 370.7,151.9 L 385.6,153.2" style="fill:none;fill-rule:evenodd;stroke:#000000;stroke-width:2.0px;stroke-linecap:butt;stroke-linejoin:miter;stroke-opacity:1"/>
<path class="bond-27 atom-10 atom-32" d="M 367.2,155.9 L 362.4,162.7" style="fill:none;fill-rule:evenodd;stroke:#000000;stroke-width:2.0px;stroke-linecap:butt;stroke-linejoin:miter;stroke-opacity:1"/>
<path class="bond-27 atom-10 atom-32" d="M 362.4,162.7 L 357.5,169.6" style="fill:none;fill-rule:evenodd;stroke:#FF0000;stroke-width:2.0px;stroke-linecap:butt;stroke-linejoin:miter;stroke-opacity:1"/>
<path class="bond-28 atom-11 atom-33" d="M 388.4,157.8 L 395.7,173.4" style="fill:none;fill-rule:evenodd;stroke:#000000;stroke-width:2.0px;stroke-linecap:butt;stroke-linejoin:miter;stroke-opacity:1"/>
<path class="bond-29 atom-12 atom-13" d="M 421.9,142.2 L 430.9,161.6" style="fill:none;fill-rule:evenodd;stroke:#000000;stroke-width:2.0px;stroke-linecap:butt;stroke-linejoin:miter;stroke-opacity:1"/>
<path class="bond-29 atom-12 atom-13" d="M 427.1,143.3 L 433.4,156.9" style="fill:none;fill-rule:evenodd;stroke:#000000;stroke-width:2.0px;stroke-linecap:butt;stroke-linejoin:miter;stroke-opacity:1"/>
<path class="bond-30 atom-12 atom-17" d="M 421.9,142.2 L 434.2,124.8" style="fill:none;fill-rule:evenodd;stroke:#000000;stroke-width:2.0px;stroke-linecap:butt;stroke-linejoin:miter;stroke-opacity:1"/>
<path class="bond-31 atom-13 atom-14" d="M 430.9,161.6 L 440.0,162.4" style="fill:none;fill-rule:evenodd;stroke:#000000;stroke-width:2.0px;stroke-linecap:butt;stroke-linejoin:miter;stroke-opacity:1"/>
<path class="bond-31 atom-13 atom-14" d="M 440.0,162.4 L 449.1,163.2" style="fill:none;fill-rule:evenodd;stroke:#0000FF;stroke-width:2.0px;stroke-linecap:butt;stroke-linejoin:miter;stroke-opacity:1"/>
<path class="bond-32 atom-13 atom-46" d="M 430.9,161.6 L 421.2,175.3" style="fill:none;fill-rule:evenodd;stroke:#000000;stroke-width:2.0px;stroke-linecap:butt;stroke-linejoin:miter;stroke-opacity:1"/>
<path class="bond-33 atom-14 atom-15" d="M 454.7,159.8 L 459.5,152.9" style="fill:none;fill-rule:evenodd;stroke:#0000FF;stroke-width:2.0px;stroke-linecap:butt;stroke-linejoin:miter;stroke-opacity:1"/>
<path class="bond-33 atom-14 atom-15" d="M 459.5,152.9 L 464.4,146.0" style="fill:none;fill-rule:evenodd;stroke:#000000;stroke-width:2.0px;stroke-linecap:butt;stroke-linejoin:miter;stroke-opacity:1"/>
<path class="bond-33 atom-14 atom-15" d="M 452.7,155.2 L 456.0,150.4" style="fill:none;fill-rule:evenodd;stroke:#0000FF;stroke-width:2.0px;stroke-linecap:butt;stroke-linejoin:miter;stroke-opacity:1"/>
<path class="bond-33 atom-14 atom-15" d="M 456.0,150.4 L 459.4,145.6" style="fill:none;fill-rule:evenodd;stroke:#000000;stroke-width:2.0px;stroke-linecap:butt;stroke-linejoin:miter;stroke-opacity:1"/>
<path class="bond-34 atom-15 atom-16" d="M 464.4,146.0 L 460.7,138.2" style="fill:none;fill-rule:evenodd;stroke:#000000;stroke-width:2.0px;stroke-linecap:butt;stroke-linejoin:miter;stroke-opacity:1"/>
<path class="bond-34 atom-15 atom-16" d="M 460.7,138.2 L 457.1,130.4" style="fill:none;fill-rule:evenodd;stroke:#0000FF;stroke-width:2.0px;stroke-linecap:butt;stroke-linejoin:miter;stroke-opacity:1"/>
<path class="bond-35 atom-16 atom-17" d="M 452.4,126.4 L 443.3,125.6" style="fill:none;fill-rule:evenodd;stroke:#0000FF;stroke-width:2.0px;stroke-linecap:butt;stroke-linejoin:miter;stroke-opacity:1"/>
<path class="bond-35 atom-16 atom-17" d="M 443.3,125.6 L 434.2,124.8" style="fill:none;fill-rule:evenodd;stroke:#000000;stroke-width:2.0px;stroke-linecap:butt;stroke-linejoin:miter;stroke-opacity:1"/>
<path class="bond-35 atom-16 atom-17" d="M 449.3,130.4 L 442.9,129.9" style="fill:none;fill-rule:evenodd;stroke:#0000FF;stroke-width:2.0px;stroke-linecap:butt;stroke-linejoin:miter;stroke-opacity:1"/>
<path class="bond-35 atom-16 atom-17" d="M 442.9,129.9 L 436.5,129.3" style="fill:none;fill-rule:evenodd;stroke:#000000;stroke-width:2.0px;stroke-linecap:butt;stroke-linejoin:miter;stroke-opacity:1"/>
<path class="bond-36 atom-17 atom-20" d="M 434.2,124.8 L 430.5,117.0" style="fill:none;fill-rule:evenodd;stroke:#000000;stroke-width:2.0px;stroke-linecap:butt;stroke-linejoin:miter;stroke-opacity:1"/>
<path class="bond-36 atom-17 atom-20" d="M 430.5,117.0 L 426.9,109.2" style="fill:none;fill-rule:evenodd;stroke:#0000FF;stroke-width:2.0px;stroke-linecap:butt;stroke-linejoin:miter;stroke-opacity:1"/>
<path class="bond-37 atom-20 atom-34" d="M 427.8,101.8 L 431.3,96.7" style="fill:none;fill-rule:evenodd;stroke:#0000FF;stroke-width:2.0px;stroke-linecap:butt;stroke-linejoin:miter;stroke-opacity:1"/>
<path class="bond-37 atom-20 atom-34" d="M 431.3,96.7 L 434.8,91.7" style="fill:none;fill-rule:evenodd;stroke:#000000;stroke-width:2.0px;stroke-linecap:butt;stroke-linejoin:miter;stroke-opacity:1"/>
<path class="bond-38 atom-20 atom-35" d="M 422.2,104.8 L 418.4,104.0" style="fill:none;fill-rule:evenodd;stroke:#0000FF;stroke-width:2.0px;stroke-linecap:butt;stroke-linejoin:miter;stroke-opacity:1"/>
<path class="bond-38 atom-20 atom-35" d="M 418.4,104.0 L 414.6,103.2" style="fill:none;fill-rule:evenodd;stroke:#000000;stroke-width:2.0px;stroke-linecap:butt;stroke-linejoin:miter;stroke-opacity:1"/>
<path class="bond-39 atom-21 atom-40" d="M 545.5,139.5 L 556.7,152.0" style="fill:none;fill-rule:evenodd;stroke:#000000;stroke-width:2.0px;stroke-linecap:butt;stroke-linejoin:miter;stroke-opacity:1"/>
<path class="bond-40 atom-21 atom-41" d="M 545.5,139.5 L 542.2,133.2" style="fill:none;fill-rule:evenodd;stroke:#000000;stroke-width:2.0px;stroke-linecap:butt;stroke-linejoin:miter;stroke-opacity:1"/>
<path class="bond-41 atom-21 atom-42" d="M 545.5,139.5 L 560.0,129.4" style="fill:none;fill-rule:evenodd;stroke:#000000;stroke-width:2.0px;stroke-linecap:butt;stroke-linejoin:miter;stroke-opacity:1"/>
<path class="bond-42 atom-22 atom-43" d="M 547.9,163.1 L 552.4,159.6" style="fill:none;fill-rule:evenodd;stroke:#0000FF;stroke-width:2.0px;stroke-linecap:butt;stroke-linejoin:miter;stroke-opacity:1"/>
<path class="bond-42 atom-22 atom-43" d="M 552.4,159.6 L 556.9,156.1" style="fill:none;fill-rule:evenodd;stroke:#000000;stroke-width:2.0px;stroke-linecap:butt;stroke-linejoin:miter;stroke-opacity:1"/>
<path class="bond-43 atom-22 atom-44" d="M 540.2,170.5 L 536.5,175.2" style="fill:none;fill-rule:evenodd;stroke:#0000FF;stroke-width:2.0px;stroke-linecap:butt;stroke-linejoin:miter;stroke-opacity:1"/>
<path class="bond-43 atom-22 atom-44" d="M 536.5,175.2 L 532.8,179.9" style="fill:none;fill-rule:evenodd;stroke:#000000;stroke-width:2.0px;stroke-linecap:butt;stroke-linejoin:miter;stroke-opacity:1"/>
<path class="bond-44 atom-22 atom-45" d="M 546.1,169.8 L 550.6,174.3" style="fill:none;fill-rule:evenodd;stroke:#0000FF;stroke-width:2.0px;stroke-linecap:butt;stroke-linejoin:miter;stroke-opacity:1"/>
<path class="bond-44 atom-22 atom-45" d="M 550.6,174.3 L 555.1,178.9" style="fill:none;fill-rule:evenodd;stroke:#000000;stroke-width:2.0px;stroke-linecap:butt;stroke-linejoin:miter;stroke-opacity:1"/>
<path class="bond-45 atom-32 atom-36" d="M 356.7,177.1 L 360.3,184.9" style="fill:none;fill-rule:evenodd;stroke:#FF0000;stroke-width:2.0px;stroke-linecap:butt;stroke-linejoin:miter;stroke-opacity:1"/>
<path class="bond-45 atom-32 atom-36" d="M 360.3,184.9 L 363.9,192.6" style="fill:none;fill-rule:evenodd;stroke:#000000;stroke-width:2.0px;stroke-linecap:butt;stroke-linejoin:miter;stroke-opacity:1"/>
<path class="bond-46 atom-36 atom-37" d="M 363.9,192.6 L 347.6,200.2" style="fill:none;fill-rule:evenodd;stroke:#000000;stroke-width:2.0px;stroke-linecap:butt;stroke-linejoin:miter;stroke-opacity:1"/>
<path class="bond-47 atom-36 atom-38" d="M 363.9,192.6 L 380.2,185.1" style="fill:none;fill-rule:evenodd;stroke:#000000;stroke-width:2.0px;stroke-linecap:butt;stroke-linejoin:miter;stroke-opacity:1"/>
<path class="bond-48 atom-36 atom-39" d="M 363.9,192.6 L 371.2,208.3" style="fill:none;fill-rule:evenodd;stroke:#000000;stroke-width:2.0px;stroke-linecap:butt;stroke-linejoin:miter;stroke-opacity:1"/>
<path class="atom-0" d="M 484.3 144.9 L 486.2 148.1 Q 486.4 148.4, 486.8 149.0 Q 487.1 149.6, 487.1 149.6 L 487.1 144.9 L 487.9 144.9 L 487.9 150.9 L 487.1 150.9 L 484.9 147.4 Q 484.7 147.0, 484.4 146.6 Q 484.2 146.1, 484.1 145.9 L 484.1 150.9 L 483.3 150.9 L 483.3 144.9 L 484.3 144.9 " fill="#0000FF"/>
<path class="atom-14" d="M 450.8 160.4 L 452.7 163.6 Q 452.9 164.0, 453.3 164.5 Q 453.6 165.1, 453.6 165.1 L 453.6 160.4 L 454.4 160.4 L 454.4 166.5 L 453.6 166.5 L 451.4 163.0 Q 451.2 162.6, 450.9 162.1 Q 450.7 161.6, 450.6 161.5 L 450.6 166.5 L 449.8 166.5 L 449.8 160.4 L 450.8 160.4 " fill="#0000FF"/>
<path class="atom-16" d="M 454.1 123.7 L 456.0 126.9 Q 456.2 127.2, 456.5 127.8 Q 456.9 128.3, 456.9 128.4 L 456.9 123.7 L 457.7 123.7 L 457.7 129.7 L 456.9 129.7 L 454.7 126.2 Q 454.5 125.8, 454.2 125.3 Q 454.0 124.9, 453.9 124.7 L 453.9 129.7 L 453.1 129.7 L 453.1 123.7 L 454.1 123.7 " fill="#0000FF"/>
<path class="atom-18" d="M 356.1 100.0 Q 356.1 98.5, 356.8 97.7 Q 357.5 96.9, 358.8 96.9 Q 360.1 96.9, 360.8 97.8 L 360.2 98.2 Q 359.7 97.6, 358.8 97.6 Q 357.9 97.6, 357.5 98.2 Q 357.0 98.8, 357.0 100.0 Q 357.0 101.2, 357.5 101.8 Q 358.0 102.4, 358.9 102.4 Q 359.6 102.4, 360.4 102.0 L 360.6 102.6 Q 360.3 102.8, 359.8 103.0 Q 359.4 103.1, 358.8 103.1 Q 357.5 103.1, 356.8 102.3 Q 356.1 101.5, 356.1 100.0 " fill="#00CC00"/>
<path class="atom-18" d="M 361.1 96.5 L 361.9 96.5 L 361.9 103.0 L 361.1 103.0 L 361.1 96.5 " fill="#00CC00"/>
<path class="atom-19" d="M 396.0 108.9 Q 396.0 107.4, 396.7 106.6 Q 397.4 105.8, 398.7 105.8 Q 399.9 105.8, 400.6 106.7 L 400.0 107.1 Q 399.6 106.5, 398.7 106.5 Q 397.8 106.5, 397.3 107.1 Q 396.8 107.7, 396.8 108.9 Q 396.8 110.1, 397.3 110.7 Q 397.8 111.3, 398.8 111.3 Q 399.5 111.3, 400.2 110.9 L 400.5 111.5 Q 400.2 111.7, 399.7 111.9 Q 399.2 112.0, 398.7 112.0 Q 397.4 112.0, 396.7 111.2 Q 396.0 110.4, 396.0 108.9 " fill="#00CC00"/>
<path class="atom-19" d="M 401.0 105.4 L 401.7 105.4 L 401.7 111.9 L 401.0 111.9 L 401.0 105.4 " fill="#00CC00"/>
<path class="atom-20" d="M 423.9 102.4 L 425.8 105.6 Q 426.0 105.9, 426.3 106.5 Q 426.7 107.1, 426.7 107.1 L 426.7 102.4 L 427.5 102.4 L 427.5 108.5 L 426.6 108.5 L 424.5 105.0 Q 424.3 104.6, 424.0 104.1 Q 423.8 103.6, 423.7 103.5 L 423.7 108.5 L 422.9 108.5 L 422.9 102.4 L 423.9 102.4 " fill="#0000FF"/>
<path class="atom-22" d="M 541.8 163.8 L 543.7 167.0 Q 543.9 167.3, 544.3 167.9 Q 544.6 168.4, 544.6 168.5 L 544.6 163.8 L 545.4 163.8 L 545.4 169.8 L 544.6 169.8 L 542.4 166.3 Q 542.2 165.9, 541.9 165.5 Q 541.7 165.0, 541.6 164.8 L 541.6 169.8 L 540.8 169.8 L 540.8 163.8 L 541.8 163.8 " fill="#0000FF"/>
<path class="atom-22" d="M 546.1 164.9 L 547.2 164.9 L 547.2 163.8 L 547.6 163.8 L 547.6 164.9 L 548.7 164.9 L 548.7 165.3 L 547.6 165.3 L 547.6 166.4 L 547.2 166.4 L 547.2 165.3 L 546.1 165.3 L 546.1 164.9 " fill="#0000FF"/>
<path class="atom-23" d="M 494.0 185.5 L 494.8 185.5 L 494.8 188.0 L 497.9 188.0 L 497.9 185.5 L 498.7 185.5 L 498.7 191.5 L 497.9 191.5 L 497.9 188.7 L 494.8 188.7 L 494.8 191.5 L 494.0 191.5 L 494.0 185.5 " fill="#000000"/>
<path class="atom-24" d="M 471.6 169.7 L 472.4 169.7 L 472.4 172.3 L 475.5 172.3 L 475.5 169.7 L 476.3 169.7 L 476.3 175.8 L 475.5 175.8 L 475.5 173.0 L 472.4 173.0 L 472.4 175.8 L 471.6 175.8 L 471.6 169.7 " fill="#000000"/>
<path class="atom-25" d="M 531.5 177.5 L 532.3 177.5 L 532.3 180.0 L 535.4 180.0 L 535.4 177.5 L 536.2 177.5 L 536.2 183.5 L 535.4 183.5 L 535.4 180.7 L 532.3 180.7 L 532.3 183.5 L 531.5 183.5 L 531.5 177.5 " fill="#000000"/>
<path class="atom-26" d="M 507.9 186.7 L 508.7 186.7 L 508.7 189.3 L 511.8 189.3 L 511.8 186.7 L 512.6 186.7 L 512.6 192.7 L 511.8 192.7 L 511.8 190.0 L 508.7 190.0 L 508.7 192.7 L 507.9 192.7 L 507.9 186.7 " fill="#000000"/>
<path class="atom-27" d="M 514.9 108.1 L 515.7 108.1 L 515.7 110.7 L 518.8 110.7 L 518.8 108.1 L 519.6 108.1 L 519.6 114.2 L 518.8 114.2 L 518.8 111.4 L 515.7 111.4 L 515.7 114.2 L 514.9 114.2 L 514.9 108.1 " fill="#000000"/>
<path class="atom-28" d="M 527.2 125.1 L 528.1 125.1 L 528.1 127.7 L 531.1 127.7 L 531.1 125.1 L 532.0 125.1 L 532.0 131.2 L 531.1 131.2 L 531.1 128.4 L 528.1 128.4 L 528.1 131.2 L 527.2 131.2 L 527.2 125.1 " fill="#000000"/>
<path class="atom-29" d="M 476.2 118.4 L 477.0 118.4 L 477.0 121.0 L 480.1 121.0 L 480.1 118.4 L 480.9 118.4 L 480.9 124.5 L 480.1 124.5 L 480.1 121.7 L 477.0 121.7 L 477.0 124.5 L 476.2 124.5 L 476.2 118.4 " fill="#000000"/>
<path class="atom-30" d="M 501.0 106.9 L 501.9 106.9 L 501.9 109.4 L 505.0 109.4 L 505.0 106.9 L 505.8 106.9 L 505.8 112.9 L 505.0 112.9 L 505.0 110.1 L 501.9 110.1 L 501.9 112.9 L 501.0 112.9 L 501.0 106.9 " fill="#000000"/>
<path class="atom-31" d="M 334.6 131.6 L 335.4 131.6 L 335.4 134.2 L 338.5 134.2 L 338.5 131.6 L 339.3 131.6 L 339.3 137.7 L 338.5 137.7 L 338.5 134.9 L 335.4 134.9 L 335.4 137.7 L 334.6 137.7 L 334.6 131.6 " fill="#000000"/>
<path class="atom-32" d="M 352.2 173.3 Q 352.2 171.9, 352.9 171.1 Q 353.6 170.3, 354.9 170.3 Q 356.3 170.3, 357.0 171.1 Q 357.7 171.9, 357.7 173.3 Q 357.7 174.8, 357.0 175.6 Q 356.2 176.5, 354.9 176.5 Q 353.6 176.5, 352.9 175.6 Q 352.2 174.8, 352.2 173.3 M 354.9 175.8 Q 355.8 175.8, 356.3 175.2 Q 356.8 174.5, 356.8 173.3 Q 356.8 172.1, 356.3 171.5 Q 355.8 170.9, 354.9 170.9 Q 354.0 170.9, 353.5 171.5 Q 353.0 172.1, 353.0 173.3 Q 353.0 174.5, 353.5 175.2 Q 354.0 175.8, 354.9 175.8 " fill="#FF0000"/>
<path class="atom-33" d="M 395.0 174.1 L 395.8 174.1 L 395.8 176.7 L 398.9 176.7 L 398.9 174.1 L 399.7 174.1 L 399.7 180.1 L 398.9 180.1 L 398.9 177.3 L 395.8 177.3 L 395.8 180.1 L 395.0 180.1 L 395.0 174.1 " fill="#000000"/>
<path class="atom-34" d="M 435.1 85.0 L 435.9 85.0 L 435.9 87.6 L 439.0 87.6 L 439.0 85.0 L 439.8 85.0 L 439.8 91.0 L 439.0 91.0 L 439.0 88.2 L 435.9 88.2 L 435.9 91.0 L 435.1 91.0 L 435.1 85.0 " fill="#000000"/>
<path class="atom-35" d="M 409.1 99.5 L 410.0 99.5 L 410.0 102.1 L 413.1 102.1 L 413.1 99.5 L 413.9 99.5 L 413.9 105.5 L 413.1 105.5 L 413.1 102.8 L 410.0 102.8 L 410.0 105.5 L 409.1 105.5 L 409.1 99.5 " fill="#000000"/>
<path class="atom-37" d="M 342.2 198.6 L 343.0 198.6 L 343.0 201.2 L 346.1 201.2 L 346.1 198.6 L 346.9 198.6 L 346.9 204.6 L 346.1 204.6 L 346.1 201.9 L 343.0 201.9 L 343.0 204.6 L 342.2 204.6 L 342.2 198.6 " fill="#000000"/>
<path class="atom-38" d="M 380.9 180.7 L 381.7 180.7 L 381.7 183.2 L 384.8 183.2 L 384.8 180.7 L 385.6 180.7 L 385.6 186.7 L 384.8 186.7 L 384.8 183.9 L 381.7 183.9 L 381.7 186.7 L 380.9 186.7 L 380.9 180.7 " fill="#000000"/>
<path class="atom-39" d="M 370.5 209.0 L 371.3 209.0 L 371.3 211.5 L 374.4 211.5 L 374.4 209.0 L 375.2 209.0 L 375.2 215.0 L 374.4 215.0 L 374.4 212.2 L 371.3 212.2 L 371.3 215.0 L 370.5 215.0 L 370.5 209.0 " fill="#000000"/>
<path class="atom-40" d="M 557.4 152.4 L 558.2 152.4 L 558.2 154.9 L 561.3 154.9 L 561.3 152.4 L 562.1 152.4 L 562.1 158.4 L 561.3 158.4 L 561.3 155.6 L 558.2 155.6 L 558.2 158.4 L 557.4 158.4 L 557.4 152.4 " fill="#000000"/>
<path class="atom-41" d="M 537.9 126.5 L 538.7 126.5 L 538.7 129.1 L 541.8 129.1 L 541.8 126.5 L 542.6 126.5 L 542.6 132.5 L 541.8 132.5 L 541.8 129.7 L 538.7 129.7 L 538.7 132.5 L 537.9 132.5 L 537.9 126.5 " fill="#000000"/>
<path class="atom-42" d="M 560.7 124.3 L 561.5 124.3 L 561.5 126.9 L 564.6 126.9 L 564.6 124.3 L 565.4 124.3 L 565.4 130.3 L 564.6 130.3 L 564.6 127.6 L 561.5 127.6 L 561.5 130.3 L 560.7 130.3 L 560.7 124.3 " fill="#000000"/>
<path class="atom-43" d="M 557.6 150.7 L 558.4 150.7 L 558.4 153.3 L 561.5 153.3 L 561.5 150.7 L 562.3 150.7 L 562.3 156.7 L 561.5 156.7 L 561.5 153.9 L 558.4 153.9 L 558.4 156.7 L 557.6 156.7 L 557.6 150.7 " fill="#000000"/>
<path class="atom-44" d="M 527.6 180.6 L 528.4 180.6 L 528.4 183.1 L 531.5 183.1 L 531.5 180.6 L 532.3 180.6 L 532.3 186.6 L 531.5 186.6 L 531.5 183.8 L 528.4 183.8 L 528.4 186.6 L 527.6 186.6 L 527.6 180.6 " fill="#000000"/>
<path class="atom-45" d="M 555.8 178.9 L 556.6 178.9 L 556.6 181.5 L 559.7 181.5 L 559.7 178.9 L 560.5 178.9 L 560.5 184.9 L 559.7 184.9 L 559.7 182.1 L 556.6 182.1 L 556.6 184.9 L 555.8 184.9 L 555.8 178.9 " fill="#000000"/>
<path class="atom-46" d="M 416.3 176.0 L 417.1 176.0 L 417.1 178.6 L 420.2 178.6 L 420.2 176.0 L 421.0 176.0 L 421.0 182.0 L 420.2 182.0 L 420.2 179.2 L 417.1 179.2 L 417.1 182.0 L 416.3 182.0 L 416.3 176.0 " fill="#000000"/>
<path class="atom-40" d="M 558.4,154.0 L 558.4,156.8 L 561.2,156.8 L 561.2,154.0 L 558.4,154.0" style="fill:none;stroke:#FF0000;stroke-width:2.0px;stroke-linecap:butt;stroke-linejoin:miter;stroke-opacity:1;"/>
<text x="300" y="20" font-size="20" font-family="sans-serif" font-weight="normal" letter-spacing="0" text-anchor="middle" fill="black">shp2: 4 -&gt; E5</text><text x="300" y="35" font-size="15" font-family="sans-serif" font-weight="normal" letter-spacing="0" text-anchor="middle" fill="black"></text><text x="150" y="285" font-size="15" font-family="sans-serif" font-weight="normal" letter-spacing="0" text-anchor="middle" fill="black">4</text><text x="450" y="285" font-size="15" font-family="sans-serif" font-weight="normal" letter-spacing="0" text-anchor="middle" fill="black">E5</text></svg>
