<?xml version='1.0' encoding='ASCII' standalone='yes'?>
<svg xmlns="http://www.w3.org/2000/svg" xmlns:rdkit="http://www.rdkit.org/xml" xmlns:xlink="http://www.w3.org/1999/xlink" version="1.1" baseProfile="full" xml:space="preserve" width="600px" height="300px" viewBox="0 0 600 300">
<!-- END OF HEADER -->
<rect style="opacity:1.0;fill:#FFFFFF;stroke:none" width="600.0" height="300.0" x="0.0" y="0.0"> </rect>
<path class="bond-0 atom-0 atom-1" d="M 218.4,146.8 L 232.9,156.4" style="fill:none;fill-rule:evenodd;stroke:#000000;stroke-width:2.0px;stroke-linecap:butt;stroke-linejoin:miter;stroke-opacity:1"/>
<path class="bond-1 atom-0 atom-5" d="M 218.4,146.8 L 211.8,150.1" style="fill:none;fill-rule:evenodd;stroke:#000000;stroke-width:2.0px;stroke-linecap:butt;stroke-linejoin:miter;stroke-opacity:1"/>
<path class="bond-1 atom-0 atom-5" d="M 211.8,150.1 L 205.2,153.4" style="fill:none;fill-rule:evenodd;stroke:#0000FF;stroke-width:2.0px;stroke-linecap:butt;stroke-linejoin:miter;stroke-opacity:1"/>
<path class="bond-2 atom-0 atom-21" d="M 218.4,146.8 L 210.2,135.8" style="fill:none;fill-rule:evenodd;stroke:#000000;stroke-width:2.0px;stroke-linecap:butt;stroke-linejoin:miter;stroke-opacity:1"/>
<path class="bond-3 atom-0 atom-22" d="M 218.4,146.8 L 227.9,136.7" style="fill:none;fill-rule:evenodd;stroke:#000000;stroke-width:2.0px;stroke-linecap:butt;stroke-linejoin:miter;stroke-opacity:1"/>
<path class="bond-4 atom-1 atom-2" d="M 232.9,156.4 L 232.5,163.6" style="fill:none;fill-rule:evenodd;stroke:#000000;stroke-width:2.0px;stroke-linecap:butt;stroke-linejoin:miter;stroke-opacity:1"/>
<path class="bond-4 atom-1 atom-2" d="M 232.5,163.6 L 232.1,170.8" style="fill:none;fill-rule:evenodd;stroke:#FF0000;stroke-width:2.0px;stroke-linecap:butt;stroke-linejoin:miter;stroke-opacity:1"/>
<path class="bond-5 atom-1 atom-23" d="M 232.9,156.4 L 238.6,143.4" style="fill:none;fill-rule:evenodd;stroke:#000000;stroke-width:2.0px;stroke-linecap:butt;stroke-linejoin:miter;stroke-opacity:1"/>
<path class="bond-6 atom-1 atom-24" d="M 232.9,156.4 L 247.4,159.9" style="fill:none;fill-rule:evenodd;stroke:#000000;stroke-width:2.0px;stroke-linecap:butt;stroke-linejoin:miter;stroke-opacity:1"/>
<path class="bond-7 atom-2 atom-3" d="M 229.0,175.3 L 222.6,178.5" style="fill:none;fill-rule:evenodd;stroke:#FF0000;stroke-width:2.0px;stroke-linecap:butt;stroke-linejoin:miter;stroke-opacity:1"/>
<path class="bond-7 atom-2 atom-3" d="M 222.6,178.5 L 216.3,181.7" style="fill:none;fill-rule:evenodd;stroke:#000000;stroke-width:2.0px;stroke-linecap:butt;stroke-linejoin:miter;stroke-opacity:1"/>
<path class="bond-8 atom-3 atom-4" d="M 216.3,181.7 L 201.7,172.0" style="fill:none;fill-rule:evenodd;stroke:#000000;stroke-width:2.0px;stroke-linecap:butt;stroke-linejoin:miter;stroke-opacity:1"/>
<path class="bond-9 atom-3 atom-25" d="M 216.3,181.7 L 224.4,192.7" style="fill:none;fill-rule:evenodd;stroke:#000000;stroke-width:2.0px;stroke-linecap:butt;stroke-linejoin:miter;stroke-opacity:1"/>
<path class="bond-10 atom-3 atom-26" d="M 216.3,181.7 L 206.7,191.7" style="fill:none;fill-rule:evenodd;stroke:#000000;stroke-width:2.0px;stroke-linecap:butt;stroke-linejoin:miter;stroke-opacity:1"/>
<path class="bond-11 atom-4 atom-5" d="M 201.7,172.0 L 202.1,164.8" style="fill:none;fill-rule:evenodd;stroke:#000000;stroke-width:2.0px;stroke-linecap:butt;stroke-linejoin:miter;stroke-opacity:1"/>
<path class="bond-11 atom-4 atom-5" d="M 202.1,164.8 L 202.5,157.6" style="fill:none;fill-rule:evenodd;stroke:#0000FF;stroke-width:2.0px;stroke-linecap:butt;stroke-linejoin:miter;stroke-opacity:1"/>
<path class="bond-12 atom-4 atom-27" d="M 201.7,172.0 L 196.0,185.0" style="fill:none;fill-rule:evenodd;stroke:#000000;stroke-width:2.0px;stroke-linecap:butt;stroke-linejoin:miter;stroke-opacity:1"/>
<path class="bond-13 atom-4 atom-28" d="M 201.7,172.0 L 187.2,168.6" style="fill:none;fill-rule:evenodd;stroke:#000000;stroke-width:2.0px;stroke-linecap:butt;stroke-linejoin:miter;stroke-opacity:1"/>
<path class="bond-14 atom-5 atom-6" d="M 200.3,153.0 L 194.2,149.0" style="fill:none;fill-rule:evenodd;stroke:#0000FF;stroke-width:2.0px;stroke-linecap:butt;stroke-linejoin:miter;stroke-opacity:1"/>
<path class="bond-14 atom-5 atom-6" d="M 194.2,149.0 L 188.1,145.0" style="fill:none;fill-rule:evenodd;stroke:#000000;stroke-width:2.0px;stroke-linecap:butt;stroke-linejoin:miter;stroke-opacity:1"/>
<path class="bond-15 atom-6 atom-7" d="M 188.1,145.0 L 188.6,137.8" style="fill:none;fill-rule:evenodd;stroke:#000000;stroke-width:2.0px;stroke-linecap:butt;stroke-linejoin:miter;stroke-opacity:1"/>
<path class="bond-15 atom-6 atom-7" d="M 188.6,137.8 L 189.0,130.6" style="fill:none;fill-rule:evenodd;stroke:#0000FF;stroke-width:2.0px;stroke-linecap:butt;stroke-linejoin:miter;stroke-opacity:1"/>
<path class="bond-15 atom-6 atom-7" d="M 184.8,142.6 L 185.1,137.6" style="fill:none;fill-rule:evenodd;stroke:#000000;stroke-width:2.0px;stroke-linecap:butt;stroke-linejoin:miter;stroke-opacity:1"/>
<path class="bond-15 atom-6 atom-7" d="M 185.1,137.6 L 185.4,132.5" style="fill:none;fill-rule:evenodd;stroke:#0000FF;stroke-width:2.0px;stroke-linecap:butt;stroke-linejoin:miter;stroke-opacity:1"/>
<path class="bond-16 atom-6 atom-11" d="M 188.1,145.0 L 172.5,152.8" style="fill:none;fill-rule:evenodd;stroke:#000000;stroke-width:2.0px;stroke-linecap:butt;stroke-linejoin:miter;stroke-opacity:1"/>
<path class="bond-17 atom-7 atom-8" d="M 186.7,125.9 L 180.7,121.9" style="fill:none;fill-rule:evenodd;stroke:#0000FF;stroke-width:2.0px;stroke-linecap:butt;stroke-linejoin:miter;stroke-opacity:1"/>
<path class="bond-17 atom-7 atom-8" d="M 180.7,121.9 L 174.6,117.9" style="fill:none;fill-rule:evenodd;stroke:#000000;stroke-width:2.0px;stroke-linecap:butt;stroke-linejoin:miter;stroke-opacity:1"/>
<path class="bond-18 atom-8 atom-9" d="M 174.6,117.9 L 159.0,125.7" style="fill:none;fill-rule:evenodd;stroke:#000000;stroke-width:2.0px;stroke-linecap:butt;stroke-linejoin:miter;stroke-opacity:1"/>
<path class="bond-18 atom-8 atom-9" d="M 173.8,122.2 L 162.9,127.6" style="fill:none;fill-rule:evenodd;stroke:#000000;stroke-width:2.0px;stroke-linecap:butt;stroke-linejoin:miter;stroke-opacity:1"/>
<path class="bond-19 atom-8 atom-29" d="M 174.6,117.9 L 175.5,103.5" style="fill:none;fill-rule:evenodd;stroke:#000000;stroke-width:2.0px;stroke-linecap:butt;stroke-linejoin:miter;stroke-opacity:1"/>
<path class="bond-20 atom-9 atom-10" d="M 159.0,125.7 L 158.5,132.9" style="fill:none;fill-rule:evenodd;stroke:#000000;stroke-width:2.0px;stroke-linecap:butt;stroke-linejoin:miter;stroke-opacity:1"/>
<path class="bond-20 atom-9 atom-10" d="M 158.5,132.9 L 158.1,140.1" style="fill:none;fill-rule:evenodd;stroke:#0000FF;stroke-width:2.0px;stroke-linecap:butt;stroke-linejoin:miter;stroke-opacity:1"/>
<path class="bond-21 atom-9 atom-30" d="M 159.0,125.7 L 146.9,117.7" style="fill:none;fill-rule:evenodd;stroke:#000000;stroke-width:2.0px;stroke-linecap:butt;stroke-linejoin:miter;stroke-opacity:1"/>
<path class="bond-22 atom-10 atom-11" d="M 160.4,144.8 L 166.4,148.8" style="fill:none;fill-rule:evenodd;stroke:#0000FF;stroke-width:2.0px;stroke-linecap:butt;stroke-linejoin:miter;stroke-opacity:1"/>
<path class="bond-22 atom-10 atom-11" d="M 166.4,148.8 L 172.5,152.8" style="fill:none;fill-rule:evenodd;stroke:#000000;stroke-width:2.0px;stroke-linecap:butt;stroke-linejoin:miter;stroke-opacity:1"/>
<path class="bond-23 atom-10 atom-14" d="M 155.5,145.1 L 149.9,149.6" style="fill:none;fill-rule:evenodd;stroke:#0000FF;stroke-width:2.0px;stroke-linecap:butt;stroke-linejoin:miter;stroke-opacity:1"/>
<path class="bond-23 atom-10 atom-14" d="M 149.9,149.6 L 144.3,154.0" style="fill:none;fill-rule:evenodd;stroke:#000000;stroke-width:2.0px;stroke-linecap:butt;stroke-linejoin:miter;stroke-opacity:1"/>
<path class="bond-24 atom-11 atom-12" d="M 172.5,152.8 L 170.6,159.7" style="fill:none;fill-rule:evenodd;stroke:#000000;stroke-width:2.0px;stroke-linecap:butt;stroke-linejoin:miter;stroke-opacity:1"/>
<path class="bond-24 atom-11 atom-12" d="M 170.6,159.7 L 168.7,166.6" style="fill:none;fill-rule:evenodd;stroke:#0000FF;stroke-width:2.0px;stroke-linecap:butt;stroke-linejoin:miter;stroke-opacity:1"/>
<path class="bond-24 atom-11 atom-12" d="M 168.6,153.9 L 167.2,158.7" style="fill:none;fill-rule:evenodd;stroke:#000000;stroke-width:2.0px;stroke-linecap:butt;stroke-linejoin:miter;stroke-opacity:1"/>
<path class="bond-24 atom-11 atom-12" d="M 167.2,158.7 L 165.9,163.6" style="fill:none;fill-rule:evenodd;stroke:#0000FF;stroke-width:2.0px;stroke-linecap:butt;stroke-linejoin:miter;stroke-opacity:1"/>
<path class="bond-25 atom-12 atom-13" d="M 165.4,169.7 L 157.9,170.1" style="fill:none;fill-rule:evenodd;stroke:#0000FF;stroke-width:2.0px;stroke-linecap:butt;stroke-linejoin:miter;stroke-opacity:1"/>
<path class="bond-25 atom-12 atom-13" d="M 157.9,170.1 L 150.4,170.4" style="fill:none;fill-rule:evenodd;stroke:#000000;stroke-width:2.0px;stroke-linecap:butt;stroke-linejoin:miter;stroke-opacity:1"/>
<path class="bond-26 atom-13 atom-14" d="M 150.4,170.4 L 144.3,154.0" style="fill:none;fill-rule:evenodd;stroke:#000000;stroke-width:2.0px;stroke-linecap:butt;stroke-linejoin:miter;stroke-opacity:1"/>
<path class="bond-26 atom-13 atom-14" d="M 152.7,166.7 L 148.4,155.3" style="fill:none;fill-rule:evenodd;stroke:#000000;stroke-width:2.0px;stroke-linecap:butt;stroke-linejoin:miter;stroke-opacity:1"/>
<path class="bond-27 atom-13 atom-36" d="M 150.4,170.4 L 140.8,185.0" style="fill:none;fill-rule:evenodd;stroke:#000000;stroke-width:2.0px;stroke-linecap:butt;stroke-linejoin:miter;stroke-opacity:1"/>
<path class="bond-28 atom-14 atom-15" d="M 144.3,154.0 L 127.4,149.4" style="fill:none;fill-rule:evenodd;stroke:#000000;stroke-width:2.0px;stroke-linecap:butt;stroke-linejoin:miter;stroke-opacity:1"/>
<path class="bond-29 atom-15 atom-16" d="M 127.4,149.4 L 113.7,160.3" style="fill:none;fill-rule:evenodd;stroke:#000000;stroke-width:2.0px;stroke-linecap:butt;stroke-linejoin:miter;stroke-opacity:1"/>
<path class="bond-29 atom-15 atom-16" d="M 123.2,148.3 L 113.6,155.9" style="fill:none;fill-rule:evenodd;stroke:#000000;stroke-width:2.0px;stroke-linecap:butt;stroke-linejoin:miter;stroke-opacity:1"/>
<path class="bond-30 atom-15 atom-17" d="M 127.4,149.4 L 121.3,133.0" style="fill:none;fill-rule:evenodd;stroke:#000000;stroke-width:2.0px;stroke-linecap:butt;stroke-linejoin:miter;stroke-opacity:1"/>
<path class="bond-31 atom-16 atom-19" d="M 113.7,160.3 L 107.7,156.3" style="fill:none;fill-rule:evenodd;stroke:#000000;stroke-width:2.0px;stroke-linecap:butt;stroke-linejoin:miter;stroke-opacity:1"/>
<path class="bond-31 atom-16 atom-19" d="M 107.7,156.3 L 101.6,152.3" style="fill:none;fill-rule:evenodd;stroke:#0000FF;stroke-width:2.0px;stroke-linecap:butt;stroke-linejoin:miter;stroke-opacity:1"/>
<path class="bond-32 atom-16 atom-31" d="M 113.7,160.3 L 114.4,174.7" style="fill:none;fill-rule:evenodd;stroke:#000000;stroke-width:2.0px;stroke-linecap:butt;stroke-linejoin:miter;stroke-opacity:1"/>
<path class="bond-33 atom-17 atom-18" d="M 121.3,133.0 L 113.8,133.4" style="fill:none;fill-rule:evenodd;stroke:#000000;stroke-width:2.0px;stroke-linecap:butt;stroke-linejoin:miter;stroke-opacity:1"/>
<path class="bond-33 atom-17 atom-18" d="M 113.8,133.4 L 106.3,133.7" style="fill:none;fill-rule:evenodd;stroke:#0000FF;stroke-width:2.0px;stroke-linecap:butt;stroke-linejoin:miter;stroke-opacity:1"/>
<path class="bond-33 atom-17 atom-18" d="M 119.2,136.6 L 113.9,136.8" style="fill:none;fill-rule:evenodd;stroke:#000000;stroke-width:2.0px;stroke-linecap:butt;stroke-linejoin:miter;stroke-opacity:1"/>
<path class="bond-33 atom-17 atom-18" d="M 113.9,136.8 L 108.7,137.1" style="fill:none;fill-rule:evenodd;stroke:#0000FF;stroke-width:2.0px;stroke-linecap:butt;stroke-linejoin:miter;stroke-opacity:1"/>
<path class="bond-34 atom-17 atom-32" d="M 121.3,133.0 L 128.9,121.5" style="fill:none;fill-rule:evenodd;stroke:#000000;stroke-width:2.0px;stroke-linecap:butt;stroke-linejoin:miter;stroke-opacity:1"/>
<path class="bond-35 atom-18 atom-19" d="M 103.0,136.8 L 100.0,147.6" style="fill:none;fill-rule:evenodd;stroke:#0000FF;stroke-width:2.0px;stroke-linecap:butt;stroke-linejoin:miter;stroke-opacity:1"/>
<path class="bond-36 atom-19 atom-20" d="M 96.7,151.6 L 89.7,154.2" style="fill:none;fill-rule:evenodd;stroke:#0000FF;stroke-width:2.0px;stroke-linecap:butt;stroke-linejoin:miter;stroke-opacity:1"/>
<path class="bond-36 atom-19 atom-20" d="M 89.7,154.2 L 82.8,156.8" style="fill:none;fill-rule:evenodd;stroke:#000000;stroke-width:2.0px;stroke-linecap:butt;stroke-linejoin:miter;stroke-opacity:1"/>
<path class="bond-37 atom-20 atom-33" d="M 82.8,156.8 L 77.8,143.5" style="fill:none;fill-rule:evenodd;stroke:#000000;stroke-width:2.0px;stroke-linecap:butt;stroke-linejoin:miter;stroke-opacity:1"/>
<path class="bond-38 atom-20 atom-34" d="M 82.8,156.8 L 87.8,170.1" style="fill:none;fill-rule:evenodd;stroke:#000000;stroke-width:2.0px;stroke-linecap:butt;stroke-linejoin:miter;stroke-opacity:1"/>
<path class="bond-39 atom-20 atom-40" d="M 82.8,156.8 L 66.4,162.9" style="fill:none;fill-rule:evenodd;stroke:#000000;stroke-width:2.0px;stroke-linecap:butt;stroke-linejoin:miter;stroke-opacity:1"/>
<path class="bond-40 atom-35 atom-40" d="M 61.4,149.6 L 63.9,156.3" style="fill:none;fill-rule:evenodd;stroke:#33CCCC;stroke-width:2.0px;stroke-linecap:butt;stroke-linejoin:miter;stroke-opacity:1"/>
<path class="bond-40 atom-35 atom-40" d="M 63.9,156.3 L 66.4,162.9" style="fill:none;fill-rule:evenodd;stroke:#000000;stroke-width:2.0px;stroke-linecap:butt;stroke-linejoin:miter;stroke-opacity:1"/>
<path class="bond-41 atom-36 atom-37" d="M 140.8,185.0 L 128.7,177.0" style="fill:none;fill-rule:evenodd;stroke:#000000;stroke-width:2.0px;stroke-linecap:butt;stroke-linejoin:miter;stroke-opacity:1"/>
<path class="bond-42 atom-36 atom-38" d="M 140.8,185.0 L 152.8,193.0" style="fill:none;fill-rule:evenodd;stroke:#000000;stroke-width:2.0px;stroke-linecap:butt;stroke-linejoin:miter;stroke-opacity:1"/>
<path class="bond-43 atom-36 atom-39" d="M 140.8,185.0 L 133.1,196.5" style="fill:none;fill-rule:evenodd;stroke:#000000;stroke-width:2.0px;stroke-linecap:butt;stroke-linejoin:miter;stroke-opacity:1"/>
<path class="bond-44 atom-40 atom-41" d="M 66.4,162.9 L 68.9,169.6" style="fill:none;fill-rule:evenodd;stroke:#000000;stroke-width:2.0px;stroke-linecap:butt;stroke-linejoin:miter;stroke-opacity:1"/>
<path class="bond-44 atom-40 atom-41" d="M 68.9,169.6 L 71.4,176.2" style="fill:none;fill-rule:evenodd;stroke:#33CCCC;stroke-width:2.0px;stroke-linecap:butt;stroke-linejoin:miter;stroke-opacity:1"/>
<path class="bond-45 atom-40 atom-42" d="M 66.4,162.9 L 52.6,168.1" style="fill:none;fill-rule:evenodd;stroke:#000000;stroke-width:2.0px;stroke-linecap:butt;stroke-linejoin:miter;stroke-opacity:1"/>
<path class="atom-2" d="M 229.6 173.9 Q 229.6 172.7, 230.2 172.0 Q 230.8 171.4, 231.9 171.4 Q 233.0 171.4, 233.6 172.0 Q 234.2 172.7, 234.2 173.9 Q 234.2 175.1, 233.6 175.8 Q 233.0 176.4, 231.9 176.4 Q 230.8 176.4, 230.2 175.8 Q 229.6 175.1, 229.6 173.9 M 231.9 175.9 Q 232.6 175.9, 233.0 175.4 Q 233.5 174.9, 233.5 173.9 Q 233.5 172.9, 233.0 172.4 Q 232.6 171.9, 231.9 171.9 Q 231.1 171.9, 230.7 172.4 Q 230.3 172.9, 230.3 173.9 Q 230.3 174.9, 230.7 175.4 Q 231.1 175.9, 231.9 175.9 " fill="#FF0000"/>
<path class="atom-5" d="M 201.6 152.1 L 203.2 154.7 Q 203.4 155.0, 203.7 155.5 Q 203.9 155.9, 203.9 156.0 L 203.9 152.1 L 204.6 152.1 L 204.6 157.1 L 203.9 157.1 L 202.2 154.2 Q 202.0 153.9, 201.8 153.5 Q 201.5 153.1, 201.5 153.0 L 201.5 157.1 L 200.8 157.1 L 200.8 152.1 L 201.6 152.1 " fill="#0000FF"/>
<path class="atom-7" d="M 188.1 125.0 L 189.7 127.7 Q 189.9 127.9, 190.1 128.4 Q 190.4 128.9, 190.4 128.9 L 190.4 125.0 L 191.1 125.0 L 191.1 130.0 L 190.4 130.0 L 188.6 127.1 Q 188.4 126.8, 188.2 126.4 Q 188.0 126.0, 188.0 125.9 L 188.0 130.0 L 187.3 130.0 L 187.3 125.0 L 188.1 125.0 " fill="#0000FF"/>
<path class="atom-10" d="M 156.8 140.7 L 158.4 143.3 Q 158.6 143.5, 158.9 144.0 Q 159.1 144.5, 159.1 144.5 L 159.1 140.7 L 159.8 140.7 L 159.8 145.6 L 159.1 145.6 L 157.4 142.7 Q 157.2 142.4, 157.0 142.0 Q 156.7 141.6, 156.7 141.5 L 156.7 145.6 L 156.0 145.6 L 156.0 140.7 L 156.8 140.7 " fill="#0000FF"/>
<path class="atom-12" d="M 166.8 167.1 L 168.4 169.8 Q 168.5 170.0, 168.8 170.5 Q 169.1 171.0, 169.1 171.0 L 169.1 167.1 L 169.7 167.1 L 169.7 172.1 L 169.0 172.1 L 167.3 169.2 Q 167.1 168.9, 166.9 168.5 Q 166.7 168.1, 166.6 168.0 L 166.6 172.1 L 166.0 172.1 L 166.0 167.1 L 166.8 167.1 " fill="#0000FF"/>
<path class="atom-18" d="M 102.7 131.3 L 104.3 133.9 Q 104.5 134.2, 104.8 134.7 Q 105.0 135.1, 105.0 135.2 L 105.0 131.3 L 105.7 131.3 L 105.7 136.3 L 105.0 136.3 L 103.3 133.4 Q 103.1 133.1, 102.9 132.7 Q 102.6 132.3, 102.6 132.2 L 102.6 136.3 L 101.9 136.3 L 101.9 131.3 L 102.7 131.3 " fill="#0000FF"/>
<path class="atom-19" d="M 98.1 148.2 L 99.7 150.8 Q 99.8 151.0, 100.1 151.5 Q 100.4 152.0, 100.4 152.0 L 100.4 148.2 L 101.0 148.2 L 101.0 153.1 L 100.4 153.1 L 98.6 150.2 Q 98.4 149.9, 98.2 149.5 Q 98.0 149.1, 97.9 149.0 L 97.9 153.1 L 97.3 153.1 L 97.3 148.2 L 98.1 148.2 " fill="#0000FF"/>
<path class="atom-21" d="M 206.0 130.3 L 206.7 130.3 L 206.7 132.4 L 209.2 132.4 L 209.2 130.3 L 209.9 130.3 L 209.9 135.2 L 209.2 135.2 L 209.2 132.9 L 206.7 132.9 L 206.7 135.2 L 206.0 135.2 L 206.0 130.3 " fill="#000000"/>
<path class="atom-22" d="M 228.4 131.6 L 229.1 131.6 L 229.1 133.7 L 231.6 133.7 L 231.6 131.6 L 232.3 131.6 L 232.3 136.6 L 231.6 136.6 L 231.6 134.3 L 229.1 134.3 L 229.1 136.6 L 228.4 136.6 L 228.4 131.6 " fill="#000000"/>
<path class="atom-23" d="M 238.0 137.9 L 238.6 137.9 L 238.6 140.0 L 241.2 140.0 L 241.2 137.9 L 241.8 137.9 L 241.8 142.8 L 241.2 142.8 L 241.2 140.6 L 238.6 140.6 L 238.6 142.8 L 238.0 142.8 L 238.0 137.9 " fill="#000000"/>
<path class="atom-24" d="M 248.0 158.0 L 248.7 158.0 L 248.7 160.1 L 251.2 160.1 L 251.2 158.0 L 251.9 158.0 L 251.9 162.9 L 251.2 162.9 L 251.2 160.7 L 248.7 160.7 L 248.7 162.9 L 248.0 162.9 L 248.0 158.0 " fill="#000000"/>
<path class="atom-25" d="M 224.7 193.2 L 225.4 193.2 L 225.4 195.3 L 227.9 195.3 L 227.9 193.2 L 228.6 193.2 L 228.6 198.2 L 227.9 198.2 L 227.9 195.9 L 225.4 195.9 L 225.4 198.2 L 224.7 198.2 L 224.7 193.2 " fill="#000000"/>
<path class="atom-26" d="M 202.3 191.9 L 203.0 191.9 L 203.0 194.0 L 205.5 194.0 L 205.5 191.9 L 206.2 191.9 L 206.2 196.8 L 205.5 196.8 L 205.5 194.5 L 203.0 194.5 L 203.0 196.8 L 202.3 196.8 L 202.3 191.9 " fill="#000000"/>
<path class="atom-27" d="M 192.8 185.6 L 193.5 185.6 L 193.5 187.7 L 196.0 187.7 L 196.0 185.6 L 196.7 185.6 L 196.7 190.5 L 196.0 190.5 L 196.0 188.3 L 193.5 188.3 L 193.5 190.5 L 192.8 190.5 L 192.8 185.6 " fill="#000000"/>
<path class="atom-28" d="M 182.7 165.5 L 183.4 165.5 L 183.4 167.6 L 185.9 167.6 L 185.9 165.5 L 186.6 165.5 L 186.6 170.4 L 185.9 170.4 L 185.9 168.2 L 183.4 168.2 L 183.4 170.4 L 182.7 170.4 L 182.7 165.5 " fill="#000000"/>
<path class="atom-29" d="M 173.7 98.0 L 174.4 98.0 L 174.4 100.1 L 176.9 100.1 L 176.9 98.0 L 177.6 98.0 L 177.6 102.9 L 176.9 102.9 L 176.9 100.6 L 174.4 100.6 L 174.4 102.9 L 173.7 102.9 L 173.7 98.0 " fill="#000000"/>
<path class="atom-30" d="M 142.5 113.6 L 143.1 113.6 L 143.1 115.7 L 145.7 115.7 L 145.7 113.6 L 146.3 113.6 L 146.3 118.5 L 145.7 118.5 L 145.7 116.3 L 143.1 116.3 L 143.1 118.5 L 142.5 118.5 L 142.5 113.6 " fill="#000000"/>
<path class="atom-31" d="M 112.6 175.3 L 113.3 175.3 L 113.3 177.4 L 115.8 177.4 L 115.8 175.3 L 116.5 175.3 L 116.5 180.2 L 115.8 180.2 L 115.8 177.9 L 113.3 177.9 L 113.3 180.2 L 112.6 180.2 L 112.6 175.3 " fill="#000000"/>
<path class="atom-32" d="M 129.0 116.0 L 129.6 116.0 L 129.6 118.1 L 132.2 118.1 L 132.2 116.0 L 132.8 116.0 L 132.8 120.9 L 132.2 120.9 L 132.2 118.6 L 129.6 118.6 L 129.6 120.9 L 129.0 120.9 L 129.0 116.0 " fill="#000000"/>
<path class="atom-33" d="M 74.7 137.9 L 75.4 137.9 L 75.4 140.0 L 77.9 140.0 L 77.9 137.9 L 78.6 137.9 L 78.6 142.9 L 77.9 142.9 L 77.9 140.6 L 75.4 140.6 L 75.4 142.9 L 74.7 142.9 L 74.7 137.9 " fill="#000000"/>
<path class="atom-34" d="M 87.0 170.7 L 87.7 170.7 L 87.7 172.8 L 90.2 172.8 L 90.2 170.7 L 90.9 170.7 L 90.9 175.6 L 90.2 175.6 L 90.2 173.3 L 87.7 173.3 L 87.7 175.6 L 87.0 175.6 L 87.0 170.7 " fill="#000000"/>
<path class="atom-35" d="M 58.8 144.1 L 61.8 144.1 L 61.8 144.6 L 59.5 144.6 L 59.5 146.1 L 61.5 146.1 L 61.5 146.7 L 59.5 146.7 L 59.5 149.0 L 58.8 149.0 L 58.8 144.1 " fill="#33CCCC"/>
<path class="atom-37" d="M 124.2 172.9 L 124.9 172.9 L 124.9 175.0 L 127.4 175.0 L 127.4 172.9 L 128.1 172.9 L 128.1 177.8 L 127.4 177.8 L 127.4 175.5 L 124.9 175.5 L 124.9 177.8 L 124.2 177.8 L 124.2 172.9 " fill="#000000"/>
<path class="atom-38" d="M 153.4 192.1 L 154.1 192.1 L 154.1 194.2 L 156.6 194.2 L 156.6 192.1 L 157.3 192.1 L 157.3 197.1 L 156.6 197.1 L 156.6 194.8 L 154.1 194.8 L 154.1 197.1 L 153.4 197.1 L 153.4 192.1 " fill="#000000"/>
<path class="atom-39" d="M 129.2 197.1 L 129.9 197.1 L 129.9 199.2 L 132.4 199.2 L 132.4 197.1 L 133.1 197.1 L 133.1 202.0 L 132.4 202.0 L 132.4 199.8 L 129.9 199.8 L 129.9 202.0 L 129.2 202.0 L 129.2 197.1 " fill="#000000"/>
<path class="atom-41" d="M 71.1 176.8 L 74.0 176.8 L 74.0 177.4 L 71.8 177.4 L 71.8 178.9 L 73.8 178.9 L 73.8 179.4 L 71.8 179.4 L 71.8 181.8 L 71.1 181.8 L 71.1 176.8 " fill="#33CCCC"/>
<path class="atom-42" d="M 48.1 166.6 L 48.8 166.6 L 48.8 168.7 L 51.3 168.7 L 51.3 166.6 L 52.0 166.6 L 52.0 171.5 L 51.3 171.5 L 51.3 169.2 L 48.8 169.2 L 48.8 171.5 L 48.1 171.5 L 48.1 166.6 " fill="#000000"/>
<path class="bond-0 atom-0 atom-1" d="M 531.8,146.6 L 546.4,156.2" style="fill:none;fill-rule:evenodd;stroke:#000000;stroke-width:2.0px;stroke-linecap:butt;stroke-linejoin:miter;stroke-opacity:1"/>
<path class="bond-1 atom-0 atom-5" d="M 531.8,146.6 L 525.3,149.9" style="fill:none;fill-rule:evenodd;stroke:#000000;stroke-width:2.0px;stroke-linecap:butt;stroke-linejoin:miter;stroke-opacity:1"/>
<path class="bond-1 atom-0 atom-5" d="M 525.3,149.9 L 518.7,153.2" style="fill:none;fill-rule:evenodd;stroke:#0000FF;stroke-width:2.0px;stroke-linecap:butt;stroke-linejoin:miter;stroke-opacity:1"/>
<path class="bond-2 atom-0 atom-24" d="M 531.8,146.6 L 523.7,135.7" style="fill:none;fill-rule:evenodd;stroke:#000000;stroke-width:2.0px;stroke-linecap:butt;stroke-linejoin:miter;stroke-opacity:1"/>
<path class="bond-3 atom-0 atom-25" d="M 531.8,146.6 L 541.3,136.6" style="fill:none;fill-rule:evenodd;stroke:#000000;stroke-width:2.0px;stroke-linecap:butt;stroke-linejoin:miter;stroke-opacity:1"/>
<path class="bond-4 atom-1 atom-2" d="M 546.4,156.2 L 546.0,163.4" style="fill:none;fill-rule:evenodd;stroke:#000000;stroke-width:2.0px;stroke-linecap:butt;stroke-linejoin:miter;stroke-opacity:1"/>
<path class="bond-4 atom-1 atom-2" d="M 546.0,163.4 L 545.6,170.6" style="fill:none;fill-rule:evenodd;stroke:#FF0000;stroke-width:2.0px;stroke-linecap:butt;stroke-linejoin:miter;stroke-opacity:1"/>
<path class="bond-5 atom-1 atom-26" d="M 546.4,156.2 L 552.0,143.2" style="fill:none;fill-rule:evenodd;stroke:#000000;stroke-width:2.0px;stroke-linecap:butt;stroke-linejoin:miter;stroke-opacity:1"/>
<path class="bond-6 atom-1 atom-27" d="M 546.4,156.2 L 560.9,159.6" style="fill:none;fill-rule:evenodd;stroke:#000000;stroke-width:2.0px;stroke-linecap:butt;stroke-linejoin:miter;stroke-opacity:1"/>
<path class="bond-7 atom-2 atom-3" d="M 542.6,175.1 L 536.2,178.3" style="fill:none;fill-rule:evenodd;stroke:#FF0000;stroke-width:2.0px;stroke-linecap:butt;stroke-linejoin:miter;stroke-opacity:1"/>
<path class="bond-7 atom-2 atom-3" d="M 536.2,178.3 L 529.8,181.5" style="fill:none;fill-rule:evenodd;stroke:#000000;stroke-width:2.0px;stroke-linecap:butt;stroke-linejoin:miter;stroke-opacity:1"/>
<path class="bond-8 atom-3 atom-4" d="M 529.8,181.5 L 515.2,171.9" style="fill:none;fill-rule:evenodd;stroke:#000000;stroke-width:2.0px;stroke-linecap:butt;stroke-linejoin:miter;stroke-opacity:1"/>
<path class="bond-9 atom-3 atom-28" d="M 529.8,181.5 L 538.0,192.5" style="fill:none;fill-rule:evenodd;stroke:#000000;stroke-width:2.0px;stroke-linecap:butt;stroke-linejoin:miter;stroke-opacity:1"/>
<path class="bond-10 atom-3 atom-29" d="M 529.8,181.5 L 520.3,191.6" style="fill:none;fill-rule:evenodd;stroke:#000000;stroke-width:2.0px;stroke-linecap:butt;stroke-linejoin:miter;stroke-opacity:1"/>
<path class="bond-11 atom-4 atom-5" d="M 515.2,171.9 L 515.6,164.7" style="fill:none;fill-rule:evenodd;stroke:#000000;stroke-width:2.0px;stroke-linecap:butt;stroke-linejoin:miter;stroke-opacity:1"/>
<path class="bond-11 atom-4 atom-5" d="M 515.6,164.7 L 516.0,157.5" style="fill:none;fill-rule:evenodd;stroke:#0000FF;stroke-width:2.0px;stroke-linecap:butt;stroke-linejoin:miter;stroke-opacity:1"/>
<path class="bond-12 atom-4 atom-30" d="M 515.2,171.9 L 509.6,184.9" style="fill:none;fill-rule:evenodd;stroke:#000000;stroke-width:2.0px;stroke-linecap:butt;stroke-linejoin:miter;stroke-opacity:1"/>
<path class="bond-13 atom-4 atom-31" d="M 515.2,171.9 L 500.7,168.5" style="fill:none;fill-rule:evenodd;stroke:#000000;stroke-width:2.0px;stroke-linecap:butt;stroke-linejoin:miter;stroke-opacity:1"/>
<path class="bond-14 atom-5 atom-6" d="M 513.8,152.9 L 507.7,148.9" style="fill:none;fill-rule:evenodd;stroke:#0000FF;stroke-width:2.0px;stroke-linecap:butt;stroke-linejoin:miter;stroke-opacity:1"/>
<path class="bond-14 atom-5 atom-6" d="M 507.7,148.9 L 501.6,144.9" style="fill:none;fill-rule:evenodd;stroke:#000000;stroke-width:2.0px;stroke-linecap:butt;stroke-linejoin:miter;stroke-opacity:1"/>
<path class="bond-15 atom-6 atom-7" d="M 501.6,144.9 L 502.0,137.7" style="fill:none;fill-rule:evenodd;stroke:#000000;stroke-width:2.0px;stroke-linecap:butt;stroke-linejoin:miter;stroke-opacity:1"/>
<path class="bond-15 atom-6 atom-7" d="M 502.0,137.7 L 502.4,130.5" style="fill:none;fill-rule:evenodd;stroke:#0000FF;stroke-width:2.0px;stroke-linecap:butt;stroke-linejoin:miter;stroke-opacity:1"/>
<path class="bond-15 atom-6 atom-7" d="M 498.2,142.5 L 498.5,137.5" style="fill:none;fill-rule:evenodd;stroke:#000000;stroke-width:2.0px;stroke-linecap:butt;stroke-linejoin:miter;stroke-opacity:1"/>
<path class="bond-15 atom-6 atom-7" d="M 498.5,137.5 L 498.8,132.4" style="fill:none;fill-rule:evenodd;stroke:#0000FF;stroke-width:2.0px;stroke-linecap:butt;stroke-linejoin:miter;stroke-opacity:1"/>
<path class="bond-16 atom-6 atom-11" d="M 501.6,144.9 L 486.0,152.7" style="fill:none;fill-rule:evenodd;stroke:#000000;stroke-width:2.0px;stroke-linecap:butt;stroke-linejoin:miter;stroke-opacity:1"/>
<path class="bond-17 atom-7 atom-8" d="M 500.2,125.8 L 494.1,121.8" style="fill:none;fill-rule:evenodd;stroke:#0000FF;stroke-width:2.0px;stroke-linecap:butt;stroke-linejoin:miter;stroke-opacity:1"/>
<path class="bond-17 atom-7 atom-8" d="M 494.1,121.8 L 488.0,117.8" style="fill:none;fill-rule:evenodd;stroke:#000000;stroke-width:2.0px;stroke-linecap:butt;stroke-linejoin:miter;stroke-opacity:1"/>
<path class="bond-18 atom-8 atom-9" d="M 488.0,117.8 L 472.4,125.7" style="fill:none;fill-rule:evenodd;stroke:#000000;stroke-width:2.0px;stroke-linecap:butt;stroke-linejoin:miter;stroke-opacity:1"/>
<path class="bond-18 atom-8 atom-9" d="M 487.2,122.1 L 476.3,127.6" style="fill:none;fill-rule:evenodd;stroke:#000000;stroke-width:2.0px;stroke-linecap:butt;stroke-linejoin:miter;stroke-opacity:1"/>
<path class="bond-19 atom-8 atom-32" d="M 488.0,117.8 L 488.8,103.4" style="fill:none;fill-rule:evenodd;stroke:#000000;stroke-width:2.0px;stroke-linecap:butt;stroke-linejoin:miter;stroke-opacity:1"/>
<path class="bond-20 atom-9 atom-10" d="M 472.4,125.7 L 472.0,132.9" style="fill:none;fill-rule:evenodd;stroke:#000000;stroke-width:2.0px;stroke-linecap:butt;stroke-linejoin:miter;stroke-opacity:1"/>
<path class="bond-20 atom-9 atom-10" d="M 472.0,132.9 L 471.6,140.1" style="fill:none;fill-rule:evenodd;stroke:#0000FF;stroke-width:2.0px;stroke-linecap:butt;stroke-linejoin:miter;stroke-opacity:1"/>
<path class="bond-21 atom-9 atom-33" d="M 472.4,125.7 L 460.3,117.7" style="fill:none;fill-rule:evenodd;stroke:#000000;stroke-width:2.0px;stroke-linecap:butt;stroke-linejoin:miter;stroke-opacity:1"/>
<path class="bond-22 atom-10 atom-11" d="M 473.8,144.7 L 479.9,148.7" style="fill:none;fill-rule:evenodd;stroke:#0000FF;stroke-width:2.0px;stroke-linecap:butt;stroke-linejoin:miter;stroke-opacity:1"/>
<path class="bond-22 atom-10 atom-11" d="M 479.9,148.7 L 486.0,152.7" style="fill:none;fill-rule:evenodd;stroke:#000000;stroke-width:2.0px;stroke-linecap:butt;stroke-linejoin:miter;stroke-opacity:1"/>
<path class="bond-23 atom-10 atom-14" d="M 468.9,145.1 L 463.3,149.6" style="fill:none;fill-rule:evenodd;stroke:#0000FF;stroke-width:2.0px;stroke-linecap:butt;stroke-linejoin:miter;stroke-opacity:1"/>
<path class="bond-23 atom-10 atom-14" d="M 463.3,149.6 L 457.8,154.1" style="fill:none;fill-rule:evenodd;stroke:#000000;stroke-width:2.0px;stroke-linecap:butt;stroke-linejoin:miter;stroke-opacity:1"/>
<path class="bond-24 atom-11 atom-12" d="M 486.0,152.7 L 484.1,159.6" style="fill:none;fill-rule:evenodd;stroke:#000000;stroke-width:2.0px;stroke-linecap:butt;stroke-linejoin:miter;stroke-opacity:1"/>
<path class="bond-24 atom-11 atom-12" d="M 484.1,159.6 L 482.2,166.5" style="fill:none;fill-rule:evenodd;stroke:#0000FF;stroke-width:2.0px;stroke-linecap:butt;stroke-linejoin:miter;stroke-opacity:1"/>
<path class="bond-24 atom-11 atom-12" d="M 482.1,153.9 L 480.7,158.7" style="fill:none;fill-rule:evenodd;stroke:#000000;stroke-width:2.0px;stroke-linecap:butt;stroke-linejoin:miter;stroke-opacity:1"/>
<path class="bond-24 atom-11 atom-12" d="M 480.7,158.7 L 479.4,163.5" style="fill:none;fill-rule:evenodd;stroke:#0000FF;stroke-width:2.0px;stroke-linecap:butt;stroke-linejoin:miter;stroke-opacity:1"/>
<path class="bond-25 atom-12 atom-13" d="M 478.9,169.7 L 471.4,170.1" style="fill:none;fill-rule:evenodd;stroke:#0000FF;stroke-width:2.0px;stroke-linecap:butt;stroke-linejoin:miter;stroke-opacity:1"/>
<path class="bond-25 atom-12 atom-13" d="M 471.4,170.1 L 463.9,170.4" style="fill:none;fill-rule:evenodd;stroke:#000000;stroke-width:2.0px;stroke-linecap:butt;stroke-linejoin:miter;stroke-opacity:1"/>
<path class="bond-26 atom-13 atom-14" d="M 463.9,170.4 L 457.8,154.1" style="fill:none;fill-rule:evenodd;stroke:#000000;stroke-width:2.0px;stroke-linecap:butt;stroke-linejoin:miter;stroke-opacity:1"/>
<path class="bond-26 atom-13 atom-14" d="M 466.3,166.7 L 461.9,155.3" style="fill:none;fill-rule:evenodd;stroke:#000000;stroke-width:2.0px;stroke-linecap:butt;stroke-linejoin:miter;stroke-opacity:1"/>
<path class="bond-27 atom-13 atom-43" d="M 463.9,170.4 L 454.3,185.0" style="fill:none;fill-rule:evenodd;stroke:#000000;stroke-width:2.0px;stroke-linecap:butt;stroke-linejoin:miter;stroke-opacity:1"/>
<path class="bond-28 atom-14 atom-15" d="M 457.8,154.1 L 440.9,149.4" style="fill:none;fill-rule:evenodd;stroke:#000000;stroke-width:2.0px;stroke-linecap:butt;stroke-linejoin:miter;stroke-opacity:1"/>
<path class="bond-29 atom-15 atom-16" d="M 440.9,149.4 L 427.3,160.4" style="fill:none;fill-rule:evenodd;stroke:#000000;stroke-width:2.0px;stroke-linecap:butt;stroke-linejoin:miter;stroke-opacity:1"/>
<path class="bond-29 atom-15 atom-16" d="M 436.7,148.4 L 427.1,156.0" style="fill:none;fill-rule:evenodd;stroke:#000000;stroke-width:2.0px;stroke-linecap:butt;stroke-linejoin:miter;stroke-opacity:1"/>
<path class="bond-30 atom-15 atom-17" d="M 440.9,149.4 L 434.7,133.1" style="fill:none;fill-rule:evenodd;stroke:#000000;stroke-width:2.0px;stroke-linecap:butt;stroke-linejoin:miter;stroke-opacity:1"/>
<path class="bond-31 atom-16 atom-19" d="M 427.3,160.4 L 421.2,156.4" style="fill:none;fill-rule:evenodd;stroke:#000000;stroke-width:2.0px;stroke-linecap:butt;stroke-linejoin:miter;stroke-opacity:1"/>
<path class="bond-31 atom-16 atom-19" d="M 421.2,156.4 L 415.1,152.4" style="fill:none;fill-rule:evenodd;stroke:#0000FF;stroke-width:2.0px;stroke-linecap:butt;stroke-linejoin:miter;stroke-opacity:1"/>
<path class="bond-32 atom-16 atom-34" d="M 427.3,160.4 L 427.9,174.8" style="fill:none;fill-rule:evenodd;stroke:#000000;stroke-width:2.0px;stroke-linecap:butt;stroke-linejoin:miter;stroke-opacity:1"/>
<path class="bond-33 atom-17 atom-18" d="M 434.7,133.1 L 427.2,133.4" style="fill:none;fill-rule:evenodd;stroke:#000000;stroke-width:2.0px;stroke-linecap:butt;stroke-linejoin:miter;stroke-opacity:1"/>
<path class="bond-33 atom-17 atom-18" d="M 427.2,133.4 L 419.7,133.8" style="fill:none;fill-rule:evenodd;stroke:#0000FF;stroke-width:2.0px;stroke-linecap:butt;stroke-linejoin:miter;stroke-opacity:1"/>
<path class="bond-33 atom-17 atom-18" d="M 432.6,136.7 L 427.4,136.9" style="fill:none;fill-rule:evenodd;stroke:#000000;stroke-width:2.0px;stroke-linecap:butt;stroke-linejoin:miter;stroke-opacity:1"/>
<path class="bond-33 atom-17 atom-18" d="M 427.4,136.9 L 422.1,137.2" style="fill:none;fill-rule:evenodd;stroke:#0000FF;stroke-width:2.0px;stroke-linecap:butt;stroke-linejoin:miter;stroke-opacity:1"/>
<path class="bond-34 atom-17 atom-35" d="M 434.7,133.1 L 442.3,121.5" style="fill:none;fill-rule:evenodd;stroke:#000000;stroke-width:2.0px;stroke-linecap:butt;stroke-linejoin:miter;stroke-opacity:1"/>
<path class="bond-35 atom-18 atom-19" d="M 416.4,137.0 L 413.5,147.7" style="fill:none;fill-rule:evenodd;stroke:#0000FF;stroke-width:2.0px;stroke-linecap:butt;stroke-linejoin:miter;stroke-opacity:1"/>
<path class="bond-36 atom-19 atom-20" d="M 410.2,151.7 L 403.2,154.3" style="fill:none;fill-rule:evenodd;stroke:#0000FF;stroke-width:2.0px;stroke-linecap:butt;stroke-linejoin:miter;stroke-opacity:1"/>
<path class="bond-36 atom-19 atom-20" d="M 403.2,154.3 L 396.3,157.0" style="fill:none;fill-rule:evenodd;stroke:#000000;stroke-width:2.0px;stroke-linecap:butt;stroke-linejoin:miter;stroke-opacity:1"/>
<path class="bond-37 atom-20 atom-21" d="M 396.3,157.0 L 379.9,163.1" style="fill:none;fill-rule:evenodd;stroke:#000000;stroke-width:2.0px;stroke-linecap:butt;stroke-linejoin:miter;stroke-opacity:1"/>
<path class="bond-38 atom-20 atom-36" d="M 396.3,157.0 L 391.3,143.7" style="fill:none;fill-rule:evenodd;stroke:#000000;stroke-width:2.0px;stroke-linecap:butt;stroke-linejoin:miter;stroke-opacity:1"/>
<path class="bond-39 atom-20 atom-37" d="M 396.3,157.0 L 401.3,170.3" style="fill:none;fill-rule:evenodd;stroke:#000000;stroke-width:2.0px;stroke-linecap:butt;stroke-linejoin:miter;stroke-opacity:1"/>
<path class="bond-40 atom-21 atom-22" d="M 379.9,163.1 L 373.2,165.7" style="fill:none;fill-rule:evenodd;stroke:#000000;stroke-width:2.0px;stroke-linecap:butt;stroke-linejoin:miter;stroke-opacity:1"/>
<path class="bond-40 atom-21 atom-22" d="M 373.2,165.7 L 366.4,168.2" style="fill:none;fill-rule:evenodd;stroke:#FF0000;stroke-width:2.0px;stroke-linecap:butt;stroke-linejoin:miter;stroke-opacity:1"/>
<path class="bond-41 atom-21 atom-38" d="M 379.9,163.1 L 374.9,149.8" style="fill:none;fill-rule:evenodd;stroke:#000000;stroke-width:2.0px;stroke-linecap:butt;stroke-linejoin:miter;stroke-opacity:1"/>
<path class="bond-42 atom-21 atom-41" d="M 379.9,163.1 L 385.0,176.4" style="fill:none;fill-rule:evenodd;stroke:#000000;stroke-width:2.0px;stroke-linecap:butt;stroke-linejoin:miter;stroke-opacity:1"/>
<path class="bond-43 atom-22 atom-23" d="M 360.8,167.0 L 355.4,162.6" style="fill:none;fill-rule:evenodd;stroke:#FF0000;stroke-width:2.0px;stroke-linecap:butt;stroke-linejoin:miter;stroke-opacity:1"/>
<path class="bond-43 atom-22 atom-23" d="M 355.4,162.6 L 350.1,158.2" style="fill:none;fill-rule:evenodd;stroke:#000000;stroke-width:2.0px;stroke-linecap:butt;stroke-linejoin:miter;stroke-opacity:1"/>
<path class="bond-44 atom-23 atom-39" d="M 350.1,158.2 L 341.5,168.7" style="fill:none;fill-rule:evenodd;stroke:#000000;stroke-width:2.0px;stroke-linecap:butt;stroke-linejoin:miter;stroke-opacity:1"/>
<path class="bond-45 atom-23 atom-40" d="M 350.1,158.2 L 358.6,147.8" style="fill:none;fill-rule:evenodd;stroke:#000000;stroke-width:2.0px;stroke-linecap:butt;stroke-linejoin:miter;stroke-opacity:1"/>
<path class="bond-46 atom-23 atom-42" d="M 350.1,158.2 L 339.1,149.2" style="fill:none;fill-rule:evenodd;stroke:#000000;stroke-width:2.0px;stroke-linecap:butt;stroke-linejoin:miter;stroke-opacity:1"/>
<path class="bond-47 atom-43 atom-44" d="M 454.3,185.0 L 442.2,177.1" style="fill:none;fill-rule:evenodd;stroke:#000000;stroke-width:2.0px;stroke-linecap:butt;stroke-linejoin:miter;stroke-opacity:1"/>
<path class="bond-48 atom-43 atom-45" d="M 454.3,185.0 L 466.4,193.0" style="fill:none;fill-rule:evenodd;stroke:#000000;stroke-width:2.0px;stroke-linecap:butt;stroke-linejoin:miter;stroke-opacity:1"/>
<path class="bond-49 atom-43 atom-46" d="M 454.3,185.0 L 446.7,196.6" style="fill:none;fill-rule:evenodd;stroke:#000000;stroke-width:2.0px;stroke-linecap:butt;stroke-linejoin:miter;stroke-opacity:1"/>
<path class="atom-2" d="M 543.2 173.7 Q 543.2 172.5, 543.7 171.8 Q 544.3 171.2, 545.4 171.2 Q 546.5 171.2, 547.1 171.8 Q 547.7 172.5, 547.7 173.7 Q 547.7 174.9, 547.1 175.6 Q 546.5 176.2, 545.4 176.2 Q 544.3 176.2, 543.7 175.6 Q 543.2 174.9, 543.2 173.7 M 545.4 175.7 Q 546.2 175.7, 546.6 175.2 Q 547.0 174.7, 547.0 173.7 Q 547.0 172.7, 546.6 172.2 Q 546.2 171.7, 545.4 171.7 Q 544.7 171.7, 544.3 172.2 Q 543.9 172.7, 543.9 173.7 Q 543.9 174.7, 544.3 175.2 Q 544.7 175.7, 545.4 175.7 " fill="#FF0000"/>
<path class="atom-5" d="M 515.1 152.0 L 516.7 154.6 Q 516.9 154.9, 517.2 155.3 Q 517.4 155.8, 517.4 155.8 L 517.4 152.0 L 518.1 152.0 L 518.1 156.9 L 517.4 156.9 L 515.7 154.1 Q 515.5 153.7, 515.3 153.4 Q 515.0 153.0, 515.0 152.9 L 515.0 156.9 L 514.3 156.9 L 514.3 152.0 L 515.1 152.0 " fill="#0000FF"/>
<path class="atom-7" d="M 501.5 124.9 L 503.1 127.6 Q 503.3 127.8, 503.6 128.3 Q 503.8 128.8, 503.8 128.8 L 503.8 124.9 L 504.5 124.9 L 504.5 129.9 L 503.8 129.9 L 502.1 127.0 Q 501.9 126.7, 501.7 126.3 Q 501.4 125.9, 501.4 125.8 L 501.4 129.9 L 500.7 129.9 L 500.7 124.9 L 501.5 124.9 " fill="#0000FF"/>
<path class="atom-10" d="M 470.3 140.7 L 471.9 143.3 Q 472.1 143.5, 472.3 144.0 Q 472.6 144.5, 472.6 144.5 L 472.6 140.7 L 473.3 140.7 L 473.3 145.6 L 472.6 145.6 L 470.8 142.7 Q 470.6 142.4, 470.4 142.0 Q 470.2 141.6, 470.2 141.5 L 470.2 145.6 L 469.5 145.6 L 469.5 140.7 L 470.3 140.7 " fill="#0000FF"/>
<path class="atom-12" d="M 480.3 167.1 L 481.9 169.7 Q 482.1 170.0, 482.3 170.5 Q 482.6 170.9, 482.6 171.0 L 482.6 167.1 L 483.3 167.1 L 483.3 172.1 L 482.6 172.1 L 480.8 169.2 Q 480.6 168.9, 480.4 168.5 Q 480.2 168.1, 480.2 168.0 L 480.2 172.1 L 479.5 172.1 L 479.5 167.1 L 480.3 167.1 " fill="#0000FF"/>
<path class="atom-18" d="M 416.2 131.4 L 417.8 134.1 Q 417.9 134.3, 418.2 134.8 Q 418.5 135.3, 418.5 135.3 L 418.5 131.4 L 419.1 131.4 L 419.1 136.4 L 418.5 136.4 L 416.7 133.5 Q 416.5 133.2, 416.3 132.8 Q 416.1 132.4, 416.0 132.3 L 416.0 136.4 L 415.4 136.4 L 415.4 131.4 L 416.2 131.4 " fill="#0000FF"/>
<path class="atom-19" d="M 411.6 148.3 L 413.2 150.9 Q 413.3 151.2, 413.6 151.6 Q 413.9 152.1, 413.9 152.1 L 413.9 148.3 L 414.5 148.3 L 414.5 153.3 L 413.8 153.3 L 412.1 150.4 Q 411.9 150.0, 411.7 149.7 Q 411.5 149.3, 411.4 149.2 L 411.4 153.3 L 410.8 153.3 L 410.8 148.3 L 411.6 148.3 " fill="#0000FF"/>
<path class="atom-22" d="M 361.3 169.3 Q 361.3 168.1, 361.9 167.5 Q 362.5 166.8, 363.6 166.8 Q 364.7 166.8, 365.3 167.5 Q 365.9 168.1, 365.9 169.3 Q 365.9 170.5, 365.3 171.2 Q 364.7 171.9, 363.6 171.9 Q 362.5 171.9, 361.9 171.2 Q 361.3 170.5, 361.3 169.3 M 363.6 171.3 Q 364.4 171.3, 364.8 170.8 Q 365.2 170.3, 365.2 169.3 Q 365.2 168.3, 364.8 167.9 Q 364.4 167.4, 363.6 167.4 Q 362.8 167.4, 362.4 167.9 Q 362.0 168.3, 362.0 169.3 Q 362.0 170.3, 362.4 170.8 Q 362.8 171.3, 363.6 171.3 " fill="#FF0000"/>
<path class="atom-24" d="M 519.5 130.1 L 520.1 130.1 L 520.1 132.2 L 522.7 132.2 L 522.7 130.1 L 523.3 130.1 L 523.3 135.1 L 522.7 135.1 L 522.7 132.8 L 520.1 132.8 L 520.1 135.1 L 519.5 135.1 L 519.5 130.1 " fill="#000000"/>
<path class="atom-25" d="M 541.9 131.4 L 542.6 131.4 L 542.6 133.5 L 545.1 133.5 L 545.1 131.4 L 545.8 131.4 L 545.8 136.4 L 545.1 136.4 L 545.1 134.1 L 542.6 134.1 L 542.6 136.4 L 541.9 136.4 L 541.9 131.4 " fill="#000000"/>
<path class="atom-26" d="M 551.4 137.7 L 552.1 137.7 L 552.1 139.8 L 554.6 139.8 L 554.6 137.7 L 555.3 137.7 L 555.3 142.6 L 554.6 142.6 L 554.6 140.3 L 552.1 140.3 L 552.1 142.6 L 551.4 142.6 L 551.4 137.7 " fill="#000000"/>
<path class="atom-27" d="M 561.5 157.8 L 562.2 157.8 L 562.2 159.9 L 564.7 159.9 L 564.7 157.8 L 565.4 157.8 L 565.4 162.7 L 564.7 162.7 L 564.7 160.4 L 562.2 160.4 L 562.2 162.7 L 561.5 162.7 L 561.5 157.8 " fill="#000000"/>
<path class="atom-28" d="M 538.3 193.0 L 539.0 193.0 L 539.0 195.2 L 541.5 195.2 L 541.5 193.0 L 542.2 193.0 L 542.2 198.0 L 541.5 198.0 L 541.5 195.7 L 539.0 195.7 L 539.0 198.0 L 538.3 198.0 L 538.3 193.0 " fill="#000000"/>
<path class="atom-29" d="M 515.9 191.8 L 516.6 191.8 L 516.6 193.9 L 519.1 193.9 L 519.1 191.8 L 519.8 191.8 L 519.8 196.7 L 519.1 196.7 L 519.1 194.4 L 516.6 194.4 L 516.6 196.7 L 515.9 196.7 L 515.9 191.8 " fill="#000000"/>
<path class="atom-30" d="M 506.4 185.5 L 507.0 185.5 L 507.0 187.6 L 509.6 187.6 L 509.6 185.5 L 510.2 185.5 L 510.2 190.4 L 509.6 190.4 L 509.6 188.2 L 507.0 188.2 L 507.0 190.4 L 506.4 190.4 L 506.4 185.5 " fill="#000000"/>
<path class="atom-31" d="M 496.3 165.4 L 496.9 165.4 L 496.9 167.5 L 499.5 167.5 L 499.5 165.4 L 500.1 165.4 L 500.1 170.4 L 499.5 170.4 L 499.5 168.1 L 496.9 168.1 L 496.9 170.4 L 496.3 170.4 L 496.3 165.4 " fill="#000000"/>
<path class="atom-32" d="M 487.1 97.9 L 487.8 97.9 L 487.8 100.0 L 490.3 100.0 L 490.3 97.9 L 491.0 97.9 L 491.0 102.9 L 490.3 102.9 L 490.3 100.6 L 487.8 100.6 L 487.8 102.9 L 487.1 102.9 L 487.1 97.9 " fill="#000000"/>
<path class="atom-33" d="M 455.9 113.6 L 456.5 113.6 L 456.5 115.7 L 459.1 115.7 L 459.1 113.6 L 459.7 113.6 L 459.7 118.6 L 459.1 118.6 L 459.1 116.3 L 456.5 116.3 L 456.5 118.6 L 455.9 118.6 L 455.9 113.6 " fill="#000000"/>
<path class="atom-34" d="M 426.1 175.4 L 426.8 175.4 L 426.8 177.5 L 429.3 177.5 L 429.3 175.4 L 430.0 175.4 L 430.0 180.3 L 429.3 180.3 L 429.3 178.0 L 426.8 178.0 L 426.8 180.3 L 426.1 180.3 L 426.1 175.4 " fill="#000000"/>
<path class="atom-35" d="M 442.4 116.0 L 443.0 116.0 L 443.0 118.1 L 445.6 118.1 L 445.6 116.0 L 446.2 116.0 L 446.2 121.0 L 445.6 121.0 L 445.6 118.7 L 443.0 118.7 L 443.0 121.0 L 442.4 121.0 L 442.4 116.0 " fill="#000000"/>
<path class="atom-36" d="M 388.2 138.1 L 388.9 138.1 L 388.9 140.2 L 391.4 140.2 L 391.4 138.1 L 392.1 138.1 L 392.1 143.1 L 391.4 143.1 L 391.4 140.8 L 388.9 140.8 L 388.9 143.1 L 388.2 143.1 L 388.2 138.1 " fill="#000000"/>
<path class="atom-37" d="M 400.5 170.8 L 401.2 170.8 L 401.2 172.9 L 403.7 172.9 L 403.7 170.8 L 404.4 170.8 L 404.4 175.8 L 403.7 175.8 L 403.7 173.5 L 401.2 173.5 L 401.2 175.8 L 400.5 175.8 L 400.5 170.8 " fill="#000000"/>
<path class="atom-38" d="M 371.8 144.3 L 372.5 144.3 L 372.5 146.4 L 375.0 146.4 L 375.0 144.3 L 375.7 144.3 L 375.7 149.3 L 375.0 149.3 L 375.0 147.0 L 372.5 147.0 L 372.5 149.3 L 371.8 149.3 L 371.8 144.3 " fill="#000000"/>
<path class="atom-39" d="M 337.1 169.3 L 337.7 169.3 L 337.7 171.4 L 340.3 171.4 L 340.3 169.3 L 340.9 169.3 L 340.9 174.2 L 340.3 174.2 L 340.3 172.0 L 337.7 172.0 L 337.7 174.2 L 337.1 174.2 L 337.1 169.3 " fill="#000000"/>
<path class="atom-40" d="M 359.2 142.2 L 359.9 142.2 L 359.9 144.3 L 362.4 144.3 L 362.4 142.2 L 363.1 142.2 L 363.1 147.2 L 362.4 147.2 L 362.4 144.9 L 359.9 144.9 L 359.9 147.2 L 359.2 147.2 L 359.2 142.2 " fill="#000000"/>
<path class="atom-41" d="M 384.2 177.0 L 384.9 177.0 L 384.9 179.1 L 387.4 179.1 L 387.4 177.0 L 388.1 177.0 L 388.1 182.0 L 387.4 182.0 L 387.4 179.7 L 384.9 179.7 L 384.9 182.0 L 384.2 182.0 L 384.2 177.0 " fill="#000000"/>
<path class="atom-42" d="M 334.6 144.7 L 335.3 144.7 L 335.3 146.8 L 337.8 146.8 L 337.8 144.7 L 338.5 144.7 L 338.5 149.6 L 337.8 149.6 L 337.8 147.4 L 335.3 147.4 L 335.3 149.6 L 334.6 149.6 L 334.6 144.7 " fill="#000000"/>
<path class="atom-44" d="M 437.8 172.9 L 438.5 172.9 L 438.5 175.0 L 441.0 175.0 L 441.0 172.9 L 441.7 172.9 L 441.7 177.9 L 441.0 177.9 L 441.0 175.6 L 438.5 175.6 L 438.5 177.9 L 437.8 177.9 L 437.8 172.9 " fill="#000000"/>
<path class="atom-45" d="M 467.0 192.1 L 467.7 192.1 L 467.7 194.2 L 470.2 194.2 L 470.2 192.1 L 470.9 192.1 L 470.9 197.1 L 470.2 197.1 L 470.2 194.8 L 467.7 194.8 L 467.7 197.1 L 467.0 197.1 L 467.0 192.1 " fill="#000000"/>
<path class="atom-46" d="M 442.8 197.1 L 443.5 197.1 L 443.5 199.2 L 446.0 199.2 L 446.0 197.1 L 446.7 197.1 L 446.7 202.1 L 446.0 202.1 L 446.0 199.8 L 443.5 199.8 L 443.5 202.1 L 442.8 202.1 L 442.8 197.1 " fill="#000000"/>
<text x="300" y="20" font-size="20" font-family="sans-serif" font-weight="normal" letter-spacing="0" text-anchor="middle" fill="black">pde10: 2750 -&gt; 6221</text><text x="300" y="35" font-size="15" font-family="sans-serif" font-weight="normal" letter-spacing="0" text-anchor="middle" fill="black"></text><text x="150" y="285" font-size="15" font-family="sans-serif" font-weight="normal" letter-spacing="0" text-anchor="middle" fill="black">2750</text><text x="450" y="285" font-size="15" font-family="sans-serif" font-weight="normal" letter-spacing="0" text-anchor="middle" fill="black">6221</text></svg>
