<?xml version='1.0' encoding='ASCII' standalone='yes'?>
<svg xmlns="http://www.w3.org/2000/svg" xmlns:rdkit="http://www.rdkit.org/xml" xmlns:xlink="http://www.w3.org/1999/xlink" version="1.1" baseProfile="full" xml:space="preserve" width="600px" height="300px" viewBox="0 0 600 300">
<!-- END OF HEADER -->
<rect style="opacity:1.0;fill:#FFFFFF;stroke:none" width="600.0" height="300.0" x="0.0" y="0.0"> </rect>
<path class="bond-0 atom-0 atom-1" d="M 229.9,131.5 L 245.9,137.0" style="fill:none;fill-rule:evenodd;stroke:#000000;stroke-width:2.0px;stroke-linecap:butt;stroke-linejoin:miter;stroke-opacity:1"/>
<path class="bond-1 atom-0 atom-5" d="M 229.9,131.5 L 224.6,136.0" style="fill:none;fill-rule:evenodd;stroke:#000000;stroke-width:2.0px;stroke-linecap:butt;stroke-linejoin:miter;stroke-opacity:1"/>
<path class="bond-1 atom-0 atom-5" d="M 224.6,136.0 L 219.4,140.5" style="fill:none;fill-rule:evenodd;stroke:#0000FF;stroke-width:2.0px;stroke-linecap:butt;stroke-linejoin:miter;stroke-opacity:1"/>
<path class="bond-2 atom-0 atom-23" d="M 229.9,131.5 L 219.1,122.7" style="fill:none;fill-rule:evenodd;stroke:#000000;stroke-width:2.0px;stroke-linecap:butt;stroke-linejoin:miter;stroke-opacity:1"/>
<path class="bond-3 atom-0 atom-24" d="M 229.9,131.5 L 236.5,119.6" style="fill:none;fill-rule:evenodd;stroke:#000000;stroke-width:2.0px;stroke-linecap:butt;stroke-linejoin:miter;stroke-opacity:1"/>
<path class="bond-4 atom-1 atom-2" d="M 245.9,137.0 L 247.2,143.9" style="fill:none;fill-rule:evenodd;stroke:#000000;stroke-width:2.0px;stroke-linecap:butt;stroke-linejoin:miter;stroke-opacity:1"/>
<path class="bond-4 atom-1 atom-2" d="M 247.2,143.9 L 248.5,150.7" style="fill:none;fill-rule:evenodd;stroke:#FF0000;stroke-width:2.0px;stroke-linecap:butt;stroke-linejoin:miter;stroke-opacity:1"/>
<path class="bond-5 atom-1 atom-25" d="M 245.9,137.0 L 248.1,123.3" style="fill:none;fill-rule:evenodd;stroke:#000000;stroke-width:2.0px;stroke-linecap:butt;stroke-linejoin:miter;stroke-opacity:1"/>
<path class="bond-6 atom-1 atom-26" d="M 245.9,137.0 L 260.4,136.8" style="fill:none;fill-rule:evenodd;stroke:#000000;stroke-width:2.0px;stroke-linecap:butt;stroke-linejoin:miter;stroke-opacity:1"/>
<path class="bond-7 atom-2 atom-3" d="M 246.3,156.1 L 241.3,160.4" style="fill:none;fill-rule:evenodd;stroke:#FF0000;stroke-width:2.0px;stroke-linecap:butt;stroke-linejoin:miter;stroke-opacity:1"/>
<path class="bond-7 atom-2 atom-3" d="M 241.3,160.4 L 236.2,164.8" style="fill:none;fill-rule:evenodd;stroke:#000000;stroke-width:2.0px;stroke-linecap:butt;stroke-linejoin:miter;stroke-opacity:1"/>
<path class="bond-8 atom-3 atom-4" d="M 236.2,164.8 L 220.2,159.2" style="fill:none;fill-rule:evenodd;stroke:#000000;stroke-width:2.0px;stroke-linecap:butt;stroke-linejoin:miter;stroke-opacity:1"/>
<path class="bond-9 atom-3 atom-27" d="M 236.2,164.8 L 246.9,173.5" style="fill:none;fill-rule:evenodd;stroke:#000000;stroke-width:2.0px;stroke-linecap:butt;stroke-linejoin:miter;stroke-opacity:1"/>
<path class="bond-10 atom-3 atom-28" d="M 236.2,164.8 L 229.6,176.6" style="fill:none;fill-rule:evenodd;stroke:#000000;stroke-width:2.0px;stroke-linecap:butt;stroke-linejoin:miter;stroke-opacity:1"/>
<path class="bond-11 atom-4 atom-5" d="M 220.2,159.2 L 218.9,152.3" style="fill:none;fill-rule:evenodd;stroke:#000000;stroke-width:2.0px;stroke-linecap:butt;stroke-linejoin:miter;stroke-opacity:1"/>
<path class="bond-11 atom-4 atom-5" d="M 218.9,152.3 L 217.6,145.5" style="fill:none;fill-rule:evenodd;stroke:#0000FF;stroke-width:2.0px;stroke-linecap:butt;stroke-linejoin:miter;stroke-opacity:1"/>
<path class="bond-12 atom-4 atom-29" d="M 220.2,159.2 L 218.0,173.0" style="fill:none;fill-rule:evenodd;stroke:#000000;stroke-width:2.0px;stroke-linecap:butt;stroke-linejoin:miter;stroke-opacity:1"/>
<path class="bond-13 atom-4 atom-30" d="M 220.2,159.2 L 205.7,159.4" style="fill:none;fill-rule:evenodd;stroke:#000000;stroke-width:2.0px;stroke-linecap:butt;stroke-linejoin:miter;stroke-opacity:1"/>
<path class="bond-14 atom-5 atom-6" d="M 214.7,141.7 L 207.8,139.3" style="fill:none;fill-rule:evenodd;stroke:#0000FF;stroke-width:2.0px;stroke-linecap:butt;stroke-linejoin:miter;stroke-opacity:1"/>
<path class="bond-14 atom-5 atom-6" d="M 207.8,139.3 L 201.0,137.0" style="fill:none;fill-rule:evenodd;stroke:#000000;stroke-width:2.0px;stroke-linecap:butt;stroke-linejoin:miter;stroke-opacity:1"/>
<path class="bond-15 atom-6 atom-7" d="M 201.0,137.0 L 199.7,130.1" style="fill:none;fill-rule:evenodd;stroke:#000000;stroke-width:2.0px;stroke-linecap:butt;stroke-linejoin:miter;stroke-opacity:1"/>
<path class="bond-15 atom-6 atom-7" d="M 199.7,130.1 L 198.4,123.3" style="fill:none;fill-rule:evenodd;stroke:#0000FF;stroke-width:2.0px;stroke-linecap:butt;stroke-linejoin:miter;stroke-opacity:1"/>
<path class="bond-15 atom-6 atom-7" d="M 197.3,135.5 L 196.4,130.8" style="fill:none;fill-rule:evenodd;stroke:#000000;stroke-width:2.0px;stroke-linecap:butt;stroke-linejoin:miter;stroke-opacity:1"/>
<path class="bond-15 atom-6 atom-7" d="M 196.4,130.8 L 195.5,126.0" style="fill:none;fill-rule:evenodd;stroke:#0000FF;stroke-width:2.0px;stroke-linecap:butt;stroke-linejoin:miter;stroke-opacity:1"/>
<path class="bond-16 atom-6 atom-11" d="M 201.0,137.0 L 188.2,148.0" style="fill:none;fill-rule:evenodd;stroke:#000000;stroke-width:2.0px;stroke-linecap:butt;stroke-linejoin:miter;stroke-opacity:1"/>
<path class="bond-17 atom-7 atom-8" d="M 195.5,119.5 L 188.6,117.1" style="fill:none;fill-rule:evenodd;stroke:#0000FF;stroke-width:2.0px;stroke-linecap:butt;stroke-linejoin:miter;stroke-opacity:1"/>
<path class="bond-17 atom-7 atom-8" d="M 188.6,117.1 L 181.8,114.7" style="fill:none;fill-rule:evenodd;stroke:#000000;stroke-width:2.0px;stroke-linecap:butt;stroke-linejoin:miter;stroke-opacity:1"/>
<path class="bond-18 atom-8 atom-9" d="M 181.8,114.7 L 169.0,125.8" style="fill:none;fill-rule:evenodd;stroke:#000000;stroke-width:2.0px;stroke-linecap:butt;stroke-linejoin:miter;stroke-opacity:1"/>
<path class="bond-18 atom-8 atom-9" d="M 182.1,119.0 L 173.1,126.7" style="fill:none;fill-rule:evenodd;stroke:#000000;stroke-width:2.0px;stroke-linecap:butt;stroke-linejoin:miter;stroke-opacity:1"/>
<path class="bond-19 atom-8 atom-31" d="M 181.8,114.7 L 179.2,101.0" style="fill:none;fill-rule:evenodd;stroke:#000000;stroke-width:2.0px;stroke-linecap:butt;stroke-linejoin:miter;stroke-opacity:1"/>
<path class="bond-20 atom-9 atom-10" d="M 169.0,125.8 L 170.3,132.7" style="fill:none;fill-rule:evenodd;stroke:#000000;stroke-width:2.0px;stroke-linecap:butt;stroke-linejoin:miter;stroke-opacity:1"/>
<path class="bond-20 atom-9 atom-10" d="M 170.3,132.7 L 171.6,139.5" style="fill:none;fill-rule:evenodd;stroke:#0000FF;stroke-width:2.0px;stroke-linecap:butt;stroke-linejoin:miter;stroke-opacity:1"/>
<path class="bond-21 atom-9 atom-32" d="M 169.0,125.8 L 162.4,122.6" style="fill:none;fill-rule:evenodd;stroke:#000000;stroke-width:2.0px;stroke-linecap:butt;stroke-linejoin:miter;stroke-opacity:1"/>
<path class="bond-22 atom-10 atom-11" d="M 174.5,143.3 L 181.4,145.7" style="fill:none;fill-rule:evenodd;stroke:#0000FF;stroke-width:2.0px;stroke-linecap:butt;stroke-linejoin:miter;stroke-opacity:1"/>
<path class="bond-22 atom-10 atom-11" d="M 181.4,145.7 L 188.2,148.0" style="fill:none;fill-rule:evenodd;stroke:#000000;stroke-width:2.0px;stroke-linecap:butt;stroke-linejoin:miter;stroke-opacity:1"/>
<path class="bond-23 atom-10 atom-14" d="M 169.9,145.4 L 165.9,150.7" style="fill:none;fill-rule:evenodd;stroke:#0000FF;stroke-width:2.0px;stroke-linecap:butt;stroke-linejoin:miter;stroke-opacity:1"/>
<path class="bond-23 atom-10 atom-14" d="M 165.9,150.7 L 161.9,156.0" style="fill:none;fill-rule:evenodd;stroke:#000000;stroke-width:2.0px;stroke-linecap:butt;stroke-linejoin:miter;stroke-opacity:1"/>
<path class="bond-24 atom-11 atom-12" d="M 188.2,148.0 L 188.0,155.0" style="fill:none;fill-rule:evenodd;stroke:#000000;stroke-width:2.0px;stroke-linecap:butt;stroke-linejoin:miter;stroke-opacity:1"/>
<path class="bond-24 atom-11 atom-12" d="M 188.0,155.0 L 187.9,162.1" style="fill:none;fill-rule:evenodd;stroke:#0000FF;stroke-width:2.0px;stroke-linecap:butt;stroke-linejoin:miter;stroke-opacity:1"/>
<path class="bond-24 atom-11 atom-12" d="M 184.7,150.1 L 184.6,155.0" style="fill:none;fill-rule:evenodd;stroke:#000000;stroke-width:2.0px;stroke-linecap:butt;stroke-linejoin:miter;stroke-opacity:1"/>
<path class="bond-24 atom-11 atom-12" d="M 184.6,155.0 L 184.5,159.9" style="fill:none;fill-rule:evenodd;stroke:#0000FF;stroke-width:2.0px;stroke-linecap:butt;stroke-linejoin:miter;stroke-opacity:1"/>
<path class="bond-25 atom-12 atom-13" d="M 185.4,165.7 L 178.5,167.8" style="fill:none;fill-rule:evenodd;stroke:#0000FF;stroke-width:2.0px;stroke-linecap:butt;stroke-linejoin:miter;stroke-opacity:1"/>
<path class="bond-25 atom-12 atom-13" d="M 178.5,167.8 L 171.6,169.9" style="fill:none;fill-rule:evenodd;stroke:#000000;stroke-width:2.0px;stroke-linecap:butt;stroke-linejoin:miter;stroke-opacity:1"/>
<path class="bond-26 atom-13 atom-14" d="M 171.6,169.9 L 161.9,156.0" style="fill:none;fill-rule:evenodd;stroke:#000000;stroke-width:2.0px;stroke-linecap:butt;stroke-linejoin:miter;stroke-opacity:1"/>
<path class="bond-26 atom-13 atom-14" d="M 172.9,165.9 L 166.1,156.1" style="fill:none;fill-rule:evenodd;stroke:#000000;stroke-width:2.0px;stroke-linecap:butt;stroke-linejoin:miter;stroke-opacity:1"/>
<path class="bond-27 atom-13 atom-38" d="M 171.6,169.9 L 166.0,185.9" style="fill:none;fill-rule:evenodd;stroke:#000000;stroke-width:2.0px;stroke-linecap:butt;stroke-linejoin:miter;stroke-opacity:1"/>
<path class="bond-28 atom-14 atom-15" d="M 161.9,156.0 L 145.0,155.6" style="fill:none;fill-rule:evenodd;stroke:#000000;stroke-width:2.0px;stroke-linecap:butt;stroke-linejoin:miter;stroke-opacity:1"/>
<path class="bond-29 atom-15 atom-16" d="M 145.0,155.6 L 136.8,140.8" style="fill:none;fill-rule:evenodd;stroke:#000000;stroke-width:2.0px;stroke-linecap:butt;stroke-linejoin:miter;stroke-opacity:1"/>
<path class="bond-29 atom-15 atom-16" d="M 140.8,155.0 L 135.0,144.6" style="fill:none;fill-rule:evenodd;stroke:#000000;stroke-width:2.0px;stroke-linecap:butt;stroke-linejoin:miter;stroke-opacity:1"/>
<path class="bond-30 atom-15 atom-17" d="M 145.0,155.6 L 136.2,170.1" style="fill:none;fill-rule:evenodd;stroke:#000000;stroke-width:2.0px;stroke-linecap:butt;stroke-linejoin:miter;stroke-opacity:1"/>
<path class="bond-31 atom-16 atom-22" d="M 136.8,140.8 L 119.8,140.4" style="fill:none;fill-rule:evenodd;stroke:#000000;stroke-width:2.0px;stroke-linecap:butt;stroke-linejoin:miter;stroke-opacity:1"/>
<path class="bond-32 atom-16 atom-33" d="M 136.8,140.8 L 145.6,126.3" style="fill:none;fill-rule:evenodd;stroke:#000000;stroke-width:2.0px;stroke-linecap:butt;stroke-linejoin:miter;stroke-opacity:1"/>
<path class="bond-33 atom-17 atom-18" d="M 136.2,170.1 L 128.9,170.0" style="fill:none;fill-rule:evenodd;stroke:#000000;stroke-width:2.0px;stroke-linecap:butt;stroke-linejoin:miter;stroke-opacity:1"/>
<path class="bond-33 atom-17 atom-18" d="M 128.9,170.0 L 121.6,169.8" style="fill:none;fill-rule:evenodd;stroke:#0000FF;stroke-width:2.0px;stroke-linecap:butt;stroke-linejoin:miter;stroke-opacity:1"/>
<path class="bond-33 atom-17 atom-18" d="M 134.1,166.7 L 129.0,166.6" style="fill:none;fill-rule:evenodd;stroke:#000000;stroke-width:2.0px;stroke-linecap:butt;stroke-linejoin:miter;stroke-opacity:1"/>
<path class="bond-33 atom-17 atom-18" d="M 129.0,166.6 L 123.8,166.5" style="fill:none;fill-rule:evenodd;stroke:#0000FF;stroke-width:2.0px;stroke-linecap:butt;stroke-linejoin:miter;stroke-opacity:1"/>
<path class="bond-34 atom-17 atom-34" d="M 136.2,170.1 L 140.1,179.9" style="fill:none;fill-rule:evenodd;stroke:#000000;stroke-width:2.0px;stroke-linecap:butt;stroke-linejoin:miter;stroke-opacity:1"/>
<path class="bond-35 atom-18 atom-19" d="M 117.6,166.8 L 114.3,160.9" style="fill:none;fill-rule:evenodd;stroke:#0000FF;stroke-width:2.0px;stroke-linecap:butt;stroke-linejoin:miter;stroke-opacity:1"/>
<path class="bond-35 atom-18 atom-19" d="M 114.3,160.9 L 111.1,154.9" style="fill:none;fill-rule:evenodd;stroke:#000000;stroke-width:2.0px;stroke-linecap:butt;stroke-linejoin:miter;stroke-opacity:1"/>
<path class="bond-36 atom-19 atom-20" d="M 111.1,154.9 L 94.1,154.5" style="fill:none;fill-rule:evenodd;stroke:#000000;stroke-width:2.0px;stroke-linecap:butt;stroke-linejoin:miter;stroke-opacity:1"/>
<path class="bond-37 atom-19 atom-22" d="M 111.1,154.9 L 119.8,140.4" style="fill:none;fill-rule:evenodd;stroke:#000000;stroke-width:2.0px;stroke-linecap:butt;stroke-linejoin:miter;stroke-opacity:1"/>
<path class="bond-37 atom-19 atom-22" d="M 115.3,154.5 L 121.4,144.3" style="fill:none;fill-rule:evenodd;stroke:#000000;stroke-width:2.0px;stroke-linecap:butt;stroke-linejoin:miter;stroke-opacity:1"/>
<path class="bond-38 atom-20 atom-21" d="M 94.1,154.5 L 77.2,154.2" style="fill:none;fill-rule:evenodd;stroke:#000000;stroke-width:2.0px;stroke-linecap:butt;stroke-linejoin:miter;stroke-opacity:1"/>
<path class="bond-39 atom-20 atom-43" d="M 94.1,154.5 L 93.8,168.5" style="fill:none;fill-rule:evenodd;stroke:#000000;stroke-width:2.0px;stroke-linecap:butt;stroke-linejoin:miter;stroke-opacity:1"/>
<path class="bond-40 atom-20 atom-44" d="M 94.1,154.5 L 94.4,140.5" style="fill:none;fill-rule:evenodd;stroke:#000000;stroke-width:2.0px;stroke-linecap:butt;stroke-linejoin:miter;stroke-opacity:1"/>
<path class="bond-41 atom-21 atom-35" d="M 77.2,154.2 L 77.4,140.2" style="fill:none;fill-rule:evenodd;stroke:#000000;stroke-width:2.0px;stroke-linecap:butt;stroke-linejoin:miter;stroke-opacity:1"/>
<path class="bond-42 atom-21 atom-36" d="M 77.2,154.2 L 70.1,154.0" style="fill:none;fill-rule:evenodd;stroke:#000000;stroke-width:2.0px;stroke-linecap:butt;stroke-linejoin:miter;stroke-opacity:1"/>
<path class="bond-42 atom-21 atom-36" d="M 70.1,154.0 L 63.0,153.9" style="fill:none;fill-rule:evenodd;stroke:#FF0000;stroke-width:2.0px;stroke-linecap:butt;stroke-linejoin:miter;stroke-opacity:1"/>
<path class="bond-43 atom-21 atom-37" d="M 77.2,154.2 L 76.9,168.2" style="fill:none;fill-rule:evenodd;stroke:#000000;stroke-width:2.0px;stroke-linecap:butt;stroke-linejoin:miter;stroke-opacity:1"/>
<path class="bond-44 atom-22 atom-42" d="M 119.8,140.4 L 113.3,128.5" style="fill:none;fill-rule:evenodd;stroke:#000000;stroke-width:2.0px;stroke-linecap:butt;stroke-linejoin:miter;stroke-opacity:1"/>
<path class="bond-45 atom-33 atom-49" d="M 145.6,126.3 L 133.5,118.9" style="fill:none;fill-rule:evenodd;stroke:#000000;stroke-width:2.0px;stroke-linecap:butt;stroke-linejoin:miter;stroke-opacity:1"/>
<path class="bond-46 atom-33 atom-50" d="M 145.6,126.3 L 157.7,133.6" style="fill:none;fill-rule:evenodd;stroke:#000000;stroke-width:2.0px;stroke-linecap:butt;stroke-linejoin:miter;stroke-opacity:1"/>
<path class="bond-47 atom-33 atom-51" d="M 145.6,126.3 L 148.4,120.1" style="fill:none;fill-rule:evenodd;stroke:#000000;stroke-width:2.0px;stroke-linecap:butt;stroke-linejoin:miter;stroke-opacity:1"/>
<path class="bond-48 atom-36 atom-45" d="M 58.6,150.9 L 55.3,144.9" style="fill:none;fill-rule:evenodd;stroke:#FF0000;stroke-width:2.0px;stroke-linecap:butt;stroke-linejoin:miter;stroke-opacity:1"/>
<path class="bond-48 atom-36 atom-45" d="M 55.3,144.9 L 52.0,139.0" style="fill:none;fill-rule:evenodd;stroke:#000000;stroke-width:2.0px;stroke-linecap:butt;stroke-linejoin:miter;stroke-opacity:1"/>
<path class="bond-49 atom-38 atom-39" d="M 166.0,185.9 L 155.0,183.5" style="fill:none;fill-rule:evenodd;stroke:#000000;stroke-width:2.0px;stroke-linecap:butt;stroke-linejoin:miter;stroke-opacity:1"/>
<path class="bond-50 atom-38 atom-40" d="M 166.0,185.9 L 179.6,190.6" style="fill:none;fill-rule:evenodd;stroke:#000000;stroke-width:2.0px;stroke-linecap:butt;stroke-linejoin:miter;stroke-opacity:1"/>
<path class="bond-51 atom-38 atom-41" d="M 166.0,185.9 L 161.5,199.0" style="fill:none;fill-rule:evenodd;stroke:#000000;stroke-width:2.0px;stroke-linecap:butt;stroke-linejoin:miter;stroke-opacity:1"/>
<path class="bond-52 atom-45 atom-46" d="M 52.0,139.0 L 39.6,145.8" style="fill:none;fill-rule:evenodd;stroke:#000000;stroke-width:2.0px;stroke-linecap:butt;stroke-linejoin:miter;stroke-opacity:1"/>
<path class="bond-53 atom-45 atom-47" d="M 52.0,139.0 L 64.5,132.1" style="fill:none;fill-rule:evenodd;stroke:#000000;stroke-width:2.0px;stroke-linecap:butt;stroke-linejoin:miter;stroke-opacity:1"/>
<path class="bond-54 atom-45 atom-48" d="M 52.0,139.0 L 45.5,127.1" style="fill:none;fill-rule:evenodd;stroke:#000000;stroke-width:2.0px;stroke-linecap:butt;stroke-linejoin:miter;stroke-opacity:1"/>
<path class="atom-2" d="M 246.8 153.7 Q 246.8 152.6, 247.4 151.9 Q 248.0 151.3, 249.0 151.3 Q 250.1 151.3, 250.7 151.9 Q 251.3 152.6, 251.3 153.7 Q 251.3 154.9, 250.7 155.5 Q 250.1 156.2, 249.0 156.2 Q 248.0 156.2, 247.4 155.5 Q 246.8 154.9, 246.8 153.7 M 249.0 155.7 Q 249.8 155.7, 250.2 155.2 Q 250.6 154.7, 250.6 153.7 Q 250.6 152.8, 250.2 152.3 Q 249.8 151.8, 249.0 151.8 Q 248.3 151.8, 247.9 152.3 Q 247.5 152.8, 247.5 153.7 Q 247.5 154.7, 247.9 155.2 Q 248.3 155.7, 249.0 155.7 " fill="#FF0000"/>
<path class="atom-5" d="M 216.0 140.1 L 217.5 142.7 Q 217.7 142.9, 217.9 143.4 Q 218.2 143.8, 218.2 143.9 L 218.2 140.1 L 218.8 140.1 L 218.8 144.9 L 218.2 144.9 L 216.5 142.2 Q 216.3 141.8, 216.1 141.5 Q 215.9 141.1, 215.8 141.0 L 215.8 144.9 L 215.2 144.9 L 215.2 140.1 L 216.0 140.1 " fill="#0000FF"/>
<path class="atom-7" d="M 196.8 117.9 L 198.3 120.5 Q 198.5 120.7, 198.8 121.2 Q 199.0 121.6, 199.0 121.6 L 199.0 117.9 L 199.7 117.9 L 199.7 122.7 L 199.0 122.7 L 197.3 119.9 Q 197.1 119.6, 196.9 119.2 Q 196.7 118.9, 196.6 118.7 L 196.6 122.7 L 196.0 122.7 L 196.0 117.9 L 196.8 117.9 " fill="#0000FF"/>
<path class="atom-10" d="M 171.1 140.1 L 172.7 142.6 Q 172.8 142.9, 173.1 143.3 Q 173.3 143.8, 173.3 143.8 L 173.3 140.1 L 174.0 140.1 L 174.0 144.9 L 173.3 144.9 L 171.6 142.1 Q 171.4 141.8, 171.2 141.4 Q 171.0 141.0, 171.0 140.9 L 171.0 144.9 L 170.3 144.9 L 170.3 140.1 L 171.1 140.1 " fill="#0000FF"/>
<path class="atom-12" d="M 186.8 162.6 L 188.3 165.1 Q 188.5 165.4, 188.7 165.8 Q 189.0 166.3, 189.0 166.3 L 189.0 162.6 L 189.6 162.6 L 189.6 167.4 L 189.0 167.4 L 187.3 164.6 Q 187.1 164.3, 186.9 163.9 Q 186.7 163.5, 186.6 163.4 L 186.6 167.4 L 186.0 167.4 L 186.0 162.6 L 186.8 162.6 " fill="#0000FF"/>
<path class="atom-18" d="M 118.2 167.4 L 119.7 169.9 Q 119.9 170.2, 120.1 170.6 Q 120.4 171.1, 120.4 171.1 L 120.4 167.4 L 121.0 167.4 L 121.0 172.2 L 120.4 172.2 L 118.7 169.4 Q 118.5 169.1, 118.3 168.7 Q 118.1 168.3, 118.0 168.2 L 118.0 172.2 L 117.4 172.2 L 117.4 167.4 L 118.2 167.4 " fill="#0000FF"/>
<path class="atom-23" d="M 214.8 118.4 L 215.5 118.4 L 215.5 120.4 L 217.9 120.4 L 217.9 118.4 L 218.6 118.4 L 218.6 123.2 L 217.9 123.2 L 217.9 120.9 L 215.5 120.9 L 215.5 123.2 L 214.8 123.2 L 214.8 118.4 " fill="#000000"/>
<path class="atom-24" d="M 236.3 114.3 L 236.9 114.3 L 236.9 116.3 L 239.4 116.3 L 239.4 114.3 L 240.0 114.3 L 240.0 119.1 L 239.4 119.1 L 239.4 116.9 L 236.9 116.9 L 236.9 119.1 L 236.3 119.1 L 236.3 114.3 " fill="#000000"/>
<path class="atom-25" d="M 246.7 117.9 L 247.4 117.9 L 247.4 120.0 L 249.8 120.0 L 249.8 117.9 L 250.5 117.9 L 250.5 122.7 L 249.8 122.7 L 249.8 120.5 L 247.4 120.5 L 247.4 122.7 L 246.7 122.7 L 246.7 117.9 " fill="#000000"/>
<path class="atom-26" d="M 260.9 134.4 L 261.6 134.4 L 261.6 136.5 L 264.1 136.5 L 264.1 134.4 L 264.7 134.4 L 264.7 139.2 L 264.1 139.2 L 264.1 137.0 L 261.6 137.0 L 261.6 139.2 L 260.9 139.2 L 260.9 134.4 " fill="#000000"/>
<path class="atom-27" d="M 247.5 173.1 L 248.1 173.1 L 248.1 175.1 L 250.6 175.1 L 250.6 173.1 L 251.2 173.1 L 251.2 177.9 L 250.6 177.9 L 250.6 175.7 L 248.1 175.7 L 248.1 177.9 L 247.5 177.9 L 247.5 173.1 " fill="#000000"/>
<path class="atom-28" d="M 226.1 177.2 L 226.7 177.2 L 226.7 179.2 L 229.2 179.2 L 229.2 177.2 L 229.8 177.2 L 229.8 182.0 L 229.2 182.0 L 229.2 179.8 L 226.7 179.8 L 226.7 182.0 L 226.1 182.0 L 226.1 177.2 " fill="#000000"/>
<path class="atom-29" d="M 215.6 173.5 L 216.3 173.5 L 216.3 175.6 L 218.7 175.6 L 218.7 173.5 L 219.4 173.5 L 219.4 178.3 L 218.7 178.3 L 218.7 176.1 L 216.3 176.1 L 216.3 178.3 L 215.6 178.3 L 215.6 173.5 " fill="#000000"/>
<path class="atom-30" d="M 201.4 157.0 L 202.0 157.0 L 202.0 159.1 L 204.5 159.1 L 204.5 157.0 L 205.1 157.0 L 205.1 161.8 L 204.5 161.8 L 204.5 159.6 L 202.0 159.6 L 202.0 161.8 L 201.4 161.8 L 201.4 157.0 " fill="#000000"/>
<path class="atom-31" d="M 176.8 95.7 L 177.4 95.7 L 177.4 97.7 L 179.9 97.7 L 179.9 95.7 L 180.5 95.7 L 180.5 100.5 L 179.9 100.5 L 179.9 98.3 L 177.4 98.3 L 177.4 100.5 L 176.8 100.5 L 176.8 95.7 " fill="#000000"/>
<path class="atom-32" d="M 158.1 119.0 L 158.8 119.0 L 158.8 121.0 L 161.2 121.0 L 161.2 119.0 L 161.9 119.0 L 161.9 123.8 L 161.2 123.8 L 161.2 121.6 L 158.8 121.6 L 158.8 123.8 L 158.1 123.8 L 158.1 119.0 " fill="#000000"/>
<path class="atom-34" d="M 139.4 180.5 L 140.0 180.5 L 140.0 182.5 L 142.5 182.5 L 142.5 180.5 L 143.2 180.5 L 143.2 185.3 L 142.5 185.3 L 142.5 183.1 L 140.0 183.1 L 140.0 185.3 L 139.4 185.3 L 139.4 180.5 " fill="#000000"/>
<path class="atom-35" d="M 75.6 134.8 L 76.3 134.8 L 76.3 136.9 L 78.7 136.9 L 78.7 134.8 L 79.4 134.8 L 79.4 139.6 L 78.7 139.6 L 78.7 137.4 L 76.3 137.4 L 76.3 139.6 L 75.6 139.6 L 75.6 134.8 " fill="#000000"/>
<path class="atom-36" d="M 58.0 153.8 Q 58.0 152.7, 58.6 152.0 Q 59.1 151.4, 60.2 151.4 Q 61.3 151.4, 61.8 152.0 Q 62.4 152.7, 62.4 153.8 Q 62.4 155.0, 61.8 155.7 Q 61.3 156.3, 60.2 156.3 Q 59.1 156.3, 58.6 155.7 Q 58.0 155.0, 58.0 153.8 M 60.2 155.8 Q 60.9 155.8, 61.3 155.3 Q 61.7 154.8, 61.7 153.8 Q 61.7 152.9, 61.3 152.4 Q 60.9 151.9, 60.2 151.9 Q 59.5 151.9, 59.1 152.4 Q 58.7 152.9, 58.7 153.8 Q 58.7 154.8, 59.1 155.3 Q 59.5 155.8, 60.2 155.8 " fill="#FF0000"/>
<path class="atom-37" d="M 74.9 168.7 L 75.6 168.7 L 75.6 170.8 L 78.0 170.8 L 78.0 168.7 L 78.7 168.7 L 78.7 173.5 L 78.0 173.5 L 78.0 171.3 L 75.6 171.3 L 75.6 173.5 L 74.9 173.5 L 74.9 168.7 " fill="#000000"/>
<path class="atom-39" d="M 150.7 180.6 L 151.4 180.6 L 151.4 182.6 L 153.8 182.6 L 153.8 180.6 L 154.5 180.6 L 154.5 185.4 L 153.8 185.4 L 153.8 183.2 L 151.4 183.2 L 151.4 185.4 L 150.7 185.4 L 150.7 180.6 " fill="#000000"/>
<path class="atom-40" d="M 180.1 189.1 L 180.8 189.1 L 180.8 191.1 L 183.2 191.1 L 183.2 189.1 L 183.9 189.1 L 183.9 193.9 L 183.2 193.9 L 183.2 191.7 L 180.8 191.7 L 180.8 193.9 L 180.1 193.9 L 180.1 189.1 " fill="#000000"/>
<path class="atom-41" d="M 158.5 199.5 L 159.2 199.5 L 159.2 201.6 L 161.7 201.6 L 161.7 199.5 L 162.3 199.5 L 162.3 204.3 L 161.7 204.3 L 161.7 202.1 L 159.2 202.1 L 159.2 204.3 L 158.5 204.3 L 158.5 199.5 " fill="#000000"/>
<path class="atom-42" d="M 109.8 123.1 L 110.4 123.1 L 110.4 125.2 L 112.9 125.2 L 112.9 123.1 L 113.6 123.1 L 113.6 127.9 L 112.9 127.9 L 112.9 125.7 L 110.4 125.7 L 110.4 127.9 L 109.8 127.9 L 109.8 123.1 " fill="#000000"/>
<path class="atom-43" d="M 91.9 169.1 L 92.5 169.1 L 92.5 171.1 L 95.0 171.1 L 95.0 169.1 L 95.6 169.1 L 95.6 173.9 L 95.0 173.9 L 95.0 171.7 L 92.5 171.7 L 92.5 173.9 L 91.9 173.9 L 91.9 169.1 " fill="#000000"/>
<path class="atom-44" d="M 92.6 135.2 L 93.2 135.2 L 93.2 137.2 L 95.7 137.2 L 95.7 135.2 L 96.3 135.2 L 96.3 140.0 L 95.7 140.0 L 95.7 137.8 L 93.2 137.8 L 93.2 140.0 L 92.6 140.0 L 92.6 135.2 " fill="#000000"/>
<path class="atom-46" d="M 35.3 144.7 L 35.9 144.7 L 35.9 146.8 L 38.4 146.8 L 38.4 144.7 L 39.1 144.7 L 39.1 149.5 L 38.4 149.5 L 38.4 147.3 L 35.9 147.3 L 35.9 149.5 L 35.3 149.5 L 35.3 144.7 " fill="#000000"/>
<path class="atom-47" d="M 65.0 128.4 L 65.7 128.4 L 65.7 130.4 L 68.1 130.4 L 68.1 128.4 L 68.8 128.4 L 68.8 133.2 L 68.1 133.2 L 68.1 131.0 L 65.7 131.0 L 65.7 133.2 L 65.0 133.2 L 65.0 128.4 " fill="#000000"/>
<path class="atom-48" d="M 42.0 121.7 L 42.6 121.7 L 42.6 123.7 L 45.1 123.7 L 45.1 121.7 L 45.7 121.7 L 45.7 126.5 L 45.1 126.5 L 45.1 124.3 L 42.6 124.3 L 42.6 126.5 L 42.0 126.5 L 42.0 121.7 " fill="#000000"/>
<path class="atom-49" d="M 129.2 115.1 L 129.8 115.1 L 129.8 117.1 L 132.3 117.1 L 132.3 115.1 L 133.0 115.1 L 133.0 119.9 L 132.3 119.9 L 132.3 117.7 L 129.8 117.7 L 129.8 119.9 L 129.2 119.9 L 129.2 115.1 " fill="#000000"/>
<path class="atom-50" d="M 158.2 132.6 L 158.9 132.6 L 158.9 134.7 L 161.3 134.7 L 161.3 132.6 L 162.0 132.6 L 162.0 137.4 L 161.3 137.4 L 161.3 135.2 L 158.9 135.2 L 158.9 137.4 L 158.2 137.4 L 158.2 132.6 " fill="#000000"/>
<path class="atom-51" d="M 147.8 114.7 L 148.5 114.7 L 148.5 116.8 L 150.9 116.8 L 150.9 114.7 L 151.6 114.7 L 151.6 119.5 L 150.9 119.5 L 150.9 117.3 L 148.5 117.3 L 148.5 119.5 L 147.8 119.5 L 147.8 114.7 " fill="#000000"/>
<path class="bond-0 atom-0 atom-1" d="M 531.4,138.8 L 546.6,146.3" style="fill:none;fill-rule:evenodd;stroke:#000000;stroke-width:2.0px;stroke-linecap:butt;stroke-linejoin:miter;stroke-opacity:1"/>
<path class="bond-1 atom-0 atom-5" d="M 531.4,138.8 L 525.6,142.7" style="fill:none;fill-rule:evenodd;stroke:#000000;stroke-width:2.0px;stroke-linecap:butt;stroke-linejoin:miter;stroke-opacity:1"/>
<path class="bond-1 atom-0 atom-5" d="M 525.6,142.7 L 519.7,146.7" style="fill:none;fill-rule:evenodd;stroke:#0000FF;stroke-width:2.0px;stroke-linecap:butt;stroke-linejoin:miter;stroke-opacity:1"/>
<path class="bond-2 atom-0 atom-23" d="M 531.4,138.8 L 522.1,129.1" style="fill:none;fill-rule:evenodd;stroke:#000000;stroke-width:2.0px;stroke-linecap:butt;stroke-linejoin:miter;stroke-opacity:1"/>
<path class="bond-3 atom-0 atom-24" d="M 531.4,138.8 L 539.2,128.1" style="fill:none;fill-rule:evenodd;stroke:#000000;stroke-width:2.0px;stroke-linecap:butt;stroke-linejoin:miter;stroke-opacity:1"/>
<path class="bond-4 atom-1 atom-2" d="M 546.6,146.3 L 547.1,153.2" style="fill:none;fill-rule:evenodd;stroke:#000000;stroke-width:2.0px;stroke-linecap:butt;stroke-linejoin:miter;stroke-opacity:1"/>
<path class="bond-4 atom-1 atom-2" d="M 547.1,153.2 L 547.6,160.2" style="fill:none;fill-rule:evenodd;stroke:#FF0000;stroke-width:2.0px;stroke-linecap:butt;stroke-linejoin:miter;stroke-opacity:1"/>
<path class="bond-5 atom-1 atom-25" d="M 546.6,146.3 L 550.5,132.9" style="fill:none;fill-rule:evenodd;stroke:#000000;stroke-width:2.0px;stroke-linecap:butt;stroke-linejoin:miter;stroke-opacity:1"/>
<path class="bond-6 atom-1 atom-26" d="M 546.6,146.3 L 561.1,147.8" style="fill:none;fill-rule:evenodd;stroke:#000000;stroke-width:2.0px;stroke-linecap:butt;stroke-linejoin:miter;stroke-opacity:1"/>
<path class="bond-7 atom-2 atom-3" d="M 545.0,165.0 L 539.4,168.8" style="fill:none;fill-rule:evenodd;stroke:#FF0000;stroke-width:2.0px;stroke-linecap:butt;stroke-linejoin:miter;stroke-opacity:1"/>
<path class="bond-7 atom-2 atom-3" d="M 539.4,168.8 L 533.7,172.6" style="fill:none;fill-rule:evenodd;stroke:#000000;stroke-width:2.0px;stroke-linecap:butt;stroke-linejoin:miter;stroke-opacity:1"/>
<path class="bond-8 atom-3 atom-4" d="M 533.7,172.6 L 518.5,165.2" style="fill:none;fill-rule:evenodd;stroke:#000000;stroke-width:2.0px;stroke-linecap:butt;stroke-linejoin:miter;stroke-opacity:1"/>
<path class="bond-9 atom-3 atom-27" d="M 533.7,172.6 L 543.1,182.3" style="fill:none;fill-rule:evenodd;stroke:#000000;stroke-width:2.0px;stroke-linecap:butt;stroke-linejoin:miter;stroke-opacity:1"/>
<path class="bond-10 atom-3 atom-28" d="M 533.7,172.6 L 525.9,183.4" style="fill:none;fill-rule:evenodd;stroke:#000000;stroke-width:2.0px;stroke-linecap:butt;stroke-linejoin:miter;stroke-opacity:1"/>
<path class="bond-11 atom-4 atom-5" d="M 518.5,165.2 L 518.0,158.2" style="fill:none;fill-rule:evenodd;stroke:#000000;stroke-width:2.0px;stroke-linecap:butt;stroke-linejoin:miter;stroke-opacity:1"/>
<path class="bond-11 atom-4 atom-5" d="M 518.0,158.2 L 517.5,151.2" style="fill:none;fill-rule:evenodd;stroke:#0000FF;stroke-width:2.0px;stroke-linecap:butt;stroke-linejoin:miter;stroke-opacity:1"/>
<path class="bond-12 atom-4 atom-29" d="M 518.5,165.2 L 514.7,178.5" style="fill:none;fill-rule:evenodd;stroke:#000000;stroke-width:2.0px;stroke-linecap:butt;stroke-linejoin:miter;stroke-opacity:1"/>
<path class="bond-13 atom-4 atom-30" d="M 518.5,165.2 L 504.1,163.7" style="fill:none;fill-rule:evenodd;stroke:#000000;stroke-width:2.0px;stroke-linecap:butt;stroke-linejoin:miter;stroke-opacity:1"/>
<path class="bond-14 atom-5 atom-6" d="M 515.0,147.1 L 508.5,144.0" style="fill:none;fill-rule:evenodd;stroke:#0000FF;stroke-width:2.0px;stroke-linecap:butt;stroke-linejoin:miter;stroke-opacity:1"/>
<path class="bond-14 atom-5 atom-6" d="M 508.5,144.0 L 502.1,140.8" style="fill:none;fill-rule:evenodd;stroke:#000000;stroke-width:2.0px;stroke-linecap:butt;stroke-linejoin:miter;stroke-opacity:1"/>
<path class="bond-15 atom-6 atom-7" d="M 502.1,140.8 L 501.6,133.8" style="fill:none;fill-rule:evenodd;stroke:#000000;stroke-width:2.0px;stroke-linecap:butt;stroke-linejoin:miter;stroke-opacity:1"/>
<path class="bond-15 atom-6 atom-7" d="M 501.6,133.8 L 501.2,126.9" style="fill:none;fill-rule:evenodd;stroke:#0000FF;stroke-width:2.0px;stroke-linecap:butt;stroke-linejoin:miter;stroke-opacity:1"/>
<path class="bond-15 atom-6 atom-7" d="M 498.6,139.0 L 498.3,134.1" style="fill:none;fill-rule:evenodd;stroke:#000000;stroke-width:2.0px;stroke-linecap:butt;stroke-linejoin:miter;stroke-opacity:1"/>
<path class="bond-15 atom-6 atom-7" d="M 498.3,134.1 L 497.9,129.2" style="fill:none;fill-rule:evenodd;stroke:#0000FF;stroke-width:2.0px;stroke-linecap:butt;stroke-linejoin:miter;stroke-opacity:1"/>
<path class="bond-16 atom-6 atom-11" d="M 502.1,140.8 L 488.0,150.3" style="fill:none;fill-rule:evenodd;stroke:#000000;stroke-width:2.0px;stroke-linecap:butt;stroke-linejoin:miter;stroke-opacity:1"/>
<path class="bond-17 atom-7 atom-8" d="M 498.6,122.7 L 492.1,119.6" style="fill:none;fill-rule:evenodd;stroke:#0000FF;stroke-width:2.0px;stroke-linecap:butt;stroke-linejoin:miter;stroke-opacity:1"/>
<path class="bond-17 atom-7 atom-8" d="M 492.1,119.6 L 485.7,116.5" style="fill:none;fill-rule:evenodd;stroke:#000000;stroke-width:2.0px;stroke-linecap:butt;stroke-linejoin:miter;stroke-opacity:1"/>
<path class="bond-18 atom-8 atom-9" d="M 485.7,116.5 L 471.7,125.9" style="fill:none;fill-rule:evenodd;stroke:#000000;stroke-width:2.0px;stroke-linecap:butt;stroke-linejoin:miter;stroke-opacity:1"/>
<path class="bond-18 atom-8 atom-9" d="M 485.5,120.7 L 475.7,127.3" style="fill:none;fill-rule:evenodd;stroke:#000000;stroke-width:2.0px;stroke-linecap:butt;stroke-linejoin:miter;stroke-opacity:1"/>
<path class="bond-19 atom-8 atom-31" d="M 485.7,116.5 L 484.8,102.5" style="fill:none;fill-rule:evenodd;stroke:#000000;stroke-width:2.0px;stroke-linecap:butt;stroke-linejoin:miter;stroke-opacity:1"/>
<path class="bond-20 atom-9 atom-10" d="M 471.7,125.9 L 472.1,132.9" style="fill:none;fill-rule:evenodd;stroke:#000000;stroke-width:2.0px;stroke-linecap:butt;stroke-linejoin:miter;stroke-opacity:1"/>
<path class="bond-20 atom-9 atom-10" d="M 472.1,132.9 L 472.6,139.9" style="fill:none;fill-rule:evenodd;stroke:#0000FF;stroke-width:2.0px;stroke-linecap:butt;stroke-linejoin:miter;stroke-opacity:1"/>
<path class="bond-21 atom-9 atom-32" d="M 471.7,125.9 L 459.9,118.3" style="fill:none;fill-rule:evenodd;stroke:#000000;stroke-width:2.0px;stroke-linecap:butt;stroke-linejoin:miter;stroke-opacity:1"/>
<path class="bond-22 atom-10 atom-11" d="M 475.2,144.0 L 481.6,147.1" style="fill:none;fill-rule:evenodd;stroke:#0000FF;stroke-width:2.0px;stroke-linecap:butt;stroke-linejoin:miter;stroke-opacity:1"/>
<path class="bond-22 atom-10 atom-11" d="M 481.6,147.1 L 488.0,150.3" style="fill:none;fill-rule:evenodd;stroke:#000000;stroke-width:2.0px;stroke-linecap:butt;stroke-linejoin:miter;stroke-opacity:1"/>
<path class="bond-23 atom-10 atom-14" d="M 470.4,145.3 L 465.7,150.2" style="fill:none;fill-rule:evenodd;stroke:#0000FF;stroke-width:2.0px;stroke-linecap:butt;stroke-linejoin:miter;stroke-opacity:1"/>
<path class="bond-23 atom-10 atom-14" d="M 465.7,150.2 L 461.0,155.0" style="fill:none;fill-rule:evenodd;stroke:#000000;stroke-width:2.0px;stroke-linecap:butt;stroke-linejoin:miter;stroke-opacity:1"/>
<path class="bond-24 atom-11 atom-12" d="M 488.0,150.3 L 487.1,157.2" style="fill:none;fill-rule:evenodd;stroke:#000000;stroke-width:2.0px;stroke-linecap:butt;stroke-linejoin:miter;stroke-opacity:1"/>
<path class="bond-24 atom-11 atom-12" d="M 487.1,157.2 L 486.1,164.1" style="fill:none;fill-rule:evenodd;stroke:#0000FF;stroke-width:2.0px;stroke-linecap:butt;stroke-linejoin:miter;stroke-opacity:1"/>
<path class="bond-24 atom-11 atom-12" d="M 484.4,151.9 L 483.7,156.7" style="fill:none;fill-rule:evenodd;stroke:#000000;stroke-width:2.0px;stroke-linecap:butt;stroke-linejoin:miter;stroke-opacity:1"/>
<path class="bond-24 atom-11 atom-12" d="M 483.7,156.7 L 483.0,161.6" style="fill:none;fill-rule:evenodd;stroke:#0000FF;stroke-width:2.0px;stroke-linecap:butt;stroke-linejoin:miter;stroke-opacity:1"/>
<path class="bond-25 atom-12 atom-13" d="M 483.3,167.5 L 476.1,168.7" style="fill:none;fill-rule:evenodd;stroke:#0000FF;stroke-width:2.0px;stroke-linecap:butt;stroke-linejoin:miter;stroke-opacity:1"/>
<path class="bond-25 atom-12 atom-13" d="M 476.1,168.7 L 469.0,170.0" style="fill:none;fill-rule:evenodd;stroke:#000000;stroke-width:2.0px;stroke-linecap:butt;stroke-linejoin:miter;stroke-opacity:1"/>
<path class="bond-26 atom-13 atom-14" d="M 469.0,170.0 L 461.0,155.0" style="fill:none;fill-rule:evenodd;stroke:#000000;stroke-width:2.0px;stroke-linecap:butt;stroke-linejoin:miter;stroke-opacity:1"/>
<path class="bond-26 atom-13 atom-14" d="M 470.8,166.2 L 465.2,155.7" style="fill:none;fill-rule:evenodd;stroke:#000000;stroke-width:2.0px;stroke-linecap:butt;stroke-linejoin:miter;stroke-opacity:1"/>
<path class="bond-27 atom-13 atom-38" d="M 469.0,170.0 L 461.5,185.2" style="fill:none;fill-rule:evenodd;stroke:#000000;stroke-width:2.0px;stroke-linecap:butt;stroke-linejoin:miter;stroke-opacity:1"/>
<path class="bond-28 atom-14 atom-15" d="M 461.0,155.0 L 444.2,152.6" style="fill:none;fill-rule:evenodd;stroke:#000000;stroke-width:2.0px;stroke-linecap:butt;stroke-linejoin:miter;stroke-opacity:1"/>
<path class="bond-29 atom-15 atom-16" d="M 444.2,152.6 L 433.8,166.0" style="fill:none;fill-rule:evenodd;stroke:#000000;stroke-width:2.0px;stroke-linecap:butt;stroke-linejoin:miter;stroke-opacity:1"/>
<path class="bond-29 atom-15 atom-16" d="M 440.0,152.6 L 432.7,161.9" style="fill:none;fill-rule:evenodd;stroke:#000000;stroke-width:2.0px;stroke-linecap:butt;stroke-linejoin:miter;stroke-opacity:1"/>
<path class="bond-30 atom-15 atom-17" d="M 444.2,152.6 L 437.9,136.9" style="fill:none;fill-rule:evenodd;stroke:#000000;stroke-width:2.0px;stroke-linecap:butt;stroke-linejoin:miter;stroke-opacity:1"/>
<path class="bond-31 atom-16 atom-22" d="M 433.8,166.0 L 417.0,163.6" style="fill:none;fill-rule:evenodd;stroke:#000000;stroke-width:2.0px;stroke-linecap:butt;stroke-linejoin:miter;stroke-opacity:1"/>
<path class="bond-32 atom-16 atom-33" d="M 433.8,166.0 L 436.5,176.3" style="fill:none;fill-rule:evenodd;stroke:#000000;stroke-width:2.0px;stroke-linecap:butt;stroke-linejoin:miter;stroke-opacity:1"/>
<path class="bond-33 atom-17 atom-18" d="M 437.9,136.9 L 430.7,135.9" style="fill:none;fill-rule:evenodd;stroke:#000000;stroke-width:2.0px;stroke-linecap:butt;stroke-linejoin:miter;stroke-opacity:1"/>
<path class="bond-33 atom-17 atom-18" d="M 430.7,135.9 L 423.5,134.9" style="fill:none;fill-rule:evenodd;stroke:#0000FF;stroke-width:2.0px;stroke-linecap:butt;stroke-linejoin:miter;stroke-opacity:1"/>
<path class="bond-33 atom-17 atom-18" d="M 435.3,140.0 L 430.2,139.2" style="fill:none;fill-rule:evenodd;stroke:#000000;stroke-width:2.0px;stroke-linecap:butt;stroke-linejoin:miter;stroke-opacity:1"/>
<path class="bond-33 atom-17 atom-18" d="M 430.2,139.2 L 425.2,138.5" style="fill:none;fill-rule:evenodd;stroke:#0000FF;stroke-width:2.0px;stroke-linecap:butt;stroke-linejoin:miter;stroke-opacity:1"/>
<path class="bond-34 atom-17 atom-34" d="M 437.9,136.9 L 444.9,125.3" style="fill:none;fill-rule:evenodd;stroke:#000000;stroke-width:2.0px;stroke-linecap:butt;stroke-linejoin:miter;stroke-opacity:1"/>
<path class="bond-35 atom-18 atom-19" d="M 418.8,137.5 L 414.7,142.7" style="fill:none;fill-rule:evenodd;stroke:#0000FF;stroke-width:2.0px;stroke-linecap:butt;stroke-linejoin:miter;stroke-opacity:1"/>
<path class="bond-35 atom-18 atom-19" d="M 414.7,142.7 L 410.7,147.9" style="fill:none;fill-rule:evenodd;stroke:#000000;stroke-width:2.0px;stroke-linecap:butt;stroke-linejoin:miter;stroke-opacity:1"/>
<path class="bond-36 atom-19 atom-20" d="M 410.7,147.9 L 393.9,145.5" style="fill:none;fill-rule:evenodd;stroke:#000000;stroke-width:2.0px;stroke-linecap:butt;stroke-linejoin:miter;stroke-opacity:1"/>
<path class="bond-37 atom-19 atom-22" d="M 410.7,147.9 L 417.0,163.6" style="fill:none;fill-rule:evenodd;stroke:#000000;stroke-width:2.0px;stroke-linecap:butt;stroke-linejoin:miter;stroke-opacity:1"/>
<path class="bond-37 atom-19 atom-22" d="M 414.8,149.0 L 419.2,160.0" style="fill:none;fill-rule:evenodd;stroke:#000000;stroke-width:2.0px;stroke-linecap:butt;stroke-linejoin:miter;stroke-opacity:1"/>
<path class="bond-38 atom-20 atom-21" d="M 393.9,145.5 L 377.1,143.1" style="fill:none;fill-rule:evenodd;stroke:#000000;stroke-width:2.0px;stroke-linecap:butt;stroke-linejoin:miter;stroke-opacity:1"/>
<path class="bond-39 atom-20 atom-43" d="M 393.9,145.5 L 395.8,131.7" style="fill:none;fill-rule:evenodd;stroke:#000000;stroke-width:2.0px;stroke-linecap:butt;stroke-linejoin:miter;stroke-opacity:1"/>
<path class="bond-40 atom-20 atom-44" d="M 393.9,145.5 L 391.9,159.3" style="fill:none;fill-rule:evenodd;stroke:#000000;stroke-width:2.0px;stroke-linecap:butt;stroke-linejoin:miter;stroke-opacity:1"/>
<path class="bond-41 atom-21 atom-35" d="M 377.1,143.1 L 375.1,157.0" style="fill:none;fill-rule:evenodd;stroke:#000000;stroke-width:2.0px;stroke-linecap:butt;stroke-linejoin:miter;stroke-opacity:1"/>
<path class="bond-42 atom-21 atom-36" d="M 377.1,143.1 L 370.1,142.1" style="fill:none;fill-rule:evenodd;stroke:#000000;stroke-width:2.0px;stroke-linecap:butt;stroke-linejoin:miter;stroke-opacity:1"/>
<path class="bond-42 atom-21 atom-36" d="M 370.1,142.1 L 363.1,141.1" style="fill:none;fill-rule:evenodd;stroke:#FF0000;stroke-width:2.0px;stroke-linecap:butt;stroke-linejoin:miter;stroke-opacity:1"/>
<path class="bond-43 atom-21 atom-37" d="M 377.1,143.1 L 379.0,129.3" style="fill:none;fill-rule:evenodd;stroke:#000000;stroke-width:2.0px;stroke-linecap:butt;stroke-linejoin:miter;stroke-opacity:1"/>
<path class="bond-44 atom-22 atom-42" d="M 417.0,163.6 L 408.9,174.0" style="fill:none;fill-rule:evenodd;stroke:#000000;stroke-width:2.0px;stroke-linecap:butt;stroke-linejoin:miter;stroke-opacity:1"/>
<path class="bond-45 atom-36 atom-45" d="M 357.9,143.8 L 353.9,148.9" style="fill:none;fill-rule:evenodd;stroke:#FF0000;stroke-width:2.0px;stroke-linecap:butt;stroke-linejoin:miter;stroke-opacity:1"/>
<path class="bond-45 atom-36 atom-45" d="M 353.9,148.9 L 349.8,154.1" style="fill:none;fill-rule:evenodd;stroke:#000000;stroke-width:2.0px;stroke-linecap:butt;stroke-linejoin:miter;stroke-opacity:1"/>
<path class="bond-46 atom-38 atom-39" d="M 461.5,185.2 L 451.0,181.6" style="fill:none;fill-rule:evenodd;stroke:#000000;stroke-width:2.0px;stroke-linecap:butt;stroke-linejoin:miter;stroke-opacity:1"/>
<path class="bond-47 atom-38 atom-40" d="M 461.5,185.2 L 474.3,191.5" style="fill:none;fill-rule:evenodd;stroke:#000000;stroke-width:2.0px;stroke-linecap:butt;stroke-linejoin:miter;stroke-opacity:1"/>
<path class="bond-48 atom-38 atom-41" d="M 461.5,185.2 L 455.5,197.5" style="fill:none;fill-rule:evenodd;stroke:#000000;stroke-width:2.0px;stroke-linecap:butt;stroke-linejoin:miter;stroke-opacity:1"/>
<path class="bond-49 atom-45 atom-46" d="M 349.8,154.1 L 338.9,145.5" style="fill:none;fill-rule:evenodd;stroke:#000000;stroke-width:2.0px;stroke-linecap:butt;stroke-linejoin:miter;stroke-opacity:1"/>
<path class="bond-50 atom-45 atom-47" d="M 349.8,154.1 L 360.8,162.6" style="fill:none;fill-rule:evenodd;stroke:#000000;stroke-width:2.0px;stroke-linecap:butt;stroke-linejoin:miter;stroke-opacity:1"/>
<path class="bond-51 atom-45 atom-48" d="M 349.8,154.1 L 341.7,164.5" style="fill:none;fill-rule:evenodd;stroke:#000000;stroke-width:2.0px;stroke-linecap:butt;stroke-linejoin:miter;stroke-opacity:1"/>
<path class="atom-2" d="M 545.6 163.2 Q 545.6 162.0, 546.2 161.4 Q 546.7 160.7, 547.8 160.7 Q 548.9 160.7, 549.4 161.4 Q 550.0 162.0, 550.0 163.2 Q 550.0 164.4, 549.4 165.0 Q 548.9 165.7, 547.8 165.7 Q 546.8 165.7, 546.2 165.0 Q 545.6 164.4, 545.6 163.2 M 547.8 165.1 Q 548.5 165.1, 548.9 164.6 Q 549.3 164.1, 549.3 163.2 Q 549.3 162.2, 548.9 161.8 Q 548.5 161.3, 547.8 161.3 Q 547.1 161.3, 546.7 161.8 Q 546.3 162.2, 546.3 163.2 Q 546.3 164.2, 546.7 164.6 Q 547.1 165.1, 547.8 165.1 " fill="#FF0000"/>
<path class="atom-5" d="M 516.3 145.9 L 517.9 148.4 Q 518.0 148.7, 518.3 149.1 Q 518.5 149.6, 518.5 149.6 L 518.5 145.9 L 519.2 145.9 L 519.2 150.7 L 518.5 150.7 L 516.8 147.9 Q 516.6 147.6, 516.4 147.2 Q 516.2 146.8, 516.1 146.7 L 516.1 150.7 L 515.5 150.7 L 515.5 145.9 L 516.3 145.9 " fill="#0000FF"/>
<path class="atom-7" d="M 499.9 121.5 L 501.5 124.0 Q 501.6 124.3, 501.9 124.8 Q 502.1 125.2, 502.1 125.2 L 502.1 121.5 L 502.8 121.5 L 502.8 126.3 L 502.1 126.3 L 500.4 123.5 Q 500.2 123.2, 500.0 122.8 Q 499.8 122.5, 499.8 122.3 L 499.8 126.3 L 499.1 126.3 L 499.1 121.5 L 499.9 121.5 " fill="#0000FF"/>
<path class="atom-10" d="M 471.8 140.4 L 473.3 143.0 Q 473.5 143.2, 473.7 143.7 Q 474.0 144.1, 474.0 144.2 L 474.0 140.4 L 474.6 140.4 L 474.6 145.2 L 474.0 145.2 L 472.3 142.5 Q 472.1 142.1, 471.9 141.8 Q 471.7 141.4, 471.6 141.3 L 471.6 145.2 L 471.0 145.2 L 471.0 140.4 L 471.8 140.4 " fill="#0000FF"/>
<path class="atom-12" d="M 484.6 164.7 L 486.2 167.2 Q 486.3 167.5, 486.6 167.9 Q 486.8 168.4, 486.9 168.4 L 486.9 164.7 L 487.5 164.7 L 487.5 169.5 L 486.8 169.5 L 485.1 166.7 Q 484.9 166.4, 484.7 166.0 Q 484.5 165.6, 484.5 165.5 L 484.5 169.5 L 483.8 169.5 L 483.8 164.7 L 484.6 164.7 " fill="#0000FF"/>
<path class="atom-18" d="M 420.1 132.1 L 421.6 134.7 Q 421.8 134.9, 422.0 135.4 Q 422.3 135.8, 422.3 135.9 L 422.3 132.1 L 422.9 132.1 L 422.9 136.9 L 422.3 136.9 L 420.6 134.2 Q 420.4 133.8, 420.2 133.5 Q 420.0 133.1, 419.9 133.0 L 419.9 136.9 L 419.3 136.9 L 419.3 132.1 L 420.1 132.1 " fill="#0000FF"/>
<path class="atom-23" d="M 517.8 124.2 L 518.4 124.2 L 518.4 126.2 L 520.9 126.2 L 520.9 124.2 L 521.5 124.2 L 521.5 129.0 L 520.9 129.0 L 520.9 126.8 L 518.4 126.8 L 518.4 129.0 L 517.8 129.0 L 517.8 124.2 " fill="#000000"/>
<path class="atom-24" d="M 539.5 122.7 L 540.2 122.7 L 540.2 124.7 L 542.6 124.7 L 542.6 122.7 L 543.3 122.7 L 543.3 127.5 L 542.6 127.5 L 542.6 125.3 L 540.2 125.3 L 540.2 127.5 L 539.5 127.5 L 539.5 122.7 " fill="#000000"/>
<path class="atom-25" d="M 549.5 127.6 L 550.1 127.6 L 550.1 129.6 L 552.6 129.6 L 552.6 127.6 L 553.2 127.6 L 553.2 132.4 L 552.6 132.4 L 552.6 130.1 L 550.1 130.1 L 550.1 132.4 L 549.5 132.4 L 549.5 127.6 " fill="#000000"/>
<path class="atom-26" d="M 561.6 145.6 L 562.3 145.6 L 562.3 147.7 L 564.7 147.7 L 564.7 145.6 L 565.4 145.6 L 565.4 150.4 L 564.7 150.4 L 564.7 148.2 L 562.3 148.2 L 562.3 150.4 L 561.6 150.4 L 561.6 145.6 " fill="#000000"/>
<path class="atom-27" d="M 543.6 182.4 L 544.3 182.4 L 544.3 184.5 L 546.7 184.5 L 546.7 182.4 L 547.4 182.4 L 547.4 187.2 L 546.7 187.2 L 546.7 185.0 L 544.3 185.0 L 544.3 187.2 L 543.6 187.2 L 543.6 182.4 " fill="#000000"/>
<path class="atom-28" d="M 521.9 183.9 L 522.5 183.9 L 522.5 186.0 L 525.0 186.0 L 525.0 183.9 L 525.6 183.9 L 525.6 188.7 L 525.0 188.7 L 525.0 186.5 L 522.5 186.5 L 522.5 188.7 L 521.9 188.7 L 521.9 183.9 " fill="#000000"/>
<path class="atom-29" d="M 511.9 179.1 L 512.6 179.1 L 512.6 181.1 L 515.0 181.1 L 515.0 179.1 L 515.7 179.1 L 515.7 183.9 L 515.0 183.9 L 515.0 181.7 L 512.6 181.7 L 512.6 183.9 L 511.9 183.9 L 511.9 179.1 " fill="#000000"/>
<path class="atom-30" d="M 499.8 161.0 L 500.4 161.0 L 500.4 163.0 L 502.9 163.0 L 502.9 161.0 L 503.5 161.0 L 503.5 165.8 L 502.9 165.8 L 502.9 163.6 L 500.4 163.6 L 500.4 165.8 L 499.8 165.8 L 499.8 161.0 " fill="#000000"/>
<path class="atom-31" d="M 482.7 97.1 L 483.3 97.1 L 483.3 99.2 L 485.8 99.2 L 485.8 97.1 L 486.4 97.1 L 486.4 101.9 L 485.8 101.9 L 485.8 99.7 L 483.3 99.7 L 483.3 101.9 L 482.7 101.9 L 482.7 97.1 " fill="#000000"/>
<path class="atom-32" d="M 455.6 114.3 L 456.2 114.3 L 456.2 116.3 L 458.7 116.3 L 458.7 114.3 L 459.3 114.3 L 459.3 119.1 L 458.7 119.1 L 458.7 116.9 L 456.2 116.9 L 456.2 119.1 L 455.6 119.1 L 455.6 114.3 " fill="#000000"/>
<path class="atom-33" d="M 435.4 176.9 L 436.1 176.9 L 436.1 178.9 L 438.5 178.9 L 438.5 176.9 L 439.2 176.9 L 439.2 181.7 L 438.5 181.7 L 438.5 179.4 L 436.1 179.4 L 436.1 181.7 L 435.4 181.7 L 435.4 176.9 " fill="#000000"/>
<path class="atom-34" d="M 444.8 120.0 L 445.4 120.0 L 445.4 122.0 L 447.9 122.0 L 447.9 120.0 L 448.5 120.0 L 448.5 124.8 L 447.9 124.8 L 447.9 122.6 L 445.4 122.6 L 445.4 124.8 L 444.8 124.8 L 444.8 120.0 " fill="#000000"/>
<path class="atom-35" d="M 372.8 157.5 L 373.5 157.5 L 373.5 159.6 L 375.9 159.6 L 375.9 157.5 L 376.6 157.5 L 376.6 162.3 L 375.9 162.3 L 375.9 160.1 L 373.5 160.1 L 373.5 162.3 L 372.8 162.3 L 372.8 157.5 " fill="#000000"/>
<path class="atom-36" d="M 358.1 140.8 Q 358.1 139.6, 358.7 139.0 Q 359.2 138.3, 360.3 138.3 Q 361.4 138.3, 361.9 139.0 Q 362.5 139.6, 362.5 140.8 Q 362.5 141.9, 361.9 142.6 Q 361.3 143.2, 360.3 143.2 Q 359.2 143.2, 358.7 142.6 Q 358.1 141.9, 358.1 140.8 M 360.3 142.7 Q 361.0 142.7, 361.4 142.2 Q 361.8 141.7, 361.8 140.8 Q 361.8 139.8, 361.4 139.3 Q 361.0 138.9, 360.3 138.9 Q 359.6 138.9, 359.2 139.3 Q 358.8 139.8, 358.8 140.8 Q 358.8 141.7, 359.2 142.2 Q 359.6 142.7, 360.3 142.7 " fill="#FF0000"/>
<path class="atom-37" d="M 377.6 123.9 L 378.2 123.9 L 378.2 126.0 L 380.7 126.0 L 380.7 123.9 L 381.3 123.9 L 381.3 128.7 L 380.7 128.7 L 380.7 126.5 L 378.2 126.5 L 378.2 128.7 L 377.6 128.7 L 377.6 123.9 " fill="#000000"/>
<path class="atom-39" d="M 446.7 178.3 L 447.3 178.3 L 447.3 180.4 L 449.8 180.4 L 449.8 178.3 L 450.4 178.3 L 450.4 183.1 L 449.8 183.1 L 449.8 180.9 L 447.3 180.9 L 447.3 183.1 L 446.7 183.1 L 446.7 178.3 " fill="#000000"/>
<path class="atom-40" d="M 474.9 190.3 L 475.5 190.3 L 475.5 192.3 L 478.0 192.3 L 478.0 190.3 L 478.6 190.3 L 478.6 195.1 L 478.0 195.1 L 478.0 192.9 L 475.5 192.9 L 475.5 195.1 L 474.9 195.1 L 474.9 190.3 " fill="#000000"/>
<path class="atom-41" d="M 452.2 198.1 L 452.8 198.1 L 452.8 200.1 L 455.3 200.1 L 455.3 198.1 L 455.9 198.1 L 455.9 202.9 L 455.3 202.9 L 455.3 200.6 L 452.8 200.6 L 452.8 202.9 L 452.2 202.9 L 452.2 198.1 " fill="#000000"/>
<path class="atom-42" d="M 404.7 174.6 L 405.3 174.6 L 405.3 176.6 L 407.8 176.6 L 407.8 174.6 L 408.4 174.6 L 408.4 179.4 L 407.8 179.4 L 407.8 177.1 L 405.3 177.1 L 405.3 179.4 L 404.7 179.4 L 404.7 174.6 " fill="#000000"/>
<path class="atom-43" d="M 394.4 126.3 L 395.0 126.3 L 395.0 128.4 L 397.5 128.4 L 397.5 126.3 L 398.1 126.3 L 398.1 131.1 L 397.5 131.1 L 397.5 128.9 L 395.0 128.9 L 395.0 131.1 L 394.4 131.1 L 394.4 126.3 " fill="#000000"/>
<path class="atom-44" d="M 389.6 159.9 L 390.3 159.9 L 390.3 161.9 L 392.7 161.9 L 392.7 159.9 L 393.4 159.9 L 393.4 164.7 L 392.7 164.7 L 392.7 162.5 L 390.3 162.5 L 390.3 164.7 L 389.6 164.7 L 389.6 159.9 " fill="#000000"/>
<path class="atom-46" d="M 334.6 141.2 L 335.3 141.2 L 335.3 143.3 L 337.7 143.3 L 337.7 141.2 L 338.4 141.2 L 338.4 146.0 L 337.7 146.0 L 337.7 143.8 L 335.3 143.8 L 335.3 146.0 L 334.6 146.0 L 334.6 141.2 " fill="#000000"/>
<path class="atom-47" d="M 361.3 162.1 L 362.0 162.1 L 362.0 164.2 L 364.4 164.2 L 364.4 162.1 L 365.1 162.1 L 365.1 166.9 L 364.4 166.9 L 364.4 164.7 L 362.0 164.7 L 362.0 166.9 L 361.3 166.9 L 361.3 162.1 " fill="#000000"/>
<path class="atom-48" d="M 337.5 165.0 L 338.2 165.0 L 338.2 167.1 L 340.6 167.1 L 340.6 165.0 L 341.3 165.0 L 341.3 169.8 L 340.6 169.8 L 340.6 167.6 L 338.2 167.6 L 338.2 169.8 L 337.5 169.8 L 337.5 165.0 " fill="#000000"/>
<text x="300" y="20" font-size="20" font-family="sans-serif" font-weight="normal" letter-spacing="0" text-anchor="middle" fill="black">pde10: 4189 -&gt; 4415</text><text x="300" y="35" font-size="15" font-family="sans-serif" font-weight="normal" letter-spacing="0" text-anchor="middle" fill="black"></text><text x="150" y="285" font-size="15" font-family="sans-serif" font-weight="normal" letter-spacing="0" text-anchor="middle" fill="black">4189</text><text x="450" y="285" font-size="15" font-family="sans-serif" font-weight="normal" letter-spacing="0" text-anchor="middle" fill="black">4415</text></svg>
