<?xml version='1.0' encoding='ASCII' standalone='yes'?>
<svg xmlns="http://www.w3.org/2000/svg" xmlns:rdkit="http://www.rdkit.org/xml" xmlns:xlink="http://www.w3.org/1999/xlink" version="1.1" baseProfile="full" xml:space="preserve" width="600px" height="300px" viewBox="0 0 600 300">
<!-- END OF HEADER -->
<rect style="opacity:1.0;fill:#FFFFFF;stroke:none" width="600.0" height="300.0" x="0.0" y="0.0"> </rect>
<path class="bond-0 atom-0 atom-1" d="M 230.3,146.0 L 245.6,155.9" style="fill:none;fill-rule:evenodd;stroke:#000000;stroke-width:2.0px;stroke-linecap:butt;stroke-linejoin:miter;stroke-opacity:1"/>
<path class="bond-1 atom-0 atom-5" d="M 230.3,146.0 L 223.5,149.5" style="fill:none;fill-rule:evenodd;stroke:#000000;stroke-width:2.0px;stroke-linecap:butt;stroke-linejoin:miter;stroke-opacity:1"/>
<path class="bond-1 atom-0 atom-5" d="M 223.5,149.5 L 216.6,153.0" style="fill:none;fill-rule:evenodd;stroke:#0000FF;stroke-width:2.0px;stroke-linecap:butt;stroke-linejoin:miter;stroke-opacity:1"/>
<path class="bond-2 atom-0 atom-21" d="M 230.3,146.0 L 221.7,134.7" style="fill:none;fill-rule:evenodd;stroke:#000000;stroke-width:2.0px;stroke-linecap:butt;stroke-linejoin:miter;stroke-opacity:1"/>
<path class="bond-3 atom-0 atom-22" d="M 230.3,146.0 L 240.1,135.5" style="fill:none;fill-rule:evenodd;stroke:#000000;stroke-width:2.0px;stroke-linecap:butt;stroke-linejoin:miter;stroke-opacity:1"/>
<path class="bond-4 atom-1 atom-2" d="M 245.6,155.9 L 245.2,163.4" style="fill:none;fill-rule:evenodd;stroke:#000000;stroke-width:2.0px;stroke-linecap:butt;stroke-linejoin:miter;stroke-opacity:1"/>
<path class="bond-4 atom-1 atom-2" d="M 245.2,163.4 L 244.8,170.9" style="fill:none;fill-rule:evenodd;stroke:#FF0000;stroke-width:2.0px;stroke-linecap:butt;stroke-linejoin:miter;stroke-opacity:1"/>
<path class="bond-5 atom-1 atom-23" d="M 245.6,155.9 L 251.4,142.3" style="fill:none;fill-rule:evenodd;stroke:#000000;stroke-width:2.0px;stroke-linecap:butt;stroke-linejoin:miter;stroke-opacity:1"/>
<path class="bond-6 atom-1 atom-24" d="M 245.6,155.9 L 260.7,159.4" style="fill:none;fill-rule:evenodd;stroke:#000000;stroke-width:2.0px;stroke-linecap:butt;stroke-linejoin:miter;stroke-opacity:1"/>
<path class="bond-7 atom-2 atom-3" d="M 241.7,175.6 L 235.1,179.0" style="fill:none;fill-rule:evenodd;stroke:#FF0000;stroke-width:2.0px;stroke-linecap:butt;stroke-linejoin:miter;stroke-opacity:1"/>
<path class="bond-7 atom-2 atom-3" d="M 235.1,179.0 L 228.5,182.4" style="fill:none;fill-rule:evenodd;stroke:#000000;stroke-width:2.0px;stroke-linecap:butt;stroke-linejoin:miter;stroke-opacity:1"/>
<path class="bond-8 atom-3 atom-4" d="M 228.5,182.4 L 213.2,172.5" style="fill:none;fill-rule:evenodd;stroke:#000000;stroke-width:2.0px;stroke-linecap:butt;stroke-linejoin:miter;stroke-opacity:1"/>
<path class="bond-9 atom-3 atom-25" d="M 228.5,182.4 L 237.0,193.8" style="fill:none;fill-rule:evenodd;stroke:#000000;stroke-width:2.0px;stroke-linecap:butt;stroke-linejoin:miter;stroke-opacity:1"/>
<path class="bond-10 atom-3 atom-26" d="M 228.5,182.4 L 218.7,192.9" style="fill:none;fill-rule:evenodd;stroke:#000000;stroke-width:2.0px;stroke-linecap:butt;stroke-linejoin:miter;stroke-opacity:1"/>
<path class="bond-11 atom-4 atom-5" d="M 213.2,172.5 L 213.5,165.0" style="fill:none;fill-rule:evenodd;stroke:#000000;stroke-width:2.0px;stroke-linecap:butt;stroke-linejoin:miter;stroke-opacity:1"/>
<path class="bond-11 atom-4 atom-5" d="M 213.5,165.0 L 213.9,157.5" style="fill:none;fill-rule:evenodd;stroke:#0000FF;stroke-width:2.0px;stroke-linecap:butt;stroke-linejoin:miter;stroke-opacity:1"/>
<path class="bond-12 atom-4 atom-27" d="M 213.2,172.5 L 207.4,186.1" style="fill:none;fill-rule:evenodd;stroke:#000000;stroke-width:2.0px;stroke-linecap:butt;stroke-linejoin:miter;stroke-opacity:1"/>
<path class="bond-13 atom-4 atom-28" d="M 213.2,172.5 L 198.0,169.0" style="fill:none;fill-rule:evenodd;stroke:#000000;stroke-width:2.0px;stroke-linecap:butt;stroke-linejoin:miter;stroke-opacity:1"/>
<path class="bond-14 atom-5 atom-6" d="M 211.5,152.7 L 205.2,148.5" style="fill:none;fill-rule:evenodd;stroke:#0000FF;stroke-width:2.0px;stroke-linecap:butt;stroke-linejoin:miter;stroke-opacity:1"/>
<path class="bond-14 atom-5 atom-6" d="M 205.2,148.5 L 198.8,144.4" style="fill:none;fill-rule:evenodd;stroke:#000000;stroke-width:2.0px;stroke-linecap:butt;stroke-linejoin:miter;stroke-opacity:1"/>
<path class="bond-15 atom-6 atom-7" d="M 198.8,144.4 L 199.2,136.9" style="fill:none;fill-rule:evenodd;stroke:#000000;stroke-width:2.0px;stroke-linecap:butt;stroke-linejoin:miter;stroke-opacity:1"/>
<path class="bond-15 atom-6 atom-7" d="M 199.2,136.9 L 199.6,129.4" style="fill:none;fill-rule:evenodd;stroke:#0000FF;stroke-width:2.0px;stroke-linecap:butt;stroke-linejoin:miter;stroke-opacity:1"/>
<path class="bond-15 atom-6 atom-7" d="M 195.3,142.0 L 195.5,136.7" style="fill:none;fill-rule:evenodd;stroke:#000000;stroke-width:2.0px;stroke-linecap:butt;stroke-linejoin:miter;stroke-opacity:1"/>
<path class="bond-15 atom-6 atom-7" d="M 195.5,136.7 L 195.8,131.5" style="fill:none;fill-rule:evenodd;stroke:#0000FF;stroke-width:2.0px;stroke-linecap:butt;stroke-linejoin:miter;stroke-opacity:1"/>
<path class="bond-16 atom-6 atom-11" d="M 198.8,144.4 L 182.6,152.7" style="fill:none;fill-rule:evenodd;stroke:#000000;stroke-width:2.0px;stroke-linecap:butt;stroke-linejoin:miter;stroke-opacity:1"/>
<path class="bond-17 atom-7 atom-8" d="M 197.2,124.6 L 190.8,120.4" style="fill:none;fill-rule:evenodd;stroke:#0000FF;stroke-width:2.0px;stroke-linecap:butt;stroke-linejoin:miter;stroke-opacity:1"/>
<path class="bond-17 atom-7 atom-8" d="M 190.8,120.4 L 184.4,116.3" style="fill:none;fill-rule:evenodd;stroke:#000000;stroke-width:2.0px;stroke-linecap:butt;stroke-linejoin:miter;stroke-opacity:1"/>
<path class="bond-18 atom-8 atom-9" d="M 184.4,116.3 L 168.2,124.6" style="fill:none;fill-rule:evenodd;stroke:#000000;stroke-width:2.0px;stroke-linecap:butt;stroke-linejoin:miter;stroke-opacity:1"/>
<path class="bond-18 atom-8 atom-9" d="M 183.6,120.8 L 172.3,126.6" style="fill:none;fill-rule:evenodd;stroke:#000000;stroke-width:2.0px;stroke-linecap:butt;stroke-linejoin:miter;stroke-opacity:1"/>
<path class="bond-19 atom-8 atom-29" d="M 184.4,116.3 L 185.2,101.3" style="fill:none;fill-rule:evenodd;stroke:#000000;stroke-width:2.0px;stroke-linecap:butt;stroke-linejoin:miter;stroke-opacity:1"/>
<path class="bond-20 atom-9 atom-10" d="M 168.2,124.6 L 167.8,132.1" style="fill:none;fill-rule:evenodd;stroke:#000000;stroke-width:2.0px;stroke-linecap:butt;stroke-linejoin:miter;stroke-opacity:1"/>
<path class="bond-20 atom-9 atom-10" d="M 167.8,132.1 L 167.4,139.6" style="fill:none;fill-rule:evenodd;stroke:#0000FF;stroke-width:2.0px;stroke-linecap:butt;stroke-linejoin:miter;stroke-opacity:1"/>
<path class="bond-21 atom-9 atom-30" d="M 168.2,124.6 L 155.5,116.4" style="fill:none;fill-rule:evenodd;stroke:#000000;stroke-width:2.0px;stroke-linecap:butt;stroke-linejoin:miter;stroke-opacity:1"/>
<path class="bond-22 atom-10 atom-11" d="M 169.8,144.5 L 176.2,148.6" style="fill:none;fill-rule:evenodd;stroke:#0000FF;stroke-width:2.0px;stroke-linecap:butt;stroke-linejoin:miter;stroke-opacity:1"/>
<path class="bond-22 atom-10 atom-11" d="M 176.2,148.6 L 182.6,152.7" style="fill:none;fill-rule:evenodd;stroke:#000000;stroke-width:2.0px;stroke-linecap:butt;stroke-linejoin:miter;stroke-opacity:1"/>
<path class="bond-23 atom-10 atom-14" d="M 164.7,144.9 L 158.9,149.6" style="fill:none;fill-rule:evenodd;stroke:#0000FF;stroke-width:2.0px;stroke-linecap:butt;stroke-linejoin:miter;stroke-opacity:1"/>
<path class="bond-23 atom-10 atom-14" d="M 158.9,149.6 L 153.1,154.3" style="fill:none;fill-rule:evenodd;stroke:#000000;stroke-width:2.0px;stroke-linecap:butt;stroke-linejoin:miter;stroke-opacity:1"/>
<path class="bond-24 atom-11 atom-12" d="M 182.6,152.7 L 180.6,159.9" style="fill:none;fill-rule:evenodd;stroke:#000000;stroke-width:2.0px;stroke-linecap:butt;stroke-linejoin:miter;stroke-opacity:1"/>
<path class="bond-24 atom-11 atom-12" d="M 180.6,159.9 L 178.7,167.1" style="fill:none;fill-rule:evenodd;stroke:#0000FF;stroke-width:2.0px;stroke-linecap:butt;stroke-linejoin:miter;stroke-opacity:1"/>
<path class="bond-24 atom-11 atom-12" d="M 178.5,153.9 L 177.1,159.0" style="fill:none;fill-rule:evenodd;stroke:#000000;stroke-width:2.0px;stroke-linecap:butt;stroke-linejoin:miter;stroke-opacity:1"/>
<path class="bond-24 atom-11 atom-12" d="M 177.1,159.0 L 175.8,164.0" style="fill:none;fill-rule:evenodd;stroke:#0000FF;stroke-width:2.0px;stroke-linecap:butt;stroke-linejoin:miter;stroke-opacity:1"/>
<path class="bond-25 atom-12 atom-13" d="M 175.3,170.4 L 167.5,170.9" style="fill:none;fill-rule:evenodd;stroke:#0000FF;stroke-width:2.0px;stroke-linecap:butt;stroke-linejoin:miter;stroke-opacity:1"/>
<path class="bond-25 atom-12 atom-13" d="M 167.5,170.9 L 159.7,171.3" style="fill:none;fill-rule:evenodd;stroke:#000000;stroke-width:2.0px;stroke-linecap:butt;stroke-linejoin:miter;stroke-opacity:1"/>
<path class="bond-26 atom-13 atom-14" d="M 159.7,171.3 L 153.1,154.3" style="fill:none;fill-rule:evenodd;stroke:#000000;stroke-width:2.0px;stroke-linecap:butt;stroke-linejoin:miter;stroke-opacity:1"/>
<path class="bond-26 atom-13 atom-14" d="M 162.1,167.4 L 157.5,155.5" style="fill:none;fill-rule:evenodd;stroke:#000000;stroke-width:2.0px;stroke-linecap:butt;stroke-linejoin:miter;stroke-opacity:1"/>
<path class="bond-27 atom-13 atom-36" d="M 159.7,171.3 L 149.8,186.6" style="fill:none;fill-rule:evenodd;stroke:#000000;stroke-width:2.0px;stroke-linecap:butt;stroke-linejoin:miter;stroke-opacity:1"/>
<path class="bond-28 atom-14 atom-15" d="M 153.1,154.3 L 135.5,149.6" style="fill:none;fill-rule:evenodd;stroke:#000000;stroke-width:2.0px;stroke-linecap:butt;stroke-linejoin:miter;stroke-opacity:1"/>
<path class="bond-29 atom-15 atom-16" d="M 135.5,149.6 L 121.4,161.1" style="fill:none;fill-rule:evenodd;stroke:#000000;stroke-width:2.0px;stroke-linecap:butt;stroke-linejoin:miter;stroke-opacity:1"/>
<path class="bond-29 atom-15 atom-16" d="M 131.1,148.5 L 121.2,156.5" style="fill:none;fill-rule:evenodd;stroke:#000000;stroke-width:2.0px;stroke-linecap:butt;stroke-linejoin:miter;stroke-opacity:1"/>
<path class="bond-30 atom-15 atom-17" d="M 135.5,149.6 L 129.0,132.6" style="fill:none;fill-rule:evenodd;stroke:#000000;stroke-width:2.0px;stroke-linecap:butt;stroke-linejoin:miter;stroke-opacity:1"/>
<path class="bond-31 atom-16 atom-19" d="M 121.4,161.1 L 115.0,157.0" style="fill:none;fill-rule:evenodd;stroke:#000000;stroke-width:2.0px;stroke-linecap:butt;stroke-linejoin:miter;stroke-opacity:1"/>
<path class="bond-31 atom-16 atom-19" d="M 115.0,157.0 L 108.6,152.9" style="fill:none;fill-rule:evenodd;stroke:#0000FF;stroke-width:2.0px;stroke-linecap:butt;stroke-linejoin:miter;stroke-opacity:1"/>
<path class="bond-32 atom-16 atom-31" d="M 121.4,161.1 L 122.2,176.1" style="fill:none;fill-rule:evenodd;stroke:#000000;stroke-width:2.0px;stroke-linecap:butt;stroke-linejoin:miter;stroke-opacity:1"/>
<path class="bond-33 atom-17 atom-18" d="M 129.0,132.6 L 121.1,133.0" style="fill:none;fill-rule:evenodd;stroke:#000000;stroke-width:2.0px;stroke-linecap:butt;stroke-linejoin:miter;stroke-opacity:1"/>
<path class="bond-33 atom-17 atom-18" d="M 121.1,133.0 L 113.3,133.5" style="fill:none;fill-rule:evenodd;stroke:#0000FF;stroke-width:2.0px;stroke-linecap:butt;stroke-linejoin:miter;stroke-opacity:1"/>
<path class="bond-33 atom-17 atom-18" d="M 126.8,136.4 L 121.3,136.7" style="fill:none;fill-rule:evenodd;stroke:#000000;stroke-width:2.0px;stroke-linecap:butt;stroke-linejoin:miter;stroke-opacity:1"/>
<path class="bond-33 atom-17 atom-18" d="M 121.3,136.7 L 115.9,137.0" style="fill:none;fill-rule:evenodd;stroke:#0000FF;stroke-width:2.0px;stroke-linecap:butt;stroke-linejoin:miter;stroke-opacity:1"/>
<path class="bond-34 atom-17 atom-32" d="M 129.0,132.6 L 136.8,120.5" style="fill:none;fill-rule:evenodd;stroke:#000000;stroke-width:2.0px;stroke-linecap:butt;stroke-linejoin:miter;stroke-opacity:1"/>
<path class="bond-35 atom-18 atom-19" d="M 109.9,136.8 L 106.9,148.0" style="fill:none;fill-rule:evenodd;stroke:#0000FF;stroke-width:2.0px;stroke-linecap:butt;stroke-linejoin:miter;stroke-opacity:1"/>
<path class="bond-36 atom-19 atom-20" d="M 103.5,152.2 L 96.3,155.0" style="fill:none;fill-rule:evenodd;stroke:#0000FF;stroke-width:2.0px;stroke-linecap:butt;stroke-linejoin:miter;stroke-opacity:1"/>
<path class="bond-36 atom-19 atom-20" d="M 96.3,155.0 L 89.1,157.8" style="fill:none;fill-rule:evenodd;stroke:#000000;stroke-width:2.0px;stroke-linecap:butt;stroke-linejoin:miter;stroke-opacity:1"/>
<path class="bond-37 atom-20 atom-33" d="M 89.1,157.8 L 85.9,145.0" style="fill:none;fill-rule:evenodd;stroke:#000000;stroke-width:2.0px;stroke-linecap:butt;stroke-linejoin:miter;stroke-opacity:1"/>
<path class="bond-38 atom-20 atom-34" d="M 89.1,157.8 L 94.4,171.6" style="fill:none;fill-rule:evenodd;stroke:#000000;stroke-width:2.0px;stroke-linecap:butt;stroke-linejoin:miter;stroke-opacity:1"/>
<path class="bond-39 atom-20 atom-40" d="M 89.1,157.8 L 72.1,164.3" style="fill:none;fill-rule:evenodd;stroke:#000000;stroke-width:2.0px;stroke-linecap:butt;stroke-linejoin:miter;stroke-opacity:1"/>
<path class="bond-40 atom-40 atom-35" d="M 72.4,169.1 L 73.6,168.9" style="fill:none;fill-rule:evenodd;stroke:#000000;stroke-width:1.0px;stroke-linecap:butt;stroke-linejoin:miter;stroke-opacity:1"/>
<path class="bond-40 atom-40 atom-35" d="M 72.7,173.9 L 75.1,173.5" style="fill:none;fill-rule:evenodd;stroke:#000000;stroke-width:1.0px;stroke-linecap:butt;stroke-linejoin:miter;stroke-opacity:1"/>
<path class="bond-40 atom-40 atom-35" d="M 73.1,178.8 L 76.6,178.1" style="fill:none;fill-rule:evenodd;stroke:#000000;stroke-width:1.0px;stroke-linecap:butt;stroke-linejoin:miter;stroke-opacity:1"/>
<path class="bond-41 atom-36 atom-37" d="M 149.8,186.6 L 137.1,178.4" style="fill:none;fill-rule:evenodd;stroke:#000000;stroke-width:2.0px;stroke-linecap:butt;stroke-linejoin:miter;stroke-opacity:1"/>
<path class="bond-42 atom-36 atom-38" d="M 149.8,186.6 L 162.5,194.8" style="fill:none;fill-rule:evenodd;stroke:#000000;stroke-width:2.0px;stroke-linecap:butt;stroke-linejoin:miter;stroke-opacity:1"/>
<path class="bond-43 atom-36 atom-39" d="M 149.8,186.6 L 141.9,198.7" style="fill:none;fill-rule:evenodd;stroke:#000000;stroke-width:2.0px;stroke-linecap:butt;stroke-linejoin:miter;stroke-opacity:1"/>
<path class="bond-44 atom-40 atom-41" d="M 72.1,164.3 L 53.9,164.7" style="fill:none;fill-rule:evenodd;stroke:#000000;stroke-width:2.0px;stroke-linecap:butt;stroke-linejoin:miter;stroke-opacity:1"/>
<path class="bond-45 atom-40 atom-42" d="M 72.1,164.3 L 62.7,148.7" style="fill:none;fill-rule:evenodd;stroke:#000000;stroke-width:2.0px;stroke-linecap:butt;stroke-linejoin:miter;stroke-opacity:1"/>
<path class="bond-46 atom-41 atom-42" d="M 53.9,164.7 L 62.7,148.7" style="fill:none;fill-rule:evenodd;stroke:#000000;stroke-width:2.0px;stroke-linecap:butt;stroke-linejoin:miter;stroke-opacity:1"/>
<path class="bond-47 atom-41 atom-43" d="M 53.9,164.7 L 51.5,179.5" style="fill:none;fill-rule:evenodd;stroke:#000000;stroke-width:2.0px;stroke-linecap:butt;stroke-linejoin:miter;stroke-opacity:1"/>
<path class="bond-48 atom-41 atom-44" d="M 53.9,164.7 L 39.3,159.6" style="fill:none;fill-rule:evenodd;stroke:#000000;stroke-width:2.0px;stroke-linecap:butt;stroke-linejoin:miter;stroke-opacity:1"/>
<path class="bond-49 atom-42 atom-45" d="M 62.7,148.7 L 56.7,143.8" style="fill:none;fill-rule:evenodd;stroke:#000000;stroke-width:2.0px;stroke-linecap:butt;stroke-linejoin:miter;stroke-opacity:1"/>
<path class="bond-49 atom-42 atom-45" d="M 56.7,143.8 L 50.6,139.0" style="fill:none;fill-rule:evenodd;stroke:#33CCCC;stroke-width:2.0px;stroke-linecap:butt;stroke-linejoin:miter;stroke-opacity:1"/>
<path class="bond-50 atom-42 atom-46" d="M 62.7,148.7 L 67.1,143.8" style="fill:none;fill-rule:evenodd;stroke:#000000;stroke-width:2.0px;stroke-linecap:butt;stroke-linejoin:miter;stroke-opacity:1"/>
<path class="bond-50 atom-42 atom-46" d="M 67.1,143.8 L 71.5,138.9" style="fill:none;fill-rule:evenodd;stroke:#33CCCC;stroke-width:2.0px;stroke-linecap:butt;stroke-linejoin:miter;stroke-opacity:1"/>
<path class="atom-2" d="M 242.3 174.1 Q 242.3 172.9, 242.9 172.2 Q 243.5 171.5, 244.7 171.5 Q 245.8 171.5, 246.4 172.2 Q 247.1 172.9, 247.1 174.1 Q 247.1 175.4, 246.4 176.1 Q 245.8 176.8, 244.7 176.8 Q 243.5 176.8, 242.9 176.1 Q 242.3 175.4, 242.3 174.1 M 244.7 176.2 Q 245.5 176.2, 245.9 175.7 Q 246.3 175.2, 246.3 174.1 Q 246.3 173.1, 245.9 172.6 Q 245.5 172.1, 244.7 172.1 Q 243.9 172.1, 243.5 172.6 Q 243.0 173.1, 243.0 174.1 Q 243.0 175.2, 243.5 175.7 Q 243.9 176.2, 244.7 176.2 " fill="#FF0000"/>
<path class="atom-5" d="M 212.9 151.7 L 214.6 154.5 Q 214.8 154.7, 215.1 155.2 Q 215.3 155.7, 215.4 155.7 L 215.4 151.7 L 216.0 151.7 L 216.0 156.9 L 215.3 156.9 L 213.5 153.9 Q 213.3 153.5, 213.1 153.1 Q 212.9 152.7, 212.8 152.6 L 212.8 156.9 L 212.1 156.9 L 212.1 151.7 L 212.9 151.7 " fill="#0000FF"/>
<path class="atom-7" d="M 198.6 123.6 L 200.3 126.4 Q 200.4 126.6, 200.7 127.1 Q 201.0 127.6, 201.0 127.6 L 201.0 123.6 L 201.7 123.6 L 201.7 128.8 L 201.0 128.8 L 199.2 125.8 Q 198.9 125.5, 198.7 125.1 Q 198.5 124.6, 198.4 124.5 L 198.4 128.8 L 197.8 128.8 L 197.8 123.6 L 198.6 123.6 " fill="#0000FF"/>
<path class="atom-10" d="M 166.1 140.2 L 167.8 143.0 Q 168.0 143.2, 168.3 143.7 Q 168.5 144.2, 168.5 144.2 L 168.5 140.2 L 169.2 140.2 L 169.2 145.4 L 168.5 145.4 L 166.7 142.4 Q 166.5 142.0, 166.3 141.6 Q 166.1 141.2, 166.0 141.1 L 166.0 145.4 L 165.3 145.4 L 165.3 140.2 L 166.1 140.2 " fill="#0000FF"/>
<path class="atom-12" d="M 176.7 167.7 L 178.4 170.5 Q 178.6 170.7, 178.9 171.2 Q 179.1 171.7, 179.2 171.7 L 179.2 167.7 L 179.8 167.7 L 179.8 172.9 L 179.1 172.9 L 177.3 169.9 Q 177.1 169.6, 176.9 169.2 Q 176.7 168.8, 176.6 168.6 L 176.6 172.9 L 175.9 172.9 L 175.9 167.7 L 176.7 167.7 " fill="#0000FF"/>
<path class="atom-18" d="M 109.6 131.0 L 111.3 133.7 Q 111.5 134.0, 111.8 134.5 Q 112.0 135.0, 112.0 135.0 L 112.0 131.0 L 112.7 131.0 L 112.7 136.2 L 112.0 136.2 L 110.2 133.2 Q 110.0 132.8, 109.8 132.4 Q 109.6 132.0, 109.5 131.9 L 109.5 136.2 L 108.8 136.2 L 108.8 131.0 L 109.6 131.0 " fill="#0000FF"/>
<path class="atom-19" d="M 104.9 148.6 L 106.6 151.3 Q 106.8 151.6, 107.1 152.1 Q 107.3 152.6, 107.4 152.6 L 107.4 148.6 L 108.0 148.6 L 108.0 153.8 L 107.3 153.8 L 105.5 150.8 Q 105.3 150.4, 105.1 150.0 Q 104.9 149.6, 104.8 149.5 L 104.8 153.8 L 104.1 153.8 L 104.1 148.6 L 104.9 148.6 " fill="#0000FF"/>
<path class="atom-21" d="M 217.3 128.9 L 218.0 128.9 L 218.0 131.1 L 220.6 131.1 L 220.6 128.9 L 221.3 128.9 L 221.3 134.1 L 220.6 134.1 L 220.6 131.7 L 218.0 131.7 L 218.0 134.1 L 217.3 134.1 L 217.3 128.9 " fill="#000000"/>
<path class="atom-22" d="M 240.7 130.1 L 241.4 130.1 L 241.4 132.3 L 244.0 132.3 L 244.0 130.1 L 244.7 130.1 L 244.7 135.2 L 244.0 135.2 L 244.0 132.9 L 241.4 132.9 L 241.4 135.2 L 240.7 135.2 L 240.7 130.1 " fill="#000000"/>
<path class="atom-23" d="M 250.7 136.5 L 251.4 136.5 L 251.4 138.7 L 254.0 138.7 L 254.0 136.5 L 254.7 136.5 L 254.7 141.7 L 254.0 141.7 L 254.0 139.3 L 251.4 139.3 L 251.4 141.7 L 250.7 141.7 L 250.7 136.5 " fill="#000000"/>
<path class="atom-24" d="M 261.3 157.4 L 262.0 157.4 L 262.0 159.6 L 264.7 159.6 L 264.7 157.4 L 265.4 157.4 L 265.4 162.6 L 264.7 162.6 L 264.7 160.2 L 262.0 160.2 L 262.0 162.6 L 261.3 162.6 L 261.3 157.4 " fill="#000000"/>
<path class="atom-25" d="M 237.4 194.4 L 238.1 194.4 L 238.1 196.5 L 240.8 196.5 L 240.8 194.4 L 241.5 194.4 L 241.5 199.5 L 240.8 199.5 L 240.8 197.1 L 238.1 197.1 L 238.1 199.5 L 237.4 199.5 L 237.4 194.4 " fill="#000000"/>
<path class="atom-26" d="M 214.0 193.2 L 214.7 193.2 L 214.7 195.4 L 217.4 195.4 L 217.4 193.2 L 218.1 193.2 L 218.1 198.3 L 217.4 198.3 L 217.4 195.9 L 214.7 195.9 L 214.7 198.3 L 214.0 198.3 L 214.0 193.2 " fill="#000000"/>
<path class="atom-27" d="M 204.1 186.7 L 204.8 186.7 L 204.8 188.9 L 207.4 188.9 L 207.4 186.7 L 208.1 186.7 L 208.1 191.9 L 207.4 191.9 L 207.4 189.5 L 204.8 189.5 L 204.8 191.9 L 204.1 191.9 L 204.1 186.7 " fill="#000000"/>
<path class="atom-28" d="M 193.4 165.9 L 194.1 165.9 L 194.1 168.0 L 196.7 168.0 L 196.7 165.9 L 197.4 165.9 L 197.4 171.0 L 196.7 171.0 L 196.7 168.6 L 194.1 168.6 L 194.1 171.0 L 193.4 171.0 L 193.4 165.9 " fill="#000000"/>
<path class="atom-29" d="M 183.3 95.5 L 184.0 95.5 L 184.0 97.7 L 186.7 97.7 L 186.7 95.5 L 187.4 95.5 L 187.4 100.7 L 186.7 100.7 L 186.7 98.3 L 184.0 98.3 L 184.0 100.7 L 183.3 100.7 L 183.3 95.5 " fill="#000000"/>
<path class="atom-30" d="M 150.9 112.1 L 151.6 112.1 L 151.6 114.3 L 154.2 114.3 L 154.2 112.1 L 154.9 112.1 L 154.9 117.3 L 154.2 117.3 L 154.2 114.9 L 151.6 114.9 L 151.6 117.3 L 150.9 117.3 L 150.9 112.1 " fill="#000000"/>
<path class="atom-31" d="M 120.3 176.7 L 121.0 176.7 L 121.0 178.9 L 123.7 178.9 L 123.7 176.7 L 124.4 176.7 L 124.4 181.9 L 123.7 181.9 L 123.7 179.5 L 121.0 179.5 L 121.0 181.9 L 120.3 181.9 L 120.3 176.7 " fill="#000000"/>
<path class="atom-32" d="M 136.8 114.7 L 137.5 114.7 L 137.5 116.9 L 140.2 116.9 L 140.2 114.7 L 140.9 114.7 L 140.9 119.9 L 140.2 119.9 L 140.2 117.5 L 137.5 117.5 L 137.5 119.9 L 136.8 119.9 L 136.8 114.7 " fill="#000000"/>
<path class="atom-33" d="M 83.1 139.3 L 83.8 139.3 L 83.8 141.5 L 86.4 141.5 L 86.4 139.3 L 87.1 139.3 L 87.1 144.4 L 86.4 144.4 L 86.4 142.0 L 83.8 142.0 L 83.8 144.4 L 83.1 144.4 L 83.1 139.3 " fill="#000000"/>
<path class="atom-34" d="M 93.6 172.2 L 94.3 172.2 L 94.3 174.4 L 97.0 174.4 L 97.0 172.2 L 97.7 172.2 L 97.7 177.3 L 97.0 177.3 L 97.0 174.9 L 94.3 174.9 L 94.3 177.3 L 93.6 177.3 L 93.6 172.2 " fill="#000000"/>
<path class="atom-35" d="M 73.6 179.6 L 74.3 179.6 L 74.3 181.8 L 76.9 181.8 L 76.9 179.6 L 77.6 179.6 L 77.6 184.8 L 76.9 184.8 L 76.9 182.4 L 74.3 182.4 L 74.3 184.8 L 73.6 184.8 L 73.6 179.6 " fill="#000000"/>
<path class="atom-37" d="M 132.5 174.1 L 133.2 174.1 L 133.2 176.3 L 135.8 176.3 L 135.8 174.1 L 136.5 174.1 L 136.5 179.3 L 135.8 179.3 L 135.8 176.9 L 133.2 176.9 L 133.2 179.3 L 132.5 179.3 L 132.5 174.1 " fill="#000000"/>
<path class="atom-38" d="M 163.1 193.9 L 163.8 193.9 L 163.8 196.1 L 166.4 196.1 L 166.4 193.9 L 167.1 193.9 L 167.1 199.1 L 166.4 199.1 L 166.4 196.7 L 163.8 196.7 L 163.8 199.1 L 163.1 199.1 L 163.1 193.9 " fill="#000000"/>
<path class="atom-39" d="M 137.9 199.3 L 138.6 199.3 L 138.6 201.5 L 141.2 201.5 L 141.2 199.3 L 141.9 199.3 L 141.9 204.5 L 141.2 204.5 L 141.2 202.1 L 138.6 202.1 L 138.6 204.5 L 137.9 204.5 L 137.9 199.3 " fill="#000000"/>
<path class="atom-43" d="M 49.0 180.1 L 49.7 180.1 L 49.7 182.3 L 52.4 182.3 L 52.4 180.1 L 53.1 180.1 L 53.1 185.2 L 52.4 185.2 L 52.4 182.9 L 49.7 182.9 L 49.7 185.2 L 49.0 185.2 L 49.0 180.1 " fill="#000000"/>
<path class="atom-44" d="M 34.6 156.2 L 35.3 156.2 L 35.3 158.4 L 38.0 158.4 L 38.0 156.2 L 38.7 156.2 L 38.7 161.3 L 38.0 161.3 L 38.0 158.9 L 35.3 158.9 L 35.3 161.3 L 34.6 161.3 L 34.6 156.2 " fill="#000000"/>
<path class="atom-45" d="M 47.0 134.7 L 50.0 134.7 L 50.0 135.3 L 47.7 135.3 L 47.7 136.8 L 49.8 136.8 L 49.8 137.4 L 47.7 137.4 L 47.7 139.8 L 47.0 139.8 L 47.0 134.7 " fill="#33CCCC"/>
<path class="atom-46" d="M 72.1 133.9 L 75.2 133.9 L 75.2 134.5 L 72.8 134.5 L 72.8 136.1 L 74.9 136.1 L 74.9 136.7 L 72.8 136.7 L 72.8 139.1 L 72.1 139.1 L 72.1 133.9 " fill="#33CCCC"/>
<path class="bond-0 atom-0 atom-1" d="M 512.2,144.3 L 527.7,153.9" style="fill:none;fill-rule:evenodd;stroke:#000000;stroke-width:2.0px;stroke-linecap:butt;stroke-linejoin:miter;stroke-opacity:1"/>
<path class="bond-1 atom-0 atom-5" d="M 512.2,144.3 L 505.4,148.0" style="fill:none;fill-rule:evenodd;stroke:#000000;stroke-width:2.0px;stroke-linecap:butt;stroke-linejoin:miter;stroke-opacity:1"/>
<path class="bond-1 atom-0 atom-5" d="M 505.4,148.0 L 498.7,151.6" style="fill:none;fill-rule:evenodd;stroke:#0000FF;stroke-width:2.0px;stroke-linecap:butt;stroke-linejoin:miter;stroke-opacity:1"/>
<path class="bond-2 atom-0 atom-22" d="M 512.2,144.3 L 503.4,133.3" style="fill:none;fill-rule:evenodd;stroke:#000000;stroke-width:2.0px;stroke-linecap:butt;stroke-linejoin:miter;stroke-opacity:1"/>
<path class="bond-3 atom-0 atom-23" d="M 512.2,144.3 L 521.6,133.7" style="fill:none;fill-rule:evenodd;stroke:#000000;stroke-width:2.0px;stroke-linecap:butt;stroke-linejoin:miter;stroke-opacity:1"/>
<path class="bond-4 atom-1 atom-2" d="M 527.7,153.9 L 527.5,161.4" style="fill:none;fill-rule:evenodd;stroke:#000000;stroke-width:2.0px;stroke-linecap:butt;stroke-linejoin:miter;stroke-opacity:1"/>
<path class="bond-4 atom-1 atom-2" d="M 527.5,161.4 L 527.3,168.9" style="fill:none;fill-rule:evenodd;stroke:#FF0000;stroke-width:2.0px;stroke-linecap:butt;stroke-linejoin:miter;stroke-opacity:1"/>
<path class="bond-5 atom-1 atom-24" d="M 527.7,153.9 L 533.1,140.1" style="fill:none;fill-rule:evenodd;stroke:#000000;stroke-width:2.0px;stroke-linecap:butt;stroke-linejoin:miter;stroke-opacity:1"/>
<path class="bond-6 atom-1 atom-25" d="M 527.7,153.9 L 542.9,157.0" style="fill:none;fill-rule:evenodd;stroke:#000000;stroke-width:2.0px;stroke-linecap:butt;stroke-linejoin:miter;stroke-opacity:1"/>
<path class="bond-7 atom-2 atom-3" d="M 524.3,173.7 L 517.7,177.2" style="fill:none;fill-rule:evenodd;stroke:#FF0000;stroke-width:2.0px;stroke-linecap:butt;stroke-linejoin:miter;stroke-opacity:1"/>
<path class="bond-7 atom-2 atom-3" d="M 517.7,177.2 L 511.2,180.8" style="fill:none;fill-rule:evenodd;stroke:#000000;stroke-width:2.0px;stroke-linecap:butt;stroke-linejoin:miter;stroke-opacity:1"/>
<path class="bond-8 atom-3 atom-4" d="M 511.2,180.8 L 495.7,171.2" style="fill:none;fill-rule:evenodd;stroke:#000000;stroke-width:2.0px;stroke-linecap:butt;stroke-linejoin:miter;stroke-opacity:1"/>
<path class="bond-9 atom-3 atom-26" d="M 511.2,180.8 L 520.0,191.8" style="fill:none;fill-rule:evenodd;stroke:#000000;stroke-width:2.0px;stroke-linecap:butt;stroke-linejoin:miter;stroke-opacity:1"/>
<path class="bond-10 atom-3 atom-27" d="M 511.2,180.8 L 501.8,191.5" style="fill:none;fill-rule:evenodd;stroke:#000000;stroke-width:2.0px;stroke-linecap:butt;stroke-linejoin:miter;stroke-opacity:1"/>
<path class="bond-11 atom-4 atom-5" d="M 495.7,171.2 L 495.9,163.7" style="fill:none;fill-rule:evenodd;stroke:#000000;stroke-width:2.0px;stroke-linecap:butt;stroke-linejoin:miter;stroke-opacity:1"/>
<path class="bond-11 atom-4 atom-5" d="M 495.9,163.7 L 496.1,156.2" style="fill:none;fill-rule:evenodd;stroke:#0000FF;stroke-width:2.0px;stroke-linecap:butt;stroke-linejoin:miter;stroke-opacity:1"/>
<path class="bond-12 atom-4 atom-28" d="M 495.7,171.2 L 490.3,185.0" style="fill:none;fill-rule:evenodd;stroke:#000000;stroke-width:2.0px;stroke-linecap:butt;stroke-linejoin:miter;stroke-opacity:1"/>
<path class="bond-13 atom-4 atom-29" d="M 495.7,171.2 L 480.4,168.1" style="fill:none;fill-rule:evenodd;stroke:#000000;stroke-width:2.0px;stroke-linecap:butt;stroke-linejoin:miter;stroke-opacity:1"/>
<path class="bond-14 atom-5 atom-6" d="M 493.6,151.5 L 487.1,147.5" style="fill:none;fill-rule:evenodd;stroke:#0000FF;stroke-width:2.0px;stroke-linecap:butt;stroke-linejoin:miter;stroke-opacity:1"/>
<path class="bond-14 atom-5 atom-6" d="M 487.1,147.5 L 480.6,143.5" style="fill:none;fill-rule:evenodd;stroke:#000000;stroke-width:2.0px;stroke-linecap:butt;stroke-linejoin:miter;stroke-opacity:1"/>
<path class="bond-15 atom-6 atom-7" d="M 480.6,143.5 L 480.8,136.0" style="fill:none;fill-rule:evenodd;stroke:#000000;stroke-width:2.0px;stroke-linecap:butt;stroke-linejoin:miter;stroke-opacity:1"/>
<path class="bond-15 atom-6 atom-7" d="M 480.8,136.0 L 481.0,128.5" style="fill:none;fill-rule:evenodd;stroke:#0000FF;stroke-width:2.0px;stroke-linecap:butt;stroke-linejoin:miter;stroke-opacity:1"/>
<path class="bond-15 atom-6 atom-7" d="M 477.0,141.2 L 477.2,135.9" style="fill:none;fill-rule:evenodd;stroke:#000000;stroke-width:2.0px;stroke-linecap:butt;stroke-linejoin:miter;stroke-opacity:1"/>
<path class="bond-15 atom-6 atom-7" d="M 477.2,135.9 L 477.3,130.6" style="fill:none;fill-rule:evenodd;stroke:#0000FF;stroke-width:2.0px;stroke-linecap:butt;stroke-linejoin:miter;stroke-opacity:1"/>
<path class="bond-16 atom-6 atom-11" d="M 480.6,143.5 L 464.6,152.2" style="fill:none;fill-rule:evenodd;stroke:#000000;stroke-width:2.0px;stroke-linecap:butt;stroke-linejoin:miter;stroke-opacity:1"/>
<path class="bond-17 atom-7 atom-8" d="M 478.5,123.7 L 472.0,119.8" style="fill:none;fill-rule:evenodd;stroke:#0000FF;stroke-width:2.0px;stroke-linecap:butt;stroke-linejoin:miter;stroke-opacity:1"/>
<path class="bond-17 atom-7 atom-8" d="M 472.0,119.8 L 465.6,115.8" style="fill:none;fill-rule:evenodd;stroke:#000000;stroke-width:2.0px;stroke-linecap:butt;stroke-linejoin:miter;stroke-opacity:1"/>
<path class="bond-18 atom-8 atom-9" d="M 465.6,115.8 L 449.5,124.5" style="fill:none;fill-rule:evenodd;stroke:#000000;stroke-width:2.0px;stroke-linecap:butt;stroke-linejoin:miter;stroke-opacity:1"/>
<path class="bond-18 atom-8 atom-9" d="M 464.9,120.3 L 453.7,126.4" style="fill:none;fill-rule:evenodd;stroke:#000000;stroke-width:2.0px;stroke-linecap:butt;stroke-linejoin:miter;stroke-opacity:1"/>
<path class="bond-19 atom-8 atom-30" d="M 465.6,115.8 L 465.9,100.7" style="fill:none;fill-rule:evenodd;stroke:#000000;stroke-width:2.0px;stroke-linecap:butt;stroke-linejoin:miter;stroke-opacity:1"/>
<path class="bond-20 atom-9 atom-10" d="M 449.5,124.5 L 449.3,132.0" style="fill:none;fill-rule:evenodd;stroke:#000000;stroke-width:2.0px;stroke-linecap:butt;stroke-linejoin:miter;stroke-opacity:1"/>
<path class="bond-20 atom-9 atom-10" d="M 449.3,132.0 L 449.2,139.5" style="fill:none;fill-rule:evenodd;stroke:#0000FF;stroke-width:2.0px;stroke-linecap:butt;stroke-linejoin:miter;stroke-opacity:1"/>
<path class="bond-21 atom-9 atom-31" d="M 449.5,124.5 L 436.6,116.6" style="fill:none;fill-rule:evenodd;stroke:#000000;stroke-width:2.0px;stroke-linecap:butt;stroke-linejoin:miter;stroke-opacity:1"/>
<path class="bond-22 atom-10 atom-11" d="M 451.6,144.3 L 458.1,148.2" style="fill:none;fill-rule:evenodd;stroke:#0000FF;stroke-width:2.0px;stroke-linecap:butt;stroke-linejoin:miter;stroke-opacity:1"/>
<path class="bond-22 atom-10 atom-11" d="M 458.1,148.2 L 464.6,152.2" style="fill:none;fill-rule:evenodd;stroke:#000000;stroke-width:2.0px;stroke-linecap:butt;stroke-linejoin:miter;stroke-opacity:1"/>
<path class="bond-23 atom-10 atom-15" d="M 446.5,144.9 L 440.9,149.7" style="fill:none;fill-rule:evenodd;stroke:#0000FF;stroke-width:2.0px;stroke-linecap:butt;stroke-linejoin:miter;stroke-opacity:1"/>
<path class="bond-23 atom-10 atom-15" d="M 440.9,149.7 L 435.2,154.5" style="fill:none;fill-rule:evenodd;stroke:#000000;stroke-width:2.0px;stroke-linecap:butt;stroke-linejoin:miter;stroke-opacity:1"/>
<path class="bond-24 atom-11 atom-12" d="M 464.6,152.2 L 462.9,159.5" style="fill:none;fill-rule:evenodd;stroke:#000000;stroke-width:2.0px;stroke-linecap:butt;stroke-linejoin:miter;stroke-opacity:1"/>
<path class="bond-24 atom-11 atom-12" d="M 462.9,159.5 L 461.1,166.7" style="fill:none;fill-rule:evenodd;stroke:#0000FF;stroke-width:2.0px;stroke-linecap:butt;stroke-linejoin:miter;stroke-opacity:1"/>
<path class="bond-24 atom-11 atom-12" d="M 460.5,153.5 L 459.3,158.6" style="fill:none;fill-rule:evenodd;stroke:#000000;stroke-width:2.0px;stroke-linecap:butt;stroke-linejoin:miter;stroke-opacity:1"/>
<path class="bond-24 atom-11 atom-12" d="M 459.3,158.6 L 458.1,163.7" style="fill:none;fill-rule:evenodd;stroke:#0000FF;stroke-width:2.0px;stroke-linecap:butt;stroke-linejoin:miter;stroke-opacity:1"/>
<path class="bond-25 atom-12 atom-13" d="M 457.8,170.1 L 450.0,170.7" style="fill:none;fill-rule:evenodd;stroke:#0000FF;stroke-width:2.0px;stroke-linecap:butt;stroke-linejoin:miter;stroke-opacity:1"/>
<path class="bond-25 atom-12 atom-13" d="M 450.0,170.7 L 442.2,171.4" style="fill:none;fill-rule:evenodd;stroke:#000000;stroke-width:2.0px;stroke-linecap:butt;stroke-linejoin:miter;stroke-opacity:1"/>
<path class="bond-26 atom-13 atom-14" d="M 442.2,171.4 L 432.7,186.9" style="fill:none;fill-rule:evenodd;stroke:#000000;stroke-width:2.0px;stroke-linecap:butt;stroke-linejoin:miter;stroke-opacity:1"/>
<path class="bond-27 atom-13 atom-15" d="M 442.2,171.4 L 435.2,154.5" style="fill:none;fill-rule:evenodd;stroke:#000000;stroke-width:2.0px;stroke-linecap:butt;stroke-linejoin:miter;stroke-opacity:1"/>
<path class="bond-27 atom-13 atom-15" d="M 444.5,167.4 L 439.6,155.7" style="fill:none;fill-rule:evenodd;stroke:#000000;stroke-width:2.0px;stroke-linecap:butt;stroke-linejoin:miter;stroke-opacity:1"/>
<path class="bond-28 atom-14 atom-32" d="M 432.7,186.9 L 419.8,179.0" style="fill:none;fill-rule:evenodd;stroke:#000000;stroke-width:2.0px;stroke-linecap:butt;stroke-linejoin:miter;stroke-opacity:1"/>
<path class="bond-29 atom-14 atom-33" d="M 432.7,186.9 L 445.6,194.8" style="fill:none;fill-rule:evenodd;stroke:#000000;stroke-width:2.0px;stroke-linecap:butt;stroke-linejoin:miter;stroke-opacity:1"/>
<path class="bond-30 atom-14 atom-34" d="M 432.7,186.9 L 425.1,199.3" style="fill:none;fill-rule:evenodd;stroke:#000000;stroke-width:2.0px;stroke-linecap:butt;stroke-linejoin:miter;stroke-opacity:1"/>
<path class="bond-31 atom-15 atom-16" d="M 435.2,154.5 L 417.5,150.3" style="fill:none;fill-rule:evenodd;stroke:#000000;stroke-width:2.0px;stroke-linecap:butt;stroke-linejoin:miter;stroke-opacity:1"/>
<path class="bond-32 atom-16 atom-17" d="M 417.5,150.3 L 403.6,162.1" style="fill:none;fill-rule:evenodd;stroke:#000000;stroke-width:2.0px;stroke-linecap:butt;stroke-linejoin:miter;stroke-opacity:1"/>
<path class="bond-32 atom-16 atom-17" d="M 413.1,149.3 L 403.4,157.6" style="fill:none;fill-rule:evenodd;stroke:#000000;stroke-width:2.0px;stroke-linecap:butt;stroke-linejoin:miter;stroke-opacity:1"/>
<path class="bond-33 atom-16 atom-18" d="M 417.5,150.3 L 410.5,133.4" style="fill:none;fill-rule:evenodd;stroke:#000000;stroke-width:2.0px;stroke-linecap:butt;stroke-linejoin:miter;stroke-opacity:1"/>
<path class="bond-34 atom-17 atom-20" d="M 403.6,162.1 L 397.2,158.1" style="fill:none;fill-rule:evenodd;stroke:#000000;stroke-width:2.0px;stroke-linecap:butt;stroke-linejoin:miter;stroke-opacity:1"/>
<path class="bond-34 atom-17 atom-20" d="M 397.2,158.1 L 390.7,154.2" style="fill:none;fill-rule:evenodd;stroke:#0000FF;stroke-width:2.0px;stroke-linecap:butt;stroke-linejoin:miter;stroke-opacity:1"/>
<path class="bond-35 atom-17 atom-35" d="M 403.6,162.1 L 404.8,177.1" style="fill:none;fill-rule:evenodd;stroke:#000000;stroke-width:2.0px;stroke-linecap:butt;stroke-linejoin:miter;stroke-opacity:1"/>
<path class="bond-36 atom-18 atom-19" d="M 410.5,133.4 L 402.7,134.1" style="fill:none;fill-rule:evenodd;stroke:#000000;stroke-width:2.0px;stroke-linecap:butt;stroke-linejoin:miter;stroke-opacity:1"/>
<path class="bond-36 atom-18 atom-19" d="M 402.7,134.1 L 394.9,134.7" style="fill:none;fill-rule:evenodd;stroke:#0000FF;stroke-width:2.0px;stroke-linecap:butt;stroke-linejoin:miter;stroke-opacity:1"/>
<path class="bond-36 atom-18 atom-19" d="M 408.5,137.3 L 403.0,137.7" style="fill:none;fill-rule:evenodd;stroke:#000000;stroke-width:2.0px;stroke-linecap:butt;stroke-linejoin:miter;stroke-opacity:1"/>
<path class="bond-36 atom-18 atom-19" d="M 403.0,137.7 L 397.5,138.1" style="fill:none;fill-rule:evenodd;stroke:#0000FF;stroke-width:2.0px;stroke-linecap:butt;stroke-linejoin:miter;stroke-opacity:1"/>
<path class="bond-37 atom-18 atom-36" d="M 410.5,133.4 L 418.1,121.1" style="fill:none;fill-rule:evenodd;stroke:#000000;stroke-width:2.0px;stroke-linecap:butt;stroke-linejoin:miter;stroke-opacity:1"/>
<path class="bond-38 atom-19 atom-20" d="M 391.6,138.1 L 388.9,149.4" style="fill:none;fill-rule:evenodd;stroke:#0000FF;stroke-width:2.0px;stroke-linecap:butt;stroke-linejoin:miter;stroke-opacity:1"/>
<path class="bond-39 atom-20 atom-21" d="M 385.6,153.7 L 378.4,156.6" style="fill:none;fill-rule:evenodd;stroke:#0000FF;stroke-width:2.0px;stroke-linecap:butt;stroke-linejoin:miter;stroke-opacity:1"/>
<path class="bond-39 atom-20 atom-21" d="M 378.4,156.6 L 371.3,159.6" style="fill:none;fill-rule:evenodd;stroke:#000000;stroke-width:2.0px;stroke-linecap:butt;stroke-linejoin:miter;stroke-opacity:1"/>
<path class="bond-40 atom-21 atom-37" d="M 371.3,159.6 L 365.6,145.9" style="fill:none;fill-rule:evenodd;stroke:#000000;stroke-width:2.0px;stroke-linecap:butt;stroke-linejoin:miter;stroke-opacity:1"/>
<path class="bond-41 atom-21 atom-38" d="M 371.3,159.6 L 376.9,173.2" style="fill:none;fill-rule:evenodd;stroke:#000000;stroke-width:2.0px;stroke-linecap:butt;stroke-linejoin:miter;stroke-opacity:1"/>
<path class="bond-42 atom-21 atom-39" d="M 371.3,159.6 L 357.1,165.5" style="fill:none;fill-rule:evenodd;stroke:#000000;stroke-width:2.0px;stroke-linecap:butt;stroke-linejoin:miter;stroke-opacity:1"/>
<path class="atom-2" d="M 524.9 172.1 Q 524.9 170.8, 525.5 170.2 Q 526.1 169.5, 527.2 169.5 Q 528.4 169.5, 529.0 170.2 Q 529.6 170.8, 529.6 172.1 Q 529.6 173.3, 529.0 174.1 Q 528.4 174.8, 527.2 174.8 Q 526.1 174.8, 525.5 174.1 Q 524.9 173.3, 524.9 172.1 M 527.2 174.2 Q 528.0 174.2, 528.4 173.7 Q 528.9 173.1, 528.9 172.1 Q 528.9 171.1, 528.4 170.6 Q 528.0 170.0, 527.2 170.0 Q 526.4 170.0, 526.0 170.6 Q 525.6 171.1, 525.6 172.1 Q 525.6 173.1, 526.0 173.7 Q 526.4 174.2, 527.2 174.2 " fill="#FF0000"/>
<path class="atom-5" d="M 495.0 150.5 L 496.7 153.2 Q 496.9 153.5, 497.1 153.9 Q 497.4 154.4, 497.4 154.5 L 497.4 150.5 L 498.1 150.5 L 498.1 155.6 L 497.4 155.6 L 495.6 152.6 Q 495.4 152.3, 495.2 151.9 Q 494.9 151.5, 494.9 151.3 L 494.9 155.6 L 494.2 155.6 L 494.2 150.5 L 495.0 150.5 " fill="#0000FF"/>
<path class="atom-7" d="M 480.0 122.7 L 481.6 125.5 Q 481.8 125.7, 482.1 126.2 Q 482.3 126.7, 482.4 126.7 L 482.4 122.7 L 483.0 122.7 L 483.0 127.9 L 482.3 127.9 L 480.5 124.9 Q 480.3 124.5, 480.1 124.1 Q 479.9 123.7, 479.8 123.6 L 479.8 127.9 L 479.1 127.9 L 479.1 122.7 L 480.0 122.7 " fill="#0000FF"/>
<path class="atom-10" d="M 447.9 140.1 L 449.6 142.8 Q 449.8 143.1, 450.1 143.6 Q 450.3 144.1, 450.3 144.1 L 450.3 140.1 L 451.0 140.1 L 451.0 145.3 L 450.3 145.3 L 448.5 142.3 Q 448.3 141.9, 448.1 141.5 Q 447.8 141.1, 447.8 141.0 L 447.8 145.3 L 447.1 145.3 L 447.1 140.1 L 447.9 140.1 " fill="#0000FF"/>
<path class="atom-12" d="M 459.2 167.3 L 460.9 170.1 Q 461.1 170.4, 461.3 170.8 Q 461.6 171.3, 461.6 171.4 L 461.6 167.3 L 462.3 167.3 L 462.3 172.5 L 461.6 172.5 L 459.8 169.5 Q 459.6 169.2, 459.4 168.8 Q 459.1 168.4, 459.1 168.2 L 459.1 172.5 L 458.4 172.5 L 458.4 167.3 L 459.2 167.3 " fill="#0000FF"/>
<path class="atom-19" d="M 391.2 132.3 L 392.9 135.0 Q 393.1 135.3, 393.3 135.8 Q 393.6 136.3, 393.6 136.3 L 393.6 132.3 L 394.3 132.3 L 394.3 137.5 L 393.6 137.5 L 391.8 134.5 Q 391.6 134.1, 391.4 133.7 Q 391.1 133.3, 391.1 133.2 L 391.1 137.5 L 390.4 137.5 L 390.4 132.3 L 391.2 132.3 " fill="#0000FF"/>
<path class="atom-20" d="M 387.0 150.0 L 388.7 152.7 Q 388.8 153.0, 389.1 153.5 Q 389.4 154.0, 389.4 154.0 L 389.4 150.0 L 390.1 150.0 L 390.1 155.2 L 389.4 155.2 L 387.5 152.2 Q 387.3 151.8, 387.1 151.4 Q 386.9 151.0, 386.8 150.9 L 386.8 155.2 L 386.2 155.2 L 386.2 150.0 L 387.0 150.0 " fill="#0000FF"/>
<path class="atom-22" d="M 498.8 127.5 L 499.5 127.5 L 499.5 129.7 L 502.1 129.7 L 502.1 127.5 L 502.8 127.5 L 502.8 132.7 L 502.1 132.7 L 502.1 130.3 L 499.5 130.3 L 499.5 132.7 L 498.8 132.7 L 498.8 127.5 " fill="#000000"/>
<path class="atom-23" d="M 522.2 128.1 L 522.9 128.1 L 522.9 130.3 L 525.6 130.3 L 525.6 128.1 L 526.3 128.1 L 526.3 133.3 L 525.6 133.3 L 525.6 130.9 L 522.9 130.9 L 522.9 133.3 L 522.2 133.3 L 522.2 128.1 " fill="#000000"/>
<path class="atom-24" d="M 532.4 134.3 L 533.1 134.3 L 533.1 136.5 L 535.7 136.5 L 535.7 134.3 L 536.4 134.3 L 536.4 139.5 L 535.7 139.5 L 535.7 137.1 L 533.1 137.1 L 533.1 139.5 L 532.4 139.5 L 532.4 134.3 " fill="#000000"/>
<path class="atom-25" d="M 543.5 154.9 L 544.2 154.9 L 544.2 157.1 L 546.9 157.1 L 546.9 154.9 L 547.6 154.9 L 547.6 160.1 L 546.9 160.1 L 546.9 157.7 L 544.2 157.7 L 544.2 160.1 L 543.5 160.1 L 543.5 154.9 " fill="#000000"/>
<path class="atom-26" d="M 520.5 192.4 L 521.2 192.4 L 521.2 194.6 L 523.9 194.6 L 523.9 192.4 L 524.6 192.4 L 524.6 197.6 L 523.9 197.6 L 523.9 195.2 L 521.2 195.2 L 521.2 197.6 L 520.5 197.6 L 520.5 192.4 " fill="#000000"/>
<path class="atom-27" d="M 497.1 191.8 L 497.8 191.8 L 497.8 194.0 L 500.5 194.0 L 500.5 191.8 L 501.2 191.8 L 501.2 197.0 L 500.5 197.0 L 500.5 194.6 L 497.8 194.6 L 497.8 197.0 L 497.1 197.0 L 497.1 191.8 " fill="#000000"/>
<path class="atom-28" d="M 487.0 185.6 L 487.7 185.6 L 487.7 187.8 L 490.3 187.8 L 490.3 185.6 L 491.0 185.6 L 491.0 190.8 L 490.3 190.8 L 490.3 188.4 L 487.7 188.4 L 487.7 190.8 L 487.0 190.8 L 487.0 185.6 " fill="#000000"/>
<path class="atom-29" d="M 475.8 165.0 L 476.5 165.0 L 476.5 167.2 L 479.1 167.2 L 479.1 165.0 L 479.8 165.0 L 479.8 170.2 L 479.1 170.2 L 479.1 167.8 L 476.5 167.8 L 476.5 170.2 L 475.8 170.2 L 475.8 165.0 " fill="#000000"/>
<path class="atom-30" d="M 464.0 95.0 L 464.7 95.0 L 464.7 97.2 L 467.4 97.2 L 467.4 95.0 L 468.0 95.0 L 468.0 100.1 L 467.4 100.1 L 467.4 97.8 L 464.7 97.8 L 464.7 100.1 L 464.0 100.1 L 464.0 95.0 " fill="#000000"/>
<path class="atom-31" d="M 432.0 112.4 L 432.7 112.4 L 432.7 114.6 L 435.3 114.6 L 435.3 112.4 L 436.0 112.4 L 436.0 117.5 L 435.3 117.5 L 435.3 115.2 L 432.7 115.2 L 432.7 117.5 L 432.0 117.5 L 432.0 112.4 " fill="#000000"/>
<path class="atom-32" d="M 415.1 174.8 L 415.8 174.8 L 415.8 177.0 L 418.5 177.0 L 418.5 174.8 L 419.2 174.8 L 419.2 180.0 L 418.5 180.0 L 418.5 177.6 L 415.8 177.6 L 415.8 180.0 L 415.1 180.0 L 415.1 174.8 " fill="#000000"/>
<path class="atom-33" d="M 446.2 193.8 L 446.9 193.8 L 446.9 196.0 L 449.5 196.0 L 449.5 193.8 L 450.2 193.8 L 450.2 199.0 L 449.5 199.0 L 449.5 196.6 L 446.9 196.6 L 446.9 199.0 L 446.2 199.0 L 446.2 193.8 " fill="#000000"/>
<path class="atom-34" d="M 421.1 199.9 L 421.8 199.9 L 421.8 202.0 L 424.5 202.0 L 424.5 199.9 L 425.2 199.9 L 425.2 205.0 L 424.5 205.0 L 424.5 202.6 L 421.8 202.6 L 421.8 205.0 L 421.1 205.0 L 421.1 199.9 " fill="#000000"/>
<path class="atom-35" d="M 403.1 177.7 L 403.8 177.7 L 403.8 179.9 L 406.4 179.9 L 406.4 177.7 L 407.1 177.7 L 407.1 182.9 L 406.4 182.9 L 406.4 180.5 L 403.8 180.5 L 403.8 182.9 L 403.1 182.9 L 403.1 177.7 " fill="#000000"/>
<path class="atom-36" d="M 418.0 115.3 L 418.7 115.3 L 418.7 117.5 L 421.4 117.5 L 421.4 115.3 L 422.1 115.3 L 422.1 120.5 L 421.4 120.5 L 421.4 118.1 L 418.7 118.1 L 418.7 120.5 L 418.0 120.5 L 418.0 115.3 " fill="#000000"/>
<path class="atom-37" d="M 362.3 140.2 L 363.0 140.2 L 363.0 142.3 L 365.6 142.3 L 365.6 140.2 L 366.3 140.2 L 366.3 145.3 L 365.6 145.3 L 365.6 142.9 L 363.0 142.9 L 363.0 145.3 L 362.3 145.3 L 362.3 140.2 " fill="#000000"/>
<path class="atom-38" d="M 376.2 173.8 L 376.9 173.8 L 376.9 176.0 L 379.6 176.0 L 379.6 173.8 L 380.3 173.8 L 380.3 179.0 L 379.6 179.0 L 379.6 176.6 L 376.9 176.6 L 376.9 179.0 L 376.2 179.0 L 376.2 173.8 " fill="#000000"/>
<path class="atom-39" d="M 352.4 164.0 L 353.1 164.0 L 353.1 166.2 L 355.8 166.2 L 355.8 164.0 L 356.5 164.0 L 356.5 169.1 L 355.8 169.1 L 355.8 166.7 L 353.1 166.7 L 353.1 169.1 L 352.4 169.1 L 352.4 164.0 " fill="#000000"/>
<text x="300" y="20" font-size="20" font-family="sans-serif" font-weight="normal" letter-spacing="0" text-anchor="middle" fill="black">pde10: 6694 -&gt; 4147</text><text x="300" y="35" font-size="15" font-family="sans-serif" font-weight="normal" letter-spacing="0" text-anchor="middle" fill="black"></text><text x="150" y="285" font-size="15" font-family="sans-serif" font-weight="normal" letter-spacing="0" text-anchor="middle" fill="black">6694</text><text x="450" y="285" font-size="15" font-family="sans-serif" font-weight="normal" letter-spacing="0" text-anchor="middle" fill="black">4147</text></svg>
