<?xml version='1.0' encoding='ASCII' standalone='yes'?>
<svg xmlns="http://www.w3.org/2000/svg" xmlns:rdkit="http://www.rdkit.org/xml" xmlns:xlink="http://www.w3.org/1999/xlink" version="1.1" baseProfile="full" xml:space="preserve" width="600px" height="300px" viewBox="0 0 600 300">
<!-- END OF HEADER -->
<rect style="opacity:1.0;fill:#FFFFFF;stroke:none" width="600.0" height="300.0" x="0.0" y="0.0"> </rect>
<ellipse cx="119.3" cy="233.8" rx="7.1" ry="7.1" class="atom-0" style="fill:#DC3369;fill-rule:evenodd;stroke:#DC3369;stroke-width:1.0px;stroke-linecap:butt;stroke-linejoin:miter;stroke-opacity:1"/>
<ellipse cx="123.7" cy="212.9" rx="8.5" ry="7.1" class="atom-1" style="fill:#DC3369;fill-rule:evenodd;stroke:#DC3369;stroke-width:1.0px;stroke-linecap:butt;stroke-linejoin:miter;stroke-opacity:1"/>
<ellipse cx="141.9" cy="200.0" rx="7.1" ry="7.1" class="atom-2" style="fill:#DC3369;fill-rule:evenodd;stroke:#DC3369;stroke-width:1.0px;stroke-linecap:butt;stroke-linejoin:miter;stroke-opacity:1"/>
<ellipse cx="97.7" cy="231.0" rx="7.1" ry="7.1" class="atom-27" style="fill:#DC3369;fill-rule:evenodd;stroke:#DC3369;stroke-width:1.0px;stroke-linecap:butt;stroke-linejoin:miter;stroke-opacity:1"/>
<ellipse cx="105.9" cy="250.8" rx="7.1" ry="7.1" class="atom-28" style="fill:#DC3369;fill-rule:evenodd;stroke:#DC3369;stroke-width:1.0px;stroke-linecap:butt;stroke-linejoin:miter;stroke-opacity:1"/>
<ellipse cx="136.3" cy="246.7" rx="7.1" ry="7.1" class="atom-29" style="fill:#DC3369;fill-rule:evenodd;stroke:#DC3369;stroke-width:1.0px;stroke-linecap:butt;stroke-linejoin:miter;stroke-opacity:1"/>
<ellipse cx="110.7" cy="196.2" rx="7.1" ry="7.1" class="atom-30" style="fill:#DC3369;fill-rule:evenodd;stroke:#DC3369;stroke-width:1.0px;stroke-linecap:butt;stroke-linejoin:miter;stroke-opacity:1"/>
<ellipse cx="163.5" cy="201.1" rx="7.1" ry="7.1" class="atom-31" style="fill:#DC3369;fill-rule:evenodd;stroke:#DC3369;stroke-width:1.0px;stroke-linecap:butt;stroke-linejoin:miter;stroke-opacity:1"/>
<ellipse cx="152.5" cy="219.0" rx="7.1" ry="7.1" class="atom-32" style="fill:#DC3369;fill-rule:evenodd;stroke:#DC3369;stroke-width:1.0px;stroke-linecap:butt;stroke-linejoin:miter;stroke-opacity:1"/>
<ellipse cx="117.3" cy="84.7" rx="7.1" ry="7.1" class="atom-45" style="fill:#DC3369;fill-rule:evenodd;stroke:#DC3369;stroke-width:1.0px;stroke-linecap:butt;stroke-linejoin:miter;stroke-opacity:1"/>
<ellipse cx="99.6" cy="212.1" rx="7.1" ry="7.1" class="atom-59" style="fill:#DC3369;fill-rule:evenodd;stroke:#DC3369;stroke-width:1.0px;stroke-linecap:butt;stroke-linejoin:miter;stroke-opacity:1"/>
<path class="bond-0 atom-0 atom-1" d="M 119.3,233.8 L 120.0,226.0" style="fill:none;fill-rule:evenodd;stroke:#000000;stroke-width:2.0px;stroke-linecap:butt;stroke-linejoin:miter;stroke-opacity:1"/>
<path class="bond-0 atom-0 atom-1" d="M 120.0,226.0 L 120.7,218.2" style="fill:none;fill-rule:evenodd;stroke:#0000FF;stroke-width:2.0px;stroke-linecap:butt;stroke-linejoin:miter;stroke-opacity:1"/>
<path class="bond-1 atom-0 atom-27" d="M 119.3,233.8 L 102.0,231.6" style="fill:none;fill-rule:evenodd;stroke:#000000;stroke-width:2.0px;stroke-linecap:butt;stroke-linejoin:miter;stroke-opacity:1"/>
<path class="bond-2 atom-0 atom-28" d="M 119.3,233.8 L 110.1,245.5" style="fill:none;fill-rule:evenodd;stroke:#000000;stroke-width:2.0px;stroke-linecap:butt;stroke-linejoin:miter;stroke-opacity:1"/>
<path class="bond-3 atom-0 atom-29" d="M 119.3,233.8 L 132.0,243.5" style="fill:none;fill-rule:evenodd;stroke:#000000;stroke-width:2.0px;stroke-linecap:butt;stroke-linejoin:miter;stroke-opacity:1"/>
<path class="bond-4 atom-1 atom-2" d="M 129.7,207.6 L 135.8,203.8" style="fill:none;fill-rule:evenodd;stroke:#0000FF;stroke-width:2.0px;stroke-linecap:butt;stroke-linejoin:miter;stroke-opacity:1"/>
<path class="bond-4 atom-1 atom-2" d="M 135.8,203.8 L 141.9,200.0" style="fill:none;fill-rule:evenodd;stroke:#000000;stroke-width:2.0px;stroke-linecap:butt;stroke-linejoin:miter;stroke-opacity:1"/>
<path class="bond-5 atom-1 atom-30" d="M 117.8,207.6 L 115.9,204.5" style="fill:none;fill-rule:evenodd;stroke:#0000FF;stroke-width:2.0px;stroke-linecap:butt;stroke-linejoin:miter;stroke-opacity:1"/>
<path class="bond-5 atom-1 atom-30" d="M 115.9,204.5 L 114.0,201.4" style="fill:none;fill-rule:evenodd;stroke:#000000;stroke-width:2.0px;stroke-linecap:butt;stroke-linejoin:miter;stroke-opacity:1"/>
<path class="bond-6 atom-1 atom-59" d="M 117.0,212.8 L 110.4,212.5" style="fill:none;fill-rule:evenodd;stroke:#0000FF;stroke-width:2.0px;stroke-linecap:butt;stroke-linejoin:miter;stroke-opacity:1"/>
<path class="bond-6 atom-1 atom-59" d="M 110.4,212.5 L 103.9,212.3" style="fill:none;fill-rule:evenodd;stroke:#000000;stroke-width:2.0px;stroke-linecap:butt;stroke-linejoin:miter;stroke-opacity:1"/>
<path class="bond-7 atom-2 atom-3" d="M 141.9,200.0 L 143.7,171.6" style="fill:none;fill-rule:evenodd;stroke:#000000;stroke-width:2.0px;stroke-linecap:butt;stroke-linejoin:miter;stroke-opacity:1"/>
<path class="bond-8 atom-2 atom-31" d="M 141.9,200.0 L 159.3,200.9" style="fill:none;fill-rule:evenodd;stroke:#000000;stroke-width:2.0px;stroke-linecap:butt;stroke-linejoin:miter;stroke-opacity:1"/>
<path class="bond-9 atom-2 atom-32" d="M 141.9,200.0 L 149.5,213.7" style="fill:none;fill-rule:evenodd;stroke:#000000;stroke-width:2.0px;stroke-linecap:butt;stroke-linejoin:miter;stroke-opacity:1"/>
<path class="bond-10 atom-3 atom-4" d="M 143.7,171.6 L 122.2,171.4" style="fill:none;fill-rule:evenodd;stroke:#000000;stroke-width:2.0px;stroke-linecap:butt;stroke-linejoin:miter;stroke-opacity:1"/>
<path class="bond-11 atom-3 atom-26" d="M 143.7,171.6 L 147.6,165.1" style="fill:none;fill-rule:evenodd;stroke:#000000;stroke-width:2.0px;stroke-linecap:butt;stroke-linejoin:miter;stroke-opacity:1"/>
<path class="bond-11 atom-3 atom-26" d="M 147.6,165.1 L 151.5,158.5" style="fill:none;fill-rule:evenodd;stroke:#FF0000;stroke-width:2.0px;stroke-linecap:butt;stroke-linejoin:miter;stroke-opacity:1"/>
<path class="bond-12 atom-3 atom-33" d="M 148.8,173.9 L 149.2,172.6" style="fill:none;fill-rule:evenodd;stroke:#000000;stroke-width:1.0px;stroke-linecap:butt;stroke-linejoin:miter;stroke-opacity:1"/>
<path class="bond-12 atom-3 atom-33" d="M 153.8,176.2 L 154.6,173.5" style="fill:none;fill-rule:evenodd;stroke:#000000;stroke-width:1.0px;stroke-linecap:butt;stroke-linejoin:miter;stroke-opacity:1"/>
<path class="bond-12 atom-3 atom-33" d="M 158.8,178.5 L 160.1,174.4" style="fill:none;fill-rule:evenodd;stroke:#000000;stroke-width:1.0px;stroke-linecap:butt;stroke-linejoin:miter;stroke-opacity:1"/>
<path class="bond-13 atom-4 atom-5" d="M 122.2,171.4 L 111.6,152.4" style="fill:none;fill-rule:evenodd;stroke:#000000;stroke-width:2.0px;stroke-linecap:butt;stroke-linejoin:miter;stroke-opacity:1"/>
<path class="bond-14 atom-4 atom-34" d="M 122.2,171.4 L 109.7,177.6" style="fill:none;fill-rule:evenodd;stroke:#000000;stroke-width:2.0px;stroke-linecap:butt;stroke-linejoin:miter;stroke-opacity:1"/>
<path class="bond-15 atom-4 atom-35" d="M 122.2,171.4 L 125.3,183.9" style="fill:none;fill-rule:evenodd;stroke:#000000;stroke-width:2.0px;stroke-linecap:butt;stroke-linejoin:miter;stroke-opacity:1"/>
<path class="bond-16 atom-5 atom-6" d="M 111.6,152.4 L 122.8,133.7" style="fill:none;fill-rule:evenodd;stroke:#000000;stroke-width:2.0px;stroke-linecap:butt;stroke-linejoin:miter;stroke-opacity:1"/>
<path class="bond-17 atom-5 atom-36" d="M 111.6,152.4 L 97.4,144.7" style="fill:none;fill-rule:evenodd;stroke:#000000;stroke-width:2.0px;stroke-linecap:butt;stroke-linejoin:miter;stroke-opacity:1"/>
<path class="bond-18 atom-5 atom-37" d="M 111.6,152.4 L 99.5,162.3" style="fill:none;fill-rule:evenodd;stroke:#000000;stroke-width:2.0px;stroke-linecap:butt;stroke-linejoin:miter;stroke-opacity:1"/>
<path class="bond-19 atom-6 atom-7" d="M 122.8,133.7 L 112.5,114.6" style="fill:none;fill-rule:evenodd;stroke:#000000;stroke-width:2.0px;stroke-linecap:butt;stroke-linejoin:miter;stroke-opacity:1"/>
<path class="bond-20 atom-6 atom-25" d="M 122.8,133.7 L 144.3,134.1" style="fill:none;fill-rule:evenodd;stroke:#000000;stroke-width:2.0px;stroke-linecap:butt;stroke-linejoin:miter;stroke-opacity:1"/>
<path class="bond-21 atom-6 atom-38" d="M 120.8,132.9 L 120.7,134.3" style="fill:none;fill-rule:evenodd;stroke:#000000;stroke-width:1.0px;stroke-linecap:butt;stroke-linejoin:miter;stroke-opacity:1"/>
<path class="bond-21 atom-6 atom-38" d="M 118.8,132.1 L 118.7,134.9" style="fill:none;fill-rule:evenodd;stroke:#000000;stroke-width:1.0px;stroke-linecap:butt;stroke-linejoin:miter;stroke-opacity:1"/>
<path class="bond-21 atom-6 atom-38" d="M 116.8,131.2 L 116.6,135.5" style="fill:none;fill-rule:evenodd;stroke:#000000;stroke-width:1.0px;stroke-linecap:butt;stroke-linejoin:miter;stroke-opacity:1"/>
<path class="bond-22 atom-7 atom-8" d="M 112.5,114.6 L 99.2,95.5" style="fill:none;fill-rule:evenodd;stroke:#000000;stroke-width:2.0px;stroke-linecap:butt;stroke-linejoin:miter;stroke-opacity:1"/>
<path class="bond-23 atom-7 atom-14" d="M 112.5,114.6 L 116.4,108.2" style="fill:none;fill-rule:evenodd;stroke:#000000;stroke-width:2.0px;stroke-linecap:butt;stroke-linejoin:miter;stroke-opacity:1"/>
<path class="bond-23 atom-7 atom-14" d="M 116.4,108.2 L 120.3,101.7" style="fill:none;fill-rule:evenodd;stroke:#0000FF;stroke-width:2.0px;stroke-linecap:butt;stroke-linejoin:miter;stroke-opacity:1"/>
<path class="bond-24 atom-7 atom-39" d="M 112.5,114.6 L 100.0,121.4 L 98.6,117.4 Z" style="fill:#000000;fill-rule:evenodd;fill-opacity:1;stroke:#000000;stroke-width:1.0px;stroke-linecap:butt;stroke-linejoin:miter;stroke-opacity:1;"/>
<path class="bond-25 atom-8 atom-9" d="M 99.2,95.5 L 79.4,103.9" style="fill:none;fill-rule:evenodd;stroke:#000000;stroke-width:2.0px;stroke-linecap:butt;stroke-linejoin:miter;stroke-opacity:1"/>
<path class="bond-25 atom-8 atom-9" d="M 94.7,93.2 L 80.9,99.1" style="fill:none;fill-rule:evenodd;stroke:#000000;stroke-width:2.0px;stroke-linecap:butt;stroke-linejoin:miter;stroke-opacity:1"/>
<path class="bond-26 atom-8 atom-13" d="M 99.2,95.5 L 101.9,73.9" style="fill:none;fill-rule:evenodd;stroke:#000000;stroke-width:2.0px;stroke-linecap:butt;stroke-linejoin:miter;stroke-opacity:1"/>
<path class="bond-27 atom-9 atom-10" d="M 79.4,103.9 L 62.3,90.9" style="fill:none;fill-rule:evenodd;stroke:#000000;stroke-width:2.0px;stroke-linecap:butt;stroke-linejoin:miter;stroke-opacity:1"/>
<path class="bond-28 atom-9 atom-40" d="M 79.4,103.9 L 77.1,120.0" style="fill:none;fill-rule:evenodd;stroke:#000000;stroke-width:2.0px;stroke-linecap:butt;stroke-linejoin:miter;stroke-opacity:1"/>
<path class="bond-29 atom-10 atom-11" d="M 62.3,90.9 L 64.8,69.5" style="fill:none;fill-rule:evenodd;stroke:#000000;stroke-width:2.0px;stroke-linecap:butt;stroke-linejoin:miter;stroke-opacity:1"/>
<path class="bond-29 atom-10 atom-11" d="M 66.5,88.2 L 68.3,73.2" style="fill:none;fill-rule:evenodd;stroke:#000000;stroke-width:2.0px;stroke-linecap:butt;stroke-linejoin:miter;stroke-opacity:1"/>
<path class="bond-30 atom-10 atom-41" d="M 62.3,90.9 L 46.8,97.8" style="fill:none;fill-rule:evenodd;stroke:#000000;stroke-width:2.0px;stroke-linecap:butt;stroke-linejoin:miter;stroke-opacity:1"/>
<path class="bond-31 atom-11 atom-12" d="M 64.8,69.5 L 84.6,61.0" style="fill:none;fill-rule:evenodd;stroke:#000000;stroke-width:2.0px;stroke-linecap:butt;stroke-linejoin:miter;stroke-opacity:1"/>
<path class="bond-32 atom-11 atom-42" d="M 64.8,69.5 L 51.7,60.0" style="fill:none;fill-rule:evenodd;stroke:#000000;stroke-width:2.0px;stroke-linecap:butt;stroke-linejoin:miter;stroke-opacity:1"/>
<path class="bond-33 atom-12 atom-13" d="M 84.6,61.0 L 101.9,73.9" style="fill:none;fill-rule:evenodd;stroke:#000000;stroke-width:2.0px;stroke-linecap:butt;stroke-linejoin:miter;stroke-opacity:1"/>
<path class="bond-33 atom-12 atom-13" d="M 84.9,66.1 L 97.0,75.1" style="fill:none;fill-rule:evenodd;stroke:#000000;stroke-width:2.0px;stroke-linecap:butt;stroke-linejoin:miter;stroke-opacity:1"/>
<path class="bond-34 atom-12 atom-43" d="M 84.6,61.0 L 86.3,44.9" style="fill:none;fill-rule:evenodd;stroke:#000000;stroke-width:2.0px;stroke-linecap:butt;stroke-linejoin:miter;stroke-opacity:1"/>
<path class="bond-35 atom-13 atom-44" d="M 101.9,73.9 L 116.6,65.2" style="fill:none;fill-rule:evenodd;stroke:#000000;stroke-width:2.0px;stroke-linecap:butt;stroke-linejoin:miter;stroke-opacity:1"/>
<path class="bond-36 atom-14 atom-15" d="M 127.7,96.6 L 136.4,96.8" style="fill:none;fill-rule:evenodd;stroke:#0000FF;stroke-width:2.0px;stroke-linecap:butt;stroke-linejoin:miter;stroke-opacity:1"/>
<path class="bond-36 atom-14 atom-15" d="M 136.4,96.8 L 145.0,97.0" style="fill:none;fill-rule:evenodd;stroke:#000000;stroke-width:2.0px;stroke-linecap:butt;stroke-linejoin:miter;stroke-opacity:1"/>
<path class="bond-37 atom-14 atom-45" d="M 120.7,91.2 L 120.4,90.6" style="fill:none;fill-rule:evenodd;stroke:#0000FF;stroke-width:2.0px;stroke-linecap:butt;stroke-linejoin:miter;stroke-opacity:1"/>
<path class="bond-37 atom-14 atom-45" d="M 120.4,90.6 L 120.1,90.0" style="fill:none;fill-rule:evenodd;stroke:#000000;stroke-width:2.0px;stroke-linecap:butt;stroke-linejoin:miter;stroke-opacity:1"/>
<path class="bond-38 atom-15 atom-16" d="M 145.0,97.0 L 156.0,78.6" style="fill:none;fill-rule:evenodd;stroke:#000000;stroke-width:2.0px;stroke-linecap:butt;stroke-linejoin:miter;stroke-opacity:1"/>
<path class="bond-38 atom-15 atom-16" d="M 149.9,96.3 L 157.7,83.4" style="fill:none;fill-rule:evenodd;stroke:#000000;stroke-width:2.0px;stroke-linecap:butt;stroke-linejoin:miter;stroke-opacity:1"/>
<path class="bond-39 atom-15 atom-24" d="M 145.0,97.0 L 155.3,115.9" style="fill:none;fill-rule:evenodd;stroke:#000000;stroke-width:2.0px;stroke-linecap:butt;stroke-linejoin:miter;stroke-opacity:1"/>
<path class="bond-40 atom-16 atom-17" d="M 156.0,78.6 L 177.4,79.1" style="fill:none;fill-rule:evenodd;stroke:#000000;stroke-width:2.0px;stroke-linecap:butt;stroke-linejoin:miter;stroke-opacity:1"/>
<path class="bond-41 atom-16 atom-46" d="M 156.0,78.6 L 148.5,65.1" style="fill:none;fill-rule:evenodd;stroke:#000000;stroke-width:2.0px;stroke-linecap:butt;stroke-linejoin:miter;stroke-opacity:1"/>
<path class="bond-42 atom-17 atom-18" d="M 177.4,79.1 L 187.9,97.9" style="fill:none;fill-rule:evenodd;stroke:#000000;stroke-width:2.0px;stroke-linecap:butt;stroke-linejoin:miter;stroke-opacity:1"/>
<path class="bond-42 atom-17 atom-18" d="M 175.6,83.8 L 182.9,97.0" style="fill:none;fill-rule:evenodd;stroke:#000000;stroke-width:2.0px;stroke-linecap:butt;stroke-linejoin:miter;stroke-opacity:1"/>
<path class="bond-43 atom-17 atom-47" d="M 177.4,79.1 L 183.9,65.2" style="fill:none;fill-rule:evenodd;stroke:#000000;stroke-width:2.0px;stroke-linecap:butt;stroke-linejoin:miter;stroke-opacity:1"/>
<path class="bond-44 atom-18 atom-19" d="M 187.9,97.9 L 215.3,97.0" style="fill:none;fill-rule:evenodd;stroke:#000000;stroke-width:2.0px;stroke-linecap:butt;stroke-linejoin:miter;stroke-opacity:1"/>
<path class="bond-45 atom-18 atom-23" d="M 187.9,97.9 L 176.7,116.4" style="fill:none;fill-rule:evenodd;stroke:#000000;stroke-width:2.0px;stroke-linecap:butt;stroke-linejoin:miter;stroke-opacity:1"/>
<path class="bond-46 atom-19 atom-20" d="M 215.3,97.0 L 214.0,116.5" style="fill:none;fill-rule:evenodd;stroke:#000000;stroke-width:2.0px;stroke-linecap:butt;stroke-linejoin:miter;stroke-opacity:1"/>
<path class="bond-47 atom-19 atom-21" d="M 215.3,97.0 L 238.9,97.6" style="fill:none;fill-rule:evenodd;stroke:#000000;stroke-width:2.0px;stroke-linecap:butt;stroke-linejoin:miter;stroke-opacity:1"/>
<path class="bond-48 atom-19 atom-22" d="M 215.3,97.0 L 215.3,74.1" style="fill:none;fill-rule:evenodd;stroke:#000000;stroke-width:2.0px;stroke-linecap:butt;stroke-linejoin:miter;stroke-opacity:1"/>
<path class="bond-49 atom-20 atom-48" d="M 214.0,116.5 L 227.9,119.2" style="fill:none;fill-rule:evenodd;stroke:#000000;stroke-width:2.0px;stroke-linecap:butt;stroke-linejoin:miter;stroke-opacity:1"/>
<path class="bond-50 atom-20 atom-49" d="M 214.0,116.5 L 219.4,131.1" style="fill:none;fill-rule:evenodd;stroke:#000000;stroke-width:2.0px;stroke-linecap:butt;stroke-linejoin:miter;stroke-opacity:1"/>
<path class="bond-51 atom-20 atom-50" d="M 214.0,116.5 L 202.8,120.9" style="fill:none;fill-rule:evenodd;stroke:#000000;stroke-width:2.0px;stroke-linecap:butt;stroke-linejoin:miter;stroke-opacity:1"/>
<path class="bond-52 atom-21 atom-51" d="M 238.9,97.6 L 239.6,82.7" style="fill:none;fill-rule:evenodd;stroke:#000000;stroke-width:2.0px;stroke-linecap:butt;stroke-linejoin:miter;stroke-opacity:1"/>
<path class="bond-53 atom-21 atom-52" d="M 238.9,97.6 L 253.2,89.6" style="fill:none;fill-rule:evenodd;stroke:#000000;stroke-width:2.0px;stroke-linecap:butt;stroke-linejoin:miter;stroke-opacity:1"/>
<path class="bond-54 atom-21 atom-53" d="M 238.9,97.6 L 246.8,110.7" style="fill:none;fill-rule:evenodd;stroke:#000000;stroke-width:2.0px;stroke-linecap:butt;stroke-linejoin:miter;stroke-opacity:1"/>
<path class="bond-55 atom-22 atom-54" d="M 215.3,74.1 L 201.9,75.9" style="fill:none;fill-rule:evenodd;stroke:#000000;stroke-width:2.0px;stroke-linecap:butt;stroke-linejoin:miter;stroke-opacity:1"/>
<path class="bond-56 atom-22 atom-55" d="M 215.3,74.1 L 207.1,62.4" style="fill:none;fill-rule:evenodd;stroke:#000000;stroke-width:2.0px;stroke-linecap:butt;stroke-linejoin:miter;stroke-opacity:1"/>
<path class="bond-57 atom-22 atom-56" d="M 215.3,74.1 L 228.2,64.6" style="fill:none;fill-rule:evenodd;stroke:#000000;stroke-width:2.0px;stroke-linecap:butt;stroke-linejoin:miter;stroke-opacity:1"/>
<path class="bond-58 atom-23 atom-24" d="M 176.7,116.4 L 155.3,115.9" style="fill:none;fill-rule:evenodd;stroke:#000000;stroke-width:2.0px;stroke-linecap:butt;stroke-linejoin:miter;stroke-opacity:1"/>
<path class="bond-58 atom-23 atom-24" d="M 173.6,112.4 L 158.6,112.1" style="fill:none;fill-rule:evenodd;stroke:#000000;stroke-width:2.0px;stroke-linecap:butt;stroke-linejoin:miter;stroke-opacity:1"/>
<path class="bond-59 atom-23 atom-57" d="M 176.7,116.4 L 183.6,131.3" style="fill:none;fill-rule:evenodd;stroke:#000000;stroke-width:2.0px;stroke-linecap:butt;stroke-linejoin:miter;stroke-opacity:1"/>
<path class="bond-60 atom-24 atom-25" d="M 155.3,115.9 L 144.3,134.1" style="fill:none;fill-rule:evenodd;stroke:#000000;stroke-width:2.0px;stroke-linecap:butt;stroke-linejoin:miter;stroke-opacity:1"/>
<path class="bond-61 atom-25 atom-26" d="M 144.3,134.1 L 148.1,140.9" style="fill:none;fill-rule:evenodd;stroke:#000000;stroke-width:2.0px;stroke-linecap:butt;stroke-linejoin:miter;stroke-opacity:1"/>
<path class="bond-61 atom-25 atom-26" d="M 148.1,140.9 L 151.8,147.7" style="fill:none;fill-rule:evenodd;stroke:#FF0000;stroke-width:2.0px;stroke-linecap:butt;stroke-linejoin:miter;stroke-opacity:1"/>
<path class="bond-62 atom-25 atom-58" d="M 149.8,134.9 L 149.8,133.5" style="fill:none;fill-rule:evenodd;stroke:#000000;stroke-width:1.0px;stroke-linecap:butt;stroke-linejoin:miter;stroke-opacity:1"/>
<path class="bond-62 atom-25 atom-58" d="M 155.3,135.7 L 155.4,132.9" style="fill:none;fill-rule:evenodd;stroke:#000000;stroke-width:1.0px;stroke-linecap:butt;stroke-linejoin:miter;stroke-opacity:1"/>
<path class="bond-62 atom-25 atom-58" d="M 160.8,136.5 L 160.9,132.3" style="fill:none;fill-rule:evenodd;stroke:#000000;stroke-width:1.0px;stroke-linecap:butt;stroke-linejoin:miter;stroke-opacity:1"/>
<path class="atom-1" d="M 119.1 208.3 L 122.1 213.2 Q 122.4 213.7, 122.9 214.5 Q 123.4 215.4, 123.4 215.5 L 123.4 208.3 L 124.6 208.3 L 124.6 217.5 L 123.4 217.5 L 120.1 212.2 Q 119.8 211.6, 119.4 210.9 Q 119.0 210.2, 118.9 209.9 L 118.9 217.5 L 117.7 217.5 L 117.7 208.3 L 119.1 208.3 " fill="#0000FF"/>
<path class="atom-1" d="M 125.7 210.0 L 127.3 210.0 L 127.3 208.3 L 128.0 208.3 L 128.0 210.0 L 129.7 210.0 L 129.7 210.6 L 128.0 210.6 L 128.0 212.3 L 127.3 212.3 L 127.3 210.6 L 125.7 210.6 L 125.7 210.0 " fill="#0000FF"/>
<path class="atom-14" d="M 121.5 91.9 L 124.6 96.7 Q 124.9 97.2, 125.3 98.1 Q 125.8 98.9, 125.8 99.0 L 125.8 91.9 L 127.1 91.9 L 127.1 101.0 L 125.8 101.0 L 122.6 95.7 Q 122.2 95.1, 121.8 94.4 Q 121.4 93.7, 121.3 93.5 L 121.3 101.0 L 120.1 101.0 L 120.1 91.9 L 121.5 91.9 " fill="#0000FF"/>
<path class="atom-26" d="M 150.6 153.1 Q 150.6 150.9, 151.7 149.6 Q 152.8 148.4, 154.8 148.4 Q 156.8 148.4, 157.9 149.6 Q 159.0 150.9, 159.0 153.1 Q 159.0 155.3, 157.9 156.6 Q 156.8 157.8, 154.8 157.8 Q 152.8 157.8, 151.7 156.6 Q 150.6 155.3, 150.6 153.1 M 154.8 156.8 Q 156.2 156.8, 157.0 155.9 Q 157.7 154.9, 157.7 153.1 Q 157.7 151.3, 157.0 150.4 Q 156.2 149.4, 154.8 149.4 Q 153.4 149.4, 152.6 150.4 Q 151.9 151.3, 151.9 153.1 Q 151.9 154.9, 152.6 155.9 Q 153.4 156.8, 154.8 156.8 " fill="#FF0000"/>
<path class="atom-27" d="M 94.1 226.4 L 95.4 226.4 L 95.4 230.3 L 100.1 230.3 L 100.1 226.4 L 101.3 226.4 L 101.3 235.6 L 100.1 235.6 L 100.1 231.4 L 95.4 231.4 L 95.4 235.6 L 94.1 235.6 L 94.1 226.4 " fill="#000000"/>
<path class="atom-28" d="M 102.4 246.2 L 103.6 246.2 L 103.6 250.1 L 108.3 250.1 L 108.3 246.2 L 109.5 246.2 L 109.5 255.3 L 108.3 255.3 L 108.3 251.1 L 103.6 251.1 L 103.6 255.3 L 102.4 255.3 L 102.4 246.2 " fill="#000000"/>
<path class="atom-29" d="M 132.7 242.1 L 134.0 242.1 L 134.0 246.0 L 138.7 246.0 L 138.7 242.1 L 139.9 242.1 L 139.9 251.3 L 138.7 251.3 L 138.7 247.1 L 134.0 247.1 L 134.0 251.3 L 132.7 251.3 L 132.7 242.1 " fill="#000000"/>
<path class="atom-30" d="M 107.1 191.6 L 108.3 191.6 L 108.3 195.5 L 113.0 195.5 L 113.0 191.6 L 114.2 191.6 L 114.2 200.7 L 113.0 200.7 L 113.0 196.5 L 108.3 196.5 L 108.3 200.7 L 107.1 200.7 L 107.1 191.6 " fill="#000000"/>
<path class="atom-31" d="M 160.0 196.5 L 161.2 196.5 L 161.2 200.4 L 165.9 200.4 L 165.9 196.5 L 167.1 196.5 L 167.1 205.7 L 165.9 205.7 L 165.9 201.4 L 161.2 201.4 L 161.2 205.7 L 160.0 205.7 L 160.0 196.5 " fill="#000000"/>
<path class="atom-32" d="M 148.9 214.4 L 150.1 214.4 L 150.1 218.3 L 154.8 218.3 L 154.8 214.4 L 156.1 214.4 L 156.1 223.6 L 154.8 223.6 L 154.8 219.3 L 150.1 219.3 L 150.1 223.6 L 148.9 223.6 L 148.9 214.4 " fill="#000000"/>
<path class="atom-33" d="M 160.8 173.4 L 162.1 173.4 L 162.1 177.3 L 166.8 177.3 L 166.8 173.4 L 168.0 173.4 L 168.0 182.6 L 166.8 182.6 L 166.8 178.3 L 162.1 178.3 L 162.1 182.6 L 160.8 182.6 L 160.8 173.4 " fill="#000000"/>
<path class="atom-34" d="M 101.9 175.2 L 103.1 175.2 L 103.1 179.1 L 107.8 179.1 L 107.8 175.2 L 109.1 175.2 L 109.1 184.4 L 107.8 184.4 L 107.8 180.1 L 103.1 180.1 L 103.1 184.4 L 101.9 184.4 L 101.9 175.2 " fill="#000000"/>
<path class="atom-35" d="M 123.1 184.6 L 124.3 184.6 L 124.3 188.5 L 129.0 188.5 L 129.0 184.6 L 130.2 184.6 L 130.2 193.8 L 129.0 193.8 L 129.0 189.6 L 124.3 189.6 L 124.3 193.8 L 123.1 193.8 L 123.1 184.6 " fill="#000000"/>
<path class="atom-36" d="M 89.6 137.8 L 90.8 137.8 L 90.8 141.7 L 95.5 141.7 L 95.5 137.8 L 96.7 137.8 L 96.7 146.9 L 95.5 146.9 L 95.5 142.7 L 90.8 142.7 L 90.8 146.9 L 89.6 146.9 L 89.6 137.8 " fill="#000000"/>
<path class="atom-37" d="M 91.7 161.3 L 92.9 161.3 L 92.9 165.2 L 97.6 165.2 L 97.6 161.3 L 98.8 161.3 L 98.8 170.4 L 97.6 170.4 L 97.6 166.2 L 92.9 166.2 L 92.9 170.4 L 91.7 170.4 L 91.7 161.3 " fill="#000000"/>
<path class="atom-38" d="M 108.2 128.5 L 109.4 128.5 L 109.4 132.4 L 114.1 132.4 L 114.1 128.5 L 115.3 128.5 L 115.3 137.6 L 114.1 137.6 L 114.1 133.4 L 109.4 133.4 L 109.4 137.6 L 108.2 137.6 L 108.2 128.5 " fill="#000000"/>
<path class="atom-39" d="M 90.7 116.6 L 92.0 116.6 L 92.0 120.5 L 96.7 120.5 L 96.7 116.6 L 97.9 116.6 L 97.9 125.7 L 96.7 125.7 L 96.7 121.5 L 92.0 121.5 L 92.0 125.7 L 90.7 125.7 L 90.7 116.6 " fill="#000000"/>
<path class="atom-40" d="M 72.8 120.7 L 74.0 120.7 L 74.0 124.6 L 78.7 124.6 L 78.7 120.7 L 79.9 120.7 L 79.9 129.8 L 78.7 129.8 L 78.7 125.6 L 74.0 125.6 L 74.0 129.8 L 72.8 129.8 L 72.8 120.7 " fill="#000000"/>
<path class="atom-41" d="M 38.9 95.1 L 40.2 95.1 L 40.2 99.0 L 44.8 99.0 L 44.8 95.1 L 46.1 95.1 L 46.1 104.2 L 44.8 104.2 L 44.8 100.0 L 40.2 100.0 L 40.2 104.2 L 38.9 104.2 L 38.9 95.1 " fill="#000000"/>
<path class="atom-42" d="M 43.8 52.3 L 45.0 52.3 L 45.0 56.2 L 49.7 56.2 L 49.7 52.3 L 51.0 52.3 L 51.0 61.4 L 49.7 61.4 L 49.7 57.2 L 45.0 57.2 L 45.0 61.4 L 43.8 61.4 L 43.8 52.3 " fill="#000000"/>
<path class="atom-43" d="M 83.3 35.0 L 84.6 35.0 L 84.6 38.9 L 89.3 38.9 L 89.3 35.0 L 90.5 35.0 L 90.5 44.2 L 89.3 44.2 L 89.3 39.9 L 84.6 39.9 L 84.6 44.2 L 83.3 44.2 L 83.3 35.0 " fill="#000000"/>
<path class="atom-44" d="M 117.3 58.0 L 118.5 58.0 L 118.5 61.9 L 123.2 61.9 L 123.2 58.0 L 124.5 58.0 L 124.5 67.2 L 123.2 67.2 L 123.2 63.0 L 118.5 63.0 L 118.5 67.2 L 117.3 67.2 L 117.3 58.0 " fill="#000000"/>
<path class="atom-45" d="M 113.7 80.1 L 114.9 80.1 L 114.9 84.0 L 119.6 84.0 L 119.6 80.1 L 120.9 80.1 L 120.9 89.3 L 119.6 89.3 L 119.6 85.1 L 114.9 85.1 L 114.9 89.3 L 113.7 89.3 L 113.7 80.1 " fill="#000000"/>
<path class="atom-46" d="M 141.9 55.2 L 143.2 55.2 L 143.2 59.1 L 147.9 59.1 L 147.9 55.2 L 149.1 55.2 L 149.1 64.4 L 147.9 64.4 L 147.9 60.1 L 143.2 60.1 L 143.2 64.4 L 141.9 64.4 L 141.9 55.2 " fill="#000000"/>
<path class="atom-47" d="M 182.8 55.3 L 184.0 55.3 L 184.0 59.2 L 188.7 59.2 L 188.7 55.3 L 189.9 55.3 L 189.9 64.5 L 188.7 64.5 L 188.7 60.3 L 184.0 60.3 L 184.0 64.5 L 182.8 64.5 L 182.8 55.3 " fill="#000000"/>
<path class="atom-48" d="M 228.6 115.5 L 229.9 115.5 L 229.9 119.4 L 234.6 119.4 L 234.6 115.5 L 235.8 115.5 L 235.8 124.6 L 234.6 124.6 L 234.6 120.4 L 229.9 120.4 L 229.9 124.6 L 228.6 124.6 L 228.6 115.5 " fill="#000000"/>
<path class="atom-49" d="M 217.7 131.8 L 219.0 131.8 L 219.0 135.7 L 223.7 135.7 L 223.7 131.8 L 224.9 131.8 L 224.9 141.0 L 223.7 141.0 L 223.7 136.8 L 219.0 136.8 L 219.0 141.0 L 217.7 141.0 L 217.7 131.8 " fill="#000000"/>
<path class="atom-50" d="M 195.0 118.0 L 196.2 118.0 L 196.2 121.9 L 200.9 121.9 L 200.9 118.0 L 202.1 118.0 L 202.1 127.2 L 200.9 127.2 L 200.9 122.9 L 196.2 122.9 L 196.2 127.2 L 195.0 127.2 L 195.0 118.0 " fill="#000000"/>
<path class="atom-51" d="M 236.3 72.8 L 237.5 72.8 L 237.5 76.7 L 242.2 76.7 L 242.2 72.8 L 243.4 72.8 L 243.4 82.0 L 242.2 82.0 L 242.2 77.8 L 237.5 77.8 L 237.5 82.0 L 236.3 82.0 L 236.3 72.8 " fill="#000000"/>
<path class="atom-52" d="M 253.9 82.6 L 255.2 82.6 L 255.2 86.5 L 259.8 86.5 L 259.8 82.6 L 261.1 82.6 L 261.1 91.7 L 259.8 91.7 L 259.8 87.5 L 255.2 87.5 L 255.2 91.7 L 253.9 91.7 L 253.9 82.6 " fill="#000000"/>
<path class="atom-53" d="M 246.4 111.4 L 247.6 111.4 L 247.6 115.3 L 252.3 115.3 L 252.3 111.4 L 253.5 111.4 L 253.5 120.6 L 252.3 120.6 L 252.3 116.3 L 247.6 116.3 L 247.6 120.6 L 246.4 120.6 L 246.4 111.4 " fill="#000000"/>
<path class="atom-54" d="M 194.0 71.9 L 195.3 71.9 L 195.3 75.8 L 199.9 75.8 L 199.9 71.9 L 201.2 71.9 L 201.2 81.1 L 199.9 81.1 L 199.9 76.9 L 195.3 76.9 L 195.3 81.1 L 194.0 81.1 L 194.0 71.9 " fill="#000000"/>
<path class="atom-55" d="M 199.8 52.5 L 201.1 52.5 L 201.1 56.4 L 205.8 56.4 L 205.8 52.5 L 207.0 52.5 L 207.0 61.7 L 205.8 61.7 L 205.8 57.4 L 201.1 57.4 L 201.1 61.7 L 199.8 61.7 L 199.8 52.5 " fill="#000000"/>
<path class="atom-56" d="M 228.9 56.8 L 230.1 56.8 L 230.1 60.7 L 234.8 60.7 L 234.8 56.8 L 236.1 56.8 L 236.1 66.0 L 234.8 66.0 L 234.8 61.7 L 230.1 61.7 L 230.1 66.0 L 228.9 66.0 L 228.9 56.8 " fill="#000000"/>
<path class="atom-57" d="M 182.5 131.9 L 183.7 131.9 L 183.7 135.8 L 188.4 135.8 L 188.4 131.9 L 189.7 131.9 L 189.7 141.1 L 188.4 141.1 L 188.4 136.9 L 183.7 136.9 L 183.7 141.1 L 182.5 141.1 L 182.5 131.9 " fill="#000000"/>
<path class="atom-58" d="M 162.3 129.9 L 163.5 129.9 L 163.5 133.8 L 168.2 133.8 L 168.2 129.9 L 169.4 129.9 L 169.4 139.1 L 168.2 139.1 L 168.2 134.8 L 163.5 134.8 L 163.5 139.1 L 162.3 139.1 L 162.3 129.9 " fill="#000000"/>
<path class="atom-59" d="M 96.0 207.6 L 97.2 207.6 L 97.2 211.5 L 101.9 211.5 L 101.9 207.6 L 103.2 207.6 L 103.2 216.7 L 101.9 216.7 L 101.9 212.5 L 97.2 212.5 L 97.2 216.7 L 96.0 216.7 L 96.0 207.6 " fill="#000000"/>
<ellipse cx="442.7" cy="220.7" rx="7.1" ry="7.1" class="atom-37" style="fill:#DC3369;fill-rule:evenodd;stroke:#DC3369;stroke-width:1.0px;stroke-linecap:butt;stroke-linejoin:miter;stroke-opacity:1"/>
<ellipse cx="413.7" cy="112.7" rx="7.1" ry="7.1" class="atom-50" style="fill:#DC3369;fill-rule:evenodd;stroke:#DC3369;stroke-width:1.0px;stroke-linecap:butt;stroke-linejoin:miter;stroke-opacity:1"/>
<path class="bond-0 atom-0 atom-1" d="M 516.7,146.6 L 515.3,124.2" style="fill:none;fill-rule:evenodd;stroke:#000000;stroke-width:2.0px;stroke-linecap:butt;stroke-linejoin:miter;stroke-opacity:1"/>
<path class="bond-1 atom-0 atom-24" d="M 516.7,146.6 L 500.8,147.4" style="fill:none;fill-rule:evenodd;stroke:#000000;stroke-width:2.0px;stroke-linecap:butt;stroke-linejoin:miter;stroke-opacity:1"/>
<path class="bond-2 atom-0 atom-25" d="M 516.7,146.6 L 509.7,160.5" style="fill:none;fill-rule:evenodd;stroke:#000000;stroke-width:2.0px;stroke-linecap:butt;stroke-linejoin:miter;stroke-opacity:1"/>
<path class="bond-3 atom-0 atom-26" d="M 516.7,146.6 L 531.2,154.4" style="fill:none;fill-rule:evenodd;stroke:#000000;stroke-width:2.0px;stroke-linecap:butt;stroke-linejoin:miter;stroke-opacity:1"/>
<path class="bond-4 atom-1 atom-2" d="M 515.3,124.2 L 541.3,122.2" style="fill:none;fill-rule:evenodd;stroke:#000000;stroke-width:2.0px;stroke-linecap:butt;stroke-linejoin:miter;stroke-opacity:1"/>
<path class="bond-5 atom-1 atom-3" d="M 515.3,124.2 L 516.6,102.5" style="fill:none;fill-rule:evenodd;stroke:#000000;stroke-width:2.0px;stroke-linecap:butt;stroke-linejoin:miter;stroke-opacity:1"/>
<path class="bond-6 atom-1 atom-4" d="M 515.3,124.2 L 485.4,124.3" style="fill:none;fill-rule:evenodd;stroke:#000000;stroke-width:2.0px;stroke-linecap:butt;stroke-linejoin:miter;stroke-opacity:1"/>
<path class="bond-7 atom-2 atom-27" d="M 541.3,122.2 L 544.3,137.2" style="fill:none;fill-rule:evenodd;stroke:#000000;stroke-width:2.0px;stroke-linecap:butt;stroke-linejoin:miter;stroke-opacity:1"/>
<path class="bond-8 atom-2 atom-28" d="M 541.3,122.2 L 557.5,128.7" style="fill:none;fill-rule:evenodd;stroke:#000000;stroke-width:2.0px;stroke-linecap:butt;stroke-linejoin:miter;stroke-opacity:1"/>
<path class="bond-9 atom-2 atom-29" d="M 541.3,122.2 L 548.2,107.9" style="fill:none;fill-rule:evenodd;stroke:#000000;stroke-width:2.0px;stroke-linecap:butt;stroke-linejoin:miter;stroke-opacity:1"/>
<path class="bond-10 atom-3 atom-30" d="M 516.6,102.5 L 500.8,101.5" style="fill:none;fill-rule:evenodd;stroke:#000000;stroke-width:2.0px;stroke-linecap:butt;stroke-linejoin:miter;stroke-opacity:1"/>
<path class="bond-11 atom-3 atom-31" d="M 516.6,102.5 L 510.1,88.3" style="fill:none;fill-rule:evenodd;stroke:#000000;stroke-width:2.0px;stroke-linecap:butt;stroke-linejoin:miter;stroke-opacity:1"/>
<path class="bond-12 atom-3 atom-32" d="M 516.6,102.5 L 532.0,95.1" style="fill:none;fill-rule:evenodd;stroke:#000000;stroke-width:2.0px;stroke-linecap:butt;stroke-linejoin:miter;stroke-opacity:1"/>
<path class="bond-13 atom-4 atom-5" d="M 485.4,124.3 L 474.5,105.5" style="fill:none;fill-rule:evenodd;stroke:#000000;stroke-width:2.0px;stroke-linecap:butt;stroke-linejoin:miter;stroke-opacity:1"/>
<path class="bond-13 atom-4 atom-5" d="M 480.4,123.4 L 472.8,110.3" style="fill:none;fill-rule:evenodd;stroke:#000000;stroke-width:2.0px;stroke-linecap:butt;stroke-linejoin:miter;stroke-opacity:1"/>
<path class="bond-14 atom-4 atom-9" d="M 485.4,124.3 L 474.4,143.0" style="fill:none;fill-rule:evenodd;stroke:#000000;stroke-width:2.0px;stroke-linecap:butt;stroke-linejoin:miter;stroke-opacity:1"/>
<path class="bond-15 atom-5 atom-6" d="M 474.5,105.5 L 452.9,105.5" style="fill:none;fill-rule:evenodd;stroke:#000000;stroke-width:2.0px;stroke-linecap:butt;stroke-linejoin:miter;stroke-opacity:1"/>
<path class="bond-16 atom-5 atom-33" d="M 474.5,105.5 L 482.0,91.9" style="fill:none;fill-rule:evenodd;stroke:#000000;stroke-width:2.0px;stroke-linecap:butt;stroke-linejoin:miter;stroke-opacity:1"/>
<path class="bond-17 atom-6 atom-7" d="M 452.9,105.5 L 442.0,124.3" style="fill:none;fill-rule:evenodd;stroke:#000000;stroke-width:2.0px;stroke-linecap:butt;stroke-linejoin:miter;stroke-opacity:1"/>
<path class="bond-17 atom-6 atom-7" d="M 454.6,110.3 L 447.0,123.5" style="fill:none;fill-rule:evenodd;stroke:#000000;stroke-width:2.0px;stroke-linecap:butt;stroke-linejoin:miter;stroke-opacity:1"/>
<path class="bond-18 atom-6 atom-34" d="M 452.9,105.5 L 445.1,92.2" style="fill:none;fill-rule:evenodd;stroke:#000000;stroke-width:2.0px;stroke-linecap:butt;stroke-linejoin:miter;stroke-opacity:1"/>
<path class="bond-19 atom-7 atom-8" d="M 442.0,124.3 L 452.8,143.0" style="fill:none;fill-rule:evenodd;stroke:#000000;stroke-width:2.0px;stroke-linecap:butt;stroke-linejoin:miter;stroke-opacity:1"/>
<path class="bond-20 atom-7 atom-23" d="M 442.0,124.3 L 433.3,124.3" style="fill:none;fill-rule:evenodd;stroke:#000000;stroke-width:2.0px;stroke-linecap:butt;stroke-linejoin:miter;stroke-opacity:1"/>
<path class="bond-20 atom-7 atom-23" d="M 433.3,124.3 L 424.6,124.3" style="fill:none;fill-rule:evenodd;stroke:#0000FF;stroke-width:2.0px;stroke-linecap:butt;stroke-linejoin:miter;stroke-opacity:1"/>
<path class="bond-21 atom-8 atom-9" d="M 452.8,143.0 L 474.4,143.0" style="fill:none;fill-rule:evenodd;stroke:#000000;stroke-width:2.0px;stroke-linecap:butt;stroke-linejoin:miter;stroke-opacity:1"/>
<path class="bond-21 atom-8 atom-9" d="M 456.0,139.1 L 471.2,139.1" style="fill:none;fill-rule:evenodd;stroke:#000000;stroke-width:2.0px;stroke-linecap:butt;stroke-linejoin:miter;stroke-opacity:1"/>
<path class="bond-22 atom-8 atom-10" d="M 452.8,143.0 L 442.0,161.8" style="fill:none;fill-rule:evenodd;stroke:#000000;stroke-width:2.0px;stroke-linecap:butt;stroke-linejoin:miter;stroke-opacity:1"/>
<path class="bond-23 atom-9 atom-35" d="M 474.4,143.0 L 481.8,156.7" style="fill:none;fill-rule:evenodd;stroke:#000000;stroke-width:2.0px;stroke-linecap:butt;stroke-linejoin:miter;stroke-opacity:1"/>
<path class="bond-24 atom-10 atom-11" d="M 442.0,161.8 L 446.0,168.5" style="fill:none;fill-rule:evenodd;stroke:#000000;stroke-width:2.0px;stroke-linecap:butt;stroke-linejoin:miter;stroke-opacity:1"/>
<path class="bond-24 atom-10 atom-11" d="M 446.0,168.5 L 449.9,175.2" style="fill:none;fill-rule:evenodd;stroke:#FF0000;stroke-width:2.0px;stroke-linecap:butt;stroke-linejoin:miter;stroke-opacity:1"/>
<path class="bond-25 atom-10 atom-15" d="M 442.0,161.8 L 420.5,162.1" style="fill:none;fill-rule:evenodd;stroke:#000000;stroke-width:2.0px;stroke-linecap:butt;stroke-linejoin:miter;stroke-opacity:1"/>
<path class="bond-26 atom-10 atom-36" d="M 447.6,162.5 L 447.6,161.1" style="fill:none;fill-rule:evenodd;stroke:#000000;stroke-width:1.0px;stroke-linecap:butt;stroke-linejoin:miter;stroke-opacity:1"/>
<path class="bond-26 atom-10 atom-36" d="M 453.1,163.2 L 453.1,160.3" style="fill:none;fill-rule:evenodd;stroke:#000000;stroke-width:1.0px;stroke-linecap:butt;stroke-linejoin:miter;stroke-opacity:1"/>
<path class="bond-26 atom-10 atom-36" d="M 458.6,163.9 L 458.6,159.6" style="fill:none;fill-rule:evenodd;stroke:#000000;stroke-width:1.0px;stroke-linecap:butt;stroke-linejoin:miter;stroke-opacity:1"/>
<path class="bond-27 atom-11 atom-12" d="M 450.1,186.0 L 446.3,192.8" style="fill:none;fill-rule:evenodd;stroke:#FF0000;stroke-width:2.0px;stroke-linecap:butt;stroke-linejoin:miter;stroke-opacity:1"/>
<path class="bond-27 atom-11 atom-12" d="M 446.3,192.8 L 442.6,199.5" style="fill:none;fill-rule:evenodd;stroke:#000000;stroke-width:2.0px;stroke-linecap:butt;stroke-linejoin:miter;stroke-opacity:1"/>
<path class="bond-28 atom-12 atom-13" d="M 442.6,199.5 L 421.0,199.9" style="fill:none;fill-rule:evenodd;stroke:#000000;stroke-width:2.0px;stroke-linecap:butt;stroke-linejoin:miter;stroke-opacity:1"/>
<path class="bond-29 atom-12 atom-37" d="M 442.6,199.5 L 442.7,215.4" style="fill:none;fill-rule:evenodd;stroke:#000000;stroke-width:2.0px;stroke-linecap:butt;stroke-linejoin:miter;stroke-opacity:1"/>
<path class="bond-30 atom-12 atom-38" d="M 442.6,199.5 L 459.2,203.7" style="fill:none;fill-rule:evenodd;stroke:#000000;stroke-width:2.0px;stroke-linecap:butt;stroke-linejoin:miter;stroke-opacity:1"/>
<path class="bond-31 atom-13 atom-14" d="M 421.0,199.9 L 409.8,181.3" style="fill:none;fill-rule:evenodd;stroke:#000000;stroke-width:2.0px;stroke-linecap:butt;stroke-linejoin:miter;stroke-opacity:1"/>
<path class="bond-32 atom-13 atom-39" d="M 421.0,199.9 L 406.9,207.9" style="fill:none;fill-rule:evenodd;stroke:#000000;stroke-width:2.0px;stroke-linecap:butt;stroke-linejoin:miter;stroke-opacity:1"/>
<path class="bond-33 atom-13 atom-40" d="M 421.0,199.9 L 424.4,215.6" style="fill:none;fill-rule:evenodd;stroke:#000000;stroke-width:2.0px;stroke-linecap:butt;stroke-linejoin:miter;stroke-opacity:1"/>
<path class="bond-34 atom-14 atom-15" d="M 409.8,181.3 L 420.5,162.1" style="fill:none;fill-rule:evenodd;stroke:#000000;stroke-width:2.0px;stroke-linecap:butt;stroke-linejoin:miter;stroke-opacity:1"/>
<path class="bond-35 atom-14 atom-41" d="M 409.8,181.3 L 394.8,174.5" style="fill:none;fill-rule:evenodd;stroke:#000000;stroke-width:2.0px;stroke-linecap:butt;stroke-linejoin:miter;stroke-opacity:1"/>
<path class="bond-36 atom-14 atom-42" d="M 409.8,181.3 L 398.3,191.6" style="fill:none;fill-rule:evenodd;stroke:#000000;stroke-width:2.0px;stroke-linecap:butt;stroke-linejoin:miter;stroke-opacity:1"/>
<path class="bond-37 atom-15 atom-16" d="M 420.5,162.1 L 409.6,143.1" style="fill:none;fill-rule:evenodd;stroke:#000000;stroke-width:2.0px;stroke-linecap:butt;stroke-linejoin:miter;stroke-opacity:1"/>
<path class="bond-38 atom-15 atom-43" d="M 418.3,161.4 L 418.3,162.8" style="fill:none;fill-rule:evenodd;stroke:#000000;stroke-width:1.0px;stroke-linecap:butt;stroke-linejoin:miter;stroke-opacity:1"/>
<path class="bond-38 atom-15 atom-43" d="M 416.1,160.7 L 416.1,163.5" style="fill:none;fill-rule:evenodd;stroke:#000000;stroke-width:1.0px;stroke-linecap:butt;stroke-linejoin:miter;stroke-opacity:1"/>
<path class="bond-38 atom-15 atom-43" d="M 413.9,159.9 L 413.8,164.2" style="fill:none;fill-rule:evenodd;stroke:#000000;stroke-width:1.0px;stroke-linecap:butt;stroke-linejoin:miter;stroke-opacity:1"/>
<path class="bond-39 atom-16 atom-17" d="M 409.6,143.1 L 394.8,125.0" style="fill:none;fill-rule:evenodd;stroke:#000000;stroke-width:2.0px;stroke-linecap:butt;stroke-linejoin:miter;stroke-opacity:1"/>
<path class="bond-40 atom-16 atom-23" d="M 409.6,143.1 L 413.5,136.3" style="fill:none;fill-rule:evenodd;stroke:#000000;stroke-width:2.0px;stroke-linecap:butt;stroke-linejoin:miter;stroke-opacity:1"/>
<path class="bond-40 atom-16 atom-23" d="M 413.5,136.3 L 417.4,129.6" style="fill:none;fill-rule:evenodd;stroke:#0000FF;stroke-width:2.0px;stroke-linecap:butt;stroke-linejoin:miter;stroke-opacity:1"/>
<path class="bond-41 atom-16 atom-44" d="M 409.6,143.1 L 396.9,151.0 L 395.2,147.0 Z" style="fill:#000000;fill-rule:evenodd;fill-opacity:1;stroke:#000000;stroke-width:1.0px;stroke-linecap:butt;stroke-linejoin:miter;stroke-opacity:1;"/>
<path class="bond-42 atom-17 atom-18" d="M 394.8,125.0 L 375.3,134.3" style="fill:none;fill-rule:evenodd;stroke:#000000;stroke-width:2.0px;stroke-linecap:butt;stroke-linejoin:miter;stroke-opacity:1"/>
<path class="bond-42 atom-17 atom-18" d="M 390.2,122.9 L 376.6,129.4" style="fill:none;fill-rule:evenodd;stroke:#000000;stroke-width:2.0px;stroke-linecap:butt;stroke-linejoin:miter;stroke-opacity:1"/>
<path class="bond-43 atom-17 atom-22" d="M 394.8,125.0 L 396.5,103.3" style="fill:none;fill-rule:evenodd;stroke:#000000;stroke-width:2.0px;stroke-linecap:butt;stroke-linejoin:miter;stroke-opacity:1"/>
<path class="bond-44 atom-18 atom-19" d="M 375.3,134.3 L 357.6,122.1" style="fill:none;fill-rule:evenodd;stroke:#000000;stroke-width:2.0px;stroke-linecap:butt;stroke-linejoin:miter;stroke-opacity:1"/>
<path class="bond-45 atom-18 atom-45" d="M 375.3,134.3 L 373.8,150.5" style="fill:none;fill-rule:evenodd;stroke:#000000;stroke-width:2.0px;stroke-linecap:butt;stroke-linejoin:miter;stroke-opacity:1"/>
<path class="bond-46 atom-19 atom-20" d="M 357.6,122.1 L 359.2,100.5" style="fill:none;fill-rule:evenodd;stroke:#000000;stroke-width:2.0px;stroke-linecap:butt;stroke-linejoin:miter;stroke-opacity:1"/>
<path class="bond-46 atom-19 atom-20" d="M 361.7,119.1 L 362.8,104.0" style="fill:none;fill-rule:evenodd;stroke:#000000;stroke-width:2.0px;stroke-linecap:butt;stroke-linejoin:miter;stroke-opacity:1"/>
<path class="bond-47 atom-19 atom-46" d="M 357.6,122.1 L 342.5,129.5" style="fill:none;fill-rule:evenodd;stroke:#000000;stroke-width:2.0px;stroke-linecap:butt;stroke-linejoin:miter;stroke-opacity:1"/>
<path class="bond-48 atom-20 atom-21" d="M 359.2,100.5 L 378.7,91.2" style="fill:none;fill-rule:evenodd;stroke:#000000;stroke-width:2.0px;stroke-linecap:butt;stroke-linejoin:miter;stroke-opacity:1"/>
<path class="bond-49 atom-20 atom-47" d="M 359.2,100.5 L 345.6,91.4" style="fill:none;fill-rule:evenodd;stroke:#000000;stroke-width:2.0px;stroke-linecap:butt;stroke-linejoin:miter;stroke-opacity:1"/>
<path class="bond-50 atom-21 atom-22" d="M 378.7,91.2 L 396.5,103.3" style="fill:none;fill-rule:evenodd;stroke:#000000;stroke-width:2.0px;stroke-linecap:butt;stroke-linejoin:miter;stroke-opacity:1"/>
<path class="bond-50 atom-21 atom-22" d="M 379.2,96.2 L 391.7,104.7" style="fill:none;fill-rule:evenodd;stroke:#000000;stroke-width:2.0px;stroke-linecap:butt;stroke-linejoin:miter;stroke-opacity:1"/>
<path class="bond-51 atom-21 atom-48" d="M 378.7,91.2 L 379.8,74.9" style="fill:none;fill-rule:evenodd;stroke:#000000;stroke-width:2.0px;stroke-linecap:butt;stroke-linejoin:miter;stroke-opacity:1"/>
<path class="bond-52 atom-22 atom-49" d="M 396.5,103.3 L 411.1,94.0" style="fill:none;fill-rule:evenodd;stroke:#000000;stroke-width:2.0px;stroke-linecap:butt;stroke-linejoin:miter;stroke-opacity:1"/>
<path class="bond-53 atom-23 atom-50" d="M 417.4,119.0 L 417.1,118.5" style="fill:none;fill-rule:evenodd;stroke:#0000FF;stroke-width:2.0px;stroke-linecap:butt;stroke-linejoin:miter;stroke-opacity:1"/>
<path class="bond-53 atom-23 atom-50" d="M 417.1,118.5 L 416.8,118.0" style="fill:none;fill-rule:evenodd;stroke:#000000;stroke-width:2.0px;stroke-linecap:butt;stroke-linejoin:miter;stroke-opacity:1"/>
<path class="atom-11" d="M 448.9 180.6 Q 448.9 178.4, 450.0 177.1 Q 451.1 175.9, 453.1 175.9 Q 455.1 175.9, 456.2 177.1 Q 457.3 178.4, 457.3 180.6 Q 457.3 182.8, 456.2 184.1 Q 455.1 185.3, 453.1 185.3 Q 451.1 185.3, 450.0 184.1 Q 448.9 182.8, 448.9 180.6 M 453.1 184.3 Q 454.5 184.3, 455.2 183.3 Q 456.0 182.4, 456.0 180.6 Q 456.0 178.8, 455.2 177.9 Q 454.5 176.9, 453.1 176.9 Q 451.7 176.9, 450.9 177.8 Q 450.2 178.7, 450.2 180.6 Q 450.2 182.4, 450.9 183.3 Q 451.7 184.3, 453.1 184.3 " fill="#FF0000"/>
<path class="atom-23" d="M 418.4 119.7 L 421.4 124.6 Q 421.7 125.1, 422.2 125.9 Q 422.6 126.8, 422.7 126.8 L 422.7 119.7 L 423.9 119.7 L 423.9 128.9 L 422.6 128.9 L 419.4 123.6 Q 419.0 123.0, 418.6 122.2 Q 418.2 121.5, 418.1 121.3 L 418.1 128.9 L 416.9 128.9 L 416.9 119.7 L 418.4 119.7 " fill="#0000FF"/>
<path class="atom-24" d="M 493.0 143.0 L 494.2 143.0 L 494.2 146.9 L 498.9 146.9 L 498.9 143.0 L 500.1 143.0 L 500.1 152.1 L 498.9 152.1 L 498.9 147.9 L 494.2 147.9 L 494.2 152.1 L 493.0 152.1 L 493.0 143.0 " fill="#000000"/>
<path class="atom-25" d="M 503.5 161.2 L 504.7 161.2 L 504.7 165.1 L 509.4 165.1 L 509.4 161.2 L 510.7 161.2 L 510.7 170.4 L 509.4 170.4 L 509.4 166.1 L 504.7 166.1 L 504.7 170.4 L 503.5 170.4 L 503.5 161.2 " fill="#000000"/>
<path class="atom-26" d="M 532.0 152.1 L 533.2 152.1 L 533.2 156.0 L 537.9 156.0 L 537.9 152.1 L 539.1 152.1 L 539.1 161.2 L 537.9 161.2 L 537.9 157.0 L 533.2 157.0 L 533.2 161.2 L 532.0 161.2 L 532.0 152.1 " fill="#000000"/>
<path class="atom-27" d="M 541.7 137.9 L 543.0 137.9 L 543.0 141.8 L 547.7 141.8 L 547.7 137.9 L 548.9 137.9 L 548.9 147.1 L 547.7 147.1 L 547.7 142.8 L 543.0 142.8 L 543.0 147.1 L 541.7 147.1 L 541.7 137.9 " fill="#000000"/>
<path class="atom-28" d="M 558.2 125.9 L 559.5 125.9 L 559.5 129.8 L 564.1 129.8 L 564.1 125.9 L 565.4 125.9 L 565.4 135.1 L 564.1 135.1 L 564.1 130.8 L 559.5 130.8 L 559.5 135.1 L 558.2 135.1 L 558.2 125.9 " fill="#000000"/>
<path class="atom-29" d="M 547.1 98.0 L 548.4 98.0 L 548.4 101.9 L 553.1 101.9 L 553.1 98.0 L 554.3 98.0 L 554.3 107.2 L 553.1 107.2 L 553.1 103.0 L 548.4 103.0 L 548.4 107.2 L 547.1 107.2 L 547.1 98.0 " fill="#000000"/>
<path class="atom-30" d="M 493.0 96.7 L 494.2 96.7 L 494.2 100.6 L 498.9 100.6 L 498.9 96.7 L 500.1 96.7 L 500.1 105.8 L 498.9 105.8 L 498.9 101.6 L 494.2 101.6 L 494.2 105.8 L 493.0 105.8 L 493.0 96.7 " fill="#000000"/>
<path class="atom-31" d="M 504.0 78.4 L 505.3 78.4 L 505.3 82.3 L 510.0 82.3 L 510.0 78.4 L 511.2 78.4 L 511.2 87.6 L 510.0 87.6 L 510.0 83.4 L 505.3 83.4 L 505.3 87.6 L 504.0 87.6 L 504.0 78.4 " fill="#000000"/>
<path class="atom-32" d="M 532.7 88.5 L 534.0 88.5 L 534.0 92.4 L 538.7 92.4 L 538.7 88.5 L 539.9 88.5 L 539.9 97.6 L 538.7 97.6 L 538.7 93.4 L 534.0 93.4 L 534.0 97.6 L 532.7 97.6 L 532.7 88.5 " fill="#000000"/>
<path class="atom-33" d="M 481.3 82.0 L 482.5 82.0 L 482.5 85.9 L 487.2 85.9 L 487.2 82.0 L 488.4 82.0 L 488.4 91.1 L 487.2 91.1 L 487.2 86.9 L 482.5 86.9 L 482.5 91.1 L 481.3 91.1 L 481.3 82.0 " fill="#000000"/>
<path class="atom-34" d="M 438.5 82.3 L 439.7 82.3 L 439.7 86.2 L 444.4 86.2 L 444.4 82.3 L 445.7 82.3 L 445.7 91.4 L 444.4 91.4 L 444.4 87.2 L 439.7 87.2 L 439.7 91.4 L 438.5 91.4 L 438.5 82.3 " fill="#000000"/>
<path class="atom-35" d="M 481.1 157.4 L 482.4 157.4 L 482.4 161.3 L 487.0 161.3 L 487.0 157.4 L 488.3 157.4 L 488.3 166.6 L 487.0 166.6 L 487.0 162.4 L 482.4 162.4 L 482.4 166.6 L 481.1 166.6 L 481.1 157.4 " fill="#000000"/>
<path class="atom-36" d="M 460.0 157.1 L 461.3 157.1 L 461.3 161.0 L 466.0 161.0 L 466.0 157.1 L 467.2 157.1 L 467.2 166.3 L 466.0 166.3 L 466.0 162.0 L 461.3 162.0 L 461.3 166.3 L 460.0 166.3 L 460.0 157.1 " fill="#000000"/>
<path class="atom-37" d="M 439.2 216.1 L 440.4 216.1 L 440.4 220.0 L 445.1 220.0 L 445.1 216.1 L 446.3 216.1 L 446.3 225.3 L 445.1 225.3 L 445.1 221.0 L 440.4 221.0 L 440.4 225.3 L 439.2 225.3 L 439.2 216.1 " fill="#000000"/>
<path class="atom-38" d="M 459.9 200.2 L 461.2 200.2 L 461.2 204.1 L 465.9 204.1 L 465.9 200.2 L 467.1 200.2 L 467.1 209.4 L 465.9 209.4 L 465.9 205.2 L 461.2 205.2 L 461.2 209.4 L 459.9 209.4 L 459.9 200.2 " fill="#000000"/>
<path class="atom-39" d="M 399.1 205.8 L 400.3 205.8 L 400.3 209.7 L 405.0 209.7 L 405.0 205.8 L 406.2 205.8 L 406.2 214.9 L 405.0 214.9 L 405.0 210.7 L 400.3 210.7 L 400.3 214.9 L 399.1 214.9 L 399.1 205.8 " fill="#000000"/>
<path class="atom-40" d="M 421.9 216.3 L 423.2 216.3 L 423.2 220.2 L 427.9 220.2 L 427.9 216.3 L 429.1 216.3 L 429.1 225.4 L 427.9 225.4 L 427.9 221.2 L 423.2 221.2 L 423.2 225.4 L 421.9 225.4 L 421.9 216.3 " fill="#000000"/>
<path class="atom-41" d="M 386.9 167.9 L 388.1 167.9 L 388.1 171.8 L 392.8 171.8 L 392.8 167.9 L 394.1 167.9 L 394.1 177.1 L 392.8 177.1 L 392.8 172.9 L 388.1 172.9 L 388.1 177.1 L 386.9 177.1 L 386.9 167.9 " fill="#000000"/>
<path class="atom-42" d="M 390.4 190.9 L 391.6 190.9 L 391.6 194.8 L 396.3 194.8 L 396.3 190.9 L 397.6 190.9 L 397.6 200.1 L 396.3 200.1 L 396.3 195.8 L 391.6 195.8 L 391.6 200.1 L 390.4 200.1 L 390.4 190.9 " fill="#000000"/>
<path class="atom-43" d="M 405.3 157.5 L 406.5 157.5 L 406.5 161.4 L 411.2 161.4 L 411.2 157.5 L 412.4 157.5 L 412.4 166.6 L 411.2 166.6 L 411.2 162.4 L 406.5 162.4 L 406.5 166.6 L 405.3 166.6 L 405.3 157.5 " fill="#000000"/>
<path class="atom-44" d="M 387.5 146.6 L 388.7 146.6 L 388.7 150.5 L 393.4 150.5 L 393.4 146.6 L 394.7 146.6 L 394.7 155.8 L 393.4 155.8 L 393.4 151.5 L 388.7 151.5 L 388.7 155.8 L 387.5 155.8 L 387.5 146.6 " fill="#000000"/>
<path class="atom-45" d="M 369.7 151.2 L 371.0 151.2 L 371.0 155.1 L 375.7 155.1 L 375.7 151.2 L 376.9 151.2 L 376.9 160.3 L 375.7 160.3 L 375.7 156.1 L 371.0 156.1 L 371.0 160.3 L 369.7 160.3 L 369.7 151.2 " fill="#000000"/>
<path class="atom-46" d="M 334.6 127.0 L 335.9 127.0 L 335.9 130.9 L 340.5 130.9 L 340.5 127.0 L 341.8 127.0 L 341.8 136.1 L 340.5 136.1 L 340.5 131.9 L 335.9 131.9 L 335.9 136.1 L 334.6 136.1 L 334.6 127.0 " fill="#000000"/>
<path class="atom-47" d="M 337.7 84.0 L 339.0 84.0 L 339.0 87.9 L 343.7 87.9 L 343.7 84.0 L 344.9 84.0 L 344.9 93.1 L 343.7 93.1 L 343.7 88.9 L 339.0 88.9 L 339.0 93.1 L 337.7 93.1 L 337.7 84.0 " fill="#000000"/>
<path class="atom-48" d="M 376.5 65.1 L 377.8 65.1 L 377.8 69.0 L 382.5 69.0 L 382.5 65.1 L 383.7 65.1 L 383.7 74.2 L 382.5 74.2 L 382.5 70.0 L 377.8 70.0 L 377.8 74.2 L 376.5 74.2 L 376.5 65.1 " fill="#000000"/>
<path class="atom-49" d="M 411.8 86.7 L 413.0 86.7 L 413.0 90.6 L 417.7 90.6 L 417.7 86.7 L 419.0 86.7 L 419.0 95.8 L 417.7 95.8 L 417.7 91.6 L 413.0 91.6 L 413.0 95.8 L 411.8 95.8 L 411.8 86.7 " fill="#000000"/>
<path class="atom-50" d="M 410.1 108.1 L 411.4 108.1 L 411.4 112.0 L 416.1 112.0 L 416.1 108.1 L 417.3 108.1 L 417.3 117.3 L 416.1 117.3 L 416.1 113.1 L 411.4 113.1 L 411.4 117.3 L 410.1 117.3 L 410.1 108.1 " fill="#000000"/>
<text x="300" y="20" font-size="20" font-family="sans-serif" font-weight="normal" letter-spacing="0" text-anchor="middle" fill="black">eg5 CHEMBL1086410 -&gt; CHEMBL1089056 </text><text x="150" y="285" font-size="15" font-family="sans-serif" font-weight="normal" letter-spacing="0" text-anchor="middle" fill="black">CHEMBL1086410</text><text x="450" y="285" font-size="15" font-family="sans-serif" font-weight="normal" letter-spacing="0" text-anchor="middle" fill="black">CHEMBL1089056</text></svg>
