<?xml version='1.0' encoding='ASCII' standalone='yes'?>
<svg xmlns="http://www.w3.org/2000/svg" xmlns:rdkit="http://www.rdkit.org/xml" xmlns:xlink="http://www.w3.org/1999/xlink" version="1.1" baseProfile="full" xml:space="preserve" width="600px" height="300px" viewBox="0 0 600 300">
<!-- END OF HEADER -->
<rect style="opacity:1.0;fill:#FFFFFF;stroke:none" width="600.0" height="300.0" x="0.0" y="0.0"> </rect>
<ellipse cx="79.8" cy="130.3" rx="7.7" ry="7.7" class="atom-21" style="fill:#5446F4;fill-rule:evenodd;stroke:#5446F4;stroke-width:1.0px;stroke-linecap:butt;stroke-linejoin:miter;stroke-opacity:1"/>
<ellipse cx="159.8" cy="200.2" rx="7.7" ry="7.7" class="atom-25" style="fill:#DC3369;fill-rule:evenodd;stroke:#DC3369;stroke-width:1.0px;stroke-linecap:butt;stroke-linejoin:miter;stroke-opacity:1"/>
<ellipse cx="190.8" cy="98.2" rx="7.7" ry="7.7" class="atom-30" style="fill:#DC3369;fill-rule:evenodd;stroke:#DC3369;stroke-width:1.0px;stroke-linecap:butt;stroke-linejoin:miter;stroke-opacity:1"/>
<path class="bond-0 atom-0 atom-1" d="M 78.9,153.6 L 99.1,165.2" style="fill:none;fill-rule:evenodd;stroke:#000000;stroke-width:2.0px;stroke-linecap:butt;stroke-linejoin:miter;stroke-opacity:1"/>
<path class="bond-0 atom-0 atom-1" d="M 79.8,158.9 L 94.0,167.1" style="fill:none;fill-rule:evenodd;stroke:#000000;stroke-width:2.0px;stroke-linecap:butt;stroke-linejoin:miter;stroke-opacity:1"/>
<path class="bond-1 atom-0 atom-2" d="M 78.9,153.6 L 58.7,165.2" style="fill:none;fill-rule:evenodd;stroke:#000000;stroke-width:2.0px;stroke-linecap:butt;stroke-linejoin:miter;stroke-opacity:1"/>
<path class="bond-2 atom-0 atom-21" d="M 78.9,153.6 L 78.9,145.0" style="fill:none;fill-rule:evenodd;stroke:#000000;stroke-width:2.0px;stroke-linecap:butt;stroke-linejoin:miter;stroke-opacity:1"/>
<path class="bond-2 atom-0 atom-21" d="M 78.9,145.0 L 78.9,136.4" style="fill:none;fill-rule:evenodd;stroke:#00CC00;stroke-width:2.0px;stroke-linecap:butt;stroke-linejoin:miter;stroke-opacity:1"/>
<path class="bond-3 atom-1 atom-3" d="M 99.1,165.2 L 99.2,188.6" style="fill:none;fill-rule:evenodd;stroke:#000000;stroke-width:2.0px;stroke-linecap:butt;stroke-linejoin:miter;stroke-opacity:1"/>
<path class="bond-4 atom-1 atom-4" d="M 99.1,165.2 L 106.9,160.7" style="fill:none;fill-rule:evenodd;stroke:#000000;stroke-width:2.0px;stroke-linecap:butt;stroke-linejoin:miter;stroke-opacity:1"/>
<path class="bond-4 atom-1 atom-4" d="M 106.9,160.7 L 114.8,156.1" style="fill:none;fill-rule:evenodd;stroke:#0000FF;stroke-width:2.0px;stroke-linecap:butt;stroke-linejoin:miter;stroke-opacity:1"/>
<path class="bond-5 atom-2 atom-5" d="M 58.7,165.2 L 58.7,188.6" style="fill:none;fill-rule:evenodd;stroke:#000000;stroke-width:2.0px;stroke-linecap:butt;stroke-linejoin:miter;stroke-opacity:1"/>
<path class="bond-5 atom-2 atom-5" d="M 62.9,168.7 L 62.9,185.1" style="fill:none;fill-rule:evenodd;stroke:#000000;stroke-width:2.0px;stroke-linecap:butt;stroke-linejoin:miter;stroke-opacity:1"/>
<path class="bond-6 atom-2 atom-22" d="M 58.7,165.2 L 43.1,156.3" style="fill:none;fill-rule:evenodd;stroke:#000000;stroke-width:2.0px;stroke-linecap:butt;stroke-linejoin:miter;stroke-opacity:1"/>
<path class="bond-7 atom-3 atom-6" d="M 99.2,188.6 L 78.9,200.3" style="fill:none;fill-rule:evenodd;stroke:#000000;stroke-width:2.0px;stroke-linecap:butt;stroke-linejoin:miter;stroke-opacity:1"/>
<path class="bond-7 atom-3 atom-6" d="M 94.0,186.7 L 79.8,194.9" style="fill:none;fill-rule:evenodd;stroke:#000000;stroke-width:2.0px;stroke-linecap:butt;stroke-linejoin:miter;stroke-opacity:1"/>
<path class="bond-8 atom-3 atom-7" d="M 99.2,188.6 L 119.3,200.2" style="fill:none;fill-rule:evenodd;stroke:#000000;stroke-width:2.0px;stroke-linecap:butt;stroke-linejoin:miter;stroke-opacity:1"/>
<path class="bond-9 atom-4 atom-10" d="M 123.8,156.1 L 131.7,160.6" style="fill:none;fill-rule:evenodd;stroke:#0000FF;stroke-width:2.0px;stroke-linecap:butt;stroke-linejoin:miter;stroke-opacity:1"/>
<path class="bond-9 atom-4 atom-10" d="M 131.7,160.6 L 139.5,165.2" style="fill:none;fill-rule:evenodd;stroke:#000000;stroke-width:2.0px;stroke-linecap:butt;stroke-linejoin:miter;stroke-opacity:1"/>
<path class="bond-9 atom-4 atom-10" d="M 124.1,161.1 L 129.6,164.3" style="fill:none;fill-rule:evenodd;stroke:#0000FF;stroke-width:2.0px;stroke-linecap:butt;stroke-linejoin:miter;stroke-opacity:1"/>
<path class="bond-9 atom-4 atom-10" d="M 129.6,164.3 L 135.0,167.5" style="fill:none;fill-rule:evenodd;stroke:#000000;stroke-width:2.0px;stroke-linecap:butt;stroke-linejoin:miter;stroke-opacity:1"/>
<path class="bond-10 atom-5 atom-6" d="M 58.7,188.6 L 78.9,200.3" style="fill:none;fill-rule:evenodd;stroke:#000000;stroke-width:2.0px;stroke-linecap:butt;stroke-linejoin:miter;stroke-opacity:1"/>
<path class="bond-11 atom-5 atom-23" d="M 58.7,188.6 L 43.1,197.6" style="fill:none;fill-rule:evenodd;stroke:#000000;stroke-width:2.0px;stroke-linecap:butt;stroke-linejoin:miter;stroke-opacity:1"/>
<path class="bond-12 atom-6 atom-24" d="M 78.9,200.3 L 78.9,217.9" style="fill:none;fill-rule:evenodd;stroke:#000000;stroke-width:2.0px;stroke-linecap:butt;stroke-linejoin:miter;stroke-opacity:1"/>
<path class="bond-13 atom-7 atom-8" d="M 119.3,200.2 L 127.2,195.7" style="fill:none;fill-rule:evenodd;stroke:#000000;stroke-width:2.0px;stroke-linecap:butt;stroke-linejoin:miter;stroke-opacity:1"/>
<path class="bond-13 atom-7 atom-8" d="M 127.2,195.7 L 135.0,191.1" style="fill:none;fill-rule:evenodd;stroke:#0000FF;stroke-width:2.0px;stroke-linecap:butt;stroke-linejoin:miter;stroke-opacity:1"/>
<path class="bond-14 atom-7 atom-9" d="M 121.4,200.2 L 121.4,209.0" style="fill:none;fill-rule:evenodd;stroke:#000000;stroke-width:2.0px;stroke-linecap:butt;stroke-linejoin:miter;stroke-opacity:1"/>
<path class="bond-14 atom-7 atom-9" d="M 121.4,209.0 L 121.4,217.8" style="fill:none;fill-rule:evenodd;stroke:#FF0000;stroke-width:2.0px;stroke-linecap:butt;stroke-linejoin:miter;stroke-opacity:1"/>
<path class="bond-14 atom-7 atom-9" d="M 117.2,200.2 L 117.2,209.0" style="fill:none;fill-rule:evenodd;stroke:#000000;stroke-width:2.0px;stroke-linecap:butt;stroke-linejoin:miter;stroke-opacity:1"/>
<path class="bond-14 atom-7 atom-9" d="M 117.2,209.0 L 117.2,217.8" style="fill:none;fill-rule:evenodd;stroke:#FF0000;stroke-width:2.0px;stroke-linecap:butt;stroke-linejoin:miter;stroke-opacity:1"/>
<path class="bond-15 atom-8 atom-10" d="M 139.5,182.8 L 139.5,174.0" style="fill:none;fill-rule:evenodd;stroke:#0000FF;stroke-width:2.0px;stroke-linecap:butt;stroke-linejoin:miter;stroke-opacity:1"/>
<path class="bond-15 atom-8 atom-10" d="M 139.5,174.0 L 139.5,165.2" style="fill:none;fill-rule:evenodd;stroke:#000000;stroke-width:2.0px;stroke-linecap:butt;stroke-linejoin:miter;stroke-opacity:1"/>
<path class="bond-16 atom-8 atom-25" d="M 144.1,191.1 L 149.6,194.3" style="fill:none;fill-rule:evenodd;stroke:#0000FF;stroke-width:2.0px;stroke-linecap:butt;stroke-linejoin:miter;stroke-opacity:1"/>
<path class="bond-16 atom-8 atom-25" d="M 149.6,194.3 L 155.1,197.5" style="fill:none;fill-rule:evenodd;stroke:#000000;stroke-width:2.0px;stroke-linecap:butt;stroke-linejoin:miter;stroke-opacity:1"/>
<path class="bond-17 atom-10 atom-11" d="M 139.5,165.2 L 155.6,154.4" style="fill:none;fill-rule:evenodd;stroke:#000000;stroke-width:2.0px;stroke-linecap:butt;stroke-linejoin:miter;stroke-opacity:1"/>
<path class="bond-18 atom-11 atom-12" d="M 155.6,154.4 L 154.4,131.0" style="fill:none;fill-rule:evenodd;stroke:#000000;stroke-width:2.0px;stroke-linecap:butt;stroke-linejoin:miter;stroke-opacity:1"/>
<path class="bond-18 atom-11 atom-12" d="M 159.6,150.6 L 158.7,134.3" style="fill:none;fill-rule:evenodd;stroke:#000000;stroke-width:2.0px;stroke-linecap:butt;stroke-linejoin:miter;stroke-opacity:1"/>
<path class="bond-19 atom-11 atom-16" d="M 155.6,154.4 L 176.4,165.1" style="fill:none;fill-rule:evenodd;stroke:#000000;stroke-width:2.0px;stroke-linecap:butt;stroke-linejoin:miter;stroke-opacity:1"/>
<path class="bond-20 atom-12 atom-13" d="M 154.4,131.0 L 174.0,118.4" style="fill:none;fill-rule:evenodd;stroke:#000000;stroke-width:2.0px;stroke-linecap:butt;stroke-linejoin:miter;stroke-opacity:1"/>
<path class="bond-21 atom-12 atom-26" d="M 154.4,131.0 L 138.2,122.9" style="fill:none;fill-rule:evenodd;stroke:#000000;stroke-width:2.0px;stroke-linecap:butt;stroke-linejoin:miter;stroke-opacity:1"/>
<path class="bond-22 atom-13 atom-14" d="M 174.0,118.4 L 194.9,129.0" style="fill:none;fill-rule:evenodd;stroke:#000000;stroke-width:2.0px;stroke-linecap:butt;stroke-linejoin:miter;stroke-opacity:1"/>
<path class="bond-22 atom-13 atom-14" d="M 175.2,123.7 L 189.8,131.2" style="fill:none;fill-rule:evenodd;stroke:#000000;stroke-width:2.0px;stroke-linecap:butt;stroke-linejoin:miter;stroke-opacity:1"/>
<path class="bond-23 atom-13 atom-27" d="M 174.0,118.4 L 172.3,100.5" style="fill:none;fill-rule:evenodd;stroke:#000000;stroke-width:2.0px;stroke-linecap:butt;stroke-linejoin:miter;stroke-opacity:1"/>
<path class="bond-24 atom-14 atom-15" d="M 194.9,129.0 L 196.0,152.4" style="fill:none;fill-rule:evenodd;stroke:#000000;stroke-width:2.0px;stroke-linecap:butt;stroke-linejoin:miter;stroke-opacity:1"/>
<path class="bond-25 atom-14 atom-17" d="M 194.9,129.0 L 219.2,117.2" style="fill:none;fill-rule:evenodd;stroke:#000000;stroke-width:2.0px;stroke-linecap:butt;stroke-linejoin:miter;stroke-opacity:1"/>
<path class="bond-26 atom-15 atom-16" d="M 196.0,152.4 L 176.4,165.1" style="fill:none;fill-rule:evenodd;stroke:#000000;stroke-width:2.0px;stroke-linecap:butt;stroke-linejoin:miter;stroke-opacity:1"/>
<path class="bond-26 atom-15 atom-16" d="M 190.8,150.8 L 177.1,159.6" style="fill:none;fill-rule:evenodd;stroke:#000000;stroke-width:2.0px;stroke-linecap:butt;stroke-linejoin:miter;stroke-opacity:1"/>
<path class="bond-27 atom-15 atom-28" d="M 196.0,152.4 L 213.6,162.7" style="fill:none;fill-rule:evenodd;stroke:#000000;stroke-width:2.0px;stroke-linecap:butt;stroke-linejoin:miter;stroke-opacity:1"/>
<path class="bond-28 atom-16 atom-29" d="M 176.4,165.1 L 177.4,182.6" style="fill:none;fill-rule:evenodd;stroke:#000000;stroke-width:2.0px;stroke-linecap:butt;stroke-linejoin:miter;stroke-opacity:1"/>
<path class="bond-29 atom-17 atom-18" d="M 219.2,117.2 L 216.3,110.8" style="fill:none;fill-rule:evenodd;stroke:#000000;stroke-width:2.0px;stroke-linecap:butt;stroke-linejoin:miter;stroke-opacity:1"/>
<path class="bond-29 atom-17 atom-18" d="M 216.3,110.8 L 213.4,104.5" style="fill:none;fill-rule:evenodd;stroke:#FF0000;stroke-width:2.0px;stroke-linecap:butt;stroke-linejoin:miter;stroke-opacity:1"/>
<path class="bond-30 atom-17 atom-19" d="M 219.2,117.2 L 231.4,96.4" style="fill:none;fill-rule:evenodd;stroke:#000000;stroke-width:2.0px;stroke-linecap:butt;stroke-linejoin:miter;stroke-opacity:1"/>
<path class="bond-31 atom-17 atom-20" d="M 219.2,117.2 L 239.8,131.3" style="fill:none;fill-rule:evenodd;stroke:#000000;stroke-width:2.0px;stroke-linecap:butt;stroke-linejoin:miter;stroke-opacity:1"/>
<path class="bond-32 atom-18 atom-30" d="M 205.3,98.4 L 200.4,98.4" style="fill:none;fill-rule:evenodd;stroke:#FF0000;stroke-width:2.0px;stroke-linecap:butt;stroke-linejoin:miter;stroke-opacity:1"/>
<path class="bond-32 atom-18 atom-30" d="M 200.4,98.4 L 195.4,98.3" style="fill:none;fill-rule:evenodd;stroke:#000000;stroke-width:2.0px;stroke-linecap:butt;stroke-linejoin:miter;stroke-opacity:1"/>
<path class="bond-33 atom-19 atom-31" d="M 231.4,96.4 L 246.4,104.2" style="fill:none;fill-rule:evenodd;stroke:#000000;stroke-width:2.0px;stroke-linecap:butt;stroke-linejoin:miter;stroke-opacity:1"/>
<path class="bond-34 atom-19 atom-32" d="M 231.4,96.4 L 246.7,87.0" style="fill:none;fill-rule:evenodd;stroke:#000000;stroke-width:2.0px;stroke-linecap:butt;stroke-linejoin:miter;stroke-opacity:1"/>
<path class="bond-35 atom-19 atom-33" d="M 231.4,96.4 L 223.0,81.9" style="fill:none;fill-rule:evenodd;stroke:#000000;stroke-width:2.0px;stroke-linecap:butt;stroke-linejoin:miter;stroke-opacity:1"/>
<path class="bond-36 atom-20 atom-34" d="M 239.8,131.3 L 231.2,143.2" style="fill:none;fill-rule:evenodd;stroke:#000000;stroke-width:2.0px;stroke-linecap:butt;stroke-linejoin:miter;stroke-opacity:1"/>
<path class="bond-37 atom-20 atom-35" d="M 239.8,131.3 L 246.7,147.1" style="fill:none;fill-rule:evenodd;stroke:#000000;stroke-width:2.0px;stroke-linecap:butt;stroke-linejoin:miter;stroke-opacity:1"/>
<path class="bond-38 atom-20 atom-36" d="M 239.8,131.3 L 256.9,124.3" style="fill:none;fill-rule:evenodd;stroke:#000000;stroke-width:2.0px;stroke-linecap:butt;stroke-linejoin:miter;stroke-opacity:1"/>
<path class="atom-4" d="M 117.1 148.6 L 120.4 153.8 Q 120.7 154.3, 121.2 155.3 Q 121.7 156.2, 121.7 156.3 L 121.7 148.6 L 123.1 148.6 L 123.1 158.5 L 121.7 158.5 L 118.2 152.7 Q 117.8 152.1, 117.4 151.3 Q 117.0 150.5, 116.8 150.3 L 116.8 158.5 L 115.5 158.5 L 115.5 148.6 L 117.1 148.6 " fill="#0000FF"/>
<path class="atom-8" d="M 137.4 183.6 L 140.6 188.8 Q 140.9 189.3, 141.5 190.3 Q 142.0 191.2, 142.0 191.3 L 142.0 183.6 L 143.3 183.6 L 143.3 193.5 L 142.0 193.5 L 138.5 187.7 Q 138.1 187.1, 137.6 186.3 Q 137.2 185.5, 137.1 185.3 L 137.1 193.5 L 135.8 193.5 L 135.8 183.6 L 137.4 183.6 " fill="#0000FF"/>
<path class="atom-9" d="M 114.8 223.6 Q 114.8 221.2, 116.0 219.9 Q 117.1 218.6, 119.3 218.6 Q 121.5 218.6, 122.7 219.9 Q 123.9 221.2, 123.9 223.6 Q 123.9 226.0, 122.7 227.4 Q 121.5 228.7, 119.3 228.7 Q 117.1 228.7, 116.0 227.4 Q 114.8 226.0, 114.8 223.6 M 119.3 227.6 Q 120.8 227.6, 121.7 226.6 Q 122.5 225.6, 122.5 223.6 Q 122.5 221.6, 121.7 220.7 Q 120.8 219.7, 119.3 219.7 Q 117.8 219.7, 117.0 220.7 Q 116.2 221.6, 116.2 223.6 Q 116.2 225.6, 117.0 226.6 Q 117.8 227.6, 119.3 227.6 " fill="#FF0000"/>
<path class="atom-18" d="M 206.1 98.6 Q 206.1 96.2, 207.3 94.8 Q 208.5 93.5, 210.7 93.5 Q 212.8 93.5, 214.0 94.8 Q 215.2 96.2, 215.2 98.6 Q 215.2 101.0, 214.0 102.3 Q 212.8 103.7, 210.7 103.7 Q 208.5 103.7, 207.3 102.3 Q 206.1 101.0, 206.1 98.6 M 210.7 102.6 Q 212.2 102.6, 213.0 101.6 Q 213.8 100.5, 213.8 98.6 Q 213.8 96.6, 213.0 95.6 Q 212.2 94.6, 210.7 94.6 Q 209.1 94.6, 208.3 95.6 Q 207.5 96.6, 207.5 98.6 Q 207.5 100.6, 208.3 101.6 Q 209.1 102.6, 210.7 102.6 " fill="#FF0000"/>
<path class="atom-21" d="M 75.1 130.6 Q 75.1 128.1, 76.2 126.8 Q 77.4 125.5, 79.6 125.5 Q 81.6 125.5, 82.7 127.0 L 81.8 127.7 Q 81.0 126.7, 79.6 126.7 Q 78.1 126.7, 77.3 127.7 Q 76.5 128.7, 76.5 130.6 Q 76.5 132.5, 77.3 133.5 Q 78.2 134.6, 79.8 134.6 Q 80.8 134.6, 82.1 133.9 L 82.5 134.9 Q 82.0 135.3, 81.2 135.5 Q 80.4 135.7, 79.6 135.7 Q 77.4 135.7, 76.2 134.4 Q 75.1 133.0, 75.1 130.6 " fill="#00CC00"/>
<path class="atom-21" d="M 83.3 124.9 L 84.6 124.9 L 84.6 135.5 L 83.3 135.5 L 83.3 124.9 " fill="#00CC00"/>
<path class="atom-22" d="M 34.6 148.6 L 36.0 148.6 L 36.0 152.8 L 41.0 152.8 L 41.0 148.6 L 42.4 148.6 L 42.4 158.5 L 41.0 158.5 L 41.0 154.0 L 36.0 154.0 L 36.0 158.5 L 34.6 158.5 L 34.6 148.6 " fill="#000000"/>
<path class="atom-23" d="M 34.6 195.3 L 36.0 195.3 L 36.0 199.5 L 41.0 199.5 L 41.0 195.3 L 42.4 195.3 L 42.4 205.2 L 41.0 205.2 L 41.0 200.6 L 36.0 200.6 L 36.0 205.2 L 34.6 205.2 L 34.6 195.3 " fill="#000000"/>
<path class="atom-24" d="M 75.1 218.6 L 76.4 218.6 L 76.4 222.8 L 81.5 222.8 L 81.5 218.6 L 82.8 218.6 L 82.8 228.5 L 81.5 228.5 L 81.5 224.0 L 76.4 224.0 L 76.4 228.5 L 75.1 228.5 L 75.1 218.6 " fill="#000000"/>
<path class="atom-25" d="M 155.9 195.2 L 157.2 195.2 L 157.2 199.4 L 162.3 199.4 L 162.3 195.2 L 163.6 195.2 L 163.6 205.1 L 162.3 205.1 L 162.3 200.5 L 157.2 200.5 L 157.2 205.1 L 155.9 205.1 L 155.9 195.2 " fill="#000000"/>
<path class="atom-26" d="M 129.7 115.6 L 131.0 115.6 L 131.0 119.8 L 136.1 119.8 L 136.1 115.6 L 137.4 115.6 L 137.4 125.5 L 136.1 125.5 L 136.1 120.9 L 131.0 120.9 L 131.0 125.5 L 129.7 125.5 L 129.7 115.6 " fill="#000000"/>
<path class="atom-27" d="M 167.9 89.8 L 169.2 89.8 L 169.2 94.0 L 174.3 94.0 L 174.3 89.8 L 175.6 89.8 L 175.6 99.7 L 174.3 99.7 L 174.3 95.1 L 169.2 95.1 L 169.2 99.7 L 167.9 99.7 L 167.9 89.8 " fill="#000000"/>
<path class="atom-28" d="M 214.3 160.4 L 215.7 160.4 L 215.7 164.6 L 220.8 164.6 L 220.8 160.4 L 222.1 160.4 L 222.1 170.3 L 220.8 170.3 L 220.8 165.8 L 215.7 165.8 L 215.7 170.3 L 214.3 170.3 L 214.3 160.4 " fill="#000000"/>
<path class="atom-29" d="M 173.8 183.4 L 175.2 183.4 L 175.2 187.6 L 180.2 187.6 L 180.2 183.4 L 181.6 183.4 L 181.6 193.3 L 180.2 193.3 L 180.2 188.7 L 175.2 188.7 L 175.2 193.3 L 173.8 193.3 L 173.8 183.4 " fill="#000000"/>
<path class="atom-30" d="M 186.9 93.3 L 188.2 93.3 L 188.2 97.5 L 193.3 97.5 L 193.3 93.3 L 194.6 93.3 L 194.6 103.2 L 193.3 103.2 L 193.3 98.6 L 188.2 98.6 L 188.2 103.2 L 186.9 103.2 L 186.9 93.3 " fill="#000000"/>
<path class="atom-31" d="M 247.2 101.7 L 248.5 101.7 L 248.5 105.9 L 253.6 105.9 L 253.6 101.7 L 255.0 101.7 L 255.0 111.6 L 253.6 111.6 L 253.6 107.0 L 248.5 107.0 L 248.5 111.6 L 247.2 111.6 L 247.2 101.7 " fill="#000000"/>
<path class="atom-32" d="M 247.5 79.3 L 248.8 79.3 L 248.8 83.5 L 253.9 83.5 L 253.9 79.3 L 255.2 79.3 L 255.2 89.2 L 253.9 89.2 L 253.9 84.6 L 248.8 84.6 L 248.8 89.2 L 247.5 89.2 L 247.5 79.3 " fill="#000000"/>
<path class="atom-33" d="M 215.7 71.3 L 217.1 71.3 L 217.1 75.5 L 222.1 75.5 L 222.1 71.3 L 223.5 71.3 L 223.5 81.2 L 222.1 81.2 L 222.1 76.6 L 217.1 76.6 L 217.1 81.2 L 215.7 81.2 L 215.7 71.3 " fill="#000000"/>
<path class="atom-34" d="M 223.1 143.9 L 224.5 143.9 L 224.5 148.1 L 229.6 148.1 L 229.6 143.9 L 230.9 143.9 L 230.9 153.8 L 229.6 153.8 L 229.6 149.3 L 224.5 149.3 L 224.5 153.8 L 223.1 153.8 L 223.1 143.9 " fill="#000000"/>
<path class="atom-35" d="M 245.3 147.9 L 246.7 147.9 L 246.7 152.1 L 251.8 152.1 L 251.8 147.9 L 253.1 147.9 L 253.1 157.8 L 251.8 157.8 L 251.8 153.2 L 246.7 153.2 L 246.7 157.8 L 245.3 157.8 L 245.3 147.9 " fill="#000000"/>
<path class="atom-36" d="M 257.6 117.5 L 259.0 117.5 L 259.0 121.7 L 264.0 121.7 L 264.0 117.5 L 265.4 117.5 L 265.4 127.4 L 264.0 127.4 L 264.0 122.8 L 259.0 122.8 L 259.0 127.4 L 257.6 127.4 L 257.6 117.5 " fill="#000000"/>
<ellipse cx="379.0" cy="130.4" rx="7.7" ry="7.7" class="atom-21" style="fill:#5446F4;fill-rule:evenodd;stroke:#5446F4;stroke-width:1.0px;stroke-linecap:butt;stroke-linejoin:miter;stroke-opacity:1"/>
<ellipse cx="358.8" cy="118.6" rx="7.7" ry="7.7" class="atom-22" style="fill:#DC3369;fill-rule:evenodd;stroke:#DC3369;stroke-width:1.0px;stroke-linecap:butt;stroke-linejoin:miter;stroke-opacity:1"/>
<ellipse cx="459.8" cy="200.2" rx="7.7" ry="7.7" class="atom-26" style="fill:#DC3369;fill-rule:evenodd;stroke:#DC3369;stroke-width:1.0px;stroke-linecap:butt;stroke-linejoin:miter;stroke-opacity:1"/>
<ellipse cx="490.8" cy="98.2" rx="7.7" ry="7.7" class="atom-31" style="fill:#DC3369;fill-rule:evenodd;stroke:#DC3369;stroke-width:1.0px;stroke-linecap:butt;stroke-linejoin:miter;stroke-opacity:1"/>
<ellipse cx="370.4" cy="98.4" rx="7.7" ry="7.7" class="atom-38" style="fill:#DC3369;fill-rule:evenodd;stroke:#DC3369;stroke-width:1.0px;stroke-linecap:butt;stroke-linejoin:miter;stroke-opacity:1"/>
<ellipse cx="347.1" cy="98.4" rx="7.7" ry="7.7" class="atom-39" style="fill:#DC3369;fill-rule:evenodd;stroke:#DC3369;stroke-width:1.0px;stroke-linecap:butt;stroke-linejoin:miter;stroke-opacity:1"/>
<ellipse cx="338.6" cy="130.3" rx="7.7" ry="7.7" class="atom-40" style="fill:#DC3369;fill-rule:evenodd;stroke:#DC3369;stroke-width:1.0px;stroke-linecap:butt;stroke-linejoin:miter;stroke-opacity:1"/>
<path class="bond-0 atom-0 atom-1" d="M 379.0,153.6 L 399.1,165.3" style="fill:none;fill-rule:evenodd;stroke:#000000;stroke-width:2.0px;stroke-linecap:butt;stroke-linejoin:miter;stroke-opacity:1"/>
<path class="bond-0 atom-0 atom-1" d="M 379.9,159.0 L 394.0,167.2" style="fill:none;fill-rule:evenodd;stroke:#000000;stroke-width:2.0px;stroke-linecap:butt;stroke-linejoin:miter;stroke-opacity:1"/>
<path class="bond-1 atom-0 atom-2" d="M 379.0,153.6 L 358.7,165.3" style="fill:none;fill-rule:evenodd;stroke:#000000;stroke-width:2.0px;stroke-linecap:butt;stroke-linejoin:miter;stroke-opacity:1"/>
<path class="bond-2 atom-0 atom-21" d="M 379.0,153.6 L 379.0,144.9" style="fill:none;fill-rule:evenodd;stroke:#000000;stroke-width:2.0px;stroke-linecap:butt;stroke-linejoin:miter;stroke-opacity:1"/>
<path class="bond-2 atom-0 atom-21" d="M 379.0,144.9 L 379.0,136.2" style="fill:none;fill-rule:evenodd;stroke:#FF0000;stroke-width:2.0px;stroke-linecap:butt;stroke-linejoin:miter;stroke-opacity:1"/>
<path class="bond-3 atom-1 atom-3" d="M 399.1,165.3 L 399.2,188.6" style="fill:none;fill-rule:evenodd;stroke:#000000;stroke-width:2.0px;stroke-linecap:butt;stroke-linejoin:miter;stroke-opacity:1"/>
<path class="bond-4 atom-1 atom-4" d="M 399.1,165.3 L 407.0,160.7" style="fill:none;fill-rule:evenodd;stroke:#000000;stroke-width:2.0px;stroke-linecap:butt;stroke-linejoin:miter;stroke-opacity:1"/>
<path class="bond-4 atom-1 atom-4" d="M 407.0,160.7 L 414.8,156.2" style="fill:none;fill-rule:evenodd;stroke:#0000FF;stroke-width:2.0px;stroke-linecap:butt;stroke-linejoin:miter;stroke-opacity:1"/>
<path class="bond-5 atom-2 atom-5" d="M 358.7,165.3 L 358.8,188.6" style="fill:none;fill-rule:evenodd;stroke:#000000;stroke-width:2.0px;stroke-linecap:butt;stroke-linejoin:miter;stroke-opacity:1"/>
<path class="bond-5 atom-2 atom-5" d="M 362.9,168.8 L 363.0,185.1" style="fill:none;fill-rule:evenodd;stroke:#000000;stroke-width:2.0px;stroke-linecap:butt;stroke-linejoin:miter;stroke-opacity:1"/>
<path class="bond-6 atom-2 atom-23" d="M 358.7,165.3 L 343.2,156.3" style="fill:none;fill-rule:evenodd;stroke:#000000;stroke-width:2.0px;stroke-linecap:butt;stroke-linejoin:miter;stroke-opacity:1"/>
<path class="bond-7 atom-3 atom-6" d="M 399.2,188.6 L 379.0,200.3" style="fill:none;fill-rule:evenodd;stroke:#000000;stroke-width:2.0px;stroke-linecap:butt;stroke-linejoin:miter;stroke-opacity:1"/>
<path class="bond-7 atom-3 atom-6" d="M 394.1,186.7 L 379.9,194.9" style="fill:none;fill-rule:evenodd;stroke:#000000;stroke-width:2.0px;stroke-linecap:butt;stroke-linejoin:miter;stroke-opacity:1"/>
<path class="bond-8 atom-3 atom-7" d="M 399.2,188.6 L 419.4,200.3" style="fill:none;fill-rule:evenodd;stroke:#000000;stroke-width:2.0px;stroke-linecap:butt;stroke-linejoin:miter;stroke-opacity:1"/>
<path class="bond-9 atom-4 atom-10" d="M 423.9,156.2 L 431.7,160.7" style="fill:none;fill-rule:evenodd;stroke:#0000FF;stroke-width:2.0px;stroke-linecap:butt;stroke-linejoin:miter;stroke-opacity:1"/>
<path class="bond-9 atom-4 atom-10" d="M 431.7,160.7 L 439.5,165.2" style="fill:none;fill-rule:evenodd;stroke:#000000;stroke-width:2.0px;stroke-linecap:butt;stroke-linejoin:miter;stroke-opacity:1"/>
<path class="bond-9 atom-4 atom-10" d="M 424.1,161.2 L 429.6,164.3" style="fill:none;fill-rule:evenodd;stroke:#0000FF;stroke-width:2.0px;stroke-linecap:butt;stroke-linejoin:miter;stroke-opacity:1"/>
<path class="bond-9 atom-4 atom-10" d="M 429.6,164.3 L 435.1,167.5" style="fill:none;fill-rule:evenodd;stroke:#000000;stroke-width:2.0px;stroke-linecap:butt;stroke-linejoin:miter;stroke-opacity:1"/>
<path class="bond-10 atom-5 atom-6" d="M 358.8,188.6 L 379.0,200.3" style="fill:none;fill-rule:evenodd;stroke:#000000;stroke-width:2.0px;stroke-linecap:butt;stroke-linejoin:miter;stroke-opacity:1"/>
<path class="bond-11 atom-5 atom-24" d="M 358.8,188.6 L 343.2,197.6" style="fill:none;fill-rule:evenodd;stroke:#000000;stroke-width:2.0px;stroke-linecap:butt;stroke-linejoin:miter;stroke-opacity:1"/>
<path class="bond-12 atom-6 atom-25" d="M 379.0,200.3 L 379.0,217.9" style="fill:none;fill-rule:evenodd;stroke:#000000;stroke-width:2.0px;stroke-linecap:butt;stroke-linejoin:miter;stroke-opacity:1"/>
<path class="bond-13 atom-7 atom-8" d="M 419.4,200.3 L 427.2,195.7" style="fill:none;fill-rule:evenodd;stroke:#000000;stroke-width:2.0px;stroke-linecap:butt;stroke-linejoin:miter;stroke-opacity:1"/>
<path class="bond-13 atom-7 atom-8" d="M 427.2,195.7 L 435.1,191.2" style="fill:none;fill-rule:evenodd;stroke:#0000FF;stroke-width:2.0px;stroke-linecap:butt;stroke-linejoin:miter;stroke-opacity:1"/>
<path class="bond-14 atom-7 atom-9" d="M 421.5,200.3 L 421.5,209.1" style="fill:none;fill-rule:evenodd;stroke:#000000;stroke-width:2.0px;stroke-linecap:butt;stroke-linejoin:miter;stroke-opacity:1"/>
<path class="bond-14 atom-7 atom-9" d="M 421.5,209.1 L 421.5,217.8" style="fill:none;fill-rule:evenodd;stroke:#FF0000;stroke-width:2.0px;stroke-linecap:butt;stroke-linejoin:miter;stroke-opacity:1"/>
<path class="bond-14 atom-7 atom-9" d="M 417.3,200.3 L 417.3,209.1" style="fill:none;fill-rule:evenodd;stroke:#000000;stroke-width:2.0px;stroke-linecap:butt;stroke-linejoin:miter;stroke-opacity:1"/>
<path class="bond-14 atom-7 atom-9" d="M 417.3,209.1 L 417.3,217.8" style="fill:none;fill-rule:evenodd;stroke:#FF0000;stroke-width:2.0px;stroke-linecap:butt;stroke-linejoin:miter;stroke-opacity:1"/>
<path class="bond-15 atom-8 atom-10" d="M 439.6,182.8 L 439.6,174.0" style="fill:none;fill-rule:evenodd;stroke:#0000FF;stroke-width:2.0px;stroke-linecap:butt;stroke-linejoin:miter;stroke-opacity:1"/>
<path class="bond-15 atom-8 atom-10" d="M 439.6,174.0 L 439.5,165.2" style="fill:none;fill-rule:evenodd;stroke:#000000;stroke-width:2.0px;stroke-linecap:butt;stroke-linejoin:miter;stroke-opacity:1"/>
<path class="bond-16 atom-8 atom-26" d="M 444.1,191.2 L 449.7,194.4" style="fill:none;fill-rule:evenodd;stroke:#0000FF;stroke-width:2.0px;stroke-linecap:butt;stroke-linejoin:miter;stroke-opacity:1"/>
<path class="bond-16 atom-8 atom-26" d="M 449.7,194.4 L 455.2,197.5" style="fill:none;fill-rule:evenodd;stroke:#000000;stroke-width:2.0px;stroke-linecap:butt;stroke-linejoin:miter;stroke-opacity:1"/>
<path class="bond-17 atom-10 atom-11" d="M 439.5,165.2 L 455.7,154.4" style="fill:none;fill-rule:evenodd;stroke:#000000;stroke-width:2.0px;stroke-linecap:butt;stroke-linejoin:miter;stroke-opacity:1"/>
<path class="bond-18 atom-11 atom-12" d="M 455.7,154.4 L 454.4,131.1" style="fill:none;fill-rule:evenodd;stroke:#000000;stroke-width:2.0px;stroke-linecap:butt;stroke-linejoin:miter;stroke-opacity:1"/>
<path class="bond-18 atom-11 atom-12" d="M 459.7,150.7 L 458.8,134.4" style="fill:none;fill-rule:evenodd;stroke:#000000;stroke-width:2.0px;stroke-linecap:butt;stroke-linejoin:miter;stroke-opacity:1"/>
<path class="bond-19 atom-11 atom-16" d="M 455.7,154.4 L 476.5,165.1" style="fill:none;fill-rule:evenodd;stroke:#000000;stroke-width:2.0px;stroke-linecap:butt;stroke-linejoin:miter;stroke-opacity:1"/>
<path class="bond-20 atom-12 atom-13" d="M 454.4,131.1 L 474.0,118.4" style="fill:none;fill-rule:evenodd;stroke:#000000;stroke-width:2.0px;stroke-linecap:butt;stroke-linejoin:miter;stroke-opacity:1"/>
<path class="bond-21 atom-12 atom-27" d="M 454.4,131.1 L 438.2,123.0" style="fill:none;fill-rule:evenodd;stroke:#000000;stroke-width:2.0px;stroke-linecap:butt;stroke-linejoin:miter;stroke-opacity:1"/>
<path class="bond-22 atom-13 atom-14" d="M 474.0,118.4 L 494.9,129.1" style="fill:none;fill-rule:evenodd;stroke:#000000;stroke-width:2.0px;stroke-linecap:butt;stroke-linejoin:miter;stroke-opacity:1"/>
<path class="bond-22 atom-13 atom-14" d="M 475.3,123.7 L 489.9,131.2" style="fill:none;fill-rule:evenodd;stroke:#000000;stroke-width:2.0px;stroke-linecap:butt;stroke-linejoin:miter;stroke-opacity:1"/>
<path class="bond-23 atom-13 atom-28" d="M 474.0,118.4 L 472.3,100.5" style="fill:none;fill-rule:evenodd;stroke:#000000;stroke-width:2.0px;stroke-linecap:butt;stroke-linejoin:miter;stroke-opacity:1"/>
<path class="bond-24 atom-14 atom-15" d="M 494.9,129.1 L 496.1,152.4" style="fill:none;fill-rule:evenodd;stroke:#000000;stroke-width:2.0px;stroke-linecap:butt;stroke-linejoin:miter;stroke-opacity:1"/>
<path class="bond-25 atom-14 atom-17" d="M 494.9,129.1 L 519.2,117.1" style="fill:none;fill-rule:evenodd;stroke:#000000;stroke-width:2.0px;stroke-linecap:butt;stroke-linejoin:miter;stroke-opacity:1"/>
<path class="bond-26 atom-15 atom-16" d="M 496.1,152.4 L 476.5,165.1" style="fill:none;fill-rule:evenodd;stroke:#000000;stroke-width:2.0px;stroke-linecap:butt;stroke-linejoin:miter;stroke-opacity:1"/>
<path class="bond-26 atom-15 atom-16" d="M 490.9,150.8 L 477.2,159.7" style="fill:none;fill-rule:evenodd;stroke:#000000;stroke-width:2.0px;stroke-linecap:butt;stroke-linejoin:miter;stroke-opacity:1"/>
<path class="bond-27 atom-15 atom-29" d="M 496.1,152.4 L 513.5,162.5" style="fill:none;fill-rule:evenodd;stroke:#000000;stroke-width:2.0px;stroke-linecap:butt;stroke-linejoin:miter;stroke-opacity:1"/>
<path class="bond-28 atom-16 atom-30" d="M 476.5,165.1 L 477.5,182.6" style="fill:none;fill-rule:evenodd;stroke:#000000;stroke-width:2.0px;stroke-linecap:butt;stroke-linejoin:miter;stroke-opacity:1"/>
<path class="bond-29 atom-17 atom-18" d="M 519.2,117.1 L 516.3,110.8" style="fill:none;fill-rule:evenodd;stroke:#000000;stroke-width:2.0px;stroke-linecap:butt;stroke-linejoin:miter;stroke-opacity:1"/>
<path class="bond-29 atom-17 atom-18" d="M 516.3,110.8 L 513.4,104.4" style="fill:none;fill-rule:evenodd;stroke:#FF0000;stroke-width:2.0px;stroke-linecap:butt;stroke-linejoin:miter;stroke-opacity:1"/>
<path class="bond-30 atom-17 atom-19" d="M 519.2,117.1 L 531.5,96.3" style="fill:none;fill-rule:evenodd;stroke:#000000;stroke-width:2.0px;stroke-linecap:butt;stroke-linejoin:miter;stroke-opacity:1"/>
<path class="bond-31 atom-17 atom-20" d="M 519.2,117.1 L 539.7,131.2" style="fill:none;fill-rule:evenodd;stroke:#000000;stroke-width:2.0px;stroke-linecap:butt;stroke-linejoin:miter;stroke-opacity:1"/>
<path class="bond-32 atom-18 atom-31" d="M 505.3,98.4 L 500.4,98.3" style="fill:none;fill-rule:evenodd;stroke:#FF0000;stroke-width:2.0px;stroke-linecap:butt;stroke-linejoin:miter;stroke-opacity:1"/>
<path class="bond-32 atom-18 atom-31" d="M 500.4,98.3 L 495.4,98.3" style="fill:none;fill-rule:evenodd;stroke:#000000;stroke-width:2.0px;stroke-linecap:butt;stroke-linejoin:miter;stroke-opacity:1"/>
<path class="bond-33 atom-19 atom-32" d="M 531.5,96.3 L 546.5,104.1" style="fill:none;fill-rule:evenodd;stroke:#000000;stroke-width:2.0px;stroke-linecap:butt;stroke-linejoin:miter;stroke-opacity:1"/>
<path class="bond-34 atom-19 atom-33" d="M 531.5,96.3 L 546.7,87.0" style="fill:none;fill-rule:evenodd;stroke:#000000;stroke-width:2.0px;stroke-linecap:butt;stroke-linejoin:miter;stroke-opacity:1"/>
<path class="bond-35 atom-19 atom-34" d="M 531.5,96.3 L 523.0,81.9" style="fill:none;fill-rule:evenodd;stroke:#000000;stroke-width:2.0px;stroke-linecap:butt;stroke-linejoin:miter;stroke-opacity:1"/>
<path class="bond-36 atom-20 atom-35" d="M 539.7,131.2 L 531.1,142.9" style="fill:none;fill-rule:evenodd;stroke:#000000;stroke-width:2.0px;stroke-linecap:butt;stroke-linejoin:miter;stroke-opacity:1"/>
<path class="bond-37 atom-20 atom-36" d="M 539.7,131.2 L 546.5,147.0" style="fill:none;fill-rule:evenodd;stroke:#000000;stroke-width:2.0px;stroke-linecap:butt;stroke-linejoin:miter;stroke-opacity:1"/>
<path class="bond-38 atom-20 atom-37" d="M 539.7,131.2 L 556.8,124.4" style="fill:none;fill-rule:evenodd;stroke:#000000;stroke-width:2.0px;stroke-linecap:butt;stroke-linejoin:miter;stroke-opacity:1"/>
<path class="bond-39 atom-21 atom-22" d="M 373.7,127.2 L 366.2,122.9" style="fill:none;fill-rule:evenodd;stroke:#FF0000;stroke-width:2.0px;stroke-linecap:butt;stroke-linejoin:miter;stroke-opacity:1"/>
<path class="bond-39 atom-21 atom-22" d="M 366.2,122.9 L 358.8,118.6" style="fill:none;fill-rule:evenodd;stroke:#000000;stroke-width:2.0px;stroke-linecap:butt;stroke-linejoin:miter;stroke-opacity:1"/>
<path class="bond-40 atom-22 atom-38" d="M 358.8,118.6 L 367.1,104.1" style="fill:none;fill-rule:evenodd;stroke:#000000;stroke-width:2.0px;stroke-linecap:butt;stroke-linejoin:miter;stroke-opacity:1"/>
<path class="bond-41 atom-22 atom-39" d="M 358.8,118.6 L 350.4,104.1" style="fill:none;fill-rule:evenodd;stroke:#000000;stroke-width:2.0px;stroke-linecap:butt;stroke-linejoin:miter;stroke-opacity:1"/>
<path class="bond-42 atom-22 atom-40" d="M 358.8,118.6 L 343.2,127.6" style="fill:none;fill-rule:evenodd;stroke:#000000;stroke-width:2.0px;stroke-linecap:butt;stroke-linejoin:miter;stroke-opacity:1"/>
<path class="atom-4" d="M 417.2 148.6 L 420.4 153.9 Q 420.7 154.4, 421.3 155.3 Q 421.8 156.2, 421.8 156.3 L 421.8 148.6 L 423.1 148.6 L 423.1 158.5 L 421.8 158.5 L 418.3 152.8 Q 417.9 152.1, 417.4 151.3 Q 417.0 150.6, 416.9 150.3 L 416.9 158.5 L 415.6 158.5 L 415.6 148.6 L 417.2 148.6 " fill="#0000FF"/>
<path class="atom-8" d="M 437.4 183.6 L 440.7 188.9 Q 441.0 189.4, 441.5 190.3 Q 442.0 191.3, 442.1 191.3 L 442.1 183.6 L 443.4 183.6 L 443.4 193.5 L 442.0 193.5 L 438.5 187.8 Q 438.1 187.1, 437.7 186.3 Q 437.3 185.6, 437.1 185.3 L 437.1 193.5 L 435.9 193.5 L 435.9 183.6 L 437.4 183.6 " fill="#0000FF"/>
<path class="atom-9" d="M 414.8 223.6 Q 414.8 221.3, 416.0 219.9 Q 417.2 218.6, 419.4 218.6 Q 421.6 218.6, 422.8 219.9 Q 423.9 221.3, 423.9 223.6 Q 423.9 226.0, 422.7 227.4 Q 421.6 228.8, 419.4 228.8 Q 417.2 228.8, 416.0 227.4 Q 414.8 226.1, 414.8 223.6 M 419.4 227.7 Q 420.9 227.7, 421.7 226.6 Q 422.5 225.6, 422.5 223.6 Q 422.5 221.7, 421.7 220.7 Q 420.9 219.7, 419.4 219.7 Q 417.9 219.7, 417.0 220.7 Q 416.2 221.7, 416.2 223.6 Q 416.2 225.6, 417.0 226.6 Q 417.9 227.7, 419.4 227.7 " fill="#FF0000"/>
<path class="atom-18" d="M 506.1 98.5 Q 506.1 96.1, 507.3 94.8 Q 508.5 93.5, 510.7 93.5 Q 512.9 93.5, 514.0 94.8 Q 515.2 96.1, 515.2 98.5 Q 515.2 100.9, 514.0 102.3 Q 512.8 103.6, 510.7 103.6 Q 508.5 103.6, 507.3 102.3 Q 506.1 100.9, 506.1 98.5 M 510.7 102.5 Q 512.2 102.5, 513.0 101.5 Q 513.8 100.5, 513.8 98.5 Q 513.8 96.6, 513.0 95.6 Q 512.2 94.6, 510.7 94.6 Q 509.1 94.6, 508.3 95.6 Q 507.5 96.6, 507.5 98.5 Q 507.5 100.5, 508.3 101.5 Q 509.1 102.5, 510.7 102.5 " fill="#FF0000"/>
<path class="atom-21" d="M 374.4 130.3 Q 374.4 127.9, 375.6 126.6 Q 376.8 125.3, 379.0 125.3 Q 381.2 125.3, 382.3 126.6 Q 383.5 127.9, 383.5 130.3 Q 383.5 132.7, 382.3 134.1 Q 381.1 135.4, 379.0 135.4 Q 376.8 135.4, 375.6 134.1 Q 374.4 132.7, 374.4 130.3 M 379.0 134.3 Q 380.5 134.3, 381.3 133.3 Q 382.1 132.3, 382.1 130.3 Q 382.1 128.4, 381.3 127.4 Q 380.5 126.4, 379.0 126.4 Q 377.5 126.4, 376.6 127.4 Q 375.8 128.3, 375.8 130.3 Q 375.8 132.3, 376.6 133.3 Q 377.5 134.3, 379.0 134.3 " fill="#FF0000"/>
<path class="atom-23" d="M 334.7 148.7 L 336.0 148.7 L 336.0 152.9 L 341.1 152.9 L 341.1 148.7 L 342.4 148.7 L 342.4 158.6 L 341.1 158.6 L 341.1 154.0 L 336.0 154.0 L 336.0 158.6 L 334.7 158.6 L 334.7 148.7 " fill="#000000"/>
<path class="atom-24" d="M 334.7 195.3 L 336.0 195.3 L 336.0 199.6 L 341.1 199.6 L 341.1 195.3 L 342.4 195.3 L 342.4 205.3 L 341.1 205.3 L 341.1 200.7 L 336.0 200.7 L 336.0 205.3 L 334.7 205.3 L 334.7 195.3 " fill="#000000"/>
<path class="atom-25" d="M 375.1 218.7 L 376.4 218.7 L 376.4 222.9 L 381.5 222.9 L 381.5 218.7 L 382.9 218.7 L 382.9 228.6 L 381.5 228.6 L 381.5 224.0 L 376.4 224.0 L 376.4 228.6 L 375.1 228.6 L 375.1 218.7 " fill="#000000"/>
<path class="atom-26" d="M 455.9 195.3 L 457.3 195.3 L 457.3 199.5 L 462.4 199.5 L 462.4 195.3 L 463.7 195.3 L 463.7 205.2 L 462.4 205.2 L 462.4 200.6 L 457.3 200.6 L 457.3 205.2 L 455.9 205.2 L 455.9 195.3 " fill="#000000"/>
<path class="atom-27" d="M 429.7 115.7 L 431.1 115.7 L 431.1 119.9 L 436.1 119.9 L 436.1 115.7 L 437.5 115.7 L 437.5 125.6 L 436.1 125.6 L 436.1 121.0 L 431.1 121.0 L 431.1 125.6 L 429.7 125.6 L 429.7 115.7 " fill="#000000"/>
<path class="atom-28" d="M 467.9 89.9 L 469.2 89.9 L 469.2 94.1 L 474.3 94.1 L 474.3 89.9 L 475.6 89.9 L 475.6 99.8 L 474.3 99.8 L 474.3 95.2 L 469.2 95.2 L 469.2 99.8 L 467.9 99.8 L 467.9 89.9 " fill="#000000"/>
<path class="atom-29" d="M 514.3 160.3 L 515.7 160.3 L 515.7 164.5 L 520.7 164.5 L 520.7 160.3 L 522.1 160.3 L 522.1 170.2 L 520.7 170.2 L 520.7 165.6 L 515.7 165.6 L 515.7 170.2 L 514.3 170.2 L 514.3 160.3 " fill="#000000"/>
<path class="atom-30" d="M 474.0 183.4 L 475.3 183.4 L 475.3 187.6 L 480.4 187.6 L 480.4 183.4 L 481.7 183.4 L 481.7 193.3 L 480.4 193.3 L 480.4 188.7 L 475.3 188.7 L 475.3 193.3 L 474.0 193.3 L 474.0 183.4 " fill="#000000"/>
<path class="atom-31" d="M 486.9 93.2 L 488.2 93.2 L 488.2 97.4 L 493.3 97.4 L 493.3 93.2 L 494.7 93.2 L 494.7 103.1 L 493.3 103.1 L 493.3 98.6 L 488.2 98.6 L 488.2 103.1 L 486.9 103.1 L 486.9 93.2 " fill="#000000"/>
<path class="atom-32" d="M 547.2 101.6 L 548.6 101.6 L 548.6 105.8 L 553.6 105.8 L 553.6 101.6 L 555.0 101.6 L 555.0 111.5 L 553.6 111.5 L 553.6 106.9 L 548.6 106.9 L 548.6 111.5 L 547.2 111.5 L 547.2 101.6 " fill="#000000"/>
<path class="atom-33" d="M 547.5 79.2 L 548.9 79.2 L 548.9 83.5 L 553.9 83.5 L 553.9 79.2 L 555.3 79.2 L 555.3 89.1 L 553.9 89.1 L 553.9 84.6 L 548.9 84.6 L 548.9 89.1 L 547.5 89.1 L 547.5 79.2 " fill="#000000"/>
<path class="atom-34" d="M 515.8 71.2 L 517.1 71.2 L 517.1 75.4 L 522.2 75.4 L 522.2 71.2 L 523.5 71.2 L 523.5 81.1 L 522.2 81.1 L 522.2 76.6 L 517.1 76.6 L 517.1 81.1 L 515.8 81.1 L 515.8 71.2 " fill="#000000"/>
<path class="atom-35" d="M 523.0 143.7 L 524.3 143.7 L 524.3 147.9 L 529.4 147.9 L 529.4 143.7 L 530.7 143.7 L 530.7 153.6 L 529.4 153.6 L 529.4 149.0 L 524.3 149.0 L 524.3 153.6 L 523.0 153.6 L 523.0 143.7 " fill="#000000"/>
<path class="atom-36" d="M 545.1 147.8 L 546.4 147.8 L 546.4 152.0 L 551.5 152.0 L 551.5 147.8 L 552.8 147.8 L 552.8 157.7 L 551.5 157.7 L 551.5 153.1 L 546.4 153.1 L 546.4 157.7 L 545.1 157.7 L 545.1 147.8 " fill="#000000"/>
<path class="atom-37" d="M 557.6 117.6 L 558.9 117.6 L 558.9 121.8 L 564.0 121.8 L 564.0 117.6 L 565.3 117.6 L 565.3 127.5 L 564.0 127.5 L 564.0 122.9 L 558.9 122.9 L 558.9 127.5 L 557.6 127.5 L 557.6 117.6 " fill="#000000"/>
<path class="atom-38" d="M 366.6 93.5 L 367.9 93.5 L 367.9 97.7 L 373.0 97.7 L 373.0 93.5 L 374.3 93.5 L 374.3 103.4 L 373.0 103.4 L 373.0 98.8 L 367.9 98.8 L 367.9 103.4 L 366.6 103.4 L 366.6 93.5 " fill="#000000"/>
<path class="atom-39" d="M 343.2 93.4 L 344.6 93.4 L 344.6 97.7 L 349.6 97.7 L 349.6 93.4 L 351.0 93.4 L 351.0 103.4 L 349.6 103.4 L 349.6 98.8 L 344.6 98.8 L 344.6 103.4 L 343.2 103.4 L 343.2 93.4 " fill="#000000"/>
<path class="atom-40" d="M 334.7 125.3 L 336.0 125.3 L 336.0 129.5 L 341.1 129.5 L 341.1 125.3 L 342.4 125.3 L 342.4 135.2 L 341.1 135.2 L 341.1 130.7 L 336.0 130.7 L 336.0 135.2 L 334.7 135.2 L 334.7 125.3 " fill="#000000"/>
<text x="300" y="20" font-size="20" font-family="sans-serif" font-weight="normal" letter-spacing="0" text-anchor="middle" fill="black">tnks2 5g -&gt; 5h </text><text x="150" y="285" font-size="15" font-family="sans-serif" font-weight="normal" letter-spacing="0" text-anchor="middle" fill="black">5g</text><text x="450" y="285" font-size="15" font-family="sans-serif" font-weight="normal" letter-spacing="0" text-anchor="middle" fill="black">5h</text></svg>
