<?xml version='1.0' encoding='ASCII' standalone='yes'?>
<svg xmlns="http://www.w3.org/2000/svg" xmlns:rdkit="http://www.rdkit.org/xml" xmlns:xlink="http://www.w3.org/1999/xlink" version="1.1" baseProfile="full" xml:space="preserve" width="600px" height="300px" viewBox="0 0 600 300">
<!-- END OF HEADER -->
<rect style="opacity:1.0;fill:#FFFFFF;stroke:none" width="600.0" height="300.0" x="0.0" y="0.0"> </rect>
<ellipse cx="167.0" cy="218.9" rx="7.8" ry="7.8" class="atom-21" style="fill:#DC3369;fill-rule:evenodd;stroke:#DC3369;stroke-width:1.0px;stroke-linecap:butt;stroke-linejoin:miter;stroke-opacity:1"/>
<ellipse cx="187.6" cy="112.2" rx="7.8" ry="7.8" class="atom-27" style="fill:#DC3369;fill-rule:evenodd;stroke:#DC3369;stroke-width:1.0px;stroke-linecap:butt;stroke-linejoin:miter;stroke-opacity:1"/>
<ellipse cx="82.1" cy="136.7" rx="7.8" ry="7.8" class="atom-31" style="fill:#DC3369;fill-rule:evenodd;stroke:#DC3369;stroke-width:1.0px;stroke-linecap:butt;stroke-linejoin:miter;stroke-opacity:1"/>
<ellipse cx="249.3" cy="218.9" rx="7.8" ry="7.8" class="atom-35" style="fill:#DC3369;fill-rule:evenodd;stroke:#DC3369;stroke-width:1.0px;stroke-linecap:butt;stroke-linejoin:miter;stroke-opacity:1"/>
<path class="bond-0 atom-0 atom-1" d="M 149.6,139.2 L 148.5,115.5" style="fill:none;fill-rule:evenodd;stroke:#000000;stroke-width:2.0px;stroke-linecap:butt;stroke-linejoin:miter;stroke-opacity:1"/>
<path class="bond-0 atom-0 atom-1" d="M 145.1,135.9 L 144.4,119.2" style="fill:none;fill-rule:evenodd;stroke:#000000;stroke-width:2.0px;stroke-linecap:butt;stroke-linejoin:miter;stroke-opacity:1"/>
<path class="bond-1 atom-0 atom-2" d="M 149.6,139.2 L 129.6,152.2" style="fill:none;fill-rule:evenodd;stroke:#000000;stroke-width:2.0px;stroke-linecap:butt;stroke-linejoin:miter;stroke-opacity:1"/>
<path class="bond-2 atom-0 atom-10" d="M 149.6,139.2 L 167.1,147.8" style="fill:none;fill-rule:evenodd;stroke:#000000;stroke-width:2.0px;stroke-linecap:butt;stroke-linejoin:miter;stroke-opacity:1"/>
<path class="bond-3 atom-1 atom-3" d="M 148.5,115.5 L 127.3,104.6" style="fill:none;fill-rule:evenodd;stroke:#000000;stroke-width:2.0px;stroke-linecap:butt;stroke-linejoin:miter;stroke-opacity:1"/>
<path class="bond-4 atom-1 atom-23" d="M 148.5,115.5 L 163.6,105.6" style="fill:none;fill-rule:evenodd;stroke:#000000;stroke-width:2.0px;stroke-linecap:butt;stroke-linejoin:miter;stroke-opacity:1"/>
<path class="bond-5 atom-2 atom-4" d="M 129.6,152.2 L 108.5,141.3" style="fill:none;fill-rule:evenodd;stroke:#000000;stroke-width:2.0px;stroke-linecap:butt;stroke-linejoin:miter;stroke-opacity:1"/>
<path class="bond-5 atom-2 atom-4" d="M 128.4,146.8 L 113.6,139.2" style="fill:none;fill-rule:evenodd;stroke:#000000;stroke-width:2.0px;stroke-linecap:butt;stroke-linejoin:miter;stroke-opacity:1"/>
<path class="bond-6 atom-2 atom-24" d="M 129.6,152.2 L 130.6,170.1" style="fill:none;fill-rule:evenodd;stroke:#000000;stroke-width:2.0px;stroke-linecap:butt;stroke-linejoin:miter;stroke-opacity:1"/>
<path class="bond-7 atom-3 atom-6" d="M 127.3,104.6 L 107.3,117.5" style="fill:none;fill-rule:evenodd;stroke:#000000;stroke-width:2.0px;stroke-linecap:butt;stroke-linejoin:miter;stroke-opacity:1"/>
<path class="bond-7 atom-3 atom-6" d="M 126.6,110.1 L 112.6,119.1" style="fill:none;fill-rule:evenodd;stroke:#000000;stroke-width:2.0px;stroke-linecap:butt;stroke-linejoin:miter;stroke-opacity:1"/>
<path class="bond-8 atom-3 atom-25" d="M 127.3,104.6 L 127.5,84.2" style="fill:none;fill-rule:evenodd;stroke:#000000;stroke-width:2.0px;stroke-linecap:butt;stroke-linejoin:miter;stroke-opacity:1"/>
<path class="bond-9 atom-4 atom-6" d="M 108.5,141.3 L 107.3,117.5" style="fill:none;fill-rule:evenodd;stroke:#000000;stroke-width:2.0px;stroke-linecap:butt;stroke-linejoin:miter;stroke-opacity:1"/>
<path class="bond-10 atom-4 atom-26" d="M 108.5,141.3 L 93.5,151.9" style="fill:none;fill-rule:evenodd;stroke:#000000;stroke-width:2.0px;stroke-linecap:butt;stroke-linejoin:miter;stroke-opacity:1"/>
<path class="bond-11 atom-5 atom-10" d="M 167.1,165.7 L 167.1,156.8" style="fill:none;fill-rule:evenodd;stroke:#0000FF;stroke-width:2.0px;stroke-linecap:butt;stroke-linejoin:miter;stroke-opacity:1"/>
<path class="bond-11 atom-5 atom-10" d="M 167.1,156.8 L 167.1,147.8" style="fill:none;fill-rule:evenodd;stroke:#000000;stroke-width:2.0px;stroke-linecap:butt;stroke-linejoin:miter;stroke-opacity:1"/>
<path class="bond-11 atom-5 atom-10" d="M 171.4,163.0 L 171.4,156.8" style="fill:none;fill-rule:evenodd;stroke:#0000FF;stroke-width:2.0px;stroke-linecap:butt;stroke-linejoin:miter;stroke-opacity:1"/>
<path class="bond-11 atom-5 atom-10" d="M 171.4,156.8 L 171.4,150.5" style="fill:none;fill-rule:evenodd;stroke:#000000;stroke-width:2.0px;stroke-linecap:butt;stroke-linejoin:miter;stroke-opacity:1"/>
<path class="bond-12 atom-5 atom-15" d="M 171.7,174.2 L 179.7,178.7" style="fill:none;fill-rule:evenodd;stroke:#0000FF;stroke-width:2.0px;stroke-linecap:butt;stroke-linejoin:miter;stroke-opacity:1"/>
<path class="bond-12 atom-5 atom-15" d="M 179.7,178.7 L 187.6,183.3" style="fill:none;fill-rule:evenodd;stroke:#000000;stroke-width:2.0px;stroke-linecap:butt;stroke-linejoin:miter;stroke-opacity:1"/>
<path class="bond-13 atom-6 atom-7" d="M 107.3,117.5 L 84.5,102.0" style="fill:none;fill-rule:evenodd;stroke:#000000;stroke-width:2.0px;stroke-linecap:butt;stroke-linejoin:miter;stroke-opacity:1"/>
<path class="bond-14 atom-7 atom-12" d="M 84.5,102.0 L 59.8,101.8" style="fill:none;fill-rule:evenodd;stroke:#000000;stroke-width:2.0px;stroke-linecap:butt;stroke-linejoin:miter;stroke-opacity:1"/>
<path class="bond-15 atom-7 atom-13" d="M 84.5,102.0 L 80.5,107.6" style="fill:none;fill-rule:evenodd;stroke:#000000;stroke-width:2.0px;stroke-linecap:butt;stroke-linejoin:miter;stroke-opacity:1"/>
<path class="bond-15 atom-7 atom-13" d="M 80.5,107.6 L 76.5,113.1" style="fill:none;fill-rule:evenodd;stroke:#FF0000;stroke-width:2.0px;stroke-linecap:butt;stroke-linejoin:miter;stroke-opacity:1"/>
<path class="bond-16 atom-7 atom-14" d="M 84.5,102.0 L 86.4,76.6" style="fill:none;fill-rule:evenodd;stroke:#000000;stroke-width:2.0px;stroke-linecap:butt;stroke-linejoin:miter;stroke-opacity:1"/>
<path class="bond-17 atom-8 atom-9" d="M 208.1,147.8 L 200.2,143.2" style="fill:none;fill-rule:evenodd;stroke:#000000;stroke-width:2.0px;stroke-linecap:butt;stroke-linejoin:miter;stroke-opacity:1"/>
<path class="bond-17 atom-8 atom-9" d="M 200.2,143.2 L 192.2,138.6" style="fill:none;fill-rule:evenodd;stroke:#0000FF;stroke-width:2.0px;stroke-linecap:butt;stroke-linejoin:miter;stroke-opacity:1"/>
<path class="bond-18 atom-8 atom-11" d="M 207.1,145.9 L 214.7,141.5" style="fill:none;fill-rule:evenodd;stroke:#000000;stroke-width:2.0px;stroke-linecap:butt;stroke-linejoin:miter;stroke-opacity:1"/>
<path class="bond-18 atom-8 atom-11" d="M 214.7,141.5 L 222.3,137.1" style="fill:none;fill-rule:evenodd;stroke:#FF0000;stroke-width:2.0px;stroke-linecap:butt;stroke-linejoin:miter;stroke-opacity:1"/>
<path class="bond-18 atom-8 atom-11" d="M 209.2,149.6 L 216.8,145.2" style="fill:none;fill-rule:evenodd;stroke:#000000;stroke-width:2.0px;stroke-linecap:butt;stroke-linejoin:miter;stroke-opacity:1"/>
<path class="bond-18 atom-8 atom-11" d="M 216.8,145.2 L 224.4,140.9" style="fill:none;fill-rule:evenodd;stroke:#FF0000;stroke-width:2.0px;stroke-linecap:butt;stroke-linejoin:miter;stroke-opacity:1"/>
<path class="bond-19 atom-8 atom-16" d="M 208.1,147.8 L 208.2,171.5" style="fill:none;fill-rule:evenodd;stroke:#000000;stroke-width:2.0px;stroke-linecap:butt;stroke-linejoin:miter;stroke-opacity:1"/>
<path class="bond-20 atom-9 atom-10" d="M 183.0,138.6 L 175.1,143.2" style="fill:none;fill-rule:evenodd;stroke:#0000FF;stroke-width:2.0px;stroke-linecap:butt;stroke-linejoin:miter;stroke-opacity:1"/>
<path class="bond-20 atom-9 atom-10" d="M 175.1,143.2 L 167.1,147.8" style="fill:none;fill-rule:evenodd;stroke:#000000;stroke-width:2.0px;stroke-linecap:butt;stroke-linejoin:miter;stroke-opacity:1"/>
<path class="bond-21 atom-9 atom-27" d="M 187.6,130.1 L 187.6,124.0" style="fill:none;fill-rule:evenodd;stroke:#0000FF;stroke-width:2.0px;stroke-linecap:butt;stroke-linejoin:miter;stroke-opacity:1"/>
<path class="bond-21 atom-9 atom-27" d="M 187.6,124.0 L 187.6,118.0" style="fill:none;fill-rule:evenodd;stroke:#000000;stroke-width:2.0px;stroke-linecap:butt;stroke-linejoin:miter;stroke-opacity:1"/>
<path class="bond-22 atom-12 atom-28" d="M 59.8,101.8 L 59.2,85.0" style="fill:none;fill-rule:evenodd;stroke:#000000;stroke-width:2.0px;stroke-linecap:butt;stroke-linejoin:miter;stroke-opacity:1"/>
<path class="bond-23 atom-12 atom-29" d="M 59.8,101.8 L 43.7,92.9" style="fill:none;fill-rule:evenodd;stroke:#000000;stroke-width:2.0px;stroke-linecap:butt;stroke-linejoin:miter;stroke-opacity:1"/>
<path class="bond-24 atom-12 atom-30" d="M 59.8,101.8 L 51.4,116.6" style="fill:none;fill-rule:evenodd;stroke:#000000;stroke-width:2.0px;stroke-linecap:butt;stroke-linejoin:miter;stroke-opacity:1"/>
<path class="bond-25 atom-13 atom-31" d="M 75.7,125.1 L 77.3,128.0" style="fill:none;fill-rule:evenodd;stroke:#FF0000;stroke-width:2.0px;stroke-linecap:butt;stroke-linejoin:miter;stroke-opacity:1"/>
<path class="bond-25 atom-13 atom-31" d="M 77.3,128.0 L 78.9,130.9" style="fill:none;fill-rule:evenodd;stroke:#000000;stroke-width:2.0px;stroke-linecap:butt;stroke-linejoin:miter;stroke-opacity:1"/>
<path class="bond-26 atom-14 atom-32" d="M 86.4,76.6 L 103.7,78.5" style="fill:none;fill-rule:evenodd;stroke:#000000;stroke-width:2.0px;stroke-linecap:butt;stroke-linejoin:miter;stroke-opacity:1"/>
<path class="bond-27 atom-14 atom-33" d="M 86.4,76.6 L 96.3,63.2" style="fill:none;fill-rule:evenodd;stroke:#000000;stroke-width:2.0px;stroke-linecap:butt;stroke-linejoin:miter;stroke-opacity:1"/>
<path class="bond-28 atom-14 atom-34" d="M 86.4,76.6 L 72.3,65.6" style="fill:none;fill-rule:evenodd;stroke:#000000;stroke-width:2.0px;stroke-linecap:butt;stroke-linejoin:miter;stroke-opacity:1"/>
<path class="bond-29 atom-15 atom-16" d="M 187.6,183.3 L 208.2,171.5" style="fill:none;fill-rule:evenodd;stroke:#000000;stroke-width:2.0px;stroke-linecap:butt;stroke-linejoin:miter;stroke-opacity:1"/>
<path class="bond-29 atom-15 atom-16" d="M 188.6,177.8 L 203.0,169.6" style="fill:none;fill-rule:evenodd;stroke:#000000;stroke-width:2.0px;stroke-linecap:butt;stroke-linejoin:miter;stroke-opacity:1"/>
<path class="bond-30 atom-15 atom-20" d="M 187.6,183.3 L 187.7,207.0" style="fill:none;fill-rule:evenodd;stroke:#000000;stroke-width:2.0px;stroke-linecap:butt;stroke-linejoin:miter;stroke-opacity:1"/>
<path class="bond-31 atom-16 atom-17" d="M 208.2,171.5 L 228.7,183.3" style="fill:none;fill-rule:evenodd;stroke:#000000;stroke-width:2.0px;stroke-linecap:butt;stroke-linejoin:miter;stroke-opacity:1"/>
<path class="bond-32 atom-17 atom-18" d="M 228.7,183.3 L 228.7,207.0" style="fill:none;fill-rule:evenodd;stroke:#000000;stroke-width:2.0px;stroke-linecap:butt;stroke-linejoin:miter;stroke-opacity:1"/>
<path class="bond-32 atom-17 atom-18" d="M 224.4,186.9 L 224.4,203.4" style="fill:none;fill-rule:evenodd;stroke:#000000;stroke-width:2.0px;stroke-linecap:butt;stroke-linejoin:miter;stroke-opacity:1"/>
<path class="bond-33 atom-17 atom-22" d="M 228.7,183.3 L 237.1,178.5" style="fill:none;fill-rule:evenodd;stroke:#000000;stroke-width:2.0px;stroke-linecap:butt;stroke-linejoin:miter;stroke-opacity:1"/>
<path class="bond-33 atom-17 atom-22" d="M 237.1,178.5 L 245.5,173.6" style="fill:none;fill-rule:evenodd;stroke:#33CCCC;stroke-width:2.0px;stroke-linecap:butt;stroke-linejoin:miter;stroke-opacity:1"/>
<path class="bond-34 atom-18 atom-19" d="M 228.7,207.0 L 208.1,218.9" style="fill:none;fill-rule:evenodd;stroke:#000000;stroke-width:2.0px;stroke-linecap:butt;stroke-linejoin:miter;stroke-opacity:1"/>
<path class="bond-35 atom-18 atom-35" d="M 228.7,207.0 L 244.5,216.2" style="fill:none;fill-rule:evenodd;stroke:#000000;stroke-width:2.0px;stroke-linecap:butt;stroke-linejoin:miter;stroke-opacity:1"/>
<path class="bond-36 atom-19 atom-20" d="M 208.1,218.9 L 187.7,207.0" style="fill:none;fill-rule:evenodd;stroke:#000000;stroke-width:2.0px;stroke-linecap:butt;stroke-linejoin:miter;stroke-opacity:1"/>
<path class="bond-36 atom-19 atom-20" d="M 207.2,213.4 L 192.9,205.1" style="fill:none;fill-rule:evenodd;stroke:#000000;stroke-width:2.0px;stroke-linecap:butt;stroke-linejoin:miter;stroke-opacity:1"/>
<path class="bond-37 atom-19 atom-36" d="M 208.1,218.9 L 208.1,236.8" style="fill:none;fill-rule:evenodd;stroke:#000000;stroke-width:2.0px;stroke-linecap:butt;stroke-linejoin:miter;stroke-opacity:1"/>
<path class="bond-38 atom-20 atom-21" d="M 187.7,207.0 L 179.2,211.9" style="fill:none;fill-rule:evenodd;stroke:#000000;stroke-width:2.0px;stroke-linecap:butt;stroke-linejoin:miter;stroke-opacity:1"/>
<path class="bond-38 atom-20 atom-21" d="M 179.2,211.9 L 170.8,216.7" style="fill:none;fill-rule:evenodd;stroke:#33CCCC;stroke-width:2.0px;stroke-linecap:butt;stroke-linejoin:miter;stroke-opacity:1"/>
<path class="atom-5" d="M 164.9 166.5 L 168.2 171.8 Q 168.5 172.3, 169.1 173.3 Q 169.6 174.3, 169.6 174.3 L 169.6 166.5 L 171.0 166.5 L 171.0 176.6 L 169.6 176.6 L 166.0 170.7 Q 165.6 170.0, 165.2 169.3 Q 164.7 168.5, 164.6 168.2 L 164.6 176.6 L 163.3 176.6 L 163.3 166.5 L 164.9 166.5 " fill="#0000FF"/>
<path class="atom-9" d="M 185.4 130.9 L 188.7 136.2 Q 189.0 136.8, 189.6 137.7 Q 190.1 138.7, 190.1 138.7 L 190.1 130.9 L 191.4 130.9 L 191.4 141.0 L 190.1 141.0 L 186.5 135.1 Q 186.1 134.4, 185.7 133.7 Q 185.2 132.9, 185.1 132.6 L 185.1 141.0 L 183.8 141.0 L 183.8 130.9 L 185.4 130.9 " fill="#0000FF"/>
<path class="atom-11" d="M 224.1 135.9 Q 224.1 133.5, 225.3 132.1 Q 226.5 130.8, 228.7 130.8 Q 231.0 130.8, 232.2 132.1 Q 233.4 133.5, 233.4 135.9 Q 233.4 138.4, 232.2 139.7 Q 231.0 141.1, 228.7 141.1 Q 226.5 141.1, 225.3 139.7 Q 224.1 138.4, 224.1 135.9 M 228.7 140.0 Q 230.3 140.0, 231.1 139.0 Q 232.0 137.9, 232.0 135.9 Q 232.0 133.9, 231.1 132.9 Q 230.3 131.9, 228.7 131.9 Q 227.2 131.9, 226.4 132.9 Q 225.5 133.9, 225.5 135.9 Q 225.5 137.9, 226.4 139.0 Q 227.2 140.0, 228.7 140.0 " fill="#FF0000"/>
<path class="atom-13" d="M 67.7 119.0 Q 67.7 116.6, 68.9 115.3 Q 70.1 113.9, 72.3 113.9 Q 74.6 113.9, 75.8 115.3 Q 77.0 116.6, 77.0 119.0 Q 77.0 121.5, 75.7 122.9 Q 74.5 124.3, 72.3 124.3 Q 70.1 124.3, 68.9 122.9 Q 67.7 121.5, 67.7 119.0 M 72.3 123.1 Q 73.9 123.1, 74.7 122.1 Q 75.5 121.1, 75.5 119.0 Q 75.5 117.1, 74.7 116.1 Q 73.9 115.0, 72.3 115.0 Q 70.8 115.0, 69.9 116.0 Q 69.1 117.0, 69.1 119.0 Q 69.1 121.1, 69.9 122.1 Q 70.8 123.1, 72.3 123.1 " fill="#FF0000"/>
<path class="atom-21" d="M 164.0 213.9 L 170.0 213.9 L 170.0 215.0 L 165.4 215.0 L 165.4 218.1 L 169.5 218.1 L 169.5 219.2 L 165.4 219.2 L 165.4 224.0 L 164.0 224.0 L 164.0 213.9 " fill="#33CCCC"/>
<path class="atom-22" d="M 246.3 166.4 L 252.3 166.4 L 252.3 167.6 L 247.6 167.6 L 247.6 170.6 L 251.8 170.6 L 251.8 171.8 L 247.6 171.8 L 247.6 176.5 L 246.3 176.5 L 246.3 166.4 " fill="#33CCCC"/>
<path class="atom-23" d="M 164.4 97.4 L 165.8 97.4 L 165.8 101.7 L 170.9 101.7 L 170.9 97.4 L 172.3 97.4 L 172.3 107.5 L 170.9 107.5 L 170.9 102.9 L 165.8 102.9 L 165.8 107.5 L 164.4 107.5 L 164.4 97.4 " fill="#000000"/>
<path class="atom-24" d="M 127.0 170.9 L 128.4 170.9 L 128.4 175.2 L 133.5 175.2 L 133.5 170.9 L 134.9 170.9 L 134.9 181.0 L 133.5 181.0 L 133.5 176.3 L 128.4 176.3 L 128.4 181.0 L 127.0 181.0 L 127.0 170.9 " fill="#000000"/>
<path class="atom-25" d="M 123.6 73.3 L 124.9 73.3 L 124.9 77.6 L 130.1 77.6 L 130.1 73.3 L 131.5 73.3 L 131.5 83.4 L 130.1 83.4 L 130.1 78.7 L 124.9 78.7 L 124.9 83.4 L 123.6 83.4 L 123.6 73.3 " fill="#000000"/>
<path class="atom-26" d="M 84.8 150.2 L 86.2 150.2 L 86.2 154.5 L 91.3 154.5 L 91.3 150.2 L 92.7 150.2 L 92.7 160.3 L 91.3 160.3 L 91.3 155.7 L 86.2 155.7 L 86.2 160.3 L 84.8 160.3 L 84.8 150.2 " fill="#000000"/>
<path class="atom-27" d="M 183.6 107.1 L 185.0 107.1 L 185.0 111.4 L 190.2 111.4 L 190.2 107.1 L 191.5 107.1 L 191.5 117.2 L 190.2 117.2 L 190.2 112.6 L 185.0 112.6 L 185.0 117.2 L 183.6 117.2 L 183.6 107.1 " fill="#000000"/>
<path class="atom-28" d="M 55.0 74.2 L 56.3 74.2 L 56.3 78.4 L 61.5 78.4 L 61.5 74.2 L 62.9 74.2 L 62.9 84.3 L 61.5 84.3 L 61.5 79.6 L 56.3 79.6 L 56.3 84.3 L 55.0 84.3 L 55.0 74.2 " fill="#000000"/>
<path class="atom-29" d="M 35.1 85.3 L 36.4 85.3 L 36.4 89.6 L 41.6 89.6 L 41.6 85.3 L 43.0 85.3 L 43.0 95.4 L 41.6 95.4 L 41.6 90.7 L 36.4 90.7 L 36.4 95.4 L 35.1 95.4 L 35.1 85.3 " fill="#000000"/>
<path class="atom-30" d="M 44.1 117.4 L 45.5 117.4 L 45.5 121.7 L 50.7 121.7 L 50.7 117.4 L 52.0 117.4 L 52.0 127.5 L 50.7 127.5 L 50.7 122.8 L 45.5 122.8 L 45.5 127.5 L 44.1 127.5 L 44.1 117.4 " fill="#000000"/>
<path class="atom-31" d="M 78.2 131.7 L 79.6 131.7 L 79.6 136.0 L 84.7 136.0 L 84.7 131.7 L 86.1 131.7 L 86.1 141.8 L 84.7 141.8 L 84.7 137.1 L 79.6 137.1 L 79.6 141.8 L 78.2 141.8 L 78.2 131.7 " fill="#000000"/>
<path class="atom-32" d="M 104.5 73.9 L 105.9 73.9 L 105.9 78.2 L 111.1 78.2 L 111.1 73.9 L 112.4 73.9 L 112.4 84.0 L 111.1 84.0 L 111.1 79.4 L 105.9 79.4 L 105.9 84.0 L 104.5 84.0 L 104.5 73.9 " fill="#000000"/>
<path class="atom-33" d="M 96.7 52.3 L 98.1 52.3 L 98.1 56.6 L 103.2 56.6 L 103.2 52.3 L 104.6 52.3 L 104.6 62.4 L 103.2 62.4 L 103.2 57.8 L 98.1 57.8 L 98.1 62.4 L 96.7 62.4 L 96.7 52.3 " fill="#000000"/>
<path class="atom-34" d="M 63.7 56.9 L 65.0 56.9 L 65.0 61.2 L 70.2 61.2 L 70.2 56.9 L 71.6 56.9 L 71.6 67.0 L 70.2 67.0 L 70.2 62.3 L 65.0 62.3 L 65.0 67.0 L 63.7 67.0 L 63.7 56.9 " fill="#000000"/>
<path class="atom-35" d="M 245.3 213.9 L 246.7 213.9 L 246.7 218.2 L 251.8 218.2 L 251.8 213.9 L 253.2 213.9 L 253.2 224.0 L 251.8 224.0 L 251.8 219.3 L 246.7 219.3 L 246.7 224.0 L 245.3 224.0 L 245.3 213.9 " fill="#000000"/>
<path class="atom-36" d="M 204.2 237.6 L 205.6 237.6 L 205.6 241.9 L 210.7 241.9 L 210.7 237.6 L 212.1 237.6 L 212.1 247.7 L 210.7 247.7 L 210.7 243.0 L 205.6 243.0 L 205.6 247.7 L 204.2 247.7 L 204.2 237.6 " fill="#000000"/>
<ellipse cx="549.7" cy="218.7" rx="7.8" ry="7.8" class="atom-19" style="fill:#DC3369;fill-rule:evenodd;stroke:#DC3369;stroke-width:1.0px;stroke-linecap:butt;stroke-linejoin:miter;stroke-opacity:1"/>
<ellipse cx="467.3" cy="218.9" rx="7.8" ry="7.8" class="atom-23" style="fill:#DC3369;fill-rule:evenodd;stroke:#DC3369;stroke-width:1.0px;stroke-linecap:butt;stroke-linejoin:miter;stroke-opacity:1"/>
<ellipse cx="487.6" cy="111.9" rx="7.8" ry="7.8" class="atom-25" style="fill:#DC3369;fill-rule:evenodd;stroke:#DC3369;stroke-width:1.0px;stroke-linecap:butt;stroke-linejoin:miter;stroke-opacity:1"/>
<ellipse cx="381.9" cy="136.9" rx="7.8" ry="7.8" class="atom-30" style="fill:#DC3369;fill-rule:evenodd;stroke:#DC3369;stroke-width:1.0px;stroke-linecap:butt;stroke-linejoin:miter;stroke-opacity:1"/>
<path class="bond-0 atom-0 atom-1" d="M 487.9,207.0 L 487.9,183.3" style="fill:none;fill-rule:evenodd;stroke:#000000;stroke-width:2.0px;stroke-linecap:butt;stroke-linejoin:miter;stroke-opacity:1"/>
<path class="bond-0 atom-0 atom-1" d="M 492.1,203.5 L 492.1,186.8" style="fill:none;fill-rule:evenodd;stroke:#000000;stroke-width:2.0px;stroke-linecap:butt;stroke-linejoin:miter;stroke-opacity:1"/>
<path class="bond-1 atom-0 atom-2" d="M 487.9,207.0 L 508.5,218.8" style="fill:none;fill-rule:evenodd;stroke:#000000;stroke-width:2.0px;stroke-linecap:butt;stroke-linejoin:miter;stroke-opacity:1"/>
<path class="bond-2 atom-0 atom-23" d="M 487.9,207.0 L 472.1,216.2" style="fill:none;fill-rule:evenodd;stroke:#000000;stroke-width:2.0px;stroke-linecap:butt;stroke-linejoin:miter;stroke-opacity:1"/>
<path class="bond-3 atom-1 atom-3" d="M 487.9,183.3 L 508.4,171.3" style="fill:none;fill-rule:evenodd;stroke:#000000;stroke-width:2.0px;stroke-linecap:butt;stroke-linejoin:miter;stroke-opacity:1"/>
<path class="bond-4 atom-1 atom-4" d="M 487.9,183.3 L 479.9,178.7" style="fill:none;fill-rule:evenodd;stroke:#000000;stroke-width:2.0px;stroke-linecap:butt;stroke-linejoin:miter;stroke-opacity:1"/>
<path class="bond-4 atom-1 atom-4" d="M 479.9,178.7 L 471.9,174.1" style="fill:none;fill-rule:evenodd;stroke:#0000FF;stroke-width:2.0px;stroke-linecap:butt;stroke-linejoin:miter;stroke-opacity:1"/>
<path class="bond-5 atom-2 atom-5" d="M 508.5,218.8 L 529.1,206.9" style="fill:none;fill-rule:evenodd;stroke:#000000;stroke-width:2.0px;stroke-linecap:butt;stroke-linejoin:miter;stroke-opacity:1"/>
<path class="bond-5 atom-2 atom-5" d="M 509.5,213.3 L 523.9,205.0" style="fill:none;fill-rule:evenodd;stroke:#000000;stroke-width:2.0px;stroke-linecap:butt;stroke-linejoin:miter;stroke-opacity:1"/>
<path class="bond-6 atom-2 atom-24" d="M 508.5,218.8 L 508.6,236.8" style="fill:none;fill-rule:evenodd;stroke:#000000;stroke-width:2.0px;stroke-linecap:butt;stroke-linejoin:miter;stroke-opacity:1"/>
<path class="bond-7 atom-3 atom-6" d="M 508.4,171.3 L 529.0,183.1" style="fill:none;fill-rule:evenodd;stroke:#000000;stroke-width:2.0px;stroke-linecap:butt;stroke-linejoin:miter;stroke-opacity:1"/>
<path class="bond-7 atom-3 atom-6" d="M 509.3,176.7 L 523.8,185.1" style="fill:none;fill-rule:evenodd;stroke:#000000;stroke-width:2.0px;stroke-linecap:butt;stroke-linejoin:miter;stroke-opacity:1"/>
<path class="bond-8 atom-3 atom-7" d="M 508.4,171.3 L 508.3,147.5" style="fill:none;fill-rule:evenodd;stroke:#000000;stroke-width:2.0px;stroke-linecap:butt;stroke-linejoin:miter;stroke-opacity:1"/>
<path class="bond-9 atom-4 atom-10" d="M 467.2,165.6 L 467.1,156.6" style="fill:none;fill-rule:evenodd;stroke:#0000FF;stroke-width:2.0px;stroke-linecap:butt;stroke-linejoin:miter;stroke-opacity:1"/>
<path class="bond-9 atom-4 atom-10" d="M 467.1,156.6 L 467.1,147.7" style="fill:none;fill-rule:evenodd;stroke:#000000;stroke-width:2.0px;stroke-linecap:butt;stroke-linejoin:miter;stroke-opacity:1"/>
<path class="bond-9 atom-4 atom-10" d="M 471.5,162.9 L 471.4,156.6" style="fill:none;fill-rule:evenodd;stroke:#0000FF;stroke-width:2.0px;stroke-linecap:butt;stroke-linejoin:miter;stroke-opacity:1"/>
<path class="bond-9 atom-4 atom-10" d="M 471.4,156.6 L 471.4,150.3" style="fill:none;fill-rule:evenodd;stroke:#000000;stroke-width:2.0px;stroke-linecap:butt;stroke-linejoin:miter;stroke-opacity:1"/>
<path class="bond-10 atom-5 atom-6" d="M 529.1,206.9 L 529.0,183.1" style="fill:none;fill-rule:evenodd;stroke:#000000;stroke-width:2.0px;stroke-linecap:butt;stroke-linejoin:miter;stroke-opacity:1"/>
<path class="bond-11 atom-5 atom-19" d="M 529.1,206.9 L 537.5,211.7" style="fill:none;fill-rule:evenodd;stroke:#000000;stroke-width:2.0px;stroke-linecap:butt;stroke-linejoin:miter;stroke-opacity:1"/>
<path class="bond-11 atom-5 atom-19" d="M 537.5,211.7 L 545.9,216.6" style="fill:none;fill-rule:evenodd;stroke:#33CCCC;stroke-width:2.0px;stroke-linecap:butt;stroke-linejoin:miter;stroke-opacity:1"/>
<path class="bond-12 atom-6 atom-20" d="M 529.0,183.1 L 537.4,178.3" style="fill:none;fill-rule:evenodd;stroke:#000000;stroke-width:2.0px;stroke-linecap:butt;stroke-linejoin:miter;stroke-opacity:1"/>
<path class="bond-12 atom-6 atom-20" d="M 537.4,178.3 L 545.8,173.4" style="fill:none;fill-rule:evenodd;stroke:#33CCCC;stroke-width:2.0px;stroke-linecap:butt;stroke-linejoin:miter;stroke-opacity:1"/>
<path class="bond-13 atom-7 atom-8" d="M 508.3,147.5 L 500.3,142.9" style="fill:none;fill-rule:evenodd;stroke:#000000;stroke-width:2.0px;stroke-linecap:butt;stroke-linejoin:miter;stroke-opacity:1"/>
<path class="bond-13 atom-7 atom-8" d="M 500.3,142.9 L 492.3,138.4" style="fill:none;fill-rule:evenodd;stroke:#0000FF;stroke-width:2.0px;stroke-linecap:butt;stroke-linejoin:miter;stroke-opacity:1"/>
<path class="bond-14 atom-7 atom-9" d="M 507.3,145.6 L 514.8,141.2" style="fill:none;fill-rule:evenodd;stroke:#000000;stroke-width:2.0px;stroke-linecap:butt;stroke-linejoin:miter;stroke-opacity:1"/>
<path class="bond-14 atom-7 atom-9" d="M 514.8,141.2 L 522.4,136.8" style="fill:none;fill-rule:evenodd;stroke:#FF0000;stroke-width:2.0px;stroke-linecap:butt;stroke-linejoin:miter;stroke-opacity:1"/>
<path class="bond-14 atom-7 atom-9" d="M 509.4,149.3 L 517.0,144.9" style="fill:none;fill-rule:evenodd;stroke:#000000;stroke-width:2.0px;stroke-linecap:butt;stroke-linejoin:miter;stroke-opacity:1"/>
<path class="bond-14 atom-7 atom-9" d="M 517.0,144.9 L 524.5,140.5" style="fill:none;fill-rule:evenodd;stroke:#FF0000;stroke-width:2.0px;stroke-linecap:butt;stroke-linejoin:miter;stroke-opacity:1"/>
<path class="bond-15 atom-8 atom-10" d="M 483.1,138.4 L 475.1,143.0" style="fill:none;fill-rule:evenodd;stroke:#0000FF;stroke-width:2.0px;stroke-linecap:butt;stroke-linejoin:miter;stroke-opacity:1"/>
<path class="bond-15 atom-8 atom-10" d="M 475.1,143.0 L 467.1,147.7" style="fill:none;fill-rule:evenodd;stroke:#000000;stroke-width:2.0px;stroke-linecap:butt;stroke-linejoin:miter;stroke-opacity:1"/>
<path class="bond-16 atom-8 atom-25" d="M 487.6,129.9 L 487.6,123.8" style="fill:none;fill-rule:evenodd;stroke:#0000FF;stroke-width:2.0px;stroke-linecap:butt;stroke-linejoin:miter;stroke-opacity:1"/>
<path class="bond-16 atom-8 atom-25" d="M 487.6,123.8 L 487.6,117.8" style="fill:none;fill-rule:evenodd;stroke:#000000;stroke-width:2.0px;stroke-linecap:butt;stroke-linejoin:miter;stroke-opacity:1"/>
<path class="bond-17 atom-10 atom-11" d="M 467.1,147.7 L 449.4,139.0" style="fill:none;fill-rule:evenodd;stroke:#000000;stroke-width:2.0px;stroke-linecap:butt;stroke-linejoin:miter;stroke-opacity:1"/>
<path class="bond-18 atom-11 atom-12" d="M 449.4,139.0 L 448.1,115.3" style="fill:none;fill-rule:evenodd;stroke:#000000;stroke-width:2.0px;stroke-linecap:butt;stroke-linejoin:miter;stroke-opacity:1"/>
<path class="bond-18 atom-11 atom-12" d="M 444.9,135.7 L 444.0,119.0" style="fill:none;fill-rule:evenodd;stroke:#000000;stroke-width:2.0px;stroke-linecap:butt;stroke-linejoin:miter;stroke-opacity:1"/>
<path class="bond-19 atom-11 atom-16" d="M 449.4,139.0 L 429.4,152.1" style="fill:none;fill-rule:evenodd;stroke:#000000;stroke-width:2.0px;stroke-linecap:butt;stroke-linejoin:miter;stroke-opacity:1"/>
<path class="bond-20 atom-12 atom-13" d="M 448.1,115.3 L 426.9,104.5" style="fill:none;fill-rule:evenodd;stroke:#000000;stroke-width:2.0px;stroke-linecap:butt;stroke-linejoin:miter;stroke-opacity:1"/>
<path class="bond-21 atom-12 atom-26" d="M 448.1,115.3 L 463.2,105.3" style="fill:none;fill-rule:evenodd;stroke:#000000;stroke-width:2.0px;stroke-linecap:butt;stroke-linejoin:miter;stroke-opacity:1"/>
<path class="bond-22 atom-13 atom-14" d="M 426.9,104.5 L 406.9,117.5" style="fill:none;fill-rule:evenodd;stroke:#000000;stroke-width:2.0px;stroke-linecap:butt;stroke-linejoin:miter;stroke-opacity:1"/>
<path class="bond-22 atom-13 atom-14" d="M 426.3,110.0 L 412.3,119.1" style="fill:none;fill-rule:evenodd;stroke:#000000;stroke-width:2.0px;stroke-linecap:butt;stroke-linejoin:miter;stroke-opacity:1"/>
<path class="bond-23 atom-13 atom-27" d="M 426.9,104.5 L 427.0,84.1" style="fill:none;fill-rule:evenodd;stroke:#000000;stroke-width:2.0px;stroke-linecap:butt;stroke-linejoin:miter;stroke-opacity:1"/>
<path class="bond-24 atom-14 atom-15" d="M 406.9,117.5 L 408.2,141.3" style="fill:none;fill-rule:evenodd;stroke:#000000;stroke-width:2.0px;stroke-linecap:butt;stroke-linejoin:miter;stroke-opacity:1"/>
<path class="bond-25 atom-14 atom-17" d="M 406.9,117.5 L 384.1,102.1" style="fill:none;fill-rule:evenodd;stroke:#000000;stroke-width:2.0px;stroke-linecap:butt;stroke-linejoin:miter;stroke-opacity:1"/>
<path class="bond-26 atom-15 atom-16" d="M 408.2,141.3 L 429.4,152.1" style="fill:none;fill-rule:evenodd;stroke:#000000;stroke-width:2.0px;stroke-linecap:butt;stroke-linejoin:miter;stroke-opacity:1"/>
<path class="bond-26 atom-15 atom-16" d="M 413.4,139.1 L 428.2,146.7" style="fill:none;fill-rule:evenodd;stroke:#000000;stroke-width:2.0px;stroke-linecap:butt;stroke-linejoin:miter;stroke-opacity:1"/>
<path class="bond-27 atom-15 atom-28" d="M 408.2,141.3 L 393.3,152.0" style="fill:none;fill-rule:evenodd;stroke:#000000;stroke-width:2.0px;stroke-linecap:butt;stroke-linejoin:miter;stroke-opacity:1"/>
<path class="bond-28 atom-16 atom-29" d="M 429.4,152.1 L 430.5,170.0" style="fill:none;fill-rule:evenodd;stroke:#000000;stroke-width:2.0px;stroke-linecap:butt;stroke-linejoin:miter;stroke-opacity:1"/>
<path class="bond-29 atom-17 atom-18" d="M 384.1,102.1 L 380.1,107.7" style="fill:none;fill-rule:evenodd;stroke:#000000;stroke-width:2.0px;stroke-linecap:butt;stroke-linejoin:miter;stroke-opacity:1"/>
<path class="bond-29 atom-17 atom-18" d="M 380.1,107.7 L 376.2,113.3" style="fill:none;fill-rule:evenodd;stroke:#FF0000;stroke-width:2.0px;stroke-linecap:butt;stroke-linejoin:miter;stroke-opacity:1"/>
<path class="bond-30 atom-17 atom-21" d="M 384.1,102.1 L 359.5,102.0" style="fill:none;fill-rule:evenodd;stroke:#000000;stroke-width:2.0px;stroke-linecap:butt;stroke-linejoin:miter;stroke-opacity:1"/>
<path class="bond-31 atom-17 atom-22" d="M 384.1,102.1 L 385.9,76.7" style="fill:none;fill-rule:evenodd;stroke:#000000;stroke-width:2.0px;stroke-linecap:butt;stroke-linejoin:miter;stroke-opacity:1"/>
<path class="bond-32 atom-18 atom-30" d="M 375.4,125.2 L 377.0,128.1" style="fill:none;fill-rule:evenodd;stroke:#FF0000;stroke-width:2.0px;stroke-linecap:butt;stroke-linejoin:miter;stroke-opacity:1"/>
<path class="bond-32 atom-18 atom-30" d="M 377.0,128.1 L 378.6,131.0" style="fill:none;fill-rule:evenodd;stroke:#000000;stroke-width:2.0px;stroke-linecap:butt;stroke-linejoin:miter;stroke-opacity:1"/>
<path class="bond-33 atom-21 atom-31" d="M 359.5,102.0 L 358.7,85.2" style="fill:none;fill-rule:evenodd;stroke:#000000;stroke-width:2.0px;stroke-linecap:butt;stroke-linejoin:miter;stroke-opacity:1"/>
<path class="bond-34 atom-21 atom-32" d="M 359.5,102.0 L 343.3,93.2" style="fill:none;fill-rule:evenodd;stroke:#000000;stroke-width:2.0px;stroke-linecap:butt;stroke-linejoin:miter;stroke-opacity:1"/>
<path class="bond-35 atom-21 atom-33" d="M 359.5,102.0 L 351.1,116.9" style="fill:none;fill-rule:evenodd;stroke:#000000;stroke-width:2.0px;stroke-linecap:butt;stroke-linejoin:miter;stroke-opacity:1"/>
<path class="bond-36 atom-22 atom-34" d="M 385.9,76.7 L 403.2,78.5" style="fill:none;fill-rule:evenodd;stroke:#000000;stroke-width:2.0px;stroke-linecap:butt;stroke-linejoin:miter;stroke-opacity:1"/>
<path class="bond-37 atom-22 atom-35" d="M 385.9,76.7 L 395.8,63.2" style="fill:none;fill-rule:evenodd;stroke:#000000;stroke-width:2.0px;stroke-linecap:butt;stroke-linejoin:miter;stroke-opacity:1"/>
<path class="bond-38 atom-22 atom-36" d="M 385.9,76.7 L 371.8,65.8" style="fill:none;fill-rule:evenodd;stroke:#000000;stroke-width:2.0px;stroke-linecap:butt;stroke-linejoin:miter;stroke-opacity:1"/>
<path class="atom-4" d="M 465.0 166.4 L 468.3 171.7 Q 468.7 172.2, 469.2 173.2 Q 469.7 174.1, 469.7 174.2 L 469.7 166.4 L 471.1 166.4 L 471.1 176.5 L 469.7 176.5 L 466.1 170.6 Q 465.7 169.9, 465.3 169.1 Q 464.9 168.4, 464.7 168.1 L 464.7 176.5 L 463.4 176.5 L 463.4 166.4 L 465.0 166.4 " fill="#0000FF"/>
<path class="atom-8" d="M 485.4 130.7 L 488.7 136.0 Q 489.1 136.6, 489.6 137.5 Q 490.1 138.5, 490.2 138.5 L 490.2 130.7 L 491.5 130.7 L 491.5 140.8 L 490.1 140.8 L 486.6 134.9 Q 486.1 134.2, 485.7 133.5 Q 485.3 132.7, 485.1 132.4 L 485.1 140.8 L 483.8 140.8 L 483.8 130.7 L 485.4 130.7 " fill="#0000FF"/>
<path class="atom-9" d="M 524.2 135.6 Q 524.2 133.1, 525.4 131.8 Q 526.6 130.4, 528.9 130.4 Q 531.1 130.4, 532.3 131.8 Q 533.5 133.1, 533.5 135.6 Q 533.5 138.0, 532.3 139.4 Q 531.1 140.8, 528.9 140.8 Q 526.6 140.8, 525.4 139.4 Q 524.2 138.0, 524.2 135.6 M 528.9 139.7 Q 530.4 139.7, 531.2 138.6 Q 532.1 137.6, 532.1 135.6 Q 532.1 133.6, 531.2 132.6 Q 530.4 131.6, 528.9 131.6 Q 527.3 131.6, 526.5 132.6 Q 525.7 133.6, 525.7 135.6 Q 525.7 137.6, 526.5 138.6 Q 527.3 139.7, 528.9 139.7 " fill="#FF0000"/>
<path class="atom-18" d="M 367.4 119.2 Q 367.4 116.8, 368.6 115.4 Q 369.8 114.1, 372.0 114.1 Q 374.2 114.1, 375.4 115.4 Q 376.6 116.8, 376.6 119.2 Q 376.6 121.7, 375.4 123.1 Q 374.2 124.4, 372.0 124.4 Q 369.8 124.4, 368.6 123.1 Q 367.4 121.7, 367.4 119.2 M 372.0 123.3 Q 373.5 123.3, 374.4 122.3 Q 375.2 121.2, 375.2 119.2 Q 375.2 117.2, 374.4 116.2 Q 373.5 115.2, 372.0 115.2 Q 370.5 115.2, 369.6 116.2 Q 368.8 117.2, 368.8 119.2 Q 368.8 121.2, 369.6 122.3 Q 370.5 123.3, 372.0 123.3 " fill="#FF0000"/>
<path class="atom-19" d="M 546.7 213.7 L 552.7 213.7 L 552.7 214.8 L 548.0 214.8 L 548.0 217.9 L 552.2 217.9 L 552.2 219.1 L 548.0 219.1 L 548.0 223.8 L 546.7 223.8 L 546.7 213.7 " fill="#33CCCC"/>
<path class="atom-20" d="M 546.6 166.1 L 552.6 166.1 L 552.6 167.3 L 547.9 167.3 L 547.9 170.4 L 552.0 170.4 L 552.0 171.5 L 547.9 171.5 L 547.9 176.2 L 546.6 176.2 L 546.6 166.1 " fill="#33CCCC"/>
<path class="atom-23" d="M 463.4 213.9 L 464.7 213.9 L 464.7 218.2 L 469.9 218.2 L 469.9 213.9 L 471.3 213.9 L 471.3 224.0 L 469.9 224.0 L 469.9 219.3 L 464.7 219.3 L 464.7 224.0 L 463.4 224.0 L 463.4 213.9 " fill="#000000"/>
<path class="atom-24" d="M 504.6 237.5 L 506.0 237.5 L 506.0 241.8 L 511.2 241.8 L 511.2 237.5 L 512.5 237.5 L 512.5 247.6 L 511.2 247.6 L 511.2 243.0 L 506.0 243.0 L 506.0 247.6 L 504.6 247.6 L 504.6 237.5 " fill="#000000"/>
<path class="atom-25" d="M 483.6 106.9 L 485.0 106.9 L 485.0 111.2 L 490.2 111.2 L 490.2 106.9 L 491.5 106.9 L 491.5 117.0 L 490.2 117.0 L 490.2 112.3 L 485.0 112.3 L 485.0 117.0 L 483.6 117.0 L 483.6 106.9 " fill="#000000"/>
<path class="atom-26" d="M 464.0 97.1 L 465.4 97.1 L 465.4 101.4 L 470.5 101.4 L 470.5 97.1 L 471.9 97.1 L 471.9 107.2 L 470.5 107.2 L 470.5 102.6 L 465.4 102.6 L 465.4 107.2 L 464.0 107.2 L 464.0 97.1 " fill="#000000"/>
<path class="atom-27" d="M 423.0 73.2 L 424.4 73.2 L 424.4 77.5 L 429.6 77.5 L 429.6 73.2 L 430.9 73.2 L 430.9 83.3 L 429.6 83.3 L 429.6 78.7 L 424.4 78.7 L 424.4 83.3 L 423.0 83.3 L 423.0 73.2 " fill="#000000"/>
<path class="atom-28" d="M 384.6 150.3 L 386.0 150.3 L 386.0 154.6 L 391.2 154.6 L 391.2 150.3 L 392.5 150.3 L 392.5 160.4 L 391.2 160.4 L 391.2 155.8 L 386.0 155.8 L 386.0 160.4 L 384.6 160.4 L 384.6 150.3 " fill="#000000"/>
<path class="atom-29" d="M 426.9 170.8 L 428.3 170.8 L 428.3 175.0 L 433.5 175.0 L 433.5 170.8 L 434.8 170.8 L 434.8 180.9 L 433.5 180.9 L 433.5 176.2 L 428.3 176.2 L 428.3 180.9 L 426.9 180.9 L 426.9 170.8 " fill="#000000"/>
<path class="atom-30" d="M 378.0 131.8 L 379.3 131.8 L 379.3 136.1 L 384.5 136.1 L 384.5 131.8 L 385.9 131.8 L 385.9 141.9 L 384.5 141.9 L 384.5 137.2 L 379.3 137.2 L 379.3 141.9 L 378.0 141.9 L 378.0 131.8 " fill="#000000"/>
<path class="atom-31" d="M 354.5 74.4 L 355.9 74.4 L 355.9 78.7 L 361.0 78.7 L 361.0 74.4 L 362.4 74.4 L 362.4 84.5 L 361.0 84.5 L 361.0 79.8 L 355.9 79.8 L 355.9 84.5 L 354.5 84.5 L 354.5 74.4 " fill="#000000"/>
<path class="atom-32" d="M 334.6 85.6 L 336.0 85.6 L 336.0 89.9 L 341.1 89.9 L 341.1 85.6 L 342.5 85.6 L 342.5 95.7 L 341.1 95.7 L 341.1 91.0 L 336.0 91.0 L 336.0 95.7 L 334.6 95.7 L 334.6 85.6 " fill="#000000"/>
<path class="atom-33" d="M 343.8 117.6 L 345.2 117.6 L 345.2 121.9 L 350.4 121.9 L 350.4 117.6 L 351.7 117.6 L 351.7 127.7 L 350.4 127.7 L 350.4 123.1 L 345.2 123.1 L 345.2 127.7 L 343.8 127.7 L 343.8 117.6 " fill="#000000"/>
<path class="atom-34" d="M 404.0 73.9 L 405.4 73.9 L 405.4 78.2 L 410.5 78.2 L 410.5 73.9 L 411.9 73.9 L 411.9 84.0 L 410.5 84.0 L 410.5 79.4 L 405.4 79.4 L 405.4 84.0 L 404.0 84.0 L 404.0 73.9 " fill="#000000"/>
<path class="atom-35" d="M 396.1 52.4 L 397.5 52.4 L 397.5 56.6 L 402.7 56.6 L 402.7 52.4 L 404.0 52.4 L 404.0 62.5 L 402.7 62.5 L 402.7 57.8 L 397.5 57.8 L 397.5 62.5 L 396.1 62.5 L 396.1 52.4 " fill="#000000"/>
<path class="atom-36" d="M 363.1 57.1 L 364.5 57.1 L 364.5 61.4 L 369.6 61.4 L 369.6 57.1 L 371.0 57.1 L 371.0 67.2 L 369.6 67.2 L 369.6 62.5 L 364.5 62.5 L 364.5 67.2 L 363.1 67.2 L 363.1 57.1 " fill="#000000"/>
<text x="300" y="20" font-size="20" font-family="sans-serif" font-weight="normal" letter-spacing="0" text-anchor="middle" fill="black">tnks2 5l -&gt; 5j </text><text x="150" y="285" font-size="15" font-family="sans-serif" font-weight="normal" letter-spacing="0" text-anchor="middle" fill="black">5l</text><text x="450" y="285" font-size="15" font-family="sans-serif" font-weight="normal" letter-spacing="0" text-anchor="middle" fill="black">5j</text></svg>
