<?xml version='1.0' encoding='ASCII' standalone='yes'?>
<svg xmlns="http://www.w3.org/2000/svg" xmlns:rdkit="http://www.rdkit.org/xml" xmlns:xlink="http://www.w3.org/1999/xlink" version="1.1" baseProfile="full" xml:space="preserve" width="600px" height="300px" viewBox="0 0 600 300">
<!-- END OF HEADER -->
<rect style="opacity:1.0;fill:#FFFFFF;stroke:none" width="600.0" height="300.0" x="0.0" y="0.0"> </rect>
<ellipse cx="78.2" cy="131.8" rx="7.4" ry="7.4" class="atom-21" style="fill:#DC3369;fill-rule:evenodd;stroke:#DC3369;stroke-width:1.0px;stroke-linecap:butt;stroke-linejoin:miter;stroke-opacity:1"/>
<ellipse cx="38.3" cy="199.0" rx="7.4" ry="7.4" class="atom-23" style="fill:#DC3369;fill-rule:evenodd;stroke:#DC3369;stroke-width:1.0px;stroke-linecap:butt;stroke-linejoin:miter;stroke-opacity:1"/>
<ellipse cx="154.7" cy="199.1" rx="7.4" ry="7.4" class="atom-25" style="fill:#DC3369;fill-rule:evenodd;stroke:#DC3369;stroke-width:1.0px;stroke-linecap:butt;stroke-linejoin:miter;stroke-opacity:1"/>
<ellipse cx="240.5" cy="146.9" rx="7.4" ry="7.4" class="atom-30" style="fill:#DC3369;fill-rule:evenodd;stroke:#DC3369;stroke-width:1.0px;stroke-linecap:butt;stroke-linejoin:miter;stroke-opacity:1"/>
<path class="bond-0 atom-0 atom-1" d="M 77.3,154.2 L 96.6,165.4" style="fill:none;fill-rule:evenodd;stroke:#000000;stroke-width:2.0px;stroke-linecap:butt;stroke-linejoin:miter;stroke-opacity:1"/>
<path class="bond-0 atom-0 atom-1" d="M 78.1,159.4 L 91.6,167.2" style="fill:none;fill-rule:evenodd;stroke:#000000;stroke-width:2.0px;stroke-linecap:butt;stroke-linejoin:miter;stroke-opacity:1"/>
<path class="bond-1 atom-0 atom-2" d="M 77.3,154.2 L 57.8,165.3" style="fill:none;fill-rule:evenodd;stroke:#000000;stroke-width:2.0px;stroke-linecap:butt;stroke-linejoin:miter;stroke-opacity:1"/>
<path class="bond-2 atom-0 atom-21" d="M 77.3,154.2 L 77.3,145.9" style="fill:none;fill-rule:evenodd;stroke:#000000;stroke-width:2.0px;stroke-linecap:butt;stroke-linejoin:miter;stroke-opacity:1"/>
<path class="bond-2 atom-0 atom-21" d="M 77.3,145.9 L 77.3,137.7" style="fill:none;fill-rule:evenodd;stroke:#00CC00;stroke-width:2.0px;stroke-linecap:butt;stroke-linejoin:miter;stroke-opacity:1"/>
<path class="bond-3 atom-1 atom-3" d="M 96.6,165.4 L 96.6,187.8" style="fill:none;fill-rule:evenodd;stroke:#000000;stroke-width:2.0px;stroke-linecap:butt;stroke-linejoin:miter;stroke-opacity:1"/>
<path class="bond-4 atom-1 atom-4" d="M 96.6,165.4 L 104.1,161.1" style="fill:none;fill-rule:evenodd;stroke:#000000;stroke-width:2.0px;stroke-linecap:butt;stroke-linejoin:miter;stroke-opacity:1"/>
<path class="bond-4 atom-1 atom-4" d="M 104.1,161.1 L 111.6,156.8" style="fill:none;fill-rule:evenodd;stroke:#0000FF;stroke-width:2.0px;stroke-linecap:butt;stroke-linejoin:miter;stroke-opacity:1"/>
<path class="bond-5 atom-2 atom-5" d="M 57.8,165.3 L 57.8,187.8" style="fill:none;fill-rule:evenodd;stroke:#000000;stroke-width:2.0px;stroke-linecap:butt;stroke-linejoin:miter;stroke-opacity:1"/>
<path class="bond-5 atom-2 atom-5" d="M 61.9,168.7 L 61.9,184.4" style="fill:none;fill-rule:evenodd;stroke:#000000;stroke-width:2.0px;stroke-linecap:butt;stroke-linejoin:miter;stroke-opacity:1"/>
<path class="bond-6 atom-2 atom-22" d="M 57.8,165.3 L 42.9,156.7" style="fill:none;fill-rule:evenodd;stroke:#000000;stroke-width:2.0px;stroke-linecap:butt;stroke-linejoin:miter;stroke-opacity:1"/>
<path class="bond-7 atom-3 atom-6" d="M 96.6,187.8 L 77.2,199.0" style="fill:none;fill-rule:evenodd;stroke:#000000;stroke-width:2.0px;stroke-linecap:butt;stroke-linejoin:miter;stroke-opacity:1"/>
<path class="bond-7 atom-3 atom-6" d="M 91.6,186.0 L 78.1,193.8" style="fill:none;fill-rule:evenodd;stroke:#000000;stroke-width:2.0px;stroke-linecap:butt;stroke-linejoin:miter;stroke-opacity:1"/>
<path class="bond-8 atom-3 atom-7" d="M 96.6,187.8 L 115.9,199.0" style="fill:none;fill-rule:evenodd;stroke:#000000;stroke-width:2.0px;stroke-linecap:butt;stroke-linejoin:miter;stroke-opacity:1"/>
<path class="bond-9 atom-4 atom-10" d="M 120.3,156.8 L 127.8,161.1" style="fill:none;fill-rule:evenodd;stroke:#0000FF;stroke-width:2.0px;stroke-linecap:butt;stroke-linejoin:miter;stroke-opacity:1"/>
<path class="bond-9 atom-4 atom-10" d="M 127.8,161.1 L 135.3,165.5" style="fill:none;fill-rule:evenodd;stroke:#000000;stroke-width:2.0px;stroke-linecap:butt;stroke-linejoin:miter;stroke-opacity:1"/>
<path class="bond-9 atom-4 atom-10" d="M 120.6,161.6 L 125.8,164.6" style="fill:none;fill-rule:evenodd;stroke:#0000FF;stroke-width:2.0px;stroke-linecap:butt;stroke-linejoin:miter;stroke-opacity:1"/>
<path class="bond-9 atom-4 atom-10" d="M 125.8,164.6 L 131.0,167.7" style="fill:none;fill-rule:evenodd;stroke:#000000;stroke-width:2.0px;stroke-linecap:butt;stroke-linejoin:miter;stroke-opacity:1"/>
<path class="bond-10 atom-5 atom-6" d="M 57.8,187.8 L 77.2,199.0" style="fill:none;fill-rule:evenodd;stroke:#000000;stroke-width:2.0px;stroke-linecap:butt;stroke-linejoin:miter;stroke-opacity:1"/>
<path class="bond-11 atom-5 atom-23" d="M 57.8,187.8 L 42.8,196.4" style="fill:none;fill-rule:evenodd;stroke:#000000;stroke-width:2.0px;stroke-linecap:butt;stroke-linejoin:miter;stroke-opacity:1"/>
<path class="bond-12 atom-6 atom-24" d="M 77.2,199.0 L 77.2,215.9" style="fill:none;fill-rule:evenodd;stroke:#000000;stroke-width:2.0px;stroke-linecap:butt;stroke-linejoin:miter;stroke-opacity:1"/>
<path class="bond-13 atom-7 atom-8" d="M 115.9,199.0 L 123.4,194.7" style="fill:none;fill-rule:evenodd;stroke:#000000;stroke-width:2.0px;stroke-linecap:butt;stroke-linejoin:miter;stroke-opacity:1"/>
<path class="bond-13 atom-7 atom-8" d="M 123.4,194.7 L 130.9,190.4" style="fill:none;fill-rule:evenodd;stroke:#0000FF;stroke-width:2.0px;stroke-linecap:butt;stroke-linejoin:miter;stroke-opacity:1"/>
<path class="bond-14 atom-7 atom-9" d="M 117.9,199.1 L 117.9,207.5" style="fill:none;fill-rule:evenodd;stroke:#000000;stroke-width:2.0px;stroke-linecap:butt;stroke-linejoin:miter;stroke-opacity:1"/>
<path class="bond-14 atom-7 atom-9" d="M 117.9,207.5 L 117.9,215.9" style="fill:none;fill-rule:evenodd;stroke:#FF0000;stroke-width:2.0px;stroke-linecap:butt;stroke-linejoin:miter;stroke-opacity:1"/>
<path class="bond-14 atom-7 atom-9" d="M 113.9,199.0 L 113.9,207.5" style="fill:none;fill-rule:evenodd;stroke:#000000;stroke-width:2.0px;stroke-linecap:butt;stroke-linejoin:miter;stroke-opacity:1"/>
<path class="bond-14 atom-7 atom-9" d="M 113.9,207.5 L 113.8,215.9" style="fill:none;fill-rule:evenodd;stroke:#FF0000;stroke-width:2.0px;stroke-linecap:butt;stroke-linejoin:miter;stroke-opacity:1"/>
<path class="bond-15 atom-8 atom-10" d="M 135.3,182.3 L 135.3,173.9" style="fill:none;fill-rule:evenodd;stroke:#0000FF;stroke-width:2.0px;stroke-linecap:butt;stroke-linejoin:miter;stroke-opacity:1"/>
<path class="bond-15 atom-8 atom-10" d="M 135.3,173.9 L 135.3,165.5" style="fill:none;fill-rule:evenodd;stroke:#000000;stroke-width:2.0px;stroke-linecap:butt;stroke-linejoin:miter;stroke-opacity:1"/>
<path class="bond-16 atom-8 atom-25" d="M 139.6,190.4 L 144.9,193.5" style="fill:none;fill-rule:evenodd;stroke:#0000FF;stroke-width:2.0px;stroke-linecap:butt;stroke-linejoin:miter;stroke-opacity:1"/>
<path class="bond-16 atom-8 atom-25" d="M 144.9,193.5 L 150.2,196.5" style="fill:none;fill-rule:evenodd;stroke:#000000;stroke-width:2.0px;stroke-linecap:butt;stroke-linejoin:miter;stroke-opacity:1"/>
<path class="bond-17 atom-10 atom-11" d="M 135.3,165.5 L 154.5,154.6" style="fill:none;fill-rule:evenodd;stroke:#000000;stroke-width:2.0px;stroke-linecap:butt;stroke-linejoin:miter;stroke-opacity:1"/>
<path class="bond-18 atom-11 atom-12" d="M 154.5,154.6 L 154.1,132.1" style="fill:none;fill-rule:evenodd;stroke:#000000;stroke-width:2.0px;stroke-linecap:butt;stroke-linejoin:miter;stroke-opacity:1"/>
<path class="bond-18 atom-11 atom-12" d="M 158.5,151.1 L 158.2,135.4" style="fill:none;fill-rule:evenodd;stroke:#000000;stroke-width:2.0px;stroke-linecap:butt;stroke-linejoin:miter;stroke-opacity:1"/>
<path class="bond-19 atom-11 atom-16" d="M 154.5,154.6 L 174.0,165.7" style="fill:none;fill-rule:evenodd;stroke:#000000;stroke-width:2.0px;stroke-linecap:butt;stroke-linejoin:miter;stroke-opacity:1"/>
<path class="bond-20 atom-12 atom-13" d="M 154.1,132.1 L 173.5,120.7" style="fill:none;fill-rule:evenodd;stroke:#000000;stroke-width:2.0px;stroke-linecap:butt;stroke-linejoin:miter;stroke-opacity:1"/>
<path class="bond-21 atom-12 atom-26" d="M 154.1,132.1 L 139.1,123.6" style="fill:none;fill-rule:evenodd;stroke:#000000;stroke-width:2.0px;stroke-linecap:butt;stroke-linejoin:miter;stroke-opacity:1"/>
<path class="bond-22 atom-13 atom-14" d="M 173.5,120.7 L 193.1,131.8" style="fill:none;fill-rule:evenodd;stroke:#000000;stroke-width:2.0px;stroke-linecap:butt;stroke-linejoin:miter;stroke-opacity:1"/>
<path class="bond-22 atom-13 atom-14" d="M 174.4,125.9 L 188.2,133.7" style="fill:none;fill-rule:evenodd;stroke:#000000;stroke-width:2.0px;stroke-linecap:butt;stroke-linejoin:miter;stroke-opacity:1"/>
<path class="bond-23 atom-13 atom-27" d="M 173.5,120.7 L 172.8,103.5" style="fill:none;fill-rule:evenodd;stroke:#000000;stroke-width:2.0px;stroke-linecap:butt;stroke-linejoin:miter;stroke-opacity:1"/>
<path class="bond-24 atom-14 atom-15" d="M 193.1,131.8 L 193.3,154.3" style="fill:none;fill-rule:evenodd;stroke:#000000;stroke-width:2.0px;stroke-linecap:butt;stroke-linejoin:miter;stroke-opacity:1"/>
<path class="bond-25 atom-14 atom-17" d="M 193.1,131.8 L 213.5,120.9" style="fill:none;fill-rule:evenodd;stroke:#000000;stroke-width:2.0px;stroke-linecap:butt;stroke-linejoin:miter;stroke-opacity:1"/>
<path class="bond-26 atom-15 atom-16" d="M 193.3,154.3 L 174.0,165.7" style="fill:none;fill-rule:evenodd;stroke:#000000;stroke-width:2.0px;stroke-linecap:butt;stroke-linejoin:miter;stroke-opacity:1"/>
<path class="bond-26 atom-15 atom-16" d="M 188.4,152.5 L 174.9,160.5" style="fill:none;fill-rule:evenodd;stroke:#000000;stroke-width:2.0px;stroke-linecap:butt;stroke-linejoin:miter;stroke-opacity:1"/>
<path class="bond-27 atom-15 atom-28" d="M 193.3,154.3 L 208.5,162.8" style="fill:none;fill-rule:evenodd;stroke:#000000;stroke-width:2.0px;stroke-linecap:butt;stroke-linejoin:miter;stroke-opacity:1"/>
<path class="bond-28 atom-16 atom-29" d="M 174.0,165.7 L 174.2,182.6" style="fill:none;fill-rule:evenodd;stroke:#000000;stroke-width:2.0px;stroke-linecap:butt;stroke-linejoin:miter;stroke-opacity:1"/>
<path class="bond-29 atom-17 atom-18" d="M 213.5,120.9 L 217.9,132.3" style="fill:none;fill-rule:evenodd;stroke:#000000;stroke-width:2.0px;stroke-linecap:butt;stroke-linejoin:miter;stroke-opacity:1"/>
<path class="bond-29 atom-17 atom-18" d="M 217.9,132.3 L 222.4,143.6" style="fill:none;fill-rule:evenodd;stroke:#FF0000;stroke-width:2.0px;stroke-linecap:butt;stroke-linejoin:miter;stroke-opacity:1"/>
<path class="bond-30 atom-17 atom-19" d="M 213.5,120.9 L 243.4,117.3" style="fill:none;fill-rule:evenodd;stroke:#000000;stroke-width:2.0px;stroke-linecap:butt;stroke-linejoin:miter;stroke-opacity:1"/>
<path class="bond-31 atom-17 atom-20" d="M 213.5,120.9 L 211.7,97.0" style="fill:none;fill-rule:evenodd;stroke:#000000;stroke-width:2.0px;stroke-linecap:butt;stroke-linejoin:miter;stroke-opacity:1"/>
<path class="bond-32 atom-18 atom-30" d="M 229.7,148.5 L 232.8,148.0" style="fill:none;fill-rule:evenodd;stroke:#FF0000;stroke-width:2.0px;stroke-linecap:butt;stroke-linejoin:miter;stroke-opacity:1"/>
<path class="bond-32 atom-18 atom-30" d="M 232.8,148.0 L 236.0,147.6" style="fill:none;fill-rule:evenodd;stroke:#000000;stroke-width:2.0px;stroke-linecap:butt;stroke-linejoin:miter;stroke-opacity:1"/>
<path class="bond-33 atom-19 atom-31" d="M 243.4,117.3 L 241.7,102.9" style="fill:none;fill-rule:evenodd;stroke:#000000;stroke-width:2.0px;stroke-linecap:butt;stroke-linejoin:miter;stroke-opacity:1"/>
<path class="bond-34 atom-19 atom-32" d="M 243.4,117.3 L 257.2,109.2" style="fill:none;fill-rule:evenodd;stroke:#000000;stroke-width:2.0px;stroke-linecap:butt;stroke-linejoin:miter;stroke-opacity:1"/>
<path class="bond-35 atom-19 atom-33" d="M 243.4,117.3 L 247.0,126.1" style="fill:none;fill-rule:evenodd;stroke:#000000;stroke-width:2.0px;stroke-linecap:butt;stroke-linejoin:miter;stroke-opacity:1"/>
<path class="bond-36 atom-20 atom-34" d="M 211.7,97.0 L 195.1,98.1" style="fill:none;fill-rule:evenodd;stroke:#000000;stroke-width:2.0px;stroke-linecap:butt;stroke-linejoin:miter;stroke-opacity:1"/>
<path class="bond-37 atom-20 atom-35" d="M 211.7,97.0 L 202.6,83.8" style="fill:none;fill-rule:evenodd;stroke:#000000;stroke-width:2.0px;stroke-linecap:butt;stroke-linejoin:miter;stroke-opacity:1"/>
<path class="bond-38 atom-20 atom-36" d="M 211.7,97.0 L 224.5,87.5" style="fill:none;fill-rule:evenodd;stroke:#000000;stroke-width:2.0px;stroke-linecap:butt;stroke-linejoin:miter;stroke-opacity:1"/>
<path class="atom-4" d="M 113.9 149.5 L 117.0 154.6 Q 117.3 155.1, 117.8 156.0 Q 118.3 156.9, 118.3 156.9 L 118.3 149.5 L 119.6 149.5 L 119.6 159.1 L 118.3 159.1 L 114.9 153.5 Q 114.5 152.9, 114.1 152.1 Q 113.7 151.4, 113.6 151.2 L 113.6 159.1 L 112.3 159.1 L 112.3 149.5 L 113.9 149.5 " fill="#0000FF"/>
<path class="atom-8" d="M 133.1 183.1 L 136.3 188.1 Q 136.6 188.6, 137.1 189.5 Q 137.6 190.4, 137.6 190.5 L 137.6 183.1 L 138.9 183.1 L 138.9 192.6 L 137.5 192.6 L 134.2 187.1 Q 133.8 186.5, 133.4 185.7 Q 133.0 185.0, 132.9 184.7 L 132.9 192.6 L 131.6 192.6 L 131.6 183.1 L 133.1 183.1 " fill="#0000FF"/>
<path class="atom-9" d="M 111.5 221.5 Q 111.5 219.2, 112.6 217.9 Q 113.7 216.7, 115.9 216.7 Q 118.0 216.7, 119.1 217.9 Q 120.2 219.2, 120.2 221.5 Q 120.2 223.8, 119.1 225.2 Q 117.9 226.5, 115.9 226.5 Q 113.7 226.5, 112.6 225.2 Q 111.5 223.9, 111.5 221.5 M 115.9 225.4 Q 117.3 225.4, 118.1 224.4 Q 118.9 223.4, 118.9 221.5 Q 118.9 219.6, 118.1 218.7 Q 117.3 217.7, 115.9 217.7 Q 114.4 217.7, 113.6 218.7 Q 112.8 219.6, 112.8 221.5 Q 112.8 223.4, 113.6 224.4 Q 114.4 225.4, 115.9 225.4 " fill="#FF0000"/>
<path class="atom-18" d="M 220.2 149.2 Q 220.2 146.9, 221.3 145.6 Q 222.4 144.4, 224.5 144.4 Q 226.7 144.4, 227.8 145.6 Q 228.9 146.9, 228.9 149.2 Q 228.9 151.5, 227.8 152.9 Q 226.6 154.2, 224.5 154.2 Q 222.4 154.2, 221.3 152.9 Q 220.2 151.6, 220.2 149.2 M 224.5 153.1 Q 226.0 153.1, 226.8 152.1 Q 227.6 151.1, 227.6 149.2 Q 227.6 147.3, 226.8 146.4 Q 226.0 145.4, 224.5 145.4 Q 223.1 145.4, 222.3 146.4 Q 221.5 147.3, 221.5 149.2 Q 221.5 151.1, 222.3 152.1 Q 223.1 153.1, 224.5 153.1 " fill="#FF0000"/>
<path class="atom-21" d="M 73.6 132.0 Q 73.6 129.7, 74.7 128.4 Q 75.8 127.2, 77.9 127.2 Q 79.9 127.2, 80.9 128.6 L 80.1 129.3 Q 79.3 128.3, 77.9 128.3 Q 76.5 128.3, 75.7 129.2 Q 75.0 130.2, 75.0 132.0 Q 75.0 133.9, 75.7 134.9 Q 76.5 135.9, 78.1 135.9 Q 79.1 135.9, 80.4 135.2 L 80.7 136.2 Q 80.2 136.6, 79.5 136.8 Q 78.7 136.9, 77.9 136.9 Q 75.8 136.9, 74.7 135.7 Q 73.6 134.4, 73.6 132.0 " fill="#00CC00"/>
<path class="atom-21" d="M 81.5 126.6 L 82.7 126.6 L 82.7 136.8 L 81.5 136.8 L 81.5 126.6 " fill="#00CC00"/>
<path class="atom-22" d="M 34.7 149.3 L 36.0 149.3 L 36.0 153.4 L 40.8 153.4 L 40.8 149.3 L 42.1 149.3 L 42.1 158.9 L 40.8 158.9 L 40.8 154.5 L 36.0 154.5 L 36.0 158.9 L 34.7 158.9 L 34.7 149.3 " fill="#000000"/>
<path class="atom-23" d="M 34.6 194.2 L 35.9 194.2 L 35.9 198.3 L 40.8 198.3 L 40.8 194.2 L 42.1 194.2 L 42.1 203.7 L 40.8 203.7 L 40.8 199.3 L 35.9 199.3 L 35.9 203.7 L 34.6 203.7 L 34.6 194.2 " fill="#000000"/>
<path class="atom-24" d="M 73.4 216.7 L 74.7 216.7 L 74.7 220.7 L 79.6 220.7 L 79.6 216.7 L 80.9 216.7 L 80.9 226.2 L 79.6 226.2 L 79.6 221.8 L 74.7 221.8 L 74.7 226.2 L 73.4 226.2 L 73.4 216.7 " fill="#000000"/>
<path class="atom-25" d="M 151.0 194.4 L 152.3 194.4 L 152.3 198.4 L 157.1 198.4 L 157.1 194.4 L 158.4 194.4 L 158.4 203.9 L 157.1 203.9 L 157.1 199.5 L 152.3 199.5 L 152.3 203.9 L 151.0 203.9 L 151.0 194.4 " fill="#000000"/>
<path class="atom-26" d="M 130.9 116.3 L 132.1 116.3 L 132.1 120.4 L 137.0 120.4 L 137.0 116.3 L 138.3 116.3 L 138.3 125.9 L 137.0 125.9 L 137.0 121.5 L 132.1 121.5 L 132.1 125.9 L 130.9 125.9 L 130.9 116.3 " fill="#000000"/>
<path class="atom-27" d="M 168.9 93.2 L 170.2 93.2 L 170.2 97.2 L 175.0 97.2 L 175.0 93.2 L 176.3 93.2 L 176.3 102.7 L 175.0 102.7 L 175.0 98.3 L 170.2 98.3 L 170.2 102.7 L 168.9 102.7 L 168.9 93.2 " fill="#000000"/>
<path class="atom-28" d="M 209.2 160.5 L 210.5 160.5 L 210.5 164.6 L 215.4 164.6 L 215.4 160.5 L 216.7 160.5 L 216.7 170.1 L 215.4 170.1 L 215.4 165.6 L 210.5 165.6 L 210.5 170.1 L 209.2 170.1 L 209.2 160.5 " fill="#000000"/>
<path class="atom-29" d="M 170.5 183.4 L 171.8 183.4 L 171.8 187.4 L 176.7 187.4 L 176.7 183.4 L 178.0 183.4 L 178.0 192.9 L 176.7 192.9 L 176.7 188.5 L 171.8 188.5 L 171.8 192.9 L 170.5 192.9 L 170.5 183.4 " fill="#000000"/>
<path class="atom-30" d="M 236.7 142.2 L 238.0 142.2 L 238.0 146.2 L 242.9 146.2 L 242.9 142.2 L 244.2 142.2 L 244.2 151.7 L 242.9 151.7 L 242.9 147.3 L 238.0 147.3 L 238.0 151.7 L 236.7 151.7 L 236.7 142.2 " fill="#000000"/>
<path class="atom-31" d="M 237.3 92.6 L 238.6 92.6 L 238.6 96.7 L 243.5 96.7 L 243.5 92.6 L 244.8 92.6 L 244.8 102.2 L 243.5 102.2 L 243.5 97.8 L 238.6 97.8 L 238.6 102.2 L 237.3 102.2 L 237.3 92.6 " fill="#000000"/>
<path class="atom-32" d="M 257.9 101.9 L 259.2 101.9 L 259.2 105.9 L 264.1 105.9 L 264.1 101.9 L 265.4 101.9 L 265.4 111.4 L 264.1 111.4 L 264.1 107.0 L 259.2 107.0 L 259.2 111.4 L 257.9 111.4 L 257.9 101.9 " fill="#000000"/>
<path class="atom-33" d="M 245.6 126.9 L 246.8 126.9 L 246.8 130.9 L 251.7 130.9 L 251.7 126.9 L 253.0 126.9 L 253.0 136.4 L 251.7 136.4 L 251.7 132.0 L 246.8 132.0 L 246.8 136.4 L 245.6 136.4 L 245.6 126.9 " fill="#000000"/>
<path class="atom-34" d="M 186.9 93.6 L 188.2 93.6 L 188.2 97.7 L 193.1 97.7 L 193.1 93.6 L 194.4 93.6 L 194.4 103.2 L 193.1 103.2 L 193.1 98.7 L 188.2 98.7 L 188.2 103.2 L 186.9 103.2 L 186.9 93.6 " fill="#000000"/>
<path class="atom-35" d="M 195.1 73.5 L 196.4 73.5 L 196.4 77.6 L 201.3 77.6 L 201.3 73.5 L 202.5 73.5 L 202.5 83.1 L 201.3 83.1 L 201.3 78.7 L 196.4 78.7 L 196.4 83.1 L 195.1 83.1 L 195.1 73.5 " fill="#000000"/>
<path class="atom-36" d="M 225.2 79.3 L 226.5 79.3 L 226.5 83.4 L 231.4 83.4 L 231.4 79.3 L 232.7 79.3 L 232.7 88.9 L 231.4 88.9 L 231.4 84.5 L 226.5 84.5 L 226.5 88.9 L 225.2 88.9 L 225.2 79.3 " fill="#000000"/>
<ellipse cx="338.3" cy="199.0" rx="7.4" ry="7.4" class="atom-7" style="fill:#DC3369;fill-rule:evenodd;stroke:#DC3369;stroke-width:1.0px;stroke-linecap:butt;stroke-linejoin:miter;stroke-opacity:1"/>
<ellipse cx="377.2" cy="131.7" rx="7.4" ry="7.4" class="atom-22" style="fill:#DC3369;fill-rule:evenodd;stroke:#DC3369;stroke-width:1.0px;stroke-linecap:butt;stroke-linejoin:miter;stroke-opacity:1"/>
<ellipse cx="454.7" cy="199.1" rx="7.4" ry="7.4" class="atom-25" style="fill:#DC3369;fill-rule:evenodd;stroke:#DC3369;stroke-width:1.0px;stroke-linecap:butt;stroke-linejoin:miter;stroke-opacity:1"/>
<ellipse cx="540.4" cy="146.9" rx="7.4" ry="7.4" class="atom-30" style="fill:#DC3369;fill-rule:evenodd;stroke:#DC3369;stroke-width:1.0px;stroke-linecap:butt;stroke-linejoin:miter;stroke-opacity:1"/>
<path class="bond-0 atom-0 atom-1" d="M 377.2,154.2 L 396.5,165.4" style="fill:none;fill-rule:evenodd;stroke:#000000;stroke-width:2.0px;stroke-linecap:butt;stroke-linejoin:miter;stroke-opacity:1"/>
<path class="bond-0 atom-0 atom-1" d="M 378.1,159.4 L 391.6,167.2" style="fill:none;fill-rule:evenodd;stroke:#000000;stroke-width:2.0px;stroke-linecap:butt;stroke-linejoin:miter;stroke-opacity:1"/>
<path class="bond-1 atom-0 atom-2" d="M 377.2,154.2 L 357.8,165.3" style="fill:none;fill-rule:evenodd;stroke:#000000;stroke-width:2.0px;stroke-linecap:butt;stroke-linejoin:miter;stroke-opacity:1"/>
<path class="bond-2 atom-0 atom-22" d="M 377.2,154.2 L 377.2,137.2" style="fill:none;fill-rule:evenodd;stroke:#000000;stroke-width:2.0px;stroke-linecap:butt;stroke-linejoin:miter;stroke-opacity:1"/>
<path class="bond-3 atom-1 atom-3" d="M 396.5,165.4 L 396.6,187.8" style="fill:none;fill-rule:evenodd;stroke:#000000;stroke-width:2.0px;stroke-linecap:butt;stroke-linejoin:miter;stroke-opacity:1"/>
<path class="bond-4 atom-1 atom-4" d="M 396.5,165.4 L 404.1,161.1" style="fill:none;fill-rule:evenodd;stroke:#000000;stroke-width:2.0px;stroke-linecap:butt;stroke-linejoin:miter;stroke-opacity:1"/>
<path class="bond-4 atom-1 atom-4" d="M 404.1,161.1 L 411.6,156.8" style="fill:none;fill-rule:evenodd;stroke:#0000FF;stroke-width:2.0px;stroke-linecap:butt;stroke-linejoin:miter;stroke-opacity:1"/>
<path class="bond-5 atom-2 atom-5" d="M 357.8,165.3 L 357.8,187.8" style="fill:none;fill-rule:evenodd;stroke:#000000;stroke-width:2.0px;stroke-linecap:butt;stroke-linejoin:miter;stroke-opacity:1"/>
<path class="bond-5 atom-2 atom-5" d="M 361.9,168.7 L 361.9,184.4" style="fill:none;fill-rule:evenodd;stroke:#000000;stroke-width:2.0px;stroke-linecap:butt;stroke-linejoin:miter;stroke-opacity:1"/>
<path class="bond-6 atom-2 atom-23" d="M 357.8,165.3 L 342.9,156.7" style="fill:none;fill-rule:evenodd;stroke:#000000;stroke-width:2.0px;stroke-linecap:butt;stroke-linejoin:miter;stroke-opacity:1"/>
<path class="bond-7 atom-3 atom-6" d="M 396.6,187.8 L 377.1,199.0" style="fill:none;fill-rule:evenodd;stroke:#000000;stroke-width:2.0px;stroke-linecap:butt;stroke-linejoin:miter;stroke-opacity:1"/>
<path class="bond-7 atom-3 atom-6" d="M 391.6,186.0 L 378.0,193.8" style="fill:none;fill-rule:evenodd;stroke:#000000;stroke-width:2.0px;stroke-linecap:butt;stroke-linejoin:miter;stroke-opacity:1"/>
<path class="bond-8 atom-3 atom-8" d="M 396.6,187.8 L 415.9,199.0" style="fill:none;fill-rule:evenodd;stroke:#000000;stroke-width:2.0px;stroke-linecap:butt;stroke-linejoin:miter;stroke-opacity:1"/>
<path class="bond-9 atom-4 atom-11" d="M 420.3,156.8 L 427.8,161.1" style="fill:none;fill-rule:evenodd;stroke:#0000FF;stroke-width:2.0px;stroke-linecap:butt;stroke-linejoin:miter;stroke-opacity:1"/>
<path class="bond-9 atom-4 atom-11" d="M 427.8,161.1 L 435.3,165.5" style="fill:none;fill-rule:evenodd;stroke:#000000;stroke-width:2.0px;stroke-linecap:butt;stroke-linejoin:miter;stroke-opacity:1"/>
<path class="bond-9 atom-4 atom-11" d="M 420.5,161.6 L 425.8,164.6" style="fill:none;fill-rule:evenodd;stroke:#0000FF;stroke-width:2.0px;stroke-linecap:butt;stroke-linejoin:miter;stroke-opacity:1"/>
<path class="bond-9 atom-4 atom-11" d="M 425.8,164.6 L 431.0,167.7" style="fill:none;fill-rule:evenodd;stroke:#000000;stroke-width:2.0px;stroke-linecap:butt;stroke-linejoin:miter;stroke-opacity:1"/>
<path class="bond-10 atom-5 atom-6" d="M 357.8,187.8 L 377.1,199.0" style="fill:none;fill-rule:evenodd;stroke:#000000;stroke-width:2.0px;stroke-linecap:butt;stroke-linejoin:miter;stroke-opacity:1"/>
<path class="bond-11 atom-5 atom-7" d="M 357.8,187.8 L 349.9,192.3" style="fill:none;fill-rule:evenodd;stroke:#000000;stroke-width:2.0px;stroke-linecap:butt;stroke-linejoin:miter;stroke-opacity:1"/>
<path class="bond-11 atom-5 atom-7" d="M 349.9,192.3 L 341.9,196.9" style="fill:none;fill-rule:evenodd;stroke:#33CCCC;stroke-width:2.0px;stroke-linecap:butt;stroke-linejoin:miter;stroke-opacity:1"/>
<path class="bond-12 atom-6 atom-24" d="M 377.1,199.0 L 377.1,215.9" style="fill:none;fill-rule:evenodd;stroke:#000000;stroke-width:2.0px;stroke-linecap:butt;stroke-linejoin:miter;stroke-opacity:1"/>
<path class="bond-13 atom-8 atom-9" d="M 415.9,199.0 L 423.4,194.7" style="fill:none;fill-rule:evenodd;stroke:#000000;stroke-width:2.0px;stroke-linecap:butt;stroke-linejoin:miter;stroke-opacity:1"/>
<path class="bond-13 atom-8 atom-9" d="M 423.4,194.7 L 430.8,190.4" style="fill:none;fill-rule:evenodd;stroke:#0000FF;stroke-width:2.0px;stroke-linecap:butt;stroke-linejoin:miter;stroke-opacity:1"/>
<path class="bond-14 atom-8 atom-10" d="M 417.9,199.1 L 417.9,207.5" style="fill:none;fill-rule:evenodd;stroke:#000000;stroke-width:2.0px;stroke-linecap:butt;stroke-linejoin:miter;stroke-opacity:1"/>
<path class="bond-14 atom-8 atom-10" d="M 417.9,207.5 L 417.9,215.9" style="fill:none;fill-rule:evenodd;stroke:#FF0000;stroke-width:2.0px;stroke-linecap:butt;stroke-linejoin:miter;stroke-opacity:1"/>
<path class="bond-14 atom-8 atom-10" d="M 413.8,199.0 L 413.8,207.5" style="fill:none;fill-rule:evenodd;stroke:#000000;stroke-width:2.0px;stroke-linecap:butt;stroke-linejoin:miter;stroke-opacity:1"/>
<path class="bond-14 atom-8 atom-10" d="M 413.8,207.5 L 413.8,215.9" style="fill:none;fill-rule:evenodd;stroke:#FF0000;stroke-width:2.0px;stroke-linecap:butt;stroke-linejoin:miter;stroke-opacity:1"/>
<path class="bond-15 atom-9 atom-11" d="M 435.2,182.3 L 435.3,173.9" style="fill:none;fill-rule:evenodd;stroke:#0000FF;stroke-width:2.0px;stroke-linecap:butt;stroke-linejoin:miter;stroke-opacity:1"/>
<path class="bond-15 atom-9 atom-11" d="M 435.3,173.9 L 435.3,165.5" style="fill:none;fill-rule:evenodd;stroke:#000000;stroke-width:2.0px;stroke-linecap:butt;stroke-linejoin:miter;stroke-opacity:1"/>
<path class="bond-16 atom-9 atom-25" d="M 439.6,190.4 L 444.9,193.5" style="fill:none;fill-rule:evenodd;stroke:#0000FF;stroke-width:2.0px;stroke-linecap:butt;stroke-linejoin:miter;stroke-opacity:1"/>
<path class="bond-16 atom-9 atom-25" d="M 444.9,193.5 L 450.2,196.5" style="fill:none;fill-rule:evenodd;stroke:#000000;stroke-width:2.0px;stroke-linecap:butt;stroke-linejoin:miter;stroke-opacity:1"/>
<path class="bond-17 atom-11 atom-12" d="M 435.3,165.5 L 454.4,154.6" style="fill:none;fill-rule:evenodd;stroke:#000000;stroke-width:2.0px;stroke-linecap:butt;stroke-linejoin:miter;stroke-opacity:1"/>
<path class="bond-18 atom-12 atom-13" d="M 454.4,154.6 L 454.1,132.1" style="fill:none;fill-rule:evenodd;stroke:#000000;stroke-width:2.0px;stroke-linecap:butt;stroke-linejoin:miter;stroke-opacity:1"/>
<path class="bond-18 atom-12 atom-13" d="M 458.4,151.1 L 458.2,135.4" style="fill:none;fill-rule:evenodd;stroke:#000000;stroke-width:2.0px;stroke-linecap:butt;stroke-linejoin:miter;stroke-opacity:1"/>
<path class="bond-19 atom-12 atom-17" d="M 454.4,154.6 L 474.0,165.7" style="fill:none;fill-rule:evenodd;stroke:#000000;stroke-width:2.0px;stroke-linecap:butt;stroke-linejoin:miter;stroke-opacity:1"/>
<path class="bond-20 atom-13 atom-14" d="M 454.1,132.1 L 473.4,120.7" style="fill:none;fill-rule:evenodd;stroke:#000000;stroke-width:2.0px;stroke-linecap:butt;stroke-linejoin:miter;stroke-opacity:1"/>
<path class="bond-21 atom-13 atom-26" d="M 454.1,132.1 L 439.0,123.6" style="fill:none;fill-rule:evenodd;stroke:#000000;stroke-width:2.0px;stroke-linecap:butt;stroke-linejoin:miter;stroke-opacity:1"/>
<path class="bond-22 atom-14 atom-15" d="M 473.4,120.7 L 493.1,131.8" style="fill:none;fill-rule:evenodd;stroke:#000000;stroke-width:2.0px;stroke-linecap:butt;stroke-linejoin:miter;stroke-opacity:1"/>
<path class="bond-22 atom-14 atom-15" d="M 474.4,125.9 L 488.2,133.7" style="fill:none;fill-rule:evenodd;stroke:#000000;stroke-width:2.0px;stroke-linecap:butt;stroke-linejoin:miter;stroke-opacity:1"/>
<path class="bond-23 atom-14 atom-27" d="M 473.4,120.7 L 472.8,103.5" style="fill:none;fill-rule:evenodd;stroke:#000000;stroke-width:2.0px;stroke-linecap:butt;stroke-linejoin:miter;stroke-opacity:1"/>
<path class="bond-24 atom-15 atom-16" d="M 493.1,131.8 L 493.3,154.3" style="fill:none;fill-rule:evenodd;stroke:#000000;stroke-width:2.0px;stroke-linecap:butt;stroke-linejoin:miter;stroke-opacity:1"/>
<path class="bond-25 atom-15 atom-18" d="M 493.1,131.8 L 513.4,120.9" style="fill:none;fill-rule:evenodd;stroke:#000000;stroke-width:2.0px;stroke-linecap:butt;stroke-linejoin:miter;stroke-opacity:1"/>
<path class="bond-26 atom-16 atom-17" d="M 493.3,154.3 L 474.0,165.7" style="fill:none;fill-rule:evenodd;stroke:#000000;stroke-width:2.0px;stroke-linecap:butt;stroke-linejoin:miter;stroke-opacity:1"/>
<path class="bond-26 atom-16 atom-17" d="M 488.3,152.5 L 474.8,160.5" style="fill:none;fill-rule:evenodd;stroke:#000000;stroke-width:2.0px;stroke-linecap:butt;stroke-linejoin:miter;stroke-opacity:1"/>
<path class="bond-27 atom-16 atom-28" d="M 493.3,154.3 L 508.4,162.8" style="fill:none;fill-rule:evenodd;stroke:#000000;stroke-width:2.0px;stroke-linecap:butt;stroke-linejoin:miter;stroke-opacity:1"/>
<path class="bond-28 atom-17 atom-29" d="M 474.0,165.7 L 474.2,182.6" style="fill:none;fill-rule:evenodd;stroke:#000000;stroke-width:2.0px;stroke-linecap:butt;stroke-linejoin:miter;stroke-opacity:1"/>
<path class="bond-29 atom-18 atom-19" d="M 513.4,120.9 L 517.9,132.3" style="fill:none;fill-rule:evenodd;stroke:#000000;stroke-width:2.0px;stroke-linecap:butt;stroke-linejoin:miter;stroke-opacity:1"/>
<path class="bond-29 atom-18 atom-19" d="M 517.9,132.3 L 522.3,143.6" style="fill:none;fill-rule:evenodd;stroke:#FF0000;stroke-width:2.0px;stroke-linecap:butt;stroke-linejoin:miter;stroke-opacity:1"/>
<path class="bond-30 atom-18 atom-20" d="M 513.4,120.9 L 543.4,117.3" style="fill:none;fill-rule:evenodd;stroke:#000000;stroke-width:2.0px;stroke-linecap:butt;stroke-linejoin:miter;stroke-opacity:1"/>
<path class="bond-31 atom-18 atom-21" d="M 513.4,120.9 L 511.7,97.0" style="fill:none;fill-rule:evenodd;stroke:#000000;stroke-width:2.0px;stroke-linecap:butt;stroke-linejoin:miter;stroke-opacity:1"/>
<path class="bond-32 atom-19 atom-30" d="M 529.6,148.5 L 532.8,148.0" style="fill:none;fill-rule:evenodd;stroke:#FF0000;stroke-width:2.0px;stroke-linecap:butt;stroke-linejoin:miter;stroke-opacity:1"/>
<path class="bond-32 atom-19 atom-30" d="M 532.8,148.0 L 536.0,147.6" style="fill:none;fill-rule:evenodd;stroke:#000000;stroke-width:2.0px;stroke-linecap:butt;stroke-linejoin:miter;stroke-opacity:1"/>
<path class="bond-33 atom-20 atom-31" d="M 543.4,117.3 L 541.7,102.9" style="fill:none;fill-rule:evenodd;stroke:#000000;stroke-width:2.0px;stroke-linecap:butt;stroke-linejoin:miter;stroke-opacity:1"/>
<path class="bond-34 atom-20 atom-32" d="M 543.4,117.3 L 557.1,109.2" style="fill:none;fill-rule:evenodd;stroke:#000000;stroke-width:2.0px;stroke-linecap:butt;stroke-linejoin:miter;stroke-opacity:1"/>
<path class="bond-35 atom-20 atom-33" d="M 543.4,117.3 L 547.0,126.1" style="fill:none;fill-rule:evenodd;stroke:#000000;stroke-width:2.0px;stroke-linecap:butt;stroke-linejoin:miter;stroke-opacity:1"/>
<path class="bond-36 atom-21 atom-34" d="M 511.7,97.0 L 495.1,98.1" style="fill:none;fill-rule:evenodd;stroke:#000000;stroke-width:2.0px;stroke-linecap:butt;stroke-linejoin:miter;stroke-opacity:1"/>
<path class="bond-37 atom-21 atom-35" d="M 511.7,97.0 L 502.6,83.8" style="fill:none;fill-rule:evenodd;stroke:#000000;stroke-width:2.0px;stroke-linecap:butt;stroke-linejoin:miter;stroke-opacity:1"/>
<path class="bond-38 atom-21 atom-36" d="M 511.7,97.0 L 524.4,87.5" style="fill:none;fill-rule:evenodd;stroke:#000000;stroke-width:2.0px;stroke-linecap:butt;stroke-linejoin:miter;stroke-opacity:1"/>
<path class="atom-4" d="M 413.8 149.5 L 417.0 154.6 Q 417.3 155.1, 417.8 156.0 Q 418.3 156.9, 418.3 156.9 L 418.3 149.5 L 419.6 149.5 L 419.6 159.1 L 418.3 159.1 L 414.9 153.5 Q 414.5 152.9, 414.1 152.1 Q 413.7 151.4, 413.6 151.2 L 413.6 159.1 L 412.3 159.1 L 412.3 149.5 L 413.8 149.5 " fill="#0000FF"/>
<path class="atom-7" d="M 335.5 194.2 L 341.2 194.2 L 341.2 195.3 L 336.8 195.3 L 336.8 198.2 L 340.7 198.2 L 340.7 199.3 L 336.8 199.3 L 336.8 203.7 L 335.5 203.7 L 335.5 194.2 " fill="#33CCCC"/>
<path class="atom-9" d="M 433.1 183.1 L 436.2 188.1 Q 436.5 188.6, 437.0 189.5 Q 437.5 190.4, 437.6 190.5 L 437.6 183.1 L 438.8 183.1 L 438.8 192.6 L 437.5 192.6 L 434.2 187.1 Q 433.8 186.5, 433.4 185.7 Q 432.9 185.0, 432.8 184.7 L 432.8 192.6 L 431.6 192.6 L 431.6 183.1 L 433.1 183.1 " fill="#0000FF"/>
<path class="atom-10" d="M 411.4 221.5 Q 411.4 219.2, 412.6 217.9 Q 413.7 216.7, 415.8 216.7 Q 417.9 216.7, 419.1 217.9 Q 420.2 219.2, 420.2 221.5 Q 420.2 223.8, 419.1 225.2 Q 417.9 226.5, 415.8 226.5 Q 413.7 226.5, 412.6 225.2 Q 411.4 223.9, 411.4 221.5 M 415.8 225.4 Q 417.3 225.4, 418.1 224.4 Q 418.9 223.4, 418.9 221.5 Q 418.9 219.6, 418.1 218.7 Q 417.3 217.7, 415.8 217.7 Q 414.4 217.7, 413.6 218.7 Q 412.8 219.6, 412.8 221.5 Q 412.8 223.4, 413.6 224.4 Q 414.4 225.4, 415.8 225.4 " fill="#FF0000"/>
<path class="atom-19" d="M 520.1 149.2 Q 520.1 146.9, 521.3 145.6 Q 522.4 144.4, 524.5 144.4 Q 526.6 144.4, 527.8 145.6 Q 528.9 146.9, 528.9 149.2 Q 528.9 151.5, 527.8 152.9 Q 526.6 154.2, 524.5 154.2 Q 522.4 154.2, 521.3 152.9 Q 520.1 151.6, 520.1 149.2 M 524.5 153.1 Q 526.0 153.1, 526.8 152.1 Q 527.6 151.1, 527.6 149.2 Q 527.6 147.3, 526.8 146.4 Q 526.0 145.4, 524.5 145.4 Q 523.1 145.4, 522.3 146.4 Q 521.5 147.3, 521.5 149.2 Q 521.5 151.1, 522.3 152.1 Q 523.1 153.1, 524.5 153.1 " fill="#FF0000"/>
<path class="atom-22" d="M 373.5 126.9 L 374.8 126.9 L 374.8 131.0 L 379.7 131.0 L 379.7 126.9 L 381.0 126.9 L 381.0 136.5 L 379.7 136.5 L 379.7 132.1 L 374.8 132.1 L 374.8 136.5 L 373.5 136.5 L 373.5 126.9 " fill="#000000"/>
<path class="atom-23" d="M 334.6 149.3 L 335.9 149.3 L 335.9 153.4 L 340.8 153.4 L 340.8 149.3 L 342.1 149.3 L 342.1 158.9 L 340.8 158.9 L 340.8 154.5 L 335.9 154.5 L 335.9 158.9 L 334.6 158.9 L 334.6 149.3 " fill="#000000"/>
<path class="atom-24" d="M 373.4 216.7 L 374.7 216.7 L 374.7 220.7 L 379.6 220.7 L 379.6 216.7 L 380.9 216.7 L 380.9 226.2 L 379.6 226.2 L 379.6 221.8 L 374.7 221.8 L 374.7 226.2 L 373.4 226.2 L 373.4 216.7 " fill="#000000"/>
<path class="atom-25" d="M 450.9 194.4 L 452.2 194.4 L 452.2 198.4 L 457.1 198.4 L 457.1 194.4 L 458.4 194.4 L 458.4 203.9 L 457.1 203.9 L 457.1 199.5 L 452.2 199.5 L 452.2 203.9 L 450.9 203.9 L 450.9 194.4 " fill="#000000"/>
<path class="atom-26" d="M 430.8 116.3 L 432.1 116.3 L 432.1 120.4 L 437.0 120.4 L 437.0 116.3 L 438.3 116.3 L 438.3 125.9 L 437.0 125.9 L 437.0 121.5 L 432.1 121.5 L 432.1 125.9 L 430.8 125.9 L 430.8 116.3 " fill="#000000"/>
<path class="atom-27" d="M 468.8 93.2 L 470.1 93.2 L 470.1 97.2 L 475.0 97.2 L 475.0 93.2 L 476.3 93.2 L 476.3 102.7 L 475.0 102.7 L 475.0 98.3 L 470.1 98.3 L 470.1 102.7 L 468.8 102.7 L 468.8 93.2 " fill="#000000"/>
<path class="atom-28" d="M 509.2 160.5 L 510.5 160.5 L 510.5 164.6 L 515.3 164.6 L 515.3 160.5 L 516.6 160.5 L 516.6 170.1 L 515.3 170.1 L 515.3 165.6 L 510.5 165.6 L 510.5 170.1 L 509.2 170.1 L 509.2 160.5 " fill="#000000"/>
<path class="atom-29" d="M 470.5 183.4 L 471.8 183.4 L 471.8 187.4 L 476.7 187.4 L 476.7 183.4 L 478.0 183.4 L 478.0 192.9 L 476.7 192.9 L 476.7 188.5 L 471.8 188.5 L 471.8 192.9 L 470.5 192.9 L 470.5 183.4 " fill="#000000"/>
<path class="atom-30" d="M 536.7 142.2 L 538.0 142.2 L 538.0 146.2 L 542.9 146.2 L 542.9 142.2 L 544.2 142.2 L 544.2 151.7 L 542.9 151.7 L 542.9 147.3 L 538.0 147.3 L 538.0 151.7 L 536.7 151.7 L 536.7 142.2 " fill="#000000"/>
<path class="atom-31" d="M 537.3 92.6 L 538.6 92.6 L 538.6 96.7 L 543.5 96.7 L 543.5 92.6 L 544.8 92.6 L 544.8 102.2 L 543.5 102.2 L 543.5 97.8 L 538.6 97.8 L 538.6 102.2 L 537.3 102.2 L 537.3 92.6 " fill="#000000"/>
<path class="atom-32" d="M 557.9 101.9 L 559.2 101.9 L 559.2 105.9 L 564.1 105.9 L 564.1 101.9 L 565.4 101.9 L 565.4 111.4 L 564.1 111.4 L 564.1 107.0 L 559.2 107.0 L 559.2 111.4 L 557.9 111.4 L 557.9 101.9 " fill="#000000"/>
<path class="atom-33" d="M 545.5 126.9 L 546.8 126.9 L 546.8 130.9 L 551.7 130.9 L 551.7 126.9 L 553.0 126.9 L 553.0 136.4 L 551.7 136.4 L 551.7 132.0 L 546.8 132.0 L 546.8 136.4 L 545.5 136.4 L 545.5 126.9 " fill="#000000"/>
<path class="atom-34" d="M 486.9 93.6 L 488.2 93.6 L 488.2 97.7 L 493.0 97.7 L 493.0 93.6 L 494.3 93.6 L 494.3 103.2 L 493.0 103.2 L 493.0 98.7 L 488.2 98.7 L 488.2 103.2 L 486.9 103.2 L 486.9 93.6 " fill="#000000"/>
<path class="atom-35" d="M 495.1 73.5 L 496.3 73.5 L 496.3 77.6 L 501.2 77.6 L 501.2 73.5 L 502.5 73.5 L 502.5 83.1 L 501.2 83.1 L 501.2 78.7 L 496.3 78.7 L 496.3 83.1 L 495.1 83.1 L 495.1 73.5 " fill="#000000"/>
<path class="atom-36" d="M 525.2 79.3 L 526.5 79.3 L 526.5 83.4 L 531.3 83.4 L 531.3 79.3 L 532.6 79.3 L 532.6 88.9 L 531.3 88.9 L 531.3 84.5 L 526.5 84.5 L 526.5 88.9 L 525.2 88.9 L 525.2 79.3 " fill="#000000"/>
<text x="300" y="20" font-size="20" font-family="sans-serif" font-weight="normal" letter-spacing="0" text-anchor="middle" fill="black">tnks2 5g -&gt; 5d </text><text x="150" y="285" font-size="15" font-family="sans-serif" font-weight="normal" letter-spacing="0" text-anchor="middle" fill="black">5g</text><text x="450" y="285" font-size="15" font-family="sans-serif" font-weight="normal" letter-spacing="0" text-anchor="middle" fill="black">5d</text></svg>
