<?xml version='1.0' encoding='ASCII' standalone='yes'?>
<svg xmlns="http://www.w3.org/2000/svg" xmlns:rdkit="http://www.rdkit.org/xml" xmlns:xlink="http://www.w3.org/1999/xlink" version="1.1" baseProfile="full" xml:space="preserve" width="400px" height="200px" viewBox="0 0 600 300">
<!-- END OF HEADER -->
<rect style="opacity:1.0;fill:#FFFFFF;stroke:none" width="600.0" height="300.0" x="0.0" y="0.0"> </rect>
<ellipse cx="77.9" cy="148.2" rx="7.3" ry="7.3" class="atom-0" style="fill:#DC3369;fill-rule:evenodd;stroke:#DC3369;stroke-width:1.0px;stroke-linecap:butt;stroke-linejoin:miter;stroke-opacity:1"/>
<ellipse cx="201.4" cy="235.2" rx="7.3" ry="7.3" class="atom-12" style="fill:#DC3369;fill-rule:evenodd;stroke:#DC3369;stroke-width:1.0px;stroke-linecap:butt;stroke-linejoin:miter;stroke-opacity:1"/>
<ellipse cx="56.1" cy="155.6" rx="7.3" ry="7.3" class="atom-28" style="fill:#DC3369;fill-rule:evenodd;stroke:#DC3369;stroke-width:1.0px;stroke-linecap:butt;stroke-linejoin:miter;stroke-opacity:1"/>
<ellipse cx="72.9" cy="170.9" rx="7.3" ry="7.3" class="atom-29" style="fill:#DC3369;fill-rule:evenodd;stroke:#DC3369;stroke-width:1.0px;stroke-linecap:butt;stroke-linejoin:miter;stroke-opacity:1"/>
<ellipse cx="98.0" cy="153.2" rx="7.3" ry="7.3" class="atom-30" style="fill:#DC3369;fill-rule:evenodd;stroke:#DC3369;stroke-width:1.0px;stroke-linecap:butt;stroke-linejoin:miter;stroke-opacity:1"/>
<ellipse cx="52.9" cy="110.4" rx="7.3" ry="7.3" class="atom-31" style="fill:#DC3369;fill-rule:evenodd;stroke:#DC3369;stroke-width:1.0px;stroke-linecap:butt;stroke-linejoin:miter;stroke-opacity:1"/>
<ellipse cx="185.4" cy="250.7" rx="7.3" ry="7.3" class="atom-43" style="fill:#DC3369;fill-rule:evenodd;stroke:#DC3369;stroke-width:1.0px;stroke-linecap:butt;stroke-linejoin:miter;stroke-opacity:1"/>
<ellipse cx="201.7" cy="156.5" rx="7.3" ry="7.3" class="atom-46" style="fill:#DC3369;fill-rule:evenodd;stroke:#DC3369;stroke-width:1.0px;stroke-linecap:butt;stroke-linejoin:miter;stroke-opacity:1"/>
<ellipse cx="49.3" cy="132.3" rx="7.3" ry="7.3" class="atom-51" style="fill:#DC3369;fill-rule:evenodd;stroke:#DC3369;stroke-width:1.0px;stroke-linecap:butt;stroke-linejoin:miter;stroke-opacity:1"/>
<path class="bond-0 atom-0 atom-1" d="M 77.9,148.2 L 75.4,138.4" style="fill:none;fill-rule:evenodd;stroke:#000000;stroke-width:2.0px;stroke-linecap:butt;stroke-linejoin:miter;stroke-opacity:1"/>
<path class="bond-0 atom-0 atom-1" d="M 75.4,138.4 L 72.8,128.6" style="fill:none;fill-rule:evenodd;stroke:#0000FF;stroke-width:2.0px;stroke-linecap:butt;stroke-linejoin:miter;stroke-opacity:1"/>
<path class="bond-1 atom-0 atom-28" d="M 77.9,148.2 L 60.6,154.1" style="fill:none;fill-rule:evenodd;stroke:#000000;stroke-width:2.0px;stroke-linecap:butt;stroke-linejoin:miter;stroke-opacity:1"/>
<path class="bond-2 atom-0 atom-29" d="M 77.9,148.2 L 74.1,165.4" style="fill:none;fill-rule:evenodd;stroke:#000000;stroke-width:2.0px;stroke-linecap:butt;stroke-linejoin:miter;stroke-opacity:1"/>
<path class="bond-3 atom-0 atom-30" d="M 77.9,148.2 L 93.6,152.1" style="fill:none;fill-rule:evenodd;stroke:#000000;stroke-width:2.0px;stroke-linecap:butt;stroke-linejoin:miter;stroke-opacity:1"/>
<path class="bond-4 atom-1 atom-2" d="M 76.3,117.6 L 86.1,106.7" style="fill:none;fill-rule:evenodd;stroke:#0000FF;stroke-width:2.0px;stroke-linecap:butt;stroke-linejoin:miter;stroke-opacity:1"/>
<path class="bond-4 atom-1 atom-2" d="M 86.1,106.7 L 95.9,95.9" style="fill:none;fill-rule:evenodd;stroke:#000000;stroke-width:2.0px;stroke-linecap:butt;stroke-linejoin:miter;stroke-opacity:1"/>
<path class="bond-5 atom-1 atom-31" d="M 67.1,120.1 L 62.2,116.8" style="fill:none;fill-rule:evenodd;stroke:#0000FF;stroke-width:2.0px;stroke-linecap:butt;stroke-linejoin:miter;stroke-opacity:1"/>
<path class="bond-5 atom-1 atom-31" d="M 62.2,116.8 L 57.4,113.5" style="fill:none;fill-rule:evenodd;stroke:#000000;stroke-width:2.0px;stroke-linecap:butt;stroke-linejoin:miter;stroke-opacity:1"/>
<path class="bond-6 atom-1 atom-51" d="M 67.1,124.9 L 60.4,127.7" style="fill:none;fill-rule:evenodd;stroke:#0000FF;stroke-width:2.0px;stroke-linecap:butt;stroke-linejoin:miter;stroke-opacity:1"/>
<path class="bond-6 atom-1 atom-51" d="M 60.4,127.7 L 53.8,130.5" style="fill:none;fill-rule:evenodd;stroke:#000000;stroke-width:2.0px;stroke-linecap:butt;stroke-linejoin:miter;stroke-opacity:1"/>
<path class="bond-7 atom-2 atom-3" d="M 95.9,95.9 L 126.2,99.2" style="fill:none;fill-rule:evenodd;stroke:#000000;stroke-width:2.0px;stroke-linecap:butt;stroke-linejoin:miter;stroke-opacity:1"/>
<path class="bond-8 atom-2 atom-32" d="M 95.9,95.9 L 100.6,78.4" style="fill:none;fill-rule:evenodd;stroke:#000000;stroke-width:2.0px;stroke-linecap:butt;stroke-linejoin:miter;stroke-opacity:1"/>
<path class="bond-9 atom-2 atom-33" d="M 95.9,95.9 L 85.1,84.3" style="fill:none;fill-rule:evenodd;stroke:#000000;stroke-width:2.0px;stroke-linecap:butt;stroke-linejoin:miter;stroke-opacity:1"/>
<path class="bond-10 atom-3 atom-4" d="M 126.2,99.2 L 118.8,120.2" style="fill:none;fill-rule:evenodd;stroke:#000000;stroke-width:2.0px;stroke-linecap:butt;stroke-linejoin:miter;stroke-opacity:1"/>
<path class="bond-11 atom-3 atom-27" d="M 126.2,99.2 L 134.6,97.6" style="fill:none;fill-rule:evenodd;stroke:#000000;stroke-width:2.0px;stroke-linecap:butt;stroke-linejoin:miter;stroke-opacity:1"/>
<path class="bond-11 atom-3 atom-27" d="M 134.6,97.6 L 143.1,96.0" style="fill:none;fill-rule:evenodd;stroke:#FF0000;stroke-width:2.0px;stroke-linecap:butt;stroke-linejoin:miter;stroke-opacity:1"/>
<path class="bond-12 atom-3 atom-34" d="M 126.2,99.2 L 123.5,83.2 L 128.0,83.1 Z" style="fill:#000000;fill-rule:evenodd;fill-opacity:1;stroke:#000000;stroke-width:1.0px;stroke-linecap:butt;stroke-linejoin:miter;stroke-opacity:1;"/>
<path class="bond-13 atom-4 atom-5" d="M 118.8,120.2 L 133.4,137.1" style="fill:none;fill-rule:evenodd;stroke:#000000;stroke-width:2.0px;stroke-linecap:butt;stroke-linejoin:miter;stroke-opacity:1"/>
<path class="bond-14 atom-4 atom-35" d="M 118.8,120.2 L 106.6,130.5" style="fill:none;fill-rule:evenodd;stroke:#000000;stroke-width:2.0px;stroke-linecap:butt;stroke-linejoin:miter;stroke-opacity:1"/>
<path class="bond-15 atom-4 atom-36" d="M 118.8,120.2 L 109.2,114.9" style="fill:none;fill-rule:evenodd;stroke:#000000;stroke-width:2.0px;stroke-linecap:butt;stroke-linejoin:miter;stroke-opacity:1"/>
<path class="bond-16 atom-5 atom-6" d="M 133.4,137.1 L 155.6,133.0" style="fill:none;fill-rule:evenodd;stroke:#000000;stroke-width:2.0px;stroke-linecap:butt;stroke-linejoin:miter;stroke-opacity:1"/>
<path class="bond-17 atom-5 atom-37" d="M 133.4,137.1 L 134.6,153.8" style="fill:none;fill-rule:evenodd;stroke:#000000;stroke-width:2.0px;stroke-linecap:butt;stroke-linejoin:miter;stroke-opacity:1"/>
<path class="bond-18 atom-5 atom-38" d="M 133.4,137.1 L 119.0,144.6" style="fill:none;fill-rule:evenodd;stroke:#000000;stroke-width:2.0px;stroke-linecap:butt;stroke-linejoin:miter;stroke-opacity:1"/>
<path class="bond-19 atom-6 atom-7" d="M 155.6,133.0 L 170.4,149.9" style="fill:none;fill-rule:evenodd;stroke:#000000;stroke-width:2.0px;stroke-linecap:butt;stroke-linejoin:miter;stroke-opacity:1"/>
<path class="bond-20 atom-6 atom-26" d="M 155.6,133.0 L 162.8,112.0" style="fill:none;fill-rule:evenodd;stroke:#000000;stroke-width:2.0px;stroke-linecap:butt;stroke-linejoin:miter;stroke-opacity:1"/>
<path class="bond-21 atom-6 atom-39" d="M 155.6,133.0 L 155.9,139.0 L 151.7,137.5 Z" style="fill:#000000;fill-rule:evenodd;fill-opacity:1;stroke:#000000;stroke-width:1.0px;stroke-linecap:butt;stroke-linejoin:miter;stroke-opacity:1;"/>
<path class="bond-22 atom-7 atom-8" d="M 170.4,149.9 L 183.4,171.0" style="fill:none;fill-rule:evenodd;stroke:#000000;stroke-width:2.0px;stroke-linecap:butt;stroke-linejoin:miter;stroke-opacity:1"/>
<path class="bond-23 atom-7 atom-15" d="M 170.4,149.9 L 179.2,148.3" style="fill:none;fill-rule:evenodd;stroke:#000000;stroke-width:2.0px;stroke-linecap:butt;stroke-linejoin:miter;stroke-opacity:1"/>
<path class="bond-23 atom-7 atom-15" d="M 179.2,148.3 L 187.9,146.6" style="fill:none;fill-rule:evenodd;stroke:#0000FF;stroke-width:2.0px;stroke-linecap:butt;stroke-linejoin:miter;stroke-opacity:1"/>
<path class="bond-24 atom-7 atom-40" d="M 166.8,152.8 L 167.9,153.8" style="fill:none;fill-rule:evenodd;stroke:#000000;stroke-width:1.0px;stroke-linecap:butt;stroke-linejoin:miter;stroke-opacity:1"/>
<path class="bond-24 atom-7 atom-40" d="M 163.2,155.7 L 165.4,157.7" style="fill:none;fill-rule:evenodd;stroke:#000000;stroke-width:1.0px;stroke-linecap:butt;stroke-linejoin:miter;stroke-opacity:1"/>
<path class="bond-24 atom-7 atom-40" d="M 159.5,158.6 L 162.8,161.6" style="fill:none;fill-rule:evenodd;stroke:#000000;stroke-width:1.0px;stroke-linecap:butt;stroke-linejoin:miter;stroke-opacity:1"/>
<path class="bond-25 atom-8 atom-9" d="M 183.4,171.0 L 168.0,187.0" style="fill:none;fill-rule:evenodd;stroke:#000000;stroke-width:2.0px;stroke-linecap:butt;stroke-linejoin:miter;stroke-opacity:1"/>
<path class="bond-25 atom-8 atom-9" d="M 184.0,176.2 L 173.2,187.3" style="fill:none;fill-rule:evenodd;stroke:#000000;stroke-width:2.0px;stroke-linecap:butt;stroke-linejoin:miter;stroke-opacity:1"/>
<path class="bond-26 atom-8 atom-14" d="M 183.4,171.0 L 205.1,176.4" style="fill:none;fill-rule:evenodd;stroke:#000000;stroke-width:2.0px;stroke-linecap:butt;stroke-linejoin:miter;stroke-opacity:1"/>
<path class="bond-27 atom-9 atom-10" d="M 168.0,187.0 L 174.2,208.3" style="fill:none;fill-rule:evenodd;stroke:#000000;stroke-width:2.0px;stroke-linecap:butt;stroke-linejoin:miter;stroke-opacity:1"/>
<path class="bond-28 atom-9 atom-41" d="M 168.0,187.0 L 150.8,182.9" style="fill:none;fill-rule:evenodd;stroke:#000000;stroke-width:2.0px;stroke-linecap:butt;stroke-linejoin:miter;stroke-opacity:1"/>
<path class="bond-29 atom-10 atom-11" d="M 174.2,208.3 L 195.7,213.8" style="fill:none;fill-rule:evenodd;stroke:#000000;stroke-width:2.0px;stroke-linecap:butt;stroke-linejoin:miter;stroke-opacity:1"/>
<path class="bond-29 atom-10 atom-11" d="M 178.4,205.2 L 193.5,209.1" style="fill:none;fill-rule:evenodd;stroke:#000000;stroke-width:2.0px;stroke-linecap:butt;stroke-linejoin:miter;stroke-opacity:1"/>
<path class="bond-30 atom-10 atom-42" d="M 174.2,208.3 L 163.0,219.7" style="fill:none;fill-rule:evenodd;stroke:#000000;stroke-width:2.0px;stroke-linecap:butt;stroke-linejoin:miter;stroke-opacity:1"/>
<path class="bond-31 atom-11 atom-12" d="M 195.7,213.8 L 197.8,221.7" style="fill:none;fill-rule:evenodd;stroke:#000000;stroke-width:2.0px;stroke-linecap:butt;stroke-linejoin:miter;stroke-opacity:1"/>
<path class="bond-31 atom-11 atom-12" d="M 197.8,221.7 L 199.9,229.6" style="fill:none;fill-rule:evenodd;stroke:#FF0000;stroke-width:2.0px;stroke-linecap:butt;stroke-linejoin:miter;stroke-opacity:1"/>
<path class="bond-32 atom-11 atom-13" d="M 195.7,213.8 L 211.2,197.8" style="fill:none;fill-rule:evenodd;stroke:#000000;stroke-width:2.0px;stroke-linecap:butt;stroke-linejoin:miter;stroke-opacity:1"/>
<path class="bond-33 atom-12 atom-43" d="M 196.3,240.1 L 193.1,243.2" style="fill:none;fill-rule:evenodd;stroke:#FF0000;stroke-width:2.0px;stroke-linecap:butt;stroke-linejoin:miter;stroke-opacity:1"/>
<path class="bond-33 atom-12 atom-43" d="M 193.1,243.2 L 189.8,246.4" style="fill:none;fill-rule:evenodd;stroke:#000000;stroke-width:2.0px;stroke-linecap:butt;stroke-linejoin:miter;stroke-opacity:1"/>
<path class="bond-34 atom-13 atom-14" d="M 211.2,197.8 L 205.1,176.4" style="fill:none;fill-rule:evenodd;stroke:#000000;stroke-width:2.0px;stroke-linecap:butt;stroke-linejoin:miter;stroke-opacity:1"/>
<path class="bond-34 atom-13 atom-14" d="M 206.4,195.6 L 202.2,180.7" style="fill:none;fill-rule:evenodd;stroke:#000000;stroke-width:2.0px;stroke-linecap:butt;stroke-linejoin:miter;stroke-opacity:1"/>
<path class="bond-35 atom-13 atom-44" d="M 211.2,197.8 L 228.3,202.2" style="fill:none;fill-rule:evenodd;stroke:#000000;stroke-width:2.0px;stroke-linecap:butt;stroke-linejoin:miter;stroke-opacity:1"/>
<path class="bond-36 atom-14 atom-45" d="M 205.1,176.4 L 218.3,165.9" style="fill:none;fill-rule:evenodd;stroke:#000000;stroke-width:2.0px;stroke-linecap:butt;stroke-linejoin:miter;stroke-opacity:1"/>
<path class="bond-37 atom-15 atom-16" d="M 194.1,140.3 L 196.8,132.5" style="fill:none;fill-rule:evenodd;stroke:#0000FF;stroke-width:2.0px;stroke-linecap:butt;stroke-linejoin:miter;stroke-opacity:1"/>
<path class="bond-37 atom-15 atom-16" d="M 196.8,132.5 L 199.4,124.8" style="fill:none;fill-rule:evenodd;stroke:#000000;stroke-width:2.0px;stroke-linecap:butt;stroke-linejoin:miter;stroke-opacity:1"/>
<path class="bond-38 atom-15 atom-46" d="M 196.6,150.6 L 196.9,151.0" style="fill:none;fill-rule:evenodd;stroke:#0000FF;stroke-width:2.0px;stroke-linecap:butt;stroke-linejoin:miter;stroke-opacity:1"/>
<path class="bond-38 atom-15 atom-46" d="M 196.9,151.0 L 197.3,151.4" style="fill:none;fill-rule:evenodd;stroke:#000000;stroke-width:2.0px;stroke-linecap:butt;stroke-linejoin:miter;stroke-opacity:1"/>
<path class="bond-39 atom-16 atom-17" d="M 199.4,124.8 L 221.5,120.6" style="fill:none;fill-rule:evenodd;stroke:#000000;stroke-width:2.0px;stroke-linecap:butt;stroke-linejoin:miter;stroke-opacity:1"/>
<path class="bond-39 atom-16 atom-17" d="M 202.0,120.2 L 217.4,117.3" style="fill:none;fill-rule:evenodd;stroke:#000000;stroke-width:2.0px;stroke-linecap:butt;stroke-linejoin:miter;stroke-opacity:1"/>
<path class="bond-40 atom-16 atom-25" d="M 199.4,124.8 L 184.9,107.8" style="fill:none;fill-rule:evenodd;stroke:#000000;stroke-width:2.0px;stroke-linecap:butt;stroke-linejoin:miter;stroke-opacity:1"/>
<path class="bond-41 atom-17 atom-18" d="M 221.5,120.6 L 228.8,99.6" style="fill:none;fill-rule:evenodd;stroke:#000000;stroke-width:2.0px;stroke-linecap:butt;stroke-linejoin:miter;stroke-opacity:1"/>
<path class="bond-42 atom-17 atom-47" d="M 221.5,120.6 L 231.5,132.3" style="fill:none;fill-rule:evenodd;stroke:#000000;stroke-width:2.0px;stroke-linecap:butt;stroke-linejoin:miter;stroke-opacity:1"/>
<path class="bond-43 atom-18 atom-19" d="M 228.8,99.6 L 214.2,82.7" style="fill:none;fill-rule:evenodd;stroke:#000000;stroke-width:2.0px;stroke-linecap:butt;stroke-linejoin:miter;stroke-opacity:1"/>
<path class="bond-43 atom-18 atom-19" d="M 223.6,99.7 L 213.4,87.9" style="fill:none;fill-rule:evenodd;stroke:#000000;stroke-width:2.0px;stroke-linecap:butt;stroke-linejoin:miter;stroke-opacity:1"/>
<path class="bond-44 atom-18 atom-48" d="M 228.8,99.6 L 246.2,96.3" style="fill:none;fill-rule:evenodd;stroke:#000000;stroke-width:2.0px;stroke-linecap:butt;stroke-linejoin:miter;stroke-opacity:1"/>
<path class="bond-45 atom-19 atom-20" d="M 214.2,82.7 L 222.0,61.4" style="fill:none;fill-rule:evenodd;stroke:#000000;stroke-width:2.0px;stroke-linecap:butt;stroke-linejoin:miter;stroke-opacity:1"/>
<path class="bond-46 atom-19 atom-24" d="M 214.2,82.7 L 192.3,86.8" style="fill:none;fill-rule:evenodd;stroke:#000000;stroke-width:2.0px;stroke-linecap:butt;stroke-linejoin:miter;stroke-opacity:1"/>
<path class="bond-47 atom-20 atom-21" d="M 222.0,61.4 L 213.4,58.1" style="fill:none;fill-rule:evenodd;stroke:#000000;stroke-width:2.0px;stroke-linecap:butt;stroke-linejoin:miter;stroke-opacity:1"/>
<path class="bond-47 atom-20 atom-21" d="M 213.4,58.1 L 204.7,54.9" style="fill:none;fill-rule:evenodd;stroke:#33CCCC;stroke-width:2.0px;stroke-linecap:butt;stroke-linejoin:miter;stroke-opacity:1"/>
<path class="bond-48 atom-20 atom-22" d="M 222.0,61.4 L 220.6,53.1" style="fill:none;fill-rule:evenodd;stroke:#000000;stroke-width:2.0px;stroke-linecap:butt;stroke-linejoin:miter;stroke-opacity:1"/>
<path class="bond-48 atom-20 atom-22" d="M 220.6,53.1 L 219.3,44.8" style="fill:none;fill-rule:evenodd;stroke:#33CCCC;stroke-width:2.0px;stroke-linecap:butt;stroke-linejoin:miter;stroke-opacity:1"/>
<path class="bond-49 atom-20 atom-23" d="M 222.0,61.4 L 231.2,59.8" style="fill:none;fill-rule:evenodd;stroke:#000000;stroke-width:2.0px;stroke-linecap:butt;stroke-linejoin:miter;stroke-opacity:1"/>
<path class="bond-49 atom-20 atom-23" d="M 231.2,59.8 L 240.5,58.3" style="fill:none;fill-rule:evenodd;stroke:#33CCCC;stroke-width:2.0px;stroke-linecap:butt;stroke-linejoin:miter;stroke-opacity:1"/>
<path class="bond-50 atom-24 atom-25" d="M 192.3,86.8 L 184.9,107.8" style="fill:none;fill-rule:evenodd;stroke:#000000;stroke-width:2.0px;stroke-linecap:butt;stroke-linejoin:miter;stroke-opacity:1"/>
<path class="bond-50 atom-24 atom-25" d="M 194.9,91.3 L 189.8,106.0" style="fill:none;fill-rule:evenodd;stroke:#000000;stroke-width:2.0px;stroke-linecap:butt;stroke-linejoin:miter;stroke-opacity:1"/>
<path class="bond-51 atom-24 atom-49" d="M 192.3,86.8 L 182.2,75.1" style="fill:none;fill-rule:evenodd;stroke:#000000;stroke-width:2.0px;stroke-linecap:butt;stroke-linejoin:miter;stroke-opacity:1"/>
<path class="bond-52 atom-25 atom-26" d="M 184.9,107.8 L 162.8,112.0" style="fill:none;fill-rule:evenodd;stroke:#000000;stroke-width:2.0px;stroke-linecap:butt;stroke-linejoin:miter;stroke-opacity:1"/>
<path class="bond-53 atom-26 atom-27" d="M 162.8,112.0 L 157.9,106.3" style="fill:none;fill-rule:evenodd;stroke:#000000;stroke-width:2.0px;stroke-linecap:butt;stroke-linejoin:miter;stroke-opacity:1"/>
<path class="bond-53 atom-26 atom-27" d="M 157.9,106.3 L 153.1,100.7" style="fill:none;fill-rule:evenodd;stroke:#FF0000;stroke-width:2.0px;stroke-linecap:butt;stroke-linejoin:miter;stroke-opacity:1"/>
<path class="bond-54 atom-26 atom-50" d="M 162.8,112.0 L 165.9,96.4 L 170.1,97.9 Z" style="fill:#000000;fill-rule:evenodd;fill-opacity:1;stroke:#000000;stroke-width:1.0px;stroke-linecap:butt;stroke-linejoin:miter;stroke-opacity:1;"/>
<path class="atom-1" d="M 69.3 118.4 L 72.4 123.4 Q 72.7 123.9, 73.2 124.8 Q 73.7 125.7, 73.7 125.7 L 73.7 118.4 L 75.0 118.4 L 75.0 127.8 L 73.7 127.8 L 70.4 122.4 Q 70.0 121.7, 69.6 121.0 Q 69.2 120.3, 69.0 120.0 L 69.0 127.8 L 67.8 127.8 L 67.8 118.4 L 69.3 118.4 " fill="#0000FF"/>
<path class="atom-1" d="M 76.1 120.1 L 77.8 120.1 L 77.8 118.3 L 78.5 118.3 L 78.5 120.1 L 80.2 120.1 L 80.2 120.7 L 78.5 120.7 L 78.5 122.5 L 77.8 122.5 L 77.8 120.7 L 76.1 120.7 L 76.1 120.1 " fill="#0000FF"/>
<path class="atom-12" d="M 197.1 235.2 Q 197.1 232.9, 198.2 231.6 Q 199.3 230.4, 201.4 230.4 Q 203.5 230.4, 204.6 231.6 Q 205.7 232.9, 205.7 235.2 Q 205.7 237.5, 204.6 238.8 Q 203.5 240.1, 201.4 240.1 Q 199.3 240.1, 198.2 238.8 Q 197.1 237.5, 197.1 235.2 M 201.4 239.0 Q 202.8 239.0, 203.6 238.0 Q 204.4 237.1, 204.4 235.2 Q 204.4 233.3, 203.6 232.4 Q 202.8 231.4, 201.4 231.4 Q 200.0 231.4, 199.2 232.4 Q 198.4 233.3, 198.4 235.2 Q 198.4 237.1, 199.2 238.0 Q 200.0 239.0, 201.4 239.0 " fill="#FF0000"/>
<path class="atom-15" d="M 190.2 141.0 L 193.3 146.0 Q 193.6 146.5, 194.1 147.4 Q 194.6 148.3, 194.6 148.3 L 194.6 141.0 L 195.8 141.0 L 195.8 150.5 L 194.5 150.5 L 191.2 145.0 Q 190.8 144.3, 190.4 143.6 Q 190.0 142.9, 189.9 142.6 L 189.9 150.5 L 188.7 150.5 L 188.7 141.0 L 190.2 141.0 " fill="#0000FF"/>
<path class="atom-21" d="M 198.4 48.8 L 204.0 48.8 L 204.0 49.9 L 199.7 49.9 L 199.7 52.7 L 203.5 52.7 L 203.5 53.8 L 199.7 53.8 L 199.7 58.2 L 198.4 58.2 L 198.4 48.8 " fill="#33CCCC"/>
<path class="atom-22" d="M 215.6 34.6 L 221.2 34.6 L 221.2 35.7 L 216.9 35.7 L 216.9 38.6 L 220.7 38.6 L 220.7 39.7 L 216.9 39.7 L 216.9 44.1 L 215.6 44.1 L 215.6 34.6 " fill="#33CCCC"/>
<path class="atom-23" d="M 241.2 52.9 L 246.8 52.9 L 246.8 54.0 L 242.5 54.0 L 242.5 56.9 L 246.3 56.9 L 246.3 58.0 L 242.5 58.0 L 242.5 62.4 L 241.2 62.4 L 241.2 52.9 " fill="#33CCCC"/>
<path class="atom-27" d="M 143.8 95.0 Q 143.8 92.7, 145.0 91.5 Q 146.1 90.2, 148.2 90.2 Q 150.3 90.2, 151.4 91.5 Q 152.5 92.7, 152.5 95.0 Q 152.5 97.3, 151.4 98.6 Q 150.2 99.9, 148.2 99.9 Q 146.1 99.9, 145.0 98.6 Q 143.8 97.3, 143.8 95.0 M 148.2 98.8 Q 149.6 98.8, 150.4 97.9 Q 151.2 96.9, 151.2 95.0 Q 151.2 93.2, 150.4 92.2 Q 149.6 91.3, 148.2 91.3 Q 146.7 91.3, 145.9 92.2 Q 145.2 93.1, 145.2 95.0 Q 145.2 96.9, 145.9 97.9 Q 146.7 98.8, 148.2 98.8 " fill="#FF0000"/>
<path class="atom-28" d="M 52.4 150.8 L 53.7 150.8 L 53.7 154.9 L 58.6 154.9 L 58.6 150.8 L 59.8 150.8 L 59.8 160.3 L 58.6 160.3 L 58.6 155.9 L 53.7 155.9 L 53.7 160.3 L 52.4 160.3 L 52.4 150.8 " fill="#000000"/>
<path class="atom-29" d="M 69.2 166.2 L 70.5 166.2 L 70.5 170.2 L 75.3 170.2 L 75.3 166.2 L 76.6 166.2 L 76.6 175.6 L 75.3 175.6 L 75.3 171.3 L 70.5 171.3 L 70.5 175.6 L 69.2 175.6 L 69.2 166.2 " fill="#000000"/>
<path class="atom-30" d="M 94.3 148.5 L 95.6 148.5 L 95.6 152.5 L 100.4 152.5 L 100.4 148.5 L 101.7 148.5 L 101.7 158.0 L 100.4 158.0 L 100.4 153.6 L 95.6 153.6 L 95.6 158.0 L 94.3 158.0 L 94.3 148.5 " fill="#000000"/>
<path class="atom-31" d="M 49.2 105.7 L 50.5 105.7 L 50.5 109.7 L 55.3 109.7 L 55.3 105.7 L 56.6 105.7 L 56.6 115.1 L 55.3 115.1 L 55.3 110.8 L 50.5 110.8 L 50.5 115.1 L 49.2 115.1 L 49.2 105.7 " fill="#000000"/>
<path class="atom-32" d="M 98.4 68.2 L 99.7 68.2 L 99.7 72.2 L 104.5 72.2 L 104.5 68.2 L 105.8 68.2 L 105.8 77.6 L 104.5 77.6 L 104.5 73.3 L 99.7 73.3 L 99.7 77.6 L 98.4 77.6 L 98.4 68.2 " fill="#000000"/>
<path class="atom-33" d="M 77.0 74.8 L 78.3 74.8 L 78.3 78.8 L 83.1 78.8 L 83.1 74.8 L 84.4 74.8 L 84.4 84.2 L 83.1 84.2 L 83.1 79.9 L 78.3 79.9 L 78.3 84.2 L 77.0 84.2 L 77.0 74.8 " fill="#000000"/>
<path class="atom-34" d="M 121.9 72.2 L 123.1 72.2 L 123.1 76.2 L 128.0 76.2 L 128.0 72.2 L 129.3 72.2 L 129.3 81.7 L 128.0 81.7 L 128.0 77.3 L 123.1 77.3 L 123.1 81.7 L 121.9 81.7 L 121.9 72.2 " fill="#000000"/>
<path class="atom-35" d="M 98.5 129.4 L 99.8 129.4 L 99.8 133.5 L 104.6 133.5 L 104.6 129.4 L 105.9 129.4 L 105.9 138.9 L 104.6 138.9 L 104.6 134.5 L 99.8 134.5 L 99.8 138.9 L 98.5 138.9 L 98.5 129.4 " fill="#000000"/>
<path class="atom-36" d="M 101.1 107.7 L 102.4 107.7 L 102.4 111.7 L 107.2 111.7 L 107.2 107.7 L 108.5 107.7 L 108.5 117.2 L 107.2 117.2 L 107.2 112.8 L 102.4 112.8 L 102.4 117.2 L 101.1 117.2 L 101.1 107.7 " fill="#000000"/>
<path class="atom-37" d="M 131.3 154.5 L 132.5 154.5 L 132.5 158.6 L 137.4 158.6 L 137.4 154.5 L 138.7 154.5 L 138.7 164.0 L 137.4 164.0 L 137.4 159.6 L 132.5 159.6 L 132.5 164.0 L 131.3 164.0 L 131.3 154.5 " fill="#000000"/>
<path class="atom-38" d="M 110.9 142.1 L 112.2 142.1 L 112.2 146.2 L 117.0 146.2 L 117.0 142.1 L 118.3 142.1 L 118.3 151.6 L 117.0 151.6 L 117.0 147.2 L 112.2 147.2 L 112.2 151.6 L 110.9 151.6 L 110.9 142.1 " fill="#000000"/>
<path class="atom-39" d="M 147.9 139.7 L 149.2 139.7 L 149.2 143.7 L 154.0 143.7 L 154.0 139.7 L 155.3 139.7 L 155.3 149.2 L 154.0 149.2 L 154.0 144.8 L 149.2 144.8 L 149.2 149.2 L 147.9 149.2 L 147.9 139.7 " fill="#000000"/>
<path class="atom-40" d="M 152.3 161.1 L 153.6 161.1 L 153.6 165.1 L 158.4 165.1 L 158.4 161.1 L 159.7 161.1 L 159.7 170.5 L 158.4 170.5 L 158.4 166.2 L 153.6 166.2 L 153.6 170.5 L 152.3 170.5 L 152.3 161.1 " fill="#000000"/>
<path class="atom-41" d="M 142.7 177.1 L 143.9 177.1 L 143.9 181.1 L 148.8 181.1 L 148.8 177.1 L 150.0 177.1 L 150.0 186.5 L 148.8 186.5 L 148.8 182.2 L 143.9 182.2 L 143.9 186.5 L 142.7 186.5 L 142.7 177.1 " fill="#000000"/>
<path class="atom-42" d="M 154.9 219.5 L 156.2 219.5 L 156.2 223.5 L 161.0 223.5 L 161.0 219.5 L 162.3 219.5 L 162.3 228.9 L 161.0 228.9 L 161.0 224.6 L 156.2 224.6 L 156.2 228.9 L 154.9 228.9 L 154.9 219.5 " fill="#000000"/>
<path class="atom-43" d="M 181.7 246.0 L 182.9 246.0 L 182.9 250.0 L 187.8 250.0 L 187.8 246.0 L 189.1 246.0 L 189.1 255.4 L 187.8 255.4 L 187.8 251.1 L 182.9 251.1 L 182.9 255.4 L 181.7 255.4 L 181.7 246.0 " fill="#000000"/>
<path class="atom-44" d="M 229.1 198.6 L 230.4 198.6 L 230.4 202.6 L 235.2 202.6 L 235.2 198.6 L 236.5 198.6 L 236.5 208.1 L 235.2 208.1 L 235.2 203.7 L 230.4 203.7 L 230.4 208.1 L 229.1 208.1 L 229.1 198.6 " fill="#000000"/>
<path class="atom-45" d="M 219.0 157.6 L 220.3 157.6 L 220.3 161.6 L 225.2 161.6 L 225.2 157.6 L 226.4 157.6 L 226.4 167.1 L 225.2 167.1 L 225.2 162.7 L 220.3 162.7 L 220.3 167.1 L 219.0 167.1 L 219.0 157.6 " fill="#000000"/>
<path class="atom-46" d="M 198.0 151.7 L 199.3 151.7 L 199.3 155.7 L 204.2 155.7 L 204.2 151.7 L 205.4 151.7 L 205.4 161.2 L 204.2 161.2 L 204.2 156.8 L 199.3 156.8 L 199.3 161.2 L 198.0 161.2 L 198.0 151.7 " fill="#000000"/>
<path class="atom-47" d="M 232.3 132.8 L 233.6 132.8 L 233.6 136.8 L 238.4 136.8 L 238.4 132.8 L 239.7 132.8 L 239.7 142.2 L 238.4 142.2 L 238.4 137.9 L 233.6 137.9 L 233.6 142.2 L 232.3 142.2 L 232.3 132.8 " fill="#000000"/>
<path class="atom-48" d="M 247.0 90.7 L 248.2 90.7 L 248.2 94.7 L 253.1 94.7 L 253.1 90.7 L 254.4 90.7 L 254.4 100.2 L 253.1 100.2 L 253.1 95.8 L 248.2 95.8 L 248.2 100.2 L 247.0 100.2 L 247.0 90.7 " fill="#000000"/>
<path class="atom-49" d="M 174.1 65.2 L 175.4 65.2 L 175.4 69.2 L 180.2 69.2 L 180.2 65.2 L 181.5 65.2 L 181.5 74.7 L 180.2 74.7 L 180.2 70.3 L 175.4 70.3 L 175.4 74.7 L 174.1 74.7 L 174.1 65.2 " fill="#000000"/>
<path class="atom-50" d="M 166.5 86.2 L 167.8 86.2 L 167.8 90.3 L 172.6 90.3 L 172.6 86.2 L 173.9 86.2 L 173.9 95.7 L 172.6 95.7 L 172.6 91.3 L 167.8 91.3 L 167.8 95.7 L 166.5 95.7 L 166.5 86.2 " fill="#000000"/>
<path class="atom-51" d="M 45.6 127.6 L 46.9 127.6 L 46.9 131.6 L 51.8 131.6 L 51.8 127.6 L 53.0 127.6 L 53.0 137.1 L 51.8 137.1 L 51.8 132.7 L 46.9 132.7 L 46.9 137.1 L 45.6 137.1 L 45.6 127.6 " fill="#000000"/>
<ellipse cx="388.8" cy="92.7" rx="7.3" ry="7.3" class="atom-26" style="fill:#DC3369;fill-rule:evenodd;stroke:#DC3369;stroke-width:1.0px;stroke-linecap:butt;stroke-linejoin:miter;stroke-opacity:1"/>
<ellipse cx="378.8" cy="73.5" rx="7.3" ry="7.3" class="atom-27" style="fill:#DC3369;fill-rule:evenodd;stroke:#DC3369;stroke-width:1.0px;stroke-linecap:butt;stroke-linejoin:miter;stroke-opacity:1"/>
<ellipse cx="355.5" cy="224.0" rx="7.3" ry="7.3" class="atom-39" style="fill:#DC3369;fill-rule:evenodd;stroke:#DC3369;stroke-width:1.0px;stroke-linecap:butt;stroke-linejoin:miter;stroke-opacity:1"/>
<ellipse cx="500.4" cy="176.6" rx="7.3" ry="7.3" class="atom-42" style="fill:#DC3369;fill-rule:evenodd;stroke:#DC3369;stroke-width:1.0px;stroke-linecap:butt;stroke-linejoin:miter;stroke-opacity:1"/>
<ellipse cx="402.4" cy="52.8" rx="7.3" ry="7.3" class="atom-47" style="fill:#DC3369;fill-rule:evenodd;stroke:#DC3369;stroke-width:1.0px;stroke-linecap:butt;stroke-linejoin:miter;stroke-opacity:1"/>
<path class="bond-0 atom-0 atom-1" d="M 405.5,77.9 L 413.3,83.0" style="fill:none;fill-rule:evenodd;stroke:#0000FF;stroke-width:2.0px;stroke-linecap:butt;stroke-linejoin:miter;stroke-opacity:1"/>
<path class="bond-0 atom-0 atom-1" d="M 413.3,83.0 L 421.1,88.1" style="fill:none;fill-rule:evenodd;stroke:#000000;stroke-width:2.0px;stroke-linecap:butt;stroke-linejoin:miter;stroke-opacity:1"/>
<path class="bond-1 atom-0 atom-26" d="M 397.3,80.5 L 395.0,83.9" style="fill:none;fill-rule:evenodd;stroke:#0000FF;stroke-width:2.0px;stroke-linecap:butt;stroke-linejoin:miter;stroke-opacity:1"/>
<path class="bond-1 atom-0 atom-26" d="M 395.0,83.9 L 392.6,87.2" style="fill:none;fill-rule:evenodd;stroke:#000000;stroke-width:2.0px;stroke-linecap:butt;stroke-linejoin:miter;stroke-opacity:1"/>
<path class="bond-2 atom-0 atom-27" d="M 396.9,74.7 L 390.1,74.3" style="fill:none;fill-rule:evenodd;stroke:#0000FF;stroke-width:2.0px;stroke-linecap:butt;stroke-linejoin:miter;stroke-opacity:1"/>
<path class="bond-2 atom-0 atom-27" d="M 390.1,74.3 L 383.3,73.8" style="fill:none;fill-rule:evenodd;stroke:#000000;stroke-width:2.0px;stroke-linecap:butt;stroke-linejoin:miter;stroke-opacity:1"/>
<path class="bond-3 atom-0 atom-47" d="M 401.5,69.6 L 401.8,63.9" style="fill:none;fill-rule:evenodd;stroke:#0000FF;stroke-width:2.0px;stroke-linecap:butt;stroke-linejoin:miter;stroke-opacity:1"/>
<path class="bond-3 atom-0 atom-47" d="M 401.8,63.9 L 402.1,58.2" style="fill:none;fill-rule:evenodd;stroke:#000000;stroke-width:2.0px;stroke-linecap:butt;stroke-linejoin:miter;stroke-opacity:1"/>
<path class="bond-4 atom-1 atom-2" d="M 421.1,88.1 L 420.7,111.9" style="fill:none;fill-rule:evenodd;stroke:#000000;stroke-width:2.0px;stroke-linecap:butt;stroke-linejoin:miter;stroke-opacity:1"/>
<path class="bond-5 atom-1 atom-28" d="M 421.1,88.1 L 438.8,88.3" style="fill:none;fill-rule:evenodd;stroke:#000000;stroke-width:2.0px;stroke-linecap:butt;stroke-linejoin:miter;stroke-opacity:1"/>
<path class="bond-6 atom-1 atom-29" d="M 421.1,88.1 L 429.4,74.5" style="fill:none;fill-rule:evenodd;stroke:#000000;stroke-width:2.0px;stroke-linecap:butt;stroke-linejoin:miter;stroke-opacity:1"/>
<path class="bond-7 atom-2 atom-3" d="M 420.7,111.9 L 412.8,132.9" style="fill:none;fill-rule:evenodd;stroke:#000000;stroke-width:2.0px;stroke-linecap:butt;stroke-linejoin:miter;stroke-opacity:1"/>
<path class="bond-8 atom-2 atom-25" d="M 420.7,111.9 L 429.2,110.5" style="fill:none;fill-rule:evenodd;stroke:#000000;stroke-width:2.0px;stroke-linecap:butt;stroke-linejoin:miter;stroke-opacity:1"/>
<path class="bond-8 atom-2 atom-25" d="M 429.2,110.5 L 437.7,109.1" style="fill:none;fill-rule:evenodd;stroke:#FF0000;stroke-width:2.0px;stroke-linecap:butt;stroke-linejoin:miter;stroke-opacity:1"/>
<path class="bond-9 atom-2 atom-30" d="M 420.7,111.9 L 404.6,110.0 L 405.7,105.7 Z" style="fill:#000000;fill-rule:evenodd;fill-opacity:1;stroke:#000000;stroke-width:1.0px;stroke-linecap:butt;stroke-linejoin:miter;stroke-opacity:1;"/>
<path class="bond-10 atom-3 atom-4" d="M 412.8,132.9 L 427.1,150.3" style="fill:none;fill-rule:evenodd;stroke:#000000;stroke-width:2.0px;stroke-linecap:butt;stroke-linejoin:miter;stroke-opacity:1"/>
<path class="bond-11 atom-3 atom-31" d="M 412.8,132.9 L 397.5,125.2" style="fill:none;fill-rule:evenodd;stroke:#000000;stroke-width:2.0px;stroke-linecap:butt;stroke-linejoin:miter;stroke-opacity:1"/>
<path class="bond-12 atom-3 atom-32" d="M 412.8,132.9 L 407.3,139.7" style="fill:none;fill-rule:evenodd;stroke:#000000;stroke-width:2.0px;stroke-linecap:butt;stroke-linejoin:miter;stroke-opacity:1"/>
<path class="bond-13 atom-4 atom-5" d="M 427.1,150.3 L 449.3,146.6" style="fill:none;fill-rule:evenodd;stroke:#000000;stroke-width:2.0px;stroke-linecap:butt;stroke-linejoin:miter;stroke-opacity:1"/>
<path class="bond-14 atom-4 atom-33" d="M 427.1,150.3 L 416.7,157.4" style="fill:none;fill-rule:evenodd;stroke:#000000;stroke-width:2.0px;stroke-linecap:butt;stroke-linejoin:miter;stroke-opacity:1"/>
<path class="bond-15 atom-4 atom-34" d="M 427.1,150.3 L 427.7,161.3" style="fill:none;fill-rule:evenodd;stroke:#000000;stroke-width:2.0px;stroke-linecap:butt;stroke-linejoin:miter;stroke-opacity:1"/>
<path class="bond-16 atom-5 atom-6" d="M 449.3,146.6 L 463.7,163.8" style="fill:none;fill-rule:evenodd;stroke:#000000;stroke-width:2.0px;stroke-linecap:butt;stroke-linejoin:miter;stroke-opacity:1"/>
<path class="bond-17 atom-5 atom-24" d="M 449.3,146.6 L 457.1,125.5" style="fill:none;fill-rule:evenodd;stroke:#000000;stroke-width:2.0px;stroke-linecap:butt;stroke-linejoin:miter;stroke-opacity:1"/>
<path class="bond-18 atom-5 atom-35" d="M 449.3,146.6 L 449.8,151.4 L 445.6,149.7 Z" style="fill:#000000;fill-rule:evenodd;fill-opacity:1;stroke:#000000;stroke-width:1.0px;stroke-linecap:butt;stroke-linejoin:miter;stroke-opacity:1;"/>
<path class="bond-19 atom-6 atom-7" d="M 463.7,163.8 L 414.7,192.5" style="fill:none;fill-rule:evenodd;stroke:#000000;stroke-width:2.0px;stroke-linecap:butt;stroke-linejoin:miter;stroke-opacity:1"/>
<path class="bond-20 atom-6 atom-13" d="M 463.7,163.8 L 472.6,162.2" style="fill:none;fill-rule:evenodd;stroke:#000000;stroke-width:2.0px;stroke-linecap:butt;stroke-linejoin:miter;stroke-opacity:1"/>
<path class="bond-20 atom-6 atom-13" d="M 472.6,162.2 L 481.6,160.5" style="fill:none;fill-rule:evenodd;stroke:#0000FF;stroke-width:2.0px;stroke-linecap:butt;stroke-linejoin:miter;stroke-opacity:1"/>
<path class="bond-21 atom-6 atom-36" d="M 464.8,168.9 L 466.2,168.4" style="fill:none;fill-rule:evenodd;stroke:#000000;stroke-width:1.0px;stroke-linecap:butt;stroke-linejoin:miter;stroke-opacity:1"/>
<path class="bond-21 atom-6 atom-36" d="M 465.9,174.1 L 468.7,173.1" style="fill:none;fill-rule:evenodd;stroke:#000000;stroke-width:1.0px;stroke-linecap:butt;stroke-linejoin:miter;stroke-opacity:1"/>
<path class="bond-21 atom-6 atom-36" d="M 467.0,179.3 L 471.2,177.7" style="fill:none;fill-rule:evenodd;stroke:#000000;stroke-width:1.0px;stroke-linecap:butt;stroke-linejoin:miter;stroke-opacity:1"/>
<path class="bond-22 atom-7 atom-8" d="M 414.7,192.5 L 395.6,180.8" style="fill:none;fill-rule:evenodd;stroke:#000000;stroke-width:2.0px;stroke-linecap:butt;stroke-linejoin:miter;stroke-opacity:1"/>
<path class="bond-22 atom-7 atom-8" d="M 409.8,194.2 L 396.3,186.0" style="fill:none;fill-rule:evenodd;stroke:#000000;stroke-width:2.0px;stroke-linecap:butt;stroke-linejoin:miter;stroke-opacity:1"/>
<path class="bond-23 atom-7 atom-12" d="M 414.7,192.5 L 413.9,214.8" style="fill:none;fill-rule:evenodd;stroke:#000000;stroke-width:2.0px;stroke-linecap:butt;stroke-linejoin:miter;stroke-opacity:1"/>
<path class="bond-24 atom-8 atom-9" d="M 395.6,180.8 L 375.9,191.3" style="fill:none;fill-rule:evenodd;stroke:#000000;stroke-width:2.0px;stroke-linecap:butt;stroke-linejoin:miter;stroke-opacity:1"/>
<path class="bond-25 atom-8 atom-37" d="M 395.6,180.8 L 394.8,166.3" style="fill:none;fill-rule:evenodd;stroke:#000000;stroke-width:2.0px;stroke-linecap:butt;stroke-linejoin:miter;stroke-opacity:1"/>
<path class="bond-26 atom-9 atom-10" d="M 375.9,191.3 L 375.2,213.6" style="fill:none;fill-rule:evenodd;stroke:#000000;stroke-width:2.0px;stroke-linecap:butt;stroke-linejoin:miter;stroke-opacity:1"/>
<path class="bond-26 atom-9 atom-10" d="M 379.8,194.8 L 379.3,210.4" style="fill:none;fill-rule:evenodd;stroke:#000000;stroke-width:2.0px;stroke-linecap:butt;stroke-linejoin:miter;stroke-opacity:1"/>
<path class="bond-27 atom-9 atom-38" d="M 375.9,191.3 L 361.5,182.3" style="fill:none;fill-rule:evenodd;stroke:#000000;stroke-width:2.0px;stroke-linecap:butt;stroke-linejoin:miter;stroke-opacity:1"/>
<path class="bond-28 atom-10 atom-11" d="M 375.2,213.6 L 394.2,225.4" style="fill:none;fill-rule:evenodd;stroke:#000000;stroke-width:2.0px;stroke-linecap:butt;stroke-linejoin:miter;stroke-opacity:1"/>
<path class="bond-29 atom-10 atom-39" d="M 375.2,213.6 L 360.0,221.6" style="fill:none;fill-rule:evenodd;stroke:#000000;stroke-width:2.0px;stroke-linecap:butt;stroke-linejoin:miter;stroke-opacity:1"/>
<path class="bond-30 atom-11 atom-12" d="M 394.2,225.4 L 413.9,214.8" style="fill:none;fill-rule:evenodd;stroke:#000000;stroke-width:2.0px;stroke-linecap:butt;stroke-linejoin:miter;stroke-opacity:1"/>
<path class="bond-30 atom-11 atom-12" d="M 395.3,220.3 L 409.1,212.8" style="fill:none;fill-rule:evenodd;stroke:#000000;stroke-width:2.0px;stroke-linecap:butt;stroke-linejoin:miter;stroke-opacity:1"/>
<path class="bond-31 atom-11 atom-40" d="M 394.2,225.4 L 393.6,242.1" style="fill:none;fill-rule:evenodd;stroke:#000000;stroke-width:2.0px;stroke-linecap:butt;stroke-linejoin:miter;stroke-opacity:1"/>
<path class="bond-32 atom-12 atom-41" d="M 413.9,214.8 L 428.3,223.9" style="fill:none;fill-rule:evenodd;stroke:#000000;stroke-width:2.0px;stroke-linecap:butt;stroke-linejoin:miter;stroke-opacity:1"/>
<path class="bond-33 atom-13 atom-14" d="M 487.9,154.3 L 490.7,146.3" style="fill:none;fill-rule:evenodd;stroke:#0000FF;stroke-width:2.0px;stroke-linecap:butt;stroke-linejoin:miter;stroke-opacity:1"/>
<path class="bond-33 atom-13 atom-14" d="M 490.7,146.3 L 493.5,138.3" style="fill:none;fill-rule:evenodd;stroke:#000000;stroke-width:2.0px;stroke-linecap:butt;stroke-linejoin:miter;stroke-opacity:1"/>
<path class="bond-34 atom-13 atom-42" d="M 490.3,164.8 L 493.1,168.1" style="fill:none;fill-rule:evenodd;stroke:#0000FF;stroke-width:2.0px;stroke-linecap:butt;stroke-linejoin:miter;stroke-opacity:1"/>
<path class="bond-34 atom-13 atom-42" d="M 493.1,168.1 L 496.0,171.4" style="fill:none;fill-rule:evenodd;stroke:#000000;stroke-width:2.0px;stroke-linecap:butt;stroke-linejoin:miter;stroke-opacity:1"/>
<path class="bond-35 atom-14 atom-15" d="M 493.5,138.3 L 515.4,133.9" style="fill:none;fill-rule:evenodd;stroke:#000000;stroke-width:2.0px;stroke-linecap:butt;stroke-linejoin:miter;stroke-opacity:1"/>
<path class="bond-35 atom-14 atom-15" d="M 496.0,133.7 L 511.3,130.6" style="fill:none;fill-rule:evenodd;stroke:#000000;stroke-width:2.0px;stroke-linecap:butt;stroke-linejoin:miter;stroke-opacity:1"/>
<path class="bond-36 atom-14 atom-23" d="M 493.5,138.3 L 478.9,121.4" style="fill:none;fill-rule:evenodd;stroke:#000000;stroke-width:2.0px;stroke-linecap:butt;stroke-linejoin:miter;stroke-opacity:1"/>
<path class="bond-37 atom-15 atom-16" d="M 515.4,133.9 L 522.7,112.7" style="fill:none;fill-rule:evenodd;stroke:#000000;stroke-width:2.0px;stroke-linecap:butt;stroke-linejoin:miter;stroke-opacity:1"/>
<path class="bond-38 atom-15 atom-43" d="M 515.4,133.9 L 525.6,145.6" style="fill:none;fill-rule:evenodd;stroke:#000000;stroke-width:2.0px;stroke-linecap:butt;stroke-linejoin:miter;stroke-opacity:1"/>
<path class="bond-39 atom-16 atom-17" d="M 522.7,112.7 L 508.0,95.9" style="fill:none;fill-rule:evenodd;stroke:#000000;stroke-width:2.0px;stroke-linecap:butt;stroke-linejoin:miter;stroke-opacity:1"/>
<path class="bond-39 atom-16 atom-17" d="M 517.4,112.8 L 507.2,101.1" style="fill:none;fill-rule:evenodd;stroke:#000000;stroke-width:2.0px;stroke-linecap:butt;stroke-linejoin:miter;stroke-opacity:1"/>
<path class="bond-40 atom-16 atom-44" d="M 522.7,112.7 L 540.0,109.3" style="fill:none;fill-rule:evenodd;stroke:#000000;stroke-width:2.0px;stroke-linecap:butt;stroke-linejoin:miter;stroke-opacity:1"/>
<path class="bond-41 atom-17 atom-18" d="M 508.0,95.9 L 515.3,74.4" style="fill:none;fill-rule:evenodd;stroke:#000000;stroke-width:2.0px;stroke-linecap:butt;stroke-linejoin:miter;stroke-opacity:1"/>
<path class="bond-42 atom-17 atom-22" d="M 508.0,95.9 L 486.1,100.2" style="fill:none;fill-rule:evenodd;stroke:#000000;stroke-width:2.0px;stroke-linecap:butt;stroke-linejoin:miter;stroke-opacity:1"/>
<path class="bond-43 atom-18 atom-19" d="M 515.3,74.4 L 506.6,71.3" style="fill:none;fill-rule:evenodd;stroke:#000000;stroke-width:2.0px;stroke-linecap:butt;stroke-linejoin:miter;stroke-opacity:1"/>
<path class="bond-43 atom-18 atom-19" d="M 506.6,71.3 L 497.8,68.3" style="fill:none;fill-rule:evenodd;stroke:#33CCCC;stroke-width:2.0px;stroke-linecap:butt;stroke-linejoin:miter;stroke-opacity:1"/>
<path class="bond-44 atom-18 atom-20" d="M 515.3,74.4 L 513.7,66.1" style="fill:none;fill-rule:evenodd;stroke:#000000;stroke-width:2.0px;stroke-linecap:butt;stroke-linejoin:miter;stroke-opacity:1"/>
<path class="bond-44 atom-18 atom-20" d="M 513.7,66.1 L 512.2,57.9" style="fill:none;fill-rule:evenodd;stroke:#33CCCC;stroke-width:2.0px;stroke-linecap:butt;stroke-linejoin:miter;stroke-opacity:1"/>
<path class="bond-45 atom-18 atom-21" d="M 515.3,74.4 L 524.5,72.6" style="fill:none;fill-rule:evenodd;stroke:#000000;stroke-width:2.0px;stroke-linecap:butt;stroke-linejoin:miter;stroke-opacity:1"/>
<path class="bond-45 atom-18 atom-21" d="M 524.5,72.6 L 533.6,70.8" style="fill:none;fill-rule:evenodd;stroke:#33CCCC;stroke-width:2.0px;stroke-linecap:butt;stroke-linejoin:miter;stroke-opacity:1"/>
<path class="bond-46 atom-22 atom-23" d="M 486.1,100.2 L 478.9,121.4" style="fill:none;fill-rule:evenodd;stroke:#000000;stroke-width:2.0px;stroke-linecap:butt;stroke-linejoin:miter;stroke-opacity:1"/>
<path class="bond-46 atom-22 atom-23" d="M 488.8,104.7 L 483.8,119.5" style="fill:none;fill-rule:evenodd;stroke:#000000;stroke-width:2.0px;stroke-linecap:butt;stroke-linejoin:miter;stroke-opacity:1"/>
<path class="bond-47 atom-22 atom-45" d="M 486.1,100.2 L 475.9,88.6" style="fill:none;fill-rule:evenodd;stroke:#000000;stroke-width:2.0px;stroke-linecap:butt;stroke-linejoin:miter;stroke-opacity:1"/>
<path class="bond-48 atom-23 atom-24" d="M 478.9,121.4 L 457.1,125.5" style="fill:none;fill-rule:evenodd;stroke:#000000;stroke-width:2.0px;stroke-linecap:butt;stroke-linejoin:miter;stroke-opacity:1"/>
<path class="bond-49 atom-24 atom-25" d="M 457.1,125.5 L 452.3,119.8" style="fill:none;fill-rule:evenodd;stroke:#000000;stroke-width:2.0px;stroke-linecap:butt;stroke-linejoin:miter;stroke-opacity:1"/>
<path class="bond-49 atom-24 atom-25" d="M 452.3,119.8 L 447.5,114.0" style="fill:none;fill-rule:evenodd;stroke:#FF0000;stroke-width:2.0px;stroke-linecap:butt;stroke-linejoin:miter;stroke-opacity:1"/>
<path class="bond-50 atom-24 atom-46" d="M 457.1,125.5 L 460.3,110.1 L 464.5,111.6 Z" style="fill:#000000;fill-rule:evenodd;fill-opacity:1;stroke:#000000;stroke-width:1.0px;stroke-linecap:butt;stroke-linejoin:miter;stroke-opacity:1;"/>
<path class="atom-0" d="M 399.1 70.3 L 402.2 75.3 Q 402.5 75.8, 403.0 76.7 Q 403.5 77.6, 403.5 77.7 L 403.5 70.3 L 404.8 70.3 L 404.8 79.8 L 403.5 79.8 L 400.1 74.3 Q 399.8 73.7, 399.3 72.9 Q 398.9 72.2, 398.8 72.0 L 398.8 79.8 L 397.6 79.8 L 397.6 70.3 L 399.1 70.3 " fill="#0000FF"/>
<path class="atom-0" d="M 405.9 72.0 L 407.5 72.0 L 407.5 70.3 L 408.3 70.3 L 408.3 72.0 L 410.0 72.0 L 410.0 72.7 L 408.3 72.7 L 408.3 74.4 L 407.5 74.4 L 407.5 72.7 L 405.9 72.7 L 405.9 72.0 " fill="#0000FF"/>
<path class="atom-13" d="M 483.9 155.0 L 486.9 160.0 Q 487.3 160.5, 487.8 161.4 Q 488.2 162.3, 488.3 162.3 L 488.3 155.0 L 489.5 155.0 L 489.5 164.4 L 488.2 164.4 L 484.9 159.0 Q 484.5 158.3, 484.1 157.6 Q 483.7 156.9, 483.6 156.6 L 483.6 164.4 L 482.4 164.4 L 482.4 155.0 L 483.9 155.0 " fill="#0000FF"/>
<path class="atom-19" d="M 491.5 62.3 L 497.1 62.3 L 497.1 63.4 L 492.8 63.4 L 492.8 66.2 L 496.6 66.2 L 496.6 67.3 L 492.8 67.3 L 492.8 71.8 L 491.5 71.8 L 491.5 62.3 " fill="#33CCCC"/>
<path class="atom-20" d="M 508.3 47.7 L 513.9 47.7 L 513.9 48.8 L 509.6 48.8 L 509.6 51.6 L 513.5 51.6 L 513.5 52.7 L 509.6 52.7 L 509.6 57.1 L 508.3 57.1 L 508.3 47.7 " fill="#33CCCC"/>
<path class="atom-21" d="M 534.4 65.3 L 540.0 65.3 L 540.0 66.4 L 535.7 66.4 L 535.7 69.3 L 539.5 69.3 L 539.5 70.4 L 535.7 70.4 L 535.7 74.8 L 534.4 74.8 L 534.4 65.3 " fill="#33CCCC"/>
<path class="atom-25" d="M 438.4 108.3 Q 438.4 106.0, 439.5 104.8 Q 440.6 103.5, 442.7 103.5 Q 444.8 103.5, 446.0 104.8 Q 447.1 106.0, 447.1 108.3 Q 447.1 110.6, 445.9 111.9 Q 444.8 113.2, 442.7 113.2 Q 440.7 113.2, 439.5 111.9 Q 438.4 110.6, 438.4 108.3 M 442.7 112.1 Q 444.2 112.1, 445.0 111.2 Q 445.7 110.2, 445.7 108.3 Q 445.7 106.5, 445.0 105.5 Q 444.2 104.6, 442.7 104.6 Q 441.3 104.6, 440.5 105.5 Q 439.7 106.4, 439.7 108.3 Q 439.7 110.2, 440.5 111.2 Q 441.3 112.1, 442.7 112.1 " fill="#FF0000"/>
<path class="atom-26" d="M 385.1 88.0 L 386.4 88.0 L 386.4 92.0 L 391.2 92.0 L 391.2 88.0 L 392.5 88.0 L 392.5 97.4 L 391.2 97.4 L 391.2 93.1 L 386.4 93.1 L 386.4 97.4 L 385.1 97.4 L 385.1 88.0 " fill="#000000"/>
<path class="atom-27" d="M 375.1 68.8 L 376.4 68.8 L 376.4 72.8 L 381.3 72.8 L 381.3 68.8 L 382.5 68.8 L 382.5 78.2 L 381.3 78.2 L 381.3 73.9 L 376.4 73.9 L 376.4 78.2 L 375.1 78.2 L 375.1 68.8 " fill="#000000"/>
<path class="atom-28" d="M 439.6 83.7 L 440.8 83.7 L 440.8 87.7 L 445.7 87.7 L 445.7 83.7 L 447.0 83.7 L 447.0 93.1 L 445.7 93.1 L 445.7 88.8 L 440.8 88.8 L 440.8 93.1 L 439.6 93.1 L 439.6 83.7 " fill="#000000"/>
<path class="atom-29" d="M 429.1 64.3 L 430.4 64.3 L 430.4 68.4 L 435.2 68.4 L 435.2 64.3 L 436.5 64.3 L 436.5 73.8 L 435.2 73.8 L 435.2 69.4 L 430.4 69.4 L 430.4 73.8 L 429.1 73.8 L 429.1 64.3 " fill="#000000"/>
<path class="atom-30" d="M 396.3 101.8 L 397.5 101.8 L 397.5 105.8 L 402.4 105.8 L 402.4 101.8 L 403.7 101.8 L 403.7 111.2 L 402.4 111.2 L 402.4 106.9 L 397.5 106.9 L 397.5 111.2 L 396.3 111.2 L 396.3 101.8 " fill="#000000"/>
<path class="atom-31" d="M 389.4 118.3 L 390.7 118.3 L 390.7 122.3 L 395.5 122.3 L 395.5 118.3 L 396.8 118.3 L 396.8 127.7 L 395.5 127.7 L 395.5 123.4 L 390.7 123.4 L 390.7 127.7 L 389.4 127.7 L 389.4 118.3 " fill="#000000"/>
<path class="atom-32" d="M 399.1 140.5 L 400.4 140.5 L 400.4 144.5 L 405.3 144.5 L 405.3 140.5 L 406.5 140.5 L 406.5 149.9 L 405.3 149.9 L 405.3 145.6 L 400.4 145.6 L 400.4 149.9 L 399.1 149.9 L 399.1 140.5 " fill="#000000"/>
<path class="atom-33" d="M 408.6 155.6 L 409.8 155.6 L 409.8 159.7 L 414.7 159.7 L 414.7 155.6 L 415.9 155.6 L 415.9 165.1 L 414.7 165.1 L 414.7 160.7 L 409.8 160.7 L 409.8 165.1 L 408.6 165.1 L 408.6 155.6 " fill="#000000"/>
<path class="atom-34" d="M 424.3 162.0 L 425.6 162.0 L 425.6 166.0 L 430.5 166.0 L 430.5 162.0 L 431.7 162.0 L 431.7 171.5 L 430.5 171.5 L 430.5 167.1 L 425.6 167.1 L 425.6 171.5 L 424.3 171.5 L 424.3 162.0 " fill="#000000"/>
<path class="atom-35" d="M 441.5 152.0 L 442.8 152.0 L 442.8 156.1 L 447.6 156.1 L 447.6 152.0 L 448.9 152.0 L 448.9 161.5 L 447.6 161.5 L 447.6 157.1 L 442.8 157.1 L 442.8 161.5 L 441.5 161.5 L 441.5 152.0 " fill="#000000"/>
<path class="atom-36" d="M 467.7 179.9 L 469.0 179.9 L 469.0 184.0 L 473.9 184.0 L 473.9 179.9 L 475.1 179.9 L 475.1 189.4 L 473.9 189.4 L 473.9 185.0 L 469.0 185.0 L 469.0 189.4 L 467.7 189.4 L 467.7 179.9 " fill="#000000"/>
<path class="atom-37" d="M 390.8 156.1 L 392.1 156.1 L 392.1 160.1 L 396.9 160.1 L 396.9 156.1 L 398.2 156.1 L 398.2 165.5 L 396.9 165.5 L 396.9 161.2 L 392.1 161.2 L 392.1 165.5 L 390.8 165.5 L 390.8 156.1 " fill="#000000"/>
<path class="atom-38" d="M 353.4 174.8 L 354.6 174.8 L 354.6 178.8 L 359.5 178.8 L 359.5 174.8 L 360.8 174.8 L 360.8 184.2 L 359.5 184.2 L 359.5 179.8 L 354.6 179.8 L 354.6 184.2 L 353.4 184.2 L 353.4 174.8 " fill="#000000"/>
<path class="atom-39" d="M 351.8 219.3 L 353.1 219.3 L 353.1 223.3 L 357.9 223.3 L 357.9 219.3 L 359.2 219.3 L 359.2 228.7 L 357.9 228.7 L 357.9 224.4 L 353.1 224.4 L 353.1 228.7 L 351.8 228.7 L 351.8 219.3 " fill="#000000"/>
<path class="atom-40" d="M 389.7 242.9 L 390.9 242.9 L 390.9 246.9 L 395.8 246.9 L 395.8 242.9 L 397.0 242.9 L 397.0 252.3 L 395.8 252.3 L 395.8 247.9 L 390.9 247.9 L 390.9 252.3 L 389.7 252.3 L 389.7 242.9 " fill="#000000"/>
<path class="atom-41" d="M 429.1 222.0 L 430.4 222.0 L 430.4 226.0 L 435.2 226.0 L 435.2 222.0 L 436.5 222.0 L 436.5 231.4 L 435.2 231.4 L 435.2 227.1 L 430.4 227.1 L 430.4 231.4 L 429.1 231.4 L 429.1 222.0 " fill="#000000"/>
<path class="atom-42" d="M 496.7 171.9 L 498.0 171.9 L 498.0 175.9 L 502.8 175.9 L 502.8 171.9 L 504.1 171.9 L 504.1 181.4 L 502.8 181.4 L 502.8 177.0 L 498.0 177.0 L 498.0 181.4 L 496.7 181.4 L 496.7 171.9 " fill="#000000"/>
<path class="atom-43" d="M 526.3 145.9 L 527.6 145.9 L 527.6 149.9 L 532.5 149.9 L 532.5 145.9 L 533.7 145.9 L 533.7 155.4 L 532.5 155.4 L 532.5 151.0 L 527.6 151.0 L 527.6 155.4 L 526.3 155.4 L 526.3 145.9 " fill="#000000"/>
<path class="atom-44" d="M 540.8 103.7 L 542.1 103.7 L 542.1 107.7 L 546.9 107.7 L 546.9 103.7 L 548.2 103.7 L 548.2 113.1 L 546.9 113.1 L 546.9 108.8 L 542.1 108.8 L 542.1 113.1 L 540.8 113.1 L 540.8 103.7 " fill="#000000"/>
<path class="atom-45" d="M 467.7 78.8 L 469.0 78.8 L 469.0 82.8 L 473.8 82.8 L 473.8 78.8 L 475.1 78.8 L 475.1 88.2 L 473.8 88.2 L 473.8 83.9 L 469.0 83.9 L 469.0 88.2 L 467.7 88.2 L 467.7 78.8 " fill="#000000"/>
<path class="atom-46" d="M 460.9 99.9 L 462.2 99.9 L 462.2 103.9 L 467.0 103.9 L 467.0 99.9 L 468.3 99.9 L 468.3 109.3 L 467.0 109.3 L 467.0 105.0 L 462.2 105.0 L 462.2 109.3 L 460.9 109.3 L 460.9 99.9 " fill="#000000"/>
<path class="atom-47" d="M 398.7 48.0 L 399.9 48.0 L 399.9 52.1 L 404.8 52.1 L 404.8 48.0 L 406.1 48.0 L 406.1 57.5 L 404.8 57.5 L 404.8 53.1 L 399.9 53.1 L 399.9 57.5 L 398.7 57.5 L 398.7 48.0 " fill="#000000"/>
<text x="300" y="20" font-size="20" font-family="sans-serif" font-weight="normal" letter-spacing="0" text-anchor="middle" fill="black">eg5 CHEMBL1083517 -&gt; CHEMBL1085666 </text><text x="150" y="285" font-size="15" font-family="sans-serif" font-weight="normal" letter-spacing="0" text-anchor="middle" fill="black">CHEMBL1083517</text><text x="450" y="285" font-size="15" font-family="sans-serif" font-weight="normal" letter-spacing="0" text-anchor="middle" fill="black">CHEMBL1085666</text><text x="300" y="35" font-size="15" font-family="sans-serif" font-weight="normal" letter-spacing="0" text-anchor="middle" fill="black">DDG(EXP)=1.0;DDG(OFF1)=-0.6;DDG(OFF2)=0.9</text></svg>
