<?xml version='1.0' encoding='ASCII' standalone='yes'?>
<svg xmlns="http://www.w3.org/2000/svg" xmlns:rdkit="http://www.rdkit.org/xml" xmlns:xlink="http://www.w3.org/1999/xlink" version="1.1" baseProfile="full" xml:space="preserve" width="400px" height="200px" viewBox="0 0 600 300">
<!-- END OF HEADER -->
<rect style="opacity:1.0;fill:#FFFFFF;stroke:none" width="600.0" height="300.0" x="0.0" y="0.0"> </rect>
<ellipse cx="159.4" cy="194.3" rx="6.7" ry="6.7" class="atom-13" style="fill:#B8A444;fill-rule:evenodd;stroke:#B8A444;stroke-width:1.0px;stroke-linecap:butt;stroke-linejoin:miter;stroke-opacity:1"/>
<ellipse cx="122.8" cy="233.2" rx="6.7" ry="6.7" class="atom-16" style="fill:#588A93;fill-rule:evenodd;stroke:#588A93;stroke-width:1.0px;stroke-linecap:butt;stroke-linejoin:miter;stroke-opacity:1"/>
<ellipse cx="182.1" cy="144.6" rx="6.7" ry="6.7" class="atom-22" style="fill:#DC3369;fill-rule:evenodd;stroke:#DC3369;stroke-width:1.0px;stroke-linecap:butt;stroke-linejoin:miter;stroke-opacity:1"/>
<ellipse cx="186.4" cy="122.6" rx="6.7" ry="6.7" class="atom-23" style="fill:#DC3369;fill-rule:evenodd;stroke:#DC3369;stroke-width:1.0px;stroke-linecap:butt;stroke-linejoin:miter;stroke-opacity:1"/>
<ellipse cx="115.4" cy="252.0" rx="6.7" ry="6.7" class="atom-24" style="fill:#DC3369;fill-rule:evenodd;stroke:#DC3369;stroke-width:1.0px;stroke-linecap:butt;stroke-linejoin:miter;stroke-opacity:1"/>
<ellipse cx="164.0" cy="62.5" rx="6.7" ry="6.7" class="atom-25" style="fill:#DC3369;fill-rule:evenodd;stroke:#DC3369;stroke-width:1.0px;stroke-linecap:butt;stroke-linejoin:miter;stroke-opacity:1"/>
<ellipse cx="204.0" cy="116.6" rx="6.7" ry="6.7" class="atom-28" style="fill:#DC3369;fill-rule:evenodd;stroke:#DC3369;stroke-width:1.0px;stroke-linecap:butt;stroke-linejoin:miter;stroke-opacity:1"/>
<path class="bond-0 atom-0 atom-1" d="M 183.5,103.7 L 174.6,106.0" style="fill:none;fill-rule:evenodd;stroke:#FF0000;stroke-width:2.0px;stroke-linecap:butt;stroke-linejoin:miter;stroke-opacity:1"/>
<path class="bond-0 atom-0 atom-1" d="M 174.6,106.0 L 165.6,108.3" style="fill:none;fill-rule:evenodd;stroke:#000000;stroke-width:2.0px;stroke-linecap:butt;stroke-linejoin:miter;stroke-opacity:1"/>
<path class="bond-1 atom-0 atom-28" d="M 192.8,106.6 L 196.4,109.8" style="fill:none;fill-rule:evenodd;stroke:#FF0000;stroke-width:2.0px;stroke-linecap:butt;stroke-linejoin:miter;stroke-opacity:1"/>
<path class="bond-1 atom-0 atom-28" d="M 196.4,109.8 L 200.0,113.0" style="fill:none;fill-rule:evenodd;stroke:#000000;stroke-width:2.0px;stroke-linecap:butt;stroke-linejoin:miter;stroke-opacity:1"/>
<path class="bond-2 atom-1 atom-2" d="M 165.6,108.3 L 171.6,127.6" style="fill:none;fill-rule:evenodd;stroke:#000000;stroke-width:2.0px;stroke-linecap:butt;stroke-linejoin:miter;stroke-opacity:1"/>
<path class="bond-3 atom-1 atom-5" d="M 165.6,108.3 L 145.3,108.0" style="fill:none;fill-rule:evenodd;stroke:#000000;stroke-width:2.0px;stroke-linecap:butt;stroke-linejoin:miter;stroke-opacity:1"/>
<path class="bond-4 atom-1 atom-29" d="M 165.6,108.3 L 162.6,98.2 L 166.7,97.8 Z" style="fill:#000000;fill-rule:evenodd;fill-opacity:1;stroke:#000000;stroke-width:1.0px;stroke-linecap:butt;stroke-linejoin:miter;stroke-opacity:1;"/>
<path class="bond-5 atom-2 atom-3" d="M 171.6,127.6 L 155.1,139.3" style="fill:none;fill-rule:evenodd;stroke:#000000;stroke-width:2.0px;stroke-linecap:butt;stroke-linejoin:miter;stroke-opacity:1"/>
<path class="bond-6 atom-2 atom-22" d="M 171.6,127.6 L 175.3,133.6" style="fill:none;fill-rule:evenodd;stroke:#000000;stroke-width:2.0px;stroke-linecap:butt;stroke-linejoin:miter;stroke-opacity:1"/>
<path class="bond-6 atom-2 atom-22" d="M 175.3,133.6 L 179.0,139.6" style="fill:none;fill-rule:evenodd;stroke:#33CCCC;stroke-width:2.0px;stroke-linecap:butt;stroke-linejoin:miter;stroke-opacity:1"/>
<path class="bond-7 atom-2 atom-23" d="M 171.6,127.6 L 177.4,125.6" style="fill:none;fill-rule:evenodd;stroke:#000000;stroke-width:2.0px;stroke-linecap:butt;stroke-linejoin:miter;stroke-opacity:1"/>
<path class="bond-7 atom-2 atom-23" d="M 177.4,125.6 L 183.2,123.7" style="fill:none;fill-rule:evenodd;stroke:#33CCCC;stroke-width:2.0px;stroke-linecap:butt;stroke-linejoin:miter;stroke-opacity:1"/>
<path class="bond-8 atom-3 atom-4" d="M 155.1,139.3 L 138.9,127.3" style="fill:none;fill-rule:evenodd;stroke:#000000;stroke-width:2.0px;stroke-linecap:butt;stroke-linejoin:miter;stroke-opacity:1"/>
<path class="bond-9 atom-3 atom-30" d="M 155.1,139.3 L 145.0,149.6" style="fill:none;fill-rule:evenodd;stroke:#000000;stroke-width:2.0px;stroke-linecap:butt;stroke-linejoin:miter;stroke-opacity:1"/>
<path class="bond-10 atom-3 atom-31" d="M 155.1,139.3 L 164.9,149.7" style="fill:none;fill-rule:evenodd;stroke:#000000;stroke-width:2.0px;stroke-linecap:butt;stroke-linejoin:miter;stroke-opacity:1"/>
<path class="bond-11 atom-4 atom-5" d="M 138.9,127.3 L 145.3,108.0" style="fill:none;fill-rule:evenodd;stroke:#000000;stroke-width:2.0px;stroke-linecap:butt;stroke-linejoin:miter;stroke-opacity:1"/>
<path class="bond-11 atom-4 atom-5" d="M 136.4,123.2 L 140.9,109.8" style="fill:none;fill-rule:evenodd;stroke:#000000;stroke-width:2.0px;stroke-linecap:butt;stroke-linejoin:miter;stroke-opacity:1"/>
<path class="bond-12 atom-4 atom-9" d="M 138.9,127.3 L 119.2,131.4" style="fill:none;fill-rule:evenodd;stroke:#000000;stroke-width:2.0px;stroke-linecap:butt;stroke-linejoin:miter;stroke-opacity:1"/>
<path class="bond-13 atom-5 atom-6" d="M 145.3,108.0 L 131.8,93.0" style="fill:none;fill-rule:evenodd;stroke:#000000;stroke-width:2.0px;stroke-linecap:butt;stroke-linejoin:miter;stroke-opacity:1"/>
<path class="bond-14 atom-6 atom-7" d="M 131.8,93.0 L 112.0,97.1" style="fill:none;fill-rule:evenodd;stroke:#000000;stroke-width:2.0px;stroke-linecap:butt;stroke-linejoin:miter;stroke-opacity:1"/>
<path class="bond-14 atom-6 atom-7" d="M 129.6,97.1 L 115.8,100.0" style="fill:none;fill-rule:evenodd;stroke:#000000;stroke-width:2.0px;stroke-linecap:butt;stroke-linejoin:miter;stroke-opacity:1"/>
<path class="bond-15 atom-6 atom-18" d="M 131.8,93.0 L 134.1,85.5" style="fill:none;fill-rule:evenodd;stroke:#000000;stroke-width:2.0px;stroke-linecap:butt;stroke-linejoin:miter;stroke-opacity:1"/>
<path class="bond-15 atom-6 atom-18" d="M 134.1,85.5 L 136.4,78.1" style="fill:none;fill-rule:evenodd;stroke:#CCCC00;stroke-width:2.0px;stroke-linecap:butt;stroke-linejoin:miter;stroke-opacity:1"/>
<path class="bond-16 atom-7 atom-8" d="M 112.0,97.1 L 105.8,116.4" style="fill:none;fill-rule:evenodd;stroke:#000000;stroke-width:2.0px;stroke-linecap:butt;stroke-linejoin:miter;stroke-opacity:1"/>
<path class="bond-17 atom-7 atom-32" d="M 112.0,97.1 L 102.6,86.6" style="fill:none;fill-rule:evenodd;stroke:#000000;stroke-width:2.0px;stroke-linecap:butt;stroke-linejoin:miter;stroke-opacity:1"/>
<path class="bond-18 atom-8 atom-9" d="M 105.8,116.4 L 119.2,131.4" style="fill:none;fill-rule:evenodd;stroke:#000000;stroke-width:2.0px;stroke-linecap:butt;stroke-linejoin:miter;stroke-opacity:1"/>
<path class="bond-18 atom-8 atom-9" d="M 110.5,116.2 L 119.9,126.7" style="fill:none;fill-rule:evenodd;stroke:#000000;stroke-width:2.0px;stroke-linecap:butt;stroke-linejoin:miter;stroke-opacity:1"/>
<path class="bond-19 atom-8 atom-33" d="M 105.8,116.4 L 90.0,119.7" style="fill:none;fill-rule:evenodd;stroke:#000000;stroke-width:2.0px;stroke-linecap:butt;stroke-linejoin:miter;stroke-opacity:1"/>
<path class="bond-20 atom-9 atom-10" d="M 119.2,131.4 L 116.5,141.8" style="fill:none;fill-rule:evenodd;stroke:#000000;stroke-width:2.0px;stroke-linecap:butt;stroke-linejoin:miter;stroke-opacity:1"/>
<path class="bond-20 atom-9 atom-10" d="M 116.5,141.8 L 113.7,152.2" style="fill:none;fill-rule:evenodd;stroke:#FF0000;stroke-width:2.0px;stroke-linecap:butt;stroke-linejoin:miter;stroke-opacity:1"/>
<path class="bond-21 atom-10 atom-11" d="M 115.8,162.4 L 121.7,171.0" style="fill:none;fill-rule:evenodd;stroke:#FF0000;stroke-width:2.0px;stroke-linecap:butt;stroke-linejoin:miter;stroke-opacity:1"/>
<path class="bond-21 atom-10 atom-11" d="M 121.7,171.0 L 127.5,179.6" style="fill:none;fill-rule:evenodd;stroke:#000000;stroke-width:2.0px;stroke-linecap:butt;stroke-linejoin:miter;stroke-opacity:1"/>
<path class="bond-22 atom-11 atom-12" d="M 127.5,179.6 L 147.7,177.8" style="fill:none;fill-rule:evenodd;stroke:#000000;stroke-width:2.0px;stroke-linecap:butt;stroke-linejoin:miter;stroke-opacity:1"/>
<path class="bond-22 atom-11 atom-12" d="M 130.9,183.0 L 145.0,181.7" style="fill:none;fill-rule:evenodd;stroke:#000000;stroke-width:2.0px;stroke-linecap:butt;stroke-linejoin:miter;stroke-opacity:1"/>
<path class="bond-23 atom-11 atom-17" d="M 127.5,179.6 L 119.0,198.1" style="fill:none;fill-rule:evenodd;stroke:#000000;stroke-width:2.0px;stroke-linecap:butt;stroke-linejoin:miter;stroke-opacity:1"/>
<path class="bond-24 atom-12 atom-13" d="M 147.7,177.8 L 151.8,183.6" style="fill:none;fill-rule:evenodd;stroke:#000000;stroke-width:2.0px;stroke-linecap:butt;stroke-linejoin:miter;stroke-opacity:1"/>
<path class="bond-24 atom-12 atom-13" d="M 151.8,183.6 L 155.9,189.4" style="fill:none;fill-rule:evenodd;stroke:#0000FF;stroke-width:2.0px;stroke-linecap:butt;stroke-linejoin:miter;stroke-opacity:1"/>
<path class="bond-25 atom-12 atom-34" d="M 147.7,177.8 L 152.6,167.6" style="fill:none;fill-rule:evenodd;stroke:#000000;stroke-width:2.0px;stroke-linecap:butt;stroke-linejoin:miter;stroke-opacity:1"/>
<path class="bond-26 atom-13 atom-14" d="M 157.1,199.3 L 154.0,206.0" style="fill:none;fill-rule:evenodd;stroke:#0000FF;stroke-width:2.0px;stroke-linecap:butt;stroke-linejoin:miter;stroke-opacity:1"/>
<path class="bond-26 atom-13 atom-14" d="M 154.0,206.0 L 150.9,212.7" style="fill:none;fill-rule:evenodd;stroke:#000000;stroke-width:2.0px;stroke-linecap:butt;stroke-linejoin:miter;stroke-opacity:1"/>
<path class="bond-26 atom-13 atom-14" d="M 152.9,199.8 L 150.7,204.5" style="fill:none;fill-rule:evenodd;stroke:#0000FF;stroke-width:2.0px;stroke-linecap:butt;stroke-linejoin:miter;stroke-opacity:1"/>
<path class="bond-26 atom-13 atom-14" d="M 150.7,204.5 L 148.5,209.2" style="fill:none;fill-rule:evenodd;stroke:#000000;stroke-width:2.0px;stroke-linecap:butt;stroke-linejoin:miter;stroke-opacity:1"/>
<path class="bond-27 atom-14 atom-15" d="M 150.9,212.7 L 130.7,214.6" style="fill:none;fill-rule:evenodd;stroke:#000000;stroke-width:2.0px;stroke-linecap:butt;stroke-linejoin:miter;stroke-opacity:1"/>
<path class="bond-28 atom-14 atom-35" d="M 150.9,212.7 L 159.1,224.2" style="fill:none;fill-rule:evenodd;stroke:#000000;stroke-width:2.0px;stroke-linecap:butt;stroke-linejoin:miter;stroke-opacity:1"/>
<path class="bond-29 atom-15 atom-16" d="M 130.7,214.6 L 122.8,233.2" style="fill:none;fill-rule:evenodd;stroke:#000000;stroke-width:2.0px;stroke-linecap:butt;stroke-linejoin:miter;stroke-opacity:1"/>
<path class="bond-30 atom-15 atom-17" d="M 130.7,214.6 L 119.0,198.1" style="fill:none;fill-rule:evenodd;stroke:#000000;stroke-width:2.0px;stroke-linecap:butt;stroke-linejoin:miter;stroke-opacity:1"/>
<path class="bond-30 atom-15 atom-17" d="M 131.9,210.0 L 123.7,198.4" style="fill:none;fill-rule:evenodd;stroke:#000000;stroke-width:2.0px;stroke-linecap:butt;stroke-linejoin:miter;stroke-opacity:1"/>
<path class="bond-31 atom-16 atom-24" d="M 122.8,233.2 L 120.1,240.1" style="fill:none;fill-rule:evenodd;stroke:#000000;stroke-width:2.0px;stroke-linecap:butt;stroke-linejoin:miter;stroke-opacity:1"/>
<path class="bond-31 atom-16 atom-24" d="M 120.1,240.1 L 117.3,247.1" style="fill:none;fill-rule:evenodd;stroke:#0000FF;stroke-width:2.0px;stroke-linecap:butt;stroke-linejoin:miter;stroke-opacity:1"/>
<path class="bond-31 atom-16 atom-24" d="M 125.4,236.6 L 123.0,242.5" style="fill:none;fill-rule:evenodd;stroke:#000000;stroke-width:2.0px;stroke-linecap:butt;stroke-linejoin:miter;stroke-opacity:1"/>
<path class="bond-31 atom-16 atom-24" d="M 123.0,242.5 L 120.7,248.4" style="fill:none;fill-rule:evenodd;stroke:#0000FF;stroke-width:2.0px;stroke-linecap:butt;stroke-linejoin:miter;stroke-opacity:1"/>
<path class="bond-31 atom-16 atom-24" d="M 118.6,234.0 L 116.3,239.8" style="fill:none;fill-rule:evenodd;stroke:#000000;stroke-width:2.0px;stroke-linecap:butt;stroke-linejoin:miter;stroke-opacity:1"/>
<path class="bond-31 atom-16 atom-24" d="M 116.3,239.8 L 114.0,245.7" style="fill:none;fill-rule:evenodd;stroke:#0000FF;stroke-width:2.0px;stroke-linecap:butt;stroke-linejoin:miter;stroke-opacity:1"/>
<path class="bond-32 atom-17 atom-36" d="M 119.0,198.1 L 102.9,199.6" style="fill:none;fill-rule:evenodd;stroke:#000000;stroke-width:2.0px;stroke-linecap:butt;stroke-linejoin:miter;stroke-opacity:1"/>
<path class="bond-33 atom-18 atom-19" d="M 142.0,72.4 L 146.6,74.0" style="fill:none;fill-rule:evenodd;stroke:#CCCC00;stroke-width:2.0px;stroke-linecap:butt;stroke-linejoin:miter;stroke-opacity:1"/>
<path class="bond-33 atom-18 atom-19" d="M 146.6,74.0 L 151.2,75.6" style="fill:none;fill-rule:evenodd;stroke:#FF0000;stroke-width:2.0px;stroke-linecap:butt;stroke-linejoin:miter;stroke-opacity:1"/>
<path class="bond-33 atom-18 atom-19" d="M 140.8,75.8 L 145.4,77.4" style="fill:none;fill-rule:evenodd;stroke:#CCCC00;stroke-width:2.0px;stroke-linecap:butt;stroke-linejoin:miter;stroke-opacity:1"/>
<path class="bond-33 atom-18 atom-19" d="M 145.4,77.4 L 150.0,79.1" style="fill:none;fill-rule:evenodd;stroke:#FF0000;stroke-width:2.0px;stroke-linecap:butt;stroke-linejoin:miter;stroke-opacity:1"/>
<path class="bond-34 atom-18 atom-20" d="M 134.0,73.4 L 128.5,71.5" style="fill:none;fill-rule:evenodd;stroke:#CCCC00;stroke-width:2.0px;stroke-linecap:butt;stroke-linejoin:miter;stroke-opacity:1"/>
<path class="bond-34 atom-18 atom-20" d="M 128.5,71.5 L 123.0,69.6" style="fill:none;fill-rule:evenodd;stroke:#FF0000;stroke-width:2.0px;stroke-linecap:butt;stroke-linejoin:miter;stroke-opacity:1"/>
<path class="bond-34 atom-18 atom-20" d="M 135.2,70.0 L 129.7,68.1" style="fill:none;fill-rule:evenodd;stroke:#CCCC00;stroke-width:2.0px;stroke-linecap:butt;stroke-linejoin:miter;stroke-opacity:1"/>
<path class="bond-34 atom-18 atom-20" d="M 129.7,68.1 L 124.2,66.1" style="fill:none;fill-rule:evenodd;stroke:#FF0000;stroke-width:2.0px;stroke-linecap:butt;stroke-linejoin:miter;stroke-opacity:1"/>
<path class="bond-35 atom-18 atom-21" d="M 140.0,67.9 L 142.6,61.3" style="fill:none;fill-rule:evenodd;stroke:#CCCC00;stroke-width:2.0px;stroke-linecap:butt;stroke-linejoin:miter;stroke-opacity:1"/>
<path class="bond-35 atom-18 atom-21" d="M 142.6,61.3 L 145.2,54.7" style="fill:none;fill-rule:evenodd;stroke:#000000;stroke-width:2.0px;stroke-linecap:butt;stroke-linejoin:miter;stroke-opacity:1"/>
<path class="bond-36 atom-21 atom-25" d="M 145.2,54.7 L 153.0,57.9" style="fill:none;fill-rule:evenodd;stroke:#000000;stroke-width:2.0px;stroke-linecap:butt;stroke-linejoin:miter;stroke-opacity:1"/>
<path class="bond-36 atom-21 atom-25" d="M 153.0,57.9 L 160.8,61.2" style="fill:none;fill-rule:evenodd;stroke:#33CCCC;stroke-width:2.0px;stroke-linecap:butt;stroke-linejoin:miter;stroke-opacity:1"/>
<path class="bond-37 atom-21 atom-26" d="M 145.2,54.7 L 151.6,49.8" style="fill:none;fill-rule:evenodd;stroke:#000000;stroke-width:2.0px;stroke-linecap:butt;stroke-linejoin:miter;stroke-opacity:1"/>
<path class="bond-37 atom-21 atom-26" d="M 151.6,49.8 L 158.0,45.0" style="fill:none;fill-rule:evenodd;stroke:#33CCCC;stroke-width:2.0px;stroke-linecap:butt;stroke-linejoin:miter;stroke-opacity:1"/>
<path class="bond-38 atom-21 atom-27" d="M 145.2,54.7 L 140.7,48.9" style="fill:none;fill-rule:evenodd;stroke:#000000;stroke-width:2.0px;stroke-linecap:butt;stroke-linejoin:miter;stroke-opacity:1"/>
<path class="bond-38 atom-21 atom-27" d="M 140.7,48.9 L 136.1,43.0" style="fill:none;fill-rule:evenodd;stroke:#33CCCC;stroke-width:2.0px;stroke-linecap:butt;stroke-linejoin:miter;stroke-opacity:1"/>
<path class="atom-0" d="M 184.2 102.6 Q 184.2 100.5, 185.2 99.4 Q 186.3 98.2, 188.2 98.2 Q 190.1 98.2, 191.1 99.4 Q 192.1 100.5, 192.1 102.6 Q 192.1 104.7, 191.1 105.9 Q 190.0 107.0, 188.2 107.0 Q 186.3 107.0, 185.2 105.9 Q 184.2 104.7, 184.2 102.6 M 188.2 106.1 Q 189.5 106.1, 190.2 105.2 Q 190.9 104.3, 190.9 102.6 Q 190.9 100.9, 190.2 100.0 Q 189.5 99.2, 188.2 99.2 Q 186.8 99.2, 186.1 100.0 Q 185.4 100.9, 185.4 102.6 Q 185.4 104.3, 186.1 105.2 Q 186.8 106.1, 188.2 106.1 " fill="#FF0000"/>
<path class="atom-10" d="M 108.4 157.3 Q 108.4 155.2, 109.4 154.0 Q 110.4 152.9, 112.3 152.9 Q 114.3 152.9, 115.3 154.0 Q 116.3 155.2, 116.3 157.3 Q 116.3 159.3, 115.3 160.5 Q 114.2 161.7, 112.3 161.7 Q 110.5 161.7, 109.4 160.5 Q 108.4 159.4, 108.4 157.3 M 112.3 160.7 Q 113.7 160.7, 114.4 159.9 Q 115.1 159.0, 115.1 157.3 Q 115.1 155.6, 114.4 154.7 Q 113.7 153.9, 112.3 153.9 Q 111.0 153.9, 110.3 154.7 Q 109.6 155.6, 109.6 157.3 Q 109.6 159.0, 110.3 159.9 Q 111.0 160.7, 112.3 160.7 " fill="#FF0000"/>
<path class="atom-13" d="M 157.5 190.0 L 160.3 194.6 Q 160.6 195.0, 161.1 195.9 Q 161.5 196.7, 161.5 196.7 L 161.5 190.0 L 162.7 190.0 L 162.7 198.6 L 161.5 198.6 L 158.5 193.7 Q 158.1 193.1, 157.8 192.4 Q 157.4 191.7, 157.3 191.5 L 157.3 198.6 L 156.2 198.6 L 156.2 190.0 L 157.5 190.0 " fill="#0000FF"/>
<path class="atom-18" d="M 135.6 75.8 Q 135.7 75.9, 136.1 76.1 Q 136.5 76.2, 136.9 76.3 Q 137.4 76.4, 137.8 76.4 Q 138.6 76.4, 139.1 76.0 Q 139.6 75.6, 139.6 74.9 Q 139.6 74.5, 139.3 74.2 Q 139.1 73.9, 138.7 73.7 Q 138.4 73.6, 137.8 73.4 Q 137.0 73.2, 136.5 72.9 Q 136.1 72.7, 135.8 72.3 Q 135.4 71.8, 135.4 71.0 Q 135.4 69.9, 136.2 69.3 Q 136.9 68.6, 138.4 68.6 Q 139.4 68.6, 140.5 69.1 L 140.2 70.0 Q 139.2 69.6, 138.4 69.6 Q 137.6 69.6, 137.1 69.9 Q 136.6 70.3, 136.7 70.9 Q 136.7 71.3, 136.9 71.6 Q 137.1 71.9, 137.5 72.1 Q 137.8 72.2, 138.4 72.4 Q 139.2 72.6, 139.6 72.9 Q 140.1 73.1, 140.4 73.6 Q 140.8 74.1, 140.8 74.9 Q 140.8 76.1, 140.0 76.8 Q 139.2 77.4, 137.9 77.4 Q 137.1 77.4, 136.5 77.2 Q 135.9 77.1, 135.3 76.8 L 135.6 75.8 " fill="#CCCC00"/>
<path class="atom-19" d="M 151.3 79.0 Q 151.3 76.9, 152.3 75.8 Q 153.3 74.6, 155.3 74.6 Q 157.2 74.6, 158.2 75.8 Q 159.2 76.9, 159.2 79.0 Q 159.2 81.1, 158.2 82.3 Q 157.1 83.4, 155.3 83.4 Q 153.4 83.4, 152.3 82.3 Q 151.3 81.1, 151.3 79.0 M 155.3 82.5 Q 156.6 82.5, 157.3 81.6 Q 158.0 80.7, 158.0 79.0 Q 158.0 77.3, 157.3 76.5 Q 156.6 75.6, 155.3 75.6 Q 153.9 75.6, 153.2 76.4 Q 152.5 77.3, 152.5 79.0 Q 152.5 80.7, 153.2 81.6 Q 153.9 82.5, 155.3 82.5 " fill="#FF0000"/>
<path class="atom-20" d="M 115.1 66.3 Q 115.1 64.2, 116.1 63.0 Q 117.1 61.9, 119.0 61.9 Q 120.9 61.9, 121.9 63.0 Q 123.0 64.2, 123.0 66.3 Q 123.0 68.4, 121.9 69.5 Q 120.9 70.7, 119.0 70.7 Q 117.1 70.7, 116.1 69.5 Q 115.1 68.4, 115.1 66.3 M 119.0 69.7 Q 120.3 69.7, 121.0 68.9 Q 121.7 68.0, 121.7 66.3 Q 121.7 64.6, 121.0 63.7 Q 120.3 62.9, 119.0 62.9 Q 117.7 62.9, 117.0 63.7 Q 116.3 64.6, 116.3 66.3 Q 116.3 68.0, 117.0 68.9 Q 117.7 69.7, 119.0 69.7 " fill="#FF0000"/>
<path class="atom-22" d="M 179.6 140.3 L 184.7 140.3 L 184.7 141.2 L 180.7 141.2 L 180.7 143.9 L 184.2 143.9 L 184.2 144.9 L 180.7 144.9 L 180.7 148.9 L 179.6 148.9 L 179.6 140.3 " fill="#33CCCC"/>
<path class="atom-23" d="M 183.9 118.3 L 189.0 118.3 L 189.0 119.3 L 185.0 119.3 L 185.0 121.9 L 188.6 121.9 L 188.6 122.9 L 185.0 122.9 L 185.0 126.9 L 183.9 126.9 L 183.9 118.3 " fill="#33CCCC"/>
<path class="atom-24" d="M 113.5 247.7 L 116.3 252.3 Q 116.6 252.7, 117.0 253.6 Q 117.5 254.4, 117.5 254.4 L 117.5 247.7 L 118.6 247.7 L 118.6 256.3 L 117.5 256.3 L 114.4 251.4 Q 114.1 250.8, 113.7 250.1 Q 113.3 249.4, 113.2 249.2 L 113.2 256.3 L 112.1 256.3 L 112.1 247.7 L 113.5 247.7 " fill="#0000FF"/>
<path class="atom-25" d="M 161.4 58.2 L 166.6 58.2 L 166.6 59.2 L 162.6 59.2 L 162.6 61.8 L 166.1 61.8 L 166.1 62.8 L 162.6 62.8 L 162.6 66.8 L 161.4 66.8 L 161.4 58.2 " fill="#33CCCC"/>
<path class="atom-26" d="M 158.7 38.2 L 163.8 38.2 L 163.8 39.2 L 159.9 39.2 L 159.9 41.8 L 163.4 41.8 L 163.4 42.8 L 159.9 42.8 L 159.9 46.8 L 158.7 46.8 L 158.7 38.2 " fill="#33CCCC"/>
<path class="atom-27" d="M 130.3 34.6 L 135.4 34.6 L 135.4 35.6 L 131.5 35.6 L 131.5 38.2 L 135.0 38.2 L 135.0 39.2 L 131.5 39.2 L 131.5 43.2 L 130.3 43.2 L 130.3 34.6 " fill="#33CCCC"/>
<path class="atom-28" d="M 200.7 112.3 L 201.8 112.3 L 201.8 115.9 L 206.2 115.9 L 206.2 112.3 L 207.4 112.3 L 207.4 120.9 L 206.2 120.9 L 206.2 116.9 L 201.8 116.9 L 201.8 120.9 L 200.7 120.9 L 200.7 112.3 " fill="#000000"/>
<path class="atom-29" d="M 160.8 88.1 L 162.0 88.1 L 162.0 91.7 L 166.4 91.7 L 166.4 88.1 L 167.5 88.1 L 167.5 96.7 L 166.4 96.7 L 166.4 92.7 L 162.0 92.7 L 162.0 96.7 L 160.8 96.7 L 160.8 88.1 " fill="#000000"/>
<path class="atom-30" d="M 137.6 149.4 L 138.7 149.4 L 138.7 153.1 L 143.1 153.1 L 143.1 149.4 L 144.3 149.4 L 144.3 158.0 L 143.1 158.0 L 143.1 154.1 L 138.7 154.1 L 138.7 158.0 L 137.6 158.0 L 137.6 149.4 " fill="#000000"/>
<path class="atom-31" d="M 165.5 149.7 L 166.7 149.7 L 166.7 153.3 L 171.1 153.3 L 171.1 149.7 L 172.3 149.7 L 172.3 158.3 L 171.1 158.3 L 171.1 154.3 L 166.7 154.3 L 166.7 158.3 L 165.5 158.3 L 165.5 149.7 " fill="#000000"/>
<path class="atom-32" d="M 95.2 77.8 L 96.4 77.8 L 96.4 81.4 L 100.7 81.4 L 100.7 77.8 L 101.9 77.8 L 101.9 86.4 L 100.7 86.4 L 100.7 82.4 L 96.4 82.4 L 96.4 86.4 L 95.2 86.4 L 95.2 77.8 " fill="#000000"/>
<path class="atom-33" d="M 82.6 116.2 L 83.8 116.2 L 83.8 119.9 L 88.2 119.9 L 88.2 116.2 L 89.3 116.2 L 89.3 124.8 L 88.2 124.8 L 88.2 120.9 L 83.8 120.9 L 83.8 124.8 L 82.6 124.8 L 82.6 116.2 " fill="#000000"/>
<path class="atom-34" d="M 151.5 158.3 L 152.7 158.3 L 152.7 162.0 L 157.1 162.0 L 157.1 158.3 L 158.3 158.3 L 158.3 166.9 L 157.1 166.9 L 157.1 162.9 L 152.7 162.9 L 152.7 166.9 L 151.5 166.9 L 151.5 158.3 " fill="#000000"/>
<path class="atom-35" d="M 159.3 224.9 L 160.4 224.9 L 160.4 228.6 L 164.8 228.6 L 164.8 224.9 L 166.0 224.9 L 166.0 233.5 L 164.8 233.5 L 164.8 229.5 L 160.4 229.5 L 160.4 233.5 L 159.3 233.5 L 159.3 224.9 " fill="#000000"/>
<path class="atom-36" d="M 95.5 195.7 L 96.7 195.7 L 96.7 199.3 L 101.1 199.3 L 101.1 195.7 L 102.2 195.7 L 102.2 204.3 L 101.1 204.3 L 101.1 200.3 L 96.7 200.3 L 96.7 204.3 L 95.5 204.3 L 95.5 195.7 " fill="#000000"/>
<ellipse cx="459.4" cy="205.8" rx="6.7" ry="6.7" class="atom-13" style="fill:#B8A444;fill-rule:evenodd;stroke:#B8A444;stroke-width:1.0px;stroke-linecap:butt;stroke-linejoin:miter;stroke-opacity:1"/>
<ellipse cx="479.6" cy="203.9" rx="6.7" ry="6.7" class="atom-14" style="fill:#DC3369;fill-rule:evenodd;stroke:#DC3369;stroke-width:1.0px;stroke-linecap:butt;stroke-linejoin:miter;stroke-opacity:1"/>
<ellipse cx="418.8" cy="244.4" rx="6.7" ry="6.7" class="atom-17" style="fill:#588A93;fill-rule:evenodd;stroke:#588A93;stroke-width:1.0px;stroke-linecap:butt;stroke-linejoin:miter;stroke-opacity:1"/>
<ellipse cx="504.0" cy="128.0" rx="6.7" ry="6.7" class="atom-25" style="fill:#DC3369;fill-rule:evenodd;stroke:#DC3369;stroke-width:1.0px;stroke-linecap:butt;stroke-linejoin:miter;stroke-opacity:1"/>
<ellipse cx="482.1" cy="156.0" rx="6.7" ry="6.7" class="atom-27" style="fill:#DC3369;fill-rule:evenodd;stroke:#DC3369;stroke-width:1.0px;stroke-linecap:butt;stroke-linejoin:miter;stroke-opacity:1"/>
<ellipse cx="486.4" cy="134.1" rx="6.7" ry="6.7" class="atom-28" style="fill:#DC3369;fill-rule:evenodd;stroke:#DC3369;stroke-width:1.0px;stroke-linecap:butt;stroke-linejoin:miter;stroke-opacity:1"/>
<ellipse cx="426.2" cy="59.2" rx="6.7" ry="6.7" class="atom-36" style="fill:#DC3369;fill-rule:evenodd;stroke:#DC3369;stroke-width:1.0px;stroke-linecap:butt;stroke-linejoin:miter;stroke-opacity:1"/>
<path class="bond-0 atom-0 atom-1" d="M 483.5,115.2 L 474.6,117.5" style="fill:none;fill-rule:evenodd;stroke:#FF0000;stroke-width:2.0px;stroke-linecap:butt;stroke-linejoin:miter;stroke-opacity:1"/>
<path class="bond-0 atom-0 atom-1" d="M 474.6,117.5 L 465.6,119.7" style="fill:none;fill-rule:evenodd;stroke:#000000;stroke-width:2.0px;stroke-linecap:butt;stroke-linejoin:miter;stroke-opacity:1"/>
<path class="bond-1 atom-0 atom-25" d="M 492.8,118.1 L 496.4,121.3" style="fill:none;fill-rule:evenodd;stroke:#FF0000;stroke-width:2.0px;stroke-linecap:butt;stroke-linejoin:miter;stroke-opacity:1"/>
<path class="bond-1 atom-0 atom-25" d="M 496.4,121.3 L 500.0,124.5" style="fill:none;fill-rule:evenodd;stroke:#000000;stroke-width:2.0px;stroke-linecap:butt;stroke-linejoin:miter;stroke-opacity:1"/>
<path class="bond-2 atom-1 atom-2" d="M 465.6,119.7 L 471.6,139.0" style="fill:none;fill-rule:evenodd;stroke:#000000;stroke-width:2.0px;stroke-linecap:butt;stroke-linejoin:miter;stroke-opacity:1"/>
<path class="bond-3 atom-1 atom-5" d="M 465.6,119.7 L 445.3,119.5" style="fill:none;fill-rule:evenodd;stroke:#000000;stroke-width:2.0px;stroke-linecap:butt;stroke-linejoin:miter;stroke-opacity:1"/>
<path class="bond-4 atom-1 atom-26" d="M 465.6,119.7 L 462.7,109.7 L 466.7,109.3 Z" style="fill:#000000;fill-rule:evenodd;fill-opacity:1;stroke:#000000;stroke-width:1.0px;stroke-linecap:butt;stroke-linejoin:miter;stroke-opacity:1;"/>
<path class="bond-5 atom-2 atom-3" d="M 471.6,139.0 L 455.1,150.7" style="fill:none;fill-rule:evenodd;stroke:#000000;stroke-width:2.0px;stroke-linecap:butt;stroke-linejoin:miter;stroke-opacity:1"/>
<path class="bond-6 atom-2 atom-27" d="M 471.6,139.0 L 479.1,151.1" style="fill:none;fill-rule:evenodd;stroke:#000000;stroke-width:2.0px;stroke-linecap:butt;stroke-linejoin:miter;stroke-opacity:1"/>
<path class="bond-7 atom-2 atom-28" d="M 471.6,139.0 L 482.4,135.4" style="fill:none;fill-rule:evenodd;stroke:#000000;stroke-width:2.0px;stroke-linecap:butt;stroke-linejoin:miter;stroke-opacity:1"/>
<path class="bond-8 atom-3 atom-4" d="M 455.1,150.7 L 438.9,138.7" style="fill:none;fill-rule:evenodd;stroke:#000000;stroke-width:2.0px;stroke-linecap:butt;stroke-linejoin:miter;stroke-opacity:1"/>
<path class="bond-9 atom-3 atom-29" d="M 455.1,150.7 L 444.9,161.1" style="fill:none;fill-rule:evenodd;stroke:#000000;stroke-width:2.0px;stroke-linecap:butt;stroke-linejoin:miter;stroke-opacity:1"/>
<path class="bond-10 atom-3 atom-30" d="M 455.1,150.7 L 464.9,161.2" style="fill:none;fill-rule:evenodd;stroke:#000000;stroke-width:2.0px;stroke-linecap:butt;stroke-linejoin:miter;stroke-opacity:1"/>
<path class="bond-11 atom-4 atom-5" d="M 438.9,138.7 L 445.3,119.5" style="fill:none;fill-rule:evenodd;stroke:#000000;stroke-width:2.0px;stroke-linecap:butt;stroke-linejoin:miter;stroke-opacity:1"/>
<path class="bond-11 atom-4 atom-5" d="M 436.4,134.7 L 440.9,121.2" style="fill:none;fill-rule:evenodd;stroke:#000000;stroke-width:2.0px;stroke-linecap:butt;stroke-linejoin:miter;stroke-opacity:1"/>
<path class="bond-12 atom-4 atom-9" d="M 438.9,138.7 L 419.2,142.9" style="fill:none;fill-rule:evenodd;stroke:#000000;stroke-width:2.0px;stroke-linecap:butt;stroke-linejoin:miter;stroke-opacity:1"/>
<path class="bond-13 atom-5 atom-6" d="M 445.3,119.5 L 431.8,104.4" style="fill:none;fill-rule:evenodd;stroke:#000000;stroke-width:2.0px;stroke-linecap:butt;stroke-linejoin:miter;stroke-opacity:1"/>
<path class="bond-14 atom-6 atom-7" d="M 431.8,104.4 L 412.0,108.6" style="fill:none;fill-rule:evenodd;stroke:#000000;stroke-width:2.0px;stroke-linecap:butt;stroke-linejoin:miter;stroke-opacity:1"/>
<path class="bond-14 atom-6 atom-7" d="M 429.6,108.6 L 415.8,111.5" style="fill:none;fill-rule:evenodd;stroke:#000000;stroke-width:2.0px;stroke-linecap:butt;stroke-linejoin:miter;stroke-opacity:1"/>
<path class="bond-15 atom-6 atom-19" d="M 431.8,104.4 L 434.1,97.0" style="fill:none;fill-rule:evenodd;stroke:#000000;stroke-width:2.0px;stroke-linecap:butt;stroke-linejoin:miter;stroke-opacity:1"/>
<path class="bond-15 atom-6 atom-19" d="M 434.1,97.0 L 436.4,89.7" style="fill:none;fill-rule:evenodd;stroke:#CCCC00;stroke-width:2.0px;stroke-linecap:butt;stroke-linejoin:miter;stroke-opacity:1"/>
<path class="bond-16 atom-7 atom-8" d="M 412.0,108.6 L 405.8,127.8" style="fill:none;fill-rule:evenodd;stroke:#000000;stroke-width:2.0px;stroke-linecap:butt;stroke-linejoin:miter;stroke-opacity:1"/>
<path class="bond-17 atom-7 atom-31" d="M 412.0,108.6 L 402.6,98.0" style="fill:none;fill-rule:evenodd;stroke:#000000;stroke-width:2.0px;stroke-linecap:butt;stroke-linejoin:miter;stroke-opacity:1"/>
<path class="bond-18 atom-8 atom-9" d="M 405.8,127.8 L 419.2,142.9" style="fill:none;fill-rule:evenodd;stroke:#000000;stroke-width:2.0px;stroke-linecap:butt;stroke-linejoin:miter;stroke-opacity:1"/>
<path class="bond-18 atom-8 atom-9" d="M 410.5,127.7 L 419.9,138.2" style="fill:none;fill-rule:evenodd;stroke:#000000;stroke-width:2.0px;stroke-linecap:butt;stroke-linejoin:miter;stroke-opacity:1"/>
<path class="bond-19 atom-8 atom-32" d="M 405.8,127.8 L 390.0,131.2" style="fill:none;fill-rule:evenodd;stroke:#000000;stroke-width:2.0px;stroke-linecap:butt;stroke-linejoin:miter;stroke-opacity:1"/>
<path class="bond-20 atom-9 atom-10" d="M 419.2,142.9 L 416.5,153.3" style="fill:none;fill-rule:evenodd;stroke:#000000;stroke-width:2.0px;stroke-linecap:butt;stroke-linejoin:miter;stroke-opacity:1"/>
<path class="bond-20 atom-9 atom-10" d="M 416.5,153.3 L 413.7,163.7" style="fill:none;fill-rule:evenodd;stroke:#FF0000;stroke-width:2.0px;stroke-linecap:butt;stroke-linejoin:miter;stroke-opacity:1"/>
<path class="bond-21 atom-10 atom-11" d="M 415.9,173.8 L 421.8,182.4" style="fill:none;fill-rule:evenodd;stroke:#FF0000;stroke-width:2.0px;stroke-linecap:butt;stroke-linejoin:miter;stroke-opacity:1"/>
<path class="bond-21 atom-10 atom-11" d="M 421.8,182.4 L 427.7,191.1" style="fill:none;fill-rule:evenodd;stroke:#000000;stroke-width:2.0px;stroke-linecap:butt;stroke-linejoin:miter;stroke-opacity:1"/>
<path class="bond-22 atom-11 atom-12" d="M 427.7,191.1 L 447.8,189.2" style="fill:none;fill-rule:evenodd;stroke:#000000;stroke-width:2.0px;stroke-linecap:butt;stroke-linejoin:miter;stroke-opacity:1"/>
<path class="bond-22 atom-11 atom-12" d="M 431.0,194.4 L 445.1,193.1" style="fill:none;fill-rule:evenodd;stroke:#000000;stroke-width:2.0px;stroke-linecap:butt;stroke-linejoin:miter;stroke-opacity:1"/>
<path class="bond-23 atom-11 atom-18" d="M 427.7,191.1 L 419.1,209.4" style="fill:none;fill-rule:evenodd;stroke:#000000;stroke-width:2.0px;stroke-linecap:butt;stroke-linejoin:miter;stroke-opacity:1"/>
<path class="bond-24 atom-12 atom-13" d="M 447.8,189.2 L 459.4,205.8" style="fill:none;fill-rule:evenodd;stroke:#000000;stroke-width:2.0px;stroke-linecap:butt;stroke-linejoin:miter;stroke-opacity:1"/>
<path class="bond-25 atom-12 atom-33" d="M 447.8,189.2 L 452.6,179.0" style="fill:none;fill-rule:evenodd;stroke:#000000;stroke-width:2.0px;stroke-linecap:butt;stroke-linejoin:miter;stroke-opacity:1"/>
<path class="bond-26 atom-13 atom-14" d="M 459.4,205.8 L 467.9,205.0" style="fill:none;fill-rule:evenodd;stroke:#000000;stroke-width:2.0px;stroke-linecap:butt;stroke-linejoin:miter;stroke-opacity:1"/>
<path class="bond-26 atom-13 atom-14" d="M 467.9,205.0 L 476.4,204.2" style="fill:none;fill-rule:evenodd;stroke:#33CCCC;stroke-width:2.0px;stroke-linecap:butt;stroke-linejoin:miter;stroke-opacity:1"/>
<path class="bond-27 atom-13 atom-15" d="M 459.4,205.8 L 450.9,224.1" style="fill:none;fill-rule:evenodd;stroke:#000000;stroke-width:2.0px;stroke-linecap:butt;stroke-linejoin:miter;stroke-opacity:1"/>
<path class="bond-27 atom-13 atom-15" d="M 454.9,207.0 L 448.9,219.8" style="fill:none;fill-rule:evenodd;stroke:#000000;stroke-width:2.0px;stroke-linecap:butt;stroke-linejoin:miter;stroke-opacity:1"/>
<path class="bond-28 atom-15 atom-16" d="M 450.9,224.1 L 430.7,225.9" style="fill:none;fill-rule:evenodd;stroke:#000000;stroke-width:2.0px;stroke-linecap:butt;stroke-linejoin:miter;stroke-opacity:1"/>
<path class="bond-29 atom-15 atom-34" d="M 450.9,224.1 L 459.1,235.6" style="fill:none;fill-rule:evenodd;stroke:#000000;stroke-width:2.0px;stroke-linecap:butt;stroke-linejoin:miter;stroke-opacity:1"/>
<path class="bond-30 atom-16 atom-17" d="M 430.7,225.9 L 427.1,233.8" style="fill:none;fill-rule:evenodd;stroke:#000000;stroke-width:2.0px;stroke-linecap:butt;stroke-linejoin:miter;stroke-opacity:1"/>
<path class="bond-30 atom-16 atom-17" d="M 427.1,233.8 L 423.5,241.7" style="fill:none;fill-rule:evenodd;stroke:#00CC00;stroke-width:2.0px;stroke-linecap:butt;stroke-linejoin:miter;stroke-opacity:1"/>
<path class="bond-31 atom-16 atom-18" d="M 430.7,225.9 L 419.1,209.4" style="fill:none;fill-rule:evenodd;stroke:#000000;stroke-width:2.0px;stroke-linecap:butt;stroke-linejoin:miter;stroke-opacity:1"/>
<path class="bond-31 atom-16 atom-18" d="M 432.0,221.4 L 423.8,209.8" style="fill:none;fill-rule:evenodd;stroke:#000000;stroke-width:2.0px;stroke-linecap:butt;stroke-linejoin:miter;stroke-opacity:1"/>
<path class="bond-32 atom-18 atom-35" d="M 419.1,209.4 L 403.0,210.9" style="fill:none;fill-rule:evenodd;stroke:#000000;stroke-width:2.0px;stroke-linecap:butt;stroke-linejoin:miter;stroke-opacity:1"/>
<path class="bond-33 atom-19 atom-20" d="M 442.0,83.9 L 446.6,85.5" style="fill:none;fill-rule:evenodd;stroke:#CCCC00;stroke-width:2.0px;stroke-linecap:butt;stroke-linejoin:miter;stroke-opacity:1"/>
<path class="bond-33 atom-19 atom-20" d="M 446.6,85.5 L 451.2,87.1" style="fill:none;fill-rule:evenodd;stroke:#FF0000;stroke-width:2.0px;stroke-linecap:butt;stroke-linejoin:miter;stroke-opacity:1"/>
<path class="bond-33 atom-19 atom-20" d="M 440.8,87.4 L 445.4,89.0" style="fill:none;fill-rule:evenodd;stroke:#CCCC00;stroke-width:2.0px;stroke-linecap:butt;stroke-linejoin:miter;stroke-opacity:1"/>
<path class="bond-33 atom-19 atom-20" d="M 445.4,89.0 L 450.1,90.6" style="fill:none;fill-rule:evenodd;stroke:#FF0000;stroke-width:2.0px;stroke-linecap:butt;stroke-linejoin:miter;stroke-opacity:1"/>
<path class="bond-34 atom-19 atom-21" d="M 434.0,85.0 L 428.5,83.1" style="fill:none;fill-rule:evenodd;stroke:#CCCC00;stroke-width:2.0px;stroke-linecap:butt;stroke-linejoin:miter;stroke-opacity:1"/>
<path class="bond-34 atom-19 atom-21" d="M 428.5,83.1 L 423.0,81.2" style="fill:none;fill-rule:evenodd;stroke:#FF0000;stroke-width:2.0px;stroke-linecap:butt;stroke-linejoin:miter;stroke-opacity:1"/>
<path class="bond-34 atom-19 atom-21" d="M 435.1,81.6 L 429.7,79.7" style="fill:none;fill-rule:evenodd;stroke:#CCCC00;stroke-width:2.0px;stroke-linecap:butt;stroke-linejoin:miter;stroke-opacity:1"/>
<path class="bond-34 atom-19 atom-21" d="M 429.7,79.7 L 424.2,77.8" style="fill:none;fill-rule:evenodd;stroke:#FF0000;stroke-width:2.0px;stroke-linecap:butt;stroke-linejoin:miter;stroke-opacity:1"/>
<path class="bond-35 atom-19 atom-22" d="M 439.9,79.5 L 442.4,72.9" style="fill:none;fill-rule:evenodd;stroke:#CCCC00;stroke-width:2.0px;stroke-linecap:butt;stroke-linejoin:miter;stroke-opacity:1"/>
<path class="bond-35 atom-19 atom-22" d="M 442.4,72.9 L 444.9,66.3" style="fill:none;fill-rule:evenodd;stroke:#000000;stroke-width:2.0px;stroke-linecap:butt;stroke-linejoin:miter;stroke-opacity:1"/>
<path class="bond-36 atom-22 atom-23" d="M 444.9,66.3 L 443.8,58.9" style="fill:none;fill-rule:evenodd;stroke:#000000;stroke-width:2.0px;stroke-linecap:butt;stroke-linejoin:miter;stroke-opacity:1"/>
<path class="bond-36 atom-22 atom-23" d="M 443.8,58.9 L 442.7,51.5" style="fill:none;fill-rule:evenodd;stroke:#33CCCC;stroke-width:2.0px;stroke-linecap:butt;stroke-linejoin:miter;stroke-opacity:1"/>
<path class="bond-37 atom-22 atom-24" d="M 444.9,66.3 L 453.4,65.1" style="fill:none;fill-rule:evenodd;stroke:#000000;stroke-width:2.0px;stroke-linecap:butt;stroke-linejoin:miter;stroke-opacity:1"/>
<path class="bond-37 atom-22 atom-24" d="M 453.4,65.1 L 461.8,63.9" style="fill:none;fill-rule:evenodd;stroke:#33CCCC;stroke-width:2.0px;stroke-linecap:butt;stroke-linejoin:miter;stroke-opacity:1"/>
<path class="bond-38 atom-22 atom-36" d="M 444.9,66.3 L 430.2,60.7" style="fill:none;fill-rule:evenodd;stroke:#000000;stroke-width:2.0px;stroke-linecap:butt;stroke-linejoin:miter;stroke-opacity:1"/>
<path class="atom-0" d="M 484.2 114.1 Q 484.2 112.0, 485.2 110.8 Q 486.3 109.7, 488.2 109.7 Q 490.1 109.7, 491.1 110.8 Q 492.1 112.0, 492.1 114.1 Q 492.1 116.1, 491.1 117.3 Q 490.0 118.5, 488.2 118.5 Q 486.3 118.5, 485.2 117.3 Q 484.2 116.2, 484.2 114.1 M 488.2 117.5 Q 489.5 117.5, 490.2 116.7 Q 490.9 115.8, 490.9 114.1 Q 490.9 112.4, 490.2 111.5 Q 489.5 110.7, 488.2 110.7 Q 486.8 110.7, 486.1 111.5 Q 485.4 112.4, 485.4 114.1 Q 485.4 115.8, 486.1 116.7 Q 486.8 117.5, 488.2 117.5 " fill="#FF0000"/>
<path class="atom-10" d="M 408.5 168.7 Q 408.5 166.6, 409.5 165.5 Q 410.5 164.3, 412.4 164.3 Q 414.3 164.3, 415.3 165.5 Q 416.3 166.6, 416.3 168.7 Q 416.3 170.8, 415.3 172.0 Q 414.3 173.1, 412.4 173.1 Q 410.5 173.1, 409.5 172.0 Q 408.5 170.8, 408.5 168.7 M 412.4 172.2 Q 413.7 172.2, 414.4 171.3 Q 415.1 170.4, 415.1 168.7 Q 415.1 167.0, 414.4 166.2 Q 413.7 165.3, 412.4 165.3 Q 411.1 165.3, 410.4 166.1 Q 409.7 167.0, 409.7 168.7 Q 409.7 170.4, 410.4 171.3 Q 411.1 172.2, 412.4 172.2 " fill="#FF0000"/>
<path class="atom-14" d="M 477.0 199.6 L 482.2 199.6 L 482.2 200.6 L 478.2 200.6 L 478.2 203.2 L 481.7 203.2 L 481.7 204.2 L 478.2 204.2 L 478.2 208.2 L 477.0 208.2 L 477.0 199.6 " fill="#33CCCC"/>
<path class="atom-17" d="M 414.7 244.6 Q 414.7 242.5, 415.6 241.4 Q 416.7 240.3, 418.6 240.3 Q 420.3 240.3, 421.3 241.5 L 420.5 242.2 Q 419.8 241.3, 418.6 241.3 Q 417.3 241.3, 416.6 242.1 Q 415.9 243.0, 415.9 244.6 Q 415.9 246.3, 416.6 247.2 Q 417.3 248.1, 418.7 248.1 Q 419.6 248.1, 420.7 247.5 L 421.1 248.4 Q 420.6 248.7, 420.0 248.9 Q 419.3 249.1, 418.5 249.1 Q 416.7 249.1, 415.6 247.9 Q 414.7 246.8, 414.7 244.6 " fill="#00CC00"/>
<path class="atom-17" d="M 421.8 239.7 L 422.9 239.7 L 422.9 249.0 L 421.8 249.0 L 421.8 239.7 " fill="#00CC00"/>
<path class="atom-19" d="M 435.6 87.4 Q 435.6 87.5, 436.0 87.6 Q 436.4 87.8, 436.9 87.9 Q 437.3 88.0, 437.8 88.0 Q 438.6 88.0, 439.1 87.6 Q 439.5 87.2, 439.5 86.5 Q 439.5 86.1, 439.3 85.8 Q 439.1 85.5, 438.7 85.3 Q 438.3 85.2, 437.7 85.0 Q 437.0 84.7, 436.5 84.5 Q 436.0 84.3, 435.7 83.8 Q 435.4 83.4, 435.4 82.6 Q 435.4 81.5, 436.1 80.9 Q 436.9 80.2, 438.3 80.2 Q 439.3 80.2, 440.5 80.7 L 440.2 81.6 Q 439.1 81.2, 438.4 81.2 Q 437.5 81.2, 437.1 81.5 Q 436.6 81.9, 436.6 82.5 Q 436.6 82.9, 436.8 83.2 Q 437.1 83.5, 437.4 83.6 Q 437.8 83.8, 438.4 84.0 Q 439.1 84.2, 439.6 84.5 Q 440.1 84.7, 440.4 85.2 Q 440.7 85.7, 440.7 86.5 Q 440.7 87.7, 439.9 88.4 Q 439.1 89.0, 437.8 89.0 Q 437.1 89.0, 436.5 88.8 Q 435.9 88.7, 435.2 88.4 L 435.6 87.4 " fill="#CCCC00"/>
<path class="atom-20" d="M 451.3 90.5 Q 451.3 88.4, 452.3 87.3 Q 453.4 86.1, 455.3 86.1 Q 457.2 86.1, 458.2 87.3 Q 459.2 88.4, 459.2 90.5 Q 459.2 92.6, 458.2 93.8 Q 457.1 94.9, 455.3 94.9 Q 453.4 94.9, 452.3 93.8 Q 451.3 92.6, 451.3 90.5 M 455.3 94.0 Q 456.6 94.0, 457.3 93.1 Q 458.0 92.2, 458.0 90.5 Q 458.0 88.8, 457.3 87.9 Q 456.6 87.1, 455.3 87.1 Q 454.0 87.1, 453.2 87.9 Q 452.5 88.8, 452.5 90.5 Q 452.5 92.2, 453.2 93.1 Q 454.0 94.0, 455.3 94.0 " fill="#FF0000"/>
<path class="atom-21" d="M 415.0 77.9 Q 415.0 75.9, 416.0 74.7 Q 417.0 73.6, 419.0 73.6 Q 420.9 73.6, 421.9 74.7 Q 422.9 75.9, 422.9 77.9 Q 422.9 80.0, 421.9 81.2 Q 420.8 82.4, 419.0 82.4 Q 417.1 82.4, 416.0 81.2 Q 415.0 80.0, 415.0 77.9 M 419.0 81.4 Q 420.3 81.4, 421.0 80.5 Q 421.7 79.7, 421.7 77.9 Q 421.7 76.3, 421.0 75.4 Q 420.3 74.5, 419.0 74.5 Q 417.6 74.5, 416.9 75.4 Q 416.2 76.2, 416.2 77.9 Q 416.2 79.7, 416.9 80.5 Q 417.6 81.4, 419.0 81.4 " fill="#FF0000"/>
<path class="atom-23" d="M 439.4 42.2 L 444.5 42.2 L 444.5 43.2 L 440.5 43.2 L 440.5 45.8 L 444.1 45.8 L 444.1 46.8 L 440.5 46.8 L 440.5 50.8 L 439.4 50.8 L 439.4 42.2 " fill="#33CCCC"/>
<path class="atom-24" d="M 462.5 59.1 L 467.6 59.1 L 467.6 60.1 L 463.6 60.1 L 463.6 62.7 L 467.1 62.7 L 467.1 63.7 L 463.6 63.7 L 463.6 67.7 L 462.5 67.7 L 462.5 59.1 " fill="#33CCCC"/>
<path class="atom-25" d="M 500.7 123.8 L 501.8 123.8 L 501.8 127.4 L 506.2 127.4 L 506.2 123.8 L 507.4 123.8 L 507.4 132.3 L 506.2 132.3 L 506.2 128.4 L 501.8 128.4 L 501.8 132.3 L 500.7 132.3 L 500.7 123.8 " fill="#000000"/>
<path class="atom-26" d="M 460.8 99.6 L 462.0 99.6 L 462.0 103.2 L 466.4 103.2 L 466.4 99.6 L 467.5 99.6 L 467.5 108.2 L 466.4 108.2 L 466.4 104.2 L 462.0 104.2 L 462.0 108.2 L 460.8 108.2 L 460.8 99.6 " fill="#000000"/>
<path class="atom-27" d="M 478.8 151.7 L 479.9 151.7 L 479.9 155.4 L 484.3 155.4 L 484.3 151.7 L 485.5 151.7 L 485.5 160.3 L 484.3 160.3 L 484.3 156.4 L 479.9 156.4 L 479.9 160.3 L 478.8 160.3 L 478.8 151.7 " fill="#000000"/>
<path class="atom-28" d="M 483.1 129.8 L 484.2 129.8 L 484.2 133.4 L 488.6 133.4 L 488.6 129.8 L 489.8 129.8 L 489.8 138.4 L 488.6 138.4 L 488.6 134.4 L 484.2 134.4 L 484.2 138.4 L 483.1 138.4 L 483.1 129.8 " fill="#000000"/>
<path class="atom-29" d="M 437.6 160.9 L 438.7 160.9 L 438.7 164.6 L 443.1 164.6 L 443.1 160.9 L 444.3 160.9 L 444.3 169.5 L 443.1 169.5 L 443.1 165.5 L 438.7 165.5 L 438.7 169.5 L 437.6 169.5 L 437.6 160.9 " fill="#000000"/>
<path class="atom-30" d="M 465.5 161.1 L 466.7 161.1 L 466.7 164.8 L 471.1 164.8 L 471.1 161.1 L 472.3 161.1 L 472.3 169.7 L 471.1 169.7 L 471.1 165.8 L 466.7 165.8 L 466.7 169.7 L 465.5 169.7 L 465.5 161.1 " fill="#000000"/>
<path class="atom-31" d="M 395.2 89.3 L 396.4 89.3 L 396.4 92.9 L 400.8 92.9 L 400.8 89.3 L 401.9 89.3 L 401.9 97.8 L 400.8 97.8 L 400.8 93.9 L 396.4 93.9 L 396.4 97.8 L 395.2 97.8 L 395.2 89.3 " fill="#000000"/>
<path class="atom-32" d="M 382.6 127.7 L 383.8 127.7 L 383.8 131.4 L 388.2 131.4 L 388.2 127.7 L 389.3 127.7 L 389.3 136.3 L 388.2 136.3 L 388.2 132.3 L 383.8 132.3 L 383.8 136.3 L 382.6 136.3 L 382.6 127.7 " fill="#000000"/>
<path class="atom-33" d="M 451.5 169.8 L 452.7 169.8 L 452.7 173.4 L 457.1 173.4 L 457.1 169.8 L 458.2 169.8 L 458.2 178.4 L 457.1 178.4 L 457.1 174.4 L 452.7 174.4 L 452.7 178.4 L 451.5 178.4 L 451.5 169.8 " fill="#000000"/>
<path class="atom-34" d="M 459.3 236.3 L 460.4 236.3 L 460.4 240.0 L 464.8 240.0 L 464.8 236.3 L 466.0 236.3 L 466.0 244.9 L 464.8 244.9 L 464.8 240.9 L 460.4 240.9 L 460.4 244.9 L 459.3 244.9 L 459.3 236.3 " fill="#000000"/>
<path class="atom-35" d="M 395.6 207.0 L 396.7 207.0 L 396.7 210.7 L 401.1 210.7 L 401.1 207.0 L 402.3 207.0 L 402.3 215.6 L 401.1 215.6 L 401.1 211.6 L 396.7 211.6 L 396.7 215.6 L 395.6 215.6 L 395.6 207.0 " fill="#000000"/>
<path class="atom-36" d="M 422.8 54.9 L 424.0 54.9 L 424.0 58.6 L 428.4 58.6 L 428.4 54.9 L 429.5 54.9 L 429.5 63.5 L 428.4 63.5 L 428.4 59.5 L 424.0 59.5 L 424.0 63.5 L 422.8 63.5 L 422.8 54.9 " fill="#000000"/>
<text x="300" y="20" font-size="20" font-family="sans-serif" font-weight="normal" letter-spacing="0" text-anchor="middle" fill="black">hif2a 235 -&gt; 1 </text><text x="150" y="285" font-size="15" font-family="sans-serif" font-weight="normal" letter-spacing="0" text-anchor="middle" fill="black">235</text><text x="450" y="285" font-size="15" font-family="sans-serif" font-weight="normal" letter-spacing="0" text-anchor="middle" fill="black">1</text><text x="300" y="35" font-size="15" font-family="sans-serif" font-weight="normal" letter-spacing="0" text-anchor="middle" fill="black">DDG(EXP)=-1.2;DDG(OFF2)=0.6</text></svg>
