<?xml version='1.0' encoding='ASCII' standalone='yes'?>
<svg xmlns="http://www.w3.org/2000/svg" xmlns:rdkit="http://www.rdkit.org/xml" xmlns:xlink="http://www.w3.org/1999/xlink" version="1.1" baseProfile="full" xml:space="preserve" width="600px" height="300px" viewBox="0 0 600 300">
<!-- END OF HEADER -->
<rect style="opacity:1.0;fill:#FFFFFF;stroke:none" width="600.0" height="300.0" x="0.0" y="0.0"> </rect>
<ellipse cx="163.1" cy="247.2" rx="7.9" ry="7.9" class="atom-18" style="fill:#DC3369;fill-rule:evenodd;stroke:#DC3369;stroke-width:1.0px;stroke-linecap:butt;stroke-linejoin:miter;stroke-opacity:1"/>
<ellipse cx="71.0" cy="135.0" rx="7.9" ry="7.9" class="atom-34" style="fill:#5446F4;fill-rule:evenodd;stroke:#5446F4;stroke-width:1.0px;stroke-linecap:butt;stroke-linejoin:miter;stroke-opacity:1"/>
<path class="bond-0 atom-0 atom-6" d="M 74.8,175.5 L 83.7,153.5" style="fill:none;fill-rule:evenodd;stroke:#000000;stroke-width:2.0px;stroke-linecap:butt;stroke-linejoin:miter;stroke-opacity:1"/>
<path class="bond-1 atom-0 atom-9" d="M 75.0,177.7 L 65.9,178.5" style="fill:none;fill-rule:evenodd;stroke:#000000;stroke-width:2.0px;stroke-linecap:butt;stroke-linejoin:miter;stroke-opacity:1"/>
<path class="bond-1 atom-0 atom-9" d="M 65.9,178.5 L 56.8,179.4" style="fill:none;fill-rule:evenodd;stroke:#FF0000;stroke-width:2.0px;stroke-linecap:butt;stroke-linejoin:miter;stroke-opacity:1"/>
<path class="bond-1 atom-0 atom-9" d="M 74.6,173.4 L 65.5,174.2" style="fill:none;fill-rule:evenodd;stroke:#000000;stroke-width:2.0px;stroke-linecap:butt;stroke-linejoin:miter;stroke-opacity:1"/>
<path class="bond-1 atom-0 atom-9" d="M 65.5,174.2 L 56.4,175.1" style="fill:none;fill-rule:evenodd;stroke:#FF0000;stroke-width:2.0px;stroke-linecap:butt;stroke-linejoin:miter;stroke-opacity:1"/>
<path class="bond-2 atom-0 atom-10" d="M 74.8,175.5 L 79.8,182.0" style="fill:none;fill-rule:evenodd;stroke:#000000;stroke-width:2.0px;stroke-linecap:butt;stroke-linejoin:miter;stroke-opacity:1"/>
<path class="bond-2 atom-0 atom-10" d="M 79.8,182.0 L 84.9,188.5" style="fill:none;fill-rule:evenodd;stroke:#0000FF;stroke-width:2.0px;stroke-linecap:butt;stroke-linejoin:miter;stroke-opacity:1"/>
<path class="bond-3 atom-1 atom-8" d="M 151.4,206.8 L 154.8,198.7" style="fill:none;fill-rule:evenodd;stroke:#000000;stroke-width:2.0px;stroke-linecap:butt;stroke-linejoin:miter;stroke-opacity:1"/>
<path class="bond-3 atom-1 atom-8" d="M 154.8,198.7 L 158.1,190.6" style="fill:none;fill-rule:evenodd;stroke:#0000FF;stroke-width:2.0px;stroke-linecap:butt;stroke-linejoin:miter;stroke-opacity:1"/>
<path class="bond-4 atom-1 atom-11" d="M 151.4,206.8 L 141.9,208.1" style="fill:none;fill-rule:evenodd;stroke:#000000;stroke-width:2.0px;stroke-linecap:butt;stroke-linejoin:miter;stroke-opacity:1"/>
<path class="bond-4 atom-1 atom-11" d="M 141.9,208.1 L 132.4,209.4" style="fill:none;fill-rule:evenodd;stroke:#0000FF;stroke-width:2.0px;stroke-linecap:butt;stroke-linejoin:miter;stroke-opacity:1"/>
<path class="bond-4 atom-1 atom-11" d="M 148.0,202.9 L 141.3,203.8" style="fill:none;fill-rule:evenodd;stroke:#000000;stroke-width:2.0px;stroke-linecap:butt;stroke-linejoin:miter;stroke-opacity:1"/>
<path class="bond-4 atom-1 atom-11" d="M 141.3,203.8 L 134.7,204.8" style="fill:none;fill-rule:evenodd;stroke:#0000FF;stroke-width:2.0px;stroke-linecap:butt;stroke-linejoin:miter;stroke-opacity:1"/>
<path class="bond-5 atom-1 atom-12" d="M 151.4,206.8 L 158.3,213.3" style="fill:none;fill-rule:evenodd;stroke:#000000;stroke-width:2.0px;stroke-linecap:butt;stroke-linejoin:miter;stroke-opacity:1"/>
<path class="bond-5 atom-1 atom-12" d="M 158.3,213.3 L 165.2,219.7" style="fill:none;fill-rule:evenodd;stroke:#0000FF;stroke-width:2.0px;stroke-linecap:butt;stroke-linejoin:miter;stroke-opacity:1"/>
<path class="bond-6 atom-2 atom-3" d="M 122.0,169.1 L 106.8,150.2" style="fill:none;fill-rule:evenodd;stroke:#000000;stroke-width:2.0px;stroke-linecap:butt;stroke-linejoin:miter;stroke-opacity:1"/>
<path class="bond-7 atom-2 atom-4" d="M 122.0,169.1 L 113.1,191.2" style="fill:none;fill-rule:evenodd;stroke:#000000;stroke-width:2.0px;stroke-linecap:butt;stroke-linejoin:miter;stroke-opacity:1"/>
<path class="bond-7 atom-2 atom-4" d="M 116.7,170.8 L 110.5,186.2" style="fill:none;fill-rule:evenodd;stroke:#000000;stroke-width:2.0px;stroke-linecap:butt;stroke-linejoin:miter;stroke-opacity:1"/>
<path class="bond-8 atom-2 atom-5" d="M 122.0,169.1 L 145.8,165.9" style="fill:none;fill-rule:evenodd;stroke:#000000;stroke-width:2.0px;stroke-linecap:butt;stroke-linejoin:miter;stroke-opacity:1"/>
<path class="bond-9 atom-3 atom-6" d="M 106.8,150.2 L 83.7,153.5" style="fill:none;fill-rule:evenodd;stroke:#000000;stroke-width:2.0px;stroke-linecap:butt;stroke-linejoin:miter;stroke-opacity:1"/>
<path class="bond-9 atom-3 atom-6" d="M 103.9,155.0 L 87.7,157.3" style="fill:none;fill-rule:evenodd;stroke:#000000;stroke-width:2.0px;stroke-linecap:butt;stroke-linejoin:miter;stroke-opacity:1"/>
<path class="bond-10 atom-3 atom-13" d="M 106.8,150.2 L 104.7,138.5" style="fill:none;fill-rule:evenodd;stroke:#000000;stroke-width:2.0px;stroke-linecap:butt;stroke-linejoin:miter;stroke-opacity:1"/>
<path class="bond-11 atom-4 atom-10" d="M 113.1,191.2 L 103.6,192.5" style="fill:none;fill-rule:evenodd;stroke:#000000;stroke-width:2.0px;stroke-linecap:butt;stroke-linejoin:miter;stroke-opacity:1"/>
<path class="bond-11 atom-4 atom-10" d="M 103.6,192.5 L 94.1,193.8" style="fill:none;fill-rule:evenodd;stroke:#0000FF;stroke-width:2.0px;stroke-linecap:butt;stroke-linejoin:miter;stroke-opacity:1"/>
<path class="bond-12 atom-4 atom-11" d="M 113.1,191.2 L 118.2,197.7" style="fill:none;fill-rule:evenodd;stroke:#000000;stroke-width:2.0px;stroke-linecap:butt;stroke-linejoin:miter;stroke-opacity:1"/>
<path class="bond-12 atom-4 atom-11" d="M 118.2,197.7 L 123.2,204.2" style="fill:none;fill-rule:evenodd;stroke:#0000FF;stroke-width:2.0px;stroke-linecap:butt;stroke-linejoin:miter;stroke-opacity:1"/>
<path class="bond-13 atom-5 atom-8" d="M 145.8,165.9 L 150.9,172.4" style="fill:none;fill-rule:evenodd;stroke:#000000;stroke-width:2.0px;stroke-linecap:butt;stroke-linejoin:miter;stroke-opacity:1"/>
<path class="bond-13 atom-5 atom-8" d="M 150.9,172.4 L 155.9,178.9" style="fill:none;fill-rule:evenodd;stroke:#0000FF;stroke-width:2.0px;stroke-linecap:butt;stroke-linejoin:miter;stroke-opacity:1"/>
<path class="bond-13 atom-5 atom-8" d="M 143.9,170.5 L 147.5,175.0" style="fill:none;fill-rule:evenodd;stroke:#000000;stroke-width:2.0px;stroke-linecap:butt;stroke-linejoin:miter;stroke-opacity:1"/>
<path class="bond-13 atom-5 atom-8" d="M 147.5,175.0 L 151.0,179.6" style="fill:none;fill-rule:evenodd;stroke:#0000FF;stroke-width:2.0px;stroke-linecap:butt;stroke-linejoin:miter;stroke-opacity:1"/>
<path class="bond-14 atom-5 atom-14" d="M 145.8,165.9 L 152.5,149.6" style="fill:none;fill-rule:evenodd;stroke:#000000;stroke-width:2.0px;stroke-linecap:butt;stroke-linejoin:miter;stroke-opacity:1"/>
<path class="bond-15 atom-6 atom-34" d="M 83.7,153.5 L 79.4,147.3" style="fill:none;fill-rule:evenodd;stroke:#000000;stroke-width:2.0px;stroke-linecap:butt;stroke-linejoin:miter;stroke-opacity:1"/>
<path class="bond-15 atom-6 atom-34" d="M 79.4,147.3 L 75.1,141.0" style="fill:none;fill-rule:evenodd;stroke:#FF0000;stroke-width:2.0px;stroke-linecap:butt;stroke-linejoin:miter;stroke-opacity:1"/>
<path class="bond-16 atom-7 atom-10" d="M 79.7,216.3 L 83.3,208.3" style="fill:none;fill-rule:evenodd;stroke:#000000;stroke-width:2.0px;stroke-linecap:butt;stroke-linejoin:miter;stroke-opacity:1"/>
<path class="bond-16 atom-7 atom-10" d="M 83.3,208.3 L 86.8,200.2" style="fill:none;fill-rule:evenodd;stroke:#0000FF;stroke-width:2.0px;stroke-linecap:butt;stroke-linejoin:miter;stroke-opacity:1"/>
<path class="bond-17 atom-7 atom-15" d="M 79.7,216.3 L 96.6,223.6" style="fill:none;fill-rule:evenodd;stroke:#000000;stroke-width:2.0px;stroke-linecap:butt;stroke-linejoin:miter;stroke-opacity:1"/>
<path class="bond-18 atom-7 atom-16" d="M 79.7,216.3 L 81.8,234.1" style="fill:none;fill-rule:evenodd;stroke:#000000;stroke-width:2.0px;stroke-linecap:butt;stroke-linejoin:miter;stroke-opacity:1"/>
<path class="bond-19 atom-7 atom-17" d="M 79.7,216.3 L 60.4,218.5" style="fill:none;fill-rule:evenodd;stroke:#000000;stroke-width:2.0px;stroke-linecap:butt;stroke-linejoin:miter;stroke-opacity:1"/>
<path class="bond-20 atom-12 atom-18" d="M 168.1,230.0 L 166.5,235.6" style="fill:none;fill-rule:evenodd;stroke:#0000FF;stroke-width:2.0px;stroke-linecap:butt;stroke-linejoin:miter;stroke-opacity:1"/>
<path class="bond-20 atom-12 atom-18" d="M 166.5,235.6 L 164.8,241.3" style="fill:none;fill-rule:evenodd;stroke:#000000;stroke-width:2.0px;stroke-linecap:butt;stroke-linejoin:miter;stroke-opacity:1"/>
<path class="bond-21 atom-12 atom-21" d="M 174.5,222.9 L 188.0,219.3" style="fill:none;fill-rule:evenodd;stroke:#0000FF;stroke-width:2.0px;stroke-linecap:butt;stroke-linejoin:miter;stroke-opacity:1"/>
<path class="bond-21 atom-12 atom-21" d="M 188.0,219.3 L 201.6,215.7" style="fill:none;fill-rule:evenodd;stroke:#000000;stroke-width:2.0px;stroke-linecap:butt;stroke-linejoin:miter;stroke-opacity:1"/>
<path class="bond-22 atom-19 atom-20" d="M 209.1,174.6 L 193.6,193.1" style="fill:none;fill-rule:evenodd;stroke:#000000;stroke-width:2.0px;stroke-linecap:butt;stroke-linejoin:miter;stroke-opacity:1"/>
<path class="bond-23 atom-19 atom-24" d="M 209.1,174.6 L 218.2,176.3" style="fill:none;fill-rule:evenodd;stroke:#000000;stroke-width:2.0px;stroke-linecap:butt;stroke-linejoin:miter;stroke-opacity:1"/>
<path class="bond-23 atom-19 atom-24" d="M 218.2,176.3 L 227.3,177.9" style="fill:none;fill-rule:evenodd;stroke:#FF0000;stroke-width:2.0px;stroke-linecap:butt;stroke-linejoin:miter;stroke-opacity:1"/>
<path class="bond-24 atom-19 atom-25" d="M 209.1,174.6 L 215.7,158.4" style="fill:none;fill-rule:evenodd;stroke:#000000;stroke-width:2.0px;stroke-linecap:butt;stroke-linejoin:miter;stroke-opacity:1"/>
<path class="bond-25 atom-19 atom-26" d="M 209.1,174.6 L 194.3,164.6" style="fill:none;fill-rule:evenodd;stroke:#000000;stroke-width:2.0px;stroke-linecap:butt;stroke-linejoin:miter;stroke-opacity:1"/>
<path class="bond-26 atom-20 atom-21" d="M 193.6,193.1 L 201.6,215.7" style="fill:none;fill-rule:evenodd;stroke:#000000;stroke-width:2.0px;stroke-linecap:butt;stroke-linejoin:miter;stroke-opacity:1"/>
<path class="bond-27 atom-20 atom-27" d="M 193.6,193.1 L 182.4,181.2" style="fill:none;fill-rule:evenodd;stroke:#000000;stroke-width:2.0px;stroke-linecap:butt;stroke-linejoin:miter;stroke-opacity:1"/>
<path class="bond-28 atom-20 atom-28" d="M 193.6,193.1 L 179.9,200.4" style="fill:none;fill-rule:evenodd;stroke:#000000;stroke-width:2.0px;stroke-linecap:butt;stroke-linejoin:miter;stroke-opacity:1"/>
<path class="bond-29 atom-21 atom-22" d="M 201.6,215.7 L 225.3,219.9" style="fill:none;fill-rule:evenodd;stroke:#000000;stroke-width:2.0px;stroke-linecap:butt;stroke-linejoin:miter;stroke-opacity:1"/>
<path class="bond-30 atom-21 atom-29" d="M 201.6,215.7 L 200.6,233.4" style="fill:none;fill-rule:evenodd;stroke:#000000;stroke-width:2.0px;stroke-linecap:butt;stroke-linejoin:miter;stroke-opacity:1"/>
<path class="bond-31 atom-22 atom-23" d="M 225.3,219.9 L 240.9,201.5" style="fill:none;fill-rule:evenodd;stroke:#000000;stroke-width:2.0px;stroke-linecap:butt;stroke-linejoin:miter;stroke-opacity:1"/>
<path class="bond-32 atom-22 atom-30" d="M 225.3,219.9 L 220.7,236.7" style="fill:none;fill-rule:evenodd;stroke:#000000;stroke-width:2.0px;stroke-linecap:butt;stroke-linejoin:miter;stroke-opacity:1"/>
<path class="bond-33 atom-22 atom-31" d="M 225.3,219.9 L 240.7,229.4" style="fill:none;fill-rule:evenodd;stroke:#000000;stroke-width:2.0px;stroke-linecap:butt;stroke-linejoin:miter;stroke-opacity:1"/>
<path class="bond-34 atom-23 atom-24" d="M 240.9,201.5 L 237.9,193.3" style="fill:none;fill-rule:evenodd;stroke:#000000;stroke-width:2.0px;stroke-linecap:butt;stroke-linejoin:miter;stroke-opacity:1"/>
<path class="bond-34 atom-23 atom-24" d="M 237.9,193.3 L 234.9,185.0" style="fill:none;fill-rule:evenodd;stroke:#FF0000;stroke-width:2.0px;stroke-linecap:butt;stroke-linejoin:miter;stroke-opacity:1"/>
<path class="bond-35 atom-23 atom-32" d="M 240.9,201.5 L 253.1,213.3" style="fill:none;fill-rule:evenodd;stroke:#000000;stroke-width:2.0px;stroke-linecap:butt;stroke-linejoin:miter;stroke-opacity:1"/>
<path class="bond-36 atom-23 atom-33" d="M 240.9,201.5 L 256.2,191.6" style="fill:none;fill-rule:evenodd;stroke:#000000;stroke-width:2.0px;stroke-linecap:butt;stroke-linejoin:miter;stroke-opacity:1"/>
<path class="bond-37 atom-34 atom-38" d="M 73.3,129.0 L 76.6,120.4" style="fill:none;fill-rule:evenodd;stroke:#FF0000;stroke-width:2.0px;stroke-linecap:butt;stroke-linejoin:miter;stroke-opacity:1"/>
<path class="bond-37 atom-34 atom-38" d="M 76.6,120.4 L 80.0,111.8" style="fill:none;fill-rule:evenodd;stroke:#000000;stroke-width:2.0px;stroke-linecap:butt;stroke-linejoin:miter;stroke-opacity:1"/>
<path class="bond-38 atom-35 atom-36" d="M 90.4,65.1 L 67.5,72.3" style="fill:none;fill-rule:evenodd;stroke:#000000;stroke-width:2.0px;stroke-linecap:butt;stroke-linejoin:miter;stroke-opacity:1"/>
<path class="bond-38 atom-35 atom-36" d="M 88.3,70.3 L 72.3,75.3" style="fill:none;fill-rule:evenodd;stroke:#000000;stroke-width:2.0px;stroke-linecap:butt;stroke-linejoin:miter;stroke-opacity:1"/>
<path class="bond-39 atom-35 atom-40" d="M 90.4,65.1 L 108.4,81.3" style="fill:none;fill-rule:evenodd;stroke:#000000;stroke-width:2.0px;stroke-linecap:butt;stroke-linejoin:miter;stroke-opacity:1"/>
<path class="bond-40 atom-35 atom-41" d="M 90.4,65.1 L 93.7,48.0" style="fill:none;fill-rule:evenodd;stroke:#000000;stroke-width:2.0px;stroke-linecap:butt;stroke-linejoin:miter;stroke-opacity:1"/>
<path class="bond-41 atom-36 atom-37" d="M 67.5,72.3 L 62.3,95.6" style="fill:none;fill-rule:evenodd;stroke:#000000;stroke-width:2.0px;stroke-linecap:butt;stroke-linejoin:miter;stroke-opacity:1"/>
<path class="bond-42 atom-36 atom-42" d="M 67.5,72.3 L 53.8,60.1" style="fill:none;fill-rule:evenodd;stroke:#000000;stroke-width:2.0px;stroke-linecap:butt;stroke-linejoin:miter;stroke-opacity:1"/>
<path class="bond-43 atom-37 atom-38" d="M 62.3,95.6 L 80.0,111.8" style="fill:none;fill-rule:evenodd;stroke:#000000;stroke-width:2.0px;stroke-linecap:butt;stroke-linejoin:miter;stroke-opacity:1"/>
<path class="bond-43 atom-37 atom-38" d="M 67.9,94.9 L 80.2,106.2" style="fill:none;fill-rule:evenodd;stroke:#000000;stroke-width:2.0px;stroke-linecap:butt;stroke-linejoin:miter;stroke-opacity:1"/>
<path class="bond-44 atom-37 atom-43" d="M 62.3,95.6 L 52.1,98.5" style="fill:none;fill-rule:evenodd;stroke:#000000;stroke-width:2.0px;stroke-linecap:butt;stroke-linejoin:miter;stroke-opacity:1"/>
<path class="bond-44 atom-37 atom-43" d="M 52.1,98.5 L 41.9,101.4" style="fill:none;fill-rule:evenodd;stroke:#33CCCC;stroke-width:2.0px;stroke-linecap:butt;stroke-linejoin:miter;stroke-opacity:1"/>
<path class="bond-45 atom-38 atom-39" d="M 80.0,111.8 L 103.4,104.5" style="fill:none;fill-rule:evenodd;stroke:#000000;stroke-width:2.0px;stroke-linecap:butt;stroke-linejoin:miter;stroke-opacity:1"/>
<path class="bond-46 atom-39 atom-40" d="M 103.4,104.5 L 108.4,81.3" style="fill:none;fill-rule:evenodd;stroke:#000000;stroke-width:2.0px;stroke-linecap:butt;stroke-linejoin:miter;stroke-opacity:1"/>
<path class="bond-46 atom-39 atom-40" d="M 99.9,100.1 L 103.4,83.9" style="fill:none;fill-rule:evenodd;stroke:#000000;stroke-width:2.0px;stroke-linecap:butt;stroke-linejoin:miter;stroke-opacity:1"/>
<path class="bond-47 atom-39 atom-44" d="M 103.4,104.5 L 105.8,116.9" style="fill:none;fill-rule:evenodd;stroke:#000000;stroke-width:2.0px;stroke-linecap:butt;stroke-linejoin:miter;stroke-opacity:1"/>
<path class="bond-48 atom-40 atom-45" d="M 108.4,81.3 L 125.2,76.1" style="fill:none;fill-rule:evenodd;stroke:#000000;stroke-width:2.0px;stroke-linecap:butt;stroke-linejoin:miter;stroke-opacity:1"/>
<path class="atom-8" d="M 158.3 179.7 L 161.6 185.0 Q 161.9 185.6, 162.4 186.5 Q 163.0 187.5, 163.0 187.5 L 163.0 179.7 L 164.3 179.7 L 164.3 189.8 L 163.0 189.8 L 159.4 183.9 Q 159.0 183.2, 158.5 182.5 Q 158.1 181.7, 158.0 181.4 L 158.0 189.8 L 156.6 189.8 L 156.6 179.7 L 158.3 179.7 " fill="#0000FF"/>
<path class="atom-9" d="M 46.5 177.8 Q 46.5 175.4, 47.7 174.0 Q 48.9 172.6, 51.1 172.6 Q 53.4 172.6, 54.6 174.0 Q 55.8 175.4, 55.8 177.8 Q 55.8 180.3, 54.6 181.7 Q 53.4 183.1, 51.1 183.1 Q 48.9 183.1, 47.7 181.7 Q 46.5 180.3, 46.5 177.8 M 51.1 181.9 Q 52.7 181.9, 53.5 180.9 Q 54.4 179.8, 54.4 177.8 Q 54.4 175.8, 53.5 174.8 Q 52.7 173.8, 51.1 173.8 Q 49.6 173.8, 48.8 174.8 Q 47.9 175.8, 47.9 177.8 Q 47.9 179.8, 48.8 180.9 Q 49.6 181.9, 51.1 181.9 " fill="#FF0000"/>
<path class="atom-10" d="M 87.2 189.3 L 90.5 194.7 Q 90.8 195.2, 91.4 196.2 Q 91.9 197.1, 91.9 197.2 L 91.9 189.3 L 93.3 189.3 L 93.3 199.5 L 91.9 199.5 L 88.3 193.6 Q 87.9 192.9, 87.5 192.1 Q 87.0 191.3, 86.9 191.1 L 86.9 199.5 L 85.6 199.5 L 85.6 189.3 L 87.2 189.3 " fill="#0000FF"/>
<path class="atom-11" d="M 125.5 205.0 L 128.8 210.3 Q 129.2 210.9, 129.7 211.8 Q 130.2 212.8, 130.3 212.9 L 130.3 205.0 L 131.6 205.0 L 131.6 215.1 L 130.2 215.1 L 126.7 209.2 Q 126.2 208.6, 125.8 207.8 Q 125.4 207.0, 125.2 206.7 L 125.2 215.1 L 123.9 215.1 L 123.9 205.0 L 125.5 205.0 " fill="#0000FF"/>
<path class="atom-12" d="M 167.6 219.0 L 170.9 224.4 Q 171.2 224.9, 171.8 225.9 Q 172.3 226.8, 172.3 226.9 L 172.3 219.0 L 173.7 219.0 L 173.7 229.2 L 172.3 229.2 L 168.7 223.3 Q 168.3 222.6, 167.9 221.8 Q 167.4 221.0, 167.3 220.8 L 167.3 229.2 L 166.0 229.2 L 166.0 219.0 L 167.6 219.0 " fill="#0000FF"/>
<path class="atom-13" d="M 99.7 127.6 L 101.1 127.6 L 101.1 131.9 L 106.2 131.9 L 106.2 127.6 L 107.6 127.6 L 107.6 137.7 L 106.2 137.7 L 106.2 133.0 L 101.1 133.0 L 101.1 137.7 L 99.7 137.7 L 99.7 127.6 " fill="#000000"/>
<path class="atom-14" d="M 151.0 138.7 L 152.3 138.7 L 152.3 143.0 L 157.5 143.0 L 157.5 138.7 L 158.9 138.7 L 158.9 148.8 L 157.5 148.8 L 157.5 144.1 L 152.3 144.1 L 152.3 148.8 L 151.0 148.8 L 151.0 138.7 " fill="#000000"/>
<path class="atom-15" d="M 97.4 220.6 L 98.8 220.6 L 98.8 224.9 L 103.9 224.9 L 103.9 220.6 L 105.3 220.6 L 105.3 230.8 L 103.9 230.8 L 103.9 226.1 L 98.8 226.1 L 98.8 230.8 L 97.4 230.8 L 97.4 220.6 " fill="#000000"/>
<path class="atom-16" d="M 78.4 234.9 L 79.8 234.9 L 79.8 239.2 L 85.0 239.2 L 85.0 234.9 L 86.4 234.9 L 86.4 245.1 L 85.0 245.1 L 85.0 240.4 L 79.8 240.4 L 79.8 245.1 L 78.4 245.1 L 78.4 234.9 " fill="#000000"/>
<path class="atom-17" d="M 51.7 214.0 L 53.1 214.0 L 53.1 218.3 L 58.3 218.3 L 58.3 214.0 L 59.6 214.0 L 59.6 224.1 L 58.3 224.1 L 58.3 219.5 L 53.1 219.5 L 53.1 224.1 L 51.7 224.1 L 51.7 214.0 " fill="#000000"/>
<path class="atom-18" d="M 159.2 242.1 L 160.5 242.1 L 160.5 246.4 L 165.7 246.4 L 165.7 242.1 L 167.1 242.1 L 167.1 252.3 L 165.7 252.3 L 165.7 247.6 L 160.5 247.6 L 160.5 252.3 L 159.2 252.3 L 159.2 242.1 " fill="#000000"/>
<path class="atom-24" d="M 228.1 179.0 Q 228.1 176.5, 229.3 175.2 Q 230.5 173.8, 232.7 173.8 Q 235.0 173.8, 236.2 175.2 Q 237.4 176.5, 237.4 179.0 Q 237.4 181.4, 236.2 182.8 Q 234.9 184.2, 232.7 184.2 Q 230.5 184.2, 229.3 182.8 Q 228.1 181.4, 228.1 179.0 M 232.7 183.1 Q 234.3 183.1, 235.1 182.0 Q 235.9 181.0, 235.9 179.0 Q 235.9 177.0, 235.1 176.0 Q 234.3 174.9, 232.7 174.9 Q 231.2 174.9, 230.3 176.0 Q 229.5 177.0, 229.5 179.0 Q 229.5 181.0, 230.3 182.0 Q 231.2 183.1, 232.7 183.1 " fill="#FF0000"/>
<path class="atom-25" d="M 214.1 147.5 L 215.5 147.5 L 215.5 151.8 L 220.7 151.8 L 220.7 147.5 L 222.1 147.5 L 222.1 157.6 L 220.7 157.6 L 220.7 152.9 L 215.5 152.9 L 215.5 157.6 L 214.1 157.6 L 214.1 147.5 " fill="#000000"/>
<path class="atom-26" d="M 185.5 156.3 L 186.9 156.3 L 186.9 160.6 L 192.1 160.6 L 192.1 156.3 L 193.5 156.3 L 193.5 166.4 L 192.1 166.4 L 192.1 161.7 L 186.9 161.7 L 186.9 166.4 L 185.5 166.4 L 185.5 156.3 " fill="#000000"/>
<path class="atom-27" d="M 173.6 171.2 L 175.0 171.2 L 175.0 175.5 L 180.2 175.5 L 180.2 171.2 L 181.6 171.2 L 181.6 181.3 L 180.2 181.3 L 180.2 176.6 L 175.0 176.6 L 175.0 181.3 L 173.6 181.3 L 173.6 171.2 " fill="#000000"/>
<path class="atom-28" d="M 171.2 197.8 L 172.5 197.8 L 172.5 202.1 L 177.7 202.1 L 177.7 197.8 L 179.1 197.8 L 179.1 208.0 L 177.7 208.0 L 177.7 203.3 L 172.5 203.3 L 172.5 208.0 L 171.2 208.0 L 171.2 197.8 " fill="#000000"/>
<path class="atom-29" d="M 196.4 234.1 L 197.7 234.1 L 197.7 238.5 L 202.9 238.5 L 202.9 234.1 L 204.3 234.1 L 204.3 244.3 L 202.9 244.3 L 202.9 239.6 L 197.7 239.6 L 197.7 244.3 L 196.4 244.3 L 196.4 234.1 " fill="#000000"/>
<path class="atom-30" d="M 215.1 237.5 L 216.5 237.5 L 216.5 241.8 L 221.7 241.8 L 221.7 237.5 L 223.1 237.5 L 223.1 247.7 L 221.7 247.7 L 221.7 243.0 L 216.5 243.0 L 216.5 247.7 L 215.1 247.7 L 215.1 237.5 " fill="#000000"/>
<path class="atom-31" d="M 241.4 227.3 L 242.8 227.3 L 242.8 231.6 L 248.0 231.6 L 248.0 227.3 L 249.4 227.3 L 249.4 237.5 L 248.0 237.5 L 248.0 232.8 L 242.8 232.8 L 242.8 237.5 L 241.4 237.5 L 241.4 227.3 " fill="#000000"/>
<path class="atom-32" d="M 253.8 212.8 L 255.2 212.8 L 255.2 217.1 L 260.4 217.1 L 260.4 212.8 L 261.8 212.8 L 261.8 223.0 L 260.4 223.0 L 260.4 218.3 L 255.2 218.3 L 255.2 223.0 L 253.8 223.0 L 253.8 212.8 " fill="#000000"/>
<path class="atom-33" d="M 257.0 183.4 L 258.3 183.4 L 258.3 187.7 L 263.5 187.7 L 263.5 183.4 L 264.9 183.4 L 264.9 193.6 L 263.5 193.6 L 263.5 188.9 L 258.3 188.9 L 258.3 193.6 L 257.0 193.6 L 257.0 183.4 " fill="#000000"/>
<path class="atom-34" d="M 66.3 135.0 Q 66.3 132.5, 67.5 131.2 Q 68.7 129.8, 71.0 129.8 Q 73.2 129.8, 74.5 131.2 Q 75.7 132.5, 75.7 135.0 Q 75.7 137.4, 74.4 138.8 Q 73.2 140.2, 71.0 140.2 Q 68.8 140.2, 67.5 138.8 Q 66.3 137.4, 66.3 135.0 M 71.0 139.1 Q 72.5 139.1, 73.4 138.0 Q 74.2 137.0, 74.2 135.0 Q 74.2 133.0, 73.4 132.0 Q 72.5 130.9, 71.0 130.9 Q 69.5 130.9, 68.6 132.0 Q 67.8 133.0, 67.8 135.0 Q 67.8 137.0, 68.6 138.0 Q 69.5 139.1, 71.0 139.1 " fill="#FF0000"/>
<path class="atom-41" d="M 90.9 37.0 L 92.3 37.0 L 92.3 41.4 L 97.4 41.4 L 97.4 37.0 L 98.8 37.0 L 98.8 47.2 L 97.4 47.2 L 97.4 42.5 L 92.3 42.5 L 92.3 47.2 L 90.9 47.2 L 90.9 37.0 " fill="#000000"/>
<path class="atom-42" d="M 45.1 50.9 L 46.5 50.9 L 46.5 55.2 L 51.6 55.2 L 51.6 50.9 L 53.0 50.9 L 53.0 61.0 L 51.6 61.0 L 51.6 56.3 L 46.5 56.3 L 46.5 61.0 L 45.1 61.0 L 45.1 50.9 " fill="#000000"/>
<path class="atom-43" d="M 35.1 97.4 L 41.1 97.4 L 41.1 98.6 L 36.5 98.6 L 36.5 101.7 L 40.6 101.7 L 40.6 102.8 L 36.5 102.8 L 36.5 107.6 L 35.1 107.6 L 35.1 97.4 " fill="#33CCCC"/>
<path class="atom-44" d="M 103.0 117.7 L 104.3 117.7 L 104.3 122.0 L 109.5 122.0 L 109.5 117.7 L 110.9 117.7 L 110.9 127.9 L 109.5 127.9 L 109.5 123.2 L 104.3 123.2 L 104.3 127.9 L 103.0 127.9 L 103.0 117.7 " fill="#000000"/>
<path class="atom-45" d="M 125.9 69.6 L 127.3 69.6 L 127.3 73.9 L 132.5 73.9 L 132.5 69.6 L 133.9 69.6 L 133.9 79.8 L 132.5 79.8 L 132.5 75.1 L 127.3 75.1 L 127.3 79.8 L 125.9 79.8 L 125.9 69.6 " fill="#000000"/>
<ellipse cx="463.6" cy="247.2" rx="7.9" ry="7.9" class="atom-18" style="fill:#DC3369;fill-rule:evenodd;stroke:#DC3369;stroke-width:1.0px;stroke-linecap:butt;stroke-linejoin:miter;stroke-opacity:1"/>
<ellipse cx="371.5" cy="135.1" rx="7.9" ry="7.9" class="atom-34" style="fill:#5446F4;fill-rule:evenodd;stroke:#5446F4;stroke-width:1.0px;stroke-linecap:butt;stroke-linejoin:miter;stroke-opacity:1"/>
<path class="bond-0 atom-0 atom-6" d="M 375.3,175.5 L 384.1,153.5" style="fill:none;fill-rule:evenodd;stroke:#000000;stroke-width:2.0px;stroke-linecap:butt;stroke-linejoin:miter;stroke-opacity:1"/>
<path class="bond-1 atom-0 atom-9" d="M 375.5,177.7 L 366.4,178.5" style="fill:none;fill-rule:evenodd;stroke:#000000;stroke-width:2.0px;stroke-linecap:butt;stroke-linejoin:miter;stroke-opacity:1"/>
<path class="bond-1 atom-0 atom-9" d="M 366.4,178.5 L 357.3,179.4" style="fill:none;fill-rule:evenodd;stroke:#FF0000;stroke-width:2.0px;stroke-linecap:butt;stroke-linejoin:miter;stroke-opacity:1"/>
<path class="bond-1 atom-0 atom-9" d="M 375.1,173.4 L 366.0,174.2" style="fill:none;fill-rule:evenodd;stroke:#000000;stroke-width:2.0px;stroke-linecap:butt;stroke-linejoin:miter;stroke-opacity:1"/>
<path class="bond-1 atom-0 atom-9" d="M 366.0,174.2 L 356.9,175.1" style="fill:none;fill-rule:evenodd;stroke:#FF0000;stroke-width:2.0px;stroke-linecap:butt;stroke-linejoin:miter;stroke-opacity:1"/>
<path class="bond-2 atom-0 atom-10" d="M 375.3,175.5 L 380.3,182.0" style="fill:none;fill-rule:evenodd;stroke:#000000;stroke-width:2.0px;stroke-linecap:butt;stroke-linejoin:miter;stroke-opacity:1"/>
<path class="bond-2 atom-0 atom-10" d="M 380.3,182.0 L 385.4,188.5" style="fill:none;fill-rule:evenodd;stroke:#0000FF;stroke-width:2.0px;stroke-linecap:butt;stroke-linejoin:miter;stroke-opacity:1"/>
<path class="bond-3 atom-1 atom-8" d="M 451.9,206.8 L 455.2,198.7" style="fill:none;fill-rule:evenodd;stroke:#000000;stroke-width:2.0px;stroke-linecap:butt;stroke-linejoin:miter;stroke-opacity:1"/>
<path class="bond-3 atom-1 atom-8" d="M 455.2,198.7 L 458.6,190.6" style="fill:none;fill-rule:evenodd;stroke:#0000FF;stroke-width:2.0px;stroke-linecap:butt;stroke-linejoin:miter;stroke-opacity:1"/>
<path class="bond-4 atom-1 atom-11" d="M 451.9,206.8 L 442.4,208.1" style="fill:none;fill-rule:evenodd;stroke:#000000;stroke-width:2.0px;stroke-linecap:butt;stroke-linejoin:miter;stroke-opacity:1"/>
<path class="bond-4 atom-1 atom-11" d="M 442.4,208.1 L 432.9,209.4" style="fill:none;fill-rule:evenodd;stroke:#0000FF;stroke-width:2.0px;stroke-linecap:butt;stroke-linejoin:miter;stroke-opacity:1"/>
<path class="bond-4 atom-1 atom-11" d="M 448.5,202.9 L 441.8,203.8" style="fill:none;fill-rule:evenodd;stroke:#000000;stroke-width:2.0px;stroke-linecap:butt;stroke-linejoin:miter;stroke-opacity:1"/>
<path class="bond-4 atom-1 atom-11" d="M 441.8,203.8 L 435.1,204.8" style="fill:none;fill-rule:evenodd;stroke:#0000FF;stroke-width:2.0px;stroke-linecap:butt;stroke-linejoin:miter;stroke-opacity:1"/>
<path class="bond-5 atom-1 atom-12" d="M 451.9,206.8 L 458.8,213.3" style="fill:none;fill-rule:evenodd;stroke:#000000;stroke-width:2.0px;stroke-linecap:butt;stroke-linejoin:miter;stroke-opacity:1"/>
<path class="bond-5 atom-1 atom-12" d="M 458.8,213.3 L 465.7,219.7" style="fill:none;fill-rule:evenodd;stroke:#0000FF;stroke-width:2.0px;stroke-linecap:butt;stroke-linejoin:miter;stroke-opacity:1"/>
<path class="bond-6 atom-2 atom-3" d="M 422.5,169.1 L 407.3,150.2" style="fill:none;fill-rule:evenodd;stroke:#000000;stroke-width:2.0px;stroke-linecap:butt;stroke-linejoin:miter;stroke-opacity:1"/>
<path class="bond-7 atom-2 atom-4" d="M 422.5,169.1 L 413.6,191.2" style="fill:none;fill-rule:evenodd;stroke:#000000;stroke-width:2.0px;stroke-linecap:butt;stroke-linejoin:miter;stroke-opacity:1"/>
<path class="bond-7 atom-2 atom-4" d="M 417.1,170.8 L 411.0,186.2" style="fill:none;fill-rule:evenodd;stroke:#000000;stroke-width:2.0px;stroke-linecap:butt;stroke-linejoin:miter;stroke-opacity:1"/>
<path class="bond-8 atom-2 atom-5" d="M 422.5,169.1 L 446.3,165.9" style="fill:none;fill-rule:evenodd;stroke:#000000;stroke-width:2.0px;stroke-linecap:butt;stroke-linejoin:miter;stroke-opacity:1"/>
<path class="bond-9 atom-3 atom-6" d="M 407.3,150.2 L 384.1,153.5" style="fill:none;fill-rule:evenodd;stroke:#000000;stroke-width:2.0px;stroke-linecap:butt;stroke-linejoin:miter;stroke-opacity:1"/>
<path class="bond-9 atom-3 atom-6" d="M 404.4,155.0 L 388.2,157.3" style="fill:none;fill-rule:evenodd;stroke:#000000;stroke-width:2.0px;stroke-linecap:butt;stroke-linejoin:miter;stroke-opacity:1"/>
<path class="bond-10 atom-3 atom-13" d="M 407.3,150.2 L 405.2,138.5" style="fill:none;fill-rule:evenodd;stroke:#000000;stroke-width:2.0px;stroke-linecap:butt;stroke-linejoin:miter;stroke-opacity:1"/>
<path class="bond-11 atom-4 atom-10" d="M 413.6,191.2 L 404.1,192.5" style="fill:none;fill-rule:evenodd;stroke:#000000;stroke-width:2.0px;stroke-linecap:butt;stroke-linejoin:miter;stroke-opacity:1"/>
<path class="bond-11 atom-4 atom-10" d="M 404.1,192.5 L 394.5,193.8" style="fill:none;fill-rule:evenodd;stroke:#0000FF;stroke-width:2.0px;stroke-linecap:butt;stroke-linejoin:miter;stroke-opacity:1"/>
<path class="bond-12 atom-4 atom-11" d="M 413.6,191.2 L 418.7,197.7" style="fill:none;fill-rule:evenodd;stroke:#000000;stroke-width:2.0px;stroke-linecap:butt;stroke-linejoin:miter;stroke-opacity:1"/>
<path class="bond-12 atom-4 atom-11" d="M 418.7,197.7 L 423.7,204.2" style="fill:none;fill-rule:evenodd;stroke:#0000FF;stroke-width:2.0px;stroke-linecap:butt;stroke-linejoin:miter;stroke-opacity:1"/>
<path class="bond-13 atom-5 atom-8" d="M 446.3,165.9 L 451.3,172.4" style="fill:none;fill-rule:evenodd;stroke:#000000;stroke-width:2.0px;stroke-linecap:butt;stroke-linejoin:miter;stroke-opacity:1"/>
<path class="bond-13 atom-5 atom-8" d="M 451.3,172.4 L 456.4,178.9" style="fill:none;fill-rule:evenodd;stroke:#0000FF;stroke-width:2.0px;stroke-linecap:butt;stroke-linejoin:miter;stroke-opacity:1"/>
<path class="bond-13 atom-5 atom-8" d="M 444.4,170.5 L 447.9,175.0" style="fill:none;fill-rule:evenodd;stroke:#000000;stroke-width:2.0px;stroke-linecap:butt;stroke-linejoin:miter;stroke-opacity:1"/>
<path class="bond-13 atom-5 atom-8" d="M 447.9,175.0 L 451.5,179.6" style="fill:none;fill-rule:evenodd;stroke:#0000FF;stroke-width:2.0px;stroke-linecap:butt;stroke-linejoin:miter;stroke-opacity:1"/>
<path class="bond-14 atom-5 atom-14" d="M 446.3,165.9 L 453.0,149.6" style="fill:none;fill-rule:evenodd;stroke:#000000;stroke-width:2.0px;stroke-linecap:butt;stroke-linejoin:miter;stroke-opacity:1"/>
<path class="bond-15 atom-6 atom-34" d="M 384.1,153.5 L 379.8,147.2" style="fill:none;fill-rule:evenodd;stroke:#000000;stroke-width:2.0px;stroke-linecap:butt;stroke-linejoin:miter;stroke-opacity:1"/>
<path class="bond-15 atom-6 atom-34" d="M 379.8,147.2 L 375.5,140.9" style="fill:none;fill-rule:evenodd;stroke:#CCCC00;stroke-width:2.0px;stroke-linecap:butt;stroke-linejoin:miter;stroke-opacity:1"/>
<path class="bond-16 atom-7 atom-10" d="M 380.2,216.3 L 383.8,208.3" style="fill:none;fill-rule:evenodd;stroke:#000000;stroke-width:2.0px;stroke-linecap:butt;stroke-linejoin:miter;stroke-opacity:1"/>
<path class="bond-16 atom-7 atom-10" d="M 383.8,208.3 L 387.3,200.2" style="fill:none;fill-rule:evenodd;stroke:#0000FF;stroke-width:2.0px;stroke-linecap:butt;stroke-linejoin:miter;stroke-opacity:1"/>
<path class="bond-17 atom-7 atom-15" d="M 380.2,216.3 L 397.1,223.6" style="fill:none;fill-rule:evenodd;stroke:#000000;stroke-width:2.0px;stroke-linecap:butt;stroke-linejoin:miter;stroke-opacity:1"/>
<path class="bond-18 atom-7 atom-16" d="M 380.2,216.3 L 382.2,234.1" style="fill:none;fill-rule:evenodd;stroke:#000000;stroke-width:2.0px;stroke-linecap:butt;stroke-linejoin:miter;stroke-opacity:1"/>
<path class="bond-19 atom-7 atom-17" d="M 380.2,216.3 L 360.9,218.5" style="fill:none;fill-rule:evenodd;stroke:#000000;stroke-width:2.0px;stroke-linecap:butt;stroke-linejoin:miter;stroke-opacity:1"/>
<path class="bond-20 atom-12 atom-18" d="M 468.6,230.0 L 467.0,235.6" style="fill:none;fill-rule:evenodd;stroke:#0000FF;stroke-width:2.0px;stroke-linecap:butt;stroke-linejoin:miter;stroke-opacity:1"/>
<path class="bond-20 atom-12 atom-18" d="M 467.0,235.6 L 465.3,241.3" style="fill:none;fill-rule:evenodd;stroke:#000000;stroke-width:2.0px;stroke-linecap:butt;stroke-linejoin:miter;stroke-opacity:1"/>
<path class="bond-21 atom-12 atom-21" d="M 474.9,222.9 L 488.5,219.3" style="fill:none;fill-rule:evenodd;stroke:#0000FF;stroke-width:2.0px;stroke-linecap:butt;stroke-linejoin:miter;stroke-opacity:1"/>
<path class="bond-21 atom-12 atom-21" d="M 488.5,219.3 L 502.1,215.7" style="fill:none;fill-rule:evenodd;stroke:#000000;stroke-width:2.0px;stroke-linecap:butt;stroke-linejoin:miter;stroke-opacity:1"/>
<path class="bond-22 atom-19 atom-20" d="M 509.6,174.6 L 494.0,193.1" style="fill:none;fill-rule:evenodd;stroke:#000000;stroke-width:2.0px;stroke-linecap:butt;stroke-linejoin:miter;stroke-opacity:1"/>
<path class="bond-23 atom-19 atom-24" d="M 509.6,174.6 L 518.7,176.3" style="fill:none;fill-rule:evenodd;stroke:#000000;stroke-width:2.0px;stroke-linecap:butt;stroke-linejoin:miter;stroke-opacity:1"/>
<path class="bond-23 atom-19 atom-24" d="M 518.7,176.3 L 527.8,177.9" style="fill:none;fill-rule:evenodd;stroke:#FF0000;stroke-width:2.0px;stroke-linecap:butt;stroke-linejoin:miter;stroke-opacity:1"/>
<path class="bond-24 atom-19 atom-25" d="M 509.6,174.6 L 516.2,158.4" style="fill:none;fill-rule:evenodd;stroke:#000000;stroke-width:2.0px;stroke-linecap:butt;stroke-linejoin:miter;stroke-opacity:1"/>
<path class="bond-25 atom-19 atom-26" d="M 509.6,174.6 L 494.7,164.6" style="fill:none;fill-rule:evenodd;stroke:#000000;stroke-width:2.0px;stroke-linecap:butt;stroke-linejoin:miter;stroke-opacity:1"/>
<path class="bond-26 atom-20 atom-21" d="M 494.0,193.1 L 502.1,215.7" style="fill:none;fill-rule:evenodd;stroke:#000000;stroke-width:2.0px;stroke-linecap:butt;stroke-linejoin:miter;stroke-opacity:1"/>
<path class="bond-27 atom-20 atom-27" d="M 494.0,193.1 L 482.8,181.2" style="fill:none;fill-rule:evenodd;stroke:#000000;stroke-width:2.0px;stroke-linecap:butt;stroke-linejoin:miter;stroke-opacity:1"/>
<path class="bond-28 atom-20 atom-28" d="M 494.0,193.1 L 480.4,200.4" style="fill:none;fill-rule:evenodd;stroke:#000000;stroke-width:2.0px;stroke-linecap:butt;stroke-linejoin:miter;stroke-opacity:1"/>
<path class="bond-29 atom-21 atom-22" d="M 502.1,215.7 L 525.8,219.9" style="fill:none;fill-rule:evenodd;stroke:#000000;stroke-width:2.0px;stroke-linecap:butt;stroke-linejoin:miter;stroke-opacity:1"/>
<path class="bond-30 atom-21 atom-29" d="M 502.1,215.7 L 501.1,233.4" style="fill:none;fill-rule:evenodd;stroke:#000000;stroke-width:2.0px;stroke-linecap:butt;stroke-linejoin:miter;stroke-opacity:1"/>
<path class="bond-31 atom-22 atom-23" d="M 525.8,219.9 L 541.4,201.5" style="fill:none;fill-rule:evenodd;stroke:#000000;stroke-width:2.0px;stroke-linecap:butt;stroke-linejoin:miter;stroke-opacity:1"/>
<path class="bond-32 atom-22 atom-30" d="M 525.8,219.9 L 521.2,236.7" style="fill:none;fill-rule:evenodd;stroke:#000000;stroke-width:2.0px;stroke-linecap:butt;stroke-linejoin:miter;stroke-opacity:1"/>
<path class="bond-33 atom-22 atom-31" d="M 525.8,219.9 L 541.1,229.4" style="fill:none;fill-rule:evenodd;stroke:#000000;stroke-width:2.0px;stroke-linecap:butt;stroke-linejoin:miter;stroke-opacity:1"/>
<path class="bond-34 atom-23 atom-24" d="M 541.4,201.5 L 538.4,193.3" style="fill:none;fill-rule:evenodd;stroke:#000000;stroke-width:2.0px;stroke-linecap:butt;stroke-linejoin:miter;stroke-opacity:1"/>
<path class="bond-34 atom-23 atom-24" d="M 538.4,193.3 L 535.4,185.0" style="fill:none;fill-rule:evenodd;stroke:#FF0000;stroke-width:2.0px;stroke-linecap:butt;stroke-linejoin:miter;stroke-opacity:1"/>
<path class="bond-35 atom-23 atom-32" d="M 541.4,201.5 L 553.5,213.3" style="fill:none;fill-rule:evenodd;stroke:#000000;stroke-width:2.0px;stroke-linecap:butt;stroke-linejoin:miter;stroke-opacity:1"/>
<path class="bond-36 atom-23 atom-33" d="M 541.4,201.5 L 556.7,191.6" style="fill:none;fill-rule:evenodd;stroke:#000000;stroke-width:2.0px;stroke-linecap:butt;stroke-linejoin:miter;stroke-opacity:1"/>
<path class="bond-37 atom-34 atom-38" d="M 373.7,129.1 L 377.1,120.4" style="fill:none;fill-rule:evenodd;stroke:#CCCC00;stroke-width:2.0px;stroke-linecap:butt;stroke-linejoin:miter;stroke-opacity:1"/>
<path class="bond-37 atom-34 atom-38" d="M 377.1,120.4 L 380.5,111.8" style="fill:none;fill-rule:evenodd;stroke:#000000;stroke-width:2.0px;stroke-linecap:butt;stroke-linejoin:miter;stroke-opacity:1"/>
<path class="bond-38 atom-35 atom-36" d="M 390.9,65.1 L 368.0,72.3" style="fill:none;fill-rule:evenodd;stroke:#000000;stroke-width:2.0px;stroke-linecap:butt;stroke-linejoin:miter;stroke-opacity:1"/>
<path class="bond-38 atom-35 atom-36" d="M 388.8,70.3 L 372.7,75.3" style="fill:none;fill-rule:evenodd;stroke:#000000;stroke-width:2.0px;stroke-linecap:butt;stroke-linejoin:miter;stroke-opacity:1"/>
<path class="bond-39 atom-35 atom-40" d="M 390.9,65.1 L 408.8,81.3" style="fill:none;fill-rule:evenodd;stroke:#000000;stroke-width:2.0px;stroke-linecap:butt;stroke-linejoin:miter;stroke-opacity:1"/>
<path class="bond-40 atom-35 atom-41" d="M 390.9,65.1 L 394.2,48.0" style="fill:none;fill-rule:evenodd;stroke:#000000;stroke-width:2.0px;stroke-linecap:butt;stroke-linejoin:miter;stroke-opacity:1"/>
<path class="bond-41 atom-36 atom-37" d="M 368.0,72.3 L 362.8,95.6" style="fill:none;fill-rule:evenodd;stroke:#000000;stroke-width:2.0px;stroke-linecap:butt;stroke-linejoin:miter;stroke-opacity:1"/>
<path class="bond-42 atom-36 atom-42" d="M 368.0,72.3 L 354.3,60.1" style="fill:none;fill-rule:evenodd;stroke:#000000;stroke-width:2.0px;stroke-linecap:butt;stroke-linejoin:miter;stroke-opacity:1"/>
<path class="bond-43 atom-37 atom-38" d="M 362.8,95.6 L 380.5,111.8" style="fill:none;fill-rule:evenodd;stroke:#000000;stroke-width:2.0px;stroke-linecap:butt;stroke-linejoin:miter;stroke-opacity:1"/>
<path class="bond-43 atom-37 atom-38" d="M 368.4,94.9 L 380.7,106.2" style="fill:none;fill-rule:evenodd;stroke:#000000;stroke-width:2.0px;stroke-linecap:butt;stroke-linejoin:miter;stroke-opacity:1"/>
<path class="bond-44 atom-37 atom-43" d="M 362.8,95.6 L 343.3,101.1" style="fill:none;fill-rule:evenodd;stroke:#000000;stroke-width:2.0px;stroke-linecap:butt;stroke-linejoin:miter;stroke-opacity:1"/>
<path class="bond-45 atom-38 atom-39" d="M 380.5,111.8 L 403.8,104.5" style="fill:none;fill-rule:evenodd;stroke:#000000;stroke-width:2.0px;stroke-linecap:butt;stroke-linejoin:miter;stroke-opacity:1"/>
<path class="bond-46 atom-39 atom-40" d="M 403.8,104.5 L 408.8,81.3" style="fill:none;fill-rule:evenodd;stroke:#000000;stroke-width:2.0px;stroke-linecap:butt;stroke-linejoin:miter;stroke-opacity:1"/>
<path class="bond-46 atom-39 atom-40" d="M 400.4,100.1 L 403.9,83.9" style="fill:none;fill-rule:evenodd;stroke:#000000;stroke-width:2.0px;stroke-linecap:butt;stroke-linejoin:miter;stroke-opacity:1"/>
<path class="bond-47 atom-39 atom-44" d="M 403.8,104.5 L 405.0,110.7" style="fill:none;fill-rule:evenodd;stroke:#000000;stroke-width:2.0px;stroke-linecap:butt;stroke-linejoin:miter;stroke-opacity:1"/>
<path class="bond-47 atom-39 atom-44" d="M 405.0,110.7 L 406.3,116.9" style="fill:none;fill-rule:evenodd;stroke:#33CCCC;stroke-width:2.0px;stroke-linecap:butt;stroke-linejoin:miter;stroke-opacity:1"/>
<path class="bond-48 atom-40 atom-45" d="M 408.8,81.3 L 425.6,76.1" style="fill:none;fill-rule:evenodd;stroke:#000000;stroke-width:2.0px;stroke-linecap:butt;stroke-linejoin:miter;stroke-opacity:1"/>
<path class="atom-8" d="M 458.7 179.7 L 462.1 185.0 Q 462.4 185.6, 462.9 186.5 Q 463.4 187.5, 463.5 187.5 L 463.5 179.7 L 464.8 179.7 L 464.8 189.8 L 463.4 189.8 L 459.9 183.9 Q 459.4 183.2, 459.0 182.5 Q 458.6 181.7, 458.4 181.4 L 458.4 189.8 L 457.1 189.8 L 457.1 179.7 L 458.7 179.7 " fill="#0000FF"/>
<path class="atom-9" d="M 347.0 177.8 Q 347.0 175.4, 348.2 174.0 Q 349.4 172.6, 351.6 172.6 Q 353.9 172.6, 355.1 174.0 Q 356.3 175.4, 356.3 177.8 Q 356.3 180.3, 355.1 181.7 Q 353.8 183.1, 351.6 183.1 Q 349.4 183.1, 348.2 181.7 Q 347.0 180.3, 347.0 177.8 M 351.6 181.9 Q 353.2 181.9, 354.0 180.9 Q 354.9 179.8, 354.9 177.8 Q 354.9 175.8, 354.0 174.8 Q 353.2 173.8, 351.6 173.8 Q 350.1 173.8, 349.2 174.8 Q 348.4 175.8, 348.4 177.8 Q 348.4 179.8, 349.2 180.9 Q 350.1 181.9, 351.6 181.9 " fill="#FF0000"/>
<path class="atom-10" d="M 387.7 189.3 L 391.0 194.7 Q 391.3 195.2, 391.8 196.2 Q 392.4 197.1, 392.4 197.2 L 392.4 189.3 L 393.8 189.3 L 393.8 199.5 L 392.4 199.5 L 388.8 193.6 Q 388.4 192.9, 387.9 192.1 Q 387.5 191.3, 387.4 191.1 L 387.4 199.5 L 386.1 199.5 L 386.1 189.3 L 387.7 189.3 " fill="#0000FF"/>
<path class="atom-11" d="M 426.0 205.0 L 429.3 210.3 Q 429.7 210.9, 430.2 211.8 Q 430.7 212.8, 430.7 212.9 L 430.7 205.0 L 432.1 205.0 L 432.1 215.1 L 430.7 215.1 L 427.1 209.2 Q 426.7 208.6, 426.3 207.8 Q 425.8 207.0, 425.7 206.7 L 425.7 215.1 L 424.4 215.1 L 424.4 205.0 L 426.0 205.0 " fill="#0000FF"/>
<path class="atom-12" d="M 468.1 219.0 L 471.4 224.4 Q 471.7 224.9, 472.3 225.9 Q 472.8 226.8, 472.8 226.9 L 472.8 219.0 L 474.2 219.0 L 474.2 229.2 L 472.8 229.2 L 469.2 223.3 Q 468.8 222.6, 468.3 221.8 Q 467.9 221.0, 467.8 220.8 L 467.8 229.2 L 466.5 229.2 L 466.5 219.0 L 468.1 219.0 " fill="#0000FF"/>
<path class="atom-13" d="M 400.2 127.6 L 401.5 127.6 L 401.5 131.9 L 406.7 131.9 L 406.7 127.6 L 408.1 127.6 L 408.1 137.7 L 406.7 137.7 L 406.7 133.0 L 401.5 133.0 L 401.5 137.7 L 400.2 137.7 L 400.2 127.6 " fill="#000000"/>
<path class="atom-14" d="M 451.4 138.7 L 452.8 138.7 L 452.8 143.0 L 458.0 143.0 L 458.0 138.7 L 459.4 138.7 L 459.4 148.8 L 458.0 148.8 L 458.0 144.1 L 452.8 144.1 L 452.8 148.8 L 451.4 148.8 L 451.4 138.7 " fill="#000000"/>
<path class="atom-15" d="M 397.9 220.6 L 399.2 220.6 L 399.2 224.9 L 404.4 224.9 L 404.4 220.6 L 405.8 220.6 L 405.8 230.8 L 404.4 230.8 L 404.4 226.1 L 399.2 226.1 L 399.2 230.8 L 397.9 230.8 L 397.9 220.6 " fill="#000000"/>
<path class="atom-16" d="M 378.9 234.9 L 380.3 234.9 L 380.3 239.2 L 385.5 239.2 L 385.5 234.9 L 386.9 234.9 L 386.9 245.1 L 385.5 245.1 L 385.5 240.4 L 380.3 240.4 L 380.3 245.1 L 378.9 245.1 L 378.9 234.9 " fill="#000000"/>
<path class="atom-17" d="M 352.2 214.0 L 353.5 214.0 L 353.5 218.3 L 358.7 218.3 L 358.7 214.0 L 360.1 214.0 L 360.1 224.1 L 358.7 224.1 L 358.7 219.5 L 353.5 219.5 L 353.5 224.1 L 352.2 224.1 L 352.2 214.0 " fill="#000000"/>
<path class="atom-18" d="M 459.6 242.1 L 461.0 242.1 L 461.0 246.4 L 466.2 246.4 L 466.2 242.1 L 467.6 242.1 L 467.6 252.3 L 466.2 252.3 L 466.2 247.6 L 461.0 247.6 L 461.0 252.3 L 459.6 252.3 L 459.6 242.1 " fill="#000000"/>
<path class="atom-24" d="M 528.5 179.0 Q 528.5 176.5, 529.7 175.2 Q 530.9 173.8, 533.2 173.8 Q 535.4 173.8, 536.7 175.2 Q 537.9 176.5, 537.9 179.0 Q 537.9 181.4, 536.6 182.8 Q 535.4 184.2, 533.2 184.2 Q 531.0 184.2, 529.7 182.8 Q 528.5 181.4, 528.5 179.0 M 533.2 183.1 Q 534.7 183.1, 535.6 182.0 Q 536.4 181.0, 536.4 179.0 Q 536.4 177.0, 535.6 176.0 Q 534.7 174.9, 533.2 174.9 Q 531.6 174.9, 530.8 176.0 Q 530.0 177.0, 530.0 179.0 Q 530.0 181.0, 530.8 182.0 Q 531.6 183.1, 533.2 183.1 " fill="#FF0000"/>
<path class="atom-25" d="M 514.6 147.5 L 516.0 147.5 L 516.0 151.8 L 521.2 151.8 L 521.2 147.5 L 522.5 147.5 L 522.5 157.6 L 521.2 157.6 L 521.2 152.9 L 516.0 152.9 L 516.0 157.6 L 514.6 157.6 L 514.6 147.5 " fill="#000000"/>
<path class="atom-26" d="M 486.0 156.3 L 487.4 156.3 L 487.4 160.6 L 492.6 160.6 L 492.6 156.3 L 493.9 156.3 L 493.9 166.4 L 492.6 166.4 L 492.6 161.7 L 487.4 161.7 L 487.4 166.4 L 486.0 166.4 L 486.0 156.3 " fill="#000000"/>
<path class="atom-27" d="M 474.1 171.2 L 475.5 171.2 L 475.5 175.5 L 480.7 175.5 L 480.7 171.2 L 482.0 171.2 L 482.0 181.3 L 480.7 181.3 L 480.7 176.6 L 475.5 176.6 L 475.5 181.3 L 474.1 181.3 L 474.1 171.2 " fill="#000000"/>
<path class="atom-28" d="M 471.6 197.8 L 473.0 197.8 L 473.0 202.1 L 478.2 202.1 L 478.2 197.8 L 479.6 197.8 L 479.6 208.0 L 478.2 208.0 L 478.2 203.3 L 473.0 203.3 L 473.0 208.0 L 471.6 208.0 L 471.6 197.8 " fill="#000000"/>
<path class="atom-29" d="M 496.8 234.1 L 498.2 234.1 L 498.2 238.5 L 503.4 238.5 L 503.4 234.1 L 504.8 234.1 L 504.8 244.3 L 503.4 244.3 L 503.4 239.6 L 498.2 239.6 L 498.2 244.3 L 496.8 244.3 L 496.8 234.1 " fill="#000000"/>
<path class="atom-30" d="M 515.6 237.5 L 517.0 237.5 L 517.0 241.8 L 522.2 241.8 L 522.2 237.5 L 523.6 237.5 L 523.6 247.7 L 522.2 247.7 L 522.2 243.0 L 517.0 243.0 L 517.0 247.7 L 515.6 247.7 L 515.6 237.5 " fill="#000000"/>
<path class="atom-31" d="M 541.9 227.3 L 543.3 227.3 L 543.3 231.6 L 548.5 231.6 L 548.5 227.3 L 549.9 227.3 L 549.9 237.5 L 548.5 237.5 L 548.5 232.8 L 543.3 232.8 L 543.3 237.5 L 541.9 237.5 L 541.9 227.3 " fill="#000000"/>
<path class="atom-32" d="M 554.3 212.8 L 555.7 212.8 L 555.7 217.1 L 560.9 217.1 L 560.9 212.8 L 562.3 212.8 L 562.3 223.0 L 560.9 223.0 L 560.9 218.3 L 555.7 218.3 L 555.7 223.0 L 554.3 223.0 L 554.3 212.8 " fill="#000000"/>
<path class="atom-33" d="M 557.4 183.4 L 558.8 183.4 L 558.8 187.7 L 564.0 187.7 L 564.0 183.4 L 565.4 183.4 L 565.4 193.6 L 564.0 193.6 L 564.0 188.9 L 558.8 188.9 L 558.8 193.6 L 557.4 193.6 L 557.4 183.4 " fill="#000000"/>
<path class="atom-34" d="M 368.6 138.4 Q 368.7 138.5, 369.2 138.7 Q 369.7 138.9, 370.2 139.0 Q 370.7 139.1, 371.2 139.1 Q 372.2 139.1, 372.8 138.6 Q 373.3 138.2, 373.3 137.4 Q 373.3 136.8, 373.0 136.5 Q 372.8 136.1, 372.3 135.9 Q 371.9 135.7, 371.2 135.5 Q 370.3 135.2, 369.7 135.0 Q 369.2 134.7, 368.8 134.2 Q 368.4 133.6, 368.4 132.7 Q 368.4 131.4, 369.3 130.7 Q 370.2 129.9, 371.9 129.9 Q 373.1 129.9, 374.4 130.4 L 374.1 131.5 Q 372.9 131.0, 371.9 131.0 Q 370.9 131.0, 370.4 131.4 Q 369.9 131.9, 369.9 132.6 Q 369.9 133.1, 370.1 133.4 Q 370.4 133.8, 370.8 133.9 Q 371.2 134.1, 371.9 134.3 Q 372.9 134.6, 373.4 134.9 Q 373.9 135.2, 374.3 135.8 Q 374.7 136.4, 374.7 137.4 Q 374.7 138.8, 373.8 139.5 Q 372.9 140.3, 371.3 140.3 Q 370.4 140.3, 369.7 140.1 Q 369.0 139.9, 368.2 139.5 L 368.6 138.4 " fill="#CCCC00"/>
<path class="atom-41" d="M 391.4 37.0 L 392.7 37.0 L 392.7 41.4 L 397.9 41.4 L 397.9 37.0 L 399.3 37.0 L 399.3 47.2 L 397.9 47.2 L 397.9 42.5 L 392.7 42.5 L 392.7 47.2 L 391.4 47.2 L 391.4 37.0 " fill="#000000"/>
<path class="atom-42" d="M 345.6 50.9 L 346.9 50.9 L 346.9 55.2 L 352.1 55.2 L 352.1 50.9 L 353.5 50.9 L 353.5 61.0 L 352.1 61.0 L 352.1 56.3 L 346.9 56.3 L 346.9 61.0 L 345.6 61.0 L 345.6 50.9 " fill="#000000"/>
<path class="atom-43" d="M 334.6 97.4 L 336.0 97.4 L 336.0 101.7 L 341.2 101.7 L 341.2 97.4 L 342.6 97.4 L 342.6 107.6 L 341.2 107.6 L 341.2 102.9 L 336.0 102.9 L 336.0 107.6 L 334.6 107.6 L 334.6 97.4 " fill="#000000"/>
<path class="atom-44" d="M 404.4 117.7 L 410.4 117.7 L 410.4 118.9 L 405.7 118.9 L 405.7 122.0 L 409.9 122.0 L 409.9 123.1 L 405.7 123.1 L 405.7 127.9 L 404.4 127.9 L 404.4 117.7 " fill="#33CCCC"/>
<path class="atom-45" d="M 426.4 69.6 L 427.8 69.6 L 427.8 73.9 L 433.0 73.9 L 433.0 69.6 L 434.4 69.6 L 434.4 79.8 L 433.0 79.8 L 433.0 75.1 L 427.8 75.1 L 427.8 79.8 L 426.4 79.8 L 426.4 69.6 " fill="#000000"/>
<text x="300" y="20" font-size="20" font-family="sans-serif" font-weight="normal" letter-spacing="0" text-anchor="middle" fill="black">p38 p38a_2g -&gt; p38a_2h </text><text x="150" y="285" font-size="15" font-family="sans-serif" font-weight="normal" letter-spacing="0" text-anchor="middle" fill="black">p38a_2g</text><text x="450" y="285" font-size="15" font-family="sans-serif" font-weight="normal" letter-spacing="0" text-anchor="middle" fill="black">p38a_2h</text></svg>
