<?xml version='1.0' encoding='ASCII' standalone='yes'?>
<svg xmlns="http://www.w3.org/2000/svg" xmlns:rdkit="http://www.rdkit.org/xml" xmlns:xlink="http://www.w3.org/1999/xlink" version="1.1" baseProfile="full" xml:space="preserve" width="600px" height="300px" viewBox="0 0 600 300">
<!-- END OF HEADER -->
<rect style="opacity:1.0;fill:#FFFFFF;stroke:none" width="600" height="300" x="0" y="0"> </rect>
<rect style="opacity:1.0;fill:#FFFFFF;stroke:none" width="600" height="300" x="0" y="0"> </rect>
<rect style="opacity:1.0;fill:#FFFFFF;stroke:none" width="600" height="300" x="0" y="0"> </rect>
<ellipse cx="207.016" cy="102.372" rx="6.6852" ry="6.6852" style="fill:#CFAA27;fill-rule:evenodd;stroke:#CFAA27;stroke-width:1px;stroke-linecap:butt;stroke-linejoin:miter;stroke-opacity:1"/>
<ellipse cx="200.529" cy="121.891" rx="6.6852" ry="6.6852" style="fill:#B8A444;fill-rule:evenodd;stroke:#B8A444;stroke-width:1px;stroke-linecap:butt;stroke-linejoin:miter;stroke-opacity:1"/>
<ellipse cx="213.983" cy="156.929" rx="6.6852" ry="6.6852" style="fill:#A19F62;fill-rule:evenodd;stroke:#A19F62;stroke-width:1px;stroke-linecap:butt;stroke-linejoin:miter;stroke-opacity:1"/>
<ellipse cx="195.05" cy="164.815" rx="6.6852" ry="6.6852" style="fill:#7C947A;fill-rule:evenodd;stroke:#7C947A;stroke-width:1px;stroke-linecap:butt;stroke-linejoin:miter;stroke-opacity:1"/>
<ellipse cx="178.62" cy="152.716" rx="6.6852" ry="6.6852" style="fill:#588A93;fill-rule:evenodd;stroke:#588A93;stroke-width:1px;stroke-linecap:butt;stroke-linejoin:miter;stroke-opacity:1"/>
<ellipse cx="181.685" cy="130.31" rx="6.6852" ry="6.6852" style="fill:#3D79AB;fill-rule:evenodd;stroke:#3D79AB;stroke-width:1px;stroke-linecap:butt;stroke-linejoin:miter;stroke-opacity:1"/>
<ellipse cx="165.942" cy="115.306" rx="6.6852" ry="6.6852" style="fill:#2269C4;fill-rule:evenodd;stroke:#2269C4;stroke-width:1px;stroke-linecap:butt;stroke-linejoin:miter;stroke-opacity:1"/>
<ellipse cx="148.209" cy="120.617" rx="6.6852" ry="6.6852" style="fill:#3053DA;fill-rule:evenodd;stroke:#3053DA;stroke-width:1px;stroke-linecap:butt;stroke-linejoin:miter;stroke-opacity:1"/>
<ellipse cx="132.101" cy="108.506" rx="6.6852" ry="6.6852" style="fill:#3E3EF0;fill-rule:evenodd;stroke:#3E3EF0;stroke-width:1px;stroke-linecap:butt;stroke-linejoin:miter;stroke-opacity:1"/>
<ellipse cx="112.501" cy="117.29" rx="6.6852" ry="6.6852" style="fill:#5446F4;fill-rule:evenodd;stroke:#5446F4;stroke-width:1px;stroke-linecap:butt;stroke-linejoin:miter;stroke-opacity:1"/>
<ellipse cx="96.137" cy="105.002" rx="6.6852" ry="6.6852" style="fill:#6B4EF9;fill-rule:evenodd;stroke:#6B4EF9;stroke-width:1px;stroke-linecap:butt;stroke-linejoin:miter;stroke-opacity:1"/>
<ellipse cx="109.836" cy="136.343" rx="6.6852" ry="6.6852" style="fill:#805CF9;fill-rule:evenodd;stroke:#805CF9;stroke-width:1px;stroke-linecap:butt;stroke-linejoin:miter;stroke-opacity:1"/>
<ellipse cx="126.336" cy="147.823" rx="6.6852" ry="6.6852" style="fill:#CFAA27;fill-rule:evenodd;stroke:#CFAA27;stroke-width:1px;stroke-linecap:butt;stroke-linejoin:miter;stroke-opacity:1"/>
<ellipse cx="124.031" cy="168.156" rx="10.1291" ry="10.1291" style="fill:#F876DD;fill-rule:evenodd;stroke:#F876DD;stroke-width:1px;stroke-linecap:butt;stroke-linejoin:miter;stroke-opacity:1"/>
<ellipse cx="146.265" cy="139.602" rx="6.6852" ry="6.6852" style="fill:#A19F62;fill-rule:evenodd;stroke:#A19F62;stroke-width:1px;stroke-linecap:butt;stroke-linejoin:miter;stroke-opacity:1"/>
<ellipse cx="229.913" cy="170.296" rx="6.6852" ry="6.6852" style="fill:#7C947A;fill-rule:evenodd;stroke:#7C947A;stroke-width:1px;stroke-linecap:butt;stroke-linejoin:miter;stroke-opacity:1"/>
<ellipse cx="242.386" cy="155.58" rx="6.6852" ry="6.6852" style="fill:#588A93;fill-rule:evenodd;stroke:#588A93;stroke-width:1px;stroke-linecap:butt;stroke-linejoin:miter;stroke-opacity:1"/>
<ellipse cx="216.933" cy="185.802" rx="6.6852" ry="6.6852" style="fill:#3D79AB;fill-rule:evenodd;stroke:#3D79AB;stroke-width:1px;stroke-linecap:butt;stroke-linejoin:miter;stroke-opacity:1"/>
<ellipse cx="245.418" cy="183.241" rx="10.1291" ry="10.1291" style="fill:#CF244B;fill-rule:evenodd;stroke:#CF244B;stroke-width:1px;stroke-linecap:butt;stroke-linejoin:miter;stroke-opacity:1"/>
<ellipse cx="187.403" cy="97.9294" rx="6.6852" ry="6.6852" style="fill:#3053DA;fill-rule:evenodd;stroke:#3053DA;stroke-width:1px;stroke-linecap:butt;stroke-linejoin:miter;stroke-opacity:1"/>
<ellipse cx="192.602" cy="185.132" rx="6.6852" ry="6.6852" style="fill:#3E3EF0;fill-rule:evenodd;stroke:#3E3EF0;stroke-width:1px;stroke-linecap:butt;stroke-linejoin:miter;stroke-opacity:1"/>
<ellipse cx="161.553" cy="163.275" rx="6.6852" ry="6.6852" style="fill:#5446F4;fill-rule:evenodd;stroke:#5446F4;stroke-width:1px;stroke-linecap:butt;stroke-linejoin:miter;stroke-opacity:1"/>
<ellipse cx="134.342" cy="88.5796" rx="6.6852" ry="6.6852" style="fill:#6B4EF9;fill-rule:evenodd;stroke:#6B4EF9;stroke-width:1px;stroke-linecap:butt;stroke-linejoin:miter;stroke-opacity:1"/>
<ellipse cx="91.4582" cy="144.364" rx="6.6852" ry="6.6852" style="fill:#805CF9;fill-rule:evenodd;stroke:#805CF9;stroke-width:1px;stroke-linecap:butt;stroke-linejoin:miter;stroke-opacity:1"/>
<ellipse cx="158.696" cy="146.29" rx="6.6852" ry="6.6852" style="fill:#CFAA27;fill-rule:evenodd;stroke:#CFAA27;stroke-width:1px;stroke-linecap:butt;stroke-linejoin:miter;stroke-opacity:1"/>
<path class="bond-0" d="M 247.935,116.571 L 240.954,119.56" style="fill:none;fill-rule:evenodd;stroke:#FF0000;stroke-width:2.0px;stroke-linecap:butt;stroke-linejoin:miter;stroke-opacity:1"/>
<path class="bond-0" d="M 240.954,119.56 L 233.973,122.548" style="fill:none;fill-rule:evenodd;stroke:#000000;stroke-width:2.0px;stroke-linecap:butt;stroke-linejoin:miter;stroke-opacity:1"/>
<path class="bond-1" d="M 256.843,118.031 L 260.835,121.044" style="fill:none;fill-rule:evenodd;stroke:#FF0000;stroke-width:2.0px;stroke-linecap:butt;stroke-linejoin:miter;stroke-opacity:1"/>
<path class="bond-1" d="M 260.835,121.044 L 264.826,124.058" style="fill:none;fill-rule:evenodd;stroke:#000000;stroke-width:2.0px;stroke-linecap:butt;stroke-linejoin:miter;stroke-opacity:1"/>
<path class="bond-2" d="M 233.973,122.548 L 227.627,103.228" style="fill:none;fill-rule:evenodd;stroke:#000000;stroke-width:2.0px;stroke-linecap:butt;stroke-linejoin:miter;stroke-opacity:1"/>
<path class="bond-3" d="M 233.973,122.548 L 216.383,134.588" style="fill:none;fill-rule:evenodd;stroke:#000000;stroke-width:2.0px;stroke-linecap:butt;stroke-linejoin:miter;stroke-opacity:1"/>
<path class="bond-4" d="M 235.282,127.052 L 237.059,126.08" style="fill:none;fill-rule:evenodd;stroke:#000000;stroke-width:1.0px;stroke-linecap:butt;stroke-linejoin:miter;stroke-opacity:1"/>
<path class="bond-4" d="M 236.591,131.556 L 240.146,129.611" style="fill:none;fill-rule:evenodd;stroke:#000000;stroke-width:1.0px;stroke-linecap:butt;stroke-linejoin:miter;stroke-opacity:1"/>
<path class="bond-4" d="M 237.901,136.06 L 243.232,133.143" style="fill:none;fill-rule:evenodd;stroke:#000000;stroke-width:1.0px;stroke-linecap:butt;stroke-linejoin:miter;stroke-opacity:1"/>
<path class="bond-5" d="M 227.627,103.228 L 207.016,102.372" style="fill:none;fill-rule:evenodd;stroke:#000000;stroke-width:2.0px;stroke-linecap:butt;stroke-linejoin:miter;stroke-opacity:1"/>
<path class="bond-6" d="M 227.627,103.228 L 227.024,95.4576" style="fill:none;fill-rule:evenodd;stroke:#000000;stroke-width:2.0px;stroke-linecap:butt;stroke-linejoin:miter;stroke-opacity:1"/>
<path class="bond-6" d="M 227.024,95.4576 L 226.421,87.6871" style="fill:none;fill-rule:evenodd;stroke:#33CCCC;stroke-width:2.0px;stroke-linecap:butt;stroke-linejoin:miter;stroke-opacity:1"/>
<path class="bond-7" d="M 227.627,103.228 L 236.097,101.51" style="fill:none;fill-rule:evenodd;stroke:#000000;stroke-width:2.0px;stroke-linecap:butt;stroke-linejoin:miter;stroke-opacity:1"/>
<path class="bond-7" d="M 236.097,101.51 L 244.567,99.7916" style="fill:none;fill-rule:evenodd;stroke:#33CCCC;stroke-width:2.0px;stroke-linecap:butt;stroke-linejoin:miter;stroke-opacity:1"/>
<path class="bond-8" d="M 207.016,102.372 L 200.529,121.891" style="fill:none;fill-rule:evenodd;stroke:#000000;stroke-width:2.0px;stroke-linecap:butt;stroke-linejoin:miter;stroke-opacity:1"/>
<path class="bond-9" d="M 207.016,102.372 L 191.272,98.8059" style="fill:none;fill-rule:evenodd;stroke:#000000;stroke-width:2.0px;stroke-linecap:butt;stroke-linejoin:miter;stroke-opacity:1"/>
<path class="bond-10" d="M 207.016,102.372 L 209.055,87.2554" style="fill:none;fill-rule:evenodd;stroke:#000000;stroke-width:2.0px;stroke-linecap:butt;stroke-linejoin:miter;stroke-opacity:1"/>
<path class="bond-11" d="M 200.529,121.891 L 216.383,134.588" style="fill:none;fill-rule:evenodd;stroke:#000000;stroke-width:2.0px;stroke-linecap:butt;stroke-linejoin:miter;stroke-opacity:1"/>
<path class="bond-11" d="M 200.628,126.642 L 211.726,135.53" style="fill:none;fill-rule:evenodd;stroke:#000000;stroke-width:2.0px;stroke-linecap:butt;stroke-linejoin:miter;stroke-opacity:1"/>
<path class="bond-12" d="M 200.529,121.891 L 181.685,130.31" style="fill:none;fill-rule:evenodd;stroke:#000000;stroke-width:2.0px;stroke-linecap:butt;stroke-linejoin:miter;stroke-opacity:1"/>
<path class="bond-13" d="M 216.383,134.588 L 213.983,156.929" style="fill:none;fill-rule:evenodd;stroke:#000000;stroke-width:2.0px;stroke-linecap:butt;stroke-linejoin:miter;stroke-opacity:1"/>
<path class="bond-14" d="M 213.983,156.929 L 195.05,164.815" style="fill:none;fill-rule:evenodd;stroke:#000000;stroke-width:2.0px;stroke-linecap:butt;stroke-linejoin:miter;stroke-opacity:1"/>
<path class="bond-14" d="M 209.74,154.746 L 196.488,160.266" style="fill:none;fill-rule:evenodd;stroke:#000000;stroke-width:2.0px;stroke-linecap:butt;stroke-linejoin:miter;stroke-opacity:1"/>
<path class="bond-15" d="M 213.983,156.929 L 220.309,162.191" style="fill:none;fill-rule:evenodd;stroke:#000000;stroke-width:2.0px;stroke-linecap:butt;stroke-linejoin:miter;stroke-opacity:1"/>
<path class="bond-15" d="M 220.309,162.191 L 226.636,167.454" style="fill:none;fill-rule:evenodd;stroke:#CCCC00;stroke-width:2.0px;stroke-linecap:butt;stroke-linejoin:miter;stroke-opacity:1"/>
<path class="bond-16" d="M 195.05,164.815 L 178.62,152.716" style="fill:none;fill-rule:evenodd;stroke:#000000;stroke-width:2.0px;stroke-linecap:butt;stroke-linejoin:miter;stroke-opacity:1"/>
<path class="bond-17" d="M 195.05,164.815 L 193.182,180.318" style="fill:none;fill-rule:evenodd;stroke:#000000;stroke-width:2.0px;stroke-linecap:butt;stroke-linejoin:miter;stroke-opacity:1"/>
<path class="bond-18" d="M 178.62,152.716 L 181.685,130.31" style="fill:none;fill-rule:evenodd;stroke:#000000;stroke-width:2.0px;stroke-linecap:butt;stroke-linejoin:miter;stroke-opacity:1"/>
<path class="bond-18" d="M 182.693,149.849 L 184.838,134.165" style="fill:none;fill-rule:evenodd;stroke:#000000;stroke-width:2.0px;stroke-linecap:butt;stroke-linejoin:miter;stroke-opacity:1"/>
<path class="bond-19" d="M 178.62,152.716 L 165.421,160.881" style="fill:none;fill-rule:evenodd;stroke:#000000;stroke-width:2.0px;stroke-linecap:butt;stroke-linejoin:miter;stroke-opacity:1"/>
<path class="bond-20" d="M 181.685,130.31 L 176.061,124.926" style="fill:none;fill-rule:evenodd;stroke:#000000;stroke-width:2.0px;stroke-linecap:butt;stroke-linejoin:miter;stroke-opacity:1"/>
<path class="bond-20" d="M 176.061,124.926 L 170.437,119.542" style="fill:none;fill-rule:evenodd;stroke:#FF0000;stroke-width:2.0px;stroke-linecap:butt;stroke-linejoin:miter;stroke-opacity:1"/>
<path class="bond-21" d="M 161.528,116.577 L 154.869,118.597" style="fill:none;fill-rule:evenodd;stroke:#FF0000;stroke-width:2.0px;stroke-linecap:butt;stroke-linejoin:miter;stroke-opacity:1"/>
<path class="bond-21" d="M 154.869,118.597 L 148.209,120.617" style="fill:none;fill-rule:evenodd;stroke:#000000;stroke-width:2.0px;stroke-linecap:butt;stroke-linejoin:miter;stroke-opacity:1"/>
<path class="bond-22" d="M 148.209,120.617 L 132.101,108.506" style="fill:none;fill-rule:evenodd;stroke:#000000;stroke-width:2.0px;stroke-linecap:butt;stroke-linejoin:miter;stroke-opacity:1"/>
<path class="bond-22" d="M 143.602,121.715 L 132.326,113.238" style="fill:none;fill-rule:evenodd;stroke:#000000;stroke-width:2.0px;stroke-linecap:butt;stroke-linejoin:miter;stroke-opacity:1"/>
<path class="bond-23" d="M 148.209,120.617 L 146.265,139.602" style="fill:none;fill-rule:evenodd;stroke:#000000;stroke-width:2.0px;stroke-linecap:butt;stroke-linejoin:miter;stroke-opacity:1"/>
<path class="bond-24" d="M 132.101,108.506 L 112.501,117.29" style="fill:none;fill-rule:evenodd;stroke:#000000;stroke-width:2.0px;stroke-linecap:butt;stroke-linejoin:miter;stroke-opacity:1"/>
<path class="bond-25" d="M 132.101,108.506 L 133.802,93.3837" style="fill:none;fill-rule:evenodd;stroke:#000000;stroke-width:2.0px;stroke-linecap:butt;stroke-linejoin:miter;stroke-opacity:1"/>
<path class="bond-26" d="M 112.501,117.29 L 105.854,112.299" style="fill:none;fill-rule:evenodd;stroke:#000000;stroke-width:2.0px;stroke-linecap:butt;stroke-linejoin:miter;stroke-opacity:1"/>
<path class="bond-26" d="M 105.854,112.299 L 99.2072,107.308" style="fill:none;fill-rule:evenodd;stroke:#33CCCC;stroke-width:2.0px;stroke-linecap:butt;stroke-linejoin:miter;stroke-opacity:1"/>
<path class="bond-27" d="M 112.501,117.29 L 109.836,136.343" style="fill:none;fill-rule:evenodd;stroke:#000000;stroke-width:2.0px;stroke-linecap:butt;stroke-linejoin:miter;stroke-opacity:1"/>
<path class="bond-27" d="M 115.712,120.653 L 113.847,133.99" style="fill:none;fill-rule:evenodd;stroke:#000000;stroke-width:2.0px;stroke-linecap:butt;stroke-linejoin:miter;stroke-opacity:1"/>
<path class="bond-28" d="M 109.836,136.343 L 126.336,147.823" style="fill:none;fill-rule:evenodd;stroke:#000000;stroke-width:2.0px;stroke-linecap:butt;stroke-linejoin:miter;stroke-opacity:1"/>
<path class="bond-29" d="M 109.836,136.343 L 95.3265,142.676" style="fill:none;fill-rule:evenodd;stroke:#000000;stroke-width:2.0px;stroke-linecap:butt;stroke-linejoin:miter;stroke-opacity:1"/>
<path class="bond-30" d="M 126.336,147.823 L 124.031,168.156" style="fill:none;fill-rule:evenodd;stroke:#000000;stroke-width:2.0px;stroke-linecap:butt;stroke-linejoin:miter;stroke-opacity:1"/>
<path class="bond-31" d="M 126.336,147.823 L 146.265,139.602" style="fill:none;fill-rule:evenodd;stroke:#000000;stroke-width:2.0px;stroke-linecap:butt;stroke-linejoin:miter;stroke-opacity:1"/>
<path class="bond-31" d="M 127.935,143.218 L 141.885,137.464" style="fill:none;fill-rule:evenodd;stroke:#000000;stroke-width:2.0px;stroke-linecap:butt;stroke-linejoin:miter;stroke-opacity:1"/>
<path class="bond-32" d="M 124.031,168.156 L 123.139,175.811" style="fill:none;fill-rule:evenodd;stroke:#000000;stroke-width:2.0px;stroke-linecap:butt;stroke-linejoin:miter;stroke-opacity:1"/>
<path class="bond-32" d="M 123.139,175.811 L 122.247,183.466" style="fill:none;fill-rule:evenodd;stroke:#0000FF;stroke-width:2.0px;stroke-linecap:butt;stroke-linejoin:miter;stroke-opacity:1"/>
<path class="bond-32" d="M 120.141,170.031 L 119.383,176.537" style="fill:none;fill-rule:evenodd;stroke:#000000;stroke-width:2.0px;stroke-linecap:butt;stroke-linejoin:miter;stroke-opacity:1"/>
<path class="bond-32" d="M 119.383,176.537 L 118.625,183.044" style="fill:none;fill-rule:evenodd;stroke:#0000FF;stroke-width:2.0px;stroke-linecap:butt;stroke-linejoin:miter;stroke-opacity:1"/>
<path class="bond-32" d="M 127.385,170.875 L 126.627,177.381" style="fill:none;fill-rule:evenodd;stroke:#000000;stroke-width:2.0px;stroke-linecap:butt;stroke-linejoin:miter;stroke-opacity:1"/>
<path class="bond-32" d="M 126.627,177.381 L 125.869,183.888" style="fill:none;fill-rule:evenodd;stroke:#0000FF;stroke-width:2.0px;stroke-linecap:butt;stroke-linejoin:miter;stroke-opacity:1"/>
<path class="bond-33" d="M 146.265,139.602 L 154.977,144.289" style="fill:none;fill-rule:evenodd;stroke:#000000;stroke-width:2.0px;stroke-linecap:butt;stroke-linejoin:miter;stroke-opacity:1"/>
<path class="bond-34" d="M 234.543,167.551 L 237.1,164.543" style="fill:none;fill-rule:evenodd;stroke:#CCCC00;stroke-width:2.0px;stroke-linecap:butt;stroke-linejoin:miter;stroke-opacity:1"/>
<path class="bond-34" d="M 237.1,164.543 L 239.658,161.536" style="fill:none;fill-rule:evenodd;stroke:#FF0000;stroke-width:2.0px;stroke-linecap:butt;stroke-linejoin:miter;stroke-opacity:1"/>
<path class="bond-34" d="M 231.765,165.188 L 234.323,162.181" style="fill:none;fill-rule:evenodd;stroke:#CCCC00;stroke-width:2.0px;stroke-linecap:butt;stroke-linejoin:miter;stroke-opacity:1"/>
<path class="bond-34" d="M 234.323,162.181 L 236.88,159.174" style="fill:none;fill-rule:evenodd;stroke:#FF0000;stroke-width:2.0px;stroke-linecap:butt;stroke-linejoin:miter;stroke-opacity:1"/>
<path class="bond-35" d="M 225.248,172.925 L 222.364,176.381" style="fill:none;fill-rule:evenodd;stroke:#CCCC00;stroke-width:2.0px;stroke-linecap:butt;stroke-linejoin:miter;stroke-opacity:1"/>
<path class="bond-35" d="M 222.364,176.381 L 219.481,179.836" style="fill:none;fill-rule:evenodd;stroke:#FF0000;stroke-width:2.0px;stroke-linecap:butt;stroke-linejoin:miter;stroke-opacity:1"/>
<path class="bond-35" d="M 228.048,175.262 L 225.164,178.717" style="fill:none;fill-rule:evenodd;stroke:#CCCC00;stroke-width:2.0px;stroke-linecap:butt;stroke-linejoin:miter;stroke-opacity:1"/>
<path class="bond-35" d="M 225.164,178.717 L 222.281,182.172" style="fill:none;fill-rule:evenodd;stroke:#FF0000;stroke-width:2.0px;stroke-linecap:butt;stroke-linejoin:miter;stroke-opacity:1"/>
<path class="bond-36" d="M 233.179,172.931 L 237.467,176.543" style="fill:none;fill-rule:evenodd;stroke:#CCCC00;stroke-width:2.0px;stroke-linecap:butt;stroke-linejoin:miter;stroke-opacity:1"/>
<path class="bond-36" d="M 237.467,176.543 L 241.754,180.154" style="fill:none;fill-rule:evenodd;stroke:#0000FF;stroke-width:2.0px;stroke-linecap:butt;stroke-linejoin:miter;stroke-opacity:1"/>
<path class="bond-37" d="M 244.56,188.05 L 243.628,193.272" style="fill:none;fill-rule:evenodd;stroke:#0000FF;stroke-width:2.0px;stroke-linecap:butt;stroke-linejoin:miter;stroke-opacity:1"/>
<path class="bond-37" d="M 243.628,193.272 L 242.697,198.494" style="fill:none;fill-rule:evenodd;stroke:#000000;stroke-width:2.0px;stroke-linecap:butt;stroke-linejoin:miter;stroke-opacity:1"/>
<path class="bond-38" d="M 249.188,181.876 L 254.939,179.793" style="fill:none;fill-rule:evenodd;stroke:#0000FF;stroke-width:2.0px;stroke-linecap:butt;stroke-linejoin:miter;stroke-opacity:1"/>
<path class="bond-38" d="M 254.939,179.793 L 260.69,177.711" style="fill:none;fill-rule:evenodd;stroke:#000000;stroke-width:2.0px;stroke-linecap:butt;stroke-linejoin:miter;stroke-opacity:1"/>
<path class="atom-0" d="M 248.436 114.69 Q 248.436 112.624, 249.457 111.469 Q 250.478 110.315, 252.387 110.315 Q 254.295 110.315, 255.316 111.469 Q 256.337 112.624, 256.337 114.69 Q 256.337 116.781, 255.304 117.972 Q 254.271 119.151, 252.387 119.151 Q 250.49 119.151, 249.457 117.972 Q 248.436 116.793, 248.436 114.69 M 252.387 118.179 Q 253.699 118.179, 254.404 117.304 Q 255.121 116.416, 255.121 114.69 Q 255.121 113.001, 254.404 112.15 Q 253.699 111.287, 252.387 111.287 Q 251.074 111.287, 250.357 112.138 Q 249.652 112.989, 249.652 114.69 Q 249.652 116.429, 250.357 117.304 Q 251.074 118.179, 252.387 118.179 " fill="#FF0000"/>
<path class="atom-10" d="M 161.991 115.263 Q 161.991 113.197, 163.012 112.042 Q 164.033 110.887, 165.942 110.887 Q 167.85 110.887, 168.871 112.042 Q 169.892 113.197, 169.892 115.263 Q 169.892 117.354, 168.859 118.545 Q 167.826 119.724, 165.942 119.724 Q 164.045 119.724, 163.012 118.545 Q 161.991 117.366, 161.991 115.263 M 165.942 118.751 Q 167.254 118.751, 167.959 117.876 Q 168.676 116.989, 168.676 115.263 Q 168.676 113.573, 167.959 112.723 Q 167.254 111.86, 165.942 111.86 Q 164.629 111.86, 163.912 112.71 Q 163.207 113.561, 163.207 115.263 Q 163.207 117.001, 163.912 117.876 Q 164.629 118.751, 165.942 118.751 " fill="#FF0000"/>
<path class="atom-14" d="M 93.5784 100.699 L 98.6956 100.699 L 98.6956 101.684 L 94.7331 101.684 L 94.7331 104.297 L 98.258 104.297 L 98.258 105.294 L 94.7331 105.294 L 94.7331 109.305 L 93.5784 109.305 L 93.5784 100.699 " fill="#33CCCC"/>
<path class="atom-19" d="M 227.482 173.134 Q 227.58 173.17, 227.981 173.34 Q 228.382 173.51, 228.819 173.62 Q 229.269 173.717, 229.707 173.717 Q 230.521 173.717, 230.995 173.328 Q 231.469 172.927, 231.469 172.234 Q 231.469 171.76, 231.226 171.468 Q 230.995 171.177, 230.631 171.019 Q 230.266 170.861, 229.658 170.678 Q 228.892 170.447, 228.43 170.229 Q 227.981 170.01, 227.653 169.548 Q 227.337 169.086, 227.337 168.308 Q 227.337 167.226, 228.066 166.558 Q 228.807 165.889, 230.266 165.889 Q 231.263 165.889, 232.393 166.363 L 232.113 167.299 Q 231.08 166.874, 230.302 166.874 Q 229.464 166.874, 229.002 167.226 Q 228.54 167.567, 228.552 168.162 Q 228.552 168.624, 228.783 168.904 Q 229.026 169.183, 229.366 169.341 Q 229.719 169.499, 230.302 169.682 Q 231.08 169.925, 231.542 170.168 Q 232.004 170.411, 232.332 170.909 Q 232.673 171.396, 232.673 172.234 Q 232.673 173.425, 231.87 174.07 Q 231.08 174.702, 229.755 174.702 Q 228.99 174.702, 228.406 174.532 Q 227.835 174.373, 227.154 174.094 L 227.482 173.134 " fill="#CCCC00"/>
<path class="atom-20" d="M 238.436 155.538 Q 238.436 153.471, 239.457 152.317 Q 240.478 151.162, 242.386 151.162 Q 244.295 151.162, 245.316 152.317 Q 246.337 153.471, 246.337 155.538 Q 246.337 157.628, 245.303 158.819 Q 244.27 159.998, 242.386 159.998 Q 240.49 159.998, 239.457 158.819 Q 238.436 157.64, 238.436 155.538 M 242.386 159.026 Q 243.699 159.026, 244.404 158.151 Q 245.121 157.264, 245.121 155.538 Q 245.121 153.848, 244.404 152.997 Q 243.699 152.134, 242.386 152.134 Q 241.074 152.134, 240.356 152.985 Q 239.651 153.836, 239.651 155.538 Q 239.651 157.276, 240.356 158.151 Q 241.074 159.026, 242.386 159.026 " fill="#FF0000"/>
<path class="atom-21" d="M 212.983 185.759 Q 212.983 183.693, 214.004 182.538 Q 215.025 181.383, 216.933 181.383 Q 218.842 181.383, 219.863 182.538 Q 220.884 183.693, 220.884 185.759 Q 220.884 187.85, 219.851 189.041 Q 218.817 190.22, 216.933 190.22 Q 215.037 190.22, 214.004 189.041 Q 212.983 187.862, 212.983 185.759 M 216.933 189.248 Q 218.246 189.248, 218.951 188.372 Q 219.668 187.485, 219.668 185.759 Q 219.668 184.07, 218.951 183.219 Q 218.246 182.356, 216.933 182.356 Q 215.621 182.356, 214.904 183.207 Q 214.199 184.057, 214.199 185.759 Q 214.199 187.497, 214.904 188.372 Q 215.621 189.248, 216.933 189.248 " fill="#FF0000"/>
<path class="atom-22" d="M 243.515 178.938 L 246.335 183.496 Q 246.615 183.946, 247.065 184.76 Q 247.514 185.574, 247.539 185.623 L 247.539 178.938 L 248.681 178.938 L 248.681 187.543 L 247.502 187.543 L 244.476 182.56 Q 244.123 181.976, 243.746 181.308 Q 243.382 180.639, 243.272 180.433 L 243.272 187.543 L 242.154 187.543 L 242.154 178.938 L 243.515 178.938 " fill="#0000FF"/>
<path class="atom-23" d="M 223.489 78.571 L 228.606 78.571 L 228.606 79.5556 L 224.644 79.5556 L 224.644 82.1689 L 228.169 82.1689 L 228.169 83.1656 L 224.644 83.1656 L 224.644 87.1767 L 223.489 87.1767 L 223.489 78.571 " fill="#33CCCC"/>
<path class="atom-24" d="M 245.078 94.8662 L 250.195 94.8662 L 250.195 95.8508 L 246.233 95.8508 L 246.233 98.4641 L 249.758 98.4641 L 249.758 99.4608 L 246.233 99.4608 L 246.233 103.472 L 245.078 103.472 L 245.078 94.8662 " fill="#33CCCC"/>
<path class="atom-25" d="M 119.784 183.972 L 122.604 188.53 Q 122.884 188.98, 123.333 189.795 Q 123.783 190.609, 123.807 190.658 L 123.807 183.972 L 124.95 183.972 L 124.95 192.578 L 123.771 192.578 L 120.744 187.594 Q 120.392 187.011, 120.015 186.343 Q 119.65 185.674, 119.541 185.467 L 119.541 192.578 L 118.423 192.578 L 118.423 183.972 L 119.784 183.972 " fill="#0000FF"/>
<path class="atom-26" d="M 265.193 122.574 L 266.36 122.574 L 266.36 126.233 L 270.76 126.233 L 270.76 122.574 L 271.927 122.574 L 271.927 131.18 L 270.76 131.18 L 270.76 127.205 L 266.36 127.205 L 266.36 131.18 L 265.193 131.18 L 265.193 122.574 " fill="#000000"/>
<path class="atom-27" d="M 239.816 135.081 L 240.983 135.081 L 240.983 138.74 L 245.383 138.74 L 245.383 135.081 L 246.55 135.081 L 246.55 143.687 L 245.383 143.687 L 245.383 139.712 L 240.983 139.712 L 240.983 143.687 L 239.816 143.687 L 239.816 135.081 " fill="#000000"/>
<path class="atom-28" d="M 184.036 93.6265 L 185.203 93.6265 L 185.203 97.2852 L 189.603 97.2852 L 189.603 93.6265 L 190.77 93.6265 L 190.77 102.232 L 189.603 102.232 L 189.603 98.2576 L 185.203 98.2576 L 185.203 102.232 L 184.036 102.232 L 184.036 93.6265 " fill="#000000"/>
<path class="atom-29" d="M 206.337 78.1472 L 207.504 78.1472 L 207.504 81.8058 L 211.904 81.8058 L 211.904 78.1472 L 213.07 78.1472 L 213.07 86.7529 L 211.904 86.7529 L 211.904 82.7782 L 207.504 82.7782 L 207.504 86.7529 L 206.337 86.7529 L 206.337 78.1472 " fill="#000000"/>
<path class="atom-30" d="M 189.235 180.829 L 190.402 180.829 L 190.402 184.488 L 194.802 184.488 L 194.802 180.829 L 195.969 180.829 L 195.969 189.435 L 194.802 189.435 L 194.802 185.461 L 190.402 185.461 L 190.402 189.435 L 189.235 189.435 L 189.235 180.829 " fill="#000000"/>
<path class="atom-31" d="M 158.186 158.972 L 159.353 158.972 L 159.353 162.631 L 163.753 162.631 L 163.753 158.972 L 164.92 158.972 L 164.92 167.578 L 163.753 167.578 L 163.753 163.603 L 159.353 163.603 L 159.353 167.578 L 158.186 167.578 L 158.186 158.972 " fill="#000000"/>
<path class="atom-32" d="M 130.975 84.2768 L 132.142 84.2768 L 132.142 87.9354 L 136.542 87.9354 L 136.542 84.2768 L 137.709 84.2768 L 137.709 92.8824 L 136.542 92.8824 L 136.542 88.9078 L 132.142 88.9078 L 132.142 92.8824 L 130.975 92.8824 L 130.975 84.2768 " fill="#000000"/>
<path class="atom-33" d="M 88.0913 140.061 L 89.2582 140.061 L 89.2582 143.72 L 93.6583 143.72 L 93.6583 140.061 L 94.8251 140.061 L 94.8251 148.667 L 93.6583 148.667 L 93.6583 144.693 L 89.2582 144.693 L 89.2582 148.667 L 88.0913 148.667 L 88.0913 140.061 " fill="#000000"/>
<path class="atom-34" d="M 155.329 141.987 L 156.496 141.987 L 156.496 145.646 L 160.896 145.646 L 160.896 141.987 L 162.063 141.987 L 162.063 150.593 L 160.896 150.593 L 160.896 146.618 L 156.496 146.618 L 156.496 150.593 L 155.329 150.593 L 155.329 141.987 " fill="#000000"/>
<path class="atom-35" d="M 238.494 198.879 L 239.661 198.879 L 239.661 202.537 L 244.061 202.537 L 244.061 198.879 L 245.228 198.879 L 245.228 207.484 L 244.061 207.484 L 244.061 203.51 L 239.661 203.51 L 239.661 207.484 L 238.494 207.484 L 238.494 198.879 " fill="#000000"/>
<path class="atom-36" d="M 261.096 172.042 L 262.263 172.042 L 262.263 175.701 L 266.663 175.701 L 266.663 172.042 L 267.83 172.042 L 267.83 180.648 L 266.663 180.648 L 266.663 176.673 L 262.263 176.673 L 262.263 180.648 L 261.096 180.648 L 261.096 172.042 " fill="#000000"/>
<ellipse cx="443.373" cy="133.576" rx="6.6852" ry="6.6852" style="fill:#B8A444;fill-rule:evenodd;stroke:#B8A444;stroke-width:1px;stroke-linecap:butt;stroke-linejoin:miter;stroke-opacity:1"/>
<ellipse cx="443.925" cy="167.593" rx="6.6852" ry="6.6852" style="fill:#A19F62;fill-rule:evenodd;stroke:#A19F62;stroke-width:1px;stroke-linecap:butt;stroke-linejoin:miter;stroke-opacity:1"/>
<ellipse cx="424.899" cy="167.908" rx="6.6852" ry="6.6852" style="fill:#7C947A;fill-rule:evenodd;stroke:#7C947A;stroke-width:1px;stroke-linecap:butt;stroke-linejoin:miter;stroke-opacity:1"/>
<ellipse cx="415.138" cy="150.005" rx="6.6852" ry="6.6852" style="fill:#588A93;fill-rule:evenodd;stroke:#588A93;stroke-width:1px;stroke-linecap:butt;stroke-linejoin:miter;stroke-opacity:1"/>
<ellipse cx="424.268" cy="133.068" rx="6.6852" ry="6.6852" style="fill:#3D79AB;fill-rule:evenodd;stroke:#3D79AB;stroke-width:1px;stroke-linecap:butt;stroke-linejoin:miter;stroke-opacity:1"/>
<ellipse cx="413.509" cy="118.233" rx="6.6852" ry="6.6852" style="fill:#2269C4;fill-rule:evenodd;stroke:#2269C4;stroke-width:1px;stroke-linecap:butt;stroke-linejoin:miter;stroke-opacity:1"/>
<ellipse cx="391.481" cy="119.064" rx="6.6852" ry="6.6852" style="fill:#3053DA;fill-rule:evenodd;stroke:#3053DA;stroke-width:1px;stroke-linecap:butt;stroke-linejoin:miter;stroke-opacity:1"/>
<ellipse cx="383.629" cy="99.6867" rx="6.6852" ry="6.6852" style="fill:#3E3EF0;fill-rule:evenodd;stroke:#3E3EF0;stroke-width:1px;stroke-linecap:butt;stroke-linejoin:miter;stroke-opacity:1"/>
<ellipse cx="363.804" cy="97.7026" rx="6.6852" ry="6.6852" style="fill:#5446F4;fill-rule:evenodd;stroke:#5446F4;stroke-width:1px;stroke-linecap:butt;stroke-linejoin:miter;stroke-opacity:1"/>
<ellipse cx="350.934" cy="114.559" rx="6.6852" ry="6.6852" style="fill:#805CF9;fill-rule:evenodd;stroke:#805CF9;stroke-width:1px;stroke-linecap:butt;stroke-linejoin:miter;stroke-opacity:1"/>
<ellipse cx="359.38" cy="133.807" rx="6.6852" ry="6.6852" style="fill:#CFAA27;fill-rule:evenodd;stroke:#CFAA27;stroke-width:1px;stroke-linecap:butt;stroke-linejoin:miter;stroke-opacity:1"/>
<ellipse cx="343.231" cy="150.211" rx="10.1291" ry="10.1291" style="fill:#F876DD;fill-rule:evenodd;stroke:#F876DD;stroke-width:1px;stroke-linecap:butt;stroke-linejoin:miter;stroke-opacity:1"/>
<ellipse cx="378.984" cy="136.5" rx="6.6852" ry="6.6852" style="fill:#A19F62;fill-rule:evenodd;stroke:#A19F62;stroke-width:1px;stroke-linecap:butt;stroke-linejoin:miter;stroke-opacity:1"/>
<ellipse cx="453.982" cy="185.552" rx="6.6852" ry="6.6852" style="fill:#7C947A;fill-rule:evenodd;stroke:#7C947A;stroke-width:1px;stroke-linecap:butt;stroke-linejoin:miter;stroke-opacity:1"/>
<ellipse cx="471.658" cy="175.646" rx="6.6852" ry="6.6852" style="fill:#588A93;fill-rule:evenodd;stroke:#588A93;stroke-width:1px;stroke-linecap:butt;stroke-linejoin:miter;stroke-opacity:1"/>
<ellipse cx="436.271" cy="195.377" rx="6.6852" ry="6.6852" style="fill:#3D79AB;fill-rule:evenodd;stroke:#3D79AB;stroke-width:1px;stroke-linecap:butt;stroke-linejoin:miter;stroke-opacity:1"/>
<ellipse cx="463.78" cy="203.181" rx="10.1291" ry="10.1291" style="fill:#CF244B;fill-rule:evenodd;stroke:#CF244B;stroke-width:1px;stroke-linecap:butt;stroke-linejoin:miter;stroke-opacity:1"/>
<ellipse cx="453.755" cy="115.941" rx="6.6852" ry="6.6852" style="fill:#CFAA27;fill-rule:evenodd;stroke:#CFAA27;stroke-width:1px;stroke-linecap:butt;stroke-linejoin:miter;stroke-opacity:1"/>
<ellipse cx="355.647" cy="78.9347" rx="6.6852" ry="6.6852" style="fill:#6B4EF9;fill-rule:evenodd;stroke:#6B4EF9;stroke-width:1px;stroke-linecap:butt;stroke-linejoin:miter;stroke-opacity:1"/>
<ellipse cx="414.775" cy="185.217" rx="6.6852" ry="6.6852" style="fill:#3E3EF0;fill-rule:evenodd;stroke:#3E3EF0;stroke-width:1px;stroke-linecap:butt;stroke-linejoin:miter;stroke-opacity:1"/>
<ellipse cx="399.609" cy="148.673" rx="6.6852" ry="6.6852" style="fill:#5446F4;fill-rule:evenodd;stroke:#5446F4;stroke-width:1px;stroke-linecap:butt;stroke-linejoin:miter;stroke-opacity:1"/>
<ellipse cx="395.639" cy="83.6284" rx="6.6852" ry="6.6852" style="fill:#6B4EF9;fill-rule:evenodd;stroke:#6B4EF9;stroke-width:1px;stroke-linecap:butt;stroke-linejoin:miter;stroke-opacity:1"/>
<ellipse cx="331.021" cy="112.193" rx="6.6852" ry="6.6852" style="fill:#805CF9;fill-rule:evenodd;stroke:#805CF9;stroke-width:1px;stroke-linecap:butt;stroke-linejoin:miter;stroke-opacity:1"/>
<ellipse cx="384.784" cy="155.829" rx="6.6852" ry="6.6852" style="fill:#CFAA27;fill-rule:evenodd;stroke:#CFAA27;stroke-width:1px;stroke-linecap:butt;stroke-linejoin:miter;stroke-opacity:1"/>
<ellipse cx="471.211" cy="126.261" rx="6.6852" ry="6.6852" style="fill:#3053DA;fill-rule:evenodd;stroke:#3053DA;stroke-width:1px;stroke-linecap:butt;stroke-linejoin:miter;stroke-opacity:1"/>
<path class="bond-0" d="M 443.373,133.576 L 453.886,150.983" style="fill:none;fill-rule:evenodd;stroke:#000000;stroke-width:2.0px;stroke-linecap:butt;stroke-linejoin:miter;stroke-opacity:1"/>
<path class="bond-0" d="M 441.829,138.072 L 449.188,150.257" style="fill:none;fill-rule:evenodd;stroke:#000000;stroke-width:2.0px;stroke-linecap:butt;stroke-linejoin:miter;stroke-opacity:1"/>
<path class="bond-1" d="M 443.373,133.576 L 424.268,133.068" style="fill:none;fill-rule:evenodd;stroke:#000000;stroke-width:2.0px;stroke-linecap:butt;stroke-linejoin:miter;stroke-opacity:1"/>
<path class="bond-2" d="M 443.373,133.576 L 453.755,115.941" style="fill:none;fill-rule:evenodd;stroke:#000000;stroke-width:2.0px;stroke-linecap:butt;stroke-linejoin:miter;stroke-opacity:1"/>
<path class="bond-3" d="M 453.886,150.983 L 443.925,167.593" style="fill:none;fill-rule:evenodd;stroke:#000000;stroke-width:2.0px;stroke-linecap:butt;stroke-linejoin:miter;stroke-opacity:1"/>
<path class="bond-4" d="M 453.886,150.983 L 470.07,150.969" style="fill:none;fill-rule:evenodd;stroke:#000000;stroke-width:2.0px;stroke-linecap:butt;stroke-linejoin:miter;stroke-opacity:1"/>
<path class="bond-5" d="M 443.925,167.593 L 424.899,167.908" style="fill:none;fill-rule:evenodd;stroke:#000000;stroke-width:2.0px;stroke-linecap:butt;stroke-linejoin:miter;stroke-opacity:1"/>
<path class="bond-5" d="M 441.011,163.994 L 427.693,164.215" style="fill:none;fill-rule:evenodd;stroke:#000000;stroke-width:2.0px;stroke-linecap:butt;stroke-linejoin:miter;stroke-opacity:1"/>
<path class="bond-6" d="M 443.925,167.593 L 447.6,174.113" style="fill:none;fill-rule:evenodd;stroke:#000000;stroke-width:2.0px;stroke-linecap:butt;stroke-linejoin:miter;stroke-opacity:1"/>
<path class="bond-6" d="M 447.6,174.113 L 451.275,180.634" style="fill:none;fill-rule:evenodd;stroke:#CCCC00;stroke-width:2.0px;stroke-linecap:butt;stroke-linejoin:miter;stroke-opacity:1"/>
<path class="bond-7" d="M 424.899,167.908 L 415.138,150.005" style="fill:none;fill-rule:evenodd;stroke:#000000;stroke-width:2.0px;stroke-linecap:butt;stroke-linejoin:miter;stroke-opacity:1"/>
<path class="bond-8" d="M 424.899,167.908 L 417.585,180.413" style="fill:none;fill-rule:evenodd;stroke:#000000;stroke-width:2.0px;stroke-linecap:butt;stroke-linejoin:miter;stroke-opacity:1"/>
<path class="bond-9" d="M 415.138,150.005 L 424.268,133.068" style="fill:none;fill-rule:evenodd;stroke:#000000;stroke-width:2.0px;stroke-linecap:butt;stroke-linejoin:miter;stroke-opacity:1"/>
<path class="bond-9" d="M 419.717,149.195 L 426.108,137.339" style="fill:none;fill-rule:evenodd;stroke:#000000;stroke-width:2.0px;stroke-linecap:butt;stroke-linejoin:miter;stroke-opacity:1"/>
<path class="bond-10" d="M 415.138,150.005 L 403.366,148.995" style="fill:none;fill-rule:evenodd;stroke:#000000;stroke-width:2.0px;stroke-linecap:butt;stroke-linejoin:miter;stroke-opacity:1"/>
<path class="bond-11" d="M 424.268,133.068 L 420.673,128.089" style="fill:none;fill-rule:evenodd;stroke:#000000;stroke-width:2.0px;stroke-linecap:butt;stroke-linejoin:miter;stroke-opacity:1"/>
<path class="bond-11" d="M 420.673,128.089 L 417.079,123.111" style="fill:none;fill-rule:evenodd;stroke:#FF0000;stroke-width:2.0px;stroke-linecap:butt;stroke-linejoin:miter;stroke-opacity:1"/>
<path class="bond-12" d="M 409.007,118.349 L 400.244,118.707" style="fill:none;fill-rule:evenodd;stroke:#FF0000;stroke-width:2.0px;stroke-linecap:butt;stroke-linejoin:miter;stroke-opacity:1"/>
<path class="bond-12" d="M 400.244,118.707 L 391.481,119.064" style="fill:none;fill-rule:evenodd;stroke:#000000;stroke-width:2.0px;stroke-linecap:butt;stroke-linejoin:miter;stroke-opacity:1"/>
<path class="bond-13" d="M 391.481,119.064 L 383.629,99.6867" style="fill:none;fill-rule:evenodd;stroke:#000000;stroke-width:2.0px;stroke-linecap:butt;stroke-linejoin:miter;stroke-opacity:1"/>
<path class="bond-13" d="M 386.924,117.527 L 381.427,103.963" style="fill:none;fill-rule:evenodd;stroke:#000000;stroke-width:2.0px;stroke-linecap:butt;stroke-linejoin:miter;stroke-opacity:1"/>
<path class="bond-14" d="M 391.481,119.064 L 378.984,136.5" style="fill:none;fill-rule:evenodd;stroke:#000000;stroke-width:2.0px;stroke-linecap:butt;stroke-linejoin:miter;stroke-opacity:1"/>
<path class="bond-15" d="M 383.629,99.6867 L 363.804,97.7026" style="fill:none;fill-rule:evenodd;stroke:#000000;stroke-width:2.0px;stroke-linecap:butt;stroke-linejoin:miter;stroke-opacity:1"/>
<path class="bond-16" d="M 383.629,99.6867 L 392.046,88.4326" style="fill:none;fill-rule:evenodd;stroke:#000000;stroke-width:2.0px;stroke-linecap:butt;stroke-linejoin:miter;stroke-opacity:1"/>
<path class="bond-17" d="M 363.804,97.7026 L 350.934,114.559" style="fill:none;fill-rule:evenodd;stroke:#000000;stroke-width:2.0px;stroke-linecap:butt;stroke-linejoin:miter;stroke-opacity:1"/>
<path class="bond-17" d="M 364.772,102.444 L 355.763,114.244" style="fill:none;fill-rule:evenodd;stroke:#000000;stroke-width:2.0px;stroke-linecap:butt;stroke-linejoin:miter;stroke-opacity:1"/>
<path class="bond-18" d="M 363.804,97.7026 L 360.772,90.7259" style="fill:none;fill-rule:evenodd;stroke:#000000;stroke-width:2.0px;stroke-linecap:butt;stroke-linejoin:miter;stroke-opacity:1"/>
<path class="bond-18" d="M 360.772,90.7259 L 357.739,83.7492" style="fill:none;fill-rule:evenodd;stroke:#33CCCC;stroke-width:2.0px;stroke-linecap:butt;stroke-linejoin:miter;stroke-opacity:1"/>
<path class="bond-19" d="M 350.934,114.559 L 359.38,133.807" style="fill:none;fill-rule:evenodd;stroke:#000000;stroke-width:2.0px;stroke-linecap:butt;stroke-linejoin:miter;stroke-opacity:1"/>
<path class="bond-20" d="M 350.934,114.559 L 334.89,112.653" style="fill:none;fill-rule:evenodd;stroke:#000000;stroke-width:2.0px;stroke-linecap:butt;stroke-linejoin:miter;stroke-opacity:1"/>
<path class="bond-21" d="M 359.38,133.807 L 353.762,141.27" style="fill:none;fill-rule:evenodd;stroke:#000000;stroke-width:2.0px;stroke-linecap:butt;stroke-linejoin:miter;stroke-opacity:1"/>
<path class="bond-21" d="M 353.762,141.27 L 348.143,148.734" style="fill:none;fill-rule:evenodd;stroke:#00CC00;stroke-width:2.0px;stroke-linecap:butt;stroke-linejoin:miter;stroke-opacity:1"/>
<path class="bond-22" d="M 359.38,133.807 L 378.984,136.5" style="fill:none;fill-rule:evenodd;stroke:#000000;stroke-width:2.0px;stroke-linecap:butt;stroke-linejoin:miter;stroke-opacity:1"/>
<path class="bond-22" d="M 362.817,130.598 L 376.54,132.484" style="fill:none;fill-rule:evenodd;stroke:#000000;stroke-width:2.0px;stroke-linecap:butt;stroke-linejoin:miter;stroke-opacity:1"/>
<path class="bond-23" d="M 378.984,136.5 L 383.341,151.021" style="fill:none;fill-rule:evenodd;stroke:#000000;stroke-width:2.0px;stroke-linecap:butt;stroke-linejoin:miter;stroke-opacity:1"/>
<path class="bond-24" d="M 458.135,185.208 L 463.159,182.406" style="fill:none;fill-rule:evenodd;stroke:#CCCC00;stroke-width:2.0px;stroke-linecap:butt;stroke-linejoin:miter;stroke-opacity:1"/>
<path class="bond-24" d="M 463.159,182.406 L 468.183,179.605" style="fill:none;fill-rule:evenodd;stroke:#FF0000;stroke-width:2.0px;stroke-linecap:butt;stroke-linejoin:miter;stroke-opacity:1"/>
<path class="bond-24" d="M 456.359,182.023 L 461.383,179.222" style="fill:none;fill-rule:evenodd;stroke:#CCCC00;stroke-width:2.0px;stroke-linecap:butt;stroke-linejoin:miter;stroke-opacity:1"/>
<path class="bond-24" d="M 461.383,179.222 L 466.407,176.42" style="fill:none;fill-rule:evenodd;stroke:#FF0000;stroke-width:2.0px;stroke-linecap:butt;stroke-linejoin:miter;stroke-opacity:1"/>
<path class="bond-25" d="M 449.828,185.665 L 444.788,188.475" style="fill:none;fill-rule:evenodd;stroke:#CCCC00;stroke-width:2.0px;stroke-linecap:butt;stroke-linejoin:miter;stroke-opacity:1"/>
<path class="bond-25" d="M 444.788,188.475 L 439.747,191.285" style="fill:none;fill-rule:evenodd;stroke:#FF0000;stroke-width:2.0px;stroke-linecap:butt;stroke-linejoin:miter;stroke-opacity:1"/>
<path class="bond-25" d="M 451.604,188.85 L 446.563,191.66" style="fill:none;fill-rule:evenodd;stroke:#CCCC00;stroke-width:2.0px;stroke-linecap:butt;stroke-linejoin:miter;stroke-opacity:1"/>
<path class="bond-25" d="M 446.563,191.66 L 441.522,194.47" style="fill:none;fill-rule:evenodd;stroke:#FF0000;stroke-width:2.0px;stroke-linecap:butt;stroke-linejoin:miter;stroke-opacity:1"/>
<path class="bond-26" d="M 456.759,190.465 L 460.269,196.823" style="fill:none;fill-rule:evenodd;stroke:#CCCC00;stroke-width:2.0px;stroke-linecap:butt;stroke-linejoin:miter;stroke-opacity:1"/>
<path class="bond-26" d="M 460.269,196.823 L 463.78,203.181" style="fill:none;fill-rule:evenodd;stroke:#000000;stroke-width:2.0px;stroke-linecap:butt;stroke-linejoin:miter;stroke-opacity:1"/>
<path class="bond-27" d="M 463.78,203.181 L 456.435,207.232" style="fill:none;fill-rule:evenodd;stroke:#000000;stroke-width:2.0px;stroke-linecap:butt;stroke-linejoin:miter;stroke-opacity:1"/>
<path class="bond-27" d="M 456.435,207.232 L 449.089,211.283" style="fill:none;fill-rule:evenodd;stroke:#33CCCC;stroke-width:2.0px;stroke-linecap:butt;stroke-linejoin:miter;stroke-opacity:1"/>
<path class="bond-28" d="M 463.78,203.181 L 463.621,210.909" style="fill:none;fill-rule:evenodd;stroke:#000000;stroke-width:2.0px;stroke-linecap:butt;stroke-linejoin:miter;stroke-opacity:1"/>
<path class="bond-28" d="M 463.621,210.909 L 463.463,218.638" style="fill:none;fill-rule:evenodd;stroke:#33CCCC;stroke-width:2.0px;stroke-linecap:butt;stroke-linejoin:miter;stroke-opacity:1"/>
<path class="bond-29" d="M 463.78,203.181 L 472.367,203.355" style="fill:none;fill-rule:evenodd;stroke:#000000;stroke-width:2.0px;stroke-linecap:butt;stroke-linejoin:miter;stroke-opacity:1"/>
<path class="bond-29" d="M 472.367,203.355 L 480.954,203.53" style="fill:none;fill-rule:evenodd;stroke:#33CCCC;stroke-width:2.0px;stroke-linecap:butt;stroke-linejoin:miter;stroke-opacity:1"/>
<path class="bond-30" d="M 453.755,115.941 L 461.055,111.837" style="fill:none;fill-rule:evenodd;stroke:#000000;stroke-width:2.0px;stroke-linecap:butt;stroke-linejoin:miter;stroke-opacity:1"/>
<path class="bond-30" d="M 461.055,111.837 L 468.355,107.732" style="fill:none;fill-rule:evenodd;stroke:#33CCCC;stroke-width:2.0px;stroke-linecap:butt;stroke-linejoin:miter;stroke-opacity:1"/>
<path class="bond-31" d="M 453.755,115.941 L 450.142,109.528" style="fill:none;fill-rule:evenodd;stroke:#000000;stroke-width:2.0px;stroke-linecap:butt;stroke-linejoin:miter;stroke-opacity:1"/>
<path class="bond-31" d="M 450.142,109.528 L 446.529,103.116" style="fill:none;fill-rule:evenodd;stroke:#33CCCC;stroke-width:2.0px;stroke-linecap:butt;stroke-linejoin:miter;stroke-opacity:1"/>
<path class="bond-32" d="M 453.755,115.941 L 467.337,123.97" style="fill:none;fill-rule:evenodd;stroke:#000000;stroke-width:2.0px;stroke-linecap:butt;stroke-linejoin:miter;stroke-opacity:1"/>
<path class="atom-6" d="M 409.559 118.19 Q 409.559 116.124, 410.58 114.969 Q 411.601 113.815, 413.509 113.815 Q 415.417 113.815, 416.438 114.969 Q 417.459 116.124, 417.459 118.19 Q 417.459 120.281, 416.426 121.472 Q 415.393 122.651, 413.509 122.651 Q 411.613 122.651, 410.58 121.472 Q 409.559 120.293, 409.559 118.19 M 413.509 121.679 Q 414.822 121.679, 415.527 120.804 Q 416.244 119.916, 416.244 118.19 Q 416.244 116.501, 415.527 115.65 Q 414.822 114.787, 413.509 114.787 Q 412.196 114.787, 411.479 115.638 Q 410.774 116.489, 410.774 118.19 Q 410.774 119.928, 411.479 120.804 Q 412.196 121.679, 413.509 121.679 " fill="#FF0000"/>
<path class="atom-12" d="M 338.831 150.454 Q 338.831 148.314, 339.828 147.196 Q 340.837 146.066, 342.745 146.066 Q 344.52 146.066, 345.468 147.318 L 344.666 147.974 Q 343.973 147.062, 342.745 147.062 Q 341.445 147.062, 340.752 147.938 Q 340.071 148.801, 340.071 150.454 Q 340.071 152.155, 340.776 153.031 Q 341.493 153.906, 342.879 153.906 Q 343.827 153.906, 344.933 153.334 L 345.273 154.246 Q 344.824 154.538, 344.143 154.708 Q 343.462 154.878, 342.709 154.878 Q 340.837 154.878, 339.828 153.735 Q 338.831 152.593, 338.831 150.454 " fill="#00CC00"/>
<path class="atom-12" d="M 346.513 145.543 L 347.632 145.543 L 347.632 154.769 L 346.513 154.769 L 346.513 145.543 " fill="#00CC00"/>
<path class="atom-14" d="M 451.551 188.39 Q 451.649 188.427, 452.05 188.597 Q 452.451 188.767, 452.888 188.877 Q 453.338 188.974, 453.776 188.974 Q 454.59 188.974, 455.064 188.585 Q 455.538 188.184, 455.538 187.491 Q 455.538 187.017, 455.295 186.725 Q 455.064 186.433, 454.699 186.275 Q 454.335 186.117, 453.727 185.935 Q 452.961 185.704, 452.499 185.485 Q 452.05 185.267, 451.721 184.805 Q 451.405 184.343, 451.405 183.565 Q 451.405 182.483, 452.135 181.815 Q 452.876 181.146, 454.335 181.146 Q 455.331 181.146, 456.462 181.62 L 456.182 182.556 Q 455.149 182.131, 454.371 182.131 Q 453.533 182.131, 453.071 182.483 Q 452.609 182.823, 452.621 183.419 Q 452.621 183.881, 452.852 184.16 Q 453.095 184.44, 453.435 184.598 Q 453.788 184.756, 454.371 184.938 Q 455.149 185.181, 455.611 185.425 Q 456.073 185.668, 456.401 186.166 Q 456.741 186.652, 456.741 187.491 Q 456.741 188.682, 455.939 189.326 Q 455.149 189.958, 453.824 189.958 Q 453.059 189.958, 452.475 189.788 Q 451.904 189.63, 451.223 189.351 L 451.551 188.39 " fill="#CCCC00"/>
<path class="atom-15" d="M 467.708 175.604 Q 467.708 173.537, 468.729 172.383 Q 469.75 171.228, 471.658 171.228 Q 473.566 171.228, 474.587 172.383 Q 475.608 173.537, 475.608 175.604 Q 475.608 177.694, 474.575 178.885 Q 473.542 180.064, 471.658 180.064 Q 469.762 180.064, 468.729 178.885 Q 467.708 177.706, 467.708 175.604 M 471.658 179.092 Q 472.971 179.092, 473.676 178.217 Q 474.393 177.33, 474.393 175.604 Q 474.393 173.914, 473.676 173.063 Q 472.971 172.2, 471.658 172.2 Q 470.345 172.2, 469.628 173.051 Q 468.923 173.902, 468.923 175.604 Q 468.923 177.342, 469.628 178.217 Q 470.345 179.092, 471.658 179.092 " fill="#FF0000"/>
<path class="atom-16" d="M 432.32 195.335 Q 432.32 193.268, 433.342 192.114 Q 434.363 190.959, 436.271 190.959 Q 438.179 190.959, 439.2 192.114 Q 440.221 193.268, 440.221 195.335 Q 440.221 197.425, 439.188 198.617 Q 438.155 199.796, 436.271 199.796 Q 434.375 199.796, 433.342 198.617 Q 432.32 197.438, 432.32 195.335 M 436.271 198.823 Q 437.584 198.823, 438.289 197.948 Q 439.006 197.061, 439.006 195.335 Q 439.006 193.645, 438.289 192.794 Q 437.584 191.931, 436.271 191.931 Q 434.958 191.931, 434.241 192.782 Q 433.536 193.633, 433.536 195.335 Q 433.536 197.073, 434.241 197.948 Q 434.958 198.823, 436.271 198.823 " fill="#FF0000"/>
<path class="atom-18" d="M 443.465 208.671 L 448.582 208.671 L 448.582 209.655 L 444.62 209.655 L 444.62 212.269 L 448.145 212.269 L 448.145 213.265 L 444.62 213.265 L 444.62 217.277 L 443.465 217.277 L 443.465 208.671 " fill="#33CCCC"/>
<path class="atom-19" d="M 460.806 219.145 L 465.923 219.145 L 465.923 220.129 L 461.96 220.129 L 461.96 222.743 L 465.485 222.743 L 465.485 223.739 L 461.96 223.739 L 461.96 227.75 L 460.806 227.75 L 460.806 219.145 " fill="#33CCCC"/>
<path class="atom-21" d="M 353.088 74.6319 L 358.205 74.6319 L 358.205 75.6165 L 354.243 75.6165 L 354.243 78.2298 L 357.768 78.2298 L 357.768 79.2265 L 354.243 79.2265 L 354.243 83.2376 L 353.088 83.2376 L 353.088 74.6319 " fill="#33CCCC"/>
<path class="atom-22" d="M 481.46 199.289 L 486.577 199.289 L 486.577 200.273 L 482.615 200.273 L 482.615 202.887 L 486.14 202.887 L 486.14 203.883 L 482.615 203.883 L 482.615 207.895 L 481.46 207.895 L 481.46 199.289 " fill="#33CCCC"/>
<path class="atom-23" d="M 468.862 101.706 L 473.979 101.706 L 473.979 102.691 L 470.016 102.691 L 470.016 105.304 L 473.541 105.304 L 473.541 106.301 L 470.016 106.301 L 470.016 110.312 L 468.862 110.312 L 468.862 101.706 " fill="#33CCCC"/>
<path class="atom-24" d="M 441.261 94.0045 L 446.378 94.0045 L 446.378 94.989 L 442.416 94.989 L 442.416 97.6023 L 445.941 97.6023 L 445.941 98.599 L 442.416 98.599 L 442.416 102.61 L 441.261 102.61 L 441.261 94.0045 " fill="#33CCCC"/>
<path class="atom-25" d="M 470.572 146.662 L 471.738 146.662 L 471.738 150.321 L 476.139 150.321 L 476.139 146.662 L 477.305 146.662 L 477.305 155.268 L 476.139 155.268 L 476.139 151.293 L 471.738 151.293 L 471.738 155.268 L 470.572 155.268 L 470.572 146.662 " fill="#000000"/>
<path class="atom-26" d="M 411.408 180.914 L 412.575 180.914 L 412.575 184.573 L 416.975 184.573 L 416.975 180.914 L 418.142 180.914 L 418.142 189.52 L 416.975 189.52 L 416.975 185.545 L 412.575 185.545 L 412.575 189.52 L 411.408 189.52 L 411.408 180.914 " fill="#000000"/>
<path class="atom-27" d="M 396.242 144.37 L 397.409 144.37 L 397.409 148.028 L 401.809 148.028 L 401.809 144.37 L 402.976 144.37 L 402.976 152.975 L 401.809 152.975 L 401.809 149.001 L 397.409 149.001 L 397.409 152.975 L 396.242 152.975 L 396.242 144.37 " fill="#000000"/>
<path class="atom-28" d="M 392.272 79.3256 L 393.439 79.3256 L 393.439 82.9842 L 397.839 82.9842 L 397.839 79.3256 L 399.006 79.3256 L 399.006 87.9313 L 397.839 87.9313 L 397.839 83.9566 L 393.439 83.9566 L 393.439 87.9313 L 392.272 87.9313 L 392.272 79.3256 " fill="#000000"/>
<path class="atom-29" d="M 327.654 107.891 L 328.821 107.891 L 328.821 111.549 L 333.221 111.549 L 333.221 107.891 L 334.388 107.891 L 334.388 116.496 L 333.221 116.496 L 333.221 112.522 L 328.821 112.522 L 328.821 116.496 L 327.654 116.496 L 327.654 107.891 " fill="#000000"/>
<path class="atom-30" d="M 381.417 151.526 L 382.584 151.526 L 382.584 155.184 L 386.984 155.184 L 386.984 151.526 L 388.151 151.526 L 388.151 160.131 L 386.984 160.131 L 386.984 156.157 L 382.584 156.157 L 382.584 160.131 L 381.417 160.131 L 381.417 151.526 " fill="#000000"/>
<path class="atom-31" d="M 467.844 121.958 L 469.01 121.958 L 469.01 125.616 L 473.411 125.616 L 473.411 121.958 L 474.577 121.958 L 474.577 130.563 L 473.411 130.563 L 473.411 126.589 L 469.01 126.589 L 469.01 130.563 L 467.844 130.563 L 467.844 121.958 " fill="#000000"/>
<text x="300" y="20" font-size="20" font-family="sans-serif" font-weight="normal" letter-spacing="0" text-anchor="middle" fill="black">hif2a: 252 -&gt; 124</text><text x="300" y="35" font-size="15" font-family="sans-serif" font-weight="normal" letter-spacing="0" text-anchor="middle" fill="black">complex (repeats 4, 5, 6), DDG_exp = -0.42 (0.0) kcal/mol</text><text x="150" y="285" font-size="15" font-family="sans-serif" font-weight="normal" letter-spacing="0" text-anchor="middle" fill="black">252</text><text x="450" y="285" font-size="15" font-family="sans-serif" font-weight="normal" letter-spacing="0" text-anchor="middle" fill="black">124</text></svg>
