<?xml version='1.0' encoding='ASCII' standalone='yes'?>
<svg xmlns="http://www.w3.org/2000/svg" xmlns:rdkit="http://www.rdkit.org/xml" xmlns:xlink="http://www.w3.org/1999/xlink" version="1.1" baseProfile="full" xml:space="preserve" width="600px" height="300px" viewBox="0 0 600 300">
<!-- END OF HEADER -->
<rect style="opacity:1.0;fill:#FFFFFF;stroke:none" width="600.0" height="300.0" x="0.0" y="0.0"> </rect>
<path class="bond-0 atom-0 atom-1" d="M 96.3,108.5 L 94.4,116.9" style="fill:none;fill-rule:evenodd;stroke:#000000;stroke-width:2.0px;stroke-linecap:butt;stroke-linejoin:miter;stroke-opacity:1"/>
<path class="bond-0 atom-0 atom-1" d="M 94.4,116.9 L 92.5,125.4" style="fill:none;fill-rule:evenodd;stroke:#FF0000;stroke-width:2.0px;stroke-linecap:butt;stroke-linejoin:miter;stroke-opacity:1"/>
<path class="bond-1 atom-0 atom-29" d="M 96.3,108.5 L 78.7,104.5" style="fill:none;fill-rule:evenodd;stroke:#000000;stroke-width:2.0px;stroke-linecap:butt;stroke-linejoin:miter;stroke-opacity:1"/>
<path class="bond-2 atom-0 atom-30" d="M 96.3,108.5 L 113.9,112.4" style="fill:none;fill-rule:evenodd;stroke:#000000;stroke-width:2.0px;stroke-linecap:butt;stroke-linejoin:miter;stroke-opacity:1"/>
<path class="bond-3 atom-0 atom-31" d="M 96.3,108.5 L 100.1,91.5" style="fill:none;fill-rule:evenodd;stroke:#000000;stroke-width:2.0px;stroke-linecap:butt;stroke-linejoin:miter;stroke-opacity:1"/>
<path class="bond-4 atom-1 atom-2" d="M 95.2,132.3 L 101.2,137.9" style="fill:none;fill-rule:evenodd;stroke:#FF0000;stroke-width:2.0px;stroke-linecap:butt;stroke-linejoin:miter;stroke-opacity:1"/>
<path class="bond-4 atom-1 atom-2" d="M 101.2,137.9 L 107.3,143.4" style="fill:none;fill-rule:evenodd;stroke:#000000;stroke-width:2.0px;stroke-linecap:butt;stroke-linejoin:miter;stroke-opacity:1"/>
<path class="bond-5 atom-2 atom-3" d="M 107.3,143.4 L 127.5,137.1" style="fill:none;fill-rule:evenodd;stroke:#000000;stroke-width:2.0px;stroke-linecap:butt;stroke-linejoin:miter;stroke-opacity:1"/>
<path class="bond-5 atom-2 atom-3" d="M 111.6,146.5 L 125.7,142.1" style="fill:none;fill-rule:evenodd;stroke:#000000;stroke-width:2.0px;stroke-linecap:butt;stroke-linejoin:miter;stroke-opacity:1"/>
<path class="bond-6 atom-2 atom-26" d="M 107.3,143.4 L 102.7,164.1" style="fill:none;fill-rule:evenodd;stroke:#000000;stroke-width:2.0px;stroke-linecap:butt;stroke-linejoin:miter;stroke-opacity:1"/>
<path class="bond-7 atom-3 atom-4" d="M 127.5,137.1 L 143.1,151.4" style="fill:none;fill-rule:evenodd;stroke:#000000;stroke-width:2.0px;stroke-linecap:butt;stroke-linejoin:miter;stroke-opacity:1"/>
<path class="bond-8 atom-3 atom-32" d="M 127.5,137.1 L 131.3,120.1" style="fill:none;fill-rule:evenodd;stroke:#000000;stroke-width:2.0px;stroke-linecap:butt;stroke-linejoin:miter;stroke-opacity:1"/>
<path class="bond-9 atom-4 atom-5" d="M 143.1,151.4 L 138.5,172.1" style="fill:none;fill-rule:evenodd;stroke:#000000;stroke-width:2.0px;stroke-linecap:butt;stroke-linejoin:miter;stroke-opacity:1"/>
<path class="bond-9 atom-4 atom-5" d="M 138.3,153.6 L 135.1,168.0" style="fill:none;fill-rule:evenodd;stroke:#000000;stroke-width:2.0px;stroke-linecap:butt;stroke-linejoin:miter;stroke-opacity:1"/>
<path class="bond-10 atom-4 atom-33" d="M 143.1,151.4 L 160.3,146.0" style="fill:none;fill-rule:evenodd;stroke:#000000;stroke-width:2.0px;stroke-linecap:butt;stroke-linejoin:miter;stroke-opacity:1"/>
<path class="bond-11 atom-5 atom-6" d="M 138.5,172.1 L 144.8,177.9" style="fill:none;fill-rule:evenodd;stroke:#000000;stroke-width:2.0px;stroke-linecap:butt;stroke-linejoin:miter;stroke-opacity:1"/>
<path class="bond-11 atom-5 atom-6" d="M 144.8,177.9 L 151.1,183.7" style="fill:none;fill-rule:evenodd;stroke:#0000FF;stroke-width:2.0px;stroke-linecap:butt;stroke-linejoin:miter;stroke-opacity:1"/>
<path class="bond-12 atom-5 atom-25" d="M 138.5,172.1 L 118.3,178.4" style="fill:none;fill-rule:evenodd;stroke:#000000;stroke-width:2.0px;stroke-linecap:butt;stroke-linejoin:miter;stroke-opacity:1"/>
<path class="bond-13 atom-6 atom-7" d="M 157.1,185.4 L 165.7,182.7" style="fill:none;fill-rule:evenodd;stroke:#0000FF;stroke-width:2.0px;stroke-linecap:butt;stroke-linejoin:miter;stroke-opacity:1"/>
<path class="bond-13 atom-6 atom-7" d="M 165.7,182.7 L 174.3,180.0" style="fill:none;fill-rule:evenodd;stroke:#000000;stroke-width:2.0px;stroke-linecap:butt;stroke-linejoin:miter;stroke-opacity:1"/>
<path class="bond-14 atom-6 atom-34" d="M 153.3,190.1 L 151.8,196.7" style="fill:none;fill-rule:evenodd;stroke:#0000FF;stroke-width:2.0px;stroke-linecap:butt;stroke-linejoin:miter;stroke-opacity:1"/>
<path class="bond-14 atom-6 atom-34" d="M 151.8,196.7 L 150.3,203.3" style="fill:none;fill-rule:evenodd;stroke:#000000;stroke-width:2.0px;stroke-linecap:butt;stroke-linejoin:miter;stroke-opacity:1"/>
<path class="bond-15 atom-7 atom-8" d="M 174.3,180.0 L 176.2,171.5" style="fill:none;fill-rule:evenodd;stroke:#000000;stroke-width:2.0px;stroke-linecap:butt;stroke-linejoin:miter;stroke-opacity:1"/>
<path class="bond-15 atom-7 atom-8" d="M 176.2,171.5 L 178.1,163.1" style="fill:none;fill-rule:evenodd;stroke:#0000FF;stroke-width:2.0px;stroke-linecap:butt;stroke-linejoin:miter;stroke-opacity:1"/>
<path class="bond-15 atom-7 atom-8" d="M 179.0,178.4 L 180.3,172.5" style="fill:none;fill-rule:evenodd;stroke:#000000;stroke-width:2.0px;stroke-linecap:butt;stroke-linejoin:miter;stroke-opacity:1"/>
<path class="bond-15 atom-7 atom-8" d="M 180.3,172.5 L 181.6,166.5" style="fill:none;fill-rule:evenodd;stroke:#0000FF;stroke-width:2.0px;stroke-linecap:butt;stroke-linejoin:miter;stroke-opacity:1"/>
<path class="bond-16 atom-7 atom-15" d="M 174.3,180.0 L 189.9,194.3" style="fill:none;fill-rule:evenodd;stroke:#000000;stroke-width:2.0px;stroke-linecap:butt;stroke-linejoin:miter;stroke-opacity:1"/>
<path class="bond-17 atom-8 atom-9" d="M 181.9,158.4 L 190.5,155.7" style="fill:none;fill-rule:evenodd;stroke:#0000FF;stroke-width:2.0px;stroke-linecap:butt;stroke-linejoin:miter;stroke-opacity:1"/>
<path class="bond-17 atom-8 atom-9" d="M 190.5,155.7 L 199.1,153.0" style="fill:none;fill-rule:evenodd;stroke:#000000;stroke-width:2.0px;stroke-linecap:butt;stroke-linejoin:miter;stroke-opacity:1"/>
<path class="bond-18 atom-9 atom-10" d="M 199.1,153.0 L 214.7,167.3" style="fill:none;fill-rule:evenodd;stroke:#000000;stroke-width:2.0px;stroke-linecap:butt;stroke-linejoin:miter;stroke-opacity:1"/>
<path class="bond-18 atom-9 atom-10" d="M 198.6,158.3 L 209.5,168.3" style="fill:none;fill-rule:evenodd;stroke:#000000;stroke-width:2.0px;stroke-linecap:butt;stroke-linejoin:miter;stroke-opacity:1"/>
<path class="bond-19 atom-9 atom-16" d="M 199.1,153.0 L 203.7,132.3" style="fill:none;fill-rule:evenodd;stroke:#000000;stroke-width:2.0px;stroke-linecap:butt;stroke-linejoin:miter;stroke-opacity:1"/>
<path class="bond-20 atom-10 atom-11" d="M 214.7,167.3 L 212.8,175.8" style="fill:none;fill-rule:evenodd;stroke:#000000;stroke-width:2.0px;stroke-linecap:butt;stroke-linejoin:miter;stroke-opacity:1"/>
<path class="bond-20 atom-10 atom-11" d="M 212.8,175.8 L 210.9,184.3" style="fill:none;fill-rule:evenodd;stroke:#0000FF;stroke-width:2.0px;stroke-linecap:butt;stroke-linejoin:miter;stroke-opacity:1"/>
<path class="bond-21 atom-10 atom-35" d="M 214.7,167.3 L 231.8,161.9" style="fill:none;fill-rule:evenodd;stroke:#000000;stroke-width:2.0px;stroke-linecap:butt;stroke-linejoin:miter;stroke-opacity:1"/>
<path class="bond-22 atom-11 atom-12" d="M 212.7,191.7 L 217.6,198.5" style="fill:none;fill-rule:evenodd;stroke:#0000FF;stroke-width:2.0px;stroke-linecap:butt;stroke-linejoin:miter;stroke-opacity:1"/>
<path class="bond-22 atom-11 atom-12" d="M 217.6,198.5 L 222.4,205.2" style="fill:none;fill-rule:evenodd;stroke:#000000;stroke-width:2.0px;stroke-linecap:butt;stroke-linejoin:miter;stroke-opacity:1"/>
<path class="bond-23 atom-11 atom-15" d="M 207.1,188.9 L 198.5,191.6" style="fill:none;fill-rule:evenodd;stroke:#0000FF;stroke-width:2.0px;stroke-linecap:butt;stroke-linejoin:miter;stroke-opacity:1"/>
<path class="bond-23 atom-11 atom-15" d="M 198.5,191.6 L 189.9,194.3" style="fill:none;fill-rule:evenodd;stroke:#000000;stroke-width:2.0px;stroke-linecap:butt;stroke-linejoin:miter;stroke-opacity:1"/>
<path class="bond-24 atom-12 atom-13" d="M 222.4,205.2 L 209.8,222.2" style="fill:none;fill-rule:evenodd;stroke:#000000;stroke-width:2.0px;stroke-linecap:butt;stroke-linejoin:miter;stroke-opacity:1"/>
<path class="bond-24 atom-12 atom-13" d="M 217.1,205.3 L 208.3,217.2" style="fill:none;fill-rule:evenodd;stroke:#000000;stroke-width:2.0px;stroke-linecap:butt;stroke-linejoin:miter;stroke-opacity:1"/>
<path class="bond-25 atom-12 atom-36" d="M 222.4,205.2 L 240.5,205.4" style="fill:none;fill-rule:evenodd;stroke:#000000;stroke-width:2.0px;stroke-linecap:butt;stroke-linejoin:miter;stroke-opacity:1"/>
<path class="bond-26 atom-13 atom-14" d="M 209.8,222.2 L 201.2,219.4" style="fill:none;fill-rule:evenodd;stroke:#000000;stroke-width:2.0px;stroke-linecap:butt;stroke-linejoin:miter;stroke-opacity:1"/>
<path class="bond-26 atom-13 atom-14" d="M 201.2,219.4 L 192.7,216.5" style="fill:none;fill-rule:evenodd;stroke:#0000FF;stroke-width:2.0px;stroke-linecap:butt;stroke-linejoin:miter;stroke-opacity:1"/>
<path class="bond-27 atom-13 atom-37" d="M 209.8,222.2 L 215.0,238.7" style="fill:none;fill-rule:evenodd;stroke:#000000;stroke-width:2.0px;stroke-linecap:butt;stroke-linejoin:miter;stroke-opacity:1"/>
<path class="bond-28 atom-14 atom-15" d="M 189.7,211.8 L 189.8,203.1" style="fill:none;fill-rule:evenodd;stroke:#0000FF;stroke-width:2.0px;stroke-linecap:butt;stroke-linejoin:miter;stroke-opacity:1"/>
<path class="bond-28 atom-14 atom-15" d="M 189.8,203.1 L 189.9,194.3" style="fill:none;fill-rule:evenodd;stroke:#000000;stroke-width:2.0px;stroke-linecap:butt;stroke-linejoin:miter;stroke-opacity:1"/>
<path class="bond-28 atom-14 atom-15" d="M 194.0,209.2 L 194.1,203.1" style="fill:none;fill-rule:evenodd;stroke:#0000FF;stroke-width:2.0px;stroke-linecap:butt;stroke-linejoin:miter;stroke-opacity:1"/>
<path class="bond-28 atom-14 atom-15" d="M 194.1,203.1 L 194.1,197.0" style="fill:none;fill-rule:evenodd;stroke:#000000;stroke-width:2.0px;stroke-linecap:butt;stroke-linejoin:miter;stroke-opacity:1"/>
<path class="bond-29 atom-16 atom-17" d="M 203.7,132.3 L 223.9,126.0" style="fill:none;fill-rule:evenodd;stroke:#000000;stroke-width:2.0px;stroke-linecap:butt;stroke-linejoin:miter;stroke-opacity:1"/>
<path class="bond-29 atom-16 atom-17" d="M 205.4,127.4 L 219.6,122.9" style="fill:none;fill-rule:evenodd;stroke:#000000;stroke-width:2.0px;stroke-linecap:butt;stroke-linejoin:miter;stroke-opacity:1"/>
<path class="bond-30 atom-16 atom-24" d="M 203.7,132.3 L 188.1,118.0" style="fill:none;fill-rule:evenodd;stroke:#000000;stroke-width:2.0px;stroke-linecap:butt;stroke-linejoin:miter;stroke-opacity:1"/>
<path class="bond-31 atom-17 atom-18" d="M 223.9,126.0 L 228.5,105.3" style="fill:none;fill-rule:evenodd;stroke:#000000;stroke-width:2.0px;stroke-linecap:butt;stroke-linejoin:miter;stroke-opacity:1"/>
<path class="bond-32 atom-17 atom-38" d="M 223.9,126.0 L 236.4,137.5" style="fill:none;fill-rule:evenodd;stroke:#000000;stroke-width:2.0px;stroke-linecap:butt;stroke-linejoin:miter;stroke-opacity:1"/>
<path class="bond-33 atom-18 atom-19" d="M 228.5,105.3 L 212.9,91.0" style="fill:none;fill-rule:evenodd;stroke:#000000;stroke-width:2.0px;stroke-linecap:butt;stroke-linejoin:miter;stroke-opacity:1"/>
<path class="bond-33 atom-18 atom-19" d="M 223.3,106.3 L 212.4,96.3" style="fill:none;fill-rule:evenodd;stroke:#000000;stroke-width:2.0px;stroke-linecap:butt;stroke-linejoin:miter;stroke-opacity:1"/>
<path class="bond-34 atom-18 atom-39" d="M 228.5,105.3 L 245.6,99.9" style="fill:none;fill-rule:evenodd;stroke:#000000;stroke-width:2.0px;stroke-linecap:butt;stroke-linejoin:miter;stroke-opacity:1"/>
<path class="bond-35 atom-19 atom-20" d="M 212.9,91.0 L 213.0,82.3" style="fill:none;fill-rule:evenodd;stroke:#000000;stroke-width:2.0px;stroke-linecap:butt;stroke-linejoin:miter;stroke-opacity:1"/>
<path class="bond-35 atom-19 atom-20" d="M 213.0,82.3 L 213.0,73.5" style="fill:none;fill-rule:evenodd;stroke:#0000FF;stroke-width:2.0px;stroke-linecap:butt;stroke-linejoin:miter;stroke-opacity:1"/>
<path class="bond-36 atom-19 atom-23" d="M 212.9,91.0 L 192.7,97.4" style="fill:none;fill-rule:evenodd;stroke:#000000;stroke-width:2.0px;stroke-linecap:butt;stroke-linejoin:miter;stroke-opacity:1"/>
<path class="bond-37 atom-20 atom-21" d="M 210.1,68.9 L 196.0,64.1" style="fill:none;fill-rule:evenodd;stroke:#0000FF;stroke-width:2.0px;stroke-linecap:butt;stroke-linejoin:miter;stroke-opacity:1"/>
<path class="bond-38 atom-20 atom-40" d="M 216.1,67.7 L 221.7,63.7" style="fill:none;fill-rule:evenodd;stroke:#0000FF;stroke-width:2.0px;stroke-linecap:butt;stroke-linejoin:miter;stroke-opacity:1"/>
<path class="bond-38 atom-20 atom-40" d="M 221.7,63.7 L 227.3,59.7" style="fill:none;fill-rule:evenodd;stroke:#000000;stroke-width:2.0px;stroke-linecap:butt;stroke-linejoin:miter;stroke-opacity:1"/>
<path class="bond-39 atom-21 atom-22" d="M 190.3,66.8 L 185.3,73.5" style="fill:none;fill-rule:evenodd;stroke:#0000FF;stroke-width:2.0px;stroke-linecap:butt;stroke-linejoin:miter;stroke-opacity:1"/>
<path class="bond-39 atom-21 atom-22" d="M 185.3,73.5 L 180.4,80.1" style="fill:none;fill-rule:evenodd;stroke:#000000;stroke-width:2.0px;stroke-linecap:butt;stroke-linejoin:miter;stroke-opacity:1"/>
<path class="bond-39 atom-21 atom-22" d="M 192.2,71.3 L 188.7,76.0" style="fill:none;fill-rule:evenodd;stroke:#0000FF;stroke-width:2.0px;stroke-linecap:butt;stroke-linejoin:miter;stroke-opacity:1"/>
<path class="bond-39 atom-21 atom-22" d="M 188.7,76.0 L 185.3,80.7" style="fill:none;fill-rule:evenodd;stroke:#000000;stroke-width:2.0px;stroke-linecap:butt;stroke-linejoin:miter;stroke-opacity:1"/>
<path class="bond-40 atom-22 atom-23" d="M 180.4,80.1 L 192.7,97.4" style="fill:none;fill-rule:evenodd;stroke:#000000;stroke-width:2.0px;stroke-linecap:butt;stroke-linejoin:miter;stroke-opacity:1"/>
<path class="bond-41 atom-22 atom-41" d="M 180.4,80.1 L 162.3,80.0" style="fill:none;fill-rule:evenodd;stroke:#000000;stroke-width:2.0px;stroke-linecap:butt;stroke-linejoin:miter;stroke-opacity:1"/>
<path class="bond-42 atom-23 atom-24" d="M 192.7,97.4 L 188.1,118.0" style="fill:none;fill-rule:evenodd;stroke:#000000;stroke-width:2.0px;stroke-linecap:butt;stroke-linejoin:miter;stroke-opacity:1"/>
<path class="bond-42 atom-23 atom-24" d="M 196.1,101.4 L 192.9,115.9" style="fill:none;fill-rule:evenodd;stroke:#000000;stroke-width:2.0px;stroke-linecap:butt;stroke-linejoin:miter;stroke-opacity:1"/>
<path class="bond-43 atom-24 atom-42" d="M 188.1,118.0 L 170.9,123.4" style="fill:none;fill-rule:evenodd;stroke:#000000;stroke-width:2.0px;stroke-linecap:butt;stroke-linejoin:miter;stroke-opacity:1"/>
<path class="bond-44 atom-25 atom-26" d="M 118.3,178.4 L 102.7,164.1" style="fill:none;fill-rule:evenodd;stroke:#000000;stroke-width:2.0px;stroke-linecap:butt;stroke-linejoin:miter;stroke-opacity:1"/>
<path class="bond-44 atom-25 atom-26" d="M 118.8,173.2 L 107.9,163.1" style="fill:none;fill-rule:evenodd;stroke:#000000;stroke-width:2.0px;stroke-linecap:butt;stroke-linejoin:miter;stroke-opacity:1"/>
<path class="bond-45 atom-25 atom-43" d="M 118.3,178.4 L 114.5,195.4" style="fill:none;fill-rule:evenodd;stroke:#000000;stroke-width:2.0px;stroke-linecap:butt;stroke-linejoin:miter;stroke-opacity:1"/>
<path class="bond-46 atom-26 atom-27" d="M 102.7,164.1 L 94.3,166.7" style="fill:none;fill-rule:evenodd;stroke:#000000;stroke-width:2.0px;stroke-linecap:butt;stroke-linejoin:miter;stroke-opacity:1"/>
<path class="bond-46 atom-26 atom-27" d="M 94.3,166.7 L 86.0,169.4" style="fill:none;fill-rule:evenodd;stroke:#FF0000;stroke-width:2.0px;stroke-linecap:butt;stroke-linejoin:miter;stroke-opacity:1"/>
<path class="bond-47 atom-27 atom-28" d="M 79.1,167.3 L 73.0,161.7" style="fill:none;fill-rule:evenodd;stroke:#FF0000;stroke-width:2.0px;stroke-linecap:butt;stroke-linejoin:miter;stroke-opacity:1"/>
<path class="bond-47 atom-27 atom-28" d="M 73.0,161.7 L 66.9,156.1" style="fill:none;fill-rule:evenodd;stroke:#000000;stroke-width:2.0px;stroke-linecap:butt;stroke-linejoin:miter;stroke-opacity:1"/>
<path class="bond-48 atom-28 atom-44" d="M 66.9,156.1 L 55.7,168.4" style="fill:none;fill-rule:evenodd;stroke:#000000;stroke-width:2.0px;stroke-linecap:butt;stroke-linejoin:miter;stroke-opacity:1"/>
<path class="bond-49 atom-28 atom-45" d="M 66.9,156.1 L 78.2,143.9" style="fill:none;fill-rule:evenodd;stroke:#000000;stroke-width:2.0px;stroke-linecap:butt;stroke-linejoin:miter;stroke-opacity:1"/>
<path class="bond-50 atom-28 atom-46" d="M 66.9,156.1 L 54.4,144.6" style="fill:none;fill-rule:evenodd;stroke:#000000;stroke-width:2.0px;stroke-linecap:butt;stroke-linejoin:miter;stroke-opacity:1"/>
<path class="atom-1" d="M 89.0 129.1 Q 89.0 127.7, 89.7 126.9 Q 90.4 126.1, 91.7 126.1 Q 93.0 126.1, 93.8 126.9 Q 94.5 127.7, 94.5 129.1 Q 94.5 130.6, 93.7 131.4 Q 93.0 132.3, 91.7 132.3 Q 90.4 132.3, 89.7 131.4 Q 89.0 130.6, 89.0 129.1 M 91.7 131.6 Q 92.6 131.6, 93.1 131.0 Q 93.6 130.3, 93.6 129.1 Q 93.6 128.0, 93.1 127.4 Q 92.6 126.8, 91.7 126.8 Q 90.8 126.8, 90.3 127.4 Q 89.8 128.0, 89.8 129.1 Q 89.8 130.4, 90.3 131.0 Q 90.8 131.6, 91.7 131.6 " fill="#FF0000"/>
<path class="atom-6" d="M 152.8 183.4 L 154.7 186.6 Q 154.9 186.9, 155.3 187.4 Q 155.6 188.0, 155.6 188.0 L 155.6 183.4 L 156.4 183.4 L 156.4 189.4 L 155.6 189.4 L 153.5 185.9 Q 153.2 185.5, 152.9 185.0 Q 152.7 184.6, 152.6 184.4 L 152.6 189.4 L 151.8 189.4 L 151.8 183.4 L 152.8 183.4 " fill="#0000FF"/>
<path class="atom-8" d="M 177.6 156.4 L 179.5 159.5 Q 179.7 159.9, 180.0 160.4 Q 180.4 161.0, 180.4 161.0 L 180.4 156.4 L 181.2 156.4 L 181.2 162.4 L 180.4 162.4 L 178.2 158.9 Q 178.0 158.5, 177.7 158.0 Q 177.5 157.6, 177.4 157.4 L 177.4 162.4 L 176.6 162.4 L 176.6 156.4 L 177.6 156.4 " fill="#0000FF"/>
<path class="atom-11" d="M 208.8 185.0 L 210.7 188.2 Q 210.9 188.5, 211.2 189.0 Q 211.6 189.6, 211.6 189.6 L 211.6 185.0 L 212.4 185.0 L 212.4 191.0 L 211.5 191.0 L 209.4 187.5 Q 209.2 187.1, 208.9 186.6 Q 208.7 186.2, 208.6 186.0 L 208.6 191.0 L 207.8 191.0 L 207.8 185.0 L 208.8 185.0 " fill="#0000FF"/>
<path class="atom-14" d="M 188.4 212.5 L 190.3 215.7 Q 190.5 216.0, 190.8 216.6 Q 191.2 217.1, 191.2 217.2 L 191.2 212.5 L 192.0 212.5 L 192.0 218.5 L 191.2 218.5 L 189.0 215.0 Q 188.8 214.6, 188.5 214.2 Q 188.3 213.7, 188.2 213.6 L 188.2 218.5 L 187.4 218.5 L 187.4 212.5 L 188.4 212.5 " fill="#0000FF"/>
<path class="atom-20" d="M 211.8 66.9 L 213.7 70.0 Q 213.9 70.3, 214.2 70.9 Q 214.5 71.5, 214.6 71.5 L 214.6 66.9 L 215.4 66.9 L 215.4 72.8 L 214.5 72.8 L 212.4 69.4 Q 212.2 69.0, 211.9 68.5 Q 211.7 68.0, 211.6 67.9 L 211.6 72.8 L 210.8 72.8 L 210.8 66.9 L 211.8 66.9 " fill="#0000FF"/>
<path class="atom-21" d="M 191.7 60.1 L 193.6 63.3 Q 193.8 63.6, 194.2 64.2 Q 194.5 64.7, 194.5 64.8 L 194.5 60.1 L 195.3 60.1 L 195.3 66.1 L 194.5 66.1 L 192.4 62.6 Q 192.1 62.2, 191.8 61.8 Q 191.6 61.3, 191.5 61.2 L 191.5 66.1 L 190.7 66.1 L 190.7 60.1 L 191.7 60.1 " fill="#0000FF"/>
<path class="atom-27" d="M 79.8 170.5 Q 79.8 169.0, 80.5 168.2 Q 81.2 167.4, 82.5 167.4 Q 83.9 167.4, 84.6 168.2 Q 85.3 169.0, 85.3 170.5 Q 85.3 171.9, 84.6 172.8 Q 83.8 173.6, 82.5 173.6 Q 81.2 173.6, 80.5 172.8 Q 79.8 171.9, 79.8 170.5 M 82.5 172.9 Q 83.4 172.9, 83.9 172.3 Q 84.4 171.7, 84.4 170.5 Q 84.4 169.3, 83.9 168.7 Q 83.4 168.1, 82.5 168.1 Q 81.6 168.1, 81.1 168.7 Q 80.6 169.3, 80.6 170.5 Q 80.6 171.7, 81.1 172.3 Q 81.6 172.9, 82.5 172.9 " fill="#FF0000"/>
<path class="atom-29" d="M 73.3 100.9 L 74.1 100.9 L 74.1 103.4 L 77.2 103.4 L 77.2 100.9 L 78.0 100.9 L 78.0 106.9 L 77.2 106.9 L 77.2 104.1 L 74.1 104.1 L 74.1 106.9 L 73.3 106.9 L 73.3 100.9 " fill="#000000"/>
<path class="atom-30" d="M 114.6 110.1 L 115.4 110.1 L 115.4 112.6 L 118.5 112.6 L 118.5 110.1 L 119.3 110.1 L 119.3 116.1 L 118.5 116.1 L 118.5 113.3 L 115.4 113.3 L 115.4 116.1 L 114.6 116.1 L 114.6 110.1 " fill="#000000"/>
<path class="atom-31" d="M 98.6 84.8 L 99.4 84.8 L 99.4 87.4 L 102.4 87.4 L 102.4 84.8 L 103.3 84.8 L 103.3 90.8 L 102.4 90.8 L 102.4 88.0 L 99.4 88.0 L 99.4 90.8 L 98.6 90.8 L 98.6 84.8 " fill="#000000"/>
<path class="atom-32" d="M 129.8 113.4 L 130.6 113.4 L 130.6 116.0 L 133.6 116.0 L 133.6 113.4 L 134.4 113.4 L 134.4 119.4 L 133.6 119.4 L 133.6 116.7 L 130.6 116.7 L 130.6 119.4 L 129.8 119.4 L 129.8 113.4 " fill="#000000"/>
<path class="atom-33" d="M 161.0 142.1 L 161.8 142.1 L 161.8 144.6 L 164.8 144.6 L 164.8 142.1 L 165.6 142.1 L 165.6 148.0 L 164.8 148.0 L 164.8 145.3 L 161.8 145.3 L 161.8 148.0 L 161.0 148.0 L 161.0 142.1 " fill="#000000"/>
<path class="atom-34" d="M 147.2 204.0 L 148.0 204.0 L 148.0 206.6 L 151.0 206.6 L 151.0 204.0 L 151.9 204.0 L 151.9 210.0 L 151.0 210.0 L 151.0 207.3 L 148.0 207.3 L 148.0 210.0 L 147.2 210.0 L 147.2 204.0 " fill="#000000"/>
<path class="atom-35" d="M 232.5 158.0 L 233.4 158.0 L 233.4 160.5 L 236.4 160.5 L 236.4 158.0 L 237.2 158.0 L 237.2 164.0 L 236.4 164.0 L 236.4 161.2 L 233.4 161.2 L 233.4 164.0 L 232.5 164.0 L 232.5 158.0 " fill="#000000"/>
<path class="atom-36" d="M 241.2 202.4 L 242.0 202.4 L 242.0 205.0 L 245.1 205.0 L 245.1 202.4 L 245.9 202.4 L 245.9 208.4 L 245.1 208.4 L 245.1 205.7 L 242.0 205.7 L 242.0 208.4 L 241.2 208.4 L 241.2 202.4 " fill="#000000"/>
<path class="atom-37" d="M 213.8 239.4 L 214.6 239.4 L 214.6 242.0 L 217.7 242.0 L 217.7 239.4 L 218.5 239.4 L 218.5 245.4 L 217.7 245.4 L 217.7 242.7 L 214.6 242.7 L 214.6 245.4 L 213.8 245.4 L 213.8 239.4 " fill="#000000"/>
<path class="atom-38" d="M 237.1 137.3 L 237.9 137.3 L 237.9 139.9 L 241.0 139.9 L 241.0 137.3 L 241.8 137.3 L 241.8 143.3 L 241.0 143.3 L 241.0 140.5 L 237.9 140.5 L 237.9 143.3 L 237.1 143.3 L 237.1 137.3 " fill="#000000"/>
<path class="atom-39" d="M 246.3 96.0 L 247.1 96.0 L 247.1 98.5 L 250.2 98.5 L 250.2 96.0 L 251.0 96.0 L 251.0 102.0 L 250.2 102.0 L 250.2 99.2 L 247.1 99.2 L 247.1 102.0 L 246.3 102.0 L 246.3 96.0 " fill="#000000"/>
<path class="atom-40" d="M 228.0 54.6 L 228.8 54.6 L 228.8 57.1 L 231.9 57.1 L 231.9 54.6 L 232.7 54.6 L 232.7 60.6 L 231.9 60.6 L 231.9 57.8 L 228.8 57.8 L 228.8 60.6 L 228.0 60.6 L 228.0 54.6 " fill="#000000"/>
<path class="atom-41" d="M 156.9 76.9 L 157.7 76.9 L 157.7 79.5 L 160.8 79.5 L 160.8 76.9 L 161.6 76.9 L 161.6 82.9 L 160.8 82.9 L 160.8 80.2 L 157.7 80.2 L 157.7 82.9 L 156.9 82.9 L 156.9 76.9 " fill="#000000"/>
<path class="atom-42" d="M 165.6 121.4 L 166.4 121.4 L 166.4 123.9 L 169.4 123.9 L 169.4 121.4 L 170.2 121.4 L 170.2 127.4 L 169.4 127.4 L 169.4 124.6 L 166.4 124.6 L 166.4 127.4 L 165.6 127.4 L 165.6 121.4 " fill="#000000"/>
<path class="atom-43" d="M 111.4 196.1 L 112.2 196.1 L 112.2 198.6 L 115.3 198.6 L 115.3 196.1 L 116.1 196.1 L 116.1 202.1 L 115.3 202.1 L 115.3 199.3 L 112.2 199.3 L 112.2 202.1 L 111.4 202.1 L 111.4 196.1 " fill="#000000"/>
<path class="atom-44" d="M 50.3 168.7 L 51.1 168.7 L 51.1 171.3 L 54.1 171.3 L 54.1 168.7 L 55.0 168.7 L 55.0 174.7 L 54.1 174.7 L 54.1 172.0 L 51.1 172.0 L 51.1 174.7 L 50.3 174.7 L 50.3 168.7 " fill="#000000"/>
<path class="atom-45" d="M 78.9 137.6 L 79.7 137.6 L 79.7 140.1 L 82.8 140.1 L 82.8 137.6 L 83.6 137.6 L 83.6 143.5 L 82.8 143.5 L 82.8 140.8 L 79.7 140.8 L 79.7 143.5 L 78.9 143.5 L 78.9 137.6 " fill="#000000"/>
<path class="atom-46" d="M 49.0 138.8 L 49.8 138.8 L 49.8 141.4 L 52.9 141.4 L 52.9 138.8 L 53.7 138.8 L 53.7 144.8 L 52.9 144.8 L 52.9 142.1 L 49.8 142.1 L 49.8 144.8 L 49.0 144.8 L 49.0 138.8 " fill="#000000"/>
<path class="bond-0 atom-0 atom-1" d="M 399.4,78.5 L 394.9,85.6" style="fill:none;fill-rule:evenodd;stroke:#000000;stroke-width:2.0px;stroke-linecap:butt;stroke-linejoin:miter;stroke-opacity:1"/>
<path class="bond-0 atom-0 atom-1" d="M 394.9,85.6 L 390.4,92.7" style="fill:none;fill-rule:evenodd;stroke:#FF0000;stroke-width:2.0px;stroke-linecap:butt;stroke-linejoin:miter;stroke-opacity:1"/>
<path class="bond-1 atom-0 atom-30" d="M 399.4,78.5 L 384.5,69.1" style="fill:none;fill-rule:evenodd;stroke:#000000;stroke-width:2.0px;stroke-linecap:butt;stroke-linejoin:miter;stroke-opacity:1"/>
<path class="bond-2 atom-0 atom-31" d="M 399.4,78.5 L 414.2,87.8" style="fill:none;fill-rule:evenodd;stroke:#000000;stroke-width:2.0px;stroke-linecap:butt;stroke-linejoin:miter;stroke-opacity:1"/>
<path class="bond-3 atom-0 atom-32" d="M 399.4,78.5 L 408.3,64.2" style="fill:none;fill-rule:evenodd;stroke:#000000;stroke-width:2.0px;stroke-linecap:butt;stroke-linejoin:miter;stroke-opacity:1"/>
<path class="bond-4 atom-1 atom-2" d="M 390.1,100.2 L 394.1,107.7" style="fill:none;fill-rule:evenodd;stroke:#FF0000;stroke-width:2.0px;stroke-linecap:butt;stroke-linejoin:miter;stroke-opacity:1"/>
<path class="bond-4 atom-1 atom-2" d="M 394.1,107.7 L 398.0,115.1" style="fill:none;fill-rule:evenodd;stroke:#000000;stroke-width:2.0px;stroke-linecap:butt;stroke-linejoin:miter;stroke-opacity:1"/>
<path class="bond-5 atom-2 atom-3" d="M 398.0,115.1 L 419.1,115.9" style="fill:none;fill-rule:evenodd;stroke:#000000;stroke-width:2.0px;stroke-linecap:butt;stroke-linejoin:miter;stroke-opacity:1"/>
<path class="bond-5 atom-2 atom-3" d="M 401.0,119.5 L 415.8,120.0" style="fill:none;fill-rule:evenodd;stroke:#000000;stroke-width:2.0px;stroke-linecap:butt;stroke-linejoin:miter;stroke-opacity:1"/>
<path class="bond-6 atom-2 atom-27" d="M 398.0,115.1 L 386.7,133.0" style="fill:none;fill-rule:evenodd;stroke:#000000;stroke-width:2.0px;stroke-linecap:butt;stroke-linejoin:miter;stroke-opacity:1"/>
<path class="bond-7 atom-3 atom-4" d="M 419.1,115.9 L 429.0,134.6" style="fill:none;fill-rule:evenodd;stroke:#000000;stroke-width:2.0px;stroke-linecap:butt;stroke-linejoin:miter;stroke-opacity:1"/>
<path class="bond-8 atom-3 atom-33" d="M 419.1,115.9 L 428.1,101.7" style="fill:none;fill-rule:evenodd;stroke:#000000;stroke-width:2.0px;stroke-linecap:butt;stroke-linejoin:miter;stroke-opacity:1"/>
<path class="bond-9 atom-4 atom-5" d="M 429.0,134.6 L 417.8,152.5" style="fill:none;fill-rule:evenodd;stroke:#000000;stroke-width:2.0px;stroke-linecap:butt;stroke-linejoin:miter;stroke-opacity:1"/>
<path class="bond-9 atom-4 atom-5" d="M 423.8,135.1 L 415.9,147.6" style="fill:none;fill-rule:evenodd;stroke:#000000;stroke-width:2.0px;stroke-linecap:butt;stroke-linejoin:miter;stroke-opacity:1"/>
<path class="bond-10 atom-4 atom-34" d="M 429.0,134.6 L 447.1,135.3" style="fill:none;fill-rule:evenodd;stroke:#000000;stroke-width:2.0px;stroke-linecap:butt;stroke-linejoin:miter;stroke-opacity:1"/>
<path class="bond-11 atom-5 atom-6" d="M 417.8,152.5 L 421.7,160.1" style="fill:none;fill-rule:evenodd;stroke:#000000;stroke-width:2.0px;stroke-linecap:butt;stroke-linejoin:miter;stroke-opacity:1"/>
<path class="bond-11 atom-5 atom-6" d="M 421.7,160.1 L 425.7,167.6" style="fill:none;fill-rule:evenodd;stroke:#0000FF;stroke-width:2.0px;stroke-linecap:butt;stroke-linejoin:miter;stroke-opacity:1"/>
<path class="bond-12 atom-5 atom-26" d="M 417.8,152.5 L 396.6,151.8" style="fill:none;fill-rule:evenodd;stroke:#000000;stroke-width:2.0px;stroke-linecap:butt;stroke-linejoin:miter;stroke-opacity:1"/>
<path class="bond-13 atom-6 atom-7" d="M 430.6,171.4 L 439.7,171.7" style="fill:none;fill-rule:evenodd;stroke:#0000FF;stroke-width:2.0px;stroke-linecap:butt;stroke-linejoin:miter;stroke-opacity:1"/>
<path class="bond-13 atom-6 atom-7" d="M 439.7,171.7 L 448.8,172.1" style="fill:none;fill-rule:evenodd;stroke:#000000;stroke-width:2.0px;stroke-linecap:butt;stroke-linejoin:miter;stroke-opacity:1"/>
<path class="bond-14 atom-6 atom-35" d="M 425.3,175.0 L 422.0,180.2" style="fill:none;fill-rule:evenodd;stroke:#0000FF;stroke-width:2.0px;stroke-linecap:butt;stroke-linejoin:miter;stroke-opacity:1"/>
<path class="bond-14 atom-6 atom-35" d="M 422.0,180.2 L 418.7,185.5" style="fill:none;fill-rule:evenodd;stroke:#000000;stroke-width:2.0px;stroke-linecap:butt;stroke-linejoin:miter;stroke-opacity:1"/>
<path class="bond-15 atom-7 atom-8" d="M 448.8,172.1 L 453.3,164.9" style="fill:none;fill-rule:evenodd;stroke:#000000;stroke-width:2.0px;stroke-linecap:butt;stroke-linejoin:miter;stroke-opacity:1"/>
<path class="bond-15 atom-7 atom-8" d="M 453.3,164.9 L 457.8,157.8" style="fill:none;fill-rule:evenodd;stroke:#0000FF;stroke-width:2.0px;stroke-linecap:butt;stroke-linejoin:miter;stroke-opacity:1"/>
<path class="bond-15 atom-7 atom-8" d="M 453.7,172.2 L 456.9,167.2" style="fill:none;fill-rule:evenodd;stroke:#000000;stroke-width:2.0px;stroke-linecap:butt;stroke-linejoin:miter;stroke-opacity:1"/>
<path class="bond-15 atom-7 atom-8" d="M 456.9,167.2 L 460.0,162.2" style="fill:none;fill-rule:evenodd;stroke:#0000FF;stroke-width:2.0px;stroke-linecap:butt;stroke-linejoin:miter;stroke-opacity:1"/>
<path class="bond-16 atom-7 atom-15" d="M 448.8,172.1 L 458.7,190.8" style="fill:none;fill-rule:evenodd;stroke:#000000;stroke-width:2.0px;stroke-linecap:butt;stroke-linejoin:miter;stroke-opacity:1"/>
<path class="bond-17 atom-8 atom-9" d="M 463.0,154.2 L 472.1,154.6" style="fill:none;fill-rule:evenodd;stroke:#0000FF;stroke-width:2.0px;stroke-linecap:butt;stroke-linejoin:miter;stroke-opacity:1"/>
<path class="bond-17 atom-8 atom-9" d="M 472.1,154.6 L 481.2,154.9" style="fill:none;fill-rule:evenodd;stroke:#000000;stroke-width:2.0px;stroke-linecap:butt;stroke-linejoin:miter;stroke-opacity:1"/>
<path class="bond-18 atom-9 atom-10" d="M 481.2,154.9 L 491.1,173.6" style="fill:none;fill-rule:evenodd;stroke:#000000;stroke-width:2.0px;stroke-linecap:butt;stroke-linejoin:miter;stroke-opacity:1"/>
<path class="bond-18 atom-9 atom-10" d="M 479.0,159.7 L 485.9,172.8" style="fill:none;fill-rule:evenodd;stroke:#000000;stroke-width:2.0px;stroke-linecap:butt;stroke-linejoin:miter;stroke-opacity:1"/>
<path class="bond-19 atom-9 atom-16" d="M 481.2,154.9 L 492.5,137.0" style="fill:none;fill-rule:evenodd;stroke:#000000;stroke-width:2.0px;stroke-linecap:butt;stroke-linejoin:miter;stroke-opacity:1"/>
<path class="bond-20 atom-10 atom-11" d="M 491.1,173.6 L 486.7,180.8" style="fill:none;fill-rule:evenodd;stroke:#000000;stroke-width:2.0px;stroke-linecap:butt;stroke-linejoin:miter;stroke-opacity:1"/>
<path class="bond-20 atom-10 atom-11" d="M 486.7,180.8 L 482.2,187.9" style="fill:none;fill-rule:evenodd;stroke:#0000FF;stroke-width:2.0px;stroke-linecap:butt;stroke-linejoin:miter;stroke-opacity:1"/>
<path class="bond-21 atom-10 atom-36" d="M 491.1,173.6 L 509.2,174.3" style="fill:none;fill-rule:evenodd;stroke:#000000;stroke-width:2.0px;stroke-linecap:butt;stroke-linejoin:miter;stroke-opacity:1"/>
<path class="bond-22 atom-11 atom-12" d="M 480.9,195.3 L 483.3,203.6" style="fill:none;fill-rule:evenodd;stroke:#0000FF;stroke-width:2.0px;stroke-linecap:butt;stroke-linejoin:miter;stroke-opacity:1"/>
<path class="bond-22 atom-11 atom-12" d="M 483.3,203.6 L 485.6,211.9" style="fill:none;fill-rule:evenodd;stroke:#000000;stroke-width:2.0px;stroke-linecap:butt;stroke-linejoin:miter;stroke-opacity:1"/>
<path class="bond-23 atom-11 atom-15" d="M 476.9,191.5 L 467.8,191.1" style="fill:none;fill-rule:evenodd;stroke:#0000FF;stroke-width:2.0px;stroke-linecap:butt;stroke-linejoin:miter;stroke-opacity:1"/>
<path class="bond-23 atom-11 atom-15" d="M 467.8,191.1 L 458.7,190.8" style="fill:none;fill-rule:evenodd;stroke:#000000;stroke-width:2.0px;stroke-linecap:butt;stroke-linejoin:miter;stroke-opacity:1"/>
<path class="bond-24 atom-12 atom-13" d="M 485.6,211.9 L 468.1,223.7" style="fill:none;fill-rule:evenodd;stroke:#000000;stroke-width:2.0px;stroke-linecap:butt;stroke-linejoin:miter;stroke-opacity:1"/>
<path class="bond-24 atom-12 atom-13" d="M 480.6,210.2 L 468.3,218.4" style="fill:none;fill-rule:evenodd;stroke:#000000;stroke-width:2.0px;stroke-linecap:butt;stroke-linejoin:miter;stroke-opacity:1"/>
<path class="bond-25 atom-12 atom-37" d="M 485.6,211.9 L 502.5,218.1" style="fill:none;fill-rule:evenodd;stroke:#000000;stroke-width:2.0px;stroke-linecap:butt;stroke-linejoin:miter;stroke-opacity:1"/>
<path class="bond-26 atom-13 atom-14" d="M 468.1,223.7 L 461.2,218.3" style="fill:none;fill-rule:evenodd;stroke:#000000;stroke-width:2.0px;stroke-linecap:butt;stroke-linejoin:miter;stroke-opacity:1"/>
<path class="bond-26 atom-13 atom-14" d="M 461.2,218.3 L 454.4,213.0" style="fill:none;fill-rule:evenodd;stroke:#0000FF;stroke-width:2.0px;stroke-linecap:butt;stroke-linejoin:miter;stroke-opacity:1"/>
<path class="bond-27 atom-13 atom-38" d="M 468.1,223.7 L 467.4,241.2" style="fill:none;fill-rule:evenodd;stroke:#000000;stroke-width:2.0px;stroke-linecap:butt;stroke-linejoin:miter;stroke-opacity:1"/>
<path class="bond-28 atom-14 atom-15" d="M 452.8,206.9 L 455.7,198.9" style="fill:none;fill-rule:evenodd;stroke:#0000FF;stroke-width:2.0px;stroke-linecap:butt;stroke-linejoin:miter;stroke-opacity:1"/>
<path class="bond-28 atom-14 atom-15" d="M 455.7,198.9 L 458.7,190.8" style="fill:none;fill-rule:evenodd;stroke:#000000;stroke-width:2.0px;stroke-linecap:butt;stroke-linejoin:miter;stroke-opacity:1"/>
<path class="bond-28 atom-14 atom-15" d="M 457.6,206.0 L 459.7,200.3" style="fill:none;fill-rule:evenodd;stroke:#0000FF;stroke-width:2.0px;stroke-linecap:butt;stroke-linejoin:miter;stroke-opacity:1"/>
<path class="bond-28 atom-14 atom-15" d="M 459.7,200.3 L 461.8,194.7" style="fill:none;fill-rule:evenodd;stroke:#000000;stroke-width:2.0px;stroke-linecap:butt;stroke-linejoin:miter;stroke-opacity:1"/>
<path class="bond-29 atom-16 atom-17" d="M 492.5,137.0 L 513.6,137.8" style="fill:none;fill-rule:evenodd;stroke:#000000;stroke-width:2.0px;stroke-linecap:butt;stroke-linejoin:miter;stroke-opacity:1"/>
<path class="bond-29 atom-16 atom-17" d="M 495.8,132.9 L 510.6,133.4" style="fill:none;fill-rule:evenodd;stroke:#000000;stroke-width:2.0px;stroke-linecap:butt;stroke-linejoin:miter;stroke-opacity:1"/>
<path class="bond-30 atom-16 atom-25" d="M 492.5,137.0 L 482.6,118.3" style="fill:none;fill-rule:evenodd;stroke:#000000;stroke-width:2.0px;stroke-linecap:butt;stroke-linejoin:miter;stroke-opacity:1"/>
<path class="bond-31 atom-17 atom-18" d="M 513.6,137.8 L 524.9,119.9" style="fill:none;fill-rule:evenodd;stroke:#000000;stroke-width:2.0px;stroke-linecap:butt;stroke-linejoin:miter;stroke-opacity:1"/>
<path class="bond-32 atom-17 atom-39" d="M 513.6,137.8 L 521.6,152.8" style="fill:none;fill-rule:evenodd;stroke:#000000;stroke-width:2.0px;stroke-linecap:butt;stroke-linejoin:miter;stroke-opacity:1"/>
<path class="bond-33 atom-18 atom-19" d="M 524.9,119.9 L 515.0,101.1" style="fill:none;fill-rule:evenodd;stroke:#000000;stroke-width:2.0px;stroke-linecap:butt;stroke-linejoin:miter;stroke-opacity:1"/>
<path class="bond-33 atom-18 atom-19" d="M 519.7,119.0 L 512.8,105.9" style="fill:none;fill-rule:evenodd;stroke:#000000;stroke-width:2.0px;stroke-linecap:butt;stroke-linejoin:miter;stroke-opacity:1"/>
<path class="bond-34 atom-18 atom-40" d="M 524.9,119.9 L 543.0,120.5" style="fill:none;fill-rule:evenodd;stroke:#000000;stroke-width:2.0px;stroke-linecap:butt;stroke-linejoin:miter;stroke-opacity:1"/>
<path class="bond-35 atom-19 atom-20" d="M 515.0,101.1 L 493.9,100.4" style="fill:none;fill-rule:evenodd;stroke:#000000;stroke-width:2.0px;stroke-linecap:butt;stroke-linejoin:miter;stroke-opacity:1"/>
<path class="bond-36 atom-19 atom-23" d="M 515.0,101.1 L 518.0,93.1" style="fill:none;fill-rule:evenodd;stroke:#000000;stroke-width:2.0px;stroke-linecap:butt;stroke-linejoin:miter;stroke-opacity:1"/>
<path class="bond-36 atom-19 atom-23" d="M 518.0,93.1 L 521.0,85.0" style="fill:none;fill-rule:evenodd;stroke:#0000FF;stroke-width:2.0px;stroke-linecap:butt;stroke-linejoin:miter;stroke-opacity:1"/>
<path class="bond-37 atom-20 atom-21" d="M 493.9,100.4 L 488.1,80.0" style="fill:none;fill-rule:evenodd;stroke:#000000;stroke-width:2.0px;stroke-linecap:butt;stroke-linejoin:miter;stroke-opacity:1"/>
<path class="bond-38 atom-20 atom-25" d="M 493.9,100.4 L 482.6,118.3" style="fill:none;fill-rule:evenodd;stroke:#000000;stroke-width:2.0px;stroke-linecap:butt;stroke-linejoin:miter;stroke-opacity:1"/>
<path class="bond-38 atom-20 atom-25" d="M 495.8,105.3 L 487.9,117.8" style="fill:none;fill-rule:evenodd;stroke:#000000;stroke-width:2.0px;stroke-linecap:butt;stroke-linejoin:miter;stroke-opacity:1"/>
<path class="bond-39 atom-21 atom-22" d="M 488.1,80.0 L 495.4,75.1" style="fill:none;fill-rule:evenodd;stroke:#000000;stroke-width:2.0px;stroke-linecap:butt;stroke-linejoin:miter;stroke-opacity:1"/>
<path class="bond-39 atom-21 atom-22" d="M 495.4,75.1 L 502.7,70.2" style="fill:none;fill-rule:evenodd;stroke:#0000FF;stroke-width:2.0px;stroke-linecap:butt;stroke-linejoin:miter;stroke-opacity:1"/>
<path class="bond-39 atom-21 atom-22" d="M 492.6,82.0 L 497.7,78.6" style="fill:none;fill-rule:evenodd;stroke:#000000;stroke-width:2.0px;stroke-linecap:butt;stroke-linejoin:miter;stroke-opacity:1"/>
<path class="bond-39 atom-21 atom-22" d="M 497.7,78.6 L 502.9,75.2" style="fill:none;fill-rule:evenodd;stroke:#0000FF;stroke-width:2.0px;stroke-linecap:butt;stroke-linejoin:miter;stroke-opacity:1"/>
<path class="bond-40 atom-21 atom-41" d="M 488.1,80.0 L 471.3,73.8" style="fill:none;fill-rule:evenodd;stroke:#000000;stroke-width:2.0px;stroke-linecap:butt;stroke-linejoin:miter;stroke-opacity:1"/>
<path class="bond-41 atom-22 atom-23" d="M 508.6,70.5 L 519.3,78.9" style="fill:none;fill-rule:evenodd;stroke:#0000FF;stroke-width:2.0px;stroke-linecap:butt;stroke-linejoin:miter;stroke-opacity:1"/>
<path class="bond-42 atom-23 atom-24" d="M 525.3,80.4 L 534.0,78.0" style="fill:none;fill-rule:evenodd;stroke:#0000FF;stroke-width:2.0px;stroke-linecap:butt;stroke-linejoin:miter;stroke-opacity:1"/>
<path class="bond-42 atom-23 atom-24" d="M 534.0,78.0 L 542.7,75.5" style="fill:none;fill-rule:evenodd;stroke:#000000;stroke-width:2.0px;stroke-linecap:butt;stroke-linejoin:miter;stroke-opacity:1"/>
<path class="bond-43 atom-24 atom-42" d="M 542.7,75.5 L 537.9,58.8" style="fill:none;fill-rule:evenodd;stroke:#000000;stroke-width:2.0px;stroke-linecap:butt;stroke-linejoin:miter;stroke-opacity:1"/>
<path class="bond-44 atom-24 atom-43" d="M 542.7,75.5 L 547.4,92.2" style="fill:none;fill-rule:evenodd;stroke:#000000;stroke-width:2.0px;stroke-linecap:butt;stroke-linejoin:miter;stroke-opacity:1"/>
<path class="bond-45 atom-24 atom-44" d="M 542.7,75.5 L 560.0,70.6" style="fill:none;fill-rule:evenodd;stroke:#000000;stroke-width:2.0px;stroke-linecap:butt;stroke-linejoin:miter;stroke-opacity:1"/>
<path class="bond-46 atom-25 atom-45" d="M 482.6,118.3 L 464.5,117.6" style="fill:none;fill-rule:evenodd;stroke:#000000;stroke-width:2.0px;stroke-linecap:butt;stroke-linejoin:miter;stroke-opacity:1"/>
<path class="bond-47 atom-26 atom-27" d="M 396.6,151.8 L 386.7,133.0" style="fill:none;fill-rule:evenodd;stroke:#000000;stroke-width:2.0px;stroke-linecap:butt;stroke-linejoin:miter;stroke-opacity:1"/>
<path class="bond-47 atom-26 atom-27" d="M 398.9,147.0 L 391.9,133.9" style="fill:none;fill-rule:evenodd;stroke:#000000;stroke-width:2.0px;stroke-linecap:butt;stroke-linejoin:miter;stroke-opacity:1"/>
<path class="bond-48 atom-26 atom-46" d="M 396.6,151.8 L 387.7,166.0" style="fill:none;fill-rule:evenodd;stroke:#000000;stroke-width:2.0px;stroke-linecap:butt;stroke-linejoin:miter;stroke-opacity:1"/>
<path class="bond-49 atom-27 atom-28" d="M 386.7,133.0 L 377.9,132.7" style="fill:none;fill-rule:evenodd;stroke:#000000;stroke-width:2.0px;stroke-linecap:butt;stroke-linejoin:miter;stroke-opacity:1"/>
<path class="bond-49 atom-27 atom-28" d="M 377.9,132.7 L 369.0,132.4" style="fill:none;fill-rule:evenodd;stroke:#FF0000;stroke-width:2.0px;stroke-linecap:butt;stroke-linejoin:miter;stroke-opacity:1"/>
<path class="bond-50 atom-28 atom-29" d="M 363.6,128.5 L 359.6,121.0" style="fill:none;fill-rule:evenodd;stroke:#FF0000;stroke-width:2.0px;stroke-linecap:butt;stroke-linejoin:miter;stroke-opacity:1"/>
<path class="bond-50 atom-28 atom-29" d="M 359.6,121.0 L 355.7,113.5" style="fill:none;fill-rule:evenodd;stroke:#000000;stroke-width:2.0px;stroke-linecap:butt;stroke-linejoin:miter;stroke-opacity:1"/>
<path class="bond-51 atom-29 atom-47" d="M 355.7,113.5 L 340.0,121.8" style="fill:none;fill-rule:evenodd;stroke:#000000;stroke-width:2.0px;stroke-linecap:butt;stroke-linejoin:miter;stroke-opacity:1"/>
<path class="bond-52 atom-29 atom-48" d="M 355.7,113.5 L 371.3,105.2" style="fill:none;fill-rule:evenodd;stroke:#000000;stroke-width:2.0px;stroke-linecap:butt;stroke-linejoin:miter;stroke-opacity:1"/>
<path class="bond-53 atom-29 atom-49" d="M 355.7,113.5 L 347.7,98.5" style="fill:none;fill-rule:evenodd;stroke:#000000;stroke-width:2.0px;stroke-linecap:butt;stroke-linejoin:miter;stroke-opacity:1"/>
<path class="atom-1" d="M 385.3 96.4 Q 385.3 95.0, 386.1 94.2 Q 386.8 93.4, 388.1 93.4 Q 389.4 93.4, 390.1 94.2 Q 390.8 95.0, 390.8 96.4 Q 390.8 97.9, 390.1 98.7 Q 389.4 99.5, 388.1 99.5 Q 386.8 99.5, 386.1 98.7 Q 385.3 97.9, 385.3 96.4 M 388.1 98.8 Q 389.0 98.8, 389.5 98.2 Q 390.0 97.6, 390.0 96.4 Q 390.0 95.2, 389.5 94.6 Q 389.0 94.0, 388.1 94.0 Q 387.2 94.0, 386.7 94.6 Q 386.2 95.2, 386.2 96.4 Q 386.2 97.6, 386.7 98.2 Q 387.2 98.8, 388.1 98.8 " fill="#FF0000"/>
<path class="atom-6" d="M 426.3 168.3 L 428.3 171.4 Q 428.5 171.8, 428.8 172.3 Q 429.1 172.9, 429.1 172.9 L 429.1 168.3 L 429.9 168.3 L 429.9 174.3 L 429.1 174.3 L 427.0 170.8 Q 426.8 170.4, 426.5 169.9 Q 426.2 169.4, 426.2 169.3 L 426.2 174.3 L 425.4 174.3 L 425.4 168.3 L 426.3 168.3 " fill="#0000FF"/>
<path class="atom-8" d="M 458.8 151.1 L 460.7 154.3 Q 460.9 154.6, 461.2 155.2 Q 461.5 155.8, 461.6 155.8 L 461.6 151.1 L 462.4 151.1 L 462.4 157.1 L 461.5 157.1 L 459.4 153.7 Q 459.2 153.2, 458.9 152.8 Q 458.7 152.3, 458.6 152.2 L 458.6 157.1 L 457.8 157.1 L 457.8 151.1 L 458.8 151.1 " fill="#0000FF"/>
<path class="atom-11" d="M 478.5 188.6 L 480.5 191.7 Q 480.7 192.1, 481.0 192.6 Q 481.3 193.2, 481.3 193.2 L 481.3 188.6 L 482.1 188.6 L 482.1 194.6 L 481.3 194.6 L 479.2 191.1 Q 479.0 190.7, 478.7 190.2 Q 478.4 189.7, 478.4 189.6 L 478.4 194.6 L 477.6 194.6 L 477.6 188.6 L 478.5 188.6 " fill="#0000FF"/>
<path class="atom-14" d="M 450.1 207.6 L 452.1 210.8 Q 452.2 211.1, 452.6 211.7 Q 452.9 212.3, 452.9 212.3 L 452.9 207.6 L 453.7 207.6 L 453.7 213.6 L 452.9 213.6 L 450.8 210.2 Q 450.5 209.8, 450.3 209.3 Q 450.0 208.8, 449.9 208.7 L 449.9 213.6 L 449.1 213.6 L 449.1 207.6 L 450.1 207.6 " fill="#0000FF"/>
<path class="atom-22" d="M 504.3 65.2 L 506.3 68.4 Q 506.5 68.7, 506.8 69.3 Q 507.1 69.8, 507.1 69.9 L 507.1 65.2 L 507.9 65.2 L 507.9 71.2 L 507.1 71.2 L 505.0 67.7 Q 504.8 67.3, 504.5 66.9 Q 504.2 66.4, 504.2 66.2 L 504.2 71.2 L 503.4 71.2 L 503.4 65.2 L 504.3 65.2 " fill="#0000FF"/>
<path class="atom-23" d="M 521.0 78.3 L 523.0 81.5 Q 523.1 81.8, 523.5 82.3 Q 523.8 82.9, 523.8 82.9 L 523.8 78.3 L 524.6 78.3 L 524.6 84.3 L 523.8 84.3 L 521.7 80.8 Q 521.4 80.4, 521.1 79.9 Q 520.9 79.5, 520.8 79.3 L 520.8 84.3 L 520.0 84.3 L 520.0 78.3 L 521.0 78.3 " fill="#0000FF"/>
<path class="atom-28" d="M 362.8 132.3 Q 362.8 130.8, 363.5 130.0 Q 364.2 129.2, 365.6 129.2 Q 366.9 129.2, 367.6 130.0 Q 368.3 130.8, 368.3 132.3 Q 368.3 133.7, 367.6 134.5 Q 366.9 135.4, 365.6 135.4 Q 364.2 135.4, 363.5 134.5 Q 362.8 133.7, 362.8 132.3 M 365.6 134.7 Q 366.5 134.7, 367.0 134.1 Q 367.5 133.5, 367.5 132.3 Q 367.5 131.1, 367.0 130.5 Q 366.5 129.9, 365.6 129.9 Q 364.7 129.9, 364.2 130.5 Q 363.7 131.1, 363.7 132.3 Q 363.7 133.5, 364.2 134.1 Q 364.7 134.7, 365.6 134.7 " fill="#FF0000"/>
<path class="atom-30" d="M 379.1 64.2 L 379.9 64.2 L 379.9 66.8 L 383.0 66.8 L 383.0 64.2 L 383.8 64.2 L 383.8 70.2 L 383.0 70.2 L 383.0 67.4 L 379.9 67.4 L 379.9 70.2 L 379.1 70.2 L 379.1 64.2 " fill="#000000"/>
<path class="atom-31" d="M 414.9 86.7 L 415.7 86.7 L 415.7 89.3 L 418.8 89.3 L 418.8 86.7 L 419.6 86.7 L 419.6 92.7 L 418.8 92.7 L 418.8 90.0 L 415.7 90.0 L 415.7 92.7 L 414.9 92.7 L 414.9 86.7 " fill="#000000"/>
<path class="atom-32" d="M 408.3 57.6 L 409.1 57.6 L 409.1 60.1 L 412.2 60.1 L 412.2 57.6 L 413.0 57.6 L 413.0 63.5 L 412.2 63.5 L 412.2 60.8 L 409.1 60.8 L 409.1 63.5 L 408.3 63.5 L 408.3 57.6 " fill="#000000"/>
<path class="atom-33" d="M 428.1 95.0 L 428.9 95.0 L 428.9 97.5 L 431.9 97.5 L 431.9 95.0 L 432.7 95.0 L 432.7 101.0 L 431.9 101.0 L 431.9 98.2 L 428.9 98.2 L 428.9 101.0 L 428.1 101.0 L 428.1 95.0 " fill="#000000"/>
<path class="atom-34" d="M 447.8 132.4 L 448.7 132.4 L 448.7 135.0 L 451.7 135.0 L 451.7 132.4 L 452.5 132.4 L 452.5 138.4 L 451.7 138.4 L 451.7 135.6 L 448.7 135.6 L 448.7 138.4 L 447.8 138.4 L 447.8 132.4 " fill="#000000"/>
<path class="atom-35" d="M 414.1 186.2 L 414.9 186.2 L 414.9 188.7 L 417.9 188.7 L 417.9 186.2 L 418.7 186.2 L 418.7 192.2 L 417.9 192.2 L 417.9 189.4 L 414.9 189.4 L 414.9 192.2 L 414.1 192.2 L 414.1 186.2 " fill="#000000"/>
<path class="atom-36" d="M 509.9 171.4 L 510.7 171.4 L 510.7 174.0 L 513.8 174.0 L 513.8 171.4 L 514.6 171.4 L 514.6 177.4 L 513.8 177.4 L 513.8 174.7 L 510.7 174.7 L 510.7 177.4 L 509.9 177.4 L 509.9 171.4 " fill="#000000"/>
<path class="atom-37" d="M 503.2 216.2 L 504.0 216.2 L 504.0 218.8 L 507.1 218.8 L 507.1 216.2 L 507.9 216.2 L 507.9 222.2 L 507.1 222.2 L 507.1 219.4 L 504.0 219.4 L 504.0 222.2 L 503.2 222.2 L 503.2 216.2 " fill="#000000"/>
<path class="atom-38" d="M 464.9 241.9 L 465.7 241.9 L 465.7 244.4 L 468.8 244.4 L 468.8 241.9 L 469.6 241.9 L 469.6 247.9 L 468.8 247.9 L 468.8 245.1 L 465.7 245.1 L 465.7 247.9 L 464.9 247.9 L 464.9 241.9 " fill="#000000"/>
<path class="atom-39" d="M 521.2 153.5 L 522.0 153.5 L 522.0 156.1 L 525.1 156.1 L 525.1 153.5 L 525.9 153.5 L 525.9 159.5 L 525.1 159.5 L 525.1 156.7 L 522.0 156.7 L 522.0 159.5 L 521.2 159.5 L 521.2 153.5 " fill="#000000"/>
<path class="atom-40" d="M 543.7 117.7 L 544.5 117.7 L 544.5 120.2 L 547.6 120.2 L 547.6 117.7 L 548.4 117.7 L 548.4 123.7 L 547.6 123.7 L 547.6 120.9 L 544.5 120.9 L 544.5 123.7 L 543.7 123.7 L 543.7 117.7 " fill="#000000"/>
<path class="atom-41" d="M 465.9 69.7 L 466.7 69.7 L 466.7 72.3 L 469.7 72.3 L 469.7 69.7 L 470.6 69.7 L 470.6 75.7 L 469.7 75.7 L 469.7 72.9 L 466.7 72.9 L 466.7 75.7 L 465.9 75.7 L 465.9 69.7 " fill="#000000"/>
<path class="atom-42" d="M 534.5 52.1 L 535.4 52.1 L 535.4 54.7 L 538.4 54.7 L 538.4 52.1 L 539.2 52.1 L 539.2 58.1 L 538.4 58.1 L 538.4 55.4 L 535.4 55.4 L 535.4 58.1 L 534.5 58.1 L 534.5 52.1 " fill="#000000"/>
<path class="atom-43" d="M 546.1 92.9 L 546.9 92.9 L 546.9 95.4 L 550.0 95.4 L 550.0 92.9 L 550.8 92.9 L 550.8 98.9 L 550.0 98.9 L 550.0 96.1 L 546.9 96.1 L 546.9 98.9 L 546.1 98.9 L 546.1 92.9 " fill="#000000"/>
<path class="atom-44" d="M 560.7 66.7 L 561.5 66.7 L 561.5 69.3 L 564.6 69.3 L 564.6 66.7 L 565.4 66.7 L 565.4 72.7 L 564.6 72.7 L 564.6 69.9 L 561.5 69.9 L 561.5 72.7 L 560.7 72.7 L 560.7 66.7 " fill="#000000"/>
<path class="atom-45" d="M 459.1 114.5 L 459.9 114.5 L 459.9 117.0 L 463.0 117.0 L 463.0 114.5 L 463.8 114.5 L 463.8 120.5 L 463.0 120.5 L 463.0 117.7 L 459.9 117.7 L 459.9 120.5 L 459.1 120.5 L 459.1 114.5 " fill="#000000"/>
<path class="atom-46" d="M 383.0 166.7 L 383.8 166.7 L 383.8 169.2 L 386.9 169.2 L 386.9 166.7 L 387.7 166.7 L 387.7 172.7 L 386.9 172.7 L 386.9 169.9 L 383.8 169.9 L 383.8 172.7 L 383.0 172.7 L 383.0 166.7 " fill="#000000"/>
<path class="atom-47" d="M 334.6 120.4 L 335.4 120.4 L 335.4 123.0 L 338.5 123.0 L 338.5 120.4 L 339.3 120.4 L 339.3 126.4 L 338.5 126.4 L 338.5 123.6 L 335.4 123.6 L 335.4 126.4 L 334.6 126.4 L 334.6 120.4 " fill="#000000"/>
<path class="atom-48" d="M 372.0 100.6 L 372.9 100.6 L 372.9 103.2 L 375.9 103.2 L 375.9 100.6 L 376.7 100.6 L 376.7 106.6 L 375.9 106.6 L 375.9 103.9 L 372.9 103.9 L 372.9 106.6 L 372.0 106.6 L 372.0 100.6 " fill="#000000"/>
<path class="atom-49" d="M 343.4 91.8 L 344.3 91.8 L 344.3 94.4 L 347.3 94.4 L 347.3 91.8 L 348.1 91.8 L 348.1 97.8 L 347.3 97.8 L 347.3 95.0 L 344.3 95.0 L 344.3 97.8 L 343.4 97.8 L 343.4 91.8 " fill="#000000"/>
<text x="300" y="20" font-size="20" font-family="sans-serif" font-weight="normal" letter-spacing="0" text-anchor="middle" fill="black">syk: CHEMBL3265021 -&gt; CHEMBL3265023</text><text x="300" y="35" font-size="15" font-family="sans-serif" font-weight="normal" letter-spacing="0" text-anchor="middle" fill="black"></text><text x="150" y="285" font-size="15" font-family="sans-serif" font-weight="normal" letter-spacing="0" text-anchor="middle" fill="black">CHEMBL3265021</text><text x="450" y="285" font-size="15" font-family="sans-serif" font-weight="normal" letter-spacing="0" text-anchor="middle" fill="black">CHEMBL3265023</text></svg>
