<?xml version='1.0' encoding='ASCII' standalone='yes'?>
<svg xmlns="http://www.w3.org/2000/svg" xmlns:rdkit="http://www.rdkit.org/xml" xmlns:xlink="http://www.w3.org/1999/xlink" version="1.1" baseProfile="full" xml:space="preserve" width="600px" height="300px" viewBox="0 0 600 300">
<!-- END OF HEADER -->
<rect style="opacity:1.0;fill:#FFFFFF;stroke:none" width="600.0" height="300.0" x="0.0" y="0.0"> </rect>
<path class="bond-0 atom-0 atom-1" d="M 92.9,146.7 L 93.9,138.0" style="fill:none;fill-rule:evenodd;stroke:#0000FF;stroke-width:2.0px;stroke-linecap:butt;stroke-linejoin:miter;stroke-opacity:1"/>
<path class="bond-0 atom-0 atom-1" d="M 93.9,138.0 L 94.9,129.3" style="fill:none;fill-rule:evenodd;stroke:#000000;stroke-width:2.0px;stroke-linecap:butt;stroke-linejoin:miter;stroke-opacity:1"/>
<path class="bond-1 atom-0 atom-7" d="M 95.5,152.6 L 102.6,157.8" style="fill:none;fill-rule:evenodd;stroke:#0000FF;stroke-width:2.0px;stroke-linecap:butt;stroke-linejoin:miter;stroke-opacity:1"/>
<path class="bond-1 atom-0 atom-7" d="M 102.6,157.8 L 109.6,162.9" style="fill:none;fill-rule:evenodd;stroke:#000000;stroke-width:2.0px;stroke-linecap:butt;stroke-linejoin:miter;stroke-opacity:1"/>
<path class="bond-2 atom-0 atom-25" d="M 89.6,151.7 L 82.9,154.6" style="fill:none;fill-rule:evenodd;stroke:#0000FF;stroke-width:2.0px;stroke-linecap:butt;stroke-linejoin:miter;stroke-opacity:1"/>
<path class="bond-2 atom-0 atom-25" d="M 82.9,154.6 L 76.2,157.6" style="fill:none;fill-rule:evenodd;stroke:#000000;stroke-width:2.0px;stroke-linecap:butt;stroke-linejoin:miter;stroke-opacity:1"/>
<path class="bond-3 atom-1 atom-2" d="M 94.9,129.3 L 77.8,116.8" style="fill:none;fill-rule:evenodd;stroke:#000000;stroke-width:2.0px;stroke-linecap:butt;stroke-linejoin:miter;stroke-opacity:1"/>
<path class="bond-3 atom-1 atom-2" d="M 94.8,124.0 L 82.8,115.2" style="fill:none;fill-rule:evenodd;stroke:#000000;stroke-width:2.0px;stroke-linecap:butt;stroke-linejoin:miter;stroke-opacity:1"/>
<path class="bond-4 atom-1 atom-6" d="M 94.9,129.3 L 114.3,120.8" style="fill:none;fill-rule:evenodd;stroke:#000000;stroke-width:2.0px;stroke-linecap:butt;stroke-linejoin:miter;stroke-opacity:1"/>
<path class="bond-5 atom-2 atom-3" d="M 77.8,116.8 L 80.1,95.7" style="fill:none;fill-rule:evenodd;stroke:#000000;stroke-width:2.0px;stroke-linecap:butt;stroke-linejoin:miter;stroke-opacity:1"/>
<path class="bond-6 atom-2 atom-26" d="M 77.8,116.8 L 61.4,124.0" style="fill:none;fill-rule:evenodd;stroke:#000000;stroke-width:2.0px;stroke-linecap:butt;stroke-linejoin:miter;stroke-opacity:1"/>
<path class="bond-7 atom-3 atom-4" d="M 80.1,95.7 L 99.5,87.2" style="fill:none;fill-rule:evenodd;stroke:#000000;stroke-width:2.0px;stroke-linecap:butt;stroke-linejoin:miter;stroke-opacity:1"/>
<path class="bond-7 atom-3 atom-4" d="M 84.7,98.3 L 98.3,92.4" style="fill:none;fill-rule:evenodd;stroke:#000000;stroke-width:2.0px;stroke-linecap:butt;stroke-linejoin:miter;stroke-opacity:1"/>
<path class="bond-8 atom-3 atom-27" d="M 80.1,95.7 L 66.1,85.4" style="fill:none;fill-rule:evenodd;stroke:#000000;stroke-width:2.0px;stroke-linecap:butt;stroke-linejoin:miter;stroke-opacity:1"/>
<path class="bond-9 atom-4 atom-5" d="M 99.5,87.2 L 116.6,99.7" style="fill:none;fill-rule:evenodd;stroke:#000000;stroke-width:2.0px;stroke-linecap:butt;stroke-linejoin:miter;stroke-opacity:1"/>
<path class="bond-10 atom-4 atom-28" d="M 99.5,87.2 L 101.4,69.8" style="fill:none;fill-rule:evenodd;stroke:#000000;stroke-width:2.0px;stroke-linecap:butt;stroke-linejoin:miter;stroke-opacity:1"/>
<path class="bond-11 atom-5 atom-6" d="M 116.6,99.7 L 114.3,120.8" style="fill:none;fill-rule:evenodd;stroke:#000000;stroke-width:2.0px;stroke-linecap:butt;stroke-linejoin:miter;stroke-opacity:1"/>
<path class="bond-11 atom-5 atom-6" d="M 112.0,102.4 L 110.4,117.2" style="fill:none;fill-rule:evenodd;stroke:#000000;stroke-width:2.0px;stroke-linecap:butt;stroke-linejoin:miter;stroke-opacity:1"/>
<path class="bond-12 atom-5 atom-29" d="M 116.6,99.7 L 132.9,92.6" style="fill:none;fill-rule:evenodd;stroke:#000000;stroke-width:2.0px;stroke-linecap:butt;stroke-linejoin:miter;stroke-opacity:1"/>
<path class="bond-13 atom-6 atom-30" d="M 114.3,120.8 L 128.3,131.1" style="fill:none;fill-rule:evenodd;stroke:#000000;stroke-width:2.0px;stroke-linecap:butt;stroke-linejoin:miter;stroke-opacity:1"/>
<path class="bond-14 atom-7 atom-8" d="M 109.6,162.9 L 117.8,159.3" style="fill:none;fill-rule:evenodd;stroke:#000000;stroke-width:2.0px;stroke-linecap:butt;stroke-linejoin:miter;stroke-opacity:1"/>
<path class="bond-14 atom-7 atom-8" d="M 117.8,159.3 L 126.0,155.7" style="fill:none;fill-rule:evenodd;stroke:#0000FF;stroke-width:2.0px;stroke-linecap:butt;stroke-linejoin:miter;stroke-opacity:1"/>
<path class="bond-14 atom-7 atom-8" d="M 113.8,165.7 L 119.5,163.2" style="fill:none;fill-rule:evenodd;stroke:#000000;stroke-width:2.0px;stroke-linecap:butt;stroke-linejoin:miter;stroke-opacity:1"/>
<path class="bond-14 atom-7 atom-8" d="M 119.5,163.2 L 125.3,160.7" style="fill:none;fill-rule:evenodd;stroke:#0000FF;stroke-width:2.0px;stroke-linecap:butt;stroke-linejoin:miter;stroke-opacity:1"/>
<path class="bond-15 atom-7 atom-15" d="M 109.6,162.9 L 107.3,184.0" style="fill:none;fill-rule:evenodd;stroke:#000000;stroke-width:2.0px;stroke-linecap:butt;stroke-linejoin:miter;stroke-opacity:1"/>
<path class="bond-16 atom-8 atom-9" d="M 132.0,156.6 L 139.0,161.8" style="fill:none;fill-rule:evenodd;stroke:#0000FF;stroke-width:2.0px;stroke-linecap:butt;stroke-linejoin:miter;stroke-opacity:1"/>
<path class="bond-16 atom-8 atom-9" d="M 139.0,161.8 L 146.1,167.0" style="fill:none;fill-rule:evenodd;stroke:#000000;stroke-width:2.0px;stroke-linecap:butt;stroke-linejoin:miter;stroke-opacity:1"/>
<path class="bond-17 atom-9 atom-10" d="M 146.1,167.0 L 143.8,188.0" style="fill:none;fill-rule:evenodd;stroke:#000000;stroke-width:2.0px;stroke-linecap:butt;stroke-linejoin:miter;stroke-opacity:1"/>
<path class="bond-17 atom-9 atom-10" d="M 141.5,169.6 L 139.9,184.4" style="fill:none;fill-rule:evenodd;stroke:#000000;stroke-width:2.0px;stroke-linecap:butt;stroke-linejoin:miter;stroke-opacity:1"/>
<path class="bond-18 atom-9 atom-16" d="M 146.1,167.0 L 165.5,158.4" style="fill:none;fill-rule:evenodd;stroke:#000000;stroke-width:2.0px;stroke-linecap:butt;stroke-linejoin:miter;stroke-opacity:1"/>
<path class="bond-19 atom-10 atom-11" d="M 143.8,188.0 L 135.6,191.6" style="fill:none;fill-rule:evenodd;stroke:#000000;stroke-width:2.0px;stroke-linecap:butt;stroke-linejoin:miter;stroke-opacity:1"/>
<path class="bond-19 atom-10 atom-11" d="M 135.6,191.6 L 127.3,195.2" style="fill:none;fill-rule:evenodd;stroke:#0000FF;stroke-width:2.0px;stroke-linecap:butt;stroke-linejoin:miter;stroke-opacity:1"/>
<path class="bond-20 atom-10 atom-31" d="M 143.8,188.0 L 157.8,198.3" style="fill:none;fill-rule:evenodd;stroke:#000000;stroke-width:2.0px;stroke-linecap:butt;stroke-linejoin:miter;stroke-opacity:1"/>
<path class="bond-21 atom-11 atom-12" d="M 123.1,200.2 L 120.4,208.4" style="fill:none;fill-rule:evenodd;stroke:#0000FF;stroke-width:2.0px;stroke-linecap:butt;stroke-linejoin:miter;stroke-opacity:1"/>
<path class="bond-21 atom-11 atom-12" d="M 120.4,208.4 L 117.7,216.7" style="fill:none;fill-rule:evenodd;stroke:#000000;stroke-width:2.0px;stroke-linecap:butt;stroke-linejoin:miter;stroke-opacity:1"/>
<path class="bond-22 atom-11 atom-15" d="M 121.4,194.4 L 114.3,189.2" style="fill:none;fill-rule:evenodd;stroke:#0000FF;stroke-width:2.0px;stroke-linecap:butt;stroke-linejoin:miter;stroke-opacity:1"/>
<path class="bond-22 atom-11 atom-15" d="M 114.3,189.2 L 107.3,184.0" style="fill:none;fill-rule:evenodd;stroke:#000000;stroke-width:2.0px;stroke-linecap:butt;stroke-linejoin:miter;stroke-opacity:1"/>
<path class="bond-23 atom-12 atom-13" d="M 117.7,216.7 L 96.5,216.5" style="fill:none;fill-rule:evenodd;stroke:#000000;stroke-width:2.0px;stroke-linecap:butt;stroke-linejoin:miter;stroke-opacity:1"/>
<path class="bond-23 atom-12 atom-13" d="M 114.6,212.4 L 99.7,212.3" style="fill:none;fill-rule:evenodd;stroke:#000000;stroke-width:2.0px;stroke-linecap:butt;stroke-linejoin:miter;stroke-opacity:1"/>
<path class="bond-24 atom-12 atom-32" d="M 117.7,216.7 L 127.4,230.2" style="fill:none;fill-rule:evenodd;stroke:#000000;stroke-width:2.0px;stroke-linecap:butt;stroke-linejoin:miter;stroke-opacity:1"/>
<path class="bond-25 atom-13 atom-14" d="M 96.5,216.5 L 93.9,208.3" style="fill:none;fill-rule:evenodd;stroke:#000000;stroke-width:2.0px;stroke-linecap:butt;stroke-linejoin:miter;stroke-opacity:1"/>
<path class="bond-25 atom-13 atom-14" d="M 93.9,208.3 L 91.3,200.1" style="fill:none;fill-rule:evenodd;stroke:#0000FF;stroke-width:2.0px;stroke-linecap:butt;stroke-linejoin:miter;stroke-opacity:1"/>
<path class="bond-26 atom-13 atom-33" d="M 96.5,216.5 L 86.7,229.9" style="fill:none;fill-rule:evenodd;stroke:#000000;stroke-width:2.0px;stroke-linecap:butt;stroke-linejoin:miter;stroke-opacity:1"/>
<path class="bond-27 atom-14 atom-15" d="M 93.1,194.2 L 100.2,189.1" style="fill:none;fill-rule:evenodd;stroke:#0000FF;stroke-width:2.0px;stroke-linecap:butt;stroke-linejoin:miter;stroke-opacity:1"/>
<path class="bond-27 atom-14 atom-15" d="M 100.2,189.1 L 107.3,184.0" style="fill:none;fill-rule:evenodd;stroke:#000000;stroke-width:2.0px;stroke-linecap:butt;stroke-linejoin:miter;stroke-opacity:1"/>
<path class="bond-27 atom-14 atom-15" d="M 97.7,196.1 L 102.6,192.6" style="fill:none;fill-rule:evenodd;stroke:#0000FF;stroke-width:2.0px;stroke-linecap:butt;stroke-linejoin:miter;stroke-opacity:1"/>
<path class="bond-27 atom-14 atom-15" d="M 102.6,192.6 L 107.6,189.0" style="fill:none;fill-rule:evenodd;stroke:#000000;stroke-width:2.0px;stroke-linecap:butt;stroke-linejoin:miter;stroke-opacity:1"/>
<path class="bond-28 atom-16 atom-17" d="M 165.5,158.4 L 182.6,171.0" style="fill:none;fill-rule:evenodd;stroke:#000000;stroke-width:2.0px;stroke-linecap:butt;stroke-linejoin:miter;stroke-opacity:1"/>
<path class="bond-28 atom-16 atom-17" d="M 170.6,156.9 L 182.5,165.7" style="fill:none;fill-rule:evenodd;stroke:#000000;stroke-width:2.0px;stroke-linecap:butt;stroke-linejoin:miter;stroke-opacity:1"/>
<path class="bond-29 atom-16 atom-24" d="M 165.5,158.4 L 167.8,137.4" style="fill:none;fill-rule:evenodd;stroke:#000000;stroke-width:2.0px;stroke-linecap:butt;stroke-linejoin:miter;stroke-opacity:1"/>
<path class="bond-30 atom-17 atom-18" d="M 182.6,171.0 L 202.0,162.5" style="fill:none;fill-rule:evenodd;stroke:#000000;stroke-width:2.0px;stroke-linecap:butt;stroke-linejoin:miter;stroke-opacity:1"/>
<path class="bond-31 atom-17 atom-34" d="M 182.6,171.0 L 180.7,188.3" style="fill:none;fill-rule:evenodd;stroke:#000000;stroke-width:2.0px;stroke-linecap:butt;stroke-linejoin:miter;stroke-opacity:1"/>
<path class="bond-32 atom-18 atom-19" d="M 202.0,162.5 L 204.3,141.4" style="fill:none;fill-rule:evenodd;stroke:#000000;stroke-width:2.0px;stroke-linecap:butt;stroke-linejoin:miter;stroke-opacity:1"/>
<path class="bond-32 atom-18 atom-19" d="M 198.1,158.8 L 199.7,144.1" style="fill:none;fill-rule:evenodd;stroke:#000000;stroke-width:2.0px;stroke-linecap:butt;stroke-linejoin:miter;stroke-opacity:1"/>
<path class="bond-33 atom-18 atom-35" d="M 202.0,162.5 L 216.0,172.8" style="fill:none;fill-rule:evenodd;stroke:#000000;stroke-width:2.0px;stroke-linecap:butt;stroke-linejoin:miter;stroke-opacity:1"/>
<path class="bond-34 atom-19 atom-20" d="M 204.3,141.4 L 221.5,129.0" style="fill:none;fill-rule:evenodd;stroke:#000000;stroke-width:2.0px;stroke-linecap:butt;stroke-linejoin:miter;stroke-opacity:1"/>
<path class="bond-35 atom-19 atom-23" d="M 204.3,141.4 L 187.2,128.9" style="fill:none;fill-rule:evenodd;stroke:#000000;stroke-width:2.0px;stroke-linecap:butt;stroke-linejoin:miter;stroke-opacity:1"/>
<path class="bond-36 atom-20 atom-21" d="M 221.5,129.0 L 218.9,120.8" style="fill:none;fill-rule:evenodd;stroke:#000000;stroke-width:2.0px;stroke-linecap:butt;stroke-linejoin:miter;stroke-opacity:1"/>
<path class="bond-36 atom-20 atom-21" d="M 218.9,120.8 L 216.2,112.5" style="fill:none;fill-rule:evenodd;stroke:#0000FF;stroke-width:2.0px;stroke-linecap:butt;stroke-linejoin:miter;stroke-opacity:1"/>
<path class="bond-36 atom-20 atom-21" d="M 216.7,127.8 L 214.8,122.1" style="fill:none;fill-rule:evenodd;stroke:#000000;stroke-width:2.0px;stroke-linecap:butt;stroke-linejoin:miter;stroke-opacity:1"/>
<path class="bond-36 atom-20 atom-21" d="M 214.8,122.1 L 213.0,116.3" style="fill:none;fill-rule:evenodd;stroke:#0000FF;stroke-width:2.0px;stroke-linecap:butt;stroke-linejoin:miter;stroke-opacity:1"/>
<path class="bond-37 atom-20 atom-36" d="M 221.5,129.0 L 238.6,134.7" style="fill:none;fill-rule:evenodd;stroke:#000000;stroke-width:2.0px;stroke-linecap:butt;stroke-linejoin:miter;stroke-opacity:1"/>
<path class="bond-38 atom-21 atom-22" d="M 212.1,108.8 L 196.8,108.7" style="fill:none;fill-rule:evenodd;stroke:#0000FF;stroke-width:2.0px;stroke-linecap:butt;stroke-linejoin:miter;stroke-opacity:1"/>
<path class="bond-39 atom-22 atom-23" d="M 192.6,112.4 L 189.9,120.6" style="fill:none;fill-rule:evenodd;stroke:#0000FF;stroke-width:2.0px;stroke-linecap:butt;stroke-linejoin:miter;stroke-opacity:1"/>
<path class="bond-39 atom-22 atom-23" d="M 189.9,120.6 L 187.2,128.9" style="fill:none;fill-rule:evenodd;stroke:#000000;stroke-width:2.0px;stroke-linecap:butt;stroke-linejoin:miter;stroke-opacity:1"/>
<path class="bond-40 atom-22 atom-37" d="M 191.2,105.0 L 187.7,100.1" style="fill:none;fill-rule:evenodd;stroke:#0000FF;stroke-width:2.0px;stroke-linecap:butt;stroke-linejoin:miter;stroke-opacity:1"/>
<path class="bond-40 atom-22 atom-37" d="M 187.7,100.1 L 184.2,95.2" style="fill:none;fill-rule:evenodd;stroke:#000000;stroke-width:2.0px;stroke-linecap:butt;stroke-linejoin:miter;stroke-opacity:1"/>
<path class="bond-41 atom-23 atom-24" d="M 187.2,128.9 L 167.8,137.4" style="fill:none;fill-rule:evenodd;stroke:#000000;stroke-width:2.0px;stroke-linecap:butt;stroke-linejoin:miter;stroke-opacity:1"/>
<path class="bond-41 atom-23 atom-24" d="M 186.0,134.0 L 172.4,140.0" style="fill:none;fill-rule:evenodd;stroke:#000000;stroke-width:2.0px;stroke-linecap:butt;stroke-linejoin:miter;stroke-opacity:1"/>
<path class="bond-42 atom-24 atom-38" d="M 167.8,137.4 L 153.8,127.1" style="fill:none;fill-rule:evenodd;stroke:#000000;stroke-width:2.0px;stroke-linecap:butt;stroke-linejoin:miter;stroke-opacity:1"/>
<path class="atom-0" d="M 91.2 147.4 L 93.2 150.6 Q 93.4 150.9, 93.7 151.4 Q 94.0 152.0, 94.0 152.0 L 94.0 147.4 L 94.8 147.4 L 94.8 153.4 L 94.0 153.4 L 91.9 149.9 Q 91.6 149.5, 91.4 149.0 Q 91.1 148.6, 91.0 148.4 L 91.0 153.4 L 90.3 153.4 L 90.3 147.4 L 91.2 147.4 " fill="#0000FF"/>
<path class="atom-8" d="M 127.7 151.4 L 129.7 154.6 Q 129.8 154.9, 130.2 155.5 Q 130.5 156.0, 130.5 156.1 L 130.5 151.4 L 131.3 151.4 L 131.3 157.4 L 130.5 157.4 L 128.4 153.9 Q 128.1 153.5, 127.8 153.1 Q 127.6 152.6, 127.5 152.5 L 127.5 157.4 L 126.7 157.4 L 126.7 151.4 L 127.7 151.4 " fill="#0000FF"/>
<path class="atom-11" d="M 123.0 193.5 L 125.0 196.7 Q 125.2 197.0, 125.5 197.6 Q 125.8 198.2, 125.8 198.2 L 125.8 193.5 L 126.6 193.5 L 126.6 199.5 L 125.8 199.5 L 123.7 196.1 Q 123.5 195.7, 123.2 195.2 Q 122.9 194.7, 122.9 194.6 L 122.9 199.5 L 122.1 199.5 L 122.1 193.5 L 123.0 193.5 " fill="#0000FF"/>
<path class="atom-14" d="M 88.8 193.4 L 90.7 196.5 Q 90.9 196.9, 91.2 197.4 Q 91.5 198.0, 91.6 198.0 L 91.6 193.4 L 92.4 193.4 L 92.4 199.4 L 91.5 199.4 L 89.4 195.9 Q 89.2 195.5, 88.9 195.0 Q 88.7 194.5, 88.6 194.4 L 88.6 199.4 L 87.8 199.4 L 87.8 193.4 L 88.8 193.4 " fill="#0000FF"/>
<path class="atom-21" d="M 213.7 105.8 L 215.7 109.0 Q 215.9 109.3, 216.2 109.9 Q 216.5 110.5, 216.5 110.5 L 216.5 105.8 L 217.3 105.8 L 217.3 111.8 L 216.5 111.8 L 214.4 108.4 Q 214.2 108.0, 213.9 107.5 Q 213.6 107.0, 213.6 106.9 L 213.6 111.8 L 212.8 111.8 L 212.8 105.8 L 213.7 105.8 " fill="#0000FF"/>
<path class="atom-22" d="M 192.5 105.7 L 194.5 108.9 Q 194.7 109.2, 195.0 109.8 Q 195.3 110.4, 195.4 110.4 L 195.4 105.7 L 196.1 105.7 L 196.1 111.7 L 195.3 111.7 L 193.2 108.3 Q 193.0 107.8, 192.7 107.4 Q 192.5 106.9, 192.4 106.8 L 192.4 111.7 L 191.6 111.7 L 191.6 105.7 L 192.5 105.7 " fill="#0000FF"/>
<path class="atom-25" d="M 70.8 155.9 L 71.6 155.9 L 71.6 158.5 L 74.7 158.5 L 74.7 155.9 L 75.5 155.9 L 75.5 161.9 L 74.7 161.9 L 74.7 159.1 L 71.6 159.1 L 71.6 161.9 L 70.8 161.9 L 70.8 155.9 " fill="#000000"/>
<path class="atom-26" d="M 56.0 122.3 L 56.8 122.3 L 56.8 124.9 L 59.9 124.9 L 59.9 122.3 L 60.7 122.3 L 60.7 128.3 L 59.9 128.3 L 59.9 125.5 L 56.8 125.5 L 56.8 128.3 L 56.0 128.3 L 56.0 122.3 " fill="#000000"/>
<path class="atom-27" d="M 60.7 80.2 L 61.5 80.2 L 61.5 82.7 L 64.6 82.7 L 64.6 80.2 L 65.4 80.2 L 65.4 86.2 L 64.6 86.2 L 64.6 83.4 L 61.5 83.4 L 61.5 86.2 L 60.7 86.2 L 60.7 80.2 " fill="#000000"/>
<path class="atom-28" d="M 99.5 63.1 L 100.3 63.1 L 100.3 65.7 L 103.4 65.7 L 103.4 63.1 L 104.2 63.1 L 104.2 69.1 L 103.4 69.1 L 103.4 66.4 L 100.3 66.4 L 100.3 69.1 L 99.5 69.1 L 99.5 63.1 " fill="#000000"/>
<path class="atom-29" d="M 133.6 88.2 L 134.4 88.2 L 134.4 90.8 L 137.5 90.8 L 137.5 88.2 L 138.3 88.2 L 138.3 94.2 L 137.5 94.2 L 137.5 91.5 L 134.4 91.5 L 134.4 94.2 L 133.6 94.2 L 133.6 88.2 " fill="#000000"/>
<path class="atom-30" d="M 129.0 130.3 L 129.8 130.3 L 129.8 132.9 L 132.9 132.9 L 132.9 130.3 L 133.7 130.3 L 133.7 136.3 L 132.9 136.3 L 132.9 133.6 L 129.8 133.6 L 129.8 136.3 L 129.0 136.3 L 129.0 130.3 " fill="#000000"/>
<path class="atom-31" d="M 158.5 197.6 L 159.3 197.6 L 159.3 200.1 L 162.4 200.1 L 162.4 197.6 L 163.2 197.6 L 163.2 203.6 L 162.4 203.6 L 162.4 200.8 L 159.3 200.8 L 159.3 203.6 L 158.5 203.6 L 158.5 197.6 " fill="#000000"/>
<path class="atom-32" d="M 127.7 230.9 L 128.6 230.9 L 128.6 233.4 L 131.6 233.4 L 131.6 230.9 L 132.4 230.9 L 132.4 236.9 L 131.6 236.9 L 131.6 234.1 L 128.6 234.1 L 128.6 236.9 L 127.7 236.9 L 127.7 230.9 " fill="#000000"/>
<path class="atom-33" d="M 81.6 230.6 L 82.5 230.6 L 82.5 233.2 L 85.5 233.2 L 85.5 230.6 L 86.3 230.6 L 86.3 236.6 L 85.5 236.6 L 85.5 233.9 L 82.5 233.9 L 82.5 236.6 L 81.6 236.6 L 81.6 230.6 " fill="#000000"/>
<path class="atom-34" d="M 177.9 189.0 L 178.7 189.0 L 178.7 191.6 L 181.8 191.6 L 181.8 189.0 L 182.6 189.0 L 182.6 195.0 L 181.8 195.0 L 181.8 192.3 L 178.7 192.3 L 178.7 195.0 L 177.9 195.0 L 177.9 189.0 " fill="#000000"/>
<path class="atom-35" d="M 216.7 172.0 L 217.5 172.0 L 217.5 174.5 L 220.6 174.5 L 220.6 172.0 L 221.4 172.0 L 221.4 178.0 L 220.6 178.0 L 220.6 175.2 L 217.5 175.2 L 217.5 178.0 L 216.7 178.0 L 216.7 172.0 " fill="#000000"/>
<path class="atom-36" d="M 239.3 132.7 L 240.1 132.7 L 240.1 135.2 L 243.2 135.2 L 243.2 132.7 L 244.0 132.7 L 244.0 138.7 L 243.2 138.7 L 243.2 135.9 L 240.1 135.9 L 240.1 138.7 L 239.3 138.7 L 239.3 132.7 " fill="#000000"/>
<path class="atom-37" d="M 179.2 88.5 L 180.0 88.5 L 180.0 91.1 L 183.0 91.1 L 183.0 88.5 L 183.9 88.5 L 183.9 94.5 L 183.0 94.5 L 183.0 91.8 L 180.0 91.8 L 180.0 94.5 L 179.2 94.5 L 179.2 88.5 " fill="#000000"/>
<path class="atom-38" d="M 148.4 121.8 L 149.2 121.8 L 149.2 124.4 L 152.3 124.4 L 152.3 121.8 L 153.1 121.8 L 153.1 127.8 L 152.3 127.8 L 152.3 125.1 L 149.2 125.1 L 149.2 127.8 L 148.4 127.8 L 148.4 121.8 " fill="#000000"/>
<path class="bond-0 atom-0 atom-1" d="M 341.3,146.6 L 348.6,148.3" style="fill:none;fill-rule:evenodd;stroke:#FF0000;stroke-width:2.0px;stroke-linecap:butt;stroke-linejoin:miter;stroke-opacity:1"/>
<path class="bond-0 atom-0 atom-1" d="M 348.6,148.3 L 355.8,150.1" style="fill:none;fill-rule:evenodd;stroke:#CCCC00;stroke-width:2.0px;stroke-linecap:butt;stroke-linejoin:miter;stroke-opacity:1"/>
<path class="bond-0 atom-0 atom-1" d="M 340.3,150.7 L 347.6,152.4" style="fill:none;fill-rule:evenodd;stroke:#FF0000;stroke-width:2.0px;stroke-linecap:butt;stroke-linejoin:miter;stroke-opacity:1"/>
<path class="bond-0 atom-0 atom-1" d="M 347.6,152.4 L 354.9,154.2" style="fill:none;fill-rule:evenodd;stroke:#CCCC00;stroke-width:2.0px;stroke-linecap:butt;stroke-linejoin:miter;stroke-opacity:1"/>
<path class="bond-1 atom-1 atom-2" d="M 358.3,157.4 L 355.7,163.4" style="fill:none;fill-rule:evenodd;stroke:#CCCC00;stroke-width:2.0px;stroke-linecap:butt;stroke-linejoin:miter;stroke-opacity:1"/>
<path class="bond-1 atom-1 atom-2" d="M 355.7,163.4 L 353.1,169.3" style="fill:none;fill-rule:evenodd;stroke:#FF0000;stroke-width:2.0px;stroke-linecap:butt;stroke-linejoin:miter;stroke-opacity:1"/>
<path class="bond-1 atom-1 atom-2" d="M 354.4,155.7 L 351.8,161.7" style="fill:none;fill-rule:evenodd;stroke:#CCCC00;stroke-width:2.0px;stroke-linecap:butt;stroke-linejoin:miter;stroke-opacity:1"/>
<path class="bond-1 atom-1 atom-2" d="M 351.8,161.7 L 349.2,167.6" style="fill:none;fill-rule:evenodd;stroke:#FF0000;stroke-width:2.0px;stroke-linecap:butt;stroke-linejoin:miter;stroke-opacity:1"/>
<path class="bond-2 atom-1 atom-3" d="M 360.6,154.5 L 368.1,159.4" style="fill:none;fill-rule:evenodd;stroke:#CCCC00;stroke-width:2.0px;stroke-linecap:butt;stroke-linejoin:miter;stroke-opacity:1"/>
<path class="bond-2 atom-1 atom-3" d="M 368.1,159.4 L 375.7,164.4" style="fill:none;fill-rule:evenodd;stroke:#000000;stroke-width:2.0px;stroke-linecap:butt;stroke-linejoin:miter;stroke-opacity:1"/>
<path class="bond-3 atom-1 atom-7" d="M 358.2,149.0 L 358.7,140.3" style="fill:none;fill-rule:evenodd;stroke:#CCCC00;stroke-width:2.0px;stroke-linecap:butt;stroke-linejoin:miter;stroke-opacity:1"/>
<path class="bond-3 atom-1 atom-7" d="M 358.7,140.3 L 359.3,131.6" style="fill:none;fill-rule:evenodd;stroke:#000000;stroke-width:2.0px;stroke-linecap:butt;stroke-linejoin:miter;stroke-opacity:1"/>
<path class="bond-4 atom-3 atom-4" d="M 375.7,164.4 L 394.6,155.0" style="fill:none;fill-rule:evenodd;stroke:#000000;stroke-width:2.0px;stroke-linecap:butt;stroke-linejoin:miter;stroke-opacity:1"/>
<path class="bond-5 atom-3 atom-33" d="M 375.7,164.4 L 364.1,176.6" style="fill:none;fill-rule:evenodd;stroke:#000000;stroke-width:2.0px;stroke-linecap:butt;stroke-linejoin:miter;stroke-opacity:1"/>
<path class="bond-6 atom-3 atom-34" d="M 375.7,164.4 L 385.5,177.7" style="fill:none;fill-rule:evenodd;stroke:#000000;stroke-width:2.0px;stroke-linecap:butt;stroke-linejoin:miter;stroke-opacity:1"/>
<path class="bond-7 atom-4 atom-5" d="M 394.6,155.0 L 395.1,146.2" style="fill:none;fill-rule:evenodd;stroke:#000000;stroke-width:2.0px;stroke-linecap:butt;stroke-linejoin:miter;stroke-opacity:1"/>
<path class="bond-7 atom-4 atom-5" d="M 395.1,146.2 L 395.7,137.5" style="fill:none;fill-rule:evenodd;stroke:#0000FF;stroke-width:2.0px;stroke-linecap:butt;stroke-linejoin:miter;stroke-opacity:1"/>
<path class="bond-8 atom-4 atom-35" d="M 394.6,155.0 L 399.5,171.6" style="fill:none;fill-rule:evenodd;stroke:#000000;stroke-width:2.0px;stroke-linecap:butt;stroke-linejoin:miter;stroke-opacity:1"/>
<path class="bond-9 atom-4 atom-36" d="M 394.6,155.0 L 412.6,152.9" style="fill:none;fill-rule:evenodd;stroke:#000000;stroke-width:2.0px;stroke-linecap:butt;stroke-linejoin:miter;stroke-opacity:1"/>
<path class="bond-10 atom-5 atom-6" d="M 392.9,131.8 L 385.6,127.0" style="fill:none;fill-rule:evenodd;stroke:#0000FF;stroke-width:2.0px;stroke-linecap:butt;stroke-linejoin:miter;stroke-opacity:1"/>
<path class="bond-10 atom-5 atom-6" d="M 385.6,127.0 L 378.2,122.1" style="fill:none;fill-rule:evenodd;stroke:#000000;stroke-width:2.0px;stroke-linecap:butt;stroke-linejoin:miter;stroke-opacity:1"/>
<path class="bond-11 atom-5 atom-8" d="M 398.9,132.3 L 406.9,128.3" style="fill:none;fill-rule:evenodd;stroke:#0000FF;stroke-width:2.0px;stroke-linecap:butt;stroke-linejoin:miter;stroke-opacity:1"/>
<path class="bond-11 atom-5 atom-8" d="M 406.9,128.3 L 414.9,124.3" style="fill:none;fill-rule:evenodd;stroke:#000000;stroke-width:2.0px;stroke-linecap:butt;stroke-linejoin:miter;stroke-opacity:1"/>
<path class="bond-12 atom-6 atom-7" d="M 378.2,122.1 L 359.3,131.6" style="fill:none;fill-rule:evenodd;stroke:#000000;stroke-width:2.0px;stroke-linecap:butt;stroke-linejoin:miter;stroke-opacity:1"/>
<path class="bond-13 atom-6 atom-37" d="M 378.2,122.1 L 389.7,110.0" style="fill:none;fill-rule:evenodd;stroke:#000000;stroke-width:2.0px;stroke-linecap:butt;stroke-linejoin:miter;stroke-opacity:1"/>
<path class="bond-14 atom-6 atom-38" d="M 378.2,122.1 L 368.3,108.8" style="fill:none;fill-rule:evenodd;stroke:#000000;stroke-width:2.0px;stroke-linecap:butt;stroke-linejoin:miter;stroke-opacity:1"/>
<path class="bond-15 atom-7 atom-39" d="M 359.3,131.6 L 354.3,115.0" style="fill:none;fill-rule:evenodd;stroke:#000000;stroke-width:2.0px;stroke-linecap:butt;stroke-linejoin:miter;stroke-opacity:1"/>
<path class="bond-16 atom-7 atom-40" d="M 359.3,131.6 L 341.3,133.7" style="fill:none;fill-rule:evenodd;stroke:#000000;stroke-width:2.0px;stroke-linecap:butt;stroke-linejoin:miter;stroke-opacity:1"/>
<path class="bond-17 atom-8 atom-9" d="M 414.9,124.3 L 416.1,103.2" style="fill:none;fill-rule:evenodd;stroke:#000000;stroke-width:2.0px;stroke-linecap:butt;stroke-linejoin:miter;stroke-opacity:1"/>
<path class="bond-17 atom-8 atom-9" d="M 419.3,121.4 L 420.2,106.6" style="fill:none;fill-rule:evenodd;stroke:#000000;stroke-width:2.0px;stroke-linecap:butt;stroke-linejoin:miter;stroke-opacity:1"/>
<path class="bond-18 atom-8 atom-32" d="M 414.9,124.3 L 432.5,136.0" style="fill:none;fill-rule:evenodd;stroke:#000000;stroke-width:2.0px;stroke-linecap:butt;stroke-linejoin:miter;stroke-opacity:1"/>
<path class="bond-19 atom-9 atom-10" d="M 416.1,103.2 L 435.1,93.7" style="fill:none;fill-rule:evenodd;stroke:#000000;stroke-width:2.0px;stroke-linecap:butt;stroke-linejoin:miter;stroke-opacity:1"/>
<path class="bond-20 atom-9 atom-41" d="M 416.1,103.2 L 401.5,93.5" style="fill:none;fill-rule:evenodd;stroke:#000000;stroke-width:2.0px;stroke-linecap:butt;stroke-linejoin:miter;stroke-opacity:1"/>
<path class="bond-21 atom-10 atom-11" d="M 435.1,93.7 L 452.8,105.4" style="fill:none;fill-rule:evenodd;stroke:#000000;stroke-width:2.0px;stroke-linecap:butt;stroke-linejoin:miter;stroke-opacity:1"/>
<path class="bond-21 atom-10 atom-11" d="M 435.4,99.0 L 447.8,107.2" style="fill:none;fill-rule:evenodd;stroke:#000000;stroke-width:2.0px;stroke-linecap:butt;stroke-linejoin:miter;stroke-opacity:1"/>
<path class="bond-22 atom-10 atom-42" d="M 435.1,93.7 L 436.1,76.3" style="fill:none;fill-rule:evenodd;stroke:#000000;stroke-width:2.0px;stroke-linecap:butt;stroke-linejoin:miter;stroke-opacity:1"/>
<path class="bond-23 atom-11 atom-12" d="M 452.8,105.4 L 460.8,101.4" style="fill:none;fill-rule:evenodd;stroke:#000000;stroke-width:2.0px;stroke-linecap:butt;stroke-linejoin:miter;stroke-opacity:1"/>
<path class="bond-23 atom-11 atom-12" d="M 460.8,101.4 L 468.7,97.4" style="fill:none;fill-rule:evenodd;stroke:#0000FF;stroke-width:2.0px;stroke-linecap:butt;stroke-linejoin:miter;stroke-opacity:1"/>
<path class="bond-24 atom-11 atom-31" d="M 452.8,105.4 L 451.5,126.5" style="fill:none;fill-rule:evenodd;stroke:#000000;stroke-width:2.0px;stroke-linecap:butt;stroke-linejoin:miter;stroke-opacity:1"/>
<path class="bond-25 atom-12 atom-13" d="M 474.7,97.9 L 482.1,102.8" style="fill:none;fill-rule:evenodd;stroke:#0000FF;stroke-width:2.0px;stroke-linecap:butt;stroke-linejoin:miter;stroke-opacity:1"/>
<path class="bond-25 atom-12 atom-13" d="M 482.1,102.8 L 489.4,107.6" style="fill:none;fill-rule:evenodd;stroke:#000000;stroke-width:2.0px;stroke-linecap:butt;stroke-linejoin:miter;stroke-opacity:1"/>
<path class="bond-26 atom-12 atom-43" d="M 471.9,92.2 L 472.4,85.4" style="fill:none;fill-rule:evenodd;stroke:#0000FF;stroke-width:2.0px;stroke-linecap:butt;stroke-linejoin:miter;stroke-opacity:1"/>
<path class="bond-26 atom-12 atom-43" d="M 472.4,85.4 L 472.8,78.5" style="fill:none;fill-rule:evenodd;stroke:#000000;stroke-width:2.0px;stroke-linecap:butt;stroke-linejoin:miter;stroke-opacity:1"/>
<path class="bond-27 atom-13 atom-14" d="M 489.4,107.6 L 488.9,116.3" style="fill:none;fill-rule:evenodd;stroke:#000000;stroke-width:2.0px;stroke-linecap:butt;stroke-linejoin:miter;stroke-opacity:1"/>
<path class="bond-27 atom-13 atom-14" d="M 488.9,116.3 L 488.3,125.1" style="fill:none;fill-rule:evenodd;stroke:#0000FF;stroke-width:2.0px;stroke-linecap:butt;stroke-linejoin:miter;stroke-opacity:1"/>
<path class="bond-27 atom-13 atom-14" d="M 493.5,110.5 L 493.1,116.6" style="fill:none;fill-rule:evenodd;stroke:#000000;stroke-width:2.0px;stroke-linecap:butt;stroke-linejoin:miter;stroke-opacity:1"/>
<path class="bond-27 atom-13 atom-14" d="M 493.1,116.6 L 492.7,122.7" style="fill:none;fill-rule:evenodd;stroke:#0000FF;stroke-width:2.0px;stroke-linecap:butt;stroke-linejoin:miter;stroke-opacity:1"/>
<path class="bond-28 atom-13 atom-21" d="M 489.4,107.6 L 508.4,98.1" style="fill:none;fill-rule:evenodd;stroke:#000000;stroke-width:2.0px;stroke-linecap:butt;stroke-linejoin:miter;stroke-opacity:1"/>
<path class="bond-29 atom-14 atom-15" d="M 491.1,130.7 L 498.5,135.6" style="fill:none;fill-rule:evenodd;stroke:#0000FF;stroke-width:2.0px;stroke-linecap:butt;stroke-linejoin:miter;stroke-opacity:1"/>
<path class="bond-29 atom-14 atom-15" d="M 498.5,135.6 L 505.8,140.4" style="fill:none;fill-rule:evenodd;stroke:#000000;stroke-width:2.0px;stroke-linecap:butt;stroke-linejoin:miter;stroke-opacity:1"/>
<path class="bond-30 atom-15 atom-16" d="M 505.8,140.4 L 524.8,131.0" style="fill:none;fill-rule:evenodd;stroke:#000000;stroke-width:2.0px;stroke-linecap:butt;stroke-linejoin:miter;stroke-opacity:1"/>
<path class="bond-30 atom-15 atom-16" d="M 506.8,135.2 L 520.0,128.6" style="fill:none;fill-rule:evenodd;stroke:#000000;stroke-width:2.0px;stroke-linecap:butt;stroke-linejoin:miter;stroke-opacity:1"/>
<path class="bond-31 atom-15 atom-22" d="M 505.8,140.4 L 504.5,161.6" style="fill:none;fill-rule:evenodd;stroke:#000000;stroke-width:2.0px;stroke-linecap:butt;stroke-linejoin:miter;stroke-opacity:1"/>
<path class="bond-32 atom-16 atom-17" d="M 524.8,131.0 L 525.3,122.3" style="fill:none;fill-rule:evenodd;stroke:#000000;stroke-width:2.0px;stroke-linecap:butt;stroke-linejoin:miter;stroke-opacity:1"/>
<path class="bond-32 atom-16 atom-17" d="M 525.3,122.3 L 525.8,113.5" style="fill:none;fill-rule:evenodd;stroke:#0000FF;stroke-width:2.0px;stroke-linecap:butt;stroke-linejoin:miter;stroke-opacity:1"/>
<path class="bond-33 atom-16 atom-44" d="M 524.8,131.0 L 539.4,140.6" style="fill:none;fill-rule:evenodd;stroke:#000000;stroke-width:2.0px;stroke-linecap:butt;stroke-linejoin:miter;stroke-opacity:1"/>
<path class="bond-34 atom-17 atom-18" d="M 529.0,107.5 L 535.8,102.0" style="fill:none;fill-rule:evenodd;stroke:#0000FF;stroke-width:2.0px;stroke-linecap:butt;stroke-linejoin:miter;stroke-opacity:1"/>
<path class="bond-34 atom-17 atom-18" d="M 535.8,102.0 L 542.6,96.6" style="fill:none;fill-rule:evenodd;stroke:#000000;stroke-width:2.0px;stroke-linecap:butt;stroke-linejoin:miter;stroke-opacity:1"/>
<path class="bond-35 atom-17 atom-21" d="M 523.1,107.9 L 515.7,103.0" style="fill:none;fill-rule:evenodd;stroke:#0000FF;stroke-width:2.0px;stroke-linecap:butt;stroke-linejoin:miter;stroke-opacity:1"/>
<path class="bond-35 atom-17 atom-21" d="M 515.7,103.0 L 508.4,98.1" style="fill:none;fill-rule:evenodd;stroke:#000000;stroke-width:2.0px;stroke-linecap:butt;stroke-linejoin:miter;stroke-opacity:1"/>
<path class="bond-36 atom-18 atom-19" d="M 542.6,96.6 L 535.2,76.8" style="fill:none;fill-rule:evenodd;stroke:#000000;stroke-width:2.0px;stroke-linecap:butt;stroke-linejoin:miter;stroke-opacity:1"/>
<path class="bond-36 atom-18 atom-19" d="M 537.5,95.1 L 532.3,81.2" style="fill:none;fill-rule:evenodd;stroke:#000000;stroke-width:2.0px;stroke-linecap:butt;stroke-linejoin:miter;stroke-opacity:1"/>
<path class="bond-37 atom-18 atom-45" d="M 542.6,96.6 L 560.0,101.4" style="fill:none;fill-rule:evenodd;stroke:#000000;stroke-width:2.0px;stroke-linecap:butt;stroke-linejoin:miter;stroke-opacity:1"/>
<path class="bond-38 atom-19 atom-20" d="M 535.2,76.8 L 526.1,77.2" style="fill:none;fill-rule:evenodd;stroke:#000000;stroke-width:2.0px;stroke-linecap:butt;stroke-linejoin:miter;stroke-opacity:1"/>
<path class="bond-38 atom-19 atom-20" d="M 526.1,77.2 L 517.0,77.6" style="fill:none;fill-rule:evenodd;stroke:#0000FF;stroke-width:2.0px;stroke-linecap:butt;stroke-linejoin:miter;stroke-opacity:1"/>
<path class="bond-39 atom-19 atom-46" d="M 535.2,76.8 L 544.4,62.8" style="fill:none;fill-rule:evenodd;stroke:#000000;stroke-width:2.0px;stroke-linecap:butt;stroke-linejoin:miter;stroke-opacity:1"/>
<path class="bond-40 atom-20 atom-21" d="M 513.0,81.4 L 510.7,89.8" style="fill:none;fill-rule:evenodd;stroke:#0000FF;stroke-width:2.0px;stroke-linecap:butt;stroke-linejoin:miter;stroke-opacity:1"/>
<path class="bond-40 atom-20 atom-21" d="M 510.7,89.8 L 508.4,98.1" style="fill:none;fill-rule:evenodd;stroke:#000000;stroke-width:2.0px;stroke-linecap:butt;stroke-linejoin:miter;stroke-opacity:1"/>
<path class="bond-40 atom-20 atom-21" d="M 516.4,85.1 L 514.8,90.9" style="fill:none;fill-rule:evenodd;stroke:#0000FF;stroke-width:2.0px;stroke-linecap:butt;stroke-linejoin:miter;stroke-opacity:1"/>
<path class="bond-40 atom-20 atom-21" d="M 514.8,90.9 L 513.1,96.8" style="fill:none;fill-rule:evenodd;stroke:#000000;stroke-width:2.0px;stroke-linecap:butt;stroke-linejoin:miter;stroke-opacity:1"/>
<path class="bond-41 atom-22 atom-23" d="M 504.5,161.6 L 522.2,173.3" style="fill:none;fill-rule:evenodd;stroke:#000000;stroke-width:2.0px;stroke-linecap:butt;stroke-linejoin:miter;stroke-opacity:1"/>
<path class="bond-41 atom-22 atom-23" d="M 504.8,166.9 L 517.2,175.1" style="fill:none;fill-rule:evenodd;stroke:#000000;stroke-width:2.0px;stroke-linecap:butt;stroke-linejoin:miter;stroke-opacity:1"/>
<path class="bond-42 atom-22 atom-30" d="M 504.5,161.6 L 485.6,171.1" style="fill:none;fill-rule:evenodd;stroke:#000000;stroke-width:2.0px;stroke-linecap:butt;stroke-linejoin:miter;stroke-opacity:1"/>
<path class="bond-43 atom-23 atom-24" d="M 522.2,173.3 L 520.9,194.4" style="fill:none;fill-rule:evenodd;stroke:#000000;stroke-width:2.0px;stroke-linecap:butt;stroke-linejoin:miter;stroke-opacity:1"/>
<path class="bond-44 atom-23 atom-47" d="M 522.2,173.3 L 538.1,165.3" style="fill:none;fill-rule:evenodd;stroke:#000000;stroke-width:2.0px;stroke-linecap:butt;stroke-linejoin:miter;stroke-opacity:1"/>
<path class="bond-45 atom-24 atom-25" d="M 520.9,194.4 L 502.0,203.9" style="fill:none;fill-rule:evenodd;stroke:#000000;stroke-width:2.0px;stroke-linecap:butt;stroke-linejoin:miter;stroke-opacity:1"/>
<path class="bond-45 atom-24 atom-25" d="M 516.2,192.1 L 502.9,198.7" style="fill:none;fill-rule:evenodd;stroke:#000000;stroke-width:2.0px;stroke-linecap:butt;stroke-linejoin:miter;stroke-opacity:1"/>
<path class="bond-46 atom-24 atom-48" d="M 520.9,194.4 L 535.6,204.1" style="fill:none;fill-rule:evenodd;stroke:#000000;stroke-width:2.0px;stroke-linecap:butt;stroke-linejoin:miter;stroke-opacity:1"/>
<path class="bond-47 atom-25 atom-26" d="M 502.0,203.9 L 496.3,224.3" style="fill:none;fill-rule:evenodd;stroke:#000000;stroke-width:2.0px;stroke-linecap:butt;stroke-linejoin:miter;stroke-opacity:1"/>
<path class="bond-48 atom-25 atom-29" d="M 502.0,203.9 L 484.3,192.2" style="fill:none;fill-rule:evenodd;stroke:#000000;stroke-width:2.0px;stroke-linecap:butt;stroke-linejoin:miter;stroke-opacity:1"/>
<path class="bond-49 atom-26 atom-27" d="M 496.3,224.3 L 487.2,224.7" style="fill:none;fill-rule:evenodd;stroke:#000000;stroke-width:2.0px;stroke-linecap:butt;stroke-linejoin:miter;stroke-opacity:1"/>
<path class="bond-49 atom-26 atom-27" d="M 487.2,224.7 L 478.1,225.1" style="fill:none;fill-rule:evenodd;stroke:#0000FF;stroke-width:2.0px;stroke-linecap:butt;stroke-linejoin:miter;stroke-opacity:1"/>
<path class="bond-49 atom-26 atom-27" d="M 493.4,220.2 L 487.0,220.5" style="fill:none;fill-rule:evenodd;stroke:#000000;stroke-width:2.0px;stroke-linecap:butt;stroke-linejoin:miter;stroke-opacity:1"/>
<path class="bond-49 atom-26 atom-27" d="M 487.0,220.5 L 480.7,220.8" style="fill:none;fill-rule:evenodd;stroke:#0000FF;stroke-width:2.0px;stroke-linecap:butt;stroke-linejoin:miter;stroke-opacity:1"/>
<path class="bond-50 atom-26 atom-49" d="M 496.3,224.3 L 506.6,237.2" style="fill:none;fill-rule:evenodd;stroke:#000000;stroke-width:2.0px;stroke-linecap:butt;stroke-linejoin:miter;stroke-opacity:1"/>
<path class="bond-51 atom-27 atom-28" d="M 473.8,221.6 L 469.1,209.1" style="fill:none;fill-rule:evenodd;stroke:#0000FF;stroke-width:2.0px;stroke-linecap:butt;stroke-linejoin:miter;stroke-opacity:1"/>
<path class="bond-52 atom-28 atom-29" d="M 470.7,203.1 L 477.5,197.6" style="fill:none;fill-rule:evenodd;stroke:#0000FF;stroke-width:2.0px;stroke-linecap:butt;stroke-linejoin:miter;stroke-opacity:1"/>
<path class="bond-52 atom-28 atom-29" d="M 477.5,197.6 L 484.3,192.2" style="fill:none;fill-rule:evenodd;stroke:#000000;stroke-width:2.0px;stroke-linecap:butt;stroke-linejoin:miter;stroke-opacity:1"/>
<path class="bond-53 atom-28 atom-50" d="M 464.7,204.6 L 457.5,202.6" style="fill:none;fill-rule:evenodd;stroke:#0000FF;stroke-width:2.0px;stroke-linecap:butt;stroke-linejoin:miter;stroke-opacity:1"/>
<path class="bond-53 atom-28 atom-50" d="M 457.5,202.6 L 450.3,200.6" style="fill:none;fill-rule:evenodd;stroke:#000000;stroke-width:2.0px;stroke-linecap:butt;stroke-linejoin:miter;stroke-opacity:1"/>
<path class="bond-54 atom-29 atom-30" d="M 484.3,192.2 L 485.6,171.1" style="fill:none;fill-rule:evenodd;stroke:#000000;stroke-width:2.0px;stroke-linecap:butt;stroke-linejoin:miter;stroke-opacity:1"/>
<path class="bond-54 atom-29 atom-30" d="M 488.7,189.3 L 489.6,174.5" style="fill:none;fill-rule:evenodd;stroke:#000000;stroke-width:2.0px;stroke-linecap:butt;stroke-linejoin:miter;stroke-opacity:1"/>
<path class="bond-55 atom-30 atom-51" d="M 485.6,171.1 L 470.9,161.4" style="fill:none;fill-rule:evenodd;stroke:#000000;stroke-width:2.0px;stroke-linecap:butt;stroke-linejoin:miter;stroke-opacity:1"/>
<path class="bond-56 atom-31 atom-32" d="M 451.5,126.5 L 432.5,136.0" style="fill:none;fill-rule:evenodd;stroke:#000000;stroke-width:2.0px;stroke-linecap:butt;stroke-linejoin:miter;stroke-opacity:1"/>
<path class="bond-56 atom-31 atom-32" d="M 446.7,124.2 L 433.5,130.8" style="fill:none;fill-rule:evenodd;stroke:#000000;stroke-width:2.0px;stroke-linecap:butt;stroke-linejoin:miter;stroke-opacity:1"/>
<path class="bond-57 atom-31 atom-52" d="M 451.5,126.5 L 466.1,136.2" style="fill:none;fill-rule:evenodd;stroke:#000000;stroke-width:2.0px;stroke-linecap:butt;stroke-linejoin:miter;stroke-opacity:1"/>
<path class="bond-58 atom-32 atom-53" d="M 432.5,136.0 L 431.5,153.5" style="fill:none;fill-rule:evenodd;stroke:#000000;stroke-width:2.0px;stroke-linecap:butt;stroke-linejoin:miter;stroke-opacity:1"/>
<path class="atom-0" d="M 334.6 147.8 Q 334.6 146.4, 335.3 145.6 Q 336.0 144.8, 337.4 144.8 Q 338.7 144.8, 339.4 145.6 Q 340.1 146.4, 340.1 147.8 Q 340.1 149.3, 339.4 150.1 Q 338.7 150.9, 337.4 150.9 Q 336.0 150.9, 335.3 150.1 Q 334.6 149.3, 334.6 147.8 M 337.4 150.3 Q 338.3 150.3, 338.8 149.6 Q 339.3 149.0, 339.3 147.8 Q 339.3 146.6, 338.8 146.1 Q 338.3 145.5, 337.4 145.5 Q 336.5 145.5, 336.0 146.0 Q 335.5 146.6, 335.5 147.8 Q 335.5 149.0, 336.0 149.6 Q 336.5 150.3, 337.4 150.3 " fill="#FF0000"/>
<path class="atom-1" d="M 356.3 154.8 Q 356.4 154.8, 356.6 154.9 Q 356.9 155.1, 357.2 155.1 Q 357.5 155.2, 357.8 155.2 Q 358.4 155.2, 358.7 154.9 Q 359.1 154.7, 359.1 154.2 Q 359.1 153.8, 358.9 153.6 Q 358.7 153.4, 358.5 153.3 Q 358.2 153.2, 357.8 153.1 Q 357.3 152.9, 356.9 152.8 Q 356.6 152.6, 356.4 152.3 Q 356.2 152.0, 356.2 151.4 Q 356.2 150.7, 356.7 150.2 Q 357.2 149.7, 358.2 149.7 Q 358.9 149.7, 359.7 150.1 L 359.5 150.7 Q 358.8 150.4, 358.3 150.4 Q 357.7 150.4, 357.3 150.7 Q 357.0 150.9, 357.0 151.3 Q 357.0 151.7, 357.2 151.9 Q 357.4 152.0, 357.6 152.2 Q 357.8 152.3, 358.3 152.4 Q 358.8 152.6, 359.1 152.7 Q 359.4 152.9, 359.7 153.2 Q 359.9 153.6, 359.9 154.2 Q 359.9 155.0, 359.3 155.5 Q 358.8 155.9, 357.9 155.9 Q 357.3 155.9, 356.9 155.8 Q 356.5 155.7, 356.1 155.5 L 356.3 154.8 " fill="#CCCC00"/>
<path class="atom-2" d="M 346.8 172.2 Q 346.8 170.8, 347.5 170.0 Q 348.2 169.1, 349.5 169.1 Q 350.9 169.1, 351.6 170.0 Q 352.3 170.8, 352.3 172.2 Q 352.3 173.7, 351.6 174.5 Q 350.9 175.3, 349.5 175.3 Q 348.2 175.3, 347.5 174.5 Q 346.8 173.7, 346.8 172.2 M 349.5 174.6 Q 350.5 174.6, 351.0 174.0 Q 351.5 173.4, 351.5 172.2 Q 351.5 171.0, 351.0 170.4 Q 350.5 169.8, 349.5 169.8 Q 348.6 169.8, 348.1 170.4 Q 347.6 171.0, 347.6 172.2 Q 347.6 173.4, 348.1 174.0 Q 348.6 174.6, 349.5 174.6 " fill="#FF0000"/>
<path class="atom-5" d="M 394.6 130.8 L 396.5 134.0 Q 396.7 134.3, 397.0 134.9 Q 397.4 135.4, 397.4 135.5 L 397.4 130.8 L 398.2 130.8 L 398.2 136.8 L 397.3 136.8 L 395.2 133.3 Q 395.0 132.9, 394.7 132.5 Q 394.5 132.0, 394.4 131.8 L 394.4 136.8 L 393.6 136.8 L 393.6 130.8 L 394.6 130.8 " fill="#0000FF"/>
<path class="atom-12" d="M 470.4 92.9 L 472.4 96.1 Q 472.6 96.4, 472.9 97.0 Q 473.2 97.6, 473.2 97.6 L 473.2 92.9 L 474.0 92.9 L 474.0 98.9 L 473.2 98.9 L 471.1 95.5 Q 470.8 95.0, 470.6 94.6 Q 470.3 94.1, 470.2 94.0 L 470.2 98.9 L 469.4 98.9 L 469.4 92.9 L 470.4 92.9 " fill="#0000FF"/>
<path class="atom-14" d="M 486.8 125.8 L 488.8 128.9 Q 489.0 129.3, 489.3 129.8 Q 489.6 130.4, 489.6 130.4 L 489.6 125.8 L 490.4 125.8 L 490.4 131.8 L 489.6 131.8 L 487.5 128.3 Q 487.2 127.9, 487.0 127.4 Q 486.7 126.9, 486.6 126.8 L 486.6 131.8 L 485.8 131.8 L 485.8 125.8 L 486.8 125.8 " fill="#0000FF"/>
<path class="atom-17" d="M 524.7 106.8 L 526.7 110.0 Q 526.9 110.3, 527.2 110.9 Q 527.5 111.5, 527.5 111.5 L 527.5 106.8 L 528.3 106.8 L 528.3 112.8 L 527.5 112.8 L 525.4 109.4 Q 525.1 108.9, 524.9 108.5 Q 524.6 108.0, 524.5 107.9 L 524.5 112.8 L 523.8 112.8 L 523.8 106.8 L 524.7 106.8 " fill="#0000FF"/>
<path class="atom-20" d="M 512.7 74.7 L 514.6 77.9 Q 514.8 78.2, 515.2 78.8 Q 515.5 79.3, 515.5 79.4 L 515.5 74.7 L 516.3 74.7 L 516.3 80.7 L 515.5 80.7 L 513.4 77.2 Q 513.1 76.8, 512.8 76.4 Q 512.6 75.9, 512.5 75.8 L 512.5 80.7 L 511.7 80.7 L 511.7 74.7 L 512.7 74.7 " fill="#0000FF"/>
<path class="atom-27" d="M 473.8 222.3 L 475.8 225.4 Q 476.0 225.8, 476.3 226.3 Q 476.6 226.9, 476.6 226.9 L 476.6 222.3 L 477.4 222.3 L 477.4 228.3 L 476.6 228.3 L 474.5 224.8 Q 474.2 224.4, 474.0 223.9 Q 473.7 223.5, 473.7 223.3 L 473.7 228.3 L 472.9 228.3 L 472.9 222.3 L 473.8 222.3 " fill="#0000FF"/>
<path class="atom-28" d="M 466.4 202.4 L 468.4 205.6 Q 468.5 205.9, 468.9 206.5 Q 469.2 207.0, 469.2 207.1 L 469.2 202.4 L 470.0 202.4 L 470.0 208.4 L 469.2 208.4 L 467.1 204.9 Q 466.8 204.5, 466.5 204.1 Q 466.3 203.6, 466.2 203.5 L 466.2 208.4 L 465.4 208.4 L 465.4 202.4 L 466.4 202.4 " fill="#0000FF"/>
<path class="atom-33" d="M 358.7 176.8 L 359.5 176.8 L 359.5 179.4 L 362.6 179.4 L 362.6 176.8 L 363.4 176.8 L 363.4 182.8 L 362.6 182.8 L 362.6 180.0 L 359.5 180.0 L 359.5 182.8 L 358.7 182.8 L 358.7 176.8 " fill="#000000"/>
<path class="atom-34" d="M 385.9 178.4 L 386.7 178.4 L 386.7 181.0 L 389.8 181.0 L 389.8 178.4 L 390.6 178.4 L 390.6 184.4 L 389.8 184.4 L 389.8 181.7 L 386.7 181.7 L 386.7 184.4 L 385.9 184.4 L 385.9 178.4 " fill="#000000"/>
<path class="atom-35" d="M 398.3 172.3 L 399.1 172.3 L 399.1 174.8 L 402.2 174.8 L 402.2 172.3 L 403.0 172.3 L 403.0 178.3 L 402.2 178.3 L 402.2 175.5 L 399.1 175.5 L 399.1 178.3 L 398.3 178.3 L 398.3 172.3 " fill="#000000"/>
<path class="atom-36" d="M 413.3 149.5 L 414.1 149.5 L 414.1 152.1 L 417.2 152.1 L 417.2 149.5 L 418.0 149.5 L 418.0 155.5 L 417.2 155.5 L 417.2 152.8 L 414.1 152.8 L 414.1 155.5 L 413.3 155.5 L 413.3 149.5 " fill="#000000"/>
<path class="atom-37" d="M 390.4 103.7 L 391.3 103.7 L 391.3 106.3 L 394.3 106.3 L 394.3 103.7 L 395.1 103.7 L 395.1 109.7 L 394.3 109.7 L 394.3 107.0 L 391.3 107.0 L 391.3 109.7 L 390.4 109.7 L 390.4 103.7 " fill="#000000"/>
<path class="atom-38" d="M 363.2 102.1 L 364.1 102.1 L 364.1 104.6 L 367.1 104.6 L 367.1 102.1 L 367.9 102.1 L 367.9 108.1 L 367.1 108.1 L 367.1 105.3 L 364.1 105.3 L 364.1 108.1 L 363.2 108.1 L 363.2 102.1 " fill="#000000"/>
<path class="atom-39" d="M 350.9 108.3 L 351.7 108.3 L 351.7 110.8 L 354.8 110.8 L 354.8 108.3 L 355.6 108.3 L 355.6 114.3 L 354.8 114.3 L 354.8 111.5 L 351.7 111.5 L 351.7 114.3 L 350.9 114.3 L 350.9 108.3 " fill="#000000"/>
<path class="atom-40" d="M 335.9 131.0 L 336.7 131.0 L 336.7 133.6 L 339.7 133.6 L 339.7 131.0 L 340.6 131.0 L 340.6 137.0 L 339.7 137.0 L 339.7 134.2 L 336.7 134.2 L 336.7 137.0 L 335.9 137.0 L 335.9 131.0 " fill="#000000"/>
<path class="atom-41" d="M 396.1 88.5 L 396.9 88.5 L 396.9 91.1 L 400.0 91.1 L 400.0 88.5 L 400.8 88.5 L 400.8 94.5 L 400.0 94.5 L 400.0 91.7 L 396.9 91.7 L 396.9 94.5 L 396.1 94.5 L 396.1 88.5 " fill="#000000"/>
<path class="atom-42" d="M 434.0 69.6 L 434.8 69.6 L 434.8 72.1 L 437.9 72.1 L 437.9 69.6 L 438.7 69.6 L 438.7 75.6 L 437.9 75.6 L 437.9 72.8 L 434.8 72.8 L 434.8 75.6 L 434.0 75.6 L 434.0 69.6 " fill="#000000"/>
<path class="atom-43" d="M 470.7 71.8 L 471.5 71.8 L 471.5 74.3 L 474.5 74.3 L 474.5 71.8 L 475.3 71.8 L 475.3 77.8 L 474.5 77.8 L 474.5 75.0 L 471.5 75.0 L 471.5 77.8 L 470.7 77.8 L 470.7 71.8 " fill="#000000"/>
<path class="atom-44" d="M 540.1 139.7 L 540.9 139.7 L 540.9 142.2 L 544.0 142.2 L 544.0 139.7 L 544.8 139.7 L 544.8 145.7 L 544.0 145.7 L 544.0 142.9 L 540.9 142.9 L 540.9 145.7 L 540.1 145.7 L 540.1 139.7 " fill="#000000"/>
<path class="atom-45" d="M 560.7 99.3 L 561.5 99.3 L 561.5 101.8 L 564.6 101.8 L 564.6 99.3 L 565.4 99.3 L 565.4 105.3 L 564.6 105.3 L 564.6 102.5 L 561.5 102.5 L 561.5 105.3 L 560.7 105.3 L 560.7 99.3 " fill="#000000"/>
<path class="atom-46" d="M 544.5 56.1 L 545.3 56.1 L 545.3 58.7 L 548.4 58.7 L 548.4 56.1 L 549.2 56.1 L 549.2 62.1 L 548.4 62.1 L 548.4 59.3 L 545.3 59.3 L 545.3 62.1 L 544.5 62.1 L 544.5 56.1 " fill="#000000"/>
<path class="atom-47" d="M 538.8 160.8 L 539.6 160.8 L 539.6 163.4 L 542.7 163.4 L 542.7 160.8 L 543.5 160.8 L 543.5 166.8 L 542.7 166.8 L 542.7 164.0 L 539.6 164.0 L 539.6 166.8 L 538.8 166.8 L 538.8 160.8 " fill="#000000"/>
<path class="atom-48" d="M 536.3 203.1 L 537.1 203.1 L 537.1 205.7 L 540.1 205.7 L 540.1 203.1 L 541.0 203.1 L 541.0 209.1 L 540.1 209.1 L 540.1 206.3 L 537.1 206.3 L 537.1 209.1 L 536.3 209.1 L 536.3 203.1 " fill="#000000"/>
<path class="atom-49" d="M 507.2 237.9 L 508.0 237.9 L 508.0 240.5 L 511.1 240.5 L 511.1 237.9 L 511.9 237.9 L 511.9 243.9 L 511.1 243.9 L 511.1 241.1 L 508.0 241.1 L 508.0 243.9 L 507.2 243.9 L 507.2 237.9 " fill="#000000"/>
<path class="atom-50" d="M 444.9 196.8 L 445.8 196.8 L 445.8 199.3 L 448.8 199.3 L 448.8 196.8 L 449.6 196.8 L 449.6 202.8 L 448.8 202.8 L 448.8 200.0 L 445.8 200.0 L 445.8 202.8 L 444.9 202.8 L 444.9 196.8 " fill="#000000"/>
<path class="atom-51" d="M 465.5 156.4 L 466.4 156.4 L 466.4 158.9 L 469.4 158.9 L 469.4 156.4 L 470.2 156.4 L 470.2 162.4 L 469.4 162.4 L 469.4 159.6 L 466.4 159.6 L 466.4 162.4 L 465.5 162.4 L 465.5 156.4 " fill="#000000"/>
<path class="atom-52" d="M 466.8 135.2 L 467.6 135.2 L 467.6 137.8 L 470.7 137.8 L 470.7 135.2 L 471.5 135.2 L 471.5 141.2 L 470.7 141.2 L 470.7 138.5 L 467.6 138.5 L 467.6 141.2 L 466.8 141.2 L 466.8 135.2 " fill="#000000"/>
<path class="atom-53" d="M 428.9 154.2 L 429.7 154.2 L 429.7 156.7 L 432.8 156.7 L 432.8 154.2 L 433.6 154.2 L 433.6 160.2 L 432.8 160.2 L 432.8 157.4 L 429.7 157.4 L 429.7 160.2 L 428.9 160.2 L 428.9 154.2 " fill="#000000"/>
<text x="300" y="20" font-size="20" font-family="sans-serif" font-weight="normal" letter-spacing="0" text-anchor="middle" fill="black">syk: CHEMBL3265027 -&gt; CHEMBL3265033</text><text x="300" y="35" font-size="15" font-family="sans-serif" font-weight="normal" letter-spacing="0" text-anchor="middle" fill="black"></text><text x="150" y="285" font-size="15" font-family="sans-serif" font-weight="normal" letter-spacing="0" text-anchor="middle" fill="black">CHEMBL3265027</text><text x="450" y="285" font-size="15" font-family="sans-serif" font-weight="normal" letter-spacing="0" text-anchor="middle" fill="black">CHEMBL3265033</text></svg>
