<?xml version='1.0' encoding='ASCII' standalone='yes'?>
<svg xmlns="http://www.w3.org/2000/svg" xmlns:rdkit="http://www.rdkit.org/xml" xmlns:xlink="http://www.w3.org/1999/xlink" version="1.1" baseProfile="full" xml:space="preserve" width="600px" height="300px" viewBox="0 0 600 300">
<!-- END OF HEADER -->
<rect style="opacity:1.0;fill:#FFFFFF;stroke:none" width="600.0" height="300.0" x="0.0" y="0.0"> </rect>
<ellipse cx="78.5" cy="217.3" rx="7.7" ry="7.3" class="atom-18" style="fill:#DC3369;fill-rule:evenodd;stroke:#DC3369;stroke-width:1.0px;stroke-linecap:butt;stroke-linejoin:miter;stroke-opacity:1"/>
<ellipse cx="173.0" cy="217.3" rx="7.7" ry="7.3" class="atom-22" style="fill:#DC3369;fill-rule:evenodd;stroke:#DC3369;stroke-width:1.0px;stroke-linecap:butt;stroke-linejoin:miter;stroke-opacity:1"/>
<ellipse cx="82.0" cy="63.5" rx="7.3" ry="7.3" class="atom-30" style="fill:#DC3369;fill-rule:evenodd;stroke:#DC3369;stroke-width:1.0px;stroke-linecap:butt;stroke-linejoin:miter;stroke-opacity:1"/>
<ellipse cx="115.3" cy="44.3" rx="7.3" ry="7.3" class="atom-31" style="fill:#DC3369;fill-rule:evenodd;stroke:#DC3369;stroke-width:1.0px;stroke-linecap:butt;stroke-linejoin:miter;stroke-opacity:1"/>
<ellipse cx="82.0" cy="140.4" rx="7.3" ry="7.3" class="atom-32" style="fill:#DC3369;fill-rule:evenodd;stroke:#DC3369;stroke-width:1.0px;stroke-linecap:butt;stroke-linejoin:miter;stroke-opacity:1"/>
<path class="bond-0 atom-0 atom-1" d="M 204.1,121.2 L 181.9,121.2" style="fill:none;fill-rule:evenodd;stroke:#000000;stroke-width:2.0px;stroke-linecap:butt;stroke-linejoin:miter;stroke-opacity:1"/>
<path class="bond-1 atom-0 atom-24" d="M 204.1,121.2 L 204.1,104.4" style="fill:none;fill-rule:evenodd;stroke:#000000;stroke-width:2.0px;stroke-linecap:butt;stroke-linejoin:miter;stroke-opacity:1"/>
<path class="bond-2 atom-0 atom-25" d="M 204.1,121.2 L 218.9,112.6" style="fill:none;fill-rule:evenodd;stroke:#000000;stroke-width:2.0px;stroke-linecap:butt;stroke-linejoin:miter;stroke-opacity:1"/>
<path class="bond-3 atom-0 atom-26" d="M 204.1,121.2 L 212.0,134.9" style="fill:none;fill-rule:evenodd;stroke:#000000;stroke-width:2.0px;stroke-linecap:butt;stroke-linejoin:miter;stroke-opacity:1"/>
<path class="bond-4 atom-1 atom-2" d="M 181.9,121.2 L 178.0,114.4" style="fill:none;fill-rule:evenodd;stroke:#000000;stroke-width:2.0px;stroke-linecap:butt;stroke-linejoin:miter;stroke-opacity:1"/>
<path class="bond-4 atom-1 atom-2" d="M 178.0,114.4 L 174.0,107.6" style="fill:none;fill-rule:evenodd;stroke:#FF0000;stroke-width:2.0px;stroke-linecap:butt;stroke-linejoin:miter;stroke-opacity:1"/>
<path class="bond-5 atom-1 atom-27" d="M 181.9,121.2 L 167.1,129.7" style="fill:none;fill-rule:evenodd;stroke:#000000;stroke-width:2.0px;stroke-linecap:butt;stroke-linejoin:miter;stroke-opacity:1"/>
<path class="bond-6 atom-1 atom-28" d="M 181.9,121.2 L 181.9,137.9" style="fill:none;fill-rule:evenodd;stroke:#000000;stroke-width:2.0px;stroke-linecap:butt;stroke-linejoin:miter;stroke-opacity:1"/>
<path class="bond-7 atom-2 atom-3" d="M 165.7,102.0 L 157.2,102.0" style="fill:none;fill-rule:evenodd;stroke:#FF0000;stroke-width:2.0px;stroke-linecap:butt;stroke-linejoin:miter;stroke-opacity:1"/>
<path class="bond-7 atom-2 atom-3" d="M 157.2,102.0 L 148.6,102.0" style="fill:none;fill-rule:evenodd;stroke:#000000;stroke-width:2.0px;stroke-linecap:butt;stroke-linejoin:miter;stroke-opacity:1"/>
<path class="bond-8 atom-3 atom-9" d="M 148.6,102.0 L 137.5,82.7" style="fill:none;fill-rule:evenodd;stroke:#000000;stroke-width:2.0px;stroke-linecap:butt;stroke-linejoin:miter;stroke-opacity:1"/>
<path class="bond-8 atom-3 atom-9" d="M 143.5,101.1 L 135.7,87.6" style="fill:none;fill-rule:evenodd;stroke:#000000;stroke-width:2.0px;stroke-linecap:butt;stroke-linejoin:miter;stroke-opacity:1"/>
<path class="bond-9 atom-3 atom-4" d="M 148.6,102.0 L 144.6,108.8" style="fill:none;fill-rule:evenodd;stroke:#000000;stroke-width:2.0px;stroke-linecap:butt;stroke-linejoin:miter;stroke-opacity:1"/>
<path class="bond-9 atom-3 atom-4" d="M 144.6,108.8 L 140.6,115.7" style="fill:none;fill-rule:evenodd;stroke:#0000FF;stroke-width:2.0px;stroke-linecap:butt;stroke-linejoin:miter;stroke-opacity:1"/>
<path class="bond-10 atom-4 atom-5" d="M 133.2,121.2 L 124.2,121.2" style="fill:none;fill-rule:evenodd;stroke:#0000FF;stroke-width:2.0px;stroke-linecap:butt;stroke-linejoin:miter;stroke-opacity:1"/>
<path class="bond-10 atom-4 atom-5" d="M 124.2,121.2 L 115.3,121.2" style="fill:none;fill-rule:evenodd;stroke:#000000;stroke-width:2.0px;stroke-linecap:butt;stroke-linejoin:miter;stroke-opacity:1"/>
<path class="bond-10 atom-4 atom-5" d="M 130.5,117.2 L 124.2,117.2" style="fill:none;fill-rule:evenodd;stroke:#0000FF;stroke-width:2.0px;stroke-linecap:butt;stroke-linejoin:miter;stroke-opacity:1"/>
<path class="bond-10 atom-4 atom-5" d="M 124.2,117.2 L 118.0,117.2" style="fill:none;fill-rule:evenodd;stroke:#000000;stroke-width:2.0px;stroke-linecap:butt;stroke-linejoin:miter;stroke-opacity:1"/>
<path class="bond-11 atom-5 atom-6" d="M 115.3,121.2 L 104.2,102.0" style="fill:none;fill-rule:evenodd;stroke:#000000;stroke-width:2.0px;stroke-linecap:butt;stroke-linejoin:miter;stroke-opacity:1"/>
<path class="bond-12 atom-5 atom-12" d="M 115.3,121.2 L 111.3,128.1" style="fill:none;fill-rule:evenodd;stroke:#000000;stroke-width:2.0px;stroke-linecap:butt;stroke-linejoin:miter;stroke-opacity:1"/>
<path class="bond-12 atom-5 atom-12" d="M 111.3,128.1 L 107.3,134.9" style="fill:none;fill-rule:evenodd;stroke:#0000FF;stroke-width:2.0px;stroke-linecap:butt;stroke-linejoin:miter;stroke-opacity:1"/>
<path class="bond-13 atom-6 atom-7" d="M 104.2,102.0 L 115.3,82.7" style="fill:none;fill-rule:evenodd;stroke:#000000;stroke-width:2.0px;stroke-linecap:butt;stroke-linejoin:miter;stroke-opacity:1"/>
<path class="bond-13 atom-6 atom-7" d="M 109.3,101.1 L 117.1,87.6" style="fill:none;fill-rule:evenodd;stroke:#000000;stroke-width:2.0px;stroke-linecap:butt;stroke-linejoin:miter;stroke-opacity:1"/>
<path class="bond-14 atom-6 atom-29" d="M 104.2,102.0 L 86.4,102.0" style="fill:none;fill-rule:evenodd;stroke:#000000;stroke-width:2.0px;stroke-linecap:butt;stroke-linejoin:miter;stroke-opacity:1"/>
<path class="bond-15 atom-7 atom-8" d="M 115.3,82.7 L 111.3,75.8" style="fill:none;fill-rule:evenodd;stroke:#000000;stroke-width:2.0px;stroke-linecap:butt;stroke-linejoin:miter;stroke-opacity:1"/>
<path class="bond-15 atom-7 atom-8" d="M 111.3,75.8 L 107.3,69.0" style="fill:none;fill-rule:evenodd;stroke:#0000FF;stroke-width:2.0px;stroke-linecap:butt;stroke-linejoin:miter;stroke-opacity:1"/>
<path class="bond-16 atom-7 atom-9" d="M 115.3,82.7 L 137.5,82.7" style="fill:none;fill-rule:evenodd;stroke:#000000;stroke-width:2.0px;stroke-linecap:butt;stroke-linejoin:miter;stroke-opacity:1"/>
<path class="bond-17 atom-8 atom-30" d="M 99.9,63.5 L 93.2,63.5" style="fill:none;fill-rule:evenodd;stroke:#0000FF;stroke-width:2.0px;stroke-linecap:butt;stroke-linejoin:miter;stroke-opacity:1"/>
<path class="bond-17 atom-8 atom-30" d="M 93.2,63.5 L 86.4,63.5" style="fill:none;fill-rule:evenodd;stroke:#000000;stroke-width:2.0px;stroke-linecap:butt;stroke-linejoin:miter;stroke-opacity:1"/>
<path class="bond-18 atom-8 atom-31" d="M 107.3,58.1 L 109.7,53.9" style="fill:none;fill-rule:evenodd;stroke:#0000FF;stroke-width:2.0px;stroke-linecap:butt;stroke-linejoin:miter;stroke-opacity:1"/>
<path class="bond-18 atom-8 atom-31" d="M 109.7,53.9 L 112.2,49.7" style="fill:none;fill-rule:evenodd;stroke:#000000;stroke-width:2.0px;stroke-linecap:butt;stroke-linejoin:miter;stroke-opacity:1"/>
<path class="bond-19 atom-9 atom-10" d="M 137.5,82.7 L 148.6,63.5" style="fill:none;fill-rule:evenodd;stroke:#000000;stroke-width:2.0px;stroke-linecap:butt;stroke-linejoin:miter;stroke-opacity:1"/>
<path class="bond-20 atom-10 atom-11" d="M 148.6,63.5 L 152.6,56.6" style="fill:none;fill-rule:evenodd;stroke:#000000;stroke-width:2.0px;stroke-linecap:butt;stroke-linejoin:miter;stroke-opacity:1"/>
<path class="bond-20 atom-10 atom-11" d="M 152.6,56.6 L 156.5,49.7" style="fill:none;fill-rule:evenodd;stroke:#0000FF;stroke-width:2.0px;stroke-linecap:butt;stroke-linejoin:miter;stroke-opacity:1"/>
<path class="bond-20 atom-10 atom-11" d="M 146.3,59.5 L 149.7,53.6" style="fill:none;fill-rule:evenodd;stroke:#000000;stroke-width:2.0px;stroke-linecap:butt;stroke-linejoin:miter;stroke-opacity:1"/>
<path class="bond-20 atom-10 atom-11" d="M 149.7,53.6 L 153.1,47.7" style="fill:none;fill-rule:evenodd;stroke:#0000FF;stroke-width:2.0px;stroke-linecap:butt;stroke-linejoin:miter;stroke-opacity:1"/>
<path class="bond-20 atom-10 atom-11" d="M 153.2,63.4 L 156.6,57.6" style="fill:none;fill-rule:evenodd;stroke:#000000;stroke-width:2.0px;stroke-linecap:butt;stroke-linejoin:miter;stroke-opacity:1"/>
<path class="bond-20 atom-10 atom-11" d="M 156.6,57.6 L 160.0,51.7" style="fill:none;fill-rule:evenodd;stroke:#0000FF;stroke-width:2.0px;stroke-linecap:butt;stroke-linejoin:miter;stroke-opacity:1"/>
<path class="bond-21 atom-12 atom-13" d="M 107.3,145.8 L 111.3,152.7" style="fill:none;fill-rule:evenodd;stroke:#0000FF;stroke-width:2.0px;stroke-linecap:butt;stroke-linejoin:miter;stroke-opacity:1"/>
<path class="bond-21 atom-12 atom-13" d="M 111.3,152.7 L 115.3,159.6" style="fill:none;fill-rule:evenodd;stroke:#000000;stroke-width:2.0px;stroke-linecap:butt;stroke-linejoin:miter;stroke-opacity:1"/>
<path class="bond-22 atom-12 atom-32" d="M 99.9,140.4 L 93.2,140.4" style="fill:none;fill-rule:evenodd;stroke:#0000FF;stroke-width:2.0px;stroke-linecap:butt;stroke-linejoin:miter;stroke-opacity:1"/>
<path class="bond-22 atom-12 atom-32" d="M 93.2,140.4 L 86.4,140.4" style="fill:none;fill-rule:evenodd;stroke:#000000;stroke-width:2.0px;stroke-linecap:butt;stroke-linejoin:miter;stroke-opacity:1"/>
<path class="bond-23 atom-13 atom-14" d="M 115.3,157.6 L 123.9,157.6" style="fill:none;fill-rule:evenodd;stroke:#000000;stroke-width:2.0px;stroke-linecap:butt;stroke-linejoin:miter;stroke-opacity:1"/>
<path class="bond-23 atom-13 atom-14" d="M 123.9,157.6 L 132.4,157.6" style="fill:none;fill-rule:evenodd;stroke:#FF0000;stroke-width:2.0px;stroke-linecap:butt;stroke-linejoin:miter;stroke-opacity:1"/>
<path class="bond-23 atom-13 atom-14" d="M 115.3,161.6 L 123.9,161.6" style="fill:none;fill-rule:evenodd;stroke:#000000;stroke-width:2.0px;stroke-linecap:butt;stroke-linejoin:miter;stroke-opacity:1"/>
<path class="bond-23 atom-13 atom-14" d="M 123.9,161.6 L 132.4,161.6" style="fill:none;fill-rule:evenodd;stroke:#FF0000;stroke-width:2.0px;stroke-linecap:butt;stroke-linejoin:miter;stroke-opacity:1"/>
<path class="bond-24 atom-13 atom-15" d="M 115.3,159.6 L 104.2,178.8" style="fill:none;fill-rule:evenodd;stroke:#000000;stroke-width:2.0px;stroke-linecap:butt;stroke-linejoin:miter;stroke-opacity:1"/>
<path class="bond-25 atom-15 atom-16" d="M 104.2,178.8 L 115.3,198.0" style="fill:none;fill-rule:evenodd;stroke:#000000;stroke-width:2.0px;stroke-linecap:butt;stroke-linejoin:miter;stroke-opacity:1"/>
<path class="bond-26 atom-15 atom-33" d="M 104.2,178.8 L 89.4,187.4" style="fill:none;fill-rule:evenodd;stroke:#000000;stroke-width:2.0px;stroke-linecap:butt;stroke-linejoin:miter;stroke-opacity:1"/>
<path class="bond-27 atom-15 atom-34" d="M 104.2,178.8 L 89.4,170.3" style="fill:none;fill-rule:evenodd;stroke:#000000;stroke-width:2.0px;stroke-linecap:butt;stroke-linejoin:miter;stroke-opacity:1"/>
<path class="bond-28 atom-16 atom-23" d="M 115.3,198.0 L 137.5,198.0" style="fill:none;fill-rule:evenodd;stroke:#000000;stroke-width:2.0px;stroke-linecap:butt;stroke-linejoin:miter;stroke-opacity:1"/>
<path class="bond-29 atom-16 atom-17" d="M 115.3,198.0 L 104.2,217.3" style="fill:none;fill-rule:evenodd;stroke:#000000;stroke-width:2.0px;stroke-linecap:butt;stroke-linejoin:miter;stroke-opacity:1"/>
<path class="bond-29 atom-16 atom-17" d="M 117.1,202.9 L 109.3,216.4" style="fill:none;fill-rule:evenodd;stroke:#000000;stroke-width:2.0px;stroke-linecap:butt;stroke-linejoin:miter;stroke-opacity:1"/>
<path class="bond-30 atom-17 atom-18" d="M 104.2,217.3 L 94.5,217.3" style="fill:none;fill-rule:evenodd;stroke:#000000;stroke-width:2.0px;stroke-linecap:butt;stroke-linejoin:miter;stroke-opacity:1"/>
<path class="bond-30 atom-17 atom-18" d="M 94.5,217.3 L 84.7,217.3" style="fill:none;fill-rule:evenodd;stroke:#7F4C19;stroke-width:2.0px;stroke-linecap:butt;stroke-linejoin:miter;stroke-opacity:1"/>
<path class="bond-31 atom-17 atom-19" d="M 104.2,217.3 L 115.3,236.5" style="fill:none;fill-rule:evenodd;stroke:#000000;stroke-width:2.0px;stroke-linecap:butt;stroke-linejoin:miter;stroke-opacity:1"/>
<path class="bond-32 atom-19 atom-20" d="M 115.3,236.5 L 137.5,236.5" style="fill:none;fill-rule:evenodd;stroke:#000000;stroke-width:2.0px;stroke-linecap:butt;stroke-linejoin:miter;stroke-opacity:1"/>
<path class="bond-32 atom-19 atom-20" d="M 118.6,232.5 L 134.2,232.5" style="fill:none;fill-rule:evenodd;stroke:#000000;stroke-width:2.0px;stroke-linecap:butt;stroke-linejoin:miter;stroke-opacity:1"/>
<path class="bond-33 atom-19 atom-35" d="M 115.3,236.5 L 107.3,250.3" style="fill:none;fill-rule:evenodd;stroke:#000000;stroke-width:2.0px;stroke-linecap:butt;stroke-linejoin:miter;stroke-opacity:1"/>
<path class="bond-34 atom-20 atom-21" d="M 137.5,236.5 L 148.6,217.3" style="fill:none;fill-rule:evenodd;stroke:#000000;stroke-width:2.0px;stroke-linecap:butt;stroke-linejoin:miter;stroke-opacity:1"/>
<path class="bond-35 atom-20 atom-36" d="M 137.5,236.5 L 145.4,250.3" style="fill:none;fill-rule:evenodd;stroke:#000000;stroke-width:2.0px;stroke-linecap:butt;stroke-linejoin:miter;stroke-opacity:1"/>
<path class="bond-36 atom-21 atom-22" d="M 148.6,217.3 L 157.7,217.3" style="fill:none;fill-rule:evenodd;stroke:#000000;stroke-width:2.0px;stroke-linecap:butt;stroke-linejoin:miter;stroke-opacity:1"/>
<path class="bond-36 atom-21 atom-22" d="M 157.7,217.3 L 166.8,217.3" style="fill:none;fill-rule:evenodd;stroke:#7F4C19;stroke-width:2.0px;stroke-linecap:butt;stroke-linejoin:miter;stroke-opacity:1"/>
<path class="bond-37 atom-21 atom-23" d="M 148.6,217.3 L 137.5,198.0" style="fill:none;fill-rule:evenodd;stroke:#000000;stroke-width:2.0px;stroke-linecap:butt;stroke-linejoin:miter;stroke-opacity:1"/>
<path class="bond-37 atom-21 atom-23" d="M 143.5,216.4 L 135.7,202.9" style="fill:none;fill-rule:evenodd;stroke:#000000;stroke-width:2.0px;stroke-linecap:butt;stroke-linejoin:miter;stroke-opacity:1"/>
<path class="bond-38 atom-23 atom-37" d="M 137.5,198.0 L 145.4,184.3" style="fill:none;fill-rule:evenodd;stroke:#000000;stroke-width:2.0px;stroke-linecap:butt;stroke-linejoin:miter;stroke-opacity:1"/>
<path class="atom-2" d="M 166.5 102.0 Q 166.5 99.7, 167.6 98.5 Q 168.7 97.2, 170.8 97.2 Q 172.9 97.2, 174.0 98.5 Q 175.1 99.7, 175.1 102.0 Q 175.1 104.3, 174.0 105.6 Q 172.8 106.9, 170.8 106.9 Q 168.7 106.9, 167.6 105.6 Q 166.5 104.3, 166.5 102.0 M 170.8 105.8 Q 172.2 105.8, 173.0 104.8 Q 173.8 103.9, 173.8 102.0 Q 173.8 100.1, 173.0 99.2 Q 172.2 98.3, 170.8 98.3 Q 169.3 98.3, 168.6 99.2 Q 167.8 100.1, 167.8 102.0 Q 167.8 103.9, 168.6 104.8 Q 169.3 105.8, 170.8 105.8 " fill="#FF0000"/>
<path class="atom-4" d="M 135.4 116.5 L 138.5 121.5 Q 138.8 121.9, 139.3 122.8 Q 139.8 123.7, 139.8 123.8 L 139.8 116.5 L 141.1 116.5 L 141.1 125.9 L 139.8 125.9 L 136.5 120.4 Q 136.1 119.8, 135.7 119.1 Q 135.3 118.3, 135.1 118.1 L 135.1 125.9 L 133.9 125.9 L 133.9 116.5 L 135.4 116.5 " fill="#0000FF"/>
<path class="atom-8" d="M 102.1 58.8 L 105.2 63.8 Q 105.5 64.3, 106.0 65.2 Q 106.5 66.1, 106.5 66.1 L 106.5 58.8 L 107.8 58.8 L 107.8 68.2 L 106.5 68.2 L 103.2 62.8 Q 102.8 62.1, 102.4 61.4 Q 102.0 60.7, 101.8 60.4 L 101.8 68.2 L 100.6 68.2 L 100.6 58.8 L 102.1 58.8 " fill="#0000FF"/>
<path class="atom-11" d="M 157.6 39.6 L 160.7 44.6 Q 161.0 45.1, 161.5 46.0 Q 162.0 46.9, 162.0 46.9 L 162.0 39.6 L 163.3 39.6 L 163.3 49.0 L 162.0 49.0 L 158.6 43.6 Q 158.3 42.9, 157.9 42.2 Q 157.5 41.4, 157.3 41.2 L 157.3 49.0 L 156.1 49.0 L 156.1 39.6 L 157.6 39.6 " fill="#0000FF"/>
<path class="atom-12" d="M 102.1 135.7 L 105.2 140.7 Q 105.5 141.2, 106.0 142.1 Q 106.5 142.9, 106.5 143.0 L 106.5 135.7 L 107.8 135.7 L 107.8 145.1 L 106.5 145.1 L 103.2 139.6 Q 102.8 139.0, 102.4 138.3 Q 102.0 137.5, 101.8 137.3 L 101.8 145.1 L 100.6 145.1 L 100.6 135.7 L 102.1 135.7 " fill="#0000FF"/>
<path class="atom-14" d="M 133.2 159.6 Q 133.2 157.4, 134.3 156.1 Q 135.4 154.8, 137.5 154.8 Q 139.6 154.8, 140.7 156.1 Q 141.8 157.4, 141.8 159.6 Q 141.8 161.9, 140.7 163.2 Q 139.6 164.5, 137.5 164.5 Q 135.4 164.5, 134.3 163.2 Q 133.2 161.9, 133.2 159.6 M 137.5 163.5 Q 138.9 163.5, 139.7 162.5 Q 140.5 161.5, 140.5 159.6 Q 140.5 157.8, 139.7 156.9 Q 138.9 155.9, 137.5 155.9 Q 136.1 155.9, 135.3 156.8 Q 134.5 157.8, 134.5 159.6 Q 134.5 161.5, 135.3 162.5 Q 136.1 163.5, 137.5 163.5 " fill="#FF0000"/>
<path class="atom-18" d="M 77.6 217.0 Q 78.5 217.3, 79.0 217.8 Q 79.4 218.4, 79.4 219.2 Q 79.4 220.5, 78.6 221.2 Q 77.8 222.0, 76.2 222.0 L 73.0 222.0 L 73.0 212.6 L 75.8 212.6 Q 77.4 212.6, 78.2 213.2 Q 79.0 213.9, 79.0 215.1 Q 79.0 216.5, 77.6 217.0 M 74.3 213.6 L 74.3 216.6 L 75.8 216.6 Q 76.7 216.6, 77.2 216.2 Q 77.7 215.8, 77.7 215.1 Q 77.7 213.6, 75.8 213.6 L 74.3 213.6 M 76.2 220.9 Q 77.1 220.9, 77.6 220.5 Q 78.1 220.0, 78.1 219.2 Q 78.1 218.4, 77.6 218.0 Q 77.0 217.6, 76.0 217.6 L 74.3 217.6 L 74.3 220.9 L 76.2 220.9 " fill="#7F4C19"/>
<path class="atom-18" d="M 81.1 215.1 L 81.2 216.1 Q 81.9 215.0, 83.1 215.0 Q 83.5 215.0, 84.0 215.1 L 83.8 216.3 Q 83.2 216.1, 82.9 216.1 Q 82.3 216.1, 81.9 216.4 Q 81.6 216.6, 81.3 217.1 L 81.3 222.0 L 80.0 222.0 L 80.0 215.1 L 81.1 215.1 " fill="#7F4C19"/>
<path class="atom-22" d="M 172.2 217.0 Q 173.1 217.3, 173.5 217.8 Q 174.0 218.4, 174.0 219.2 Q 174.0 220.5, 173.1 221.2 Q 172.3 222.0, 170.7 222.0 L 167.6 222.0 L 167.6 212.6 L 170.4 212.6 Q 172.0 212.6, 172.8 213.2 Q 173.6 213.9, 173.6 215.1 Q 173.6 216.5, 172.2 217.0 M 168.8 213.6 L 168.8 216.6 L 170.4 216.6 Q 171.3 216.6, 171.8 216.2 Q 172.3 215.8, 172.3 215.1 Q 172.3 213.6, 170.4 213.6 L 168.8 213.6 M 170.7 220.9 Q 171.7 220.9, 172.2 220.5 Q 172.6 220.0, 172.6 219.2 Q 172.6 218.4, 172.1 218.0 Q 171.6 217.6, 170.5 217.6 L 168.8 217.6 L 168.8 220.9 L 170.7 220.9 " fill="#7F4C19"/>
<path class="atom-22" d="M 175.6 215.1 L 175.8 216.1 Q 176.5 215.0, 177.6 215.0 Q 178.0 215.0, 178.5 215.1 L 178.3 216.3 Q 177.7 216.1, 177.4 216.1 Q 176.9 216.1, 176.5 216.4 Q 176.1 216.6, 175.8 217.1 L 175.8 222.0 L 174.6 222.0 L 174.6 215.1 L 175.6 215.1 " fill="#7F4C19"/>
<path class="atom-24" d="M 200.4 94.3 L 201.7 94.3 L 201.7 98.3 L 206.5 98.3 L 206.5 94.3 L 207.8 94.3 L 207.8 103.7 L 206.5 103.7 L 206.5 99.3 L 201.7 99.3 L 201.7 103.7 L 200.4 103.7 L 200.4 94.3 " fill="#000000"/>
<path class="atom-25" d="M 219.6 105.4 L 220.9 105.4 L 220.9 109.4 L 225.7 109.4 L 225.7 105.4 L 227.0 105.4 L 227.0 114.8 L 225.7 114.8 L 225.7 110.4 L 220.9 110.4 L 220.9 114.8 L 219.6 114.8 L 219.6 105.4 " fill="#000000"/>
<path class="atom-26" d="M 211.5 135.7 L 212.8 135.7 L 212.8 139.7 L 217.6 139.7 L 217.6 135.7 L 218.9 135.7 L 218.9 145.1 L 217.6 145.1 L 217.6 140.8 L 212.8 140.8 L 212.8 145.1 L 211.5 145.1 L 211.5 135.7 " fill="#000000"/>
<path class="atom-27" d="M 159.0 127.6 L 160.2 127.6 L 160.2 131.6 L 165.1 131.6 L 165.1 127.6 L 166.3 127.6 L 166.3 137.0 L 165.1 137.0 L 165.1 132.6 L 160.2 132.6 L 160.2 137.0 L 159.0 137.0 L 159.0 127.6 " fill="#000000"/>
<path class="atom-28" d="M 178.2 138.7 L 179.5 138.7 L 179.5 142.7 L 184.3 142.7 L 184.3 138.7 L 185.6 138.7 L 185.6 148.1 L 184.3 148.1 L 184.3 143.7 L 179.5 143.7 L 179.5 148.1 L 178.2 148.1 L 178.2 138.7 " fill="#000000"/>
<path class="atom-29" d="M 78.3 97.2 L 79.6 97.2 L 79.6 101.2 L 84.4 101.2 L 84.4 97.2 L 85.7 97.2 L 85.7 106.7 L 84.4 106.7 L 84.4 102.3 L 79.6 102.3 L 79.6 106.7 L 78.3 106.7 L 78.3 97.2 " fill="#000000"/>
<path class="atom-30" d="M 78.3 58.8 L 79.6 58.8 L 79.6 62.8 L 84.4 62.8 L 84.4 58.8 L 85.7 58.8 L 85.7 68.2 L 84.4 68.2 L 84.4 63.9 L 79.6 63.9 L 79.6 68.2 L 78.3 68.2 L 78.3 58.8 " fill="#000000"/>
<path class="atom-31" d="M 111.6 39.6 L 112.9 39.6 L 112.9 43.6 L 117.7 43.6 L 117.7 39.6 L 119.0 39.6 L 119.0 49.0 L 117.7 49.0 L 117.7 44.7 L 112.9 44.7 L 112.9 49.0 L 111.6 49.0 L 111.6 39.6 " fill="#000000"/>
<path class="atom-32" d="M 78.3 135.7 L 79.6 135.7 L 79.6 139.7 L 84.4 139.7 L 84.4 135.7 L 85.7 135.7 L 85.7 145.1 L 84.4 145.1 L 84.4 140.8 L 79.6 140.8 L 79.6 145.1 L 78.3 145.1 L 78.3 135.7 " fill="#000000"/>
<path class="atom-33" d="M 81.3 185.2 L 82.6 185.2 L 82.6 189.2 L 87.4 189.2 L 87.4 185.2 L 88.7 185.2 L 88.7 194.6 L 87.4 194.6 L 87.4 190.3 L 82.6 190.3 L 82.6 194.6 L 81.3 194.6 L 81.3 185.2 " fill="#000000"/>
<path class="atom-34" d="M 81.3 163.0 L 82.6 163.0 L 82.6 167.0 L 87.4 167.0 L 87.4 163.0 L 88.7 163.0 L 88.7 172.4 L 87.4 172.4 L 87.4 168.1 L 82.6 168.1 L 82.6 172.4 L 81.3 172.4 L 81.3 163.0 " fill="#000000"/>
<path class="atom-35" d="M 100.5 251.0 L 101.8 251.0 L 101.8 255.0 L 106.6 255.0 L 106.6 251.0 L 107.9 251.0 L 107.9 260.4 L 106.6 260.4 L 106.6 256.1 L 101.8 256.1 L 101.8 260.4 L 100.5 260.4 L 100.5 251.0 " fill="#000000"/>
<path class="atom-36" d="M 144.9 251.0 L 146.2 251.0 L 146.2 255.0 L 151.0 255.0 L 151.0 251.0 L 152.3 251.0 L 152.3 260.4 L 151.0 260.4 L 151.0 256.1 L 146.2 256.1 L 146.2 260.4 L 144.9 260.4 L 144.9 251.0 " fill="#000000"/>
<path class="atom-37" d="M 144.9 174.1 L 146.2 174.1 L 146.2 178.1 L 151.0 178.1 L 151.0 174.1 L 152.3 174.1 L 152.3 183.5 L 151.0 183.5 L 151.0 179.2 L 146.2 179.2 L 146.2 183.5 L 144.9 183.5 L 144.9 174.1 " fill="#000000"/>
<ellipse cx="379.4" cy="58.5" rx="7.3" ry="7.3" class="atom-28" style="fill:#DC3369;fill-rule:evenodd;stroke:#DC3369;stroke-width:1.0px;stroke-linecap:butt;stroke-linejoin:miter;stroke-opacity:1"/>
<ellipse cx="412.6" cy="39.3" rx="7.3" ry="7.3" class="atom-29" style="fill:#DC3369;fill-rule:evenodd;stroke:#DC3369;stroke-width:1.0px;stroke-linecap:butt;stroke-linejoin:miter;stroke-opacity:1"/>
<ellipse cx="379.4" cy="135.4" rx="7.3" ry="7.3" class="atom-30" style="fill:#DC3369;fill-rule:evenodd;stroke:#DC3369;stroke-width:1.0px;stroke-linecap:butt;stroke-linejoin:miter;stroke-opacity:1"/>
<ellipse cx="401.6" cy="250.7" rx="7.3" ry="7.3" class="atom-34" style="fill:#DC3369;fill-rule:evenodd;stroke:#DC3369;stroke-width:1.0px;stroke-linecap:butt;stroke-linejoin:miter;stroke-opacity:1"/>
<ellipse cx="445.9" cy="173.9" rx="7.3" ry="7.3" class="atom-37" style="fill:#DC3369;fill-rule:evenodd;stroke:#DC3369;stroke-width:1.0px;stroke-linecap:butt;stroke-linejoin:miter;stroke-opacity:1"/>
<path class="bond-0 atom-0 atom-1" d="M 501.4,116.2 L 479.2,116.2" style="fill:none;fill-rule:evenodd;stroke:#000000;stroke-width:2.0px;stroke-linecap:butt;stroke-linejoin:miter;stroke-opacity:1"/>
<path class="bond-1 atom-0 atom-22" d="M 501.4,116.2 L 501.4,99.5" style="fill:none;fill-rule:evenodd;stroke:#000000;stroke-width:2.0px;stroke-linecap:butt;stroke-linejoin:miter;stroke-opacity:1"/>
<path class="bond-2 atom-0 atom-23" d="M 501.4,116.2 L 516.2,107.7" style="fill:none;fill-rule:evenodd;stroke:#000000;stroke-width:2.0px;stroke-linecap:butt;stroke-linejoin:miter;stroke-opacity:1"/>
<path class="bond-3 atom-0 atom-24" d="M 501.4,116.2 L 509.4,130.0" style="fill:none;fill-rule:evenodd;stroke:#000000;stroke-width:2.0px;stroke-linecap:butt;stroke-linejoin:miter;stroke-opacity:1"/>
<path class="bond-4 atom-1 atom-2" d="M 479.2,116.2 L 475.3,109.4" style="fill:none;fill-rule:evenodd;stroke:#000000;stroke-width:2.0px;stroke-linecap:butt;stroke-linejoin:miter;stroke-opacity:1"/>
<path class="bond-4 atom-1 atom-2" d="M 475.3,109.4 L 471.4,102.6" style="fill:none;fill-rule:evenodd;stroke:#FF0000;stroke-width:2.0px;stroke-linecap:butt;stroke-linejoin:miter;stroke-opacity:1"/>
<path class="bond-5 atom-1 atom-25" d="M 479.2,116.2 L 464.4,124.7" style="fill:none;fill-rule:evenodd;stroke:#000000;stroke-width:2.0px;stroke-linecap:butt;stroke-linejoin:miter;stroke-opacity:1"/>
<path class="bond-6 atom-1 atom-26" d="M 479.2,116.2 L 479.2,133.0" style="fill:none;fill-rule:evenodd;stroke:#000000;stroke-width:2.0px;stroke-linecap:butt;stroke-linejoin:miter;stroke-opacity:1"/>
<path class="bond-7 atom-2 atom-3" d="M 463.1,97.0 L 454.5,97.0" style="fill:none;fill-rule:evenodd;stroke:#FF0000;stroke-width:2.0px;stroke-linecap:butt;stroke-linejoin:miter;stroke-opacity:1"/>
<path class="bond-7 atom-2 atom-3" d="M 454.5,97.0 L 445.9,97.0" style="fill:none;fill-rule:evenodd;stroke:#000000;stroke-width:2.0px;stroke-linecap:butt;stroke-linejoin:miter;stroke-opacity:1"/>
<path class="bond-8 atom-3 atom-9" d="M 445.9,97.0 L 434.8,77.8" style="fill:none;fill-rule:evenodd;stroke:#000000;stroke-width:2.0px;stroke-linecap:butt;stroke-linejoin:miter;stroke-opacity:1"/>
<path class="bond-8 atom-3 atom-9" d="M 440.8,96.1 L 433.0,82.6" style="fill:none;fill-rule:evenodd;stroke:#000000;stroke-width:2.0px;stroke-linecap:butt;stroke-linejoin:miter;stroke-opacity:1"/>
<path class="bond-9 atom-3 atom-4" d="M 445.9,97.0 L 442.0,103.9" style="fill:none;fill-rule:evenodd;stroke:#000000;stroke-width:2.0px;stroke-linecap:butt;stroke-linejoin:miter;stroke-opacity:1"/>
<path class="bond-9 atom-3 atom-4" d="M 442.0,103.9 L 438.0,110.8" style="fill:none;fill-rule:evenodd;stroke:#0000FF;stroke-width:2.0px;stroke-linecap:butt;stroke-linejoin:miter;stroke-opacity:1"/>
<path class="bond-10 atom-4 atom-5" d="M 430.5,116.2 L 421.6,116.2" style="fill:none;fill-rule:evenodd;stroke:#0000FF;stroke-width:2.0px;stroke-linecap:butt;stroke-linejoin:miter;stroke-opacity:1"/>
<path class="bond-10 atom-4 atom-5" d="M 421.6,116.2 L 412.6,116.2" style="fill:none;fill-rule:evenodd;stroke:#000000;stroke-width:2.0px;stroke-linecap:butt;stroke-linejoin:miter;stroke-opacity:1"/>
<path class="bond-10 atom-4 atom-5" d="M 427.9,112.2 L 421.6,112.2" style="fill:none;fill-rule:evenodd;stroke:#0000FF;stroke-width:2.0px;stroke-linecap:butt;stroke-linejoin:miter;stroke-opacity:1"/>
<path class="bond-10 atom-4 atom-5" d="M 421.6,112.2 L 415.3,112.2" style="fill:none;fill-rule:evenodd;stroke:#000000;stroke-width:2.0px;stroke-linecap:butt;stroke-linejoin:miter;stroke-opacity:1"/>
<path class="bond-11 atom-5 atom-6" d="M 412.6,116.2 L 401.6,97.0" style="fill:none;fill-rule:evenodd;stroke:#000000;stroke-width:2.0px;stroke-linecap:butt;stroke-linejoin:miter;stroke-opacity:1"/>
<path class="bond-12 atom-5 atom-12" d="M 412.6,116.2 L 408.7,123.1" style="fill:none;fill-rule:evenodd;stroke:#000000;stroke-width:2.0px;stroke-linecap:butt;stroke-linejoin:miter;stroke-opacity:1"/>
<path class="bond-12 atom-5 atom-12" d="M 408.7,123.1 L 404.7,130.0" style="fill:none;fill-rule:evenodd;stroke:#0000FF;stroke-width:2.0px;stroke-linecap:butt;stroke-linejoin:miter;stroke-opacity:1"/>
<path class="bond-13 atom-6 atom-7" d="M 401.6,97.0 L 412.6,77.8" style="fill:none;fill-rule:evenodd;stroke:#000000;stroke-width:2.0px;stroke-linecap:butt;stroke-linejoin:miter;stroke-opacity:1"/>
<path class="bond-13 atom-6 atom-7" d="M 406.7,96.1 L 414.4,82.6" style="fill:none;fill-rule:evenodd;stroke:#000000;stroke-width:2.0px;stroke-linecap:butt;stroke-linejoin:miter;stroke-opacity:1"/>
<path class="bond-14 atom-6 atom-27" d="M 401.6,97.0 L 383.8,97.0" style="fill:none;fill-rule:evenodd;stroke:#000000;stroke-width:2.0px;stroke-linecap:butt;stroke-linejoin:miter;stroke-opacity:1"/>
<path class="bond-15 atom-7 atom-8" d="M 412.6,77.8 L 408.7,70.9" style="fill:none;fill-rule:evenodd;stroke:#000000;stroke-width:2.0px;stroke-linecap:butt;stroke-linejoin:miter;stroke-opacity:1"/>
<path class="bond-15 atom-7 atom-8" d="M 408.7,70.9 L 404.7,64.0" style="fill:none;fill-rule:evenodd;stroke:#0000FF;stroke-width:2.0px;stroke-linecap:butt;stroke-linejoin:miter;stroke-opacity:1"/>
<path class="bond-16 atom-7 atom-9" d="M 412.6,77.8 L 434.8,77.8" style="fill:none;fill-rule:evenodd;stroke:#000000;stroke-width:2.0px;stroke-linecap:butt;stroke-linejoin:miter;stroke-opacity:1"/>
<path class="bond-17 atom-8 atom-28" d="M 397.2,58.5 L 390.5,58.5" style="fill:none;fill-rule:evenodd;stroke:#0000FF;stroke-width:2.0px;stroke-linecap:butt;stroke-linejoin:miter;stroke-opacity:1"/>
<path class="bond-17 atom-8 atom-28" d="M 390.5,58.5 L 383.8,58.5" style="fill:none;fill-rule:evenodd;stroke:#000000;stroke-width:2.0px;stroke-linecap:butt;stroke-linejoin:miter;stroke-opacity:1"/>
<path class="bond-18 atom-8 atom-29" d="M 404.7,53.1 L 407.1,48.9" style="fill:none;fill-rule:evenodd;stroke:#0000FF;stroke-width:2.0px;stroke-linecap:butt;stroke-linejoin:miter;stroke-opacity:1"/>
<path class="bond-18 atom-8 atom-29" d="M 407.1,48.9 L 409.5,44.8" style="fill:none;fill-rule:evenodd;stroke:#000000;stroke-width:2.0px;stroke-linecap:butt;stroke-linejoin:miter;stroke-opacity:1"/>
<path class="bond-19 atom-9 atom-10" d="M 434.8,77.8 L 445.9,58.5" style="fill:none;fill-rule:evenodd;stroke:#000000;stroke-width:2.0px;stroke-linecap:butt;stroke-linejoin:miter;stroke-opacity:1"/>
<path class="bond-20 atom-10 atom-11" d="M 445.9,58.5 L 449.9,51.7" style="fill:none;fill-rule:evenodd;stroke:#000000;stroke-width:2.0px;stroke-linecap:butt;stroke-linejoin:miter;stroke-opacity:1"/>
<path class="bond-20 atom-10 atom-11" d="M 449.9,51.7 L 453.9,44.8" style="fill:none;fill-rule:evenodd;stroke:#0000FF;stroke-width:2.0px;stroke-linecap:butt;stroke-linejoin:miter;stroke-opacity:1"/>
<path class="bond-20 atom-10 atom-11" d="M 443.7,54.5 L 447.1,48.6" style="fill:none;fill-rule:evenodd;stroke:#000000;stroke-width:2.0px;stroke-linecap:butt;stroke-linejoin:miter;stroke-opacity:1"/>
<path class="bond-20 atom-10 atom-11" d="M 447.1,48.6 L 450.4,42.8" style="fill:none;fill-rule:evenodd;stroke:#0000FF;stroke-width:2.0px;stroke-linecap:butt;stroke-linejoin:miter;stroke-opacity:1"/>
<path class="bond-20 atom-10 atom-11" d="M 450.6,58.5 L 454.0,52.6" style="fill:none;fill-rule:evenodd;stroke:#000000;stroke-width:2.0px;stroke-linecap:butt;stroke-linejoin:miter;stroke-opacity:1"/>
<path class="bond-20 atom-10 atom-11" d="M 454.0,52.6 L 457.4,46.8" style="fill:none;fill-rule:evenodd;stroke:#0000FF;stroke-width:2.0px;stroke-linecap:butt;stroke-linejoin:miter;stroke-opacity:1"/>
<path class="bond-21 atom-12 atom-13" d="M 404.7,140.9 L 408.7,147.8" style="fill:none;fill-rule:evenodd;stroke:#0000FF;stroke-width:2.0px;stroke-linecap:butt;stroke-linejoin:miter;stroke-opacity:1"/>
<path class="bond-21 atom-12 atom-13" d="M 408.7,147.8 L 412.6,154.6" style="fill:none;fill-rule:evenodd;stroke:#000000;stroke-width:2.0px;stroke-linecap:butt;stroke-linejoin:miter;stroke-opacity:1"/>
<path class="bond-22 atom-12 atom-30" d="M 397.2,135.4 L 390.5,135.4" style="fill:none;fill-rule:evenodd;stroke:#0000FF;stroke-width:2.0px;stroke-linecap:butt;stroke-linejoin:miter;stroke-opacity:1"/>
<path class="bond-22 atom-12 atom-30" d="M 390.5,135.4 L 383.8,135.4" style="fill:none;fill-rule:evenodd;stroke:#000000;stroke-width:2.0px;stroke-linecap:butt;stroke-linejoin:miter;stroke-opacity:1"/>
<path class="bond-23 atom-13 atom-14" d="M 412.6,152.6 L 421.2,152.6" style="fill:none;fill-rule:evenodd;stroke:#000000;stroke-width:2.0px;stroke-linecap:butt;stroke-linejoin:miter;stroke-opacity:1"/>
<path class="bond-23 atom-13 atom-14" d="M 421.2,152.6 L 429.8,152.6" style="fill:none;fill-rule:evenodd;stroke:#FF0000;stroke-width:2.0px;stroke-linecap:butt;stroke-linejoin:miter;stroke-opacity:1"/>
<path class="bond-23 atom-13 atom-14" d="M 412.6,156.6 L 421.2,156.6" style="fill:none;fill-rule:evenodd;stroke:#000000;stroke-width:2.0px;stroke-linecap:butt;stroke-linejoin:miter;stroke-opacity:1"/>
<path class="bond-23 atom-13 atom-14" d="M 421.2,156.6 L 429.8,156.6" style="fill:none;fill-rule:evenodd;stroke:#FF0000;stroke-width:2.0px;stroke-linecap:butt;stroke-linejoin:miter;stroke-opacity:1"/>
<path class="bond-24 atom-13 atom-15" d="M 412.6,154.6 L 401.6,173.9" style="fill:none;fill-rule:evenodd;stroke:#000000;stroke-width:2.0px;stroke-linecap:butt;stroke-linejoin:miter;stroke-opacity:1"/>
<path class="bond-25 atom-15 atom-16" d="M 401.6,173.9 L 412.6,193.1" style="fill:none;fill-rule:evenodd;stroke:#000000;stroke-width:2.0px;stroke-linecap:butt;stroke-linejoin:miter;stroke-opacity:1"/>
<path class="bond-26 atom-15 atom-31" d="M 401.6,173.9 L 386.8,182.4" style="fill:none;fill-rule:evenodd;stroke:#000000;stroke-width:2.0px;stroke-linecap:butt;stroke-linejoin:miter;stroke-opacity:1"/>
<path class="bond-27 atom-15 atom-32" d="M 401.6,173.9 L 386.8,165.3" style="fill:none;fill-rule:evenodd;stroke:#000000;stroke-width:2.0px;stroke-linecap:butt;stroke-linejoin:miter;stroke-opacity:1"/>
<path class="bond-28 atom-16 atom-21" d="M 412.6,193.1 L 434.8,193.1" style="fill:none;fill-rule:evenodd;stroke:#000000;stroke-width:2.0px;stroke-linecap:butt;stroke-linejoin:miter;stroke-opacity:1"/>
<path class="bond-29 atom-16 atom-17" d="M 412.6,193.1 L 401.6,212.3" style="fill:none;fill-rule:evenodd;stroke:#000000;stroke-width:2.0px;stroke-linecap:butt;stroke-linejoin:miter;stroke-opacity:1"/>
<path class="bond-29 atom-16 atom-17" d="M 414.4,198.0 L 406.7,211.4" style="fill:none;fill-rule:evenodd;stroke:#000000;stroke-width:2.0px;stroke-linecap:butt;stroke-linejoin:miter;stroke-opacity:1"/>
<path class="bond-30 atom-17 atom-18" d="M 401.6,212.3 L 412.6,231.5" style="fill:none;fill-rule:evenodd;stroke:#000000;stroke-width:2.0px;stroke-linecap:butt;stroke-linejoin:miter;stroke-opacity:1"/>
<path class="bond-31 atom-17 atom-33" d="M 401.6,212.3 L 383.8,212.3" style="fill:none;fill-rule:evenodd;stroke:#000000;stroke-width:2.0px;stroke-linecap:butt;stroke-linejoin:miter;stroke-opacity:1"/>
<path class="bond-32 atom-18 atom-19" d="M 412.6,231.5 L 434.8,231.5" style="fill:none;fill-rule:evenodd;stroke:#000000;stroke-width:2.0px;stroke-linecap:butt;stroke-linejoin:miter;stroke-opacity:1"/>
<path class="bond-32 atom-18 atom-19" d="M 416.0,227.5 L 431.5,227.5" style="fill:none;fill-rule:evenodd;stroke:#000000;stroke-width:2.0px;stroke-linecap:butt;stroke-linejoin:miter;stroke-opacity:1"/>
<path class="bond-33 atom-18 atom-34" d="M 412.6,231.5 L 404.7,245.3" style="fill:none;fill-rule:evenodd;stroke:#000000;stroke-width:2.0px;stroke-linecap:butt;stroke-linejoin:miter;stroke-opacity:1"/>
<path class="bond-34 atom-19 atom-20" d="M 434.8,231.5 L 445.9,212.3" style="fill:none;fill-rule:evenodd;stroke:#000000;stroke-width:2.0px;stroke-linecap:butt;stroke-linejoin:miter;stroke-opacity:1"/>
<path class="bond-35 atom-19 atom-35" d="M 434.8,231.5 L 442.8,245.3" style="fill:none;fill-rule:evenodd;stroke:#000000;stroke-width:2.0px;stroke-linecap:butt;stroke-linejoin:miter;stroke-opacity:1"/>
<path class="bond-36 atom-20 atom-21" d="M 445.9,212.3 L 434.8,193.1" style="fill:none;fill-rule:evenodd;stroke:#000000;stroke-width:2.0px;stroke-linecap:butt;stroke-linejoin:miter;stroke-opacity:1"/>
<path class="bond-36 atom-20 atom-21" d="M 440.8,211.4 L 433.0,198.0" style="fill:none;fill-rule:evenodd;stroke:#000000;stroke-width:2.0px;stroke-linecap:butt;stroke-linejoin:miter;stroke-opacity:1"/>
<path class="bond-37 atom-20 atom-36" d="M 445.9,212.3 L 463.7,212.3" style="fill:none;fill-rule:evenodd;stroke:#000000;stroke-width:2.0px;stroke-linecap:butt;stroke-linejoin:miter;stroke-opacity:1"/>
<path class="bond-38 atom-21 atom-37" d="M 434.8,193.1 L 442.8,179.3" style="fill:none;fill-rule:evenodd;stroke:#000000;stroke-width:2.0px;stroke-linecap:butt;stroke-linejoin:miter;stroke-opacity:1"/>
<path class="atom-2" d="M 463.8 97.0 Q 463.8 94.7, 464.9 93.5 Q 466.0 92.2, 468.1 92.2 Q 470.2 92.2, 471.3 93.5 Q 472.5 94.7, 472.5 97.0 Q 472.5 99.3, 471.3 100.6 Q 470.2 101.9, 468.1 101.9 Q 466.1 101.9, 464.9 100.6 Q 463.8 99.3, 463.8 97.0 M 468.1 100.8 Q 469.6 100.8, 470.3 99.9 Q 471.1 98.9, 471.1 97.0 Q 471.1 95.2, 470.3 94.2 Q 469.6 93.3, 468.1 93.3 Q 466.7 93.3, 465.9 94.2 Q 465.1 95.1, 465.1 97.0 Q 465.1 98.9, 465.9 99.9 Q 466.7 100.8, 468.1 100.8 " fill="#FF0000"/>
<path class="atom-4" d="M 432.8 111.5 L 435.8 116.5 Q 436.2 117.0, 436.6 117.9 Q 437.1 118.8, 437.2 118.8 L 437.2 111.5 L 438.4 111.5 L 438.4 120.9 L 437.1 120.9 L 433.8 115.5 Q 433.4 114.8, 433.0 114.1 Q 432.6 113.4, 432.5 113.1 L 432.5 120.9 L 431.3 120.9 L 431.3 111.5 L 432.8 111.5 " fill="#0000FF"/>
<path class="atom-8" d="M 399.5 53.8 L 402.6 58.8 Q 402.9 59.3, 403.4 60.2 Q 403.9 61.1, 403.9 61.2 L 403.9 53.8 L 405.1 53.8 L 405.1 63.3 L 403.8 63.3 L 400.5 57.8 Q 400.1 57.2, 399.7 56.4 Q 399.3 55.7, 399.2 55.5 L 399.2 63.3 L 398.0 63.3 L 398.0 53.8 L 399.5 53.8 " fill="#0000FF"/>
<path class="atom-11" d="M 455.0 34.6 L 458.0 39.6 Q 458.3 40.1, 458.8 41.0 Q 459.3 41.9, 459.4 41.9 L 459.4 34.6 L 460.6 34.6 L 460.6 44.0 L 459.3 44.0 L 456.0 38.6 Q 455.6 37.9, 455.2 37.2 Q 454.8 36.5, 454.7 36.3 L 454.7 44.0 L 453.5 44.0 L 453.5 34.6 L 455.0 34.6 " fill="#0000FF"/>
<path class="atom-12" d="M 399.5 130.7 L 402.6 135.7 Q 402.9 136.2, 403.4 137.1 Q 403.9 138.0, 403.9 138.0 L 403.9 130.7 L 405.1 130.7 L 405.1 140.1 L 403.8 140.1 L 400.5 134.7 Q 400.1 134.0, 399.7 133.3 Q 399.3 132.6, 399.2 132.3 L 399.2 140.1 L 398.0 140.1 L 398.0 130.7 L 399.5 130.7 " fill="#0000FF"/>
<path class="atom-14" d="M 430.5 154.7 Q 430.5 152.4, 431.6 151.1 Q 432.8 149.9, 434.8 149.9 Q 436.9 149.9, 438.1 151.1 Q 439.2 152.4, 439.2 154.7 Q 439.2 157.0, 438.0 158.3 Q 436.9 159.6, 434.8 159.6 Q 432.8 159.6, 431.6 158.3 Q 430.5 157.0, 430.5 154.7 M 434.8 158.5 Q 436.3 158.5, 437.1 157.5 Q 437.8 156.6, 437.8 154.7 Q 437.8 152.8, 437.1 151.9 Q 436.3 150.9, 434.8 150.9 Q 433.4 150.9, 432.6 151.9 Q 431.8 152.8, 431.8 154.7 Q 431.8 156.6, 432.6 157.5 Q 433.4 158.5, 434.8 158.5 " fill="#FF0000"/>
<path class="atom-22" d="M 497.7 89.3 L 499.0 89.3 L 499.0 93.3 L 503.8 93.3 L 503.8 89.3 L 505.1 89.3 L 505.1 98.7 L 503.8 98.7 L 503.8 94.4 L 499.0 94.4 L 499.0 98.7 L 497.7 98.7 L 497.7 89.3 " fill="#000000"/>
<path class="atom-23" d="M 517.0 100.4 L 518.2 100.4 L 518.2 104.4 L 523.0 104.4 L 523.0 100.4 L 524.3 100.4 L 524.3 109.8 L 523.0 109.8 L 523.0 105.5 L 518.2 105.5 L 518.2 109.8 L 517.0 109.8 L 517.0 100.4 " fill="#000000"/>
<path class="atom-24" d="M 508.8 130.7 L 510.1 130.7 L 510.1 134.7 L 514.9 134.7 L 514.9 130.7 L 516.2 130.7 L 516.2 140.1 L 514.9 140.1 L 514.9 135.8 L 510.1 135.8 L 510.1 140.1 L 508.8 140.1 L 508.8 130.7 " fill="#000000"/>
<path class="atom-25" d="M 456.3 122.6 L 457.6 122.6 L 457.6 126.6 L 462.4 126.6 L 462.4 122.6 L 463.7 122.6 L 463.7 132.0 L 462.4 132.0 L 462.4 127.7 L 457.6 127.7 L 457.6 132.0 L 456.3 132.0 L 456.3 122.6 " fill="#000000"/>
<path class="atom-26" d="M 475.5 133.7 L 476.8 133.7 L 476.8 137.7 L 481.6 137.7 L 481.6 133.7 L 482.9 133.7 L 482.9 143.1 L 481.6 143.1 L 481.6 138.8 L 476.8 138.8 L 476.8 143.1 L 475.5 143.1 L 475.5 133.7 " fill="#000000"/>
<path class="atom-27" d="M 375.7 92.3 L 377.0 92.3 L 377.0 96.3 L 381.8 96.3 L 381.8 92.3 L 383.0 92.3 L 383.0 101.7 L 381.8 101.7 L 381.8 97.3 L 377.0 97.3 L 377.0 101.7 L 375.7 101.7 L 375.7 92.3 " fill="#000000"/>
<path class="atom-28" d="M 375.7 53.8 L 377.0 53.8 L 377.0 57.8 L 381.8 57.8 L 381.8 53.8 L 383.0 53.8 L 383.0 63.3 L 381.8 63.3 L 381.8 58.9 L 377.0 58.9 L 377.0 63.3 L 375.7 63.3 L 375.7 53.8 " fill="#000000"/>
<path class="atom-29" d="M 409.0 34.6 L 410.2 34.6 L 410.2 38.6 L 415.1 38.6 L 415.1 34.6 L 416.3 34.6 L 416.3 44.0 L 415.1 44.0 L 415.1 39.7 L 410.2 39.7 L 410.2 44.0 L 409.0 44.0 L 409.0 34.6 " fill="#000000"/>
<path class="atom-30" d="M 375.7 130.7 L 377.0 130.7 L 377.0 134.7 L 381.8 134.7 L 381.8 130.7 L 383.0 130.7 L 383.0 140.1 L 381.8 140.1 L 381.8 135.8 L 377.0 135.8 L 377.0 140.1 L 375.7 140.1 L 375.7 130.7 " fill="#000000"/>
<path class="atom-31" d="M 378.6 180.2 L 379.9 180.2 L 379.9 184.3 L 384.7 184.3 L 384.7 180.2 L 386.0 180.2 L 386.0 189.7 L 384.7 189.7 L 384.7 185.3 L 379.9 185.3 L 379.9 189.7 L 378.6 189.7 L 378.6 180.2 " fill="#000000"/>
<path class="atom-32" d="M 378.6 158.1 L 379.9 158.1 L 379.9 162.1 L 384.7 162.1 L 384.7 158.1 L 386.0 158.1 L 386.0 167.5 L 384.7 167.5 L 384.7 163.1 L 379.9 163.1 L 379.9 167.5 L 378.6 167.5 L 378.6 158.1 " fill="#000000"/>
<path class="atom-33" d="M 375.7 207.6 L 377.0 207.6 L 377.0 211.6 L 381.8 211.6 L 381.8 207.6 L 383.0 207.6 L 383.0 217.0 L 381.8 217.0 L 381.8 212.7 L 377.0 212.7 L 377.0 217.0 L 375.7 217.0 L 375.7 207.6 " fill="#000000"/>
<path class="atom-34" d="M 397.9 246.0 L 399.1 246.0 L 399.1 250.0 L 404.0 250.0 L 404.0 246.0 L 405.2 246.0 L 405.2 255.5 L 404.0 255.5 L 404.0 251.1 L 399.1 251.1 L 399.1 255.5 L 397.9 255.5 L 397.9 246.0 " fill="#000000"/>
<path class="atom-35" d="M 442.3 246.0 L 443.5 246.0 L 443.5 250.0 L 448.3 250.0 L 448.3 246.0 L 449.6 246.0 L 449.6 255.5 L 448.3 255.5 L 448.3 251.1 L 443.5 251.1 L 443.5 255.5 L 442.3 255.5 L 442.3 246.0 " fill="#000000"/>
<path class="atom-36" d="M 464.4 207.6 L 465.7 207.6 L 465.7 211.6 L 470.5 211.6 L 470.5 207.6 L 471.8 207.6 L 471.8 217.0 L 470.5 217.0 L 470.5 212.7 L 465.7 212.7 L 465.7 217.0 L 464.4 217.0 L 464.4 207.6 " fill="#000000"/>
<path class="atom-37" d="M 442.3 169.1 L 443.5 169.1 L 443.5 173.2 L 448.3 173.2 L 448.3 169.1 L 449.6 169.1 L 449.6 178.6 L 448.3 178.6 L 448.3 174.2 L 443.5 174.2 L 443.5 178.6 L 442.3 178.6 L 442.3 169.1 " fill="#000000"/>
<text x="300" y="20" font-size="20" font-family="sans-serif" font-weight="normal" letter-spacing="0" text-anchor="middle" fill="black">jnk1 18636-1 -&gt; 18624-1 </text><text x="150" y="285" font-size="15" font-family="sans-serif" font-weight="normal" letter-spacing="0" text-anchor="middle" fill="black">18636-1</text><text x="450" y="285" font-size="15" font-family="sans-serif" font-weight="normal" letter-spacing="0" text-anchor="middle" fill="black">18624-1</text></svg>
