<?xml version='1.0' encoding='ASCII' standalone='yes'?>
<svg xmlns="http://www.w3.org/2000/svg" xmlns:rdkit="http://www.rdkit.org/xml" xmlns:xlink="http://www.w3.org/1999/xlink" version="1.1" baseProfile="full" xml:space="preserve" width="600px" height="300px" viewBox="0 0 600 300">
<!-- END OF HEADER -->
<rect style="opacity:1.0;fill:#FFFFFF;stroke:none" width="600.0" height="300.0" x="0.0" y="0.0"> </rect>
<path class="bond-0 atom-0 atom-1" d="M 145.7,152.3 L 141.1,158.5" style="fill:none;fill-rule:evenodd;stroke:#0000FF;stroke-width:2.0px;stroke-linecap:butt;stroke-linejoin:miter;stroke-opacity:1"/>
<path class="bond-0 atom-0 atom-1" d="M 141.1,158.5 L 136.6,164.7" style="fill:none;fill-rule:evenodd;stroke:#000000;stroke-width:2.0px;stroke-linecap:butt;stroke-linejoin:miter;stroke-opacity:1"/>
<path class="bond-1 atom-0 atom-13" d="M 145.7,145.5 L 141.2,139.3" style="fill:none;fill-rule:evenodd;stroke:#0000FF;stroke-width:2.0px;stroke-linecap:butt;stroke-linejoin:miter;stroke-opacity:1"/>
<path class="bond-1 atom-0 atom-13" d="M 141.2,139.3 L 136.7,133.0" style="fill:none;fill-rule:evenodd;stroke:#000000;stroke-width:2.0px;stroke-linecap:butt;stroke-linejoin:miter;stroke-opacity:1"/>
<path class="bond-2 atom-0 atom-2" d="M 150.9,148.9 L 159.3,148.9" style="fill:none;fill-rule:evenodd;stroke:#0000FF;stroke-width:2.0px;stroke-linecap:butt;stroke-linejoin:miter;stroke-opacity:1"/>
<path class="bond-2 atom-0 atom-2" d="M 159.3,148.9 L 167.7,149.0" style="fill:none;fill-rule:evenodd;stroke:#000000;stroke-width:2.0px;stroke-linecap:butt;stroke-linejoin:miter;stroke-opacity:1"/>
<path class="bond-3 atom-1 atom-4" d="M 136.6,164.7 L 128.6,182.5" style="fill:none;fill-rule:evenodd;stroke:#000000;stroke-width:2.0px;stroke-linecap:butt;stroke-linejoin:miter;stroke-opacity:1"/>
<path class="bond-4 atom-1 atom-6" d="M 136.6,164.7 L 118.0,158.6" style="fill:none;fill-rule:evenodd;stroke:#000000;stroke-width:2.0px;stroke-linecap:butt;stroke-linejoin:miter;stroke-opacity:1"/>
<path class="bond-5 atom-1 atom-26" d="M 136.6,164.7 L 148.3,171.2 L 146.0,174.2 Z" style="fill:#000000;fill-rule:evenodd;fill-opacity:1;stroke:#000000;stroke-width:1.0px;stroke-linecap:butt;stroke-linejoin:miter;stroke-opacity:1;"/>
<path class="bond-6 atom-2 atom-7" d="M 167.7,149.0 L 177.4,165.9" style="fill:none;fill-rule:evenodd;stroke:#000000;stroke-width:2.0px;stroke-linecap:butt;stroke-linejoin:miter;stroke-opacity:1"/>
<path class="bond-7 atom-2 atom-3" d="M 165.9,148.2 L 169.0,141.0" style="fill:none;fill-rule:evenodd;stroke:#000000;stroke-width:2.0px;stroke-linecap:butt;stroke-linejoin:miter;stroke-opacity:1"/>
<path class="bond-7 atom-2 atom-3" d="M 169.0,141.0 L 172.1,133.7" style="fill:none;fill-rule:evenodd;stroke:#FF0000;stroke-width:2.0px;stroke-linecap:butt;stroke-linejoin:miter;stroke-opacity:1"/>
<path class="bond-7 atom-2 atom-3" d="M 169.5,149.7 L 172.6,142.5" style="fill:none;fill-rule:evenodd;stroke:#000000;stroke-width:2.0px;stroke-linecap:butt;stroke-linejoin:miter;stroke-opacity:1"/>
<path class="bond-7 atom-2 atom-3" d="M 172.6,142.5 L 175.7,135.3" style="fill:none;fill-rule:evenodd;stroke:#FF0000;stroke-width:2.0px;stroke-linecap:butt;stroke-linejoin:miter;stroke-opacity:1"/>
<path class="bond-8 atom-4 atom-5" d="M 130.2,181.4 L 134.6,187.6" style="fill:none;fill-rule:evenodd;stroke:#000000;stroke-width:2.0px;stroke-linecap:butt;stroke-linejoin:miter;stroke-opacity:1"/>
<path class="bond-8 atom-4 atom-5" d="M 134.6,187.6 L 139.1,193.8" style="fill:none;fill-rule:evenodd;stroke:#FF0000;stroke-width:2.0px;stroke-linecap:butt;stroke-linejoin:miter;stroke-opacity:1"/>
<path class="bond-8 atom-4 atom-5" d="M 127.0,183.6 L 131.5,189.9" style="fill:none;fill-rule:evenodd;stroke:#000000;stroke-width:2.0px;stroke-linecap:butt;stroke-linejoin:miter;stroke-opacity:1"/>
<path class="bond-8 atom-4 atom-5" d="M 131.5,189.9 L 135.9,196.1" style="fill:none;fill-rule:evenodd;stroke:#FF0000;stroke-width:2.0px;stroke-linecap:butt;stroke-linejoin:miter;stroke-opacity:1"/>
<path class="bond-9 atom-4 atom-8" d="M 128.6,182.5 L 120.2,183.4" style="fill:none;fill-rule:evenodd;stroke:#000000;stroke-width:2.0px;stroke-linecap:butt;stroke-linejoin:miter;stroke-opacity:1"/>
<path class="bond-9 atom-4 atom-8" d="M 120.2,183.4 L 111.8,184.2" style="fill:none;fill-rule:evenodd;stroke:#0000FF;stroke-width:2.0px;stroke-linecap:butt;stroke-linejoin:miter;stroke-opacity:1"/>
<path class="bond-10 atom-6 atom-9" d="M 118.0,158.6 L 118.1,139.0" style="fill:none;fill-rule:evenodd;stroke:#000000;stroke-width:2.0px;stroke-linecap:butt;stroke-linejoin:miter;stroke-opacity:1"/>
<path class="bond-11 atom-6 atom-27" d="M 118.0,158.6 L 113.4,167.9" style="fill:none;fill-rule:evenodd;stroke:#000000;stroke-width:2.0px;stroke-linecap:butt;stroke-linejoin:miter;stroke-opacity:1"/>
<path class="bond-12 atom-6 atom-28" d="M 118.0,158.6 L 101.4,156.7" style="fill:none;fill-rule:evenodd;stroke:#000000;stroke-width:2.0px;stroke-linecap:butt;stroke-linejoin:miter;stroke-opacity:1"/>
<path class="bond-13 atom-7 atom-10" d="M 177.4,165.9 L 181.3,172.7" style="fill:none;fill-rule:evenodd;stroke:#000000;stroke-width:2.0px;stroke-linecap:butt;stroke-linejoin:miter;stroke-opacity:1"/>
<path class="bond-13 atom-7 atom-10" d="M 181.3,172.7 L 185.2,179.5" style="fill:none;fill-rule:evenodd;stroke:#0000FF;stroke-width:2.0px;stroke-linecap:butt;stroke-linejoin:miter;stroke-opacity:1"/>
<path class="bond-14 atom-7 atom-11" d="M 177.4,165.9 L 194.4,156.2" style="fill:none;fill-rule:evenodd;stroke:#000000;stroke-width:2.0px;stroke-linecap:butt;stroke-linejoin:miter;stroke-opacity:1"/>
<path class="bond-15 atom-7 atom-29" d="M 173.5,168.1 L 174.2,169.1" style="fill:none;fill-rule:evenodd;stroke:#000000;stroke-width:1.0px;stroke-linecap:butt;stroke-linejoin:miter;stroke-opacity:1"/>
<path class="bond-15 atom-7 atom-29" d="M 169.6,170.3 L 171.1,172.3" style="fill:none;fill-rule:evenodd;stroke:#000000;stroke-width:1.0px;stroke-linecap:butt;stroke-linejoin:miter;stroke-opacity:1"/>
<path class="bond-15 atom-7 atom-29" d="M 165.6,172.4 L 167.9,175.4" style="fill:none;fill-rule:evenodd;stroke:#000000;stroke-width:1.0px;stroke-linecap:butt;stroke-linejoin:miter;stroke-opacity:1"/>
<path class="bond-16 atom-8 atom-12" d="M 106.7,181.1 L 102.2,174.8" style="fill:none;fill-rule:evenodd;stroke:#0000FF;stroke-width:2.0px;stroke-linecap:butt;stroke-linejoin:miter;stroke-opacity:1"/>
<path class="bond-16 atom-8 atom-12" d="M 102.2,174.8 L 97.7,168.6" style="fill:none;fill-rule:evenodd;stroke:#000000;stroke-width:2.0px;stroke-linecap:butt;stroke-linejoin:miter;stroke-opacity:1"/>
<path class="bond-17 atom-8 atom-30" d="M 107.6,187.9 L 105.1,193.4" style="fill:none;fill-rule:evenodd;stroke:#0000FF;stroke-width:2.0px;stroke-linecap:butt;stroke-linejoin:miter;stroke-opacity:1"/>
<path class="bond-17 atom-8 atom-30" d="M 105.1,193.4 L 102.6,198.9" style="fill:none;fill-rule:evenodd;stroke:#000000;stroke-width:2.0px;stroke-linecap:butt;stroke-linejoin:miter;stroke-opacity:1"/>
<path class="bond-18 atom-9 atom-13" d="M 118.1,139.0 L 136.7,133.0" style="fill:none;fill-rule:evenodd;stroke:#000000;stroke-width:2.0px;stroke-linecap:butt;stroke-linejoin:miter;stroke-opacity:1"/>
<path class="bond-19 atom-9 atom-31" d="M 118.1,139.0 L 108.2,137.6" style="fill:none;fill-rule:evenodd;stroke:#000000;stroke-width:2.0px;stroke-linecap:butt;stroke-linejoin:miter;stroke-opacity:1"/>
<path class="bond-20 atom-9 atom-32" d="M 118.1,139.0 L 114.8,123.2" style="fill:none;fill-rule:evenodd;stroke:#000000;stroke-width:2.0px;stroke-linecap:butt;stroke-linejoin:miter;stroke-opacity:1"/>
<path class="bond-21 atom-10 atom-33" d="M 184.4,184.5 L 178.7,187.8" style="fill:none;fill-rule:evenodd;stroke:#0000FF;stroke-width:2.0px;stroke-linecap:butt;stroke-linejoin:miter;stroke-opacity:1"/>
<path class="bond-21 atom-10 atom-33" d="M 178.7,187.8 L 173.0,191.0" style="fill:none;fill-rule:evenodd;stroke:#000000;stroke-width:2.0px;stroke-linecap:butt;stroke-linejoin:miter;stroke-opacity:1"/>
<path class="bond-22 atom-10 atom-34" d="M 192.9,180.5 L 193.4,180.3" style="fill:none;fill-rule:evenodd;stroke:#0000FF;stroke-width:2.0px;stroke-linecap:butt;stroke-linejoin:miter;stroke-opacity:1"/>
<path class="bond-22 atom-10 atom-34" d="M 193.4,180.3 L 193.9,180.1" style="fill:none;fill-rule:evenodd;stroke:#000000;stroke-width:2.0px;stroke-linecap:butt;stroke-linejoin:miter;stroke-opacity:1"/>
<path class="bond-23 atom-10 atom-35" d="M 189.1,186.3 L 192.0,191.4" style="fill:none;fill-rule:evenodd;stroke:#0000FF;stroke-width:2.0px;stroke-linecap:butt;stroke-linejoin:miter;stroke-opacity:1"/>
<path class="bond-23 atom-10 atom-35" d="M 192.0,191.4 L 194.9,196.5" style="fill:none;fill-rule:evenodd;stroke:#000000;stroke-width:2.0px;stroke-linecap:butt;stroke-linejoin:miter;stroke-opacity:1"/>
<path class="bond-24 atom-11 atom-14" d="M 194.4,156.2 L 211.4,146.5" style="fill:none;fill-rule:evenodd;stroke:#000000;stroke-width:2.0px;stroke-linecap:butt;stroke-linejoin:miter;stroke-opacity:1"/>
<path class="bond-25 atom-11 atom-36" d="M 194.4,156.2 L 198.8,162.1" style="fill:none;fill-rule:evenodd;stroke:#000000;stroke-width:2.0px;stroke-linecap:butt;stroke-linejoin:miter;stroke-opacity:1"/>
<path class="bond-26 atom-11 atom-37" d="M 194.4,156.2 L 188.3,141.6" style="fill:none;fill-rule:evenodd;stroke:#000000;stroke-width:2.0px;stroke-linecap:butt;stroke-linejoin:miter;stroke-opacity:1"/>
<path class="bond-27 atom-12 atom-15" d="M 97.7,168.6 L 86.2,152.7" style="fill:none;fill-rule:evenodd;stroke:#000000;stroke-width:2.0px;stroke-linecap:butt;stroke-linejoin:miter;stroke-opacity:1"/>
<path class="bond-28 atom-12 atom-38" d="M 97.7,168.6 L 84.6,178.0" style="fill:none;fill-rule:evenodd;stroke:#000000;stroke-width:2.0px;stroke-linecap:butt;stroke-linejoin:miter;stroke-opacity:1"/>
<path class="bond-29 atom-12 atom-39" d="M 97.7,168.6 L 107.5,157.0" style="fill:none;fill-rule:evenodd;stroke:#000000;stroke-width:2.0px;stroke-linecap:butt;stroke-linejoin:miter;stroke-opacity:1"/>
<path class="bond-30 atom-13 atom-40" d="M 136.7,133.0 L 130.3,118.5" style="fill:none;fill-rule:evenodd;stroke:#000000;stroke-width:2.0px;stroke-linecap:butt;stroke-linejoin:miter;stroke-opacity:1"/>
<path class="bond-31 atom-13 atom-41" d="M 136.7,133.0 L 150.9,124.9" style="fill:none;fill-rule:evenodd;stroke:#000000;stroke-width:2.0px;stroke-linecap:butt;stroke-linejoin:miter;stroke-opacity:1"/>
<path class="bond-32 atom-14 atom-16" d="M 211.4,146.5 L 228.3,156.4" style="fill:none;fill-rule:evenodd;stroke:#000000;stroke-width:2.0px;stroke-linecap:butt;stroke-linejoin:miter;stroke-opacity:1"/>
<path class="bond-32 atom-14 atom-16" d="M 215.9,144.6 L 227.7,151.5" style="fill:none;fill-rule:evenodd;stroke:#000000;stroke-width:2.0px;stroke-linecap:butt;stroke-linejoin:miter;stroke-opacity:1"/>
<path class="bond-33 atom-14 atom-24" d="M 211.4,146.5 L 211.5,127.0" style="fill:none;fill-rule:evenodd;stroke:#000000;stroke-width:2.0px;stroke-linecap:butt;stroke-linejoin:miter;stroke-opacity:1"/>
<path class="bond-34 atom-15 atom-17" d="M 86.2,152.7 L 94.3,134.9" style="fill:none;fill-rule:evenodd;stroke:#000000;stroke-width:2.0px;stroke-linecap:butt;stroke-linejoin:miter;stroke-opacity:1"/>
<path class="bond-34 atom-15 atom-17" d="M 83.9,148.5 L 89.5,136.0" style="fill:none;fill-rule:evenodd;stroke:#000000;stroke-width:2.0px;stroke-linecap:butt;stroke-linejoin:miter;stroke-opacity:1"/>
<path class="bond-35 atom-15 atom-25" d="M 86.2,152.7 L 66.8,154.7" style="fill:none;fill-rule:evenodd;stroke:#000000;stroke-width:2.0px;stroke-linecap:butt;stroke-linejoin:miter;stroke-opacity:1"/>
<path class="bond-36 atom-16 atom-18" d="M 228.3,156.4 L 245.3,146.7" style="fill:none;fill-rule:evenodd;stroke:#000000;stroke-width:2.0px;stroke-linecap:butt;stroke-linejoin:miter;stroke-opacity:1"/>
<path class="bond-37 atom-16 atom-42" d="M 228.3,156.4 L 228.2,172.5" style="fill:none;fill-rule:evenodd;stroke:#000000;stroke-width:2.0px;stroke-linecap:butt;stroke-linejoin:miter;stroke-opacity:1"/>
<path class="bond-38 atom-17 atom-19" d="M 94.3,134.9 L 82.8,119.0" style="fill:none;fill-rule:evenodd;stroke:#000000;stroke-width:2.0px;stroke-linecap:butt;stroke-linejoin:miter;stroke-opacity:1"/>
<path class="bond-39 atom-17 atom-43" d="M 94.3,134.9 L 109.9,129.3" style="fill:none;fill-rule:evenodd;stroke:#000000;stroke-width:2.0px;stroke-linecap:butt;stroke-linejoin:miter;stroke-opacity:1"/>
<path class="bond-40 atom-18 atom-20" d="M 245.3,146.7 L 245.3,127.1" style="fill:none;fill-rule:evenodd;stroke:#000000;stroke-width:2.0px;stroke-linecap:butt;stroke-linejoin:miter;stroke-opacity:1"/>
<path class="bond-40 atom-18 atom-20" d="M 241.4,143.7 L 241.4,130.0" style="fill:none;fill-rule:evenodd;stroke:#000000;stroke-width:2.0px;stroke-linecap:butt;stroke-linejoin:miter;stroke-opacity:1"/>
<path class="bond-41 atom-18 atom-44" d="M 245.3,146.7 L 259.4,154.9" style="fill:none;fill-rule:evenodd;stroke:#000000;stroke-width:2.0px;stroke-linecap:butt;stroke-linejoin:miter;stroke-opacity:1"/>
<path class="bond-42 atom-19 atom-21" d="M 82.8,119.0 L 63.4,121.0" style="fill:none;fill-rule:evenodd;stroke:#000000;stroke-width:2.0px;stroke-linecap:butt;stroke-linejoin:miter;stroke-opacity:1"/>
<path class="bond-42 atom-19 atom-21" d="M 80.3,123.2 L 66.7,124.6" style="fill:none;fill-rule:evenodd;stroke:#000000;stroke-width:2.0px;stroke-linecap:butt;stroke-linejoin:miter;stroke-opacity:1"/>
<path class="bond-43 atom-19 atom-45" d="M 82.8,119.0 L 89.3,104.6" style="fill:none;fill-rule:evenodd;stroke:#000000;stroke-width:2.0px;stroke-linecap:butt;stroke-linejoin:miter;stroke-opacity:1"/>
<path class="bond-44 atom-20 atom-22" d="M 245.3,127.1 L 228.4,117.2" style="fill:none;fill-rule:evenodd;stroke:#000000;stroke-width:2.0px;stroke-linecap:butt;stroke-linejoin:miter;stroke-opacity:1"/>
<path class="bond-45 atom-20 atom-46" d="M 245.3,127.1 L 259.5,119.0" style="fill:none;fill-rule:evenodd;stroke:#000000;stroke-width:2.0px;stroke-linecap:butt;stroke-linejoin:miter;stroke-opacity:1"/>
<path class="bond-46 atom-21 atom-23" d="M 63.4,121.0 L 55.3,138.8" style="fill:none;fill-rule:evenodd;stroke:#000000;stroke-width:2.0px;stroke-linecap:butt;stroke-linejoin:miter;stroke-opacity:1"/>
<path class="bond-47 atom-21 atom-51" d="M 63.4,121.0 L 54.4,108.5" style="fill:none;fill-rule:evenodd;stroke:#000000;stroke-width:2.0px;stroke-linecap:butt;stroke-linejoin:miter;stroke-opacity:1"/>
<path class="bond-48 atom-22 atom-24" d="M 228.4,117.2 L 211.5,127.0" style="fill:none;fill-rule:evenodd;stroke:#000000;stroke-width:2.0px;stroke-linecap:butt;stroke-linejoin:miter;stroke-opacity:1"/>
<path class="bond-48 atom-22 atom-24" d="M 227.8,122.1 L 216.0,128.9" style="fill:none;fill-rule:evenodd;stroke:#000000;stroke-width:2.0px;stroke-linecap:butt;stroke-linejoin:miter;stroke-opacity:1"/>
<path class="bond-49 atom-22 atom-47" d="M 228.4,117.2 L 228.5,101.1" style="fill:none;fill-rule:evenodd;stroke:#000000;stroke-width:2.0px;stroke-linecap:butt;stroke-linejoin:miter;stroke-opacity:1"/>
<path class="bond-50 atom-23 atom-25" d="M 55.3,138.8 L 66.8,154.7" style="fill:none;fill-rule:evenodd;stroke:#000000;stroke-width:2.0px;stroke-linecap:butt;stroke-linejoin:miter;stroke-opacity:1"/>
<path class="bond-50 atom-23 atom-25" d="M 60.2,138.9 L 68.2,150.0" style="fill:none;fill-rule:evenodd;stroke:#000000;stroke-width:2.0px;stroke-linecap:butt;stroke-linejoin:miter;stroke-opacity:1"/>
<path class="bond-51 atom-23 atom-48" d="M 55.3,138.8 L 46.1,139.8" style="fill:none;fill-rule:evenodd;stroke:#000000;stroke-width:2.0px;stroke-linecap:butt;stroke-linejoin:miter;stroke-opacity:1"/>
<path class="bond-51 atom-23 atom-48" d="M 46.1,139.8 L 36.9,140.7" style="fill:none;fill-rule:evenodd;stroke:#A01EEF;stroke-width:2.0px;stroke-linecap:butt;stroke-linejoin:miter;stroke-opacity:1"/>
<path class="bond-52 atom-24 atom-49" d="M 211.5,127.0 L 197.4,118.7" style="fill:none;fill-rule:evenodd;stroke:#000000;stroke-width:2.0px;stroke-linecap:butt;stroke-linejoin:miter;stroke-opacity:1"/>
<path class="bond-53 atom-25 atom-50" d="M 66.8,154.7 L 60.3,169.1" style="fill:none;fill-rule:evenodd;stroke:#000000;stroke-width:2.0px;stroke-linecap:butt;stroke-linejoin:miter;stroke-opacity:1"/>
<path class="atom-0" d="M 146.9 146.1 L 148.7 149.1 Q 148.9 149.3, 149.2 149.9 Q 149.5 150.4, 149.5 150.4 L 149.5 146.1 L 150.3 146.1 L 150.3 151.7 L 149.5 151.7 L 147.5 148.5 Q 147.3 148.1, 147.1 147.6 Q 146.8 147.2, 146.8 147.1 L 146.8 151.7 L 146.1 151.7 L 146.1 146.1 L 146.9 146.1 " fill="#0000FF"/>
<path class="atom-3" d="M 172.9 131.0 Q 172.9 129.7, 173.5 128.9 Q 174.2 128.2, 175.4 128.2 Q 176.7 128.2, 177.3 128.9 Q 178.0 129.7, 178.0 131.0 Q 178.0 132.4, 177.3 133.1 Q 176.6 133.9, 175.4 133.9 Q 174.2 133.9, 173.5 133.1 Q 172.9 132.4, 172.9 131.0 M 175.4 133.3 Q 176.3 133.3, 176.7 132.7 Q 177.2 132.1, 177.2 131.0 Q 177.2 129.9, 176.7 129.4 Q 176.3 128.8, 175.4 128.8 Q 174.6 128.8, 174.1 129.4 Q 173.7 129.9, 173.7 131.0 Q 173.7 132.1, 174.1 132.7 Q 174.6 133.3, 175.4 133.3 " fill="#FF0000"/>
<path class="atom-5" d="M 137.5 198.4 Q 137.5 197.1, 138.1 196.3 Q 138.8 195.6, 140.0 195.6 Q 141.2 195.6, 141.9 196.3 Q 142.5 197.1, 142.5 198.4 Q 142.5 199.7, 141.9 200.5 Q 141.2 201.3, 140.0 201.3 Q 138.8 201.3, 138.1 200.5 Q 137.5 199.7, 137.5 198.4 M 140.0 200.6 Q 140.8 200.6, 141.3 200.1 Q 141.8 199.5, 141.8 198.4 Q 141.8 197.3, 141.3 196.8 Q 140.8 196.2, 140.0 196.2 Q 139.2 196.2, 138.7 196.7 Q 138.2 197.3, 138.2 198.4 Q 138.2 199.5, 138.7 200.1 Q 139.2 200.6, 140.0 200.6 " fill="#FF0000"/>
<path class="atom-8" d="M 107.9 181.7 L 109.7 184.6 Q 109.9 184.9, 110.2 185.5 Q 110.5 186.0, 110.5 186.0 L 110.5 181.7 L 111.2 181.7 L 111.2 187.2 L 110.5 187.2 L 108.5 184.0 Q 108.3 183.7, 108.0 183.2 Q 107.8 182.8, 107.7 182.7 L 107.7 187.2 L 107.0 187.2 L 107.0 181.7 L 107.9 181.7 " fill="#0000FF"/>
<path class="atom-10" d="M 185.9 180.2 L 187.7 183.1 Q 187.9 183.4, 188.2 183.9 Q 188.5 184.4, 188.5 184.5 L 188.5 180.2 L 189.2 180.2 L 189.2 185.7 L 188.5 185.7 L 186.5 182.5 Q 186.3 182.1, 186.1 181.7 Q 185.8 181.3, 185.8 181.1 L 185.8 185.7 L 185.0 185.7 L 185.0 180.2 L 185.9 180.2 " fill="#0000FF"/>
<path class="atom-10" d="M 189.9 181.2 L 190.9 181.2 L 190.9 180.1 L 191.3 180.1 L 191.3 181.2 L 192.3 181.2 L 192.3 181.5 L 191.3 181.5 L 191.3 182.6 L 190.9 182.6 L 190.9 181.5 L 189.9 181.5 L 189.9 181.2 " fill="#0000FF"/>
<path class="atom-26" d="M 148.4 172.6 L 149.2 172.6 L 149.2 174.9 L 152.0 174.9 L 152.0 172.6 L 152.8 172.6 L 152.8 178.1 L 152.0 178.1 L 152.0 175.5 L 149.2 175.5 L 149.2 178.1 L 148.4 178.1 L 148.4 172.6 " fill="#000000"/>
<path class="atom-27" d="M 109.5 168.6 L 110.3 168.6 L 110.3 170.9 L 113.1 170.9 L 113.1 168.6 L 113.9 168.6 L 113.9 174.1 L 113.1 174.1 L 113.1 171.6 L 110.3 171.6 L 110.3 174.1 L 109.5 174.1 L 109.5 168.6 " fill="#000000"/>
<path class="atom-28" d="M 96.4 153.7 L 97.2 153.7 L 97.2 156.0 L 100.0 156.0 L 100.0 153.7 L 100.7 153.7 L 100.7 159.2 L 100.0 159.2 L 100.0 156.6 L 97.2 156.6 L 97.2 159.2 L 96.4 159.2 L 96.4 153.7 " fill="#000000"/>
<path class="atom-29" d="M 161.2 173.7 L 161.9 173.7 L 161.9 176.1 L 164.7 176.1 L 164.7 173.7 L 165.5 173.7 L 165.5 179.3 L 164.7 179.3 L 164.7 176.7 L 161.9 176.7 L 161.9 179.3 L 161.2 179.3 L 161.2 173.7 " fill="#000000"/>
<path class="atom-30" d="M 98.9 199.5 L 99.7 199.5 L 99.7 201.9 L 102.5 201.9 L 102.5 199.5 L 103.2 199.5 L 103.2 205.1 L 102.5 205.1 L 102.5 202.5 L 99.7 202.5 L 99.7 205.1 L 98.9 205.1 L 98.9 199.5 " fill="#000000"/>
<path class="atom-31" d="M 103.2 134.4 L 104.0 134.4 L 104.0 136.7 L 106.8 136.7 L 106.8 134.4 L 107.6 134.4 L 107.6 139.9 L 106.8 139.9 L 106.8 137.4 L 104.0 137.4 L 104.0 139.9 L 103.2 139.9 L 103.2 134.4 " fill="#000000"/>
<path class="atom-32" d="M 111.9 117.1 L 112.7 117.1 L 112.7 119.4 L 115.5 119.4 L 115.5 117.1 L 116.3 117.1 L 116.3 122.6 L 115.5 122.6 L 115.5 120.1 L 112.7 120.1 L 112.7 122.6 L 111.9 122.6 L 111.9 117.1 " fill="#000000"/>
<path class="atom-33" d="M 168.0 189.9 L 168.7 189.9 L 168.7 192.2 L 171.6 192.2 L 171.6 189.9 L 172.3 189.9 L 172.3 195.4 L 171.6 195.4 L 171.6 192.8 L 168.7 192.8 L 168.7 195.4 L 168.0 195.4 L 168.0 189.9 " fill="#000000"/>
<path class="atom-34" d="M 194.6 176.1 L 195.3 176.1 L 195.3 178.5 L 198.1 178.5 L 198.1 176.1 L 198.9 176.1 L 198.9 181.7 L 198.1 181.7 L 198.1 179.1 L 195.3 179.1 L 195.3 181.7 L 194.6 181.7 L 194.6 176.1 " fill="#000000"/>
<path class="atom-35" d="M 194.7 197.1 L 195.4 197.1 L 195.4 199.5 L 198.3 199.5 L 198.3 197.1 L 199.0 197.1 L 199.0 202.7 L 198.3 202.7 L 198.3 200.1 L 195.4 200.1 L 195.4 202.7 L 194.7 202.7 L 194.7 197.1 " fill="#000000"/>
<path class="atom-36" d="M 199.2 162.7 L 199.9 162.7 L 199.9 165.1 L 202.7 165.1 L 202.7 162.7 L 203.5 162.7 L 203.5 168.3 L 202.7 168.3 L 202.7 165.7 L 199.9 165.7 L 199.9 168.3 L 199.2 168.3 L 199.2 162.7 " fill="#000000"/>
<path class="atom-37" d="M 184.7 135.4 L 185.4 135.4 L 185.4 137.8 L 188.3 137.8 L 188.3 135.4 L 189.0 135.4 L 189.0 141.0 L 188.3 141.0 L 188.3 138.4 L 185.4 138.4 L 185.4 141.0 L 184.7 141.0 L 184.7 135.4 " fill="#000000"/>
<path class="atom-38" d="M 79.6 177.3 L 80.4 177.3 L 80.4 179.6 L 83.2 179.6 L 83.2 177.3 L 84.0 177.3 L 84.0 182.8 L 83.2 182.8 L 83.2 180.2 L 80.4 180.2 L 80.4 182.8 L 79.6 182.8 L 79.6 177.3 " fill="#000000"/>
<path class="atom-39" d="M 108.1 150.9 L 108.9 150.9 L 108.9 153.3 L 111.7 153.3 L 111.7 150.9 L 112.5 150.9 L 112.5 156.4 L 111.7 156.4 L 111.7 153.9 L 108.9 153.9 L 108.9 156.4 L 108.1 156.4 L 108.1 150.9 " fill="#000000"/>
<path class="atom-40" d="M 126.7 112.4 L 127.4 112.4 L 127.4 114.7 L 130.3 114.7 L 130.3 112.4 L 131.0 112.4 L 131.0 117.9 L 130.3 117.9 L 130.3 115.3 L 127.4 115.3 L 127.4 117.9 L 126.7 117.9 L 126.7 112.4 " fill="#000000"/>
<path class="atom-41" d="M 151.5 120.5 L 152.3 120.5 L 152.3 122.9 L 155.1 122.9 L 155.1 120.5 L 155.9 120.5 L 155.9 126.1 L 155.1 126.1 L 155.1 123.5 L 152.3 123.5 L 152.3 126.1 L 151.5 126.1 L 151.5 120.5 " fill="#000000"/>
<path class="atom-42" d="M 226.0 173.2 L 226.8 173.2 L 226.8 175.5 L 229.6 175.5 L 229.6 173.2 L 230.4 173.2 L 230.4 178.7 L 229.6 178.7 L 229.6 176.1 L 226.8 176.1 L 226.8 178.7 L 226.0 178.7 L 226.0 173.2 " fill="#000000"/>
<path class="atom-43" d="M 110.5 125.5 L 111.3 125.5 L 111.3 127.9 L 114.1 127.9 L 114.1 125.5 L 114.8 125.5 L 114.8 131.0 L 114.1 131.0 L 114.1 128.5 L 111.3 128.5 L 111.3 131.0 L 110.5 131.0 L 110.5 125.5 " fill="#000000"/>
<path class="atom-44" d="M 260.0 153.7 L 260.7 153.7 L 260.7 156.1 L 263.6 156.1 L 263.6 153.7 L 264.3 153.7 L 264.3 159.3 L 263.6 159.3 L 263.6 156.7 L 260.7 156.7 L 260.7 159.3 L 260.0 159.3 L 260.0 153.7 " fill="#000000"/>
<path class="atom-45" d="M 88.7 98.4 L 89.4 98.4 L 89.4 100.8 L 92.3 100.8 L 92.3 98.4 L 93.0 98.4 L 93.0 104.0 L 92.3 104.0 L 92.3 101.4 L 89.4 101.4 L 89.4 104.0 L 88.7 104.0 L 88.7 98.4 " fill="#000000"/>
<path class="atom-46" d="M 260.2 114.6 L 260.9 114.6 L 260.9 117.0 L 263.7 117.0 L 263.7 114.6 L 264.5 114.6 L 264.5 120.2 L 263.7 120.2 L 263.7 117.6 L 260.9 117.6 L 260.9 120.2 L 260.2 120.2 L 260.2 114.6 " fill="#000000"/>
<path class="atom-47" d="M 226.4 94.9 L 227.1 94.9 L 227.1 97.3 L 229.9 97.3 L 229.9 94.9 L 230.7 94.9 L 230.7 100.5 L 229.9 100.5 L 229.9 97.9 L 227.1 97.9 L 227.1 100.5 L 226.4 100.5 L 226.4 94.9 " fill="#000000"/>
<path class="atom-48" d="M 35.5 138.0 L 36.3 138.0 L 36.3 143.6 L 35.5 143.6 L 35.5 138.0 " fill="#A01EEF"/>
<path class="atom-49" d="M 192.4 114.3 L 193.1 114.3 L 193.1 116.7 L 196.0 116.7 L 196.0 114.3 L 196.7 114.3 L 196.7 119.9 L 196.0 119.9 L 196.0 117.3 L 193.1 117.3 L 193.1 119.9 L 192.4 119.9 L 192.4 114.3 " fill="#000000"/>
<path class="atom-50" d="M 56.6 169.8 L 57.3 169.8 L 57.3 172.1 L 60.2 172.1 L 60.2 169.8 L 60.9 169.8 L 60.9 175.3 L 60.2 175.3 L 60.2 172.7 L 57.3 172.7 L 57.3 175.3 L 56.6 175.3 L 56.6 169.8 " fill="#000000"/>
<path class="atom-51" d="M 49.8 102.4 L 50.5 102.4 L 50.5 104.7 L 53.4 104.7 L 53.4 102.4 L 54.1 102.4 L 54.1 107.9 L 53.4 107.9 L 53.4 105.3 L 50.5 105.3 L 50.5 107.9 L 49.8 107.9 L 49.8 102.4 " fill="#000000"/>
<path class="bond-0 atom-0 atom-1" d="M 446.6,152.3 L 442.0,158.5" style="fill:none;fill-rule:evenodd;stroke:#0000FF;stroke-width:2.0px;stroke-linecap:butt;stroke-linejoin:miter;stroke-opacity:1"/>
<path class="bond-0 atom-0 atom-1" d="M 442.0,158.5 L 437.5,164.7" style="fill:none;fill-rule:evenodd;stroke:#000000;stroke-width:2.0px;stroke-linecap:butt;stroke-linejoin:miter;stroke-opacity:1"/>
<path class="bond-1 atom-0 atom-13" d="M 446.6,145.5 L 442.1,139.3" style="fill:none;fill-rule:evenodd;stroke:#0000FF;stroke-width:2.0px;stroke-linecap:butt;stroke-linejoin:miter;stroke-opacity:1"/>
<path class="bond-1 atom-0 atom-13" d="M 442.1,139.3 L 437.6,133.0" style="fill:none;fill-rule:evenodd;stroke:#000000;stroke-width:2.0px;stroke-linecap:butt;stroke-linejoin:miter;stroke-opacity:1"/>
<path class="bond-2 atom-0 atom-2" d="M 451.8,148.9 L 460.2,148.9" style="fill:none;fill-rule:evenodd;stroke:#0000FF;stroke-width:2.0px;stroke-linecap:butt;stroke-linejoin:miter;stroke-opacity:1"/>
<path class="bond-2 atom-0 atom-2" d="M 460.2,148.9 L 468.6,149.0" style="fill:none;fill-rule:evenodd;stroke:#000000;stroke-width:2.0px;stroke-linecap:butt;stroke-linejoin:miter;stroke-opacity:1"/>
<path class="bond-3 atom-1 atom-4" d="M 437.5,164.7 L 429.5,182.5" style="fill:none;fill-rule:evenodd;stroke:#000000;stroke-width:2.0px;stroke-linecap:butt;stroke-linejoin:miter;stroke-opacity:1"/>
<path class="bond-4 atom-1 atom-6" d="M 437.5,164.7 L 418.9,158.6" style="fill:none;fill-rule:evenodd;stroke:#000000;stroke-width:2.0px;stroke-linecap:butt;stroke-linejoin:miter;stroke-opacity:1"/>
<path class="bond-5 atom-1 atom-26" d="M 437.5,164.7 L 449.2,171.2 L 446.9,174.2 Z" style="fill:#000000;fill-rule:evenodd;fill-opacity:1;stroke:#000000;stroke-width:1.0px;stroke-linecap:butt;stroke-linejoin:miter;stroke-opacity:1;"/>
<path class="bond-6 atom-2 atom-7" d="M 468.6,149.0 L 478.3,165.9" style="fill:none;fill-rule:evenodd;stroke:#000000;stroke-width:2.0px;stroke-linecap:butt;stroke-linejoin:miter;stroke-opacity:1"/>
<path class="bond-7 atom-2 atom-3" d="M 466.8,148.2 L 469.9,141.0" style="fill:none;fill-rule:evenodd;stroke:#000000;stroke-width:2.0px;stroke-linecap:butt;stroke-linejoin:miter;stroke-opacity:1"/>
<path class="bond-7 atom-2 atom-3" d="M 469.9,141.0 L 473.0,133.7" style="fill:none;fill-rule:evenodd;stroke:#FF0000;stroke-width:2.0px;stroke-linecap:butt;stroke-linejoin:miter;stroke-opacity:1"/>
<path class="bond-7 atom-2 atom-3" d="M 470.4,149.7 L 473.5,142.5" style="fill:none;fill-rule:evenodd;stroke:#000000;stroke-width:2.0px;stroke-linecap:butt;stroke-linejoin:miter;stroke-opacity:1"/>
<path class="bond-7 atom-2 atom-3" d="M 473.5,142.5 L 476.6,135.3" style="fill:none;fill-rule:evenodd;stroke:#FF0000;stroke-width:2.0px;stroke-linecap:butt;stroke-linejoin:miter;stroke-opacity:1"/>
<path class="bond-8 atom-4 atom-5" d="M 431.1,181.4 L 435.5,187.6" style="fill:none;fill-rule:evenodd;stroke:#000000;stroke-width:2.0px;stroke-linecap:butt;stroke-linejoin:miter;stroke-opacity:1"/>
<path class="bond-8 atom-4 atom-5" d="M 435.5,187.6 L 440.0,193.8" style="fill:none;fill-rule:evenodd;stroke:#FF0000;stroke-width:2.0px;stroke-linecap:butt;stroke-linejoin:miter;stroke-opacity:1"/>
<path class="bond-8 atom-4 atom-5" d="M 427.9,183.6 L 432.4,189.9" style="fill:none;fill-rule:evenodd;stroke:#000000;stroke-width:2.0px;stroke-linecap:butt;stroke-linejoin:miter;stroke-opacity:1"/>
<path class="bond-8 atom-4 atom-5" d="M 432.4,189.9 L 436.8,196.1" style="fill:none;fill-rule:evenodd;stroke:#FF0000;stroke-width:2.0px;stroke-linecap:butt;stroke-linejoin:miter;stroke-opacity:1"/>
<path class="bond-9 atom-4 atom-8" d="M 429.5,182.5 L 421.1,183.4" style="fill:none;fill-rule:evenodd;stroke:#000000;stroke-width:2.0px;stroke-linecap:butt;stroke-linejoin:miter;stroke-opacity:1"/>
<path class="bond-9 atom-4 atom-8" d="M 421.1,183.4 L 412.7,184.2" style="fill:none;fill-rule:evenodd;stroke:#0000FF;stroke-width:2.0px;stroke-linecap:butt;stroke-linejoin:miter;stroke-opacity:1"/>
<path class="bond-10 atom-6 atom-9" d="M 418.9,158.6 L 419.0,139.0" style="fill:none;fill-rule:evenodd;stroke:#000000;stroke-width:2.0px;stroke-linecap:butt;stroke-linejoin:miter;stroke-opacity:1"/>
<path class="bond-11 atom-6 atom-27" d="M 418.9,158.6 L 414.3,167.9" style="fill:none;fill-rule:evenodd;stroke:#000000;stroke-width:2.0px;stroke-linecap:butt;stroke-linejoin:miter;stroke-opacity:1"/>
<path class="bond-12 atom-6 atom-28" d="M 418.9,158.6 L 402.3,156.7" style="fill:none;fill-rule:evenodd;stroke:#000000;stroke-width:2.0px;stroke-linecap:butt;stroke-linejoin:miter;stroke-opacity:1"/>
<path class="bond-13 atom-7 atom-10" d="M 478.3,165.9 L 482.2,172.7" style="fill:none;fill-rule:evenodd;stroke:#000000;stroke-width:2.0px;stroke-linecap:butt;stroke-linejoin:miter;stroke-opacity:1"/>
<path class="bond-13 atom-7 atom-10" d="M 482.2,172.7 L 486.1,179.5" style="fill:none;fill-rule:evenodd;stroke:#0000FF;stroke-width:2.0px;stroke-linecap:butt;stroke-linejoin:miter;stroke-opacity:1"/>
<path class="bond-14 atom-7 atom-11" d="M 478.3,165.9 L 495.3,156.2" style="fill:none;fill-rule:evenodd;stroke:#000000;stroke-width:2.0px;stroke-linecap:butt;stroke-linejoin:miter;stroke-opacity:1"/>
<path class="bond-15 atom-7 atom-29" d="M 474.4,168.1 L 475.1,169.1" style="fill:none;fill-rule:evenodd;stroke:#000000;stroke-width:1.0px;stroke-linecap:butt;stroke-linejoin:miter;stroke-opacity:1"/>
<path class="bond-15 atom-7 atom-29" d="M 470.4,170.3 L 472.0,172.3" style="fill:none;fill-rule:evenodd;stroke:#000000;stroke-width:1.0px;stroke-linecap:butt;stroke-linejoin:miter;stroke-opacity:1"/>
<path class="bond-15 atom-7 atom-29" d="M 466.5,172.4 L 468.8,175.4" style="fill:none;fill-rule:evenodd;stroke:#000000;stroke-width:1.0px;stroke-linecap:butt;stroke-linejoin:miter;stroke-opacity:1"/>
<path class="bond-16 atom-8 atom-12" d="M 407.6,181.1 L 403.1,174.8" style="fill:none;fill-rule:evenodd;stroke:#0000FF;stroke-width:2.0px;stroke-linecap:butt;stroke-linejoin:miter;stroke-opacity:1"/>
<path class="bond-16 atom-8 atom-12" d="M 403.1,174.8 L 398.6,168.6" style="fill:none;fill-rule:evenodd;stroke:#000000;stroke-width:2.0px;stroke-linecap:butt;stroke-linejoin:miter;stroke-opacity:1"/>
<path class="bond-17 atom-8 atom-30" d="M 408.5,187.9 L 406.0,193.4" style="fill:none;fill-rule:evenodd;stroke:#0000FF;stroke-width:2.0px;stroke-linecap:butt;stroke-linejoin:miter;stroke-opacity:1"/>
<path class="bond-17 atom-8 atom-30" d="M 406.0,193.4 L 403.5,198.9" style="fill:none;fill-rule:evenodd;stroke:#000000;stroke-width:2.0px;stroke-linecap:butt;stroke-linejoin:miter;stroke-opacity:1"/>
<path class="bond-18 atom-9 atom-13" d="M 419.0,139.0 L 437.6,133.0" style="fill:none;fill-rule:evenodd;stroke:#000000;stroke-width:2.0px;stroke-linecap:butt;stroke-linejoin:miter;stroke-opacity:1"/>
<path class="bond-19 atom-9 atom-31" d="M 419.0,139.0 L 409.1,137.6" style="fill:none;fill-rule:evenodd;stroke:#000000;stroke-width:2.0px;stroke-linecap:butt;stroke-linejoin:miter;stroke-opacity:1"/>
<path class="bond-20 atom-9 atom-32" d="M 419.0,139.0 L 415.7,123.2" style="fill:none;fill-rule:evenodd;stroke:#000000;stroke-width:2.0px;stroke-linecap:butt;stroke-linejoin:miter;stroke-opacity:1"/>
<path class="bond-21 atom-10 atom-33" d="M 485.3,184.5 L 479.6,187.8" style="fill:none;fill-rule:evenodd;stroke:#0000FF;stroke-width:2.0px;stroke-linecap:butt;stroke-linejoin:miter;stroke-opacity:1"/>
<path class="bond-21 atom-10 atom-33" d="M 479.6,187.8 L 473.9,191.0" style="fill:none;fill-rule:evenodd;stroke:#000000;stroke-width:2.0px;stroke-linecap:butt;stroke-linejoin:miter;stroke-opacity:1"/>
<path class="bond-22 atom-10 atom-34" d="M 493.8,180.5 L 494.3,180.3" style="fill:none;fill-rule:evenodd;stroke:#0000FF;stroke-width:2.0px;stroke-linecap:butt;stroke-linejoin:miter;stroke-opacity:1"/>
<path class="bond-22 atom-10 atom-34" d="M 494.3,180.3 L 494.8,180.1" style="fill:none;fill-rule:evenodd;stroke:#000000;stroke-width:2.0px;stroke-linecap:butt;stroke-linejoin:miter;stroke-opacity:1"/>
<path class="bond-23 atom-10 atom-35" d="M 490.0,186.3 L 492.9,191.4" style="fill:none;fill-rule:evenodd;stroke:#0000FF;stroke-width:2.0px;stroke-linecap:butt;stroke-linejoin:miter;stroke-opacity:1"/>
<path class="bond-23 atom-10 atom-35" d="M 492.9,191.4 L 495.8,196.5" style="fill:none;fill-rule:evenodd;stroke:#000000;stroke-width:2.0px;stroke-linecap:butt;stroke-linejoin:miter;stroke-opacity:1"/>
<path class="bond-24 atom-11 atom-14" d="M 495.3,156.2 L 512.3,146.5" style="fill:none;fill-rule:evenodd;stroke:#000000;stroke-width:2.0px;stroke-linecap:butt;stroke-linejoin:miter;stroke-opacity:1"/>
<path class="bond-25 atom-11 atom-36" d="M 495.3,156.2 L 499.7,162.1" style="fill:none;fill-rule:evenodd;stroke:#000000;stroke-width:2.0px;stroke-linecap:butt;stroke-linejoin:miter;stroke-opacity:1"/>
<path class="bond-26 atom-11 atom-37" d="M 495.3,156.2 L 489.2,141.6" style="fill:none;fill-rule:evenodd;stroke:#000000;stroke-width:2.0px;stroke-linecap:butt;stroke-linejoin:miter;stroke-opacity:1"/>
<path class="bond-27 atom-12 atom-15" d="M 398.6,168.6 L 387.1,152.7" style="fill:none;fill-rule:evenodd;stroke:#000000;stroke-width:2.0px;stroke-linecap:butt;stroke-linejoin:miter;stroke-opacity:1"/>
<path class="bond-28 atom-12 atom-38" d="M 398.6,168.6 L 385.5,178.0" style="fill:none;fill-rule:evenodd;stroke:#000000;stroke-width:2.0px;stroke-linecap:butt;stroke-linejoin:miter;stroke-opacity:1"/>
<path class="bond-29 atom-12 atom-39" d="M 398.6,168.6 L 408.4,157.0" style="fill:none;fill-rule:evenodd;stroke:#000000;stroke-width:2.0px;stroke-linecap:butt;stroke-linejoin:miter;stroke-opacity:1"/>
<path class="bond-30 atom-13 atom-40" d="M 437.6,133.0 L 431.2,118.5" style="fill:none;fill-rule:evenodd;stroke:#000000;stroke-width:2.0px;stroke-linecap:butt;stroke-linejoin:miter;stroke-opacity:1"/>
<path class="bond-31 atom-13 atom-41" d="M 437.6,133.0 L 451.8,124.9" style="fill:none;fill-rule:evenodd;stroke:#000000;stroke-width:2.0px;stroke-linecap:butt;stroke-linejoin:miter;stroke-opacity:1"/>
<path class="bond-32 atom-14 atom-16" d="M 512.3,146.5 L 529.2,156.4" style="fill:none;fill-rule:evenodd;stroke:#000000;stroke-width:2.0px;stroke-linecap:butt;stroke-linejoin:miter;stroke-opacity:1"/>
<path class="bond-32 atom-14 atom-16" d="M 516.8,144.6 L 528.6,151.5" style="fill:none;fill-rule:evenodd;stroke:#000000;stroke-width:2.0px;stroke-linecap:butt;stroke-linejoin:miter;stroke-opacity:1"/>
<path class="bond-33 atom-14 atom-24" d="M 512.3,146.5 L 512.4,127.0" style="fill:none;fill-rule:evenodd;stroke:#000000;stroke-width:2.0px;stroke-linecap:butt;stroke-linejoin:miter;stroke-opacity:1"/>
<path class="bond-34 atom-15 atom-17" d="M 387.1,152.7 L 395.2,134.9" style="fill:none;fill-rule:evenodd;stroke:#000000;stroke-width:2.0px;stroke-linecap:butt;stroke-linejoin:miter;stroke-opacity:1"/>
<path class="bond-34 atom-15 atom-17" d="M 384.8,148.5 L 390.4,136.0" style="fill:none;fill-rule:evenodd;stroke:#000000;stroke-width:2.0px;stroke-linecap:butt;stroke-linejoin:miter;stroke-opacity:1"/>
<path class="bond-35 atom-15 atom-25" d="M 387.1,152.7 L 367.7,154.7" style="fill:none;fill-rule:evenodd;stroke:#000000;stroke-width:2.0px;stroke-linecap:butt;stroke-linejoin:miter;stroke-opacity:1"/>
<path class="bond-36 atom-16 atom-18" d="M 529.2,156.4 L 546.2,146.7" style="fill:none;fill-rule:evenodd;stroke:#000000;stroke-width:2.0px;stroke-linecap:butt;stroke-linejoin:miter;stroke-opacity:1"/>
<path class="bond-37 atom-16 atom-42" d="M 529.2,156.4 L 529.1,172.5" style="fill:none;fill-rule:evenodd;stroke:#000000;stroke-width:2.0px;stroke-linecap:butt;stroke-linejoin:miter;stroke-opacity:1"/>
<path class="bond-38 atom-17 atom-19" d="M 395.2,134.9 L 383.7,119.0" style="fill:none;fill-rule:evenodd;stroke:#000000;stroke-width:2.0px;stroke-linecap:butt;stroke-linejoin:miter;stroke-opacity:1"/>
<path class="bond-39 atom-17 atom-43" d="M 395.2,134.9 L 410.8,129.3" style="fill:none;fill-rule:evenodd;stroke:#000000;stroke-width:2.0px;stroke-linecap:butt;stroke-linejoin:miter;stroke-opacity:1"/>
<path class="bond-40 atom-18 atom-20" d="M 546.2,146.7 L 546.2,127.1" style="fill:none;fill-rule:evenodd;stroke:#000000;stroke-width:2.0px;stroke-linecap:butt;stroke-linejoin:miter;stroke-opacity:1"/>
<path class="bond-40 atom-18 atom-20" d="M 542.3,143.7 L 542.3,130.0" style="fill:none;fill-rule:evenodd;stroke:#000000;stroke-width:2.0px;stroke-linecap:butt;stroke-linejoin:miter;stroke-opacity:1"/>
<path class="bond-41 atom-18 atom-44" d="M 546.2,146.7 L 560.3,154.9" style="fill:none;fill-rule:evenodd;stroke:#000000;stroke-width:2.0px;stroke-linecap:butt;stroke-linejoin:miter;stroke-opacity:1"/>
<path class="bond-42 atom-19 atom-21" d="M 383.7,119.0 L 364.3,121.0" style="fill:none;fill-rule:evenodd;stroke:#000000;stroke-width:2.0px;stroke-linecap:butt;stroke-linejoin:miter;stroke-opacity:1"/>
<path class="bond-42 atom-19 atom-21" d="M 381.2,123.2 L 367.6,124.6" style="fill:none;fill-rule:evenodd;stroke:#000000;stroke-width:2.0px;stroke-linecap:butt;stroke-linejoin:miter;stroke-opacity:1"/>
<path class="bond-43 atom-19 atom-45" d="M 383.7,119.0 L 390.2,104.6" style="fill:none;fill-rule:evenodd;stroke:#000000;stroke-width:2.0px;stroke-linecap:butt;stroke-linejoin:miter;stroke-opacity:1"/>
<path class="bond-44 atom-20 atom-22" d="M 546.2,127.1 L 529.3,117.2" style="fill:none;fill-rule:evenodd;stroke:#000000;stroke-width:2.0px;stroke-linecap:butt;stroke-linejoin:miter;stroke-opacity:1"/>
<path class="bond-45 atom-20 atom-46" d="M 546.2,127.1 L 560.4,119.0" style="fill:none;fill-rule:evenodd;stroke:#000000;stroke-width:2.0px;stroke-linecap:butt;stroke-linejoin:miter;stroke-opacity:1"/>
<path class="bond-46 atom-21 atom-23" d="M 364.3,121.0 L 356.2,138.8" style="fill:none;fill-rule:evenodd;stroke:#000000;stroke-width:2.0px;stroke-linecap:butt;stroke-linejoin:miter;stroke-opacity:1"/>
<path class="bond-47 atom-21 atom-50" d="M 364.3,121.0 L 355.3,108.5" style="fill:none;fill-rule:evenodd;stroke:#000000;stroke-width:2.0px;stroke-linecap:butt;stroke-linejoin:miter;stroke-opacity:1"/>
<path class="bond-48 atom-22 atom-24" d="M 529.3,117.2 L 512.4,127.0" style="fill:none;fill-rule:evenodd;stroke:#000000;stroke-width:2.0px;stroke-linecap:butt;stroke-linejoin:miter;stroke-opacity:1"/>
<path class="bond-48 atom-22 atom-24" d="M 528.7,122.1 L 516.8,128.9" style="fill:none;fill-rule:evenodd;stroke:#000000;stroke-width:2.0px;stroke-linecap:butt;stroke-linejoin:miter;stroke-opacity:1"/>
<path class="bond-49 atom-22 atom-47" d="M 529.3,117.2 L 529.4,101.1" style="fill:none;fill-rule:evenodd;stroke:#000000;stroke-width:2.0px;stroke-linecap:butt;stroke-linejoin:miter;stroke-opacity:1"/>
<path class="bond-50 atom-23 atom-25" d="M 356.2,138.8 L 367.7,154.7" style="fill:none;fill-rule:evenodd;stroke:#000000;stroke-width:2.0px;stroke-linecap:butt;stroke-linejoin:miter;stroke-opacity:1"/>
<path class="bond-50 atom-23 atom-25" d="M 361.1,138.9 L 369.1,150.0" style="fill:none;fill-rule:evenodd;stroke:#000000;stroke-width:2.0px;stroke-linecap:butt;stroke-linejoin:miter;stroke-opacity:1"/>
<path class="bond-51 atom-23 atom-51" d="M 356.2,138.8 L 339.6,140.5" style="fill:none;fill-rule:evenodd;stroke:#000000;stroke-width:2.0px;stroke-linecap:butt;stroke-linejoin:miter;stroke-opacity:1"/>
<path class="bond-52 atom-24 atom-48" d="M 512.4,127.0 L 498.3,118.7" style="fill:none;fill-rule:evenodd;stroke:#000000;stroke-width:2.0px;stroke-linecap:butt;stroke-linejoin:miter;stroke-opacity:1"/>
<path class="bond-53 atom-25 atom-49" d="M 367.7,154.7 L 361.2,169.1" style="fill:none;fill-rule:evenodd;stroke:#000000;stroke-width:2.0px;stroke-linecap:butt;stroke-linejoin:miter;stroke-opacity:1"/>
<path class="atom-0" d="M 447.8 146.1 L 449.6 149.1 Q 449.8 149.3, 450.1 149.9 Q 450.4 150.4, 450.4 150.4 L 450.4 146.1 L 451.2 146.1 L 451.2 151.7 L 450.4 151.7 L 448.4 148.5 Q 448.2 148.1, 448.0 147.6 Q 447.7 147.2, 447.7 147.1 L 447.7 151.7 L 447.0 151.7 L 447.0 146.1 L 447.8 146.1 " fill="#0000FF"/>
<path class="atom-3" d="M 473.8 131.0 Q 473.8 129.7, 474.4 128.9 Q 475.1 128.2, 476.3 128.2 Q 477.6 128.2, 478.2 128.9 Q 478.9 129.7, 478.9 131.0 Q 478.9 132.4, 478.2 133.1 Q 477.5 133.9, 476.3 133.9 Q 475.1 133.9, 474.4 133.1 Q 473.8 132.4, 473.8 131.0 M 476.3 133.3 Q 477.2 133.3, 477.6 132.7 Q 478.1 132.1, 478.1 131.0 Q 478.1 129.9, 477.6 129.4 Q 477.2 128.8, 476.3 128.8 Q 475.5 128.8, 475.0 129.4 Q 474.6 129.9, 474.6 131.0 Q 474.6 132.1, 475.0 132.7 Q 475.5 133.3, 476.3 133.3 " fill="#FF0000"/>
<path class="atom-5" d="M 438.4 198.4 Q 438.4 197.1, 439.0 196.3 Q 439.7 195.6, 440.9 195.6 Q 442.1 195.6, 442.8 196.3 Q 443.4 197.1, 443.4 198.4 Q 443.4 199.7, 442.8 200.5 Q 442.1 201.3, 440.9 201.3 Q 439.7 201.3, 439.0 200.5 Q 438.4 199.7, 438.4 198.4 M 440.9 200.6 Q 441.7 200.6, 442.2 200.1 Q 442.7 199.5, 442.7 198.4 Q 442.7 197.3, 442.2 196.8 Q 441.7 196.2, 440.9 196.2 Q 440.1 196.2, 439.6 196.7 Q 439.1 197.3, 439.1 198.4 Q 439.1 199.5, 439.6 200.1 Q 440.1 200.6, 440.9 200.6 " fill="#FF0000"/>
<path class="atom-8" d="M 408.8 181.7 L 410.6 184.6 Q 410.8 184.9, 411.1 185.5 Q 411.4 186.0, 411.4 186.0 L 411.4 181.7 L 412.1 181.7 L 412.1 187.2 L 411.3 187.2 L 409.4 184.0 Q 409.2 183.7, 408.9 183.2 Q 408.7 182.8, 408.6 182.7 L 408.6 187.2 L 407.9 187.2 L 407.9 181.7 L 408.8 181.7 " fill="#0000FF"/>
<path class="atom-10" d="M 486.8 180.2 L 488.6 183.1 Q 488.8 183.4, 489.1 183.9 Q 489.4 184.4, 489.4 184.5 L 489.4 180.2 L 490.1 180.2 L 490.1 185.7 L 489.4 185.7 L 487.4 182.5 Q 487.2 182.1, 487.0 181.7 Q 486.7 181.3, 486.7 181.1 L 486.7 185.7 L 485.9 185.7 L 485.9 180.2 L 486.8 180.2 " fill="#0000FF"/>
<path class="atom-10" d="M 490.8 181.2 L 491.8 181.2 L 491.8 180.1 L 492.2 180.1 L 492.2 181.2 L 493.2 181.2 L 493.2 181.5 L 492.2 181.5 L 492.2 182.6 L 491.8 182.6 L 491.8 181.5 L 490.8 181.5 L 490.8 181.2 " fill="#0000FF"/>
<path class="atom-26" d="M 449.3 172.6 L 450.1 172.6 L 450.1 174.9 L 452.9 174.9 L 452.9 172.6 L 453.7 172.6 L 453.7 178.1 L 452.9 178.1 L 452.9 175.5 L 450.1 175.5 L 450.1 178.1 L 449.3 178.1 L 449.3 172.6 " fill="#000000"/>
<path class="atom-27" d="M 410.4 168.6 L 411.2 168.6 L 411.2 170.9 L 414.0 170.9 L 414.0 168.6 L 414.8 168.6 L 414.8 174.1 L 414.0 174.1 L 414.0 171.6 L 411.2 171.6 L 411.2 174.1 L 410.4 174.1 L 410.4 168.6 " fill="#000000"/>
<path class="atom-28" d="M 397.3 153.7 L 398.1 153.7 L 398.1 156.0 L 400.9 156.0 L 400.9 153.7 L 401.6 153.7 L 401.6 159.2 L 400.9 159.2 L 400.9 156.6 L 398.1 156.6 L 398.1 159.2 L 397.3 159.2 L 397.3 153.7 " fill="#000000"/>
<path class="atom-29" d="M 462.1 173.7 L 462.8 173.7 L 462.8 176.1 L 465.6 176.1 L 465.6 173.7 L 466.4 173.7 L 466.4 179.3 L 465.6 179.3 L 465.6 176.7 L 462.8 176.7 L 462.8 179.3 L 462.1 179.3 L 462.1 173.7 " fill="#000000"/>
<path class="atom-30" d="M 399.8 199.5 L 400.6 199.5 L 400.6 201.9 L 403.4 201.9 L 403.4 199.5 L 404.1 199.5 L 404.1 205.1 L 403.4 205.1 L 403.4 202.5 L 400.6 202.5 L 400.6 205.1 L 399.8 205.1 L 399.8 199.5 " fill="#000000"/>
<path class="atom-31" d="M 404.1 134.4 L 404.9 134.4 L 404.9 136.7 L 407.7 136.7 L 407.7 134.4 L 408.5 134.4 L 408.5 139.9 L 407.7 139.9 L 407.7 137.4 L 404.9 137.4 L 404.9 139.9 L 404.1 139.9 L 404.1 134.4 " fill="#000000"/>
<path class="atom-32" d="M 412.8 117.1 L 413.6 117.1 L 413.6 119.4 L 416.4 119.4 L 416.4 117.1 L 417.2 117.1 L 417.2 122.6 L 416.4 122.6 L 416.4 120.1 L 413.6 120.1 L 413.6 122.6 L 412.8 122.6 L 412.8 117.1 " fill="#000000"/>
<path class="atom-33" d="M 468.9 189.9 L 469.6 189.9 L 469.6 192.2 L 472.5 192.2 L 472.5 189.9 L 473.2 189.9 L 473.2 195.4 L 472.5 195.4 L 472.5 192.8 L 469.6 192.8 L 469.6 195.4 L 468.9 195.4 L 468.9 189.9 " fill="#000000"/>
<path class="atom-34" d="M 495.5 176.1 L 496.2 176.1 L 496.2 178.5 L 499.0 178.5 L 499.0 176.1 L 499.8 176.1 L 499.8 181.7 L 499.0 181.7 L 499.0 179.1 L 496.2 179.1 L 496.2 181.7 L 495.5 181.7 L 495.5 176.1 " fill="#000000"/>
<path class="atom-35" d="M 495.6 197.1 L 496.3 197.1 L 496.3 199.5 L 499.2 199.5 L 499.2 197.1 L 499.9 197.1 L 499.9 202.7 L 499.2 202.7 L 499.2 200.1 L 496.3 200.1 L 496.3 202.7 L 495.6 202.7 L 495.6 197.1 " fill="#000000"/>
<path class="atom-36" d="M 500.1 162.7 L 500.8 162.7 L 500.8 165.1 L 503.6 165.1 L 503.6 162.7 L 504.4 162.7 L 504.4 168.3 L 503.6 168.3 L 503.6 165.7 L 500.8 165.7 L 500.8 168.3 L 500.1 168.3 L 500.1 162.7 " fill="#000000"/>
<path class="atom-37" d="M 485.6 135.4 L 486.3 135.4 L 486.3 137.8 L 489.2 137.8 L 489.2 135.4 L 489.9 135.4 L 489.9 141.0 L 489.2 141.0 L 489.2 138.4 L 486.3 138.4 L 486.3 141.0 L 485.6 141.0 L 485.6 135.4 " fill="#000000"/>
<path class="atom-38" d="M 380.5 177.3 L 381.3 177.3 L 381.3 179.6 L 384.1 179.6 L 384.1 177.3 L 384.9 177.3 L 384.9 182.8 L 384.1 182.8 L 384.1 180.2 L 381.3 180.2 L 381.3 182.8 L 380.5 182.8 L 380.5 177.3 " fill="#000000"/>
<path class="atom-39" d="M 409.0 150.9 L 409.8 150.9 L 409.8 153.3 L 412.6 153.3 L 412.6 150.9 L 413.4 150.9 L 413.4 156.4 L 412.6 156.4 L 412.6 153.9 L 409.8 153.9 L 409.8 156.4 L 409.0 156.4 L 409.0 150.9 " fill="#000000"/>
<path class="atom-40" d="M 427.6 112.4 L 428.3 112.4 L 428.3 114.7 L 431.2 114.7 L 431.2 112.4 L 431.9 112.4 L 431.9 117.9 L 431.2 117.9 L 431.2 115.3 L 428.3 115.3 L 428.3 117.9 L 427.6 117.9 L 427.6 112.4 " fill="#000000"/>
<path class="atom-41" d="M 452.4 120.5 L 453.2 120.5 L 453.2 122.9 L 456.0 122.9 L 456.0 120.5 L 456.8 120.5 L 456.8 126.1 L 456.0 126.1 L 456.0 123.5 L 453.2 123.5 L 453.2 126.1 L 452.4 126.1 L 452.4 120.5 " fill="#000000"/>
<path class="atom-42" d="M 526.9 173.2 L 527.7 173.2 L 527.7 175.5 L 530.5 175.5 L 530.5 173.2 L 531.3 173.2 L 531.3 178.7 L 530.5 178.7 L 530.5 176.1 L 527.7 176.1 L 527.7 178.7 L 526.9 178.7 L 526.9 173.2 " fill="#000000"/>
<path class="atom-43" d="M 411.4 125.5 L 412.2 125.5 L 412.2 127.9 L 415.0 127.9 L 415.0 125.5 L 415.7 125.5 L 415.7 131.0 L 415.0 131.0 L 415.0 128.5 L 412.2 128.5 L 412.2 131.0 L 411.4 131.0 L 411.4 125.5 " fill="#000000"/>
<path class="atom-44" d="M 560.9 153.7 L 561.6 153.7 L 561.6 156.1 L 564.5 156.1 L 564.5 153.7 L 565.2 153.7 L 565.2 159.3 L 564.5 159.3 L 564.5 156.7 L 561.6 156.7 L 561.6 159.3 L 560.9 159.3 L 560.9 153.7 " fill="#000000"/>
<path class="atom-45" d="M 389.6 98.4 L 390.3 98.4 L 390.3 100.8 L 393.2 100.8 L 393.2 98.4 L 393.9 98.4 L 393.9 104.0 L 393.2 104.0 L 393.2 101.4 L 390.3 101.4 L 390.3 104.0 L 389.6 104.0 L 389.6 98.4 " fill="#000000"/>
<path class="atom-46" d="M 561.1 114.6 L 561.8 114.6 L 561.8 117.0 L 564.6 117.0 L 564.6 114.6 L 565.4 114.6 L 565.4 120.2 L 564.6 120.2 L 564.6 117.6 L 561.8 117.6 L 561.8 120.2 L 561.1 120.2 L 561.1 114.6 " fill="#000000"/>
<path class="atom-47" d="M 527.2 94.9 L 528.0 94.9 L 528.0 97.3 L 530.8 97.3 L 530.8 94.9 L 531.6 94.9 L 531.6 100.5 L 530.8 100.5 L 530.8 97.9 L 528.0 97.9 L 528.0 100.5 L 527.2 100.5 L 527.2 94.9 " fill="#000000"/>
<path class="atom-48" d="M 493.3 114.3 L 494.0 114.3 L 494.0 116.7 L 496.9 116.7 L 496.9 114.3 L 497.6 114.3 L 497.6 119.9 L 496.9 119.9 L 496.9 117.3 L 494.0 117.3 L 494.0 119.9 L 493.3 119.9 L 493.3 114.3 " fill="#000000"/>
<path class="atom-49" d="M 357.5 169.8 L 358.2 169.8 L 358.2 172.1 L 361.1 172.1 L 361.1 169.8 L 361.8 169.8 L 361.8 175.3 L 361.1 175.3 L 361.1 172.7 L 358.2 172.7 L 358.2 175.3 L 357.5 175.3 L 357.5 169.8 " fill="#000000"/>
<path class="atom-50" d="M 350.7 102.4 L 351.4 102.4 L 351.4 104.7 L 354.3 104.7 L 354.3 102.4 L 355.0 102.4 L 355.0 107.9 L 354.3 107.9 L 354.3 105.3 L 351.4 105.3 L 351.4 107.9 L 350.7 107.9 L 350.7 102.4 " fill="#000000"/>
<path class="atom-51" d="M 334.6 138.0 L 335.4 138.0 L 335.4 140.4 L 338.2 140.4 L 338.2 138.0 L 338.9 138.0 L 338.9 143.6 L 338.2 143.6 L 338.2 141.0 L 335.4 141.0 L 335.4 143.6 L 334.6 143.6 L 334.6 138.0 " fill="#000000"/>
<text x="300" y="20" font-size="20" font-family="sans-serif" font-weight="normal" letter-spacing="0" text-anchor="middle" fill="black">thrombin: 1d -&gt; 5</text><text x="300" y="35" font-size="15" font-family="sans-serif" font-weight="normal" letter-spacing="0" text-anchor="middle" fill="black"></text><text x="150" y="285" font-size="15" font-family="sans-serif" font-weight="normal" letter-spacing="0" text-anchor="middle" fill="black">1d</text><text x="450" y="285" font-size="15" font-family="sans-serif" font-weight="normal" letter-spacing="0" text-anchor="middle" fill="black">5</text></svg>
