<?xml version='1.0' encoding='ASCII' standalone='yes'?>
<svg xmlns="http://www.w3.org/2000/svg" xmlns:rdkit="http://www.rdkit.org/xml" xmlns:xlink="http://www.w3.org/1999/xlink" version="1.1" baseProfile="full" xml:space="preserve" width="600px" height="300px" viewBox="0 0 600 300">
<!-- END OF HEADER -->
<rect style="opacity:1.0;fill:#FFFFFF;stroke:none" width="600.0" height="300.0" x="0.0" y="0.0"> </rect>
<path class="bond-0 atom-12 atom-31" d="M 147.4,103.6 L 142.8,87.6" style="fill:none;fill-rule:evenodd;stroke:#000000;stroke-width:2.0px;stroke-linecap:butt;stroke-linejoin:miter;stroke-opacity:1"/>
<path class="bond-1 atom-12 atom-13" d="M 147.4,103.6 L 155.8,105.8" style="fill:none;fill-rule:evenodd;stroke:#000000;stroke-width:2.0px;stroke-linecap:butt;stroke-linejoin:miter;stroke-opacity:1"/>
<path class="bond-1 atom-12 atom-13" d="M 155.8,105.8 L 164.3,107.9" style="fill:none;fill-rule:evenodd;stroke:#0000FF;stroke-width:2.0px;stroke-linecap:butt;stroke-linejoin:miter;stroke-opacity:1"/>
<path class="bond-2 atom-11 atom-12" d="M 133.2,118.3 L 147.4,103.6" style="fill:none;fill-rule:evenodd;stroke:#000000;stroke-width:2.0px;stroke-linecap:butt;stroke-linejoin:miter;stroke-opacity:1"/>
<path class="bond-2 atom-11 atom-12" d="M 138.2,118.9 L 148.2,108.7" style="fill:none;fill-rule:evenodd;stroke:#000000;stroke-width:2.0px;stroke-linecap:butt;stroke-linejoin:miter;stroke-opacity:1"/>
<path class="bond-3 atom-13 atom-14" d="M 168.1,112.2 L 170.4,120.2" style="fill:none;fill-rule:evenodd;stroke:#0000FF;stroke-width:2.0px;stroke-linecap:butt;stroke-linejoin:miter;stroke-opacity:1"/>
<path class="bond-3 atom-13 atom-14" d="M 170.4,120.2 L 172.7,128.2" style="fill:none;fill-rule:evenodd;stroke:#000000;stroke-width:2.0px;stroke-linecap:butt;stroke-linejoin:miter;stroke-opacity:1"/>
<path class="bond-3 atom-13 atom-14" d="M 164.9,115.7 L 166.5,121.3" style="fill:none;fill-rule:evenodd;stroke:#0000FF;stroke-width:2.0px;stroke-linecap:butt;stroke-linejoin:miter;stroke-opacity:1"/>
<path class="bond-3 atom-13 atom-14" d="M 166.5,121.3 L 168.1,126.9" style="fill:none;fill-rule:evenodd;stroke:#000000;stroke-width:2.0px;stroke-linecap:butt;stroke-linejoin:miter;stroke-opacity:1"/>
<path class="bond-4 atom-22 atom-38" d="M 246.6,185.7 L 256.0,198.7" style="fill:none;fill-rule:evenodd;stroke:#000000;stroke-width:2.0px;stroke-linecap:butt;stroke-linejoin:miter;stroke-opacity:1"/>
<path class="bond-5 atom-11 atom-30" d="M 133.2,118.3 L 116.3,114.0" style="fill:none;fill-rule:evenodd;stroke:#000000;stroke-width:2.0px;stroke-linecap:butt;stroke-linejoin:miter;stroke-opacity:1"/>
<path class="bond-6 atom-10 atom-11" d="M 138.7,137.9 L 133.2,118.3" style="fill:none;fill-rule:evenodd;stroke:#000000;stroke-width:2.0px;stroke-linecap:butt;stroke-linejoin:miter;stroke-opacity:1"/>
<path class="bond-7 atom-22 atom-36" d="M 246.6,185.7 L 236.1,195.5" style="fill:none;fill-rule:evenodd;stroke:#000000;stroke-width:2.0px;stroke-linecap:butt;stroke-linejoin:miter;stroke-opacity:1"/>
<path class="bond-8 atom-16 atom-33" d="M 195.3,130.2 L 199.5,125.9" style="fill:none;fill-rule:evenodd;stroke:#0000FF;stroke-width:2.0px;stroke-linecap:butt;stroke-linejoin:miter;stroke-opacity:1"/>
<path class="bond-8 atom-16 atom-33" d="M 199.5,125.9 L 203.7,121.6" style="fill:none;fill-rule:evenodd;stroke:#000000;stroke-width:2.0px;stroke-linecap:butt;stroke-linejoin:miter;stroke-opacity:1"/>
<path class="bond-9 atom-14 atom-16" d="M 172.7,128.2 L 181.1,130.3" style="fill:none;fill-rule:evenodd;stroke:#000000;stroke-width:2.0px;stroke-linecap:butt;stroke-linejoin:miter;stroke-opacity:1"/>
<path class="bond-9 atom-14 atom-16" d="M 181.1,130.3 L 189.6,132.5" style="fill:none;fill-rule:evenodd;stroke:#0000FF;stroke-width:2.0px;stroke-linecap:butt;stroke-linejoin:miter;stroke-opacity:1"/>
<path class="bond-10 atom-14 atom-15" d="M 172.7,128.2 L 158.5,142.8" style="fill:none;fill-rule:evenodd;stroke:#000000;stroke-width:2.0px;stroke-linecap:butt;stroke-linejoin:miter;stroke-opacity:1"/>
<path class="bond-11 atom-21 atom-22" d="M 234.7,169.2 L 246.6,185.7" style="fill:none;fill-rule:evenodd;stroke:#000000;stroke-width:2.0px;stroke-linecap:butt;stroke-linejoin:miter;stroke-opacity:1"/>
<path class="bond-12 atom-22 atom-37" d="M 246.6,185.7 L 260.2,175.9" style="fill:none;fill-rule:evenodd;stroke:#000000;stroke-width:2.0px;stroke-linecap:butt;stroke-linejoin:miter;stroke-opacity:1"/>
<path class="bond-13 atom-16 atom-17" d="M 193.5,136.7 L 195.8,144.8" style="fill:none;fill-rule:evenodd;stroke:#0000FF;stroke-width:2.0px;stroke-linecap:butt;stroke-linejoin:miter;stroke-opacity:1"/>
<path class="bond-13 atom-16 atom-17" d="M 195.8,144.8 L 198.0,152.8" style="fill:none;fill-rule:evenodd;stroke:#000000;stroke-width:2.0px;stroke-linecap:butt;stroke-linejoin:miter;stroke-opacity:1"/>
<path class="bond-14 atom-21 atom-25" d="M 234.7,169.2 L 243.8,156.9 L 246.7,159.7 Z" style="fill:#000000;fill-rule:evenodd;fill-opacity:1;stroke:#000000;stroke-width:1.0px;stroke-linecap:butt;stroke-linejoin:miter;stroke-opacity:1;"/>
<path class="bond-15 atom-7 atom-8" d="M 102.8,148.1 L 100.6,140.1" style="fill:none;fill-rule:evenodd;stroke:#000000;stroke-width:2.0px;stroke-linecap:butt;stroke-linejoin:miter;stroke-opacity:1"/>
<path class="bond-15 atom-7 atom-8" d="M 100.6,140.1 L 98.3,132.1" style="fill:none;fill-rule:evenodd;stroke:#FF0000;stroke-width:2.0px;stroke-linecap:butt;stroke-linejoin:miter;stroke-opacity:1"/>
<path class="bond-15 atom-7 atom-8" d="M 106.7,147.0 L 104.5,139.0" style="fill:none;fill-rule:evenodd;stroke:#000000;stroke-width:2.0px;stroke-linecap:butt;stroke-linejoin:miter;stroke-opacity:1"/>
<path class="bond-15 atom-7 atom-8" d="M 104.5,139.0 L 102.2,131.0" style="fill:none;fill-rule:evenodd;stroke:#FF0000;stroke-width:2.0px;stroke-linecap:butt;stroke-linejoin:miter;stroke-opacity:1"/>
<path class="bond-16 atom-10 atom-15" d="M 138.7,137.9 L 158.5,142.8" style="fill:none;fill-rule:evenodd;stroke:#000000;stroke-width:2.0px;stroke-linecap:butt;stroke-linejoin:miter;stroke-opacity:1"/>
<path class="bond-16 atom-10 atom-15" d="M 142.7,134.7 L 156.5,138.1" style="fill:none;fill-rule:evenodd;stroke:#000000;stroke-width:2.0px;stroke-linecap:butt;stroke-linejoin:miter;stroke-opacity:1"/>
<path class="bond-17 atom-9 atom-10" d="M 127.4,149.5 L 133.1,143.7" style="fill:none;fill-rule:evenodd;stroke:#0000FF;stroke-width:2.0px;stroke-linecap:butt;stroke-linejoin:miter;stroke-opacity:1"/>
<path class="bond-17 atom-9 atom-10" d="M 133.1,143.7 L 138.7,137.9" style="fill:none;fill-rule:evenodd;stroke:#000000;stroke-width:2.0px;stroke-linecap:butt;stroke-linejoin:miter;stroke-opacity:1"/>
<path class="bond-18 atom-19 atom-21" d="M 217.8,157.8 L 234.7,169.2" style="fill:none;fill-rule:evenodd;stroke:#000000;stroke-width:2.0px;stroke-linecap:butt;stroke-linejoin:miter;stroke-opacity:1"/>
<path class="bond-19 atom-20 atom-21" d="M 216.3,178.1 L 234.7,169.2" style="fill:none;fill-rule:evenodd;stroke:#000000;stroke-width:2.0px;stroke-linecap:butt;stroke-linejoin:miter;stroke-opacity:1"/>
<path class="bond-20 atom-15 atom-32" d="M 158.5,142.8 L 163.1,158.9" style="fill:none;fill-rule:evenodd;stroke:#000000;stroke-width:2.0px;stroke-linecap:butt;stroke-linejoin:miter;stroke-opacity:1"/>
<path class="bond-21 atom-17 atom-19" d="M 198.0,152.8 L 217.8,157.8" style="fill:none;fill-rule:evenodd;stroke:#000000;stroke-width:2.0px;stroke-linecap:butt;stroke-linejoin:miter;stroke-opacity:1"/>
<path class="bond-22 atom-17 atom-18" d="M 199.5,154.2 L 194.1,159.8" style="fill:none;fill-rule:evenodd;stroke:#000000;stroke-width:2.0px;stroke-linecap:butt;stroke-linejoin:miter;stroke-opacity:1"/>
<path class="bond-22 atom-17 atom-18" d="M 194.1,159.8 L 188.6,165.4" style="fill:none;fill-rule:evenodd;stroke:#FF0000;stroke-width:2.0px;stroke-linecap:butt;stroke-linejoin:miter;stroke-opacity:1"/>
<path class="bond-22 atom-17 atom-18" d="M 196.6,151.4 L 191.1,157.0" style="fill:none;fill-rule:evenodd;stroke:#000000;stroke-width:2.0px;stroke-linecap:butt;stroke-linejoin:miter;stroke-opacity:1"/>
<path class="bond-22 atom-17 atom-18" d="M 191.1,157.0 L 185.7,162.6" style="fill:none;fill-rule:evenodd;stroke:#FF0000;stroke-width:2.0px;stroke-linecap:butt;stroke-linejoin:miter;stroke-opacity:1"/>
<path class="bond-23 atom-19 atom-24" d="M 217.8,157.8 L 222.4,142.6 L 226.1,144.2 Z" style="fill:#000000;fill-rule:evenodd;fill-opacity:1;stroke:#000000;stroke-width:1.0px;stroke-linecap:butt;stroke-linejoin:miter;stroke-opacity:1;"/>
<path class="bond-24 atom-19 atom-20" d="M 217.8,157.8 L 216.3,178.1" style="fill:none;fill-rule:evenodd;stroke:#000000;stroke-width:2.0px;stroke-linecap:butt;stroke-linejoin:miter;stroke-opacity:1"/>
<path class="bond-25 atom-7 atom-9" d="M 104.8,147.5 L 113.2,149.6" style="fill:none;fill-rule:evenodd;stroke:#000000;stroke-width:2.0px;stroke-linecap:butt;stroke-linejoin:miter;stroke-opacity:1"/>
<path class="bond-25 atom-7 atom-9" d="M 113.2,149.6 L 121.7,151.8" style="fill:none;fill-rule:evenodd;stroke:#0000FF;stroke-width:2.0px;stroke-linecap:butt;stroke-linejoin:miter;stroke-opacity:1"/>
<path class="bond-26 atom-3 atom-7" d="M 90.6,162.1 L 104.8,147.5" style="fill:none;fill-rule:evenodd;stroke:#000000;stroke-width:2.0px;stroke-linecap:butt;stroke-linejoin:miter;stroke-opacity:1"/>
<path class="bond-27 atom-9 atom-29" d="M 125.6,156.0 L 127.3,162.3" style="fill:none;fill-rule:evenodd;stroke:#0000FF;stroke-width:2.0px;stroke-linecap:butt;stroke-linejoin:miter;stroke-opacity:1"/>
<path class="bond-27 atom-9 atom-29" d="M 127.3,162.3 L 129.1,168.5" style="fill:none;fill-rule:evenodd;stroke:#000000;stroke-width:2.0px;stroke-linecap:butt;stroke-linejoin:miter;stroke-opacity:1"/>
<path class="bond-28 atom-2 atom-23" d="M 70.8,157.2 L 68.6,149.3" style="fill:none;fill-rule:evenodd;stroke:#000000;stroke-width:2.0px;stroke-linecap:butt;stroke-linejoin:miter;stroke-opacity:1"/>
<path class="bond-28 atom-2 atom-23" d="M 68.6,149.3 L 66.3,141.4" style="fill:none;fill-rule:evenodd;stroke:#00CC00;stroke-width:2.0px;stroke-linecap:butt;stroke-linejoin:miter;stroke-opacity:1"/>
<path class="bond-29 atom-20 atom-34" d="M 216.3,178.1 L 218.6,192.7" style="fill:none;fill-rule:evenodd;stroke:#000000;stroke-width:2.0px;stroke-linecap:butt;stroke-linejoin:miter;stroke-opacity:1"/>
<path class="bond-30 atom-20 atom-35" d="M 216.3,178.1 L 199.0,179.9" style="fill:none;fill-rule:evenodd;stroke:#000000;stroke-width:2.0px;stroke-linecap:butt;stroke-linejoin:miter;stroke-opacity:1"/>
<path class="bond-31 atom-2 atom-3" d="M 70.8,157.2 L 90.6,162.1" style="fill:none;fill-rule:evenodd;stroke:#000000;stroke-width:2.0px;stroke-linecap:butt;stroke-linejoin:miter;stroke-opacity:1"/>
<path class="bond-31 atom-2 atom-3" d="M 72.8,161.9 L 86.6,165.3" style="fill:none;fill-rule:evenodd;stroke:#000000;stroke-width:2.0px;stroke-linecap:butt;stroke-linejoin:miter;stroke-opacity:1"/>
<path class="bond-32 atom-3 atom-4" d="M 90.6,162.1 L 96.2,181.7" style="fill:none;fill-rule:evenodd;stroke:#000000;stroke-width:2.0px;stroke-linecap:butt;stroke-linejoin:miter;stroke-opacity:1"/>
<path class="bond-33 atom-1 atom-2" d="M 56.6,171.8 L 70.8,157.2" style="fill:none;fill-rule:evenodd;stroke:#000000;stroke-width:2.0px;stroke-linecap:butt;stroke-linejoin:miter;stroke-opacity:1"/>
<path class="bond-34 atom-4 atom-6" d="M 96.2,181.7 L 104.6,183.9" style="fill:none;fill-rule:evenodd;stroke:#000000;stroke-width:2.0px;stroke-linecap:butt;stroke-linejoin:miter;stroke-opacity:1"/>
<path class="bond-34 atom-4 atom-6" d="M 104.6,183.9 L 113.0,186.0" style="fill:none;fill-rule:evenodd;stroke:#00CC00;stroke-width:2.0px;stroke-linecap:butt;stroke-linejoin:miter;stroke-opacity:1"/>
<path class="bond-35 atom-4 atom-5" d="M 96.2,181.7 L 82.0,196.4" style="fill:none;fill-rule:evenodd;stroke:#000000;stroke-width:2.0px;stroke-linecap:butt;stroke-linejoin:miter;stroke-opacity:1"/>
<path class="bond-35 atom-4 atom-5" d="M 91.1,181.1 L 81.2,191.3" style="fill:none;fill-rule:evenodd;stroke:#000000;stroke-width:2.0px;stroke-linecap:butt;stroke-linejoin:miter;stroke-opacity:1"/>
<path class="bond-36 atom-1 atom-27" d="M 56.6,171.8 L 39.8,167.6" style="fill:none;fill-rule:evenodd;stroke:#000000;stroke-width:2.0px;stroke-linecap:butt;stroke-linejoin:miter;stroke-opacity:1"/>
<path class="bond-37 atom-0 atom-1" d="M 62.2,191.4 L 56.6,171.8" style="fill:none;fill-rule:evenodd;stroke:#000000;stroke-width:2.0px;stroke-linecap:butt;stroke-linejoin:miter;stroke-opacity:1"/>
<path class="bond-37 atom-0 atom-1" d="M 65.3,187.3 L 61.4,173.6" style="fill:none;fill-rule:evenodd;stroke:#000000;stroke-width:2.0px;stroke-linecap:butt;stroke-linejoin:miter;stroke-opacity:1"/>
<path class="bond-38 atom-0 atom-5" d="M 62.2,191.4 L 82.0,196.4" style="fill:none;fill-rule:evenodd;stroke:#000000;stroke-width:2.0px;stroke-linecap:butt;stroke-linejoin:miter;stroke-opacity:1"/>
<path class="bond-39 atom-5 atom-28" d="M 82.0,196.4 L 86.5,212.4" style="fill:none;fill-rule:evenodd;stroke:#000000;stroke-width:2.0px;stroke-linecap:butt;stroke-linejoin:miter;stroke-opacity:1"/>
<path class="bond-40 atom-0 atom-26" d="M 62.2,191.4 L 50.9,203.0" style="fill:none;fill-rule:evenodd;stroke:#000000;stroke-width:2.0px;stroke-linecap:butt;stroke-linejoin:miter;stroke-opacity:1"/>
<path class="atom-6" d="M 113.7 186.9 Q 113.7 185.5, 114.4 184.7 Q 115.1 184.0, 116.3 184.0 Q 117.5 184.0, 118.2 184.8 L 117.6 185.3 Q 117.2 184.6, 116.3 184.6 Q 115.5 184.6, 115.0 185.2 Q 114.5 185.8, 114.5 186.9 Q 114.5 188.1, 115.0 188.6 Q 115.5 189.2, 116.4 189.2 Q 117.1 189.2, 117.8 188.9 L 118.0 189.5 Q 117.7 189.7, 117.3 189.8 Q 116.8 189.9, 116.3 189.9 Q 115.1 189.9, 114.4 189.1 Q 113.7 188.4, 113.7 186.9 " fill="#00CC00"/>
<path class="atom-6" d="M 118.5 183.6 L 119.2 183.6 L 119.2 189.8 L 118.5 189.8 L 118.5 183.6 " fill="#00CC00"/>
<path class="atom-8" d="M 96.6 127.9 Q 96.6 126.5, 97.2 125.8 Q 97.9 125.0, 99.2 125.0 Q 100.5 125.0, 101.2 125.8 Q 101.9 126.5, 101.9 127.9 Q 101.9 129.3, 101.2 130.1 Q 100.5 130.9, 99.2 130.9 Q 97.9 130.9, 97.2 130.1 Q 96.6 129.3, 96.6 127.9 M 99.2 130.3 Q 100.1 130.3, 100.6 129.7 Q 101.0 129.1, 101.0 127.9 Q 101.0 126.8, 100.6 126.2 Q 100.1 125.6, 99.2 125.6 Q 98.3 125.6, 97.8 126.2 Q 97.4 126.8, 97.4 127.9 Q 97.4 129.1, 97.8 129.7 Q 98.3 130.3, 99.2 130.3 " fill="#FF0000"/>
<path class="atom-9" d="M 123.3 149.6 L 125.2 152.7 Q 125.4 153.0, 125.7 153.5 Q 126.0 154.1, 126.0 154.1 L 126.0 149.6 L 126.7 149.6 L 126.7 155.4 L 125.9 155.4 L 123.9 152.0 Q 123.7 151.6, 123.4 151.2 Q 123.2 150.7, 123.1 150.6 L 123.1 155.4 L 122.4 155.4 L 122.4 149.6 L 123.3 149.6 " fill="#0000FF"/>
<path class="atom-13" d="M 165.8 105.7 L 167.7 108.8 Q 167.9 109.1, 168.2 109.6 Q 168.5 110.2, 168.5 110.2 L 168.5 105.7 L 169.3 105.7 L 169.3 111.5 L 168.5 111.5 L 166.5 108.1 Q 166.3 107.8, 166.0 107.3 Q 165.8 106.9, 165.7 106.7 L 165.7 111.5 L 164.9 111.5 L 164.9 105.7 L 165.8 105.7 " fill="#0000FF"/>
<path class="atom-16" d="M 191.2 130.3 L 193.1 133.4 Q 193.3 133.7, 193.6 134.2 Q 193.9 134.7, 193.9 134.8 L 193.9 130.3 L 194.6 130.3 L 194.6 136.1 L 193.9 136.1 L 191.8 132.7 Q 191.6 132.3, 191.3 131.9 Q 191.1 131.4, 191.0 131.3 L 191.0 136.1 L 190.3 136.1 L 190.3 130.3 L 191.2 130.3 " fill="#0000FF"/>
<path class="atom-18" d="M 181.2 167.4 Q 181.2 166.0, 181.9 165.3 Q 182.6 164.5, 183.8 164.5 Q 185.1 164.5, 185.8 165.3 Q 186.5 166.0, 186.5 167.4 Q 186.5 168.8, 185.8 169.6 Q 185.1 170.4, 183.8 170.4 Q 182.6 170.4, 181.9 169.6 Q 181.2 168.8, 181.2 167.4 M 183.8 169.8 Q 184.7 169.8, 185.2 169.2 Q 185.7 168.6, 185.7 167.4 Q 185.7 166.3, 185.2 165.7 Q 184.7 165.1, 183.8 165.1 Q 183.0 165.1, 182.5 165.7 Q 182.0 166.3, 182.0 167.4 Q 182.0 168.6, 182.5 169.2 Q 183.0 169.8, 183.8 169.8 " fill="#FF0000"/>
<path class="atom-23" d="M 63.0 137.8 Q 63.0 136.3, 63.7 135.6 Q 64.4 134.8, 65.7 134.8 Q 66.8 134.8, 67.5 135.7 L 66.9 136.1 Q 66.5 135.5, 65.7 135.5 Q 64.8 135.5, 64.3 136.1 Q 63.9 136.7, 63.9 137.8 Q 63.9 138.9, 64.3 139.5 Q 64.8 140.1, 65.7 140.1 Q 66.4 140.1, 67.1 139.7 L 67.4 140.3 Q 67.0 140.5, 66.6 140.6 Q 66.1 140.7, 65.6 140.7 Q 64.4 140.7, 63.7 140.0 Q 63.0 139.2, 63.0 137.8 " fill="#00CC00"/>
<path class="atom-23" d="M 67.8 134.5 L 68.6 134.5 L 68.6 140.7 L 67.8 140.7 L 67.8 134.5 " fill="#00CC00"/>
<path class="atom-24" d="M 223.9 136.3 L 224.7 136.3 L 224.7 138.7 L 227.6 138.7 L 227.6 136.3 L 228.4 136.3 L 228.4 142.0 L 227.6 142.0 L 227.6 139.4 L 224.7 139.4 L 224.7 142.0 L 223.9 142.0 L 223.9 136.3 " fill="#000000"/>
<path class="atom-25" d="M 246.6 151.7 L 247.4 151.7 L 247.4 154.1 L 250.3 154.1 L 250.3 151.7 L 251.1 151.7 L 251.1 157.5 L 250.3 157.5 L 250.3 154.8 L 247.4 154.8 L 247.4 157.5 L 246.6 157.5 L 246.6 151.7 " fill="#000000"/>
<path class="atom-26" d="M 45.8 203.1 L 46.5 203.1 L 46.5 205.6 L 49.5 205.6 L 49.5 203.1 L 50.3 203.1 L 50.3 208.9 L 49.5 208.9 L 49.5 206.2 L 46.5 206.2 L 46.5 208.9 L 45.8 208.9 L 45.8 203.1 " fill="#000000"/>
<path class="atom-27" d="M 34.6 163.9 L 35.4 163.9 L 35.4 166.4 L 38.3 166.4 L 38.3 163.9 L 39.1 163.9 L 39.1 169.7 L 38.3 169.7 L 38.3 167.0 L 35.4 167.0 L 35.4 169.7 L 34.6 169.7 L 34.6 163.9 " fill="#000000"/>
<path class="atom-28" d="M 85.3 213.1 L 86.1 213.1 L 86.1 215.5 L 89.0 215.5 L 89.0 213.1 L 89.8 213.1 L 89.8 218.9 L 89.0 218.9 L 89.0 216.2 L 86.1 216.2 L 86.1 218.9 L 85.3 218.9 L 85.3 213.1 " fill="#000000"/>
<path class="atom-29" d="M 127.9 169.2 L 128.6 169.2 L 128.6 171.7 L 131.6 171.7 L 131.6 169.2 L 132.4 169.2 L 132.4 175.0 L 131.6 175.0 L 131.6 172.3 L 128.6 172.3 L 128.6 175.0 L 127.9 175.0 L 127.9 169.2 " fill="#000000"/>
<path class="atom-30" d="M 111.1 110.4 L 111.9 110.4 L 111.9 112.8 L 114.9 112.8 L 114.9 110.4 L 115.7 110.4 L 115.7 116.2 L 114.9 116.2 L 114.9 113.5 L 111.9 113.5 L 111.9 116.2 L 111.1 116.2 L 111.1 110.4 " fill="#000000"/>
<path class="atom-31" d="M 139.5 81.1 L 140.3 81.1 L 140.3 83.6 L 143.3 83.6 L 143.3 81.1 L 144.0 81.1 L 144.0 86.9 L 143.3 86.9 L 143.3 84.2 L 140.3 84.2 L 140.3 86.9 L 139.5 86.9 L 139.5 81.1 " fill="#000000"/>
<path class="atom-32" d="M 161.8 159.6 L 162.6 159.6 L 162.6 162.0 L 165.6 162.0 L 165.6 159.6 L 166.3 159.6 L 166.3 165.3 L 165.6 165.3 L 165.6 162.7 L 162.6 162.7 L 162.6 165.3 L 161.8 165.3 L 161.8 159.6 " fill="#000000"/>
<path class="atom-33" d="M 204.4 115.7 L 205.2 115.7 L 205.2 118.1 L 208.1 118.1 L 208.1 115.7 L 208.9 115.7 L 208.9 121.4 L 208.1 121.4 L 208.1 118.8 L 205.2 118.8 L 205.2 121.4 L 204.4 121.4 L 204.4 115.7 " fill="#000000"/>
<path class="atom-34" d="M 216.9 193.3 L 217.7 193.3 L 217.7 195.8 L 220.6 195.8 L 220.6 193.3 L 221.4 193.3 L 221.4 199.1 L 220.6 199.1 L 220.6 196.4 L 217.7 196.4 L 217.7 199.1 L 216.9 199.1 L 216.9 193.3 " fill="#000000"/>
<path class="atom-35" d="M 193.8 177.3 L 194.6 177.3 L 194.6 179.7 L 197.5 179.7 L 197.5 177.3 L 198.3 177.3 L 198.3 183.1 L 197.5 183.1 L 197.5 180.4 L 194.6 180.4 L 194.6 183.1 L 193.8 183.1 L 193.8 177.3 " fill="#000000"/>
<path class="atom-36" d="M 230.9 195.3 L 231.7 195.3 L 231.7 197.8 L 234.6 197.8 L 234.6 195.3 L 235.4 195.3 L 235.4 201.1 L 234.6 201.1 L 234.6 198.4 L 231.7 198.4 L 231.7 201.1 L 230.9 201.1 L 230.9 195.3 " fill="#000000"/>
<path class="atom-37" d="M 260.9 170.9 L 261.7 170.9 L 261.7 173.3 L 264.6 173.3 L 264.6 170.9 L 265.4 170.9 L 265.4 176.7 L 264.6 176.7 L 264.6 174.0 L 261.7 174.0 L 261.7 176.7 L 260.9 176.7 L 260.9 170.9 " fill="#000000"/>
<path class="atom-38" d="M 256.3 199.3 L 257.1 199.3 L 257.1 201.8 L 260.0 201.8 L 260.0 199.3 L 260.8 199.3 L 260.8 205.1 L 260.0 205.1 L 260.0 202.4 L 257.1 202.4 L 257.1 205.1 L 256.3 205.1 L 256.3 199.3 " fill="#000000"/>
<path class="bond-0 atom-0 atom-1" d="M 366.9,113.6 L 363.1,133.6" style="fill:none;fill-rule:evenodd;stroke:#000000;stroke-width:2.0px;stroke-linecap:butt;stroke-linejoin:miter;stroke-opacity:1"/>
<path class="bond-0 atom-0 atom-1" d="M 370.3,117.3 L 367.7,131.4" style="fill:none;fill-rule:evenodd;stroke:#000000;stroke-width:2.0px;stroke-linecap:butt;stroke-linejoin:miter;stroke-opacity:1"/>
<path class="bond-1 atom-0 atom-5" d="M 366.9,113.6 L 386.1,106.8" style="fill:none;fill-rule:evenodd;stroke:#000000;stroke-width:2.0px;stroke-linecap:butt;stroke-linejoin:miter;stroke-opacity:1"/>
<path class="bond-2 atom-0 atom-26" d="M 366.9,113.6 L 354.3,102.8" style="fill:none;fill-rule:evenodd;stroke:#000000;stroke-width:2.0px;stroke-linecap:butt;stroke-linejoin:miter;stroke-opacity:1"/>
<path class="bond-3 atom-1 atom-2" d="M 363.1,133.6 L 378.6,146.9" style="fill:none;fill-rule:evenodd;stroke:#000000;stroke-width:2.0px;stroke-linecap:butt;stroke-linejoin:miter;stroke-opacity:1"/>
<path class="bond-4 atom-1 atom-27" d="M 363.1,133.6 L 346.8,139.4" style="fill:none;fill-rule:evenodd;stroke:#000000;stroke-width:2.0px;stroke-linecap:butt;stroke-linejoin:miter;stroke-opacity:1"/>
<path class="bond-5 atom-2 atom-23" d="M 378.6,146.9 L 377.0,155.2" style="fill:none;fill-rule:evenodd;stroke:#000000;stroke-width:2.0px;stroke-linecap:butt;stroke-linejoin:miter;stroke-opacity:1"/>
<path class="bond-5 atom-2 atom-23" d="M 377.0,155.2 L 375.5,163.5" style="fill:none;fill-rule:evenodd;stroke:#00CC00;stroke-width:2.0px;stroke-linecap:butt;stroke-linejoin:miter;stroke-opacity:1"/>
<path class="bond-6 atom-2 atom-3" d="M 378.6,146.9 L 397.8,140.1" style="fill:none;fill-rule:evenodd;stroke:#000000;stroke-width:2.0px;stroke-linecap:butt;stroke-linejoin:miter;stroke-opacity:1"/>
<path class="bond-6 atom-2 atom-3" d="M 380.1,142.0 L 393.6,137.3" style="fill:none;fill-rule:evenodd;stroke:#000000;stroke-width:2.0px;stroke-linecap:butt;stroke-linejoin:miter;stroke-opacity:1"/>
<path class="bond-7 atom-3 atom-7" d="M 397.8,140.1 L 413.3,153.4" style="fill:none;fill-rule:evenodd;stroke:#000000;stroke-width:2.0px;stroke-linecap:butt;stroke-linejoin:miter;stroke-opacity:1"/>
<path class="bond-8 atom-3 atom-4" d="M 397.8,140.1 L 401.6,120.1" style="fill:none;fill-rule:evenodd;stroke:#000000;stroke-width:2.0px;stroke-linecap:butt;stroke-linejoin:miter;stroke-opacity:1"/>
<path class="bond-9 atom-4 atom-6" d="M 401.6,120.1 L 409.7,117.2" style="fill:none;fill-rule:evenodd;stroke:#000000;stroke-width:2.0px;stroke-linecap:butt;stroke-linejoin:miter;stroke-opacity:1"/>
<path class="bond-9 atom-4 atom-6" d="M 409.7,117.2 L 417.9,114.3" style="fill:none;fill-rule:evenodd;stroke:#00CC00;stroke-width:2.0px;stroke-linecap:butt;stroke-linejoin:miter;stroke-opacity:1"/>
<path class="bond-10 atom-4 atom-5" d="M 401.6,120.1 L 386.1,106.8" style="fill:none;fill-rule:evenodd;stroke:#000000;stroke-width:2.0px;stroke-linecap:butt;stroke-linejoin:miter;stroke-opacity:1"/>
<path class="bond-10 atom-4 atom-5" d="M 396.6,121.2 L 385.8,111.9" style="fill:none;fill-rule:evenodd;stroke:#000000;stroke-width:2.0px;stroke-linecap:butt;stroke-linejoin:miter;stroke-opacity:1"/>
<path class="bond-11 atom-5 atom-28" d="M 386.1,106.8 L 389.2,90.3" style="fill:none;fill-rule:evenodd;stroke:#000000;stroke-width:2.0px;stroke-linecap:butt;stroke-linejoin:miter;stroke-opacity:1"/>
<path class="bond-12 atom-7 atom-8" d="M 415.3,153.8 L 413.8,162.0" style="fill:none;fill-rule:evenodd;stroke:#000000;stroke-width:2.0px;stroke-linecap:butt;stroke-linejoin:miter;stroke-opacity:1"/>
<path class="bond-12 atom-7 atom-8" d="M 413.8,162.0 L 412.2,170.2" style="fill:none;fill-rule:evenodd;stroke:#FF0000;stroke-width:2.0px;stroke-linecap:butt;stroke-linejoin:miter;stroke-opacity:1"/>
<path class="bond-12 atom-7 atom-8" d="M 411.3,153.0 L 409.7,161.2" style="fill:none;fill-rule:evenodd;stroke:#000000;stroke-width:2.0px;stroke-linecap:butt;stroke-linejoin:miter;stroke-opacity:1"/>
<path class="bond-12 atom-7 atom-8" d="M 409.7,161.2 L 408.2,169.5" style="fill:none;fill-rule:evenodd;stroke:#FF0000;stroke-width:2.0px;stroke-linecap:butt;stroke-linejoin:miter;stroke-opacity:1"/>
<path class="bond-13 atom-7 atom-9" d="M 413.3,153.4 L 421.5,150.5" style="fill:none;fill-rule:evenodd;stroke:#000000;stroke-width:2.0px;stroke-linecap:butt;stroke-linejoin:miter;stroke-opacity:1"/>
<path class="bond-13 atom-7 atom-9" d="M 421.5,150.5 L 429.7,147.6" style="fill:none;fill-rule:evenodd;stroke:#0000FF;stroke-width:2.0px;stroke-linecap:butt;stroke-linejoin:miter;stroke-opacity:1"/>
<path class="bond-14 atom-9 atom-10" d="M 435.4,149.1 L 441.7,154.5" style="fill:none;fill-rule:evenodd;stroke:#0000FF;stroke-width:2.0px;stroke-linecap:butt;stroke-linejoin:miter;stroke-opacity:1"/>
<path class="bond-14 atom-9 atom-10" d="M 441.7,154.5 L 448.0,159.9" style="fill:none;fill-rule:evenodd;stroke:#000000;stroke-width:2.0px;stroke-linecap:butt;stroke-linejoin:miter;stroke-opacity:1"/>
<path class="bond-15 atom-9 atom-29" d="M 433.2,143.1 L 434.4,136.6" style="fill:none;fill-rule:evenodd;stroke:#0000FF;stroke-width:2.0px;stroke-linecap:butt;stroke-linejoin:miter;stroke-opacity:1"/>
<path class="bond-15 atom-9 atom-29" d="M 434.4,136.6 L 435.6,130.1" style="fill:none;fill-rule:evenodd;stroke:#000000;stroke-width:2.0px;stroke-linecap:butt;stroke-linejoin:miter;stroke-opacity:1"/>
<path class="bond-16 atom-10 atom-11" d="M 448.0,159.9 L 444.2,179.9" style="fill:none;fill-rule:evenodd;stroke:#000000;stroke-width:2.0px;stroke-linecap:butt;stroke-linejoin:miter;stroke-opacity:1"/>
<path class="bond-16 atom-10 atom-11" d="M 451.4,163.6 L 448.8,177.7" style="fill:none;fill-rule:evenodd;stroke:#000000;stroke-width:2.0px;stroke-linecap:butt;stroke-linejoin:miter;stroke-opacity:1"/>
<path class="bond-17 atom-10 atom-15" d="M 448.0,159.9 L 467.2,153.1" style="fill:none;fill-rule:evenodd;stroke:#000000;stroke-width:2.0px;stroke-linecap:butt;stroke-linejoin:miter;stroke-opacity:1"/>
<path class="bond-18 atom-11 atom-12" d="M 444.2,179.9 L 459.7,193.2" style="fill:none;fill-rule:evenodd;stroke:#000000;stroke-width:2.0px;stroke-linecap:butt;stroke-linejoin:miter;stroke-opacity:1"/>
<path class="bond-19 atom-11 atom-30" d="M 444.2,179.9 L 427.9,185.7" style="fill:none;fill-rule:evenodd;stroke:#000000;stroke-width:2.0px;stroke-linecap:butt;stroke-linejoin:miter;stroke-opacity:1"/>
<path class="bond-20 atom-12 atom-31" d="M 459.7,193.2 L 456.6,209.7" style="fill:none;fill-rule:evenodd;stroke:#000000;stroke-width:2.0px;stroke-linecap:butt;stroke-linejoin:miter;stroke-opacity:1"/>
<path class="bond-21 atom-12 atom-13" d="M 459.7,193.2 L 467.9,190.3" style="fill:none;fill-rule:evenodd;stroke:#000000;stroke-width:2.0px;stroke-linecap:butt;stroke-linejoin:miter;stroke-opacity:1"/>
<path class="bond-21 atom-12 atom-13" d="M 467.9,190.3 L 476.1,187.4" style="fill:none;fill-rule:evenodd;stroke:#0000FF;stroke-width:2.0px;stroke-linecap:butt;stroke-linejoin:miter;stroke-opacity:1"/>
<path class="bond-21 atom-12 atom-13" d="M 460.8,188.5 L 466.5,186.5" style="fill:none;fill-rule:evenodd;stroke:#000000;stroke-width:2.0px;stroke-linecap:butt;stroke-linejoin:miter;stroke-opacity:1"/>
<path class="bond-21 atom-12 atom-13" d="M 466.5,186.5 L 472.3,184.4" style="fill:none;fill-rule:evenodd;stroke:#0000FF;stroke-width:2.0px;stroke-linecap:butt;stroke-linejoin:miter;stroke-opacity:1"/>
<path class="bond-22 atom-13 atom-14" d="M 479.6,182.9 L 481.1,174.6" style="fill:none;fill-rule:evenodd;stroke:#0000FF;stroke-width:2.0px;stroke-linecap:butt;stroke-linejoin:miter;stroke-opacity:1"/>
<path class="bond-22 atom-13 atom-14" d="M 481.1,174.6 L 482.7,166.4" style="fill:none;fill-rule:evenodd;stroke:#000000;stroke-width:2.0px;stroke-linecap:butt;stroke-linejoin:miter;stroke-opacity:1"/>
<path class="bond-23 atom-14 atom-16" d="M 482.7,166.4 L 490.9,163.5" style="fill:none;fill-rule:evenodd;stroke:#000000;stroke-width:2.0px;stroke-linecap:butt;stroke-linejoin:miter;stroke-opacity:1"/>
<path class="bond-23 atom-14 atom-16" d="M 490.9,163.5 L 499.0,160.6" style="fill:none;fill-rule:evenodd;stroke:#0000FF;stroke-width:2.0px;stroke-linecap:butt;stroke-linejoin:miter;stroke-opacity:1"/>
<path class="bond-24 atom-14 atom-15" d="M 482.7,166.4 L 467.2,153.1" style="fill:none;fill-rule:evenodd;stroke:#000000;stroke-width:2.0px;stroke-linecap:butt;stroke-linejoin:miter;stroke-opacity:1"/>
<path class="bond-24 atom-14 atom-15" d="M 477.7,167.5 L 466.9,158.2" style="fill:none;fill-rule:evenodd;stroke:#000000;stroke-width:2.0px;stroke-linecap:butt;stroke-linejoin:miter;stroke-opacity:1"/>
<path class="bond-25 atom-15 atom-32" d="M 467.2,153.1 L 470.3,136.6" style="fill:none;fill-rule:evenodd;stroke:#000000;stroke-width:2.0px;stroke-linecap:butt;stroke-linejoin:miter;stroke-opacity:1"/>
<path class="bond-26 atom-16 atom-33" d="M 504.8,162.1 L 509.6,166.2" style="fill:none;fill-rule:evenodd;stroke:#0000FF;stroke-width:2.0px;stroke-linecap:butt;stroke-linejoin:miter;stroke-opacity:1"/>
<path class="bond-26 atom-16 atom-33" d="M 509.6,166.2 L 514.4,170.4" style="fill:none;fill-rule:evenodd;stroke:#000000;stroke-width:2.0px;stroke-linecap:butt;stroke-linejoin:miter;stroke-opacity:1"/>
<path class="bond-27 atom-16 atom-17" d="M 502.6,156.1 L 504.1,147.8" style="fill:none;fill-rule:evenodd;stroke:#0000FF;stroke-width:2.0px;stroke-linecap:butt;stroke-linejoin:miter;stroke-opacity:1"/>
<path class="bond-27 atom-16 atom-17" d="M 504.1,147.8 L 505.7,139.6" style="fill:none;fill-rule:evenodd;stroke:#000000;stroke-width:2.0px;stroke-linecap:butt;stroke-linejoin:miter;stroke-opacity:1"/>
<path class="bond-28 atom-17 atom-19" d="M 505.7,139.6 L 524.9,132.8" style="fill:none;fill-rule:evenodd;stroke:#000000;stroke-width:2.0px;stroke-linecap:butt;stroke-linejoin:miter;stroke-opacity:1"/>
<path class="bond-29 atom-17 atom-18" d="M 504.3,141.1 L 498.3,135.9" style="fill:none;fill-rule:evenodd;stroke:#000000;stroke-width:2.0px;stroke-linecap:butt;stroke-linejoin:miter;stroke-opacity:1"/>
<path class="bond-29 atom-17 atom-18" d="M 498.3,135.9 L 492.2,130.7" style="fill:none;fill-rule:evenodd;stroke:#FF0000;stroke-width:2.0px;stroke-linecap:butt;stroke-linejoin:miter;stroke-opacity:1"/>
<path class="bond-29 atom-17 atom-18" d="M 507.0,138.0 L 500.9,132.8" style="fill:none;fill-rule:evenodd;stroke:#000000;stroke-width:2.0px;stroke-linecap:butt;stroke-linejoin:miter;stroke-opacity:1"/>
<path class="bond-29 atom-17 atom-18" d="M 500.9,132.8 L 494.8,127.6" style="fill:none;fill-rule:evenodd;stroke:#FF0000;stroke-width:2.0px;stroke-linecap:butt;stroke-linejoin:miter;stroke-opacity:1"/>
<path class="bond-30 atom-19 atom-21" d="M 524.9,132.8 L 521.6,112.7" style="fill:none;fill-rule:evenodd;stroke:#000000;stroke-width:2.0px;stroke-linecap:butt;stroke-linejoin:miter;stroke-opacity:1"/>
<path class="bond-31 atom-19 atom-24" d="M 524.9,132.8 L 534.3,145.3 L 530.7,147.3 Z" style="fill:#000000;fill-rule:evenodd;fill-opacity:1;stroke:#000000;stroke-width:1.0px;stroke-linecap:butt;stroke-linejoin:miter;stroke-opacity:1;"/>
<path class="bond-32 atom-19 atom-20" d="M 524.9,132.8 L 540.6,119.9" style="fill:none;fill-rule:evenodd;stroke:#000000;stroke-width:2.0px;stroke-linecap:butt;stroke-linejoin:miter;stroke-opacity:1"/>
<path class="bond-33 atom-20 atom-21" d="M 540.6,119.9 L 521.6,112.7" style="fill:none;fill-rule:evenodd;stroke:#000000;stroke-width:2.0px;stroke-linecap:butt;stroke-linejoin:miter;stroke-opacity:1"/>
<path class="bond-34 atom-20 atom-34" d="M 540.6,119.9 L 553.2,130.6" style="fill:none;fill-rule:evenodd;stroke:#000000;stroke-width:2.0px;stroke-linecap:butt;stroke-linejoin:miter;stroke-opacity:1"/>
<path class="bond-35 atom-20 atom-35" d="M 540.6,119.9 L 548.9,105.9" style="fill:none;fill-rule:evenodd;stroke:#000000;stroke-width:2.0px;stroke-linecap:butt;stroke-linejoin:miter;stroke-opacity:1"/>
<path class="bond-36 atom-21 atom-22" d="M 521.6,112.7 L 501.2,112.5" style="fill:none;fill-rule:evenodd;stroke:#000000;stroke-width:2.0px;stroke-linecap:butt;stroke-linejoin:miter;stroke-opacity:1"/>
<path class="bond-37 atom-21 atom-25" d="M 521.6,112.7 L 522.5,96.5 L 526.5,97.3 Z" style="fill:#000000;fill-rule:evenodd;fill-opacity:1;stroke:#000000;stroke-width:1.0px;stroke-linecap:butt;stroke-linejoin:miter;stroke-opacity:1;"/>
<path class="bond-38 atom-22 atom-36" d="M 501.2,112.5 L 492.4,112.4" style="fill:none;fill-rule:evenodd;stroke:#000000;stroke-width:2.0px;stroke-linecap:butt;stroke-linejoin:miter;stroke-opacity:1"/>
<path class="bond-38 atom-22 atom-36" d="M 492.4,112.4 L 483.7,112.3" style="fill:none;fill-rule:evenodd;stroke:#0000FF;stroke-width:2.0px;stroke-linecap:butt;stroke-linejoin:miter;stroke-opacity:1"/>
<path class="bond-38 atom-22 atom-36" d="M 498.5,116.5 L 491.1,116.5" style="fill:none;fill-rule:evenodd;stroke:#000000;stroke-width:2.0px;stroke-linecap:butt;stroke-linejoin:miter;stroke-opacity:1"/>
<path class="bond-38 atom-22 atom-36" d="M 491.1,116.5 L 483.6,116.4" style="fill:none;fill-rule:evenodd;stroke:#0000FF;stroke-width:2.0px;stroke-linecap:butt;stroke-linejoin:miter;stroke-opacity:1"/>
<path class="bond-38 atom-22 atom-36" d="M 498.6,108.4 L 491.1,108.3" style="fill:none;fill-rule:evenodd;stroke:#000000;stroke-width:2.0px;stroke-linecap:butt;stroke-linejoin:miter;stroke-opacity:1"/>
<path class="bond-38 atom-22 atom-36" d="M 491.1,108.3 L 483.7,108.2" style="fill:none;fill-rule:evenodd;stroke:#0000FF;stroke-width:2.0px;stroke-linecap:butt;stroke-linejoin:miter;stroke-opacity:1"/>
<path class="atom-6" d="M 418.6 113.5 Q 418.6 112.1, 419.2 111.3 Q 419.9 110.6, 421.2 110.6 Q 422.4 110.6, 423.0 111.4 L 422.5 111.9 Q 422.0 111.2, 421.2 111.2 Q 420.3 111.2, 419.9 111.8 Q 419.4 112.4, 419.4 113.5 Q 419.4 114.7, 419.9 115.2 Q 420.4 115.8, 421.3 115.8 Q 421.9 115.8, 422.7 115.4 L 422.9 116.1 Q 422.6 116.3, 422.1 116.4 Q 421.7 116.5, 421.2 116.5 Q 419.9 116.5, 419.2 115.7 Q 418.6 115.0, 418.6 113.5 " fill="#00CC00"/>
<path class="atom-6" d="M 423.3 110.2 L 424.1 110.2 L 424.1 116.4 L 423.3 116.4 L 423.3 110.2 " fill="#00CC00"/>
<path class="atom-8" d="M 406.9 173.4 Q 406.9 172.0, 407.6 171.3 Q 408.3 170.5, 409.5 170.5 Q 410.8 170.5, 411.5 171.3 Q 412.2 172.0, 412.2 173.4 Q 412.2 174.8, 411.5 175.6 Q 410.8 176.4, 409.5 176.4 Q 408.3 176.4, 407.6 175.6 Q 406.9 174.8, 406.9 173.4 M 409.5 175.8 Q 410.4 175.8, 410.9 175.2 Q 411.4 174.6, 411.4 173.4 Q 411.4 172.3, 410.9 171.7 Q 410.4 171.1, 409.5 171.1 Q 408.7 171.1, 408.2 171.7 Q 407.7 172.3, 407.7 173.4 Q 407.7 174.6, 408.2 175.2 Q 408.7 175.8, 409.5 175.8 " fill="#FF0000"/>
<path class="atom-9" d="M 431.2 143.7 L 433.1 146.8 Q 433.3 147.1, 433.6 147.6 Q 433.9 148.2, 433.9 148.2 L 433.9 143.7 L 434.7 143.7 L 434.7 149.5 L 433.9 149.5 L 431.9 146.2 Q 431.6 145.8, 431.4 145.3 Q 431.1 144.9, 431.1 144.7 L 431.1 149.5 L 430.3 149.5 L 430.3 143.7 L 431.2 143.7 " fill="#0000FF"/>
<path class="atom-13" d="M 477.7 183.5 L 479.5 186.6 Q 479.7 186.9, 480.0 187.4 Q 480.3 188.0, 480.4 188.0 L 480.4 183.5 L 481.1 183.5 L 481.1 189.3 L 480.3 189.3 L 478.3 186.0 Q 478.1 185.6, 477.8 185.1 Q 477.6 184.7, 477.5 184.5 L 477.5 189.3 L 476.7 189.3 L 476.7 183.5 L 477.7 183.5 " fill="#0000FF"/>
<path class="atom-16" d="M 500.6 156.7 L 502.5 159.8 Q 502.7 160.1, 503.0 160.6 Q 503.3 161.2, 503.3 161.2 L 503.3 156.7 L 504.1 156.7 L 504.1 162.5 L 503.3 162.5 L 501.3 159.2 Q 501.0 158.8, 500.8 158.3 Q 500.5 157.9, 500.5 157.7 L 500.5 162.5 L 499.7 162.5 L 499.7 156.7 L 500.6 156.7 " fill="#0000FF"/>
<path class="atom-18" d="M 487.5 126.3 Q 487.5 124.9, 488.2 124.2 Q 488.9 123.4, 490.2 123.4 Q 491.5 123.4, 492.2 124.2 Q 492.8 124.9, 492.8 126.3 Q 492.8 127.7, 492.1 128.5 Q 491.5 129.3, 490.2 129.3 Q 488.9 129.3, 488.2 128.5 Q 487.5 127.7, 487.5 126.3 M 490.2 128.7 Q 491.1 128.7, 491.5 128.1 Q 492.0 127.5, 492.0 126.3 Q 492.0 125.2, 491.5 124.6 Q 491.1 124.0, 490.2 124.0 Q 489.3 124.0, 488.8 124.6 Q 488.4 125.2, 488.4 126.3 Q 488.4 127.5, 488.8 128.1 Q 489.3 128.7, 490.2 128.7 " fill="#FF0000"/>
<path class="atom-23" d="M 372.6 167.1 Q 372.6 165.7, 373.3 164.9 Q 374.0 164.2, 375.2 164.2 Q 376.4 164.2, 377.1 165.0 L 376.5 165.5 Q 376.1 164.8, 375.2 164.8 Q 374.4 164.8, 373.9 165.4 Q 373.4 166.0, 373.4 167.1 Q 373.4 168.3, 373.9 168.8 Q 374.4 169.4, 375.3 169.4 Q 376.0 169.4, 376.7 169.0 L 376.9 169.7 Q 376.6 169.9, 376.2 170.0 Q 375.7 170.1, 375.2 170.1 Q 374.0 170.1, 373.3 169.3 Q 372.6 168.6, 372.6 167.1 " fill="#00CC00"/>
<path class="atom-23" d="M 377.4 163.8 L 378.1 163.8 L 378.1 170.0 L 377.4 170.0 L 377.4 163.8 " fill="#00CC00"/>
<path class="atom-24" d="M 532.6 147.7 L 533.4 147.7 L 533.4 150.1 L 536.4 150.1 L 536.4 147.7 L 537.1 147.7 L 537.1 153.5 L 536.4 153.5 L 536.4 150.8 L 533.4 150.8 L 533.4 153.5 L 532.6 153.5 L 532.6 147.7 " fill="#000000"/>
<path class="atom-25" d="M 523.1 89.8 L 523.8 89.8 L 523.8 92.2 L 526.8 92.2 L 526.8 89.8 L 527.6 89.8 L 527.6 95.6 L 526.8 95.6 L 526.8 92.9 L 523.8 92.9 L 523.8 95.6 L 523.1 95.6 L 523.1 89.8 " fill="#000000"/>
<path class="atom-26" d="M 349.1 97.4 L 349.9 97.4 L 349.9 99.9 L 352.9 99.9 L 352.9 97.4 L 353.7 97.4 L 353.7 103.2 L 352.9 103.2 L 352.9 100.5 L 349.9 100.5 L 349.9 103.2 L 349.1 103.2 L 349.1 97.4 " fill="#000000"/>
<path class="atom-27" d="M 341.6 137.5 L 342.4 137.5 L 342.4 140.0 L 345.4 140.0 L 345.4 137.5 L 346.2 137.5 L 346.2 143.3 L 345.4 143.3 L 345.4 140.6 L 342.4 140.6 L 342.4 143.3 L 341.6 143.3 L 341.6 137.5 " fill="#000000"/>
<path class="atom-28" d="M 387.6 83.9 L 388.4 83.9 L 388.4 86.4 L 391.3 86.4 L 391.3 83.9 L 392.1 83.9 L 392.1 89.7 L 391.3 89.7 L 391.3 87.0 L 388.4 87.0 L 388.4 89.7 L 387.6 89.7 L 387.6 83.9 " fill="#000000"/>
<path class="atom-29" d="M 434.0 123.7 L 434.8 123.7 L 434.8 126.2 L 437.7 126.2 L 437.7 123.7 L 438.5 123.7 L 438.5 129.5 L 437.7 129.5 L 437.7 126.8 L 434.8 126.8 L 434.8 129.5 L 434.0 129.5 L 434.0 123.7 " fill="#000000"/>
<path class="atom-30" d="M 422.8 183.8 L 423.5 183.8 L 423.5 186.2 L 426.5 186.2 L 426.5 183.8 L 427.3 183.8 L 427.3 189.6 L 426.5 189.6 L 426.5 186.9 L 423.5 186.9 L 423.5 189.6 L 422.8 189.6 L 422.8 183.8 " fill="#000000"/>
<path class="atom-31" d="M 453.7 210.3 L 454.5 210.3 L 454.5 212.8 L 457.4 212.8 L 457.4 210.3 L 458.2 210.3 L 458.2 216.1 L 457.4 216.1 L 457.4 213.4 L 454.5 213.4 L 454.5 216.1 L 453.7 216.1 L 453.7 210.3 " fill="#000000"/>
<path class="atom-32" d="M 468.7 130.2 L 469.5 130.2 L 469.5 132.6 L 472.4 132.6 L 472.4 130.2 L 473.2 130.2 L 473.2 136.0 L 472.4 136.0 L 472.4 133.3 L 469.5 133.3 L 469.5 136.0 L 468.7 136.0 L 468.7 130.2 " fill="#000000"/>
<path class="atom-33" d="M 515.1 170.0 L 515.9 170.0 L 515.9 172.4 L 518.9 172.4 L 518.9 170.0 L 519.6 170.0 L 519.6 175.8 L 518.9 175.8 L 518.9 173.1 L 515.9 173.1 L 515.9 175.8 L 515.1 175.8 L 515.1 170.0 " fill="#000000"/>
<path class="atom-34" d="M 553.8 130.3 L 554.6 130.3 L 554.6 132.7 L 557.6 132.7 L 557.6 130.3 L 558.4 130.3 L 558.4 136.0 L 557.6 136.0 L 557.6 133.4 L 554.6 133.4 L 554.6 136.0 L 553.8 136.0 L 553.8 130.3 " fill="#000000"/>
<path class="atom-35" d="M 548.8 99.5 L 549.5 99.5 L 549.5 101.9 L 552.5 101.9 L 552.5 99.5 L 553.3 99.5 L 553.3 105.2 L 552.5 105.2 L 552.5 102.6 L 549.5 102.6 L 549.5 105.2 L 548.8 105.2 L 548.8 99.5 " fill="#000000"/>
<path class="atom-36" d="M 479.5 109.4 L 481.4 112.4 Q 481.6 112.7, 481.9 113.3 Q 482.2 113.8, 482.2 113.9 L 482.2 109.4 L 483.0 109.4 L 483.0 115.2 L 482.2 115.2 L 480.2 111.8 Q 479.9 111.4, 479.7 111.0 Q 479.4 110.5, 479.4 110.4 L 479.4 115.2 L 478.6 115.2 L 478.6 109.4 L 479.5 109.4 " fill="#0000FF"/>
<text x="300" y="20" font-size="20" font-family="sans-serif" font-weight="normal" letter-spacing="0" text-anchor="middle" fill="black">tyk2: jmc_28 -&gt; jmc_30</text><text x="300" y="35" font-size="15" font-family="sans-serif" font-weight="normal" letter-spacing="0" text-anchor="middle" fill="black"></text><text x="150" y="285" font-size="15" font-family="sans-serif" font-weight="normal" letter-spacing="0" text-anchor="middle" fill="black">jmc_28</text><text x="450" y="285" font-size="15" font-family="sans-serif" font-weight="normal" letter-spacing="0" text-anchor="middle" fill="black">jmc_30</text></svg>
