<?xml version='1.0' encoding='ASCII' standalone='yes'?>
<svg xmlns="http://www.w3.org/2000/svg" xmlns:rdkit="http://www.rdkit.org/xml" xmlns:xlink="http://www.w3.org/1999/xlink" version="1.1" baseProfile="full" xml:space="preserve" width="600px" height="300px" viewBox="0 0 600 300">
<!-- END OF HEADER -->
<rect style="opacity:1.0;fill:#FFFFFF;stroke:none" width="600.0" height="300.0" x="0.0" y="0.0"> </rect>
<path class="bond-0 atom-0 atom-7" d="M 132.0,179.6 L 148.5,161.7" style="fill:none;fill-rule:evenodd;stroke:#000000;stroke-width:2.0px;stroke-linecap:butt;stroke-linejoin:miter;stroke-opacity:1"/>
<path class="bond-1 atom-0 atom-1" d="M 132.0,179.6 L 139.3,202.8" style="fill:none;fill-rule:evenodd;stroke:#000000;stroke-width:2.0px;stroke-linecap:butt;stroke-linejoin:miter;stroke-opacity:1"/>
<path class="bond-1 atom-0 atom-1" d="M 137.8,181.6 L 142.8,197.8" style="fill:none;fill-rule:evenodd;stroke:#000000;stroke-width:2.0px;stroke-linecap:butt;stroke-linejoin:miter;stroke-opacity:1"/>
<path class="bond-2 atom-0 atom-19" d="M 132.0,179.6 L 108.4,174.3" style="fill:none;fill-rule:evenodd;stroke:#000000;stroke-width:2.0px;stroke-linecap:butt;stroke-linejoin:miter;stroke-opacity:1"/>
<path class="bond-3 atom-1 atom-3" d="M 139.3,202.8 L 163.0,208.1" style="fill:none;fill-rule:evenodd;stroke:#000000;stroke-width:2.0px;stroke-linecap:butt;stroke-linejoin:miter;stroke-opacity:1"/>
<path class="bond-4 atom-1 atom-2" d="M 139.3,202.8 L 126.3,216.8" style="fill:none;fill-rule:evenodd;stroke:#000000;stroke-width:2.0px;stroke-linecap:butt;stroke-linejoin:miter;stroke-opacity:1"/>
<path class="bond-5 atom-3 atom-5" d="M 163.0,208.1 L 179.4,190.3" style="fill:none;fill-rule:evenodd;stroke:#000000;stroke-width:2.0px;stroke-linecap:butt;stroke-linejoin:miter;stroke-opacity:1"/>
<path class="bond-5 atom-3 atom-5" d="M 161.9,202.1 L 173.4,189.6" style="fill:none;fill-rule:evenodd;stroke:#000000;stroke-width:2.0px;stroke-linecap:butt;stroke-linejoin:miter;stroke-opacity:1"/>
<path class="bond-6 atom-3 atom-4" d="M 163.0,208.1 L 168.9,227.1" style="fill:none;fill-rule:evenodd;stroke:#000000;stroke-width:2.0px;stroke-linecap:butt;stroke-linejoin:miter;stroke-opacity:1"/>
<path class="bond-7 atom-5 atom-9" d="M 179.4,190.3 L 189.3,192.5" style="fill:none;fill-rule:evenodd;stroke:#000000;stroke-width:2.0px;stroke-linecap:butt;stroke-linejoin:miter;stroke-opacity:1"/>
<path class="bond-7 atom-5 atom-9" d="M 189.3,192.5 L 199.2,194.7" style="fill:none;fill-rule:evenodd;stroke:#FF0000;stroke-width:2.0px;stroke-linecap:butt;stroke-linejoin:miter;stroke-opacity:1"/>
<path class="bond-8 atom-5 atom-6" d="M 179.4,190.3 L 172.2,167.1" style="fill:none;fill-rule:evenodd;stroke:#000000;stroke-width:2.0px;stroke-linecap:butt;stroke-linejoin:miter;stroke-opacity:1"/>
<path class="bond-9 atom-6 atom-14" d="M 172.2,167.1 L 188.6,149.2" style="fill:none;fill-rule:evenodd;stroke:#000000;stroke-width:2.0px;stroke-linecap:butt;stroke-linejoin:miter;stroke-opacity:1"/>
<path class="bond-10 atom-6 atom-7" d="M 172.2,167.1 L 148.5,161.7" style="fill:none;fill-rule:evenodd;stroke:#000000;stroke-width:2.0px;stroke-linecap:butt;stroke-linejoin:miter;stroke-opacity:1"/>
<path class="bond-10 atom-6 atom-7" d="M 167.6,171.0 L 151.0,167.3" style="fill:none;fill-rule:evenodd;stroke:#000000;stroke-width:2.0px;stroke-linecap:butt;stroke-linejoin:miter;stroke-opacity:1"/>
<path class="bond-11 atom-7 atom-8" d="M 148.5,161.7 L 146.0,153.7" style="fill:none;fill-rule:evenodd;stroke:#000000;stroke-width:2.0px;stroke-linecap:butt;stroke-linejoin:miter;stroke-opacity:1"/>
<path class="bond-12 atom-9 atom-10" d="M 207.0,191.3 L 213.3,184.5" style="fill:none;fill-rule:evenodd;stroke:#FF0000;stroke-width:2.0px;stroke-linecap:butt;stroke-linejoin:miter;stroke-opacity:1"/>
<path class="bond-12 atom-9 atom-10" d="M 213.3,184.5 L 219.6,177.7" style="fill:none;fill-rule:evenodd;stroke:#000000;stroke-width:2.0px;stroke-linecap:butt;stroke-linejoin:miter;stroke-opacity:1"/>
<path class="bond-13 atom-10 atom-37" d="M 219.6,177.7 L 241.1,166.6" style="fill:none;fill-rule:evenodd;stroke:#000000;stroke-width:2.0px;stroke-linecap:butt;stroke-linejoin:miter;stroke-opacity:1"/>
<path class="bond-14 atom-10 atom-11" d="M 219.6,177.7 L 212.3,154.6" style="fill:none;fill-rule:evenodd;stroke:#000000;stroke-width:2.0px;stroke-linecap:butt;stroke-linejoin:miter;stroke-opacity:1"/>
<path class="bond-15 atom-10 atom-41" d="M 219.6,177.7 L 234.3,197.0" style="fill:none;fill-rule:evenodd;stroke:#000000;stroke-width:2.0px;stroke-linecap:butt;stroke-linejoin:miter;stroke-opacity:1"/>
<path class="bond-16 atom-11 atom-13" d="M 212.3,154.6 L 232.4,149.4" style="fill:none;fill-rule:evenodd;stroke:#000000;stroke-width:2.0px;stroke-linecap:butt;stroke-linejoin:miter;stroke-opacity:1"/>
<path class="bond-17 atom-11 atom-12" d="M 212.3,154.6 L 220.2,136.6" style="fill:none;fill-rule:evenodd;stroke:#000000;stroke-width:2.0px;stroke-linecap:butt;stroke-linejoin:miter;stroke-opacity:1"/>
<path class="bond-18 atom-14 atom-11" d="M 188.6,149.2 L 212.9,152.2 L 211.8,156.9 Z" style="fill:#000000;fill-rule:evenodd;fill-opacity:1;stroke:#000000;stroke-width:1.0px;stroke-linecap:butt;stroke-linejoin:miter;stroke-opacity:1;"/>
<path class="bond-19 atom-14 atom-15" d="M 188.6,149.2 L 165.6,141.5" style="fill:none;fill-rule:evenodd;stroke:#000000;stroke-width:2.0px;stroke-linecap:butt;stroke-linejoin:miter;stroke-opacity:1"/>
<path class="bond-20 atom-14 atom-18" d="M 188.6,149.2 L 194.3,141.6" style="fill:none;fill-rule:evenodd;stroke:#000000;stroke-width:2.0px;stroke-linecap:butt;stroke-linejoin:miter;stroke-opacity:1"/>
<path class="bond-20 atom-14 atom-18" d="M 194.3,141.6 L 200.0,134.0" style="fill:none;fill-rule:evenodd;stroke:#0000FF;stroke-width:2.0px;stroke-linecap:butt;stroke-linejoin:miter;stroke-opacity:1"/>
<path class="bond-21 atom-15 atom-36" d="M 166.5,143.7 L 162.5,145.3" style="fill:none;fill-rule:evenodd;stroke:#000000;stroke-width:2.0px;stroke-linecap:butt;stroke-linejoin:miter;stroke-opacity:1"/>
<path class="bond-21 atom-15 atom-36" d="M 162.5,145.3 L 158.5,146.9" style="fill:none;fill-rule:evenodd;stroke:#FF0000;stroke-width:2.0px;stroke-linecap:butt;stroke-linejoin:miter;stroke-opacity:1"/>
<path class="bond-21 atom-15 atom-36" d="M 164.8,139.2 L 160.7,140.8" style="fill:none;fill-rule:evenodd;stroke:#000000;stroke-width:2.0px;stroke-linecap:butt;stroke-linejoin:miter;stroke-opacity:1"/>
<path class="bond-21 atom-15 atom-36" d="M 160.7,140.8 L 156.7,142.3" style="fill:none;fill-rule:evenodd;stroke:#FF0000;stroke-width:2.0px;stroke-linecap:butt;stroke-linejoin:miter;stroke-opacity:1"/>
<path class="bond-22 atom-15 atom-16" d="M 165.6,141.5 L 165.8,131.4" style="fill:none;fill-rule:evenodd;stroke:#000000;stroke-width:2.0px;stroke-linecap:butt;stroke-linejoin:miter;stroke-opacity:1"/>
<path class="bond-22 atom-15 atom-16" d="M 165.8,131.4 L 165.9,121.4" style="fill:none;fill-rule:evenodd;stroke:#0000FF;stroke-width:2.0px;stroke-linecap:butt;stroke-linejoin:miter;stroke-opacity:1"/>
<path class="bond-23 atom-16 atom-20" d="M 162.5,114.7 L 154.5,108.7" style="fill:none;fill-rule:evenodd;stroke:#0000FF;stroke-width:2.0px;stroke-linecap:butt;stroke-linejoin:miter;stroke-opacity:1"/>
<path class="bond-23 atom-16 atom-20" d="M 154.5,108.7 L 146.5,102.7" style="fill:none;fill-rule:evenodd;stroke:#000000;stroke-width:2.0px;stroke-linecap:butt;stroke-linejoin:miter;stroke-opacity:1"/>
<path class="bond-24 atom-16 atom-17" d="M 169.3,116.1 L 179.2,113.0" style="fill:none;fill-rule:evenodd;stroke:#0000FF;stroke-width:2.0px;stroke-linecap:butt;stroke-linejoin:miter;stroke-opacity:1"/>
<path class="bond-24 atom-16 atom-17" d="M 179.2,113.0 L 189.1,110.0" style="fill:none;fill-rule:evenodd;stroke:#000000;stroke-width:2.0px;stroke-linecap:butt;stroke-linejoin:miter;stroke-opacity:1"/>
<path class="bond-25 atom-17 atom-18" d="M 189.1,110.0 L 194.6,117.7" style="fill:none;fill-rule:evenodd;stroke:#000000;stroke-width:2.0px;stroke-linecap:butt;stroke-linejoin:miter;stroke-opacity:1"/>
<path class="bond-25 atom-17 atom-18" d="M 194.6,117.7 L 200.2,125.5" style="fill:none;fill-rule:evenodd;stroke:#0000FF;stroke-width:2.0px;stroke-linecap:butt;stroke-linejoin:miter;stroke-opacity:1"/>
<path class="bond-25 atom-17 atom-18" d="M 186.8,115.1 L 190.7,120.6" style="fill:none;fill-rule:evenodd;stroke:#000000;stroke-width:2.0px;stroke-linecap:butt;stroke-linejoin:miter;stroke-opacity:1"/>
<path class="bond-25 atom-17 atom-18" d="M 190.7,120.6 L 194.5,126.0" style="fill:none;fill-rule:evenodd;stroke:#0000FF;stroke-width:2.0px;stroke-linecap:butt;stroke-linejoin:miter;stroke-opacity:1"/>
<path class="bond-26 atom-17 atom-24" d="M 189.1,110.0 L 192.3,100.6" style="fill:none;fill-rule:evenodd;stroke:#000000;stroke-width:2.0px;stroke-linecap:butt;stroke-linejoin:miter;stroke-opacity:1"/>
<path class="bond-26 atom-17 atom-24" d="M 192.3,100.6 L 195.5,91.2" style="fill:none;fill-rule:evenodd;stroke:#0000FF;stroke-width:2.0px;stroke-linecap:butt;stroke-linejoin:miter;stroke-opacity:1"/>
<path class="bond-27 atom-18 atom-45" d="M 210.3,129.0 L 217.1,128.2" style="fill:none;fill-rule:evenodd;stroke:#0000FF;stroke-width:2.0px;stroke-linecap:butt;stroke-linejoin:miter;stroke-opacity:1"/>
<path class="bond-27 atom-18 atom-45" d="M 217.1,128.2 L 223.8,127.5" style="fill:none;fill-rule:evenodd;stroke:#000000;stroke-width:2.0px;stroke-linecap:butt;stroke-linejoin:miter;stroke-opacity:1"/>
<path class="bond-28 atom-19 atom-34" d="M 108.4,174.3 L 91.9,192.1" style="fill:none;fill-rule:evenodd;stroke:#000000;stroke-width:2.0px;stroke-linecap:butt;stroke-linejoin:miter;stroke-opacity:1"/>
<path class="bond-29 atom-19 atom-27" d="M 108.4,174.3 L 101.1,151.1" style="fill:none;fill-rule:evenodd;stroke:#000000;stroke-width:2.0px;stroke-linecap:butt;stroke-linejoin:miter;stroke-opacity:1"/>
<path class="bond-29 atom-19 atom-27" d="M 102.6,172.2 L 97.6,156.0" style="fill:none;fill-rule:evenodd;stroke:#000000;stroke-width:2.0px;stroke-linecap:butt;stroke-linejoin:miter;stroke-opacity:1"/>
<path class="bond-30 atom-20 atom-21" d="M 146.5,102.7 L 157.8,87.4" style="fill:none;fill-rule:evenodd;stroke:#000000;stroke-width:2.0px;stroke-linecap:butt;stroke-linejoin:miter;stroke-opacity:1"/>
<path class="bond-31 atom-20 atom-23" d="M 146.5,102.7 L 130.5,90.8" style="fill:none;fill-rule:evenodd;stroke:#000000;stroke-width:2.0px;stroke-linecap:butt;stroke-linejoin:miter;stroke-opacity:1"/>
<path class="bond-32 atom-20 atom-22" d="M 146.5,102.7 L 135.1,117.9" style="fill:none;fill-rule:evenodd;stroke:#000000;stroke-width:2.0px;stroke-linecap:butt;stroke-linejoin:miter;stroke-opacity:1"/>
<path class="bond-33 atom-24 atom-26" d="M 200.3,86.3 L 208.8,84.6" style="fill:none;fill-rule:evenodd;stroke:#0000FF;stroke-width:2.0px;stroke-linecap:butt;stroke-linejoin:miter;stroke-opacity:1"/>
<path class="bond-33 atom-24 atom-26" d="M 208.8,84.6 L 217.2,82.9" style="fill:none;fill-rule:evenodd;stroke:#000000;stroke-width:2.0px;stroke-linecap:butt;stroke-linejoin:miter;stroke-opacity:1"/>
<path class="bond-34 atom-24 atom-25" d="M 193.5,83.1 L 188.9,77.9" style="fill:none;fill-rule:evenodd;stroke:#0000FF;stroke-width:2.0px;stroke-linecap:butt;stroke-linejoin:miter;stroke-opacity:1"/>
<path class="bond-34 atom-24 atom-25" d="M 188.9,77.9 L 184.3,72.7" style="fill:none;fill-rule:evenodd;stroke:#000000;stroke-width:2.0px;stroke-linecap:butt;stroke-linejoin:miter;stroke-opacity:1"/>
<path class="bond-35 atom-27 atom-29" d="M 101.1,151.1 L 77.4,145.8" style="fill:none;fill-rule:evenodd;stroke:#000000;stroke-width:2.0px;stroke-linecap:butt;stroke-linejoin:miter;stroke-opacity:1"/>
<path class="bond-36 atom-27 atom-28" d="M 101.1,151.1 L 114.1,137.0" style="fill:none;fill-rule:evenodd;stroke:#000000;stroke-width:2.0px;stroke-linecap:butt;stroke-linejoin:miter;stroke-opacity:1"/>
<path class="bond-37 atom-29 atom-31" d="M 77.4,145.8 L 61.0,163.6" style="fill:none;fill-rule:evenodd;stroke:#000000;stroke-width:2.0px;stroke-linecap:butt;stroke-linejoin:miter;stroke-opacity:1"/>
<path class="bond-37 atom-29 atom-31" d="M 78.5,151.7 L 67.0,164.2" style="fill:none;fill-rule:evenodd;stroke:#000000;stroke-width:2.0px;stroke-linecap:butt;stroke-linejoin:miter;stroke-opacity:1"/>
<path class="bond-38 atom-29 atom-30" d="M 77.4,145.8 L 74.5,136.3" style="fill:none;fill-rule:evenodd;stroke:#000000;stroke-width:2.0px;stroke-linecap:butt;stroke-linejoin:miter;stroke-opacity:1"/>
<path class="bond-38 atom-29 atom-30" d="M 74.5,136.3 L 71.5,126.8" style="fill:none;fill-rule:evenodd;stroke:#33CCCC;stroke-width:2.0px;stroke-linecap:butt;stroke-linejoin:miter;stroke-opacity:1"/>
<path class="bond-39 atom-31 atom-33" d="M 61.0,163.6 L 63.9,173.1" style="fill:none;fill-rule:evenodd;stroke:#000000;stroke-width:2.0px;stroke-linecap:butt;stroke-linejoin:miter;stroke-opacity:1"/>
<path class="bond-39 atom-31 atom-33" d="M 63.9,173.1 L 66.9,182.6" style="fill:none;fill-rule:evenodd;stroke:#0000FF;stroke-width:2.0px;stroke-linecap:butt;stroke-linejoin:miter;stroke-opacity:1"/>
<path class="bond-40 atom-31 atom-32" d="M 61.0,163.6 L 40.8,159.1" style="fill:none;fill-rule:evenodd;stroke:#000000;stroke-width:2.0px;stroke-linecap:butt;stroke-linejoin:miter;stroke-opacity:1"/>
<path class="bond-41 atom-33 atom-34" d="M 71.6,187.5 L 81.8,189.8" style="fill:none;fill-rule:evenodd;stroke:#0000FF;stroke-width:2.0px;stroke-linecap:butt;stroke-linejoin:miter;stroke-opacity:1"/>
<path class="bond-41 atom-33 atom-34" d="M 81.8,189.8 L 91.9,192.1" style="fill:none;fill-rule:evenodd;stroke:#000000;stroke-width:2.0px;stroke-linecap:butt;stroke-linejoin:miter;stroke-opacity:1"/>
<path class="bond-41 atom-33 atom-34" d="M 75.7,183.5 L 82.8,185.1" style="fill:none;fill-rule:evenodd;stroke:#0000FF;stroke-width:2.0px;stroke-linecap:butt;stroke-linejoin:miter;stroke-opacity:1"/>
<path class="bond-41 atom-33 atom-34" d="M 82.8,185.1 L 89.9,186.7" style="fill:none;fill-rule:evenodd;stroke:#000000;stroke-width:2.0px;stroke-linecap:butt;stroke-linejoin:miter;stroke-opacity:1"/>
<path class="bond-42 atom-34 atom-35" d="M 91.9,192.1 L 97.8,211.1" style="fill:none;fill-rule:evenodd;stroke:#000000;stroke-width:2.0px;stroke-linecap:butt;stroke-linejoin:miter;stroke-opacity:1"/>
<path class="bond-43 atom-37 atom-38" d="M 241.1,166.6 L 251.9,182.4" style="fill:none;fill-rule:evenodd;stroke:#000000;stroke-width:2.0px;stroke-linecap:butt;stroke-linejoin:miter;stroke-opacity:1"/>
<path class="bond-44 atom-37 atom-39" d="M 241.1,166.6 L 234.3,148.1" style="fill:none;fill-rule:evenodd;stroke:#000000;stroke-width:2.0px;stroke-linecap:butt;stroke-linejoin:miter;stroke-opacity:1"/>
<path class="bond-45 atom-37 atom-40" d="M 241.1,166.6 L 259.2,157.3" style="fill:none;fill-rule:evenodd;stroke:#000000;stroke-width:2.0px;stroke-linecap:butt;stroke-linejoin:miter;stroke-opacity:1"/>
<path class="bond-46 atom-41 atom-44" d="M 234.3,197.0 L 245.8,212.1" style="fill:none;fill-rule:evenodd;stroke:#000000;stroke-width:2.0px;stroke-linecap:butt;stroke-linejoin:miter;stroke-opacity:1"/>
<path class="bond-47 atom-41 atom-43" d="M 234.3,197.0 L 251.8,186.8" style="fill:none;fill-rule:evenodd;stroke:#000000;stroke-width:2.0px;stroke-linecap:butt;stroke-linejoin:miter;stroke-opacity:1"/>
<path class="bond-48 atom-41 atom-42" d="M 234.3,197.0 L 218.4,209.1" style="fill:none;fill-rule:evenodd;stroke:#000000;stroke-width:2.0px;stroke-linecap:butt;stroke-linejoin:miter;stroke-opacity:1"/>
<path class="atom-2" d="M 120.1 217.2 L 121.1 217.2 L 121.1 220.1 L 124.6 220.1 L 124.6 217.2 L 125.5 217.2 L 125.5 224.1 L 124.6 224.1 L 124.6 220.9 L 121.1 220.9 L 121.1 224.1 L 120.1 224.1 L 120.1 217.2 " fill="#000000"/>
<path class="atom-4" d="M 167.5 227.8 L 168.4 227.8 L 168.4 230.8 L 171.9 230.8 L 171.9 227.8 L 172.9 227.8 L 172.9 234.7 L 171.9 234.7 L 171.9 231.5 L 168.4 231.5 L 168.4 234.7 L 167.5 234.7 L 167.5 227.8 " fill="#000000"/>
<path class="atom-8" d="M 142.0 146.0 L 142.9 146.0 L 142.9 148.9 L 146.4 148.9 L 146.4 146.0 L 147.4 146.0 L 147.4 152.9 L 146.4 152.9 L 146.4 149.7 L 142.9 149.7 L 142.9 152.9 L 142.0 152.9 L 142.0 146.0 " fill="#000000"/>
<path class="atom-9" d="M 199.9 195.6 Q 199.9 194.0, 200.8 193.0 Q 201.6 192.1, 203.1 192.1 Q 204.6 192.1, 205.4 193.0 Q 206.3 194.0, 206.3 195.6 Q 206.3 197.3, 205.4 198.2 Q 204.6 199.2, 203.1 199.2 Q 201.6 199.2, 200.8 198.2 Q 199.9 197.3, 199.9 195.6 M 203.1 198.4 Q 204.1 198.4, 204.7 197.7 Q 205.3 197.0, 205.3 195.6 Q 205.3 194.3, 204.7 193.6 Q 204.1 192.9, 203.1 192.9 Q 202.0 192.9, 201.5 193.6 Q 200.9 194.2, 200.9 195.6 Q 200.9 197.0, 201.5 197.7 Q 202.0 198.4, 203.1 198.4 " fill="#FF0000"/>
<path class="atom-12" d="M 219.4 128.9 L 220.3 128.9 L 220.3 131.8 L 223.8 131.8 L 223.8 128.9 L 224.8 128.9 L 224.8 135.8 L 223.8 135.8 L 223.8 132.6 L 220.3 132.6 L 220.3 135.8 L 219.4 135.8 L 219.4 128.9 " fill="#000000"/>
<path class="atom-13" d="M 233.2 145.1 L 234.1 145.1 L 234.1 148.0 L 237.6 148.0 L 237.6 145.1 L 238.5 145.1 L 238.5 152.0 L 237.6 152.0 L 237.6 148.8 L 234.1 148.8 L 234.1 152.0 L 233.2 152.0 L 233.2 145.1 " fill="#000000"/>
<path class="atom-16" d="M 164.4 113.7 L 166.7 117.4 Q 166.9 117.7, 167.3 118.4 Q 167.6 119.0, 167.6 119.1 L 167.6 113.7 L 168.5 113.7 L 168.5 120.6 L 167.6 120.6 L 165.2 116.6 Q 164.9 116.2, 164.6 115.6 Q 164.3 115.1, 164.2 114.9 L 164.2 120.6 L 163.3 120.6 L 163.3 113.7 L 164.4 113.7 " fill="#0000FF"/>
<path class="atom-18" d="M 201.6 126.3 L 203.9 130.0 Q 204.1 130.3, 204.5 131.0 Q 204.8 131.6, 204.8 131.7 L 204.8 126.3 L 205.8 126.3 L 205.8 133.2 L 204.8 133.2 L 202.4 129.2 Q 202.1 128.8, 201.8 128.2 Q 201.5 127.7, 201.4 127.5 L 201.4 133.2 L 200.5 133.2 L 200.5 126.3 L 201.6 126.3 " fill="#0000FF"/>
<path class="atom-18" d="M 206.6 127.6 L 207.8 127.6 L 207.8 126.3 L 208.3 126.3 L 208.3 127.6 L 209.6 127.6 L 209.6 128.0 L 208.3 128.0 L 208.3 129.3 L 207.8 129.3 L 207.8 128.0 L 206.6 128.0 L 206.6 127.6 " fill="#0000FF"/>
<path class="atom-21" d="M 158.3 79.8 L 159.2 79.8 L 159.2 82.7 L 162.7 82.7 L 162.7 79.8 L 163.7 79.8 L 163.7 86.6 L 162.7 86.6 L 162.7 83.5 L 159.2 83.5 L 159.2 86.6 L 158.3 86.6 L 158.3 79.8 " fill="#000000"/>
<path class="atom-22" d="M 129.3 118.7 L 130.2 118.7 L 130.2 121.6 L 133.7 121.6 L 133.7 118.7 L 134.7 118.7 L 134.7 125.6 L 133.7 125.6 L 133.7 122.4 L 130.2 122.4 L 130.2 125.6 L 129.3 125.6 L 129.3 118.7 " fill="#000000"/>
<path class="atom-23" d="M 124.3 84.7 L 125.2 84.7 L 125.2 87.7 L 128.8 87.7 L 128.8 84.7 L 129.7 84.7 L 129.7 91.6 L 128.8 91.6 L 128.8 88.4 L 125.2 88.4 L 125.2 91.6 L 124.3 91.6 L 124.3 84.7 " fill="#000000"/>
<path class="atom-24" d="M 195.4 83.5 L 197.6 87.2 Q 197.8 87.5, 198.2 88.2 Q 198.6 88.8, 198.6 88.9 L 198.6 83.5 L 199.5 83.5 L 199.5 90.4 L 198.6 90.4 L 196.1 86.4 Q 195.9 85.9, 195.6 85.4 Q 195.3 84.9, 195.2 84.7 L 195.2 90.4 L 194.3 90.4 L 194.3 83.5 L 195.4 83.5 " fill="#0000FF"/>
<path class="atom-25" d="M 178.2 65.3 L 179.1 65.3 L 179.1 68.2 L 182.6 68.2 L 182.6 65.3 L 183.6 65.3 L 183.6 72.2 L 182.6 72.2 L 182.6 69.0 L 179.1 69.0 L 179.1 72.2 L 178.2 72.2 L 178.2 65.3 " fill="#000000"/>
<path class="atom-26" d="M 218.0 78.8 L 218.9 78.8 L 218.9 81.7 L 222.5 81.7 L 222.5 78.8 L 223.4 78.8 L 223.4 85.6 L 222.5 85.6 L 222.5 82.5 L 218.9 82.5 L 218.9 85.6 L 218.0 85.6 L 218.0 78.8 " fill="#000000"/>
<path class="atom-28" d="M 114.9 129.8 L 115.8 129.8 L 115.8 132.7 L 119.3 132.7 L 119.3 129.8 L 120.3 129.8 L 120.3 136.7 L 119.3 136.7 L 119.3 133.5 L 115.8 133.5 L 115.8 136.7 L 114.9 136.7 L 114.9 129.8 " fill="#000000"/>
<path class="atom-30" d="M 68.2 119.1 L 72.3 119.1 L 72.3 119.9 L 69.1 119.9 L 69.1 122.0 L 71.9 122.0 L 71.9 122.8 L 69.1 122.8 L 69.1 126.0 L 68.2 126.0 L 68.2 119.1 " fill="#33CCCC"/>
<path class="atom-32" d="M 34.6 154.8 L 35.5 154.8 L 35.5 157.8 L 39.1 157.8 L 39.1 154.8 L 40.0 154.8 L 40.0 161.7 L 39.1 161.7 L 39.1 158.5 L 35.5 158.5 L 35.5 161.7 L 34.6 161.7 L 34.6 154.8 " fill="#000000"/>
<path class="atom-33" d="M 66.7 183.3 L 68.9 187.0 Q 69.2 187.3, 69.5 188.0 Q 69.9 188.6, 69.9 188.7 L 69.9 183.3 L 70.8 183.3 L 70.8 190.2 L 69.9 190.2 L 67.5 186.2 Q 67.2 185.8, 66.9 185.2 Q 66.6 184.7, 66.5 184.5 L 66.5 190.2 L 65.6 190.2 L 65.6 183.3 L 66.7 183.3 " fill="#0000FF"/>
<path class="atom-35" d="M 96.4 211.8 L 97.4 211.8 L 97.4 214.8 L 100.9 214.8 L 100.9 211.8 L 101.8 211.8 L 101.8 218.7 L 100.9 218.7 L 100.9 215.5 L 97.4 215.5 L 97.4 218.7 L 96.4 218.7 L 96.4 211.8 " fill="#000000"/>
<path class="atom-36" d="M 150.5 146.2 Q 150.5 144.5, 151.3 143.6 Q 152.1 142.7, 153.6 142.7 Q 155.2 142.7, 156.0 143.6 Q 156.8 144.5, 156.8 146.2 Q 156.8 147.8, 156.0 148.8 Q 155.1 149.7, 153.6 149.7 Q 152.1 149.7, 151.3 148.8 Q 150.5 147.8, 150.5 146.2 M 153.6 149.0 Q 154.7 149.0, 155.2 148.3 Q 155.8 147.5, 155.8 146.2 Q 155.8 144.8, 155.2 144.1 Q 154.7 143.4, 153.6 143.4 Q 152.6 143.4, 152.0 144.1 Q 151.4 144.8, 151.4 146.2 Q 151.4 147.6, 152.0 148.3 Q 152.6 149.0, 153.6 149.0 " fill="#FF0000"/>
<path class="atom-38" d="M 252.1 183.2 L 253.1 183.2 L 253.1 186.1 L 256.6 186.1 L 256.6 183.2 L 257.5 183.2 L 257.5 190.1 L 256.6 190.1 L 256.6 186.9 L 253.1 186.9 L 253.1 190.1 L 252.1 190.1 L 252.1 183.2 " fill="#000000"/>
<path class="atom-39" d="M 230.0 140.4 L 230.9 140.4 L 230.9 143.3 L 234.5 143.3 L 234.5 140.4 L 235.4 140.4 L 235.4 147.3 L 234.5 147.3 L 234.5 144.1 L 230.9 144.1 L 230.9 147.3 L 230.0 147.3 L 230.0 140.4 " fill="#000000"/>
<path class="atom-40" d="M 260.0 152.0 L 260.9 152.0 L 260.9 154.9 L 264.5 154.9 L 264.5 152.0 L 265.4 152.0 L 265.4 158.9 L 264.5 158.9 L 264.5 155.7 L 260.9 155.7 L 260.9 158.9 L 260.0 158.9 L 260.0 152.0 " fill="#000000"/>
<path class="atom-42" d="M 212.3 208.3 L 213.2 208.3 L 213.2 211.2 L 216.7 211.2 L 216.7 208.3 L 217.7 208.3 L 217.7 215.2 L 216.7 215.2 L 216.7 212.0 L 213.2 212.0 L 213.2 215.2 L 212.3 215.2 L 212.3 208.3 " fill="#000000"/>
<path class="atom-43" d="M 252.5 181.4 L 253.5 181.4 L 253.5 184.3 L 257.0 184.3 L 257.0 181.4 L 257.9 181.4 L 257.9 188.2 L 257.0 188.2 L 257.0 185.1 L 253.5 185.1 L 253.5 188.2 L 252.5 188.2 L 252.5 181.4 " fill="#000000"/>
<path class="atom-44" d="M 246.3 212.9 L 247.2 212.9 L 247.2 215.8 L 250.7 215.8 L 250.7 212.9 L 251.7 212.9 L 251.7 219.8 L 250.7 219.8 L 250.7 216.6 L 247.2 216.6 L 247.2 219.8 L 246.3 219.8 L 246.3 212.9 " fill="#000000"/>
<path class="atom-45" d="M 224.6 123.7 L 225.5 123.7 L 225.5 126.6 L 229.0 126.6 L 229.0 123.7 L 230.0 123.7 L 230.0 130.5 L 229.0 130.5 L 229.0 127.4 L 225.5 127.4 L 225.5 130.5 L 224.6 130.5 L 224.6 123.7 " fill="#000000"/>
<path class="atom-38" d="M 253.2,185.0 L 253.2,188.3 L 256.4,188.3 L 256.4,185.0 L 253.2,185.0" style="fill:none;stroke:#FF0000;stroke-width:2.0px;stroke-linecap:butt;stroke-linejoin:miter;stroke-opacity:1;"/>
<path class="bond-0 atom-0 atom-7" d="M 430.7,177.0 L 448.2,160.1" style="fill:none;fill-rule:evenodd;stroke:#000000;stroke-width:2.0px;stroke-linecap:butt;stroke-linejoin:miter;stroke-opacity:1"/>
<path class="bond-1 atom-0 atom-1" d="M 430.7,177.0 L 436.6,200.5" style="fill:none;fill-rule:evenodd;stroke:#000000;stroke-width:2.0px;stroke-linecap:butt;stroke-linejoin:miter;stroke-opacity:1"/>
<path class="bond-1 atom-0 atom-1" d="M 436.3,179.3 L 440.4,195.8" style="fill:none;fill-rule:evenodd;stroke:#000000;stroke-width:2.0px;stroke-linecap:butt;stroke-linejoin:miter;stroke-opacity:1"/>
<path class="bond-2 atom-0 atom-19" d="M 430.7,177.0 L 407.4,170.2" style="fill:none;fill-rule:evenodd;stroke:#000000;stroke-width:2.0px;stroke-linecap:butt;stroke-linejoin:miter;stroke-opacity:1"/>
<path class="bond-3 atom-1 atom-3" d="M 436.6,200.5 L 459.9,207.2" style="fill:none;fill-rule:evenodd;stroke:#000000;stroke-width:2.0px;stroke-linecap:butt;stroke-linejoin:miter;stroke-opacity:1"/>
<path class="bond-4 atom-1 atom-2" d="M 436.6,200.5 L 422.5,214.0" style="fill:none;fill-rule:evenodd;stroke:#000000;stroke-width:2.0px;stroke-linecap:butt;stroke-linejoin:miter;stroke-opacity:1"/>
<path class="bond-5 atom-3 atom-5" d="M 459.9,207.2 L 477.4,190.4" style="fill:none;fill-rule:evenodd;stroke:#000000;stroke-width:2.0px;stroke-linecap:butt;stroke-linejoin:miter;stroke-opacity:1"/>
<path class="bond-5 atom-3 atom-5" d="M 459.1,201.2 L 471.4,189.4" style="fill:none;fill-rule:evenodd;stroke:#000000;stroke-width:2.0px;stroke-linecap:butt;stroke-linejoin:miter;stroke-opacity:1"/>
<path class="bond-6 atom-3 atom-4" d="M 459.9,207.2 L 464.7,226.6" style="fill:none;fill-rule:evenodd;stroke:#000000;stroke-width:2.0px;stroke-linecap:butt;stroke-linejoin:miter;stroke-opacity:1"/>
<path class="bond-7 atom-5 atom-9" d="M 477.4,190.4 L 487.1,193.2" style="fill:none;fill-rule:evenodd;stroke:#000000;stroke-width:2.0px;stroke-linecap:butt;stroke-linejoin:miter;stroke-opacity:1"/>
<path class="bond-7 atom-5 atom-9" d="M 487.1,193.2 L 496.8,196.0" style="fill:none;fill-rule:evenodd;stroke:#FF0000;stroke-width:2.0px;stroke-linecap:butt;stroke-linejoin:miter;stroke-opacity:1"/>
<path class="bond-8 atom-5 atom-6" d="M 477.4,190.4 L 471.5,166.8" style="fill:none;fill-rule:evenodd;stroke:#000000;stroke-width:2.0px;stroke-linecap:butt;stroke-linejoin:miter;stroke-opacity:1"/>
<path class="bond-9 atom-6 atom-14" d="M 471.5,166.8 L 489.0,150.0" style="fill:none;fill-rule:evenodd;stroke:#000000;stroke-width:2.0px;stroke-linecap:butt;stroke-linejoin:miter;stroke-opacity:1"/>
<path class="bond-10 atom-6 atom-7" d="M 471.5,166.8 L 448.2,160.1" style="fill:none;fill-rule:evenodd;stroke:#000000;stroke-width:2.0px;stroke-linecap:butt;stroke-linejoin:miter;stroke-opacity:1"/>
<path class="bond-10 atom-6 atom-7" d="M 466.7,170.5 L 450.4,165.8" style="fill:none;fill-rule:evenodd;stroke:#000000;stroke-width:2.0px;stroke-linecap:butt;stroke-linejoin:miter;stroke-opacity:1"/>
<path class="bond-11 atom-7 atom-8" d="M 448.2,160.1 L 446.2,151.8" style="fill:none;fill-rule:evenodd;stroke:#000000;stroke-width:2.0px;stroke-linecap:butt;stroke-linejoin:miter;stroke-opacity:1"/>
<path class="bond-12 atom-9 atom-10" d="M 504.6,193.4 L 511.4,186.8" style="fill:none;fill-rule:evenodd;stroke:#FF0000;stroke-width:2.0px;stroke-linecap:butt;stroke-linejoin:miter;stroke-opacity:1"/>
<path class="bond-12 atom-9 atom-10" d="M 511.4,186.8 L 518.2,180.3" style="fill:none;fill-rule:evenodd;stroke:#000000;stroke-width:2.0px;stroke-linecap:butt;stroke-linejoin:miter;stroke-opacity:1"/>
<path class="bond-13 atom-10 atom-38" d="M 518.2,180.3 L 540.4,170.5" style="fill:none;fill-rule:evenodd;stroke:#000000;stroke-width:2.0px;stroke-linecap:butt;stroke-linejoin:miter;stroke-opacity:1"/>
<path class="bond-14 atom-10 atom-11" d="M 518.2,180.3 L 512.4,156.7" style="fill:none;fill-rule:evenodd;stroke:#000000;stroke-width:2.0px;stroke-linecap:butt;stroke-linejoin:miter;stroke-opacity:1"/>
<path class="bond-15 atom-10 atom-42" d="M 518.2,180.3 L 531.7,200.5" style="fill:none;fill-rule:evenodd;stroke:#000000;stroke-width:2.0px;stroke-linecap:butt;stroke-linejoin:miter;stroke-opacity:1"/>
<path class="bond-16 atom-11 atom-13" d="M 512.4,156.7 L 532.7,152.8" style="fill:none;fill-rule:evenodd;stroke:#000000;stroke-width:2.0px;stroke-linecap:butt;stroke-linejoin:miter;stroke-opacity:1"/>
<path class="bond-17 atom-11 atom-12" d="M 512.4,156.7 L 521.3,139.4" style="fill:none;fill-rule:evenodd;stroke:#000000;stroke-width:2.0px;stroke-linecap:butt;stroke-linejoin:miter;stroke-opacity:1"/>
<path class="bond-18 atom-14 atom-11" d="M 489.0,150.0 L 513.0,154.5 L 511.7,159.0 Z" style="fill:#000000;fill-rule:evenodd;fill-opacity:1;stroke:#000000;stroke-width:1.0px;stroke-linecap:butt;stroke-linejoin:miter;stroke-opacity:1;"/>
<path class="bond-19 atom-14 atom-15" d="M 489.0,150.0 L 466.5,140.9" style="fill:none;fill-rule:evenodd;stroke:#000000;stroke-width:2.0px;stroke-linecap:butt;stroke-linejoin:miter;stroke-opacity:1"/>
<path class="bond-20 atom-14 atom-18" d="M 489.0,150.0 L 495.2,142.7" style="fill:none;fill-rule:evenodd;stroke:#000000;stroke-width:2.0px;stroke-linecap:butt;stroke-linejoin:miter;stroke-opacity:1"/>
<path class="bond-20 atom-14 atom-18" d="M 495.2,142.7 L 501.3,135.5" style="fill:none;fill-rule:evenodd;stroke:#0000FF;stroke-width:2.0px;stroke-linecap:butt;stroke-linejoin:miter;stroke-opacity:1"/>
<path class="bond-21 atom-15 atom-37" d="M 467.3,143.2 L 463.1,144.5" style="fill:none;fill-rule:evenodd;stroke:#000000;stroke-width:2.0px;stroke-linecap:butt;stroke-linejoin:miter;stroke-opacity:1"/>
<path class="bond-21 atom-15 atom-37" d="M 463.1,144.5 L 458.9,145.9" style="fill:none;fill-rule:evenodd;stroke:#FF0000;stroke-width:2.0px;stroke-linecap:butt;stroke-linejoin:miter;stroke-opacity:1"/>
<path class="bond-21 atom-15 atom-37" d="M 465.8,138.6 L 461.6,139.9" style="fill:none;fill-rule:evenodd;stroke:#000000;stroke-width:2.0px;stroke-linecap:butt;stroke-linejoin:miter;stroke-opacity:1"/>
<path class="bond-21 atom-15 atom-37" d="M 461.6,139.9 L 457.5,141.3" style="fill:none;fill-rule:evenodd;stroke:#FF0000;stroke-width:2.0px;stroke-linecap:butt;stroke-linejoin:miter;stroke-opacity:1"/>
<path class="bond-22 atom-15 atom-16" d="M 466.5,140.9 L 467.3,130.9" style="fill:none;fill-rule:evenodd;stroke:#000000;stroke-width:2.0px;stroke-linecap:butt;stroke-linejoin:miter;stroke-opacity:1"/>
<path class="bond-22 atom-15 atom-16" d="M 467.3,130.9 L 468.0,120.9" style="fill:none;fill-rule:evenodd;stroke:#0000FF;stroke-width:2.0px;stroke-linecap:butt;stroke-linejoin:miter;stroke-opacity:1"/>
<path class="bond-23 atom-16 atom-20" d="M 464.9,113.8 L 457.3,107.4" style="fill:none;fill-rule:evenodd;stroke:#0000FF;stroke-width:2.0px;stroke-linecap:butt;stroke-linejoin:miter;stroke-opacity:1"/>
<path class="bond-23 atom-16 atom-20" d="M 457.3,107.4 L 449.7,101.0" style="fill:none;fill-rule:evenodd;stroke:#000000;stroke-width:2.0px;stroke-linecap:butt;stroke-linejoin:miter;stroke-opacity:1"/>
<path class="bond-24 atom-16 atom-17" d="M 471.7,115.8 L 481.8,113.3" style="fill:none;fill-rule:evenodd;stroke:#0000FF;stroke-width:2.0px;stroke-linecap:butt;stroke-linejoin:miter;stroke-opacity:1"/>
<path class="bond-24 atom-16 atom-17" d="M 481.8,113.3 L 491.8,110.8" style="fill:none;fill-rule:evenodd;stroke:#000000;stroke-width:2.0px;stroke-linecap:butt;stroke-linejoin:miter;stroke-opacity:1"/>
<path class="bond-25 atom-17 atom-18" d="M 491.8,110.8 L 496.9,119.0" style="fill:none;fill-rule:evenodd;stroke:#000000;stroke-width:2.0px;stroke-linecap:butt;stroke-linejoin:miter;stroke-opacity:1"/>
<path class="bond-25 atom-17 atom-18" d="M 496.9,119.0 L 502.0,127.2" style="fill:none;fill-rule:evenodd;stroke:#0000FF;stroke-width:2.0px;stroke-linecap:butt;stroke-linejoin:miter;stroke-opacity:1"/>
<path class="bond-25 atom-17 atom-18" d="M 489.2,115.9 L 492.8,121.6" style="fill:none;fill-rule:evenodd;stroke:#000000;stroke-width:2.0px;stroke-linecap:butt;stroke-linejoin:miter;stroke-opacity:1"/>
<path class="bond-25 atom-17 atom-18" d="M 492.8,121.6 L 496.4,127.3" style="fill:none;fill-rule:evenodd;stroke:#0000FF;stroke-width:2.0px;stroke-linecap:butt;stroke-linejoin:miter;stroke-opacity:1"/>
<path class="bond-26 atom-17 atom-24" d="M 491.8,110.8 L 495.5,101.7" style="fill:none;fill-rule:evenodd;stroke:#000000;stroke-width:2.0px;stroke-linecap:butt;stroke-linejoin:miter;stroke-opacity:1"/>
<path class="bond-26 atom-17 atom-24" d="M 495.5,101.7 L 499.3,92.6" style="fill:none;fill-rule:evenodd;stroke:#0000FF;stroke-width:2.0px;stroke-linecap:butt;stroke-linejoin:miter;stroke-opacity:1"/>
<path class="bond-27 atom-18 atom-46" d="M 511.9,131.1 L 518.6,130.7" style="fill:none;fill-rule:evenodd;stroke:#0000FF;stroke-width:2.0px;stroke-linecap:butt;stroke-linejoin:miter;stroke-opacity:1"/>
<path class="bond-27 atom-18 atom-46" d="M 518.6,130.7 L 525.4,130.4" style="fill:none;fill-rule:evenodd;stroke:#000000;stroke-width:2.0px;stroke-linecap:butt;stroke-linejoin:miter;stroke-opacity:1"/>
<path class="bond-28 atom-19 atom-35" d="M 407.4,170.2 L 389.9,187.1" style="fill:none;fill-rule:evenodd;stroke:#000000;stroke-width:2.0px;stroke-linecap:butt;stroke-linejoin:miter;stroke-opacity:1"/>
<path class="bond-29 atom-19 atom-27" d="M 407.4,170.2 L 401.6,146.7" style="fill:none;fill-rule:evenodd;stroke:#000000;stroke-width:2.0px;stroke-linecap:butt;stroke-linejoin:miter;stroke-opacity:1"/>
<path class="bond-29 atom-19 atom-27" d="M 401.8,167.8 L 397.7,151.4" style="fill:none;fill-rule:evenodd;stroke:#000000;stroke-width:2.0px;stroke-linecap:butt;stroke-linejoin:miter;stroke-opacity:1"/>
<path class="bond-30 atom-20 atom-21" d="M 449.7,101.0 L 461.9,86.6" style="fill:none;fill-rule:evenodd;stroke:#000000;stroke-width:2.0px;stroke-linecap:butt;stroke-linejoin:miter;stroke-opacity:1"/>
<path class="bond-31 atom-20 atom-23" d="M 449.7,101.0 L 434.6,88.3" style="fill:none;fill-rule:evenodd;stroke:#000000;stroke-width:2.0px;stroke-linecap:butt;stroke-linejoin:miter;stroke-opacity:1"/>
<path class="bond-32 atom-20 atom-22" d="M 449.7,101.0 L 437.5,115.5" style="fill:none;fill-rule:evenodd;stroke:#000000;stroke-width:2.0px;stroke-linecap:butt;stroke-linejoin:miter;stroke-opacity:1"/>
<path class="bond-33 atom-24 atom-26" d="M 504.4,87.9 L 513.0,86.7" style="fill:none;fill-rule:evenodd;stroke:#0000FF;stroke-width:2.0px;stroke-linecap:butt;stroke-linejoin:miter;stroke-opacity:1"/>
<path class="bond-33 atom-24 atom-26" d="M 513.0,86.7 L 521.5,85.5" style="fill:none;fill-rule:evenodd;stroke:#000000;stroke-width:2.0px;stroke-linecap:butt;stroke-linejoin:miter;stroke-opacity:1"/>
<path class="bond-34 atom-24 atom-25" d="M 497.7,84.1 L 493.5,78.8" style="fill:none;fill-rule:evenodd;stroke:#0000FF;stroke-width:2.0px;stroke-linecap:butt;stroke-linejoin:miter;stroke-opacity:1"/>
<path class="bond-34 atom-24 atom-25" d="M 493.5,78.8 L 489.3,73.4" style="fill:none;fill-rule:evenodd;stroke:#000000;stroke-width:2.0px;stroke-linecap:butt;stroke-linejoin:miter;stroke-opacity:1"/>
<path class="bond-35 atom-27 atom-29" d="M 401.6,146.7 L 378.2,139.9" style="fill:none;fill-rule:evenodd;stroke:#000000;stroke-width:2.0px;stroke-linecap:butt;stroke-linejoin:miter;stroke-opacity:1"/>
<path class="bond-36 atom-27 atom-28" d="M 401.6,146.7 L 415.6,133.2" style="fill:none;fill-rule:evenodd;stroke:#000000;stroke-width:2.0px;stroke-linecap:butt;stroke-linejoin:miter;stroke-opacity:1"/>
<path class="bond-37 atom-29 atom-31" d="M 378.2,139.9 L 360.7,156.8" style="fill:none;fill-rule:evenodd;stroke:#000000;stroke-width:2.0px;stroke-linecap:butt;stroke-linejoin:miter;stroke-opacity:1"/>
<path class="bond-37 atom-29 atom-31" d="M 379.0,145.9 L 366.7,157.7" style="fill:none;fill-rule:evenodd;stroke:#000000;stroke-width:2.0px;stroke-linecap:butt;stroke-linejoin:miter;stroke-opacity:1"/>
<path class="bond-38 atom-29 atom-30" d="M 378.2,139.9 L 375.8,130.2" style="fill:none;fill-rule:evenodd;stroke:#000000;stroke-width:2.0px;stroke-linecap:butt;stroke-linejoin:miter;stroke-opacity:1"/>
<path class="bond-38 atom-29 atom-30" d="M 375.8,130.2 L 373.5,120.6" style="fill:none;fill-rule:evenodd;stroke:#33CCCC;stroke-width:2.0px;stroke-linecap:butt;stroke-linejoin:miter;stroke-opacity:1"/>
<path class="bond-39 atom-31 atom-33" d="M 360.7,156.8 L 366.6,180.3" style="fill:none;fill-rule:evenodd;stroke:#000000;stroke-width:2.0px;stroke-linecap:butt;stroke-linejoin:miter;stroke-opacity:1"/>
<path class="bond-40 atom-31 atom-32" d="M 360.7,156.8 L 340.9,151.0" style="fill:none;fill-rule:evenodd;stroke:#000000;stroke-width:2.0px;stroke-linecap:butt;stroke-linejoin:miter;stroke-opacity:1"/>
<path class="bond-41 atom-33 atom-34" d="M 366.6,180.3 L 352.6,193.8" style="fill:none;fill-rule:evenodd;stroke:#000000;stroke-width:2.0px;stroke-linecap:butt;stroke-linejoin:miter;stroke-opacity:1"/>
<path class="bond-42 atom-33 atom-35" d="M 366.6,180.3 L 389.9,187.1" style="fill:none;fill-rule:evenodd;stroke:#000000;stroke-width:2.0px;stroke-linecap:butt;stroke-linejoin:miter;stroke-opacity:1"/>
<path class="bond-42 atom-33 atom-35" d="M 371.4,176.7 L 387.8,181.4" style="fill:none;fill-rule:evenodd;stroke:#000000;stroke-width:2.0px;stroke-linecap:butt;stroke-linejoin:miter;stroke-opacity:1"/>
<path class="bond-43 atom-35 atom-36" d="M 389.9,187.1 L 394.7,206.4" style="fill:none;fill-rule:evenodd;stroke:#000000;stroke-width:2.0px;stroke-linecap:butt;stroke-linejoin:miter;stroke-opacity:1"/>
<path class="bond-44 atom-38 atom-39" d="M 540.4,170.5 L 550.3,187.1" style="fill:none;fill-rule:evenodd;stroke:#000000;stroke-width:2.0px;stroke-linecap:butt;stroke-linejoin:miter;stroke-opacity:1"/>
<path class="bond-45 atom-38 atom-40" d="M 540.4,170.5 L 534.6,151.5" style="fill:none;fill-rule:evenodd;stroke:#000000;stroke-width:2.0px;stroke-linecap:butt;stroke-linejoin:miter;stroke-opacity:1"/>
<path class="bond-46 atom-38 atom-41" d="M 540.4,170.5 L 559.1,162.2" style="fill:none;fill-rule:evenodd;stroke:#000000;stroke-width:2.0px;stroke-linecap:butt;stroke-linejoin:miter;stroke-opacity:1"/>
<path class="bond-47 atom-42 atom-45" d="M 531.7,200.5 L 542.4,216.4" style="fill:none;fill-rule:evenodd;stroke:#000000;stroke-width:2.0px;stroke-linecap:butt;stroke-linejoin:miter;stroke-opacity:1"/>
<path class="bond-48 atom-42 atom-44" d="M 531.7,200.5 L 549.9,191.2" style="fill:none;fill-rule:evenodd;stroke:#000000;stroke-width:2.0px;stroke-linecap:butt;stroke-linejoin:miter;stroke-opacity:1"/>
<path class="bond-49 atom-42 atom-43" d="M 531.7,200.5 L 515.1,211.7" style="fill:none;fill-rule:evenodd;stroke:#000000;stroke-width:2.0px;stroke-linecap:butt;stroke-linejoin:miter;stroke-opacity:1"/>
<path class="atom-2" d="M 416.4 213.9 L 417.3 213.9 L 417.3 216.8 L 420.8 216.8 L 420.8 213.9 L 421.8 213.9 L 421.8 220.8 L 420.8 220.8 L 420.8 217.6 L 417.3 217.6 L 417.3 220.8 L 416.4 220.8 L 416.4 213.9 " fill="#000000"/>
<path class="atom-4" d="M 463.0 227.4 L 464.0 227.4 L 464.0 230.3 L 467.5 230.3 L 467.5 227.4 L 468.4 227.4 L 468.4 234.3 L 467.5 234.3 L 467.5 231.1 L 464.0 231.1 L 464.0 234.3 L 463.0 234.3 L 463.0 227.4 " fill="#000000"/>
<path class="atom-8" d="M 442.4 144.2 L 443.4 144.2 L 443.4 147.1 L 446.9 147.1 L 446.9 144.2 L 447.8 144.2 L 447.8 151.0 L 446.9 151.0 L 446.9 147.9 L 443.4 147.9 L 443.4 151.0 L 442.4 151.0 L 442.4 144.2 " fill="#000000"/>
<path class="atom-9" d="M 497.5 197.2 Q 497.5 195.5, 498.4 194.6 Q 499.2 193.7, 500.7 193.7 Q 502.2 193.7, 503.0 194.6 Q 503.9 195.5, 503.9 197.2 Q 503.9 198.8, 503.0 199.8 Q 502.2 200.7, 500.7 200.7 Q 499.2 200.7, 498.4 199.8 Q 497.5 198.8, 497.5 197.2 M 500.7 200.0 Q 501.7 200.0, 502.3 199.3 Q 502.9 198.5, 502.9 197.2 Q 502.9 195.8, 502.3 195.1 Q 501.7 194.4, 500.7 194.4 Q 499.6 194.4, 499.1 195.1 Q 498.5 195.8, 498.5 197.2 Q 498.5 198.6, 499.1 199.3 Q 499.6 200.0, 500.7 200.0 " fill="#FF0000"/>
<path class="atom-12" d="M 520.7 131.7 L 521.7 131.7 L 521.7 134.6 L 525.2 134.6 L 525.2 131.7 L 526.1 131.7 L 526.1 138.6 L 525.2 138.6 L 525.2 135.4 L 521.7 135.4 L 521.7 138.6 L 520.7 138.6 L 520.7 131.7 " fill="#000000"/>
<path class="atom-13" d="M 533.5 148.7 L 534.4 148.7 L 534.4 151.6 L 538.0 151.6 L 538.0 148.7 L 538.9 148.7 L 538.9 155.6 L 538.0 155.6 L 538.0 152.4 L 534.4 152.4 L 534.4 155.6 L 533.5 155.6 L 533.5 148.7 " fill="#000000"/>
<path class="atom-16" d="M 466.8 113.2 L 469.0 116.9 Q 469.2 117.2, 469.6 117.9 Q 469.9 118.5, 470.0 118.6 L 470.0 113.2 L 470.9 113.2 L 470.9 120.1 L 469.9 120.1 L 467.5 116.1 Q 467.2 115.7, 466.9 115.1 Q 466.6 114.6, 466.6 114.4 L 466.6 120.1 L 465.7 120.1 L 465.7 113.2 L 466.8 113.2 " fill="#0000FF"/>
<path class="atom-18" d="M 503.1 128.0 L 505.4 131.6 Q 505.6 132.0, 506.0 132.7 Q 506.3 133.3, 506.4 133.3 L 506.4 128.0 L 507.3 128.0 L 507.3 134.9 L 506.3 134.9 L 503.9 130.9 Q 503.6 130.4, 503.3 129.9 Q 503.0 129.4, 503.0 129.2 L 503.0 134.9 L 502.1 134.9 L 502.1 128.0 L 503.1 128.0 " fill="#0000FF"/>
<path class="atom-18" d="M 508.1 129.2 L 509.3 129.2 L 509.3 128.0 L 509.8 128.0 L 509.8 129.2 L 511.1 129.2 L 511.1 129.7 L 509.8 129.7 L 509.8 131.0 L 509.3 131.0 L 509.3 129.7 L 508.1 129.7 L 508.1 129.2 " fill="#0000FF"/>
<path class="atom-21" d="M 462.7 79.0 L 463.6 79.0 L 463.6 81.9 L 467.1 81.9 L 467.1 79.0 L 468.0 79.0 L 468.0 85.9 L 467.1 85.9 L 467.1 82.7 L 463.6 82.7 L 463.6 85.9 L 462.7 85.9 L 462.7 79.0 " fill="#000000"/>
<path class="atom-22" d="M 431.4 116.2 L 432.3 116.2 L 432.3 119.1 L 435.8 119.1 L 435.8 116.2 L 436.8 116.2 L 436.8 123.0 L 435.8 123.0 L 435.8 119.9 L 432.3 119.9 L 432.3 123.0 L 431.4 123.0 L 431.4 116.2 " fill="#000000"/>
<path class="atom-23" d="M 428.4 82.0 L 429.4 82.0 L 429.4 84.9 L 432.9 84.9 L 432.9 82.0 L 433.8 82.0 L 433.8 88.8 L 432.9 88.8 L 432.9 85.7 L 429.4 85.7 L 429.4 88.8 L 428.4 88.8 L 428.4 82.0 " fill="#000000"/>
<path class="atom-24" d="M 499.5 84.9 L 501.7 88.5 Q 501.9 88.9, 502.3 89.6 Q 502.6 90.2, 502.7 90.2 L 502.7 84.9 L 503.6 84.9 L 503.6 91.8 L 502.6 91.8 L 500.2 87.8 Q 499.9 87.3, 499.6 86.8 Q 499.3 86.3, 499.3 86.1 L 499.3 91.8 L 498.4 91.8 L 498.4 84.9 L 499.5 84.9 " fill="#0000FF"/>
<path class="atom-25" d="M 483.4 65.7 L 484.3 65.7 L 484.3 68.7 L 487.8 68.7 L 487.8 65.7 L 488.7 65.7 L 488.7 72.6 L 487.8 72.6 L 487.8 69.4 L 484.3 69.4 L 484.3 72.6 L 483.4 72.6 L 483.4 65.7 " fill="#000000"/>
<path class="atom-26" d="M 522.3 81.6 L 523.3 81.6 L 523.3 84.5 L 526.8 84.5 L 526.8 81.6 L 527.7 81.6 L 527.7 88.4 L 526.8 88.4 L 526.8 85.3 L 523.3 85.3 L 523.3 88.4 L 522.3 88.4 L 522.3 81.6 " fill="#000000"/>
<path class="atom-28" d="M 416.4 126.4 L 417.3 126.4 L 417.3 129.3 L 420.8 129.3 L 420.8 126.4 L 421.7 126.4 L 421.7 133.3 L 420.8 133.3 L 420.8 130.1 L 417.3 130.1 L 417.3 133.3 L 416.4 133.3 L 416.4 126.4 " fill="#000000"/>
<path class="atom-30" d="M 370.4 112.9 L 374.5 112.9 L 374.5 113.7 L 371.3 113.7 L 371.3 115.8 L 374.1 115.8 L 374.1 116.6 L 371.3 116.6 L 371.3 119.8 L 370.4 119.8 L 370.4 112.9 " fill="#33CCCC"/>
<path class="atom-32" d="M 334.7 146.6 L 335.7 146.6 L 335.7 149.5 L 339.2 149.5 L 339.2 146.6 L 340.1 146.6 L 340.1 153.5 L 339.2 153.5 L 339.2 150.3 L 335.7 150.3 L 335.7 153.5 L 334.7 153.5 L 334.7 146.6 " fill="#000000"/>
<path class="atom-34" d="M 346.4 193.7 L 347.3 193.7 L 347.3 196.6 L 350.8 196.6 L 350.8 193.7 L 351.8 193.7 L 351.8 200.6 L 350.8 200.6 L 350.8 197.4 L 347.3 197.4 L 347.3 200.6 L 346.4 200.6 L 346.4 193.7 " fill="#000000"/>
<path class="atom-36" d="M 393.0 207.2 L 394.0 207.2 L 394.0 210.1 L 397.5 210.1 L 397.5 207.2 L 398.4 207.2 L 398.4 214.1 L 397.5 214.1 L 397.5 210.9 L 394.0 210.9 L 394.0 214.1 L 393.0 214.1 L 393.0 207.2 " fill="#000000"/>
<path class="atom-37" d="M 451.1 144.9 Q 451.1 143.2, 451.9 142.3 Q 452.7 141.4, 454.3 141.4 Q 455.8 141.4, 456.6 142.3 Q 457.4 143.2, 457.4 144.9 Q 457.4 146.5, 456.6 147.5 Q 455.8 148.4, 454.3 148.4 Q 452.7 148.4, 451.9 147.5 Q 451.1 146.5, 451.1 144.9 M 454.3 147.7 Q 455.3 147.7, 455.9 147.0 Q 456.4 146.2, 456.4 144.9 Q 456.4 143.5, 455.9 142.8 Q 455.3 142.1, 454.3 142.1 Q 453.2 142.1, 452.6 142.8 Q 452.1 143.5, 452.1 144.9 Q 452.1 146.3, 452.6 147.0 Q 453.2 147.7, 454.3 147.7 " fill="#FF0000"/>
<path class="atom-39" d="M 550.2 187.9 L 551.1 187.9 L 551.1 190.8 L 554.6 190.8 L 554.6 187.9 L 555.5 187.9 L 555.5 194.7 L 554.6 194.7 L 554.6 191.6 L 551.1 191.6 L 551.1 194.7 L 550.2 194.7 L 550.2 187.9 " fill="#000000"/>
<path class="atom-40" d="M 530.6 143.8 L 531.6 143.8 L 531.6 146.7 L 535.1 146.7 L 535.1 143.8 L 536.0 143.8 L 536.0 150.7 L 535.1 150.7 L 535.1 147.5 L 531.6 147.5 L 531.6 150.7 L 530.6 150.7 L 530.6 143.8 " fill="#000000"/>
<path class="atom-41" d="M 559.9 157.2 L 560.8 157.2 L 560.8 160.1 L 564.3 160.1 L 564.3 157.2 L 565.3 157.2 L 565.3 164.1 L 564.3 164.1 L 564.3 160.9 L 560.8 160.9 L 560.8 164.1 L 559.9 164.1 L 559.9 157.2 " fill="#000000"/>
<path class="atom-43" d="M 508.9 210.6 L 509.8 210.6 L 509.8 213.5 L 513.3 213.5 L 513.3 210.6 L 514.3 210.6 L 514.3 217.4 L 513.3 217.4 L 513.3 214.3 L 509.8 214.3 L 509.8 217.4 L 508.9 217.4 L 508.9 210.6 " fill="#000000"/>
<path class="atom-44" d="M 550.7 186.0 L 551.6 186.0 L 551.6 189.0 L 555.1 189.0 L 555.1 186.0 L 556.1 186.0 L 556.1 192.9 L 555.1 192.9 L 555.1 189.7 L 551.6 189.7 L 551.6 192.9 L 550.7 192.9 L 550.7 186.0 " fill="#000000"/>
<path class="atom-45" d="M 542.6 217.2 L 543.5 217.2 L 543.5 220.1 L 547.0 220.1 L 547.0 217.2 L 548.0 217.2 L 548.0 224.1 L 547.0 224.1 L 547.0 220.9 L 543.5 220.9 L 543.5 224.1 L 542.6 224.1 L 542.6 217.2 " fill="#000000"/>
<path class="atom-46" d="M 526.2 126.8 L 527.2 126.8 L 527.2 129.7 L 530.7 129.7 L 530.7 126.8 L 531.6 126.8 L 531.6 133.7 L 530.7 133.7 L 530.7 130.5 L 527.2 130.5 L 527.2 133.7 L 526.2 133.7 L 526.2 126.8 " fill="#000000"/>
<path class="atom-39" d="M 551.2,189.7 L 551.2,192.9 L 554.5,192.9 L 554.5,189.7 L 551.2,189.7" style="fill:none;stroke:#FF0000;stroke-width:2.0px;stroke-linecap:butt;stroke-linejoin:miter;stroke-opacity:1;"/>
<text x="300" y="20" font-size="20" font-family="sans-serif" font-weight="normal" letter-spacing="0" text-anchor="middle" fill="black">bace_hunt: 38 -&gt; 27</text><text x="300" y="35" font-size="15" font-family="sans-serif" font-weight="normal" letter-spacing="0" text-anchor="middle" fill="black"></text><text x="150" y="285" font-size="15" font-family="sans-serif" font-weight="normal" letter-spacing="0" text-anchor="middle" fill="black">38</text><text x="450" y="285" font-size="15" font-family="sans-serif" font-weight="normal" letter-spacing="0" text-anchor="middle" fill="black">27</text></svg>
