<?xml version='1.0' encoding='ASCII' standalone='yes'?>
<svg xmlns="http://www.w3.org/2000/svg" xmlns:rdkit="http://www.rdkit.org/xml" xmlns:xlink="http://www.w3.org/1999/xlink" version="1.1" baseProfile="full" xml:space="preserve" width="600px" height="300px" viewBox="0 0 600 300">
<!-- END OF HEADER -->
<rect style="opacity:1.0;fill:#FFFFFF;stroke:none" width="600.0" height="300.0" x="0.0" y="0.0"> </rect>
<path class="bond-0 atom-0 atom-7" d="M 132.8,194.8 L 131.2,172.3" style="fill:none;fill-rule:evenodd;stroke:#000000;stroke-width:2.0px;stroke-linecap:butt;stroke-linejoin:miter;stroke-opacity:1"/>
<path class="bond-0 atom-0 atom-7" d="M 137.1,191.1 L 136.0,175.4" style="fill:none;fill-rule:evenodd;stroke:#000000;stroke-width:2.0px;stroke-linecap:butt;stroke-linejoin:miter;stroke-opacity:1"/>
<path class="bond-1 atom-0 atom-1" d="M 132.8,194.8 L 153.1,204.7" style="fill:none;fill-rule:evenodd;stroke:#000000;stroke-width:2.0px;stroke-linecap:butt;stroke-linejoin:miter;stroke-opacity:1"/>
<path class="bond-2 atom-0 atom-19" d="M 132.8,194.8 L 124.5,200.5" style="fill:none;fill-rule:evenodd;stroke:#000000;stroke-width:2.0px;stroke-linecap:butt;stroke-linejoin:miter;stroke-opacity:1"/>
<path class="bond-2 atom-0 atom-19" d="M 124.5,200.5 L 116.1,206.1" style="fill:none;fill-rule:evenodd;stroke:#7F4C19;stroke-width:2.0px;stroke-linecap:butt;stroke-linejoin:miter;stroke-opacity:1"/>
<path class="bond-3 atom-1 atom-3" d="M 153.1,204.7 L 171.8,192.1" style="fill:none;fill-rule:evenodd;stroke:#000000;stroke-width:2.0px;stroke-linecap:butt;stroke-linejoin:miter;stroke-opacity:1"/>
<path class="bond-3 atom-1 atom-3" d="M 153.4,199.1 L 166.5,190.3" style="fill:none;fill-rule:evenodd;stroke:#000000;stroke-width:2.0px;stroke-linecap:butt;stroke-linejoin:miter;stroke-opacity:1"/>
<path class="bond-4 atom-1 atom-2" d="M 153.1,204.7 L 154.4,223.3" style="fill:none;fill-rule:evenodd;stroke:#000000;stroke-width:2.0px;stroke-linecap:butt;stroke-linejoin:miter;stroke-opacity:1"/>
<path class="bond-5 atom-3 atom-5" d="M 171.8,192.1 L 170.2,169.6" style="fill:none;fill-rule:evenodd;stroke:#000000;stroke-width:2.0px;stroke-linecap:butt;stroke-linejoin:miter;stroke-opacity:1"/>
<path class="bond-6 atom-3 atom-4" d="M 171.8,192.1 L 188.8,200.4" style="fill:none;fill-rule:evenodd;stroke:#000000;stroke-width:2.0px;stroke-linecap:butt;stroke-linejoin:miter;stroke-opacity:1"/>
<path class="bond-7 atom-5 atom-9" d="M 170.2,169.6 L 177.7,164.5" style="fill:none;fill-rule:evenodd;stroke:#000000;stroke-width:2.0px;stroke-linecap:butt;stroke-linejoin:miter;stroke-opacity:1"/>
<path class="bond-7 atom-5 atom-9" d="M 177.7,164.5 L 185.3,159.5" style="fill:none;fill-rule:evenodd;stroke:#FF0000;stroke-width:2.0px;stroke-linecap:butt;stroke-linejoin:miter;stroke-opacity:1"/>
<path class="bond-8 atom-5 atom-6" d="M 170.2,169.6 L 149.9,159.7" style="fill:none;fill-rule:evenodd;stroke:#000000;stroke-width:2.0px;stroke-linecap:butt;stroke-linejoin:miter;stroke-opacity:1"/>
<path class="bond-8 atom-5 atom-6" d="M 165.2,172.2 L 151.0,165.2" style="fill:none;fill-rule:evenodd;stroke:#000000;stroke-width:2.0px;stroke-linecap:butt;stroke-linejoin:miter;stroke-opacity:1"/>
<path class="bond-9 atom-6 atom-14" d="M 149.9,159.7 L 148.4,137.2" style="fill:none;fill-rule:evenodd;stroke:#000000;stroke-width:2.0px;stroke-linecap:butt;stroke-linejoin:miter;stroke-opacity:1"/>
<path class="bond-10 atom-6 atom-7" d="M 149.9,159.7 L 131.2,172.3" style="fill:none;fill-rule:evenodd;stroke:#000000;stroke-width:2.0px;stroke-linecap:butt;stroke-linejoin:miter;stroke-opacity:1"/>
<path class="bond-11 atom-7 atom-8" d="M 131.2,172.3 L 123.7,168.6" style="fill:none;fill-rule:evenodd;stroke:#000000;stroke-width:2.0px;stroke-linecap:butt;stroke-linejoin:miter;stroke-opacity:1"/>
<path class="bond-12 atom-9 atom-10" d="M 188.7,153.0 L 188.0,143.8" style="fill:none;fill-rule:evenodd;stroke:#FF0000;stroke-width:2.0px;stroke-linecap:butt;stroke-linejoin:miter;stroke-opacity:1"/>
<path class="bond-12 atom-9 atom-10" d="M 188.0,143.8 L 187.4,134.5" style="fill:none;fill-rule:evenodd;stroke:#000000;stroke-width:2.0px;stroke-linecap:butt;stroke-linejoin:miter;stroke-opacity:1"/>
<path class="bond-13 atom-10 atom-28" d="M 187.4,134.5 L 193.6,112.8" style="fill:none;fill-rule:evenodd;stroke:#000000;stroke-width:2.0px;stroke-linecap:butt;stroke-linejoin:miter;stroke-opacity:1"/>
<path class="bond-14 atom-10 atom-11" d="M 187.4,134.5 L 167.1,124.6" style="fill:none;fill-rule:evenodd;stroke:#000000;stroke-width:2.0px;stroke-linecap:butt;stroke-linejoin:miter;stroke-opacity:1"/>
<path class="bond-15 atom-10 atom-32" d="M 187.4,134.5 L 209.8,136.8" style="fill:none;fill-rule:evenodd;stroke:#000000;stroke-width:2.0px;stroke-linecap:butt;stroke-linejoin:miter;stroke-opacity:1"/>
<path class="bond-16 atom-11 atom-13" d="M 167.1,124.6 L 175.9,108.8" style="fill:none;fill-rule:evenodd;stroke:#000000;stroke-width:2.0px;stroke-linecap:butt;stroke-linejoin:miter;stroke-opacity:1"/>
<path class="bond-17 atom-11 atom-12" d="M 167.1,124.6 L 159.9,107.7" style="fill:none;fill-rule:evenodd;stroke:#000000;stroke-width:2.0px;stroke-linecap:butt;stroke-linejoin:miter;stroke-opacity:1"/>
<path class="bond-18 atom-14 atom-11" d="M 148.4,137.2 L 165.8,122.7 L 168.3,126.4 Z" style="fill:#000000;fill-rule:evenodd;fill-opacity:1;stroke:#000000;stroke-width:1.0px;stroke-linecap:butt;stroke-linejoin:miter;stroke-opacity:1;"/>
<path class="bond-19 atom-14 atom-15" d="M 148.4,137.2 L 128.4,147.8" style="fill:none;fill-rule:evenodd;stroke:#000000;stroke-width:2.0px;stroke-linecap:butt;stroke-linejoin:miter;stroke-opacity:1"/>
<path class="bond-20 atom-14 atom-18" d="M 148.4,137.2 L 146.8,128.0" style="fill:none;fill-rule:evenodd;stroke:#000000;stroke-width:2.0px;stroke-linecap:butt;stroke-linejoin:miter;stroke-opacity:1"/>
<path class="bond-20 atom-14 atom-18" d="M 146.8,128.0 L 145.1,118.9" style="fill:none;fill-rule:evenodd;stroke:#0000FF;stroke-width:2.0px;stroke-linecap:butt;stroke-linejoin:miter;stroke-opacity:1"/>
<path class="bond-21 atom-15 atom-27" d="M 130.5,148.6 L 129.1,152.2" style="fill:none;fill-rule:evenodd;stroke:#000000;stroke-width:2.0px;stroke-linecap:butt;stroke-linejoin:miter;stroke-opacity:1"/>
<path class="bond-21 atom-15 atom-27" d="M 129.1,152.2 L 127.6,155.8" style="fill:none;fill-rule:evenodd;stroke:#FF0000;stroke-width:2.0px;stroke-linecap:butt;stroke-linejoin:miter;stroke-opacity:1"/>
<path class="bond-21 atom-15 atom-27" d="M 126.3,146.9 L 124.9,150.5" style="fill:none;fill-rule:evenodd;stroke:#000000;stroke-width:2.0px;stroke-linecap:butt;stroke-linejoin:miter;stroke-opacity:1"/>
<path class="bond-21 atom-15 atom-27" d="M 124.9,150.5 L 123.4,154.1" style="fill:none;fill-rule:evenodd;stroke:#FF0000;stroke-width:2.0px;stroke-linecap:butt;stroke-linejoin:miter;stroke-opacity:1"/>
<path class="bond-22 atom-15 atom-16" d="M 128.4,147.8 L 121.9,141.5" style="fill:none;fill-rule:evenodd;stroke:#000000;stroke-width:2.0px;stroke-linecap:butt;stroke-linejoin:miter;stroke-opacity:1"/>
<path class="bond-22 atom-15 atom-16" d="M 121.9,141.5 L 115.4,135.1" style="fill:none;fill-rule:evenodd;stroke:#0000FF;stroke-width:2.0px;stroke-linecap:butt;stroke-linejoin:miter;stroke-opacity:1"/>
<path class="bond-23 atom-16 atom-20" d="M 109.0,132.7 L 99.5,134.3" style="fill:none;fill-rule:evenodd;stroke:#0000FF;stroke-width:2.0px;stroke-linecap:butt;stroke-linejoin:miter;stroke-opacity:1"/>
<path class="bond-23 atom-16 atom-20" d="M 99.5,134.3 L 90.0,136.0" style="fill:none;fill-rule:evenodd;stroke:#000000;stroke-width:2.0px;stroke-linecap:butt;stroke-linejoin:miter;stroke-opacity:1"/>
<path class="bond-24 atom-16 atom-17" d="M 114.1,128.2 L 118.1,120.0" style="fill:none;fill-rule:evenodd;stroke:#0000FF;stroke-width:2.0px;stroke-linecap:butt;stroke-linejoin:miter;stroke-opacity:1"/>
<path class="bond-24 atom-16 atom-17" d="M 118.1,120.0 L 122.1,111.8" style="fill:none;fill-rule:evenodd;stroke:#000000;stroke-width:2.0px;stroke-linecap:butt;stroke-linejoin:miter;stroke-opacity:1"/>
<path class="bond-25 atom-17 atom-18" d="M 122.1,111.8 L 131.7,113.2" style="fill:none;fill-rule:evenodd;stroke:#000000;stroke-width:2.0px;stroke-linecap:butt;stroke-linejoin:miter;stroke-opacity:1"/>
<path class="bond-25 atom-17 atom-18" d="M 131.7,113.2 L 141.3,114.5" style="fill:none;fill-rule:evenodd;stroke:#0000FF;stroke-width:2.0px;stroke-linecap:butt;stroke-linejoin:miter;stroke-opacity:1"/>
<path class="bond-25 atom-17 atom-18" d="M 124.4,116.7 L 131.1,117.6" style="fill:none;fill-rule:evenodd;stroke:#000000;stroke-width:2.0px;stroke-linecap:butt;stroke-linejoin:miter;stroke-opacity:1"/>
<path class="bond-25 atom-17 atom-18" d="M 131.1,117.6 L 137.8,118.6" style="fill:none;fill-rule:evenodd;stroke:#0000FF;stroke-width:2.0px;stroke-linecap:butt;stroke-linejoin:miter;stroke-opacity:1"/>
<path class="bond-26 atom-17 atom-24" d="M 122.1,111.8 L 117.8,103.8" style="fill:none;fill-rule:evenodd;stroke:#000000;stroke-width:2.0px;stroke-linecap:butt;stroke-linejoin:miter;stroke-opacity:1"/>
<path class="bond-26 atom-17 atom-24" d="M 117.8,103.8 L 113.6,95.8" style="fill:none;fill-rule:evenodd;stroke:#0000FF;stroke-width:2.0px;stroke-linecap:butt;stroke-linejoin:miter;stroke-opacity:1"/>
<path class="bond-27 atom-18 atom-36" d="M 147.4,111.0 L 151.3,105.9" style="fill:none;fill-rule:evenodd;stroke:#0000FF;stroke-width:2.0px;stroke-linecap:butt;stroke-linejoin:miter;stroke-opacity:1"/>
<path class="bond-27 atom-18 atom-36" d="M 151.3,105.9 L 155.1,100.9" style="fill:none;fill-rule:evenodd;stroke:#000000;stroke-width:2.0px;stroke-linecap:butt;stroke-linejoin:miter;stroke-opacity:1"/>
<path class="bond-28 atom-20 atom-21" d="M 90.0,136.0 L 86.7,117.7" style="fill:none;fill-rule:evenodd;stroke:#000000;stroke-width:2.0px;stroke-linecap:butt;stroke-linejoin:miter;stroke-opacity:1"/>
<path class="bond-29 atom-20 atom-23" d="M 90.0,136.0 L 71.0,139.4" style="fill:none;fill-rule:evenodd;stroke:#000000;stroke-width:2.0px;stroke-linecap:butt;stroke-linejoin:miter;stroke-opacity:1"/>
<path class="bond-30 atom-20 atom-22" d="M 90.0,136.0 L 93.2,154.3" style="fill:none;fill-rule:evenodd;stroke:#000000;stroke-width:2.0px;stroke-linecap:butt;stroke-linejoin:miter;stroke-opacity:1"/>
<path class="bond-31 atom-24 atom-26" d="M 114.0,88.0 L 117.5,82.3" style="fill:none;fill-rule:evenodd;stroke:#0000FF;stroke-width:2.0px;stroke-linecap:butt;stroke-linejoin:miter;stroke-opacity:1"/>
<path class="bond-31 atom-24 atom-26" d="M 117.5,82.3 L 121.0,76.7" style="fill:none;fill-rule:evenodd;stroke:#000000;stroke-width:2.0px;stroke-linecap:butt;stroke-linejoin:miter;stroke-opacity:1"/>
<path class="bond-32 atom-24 atom-25" d="M 108.4,91.8 L 100.3,91.5" style="fill:none;fill-rule:evenodd;stroke:#0000FF;stroke-width:2.0px;stroke-linecap:butt;stroke-linejoin:miter;stroke-opacity:1"/>
<path class="bond-32 atom-24 atom-25" d="M 100.3,91.5 L 92.2,91.2" style="fill:none;fill-rule:evenodd;stroke:#000000;stroke-width:2.0px;stroke-linecap:butt;stroke-linejoin:miter;stroke-opacity:1"/>
<path class="bond-33 atom-28 atom-29" d="M 193.6,112.8 L 212.7,115.8" style="fill:none;fill-rule:evenodd;stroke:#000000;stroke-width:2.0px;stroke-linecap:butt;stroke-linejoin:miter;stroke-opacity:1"/>
<path class="bond-34 atom-28 atom-30" d="M 193.6,112.8 L 176.0,105.3" style="fill:none;fill-rule:evenodd;stroke:#000000;stroke-width:2.0px;stroke-linecap:butt;stroke-linejoin:miter;stroke-opacity:1"/>
<path class="bond-35 atom-28 atom-31" d="M 193.6,112.8 L 198.7,95.0" style="fill:none;fill-rule:evenodd;stroke:#000000;stroke-width:2.0px;stroke-linecap:butt;stroke-linejoin:miter;stroke-opacity:1"/>
<path class="bond-36 atom-32 atom-35" d="M 209.8,136.8 L 229.0,138.9" style="fill:none;fill-rule:evenodd;stroke:#000000;stroke-width:2.0px;stroke-linecap:butt;stroke-linejoin:miter;stroke-opacity:1"/>
<path class="bond-37 atom-32 atom-34" d="M 209.8,136.8 L 214.0,118.8" style="fill:none;fill-rule:evenodd;stroke:#000000;stroke-width:2.0px;stroke-linecap:butt;stroke-linejoin:miter;stroke-opacity:1"/>
<path class="bond-38 atom-32 atom-33" d="M 209.8,136.8 L 207.9,155.4" style="fill:none;fill-rule:evenodd;stroke:#000000;stroke-width:2.0px;stroke-linecap:butt;stroke-linejoin:miter;stroke-opacity:1"/>
<path class="atom-2" d="M 152.1 224.1 L 153.0 224.1 L 153.0 226.8 L 156.3 226.8 L 156.3 224.1 L 157.1 224.1 L 157.1 230.5 L 156.3 230.5 L 156.3 227.5 L 153.0 227.5 L 153.0 230.5 L 152.1 230.5 L 152.1 224.1 " fill="#000000"/>
<path class="atom-4" d="M 189.6 198.8 L 190.4 198.8 L 190.4 201.5 L 193.7 201.5 L 193.7 198.8 L 194.6 198.8 L 194.6 205.2 L 193.7 205.2 L 193.7 202.3 L 190.4 202.3 L 190.4 205.2 L 189.6 205.2 L 189.6 198.8 " fill="#000000"/>
<path class="atom-8" d="M 117.9 163.9 L 118.8 163.9 L 118.8 166.6 L 122.1 166.6 L 122.1 163.9 L 122.9 163.9 L 122.9 170.3 L 122.1 170.3 L 122.1 167.3 L 118.8 167.3 L 118.8 170.3 L 117.9 170.3 L 117.9 163.9 " fill="#000000"/>
<path class="atom-9" d="M 186.0 157.0 Q 186.0 155.5, 186.8 154.6 Q 187.5 153.8, 188.9 153.8 Q 190.3 153.8, 191.1 154.6 Q 191.9 155.5, 191.9 157.0 Q 191.9 158.6, 191.1 159.4 Q 190.3 160.3, 188.9 160.3 Q 187.5 160.3, 186.8 159.4 Q 186.0 158.6, 186.0 157.0 M 188.9 159.6 Q 189.9 159.6, 190.4 159.0 Q 191.0 158.3, 191.0 157.0 Q 191.0 155.8, 190.4 155.1 Q 189.9 154.5, 188.9 154.5 Q 188.0 154.5, 187.4 155.1 Q 186.9 155.7, 186.9 157.0 Q 186.9 158.3, 187.4 159.0 Q 188.0 159.6, 188.9 159.6 " fill="#FF0000"/>
<path class="atom-12" d="M 155.8 100.6 L 156.6 100.6 L 156.6 103.3 L 159.9 103.3 L 159.9 100.6 L 160.8 100.6 L 160.8 107.0 L 159.9 107.0 L 159.9 104.0 L 156.6 104.0 L 156.6 107.0 L 155.8 107.0 L 155.8 100.6 " fill="#000000"/>
<path class="atom-13" d="M 175.5 101.6 L 176.4 101.6 L 176.4 104.4 L 179.7 104.4 L 179.7 101.6 L 180.5 101.6 L 180.5 108.0 L 179.7 108.0 L 179.7 105.1 L 176.4 105.1 L 176.4 108.0 L 175.5 108.0 L 175.5 101.6 " fill="#000000"/>
<path class="atom-16" d="M 110.8 128.9 L 112.9 132.3 Q 113.1 132.6, 113.4 133.2 Q 113.8 133.8, 113.8 133.9 L 113.8 128.9 L 114.6 128.9 L 114.6 135.3 L 113.7 135.3 L 111.5 131.6 Q 111.2 131.2, 111.0 130.7 Q 110.7 130.2, 110.6 130.0 L 110.6 135.3 L 109.8 135.3 L 109.8 128.9 L 110.8 128.9 " fill="#0000FF"/>
<path class="atom-18" d="M 143.0 111.8 L 145.1 115.2 Q 145.3 115.5, 145.7 116.1 Q 146.0 116.7, 146.0 116.7 L 146.0 111.8 L 146.9 111.8 L 146.9 118.2 L 146.0 118.2 L 143.8 114.5 Q 143.5 114.0, 143.2 113.5 Q 142.9 113.0, 142.9 112.9 L 142.9 118.2 L 142.0 118.2 L 142.0 111.8 L 143.0 111.8 " fill="#0000FF"/>
<path class="atom-18" d="M 147.6 112.9 L 148.8 112.9 L 148.8 111.7 L 149.3 111.7 L 149.3 112.9 L 150.4 112.9 L 150.4 113.3 L 149.3 113.3 L 149.3 114.5 L 148.8 114.5 L 148.8 113.3 L 147.6 113.3 L 147.6 112.9 " fill="#0000FF"/>
<path class="atom-19" d="M 111.1 207.3 Q 111.7 207.5, 112.0 207.8 Q 112.3 208.2, 112.3 208.8 Q 112.3 209.6, 111.8 210.2 Q 111.2 210.7, 110.1 210.7 L 108.0 210.7 L 108.0 204.3 L 109.9 204.3 Q 111.0 204.3, 111.5 204.7 Q 112.1 205.1, 112.1 206.0 Q 112.1 206.9, 111.1 207.3 M 108.8 205.0 L 108.8 207.0 L 109.9 207.0 Q 110.5 207.0, 110.8 206.7 Q 111.2 206.5, 111.2 206.0 Q 111.2 205.0, 109.9 205.0 L 108.8 205.0 M 110.1 209.9 Q 110.8 209.9, 111.1 209.6 Q 111.4 209.3, 111.4 208.8 Q 111.4 208.2, 111.0 208.0 Q 110.7 207.7, 110.0 207.7 L 108.8 207.7 L 108.8 209.9 L 110.1 209.9 " fill="#7F4C19"/>
<path class="atom-19" d="M 113.4 206.0 L 113.5 206.7 Q 114.0 205.9, 114.8 205.9 Q 115.1 205.9, 115.4 206.0 L 115.3 206.8 Q 114.9 206.7, 114.7 206.7 Q 114.3 206.7, 114.0 206.8 Q 113.8 207.0, 113.6 207.3 L 113.6 210.7 L 112.7 210.7 L 112.7 206.0 L 113.4 206.0 " fill="#7F4C19"/>
<path class="atom-21" d="M 83.6 110.6 L 84.4 110.6 L 84.4 113.3 L 87.7 113.3 L 87.7 110.6 L 88.6 110.6 L 88.6 117.0 L 87.7 117.0 L 87.7 114.0 L 84.4 114.0 L 84.4 117.0 L 83.6 117.0 L 83.6 110.6 " fill="#000000"/>
<path class="atom-22" d="M 91.4 155.0 L 92.3 155.0 L 92.3 157.8 L 95.5 157.8 L 95.5 155.0 L 96.4 155.0 L 96.4 161.4 L 95.5 161.4 L 95.5 158.5 L 92.3 158.5 L 92.3 161.4 L 91.4 161.4 L 91.4 155.0 " fill="#000000"/>
<path class="atom-23" d="M 65.2 136.7 L 66.1 136.7 L 66.1 139.4 L 69.4 139.4 L 69.4 136.7 L 70.2 136.7 L 70.2 143.1 L 69.4 143.1 L 69.4 140.2 L 66.1 140.2 L 66.1 143.1 L 65.2 143.1 L 65.2 136.7 " fill="#000000"/>
<path class="atom-24" d="M 110.1 88.7 L 112.2 92.1 Q 112.4 92.4, 112.7 93.0 Q 113.1 93.6, 113.1 93.7 L 113.1 88.7 L 113.9 88.7 L 113.9 95.1 L 113.1 95.1 L 110.8 91.4 Q 110.5 90.9, 110.3 90.4 Q 110.0 89.9, 109.9 89.8 L 109.9 95.1 L 109.1 95.1 L 109.1 88.7 L 110.1 88.7 " fill="#0000FF"/>
<path class="atom-25" d="M 86.5 87.9 L 87.3 87.9 L 87.3 90.6 L 90.6 90.6 L 90.6 87.9 L 91.5 87.9 L 91.5 94.3 L 90.6 94.3 L 90.6 91.3 L 87.3 91.3 L 87.3 94.3 L 86.5 94.3 L 86.5 87.9 " fill="#000000"/>
<path class="atom-26" d="M 121.0 69.5 L 121.8 69.5 L 121.8 72.3 L 125.1 72.3 L 125.1 69.5 L 126.0 69.5 L 126.0 75.9 L 125.1 75.9 L 125.1 73.0 L 121.8 73.0 L 121.8 75.9 L 121.0 75.9 L 121.0 69.5 " fill="#000000"/>
<path class="atom-27" d="M 121.0 158.9 Q 121.0 157.4, 121.8 156.5 Q 122.5 155.7, 123.9 155.7 Q 125.4 155.7, 126.1 156.5 Q 126.9 157.4, 126.9 158.9 Q 126.9 160.5, 126.1 161.4 Q 125.3 162.2, 123.9 162.2 Q 122.5 162.2, 121.8 161.4 Q 121.0 160.5, 121.0 158.9 M 123.9 161.5 Q 124.9 161.5, 125.4 160.9 Q 126.0 160.2, 126.0 158.9 Q 126.0 157.7, 125.4 157.0 Q 124.9 156.4, 123.9 156.4 Q 123.0 156.4, 122.4 157.0 Q 121.9 157.7, 121.9 158.9 Q 121.9 160.2, 122.4 160.9 Q 123.0 161.5, 123.9 161.5 " fill="#FF0000"/>
<path class="atom-29" d="M 213.4 113.1 L 214.2 113.1 L 214.2 115.8 L 217.5 115.8 L 217.5 113.1 L 218.4 113.1 L 218.4 119.5 L 217.5 119.5 L 217.5 116.6 L 214.2 116.6 L 214.2 119.5 L 213.4 119.5 L 213.4 113.1 " fill="#000000"/>
<path class="atom-30" d="M 170.3 100.8 L 171.2 100.8 L 171.2 103.5 L 174.5 103.5 L 174.5 100.8 L 175.3 100.8 L 175.3 107.2 L 174.5 107.2 L 174.5 104.2 L 171.2 104.2 L 171.2 107.2 L 170.3 107.2 L 170.3 100.8 " fill="#000000"/>
<path class="atom-31" d="M 197.3 87.9 L 198.2 87.9 L 198.2 90.6 L 201.5 90.6 L 201.5 87.9 L 202.3 87.9 L 202.3 94.3 L 201.5 94.3 L 201.5 91.3 L 198.2 91.3 L 198.2 94.3 L 197.3 94.3 L 197.3 87.9 " fill="#000000"/>
<path class="atom-33" d="M 204.9 156.1 L 205.8 156.1 L 205.8 158.8 L 209.1 158.8 L 209.1 156.1 L 209.9 156.1 L 209.9 162.5 L 209.1 162.5 L 209.1 159.5 L 205.8 159.5 L 205.8 162.5 L 204.9 162.5 L 204.9 156.1 " fill="#000000"/>
<path class="atom-34" d="M 212.4 111.7 L 213.3 111.7 L 213.3 114.4 L 216.5 114.4 L 216.5 111.7 L 217.4 111.7 L 217.4 118.0 L 216.5 118.0 L 216.5 115.1 L 213.3 115.1 L 213.3 118.0 L 212.4 118.0 L 212.4 111.7 " fill="#000000"/>
<path class="atom-35" d="M 229.8 136.0 L 230.6 136.0 L 230.6 138.7 L 233.9 138.7 L 233.9 136.0 L 234.8 136.0 L 234.8 142.4 L 233.9 142.4 L 233.9 139.5 L 230.6 139.5 L 230.6 142.4 L 229.8 142.4 L 229.8 136.0 " fill="#000000"/>
<path class="atom-36" d="M 155.5 93.7 L 156.4 93.7 L 156.4 96.5 L 159.7 96.5 L 159.7 93.7 L 160.5 93.7 L 160.5 100.1 L 159.7 100.1 L 159.7 97.2 L 156.4 97.2 L 156.4 100.1 L 155.5 100.1 L 155.5 93.7 " fill="#000000"/>
<path class="atom-29" d="M 214.4,114.8 L 214.4,117.8 L 217.4,117.8 L 217.4,114.8 L 214.4,114.8" style="fill:none;stroke:#FF0000;stroke-width:2.0px;stroke-linecap:butt;stroke-linejoin:miter;stroke-opacity:1;"/>
<path class="bond-0 atom-0 atom-7" d="M 444.0,181.1 L 457.7,163.2" style="fill:none;fill-rule:evenodd;stroke:#000000;stroke-width:2.0px;stroke-linecap:butt;stroke-linejoin:miter;stroke-opacity:1"/>
<path class="bond-1 atom-0 atom-1" d="M 444.0,181.1 L 452.7,202.0" style="fill:none;fill-rule:evenodd;stroke:#000000;stroke-width:2.0px;stroke-linecap:butt;stroke-linejoin:miter;stroke-opacity:1"/>
<path class="bond-1 atom-0 atom-1" d="M 449.5,182.5 L 455.5,197.1" style="fill:none;fill-rule:evenodd;stroke:#000000;stroke-width:2.0px;stroke-linecap:butt;stroke-linejoin:miter;stroke-opacity:1"/>
<path class="bond-2 atom-0 atom-19" d="M 444.0,181.1 L 421.6,178.2" style="fill:none;fill-rule:evenodd;stroke:#000000;stroke-width:2.0px;stroke-linecap:butt;stroke-linejoin:miter;stroke-opacity:1"/>
<path class="bond-3 atom-1 atom-3" d="M 452.7,202.0 L 475.1,204.9" style="fill:none;fill-rule:evenodd;stroke:#000000;stroke-width:2.0px;stroke-linecap:butt;stroke-linejoin:miter;stroke-opacity:1"/>
<path class="bond-4 atom-1 atom-2" d="M 452.7,202.0 L 442.0,216.0" style="fill:none;fill-rule:evenodd;stroke:#000000;stroke-width:2.0px;stroke-linecap:butt;stroke-linejoin:miter;stroke-opacity:1"/>
<path class="bond-5 atom-3 atom-5" d="M 475.1,204.9 L 488.8,186.9" style="fill:none;fill-rule:evenodd;stroke:#000000;stroke-width:2.0px;stroke-linecap:butt;stroke-linejoin:miter;stroke-opacity:1"/>
<path class="bond-5 atom-3 atom-5" d="M 473.5,199.4 L 483.1,186.9" style="fill:none;fill-rule:evenodd;stroke:#000000;stroke-width:2.0px;stroke-linecap:butt;stroke-linejoin:miter;stroke-opacity:1"/>
<path class="bond-6 atom-3 atom-4" d="M 475.1,204.9 L 482.1,221.8" style="fill:none;fill-rule:evenodd;stroke:#000000;stroke-width:2.0px;stroke-linecap:butt;stroke-linejoin:miter;stroke-opacity:1"/>
<path class="bond-7 atom-5 atom-9" d="M 488.8,186.9 L 498.1,188.1" style="fill:none;fill-rule:evenodd;stroke:#000000;stroke-width:2.0px;stroke-linecap:butt;stroke-linejoin:miter;stroke-opacity:1"/>
<path class="bond-7 atom-5 atom-9" d="M 498.1,188.1 L 507.5,189.4" style="fill:none;fill-rule:evenodd;stroke:#FF0000;stroke-width:2.0px;stroke-linecap:butt;stroke-linejoin:miter;stroke-opacity:1"/>
<path class="bond-8 atom-5 atom-6" d="M 488.8,186.9 L 480.1,166.1" style="fill:none;fill-rule:evenodd;stroke:#000000;stroke-width:2.0px;stroke-linecap:butt;stroke-linejoin:miter;stroke-opacity:1"/>
<path class="bond-9 atom-6 atom-14" d="M 480.1,166.1 L 493.8,148.2" style="fill:none;fill-rule:evenodd;stroke:#000000;stroke-width:2.0px;stroke-linecap:butt;stroke-linejoin:miter;stroke-opacity:1"/>
<path class="bond-10 atom-6 atom-7" d="M 480.1,166.1 L 457.7,163.2" style="fill:none;fill-rule:evenodd;stroke:#000000;stroke-width:2.0px;stroke-linecap:butt;stroke-linejoin:miter;stroke-opacity:1"/>
<path class="bond-10 atom-6 atom-7" d="M 476.2,170.1 L 460.5,168.1" style="fill:none;fill-rule:evenodd;stroke:#000000;stroke-width:2.0px;stroke-linecap:butt;stroke-linejoin:miter;stroke-opacity:1"/>
<path class="bond-11 atom-7 atom-8" d="M 457.7,163.2 L 454.7,156.0" style="fill:none;fill-rule:evenodd;stroke:#000000;stroke-width:2.0px;stroke-linecap:butt;stroke-linejoin:miter;stroke-opacity:1"/>
<path class="bond-12 atom-9 atom-10" d="M 514.2,185.9 L 519.5,178.9" style="fill:none;fill-rule:evenodd;stroke:#FF0000;stroke-width:2.0px;stroke-linecap:butt;stroke-linejoin:miter;stroke-opacity:1"/>
<path class="bond-12 atom-9 atom-10" d="M 519.5,178.9 L 524.9,171.9" style="fill:none;fill-rule:evenodd;stroke:#000000;stroke-width:2.0px;stroke-linecap:butt;stroke-linejoin:miter;stroke-opacity:1"/>
<path class="bond-13 atom-10 atom-37" d="M 524.9,171.9 L 543.9,159.7" style="fill:none;fill-rule:evenodd;stroke:#000000;stroke-width:2.0px;stroke-linecap:butt;stroke-linejoin:miter;stroke-opacity:1"/>
<path class="bond-14 atom-10 atom-11" d="M 524.9,171.9 L 516.2,151.1" style="fill:none;fill-rule:evenodd;stroke:#000000;stroke-width:2.0px;stroke-linecap:butt;stroke-linejoin:miter;stroke-opacity:1"/>
<path class="bond-15 atom-10 atom-41" d="M 524.9,171.9 L 540.1,188.5" style="fill:none;fill-rule:evenodd;stroke:#000000;stroke-width:2.0px;stroke-linecap:butt;stroke-linejoin:miter;stroke-opacity:1"/>
<path class="bond-16 atom-11 atom-13" d="M 516.2,151.1 L 534.2,144.6" style="fill:none;fill-rule:evenodd;stroke:#000000;stroke-width:2.0px;stroke-linecap:butt;stroke-linejoin:miter;stroke-opacity:1"/>
<path class="bond-17 atom-11 atom-12" d="M 516.2,151.1 L 522.0,133.6" style="fill:none;fill-rule:evenodd;stroke:#000000;stroke-width:2.0px;stroke-linecap:butt;stroke-linejoin:miter;stroke-opacity:1"/>
<path class="bond-18 atom-14 atom-11" d="M 493.8,148.2 L 516.5,148.9 L 515.9,153.3 Z" style="fill:#000000;fill-rule:evenodd;fill-opacity:1;stroke:#000000;stroke-width:1.0px;stroke-linecap:butt;stroke-linejoin:miter;stroke-opacity:1;"/>
<path class="bond-19 atom-14 atom-15" d="M 493.8,148.2 L 471.8,142.9" style="fill:none;fill-rule:evenodd;stroke:#000000;stroke-width:2.0px;stroke-linecap:butt;stroke-linejoin:miter;stroke-opacity:1"/>
<path class="bond-20 atom-14 atom-18" d="M 493.8,148.2 L 498.5,140.5" style="fill:none;fill-rule:evenodd;stroke:#000000;stroke-width:2.0px;stroke-linecap:butt;stroke-linejoin:miter;stroke-opacity:1"/>
<path class="bond-20 atom-14 atom-18" d="M 498.5,140.5 L 503.2,132.8" style="fill:none;fill-rule:evenodd;stroke:#0000FF;stroke-width:2.0px;stroke-linecap:butt;stroke-linejoin:miter;stroke-opacity:1"/>
<path class="bond-21 atom-15 atom-36" d="M 472.9,145.0 L 469.3,146.7" style="fill:none;fill-rule:evenodd;stroke:#000000;stroke-width:2.0px;stroke-linecap:butt;stroke-linejoin:miter;stroke-opacity:1"/>
<path class="bond-21 atom-15 atom-36" d="M 469.3,146.7 L 465.8,148.5" style="fill:none;fill-rule:evenodd;stroke:#FF0000;stroke-width:2.0px;stroke-linecap:butt;stroke-linejoin:miter;stroke-opacity:1"/>
<path class="bond-21 atom-15 atom-36" d="M 470.8,140.9 L 467.3,142.7" style="fill:none;fill-rule:evenodd;stroke:#000000;stroke-width:2.0px;stroke-linecap:butt;stroke-linejoin:miter;stroke-opacity:1"/>
<path class="bond-21 atom-15 atom-36" d="M 467.3,142.7 L 463.8,144.5" style="fill:none;fill-rule:evenodd;stroke:#FF0000;stroke-width:2.0px;stroke-linecap:butt;stroke-linejoin:miter;stroke-opacity:1"/>
<path class="bond-22 atom-15 atom-16" d="M 471.8,142.9 L 471.1,133.6" style="fill:none;fill-rule:evenodd;stroke:#000000;stroke-width:2.0px;stroke-linecap:butt;stroke-linejoin:miter;stroke-opacity:1"/>
<path class="bond-22 atom-15 atom-16" d="M 471.1,133.6 L 470.3,124.4" style="fill:none;fill-rule:evenodd;stroke:#0000FF;stroke-width:2.0px;stroke-linecap:butt;stroke-linejoin:miter;stroke-opacity:1"/>
<path class="bond-23 atom-16 atom-20" d="M 466.9,118.5 L 458.8,113.6" style="fill:none;fill-rule:evenodd;stroke:#0000FF;stroke-width:2.0px;stroke-linecap:butt;stroke-linejoin:miter;stroke-opacity:1"/>
<path class="bond-23 atom-16 atom-20" d="M 458.8,113.6 L 450.8,108.7" style="fill:none;fill-rule:evenodd;stroke:#000000;stroke-width:2.0px;stroke-linecap:butt;stroke-linejoin:miter;stroke-opacity:1"/>
<path class="bond-24 atom-16 atom-17" d="M 473.2,119.1 L 482.0,115.4" style="fill:none;fill-rule:evenodd;stroke:#0000FF;stroke-width:2.0px;stroke-linecap:butt;stroke-linejoin:miter;stroke-opacity:1"/>
<path class="bond-24 atom-16 atom-17" d="M 482.0,115.4 L 490.9,111.8" style="fill:none;fill-rule:evenodd;stroke:#000000;stroke-width:2.0px;stroke-linecap:butt;stroke-linejoin:miter;stroke-opacity:1"/>
<path class="bond-25 atom-17 atom-18" d="M 490.9,111.8 L 496.6,118.5" style="fill:none;fill-rule:evenodd;stroke:#000000;stroke-width:2.0px;stroke-linecap:butt;stroke-linejoin:miter;stroke-opacity:1"/>
<path class="bond-25 atom-17 atom-18" d="M 496.6,118.5 L 502.4,125.2" style="fill:none;fill-rule:evenodd;stroke:#0000FF;stroke-width:2.0px;stroke-linecap:butt;stroke-linejoin:miter;stroke-opacity:1"/>
<path class="bond-25 atom-17 atom-18" d="M 489.2,116.7 L 493.2,121.4" style="fill:none;fill-rule:evenodd;stroke:#000000;stroke-width:2.0px;stroke-linecap:butt;stroke-linejoin:miter;stroke-opacity:1"/>
<path class="bond-25 atom-17 atom-18" d="M 493.2,121.4 L 497.2,126.1" style="fill:none;fill-rule:evenodd;stroke:#0000FF;stroke-width:2.0px;stroke-linecap:butt;stroke-linejoin:miter;stroke-opacity:1"/>
<path class="bond-26 atom-17 atom-24" d="M 490.9,111.8 L 493.0,102.7" style="fill:none;fill-rule:evenodd;stroke:#000000;stroke-width:2.0px;stroke-linecap:butt;stroke-linejoin:miter;stroke-opacity:1"/>
<path class="bond-26 atom-17 atom-24" d="M 493.0,102.7 L 495.2,93.7" style="fill:none;fill-rule:evenodd;stroke:#0000FF;stroke-width:2.0px;stroke-linecap:butt;stroke-linejoin:miter;stroke-opacity:1"/>
<path class="bond-27 atom-18 atom-50" d="M 512.2,127.5 L 518.3,126.3" style="fill:none;fill-rule:evenodd;stroke:#0000FF;stroke-width:2.0px;stroke-linecap:butt;stroke-linejoin:miter;stroke-opacity:1"/>
<path class="bond-27 atom-18 atom-50" d="M 518.3,126.3 L 524.4,125.0" style="fill:none;fill-rule:evenodd;stroke:#000000;stroke-width:2.0px;stroke-linecap:butt;stroke-linejoin:miter;stroke-opacity:1"/>
<path class="bond-28 atom-19 atom-34" d="M 421.6,178.2 L 407.9,196.1" style="fill:none;fill-rule:evenodd;stroke:#000000;stroke-width:2.0px;stroke-linecap:butt;stroke-linejoin:miter;stroke-opacity:1"/>
<path class="bond-29 atom-19 atom-27" d="M 421.6,178.2 L 412.9,157.4" style="fill:none;fill-rule:evenodd;stroke:#000000;stroke-width:2.0px;stroke-linecap:butt;stroke-linejoin:miter;stroke-opacity:1"/>
<path class="bond-29 atom-19 atom-27" d="M 416.1,176.8 L 410.1,162.2" style="fill:none;fill-rule:evenodd;stroke:#000000;stroke-width:2.0px;stroke-linecap:butt;stroke-linejoin:miter;stroke-opacity:1"/>
<path class="bond-30 atom-20 atom-21" d="M 450.8,108.7 L 460.1,93.3" style="fill:none;fill-rule:evenodd;stroke:#000000;stroke-width:2.0px;stroke-linecap:butt;stroke-linejoin:miter;stroke-opacity:1"/>
<path class="bond-31 atom-20 atom-23" d="M 450.8,108.7 L 434.7,98.9" style="fill:none;fill-rule:evenodd;stroke:#000000;stroke-width:2.0px;stroke-linecap:butt;stroke-linejoin:miter;stroke-opacity:1"/>
<path class="bond-32 atom-20 atom-22" d="M 450.8,108.7 L 441.4,124.0" style="fill:none;fill-rule:evenodd;stroke:#000000;stroke-width:2.0px;stroke-linecap:butt;stroke-linejoin:miter;stroke-opacity:1"/>
<path class="bond-33 atom-24 atom-26" d="M 499.3,88.9 L 506.9,86.6" style="fill:none;fill-rule:evenodd;stroke:#0000FF;stroke-width:2.0px;stroke-linecap:butt;stroke-linejoin:miter;stroke-opacity:1"/>
<path class="bond-33 atom-24 atom-26" d="M 506.9,86.6 L 514.5,84.3" style="fill:none;fill-rule:evenodd;stroke:#000000;stroke-width:2.0px;stroke-linecap:butt;stroke-linejoin:miter;stroke-opacity:1"/>
<path class="bond-34 atom-24 atom-25" d="M 492.9,86.8 L 487.9,82.1" style="fill:none;fill-rule:evenodd;stroke:#0000FF;stroke-width:2.0px;stroke-linecap:butt;stroke-linejoin:miter;stroke-opacity:1"/>
<path class="bond-34 atom-24 atom-25" d="M 487.9,82.1 L 482.9,77.4" style="fill:none;fill-rule:evenodd;stroke:#000000;stroke-width:2.0px;stroke-linecap:butt;stroke-linejoin:miter;stroke-opacity:1"/>
<path class="bond-35 atom-27 atom-29" d="M 412.9,157.4 L 390.6,154.5" style="fill:none;fill-rule:evenodd;stroke:#000000;stroke-width:2.0px;stroke-linecap:butt;stroke-linejoin:miter;stroke-opacity:1"/>
<path class="bond-36 atom-27 atom-28" d="M 412.9,157.4 L 423.6,143.4" style="fill:none;fill-rule:evenodd;stroke:#000000;stroke-width:2.0px;stroke-linecap:butt;stroke-linejoin:miter;stroke-opacity:1"/>
<path class="bond-37 atom-29 atom-30" d="M 390.6,154.5 L 376.8,172.4" style="fill:none;fill-rule:evenodd;stroke:#000000;stroke-width:2.0px;stroke-linecap:butt;stroke-linejoin:miter;stroke-opacity:1"/>
<path class="bond-37 atom-29 atom-30" d="M 392.1,159.9 L 382.5,172.5" style="fill:none;fill-rule:evenodd;stroke:#000000;stroke-width:2.0px;stroke-linecap:butt;stroke-linejoin:miter;stroke-opacity:1"/>
<path class="bond-38 atom-29 atom-45" d="M 390.6,154.5 L 387.1,146.1" style="fill:none;fill-rule:evenodd;stroke:#000000;stroke-width:2.0px;stroke-linecap:butt;stroke-linejoin:miter;stroke-opacity:1"/>
<path class="bond-38 atom-29 atom-45" d="M 387.1,146.1 L 383.6,137.7" style="fill:none;fill-rule:evenodd;stroke:#FF0000;stroke-width:2.0px;stroke-linecap:butt;stroke-linejoin:miter;stroke-opacity:1"/>
<path class="bond-39 atom-30 atom-32" d="M 376.8,172.4 L 385.5,193.2" style="fill:none;fill-rule:evenodd;stroke:#000000;stroke-width:2.0px;stroke-linecap:butt;stroke-linejoin:miter;stroke-opacity:1"/>
<path class="bond-40 atom-30 atom-31" d="M 376.8,172.4 L 357.7,169.9" style="fill:none;fill-rule:evenodd;stroke:#000000;stroke-width:2.0px;stroke-linecap:butt;stroke-linejoin:miter;stroke-opacity:1"/>
<path class="bond-41 atom-32 atom-33" d="M 385.5,193.2 L 380.0,200.5" style="fill:none;fill-rule:evenodd;stroke:#000000;stroke-width:2.0px;stroke-linecap:butt;stroke-linejoin:miter;stroke-opacity:1"/>
<path class="bond-41 atom-32 atom-33" d="M 380.0,200.5 L 374.4,207.7" style="fill:none;fill-rule:evenodd;stroke:#33CCCC;stroke-width:2.0px;stroke-linecap:butt;stroke-linejoin:miter;stroke-opacity:1"/>
<path class="bond-42 atom-32 atom-34" d="M 385.5,193.2 L 407.9,196.1" style="fill:none;fill-rule:evenodd;stroke:#000000;stroke-width:2.0px;stroke-linecap:butt;stroke-linejoin:miter;stroke-opacity:1"/>
<path class="bond-42 atom-32 atom-34" d="M 389.5,189.2 L 405.1,191.2" style="fill:none;fill-rule:evenodd;stroke:#000000;stroke-width:2.0px;stroke-linecap:butt;stroke-linejoin:miter;stroke-opacity:1"/>
<path class="bond-43 atom-34 atom-35" d="M 407.9,196.1 L 414.9,213.1" style="fill:none;fill-rule:evenodd;stroke:#000000;stroke-width:2.0px;stroke-linecap:butt;stroke-linejoin:miter;stroke-opacity:1"/>
<path class="bond-44 atom-37 atom-38" d="M 543.9,159.7 L 555.0,173.2" style="fill:none;fill-rule:evenodd;stroke:#000000;stroke-width:2.0px;stroke-linecap:butt;stroke-linejoin:miter;stroke-opacity:1"/>
<path class="bond-45 atom-37 atom-39" d="M 543.9,159.7 L 536.0,143.3" style="fill:none;fill-rule:evenodd;stroke:#000000;stroke-width:2.0px;stroke-linecap:butt;stroke-linejoin:miter;stroke-opacity:1"/>
<path class="bond-46 atom-37 atom-40" d="M 543.9,159.7 L 559.7,149.7" style="fill:none;fill-rule:evenodd;stroke:#000000;stroke-width:2.0px;stroke-linecap:butt;stroke-linejoin:miter;stroke-opacity:1"/>
<path class="bond-47 atom-41 atom-44" d="M 540.1,188.5 L 552.2,201.6" style="fill:none;fill-rule:evenodd;stroke:#000000;stroke-width:2.0px;stroke-linecap:butt;stroke-linejoin:miter;stroke-opacity:1"/>
<path class="bond-48 atom-41 atom-43" d="M 540.1,188.5 L 555.3,177.7" style="fill:none;fill-rule:evenodd;stroke:#000000;stroke-width:2.0px;stroke-linecap:butt;stroke-linejoin:miter;stroke-opacity:1"/>
<path class="bond-49 atom-41 atom-42" d="M 540.1,188.5 L 526.8,200.8" style="fill:none;fill-rule:evenodd;stroke:#000000;stroke-width:2.0px;stroke-linecap:butt;stroke-linejoin:miter;stroke-opacity:1"/>
<path class="bond-50 atom-45 atom-46" d="M 378.2,133.2 L 368.9,131.9" style="fill:none;fill-rule:evenodd;stroke:#FF0000;stroke-width:2.0px;stroke-linecap:butt;stroke-linejoin:miter;stroke-opacity:1"/>
<path class="bond-50 atom-45 atom-46" d="M 368.9,131.9 L 359.5,130.7" style="fill:none;fill-rule:evenodd;stroke:#000000;stroke-width:2.0px;stroke-linecap:butt;stroke-linejoin:miter;stroke-opacity:1"/>
<path class="bond-51 atom-46 atom-48" d="M 359.5,130.7 L 357.1,149.2" style="fill:none;fill-rule:evenodd;stroke:#000000;stroke-width:2.0px;stroke-linecap:butt;stroke-linejoin:miter;stroke-opacity:1"/>
<path class="bond-52 atom-46 atom-49" d="M 359.5,130.7 L 340.3,128.2" style="fill:none;fill-rule:evenodd;stroke:#000000;stroke-width:2.0px;stroke-linecap:butt;stroke-linejoin:miter;stroke-opacity:1"/>
<path class="bond-53 atom-46 atom-47" d="M 359.5,130.7 L 361.9,112.3" style="fill:none;fill-rule:evenodd;stroke:#000000;stroke-width:2.0px;stroke-linecap:butt;stroke-linejoin:miter;stroke-opacity:1"/>
<path class="atom-2" d="M 436.5 216.7 L 437.3 216.7 L 437.3 219.4 L 440.6 219.4 L 440.6 216.7 L 441.5 216.7 L 441.5 223.1 L 440.6 223.1 L 440.6 220.1 L 437.3 220.1 L 437.3 223.1 L 436.5 223.1 L 436.5 216.7 " fill="#000000"/>
<path class="atom-4" d="M 481.2 222.5 L 482.1 222.5 L 482.1 225.2 L 485.4 225.2 L 485.4 222.5 L 486.2 222.5 L 486.2 228.9 L 485.4 228.9 L 485.4 225.9 L 482.1 225.9 L 482.1 228.9 L 481.2 228.9 L 481.2 222.5 " fill="#000000"/>
<path class="atom-8" d="M 450.6 148.9 L 451.5 148.9 L 451.5 151.6 L 454.7 151.6 L 454.7 148.9 L 455.6 148.9 L 455.6 155.3 L 454.7 155.3 L 454.7 152.4 L 451.5 152.4 L 451.5 155.3 L 450.6 155.3 L 450.6 148.9 " fill="#000000"/>
<path class="atom-9" d="M 508.2 189.9 Q 508.2 188.3, 509.0 187.5 Q 509.7 186.6, 511.1 186.6 Q 512.6 186.6, 513.3 187.5 Q 514.1 188.3, 514.1 189.9 Q 514.1 191.4, 513.3 192.3 Q 512.5 193.2, 511.1 193.2 Q 509.7 193.2, 509.0 192.3 Q 508.2 191.4, 508.2 189.9 M 511.1 192.4 Q 512.1 192.4, 512.6 191.8 Q 513.2 191.1, 513.2 189.9 Q 513.2 188.6, 512.6 188.0 Q 512.1 187.3, 511.1 187.3 Q 510.2 187.3, 509.6 188.0 Q 509.1 188.6, 509.1 189.9 Q 509.1 191.1, 509.6 191.8 Q 510.2 192.4, 511.1 192.4 " fill="#FF0000"/>
<path class="atom-12" d="M 520.8 126.5 L 521.7 126.5 L 521.7 129.2 L 524.9 129.2 L 524.9 126.5 L 525.8 126.5 L 525.8 132.9 L 524.9 132.9 L 524.9 129.9 L 521.7 129.9 L 521.7 132.9 L 520.8 132.9 L 520.8 126.5 " fill="#000000"/>
<path class="atom-13" d="M 534.9 140.3 L 535.8 140.3 L 535.8 143.0 L 539.1 143.0 L 539.1 140.3 L 539.9 140.3 L 539.9 146.7 L 539.1 146.7 L 539.1 143.7 L 535.8 143.7 L 535.8 146.7 L 534.9 146.7 L 534.9 140.3 " fill="#000000"/>
<path class="atom-16" d="M 468.6 117.2 L 470.7 120.6 Q 470.9 121.0, 471.3 121.6 Q 471.6 122.2, 471.6 122.2 L 471.6 117.2 L 472.5 117.2 L 472.5 123.6 L 471.6 123.6 L 469.3 119.9 Q 469.1 119.5, 468.8 119.0 Q 468.5 118.5, 468.4 118.4 L 468.4 123.6 L 467.6 123.6 L 467.6 117.2 L 468.6 117.2 " fill="#0000FF"/>
<path class="atom-18" d="M 504.1 125.7 L 506.2 129.1 Q 506.4 129.4, 506.8 130.0 Q 507.1 130.6, 507.1 130.7 L 507.1 125.7 L 508.0 125.7 L 508.0 132.1 L 507.1 132.1 L 504.9 128.4 Q 504.6 128.0, 504.3 127.5 Q 504.0 127.0, 504.0 126.8 L 504.0 132.1 L 503.1 132.1 L 503.1 125.7 L 504.1 125.7 " fill="#0000FF"/>
<path class="atom-18" d="M 508.7 126.9 L 509.9 126.9 L 509.9 125.7 L 510.4 125.7 L 510.4 126.9 L 511.5 126.9 L 511.5 127.3 L 510.4 127.3 L 510.4 128.5 L 509.9 128.5 L 509.9 127.3 L 508.7 127.3 L 508.7 126.9 " fill="#0000FF"/>
<path class="atom-21" d="M 460.0 86.2 L 460.9 86.2 L 460.9 88.9 L 464.2 88.9 L 464.2 86.2 L 465.0 86.2 L 465.0 92.6 L 464.2 92.6 L 464.2 89.7 L 460.9 89.7 L 460.9 92.6 L 460.0 92.6 L 460.0 86.2 " fill="#000000"/>
<path class="atom-22" d="M 436.5 124.7 L 437.4 124.7 L 437.4 127.5 L 440.6 127.5 L 440.6 124.7 L 441.5 124.7 L 441.5 131.1 L 440.6 131.1 L 440.6 128.2 L 437.4 128.2 L 437.4 131.1 L 436.5 131.1 L 436.5 124.7 " fill="#000000"/>
<path class="atom-23" d="M 429.0 93.7 L 429.9 93.7 L 429.9 96.4 L 433.1 96.4 L 433.1 93.7 L 434.0 93.7 L 434.0 100.1 L 433.1 100.1 L 433.1 97.2 L 429.9 97.2 L 429.9 100.1 L 429.0 100.1 L 429.0 93.7 " fill="#000000"/>
<path class="atom-24" d="M 494.7 86.6 L 496.8 90.0 Q 497.0 90.3, 497.3 90.9 Q 497.7 91.5, 497.7 91.6 L 497.7 86.6 L 498.5 86.6 L 498.5 93.0 L 497.6 93.0 L 495.4 89.3 Q 495.1 88.9, 494.9 88.4 Q 494.6 87.9, 494.5 87.7 L 494.5 93.0 L 493.7 93.0 L 493.7 86.6 L 494.7 86.6 " fill="#0000FF"/>
<path class="atom-25" d="M 477.2 71.1 L 478.1 71.1 L 478.1 73.8 L 481.3 73.8 L 481.3 71.1 L 482.2 71.1 L 482.2 77.5 L 481.3 77.5 L 481.3 74.5 L 478.1 74.5 L 478.1 77.5 L 477.2 77.5 L 477.2 71.1 " fill="#000000"/>
<path class="atom-26" d="M 515.2 80.2 L 516.1 80.2 L 516.1 82.9 L 519.4 82.9 L 519.4 80.2 L 520.2 80.2 L 520.2 86.6 L 519.4 86.6 L 519.4 83.6 L 516.1 83.6 L 516.1 86.6 L 515.2 86.6 L 515.2 80.2 " fill="#000000"/>
<path class="atom-28" d="M 424.1 136.3 L 425.0 136.3 L 425.0 139.0 L 428.3 139.0 L 428.3 136.3 L 429.1 136.3 L 429.1 142.6 L 428.3 142.6 L 428.3 139.7 L 425.0 139.7 L 425.0 142.6 L 424.1 142.6 L 424.1 136.3 " fill="#000000"/>
<path class="atom-31" d="M 352.0 166.3 L 352.8 166.3 L 352.8 169.0 L 356.1 169.0 L 356.1 166.3 L 357.0 166.3 L 357.0 172.7 L 356.1 172.7 L 356.1 169.7 L 352.8 169.7 L 352.8 172.7 L 352.0 172.7 L 352.0 166.3 " fill="#000000"/>
<path class="atom-33" d="M 369.9 208.0 L 373.7 208.0 L 373.7 208.7 L 370.8 208.7 L 370.8 210.6 L 373.4 210.6 L 373.4 211.4 L 370.8 211.4 L 370.8 214.4 L 369.9 214.4 L 369.9 208.0 " fill="#33CCCC"/>
<path class="atom-35" d="M 414.1 213.8 L 414.9 213.8 L 414.9 216.5 L 418.2 216.5 L 418.2 213.8 L 419.1 213.8 L 419.1 220.2 L 418.2 220.2 L 418.2 217.2 L 414.9 217.2 L 414.9 220.2 L 414.1 220.2 L 414.1 213.8 " fill="#000000"/>
<path class="atom-36" d="M 458.2 148.3 Q 458.2 146.8, 458.9 145.9 Q 459.7 145.1, 461.1 145.1 Q 462.5 145.1, 463.3 145.9 Q 464.0 146.8, 464.0 148.3 Q 464.0 149.9, 463.3 150.8 Q 462.5 151.6, 461.1 151.6 Q 459.7 151.6, 458.9 150.8 Q 458.2 149.9, 458.2 148.3 M 461.1 150.9 Q 462.1 150.9, 462.6 150.3 Q 463.1 149.6, 463.1 148.3 Q 463.1 147.1, 462.6 146.4 Q 462.1 145.8, 461.1 145.8 Q 460.1 145.8, 459.6 146.4 Q 459.1 147.1, 459.1 148.3 Q 459.1 149.6, 459.6 150.3 Q 460.1 150.9, 461.1 150.9 " fill="#FF0000"/>
<path class="atom-38" d="M 555.8 173.9 L 556.6 173.9 L 556.6 176.7 L 559.9 176.7 L 559.9 173.9 L 560.8 173.9 L 560.8 180.3 L 559.9 180.3 L 559.9 177.4 L 556.6 177.4 L 556.6 180.3 L 555.8 180.3 L 555.8 173.9 " fill="#000000"/>
<path class="atom-39" d="M 531.6 136.2 L 532.5 136.2 L 532.5 138.9 L 535.8 138.9 L 535.8 136.2 L 536.6 136.2 L 536.6 142.6 L 535.8 142.6 L 535.8 139.6 L 532.5 139.6 L 532.5 142.6 L 531.6 142.6 L 531.6 136.2 " fill="#000000"/>
<path class="atom-40" d="M 560.4 144.4 L 561.2 144.4 L 561.2 147.1 L 564.5 147.1 L 564.5 144.4 L 565.4 144.4 L 565.4 150.8 L 564.5 150.8 L 564.5 147.8 L 561.2 147.8 L 561.2 150.8 L 560.4 150.8 L 560.4 144.4 " fill="#000000"/>
<path class="atom-42" d="M 521.0 200.6 L 521.9 200.6 L 521.9 203.3 L 525.2 203.3 L 525.2 200.6 L 526.0 200.6 L 526.0 207.0 L 525.2 207.0 L 525.2 204.0 L 521.9 204.0 L 521.9 207.0 L 521.0 207.0 L 521.0 200.6 " fill="#000000"/>
<path class="atom-43" d="M 556.0 172.2 L 556.9 172.2 L 556.9 174.9 L 560.1 174.9 L 560.1 172.2 L 561.0 172.2 L 561.0 178.6 L 560.1 178.6 L 560.1 175.6 L 556.9 175.6 L 556.9 178.6 L 556.0 178.6 L 556.0 172.2 " fill="#000000"/>
<path class="atom-44" d="M 552.9 201.9 L 553.8 201.9 L 553.8 204.7 L 557.0 204.7 L 557.0 201.9 L 557.9 201.9 L 557.9 208.3 L 557.0 208.3 L 557.0 205.4 L 553.8 205.4 L 553.8 208.3 L 552.9 208.3 L 552.9 201.9 " fill="#000000"/>
<path class="atom-45" d="M 378.9 133.7 Q 378.9 132.1, 379.7 131.3 Q 380.5 130.4, 381.9 130.4 Q 383.3 130.4, 384.1 131.3 Q 384.8 132.1, 384.8 133.7 Q 384.8 135.2, 384.0 136.1 Q 383.3 137.0, 381.9 137.0 Q 380.5 137.0, 379.7 136.1 Q 378.9 135.2, 378.9 133.7 M 381.9 136.2 Q 382.9 136.2, 383.4 135.6 Q 383.9 134.9, 383.9 133.7 Q 383.9 132.4, 383.4 131.8 Q 382.9 131.1, 381.9 131.1 Q 380.9 131.1, 380.4 131.8 Q 379.9 132.4, 379.9 133.7 Q 379.9 134.9, 380.4 135.6 Q 380.9 136.2, 381.9 136.2 " fill="#FF0000"/>
<path class="atom-47" d="M 359.9 105.1 L 360.8 105.1 L 360.8 107.9 L 364.0 107.9 L 364.0 105.1 L 364.9 105.1 L 364.9 111.5 L 364.0 111.5 L 364.0 108.6 L 360.8 108.6 L 360.8 111.5 L 359.9 111.5 L 359.9 105.1 " fill="#000000"/>
<path class="atom-48" d="M 354.1 149.9 L 355.0 149.9 L 355.0 152.6 L 358.2 152.6 L 358.2 149.9 L 359.1 149.9 L 359.1 156.3 L 358.2 156.3 L 358.2 153.4 L 355.0 153.4 L 355.0 156.3 L 354.1 156.3 L 354.1 149.9 " fill="#000000"/>
<path class="atom-49" d="M 334.6 124.6 L 335.5 124.6 L 335.5 127.3 L 338.8 127.3 L 338.8 124.6 L 339.6 124.6 L 339.6 131.0 L 338.8 131.0 L 338.8 128.1 L 335.5 128.1 L 335.5 131.0 L 334.6 131.0 L 334.6 124.6 " fill="#000000"/>
<path class="atom-50" d="M 525.2 121.2 L 526.0 121.2 L 526.0 123.9 L 529.3 123.9 L 529.3 121.2 L 530.2 121.2 L 530.2 127.6 L 529.3 127.6 L 529.3 124.6 L 526.0 124.6 L 526.0 127.6 L 525.2 127.6 L 525.2 121.2 " fill="#000000"/>
<path class="atom-38" d="M 556.8,175.6 L 556.8,178.6 L 559.8,178.6 L 559.8,175.6 L 556.8,175.6" style="fill:none;stroke:#FF0000;stroke-width:2.0px;stroke-linecap:butt;stroke-linejoin:miter;stroke-opacity:1;"/>
<text x="300" y="20" font-size="20" font-family="sans-serif" font-weight="normal" letter-spacing="0" text-anchor="middle" fill="black">bace_hunt: 1a -&gt; 18</text><text x="300" y="35" font-size="15" font-family="sans-serif" font-weight="normal" letter-spacing="0" text-anchor="middle" fill="black"></text><text x="150" y="285" font-size="15" font-family="sans-serif" font-weight="normal" letter-spacing="0" text-anchor="middle" fill="black">1a</text><text x="450" y="285" font-size="15" font-family="sans-serif" font-weight="normal" letter-spacing="0" text-anchor="middle" fill="black">18</text></svg>
