<?xml version='1.0' encoding='ASCII' standalone='yes'?>
<svg xmlns="http://www.w3.org/2000/svg" xmlns:rdkit="http://www.rdkit.org/xml" xmlns:xlink="http://www.w3.org/1999/xlink" version="1.1" baseProfile="full" xml:space="preserve" width="600px" height="300px" viewBox="0 0 600 300">
<!-- END OF HEADER -->
<rect style="opacity:1.0;fill:#FFFFFF;stroke:none" width="600" height="300" x="0" y="0"> </rect>
<rect style="opacity:1.0;fill:#FFFFFF;stroke:none" width="600" height="300" x="0" y="0"> </rect>
<rect style="opacity:1.0;fill:#FFFFFF;stroke:none" width="600" height="300" x="0" y="0"> </rect>
<ellipse cx="120.647" cy="82.488" rx="5.8497" ry="5.8497" style="fill:#CFAA27;fill-rule:evenodd;stroke:#CFAA27;stroke-width:1px;stroke-linecap:butt;stroke-linejoin:miter;stroke-opacity:1"/>
<ellipse cx="104.594" cy="89.9468" rx="5.8497" ry="5.8497" style="fill:#B8A444;fill-rule:evenodd;stroke:#B8A444;stroke-width:1px;stroke-linecap:butt;stroke-linejoin:miter;stroke-opacity:1"/>
<ellipse cx="91.5215" cy="79.8702" rx="6.95826" ry="5.8497" style="fill:#A19F62;fill-rule:evenodd;stroke:#A19F62;stroke-width:1px;stroke-linecap:butt;stroke-linejoin:miter;stroke-opacity:1"/>
<ellipse cx="103.085" cy="107.591" rx="5.8497" ry="5.8497" style="fill:#7C947A;fill-rule:evenodd;stroke:#7C947A;stroke-width:1px;stroke-linecap:butt;stroke-linejoin:miter;stroke-opacity:1"/>
<ellipse cx="87.0406" cy="115.186" rx="5.8497" ry="5.8497" style="fill:#588A93;fill-rule:evenodd;stroke:#588A93;stroke-width:1px;stroke-linecap:butt;stroke-linejoin:miter;stroke-opacity:1"/>
<ellipse cx="85.7739" cy="132.632" rx="5.8497" ry="5.8497" style="fill:#3D79AB;fill-rule:evenodd;stroke:#3D79AB;stroke-width:1px;stroke-linecap:butt;stroke-linejoin:miter;stroke-opacity:1"/>
<ellipse cx="99.1042" cy="144.313" rx="5.8497" ry="5.8497" style="fill:#2269C4;fill-rule:evenodd;stroke:#2269C4;stroke-width:1px;stroke-linecap:butt;stroke-linejoin:miter;stroke-opacity:1"/>
<ellipse cx="118.531" cy="140.113" rx="8.86318" ry="8.86318" style="fill:#C21F30;fill-rule:evenodd;stroke:#C21F30;stroke-width:1px;stroke-linecap:butt;stroke-linejoin:miter;stroke-opacity:1"/>
<ellipse cx="92.5566" cy="160.895" rx="5.8497" ry="5.8497" style="fill:#3E3EF0;fill-rule:evenodd;stroke:#3E3EF0;stroke-width:1px;stroke-linecap:butt;stroke-linejoin:miter;stroke-opacity:1"/>
<ellipse cx="101.807" cy="176.046" rx="5.8497" ry="5.8497" style="fill:#5446F4;fill-rule:evenodd;stroke:#5446F4;stroke-width:1px;stroke-linecap:butt;stroke-linejoin:miter;stroke-opacity:1"/>
<ellipse cx="92.961" cy="191.054" rx="5.8497" ry="5.8497" style="fill:#6B4EF9;fill-rule:evenodd;stroke:#6B4EF9;stroke-width:1px;stroke-linecap:butt;stroke-linejoin:miter;stroke-opacity:1"/>
<ellipse cx="102.131" cy="206.329" rx="5.8497" ry="5.8497" style="fill:#805CF9;fill-rule:evenodd;stroke:#805CF9;stroke-width:1px;stroke-linecap:butt;stroke-linejoin:miter;stroke-opacity:1"/>
<ellipse cx="119.464" cy="206.586" rx="5.8497" ry="5.8497" style="fill:#CFAA27;fill-rule:evenodd;stroke:#CFAA27;stroke-width:1px;stroke-linecap:butt;stroke-linejoin:miter;stroke-opacity:1"/>
<ellipse cx="127.869" cy="191.336" rx="5.8497" ry="5.8497" style="fill:#B8A444;fill-rule:evenodd;stroke:#B8A444;stroke-width:1px;stroke-linecap:butt;stroke-linejoin:miter;stroke-opacity:1"/>
<ellipse cx="143.982" cy="192.395" rx="5.8497" ry="5.8497" style="fill:#A19F62;fill-rule:evenodd;stroke:#A19F62;stroke-width:1px;stroke-linecap:butt;stroke-linejoin:miter;stroke-opacity:1"/>
<ellipse cx="155.051" cy="175.788" rx="5.8497" ry="5.8497" style="fill:#7C947A;fill-rule:evenodd;stroke:#7C947A;stroke-width:1px;stroke-linecap:butt;stroke-linejoin:miter;stroke-opacity:1"/>
<ellipse cx="170.392" cy="187.642" rx="5.8497" ry="5.8497" style="fill:#588A93;fill-rule:evenodd;stroke:#588A93;stroke-width:1px;stroke-linecap:butt;stroke-linejoin:miter;stroke-opacity:1"/>
<ellipse cx="187.746" cy="179.796" rx="5.8497" ry="5.8497" style="fill:#3D79AB;fill-rule:evenodd;stroke:#3D79AB;stroke-width:1px;stroke-linecap:butt;stroke-linejoin:miter;stroke-opacity:1"/>
<ellipse cx="190.311" cy="160.592" rx="5.8497" ry="5.8497" style="fill:#2269C4;fill-rule:evenodd;stroke:#2269C4;stroke-width:1px;stroke-linecap:butt;stroke-linejoin:miter;stroke-opacity:1"/>
<ellipse cx="207.281" cy="153.635" rx="5.8497" ry="5.8497" style="fill:#3053DA;fill-rule:evenodd;stroke:#3053DA;stroke-width:1px;stroke-linecap:butt;stroke-linejoin:miter;stroke-opacity:1"/>
<ellipse cx="201.438" cy="137.837" rx="5.8497" ry="5.8497" style="fill:#3E3EF0;fill-rule:evenodd;stroke:#3E3EF0;stroke-width:1px;stroke-linecap:butt;stroke-linejoin:miter;stroke-opacity:1"/>
<ellipse cx="214.422" cy="168.843" rx="5.8497" ry="5.8497" style="fill:#5446F4;fill-rule:evenodd;stroke:#5446F4;stroke-width:1px;stroke-linecap:butt;stroke-linejoin:miter;stroke-opacity:1"/>
<ellipse cx="222.021" cy="147.328" rx="5.8497" ry="5.8497" style="fill:#6B4EF9;fill-rule:evenodd;stroke:#6B4EF9;stroke-width:1px;stroke-linecap:butt;stroke-linejoin:miter;stroke-opacity:1"/>
<ellipse cx="223.752" cy="130.586" rx="5.8497" ry="5.8497" style="fill:#805CF9;fill-rule:evenodd;stroke:#805CF9;stroke-width:1px;stroke-linecap:butt;stroke-linejoin:miter;stroke-opacity:1"/>
<ellipse cx="240.414" cy="124.488" rx="5.8497" ry="5.8497" style="fill:#CFAA27;fill-rule:evenodd;stroke:#CFAA27;stroke-width:1px;stroke-linecap:butt;stroke-linejoin:miter;stroke-opacity:1"/>
<ellipse cx="242.835" cy="106.963" rx="5.8497" ry="5.8497" style="fill:#B8A444;fill-rule:evenodd;stroke:#B8A444;stroke-width:1px;stroke-linecap:butt;stroke-linejoin:miter;stroke-opacity:1"/>
<ellipse cx="229.07" cy="95.483" rx="5.8497" ry="5.8497" style="fill:#A19F62;fill-rule:evenodd;stroke:#A19F62;stroke-width:1px;stroke-linecap:butt;stroke-linejoin:miter;stroke-opacity:1"/>
<ellipse cx="212.58" cy="102.133" rx="5.8497" ry="5.8497" style="fill:#7C947A;fill-rule:evenodd;stroke:#7C947A;stroke-width:1px;stroke-linecap:butt;stroke-linejoin:miter;stroke-opacity:1"/>
<ellipse cx="209.554" cy="119.524" rx="5.8497" ry="5.8497" style="fill:#588A93;fill-rule:evenodd;stroke:#588A93;stroke-width:1px;stroke-linecap:butt;stroke-linejoin:miter;stroke-opacity:1"/>
<ellipse cx="174.623" cy="149.227" rx="5.8497" ry="5.8497" style="fill:#3D79AB;fill-rule:evenodd;stroke:#3D79AB;stroke-width:1px;stroke-linecap:butt;stroke-linejoin:miter;stroke-opacity:1"/>
<ellipse cx="156.986" cy="156.431" rx="5.8497" ry="5.8497" style="fill:#2269C4;fill-rule:evenodd;stroke:#2269C4;stroke-width:1px;stroke-linecap:butt;stroke-linejoin:miter;stroke-opacity:1"/>
<ellipse cx="119.138" cy="175.765" rx="5.8497" ry="5.8497" style="fill:#3053DA;fill-rule:evenodd;stroke:#3053DA;stroke-width:1px;stroke-linecap:butt;stroke-linejoin:miter;stroke-opacity:1"/>
<ellipse cx="74.7965" cy="159.378" rx="5.8497" ry="5.8497" style="fill:#3E3EF0;fill-rule:evenodd;stroke:#3E3EF0;stroke-width:1px;stroke-linecap:butt;stroke-linejoin:miter;stroke-opacity:1"/>
<ellipse cx="70.3743" cy="142.111" rx="5.8497" ry="5.8497" style="fill:#5446F4;fill-rule:evenodd;stroke:#5446F4;stroke-width:1px;stroke-linecap:butt;stroke-linejoin:miter;stroke-opacity:1"/>
<ellipse cx="54.1662" cy="135.287" rx="5.8497" ry="5.8497" style="fill:#6B4EF9;fill-rule:evenodd;stroke:#6B4EF9;stroke-width:1px;stroke-linecap:butt;stroke-linejoin:miter;stroke-opacity:1"/>
<ellipse cx="51.8278" cy="117.781" rx="5.8497" ry="5.8497" style="fill:#805CF9;fill-rule:evenodd;stroke:#805CF9;stroke-width:1px;stroke-linecap:butt;stroke-linejoin:miter;stroke-opacity:1"/>
<ellipse cx="41.5736" cy="146.16" rx="6.95826" ry="5.8497" style="fill:#CFAA27;fill-rule:evenodd;stroke:#CFAA27;stroke-width:1px;stroke-linecap:butt;stroke-linejoin:miter;stroke-opacity:1"/>
<ellipse cx="110.617" cy="123.643" rx="5.8497" ry="5.8497" style="fill:#B8A444;fill-rule:evenodd;stroke:#B8A444;stroke-width:1px;stroke-linecap:butt;stroke-linejoin:miter;stroke-opacity:1"/>
<ellipse cx="120.749" cy="109.102" rx="5.8497" ry="5.8497" style="fill:#A19F62;fill-rule:evenodd;stroke:#A19F62;stroke-width:1px;stroke-linecap:butt;stroke-linejoin:miter;stroke-opacity:1"/>
<ellipse cx="75.4148" cy="191.133" rx="5.8497" ry="5.8497" style="fill:#7C947A;fill-rule:evenodd;stroke:#7C947A;stroke-width:1px;stroke-linecap:butt;stroke-linejoin:miter;stroke-opacity:1"/>
<ellipse cx="93.2033" cy="221.85" rx="5.8497" ry="5.8497" style="fill:#588A93;fill-rule:evenodd;stroke:#588A93;stroke-width:1px;stroke-linecap:butt;stroke-linejoin:miter;stroke-opacity:1"/>
<ellipse cx="128.28" cy="221.757" rx="5.8497" ry="5.8497" style="fill:#3D79AB;fill-rule:evenodd;stroke:#3D79AB;stroke-width:1px;stroke-linecap:butt;stroke-linejoin:miter;stroke-opacity:1"/>
<ellipse cx="138.293" cy="170.759" rx="5.8497" ry="5.8497" style="fill:#2269C4;fill-rule:evenodd;stroke:#2269C4;stroke-width:1px;stroke-linecap:butt;stroke-linejoin:miter;stroke-opacity:1"/>
<ellipse cx="179.752" cy="202.248" rx="5.8497" ry="5.8497" style="fill:#3053DA;fill-rule:evenodd;stroke:#3053DA;stroke-width:1px;stroke-linecap:butt;stroke-linejoin:miter;stroke-opacity:1"/>
<ellipse cx="161.043" cy="197.936" rx="5.8497" ry="5.8497" style="fill:#3E3EF0;fill-rule:evenodd;stroke:#3E3EF0;stroke-width:1px;stroke-linecap:butt;stroke-linejoin:miter;stroke-opacity:1"/>
<ellipse cx="204.717" cy="179.148" rx="5.8497" ry="5.8497" style="fill:#5446F4;fill-rule:evenodd;stroke:#5446F4;stroke-width:1px;stroke-linecap:butt;stroke-linejoin:miter;stroke-opacity:1"/>
<ellipse cx="192.868" cy="196.673" rx="5.8497" ry="5.8497" style="fill:#6B4EF9;fill-rule:evenodd;stroke:#6B4EF9;stroke-width:1px;stroke-linecap:butt;stroke-linejoin:miter;stroke-opacity:1"/>
<ellipse cx="229.016" cy="163.613" rx="5.8497" ry="5.8497" style="fill:#805CF9;fill-rule:evenodd;stroke:#805CF9;stroke-width:1px;stroke-linecap:butt;stroke-linejoin:miter;stroke-opacity:1"/>
<ellipse cx="239.638" cy="149.276" rx="5.8497" ry="5.8497" style="fill:#CFAA27;fill-rule:evenodd;stroke:#CFAA27;stroke-width:1px;stroke-linecap:butt;stroke-linejoin:miter;stroke-opacity:1"/>
<ellipse cx="254.073" cy="135.502" rx="5.8497" ry="5.8497" style="fill:#B8A444;fill-rule:evenodd;stroke:#B8A444;stroke-width:1px;stroke-linecap:butt;stroke-linejoin:miter;stroke-opacity:1"/>
<ellipse cx="259.535" cy="100.503" rx="5.8497" ry="5.8497" style="fill:#A19F62;fill-rule:evenodd;stroke:#A19F62;stroke-width:1px;stroke-linecap:butt;stroke-linejoin:miter;stroke-opacity:1"/>
<ellipse cx="231.796" cy="78.1496" rx="5.8497" ry="5.8497" style="fill:#7C947A;fill-rule:evenodd;stroke:#7C947A;stroke-width:1px;stroke-linecap:butt;stroke-linejoin:miter;stroke-opacity:1"/>
<ellipse cx="198.654" cy="90.8764" rx="5.8497" ry="5.8497" style="fill:#588A93;fill-rule:evenodd;stroke:#588A93;stroke-width:1px;stroke-linecap:butt;stroke-linejoin:miter;stroke-opacity:1"/>
<ellipse cx="192.641" cy="125.126" rx="5.8497" ry="5.8497" style="fill:#3D79AB;fill-rule:evenodd;stroke:#3D79AB;stroke-width:1px;stroke-linecap:butt;stroke-linejoin:miter;stroke-opacity:1"/>
<ellipse cx="165.914" cy="133.791" rx="5.8497" ry="5.8497" style="fill:#2269C4;fill-rule:evenodd;stroke:#2269C4;stroke-width:1px;stroke-linecap:butt;stroke-linejoin:miter;stroke-opacity:1"/>
<ellipse cx="187.103" cy="138.169" rx="5.8497" ry="5.8497" style="fill:#3053DA;fill-rule:evenodd;stroke:#3053DA;stroke-width:1px;stroke-linecap:butt;stroke-linejoin:miter;stroke-opacity:1"/>
<ellipse cx="140.756" cy="156.802" rx="5.8497" ry="5.8497" style="fill:#3E3EF0;fill-rule:evenodd;stroke:#3E3EF0;stroke-width:1px;stroke-linecap:butt;stroke-linejoin:miter;stroke-opacity:1"/>
<ellipse cx="152.823" cy="139.499" rx="5.8497" ry="5.8497" style="fill:#5446F4;fill-rule:evenodd;stroke:#5446F4;stroke-width:1px;stroke-linecap:butt;stroke-linejoin:miter;stroke-opacity:1"/>
<ellipse cx="127.269" cy="161.511" rx="5.8497" ry="5.8497" style="fill:#6B4EF9;fill-rule:evenodd;stroke:#6B4EF9;stroke-width:1px;stroke-linecap:butt;stroke-linejoin:miter;stroke-opacity:1"/>
<path class="bond-0" d="M 116.07,82.811 L 109.994,85.6565" style="fill:none;fill-rule:evenodd;stroke:#FF0000;stroke-width:2.0px;stroke-linecap:butt;stroke-linejoin:miter;stroke-opacity:1"/>
<path class="bond-0" d="M 109.994,85.6565 L 103.917,88.502" style="fill:none;fill-rule:evenodd;stroke:#000000;stroke-width:2.0px;stroke-linecap:butt;stroke-linejoin:miter;stroke-opacity:1"/>
<path class="bond-0" d="M 117.423,85.7006 L 111.347,88.5461" style="fill:none;fill-rule:evenodd;stroke:#FF0000;stroke-width:2.0px;stroke-linecap:butt;stroke-linejoin:miter;stroke-opacity:1"/>
<path class="bond-0" d="M 111.347,88.5461 L 105.271,91.3916" style="fill:none;fill-rule:evenodd;stroke:#000000;stroke-width:2.0px;stroke-linecap:butt;stroke-linejoin:miter;stroke-opacity:1"/>
<path class="bond-1" d="M 104.594,89.9468 L 99.2758,86.2387" style="fill:none;fill-rule:evenodd;stroke:#000000;stroke-width:2.0px;stroke-linecap:butt;stroke-linejoin:miter;stroke-opacity:1"/>
<path class="bond-1" d="M 99.2758,86.2387 L 93.9576,82.5307" style="fill:none;fill-rule:evenodd;stroke:#FF0000;stroke-width:2.0px;stroke-linecap:butt;stroke-linejoin:miter;stroke-opacity:1"/>
<path class="bond-2" d="M 104.594,89.9468 L 103.085,107.591" style="fill:none;fill-rule:evenodd;stroke:#000000;stroke-width:2.0px;stroke-linecap:butt;stroke-linejoin:miter;stroke-opacity:1"/>
<path class="bond-3" d="M 103.085,107.591 L 97.013,110.443" style="fill:none;fill-rule:evenodd;stroke:#000000;stroke-width:2.0px;stroke-linecap:butt;stroke-linejoin:miter;stroke-opacity:1"/>
<path class="bond-3" d="M 97.013,110.443 L 90.9404,113.296" style="fill:none;fill-rule:evenodd;stroke:#FF0000;stroke-width:2.0px;stroke-linecap:butt;stroke-linejoin:miter;stroke-opacity:1"/>
<path class="bond-4" d="M 103.085,107.591 L 108.642,119.434" style="fill:none;fill-rule:evenodd;stroke:#000000;stroke-width:2.0px;stroke-linecap:butt;stroke-linejoin:miter;stroke-opacity:1"/>
<path class="bond-5" d="M 103.085,107.591 L 117.36,108.812" style="fill:none;fill-rule:evenodd;stroke:#000000;stroke-width:2.0px;stroke-linecap:butt;stroke-linejoin:miter;stroke-opacity:1"/>
<path class="bond-6" d="M 86.7249,119.491 L 86.2494,126.062" style="fill:none;fill-rule:evenodd;stroke:#FF0000;stroke-width:2.0px;stroke-linecap:butt;stroke-linejoin:miter;stroke-opacity:1"/>
<path class="bond-6" d="M 86.2494,126.062 L 85.7739,132.632" style="fill:none;fill-rule:evenodd;stroke:#000000;stroke-width:2.0px;stroke-linecap:butt;stroke-linejoin:miter;stroke-opacity:1"/>
<path class="bond-7" d="M 85.7739,132.632 L 99.1042,144.313" style="fill:none;fill-rule:evenodd;stroke:#000000;stroke-width:2.0px;stroke-linecap:butt;stroke-linejoin:miter;stroke-opacity:1"/>
<path class="bond-8" d="M 85.7739,132.632 L 70.3743,142.111" style="fill:none;fill-rule:evenodd;stroke:#000000;stroke-width:2.0px;stroke-linecap:butt;stroke-linejoin:miter;stroke-opacity:1"/>
<path class="bond-8" d="M 85.1365,136.771 L 74.3568,143.406" style="fill:none;fill-rule:evenodd;stroke:#000000;stroke-width:2.0px;stroke-linecap:butt;stroke-linejoin:miter;stroke-opacity:1"/>
<path class="bond-9" d="M 99.1042,144.313 L 106.304,142.576" style="fill:none;fill-rule:evenodd;stroke:#000000;stroke-width:2.0px;stroke-linecap:butt;stroke-linejoin:miter;stroke-opacity:1"/>
<path class="bond-9" d="M 106.304,142.576 L 113.504,140.838" style="fill:none;fill-rule:evenodd;stroke:#7F4C19;stroke-width:2.0px;stroke-linecap:butt;stroke-linejoin:miter;stroke-opacity:1"/>
<path class="bond-10" d="M 99.1042,144.313 L 92.5566,160.895" style="fill:none;fill-rule:evenodd;stroke:#000000;stroke-width:2.0px;stroke-linecap:butt;stroke-linejoin:miter;stroke-opacity:1"/>
<path class="bond-10" d="M 95.1543,145.628 L 90.5709,157.236" style="fill:none;fill-rule:evenodd;stroke:#000000;stroke-width:2.0px;stroke-linecap:butt;stroke-linejoin:miter;stroke-opacity:1"/>
<path class="bond-11" d="M 92.5566,160.895 L 101.807,176.046" style="fill:none;fill-rule:evenodd;stroke:#000000;stroke-width:2.0px;stroke-linecap:butt;stroke-linejoin:miter;stroke-opacity:1"/>
<path class="bond-12" d="M 92.5566,160.895 L 85.1066,160.216" style="fill:none;fill-rule:evenodd;stroke:#000000;stroke-width:2.0px;stroke-linecap:butt;stroke-linejoin:miter;stroke-opacity:1"/>
<path class="bond-12" d="M 85.1066,160.216 L 77.6566,159.537" style="fill:none;fill-rule:evenodd;stroke:#CCCC00;stroke-width:2.0px;stroke-linecap:butt;stroke-linejoin:miter;stroke-opacity:1"/>
<path class="bond-13" d="M 101.807,176.046 L 92.961,191.054" style="fill:none;fill-rule:evenodd;stroke:#000000;stroke-width:2.0px;stroke-linecap:butt;stroke-linejoin:miter;stroke-opacity:1"/>
<path class="bond-13" d="M 103.229,179.917 L 97.0367,190.423" style="fill:none;fill-rule:evenodd;stroke:#000000;stroke-width:2.0px;stroke-linecap:butt;stroke-linejoin:miter;stroke-opacity:1"/>
<path class="bond-14" d="M 101.807,176.046 L 119.138,175.765" style="fill:none;fill-rule:evenodd;stroke:#000000;stroke-width:2.0px;stroke-linecap:butt;stroke-linejoin:miter;stroke-opacity:1"/>
<path class="bond-15" d="M 92.961,191.054 L 102.131,206.329" style="fill:none;fill-rule:evenodd;stroke:#000000;stroke-width:2.0px;stroke-linecap:butt;stroke-linejoin:miter;stroke-opacity:1"/>
<path class="bond-16" d="M 92.961,191.054 L 78.7996,191.117" style="fill:none;fill-rule:evenodd;stroke:#000000;stroke-width:2.0px;stroke-linecap:butt;stroke-linejoin:miter;stroke-opacity:1"/>
<path class="bond-17" d="M 102.131,206.329 L 119.464,206.586" style="fill:none;fill-rule:evenodd;stroke:#000000;stroke-width:2.0px;stroke-linecap:butt;stroke-linejoin:miter;stroke-opacity:1"/>
<path class="bond-17" d="M 104.779,203.177 L 116.911,203.357" style="fill:none;fill-rule:evenodd;stroke:#000000;stroke-width:2.0px;stroke-linecap:butt;stroke-linejoin:miter;stroke-opacity:1"/>
<path class="bond-18" d="M 102.131,206.329 L 95.6265,217.638" style="fill:none;fill-rule:evenodd;stroke:#000000;stroke-width:2.0px;stroke-linecap:butt;stroke-linejoin:miter;stroke-opacity:1"/>
<path class="bond-19" d="M 119.464,206.586 L 127.869,191.336" style="fill:none;fill-rule:evenodd;stroke:#000000;stroke-width:2.0px;stroke-linecap:butt;stroke-linejoin:miter;stroke-opacity:1"/>
<path class="bond-20" d="M 119.464,206.586 L 125.837,217.553" style="fill:none;fill-rule:evenodd;stroke:#000000;stroke-width:2.0px;stroke-linecap:butt;stroke-linejoin:miter;stroke-opacity:1"/>
<path class="bond-21" d="M 127.869,191.336 L 134.296,191.759" style="fill:none;fill-rule:evenodd;stroke:#000000;stroke-width:2.0px;stroke-linecap:butt;stroke-linejoin:miter;stroke-opacity:1"/>
<path class="bond-21" d="M 134.296,191.759 L 140.723,192.181" style="fill:none;fill-rule:evenodd;stroke:#0000FF;stroke-width:2.0px;stroke-linecap:butt;stroke-linejoin:miter;stroke-opacity:1"/>
<path class="bond-22" d="M 127.869,191.336 L 119.138,175.765" style="fill:none;fill-rule:evenodd;stroke:#000000;stroke-width:2.0px;stroke-linecap:butt;stroke-linejoin:miter;stroke-opacity:1"/>
<path class="bond-22" d="M 123.776,190.561 L 117.665,179.661" style="fill:none;fill-rule:evenodd;stroke:#000000;stroke-width:2.0px;stroke-linecap:butt;stroke-linejoin:miter;stroke-opacity:1"/>
<path class="bond-23" d="M 146.824,188.131 L 150.938,181.96" style="fill:none;fill-rule:evenodd;stroke:#0000FF;stroke-width:2.0px;stroke-linecap:butt;stroke-linejoin:miter;stroke-opacity:1"/>
<path class="bond-23" d="M 150.938,181.96 L 155.051,175.788" style="fill:none;fill-rule:evenodd;stroke:#000000;stroke-width:2.0px;stroke-linecap:butt;stroke-linejoin:miter;stroke-opacity:1"/>
<path class="bond-24" d="M 145.542,196.603 L 147.082,200.761" style="fill:none;fill-rule:evenodd;stroke:#0000FF;stroke-width:2.0px;stroke-linecap:butt;stroke-linejoin:miter;stroke-opacity:1"/>
<path class="bond-24" d="M 147.082,200.761 L 148.623,204.918" style="fill:none;fill-rule:evenodd;stroke:#000000;stroke-width:2.0px;stroke-linecap:butt;stroke-linejoin:miter;stroke-opacity:1"/>
<path class="bond-25" d="M 155.051,175.788 L 170.392,187.642" style="fill:none;fill-rule:evenodd;stroke:#000000;stroke-width:2.0px;stroke-linecap:butt;stroke-linejoin:miter;stroke-opacity:1"/>
<path class="bond-26" d="M 155.051,175.788 L 156.986,156.431" style="fill:none;fill-rule:evenodd;stroke:#000000;stroke-width:2.0px;stroke-linecap:butt;stroke-linejoin:miter;stroke-opacity:1"/>
<path class="bond-27" d="M 155.051,175.788 L 141.677,171.774" style="fill:none;fill-rule:evenodd;stroke:#000000;stroke-width:2.0px;stroke-linecap:butt;stroke-linejoin:miter;stroke-opacity:1"/>
<path class="bond-28" d="M 170.392,187.642 L 187.746,179.796" style="fill:none;fill-rule:evenodd;stroke:#000000;stroke-width:2.0px;stroke-linecap:butt;stroke-linejoin:miter;stroke-opacity:1"/>
<path class="bond-29" d="M 170.392,187.642 L 177.062,198.049" style="fill:none;fill-rule:evenodd;stroke:#000000;stroke-width:2.0px;stroke-linecap:butt;stroke-linejoin:miter;stroke-opacity:1"/>
<path class="bond-30" d="M 170.392,187.642 L 164.337,194.309" style="fill:none;fill-rule:evenodd;stroke:#000000;stroke-width:2.0px;stroke-linecap:butt;stroke-linejoin:miter;stroke-opacity:1"/>
<path class="bond-31" d="M 187.746,179.796 L 188.745,172.319" style="fill:none;fill-rule:evenodd;stroke:#000000;stroke-width:2.0px;stroke-linecap:butt;stroke-linejoin:miter;stroke-opacity:1"/>
<path class="bond-31" d="M 188.745,172.319 L 189.744,164.842" style="fill:none;fill-rule:evenodd;stroke:#0000FF;stroke-width:2.0px;stroke-linecap:butt;stroke-linejoin:miter;stroke-opacity:1"/>
<path class="bond-32" d="M 187.746,179.796 L 201.346,179.277" style="fill:none;fill-rule:evenodd;stroke:#000000;stroke-width:2.0px;stroke-linecap:butt;stroke-linejoin:miter;stroke-opacity:1"/>
<path class="bond-33" d="M 187.746,179.796 L 191.591,192.467" style="fill:none;fill-rule:evenodd;stroke:#000000;stroke-width:2.0px;stroke-linecap:butt;stroke-linejoin:miter;stroke-opacity:1"/>
<path class="bond-34" d="M 193.626,159.213 L 199.062,156.953" style="fill:none;fill-rule:evenodd;stroke:#0000FF;stroke-width:2.0px;stroke-linecap:butt;stroke-linejoin:miter;stroke-opacity:1"/>
<path class="bond-34" d="M 199.062,156.953 L 204.497,154.692" style="fill:none;fill-rule:evenodd;stroke:#CCCC00;stroke-width:2.0px;stroke-linecap:butt;stroke-linejoin:miter;stroke-opacity:1"/>
<path class="bond-35" d="M 186.971,158.173 L 180.797,153.7" style="fill:none;fill-rule:evenodd;stroke:#0000FF;stroke-width:2.0px;stroke-linecap:butt;stroke-linejoin:miter;stroke-opacity:1"/>
<path class="bond-35" d="M 180.797,153.7 L 174.623,149.227" style="fill:none;fill-rule:evenodd;stroke:#000000;stroke-width:2.0px;stroke-linecap:butt;stroke-linejoin:miter;stroke-opacity:1"/>
<path class="bond-36" d="M 207.229,148.805 L 205.866,145.131" style="fill:none;fill-rule:evenodd;stroke:#CCCC00;stroke-width:2.0px;stroke-linecap:butt;stroke-linejoin:miter;stroke-opacity:1"/>
<path class="bond-36" d="M 205.866,145.131 L 204.504,141.457" style="fill:none;fill-rule:evenodd;stroke:#FF0000;stroke-width:2.0px;stroke-linecap:butt;stroke-linejoin:miter;stroke-opacity:1"/>
<path class="bond-36" d="M 204.237,149.914 L 202.874,146.24" style="fill:none;fill-rule:evenodd;stroke:#CCCC00;stroke-width:2.0px;stroke-linecap:butt;stroke-linejoin:miter;stroke-opacity:1"/>
<path class="bond-36" d="M 202.874,146.24 L 201.512,142.566" style="fill:none;fill-rule:evenodd;stroke:#FF0000;stroke-width:2.0px;stroke-linecap:butt;stroke-linejoin:miter;stroke-opacity:1"/>
<path class="bond-37" d="M 207.886,158.588 L 209.469,161.971" style="fill:none;fill-rule:evenodd;stroke:#CCCC00;stroke-width:2.0px;stroke-linecap:butt;stroke-linejoin:miter;stroke-opacity:1"/>
<path class="bond-37" d="M 209.469,161.971 L 211.053,165.353" style="fill:none;fill-rule:evenodd;stroke:#FF0000;stroke-width:2.0px;stroke-linecap:butt;stroke-linejoin:miter;stroke-opacity:1"/>
<path class="bond-37" d="M 210.775,157.235 L 212.359,160.618" style="fill:none;fill-rule:evenodd;stroke:#CCCC00;stroke-width:2.0px;stroke-linecap:butt;stroke-linejoin:miter;stroke-opacity:1"/>
<path class="bond-37" d="M 212.359,160.618 L 213.943,164" style="fill:none;fill-rule:evenodd;stroke:#FF0000;stroke-width:2.0px;stroke-linecap:butt;stroke-linejoin:miter;stroke-opacity:1"/>
<path class="bond-38" d="M 210.095,152.349 L 216.058,149.839" style="fill:none;fill-rule:evenodd;stroke:#CCCC00;stroke-width:2.0px;stroke-linecap:butt;stroke-linejoin:miter;stroke-opacity:1"/>
<path class="bond-38" d="M 216.058,149.839 L 222.021,147.328" style="fill:none;fill-rule:evenodd;stroke:#000000;stroke-width:2.0px;stroke-linecap:butt;stroke-linejoin:miter;stroke-opacity:1"/>
<path class="bond-39" d="M 222.021,147.328 L 223.752,130.586" style="fill:none;fill-rule:evenodd;stroke:#000000;stroke-width:2.0px;stroke-linecap:butt;stroke-linejoin:miter;stroke-opacity:1"/>
<path class="bond-40" d="M 222.021,147.328 L 227.209,159.405" style="fill:none;fill-rule:evenodd;stroke:#000000;stroke-width:2.0px;stroke-linecap:butt;stroke-linejoin:miter;stroke-opacity:1"/>
<path class="bond-41" d="M 222.021,147.328 L 236.249,148.902" style="fill:none;fill-rule:evenodd;stroke:#000000;stroke-width:2.0px;stroke-linecap:butt;stroke-linejoin:miter;stroke-opacity:1"/>
<path class="bond-42" d="M 223.752,130.586 L 240.414,124.488" style="fill:none;fill-rule:evenodd;stroke:#000000;stroke-width:2.0px;stroke-linecap:butt;stroke-linejoin:miter;stroke-opacity:1"/>
<path class="bond-42" d="M 225.155,126.675 L 236.818,122.407" style="fill:none;fill-rule:evenodd;stroke:#000000;stroke-width:2.0px;stroke-linecap:butt;stroke-linejoin:miter;stroke-opacity:1"/>
<path class="bond-43" d="M 223.752,130.586 L 209.554,119.524" style="fill:none;fill-rule:evenodd;stroke:#000000;stroke-width:2.0px;stroke-linecap:butt;stroke-linejoin:miter;stroke-opacity:1"/>
<path class="bond-44" d="M 240.414,124.488 L 242.835,106.963" style="fill:none;fill-rule:evenodd;stroke:#000000;stroke-width:2.0px;stroke-linecap:butt;stroke-linejoin:miter;stroke-opacity:1"/>
<path class="bond-45" d="M 240.414,124.488 L 250.688,132.773" style="fill:none;fill-rule:evenodd;stroke:#000000;stroke-width:2.0px;stroke-linecap:butt;stroke-linejoin:miter;stroke-opacity:1"/>
<path class="bond-46" d="M 242.835,106.963 L 229.07,95.483" style="fill:none;fill-rule:evenodd;stroke:#000000;stroke-width:2.0px;stroke-linecap:butt;stroke-linejoin:miter;stroke-opacity:1"/>
<path class="bond-46" d="M 238.726,107.692 L 229.091,99.6553" style="fill:none;fill-rule:evenodd;stroke:#000000;stroke-width:2.0px;stroke-linecap:butt;stroke-linejoin:miter;stroke-opacity:1"/>
<path class="bond-47" d="M 242.835,106.963 L 256.141,101.816" style="fill:none;fill-rule:evenodd;stroke:#000000;stroke-width:2.0px;stroke-linecap:butt;stroke-linejoin:miter;stroke-opacity:1"/>
<path class="bond-48" d="M 229.07,95.483 L 212.58,102.133" style="fill:none;fill-rule:evenodd;stroke:#000000;stroke-width:2.0px;stroke-linecap:butt;stroke-linejoin:miter;stroke-opacity:1"/>
<path class="bond-49" d="M 229.07,95.483 L 231.135,82.3533" style="fill:none;fill-rule:evenodd;stroke:#000000;stroke-width:2.0px;stroke-linecap:butt;stroke-linejoin:miter;stroke-opacity:1"/>
<path class="bond-50" d="M 212.58,102.133 L 209.554,119.524" style="fill:none;fill-rule:evenodd;stroke:#000000;stroke-width:2.0px;stroke-linecap:butt;stroke-linejoin:miter;stroke-opacity:1"/>
<path class="bond-50" d="M 215.269,105.289 L 213.151,117.462" style="fill:none;fill-rule:evenodd;stroke:#000000;stroke-width:2.0px;stroke-linecap:butt;stroke-linejoin:miter;stroke-opacity:1"/>
<path class="bond-51" d="M 212.58,102.133 L 202.048,93.6197" style="fill:none;fill-rule:evenodd;stroke:#000000;stroke-width:2.0px;stroke-linecap:butt;stroke-linejoin:miter;stroke-opacity:1"/>
<path class="bond-52" d="M 209.554,119.524 L 196.033,124.002" style="fill:none;fill-rule:evenodd;stroke:#000000;stroke-width:2.0px;stroke-linecap:butt;stroke-linejoin:miter;stroke-opacity:1"/>
<path class="bond-53" d="M 174.623,149.227 L 156.986,156.431" style="fill:none;fill-rule:evenodd;stroke:#000000;stroke-width:2.0px;stroke-linecap:butt;stroke-linejoin:miter;stroke-opacity:1"/>
<path class="bond-54" d="M 174.623,149.227 L 168.288,137.999" style="fill:none;fill-rule:evenodd;stroke:#000000;stroke-width:2.0px;stroke-linecap:butt;stroke-linejoin:miter;stroke-opacity:1"/>
<path class="bond-55" d="M 174.623,149.227 L 183.74,141.149" style="fill:none;fill-rule:evenodd;stroke:#000000;stroke-width:2.0px;stroke-linecap:butt;stroke-linejoin:miter;stroke-opacity:1"/>
<path class="bond-56" d="M 156.986,156.431 L 144.108,156.725" style="fill:none;fill-rule:evenodd;stroke:#000000;stroke-width:2.0px;stroke-linecap:butt;stroke-linejoin:miter;stroke-opacity:1"/>
<path class="bond-57" d="M 156.986,156.431 L 153.856,143.7" style="fill:none;fill-rule:evenodd;stroke:#000000;stroke-width:2.0px;stroke-linecap:butt;stroke-linejoin:miter;stroke-opacity:1"/>
<path class="bond-58" d="M 119.138,175.765 L 124.888,165.686" style="fill:none;fill-rule:evenodd;stroke:#000000;stroke-width:2.0px;stroke-linecap:butt;stroke-linejoin:miter;stroke-opacity:1"/>
<path class="bond-59" d="M 73.7151,155.079 L 72.0447,148.595" style="fill:none;fill-rule:evenodd;stroke:#CCCC00;stroke-width:2.0px;stroke-linecap:butt;stroke-linejoin:miter;stroke-opacity:1"/>
<path class="bond-59" d="M 72.0447,148.595 L 70.3743,142.111" style="fill:none;fill-rule:evenodd;stroke:#000000;stroke-width:2.0px;stroke-linecap:butt;stroke-linejoin:miter;stroke-opacity:1"/>
<path class="bond-60" d="M 70.3743,142.111 L 54.1662,135.287" style="fill:none;fill-rule:evenodd;stroke:#000000;stroke-width:2.0px;stroke-linecap:butt;stroke-linejoin:miter;stroke-opacity:1"/>
<path class="bond-61" d="M 55.7476,135.076 L 54.8691,128.478" style="fill:none;fill-rule:evenodd;stroke:#000000;stroke-width:2.0px;stroke-linecap:butt;stroke-linejoin:miter;stroke-opacity:1"/>
<path class="bond-61" d="M 54.8691,128.478 L 53.9907,121.88" style="fill:none;fill-rule:evenodd;stroke:#FF0000;stroke-width:2.0px;stroke-linecap:butt;stroke-linejoin:miter;stroke-opacity:1"/>
<path class="bond-61" d="M 52.5848,135.497 L 51.7063,128.899" style="fill:none;fill-rule:evenodd;stroke:#000000;stroke-width:2.0px;stroke-linecap:butt;stroke-linejoin:miter;stroke-opacity:1"/>
<path class="bond-61" d="M 51.7063,128.899 L 50.8278,122.301" style="fill:none;fill-rule:evenodd;stroke:#FF0000;stroke-width:2.0px;stroke-linecap:butt;stroke-linejoin:miter;stroke-opacity:1"/>
<path class="bond-62" d="M 54.1662,135.287 L 49.102,139.183" style="fill:none;fill-rule:evenodd;stroke:#000000;stroke-width:2.0px;stroke-linecap:butt;stroke-linejoin:miter;stroke-opacity:1"/>
<path class="bond-62" d="M 49.102,139.183 L 44.0378,143.079" style="fill:none;fill-rule:evenodd;stroke:#FF0000;stroke-width:2.0px;stroke-linecap:butt;stroke-linejoin:miter;stroke-opacity:1"/>
<path class="atom-0" d="M 117.19 82.4508 Q 117.19 80.6427, 118.083 79.6323 Q 118.977 78.6219, 120.647 78.6219 Q 122.316 78.6219, 123.21 79.6323 Q 124.103 80.6427, 124.103 82.4508 Q 124.103 84.2801, 123.199 85.3225 Q 122.295 86.3541, 120.647 86.3541 Q 118.987 86.3541, 118.083 85.3225 Q 117.19 84.2908, 117.19 82.4508 M 120.647 85.5033 Q 121.795 85.5033, 122.412 84.7375 Q 123.04 83.9611, 123.04 82.4508 Q 123.04 80.9724, 122.412 80.2279 Q 121.795 79.4728, 120.647 79.4728 Q 119.498 79.4728, 118.87 80.2173 Q 118.253 80.9618, 118.253 82.4508 Q 118.253 83.9717, 118.87 84.7375 Q 119.498 85.5033, 120.647 85.5033 " fill="#FF0000"/>
<path class="atom-2" d="M 86.6013 79.833 Q 86.6013 78.0249, 87.4947 77.0145 Q 88.3881 76.0041, 90.058 76.0041 Q 91.7278 76.0041, 92.6212 77.0145 Q 93.5146 78.0249, 93.5146 79.833 Q 93.5146 81.6623, 92.6105 82.7047 Q 91.7065 83.7363, 90.058 83.7363 Q 88.3988 83.7363, 87.4947 82.7047 Q 86.6013 81.673, 86.6013 79.833 M 90.058 82.8855 Q 91.2066 82.8855, 91.8235 82.1197 Q 92.451 81.3433, 92.451 79.833 Q 92.451 78.3546, 91.8235 77.6101 Q 91.2066 76.855, 90.058 76.855 Q 88.9093 76.855, 88.2818 77.5995 Q 87.6649 78.344, 87.6649 79.833 Q 87.6649 81.3539, 88.2818 82.1197 Q 88.9093 82.8855, 90.058 82.8855 " fill="#FF0000"/>
<path class="atom-2" d="M 93.8656 77.2332 L 96.4418 77.2332 L 96.4418 77.7947 L 93.8656 77.7947 L 93.8656 77.2332 " fill="#FF0000"/>
<path class="atom-4" d="M 83.584 115.149 Q 83.584 113.341, 84.4774 112.331 Q 85.3708 111.32, 87.0406 111.32 Q 88.7104 111.32, 89.6039 112.331 Q 90.4973 113.341, 90.4973 115.149 Q 90.4973 116.979, 89.5932 118.021 Q 88.6892 119.053, 87.0406 119.053 Q 85.3814 119.053, 84.4774 118.021 Q 83.584 116.989, 83.584 115.149 M 87.0406 118.202 Q 88.1893 118.202, 88.8062 117.436 Q 89.4337 116.659, 89.4337 115.149 Q 89.4337 113.671, 88.8062 112.926 Q 88.1893 112.171, 87.0406 112.171 Q 85.892 112.171, 85.2644 112.916 Q 84.6476 113.66, 84.6476 115.149 Q 84.6476 116.67, 85.2644 117.436 Q 85.892 118.202, 87.0406 118.202 " fill="#FF0000"/>
<path class="atom-7" d="M 117.611 139.922 Q 118.334 140.124, 118.696 140.571 Q 119.068 141.007, 119.068 141.655 Q 119.068 142.698, 118.398 143.293 Q 117.738 143.878, 116.483 143.878 L 113.952 143.878 L 113.952 136.348 L 116.175 136.348 Q 117.462 136.348, 118.111 136.869 Q 118.759 137.39, 118.759 138.348 Q 118.759 139.486, 117.611 139.922 M 114.962 137.199 L 114.962 139.56 L 116.175 139.56 Q 116.919 139.56, 117.302 139.262 Q 117.696 138.954, 117.696 138.348 Q 117.696 137.199, 116.175 137.199 L 114.962 137.199 M 116.483 143.027 Q 117.217 143.027, 117.611 142.676 Q 118.004 142.326, 118.004 141.655 Q 118.004 141.039, 117.568 140.73 Q 117.143 140.411, 116.324 140.411 L 114.962 140.411 L 114.962 143.027 L 116.483 143.027 " fill="#7F4C19"/>
<path class="atom-7" d="M 120.78 138.412 L 120.897 139.167 Q 121.472 138.316, 122.408 138.316 Q 122.705 138.316, 123.11 138.422 L 122.95 139.316 Q 122.493 139.209, 122.237 139.209 Q 121.791 139.209, 121.493 139.39 Q 121.206 139.56, 120.972 139.975 L 120.972 143.878 L 119.972 143.878 L 119.972 138.412 L 120.78 138.412 " fill="#7F4C19"/>
<path class="atom-14" d="M 142.318 188.63 L 144.785 192.618 Q 145.03 193.012, 145.423 193.725 Q 145.817 194.437, 145.838 194.48 L 145.838 188.63 L 146.838 188.63 L 146.838 196.16 L 145.806 196.16 L 143.158 191.8 Q 142.849 191.289, 142.52 190.704 Q 142.201 190.119, 142.105 189.938 L 142.105 196.16 L 141.126 196.16 L 141.126 188.63 L 142.318 188.63 " fill="#0000FF"/>
<path class="atom-18" d="M 188.647 156.827 L 191.114 160.816 Q 191.359 161.209, 191.752 161.922 Q 192.146 162.634, 192.167 162.677 L 192.167 156.827 L 193.167 156.827 L 193.167 164.357 L 192.135 164.357 L 189.487 159.997 Q 189.179 159.486, 188.849 158.901 Q 188.53 158.316, 188.434 158.135 L 188.434 164.357 L 187.456 164.357 L 187.456 156.827 L 188.647 156.827 " fill="#0000FF"/>
<path class="atom-19" d="M 205.153 156.119 Q 205.239 156.151, 205.59 156.3 Q 205.94 156.449, 206.323 156.544 Q 206.717 156.629, 207.1 156.629 Q 207.812 156.629, 208.227 156.289 Q 208.642 155.938, 208.642 155.332 Q 208.642 154.917, 208.429 154.662 Q 208.227 154.407, 207.908 154.268 Q 207.589 154.13, 207.057 153.97 Q 206.387 153.768, 205.983 153.577 Q 205.59 153.385, 205.302 152.981 Q 205.026 152.577, 205.026 151.896 Q 205.026 150.95, 205.664 150.365 Q 206.313 149.78, 207.589 149.78 Q 208.461 149.78, 209.45 150.195 L 209.206 151.014 Q 208.302 150.641, 207.621 150.641 Q 206.887 150.641, 206.483 150.95 Q 206.079 151.248, 206.089 151.769 Q 206.089 152.173, 206.291 152.418 Q 206.504 152.662, 206.802 152.801 Q 207.11 152.939, 207.621 153.098 Q 208.302 153.311, 208.706 153.524 Q 209.11 153.736, 209.397 154.173 Q 209.695 154.598, 209.695 155.332 Q 209.695 156.374, 208.993 156.938 Q 208.302 157.491, 207.142 157.491 Q 206.472 157.491, 205.962 157.342 Q 205.462 157.204, 204.866 156.959 L 205.153 156.119 " fill="#CCCC00"/>
<path class="atom-20" d="M 197.982 137.799 Q 197.982 135.991, 198.875 134.981 Q 199.768 133.971, 201.438 133.971 Q 203.108 133.971, 204.001 134.981 Q 204.895 135.991, 204.895 137.799 Q 204.895 139.629, 203.991 140.671 Q 203.087 141.703, 201.438 141.703 Q 199.779 141.703, 198.875 140.671 Q 197.982 139.639, 197.982 137.799 M 201.438 140.852 Q 202.587 140.852, 203.204 140.086 Q 203.831 139.31, 203.831 137.799 Q 203.831 136.321, 203.204 135.577 Q 202.587 134.821, 201.438 134.821 Q 200.29 134.821, 199.662 135.566 Q 199.045 136.31, 199.045 137.799 Q 199.045 139.32, 199.662 140.086 Q 200.29 140.852, 201.438 140.852 " fill="#FF0000"/>
<path class="atom-21" d="M 210.965 168.805 Q 210.965 166.997, 211.858 165.987 Q 212.752 164.976, 214.422 164.976 Q 216.092 164.976, 216.985 165.987 Q 217.878 166.997, 217.878 168.805 Q 217.878 170.635, 216.974 171.677 Q 216.07 172.709, 214.422 172.709 Q 212.762 172.709, 211.858 171.677 Q 210.965 170.645, 210.965 168.805 M 214.422 171.858 Q 215.57 171.858, 216.187 171.092 Q 216.815 170.316, 216.815 168.805 Q 216.815 167.327, 216.187 166.582 Q 215.57 165.827, 214.422 165.827 Q 213.273 165.827, 212.646 166.572 Q 212.029 167.316, 212.029 168.805 Q 212.029 170.326, 212.646 171.092 Q 213.273 171.858, 214.422 171.858 " fill="#FF0000"/>
<path class="atom-32" d="M 72.6693 161.861 Q 72.7544 161.893, 73.1054 162.042 Q 73.4563 162.191, 73.8392 162.287 Q 74.2328 162.372, 74.6156 162.372 Q 75.3282 162.372, 75.743 162.031 Q 76.1578 161.68, 76.1578 161.074 Q 76.1578 160.659, 75.9451 160.404 Q 75.743 160.149, 75.424 160.011 Q 75.1049 159.872, 74.5731 159.713 Q 73.903 159.511, 73.4989 159.319 Q 73.1054 159.128, 72.8182 158.724 Q 72.5417 158.32, 72.5417 157.639 Q 72.5417 156.692, 73.1798 156.107 Q 73.8286 155.522, 75.1049 155.522 Q 75.977 155.522, 76.9662 155.937 L 76.7215 156.756 Q 75.8175 156.384, 75.1368 156.384 Q 74.4029 156.384, 73.9988 156.692 Q 73.5946 156.99, 73.6052 157.511 Q 73.6052 157.915, 73.8073 158.16 Q 74.02 158.405, 74.3178 158.543 Q 74.6263 158.681, 75.1368 158.841 Q 75.8175 159.053, 76.2217 159.266 Q 76.6258 159.479, 76.913 159.915 Q 77.2108 160.34, 77.2108 161.074 Q 77.2108 162.117, 76.5088 162.68 Q 75.8175 163.233, 74.6582 163.233 Q 73.9881 163.233, 73.4776 163.084 Q 72.9777 162.946, 72.3821 162.702 L 72.6693 161.861 " fill="#CCCC00"/>
<path class="atom-35" d="M 48.3711 117.744 Q 48.3711 115.936, 49.2645 114.926 Q 50.1579 113.915, 51.8278 113.915 Q 53.4976 113.915, 54.391 114.926 Q 55.2844 115.936, 55.2844 117.744 Q 55.2844 119.574, 54.3804 120.616 Q 53.4763 121.648, 51.8278 121.648 Q 50.1686 121.648, 49.2645 120.616 Q 48.3711 119.584, 48.3711 117.744 M 51.8278 120.797 Q 52.9764 120.797, 53.5933 120.031 Q 54.2208 119.254, 54.2208 117.744 Q 54.2208 116.266, 53.5933 115.521 Q 52.9764 114.766, 51.8278 114.766 Q 50.6791 114.766, 50.0516 115.511 Q 49.4347 116.255, 49.4347 117.744 Q 49.4347 119.265, 50.0516 120.031 Q 50.6791 120.797, 51.8278 120.797 " fill="#FF0000"/>
<path class="atom-36" d="M 36.6534 146.123 Q 36.6534 144.315, 37.5468 143.304 Q 38.4402 142.294, 40.11 142.294 Q 41.7799 142.294, 42.6733 143.304 Q 43.5667 144.315, 43.5667 146.123 Q 43.5667 147.952, 42.6626 148.994 Q 41.7586 150.026, 40.11 150.026 Q 38.4509 150.026, 37.5468 148.994 Q 36.6534 147.963, 36.6534 146.123 M 40.11 149.175 Q 41.2587 149.175, 41.8756 148.409 Q 42.5031 147.633, 42.5031 146.123 Q 42.5031 144.644, 41.8756 143.9 Q 41.2587 143.145, 40.11 143.145 Q 38.9614 143.145, 38.3339 143.889 Q 37.717 144.634, 37.717 146.123 Q 37.717 147.644, 38.3339 148.409 Q 38.9614 149.175, 40.11 149.175 " fill="#FF0000"/>
<path class="atom-36" d="M 43.9177 143.523 L 46.4939 143.523 L 46.4939 144.084 L 43.9177 144.084 L 43.9177 143.523 " fill="#FF0000"/>
<path class="atom-37" d="M 107.67 119.878 L 108.691 119.878 L 108.691 123.079 L 112.542 123.079 L 112.542 119.878 L 113.563 119.878 L 113.563 127.408 L 112.542 127.408 L 112.542 123.93 L 108.691 123.93 L 108.691 127.408 L 107.67 127.408 L 107.67 119.878 " fill="#000000"/>
<path class="atom-38" d="M 117.803 105.337 L 118.824 105.337 L 118.824 108.538 L 122.674 108.538 L 122.674 105.337 L 123.695 105.337 L 123.695 112.867 L 122.674 112.867 L 122.674 109.389 L 118.824 109.389 L 118.824 112.867 L 117.803 112.867 L 117.803 105.337 " fill="#000000"/>
<path class="atom-39" d="M 72.4687 187.368 L 73.4897 187.368 L 73.4897 190.569 L 77.3399 190.569 L 77.3399 187.368 L 78.3609 187.368 L 78.3609 194.898 L 77.3399 194.898 L 77.3399 191.42 L 73.4897 191.42 L 73.4897 194.898 L 72.4687 194.898 L 72.4687 187.368 " fill="#000000"/>
<path class="atom-40" d="M 90.2571 218.085 L 91.2782 218.085 L 91.2782 221.287 L 95.1283 221.287 L 95.1283 218.085 L 96.1494 218.085 L 96.1494 225.615 L 95.1283 225.615 L 95.1283 222.138 L 91.2782 222.138 L 91.2782 225.615 L 90.2571 225.615 L 90.2571 218.085 " fill="#000000"/>
<path class="atom-41" d="M 125.334 217.992 L 126.355 217.992 L 126.355 221.193 L 130.205 221.193 L 130.205 217.992 L 131.226 217.992 L 131.226 225.522 L 130.205 225.522 L 130.205 222.044 L 126.355 222.044 L 126.355 225.522 L 125.334 225.522 L 125.334 217.992 " fill="#000000"/>
<path class="atom-42" d="M 147.194 205.249 L 148.216 205.249 L 148.216 208.45 L 152.066 208.45 L 152.066 205.249 L 153.087 205.249 L 153.087 212.779 L 152.066 212.779 L 152.066 209.301 L 148.216 209.301 L 148.216 212.779 L 147.194 212.779 L 147.194 205.249 " fill="#000000"/>
<path class="atom-43" d="M 135.347 166.994 L 136.368 166.994 L 136.368 170.195 L 140.218 170.195 L 140.218 166.994 L 141.239 166.994 L 141.239 174.524 L 140.218 174.524 L 140.218 171.046 L 136.368 171.046 L 136.368 174.524 L 135.347 174.524 L 135.347 166.994 " fill="#000000"/>
<path class="atom-44" d="M 176.806 198.483 L 177.827 198.483 L 177.827 201.684 L 181.678 201.684 L 181.678 198.483 L 182.699 198.483 L 182.699 206.013 L 181.678 206.013 L 181.678 202.535 L 177.827 202.535 L 177.827 206.013 L 176.806 206.013 L 176.806 198.483 " fill="#000000"/>
<path class="atom-45" d="M 158.097 194.171 L 159.118 194.171 L 159.118 197.372 L 162.968 197.372 L 162.968 194.171 L 163.989 194.171 L 163.989 201.701 L 162.968 201.701 L 162.968 198.223 L 159.118 198.223 L 159.118 201.701 L 158.097 201.701 L 158.097 194.171 " fill="#000000"/>
<path class="atom-46" d="M 201.771 175.383 L 202.792 175.383 L 202.792 178.585 L 206.642 178.585 L 206.642 175.383 L 207.663 175.383 L 207.663 182.914 L 206.642 182.914 L 206.642 179.436 L 202.792 179.436 L 202.792 182.914 L 201.771 182.914 L 201.771 175.383 " fill="#000000"/>
<path class="atom-47" d="M 189.922 192.908 L 190.943 192.908 L 190.943 196.109 L 194.793 196.109 L 194.793 192.908 L 195.814 192.908 L 195.814 200.438 L 194.793 200.438 L 194.793 196.96 L 190.943 196.96 L 190.943 200.438 L 189.922 200.438 L 189.922 192.908 " fill="#000000"/>
<path class="atom-48" d="M 226.07 159.848 L 227.091 159.848 L 227.091 163.049 L 230.941 163.049 L 230.941 159.848 L 231.962 159.848 L 231.962 167.378 L 230.941 167.378 L 230.941 163.9 L 227.091 163.9 L 227.091 167.378 L 226.07 167.378 L 226.07 159.848 " fill="#000000"/>
<path class="atom-49" d="M 236.692 145.511 L 237.713 145.511 L 237.713 148.713 L 241.563 148.713 L 241.563 145.511 L 242.584 145.511 L 242.584 153.042 L 241.563 153.042 L 241.563 149.564 L 237.713 149.564 L 237.713 153.042 L 236.692 153.042 L 236.692 145.511 " fill="#000000"/>
<path class="atom-50" d="M 251.127 131.737 L 252.148 131.737 L 252.148 134.939 L 255.998 134.939 L 255.998 131.737 L 257.019 131.737 L 257.019 139.268 L 255.998 139.268 L 255.998 135.79 L 252.148 135.79 L 252.148 139.268 L 251.127 139.268 L 251.127 131.737 " fill="#000000"/>
<path class="atom-51" d="M 256.589 96.7378 L 257.61 96.7378 L 257.61 99.9392 L 261.46 99.9392 L 261.46 96.7378 L 262.481 96.7378 L 262.481 104.268 L 261.46 104.268 L 261.46 100.79 L 257.61 100.79 L 257.61 104.268 L 256.589 104.268 L 256.589 96.7378 " fill="#000000"/>
<path class="atom-52" d="M 228.85 74.3845 L 229.871 74.3845 L 229.871 77.5859 L 233.721 77.5859 L 233.721 74.3845 L 234.742 74.3845 L 234.742 81.9147 L 233.721 81.9147 L 233.721 78.4368 L 229.871 78.4368 L 229.871 81.9147 L 228.85 81.9147 L 228.85 74.3845 " fill="#000000"/>
<path class="atom-53" d="M 195.708 87.1114 L 196.729 87.1114 L 196.729 90.3127 L 200.579 90.3127 L 200.579 87.1114 L 201.6 87.1114 L 201.6 94.6415 L 200.579 94.6415 L 200.579 91.1636 L 196.729 91.1636 L 196.729 94.6415 L 195.708 94.6415 L 195.708 87.1114 " fill="#000000"/>
<path class="atom-54" d="M 189.695 121.361 L 190.716 121.361 L 190.716 124.562 L 194.566 124.562 L 194.566 121.361 L 195.587 121.361 L 195.587 128.891 L 194.566 128.891 L 194.566 125.413 L 190.716 125.413 L 190.716 128.891 L 189.695 128.891 L 189.695 121.361 " fill="#000000"/>
<path class="atom-55" d="M 162.968 130.026 L 163.989 130.026 L 163.989 133.228 L 167.839 133.228 L 167.839 130.026 L 168.86 130.026 L 168.86 137.556 L 167.839 137.556 L 167.839 134.078 L 163.989 134.078 L 163.989 137.556 L 162.968 137.556 L 162.968 130.026 " fill="#000000"/>
<path class="atom-56" d="M 184.157 134.404 L 185.178 134.404 L 185.178 137.605 L 189.028 137.605 L 189.028 134.404 L 190.049 134.404 L 190.049 141.934 L 189.028 141.934 L 189.028 138.456 L 185.178 138.456 L 185.178 141.934 L 184.157 141.934 L 184.157 134.404 " fill="#000000"/>
<path class="atom-57" d="M 137.81 153.037 L 138.831 153.037 L 138.831 156.238 L 142.681 156.238 L 142.681 153.037 L 143.702 153.037 L 143.702 160.567 L 142.681 160.567 L 142.681 157.089 L 138.831 157.089 L 138.831 160.567 L 137.81 160.567 L 137.81 153.037 " fill="#000000"/>
<path class="atom-58" d="M 149.877 135.734 L 150.898 135.734 L 150.898 138.935 L 154.748 138.935 L 154.748 135.734 L 155.769 135.734 L 155.769 143.264 L 154.748 143.264 L 154.748 139.786 L 150.898 139.786 L 150.898 143.264 L 149.877 143.264 L 149.877 135.734 " fill="#000000"/>
<path class="atom-59" d="M 124.323 157.745 L 125.344 157.745 L 125.344 160.947 L 129.194 160.947 L 129.194 157.745 L 130.215 157.745 L 130.215 165.276 L 129.194 165.276 L 129.194 161.798 L 125.344 161.798 L 125.344 165.276 L 124.323 165.276 L 124.323 157.745 " fill="#000000"/>
<ellipse cx="420.647" cy="82.488" rx="5.8497" ry="5.8497" style="fill:#CFAA27;fill-rule:evenodd;stroke:#CFAA27;stroke-width:1px;stroke-linecap:butt;stroke-linejoin:miter;stroke-opacity:1"/>
<ellipse cx="404.594" cy="89.9468" rx="5.8497" ry="5.8497" style="fill:#B8A444;fill-rule:evenodd;stroke:#B8A444;stroke-width:1px;stroke-linecap:butt;stroke-linejoin:miter;stroke-opacity:1"/>
<ellipse cx="391.522" cy="79.8702" rx="6.95826" ry="5.8497" style="fill:#A19F62;fill-rule:evenodd;stroke:#A19F62;stroke-width:1px;stroke-linecap:butt;stroke-linejoin:miter;stroke-opacity:1"/>
<ellipse cx="403.085" cy="107.591" rx="5.8497" ry="5.8497" style="fill:#7C947A;fill-rule:evenodd;stroke:#7C947A;stroke-width:1px;stroke-linecap:butt;stroke-linejoin:miter;stroke-opacity:1"/>
<ellipse cx="387.041" cy="115.186" rx="5.8497" ry="5.8497" style="fill:#588A93;fill-rule:evenodd;stroke:#588A93;stroke-width:1px;stroke-linecap:butt;stroke-linejoin:miter;stroke-opacity:1"/>
<ellipse cx="385.774" cy="132.632" rx="5.8497" ry="5.8497" style="fill:#3D79AB;fill-rule:evenodd;stroke:#3D79AB;stroke-width:1px;stroke-linecap:butt;stroke-linejoin:miter;stroke-opacity:1"/>
<ellipse cx="399.104" cy="144.313" rx="5.8497" ry="5.8497" style="fill:#2269C4;fill-rule:evenodd;stroke:#2269C4;stroke-width:1px;stroke-linecap:butt;stroke-linejoin:miter;stroke-opacity:1"/>
<ellipse cx="417.457" cy="140.161" rx="8.86318" ry="8.86318" style="fill:#C21F30;fill-rule:evenodd;stroke:#C21F30;stroke-width:1px;stroke-linecap:butt;stroke-linejoin:miter;stroke-opacity:1"/>
<ellipse cx="392.557" cy="160.895" rx="5.8497" ry="5.8497" style="fill:#3E3EF0;fill-rule:evenodd;stroke:#3E3EF0;stroke-width:1px;stroke-linecap:butt;stroke-linejoin:miter;stroke-opacity:1"/>
<ellipse cx="401.807" cy="176.046" rx="5.8497" ry="5.8497" style="fill:#5446F4;fill-rule:evenodd;stroke:#5446F4;stroke-width:1px;stroke-linecap:butt;stroke-linejoin:miter;stroke-opacity:1"/>
<ellipse cx="392.961" cy="191.054" rx="5.8497" ry="5.8497" style="fill:#6B4EF9;fill-rule:evenodd;stroke:#6B4EF9;stroke-width:1px;stroke-linecap:butt;stroke-linejoin:miter;stroke-opacity:1"/>
<ellipse cx="402.131" cy="206.329" rx="5.8497" ry="5.8497" style="fill:#805CF9;fill-rule:evenodd;stroke:#805CF9;stroke-width:1px;stroke-linecap:butt;stroke-linejoin:miter;stroke-opacity:1"/>
<ellipse cx="419.464" cy="206.586" rx="5.8497" ry="5.8497" style="fill:#CFAA27;fill-rule:evenodd;stroke:#CFAA27;stroke-width:1px;stroke-linecap:butt;stroke-linejoin:miter;stroke-opacity:1"/>
<ellipse cx="427.869" cy="191.336" rx="5.8497" ry="5.8497" style="fill:#B8A444;fill-rule:evenodd;stroke:#B8A444;stroke-width:1px;stroke-linecap:butt;stroke-linejoin:miter;stroke-opacity:1"/>
<ellipse cx="443.982" cy="192.395" rx="5.8497" ry="5.8497" style="fill:#A19F62;fill-rule:evenodd;stroke:#A19F62;stroke-width:1px;stroke-linecap:butt;stroke-linejoin:miter;stroke-opacity:1"/>
<ellipse cx="455.051" cy="175.788" rx="5.8497" ry="5.8497" style="fill:#7C947A;fill-rule:evenodd;stroke:#7C947A;stroke-width:1px;stroke-linecap:butt;stroke-linejoin:miter;stroke-opacity:1"/>
<ellipse cx="470.392" cy="187.642" rx="5.8497" ry="5.8497" style="fill:#588A93;fill-rule:evenodd;stroke:#588A93;stroke-width:1px;stroke-linecap:butt;stroke-linejoin:miter;stroke-opacity:1"/>
<ellipse cx="487.746" cy="179.796" rx="5.8497" ry="5.8497" style="fill:#3D79AB;fill-rule:evenodd;stroke:#3D79AB;stroke-width:1px;stroke-linecap:butt;stroke-linejoin:miter;stroke-opacity:1"/>
<ellipse cx="490.311" cy="160.592" rx="5.8497" ry="5.8497" style="fill:#2269C4;fill-rule:evenodd;stroke:#2269C4;stroke-width:1px;stroke-linecap:butt;stroke-linejoin:miter;stroke-opacity:1"/>
<ellipse cx="507.281" cy="153.635" rx="5.8497" ry="5.8497" style="fill:#3053DA;fill-rule:evenodd;stroke:#3053DA;stroke-width:1px;stroke-linecap:butt;stroke-linejoin:miter;stroke-opacity:1"/>
<ellipse cx="501.438" cy="137.837" rx="5.8497" ry="5.8497" style="fill:#3E3EF0;fill-rule:evenodd;stroke:#3E3EF0;stroke-width:1px;stroke-linecap:butt;stroke-linejoin:miter;stroke-opacity:1"/>
<ellipse cx="514.422" cy="168.843" rx="5.8497" ry="5.8497" style="fill:#5446F4;fill-rule:evenodd;stroke:#5446F4;stroke-width:1px;stroke-linecap:butt;stroke-linejoin:miter;stroke-opacity:1"/>
<ellipse cx="522.021" cy="147.328" rx="5.8497" ry="5.8497" style="fill:#6B4EF9;fill-rule:evenodd;stroke:#6B4EF9;stroke-width:1px;stroke-linecap:butt;stroke-linejoin:miter;stroke-opacity:1"/>
<ellipse cx="523.752" cy="130.586" rx="5.8497" ry="5.8497" style="fill:#805CF9;fill-rule:evenodd;stroke:#805CF9;stroke-width:1px;stroke-linecap:butt;stroke-linejoin:miter;stroke-opacity:1"/>
<ellipse cx="540.414" cy="124.488" rx="5.8497" ry="5.8497" style="fill:#CFAA27;fill-rule:evenodd;stroke:#CFAA27;stroke-width:1px;stroke-linecap:butt;stroke-linejoin:miter;stroke-opacity:1"/>
<ellipse cx="542.835" cy="106.963" rx="5.8497" ry="5.8497" style="fill:#B8A444;fill-rule:evenodd;stroke:#B8A444;stroke-width:1px;stroke-linecap:butt;stroke-linejoin:miter;stroke-opacity:1"/>
<ellipse cx="529.07" cy="95.483" rx="5.8497" ry="5.8497" style="fill:#A19F62;fill-rule:evenodd;stroke:#A19F62;stroke-width:1px;stroke-linecap:butt;stroke-linejoin:miter;stroke-opacity:1"/>
<ellipse cx="512.58" cy="102.133" rx="5.8497" ry="5.8497" style="fill:#7C947A;fill-rule:evenodd;stroke:#7C947A;stroke-width:1px;stroke-linecap:butt;stroke-linejoin:miter;stroke-opacity:1"/>
<ellipse cx="509.554" cy="119.524" rx="5.8497" ry="5.8497" style="fill:#588A93;fill-rule:evenodd;stroke:#588A93;stroke-width:1px;stroke-linecap:butt;stroke-linejoin:miter;stroke-opacity:1"/>
<ellipse cx="474.623" cy="149.227" rx="5.8497" ry="5.8497" style="fill:#3D79AB;fill-rule:evenodd;stroke:#3D79AB;stroke-width:1px;stroke-linecap:butt;stroke-linejoin:miter;stroke-opacity:1"/>
<ellipse cx="456.986" cy="156.431" rx="5.8497" ry="5.8497" style="fill:#2269C4;fill-rule:evenodd;stroke:#2269C4;stroke-width:1px;stroke-linecap:butt;stroke-linejoin:miter;stroke-opacity:1"/>
<ellipse cx="419.138" cy="175.765" rx="5.8497" ry="5.8497" style="fill:#3053DA;fill-rule:evenodd;stroke:#3053DA;stroke-width:1px;stroke-linecap:butt;stroke-linejoin:miter;stroke-opacity:1"/>
<ellipse cx="374.796" cy="159.378" rx="5.8497" ry="5.8497" style="fill:#3E3EF0;fill-rule:evenodd;stroke:#3E3EF0;stroke-width:1px;stroke-linecap:butt;stroke-linejoin:miter;stroke-opacity:1"/>
<ellipse cx="370.374" cy="142.111" rx="5.8497" ry="5.8497" style="fill:#5446F4;fill-rule:evenodd;stroke:#5446F4;stroke-width:1px;stroke-linecap:butt;stroke-linejoin:miter;stroke-opacity:1"/>
<ellipse cx="354.166" cy="135.287" rx="5.8497" ry="5.8497" style="fill:#6B4EF9;fill-rule:evenodd;stroke:#6B4EF9;stroke-width:1px;stroke-linecap:butt;stroke-linejoin:miter;stroke-opacity:1"/>
<ellipse cx="351.828" cy="117.781" rx="5.8497" ry="5.8497" style="fill:#805CF9;fill-rule:evenodd;stroke:#805CF9;stroke-width:1px;stroke-linecap:butt;stroke-linejoin:miter;stroke-opacity:1"/>
<ellipse cx="341.574" cy="146.16" rx="6.95826" ry="5.8497" style="fill:#CFAA27;fill-rule:evenodd;stroke:#CFAA27;stroke-width:1px;stroke-linecap:butt;stroke-linejoin:miter;stroke-opacity:1"/>
<ellipse cx="410.617" cy="123.643" rx="5.8497" ry="5.8497" style="fill:#B8A444;fill-rule:evenodd;stroke:#B8A444;stroke-width:1px;stroke-linecap:butt;stroke-linejoin:miter;stroke-opacity:1"/>
<ellipse cx="420.749" cy="109.102" rx="5.8497" ry="5.8497" style="fill:#A19F62;fill-rule:evenodd;stroke:#A19F62;stroke-width:1px;stroke-linecap:butt;stroke-linejoin:miter;stroke-opacity:1"/>
<ellipse cx="375.415" cy="191.133" rx="5.8497" ry="5.8497" style="fill:#7C947A;fill-rule:evenodd;stroke:#7C947A;stroke-width:1px;stroke-linecap:butt;stroke-linejoin:miter;stroke-opacity:1"/>
<ellipse cx="393.203" cy="221.85" rx="5.8497" ry="5.8497" style="fill:#588A93;fill-rule:evenodd;stroke:#588A93;stroke-width:1px;stroke-linecap:butt;stroke-linejoin:miter;stroke-opacity:1"/>
<ellipse cx="428.28" cy="221.757" rx="5.8497" ry="5.8497" style="fill:#3D79AB;fill-rule:evenodd;stroke:#3D79AB;stroke-width:1px;stroke-linecap:butt;stroke-linejoin:miter;stroke-opacity:1"/>
<ellipse cx="438.293" cy="170.759" rx="5.8497" ry="5.8497" style="fill:#2269C4;fill-rule:evenodd;stroke:#2269C4;stroke-width:1px;stroke-linecap:butt;stroke-linejoin:miter;stroke-opacity:1"/>
<ellipse cx="479.752" cy="202.248" rx="5.8497" ry="5.8497" style="fill:#3053DA;fill-rule:evenodd;stroke:#3053DA;stroke-width:1px;stroke-linecap:butt;stroke-linejoin:miter;stroke-opacity:1"/>
<ellipse cx="461.043" cy="197.936" rx="5.8497" ry="5.8497" style="fill:#3E3EF0;fill-rule:evenodd;stroke:#3E3EF0;stroke-width:1px;stroke-linecap:butt;stroke-linejoin:miter;stroke-opacity:1"/>
<ellipse cx="504.717" cy="179.148" rx="5.8497" ry="5.8497" style="fill:#5446F4;fill-rule:evenodd;stroke:#5446F4;stroke-width:1px;stroke-linecap:butt;stroke-linejoin:miter;stroke-opacity:1"/>
<ellipse cx="492.868" cy="196.673" rx="5.8497" ry="5.8497" style="fill:#6B4EF9;fill-rule:evenodd;stroke:#6B4EF9;stroke-width:1px;stroke-linecap:butt;stroke-linejoin:miter;stroke-opacity:1"/>
<ellipse cx="529.016" cy="163.613" rx="5.8497" ry="5.8497" style="fill:#805CF9;fill-rule:evenodd;stroke:#805CF9;stroke-width:1px;stroke-linecap:butt;stroke-linejoin:miter;stroke-opacity:1"/>
<ellipse cx="539.638" cy="149.276" rx="5.8497" ry="5.8497" style="fill:#CFAA27;fill-rule:evenodd;stroke:#CFAA27;stroke-width:1px;stroke-linecap:butt;stroke-linejoin:miter;stroke-opacity:1"/>
<ellipse cx="554.073" cy="135.502" rx="5.8497" ry="5.8497" style="fill:#B8A444;fill-rule:evenodd;stroke:#B8A444;stroke-width:1px;stroke-linecap:butt;stroke-linejoin:miter;stroke-opacity:1"/>
<ellipse cx="559.535" cy="100.503" rx="5.8497" ry="5.8497" style="fill:#A19F62;fill-rule:evenodd;stroke:#A19F62;stroke-width:1px;stroke-linecap:butt;stroke-linejoin:miter;stroke-opacity:1"/>
<ellipse cx="531.796" cy="78.1496" rx="5.8497" ry="5.8497" style="fill:#7C947A;fill-rule:evenodd;stroke:#7C947A;stroke-width:1px;stroke-linecap:butt;stroke-linejoin:miter;stroke-opacity:1"/>
<ellipse cx="498.654" cy="90.8764" rx="5.8497" ry="5.8497" style="fill:#588A93;fill-rule:evenodd;stroke:#588A93;stroke-width:1px;stroke-linecap:butt;stroke-linejoin:miter;stroke-opacity:1"/>
<ellipse cx="492.641" cy="125.126" rx="5.8497" ry="5.8497" style="fill:#3D79AB;fill-rule:evenodd;stroke:#3D79AB;stroke-width:1px;stroke-linecap:butt;stroke-linejoin:miter;stroke-opacity:1"/>
<ellipse cx="465.914" cy="133.791" rx="5.8497" ry="5.8497" style="fill:#2269C4;fill-rule:evenodd;stroke:#2269C4;stroke-width:1px;stroke-linecap:butt;stroke-linejoin:miter;stroke-opacity:1"/>
<ellipse cx="487.103" cy="138.169" rx="5.8497" ry="5.8497" style="fill:#3053DA;fill-rule:evenodd;stroke:#3053DA;stroke-width:1px;stroke-linecap:butt;stroke-linejoin:miter;stroke-opacity:1"/>
<ellipse cx="440.756" cy="156.802" rx="5.8497" ry="5.8497" style="fill:#3E3EF0;fill-rule:evenodd;stroke:#3E3EF0;stroke-width:1px;stroke-linecap:butt;stroke-linejoin:miter;stroke-opacity:1"/>
<ellipse cx="452.823" cy="139.499" rx="5.8497" ry="5.8497" style="fill:#5446F4;fill-rule:evenodd;stroke:#5446F4;stroke-width:1px;stroke-linecap:butt;stroke-linejoin:miter;stroke-opacity:1"/>
<ellipse cx="427.269" cy="161.511" rx="5.8497" ry="5.8497" style="fill:#6B4EF9;fill-rule:evenodd;stroke:#6B4EF9;stroke-width:1px;stroke-linecap:butt;stroke-linejoin:miter;stroke-opacity:1"/>
<path class="bond-0" d="M 416.07,82.811 L 409.994,85.6565" style="fill:none;fill-rule:evenodd;stroke:#FF0000;stroke-width:2.0px;stroke-linecap:butt;stroke-linejoin:miter;stroke-opacity:1"/>
<path class="bond-0" d="M 409.994,85.6565 L 403.917,88.502" style="fill:none;fill-rule:evenodd;stroke:#000000;stroke-width:2.0px;stroke-linecap:butt;stroke-linejoin:miter;stroke-opacity:1"/>
<path class="bond-0" d="M 417.423,85.7006 L 411.347,88.5461" style="fill:none;fill-rule:evenodd;stroke:#FF0000;stroke-width:2.0px;stroke-linecap:butt;stroke-linejoin:miter;stroke-opacity:1"/>
<path class="bond-0" d="M 411.347,88.5461 L 405.271,91.3916" style="fill:none;fill-rule:evenodd;stroke:#000000;stroke-width:2.0px;stroke-linecap:butt;stroke-linejoin:miter;stroke-opacity:1"/>
<path class="bond-1" d="M 404.594,89.9468 L 399.276,86.2387" style="fill:none;fill-rule:evenodd;stroke:#000000;stroke-width:2.0px;stroke-linecap:butt;stroke-linejoin:miter;stroke-opacity:1"/>
<path class="bond-1" d="M 399.276,86.2387 L 393.958,82.5307" style="fill:none;fill-rule:evenodd;stroke:#FF0000;stroke-width:2.0px;stroke-linecap:butt;stroke-linejoin:miter;stroke-opacity:1"/>
<path class="bond-2" d="M 404.594,89.9468 L 403.085,107.591" style="fill:none;fill-rule:evenodd;stroke:#000000;stroke-width:2.0px;stroke-linecap:butt;stroke-linejoin:miter;stroke-opacity:1"/>
<path class="bond-3" d="M 403.085,107.591 L 397.013,110.443" style="fill:none;fill-rule:evenodd;stroke:#000000;stroke-width:2.0px;stroke-linecap:butt;stroke-linejoin:miter;stroke-opacity:1"/>
<path class="bond-3" d="M 397.013,110.443 L 390.94,113.296" style="fill:none;fill-rule:evenodd;stroke:#FF0000;stroke-width:2.0px;stroke-linecap:butt;stroke-linejoin:miter;stroke-opacity:1"/>
<path class="bond-4" d="M 403.085,107.591 L 408.642,119.434" style="fill:none;fill-rule:evenodd;stroke:#000000;stroke-width:2.0px;stroke-linecap:butt;stroke-linejoin:miter;stroke-opacity:1"/>
<path class="bond-5" d="M 403.085,107.591 L 417.36,108.812" style="fill:none;fill-rule:evenodd;stroke:#000000;stroke-width:2.0px;stroke-linecap:butt;stroke-linejoin:miter;stroke-opacity:1"/>
<path class="bond-6" d="M 386.725,119.491 L 386.249,126.062" style="fill:none;fill-rule:evenodd;stroke:#FF0000;stroke-width:2.0px;stroke-linecap:butt;stroke-linejoin:miter;stroke-opacity:1"/>
<path class="bond-6" d="M 386.249,126.062 L 385.774,132.632" style="fill:none;fill-rule:evenodd;stroke:#000000;stroke-width:2.0px;stroke-linecap:butt;stroke-linejoin:miter;stroke-opacity:1"/>
<path class="bond-7" d="M 385.774,132.632 L 399.104,144.313" style="fill:none;fill-rule:evenodd;stroke:#000000;stroke-width:2.0px;stroke-linecap:butt;stroke-linejoin:miter;stroke-opacity:1"/>
<path class="bond-8" d="M 385.774,132.632 L 370.374,142.111" style="fill:none;fill-rule:evenodd;stroke:#000000;stroke-width:2.0px;stroke-linecap:butt;stroke-linejoin:miter;stroke-opacity:1"/>
<path class="bond-8" d="M 385.136,136.771 L 374.357,143.406" style="fill:none;fill-rule:evenodd;stroke:#000000;stroke-width:2.0px;stroke-linecap:butt;stroke-linejoin:miter;stroke-opacity:1"/>
<path class="bond-9" d="M 399.104,144.313 L 406.132,142.617" style="fill:none;fill-rule:evenodd;stroke:#000000;stroke-width:2.0px;stroke-linecap:butt;stroke-linejoin:miter;stroke-opacity:1"/>
<path class="bond-9" d="M 406.132,142.617 L 413.159,140.922" style="fill:none;fill-rule:evenodd;stroke:#00CC00;stroke-width:2.0px;stroke-linecap:butt;stroke-linejoin:miter;stroke-opacity:1"/>
<path class="bond-10" d="M 399.104,144.313 L 392.557,160.895" style="fill:none;fill-rule:evenodd;stroke:#000000;stroke-width:2.0px;stroke-linecap:butt;stroke-linejoin:miter;stroke-opacity:1"/>
<path class="bond-10" d="M 395.154,145.628 L 390.571,157.236" style="fill:none;fill-rule:evenodd;stroke:#000000;stroke-width:2.0px;stroke-linecap:butt;stroke-linejoin:miter;stroke-opacity:1"/>
<path class="bond-11" d="M 392.557,160.895 L 401.807,176.046" style="fill:none;fill-rule:evenodd;stroke:#000000;stroke-width:2.0px;stroke-linecap:butt;stroke-linejoin:miter;stroke-opacity:1"/>
<path class="bond-12" d="M 392.557,160.895 L 385.107,160.216" style="fill:none;fill-rule:evenodd;stroke:#000000;stroke-width:2.0px;stroke-linecap:butt;stroke-linejoin:miter;stroke-opacity:1"/>
<path class="bond-12" d="M 385.107,160.216 L 377.657,159.537" style="fill:none;fill-rule:evenodd;stroke:#CCCC00;stroke-width:2.0px;stroke-linecap:butt;stroke-linejoin:miter;stroke-opacity:1"/>
<path class="bond-13" d="M 401.807,176.046 L 392.961,191.054" style="fill:none;fill-rule:evenodd;stroke:#000000;stroke-width:2.0px;stroke-linecap:butt;stroke-linejoin:miter;stroke-opacity:1"/>
<path class="bond-13" d="M 403.229,179.917 L 397.037,190.423" style="fill:none;fill-rule:evenodd;stroke:#000000;stroke-width:2.0px;stroke-linecap:butt;stroke-linejoin:miter;stroke-opacity:1"/>
<path class="bond-14" d="M 401.807,176.046 L 419.138,175.765" style="fill:none;fill-rule:evenodd;stroke:#000000;stroke-width:2.0px;stroke-linecap:butt;stroke-linejoin:miter;stroke-opacity:1"/>
<path class="bond-15" d="M 392.961,191.054 L 402.131,206.329" style="fill:none;fill-rule:evenodd;stroke:#000000;stroke-width:2.0px;stroke-linecap:butt;stroke-linejoin:miter;stroke-opacity:1"/>
<path class="bond-16" d="M 392.961,191.054 L 378.8,191.117" style="fill:none;fill-rule:evenodd;stroke:#000000;stroke-width:2.0px;stroke-linecap:butt;stroke-linejoin:miter;stroke-opacity:1"/>
<path class="bond-17" d="M 402.131,206.329 L 419.464,206.586" style="fill:none;fill-rule:evenodd;stroke:#000000;stroke-width:2.0px;stroke-linecap:butt;stroke-linejoin:miter;stroke-opacity:1"/>
<path class="bond-17" d="M 404.779,203.177 L 416.911,203.357" style="fill:none;fill-rule:evenodd;stroke:#000000;stroke-width:2.0px;stroke-linecap:butt;stroke-linejoin:miter;stroke-opacity:1"/>
<path class="bond-18" d="M 402.131,206.329 L 395.626,217.638" style="fill:none;fill-rule:evenodd;stroke:#000000;stroke-width:2.0px;stroke-linecap:butt;stroke-linejoin:miter;stroke-opacity:1"/>
<path class="bond-19" d="M 419.464,206.586 L 427.869,191.336" style="fill:none;fill-rule:evenodd;stroke:#000000;stroke-width:2.0px;stroke-linecap:butt;stroke-linejoin:miter;stroke-opacity:1"/>
<path class="bond-20" d="M 419.464,206.586 L 425.837,217.553" style="fill:none;fill-rule:evenodd;stroke:#000000;stroke-width:2.0px;stroke-linecap:butt;stroke-linejoin:miter;stroke-opacity:1"/>
<path class="bond-21" d="M 427.869,191.336 L 434.296,191.759" style="fill:none;fill-rule:evenodd;stroke:#000000;stroke-width:2.0px;stroke-linecap:butt;stroke-linejoin:miter;stroke-opacity:1"/>
<path class="bond-21" d="M 434.296,191.759 L 440.723,192.181" style="fill:none;fill-rule:evenodd;stroke:#0000FF;stroke-width:2.0px;stroke-linecap:butt;stroke-linejoin:miter;stroke-opacity:1"/>
<path class="bond-22" d="M 427.869,191.336 L 419.138,175.765" style="fill:none;fill-rule:evenodd;stroke:#000000;stroke-width:2.0px;stroke-linecap:butt;stroke-linejoin:miter;stroke-opacity:1"/>
<path class="bond-22" d="M 423.776,190.561 L 417.665,179.661" style="fill:none;fill-rule:evenodd;stroke:#000000;stroke-width:2.0px;stroke-linecap:butt;stroke-linejoin:miter;stroke-opacity:1"/>
<path class="bond-23" d="M 446.824,188.131 L 450.938,181.96" style="fill:none;fill-rule:evenodd;stroke:#0000FF;stroke-width:2.0px;stroke-linecap:butt;stroke-linejoin:miter;stroke-opacity:1"/>
<path class="bond-23" d="M 450.938,181.96 L 455.051,175.788" style="fill:none;fill-rule:evenodd;stroke:#000000;stroke-width:2.0px;stroke-linecap:butt;stroke-linejoin:miter;stroke-opacity:1"/>
<path class="bond-24" d="M 445.542,196.603 L 447.082,200.761" style="fill:none;fill-rule:evenodd;stroke:#0000FF;stroke-width:2.0px;stroke-linecap:butt;stroke-linejoin:miter;stroke-opacity:1"/>
<path class="bond-24" d="M 447.082,200.761 L 448.623,204.918" style="fill:none;fill-rule:evenodd;stroke:#000000;stroke-width:2.0px;stroke-linecap:butt;stroke-linejoin:miter;stroke-opacity:1"/>
<path class="bond-25" d="M 455.051,175.788 L 470.392,187.642" style="fill:none;fill-rule:evenodd;stroke:#000000;stroke-width:2.0px;stroke-linecap:butt;stroke-linejoin:miter;stroke-opacity:1"/>
<path class="bond-26" d="M 455.051,175.788 L 456.986,156.431" style="fill:none;fill-rule:evenodd;stroke:#000000;stroke-width:2.0px;stroke-linecap:butt;stroke-linejoin:miter;stroke-opacity:1"/>
<path class="bond-27" d="M 455.051,175.788 L 441.677,171.774" style="fill:none;fill-rule:evenodd;stroke:#000000;stroke-width:2.0px;stroke-linecap:butt;stroke-linejoin:miter;stroke-opacity:1"/>
<path class="bond-28" d="M 470.392,187.642 L 487.746,179.796" style="fill:none;fill-rule:evenodd;stroke:#000000;stroke-width:2.0px;stroke-linecap:butt;stroke-linejoin:miter;stroke-opacity:1"/>
<path class="bond-29" d="M 470.392,187.642 L 477.062,198.049" style="fill:none;fill-rule:evenodd;stroke:#000000;stroke-width:2.0px;stroke-linecap:butt;stroke-linejoin:miter;stroke-opacity:1"/>
<path class="bond-30" d="M 470.392,187.642 L 464.337,194.309" style="fill:none;fill-rule:evenodd;stroke:#000000;stroke-width:2.0px;stroke-linecap:butt;stroke-linejoin:miter;stroke-opacity:1"/>
<path class="bond-31" d="M 487.746,179.796 L 488.745,172.319" style="fill:none;fill-rule:evenodd;stroke:#000000;stroke-width:2.0px;stroke-linecap:butt;stroke-linejoin:miter;stroke-opacity:1"/>
<path class="bond-31" d="M 488.745,172.319 L 489.744,164.842" style="fill:none;fill-rule:evenodd;stroke:#0000FF;stroke-width:2.0px;stroke-linecap:butt;stroke-linejoin:miter;stroke-opacity:1"/>
<path class="bond-32" d="M 487.746,179.796 L 501.346,179.277" style="fill:none;fill-rule:evenodd;stroke:#000000;stroke-width:2.0px;stroke-linecap:butt;stroke-linejoin:miter;stroke-opacity:1"/>
<path class="bond-33" d="M 487.746,179.796 L 491.591,192.467" style="fill:none;fill-rule:evenodd;stroke:#000000;stroke-width:2.0px;stroke-linecap:butt;stroke-linejoin:miter;stroke-opacity:1"/>
<path class="bond-34" d="M 493.626,159.213 L 499.062,156.953" style="fill:none;fill-rule:evenodd;stroke:#0000FF;stroke-width:2.0px;stroke-linecap:butt;stroke-linejoin:miter;stroke-opacity:1"/>
<path class="bond-34" d="M 499.062,156.953 L 504.497,154.692" style="fill:none;fill-rule:evenodd;stroke:#CCCC00;stroke-width:2.0px;stroke-linecap:butt;stroke-linejoin:miter;stroke-opacity:1"/>
<path class="bond-35" d="M 486.971,158.173 L 480.797,153.7" style="fill:none;fill-rule:evenodd;stroke:#0000FF;stroke-width:2.0px;stroke-linecap:butt;stroke-linejoin:miter;stroke-opacity:1"/>
<path class="bond-35" d="M 480.797,153.7 L 474.623,149.227" style="fill:none;fill-rule:evenodd;stroke:#000000;stroke-width:2.0px;stroke-linecap:butt;stroke-linejoin:miter;stroke-opacity:1"/>
<path class="bond-36" d="M 507.229,148.805 L 505.866,145.131" style="fill:none;fill-rule:evenodd;stroke:#CCCC00;stroke-width:2.0px;stroke-linecap:butt;stroke-linejoin:miter;stroke-opacity:1"/>
<path class="bond-36" d="M 505.866,145.131 L 504.504,141.457" style="fill:none;fill-rule:evenodd;stroke:#FF0000;stroke-width:2.0px;stroke-linecap:butt;stroke-linejoin:miter;stroke-opacity:1"/>
<path class="bond-36" d="M 504.237,149.914 L 502.874,146.24" style="fill:none;fill-rule:evenodd;stroke:#CCCC00;stroke-width:2.0px;stroke-linecap:butt;stroke-linejoin:miter;stroke-opacity:1"/>
<path class="bond-36" d="M 502.874,146.24 L 501.512,142.566" style="fill:none;fill-rule:evenodd;stroke:#FF0000;stroke-width:2.0px;stroke-linecap:butt;stroke-linejoin:miter;stroke-opacity:1"/>
<path class="bond-37" d="M 507.886,158.588 L 509.469,161.971" style="fill:none;fill-rule:evenodd;stroke:#CCCC00;stroke-width:2.0px;stroke-linecap:butt;stroke-linejoin:miter;stroke-opacity:1"/>
<path class="bond-37" d="M 509.469,161.971 L 511.053,165.353" style="fill:none;fill-rule:evenodd;stroke:#FF0000;stroke-width:2.0px;stroke-linecap:butt;stroke-linejoin:miter;stroke-opacity:1"/>
<path class="bond-37" d="M 510.775,157.235 L 512.359,160.618" style="fill:none;fill-rule:evenodd;stroke:#CCCC00;stroke-width:2.0px;stroke-linecap:butt;stroke-linejoin:miter;stroke-opacity:1"/>
<path class="bond-37" d="M 512.359,160.618 L 513.943,164" style="fill:none;fill-rule:evenodd;stroke:#FF0000;stroke-width:2.0px;stroke-linecap:butt;stroke-linejoin:miter;stroke-opacity:1"/>
<path class="bond-38" d="M 510.095,152.349 L 516.058,149.839" style="fill:none;fill-rule:evenodd;stroke:#CCCC00;stroke-width:2.0px;stroke-linecap:butt;stroke-linejoin:miter;stroke-opacity:1"/>
<path class="bond-38" d="M 516.058,149.839 L 522.021,147.328" style="fill:none;fill-rule:evenodd;stroke:#000000;stroke-width:2.0px;stroke-linecap:butt;stroke-linejoin:miter;stroke-opacity:1"/>
<path class="bond-39" d="M 522.021,147.328 L 523.752,130.586" style="fill:none;fill-rule:evenodd;stroke:#000000;stroke-width:2.0px;stroke-linecap:butt;stroke-linejoin:miter;stroke-opacity:1"/>
<path class="bond-40" d="M 522.021,147.328 L 527.209,159.405" style="fill:none;fill-rule:evenodd;stroke:#000000;stroke-width:2.0px;stroke-linecap:butt;stroke-linejoin:miter;stroke-opacity:1"/>
<path class="bond-41" d="M 522.021,147.328 L 536.249,148.902" style="fill:none;fill-rule:evenodd;stroke:#000000;stroke-width:2.0px;stroke-linecap:butt;stroke-linejoin:miter;stroke-opacity:1"/>
<path class="bond-42" d="M 523.752,130.586 L 540.414,124.488" style="fill:none;fill-rule:evenodd;stroke:#000000;stroke-width:2.0px;stroke-linecap:butt;stroke-linejoin:miter;stroke-opacity:1"/>
<path class="bond-42" d="M 525.155,126.675 L 536.818,122.407" style="fill:none;fill-rule:evenodd;stroke:#000000;stroke-width:2.0px;stroke-linecap:butt;stroke-linejoin:miter;stroke-opacity:1"/>
<path class="bond-43" d="M 523.752,130.586 L 509.554,119.524" style="fill:none;fill-rule:evenodd;stroke:#000000;stroke-width:2.0px;stroke-linecap:butt;stroke-linejoin:miter;stroke-opacity:1"/>
<path class="bond-44" d="M 540.414,124.488 L 542.835,106.963" style="fill:none;fill-rule:evenodd;stroke:#000000;stroke-width:2.0px;stroke-linecap:butt;stroke-linejoin:miter;stroke-opacity:1"/>
<path class="bond-45" d="M 540.414,124.488 L 550.688,132.773" style="fill:none;fill-rule:evenodd;stroke:#000000;stroke-width:2.0px;stroke-linecap:butt;stroke-linejoin:miter;stroke-opacity:1"/>
<path class="bond-46" d="M 542.835,106.963 L 529.07,95.483" style="fill:none;fill-rule:evenodd;stroke:#000000;stroke-width:2.0px;stroke-linecap:butt;stroke-linejoin:miter;stroke-opacity:1"/>
<path class="bond-46" d="M 538.726,107.692 L 529.091,99.6553" style="fill:none;fill-rule:evenodd;stroke:#000000;stroke-width:2.0px;stroke-linecap:butt;stroke-linejoin:miter;stroke-opacity:1"/>
<path class="bond-47" d="M 542.835,106.963 L 556.141,101.816" style="fill:none;fill-rule:evenodd;stroke:#000000;stroke-width:2.0px;stroke-linecap:butt;stroke-linejoin:miter;stroke-opacity:1"/>
<path class="bond-48" d="M 529.07,95.483 L 512.58,102.133" style="fill:none;fill-rule:evenodd;stroke:#000000;stroke-width:2.0px;stroke-linecap:butt;stroke-linejoin:miter;stroke-opacity:1"/>
<path class="bond-49" d="M 529.07,95.483 L 531.135,82.3533" style="fill:none;fill-rule:evenodd;stroke:#000000;stroke-width:2.0px;stroke-linecap:butt;stroke-linejoin:miter;stroke-opacity:1"/>
<path class="bond-50" d="M 512.58,102.133 L 509.554,119.524" style="fill:none;fill-rule:evenodd;stroke:#000000;stroke-width:2.0px;stroke-linecap:butt;stroke-linejoin:miter;stroke-opacity:1"/>
<path class="bond-50" d="M 515.269,105.289 L 513.151,117.462" style="fill:none;fill-rule:evenodd;stroke:#000000;stroke-width:2.0px;stroke-linecap:butt;stroke-linejoin:miter;stroke-opacity:1"/>
<path class="bond-51" d="M 512.58,102.133 L 502.048,93.6197" style="fill:none;fill-rule:evenodd;stroke:#000000;stroke-width:2.0px;stroke-linecap:butt;stroke-linejoin:miter;stroke-opacity:1"/>
<path class="bond-52" d="M 509.554,119.524 L 496.033,124.002" style="fill:none;fill-rule:evenodd;stroke:#000000;stroke-width:2.0px;stroke-linecap:butt;stroke-linejoin:miter;stroke-opacity:1"/>
<path class="bond-53" d="M 474.623,149.227 L 456.986,156.431" style="fill:none;fill-rule:evenodd;stroke:#000000;stroke-width:2.0px;stroke-linecap:butt;stroke-linejoin:miter;stroke-opacity:1"/>
<path class="bond-54" d="M 474.623,149.227 L 468.288,137.999" style="fill:none;fill-rule:evenodd;stroke:#000000;stroke-width:2.0px;stroke-linecap:butt;stroke-linejoin:miter;stroke-opacity:1"/>
<path class="bond-55" d="M 474.623,149.227 L 483.74,141.149" style="fill:none;fill-rule:evenodd;stroke:#000000;stroke-width:2.0px;stroke-linecap:butt;stroke-linejoin:miter;stroke-opacity:1"/>
<path class="bond-56" d="M 456.986,156.431 L 444.108,156.725" style="fill:none;fill-rule:evenodd;stroke:#000000;stroke-width:2.0px;stroke-linecap:butt;stroke-linejoin:miter;stroke-opacity:1"/>
<path class="bond-57" d="M 456.986,156.431 L 453.856,143.7" style="fill:none;fill-rule:evenodd;stroke:#000000;stroke-width:2.0px;stroke-linecap:butt;stroke-linejoin:miter;stroke-opacity:1"/>
<path class="bond-58" d="M 419.138,175.765 L 424.888,165.686" style="fill:none;fill-rule:evenodd;stroke:#000000;stroke-width:2.0px;stroke-linecap:butt;stroke-linejoin:miter;stroke-opacity:1"/>
<path class="bond-59" d="M 373.715,155.079 L 372.045,148.595" style="fill:none;fill-rule:evenodd;stroke:#CCCC00;stroke-width:2.0px;stroke-linecap:butt;stroke-linejoin:miter;stroke-opacity:1"/>
<path class="bond-59" d="M 372.045,148.595 L 370.374,142.111" style="fill:none;fill-rule:evenodd;stroke:#000000;stroke-width:2.0px;stroke-linecap:butt;stroke-linejoin:miter;stroke-opacity:1"/>
<path class="bond-60" d="M 370.374,142.111 L 354.166,135.287" style="fill:none;fill-rule:evenodd;stroke:#000000;stroke-width:2.0px;stroke-linecap:butt;stroke-linejoin:miter;stroke-opacity:1"/>
<path class="bond-61" d="M 355.748,135.076 L 354.869,128.478" style="fill:none;fill-rule:evenodd;stroke:#000000;stroke-width:2.0px;stroke-linecap:butt;stroke-linejoin:miter;stroke-opacity:1"/>
<path class="bond-61" d="M 354.869,128.478 L 353.991,121.88" style="fill:none;fill-rule:evenodd;stroke:#FF0000;stroke-width:2.0px;stroke-linecap:butt;stroke-linejoin:miter;stroke-opacity:1"/>
<path class="bond-61" d="M 352.585,135.497 L 351.706,128.899" style="fill:none;fill-rule:evenodd;stroke:#000000;stroke-width:2.0px;stroke-linecap:butt;stroke-linejoin:miter;stroke-opacity:1"/>
<path class="bond-61" d="M 351.706,128.899 L 350.828,122.301" style="fill:none;fill-rule:evenodd;stroke:#FF0000;stroke-width:2.0px;stroke-linecap:butt;stroke-linejoin:miter;stroke-opacity:1"/>
<path class="bond-62" d="M 354.166,135.287 L 349.102,139.183" style="fill:none;fill-rule:evenodd;stroke:#000000;stroke-width:2.0px;stroke-linecap:butt;stroke-linejoin:miter;stroke-opacity:1"/>
<path class="bond-62" d="M 349.102,139.183 L 344.038,143.079" style="fill:none;fill-rule:evenodd;stroke:#FF0000;stroke-width:2.0px;stroke-linecap:butt;stroke-linejoin:miter;stroke-opacity:1"/>
<path class="atom-0" d="M 417.19 82.4508 Q 417.19 80.6427, 418.083 79.6323 Q 418.977 78.6219, 420.647 78.6219 Q 422.316 78.6219, 423.21 79.6323 Q 424.103 80.6427, 424.103 82.4508 Q 424.103 84.2801, 423.199 85.3225 Q 422.295 86.3541, 420.647 86.3541 Q 418.987 86.3541, 418.083 85.3225 Q 417.19 84.2908, 417.19 82.4508 M 420.647 85.5033 Q 421.795 85.5033, 422.412 84.7375 Q 423.04 83.9611, 423.04 82.4508 Q 423.04 80.9724, 422.412 80.2279 Q 421.795 79.4728, 420.647 79.4728 Q 419.498 79.4728, 418.87 80.2173 Q 418.253 80.9618, 418.253 82.4508 Q 418.253 83.9717, 418.87 84.7375 Q 419.498 85.5033, 420.647 85.5033 " fill="#FF0000"/>
<path class="atom-2" d="M 386.601 79.833 Q 386.601 78.0249, 387.495 77.0145 Q 388.388 76.0041, 390.058 76.0041 Q 391.728 76.0041, 392.621 77.0145 Q 393.515 78.0249, 393.515 79.833 Q 393.515 81.6623, 392.611 82.7047 Q 391.707 83.7363, 390.058 83.7363 Q 388.399 83.7363, 387.495 82.7047 Q 386.601 81.673, 386.601 79.833 M 390.058 82.8855 Q 391.207 82.8855, 391.823 82.1197 Q 392.451 81.3433, 392.451 79.833 Q 392.451 78.3546, 391.823 77.6101 Q 391.207 76.855, 390.058 76.855 Q 388.909 76.855, 388.282 77.5995 Q 387.665 78.344, 387.665 79.833 Q 387.665 81.3539, 388.282 82.1197 Q 388.909 82.8855, 390.058 82.8855 " fill="#FF0000"/>
<path class="atom-2" d="M 393.866 77.2332 L 396.442 77.2332 L 396.442 77.7947 L 393.866 77.7947 L 393.866 77.2332 " fill="#FF0000"/>
<path class="atom-4" d="M 383.584 115.149 Q 383.584 113.341, 384.477 112.331 Q 385.371 111.32, 387.041 111.32 Q 388.71 111.32, 389.604 112.331 Q 390.497 113.341, 390.497 115.149 Q 390.497 116.979, 389.593 118.021 Q 388.689 119.053, 387.041 119.053 Q 385.381 119.053, 384.477 118.021 Q 383.584 116.989, 383.584 115.149 M 387.041 118.202 Q 388.189 118.202, 388.806 117.436 Q 389.434 116.659, 389.434 115.149 Q 389.434 113.671, 388.806 112.926 Q 388.189 112.171, 387.041 112.171 Q 385.892 112.171, 385.264 112.916 Q 384.648 113.66, 384.648 115.149 Q 384.648 116.67, 385.264 117.436 Q 385.892 118.202, 387.041 118.202 " fill="#FF0000"/>
<path class="atom-7" d="M 413.606 140.374 Q 413.606 138.502, 414.479 137.523 Q 415.361 136.534, 417.031 136.534 Q 418.584 136.534, 419.414 137.63 L 418.712 138.204 Q 418.105 137.406, 417.031 137.406 Q 415.893 137.406, 415.287 138.172 Q 414.691 138.927, 414.691 140.374 Q 414.691 141.863, 415.308 142.629 Q 415.936 143.394, 417.148 143.394 Q 417.978 143.394, 418.946 142.895 L 419.243 143.692 Q 418.85 143.947, 418.254 144.096 Q 417.659 144.245, 416.999 144.245 Q 415.361 144.245, 414.479 143.246 Q 413.606 142.246, 413.606 140.374 " fill="#00CC00"/>
<path class="atom-7" d="M 420.328 136.077 L 421.307 136.077 L 421.307 144.15 L 420.328 144.15 L 420.328 136.077 " fill="#00CC00"/>
<path class="atom-14" d="M 442.318 188.63 L 444.785 192.618 Q 445.03 193.012, 445.423 193.725 Q 445.817 194.437, 445.838 194.48 L 445.838 188.63 L 446.838 188.63 L 446.838 196.16 L 445.806 196.16 L 443.158 191.8 Q 442.849 191.289, 442.52 190.704 Q 442.201 190.119, 442.105 189.938 L 442.105 196.16 L 441.126 196.16 L 441.126 188.63 L 442.318 188.63 " fill="#0000FF"/>
<path class="atom-18" d="M 488.647 156.827 L 491.114 160.816 Q 491.359 161.209, 491.752 161.922 Q 492.146 162.634, 492.167 162.677 L 492.167 156.827 L 493.167 156.827 L 493.167 164.357 L 492.135 164.357 L 489.487 159.997 Q 489.179 159.486, 488.849 158.901 Q 488.53 158.316, 488.434 158.135 L 488.434 164.357 L 487.456 164.357 L 487.456 156.827 L 488.647 156.827 " fill="#0000FF"/>
<path class="atom-19" d="M 505.153 156.119 Q 505.239 156.151, 505.59 156.3 Q 505.94 156.449, 506.323 156.544 Q 506.717 156.629, 507.1 156.629 Q 507.812 156.629, 508.227 156.289 Q 508.642 155.938, 508.642 155.332 Q 508.642 154.917, 508.429 154.662 Q 508.227 154.407, 507.908 154.268 Q 507.589 154.13, 507.057 153.97 Q 506.387 153.768, 505.983 153.577 Q 505.59 153.385, 505.302 152.981 Q 505.026 152.577, 505.026 151.896 Q 505.026 150.95, 505.664 150.365 Q 506.313 149.78, 507.589 149.78 Q 508.461 149.78, 509.45 150.195 L 509.206 151.014 Q 508.302 150.641, 507.621 150.641 Q 506.887 150.641, 506.483 150.95 Q 506.079 151.248, 506.089 151.769 Q 506.089 152.173, 506.291 152.418 Q 506.504 152.662, 506.802 152.801 Q 507.11 152.939, 507.621 153.098 Q 508.302 153.311, 508.706 153.524 Q 509.11 153.736, 509.397 154.173 Q 509.695 154.598, 509.695 155.332 Q 509.695 156.374, 508.993 156.938 Q 508.302 157.491, 507.142 157.491 Q 506.472 157.491, 505.962 157.342 Q 505.462 157.204, 504.866 156.959 L 505.153 156.119 " fill="#CCCC00"/>
<path class="atom-20" d="M 497.982 137.799 Q 497.982 135.991, 498.875 134.981 Q 499.768 133.971, 501.438 133.971 Q 503.108 133.971, 504.001 134.981 Q 504.895 135.991, 504.895 137.799 Q 504.895 139.629, 503.991 140.671 Q 503.087 141.703, 501.438 141.703 Q 499.779 141.703, 498.875 140.671 Q 497.982 139.639, 497.982 137.799 M 501.438 140.852 Q 502.587 140.852, 503.204 140.086 Q 503.831 139.31, 503.831 137.799 Q 503.831 136.321, 503.204 135.577 Q 502.587 134.821, 501.438 134.821 Q 500.29 134.821, 499.662 135.566 Q 499.045 136.31, 499.045 137.799 Q 499.045 139.32, 499.662 140.086 Q 500.29 140.852, 501.438 140.852 " fill="#FF0000"/>
<path class="atom-21" d="M 510.965 168.805 Q 510.965 166.997, 511.858 165.987 Q 512.752 164.976, 514.422 164.976 Q 516.092 164.976, 516.985 165.987 Q 517.878 166.997, 517.878 168.805 Q 517.878 170.635, 516.974 171.677 Q 516.07 172.709, 514.422 172.709 Q 512.762 172.709, 511.858 171.677 Q 510.965 170.645, 510.965 168.805 M 514.422 171.858 Q 515.57 171.858, 516.187 171.092 Q 516.815 170.316, 516.815 168.805 Q 516.815 167.327, 516.187 166.582 Q 515.57 165.827, 514.422 165.827 Q 513.273 165.827, 512.646 166.572 Q 512.029 167.316, 512.029 168.805 Q 512.029 170.326, 512.646 171.092 Q 513.273 171.858, 514.422 171.858 " fill="#FF0000"/>
<path class="atom-32" d="M 372.669 161.861 Q 372.754 161.893, 373.105 162.042 Q 373.456 162.191, 373.839 162.287 Q 374.233 162.372, 374.616 162.372 Q 375.328 162.372, 375.743 162.031 Q 376.158 161.68, 376.158 161.074 Q 376.158 160.659, 375.945 160.404 Q 375.743 160.149, 375.424 160.011 Q 375.105 159.872, 374.573 159.713 Q 373.903 159.511, 373.499 159.319 Q 373.105 159.128, 372.818 158.724 Q 372.542 158.32, 372.542 157.639 Q 372.542 156.692, 373.18 156.107 Q 373.829 155.522, 375.105 155.522 Q 375.977 155.522, 376.966 155.937 L 376.722 156.756 Q 375.817 156.384, 375.137 156.384 Q 374.403 156.384, 373.999 156.692 Q 373.595 156.99, 373.605 157.511 Q 373.605 157.915, 373.807 158.16 Q 374.02 158.405, 374.318 158.543 Q 374.626 158.681, 375.137 158.841 Q 375.817 159.053, 376.222 159.266 Q 376.626 159.479, 376.913 159.915 Q 377.211 160.34, 377.211 161.074 Q 377.211 162.117, 376.509 162.68 Q 375.817 163.233, 374.658 163.233 Q 373.988 163.233, 373.478 163.084 Q 372.978 162.946, 372.382 162.702 L 372.669 161.861 " fill="#CCCC00"/>
<path class="atom-35" d="M 348.371 117.744 Q 348.371 115.936, 349.265 114.926 Q 350.158 113.915, 351.828 113.915 Q 353.498 113.915, 354.391 114.926 Q 355.284 115.936, 355.284 117.744 Q 355.284 119.574, 354.38 120.616 Q 353.476 121.648, 351.828 121.648 Q 350.169 121.648, 349.265 120.616 Q 348.371 119.584, 348.371 117.744 M 351.828 120.797 Q 352.976 120.797, 353.593 120.031 Q 354.221 119.254, 354.221 117.744 Q 354.221 116.266, 353.593 115.521 Q 352.976 114.766, 351.828 114.766 Q 350.679 114.766, 350.052 115.511 Q 349.435 116.255, 349.435 117.744 Q 349.435 119.265, 350.052 120.031 Q 350.679 120.797, 351.828 120.797 " fill="#FF0000"/>
<path class="atom-36" d="M 336.653 146.123 Q 336.653 144.315, 337.547 143.304 Q 338.44 142.294, 340.11 142.294 Q 341.78 142.294, 342.673 143.304 Q 343.567 144.315, 343.567 146.123 Q 343.567 147.952, 342.663 148.994 Q 341.759 150.026, 340.11 150.026 Q 338.451 150.026, 337.547 148.994 Q 336.653 147.963, 336.653 146.123 M 340.11 149.175 Q 341.259 149.175, 341.876 148.409 Q 342.503 147.633, 342.503 146.123 Q 342.503 144.644, 341.876 143.9 Q 341.259 143.145, 340.11 143.145 Q 338.961 143.145, 338.334 143.889 Q 337.717 144.634, 337.717 146.123 Q 337.717 147.644, 338.334 148.409 Q 338.961 149.175, 340.11 149.175 " fill="#FF0000"/>
<path class="atom-36" d="M 343.918 143.523 L 346.494 143.523 L 346.494 144.084 L 343.918 144.084 L 343.918 143.523 " fill="#FF0000"/>
<path class="atom-37" d="M 407.67 119.878 L 408.691 119.878 L 408.691 123.079 L 412.542 123.079 L 412.542 119.878 L 413.563 119.878 L 413.563 127.408 L 412.542 127.408 L 412.542 123.93 L 408.691 123.93 L 408.691 127.408 L 407.67 127.408 L 407.67 119.878 " fill="#000000"/>
<path class="atom-38" d="M 417.803 105.337 L 418.824 105.337 L 418.824 108.538 L 422.674 108.538 L 422.674 105.337 L 423.695 105.337 L 423.695 112.867 L 422.674 112.867 L 422.674 109.389 L 418.824 109.389 L 418.824 112.867 L 417.803 112.867 L 417.803 105.337 " fill="#000000"/>
<path class="atom-39" d="M 372.469 187.368 L 373.49 187.368 L 373.49 190.569 L 377.34 190.569 L 377.34 187.368 L 378.361 187.368 L 378.361 194.898 L 377.34 194.898 L 377.34 191.42 L 373.49 191.42 L 373.49 194.898 L 372.469 194.898 L 372.469 187.368 " fill="#000000"/>
<path class="atom-40" d="M 390.257 218.085 L 391.278 218.085 L 391.278 221.287 L 395.128 221.287 L 395.128 218.085 L 396.149 218.085 L 396.149 225.615 L 395.128 225.615 L 395.128 222.138 L 391.278 222.138 L 391.278 225.615 L 390.257 225.615 L 390.257 218.085 " fill="#000000"/>
<path class="atom-41" d="M 425.334 217.992 L 426.355 217.992 L 426.355 221.193 L 430.205 221.193 L 430.205 217.992 L 431.226 217.992 L 431.226 225.522 L 430.205 225.522 L 430.205 222.044 L 426.355 222.044 L 426.355 225.522 L 425.334 225.522 L 425.334 217.992 " fill="#000000"/>
<path class="atom-42" d="M 447.194 205.249 L 448.216 205.249 L 448.216 208.45 L 452.066 208.45 L 452.066 205.249 L 453.087 205.249 L 453.087 212.779 L 452.066 212.779 L 452.066 209.301 L 448.216 209.301 L 448.216 212.779 L 447.194 212.779 L 447.194 205.249 " fill="#000000"/>
<path class="atom-43" d="M 435.347 166.994 L 436.368 166.994 L 436.368 170.195 L 440.218 170.195 L 440.218 166.994 L 441.239 166.994 L 441.239 174.524 L 440.218 174.524 L 440.218 171.046 L 436.368 171.046 L 436.368 174.524 L 435.347 174.524 L 435.347 166.994 " fill="#000000"/>
<path class="atom-44" d="M 476.806 198.483 L 477.827 198.483 L 477.827 201.684 L 481.678 201.684 L 481.678 198.483 L 482.699 198.483 L 482.699 206.013 L 481.678 206.013 L 481.678 202.535 L 477.827 202.535 L 477.827 206.013 L 476.806 206.013 L 476.806 198.483 " fill="#000000"/>
<path class="atom-45" d="M 458.097 194.171 L 459.118 194.171 L 459.118 197.372 L 462.968 197.372 L 462.968 194.171 L 463.989 194.171 L 463.989 201.701 L 462.968 201.701 L 462.968 198.223 L 459.118 198.223 L 459.118 201.701 L 458.097 201.701 L 458.097 194.171 " fill="#000000"/>
<path class="atom-46" d="M 501.771 175.383 L 502.792 175.383 L 502.792 178.585 L 506.642 178.585 L 506.642 175.383 L 507.663 175.383 L 507.663 182.914 L 506.642 182.914 L 506.642 179.436 L 502.792 179.436 L 502.792 182.914 L 501.771 182.914 L 501.771 175.383 " fill="#000000"/>
<path class="atom-47" d="M 489.922 192.908 L 490.943 192.908 L 490.943 196.109 L 494.793 196.109 L 494.793 192.908 L 495.814 192.908 L 495.814 200.438 L 494.793 200.438 L 494.793 196.96 L 490.943 196.96 L 490.943 200.438 L 489.922 200.438 L 489.922 192.908 " fill="#000000"/>
<path class="atom-48" d="M 526.07 159.848 L 527.091 159.848 L 527.091 163.049 L 530.941 163.049 L 530.941 159.848 L 531.962 159.848 L 531.962 167.378 L 530.941 167.378 L 530.941 163.9 L 527.091 163.9 L 527.091 167.378 L 526.07 167.378 L 526.07 159.848 " fill="#000000"/>
<path class="atom-49" d="M 536.692 145.511 L 537.713 145.511 L 537.713 148.713 L 541.563 148.713 L 541.563 145.511 L 542.584 145.511 L 542.584 153.042 L 541.563 153.042 L 541.563 149.564 L 537.713 149.564 L 537.713 153.042 L 536.692 153.042 L 536.692 145.511 " fill="#000000"/>
<path class="atom-50" d="M 551.127 131.737 L 552.148 131.737 L 552.148 134.939 L 555.998 134.939 L 555.998 131.737 L 557.019 131.737 L 557.019 139.268 L 555.998 139.268 L 555.998 135.79 L 552.148 135.79 L 552.148 139.268 L 551.127 139.268 L 551.127 131.737 " fill="#000000"/>
<path class="atom-51" d="M 556.589 96.7378 L 557.61 96.7378 L 557.61 99.9392 L 561.46 99.9392 L 561.46 96.7378 L 562.481 96.7378 L 562.481 104.268 L 561.46 104.268 L 561.46 100.79 L 557.61 100.79 L 557.61 104.268 L 556.589 104.268 L 556.589 96.7378 " fill="#000000"/>
<path class="atom-52" d="M 528.85 74.3845 L 529.871 74.3845 L 529.871 77.5859 L 533.721 77.5859 L 533.721 74.3845 L 534.742 74.3845 L 534.742 81.9147 L 533.721 81.9147 L 533.721 78.4368 L 529.871 78.4368 L 529.871 81.9147 L 528.85 81.9147 L 528.85 74.3845 " fill="#000000"/>
<path class="atom-53" d="M 495.708 87.1114 L 496.729 87.1114 L 496.729 90.3127 L 500.579 90.3127 L 500.579 87.1114 L 501.6 87.1114 L 501.6 94.6415 L 500.579 94.6415 L 500.579 91.1636 L 496.729 91.1636 L 496.729 94.6415 L 495.708 94.6415 L 495.708 87.1114 " fill="#000000"/>
<path class="atom-54" d="M 489.695 121.361 L 490.716 121.361 L 490.716 124.562 L 494.566 124.562 L 494.566 121.361 L 495.587 121.361 L 495.587 128.891 L 494.566 128.891 L 494.566 125.413 L 490.716 125.413 L 490.716 128.891 L 489.695 128.891 L 489.695 121.361 " fill="#000000"/>
<path class="atom-55" d="M 462.968 130.026 L 463.989 130.026 L 463.989 133.228 L 467.839 133.228 L 467.839 130.026 L 468.86 130.026 L 468.86 137.556 L 467.839 137.556 L 467.839 134.078 L 463.989 134.078 L 463.989 137.556 L 462.968 137.556 L 462.968 130.026 " fill="#000000"/>
<path class="atom-56" d="M 484.157 134.404 L 485.178 134.404 L 485.178 137.605 L 489.028 137.605 L 489.028 134.404 L 490.049 134.404 L 490.049 141.934 L 489.028 141.934 L 489.028 138.456 L 485.178 138.456 L 485.178 141.934 L 484.157 141.934 L 484.157 134.404 " fill="#000000"/>
<path class="atom-57" d="M 437.81 153.037 L 438.831 153.037 L 438.831 156.238 L 442.681 156.238 L 442.681 153.037 L 443.702 153.037 L 443.702 160.567 L 442.681 160.567 L 442.681 157.089 L 438.831 157.089 L 438.831 160.567 L 437.81 160.567 L 437.81 153.037 " fill="#000000"/>
<path class="atom-58" d="M 449.877 135.734 L 450.898 135.734 L 450.898 138.935 L 454.748 138.935 L 454.748 135.734 L 455.769 135.734 L 455.769 143.264 L 454.748 143.264 L 454.748 139.786 L 450.898 139.786 L 450.898 143.264 L 449.877 143.264 L 449.877 135.734 " fill="#000000"/>
<path class="atom-59" d="M 424.323 157.745 L 425.344 157.745 L 425.344 160.947 L 429.194 160.947 L 429.194 157.745 L 430.215 157.745 L 430.215 165.276 L 429.194 165.276 L 429.194 161.798 L 425.344 161.798 L 425.344 165.276 L 424.323 165.276 L 424.323 157.745 " fill="#000000"/>
<text x="300" y="20" font-size="20" font-family="sans-serif" font-weight="normal" letter-spacing="0" text-anchor="middle" fill="black">ptp1b: 20667_2qbp -&gt; 23486</text><text x="300" y="35" font-size="15" font-family="sans-serif" font-weight="normal" letter-spacing="0" text-anchor="middle" fill="black">complex (repeats 4, 5, 6), water (repeats 4, 5, 6), DDG_exp = -1.05 (0.0) kcal/mol</text><text x="150" y="285" font-size="15" font-family="sans-serif" font-weight="normal" letter-spacing="0" text-anchor="middle" fill="black">20667_2qbp</text><text x="450" y="285" font-size="15" font-family="sans-serif" font-weight="normal" letter-spacing="0" text-anchor="middle" fill="black">23486</text></svg>
