<?xml version='1.0' encoding='ASCII' standalone='yes'?>
<svg xmlns="http://www.w3.org/2000/svg" xmlns:rdkit="http://www.rdkit.org/xml" xmlns:xlink="http://www.w3.org/1999/xlink" version="1.1" baseProfile="full" xml:space="preserve" width="600px" height="300px" viewBox="0 0 600 300">
<!-- END OF HEADER -->
<rect style="opacity:1.0;fill:#FFFFFF;stroke:none" width="600" height="300" x="0" y="0"> </rect>
<rect style="opacity:1.0;fill:#FFFFFF;stroke:none" width="600" height="300" x="0" y="0"> </rect>
<rect style="opacity:1.0;fill:#FFFFFF;stroke:none" width="600" height="300" x="0" y="0"> </rect>
<ellipse cx="58.4918" cy="171.746" rx="7.44937" ry="7.44937" style="fill:#CFAA27;fill-rule:evenodd;stroke:#CFAA27;stroke-width:1px;stroke-linecap:butt;stroke-linejoin:miter;stroke-opacity:1"/>
<ellipse cx="71.7878" cy="189.916" rx="7.44937" ry="7.44937" style="fill:#B8A444;fill-rule:evenodd;stroke:#B8A444;stroke-width:1px;stroke-linecap:butt;stroke-linejoin:miter;stroke-opacity:1"/>
<ellipse cx="64.5002" cy="210.628" rx="8.86109" ry="7.44937" style="fill:#A19F62;fill-rule:evenodd;stroke:#A19F62;stroke-width:1px;stroke-linecap:butt;stroke-linejoin:miter;stroke-opacity:1"/>
<ellipse cx="94.2353" cy="187.523" rx="7.44937" ry="7.44937" style="fill:#7C947A;fill-rule:evenodd;stroke:#7C947A;stroke-width:1px;stroke-linecap:butt;stroke-linejoin:miter;stroke-opacity:1"/>
<ellipse cx="107.531" cy="205.842" rx="7.44937" ry="7.44937" style="fill:#588A93;fill-rule:evenodd;stroke:#588A93;stroke-width:1px;stroke-linecap:butt;stroke-linejoin:miter;stroke-opacity:1"/>
<ellipse cx="129.979" cy="203.375" rx="7.44937" ry="7.44937" style="fill:#3D79AB;fill-rule:evenodd;stroke:#3D79AB;stroke-width:1px;stroke-linecap:butt;stroke-linejoin:miter;stroke-opacity:1"/>
<ellipse cx="141.234" cy="183.808" rx="7.44937" ry="7.44937" style="fill:#2269C4;fill-rule:evenodd;stroke:#2269C4;stroke-width:1px;stroke-linecap:butt;stroke-linejoin:miter;stroke-opacity:1"/>
<ellipse cx="128.186" cy="163.202" rx="8.24604" ry="7.44937" style="fill:#3053DA;fill-rule:evenodd;stroke:#3053DA;stroke-width:1px;stroke-linecap:butt;stroke-linejoin:miter;stroke-opacity:1"/>
<ellipse cx="163.32" cy="188.467" rx="7.44937" ry="7.44937" style="fill:#3E3EF0;fill-rule:evenodd;stroke:#3E3EF0;stroke-width:1px;stroke-linecap:butt;stroke-linejoin:miter;stroke-opacity:1"/>
<ellipse cx="180.111" cy="173.302" rx="7.44937" ry="7.44937" style="fill:#5446F4;fill-rule:evenodd;stroke:#5446F4;stroke-width:1px;stroke-linecap:butt;stroke-linejoin:miter;stroke-opacity:1"/>
<ellipse cx="201.637" cy="180.255" rx="7.44937" ry="7.44937" style="fill:#6B4EF9;fill-rule:evenodd;stroke:#6B4EF9;stroke-width:1px;stroke-linecap:butt;stroke-linejoin:miter;stroke-opacity:1"/>
<ellipse cx="218.423" cy="165.089" rx="7.44937" ry="7.44937" style="fill:#805CF9;fill-rule:evenodd;stroke:#805CF9;stroke-width:1px;stroke-linecap:butt;stroke-linejoin:miter;stroke-opacity:1"/>
<ellipse cx="213.683" cy="142.967" rx="7.44937" ry="7.44937" style="fill:#CFAA27;fill-rule:evenodd;stroke:#CFAA27;stroke-width:1px;stroke-linecap:butt;stroke-linejoin:miter;stroke-opacity:1"/>
<ellipse cx="192.156" cy="136.01" rx="7.44937" ry="7.44937" style="fill:#B8A444;fill-rule:evenodd;stroke:#B8A444;stroke-width:1px;stroke-linecap:butt;stroke-linejoin:miter;stroke-opacity:1"/>
<ellipse cx="187.416" cy="113.887" rx="7.44937" ry="7.44937" style="fill:#A19F62;fill-rule:evenodd;stroke:#A19F62;stroke-width:1px;stroke-linecap:butt;stroke-linejoin:miter;stroke-opacity:1"/>
<ellipse cx="175.37" cy="151.179" rx="7.44937" ry="7.44937" style="fill:#7C947A;fill-rule:evenodd;stroke:#7C947A;stroke-width:1px;stroke-linecap:butt;stroke-linejoin:miter;stroke-opacity:1"/>
<ellipse cx="165.713" cy="211.043" rx="7.44937" ry="7.44937" style="fill:#588A93;fill-rule:evenodd;stroke:#588A93;stroke-width:1px;stroke-linecap:butt;stroke-linejoin:miter;stroke-opacity:1"/>
<ellipse cx="145.108" cy="220.124" rx="7.44937" ry="7.44937" style="fill:#3D79AB;fill-rule:evenodd;stroke:#3D79AB;stroke-width:1px;stroke-linecap:butt;stroke-linejoin:miter;stroke-opacity:1"/>
<ellipse cx="140.448" cy="242.215" rx="7.44937" ry="7.44937" style="fill:#2269C4;fill-rule:evenodd;stroke:#2269C4;stroke-width:1px;stroke-linecap:butt;stroke-linejoin:miter;stroke-opacity:1"/>
<ellipse cx="157.248" cy="257.369" rx="7.44937" ry="7.44937" style="fill:#3053DA;fill-rule:evenodd;stroke:#3053DA;stroke-width:1px;stroke-linecap:butt;stroke-linejoin:miter;stroke-opacity:1"/>
<ellipse cx="120.854" cy="249.301" rx="8.86109" ry="7.44937" style="fill:#3E3EF0;fill-rule:evenodd;stroke:#3E3EF0;stroke-width:1px;stroke-linecap:butt;stroke-linejoin:miter;stroke-opacity:1"/>
<ellipse cx="112.479" cy="174.227" rx="7.44937" ry="7.44937" style="fill:#5446F4;fill-rule:evenodd;stroke:#5446F4;stroke-width:1px;stroke-linecap:butt;stroke-linejoin:miter;stroke-opacity:1"/>
<ellipse cx="91.8424" cy="165.076" rx="7.44937" ry="7.44937" style="fill:#6B4EF9;fill-rule:evenodd;stroke:#6B4EF9;stroke-width:1px;stroke-linecap:butt;stroke-linejoin:miter;stroke-opacity:1"/>
<ellipse cx="206.378" cy="202.377" rx="7.44937" ry="7.44937" style="fill:#805CF9;fill-rule:evenodd;stroke:#805CF9;stroke-width:1px;stroke-linecap:butt;stroke-linejoin:miter;stroke-opacity:1"/>
<ellipse cx="239.954" cy="172.047" rx="7.44937" ry="7.44937" style="fill:#CFAA27;fill-rule:evenodd;stroke:#CFAA27;stroke-width:1px;stroke-linecap:butt;stroke-linejoin:miter;stroke-opacity:1"/>
<ellipse cx="230.473" cy="127.802" rx="7.44937" ry="7.44937" style="fill:#B8A444;fill-rule:evenodd;stroke:#B8A444;stroke-width:1px;stroke-linecap:butt;stroke-linejoin:miter;stroke-opacity:1"/>
<ellipse cx="153.839" cy="144.222" rx="7.44937" ry="7.44937" style="fill:#A19F62;fill-rule:evenodd;stroke:#A19F62;stroke-width:1px;stroke-linecap:butt;stroke-linejoin:miter;stroke-opacity:1"/>
<path class="bond-0" d="M 60.9036,178.431 L 65.5248,184.772" style="fill:none;fill-rule:evenodd;stroke:#FF0000;stroke-width:2.0px;stroke-linecap:butt;stroke-linejoin:miter;stroke-opacity:1"/>
<path class="bond-0" d="M 65.5248,184.772 L 70.1459,191.113" style="fill:none;fill-rule:evenodd;stroke:#000000;stroke-width:2.0px;stroke-linecap:butt;stroke-linejoin:miter;stroke-opacity:1"/>
<path class="bond-0" d="M 64.1873,176.038 L 68.8085,182.379" style="fill:none;fill-rule:evenodd;stroke:#FF0000;stroke-width:2.0px;stroke-linecap:butt;stroke-linejoin:miter;stroke-opacity:1"/>
<path class="bond-0" d="M 68.8085,182.379 L 73.4297,188.72" style="fill:none;fill-rule:evenodd;stroke:#000000;stroke-width:2.0px;stroke-linecap:butt;stroke-linejoin:miter;stroke-opacity:1"/>
<path class="bond-1" d="M 71.7878,189.916 L 68.4123,197.528" style="fill:none;fill-rule:evenodd;stroke:#000000;stroke-width:2.0px;stroke-linecap:butt;stroke-linejoin:miter;stroke-opacity:1"/>
<path class="bond-1" d="M 68.4123,197.528 L 65.0369,205.14" style="fill:none;fill-rule:evenodd;stroke:#FF0000;stroke-width:2.0px;stroke-linecap:butt;stroke-linejoin:miter;stroke-opacity:1"/>
<path class="bond-2" d="M 71.7878,189.916 L 94.2353,187.523" style="fill:none;fill-rule:evenodd;stroke:#000000;stroke-width:2.0px;stroke-linecap:butt;stroke-linejoin:miter;stroke-opacity:1"/>
<path class="bond-3" d="M 94.2353,187.523 L 98.9107,193.939" style="fill:none;fill-rule:evenodd;stroke:#000000;stroke-width:2.0px;stroke-linecap:butt;stroke-linejoin:miter;stroke-opacity:1"/>
<path class="bond-3" d="M 98.9107,193.939 L 103.586,200.354" style="fill:none;fill-rule:evenodd;stroke:#FF0000;stroke-width:2.0px;stroke-linecap:butt;stroke-linejoin:miter;stroke-opacity:1"/>
<path class="bond-4" d="M 94.2353,187.523 L 108.163,177.373" style="fill:none;fill-rule:evenodd;stroke:#000000;stroke-width:2.0px;stroke-linecap:butt;stroke-linejoin:miter;stroke-opacity:1"/>
<path class="bond-5" d="M 94.2353,187.523 L 92.4137,170.435" style="fill:none;fill-rule:evenodd;stroke:#000000;stroke-width:2.0px;stroke-linecap:butt;stroke-linejoin:miter;stroke-opacity:1"/>
<path class="bond-6" d="M 112.498,205.238 L 121.238,204.306" style="fill:none;fill-rule:evenodd;stroke:#FF0000;stroke-width:2.0px;stroke-linecap:butt;stroke-linejoin:miter;stroke-opacity:1"/>
<path class="bond-6" d="M 121.238,204.306 L 129.979,203.375" style="fill:none;fill-rule:evenodd;stroke:#000000;stroke-width:2.0px;stroke-linecap:butt;stroke-linejoin:miter;stroke-opacity:1"/>
<path class="bond-7" d="M 129.979,203.375 L 141.234,183.808" style="fill:none;fill-rule:evenodd;stroke:#000000;stroke-width:2.0px;stroke-linecap:butt;stroke-linejoin:miter;stroke-opacity:1"/>
<path class="bond-8" d="M 129.979,203.375 L 145.108,220.124" style="fill:none;fill-rule:evenodd;stroke:#000000;stroke-width:2.0px;stroke-linecap:butt;stroke-linejoin:miter;stroke-opacity:1"/>
<path class="bond-8" d="M 135.263,203.164 L 145.854,214.888" style="fill:none;fill-rule:evenodd;stroke:#000000;stroke-width:2.0px;stroke-linecap:butt;stroke-linejoin:miter;stroke-opacity:1"/>
<path class="bond-9" d="M 141.234,183.808 L 137.825,176.184" style="fill:none;fill-rule:evenodd;stroke:#000000;stroke-width:2.0px;stroke-linecap:butt;stroke-linejoin:miter;stroke-opacity:1"/>
<path class="bond-9" d="M 137.825,176.184 L 134.416,168.561" style="fill:none;fill-rule:evenodd;stroke:#7F4C19;stroke-width:2.0px;stroke-linecap:butt;stroke-linejoin:miter;stroke-opacity:1"/>
<path class="bond-10" d="M 141.234,183.808 L 163.32,188.467" style="fill:none;fill-rule:evenodd;stroke:#000000;stroke-width:2.0px;stroke-linecap:butt;stroke-linejoin:miter;stroke-opacity:1"/>
<path class="bond-10" d="M 143.708,188.482 L 159.169,191.744" style="fill:none;fill-rule:evenodd;stroke:#000000;stroke-width:2.0px;stroke-linecap:butt;stroke-linejoin:miter;stroke-opacity:1"/>
<path class="bond-11" d="M 163.32,188.467 L 180.111,173.302" style="fill:none;fill-rule:evenodd;stroke:#000000;stroke-width:2.0px;stroke-linecap:butt;stroke-linejoin:miter;stroke-opacity:1"/>
<path class="bond-12" d="M 163.32,188.467 L 164.232,197.018" style="fill:none;fill-rule:evenodd;stroke:#000000;stroke-width:2.0px;stroke-linecap:butt;stroke-linejoin:miter;stroke-opacity:1"/>
<path class="bond-12" d="M 164.232,197.018 L 165.143,205.569" style="fill:none;fill-rule:evenodd;stroke:#CCCC00;stroke-width:2.0px;stroke-linecap:butt;stroke-linejoin:miter;stroke-opacity:1"/>
<path class="bond-13" d="M 180.111,173.302 L 201.637,180.255" style="fill:none;fill-rule:evenodd;stroke:#000000;stroke-width:2.0px;stroke-linecap:butt;stroke-linejoin:miter;stroke-opacity:1"/>
<path class="bond-13" d="M 184.589,170.478 L 199.657,175.345" style="fill:none;fill-rule:evenodd;stroke:#000000;stroke-width:2.0px;stroke-linecap:butt;stroke-linejoin:miter;stroke-opacity:1"/>
<path class="bond-14" d="M 180.111,173.302 L 175.37,151.179" style="fill:none;fill-rule:evenodd;stroke:#000000;stroke-width:2.0px;stroke-linecap:butt;stroke-linejoin:miter;stroke-opacity:1"/>
<path class="bond-15" d="M 201.637,180.255 L 218.423,165.089" style="fill:none;fill-rule:evenodd;stroke:#000000;stroke-width:2.0px;stroke-linecap:butt;stroke-linejoin:miter;stroke-opacity:1"/>
<path class="bond-16" d="M 201.637,180.255 L 205.229,197.017" style="fill:none;fill-rule:evenodd;stroke:#000000;stroke-width:2.0px;stroke-linecap:butt;stroke-linejoin:miter;stroke-opacity:1"/>
<path class="bond-17" d="M 218.423,165.089 L 213.683,142.967" style="fill:none;fill-rule:evenodd;stroke:#000000;stroke-width:2.0px;stroke-linecap:butt;stroke-linejoin:miter;stroke-opacity:1"/>
<path class="bond-17" d="M 213.739,162.622 L 210.421,147.137" style="fill:none;fill-rule:evenodd;stroke:#000000;stroke-width:2.0px;stroke-linecap:butt;stroke-linejoin:miter;stroke-opacity:1"/>
<path class="bond-18" d="M 218.423,165.089 L 235.637,170.652" style="fill:none;fill-rule:evenodd;stroke:#000000;stroke-width:2.0px;stroke-linecap:butt;stroke-linejoin:miter;stroke-opacity:1"/>
<path class="bond-19" d="M 213.683,142.967 L 192.156,136.01" style="fill:none;fill-rule:evenodd;stroke:#000000;stroke-width:2.0px;stroke-linecap:butt;stroke-linejoin:miter;stroke-opacity:1"/>
<path class="bond-20" d="M 213.683,142.967 L 226.156,131.701" style="fill:none;fill-rule:evenodd;stroke:#000000;stroke-width:2.0px;stroke-linecap:butt;stroke-linejoin:miter;stroke-opacity:1"/>
<path class="bond-21" d="M 192.156,136.01 L 190.36,127.629" style="fill:none;fill-rule:evenodd;stroke:#000000;stroke-width:2.0px;stroke-linecap:butt;stroke-linejoin:miter;stroke-opacity:1"/>
<path class="bond-21" d="M 190.36,127.629 L 188.564,119.248" style="fill:none;fill-rule:evenodd;stroke:#0000FF;stroke-width:2.0px;stroke-linecap:butt;stroke-linejoin:miter;stroke-opacity:1"/>
<path class="bond-22" d="M 192.156,136.01 L 175.37,151.179" style="fill:none;fill-rule:evenodd;stroke:#000000;stroke-width:2.0px;stroke-linecap:butt;stroke-linejoin:miter;stroke-opacity:1"/>
<path class="bond-22" d="M 192.363,141.3 L 180.613,151.919" style="fill:none;fill-rule:evenodd;stroke:#000000;stroke-width:2.0px;stroke-linecap:butt;stroke-linejoin:miter;stroke-opacity:1"/>
<path class="bond-23" d="M 183.215,112.53 L 176.677,110.419" style="fill:none;fill-rule:evenodd;stroke:#0000FF;stroke-width:2.0px;stroke-linecap:butt;stroke-linejoin:miter;stroke-opacity:1"/>
<path class="bond-23" d="M 176.677,110.419 L 170.14,108.307" style="fill:none;fill-rule:evenodd;stroke:#000000;stroke-width:2.0px;stroke-linecap:butt;stroke-linejoin:miter;stroke-opacity:1"/>
<path class="bond-24" d="M 191.617,110.092 L 195.804,106.309" style="fill:none;fill-rule:evenodd;stroke:#0000FF;stroke-width:2.0px;stroke-linecap:butt;stroke-linejoin:miter;stroke-opacity:1"/>
<path class="bond-24" d="M 195.804,106.309 L 199.991,102.526" style="fill:none;fill-rule:evenodd;stroke:#000000;stroke-width:2.0px;stroke-linecap:butt;stroke-linejoin:miter;stroke-opacity:1"/>
<path class="bond-25" d="M 175.37,151.179 L 158.157,145.617" style="fill:none;fill-rule:evenodd;stroke:#000000;stroke-width:2.0px;stroke-linecap:butt;stroke-linejoin:miter;stroke-opacity:1"/>
<path class="bond-26" d="M 162.074,212.541 L 153.591,216.333" style="fill:none;fill-rule:evenodd;stroke:#CCCC00;stroke-width:2.0px;stroke-linecap:butt;stroke-linejoin:miter;stroke-opacity:1"/>
<path class="bond-26" d="M 153.591,216.333 L 145.108,220.124" style="fill:none;fill-rule:evenodd;stroke:#000000;stroke-width:2.0px;stroke-linecap:butt;stroke-linejoin:miter;stroke-opacity:1"/>
<path class="bond-27" d="M 145.108,220.124 L 140.448,242.215" style="fill:none;fill-rule:evenodd;stroke:#000000;stroke-width:2.0px;stroke-linecap:butt;stroke-linejoin:miter;stroke-opacity:1"/>
<path class="bond-28" d="M 139.091,243.727 L 145.008,249.038" style="fill:none;fill-rule:evenodd;stroke:#000000;stroke-width:2.0px;stroke-linecap:butt;stroke-linejoin:miter;stroke-opacity:1"/>
<path class="bond-28" d="M 145.008,249.038 L 150.925,254.349" style="fill:none;fill-rule:evenodd;stroke:#FF0000;stroke-width:2.0px;stroke-linecap:butt;stroke-linejoin:miter;stroke-opacity:1"/>
<path class="bond-28" d="M 141.806,240.703 L 147.722,246.014" style="fill:none;fill-rule:evenodd;stroke:#000000;stroke-width:2.0px;stroke-linecap:butt;stroke-linejoin:miter;stroke-opacity:1"/>
<path class="bond-28" d="M 147.722,246.014 L 153.639,251.325" style="fill:none;fill-rule:evenodd;stroke:#FF0000;stroke-width:2.0px;stroke-linecap:butt;stroke-linejoin:miter;stroke-opacity:1"/>
<path class="bond-29" d="M 140.448,242.215 L 134.066,244.301" style="fill:none;fill-rule:evenodd;stroke:#000000;stroke-width:2.0px;stroke-linecap:butt;stroke-linejoin:miter;stroke-opacity:1"/>
<path class="bond-29" d="M 134.066,244.301 L 127.684,246.386" style="fill:none;fill-rule:evenodd;stroke:#FF0000;stroke-width:2.0px;stroke-linecap:butt;stroke-linejoin:miter;stroke-opacity:1"/>
<path class="atom-0" d="M 54.0899 171.699 Q 54.0899 169.397, 55.2276 168.11 Q 56.3654 166.823, 58.4918 166.823 Q 60.6183 166.823, 61.756 168.11 Q 62.8937 169.397, 62.8937 171.699 Q 62.8937 174.029, 61.7425 175.356 Q 60.5912 176.67, 58.4918 176.67 Q 56.3789 176.67, 55.2276 175.356 Q 54.0899 174.042, 54.0899 171.699 M 58.4918 175.586 Q 59.9546 175.586, 60.7402 174.611 Q 61.5393 173.622, 61.5393 171.699 Q 61.5393 169.816, 60.7402 168.868 Q 59.9546 167.907, 58.4918 167.907 Q 57.029 167.907, 56.2299 168.855 Q 55.4444 169.803, 55.4444 171.699 Q 55.4444 173.636, 56.2299 174.611 Q 57.029 175.586, 58.4918 175.586 " fill="#FF0000"/>
<path class="atom-2" d="M 58.2345 210.58 Q 58.2345 208.278, 59.3722 206.991 Q 60.5099 205.704, 62.6364 205.704 Q 64.7628 205.704, 65.9006 206.991 Q 67.0383 208.278, 67.0383 210.58 Q 67.0383 212.91, 65.887 214.237 Q 64.7357 215.551, 62.6364 215.551 Q 60.5235 215.551, 59.3722 214.237 Q 58.2345 212.923, 58.2345 210.58 M 62.6364 214.467 Q 64.0992 214.467, 64.8847 213.492 Q 65.6839 212.504, 65.6839 210.58 Q 65.6839 208.698, 64.8847 207.749 Q 64.0992 206.788, 62.6364 206.788 Q 61.1736 206.788, 60.3745 207.736 Q 59.5889 208.684, 59.5889 210.58 Q 59.5889 212.517, 60.3745 213.492 Q 61.1736 214.467, 62.6364 214.467 " fill="#FF0000"/>
<path class="atom-2" d="M 67.4852 207.269 L 70.7659 207.269 L 70.7659 207.985 L 67.4852 207.985 L 67.4852 207.269 " fill="#FF0000"/>
<path class="atom-4" d="M 103.129 205.795 Q 103.129 203.492, 104.267 202.205 Q 105.405 200.919, 107.531 200.919 Q 109.658 200.919, 110.795 202.205 Q 111.933 203.492, 111.933 205.795 Q 111.933 208.124, 110.782 209.452 Q 109.631 210.765, 107.531 210.765 Q 105.418 210.765, 104.267 209.452 Q 103.129 208.138, 103.129 205.795 M 107.531 209.682 Q 108.994 209.682, 109.78 208.707 Q 110.579 207.718, 110.579 205.795 Q 110.579 203.912, 109.78 202.964 Q 108.994 202.002, 107.531 202.002 Q 106.068 202.002, 105.269 202.95 Q 104.484 203.898, 104.484 205.795 Q 104.484 207.731, 105.269 208.707 Q 106.068 209.682, 107.531 209.682 " fill="#FF0000"/>
<path class="atom-7" d="M 127.015 162.958 Q 127.936 163.216, 128.396 163.785 Q 128.87 164.34, 128.87 165.166 Q 128.87 166.494, 128.017 167.252 Q 127.177 167.997, 125.579 167.997 L 122.356 167.997 L 122.356 158.408 L 125.186 158.408 Q 126.825 158.408, 127.651 159.071 Q 128.478 159.735, 128.478 160.954 Q 128.478 162.403, 127.015 162.958 M 123.642 159.491 L 123.642 162.498 L 125.186 162.498 Q 126.134 162.498, 126.622 162.119 Q 127.123 161.726, 127.123 160.954 Q 127.123 159.491, 125.186 159.491 L 123.642 159.491 M 125.579 166.913 Q 126.514 166.913, 127.015 166.466 Q 127.516 166.019, 127.516 165.166 Q 127.516 164.381, 126.961 163.988 Q 126.419 163.581, 125.376 163.581 L 123.642 163.581 L 123.642 166.913 L 125.579 166.913 " fill="#7F4C19"/>
<path class="atom-7" d="M 131.051 161.035 L 131.2 161.997 Q 131.931 160.913, 133.123 160.913 Q 133.502 160.913, 134.017 161.049 L 133.814 162.186 Q 133.232 162.051, 132.907 162.051 Q 132.338 162.051, 131.958 162.281 Q 131.593 162.498, 131.295 163.026 L 131.295 167.997 L 130.022 167.997 L 130.022 161.035 L 131.051 161.035 " fill="#7F4C19"/>
<path class="atom-14" d="M 185.296 109.093 L 188.438 114.172 Q 188.75 114.673, 189.251 115.58 Q 189.752 116.488, 189.779 116.542 L 189.779 109.093 L 191.052 109.093 L 191.052 118.682 L 189.739 118.682 L 186.366 113.129 Q 185.973 112.479, 185.553 111.734 Q 185.147 110.989, 185.025 110.759 L 185.025 118.682 L 183.779 118.682 L 183.779 109.093 L 185.296 109.093 " fill="#0000FF"/>
<path class="atom-16" d="M 163.004 214.206 Q 163.113 214.246, 163.56 214.436 Q 164.007 214.625, 164.494 214.747 Q 164.995 214.856, 165.483 214.856 Q 166.39 214.856, 166.919 214.422 Q 167.447 213.975, 167.447 213.203 Q 167.447 212.675, 167.176 212.35 Q 166.919 212.025, 166.512 211.849 Q 166.106 211.673, 165.429 211.47 Q 164.575 211.212, 164.061 210.969 Q 163.56 210.725, 163.194 210.21 Q 162.842 209.695, 162.842 208.829 Q 162.842 207.623, 163.654 206.878 Q 164.481 206.133, 166.106 206.133 Q 167.217 206.133, 168.476 206.661 L 168.165 207.704 Q 167.013 207.23, 166.147 207.23 Q 165.212 207.23, 164.697 207.623 Q 164.183 208.002, 164.196 208.666 Q 164.196 209.181, 164.454 209.492 Q 164.724 209.804, 165.104 209.98 Q 165.496 210.156, 166.147 210.359 Q 167.013 210.63, 167.528 210.901 Q 168.043 211.172, 168.408 211.727 Q 168.788 212.269, 168.788 213.203 Q 168.788 214.531, 167.894 215.249 Q 167.013 215.953, 165.537 215.953 Q 164.684 215.953, 164.034 215.763 Q 163.397 215.587, 162.639 215.276 L 163.004 214.206 " fill="#CCCC00"/>
<path class="atom-19" d="M 152.846 257.322 Q 152.846 255.019, 153.984 253.732 Q 155.121 252.446, 157.248 252.446 Q 159.374 252.446, 160.512 253.732 Q 161.65 255.019, 161.65 257.322 Q 161.65 259.651, 160.499 260.979 Q 159.347 262.292, 157.248 262.292 Q 155.135 262.292, 153.984 260.979 Q 152.846 259.665, 152.846 257.322 M 157.248 261.209 Q 158.711 261.209, 159.496 260.234 Q 160.295 259.245, 160.295 257.322 Q 160.295 255.439, 159.496 254.491 Q 158.711 253.529, 157.248 253.529 Q 155.785 253.529, 154.986 254.477 Q 154.2 255.425, 154.2 257.322 Q 154.2 259.259, 154.986 260.234 Q 155.785 261.209, 157.248 261.209 " fill="#FF0000"/>
<path class="atom-20" d="M 114.588 249.254 Q 114.588 246.951, 115.726 245.665 Q 116.863 244.378, 118.99 244.378 Q 121.116 244.378, 122.254 245.665 Q 123.392 246.951, 123.392 249.254 Q 123.392 251.583, 122.24 252.911 Q 121.089 254.225, 118.99 254.225 Q 116.877 254.225, 115.726 252.911 Q 114.588 251.597, 114.588 249.254 M 118.99 253.141 Q 120.453 253.141, 121.238 252.166 Q 122.037 251.177, 122.037 249.254 Q 122.037 247.371, 121.238 246.423 Q 120.453 245.461, 118.99 245.461 Q 117.527 245.461, 116.728 246.409 Q 115.942 247.358, 115.942 249.254 Q 115.942 251.191, 116.728 252.166 Q 117.527 253.141, 118.99 253.141 " fill="#FF0000"/>
<path class="atom-20" d="M 123.839 245.943 L 127.119 245.943 L 127.119 246.658 L 123.839 246.658 L 123.839 245.943 " fill="#FF0000"/>
<path class="atom-21" d="M 108.728 169.433 L 110.028 169.433 L 110.028 173.509 L 114.931 173.509 L 114.931 169.433 L 116.231 169.433 L 116.231 179.022 L 114.931 179.022 L 114.931 174.593 L 110.028 174.593 L 110.028 179.022 L 108.728 179.022 L 108.728 169.433 " fill="#000000"/>
<path class="atom-22" d="M 88.0907 160.281 L 89.3909 160.281 L 89.3909 164.358 L 94.294 164.358 L 94.294 160.281 L 95.5942 160.281 L 95.5942 169.871 L 94.294 169.871 L 94.294 165.442 L 89.3909 165.442 L 89.3909 169.871 L 88.0907 169.871 L 88.0907 160.281 " fill="#000000"/>
<path class="atom-23" d="M 202.626 197.582 L 203.926 197.582 L 203.926 201.659 L 208.829 201.659 L 208.829 197.582 L 210.129 197.582 L 210.129 207.172 L 208.829 207.172 L 208.829 202.743 L 203.926 202.743 L 203.926 207.172 L 202.626 207.172 L 202.626 197.582 " fill="#000000"/>
<path class="atom-24" d="M 236.202 167.252 L 237.503 167.252 L 237.503 171.329 L 242.406 171.329 L 242.406 167.252 L 243.706 167.252 L 243.706 176.841 L 242.406 176.841 L 242.406 172.412 L 237.503 172.412 L 237.503 176.841 L 236.202 176.841 L 236.202 167.252 " fill="#000000"/>
<path class="atom-25" d="M 226.721 123.007 L 228.022 123.007 L 228.022 127.084 L 232.925 127.084 L 232.925 123.007 L 234.225 123.007 L 234.225 132.597 L 232.925 132.597 L 232.925 128.168 L 228.022 128.168 L 228.022 132.597 L 226.721 132.597 L 226.721 123.007 " fill="#000000"/>
<path class="atom-26" d="M 162.183 102.153 L 163.483 102.153 L 163.483 106.23 L 168.386 106.23 L 168.386 102.153 L 169.686 102.153 L 169.686 111.743 L 168.386 111.743 L 168.386 107.314 L 163.483 107.314 L 163.483 111.743 L 162.183 111.743 L 162.183 102.153 " fill="#000000"/>
<path class="atom-27" d="M 150.088 139.427 L 151.388 139.427 L 151.388 143.504 L 156.291 143.504 L 156.291 139.427 L 157.591 139.427 L 157.591 149.017 L 156.291 149.017 L 156.291 144.588 L 151.388 144.588 L 151.388 149.017 L 150.088 149.017 L 150.088 139.427 " fill="#000000"/>
<path class="atom-28" d="M 200.414 93.9592 L 201.714 93.9592 L 201.714 98.036 L 206.617 98.036 L 206.617 93.9592 L 207.917 93.9592 L 207.917 103.549 L 206.617 103.549 L 206.617 99.1196 L 201.714 99.1196 L 201.714 103.549 L 200.414 103.549 L 200.414 93.9592 " fill="#000000"/>
<ellipse cx="358.759" cy="171.78" rx="7.44937" ry="7.44937" style="fill:#A19F62;fill-rule:evenodd;stroke:#A19F62;stroke-width:1px;stroke-linecap:butt;stroke-linejoin:miter;stroke-opacity:1"/>
<ellipse cx="371.935" cy="190.038" rx="7.44937" ry="7.44937" style="fill:#B8A444;fill-rule:evenodd;stroke:#B8A444;stroke-width:1px;stroke-linecap:butt;stroke-linejoin:miter;stroke-opacity:1"/>
<ellipse cx="364.514" cy="210.684" rx="8.86109" ry="7.44937" style="fill:#CFAA27;fill-rule:evenodd;stroke:#CFAA27;stroke-width:1px;stroke-linecap:butt;stroke-linejoin:miter;stroke-opacity:1"/>
<ellipse cx="394.392" cy="187.791" rx="7.44937" ry="7.44937" style="fill:#7C947A;fill-rule:evenodd;stroke:#7C947A;stroke-width:1px;stroke-linecap:butt;stroke-linejoin:miter;stroke-opacity:1"/>
<ellipse cx="407.589" cy="206.205" rx="7.44937" ry="7.44937" style="fill:#588A93;fill-rule:evenodd;stroke:#588A93;stroke-width:1px;stroke-linecap:butt;stroke-linejoin:miter;stroke-opacity:1"/>
<ellipse cx="429.846" cy="203.697" rx="7.44937" ry="7.44937" style="fill:#3D79AB;fill-rule:evenodd;stroke:#3D79AB;stroke-width:1px;stroke-linecap:butt;stroke-linejoin:miter;stroke-opacity:1"/>
<ellipse cx="441.464" cy="184.317" rx="7.44937" ry="7.44937" style="fill:#2269C4;fill-rule:evenodd;stroke:#2269C4;stroke-width:1px;stroke-linecap:butt;stroke-linejoin:miter;stroke-opacity:1"/>
<ellipse cx="428.421" cy="163.459" rx="8.24604" ry="7.44937" style="fill:#3053DA;fill-rule:evenodd;stroke:#3053DA;stroke-width:1px;stroke-linecap:butt;stroke-linejoin:miter;stroke-opacity:1"/>
<ellipse cx="463.733" cy="188.775" rx="7.44937" ry="7.44937" style="fill:#3E3EF0;fill-rule:evenodd;stroke:#3E3EF0;stroke-width:1px;stroke-linecap:butt;stroke-linejoin:miter;stroke-opacity:1"/>
<ellipse cx="480.61" cy="173.675" rx="7.44937" ry="7.44937" style="fill:#5446F4;fill-rule:evenodd;stroke:#5446F4;stroke-width:1px;stroke-linecap:butt;stroke-linejoin:miter;stroke-opacity:1"/>
<ellipse cx="502.424" cy="180.582" rx="7.44937" ry="7.44937" style="fill:#6B4EF9;fill-rule:evenodd;stroke:#6B4EF9;stroke-width:1px;stroke-linecap:butt;stroke-linejoin:miter;stroke-opacity:1"/>
<ellipse cx="518.37" cy="164.899" rx="7.44937" ry="7.44937" style="fill:#805CF9;fill-rule:evenodd;stroke:#805CF9;stroke-width:1px;stroke-linecap:butt;stroke-linejoin:miter;stroke-opacity:1"/>
<ellipse cx="513.56" cy="143.246" rx="7.44937" ry="7.44937" style="fill:#CFAA27;fill-rule:evenodd;stroke:#CFAA27;stroke-width:1px;stroke-linecap:butt;stroke-linejoin:miter;stroke-opacity:1"/>
<ellipse cx="491.484" cy="137.236" rx="7.44937" ry="7.44937" style="fill:#B8A444;fill-rule:evenodd;stroke:#B8A444;stroke-width:1px;stroke-linecap:butt;stroke-linejoin:miter;stroke-opacity:1"/>
<ellipse cx="485.131" cy="115.519" rx="7.44937" ry="7.44937" style="fill:#A19F62;fill-rule:evenodd;stroke:#A19F62;stroke-width:1px;stroke-linecap:butt;stroke-linejoin:miter;stroke-opacity:1"/>
<ellipse cx="474.941" cy="152.26" rx="7.44937" ry="7.44937" style="fill:#7C947A;fill-rule:evenodd;stroke:#7C947A;stroke-width:1px;stroke-linecap:butt;stroke-linejoin:miter;stroke-opacity:1"/>
<ellipse cx="465.724" cy="211.545" rx="7.44937" ry="7.44937" style="fill:#588A93;fill-rule:evenodd;stroke:#588A93;stroke-width:1px;stroke-linecap:butt;stroke-linejoin:miter;stroke-opacity:1"/>
<ellipse cx="445.233" cy="220.854" rx="7.44937" ry="7.44937" style="fill:#3D79AB;fill-rule:evenodd;stroke:#3D79AB;stroke-width:1px;stroke-linecap:butt;stroke-linejoin:miter;stroke-opacity:1"/>
<ellipse cx="440.373" cy="242.713" rx="7.44937" ry="7.44937" style="fill:#2269C4;fill-rule:evenodd;stroke:#2269C4;stroke-width:1px;stroke-linecap:butt;stroke-linejoin:miter;stroke-opacity:1"/>
<ellipse cx="457.126" cy="257.935" rx="7.44937" ry="7.44937" style="fill:#3053DA;fill-rule:evenodd;stroke:#3053DA;stroke-width:1px;stroke-linecap:butt;stroke-linejoin:miter;stroke-opacity:1"/>
<ellipse cx="420.765" cy="249.717" rx="8.86109" ry="7.44937" style="fill:#3E3EF0;fill-rule:evenodd;stroke:#3E3EF0;stroke-width:1px;stroke-linecap:butt;stroke-linejoin:miter;stroke-opacity:1"/>
<ellipse cx="412.716" cy="174.604" rx="7.44937" ry="7.44937" style="fill:#6B4EF9;fill-rule:evenodd;stroke:#6B4EF9;stroke-width:1px;stroke-linecap:butt;stroke-linejoin:miter;stroke-opacity:1"/>
<ellipse cx="392.139" cy="165.326" rx="7.44937" ry="7.44937" style="fill:#5446F4;fill-rule:evenodd;stroke:#5446F4;stroke-width:1px;stroke-linecap:butt;stroke-linejoin:miter;stroke-opacity:1"/>
<ellipse cx="507.622" cy="202.313" rx="7.44937" ry="7.44937" style="fill:#805CF9;fill-rule:evenodd;stroke:#805CF9;stroke-width:1px;stroke-linecap:butt;stroke-linejoin:miter;stroke-opacity:1"/>
<ellipse cx="540.236" cy="171.369" rx="7.44937" ry="7.44937" style="fill:#CFAA27;fill-rule:evenodd;stroke:#CFAA27;stroke-width:1px;stroke-linecap:butt;stroke-linejoin:miter;stroke-opacity:1"/>
<ellipse cx="529.728" cy="127.822" rx="7.44937" ry="7.44937" style="fill:#B8A444;fill-rule:evenodd;stroke:#B8A444;stroke-width:1px;stroke-linecap:butt;stroke-linejoin:miter;stroke-opacity:1"/>
<ellipse cx="453.515" cy="145.921" rx="7.44937" ry="7.44937" style="fill:#A19F62;fill-rule:evenodd;stroke:#A19F62;stroke-width:1px;stroke-linecap:butt;stroke-linejoin:miter;stroke-opacity:1"/>
<path class="bond-0" d="M 361.107,178.453 L 365.696,184.838" style="fill:none;fill-rule:evenodd;stroke:#FF0000;stroke-width:2.0px;stroke-linecap:butt;stroke-linejoin:miter;stroke-opacity:1"/>
<path class="bond-0" d="M 365.696,184.838 L 370.285,191.223" style="fill:none;fill-rule:evenodd;stroke:#000000;stroke-width:2.0px;stroke-linecap:butt;stroke-linejoin:miter;stroke-opacity:1"/>
<path class="bond-0" d="M 364.407,176.082 L 368.996,182.467" style="fill:none;fill-rule:evenodd;stroke:#FF0000;stroke-width:2.0px;stroke-linecap:butt;stroke-linejoin:miter;stroke-opacity:1"/>
<path class="bond-0" d="M 368.996,182.467 L 373.585,188.852" style="fill:none;fill-rule:evenodd;stroke:#000000;stroke-width:2.0px;stroke-linecap:butt;stroke-linejoin:miter;stroke-opacity:1"/>
<path class="bond-1" d="M 371.935,190.038 L 368.514,197.617" style="fill:none;fill-rule:evenodd;stroke:#000000;stroke-width:2.0px;stroke-linecap:butt;stroke-linejoin:miter;stroke-opacity:1"/>
<path class="bond-1" d="M 368.514,197.617 L 365.093,205.196" style="fill:none;fill-rule:evenodd;stroke:#FF0000;stroke-width:2.0px;stroke-linecap:butt;stroke-linejoin:miter;stroke-opacity:1"/>
<path class="bond-2" d="M 371.935,190.038 L 394.392,187.791" style="fill:none;fill-rule:evenodd;stroke:#000000;stroke-width:2.0px;stroke-linecap:butt;stroke-linejoin:miter;stroke-opacity:1"/>
<path class="bond-3" d="M 394.392,187.791 L 399.043,194.254" style="fill:none;fill-rule:evenodd;stroke:#000000;stroke-width:2.0px;stroke-linecap:butt;stroke-linejoin:miter;stroke-opacity:1"/>
<path class="bond-3" d="M 399.043,194.254 L 403.693,200.717" style="fill:none;fill-rule:evenodd;stroke:#FF0000;stroke-width:2.0px;stroke-linecap:butt;stroke-linejoin:miter;stroke-opacity:1"/>
<path class="bond-4" d="M 394.392,187.791 L 408.4,177.71" style="fill:none;fill-rule:evenodd;stroke:#000000;stroke-width:2.0px;stroke-linecap:butt;stroke-linejoin:miter;stroke-opacity:1"/>
<path class="bond-5" d="M 394.392,187.791 L 392.677,170.686" style="fill:none;fill-rule:evenodd;stroke:#000000;stroke-width:2.0px;stroke-linecap:butt;stroke-linejoin:miter;stroke-opacity:1"/>
<path class="bond-6" d="M 412.551,205.588 L 421.198,204.643" style="fill:none;fill-rule:evenodd;stroke:#FF0000;stroke-width:2.0px;stroke-linecap:butt;stroke-linejoin:miter;stroke-opacity:1"/>
<path class="bond-6" d="M 421.198,204.643 L 429.846,203.697" style="fill:none;fill-rule:evenodd;stroke:#000000;stroke-width:2.0px;stroke-linecap:butt;stroke-linejoin:miter;stroke-opacity:1"/>
<path class="bond-7" d="M 429.846,203.697 L 441.464,184.317" style="fill:none;fill-rule:evenodd;stroke:#000000;stroke-width:2.0px;stroke-linecap:butt;stroke-linejoin:miter;stroke-opacity:1"/>
<path class="bond-8" d="M 429.846,203.697 L 445.233,220.854" style="fill:none;fill-rule:evenodd;stroke:#000000;stroke-width:2.0px;stroke-linecap:butt;stroke-linejoin:miter;stroke-opacity:1"/>
<path class="bond-8" d="M 435.179,203.558 L 445.95,215.567" style="fill:none;fill-rule:evenodd;stroke:#000000;stroke-width:2.0px;stroke-linecap:butt;stroke-linejoin:miter;stroke-opacity:1"/>
<path class="bond-9" d="M 441.464,184.317 L 438.044,176.57" style="fill:none;fill-rule:evenodd;stroke:#000000;stroke-width:2.0px;stroke-linecap:butt;stroke-linejoin:miter;stroke-opacity:1"/>
<path class="bond-9" d="M 438.044,176.57 L 434.623,168.823" style="fill:none;fill-rule:evenodd;stroke:#7F4C19;stroke-width:2.0px;stroke-linecap:butt;stroke-linejoin:miter;stroke-opacity:1"/>
<path class="bond-10" d="M 441.464,184.317 L 463.733,188.775" style="fill:none;fill-rule:evenodd;stroke:#000000;stroke-width:2.0px;stroke-linecap:butt;stroke-linejoin:miter;stroke-opacity:1"/>
<path class="bond-10" d="M 444.007,188.97 L 459.595,192.091" style="fill:none;fill-rule:evenodd;stroke:#000000;stroke-width:2.0px;stroke-linecap:butt;stroke-linejoin:miter;stroke-opacity:1"/>
<path class="bond-11" d="M 463.733,188.775 L 480.61,173.675" style="fill:none;fill-rule:evenodd;stroke:#000000;stroke-width:2.0px;stroke-linecap:butt;stroke-linejoin:miter;stroke-opacity:1"/>
<path class="bond-12" d="M 463.733,188.775 L 464.493,197.421" style="fill:none;fill-rule:evenodd;stroke:#000000;stroke-width:2.0px;stroke-linecap:butt;stroke-linejoin:miter;stroke-opacity:1"/>
<path class="bond-12" d="M 464.493,197.421 L 465.254,206.067" style="fill:none;fill-rule:evenodd;stroke:#CCCC00;stroke-width:2.0px;stroke-linecap:butt;stroke-linejoin:miter;stroke-opacity:1"/>
<path class="bond-13" d="M 480.61,173.675 L 502.424,180.582" style="fill:none;fill-rule:evenodd;stroke:#000000;stroke-width:2.0px;stroke-linecap:butt;stroke-linejoin:miter;stroke-opacity:1"/>
<path class="bond-13" d="M 485.108,170.837 L 500.379,175.672" style="fill:none;fill-rule:evenodd;stroke:#000000;stroke-width:2.0px;stroke-linecap:butt;stroke-linejoin:miter;stroke-opacity:1"/>
<path class="bond-14" d="M 480.61,173.675 L 474.941,152.26" style="fill:none;fill-rule:evenodd;stroke:#000000;stroke-width:2.0px;stroke-linecap:butt;stroke-linejoin:miter;stroke-opacity:1"/>
<path class="bond-15" d="M 502.424,180.582 L 518.37,164.899" style="fill:none;fill-rule:evenodd;stroke:#000000;stroke-width:2.0px;stroke-linecap:butt;stroke-linejoin:miter;stroke-opacity:1"/>
<path class="bond-16" d="M 502.424,180.582 L 506.342,196.96" style="fill:none;fill-rule:evenodd;stroke:#000000;stroke-width:2.0px;stroke-linecap:butt;stroke-linejoin:miter;stroke-opacity:1"/>
<path class="bond-17" d="M 518.37,164.899 L 513.56,143.246" style="fill:none;fill-rule:evenodd;stroke:#000000;stroke-width:2.0px;stroke-linecap:butt;stroke-linejoin:miter;stroke-opacity:1"/>
<path class="bond-17" d="M 513.682,162.532 L 510.315,147.375" style="fill:none;fill-rule:evenodd;stroke:#000000;stroke-width:2.0px;stroke-linecap:butt;stroke-linejoin:miter;stroke-opacity:1"/>
<path class="bond-18" d="M 518.37,164.899 L 535.914,170.09" style="fill:none;fill-rule:evenodd;stroke:#000000;stroke-width:2.0px;stroke-linecap:butt;stroke-linejoin:miter;stroke-opacity:1"/>
<path class="bond-19" d="M 513.56,143.246 L 491.484,137.236" style="fill:none;fill-rule:evenodd;stroke:#000000;stroke-width:2.0px;stroke-linecap:butt;stroke-linejoin:miter;stroke-opacity:1"/>
<path class="bond-20" d="M 513.56,143.246 L 525.417,131.934" style="fill:none;fill-rule:evenodd;stroke:#000000;stroke-width:2.0px;stroke-linecap:butt;stroke-linejoin:miter;stroke-opacity:1"/>
<path class="bond-21" d="M 491.484,137.236 L 489.091,129.058" style="fill:none;fill-rule:evenodd;stroke:#000000;stroke-width:2.0px;stroke-linecap:butt;stroke-linejoin:miter;stroke-opacity:1"/>
<path class="bond-21" d="M 489.091,129.058 L 486.699,120.88" style="fill:none;fill-rule:evenodd;stroke:#0000FF;stroke-width:2.0px;stroke-linecap:butt;stroke-linejoin:miter;stroke-opacity:1"/>
<path class="bond-22" d="M 491.484,137.236 L 474.941,152.26" style="fill:none;fill-rule:evenodd;stroke:#000000;stroke-width:2.0px;stroke-linecap:butt;stroke-linejoin:miter;stroke-opacity:1"/>
<path class="bond-22" d="M 491.734,142.498 L 480.154,153.014" style="fill:none;fill-rule:evenodd;stroke:#000000;stroke-width:2.0px;stroke-linecap:butt;stroke-linejoin:miter;stroke-opacity:1"/>
<path class="bond-23" d="M 480.93,114.759 L 474.031,113.51" style="fill:none;fill-rule:evenodd;stroke:#0000FF;stroke-width:2.0px;stroke-linecap:butt;stroke-linejoin:miter;stroke-opacity:1"/>
<path class="bond-23" d="M 474.031,113.51 L 467.132,112.262" style="fill:none;fill-rule:evenodd;stroke:#000000;stroke-width:2.0px;stroke-linecap:butt;stroke-linejoin:miter;stroke-opacity:1"/>
<path class="bond-24" d="M 489.382,111.213 L 495.893,104.619" style="fill:none;fill-rule:evenodd;stroke:#0000FF;stroke-width:2.0px;stroke-linecap:butt;stroke-linejoin:miter;stroke-opacity:1"/>
<path class="bond-24" d="M 495.893,104.619 L 502.404,98.0238" style="fill:none;fill-rule:evenodd;stroke:#000000;stroke-width:2.0px;stroke-linecap:butt;stroke-linejoin:miter;stroke-opacity:1"/>
<path class="bond-25" d="M 474.941,152.26 L 457.825,147.196" style="fill:none;fill-rule:evenodd;stroke:#000000;stroke-width:2.0px;stroke-linecap:butt;stroke-linejoin:miter;stroke-opacity:1"/>
<path class="bond-26" d="M 462.086,213.092 L 453.659,216.973" style="fill:none;fill-rule:evenodd;stroke:#CCCC00;stroke-width:2.0px;stroke-linecap:butt;stroke-linejoin:miter;stroke-opacity:1"/>
<path class="bond-26" d="M 453.659,216.973 L 445.233,220.854" style="fill:none;fill-rule:evenodd;stroke:#000000;stroke-width:2.0px;stroke-linecap:butt;stroke-linejoin:miter;stroke-opacity:1"/>
<path class="bond-27" d="M 445.233,220.854 L 440.373,242.713" style="fill:none;fill-rule:evenodd;stroke:#000000;stroke-width:2.0px;stroke-linecap:butt;stroke-linejoin:miter;stroke-opacity:1"/>
<path class="bond-28" d="M 439.011,244.219 L 444.904,249.548" style="fill:none;fill-rule:evenodd;stroke:#000000;stroke-width:2.0px;stroke-linecap:butt;stroke-linejoin:miter;stroke-opacity:1"/>
<path class="bond-28" d="M 444.904,249.548 L 450.796,254.877" style="fill:none;fill-rule:evenodd;stroke:#FF0000;stroke-width:2.0px;stroke-linecap:butt;stroke-linejoin:miter;stroke-opacity:1"/>
<path class="bond-28" d="M 441.736,241.206 L 447.629,246.534" style="fill:none;fill-rule:evenodd;stroke:#000000;stroke-width:2.0px;stroke-linecap:butt;stroke-linejoin:miter;stroke-opacity:1"/>
<path class="bond-28" d="M 447.629,246.534 L 453.522,251.863" style="fill:none;fill-rule:evenodd;stroke:#FF0000;stroke-width:2.0px;stroke-linecap:butt;stroke-linejoin:miter;stroke-opacity:1"/>
<path class="bond-29" d="M 440.373,242.713 L 433.984,244.775" style="fill:none;fill-rule:evenodd;stroke:#000000;stroke-width:2.0px;stroke-linecap:butt;stroke-linejoin:miter;stroke-opacity:1"/>
<path class="bond-29" d="M 433.984,244.775 L 427.595,246.837" style="fill:none;fill-rule:evenodd;stroke:#FF0000;stroke-width:2.0px;stroke-linecap:butt;stroke-linejoin:miter;stroke-opacity:1"/>
<path class="bond-30" d="M 511.244,111.189 L 502.404,98.0238" style="fill:none;fill-rule:evenodd;stroke:#000000;stroke-width:2.0px;stroke-linecap:butt;stroke-linejoin:miter;stroke-opacity:1"/>
<path class="bond-31" d="M 502.404,98.0238 L 486.94,81.0446" style="fill:none;fill-rule:evenodd;stroke:#000000;stroke-width:2.0px;stroke-linecap:butt;stroke-linejoin:miter;stroke-opacity:1"/>
<path class="bond-32" d="M 502.404,98.0238 L 523.078,87.849" style="fill:none;fill-rule:evenodd;stroke:#000000;stroke-width:2.0px;stroke-linecap:butt;stroke-linejoin:miter;stroke-opacity:1"/>
<path class="bond-33" d="M 486.94,81.0446 L 497.678,60.7827" style="fill:none;fill-rule:evenodd;stroke:#000000;stroke-width:2.0px;stroke-linecap:butt;stroke-linejoin:miter;stroke-opacity:1"/>
<path class="bond-34" d="M 486.94,81.0446 L 472.909,70.8663" style="fill:none;fill-rule:evenodd;stroke:#000000;stroke-width:2.0px;stroke-linecap:butt;stroke-linejoin:miter;stroke-opacity:1"/>
<path class="bond-35" d="M 486.94,81.0446 L 476.746,90.7325" style="fill:none;fill-rule:evenodd;stroke:#000000;stroke-width:2.0px;stroke-linecap:butt;stroke-linejoin:miter;stroke-opacity:1"/>
<path class="bond-36" d="M 497.678,60.7827 L 520.195,65.4165" style="fill:none;fill-rule:evenodd;stroke:#000000;stroke-width:2.0px;stroke-linecap:butt;stroke-linejoin:miter;stroke-opacity:1"/>
<path class="bond-37" d="M 497.678,60.7827 L 502.707,44.7648" style="fill:none;fill-rule:evenodd;stroke:#000000;stroke-width:2.0px;stroke-linecap:butt;stroke-linejoin:miter;stroke-opacity:1"/>
<path class="bond-38" d="M 497.678,60.7827 L 481.542,53.7189" style="fill:none;fill-rule:evenodd;stroke:#000000;stroke-width:2.0px;stroke-linecap:butt;stroke-linejoin:miter;stroke-opacity:1"/>
<path class="bond-39" d="M 520.195,65.4165 L 523.078,87.849" style="fill:none;fill-rule:evenodd;stroke:#000000;stroke-width:2.0px;stroke-linecap:butt;stroke-linejoin:miter;stroke-opacity:1"/>
<path class="bond-40" d="M 520.195,65.4165 L 538.461,64.7582" style="fill:none;fill-rule:evenodd;stroke:#000000;stroke-width:2.0px;stroke-linecap:butt;stroke-linejoin:miter;stroke-opacity:1"/>
<path class="bond-41" d="M 520.195,65.4165 L 521.684,48.0816" style="fill:none;fill-rule:evenodd;stroke:#000000;stroke-width:2.0px;stroke-linecap:butt;stroke-linejoin:miter;stroke-opacity:1"/>
<path class="bond-42" d="M 523.078,87.849 L 529.313,103.568" style="fill:none;fill-rule:evenodd;stroke:#000000;stroke-width:2.0px;stroke-linecap:butt;stroke-linejoin:miter;stroke-opacity:1"/>
<path class="bond-43" d="M 523.078,87.849 L 540.722,83.6065" style="fill:none;fill-rule:evenodd;stroke:#000000;stroke-width:2.0px;stroke-linecap:butt;stroke-linejoin:miter;stroke-opacity:1"/>
<path class="atom-0" d="M 354.357 171.732 Q 354.357 169.43, 355.495 168.143 Q 356.633 166.856, 358.759 166.856 Q 360.886 166.856, 362.023 168.143 Q 363.161 169.43, 363.161 171.732 Q 363.161 174.062, 362.01 175.389 Q 360.859 176.703, 358.759 176.703 Q 356.646 176.703, 355.495 175.389 Q 354.357 174.075, 354.357 171.732 M 358.759 175.619 Q 360.222 175.619, 361.008 174.644 Q 361.807 173.656, 361.807 171.732 Q 361.807 169.85, 361.008 168.901 Q 360.222 167.94, 358.759 167.94 Q 357.296 167.94, 356.497 168.888 Q 355.712 169.836, 355.712 171.732 Q 355.712 173.669, 356.497 174.644 Q 357.296 175.619, 358.759 175.619 " fill="#FF0000"/>
<path class="atom-2" d="M 358.248 210.636 Q 358.248 208.334, 359.386 207.047 Q 360.524 205.761, 362.65 205.761 Q 364.777 205.761, 365.914 207.047 Q 367.052 208.334, 367.052 210.636 Q 367.052 212.966, 365.901 214.293 Q 364.75 215.607, 362.65 215.607 Q 360.537 215.607, 359.386 214.293 Q 358.248 212.98, 358.248 210.636 M 362.65 214.524 Q 364.113 214.524, 364.899 213.548 Q 365.698 212.56, 365.698 210.636 Q 365.698 208.754, 364.899 207.806 Q 364.113 206.844, 362.65 206.844 Q 361.187 206.844, 360.388 207.792 Q 359.603 208.74, 359.603 210.636 Q 359.603 212.573, 360.388 213.548 Q 361.187 214.524, 362.65 214.524 " fill="#FF0000"/>
<path class="atom-2" d="M 367.499 207.326 L 370.78 207.326 L 370.78 208.041 L 367.499 208.041 L 367.499 207.326 " fill="#FF0000"/>
<path class="atom-4" d="M 403.187 206.158 Q 403.187 203.855, 404.325 202.568 Q 405.462 201.282, 407.589 201.282 Q 409.715 201.282, 410.853 202.568 Q 411.991 203.855, 411.991 206.158 Q 411.991 208.487, 410.84 209.815 Q 409.688 211.128, 407.589 211.128 Q 405.476 211.128, 404.325 209.815 Q 403.187 208.501, 403.187 206.158 M 407.589 210.045 Q 409.052 210.045, 409.837 209.07 Q 410.636 208.081, 410.636 206.158 Q 410.636 204.275, 409.837 203.327 Q 409.052 202.365, 407.589 202.365 Q 406.126 202.365, 405.327 203.313 Q 404.541 204.261, 404.541 206.158 Q 404.541 208.094, 405.327 209.07 Q 406.126 210.045, 407.589 210.045 " fill="#FF0000"/>
<path class="atom-7" d="M 427.25 163.215 Q 428.171 163.472, 428.631 164.041 Q 429.105 164.596, 429.105 165.422 Q 429.105 166.75, 428.252 167.508 Q 427.412 168.253, 425.814 168.253 L 422.591 168.253 L 422.591 158.664 L 425.421 158.664 Q 427.06 158.664, 427.886 159.327 Q 428.713 159.991, 428.713 161.21 Q 428.713 162.659, 427.25 163.215 M 423.877 159.747 L 423.877 162.754 L 425.421 162.754 Q 426.369 162.754, 426.857 162.375 Q 427.358 161.982, 427.358 161.21 Q 427.358 159.747, 425.421 159.747 L 423.877 159.747 M 425.814 167.17 Q 426.749 167.17, 427.25 166.723 Q 427.751 166.276, 427.751 165.422 Q 427.751 164.637, 427.196 164.244 Q 426.654 163.838, 425.611 163.838 L 423.877 163.838 L 423.877 167.17 L 425.814 167.17 " fill="#7F4C19"/>
<path class="atom-7" d="M 431.286 161.291 L 431.435 162.253 Q 432.166 161.17, 433.358 161.17 Q 433.738 161.17, 434.252 161.305 L 434.049 162.443 Q 433.467 162.307, 433.142 162.307 Q 432.573 162.307, 432.194 162.537 Q 431.828 162.754, 431.53 163.282 L 431.53 168.253 L 430.257 168.253 L 430.257 161.291 L 431.286 161.291 " fill="#7F4C19"/>
<path class="atom-14" d="M 483.011 110.725 L 486.153 115.804 Q 486.465 116.305, 486.966 117.212 Q 487.467 118.12, 487.494 118.174 L 487.494 110.725 L 488.767 110.725 L 488.767 120.314 L 487.454 120.314 L 484.081 114.761 Q 483.688 114.111, 483.268 113.366 Q 482.862 112.621, 482.74 112.391 L 482.74 120.314 L 481.494 120.314 L 481.494 110.725 L 483.011 110.725 " fill="#0000FF"/>
<path class="atom-16" d="M 463.016 214.708 Q 463.124 214.749, 463.571 214.938 Q 464.018 215.128, 464.505 215.25 Q 465.007 215.358, 465.494 215.358 Q 466.402 215.358, 466.93 214.925 Q 467.458 214.478, 467.458 213.706 Q 467.458 213.177, 467.187 212.852 Q 466.93 212.527, 466.524 212.351 Q 466.117 212.175, 465.44 211.972 Q 464.587 211.715, 464.072 211.471 Q 463.571 211.227, 463.205 210.712 Q 462.853 210.198, 462.853 209.331 Q 462.853 208.125, 463.666 207.381 Q 464.492 206.636, 466.117 206.636 Q 467.228 206.636, 468.488 207.164 L 468.176 208.207 Q 467.025 207.733, 466.158 207.733 Q 465.223 207.733, 464.709 208.125 Q 464.194 208.505, 464.208 209.168 Q 464.208 209.683, 464.465 209.995 Q 464.736 210.306, 465.115 210.482 Q 465.508 210.658, 466.158 210.861 Q 467.025 211.132, 467.539 211.403 Q 468.054 211.674, 468.42 212.229 Q 468.799 212.771, 468.799 213.706 Q 468.799 215.033, 467.905 215.751 Q 467.025 216.455, 465.548 216.455 Q 464.695 216.455, 464.045 216.266 Q 463.408 216.09, 462.65 215.778 L 463.016 214.708 " fill="#CCCC00"/>
<path class="atom-19" d="M 452.724 257.888 Q 452.724 255.585, 453.861 254.299 Q 454.999 253.012, 457.126 253.012 Q 459.252 253.012, 460.39 254.299 Q 461.528 255.585, 461.528 257.888 Q 461.528 260.217, 460.376 261.545 Q 459.225 262.859, 457.126 262.859 Q 455.013 262.859, 453.861 261.545 Q 452.724 260.231, 452.724 257.888 M 457.126 261.775 Q 458.588 261.775, 459.374 260.8 Q 460.173 259.811, 460.173 257.888 Q 460.173 256.005, 459.374 255.057 Q 458.588 254.095, 457.126 254.095 Q 455.663 254.095, 454.864 255.044 Q 454.078 255.992, 454.078 257.888 Q 454.078 259.825, 454.864 260.8 Q 455.663 261.775, 457.126 261.775 " fill="#FF0000"/>
<path class="atom-20" d="M 414.499 249.669 Q 414.499 247.367, 415.637 246.08 Q 416.774 244.793, 418.901 244.793 Q 421.027 244.793, 422.165 246.08 Q 423.303 247.367, 423.303 249.669 Q 423.303 251.999, 422.152 253.326 Q 421 254.64, 418.901 254.64 Q 416.788 254.64, 415.637 253.326 Q 414.499 252.013, 414.499 249.669 M 418.901 253.557 Q 420.364 253.557, 421.149 252.581 Q 421.948 251.593, 421.948 249.669 Q 421.948 247.787, 421.149 246.839 Q 420.364 245.877, 418.901 245.877 Q 417.438 245.877, 416.639 246.825 Q 415.853 247.773, 415.853 249.669 Q 415.853 251.606, 416.639 252.581 Q 417.438 253.557, 418.901 253.557 " fill="#FF0000"/>
<path class="atom-20" d="M 423.75 246.359 L 427.03 246.359 L 427.03 247.074 L 423.75 247.074 L 423.75 246.359 " fill="#FF0000"/>
<path class="atom-21" d="M 408.964 169.809 L 410.265 169.809 L 410.265 173.886 L 415.168 173.886 L 415.168 169.809 L 416.468 169.809 L 416.468 179.399 L 415.168 179.399 L 415.168 174.97 L 410.265 174.97 L 410.265 179.399 L 408.964 179.399 L 408.964 169.809 " fill="#000000"/>
<path class="atom-22" d="M 388.388 160.532 L 389.688 160.532 L 389.688 164.609 L 394.591 164.609 L 394.591 160.532 L 395.891 160.532 L 395.891 170.121 L 394.591 170.121 L 394.591 165.692 L 389.688 165.692 L 389.688 170.121 L 388.388 170.121 L 388.388 160.532 " fill="#000000"/>
<path class="atom-23" d="M 503.871 197.519 L 505.171 197.519 L 505.171 201.595 L 510.074 201.595 L 510.074 197.519 L 511.374 197.519 L 511.374 207.108 L 510.074 207.108 L 510.074 202.679 L 505.171 202.679 L 505.171 207.108 L 503.871 207.108 L 503.871 197.519 " fill="#000000"/>
<path class="atom-24" d="M 536.484 166.575 L 537.784 166.575 L 537.784 170.651 L 542.687 170.651 L 542.687 166.575 L 543.988 166.575 L 543.988 176.164 L 542.687 176.164 L 542.687 171.735 L 537.784 171.735 L 537.784 176.164 L 536.484 176.164 L 536.484 166.575 " fill="#000000"/>
<path class="atom-25" d="M 525.976 123.027 L 527.276 123.027 L 527.276 127.104 L 532.179 127.104 L 532.179 123.027 L 533.48 123.027 L 533.48 132.617 L 532.179 132.617 L 532.179 128.188 L 527.276 128.188 L 527.276 132.617 L 525.976 132.617 L 525.976 123.027 " fill="#000000"/>
<path class="atom-26" d="M 459.171 106.705 L 460.472 106.705 L 460.472 110.782 L 465.375 110.782 L 465.375 106.705 L 466.675 106.705 L 466.675 116.294 L 465.375 116.294 L 465.375 111.865 L 460.472 111.865 L 460.472 116.294 L 459.171 116.294 L 459.171 106.705 " fill="#000000"/>
<path class="atom-27" d="M 511.087 111.746 L 512.387 111.746 L 512.387 115.823 L 517.29 115.823 L 517.29 111.746 L 518.591 111.746 L 518.591 121.336 L 517.29 121.336 L 517.29 116.907 L 512.387 116.907 L 512.387 121.336 L 511.087 121.336 L 511.087 111.746 " fill="#000000"/>
<path class="atom-28" d="M 449.763 141.126 L 451.063 141.126 L 451.063 145.203 L 455.966 145.203 L 455.966 141.126 L 457.267 141.126 L 457.267 150.715 L 455.966 150.715 L 455.966 146.286 L 451.063 146.286 L 451.063 150.715 L 449.763 150.715 L 449.763 141.126 " fill="#000000"/>
<path class="atom-34" d="M 464.838 62.9391 L 466.138 62.9391 L 466.138 67.016 L 471.042 67.016 L 471.042 62.9391 L 472.342 62.9391 L 472.342 72.5285 L 471.042 72.5285 L 471.042 68.0995 L 466.138 68.0995 L 466.138 72.5285 L 464.838 72.5285 L 464.838 62.9391 " fill="#000000"/>
<path class="atom-35" d="M 468.744 89.9765 L 470.044 89.9765 L 470.044 94.0533 L 474.947 94.0533 L 474.947 89.9765 L 476.248 89.9765 L 476.248 99.5659 L 474.947 99.5659 L 474.947 95.1369 L 470.044 95.1369 L 470.044 99.5659 L 468.744 99.5659 L 468.744 89.9765 " fill="#000000"/>
<path class="atom-36" d="M 500.636 34.6154 L 501.936 34.6154 L 501.936 38.6922 L 506.84 38.6922 L 506.84 34.6154 L 508.14 34.6154 L 508.14 44.2048 L 506.84 44.2048 L 506.84 39.7758 L 501.936 39.7758 L 501.936 44.2048 L 500.636 44.2048 L 500.636 34.6154 " fill="#000000"/>
<path class="atom-37" d="M 473.481 47.0376 L 474.781 47.0376 L 474.781 51.1144 L 479.684 51.1144 L 479.684 47.0376 L 480.984 47.0376 L 480.984 56.627 L 479.684 56.627 L 479.684 52.198 L 474.781 52.198 L 474.781 56.627 L 473.481 56.627 L 473.481 47.0376 " fill="#000000"/>
<path class="atom-38" d="M 539.026 59.808 L 540.326 59.808 L 540.326 63.8848 L 545.229 63.8848 L 545.229 59.808 L 546.529 59.808 L 546.529 69.3973 L 545.229 69.3973 L 545.229 64.9684 L 540.326 64.9684 L 540.326 69.3973 L 539.026 69.3973 L 539.026 59.808 " fill="#000000"/>
<path class="atom-39" d="M 518.392 37.9227 L 519.693 37.9227 L 519.693 41.9995 L 524.596 41.9995 L 524.596 37.9227 L 525.896 37.9227 L 525.896 47.5121 L 524.596 47.5121 L 524.596 43.0831 L 519.693 43.0831 L 519.693 47.5121 L 518.392 47.5121 L 518.392 37.9227 " fill="#000000"/>
<path class="atom-40" d="M 527.688 104.135 L 528.988 104.135 L 528.988 108.212 L 533.891 108.212 L 533.891 104.135 L 535.191 104.135 L 535.191 113.724 L 533.891 113.724 L 533.891 109.295 L 528.988 109.295 L 528.988 113.724 L 527.688 113.724 L 527.688 104.135 " fill="#000000"/>
<path class="atom-41" d="M 541.286 77.7739 L 542.586 77.7739 L 542.586 81.8507 L 547.489 81.8507 L 547.489 77.7739 L 548.79 77.7739 L 548.79 87.3633 L 547.489 87.3633 L 547.489 82.9343 L 542.586 82.9343 L 542.586 87.3633 L 541.286 87.3633 L 541.286 77.7739 " fill="#000000"/>
<text x="300" y="20" font-size="20" font-family="sans-serif" font-weight="normal" letter-spacing="0" text-anchor="middle" fill="black">ptp1b: 23466 -&gt; 23475</text><text x="300" y="35" font-size="15" font-family="sans-serif" font-weight="normal" letter-spacing="0" text-anchor="middle" fill="black">complex (repeats 4, 5, 6), water (repeats 4, 5, 6), DDG_exp = -0.88 (0.0) kcal/mol</text><text x="150" y="285" font-size="15" font-family="sans-serif" font-weight="normal" letter-spacing="0" text-anchor="middle" fill="black">23466</text><text x="450" y="285" font-size="15" font-family="sans-serif" font-weight="normal" letter-spacing="0" text-anchor="middle" fill="black">23475</text></svg>
