<?xml version='1.0' encoding='ASCII' standalone='yes'?>
<svg xmlns="http://www.w3.org/2000/svg" xmlns:rdkit="http://www.rdkit.org/xml" xmlns:xlink="http://www.w3.org/1999/xlink" version="1.1" baseProfile="full" xml:space="preserve" width="600px" height="300px" viewBox="0 0 600 300">
<!-- END OF HEADER -->
<rect style="opacity:1.0;fill:#FFFFFF;stroke:none" width="600" height="300" x="0" y="0"> </rect>
<rect style="opacity:1.0;fill:#FFFFFF;stroke:none" width="600" height="300" x="0" y="0"> </rect>
<rect style="opacity:1.0;fill:#FFFFFF;stroke:none" width="600" height="300" x="0" y="0"> </rect>
<ellipse cx="58.9811" cy="172.124" rx="7.47426" ry="7.47426" style="fill:#CFAA27;fill-rule:evenodd;stroke:#CFAA27;stroke-width:1px;stroke-linecap:butt;stroke-linejoin:miter;stroke-opacity:1"/>
<ellipse cx="72.3261" cy="190.349" rx="7.47426" ry="7.47426" style="fill:#B8A444;fill-rule:evenodd;stroke:#B8A444;stroke-width:1px;stroke-linecap:butt;stroke-linejoin:miter;stroke-opacity:1"/>
<ellipse cx="65.0187" cy="211.13" rx="8.89069" ry="7.47426" style="fill:#A19F62;fill-rule:evenodd;stroke:#A19F62;stroke-width:1px;stroke-linecap:butt;stroke-linejoin:miter;stroke-opacity:1"/>
<ellipse cx="94.8485" cy="187.944" rx="7.47426" ry="7.47426" style="fill:#7C947A;fill-rule:evenodd;stroke:#7C947A;stroke-width:1px;stroke-linecap:butt;stroke-linejoin:miter;stroke-opacity:1"/>
<ellipse cx="108.193" cy="206.319" rx="7.47426" ry="7.47426" style="fill:#588A93;fill-rule:evenodd;stroke:#588A93;stroke-width:1px;stroke-linecap:butt;stroke-linejoin:miter;stroke-opacity:1"/>
<ellipse cx="130.716" cy="203.839" rx="7.47426" ry="7.47426" style="fill:#3D79AB;fill-rule:evenodd;stroke:#3D79AB;stroke-width:1px;stroke-linecap:butt;stroke-linejoin:miter;stroke-opacity:1"/>
<ellipse cx="142.009" cy="184.207" rx="7.47426" ry="7.47426" style="fill:#2269C4;fill-rule:evenodd;stroke:#2269C4;stroke-width:1px;stroke-linecap:butt;stroke-linejoin:miter;stroke-opacity:1"/>
<ellipse cx="128.913" cy="163.533" rx="8.27358" ry="7.47426" style="fill:#3053DA;fill-rule:evenodd;stroke:#3053DA;stroke-width:1px;stroke-linecap:butt;stroke-linejoin:miter;stroke-opacity:1"/>
<ellipse cx="164.169" cy="188.877" rx="7.47426" ry="7.47426" style="fill:#3E3EF0;fill-rule:evenodd;stroke:#3E3EF0;stroke-width:1px;stroke-linecap:butt;stroke-linejoin:miter;stroke-opacity:1"/>
<ellipse cx="181.011" cy="173.661" rx="7.47426" ry="7.47426" style="fill:#5446F4;fill-rule:evenodd;stroke:#5446F4;stroke-width:1px;stroke-linecap:butt;stroke-linejoin:miter;stroke-opacity:1"/>
<ellipse cx="202.614" cy="180.637" rx="7.47426" ry="7.47426" style="fill:#6B4EF9;fill-rule:evenodd;stroke:#6B4EF9;stroke-width:1px;stroke-linecap:butt;stroke-linejoin:miter;stroke-opacity:1"/>
<ellipse cx="219.456" cy="165.422" rx="7.47426" ry="7.47426" style="fill:#805CF9;fill-rule:evenodd;stroke:#805CF9;stroke-width:1px;stroke-linecap:butt;stroke-linejoin:miter;stroke-opacity:1"/>
<ellipse cx="214.699" cy="143.225" rx="7.47426" ry="7.47426" style="fill:#CFAA27;fill-rule:evenodd;stroke:#CFAA27;stroke-width:1px;stroke-linecap:butt;stroke-linejoin:miter;stroke-opacity:1"/>
<ellipse cx="193.101" cy="136.245" rx="7.47426" ry="7.47426" style="fill:#B8A444;fill-rule:evenodd;stroke:#B8A444;stroke-width:1px;stroke-linecap:butt;stroke-linejoin:miter;stroke-opacity:1"/>
<ellipse cx="188.345" cy="114.123" rx="11.3246" ry="11.3246" style="fill:#F968C4;fill-rule:evenodd;stroke:#F968C4;stroke-width:1px;stroke-linecap:butt;stroke-linejoin:miter;stroke-opacity:1"/>
<ellipse cx="166.792" cy="107.086" rx="11.3246" ry="11.3246" style="fill:#F155A6;fill-rule:evenodd;stroke:#F155A6;stroke-width:1px;stroke-linecap:butt;stroke-linejoin:miter;stroke-opacity:1"/>
<ellipse cx="176.255" cy="151.465" rx="7.47426" ry="7.47426" style="fill:#588A93;fill-rule:evenodd;stroke:#588A93;stroke-width:1px;stroke-linecap:butt;stroke-linejoin:miter;stroke-opacity:1"/>
<ellipse cx="166.574" cy="211.529" rx="7.47426" ry="7.47426" style="fill:#3D79AB;fill-rule:evenodd;stroke:#3D79AB;stroke-width:1px;stroke-linecap:butt;stroke-linejoin:miter;stroke-opacity:1"/>
<ellipse cx="145.9" cy="220.645" rx="7.47426" ry="7.47426" style="fill:#2269C4;fill-rule:evenodd;stroke:#2269C4;stroke-width:1px;stroke-linecap:butt;stroke-linejoin:miter;stroke-opacity:1"/>
<ellipse cx="141.23" cy="242.805" rx="7.47426" ry="7.47426" style="fill:#3053DA;fill-rule:evenodd;stroke:#3053DA;stroke-width:1px;stroke-linecap:butt;stroke-linejoin:miter;stroke-opacity:1"/>
<ellipse cx="119.704" cy="249.915" rx="7.47426" ry="7.47426" style="fill:#3E3EF0;fill-rule:evenodd;stroke:#3E3EF0;stroke-width:1px;stroke-linecap:butt;stroke-linejoin:miter;stroke-opacity:1"/>
<ellipse cx="159.955" cy="258.005" rx="8.89069" ry="7.47426" style="fill:#5446F4;fill-rule:evenodd;stroke:#5446F4;stroke-width:1px;stroke-linecap:butt;stroke-linejoin:miter;stroke-opacity:1"/>
<ellipse cx="113.149" cy="174.599" rx="7.47426" ry="7.47426" style="fill:#6B4EF9;fill-rule:evenodd;stroke:#6B4EF9;stroke-width:1px;stroke-linecap:butt;stroke-linejoin:miter;stroke-opacity:1"/>
<ellipse cx="92.4432" cy="165.422" rx="7.47426" ry="7.47426" style="fill:#805CF9;fill-rule:evenodd;stroke:#805CF9;stroke-width:1px;stroke-linecap:butt;stroke-linejoin:miter;stroke-opacity:1"/>
<ellipse cx="207.37" cy="202.834" rx="7.47426" ry="7.47426" style="fill:#CFAA27;fill-rule:evenodd;stroke:#CFAA27;stroke-width:1px;stroke-linecap:butt;stroke-linejoin:miter;stroke-opacity:1"/>
<ellipse cx="241.054" cy="172.402" rx="7.47426" ry="7.47426" style="fill:#B8A444;fill-rule:evenodd;stroke:#B8A444;stroke-width:1px;stroke-linecap:butt;stroke-linejoin:miter;stroke-opacity:1"/>
<ellipse cx="231.541" cy="128.01" rx="7.47426" ry="7.47426" style="fill:#A19F62;fill-rule:evenodd;stroke:#A19F62;stroke-width:1px;stroke-linecap:butt;stroke-linejoin:miter;stroke-opacity:1"/>
<ellipse cx="154.656" cy="144.485" rx="7.47426" ry="7.47426" style="fill:#7C947A;fill-rule:evenodd;stroke:#7C947A;stroke-width:1px;stroke-linecap:butt;stroke-linejoin:miter;stroke-opacity:1"/>
<path class="bond-0" d="M 61.4037,178.831 L 66.0414,185.191" style="fill:none;fill-rule:evenodd;stroke:#FF0000;stroke-width:2.0px;stroke-linecap:butt;stroke-linejoin:miter;stroke-opacity:1"/>
<path class="bond-0" d="M 66.0414,185.191 L 70.679,191.551" style="fill:none;fill-rule:evenodd;stroke:#000000;stroke-width:2.0px;stroke-linecap:butt;stroke-linejoin:miter;stroke-opacity:1"/>
<path class="bond-0" d="M 64.6977,176.429 L 69.3354,182.789" style="fill:none;fill-rule:evenodd;stroke:#FF0000;stroke-width:2.0px;stroke-linecap:butt;stroke-linejoin:miter;stroke-opacity:1"/>
<path class="bond-0" d="M 69.3354,182.789 L 73.9731,189.148" style="fill:none;fill-rule:evenodd;stroke:#000000;stroke-width:2.0px;stroke-linecap:butt;stroke-linejoin:miter;stroke-opacity:1"/>
<path class="bond-1" d="M 72.3261,190.349 L 68.941,197.987" style="fill:none;fill-rule:evenodd;stroke:#000000;stroke-width:2.0px;stroke-linecap:butt;stroke-linejoin:miter;stroke-opacity:1"/>
<path class="bond-1" d="M 68.941,197.987 L 65.5559,205.624" style="fill:none;fill-rule:evenodd;stroke:#FF0000;stroke-width:2.0px;stroke-linecap:butt;stroke-linejoin:miter;stroke-opacity:1"/>
<path class="bond-2" d="M 72.3261,190.349 L 94.8485,187.944" style="fill:none;fill-rule:evenodd;stroke:#000000;stroke-width:2.0px;stroke-linecap:butt;stroke-linejoin:miter;stroke-opacity:1"/>
<path class="bond-3" d="M 94.8485,187.944 L 99.5407,194.379" style="fill:none;fill-rule:evenodd;stroke:#000000;stroke-width:2.0px;stroke-linecap:butt;stroke-linejoin:miter;stroke-opacity:1"/>
<path class="bond-3" d="M 99.5407,194.379 L 104.233,200.813" style="fill:none;fill-rule:evenodd;stroke:#FF0000;stroke-width:2.0px;stroke-linecap:butt;stroke-linejoin:miter;stroke-opacity:1"/>
<path class="bond-4" d="M 94.8485,187.944 L 108.819,177.757" style="fill:none;fill-rule:evenodd;stroke:#000000;stroke-width:2.0px;stroke-linecap:butt;stroke-linejoin:miter;stroke-opacity:1"/>
<path class="bond-5" d="M 94.8485,187.944 L 93.0174,170.799" style="fill:none;fill-rule:evenodd;stroke:#000000;stroke-width:2.0px;stroke-linecap:butt;stroke-linejoin:miter;stroke-opacity:1"/>
<path class="bond-6" d="M 113.176,205.713 L 121.946,204.776" style="fill:none;fill-rule:evenodd;stroke:#FF0000;stroke-width:2.0px;stroke-linecap:butt;stroke-linejoin:miter;stroke-opacity:1"/>
<path class="bond-6" d="M 121.946,204.776 L 130.716,203.839" style="fill:none;fill-rule:evenodd;stroke:#000000;stroke-width:2.0px;stroke-linecap:butt;stroke-linejoin:miter;stroke-opacity:1"/>
<path class="bond-7" d="M 130.716,203.839 L 142.009,184.207" style="fill:none;fill-rule:evenodd;stroke:#000000;stroke-width:2.0px;stroke-linecap:butt;stroke-linejoin:miter;stroke-opacity:1"/>
<path class="bond-8" d="M 130.716,203.839 L 145.9,220.645" style="fill:none;fill-rule:evenodd;stroke:#000000;stroke-width:2.0px;stroke-linecap:butt;stroke-linejoin:miter;stroke-opacity:1"/>
<path class="bond-8" d="M 136.019,203.627 L 146.647,215.391" style="fill:none;fill-rule:evenodd;stroke:#000000;stroke-width:2.0px;stroke-linecap:butt;stroke-linejoin:miter;stroke-opacity:1"/>
<path class="bond-9" d="M 142.009,184.207 L 138.587,176.558" style="fill:none;fill-rule:evenodd;stroke:#000000;stroke-width:2.0px;stroke-linecap:butt;stroke-linejoin:miter;stroke-opacity:1"/>
<path class="bond-9" d="M 138.587,176.558 L 135.165,168.91" style="fill:none;fill-rule:evenodd;stroke:#7F4C19;stroke-width:2.0px;stroke-linecap:butt;stroke-linejoin:miter;stroke-opacity:1"/>
<path class="bond-10" d="M 142.009,184.207 L 164.169,188.877" style="fill:none;fill-rule:evenodd;stroke:#000000;stroke-width:2.0px;stroke-linecap:butt;stroke-linejoin:miter;stroke-opacity:1"/>
<path class="bond-10" d="M 144.492,188.897 L 160.004,192.166" style="fill:none;fill-rule:evenodd;stroke:#000000;stroke-width:2.0px;stroke-linecap:butt;stroke-linejoin:miter;stroke-opacity:1"/>
<path class="bond-11" d="M 164.169,188.877 L 181.011,173.661" style="fill:none;fill-rule:evenodd;stroke:#000000;stroke-width:2.0px;stroke-linecap:butt;stroke-linejoin:miter;stroke-opacity:1"/>
<path class="bond-12" d="M 164.169,188.877 L 165.085,197.457" style="fill:none;fill-rule:evenodd;stroke:#000000;stroke-width:2.0px;stroke-linecap:butt;stroke-linejoin:miter;stroke-opacity:1"/>
<path class="bond-12" d="M 165.085,197.457 L 166.001,206.036" style="fill:none;fill-rule:evenodd;stroke:#CCCC00;stroke-width:2.0px;stroke-linecap:butt;stroke-linejoin:miter;stroke-opacity:1"/>
<path class="bond-13" d="M 181.011,173.661 L 202.614,180.637" style="fill:none;fill-rule:evenodd;stroke:#000000;stroke-width:2.0px;stroke-linecap:butt;stroke-linejoin:miter;stroke-opacity:1"/>
<path class="bond-13" d="M 185.504,170.828 L 200.626,175.711" style="fill:none;fill-rule:evenodd;stroke:#000000;stroke-width:2.0px;stroke-linecap:butt;stroke-linejoin:miter;stroke-opacity:1"/>
<path class="bond-14" d="M 181.011,173.661 L 176.255,151.465" style="fill:none;fill-rule:evenodd;stroke:#000000;stroke-width:2.0px;stroke-linecap:butt;stroke-linejoin:miter;stroke-opacity:1"/>
<path class="bond-15" d="M 202.614,180.637 L 219.456,165.422" style="fill:none;fill-rule:evenodd;stroke:#000000;stroke-width:2.0px;stroke-linecap:butt;stroke-linejoin:miter;stroke-opacity:1"/>
<path class="bond-16" d="M 202.614,180.637 L 206.218,197.456" style="fill:none;fill-rule:evenodd;stroke:#000000;stroke-width:2.0px;stroke-linecap:butt;stroke-linejoin:miter;stroke-opacity:1"/>
<path class="bond-17" d="M 219.456,165.422 L 214.699,143.225" style="fill:none;fill-rule:evenodd;stroke:#000000;stroke-width:2.0px;stroke-linecap:butt;stroke-linejoin:miter;stroke-opacity:1"/>
<path class="bond-17" d="M 214.756,162.946 L 211.426,147.409" style="fill:none;fill-rule:evenodd;stroke:#000000;stroke-width:2.0px;stroke-linecap:butt;stroke-linejoin:miter;stroke-opacity:1"/>
<path class="bond-18" d="M 219.456,165.422 L 236.722,171.002" style="fill:none;fill-rule:evenodd;stroke:#000000;stroke-width:2.0px;stroke-linecap:butt;stroke-linejoin:miter;stroke-opacity:1"/>
<path class="bond-19" d="M 214.699,143.225 L 193.101,136.245" style="fill:none;fill-rule:evenodd;stroke:#000000;stroke-width:2.0px;stroke-linecap:butt;stroke-linejoin:miter;stroke-opacity:1"/>
<path class="bond-20" d="M 214.699,143.225 L 227.21,131.923" style="fill:none;fill-rule:evenodd;stroke:#000000;stroke-width:2.0px;stroke-linecap:butt;stroke-linejoin:miter;stroke-opacity:1"/>
<path class="bond-21" d="M 193.101,136.245 L 191.321,127.938" style="fill:none;fill-rule:evenodd;stroke:#000000;stroke-width:2.0px;stroke-linecap:butt;stroke-linejoin:miter;stroke-opacity:1"/>
<path class="bond-21" d="M 191.321,127.938 L 189.541,119.631" style="fill:none;fill-rule:evenodd;stroke:#FF0000;stroke-width:2.0px;stroke-linecap:butt;stroke-linejoin:miter;stroke-opacity:1"/>
<path class="bond-22" d="M 193.101,136.245 L 176.255,151.465" style="fill:none;fill-rule:evenodd;stroke:#000000;stroke-width:2.0px;stroke-linecap:butt;stroke-linejoin:miter;stroke-opacity:1"/>
<path class="bond-22" d="M 193.307,141.553 L 181.515,152.207" style="fill:none;fill-rule:evenodd;stroke:#000000;stroke-width:2.0px;stroke-linecap:butt;stroke-linejoin:miter;stroke-opacity:1"/>
<path class="bond-23" d="M 183.362,112.439 L 175.077,109.763" style="fill:none;fill-rule:evenodd;stroke:#FF0000;stroke-width:2.0px;stroke-linecap:butt;stroke-linejoin:miter;stroke-opacity:1"/>
<path class="bond-23" d="M 175.077,109.763 L 166.792,107.086" style="fill:none;fill-rule:evenodd;stroke:#000000;stroke-width:2.0px;stroke-linecap:butt;stroke-linejoin:miter;stroke-opacity:1"/>
<path class="bond-24" d="M 166.792,107.086 L 172.017,90.9101" style="fill:none;fill-rule:evenodd;stroke:#000000;stroke-width:2.0px;stroke-linecap:butt;stroke-linejoin:miter;stroke-opacity:1"/>
<path class="bond-25" d="M 166.792,107.086 L 155.938,95.0735" style="fill:none;fill-rule:evenodd;stroke:#000000;stroke-width:2.0px;stroke-linecap:butt;stroke-linejoin:miter;stroke-opacity:1"/>
<path class="bond-26" d="M 166.792,107.086 L 154.316,118.358" style="fill:none;fill-rule:evenodd;stroke:#000000;stroke-width:2.0px;stroke-linecap:butt;stroke-linejoin:miter;stroke-opacity:1"/>
<path class="bond-27" d="M 176.255,151.465 L 158.988,145.885" style="fill:none;fill-rule:evenodd;stroke:#000000;stroke-width:2.0px;stroke-linecap:butt;stroke-linejoin:miter;stroke-opacity:1"/>
<path class="bond-28" d="M 162.923,213.032 L 154.412,216.839" style="fill:none;fill-rule:evenodd;stroke:#CCCC00;stroke-width:2.0px;stroke-linecap:butt;stroke-linejoin:miter;stroke-opacity:1"/>
<path class="bond-28" d="M 154.412,216.839 L 145.9,220.645" style="fill:none;fill-rule:evenodd;stroke:#000000;stroke-width:2.0px;stroke-linecap:butt;stroke-linejoin:miter;stroke-opacity:1"/>
<path class="bond-29" d="M 145.9,220.645 L 141.23,242.805" style="fill:none;fill-rule:evenodd;stroke:#000000;stroke-width:2.0px;stroke-linecap:butt;stroke-linejoin:miter;stroke-opacity:1"/>
<path class="bond-30" d="M 140.596,240.868 L 132.325,243.571" style="fill:none;fill-rule:evenodd;stroke:#000000;stroke-width:2.0px;stroke-linecap:butt;stroke-linejoin:miter;stroke-opacity:1"/>
<path class="bond-30" d="M 132.325,243.571 L 124.053,246.274" style="fill:none;fill-rule:evenodd;stroke:#FF0000;stroke-width:2.0px;stroke-linecap:butt;stroke-linejoin:miter;stroke-opacity:1"/>
<path class="bond-30" d="M 141.863,244.743 L 133.591,247.446" style="fill:none;fill-rule:evenodd;stroke:#000000;stroke-width:2.0px;stroke-linecap:butt;stroke-linejoin:miter;stroke-opacity:1"/>
<path class="bond-30" d="M 133.591,247.446 L 125.32,250.149" style="fill:none;fill-rule:evenodd;stroke:#FF0000;stroke-width:2.0px;stroke-linecap:butt;stroke-linejoin:miter;stroke-opacity:1"/>
<path class="bond-31" d="M 141.23,242.805 L 147.166,248.132" style="fill:none;fill-rule:evenodd;stroke:#000000;stroke-width:2.0px;stroke-linecap:butt;stroke-linejoin:miter;stroke-opacity:1"/>
<path class="bond-31" d="M 147.166,248.132 L 153.102,253.459" style="fill:none;fill-rule:evenodd;stroke:#FF0000;stroke-width:2.0px;stroke-linecap:butt;stroke-linejoin:miter;stroke-opacity:1"/>
<path class="atom-0" d="M 54.5645 172.076 Q 54.5645 169.766, 55.7061 168.475 Q 56.8476 167.184, 58.9811 167.184 Q 61.1147 167.184, 62.2562 168.475 Q 63.3978 169.766, 63.3978 172.076 Q 63.3978 174.413, 62.2426 175.745 Q 61.0875 177.063, 58.9811 177.063 Q 56.8612 177.063, 55.7061 175.745 Q 54.5645 174.427, 54.5645 172.076 M 58.9811 175.976 Q 60.4488 175.976, 61.237 174.998 Q 62.0388 174.006, 62.0388 172.076 Q 62.0388 170.187, 61.237 169.236 Q 60.4488 168.271, 58.9811 168.271 Q 57.5135 168.271, 56.7117 169.222 Q 55.9235 170.174, 55.9235 172.076 Q 55.9235 174.019, 56.7117 174.998 Q 57.5135 175.976, 58.9811 175.976 " fill="#FF0000"/>
<path class="atom-2" d="M 58.732 211.083 Q 58.732 208.772, 59.8735 207.481 Q 61.015 206.19, 63.1486 206.19 Q 65.2822 206.19, 66.4237 207.481 Q 67.5652 208.772, 67.5652 211.083 Q 67.5652 213.42, 66.4101 214.752 Q 65.255 216.07, 63.1486 216.07 Q 61.0286 216.07, 59.8735 214.752 Q 58.732 213.434, 58.732 211.083 M 63.1486 214.983 Q 64.6163 214.983, 65.4045 214.004 Q 66.2063 213.012, 66.2063 211.083 Q 66.2063 209.194, 65.4045 208.242 Q 64.6163 207.278, 63.1486 207.278 Q 61.6809 207.278, 60.8791 208.229 Q 60.0909 209.18, 60.0909 211.083 Q 60.0909 213.026, 60.8791 214.004 Q 61.6809 214.983, 63.1486 214.983 " fill="#FF0000"/>
<path class="atom-2" d="M 68.0137 207.761 L 71.3053 207.761 L 71.3053 208.478 L 68.0137 208.478 L 68.0137 207.761 " fill="#FF0000"/>
<path class="atom-4" d="M 103.777 206.272 Q 103.777 203.962, 104.918 202.671 Q 106.06 201.38, 108.193 201.38 Q 110.327 201.38, 111.469 202.671 Q 112.61 203.962, 112.61 206.272 Q 112.61 208.609, 111.455 209.941 Q 110.3 211.259, 108.193 211.259 Q 106.073 211.259, 104.918 209.941 Q 103.777 208.623, 103.777 206.272 M 108.193 210.172 Q 109.661 210.172, 110.449 209.194 Q 111.251 208.202, 111.251 206.272 Q 111.251 204.383, 110.449 203.432 Q 109.661 202.467, 108.193 202.467 Q 106.726 202.467, 105.924 203.418 Q 105.136 204.369, 105.136 206.272 Q 105.136 208.215, 105.924 209.194 Q 106.726 210.172, 108.193 210.172 " fill="#FF0000"/>
<path class="atom-7" d="M 127.738 163.288 Q 128.662 163.546, 129.124 164.117 Q 129.599 164.674, 129.599 165.503 Q 129.599 166.835, 128.743 167.596 Q 127.901 168.343, 126.297 168.343 L 123.063 168.343 L 123.063 158.722 L 125.903 158.722 Q 127.547 158.722, 128.376 159.388 Q 129.205 160.054, 129.205 161.277 Q 129.205 162.731, 127.738 163.288 M 124.354 159.809 L 124.354 162.826 L 125.903 162.826 Q 126.854 162.826, 127.343 162.446 Q 127.846 162.051, 127.846 161.277 Q 127.846 159.809, 125.903 159.809 L 124.354 159.809 M 126.297 167.256 Q 127.235 167.256, 127.738 166.808 Q 128.24 166.359, 128.24 165.503 Q 128.24 164.715, 127.683 164.321 Q 127.14 163.913, 126.093 163.913 L 124.354 163.913 L 124.354 167.256 L 126.297 167.256 " fill="#7F4C19"/>
<path class="atom-7" d="M 131.787 161.358 L 131.937 162.323 Q 132.671 161.236, 133.866 161.236 Q 134.247 161.236, 134.763 161.372 L 134.559 162.514 Q 133.975 162.378, 133.649 162.378 Q 133.078 162.378, 132.698 162.609 Q 132.331 162.826, 132.032 163.356 L 132.032 168.343 L 130.754 168.343 L 130.754 161.358 L 131.787 161.358 " fill="#7F4C19"/>
<path class="atom-14" d="M 183.928 114.076 Q 183.928 111.766, 185.07 110.475 Q 186.211 109.184, 188.345 109.184 Q 190.478 109.184, 191.62 110.475 Q 192.761 111.766, 192.761 114.076 Q 192.761 116.413, 191.606 117.745 Q 190.451 119.063, 188.345 119.063 Q 186.225 119.063, 185.07 117.745 Q 183.928 116.427, 183.928 114.076 M 188.345 117.976 Q 189.812 117.976, 190.601 116.998 Q 191.402 116.006, 191.402 114.076 Q 191.402 112.187, 190.601 111.236 Q 189.812 110.271, 188.345 110.271 Q 186.877 110.271, 186.075 111.222 Q 185.287 112.173, 185.287 114.076 Q 185.287 116.019, 186.075 116.998 Q 186.877 117.976, 188.345 117.976 " fill="#FF0000"/>
<path class="atom-17" d="M 163.856 214.702 Q 163.965 214.743, 164.413 214.933 Q 164.862 215.123, 165.351 215.246 Q 165.854 215.354, 166.343 215.354 Q 167.254 215.354, 167.784 214.919 Q 168.314 214.471, 168.314 213.696 Q 168.314 213.166, 168.042 212.84 Q 167.784 212.514, 167.376 212.337 Q 166.968 212.161, 166.289 211.957 Q 165.433 211.699, 164.916 211.454 Q 164.413 211.209, 164.047 210.693 Q 163.693 210.177, 163.693 209.307 Q 163.693 208.097, 164.509 207.35 Q 165.338 206.603, 166.968 206.603 Q 168.083 206.603, 169.346 207.133 L 169.034 208.179 Q 167.879 207.703, 167.009 207.703 Q 166.071 207.703, 165.555 208.097 Q 165.039 208.478, 165.052 209.144 Q 165.052 209.66, 165.31 209.973 Q 165.582 210.285, 165.963 210.462 Q 166.357 210.639, 167.009 210.843 Q 167.879 211.114, 168.395 211.386 Q 168.912 211.658, 169.279 212.215 Q 169.659 212.759, 169.659 213.696 Q 169.659 215.028, 168.762 215.748 Q 167.879 216.455, 166.398 216.455 Q 165.541 216.455, 164.889 216.265 Q 164.25 216.088, 163.489 215.776 L 163.856 214.702 " fill="#CCCC00"/>
<path class="atom-20" d="M 115.287 249.867 Q 115.287 247.557, 116.429 246.266 Q 117.57 244.975, 119.704 244.975 Q 121.837 244.975, 122.979 246.266 Q 124.12 247.557, 124.12 249.867 Q 124.12 252.205, 122.965 253.536 Q 121.81 254.855, 119.704 254.855 Q 117.584 254.855, 116.429 253.536 Q 115.287 252.218, 115.287 249.867 M 119.704 253.767 Q 121.171 253.767, 121.96 252.789 Q 122.761 251.797, 122.761 249.867 Q 122.761 247.978, 121.96 247.027 Q 121.171 246.062, 119.704 246.062 Q 118.236 246.062, 117.434 247.013 Q 116.646 247.965, 116.646 249.867 Q 116.646 251.811, 117.434 252.789 Q 118.236 253.767, 119.704 253.767 " fill="#FF0000"/>
<path class="atom-21" d="M 153.669 257.958 Q 153.669 255.647, 154.81 254.356 Q 155.952 253.065, 158.085 253.065 Q 160.219 253.065, 161.36 254.356 Q 162.502 255.647, 162.502 257.958 Q 162.502 260.295, 161.347 261.627 Q 160.192 262.945, 158.085 262.945 Q 155.965 262.945, 154.81 261.627 Q 153.669 260.309, 153.669 257.958 M 158.085 261.858 Q 159.553 261.858, 160.341 260.879 Q 161.143 259.887, 161.143 257.958 Q 161.143 256.069, 160.341 255.117 Q 159.553 254.152, 158.085 254.152 Q 156.618 254.152, 155.816 255.104 Q 155.028 256.055, 155.028 257.958 Q 155.028 259.901, 155.816 260.879 Q 156.618 261.858, 158.085 261.858 " fill="#FF0000"/>
<path class="atom-21" d="M 162.95 254.636 L 166.242 254.636 L 166.242 255.353 L 162.95 255.353 L 162.95 254.636 " fill="#FF0000"/>
<path class="atom-22" d="M 109.385 169.788 L 110.689 169.788 L 110.689 173.879 L 115.609 173.879 L 115.609 169.788 L 116.913 169.788 L 116.913 179.41 L 115.609 179.41 L 115.609 174.966 L 110.689 174.966 L 110.689 179.41 L 109.385 179.41 L 109.385 169.788 " fill="#000000"/>
<path class="atom-23" d="M 88.6789 160.611 L 89.9835 160.611 L 89.9835 164.701 L 94.9029 164.701 L 94.9029 160.611 L 96.2075 160.611 L 96.2075 170.232 L 94.9029 170.232 L 94.9029 165.789 L 89.9835 165.789 L 89.9835 170.232 L 88.6789 170.232 L 88.6789 160.611 " fill="#000000"/>
<path class="atom-24" d="M 203.606 198.023 L 204.91 198.023 L 204.91 202.113 L 209.83 202.113 L 209.83 198.023 L 211.134 198.023 L 211.134 207.644 L 209.83 207.644 L 209.83 203.201 L 204.91 203.201 L 204.91 207.644 L 203.606 207.644 L 203.606 198.023 " fill="#000000"/>
<path class="atom-25" d="M 237.29 167.591 L 238.594 167.591 L 238.594 171.682 L 243.514 171.682 L 243.514 167.591 L 244.818 167.591 L 244.818 177.213 L 243.514 177.213 L 243.514 172.769 L 238.594 172.769 L 238.594 177.213 L 237.29 177.213 L 237.29 167.591 " fill="#000000"/>
<path class="atom-26" d="M 227.777 123.199 L 229.082 123.199 L 229.082 127.289 L 234.001 127.289 L 234.001 123.199 L 235.306 123.199 L 235.306 132.82 L 234.001 132.82 L 234.001 128.377 L 229.082 128.377 L 229.082 132.82 L 227.777 132.82 L 227.777 123.199 " fill="#000000"/>
<path class="atom-27" d="M 150.892 139.674 L 152.196 139.674 L 152.196 143.764 L 157.116 143.764 L 157.116 139.674 L 158.42 139.674 L 158.42 149.295 L 157.116 149.295 L 157.116 144.852 L 152.196 144.852 L 152.196 149.295 L 150.892 149.295 L 150.892 139.674 " fill="#000000"/>
<path class="atom-28" d="M 169.99 80.7225 L 171.294 80.7225 L 171.294 84.8129 L 176.214 84.8129 L 176.214 80.7225 L 177.518 80.7225 L 177.518 90.3439 L 176.214 90.3439 L 176.214 85.9001 L 171.294 85.9001 L 171.294 90.3439 L 169.99 90.3439 L 169.99 80.7225 " fill="#000000"/>
<path class="atom-29" d="M 147.843 85.4698 L 149.148 85.4698 L 149.148 89.5602 L 154.067 89.5602 L 154.067 85.4698 L 155.372 85.4698 L 155.372 95.0912 L 154.067 95.0912 L 154.067 90.6474 L 149.148 90.6474 L 149.148 95.0912 L 147.843 95.0912 L 147.843 85.4698 " fill="#000000"/>
<path class="atom-30" d="M 146.222 117.46 L 147.526 117.46 L 147.526 121.55 L 152.446 121.55 L 152.446 117.46 L 153.75 117.46 L 153.75 127.081 L 152.446 127.081 L 152.446 122.637 L 147.526 122.637 L 147.526 127.081 L 146.222 127.081 L 146.222 117.46 " fill="#000000"/>
<ellipse cx="358.934" cy="172.075" rx="7.47426" ry="7.47426" style="fill:#CFAA27;fill-rule:evenodd;stroke:#CFAA27;stroke-width:1px;stroke-linecap:butt;stroke-linejoin:miter;stroke-opacity:1"/>
<ellipse cx="372.257" cy="190.314" rx="7.47426" ry="7.47426" style="fill:#B8A444;fill-rule:evenodd;stroke:#B8A444;stroke-width:1px;stroke-linecap:butt;stroke-linejoin:miter;stroke-opacity:1"/>
<ellipse cx="364.93" cy="211.086" rx="8.89069" ry="7.47426" style="fill:#A19F62;fill-rule:evenodd;stroke:#A19F62;stroke-width:1px;stroke-linecap:butt;stroke-linejoin:miter;stroke-opacity:1"/>
<ellipse cx="394.773" cy="187.934" rx="7.47426" ry="7.47426" style="fill:#7C947A;fill-rule:evenodd;stroke:#7C947A;stroke-width:1px;stroke-linecap:butt;stroke-linejoin:miter;stroke-opacity:1"/>
<ellipse cx="408.076" cy="206.319" rx="7.47426" ry="7.47426" style="fill:#588A93;fill-rule:evenodd;stroke:#588A93;stroke-width:1px;stroke-linecap:butt;stroke-linejoin:miter;stroke-opacity:1"/>
<ellipse cx="430.811" cy="203.823" rx="7.47426" ry="7.47426" style="fill:#3D79AB;fill-rule:evenodd;stroke:#3D79AB;stroke-width:1px;stroke-linecap:butt;stroke-linejoin:miter;stroke-opacity:1"/>
<ellipse cx="441.993" cy="184.123" rx="7.47426" ry="7.47426" style="fill:#2269C4;fill-rule:evenodd;stroke:#2269C4;stroke-width:1px;stroke-linecap:butt;stroke-linejoin:miter;stroke-opacity:1"/>
<ellipse cx="429.235" cy="163.498" rx="8.27358" ry="7.47426" style="fill:#3053DA;fill-rule:evenodd;stroke:#3053DA;stroke-width:1px;stroke-linecap:butt;stroke-linejoin:miter;stroke-opacity:1"/>
<ellipse cx="464.231" cy="188.84" rx="7.47426" ry="7.47426" style="fill:#3E3EF0;fill-rule:evenodd;stroke:#3E3EF0;stroke-width:1px;stroke-linecap:butt;stroke-linejoin:miter;stroke-opacity:1"/>
<ellipse cx="481.175" cy="173.399" rx="7.47426" ry="7.47426" style="fill:#5446F4;fill-rule:evenodd;stroke:#5446F4;stroke-width:1px;stroke-linecap:butt;stroke-linejoin:miter;stroke-opacity:1"/>
<ellipse cx="502.632" cy="180.878" rx="7.47426" ry="7.47426" style="fill:#6B4EF9;fill-rule:evenodd;stroke:#6B4EF9;stroke-width:1px;stroke-linecap:butt;stroke-linejoin:miter;stroke-opacity:1"/>
<ellipse cx="519.172" cy="165.407" rx="7.47426" ry="7.47426" style="fill:#805CF9;fill-rule:evenodd;stroke:#805CF9;stroke-width:1px;stroke-linecap:butt;stroke-linejoin:miter;stroke-opacity:1"/>
<ellipse cx="514.916" cy="143.129" rx="7.47426" ry="7.47426" style="fill:#CFAA27;fill-rule:evenodd;stroke:#CFAA27;stroke-width:1px;stroke-linecap:butt;stroke-linejoin:miter;stroke-opacity:1"/>
<ellipse cx="493.183" cy="136.52" rx="7.47426" ry="7.47426" style="fill:#B8A444;fill-rule:evenodd;stroke:#B8A444;stroke-width:1px;stroke-linecap:butt;stroke-linejoin:miter;stroke-opacity:1"/>
<ellipse cx="488.402" cy="114.122" rx="11.3246" ry="11.3246" style="fill:#F968C4;fill-rule:evenodd;stroke:#F968C4;stroke-width:1px;stroke-linecap:butt;stroke-linejoin:miter;stroke-opacity:1"/>
<ellipse cx="505.198" cy="98.9307" rx="11.3246" ry="11.3246" style="fill:#F155A6;fill-rule:evenodd;stroke:#F155A6;stroke-width:1px;stroke-linecap:butt;stroke-linejoin:miter;stroke-opacity:1"/>
<ellipse cx="476.034" cy="151.315" rx="7.47426" ry="7.47426" style="fill:#588A93;fill-rule:evenodd;stroke:#588A93;stroke-width:1px;stroke-linecap:butt;stroke-linejoin:miter;stroke-opacity:1"/>
<ellipse cx="466.455" cy="211.508" rx="7.47426" ry="7.47426" style="fill:#3D79AB;fill-rule:evenodd;stroke:#3D79AB;stroke-width:1px;stroke-linecap:butt;stroke-linejoin:miter;stroke-opacity:1"/>
<ellipse cx="445.842" cy="220.756" rx="7.47426" ry="7.47426" style="fill:#2269C4;fill-rule:evenodd;stroke:#2269C4;stroke-width:1px;stroke-linecap:butt;stroke-linejoin:miter;stroke-opacity:1"/>
<ellipse cx="441.198" cy="242.69" rx="7.47426" ry="7.47426" style="fill:#3053DA;fill-rule:evenodd;stroke:#3053DA;stroke-width:1px;stroke-linecap:butt;stroke-linejoin:miter;stroke-opacity:1"/>
<ellipse cx="419.663" cy="249.786" rx="7.47426" ry="7.47426" style="fill:#3E3EF0;fill-rule:evenodd;stroke:#3E3EF0;stroke-width:1px;stroke-linecap:butt;stroke-linejoin:miter;stroke-opacity:1"/>
<ellipse cx="459.912" cy="257.91" rx="8.89069" ry="7.47426" style="fill:#5446F4;fill-rule:evenodd;stroke:#5446F4;stroke-width:1px;stroke-linecap:butt;stroke-linejoin:miter;stroke-opacity:1"/>
<ellipse cx="413.096" cy="174.618" rx="7.47426" ry="7.47426" style="fill:#6B4EF9;fill-rule:evenodd;stroke:#6B4EF9;stroke-width:1px;stroke-linecap:butt;stroke-linejoin:miter;stroke-opacity:1"/>
<ellipse cx="392.399" cy="165.411" rx="7.47426" ry="7.47426" style="fill:#805CF9;fill-rule:evenodd;stroke:#805CF9;stroke-width:1px;stroke-linecap:butt;stroke-linejoin:miter;stroke-opacity:1"/>
<ellipse cx="507.271" cy="202.812" rx="7.47426" ry="7.47426" style="fill:#CFAA27;fill-rule:evenodd;stroke:#CFAA27;stroke-width:1px;stroke-linecap:butt;stroke-linejoin:miter;stroke-opacity:1"/>
<ellipse cx="540.927" cy="172.493" rx="7.47426" ry="7.47426" style="fill:#B8A444;fill-rule:evenodd;stroke:#B8A444;stroke-width:1px;stroke-linecap:butt;stroke-linejoin:miter;stroke-opacity:1"/>
<ellipse cx="531.587" cy="128.139" rx="7.47426" ry="7.47426" style="fill:#A19F62;fill-rule:evenodd;stroke:#A19F62;stroke-width:1px;stroke-linecap:butt;stroke-linejoin:miter;stroke-opacity:1"/>
<ellipse cx="454.718" cy="144.371" rx="7.47426" ry="7.47426" style="fill:#7C947A;fill-rule:evenodd;stroke:#7C947A;stroke-width:1px;stroke-linecap:butt;stroke-linejoin:miter;stroke-opacity:1"/>
<path class="bond-0" d="M 361.346,178.78 L 365.977,185.147" style="fill:none;fill-rule:evenodd;stroke:#FF0000;stroke-width:2.0px;stroke-linecap:butt;stroke-linejoin:miter;stroke-opacity:1"/>
<path class="bond-0" d="M 365.977,185.147 L 370.608,191.513" style="fill:none;fill-rule:evenodd;stroke:#000000;stroke-width:2.0px;stroke-linecap:butt;stroke-linejoin:miter;stroke-opacity:1"/>
<path class="bond-0" d="M 364.642,176.382 L 369.274,182.748" style="fill:none;fill-rule:evenodd;stroke:#FF0000;stroke-width:2.0px;stroke-linecap:butt;stroke-linejoin:miter;stroke-opacity:1"/>
<path class="bond-0" d="M 369.274,182.748 L 373.905,189.114" style="fill:none;fill-rule:evenodd;stroke:#000000;stroke-width:2.0px;stroke-linecap:butt;stroke-linejoin:miter;stroke-opacity:1"/>
<path class="bond-1" d="M 372.257,190.314 L 368.865,197.947" style="fill:none;fill-rule:evenodd;stroke:#000000;stroke-width:2.0px;stroke-linecap:butt;stroke-linejoin:miter;stroke-opacity:1"/>
<path class="bond-1" d="M 368.865,197.947 L 365.473,205.58" style="fill:none;fill-rule:evenodd;stroke:#FF0000;stroke-width:2.0px;stroke-linecap:butt;stroke-linejoin:miter;stroke-opacity:1"/>
<path class="bond-2" d="M 372.257,190.314 L 394.773,187.934" style="fill:none;fill-rule:evenodd;stroke:#000000;stroke-width:2.0px;stroke-linecap:butt;stroke-linejoin:miter;stroke-opacity:1"/>
<path class="bond-3" d="M 394.773,187.934 L 399.452,194.374" style="fill:none;fill-rule:evenodd;stroke:#000000;stroke-width:2.0px;stroke-linecap:butt;stroke-linejoin:miter;stroke-opacity:1"/>
<path class="bond-3" d="M 399.452,194.374 L 404.131,200.814" style="fill:none;fill-rule:evenodd;stroke:#FF0000;stroke-width:2.0px;stroke-linecap:butt;stroke-linejoin:miter;stroke-opacity:1"/>
<path class="bond-4" d="M 394.773,187.934 L 408.765,177.765" style="fill:none;fill-rule:evenodd;stroke:#000000;stroke-width:2.0px;stroke-linecap:butt;stroke-linejoin:miter;stroke-opacity:1"/>
<path class="bond-5" d="M 394.773,187.934 L 392.966,170.788" style="fill:none;fill-rule:evenodd;stroke:#000000;stroke-width:2.0px;stroke-linecap:butt;stroke-linejoin:miter;stroke-opacity:1"/>
<path class="bond-6" d="M 413.064,205.713 L 421.938,204.768" style="fill:none;fill-rule:evenodd;stroke:#FF0000;stroke-width:2.0px;stroke-linecap:butt;stroke-linejoin:miter;stroke-opacity:1"/>
<path class="bond-6" d="M 421.938,204.768 L 430.811,203.823" style="fill:none;fill-rule:evenodd;stroke:#000000;stroke-width:2.0px;stroke-linecap:butt;stroke-linejoin:miter;stroke-opacity:1"/>
<path class="bond-7" d="M 430.811,203.823 L 441.993,184.123" style="fill:none;fill-rule:evenodd;stroke:#000000;stroke-width:2.0px;stroke-linecap:butt;stroke-linejoin:miter;stroke-opacity:1"/>
<path class="bond-8" d="M 430.811,203.823 L 445.842,220.756" style="fill:none;fill-rule:evenodd;stroke:#000000;stroke-width:2.0px;stroke-linecap:butt;stroke-linejoin:miter;stroke-opacity:1"/>
<path class="bond-8" d="M 436.115,203.656 L 446.637,215.51" style="fill:none;fill-rule:evenodd;stroke:#000000;stroke-width:2.0px;stroke-linecap:butt;stroke-linejoin:miter;stroke-opacity:1"/>
<path class="bond-9" d="M 441.993,184.123 L 438.698,176.496" style="fill:none;fill-rule:evenodd;stroke:#000000;stroke-width:2.0px;stroke-linecap:butt;stroke-linejoin:miter;stroke-opacity:1"/>
<path class="bond-9" d="M 438.698,176.496 L 435.402,168.87" style="fill:none;fill-rule:evenodd;stroke:#7F4C19;stroke-width:2.0px;stroke-linecap:butt;stroke-linejoin:miter;stroke-opacity:1"/>
<path class="bond-10" d="M 441.993,184.123 L 464.231,188.84" style="fill:none;fill-rule:evenodd;stroke:#000000;stroke-width:2.0px;stroke-linecap:butt;stroke-linejoin:miter;stroke-opacity:1"/>
<path class="bond-10" d="M 444.483,188.819 L 460.05,192.121" style="fill:none;fill-rule:evenodd;stroke:#000000;stroke-width:2.0px;stroke-linecap:butt;stroke-linejoin:miter;stroke-opacity:1"/>
<path class="bond-11" d="M 464.231,188.84 L 481.175,173.399" style="fill:none;fill-rule:evenodd;stroke:#000000;stroke-width:2.0px;stroke-linecap:butt;stroke-linejoin:miter;stroke-opacity:1"/>
<path class="bond-12" d="M 464.231,188.84 L 465.079,197.428" style="fill:none;fill-rule:evenodd;stroke:#000000;stroke-width:2.0px;stroke-linecap:butt;stroke-linejoin:miter;stroke-opacity:1"/>
<path class="bond-12" d="M 465.079,197.428 L 465.926,206.016" style="fill:none;fill-rule:evenodd;stroke:#CCCC00;stroke-width:2.0px;stroke-linecap:butt;stroke-linejoin:miter;stroke-opacity:1"/>
<path class="bond-13" d="M 481.175,173.399 L 502.632,180.878" style="fill:none;fill-rule:evenodd;stroke:#000000;stroke-width:2.0px;stroke-linecap:butt;stroke-linejoin:miter;stroke-opacity:1"/>
<path class="bond-13" d="M 485.736,170.671 L 500.755,175.906" style="fill:none;fill-rule:evenodd;stroke:#000000;stroke-width:2.0px;stroke-linecap:butt;stroke-linejoin:miter;stroke-opacity:1"/>
<path class="bond-14" d="M 481.175,173.399 L 476.034,151.315" style="fill:none;fill-rule:evenodd;stroke:#000000;stroke-width:2.0px;stroke-linecap:butt;stroke-linejoin:miter;stroke-opacity:1"/>
<path class="bond-15" d="M 502.632,180.878 L 519.172,165.407" style="fill:none;fill-rule:evenodd;stroke:#000000;stroke-width:2.0px;stroke-linecap:butt;stroke-linejoin:miter;stroke-opacity:1"/>
<path class="bond-16" d="M 502.632,180.878 L 506.135,197.44" style="fill:none;fill-rule:evenodd;stroke:#000000;stroke-width:2.0px;stroke-linecap:butt;stroke-linejoin:miter;stroke-opacity:1"/>
<path class="bond-17" d="M 519.172,165.407 L 514.916,143.129" style="fill:none;fill-rule:evenodd;stroke:#000000;stroke-width:2.0px;stroke-linecap:butt;stroke-linejoin:miter;stroke-opacity:1"/>
<path class="bond-17" d="M 514.529,162.831 L 511.55,147.236" style="fill:none;fill-rule:evenodd;stroke:#000000;stroke-width:2.0px;stroke-linecap:butt;stroke-linejoin:miter;stroke-opacity:1"/>
<path class="bond-18" d="M 519.172,165.407 L 536.59,171.081" style="fill:none;fill-rule:evenodd;stroke:#000000;stroke-width:2.0px;stroke-linecap:butt;stroke-linejoin:miter;stroke-opacity:1"/>
<path class="bond-19" d="M 514.916,143.129 L 493.183,136.52" style="fill:none;fill-rule:evenodd;stroke:#000000;stroke-width:2.0px;stroke-linecap:butt;stroke-linejoin:miter;stroke-opacity:1"/>
<path class="bond-20" d="M 514.916,143.129 L 527.262,132.027" style="fill:none;fill-rule:evenodd;stroke:#000000;stroke-width:2.0px;stroke-linecap:butt;stroke-linejoin:miter;stroke-opacity:1"/>
<path class="bond-21" d="M 493.183,136.52 L 491.367,128.013" style="fill:none;fill-rule:evenodd;stroke:#000000;stroke-width:2.0px;stroke-linecap:butt;stroke-linejoin:miter;stroke-opacity:1"/>
<path class="bond-21" d="M 491.367,128.013 L 489.551,119.506" style="fill:none;fill-rule:evenodd;stroke:#0000FF;stroke-width:2.0px;stroke-linecap:butt;stroke-linejoin:miter;stroke-opacity:1"/>
<path class="bond-22" d="M 493.183,136.52 L 476.034,151.315" style="fill:none;fill-rule:evenodd;stroke:#000000;stroke-width:2.0px;stroke-linecap:butt;stroke-linejoin:miter;stroke-opacity:1"/>
<path class="bond-22" d="M 493.274,141.826 L 481.27,152.182" style="fill:none;fill-rule:evenodd;stroke:#000000;stroke-width:2.0px;stroke-linecap:butt;stroke-linejoin:miter;stroke-opacity:1"/>
<path class="bond-23" d="M 492.617,110.31 L 498.908,104.62" style="fill:none;fill-rule:evenodd;stroke:#0000FF;stroke-width:2.0px;stroke-linecap:butt;stroke-linejoin:miter;stroke-opacity:1"/>
<path class="bond-23" d="M 498.908,104.62 L 505.198,98.9307" style="fill:none;fill-rule:evenodd;stroke:#000000;stroke-width:2.0px;stroke-linecap:butt;stroke-linejoin:miter;stroke-opacity:1"/>
<path class="bond-24" d="M 484.187,112.761 L 477.627,110.643" style="fill:none;fill-rule:evenodd;stroke:#0000FF;stroke-width:2.0px;stroke-linecap:butt;stroke-linejoin:miter;stroke-opacity:1"/>
<path class="bond-24" d="M 477.627,110.643 L 471.067,108.525" style="fill:none;fill-rule:evenodd;stroke:#000000;stroke-width:2.0px;stroke-linecap:butt;stroke-linejoin:miter;stroke-opacity:1"/>
<path class="bond-25" d="M 504.573,100.871 L 512.859,103.54" style="fill:none;fill-rule:evenodd;stroke:#000000;stroke-width:2.0px;stroke-linecap:butt;stroke-linejoin:miter;stroke-opacity:1"/>
<path class="bond-25" d="M 512.859,103.54 L 521.145,106.209" style="fill:none;fill-rule:evenodd;stroke:#FF0000;stroke-width:2.0px;stroke-linecap:butt;stroke-linejoin:miter;stroke-opacity:1"/>
<path class="bond-25" d="M 505.823,96.9904 L 514.109,99.6594" style="fill:none;fill-rule:evenodd;stroke:#000000;stroke-width:2.0px;stroke-linecap:butt;stroke-linejoin:miter;stroke-opacity:1"/>
<path class="bond-25" d="M 514.109,99.6594 L 522.395,102.328" style="fill:none;fill-rule:evenodd;stroke:#FF0000;stroke-width:2.0px;stroke-linecap:butt;stroke-linejoin:miter;stroke-opacity:1"/>
<path class="bond-26" d="M 505.198,98.9307 L 500.426,76.7728" style="fill:none;fill-rule:evenodd;stroke:#000000;stroke-width:2.0px;stroke-linecap:butt;stroke-linejoin:miter;stroke-opacity:1"/>
<path class="bond-27" d="M 500.426,76.7728 L 517.215,61.5692" style="fill:none;fill-rule:evenodd;stroke:#000000;stroke-width:2.0px;stroke-linecap:butt;stroke-linejoin:miter;stroke-opacity:1"/>
<path class="bond-28" d="M 500.426,76.7728 L 482.613,80.6055" style="fill:none;fill-rule:evenodd;stroke:#000000;stroke-width:2.0px;stroke-linecap:butt;stroke-linejoin:miter;stroke-opacity:1"/>
<path class="bond-29" d="M 500.426,76.7728 L 489.555,64.7626" style="fill:none;fill-rule:evenodd;stroke:#000000;stroke-width:2.0px;stroke-linecap:butt;stroke-linejoin:miter;stroke-opacity:1"/>
<path class="bond-30" d="M 476.034,151.315 L 459.042,145.779" style="fill:none;fill-rule:evenodd;stroke:#000000;stroke-width:2.0px;stroke-linecap:butt;stroke-linejoin:miter;stroke-opacity:1"/>
<path class="bond-31" d="M 462.804,213.04 L 454.323,216.898" style="fill:none;fill-rule:evenodd;stroke:#CCCC00;stroke-width:2.0px;stroke-linecap:butt;stroke-linejoin:miter;stroke-opacity:1"/>
<path class="bond-31" d="M 454.323,216.898 L 445.842,220.756" style="fill:none;fill-rule:evenodd;stroke:#000000;stroke-width:2.0px;stroke-linecap:butt;stroke-linejoin:miter;stroke-opacity:1"/>
<path class="bond-32" d="M 445.842,220.756 L 441.198,242.69" style="fill:none;fill-rule:evenodd;stroke:#000000;stroke-width:2.0px;stroke-linecap:butt;stroke-linejoin:miter;stroke-opacity:1"/>
<path class="bond-33" d="M 440.566,240.752 L 432.29,243.451" style="fill:none;fill-rule:evenodd;stroke:#000000;stroke-width:2.0px;stroke-linecap:butt;stroke-linejoin:miter;stroke-opacity:1"/>
<path class="bond-33" d="M 432.29,243.451 L 424.014,246.149" style="fill:none;fill-rule:evenodd;stroke:#FF0000;stroke-width:2.0px;stroke-linecap:butt;stroke-linejoin:miter;stroke-opacity:1"/>
<path class="bond-33" d="M 441.829,244.628 L 433.553,247.327" style="fill:none;fill-rule:evenodd;stroke:#000000;stroke-width:2.0px;stroke-linecap:butt;stroke-linejoin:miter;stroke-opacity:1"/>
<path class="bond-33" d="M 433.553,247.327 L 425.277,250.025" style="fill:none;fill-rule:evenodd;stroke:#FF0000;stroke-width:2.0px;stroke-linecap:butt;stroke-linejoin:miter;stroke-opacity:1"/>
<path class="bond-34" d="M 441.198,242.69 L 447.128,248.023" style="fill:none;fill-rule:evenodd;stroke:#000000;stroke-width:2.0px;stroke-linecap:butt;stroke-linejoin:miter;stroke-opacity:1"/>
<path class="bond-34" d="M 447.128,248.023 L 453.059,253.355" style="fill:none;fill-rule:evenodd;stroke:#FF0000;stroke-width:2.0px;stroke-linecap:butt;stroke-linejoin:miter;stroke-opacity:1"/>
<path class="bond-35" d="M 517.215,61.5692 L 528.085,73.5744" style="fill:none;fill-rule:evenodd;stroke:#000000;stroke-width:2.0px;stroke-linecap:butt;stroke-linejoin:miter;stroke-opacity:1"/>
<path class="bond-36" d="M 517.215,61.5692 L 535.026,57.7314" style="fill:none;fill-rule:evenodd;stroke:#000000;stroke-width:2.0px;stroke-linecap:butt;stroke-linejoin:miter;stroke-opacity:1"/>
<path class="bond-37" d="M 517.215,61.5692 L 513.603,44.8031" style="fill:none;fill-rule:evenodd;stroke:#000000;stroke-width:2.0px;stroke-linecap:butt;stroke-linejoin:miter;stroke-opacity:1"/>
<path class="atom-0" d="M 354.517 172.028 Q 354.517 169.718, 355.659 168.427 Q 356.8 167.136, 358.934 167.136 Q 361.067 167.136, 362.209 168.427 Q 363.351 169.718, 363.351 172.028 Q 363.351 174.365, 362.195 175.697 Q 361.04 177.015, 358.934 177.015 Q 356.814 177.015, 355.659 175.697 Q 354.517 174.379, 354.517 172.028 M 358.934 175.928 Q 360.402 175.928, 361.19 174.95 Q 361.992 173.957, 361.992 172.028 Q 361.992 170.139, 361.19 169.188 Q 360.402 168.223, 358.934 168.223 Q 357.466 168.223, 356.664 169.174 Q 355.876 170.125, 355.876 172.028 Q 355.876 173.971, 356.664 174.95 Q 357.466 175.928, 358.934 175.928 " fill="#FF0000"/>
<path class="atom-2" d="M 358.643 211.039 Q 358.643 208.729, 359.785 207.438 Q 360.926 206.147, 363.06 206.147 Q 365.193 206.147, 366.335 207.438 Q 367.476 208.729, 367.476 211.039 Q 367.476 213.376, 366.321 214.708 Q 365.166 216.026, 363.06 216.026 Q 360.94 216.026, 359.785 214.708 Q 358.643 213.39, 358.643 211.039 M 363.06 214.939 Q 364.527 214.939, 365.315 213.961 Q 366.117 212.969, 366.117 211.039 Q 366.117 209.15, 365.315 208.199 Q 364.527 207.234, 363.06 207.234 Q 361.592 207.234, 360.79 208.185 Q 360.002 209.136, 360.002 211.039 Q 360.002 212.982, 360.79 213.961 Q 361.592 214.939, 363.06 214.939 " fill="#FF0000"/>
<path class="atom-2" d="M 367.925 207.717 L 371.216 207.717 L 371.216 208.435 L 367.925 208.435 L 367.925 207.717 " fill="#FF0000"/>
<path class="atom-4" d="M 403.659 206.272 Q 403.659 203.962, 404.801 202.671 Q 405.943 201.38, 408.076 201.38 Q 410.21 201.38, 411.351 202.671 Q 412.493 203.962, 412.493 206.272 Q 412.493 208.609, 411.338 209.941 Q 410.182 211.259, 408.076 211.259 Q 405.956 211.259, 404.801 209.941 Q 403.659 208.623, 403.659 206.272 M 408.076 210.172 Q 409.544 210.172, 410.332 209.194 Q 411.134 208.202, 411.134 206.272 Q 411.134 204.383, 410.332 203.432 Q 409.544 202.467, 408.076 202.467 Q 406.608 202.467, 405.807 203.418 Q 405.018 204.369, 405.018 206.272 Q 405.018 208.215, 405.807 209.194 Q 406.608 210.172, 408.076 210.172 " fill="#FF0000"/>
<path class="atom-7" d="M 428.059 163.253 Q 428.983 163.511, 429.445 164.082 Q 429.921 164.639, 429.921 165.468 Q 429.921 166.8, 429.065 167.561 Q 428.222 168.308, 426.619 168.308 L 423.384 168.308 L 423.384 158.687 L 426.225 158.687 Q 427.869 158.687, 428.698 159.353 Q 429.527 160.019, 429.527 161.242 Q 429.527 162.696, 428.059 163.253 M 424.675 159.774 L 424.675 162.791 L 426.225 162.791 Q 427.176 162.791, 427.665 162.41 Q 428.168 162.016, 428.168 161.242 Q 428.168 159.774, 426.225 159.774 L 424.675 159.774 M 426.619 167.221 Q 427.556 167.221, 428.059 166.773 Q 428.562 166.324, 428.562 165.468 Q 428.562 164.68, 428.005 164.286 Q 427.461 163.878, 426.415 163.878 L 424.675 163.878 L 424.675 167.221 L 426.619 167.221 " fill="#7F4C19"/>
<path class="atom-7" d="M 432.109 161.323 L 432.258 162.288 Q 432.992 161.201, 434.188 161.201 Q 434.569 161.201, 435.085 161.337 L 434.881 162.478 Q 434.297 162.343, 433.971 162.343 Q 433.4 162.343, 433.019 162.574 Q 432.652 162.791, 432.353 163.321 L 432.353 168.308 L 431.076 168.308 L 431.076 161.323 L 432.109 161.323 " fill="#7F4C19"/>
<path class="atom-14" d="M 486.276 109.312 L 489.429 114.408 Q 489.741 114.911, 490.244 115.821 Q 490.747 116.732, 490.774 116.786 L 490.774 109.312 L 492.051 109.312 L 492.051 118.933 L 490.733 118.933 L 487.349 113.361 Q 486.955 112.709, 486.534 111.962 Q 486.126 111.214, 486.004 110.983 L 486.004 118.933 L 484.754 118.933 L 484.754 109.312 L 486.276 109.312 " fill="#0000FF"/>
<path class="atom-16" d="M 522.336 105.901 Q 522.336 103.59, 523.478 102.299 Q 524.619 101.008, 526.753 101.008 Q 528.887 101.008, 530.028 102.299 Q 531.17 103.59, 531.17 105.901 Q 531.17 108.238, 530.015 109.57 Q 528.859 110.888, 526.753 110.888 Q 524.633 110.888, 523.478 109.57 Q 522.336 108.252, 522.336 105.901 M 526.753 109.801 Q 528.221 109.801, 529.009 108.822 Q 529.811 107.83, 529.811 105.901 Q 529.811 104.012, 529.009 103.06 Q 528.221 102.096, 526.753 102.096 Q 525.285 102.096, 524.484 103.047 Q 523.695 103.998, 523.695 105.901 Q 523.695 107.844, 524.484 108.822 Q 525.285 109.801, 526.753 109.801 " fill="#FF0000"/>
<path class="atom-19" d="M 463.737 214.681 Q 463.846 214.722, 464.294 214.912 Q 464.743 215.103, 465.232 215.225 Q 465.735 215.334, 466.224 215.334 Q 467.134 215.334, 467.664 214.899 Q 468.194 214.45, 468.194 213.676 Q 468.194 213.146, 467.923 212.82 Q 467.664 212.493, 467.257 212.317 Q 466.849 212.14, 466.17 211.936 Q 465.313 211.678, 464.797 211.433 Q 464.294 211.189, 463.927 210.672 Q 463.574 210.156, 463.574 209.286 Q 463.574 208.077, 464.389 207.329 Q 465.218 206.582, 466.849 206.582 Q 467.963 206.582, 469.227 207.112 L 468.915 208.158 Q 467.76 207.683, 466.89 207.683 Q 465.952 207.683, 465.436 208.077 Q 464.919 208.457, 464.933 209.123 Q 464.933 209.64, 465.191 209.952 Q 465.463 210.265, 465.843 210.441 Q 466.238 210.618, 466.89 210.822 Q 467.76 211.094, 468.276 211.366 Q 468.792 211.637, 469.159 212.195 Q 469.54 212.738, 469.54 213.676 Q 469.54 215.008, 468.643 215.728 Q 467.76 216.434, 466.278 216.434 Q 465.422 216.434, 464.77 216.244 Q 464.131 216.068, 463.37 215.755 L 463.737 214.681 " fill="#CCCC00"/>
<path class="atom-22" d="M 415.246 249.739 Q 415.246 247.429, 416.388 246.138 Q 417.529 244.847, 419.663 244.847 Q 421.796 244.847, 422.938 246.138 Q 424.079 247.429, 424.079 249.739 Q 424.079 252.076, 422.924 253.408 Q 421.769 254.726, 419.663 254.726 Q 417.543 254.726, 416.388 253.408 Q 415.246 252.09, 415.246 249.739 M 419.663 253.639 Q 421.13 253.639, 421.919 252.661 Q 422.72 251.669, 422.72 249.739 Q 422.72 247.85, 421.919 246.899 Q 421.13 245.934, 419.663 245.934 Q 418.195 245.934, 417.393 246.885 Q 416.605 247.836, 416.605 249.739 Q 416.605 251.682, 417.393 252.661 Q 418.195 253.639, 419.663 253.639 " fill="#FF0000"/>
<path class="atom-23" d="M 453.626 257.863 Q 453.626 255.553, 454.767 254.262 Q 455.909 252.971, 458.042 252.971 Q 460.176 252.971, 461.317 254.262 Q 462.459 255.553, 462.459 257.863 Q 462.459 260.2, 461.304 261.532 Q 460.149 262.85, 458.042 262.85 Q 455.922 262.85, 454.767 261.532 Q 453.626 260.214, 453.626 257.863 M 458.042 261.763 Q 459.51 261.763, 460.298 260.785 Q 461.1 259.793, 461.1 257.863 Q 461.1 255.974, 460.298 255.023 Q 459.51 254.058, 458.042 254.058 Q 456.575 254.058, 455.773 255.009 Q 454.985 255.96, 454.985 257.863 Q 454.985 259.806, 455.773 260.785 Q 456.575 261.763, 458.042 261.763 " fill="#FF0000"/>
<path class="atom-23" d="M 462.907 254.541 L 466.199 254.541 L 466.199 255.258 L 462.907 255.258 L 462.907 254.541 " fill="#FF0000"/>
<path class="atom-24" d="M 409.331 169.807 L 410.636 169.807 L 410.636 173.898 L 415.555 173.898 L 415.555 169.807 L 416.86 169.807 L 416.86 179.429 L 415.555 179.429 L 415.555 174.985 L 410.636 174.985 L 410.636 179.429 L 409.331 179.429 L 409.331 169.807 " fill="#000000"/>
<path class="atom-25" d="M 388.635 160.6 L 389.94 160.6 L 389.94 164.691 L 394.859 164.691 L 394.859 160.6 L 396.164 160.6 L 396.164 170.221 L 394.859 170.221 L 394.859 165.778 L 389.94 165.778 L 389.94 170.221 L 388.635 170.221 L 388.635 160.6 " fill="#000000"/>
<path class="atom-26" d="M 503.507 198.001 L 504.812 198.001 L 504.812 202.091 L 509.731 202.091 L 509.731 198.001 L 511.036 198.001 L 511.036 207.622 L 509.731 207.622 L 509.731 203.178 L 504.812 203.178 L 504.812 207.622 L 503.507 207.622 L 503.507 198.001 " fill="#000000"/>
<path class="atom-27" d="M 537.162 167.682 L 538.467 167.682 L 538.467 171.773 L 543.386 171.773 L 543.386 167.682 L 544.691 167.682 L 544.691 177.304 L 543.386 177.304 L 543.386 172.86 L 538.467 172.86 L 538.467 177.304 L 537.162 177.304 L 537.162 167.682 " fill="#000000"/>
<path class="atom-28" d="M 527.823 123.328 L 529.127 123.328 L 529.127 127.419 L 534.047 127.419 L 534.047 123.328 L 535.352 123.328 L 535.352 132.949 L 534.047 132.949 L 534.047 128.506 L 529.127 128.506 L 529.127 132.949 L 527.823 132.949 L 527.823 123.328 " fill="#000000"/>
<path class="atom-29" d="M 463.083 102.352 L 464.387 102.352 L 464.387 106.442 L 469.307 106.442 L 469.307 102.352 L 470.611 102.352 L 470.611 111.973 L 469.307 111.973 L 469.307 107.529 L 464.387 107.529 L 464.387 111.973 L 463.083 111.973 L 463.083 102.352 " fill="#000000"/>
<path class="atom-30" d="M 450.953 139.56 L 452.258 139.56 L 452.258 143.65 L 457.177 143.65 L 457.177 139.56 L 458.482 139.56 L 458.482 149.181 L 457.177 149.181 L 457.177 144.737 L 452.258 144.737 L 452.258 149.181 L 450.953 149.181 L 450.953 139.56 " fill="#000000"/>
<path class="atom-32" d="M 474.518 76.7265 L 475.822 76.7265 L 475.822 80.817 L 480.742 80.817 L 480.742 76.7265 L 482.046 76.7265 L 482.046 86.3479 L 480.742 86.3479 L 480.742 81.9042 L 475.822 81.9042 L 475.822 86.3479 L 474.518 86.3479 L 474.518 76.7265 " fill="#000000"/>
<path class="atom-33" d="M 528.652 73.5465 L 529.956 73.5465 L 529.956 77.6369 L 534.876 77.6369 L 534.876 73.5465 L 536.18 73.5465 L 536.18 83.1679 L 534.876 83.1679 L 534.876 78.7241 L 529.956 78.7241 L 529.956 83.1679 L 528.652 83.1679 L 528.652 73.5465 " fill="#000000"/>
<path class="atom-34" d="M 481.46 55.1674 L 482.765 55.1674 L 482.765 59.2578 L 487.684 59.2578 L 487.684 55.1674 L 488.989 55.1674 L 488.989 64.7888 L 487.684 64.7888 L 487.684 60.345 L 482.765 60.345 L 482.765 64.7888 L 481.46 64.7888 L 481.46 55.1674 " fill="#000000"/>
<path class="atom-35" d="M 535.592 51.9875 L 536.896 51.9875 L 536.896 56.078 L 541.816 56.078 L 541.816 51.9875 L 543.12 51.9875 L 543.12 61.6089 L 541.816 61.6089 L 541.816 57.1651 L 536.896 57.1651 L 536.896 61.6089 L 535.592 61.6089 L 535.592 51.9875 " fill="#000000"/>
<path class="atom-36" d="M 508.68 34.6154 L 509.985 34.6154 L 509.985 38.7058 L 514.904 38.7058 L 514.904 34.6154 L 516.209 34.6154 L 516.209 44.2368 L 514.904 44.2368 L 514.904 39.793 L 509.985 39.793 L 509.985 44.2368 L 508.68 44.2368 L 508.68 34.6154 " fill="#000000"/>
<text x="300" y="20" font-size="20" font-family="sans-serif" font-weight="normal" letter-spacing="0" text-anchor="middle" fill="black">ptp1b: 23467 -&gt; 23468</text><text x="300" y="35" font-size="15" font-family="sans-serif" font-weight="normal" letter-spacing="0" text-anchor="middle" fill="black">complex (repeats 4, 5, 6), water (repeats 4, 5, 6), DDG_exp = -0.41 (0.0) kcal/mol</text><text x="150" y="285" font-size="15" font-family="sans-serif" font-weight="normal" letter-spacing="0" text-anchor="middle" fill="black">23467</text><text x="450" y="285" font-size="15" font-family="sans-serif" font-weight="normal" letter-spacing="0" text-anchor="middle" fill="black">23468</text></svg>
