<?xml version='1.0' encoding='ASCII' standalone='yes'?>
<svg xmlns="http://www.w3.org/2000/svg" xmlns:rdkit="http://www.rdkit.org/xml" xmlns:xlink="http://www.w3.org/1999/xlink" version="1.1" baseProfile="full" xml:space="preserve" width="600px" height="300px" viewBox="0 0 600 300">
<!-- END OF HEADER -->
<rect style="opacity:1.0;fill:#FFFFFF;stroke:none" width="600.0" height="300.0" x="0.0" y="0.0"> </rect>
<ellipse cx="115.9" cy="93.9" rx="6.9" ry="6.9" class="atom-15" style="fill:#DC3369;fill-rule:evenodd;stroke:#DC3369;stroke-width:1.0px;stroke-linecap:butt;stroke-linejoin:miter;stroke-opacity:1"/>
<ellipse cx="135.6" cy="86.5" rx="6.9" ry="6.9" class="atom-16" style="fill:#DC3369;fill-rule:evenodd;stroke:#DC3369;stroke-width:1.0px;stroke-linecap:butt;stroke-linejoin:miter;stroke-opacity:1"/>
<ellipse cx="139.0" cy="65.7" rx="6.9" ry="6.9" class="atom-17" style="fill:#DC3369;fill-rule:evenodd;stroke:#DC3369;stroke-width:1.0px;stroke-linecap:butt;stroke-linejoin:miter;stroke-opacity:1"/>
<ellipse cx="122.8" cy="52.5" rx="6.9" ry="6.9" class="atom-18" style="fill:#DC3369;fill-rule:evenodd;stroke:#DC3369;stroke-width:1.0px;stroke-linecap:butt;stroke-linejoin:miter;stroke-opacity:1"/>
<ellipse cx="103.2" cy="59.8" rx="6.9" ry="6.9" class="atom-19" style="fill:#DC3369;fill-rule:evenodd;stroke:#DC3369;stroke-width:1.0px;stroke-linecap:butt;stroke-linejoin:miter;stroke-opacity:1"/>
<ellipse cx="99.7" cy="80.5" rx="6.9" ry="6.9" class="atom-20" style="fill:#DC3369;fill-rule:evenodd;stroke:#DC3369;stroke-width:1.0px;stroke-linecap:butt;stroke-linejoin:miter;stroke-opacity:1"/>
<ellipse cx="151.6" cy="121.3" rx="6.9" ry="6.9" class="atom-32" style="fill:#DC3369;fill-rule:evenodd;stroke:#DC3369;stroke-width:1.0px;stroke-linecap:butt;stroke-linejoin:miter;stroke-opacity:1"/>
<ellipse cx="100.9" cy="108.1" rx="6.9" ry="6.9" class="atom-33" style="fill:#DC3369;fill-rule:evenodd;stroke:#DC3369;stroke-width:1.0px;stroke-linecap:butt;stroke-linejoin:miter;stroke-opacity:1"/>
<ellipse cx="155.9" cy="87.7" rx="6.9" ry="6.9" class="atom-34" style="fill:#DC3369;fill-rule:evenodd;stroke:#DC3369;stroke-width:1.0px;stroke-linecap:butt;stroke-linejoin:miter;stroke-opacity:1"/>
<ellipse cx="140.7" cy="104.2" rx="6.9" ry="6.9" class="atom-35" style="fill:#DC3369;fill-rule:evenodd;stroke:#DC3369;stroke-width:1.0px;stroke-linecap:butt;stroke-linejoin:miter;stroke-opacity:1"/>
<ellipse cx="148.6" cy="47.3" rx="6.9" ry="6.9" class="atom-36" style="fill:#DC3369;fill-rule:evenodd;stroke:#DC3369;stroke-width:1.0px;stroke-linecap:butt;stroke-linejoin:miter;stroke-opacity:1"/>
<ellipse cx="158.9" cy="71.2" rx="6.9" ry="6.9" class="atom-37" style="fill:#DC3369;fill-rule:evenodd;stroke:#DC3369;stroke-width:1.0px;stroke-linecap:butt;stroke-linejoin:miter;stroke-opacity:1"/>
<ellipse cx="82.7" cy="57.7" rx="6.9" ry="6.9" class="atom-38" style="fill:#DC3369;fill-rule:evenodd;stroke:#DC3369;stroke-width:1.0px;stroke-linecap:butt;stroke-linejoin:miter;stroke-opacity:1"/>
<ellipse cx="100.5" cy="39.0" rx="6.9" ry="6.9" class="atom-39" style="fill:#DC3369;fill-rule:evenodd;stroke:#DC3369;stroke-width:1.0px;stroke-linecap:butt;stroke-linejoin:miter;stroke-opacity:1"/>
<ellipse cx="88.1" cy="97.4" rx="6.9" ry="6.9" class="atom-40" style="fill:#DC3369;fill-rule:evenodd;stroke:#DC3369;stroke-width:1.0px;stroke-linecap:butt;stroke-linejoin:miter;stroke-opacity:1"/>
<ellipse cx="80.1" cy="74.2" rx="6.9" ry="6.9" class="atom-41" style="fill:#DC3369;fill-rule:evenodd;stroke:#DC3369;stroke-width:1.0px;stroke-linecap:butt;stroke-linejoin:miter;stroke-opacity:1"/>
<path class="bond-0 atom-0 atom-1" d="M 225.8,214.9 L 219.7,219.3" style="fill:none;fill-rule:evenodd;stroke:#FF0000;stroke-width:2.0px;stroke-linecap:butt;stroke-linejoin:miter;stroke-opacity:1"/>
<path class="bond-0 atom-0 atom-1" d="M 219.7,219.3 L 213.6,223.7" style="fill:none;fill-rule:evenodd;stroke:#000000;stroke-width:2.0px;stroke-linecap:butt;stroke-linejoin:miter;stroke-opacity:1"/>
<path class="bond-0 atom-0 atom-1" d="M 223.6,211.9 L 217.5,216.2" style="fill:none;fill-rule:evenodd;stroke:#FF0000;stroke-width:2.0px;stroke-linecap:butt;stroke-linejoin:miter;stroke-opacity:1"/>
<path class="bond-0 atom-0 atom-1" d="M 217.5,216.2 L 211.4,220.6" style="fill:none;fill-rule:evenodd;stroke:#000000;stroke-width:2.0px;stroke-linecap:butt;stroke-linejoin:miter;stroke-opacity:1"/>
<path class="bond-1 atom-1 atom-2" d="M 212.5,222.2 L 213.3,229.9" style="fill:none;fill-rule:evenodd;stroke:#000000;stroke-width:2.0px;stroke-linecap:butt;stroke-linejoin:miter;stroke-opacity:1"/>
<path class="bond-1 atom-1 atom-2" d="M 213.3,229.9 L 214.1,237.7" style="fill:none;fill-rule:evenodd;stroke:#FF0000;stroke-width:2.0px;stroke-linecap:butt;stroke-linejoin:miter;stroke-opacity:1"/>
<path class="bond-2 atom-1 atom-3" d="M 212.5,222.2 L 193.5,213.6" style="fill:none;fill-rule:evenodd;stroke:#000000;stroke-width:2.0px;stroke-linecap:butt;stroke-linejoin:miter;stroke-opacity:1"/>
<path class="bond-3 atom-3 atom-4" d="M 193.5,213.6 L 187.4,218.0" style="fill:none;fill-rule:evenodd;stroke:#000000;stroke-width:2.0px;stroke-linecap:butt;stroke-linejoin:miter;stroke-opacity:1"/>
<path class="bond-3 atom-3 atom-4" d="M 187.4,218.0 L 181.4,222.4" style="fill:none;fill-rule:evenodd;stroke:#FF0000;stroke-width:2.0px;stroke-linecap:butt;stroke-linejoin:miter;stroke-opacity:1"/>
<path class="bond-4 atom-3 atom-27" d="M 193.5,213.6 L 185.0,201.9" style="fill:none;fill-rule:evenodd;stroke:#000000;stroke-width:2.0px;stroke-linecap:butt;stroke-linejoin:miter;stroke-opacity:1"/>
<path class="bond-5 atom-3 atom-28" d="M 193.5,213.6 L 199.7,199.7" style="fill:none;fill-rule:evenodd;stroke:#000000;stroke-width:2.0px;stroke-linecap:butt;stroke-linejoin:miter;stroke-opacity:1"/>
<path class="bond-6 atom-4 atom-5" d="M 171.9,223.7 L 164.7,220.5" style="fill:none;fill-rule:evenodd;stroke:#FF0000;stroke-width:2.0px;stroke-linecap:butt;stroke-linejoin:miter;stroke-opacity:1"/>
<path class="bond-6 atom-4 atom-5" d="M 164.7,220.5 L 157.6,217.3" style="fill:none;fill-rule:evenodd;stroke:#000000;stroke-width:2.0px;stroke-linecap:butt;stroke-linejoin:miter;stroke-opacity:1"/>
<path class="bond-7 atom-5 atom-6" d="M 157.6,217.3 L 153.3,196.9" style="fill:none;fill-rule:evenodd;stroke:#000000;stroke-width:2.0px;stroke-linecap:butt;stroke-linejoin:miter;stroke-opacity:1"/>
<path class="bond-8 atom-5 atom-23" d="M 157.6,217.3 L 139.5,227.7" style="fill:none;fill-rule:evenodd;stroke:#000000;stroke-width:2.0px;stroke-linecap:butt;stroke-linejoin:miter;stroke-opacity:1"/>
<path class="bond-8 atom-5 atom-23" d="M 153.0,215.6 L 140.4,222.9" style="fill:none;fill-rule:evenodd;stroke:#000000;stroke-width:2.0px;stroke-linecap:butt;stroke-linejoin:miter;stroke-opacity:1"/>
<path class="bond-9 atom-6 atom-7" d="M 153.3,196.9 L 158.4,191.2" style="fill:none;fill-rule:evenodd;stroke:#000000;stroke-width:2.0px;stroke-linecap:butt;stroke-linejoin:miter;stroke-opacity:1"/>
<path class="bond-9 atom-6 atom-7" d="M 158.4,191.2 L 163.6,185.5" style="fill:none;fill-rule:evenodd;stroke:#7F4C19;stroke-width:2.0px;stroke-linecap:butt;stroke-linejoin:miter;stroke-opacity:1"/>
<path class="bond-10 atom-6 atom-8" d="M 153.3,196.9 L 132.5,194.7" style="fill:none;fill-rule:evenodd;stroke:#000000;stroke-width:2.0px;stroke-linecap:butt;stroke-linejoin:miter;stroke-opacity:1"/>
<path class="bond-10 atom-6 atom-8" d="M 149.8,200.3 L 135.3,198.8" style="fill:none;fill-rule:evenodd;stroke:#000000;stroke-width:2.0px;stroke-linecap:butt;stroke-linejoin:miter;stroke-opacity:1"/>
<path class="bond-11 atom-8 atom-9" d="M 132.5,194.7 L 122.1,176.4" style="fill:none;fill-rule:evenodd;stroke:#000000;stroke-width:2.0px;stroke-linecap:butt;stroke-linejoin:miter;stroke-opacity:1"/>
<path class="bond-12 atom-8 atom-22" d="M 132.5,194.7 L 129.4,201.7" style="fill:none;fill-rule:evenodd;stroke:#000000;stroke-width:2.0px;stroke-linecap:butt;stroke-linejoin:miter;stroke-opacity:1"/>
<path class="bond-12 atom-8 atom-22" d="M 129.4,201.7 L 126.3,208.7" style="fill:none;fill-rule:evenodd;stroke:#CCCC00;stroke-width:2.0px;stroke-linecap:butt;stroke-linejoin:miter;stroke-opacity:1"/>
<path class="bond-13 atom-9 atom-10" d="M 122.1,176.4 L 101.2,176.4" style="fill:none;fill-rule:evenodd;stroke:#000000;stroke-width:2.0px;stroke-linecap:butt;stroke-linejoin:miter;stroke-opacity:1"/>
<path class="bond-13 atom-9 atom-10" d="M 119.0,172.7 L 104.3,172.7" style="fill:none;fill-rule:evenodd;stroke:#000000;stroke-width:2.0px;stroke-linecap:butt;stroke-linejoin:miter;stroke-opacity:1"/>
<path class="bond-14 atom-9 atom-21" d="M 122.1,176.4 L 132.5,158.3" style="fill:none;fill-rule:evenodd;stroke:#000000;stroke-width:2.0px;stroke-linecap:butt;stroke-linejoin:miter;stroke-opacity:1"/>
<path class="bond-15 atom-10 atom-11" d="M 101.2,176.4 L 90.8,158.4" style="fill:none;fill-rule:evenodd;stroke:#000000;stroke-width:2.0px;stroke-linecap:butt;stroke-linejoin:miter;stroke-opacity:1"/>
<path class="bond-16 atom-10 atom-29" d="M 101.2,176.4 L 93.7,189.4" style="fill:none;fill-rule:evenodd;stroke:#000000;stroke-width:2.0px;stroke-linecap:butt;stroke-linejoin:miter;stroke-opacity:1"/>
<path class="bond-17 atom-11 atom-12" d="M 90.8,158.4 L 101.3,140.3" style="fill:none;fill-rule:evenodd;stroke:#000000;stroke-width:2.0px;stroke-linecap:butt;stroke-linejoin:miter;stroke-opacity:1"/>
<path class="bond-17 atom-11 atom-12" d="M 95.7,157.5 L 103.0,144.9" style="fill:none;fill-rule:evenodd;stroke:#000000;stroke-width:2.0px;stroke-linecap:butt;stroke-linejoin:miter;stroke-opacity:1"/>
<path class="bond-18 atom-11 atom-30" d="M 90.8,158.4 L 74.1,158.4" style="fill:none;fill-rule:evenodd;stroke:#000000;stroke-width:2.0px;stroke-linecap:butt;stroke-linejoin:miter;stroke-opacity:1"/>
<path class="bond-19 atom-12 atom-13" d="M 101.3,140.3 L 122.1,140.3" style="fill:none;fill-rule:evenodd;stroke:#000000;stroke-width:2.0px;stroke-linecap:butt;stroke-linejoin:miter;stroke-opacity:1"/>
<path class="bond-20 atom-12 atom-31" d="M 101.3,140.3 L 93.8,127.4" style="fill:none;fill-rule:evenodd;stroke:#000000;stroke-width:2.0px;stroke-linecap:butt;stroke-linejoin:miter;stroke-opacity:1"/>
<path class="bond-21 atom-13 atom-14" d="M 122.1,140.3 L 125.3,132.9" style="fill:none;fill-rule:evenodd;stroke:#000000;stroke-width:2.0px;stroke-linecap:butt;stroke-linejoin:miter;stroke-opacity:1"/>
<path class="bond-21 atom-13 atom-14" d="M 125.3,132.9 L 128.5,125.5" style="fill:none;fill-rule:evenodd;stroke:#0000FF;stroke-width:2.0px;stroke-linecap:butt;stroke-linejoin:miter;stroke-opacity:1"/>
<path class="bond-22 atom-13 atom-21" d="M 122.1,140.3 L 132.5,158.3" style="fill:none;fill-rule:evenodd;stroke:#000000;stroke-width:2.0px;stroke-linecap:butt;stroke-linejoin:miter;stroke-opacity:1"/>
<path class="bond-22 atom-13 atom-21" d="M 120.4,144.8 L 127.7,157.5" style="fill:none;fill-rule:evenodd;stroke:#000000;stroke-width:2.0px;stroke-linecap:butt;stroke-linejoin:miter;stroke-opacity:1"/>
<path class="bond-23 atom-14 atom-15" d="M 127.9,115.3 L 121.9,104.6" style="fill:none;fill-rule:evenodd;stroke:#0000FF;stroke-width:2.0px;stroke-linecap:butt;stroke-linejoin:miter;stroke-opacity:1"/>
<path class="bond-23 atom-14 atom-15" d="M 121.9,104.6 L 115.9,93.9" style="fill:none;fill-rule:evenodd;stroke:#000000;stroke-width:2.0px;stroke-linecap:butt;stroke-linejoin:miter;stroke-opacity:1"/>
<path class="bond-24 atom-14 atom-32" d="M 134.8,120.6 L 141.1,120.9" style="fill:none;fill-rule:evenodd;stroke:#0000FF;stroke-width:2.0px;stroke-linecap:butt;stroke-linejoin:miter;stroke-opacity:1"/>
<path class="bond-24 atom-14 atom-32" d="M 141.1,120.9 L 147.4,121.1" style="fill:none;fill-rule:evenodd;stroke:#000000;stroke-width:2.0px;stroke-linecap:butt;stroke-linejoin:miter;stroke-opacity:1"/>
<path class="bond-25 atom-15 atom-16" d="M 115.9,93.9 L 135.6,86.5" style="fill:none;fill-rule:evenodd;stroke:#000000;stroke-width:2.0px;stroke-linecap:butt;stroke-linejoin:miter;stroke-opacity:1"/>
<path class="bond-26 atom-15 atom-20" d="M 115.9,93.9 L 99.7,80.5" style="fill:none;fill-rule:evenodd;stroke:#000000;stroke-width:2.0px;stroke-linecap:butt;stroke-linejoin:miter;stroke-opacity:1"/>
<path class="bond-27 atom-15 atom-33" d="M 115.9,93.9 L 105.1,104.1" style="fill:none;fill-rule:evenodd;stroke:#000000;stroke-width:2.0px;stroke-linecap:butt;stroke-linejoin:miter;stroke-opacity:1"/>
<path class="bond-28 atom-16 atom-17" d="M 135.6,86.5 L 139.0,65.7" style="fill:none;fill-rule:evenodd;stroke:#000000;stroke-width:2.0px;stroke-linecap:butt;stroke-linejoin:miter;stroke-opacity:1"/>
<path class="bond-29 atom-16 atom-34" d="M 135.6,86.5 L 151.8,87.5" style="fill:none;fill-rule:evenodd;stroke:#000000;stroke-width:2.0px;stroke-linecap:butt;stroke-linejoin:miter;stroke-opacity:1"/>
<path class="bond-30 atom-16 atom-35" d="M 135.6,86.5 L 139.2,99.1" style="fill:none;fill-rule:evenodd;stroke:#000000;stroke-width:2.0px;stroke-linecap:butt;stroke-linejoin:miter;stroke-opacity:1"/>
<path class="bond-31 atom-17 atom-18" d="M 139.0,65.7 L 133.3,61.0" style="fill:none;fill-rule:evenodd;stroke:#000000;stroke-width:2.0px;stroke-linecap:butt;stroke-linejoin:miter;stroke-opacity:1"/>
<path class="bond-31 atom-17 atom-18" d="M 133.3,61.0 L 127.6,56.3" style="fill:none;fill-rule:evenodd;stroke:#FF0000;stroke-width:2.0px;stroke-linecap:butt;stroke-linejoin:miter;stroke-opacity:1"/>
<path class="bond-32 atom-17 atom-36" d="M 139.0,65.7 L 146.0,52.4" style="fill:none;fill-rule:evenodd;stroke:#000000;stroke-width:2.0px;stroke-linecap:butt;stroke-linejoin:miter;stroke-opacity:1"/>
<path class="bond-33 atom-17 atom-37" d="M 139.0,65.7 L 154.8,70.1" style="fill:none;fill-rule:evenodd;stroke:#000000;stroke-width:2.0px;stroke-linecap:butt;stroke-linejoin:miter;stroke-opacity:1"/>
<path class="bond-34 atom-18 atom-19" d="M 118.1,54.2 L 110.6,57.0" style="fill:none;fill-rule:evenodd;stroke:#FF0000;stroke-width:2.0px;stroke-linecap:butt;stroke-linejoin:miter;stroke-opacity:1"/>
<path class="bond-34 atom-18 atom-19" d="M 110.6,57.0 L 103.2,59.8" style="fill:none;fill-rule:evenodd;stroke:#000000;stroke-width:2.0px;stroke-linecap:butt;stroke-linejoin:miter;stroke-opacity:1"/>
<path class="bond-35 atom-19 atom-20" d="M 103.2,59.8 L 99.7,80.5" style="fill:none;fill-rule:evenodd;stroke:#000000;stroke-width:2.0px;stroke-linecap:butt;stroke-linejoin:miter;stroke-opacity:1"/>
<path class="bond-36 atom-19 atom-38" d="M 103.2,59.8 L 86.9,58.1" style="fill:none;fill-rule:evenodd;stroke:#000000;stroke-width:2.0px;stroke-linecap:butt;stroke-linejoin:miter;stroke-opacity:1"/>
<path class="bond-37 atom-19 atom-39" d="M 103.2,59.8 L 101.2,44.2" style="fill:none;fill-rule:evenodd;stroke:#000000;stroke-width:2.0px;stroke-linecap:butt;stroke-linejoin:miter;stroke-opacity:1"/>
<path class="bond-38 atom-20 atom-40" d="M 99.7,80.5 L 91.6,92.2" style="fill:none;fill-rule:evenodd;stroke:#000000;stroke-width:2.0px;stroke-linecap:butt;stroke-linejoin:miter;stroke-opacity:1"/>
<path class="bond-39 atom-20 atom-41" d="M 99.7,80.5 L 84.2,75.5" style="fill:none;fill-rule:evenodd;stroke:#000000;stroke-width:2.0px;stroke-linecap:butt;stroke-linejoin:miter;stroke-opacity:1"/>
<path class="bond-40 atom-21 atom-42" d="M 132.5,158.3 L 149.2,158.3" style="fill:none;fill-rule:evenodd;stroke:#000000;stroke-width:2.0px;stroke-linecap:butt;stroke-linejoin:miter;stroke-opacity:1"/>
<path class="bond-41 atom-22 atom-23" d="M 127.6,217.0 L 133.5,222.3" style="fill:none;fill-rule:evenodd;stroke:#CCCC00;stroke-width:2.0px;stroke-linecap:butt;stroke-linejoin:miter;stroke-opacity:1"/>
<path class="bond-41 atom-22 atom-23" d="M 133.5,222.3 L 139.5,227.7" style="fill:none;fill-rule:evenodd;stroke:#000000;stroke-width:2.0px;stroke-linecap:butt;stroke-linejoin:miter;stroke-opacity:1"/>
<path class="bond-42 atom-23 atom-24" d="M 139.5,227.7 L 137.3,248.5" style="fill:none;fill-rule:evenodd;stroke:#000000;stroke-width:2.0px;stroke-linecap:butt;stroke-linejoin:miter;stroke-opacity:1"/>
<path class="bond-43 atom-24 atom-25" d="M 138.1,250.2 L 130.9,253.4" style="fill:none;fill-rule:evenodd;stroke:#000000;stroke-width:2.0px;stroke-linecap:butt;stroke-linejoin:miter;stroke-opacity:1"/>
<path class="bond-43 atom-24 atom-25" d="M 130.9,253.4 L 123.8,256.5" style="fill:none;fill-rule:evenodd;stroke:#FF0000;stroke-width:2.0px;stroke-linecap:butt;stroke-linejoin:miter;stroke-opacity:1"/>
<path class="bond-43 atom-24 atom-25" d="M 136.5,246.8 L 129.4,249.9" style="fill:none;fill-rule:evenodd;stroke:#000000;stroke-width:2.0px;stroke-linecap:butt;stroke-linejoin:miter;stroke-opacity:1"/>
<path class="bond-43 atom-24 atom-25" d="M 129.4,249.9 L 122.2,253.1" style="fill:none;fill-rule:evenodd;stroke:#FF0000;stroke-width:2.0px;stroke-linecap:butt;stroke-linejoin:miter;stroke-opacity:1"/>
<path class="bond-44 atom-24 atom-26" d="M 137.3,248.5 L 143.3,252.9" style="fill:none;fill-rule:evenodd;stroke:#000000;stroke-width:2.0px;stroke-linecap:butt;stroke-linejoin:miter;stroke-opacity:1"/>
<path class="bond-44 atom-24 atom-26" d="M 143.3,252.9 L 149.4,257.3" style="fill:none;fill-rule:evenodd;stroke:#FF0000;stroke-width:2.0px;stroke-linecap:butt;stroke-linejoin:miter;stroke-opacity:1"/>
<path class="atom-0" d="M 225.4 210.0 Q 225.4 207.8, 226.4 206.6 Q 227.5 205.5, 229.4 205.5 Q 231.4 205.5, 232.4 206.6 Q 233.5 207.8, 233.5 210.0 Q 233.5 212.1, 232.4 213.3 Q 231.4 214.6, 229.4 214.6 Q 227.5 214.6, 226.4 213.3 Q 225.4 212.1, 225.4 210.0 M 229.4 213.6 Q 230.8 213.6, 231.5 212.7 Q 232.2 211.7, 232.2 210.0 Q 232.2 208.2, 231.5 207.3 Q 230.8 206.5, 229.4 206.5 Q 228.1 206.5, 227.3 207.3 Q 226.6 208.2, 226.6 210.0 Q 226.6 211.8, 227.3 212.7 Q 228.1 213.6, 229.4 213.6 " fill="#FF0000"/>
<path class="atom-2" d="M 210.6 242.9 Q 210.6 240.8, 211.7 239.6 Q 212.7 238.4, 214.7 238.4 Q 216.6 238.4, 217.7 239.6 Q 218.7 240.8, 218.7 242.9 Q 218.7 245.1, 217.7 246.3 Q 216.6 247.5, 214.7 247.5 Q 212.7 247.5, 211.7 246.3 Q 210.6 245.1, 210.6 242.9 M 214.7 246.5 Q 216.0 246.5, 216.7 245.6 Q 217.5 244.7, 217.5 242.9 Q 217.5 241.2, 216.7 240.3 Q 216.0 239.4, 214.7 239.4 Q 213.3 239.4, 212.6 240.3 Q 211.9 241.2, 211.9 242.9 Q 211.9 244.7, 212.6 245.6 Q 213.3 246.5, 214.7 246.5 " fill="#FF0000"/>
<path class="atom-2" d="M 219.4 239.9 L 222.4 239.9 L 222.4 240.5 L 219.4 240.5 L 219.4 239.9 " fill="#FF0000"/>
<path class="atom-4" d="M 172.6 225.9 Q 172.6 223.7, 173.6 222.5 Q 174.7 221.4, 176.6 221.4 Q 178.6 221.4, 179.6 222.5 Q 180.7 223.7, 180.7 225.9 Q 180.7 228.0, 179.6 229.2 Q 178.6 230.5, 176.6 230.5 Q 174.7 230.5, 173.6 229.2 Q 172.6 228.0, 172.6 225.9 M 176.6 229.5 Q 178.0 229.5, 178.7 228.6 Q 179.4 227.6, 179.4 225.9 Q 179.4 224.1, 178.7 223.2 Q 178.0 222.4, 176.6 222.4 Q 175.3 222.4, 174.5 223.2 Q 173.8 224.1, 173.8 225.9 Q 173.8 227.7, 174.5 228.6 Q 175.3 229.5, 176.6 229.5 " fill="#FF0000"/>
<path class="atom-7" d="M 168.6 181.2 Q 169.4 181.5, 169.8 182.0 Q 170.3 182.5, 170.3 183.3 Q 170.3 184.5, 169.5 185.2 Q 168.7 185.9, 167.2 185.9 L 164.2 185.9 L 164.2 177.0 L 166.9 177.0 Q 168.4 177.0, 169.1 177.6 Q 169.9 178.2, 169.9 179.4 Q 169.9 180.7, 168.6 181.2 M 165.4 178.0 L 165.4 180.8 L 166.9 180.8 Q 167.7 180.8, 168.2 180.4 Q 168.7 180.1, 168.7 179.4 Q 168.7 178.0, 166.9 178.0 L 165.4 178.0 M 167.2 184.9 Q 168.1 184.9, 168.6 184.5 Q 169.0 184.0, 169.0 183.3 Q 169.0 182.5, 168.5 182.2 Q 168.0 181.8, 167.0 181.8 L 165.4 181.8 L 165.4 184.9 L 167.2 184.9 " fill="#7F4C19"/>
<path class="atom-7" d="M 171.8 179.4 L 171.9 180.3 Q 172.6 179.3, 173.7 179.3 Q 174.1 179.3, 174.5 179.5 L 174.3 180.5 Q 173.8 180.4, 173.5 180.4 Q 173.0 180.4, 172.6 180.6 Q 172.3 180.8, 172.0 181.3 L 172.0 185.9 L 170.8 185.9 L 170.8 179.4 L 171.8 179.4 " fill="#7F4C19"/>
<path class="atom-14" d="M 128.8 116.0 L 131.7 120.7 Q 132.0 121.1, 132.4 122.0 Q 132.9 122.8, 132.9 122.9 L 132.9 116.0 L 134.1 116.0 L 134.1 124.8 L 132.9 124.8 L 129.8 119.7 Q 129.4 119.1, 129.0 118.4 Q 128.6 117.7, 128.5 117.5 L 128.5 124.8 L 127.4 124.8 L 127.4 116.0 L 128.8 116.0 " fill="#0000FF"/>
<path class="atom-18" d="M 118.8 52.4 Q 118.8 50.3, 119.8 49.1 Q 120.9 47.9, 122.8 47.9 Q 124.8 47.9, 125.8 49.1 Q 126.9 50.3, 126.9 52.4 Q 126.9 54.6, 125.8 55.8 Q 124.8 57.0, 122.8 57.0 Q 120.9 57.0, 119.8 55.8 Q 118.8 54.6, 118.8 52.4 M 122.8 56.0 Q 124.2 56.0, 124.9 55.1 Q 125.6 54.2, 125.6 52.4 Q 125.6 50.7, 124.9 49.8 Q 124.2 48.9, 122.8 48.9 Q 121.5 48.9, 120.7 49.8 Q 120.0 50.7, 120.0 52.4 Q 120.0 54.2, 120.7 55.1 Q 121.5 56.0, 122.8 56.0 " fill="#FF0000"/>
<path class="atom-22" d="M 121.5 216.8 Q 121.6 216.8, 122.0 217.0 Q 122.4 217.2, 122.9 217.3 Q 123.4 217.4, 123.8 217.4 Q 124.6 217.4, 125.1 217.0 Q 125.6 216.6, 125.6 215.9 Q 125.6 215.4, 125.4 215.1 Q 125.1 214.8, 124.8 214.6 Q 124.4 214.5, 123.8 214.3 Q 123.0 214.0, 122.5 213.8 Q 122.0 213.6, 121.7 213.1 Q 121.4 212.6, 121.4 211.8 Q 121.4 210.7, 122.1 210.0 Q 122.9 209.4, 124.4 209.4 Q 125.4 209.4, 126.6 209.8 L 126.3 210.8 Q 125.2 210.4, 124.4 210.4 Q 123.6 210.4, 123.1 210.7 Q 122.6 211.1, 122.6 211.7 Q 122.6 212.2, 122.9 212.5 Q 123.1 212.7, 123.5 212.9 Q 123.8 213.1, 124.4 213.3 Q 125.2 213.5, 125.7 213.8 Q 126.2 214.0, 126.5 214.5 Q 126.9 215.0, 126.9 215.9 Q 126.9 217.1, 126.0 217.8 Q 125.2 218.4, 123.9 218.4 Q 123.1 218.4, 122.5 218.2 Q 121.9 218.1, 121.2 217.8 L 121.5 216.8 " fill="#CCCC00"/>
<path class="atom-25" d="M 114.2 256.9 Q 114.2 254.8, 115.2 253.6 Q 116.3 252.4, 118.2 252.4 Q 120.2 252.4, 121.3 253.6 Q 122.3 254.8, 122.3 256.9 Q 122.3 259.1, 121.2 260.3 Q 120.2 261.5, 118.2 261.5 Q 116.3 261.5, 115.2 260.3 Q 114.2 259.1, 114.2 256.9 M 118.2 260.5 Q 119.6 260.5, 120.3 259.6 Q 121.1 258.7, 121.1 256.9 Q 121.1 255.2, 120.3 254.3 Q 119.6 253.4, 118.2 253.4 Q 116.9 253.4, 116.1 254.3 Q 115.4 255.2, 115.4 256.9 Q 115.4 258.7, 116.1 259.6 Q 116.9 260.5, 118.2 260.5 " fill="#FF0000"/>
<path class="atom-26" d="M 150.1 260.8 Q 150.1 258.7, 151.1 257.5 Q 152.2 256.3, 154.1 256.3 Q 156.1 256.3, 157.2 257.5 Q 158.2 258.7, 158.2 260.8 Q 158.2 262.9, 157.2 264.2 Q 156.1 265.4, 154.1 265.4 Q 152.2 265.4, 151.1 264.2 Q 150.1 263.0, 150.1 260.8 M 154.1 264.4 Q 155.5 264.4, 156.2 263.5 Q 157.0 262.6, 157.0 260.8 Q 157.0 259.1, 156.2 258.2 Q 155.5 257.3, 154.1 257.3 Q 152.8 257.3, 152.1 258.2 Q 151.3 259.0, 151.3 260.8 Q 151.3 262.6, 152.1 263.5 Q 152.8 264.4, 154.1 264.4 " fill="#FF0000"/>
<path class="atom-26" d="M 158.8 257.7 L 161.9 257.7 L 161.9 258.4 L 158.8 258.4 L 158.8 257.7 " fill="#FF0000"/>
<path class="atom-27" d="M 177.8 192.3 L 179.0 192.3 L 179.0 196.1 L 183.6 196.1 L 183.6 192.3 L 184.8 192.3 L 184.8 201.2 L 183.6 201.2 L 183.6 197.1 L 179.0 197.1 L 179.0 201.2 L 177.8 201.2 L 177.8 192.3 " fill="#000000"/>
<path class="atom-28" d="M 198.6 190.2 L 199.8 190.2 L 199.8 193.9 L 204.3 193.9 L 204.3 190.2 L 205.5 190.2 L 205.5 199.0 L 204.3 199.0 L 204.3 194.9 L 199.8 194.9 L 199.8 199.0 L 198.6 199.0 L 198.6 190.2 " fill="#000000"/>
<path class="atom-29" d="M 87.3 190.1 L 88.5 190.1 L 88.5 193.8 L 93.0 193.8 L 93.0 190.1 L 94.2 190.1 L 94.2 198.9 L 93.0 198.9 L 93.0 194.8 L 88.5 194.8 L 88.5 198.9 L 87.3 198.9 L 87.3 190.1 " fill="#000000"/>
<path class="atom-30" d="M 66.5 153.9 L 67.7 153.9 L 67.7 157.7 L 72.2 157.7 L 72.2 153.9 L 73.4 153.9 L 73.4 162.8 L 72.2 162.8 L 72.2 158.7 L 67.7 158.7 L 67.7 162.8 L 66.5 162.8 L 66.5 153.9 " fill="#000000"/>
<path class="atom-31" d="M 87.4 117.8 L 88.6 117.8 L 88.6 121.6 L 93.1 121.6 L 93.1 117.8 L 94.3 117.8 L 94.3 126.7 L 93.1 126.7 L 93.1 122.6 L 88.6 122.6 L 88.6 126.7 L 87.4 126.7 L 87.4 117.8 " fill="#000000"/>
<path class="atom-32" d="M 148.1 116.9 L 149.3 116.9 L 149.3 120.7 L 153.9 120.7 L 153.9 116.9 L 155.1 116.9 L 155.1 125.8 L 153.9 125.8 L 153.9 121.7 L 149.3 121.7 L 149.3 125.8 L 148.1 125.8 L 148.1 116.9 " fill="#000000"/>
<path class="atom-33" d="M 97.5 103.7 L 98.7 103.7 L 98.7 107.4 L 103.2 107.4 L 103.2 103.7 L 104.4 103.7 L 104.4 112.5 L 103.2 112.5 L 103.2 108.4 L 98.7 108.4 L 98.7 112.5 L 97.5 112.5 L 97.5 103.7 " fill="#000000"/>
<path class="atom-34" d="M 152.5 83.3 L 153.7 83.3 L 153.7 87.0 L 158.2 87.0 L 158.2 83.3 L 159.4 83.3 L 159.4 92.1 L 158.2 92.1 L 158.2 88.0 L 153.7 88.0 L 153.7 92.1 L 152.5 92.1 L 152.5 83.3 " fill="#000000"/>
<path class="atom-35" d="M 137.2 99.8 L 138.4 99.8 L 138.4 103.6 L 143.0 103.6 L 143.0 99.8 L 144.2 99.8 L 144.2 108.7 L 143.0 108.7 L 143.0 104.6 L 138.4 104.6 L 138.4 108.7 L 137.2 108.7 L 137.2 99.8 " fill="#000000"/>
<path class="atom-36" d="M 145.2 42.9 L 146.4 42.9 L 146.4 46.6 L 150.9 46.6 L 150.9 42.9 L 152.1 42.9 L 152.1 51.7 L 150.9 51.7 L 150.9 47.6 L 146.4 47.6 L 146.4 51.7 L 145.2 51.7 L 145.2 42.9 " fill="#000000"/>
<path class="atom-37" d="M 155.5 66.8 L 156.7 66.8 L 156.7 70.6 L 161.2 70.6 L 161.2 66.8 L 162.4 66.8 L 162.4 75.7 L 161.2 75.7 L 161.2 71.6 L 156.7 71.6 L 156.7 75.7 L 155.5 75.7 L 155.5 66.8 " fill="#000000"/>
<path class="atom-38" d="M 79.3 53.2 L 80.5 53.2 L 80.5 57.0 L 85.0 57.0 L 85.0 53.2 L 86.2 53.2 L 86.2 62.1 L 85.0 62.1 L 85.0 58.0 L 80.5 58.0 L 80.5 62.1 L 79.3 62.1 L 79.3 53.2 " fill="#000000"/>
<path class="atom-39" d="M 97.1 34.6 L 98.3 34.6 L 98.3 38.4 L 102.8 38.4 L 102.8 34.6 L 104.0 34.6 L 104.0 43.5 L 102.8 43.5 L 102.8 39.4 L 98.3 39.4 L 98.3 43.5 L 97.1 43.5 L 97.1 34.6 " fill="#000000"/>
<path class="atom-40" d="M 84.6 92.9 L 85.8 92.9 L 85.8 96.7 L 90.4 96.7 L 90.4 92.9 L 91.6 92.9 L 91.6 101.8 L 90.4 101.8 L 90.4 97.7 L 85.8 97.7 L 85.8 101.8 L 84.6 101.8 L 84.6 92.9 " fill="#000000"/>
<path class="atom-41" d="M 76.6 69.8 L 77.8 69.8 L 77.8 73.5 L 82.3 73.5 L 82.3 69.8 L 83.5 69.8 L 83.5 78.6 L 82.3 78.6 L 82.3 74.5 L 77.8 74.5 L 77.8 78.6 L 76.6 78.6 L 76.6 69.8 " fill="#000000"/>
<path class="atom-42" d="M 149.9 153.9 L 151.1 153.9 L 151.1 157.7 L 155.7 157.7 L 155.7 153.9 L 156.9 153.9 L 156.9 162.7 L 155.7 162.7 L 155.7 158.7 L 151.1 158.7 L 151.1 162.7 L 149.9 162.7 L 149.9 153.9 " fill="#000000"/>
<ellipse cx="453.4" cy="89.7" rx="6.9" ry="6.9" class="atom-26" style="fill:#DC3369;fill-rule:evenodd;stroke:#DC3369;stroke-width:1.0px;stroke-linecap:butt;stroke-linejoin:miter;stroke-opacity:1"/>
<ellipse cx="422.0" cy="71.7" rx="6.9" ry="6.9" class="atom-28" style="fill:#DC3369;fill-rule:evenodd;stroke:#DC3369;stroke-width:1.0px;stroke-linecap:butt;stroke-linejoin:miter;stroke-opacity:1"/>
<path class="bond-0 atom-0 atom-1" d="M 525.9,182.0 L 519.9,186.4" style="fill:none;fill-rule:evenodd;stroke:#FF0000;stroke-width:2.0px;stroke-linecap:butt;stroke-linejoin:miter;stroke-opacity:1"/>
<path class="bond-0 atom-0 atom-1" d="M 519.9,186.4 L 513.8,190.8" style="fill:none;fill-rule:evenodd;stroke:#000000;stroke-width:2.0px;stroke-linecap:butt;stroke-linejoin:miter;stroke-opacity:1"/>
<path class="bond-0 atom-0 atom-1" d="M 523.7,179.0 L 517.7,183.4" style="fill:none;fill-rule:evenodd;stroke:#FF0000;stroke-width:2.0px;stroke-linecap:butt;stroke-linejoin:miter;stroke-opacity:1"/>
<path class="bond-0 atom-0 atom-1" d="M 517.7,183.4 L 511.6,187.8" style="fill:none;fill-rule:evenodd;stroke:#000000;stroke-width:2.0px;stroke-linecap:butt;stroke-linejoin:miter;stroke-opacity:1"/>
<path class="bond-1 atom-1 atom-2" d="M 512.7,189.3 L 513.6,197.1" style="fill:none;fill-rule:evenodd;stroke:#000000;stroke-width:2.0px;stroke-linecap:butt;stroke-linejoin:miter;stroke-opacity:1"/>
<path class="bond-1 atom-1 atom-2" d="M 513.6,197.1 L 514.4,204.9" style="fill:none;fill-rule:evenodd;stroke:#FF0000;stroke-width:2.0px;stroke-linecap:butt;stroke-linejoin:miter;stroke-opacity:1"/>
<path class="bond-2 atom-1 atom-3" d="M 512.7,189.3 L 493.7,180.9" style="fill:none;fill-rule:evenodd;stroke:#000000;stroke-width:2.0px;stroke-linecap:butt;stroke-linejoin:miter;stroke-opacity:1"/>
<path class="bond-3 atom-3 atom-4" d="M 493.7,180.9 L 487.6,185.3" style="fill:none;fill-rule:evenodd;stroke:#000000;stroke-width:2.0px;stroke-linecap:butt;stroke-linejoin:miter;stroke-opacity:1"/>
<path class="bond-3 atom-3 atom-4" d="M 487.6,185.3 L 481.6,189.7" style="fill:none;fill-rule:evenodd;stroke:#FF0000;stroke-width:2.0px;stroke-linecap:butt;stroke-linejoin:miter;stroke-opacity:1"/>
<path class="bond-4 atom-3 atom-21" d="M 493.7,180.9 L 485.1,169.1" style="fill:none;fill-rule:evenodd;stroke:#000000;stroke-width:2.0px;stroke-linecap:butt;stroke-linejoin:miter;stroke-opacity:1"/>
<path class="bond-5 atom-3 atom-22" d="M 493.7,180.9 L 499.9,166.9" style="fill:none;fill-rule:evenodd;stroke:#000000;stroke-width:2.0px;stroke-linecap:butt;stroke-linejoin:miter;stroke-opacity:1"/>
<path class="bond-6 atom-4 atom-5" d="M 472.1,191.1 L 464.9,187.9" style="fill:none;fill-rule:evenodd;stroke:#FF0000;stroke-width:2.0px;stroke-linecap:butt;stroke-linejoin:miter;stroke-opacity:1"/>
<path class="bond-6 atom-4 atom-5" d="M 464.9,187.9 L 457.8,184.7" style="fill:none;fill-rule:evenodd;stroke:#000000;stroke-width:2.0px;stroke-linecap:butt;stroke-linejoin:miter;stroke-opacity:1"/>
<path class="bond-7 atom-5 atom-6" d="M 457.8,184.7 L 453.4,164.3" style="fill:none;fill-rule:evenodd;stroke:#000000;stroke-width:2.0px;stroke-linecap:butt;stroke-linejoin:miter;stroke-opacity:1"/>
<path class="bond-8 atom-5 atom-17" d="M 457.8,184.7 L 439.7,195.2" style="fill:none;fill-rule:evenodd;stroke:#000000;stroke-width:2.0px;stroke-linecap:butt;stroke-linejoin:miter;stroke-opacity:1"/>
<path class="bond-8 atom-5 atom-17" d="M 453.2,183.0 L 440.5,190.4" style="fill:none;fill-rule:evenodd;stroke:#000000;stroke-width:2.0px;stroke-linecap:butt;stroke-linejoin:miter;stroke-opacity:1"/>
<path class="bond-9 atom-6 atom-7" d="M 453.4,164.3 L 458.5,158.6" style="fill:none;fill-rule:evenodd;stroke:#000000;stroke-width:2.0px;stroke-linecap:butt;stroke-linejoin:miter;stroke-opacity:1"/>
<path class="bond-9 atom-6 atom-7" d="M 458.5,158.6 L 463.6,152.9" style="fill:none;fill-rule:evenodd;stroke:#7F4C19;stroke-width:2.0px;stroke-linecap:butt;stroke-linejoin:miter;stroke-opacity:1"/>
<path class="bond-10 atom-6 atom-8" d="M 453.4,164.3 L 432.6,162.2" style="fill:none;fill-rule:evenodd;stroke:#000000;stroke-width:2.0px;stroke-linecap:butt;stroke-linejoin:miter;stroke-opacity:1"/>
<path class="bond-10 atom-6 atom-8" d="M 449.9,167.7 L 435.4,166.2" style="fill:none;fill-rule:evenodd;stroke:#000000;stroke-width:2.0px;stroke-linecap:butt;stroke-linejoin:miter;stroke-opacity:1"/>
<path class="bond-11 atom-8 atom-9" d="M 432.6,162.2 L 422.2,144.1" style="fill:none;fill-rule:evenodd;stroke:#000000;stroke-width:2.0px;stroke-linecap:butt;stroke-linejoin:miter;stroke-opacity:1"/>
<path class="bond-12 atom-8 atom-16" d="M 432.6,162.2 L 429.6,169.2" style="fill:none;fill-rule:evenodd;stroke:#000000;stroke-width:2.0px;stroke-linecap:butt;stroke-linejoin:miter;stroke-opacity:1"/>
<path class="bond-12 atom-8 atom-16" d="M 429.6,169.2 L 426.5,176.2" style="fill:none;fill-rule:evenodd;stroke:#CCCC00;stroke-width:2.0px;stroke-linecap:butt;stroke-linejoin:miter;stroke-opacity:1"/>
<path class="bond-13 atom-9 atom-10" d="M 422.2,144.1 L 401.2,144.1" style="fill:none;fill-rule:evenodd;stroke:#000000;stroke-width:2.0px;stroke-linecap:butt;stroke-linejoin:miter;stroke-opacity:1"/>
<path class="bond-13 atom-9 atom-10" d="M 419.0,140.3 L 404.4,140.4" style="fill:none;fill-rule:evenodd;stroke:#000000;stroke-width:2.0px;stroke-linecap:butt;stroke-linejoin:miter;stroke-opacity:1"/>
<path class="bond-14 atom-9 atom-15" d="M 422.2,144.1 L 432.6,125.9" style="fill:none;fill-rule:evenodd;stroke:#000000;stroke-width:2.0px;stroke-linecap:butt;stroke-linejoin:miter;stroke-opacity:1"/>
<path class="bond-15 atom-10 atom-11" d="M 401.2,144.1 L 390.7,126.0" style="fill:none;fill-rule:evenodd;stroke:#000000;stroke-width:2.0px;stroke-linecap:butt;stroke-linejoin:miter;stroke-opacity:1"/>
<path class="bond-16 atom-10 atom-23" d="M 401.2,144.1 L 393.7,157.2" style="fill:none;fill-rule:evenodd;stroke:#000000;stroke-width:2.0px;stroke-linecap:butt;stroke-linejoin:miter;stroke-opacity:1"/>
<path class="bond-17 atom-11 atom-12" d="M 390.7,126.0 L 401.2,107.9" style="fill:none;fill-rule:evenodd;stroke:#000000;stroke-width:2.0px;stroke-linecap:butt;stroke-linejoin:miter;stroke-opacity:1"/>
<path class="bond-17 atom-11 atom-12" d="M 395.5,125.2 L 402.8,112.5" style="fill:none;fill-rule:evenodd;stroke:#000000;stroke-width:2.0px;stroke-linecap:butt;stroke-linejoin:miter;stroke-opacity:1"/>
<path class="bond-18 atom-11 atom-24" d="M 390.7,126.0 L 374.0,126.1" style="fill:none;fill-rule:evenodd;stroke:#000000;stroke-width:2.0px;stroke-linecap:butt;stroke-linejoin:miter;stroke-opacity:1"/>
<path class="bond-19 atom-12 atom-13" d="M 401.2,107.9 L 422.1,107.8" style="fill:none;fill-rule:evenodd;stroke:#000000;stroke-width:2.0px;stroke-linecap:butt;stroke-linejoin:miter;stroke-opacity:1"/>
<path class="bond-20 atom-12 atom-25" d="M 401.2,107.9 L 393.6,94.9" style="fill:none;fill-rule:evenodd;stroke:#000000;stroke-width:2.0px;stroke-linecap:butt;stroke-linejoin:miter;stroke-opacity:1"/>
<path class="bond-21 atom-13 atom-14" d="M 422.1,107.8 L 425.8,101.3" style="fill:none;fill-rule:evenodd;stroke:#000000;stroke-width:2.0px;stroke-linecap:butt;stroke-linejoin:miter;stroke-opacity:1"/>
<path class="bond-21 atom-13 atom-14" d="M 425.8,101.3 L 429.6,94.8" style="fill:none;fill-rule:evenodd;stroke:#0000FF;stroke-width:2.0px;stroke-linecap:butt;stroke-linejoin:miter;stroke-opacity:1"/>
<path class="bond-22 atom-13 atom-15" d="M 422.1,107.8 L 432.6,125.9" style="fill:none;fill-rule:evenodd;stroke:#000000;stroke-width:2.0px;stroke-linecap:butt;stroke-linejoin:miter;stroke-opacity:1"/>
<path class="bond-22 atom-13 atom-15" d="M 420.4,112.4 L 427.8,125.1" style="fill:none;fill-rule:evenodd;stroke:#000000;stroke-width:2.0px;stroke-linecap:butt;stroke-linejoin:miter;stroke-opacity:1"/>
<path class="bond-23 atom-14 atom-26" d="M 436.6,89.7 L 442.9,89.7" style="fill:none;fill-rule:evenodd;stroke:#0000FF;stroke-width:2.0px;stroke-linecap:butt;stroke-linejoin:miter;stroke-opacity:1"/>
<path class="bond-23 atom-14 atom-26" d="M 442.9,89.7 L 449.2,89.7" style="fill:none;fill-rule:evenodd;stroke:#000000;stroke-width:2.0px;stroke-linecap:butt;stroke-linejoin:miter;stroke-opacity:1"/>
<path class="bond-24 atom-14 atom-28" d="M 429.5,84.6 L 427.3,80.7" style="fill:none;fill-rule:evenodd;stroke:#0000FF;stroke-width:2.0px;stroke-linecap:butt;stroke-linejoin:miter;stroke-opacity:1"/>
<path class="bond-24 atom-14 atom-28" d="M 427.3,80.7 L 425.0,76.8" style="fill:none;fill-rule:evenodd;stroke:#000000;stroke-width:2.0px;stroke-linecap:butt;stroke-linejoin:miter;stroke-opacity:1"/>
<path class="bond-25 atom-15 atom-27" d="M 432.6,125.9 L 449.3,125.9" style="fill:none;fill-rule:evenodd;stroke:#000000;stroke-width:2.0px;stroke-linecap:butt;stroke-linejoin:miter;stroke-opacity:1"/>
<path class="bond-26 atom-16 atom-17" d="M 427.7,184.4 L 433.7,189.8" style="fill:none;fill-rule:evenodd;stroke:#CCCC00;stroke-width:2.0px;stroke-linecap:butt;stroke-linejoin:miter;stroke-opacity:1"/>
<path class="bond-26 atom-16 atom-17" d="M 433.7,189.8 L 439.7,195.2" style="fill:none;fill-rule:evenodd;stroke:#000000;stroke-width:2.0px;stroke-linecap:butt;stroke-linejoin:miter;stroke-opacity:1"/>
<path class="bond-27 atom-17 atom-18" d="M 439.7,195.2 L 437.6,215.9" style="fill:none;fill-rule:evenodd;stroke:#000000;stroke-width:2.0px;stroke-linecap:butt;stroke-linejoin:miter;stroke-opacity:1"/>
<path class="bond-28 atom-18 atom-19" d="M 438.4,217.6 L 431.2,220.8" style="fill:none;fill-rule:evenodd;stroke:#000000;stroke-width:2.0px;stroke-linecap:butt;stroke-linejoin:miter;stroke-opacity:1"/>
<path class="bond-28 atom-18 atom-19" d="M 431.2,220.8 L 424.1,224.0" style="fill:none;fill-rule:evenodd;stroke:#FF0000;stroke-width:2.0px;stroke-linecap:butt;stroke-linejoin:miter;stroke-opacity:1"/>
<path class="bond-28 atom-18 atom-19" d="M 436.8,214.2 L 429.7,217.4" style="fill:none;fill-rule:evenodd;stroke:#000000;stroke-width:2.0px;stroke-linecap:butt;stroke-linejoin:miter;stroke-opacity:1"/>
<path class="bond-28 atom-18 atom-19" d="M 429.7,217.4 L 422.5,220.6" style="fill:none;fill-rule:evenodd;stroke:#FF0000;stroke-width:2.0px;stroke-linecap:butt;stroke-linejoin:miter;stroke-opacity:1"/>
<path class="bond-29 atom-18 atom-20" d="M 437.6,215.9 L 443.7,220.3" style="fill:none;fill-rule:evenodd;stroke:#000000;stroke-width:2.0px;stroke-linecap:butt;stroke-linejoin:miter;stroke-opacity:1"/>
<path class="bond-29 atom-18 atom-20" d="M 443.7,220.3 L 449.7,224.7" style="fill:none;fill-rule:evenodd;stroke:#FF0000;stroke-width:2.0px;stroke-linecap:butt;stroke-linejoin:miter;stroke-opacity:1"/>
<path class="atom-0" d="M 525.5 177.1 Q 525.5 174.9, 526.6 173.7 Q 527.6 172.6, 529.6 172.6 Q 531.6 172.6, 532.6 173.7 Q 533.7 174.9, 533.7 177.1 Q 533.7 179.2, 532.6 180.4 Q 531.5 181.7, 529.6 181.7 Q 527.6 181.7, 526.6 180.4 Q 525.5 179.2, 525.5 177.1 M 529.6 180.7 Q 530.9 180.7, 531.7 179.8 Q 532.4 178.8, 532.4 177.1 Q 532.4 175.3, 531.7 174.4 Q 530.9 173.6, 529.6 173.6 Q 528.2 173.6, 527.5 174.4 Q 526.8 175.3, 526.8 177.1 Q 526.8 178.9, 527.5 179.8 Q 528.2 180.7, 529.6 180.7 " fill="#FF0000"/>
<path class="atom-2" d="M 510.9 210.1 Q 510.9 208.0, 511.9 206.8 Q 513.0 205.6, 515.0 205.6 Q 516.9 205.6, 518.0 206.8 Q 519.0 208.0, 519.0 210.1 Q 519.0 212.2, 518.0 213.5 Q 516.9 214.7, 515.0 214.7 Q 513.0 214.7, 511.9 213.5 Q 510.9 212.2, 510.9 210.1 M 515.0 213.7 Q 516.3 213.7, 517.0 212.8 Q 517.8 211.9, 517.8 210.1 Q 517.8 208.3, 517.0 207.5 Q 516.3 206.6, 515.0 206.6 Q 513.6 206.6, 512.9 207.5 Q 512.1 208.3, 512.1 210.1 Q 512.1 211.9, 512.9 212.8 Q 513.6 213.7, 515.0 213.7 " fill="#FF0000"/>
<path class="atom-2" d="M 519.6 207.0 L 522.7 207.0 L 522.7 207.7 L 519.6 207.7 L 519.6 207.0 " fill="#FF0000"/>
<path class="atom-4" d="M 472.8 193.2 Q 472.8 191.1, 473.8 189.9 Q 474.9 188.7, 476.8 188.7 Q 478.8 188.7, 479.8 189.9 Q 480.9 191.1, 480.9 193.2 Q 480.9 195.3, 479.8 196.6 Q 478.8 197.8, 476.8 197.8 Q 474.9 197.8, 473.8 196.6 Q 472.8 195.3, 472.8 193.2 M 476.8 196.8 Q 478.2 196.8, 478.9 195.9 Q 479.6 195.0, 479.6 193.2 Q 479.6 191.4, 478.9 190.6 Q 478.2 189.7, 476.8 189.7 Q 475.5 189.7, 474.7 190.6 Q 474.0 191.4, 474.0 193.2 Q 474.0 195.0, 474.7 195.9 Q 475.5 196.8, 476.8 196.8 " fill="#FF0000"/>
<path class="atom-7" d="M 468.6 148.6 Q 469.5 148.8, 469.9 149.3 Q 470.3 149.9, 470.3 150.6 Q 470.3 151.8, 469.5 152.5 Q 468.8 153.2, 467.3 153.2 L 464.3 153.2 L 464.3 144.4 L 466.9 144.4 Q 468.4 144.4, 469.2 145.0 Q 470.0 145.6, 470.0 146.7 Q 470.0 148.1, 468.6 148.6 M 465.5 145.4 L 465.5 148.2 L 466.9 148.2 Q 467.8 148.2, 468.2 147.8 Q 468.7 147.4, 468.7 146.7 Q 468.7 145.4, 466.9 145.4 L 465.5 145.4 M 467.3 152.2 Q 468.1 152.2, 468.6 151.8 Q 469.1 151.4, 469.1 150.6 Q 469.1 149.9, 468.6 149.5 Q 468.1 149.2, 467.1 149.2 L 465.5 149.2 L 465.5 152.2 L 467.3 152.2 " fill="#7F4C19"/>
<path class="atom-7" d="M 471.8 146.8 L 472.0 147.7 Q 472.7 146.7, 473.8 146.7 Q 474.1 146.7, 474.6 146.8 L 474.4 147.9 Q 473.9 147.7, 473.6 147.7 Q 473.0 147.7, 472.7 148.0 Q 472.3 148.2, 472.1 148.6 L 472.1 153.2 L 470.9 153.2 L 470.9 146.8 L 471.8 146.8 " fill="#7F4C19"/>
<path class="atom-14" d="M 430.5 85.3 L 433.5 90.0 Q 433.7 90.4, 434.2 91.3 Q 434.7 92.1, 434.7 92.2 L 434.7 85.3 L 435.9 85.3 L 435.9 94.1 L 434.7 94.1 L 431.5 89.0 Q 431.2 88.4, 430.8 87.7 Q 430.4 87.0, 430.3 86.8 L 430.3 94.1 L 429.1 94.1 L 429.1 85.3 L 430.5 85.3 " fill="#0000FF"/>
<path class="atom-16" d="M 421.7 184.3 Q 421.8 184.3, 422.2 184.5 Q 422.6 184.7, 423.1 184.8 Q 423.5 184.9, 424.0 184.9 Q 424.8 184.9, 425.3 184.5 Q 425.8 184.1, 425.8 183.4 Q 425.8 182.9, 425.6 182.6 Q 425.3 182.3, 424.9 182.1 Q 424.6 182.0, 423.9 181.8 Q 423.2 181.5, 422.7 181.3 Q 422.2 181.1, 421.9 180.6 Q 421.6 180.1, 421.6 179.3 Q 421.6 178.2, 422.3 177.5 Q 423.1 176.8, 424.6 176.8 Q 425.6 176.8, 426.8 177.3 L 426.5 178.3 Q 425.4 177.9, 424.6 177.9 Q 423.7 177.9, 423.3 178.2 Q 422.8 178.6, 422.8 179.2 Q 422.8 179.7, 423.0 179.9 Q 423.3 180.2, 423.6 180.4 Q 424.0 180.6, 424.6 180.7 Q 425.4 181.0, 425.9 181.2 Q 426.4 181.5, 426.7 182.0 Q 427.0 182.5, 427.0 183.4 Q 427.0 184.6, 426.2 185.3 Q 425.4 185.9, 424.0 185.9 Q 423.3 185.9, 422.7 185.7 Q 422.1 185.6, 421.4 185.3 L 421.7 184.3 " fill="#CCCC00"/>
<path class="atom-19" d="M 414.5 224.5 Q 414.5 222.3, 415.5 221.1 Q 416.6 220.0, 418.6 220.0 Q 420.5 220.0, 421.6 221.1 Q 422.6 222.3, 422.6 224.5 Q 422.6 226.6, 421.6 227.8 Q 420.5 229.1, 418.6 229.1 Q 416.6 229.1, 415.5 227.8 Q 414.5 226.6, 414.5 224.5 M 418.6 228.1 Q 419.9 228.1, 420.6 227.1 Q 421.4 226.2, 421.4 224.5 Q 421.4 222.7, 420.6 221.8 Q 419.9 221.0, 418.6 221.0 Q 417.2 221.0, 416.5 221.8 Q 415.7 222.7, 415.7 224.5 Q 415.7 226.2, 416.5 227.1 Q 417.2 228.1, 418.6 228.1 " fill="#FF0000"/>
<path class="atom-20" d="M 450.4 228.2 Q 450.4 226.0, 451.5 224.9 Q 452.5 223.7, 454.5 223.7 Q 456.4 223.7, 457.5 224.9 Q 458.5 226.0, 458.5 228.2 Q 458.5 230.3, 457.5 231.5 Q 456.4 232.8, 454.5 232.8 Q 452.5 232.8, 451.5 231.5 Q 450.4 230.3, 450.4 228.2 M 454.5 231.8 Q 455.8 231.8, 456.6 230.9 Q 457.3 229.9, 457.3 228.2 Q 457.3 226.4, 456.6 225.6 Q 455.8 224.7, 454.5 224.7 Q 453.1 224.7, 452.4 225.5 Q 451.7 226.4, 451.7 228.2 Q 451.7 230.0, 452.4 230.9 Q 453.1 231.8, 454.5 231.8 " fill="#FF0000"/>
<path class="atom-20" d="M 459.2 225.1 L 462.2 225.1 L 462.2 225.8 L 459.2 225.8 L 459.2 225.1 " fill="#FF0000"/>
<path class="atom-21" d="M 477.9 159.6 L 479.1 159.6 L 479.1 163.4 L 483.7 163.4 L 483.7 159.6 L 484.9 159.6 L 484.9 168.5 L 483.7 168.5 L 483.7 164.4 L 479.1 164.4 L 479.1 168.5 L 477.9 168.5 L 477.9 159.6 " fill="#000000"/>
<path class="atom-22" d="M 498.7 157.4 L 499.9 157.4 L 499.9 161.1 L 504.4 161.1 L 504.4 157.4 L 505.6 157.4 L 505.6 166.2 L 504.4 166.2 L 504.4 162.1 L 499.9 162.1 L 499.9 166.2 L 498.7 166.2 L 498.7 157.4 " fill="#000000"/>
<path class="atom-23" d="M 387.3 157.8 L 388.5 157.8 L 388.5 161.6 L 393.1 161.6 L 393.1 157.8 L 394.3 157.8 L 394.3 166.7 L 393.1 166.7 L 393.1 162.6 L 388.5 162.6 L 388.5 166.7 L 387.3 166.7 L 387.3 157.8 " fill="#000000"/>
<path class="atom-24" d="M 366.3 121.6 L 367.5 121.6 L 367.5 125.4 L 372.1 125.4 L 372.1 121.6 L 373.3 121.6 L 373.3 130.5 L 372.1 130.5 L 372.1 126.4 L 367.5 126.4 L 367.5 130.5 L 366.3 130.5 L 366.3 121.6 " fill="#000000"/>
<path class="atom-25" d="M 387.2 85.4 L 388.4 85.4 L 388.4 89.1 L 392.9 89.1 L 392.9 85.4 L 394.1 85.4 L 394.1 94.2 L 392.9 94.2 L 392.9 90.1 L 388.4 90.1 L 388.4 94.2 L 387.2 94.2 L 387.2 85.4 " fill="#000000"/>
<path class="atom-26" d="M 449.9 85.2 L 451.1 85.2 L 451.1 89.0 L 455.6 89.0 L 455.6 85.2 L 456.8 85.2 L 456.8 94.1 L 455.6 94.1 L 455.6 90.0 L 451.1 90.0 L 451.1 94.1 L 449.9 94.1 L 449.9 85.2 " fill="#000000"/>
<path class="atom-27" d="M 450.0 121.5 L 451.2 121.5 L 451.2 125.2 L 455.8 125.2 L 455.8 121.5 L 457.0 121.5 L 457.0 130.3 L 455.8 130.3 L 455.8 126.2 L 451.2 126.2 L 451.2 130.3 L 450.0 130.3 L 450.0 121.5 " fill="#000000"/>
<path class="atom-28" d="M 418.6 67.2 L 419.8 67.2 L 419.8 71.0 L 424.3 71.0 L 424.3 67.2 L 425.5 67.2 L 425.5 76.1 L 424.3 76.1 L 424.3 72.0 L 419.8 72.0 L 419.8 76.1 L 418.6 76.1 L 418.6 67.2 " fill="#000000"/>
<text x="300" y="20" font-size="20" font-family="sans-serif" font-weight="normal" letter-spacing="0" text-anchor="middle" fill="black">ptp1b 23477 -&gt; 23466 </text><text x="150" y="285" font-size="15" font-family="sans-serif" font-weight="normal" letter-spacing="0" text-anchor="middle" fill="black">23477</text><text x="450" y="285" font-size="15" font-family="sans-serif" font-weight="normal" letter-spacing="0" text-anchor="middle" fill="black">23466</text></svg>
