<?xml version='1.0' encoding='ASCII' standalone='yes'?>
<svg xmlns="http://www.w3.org/2000/svg" xmlns:rdkit="http://www.rdkit.org/xml" xmlns:xlink="http://www.w3.org/1999/xlink" version="1.1" baseProfile="full" xml:space="preserve" width="600px" height="300px" viewBox="0 0 600 300">
<!-- END OF HEADER -->
<rect style="opacity:1.0;fill:#FFFFFF;stroke:none" width="600.0" height="300.0" x="0.0" y="0.0"> </rect>
<ellipse cx="184.6" cy="98.3" rx="6.7" ry="6.7" class="atom-14" style="fill:#A19F62;fill-rule:evenodd;stroke:#A19F62;stroke-width:1.0px;stroke-linecap:butt;stroke-linejoin:miter;stroke-opacity:1"/>
<ellipse cx="165.3" cy="92.0" rx="6.7" ry="6.7" class="atom-15" style="fill:#7C947A;fill-rule:evenodd;stroke:#7C947A;stroke-width:1.0px;stroke-linecap:butt;stroke-linejoin:miter;stroke-opacity:1"/>
<ellipse cx="171.6" cy="72.6" rx="6.7" ry="6.7" class="atom-28" style="fill:#DC3369;fill-rule:evenodd;stroke:#DC3369;stroke-width:1.0px;stroke-linecap:butt;stroke-linejoin:miter;stroke-opacity:1"/>
<ellipse cx="151.7" cy="76.9" rx="6.7" ry="6.7" class="atom-29" style="fill:#DC3369;fill-rule:evenodd;stroke:#DC3369;stroke-width:1.0px;stroke-linecap:butt;stroke-linejoin:miter;stroke-opacity:1"/>
<ellipse cx="150.3" cy="105.6" rx="6.7" ry="6.7" class="atom-30" style="fill:#DC3369;fill-rule:evenodd;stroke:#DC3369;stroke-width:1.0px;stroke-linecap:butt;stroke-linejoin:miter;stroke-opacity:1"/>
<path class="bond-0 atom-0 atom-1" d="M 73.9,154.3 L 78.0,159.9" style="fill:none;fill-rule:evenodd;stroke:#FF0000;stroke-width:2.0px;stroke-linecap:butt;stroke-linejoin:miter;stroke-opacity:1"/>
<path class="bond-0 atom-0 atom-1" d="M 78.0,159.9 L 82.1,165.5" style="fill:none;fill-rule:evenodd;stroke:#000000;stroke-width:2.0px;stroke-linecap:butt;stroke-linejoin:miter;stroke-opacity:1"/>
<path class="bond-0 atom-0 atom-1" d="M 71.0,156.4 L 75.1,162.1" style="fill:none;fill-rule:evenodd;stroke:#FF0000;stroke-width:2.0px;stroke-linecap:butt;stroke-linejoin:miter;stroke-opacity:1"/>
<path class="bond-0 atom-0 atom-1" d="M 75.1,162.1 L 79.2,167.7" style="fill:none;fill-rule:evenodd;stroke:#000000;stroke-width:2.0px;stroke-linecap:butt;stroke-linejoin:miter;stroke-opacity:1"/>
<path class="bond-1 atom-1 atom-2" d="M 80.7,166.6 L 77.7,173.4" style="fill:none;fill-rule:evenodd;stroke:#000000;stroke-width:2.0px;stroke-linecap:butt;stroke-linejoin:miter;stroke-opacity:1"/>
<path class="bond-1 atom-1 atom-2" d="M 77.7,173.4 L 74.7,180.1" style="fill:none;fill-rule:evenodd;stroke:#FF0000;stroke-width:2.0px;stroke-linecap:butt;stroke-linejoin:miter;stroke-opacity:1"/>
<path class="bond-2 atom-1 atom-3" d="M 80.7,166.6 L 100.8,164.4" style="fill:none;fill-rule:evenodd;stroke:#000000;stroke-width:2.0px;stroke-linecap:butt;stroke-linejoin:miter;stroke-opacity:1"/>
<path class="bond-3 atom-3 atom-4" d="M 100.8,164.4 L 105.0,170.1" style="fill:none;fill-rule:evenodd;stroke:#000000;stroke-width:2.0px;stroke-linecap:butt;stroke-linejoin:miter;stroke-opacity:1"/>
<path class="bond-3 atom-3 atom-4" d="M 105.0,170.1 L 109.1,175.8" style="fill:none;fill-rule:evenodd;stroke:#FF0000;stroke-width:2.0px;stroke-linecap:butt;stroke-linejoin:miter;stroke-opacity:1"/>
<path class="bond-4 atom-3 atom-22" d="M 100.8,164.4 L 113.2,155.4" style="fill:none;fill-rule:evenodd;stroke:#000000;stroke-width:2.0px;stroke-linecap:butt;stroke-linejoin:miter;stroke-opacity:1"/>
<path class="bond-5 atom-3 atom-23" d="M 100.8,164.4 L 99.2,149.2" style="fill:none;fill-rule:evenodd;stroke:#000000;stroke-width:2.0px;stroke-linecap:butt;stroke-linejoin:miter;stroke-opacity:1"/>
<path class="bond-6 atom-4 atom-5" d="M 117.4,180.3 L 125.2,179.5" style="fill:none;fill-rule:evenodd;stroke:#FF0000;stroke-width:2.0px;stroke-linecap:butt;stroke-linejoin:miter;stroke-opacity:1"/>
<path class="bond-6 atom-4 atom-5" d="M 125.2,179.5 L 133.0,178.7" style="fill:none;fill-rule:evenodd;stroke:#000000;stroke-width:2.0px;stroke-linecap:butt;stroke-linejoin:miter;stroke-opacity:1"/>
<path class="bond-7 atom-5 atom-6" d="M 133.0,178.7 L 143.1,161.1" style="fill:none;fill-rule:evenodd;stroke:#000000;stroke-width:2.0px;stroke-linecap:butt;stroke-linejoin:miter;stroke-opacity:1"/>
<path class="bond-8 atom-5 atom-18" d="M 133.0,178.7 L 146.6,193.8" style="fill:none;fill-rule:evenodd;stroke:#000000;stroke-width:2.0px;stroke-linecap:butt;stroke-linejoin:miter;stroke-opacity:1"/>
<path class="bond-8 atom-5 atom-18" d="M 137.7,178.5 L 147.3,189.0" style="fill:none;fill-rule:evenodd;stroke:#000000;stroke-width:2.0px;stroke-linecap:butt;stroke-linejoin:miter;stroke-opacity:1"/>
<path class="bond-9 atom-6 atom-7" d="M 143.1,161.1 L 140.1,154.3" style="fill:none;fill-rule:evenodd;stroke:#000000;stroke-width:2.0px;stroke-linecap:butt;stroke-linejoin:miter;stroke-opacity:1"/>
<path class="bond-9 atom-6 atom-7" d="M 140.1,154.3 L 137.1,147.5" style="fill:none;fill-rule:evenodd;stroke:#7F4C19;stroke-width:2.0px;stroke-linecap:butt;stroke-linejoin:miter;stroke-opacity:1"/>
<path class="bond-10 atom-6 atom-8" d="M 143.1,161.1 L 163.0,165.3" style="fill:none;fill-rule:evenodd;stroke:#000000;stroke-width:2.0px;stroke-linecap:butt;stroke-linejoin:miter;stroke-opacity:1"/>
<path class="bond-10 atom-6 atom-8" d="M 145.3,165.3 L 159.2,168.2" style="fill:none;fill-rule:evenodd;stroke:#000000;stroke-width:2.0px;stroke-linecap:butt;stroke-linejoin:miter;stroke-opacity:1"/>
<path class="bond-11 atom-8 atom-9" d="M 163.0,165.3 L 178.1,151.6" style="fill:none;fill-rule:evenodd;stroke:#000000;stroke-width:2.0px;stroke-linecap:butt;stroke-linejoin:miter;stroke-opacity:1"/>
<path class="bond-12 atom-8 atom-17" d="M 163.0,165.3 L 163.8,172.9" style="fill:none;fill-rule:evenodd;stroke:#000000;stroke-width:2.0px;stroke-linecap:butt;stroke-linejoin:miter;stroke-opacity:1"/>
<path class="bond-12 atom-8 atom-17" d="M 163.8,172.9 L 164.6,180.5" style="fill:none;fill-rule:evenodd;stroke:#CCCC00;stroke-width:2.0px;stroke-linecap:butt;stroke-linejoin:miter;stroke-opacity:1"/>
<path class="bond-13 atom-9 atom-10" d="M 178.1,151.6 L 197.4,157.9" style="fill:none;fill-rule:evenodd;stroke:#000000;stroke-width:2.0px;stroke-linecap:butt;stroke-linejoin:miter;stroke-opacity:1"/>
<path class="bond-13 atom-9 atom-10" d="M 182.1,149.1 L 195.7,153.5" style="fill:none;fill-rule:evenodd;stroke:#000000;stroke-width:2.0px;stroke-linecap:butt;stroke-linejoin:miter;stroke-opacity:1"/>
<path class="bond-14 atom-9 atom-16" d="M 178.1,151.6 L 173.8,131.7" style="fill:none;fill-rule:evenodd;stroke:#000000;stroke-width:2.0px;stroke-linecap:butt;stroke-linejoin:miter;stroke-opacity:1"/>
<path class="bond-15 atom-10 atom-11" d="M 197.4,157.9 L 212.5,144.3" style="fill:none;fill-rule:evenodd;stroke:#000000;stroke-width:2.0px;stroke-linecap:butt;stroke-linejoin:miter;stroke-opacity:1"/>
<path class="bond-16 atom-10 atom-24" d="M 197.4,157.9 L 200.6,172.8" style="fill:none;fill-rule:evenodd;stroke:#000000;stroke-width:2.0px;stroke-linecap:butt;stroke-linejoin:miter;stroke-opacity:1"/>
<path class="bond-17 atom-11 atom-12" d="M 212.5,144.3 L 208.3,124.4" style="fill:none;fill-rule:evenodd;stroke:#000000;stroke-width:2.0px;stroke-linecap:butt;stroke-linejoin:miter;stroke-opacity:1"/>
<path class="bond-17 atom-11 atom-12" d="M 208.3,142.0 L 205.3,128.1" style="fill:none;fill-rule:evenodd;stroke:#000000;stroke-width:2.0px;stroke-linecap:butt;stroke-linejoin:miter;stroke-opacity:1"/>
<path class="bond-18 atom-11 atom-25" d="M 212.5,144.3 L 227.8,149.2" style="fill:none;fill-rule:evenodd;stroke:#000000;stroke-width:2.0px;stroke-linecap:butt;stroke-linejoin:miter;stroke-opacity:1"/>
<path class="bond-19 atom-12 atom-13" d="M 208.3,124.4 L 188.9,118.1" style="fill:none;fill-rule:evenodd;stroke:#000000;stroke-width:2.0px;stroke-linecap:butt;stroke-linejoin:miter;stroke-opacity:1"/>
<path class="bond-20 atom-12 atom-26" d="M 208.3,124.4 L 219.3,114.4" style="fill:none;fill-rule:evenodd;stroke:#000000;stroke-width:2.0px;stroke-linecap:butt;stroke-linejoin:miter;stroke-opacity:1"/>
<path class="bond-21 atom-13 atom-14" d="M 188.9,118.1 L 187.3,110.7" style="fill:none;fill-rule:evenodd;stroke:#000000;stroke-width:2.0px;stroke-linecap:butt;stroke-linejoin:miter;stroke-opacity:1"/>
<path class="bond-21 atom-13 atom-14" d="M 187.3,110.7 L 185.8,103.4" style="fill:none;fill-rule:evenodd;stroke:#FF0000;stroke-width:2.0px;stroke-linecap:butt;stroke-linejoin:miter;stroke-opacity:1"/>
<path class="bond-22 atom-13 atom-16" d="M 188.9,118.1 L 173.8,131.7" style="fill:none;fill-rule:evenodd;stroke:#000000;stroke-width:2.0px;stroke-linecap:butt;stroke-linejoin:miter;stroke-opacity:1"/>
<path class="bond-22 atom-13 atom-16" d="M 189.1,122.9 L 178.5,132.4" style="fill:none;fill-rule:evenodd;stroke:#000000;stroke-width:2.0px;stroke-linecap:butt;stroke-linejoin:miter;stroke-opacity:1"/>
<path class="bond-23 atom-14 atom-15" d="M 180.0,96.7 L 172.7,94.3" style="fill:none;fill-rule:evenodd;stroke:#FF0000;stroke-width:2.0px;stroke-linecap:butt;stroke-linejoin:miter;stroke-opacity:1"/>
<path class="bond-23 atom-14 atom-15" d="M 172.7,94.3 L 165.3,92.0" style="fill:none;fill-rule:evenodd;stroke:#000000;stroke-width:2.0px;stroke-linecap:butt;stroke-linejoin:miter;stroke-opacity:1"/>
<path class="bond-24 atom-15 atom-28" d="M 165.3,92.0 L 170.0,77.6" style="fill:none;fill-rule:evenodd;stroke:#000000;stroke-width:2.0px;stroke-linecap:butt;stroke-linejoin:miter;stroke-opacity:1"/>
<path class="bond-25 atom-15 atom-29" d="M 165.3,92.0 L 155.8,81.4" style="fill:none;fill-rule:evenodd;stroke:#000000;stroke-width:2.0px;stroke-linecap:butt;stroke-linejoin:miter;stroke-opacity:1"/>
<path class="bond-26 atom-15 atom-30" d="M 165.3,92.0 L 154.3,101.9" style="fill:none;fill-rule:evenodd;stroke:#000000;stroke-width:2.0px;stroke-linecap:butt;stroke-linejoin:miter;stroke-opacity:1"/>
<path class="bond-27 atom-16 atom-27" d="M 173.8,131.7 L 158.5,126.8" style="fill:none;fill-rule:evenodd;stroke:#000000;stroke-width:2.0px;stroke-linecap:butt;stroke-linejoin:miter;stroke-opacity:1"/>
<path class="bond-28 atom-17 atom-18" d="M 161.7,187.0 L 154.1,190.4" style="fill:none;fill-rule:evenodd;stroke:#CCCC00;stroke-width:2.0px;stroke-linecap:butt;stroke-linejoin:miter;stroke-opacity:1"/>
<path class="bond-28 atom-17 atom-18" d="M 154.1,190.4 L 146.6,193.8" style="fill:none;fill-rule:evenodd;stroke:#000000;stroke-width:2.0px;stroke-linecap:butt;stroke-linejoin:miter;stroke-opacity:1"/>
<path class="bond-29 atom-18 atom-19" d="M 146.6,193.8 L 142.4,213.6" style="fill:none;fill-rule:evenodd;stroke:#000000;stroke-width:2.0px;stroke-linecap:butt;stroke-linejoin:miter;stroke-opacity:1"/>
<path class="bond-30 atom-19 atom-20" d="M 143.0,215.4 L 135.7,217.7" style="fill:none;fill-rule:evenodd;stroke:#000000;stroke-width:2.0px;stroke-linecap:butt;stroke-linejoin:miter;stroke-opacity:1"/>
<path class="bond-30 atom-19 atom-20" d="M 135.7,217.7 L 128.3,220.1" style="fill:none;fill-rule:evenodd;stroke:#FF0000;stroke-width:2.0px;stroke-linecap:butt;stroke-linejoin:miter;stroke-opacity:1"/>
<path class="bond-30 atom-19 atom-20" d="M 141.8,211.9 L 134.5,214.3" style="fill:none;fill-rule:evenodd;stroke:#000000;stroke-width:2.0px;stroke-linecap:butt;stroke-linejoin:miter;stroke-opacity:1"/>
<path class="bond-30 atom-19 atom-20" d="M 134.5,214.3 L 127.2,216.7" style="fill:none;fill-rule:evenodd;stroke:#FF0000;stroke-width:2.0px;stroke-linecap:butt;stroke-linejoin:miter;stroke-opacity:1"/>
<path class="bond-31 atom-19 atom-21" d="M 142.4,213.6 L 147.7,218.3" style="fill:none;fill-rule:evenodd;stroke:#000000;stroke-width:2.0px;stroke-linecap:butt;stroke-linejoin:miter;stroke-opacity:1"/>
<path class="bond-31 atom-19 atom-21" d="M 147.7,218.3 L 152.9,223.0" style="fill:none;fill-rule:evenodd;stroke:#FF0000;stroke-width:2.0px;stroke-linecap:butt;stroke-linejoin:miter;stroke-opacity:1"/>
<path class="atom-0" d="M 64.7 150.2 Q 64.7 148.1, 65.8 147.0 Q 66.8 145.8, 68.7 145.8 Q 70.6 145.8, 71.6 147.0 Q 72.7 148.1, 72.7 150.2 Q 72.7 152.3, 71.6 153.5 Q 70.6 154.7, 68.7 154.7 Q 66.8 154.7, 65.8 153.5 Q 64.7 152.3, 64.7 150.2 M 68.7 153.7 Q 70.0 153.7, 70.7 152.8 Q 71.4 151.9, 71.4 150.2 Q 71.4 148.5, 70.7 147.7 Q 70.0 146.8, 68.7 146.8 Q 67.4 146.8, 66.7 147.7 Q 66.0 148.5, 66.0 150.2 Q 66.0 152.0, 66.7 152.8 Q 67.4 153.7, 68.7 153.7 " fill="#FF0000"/>
<path class="atom-2" d="M 68.5 185.2 Q 68.5 183.1, 69.5 182.0 Q 70.5 180.8, 72.4 180.8 Q 74.3 180.8, 75.4 182.0 Q 76.4 183.1, 76.4 185.2 Q 76.4 187.3, 75.4 188.5 Q 74.3 189.7, 72.4 189.7 Q 70.5 189.7, 69.5 188.5 Q 68.5 187.3, 68.5 185.2 M 72.4 188.7 Q 73.7 188.7, 74.5 187.8 Q 75.2 186.9, 75.2 185.2 Q 75.2 183.5, 74.5 182.6 Q 73.7 181.8, 72.4 181.8 Q 71.1 181.8, 70.4 182.6 Q 69.7 183.5, 69.7 185.2 Q 69.7 186.9, 70.4 187.8 Q 71.1 188.7, 72.4 188.7 " fill="#FF0000"/>
<path class="atom-2" d="M 77.0 182.2 L 79.9 182.2 L 79.9 182.8 L 77.0 182.8 L 77.0 182.2 " fill="#FF0000"/>
<path class="atom-4" d="M 108.8 180.9 Q 108.8 178.8, 109.9 177.6 Q 110.9 176.5, 112.8 176.5 Q 114.7 176.5, 115.7 177.6 Q 116.8 178.8, 116.8 180.9 Q 116.8 183.0, 115.7 184.2 Q 114.7 185.3, 112.8 185.3 Q 110.9 185.3, 109.9 184.2 Q 108.8 183.0, 108.8 180.9 M 112.8 184.4 Q 114.1 184.4, 114.8 183.5 Q 115.5 182.6, 115.5 180.9 Q 115.5 179.2, 114.8 178.3 Q 114.1 177.5, 112.8 177.5 Q 111.5 177.5, 110.8 178.3 Q 110.1 179.2, 110.1 180.9 Q 110.1 182.6, 110.8 183.5 Q 111.5 184.4, 112.8 184.4 " fill="#FF0000"/>
<path class="atom-7" d="M 130.8 142.3 Q 131.6 142.6, 132.0 143.1 Q 132.5 143.6, 132.5 144.3 Q 132.5 145.5, 131.7 146.2 Q 130.9 146.9, 129.5 146.9 L 126.6 146.9 L 126.6 138.2 L 129.2 138.2 Q 130.6 138.2, 131.4 138.8 Q 132.1 139.4, 132.1 140.5 Q 132.1 141.8, 130.8 142.3 M 127.8 139.2 L 127.8 141.9 L 129.2 141.9 Q 130.0 141.9, 130.4 141.6 Q 130.9 141.2, 130.9 140.5 Q 130.9 139.2, 129.2 139.2 L 127.8 139.2 M 129.5 145.9 Q 130.3 145.9, 130.8 145.5 Q 131.2 145.1, 131.2 144.3 Q 131.2 143.6, 130.7 143.3 Q 130.3 142.9, 129.3 142.9 L 127.8 142.9 L 127.8 145.9 L 129.5 145.9 " fill="#7F4C19"/>
<path class="atom-7" d="M 134.0 140.6 L 134.1 141.5 Q 134.7 140.5, 135.8 140.5 Q 136.2 140.5, 136.6 140.6 L 136.4 141.6 Q 135.9 141.5, 135.6 141.5 Q 135.1 141.5, 134.8 141.7 Q 134.4 141.9, 134.2 142.4 L 134.2 146.9 L 133.0 146.9 L 133.0 140.6 L 134.0 140.6 " fill="#7F4C19"/>
<path class="atom-14" d="M 180.7 98.2 Q 180.7 96.2, 181.7 95.0 Q 182.7 93.8, 184.6 93.8 Q 186.6 93.8, 187.6 95.0 Q 188.6 96.2, 188.6 98.2 Q 188.6 100.3, 187.6 101.5 Q 186.5 102.7, 184.6 102.7 Q 182.7 102.7, 181.7 101.5 Q 180.7 100.3, 180.7 98.2 M 184.6 101.7 Q 186.0 101.7, 186.7 100.8 Q 187.4 100.0, 187.4 98.2 Q 187.4 96.5, 186.7 95.7 Q 186.0 94.8, 184.6 94.8 Q 183.3 94.8, 182.6 95.7 Q 181.9 96.5, 181.9 98.2 Q 181.9 100.0, 182.6 100.8 Q 183.3 101.7, 184.6 101.7 " fill="#FF0000"/>
<path class="atom-17" d="M 162.7 188.4 Q 162.8 188.5, 163.2 188.6 Q 163.6 188.8, 164.0 188.9 Q 164.5 189.0, 164.9 189.0 Q 165.7 189.0, 166.2 188.6 Q 166.7 188.2, 166.7 187.5 Q 166.7 187.0, 166.4 186.8 Q 166.2 186.5, 165.9 186.3 Q 165.5 186.1, 164.9 186.0 Q 164.1 185.7, 163.6 185.5 Q 163.2 185.3, 162.9 184.8 Q 162.6 184.4, 162.6 183.6 Q 162.6 182.5, 163.3 181.8 Q 164.0 181.2, 165.5 181.2 Q 166.5 181.2, 167.6 181.6 L 167.3 182.6 Q 166.3 182.2, 165.5 182.2 Q 164.7 182.2, 164.2 182.5 Q 163.8 182.8, 163.8 183.4 Q 163.8 183.9, 164.0 184.2 Q 164.2 184.5, 164.6 184.6 Q 164.9 184.8, 165.5 185.0 Q 166.3 185.2, 166.8 185.5 Q 167.2 185.7, 167.6 186.2 Q 167.9 186.7, 167.9 187.5 Q 167.9 188.7, 167.1 189.4 Q 166.3 190.0, 165.0 190.0 Q 164.2 190.0, 163.6 189.8 Q 163.0 189.7, 162.4 189.4 L 162.7 188.4 " fill="#CCCC00"/>
<path class="atom-20" d="M 119.2 219.9 Q 119.2 217.9, 120.2 216.7 Q 121.2 215.6, 123.1 215.6 Q 125.0 215.6, 126.1 216.7 Q 127.1 217.9, 127.1 219.9 Q 127.1 222.0, 126.0 223.2 Q 125.0 224.4, 123.1 224.4 Q 121.2 224.4, 120.2 223.2 Q 119.2 222.1, 119.2 219.9 M 123.1 223.4 Q 124.4 223.4, 125.1 222.6 Q 125.9 221.7, 125.9 219.9 Q 125.9 218.3, 125.1 217.4 Q 124.4 216.5, 123.1 216.5 Q 121.8 216.5, 121.1 217.4 Q 120.4 218.2, 120.4 219.9 Q 120.4 221.7, 121.1 222.6 Q 121.8 223.4, 123.1 223.4 " fill="#FF0000"/>
<path class="atom-21" d="M 153.6 227.2 Q 153.6 225.1, 154.6 224.0 Q 155.6 222.8, 157.5 222.8 Q 159.4 222.8, 160.5 224.0 Q 161.5 225.1, 161.5 227.2 Q 161.5 229.3, 160.4 230.5 Q 159.4 231.7, 157.5 231.7 Q 155.6 231.7, 154.6 230.5 Q 153.6 229.3, 153.6 227.2 M 157.5 230.7 Q 158.8 230.7, 159.5 229.8 Q 160.3 228.9, 160.3 227.2 Q 160.3 225.5, 159.5 224.7 Q 158.8 223.8, 157.5 223.8 Q 156.2 223.8, 155.5 224.6 Q 154.8 225.5, 154.8 227.2 Q 154.8 228.9, 155.5 229.8 Q 156.2 230.7, 157.5 230.7 " fill="#FF0000"/>
<path class="atom-21" d="M 162.1 224.2 L 165.0 224.2 L 165.0 224.9 L 162.1 224.9 L 162.1 224.2 " fill="#FF0000"/>
<path class="atom-22" d="M 113.9 148.2 L 115.0 148.2 L 115.0 151.8 L 119.5 151.8 L 119.5 148.2 L 120.6 148.2 L 120.6 156.8 L 119.5 156.8 L 119.5 152.8 L 115.0 152.8 L 115.0 156.8 L 113.9 156.8 L 113.9 148.2 " fill="#000000"/>
<path class="atom-23" d="M 95.3 139.9 L 96.5 139.9 L 96.5 143.6 L 100.9 143.6 L 100.9 139.9 L 102.1 139.9 L 102.1 148.6 L 100.9 148.6 L 100.9 144.6 L 96.5 144.6 L 96.5 148.6 L 95.3 148.6 L 95.3 139.9 " fill="#000000"/>
<path class="atom-24" d="M 198.3 173.5 L 199.5 173.5 L 199.5 177.1 L 203.9 177.1 L 203.9 173.5 L 205.1 173.5 L 205.1 182.1 L 203.9 182.1 L 203.9 178.1 L 199.5 178.1 L 199.5 182.1 L 198.3 182.1 L 198.3 173.5 " fill="#000000"/>
<path class="atom-25" d="M 228.5 146.2 L 229.7 146.2 L 229.7 149.9 L 234.1 149.9 L 234.1 146.2 L 235.3 146.2 L 235.3 154.8 L 234.1 154.8 L 234.1 150.8 L 229.7 150.8 L 229.7 154.8 L 228.5 154.8 L 228.5 146.2 " fill="#000000"/>
<path class="atom-26" d="M 220.0 106.4 L 221.2 106.4 L 221.2 110.1 L 225.6 110.1 L 225.6 106.4 L 226.7 106.4 L 226.7 115.0 L 225.6 115.0 L 225.6 111.0 L 221.2 111.0 L 221.2 115.0 L 220.0 115.0 L 220.0 106.4 " fill="#000000"/>
<path class="atom-27" d="M 151.1 121.2 L 152.2 121.2 L 152.2 124.8 L 156.7 124.8 L 156.7 121.2 L 157.8 121.2 L 157.8 129.8 L 156.7 129.8 L 156.7 125.8 L 152.2 125.8 L 152.2 129.8 L 151.1 129.8 L 151.1 121.2 " fill="#000000"/>
<path class="atom-28" d="M 168.2 68.3 L 169.4 68.3 L 169.4 72.0 L 173.8 72.0 L 173.8 68.3 L 174.9 68.3 L 174.9 77.0 L 173.8 77.0 L 173.8 73.0 L 169.4 73.0 L 169.4 77.0 L 168.2 77.0 L 168.2 68.3 " fill="#000000"/>
<path class="atom-29" d="M 148.3 72.6 L 149.5 72.6 L 149.5 76.3 L 153.9 76.3 L 153.9 72.6 L 155.1 72.6 L 155.1 81.2 L 153.9 81.2 L 153.9 77.2 L 149.5 77.2 L 149.5 81.2 L 148.3 81.2 L 148.3 72.6 " fill="#000000"/>
<path class="atom-30" d="M 146.9 101.3 L 148.1 101.3 L 148.1 104.9 L 152.5 104.9 L 152.5 101.3 L 153.6 101.3 L 153.6 109.9 L 152.5 109.9 L 152.5 105.9 L 148.1 105.9 L 148.1 109.9 L 146.9 109.9 L 146.9 101.3 " fill="#000000"/>
<ellipse cx="480.7" cy="132.0" rx="6.7" ry="6.7" class="atom-14" style="fill:#A19F62;fill-rule:evenodd;stroke:#A19F62;stroke-width:1.0px;stroke-linecap:butt;stroke-linejoin:miter;stroke-opacity:1"/>
<ellipse cx="495.7" cy="118.3" rx="6.7" ry="6.7" class="atom-15" style="fill:#7C947A;fill-rule:evenodd;stroke:#7C947A;stroke-width:1.0px;stroke-linecap:butt;stroke-linejoin:miter;stroke-opacity:1"/>
<ellipse cx="515.1" cy="124.6" rx="6.7" ry="6.7" class="atom-16" style="fill:#DC3369;fill-rule:evenodd;stroke:#DC3369;stroke-width:1.0px;stroke-linecap:butt;stroke-linejoin:miter;stroke-opacity:1"/>
<ellipse cx="491.5" cy="98.4" rx="6.7" ry="6.7" class="atom-17" style="fill:#DC3369;fill-rule:evenodd;stroke:#DC3369;stroke-width:1.0px;stroke-linecap:butt;stroke-linejoin:miter;stroke-opacity:1"/>
<ellipse cx="506.5" cy="84.9" rx="6.7" ry="6.7" class="atom-18" style="fill:#DC3369;fill-rule:evenodd;stroke:#DC3369;stroke-width:1.0px;stroke-linecap:butt;stroke-linejoin:miter;stroke-opacity:1"/>
<ellipse cx="502.3" cy="65.0" rx="6.7" ry="6.7" class="atom-19" style="fill:#DC3369;fill-rule:evenodd;stroke:#DC3369;stroke-width:1.0px;stroke-linecap:butt;stroke-linejoin:miter;stroke-opacity:1"/>
<ellipse cx="482.9" cy="58.8" rx="6.7" ry="6.7" class="atom-20" style="fill:#DC3369;fill-rule:evenodd;stroke:#DC3369;stroke-width:1.0px;stroke-linecap:butt;stroke-linejoin:miter;stroke-opacity:1"/>
<ellipse cx="467.9" cy="72.4" rx="6.7" ry="6.7" class="atom-21" style="fill:#DC3369;fill-rule:evenodd;stroke:#DC3369;stroke-width:1.0px;stroke-linecap:butt;stroke-linejoin:miter;stroke-opacity:1"/>
<ellipse cx="472.1" cy="92.2" rx="6.7" ry="6.7" class="atom-22" style="fill:#DC3369;fill-rule:evenodd;stroke:#DC3369;stroke-width:1.0px;stroke-linecap:butt;stroke-linejoin:miter;stroke-opacity:1"/>
<ellipse cx="461.4" cy="125.7" rx="6.7" ry="6.7" class="atom-34" style="fill:#DC3369;fill-rule:evenodd;stroke:#DC3369;stroke-width:1.0px;stroke-linecap:butt;stroke-linejoin:miter;stroke-opacity:1"/>
<ellipse cx="525.9" cy="91.1" rx="6.7" ry="6.7" class="atom-35" style="fill:#DC3369;fill-rule:evenodd;stroke:#DC3369;stroke-width:1.0px;stroke-linecap:butt;stroke-linejoin:miter;stroke-opacity:1"/>
<ellipse cx="517.3" cy="51.4" rx="6.7" ry="6.7" class="atom-36" style="fill:#DC3369;fill-rule:evenodd;stroke:#DC3369;stroke-width:1.0px;stroke-linecap:butt;stroke-linejoin:miter;stroke-opacity:1"/>
<ellipse cx="478.7" cy="38.9" rx="6.7" ry="6.7" class="atom-37" style="fill:#DC3369;fill-rule:evenodd;stroke:#DC3369;stroke-width:1.0px;stroke-linecap:butt;stroke-linejoin:miter;stroke-opacity:1"/>
<ellipse cx="448.6" cy="66.1" rx="6.7" ry="6.7" class="atom-38" style="fill:#DC3369;fill-rule:evenodd;stroke:#DC3369;stroke-width:1.0px;stroke-linecap:butt;stroke-linejoin:miter;stroke-opacity:1"/>
<ellipse cx="457.1" cy="105.8" rx="6.7" ry="6.7" class="atom-39" style="fill:#DC3369;fill-rule:evenodd;stroke:#DC3369;stroke-width:1.0px;stroke-linecap:butt;stroke-linejoin:miter;stroke-opacity:1"/>
<path class="bond-0 atom-0 atom-1" d="M 370.0,188.0 L 374.0,193.6" style="fill:none;fill-rule:evenodd;stroke:#FF0000;stroke-width:2.0px;stroke-linecap:butt;stroke-linejoin:miter;stroke-opacity:1"/>
<path class="bond-0 atom-0 atom-1" d="M 374.0,193.6 L 378.1,199.2" style="fill:none;fill-rule:evenodd;stroke:#000000;stroke-width:2.0px;stroke-linecap:butt;stroke-linejoin:miter;stroke-opacity:1"/>
<path class="bond-0 atom-0 atom-1" d="M 367.0,190.2 L 371.1,195.8" style="fill:none;fill-rule:evenodd;stroke:#FF0000;stroke-width:2.0px;stroke-linecap:butt;stroke-linejoin:miter;stroke-opacity:1"/>
<path class="bond-0 atom-0 atom-1" d="M 371.1,195.8 L 375.2,201.4" style="fill:none;fill-rule:evenodd;stroke:#000000;stroke-width:2.0px;stroke-linecap:butt;stroke-linejoin:miter;stroke-opacity:1"/>
<path class="bond-1 atom-1 atom-2" d="M 376.7,200.3 L 373.7,207.1" style="fill:none;fill-rule:evenodd;stroke:#000000;stroke-width:2.0px;stroke-linecap:butt;stroke-linejoin:miter;stroke-opacity:1"/>
<path class="bond-1 atom-1 atom-2" d="M 373.7,207.1 L 370.7,213.8" style="fill:none;fill-rule:evenodd;stroke:#FF0000;stroke-width:2.0px;stroke-linecap:butt;stroke-linejoin:miter;stroke-opacity:1"/>
<path class="bond-2 atom-1 atom-3" d="M 376.7,200.3 L 396.9,198.2" style="fill:none;fill-rule:evenodd;stroke:#000000;stroke-width:2.0px;stroke-linecap:butt;stroke-linejoin:miter;stroke-opacity:1"/>
<path class="bond-3 atom-3 atom-4" d="M 396.9,198.2 L 401.0,203.8" style="fill:none;fill-rule:evenodd;stroke:#000000;stroke-width:2.0px;stroke-linecap:butt;stroke-linejoin:miter;stroke-opacity:1"/>
<path class="bond-3 atom-3 atom-4" d="M 401.0,203.8 L 405.1,209.5" style="fill:none;fill-rule:evenodd;stroke:#FF0000;stroke-width:2.0px;stroke-linecap:butt;stroke-linejoin:miter;stroke-opacity:1"/>
<path class="bond-4 atom-3 atom-29" d="M 396.9,198.2 L 409.2,189.1" style="fill:none;fill-rule:evenodd;stroke:#000000;stroke-width:2.0px;stroke-linecap:butt;stroke-linejoin:miter;stroke-opacity:1"/>
<path class="bond-5 atom-3 atom-30" d="M 396.9,198.2 L 395.2,183.0" style="fill:none;fill-rule:evenodd;stroke:#000000;stroke-width:2.0px;stroke-linecap:butt;stroke-linejoin:miter;stroke-opacity:1"/>
<path class="bond-6 atom-4 atom-5" d="M 413.4,214.1 L 421.2,213.2" style="fill:none;fill-rule:evenodd;stroke:#FF0000;stroke-width:2.0px;stroke-linecap:butt;stroke-linejoin:miter;stroke-opacity:1"/>
<path class="bond-6 atom-4 atom-5" d="M 421.2,213.2 L 429.0,212.4" style="fill:none;fill-rule:evenodd;stroke:#000000;stroke-width:2.0px;stroke-linecap:butt;stroke-linejoin:miter;stroke-opacity:1"/>
<path class="bond-7 atom-5 atom-6" d="M 429.0,212.4 L 439.1,194.8" style="fill:none;fill-rule:evenodd;stroke:#000000;stroke-width:2.0px;stroke-linecap:butt;stroke-linejoin:miter;stroke-opacity:1"/>
<path class="bond-8 atom-5 atom-25" d="M 429.0,212.4 L 442.6,227.5" style="fill:none;fill-rule:evenodd;stroke:#000000;stroke-width:2.0px;stroke-linecap:butt;stroke-linejoin:miter;stroke-opacity:1"/>
<path class="bond-8 atom-5 atom-25" d="M 433.8,212.2 L 443.3,222.8" style="fill:none;fill-rule:evenodd;stroke:#000000;stroke-width:2.0px;stroke-linecap:butt;stroke-linejoin:miter;stroke-opacity:1"/>
<path class="bond-9 atom-6 atom-7" d="M 439.1,194.8 L 436.1,188.0" style="fill:none;fill-rule:evenodd;stroke:#000000;stroke-width:2.0px;stroke-linecap:butt;stroke-linejoin:miter;stroke-opacity:1"/>
<path class="bond-9 atom-6 atom-7" d="M 436.1,188.0 L 433.1,181.3" style="fill:none;fill-rule:evenodd;stroke:#7F4C19;stroke-width:2.0px;stroke-linecap:butt;stroke-linejoin:miter;stroke-opacity:1"/>
<path class="bond-10 atom-6 atom-8" d="M 439.1,194.8 L 459.0,199.0" style="fill:none;fill-rule:evenodd;stroke:#000000;stroke-width:2.0px;stroke-linecap:butt;stroke-linejoin:miter;stroke-opacity:1"/>
<path class="bond-10 atom-6 atom-8" d="M 441.4,199.0 L 455.3,202.0" style="fill:none;fill-rule:evenodd;stroke:#000000;stroke-width:2.0px;stroke-linecap:butt;stroke-linejoin:miter;stroke-opacity:1"/>
<path class="bond-11 atom-8 atom-9" d="M 459.0,199.0 L 474.1,185.3" style="fill:none;fill-rule:evenodd;stroke:#000000;stroke-width:2.0px;stroke-linecap:butt;stroke-linejoin:miter;stroke-opacity:1"/>
<path class="bond-12 atom-8 atom-24" d="M 459.0,199.0 L 459.8,206.6" style="fill:none;fill-rule:evenodd;stroke:#000000;stroke-width:2.0px;stroke-linecap:butt;stroke-linejoin:miter;stroke-opacity:1"/>
<path class="bond-12 atom-8 atom-24" d="M 459.8,206.6 L 460.6,214.2" style="fill:none;fill-rule:evenodd;stroke:#CCCC00;stroke-width:2.0px;stroke-linecap:butt;stroke-linejoin:miter;stroke-opacity:1"/>
<path class="bond-13 atom-9 atom-10" d="M 474.1,185.3 L 493.4,191.5" style="fill:none;fill-rule:evenodd;stroke:#000000;stroke-width:2.0px;stroke-linecap:butt;stroke-linejoin:miter;stroke-opacity:1"/>
<path class="bond-13 atom-9 atom-10" d="M 478.1,182.8 L 491.6,187.1" style="fill:none;fill-rule:evenodd;stroke:#000000;stroke-width:2.0px;stroke-linecap:butt;stroke-linejoin:miter;stroke-opacity:1"/>
<path class="bond-14 atom-9 atom-23" d="M 474.1,185.3 L 469.9,165.5" style="fill:none;fill-rule:evenodd;stroke:#000000;stroke-width:2.0px;stroke-linecap:butt;stroke-linejoin:miter;stroke-opacity:1"/>
<path class="bond-15 atom-10 atom-11" d="M 493.4,191.5 L 508.5,178.0" style="fill:none;fill-rule:evenodd;stroke:#000000;stroke-width:2.0px;stroke-linecap:butt;stroke-linejoin:miter;stroke-opacity:1"/>
<path class="bond-16 atom-10 atom-31" d="M 493.4,191.5 L 496.6,206.4" style="fill:none;fill-rule:evenodd;stroke:#000000;stroke-width:2.0px;stroke-linecap:butt;stroke-linejoin:miter;stroke-opacity:1"/>
<path class="bond-17 atom-11 atom-12" d="M 508.5,178.0 L 504.2,158.1" style="fill:none;fill-rule:evenodd;stroke:#000000;stroke-width:2.0px;stroke-linecap:butt;stroke-linejoin:miter;stroke-opacity:1"/>
<path class="bond-17 atom-11 atom-12" d="M 504.3,175.8 L 501.3,161.9" style="fill:none;fill-rule:evenodd;stroke:#000000;stroke-width:2.0px;stroke-linecap:butt;stroke-linejoin:miter;stroke-opacity:1"/>
<path class="bond-18 atom-11 atom-32" d="M 508.5,178.0 L 523.8,182.9" style="fill:none;fill-rule:evenodd;stroke:#000000;stroke-width:2.0px;stroke-linecap:butt;stroke-linejoin:miter;stroke-opacity:1"/>
<path class="bond-19 atom-12 atom-13" d="M 504.2,158.1 L 484.9,151.8" style="fill:none;fill-rule:evenodd;stroke:#000000;stroke-width:2.0px;stroke-linecap:butt;stroke-linejoin:miter;stroke-opacity:1"/>
<path class="bond-20 atom-12 atom-33" d="M 504.2,158.1 L 515.3,148.2" style="fill:none;fill-rule:evenodd;stroke:#000000;stroke-width:2.0px;stroke-linecap:butt;stroke-linejoin:miter;stroke-opacity:1"/>
<path class="bond-21 atom-13 atom-14" d="M 484.9,151.8 L 483.3,144.4" style="fill:none;fill-rule:evenodd;stroke:#000000;stroke-width:2.0px;stroke-linecap:butt;stroke-linejoin:miter;stroke-opacity:1"/>
<path class="bond-21 atom-13 atom-14" d="M 483.3,144.4 L 481.7,137.0" style="fill:none;fill-rule:evenodd;stroke:#0000FF;stroke-width:2.0px;stroke-linecap:butt;stroke-linejoin:miter;stroke-opacity:1"/>
<path class="bond-22 atom-13 atom-23" d="M 484.9,151.8 L 469.9,165.5" style="fill:none;fill-rule:evenodd;stroke:#000000;stroke-width:2.0px;stroke-linecap:butt;stroke-linejoin:miter;stroke-opacity:1"/>
<path class="bond-22 atom-13 atom-23" d="M 485.1,156.6 L 474.6,166.1" style="fill:none;fill-rule:evenodd;stroke:#000000;stroke-width:2.0px;stroke-linecap:butt;stroke-linejoin:miter;stroke-opacity:1"/>
<path class="bond-23 atom-14 atom-15" d="M 484.6,128.4 L 490.2,123.4" style="fill:none;fill-rule:evenodd;stroke:#0000FF;stroke-width:2.0px;stroke-linecap:butt;stroke-linejoin:miter;stroke-opacity:1"/>
<path class="bond-23 atom-14 atom-15" d="M 490.2,123.4 L 495.7,118.3" style="fill:none;fill-rule:evenodd;stroke:#000000;stroke-width:2.0px;stroke-linecap:butt;stroke-linejoin:miter;stroke-opacity:1"/>
<path class="bond-24 atom-14 atom-34" d="M 476.7,130.7 L 471.1,128.9" style="fill:none;fill-rule:evenodd;stroke:#0000FF;stroke-width:2.0px;stroke-linecap:butt;stroke-linejoin:miter;stroke-opacity:1"/>
<path class="bond-24 atom-14 atom-34" d="M 471.1,128.9 L 465.4,127.0" style="fill:none;fill-rule:evenodd;stroke:#000000;stroke-width:2.0px;stroke-linecap:butt;stroke-linejoin:miter;stroke-opacity:1"/>
<path class="bond-25 atom-15 atom-16" d="M 496.3,116.6 L 503.7,119.0" style="fill:none;fill-rule:evenodd;stroke:#000000;stroke-width:2.0px;stroke-linecap:butt;stroke-linejoin:miter;stroke-opacity:1"/>
<path class="bond-25 atom-15 atom-16" d="M 503.7,119.0 L 511.0,121.3" style="fill:none;fill-rule:evenodd;stroke:#FF0000;stroke-width:2.0px;stroke-linecap:butt;stroke-linejoin:miter;stroke-opacity:1"/>
<path class="bond-25 atom-15 atom-16" d="M 495.2,120.1 L 502.5,122.4" style="fill:none;fill-rule:evenodd;stroke:#000000;stroke-width:2.0px;stroke-linecap:butt;stroke-linejoin:miter;stroke-opacity:1"/>
<path class="bond-25 atom-15 atom-16" d="M 502.5,122.4 L 509.9,124.8" style="fill:none;fill-rule:evenodd;stroke:#FF0000;stroke-width:2.0px;stroke-linecap:butt;stroke-linejoin:miter;stroke-opacity:1"/>
<path class="bond-26 atom-15 atom-17" d="M 495.7,118.3 L 491.5,98.4" style="fill:none;fill-rule:evenodd;stroke:#000000;stroke-width:2.0px;stroke-linecap:butt;stroke-linejoin:miter;stroke-opacity:1"/>
<path class="bond-27 atom-17 atom-18" d="M 491.5,98.4 L 506.5,84.9" style="fill:none;fill-rule:evenodd;stroke:#000000;stroke-width:2.0px;stroke-linecap:butt;stroke-linejoin:miter;stroke-opacity:1"/>
<path class="bond-27 atom-17 atom-18" d="M 491.3,93.7 L 501.8,84.2" style="fill:none;fill-rule:evenodd;stroke:#000000;stroke-width:2.0px;stroke-linecap:butt;stroke-linejoin:miter;stroke-opacity:1"/>
<path class="bond-28 atom-17 atom-22" d="M 491.5,98.4 L 472.1,92.2" style="fill:none;fill-rule:evenodd;stroke:#000000;stroke-width:2.0px;stroke-linecap:butt;stroke-linejoin:miter;stroke-opacity:1"/>
<path class="bond-29 atom-18 atom-19" d="M 506.5,84.9 L 502.3,65.0" style="fill:none;fill-rule:evenodd;stroke:#000000;stroke-width:2.0px;stroke-linecap:butt;stroke-linejoin:miter;stroke-opacity:1"/>
<path class="bond-30 atom-18 atom-35" d="M 506.5,84.9 L 521.8,89.8" style="fill:none;fill-rule:evenodd;stroke:#000000;stroke-width:2.0px;stroke-linecap:butt;stroke-linejoin:miter;stroke-opacity:1"/>
<path class="bond-31 atom-19 atom-20" d="M 502.3,65.0 L 482.9,58.8" style="fill:none;fill-rule:evenodd;stroke:#000000;stroke-width:2.0px;stroke-linecap:butt;stroke-linejoin:miter;stroke-opacity:1"/>
<path class="bond-31 atom-19 atom-20" d="M 498.3,67.5 L 484.7,63.2" style="fill:none;fill-rule:evenodd;stroke:#000000;stroke-width:2.0px;stroke-linecap:butt;stroke-linejoin:miter;stroke-opacity:1"/>
<path class="bond-32 atom-19 atom-36" d="M 502.3,65.0 L 513.3,55.0" style="fill:none;fill-rule:evenodd;stroke:#000000;stroke-width:2.0px;stroke-linecap:butt;stroke-linejoin:miter;stroke-opacity:1"/>
<path class="bond-33 atom-20 atom-21" d="M 482.9,58.8 L 467.9,72.4" style="fill:none;fill-rule:evenodd;stroke:#000000;stroke-width:2.0px;stroke-linecap:butt;stroke-linejoin:miter;stroke-opacity:1"/>
<path class="bond-34 atom-20 atom-37" d="M 482.9,58.8 L 479.8,43.9" style="fill:none;fill-rule:evenodd;stroke:#000000;stroke-width:2.0px;stroke-linecap:butt;stroke-linejoin:miter;stroke-opacity:1"/>
<path class="bond-35 atom-21 atom-22" d="M 467.9,72.4 L 472.1,92.2" style="fill:none;fill-rule:evenodd;stroke:#000000;stroke-width:2.0px;stroke-linecap:butt;stroke-linejoin:miter;stroke-opacity:1"/>
<path class="bond-35 atom-21 atom-22" d="M 472.1,74.6 L 475.1,88.5" style="fill:none;fill-rule:evenodd;stroke:#000000;stroke-width:2.0px;stroke-linecap:butt;stroke-linejoin:miter;stroke-opacity:1"/>
<path class="bond-36 atom-21 atom-38" d="M 467.9,72.4 L 452.6,67.4" style="fill:none;fill-rule:evenodd;stroke:#000000;stroke-width:2.0px;stroke-linecap:butt;stroke-linejoin:miter;stroke-opacity:1"/>
<path class="bond-37 atom-22 atom-39" d="M 472.1,92.2 L 461.1,102.2" style="fill:none;fill-rule:evenodd;stroke:#000000;stroke-width:2.0px;stroke-linecap:butt;stroke-linejoin:miter;stroke-opacity:1"/>
<path class="bond-38 atom-23 atom-40" d="M 469.9,165.5 L 454.6,160.5" style="fill:none;fill-rule:evenodd;stroke:#000000;stroke-width:2.0px;stroke-linecap:butt;stroke-linejoin:miter;stroke-opacity:1"/>
<path class="bond-39 atom-24 atom-25" d="M 457.7,220.7 L 450.2,224.1" style="fill:none;fill-rule:evenodd;stroke:#CCCC00;stroke-width:2.0px;stroke-linecap:butt;stroke-linejoin:miter;stroke-opacity:1"/>
<path class="bond-39 atom-24 atom-25" d="M 450.2,224.1 L 442.6,227.5" style="fill:none;fill-rule:evenodd;stroke:#000000;stroke-width:2.0px;stroke-linecap:butt;stroke-linejoin:miter;stroke-opacity:1"/>
<path class="bond-40 atom-25 atom-26" d="M 442.6,227.5 L 438.4,247.3" style="fill:none;fill-rule:evenodd;stroke:#000000;stroke-width:2.0px;stroke-linecap:butt;stroke-linejoin:miter;stroke-opacity:1"/>
<path class="bond-41 atom-26 atom-27" d="M 439.0,249.1 L 431.7,251.5" style="fill:none;fill-rule:evenodd;stroke:#000000;stroke-width:2.0px;stroke-linecap:butt;stroke-linejoin:miter;stroke-opacity:1"/>
<path class="bond-41 atom-26 atom-27" d="M 431.7,251.5 L 424.3,253.9" style="fill:none;fill-rule:evenodd;stroke:#FF0000;stroke-width:2.0px;stroke-linecap:butt;stroke-linejoin:miter;stroke-opacity:1"/>
<path class="bond-41 atom-26 atom-27" d="M 437.9,245.6 L 430.5,248.0" style="fill:none;fill-rule:evenodd;stroke:#000000;stroke-width:2.0px;stroke-linecap:butt;stroke-linejoin:miter;stroke-opacity:1"/>
<path class="bond-41 atom-26 atom-27" d="M 430.5,248.0 L 423.2,250.4" style="fill:none;fill-rule:evenodd;stroke:#FF0000;stroke-width:2.0px;stroke-linecap:butt;stroke-linejoin:miter;stroke-opacity:1"/>
<path class="bond-42 atom-26 atom-28" d="M 438.4,247.3 L 443.7,252.0" style="fill:none;fill-rule:evenodd;stroke:#000000;stroke-width:2.0px;stroke-linecap:butt;stroke-linejoin:miter;stroke-opacity:1"/>
<path class="bond-42 atom-26 atom-28" d="M 443.7,252.0 L 448.9,256.7" style="fill:none;fill-rule:evenodd;stroke:#FF0000;stroke-width:2.0px;stroke-linecap:butt;stroke-linejoin:miter;stroke-opacity:1"/>
<path class="atom-0" d="M 360.8 183.9 Q 360.8 181.9, 361.8 180.7 Q 362.8 179.6, 364.7 179.6 Q 366.6 179.6, 367.6 180.7 Q 368.7 181.9, 368.7 183.9 Q 368.7 186.0, 367.6 187.2 Q 366.6 188.4, 364.7 188.4 Q 362.8 188.4, 361.8 187.2 Q 360.8 186.0, 360.8 183.9 M 364.7 187.4 Q 366.0 187.4, 366.7 186.6 Q 367.5 185.7, 367.5 183.9 Q 367.5 182.2, 366.7 181.4 Q 366.0 180.5, 364.7 180.5 Q 363.4 180.5, 362.7 181.4 Q 362.0 182.2, 362.0 183.9 Q 362.0 185.7, 362.7 186.6 Q 363.4 187.4, 364.7 187.4 " fill="#FF0000"/>
<path class="atom-2" d="M 364.5 218.9 Q 364.5 216.8, 365.5 215.7 Q 366.5 214.5, 368.4 214.5 Q 370.4 214.5, 371.4 215.7 Q 372.4 216.8, 372.4 218.9 Q 372.4 221.0, 371.4 222.2 Q 370.3 223.4, 368.4 223.4 Q 366.5 223.4, 365.5 222.2 Q 364.5 221.0, 364.5 218.9 M 368.4 222.4 Q 369.8 222.4, 370.5 221.5 Q 371.2 220.6, 371.2 218.9 Q 371.2 217.2, 370.5 216.4 Q 369.8 215.5, 368.4 215.5 Q 367.1 215.5, 366.4 216.3 Q 365.7 217.2, 365.7 218.9 Q 365.7 220.6, 366.4 221.5 Q 367.1 222.4, 368.4 222.4 " fill="#FF0000"/>
<path class="atom-2" d="M 373.0 215.9 L 376.0 215.9 L 376.0 216.6 L 373.0 216.6 L 373.0 215.9 " fill="#FF0000"/>
<path class="atom-4" d="M 404.9 214.6 Q 404.9 212.5, 405.9 211.4 Q 406.9 210.2, 408.8 210.2 Q 410.7 210.2, 411.8 211.4 Q 412.8 212.5, 412.8 214.6 Q 412.8 216.7, 411.7 217.9 Q 410.7 219.1, 408.8 219.1 Q 406.9 219.1, 405.9 217.9 Q 404.9 216.7, 404.9 214.6 M 408.8 218.1 Q 410.1 218.1, 410.8 217.2 Q 411.6 216.3, 411.6 214.6 Q 411.6 212.9, 410.8 212.0 Q 410.1 211.2, 408.8 211.2 Q 407.5 211.2, 406.8 212.0 Q 406.1 212.9, 406.1 214.6 Q 406.1 216.3, 406.8 217.2 Q 407.5 218.1, 408.8 218.1 " fill="#FF0000"/>
<path class="atom-7" d="M 426.8 176.1 Q 427.7 176.3, 428.1 176.8 Q 428.5 177.3, 428.5 178.0 Q 428.5 179.2, 427.7 179.9 Q 427.0 180.6, 425.5 180.6 L 422.6 180.6 L 422.6 172.0 L 425.2 172.0 Q 426.7 172.0, 427.4 172.6 Q 428.1 173.2, 428.1 174.3 Q 428.1 175.6, 426.8 176.1 M 423.8 172.9 L 423.8 175.6 L 425.2 175.6 Q 426.0 175.6, 426.5 175.3 Q 426.9 175.0, 426.9 174.3 Q 426.9 172.9, 425.2 172.9 L 423.8 172.9 M 425.5 179.6 Q 426.4 179.6, 426.8 179.2 Q 427.3 178.8, 427.3 178.0 Q 427.3 177.3, 426.8 177.0 Q 426.3 176.6, 425.4 176.6 L 423.8 176.6 L 423.8 179.6 L 425.5 179.6 " fill="#7F4C19"/>
<path class="atom-7" d="M 430.0 174.3 L 430.1 175.2 Q 430.8 174.2, 431.9 174.2 Q 432.2 174.2, 432.7 174.3 L 432.5 175.4 Q 431.9 175.2, 431.7 175.2 Q 431.1 175.2, 430.8 175.5 Q 430.5 175.6, 430.2 176.1 L 430.2 180.6 L 429.1 180.6 L 429.1 174.3 L 430.0 174.3 " fill="#7F4C19"/>
<path class="atom-14" d="M 478.8 127.7 L 481.6 132.2 Q 481.9 132.7, 482.3 133.5 Q 482.8 134.3, 482.8 134.4 L 482.8 127.7 L 483.9 127.7 L 483.9 136.3 L 482.8 136.3 L 479.7 131.3 Q 479.4 130.7, 479.0 130.0 Q 478.6 129.4, 478.5 129.2 L 478.5 136.3 L 477.4 136.3 L 477.4 127.7 L 478.8 127.7 " fill="#0000FF"/>
<path class="atom-16" d="M 511.1 124.6 Q 511.1 122.5, 512.1 121.4 Q 513.2 120.2, 515.1 120.2 Q 517.0 120.2, 518.0 121.4 Q 519.0 122.5, 519.0 124.6 Q 519.0 126.7, 518.0 127.9 Q 517.0 129.1, 515.1 129.1 Q 513.2 129.1, 512.1 127.9 Q 511.1 126.7, 511.1 124.6 M 515.1 128.1 Q 516.4 128.1, 517.1 127.2 Q 517.8 126.3, 517.8 124.6 Q 517.8 122.9, 517.1 122.0 Q 516.4 121.2, 515.1 121.2 Q 513.8 121.2, 513.0 122.0 Q 512.3 122.9, 512.3 124.6 Q 512.3 126.3, 513.0 127.2 Q 513.8 128.1, 515.1 128.1 " fill="#FF0000"/>
<path class="atom-24" d="M 458.7 222.1 Q 458.8 222.2, 459.2 222.3 Q 459.6 222.5, 460.1 222.6 Q 460.5 222.7, 460.9 222.7 Q 461.8 222.7, 462.2 222.3 Q 462.7 221.9, 462.7 221.2 Q 462.7 220.8, 462.5 220.5 Q 462.2 220.2, 461.9 220.0 Q 461.5 219.9, 460.9 219.7 Q 460.1 219.4, 459.7 219.2 Q 459.2 219.0, 458.9 218.5 Q 458.6 218.1, 458.6 217.3 Q 458.6 216.2, 459.3 215.6 Q 460.0 214.9, 461.5 214.9 Q 462.5 214.9, 463.6 215.4 L 463.4 216.3 Q 462.3 215.9, 461.5 215.9 Q 460.7 215.9, 460.2 216.2 Q 459.8 216.6, 459.8 217.2 Q 459.8 217.6, 460.0 217.9 Q 460.3 218.2, 460.6 218.3 Q 461.0 218.5, 461.5 218.7 Q 462.3 218.9, 462.8 219.2 Q 463.2 219.4, 463.6 219.9 Q 463.9 220.4, 463.9 221.2 Q 463.9 222.4, 463.1 223.1 Q 462.3 223.7, 461.0 223.7 Q 460.2 223.7, 459.6 223.5 Q 459.1 223.4, 458.4 223.1 L 458.7 222.1 " fill="#CCCC00"/>
<path class="atom-27" d="M 415.2 253.7 Q 415.2 251.6, 416.2 250.4 Q 417.2 249.3, 419.1 249.3 Q 421.0 249.3, 422.1 250.4 Q 423.1 251.6, 423.1 253.7 Q 423.1 255.8, 422.1 256.9 Q 421.0 258.1, 419.1 258.1 Q 417.2 258.1, 416.2 256.9 Q 415.2 255.8, 415.2 253.7 M 419.1 257.2 Q 420.4 257.2, 421.2 256.3 Q 421.9 255.4, 421.9 253.7 Q 421.9 252.0, 421.2 251.1 Q 420.4 250.2, 419.1 250.2 Q 417.8 250.2, 417.1 251.1 Q 416.4 252.0, 416.4 253.7 Q 416.4 255.4, 417.1 256.3 Q 417.8 257.2, 419.1 257.2 " fill="#FF0000"/>
<path class="atom-28" d="M 449.6 260.9 Q 449.6 258.8, 450.6 257.7 Q 451.6 256.5, 453.5 256.5 Q 455.5 256.5, 456.5 257.7 Q 457.5 258.8, 457.5 260.9 Q 457.5 263.0, 456.5 264.2 Q 455.4 265.4, 453.5 265.4 Q 451.6 265.4, 450.6 264.2 Q 449.6 263.0, 449.6 260.9 M 453.5 264.4 Q 454.9 264.4, 455.6 263.5 Q 456.3 262.6, 456.3 260.9 Q 456.3 259.2, 455.6 258.4 Q 454.9 257.5, 453.5 257.5 Q 452.2 257.5, 451.5 258.4 Q 450.8 259.2, 450.8 260.9 Q 450.8 262.7, 451.5 263.5 Q 452.2 264.4, 453.5 264.4 " fill="#FF0000"/>
<path class="atom-28" d="M 458.1 257.9 L 461.1 257.9 L 461.1 258.6 L 458.1 258.6 L 458.1 257.9 " fill="#FF0000"/>
<path class="atom-29" d="M 409.9 181.9 L 411.1 181.9 L 411.1 185.6 L 415.5 185.6 L 415.5 181.9 L 416.6 181.9 L 416.6 190.5 L 415.5 190.5 L 415.5 186.5 L 411.1 186.5 L 411.1 190.5 L 409.9 190.5 L 409.9 181.9 " fill="#000000"/>
<path class="atom-30" d="M 391.3 173.7 L 392.5 173.7 L 392.5 177.3 L 396.9 177.3 L 396.9 173.7 L 398.1 173.7 L 398.1 182.3 L 396.9 182.3 L 396.9 178.3 L 392.5 178.3 L 392.5 182.3 L 391.3 182.3 L 391.3 173.7 " fill="#000000"/>
<path class="atom-31" d="M 494.3 207.1 L 495.5 207.1 L 495.5 210.8 L 499.9 210.8 L 499.9 207.1 L 501.1 207.1 L 501.1 215.7 L 499.9 215.7 L 499.9 211.7 L 495.5 211.7 L 495.5 215.7 L 494.3 215.7 L 494.3 207.1 " fill="#000000"/>
<path class="atom-32" d="M 524.5 179.9 L 525.6 179.9 L 525.6 183.6 L 530.0 183.6 L 530.0 179.9 L 531.2 179.9 L 531.2 188.5 L 530.0 188.5 L 530.0 184.5 L 525.6 184.5 L 525.6 188.5 L 524.5 188.5 L 524.5 179.9 " fill="#000000"/>
<path class="atom-33" d="M 515.9 140.2 L 517.1 140.2 L 517.1 143.9 L 521.5 143.9 L 521.5 140.2 L 522.7 140.2 L 522.7 148.8 L 521.5 148.8 L 521.5 144.8 L 517.1 144.8 L 517.1 148.8 L 515.9 148.8 L 515.9 140.2 " fill="#000000"/>
<path class="atom-34" d="M 458.0 121.4 L 459.2 121.4 L 459.2 125.1 L 463.6 125.1 L 463.6 121.4 L 464.7 121.4 L 464.7 130.0 L 463.6 130.0 L 463.6 126.1 L 459.2 126.1 L 459.2 130.0 L 458.0 130.0 L 458.0 121.4 " fill="#000000"/>
<path class="atom-35" d="M 522.5 86.8 L 523.6 86.8 L 523.6 90.5 L 528.1 90.5 L 528.1 86.8 L 529.2 86.8 L 529.2 95.4 L 528.1 95.4 L 528.1 91.4 L 523.6 91.4 L 523.6 95.4 L 522.5 95.4 L 522.5 86.8 " fill="#000000"/>
<path class="atom-36" d="M 514.0 47.1 L 515.1 47.1 L 515.1 50.7 L 519.5 50.7 L 519.5 47.1 L 520.7 47.1 L 520.7 55.7 L 519.5 55.7 L 519.5 51.7 L 515.1 51.7 L 515.1 55.7 L 514.0 55.7 L 514.0 47.1 " fill="#000000"/>
<path class="atom-37" d="M 475.3 34.6 L 476.5 34.6 L 476.5 38.3 L 480.9 38.3 L 480.9 34.6 L 482.1 34.6 L 482.1 43.2 L 480.9 43.2 L 480.9 39.3 L 476.5 39.3 L 476.5 43.2 L 475.3 43.2 L 475.3 34.6 " fill="#000000"/>
<path class="atom-38" d="M 445.2 61.8 L 446.4 61.8 L 446.4 65.5 L 450.8 65.5 L 450.8 61.8 L 452.0 61.8 L 452.0 70.4 L 450.8 70.4 L 450.8 66.5 L 446.4 66.5 L 446.4 70.4 L 445.2 70.4 L 445.2 61.8 " fill="#000000"/>
<path class="atom-39" d="M 453.7 101.5 L 454.9 101.5 L 454.9 105.2 L 459.3 105.2 L 459.3 101.5 L 460.5 101.5 L 460.5 110.2 L 459.3 110.2 L 459.3 106.2 L 454.9 106.2 L 454.9 110.2 L 453.7 110.2 L 453.7 101.5 " fill="#000000"/>
<path class="atom-40" d="M 447.2 154.9 L 448.4 154.9 L 448.4 158.6 L 452.8 158.6 L 452.8 154.9 L 453.9 154.9 L 453.9 163.5 L 452.8 163.5 L 452.8 159.6 L 448.4 159.6 L 448.4 163.5 L 447.2 163.5 L 447.2 154.9 " fill="#000000"/>
<text x="300" y="20" font-size="20" font-family="sans-serif" font-weight="normal" letter-spacing="0" text-anchor="middle" fill="black">ptp1b 23467 -&gt; 23469 </text><text x="150" y="285" font-size="15" font-family="sans-serif" font-weight="normal" letter-spacing="0" text-anchor="middle" fill="black">23467</text><text x="450" y="285" font-size="15" font-family="sans-serif" font-weight="normal" letter-spacing="0" text-anchor="middle" fill="black">23469</text></svg>
