<?xml version='1.0' encoding='ASCII' standalone='yes'?>
<svg xmlns="http://www.w3.org/2000/svg" xmlns:rdkit="http://www.rdkit.org/xml" xmlns:xlink="http://www.w3.org/1999/xlink" version="1.1" baseProfile="full" xml:space="preserve" width="600px" height="300px" viewBox="0 0 600 300">
<!-- END OF HEADER -->
<rect style="opacity:1.0;fill:#FFFFFF;stroke:none" width="600" height="300" x="0" y="0"> </rect>
<rect style="opacity:1.0;fill:#FFFFFF;stroke:none" width="600" height="300" x="0" y="0"> </rect>
<rect style="opacity:1.0;fill:#FFFFFF;stroke:none" width="600" height="300" x="0" y="0"> </rect>
<ellipse cx="154.725" cy="50.1008" rx="7.55772" ry="7.55772" style="fill:#CFAA27;fill-rule:evenodd;stroke:#CFAA27;stroke-width:1px;stroke-linecap:butt;stroke-linejoin:miter;stroke-opacity:1"/>
<ellipse cx="144.399" cy="70.4693" rx="7.55772" ry="7.55772" style="fill:#B8A444;fill-rule:evenodd;stroke:#B8A444;stroke-width:1px;stroke-linecap:butt;stroke-linejoin:miter;stroke-opacity:1"/>
<ellipse cx="123.416" cy="71.8169" rx="8.98997" ry="7.55772" style="fill:#A19F62;fill-rule:evenodd;stroke:#A19F62;stroke-width:1px;stroke-linecap:butt;stroke-linejoin:miter;stroke-opacity:1"/>
<ellipse cx="156.948" cy="89.6534" rx="7.55772" ry="7.55772" style="fill:#7C947A;fill-rule:evenodd;stroke:#7C947A;stroke-width:1px;stroke-linecap:butt;stroke-linejoin:miter;stroke-opacity:1"/>
<ellipse cx="179.846" cy="88.4607" rx="7.55772" ry="7.55772" style="fill:#588A93;fill-rule:evenodd;stroke:#588A93;stroke-width:1px;stroke-linecap:butt;stroke-linejoin:miter;stroke-opacity:1"/>
<ellipse cx="192.683" cy="107.629" rx="7.55772" ry="7.55772" style="fill:#3D79AB;fill-rule:evenodd;stroke:#3D79AB;stroke-width:1px;stroke-linecap:butt;stroke-linejoin:miter;stroke-opacity:1"/>
<ellipse cx="184.197" cy="129.096" rx="7.55772" ry="7.55772" style="fill:#2269C4;fill-rule:evenodd;stroke:#2269C4;stroke-width:1px;stroke-linecap:butt;stroke-linejoin:miter;stroke-opacity:1"/>
<ellipse cx="158.43" cy="135.037" rx="8.36597" ry="7.55772" style="fill:#3053DA;fill-rule:evenodd;stroke:#3053DA;stroke-width:1px;stroke-linecap:butt;stroke-linejoin:miter;stroke-opacity:1"/>
<ellipse cx="202.169" cy="143.12" rx="7.55772" ry="7.55772" style="fill:#3E3EF0;fill-rule:evenodd;stroke:#3E3EF0;stroke-width:1px;stroke-linecap:butt;stroke-linejoin:miter;stroke-opacity:1"/>
<ellipse cx="200.783" cy="165.723" rx="7.55772" ry="7.55772" style="fill:#5446F4;fill-rule:evenodd;stroke:#5446F4;stroke-width:1px;stroke-linecap:butt;stroke-linejoin:miter;stroke-opacity:1"/>
<ellipse cx="219.674" cy="179.493" rx="7.55772" ry="7.55772" style="fill:#6B4EF9;fill-rule:evenodd;stroke:#6B4EF9;stroke-width:1px;stroke-linecap:butt;stroke-linejoin:miter;stroke-opacity:1"/>
<ellipse cx="218.152" cy="202.057" rx="7.55772" ry="7.55772" style="fill:#805CF9;fill-rule:evenodd;stroke:#805CF9;stroke-width:1px;stroke-linecap:butt;stroke-linejoin:miter;stroke-opacity:1"/>
<ellipse cx="197.066" cy="211.257" rx="7.55772" ry="7.55772" style="fill:#CFAA27;fill-rule:evenodd;stroke:#CFAA27;stroke-width:1px;stroke-linecap:butt;stroke-linejoin:miter;stroke-opacity:1"/>
<ellipse cx="177.652" cy="198.204" rx="7.55772" ry="7.55772" style="fill:#B8A444;fill-rule:evenodd;stroke:#B8A444;stroke-width:1px;stroke-linecap:butt;stroke-linejoin:miter;stroke-opacity:1"/>
<ellipse cx="155.846" cy="208.867" rx="7.55772" ry="7.55772" style="fill:#A19F62;fill-rule:evenodd;stroke:#A19F62;stroke-width:1px;stroke-linecap:butt;stroke-linejoin:miter;stroke-opacity:1"/>
<ellipse cx="131.589" cy="193.859" rx="7.55772" ry="7.55772" style="fill:#7C947A;fill-rule:evenodd;stroke:#7C947A;stroke-width:1px;stroke-linecap:butt;stroke-linejoin:miter;stroke-opacity:1"/>
<ellipse cx="120.275" cy="215.022" rx="7.55772" ry="7.55772" style="fill:#588A93;fill-rule:evenodd;stroke:#588A93;stroke-width:1px;stroke-linecap:butt;stroke-linejoin:miter;stroke-opacity:1"/>
<ellipse cx="96.4384" cy="215.02" rx="7.55772" ry="7.55772" style="fill:#3D79AB;fill-rule:evenodd;stroke:#3D79AB;stroke-width:1px;stroke-linecap:butt;stroke-linejoin:miter;stroke-opacity:1"/>
<ellipse cx="83.7311" cy="194.58" rx="11.4511" ry="11.4511" style="fill:#CF244B;fill-rule:evenodd;stroke:#CF244B;stroke-width:1px;stroke-linecap:butt;stroke-linejoin:miter;stroke-opacity:1"/>
<ellipse cx="95.6035" cy="173.689" rx="7.55772" ry="7.55772" style="fill:#3053DA;fill-rule:evenodd;stroke:#3053DA;stroke-width:1px;stroke-linecap:butt;stroke-linejoin:miter;stroke-opacity:1"/>
<ellipse cx="119.433" cy="172.887" rx="7.55772" ry="7.55772" style="fill:#3E3EF0;fill-rule:evenodd;stroke:#3E3EF0;stroke-width:1px;stroke-linecap:butt;stroke-linejoin:miter;stroke-opacity:1"/>
<ellipse cx="180.081" cy="175.753" rx="7.55772" ry="7.55772" style="fill:#5446F4;fill-rule:evenodd;stroke:#5446F4;stroke-width:1px;stroke-linecap:butt;stroke-linejoin:miter;stroke-opacity:1"/>
<ellipse cx="221.373" cy="130.996" rx="7.55772" ry="7.55772" style="fill:#6B4EF9;fill-rule:evenodd;stroke:#6B4EF9;stroke-width:1px;stroke-linecap:butt;stroke-linejoin:miter;stroke-opacity:1"/>
<ellipse cx="214.953" cy="108.684" rx="7.55772" ry="7.55772" style="fill:#805CF9;fill-rule:evenodd;stroke:#805CF9;stroke-width:1px;stroke-linecap:butt;stroke-linejoin:miter;stroke-opacity:1"/>
<ellipse cx="229.529" cy="90.7782" rx="7.55772" ry="7.55772" style="fill:#CFAA27;fill-rule:evenodd;stroke:#CFAA27;stroke-width:1px;stroke-linecap:butt;stroke-linejoin:miter;stroke-opacity:1"/>
<ellipse cx="221.216" cy="69.5033" rx="7.55772" ry="7.55772" style="fill:#B8A444;fill-rule:evenodd;stroke:#B8A444;stroke-width:1px;stroke-linecap:butt;stroke-linejoin:miter;stroke-opacity:1"/>
<ellipse cx="254.045" cy="94.3315" rx="8.98997" ry="7.55772" style="fill:#A19F62;fill-rule:evenodd;stroke:#A19F62;stroke-width:1px;stroke-linecap:butt;stroke-linejoin:miter;stroke-opacity:1"/>
<ellipse cx="158.206" cy="112.519" rx="7.55772" ry="7.55772" style="fill:#7C947A;fill-rule:evenodd;stroke:#7C947A;stroke-width:1px;stroke-linecap:butt;stroke-linejoin:miter;stroke-opacity:1"/>
<ellipse cx="137.771" cy="102.181" rx="7.55772" ry="7.55772" style="fill:#588A93;fill-rule:evenodd;stroke:#588A93;stroke-width:1px;stroke-linecap:butt;stroke-linejoin:miter;stroke-opacity:1"/>
<ellipse cx="240.643" cy="169.721" rx="7.55772" ry="7.55772" style="fill:#3D79AB;fill-rule:evenodd;stroke:#3D79AB;stroke-width:1px;stroke-linecap:butt;stroke-linejoin:miter;stroke-opacity:1"/>
<ellipse cx="236.682" cy="215.116" rx="7.55772" ry="7.55772" style="fill:#2269C4;fill-rule:evenodd;stroke:#2269C4;stroke-width:1px;stroke-linecap:butt;stroke-linejoin:miter;stroke-opacity:1"/>
<ellipse cx="194.975" cy="234.298" rx="7.55772" ry="7.55772" style="fill:#3053DA;fill-rule:evenodd;stroke:#3053DA;stroke-width:1px;stroke-linecap:butt;stroke-linejoin:miter;stroke-opacity:1"/>
<ellipse cx="149.098" cy="179.367" rx="7.55772" ry="7.55772" style="fill:#3E3EF0;fill-rule:evenodd;stroke:#3E3EF0;stroke-width:1px;stroke-linecap:butt;stroke-linejoin:miter;stroke-opacity:1"/>
<ellipse cx="117.384" cy="237.303" rx="7.55772" ry="7.55772" style="fill:#5446F4;fill-rule:evenodd;stroke:#5446F4;stroke-width:1px;stroke-linecap:butt;stroke-linejoin:miter;stroke-opacity:1"/>
<ellipse cx="137.838" cy="221.817" rx="7.55772" ry="7.55772" style="fill:#6B4EF9;fill-rule:evenodd;stroke:#6B4EF9;stroke-width:1px;stroke-linecap:butt;stroke-linejoin:miter;stroke-opacity:1"/>
<ellipse cx="139.715" cy="163.553" rx="7.55772" ry="7.55772" style="fill:#805CF9;fill-rule:evenodd;stroke:#805CF9;stroke-width:1px;stroke-linecap:butt;stroke-linejoin:miter;stroke-opacity:1"/>
<ellipse cx="115.651" cy="150.752" rx="7.55772" ry="7.55772" style="fill:#CFAA27;fill-rule:evenodd;stroke:#CFAA27;stroke-width:1px;stroke-linecap:butt;stroke-linejoin:miter;stroke-opacity:1"/>
<ellipse cx="161.17" cy="162.426" rx="7.55772" ry="7.55772" style="fill:#B8A444;fill-rule:evenodd;stroke:#B8A444;stroke-width:1px;stroke-linecap:butt;stroke-linejoin:miter;stroke-opacity:1"/>
<path class="bond-0" d="M 150.035,54.7391 L 146.297,62.1396" style="fill:none;fill-rule:evenodd;stroke:#FF0000;stroke-width:2.0px;stroke-linecap:butt;stroke-linejoin:miter;stroke-opacity:1"/>
<path class="bond-0" d="M 146.297,62.1396 L 142.559,69.54" style="fill:none;fill-rule:evenodd;stroke:#000000;stroke-width:2.0px;stroke-linecap:butt;stroke-linejoin:miter;stroke-opacity:1"/>
<path class="bond-0" d="M 153.714,56.5976 L 149.976,63.9981" style="fill:none;fill-rule:evenodd;stroke:#FF0000;stroke-width:2.0px;stroke-linecap:butt;stroke-linejoin:miter;stroke-opacity:1"/>
<path class="bond-0" d="M 149.976,63.9981 L 146.239,71.3985" style="fill:none;fill-rule:evenodd;stroke:#000000;stroke-width:2.0px;stroke-linecap:butt;stroke-linejoin:miter;stroke-opacity:1"/>
<path class="bond-1" d="M 144.399,70.4693 L 135.482,70.9652" style="fill:none;fill-rule:evenodd;stroke:#000000;stroke-width:2.0px;stroke-linecap:butt;stroke-linejoin:miter;stroke-opacity:1"/>
<path class="bond-1" d="M 135.482,70.9652 L 126.564,71.4611" style="fill:none;fill-rule:evenodd;stroke:#FF0000;stroke-width:2.0px;stroke-linecap:butt;stroke-linejoin:miter;stroke-opacity:1"/>
<path class="bond-2" d="M 144.399,70.4693 L 156.948,89.6534" style="fill:none;fill-rule:evenodd;stroke:#000000;stroke-width:2.0px;stroke-linecap:butt;stroke-linejoin:miter;stroke-opacity:1"/>
<path class="bond-3" d="M 156.948,89.6534 L 165.878,89.1588" style="fill:none;fill-rule:evenodd;stroke:#000000;stroke-width:2.0px;stroke-linecap:butt;stroke-linejoin:miter;stroke-opacity:1"/>
<path class="bond-3" d="M 165.878,89.1588 L 174.807,88.6642" style="fill:none;fill-rule:evenodd;stroke:#FF0000;stroke-width:2.0px;stroke-linecap:butt;stroke-linejoin:miter;stroke-opacity:1"/>
<path class="bond-4" d="M 156.948,89.6534 L 157.907,107.082" style="fill:none;fill-rule:evenodd;stroke:#000000;stroke-width:2.0px;stroke-linecap:butt;stroke-linejoin:miter;stroke-opacity:1"/>
<path class="bond-5" d="M 156.948,89.6534 L 142.15,99.3206" style="fill:none;fill-rule:evenodd;stroke:#000000;stroke-width:2.0px;stroke-linecap:butt;stroke-linejoin:miter;stroke-opacity:1"/>
<path class="bond-6" d="M 183.614,94.034 L 188.149,100.832" style="fill:none;fill-rule:evenodd;stroke:#FF0000;stroke-width:2.0px;stroke-linecap:butt;stroke-linejoin:miter;stroke-opacity:1"/>
<path class="bond-6" d="M 188.149,100.832 L 192.683,107.629" style="fill:none;fill-rule:evenodd;stroke:#000000;stroke-width:2.0px;stroke-linecap:butt;stroke-linejoin:miter;stroke-opacity:1"/>
<path class="bond-7" d="M 192.683,107.629 L 184.197,129.096" style="fill:none;fill-rule:evenodd;stroke:#000000;stroke-width:2.0px;stroke-linecap:butt;stroke-linejoin:miter;stroke-opacity:1"/>
<path class="bond-8" d="M 192.683,107.629 L 214.953,108.684" style="fill:none;fill-rule:evenodd;stroke:#000000;stroke-width:2.0px;stroke-linecap:butt;stroke-linejoin:miter;stroke-opacity:1"/>
<path class="bond-8" d="M 195.829,111.905 L 211.418,112.643" style="fill:none;fill-rule:evenodd;stroke:#000000;stroke-width:2.0px;stroke-linecap:butt;stroke-linejoin:miter;stroke-opacity:1"/>
<path class="bond-9" d="M 184.197,129.096 L 174.555,131.714" style="fill:none;fill-rule:evenodd;stroke:#000000;stroke-width:2.0px;stroke-linecap:butt;stroke-linejoin:miter;stroke-opacity:1"/>
<path class="bond-9" d="M 174.555,131.714 L 164.913,134.332" style="fill:none;fill-rule:evenodd;stroke:#7F4C19;stroke-width:2.0px;stroke-linecap:butt;stroke-linejoin:miter;stroke-opacity:1"/>
<path class="bond-10" d="M 184.197,129.096 L 202.169,143.12" style="fill:none;fill-rule:evenodd;stroke:#000000;stroke-width:2.0px;stroke-linecap:butt;stroke-linejoin:miter;stroke-opacity:1"/>
<path class="bond-10" d="M 189.429,127.949 L 202.009,137.766" style="fill:none;fill-rule:evenodd;stroke:#000000;stroke-width:2.0px;stroke-linecap:butt;stroke-linejoin:miter;stroke-opacity:1"/>
<path class="bond-11" d="M 202.169,143.12 L 200.783,165.723" style="fill:none;fill-rule:evenodd;stroke:#000000;stroke-width:2.0px;stroke-linecap:butt;stroke-linejoin:miter;stroke-opacity:1"/>
<path class="bond-12" d="M 202.169,143.12 L 209.927,138.169" style="fill:none;fill-rule:evenodd;stroke:#000000;stroke-width:2.0px;stroke-linecap:butt;stroke-linejoin:miter;stroke-opacity:1"/>
<path class="bond-12" d="M 209.927,138.169 L 217.684,133.219" style="fill:none;fill-rule:evenodd;stroke:#CCCC00;stroke-width:2.0px;stroke-linecap:butt;stroke-linejoin:miter;stroke-opacity:1"/>
<path class="bond-13" d="M 200.783,165.723 L 219.674,179.493" style="fill:none;fill-rule:evenodd;stroke:#000000;stroke-width:2.0px;stroke-linecap:butt;stroke-linejoin:miter;stroke-opacity:1"/>
<path class="bond-13" d="M 201.189,171.12 L 214.412,180.759" style="fill:none;fill-rule:evenodd;stroke:#000000;stroke-width:2.0px;stroke-linecap:butt;stroke-linejoin:miter;stroke-opacity:1"/>
<path class="bond-14" d="M 200.783,165.723 L 180.081,175.753" style="fill:none;fill-rule:evenodd;stroke:#000000;stroke-width:2.0px;stroke-linecap:butt;stroke-linejoin:miter;stroke-opacity:1"/>
<path class="bond-15" d="M 219.674,179.493 L 218.152,202.057" style="fill:none;fill-rule:evenodd;stroke:#000000;stroke-width:2.0px;stroke-linecap:butt;stroke-linejoin:miter;stroke-opacity:1"/>
<path class="bond-16" d="M 219.674,179.493 L 236.259,171.764" style="fill:none;fill-rule:evenodd;stroke:#000000;stroke-width:2.0px;stroke-linecap:butt;stroke-linejoin:miter;stroke-opacity:1"/>
<path class="bond-17" d="M 218.152,202.057 L 197.066,211.257" style="fill:none;fill-rule:evenodd;stroke:#000000;stroke-width:2.0px;stroke-linecap:butt;stroke-linejoin:miter;stroke-opacity:1"/>
<path class="bond-17" d="M 213.34,199.658 L 198.58,206.099" style="fill:none;fill-rule:evenodd;stroke:#000000;stroke-width:2.0px;stroke-linecap:butt;stroke-linejoin:miter;stroke-opacity:1"/>
<path class="bond-18" d="M 218.152,202.057 L 232.309,212.034" style="fill:none;fill-rule:evenodd;stroke:#000000;stroke-width:2.0px;stroke-linecap:butt;stroke-linejoin:miter;stroke-opacity:1"/>
<path class="bond-19" d="M 197.066,211.257 L 177.652,198.204" style="fill:none;fill-rule:evenodd;stroke:#000000;stroke-width:2.0px;stroke-linecap:butt;stroke-linejoin:miter;stroke-opacity:1"/>
<path class="bond-20" d="M 197.066,211.257 L 195.469,228.855" style="fill:none;fill-rule:evenodd;stroke:#000000;stroke-width:2.0px;stroke-linecap:butt;stroke-linejoin:miter;stroke-opacity:1"/>
<path class="bond-21" d="M 177.652,198.204 L 168.897,202.485" style="fill:none;fill-rule:evenodd;stroke:#000000;stroke-width:2.0px;stroke-linecap:butt;stroke-linejoin:miter;stroke-opacity:1"/>
<path class="bond-21" d="M 168.897,202.485 L 160.142,206.766" style="fill:none;fill-rule:evenodd;stroke:#0000FF;stroke-width:2.0px;stroke-linecap:butt;stroke-linejoin:miter;stroke-opacity:1"/>
<path class="bond-22" d="M 177.652,198.204 L 180.081,175.753" style="fill:none;fill-rule:evenodd;stroke:#000000;stroke-width:2.0px;stroke-linecap:butt;stroke-linejoin:miter;stroke-opacity:1"/>
<path class="bond-22" d="M 182.115,195.28 L 183.815,179.564" style="fill:none;fill-rule:evenodd;stroke:#000000;stroke-width:2.0px;stroke-linecap:butt;stroke-linejoin:miter;stroke-opacity:1"/>
<path class="bond-23" d="M 151.443,206.143 L 141.516,200.001" style="fill:none;fill-rule:evenodd;stroke:#0000FF;stroke-width:2.0px;stroke-linecap:butt;stroke-linejoin:miter;stroke-opacity:1"/>
<path class="bond-23" d="M 141.516,200.001 L 131.589,193.859" style="fill:none;fill-rule:evenodd;stroke:#000000;stroke-width:2.0px;stroke-linecap:butt;stroke-linejoin:miter;stroke-opacity:1"/>
<path class="bond-24" d="M 155.999,214.304 L 156.17,220.372" style="fill:none;fill-rule:evenodd;stroke:#0000FF;stroke-width:2.0px;stroke-linecap:butt;stroke-linejoin:miter;stroke-opacity:1"/>
<path class="bond-24" d="M 156.17,220.372 L 156.341,226.44" style="fill:none;fill-rule:evenodd;stroke:#000000;stroke-width:2.0px;stroke-linecap:butt;stroke-linejoin:miter;stroke-opacity:1"/>
<path class="bond-25" d="M 131.589,193.859 L 120.275,215.022" style="fill:none;fill-rule:evenodd;stroke:#000000;stroke-width:2.0px;stroke-linecap:butt;stroke-linejoin:miter;stroke-opacity:1"/>
<path class="bond-26" d="M 131.589,193.859 L 119.433,172.887" style="fill:none;fill-rule:evenodd;stroke:#000000;stroke-width:2.0px;stroke-linecap:butt;stroke-linejoin:miter;stroke-opacity:1"/>
<path class="bond-27" d="M 131.589,193.859 L 144.724,182.988" style="fill:none;fill-rule:evenodd;stroke:#000000;stroke-width:2.0px;stroke-linecap:butt;stroke-linejoin:miter;stroke-opacity:1"/>
<path class="bond-28" d="M 120.275,215.022 L 96.4384,215.02" style="fill:none;fill-rule:evenodd;stroke:#000000;stroke-width:2.0px;stroke-linecap:butt;stroke-linejoin:miter;stroke-opacity:1"/>
<path class="bond-29" d="M 120.275,215.022 L 118.088,231.877" style="fill:none;fill-rule:evenodd;stroke:#000000;stroke-width:2.0px;stroke-linecap:butt;stroke-linejoin:miter;stroke-opacity:1"/>
<path class="bond-30" d="M 120.275,215.022 L 133.561,220.162" style="fill:none;fill-rule:evenodd;stroke:#000000;stroke-width:2.0px;stroke-linecap:butt;stroke-linejoin:miter;stroke-opacity:1"/>
<path class="bond-31" d="M 96.4384,215.02 L 91.842,207.599" style="fill:none;fill-rule:evenodd;stroke:#000000;stroke-width:2.0px;stroke-linecap:butt;stroke-linejoin:miter;stroke-opacity:1"/>
<path class="bond-31" d="M 91.842,207.599 L 87.2455,200.178" style="fill:none;fill-rule:evenodd;stroke:#FF0000;stroke-width:2.0px;stroke-linecap:butt;stroke-linejoin:miter;stroke-opacity:1"/>
<path class="bond-32" d="M 96.4384,215.02 L 79.0536,221.096" style="fill:none;fill-rule:evenodd;stroke:#000000;stroke-width:2.0px;stroke-linecap:butt;stroke-linejoin:miter;stroke-opacity:1"/>
<path class="bond-33" d="M 96.4384,215.02 L 98.4064,232.304" style="fill:none;fill-rule:evenodd;stroke:#000000;stroke-width:2.0px;stroke-linecap:butt;stroke-linejoin:miter;stroke-opacity:1"/>
<path class="bond-34" d="M 86.8787,188.986 L 91.2411,181.337" style="fill:none;fill-rule:evenodd;stroke:#FF0000;stroke-width:2.0px;stroke-linecap:butt;stroke-linejoin:miter;stroke-opacity:1"/>
<path class="bond-34" d="M 91.2411,181.337 L 95.6035,173.689" style="fill:none;fill-rule:evenodd;stroke:#000000;stroke-width:2.0px;stroke-linecap:butt;stroke-linejoin:miter;stroke-opacity:1"/>
<path class="bond-35" d="M 95.6035,173.689 L 119.433,172.887" style="fill:none;fill-rule:evenodd;stroke:#000000;stroke-width:2.0px;stroke-linecap:butt;stroke-linejoin:miter;stroke-opacity:1"/>
<path class="bond-36" d="M 95.6035,173.689 L 96.6426,156.364" style="fill:none;fill-rule:evenodd;stroke:#000000;stroke-width:2.0px;stroke-linecap:butt;stroke-linejoin:miter;stroke-opacity:1"/>
<path class="bond-37" d="M 95.6035,173.689 L 77.8776,168.356" style="fill:none;fill-rule:evenodd;stroke:#000000;stroke-width:2.0px;stroke-linecap:butt;stroke-linejoin:miter;stroke-opacity:1"/>
<path class="bond-38" d="M 119.433,172.887 L 135.35,165.562" style="fill:none;fill-rule:evenodd;stroke:#000000;stroke-width:2.0px;stroke-linecap:butt;stroke-linejoin:miter;stroke-opacity:1"/>
<path class="bond-39" d="M 119.433,172.887 L 116.578,156.178" style="fill:none;fill-rule:evenodd;stroke:#000000;stroke-width:2.0px;stroke-linecap:butt;stroke-linejoin:miter;stroke-opacity:1"/>
<path class="bond-40" d="M 180.081,175.753 L 165.555,165.516" style="fill:none;fill-rule:evenodd;stroke:#000000;stroke-width:2.0px;stroke-linecap:butt;stroke-linejoin:miter;stroke-opacity:1"/>
<path class="bond-41" d="M 219.802,125.437 L 217.378,117.061" style="fill:none;fill-rule:evenodd;stroke:#CCCC00;stroke-width:2.0px;stroke-linecap:butt;stroke-linejoin:miter;stroke-opacity:1"/>
<path class="bond-41" d="M 217.378,117.061 L 214.953,108.684" style="fill:none;fill-rule:evenodd;stroke:#000000;stroke-width:2.0px;stroke-linecap:butt;stroke-linejoin:miter;stroke-opacity:1"/>
<path class="bond-42" d="M 214.953,108.684 L 229.529,90.7782" style="fill:none;fill-rule:evenodd;stroke:#000000;stroke-width:2.0px;stroke-linecap:butt;stroke-linejoin:miter;stroke-opacity:1"/>
<path class="bond-43" d="M 231.449,90.0304 L 228.392,82.1768" style="fill:none;fill-rule:evenodd;stroke:#000000;stroke-width:2.0px;stroke-linecap:butt;stroke-linejoin:miter;stroke-opacity:1"/>
<path class="bond-43" d="M 228.392,82.1768 L 225.334,74.3232" style="fill:none;fill-rule:evenodd;stroke:#FF0000;stroke-width:2.0px;stroke-linecap:butt;stroke-linejoin:miter;stroke-opacity:1"/>
<path class="bond-43" d="M 227.608,91.5261 L 224.55,83.6725" style="fill:none;fill-rule:evenodd;stroke:#000000;stroke-width:2.0px;stroke-linecap:butt;stroke-linejoin:miter;stroke-opacity:1"/>
<path class="bond-43" d="M 224.55,83.6725 L 221.492,75.8189" style="fill:none;fill-rule:evenodd;stroke:#FF0000;stroke-width:2.0px;stroke-linecap:butt;stroke-linejoin:miter;stroke-opacity:1"/>
<path class="bond-44" d="M 229.529,90.7782 L 238.322,92.1298" style="fill:none;fill-rule:evenodd;stroke:#000000;stroke-width:2.0px;stroke-linecap:butt;stroke-linejoin:miter;stroke-opacity:1"/>
<path class="bond-44" d="M 238.322,92.1298 L 247.116,93.4815" style="fill:none;fill-rule:evenodd;stroke:#FF0000;stroke-width:2.0px;stroke-linecap:butt;stroke-linejoin:miter;stroke-opacity:1"/>
<path class="atom-0" d="M 150.259 50.0527 Q 150.259 47.7167, 151.413 46.4112 Q 152.567 45.1058, 154.725 45.1058 Q 156.882 45.1058, 158.036 46.4112 Q 159.191 47.7167, 159.191 50.0527 Q 159.191 52.4162, 158.023 53.7628 Q 156.854 55.0958, 154.725 55.0958 Q 152.581 55.0958, 151.413 53.7628 Q 150.259 52.4299, 150.259 50.0527 M 154.725 53.9964 Q 156.209 53.9964, 157.006 53.0071 Q 157.816 52.004, 157.816 50.0527 Q 157.816 48.1426, 157.006 47.1808 Q 156.209 46.2051, 154.725 46.2051 Q 153.241 46.2051, 152.43 47.167 Q 151.633 48.1289, 151.633 50.0527 Q 151.633 52.0177, 152.43 53.0071 Q 153.241 53.9964, 154.725 53.9964 " fill="#FF0000"/>
<path class="atom-2" d="M 117.06 71.7688 Q 117.06 69.4328, 118.214 68.1274 Q 119.368 66.822, 121.526 66.822 Q 123.683 66.822, 124.837 68.1274 Q 125.991 69.4328, 125.991 71.7688 Q 125.991 74.1323, 124.823 75.479 Q 123.655 76.8119, 121.526 76.8119 Q 119.382 76.8119, 118.214 75.479 Q 117.06 74.1461, 117.06 71.7688 M 121.526 75.7126 Q 123.01 75.7126, 123.807 74.7232 Q 124.617 73.7201, 124.617 71.7688 Q 124.617 69.8588, 123.807 68.8969 Q 123.01 67.9213, 121.526 67.9213 Q 120.041 67.9213, 119.231 68.8832 Q 118.434 69.8451, 118.434 71.7688 Q 118.434 73.7339, 119.231 74.7232 Q 120.041 75.7126, 121.526 75.7126 " fill="#FF0000"/>
<path class="atom-2" d="M 126.445 68.4099 L 129.773 68.4099 L 129.773 69.1355 L 126.445 69.1355 L 126.445 68.4099 " fill="#FF0000"/>
<path class="atom-4" d="M 175.38 88.4126 Q 175.38 86.0766, 176.535 84.7712 Q 177.689 83.4657, 179.846 83.4657 Q 182.004 83.4657, 183.158 84.7712 Q 184.312 86.0766, 184.312 88.4126 Q 184.312 90.7761, 183.144 92.1228 Q 181.976 93.4557, 179.846 93.4557 Q 177.703 93.4557, 176.535 92.1228 Q 175.38 90.7899, 175.38 88.4126 M 179.846 92.3564 Q 181.33 92.3564, 182.127 91.367 Q 182.938 90.3639, 182.938 88.4126 Q 182.938 86.5026, 182.127 85.5407 Q 181.33 84.565, 179.846 84.565 Q 178.362 84.565, 177.552 85.5269 Q 176.755 86.4888, 176.755 88.4126 Q 176.755 90.3776, 177.552 91.367 Q 178.362 92.3564, 179.846 92.3564 " fill="#FF0000"/>
<path class="atom-7" d="M 157.242 134.789 Q 158.176 135.051, 158.643 135.628 Q 159.124 136.191, 159.124 137.029 Q 159.124 138.376, 158.258 139.145 Q 157.406 139.901, 155.785 139.901 L 152.515 139.901 L 152.515 130.172 L 155.386 130.172 Q 157.049 130.172, 157.887 130.846 Q 158.726 131.519, 158.726 132.756 Q 158.726 134.226, 157.242 134.789 M 153.82 131.272 L 153.82 134.322 L 155.386 134.322 Q 156.348 134.322, 156.843 133.937 Q 157.351 133.539, 157.351 132.756 Q 157.351 131.272, 155.386 131.272 L 153.82 131.272 M 155.785 138.802 Q 156.733 138.802, 157.242 138.348 Q 157.75 137.895, 157.75 137.029 Q 157.75 136.232, 157.187 135.834 Q 156.637 135.422, 155.579 135.422 L 153.82 135.422 L 153.82 138.802 L 155.785 138.802 " fill="#7F4C19"/>
<path class="atom-7" d="M 161.336 132.838 L 161.488 133.814 Q 162.23 132.714, 163.439 132.714 Q 163.824 132.714, 164.346 132.852 L 164.14 134.006 Q 163.549 133.869, 163.219 133.869 Q 162.642 133.869, 162.257 134.102 Q 161.886 134.322, 161.584 134.858 L 161.584 139.901 L 160.292 139.901 L 160.292 132.838 L 161.336 132.838 " fill="#7F4C19"/>
<path class="atom-14" d="M 153.695 204.003 L 156.883 209.156 Q 157.199 209.664, 157.708 210.585 Q 158.216 211.506, 158.244 211.56 L 158.244 204.003 L 159.535 204.003 L 159.535 213.732 L 158.202 213.732 L 154.781 208.098 Q 154.382 207.438, 153.956 206.682 Q 153.544 205.927, 153.42 205.693 L 153.42 213.732 L 152.156 213.732 L 152.156 204.003 L 153.695 204.003 " fill="#0000FF"/>
<path class="atom-18" d="M 79.2652 194.532 Q 79.2652 192.196, 80.4195 190.89 Q 81.5738 189.585, 83.7311 189.585 Q 85.8885 189.585, 87.0428 190.89 Q 88.1971 192.196, 88.1971 194.532 Q 88.1971 196.895, 87.0291 198.242 Q 85.861 199.575, 83.7311 199.575 Q 81.5875 199.575, 80.4195 198.242 Q 79.2652 196.909, 79.2652 194.532 M 83.7311 198.476 Q 85.2152 198.476, 86.0122 197.486 Q 86.8229 196.483, 86.8229 194.532 Q 86.8229 192.622, 86.0122 191.66 Q 85.2152 190.684, 83.7311 190.684 Q 82.2471 190.684, 81.4363 191.646 Q 80.6393 192.608, 80.6393 194.532 Q 80.6393 196.497, 81.4363 197.486 Q 82.2471 198.476, 83.7311 198.476 " fill="#FF0000"/>
<path class="atom-22" d="M 218.625 134.204 Q 218.735 134.246, 219.188 134.438 Q 219.642 134.63, 220.136 134.754 Q 220.645 134.864, 221.14 134.864 Q 222.06 134.864, 222.596 134.424 Q 223.132 133.971, 223.132 133.188 Q 223.132 132.652, 222.857 132.322 Q 222.596 131.992, 222.184 131.813 Q 221.772 131.635, 221.085 131.429 Q 220.219 131.168, 219.697 130.92 Q 219.188 130.673, 218.817 130.151 Q 218.46 129.629, 218.46 128.749 Q 218.46 127.526, 219.284 126.77 Q 220.123 126.015, 221.772 126.015 Q 222.898 126.015, 224.176 126.551 L 223.86 127.609 Q 222.692 127.128, 221.813 127.128 Q 220.865 127.128, 220.343 127.526 Q 219.82 127.911, 219.834 128.584 Q 219.834 129.106, 220.095 129.422 Q 220.37 129.739, 220.755 129.917 Q 221.153 130.096, 221.813 130.302 Q 222.692 130.577, 223.214 130.852 Q 223.737 131.126, 224.108 131.69 Q 224.492 132.239, 224.492 133.188 Q 224.492 134.534, 223.585 135.263 Q 222.692 135.977, 221.194 135.977 Q 220.329 135.977, 219.669 135.785 Q 219.023 135.606, 218.254 135.29 L 218.625 134.204 " fill="#CCCC00"/>
<path class="atom-25" d="M 216.75 69.4552 Q 216.75 67.1192, 217.904 65.8138 Q 219.058 64.5083, 221.216 64.5083 Q 223.373 64.5083, 224.527 65.8138 Q 225.682 67.1192, 225.682 69.4552 Q 225.682 71.8187, 224.514 73.1654 Q 223.346 74.4983, 221.216 74.4983 Q 219.072 74.4983, 217.904 73.1654 Q 216.75 71.8325, 216.75 69.4552 M 221.216 73.399 Q 222.7 73.399, 223.497 72.4096 Q 224.308 71.4065, 224.308 69.4552 Q 224.308 67.5452, 223.497 66.5833 Q 222.7 65.6076, 221.216 65.6076 Q 219.732 65.6076, 218.921 66.5695 Q 218.124 67.5314, 218.124 69.4552 Q 218.124 71.4202, 218.921 72.4096 Q 219.732 73.399, 221.216 73.399 " fill="#FF0000"/>
<path class="atom-26" d="M 247.688 94.2834 Q 247.688 91.9473, 248.842 90.6419 Q 249.996 89.3365, 252.154 89.3365 Q 254.311 89.3365, 255.465 90.6419 Q 256.62 91.9473, 256.62 94.2834 Q 256.62 96.6469, 255.452 97.9935 Q 254.284 99.3264, 252.154 99.3264 Q 250.01 99.3264, 248.842 97.9935 Q 247.688 96.6606, 247.688 94.2834 M 252.154 98.2271 Q 253.638 98.2271, 254.435 97.2377 Q 255.246 96.2346, 255.246 94.2834 Q 255.246 92.3733, 254.435 91.4114 Q 253.638 90.4358, 252.154 90.4358 Q 250.67 90.4358, 249.859 91.3977 Q 249.062 92.3596, 249.062 94.2834 Q 249.062 96.2484, 249.859 97.2377 Q 250.67 98.2271, 252.154 98.2271 " fill="#FF0000"/>
<path class="atom-26" d="M 257.073 90.9244 L 260.402 90.9244 L 260.402 91.65 L 257.073 91.65 L 257.073 90.9244 " fill="#FF0000"/>
<path class="atom-27" d="M 154.4 107.654 L 155.719 107.654 L 155.719 111.79 L 160.694 111.79 L 160.694 107.654 L 162.013 107.654 L 162.013 117.383 L 160.694 117.383 L 160.694 112.89 L 155.719 112.89 L 155.719 117.383 L 154.4 117.383 L 154.4 107.654 " fill="#000000"/>
<path class="atom-28" d="M 133.965 97.3168 L 135.284 97.3168 L 135.284 101.453 L 140.258 101.453 L 140.258 97.3168 L 141.577 97.3168 L 141.577 107.046 L 140.258 107.046 L 140.258 102.552 L 135.284 102.552 L 135.284 107.046 L 133.965 107.046 L 133.965 97.3168 " fill="#000000"/>
<path class="atom-29" d="M 236.837 164.856 L 238.156 164.856 L 238.156 168.992 L 243.131 168.992 L 243.131 164.856 L 244.45 164.856 L 244.45 174.585 L 243.131 174.585 L 243.131 170.092 L 238.156 170.092 L 238.156 174.585 L 236.837 174.585 L 236.837 164.856 " fill="#000000"/>
<path class="atom-30" d="M 232.876 210.251 L 234.195 210.251 L 234.195 214.387 L 239.17 214.387 L 239.17 210.251 L 240.489 210.251 L 240.489 219.98 L 239.17 219.98 L 239.17 215.487 L 234.195 215.487 L 234.195 219.98 L 232.876 219.98 L 232.876 210.251 " fill="#000000"/>
<path class="atom-31" d="M 191.169 229.433 L 192.488 229.433 L 192.488 233.569 L 197.463 233.569 L 197.463 229.433 L 198.782 229.433 L 198.782 239.162 L 197.463 239.162 L 197.463 234.669 L 192.488 234.669 L 192.488 239.162 L 191.169 239.162 L 191.169 229.433 " fill="#000000"/>
<path class="atom-32" d="M 152.684 226.876 L 154.003 226.876 L 154.003 231.012 L 158.978 231.012 L 158.978 226.876 L 160.297 226.876 L 160.297 236.605 L 158.978 236.605 L 158.978 232.112 L 154.003 232.112 L 154.003 236.605 L 152.684 236.605 L 152.684 226.876 " fill="#000000"/>
<path class="atom-33" d="M 145.292 174.503 L 146.611 174.503 L 146.611 178.639 L 151.585 178.639 L 151.585 174.503 L 152.904 174.503 L 152.904 184.232 L 151.585 184.232 L 151.585 179.738 L 146.611 179.738 L 146.611 184.232 L 145.292 184.232 L 145.292 174.503 " fill="#000000"/>
<path class="atom-34" d="M 113.578 232.439 L 114.897 232.439 L 114.897 236.575 L 119.871 236.575 L 119.871 232.439 L 121.191 232.439 L 121.191 242.167 L 119.871 242.167 L 119.871 237.674 L 114.897 237.674 L 114.897 242.167 L 113.578 242.167 L 113.578 232.439 " fill="#000000"/>
<path class="atom-35" d="M 134.032 216.953 L 135.351 216.953 L 135.351 221.089 L 140.325 221.089 L 140.325 216.953 L 141.645 216.953 L 141.645 226.681 L 140.325 226.681 L 140.325 222.188 L 135.351 222.188 L 135.351 226.681 L 134.032 226.681 L 134.032 216.953 " fill="#000000"/>
<path class="atom-36" d="M 70.8644 217.764 L 72.1836 217.764 L 72.1836 221.9 L 77.158 221.9 L 77.158 217.764 L 78.4771 217.764 L 78.4771 227.493 L 77.158 227.493 L 77.158 222.999 L 72.1836 222.999 L 72.1836 227.493 L 70.8644 227.493 L 70.8644 217.764 " fill="#000000"/>
<path class="atom-37" d="M 95.219 232.876 L 96.5382 232.876 L 96.5382 237.012 L 101.513 237.012 L 101.513 232.876 L 102.832 232.876 L 102.832 242.605 L 101.513 242.605 L 101.513 238.111 L 96.5382 238.111 L 96.5382 242.605 L 95.219 242.605 L 95.219 232.876 " fill="#000000"/>
<path class="atom-38" d="M 93.1622 146.065 L 94.4813 146.065 L 94.4813 150.201 L 99.4557 150.201 L 99.4557 146.065 L 100.775 146.065 L 100.775 155.794 L 99.4557 155.794 L 99.4557 151.301 L 94.4813 151.301 L 94.4813 155.794 L 93.1622 155.794 L 93.1622 146.065 " fill="#000000"/>
<path class="atom-39" d="M 69.6877 162.173 L 71.0069 162.173 L 71.0069 166.309 L 75.9813 166.309 L 75.9813 162.173 L 77.3004 162.173 L 77.3004 171.902 L 75.9813 171.902 L 75.9813 167.409 L 71.0069 167.409 L 71.0069 171.902 L 69.6877 171.902 L 69.6877 162.173 " fill="#000000"/>
<path class="atom-40" d="M 135.908 158.689 L 137.228 158.689 L 137.228 162.825 L 142.202 162.825 L 142.202 158.689 L 143.521 158.689 L 143.521 168.417 L 142.202 168.417 L 142.202 163.924 L 137.228 163.924 L 137.228 168.417 L 135.908 168.417 L 135.908 158.689 " fill="#000000"/>
<path class="atom-41" d="M 111.845 145.888 L 113.164 145.888 L 113.164 150.024 L 118.139 150.024 L 118.139 145.888 L 119.458 145.888 L 119.458 155.617 L 118.139 155.617 L 118.139 151.123 L 113.164 151.123 L 113.164 155.617 L 111.845 155.617 L 111.845 145.888 " fill="#000000"/>
<path class="atom-42" d="M 157.364 157.562 L 158.683 157.562 L 158.683 161.698 L 163.657 161.698 L 163.657 157.562 L 164.977 157.562 L 164.977 167.29 L 163.657 167.29 L 163.657 162.797 L 158.683 162.797 L 158.683 167.29 L 157.364 167.29 L 157.364 157.562 " fill="#000000"/>
<ellipse cx="442.541" cy="42.1731" rx="7.55772" ry="7.55772" style="fill:#CFAA27;fill-rule:evenodd;stroke:#CFAA27;stroke-width:1px;stroke-linecap:butt;stroke-linejoin:miter;stroke-opacity:1"/>
<ellipse cx="432.286" cy="62.567" rx="7.55772" ry="7.55772" style="fill:#B8A444;fill-rule:evenodd;stroke:#B8A444;stroke-width:1px;stroke-linecap:butt;stroke-linejoin:miter;stroke-opacity:1"/>
<ellipse cx="411.319" cy="64.0067" rx="8.98997" ry="7.55772" style="fill:#A19F62;fill-rule:evenodd;stroke:#A19F62;stroke-width:1px;stroke-linecap:butt;stroke-linejoin:miter;stroke-opacity:1"/>
<ellipse cx="444.875" cy="81.6632" rx="7.55772" ry="7.55772" style="fill:#7C947A;fill-rule:evenodd;stroke:#7C947A;stroke-width:1px;stroke-linecap:butt;stroke-linejoin:miter;stroke-opacity:1"/>
<ellipse cx="467.726" cy="80.4014" rx="7.55772" ry="7.55772" style="fill:#588A93;fill-rule:evenodd;stroke:#588A93;stroke-width:1px;stroke-linecap:butt;stroke-linejoin:miter;stroke-opacity:1"/>
<ellipse cx="479.941" cy="99.4131" rx="7.55772" ry="7.55772" style="fill:#3D79AB;fill-rule:evenodd;stroke:#3D79AB;stroke-width:1px;stroke-linecap:butt;stroke-linejoin:miter;stroke-opacity:1"/>
<ellipse cx="471.998" cy="120.894" rx="7.55772" ry="7.55772" style="fill:#2269C4;fill-rule:evenodd;stroke:#2269C4;stroke-width:1px;stroke-linecap:butt;stroke-linejoin:miter;stroke-opacity:1"/>
<ellipse cx="445.757" cy="126.85" rx="8.36597" ry="7.55772" style="fill:#3053DA;fill-rule:evenodd;stroke:#3053DA;stroke-width:1px;stroke-linecap:butt;stroke-linejoin:miter;stroke-opacity:1"/>
<ellipse cx="489.651" cy="135.686" rx="7.55772" ry="7.55772" style="fill:#3E3EF0;fill-rule:evenodd;stroke:#3E3EF0;stroke-width:1px;stroke-linecap:butt;stroke-linejoin:miter;stroke-opacity:1"/>
<ellipse cx="488.557" cy="158.592" rx="7.55772" ry="7.55772" style="fill:#5446F4;fill-rule:evenodd;stroke:#5446F4;stroke-width:1px;stroke-linecap:butt;stroke-linejoin:miter;stroke-opacity:1"/>
<ellipse cx="508.001" cy="170.172" rx="7.55772" ry="7.55772" style="fill:#6B4EF9;fill-rule:evenodd;stroke:#6B4EF9;stroke-width:1px;stroke-linecap:butt;stroke-linejoin:miter;stroke-opacity:1"/>
<ellipse cx="507.074" cy="193.131" rx="7.55772" ry="7.55772" style="fill:#805CF9;fill-rule:evenodd;stroke:#805CF9;stroke-width:1px;stroke-linecap:butt;stroke-linejoin:miter;stroke-opacity:1"/>
<ellipse cx="487.525" cy="204.185" rx="7.55772" ry="7.55772" style="fill:#CFAA27;fill-rule:evenodd;stroke:#CFAA27;stroke-width:1px;stroke-linecap:butt;stroke-linejoin:miter;stroke-opacity:1"/>
<ellipse cx="468.435" cy="192.04" rx="7.55772" ry="7.55772" style="fill:#B8A444;fill-rule:evenodd;stroke:#B8A444;stroke-width:1px;stroke-linecap:butt;stroke-linejoin:miter;stroke-opacity:1"/>
<ellipse cx="450.072" cy="203.486" rx="7.55772" ry="7.55772" style="fill:#A19F62;fill-rule:evenodd;stroke:#A19F62;stroke-width:1px;stroke-linecap:butt;stroke-linejoin:miter;stroke-opacity:1"/>
<ellipse cx="426.772" cy="190.535" rx="7.55772" ry="7.55772" style="fill:#7C947A;fill-rule:evenodd;stroke:#7C947A;stroke-width:1px;stroke-linecap:butt;stroke-linejoin:miter;stroke-opacity:1"/>
<ellipse cx="416.913" cy="209.236" rx="7.55772" ry="7.55772" style="fill:#588A93;fill-rule:evenodd;stroke:#588A93;stroke-width:1px;stroke-linecap:butt;stroke-linejoin:miter;stroke-opacity:1"/>
<ellipse cx="396.043" cy="211.102" rx="7.55772" ry="7.55772" style="fill:#3D79AB;fill-rule:evenodd;stroke:#3D79AB;stroke-width:1px;stroke-linecap:butt;stroke-linejoin:miter;stroke-opacity:1"/>
<ellipse cx="384.671" cy="192.974" rx="11.4511" ry="11.4511" style="fill:#CF244B;fill-rule:evenodd;stroke:#CF244B;stroke-width:1px;stroke-linecap:butt;stroke-linejoin:miter;stroke-opacity:1"/>
<ellipse cx="393.542" cy="173.658" rx="7.55772" ry="7.55772" style="fill:#3053DA;fill-rule:evenodd;stroke:#3053DA;stroke-width:1px;stroke-linecap:butt;stroke-linejoin:miter;stroke-opacity:1"/>
<ellipse cx="414.421" cy="172.897" rx="7.55772" ry="7.55772" style="fill:#3E3EF0;fill-rule:evenodd;stroke:#3E3EF0;stroke-width:1px;stroke-linecap:butt;stroke-linejoin:miter;stroke-opacity:1"/>
<ellipse cx="468.668" cy="169.031" rx="7.55772" ry="7.55772" style="fill:#5446F4;fill-rule:evenodd;stroke:#5446F4;stroke-width:1px;stroke-linecap:butt;stroke-linejoin:miter;stroke-opacity:1"/>
<ellipse cx="508.822" cy="123.034" rx="7.55772" ry="7.55772" style="fill:#6B4EF9;fill-rule:evenodd;stroke:#6B4EF9;stroke-width:1px;stroke-linecap:butt;stroke-linejoin:miter;stroke-opacity:1"/>
<ellipse cx="503.268" cy="100.688" rx="7.55772" ry="7.55772" style="fill:#805CF9;fill-rule:evenodd;stroke:#805CF9;stroke-width:1px;stroke-linecap:butt;stroke-linejoin:miter;stroke-opacity:1"/>
<ellipse cx="517.475" cy="82.9576" rx="7.55772" ry="7.55772" style="fill:#CFAA27;fill-rule:evenodd;stroke:#CFAA27;stroke-width:1px;stroke-linecap:butt;stroke-linejoin:miter;stroke-opacity:1"/>
<ellipse cx="509.318" cy="61.644" rx="7.55772" ry="7.55772" style="fill:#B8A444;fill-rule:evenodd;stroke:#B8A444;stroke-width:1px;stroke-linecap:butt;stroke-linejoin:miter;stroke-opacity:1"/>
<ellipse cx="541.99" cy="86.6639" rx="8.98997" ry="7.55772" style="fill:#A19F62;fill-rule:evenodd;stroke:#A19F62;stroke-width:1px;stroke-linecap:butt;stroke-linejoin:miter;stroke-opacity:1"/>
<ellipse cx="446.228" cy="104.532" rx="7.55772" ry="7.55772" style="fill:#7C947A;fill-rule:evenodd;stroke:#7C947A;stroke-width:1px;stroke-linecap:butt;stroke-linejoin:miter;stroke-opacity:1"/>
<ellipse cx="425.756" cy="94.2743" rx="7.55772" ry="7.55772" style="fill:#588A93;fill-rule:evenodd;stroke:#588A93;stroke-width:1px;stroke-linecap:butt;stroke-linejoin:miter;stroke-opacity:1"/>
<ellipse cx="527.933" cy="159.372" rx="7.55772" ry="7.55772" style="fill:#3D79AB;fill-rule:evenodd;stroke:#3D79AB;stroke-width:1px;stroke-linecap:butt;stroke-linejoin:miter;stroke-opacity:1"/>
<ellipse cx="526.816" cy="205.193" rx="7.55772" ry="7.55772" style="fill:#2269C4;fill-rule:evenodd;stroke:#2269C4;stroke-width:1px;stroke-linecap:butt;stroke-linejoin:miter;stroke-opacity:1"/>
<ellipse cx="486.935" cy="226.847" rx="7.55772" ry="7.55772" style="fill:#3053DA;fill-rule:evenodd;stroke:#3053DA;stroke-width:1px;stroke-linecap:butt;stroke-linejoin:miter;stroke-opacity:1"/>
<ellipse cx="443.874" cy="176.098" rx="7.55772" ry="7.55772" style="fill:#3E3EF0;fill-rule:evenodd;stroke:#3E3EF0;stroke-width:1px;stroke-linecap:butt;stroke-linejoin:miter;stroke-opacity:1"/>
<ellipse cx="416.375" cy="226.332" rx="7.55772" ry="7.55772" style="fill:#5446F4;fill-rule:evenodd;stroke:#5446F4;stroke-width:1px;stroke-linecap:butt;stroke-linejoin:miter;stroke-opacity:1"/>
<ellipse cx="433.349" cy="215.808" rx="7.55772" ry="7.55772" style="fill:#6B4EF9;fill-rule:evenodd;stroke:#6B4EF9;stroke-width:1px;stroke-linecap:butt;stroke-linejoin:miter;stroke-opacity:1"/>
<ellipse cx="432.556" cy="161.353" rx="7.55772" ry="7.55772" style="fill:#805CF9;fill-rule:evenodd;stroke:#805CF9;stroke-width:1px;stroke-linecap:butt;stroke-linejoin:miter;stroke-opacity:1"/>
<ellipse cx="410.702" cy="157.864" rx="7.55772" ry="7.55772" style="fill:#CFAA27;fill-rule:evenodd;stroke:#CFAA27;stroke-width:1px;stroke-linecap:butt;stroke-linejoin:miter;stroke-opacity:1"/>
<ellipse cx="450.46" cy="157.828" rx="7.55772" ry="7.55772" style="fill:#B8A444;fill-rule:evenodd;stroke:#B8A444;stroke-width:1px;stroke-linecap:butt;stroke-linejoin:miter;stroke-opacity:1"/>
<path class="bond-0" d="M 437.871,46.8172 L 434.157,54.2304" style="fill:none;fill-rule:evenodd;stroke:#FF0000;stroke-width:2.0px;stroke-linecap:butt;stroke-linejoin:miter;stroke-opacity:1"/>
<path class="bond-0" d="M 434.157,54.2304 L 430.443,61.6437" style="fill:none;fill-rule:evenodd;stroke:#000000;stroke-width:2.0px;stroke-linecap:butt;stroke-linejoin:miter;stroke-opacity:1"/>
<path class="bond-0" d="M 441.557,48.6637 L 437.843,56.077" style="fill:none;fill-rule:evenodd;stroke:#FF0000;stroke-width:2.0px;stroke-linecap:butt;stroke-linejoin:miter;stroke-opacity:1"/>
<path class="bond-0" d="M 437.843,56.077 L 434.129,63.4902" style="fill:none;fill-rule:evenodd;stroke:#000000;stroke-width:2.0px;stroke-linecap:butt;stroke-linejoin:miter;stroke-opacity:1"/>
<path class="bond-1" d="M 432.286,62.567 L 423.376,63.0987" style="fill:none;fill-rule:evenodd;stroke:#000000;stroke-width:2.0px;stroke-linecap:butt;stroke-linejoin:miter;stroke-opacity:1"/>
<path class="bond-1" d="M 423.376,63.0987 L 414.466,63.6304" style="fill:none;fill-rule:evenodd;stroke:#FF0000;stroke-width:2.0px;stroke-linecap:butt;stroke-linejoin:miter;stroke-opacity:1"/>
<path class="bond-2" d="M 432.286,62.567 L 444.875,81.6632" style="fill:none;fill-rule:evenodd;stroke:#000000;stroke-width:2.0px;stroke-linecap:butt;stroke-linejoin:miter;stroke-opacity:1"/>
<path class="bond-3" d="M 444.875,81.6632 L 453.781,81.142" style="fill:none;fill-rule:evenodd;stroke:#000000;stroke-width:2.0px;stroke-linecap:butt;stroke-linejoin:miter;stroke-opacity:1"/>
<path class="bond-3" d="M 453.781,81.142 L 462.688,80.6207" style="fill:none;fill-rule:evenodd;stroke:#FF0000;stroke-width:2.0px;stroke-linecap:butt;stroke-linejoin:miter;stroke-opacity:1"/>
<path class="bond-4" d="M 444.875,81.6632 L 445.906,99.0948" style="fill:none;fill-rule:evenodd;stroke:#000000;stroke-width:2.0px;stroke-linecap:butt;stroke-linejoin:miter;stroke-opacity:1"/>
<path class="bond-5" d="M 444.875,81.6632 L 430.135,91.3859" style="fill:none;fill-rule:evenodd;stroke:#000000;stroke-width:2.0px;stroke-linecap:butt;stroke-linejoin:miter;stroke-opacity:1"/>
<path class="bond-6" d="M 471.333,85.9629 L 475.637,92.688" style="fill:none;fill-rule:evenodd;stroke:#FF0000;stroke-width:2.0px;stroke-linecap:butt;stroke-linejoin:miter;stroke-opacity:1"/>
<path class="bond-6" d="M 475.637,92.688 L 479.941,99.4131" style="fill:none;fill-rule:evenodd;stroke:#000000;stroke-width:2.0px;stroke-linecap:butt;stroke-linejoin:miter;stroke-opacity:1"/>
<path class="bond-7" d="M 479.941,99.4131 L 471.998,120.894" style="fill:none;fill-rule:evenodd;stroke:#000000;stroke-width:2.0px;stroke-linecap:butt;stroke-linejoin:miter;stroke-opacity:1"/>
<path class="bond-8" d="M 479.941,99.4131 L 503.268,100.688" style="fill:none;fill-rule:evenodd;stroke:#000000;stroke-width:2.0px;stroke-linecap:butt;stroke-linejoin:miter;stroke-opacity:1"/>
<path class="bond-8" d="M 483.215,103.721 L 499.544,104.613" style="fill:none;fill-rule:evenodd;stroke:#000000;stroke-width:2.0px;stroke-linecap:butt;stroke-linejoin:miter;stroke-opacity:1"/>
<path class="bond-9" d="M 471.998,120.894 L 462.124,123.525" style="fill:none;fill-rule:evenodd;stroke:#000000;stroke-width:2.0px;stroke-linecap:butt;stroke-linejoin:miter;stroke-opacity:1"/>
<path class="bond-9" d="M 462.124,123.525 L 452.251,126.156" style="fill:none;fill-rule:evenodd;stroke:#7F4C19;stroke-width:2.0px;stroke-linecap:butt;stroke-linejoin:miter;stroke-opacity:1"/>
<path class="bond-10" d="M 471.998,120.894 L 489.651,135.686" style="fill:none;fill-rule:evenodd;stroke:#000000;stroke-width:2.0px;stroke-linecap:butt;stroke-linejoin:miter;stroke-opacity:1"/>
<path class="bond-10" d="M 477.294,119.953 L 489.651,130.308" style="fill:none;fill-rule:evenodd;stroke:#000000;stroke-width:2.0px;stroke-linecap:butt;stroke-linejoin:miter;stroke-opacity:1"/>
<path class="bond-11" d="M 489.651,135.686 L 488.557,158.592" style="fill:none;fill-rule:evenodd;stroke:#000000;stroke-width:2.0px;stroke-linecap:butt;stroke-linejoin:miter;stroke-opacity:1"/>
<path class="bond-12" d="M 489.651,135.686 L 497.389,130.527" style="fill:none;fill-rule:evenodd;stroke:#000000;stroke-width:2.0px;stroke-linecap:butt;stroke-linejoin:miter;stroke-opacity:1"/>
<path class="bond-12" d="M 497.389,130.527 L 505.127,125.367" style="fill:none;fill-rule:evenodd;stroke:#CCCC00;stroke-width:2.0px;stroke-linecap:butt;stroke-linejoin:miter;stroke-opacity:1"/>
<path class="bond-13" d="M 488.557,158.592 L 508.001,170.172" style="fill:none;fill-rule:evenodd;stroke:#000000;stroke-width:2.0px;stroke-linecap:butt;stroke-linejoin:miter;stroke-opacity:1"/>
<path class="bond-13" d="M 489.364,163.871 L 502.975,171.977" style="fill:none;fill-rule:evenodd;stroke:#000000;stroke-width:2.0px;stroke-linecap:butt;stroke-linejoin:miter;stroke-opacity:1"/>
<path class="bond-14" d="M 488.557,158.592 L 468.668,169.031" style="fill:none;fill-rule:evenodd;stroke:#000000;stroke-width:2.0px;stroke-linecap:butt;stroke-linejoin:miter;stroke-opacity:1"/>
<path class="bond-15" d="M 508.001,170.172 L 507.074,193.131" style="fill:none;fill-rule:evenodd;stroke:#000000;stroke-width:2.0px;stroke-linecap:butt;stroke-linejoin:miter;stroke-opacity:1"/>
<path class="bond-16" d="M 508.001,170.172 L 523.559,161.742" style="fill:none;fill-rule:evenodd;stroke:#000000;stroke-width:2.0px;stroke-linecap:butt;stroke-linejoin:miter;stroke-opacity:1"/>
<path class="bond-17" d="M 507.074,193.131 L 487.525,204.185" style="fill:none;fill-rule:evenodd;stroke:#000000;stroke-width:2.0px;stroke-linecap:butt;stroke-linejoin:miter;stroke-opacity:1"/>
<path class="bond-17" d="M 502.113,191.201 L 488.429,198.939" style="fill:none;fill-rule:evenodd;stroke:#000000;stroke-width:2.0px;stroke-linecap:butt;stroke-linejoin:miter;stroke-opacity:1"/>
<path class="bond-18" d="M 507.074,193.131 L 522.432,202.514" style="fill:none;fill-rule:evenodd;stroke:#000000;stroke-width:2.0px;stroke-linecap:butt;stroke-linejoin:miter;stroke-opacity:1"/>
<path class="bond-19" d="M 487.525,204.185 L 468.435,192.04" style="fill:none;fill-rule:evenodd;stroke:#000000;stroke-width:2.0px;stroke-linecap:butt;stroke-linejoin:miter;stroke-opacity:1"/>
<path class="bond-20" d="M 487.525,204.185 L 487.077,221.416" style="fill:none;fill-rule:evenodd;stroke:#000000;stroke-width:2.0px;stroke-linecap:butt;stroke-linejoin:miter;stroke-opacity:1"/>
<path class="bond-21" d="M 468.435,192.04 L 461.369,196.445" style="fill:none;fill-rule:evenodd;stroke:#000000;stroke-width:2.0px;stroke-linecap:butt;stroke-linejoin:miter;stroke-opacity:1"/>
<path class="bond-21" d="M 461.369,196.445 L 454.303,200.849" style="fill:none;fill-rule:evenodd;stroke:#0000FF;stroke-width:2.0px;stroke-linecap:butt;stroke-linejoin:miter;stroke-opacity:1"/>
<path class="bond-22" d="M 468.435,192.04 L 468.668,169.031" style="fill:none;fill-rule:evenodd;stroke:#000000;stroke-width:2.0px;stroke-linecap:butt;stroke-linejoin:miter;stroke-opacity:1"/>
<path class="bond-22" d="M 472.592,188.631 L 472.755,172.525" style="fill:none;fill-rule:evenodd;stroke:#000000;stroke-width:2.0px;stroke-linecap:butt;stroke-linejoin:miter;stroke-opacity:1"/>
<path class="bond-23" d="M 445.716,201.065 L 436.244,195.8" style="fill:none;fill-rule:evenodd;stroke:#0000FF;stroke-width:2.0px;stroke-linecap:butt;stroke-linejoin:miter;stroke-opacity:1"/>
<path class="bond-23" d="M 436.244,195.8 L 426.772,190.535" style="fill:none;fill-rule:evenodd;stroke:#000000;stroke-width:2.0px;stroke-linecap:butt;stroke-linejoin:miter;stroke-opacity:1"/>
<path class="bond-24" d="M 450.879,208.922 L 451.762,214.878" style="fill:none;fill-rule:evenodd;stroke:#0000FF;stroke-width:2.0px;stroke-linecap:butt;stroke-linejoin:miter;stroke-opacity:1"/>
<path class="bond-24" d="M 451.762,214.878 L 452.645,220.833" style="fill:none;fill-rule:evenodd;stroke:#000000;stroke-width:2.0px;stroke-linecap:butt;stroke-linejoin:miter;stroke-opacity:1"/>
<path class="bond-25" d="M 426.772,190.535 L 416.913,209.236" style="fill:none;fill-rule:evenodd;stroke:#000000;stroke-width:2.0px;stroke-linecap:butt;stroke-linejoin:miter;stroke-opacity:1"/>
<path class="bond-26" d="M 426.772,190.535 L 414.421,172.897" style="fill:none;fill-rule:evenodd;stroke:#000000;stroke-width:2.0px;stroke-linecap:butt;stroke-linejoin:miter;stroke-opacity:1"/>
<path class="bond-27" d="M 426.772,190.535 L 439.508,179.783" style="fill:none;fill-rule:evenodd;stroke:#000000;stroke-width:2.0px;stroke-linecap:butt;stroke-linejoin:miter;stroke-opacity:1"/>
<path class="bond-28" d="M 416.913,209.236 L 396.043,211.102" style="fill:none;fill-rule:evenodd;stroke:#000000;stroke-width:2.0px;stroke-linecap:butt;stroke-linejoin:miter;stroke-opacity:1"/>
<path class="bond-29" d="M 416.913,209.236 L 416.542,221.039" style="fill:none;fill-rule:evenodd;stroke:#000000;stroke-width:2.0px;stroke-linecap:butt;stroke-linejoin:miter;stroke-opacity:1"/>
<path class="bond-30" d="M 416.913,209.236 L 429.1,214.109" style="fill:none;fill-rule:evenodd;stroke:#000000;stroke-width:2.0px;stroke-linecap:butt;stroke-linejoin:miter;stroke-opacity:1"/>
<path class="bond-31" d="M 396.043,211.102 L 384.671,192.974" style="fill:none;fill-rule:evenodd;stroke:#000000;stroke-width:2.0px;stroke-linecap:butt;stroke-linejoin:miter;stroke-opacity:1"/>
<path class="bond-32" d="M 396.043,211.102 L 366.297,225.659" style="fill:none;fill-rule:evenodd;stroke:#000000;stroke-width:2.0px;stroke-linecap:butt;stroke-linejoin:miter;stroke-opacity:1"/>
<path class="bond-33" d="M 396.043,211.102 L 401.53,239.599" style="fill:none;fill-rule:evenodd;stroke:#000000;stroke-width:2.0px;stroke-linecap:butt;stroke-linejoin:miter;stroke-opacity:1"/>
<path class="bond-34" d="M 384.671,192.974 L 393.542,173.658" style="fill:none;fill-rule:evenodd;stroke:#000000;stroke-width:2.0px;stroke-linecap:butt;stroke-linejoin:miter;stroke-opacity:1"/>
<path class="bond-35" d="M 384.671,192.974 L 373.426,186.932" style="fill:none;fill-rule:evenodd;stroke:#000000;stroke-width:2.0px;stroke-linecap:butt;stroke-linejoin:miter;stroke-opacity:1"/>
<path class="bond-36" d="M 384.671,192.974 L 377.789,199.763" style="fill:none;fill-rule:evenodd;stroke:#000000;stroke-width:2.0px;stroke-linecap:butt;stroke-linejoin:miter;stroke-opacity:1"/>
<path class="bond-37" d="M 393.542,173.658 L 414.421,172.897" style="fill:none;fill-rule:evenodd;stroke:#000000;stroke-width:2.0px;stroke-linecap:butt;stroke-linejoin:miter;stroke-opacity:1"/>
<path class="bond-38" d="M 393.542,173.658 L 395.45,140.704" style="fill:none;fill-rule:evenodd;stroke:#000000;stroke-width:2.0px;stroke-linecap:butt;stroke-linejoin:miter;stroke-opacity:1"/>
<path class="bond-39" d="M 393.542,173.658 L 366.078,164.782" style="fill:none;fill-rule:evenodd;stroke:#000000;stroke-width:2.0px;stroke-linecap:butt;stroke-linejoin:miter;stroke-opacity:1"/>
<path class="bond-40" d="M 414.421,172.897 L 428.212,164.118" style="fill:none;fill-rule:evenodd;stroke:#000000;stroke-width:2.0px;stroke-linecap:butt;stroke-linejoin:miter;stroke-opacity:1"/>
<path class="bond-41" d="M 414.421,172.897 L 412.001,163.116" style="fill:none;fill-rule:evenodd;stroke:#000000;stroke-width:2.0px;stroke-linecap:butt;stroke-linejoin:miter;stroke-opacity:1"/>
<path class="bond-42" d="M 468.668,169.031 L 454.801,160.499" style="fill:none;fill-rule:evenodd;stroke:#000000;stroke-width:2.0px;stroke-linecap:butt;stroke-linejoin:miter;stroke-opacity:1"/>
<path class="bond-43" d="M 507.466,117.48 L 505.367,109.084" style="fill:none;fill-rule:evenodd;stroke:#CCCC00;stroke-width:2.0px;stroke-linecap:butt;stroke-linejoin:miter;stroke-opacity:1"/>
<path class="bond-43" d="M 505.367,109.084 L 503.268,100.688" style="fill:none;fill-rule:evenodd;stroke:#000000;stroke-width:2.0px;stroke-linecap:butt;stroke-linejoin:miter;stroke-opacity:1"/>
<path class="bond-44" d="M 503.268,100.688 L 517.475,82.9576" style="fill:none;fill-rule:evenodd;stroke:#000000;stroke-width:2.0px;stroke-linecap:butt;stroke-linejoin:miter;stroke-opacity:1"/>
<path class="bond-45" d="M 519.401,82.2231 L 516.398,74.35" style="fill:none;fill-rule:evenodd;stroke:#000000;stroke-width:2.0px;stroke-linecap:butt;stroke-linejoin:miter;stroke-opacity:1"/>
<path class="bond-45" d="M 516.398,74.35 L 513.396,66.4768" style="fill:none;fill-rule:evenodd;stroke:#FF0000;stroke-width:2.0px;stroke-linecap:butt;stroke-linejoin:miter;stroke-opacity:1"/>
<path class="bond-45" d="M 515.549,83.692 L 512.547,75.8188" style="fill:none;fill-rule:evenodd;stroke:#000000;stroke-width:2.0px;stroke-linecap:butt;stroke-linejoin:miter;stroke-opacity:1"/>
<path class="bond-45" d="M 512.547,75.8188 L 509.544,67.9457" style="fill:none;fill-rule:evenodd;stroke:#FF0000;stroke-width:2.0px;stroke-linecap:butt;stroke-linejoin:miter;stroke-opacity:1"/>
<path class="bond-46" d="M 517.475,82.9576 L 526.268,84.3686" style="fill:none;fill-rule:evenodd;stroke:#000000;stroke-width:2.0px;stroke-linecap:butt;stroke-linejoin:miter;stroke-opacity:1"/>
<path class="bond-46" d="M 526.268,84.3686 L 535.061,85.7797" style="fill:none;fill-rule:evenodd;stroke:#FF0000;stroke-width:2.0px;stroke-linecap:butt;stroke-linejoin:miter;stroke-opacity:1"/>
<path class="bond-47" d="M 366.297,225.659 L 356.833,212.512" style="fill:none;fill-rule:evenodd;stroke:#000000;stroke-width:2.0px;stroke-linecap:butt;stroke-linejoin:miter;stroke-opacity:1"/>
<path class="bond-48" d="M 366.297,225.659 L 347.845,225.577" style="fill:none;fill-rule:evenodd;stroke:#000000;stroke-width:2.0px;stroke-linecap:butt;stroke-linejoin:miter;stroke-opacity:1"/>
<path class="bond-49" d="M 366.297,225.659 L 364.444,242.936" style="fill:none;fill-rule:evenodd;stroke:#000000;stroke-width:2.0px;stroke-linecap:butt;stroke-linejoin:miter;stroke-opacity:1"/>
<path class="bond-50" d="M 401.53,239.599 L 387.234,242.434" style="fill:none;fill-rule:evenodd;stroke:#000000;stroke-width:2.0px;stroke-linecap:butt;stroke-linejoin:miter;stroke-opacity:1"/>
<path class="bond-51" d="M 401.53,239.599 L 394.882,255.087" style="fill:none;fill-rule:evenodd;stroke:#000000;stroke-width:2.0px;stroke-linecap:butt;stroke-linejoin:miter;stroke-opacity:1"/>
<path class="bond-52" d="M 401.53,239.599 L 417.362,248.081" style="fill:none;fill-rule:evenodd;stroke:#000000;stroke-width:2.0px;stroke-linecap:butt;stroke-linejoin:miter;stroke-opacity:1"/>
<path class="bond-53" d="M 395.45,140.704 L 413.749,138.737" style="fill:none;fill-rule:evenodd;stroke:#000000;stroke-width:2.0px;stroke-linecap:butt;stroke-linejoin:miter;stroke-opacity:1"/>
<path class="bond-54" d="M 395.45,140.704 L 403.583,126.392" style="fill:none;fill-rule:evenodd;stroke:#000000;stroke-width:2.0px;stroke-linecap:butt;stroke-linejoin:miter;stroke-opacity:1"/>
<path class="bond-55" d="M 395.45,140.704 L 381.163,130.604" style="fill:none;fill-rule:evenodd;stroke:#000000;stroke-width:2.0px;stroke-linecap:butt;stroke-linejoin:miter;stroke-opacity:1"/>
<path class="bond-56" d="M 366.078,164.782 L 370.018,152.002" style="fill:none;fill-rule:evenodd;stroke:#000000;stroke-width:2.0px;stroke-linecap:butt;stroke-linejoin:miter;stroke-opacity:1"/>
<path class="bond-57" d="M 366.078,164.782 L 356.218,152.187" style="fill:none;fill-rule:evenodd;stroke:#000000;stroke-width:2.0px;stroke-linecap:butt;stroke-linejoin:miter;stroke-opacity:1"/>
<path class="bond-58" d="M 366.078,164.782 L 351.254,174.466" style="fill:none;fill-rule:evenodd;stroke:#000000;stroke-width:2.0px;stroke-linecap:butt;stroke-linejoin:miter;stroke-opacity:1"/>
<path class="atom-0" d="M 438.075 42.125 Q 438.075 39.789, 439.229 38.4836 Q 440.384 37.1781, 442.541 37.1781 Q 444.698 37.1781, 445.853 38.4836 Q 447.007 39.789, 447.007 42.125 Q 447.007 44.4885, 445.839 45.8352 Q 444.671 47.1681, 442.541 47.1681 Q 440.397 47.1681, 439.229 45.8352 Q 438.075 44.5023, 438.075 42.125 M 442.541 46.0688 Q 444.025 46.0688, 444.822 45.0794 Q 445.633 44.0763, 445.633 42.125 Q 445.633 40.215, 444.822 39.2531 Q 444.025 38.2774, 442.541 38.2774 Q 441.057 38.2774, 440.246 39.2393 Q 439.449 40.2012, 439.449 42.125 Q 439.449 44.09, 440.246 45.0794 Q 441.057 46.0688, 442.541 46.0688 " fill="#FF0000"/>
<path class="atom-2" d="M 404.962 63.9586 Q 404.962 61.6226, 406.116 60.3172 Q 407.27 59.0117, 409.428 59.0117 Q 411.585 59.0117, 412.739 60.3172 Q 413.894 61.6226, 413.894 63.9586 Q 413.894 66.3221, 412.726 67.6688 Q 411.558 69.0017, 409.428 69.0017 Q 407.284 69.0017, 406.116 67.6688 Q 404.962 66.3358, 404.962 63.9586 M 409.428 67.9024 Q 410.912 67.9024, 411.709 66.913 Q 412.519 65.9099, 412.519 63.9586 Q 412.519 62.0486, 411.709 61.0867 Q 410.912 60.111, 409.428 60.111 Q 407.944 60.111, 407.133 61.0729 Q 406.336 62.0348, 406.336 63.9586 Q 406.336 65.9236, 407.133 66.913 Q 407.944 67.9024, 409.428 67.9024 " fill="#FF0000"/>
<path class="atom-2" d="M 414.347 60.5997 L 417.675 60.5997 L 417.675 61.3252 L 414.347 61.3252 L 414.347 60.5997 " fill="#FF0000"/>
<path class="atom-4" d="M 463.26 80.3533 Q 463.26 78.0173, 464.414 76.7119 Q 465.568 75.4065, 467.726 75.4065 Q 469.883 75.4065, 471.037 76.7119 Q 472.192 78.0173, 472.192 80.3533 Q 472.192 82.7168, 471.024 84.0635 Q 469.856 85.3964, 467.726 85.3964 Q 465.582 85.3964, 464.414 84.0635 Q 463.26 82.7306, 463.26 80.3533 M 467.726 84.2971 Q 469.21 84.2971, 470.007 83.3077 Q 470.818 82.3046, 470.818 80.3533 Q 470.818 78.4433, 470.007 77.4814 Q 469.21 76.5058, 467.726 76.5058 Q 466.242 76.5058, 465.431 77.4677 Q 464.634 78.4296, 464.634 80.3533 Q 464.634 82.3183, 465.431 83.3077 Q 466.242 84.2971, 467.726 84.2971 " fill="#FF0000"/>
<path class="atom-7" d="M 444.568 126.603 Q 445.502 126.864, 445.97 127.441 Q 446.451 128.004, 446.451 128.842 Q 446.451 130.189, 445.585 130.959 Q 444.733 131.714, 443.111 131.714 L 439.841 131.714 L 439.841 121.985 L 442.713 121.985 Q 444.376 121.985, 445.214 122.659 Q 446.052 123.332, 446.052 124.569 Q 446.052 126.039, 444.568 126.603 M 441.146 123.085 L 441.146 126.135 L 442.713 126.135 Q 443.675 126.135, 444.169 125.751 Q 444.678 125.352, 444.678 124.569 Q 444.678 123.085, 442.713 123.085 L 441.146 123.085 M 443.111 130.615 Q 444.06 130.615, 444.568 130.162 Q 445.076 129.708, 445.076 128.842 Q 445.076 128.045, 444.513 127.647 Q 443.963 127.235, 442.905 127.235 L 441.146 127.235 L 441.146 130.615 L 443.111 130.615 " fill="#7F4C19"/>
<path class="atom-7" d="M 448.663 124.651 L 448.814 125.627 Q 449.556 124.528, 450.765 124.528 Q 451.15 124.528, 451.672 124.665 L 451.466 125.819 Q 450.875 125.682, 450.545 125.682 Q 449.968 125.682, 449.584 125.915 Q 449.213 126.135, 448.91 126.671 L 448.91 131.714 L 447.619 131.714 L 447.619 124.651 L 448.663 124.651 " fill="#7F4C19"/>
<path class="atom-14" d="M 447.922 198.621 L 451.11 203.774 Q 451.426 204.283, 451.934 205.203 Q 452.443 206.124, 452.47 206.179 L 452.47 198.621 L 453.762 198.621 L 453.762 208.35 L 452.429 208.35 L 449.007 202.716 Q 448.609 202.057, 448.183 201.301 Q 447.771 200.545, 447.647 200.311 L 447.647 208.35 L 446.383 208.35 L 446.383 198.621 L 447.922 198.621 " fill="#0000FF"/>
<path class="atom-22" d="M 506.074 126.242 Q 506.184 126.283, 506.638 126.476 Q 507.091 126.668, 507.586 126.792 Q 508.094 126.902, 508.589 126.902 Q 509.509 126.902, 510.045 126.462 Q 510.581 126.009, 510.581 125.225 Q 510.581 124.689, 510.306 124.36 Q 510.045 124.03, 509.633 123.851 Q 509.221 123.673, 508.534 123.466 Q 507.668 123.205, 507.146 122.958 Q 506.638 122.711, 506.266 122.188 Q 505.909 121.666, 505.909 120.787 Q 505.909 119.564, 506.734 118.808 Q 507.572 118.052, 509.221 118.052 Q 510.348 118.052, 511.626 118.588 L 511.31 119.646 Q 510.142 119.165, 509.262 119.165 Q 508.314 119.165, 507.792 119.564 Q 507.27 119.949, 507.283 120.622 Q 507.283 121.144, 507.544 121.46 Q 507.819 121.776, 508.204 121.955 Q 508.603 122.134, 509.262 122.34 Q 510.142 122.614, 510.664 122.889 Q 511.186 123.164, 511.557 123.727 Q 511.942 124.277, 511.942 125.225 Q 511.942 126.572, 511.035 127.3 Q 510.142 128.015, 508.644 128.015 Q 507.778 128.015, 507.118 127.822 Q 506.473 127.644, 505.703 127.328 L 506.074 126.242 " fill="#CCCC00"/>
<path class="atom-25" d="M 504.852 61.5959 Q 504.852 59.2599, 506.007 57.9544 Q 507.161 56.649, 509.318 56.649 Q 511.476 56.649, 512.63 57.9544 Q 513.784 59.2599, 513.784 61.5959 Q 513.784 63.9594, 512.616 65.306 Q 511.448 66.639, 509.318 66.639 Q 507.175 66.639, 506.007 65.306 Q 504.852 63.9731, 504.852 61.5959 M 509.318 65.5396 Q 510.802 65.5396, 511.599 64.5503 Q 512.41 63.5472, 512.41 61.5959 Q 512.41 59.6858, 511.599 58.724 Q 510.802 57.7483, 509.318 57.7483 Q 507.834 57.7483, 507.023 58.7102 Q 506.226 59.6721, 506.226 61.5959 Q 506.226 63.5609, 507.023 64.5503 Q 507.834 65.5396, 509.318 65.5396 " fill="#FF0000"/>
<path class="atom-26" d="M 535.634 86.6158 Q 535.634 84.2797, 536.788 82.9743 Q 537.942 81.6689, 540.1 81.6689 Q 542.257 81.6689, 543.411 82.9743 Q 544.565 84.2797, 544.565 86.6158 Q 544.565 88.9793, 543.397 90.3259 Q 542.229 91.6588, 540.1 91.6588 Q 537.956 91.6588, 536.788 90.3259 Q 535.634 88.993, 535.634 86.6158 M 540.1 90.5595 Q 541.584 90.5595, 542.381 89.5701 Q 543.191 88.567, 543.191 86.6158 Q 543.191 84.7057, 542.381 83.7438 Q 541.584 82.7682, 540.1 82.7682 Q 538.615 82.7682, 537.805 83.7301 Q 537.008 84.692, 537.008 86.6158 Q 537.008 88.5808, 537.805 89.5701 Q 538.615 90.5595, 540.1 90.5595 " fill="#FF0000"/>
<path class="atom-26" d="M 545.019 83.2568 L 548.347 83.2568 L 548.347 83.9824 L 545.019 83.9824 L 545.019 83.2568 " fill="#FF0000"/>
<path class="atom-27" d="M 442.422 99.6676 L 443.741 99.6676 L 443.741 103.804 L 448.715 103.804 L 448.715 99.6676 L 450.035 99.6676 L 450.035 109.396 L 448.715 109.396 L 448.715 104.903 L 443.741 104.903 L 443.741 109.396 L 442.422 109.396 L 442.422 99.6676 " fill="#000000"/>
<path class="atom-28" d="M 421.95 89.4099 L 423.269 89.4099 L 423.269 93.546 L 428.243 93.546 L 428.243 89.4099 L 429.563 89.4099 L 429.563 99.1388 L 428.243 99.1388 L 428.243 94.6453 L 423.269 94.6453 L 423.269 99.1388 L 421.95 99.1388 L 421.95 89.4099 " fill="#000000"/>
<path class="atom-29" d="M 524.126 154.508 L 525.445 154.508 L 525.445 158.644 L 530.42 158.644 L 530.42 154.508 L 531.739 154.508 L 531.739 164.237 L 530.42 164.237 L 530.42 159.743 L 525.445 159.743 L 525.445 164.237 L 524.126 164.237 L 524.126 154.508 " fill="#000000"/>
<path class="atom-30" d="M 523.01 200.328 L 524.329 200.328 L 524.329 204.464 L 529.304 204.464 L 529.304 200.328 L 530.623 200.328 L 530.623 210.057 L 529.304 210.057 L 529.304 205.564 L 524.329 205.564 L 524.329 210.057 L 523.01 210.057 L 523.01 200.328 " fill="#000000"/>
<path class="atom-31" d="M 483.129 221.983 L 484.448 221.983 L 484.448 226.119 L 489.422 226.119 L 489.422 221.983 L 490.741 221.983 L 490.741 231.712 L 489.422 231.712 L 489.422 227.218 L 484.448 227.218 L 484.448 231.712 L 483.129 231.712 L 483.129 221.983 " fill="#000000"/>
<path class="atom-32" d="M 449.624 221.268 L 450.943 221.268 L 450.943 225.404 L 455.918 225.404 L 455.918 221.268 L 457.237 221.268 L 457.237 230.997 L 455.918 230.997 L 455.918 226.503 L 450.943 226.503 L 450.943 230.997 L 449.624 230.997 L 449.624 221.268 " fill="#000000"/>
<path class="atom-33" d="M 440.068 171.233 L 441.387 171.233 L 441.387 175.37 L 446.361 175.37 L 446.361 171.233 L 447.68 171.233 L 447.68 180.962 L 446.361 180.962 L 446.361 176.469 L 441.387 176.469 L 441.387 180.962 L 440.068 180.962 L 440.068 171.233 " fill="#000000"/>
<path class="atom-34" d="M 412.569 221.467 L 413.888 221.467 L 413.888 225.603 L 418.862 225.603 L 418.862 221.467 L 420.182 221.467 L 420.182 231.196 L 418.862 231.196 L 418.862 226.703 L 413.888 226.703 L 413.888 231.196 L 412.569 231.196 L 412.569 221.467 " fill="#000000"/>
<path class="atom-35" d="M 429.543 210.943 L 430.862 210.943 L 430.862 215.079 L 435.836 215.079 L 435.836 210.943 L 437.156 210.943 L 437.156 220.672 L 435.836 220.672 L 435.836 216.179 L 430.862 216.179 L 430.862 220.672 L 429.543 220.672 L 429.543 210.943 " fill="#000000"/>
<path class="atom-40" d="M 428.75 156.489 L 430.069 156.489 L 430.069 160.625 L 435.043 160.625 L 435.043 156.489 L 436.362 156.489 L 436.362 166.217 L 435.043 166.217 L 435.043 161.724 L 430.069 161.724 L 430.069 166.217 L 428.75 166.217 L 428.75 156.489 " fill="#000000"/>
<path class="atom-41" d="M 406.896 153 L 408.215 153 L 408.215 157.136 L 413.189 157.136 L 413.189 153 L 414.508 153 L 414.508 162.729 L 413.189 162.729 L 413.189 158.235 L 408.215 158.235 L 408.215 162.729 L 406.896 162.729 L 406.896 153 " fill="#000000"/>
<path class="atom-42" d="M 446.654 152.964 L 447.973 152.964 L 447.973 157.1 L 452.947 157.1 L 452.947 152.964 L 454.266 152.964 L 454.266 162.692 L 452.947 162.692 L 452.947 158.199 L 447.973 158.199 L 447.973 162.692 L 446.654 162.692 L 446.654 152.964 " fill="#000000"/>
<path class="atom-43" d="M 365.374 179.786 L 366.693 179.786 L 366.693 183.922 L 371.667 183.922 L 371.667 179.786 L 372.986 179.786 L 372.986 189.515 L 371.667 189.515 L 371.667 185.022 L 366.693 185.022 L 366.693 189.515 L 365.374 189.515 L 365.374 179.786 " fill="#000000"/>
<path class="atom-44" d="M 369.788 199.037 L 371.107 199.037 L 371.107 203.173 L 376.081 203.173 L 376.081 199.037 L 377.4 199.037 L 377.4 208.766 L 376.081 208.766 L 376.081 204.273 L 371.107 204.273 L 371.107 208.766 L 369.788 208.766 L 369.788 199.037 " fill="#000000"/>
<path class="atom-45" d="M 367.858 141.799 L 369.177 141.799 L 369.177 145.935 L 374.151 145.935 L 374.151 141.799 L 375.471 141.799 L 375.471 151.528 L 374.151 151.528 L 374.151 147.035 L 369.177 147.035 L 369.177 151.528 L 367.858 151.528 L 367.858 141.799 " fill="#000000"/>
<path class="atom-46" d="M 348.156 141.885 L 349.475 141.885 L 349.475 146.022 L 354.449 146.022 L 354.449 141.885 L 355.768 141.885 L 355.768 151.614 L 354.449 151.614 L 354.449 147.121 L 349.475 147.121 L 349.475 151.614 L 348.156 151.614 L 348.156 141.885 " fill="#000000"/>
<path class="atom-47" d="M 343.068 172.463 L 344.387 172.463 L 344.387 176.6 L 349.362 176.6 L 349.362 172.463 L 350.681 172.463 L 350.681 182.192 L 349.362 182.192 L 349.362 177.699 L 344.387 177.699 L 344.387 182.192 L 343.068 182.192 L 343.068 172.463 " fill="#000000"/>
<path class="atom-48" d="M 414.319 133.402 L 415.638 133.402 L 415.638 137.538 L 420.612 137.538 L 420.612 133.402 L 421.931 133.402 L 421.931 143.13 L 420.612 143.13 L 420.612 138.637 L 415.638 138.637 L 415.638 143.13 L 414.319 143.13 L 414.319 133.402 " fill="#000000"/>
<path class="atom-49" d="M 402.864 116.095 L 404.183 116.095 L 404.183 120.231 L 409.157 120.231 L 409.157 116.095 L 410.476 116.095 L 410.476 125.824 L 409.157 125.824 L 409.157 121.33 L 404.183 121.33 L 404.183 125.824 L 402.864 125.824 L 402.864 116.095 " fill="#000000"/>
<path class="atom-50" d="M 372.979 122.644 L 374.298 122.644 L 374.298 126.781 L 379.272 126.781 L 379.272 122.644 L 380.591 122.644 L 380.591 132.373 L 379.272 132.373 L 379.272 127.88 L 374.298 127.88 L 374.298 132.373 L 372.979 132.373 L 372.979 122.644 " fill="#000000"/>
<path class="atom-51" d="M 349.113 202.21 L 350.432 202.21 L 350.432 206.347 L 355.406 206.347 L 355.406 202.21 L 356.725 202.21 L 356.725 211.939 L 355.406 211.939 L 355.406 207.446 L 350.432 207.446 L 350.432 211.939 L 349.113 211.939 L 349.113 202.21 " fill="#000000"/>
<path class="atom-52" d="M 339.661 220.693 L 340.98 220.693 L 340.98 224.829 L 345.955 224.829 L 345.955 220.693 L 347.274 220.693 L 347.274 230.422 L 345.955 230.422 L 345.955 225.928 L 340.98 225.928 L 340.98 230.422 L 339.661 230.422 L 339.661 220.693 " fill="#000000"/>
<path class="atom-53" d="M 360.055 243.507 L 361.375 243.507 L 361.375 247.643 L 366.349 247.643 L 366.349 243.507 L 367.668 243.507 L 367.668 253.236 L 366.349 253.236 L 366.349 248.742 L 361.375 248.742 L 361.375 253.236 L 360.055 253.236 L 360.055 243.507 " fill="#000000"/>
<path class="atom-54" d="M 379.148 238.419 L 380.467 238.419 L 380.467 242.555 L 385.442 242.555 L 385.442 238.419 L 386.761 238.419 L 386.761 248.148 L 385.442 248.148 L 385.442 243.654 L 380.467 243.654 L 380.467 248.148 L 379.148 248.148 L 379.148 238.419 " fill="#000000"/>
<path class="atom-55" d="M 388.743 255.656 L 390.063 255.656 L 390.063 259.792 L 395.037 259.792 L 395.037 255.656 L 396.356 255.656 L 396.356 265.385 L 395.037 265.385 L 395.037 260.891 L 390.063 260.891 L 390.063 265.385 L 388.743 265.385 L 388.743 255.656 " fill="#000000"/>
<path class="atom-56" d="M 417.935 245.563 L 419.254 245.563 L 419.254 249.7 L 424.228 249.7 L 424.228 245.563 L 425.548 245.563 L 425.548 255.292 L 424.228 255.292 L 424.228 250.799 L 419.254 250.799 L 419.254 255.292 L 417.935 255.292 L 417.935 245.563 " fill="#000000"/>
<text x="300" y="20" font-size="20" font-family="sans-serif" font-weight="normal" letter-spacing="0" text-anchor="middle" fill="black">ptp1b: 23477 -&gt; 23330_2qbq</text><text x="300" y="35" font-size="15" font-family="sans-serif" font-weight="normal" letter-spacing="0" text-anchor="middle" fill="black">complex (repeats 4, 5, 6), water (repeats 4, 5, 6), DDG_exp = -1.29 (0.0) kcal/mol</text><text x="150" y="285" font-size="15" font-family="sans-serif" font-weight="normal" letter-spacing="0" text-anchor="middle" fill="black">23477</text><text x="450" y="285" font-size="15" font-family="sans-serif" font-weight="normal" letter-spacing="0" text-anchor="middle" fill="black">23330_2qbq</text></svg>
