<?xml version='1.0' encoding='ASCII' standalone='yes'?>
<svg xmlns="http://www.w3.org/2000/svg" xmlns:rdkit="http://www.rdkit.org/xml" xmlns:xlink="http://www.w3.org/1999/xlink" version="1.1" baseProfile="full" xml:space="preserve" width="600px" height="300px" viewBox="0 0 600 300">
<!-- END OF HEADER -->
<rect style="opacity:1.0;fill:#FFFFFF;stroke:none" width="600" height="300" x="0" y="0"> </rect>
<rect style="opacity:1.0;fill:#FFFFFF;stroke:none" width="600" height="300" x="0" y="0"> </rect>
<rect style="opacity:1.0;fill:#FFFFFF;stroke:none" width="600" height="300" x="0" y="0"> </rect>
<ellipse cx="59.0354" cy="172.213" rx="7.47716" ry="7.47716" style="fill:#CFAA27;fill-rule:evenodd;stroke:#CFAA27;stroke-width:1px;stroke-linecap:butt;stroke-linejoin:miter;stroke-opacity:1"/>
<ellipse cx="72.3537" cy="190.478" rx="7.47716" ry="7.47716" style="fill:#B8A444;fill-rule:evenodd;stroke:#B8A444;stroke-width:1px;stroke-linecap:butt;stroke-linejoin:miter;stroke-opacity:1"/>
<ellipse cx="65.0033" cy="211.245" rx="8.89414" ry="7.47716" style="fill:#A19F62;fill-rule:evenodd;stroke:#A19F62;stroke-width:1px;stroke-linecap:butt;stroke-linejoin:miter;stroke-opacity:1"/>
<ellipse cx="94.8966" cy="188.105" rx="7.47716" ry="7.47716" style="fill:#7C947A;fill-rule:evenodd;stroke:#7C947A;stroke-width:1px;stroke-linecap:butt;stroke-linejoin:miter;stroke-opacity:1"/>
<ellipse cx="108.275" cy="206.525" rx="7.47716" ry="7.47716" style="fill:#588A93;fill-rule:evenodd;stroke:#588A93;stroke-width:1px;stroke-linecap:butt;stroke-linejoin:miter;stroke-opacity:1"/>
<ellipse cx="130.618" cy="203.847" rx="7.47716" ry="7.47716" style="fill:#3D79AB;fill-rule:evenodd;stroke:#3D79AB;stroke-width:1px;stroke-linecap:butt;stroke-linejoin:miter;stroke-opacity:1"/>
<ellipse cx="142.041" cy="184.3" rx="7.47716" ry="7.47716" style="fill:#2269C4;fill-rule:evenodd;stroke:#2269C4;stroke-width:1px;stroke-linecap:butt;stroke-linejoin:miter;stroke-opacity:1"/>
<ellipse cx="128.823" cy="163.419" rx="8.27679" ry="7.47716" style="fill:#3053DA;fill-rule:evenodd;stroke:#3053DA;stroke-width:1px;stroke-linecap:butt;stroke-linejoin:miter;stroke-opacity:1"/>
<ellipse cx="164.238" cy="188.717" rx="7.47716" ry="7.47716" style="fill:#3E3EF0;fill-rule:evenodd;stroke:#3E3EF0;stroke-width:1px;stroke-linecap:butt;stroke-linejoin:miter;stroke-opacity:1"/>
<ellipse cx="181.199" cy="173.339" rx="7.47716" ry="7.47716" style="fill:#5446F4;fill-rule:evenodd;stroke:#5446F4;stroke-width:1px;stroke-linecap:butt;stroke-linejoin:miter;stroke-opacity:1"/>
<ellipse cx="202.72" cy="180.877" rx="7.47716" ry="7.47716" style="fill:#6B4EF9;fill-rule:evenodd;stroke:#6B4EF9;stroke-width:1px;stroke-linecap:butt;stroke-linejoin:miter;stroke-opacity:1"/>
<ellipse cx="219.179" cy="165.252" rx="7.47716" ry="7.47716" style="fill:#805CF9;fill-rule:evenodd;stroke:#805CF9;stroke-width:1px;stroke-linecap:butt;stroke-linejoin:miter;stroke-opacity:1"/>
<ellipse cx="214.993" cy="143.062" rx="7.47716" ry="7.47716" style="fill:#CFAA27;fill-rule:evenodd;stroke:#CFAA27;stroke-width:1px;stroke-linecap:butt;stroke-linejoin:miter;stroke-opacity:1"/>
<ellipse cx="193.119" cy="136.619" rx="7.47716" ry="7.47716" style="fill:#B8A444;fill-rule:evenodd;stroke:#B8A444;stroke-width:1px;stroke-linecap:butt;stroke-linejoin:miter;stroke-opacity:1"/>
<ellipse cx="188.319" cy="114.205" rx="7.47716" ry="7.47716" style="fill:#A19F62;fill-rule:evenodd;stroke:#A19F62;stroke-width:1px;stroke-linecap:butt;stroke-linejoin:miter;stroke-opacity:1"/>
<ellipse cx="175.888" cy="151.39" rx="7.47716" ry="7.47716" style="fill:#7C947A;fill-rule:evenodd;stroke:#7C947A;stroke-width:1px;stroke-linecap:butt;stroke-linejoin:miter;stroke-opacity:1"/>
<ellipse cx="166.467" cy="211.377" rx="7.47716" ry="7.47716" style="fill:#588A93;fill-rule:evenodd;stroke:#588A93;stroke-width:1px;stroke-linecap:butt;stroke-linejoin:miter;stroke-opacity:1"/>
<ellipse cx="145.904" cy="220.705" rx="7.47716" ry="7.47716" style="fill:#3D79AB;fill-rule:evenodd;stroke:#3D79AB;stroke-width:1px;stroke-linecap:butt;stroke-linejoin:miter;stroke-opacity:1"/>
<ellipse cx="141.075" cy="242.663" rx="7.47716" ry="7.47716" style="fill:#2269C4;fill-rule:evenodd;stroke:#2269C4;stroke-width:1px;stroke-linecap:butt;stroke-linejoin:miter;stroke-opacity:1"/>
<ellipse cx="157.922" cy="257.907" rx="7.47716" ry="7.47716" style="fill:#3053DA;fill-rule:evenodd;stroke:#3053DA;stroke-width:1px;stroke-linecap:butt;stroke-linejoin:miter;stroke-opacity:1"/>
<ellipse cx="121.407" cy="249.742" rx="8.89414" ry="7.47716" style="fill:#3E3EF0;fill-rule:evenodd;stroke:#3E3EF0;stroke-width:1px;stroke-linecap:butt;stroke-linejoin:miter;stroke-opacity:1"/>
<ellipse cx="113.205" cy="174.758" rx="7.47716" ry="7.47716" style="fill:#5446F4;fill-rule:evenodd;stroke:#5446F4;stroke-width:1px;stroke-linecap:butt;stroke-linejoin:miter;stroke-opacity:1"/>
<ellipse cx="92.5061" cy="165.569" rx="7.47716" ry="7.47716" style="fill:#6B4EF9;fill-rule:evenodd;stroke:#6B4EF9;stroke-width:1px;stroke-linecap:butt;stroke-linejoin:miter;stroke-opacity:1"/>
<ellipse cx="207.421" cy="202.806" rx="7.47716" ry="7.47716" style="fill:#805CF9;fill-rule:evenodd;stroke:#805CF9;stroke-width:1px;stroke-linecap:butt;stroke-linejoin:miter;stroke-opacity:1"/>
<ellipse cx="240.959" cy="172.288" rx="7.47716" ry="7.47716" style="fill:#CFAA27;fill-rule:evenodd;stroke:#CFAA27;stroke-width:1px;stroke-linecap:butt;stroke-linejoin:miter;stroke-opacity:1"/>
<ellipse cx="231.624" cy="128.015" rx="7.47716" ry="7.47716" style="fill:#B8A444;fill-rule:evenodd;stroke:#B8A444;stroke-width:1px;stroke-linecap:butt;stroke-linejoin:miter;stroke-opacity:1"/>
<ellipse cx="154.546" cy="144.496" rx="7.47716" ry="7.47716" style="fill:#A19F62;fill-rule:evenodd;stroke:#A19F62;stroke-width:1px;stroke-linecap:butt;stroke-linejoin:miter;stroke-opacity:1"/>
<path class="bond-0" d="M 61.4398,178.92 L 66.0717,185.298" style="fill:none;fill-rule:evenodd;stroke:#FF0000;stroke-width:2.0px;stroke-linecap:butt;stroke-linejoin:miter;stroke-opacity:1"/>
<path class="bond-0" d="M 66.0717,185.298 L 70.7037,191.677" style="fill:none;fill-rule:evenodd;stroke:#000000;stroke-width:2.0px;stroke-linecap:butt;stroke-linejoin:miter;stroke-opacity:1"/>
<path class="bond-0" d="M 64.7399,176.523 L 69.3718,182.902" style="fill:none;fill-rule:evenodd;stroke:#FF0000;stroke-width:2.0px;stroke-linecap:butt;stroke-linejoin:miter;stroke-opacity:1"/>
<path class="bond-0" d="M 69.3718,182.902 L 74.0038,189.28" style="fill:none;fill-rule:evenodd;stroke:#000000;stroke-width:2.0px;stroke-linecap:butt;stroke-linejoin:miter;stroke-opacity:1"/>
<path class="bond-1" d="M 72.3537,190.478 L 68.9538,198.108" style="fill:none;fill-rule:evenodd;stroke:#000000;stroke-width:2.0px;stroke-linecap:butt;stroke-linejoin:miter;stroke-opacity:1"/>
<path class="bond-1" d="M 68.9538,198.108 L 65.5539,205.737" style="fill:none;fill-rule:evenodd;stroke:#FF0000;stroke-width:2.0px;stroke-linecap:butt;stroke-linejoin:miter;stroke-opacity:1"/>
<path class="bond-2" d="M 72.3537,190.478 L 94.8966,188.105" style="fill:none;fill-rule:evenodd;stroke:#000000;stroke-width:2.0px;stroke-linecap:butt;stroke-linejoin:miter;stroke-opacity:1"/>
<path class="bond-3" d="M 94.8966,188.105 L 99.6041,194.56" style="fill:none;fill-rule:evenodd;stroke:#000000;stroke-width:2.0px;stroke-linecap:butt;stroke-linejoin:miter;stroke-opacity:1"/>
<path class="bond-3" d="M 99.6041,194.56 L 104.312,201.015" style="fill:none;fill-rule:evenodd;stroke:#FF0000;stroke-width:2.0px;stroke-linecap:butt;stroke-linejoin:miter;stroke-opacity:1"/>
<path class="bond-4" d="M 94.8966,188.105 L 108.873,177.916" style="fill:none;fill-rule:evenodd;stroke:#000000;stroke-width:2.0px;stroke-linecap:butt;stroke-linejoin:miter;stroke-opacity:1"/>
<path class="bond-5" d="M 94.8966,188.105 L 93.0767,170.948" style="fill:none;fill-rule:evenodd;stroke:#000000;stroke-width:2.0px;stroke-linecap:butt;stroke-linejoin:miter;stroke-opacity:1"/>
<path class="bond-6" d="M 113.256,205.87 L 121.937,204.859" style="fill:none;fill-rule:evenodd;stroke:#FF0000;stroke-width:2.0px;stroke-linecap:butt;stroke-linejoin:miter;stroke-opacity:1"/>
<path class="bond-6" d="M 121.937,204.859 L 130.618,203.847" style="fill:none;fill-rule:evenodd;stroke:#000000;stroke-width:2.0px;stroke-linecap:butt;stroke-linejoin:miter;stroke-opacity:1"/>
<path class="bond-7" d="M 130.618,203.847 L 142.041,184.3" style="fill:none;fill-rule:evenodd;stroke:#000000;stroke-width:2.0px;stroke-linecap:butt;stroke-linejoin:miter;stroke-opacity:1"/>
<path class="bond-8" d="M 130.618,203.847 L 145.904,220.705" style="fill:none;fill-rule:evenodd;stroke:#000000;stroke-width:2.0px;stroke-linecap:butt;stroke-linejoin:miter;stroke-opacity:1"/>
<path class="bond-8" d="M 135.932,203.636 L 146.632,215.437" style="fill:none;fill-rule:evenodd;stroke:#000000;stroke-width:2.0px;stroke-linecap:butt;stroke-linejoin:miter;stroke-opacity:1"/>
<path class="bond-9" d="M 142.041,184.3 L 138.564,176.552" style="fill:none;fill-rule:evenodd;stroke:#000000;stroke-width:2.0px;stroke-linecap:butt;stroke-linejoin:miter;stroke-opacity:1"/>
<path class="bond-9" d="M 138.564,176.552 L 135.087,168.804" style="fill:none;fill-rule:evenodd;stroke:#7F4C19;stroke-width:2.0px;stroke-linecap:butt;stroke-linejoin:miter;stroke-opacity:1"/>
<path class="bond-10" d="M 142.041,184.3 L 164.238,188.717" style="fill:none;fill-rule:evenodd;stroke:#000000;stroke-width:2.0px;stroke-linecap:butt;stroke-linejoin:miter;stroke-opacity:1"/>
<path class="bond-10" d="M 144.575,188.962 L 160.113,192.054" style="fill:none;fill-rule:evenodd;stroke:#000000;stroke-width:2.0px;stroke-linecap:butt;stroke-linejoin:miter;stroke-opacity:1"/>
<path class="bond-11" d="M 164.238,188.717 L 181.199,173.339" style="fill:none;fill-rule:evenodd;stroke:#000000;stroke-width:2.0px;stroke-linecap:butt;stroke-linejoin:miter;stroke-opacity:1"/>
<path class="bond-12" d="M 164.238,188.717 L 165.087,197.3" style="fill:none;fill-rule:evenodd;stroke:#000000;stroke-width:2.0px;stroke-linecap:butt;stroke-linejoin:miter;stroke-opacity:1"/>
<path class="bond-12" d="M 165.087,197.3 L 165.937,205.882" style="fill:none;fill-rule:evenodd;stroke:#CCCC00;stroke-width:2.0px;stroke-linecap:butt;stroke-linejoin:miter;stroke-opacity:1"/>
<path class="bond-13" d="M 181.199,173.339 L 202.72,180.877" style="fill:none;fill-rule:evenodd;stroke:#000000;stroke-width:2.0px;stroke-linecap:butt;stroke-linejoin:miter;stroke-opacity:1"/>
<path class="bond-13" d="M 185.775,170.621 L 200.84,175.897" style="fill:none;fill-rule:evenodd;stroke:#000000;stroke-width:2.0px;stroke-linecap:butt;stroke-linejoin:miter;stroke-opacity:1"/>
<path class="bond-14" d="M 181.199,173.339 L 175.888,151.39" style="fill:none;fill-rule:evenodd;stroke:#000000;stroke-width:2.0px;stroke-linecap:butt;stroke-linejoin:miter;stroke-opacity:1"/>
<path class="bond-15" d="M 202.72,180.877 L 219.179,165.252" style="fill:none;fill-rule:evenodd;stroke:#000000;stroke-width:2.0px;stroke-linecap:butt;stroke-linejoin:miter;stroke-opacity:1"/>
<path class="bond-16" d="M 202.72,180.877 L 206.269,197.433" style="fill:none;fill-rule:evenodd;stroke:#000000;stroke-width:2.0px;stroke-linecap:butt;stroke-linejoin:miter;stroke-opacity:1"/>
<path class="bond-17" d="M 219.179,165.252 L 214.993,143.062" style="fill:none;fill-rule:evenodd;stroke:#000000;stroke-width:2.0px;stroke-linecap:butt;stroke-linejoin:miter;stroke-opacity:1"/>
<path class="bond-17" d="M 214.543,162.68 L 211.613,147.147" style="fill:none;fill-rule:evenodd;stroke:#000000;stroke-width:2.0px;stroke-linecap:butt;stroke-linejoin:miter;stroke-opacity:1"/>
<path class="bond-18" d="M 219.179,165.252 L 236.621,170.887" style="fill:none;fill-rule:evenodd;stroke:#000000;stroke-width:2.0px;stroke-linecap:butt;stroke-linejoin:miter;stroke-opacity:1"/>
<path class="bond-19" d="M 214.993,143.062 L 193.119,136.619" style="fill:none;fill-rule:evenodd;stroke:#000000;stroke-width:2.0px;stroke-linecap:butt;stroke-linejoin:miter;stroke-opacity:1"/>
<path class="bond-20" d="M 214.993,143.062 L 227.298,131.929" style="fill:none;fill-rule:evenodd;stroke:#000000;stroke-width:2.0px;stroke-linecap:butt;stroke-linejoin:miter;stroke-opacity:1"/>
<path class="bond-21" d="M 193.119,136.619 L 191.296,128.105" style="fill:none;fill-rule:evenodd;stroke:#000000;stroke-width:2.0px;stroke-linecap:butt;stroke-linejoin:miter;stroke-opacity:1"/>
<path class="bond-21" d="M 191.296,128.105 L 189.473,119.59" style="fill:none;fill-rule:evenodd;stroke:#0000FF;stroke-width:2.0px;stroke-linecap:butt;stroke-linejoin:miter;stroke-opacity:1"/>
<path class="bond-22" d="M 193.119,136.619 L 175.888,151.39" style="fill:none;fill-rule:evenodd;stroke:#000000;stroke-width:2.0px;stroke-linecap:butt;stroke-linejoin:miter;stroke-opacity:1"/>
<path class="bond-22" d="M 193.189,141.931 L 181.127,152.271" style="fill:none;fill-rule:evenodd;stroke:#000000;stroke-width:2.0px;stroke-linecap:butt;stroke-linejoin:miter;stroke-opacity:1"/>
<path class="bond-23" d="M 192.537,110.39 L 198.841,104.688" style="fill:none;fill-rule:evenodd;stroke:#0000FF;stroke-width:2.0px;stroke-linecap:butt;stroke-linejoin:miter;stroke-opacity:1"/>
<path class="bond-23" d="M 198.841,104.688 L 205.146,98.9862" style="fill:none;fill-rule:evenodd;stroke:#000000;stroke-width:2.0px;stroke-linecap:butt;stroke-linejoin:miter;stroke-opacity:1"/>
<path class="bond-24" d="M 184.103,112.844 L 177.541,110.726" style="fill:none;fill-rule:evenodd;stroke:#0000FF;stroke-width:2.0px;stroke-linecap:butt;stroke-linejoin:miter;stroke-opacity:1"/>
<path class="bond-24" d="M 177.541,110.726 L 170.979,108.609" style="fill:none;fill-rule:evenodd;stroke:#000000;stroke-width:2.0px;stroke-linecap:butt;stroke-linejoin:miter;stroke-opacity:1"/>
<path class="bond-25" d="M 204.521,100.927 L 212.812,103.598" style="fill:none;fill-rule:evenodd;stroke:#000000;stroke-width:2.0px;stroke-linecap:butt;stroke-linejoin:miter;stroke-opacity:1"/>
<path class="bond-25" d="M 212.812,103.598 L 221.103,106.268" style="fill:none;fill-rule:evenodd;stroke:#FF0000;stroke-width:2.0px;stroke-linecap:butt;stroke-linejoin:miter;stroke-opacity:1"/>
<path class="bond-25" d="M 205.771,97.0452 L 214.062,99.7157" style="fill:none;fill-rule:evenodd;stroke:#000000;stroke-width:2.0px;stroke-linecap:butt;stroke-linejoin:miter;stroke-opacity:1"/>
<path class="bond-25" d="M 214.062,99.7157 L 222.353,102.386" style="fill:none;fill-rule:evenodd;stroke:#FF0000;stroke-width:2.0px;stroke-linecap:butt;stroke-linejoin:miter;stroke-opacity:1"/>
<path class="bond-26" d="M 205.146,98.9862 L 203.362,90.6911" style="fill:none;fill-rule:evenodd;stroke:#000000;stroke-width:2.0px;stroke-linecap:butt;stroke-linejoin:miter;stroke-opacity:1"/>
<path class="bond-26" d="M 203.362,90.6911 L 201.578,82.396" style="fill:none;fill-rule:evenodd;stroke:#FF0000;stroke-width:2.0px;stroke-linecap:butt;stroke-linejoin:miter;stroke-opacity:1"/>
<path class="bond-27" d="M 205.362,72.2922 L 211.27,66.9356" style="fill:none;fill-rule:evenodd;stroke:#FF0000;stroke-width:2.0px;stroke-linecap:butt;stroke-linejoin:miter;stroke-opacity:1"/>
<path class="bond-27" d="M 211.27,66.9356 L 217.177,61.5789" style="fill:none;fill-rule:evenodd;stroke:#000000;stroke-width:2.0px;stroke-linecap:butt;stroke-linejoin:miter;stroke-opacity:1"/>
<path class="bond-28" d="M 175.888,151.39 L 158.872,145.894" style="fill:none;fill-rule:evenodd;stroke:#000000;stroke-width:2.0px;stroke-linecap:butt;stroke-linejoin:miter;stroke-opacity:1"/>
<path class="bond-29" d="M 162.815,212.927 L 154.359,216.816" style="fill:none;fill-rule:evenodd;stroke:#CCCC00;stroke-width:2.0px;stroke-linecap:butt;stroke-linejoin:miter;stroke-opacity:1"/>
<path class="bond-29" d="M 154.359,216.816 L 145.904,220.705" style="fill:none;fill-rule:evenodd;stroke:#000000;stroke-width:2.0px;stroke-linecap:butt;stroke-linejoin:miter;stroke-opacity:1"/>
<path class="bond-30" d="M 145.904,220.705 L 141.075,242.663" style="fill:none;fill-rule:evenodd;stroke:#000000;stroke-width:2.0px;stroke-linecap:butt;stroke-linejoin:miter;stroke-opacity:1"/>
<path class="bond-31" d="M 139.711,244.179 L 145.642,249.519" style="fill:none;fill-rule:evenodd;stroke:#000000;stroke-width:2.0px;stroke-linecap:butt;stroke-linejoin:miter;stroke-opacity:1"/>
<path class="bond-31" d="M 145.642,249.519 L 151.573,254.859" style="fill:none;fill-rule:evenodd;stroke:#FF0000;stroke-width:2.0px;stroke-linecap:butt;stroke-linejoin:miter;stroke-opacity:1"/>
<path class="bond-31" d="M 142.44,241.148 L 148.371,246.488" style="fill:none;fill-rule:evenodd;stroke:#000000;stroke-width:2.0px;stroke-linecap:butt;stroke-linejoin:miter;stroke-opacity:1"/>
<path class="bond-31" d="M 148.371,246.488 L 154.302,251.829" style="fill:none;fill-rule:evenodd;stroke:#FF0000;stroke-width:2.0px;stroke-linecap:butt;stroke-linejoin:miter;stroke-opacity:1"/>
<path class="bond-32" d="M 141.075,242.663 L 134.669,244.746" style="fill:none;fill-rule:evenodd;stroke:#000000;stroke-width:2.0px;stroke-linecap:butt;stroke-linejoin:miter;stroke-opacity:1"/>
<path class="bond-32" d="M 134.669,244.746 L 128.262,246.83" style="fill:none;fill-rule:evenodd;stroke:#FF0000;stroke-width:2.0px;stroke-linecap:butt;stroke-linejoin:miter;stroke-opacity:1"/>
<path class="bond-33" d="M 217.177,61.5789 L 228.069,73.5825" style="fill:none;fill-rule:evenodd;stroke:#000000;stroke-width:2.0px;stroke-linecap:butt;stroke-linejoin:miter;stroke-opacity:1"/>
<path class="bond-34" d="M 217.177,61.5789 L 234.993,57.7206" style="fill:none;fill-rule:evenodd;stroke:#000000;stroke-width:2.0px;stroke-linecap:butt;stroke-linejoin:miter;stroke-opacity:1"/>
<path class="bond-35" d="M 217.177,61.5789 L 213.551,44.8071" style="fill:none;fill-rule:evenodd;stroke:#000000;stroke-width:2.0px;stroke-linecap:butt;stroke-linejoin:miter;stroke-opacity:1"/>
<path class="atom-0" d="M 54.6171 172.166 Q 54.6171 169.854, 55.7591 168.563 Q 56.9011 167.271, 59.0354 167.271 Q 61.1698 167.271, 62.3118 168.563 Q 63.4538 169.854, 63.4538 172.166 Q 63.4538 174.504, 62.2982 175.836 Q 61.1426 177.155, 59.0354 177.155 Q 56.9146 177.155, 55.7591 175.836 Q 54.6171 174.517, 54.6171 172.166 M 59.0354 176.067 Q 60.5037 176.067, 61.2922 175.088 Q 62.0943 174.096, 62.0943 172.166 Q 62.0943 170.276, 61.2922 169.324 Q 60.5037 168.359, 59.0354 168.359 Q 57.5672 168.359, 56.7651 169.311 Q 55.9766 170.262, 55.9766 172.166 Q 55.9766 174.11, 56.7651 175.088 Q 57.5672 176.067, 59.0354 176.067 " fill="#FF0000"/>
<path class="atom-2" d="M 58.7142 211.197 Q 58.7142 208.886, 59.8561 207.594 Q 60.9981 206.303, 63.1325 206.303 Q 65.2669 206.303, 66.4088 207.594 Q 67.5508 208.886, 67.5508 211.197 Q 67.5508 213.535, 66.3953 214.868 Q 65.2397 216.186, 63.1325 216.186 Q 61.0117 216.186, 59.8561 214.868 Q 58.7142 213.549, 58.7142 211.197 M 63.1325 215.099 Q 64.6007 215.099, 65.3892 214.12 Q 66.1913 213.128, 66.1913 211.197 Q 66.1913 209.307, 65.3892 208.356 Q 64.6007 207.391, 63.1325 207.391 Q 61.6643 207.391, 60.8622 208.342 Q 60.0737 209.294, 60.0737 211.197 Q 60.0737 213.141, 60.8622 214.12 Q 61.6643 215.099, 63.1325 215.099 " fill="#FF0000"/>
<path class="atom-2" d="M 67.9994 207.874 L 71.2924 207.874 L 71.2924 208.592 L 67.9994 208.592 L 67.9994 207.874 " fill="#FF0000"/>
<path class="atom-4" d="M 103.857 206.477 Q 103.857 204.166, 104.999 202.874 Q 106.141 201.583, 108.275 201.583 Q 110.409 201.583, 111.551 202.874 Q 112.693 204.166, 112.693 206.477 Q 112.693 208.815, 111.538 210.148 Q 110.382 211.466, 108.275 211.466 Q 106.154 211.466, 104.999 210.148 Q 103.857 208.829, 103.857 206.477 M 108.275 210.379 Q 109.743 210.379, 110.532 209.4 Q 111.334 208.408, 111.334 206.477 Q 111.334 204.587, 110.532 203.636 Q 109.743 202.671, 108.275 202.671 Q 106.807 202.671, 106.005 203.622 Q 105.216 204.574, 105.216 206.477 Q 105.216 208.421, 106.005 209.4 Q 106.807 210.379, 108.275 210.379 " fill="#FF0000"/>
<path class="atom-7" d="M 127.647 163.174 Q 128.572 163.433, 129.034 164.004 Q 129.51 164.561, 129.51 165.39 Q 129.51 166.723, 128.653 167.484 Q 127.81 168.232, 126.206 168.232 L 122.971 168.232 L 122.971 158.607 L 125.812 158.607 Q 127.457 158.607, 128.286 159.273 Q 129.116 159.939, 129.116 161.162 Q 129.116 162.617, 127.647 163.174 M 124.262 159.694 L 124.262 162.712 L 125.812 162.712 Q 126.764 162.712, 127.253 162.332 Q 127.756 161.937, 127.756 161.162 Q 127.756 159.694, 125.812 159.694 L 124.262 159.694 M 126.206 167.144 Q 127.144 167.144, 127.647 166.696 Q 128.15 166.247, 128.15 165.39 Q 128.15 164.602, 127.593 164.208 Q 127.049 163.8, 126.002 163.8 L 124.262 163.8 L 124.262 167.144 L 126.206 167.144 " fill="#7F4C19"/>
<path class="atom-7" d="M 131.699 161.244 L 131.848 162.209 Q 132.582 161.122, 133.779 161.122 Q 134.159 161.122, 134.676 161.258 L 134.472 162.4 Q 133.887 162.264, 133.561 162.264 Q 132.99 162.264, 132.609 162.495 Q 132.242 162.712, 131.943 163.242 L 131.943 168.232 L 130.665 168.232 L 130.665 161.244 L 131.699 161.244 " fill="#7F4C19"/>
<path class="atom-14" d="M 186.192 109.392 L 189.346 114.49 Q 189.658 114.993, 190.161 115.904 Q 190.664 116.815, 190.692 116.869 L 190.692 109.392 L 191.969 109.392 L 191.969 119.017 L 190.651 119.017 L 187.266 113.443 Q 186.871 112.791, 186.45 112.043 Q 186.042 111.296, 185.92 111.064 L 185.92 119.017 L 184.669 119.017 L 184.669 109.392 L 186.192 109.392 " fill="#0000FF"/>
<path class="atom-16" d="M 222.294 105.96 Q 222.294 103.649, 223.436 102.357 Q 224.578 101.066, 226.712 101.066 Q 228.847 101.066, 229.989 102.357 Q 231.131 103.649, 231.131 105.96 Q 231.131 108.298, 229.975 109.631 Q 228.82 110.949, 226.712 110.949 Q 224.592 110.949, 223.436 109.631 Q 222.294 108.312, 222.294 105.96 M 226.712 109.862 Q 228.181 109.862, 228.969 108.883 Q 229.771 107.891, 229.771 105.96 Q 229.771 104.07, 228.969 103.119 Q 228.181 102.153, 226.712 102.153 Q 225.244 102.153, 224.442 103.105 Q 223.654 104.057, 223.654 105.96 Q 223.654 107.904, 224.442 108.883 Q 225.244 109.862, 226.712 109.862 " fill="#FF0000"/>
<path class="atom-17" d="M 195.959 76.8397 Q 195.959 74.5286, 197.1 73.2371 Q 198.242 71.9456, 200.377 71.9456 Q 202.511 71.9456, 203.653 73.2371 Q 204.795 74.5286, 204.795 76.8397 Q 204.795 79.178, 203.64 80.5103 Q 202.484 81.829, 200.377 81.829 Q 198.256 81.829, 197.1 80.5103 Q 195.959 79.1916, 195.959 76.8397 M 200.377 80.7414 Q 201.845 80.7414, 202.634 79.7626 Q 203.436 78.7702, 203.436 76.8397 Q 203.436 74.95, 202.634 73.9984 Q 201.845 73.0332, 200.377 73.0332 Q 198.909 73.0332, 198.106 73.9848 Q 197.318 74.9364, 197.318 76.8397 Q 197.318 78.7838, 198.106 79.7626 Q 198.909 80.7414, 200.377 80.7414 " fill="#FF0000"/>
<path class="atom-19" d="M 163.748 214.551 Q 163.857 214.592, 164.306 214.782 Q 164.754 214.972, 165.244 215.095 Q 165.747 215.204, 166.236 215.204 Q 167.147 215.204, 167.677 214.769 Q 168.207 214.32, 168.207 213.545 Q 168.207 213.015, 167.935 212.689 Q 167.677 212.362, 167.269 212.186 Q 166.861 212.009, 166.182 211.805 Q 165.325 211.547, 164.809 211.302 Q 164.306 211.057, 163.939 210.541 Q 163.585 210.024, 163.585 209.154 Q 163.585 207.944, 164.401 207.196 Q 165.23 206.449, 166.861 206.449 Q 167.976 206.449, 169.241 206.979 L 168.928 208.026 Q 167.772 207.55, 166.902 207.55 Q 165.964 207.55, 165.448 207.944 Q 164.931 208.325, 164.945 208.991 Q 164.945 209.507, 165.203 209.82 Q 165.475 210.133, 165.855 210.309 Q 166.25 210.486, 166.902 210.69 Q 167.772 210.962, 168.289 211.234 Q 168.806 211.506, 169.173 212.063 Q 169.553 212.607, 169.553 213.545 Q 169.553 214.877, 168.656 215.598 Q 167.772 216.305, 166.291 216.305 Q 165.434 216.305, 164.781 216.114 Q 164.143 215.938, 163.381 215.625 L 163.748 214.551 " fill="#CCCC00"/>
<path class="atom-22" d="M 153.504 257.86 Q 153.504 255.549, 154.646 254.257 Q 155.788 252.966, 157.922 252.966 Q 160.057 252.966, 161.199 254.257 Q 162.341 255.549, 162.341 257.86 Q 162.341 260.198, 161.185 261.53 Q 160.03 262.849, 157.922 262.849 Q 155.802 262.849, 154.646 261.53 Q 153.504 260.212, 153.504 257.86 M 157.922 261.762 Q 159.391 261.762, 160.179 260.783 Q 160.981 259.79, 160.981 257.86 Q 160.981 255.97, 160.179 255.019 Q 159.391 254.053, 157.922 254.053 Q 156.454 254.053, 155.652 255.005 Q 154.864 255.957, 154.864 257.86 Q 154.864 259.804, 155.652 260.783 Q 156.454 261.762, 157.922 261.762 " fill="#FF0000"/>
<path class="atom-23" d="M 115.118 249.695 Q 115.118 247.383, 116.26 246.092 Q 117.402 244.8, 119.536 244.8 Q 121.67 244.8, 122.812 246.092 Q 123.954 247.383, 123.954 249.695 Q 123.954 252.033, 122.799 253.365 Q 121.643 254.684, 119.536 254.684 Q 117.415 254.684, 116.26 253.365 Q 115.118 252.046, 115.118 249.695 M 119.536 253.596 Q 121.004 253.596, 121.793 252.617 Q 122.595 251.625, 122.595 249.695 Q 122.595 247.805, 121.793 246.853 Q 121.004 245.888, 119.536 245.888 Q 118.068 245.888, 117.266 246.84 Q 116.477 247.791, 116.477 249.695 Q 116.477 251.639, 117.266 252.617 Q 118.068 253.596, 119.536 253.596 " fill="#FF0000"/>
<path class="atom-23" d="M 124.403 246.371 L 127.696 246.371 L 127.696 247.089 L 124.403 247.089 L 124.403 246.371 " fill="#FF0000"/>
<path class="atom-24" d="M 109.44 169.946 L 110.745 169.946 L 110.745 174.038 L 115.666 174.038 L 115.666 169.946 L 116.971 169.946 L 116.971 179.571 L 115.666 179.571 L 115.666 175.125 L 110.745 175.125 L 110.745 179.571 L 109.44 179.571 L 109.44 169.946 " fill="#000000"/>
<path class="atom-25" d="M 88.7404 160.757 L 90.0455 160.757 L 90.0455 164.849 L 94.9668 164.849 L 94.9668 160.757 L 96.2719 160.757 L 96.2719 170.382 L 94.9668 170.382 L 94.9668 165.936 L 90.0455 165.936 L 90.0455 170.382 L 88.7404 170.382 L 88.7404 160.757 " fill="#000000"/>
<path class="atom-26" d="M 203.656 197.994 L 204.961 197.994 L 204.961 202.086 L 209.882 202.086 L 209.882 197.994 L 211.187 197.994 L 211.187 207.619 L 209.882 207.619 L 209.882 203.173 L 204.961 203.173 L 204.961 207.619 L 203.656 207.619 L 203.656 197.994 " fill="#000000"/>
<path class="atom-27" d="M 237.193 167.476 L 238.498 167.476 L 238.498 171.568 L 243.419 171.568 L 243.419 167.476 L 244.725 167.476 L 244.725 177.101 L 243.419 177.101 L 243.419 172.655 L 238.498 172.655 L 238.498 177.101 L 237.193 177.101 L 237.193 167.476 " fill="#000000"/>
<path class="atom-28" d="M 227.859 123.202 L 229.164 123.202 L 229.164 127.294 L 234.085 127.294 L 234.085 123.202 L 235.39 123.202 L 235.39 132.827 L 234.085 132.827 L 234.085 128.382 L 229.164 128.382 L 229.164 132.827 L 227.859 132.827 L 227.859 123.202 " fill="#000000"/>
<path class="atom-29" d="M 162.992 102.434 L 164.297 102.434 L 164.297 106.526 L 169.218 106.526 L 169.218 102.434 L 170.524 102.434 L 170.524 112.059 L 169.218 112.059 L 169.218 107.613 L 164.297 107.613 L 164.297 112.059 L 162.992 112.059 L 162.992 102.434 " fill="#000000"/>
<path class="atom-30" d="M 150.78 139.684 L 152.085 139.684 L 152.085 143.776 L 157.007 143.776 L 157.007 139.684 L 158.312 139.684 L 158.312 149.309 L 157.007 149.309 L 157.007 144.864 L 152.085 144.864 L 152.085 149.309 L 150.78 149.309 L 150.78 139.684 " fill="#000000"/>
<path class="atom-32" d="M 228.636 73.5442 L 229.941 73.5442 L 229.941 77.6363 L 234.862 77.6363 L 234.862 73.5442 L 236.167 73.5442 L 236.167 83.1694 L 234.862 83.1694 L 234.862 78.7239 L 229.941 78.7239 L 229.941 83.1694 L 228.636 83.1694 L 228.636 73.5442 " fill="#000000"/>
<path class="atom-33" d="M 235.56 51.9698 L 236.865 51.9698 L 236.865 56.0618 L 241.786 56.0618 L 241.786 51.9698 L 243.091 51.9698 L 243.091 61.5949 L 241.786 61.5949 L 241.786 57.1494 L 236.865 57.1494 L 236.865 61.5949 L 235.56 61.5949 L 235.56 51.9698 " fill="#000000"/>
<path class="atom-34" d="M 208.622 34.6154 L 209.927 34.6154 L 209.927 38.7074 L 214.848 38.7074 L 214.848 34.6154 L 216.154 34.6154 L 216.154 44.2405 L 214.848 44.2405 L 214.848 39.795 L 209.927 39.795 L 209.927 44.2405 L 208.622 44.2405 L 208.622 34.6154 " fill="#000000"/>
<ellipse cx="358.93" cy="172.088" rx="7.47716" ry="7.47716" style="fill:#CFAA27;fill-rule:evenodd;stroke:#CFAA27;stroke-width:1px;stroke-linecap:butt;stroke-linejoin:miter;stroke-opacity:1"/>
<ellipse cx="372.276" cy="190.326" rx="7.47716" ry="7.47716" style="fill:#B8A444;fill-rule:evenodd;stroke:#B8A444;stroke-width:1px;stroke-linecap:butt;stroke-linejoin:miter;stroke-opacity:1"/>
<ellipse cx="364.961" cy="211.114" rx="8.89414" ry="7.47716" style="fill:#A19F62;fill-rule:evenodd;stroke:#A19F62;stroke-width:1px;stroke-linecap:butt;stroke-linejoin:miter;stroke-opacity:1"/>
<ellipse cx="394.807" cy="187.924" rx="7.47716" ry="7.47716" style="fill:#7C947A;fill-rule:evenodd;stroke:#7C947A;stroke-width:1px;stroke-linecap:butt;stroke-linejoin:miter;stroke-opacity:1"/>
<ellipse cx="408.153" cy="206.311" rx="7.47716" ry="7.47716" style="fill:#588A93;fill-rule:evenodd;stroke:#588A93;stroke-width:1px;stroke-linecap:butt;stroke-linejoin:miter;stroke-opacity:1"/>
<ellipse cx="430.684" cy="203.834" rx="7.47716" ry="7.47716" style="fill:#3D79AB;fill-rule:evenodd;stroke:#3D79AB;stroke-width:1px;stroke-linecap:butt;stroke-linejoin:miter;stroke-opacity:1"/>
<ellipse cx="441.981" cy="184.194" rx="7.47716" ry="7.47716" style="fill:#2269C4;fill-rule:evenodd;stroke:#2269C4;stroke-width:1px;stroke-linecap:butt;stroke-linejoin:miter;stroke-opacity:1"/>
<ellipse cx="428.885" cy="163.512" rx="8.27679" ry="7.47716" style="fill:#3053DA;fill-rule:evenodd;stroke:#3053DA;stroke-width:1px;stroke-linecap:butt;stroke-linejoin:miter;stroke-opacity:1"/>
<ellipse cx="464.15" cy="188.871" rx="7.47716" ry="7.47716" style="fill:#3E3EF0;fill-rule:evenodd;stroke:#3E3EF0;stroke-width:1px;stroke-linecap:butt;stroke-linejoin:miter;stroke-opacity:1"/>
<ellipse cx="481.003" cy="173.649" rx="7.47716" ry="7.47716" style="fill:#5446F4;fill-rule:evenodd;stroke:#5446F4;stroke-width:1px;stroke-linecap:butt;stroke-linejoin:miter;stroke-opacity:1"/>
<ellipse cx="502.61" cy="180.628" rx="7.47716" ry="7.47716" style="fill:#6B4EF9;fill-rule:evenodd;stroke:#6B4EF9;stroke-width:1px;stroke-linecap:butt;stroke-linejoin:miter;stroke-opacity:1"/>
<ellipse cx="519.458" cy="165.406" rx="7.47716" ry="7.47716" style="fill:#805CF9;fill-rule:evenodd;stroke:#805CF9;stroke-width:1px;stroke-linecap:butt;stroke-linejoin:miter;stroke-opacity:1"/>
<ellipse cx="514.7" cy="143.201" rx="7.47716" ry="7.47716" style="fill:#CFAA27;fill-rule:evenodd;stroke:#CFAA27;stroke-width:1px;stroke-linecap:butt;stroke-linejoin:miter;stroke-opacity:1"/>
<ellipse cx="493.093" cy="136.218" rx="7.47716" ry="7.47716" style="fill:#B8A444;fill-rule:evenodd;stroke:#B8A444;stroke-width:1px;stroke-linecap:butt;stroke-linejoin:miter;stroke-opacity:1"/>
<ellipse cx="488.335" cy="114.013" rx="7.47716" ry="7.47716" style="fill:#A19F62;fill-rule:evenodd;stroke:#A19F62;stroke-width:1px;stroke-linecap:butt;stroke-linejoin:miter;stroke-opacity:1"/>
<ellipse cx="476.245" cy="151.444" rx="7.47716" ry="7.47716" style="fill:#7C947A;fill-rule:evenodd;stroke:#7C947A;stroke-width:1px;stroke-linecap:butt;stroke-linejoin:miter;stroke-opacity:1"/>
<ellipse cx="466.552" cy="211.531" rx="7.47716" ry="7.47716" style="fill:#588A93;fill-rule:evenodd;stroke:#588A93;stroke-width:1px;stroke-linecap:butt;stroke-linejoin:miter;stroke-opacity:1"/>
<ellipse cx="445.869" cy="220.647" rx="7.47716" ry="7.47716" style="fill:#3D79AB;fill-rule:evenodd;stroke:#3D79AB;stroke-width:1px;stroke-linecap:butt;stroke-linejoin:miter;stroke-opacity:1"/>
<ellipse cx="441.193" cy="242.82" rx="7.47716" ry="7.47716" style="fill:#2269C4;fill-rule:evenodd;stroke:#2269C4;stroke-width:1px;stroke-linecap:butt;stroke-linejoin:miter;stroke-opacity:1"/>
<ellipse cx="458.055" cy="258.03" rx="7.47716" ry="7.47716" style="fill:#3053DA;fill-rule:evenodd;stroke:#3053DA;stroke-width:1px;stroke-linecap:butt;stroke-linejoin:miter;stroke-opacity:1"/>
<ellipse cx="421.525" cy="249.932" rx="8.89414" ry="7.47716" style="fill:#3E3EF0;fill-rule:evenodd;stroke:#3E3EF0;stroke-width:1px;stroke-linecap:butt;stroke-linejoin:miter;stroke-opacity:1"/>
<ellipse cx="413.119" cy="174.578" rx="7.47716" ry="7.47716" style="fill:#5446F4;fill-rule:evenodd;stroke:#5446F4;stroke-width:1px;stroke-linecap:butt;stroke-linejoin:miter;stroke-opacity:1"/>
<ellipse cx="392.405" cy="165.393" rx="7.47716" ry="7.47716" style="fill:#6B4EF9;fill-rule:evenodd;stroke:#6B4EF9;stroke-width:1px;stroke-linecap:butt;stroke-linejoin:miter;stroke-opacity:1"/>
<ellipse cx="507.368" cy="202.833" rx="7.47716" ry="7.47716" style="fill:#805CF9;fill-rule:evenodd;stroke:#805CF9;stroke-width:1px;stroke-linecap:butt;stroke-linejoin:miter;stroke-opacity:1"/>
<ellipse cx="541.07" cy="172.39" rx="7.47716" ry="7.47716" style="fill:#CFAA27;fill-rule:evenodd;stroke:#CFAA27;stroke-width:1px;stroke-linecap:butt;stroke-linejoin:miter;stroke-opacity:1"/>
<ellipse cx="531.553" cy="127.98" rx="7.47716" ry="7.47716" style="fill:#B8A444;fill-rule:evenodd;stroke:#B8A444;stroke-width:1px;stroke-linecap:butt;stroke-linejoin:miter;stroke-opacity:1"/>
<ellipse cx="454.634" cy="144.461" rx="7.47716" ry="7.47716" style="fill:#A19F62;fill-rule:evenodd;stroke:#A19F62;stroke-width:1px;stroke-linecap:butt;stroke-linejoin:miter;stroke-opacity:1"/>
<path class="bond-0" d="M 361.351,178.797 L 365.99,185.162" style="fill:none;fill-rule:evenodd;stroke:#FF0000;stroke-width:2.0px;stroke-linecap:butt;stroke-linejoin:miter;stroke-opacity:1"/>
<path class="bond-0" d="M 365.99,185.162 L 370.628,191.527" style="fill:none;fill-rule:evenodd;stroke:#000000;stroke-width:2.0px;stroke-linecap:butt;stroke-linejoin:miter;stroke-opacity:1"/>
<path class="bond-0" d="M 364.647,176.395 L 369.286,182.76" style="fill:none;fill-rule:evenodd;stroke:#FF0000;stroke-width:2.0px;stroke-linecap:butt;stroke-linejoin:miter;stroke-opacity:1"/>
<path class="bond-0" d="M 369.286,182.76 L 373.924,189.125" style="fill:none;fill-rule:evenodd;stroke:#000000;stroke-width:2.0px;stroke-linecap:butt;stroke-linejoin:miter;stroke-opacity:1"/>
<path class="bond-1" d="M 372.276,190.326 L 368.888,197.966" style="fill:none;fill-rule:evenodd;stroke:#000000;stroke-width:2.0px;stroke-linecap:butt;stroke-linejoin:miter;stroke-opacity:1"/>
<path class="bond-1" d="M 368.888,197.966 L 365.5,205.606" style="fill:none;fill-rule:evenodd;stroke:#FF0000;stroke-width:2.0px;stroke-linecap:butt;stroke-linejoin:miter;stroke-opacity:1"/>
<path class="bond-2" d="M 372.276,190.326 L 394.807,187.924" style="fill:none;fill-rule:evenodd;stroke:#000000;stroke-width:2.0px;stroke-linecap:butt;stroke-linejoin:miter;stroke-opacity:1"/>
<path class="bond-3" d="M 394.807,187.924 L 399.5,194.363" style="fill:none;fill-rule:evenodd;stroke:#000000;stroke-width:2.0px;stroke-linecap:butt;stroke-linejoin:miter;stroke-opacity:1"/>
<path class="bond-3" d="M 399.5,194.363 L 404.193,200.803" style="fill:none;fill-rule:evenodd;stroke:#FF0000;stroke-width:2.0px;stroke-linecap:butt;stroke-linejoin:miter;stroke-opacity:1"/>
<path class="bond-4" d="M 394.807,187.924 L 408.787,177.736" style="fill:none;fill-rule:evenodd;stroke:#000000;stroke-width:2.0px;stroke-linecap:butt;stroke-linejoin:miter;stroke-opacity:1"/>
<path class="bond-5" d="M 394.807,187.924 L 392.979,170.772" style="fill:none;fill-rule:evenodd;stroke:#000000;stroke-width:2.0px;stroke-linecap:butt;stroke-linejoin:miter;stroke-opacity:1"/>
<path class="bond-6" d="M 413.138,205.705 L 421.911,204.77" style="fill:none;fill-rule:evenodd;stroke:#FF0000;stroke-width:2.0px;stroke-linecap:butt;stroke-linejoin:miter;stroke-opacity:1"/>
<path class="bond-6" d="M 421.911,204.77 L 430.684,203.834" style="fill:none;fill-rule:evenodd;stroke:#000000;stroke-width:2.0px;stroke-linecap:butt;stroke-linejoin:miter;stroke-opacity:1"/>
<path class="bond-7" d="M 430.684,203.834 L 441.981,184.194" style="fill:none;fill-rule:evenodd;stroke:#000000;stroke-width:2.0px;stroke-linecap:butt;stroke-linejoin:miter;stroke-opacity:1"/>
<path class="bond-8" d="M 430.684,203.834 L 445.869,220.647" style="fill:none;fill-rule:evenodd;stroke:#000000;stroke-width:2.0px;stroke-linecap:butt;stroke-linejoin:miter;stroke-opacity:1"/>
<path class="bond-8" d="M 435.988,203.623 L 446.618,215.391" style="fill:none;fill-rule:evenodd;stroke:#000000;stroke-width:2.0px;stroke-linecap:butt;stroke-linejoin:miter;stroke-opacity:1"/>
<path class="bond-9" d="M 441.981,184.194 L 438.56,176.543" style="fill:none;fill-rule:evenodd;stroke:#000000;stroke-width:2.0px;stroke-linecap:butt;stroke-linejoin:miter;stroke-opacity:1"/>
<path class="bond-9" d="M 438.56,176.543 L 435.138,168.891" style="fill:none;fill-rule:evenodd;stroke:#7F4C19;stroke-width:2.0px;stroke-linecap:butt;stroke-linejoin:miter;stroke-opacity:1"/>
<path class="bond-10" d="M 441.981,184.194 L 464.15,188.871" style="fill:none;fill-rule:evenodd;stroke:#000000;stroke-width:2.0px;stroke-linecap:butt;stroke-linejoin:miter;stroke-opacity:1"/>
<path class="bond-10" d="M 444.465,188.887 L 459.983,192.16" style="fill:none;fill-rule:evenodd;stroke:#000000;stroke-width:2.0px;stroke-linecap:butt;stroke-linejoin:miter;stroke-opacity:1"/>
<path class="bond-11" d="M 464.15,188.871 L 481.003,173.649" style="fill:none;fill-rule:evenodd;stroke:#000000;stroke-width:2.0px;stroke-linecap:butt;stroke-linejoin:miter;stroke-opacity:1"/>
<path class="bond-12" d="M 464.15,188.871 L 465.065,197.454" style="fill:none;fill-rule:evenodd;stroke:#000000;stroke-width:2.0px;stroke-linecap:butt;stroke-linejoin:miter;stroke-opacity:1"/>
<path class="bond-12" d="M 465.065,197.454 L 465.98,206.037" style="fill:none;fill-rule:evenodd;stroke:#CCCC00;stroke-width:2.0px;stroke-linecap:butt;stroke-linejoin:miter;stroke-opacity:1"/>
<path class="bond-13" d="M 481.003,173.649 L 502.61,180.628" style="fill:none;fill-rule:evenodd;stroke:#000000;stroke-width:2.0px;stroke-linecap:butt;stroke-linejoin:miter;stroke-opacity:1"/>
<path class="bond-13" d="M 485.498,170.815 L 500.622,175.7" style="fill:none;fill-rule:evenodd;stroke:#000000;stroke-width:2.0px;stroke-linecap:butt;stroke-linejoin:miter;stroke-opacity:1"/>
<path class="bond-14" d="M 481.003,173.649 L 476.245,151.444" style="fill:none;fill-rule:evenodd;stroke:#000000;stroke-width:2.0px;stroke-linecap:butt;stroke-linejoin:miter;stroke-opacity:1"/>
<path class="bond-15" d="M 502.61,180.628 L 519.458,165.406" style="fill:none;fill-rule:evenodd;stroke:#000000;stroke-width:2.0px;stroke-linecap:butt;stroke-linejoin:miter;stroke-opacity:1"/>
<path class="bond-16" d="M 502.61,180.628 L 506.215,197.453" style="fill:none;fill-rule:evenodd;stroke:#000000;stroke-width:2.0px;stroke-linecap:butt;stroke-linejoin:miter;stroke-opacity:1"/>
<path class="bond-17" d="M 519.458,165.406 L 514.7,143.201" style="fill:none;fill-rule:evenodd;stroke:#000000;stroke-width:2.0px;stroke-linecap:butt;stroke-linejoin:miter;stroke-opacity:1"/>
<path class="bond-17" d="M 514.757,162.93 L 511.426,147.387" style="fill:none;fill-rule:evenodd;stroke:#000000;stroke-width:2.0px;stroke-linecap:butt;stroke-linejoin:miter;stroke-opacity:1"/>
<path class="bond-18" d="M 519.458,165.406 L 536.736,170.989" style="fill:none;fill-rule:evenodd;stroke:#000000;stroke-width:2.0px;stroke-linecap:butt;stroke-linejoin:miter;stroke-opacity:1"/>
<path class="bond-19" d="M 514.7,143.201 L 493.093,136.218" style="fill:none;fill-rule:evenodd;stroke:#000000;stroke-width:2.0px;stroke-linecap:butt;stroke-linejoin:miter;stroke-opacity:1"/>
<path class="bond-20" d="M 514.7,143.201 L 527.22,131.894" style="fill:none;fill-rule:evenodd;stroke:#000000;stroke-width:2.0px;stroke-linecap:butt;stroke-linejoin:miter;stroke-opacity:1"/>
<path class="bond-21" d="M 493.093,136.218 L 491.291,127.806" style="fill:none;fill-rule:evenodd;stroke:#000000;stroke-width:2.0px;stroke-linecap:butt;stroke-linejoin:miter;stroke-opacity:1"/>
<path class="bond-21" d="M 491.291,127.806 L 489.488,119.394" style="fill:none;fill-rule:evenodd;stroke:#0000FF;stroke-width:2.0px;stroke-linecap:butt;stroke-linejoin:miter;stroke-opacity:1"/>
<path class="bond-22" d="M 493.093,136.218 L 476.245,151.444" style="fill:none;fill-rule:evenodd;stroke:#000000;stroke-width:2.0px;stroke-linecap:butt;stroke-linejoin:miter;stroke-opacity:1"/>
<path class="bond-22" d="M 493.301,141.528 L 481.507,152.186" style="fill:none;fill-rule:evenodd;stroke:#000000;stroke-width:2.0px;stroke-linecap:butt;stroke-linejoin:miter;stroke-opacity:1"/>
<path class="bond-23" d="M 484.119,112.651 L 477.557,110.532" style="fill:none;fill-rule:evenodd;stroke:#0000FF;stroke-width:2.0px;stroke-linecap:butt;stroke-linejoin:miter;stroke-opacity:1"/>
<path class="bond-23" d="M 477.557,110.532 L 470.995,108.412" style="fill:none;fill-rule:evenodd;stroke:#000000;stroke-width:2.0px;stroke-linecap:butt;stroke-linejoin:miter;stroke-opacity:1"/>
<path class="bond-24" d="M 492.552,110.204 L 496.755,106.406" style="fill:none;fill-rule:evenodd;stroke:#0000FF;stroke-width:2.0px;stroke-linecap:butt;stroke-linejoin:miter;stroke-opacity:1"/>
<path class="bond-24" d="M 496.755,106.406 L 500.957,102.609" style="fill:none;fill-rule:evenodd;stroke:#000000;stroke-width:2.0px;stroke-linecap:butt;stroke-linejoin:miter;stroke-opacity:1"/>
<path class="bond-25" d="M 476.245,151.444 L 458.967,145.862" style="fill:none;fill-rule:evenodd;stroke:#000000;stroke-width:2.0px;stroke-linecap:butt;stroke-linejoin:miter;stroke-opacity:1"/>
<path class="bond-26" d="M 462.899,213.035 L 454.384,216.841" style="fill:none;fill-rule:evenodd;stroke:#CCCC00;stroke-width:2.0px;stroke-linecap:butt;stroke-linejoin:miter;stroke-opacity:1"/>
<path class="bond-26" d="M 454.384,216.841 L 445.869,220.647" style="fill:none;fill-rule:evenodd;stroke:#000000;stroke-width:2.0px;stroke-linecap:butt;stroke-linejoin:miter;stroke-opacity:1"/>
<path class="bond-27" d="M 445.869,220.647 L 441.193,242.82" style="fill:none;fill-rule:evenodd;stroke:#000000;stroke-width:2.0px;stroke-linecap:butt;stroke-linejoin:miter;stroke-opacity:1"/>
<path class="bond-28" d="M 439.831,244.337 L 445.769,249.668" style="fill:none;fill-rule:evenodd;stroke:#000000;stroke-width:2.0px;stroke-linecap:butt;stroke-linejoin:miter;stroke-opacity:1"/>
<path class="bond-28" d="M 445.769,249.668 L 451.708,254.999" style="fill:none;fill-rule:evenodd;stroke:#FF0000;stroke-width:2.0px;stroke-linecap:butt;stroke-linejoin:miter;stroke-opacity:1"/>
<path class="bond-28" d="M 442.555,241.302 L 448.494,246.633" style="fill:none;fill-rule:evenodd;stroke:#000000;stroke-width:2.0px;stroke-linecap:butt;stroke-linejoin:miter;stroke-opacity:1"/>
<path class="bond-28" d="M 448.494,246.633 L 454.432,251.964" style="fill:none;fill-rule:evenodd;stroke:#FF0000;stroke-width:2.0px;stroke-linecap:butt;stroke-linejoin:miter;stroke-opacity:1"/>
<path class="bond-29" d="M 441.193,242.82 L 434.787,244.913" style="fill:none;fill-rule:evenodd;stroke:#000000;stroke-width:2.0px;stroke-linecap:butt;stroke-linejoin:miter;stroke-opacity:1"/>
<path class="bond-29" d="M 434.787,244.913 L 428.38,247.006" style="fill:none;fill-rule:evenodd;stroke:#FF0000;stroke-width:2.0px;stroke-linecap:butt;stroke-linejoin:miter;stroke-opacity:1"/>
<path class="atom-0" d="M 354.512 172.041 Q 354.512 169.729, 355.654 168.438 Q 356.796 167.146, 358.93 167.146 Q 361.065 167.146, 362.207 168.438 Q 363.349 169.729, 363.349 172.041 Q 363.349 174.379, 362.193 175.711 Q 361.038 177.03, 358.93 177.03 Q 356.81 177.03, 355.654 175.711 Q 354.512 174.393, 354.512 172.041 M 358.93 175.942 Q 360.399 175.942, 361.187 174.963 Q 361.989 173.971, 361.989 172.041 Q 361.989 170.151, 361.187 169.199 Q 360.399 168.234, 358.93 168.234 Q 357.462 168.234, 356.66 169.186 Q 355.872 170.137, 355.872 172.041 Q 355.872 173.985, 356.66 174.963 Q 357.462 175.942, 358.93 175.942 " fill="#FF0000"/>
<path class="atom-2" d="M 358.672 211.067 Q 358.672 208.756, 359.814 207.464 Q 360.956 206.173, 363.09 206.173 Q 365.225 206.173, 366.367 207.464 Q 367.509 208.756, 367.509 211.067 Q 367.509 213.405, 366.353 214.737 Q 365.198 216.056, 363.09 216.056 Q 360.97 216.056, 359.814 214.737 Q 358.672 213.419, 358.672 211.067 M 363.09 214.969 Q 364.559 214.969, 365.347 213.99 Q 366.149 212.997, 366.149 211.067 Q 366.149 209.177, 365.347 208.226 Q 364.559 207.26, 363.09 207.26 Q 361.622 207.26, 360.82 208.212 Q 360.032 209.164, 360.032 211.067 Q 360.032 213.011, 360.82 213.99 Q 361.622 214.969, 363.09 214.969 " fill="#FF0000"/>
<path class="atom-2" d="M 367.957 207.744 L 371.25 207.744 L 371.25 208.462 L 367.957 208.462 L 367.957 207.744 " fill="#FF0000"/>
<path class="atom-4" d="M 403.735 206.263 Q 403.735 203.952, 404.876 202.661 Q 406.018 201.369, 408.153 201.369 Q 410.287 201.369, 411.429 202.661 Q 412.571 203.952, 412.571 206.263 Q 412.571 208.602, 411.416 209.934 Q 410.26 211.253, 408.153 211.253 Q 406.032 211.253, 404.876 209.934 Q 403.735 208.615, 403.735 206.263 M 408.153 210.165 Q 409.621 210.165, 410.41 209.186 Q 411.212 208.194, 411.212 206.263 Q 411.212 204.374, 410.41 203.422 Q 409.621 202.457, 408.153 202.457 Q 406.685 202.457, 405.882 203.408 Q 405.094 204.36, 405.094 206.263 Q 405.094 208.207, 405.882 209.186 Q 406.685 210.165, 408.153 210.165 " fill="#FF0000"/>
<path class="atom-7" d="M 427.709 163.267 Q 428.633 163.526, 429.096 164.097 Q 429.571 164.654, 429.571 165.483 Q 429.571 166.816, 428.715 167.577 Q 427.872 168.325, 426.268 168.325 L 423.032 168.325 L 423.032 158.7 L 425.874 158.7 Q 427.519 158.7, 428.348 159.366 Q 429.177 160.032, 429.177 161.255 Q 429.177 162.71, 427.709 163.267 M 424.324 159.787 L 424.324 162.805 L 425.874 162.805 Q 426.825 162.805, 427.315 162.425 Q 427.818 162.03, 427.818 161.255 Q 427.818 159.787, 425.874 159.787 L 424.324 159.787 M 426.268 167.237 Q 427.206 167.237, 427.709 166.788 Q 428.212 166.34, 428.212 165.483 Q 428.212 164.695, 427.655 164.301 Q 427.111 163.893, 426.064 163.893 L 424.324 163.893 L 424.324 167.237 L 426.268 167.237 " fill="#7F4C19"/>
<path class="atom-7" d="M 431.76 161.337 L 431.91 162.302 Q 432.644 161.215, 433.84 161.215 Q 434.221 161.215, 434.738 161.351 L 434.534 162.493 Q 433.949 162.357, 433.623 162.357 Q 433.052 162.357, 432.671 162.588 Q 432.304 162.805, 432.005 163.335 L 432.005 168.325 L 430.727 168.325 L 430.727 161.337 L 431.76 161.337 " fill="#7F4C19"/>
<path class="atom-14" d="M 486.208 109.201 L 489.362 114.299 Q 489.674 114.802, 490.177 115.713 Q 490.68 116.624, 490.707 116.678 L 490.707 109.201 L 491.985 109.201 L 491.985 118.826 L 490.667 118.826 L 487.282 113.252 Q 486.887 112.599, 486.466 111.852 Q 486.058 111.104, 485.936 110.873 L 485.936 118.826 L 484.685 118.826 L 484.685 109.201 L 486.208 109.201 " fill="#0000FF"/>
<path class="atom-16" d="M 463.833 214.706 Q 463.942 214.747, 464.39 214.937 Q 464.839 215.127, 465.328 215.25 Q 465.831 215.358, 466.321 215.358 Q 467.231 215.358, 467.762 214.923 Q 468.292 214.475, 468.292 213.7 Q 468.292 213.17, 468.02 212.843 Q 467.762 212.517, 467.354 212.34 Q 466.946 212.164, 466.266 211.96 Q 465.41 211.701, 464.893 211.457 Q 464.39 211.212, 464.023 210.695 Q 463.67 210.179, 463.67 209.309 Q 463.67 208.099, 464.485 207.351 Q 465.315 206.603, 466.946 206.603 Q 468.061 206.603, 469.325 207.133 L 469.012 208.18 Q 467.857 207.704, 466.987 207.704 Q 466.049 207.704, 465.532 208.099 Q 465.015 208.479, 465.029 209.145 Q 465.029 209.662, 465.287 209.975 Q 465.559 210.287, 465.94 210.464 Q 466.334 210.641, 466.987 210.845 Q 467.857 211.117, 468.373 211.389 Q 468.89 211.66, 469.257 212.218 Q 469.638 212.762, 469.638 213.7 Q 469.638 215.032, 468.74 215.753 Q 467.857 216.459, 466.375 216.459 Q 465.519 216.459, 464.866 216.269 Q 464.227 216.092, 463.466 215.78 L 463.833 214.706 " fill="#CCCC00"/>
<path class="atom-19" d="M 453.637 257.983 Q 453.637 255.672, 454.779 254.38 Q 455.921 253.088, 458.055 253.088 Q 460.189 253.088, 461.331 254.38 Q 462.473 255.672, 462.473 257.983 Q 462.473 260.321, 461.318 261.653 Q 460.162 262.972, 458.055 262.972 Q 455.934 262.972, 454.779 261.653 Q 453.637 260.335, 453.637 257.983 M 458.055 261.884 Q 459.523 261.884, 460.312 260.906 Q 461.114 259.913, 461.114 257.983 Q 461.114 256.093, 460.312 255.141 Q 459.523 254.176, 458.055 254.176 Q 456.587 254.176, 455.785 255.128 Q 454.996 256.079, 454.996 257.983 Q 454.996 259.927, 455.785 260.906 Q 456.587 261.884, 458.055 261.884 " fill="#FF0000"/>
<path class="atom-20" d="M 415.236 249.885 Q 415.236 247.574, 416.378 246.282 Q 417.52 244.991, 419.654 244.991 Q 421.788 244.991, 422.93 246.282 Q 424.072 247.574, 424.072 249.885 Q 424.072 252.223, 422.917 253.555 Q 421.761 254.874, 419.654 254.874 Q 417.533 254.874, 416.378 253.555 Q 415.236 252.237, 415.236 249.885 M 419.654 253.786 Q 421.122 253.786, 421.911 252.808 Q 422.713 251.815, 422.713 249.885 Q 422.713 247.995, 421.911 247.043 Q 421.122 246.078, 419.654 246.078 Q 418.186 246.078, 417.384 247.03 Q 416.595 247.981, 416.595 249.885 Q 416.595 251.829, 417.384 252.808 Q 418.186 253.786, 419.654 253.786 " fill="#FF0000"/>
<path class="atom-20" d="M 424.521 246.562 L 427.814 246.562 L 427.814 247.279 L 424.521 247.279 L 424.521 246.562 " fill="#FF0000"/>
<path class="atom-21" d="M 409.354 169.766 L 410.659 169.766 L 410.659 173.858 L 415.58 173.858 L 415.58 169.766 L 416.885 169.766 L 416.885 179.391 L 415.58 179.391 L 415.58 174.945 L 410.659 174.945 L 410.659 179.391 L 409.354 179.391 L 409.354 169.766 " fill="#000000"/>
<path class="atom-22" d="M 388.64 160.58 L 389.945 160.58 L 389.945 164.672 L 394.866 164.672 L 394.866 160.58 L 396.171 160.58 L 396.171 170.205 L 394.866 170.205 L 394.866 165.76 L 389.945 165.76 L 389.945 170.205 L 388.64 170.205 L 388.64 160.58 " fill="#000000"/>
<path class="atom-23" d="M 503.602 198.02 L 504.907 198.02 L 504.907 202.112 L 509.829 202.112 L 509.829 198.02 L 511.134 198.02 L 511.134 207.645 L 509.829 207.645 L 509.829 203.2 L 504.907 203.2 L 504.907 207.645 L 503.602 207.645 L 503.602 198.02 " fill="#000000"/>
<path class="atom-24" d="M 537.304 167.577 L 538.609 167.577 L 538.609 171.669 L 543.53 171.669 L 543.53 167.577 L 544.835 167.577 L 544.835 177.202 L 543.53 177.202 L 543.53 172.757 L 538.609 172.757 L 538.609 177.202 L 537.304 177.202 L 537.304 167.577 " fill="#000000"/>
<path class="atom-25" d="M 527.787 123.167 L 529.092 123.167 L 529.092 127.259 L 534.014 127.259 L 534.014 123.167 L 535.319 123.167 L 535.319 132.792 L 534.014 132.792 L 534.014 128.347 L 529.092 128.347 L 529.092 132.792 L 527.787 132.792 L 527.787 123.167 " fill="#000000"/>
<path class="atom-26" d="M 463.008 102.236 L 464.313 102.236 L 464.313 106.328 L 469.234 106.328 L 469.234 102.236 L 470.54 102.236 L 470.54 111.861 L 469.234 111.861 L 469.234 107.415 L 464.313 107.415 L 464.313 111.861 L 463.008 111.861 L 463.008 102.236 " fill="#000000"/>
<path class="atom-27" d="M 450.868 139.649 L 452.173 139.649 L 452.173 143.741 L 457.094 143.741 L 457.094 139.649 L 458.399 139.649 L 458.399 149.274 L 457.094 149.274 L 457.094 144.828 L 452.173 144.828 L 452.173 149.274 L 450.868 149.274 L 450.868 139.649 " fill="#000000"/>
<path class="atom-28" d="M 501.382 94.0108 L 502.687 94.0108 L 502.687 98.1028 L 507.608 98.1028 L 507.608 94.0108 L 508.913 94.0108 L 508.913 103.636 L 507.608 103.636 L 507.608 99.1904 L 502.687 99.1904 L 502.687 103.636 L 501.382 103.636 L 501.382 94.0108 " fill="#000000"/>
<text x="300" y="20" font-size="20" font-family="sans-serif" font-weight="normal" letter-spacing="0" text-anchor="middle" fill="black">ptp1b: 23471 -&gt; 23466</text><text x="300" y="35" font-size="15" font-family="sans-serif" font-weight="normal" letter-spacing="0" text-anchor="middle" fill="black">complex (repeats 4, 5, 6), water (repeats 4, 5, 6), DDG_exp = -0.1 (0.0) kcal/mol</text><text x="150" y="285" font-size="15" font-family="sans-serif" font-weight="normal" letter-spacing="0" text-anchor="middle" fill="black">23471</text><text x="450" y="285" font-size="15" font-family="sans-serif" font-weight="normal" letter-spacing="0" text-anchor="middle" fill="black">23466</text></svg>
