<?xml version='1.0' encoding='ASCII' standalone='yes'?>
<svg xmlns="http://www.w3.org/2000/svg" xmlns:rdkit="http://www.rdkit.org/xml" xmlns:xlink="http://www.w3.org/1999/xlink" version="1.1" baseProfile="full" xml:space="preserve" width="600px" height="300px" viewBox="0 0 600 300">
<!-- END OF HEADER -->
<rect style="opacity:1.0;fill:#FFFFFF;stroke:none" width="600" height="300" x="0" y="0"> </rect>
<rect style="opacity:1.0;fill:#FFFFFF;stroke:none" width="600" height="300" x="0" y="0"> </rect>
<rect style="opacity:1.0;fill:#FFFFFF;stroke:none" width="600" height="300" x="0" y="0"> </rect>
<ellipse cx="43.0753" cy="132.895" rx="5.98924" ry="5.98924" style="fill:#CFAA27;fill-rule:evenodd;stroke:#CFAA27;stroke-width:1px;stroke-linecap:butt;stroke-linejoin:miter;stroke-opacity:1"/>
<ellipse cx="61.067" cy="130.493" rx="5.98924" ry="5.98924" style="fill:#B8A444;fill-rule:evenodd;stroke:#B8A444;stroke-width:1px;stroke-linecap:butt;stroke-linejoin:miter;stroke-opacity:1"/>
<ellipse cx="69.5407" cy="113.799" rx="7.12425" ry="5.98924" style="fill:#A19F62;fill-rule:evenodd;stroke:#A19F62;stroke-width:1px;stroke-linecap:butt;stroke-linejoin:miter;stroke-opacity:1"/>
<ellipse cx="72.0829" cy="144.893" rx="5.98924" ry="5.98924" style="fill:#7C947A;fill-rule:evenodd;stroke:#7C947A;stroke-width:1px;stroke-linecap:butt;stroke-linejoin:miter;stroke-opacity:1"/>
<ellipse cx="65.1262" cy="161.716" rx="5.98924" ry="5.98924" style="fill:#588A93;fill-rule:evenodd;stroke:#588A93;stroke-width:1px;stroke-linecap:butt;stroke-linejoin:miter;stroke-opacity:1"/>
<ellipse cx="76.226" cy="175.787" rx="5.98924" ry="5.98924" style="fill:#3D79AB;fill-rule:evenodd;stroke:#3D79AB;stroke-width:1px;stroke-linecap:butt;stroke-linejoin:miter;stroke-opacity:1"/>
<ellipse cx="94.3711" cy="175.453" rx="5.98924" ry="5.98924" style="fill:#2269C4;fill-rule:evenodd;stroke:#2269C4;stroke-width:1px;stroke-linecap:butt;stroke-linejoin:miter;stroke-opacity:1"/>
<ellipse cx="105.633" cy="160.332" rx="9.07461" ry="9.07461" style="fill:#C21F30;fill-rule:evenodd;stroke:#C21F30;stroke-width:1px;stroke-linecap:butt;stroke-linejoin:miter;stroke-opacity:1"/>
<ellipse cx="100.833" cy="192.525" rx="5.98924" ry="5.98924" style="fill:#3E3EF0;fill-rule:evenodd;stroke:#3E3EF0;stroke-width:1px;stroke-linecap:butt;stroke-linejoin:miter;stroke-opacity:1"/>
<ellipse cx="118.282" cy="197.635" rx="5.98924" ry="5.98924" style="fill:#5446F4;fill-rule:evenodd;stroke:#5446F4;stroke-width:1px;stroke-linecap:butt;stroke-linejoin:miter;stroke-opacity:1"/>
<ellipse cx="121.951" cy="215.101" rx="5.98924" ry="5.98924" style="fill:#6B4EF9;fill-rule:evenodd;stroke:#6B4EF9;stroke-width:1px;stroke-linecap:butt;stroke-linejoin:miter;stroke-opacity:1"/>
<ellipse cx="139.444" cy="220.326" rx="5.98924" ry="5.98924" style="fill:#805CF9;fill-rule:evenodd;stroke:#805CF9;stroke-width:1px;stroke-linecap:butt;stroke-linejoin:miter;stroke-opacity:1"/>
<ellipse cx="152.68" cy="208.618" rx="5.98924" ry="5.98924" style="fill:#CFAA27;fill-rule:evenodd;stroke:#CFAA27;stroke-width:1px;stroke-linecap:butt;stroke-linejoin:miter;stroke-opacity:1"/>
<ellipse cx="148.488" cy="191.283" rx="5.98924" ry="5.98924" style="fill:#B8A444;fill-rule:evenodd;stroke:#B8A444;stroke-width:1px;stroke-linecap:butt;stroke-linejoin:miter;stroke-opacity:1"/>
<ellipse cx="161.585" cy="180.713" rx="5.98924" ry="5.98924" style="fill:#A19F62;fill-rule:evenodd;stroke:#A19F62;stroke-width:1px;stroke-linecap:butt;stroke-linejoin:miter;stroke-opacity:1"/>
<ellipse cx="158.307" cy="160.578" rx="5.98924" ry="5.98924" style="fill:#7C947A;fill-rule:evenodd;stroke:#7C947A;stroke-width:1px;stroke-linecap:butt;stroke-linejoin:miter;stroke-opacity:1"/>
<ellipse cx="177.963" cy="158.552" rx="5.98924" ry="5.98924" style="fill:#588A93;fill-rule:evenodd;stroke:#588A93;stroke-width:1px;stroke-linecap:butt;stroke-linejoin:miter;stroke-opacity:1"/>
<ellipse cx="185.252" cy="140.39" rx="5.98924" ry="5.98924" style="fill:#3D79AB;fill-rule:evenodd;stroke:#3D79AB;stroke-width:1px;stroke-linecap:butt;stroke-linejoin:miter;stroke-opacity:1"/>
<ellipse cx="173.524" cy="124.223" rx="9.07461" ry="9.07461" style="fill:#CF244B;fill-rule:evenodd;stroke:#CF244B;stroke-width:1px;stroke-linecap:butt;stroke-linejoin:miter;stroke-opacity:1"/>
<ellipse cx="181.202" cy="107.065" rx="9.07461" ry="9.07461" style="fill:#C21F30;fill-rule:evenodd;stroke:#C21F30;stroke-width:1px;stroke-linecap:butt;stroke-linejoin:miter;stroke-opacity:1"/>
<ellipse cx="165.388" cy="98.7283" rx="5.98924" ry="5.98924" style="fill:#3E3EF0;fill-rule:evenodd;stroke:#3E3EF0;stroke-width:1px;stroke-linecap:butt;stroke-linejoin:miter;stroke-opacity:1"/>
<ellipse cx="189.455" cy="92.4594" rx="5.98924" ry="5.98924" style="fill:#5446F4;fill-rule:evenodd;stroke:#5446F4;stroke-width:1px;stroke-linecap:butt;stroke-linejoin:miter;stroke-opacity:1"/>
<ellipse cx="153.996" cy="126.901" rx="5.98924" ry="5.98924" style="fill:#6B4EF9;fill-rule:evenodd;stroke:#6B4EF9;stroke-width:1px;stroke-linecap:butt;stroke-linejoin:miter;stroke-opacity:1"/>
<ellipse cx="145.987" cy="144.772" rx="5.98924" ry="5.98924" style="fill:#805CF9;fill-rule:evenodd;stroke:#805CF9;stroke-width:1px;stroke-linecap:butt;stroke-linejoin:miter;stroke-opacity:1"/>
<ellipse cx="131.125" cy="185.509" rx="5.98924" ry="5.98924" style="fill:#CFAA27;fill-rule:evenodd;stroke:#CFAA27;stroke-width:1px;stroke-linecap:butt;stroke-linejoin:miter;stroke-opacity:1"/>
<ellipse cx="86.263" cy="203.636" rx="5.98924" ry="5.98924" style="fill:#B8A444;fill-rule:evenodd;stroke:#B8A444;stroke-width:1px;stroke-linecap:butt;stroke-linejoin:miter;stroke-opacity:1"/>
<ellipse cx="71.0893" cy="193.576" rx="5.98924" ry="5.98924" style="fill:#A19F62;fill-rule:evenodd;stroke:#A19F62;stroke-width:1px;stroke-linecap:butt;stroke-linejoin:miter;stroke-opacity:1"/>
<ellipse cx="54.1114" cy="199.572" rx="5.98924" ry="5.98924" style="fill:#7C947A;fill-rule:evenodd;stroke:#7C947A;stroke-width:1px;stroke-linecap:butt;stroke-linejoin:miter;stroke-opacity:1"/>
<ellipse cx="50.9139" cy="217.506" rx="5.98924" ry="5.98924" style="fill:#588A93;fill-rule:evenodd;stroke:#588A93;stroke-width:1px;stroke-linecap:butt;stroke-linejoin:miter;stroke-opacity:1"/>
<ellipse cx="41.7396" cy="187.938" rx="7.12425" ry="5.98924" style="fill:#3D79AB;fill-rule:evenodd;stroke:#3D79AB;stroke-width:1px;stroke-linecap:butt;stroke-linejoin:miter;stroke-opacity:1"/>
<ellipse cx="88.8467" cy="151.86" rx="5.98924" ry="5.98924" style="fill:#2269C4;fill-rule:evenodd;stroke:#2269C4;stroke-width:1px;stroke-linecap:butt;stroke-linejoin:miter;stroke-opacity:1"/>
<ellipse cx="86.5004" cy="133.866" rx="5.98924" ry="5.98924" style="fill:#3053DA;fill-rule:evenodd;stroke:#3053DA;stroke-width:1px;stroke-linecap:butt;stroke-linejoin:miter;stroke-opacity:1"/>
<ellipse cx="108.736" cy="227.271" rx="5.98924" ry="5.98924" style="fill:#3E3EF0;fill-rule:evenodd;stroke:#3E3EF0;stroke-width:1px;stroke-linecap:butt;stroke-linejoin:miter;stroke-opacity:1"/>
<ellipse cx="143.401" cy="238.227" rx="5.98924" ry="5.98924" style="fill:#5446F4;fill-rule:evenodd;stroke:#5446F4;stroke-width:1px;stroke-linecap:butt;stroke-linejoin:miter;stroke-opacity:1"/>
<ellipse cx="169.819" cy="214.002" rx="5.98924" ry="5.98924" style="fill:#6B4EF9;fill-rule:evenodd;stroke:#6B4EF9;stroke-width:1px;stroke-linecap:butt;stroke-linejoin:miter;stroke-opacity:1"/>
<ellipse cx="142.362" cy="168.724" rx="5.98924" ry="5.98924" style="fill:#805CF9;fill-rule:evenodd;stroke:#805CF9;stroke-width:1px;stroke-linecap:butt;stroke-linejoin:miter;stroke-opacity:1"/>
<ellipse cx="195.322" cy="162.507" rx="5.98924" ry="5.98924" style="fill:#CFAA27;fill-rule:evenodd;stroke:#CFAA27;stroke-width:1px;stroke-linecap:butt;stroke-linejoin:miter;stroke-opacity:1"/>
<ellipse cx="178.361" cy="172.998" rx="5.98924" ry="5.98924" style="fill:#B8A444;fill-rule:evenodd;stroke:#B8A444;stroke-width:1px;stroke-linecap:butt;stroke-linejoin:miter;stroke-opacity:1"/>
<ellipse cx="196.244" cy="128.063" rx="5.98924" ry="5.98924" style="fill:#A19F62;fill-rule:evenodd;stroke:#A19F62;stroke-width:1px;stroke-linecap:butt;stroke-linejoin:miter;stroke-opacity:1"/>
<ellipse cx="201.085" cy="149.183" rx="5.98924" ry="5.98924" style="fill:#7C947A;fill-rule:evenodd;stroke:#7C947A;stroke-width:1px;stroke-linecap:butt;stroke-linejoin:miter;stroke-opacity:1"/>
<ellipse cx="173.776" cy="83.3614" rx="5.98924" ry="5.98924" style="fill:#588A93;fill-rule:evenodd;stroke:#588A93;stroke-width:1px;stroke-linecap:butt;stroke-linejoin:miter;stroke-opacity:1"/>
<ellipse cx="189.669" cy="74.328" rx="5.98924" ry="5.98924" style="fill:#3D79AB;fill-rule:evenodd;stroke:#3D79AB;stroke-width:1px;stroke-linecap:butt;stroke-linejoin:miter;stroke-opacity:1"/>
<ellipse cx="136.599" cy="121.809" rx="5.98924" ry="5.98924" style="fill:#2269C4;fill-rule:evenodd;stroke:#2269C4;stroke-width:1px;stroke-linecap:butt;stroke-linejoin:miter;stroke-opacity:1"/>
<ellipse cx="155.085" cy="108.909" rx="5.98924" ry="5.98924" style="fill:#3053DA;fill-rule:evenodd;stroke:#3053DA;stroke-width:1px;stroke-linecap:butt;stroke-linejoin:miter;stroke-opacity:1"/>
<ellipse cx="134.353" cy="156.264" rx="5.98924" ry="5.98924" style="fill:#3E3EF0;fill-rule:evenodd;stroke:#3E3EF0;stroke-width:1px;stroke-linecap:butt;stroke-linejoin:miter;stroke-opacity:1"/>
<ellipse cx="130.908" cy="135.243" rx="5.98924" ry="5.98924" style="fill:#5446F4;fill-rule:evenodd;stroke:#5446F4;stroke-width:1px;stroke-linecap:butt;stroke-linejoin:miter;stroke-opacity:1"/>
<ellipse cx="127.533" cy="169.329" rx="5.98924" ry="5.98924" style="fill:#6B4EF9;fill-rule:evenodd;stroke:#6B4EF9;stroke-width:1px;stroke-linecap:butt;stroke-linejoin:miter;stroke-opacity:1"/>
<path class="bond-0" d="M 47.2788,133.935 L 54.2783,133.024" style="fill:none;fill-rule:evenodd;stroke:#FF0000;stroke-width:2.0px;stroke-linecap:butt;stroke-linejoin:miter;stroke-opacity:1"/>
<path class="bond-0" d="M 54.2783,133.024 L 61.2779,132.113" style="fill:none;fill-rule:evenodd;stroke:#000000;stroke-width:2.0px;stroke-linecap:butt;stroke-linejoin:miter;stroke-opacity:1"/>
<path class="bond-0" d="M 46.8571,130.696 L 53.8566,129.785" style="fill:none;fill-rule:evenodd;stroke:#FF0000;stroke-width:2.0px;stroke-linecap:butt;stroke-linejoin:miter;stroke-opacity:1"/>
<path class="bond-0" d="M 53.8566,129.785 L 60.8561,128.873" style="fill:none;fill-rule:evenodd;stroke:#000000;stroke-width:2.0px;stroke-linecap:butt;stroke-linejoin:miter;stroke-opacity:1"/>
<path class="bond-1" d="M 61.067,130.493 L 63.6237,124.352" style="fill:none;fill-rule:evenodd;stroke:#000000;stroke-width:2.0px;stroke-linecap:butt;stroke-linejoin:miter;stroke-opacity:1"/>
<path class="bond-1" d="M 63.6237,124.352 L 66.1804,118.211" style="fill:none;fill-rule:evenodd;stroke:#FF0000;stroke-width:2.0px;stroke-linecap:butt;stroke-linejoin:miter;stroke-opacity:1"/>
<path class="bond-2" d="M 61.067,130.493 L 72.0829,144.893" style="fill:none;fill-rule:evenodd;stroke:#000000;stroke-width:2.0px;stroke-linecap:butt;stroke-linejoin:miter;stroke-opacity:1"/>
<path class="bond-3" d="M 72.0829,144.893 L 69.5077,151.099" style="fill:none;fill-rule:evenodd;stroke:#000000;stroke-width:2.0px;stroke-linecap:butt;stroke-linejoin:miter;stroke-opacity:1"/>
<path class="bond-3" d="M 69.5077,151.099 L 66.9324,157.304" style="fill:none;fill-rule:evenodd;stroke:#FF0000;stroke-width:2.0px;stroke-linecap:butt;stroke-linejoin:miter;stroke-opacity:1"/>
<path class="bond-4" d="M 72.0829,144.893 L 85.3765,150.418" style="fill:none;fill-rule:evenodd;stroke:#000000;stroke-width:2.0px;stroke-linecap:butt;stroke-linejoin:miter;stroke-opacity:1"/>
<path class="bond-5" d="M 72.0829,144.893 L 83.0302,136.52" style="fill:none;fill-rule:evenodd;stroke:#000000;stroke-width:2.0px;stroke-linecap:butt;stroke-linejoin:miter;stroke-opacity:1"/>
<path class="bond-6" d="M 68.6355,166.124 L 72.4308,170.955" style="fill:none;fill-rule:evenodd;stroke:#FF0000;stroke-width:2.0px;stroke-linecap:butt;stroke-linejoin:miter;stroke-opacity:1"/>
<path class="bond-6" d="M 72.4308,170.955 L 76.226,175.787" style="fill:none;fill-rule:evenodd;stroke:#000000;stroke-width:2.0px;stroke-linecap:butt;stroke-linejoin:miter;stroke-opacity:1"/>
<path class="bond-7" d="M 76.226,175.787 L 94.3711,175.453" style="fill:none;fill-rule:evenodd;stroke:#000000;stroke-width:2.0px;stroke-linecap:butt;stroke-linejoin:miter;stroke-opacity:1"/>
<path class="bond-8" d="M 76.226,175.787 L 71.0893,193.576" style="fill:none;fill-rule:evenodd;stroke:#000000;stroke-width:2.0px;stroke-linecap:butt;stroke-linejoin:miter;stroke-opacity:1"/>
<path class="bond-8" d="M 78.5942,179.361 L 74.9984,191.814" style="fill:none;fill-rule:evenodd;stroke:#000000;stroke-width:2.0px;stroke-linecap:butt;stroke-linejoin:miter;stroke-opacity:1"/>
<path class="bond-9" d="M 94.3711,175.453 L 97.9268,170.212" style="fill:none;fill-rule:evenodd;stroke:#000000;stroke-width:2.0px;stroke-linecap:butt;stroke-linejoin:miter;stroke-opacity:1"/>
<path class="bond-9" d="M 97.9268,170.212 L 101.483,164.971" style="fill:none;fill-rule:evenodd;stroke:#00CC00;stroke-width:2.0px;stroke-linecap:butt;stroke-linejoin:miter;stroke-opacity:1"/>
<path class="bond-10" d="M 94.3711,175.453 L 100.833,192.525" style="fill:none;fill-rule:evenodd;stroke:#000000;stroke-width:2.0px;stroke-linecap:butt;stroke-linejoin:miter;stroke-opacity:1"/>
<path class="bond-10" d="M 92.285,179.17 L 96.8081,191.12" style="fill:none;fill-rule:evenodd;stroke:#000000;stroke-width:2.0px;stroke-linecap:butt;stroke-linejoin:miter;stroke-opacity:1"/>
<path class="bond-11" d="M 100.833,192.525 L 118.282,197.635" style="fill:none;fill-rule:evenodd;stroke:#000000;stroke-width:2.0px;stroke-linecap:butt;stroke-linejoin:miter;stroke-opacity:1"/>
<path class="bond-12" d="M 100.833,192.525 L 95.012,196.923" style="fill:none;fill-rule:evenodd;stroke:#000000;stroke-width:2.0px;stroke-linecap:butt;stroke-linejoin:miter;stroke-opacity:1"/>
<path class="bond-12" d="M 95.012,196.923 L 89.1914,201.32" style="fill:none;fill-rule:evenodd;stroke:#CCCC00;stroke-width:2.0px;stroke-linecap:butt;stroke-linejoin:miter;stroke-opacity:1"/>
<path class="bond-13" d="M 118.282,197.635 L 121.951,215.101" style="fill:none;fill-rule:evenodd;stroke:#000000;stroke-width:2.0px;stroke-linecap:butt;stroke-linejoin:miter;stroke-opacity:1"/>
<path class="bond-13" d="M 122.03,199.584 L 124.598,211.81" style="fill:none;fill-rule:evenodd;stroke:#000000;stroke-width:2.0px;stroke-linecap:butt;stroke-linejoin:miter;stroke-opacity:1"/>
<path class="bond-14" d="M 118.282,197.635 L 131.125,185.509" style="fill:none;fill-rule:evenodd;stroke:#000000;stroke-width:2.0px;stroke-linecap:butt;stroke-linejoin:miter;stroke-opacity:1"/>
<path class="bond-15" d="M 121.951,215.101 L 139.444,220.326" style="fill:none;fill-rule:evenodd;stroke:#000000;stroke-width:2.0px;stroke-linecap:butt;stroke-linejoin:miter;stroke-opacity:1"/>
<path class="bond-16" d="M 121.951,215.101 L 112.202,224.08" style="fill:none;fill-rule:evenodd;stroke:#000000;stroke-width:2.0px;stroke-linecap:butt;stroke-linejoin:miter;stroke-opacity:1"/>
<path class="bond-17" d="M 139.444,220.326 L 152.68,208.618" style="fill:none;fill-rule:evenodd;stroke:#000000;stroke-width:2.0px;stroke-linecap:butt;stroke-linejoin:miter;stroke-opacity:1"/>
<path class="bond-17" d="M 139.265,216.122 L 148.53,207.928" style="fill:none;fill-rule:evenodd;stroke:#000000;stroke-width:2.0px;stroke-linecap:butt;stroke-linejoin:miter;stroke-opacity:1"/>
<path class="bond-18" d="M 139.444,220.326 L 142.448,233.914" style="fill:none;fill-rule:evenodd;stroke:#000000;stroke-width:2.0px;stroke-linecap:butt;stroke-linejoin:miter;stroke-opacity:1"/>
<path class="bond-19" d="M 152.68,208.618 L 148.488,191.283" style="fill:none;fill-rule:evenodd;stroke:#000000;stroke-width:2.0px;stroke-linecap:butt;stroke-linejoin:miter;stroke-opacity:1"/>
<path class="bond-20" d="M 152.68,208.618 L 166.354,212.913" style="fill:none;fill-rule:evenodd;stroke:#000000;stroke-width:2.0px;stroke-linecap:butt;stroke-linejoin:miter;stroke-opacity:1"/>
<path class="bond-21" d="M 148.488,191.283 L 153.364,187.348" style="fill:none;fill-rule:evenodd;stroke:#000000;stroke-width:2.0px;stroke-linecap:butt;stroke-linejoin:miter;stroke-opacity:1"/>
<path class="bond-21" d="M 153.364,187.348 L 158.241,183.413" style="fill:none;fill-rule:evenodd;stroke:#0000FF;stroke-width:2.0px;stroke-linecap:butt;stroke-linejoin:miter;stroke-opacity:1"/>
<path class="bond-22" d="M 148.488,191.283 L 131.125,185.509" style="fill:none;fill-rule:evenodd;stroke:#000000;stroke-width:2.0px;stroke-linecap:butt;stroke-linejoin:miter;stroke-opacity:1"/>
<path class="bond-22" d="M 144.853,193.517 L 132.699,189.475" style="fill:none;fill-rule:evenodd;stroke:#000000;stroke-width:2.0px;stroke-linecap:butt;stroke-linejoin:miter;stroke-opacity:1"/>
<path class="bond-23" d="M 160.875,176.349 L 159.591,168.463" style="fill:none;fill-rule:evenodd;stroke:#0000FF;stroke-width:2.0px;stroke-linecap:butt;stroke-linejoin:miter;stroke-opacity:1"/>
<path class="bond-23" d="M 159.591,168.463 L 158.307,160.578" style="fill:none;fill-rule:evenodd;stroke:#000000;stroke-width:2.0px;stroke-linecap:butt;stroke-linejoin:miter;stroke-opacity:1"/>
<path class="bond-24" d="M 164.963,182.403 L 169.698,184.773" style="fill:none;fill-rule:evenodd;stroke:#0000FF;stroke-width:2.0px;stroke-linecap:butt;stroke-linejoin:miter;stroke-opacity:1"/>
<path class="bond-24" d="M 169.698,184.773 L 174.433,187.142" style="fill:none;fill-rule:evenodd;stroke:#000000;stroke-width:2.0px;stroke-linecap:butt;stroke-linejoin:miter;stroke-opacity:1"/>
<path class="bond-25" d="M 158.307,160.578 L 177.963,158.552" style="fill:none;fill-rule:evenodd;stroke:#000000;stroke-width:2.0px;stroke-linecap:butt;stroke-linejoin:miter;stroke-opacity:1"/>
<path class="bond-26" d="M 158.307,160.578 L 145.987,144.772" style="fill:none;fill-rule:evenodd;stroke:#000000;stroke-width:2.0px;stroke-linecap:butt;stroke-linejoin:miter;stroke-opacity:1"/>
<path class="bond-27" d="M 158.307,160.578 L 145.826,166.954" style="fill:none;fill-rule:evenodd;stroke:#000000;stroke-width:2.0px;stroke-linecap:butt;stroke-linejoin:miter;stroke-opacity:1"/>
<path class="bond-28" d="M 177.963,158.552 L 185.252,140.39" style="fill:none;fill-rule:evenodd;stroke:#000000;stroke-width:2.0px;stroke-linecap:butt;stroke-linejoin:miter;stroke-opacity:1"/>
<path class="bond-29" d="M 177.963,158.552 L 191.861,161.719" style="fill:none;fill-rule:evenodd;stroke:#000000;stroke-width:2.0px;stroke-linecap:butt;stroke-linejoin:miter;stroke-opacity:1"/>
<path class="bond-30" d="M 177.963,158.552 L 178.245,168.782" style="fill:none;fill-rule:evenodd;stroke:#000000;stroke-width:2.0px;stroke-linecap:butt;stroke-linejoin:miter;stroke-opacity:1"/>
<path class="bond-31" d="M 185.252,140.39 L 180.968,134.483" style="fill:none;fill-rule:evenodd;stroke:#000000;stroke-width:2.0px;stroke-linecap:butt;stroke-linejoin:miter;stroke-opacity:1"/>
<path class="bond-31" d="M 180.968,134.483 L 176.683,128.577" style="fill:none;fill-rule:evenodd;stroke:#0000FF;stroke-width:2.0px;stroke-linecap:butt;stroke-linejoin:miter;stroke-opacity:1"/>
<path class="bond-32" d="M 185.252,140.39 L 192.814,131.909" style="fill:none;fill-rule:evenodd;stroke:#000000;stroke-width:2.0px;stroke-linecap:butt;stroke-linejoin:miter;stroke-opacity:1"/>
<path class="bond-33" d="M 185.252,140.39 L 197.616,147.256" style="fill:none;fill-rule:evenodd;stroke:#000000;stroke-width:2.0px;stroke-linecap:butt;stroke-linejoin:miter;stroke-opacity:1"/>
<path class="bond-34" d="M 175.449,119.895 L 177.346,115.631" style="fill:none;fill-rule:evenodd;stroke:#0000FF;stroke-width:2.0px;stroke-linecap:butt;stroke-linejoin:miter;stroke-opacity:1"/>
<path class="bond-34" d="M 177.346,115.631 L 179.243,111.366" style="fill:none;fill-rule:evenodd;stroke:#CCCC00;stroke-width:2.0px;stroke-linecap:butt;stroke-linejoin:miter;stroke-opacity:1"/>
<path class="bond-35" d="M 170.107,124.691 L 162.052,125.796" style="fill:none;fill-rule:evenodd;stroke:#0000FF;stroke-width:2.0px;stroke-linecap:butt;stroke-linejoin:miter;stroke-opacity:1"/>
<path class="bond-35" d="M 162.052,125.796 L 153.996,126.901" style="fill:none;fill-rule:evenodd;stroke:#000000;stroke-width:2.0px;stroke-linecap:butt;stroke-linejoin:miter;stroke-opacity:1"/>
<path class="bond-36" d="M 183.448,109.698 L 187.715,111.521" style="fill:none;fill-rule:evenodd;stroke:#CCCC00;stroke-width:2.0px;stroke-linecap:butt;stroke-linejoin:miter;stroke-opacity:1"/>
<path class="bond-36" d="M 187.715,111.521 L 191.982,113.345" style="fill:none;fill-rule:evenodd;stroke:#FF0000;stroke-width:2.0px;stroke-linecap:butt;stroke-linejoin:miter;stroke-opacity:1"/>
<path class="bond-36" d="M 184.732,106.693 L 188.999,108.517" style="fill:none;fill-rule:evenodd;stroke:#CCCC00;stroke-width:2.0px;stroke-linecap:butt;stroke-linejoin:miter;stroke-opacity:1"/>
<path class="bond-36" d="M 188.999,108.517 L 193.266,110.34" style="fill:none;fill-rule:evenodd;stroke:#FF0000;stroke-width:2.0px;stroke-linecap:butt;stroke-linejoin:miter;stroke-opacity:1"/>
<path class="bond-37" d="M 179.042,103.984 L 174.546,101.627" style="fill:none;fill-rule:evenodd;stroke:#CCCC00;stroke-width:2.0px;stroke-linecap:butt;stroke-linejoin:miter;stroke-opacity:1"/>
<path class="bond-37" d="M 174.546,101.627 L 170.05,99.2687" style="fill:none;fill-rule:evenodd;stroke:#FF0000;stroke-width:2.0px;stroke-linecap:butt;stroke-linejoin:miter;stroke-opacity:1"/>
<path class="bond-37" d="M 177.525,106.878 L 173.029,104.52" style="fill:none;fill-rule:evenodd;stroke:#CCCC00;stroke-width:2.0px;stroke-linecap:butt;stroke-linejoin:miter;stroke-opacity:1"/>
<path class="bond-37" d="M 173.029,104.52 L 168.533,102.162" style="fill:none;fill-rule:evenodd;stroke:#FF0000;stroke-width:2.0px;stroke-linecap:butt;stroke-linejoin:miter;stroke-opacity:1"/>
<path class="bond-38" d="M 183.627,102.7 L 186.541,97.5798" style="fill:none;fill-rule:evenodd;stroke:#CCCC00;stroke-width:2.0px;stroke-linecap:butt;stroke-linejoin:miter;stroke-opacity:1"/>
<path class="bond-38" d="M 186.541,97.5798 L 189.455,92.4594" style="fill:none;fill-rule:evenodd;stroke:#000000;stroke-width:2.0px;stroke-linecap:butt;stroke-linejoin:miter;stroke-opacity:1"/>
<path class="bond-39" d="M 189.455,92.4594 L 208.101,92.8318" style="fill:none;fill-rule:evenodd;stroke:#000000;stroke-width:2.0px;stroke-linecap:butt;stroke-linejoin:miter;stroke-opacity:1"/>
<path class="bond-40" d="M 189.455,92.4594 L 177.246,85.3747" style="fill:none;fill-rule:evenodd;stroke:#000000;stroke-width:2.0px;stroke-linecap:butt;stroke-linejoin:miter;stroke-opacity:1"/>
<path class="bond-41" d="M 189.455,92.4594 L 189.618,78.6362" style="fill:none;fill-rule:evenodd;stroke:#000000;stroke-width:2.0px;stroke-linecap:butt;stroke-linejoin:miter;stroke-opacity:1"/>
<path class="bond-42" d="M 208.101,92.8318 L 216.114,76.5682" style="fill:none;fill-rule:evenodd;stroke:#000000;stroke-width:2.0px;stroke-linecap:butt;stroke-linejoin:miter;stroke-opacity:1"/>
<path class="bond-42" d="M 212.233,91.836 L 217.842,80.4515" style="fill:none;fill-rule:evenodd;stroke:#000000;stroke-width:2.0px;stroke-linecap:butt;stroke-linejoin:miter;stroke-opacity:1"/>
<path class="bond-43" d="M 208.101,92.8318 L 217.885,108.485" style="fill:none;fill-rule:evenodd;stroke:#000000;stroke-width:2.0px;stroke-linecap:butt;stroke-linejoin:miter;stroke-opacity:1"/>
<path class="bond-44" d="M 216.114,76.5682 L 234.231,75.9559" style="fill:none;fill-rule:evenodd;stroke:#000000;stroke-width:2.0px;stroke-linecap:butt;stroke-linejoin:miter;stroke-opacity:1"/>
<path class="bond-45" d="M 216.114,76.5682 L 209.142,65.7865" style="fill:none;fill-rule:evenodd;stroke:#000000;stroke-width:2.0px;stroke-linecap:butt;stroke-linejoin:miter;stroke-opacity:1"/>
<path class="bond-46" d="M 234.231,75.9559 L 244.427,91.2245" style="fill:none;fill-rule:evenodd;stroke:#000000;stroke-width:2.0px;stroke-linecap:butt;stroke-linejoin:miter;stroke-opacity:1"/>
<path class="bond-46" d="M 233.044,80.0605 L 240.181,90.7485" style="fill:none;fill-rule:evenodd;stroke:#000000;stroke-width:2.0px;stroke-linecap:butt;stroke-linejoin:miter;stroke-opacity:1"/>
<path class="bond-47" d="M 234.231,75.9559 L 240.38,63.9521" style="fill:none;fill-rule:evenodd;stroke:#000000;stroke-width:2.0px;stroke-linecap:butt;stroke-linejoin:miter;stroke-opacity:1"/>
<path class="bond-48" d="M 244.427,91.2245 L 235.925,107.3" style="fill:none;fill-rule:evenodd;stroke:#000000;stroke-width:2.0px;stroke-linecap:butt;stroke-linejoin:miter;stroke-opacity:1"/>
<path class="bond-49" d="M 244.427,91.2245 L 258.903,90.4736" style="fill:none;fill-rule:evenodd;stroke:#000000;stroke-width:2.0px;stroke-linecap:butt;stroke-linejoin:miter;stroke-opacity:1"/>
<path class="bond-50" d="M 235.925,107.3 L 217.885,108.485" style="fill:none;fill-rule:evenodd;stroke:#000000;stroke-width:2.0px;stroke-linecap:butt;stroke-linejoin:miter;stroke-opacity:1"/>
<path class="bond-50" d="M 233.005,104.218 L 220.377,105.047" style="fill:none;fill-rule:evenodd;stroke:#000000;stroke-width:2.0px;stroke-linecap:butt;stroke-linejoin:miter;stroke-opacity:1"/>
<path class="bond-51" d="M 235.925,107.3 L 243.105,118.367" style="fill:none;fill-rule:evenodd;stroke:#000000;stroke-width:2.0px;stroke-linecap:butt;stroke-linejoin:miter;stroke-opacity:1"/>
<path class="bond-52" d="M 217.885,108.485 L 212.466,120.878" style="fill:none;fill-rule:evenodd;stroke:#000000;stroke-width:2.0px;stroke-linecap:butt;stroke-linejoin:miter;stroke-opacity:1"/>
<path class="bond-53" d="M 153.996,126.901 L 145.987,144.772" style="fill:none;fill-rule:evenodd;stroke:#000000;stroke-width:2.0px;stroke-linecap:butt;stroke-linejoin:miter;stroke-opacity:1"/>
<path class="bond-54" d="M 153.996,126.901 L 140.068,122.825" style="fill:none;fill-rule:evenodd;stroke:#000000;stroke-width:2.0px;stroke-linecap:butt;stroke-linejoin:miter;stroke-opacity:1"/>
<path class="bond-55" d="M 153.996,126.901 L 154.825,113.215" style="fill:none;fill-rule:evenodd;stroke:#000000;stroke-width:2.0px;stroke-linecap:butt;stroke-linejoin:miter;stroke-opacity:1"/>
<path class="bond-56" d="M 145.987,144.772 L 137.779,152.88" style="fill:none;fill-rule:evenodd;stroke:#000000;stroke-width:2.0px;stroke-linecap:butt;stroke-linejoin:miter;stroke-opacity:1"/>
<path class="bond-57" d="M 145.987,144.772 L 134.371,137.431" style="fill:none;fill-rule:evenodd;stroke:#000000;stroke-width:2.0px;stroke-linecap:butt;stroke-linejoin:miter;stroke-opacity:1"/>
<path class="bond-58" d="M 131.125,185.509 L 128.48,173.598" style="fill:none;fill-rule:evenodd;stroke:#000000;stroke-width:2.0px;stroke-linecap:butt;stroke-linejoin:miter;stroke-opacity:1"/>
<path class="bond-59" d="M 83.3373,201.613 L 77.2133,197.595" style="fill:none;fill-rule:evenodd;stroke:#CCCC00;stroke-width:2.0px;stroke-linecap:butt;stroke-linejoin:miter;stroke-opacity:1"/>
<path class="bond-59" d="M 77.2133,197.595 L 71.0893,193.576" style="fill:none;fill-rule:evenodd;stroke:#000000;stroke-width:2.0px;stroke-linecap:butt;stroke-linejoin:miter;stroke-opacity:1"/>
<path class="bond-60" d="M 71.0893,193.576 L 54.1114,199.572" style="fill:none;fill-rule:evenodd;stroke:#000000;stroke-width:2.0px;stroke-linecap:butt;stroke-linejoin:miter;stroke-opacity:1"/>
<path class="bond-61" d="M 52.5035,199.284 L 51.2941,206.045" style="fill:none;fill-rule:evenodd;stroke:#000000;stroke-width:2.0px;stroke-linecap:butt;stroke-linejoin:miter;stroke-opacity:1"/>
<path class="bond-61" d="M 51.2941,206.045 L 50.0846,212.806" style="fill:none;fill-rule:evenodd;stroke:#FF0000;stroke-width:2.0px;stroke-linecap:butt;stroke-linejoin:miter;stroke-opacity:1"/>
<path class="bond-61" d="M 55.7193,199.86 L 54.5099,206.62" style="fill:none;fill-rule:evenodd;stroke:#000000;stroke-width:2.0px;stroke-linecap:butt;stroke-linejoin:miter;stroke-opacity:1"/>
<path class="bond-61" d="M 54.5099,206.62 L 53.3004,213.381" style="fill:none;fill-rule:evenodd;stroke:#FF0000;stroke-width:2.0px;stroke-linecap:butt;stroke-linejoin:miter;stroke-opacity:1"/>
<path class="bond-62" d="M 54.1114,199.572 L 49.1726,195.408" style="fill:none;fill-rule:evenodd;stroke:#000000;stroke-width:2.0px;stroke-linecap:butt;stroke-linejoin:miter;stroke-opacity:1"/>
<path class="bond-62" d="M 49.1726,195.408 L 44.2338,191.245" style="fill:none;fill-rule:evenodd;stroke:#FF0000;stroke-width:2.0px;stroke-linecap:butt;stroke-linejoin:miter;stroke-opacity:1"/>
<path class="atom-0" d="M 39.5362 132.857 Q 39.5362 131.006, 40.4509 129.972 Q 41.3656 128.937, 43.0753 128.937 Q 44.7849 128.937, 45.6997 129.972 Q 46.6144 131.006, 46.6144 132.857 Q 46.6144 134.73, 45.6888 135.797 Q 44.7632 136.854, 43.0753 136.854 Q 41.3765 136.854, 40.4509 135.797 Q 39.5362 134.741, 39.5362 132.857 M 43.0753 135.983 Q 44.2513 135.983, 44.8829 135.198 Q 45.5254 134.404, 45.5254 132.857 Q 45.5254 131.344, 44.8829 130.581 Q 44.2513 129.808, 43.0753 129.808 Q 41.8992 129.808, 41.2567 130.57 Q 40.6251 131.333, 40.6251 132.857 Q 40.6251 134.414, 41.2567 135.198 Q 41.8992 135.983, 43.0753 135.983 " fill="#FF0000"/>
<path class="atom-2" d="M 64.5031 113.761 Q 64.5031 111.91, 65.4178 110.875 Q 66.3325 109.841, 68.0422 109.841 Q 69.7519 109.841, 70.6666 110.875 Q 71.5813 111.91, 71.5813 113.761 Q 71.5813 115.634, 70.6557 116.701 Q 69.7301 117.757, 68.0422 117.757 Q 66.3434 117.757, 65.4178 116.701 Q 64.5031 115.645, 64.5031 113.761 M 68.0422 116.886 Q 69.2183 116.886, 69.8499 116.102 Q 70.4923 115.307, 70.4923 113.761 Q 70.4923 112.247, 69.8499 111.485 Q 69.2183 110.712, 68.0422 110.712 Q 66.8661 110.712, 66.2236 111.474 Q 65.5921 112.236, 65.5921 113.761 Q 65.5921 115.318, 66.2236 116.102 Q 66.8661 116.886, 68.0422 116.886 " fill="#FF0000"/>
<path class="atom-2" d="M 71.9406 111.099 L 74.5783 111.099 L 74.5783 111.674 L 71.9406 111.674 L 71.9406 111.099 " fill="#FF0000"/>
<path class="atom-4" d="M 61.5871 161.678 Q 61.5871 159.827, 62.5019 158.792 Q 63.4166 157.758, 65.1262 157.758 Q 66.8359 157.758, 67.7506 158.792 Q 68.6653 159.827, 68.6653 161.678 Q 68.6653 163.551, 67.7397 164.618 Q 66.8141 165.674, 65.1262 165.674 Q 63.4275 165.674, 62.5019 164.618 Q 61.5871 163.562, 61.5871 161.678 M 65.1262 164.803 Q 66.3023 164.803, 66.9339 164.019 Q 67.5764 163.224, 67.5764 161.678 Q 67.5764 160.164, 66.9339 159.402 Q 66.3023 158.629, 65.1262 158.629 Q 63.9502 158.629, 63.3077 159.391 Q 62.6761 160.153, 62.6761 161.678 Q 62.6761 163.235, 63.3077 164.019 Q 63.9502 164.803, 65.1262 164.803 " fill="#FF0000"/>
<path class="atom-7" d="M 101.691 160.549 Q 101.691 158.633, 102.584 157.631 Q 103.488 156.618, 105.198 156.618 Q 106.787 156.618, 107.637 157.74 L 106.918 158.328 Q 106.297 157.511, 105.198 157.511 Q 104.032 157.511, 103.412 158.295 Q 102.802 159.068, 102.802 160.549 Q 102.802 162.074, 103.433 162.858 Q 104.076 163.642, 105.317 163.642 Q 106.167 163.642, 107.158 163.13 L 107.463 163.947 Q 107.06 164.208, 106.45 164.361 Q 105.84 164.513, 105.165 164.513 Q 103.488 164.513, 102.584 163.49 Q 101.691 162.466, 101.691 160.549 " fill="#00CC00"/>
<path class="atom-7" d="M 108.573 156.15 L 109.575 156.15 L 109.575 164.415 L 108.573 164.415 L 108.573 156.15 " fill="#00CC00"/>
<path class="atom-14" d="M 159.881 176.859 L 162.407 180.942 Q 162.658 181.345, 163.061 182.075 Q 163.464 182.804, 163.485 182.848 L 163.485 176.859 L 164.509 176.859 L 164.509 184.568 L 163.453 184.568 L 160.741 180.104 Q 160.425 179.581, 160.088 178.982 Q 159.761 178.383, 159.663 178.198 L 159.663 184.568 L 158.661 184.568 L 158.661 176.859 L 159.881 176.859 " fill="#0000FF"/>
<path class="atom-18" d="M 171.82 120.368 L 174.346 124.451 Q 174.597 124.854, 175 125.584 Q 175.403 126.313, 175.424 126.357 L 175.424 120.368 L 176.448 120.368 L 176.448 128.077 L 175.392 128.077 L 172.68 123.613 Q 172.364 123.09, 172.027 122.491 Q 171.7 121.892, 171.602 121.707 L 171.602 128.077 L 170.6 128.077 L 170.6 120.368 L 171.82 120.368 " fill="#0000FF"/>
<path class="atom-19" d="M 179.024 109.608 Q 179.111 109.64, 179.47 109.793 Q 179.83 109.945, 180.222 110.043 Q 180.625 110.13, 181.017 110.13 Q 181.746 110.13, 182.171 109.782 Q 182.596 109.422, 182.596 108.802 Q 182.596 108.377, 182.378 108.116 Q 182.171 107.854, 181.844 107.713 Q 181.518 107.571, 180.973 107.408 Q 180.287 107.201, 179.873 107.005 Q 179.47 106.809, 179.176 106.395 Q 178.893 105.981, 178.893 105.284 Q 178.893 104.315, 179.547 103.716 Q 180.211 103.117, 181.518 103.117 Q 182.411 103.117, 183.423 103.542 L 183.173 104.381 Q 182.247 103.999, 181.55 103.999 Q 180.799 103.999, 180.385 104.315 Q 179.971 104.62, 179.982 105.154 Q 179.982 105.568, 180.189 105.818 Q 180.407 106.068, 180.712 106.21 Q 181.028 106.352, 181.55 106.515 Q 182.247 106.733, 182.661 106.951 Q 183.075 107.168, 183.369 107.615 Q 183.674 108.05, 183.674 108.802 Q 183.674 109.869, 182.955 110.446 Q 182.247 111.012, 181.06 111.012 Q 180.374 111.012, 179.852 110.86 Q 179.34 110.718, 178.73 110.468 L 179.024 109.608 " fill="#CCCC00"/>
<path class="atom-20" d="M 192.962 113.521 Q 192.962 111.67, 193.876 110.635 Q 194.791 109.601, 196.501 109.601 Q 198.211 109.601, 199.125 110.635 Q 200.04 111.67, 200.04 113.521 Q 200.04 115.394, 199.114 116.461 Q 198.189 117.517, 196.501 117.517 Q 194.802 117.517, 193.876 116.461 Q 192.962 115.405, 192.962 113.521 M 196.501 116.646 Q 197.677 116.646, 198.309 115.862 Q 198.951 115.067, 198.951 113.521 Q 198.951 112.007, 198.309 111.245 Q 197.677 110.472, 196.501 110.472 Q 195.325 110.472, 194.682 111.234 Q 194.051 111.996, 194.051 113.521 Q 194.051 115.078, 194.682 115.862 Q 195.325 116.646, 196.501 116.646 " fill="#FF0000"/>
<path class="atom-21" d="M 161.849 98.6902 Q 161.849 96.839, 162.764 95.8045 Q 163.678 94.77, 165.388 94.77 Q 167.098 94.77, 168.012 95.8045 Q 168.927 96.839, 168.927 98.6902 Q 168.927 100.563, 168.001 101.63 Q 167.076 102.687, 165.388 102.687 Q 163.689 102.687, 162.764 101.63 Q 161.849 100.574, 161.849 98.6902 M 165.388 101.816 Q 166.564 101.816, 167.196 101.031 Q 167.838 100.237, 167.838 98.6902 Q 167.838 97.1766, 167.196 96.4143 Q 166.564 95.6412, 165.388 95.6412 Q 164.212 95.6412, 163.569 96.4034 Q 162.938 97.1657, 162.938 98.6902 Q 162.938 100.247, 163.569 101.031 Q 164.212 101.816, 165.388 101.816 " fill="#FF0000"/>
<path class="atom-32" d="M 84.0851 206.179 Q 84.1722 206.212, 84.5315 206.364 Q 84.8909 206.517, 85.2829 206.615 Q 85.6858 206.702, 86.0778 206.702 Q 86.8074 206.702, 87.2321 206.353 Q 87.6568 205.994, 87.6568 205.373 Q 87.6568 204.949, 87.439 204.687 Q 87.2321 204.426, 86.9054 204.284 Q 86.5788 204.143, 86.0343 203.979 Q 85.3482 203.773, 84.9344 203.577 Q 84.5315 203.381, 84.2375 202.967 Q 83.9544 202.553, 83.9544 201.856 Q 83.9544 200.887, 84.6078 200.288 Q 85.272 199.689, 86.5788 199.689 Q 87.4717 199.689, 88.4844 200.114 L 88.234 200.952 Q 87.3084 200.571, 86.6114 200.571 Q 85.86 200.571, 85.4462 200.887 Q 85.0324 201.192, 85.0433 201.725 Q 85.0433 202.139, 85.2502 202.39 Q 85.468 202.64, 85.7729 202.782 Q 86.0887 202.923, 86.6114 203.087 Q 87.3084 203.304, 87.7222 203.522 Q 88.136 203.74, 88.43 204.186 Q 88.7349 204.622, 88.7349 205.373 Q 88.7349 206.44, 88.0162 207.018 Q 87.3084 207.584, 86.1214 207.584 Q 85.4354 207.584, 84.9127 207.431 Q 84.4009 207.29, 83.791 207.039 L 84.0851 206.179 " fill="#CCCC00"/>
<path class="atom-35" d="M 47.3749 217.468 Q 47.3749 215.617, 48.2896 214.582 Q 49.2043 213.548, 50.9139 213.548 Q 52.6236 213.548, 53.5383 214.582 Q 54.453 215.617, 54.453 217.468 Q 54.453 219.341, 53.5274 220.408 Q 52.6018 221.464, 50.9139 221.464 Q 49.2152 221.464, 48.2896 220.408 Q 47.3749 219.352, 47.3749 217.468 M 50.9139 220.593 Q 52.09 220.593, 52.7216 219.809 Q 53.3641 219.014, 53.3641 217.468 Q 53.3641 215.954, 52.7216 215.192 Q 52.09 214.419, 50.9139 214.419 Q 49.7379 214.419, 49.0954 215.181 Q 48.4638 215.943, 48.4638 217.468 Q 48.4638 219.025, 49.0954 219.809 Q 49.7379 220.593, 50.9139 220.593 " fill="#FF0000"/>
<path class="atom-36" d="M 36.702 187.9 Q 36.702 186.049, 37.6167 185.015 Q 38.5315 183.98, 40.2411 183.98 Q 41.9508 183.98, 42.8655 185.015 Q 43.7802 186.049, 43.7802 187.9 Q 43.7802 189.773, 42.8546 190.841 Q 41.929 191.897, 40.2411 191.897 Q 38.5424 191.897, 37.6167 190.841 Q 36.702 189.784, 36.702 187.9 M 40.2411 191.026 Q 41.4172 191.026, 42.0488 190.242 Q 42.6913 189.447, 42.6913 187.9 Q 42.6913 186.387, 42.0488 185.624 Q 41.4172 184.851, 40.2411 184.851 Q 39.0651 184.851, 38.4226 185.614 Q 37.791 186.376, 37.791 187.9 Q 37.791 189.458, 38.4226 190.242 Q 39.0651 191.026, 40.2411 191.026 " fill="#FF0000"/>
<path class="atom-36" d="M 44.1396 185.239 L 46.7772 185.239 L 46.7772 185.814 L 44.1396 185.814 L 44.1396 185.239 " fill="#FF0000"/>
<path class="atom-37" d="M 85.8303 148.005 L 86.8757 148.005 L 86.8757 151.283 L 90.8177 151.283 L 90.8177 148.005 L 91.8631 148.005 L 91.8631 155.715 L 90.8177 155.715 L 90.8177 152.154 L 86.8757 152.154 L 86.8757 155.715 L 85.8303 155.715 L 85.8303 148.005 " fill="#000000"/>
<path class="atom-38" d="M 83.484 130.011 L 84.5294 130.011 L 84.5294 133.289 L 88.4714 133.289 L 88.4714 130.011 L 89.5168 130.011 L 89.5168 137.721 L 88.4714 137.721 L 88.4714 134.16 L 84.5294 134.16 L 84.5294 137.721 L 83.484 137.721 L 83.484 130.011 " fill="#000000"/>
<path class="atom-39" d="M 105.72 223.417 L 106.765 223.417 L 106.765 226.694 L 110.707 226.694 L 110.707 223.417 L 111.753 223.417 L 111.753 231.126 L 110.707 231.126 L 110.707 227.565 L 106.765 227.565 L 106.765 231.126 L 105.72 231.126 L 105.72 223.417 " fill="#000000"/>
<path class="atom-40" d="M 140.385 234.372 L 141.43 234.372 L 141.43 237.65 L 145.372 237.65 L 145.372 234.372 L 146.417 234.372 L 146.417 242.082 L 145.372 242.082 L 145.372 238.521 L 141.43 238.521 L 141.43 242.082 L 140.385 242.082 L 140.385 234.372 " fill="#000000"/>
<path class="atom-41" d="M 166.803 210.147 L 167.848 210.147 L 167.848 213.424 L 171.79 213.424 L 171.79 210.147 L 172.836 210.147 L 172.836 217.856 L 171.79 217.856 L 171.79 214.296 L 167.848 214.296 L 167.848 217.856 L 166.803 217.856 L 166.803 210.147 " fill="#000000"/>
<path class="atom-42" d="M 174.793 184.976 L 175.838 184.976 L 175.838 188.254 L 179.78 188.254 L 179.78 184.976 L 180.825 184.976 L 180.825 192.686 L 179.78 192.686 L 179.78 189.125 L 175.838 189.125 L 175.838 192.686 L 174.793 192.686 L 174.793 184.976 " fill="#000000"/>
<path class="atom-43" d="M 139.345 164.869 L 140.391 164.869 L 140.391 168.147 L 144.333 168.147 L 144.333 164.869 L 145.378 164.869 L 145.378 172.579 L 144.333 172.579 L 144.333 169.018 L 140.391 169.018 L 140.391 172.579 L 139.345 172.579 L 139.345 164.869 " fill="#000000"/>
<path class="atom-44" d="M 192.306 158.652 L 193.351 158.652 L 193.351 161.93 L 197.293 161.93 L 197.293 158.652 L 198.339 158.652 L 198.339 166.362 L 197.293 166.362 L 197.293 162.801 L 193.351 162.801 L 193.351 166.362 L 192.306 166.362 L 192.306 158.652 " fill="#000000"/>
<path class="atom-45" d="M 175.345 169.143 L 176.39 169.143 L 176.39 172.421 L 180.332 172.421 L 180.332 169.143 L 181.378 169.143 L 181.378 176.853 L 180.332 176.853 L 180.332 173.292 L 176.39 173.292 L 176.39 176.853 L 175.345 176.853 L 175.345 169.143 " fill="#000000"/>
<path class="atom-46" d="M 193.227 124.209 L 194.273 124.209 L 194.273 127.486 L 198.215 127.486 L 198.215 124.209 L 199.26 124.209 L 199.26 131.918 L 198.215 131.918 L 198.215 128.358 L 194.273 128.358 L 194.273 131.918 L 193.227 131.918 L 193.227 124.209 " fill="#000000"/>
<path class="atom-47" d="M 198.068 145.328 L 199.114 145.328 L 199.114 148.605 L 203.056 148.605 L 203.056 145.328 L 204.101 145.328 L 204.101 153.037 L 203.056 153.037 L 203.056 149.477 L 199.114 149.477 L 199.114 153.037 L 198.068 153.037 L 198.068 145.328 " fill="#000000"/>
<path class="atom-48" d="M 170.76 79.5065 L 171.805 79.5065 L 171.805 82.7842 L 175.747 82.7842 L 175.747 79.5065 L 176.792 79.5065 L 176.792 87.2163 L 175.747 87.2163 L 175.747 83.6554 L 171.805 83.6554 L 171.805 87.2163 L 170.76 87.2163 L 170.76 79.5065 " fill="#000000"/>
<path class="atom-49" d="M 186.652 70.4731 L 187.698 70.4731 L 187.698 73.7509 L 191.64 73.7509 L 191.64 70.4731 L 192.685 70.4731 L 192.685 78.1829 L 191.64 78.1829 L 191.64 74.622 L 187.698 74.622 L 187.698 78.1829 L 186.652 78.1829 L 186.652 70.4731 " fill="#000000"/>
<path class="atom-50" d="M 203.342 57.6275 L 204.388 57.6275 L 204.388 60.9053 L 208.33 60.9053 L 208.33 57.6275 L 209.375 57.6275 L 209.375 65.3373 L 208.33 65.3373 L 208.33 61.7765 L 204.388 61.7765 L 204.388 65.3373 L 203.342 65.3373 L 203.342 57.6275 " fill="#000000"/>
<path class="atom-51" d="M 239.573 55.7839 L 240.619 55.7839 L 240.619 59.0617 L 244.561 59.0617 L 244.561 55.7839 L 245.606 55.7839 L 245.606 63.4937 L 244.561 63.4937 L 244.561 59.9328 L 240.619 59.9328 L 240.619 63.4937 L 239.573 63.4937 L 239.573 55.7839 " fill="#000000"/>
<path class="atom-52" d="M 259.352 86.439 L 260.397 86.439 L 260.397 89.7167 L 264.339 89.7167 L 264.339 86.439 L 265.385 86.439 L 265.385 94.1488 L 264.339 94.1488 L 264.339 90.5879 L 260.397 90.5879 L 260.397 94.1488 L 259.352 94.1488 L 259.352 86.439 " fill="#000000"/>
<path class="atom-53" d="M 242.887 118.825 L 243.932 118.825 L 243.932 122.103 L 247.874 122.103 L 247.874 118.825 L 248.92 118.825 L 248.92 126.535 L 247.874 126.535 L 247.874 122.974 L 243.932 122.974 L 243.932 126.535 L 242.887 126.535 L 242.887 118.825 " fill="#000000"/>
<path class="atom-54" d="M 207.565 121.333 L 208.61 121.333 L 208.61 124.611 L 212.552 124.611 L 212.552 121.333 L 213.598 121.333 L 213.598 129.043 L 212.552 129.043 L 212.552 125.482 L 208.61 125.482 L 208.61 129.043 L 207.565 129.043 L 207.565 121.333 " fill="#000000"/>
<path class="atom-55" d="M 133.582 117.955 L 134.628 117.955 L 134.628 121.232 L 138.57 121.232 L 138.57 117.955 L 139.615 117.955 L 139.615 125.664 L 138.57 125.664 L 138.57 122.103 L 134.628 122.103 L 134.628 125.664 L 133.582 125.664 L 133.582 117.955 " fill="#000000"/>
<path class="atom-56" d="M 152.069 105.054 L 153.114 105.054 L 153.114 108.332 L 157.056 108.332 L 157.056 105.054 L 158.102 105.054 L 158.102 112.764 L 157.056 112.764 L 157.056 109.203 L 153.114 109.203 L 153.114 112.764 L 152.069 112.764 L 152.069 105.054 " fill="#000000"/>
<path class="atom-57" d="M 131.337 152.409 L 132.382 152.409 L 132.382 155.686 L 136.324 155.686 L 136.324 152.409 L 137.37 152.409 L 137.37 160.118 L 136.324 160.118 L 136.324 156.558 L 132.382 156.558 L 132.382 160.118 L 131.337 160.118 L 131.337 152.409 " fill="#000000"/>
<path class="atom-58" d="M 127.892 131.389 L 128.937 131.389 L 128.937 134.666 L 132.879 134.666 L 132.879 131.389 L 133.925 131.389 L 133.925 139.098 L 132.879 139.098 L 132.879 135.537 L 128.937 135.537 L 128.937 139.098 L 127.892 139.098 L 127.892 131.389 " fill="#000000"/>
<path class="atom-59" d="M 124.516 165.474 L 125.562 165.474 L 125.562 168.752 L 129.504 168.752 L 129.504 165.474 L 130.549 165.474 L 130.549 173.184 L 129.504 173.184 L 129.504 169.623 L 125.562 169.623 L 125.562 173.184 L 124.516 173.184 L 124.516 165.474 " fill="#000000"/>
<ellipse cx="343.075" cy="132.891" rx="5.98924" ry="5.98924" style="fill:#CFAA27;fill-rule:evenodd;stroke:#CFAA27;stroke-width:1px;stroke-linecap:butt;stroke-linejoin:miter;stroke-opacity:1"/>
<ellipse cx="361.067" cy="130.484" rx="5.98924" ry="5.98924" style="fill:#B8A444;fill-rule:evenodd;stroke:#B8A444;stroke-width:1px;stroke-linecap:butt;stroke-linejoin:miter;stroke-opacity:1"/>
<ellipse cx="369.536" cy="113.788" rx="7.12425" ry="5.98924" style="fill:#A19F62;fill-rule:evenodd;stroke:#A19F62;stroke-width:1px;stroke-linecap:butt;stroke-linejoin:miter;stroke-opacity:1"/>
<ellipse cx="372.086" cy="144.881" rx="5.98924" ry="5.98924" style="fill:#7C947A;fill-rule:evenodd;stroke:#7C947A;stroke-width:1px;stroke-linecap:butt;stroke-linejoin:miter;stroke-opacity:1"/>
<ellipse cx="365.134" cy="161.704" rx="5.98924" ry="5.98924" style="fill:#588A93;fill-rule:evenodd;stroke:#588A93;stroke-width:1px;stroke-linecap:butt;stroke-linejoin:miter;stroke-opacity:1"/>
<ellipse cx="376.236" cy="175.773" rx="5.98924" ry="5.98924" style="fill:#3D79AB;fill-rule:evenodd;stroke:#3D79AB;stroke-width:1px;stroke-linecap:butt;stroke-linejoin:miter;stroke-opacity:1"/>
<ellipse cx="394.382" cy="175.439" rx="5.98924" ry="5.98924" style="fill:#2269C4;fill-rule:evenodd;stroke:#2269C4;stroke-width:1px;stroke-linecap:butt;stroke-linejoin:miter;stroke-opacity:1"/>
<ellipse cx="406.745" cy="160.269" rx="9.07461" ry="9.07461" style="fill:#C21F30;fill-rule:evenodd;stroke:#C21F30;stroke-width:1px;stroke-linecap:butt;stroke-linejoin:miter;stroke-opacity:1"/>
<ellipse cx="400.843" cy="192.511" rx="5.98924" ry="5.98924" style="fill:#3E3EF0;fill-rule:evenodd;stroke:#3E3EF0;stroke-width:1px;stroke-linecap:butt;stroke-linejoin:miter;stroke-opacity:1"/>
<ellipse cx="418.29" cy="197.633" rx="5.98924" ry="5.98924" style="fill:#5446F4;fill-rule:evenodd;stroke:#5446F4;stroke-width:1px;stroke-linecap:butt;stroke-linejoin:miter;stroke-opacity:1"/>
<ellipse cx="421.992" cy="215.142" rx="5.98924" ry="5.98924" style="fill:#6B4EF9;fill-rule:evenodd;stroke:#6B4EF9;stroke-width:1px;stroke-linecap:butt;stroke-linejoin:miter;stroke-opacity:1"/>
<ellipse cx="439.489" cy="220.313" rx="5.98924" ry="5.98924" style="fill:#805CF9;fill-rule:evenodd;stroke:#805CF9;stroke-width:1px;stroke-linecap:butt;stroke-linejoin:miter;stroke-opacity:1"/>
<ellipse cx="452.699" cy="208.591" rx="5.98924" ry="5.98924" style="fill:#CFAA27;fill-rule:evenodd;stroke:#CFAA27;stroke-width:1px;stroke-linecap:butt;stroke-linejoin:miter;stroke-opacity:1"/>
<ellipse cx="448.444" cy="191.229" rx="5.98924" ry="5.98924" style="fill:#B8A444;fill-rule:evenodd;stroke:#B8A444;stroke-width:1px;stroke-linecap:butt;stroke-linejoin:miter;stroke-opacity:1"/>
<ellipse cx="461.325" cy="180.915" rx="5.98924" ry="5.98924" style="fill:#A19F62;fill-rule:evenodd;stroke:#A19F62;stroke-width:1px;stroke-linecap:butt;stroke-linejoin:miter;stroke-opacity:1"/>
<ellipse cx="457.822" cy="161.192" rx="5.98924" ry="5.98924" style="fill:#7C947A;fill-rule:evenodd;stroke:#7C947A;stroke-width:1px;stroke-linecap:butt;stroke-linejoin:miter;stroke-opacity:1"/>
<ellipse cx="476.793" cy="158.422" rx="5.98924" ry="5.98924" style="fill:#588A93;fill-rule:evenodd;stroke:#588A93;stroke-width:1px;stroke-linecap:butt;stroke-linejoin:miter;stroke-opacity:1"/>
<ellipse cx="484.436" cy="140.906" rx="5.98924" ry="5.98924" style="fill:#3D79AB;fill-rule:evenodd;stroke:#3D79AB;stroke-width:1px;stroke-linecap:butt;stroke-linejoin:miter;stroke-opacity:1"/>
<ellipse cx="472.526" cy="125.823" rx="9.07461" ry="9.07461" style="fill:#CF244B;fill-rule:evenodd;stroke:#CF244B;stroke-width:1px;stroke-linecap:butt;stroke-linejoin:miter;stroke-opacity:1"/>
<ellipse cx="453.486" cy="127.865" rx="5.98924" ry="5.98924" style="fill:#6B4EF9;fill-rule:evenodd;stroke:#6B4EF9;stroke-width:1px;stroke-linecap:butt;stroke-linejoin:miter;stroke-opacity:1"/>
<ellipse cx="446.375" cy="145.575" rx="5.98924" ry="5.98924" style="fill:#805CF9;fill-rule:evenodd;stroke:#805CF9;stroke-width:1px;stroke-linecap:butt;stroke-linejoin:miter;stroke-opacity:1"/>
<ellipse cx="431.076" cy="185.474" rx="5.98924" ry="5.98924" style="fill:#CFAA27;fill-rule:evenodd;stroke:#CFAA27;stroke-width:1px;stroke-linecap:butt;stroke-linejoin:miter;stroke-opacity:1"/>
<ellipse cx="386.271" cy="203.622" rx="5.98924" ry="5.98924" style="fill:#B8A444;fill-rule:evenodd;stroke:#B8A444;stroke-width:1px;stroke-linecap:butt;stroke-linejoin:miter;stroke-opacity:1"/>
<ellipse cx="371.099" cy="193.563" rx="5.98924" ry="5.98924" style="fill:#A19F62;fill-rule:evenodd;stroke:#A19F62;stroke-width:1px;stroke-linecap:butt;stroke-linejoin:miter;stroke-opacity:1"/>
<ellipse cx="354.122" cy="199.561" rx="5.98924" ry="5.98924" style="fill:#7C947A;fill-rule:evenodd;stroke:#7C947A;stroke-width:1px;stroke-linecap:butt;stroke-linejoin:miter;stroke-opacity:1"/>
<ellipse cx="350.927" cy="217.495" rx="5.98924" ry="5.98924" style="fill:#588A93;fill-rule:evenodd;stroke:#588A93;stroke-width:1px;stroke-linecap:butt;stroke-linejoin:miter;stroke-opacity:1"/>
<ellipse cx="341.748" cy="187.929" rx="7.12425" ry="5.98924" style="fill:#3D79AB;fill-rule:evenodd;stroke:#3D79AB;stroke-width:1px;stroke-linecap:butt;stroke-linejoin:miter;stroke-opacity:1"/>
<ellipse cx="388.852" cy="151.844" rx="5.98924" ry="5.98924" style="fill:#2269C4;fill-rule:evenodd;stroke:#2269C4;stroke-width:1px;stroke-linecap:butt;stroke-linejoin:miter;stroke-opacity:1"/>
<ellipse cx="386.501" cy="133.851" rx="5.98924" ry="5.98924" style="fill:#3053DA;fill-rule:evenodd;stroke:#3053DA;stroke-width:1px;stroke-linecap:butt;stroke-linejoin:miter;stroke-opacity:1"/>
<ellipse cx="408.802" cy="227.338" rx="5.98924" ry="5.98924" style="fill:#3E3EF0;fill-rule:evenodd;stroke:#3E3EF0;stroke-width:1px;stroke-linecap:butt;stroke-linejoin:miter;stroke-opacity:1"/>
<ellipse cx="443.485" cy="238.206" rx="5.98924" ry="5.98924" style="fill:#5446F4;fill-rule:evenodd;stroke:#5446F4;stroke-width:1px;stroke-linecap:butt;stroke-linejoin:miter;stroke-opacity:1"/>
<ellipse cx="469.851" cy="213.935" rx="5.98924" ry="5.98924" style="fill:#6B4EF9;fill-rule:evenodd;stroke:#6B4EF9;stroke-width:1px;stroke-linecap:butt;stroke-linejoin:miter;stroke-opacity:1"/>
<ellipse cx="442.398" cy="169.324" rx="5.98924" ry="5.98924" style="fill:#805CF9;fill-rule:evenodd;stroke:#805CF9;stroke-width:1px;stroke-linecap:butt;stroke-linejoin:miter;stroke-opacity:1"/>
<ellipse cx="494.306" cy="162.813" rx="5.98924" ry="5.98924" style="fill:#CFAA27;fill-rule:evenodd;stroke:#CFAA27;stroke-width:1px;stroke-linecap:butt;stroke-linejoin:miter;stroke-opacity:1"/>
<ellipse cx="477.633" cy="172.875" rx="5.98924" ry="5.98924" style="fill:#B8A444;fill-rule:evenodd;stroke:#B8A444;stroke-width:1px;stroke-linecap:butt;stroke-linejoin:miter;stroke-opacity:1"/>
<ellipse cx="495.999" cy="127.104" rx="5.98924" ry="5.98924" style="fill:#A19F62;fill-rule:evenodd;stroke:#A19F62;stroke-width:1px;stroke-linecap:butt;stroke-linejoin:miter;stroke-opacity:1"/>
<ellipse cx="500.115" cy="149.27" rx="5.98924" ry="5.98924" style="fill:#7C947A;fill-rule:evenodd;stroke:#7C947A;stroke-width:1px;stroke-linecap:butt;stroke-linejoin:miter;stroke-opacity:1"/>
<ellipse cx="436.407" cy="122.801" rx="5.98924" ry="5.98924" style="fill:#2269C4;fill-rule:evenodd;stroke:#2269C4;stroke-width:1px;stroke-linecap:butt;stroke-linejoin:miter;stroke-opacity:1"/>
<ellipse cx="455.199" cy="109.925" rx="5.98924" ry="5.98924" style="fill:#3053DA;fill-rule:evenodd;stroke:#3053DA;stroke-width:1px;stroke-linecap:butt;stroke-linejoin:miter;stroke-opacity:1"/>
<ellipse cx="434.421" cy="156.703" rx="5.98924" ry="5.98924" style="fill:#3E3EF0;fill-rule:evenodd;stroke:#3E3EF0;stroke-width:1px;stroke-linecap:butt;stroke-linejoin:miter;stroke-opacity:1"/>
<ellipse cx="430.892" cy="136.166" rx="5.98924" ry="5.98924" style="fill:#5446F4;fill-rule:evenodd;stroke:#5446F4;stroke-width:1px;stroke-linecap:butt;stroke-linejoin:miter;stroke-opacity:1"/>
<ellipse cx="427.432" cy="169.578" rx="5.98924" ry="5.98924" style="fill:#6B4EF9;fill-rule:evenodd;stroke:#6B4EF9;stroke-width:1px;stroke-linecap:butt;stroke-linejoin:miter;stroke-opacity:1"/>
<ellipse cx="470.027" cy="94.216" rx="5.98924" ry="5.98924" style="fill:#5446F4;fill-rule:evenodd;stroke:#5446F4;stroke-width:1px;stroke-linecap:butt;stroke-linejoin:miter;stroke-opacity:1"/>
<ellipse cx="480.157" cy="109.099" rx="9.07461" ry="9.07461" style="fill:#C21F30;fill-rule:evenodd;stroke:#C21F30;stroke-width:1px;stroke-linecap:butt;stroke-linejoin:miter;stroke-opacity:1"/>
<ellipse cx="498.267" cy="107.66" rx="5.98924" ry="5.98924" style="fill:#3E3EF0;fill-rule:evenodd;stroke:#3E3EF0;stroke-width:1px;stroke-linecap:butt;stroke-linejoin:miter;stroke-opacity:1"/>
<ellipse cx="485.14" cy="84.1034" rx="5.98924" ry="5.98924" style="fill:#588A93;fill-rule:evenodd;stroke:#588A93;stroke-width:1px;stroke-linecap:butt;stroke-linejoin:miter;stroke-opacity:1"/>
<ellipse cx="451.967" cy="95.4484" rx="5.98924" ry="5.98924" style="fill:#3D79AB;fill-rule:evenodd;stroke:#3D79AB;stroke-width:1px;stroke-linecap:butt;stroke-linejoin:miter;stroke-opacity:1"/>
<path class="bond-0" d="M 347.279,133.93 L 354.279,133.017" style="fill:none;fill-rule:evenodd;stroke:#FF0000;stroke-width:2.0px;stroke-linecap:butt;stroke-linejoin:miter;stroke-opacity:1"/>
<path class="bond-0" d="M 354.279,133.017 L 361.278,132.103" style="fill:none;fill-rule:evenodd;stroke:#000000;stroke-width:2.0px;stroke-linecap:butt;stroke-linejoin:miter;stroke-opacity:1"/>
<path class="bond-0" d="M 346.857,130.691 L 353.856,129.777" style="fill:none;fill-rule:evenodd;stroke:#FF0000;stroke-width:2.0px;stroke-linecap:butt;stroke-linejoin:miter;stroke-opacity:1"/>
<path class="bond-0" d="M 353.856,129.777 L 360.855,128.864" style="fill:none;fill-rule:evenodd;stroke:#000000;stroke-width:2.0px;stroke-linecap:butt;stroke-linejoin:miter;stroke-opacity:1"/>
<path class="bond-1" d="M 361.067,130.484 L 363.622,124.342" style="fill:none;fill-rule:evenodd;stroke:#000000;stroke-width:2.0px;stroke-linecap:butt;stroke-linejoin:miter;stroke-opacity:1"/>
<path class="bond-1" d="M 363.622,124.342 L 366.177,118.2" style="fill:none;fill-rule:evenodd;stroke:#FF0000;stroke-width:2.0px;stroke-linecap:butt;stroke-linejoin:miter;stroke-opacity:1"/>
<path class="bond-2" d="M 361.067,130.484 L 372.086,144.881" style="fill:none;fill-rule:evenodd;stroke:#000000;stroke-width:2.0px;stroke-linecap:butt;stroke-linejoin:miter;stroke-opacity:1"/>
<path class="bond-3" d="M 372.086,144.881 L 369.513,151.086" style="fill:none;fill-rule:evenodd;stroke:#000000;stroke-width:2.0px;stroke-linecap:butt;stroke-linejoin:miter;stroke-opacity:1"/>
<path class="bond-3" d="M 369.513,151.086 L 366.939,157.292" style="fill:none;fill-rule:evenodd;stroke:#FF0000;stroke-width:2.0px;stroke-linecap:butt;stroke-linejoin:miter;stroke-opacity:1"/>
<path class="bond-4" d="M 372.086,144.881 L 385.382,150.403" style="fill:none;fill-rule:evenodd;stroke:#000000;stroke-width:2.0px;stroke-linecap:butt;stroke-linejoin:miter;stroke-opacity:1"/>
<path class="bond-5" d="M 372.086,144.881 L 383.031,136.506" style="fill:none;fill-rule:evenodd;stroke:#000000;stroke-width:2.0px;stroke-linecap:butt;stroke-linejoin:miter;stroke-opacity:1"/>
<path class="bond-6" d="M 368.644,166.111 L 372.44,170.942" style="fill:none;fill-rule:evenodd;stroke:#FF0000;stroke-width:2.0px;stroke-linecap:butt;stroke-linejoin:miter;stroke-opacity:1"/>
<path class="bond-6" d="M 372.44,170.942 L 376.236,175.773" style="fill:none;fill-rule:evenodd;stroke:#000000;stroke-width:2.0px;stroke-linecap:butt;stroke-linejoin:miter;stroke-opacity:1"/>
<path class="bond-7" d="M 376.236,175.773 L 394.382,175.439" style="fill:none;fill-rule:evenodd;stroke:#000000;stroke-width:2.0px;stroke-linecap:butt;stroke-linejoin:miter;stroke-opacity:1"/>
<path class="bond-8" d="M 376.236,175.773 L 371.099,193.563" style="fill:none;fill-rule:evenodd;stroke:#000000;stroke-width:2.0px;stroke-linecap:butt;stroke-linejoin:miter;stroke-opacity:1"/>
<path class="bond-8" d="M 378.604,179.348 L 375.008,191.801" style="fill:none;fill-rule:evenodd;stroke:#000000;stroke-width:2.0px;stroke-linecap:butt;stroke-linejoin:miter;stroke-opacity:1"/>
<path class="bond-9" d="M 394.382,175.439 L 398.066,170.01" style="fill:none;fill-rule:evenodd;stroke:#000000;stroke-width:2.0px;stroke-linecap:butt;stroke-linejoin:miter;stroke-opacity:1"/>
<path class="bond-9" d="M 398.066,170.01 L 401.749,164.582" style="fill:none;fill-rule:evenodd;stroke:#7F4C19;stroke-width:2.0px;stroke-linecap:butt;stroke-linejoin:miter;stroke-opacity:1"/>
<path class="bond-10" d="M 394.382,175.439 L 400.843,192.511" style="fill:none;fill-rule:evenodd;stroke:#000000;stroke-width:2.0px;stroke-linecap:butt;stroke-linejoin:miter;stroke-opacity:1"/>
<path class="bond-10" d="M 392.296,179.156 L 396.818,191.106" style="fill:none;fill-rule:evenodd;stroke:#000000;stroke-width:2.0px;stroke-linecap:butt;stroke-linejoin:miter;stroke-opacity:1"/>
<path class="bond-11" d="M 400.843,192.511 L 418.29,197.633" style="fill:none;fill-rule:evenodd;stroke:#000000;stroke-width:2.0px;stroke-linecap:butt;stroke-linejoin:miter;stroke-opacity:1"/>
<path class="bond-12" d="M 400.843,192.511 L 395.021,196.909" style="fill:none;fill-rule:evenodd;stroke:#000000;stroke-width:2.0px;stroke-linecap:butt;stroke-linejoin:miter;stroke-opacity:1"/>
<path class="bond-12" d="M 395.021,196.909 L 389.2,201.306" style="fill:none;fill-rule:evenodd;stroke:#CCCC00;stroke-width:2.0px;stroke-linecap:butt;stroke-linejoin:miter;stroke-opacity:1"/>
<path class="bond-13" d="M 418.29,197.633 L 421.992,215.142" style="fill:none;fill-rule:evenodd;stroke:#000000;stroke-width:2.0px;stroke-linecap:butt;stroke-linejoin:miter;stroke-opacity:1"/>
<path class="bond-13" d="M 422.041,199.583 L 424.633,211.839" style="fill:none;fill-rule:evenodd;stroke:#000000;stroke-width:2.0px;stroke-linecap:butt;stroke-linejoin:miter;stroke-opacity:1"/>
<path class="bond-14" d="M 418.29,197.633 L 431.076,185.474" style="fill:none;fill-rule:evenodd;stroke:#000000;stroke-width:2.0px;stroke-linecap:butt;stroke-linejoin:miter;stroke-opacity:1"/>
<path class="bond-15" d="M 421.992,215.142 L 439.489,220.313" style="fill:none;fill-rule:evenodd;stroke:#000000;stroke-width:2.0px;stroke-linecap:butt;stroke-linejoin:miter;stroke-opacity:1"/>
<path class="bond-16" d="M 421.992,215.142 L 412.268,224.134" style="fill:none;fill-rule:evenodd;stroke:#000000;stroke-width:2.0px;stroke-linecap:butt;stroke-linejoin:miter;stroke-opacity:1"/>
<path class="bond-17" d="M 439.489,220.313 L 452.699,208.591" style="fill:none;fill-rule:evenodd;stroke:#000000;stroke-width:2.0px;stroke-linecap:butt;stroke-linejoin:miter;stroke-opacity:1"/>
<path class="bond-17" d="M 439.302,216.111 L 448.549,207.906" style="fill:none;fill-rule:evenodd;stroke:#000000;stroke-width:2.0px;stroke-linecap:butt;stroke-linejoin:miter;stroke-opacity:1"/>
<path class="bond-18" d="M 439.489,220.313 L 442.522,233.893" style="fill:none;fill-rule:evenodd;stroke:#000000;stroke-width:2.0px;stroke-linecap:butt;stroke-linejoin:miter;stroke-opacity:1"/>
<path class="bond-19" d="M 452.699,208.591 L 448.444,191.229" style="fill:none;fill-rule:evenodd;stroke:#000000;stroke-width:2.0px;stroke-linecap:butt;stroke-linejoin:miter;stroke-opacity:1"/>
<path class="bond-20" d="M 452.699,208.591 L 466.385,212.855" style="fill:none;fill-rule:evenodd;stroke:#000000;stroke-width:2.0px;stroke-linecap:butt;stroke-linejoin:miter;stroke-opacity:1"/>
<path class="bond-21" d="M 448.444,191.229 L 453.216,187.408" style="fill:none;fill-rule:evenodd;stroke:#000000;stroke-width:2.0px;stroke-linecap:butt;stroke-linejoin:miter;stroke-opacity:1"/>
<path class="bond-21" d="M 453.216,187.408 L 457.989,183.587" style="fill:none;fill-rule:evenodd;stroke:#0000FF;stroke-width:2.0px;stroke-linecap:butt;stroke-linejoin:miter;stroke-opacity:1"/>
<path class="bond-22" d="M 448.444,191.229 L 431.076,185.474" style="fill:none;fill-rule:evenodd;stroke:#000000;stroke-width:2.0px;stroke-linecap:butt;stroke-linejoin:miter;stroke-opacity:1"/>
<path class="bond-22" d="M 444.811,193.467 L 432.653,189.438" style="fill:none;fill-rule:evenodd;stroke:#000000;stroke-width:2.0px;stroke-linecap:butt;stroke-linejoin:miter;stroke-opacity:1"/>
<path class="bond-23" d="M 460.551,176.559 L 459.187,168.876" style="fill:none;fill-rule:evenodd;stroke:#0000FF;stroke-width:2.0px;stroke-linecap:butt;stroke-linejoin:miter;stroke-opacity:1"/>
<path class="bond-23" d="M 459.187,168.876 L 457.822,161.192" style="fill:none;fill-rule:evenodd;stroke:#000000;stroke-width:2.0px;stroke-linecap:butt;stroke-linejoin:miter;stroke-opacity:1"/>
<path class="bond-24" d="M 464.702,182.625 L 469.42,185.012" style="fill:none;fill-rule:evenodd;stroke:#0000FF;stroke-width:2.0px;stroke-linecap:butt;stroke-linejoin:miter;stroke-opacity:1"/>
<path class="bond-24" d="M 469.42,185.012 L 474.137,187.4" style="fill:none;fill-rule:evenodd;stroke:#000000;stroke-width:2.0px;stroke-linecap:butt;stroke-linejoin:miter;stroke-opacity:1"/>
<path class="bond-25" d="M 457.822,161.192 L 476.793,158.422" style="fill:none;fill-rule:evenodd;stroke:#000000;stroke-width:2.0px;stroke-linecap:butt;stroke-linejoin:miter;stroke-opacity:1"/>
<path class="bond-26" d="M 457.822,161.192 L 446.375,145.575" style="fill:none;fill-rule:evenodd;stroke:#000000;stroke-width:2.0px;stroke-linecap:butt;stroke-linejoin:miter;stroke-opacity:1"/>
<path class="bond-27" d="M 457.822,161.192 L 445.85,167.504" style="fill:none;fill-rule:evenodd;stroke:#000000;stroke-width:2.0px;stroke-linecap:butt;stroke-linejoin:miter;stroke-opacity:1"/>
<path class="bond-28" d="M 476.793,158.422 L 484.436,140.906" style="fill:none;fill-rule:evenodd;stroke:#000000;stroke-width:2.0px;stroke-linecap:butt;stroke-linejoin:miter;stroke-opacity:1"/>
<path class="bond-29" d="M 476.793,158.422 L 490.838,161.944" style="fill:none;fill-rule:evenodd;stroke:#000000;stroke-width:2.0px;stroke-linecap:butt;stroke-linejoin:miter;stroke-opacity:1"/>
<path class="bond-30" d="M 476.793,158.422 L 477.388,168.658" style="fill:none;fill-rule:evenodd;stroke:#000000;stroke-width:2.0px;stroke-linecap:butt;stroke-linejoin:miter;stroke-opacity:1"/>
<path class="bond-31" d="M 484.436,140.906 L 480.183,135.52" style="fill:none;fill-rule:evenodd;stroke:#000000;stroke-width:2.0px;stroke-linecap:butt;stroke-linejoin:miter;stroke-opacity:1"/>
<path class="bond-31" d="M 480.183,135.52 L 475.93,130.134" style="fill:none;fill-rule:evenodd;stroke:#0000FF;stroke-width:2.0px;stroke-linecap:butt;stroke-linejoin:miter;stroke-opacity:1"/>
<path class="bond-32" d="M 484.436,140.906 L 492.532,131.242" style="fill:none;fill-rule:evenodd;stroke:#000000;stroke-width:2.0px;stroke-linecap:butt;stroke-linejoin:miter;stroke-opacity:1"/>
<path class="bond-33" d="M 484.436,140.906 L 496.655,147.424" style="fill:none;fill-rule:evenodd;stroke:#000000;stroke-width:2.0px;stroke-linecap:butt;stroke-linejoin:miter;stroke-opacity:1"/>
<path class="bond-34" d="M 469.123,126.188 L 461.305,127.026" style="fill:none;fill-rule:evenodd;stroke:#0000FF;stroke-width:2.0px;stroke-linecap:butt;stroke-linejoin:miter;stroke-opacity:1"/>
<path class="bond-34" d="M 461.305,127.026 L 453.486,127.865" style="fill:none;fill-rule:evenodd;stroke:#000000;stroke-width:2.0px;stroke-linecap:butt;stroke-linejoin:miter;stroke-opacity:1"/>
<path class="bond-35" d="M 474.494,121.509 L 477.325,115.304" style="fill:none;fill-rule:evenodd;stroke:#0000FF;stroke-width:2.0px;stroke-linecap:butt;stroke-linejoin:miter;stroke-opacity:1"/>
<path class="bond-35" d="M 477.325,115.304 L 480.157,109.099" style="fill:none;fill-rule:evenodd;stroke:#000000;stroke-width:2.0px;stroke-linecap:butt;stroke-linejoin:miter;stroke-opacity:1"/>
<path class="bond-36" d="M 453.486,127.865 L 446.375,145.575" style="fill:none;fill-rule:evenodd;stroke:#000000;stroke-width:2.0px;stroke-linecap:butt;stroke-linejoin:miter;stroke-opacity:1"/>
<path class="bond-37" d="M 453.486,127.865 L 439.869,123.827" style="fill:none;fill-rule:evenodd;stroke:#000000;stroke-width:2.0px;stroke-linecap:butt;stroke-linejoin:miter;stroke-opacity:1"/>
<path class="bond-38" d="M 453.486,127.865 L 454.788,114.231" style="fill:none;fill-rule:evenodd;stroke:#000000;stroke-width:2.0px;stroke-linecap:butt;stroke-linejoin:miter;stroke-opacity:1"/>
<path class="bond-39" d="M 446.375,145.575 L 437.846,153.515" style="fill:none;fill-rule:evenodd;stroke:#000000;stroke-width:2.0px;stroke-linecap:butt;stroke-linejoin:miter;stroke-opacity:1"/>
<path class="bond-40" d="M 446.375,145.575 L 434.362,138.275" style="fill:none;fill-rule:evenodd;stroke:#000000;stroke-width:2.0px;stroke-linecap:butt;stroke-linejoin:miter;stroke-opacity:1"/>
<path class="bond-41" d="M 431.076,185.474 L 428.409,173.841" style="fill:none;fill-rule:evenodd;stroke:#000000;stroke-width:2.0px;stroke-linecap:butt;stroke-linejoin:miter;stroke-opacity:1"/>
<path class="bond-42" d="M 383.346,201.599 L 377.222,197.581" style="fill:none;fill-rule:evenodd;stroke:#CCCC00;stroke-width:2.0px;stroke-linecap:butt;stroke-linejoin:miter;stroke-opacity:1"/>
<path class="bond-42" d="M 377.222,197.581 L 371.099,193.563" style="fill:none;fill-rule:evenodd;stroke:#000000;stroke-width:2.0px;stroke-linecap:butt;stroke-linejoin:miter;stroke-opacity:1"/>
<path class="bond-43" d="M 371.099,193.563 L 354.122,199.561" style="fill:none;fill-rule:evenodd;stroke:#000000;stroke-width:2.0px;stroke-linecap:butt;stroke-linejoin:miter;stroke-opacity:1"/>
<path class="bond-44" d="M 352.514,199.273 L 351.305,206.034" style="fill:none;fill-rule:evenodd;stroke:#000000;stroke-width:2.0px;stroke-linecap:butt;stroke-linejoin:miter;stroke-opacity:1"/>
<path class="bond-44" d="M 351.305,206.034 L 350.097,212.796" style="fill:none;fill-rule:evenodd;stroke:#FF0000;stroke-width:2.0px;stroke-linecap:butt;stroke-linejoin:miter;stroke-opacity:1"/>
<path class="bond-44" d="M 355.73,199.848 L 354.521,206.609" style="fill:none;fill-rule:evenodd;stroke:#000000;stroke-width:2.0px;stroke-linecap:butt;stroke-linejoin:miter;stroke-opacity:1"/>
<path class="bond-44" d="M 354.521,206.609 L 353.313,213.371" style="fill:none;fill-rule:evenodd;stroke:#FF0000;stroke-width:2.0px;stroke-linecap:butt;stroke-linejoin:miter;stroke-opacity:1"/>
<path class="bond-45" d="M 354.122,199.561 L 349.182,195.397" style="fill:none;fill-rule:evenodd;stroke:#000000;stroke-width:2.0px;stroke-linecap:butt;stroke-linejoin:miter;stroke-opacity:1"/>
<path class="bond-45" d="M 349.182,195.397 L 344.243,191.234" style="fill:none;fill-rule:evenodd;stroke:#FF0000;stroke-width:2.0px;stroke-linecap:butt;stroke-linejoin:miter;stroke-opacity:1"/>
<path class="bond-46" d="M 470.027,94.216 L 480.157,109.099" style="fill:none;fill-rule:evenodd;stroke:#000000;stroke-width:2.0px;stroke-linecap:butt;stroke-linejoin:miter;stroke-opacity:1"/>
<path class="bond-47" d="M 470.027,94.216 L 481.669,86.4259" style="fill:none;fill-rule:evenodd;stroke:#000000;stroke-width:2.0px;stroke-linecap:butt;stroke-linejoin:miter;stroke-opacity:1"/>
<path class="bond-48" d="M 470.027,94.216 L 469.147,80.422" style="fill:none;fill-rule:evenodd;stroke:#000000;stroke-width:2.0px;stroke-linecap:butt;stroke-linejoin:miter;stroke-opacity:1"/>
<path class="bond-49" d="M 470.027,94.216 L 455.436,95.2116" style="fill:none;fill-rule:evenodd;stroke:#000000;stroke-width:2.0px;stroke-linecap:butt;stroke-linejoin:miter;stroke-opacity:1"/>
<path class="bond-50" d="M 480.291,110.726 L 487.35,110.142" style="fill:none;fill-rule:evenodd;stroke:#000000;stroke-width:2.0px;stroke-linecap:butt;stroke-linejoin:miter;stroke-opacity:1"/>
<path class="bond-50" d="M 487.35,110.142 L 494.408,109.558" style="fill:none;fill-rule:evenodd;stroke:#FF0000;stroke-width:2.0px;stroke-linecap:butt;stroke-linejoin:miter;stroke-opacity:1"/>
<path class="bond-50" d="M 480.022,107.471 L 487.08,106.886" style="fill:none;fill-rule:evenodd;stroke:#000000;stroke-width:2.0px;stroke-linecap:butt;stroke-linejoin:miter;stroke-opacity:1"/>
<path class="bond-50" d="M 487.08,106.886 L 494.139,106.302" style="fill:none;fill-rule:evenodd;stroke:#FF0000;stroke-width:2.0px;stroke-linecap:butt;stroke-linejoin:miter;stroke-opacity:1"/>
<path class="atom-0" d="M 339.536 132.853 Q 339.536 131.002, 340.451 129.967 Q 341.366 128.933, 343.075 128.933 Q 344.785 128.933, 345.7 129.967 Q 346.615 131.002, 346.615 132.853 Q 346.615 134.726, 345.689 135.793 Q 344.763 136.849, 343.075 136.849 Q 341.377 136.849, 340.451 135.793 Q 339.536 134.737, 339.536 132.853 M 343.075 135.978 Q 344.251 135.978, 344.883 135.194 Q 345.526 134.399, 345.526 132.853 Q 345.526 131.339, 344.883 130.577 Q 344.251 129.804, 343.075 129.804 Q 341.899 129.804, 341.257 130.566 Q 340.625 131.328, 340.625 132.853 Q 340.625 134.41, 341.257 135.194 Q 341.899 135.978, 343.075 135.978 " fill="#FF0000"/>
<path class="atom-2" d="M 364.498 113.75 Q 364.498 111.898, 365.413 110.864 Q 366.327 109.829, 368.037 109.829 Q 369.747 109.829, 370.661 110.864 Q 371.576 111.898, 371.576 113.75 Q 371.576 115.623, 370.651 116.69 Q 369.725 117.746, 368.037 117.746 Q 366.338 117.746, 365.413 116.69 Q 364.498 115.634, 364.498 113.75 M 368.037 116.875 Q 369.213 116.875, 369.845 116.091 Q 370.487 115.296, 370.487 113.75 Q 370.487 112.236, 369.845 111.474 Q 369.213 110.701, 368.037 110.701 Q 366.861 110.701, 366.219 111.463 Q 365.587 112.225, 365.587 113.75 Q 365.587 115.307, 366.219 116.091 Q 366.861 116.875, 368.037 116.875 " fill="#FF0000"/>
<path class="atom-2" d="M 371.936 111.088 L 374.573 111.088 L 374.573 111.663 L 371.936 111.663 L 371.936 111.088 " fill="#FF0000"/>
<path class="atom-4" d="M 361.595 161.666 Q 361.595 159.815, 362.51 158.78 Q 363.424 157.746, 365.134 157.746 Q 366.844 157.746, 367.759 158.78 Q 368.673 159.815, 368.673 161.666 Q 368.673 163.539, 367.748 164.606 Q 366.822 165.662, 365.134 165.662 Q 363.435 165.662, 362.51 164.606 Q 361.595 163.55, 361.595 161.666 M 365.134 164.791 Q 366.31 164.791, 366.942 164.007 Q 367.584 163.212, 367.584 161.666 Q 367.584 160.152, 366.942 159.39 Q 366.31 158.617, 365.134 158.617 Q 363.958 158.617, 363.316 159.379 Q 362.684 160.141, 362.684 161.666 Q 362.684 163.223, 363.316 164.007 Q 363.958 164.791, 365.134 164.791 " fill="#FF0000"/>
<path class="atom-7" d="M 405.803 160.073 Q 406.543 160.28, 406.913 160.737 Q 407.294 161.184, 407.294 161.848 Q 407.294 162.915, 406.608 163.525 Q 405.933 164.124, 404.648 164.124 L 402.057 164.124 L 402.057 156.414 L 404.332 156.414 Q 405.65 156.414, 406.314 156.948 Q 406.979 157.481, 406.979 158.461 Q 406.979 159.626, 405.803 160.073 M 403.091 157.285 L 403.091 159.703 L 404.332 159.703 Q 405.095 159.703, 405.487 159.398 Q 405.89 159.082, 405.89 158.461 Q 405.89 157.285, 404.332 157.285 L 403.091 157.285 M 404.648 163.253 Q 405.4 163.253, 405.803 162.893 Q 406.205 162.534, 406.205 161.848 Q 406.205 161.216, 405.759 160.9 Q 405.323 160.574, 404.485 160.574 L 403.091 160.574 L 403.091 163.253 L 404.648 163.253 " fill="#7F4C19"/>
<path class="atom-7" d="M 409.048 158.526 L 409.167 159.3 Q 409.755 158.428, 410.714 158.428 Q 411.019 158.428, 411.432 158.537 L 411.269 159.452 Q 410.801 159.343, 410.54 159.343 Q 410.082 159.343, 409.777 159.528 Q 409.483 159.703, 409.244 160.127 L 409.244 164.124 L 408.22 164.124 L 408.22 158.526 L 409.048 158.526 " fill="#7F4C19"/>
<path class="atom-14" d="M 459.621 177.06 L 462.147 181.144 Q 462.398 181.547, 462.801 182.276 Q 463.203 183.006, 463.225 183.05 L 463.225 177.06 L 464.249 177.06 L 464.249 184.77 L 463.193 184.77 L 460.481 180.305 Q 460.165 179.783, 459.828 179.184 Q 459.501 178.585, 459.403 178.4 L 459.403 184.77 L 458.401 184.77 L 458.401 177.06 L 459.621 177.06 " fill="#0000FF"/>
<path class="atom-18" d="M 470.822 121.968 L 473.348 126.052 Q 473.599 126.455, 474.001 127.184 Q 474.404 127.914, 474.426 127.957 L 474.426 121.968 L 475.45 121.968 L 475.45 129.678 L 474.393 129.678 L 471.682 125.213 Q 471.366 124.69, 471.029 124.092 Q 470.702 123.493, 470.604 123.308 L 470.604 129.678 L 469.602 129.678 L 469.602 121.968 L 470.822 121.968 " fill="#0000FF"/>
<path class="atom-22" d="M 384.093 206.165 Q 384.181 206.197, 384.54 206.35 Q 384.899 206.502, 385.291 206.6 Q 385.694 206.687, 386.086 206.687 Q 386.816 206.687, 387.241 206.339 Q 387.665 205.98, 387.665 205.359 Q 387.665 204.934, 387.447 204.673 Q 387.241 204.411, 386.914 204.27 Q 386.587 204.128, 386.043 203.965 Q 385.357 203.758, 384.943 203.562 Q 384.54 203.366, 384.246 202.952 Q 383.963 202.538, 383.963 201.842 Q 383.963 200.872, 384.616 200.273 Q 385.28 199.675, 386.587 199.675 Q 387.48 199.675, 388.493 200.099 L 388.242 200.938 Q 387.317 200.557, 386.62 200.557 Q 385.868 200.557, 385.455 200.872 Q 385.041 201.177, 385.052 201.711 Q 385.052 202.125, 385.259 202.375 Q 385.476 202.626, 385.781 202.767 Q 386.097 202.909, 386.62 203.072 Q 387.317 203.29, 387.731 203.508 Q 388.144 203.725, 388.438 204.172 Q 388.743 204.607, 388.743 205.359 Q 388.743 206.426, 388.025 207.003 Q 387.317 207.569, 386.13 207.569 Q 385.444 207.569, 384.921 207.417 Q 384.409 207.275, 383.799 207.025 L 384.093 206.165 " fill="#CCCC00"/>
<path class="atom-25" d="M 347.388 217.457 Q 347.388 215.606, 348.303 214.572 Q 349.217 213.537, 350.927 213.537 Q 352.637 213.537, 353.551 214.572 Q 354.466 215.606, 354.466 217.457 Q 354.466 219.33, 353.54 220.397 Q 352.615 221.454, 350.927 221.454 Q 349.228 221.454, 348.303 220.397 Q 347.388 219.341, 347.388 217.457 M 350.927 220.583 Q 352.103 220.583, 352.735 219.799 Q 353.377 219.004, 353.377 217.457 Q 353.377 215.944, 352.735 215.181 Q 352.103 214.408, 350.927 214.408 Q 349.751 214.408, 349.108 215.171 Q 348.477 215.933, 348.477 217.457 Q 348.477 219.015, 349.108 219.799 Q 349.751 220.583, 350.927 220.583 " fill="#FF0000"/>
<path class="atom-26" d="M 336.711 187.891 Q 336.711 186.04, 337.626 185.005 Q 338.54 183.971, 340.25 183.971 Q 341.96 183.971, 342.874 185.005 Q 343.789 186.04, 343.789 187.891 Q 343.789 189.764, 342.863 190.831 Q 341.938 191.888, 340.25 191.888 Q 338.551 191.888, 337.626 190.831 Q 336.711 189.775, 336.711 187.891 M 340.25 191.017 Q 341.426 191.017, 342.058 190.232 Q 342.7 189.438, 342.7 187.891 Q 342.7 186.378, 342.058 185.615 Q 341.426 184.842, 340.25 184.842 Q 339.074 184.842, 338.431 185.604 Q 337.8 186.367, 337.8 187.891 Q 337.8 189.448, 338.431 190.232 Q 339.074 191.017, 340.25 191.017 " fill="#FF0000"/>
<path class="atom-26" d="M 344.148 185.229 L 346.786 185.229 L 346.786 185.804 L 344.148 185.804 L 344.148 185.229 " fill="#FF0000"/>
<path class="atom-27" d="M 385.835 147.989 L 386.881 147.989 L 386.881 151.267 L 390.823 151.267 L 390.823 147.989 L 391.868 147.989 L 391.868 155.699 L 390.823 155.699 L 390.823 152.138 L 386.881 152.138 L 386.881 155.699 L 385.835 155.699 L 385.835 147.989 " fill="#000000"/>
<path class="atom-28" d="M 383.485 129.996 L 384.53 129.996 L 384.53 133.273 L 388.472 133.273 L 388.472 129.996 L 389.517 129.996 L 389.517 137.705 L 388.472 137.705 L 388.472 134.145 L 384.53 134.145 L 384.53 137.705 L 383.485 137.705 L 383.485 129.996 " fill="#000000"/>
<path class="atom-29" d="M 405.786 223.484 L 406.831 223.484 L 406.831 226.761 L 410.773 226.761 L 410.773 223.484 L 411.819 223.484 L 411.819 231.193 L 410.773 231.193 L 410.773 227.633 L 406.831 227.633 L 406.831 231.193 L 405.786 231.193 L 405.786 223.484 " fill="#000000"/>
<path class="atom-30" d="M 440.468 234.351 L 441.514 234.351 L 441.514 237.629 L 445.456 237.629 L 445.456 234.351 L 446.501 234.351 L 446.501 242.061 L 445.456 242.061 L 445.456 238.5 L 441.514 238.5 L 441.514 242.061 L 440.468 242.061 L 440.468 234.351 " fill="#000000"/>
<path class="atom-31" d="M 466.834 210.08 L 467.88 210.08 L 467.88 213.358 L 471.822 213.358 L 471.822 210.08 L 472.867 210.08 L 472.867 217.79 L 471.822 217.79 L 471.822 214.229 L 467.88 214.229 L 467.88 217.79 L 466.834 217.79 L 466.834 210.08 " fill="#000000"/>
<path class="atom-32" d="M 474.496 185.254 L 475.541 185.254 L 475.541 188.532 L 479.483 188.532 L 479.483 185.254 L 480.529 185.254 L 480.529 192.964 L 479.483 192.964 L 479.483 189.403 L 475.541 189.403 L 475.541 192.964 L 474.496 192.964 L 474.496 185.254 " fill="#000000"/>
<path class="atom-33" d="M 439.381 165.469 L 440.427 165.469 L 440.427 168.747 L 444.369 168.747 L 444.369 165.469 L 445.414 165.469 L 445.414 173.179 L 444.369 173.179 L 444.369 169.618 L 440.427 169.618 L 440.427 173.179 L 439.381 173.179 L 439.381 165.469 " fill="#000000"/>
<path class="atom-34" d="M 491.289 158.958 L 492.335 158.958 L 492.335 162.236 L 496.277 162.236 L 496.277 158.958 L 497.322 158.958 L 497.322 166.668 L 496.277 166.668 L 496.277 163.107 L 492.335 163.107 L 492.335 166.668 L 491.289 166.668 L 491.289 158.958 " fill="#000000"/>
<path class="atom-35" d="M 474.616 169.02 L 475.662 169.02 L 475.662 172.297 L 479.604 172.297 L 479.604 169.02 L 480.649 169.02 L 480.649 176.729 L 479.604 176.729 L 479.604 173.169 L 475.662 173.169 L 475.662 176.729 L 474.616 176.729 L 474.616 169.02 " fill="#000000"/>
<path class="atom-36" d="M 492.982 123.249 L 494.028 123.249 L 494.028 126.527 L 497.97 126.527 L 497.97 123.249 L 499.015 123.249 L 499.015 130.959 L 497.97 130.959 L 497.97 127.398 L 494.028 127.398 L 494.028 130.959 L 492.982 130.959 L 492.982 123.249 " fill="#000000"/>
<path class="atom-37" d="M 497.099 145.415 L 498.144 145.415 L 498.144 148.693 L 502.086 148.693 L 502.086 145.415 L 503.132 145.415 L 503.132 153.125 L 502.086 153.125 L 502.086 149.564 L 498.144 149.564 L 498.144 153.125 L 497.099 153.125 L 497.099 145.415 " fill="#000000"/>
<path class="atom-38" d="M 433.39 118.946 L 434.436 118.946 L 434.436 122.223 L 438.378 122.223 L 438.378 118.946 L 439.423 118.946 L 439.423 126.656 L 438.378 126.656 L 438.378 123.095 L 434.436 123.095 L 434.436 126.656 L 433.39 126.656 L 433.39 118.946 " fill="#000000"/>
<path class="atom-39" d="M 452.183 106.07 L 453.228 106.07 L 453.228 109.348 L 457.17 109.348 L 457.17 106.07 L 458.216 106.07 L 458.216 113.78 L 457.17 113.78 L 457.17 110.219 L 453.228 110.219 L 453.228 113.78 L 452.183 113.78 L 452.183 106.07 " fill="#000000"/>
<path class="atom-40" d="M 431.405 152.848 L 432.45 152.848 L 432.45 156.126 L 436.392 156.126 L 436.392 152.848 L 437.437 152.848 L 437.437 160.558 L 436.392 160.558 L 436.392 156.997 L 432.45 156.997 L 432.45 160.558 L 431.405 160.558 L 431.405 152.848 " fill="#000000"/>
<path class="atom-41" d="M 427.876 132.311 L 428.921 132.311 L 428.921 135.589 L 432.863 135.589 L 432.863 132.311 L 433.909 132.311 L 433.909 140.021 L 432.863 140.021 L 432.863 136.46 L 428.921 136.46 L 428.921 140.021 L 427.876 140.021 L 427.876 132.311 " fill="#000000"/>
<path class="atom-42" d="M 424.415 165.723 L 425.461 165.723 L 425.461 169.001 L 429.403 169.001 L 429.403 165.723 L 430.448 165.723 L 430.448 173.433 L 429.403 173.433 L 429.403 169.872 L 425.461 169.872 L 425.461 173.433 L 424.415 173.433 L 424.415 165.723 " fill="#000000"/>
<path class="atom-45" d="M 494.728 107.621 Q 494.728 105.77, 495.643 104.736 Q 496.558 103.701, 498.267 103.701 Q 499.977 103.701, 500.892 104.736 Q 501.806 105.77, 501.806 107.621 Q 501.806 109.494, 500.881 110.562 Q 499.955 111.618, 498.267 111.618 Q 496.568 111.618, 495.643 110.562 Q 494.728 109.505, 494.728 107.621 M 498.267 110.747 Q 499.443 110.747, 500.075 109.963 Q 500.717 109.168, 500.717 107.621 Q 500.717 106.108, 500.075 105.346 Q 499.443 104.572, 498.267 104.572 Q 497.091 104.572, 496.449 105.335 Q 495.817 106.097, 495.817 107.621 Q 495.817 109.179, 496.449 109.963 Q 497.091 110.747, 498.267 110.747 " fill="#FF0000"/>
<path class="atom-46" d="M 482.124 80.2485 L 483.169 80.2485 L 483.169 83.5262 L 487.112 83.5262 L 487.112 80.2485 L 488.157 80.2485 L 488.157 87.9583 L 487.112 87.9583 L 487.112 84.3974 L 483.169 84.3974 L 483.169 87.9583 L 482.124 87.9583 L 482.124 80.2485 " fill="#000000"/>
<path class="atom-47" d="M 465.856 72.2587 L 466.901 72.2587 L 466.901 75.5365 L 470.843 75.5365 L 470.843 72.2587 L 471.889 72.2587 L 471.889 79.9685 L 470.843 79.9685 L 470.843 76.4076 L 466.901 76.4076 L 466.901 79.9685 L 465.856 79.9685 L 465.856 72.2587 " fill="#000000"/>
<path class="atom-48" d="M 448.95 91.5935 L 449.996 91.5935 L 449.996 94.8712 L 453.938 94.8712 L 453.938 91.5935 L 454.983 91.5935 L 454.983 99.3032 L 453.938 99.3032 L 453.938 95.7424 L 449.996 95.7424 L 449.996 99.3032 L 448.95 99.3032 L 448.95 91.5935 " fill="#000000"/>
<text x="300" y="20" font-size="20" font-family="sans-serif" font-weight="normal" letter-spacing="0" text-anchor="middle" fill="black">ptp1b: 23486 -&gt; 23479</text><text x="300" y="35" font-size="15" font-family="sans-serif" font-weight="normal" letter-spacing="0" text-anchor="middle" fill="black">complex (repeats 4, 5, 6), water (repeats 4, 5, 6), DDG_exp = 3.35 (0.0) kcal/mol</text><text x="150" y="285" font-size="15" font-family="sans-serif" font-weight="normal" letter-spacing="0" text-anchor="middle" fill="black">23486</text><text x="450" y="285" font-size="15" font-family="sans-serif" font-weight="normal" letter-spacing="0" text-anchor="middle" fill="black">23479</text></svg>
