<?xml version='1.0' encoding='ASCII' standalone='yes'?>
<svg xmlns="http://www.w3.org/2000/svg" xmlns:rdkit="http://www.rdkit.org/xml" xmlns:xlink="http://www.w3.org/1999/xlink" version="1.1" baseProfile="full" xml:space="preserve" width="600px" height="300px" viewBox="0 0 600 300">
<!-- END OF HEADER -->
<rect style="opacity:1.0;fill:#FFFFFF;stroke:none" width="600" height="300" x="0" y="0"> </rect>
<rect style="opacity:1.0;fill:#FFFFFF;stroke:none" width="600" height="300" x="0" y="0"> </rect>
<rect style="opacity:1.0;fill:#FFFFFF;stroke:none" width="600" height="300" x="0" y="0"> </rect>
<ellipse cx="130.743" cy="53.4835" rx="5.47907" ry="5.47907" style="fill:#CFAA27;fill-rule:evenodd;stroke:#CFAA27;stroke-width:1px;stroke-linecap:butt;stroke-linejoin:miter;stroke-opacity:1"/>
<ellipse cx="114.76" cy="57.9425" rx="5.47907" ry="5.47907" style="fill:#B8A444;fill-rule:evenodd;stroke:#B8A444;stroke-width:1px;stroke-linecap:butt;stroke-linejoin:miter;stroke-opacity:1"/>
<ellipse cx="104.237" cy="46.4112" rx="6.51739" ry="5.47907" style="fill:#A19F62;fill-rule:evenodd;stroke:#A19F62;stroke-width:1px;stroke-linecap:butt;stroke-linejoin:miter;stroke-opacity:1"/>
<ellipse cx="110.673" cy="74.051" rx="5.47907" ry="5.47907" style="fill:#7C947A;fill-rule:evenodd;stroke:#7C947A;stroke-width:1px;stroke-linecap:butt;stroke-linejoin:miter;stroke-opacity:1"/>
<ellipse cx="94.6753" cy="78.6287" rx="5.47907" ry="5.47907" style="fill:#588A93;fill-rule:evenodd;stroke:#588A93;stroke-width:1px;stroke-linecap:butt;stroke-linejoin:miter;stroke-opacity:1"/>
<ellipse cx="90.408" cy="94.7915" rx="5.47907" ry="5.47907" style="fill:#3D79AB;fill-rule:evenodd;stroke:#3D79AB;stroke-width:1px;stroke-linecap:butt;stroke-linejoin:miter;stroke-opacity:1"/>
<ellipse cx="101.284" cy="107.512" rx="5.47907" ry="5.47907" style="fill:#2269C4;fill-rule:evenodd;stroke:#2269C4;stroke-width:1px;stroke-linecap:butt;stroke-linejoin:miter;stroke-opacity:1"/>
<ellipse cx="119.577" cy="106.431" rx="8.30162" ry="8.30162" style="fill:#C21F30;fill-rule:evenodd;stroke:#C21F30;stroke-width:1px;stroke-linecap:butt;stroke-linejoin:miter;stroke-opacity:1"/>
<ellipse cx="92.2652" cy="121.359" rx="5.47907" ry="5.47907" style="fill:#3E3EF0;fill-rule:evenodd;stroke:#3E3EF0;stroke-width:1px;stroke-linecap:butt;stroke-linejoin:miter;stroke-opacity:1"/>
<ellipse cx="98.5211" cy="136.541" rx="5.47907" ry="5.47907" style="fill:#5446F4;fill-rule:evenodd;stroke:#5446F4;stroke-width:1px;stroke-linecap:butt;stroke-linejoin:miter;stroke-opacity:1"/>
<ellipse cx="88.8209" cy="150.446" rx="5.47907" ry="5.47907" style="fill:#6B4EF9;fill-rule:evenodd;stroke:#6B4EF9;stroke-width:1px;stroke-linecap:butt;stroke-linejoin:miter;stroke-opacity:1"/>
<ellipse cx="95.181" cy="165.535" rx="5.47907" ry="5.47907" style="fill:#805CF9;fill-rule:evenodd;stroke:#805CF9;stroke-width:1px;stroke-linecap:butt;stroke-linejoin:miter;stroke-opacity:1"/>
<ellipse cx="111.783" cy="166.856" rx="5.47907" ry="5.47907" style="fill:#CFAA27;fill-rule:evenodd;stroke:#CFAA27;stroke-width:1px;stroke-linecap:butt;stroke-linejoin:miter;stroke-opacity:1"/>
<ellipse cx="122.011" cy="153.315" rx="5.47907" ry="5.47907" style="fill:#B8A444;fill-rule:evenodd;stroke:#B8A444;stroke-width:1px;stroke-linecap:butt;stroke-linejoin:miter;stroke-opacity:1"/>
<ellipse cx="139.252" cy="155.43" rx="5.47907" ry="5.47907" style="fill:#A19F62;fill-rule:evenodd;stroke:#A19F62;stroke-width:1px;stroke-linecap:butt;stroke-linejoin:miter;stroke-opacity:1"/>
<ellipse cx="152.216" cy="139.577" rx="5.47907" ry="5.47907" style="fill:#7C947A;fill-rule:evenodd;stroke:#7C947A;stroke-width:1px;stroke-linecap:butt;stroke-linejoin:miter;stroke-opacity:1"/>
<ellipse cx="165.498" cy="151.807" rx="5.47907" ry="5.47907" style="fill:#588A93;fill-rule:evenodd;stroke:#588A93;stroke-width:1px;stroke-linecap:butt;stroke-linejoin:miter;stroke-opacity:1"/>
<ellipse cx="182.543" cy="146.971" rx="5.47907" ry="5.47907" style="fill:#3D79AB;fill-rule:evenodd;stroke:#3D79AB;stroke-width:1px;stroke-linecap:butt;stroke-linejoin:miter;stroke-opacity:1"/>
<ellipse cx="186.457" cy="129.303" rx="5.47907" ry="5.47907" style="fill:#2269C4;fill-rule:evenodd;stroke:#2269C4;stroke-width:1px;stroke-linecap:butt;stroke-linejoin:miter;stroke-opacity:1"/>
<ellipse cx="203.976" cy="124.345" rx="5.47907" ry="5.47907" style="fill:#3053DA;fill-rule:evenodd;stroke:#3053DA;stroke-width:1px;stroke-linecap:butt;stroke-linejoin:miter;stroke-opacity:1"/>
<ellipse cx="208.661" cy="139.542" rx="5.47907" ry="5.47907" style="fill:#3E3EF0;fill-rule:evenodd;stroke:#3E3EF0;stroke-width:1px;stroke-linecap:butt;stroke-linejoin:miter;stroke-opacity:1"/>
<ellipse cx="199.958" cy="108.562" rx="5.47907" ry="5.47907" style="fill:#5446F4;fill-rule:evenodd;stroke:#5446F4;stroke-width:1px;stroke-linecap:butt;stroke-linejoin:miter;stroke-opacity:1"/>
<ellipse cx="220.06" cy="120.115" rx="5.47907" ry="5.47907" style="fill:#6B4EF9;fill-rule:evenodd;stroke:#6B4EF9;stroke-width:1px;stroke-linecap:butt;stroke-linejoin:miter;stroke-opacity:1"/>
<ellipse cx="173.555" cy="116.681" rx="5.47907" ry="5.47907" style="fill:#805CF9;fill-rule:evenodd;stroke:#805CF9;stroke-width:1px;stroke-linecap:butt;stroke-linejoin:miter;stroke-opacity:1"/>
<ellipse cx="156.621" cy="121.986" rx="5.47907" ry="5.47907" style="fill:#CFAA27;fill-rule:evenodd;stroke:#CFAA27;stroke-width:1px;stroke-linecap:butt;stroke-linejoin:miter;stroke-opacity:1"/>
<ellipse cx="115.055" cy="138.523" rx="5.47907" ry="5.47907" style="fill:#B8A444;fill-rule:evenodd;stroke:#B8A444;stroke-width:1px;stroke-linecap:butt;stroke-linejoin:miter;stroke-opacity:1"/>
<ellipse cx="76.2109" cy="117.574" rx="5.47907" ry="5.47907" style="fill:#A19F62;fill-rule:evenodd;stroke:#A19F62;stroke-width:1px;stroke-linecap:butt;stroke-linejoin:miter;stroke-opacity:1"/>
<ellipse cx="75.3872" cy="100.761" rx="5.47907" ry="5.47907" style="fill:#7C947A;fill-rule:evenodd;stroke:#7C947A;stroke-width:1px;stroke-linecap:butt;stroke-linejoin:miter;stroke-opacity:1"/>
<ellipse cx="61.1751" cy="91.9194" rx="5.47907" ry="5.47907" style="fill:#588A93;fill-rule:evenodd;stroke:#588A93;stroke-width:1px;stroke-linecap:butt;stroke-linejoin:miter;stroke-opacity:1"/>
<ellipse cx="46.4832" cy="99.6904" rx="5.47907" ry="5.47907" style="fill:#3D79AB;fill-rule:evenodd;stroke:#3D79AB;stroke-width:1px;stroke-linecap:butt;stroke-linejoin:miter;stroke-opacity:1"/>
<ellipse cx="63.2135" cy="75.3778" rx="6.51739" ry="5.47907" style="fill:#2269C4;fill-rule:evenodd;stroke:#2269C4;stroke-width:1px;stroke-linecap:butt;stroke-linejoin:miter;stroke-opacity:1"/>
<ellipse cx="115.195" cy="90.0248" rx="5.47907" ry="5.47907" style="fill:#3053DA;fill-rule:evenodd;stroke:#3053DA;stroke-width:1px;stroke-linecap:butt;stroke-linejoin:miter;stroke-opacity:1"/>
<ellipse cx="126.772" cy="78.125" rx="5.47907" ry="5.47907" style="fill:#3E3EF0;fill-rule:evenodd;stroke:#3E3EF0;stroke-width:1px;stroke-linecap:butt;stroke-linejoin:miter;stroke-opacity:1"/>
<ellipse cx="72.1408" cy="148.695" rx="5.47907" ry="5.47907" style="fill:#5446F4;fill-rule:evenodd;stroke:#5446F4;stroke-width:1px;stroke-linecap:butt;stroke-linejoin:miter;stroke-opacity:1"/>
<ellipse cx="85.5614" cy="178.86" rx="5.47907" ry="5.47907" style="fill:#6B4EF9;fill-rule:evenodd;stroke:#6B4EF9;stroke-width:1px;stroke-linecap:butt;stroke-linejoin:miter;stroke-opacity:1"/>
<ellipse cx="118.657" cy="182.155" rx="5.47907" ry="5.47907" style="fill:#805CF9;fill-rule:evenodd;stroke:#805CF9;stroke-width:1px;stroke-linecap:butt;stroke-linejoin:miter;stroke-opacity:1"/>
<ellipse cx="137.299" cy="133.091" rx="5.47907" ry="5.47907" style="fill:#CFAA27;fill-rule:evenodd;stroke:#CFAA27;stroke-width:1px;stroke-linecap:butt;stroke-linejoin:miter;stroke-opacity:1"/>
<ellipse cx="172.344" cy="166.871" rx="5.47907" ry="5.47907" style="fill:#B8A444;fill-rule:evenodd;stroke:#B8A444;stroke-width:1px;stroke-linecap:butt;stroke-linejoin:miter;stroke-opacity:1"/>
<ellipse cx="154.811" cy="160.607" rx="5.47907" ry="5.47907" style="fill:#A19F62;fill-rule:evenodd;stroke:#A19F62;stroke-width:1px;stroke-linecap:butt;stroke-linejoin:miter;stroke-opacity:1"/>
<ellipse cx="198.282" cy="147.961" rx="5.47907" ry="5.47907" style="fill:#7C947A;fill-rule:evenodd;stroke:#7C947A;stroke-width:1px;stroke-linecap:butt;stroke-linejoin:miter;stroke-opacity:1"/>
<ellipse cx="185.098" cy="163.066" rx="5.47907" ry="5.47907" style="fill:#588A93;fill-rule:evenodd;stroke:#588A93;stroke-width:1px;stroke-linecap:butt;stroke-linejoin:miter;stroke-opacity:1"/>
<ellipse cx="224.102" cy="136.277" rx="5.47907" ry="5.47907" style="fill:#3D79AB;fill-rule:evenodd;stroke:#3D79AB;stroke-width:1px;stroke-linecap:butt;stroke-linejoin:miter;stroke-opacity:1"/>
<ellipse cx="236.035" cy="124.767" rx="5.47907" ry="5.47907" style="fill:#2269C4;fill-rule:evenodd;stroke:#2269C4;stroke-width:1px;stroke-linecap:butt;stroke-linejoin:miter;stroke-opacity:1"/>
<ellipse cx="167.068" cy="101.742" rx="5.47907" ry="5.47907" style="fill:#3053DA;fill-rule:evenodd;stroke:#3053DA;stroke-width:1px;stroke-linecap:butt;stroke-linejoin:miter;stroke-opacity:1"/>
<ellipse cx="186.74" cy="107.334" rx="5.47907" ry="5.47907" style="fill:#3E3EF0;fill-rule:evenodd;stroke:#3E3EF0;stroke-width:1px;stroke-linecap:butt;stroke-linejoin:miter;stroke-opacity:1"/>
<ellipse cx="140.213" cy="120.167" rx="5.47907" ry="5.47907" style="fill:#5446F4;fill-rule:evenodd;stroke:#5446F4;stroke-width:1px;stroke-linecap:butt;stroke-linejoin:miter;stroke-opacity:1"/>
<ellipse cx="154.219" cy="105.589" rx="5.47907" ry="5.47907" style="fill:#6B4EF9;fill-rule:evenodd;stroke:#6B4EF9;stroke-width:1px;stroke-linecap:butt;stroke-linejoin:miter;stroke-opacity:1"/>
<ellipse cx="124.872" cy="124.924" rx="5.47907" ry="5.47907" style="fill:#805CF9;fill-rule:evenodd;stroke:#805CF9;stroke-width:1px;stroke-linecap:butt;stroke-linejoin:miter;stroke-opacity:1"/>
<path class="bond-0" d="M 126.684,53.0223 L 120.519,54.7634" style="fill:none;fill-rule:evenodd;stroke:#FF0000;stroke-width:2.0px;stroke-linecap:butt;stroke-linejoin:miter;stroke-opacity:1"/>
<path class="bond-0" d="M 120.519,54.7634 L 114.354,56.5044" style="fill:none;fill-rule:evenodd;stroke:#000000;stroke-width:2.0px;stroke-linecap:butt;stroke-linejoin:miter;stroke-opacity:1"/>
<path class="bond-0" d="M 127.496,55.8984 L 121.331,57.6394" style="fill:none;fill-rule:evenodd;stroke:#FF0000;stroke-width:2.0px;stroke-linecap:butt;stroke-linejoin:miter;stroke-opacity:1"/>
<path class="bond-0" d="M 121.331,57.6394 L 115.166,59.3805" style="fill:none;fill-rule:evenodd;stroke:#000000;stroke-width:2.0px;stroke-linecap:butt;stroke-linejoin:miter;stroke-opacity:1"/>
<path class="bond-1" d="M 114.76,57.9425 L 110.639,53.9285" style="fill:none;fill-rule:evenodd;stroke:#000000;stroke-width:2.0px;stroke-linecap:butt;stroke-linejoin:miter;stroke-opacity:1"/>
<path class="bond-1" d="M 110.639,53.9285 L 106.519,49.9146" style="fill:none;fill-rule:evenodd;stroke:#FF0000;stroke-width:2.0px;stroke-linecap:butt;stroke-linejoin:miter;stroke-opacity:1"/>
<path class="bond-2" d="M 114.76,57.9425 L 110.673,74.051" style="fill:none;fill-rule:evenodd;stroke:#000000;stroke-width:2.0px;stroke-linecap:butt;stroke-linejoin:miter;stroke-opacity:1"/>
<path class="bond-3" d="M 110.673,74.051 L 104.501,75.796" style="fill:none;fill-rule:evenodd;stroke:#000000;stroke-width:2.0px;stroke-linecap:butt;stroke-linejoin:miter;stroke-opacity:1"/>
<path class="bond-3" d="M 104.501,75.796 L 98.3286,77.5411" style="fill:none;fill-rule:evenodd;stroke:#FF0000;stroke-width:2.0px;stroke-linecap:butt;stroke-linejoin:miter;stroke-opacity:1"/>
<path class="bond-4" d="M 110.673,74.051 L 114.079,86.0832" style="fill:none;fill-rule:evenodd;stroke:#000000;stroke-width:2.0px;stroke-linecap:butt;stroke-linejoin:miter;stroke-opacity:1"/>
<path class="bond-5" d="M 110.673,74.051 L 123.597,77.3216" style="fill:none;fill-rule:evenodd;stroke:#000000;stroke-width:2.0px;stroke-linecap:butt;stroke-linejoin:miter;stroke-opacity:1"/>
<path class="bond-6" d="M 93.5978,82.6691 L 92.0029,88.7303" style="fill:none;fill-rule:evenodd;stroke:#FF0000;stroke-width:2.0px;stroke-linecap:butt;stroke-linejoin:miter;stroke-opacity:1"/>
<path class="bond-6" d="M 92.0029,88.7303 L 90.408,94.7915" style="fill:none;fill-rule:evenodd;stroke:#000000;stroke-width:2.0px;stroke-linecap:butt;stroke-linejoin:miter;stroke-opacity:1"/>
<path class="bond-7" d="M 90.408,94.7915 L 101.284,107.512" style="fill:none;fill-rule:evenodd;stroke:#000000;stroke-width:2.0px;stroke-linecap:butt;stroke-linejoin:miter;stroke-opacity:1"/>
<path class="bond-8" d="M 90.408,94.7915 L 75.3872,100.761" style="fill:none;fill-rule:evenodd;stroke:#000000;stroke-width:2.0px;stroke-linecap:butt;stroke-linejoin:miter;stroke-opacity:1"/>
<path class="bond-8" d="M 89.2586,98.4642 L 78.7441,102.643" style="fill:none;fill-rule:evenodd;stroke:#000000;stroke-width:2.0px;stroke-linecap:butt;stroke-linejoin:miter;stroke-opacity:1"/>
<path class="bond-9" d="M 101.284,107.512 L 108.081,107.064" style="fill:none;fill-rule:evenodd;stroke:#000000;stroke-width:2.0px;stroke-linecap:butt;stroke-linejoin:miter;stroke-opacity:1"/>
<path class="bond-9" d="M 108.081,107.064 L 114.878,106.616" style="fill:none;fill-rule:evenodd;stroke:#7F4C19;stroke-width:2.0px;stroke-linecap:butt;stroke-linejoin:miter;stroke-opacity:1"/>
<path class="bond-10" d="M 101.284,107.512 L 92.2652,121.359" style="fill:none;fill-rule:evenodd;stroke:#000000;stroke-width:2.0px;stroke-linecap:butt;stroke-linejoin:miter;stroke-opacity:1"/>
<path class="bond-10" d="M 97.4269,107.958 L 91.1138,117.651" style="fill:none;fill-rule:evenodd;stroke:#000000;stroke-width:2.0px;stroke-linecap:butt;stroke-linejoin:miter;stroke-opacity:1"/>
<path class="bond-11" d="M 92.2652,121.359 L 98.5211,136.541" style="fill:none;fill-rule:evenodd;stroke:#000000;stroke-width:2.0px;stroke-linecap:butt;stroke-linejoin:miter;stroke-opacity:1"/>
<path class="bond-12" d="M 92.2652,121.359 L 85.5752,119.742" style="fill:none;fill-rule:evenodd;stroke:#000000;stroke-width:2.0px;stroke-linecap:butt;stroke-linejoin:miter;stroke-opacity:1"/>
<path class="bond-12" d="M 85.5752,119.742 L 78.8852,118.126" style="fill:none;fill-rule:evenodd;stroke:#CCCC00;stroke-width:2.0px;stroke-linecap:butt;stroke-linejoin:miter;stroke-opacity:1"/>
<path class="bond-13" d="M 98.5211,136.541 L 88.8209,150.446" style="fill:none;fill-rule:evenodd;stroke:#000000;stroke-width:2.0px;stroke-linecap:butt;stroke-linejoin:miter;stroke-opacity:1"/>
<path class="bond-13" d="M 99.5172,140.337 L 92.7271,150.07" style="fill:none;fill-rule:evenodd;stroke:#000000;stroke-width:2.0px;stroke-linecap:butt;stroke-linejoin:miter;stroke-opacity:1"/>
<path class="bond-14" d="M 98.5211,136.541 L 115.055,138.523" style="fill:none;fill-rule:evenodd;stroke:#000000;stroke-width:2.0px;stroke-linecap:butt;stroke-linejoin:miter;stroke-opacity:1"/>
<path class="bond-15" d="M 88.8209,150.446 L 95.181,165.535" style="fill:none;fill-rule:evenodd;stroke:#000000;stroke-width:2.0px;stroke-linecap:butt;stroke-linejoin:miter;stroke-opacity:1"/>
<path class="bond-16" d="M 88.8209,150.446 L 75.3196,149.029" style="fill:none;fill-rule:evenodd;stroke:#000000;stroke-width:2.0px;stroke-linecap:butt;stroke-linejoin:miter;stroke-opacity:1"/>
<path class="bond-17" d="M 95.181,165.535 L 111.783,166.856" style="fill:none;fill-rule:evenodd;stroke:#000000;stroke-width:2.0px;stroke-linecap:butt;stroke-linejoin:miter;stroke-opacity:1"/>
<path class="bond-17" d="M 97.9083,162.754 L 109.53,163.679" style="fill:none;fill-rule:evenodd;stroke:#000000;stroke-width:2.0px;stroke-linecap:butt;stroke-linejoin:miter;stroke-opacity:1"/>
<path class="bond-18" d="M 95.181,165.535 L 88.4039,174.923" style="fill:none;fill-rule:evenodd;stroke:#000000;stroke-width:2.0px;stroke-linecap:butt;stroke-linejoin:miter;stroke-opacity:1"/>
<path class="bond-19" d="M 111.783,166.856 L 122.011,153.315" style="fill:none;fill-rule:evenodd;stroke:#000000;stroke-width:2.0px;stroke-linecap:butt;stroke-linejoin:miter;stroke-opacity:1"/>
<path class="bond-20" d="M 111.783,166.856 L 116.884,178.209" style="fill:none;fill-rule:evenodd;stroke:#000000;stroke-width:2.0px;stroke-linecap:butt;stroke-linejoin:miter;stroke-opacity:1"/>
<path class="bond-21" d="M 122.011,153.315 L 129.077,154.182" style="fill:none;fill-rule:evenodd;stroke:#000000;stroke-width:2.0px;stroke-linecap:butt;stroke-linejoin:miter;stroke-opacity:1"/>
<path class="bond-21" d="M 129.077,154.182 L 136.143,155.048" style="fill:none;fill-rule:evenodd;stroke:#0000FF;stroke-width:2.0px;stroke-linecap:butt;stroke-linejoin:miter;stroke-opacity:1"/>
<path class="bond-22" d="M 122.011,153.315 L 115.055,138.523" style="fill:none;fill-rule:evenodd;stroke:#000000;stroke-width:2.0px;stroke-linecap:butt;stroke-linejoin:miter;stroke-opacity:1"/>
<path class="bond-22" d="M 118.263,152.368 L 113.394,142.013" style="fill:none;fill-rule:evenodd;stroke:#000000;stroke-width:2.0px;stroke-linecap:butt;stroke-linejoin:miter;stroke-opacity:1"/>
<path class="bond-23" d="M 142.439,151.533 L 147.328,145.555" style="fill:none;fill-rule:evenodd;stroke:#0000FF;stroke-width:2.0px;stroke-linecap:butt;stroke-linejoin:miter;stroke-opacity:1"/>
<path class="bond-23" d="M 147.328,145.555 L 152.216,139.577" style="fill:none;fill-rule:evenodd;stroke:#000000;stroke-width:2.0px;stroke-linecap:butt;stroke-linejoin:miter;stroke-opacity:1"/>
<path class="bond-24" d="M 140.465,159.371 L 141.709,163.41" style="fill:none;fill-rule:evenodd;stroke:#0000FF;stroke-width:2.0px;stroke-linecap:butt;stroke-linejoin:miter;stroke-opacity:1"/>
<path class="bond-24" d="M 141.709,163.41 L 142.953,167.449" style="fill:none;fill-rule:evenodd;stroke:#000000;stroke-width:2.0px;stroke-linecap:butt;stroke-linejoin:miter;stroke-opacity:1"/>
<path class="bond-25" d="M 152.216,139.577 L 165.498,151.807" style="fill:none;fill-rule:evenodd;stroke:#000000;stroke-width:2.0px;stroke-linecap:butt;stroke-linejoin:miter;stroke-opacity:1"/>
<path class="bond-26" d="M 152.216,139.577 L 156.621,121.986" style="fill:none;fill-rule:evenodd;stroke:#000000;stroke-width:2.0px;stroke-linecap:butt;stroke-linejoin:miter;stroke-opacity:1"/>
<path class="bond-27" d="M 152.216,139.577 L 140.465,134.467" style="fill:none;fill-rule:evenodd;stroke:#000000;stroke-width:2.0px;stroke-linecap:butt;stroke-linejoin:miter;stroke-opacity:1"/>
<path class="bond-28" d="M 165.498,151.807 L 182.543,146.971" style="fill:none;fill-rule:evenodd;stroke:#000000;stroke-width:2.0px;stroke-linecap:butt;stroke-linejoin:miter;stroke-opacity:1"/>
<path class="bond-29" d="M 165.498,151.807 L 170.553,162.931" style="fill:none;fill-rule:evenodd;stroke:#000000;stroke-width:2.0px;stroke-linecap:butt;stroke-linejoin:miter;stroke-opacity:1"/>
<path class="bond-30" d="M 165.498,151.807 L 157.917,158.05" style="fill:none;fill-rule:evenodd;stroke:#000000;stroke-width:2.0px;stroke-linecap:butt;stroke-linejoin:miter;stroke-opacity:1"/>
<path class="bond-31" d="M 182.543,146.971 L 184.059,140.126" style="fill:none;fill-rule:evenodd;stroke:#000000;stroke-width:2.0px;stroke-linecap:butt;stroke-linejoin:miter;stroke-opacity:1"/>
<path class="bond-31" d="M 184.059,140.126 L 185.576,133.282" style="fill:none;fill-rule:evenodd;stroke:#0000FF;stroke-width:2.0px;stroke-linecap:butt;stroke-linejoin:miter;stroke-opacity:1"/>
<path class="bond-32" d="M 182.543,146.971 L 195.128,147.763" style="fill:none;fill-rule:evenodd;stroke:#000000;stroke-width:2.0px;stroke-linecap:butt;stroke-linejoin:miter;stroke-opacity:1"/>
<path class="bond-33" d="M 182.543,146.971 L 184.473,159.132" style="fill:none;fill-rule:evenodd;stroke:#000000;stroke-width:2.0px;stroke-linecap:butt;stroke-linejoin:miter;stroke-opacity:1"/>
<path class="bond-34" d="M 189.588,128.4 L 195.464,126.705" style="fill:none;fill-rule:evenodd;stroke:#0000FF;stroke-width:2.0px;stroke-linecap:butt;stroke-linejoin:miter;stroke-opacity:1"/>
<path class="bond-34" d="M 195.464,126.705 L 201.34,125.01" style="fill:none;fill-rule:evenodd;stroke:#CCCC00;stroke-width:2.0px;stroke-linecap:butt;stroke-linejoin:miter;stroke-opacity:1"/>
<path class="bond-35" d="M 183.331,126.245 L 178.443,121.463" style="fill:none;fill-rule:evenodd;stroke:#0000FF;stroke-width:2.0px;stroke-linecap:butt;stroke-linejoin:miter;stroke-opacity:1"/>
<path class="bond-35" d="M 178.443,121.463 L 173.555,116.681" style="fill:none;fill-rule:evenodd;stroke:#000000;stroke-width:2.0px;stroke-linecap:butt;stroke-linejoin:miter;stroke-opacity:1"/>
<path class="bond-36" d="M 203.81,128.794 L 204.928,132.431" style="fill:none;fill-rule:evenodd;stroke:#CCCC00;stroke-width:2.0px;stroke-linecap:butt;stroke-linejoin:miter;stroke-opacity:1"/>
<path class="bond-36" d="M 204.928,132.431 L 206.047,136.068" style="fill:none;fill-rule:evenodd;stroke:#FF0000;stroke-width:2.0px;stroke-linecap:butt;stroke-linejoin:miter;stroke-opacity:1"/>
<path class="bond-36" d="M 206.666,127.915 L 207.785,131.553" style="fill:none;fill-rule:evenodd;stroke:#CCCC00;stroke-width:2.0px;stroke-linecap:butt;stroke-linejoin:miter;stroke-opacity:1"/>
<path class="bond-36" d="M 207.785,131.553 L 208.903,135.19" style="fill:none;fill-rule:evenodd;stroke:#FF0000;stroke-width:2.0px;stroke-linecap:butt;stroke-linejoin:miter;stroke-opacity:1"/>
<path class="bond-37" d="M 204.422,119.958 L 203.422,116.038" style="fill:none;fill-rule:evenodd;stroke:#CCCC00;stroke-width:2.0px;stroke-linecap:butt;stroke-linejoin:miter;stroke-opacity:1"/>
<path class="bond-37" d="M 203.422,116.038 L 202.422,112.119" style="fill:none;fill-rule:evenodd;stroke:#FF0000;stroke-width:2.0px;stroke-linecap:butt;stroke-linejoin:miter;stroke-opacity:1"/>
<path class="bond-37" d="M 201.527,120.697 L 200.526,116.777" style="fill:none;fill-rule:evenodd;stroke:#CCCC00;stroke-width:2.0px;stroke-linecap:butt;stroke-linejoin:miter;stroke-opacity:1"/>
<path class="bond-37" d="M 200.526,116.777 L 199.526,112.858" style="fill:none;fill-rule:evenodd;stroke:#FF0000;stroke-width:2.0px;stroke-linecap:butt;stroke-linejoin:miter;stroke-opacity:1"/>
<path class="bond-38" d="M 206.652,123.562 L 213.356,121.839" style="fill:none;fill-rule:evenodd;stroke:#CCCC00;stroke-width:2.0px;stroke-linecap:butt;stroke-linejoin:miter;stroke-opacity:1"/>
<path class="bond-38" d="M 213.356,121.839 L 220.06,120.115" style="fill:none;fill-rule:evenodd;stroke:#000000;stroke-width:2.0px;stroke-linecap:butt;stroke-linejoin:miter;stroke-opacity:1"/>
<path class="bond-39" d="M 220.06,120.115 L 223.116,132.334" style="fill:none;fill-rule:evenodd;stroke:#000000;stroke-width:2.0px;stroke-linecap:butt;stroke-linejoin:miter;stroke-opacity:1"/>
<path class="bond-40" d="M 220.06,120.115 L 232.859,123.842" style="fill:none;fill-rule:evenodd;stroke:#000000;stroke-width:2.0px;stroke-linecap:butt;stroke-linejoin:miter;stroke-opacity:1"/>
<path class="bond-41" d="M 220.06,120.115 L 223.512,108.146" style="fill:none;fill-rule:evenodd;stroke:#000000;stroke-width:2.0px;stroke-linecap:butt;stroke-linejoin:miter;stroke-opacity:1"/>
<path class="bond-42" d="M 173.555,116.681 L 156.621,121.986" style="fill:none;fill-rule:evenodd;stroke:#000000;stroke-width:2.0px;stroke-linecap:butt;stroke-linejoin:miter;stroke-opacity:1"/>
<path class="bond-43" d="M 173.555,116.681 L 168.776,105.676" style="fill:none;fill-rule:evenodd;stroke:#000000;stroke-width:2.0px;stroke-linecap:butt;stroke-linejoin:miter;stroke-opacity:1"/>
<path class="bond-44" d="M 173.555,116.681 L 183.576,109.577" style="fill:none;fill-rule:evenodd;stroke:#000000;stroke-width:2.0px;stroke-linecap:butt;stroke-linejoin:miter;stroke-opacity:1"/>
<path class="bond-45" d="M 156.621,121.986 L 143.385,120.519" style="fill:none;fill-rule:evenodd;stroke:#000000;stroke-width:2.0px;stroke-linecap:butt;stroke-linejoin:miter;stroke-opacity:1"/>
<path class="bond-46" d="M 156.621,121.986 L 154.796,109.53" style="fill:none;fill-rule:evenodd;stroke:#000000;stroke-width:2.0px;stroke-linecap:butt;stroke-linejoin:miter;stroke-opacity:1"/>
<path class="bond-47" d="M 115.055,138.523 L 122.023,128.87" style="fill:none;fill-rule:evenodd;stroke:#000000;stroke-width:2.0px;stroke-linecap:butt;stroke-linejoin:miter;stroke-opacity:1"/>
<path class="bond-48" d="M 76.0171,113.545 L 75.7021,107.153" style="fill:none;fill-rule:evenodd;stroke:#CCCC00;stroke-width:2.0px;stroke-linecap:butt;stroke-linejoin:miter;stroke-opacity:1"/>
<path class="bond-48" d="M 75.7021,107.153 L 75.3872,100.761" style="fill:none;fill-rule:evenodd;stroke:#000000;stroke-width:2.0px;stroke-linecap:butt;stroke-linejoin:miter;stroke-opacity:1"/>
<path class="bond-49" d="M 75.3872,100.761 L 61.1751,91.9194" style="fill:none;fill-rule:evenodd;stroke:#000000;stroke-width:2.0px;stroke-linecap:butt;stroke-linejoin:miter;stroke-opacity:1"/>
<path class="bond-50" d="M 60.4803,90.5965 L 54.9606,93.4954" style="fill:none;fill-rule:evenodd;stroke:#000000;stroke-width:2.0px;stroke-linecap:butt;stroke-linejoin:miter;stroke-opacity:1"/>
<path class="bond-50" d="M 54.9606,93.4954 L 49.4409,96.3944" style="fill:none;fill-rule:evenodd;stroke:#FF0000;stroke-width:2.0px;stroke-linecap:butt;stroke-linejoin:miter;stroke-opacity:1"/>
<path class="bond-50" d="M 61.8699,93.2424 L 56.3502,96.1413" style="fill:none;fill-rule:evenodd;stroke:#000000;stroke-width:2.0px;stroke-linecap:butt;stroke-linejoin:miter;stroke-opacity:1"/>
<path class="bond-50" d="M 56.3502,96.1413 L 50.8305,99.0403" style="fill:none;fill-rule:evenodd;stroke:#FF0000;stroke-width:2.0px;stroke-linecap:butt;stroke-linejoin:miter;stroke-opacity:1"/>
<path class="bond-51" d="M 61.1751,91.9194 L 61.4266,85.6668" style="fill:none;fill-rule:evenodd;stroke:#000000;stroke-width:2.0px;stroke-linecap:butt;stroke-linejoin:miter;stroke-opacity:1"/>
<path class="bond-51" d="M 61.4266,85.6668 L 61.6781,79.4142" style="fill:none;fill-rule:evenodd;stroke:#FF0000;stroke-width:2.0px;stroke-linecap:butt;stroke-linejoin:miter;stroke-opacity:1"/>
<path class="atom-0" d="M 127.505 53.4486 Q 127.505 51.7551, 128.342 50.8087 Q 129.178 49.8623, 130.743 49.8623 Q 132.307 49.8623, 133.143 50.8087 Q 133.98 51.7551, 133.98 53.4486 Q 133.98 55.1621, 133.133 56.1383 Q 132.287 57.1047, 130.743 57.1047 Q 129.188 57.1047, 128.342 56.1383 Q 127.505 55.172, 127.505 53.4486 M 130.743 56.3077 Q 131.818 56.3077, 132.396 55.5904 Q 132.984 54.8632, 132.984 53.4486 Q 132.984 52.0639, 132.396 51.3666 Q 131.818 50.6593, 130.743 50.6593 Q 129.667 50.6593, 129.079 51.3566 Q 128.501 52.054, 128.501 53.4486 Q 128.501 54.8732, 129.079 55.5904 Q 129.667 56.3077, 130.743 56.3077 " fill="#FF0000"/>
<path class="atom-2" d="M 99.6283 46.3763 Q 99.6283 44.6828, 100.465 43.7364 Q 101.302 42.79, 102.866 42.79 Q 104.43 42.79, 105.267 43.7364 Q 106.104 44.6828, 106.104 46.3763 Q 106.104 48.0898, 105.257 49.0661 Q 104.41 50.0324, 102.866 50.0324 Q 101.312 50.0324, 100.465 49.0661 Q 99.6283 48.0997, 99.6283 46.3763 M 102.866 49.2354 Q 103.942 49.2354, 104.52 48.5181 Q 105.107 47.7909, 105.107 46.3763 Q 105.107 44.9916, 104.52 44.2943 Q 103.942 43.587, 102.866 43.587 Q 101.79 43.587, 101.202 44.2843 Q 100.624 44.9817, 100.624 46.3763 Q 100.624 47.8009, 101.202 48.5181 Q 101.79 49.2354, 102.866 49.2354 " fill="#FF0000"/>
<path class="atom-2" d="M 106.432 43.9412 L 108.845 43.9412 L 108.845 44.4672 L 106.432 44.4672 L 106.432 43.9412 " fill="#FF0000"/>
<path class="atom-4" d="M 91.4377 78.5938 Q 91.4377 76.9003, 92.2745 75.9539 Q 93.1113 75.0075, 94.6753 75.0075 Q 96.2394 75.0075, 97.0762 75.9539 Q 97.913 76.9003, 97.913 78.5938 Q 97.913 80.3073, 97.0662 81.2836 Q 96.2194 82.2499, 94.6753 82.2499 Q 93.1213 82.2499, 92.2745 81.2836 Q 91.4377 80.3173, 91.4377 78.5938 M 94.6753 81.4529 Q 95.7512 81.4529, 96.329 80.7357 Q 96.9168 80.0084, 96.9168 78.5938 Q 96.9168 77.2091, 96.329 76.5118 Q 95.7512 75.8045, 94.6753 75.8045 Q 93.5994 75.8045, 93.0117 76.5018 Q 92.4339 77.1992, 92.4339 78.5938 Q 92.4339 80.0184, 93.0117 80.7357 Q 93.5994 81.4529, 94.6753 81.4529 " fill="#FF0000"/>
<path class="atom-7" d="M 118.715 106.252 Q 119.393 106.441, 119.732 106.859 Q 120.08 107.268, 120.08 107.875 Q 120.08 108.852, 119.453 109.409 Q 118.835 109.957, 117.659 109.957 L 115.288 109.957 L 115.288 102.904 L 117.371 102.904 Q 118.576 102.904, 119.184 103.392 Q 119.791 103.881, 119.791 104.777 Q 119.791 105.843, 118.715 106.252 M 116.235 103.701 L 116.235 105.913 L 117.371 105.913 Q 118.068 105.913, 118.426 105.634 Q 118.795 105.345, 118.795 104.777 Q 118.795 103.701, 117.371 103.701 L 116.235 103.701 M 117.659 109.16 Q 118.347 109.16, 118.715 108.832 Q 119.084 108.503, 119.084 107.875 Q 119.084 107.298, 118.676 107.009 Q 118.277 106.71, 117.51 106.71 L 116.235 106.71 L 116.235 109.16 L 117.659 109.16 " fill="#7F4C19"/>
<path class="atom-7" d="M 121.684 104.837 L 121.794 105.544 Q 122.332 104.747, 123.208 104.747 Q 123.487 104.747, 123.866 104.847 L 123.716 105.684 Q 123.288 105.584, 123.049 105.584 Q 122.63 105.584, 122.351 105.753 Q 122.083 105.913, 121.863 106.301 L 121.863 109.957 L 120.927 109.957 L 120.927 104.837 L 121.684 104.837 " fill="#7F4C19"/>
<path class="atom-14" d="M 137.693 151.903 L 140.004 155.639 Q 140.233 156.008, 140.602 156.675 Q 140.97 157.343, 140.99 157.382 L 140.99 151.903 L 141.927 151.903 L 141.927 158.956 L 140.96 158.956 L 138.48 154.872 Q 138.191 154.394, 137.882 153.846 Q 137.583 153.298, 137.494 153.129 L 137.494 158.956 L 136.577 158.956 L 136.577 151.903 L 137.693 151.903 " fill="#0000FF"/>
<path class="atom-18" d="M 184.898 125.776 L 187.21 129.512 Q 187.439 129.88, 187.807 130.548 Q 188.176 131.215, 188.196 131.255 L 188.196 125.776 L 189.132 125.776 L 189.132 132.829 L 188.166 132.829 L 185.685 128.745 Q 185.397 128.267, 185.088 127.719 Q 184.789 127.171, 184.699 127.001 L 184.699 132.829 L 183.783 132.829 L 183.783 125.776 L 184.898 125.776 " fill="#0000FF"/>
<path class="atom-19" d="M 201.983 126.671 Q 202.063 126.701, 202.392 126.84 Q 202.72 126.98, 203.079 127.069 Q 203.448 127.149, 203.806 127.149 Q 204.474 127.149, 204.862 126.83 Q 205.251 126.502, 205.251 125.934 Q 205.251 125.545, 205.051 125.306 Q 204.862 125.067, 204.563 124.938 Q 204.264 124.808, 203.766 124.659 Q 203.139 124.469, 202.76 124.29 Q 202.392 124.111, 202.123 123.732 Q 201.864 123.354, 201.864 122.716 Q 201.864 121.829, 202.461 121.282 Q 203.069 120.734, 204.264 120.734 Q 205.081 120.734, 206.008 121.122 L 205.779 121.889 Q 204.932 121.541, 204.294 121.541 Q 203.607 121.541, 203.228 121.829 Q 202.85 122.108, 202.86 122.597 Q 202.86 122.975, 203.049 123.204 Q 203.248 123.433, 203.527 123.563 Q 203.816 123.692, 204.294 123.842 Q 204.932 124.041, 205.31 124.24 Q 205.689 124.439, 205.958 124.848 Q 206.237 125.246, 206.237 125.934 Q 206.237 126.91, 205.579 127.438 Q 204.932 127.956, 203.846 127.956 Q 203.218 127.956, 202.74 127.817 Q 202.272 127.687, 201.714 127.458 L 201.983 126.671 " fill="#CCCC00"/>
<path class="atom-20" d="M 205.424 139.507 Q 205.424 137.813, 206.26 136.867 Q 207.097 135.92, 208.661 135.92 Q 210.225 135.92, 211.062 136.867 Q 211.899 137.813, 211.899 139.507 Q 211.899 141.22, 211.052 142.196 Q 210.205 143.163, 208.661 143.163 Q 207.107 143.163, 206.26 142.196 Q 205.424 141.23, 205.424 139.507 M 208.661 142.366 Q 209.737 142.366, 210.315 141.648 Q 210.903 140.921, 210.903 139.507 Q 210.903 138.122, 210.315 137.425 Q 209.737 136.717, 208.661 136.717 Q 207.585 136.717, 206.998 137.415 Q 206.42 138.112, 206.42 139.507 Q 206.42 140.931, 206.998 141.648 Q 207.585 142.366, 208.661 142.366 " fill="#FF0000"/>
<path class="atom-21" d="M 196.72 108.527 Q 196.72 106.834, 197.557 105.887 Q 198.394 104.941, 199.958 104.941 Q 201.522 104.941, 202.359 105.887 Q 203.196 106.834, 203.196 108.527 Q 203.196 110.241, 202.349 111.217 Q 201.502 112.183, 199.958 112.183 Q 198.404 112.183, 197.557 111.217 Q 196.72 110.251, 196.72 108.527 M 199.958 111.386 Q 201.034 111.386, 201.612 110.669 Q 202.199 109.942, 202.199 108.527 Q 202.199 107.143, 201.612 106.445 Q 201.034 105.738, 199.958 105.738 Q 198.882 105.738, 198.294 106.435 Q 197.717 107.133, 197.717 108.527 Q 197.717 109.952, 198.294 110.669 Q 198.882 111.386, 199.958 111.386 " fill="#FF0000"/>
<path class="atom-26" d="M 74.2185 119.9 Q 74.2982 119.93, 74.627 120.07 Q 74.9557 120.209, 75.3143 120.299 Q 75.6829 120.379, 76.0416 120.379 Q 76.709 120.379, 77.0975 120.06 Q 77.486 119.731, 77.486 119.163 Q 77.486 118.775, 77.2868 118.536 Q 77.0975 118.297, 76.7987 118.167 Q 76.4998 118.037, 76.0017 117.888 Q 75.3741 117.699, 74.9956 117.519 Q 74.627 117.34, 74.358 116.962 Q 74.099 116.583, 74.099 115.945 Q 74.099 115.059, 74.6967 114.511 Q 75.3044 113.963, 76.4998 113.963 Q 77.3167 113.963, 78.2432 114.352 L 78.014 115.119 Q 77.1673 114.77, 76.5297 114.77 Q 75.8423 114.77, 75.4638 115.059 Q 75.0852 115.338, 75.0952 115.826 Q 75.0952 116.204, 75.2845 116.434 Q 75.4837 116.663, 75.7626 116.792 Q 76.0515 116.922, 76.5297 117.071 Q 77.1673 117.27, 77.5458 117.47 Q 77.9244 117.669, 78.1933 118.077 Q 78.4723 118.476, 78.4723 119.163 Q 78.4723 120.139, 77.8148 120.667 Q 77.1673 121.185, 76.0814 121.185 Q 75.4538 121.185, 74.9756 121.046 Q 74.5074 120.916, 73.9496 120.687 L 74.2185 119.9 " fill="#CCCC00"/>
<path class="atom-29" d="M 43.2455 99.6555 Q 43.2455 97.962, 44.0823 97.0156 Q 44.9191 96.0692, 46.4832 96.0692 Q 48.0472 96.0692, 48.884 97.0156 Q 49.7208 97.962, 49.7208 99.6555 Q 49.7208 101.369, 48.874 102.345 Q 48.0273 103.312, 46.4832 103.312 Q 44.9291 103.312, 44.0823 102.345 Q 43.2455 101.379, 43.2455 99.6555 M 46.4832 102.515 Q 47.5591 102.515, 48.1368 101.797 Q 48.7246 101.07, 48.7246 99.6555 Q 48.7246 98.2708, 48.1368 97.5735 Q 47.5591 96.8662, 46.4832 96.8662 Q 45.4073 96.8662, 44.8195 97.5635 Q 44.2417 98.2609, 44.2417 99.6555 Q 44.2417 101.08, 44.8195 101.797 Q 45.4073 102.515, 46.4832 102.515 " fill="#FF0000"/>
<path class="atom-30" d="M 58.605 75.343 Q 58.605 73.6494, 59.4418 72.7031 Q 60.2786 71.7567, 61.8426 71.7567 Q 63.4066 71.7567, 64.2434 72.7031 Q 65.0802 73.6494, 65.0802 75.343 Q 65.0802 77.0564, 64.2335 78.0327 Q 63.3867 78.999, 61.8426 78.999 Q 60.2886 78.999, 59.4418 78.0327 Q 58.605 77.0664, 58.605 75.343 M 61.8426 78.202 Q 62.9185 78.202, 63.4963 77.4848 Q 64.0841 76.7576, 64.0841 75.343 Q 64.0841 73.9583, 63.4963 73.2609 Q 62.9185 72.5536, 61.8426 72.5536 Q 60.7667 72.5536, 60.179 73.251 Q 59.6012 73.9483, 59.6012 75.343 Q 59.6012 76.7675, 60.179 77.4848 Q 60.7667 78.202, 61.8426 78.202 " fill="#FF0000"/>
<path class="atom-30" d="M 65.409 72.9079 L 67.822 72.9079 L 67.822 73.4339 L 65.409 73.4339 L 65.409 72.9079 " fill="#FF0000"/>
<path class="atom-31" d="M 112.435 86.4983 L 113.392 86.4983 L 113.392 89.4968 L 116.998 89.4968 L 116.998 86.4983 L 117.954 86.4983 L 117.954 93.5513 L 116.998 93.5513 L 116.998 90.2938 L 113.392 90.2938 L 113.392 93.5513 L 112.435 93.5513 L 112.435 86.4983 " fill="#000000"/>
<path class="atom-32" d="M 124.012 74.5985 L 124.969 74.5985 L 124.969 77.597 L 128.575 77.597 L 128.575 74.5985 L 129.531 74.5985 L 129.531 81.6515 L 128.575 81.6515 L 128.575 78.394 L 124.969 78.394 L 124.969 81.6515 L 124.012 81.6515 L 124.012 74.5985 " fill="#000000"/>
<path class="atom-33" d="M 69.3814 145.168 L 70.3377 145.168 L 70.3377 148.167 L 73.9439 148.167 L 73.9439 145.168 L 74.9003 145.168 L 74.9003 152.221 L 73.9439 152.221 L 73.9439 148.964 L 70.3377 148.964 L 70.3377 152.221 L 69.3814 152.221 L 69.3814 145.168 " fill="#000000"/>
<path class="atom-34" d="M 82.8019 175.334 L 83.7583 175.334 L 83.7583 178.332 L 87.3645 178.332 L 87.3645 175.334 L 88.3208 175.334 L 88.3208 182.387 L 87.3645 182.387 L 87.3645 179.129 L 83.7583 179.129 L 83.7583 182.387 L 82.8019 182.387 L 82.8019 175.334 " fill="#000000"/>
<path class="atom-35" d="M 115.897 178.628 L 116.854 178.628 L 116.854 181.627 L 120.46 181.627 L 120.46 178.628 L 121.416 178.628 L 121.416 185.681 L 120.46 185.681 L 120.46 182.424 L 116.854 182.424 L 116.854 185.681 L 115.897 185.681 L 115.897 178.628 " fill="#000000"/>
<path class="atom-36" d="M 141.375 167.761 L 142.332 167.761 L 142.332 170.76 L 145.938 170.76 L 145.938 167.761 L 146.894 167.761 L 146.894 174.814 L 145.938 174.814 L 145.938 171.556 L 142.332 171.556 L 142.332 174.814 L 141.375 174.814 L 141.375 167.761 " fill="#000000"/>
<path class="atom-37" d="M 134.54 129.564 L 135.496 129.564 L 135.496 132.563 L 139.102 132.563 L 139.102 129.564 L 140.059 129.564 L 140.059 136.617 L 139.102 136.617 L 139.102 133.36 L 135.496 133.36 L 135.496 136.617 L 134.54 136.617 L 134.54 129.564 " fill="#000000"/>
<path class="atom-38" d="M 169.585 163.345 L 170.541 163.345 L 170.541 166.343 L 174.147 166.343 L 174.147 163.345 L 175.104 163.345 L 175.104 170.398 L 174.147 170.398 L 174.147 167.14 L 170.541 167.14 L 170.541 170.398 L 169.585 170.398 L 169.585 163.345 " fill="#000000"/>
<path class="atom-39" d="M 152.052 157.081 L 153.008 157.081 L 153.008 160.079 L 156.614 160.079 L 156.614 157.081 L 157.571 157.081 L 157.571 164.134 L 156.614 164.134 L 156.614 160.876 L 153.008 160.876 L 153.008 164.134 L 152.052 164.134 L 152.052 157.081 " fill="#000000"/>
<path class="atom-40" d="M 195.522 144.434 L 196.479 144.434 L 196.479 147.433 L 200.085 147.433 L 200.085 144.434 L 201.041 144.434 L 201.041 151.487 L 200.085 151.487 L 200.085 148.23 L 196.479 148.23 L 196.479 151.487 L 195.522 151.487 L 195.522 144.434 " fill="#000000"/>
<path class="atom-41" d="M 182.338 159.539 L 183.295 159.539 L 183.295 162.538 L 186.901 162.538 L 186.901 159.539 L 187.857 159.539 L 187.857 166.592 L 186.901 166.592 L 186.901 163.335 L 183.295 163.335 L 183.295 166.592 L 182.338 166.592 L 182.338 159.539 " fill="#000000"/>
<path class="atom-42" d="M 221.342 132.751 L 222.299 132.751 L 222.299 135.749 L 225.905 135.749 L 225.905 132.751 L 226.861 132.751 L 226.861 139.804 L 225.905 139.804 L 225.905 136.546 L 222.299 136.546 L 222.299 139.804 L 221.342 139.804 L 221.342 132.751 " fill="#000000"/>
<path class="atom-43" d="M 233.275 121.241 L 234.232 121.241 L 234.232 124.239 L 237.838 124.239 L 237.838 121.241 L 238.794 121.241 L 238.794 128.294 L 237.838 128.294 L 237.838 125.036 L 234.232 125.036 L 234.232 128.294 L 233.275 128.294 L 233.275 121.241 " fill="#000000"/>
<path class="atom-44" d="M 164.308 98.2159 L 165.265 98.2159 L 165.265 101.214 L 168.871 101.214 L 168.871 98.2159 L 169.827 98.2159 L 169.827 105.269 L 168.871 105.269 L 168.871 102.011 L 165.265 102.011 L 165.265 105.269 L 164.308 105.269 L 164.308 98.2159 " fill="#000000"/>
<path class="atom-45" d="M 183.98 103.807 L 184.937 103.807 L 184.937 106.806 L 188.543 106.806 L 188.543 103.807 L 189.499 103.807 L 189.499 110.86 L 188.543 110.86 L 188.543 107.603 L 184.937 107.603 L 184.937 110.86 L 183.98 110.86 L 183.98 103.807 " fill="#000000"/>
<path class="atom-46" d="M 137.454 116.64 L 138.41 116.64 L 138.41 119.639 L 142.016 119.639 L 142.016 116.64 L 142.973 116.64 L 142.973 123.693 L 142.016 123.693 L 142.016 120.436 L 138.41 120.436 L 138.41 123.693 L 137.454 123.693 L 137.454 116.64 " fill="#000000"/>
<path class="atom-47" d="M 151.459 102.063 L 152.416 102.063 L 152.416 105.061 L 156.022 105.061 L 156.022 102.063 L 156.978 102.063 L 156.978 109.116 L 156.022 109.116 L 156.022 105.858 L 152.416 105.858 L 152.416 109.116 L 151.459 109.116 L 151.459 102.063 " fill="#000000"/>
<path class="atom-48" d="M 122.112 121.397 L 123.069 121.397 L 123.069 124.396 L 126.675 124.396 L 126.675 121.397 L 127.631 121.397 L 127.631 128.45 L 126.675 128.45 L 126.675 125.193 L 123.069 125.193 L 123.069 128.45 L 122.112 128.45 L 122.112 121.397 " fill="#000000"/>
<path class="atom-49" d="M 221.889 100.679 L 222.845 100.679 L 222.845 103.677 L 226.451 103.677 L 226.451 100.679 L 227.408 100.679 L 227.408 107.732 L 226.451 107.732 L 226.451 104.474 L 222.845 104.474 L 222.845 107.732 L 221.889 107.732 L 221.889 100.679 " fill="#000000"/>
<ellipse cx="408.936" cy="192.663" rx="8.30162" ry="8.30162" style="fill:#C21F30;fill-rule:evenodd;stroke:#C21F30;stroke-width:1px;stroke-linecap:butt;stroke-linejoin:miter;stroke-opacity:1"/>
<ellipse cx="394.629" cy="187.263" rx="5.47907" ry="5.47907" style="fill:#2269C4;fill-rule:evenodd;stroke:#2269C4;stroke-width:1px;stroke-linecap:butt;stroke-linejoin:miter;stroke-opacity:1"/>
<ellipse cx="380.765" cy="196.403" rx="5.47907" ry="5.47907" style="fill:#3D79AB;fill-rule:evenodd;stroke:#3D79AB;stroke-width:1px;stroke-linecap:butt;stroke-linejoin:miter;stroke-opacity:1"/>
<ellipse cx="380.381" cy="213.075" rx="5.47907" ry="5.47907" style="fill:#588A93;fill-rule:evenodd;stroke:#588A93;stroke-width:1px;stroke-linecap:butt;stroke-linejoin:miter;stroke-opacity:1"/>
<ellipse cx="366.37" cy="220.728" rx="5.47907" ry="5.47907" style="fill:#7C947A;fill-rule:evenodd;stroke:#7C947A;stroke-width:1px;stroke-linecap:butt;stroke-linejoin:miter;stroke-opacity:1"/>
<ellipse cx="365.783" cy="237.277" rx="5.47907" ry="5.47907" style="fill:#B8A444;fill-rule:evenodd;stroke:#B8A444;stroke-width:1px;stroke-linecap:butt;stroke-linejoin:miter;stroke-opacity:1"/>
<ellipse cx="351.128" cy="245.11" rx="5.47907" ry="5.47907" style="fill:#CFAA27;fill-rule:evenodd;stroke:#CFAA27;stroke-width:1px;stroke-linecap:butt;stroke-linejoin:miter;stroke-opacity:1"/>
<ellipse cx="381.233" cy="246.127" rx="6.51739" ry="5.47907" style="fill:#A19F62;fill-rule:evenodd;stroke:#A19F62;stroke-width:1px;stroke-linecap:butt;stroke-linejoin:miter;stroke-opacity:1"/>
<ellipse cx="367.583" cy="185.748" rx="5.47907" ry="5.47907" style="fill:#7C947A;fill-rule:evenodd;stroke:#7C947A;stroke-width:1px;stroke-linecap:butt;stroke-linejoin:miter;stroke-opacity:1"/>
<ellipse cx="350.908" cy="189.687" rx="5.47907" ry="5.47907" style="fill:#588A93;fill-rule:evenodd;stroke:#588A93;stroke-width:1px;stroke-linecap:butt;stroke-linejoin:miter;stroke-opacity:1"/>
<ellipse cx="345.589" cy="205.463" rx="5.47907" ry="5.47907" style="fill:#3D79AB;fill-rule:evenodd;stroke:#3D79AB;stroke-width:1px;stroke-linecap:butt;stroke-linejoin:miter;stroke-opacity:1"/>
<ellipse cx="341.133" cy="177.418" rx="6.51739" ry="5.47907" style="fill:#2269C4;fill-rule:evenodd;stroke:#2269C4;stroke-width:1px;stroke-linecap:butt;stroke-linejoin:miter;stroke-opacity:1"/>
<ellipse cx="373.65" cy="170.241" rx="5.47907" ry="5.47907" style="fill:#A19F62;fill-rule:evenodd;stroke:#A19F62;stroke-width:1px;stroke-linecap:butt;stroke-linejoin:miter;stroke-opacity:1"/>
<ellipse cx="390.355" cy="170.943" rx="5.47907" ry="5.47907" style="fill:#3E3EF0;fill-rule:evenodd;stroke:#3E3EF0;stroke-width:1px;stroke-linecap:butt;stroke-linejoin:miter;stroke-opacity:1"/>
<ellipse cx="401.705" cy="157.051" rx="5.47907" ry="5.47907" style="fill:#5446F4;fill-rule:evenodd;stroke:#5446F4;stroke-width:1px;stroke-linecap:butt;stroke-linejoin:miter;stroke-opacity:1"/>
<ellipse cx="394.886" cy="141.561" rx="5.47907" ry="5.47907" style="fill:#6B4EF9;fill-rule:evenodd;stroke:#6B4EF9;stroke-width:1px;stroke-linecap:butt;stroke-linejoin:miter;stroke-opacity:1"/>
<ellipse cx="404.767" cy="128.997" rx="5.47907" ry="5.47907" style="fill:#805CF9;fill-rule:evenodd;stroke:#805CF9;stroke-width:1px;stroke-linecap:butt;stroke-linejoin:miter;stroke-opacity:1"/>
<ellipse cx="421.334" cy="130.976" rx="5.47907" ry="5.47907" style="fill:#CFAA27;fill-rule:evenodd;stroke:#CFAA27;stroke-width:1px;stroke-linecap:butt;stroke-linejoin:miter;stroke-opacity:1"/>
<ellipse cx="427.703" cy="146.727" rx="5.47907" ry="5.47907" style="fill:#B8A444;fill-rule:evenodd;stroke:#B8A444;stroke-width:1px;stroke-linecap:butt;stroke-linejoin:miter;stroke-opacity:1"/>
<ellipse cx="441.865" cy="150.005" rx="5.47907" ry="5.47907" style="fill:#A19F62;fill-rule:evenodd;stroke:#A19F62;stroke-width:1px;stroke-linecap:butt;stroke-linejoin:miter;stroke-opacity:1"/>
<ellipse cx="454.477" cy="136.627" rx="5.47907" ry="5.47907" style="fill:#7C947A;fill-rule:evenodd;stroke:#7C947A;stroke-width:1px;stroke-linecap:butt;stroke-linejoin:miter;stroke-opacity:1"/>
<ellipse cx="466.849" cy="149.958" rx="5.47907" ry="5.47907" style="fill:#588A93;fill-rule:evenodd;stroke:#588A93;stroke-width:1px;stroke-linecap:butt;stroke-linejoin:miter;stroke-opacity:1"/>
<ellipse cx="484.099" cy="145.46" rx="5.47907" ry="5.47907" style="fill:#3D79AB;fill-rule:evenodd;stroke:#3D79AB;stroke-width:1px;stroke-linecap:butt;stroke-linejoin:miter;stroke-opacity:1"/>
<ellipse cx="489.394" cy="128.275" rx="5.47907" ry="5.47907" style="fill:#2269C4;fill-rule:evenodd;stroke:#2269C4;stroke-width:1px;stroke-linecap:butt;stroke-linejoin:miter;stroke-opacity:1"/>
<ellipse cx="506.177" cy="124.467" rx="5.47907" ry="5.47907" style="fill:#3053DA;fill-rule:evenodd;stroke:#3053DA;stroke-width:1px;stroke-linecap:butt;stroke-linejoin:miter;stroke-opacity:1"/>
<ellipse cx="510.462" cy="139.516" rx="5.47907" ry="5.47907" style="fill:#3E3EF0;fill-rule:evenodd;stroke:#3E3EF0;stroke-width:1px;stroke-linecap:butt;stroke-linejoin:miter;stroke-opacity:1"/>
<ellipse cx="503.19" cy="108.941" rx="5.47907" ry="5.47907" style="fill:#5446F4;fill-rule:evenodd;stroke:#5446F4;stroke-width:1px;stroke-linecap:butt;stroke-linejoin:miter;stroke-opacity:1"/>
<ellipse cx="520.685" cy="120.97" rx="5.47907" ry="5.47907" style="fill:#6B4EF9;fill-rule:evenodd;stroke:#6B4EF9;stroke-width:1px;stroke-linecap:butt;stroke-linejoin:miter;stroke-opacity:1"/>
<ellipse cx="476.668" cy="115.317" rx="5.47907" ry="5.47907" style="fill:#805CF9;fill-rule:evenodd;stroke:#805CF9;stroke-width:1px;stroke-linecap:butt;stroke-linejoin:miter;stroke-opacity:1"/>
<ellipse cx="459.251" cy="119.222" rx="5.47907" ry="5.47907" style="fill:#CFAA27;fill-rule:evenodd;stroke:#CFAA27;stroke-width:1px;stroke-linecap:butt;stroke-linejoin:miter;stroke-opacity:1"/>
<ellipse cx="418.293" cy="159.536" rx="5.47907" ry="5.47907" style="fill:#B8A444;fill-rule:evenodd;stroke:#B8A444;stroke-width:1px;stroke-linecap:butt;stroke-linejoin:miter;stroke-opacity:1"/>
<ellipse cx="359.277" cy="206.317" rx="5.47907" ry="5.47907" style="fill:#3053DA;fill-rule:evenodd;stroke:#3053DA;stroke-width:1px;stroke-linecap:butt;stroke-linejoin:miter;stroke-opacity:1"/>
<ellipse cx="349.794" cy="219.866" rx="5.47907" ry="5.47907" style="fill:#3E3EF0;fill-rule:evenodd;stroke:#3E3EF0;stroke-width:1px;stroke-linecap:butt;stroke-linejoin:miter;stroke-opacity:1"/>
<ellipse cx="378.58" cy="139.51" rx="5.47907" ry="5.47907" style="fill:#5446F4;fill-rule:evenodd;stroke:#5446F4;stroke-width:1px;stroke-linecap:butt;stroke-linejoin:miter;stroke-opacity:1"/>
<ellipse cx="398.338" cy="113.507" rx="5.47907" ry="5.47907" style="fill:#6B4EF9;fill-rule:evenodd;stroke:#6B4EF9;stroke-width:1px;stroke-linecap:butt;stroke-linejoin:miter;stroke-opacity:1"/>
<ellipse cx="430.783" cy="118.578" rx="5.47907" ry="5.47907" style="fill:#805CF9;fill-rule:evenodd;stroke:#805CF9;stroke-width:1px;stroke-linecap:butt;stroke-linejoin:miter;stroke-opacity:1"/>
<ellipse cx="439.592" cy="129.519" rx="5.47907" ry="5.47907" style="fill:#CFAA27;fill-rule:evenodd;stroke:#CFAA27;stroke-width:1px;stroke-linecap:butt;stroke-linejoin:miter;stroke-opacity:1"/>
<ellipse cx="473.197" cy="164.894" rx="5.47907" ry="5.47907" style="fill:#B8A444;fill-rule:evenodd;stroke:#B8A444;stroke-width:1px;stroke-linecap:butt;stroke-linejoin:miter;stroke-opacity:1"/>
<ellipse cx="457.106" cy="157.941" rx="5.47907" ry="5.47907" style="fill:#A19F62;fill-rule:evenodd;stroke:#A19F62;stroke-width:1px;stroke-linecap:butt;stroke-linejoin:miter;stroke-opacity:1"/>
<ellipse cx="499.771" cy="147.558" rx="5.47907" ry="5.47907" style="fill:#7C947A;fill-rule:evenodd;stroke:#7C947A;stroke-width:1px;stroke-linecap:butt;stroke-linejoin:miter;stroke-opacity:1"/>
<ellipse cx="486.26" cy="161.819" rx="5.47907" ry="5.47907" style="fill:#588A93;fill-rule:evenodd;stroke:#588A93;stroke-width:1px;stroke-linecap:butt;stroke-linejoin:miter;stroke-opacity:1"/>
<ellipse cx="524.602" cy="137.107" rx="5.47907" ry="5.47907" style="fill:#3D79AB;fill-rule:evenodd;stroke:#3D79AB;stroke-width:1px;stroke-linecap:butt;stroke-linejoin:miter;stroke-opacity:1"/>
<ellipse cx="536.653" cy="125.526" rx="5.47907" ry="5.47907" style="fill:#2269C4;fill-rule:evenodd;stroke:#2269C4;stroke-width:1px;stroke-linecap:butt;stroke-linejoin:miter;stroke-opacity:1"/>
<ellipse cx="471.086" cy="99.6874" rx="5.47907" ry="5.47907" style="fill:#3053DA;fill-rule:evenodd;stroke:#3053DA;stroke-width:1px;stroke-linecap:butt;stroke-linejoin:miter;stroke-opacity:1"/>
<ellipse cx="489.995" cy="107.124" rx="5.47907" ry="5.47907" style="fill:#3E3EF0;fill-rule:evenodd;stroke:#3E3EF0;stroke-width:1px;stroke-linecap:butt;stroke-linejoin:miter;stroke-opacity:1"/>
<ellipse cx="444.072" cy="116.718" rx="5.47907" ry="5.47907" style="fill:#5446F4;fill-rule:evenodd;stroke:#5446F4;stroke-width:1px;stroke-linecap:butt;stroke-linejoin:miter;stroke-opacity:1"/>
<ellipse cx="458.097" cy="102.936" rx="5.47907" ry="5.47907" style="fill:#6B4EF9;fill-rule:evenodd;stroke:#6B4EF9;stroke-width:1px;stroke-linecap:butt;stroke-linejoin:miter;stroke-opacity:1"/>
<ellipse cx="425.489" cy="174.313" rx="5.47907" ry="5.47907" style="fill:#805CF9;fill-rule:evenodd;stroke:#805CF9;stroke-width:1px;stroke-linecap:butt;stroke-linejoin:miter;stroke-opacity:1"/>
<path class="bond-0" d="M 408.936,192.663 L 394.629,187.263" style="fill:none;fill-rule:evenodd;stroke:#000000;stroke-width:2.0px;stroke-linecap:butt;stroke-linejoin:miter;stroke-opacity:1"/>
<path class="bond-1" d="M 408.936,192.663 L 411.45,181.764" style="fill:none;fill-rule:evenodd;stroke:#000000;stroke-width:2.0px;stroke-linecap:butt;stroke-linejoin:miter;stroke-opacity:1"/>
<path class="bond-2" d="M 408.936,192.663 L 421.85,189.381" style="fill:none;fill-rule:evenodd;stroke:#000000;stroke-width:2.0px;stroke-linecap:butt;stroke-linejoin:miter;stroke-opacity:1"/>
<path class="bond-3" d="M 408.936,192.663 L 411.494,204.982" style="fill:none;fill-rule:evenodd;stroke:#000000;stroke-width:2.0px;stroke-linecap:butt;stroke-linejoin:miter;stroke-opacity:1"/>
<path class="bond-4" d="M 394.629,187.263 L 380.765,196.403" style="fill:none;fill-rule:evenodd;stroke:#000000;stroke-width:2.0px;stroke-linecap:butt;stroke-linejoin:miter;stroke-opacity:1"/>
<path class="bond-5" d="M 394.629,187.263 L 390.355,170.943" style="fill:none;fill-rule:evenodd;stroke:#000000;stroke-width:2.0px;stroke-linecap:butt;stroke-linejoin:miter;stroke-opacity:1"/>
<path class="bond-5" d="M 391.097,185.572 L 388.105,174.148" style="fill:none;fill-rule:evenodd;stroke:#000000;stroke-width:2.0px;stroke-linecap:butt;stroke-linejoin:miter;stroke-opacity:1"/>
<path class="bond-6" d="M 380.765,196.403 L 380.619,202.721" style="fill:none;fill-rule:evenodd;stroke:#000000;stroke-width:2.0px;stroke-linecap:butt;stroke-linejoin:miter;stroke-opacity:1"/>
<path class="bond-6" d="M 380.619,202.721 L 380.473,209.038" style="fill:none;fill-rule:evenodd;stroke:#FF0000;stroke-width:2.0px;stroke-linecap:butt;stroke-linejoin:miter;stroke-opacity:1"/>
<path class="bond-7" d="M 380.765,196.403 L 367.583,185.748" style="fill:none;fill-rule:evenodd;stroke:#000000;stroke-width:2.0px;stroke-linecap:butt;stroke-linejoin:miter;stroke-opacity:1"/>
<path class="bond-7" d="M 380.667,192.48 L 371.439,185.022" style="fill:none;fill-rule:evenodd;stroke:#000000;stroke-width:2.0px;stroke-linecap:butt;stroke-linejoin:miter;stroke-opacity:1"/>
<path class="bond-8" d="M 376.744,215.021 L 371.557,217.874" style="fill:none;fill-rule:evenodd;stroke:#FF0000;stroke-width:2.0px;stroke-linecap:butt;stroke-linejoin:miter;stroke-opacity:1"/>
<path class="bond-8" d="M 371.557,217.874 L 366.37,220.728" style="fill:none;fill-rule:evenodd;stroke:#000000;stroke-width:2.0px;stroke-linecap:butt;stroke-linejoin:miter;stroke-opacity:1"/>
<path class="bond-9" d="M 366.37,220.728 L 365.783,237.277" style="fill:none;fill-rule:evenodd;stroke:#000000;stroke-width:2.0px;stroke-linecap:butt;stroke-linejoin:miter;stroke-opacity:1"/>
<path class="bond-10" d="M 366.37,220.728 L 361.21,210.245" style="fill:none;fill-rule:evenodd;stroke:#000000;stroke-width:2.0px;stroke-linecap:butt;stroke-linejoin:miter;stroke-opacity:1"/>
<path class="bond-11" d="M 366.37,220.728 L 352.969,220.031" style="fill:none;fill-rule:evenodd;stroke:#000000;stroke-width:2.0px;stroke-linecap:butt;stroke-linejoin:miter;stroke-opacity:1"/>
<path class="bond-12" d="M 365.082,235.957 L 359.581,238.877" style="fill:none;fill-rule:evenodd;stroke:#000000;stroke-width:2.0px;stroke-linecap:butt;stroke-linejoin:miter;stroke-opacity:1"/>
<path class="bond-12" d="M 359.581,238.877 L 354.08,241.797" style="fill:none;fill-rule:evenodd;stroke:#FF0000;stroke-width:2.0px;stroke-linecap:butt;stroke-linejoin:miter;stroke-opacity:1"/>
<path class="bond-12" d="M 366.483,238.597 L 360.982,241.517" style="fill:none;fill-rule:evenodd;stroke:#000000;stroke-width:2.0px;stroke-linecap:butt;stroke-linejoin:miter;stroke-opacity:1"/>
<path class="bond-12" d="M 360.982,241.517 L 355.481,244.437" style="fill:none;fill-rule:evenodd;stroke:#FF0000;stroke-width:2.0px;stroke-linecap:butt;stroke-linejoin:miter;stroke-opacity:1"/>
<path class="bond-13" d="M 365.783,237.277 L 370.996,240.533" style="fill:none;fill-rule:evenodd;stroke:#000000;stroke-width:2.0px;stroke-linecap:butt;stroke-linejoin:miter;stroke-opacity:1"/>
<path class="bond-13" d="M 370.996,240.533 L 376.209,243.79" style="fill:none;fill-rule:evenodd;stroke:#FF0000;stroke-width:2.0px;stroke-linecap:butt;stroke-linejoin:miter;stroke-opacity:1"/>
<path class="bond-14" d="M 367.583,185.748 L 350.908,189.687" style="fill:none;fill-rule:evenodd;stroke:#000000;stroke-width:2.0px;stroke-linecap:butt;stroke-linejoin:miter;stroke-opacity:1"/>
<path class="bond-15" d="M 367.583,185.748 L 369.814,180.009" style="fill:none;fill-rule:evenodd;stroke:#000000;stroke-width:2.0px;stroke-linecap:butt;stroke-linejoin:miter;stroke-opacity:1"/>
<path class="bond-15" d="M 369.814,180.009 L 372.046,174.271" style="fill:none;fill-rule:evenodd;stroke:#CCCC00;stroke-width:2.0px;stroke-linecap:butt;stroke-linejoin:miter;stroke-opacity:1"/>
<path class="bond-16" d="M 349.492,189.208 L 347.506,195.078" style="fill:none;fill-rule:evenodd;stroke:#000000;stroke-width:2.0px;stroke-linecap:butt;stroke-linejoin:miter;stroke-opacity:1"/>
<path class="bond-16" d="M 347.506,195.078 L 345.521,200.948" style="fill:none;fill-rule:evenodd;stroke:#FF0000;stroke-width:2.0px;stroke-linecap:butt;stroke-linejoin:miter;stroke-opacity:1"/>
<path class="bond-16" d="M 352.323,190.166 L 350.337,196.035" style="fill:none;fill-rule:evenodd;stroke:#000000;stroke-width:2.0px;stroke-linecap:butt;stroke-linejoin:miter;stroke-opacity:1"/>
<path class="bond-16" d="M 350.337,196.035 L 348.352,201.905" style="fill:none;fill-rule:evenodd;stroke:#FF0000;stroke-width:2.0px;stroke-linecap:butt;stroke-linejoin:miter;stroke-opacity:1"/>
<path class="bond-17" d="M 350.908,189.687 L 347.161,185.544" style="fill:none;fill-rule:evenodd;stroke:#000000;stroke-width:2.0px;stroke-linecap:butt;stroke-linejoin:miter;stroke-opacity:1"/>
<path class="bond-17" d="M 347.161,185.544 L 343.415,181.402" style="fill:none;fill-rule:evenodd;stroke:#FF0000;stroke-width:2.0px;stroke-linecap:butt;stroke-linejoin:miter;stroke-opacity:1"/>
<path class="bond-18" d="M 376.33,170.274 L 383.343,170.608" style="fill:none;fill-rule:evenodd;stroke:#CCCC00;stroke-width:2.0px;stroke-linecap:butt;stroke-linejoin:miter;stroke-opacity:1"/>
<path class="bond-18" d="M 383.343,170.608 L 390.355,170.943" style="fill:none;fill-rule:evenodd;stroke:#000000;stroke-width:2.0px;stroke-linecap:butt;stroke-linejoin:miter;stroke-opacity:1"/>
<path class="bond-19" d="M 390.355,170.943 L 401.705,157.051" style="fill:none;fill-rule:evenodd;stroke:#000000;stroke-width:2.0px;stroke-linecap:butt;stroke-linejoin:miter;stroke-opacity:1"/>
<path class="bond-20" d="M 401.705,157.051 L 394.886,141.561" style="fill:none;fill-rule:evenodd;stroke:#000000;stroke-width:2.0px;stroke-linecap:butt;stroke-linejoin:miter;stroke-opacity:1"/>
<path class="bond-20" d="M 403.417,153.524 L 398.645,142.681" style="fill:none;fill-rule:evenodd;stroke:#000000;stroke-width:2.0px;stroke-linecap:butt;stroke-linejoin:miter;stroke-opacity:1"/>
<path class="bond-21" d="M 401.705,157.051 L 418.293,159.536" style="fill:none;fill-rule:evenodd;stroke:#000000;stroke-width:2.0px;stroke-linecap:butt;stroke-linejoin:miter;stroke-opacity:1"/>
<path class="bond-22" d="M 394.886,141.561 L 404.767,128.997" style="fill:none;fill-rule:evenodd;stroke:#000000;stroke-width:2.0px;stroke-linecap:butt;stroke-linejoin:miter;stroke-opacity:1"/>
<path class="bond-23" d="M 394.886,141.561 L 381.751,139.909" style="fill:none;fill-rule:evenodd;stroke:#000000;stroke-width:2.0px;stroke-linecap:butt;stroke-linejoin:miter;stroke-opacity:1"/>
<path class="bond-24" d="M 404.767,128.997 L 421.334,130.976" style="fill:none;fill-rule:evenodd;stroke:#000000;stroke-width:2.0px;stroke-linecap:butt;stroke-linejoin:miter;stroke-opacity:1"/>
<path class="bond-24" d="M 406.898,132.262 L 418.495,133.646" style="fill:none;fill-rule:evenodd;stroke:#000000;stroke-width:2.0px;stroke-linecap:butt;stroke-linejoin:miter;stroke-opacity:1"/>
<path class="bond-25" d="M 404.767,128.997 L 399.976,117.453" style="fill:none;fill-rule:evenodd;stroke:#000000;stroke-width:2.0px;stroke-linecap:butt;stroke-linejoin:miter;stroke-opacity:1"/>
<path class="bond-26" d="M 421.334,130.976 L 427.703,146.727" style="fill:none;fill-rule:evenodd;stroke:#000000;stroke-width:2.0px;stroke-linecap:butt;stroke-linejoin:miter;stroke-opacity:1"/>
<path class="bond-27" d="M 421.334,130.976 L 427.798,122.494" style="fill:none;fill-rule:evenodd;stroke:#000000;stroke-width:2.0px;stroke-linecap:butt;stroke-linejoin:miter;stroke-opacity:1"/>
<path class="bond-28" d="M 427.703,146.727 L 433.265,148.015" style="fill:none;fill-rule:evenodd;stroke:#000000;stroke-width:2.0px;stroke-linecap:butt;stroke-linejoin:miter;stroke-opacity:1"/>
<path class="bond-28" d="M 433.265,148.015 L 438.827,149.302" style="fill:none;fill-rule:evenodd;stroke:#0000FF;stroke-width:2.0px;stroke-linecap:butt;stroke-linejoin:miter;stroke-opacity:1"/>
<path class="bond-29" d="M 427.703,146.727 L 418.293,159.536" style="fill:none;fill-rule:evenodd;stroke:#000000;stroke-width:2.0px;stroke-linecap:butt;stroke-linejoin:miter;stroke-opacity:1"/>
<path class="bond-29" d="M 423.883,146.879 L 417.296,155.845" style="fill:none;fill-rule:evenodd;stroke:#000000;stroke-width:2.0px;stroke-linecap:butt;stroke-linejoin:miter;stroke-opacity:1"/>
<path class="bond-30" d="M 445,146.68 L 449.738,141.654" style="fill:none;fill-rule:evenodd;stroke:#0000FF;stroke-width:2.0px;stroke-linecap:butt;stroke-linejoin:miter;stroke-opacity:1"/>
<path class="bond-30" d="M 449.738,141.654 L 454.477,136.627" style="fill:none;fill-rule:evenodd;stroke:#000000;stroke-width:2.0px;stroke-linecap:butt;stroke-linejoin:miter;stroke-opacity:1"/>
<path class="bond-31" d="M 442.608,153.947 L 443.412,158.213" style="fill:none;fill-rule:evenodd;stroke:#0000FF;stroke-width:2.0px;stroke-linecap:butt;stroke-linejoin:miter;stroke-opacity:1"/>
<path class="bond-31" d="M 443.412,158.213 L 444.216,162.479" style="fill:none;fill-rule:evenodd;stroke:#000000;stroke-width:2.0px;stroke-linecap:butt;stroke-linejoin:miter;stroke-opacity:1"/>
<path class="bond-32" d="M 454.477,136.627 L 466.849,149.958" style="fill:none;fill-rule:evenodd;stroke:#000000;stroke-width:2.0px;stroke-linecap:butt;stroke-linejoin:miter;stroke-opacity:1"/>
<path class="bond-33" d="M 454.477,136.627 L 459.251,119.222" style="fill:none;fill-rule:evenodd;stroke:#000000;stroke-width:2.0px;stroke-linecap:butt;stroke-linejoin:miter;stroke-opacity:1"/>
<path class="bond-34" d="M 454.477,136.627 L 442.764,131.033" style="fill:none;fill-rule:evenodd;stroke:#000000;stroke-width:2.0px;stroke-linecap:butt;stroke-linejoin:miter;stroke-opacity:1"/>
<path class="bond-35" d="M 466.849,149.958 L 484.099,145.46" style="fill:none;fill-rule:evenodd;stroke:#000000;stroke-width:2.0px;stroke-linecap:butt;stroke-linejoin:miter;stroke-opacity:1"/>
<path class="bond-36" d="M 466.849,149.958 L 471.526,160.961" style="fill:none;fill-rule:evenodd;stroke:#000000;stroke-width:2.0px;stroke-linecap:butt;stroke-linejoin:miter;stroke-opacity:1"/>
<path class="bond-37" d="M 466.849,149.958 L 460.181,155.422" style="fill:none;fill-rule:evenodd;stroke:#000000;stroke-width:2.0px;stroke-linecap:butt;stroke-linejoin:miter;stroke-opacity:1"/>
<path class="bond-38" d="M 484.099,145.46 L 486.134,138.855" style="fill:none;fill-rule:evenodd;stroke:#000000;stroke-width:2.0px;stroke-linecap:butt;stroke-linejoin:miter;stroke-opacity:1"/>
<path class="bond-38" d="M 486.134,138.855 L 488.169,132.251" style="fill:none;fill-rule:evenodd;stroke:#0000FF;stroke-width:2.0px;stroke-linecap:butt;stroke-linejoin:miter;stroke-opacity:1"/>
<path class="bond-39" d="M 484.099,145.46 L 496.617,147.135" style="fill:none;fill-rule:evenodd;stroke:#000000;stroke-width:2.0px;stroke-linecap:butt;stroke-linejoin:miter;stroke-opacity:1"/>
<path class="bond-40" d="M 484.099,145.46 L 485.739,157.88" style="fill:none;fill-rule:evenodd;stroke:#000000;stroke-width:2.0px;stroke-linecap:butt;stroke-linejoin:miter;stroke-opacity:1"/>
<path class="bond-41" d="M 492.5,127.553 L 498.032,126.266" style="fill:none;fill-rule:evenodd;stroke:#0000FF;stroke-width:2.0px;stroke-linecap:butt;stroke-linejoin:miter;stroke-opacity:1"/>
<path class="bond-41" d="M 498.032,126.266 L 503.565,124.98" style="fill:none;fill-rule:evenodd;stroke:#CCCC00;stroke-width:2.0px;stroke-linecap:butt;stroke-linejoin:miter;stroke-opacity:1"/>
<path class="bond-42" d="M 486.266,125.089 L 481.467,120.203" style="fill:none;fill-rule:evenodd;stroke:#0000FF;stroke-width:2.0px;stroke-linecap:butt;stroke-linejoin:miter;stroke-opacity:1"/>
<path class="bond-42" d="M 481.467,120.203 L 476.668,115.317" style="fill:none;fill-rule:evenodd;stroke:#000000;stroke-width:2.0px;stroke-linecap:butt;stroke-linejoin:miter;stroke-opacity:1"/>
<path class="bond-43" d="M 505.903,128.879 L 506.917,132.448" style="fill:none;fill-rule:evenodd;stroke:#CCCC00;stroke-width:2.0px;stroke-linecap:butt;stroke-linejoin:miter;stroke-opacity:1"/>
<path class="bond-43" d="M 506.917,132.448 L 507.931,136.018" style="fill:none;fill-rule:evenodd;stroke:#FF0000;stroke-width:2.0px;stroke-linecap:butt;stroke-linejoin:miter;stroke-opacity:1"/>
<path class="bond-43" d="M 508.778,128.062 L 509.792,131.632" style="fill:none;fill-rule:evenodd;stroke:#CCCC00;stroke-width:2.0px;stroke-linecap:butt;stroke-linejoin:miter;stroke-opacity:1"/>
<path class="bond-43" d="M 509.792,131.632 L 510.806,135.201" style="fill:none;fill-rule:evenodd;stroke:#FF0000;stroke-width:2.0px;stroke-linecap:butt;stroke-linejoin:miter;stroke-opacity:1"/>
<path class="bond-44" d="M 506.89,120.179 L 506.156,116.376" style="fill:none;fill-rule:evenodd;stroke:#CCCC00;stroke-width:2.0px;stroke-linecap:butt;stroke-linejoin:miter;stroke-opacity:1"/>
<path class="bond-44" d="M 506.156,116.376 L 505.423,112.574" style="fill:none;fill-rule:evenodd;stroke:#FF0000;stroke-width:2.0px;stroke-linecap:butt;stroke-linejoin:miter;stroke-opacity:1"/>
<path class="bond-44" d="M 503.955,120.745 L 503.222,116.942" style="fill:none;fill-rule:evenodd;stroke:#CCCC00;stroke-width:2.0px;stroke-linecap:butt;stroke-linejoin:miter;stroke-opacity:1"/>
<path class="bond-44" d="M 503.222,116.942 L 502.488,113.14" style="fill:none;fill-rule:evenodd;stroke:#FF0000;stroke-width:2.0px;stroke-linecap:butt;stroke-linejoin:miter;stroke-opacity:1"/>
<path class="bond-45" d="M 508.811,123.755 L 514.748,122.363" style="fill:none;fill-rule:evenodd;stroke:#CCCC00;stroke-width:2.0px;stroke-linecap:butt;stroke-linejoin:miter;stroke-opacity:1"/>
<path class="bond-45" d="M 514.748,122.363 L 520.685,120.97" style="fill:none;fill-rule:evenodd;stroke:#000000;stroke-width:2.0px;stroke-linecap:butt;stroke-linejoin:miter;stroke-opacity:1"/>
<path class="bond-46" d="M 520.685,120.97 L 524.881,105.854" style="fill:none;fill-rule:evenodd;stroke:#000000;stroke-width:2.0px;stroke-linecap:butt;stroke-linejoin:miter;stroke-opacity:1"/>
<path class="bond-47" d="M 520.685,120.97 L 523.645,133.165" style="fill:none;fill-rule:evenodd;stroke:#000000;stroke-width:2.0px;stroke-linecap:butt;stroke-linejoin:miter;stroke-opacity:1"/>
<path class="bond-48" d="M 520.685,120.97 L 533.479,124.62" style="fill:none;fill-rule:evenodd;stroke:#000000;stroke-width:2.0px;stroke-linecap:butt;stroke-linejoin:miter;stroke-opacity:1"/>
<path class="bond-49" d="M 524.881,105.854 L 541.231,102.912" style="fill:none;fill-rule:evenodd;stroke:#000000;stroke-width:2.0px;stroke-linecap:butt;stroke-linejoin:miter;stroke-opacity:1"/>
<path class="bond-49" d="M 526.805,102.472 L 538.249,100.412" style="fill:none;fill-rule:evenodd;stroke:#000000;stroke-width:2.0px;stroke-linecap:butt;stroke-linejoin:miter;stroke-opacity:1"/>
<path class="bond-50" d="M 524.881,105.854 L 513.451,93.3865" style="fill:none;fill-rule:evenodd;stroke:#000000;stroke-width:2.0px;stroke-linecap:butt;stroke-linejoin:miter;stroke-opacity:1"/>
<path class="bond-51" d="M 541.231,102.912 L 546.187,87.0984" style="fill:none;fill-rule:evenodd;stroke:#000000;stroke-width:2.0px;stroke-linecap:butt;stroke-linejoin:miter;stroke-opacity:1"/>
<path class="bond-52" d="M 541.231,102.912 L 548.93,111.644" style="fill:none;fill-rule:evenodd;stroke:#000000;stroke-width:2.0px;stroke-linecap:butt;stroke-linejoin:miter;stroke-opacity:1"/>
<path class="bond-53" d="M 546.187,87.0984 L 535.296,74.2525" style="fill:none;fill-rule:evenodd;stroke:#000000;stroke-width:2.0px;stroke-linecap:butt;stroke-linejoin:miter;stroke-opacity:1"/>
<path class="bond-53" d="M 542.273,87.1042 L 534.65,78.112" style="fill:none;fill-rule:evenodd;stroke:#000000;stroke-width:2.0px;stroke-linecap:butt;stroke-linejoin:miter;stroke-opacity:1"/>
<path class="bond-54" d="M 546.187,87.0984 L 559.446,84.4146" style="fill:none;fill-rule:evenodd;stroke:#000000;stroke-width:2.0px;stroke-linecap:butt;stroke-linejoin:miter;stroke-opacity:1"/>
<path class="bond-55" d="M 535.296,74.2525 L 519.034,77.8241" style="fill:none;fill-rule:evenodd;stroke:#000000;stroke-width:2.0px;stroke-linecap:butt;stroke-linejoin:miter;stroke-opacity:1"/>
<path class="bond-56" d="M 535.296,74.2525 L 539.225,62.6193" style="fill:none;fill-rule:evenodd;stroke:#000000;stroke-width:2.0px;stroke-linecap:butt;stroke-linejoin:miter;stroke-opacity:1"/>
<path class="bond-57" d="M 519.034,77.8241 L 513.451,93.3865" style="fill:none;fill-rule:evenodd;stroke:#000000;stroke-width:2.0px;stroke-linecap:butt;stroke-linejoin:miter;stroke-opacity:1"/>
<path class="bond-57" d="M 521.009,81.1676 L 517.101,92.0613" style="fill:none;fill-rule:evenodd;stroke:#000000;stroke-width:2.0px;stroke-linecap:butt;stroke-linejoin:miter;stroke-opacity:1"/>
<path class="bond-58" d="M 519.034,77.8241 L 511.136,68.8445" style="fill:none;fill-rule:evenodd;stroke:#000000;stroke-width:2.0px;stroke-linecap:butt;stroke-linejoin:miter;stroke-opacity:1"/>
<path class="bond-59" d="M 513.451,93.3865 L 500.111,95.3751" style="fill:none;fill-rule:evenodd;stroke:#000000;stroke-width:2.0px;stroke-linecap:butt;stroke-linejoin:miter;stroke-opacity:1"/>
<path class="bond-60" d="M 476.668,115.317 L 459.251,119.222" style="fill:none;fill-rule:evenodd;stroke:#000000;stroke-width:2.0px;stroke-linecap:butt;stroke-linejoin:miter;stroke-opacity:1"/>
<path class="bond-61" d="M 476.668,115.317 L 472.494,103.629" style="fill:none;fill-rule:evenodd;stroke:#000000;stroke-width:2.0px;stroke-linecap:butt;stroke-linejoin:miter;stroke-opacity:1"/>
<path class="bond-62" d="M 476.668,115.317 L 486.844,109.061" style="fill:none;fill-rule:evenodd;stroke:#000000;stroke-width:2.0px;stroke-linecap:butt;stroke-linejoin:miter;stroke-opacity:1"/>
<path class="bond-63" d="M 459.251,119.222 L 447.216,117.237" style="fill:none;fill-rule:evenodd;stroke:#000000;stroke-width:2.0px;stroke-linecap:butt;stroke-linejoin:miter;stroke-opacity:1"/>
<path class="bond-64" d="M 459.251,119.222 L 458.376,106.871" style="fill:none;fill-rule:evenodd;stroke:#000000;stroke-width:2.0px;stroke-linecap:butt;stroke-linejoin:miter;stroke-opacity:1"/>
<path class="bond-65" d="M 418.293,159.536 L 423.571,170.376" style="fill:none;fill-rule:evenodd;stroke:#000000;stroke-width:2.0px;stroke-linecap:butt;stroke-linejoin:miter;stroke-opacity:1"/>
<path class="atom-3" d="M 377.144 213.04 Q 377.144 211.347, 377.981 210.4 Q 378.817 209.454, 380.381 209.454 Q 381.945 209.454, 382.782 210.4 Q 383.619 211.347, 383.619 213.04 Q 383.619 214.754, 382.772 215.73 Q 381.926 216.696, 380.381 216.696 Q 378.827 216.696, 377.981 215.73 Q 377.144 214.764, 377.144 213.04 M 380.381 215.899 Q 381.457 215.899, 382.035 215.182 Q 382.623 214.455, 382.623 213.04 Q 382.623 211.655, 382.035 210.958 Q 381.457 210.251, 380.381 210.251 Q 379.306 210.251, 378.718 210.948 Q 378.14 211.645, 378.14 213.04 Q 378.14 214.465, 378.718 215.182 Q 379.306 215.899, 380.381 215.899 " fill="#FF0000"/>
<path class="atom-6" d="M 347.89 245.075 Q 347.89 243.382, 348.727 242.435 Q 349.564 241.489, 351.128 241.489 Q 352.692 241.489, 353.529 242.435 Q 354.366 243.382, 354.366 245.075 Q 354.366 246.789, 353.519 247.765 Q 352.672 248.731, 351.128 248.731 Q 349.574 248.731, 348.727 247.765 Q 347.89 246.799, 347.89 245.075 M 351.128 247.934 Q 352.204 247.934, 352.782 247.217 Q 353.369 246.49, 353.369 245.075 Q 353.369 243.69, 352.782 242.993 Q 352.204 242.286, 351.128 242.286 Q 350.052 242.286, 349.464 242.983 Q 348.886 243.681, 348.886 245.075 Q 348.886 246.5, 349.464 247.217 Q 350.052 247.934, 351.128 247.934 " fill="#FF0000"/>
<path class="atom-7" d="M 376.624 246.092 Q 376.624 244.398, 377.461 243.452 Q 378.298 242.505, 379.862 242.505 Q 381.426 242.505, 382.263 243.452 Q 383.1 244.398, 383.1 246.092 Q 383.1 247.805, 382.253 248.781 Q 381.406 249.748, 379.862 249.748 Q 378.308 249.748, 377.461 248.781 Q 376.624 247.815, 376.624 246.092 M 379.862 248.951 Q 380.938 248.951, 381.516 248.233 Q 382.103 247.506, 382.103 246.092 Q 382.103 244.707, 381.516 244.01 Q 380.938 243.302, 379.862 243.302 Q 378.786 243.302, 378.198 244 Q 377.621 244.697, 377.621 246.092 Q 377.621 247.516, 378.198 248.233 Q 378.786 248.951, 379.862 248.951 " fill="#FF0000"/>
<path class="atom-7" d="M 383.428 243.657 L 385.841 243.657 L 385.841 244.183 L 383.428 244.183 L 383.428 243.657 " fill="#FF0000"/>
<path class="atom-10" d="M 342.352 205.428 Q 342.352 203.734, 343.188 202.788 Q 344.025 201.841, 345.589 201.841 Q 347.153 201.841, 347.99 202.788 Q 348.827 203.734, 348.827 205.428 Q 348.827 207.141, 347.98 208.117 Q 347.133 209.084, 345.589 209.084 Q 344.035 209.084, 343.188 208.117 Q 342.352 207.151, 342.352 205.428 M 345.589 208.287 Q 346.665 208.287, 347.243 207.569 Q 347.831 206.842, 347.831 205.428 Q 347.831 204.043, 347.243 203.346 Q 346.665 202.638, 345.589 202.638 Q 344.513 202.638, 343.926 203.336 Q 343.348 204.033, 343.348 205.428 Q 343.348 206.852, 343.926 207.569 Q 344.513 208.287, 345.589 208.287 " fill="#FF0000"/>
<path class="atom-11" d="M 336.524 177.383 Q 336.524 175.689, 337.361 174.743 Q 338.198 173.796, 339.762 173.796 Q 341.326 173.796, 342.163 174.743 Q 343 175.689, 343 177.383 Q 343 179.096, 342.153 180.072 Q 341.306 181.039, 339.762 181.039 Q 338.208 181.039, 337.361 180.072 Q 336.524 179.106, 336.524 177.383 M 339.762 180.242 Q 340.838 180.242, 341.416 179.524 Q 342.003 178.797, 342.003 177.383 Q 342.003 175.998, 341.416 175.301 Q 340.838 174.593, 339.762 174.593 Q 338.686 174.593, 338.098 175.291 Q 337.52 175.988, 337.52 177.383 Q 337.52 178.807, 338.098 179.524 Q 338.686 180.242, 339.762 180.242 " fill="#FF0000"/>
<path class="atom-11" d="M 343.328 174.948 L 345.741 174.948 L 345.741 175.474 L 343.328 175.474 L 343.328 174.948 " fill="#FF0000"/>
<path class="atom-12" d="M 371.658 172.567 Q 371.738 172.597, 372.066 172.737 Q 372.395 172.876, 372.754 172.966 Q 373.122 173.045, 373.481 173.045 Q 374.149 173.045, 374.537 172.727 Q 374.926 172.398, 374.926 171.83 Q 374.926 171.442, 374.726 171.203 Q 374.537 170.963, 374.238 170.834 Q 373.939 170.704, 373.441 170.555 Q 372.814 170.366, 372.435 170.186 Q 372.066 170.007, 371.797 169.629 Q 371.538 169.25, 371.538 168.612 Q 371.538 167.726, 372.136 167.178 Q 372.744 166.63, 373.939 166.63 Q 374.756 166.63, 375.683 167.019 L 375.454 167.786 Q 374.607 167.437, 373.969 167.437 Q 373.282 167.437, 372.903 167.726 Q 372.525 168.005, 372.535 168.493 Q 372.535 168.871, 372.724 169.101 Q 372.923 169.33, 373.202 169.459 Q 373.491 169.589, 373.969 169.738 Q 374.607 169.937, 374.985 170.137 Q 375.364 170.336, 375.633 170.744 Q 375.912 171.143, 375.912 171.83 Q 375.912 172.806, 375.254 173.334 Q 374.607 173.852, 373.521 173.852 Q 372.893 173.852, 372.415 173.713 Q 371.947 173.583, 371.389 173.354 L 371.658 172.567 " fill="#CCCC00"/>
<path class="atom-19" d="M 440.306 146.479 L 442.617 150.215 Q 442.846 150.583, 443.215 151.251 Q 443.584 151.918, 443.604 151.958 L 443.604 146.479 L 444.54 146.479 L 444.54 153.532 L 443.574 153.532 L 441.093 149.448 Q 440.804 148.969, 440.495 148.421 Q 440.197 147.874, 440.107 147.704 L 440.107 153.532 L 439.19 153.532 L 439.19 146.479 L 440.306 146.479 " fill="#0000FF"/>
<path class="atom-23" d="M 487.835 124.748 L 490.147 128.484 Q 490.376 128.853, 490.744 129.52 Q 491.113 130.188, 491.133 130.227 L 491.133 124.748 L 492.069 124.748 L 492.069 131.801 L 491.103 131.801 L 488.622 127.717 Q 488.334 127.239, 488.025 126.691 Q 487.726 126.143, 487.636 125.974 L 487.636 131.801 L 486.72 131.801 L 486.72 124.748 L 487.835 124.748 " fill="#0000FF"/>
<path class="atom-24" d="M 504.185 126.793 Q 504.265 126.823, 504.593 126.963 Q 504.922 127.102, 505.281 127.192 Q 505.649 127.271, 506.008 127.271 Q 506.675 127.271, 507.064 126.953 Q 507.452 126.624, 507.452 126.056 Q 507.452 125.667, 507.253 125.428 Q 507.064 125.189, 506.765 125.06 Q 506.466 124.93, 505.968 124.781 Q 505.34 124.592, 504.962 124.412 Q 504.593 124.233, 504.324 123.854 Q 504.065 123.476, 504.065 122.838 Q 504.065 121.952, 504.663 121.404 Q 505.271 120.856, 506.466 120.856 Q 507.283 120.856, 508.209 121.244 L 507.98 122.011 Q 507.134 121.663, 506.496 121.663 Q 505.809 121.663, 505.43 121.952 Q 505.052 122.231, 505.061 122.719 Q 505.061 123.097, 505.251 123.326 Q 505.45 123.556, 505.729 123.685 Q 506.018 123.815, 506.496 123.964 Q 507.134 124.163, 507.512 124.362 Q 507.891 124.562, 508.16 124.97 Q 508.439 125.369, 508.439 126.056 Q 508.439 127.032, 507.781 127.56 Q 507.134 128.078, 506.048 128.078 Q 505.42 128.078, 504.942 127.939 Q 504.474 127.809, 503.916 127.58 L 504.185 126.793 " fill="#CCCC00"/>
<path class="atom-25" d="M 507.225 139.481 Q 507.225 137.788, 508.061 136.841 Q 508.898 135.895, 510.462 135.895 Q 512.026 135.895, 512.863 136.841 Q 513.7 137.788, 513.7 139.481 Q 513.7 141.195, 512.853 142.171 Q 512.006 143.137, 510.462 143.137 Q 508.908 143.137, 508.061 142.171 Q 507.225 141.205, 507.225 139.481 M 510.462 142.34 Q 511.538 142.34, 512.116 141.623 Q 512.704 140.896, 512.704 139.481 Q 512.704 138.097, 512.116 137.399 Q 511.538 136.692, 510.462 136.692 Q 509.386 136.692, 508.799 137.389 Q 508.221 138.087, 508.221 139.481 Q 508.221 140.906, 508.799 141.623 Q 509.386 142.34, 510.462 142.34 " fill="#FF0000"/>
<path class="atom-26" d="M 499.952 108.906 Q 499.952 107.213, 500.789 106.266 Q 501.626 105.32, 503.19 105.32 Q 504.754 105.32, 505.59 106.266 Q 506.427 107.213, 506.427 108.906 Q 506.427 110.62, 505.58 111.596 Q 504.734 112.562, 503.19 112.562 Q 501.636 112.562, 500.789 111.596 Q 499.952 110.63, 499.952 108.906 M 503.19 111.765 Q 504.265 111.765, 504.843 111.048 Q 505.431 110.321, 505.431 108.906 Q 505.431 107.522, 504.843 106.824 Q 504.265 106.117, 503.19 106.117 Q 502.114 106.117, 501.526 106.814 Q 500.948 107.512, 500.948 108.906 Q 500.948 110.331, 501.526 111.048 Q 502.114 111.765, 503.19 111.765 " fill="#FF0000"/>
<path class="atom-37" d="M 409.591 174.331 L 410.547 174.331 L 410.547 177.329 L 414.154 177.329 L 414.154 174.331 L 415.11 174.331 L 415.11 181.384 L 414.154 181.384 L 414.154 178.126 L 410.547 178.126 L 410.547 181.384 L 409.591 181.384 L 409.591 174.331 " fill="#000000"/>
<path class="atom-38" d="M 422.265 185.048 L 423.222 185.048 L 423.222 188.046 L 426.828 188.046 L 426.828 185.048 L 427.784 185.048 L 427.784 192.101 L 426.828 192.101 L 426.828 188.843 L 423.222 188.843 L 423.222 192.101 L 422.265 192.101 L 422.265 185.048 " fill="#000000"/>
<path class="atom-39" d="M 409.553 205.397 L 410.51 205.397 L 410.51 208.396 L 414.116 208.396 L 414.116 205.397 L 415.072 205.397 L 415.072 212.45 L 414.116 212.45 L 414.116 209.193 L 410.51 209.193 L 410.51 212.45 L 409.553 212.45 L 409.553 205.397 " fill="#000000"/>
<path class="atom-40" d="M 356.517 202.791 L 357.474 202.791 L 357.474 205.789 L 361.08 205.789 L 361.08 202.791 L 362.036 202.791 L 362.036 209.844 L 361.08 209.844 L 361.08 206.586 L 357.474 206.586 L 357.474 209.844 L 356.517 209.844 L 356.517 202.791 " fill="#000000"/>
<path class="atom-41" d="M 347.035 216.339 L 347.991 216.339 L 347.991 219.338 L 351.598 219.338 L 351.598 216.339 L 352.554 216.339 L 352.554 223.392 L 351.598 223.392 L 351.598 220.135 L 347.991 220.135 L 347.991 223.392 L 347.035 223.392 L 347.035 216.339 " fill="#000000"/>
<path class="atom-42" d="M 375.821 135.983 L 376.777 135.983 L 376.777 138.982 L 380.383 138.982 L 380.383 135.983 L 381.34 135.983 L 381.34 143.036 L 380.383 143.036 L 380.383 139.779 L 376.777 139.779 L 376.777 143.036 L 375.821 143.036 L 375.821 135.983 " fill="#000000"/>
<path class="atom-43" d="M 395.579 109.98 L 396.535 109.98 L 396.535 112.979 L 400.141 112.979 L 400.141 109.98 L 401.098 109.98 L 401.098 117.033 L 400.141 117.033 L 400.141 113.776 L 396.535 113.776 L 396.535 117.033 L 395.579 117.033 L 395.579 109.98 " fill="#000000"/>
<path class="atom-44" d="M 428.023 115.051 L 428.98 115.051 L 428.98 118.05 L 432.586 118.05 L 432.586 115.051 L 433.542 115.051 L 433.542 122.104 L 432.586 122.104 L 432.586 118.846 L 428.98 118.846 L 428.98 122.104 L 428.023 122.104 L 428.023 115.051 " fill="#000000"/>
<path class="atom-45" d="M 442.18 162.793 L 443.136 162.793 L 443.136 165.792 L 446.742 165.792 L 446.742 162.793 L 447.699 162.793 L 447.699 169.846 L 446.742 169.846 L 446.742 166.589 L 443.136 166.589 L 443.136 169.846 L 442.18 169.846 L 442.18 162.793 " fill="#000000"/>
<path class="atom-46" d="M 436.832 125.992 L 437.789 125.992 L 437.789 128.991 L 441.395 128.991 L 441.395 125.992 L 442.351 125.992 L 442.351 133.045 L 441.395 133.045 L 441.395 129.788 L 437.789 129.788 L 437.789 133.045 L 436.832 133.045 L 436.832 125.992 " fill="#000000"/>
<path class="atom-47" d="M 470.437 161.367 L 471.394 161.367 L 471.394 164.366 L 475 164.366 L 475 161.367 L 475.956 161.367 L 475.956 168.42 L 475 168.42 L 475 165.163 L 471.394 165.163 L 471.394 168.42 L 470.437 168.42 L 470.437 161.367 " fill="#000000"/>
<path class="atom-48" d="M 454.347 154.415 L 455.303 154.415 L 455.303 157.413 L 458.909 157.413 L 458.909 154.415 L 459.866 154.415 L 459.866 161.468 L 458.909 161.468 L 458.909 158.21 L 455.303 158.21 L 455.303 161.468 L 454.347 161.468 L 454.347 154.415 " fill="#000000"/>
<path class="atom-49" d="M 497.012 144.031 L 497.968 144.031 L 497.968 147.03 L 501.575 147.03 L 501.575 144.031 L 502.531 144.031 L 502.531 151.084 L 501.575 151.084 L 501.575 147.827 L 497.968 147.827 L 497.968 151.084 L 497.012 151.084 L 497.012 144.031 " fill="#000000"/>
<path class="atom-50" d="M 483.5 158.292 L 484.456 158.292 L 484.456 161.291 L 488.063 161.291 L 488.063 158.292 L 489.019 158.292 L 489.019 165.345 L 488.063 165.345 L 488.063 162.088 L 484.456 162.088 L 484.456 165.345 L 483.5 165.345 L 483.5 158.292 " fill="#000000"/>
<path class="atom-51" d="M 521.843 133.58 L 522.799 133.58 L 522.799 136.579 L 526.405 136.579 L 526.405 133.58 L 527.362 133.58 L 527.362 140.633 L 526.405 140.633 L 526.405 137.375 L 522.799 137.375 L 522.799 140.633 L 521.843 140.633 L 521.843 133.58 " fill="#000000"/>
<path class="atom-52" d="M 533.894 122 L 534.85 122 L 534.85 124.998 L 538.457 124.998 L 538.457 122 L 539.413 122 L 539.413 129.053 L 538.457 129.053 L 538.457 125.795 L 534.85 125.795 L 534.85 129.053 L 533.894 129.053 L 533.894 122 " fill="#000000"/>
<path class="atom-53" d="M 549.341 111.713 L 550.298 111.713 L 550.298 114.711 L 553.904 114.711 L 553.904 111.713 L 554.86 111.713 L 554.86 118.766 L 553.904 118.766 L 553.904 115.508 L 550.298 115.508 L 550.298 118.766 L 549.341 118.766 L 549.341 111.713 " fill="#000000"/>
<path class="atom-54" d="M 559.866 80.2447 L 560.822 80.2447 L 560.822 83.2432 L 564.428 83.2432 L 564.428 80.2447 L 565.385 80.2447 L 565.385 87.2977 L 564.428 87.2977 L 564.428 84.0402 L 560.822 84.0402 L 560.822 87.2977 L 559.866 87.2977 L 559.866 80.2447 " fill="#000000"/>
<path class="atom-55" d="M 537.796 55.1554 L 538.752 55.1554 L 538.752 58.154 L 542.358 58.154 L 542.358 55.1554 L 543.314 55.1554 L 543.314 62.2085 L 542.358 62.2085 L 542.358 58.9509 L 538.752 58.9509 L 538.752 62.2085 L 537.796 62.2085 L 537.796 55.1554 " fill="#000000"/>
<path class="atom-56" d="M 505.198 61.7037 L 506.154 61.7037 L 506.154 64.7023 L 509.76 64.7023 L 509.76 61.7037 L 510.717 61.7037 L 510.717 68.7568 L 509.76 68.7568 L 509.76 65.4992 L 506.154 65.4992 L 506.154 68.7568 L 505.198 68.7568 L 505.198 61.7037 " fill="#000000"/>
<path class="atom-57" d="M 494.174 92.3221 L 495.131 92.3221 L 495.131 95.3207 L 498.737 95.3207 L 498.737 92.3221 L 499.693 92.3221 L 499.693 99.3752 L 498.737 99.3752 L 498.737 96.1176 L 495.131 96.1176 L 495.131 99.3752 L 494.174 99.3752 L 494.174 92.3221 " fill="#000000"/>
<path class="atom-58" d="M 468.327 96.1608 L 469.283 96.1608 L 469.283 99.1594 L 472.889 99.1594 L 472.889 96.1608 L 473.846 96.1608 L 473.846 103.214 L 472.889 103.214 L 472.889 99.9563 L 469.283 99.9563 L 469.283 103.214 L 468.327 103.214 L 468.327 96.1608 " fill="#000000"/>
<path class="atom-59" d="M 487.235 103.597 L 488.191 103.597 L 488.191 106.596 L 491.798 106.596 L 491.798 103.597 L 492.754 103.597 L 492.754 110.651 L 491.798 110.651 L 491.798 107.393 L 488.191 107.393 L 488.191 110.651 L 487.235 110.651 L 487.235 103.597 " fill="#000000"/>
<path class="atom-60" d="M 441.313 113.192 L 442.269 113.192 L 442.269 116.19 L 445.875 116.19 L 445.875 113.192 L 446.832 113.192 L 446.832 120.245 L 445.875 120.245 L 445.875 116.987 L 442.269 116.987 L 442.269 120.245 L 441.313 120.245 L 441.313 113.192 " fill="#000000"/>
<path class="atom-61" d="M 455.337 99.4097 L 456.294 99.4097 L 456.294 102.408 L 459.9 102.408 L 459.9 99.4097 L 460.856 99.4097 L 460.856 106.463 L 459.9 106.463 L 459.9 103.205 L 456.294 103.205 L 456.294 106.463 L 455.337 106.463 L 455.337 99.4097 " fill="#000000"/>
<path class="atom-62" d="M 422.729 170.787 L 423.686 170.787 L 423.686 173.785 L 427.292 173.785 L 427.292 170.787 L 428.248 170.787 L 428.248 177.84 L 427.292 177.84 L 427.292 174.582 L 423.686 174.582 L 423.686 177.84 L 422.729 177.84 L 422.729 170.787 " fill="#000000"/>
<text x="300" y="20" font-size="20" font-family="sans-serif" font-weight="normal" letter-spacing="0" text-anchor="middle" fill="black">ptp1b: 23482 -&gt; 23485</text><text x="300" y="35" font-size="15" font-family="sans-serif" font-weight="normal" letter-spacing="0" text-anchor="middle" fill="black">complex (repeats 4, 5, 6), water (repeats 4, 5, 6), DDG_exp = -1.01 (0.0) kcal/mol</text><text x="150" y="285" font-size="15" font-family="sans-serif" font-weight="normal" letter-spacing="0" text-anchor="middle" fill="black">23482</text><text x="450" y="285" font-size="15" font-family="sans-serif" font-weight="normal" letter-spacing="0" text-anchor="middle" fill="black">23485</text></svg>
