<?xml version='1.0' encoding='ASCII' standalone='yes'?>
<svg xmlns="http://www.w3.org/2000/svg" xmlns:rdkit="http://www.rdkit.org/xml" xmlns:xlink="http://www.w3.org/1999/xlink" version="1.1" baseProfile="full" xml:space="preserve" width="600px" height="300px" viewBox="0 0 600 300">
<!-- END OF HEADER -->
<rect style="opacity:1.0;fill:#FFFFFF;stroke:none" width="600.0" height="300.0" x="0.0" y="0.0"> </rect>
<ellipse cx="214.6" cy="173.2" rx="7.2" ry="7.2" class="atom-16" style="fill:#DC3369;fill-rule:evenodd;stroke:#DC3369;stroke-width:1.0px;stroke-linecap:butt;stroke-linejoin:miter;stroke-opacity:1"/>
<ellipse cx="225.4" cy="192.0" rx="7.2" ry="7.2" class="atom-20" style="fill:#DC3369;fill-rule:evenodd;stroke:#DC3369;stroke-width:1.0px;stroke-linecap:butt;stroke-linejoin:miter;stroke-opacity:1"/>
<ellipse cx="144.0" cy="79.4" rx="7.2" ry="7.2" class="atom-24" style="fill:#DC3369;fill-rule:evenodd;stroke:#DC3369;stroke-width:1.0px;stroke-linecap:butt;stroke-linejoin:miter;stroke-opacity:1"/>
<ellipse cx="99.7" cy="183.8" rx="7.2" ry="7.2" class="atom-27" style="fill:#DC3369;fill-rule:evenodd;stroke:#DC3369;stroke-width:1.0px;stroke-linecap:butt;stroke-linejoin:miter;stroke-opacity:1"/>
<ellipse cx="247.2" cy="154.3" rx="7.2" ry="7.2" class="atom-32" style="fill:#DC3369;fill-rule:evenodd;stroke:#DC3369;stroke-width:1.0px;stroke-linecap:butt;stroke-linejoin:miter;stroke-opacity:1"/>
<ellipse cx="244.3" cy="181.1" rx="7.2" ry="7.2" class="atom-35" style="fill:#DC3369;fill-rule:evenodd;stroke:#DC3369;stroke-width:1.0px;stroke-linecap:butt;stroke-linejoin:miter;stroke-opacity:1"/>
<ellipse cx="244.3" cy="202.9" rx="7.2" ry="7.2" class="atom-36" style="fill:#DC3369;fill-rule:evenodd;stroke:#DC3369;stroke-width:1.0px;stroke-linecap:butt;stroke-linejoin:miter;stroke-opacity:1"/>
<ellipse cx="214.6" cy="210.9" rx="7.2" ry="7.2" class="atom-37" style="fill:#DC3369;fill-rule:evenodd;stroke:#DC3369;stroke-width:1.0px;stroke-linecap:butt;stroke-linejoin:miter;stroke-opacity:1"/>
<path class="bond-0 atom-0 atom-1" d="M 90.6,141.2 L 111.3,147.8" style="fill:none;fill-rule:evenodd;stroke:#000000;stroke-width:2.0px;stroke-linecap:butt;stroke-linejoin:miter;stroke-opacity:1"/>
<path class="bond-0 atom-0 atom-1" d="M 94.9,138.4 L 109.4,143.1" style="fill:none;fill-rule:evenodd;stroke:#000000;stroke-width:2.0px;stroke-linecap:butt;stroke-linejoin:miter;stroke-opacity:1"/>
<path class="bond-1 atom-0 atom-3" d="M 90.6,141.2 L 86.0,119.9" style="fill:none;fill-rule:evenodd;stroke:#000000;stroke-width:2.0px;stroke-linecap:butt;stroke-linejoin:miter;stroke-opacity:1"/>
<path class="bond-2 atom-0 atom-12" d="M 90.6,141.2 L 74.4,155.8" style="fill:none;fill-rule:evenodd;stroke:#000000;stroke-width:2.0px;stroke-linecap:butt;stroke-linejoin:miter;stroke-opacity:1"/>
<path class="bond-3 atom-1 atom-5" d="M 111.3,147.8 L 127.5,133.3" style="fill:none;fill-rule:evenodd;stroke:#000000;stroke-width:2.0px;stroke-linecap:butt;stroke-linejoin:miter;stroke-opacity:1"/>
<path class="bond-4 atom-1 atom-21" d="M 111.3,147.8 L 114.8,163.8" style="fill:none;fill-rule:evenodd;stroke:#000000;stroke-width:2.0px;stroke-linecap:butt;stroke-linejoin:miter;stroke-opacity:1"/>
<path class="bond-5 atom-2 atom-3" d="M 102.2,105.3 L 86.0,119.9" style="fill:none;fill-rule:evenodd;stroke:#000000;stroke-width:2.0px;stroke-linecap:butt;stroke-linejoin:miter;stroke-opacity:1"/>
<path class="bond-5 atom-2 atom-3" d="M 102.4,110.4 L 91.1,120.6" style="fill:none;fill-rule:evenodd;stroke:#000000;stroke-width:2.0px;stroke-linecap:butt;stroke-linejoin:miter;stroke-opacity:1"/>
<path class="bond-6 atom-2 atom-4" d="M 102.2,105.3 L 122.9,112.0" style="fill:none;fill-rule:evenodd;stroke:#000000;stroke-width:2.0px;stroke-linecap:butt;stroke-linejoin:miter;stroke-opacity:1"/>
<path class="bond-7 atom-2 atom-22" d="M 102.2,105.3 L 98.8,89.3" style="fill:none;fill-rule:evenodd;stroke:#000000;stroke-width:2.0px;stroke-linecap:butt;stroke-linejoin:miter;stroke-opacity:1"/>
<path class="bond-8 atom-3 atom-23" d="M 86.0,119.9 L 69.7,114.6" style="fill:none;fill-rule:evenodd;stroke:#000000;stroke-width:2.0px;stroke-linecap:butt;stroke-linejoin:miter;stroke-opacity:1"/>
<path class="bond-9 atom-4 atom-5" d="M 122.9,112.0 L 127.5,133.3" style="fill:none;fill-rule:evenodd;stroke:#000000;stroke-width:2.0px;stroke-linecap:butt;stroke-linejoin:miter;stroke-opacity:1"/>
<path class="bond-9 atom-4 atom-5" d="M 119.8,116.0 L 123.0,130.9" style="fill:none;fill-rule:evenodd;stroke:#000000;stroke-width:2.0px;stroke-linecap:butt;stroke-linejoin:miter;stroke-opacity:1"/>
<path class="bond-10 atom-4 atom-8" d="M 122.9,112.0 L 130.2,107.7" style="fill:none;fill-rule:evenodd;stroke:#000000;stroke-width:2.0px;stroke-linecap:butt;stroke-linejoin:miter;stroke-opacity:1"/>
<path class="bond-10 atom-4 atom-8" d="M 130.2,107.7 L 137.5,103.5" style="fill:none;fill-rule:evenodd;stroke:#0000FF;stroke-width:2.0px;stroke-linecap:butt;stroke-linejoin:miter;stroke-opacity:1"/>
<path class="bond-11 atom-5 atom-6" d="M 127.5,133.3 L 149.1,135.5" style="fill:none;fill-rule:evenodd;stroke:#000000;stroke-width:2.0px;stroke-linecap:butt;stroke-linejoin:miter;stroke-opacity:1"/>
<path class="bond-12 atom-6 atom-7" d="M 149.1,135.5 L 152.4,128.2" style="fill:none;fill-rule:evenodd;stroke:#000000;stroke-width:2.0px;stroke-linecap:butt;stroke-linejoin:miter;stroke-opacity:1"/>
<path class="bond-12 atom-6 atom-7" d="M 152.4,128.2 L 155.6,120.9" style="fill:none;fill-rule:evenodd;stroke:#0000FF;stroke-width:2.0px;stroke-linecap:butt;stroke-linejoin:miter;stroke-opacity:1"/>
<path class="bond-12 atom-6 atom-7" d="M 146.5,131.7 L 148.8,126.6" style="fill:none;fill-rule:evenodd;stroke:#000000;stroke-width:2.0px;stroke-linecap:butt;stroke-linejoin:miter;stroke-opacity:1"/>
<path class="bond-12 atom-6 atom-7" d="M 148.8,126.6 L 151.0,121.5" style="fill:none;fill-rule:evenodd;stroke:#0000FF;stroke-width:2.0px;stroke-linecap:butt;stroke-linejoin:miter;stroke-opacity:1"/>
<path class="bond-13 atom-6 atom-9" d="M 149.1,135.5 L 160.1,154.4" style="fill:none;fill-rule:evenodd;stroke:#000000;stroke-width:2.0px;stroke-linecap:butt;stroke-linejoin:miter;stroke-opacity:1"/>
<path class="bond-14 atom-7 atom-8" d="M 153.7,111.8 L 146.0,104.8" style="fill:none;fill-rule:evenodd;stroke:#0000FF;stroke-width:2.0px;stroke-linecap:butt;stroke-linejoin:miter;stroke-opacity:1"/>
<path class="bond-15 atom-8 atom-24" d="M 142.3,95.7 L 142.9,90.2" style="fill:none;fill-rule:evenodd;stroke:#0000FF;stroke-width:2.0px;stroke-linecap:butt;stroke-linejoin:miter;stroke-opacity:1"/>
<path class="bond-15 atom-8 atom-24" d="M 142.9,90.2 L 143.4,84.7" style="fill:none;fill-rule:evenodd;stroke:#000000;stroke-width:2.0px;stroke-linecap:butt;stroke-linejoin:miter;stroke-opacity:1"/>
<path class="bond-16 atom-9 atom-14" d="M 160.1,154.4 L 181.9,154.4" style="fill:none;fill-rule:evenodd;stroke:#000000;stroke-width:2.0px;stroke-linecap:butt;stroke-linejoin:miter;stroke-opacity:1"/>
<path class="bond-17 atom-9 atom-25" d="M 160.1,154.4 L 145.6,162.8" style="fill:none;fill-rule:evenodd;stroke:#000000;stroke-width:2.0px;stroke-linecap:butt;stroke-linejoin:miter;stroke-opacity:1"/>
<path class="bond-18 atom-9 atom-26" d="M 160.1,154.4 L 160.1,170.8" style="fill:none;fill-rule:evenodd;stroke:#000000;stroke-width:2.0px;stroke-linecap:butt;stroke-linejoin:miter;stroke-opacity:1"/>
<path class="bond-19 atom-10 atom-11" d="M 74.7,180.9 L 68.8,186.3" style="fill:none;fill-rule:evenodd;stroke:#0000FF;stroke-width:2.0px;stroke-linecap:butt;stroke-linejoin:miter;stroke-opacity:1"/>
<path class="bond-19 atom-10 atom-11" d="M 68.8,186.3 L 62.8,191.7" style="fill:none;fill-rule:evenodd;stroke:#000000;stroke-width:2.0px;stroke-linecap:butt;stroke-linejoin:miter;stroke-opacity:1"/>
<path class="bond-20 atom-10 atom-12" d="M 77.8,171.7 L 76.1,163.8" style="fill:none;fill-rule:evenodd;stroke:#0000FF;stroke-width:2.0px;stroke-linecap:butt;stroke-linejoin:miter;stroke-opacity:1"/>
<path class="bond-20 atom-10 atom-12" d="M 76.1,163.8 L 74.4,155.8" style="fill:none;fill-rule:evenodd;stroke:#000000;stroke-width:2.0px;stroke-linecap:butt;stroke-linejoin:miter;stroke-opacity:1"/>
<path class="bond-21 atom-10 atom-27" d="M 83.2,178.4 L 89.3,180.4" style="fill:none;fill-rule:evenodd;stroke:#0000FF;stroke-width:2.0px;stroke-linecap:butt;stroke-linejoin:miter;stroke-opacity:1"/>
<path class="bond-21 atom-10 atom-27" d="M 89.3,180.4 L 95.3,182.4" style="fill:none;fill-rule:evenodd;stroke:#000000;stroke-width:2.0px;stroke-linecap:butt;stroke-linejoin:miter;stroke-opacity:1"/>
<path class="bond-22 atom-11 atom-28" d="M 62.8,191.7 L 73.0,203.0" style="fill:none;fill-rule:evenodd;stroke:#000000;stroke-width:2.0px;stroke-linecap:butt;stroke-linejoin:miter;stroke-opacity:1"/>
<path class="bond-23 atom-11 atom-29" d="M 62.8,191.7 L 57.8,207.0" style="fill:none;fill-rule:evenodd;stroke:#000000;stroke-width:2.0px;stroke-linecap:butt;stroke-linejoin:miter;stroke-opacity:1"/>
<path class="bond-24 atom-11 atom-30" d="M 62.8,191.7 L 46.4,186.4" style="fill:none;fill-rule:evenodd;stroke:#000000;stroke-width:2.0px;stroke-linecap:butt;stroke-linejoin:miter;stroke-opacity:1"/>
<path class="bond-25 atom-12 atom-13" d="M 73.8,157.6 L 65.9,155.1" style="fill:none;fill-rule:evenodd;stroke:#000000;stroke-width:2.0px;stroke-linecap:butt;stroke-linejoin:miter;stroke-opacity:1"/>
<path class="bond-25 atom-12 atom-13" d="M 65.9,155.1 L 58.1,152.5" style="fill:none;fill-rule:evenodd;stroke:#FF0000;stroke-width:2.0px;stroke-linecap:butt;stroke-linejoin:miter;stroke-opacity:1"/>
<path class="bond-25 atom-12 atom-13" d="M 75.0,153.9 L 67.1,151.4" style="fill:none;fill-rule:evenodd;stroke:#000000;stroke-width:2.0px;stroke-linecap:butt;stroke-linejoin:miter;stroke-opacity:1"/>
<path class="bond-25 atom-12 atom-13" d="M 67.1,151.4 L 59.3,148.8" style="fill:none;fill-rule:evenodd;stroke:#FF0000;stroke-width:2.0px;stroke-linecap:butt;stroke-linejoin:miter;stroke-opacity:1"/>
<path class="bond-26 atom-14 atom-15" d="M 181.9,154.4 L 192.8,173.2" style="fill:none;fill-rule:evenodd;stroke:#000000;stroke-width:2.0px;stroke-linecap:butt;stroke-linejoin:miter;stroke-opacity:1"/>
<path class="bond-26 atom-14 atom-15" d="M 186.9,155.2 L 194.5,168.4" style="fill:none;fill-rule:evenodd;stroke:#000000;stroke-width:2.0px;stroke-linecap:butt;stroke-linejoin:miter;stroke-opacity:1"/>
<path class="bond-27 atom-14 atom-19" d="M 181.9,154.4 L 192.7,135.5" style="fill:none;fill-rule:evenodd;stroke:#000000;stroke-width:2.0px;stroke-linecap:butt;stroke-linejoin:miter;stroke-opacity:1"/>
<path class="bond-28 atom-15 atom-16" d="M 192.8,173.2 L 214.6,173.2" style="fill:none;fill-rule:evenodd;stroke:#000000;stroke-width:2.0px;stroke-linecap:butt;stroke-linejoin:miter;stroke-opacity:1"/>
<path class="bond-29 atom-15 atom-31" d="M 192.8,173.2 L 185.0,186.7" style="fill:none;fill-rule:evenodd;stroke:#000000;stroke-width:2.0px;stroke-linecap:butt;stroke-linejoin:miter;stroke-opacity:1"/>
<path class="bond-30 atom-16 atom-17" d="M 214.6,173.2 L 225.4,154.3" style="fill:none;fill-rule:evenodd;stroke:#000000;stroke-width:2.0px;stroke-linecap:butt;stroke-linejoin:miter;stroke-opacity:1"/>
<path class="bond-30 atom-16 atom-17" d="M 212.8,168.4 L 220.4,155.2" style="fill:none;fill-rule:evenodd;stroke:#000000;stroke-width:2.0px;stroke-linecap:butt;stroke-linejoin:miter;stroke-opacity:1"/>
<path class="bond-31 atom-16 atom-20" d="M 214.6,173.2 L 225.4,192.0" style="fill:none;fill-rule:evenodd;stroke:#000000;stroke-width:2.0px;stroke-linecap:butt;stroke-linejoin:miter;stroke-opacity:1"/>
<path class="bond-32 atom-17 atom-18" d="M 225.4,154.3 L 214.5,135.5" style="fill:none;fill-rule:evenodd;stroke:#000000;stroke-width:2.0px;stroke-linecap:butt;stroke-linejoin:miter;stroke-opacity:1"/>
<path class="bond-33 atom-17 atom-32" d="M 225.4,154.3 L 242.8,154.3" style="fill:none;fill-rule:evenodd;stroke:#000000;stroke-width:2.0px;stroke-linecap:butt;stroke-linejoin:miter;stroke-opacity:1"/>
<path class="bond-34 atom-18 atom-19" d="M 214.5,135.5 L 192.7,135.5" style="fill:none;fill-rule:evenodd;stroke:#000000;stroke-width:2.0px;stroke-linecap:butt;stroke-linejoin:miter;stroke-opacity:1"/>
<path class="bond-34 atom-18 atom-19" d="M 211.2,139.4 L 196.0,139.4" style="fill:none;fill-rule:evenodd;stroke:#000000;stroke-width:2.0px;stroke-linecap:butt;stroke-linejoin:miter;stroke-opacity:1"/>
<path class="bond-35 atom-18 atom-33" d="M 214.5,135.5 L 222.3,122.0" style="fill:none;fill-rule:evenodd;stroke:#000000;stroke-width:2.0px;stroke-linecap:butt;stroke-linejoin:miter;stroke-opacity:1"/>
<path class="bond-36 atom-19 atom-34" d="M 192.7,135.5 L 184.9,122.0" style="fill:none;fill-rule:evenodd;stroke:#000000;stroke-width:2.0px;stroke-linecap:butt;stroke-linejoin:miter;stroke-opacity:1"/>
<path class="bond-37 atom-20 atom-35" d="M 225.4,192.0 L 239.9,183.6" style="fill:none;fill-rule:evenodd;stroke:#000000;stroke-width:2.0px;stroke-linecap:butt;stroke-linejoin:miter;stroke-opacity:1"/>
<path class="bond-38 atom-20 atom-36" d="M 225.4,192.0 L 240.0,200.4" style="fill:none;fill-rule:evenodd;stroke:#000000;stroke-width:2.0px;stroke-linecap:butt;stroke-linejoin:miter;stroke-opacity:1"/>
<path class="bond-39 atom-20 atom-37" d="M 225.4,192.0 L 217.7,205.5" style="fill:none;fill-rule:evenodd;stroke:#000000;stroke-width:2.0px;stroke-linecap:butt;stroke-linejoin:miter;stroke-opacity:1"/>
<path class="atom-7" d="M 155.9 111.0 L 159.0 115.9 Q 159.3 116.3, 159.7 117.2 Q 160.2 118.1, 160.2 118.1 L 160.2 111.0 L 161.5 111.0 L 161.5 120.2 L 160.2 120.2 L 157.0 114.9 Q 156.6 114.2, 156.2 113.5 Q 155.8 112.8, 155.7 112.6 L 155.7 120.2 L 154.5 120.2 L 154.5 111.0 L 155.9 111.0 " fill="#0000FF"/>
<path class="atom-8" d="M 139.7 96.4 L 142.7 101.3 Q 143.0 101.8, 143.5 102.7 Q 144.0 103.6, 144.0 103.6 L 144.0 96.4 L 145.3 96.4 L 145.3 105.7 L 144.0 105.7 L 140.7 100.3 Q 140.4 99.7, 139.9 99.0 Q 139.6 98.3, 139.4 98.0 L 139.4 105.7 L 138.2 105.7 L 138.2 96.4 L 139.7 96.4 " fill="#0000FF"/>
<path class="atom-10" d="M 76.9 172.5 L 79.9 177.3 Q 80.2 177.8, 80.7 178.7 Q 81.2 179.6, 81.2 179.6 L 81.2 172.5 L 82.5 172.5 L 82.5 181.7 L 81.2 181.7 L 77.9 176.3 Q 77.6 175.7, 77.2 175.0 Q 76.8 174.3, 76.7 174.1 L 76.7 181.7 L 75.5 181.7 L 75.5 172.5 L 76.9 172.5 " fill="#0000FF"/>
<path class="atom-13" d="M 49.5 149.1 Q 49.5 146.9, 50.6 145.6 Q 51.7 144.4, 53.7 144.4 Q 55.8 144.4, 56.9 145.6 Q 58.0 146.9, 58.0 149.1 Q 58.0 151.3, 56.8 152.6 Q 55.7 153.9, 53.7 153.9 Q 51.7 153.9, 50.6 152.6 Q 49.5 151.4, 49.5 149.1 M 53.7 152.8 Q 55.1 152.8, 55.9 151.9 Q 56.6 150.9, 56.6 149.1 Q 56.6 147.3, 55.9 146.4 Q 55.1 145.4, 53.7 145.4 Q 52.3 145.4, 51.5 146.4 Q 50.8 147.3, 50.8 149.1 Q 50.8 151.0, 51.5 151.9 Q 52.3 152.8, 53.7 152.8 " fill="#FF0000"/>
<path class="atom-21" d="M 112.3 164.5 L 113.5 164.5 L 113.5 168.4 L 118.3 168.4 L 118.3 164.5 L 119.5 164.5 L 119.5 173.8 L 118.3 173.8 L 118.3 169.5 L 113.5 169.5 L 113.5 173.8 L 112.3 173.8 L 112.3 164.5 " fill="#000000"/>
<path class="atom-22" d="M 94.0 79.4 L 95.3 79.4 L 95.3 83.3 L 100.0 83.3 L 100.0 79.4 L 101.2 79.4 L 101.2 88.6 L 100.0 88.6 L 100.0 84.3 L 95.3 84.3 L 95.3 88.6 L 94.0 88.6 L 94.0 79.4 " fill="#000000"/>
<path class="atom-23" d="M 61.7 108.6 L 63.0 108.6 L 63.0 112.5 L 67.7 112.5 L 67.7 108.6 L 69.0 108.6 L 69.0 117.8 L 67.7 117.8 L 67.7 113.5 L 63.0 113.5 L 63.0 117.8 L 61.7 117.8 L 61.7 108.6 " fill="#000000"/>
<path class="atom-24" d="M 140.4 74.8 L 141.6 74.8 L 141.6 78.7 L 146.3 78.7 L 146.3 74.8 L 147.6 74.8 L 147.6 84.0 L 146.3 84.0 L 146.3 79.7 L 141.6 79.7 L 141.6 84.0 L 140.4 84.0 L 140.4 74.8 " fill="#000000"/>
<path class="atom-25" d="M 137.6 160.7 L 138.9 160.7 L 138.9 164.6 L 143.6 164.6 L 143.6 160.7 L 144.9 160.7 L 144.9 169.9 L 143.6 169.9 L 143.6 165.6 L 138.9 165.6 L 138.9 169.9 L 137.6 169.9 L 137.6 160.7 " fill="#000000"/>
<path class="atom-26" d="M 156.5 171.5 L 157.7 171.5 L 157.7 175.4 L 162.5 175.4 L 162.5 171.5 L 163.7 171.5 L 163.7 180.8 L 162.5 180.8 L 162.5 176.5 L 157.7 176.5 L 157.7 180.8 L 156.5 180.8 L 156.5 171.5 " fill="#000000"/>
<path class="atom-27" d="M 96.0 179.2 L 97.3 179.2 L 97.3 183.1 L 102.0 183.1 L 102.0 179.2 L 103.3 179.2 L 103.3 188.4 L 102.0 188.4 L 102.0 184.1 L 97.3 184.1 L 97.3 188.4 L 96.0 188.4 L 96.0 179.2 " fill="#000000"/>
<path class="atom-28" d="M 73.7 203.2 L 75.0 203.2 L 75.0 207.1 L 79.7 207.1 L 79.7 203.2 L 81.0 203.2 L 81.0 212.5 L 79.7 212.5 L 79.7 208.2 L 75.0 208.2 L 75.0 212.5 L 73.7 212.5 L 73.7 203.2 " fill="#000000"/>
<path class="atom-29" d="M 52.5 207.8 L 53.7 207.8 L 53.7 211.7 L 58.4 211.7 L 58.4 207.8 L 59.7 207.8 L 59.7 217.0 L 58.4 217.0 L 58.4 212.7 L 53.7 212.7 L 53.7 217.0 L 52.5 217.0 L 52.5 207.8 " fill="#000000"/>
<path class="atom-30" d="M 38.5 180.3 L 39.7 180.3 L 39.7 184.3 L 44.4 184.3 L 44.4 180.3 L 45.7 180.3 L 45.7 189.6 L 44.4 189.6 L 44.4 185.3 L 39.7 185.3 L 39.7 189.6 L 38.5 189.6 L 38.5 180.3 " fill="#000000"/>
<path class="atom-31" d="M 178.3 187.4 L 179.6 187.4 L 179.6 191.4 L 184.3 191.4 L 184.3 187.4 L 185.6 187.4 L 185.6 196.7 L 184.3 196.7 L 184.3 192.4 L 179.6 192.4 L 179.6 196.7 L 178.3 196.7 L 178.3 187.4 " fill="#000000"/>
<path class="atom-32" d="M 243.6 149.7 L 244.8 149.7 L 244.8 153.6 L 249.5 153.6 L 249.5 149.7 L 250.8 149.7 L 250.8 158.9 L 249.5 158.9 L 249.5 154.6 L 244.8 154.6 L 244.8 158.9 L 243.6 158.9 L 243.6 149.7 " fill="#000000"/>
<path class="atom-33" d="M 221.7 112.0 L 223.0 112.0 L 223.0 115.9 L 227.7 115.9 L 227.7 112.0 L 228.9 112.0 L 228.9 121.2 L 227.7 121.2 L 227.7 117.0 L 223.0 117.0 L 223.0 121.2 L 221.7 121.2 L 221.7 112.0 " fill="#000000"/>
<path class="atom-34" d="M 178.2 112.0 L 179.5 112.0 L 179.5 116.0 L 184.2 116.0 L 184.2 112.0 L 185.5 112.0 L 185.5 121.3 L 184.2 121.3 L 184.2 117.0 L 179.5 117.0 L 179.5 121.3 L 178.2 121.3 L 178.2 112.0 " fill="#000000"/>
<path class="atom-35" d="M 240.7 176.5 L 241.9 176.5 L 241.9 180.4 L 246.6 180.4 L 246.6 176.5 L 247.9 176.5 L 247.9 185.7 L 246.6 185.7 L 246.6 181.5 L 241.9 181.5 L 241.9 185.7 L 240.7 185.7 L 240.7 176.5 " fill="#000000"/>
<path class="atom-36" d="M 240.7 198.2 L 241.9 198.2 L 241.9 202.2 L 246.7 202.2 L 246.7 198.2 L 247.9 198.2 L 247.9 207.5 L 246.7 207.5 L 246.7 203.2 L 241.9 203.2 L 241.9 207.5 L 240.7 207.5 L 240.7 198.2 " fill="#000000"/>
<path class="atom-37" d="M 211.0 206.2 L 212.2 206.2 L 212.2 210.2 L 216.9 210.2 L 216.9 206.2 L 218.2 206.2 L 218.2 215.5 L 216.9 215.5 L 216.9 211.2 L 212.2 211.2 L 212.2 215.5 L 211.0 215.5 L 211.0 206.2 " fill="#000000"/>
<ellipse cx="491.4" cy="178.9" rx="7.2" ry="7.2" class="atom-18" style="fill:#DC3369;fill-rule:evenodd;stroke:#DC3369;stroke-width:1.0px;stroke-linecap:butt;stroke-linejoin:miter;stroke-opacity:1"/>
<ellipse cx="457.5" cy="198.6" rx="7.2" ry="7.2" class="atom-20" style="fill:#DC3369;fill-rule:evenodd;stroke:#DC3369;stroke-width:1.0px;stroke-linecap:butt;stroke-linejoin:miter;stroke-opacity:1"/>
<ellipse cx="435.9" cy="200.9" rx="7.2" ry="7.2" class="atom-21" style="fill:#DC3369;fill-rule:evenodd;stroke:#DC3369;stroke-width:1.0px;stroke-linecap:butt;stroke-linejoin:miter;stroke-opacity:1"/>
<ellipse cx="431.4" cy="222.3" rx="7.2" ry="7.2" class="atom-22" style="fill:#DC3369;fill-rule:evenodd;stroke:#DC3369;stroke-width:1.0px;stroke-linecap:butt;stroke-linejoin:miter;stroke-opacity:1"/>
<ellipse cx="450.3" cy="233.1" rx="7.2" ry="7.2" class="atom-23" style="fill:#DC3369;fill-rule:evenodd;stroke:#DC3369;stroke-width:1.0px;stroke-linecap:butt;stroke-linejoin:miter;stroke-opacity:1"/>
<ellipse cx="466.4" cy="218.5" rx="7.2" ry="7.2" class="atom-24" style="fill:#DC3369;fill-rule:evenodd;stroke:#DC3369;stroke-width:1.0px;stroke-linecap:butt;stroke-linejoin:miter;stroke-opacity:1"/>
<ellipse cx="411.6" cy="231.2" rx="7.2" ry="7.2" class="atom-25" style="fill:#DC3369;fill-rule:evenodd;stroke:#DC3369;stroke-width:1.0px;stroke-linecap:butt;stroke-linejoin:miter;stroke-opacity:1"/>
<ellipse cx="479.2" cy="39.2" rx="7.2" ry="7.2" class="atom-29" style="fill:#DC3369;fill-rule:evenodd;stroke:#DC3369;stroke-width:1.0px;stroke-linecap:butt;stroke-linejoin:miter;stroke-opacity:1"/>
<ellipse cx="432.7" cy="139.8" rx="7.2" ry="7.2" class="atom-32" style="fill:#DC3369;fill-rule:evenodd;stroke:#DC3369;stroke-width:1.0px;stroke-linecap:butt;stroke-linejoin:miter;stroke-opacity:1"/>
<ellipse cx="501.5" cy="198.2" rx="7.2" ry="7.2" class="atom-38" style="fill:#DC3369;fill-rule:evenodd;stroke:#DC3369;stroke-width:1.0px;stroke-linecap:butt;stroke-linejoin:miter;stroke-opacity:1"/>
<ellipse cx="421.3" cy="184.8" rx="7.2" ry="7.2" class="atom-40" style="fill:#DC3369;fill-rule:evenodd;stroke:#DC3369;stroke-width:1.0px;stroke-linecap:butt;stroke-linejoin:miter;stroke-opacity:1"/>
<ellipse cx="487.7" cy="223.0" rx="7.2" ry="7.2" class="atom-41" style="fill:#DC3369;fill-rule:evenodd;stroke:#DC3369;stroke-width:1.0px;stroke-linecap:butt;stroke-linejoin:miter;stroke-opacity:1"/>
<ellipse cx="420.4" cy="251.0" rx="7.2" ry="7.2" class="atom-42" style="fill:#DC3369;fill-rule:evenodd;stroke:#DC3369;stroke-width:1.0px;stroke-linecap:butt;stroke-linejoin:miter;stroke-opacity:1"/>
<ellipse cx="398.8" cy="248.8" rx="7.2" ry="7.2" class="atom-43" style="fill:#DC3369;fill-rule:evenodd;stroke:#DC3369;stroke-width:1.0px;stroke-linecap:butt;stroke-linejoin:miter;stroke-opacity:1"/>
<ellipse cx="393.9" cy="218.4" rx="7.2" ry="7.2" class="atom-44" style="fill:#DC3369;fill-rule:evenodd;stroke:#DC3369;stroke-width:1.0px;stroke-linecap:butt;stroke-linejoin:miter;stroke-opacity:1"/>
<path class="bond-0 atom-0 atom-1" d="M 422.2,98.0 L 442.5,105.9" style="fill:none;fill-rule:evenodd;stroke:#000000;stroke-width:2.0px;stroke-linecap:butt;stroke-linejoin:miter;stroke-opacity:1"/>
<path class="bond-0 atom-0 atom-1" d="M 426.6,95.5 L 440.9,101.0" style="fill:none;fill-rule:evenodd;stroke:#000000;stroke-width:2.0px;stroke-linecap:butt;stroke-linejoin:miter;stroke-opacity:1"/>
<path class="bond-1 atom-0 atom-3" d="M 422.2,98.0 L 418.8,76.4" style="fill:none;fill-rule:evenodd;stroke:#000000;stroke-width:2.0px;stroke-linecap:butt;stroke-linejoin:miter;stroke-opacity:1"/>
<path class="bond-2 atom-0 atom-12" d="M 422.2,98.0 L 406.2,112.4" style="fill:none;fill-rule:evenodd;stroke:#000000;stroke-width:2.0px;stroke-linecap:butt;stroke-linejoin:miter;stroke-opacity:1"/>
<path class="bond-3 atom-1 atom-5" d="M 442.5,105.9 L 459.5,92.1" style="fill:none;fill-rule:evenodd;stroke:#000000;stroke-width:2.0px;stroke-linecap:butt;stroke-linejoin:miter;stroke-opacity:1"/>
<path class="bond-4 atom-1 atom-26" d="M 442.5,105.9 L 444.5,122.1" style="fill:none;fill-rule:evenodd;stroke:#000000;stroke-width:2.0px;stroke-linecap:butt;stroke-linejoin:miter;stroke-opacity:1"/>
<path class="bond-5 atom-2 atom-3" d="M 435.9,62.7 L 418.8,76.4" style="fill:none;fill-rule:evenodd;stroke:#000000;stroke-width:2.0px;stroke-linecap:butt;stroke-linejoin:miter;stroke-opacity:1"/>
<path class="bond-5 atom-2 atom-3" d="M 435.8,67.8 L 423.8,77.4" style="fill:none;fill-rule:evenodd;stroke:#000000;stroke-width:2.0px;stroke-linecap:butt;stroke-linejoin:miter;stroke-opacity:1"/>
<path class="bond-6 atom-2 atom-4" d="M 435.9,62.7 L 456.3,70.5" style="fill:none;fill-rule:evenodd;stroke:#000000;stroke-width:2.0px;stroke-linecap:butt;stroke-linejoin:miter;stroke-opacity:1"/>
<path class="bond-7 atom-2 atom-27" d="M 435.9,62.7 L 433.4,46.5" style="fill:none;fill-rule:evenodd;stroke:#000000;stroke-width:2.0px;stroke-linecap:butt;stroke-linejoin:miter;stroke-opacity:1"/>
<path class="bond-8 atom-3 atom-28" d="M 418.8,76.4 L 402.9,70.2" style="fill:none;fill-rule:evenodd;stroke:#000000;stroke-width:2.0px;stroke-linecap:butt;stroke-linejoin:miter;stroke-opacity:1"/>
<path class="bond-9 atom-4 atom-5" d="M 456.3,70.5 L 459.5,92.1" style="fill:none;fill-rule:evenodd;stroke:#000000;stroke-width:2.0px;stroke-linecap:butt;stroke-linejoin:miter;stroke-opacity:1"/>
<path class="bond-9 atom-4 atom-5" d="M 452.9,74.4 L 455.2,89.5" style="fill:none;fill-rule:evenodd;stroke:#000000;stroke-width:2.0px;stroke-linecap:butt;stroke-linejoin:miter;stroke-opacity:1"/>
<path class="bond-10 atom-4 atom-8" d="M 456.3,70.5 L 463.9,66.7" style="fill:none;fill-rule:evenodd;stroke:#000000;stroke-width:2.0px;stroke-linecap:butt;stroke-linejoin:miter;stroke-opacity:1"/>
<path class="bond-10 atom-4 atom-8" d="M 463.9,66.7 L 471.5,62.9" style="fill:none;fill-rule:evenodd;stroke:#0000FF;stroke-width:2.0px;stroke-linecap:butt;stroke-linejoin:miter;stroke-opacity:1"/>
<path class="bond-11 atom-5 atom-6" d="M 459.5,92.1 L 481.2,95.6" style="fill:none;fill-rule:evenodd;stroke:#000000;stroke-width:2.0px;stroke-linecap:butt;stroke-linejoin:miter;stroke-opacity:1"/>
<path class="bond-12 atom-6 atom-7" d="M 481.2,95.6 L 484.8,88.5" style="fill:none;fill-rule:evenodd;stroke:#000000;stroke-width:2.0px;stroke-linecap:butt;stroke-linejoin:miter;stroke-opacity:1"/>
<path class="bond-12 atom-6 atom-7" d="M 484.8,88.5 L 488.4,81.5" style="fill:none;fill-rule:evenodd;stroke:#0000FF;stroke-width:2.0px;stroke-linecap:butt;stroke-linejoin:miter;stroke-opacity:1"/>
<path class="bond-12 atom-6 atom-7" d="M 478.8,91.7 L 481.3,86.8" style="fill:none;fill-rule:evenodd;stroke:#000000;stroke-width:2.0px;stroke-linecap:butt;stroke-linejoin:miter;stroke-opacity:1"/>
<path class="bond-12 atom-6 atom-7" d="M 481.3,86.8 L 483.8,81.8" style="fill:none;fill-rule:evenodd;stroke:#0000FF;stroke-width:2.0px;stroke-linecap:butt;stroke-linejoin:miter;stroke-opacity:1"/>
<path class="bond-13 atom-6 atom-9" d="M 481.2,95.6 L 499.4,119.5" style="fill:none;fill-rule:evenodd;stroke:#000000;stroke-width:2.0px;stroke-linecap:butt;stroke-linejoin:miter;stroke-opacity:1"/>
<path class="bond-14 atom-7 atom-8" d="M 486.9,71.9 L 479.9,65.0" style="fill:none;fill-rule:evenodd;stroke:#0000FF;stroke-width:2.0px;stroke-linecap:butt;stroke-linejoin:miter;stroke-opacity:1"/>
<path class="bond-15 atom-8 atom-29" d="M 476.6,55.4 L 477.5,50.0" style="fill:none;fill-rule:evenodd;stroke:#0000FF;stroke-width:2.0px;stroke-linecap:butt;stroke-linejoin:miter;stroke-opacity:1"/>
<path class="bond-15 atom-8 atom-29" d="M 477.5,50.0 L 478.3,44.6" style="fill:none;fill-rule:evenodd;stroke:#000000;stroke-width:2.0px;stroke-linecap:butt;stroke-linejoin:miter;stroke-opacity:1"/>
<path class="bond-16 atom-9 atom-14" d="M 499.4,119.5 L 492.5,141.2" style="fill:none;fill-rule:evenodd;stroke:#000000;stroke-width:2.0px;stroke-linecap:butt;stroke-linejoin:miter;stroke-opacity:1"/>
<path class="bond-17 atom-9 atom-30" d="M 499.4,119.5 L 512.4,109.6" style="fill:none;fill-rule:evenodd;stroke:#000000;stroke-width:2.0px;stroke-linecap:butt;stroke-linejoin:miter;stroke-opacity:1"/>
<path class="bond-18 atom-9 atom-31" d="M 499.4,119.5 L 515.6,125.7" style="fill:none;fill-rule:evenodd;stroke:#000000;stroke-width:2.0px;stroke-linecap:butt;stroke-linejoin:miter;stroke-opacity:1"/>
<path class="bond-19 atom-10 atom-11" d="M 407.4,138.0 L 401.8,143.5" style="fill:none;fill-rule:evenodd;stroke:#0000FF;stroke-width:2.0px;stroke-linecap:butt;stroke-linejoin:miter;stroke-opacity:1"/>
<path class="bond-19 atom-10 atom-11" d="M 401.8,143.5 L 396.2,149.0" style="fill:none;fill-rule:evenodd;stroke:#000000;stroke-width:2.0px;stroke-linecap:butt;stroke-linejoin:miter;stroke-opacity:1"/>
<path class="bond-20 atom-10 atom-12" d="M 410.2,128.5 L 408.2,120.4" style="fill:none;fill-rule:evenodd;stroke:#0000FF;stroke-width:2.0px;stroke-linecap:butt;stroke-linejoin:miter;stroke-opacity:1"/>
<path class="bond-20 atom-10 atom-12" d="M 408.2,120.4 L 406.2,112.4" style="fill:none;fill-rule:evenodd;stroke:#000000;stroke-width:2.0px;stroke-linecap:butt;stroke-linejoin:miter;stroke-opacity:1"/>
<path class="bond-21 atom-10 atom-32" d="M 415.8,135.0 L 422.1,136.8" style="fill:none;fill-rule:evenodd;stroke:#0000FF;stroke-width:2.0px;stroke-linecap:butt;stroke-linejoin:miter;stroke-opacity:1"/>
<path class="bond-21 atom-10 atom-32" d="M 422.1,136.8 L 428.3,138.6" style="fill:none;fill-rule:evenodd;stroke:#000000;stroke-width:2.0px;stroke-linecap:butt;stroke-linejoin:miter;stroke-opacity:1"/>
<path class="bond-22 atom-11 atom-33" d="M 396.2,149.0 L 407.2,160.2" style="fill:none;fill-rule:evenodd;stroke:#000000;stroke-width:2.0px;stroke-linecap:butt;stroke-linejoin:miter;stroke-opacity:1"/>
<path class="bond-23 atom-11 atom-34" d="M 396.2,149.0 L 391.9,164.6" style="fill:none;fill-rule:evenodd;stroke:#000000;stroke-width:2.0px;stroke-linecap:butt;stroke-linejoin:miter;stroke-opacity:1"/>
<path class="bond-24 atom-11 atom-35" d="M 396.2,149.0 L 379.7,144.4" style="fill:none;fill-rule:evenodd;stroke:#000000;stroke-width:2.0px;stroke-linecap:butt;stroke-linejoin:miter;stroke-opacity:1"/>
<path class="bond-25 atom-12 atom-13" d="M 405.6,114.2 L 397.8,111.8" style="fill:none;fill-rule:evenodd;stroke:#000000;stroke-width:2.0px;stroke-linecap:butt;stroke-linejoin:miter;stroke-opacity:1"/>
<path class="bond-25 atom-12 atom-13" d="M 397.8,111.8 L 389.9,109.5" style="fill:none;fill-rule:evenodd;stroke:#FF0000;stroke-width:2.0px;stroke-linecap:butt;stroke-linejoin:miter;stroke-opacity:1"/>
<path class="bond-25 atom-12 atom-13" d="M 406.8,110.5 L 398.9,108.1" style="fill:none;fill-rule:evenodd;stroke:#000000;stroke-width:2.0px;stroke-linecap:butt;stroke-linejoin:miter;stroke-opacity:1"/>
<path class="bond-25 atom-12 atom-13" d="M 398.9,108.1 L 391.0,105.7" style="fill:none;fill-rule:evenodd;stroke:#FF0000;stroke-width:2.0px;stroke-linecap:butt;stroke-linejoin:miter;stroke-opacity:1"/>
<path class="bond-26 atom-14 atom-15" d="M 492.5,141.2 L 470.8,140.5" style="fill:none;fill-rule:evenodd;stroke:#000000;stroke-width:2.0px;stroke-linecap:butt;stroke-linejoin:miter;stroke-opacity:1"/>
<path class="bond-26 atom-14 atom-15" d="M 489.1,145.0 L 474.0,144.5" style="fill:none;fill-rule:evenodd;stroke:#000000;stroke-width:2.0px;stroke-linecap:butt;stroke-linejoin:miter;stroke-opacity:1"/>
<path class="bond-27 atom-14 atom-19" d="M 492.5,141.2 L 502.9,160.3" style="fill:none;fill-rule:evenodd;stroke:#000000;stroke-width:2.0px;stroke-linecap:butt;stroke-linejoin:miter;stroke-opacity:1"/>
<path class="bond-28 atom-15 atom-16" d="M 470.8,140.5 L 459.4,159.1" style="fill:none;fill-rule:evenodd;stroke:#000000;stroke-width:2.0px;stroke-linecap:butt;stroke-linejoin:miter;stroke-opacity:1"/>
<path class="bond-29 atom-15 atom-36" d="M 470.8,140.5 L 464.4,126.5" style="fill:none;fill-rule:evenodd;stroke:#000000;stroke-width:2.0px;stroke-linecap:butt;stroke-linejoin:miter;stroke-opacity:1"/>
<path class="bond-30 atom-16 atom-17" d="M 459.4,159.1 L 469.7,178.2" style="fill:none;fill-rule:evenodd;stroke:#000000;stroke-width:2.0px;stroke-linecap:butt;stroke-linejoin:miter;stroke-opacity:1"/>
<path class="bond-30 atom-16 atom-17" d="M 464.4,160.1 L 471.6,173.5" style="fill:none;fill-rule:evenodd;stroke:#000000;stroke-width:2.0px;stroke-linecap:butt;stroke-linejoin:miter;stroke-opacity:1"/>
<path class="bond-31 atom-16 atom-37" d="M 459.4,159.1 L 442.0,158.3" style="fill:none;fill-rule:evenodd;stroke:#000000;stroke-width:2.0px;stroke-linecap:butt;stroke-linejoin:miter;stroke-opacity:1"/>
<path class="bond-32 atom-17 atom-18" d="M 469.7,178.2 L 491.4,178.9" style="fill:none;fill-rule:evenodd;stroke:#000000;stroke-width:2.0px;stroke-linecap:butt;stroke-linejoin:miter;stroke-opacity:1"/>
<path class="bond-33 atom-17 atom-20" d="M 469.7,178.2 L 457.5,198.6" style="fill:none;fill-rule:evenodd;stroke:#000000;stroke-width:2.0px;stroke-linecap:butt;stroke-linejoin:miter;stroke-opacity:1"/>
<path class="bond-34 atom-18 atom-19" d="M 491.4,178.9 L 502.9,160.3" style="fill:none;fill-rule:evenodd;stroke:#000000;stroke-width:2.0px;stroke-linecap:butt;stroke-linejoin:miter;stroke-opacity:1"/>
<path class="bond-34 atom-18 atom-19" d="M 489.8,174.0 L 497.9,161.1" style="fill:none;fill-rule:evenodd;stroke:#000000;stroke-width:2.0px;stroke-linecap:butt;stroke-linejoin:miter;stroke-opacity:1"/>
<path class="bond-35 atom-18 atom-38" d="M 491.4,178.9 L 498.7,192.8" style="fill:none;fill-rule:evenodd;stroke:#000000;stroke-width:2.0px;stroke-linecap:butt;stroke-linejoin:miter;stroke-opacity:1"/>
<path class="bond-36 atom-19 atom-39" d="M 502.9,160.3 L 520.3,161.1" style="fill:none;fill-rule:evenodd;stroke:#000000;stroke-width:2.0px;stroke-linecap:butt;stroke-linejoin:miter;stroke-opacity:1"/>
<path class="bond-37 atom-20 atom-21" d="M 457.5,198.6 L 435.9,200.9" style="fill:none;fill-rule:evenodd;stroke:#000000;stroke-width:2.0px;stroke-linecap:butt;stroke-linejoin:miter;stroke-opacity:1"/>
<path class="bond-37 atom-20 atom-21" d="M 454.7,202.9 L 439.6,204.5" style="fill:none;fill-rule:evenodd;stroke:#000000;stroke-width:2.0px;stroke-linecap:butt;stroke-linejoin:miter;stroke-opacity:1"/>
<path class="bond-38 atom-20 atom-24" d="M 457.5,198.6 L 466.4,218.5" style="fill:none;fill-rule:evenodd;stroke:#000000;stroke-width:2.0px;stroke-linecap:butt;stroke-linejoin:miter;stroke-opacity:1"/>
<path class="bond-39 atom-21 atom-22" d="M 435.9,200.9 L 434.2,208.9" style="fill:none;fill-rule:evenodd;stroke:#000000;stroke-width:2.0px;stroke-linecap:butt;stroke-linejoin:miter;stroke-opacity:1"/>
<path class="bond-39 atom-21 atom-22" d="M 434.2,208.9 L 432.5,216.9" style="fill:none;fill-rule:evenodd;stroke:#0000FF;stroke-width:2.0px;stroke-linecap:butt;stroke-linejoin:miter;stroke-opacity:1"/>
<path class="bond-40 atom-21 atom-40" d="M 435.9,200.9 L 425.6,189.6" style="fill:none;fill-rule:evenodd;stroke:#000000;stroke-width:2.0px;stroke-linecap:butt;stroke-linejoin:miter;stroke-opacity:1"/>
<path class="bond-41 atom-22 atom-23" d="M 435.6,224.7 L 446.1,230.7" style="fill:none;fill-rule:evenodd;stroke:#0000FF;stroke-width:2.0px;stroke-linecap:butt;stroke-linejoin:miter;stroke-opacity:1"/>
<path class="bond-42 atom-22 atom-25" d="M 427.2,224.2 L 419.4,227.7" style="fill:none;fill-rule:evenodd;stroke:#0000FF;stroke-width:2.0px;stroke-linecap:butt;stroke-linejoin:miter;stroke-opacity:1"/>
<path class="bond-42 atom-22 atom-25" d="M 419.4,227.7 L 411.6,231.2" style="fill:none;fill-rule:evenodd;stroke:#000000;stroke-width:2.0px;stroke-linecap:butt;stroke-linejoin:miter;stroke-opacity:1"/>
<path class="bond-43 atom-23 atom-24" d="M 454.5,229.3 L 460.5,223.9" style="fill:none;fill-rule:evenodd;stroke:#0000FF;stroke-width:2.0px;stroke-linecap:butt;stroke-linejoin:miter;stroke-opacity:1"/>
<path class="bond-43 atom-23 atom-24" d="M 460.5,223.9 L 466.4,218.5" style="fill:none;fill-rule:evenodd;stroke:#000000;stroke-width:2.0px;stroke-linecap:butt;stroke-linejoin:miter;stroke-opacity:1"/>
<path class="bond-43 atom-23 atom-24" d="M 453.7,224.7 L 457.9,221.0" style="fill:none;fill-rule:evenodd;stroke:#0000FF;stroke-width:2.0px;stroke-linecap:butt;stroke-linejoin:miter;stroke-opacity:1"/>
<path class="bond-43 atom-23 atom-24" d="M 457.9,221.0 L 462.0,217.2" style="fill:none;fill-rule:evenodd;stroke:#000000;stroke-width:2.0px;stroke-linecap:butt;stroke-linejoin:miter;stroke-opacity:1"/>
<path class="bond-44 atom-24 atom-41" d="M 466.4,218.5 L 483.4,222.0" style="fill:none;fill-rule:evenodd;stroke:#000000;stroke-width:2.0px;stroke-linecap:butt;stroke-linejoin:miter;stroke-opacity:1"/>
<path class="bond-45 atom-25 atom-42" d="M 411.6,231.2 L 418.0,245.7" style="fill:none;fill-rule:evenodd;stroke:#000000;stroke-width:2.0px;stroke-linecap:butt;stroke-linejoin:miter;stroke-opacity:1"/>
<path class="bond-46 atom-25 atom-43" d="M 411.6,231.2 L 402.7,243.4" style="fill:none;fill-rule:evenodd;stroke:#000000;stroke-width:2.0px;stroke-linecap:butt;stroke-linejoin:miter;stroke-opacity:1"/>
<path class="bond-47 atom-25 atom-44" d="M 411.6,231.2 L 398.3,221.5" style="fill:none;fill-rule:evenodd;stroke:#000000;stroke-width:2.0px;stroke-linecap:butt;stroke-linejoin:miter;stroke-opacity:1"/>
<path class="atom-7" d="M 489.1 71.6 L 492.1 76.5 Q 492.4 76.9, 492.9 77.8 Q 493.4 78.7, 493.4 78.7 L 493.4 71.6 L 494.6 71.6 L 494.6 80.8 L 493.4 80.8 L 490.1 75.5 Q 489.7 74.8, 489.3 74.1 Q 488.9 73.4, 488.8 73.2 L 488.8 80.8 L 487.6 80.8 L 487.6 71.6 L 489.1 71.6 " fill="#0000FF"/>
<path class="atom-8" d="M 473.7 56.1 L 476.7 61.0 Q 477.0 61.5, 477.5 62.4 Q 478.0 63.3, 478.0 63.3 L 478.0 56.1 L 479.2 56.1 L 479.2 65.4 L 477.9 65.4 L 474.7 60.0 Q 474.3 59.4, 473.9 58.7 Q 473.5 58.0, 473.4 57.7 L 473.4 65.4 L 472.2 65.4 L 472.2 56.1 L 473.7 56.1 " fill="#0000FF"/>
<path class="atom-10" d="M 409.5 129.2 L 412.6 134.1 Q 412.9 134.6, 413.4 135.5 Q 413.8 136.4, 413.9 136.4 L 413.9 129.2 L 415.1 129.2 L 415.1 138.5 L 413.8 138.5 L 410.6 133.1 Q 410.2 132.5, 409.8 131.8 Q 409.4 131.0, 409.3 130.8 L 409.3 138.5 L 408.1 138.5 L 408.1 129.2 L 409.5 129.2 " fill="#0000FF"/>
<path class="atom-13" d="M 381.2 106.1 Q 381.2 103.9, 382.3 102.6 Q 383.4 101.4, 385.5 101.4 Q 387.5 101.4, 388.6 102.6 Q 389.7 103.9, 389.7 106.1 Q 389.7 108.4, 388.6 109.6 Q 387.5 110.9, 385.5 110.9 Q 383.4 110.9, 382.3 109.6 Q 381.2 108.4, 381.2 106.1 M 385.5 109.9 Q 386.9 109.9, 387.6 108.9 Q 388.4 108.0, 388.4 106.1 Q 388.4 104.3, 387.6 103.4 Q 386.9 102.4, 385.5 102.4 Q 384.1 102.4, 383.3 103.4 Q 382.5 104.3, 382.5 106.1 Q 382.5 108.0, 383.3 108.9 Q 384.1 109.9, 385.5 109.9 " fill="#FF0000"/>
<path class="atom-22" d="M 429.4 217.6 L 432.4 222.5 Q 432.7 223.0, 433.2 223.9 Q 433.7 224.8, 433.7 224.8 L 433.7 217.6 L 434.9 217.6 L 434.9 226.9 L 433.6 226.9 L 430.4 221.5 Q 430.0 220.9, 429.6 220.2 Q 429.2 219.5, 429.1 219.3 L 429.1 226.9 L 427.9 226.9 L 427.9 217.6 L 429.4 217.6 " fill="#0000FF"/>
<path class="atom-23" d="M 448.2 228.5 L 451.3 233.4 Q 451.6 233.8, 452.1 234.7 Q 452.5 235.6, 452.6 235.7 L 452.6 228.5 L 453.8 228.5 L 453.8 237.7 L 452.5 237.7 L 449.3 232.4 Q 448.9 231.7, 448.5 231.0 Q 448.1 230.3, 448.0 230.1 L 448.0 237.7 L 446.8 237.7 L 446.8 228.5 L 448.2 228.5 " fill="#0000FF"/>
<path class="atom-26" d="M 441.6 122.8 L 442.8 122.8 L 442.8 126.8 L 447.6 126.8 L 447.6 122.8 L 448.8 122.8 L 448.8 132.1 L 447.6 132.1 L 447.6 127.8 L 442.8 127.8 L 442.8 132.1 L 441.6 132.1 L 441.6 122.8 " fill="#000000"/>
<path class="atom-27" d="M 428.9 36.6 L 430.2 36.6 L 430.2 40.5 L 434.9 40.5 L 434.9 36.6 L 436.2 36.6 L 436.2 45.8 L 434.9 45.8 L 434.9 41.5 L 430.2 41.5 L 430.2 45.8 L 428.9 45.8 L 428.9 36.6 " fill="#000000"/>
<path class="atom-28" d="M 394.9 63.9 L 396.2 63.9 L 396.2 67.8 L 400.9 67.8 L 400.9 63.9 L 402.2 63.9 L 402.2 73.1 L 400.9 73.1 L 400.9 68.9 L 396.2 68.9 L 396.2 73.1 L 394.9 73.1 L 394.9 63.9 " fill="#000000"/>
<path class="atom-29" d="M 475.6 34.6 L 476.8 34.6 L 476.8 38.5 L 481.6 38.5 L 481.6 34.6 L 482.8 34.6 L 482.8 43.9 L 481.6 43.9 L 481.6 39.6 L 476.8 39.6 L 476.8 43.9 L 475.6 43.9 L 475.6 34.6 " fill="#000000"/>
<path class="atom-30" d="M 513.1 101.8 L 514.4 101.8 L 514.4 105.7 L 519.1 105.7 L 519.1 101.8 L 520.4 101.8 L 520.4 111.0 L 519.1 111.0 L 519.1 106.7 L 514.4 106.7 L 514.4 111.0 L 513.1 111.0 L 513.1 101.8 " fill="#000000"/>
<path class="atom-31" d="M 516.3 122.8 L 517.6 122.8 L 517.6 126.7 L 522.3 126.7 L 522.3 122.8 L 523.5 122.8 L 523.5 132.0 L 522.3 132.0 L 522.3 127.8 L 517.6 127.8 L 517.6 132.0 L 516.3 132.0 L 516.3 122.8 " fill="#000000"/>
<path class="atom-32" d="M 429.1 135.2 L 430.3 135.2 L 430.3 139.1 L 435.0 139.1 L 435.0 135.2 L 436.3 135.2 L 436.3 144.4 L 435.0 144.4 L 435.0 140.2 L 430.3 140.2 L 430.3 144.4 L 429.1 144.4 L 429.1 135.2 " fill="#000000"/>
<path class="atom-33" d="M 407.9 160.0 L 409.2 160.0 L 409.2 163.9 L 413.9 163.9 L 413.9 160.0 L 415.1 160.0 L 415.1 169.2 L 413.9 169.2 L 413.9 165.0 L 409.2 165.0 L 409.2 169.2 L 407.9 169.2 L 407.9 160.0 " fill="#000000"/>
<path class="atom-34" d="M 386.8 165.3 L 388.0 165.3 L 388.0 169.3 L 392.7 169.3 L 392.7 165.3 L 394.0 165.3 L 394.0 174.6 L 392.7 174.6 L 392.7 170.3 L 388.0 170.3 L 388.0 174.6 L 386.8 174.6 L 386.8 165.3 " fill="#000000"/>
<path class="atom-35" d="M 371.8 138.5 L 373.0 138.5 L 373.0 142.5 L 377.7 142.5 L 377.7 138.5 L 379.0 138.5 L 379.0 147.8 L 377.7 147.8 L 377.7 143.5 L 373.0 143.5 L 373.0 147.8 L 371.8 147.8 L 371.8 138.5 " fill="#000000"/>
<path class="atom-36" d="M 458.4 116.5 L 459.6 116.5 L 459.6 120.4 L 464.3 120.4 L 464.3 116.5 L 465.6 116.5 L 465.6 125.8 L 464.3 125.8 L 464.3 121.5 L 459.6 121.5 L 459.6 125.8 L 458.4 125.8 L 458.4 116.5 " fill="#000000"/>
<path class="atom-37" d="M 434.0 153.5 L 435.3 153.5 L 435.3 157.4 L 440.0 157.4 L 440.0 153.5 L 441.3 153.5 L 441.3 162.7 L 440.0 162.7 L 440.0 158.5 L 435.3 158.5 L 435.3 162.7 L 434.0 162.7 L 434.0 153.5 " fill="#000000"/>
<path class="atom-38" d="M 497.9 193.6 L 499.1 193.6 L 499.1 197.5 L 503.9 197.5 L 503.9 193.6 L 505.1 193.6 L 505.1 202.8 L 503.9 202.8 L 503.9 198.5 L 499.1 198.5 L 499.1 202.8 L 497.9 202.8 L 497.9 193.6 " fill="#000000"/>
<path class="atom-39" d="M 521.0 156.6 L 522.3 156.6 L 522.3 160.6 L 527.0 160.6 L 527.0 156.6 L 528.2 156.6 L 528.2 165.9 L 527.0 165.9 L 527.0 161.6 L 522.3 161.6 L 522.3 165.9 L 521.0 165.9 L 521.0 156.6 " fill="#000000"/>
<path class="atom-40" d="M 417.7 180.2 L 418.9 180.2 L 418.9 184.1 L 423.6 184.1 L 423.6 180.2 L 424.9 180.2 L 424.9 189.4 L 423.6 189.4 L 423.6 185.2 L 418.9 185.2 L 418.9 189.4 L 417.7 189.4 L 417.7 180.2 " fill="#000000"/>
<path class="atom-41" d="M 484.1 218.3 L 485.4 218.3 L 485.4 222.3 L 490.1 222.3 L 490.1 218.3 L 491.3 218.3 L 491.3 227.6 L 490.1 227.6 L 490.1 223.3 L 485.4 223.3 L 485.4 227.6 L 484.1 227.6 L 484.1 218.3 " fill="#000000"/>
<path class="atom-42" d="M 416.8 246.4 L 418.1 246.4 L 418.1 250.3 L 422.8 250.3 L 422.8 246.4 L 424.1 246.4 L 424.1 255.6 L 422.8 255.6 L 422.8 251.4 L 418.1 251.4 L 418.1 255.6 L 416.8 255.6 L 416.8 246.4 " fill="#000000"/>
<path class="atom-43" d="M 395.2 244.2 L 396.4 244.2 L 396.4 248.1 L 401.2 248.1 L 401.2 244.2 L 402.4 244.2 L 402.4 253.4 L 401.2 253.4 L 401.2 249.1 L 396.4 249.1 L 396.4 253.4 L 395.2 253.4 L 395.2 244.2 " fill="#000000"/>
<path class="atom-44" d="M 390.3 213.8 L 391.6 213.8 L 391.6 217.7 L 396.3 217.7 L 396.3 213.8 L 397.5 213.8 L 397.5 223.0 L 396.3 223.0 L 396.3 218.7 L 391.6 218.7 L 391.6 223.0 L 390.3 223.0 L 390.3 213.8 " fill="#000000"/>
<text x="300" y="20" font-size="20" font-family="sans-serif" font-weight="normal" letter-spacing="0" text-anchor="middle" fill="black">cdk8 16 -&gt; 19 </text><text x="150" y="285" font-size="15" font-family="sans-serif" font-weight="normal" letter-spacing="0" text-anchor="middle" fill="black">16</text><text x="450" y="285" font-size="15" font-family="sans-serif" font-weight="normal" letter-spacing="0" text-anchor="middle" fill="black">19</text></svg>
