<?xml version='1.0' encoding='ASCII' standalone='yes'?>
<svg xmlns="http://www.w3.org/2000/svg" xmlns:rdkit="http://www.rdkit.org/xml" xmlns:xlink="http://www.w3.org/1999/xlink" version="1.1" baseProfile="full" xml:space="preserve" width="600px" height="300px" viewBox="0 0 600 300">
<!-- END OF HEADER -->
<rect style="opacity:1.0;fill:#FFFFFF;stroke:none" width="600.0" height="300.0" x="0.0" y="0.0"> </rect>
<ellipse cx="227.1" cy="126.1" rx="7.5" ry="7.5" class="atom-0" style="fill:#DC3369;fill-rule:evenodd;stroke:#DC3369;stroke-width:1.0px;stroke-linecap:butt;stroke-linejoin:miter;stroke-opacity:1"/>
<ellipse cx="206.4" cy="135.3" rx="7.5" ry="7.5" class="atom-1" style="fill:#DC3369;fill-rule:evenodd;stroke:#DC3369;stroke-width:1.0px;stroke-linecap:butt;stroke-linejoin:miter;stroke-opacity:1"/>
<ellipse cx="186.8" cy="124.0" rx="7.5" ry="7.5" class="atom-2" style="fill:#DC3369;fill-rule:evenodd;stroke:#DC3369;stroke-width:1.0px;stroke-linecap:butt;stroke-linejoin:miter;stroke-opacity:1"/>
<ellipse cx="170.0" cy="139.2" rx="7.5" ry="7.5" class="atom-3" style="fill:#DC3369;fill-rule:evenodd;stroke:#DC3369;stroke-width:1.0px;stroke-linecap:butt;stroke-linejoin:miter;stroke-opacity:1"/>
<ellipse cx="179.2" cy="159.8" rx="7.5" ry="7.5" class="atom-4" style="fill:#DC3369;fill-rule:evenodd;stroke:#DC3369;stroke-width:1.0px;stroke-linecap:butt;stroke-linejoin:miter;stroke-opacity:1"/>
<ellipse cx="201.7" cy="157.4" rx="7.5" ry="7.5" class="atom-5" style="fill:#DC3369;fill-rule:evenodd;stroke:#DC3369;stroke-width:1.0px;stroke-linecap:butt;stroke-linejoin:miter;stroke-opacity:1"/>
<ellipse cx="217.9" cy="105.4" rx="7.5" ry="7.5" class="atom-28" style="fill:#DC3369;fill-rule:evenodd;stroke:#DC3369;stroke-width:1.0px;stroke-linecap:butt;stroke-linejoin:miter;stroke-opacity:1"/>
<ellipse cx="240.4" cy="107.8" rx="7.5" ry="7.5" class="atom-29" style="fill:#DC3369;fill-rule:evenodd;stroke:#DC3369;stroke-width:1.0px;stroke-linecap:butt;stroke-linejoin:miter;stroke-opacity:1"/>
<ellipse cx="245.4" cy="139.4" rx="7.5" ry="7.5" class="atom-30" style="fill:#DC3369;fill-rule:evenodd;stroke:#DC3369;stroke-width:1.0px;stroke-linecap:butt;stroke-linejoin:miter;stroke-opacity:1"/>
<path class="bond-0 atom-0 atom-1" d="M 227.1,126.1 L 206.4,135.3" style="fill:none;fill-rule:evenodd;stroke:#000000;stroke-width:2.0px;stroke-linecap:butt;stroke-linejoin:miter;stroke-opacity:1"/>
<path class="bond-1 atom-0 atom-28" d="M 227.1,126.1 L 220.4,111.0" style="fill:none;fill-rule:evenodd;stroke:#000000;stroke-width:2.0px;stroke-linecap:butt;stroke-linejoin:miter;stroke-opacity:1"/>
<path class="bond-2 atom-0 atom-29" d="M 227.1,126.1 L 236.4,113.3" style="fill:none;fill-rule:evenodd;stroke:#000000;stroke-width:2.0px;stroke-linecap:butt;stroke-linejoin:miter;stroke-opacity:1"/>
<path class="bond-3 atom-0 atom-30" d="M 227.1,126.1 L 240.9,136.1" style="fill:none;fill-rule:evenodd;stroke:#000000;stroke-width:2.0px;stroke-linecap:butt;stroke-linejoin:miter;stroke-opacity:1"/>
<path class="bond-4 atom-1 atom-2" d="M 206.4,135.3 L 198.8,130.9" style="fill:none;fill-rule:evenodd;stroke:#000000;stroke-width:2.0px;stroke-linecap:butt;stroke-linejoin:miter;stroke-opacity:1"/>
<path class="bond-4 atom-1 atom-2" d="M 198.8,130.9 L 191.2,126.5" style="fill:none;fill-rule:evenodd;stroke:#0000FF;stroke-width:2.0px;stroke-linecap:butt;stroke-linejoin:miter;stroke-opacity:1"/>
<path class="bond-4 atom-1 atom-2" d="M 202.1,137.5 L 196.8,134.4" style="fill:none;fill-rule:evenodd;stroke:#000000;stroke-width:2.0px;stroke-linecap:butt;stroke-linejoin:miter;stroke-opacity:1"/>
<path class="bond-4 atom-1 atom-2" d="M 196.8,134.4 L 191.5,131.4" style="fill:none;fill-rule:evenodd;stroke:#0000FF;stroke-width:2.0px;stroke-linecap:butt;stroke-linejoin:miter;stroke-opacity:1"/>
<path class="bond-5 atom-1 atom-5" d="M 206.4,135.3 L 204.7,143.6" style="fill:none;fill-rule:evenodd;stroke:#000000;stroke-width:2.0px;stroke-linecap:butt;stroke-linejoin:miter;stroke-opacity:1"/>
<path class="bond-5 atom-1 atom-5" d="M 204.7,143.6 L 202.9,151.9" style="fill:none;fill-rule:evenodd;stroke:#0000FF;stroke-width:2.0px;stroke-linecap:butt;stroke-linejoin:miter;stroke-opacity:1"/>
<path class="bond-6 atom-2 atom-3" d="M 182.4,127.9 L 178.8,131.2" style="fill:none;fill-rule:evenodd;stroke:#0000FF;stroke-width:2.0px;stroke-linecap:butt;stroke-linejoin:miter;stroke-opacity:1"/>
<path class="bond-6 atom-2 atom-3" d="M 178.8,131.2 L 175.2,134.5" style="fill:none;fill-rule:evenodd;stroke:#FF0000;stroke-width:2.0px;stroke-linecap:butt;stroke-linejoin:miter;stroke-opacity:1"/>
<path class="bond-7 atom-3 atom-4" d="M 172.6,144.9 L 175.9,152.3" style="fill:none;fill-rule:evenodd;stroke:#FF0000;stroke-width:2.0px;stroke-linecap:butt;stroke-linejoin:miter;stroke-opacity:1"/>
<path class="bond-7 atom-3 atom-4" d="M 175.9,152.3 L 179.2,159.8" style="fill:none;fill-rule:evenodd;stroke:#000000;stroke-width:2.0px;stroke-linecap:butt;stroke-linejoin:miter;stroke-opacity:1"/>
<path class="bond-8 atom-4 atom-5" d="M 179.2,159.8 L 188.3,158.9" style="fill:none;fill-rule:evenodd;stroke:#000000;stroke-width:2.0px;stroke-linecap:butt;stroke-linejoin:miter;stroke-opacity:1"/>
<path class="bond-8 atom-4 atom-5" d="M 188.3,158.9 L 197.3,157.9" style="fill:none;fill-rule:evenodd;stroke:#0000FF;stroke-width:2.0px;stroke-linecap:butt;stroke-linejoin:miter;stroke-opacity:1"/>
<path class="bond-8 atom-4 atom-5" d="M 181.5,155.5 L 187.9,154.8" style="fill:none;fill-rule:evenodd;stroke:#000000;stroke-width:2.0px;stroke-linecap:butt;stroke-linejoin:miter;stroke-opacity:1"/>
<path class="bond-8 atom-4 atom-5" d="M 187.9,154.8 L 194.2,154.1" style="fill:none;fill-rule:evenodd;stroke:#0000FF;stroke-width:2.0px;stroke-linecap:butt;stroke-linejoin:miter;stroke-opacity:1"/>
<path class="bond-9 atom-4 atom-6" d="M 179.2,159.8 L 167.9,179.4" style="fill:none;fill-rule:evenodd;stroke:#000000;stroke-width:2.0px;stroke-linecap:butt;stroke-linejoin:miter;stroke-opacity:1"/>
<path class="bond-10 atom-6 atom-7" d="M 167.9,179.4 L 179.2,199.0" style="fill:none;fill-rule:evenodd;stroke:#000000;stroke-width:2.0px;stroke-linecap:butt;stroke-linejoin:miter;stroke-opacity:1"/>
<path class="bond-10 atom-6 atom-7" d="M 166.1,184.4 L 174.0,198.1" style="fill:none;fill-rule:evenodd;stroke:#000000;stroke-width:2.0px;stroke-linecap:butt;stroke-linejoin:miter;stroke-opacity:1"/>
<path class="bond-11 atom-6 atom-27" d="M 167.9,179.4 L 145.3,179.4" style="fill:none;fill-rule:evenodd;stroke:#000000;stroke-width:2.0px;stroke-linecap:butt;stroke-linejoin:miter;stroke-opacity:1"/>
<path class="bond-12 atom-7 atom-8" d="M 179.2,199.0 L 167.9,218.6" style="fill:none;fill-rule:evenodd;stroke:#000000;stroke-width:2.0px;stroke-linecap:butt;stroke-linejoin:miter;stroke-opacity:1"/>
<path class="bond-13 atom-7 atom-31" d="M 179.2,199.0 L 197.4,199.0" style="fill:none;fill-rule:evenodd;stroke:#000000;stroke-width:2.0px;stroke-linecap:butt;stroke-linejoin:miter;stroke-opacity:1"/>
<path class="bond-14 atom-8 atom-9" d="M 167.9,218.6 L 145.3,218.6" style="fill:none;fill-rule:evenodd;stroke:#000000;stroke-width:2.0px;stroke-linecap:butt;stroke-linejoin:miter;stroke-opacity:1"/>
<path class="bond-14 atom-8 atom-9" d="M 164.5,214.6 L 148.7,214.6" style="fill:none;fill-rule:evenodd;stroke:#000000;stroke-width:2.0px;stroke-linecap:butt;stroke-linejoin:miter;stroke-opacity:1"/>
<path class="bond-15 atom-8 atom-32" d="M 167.9,218.6 L 176.0,232.7" style="fill:none;fill-rule:evenodd;stroke:#000000;stroke-width:2.0px;stroke-linecap:butt;stroke-linejoin:miter;stroke-opacity:1"/>
<path class="bond-16 atom-9 atom-10" d="M 145.3,218.6 L 133.9,199.0" style="fill:none;fill-rule:evenodd;stroke:#000000;stroke-width:2.0px;stroke-linecap:butt;stroke-linejoin:miter;stroke-opacity:1"/>
<path class="bond-17 atom-9 atom-33" d="M 145.3,218.6 L 137.1,232.7" style="fill:none;fill-rule:evenodd;stroke:#000000;stroke-width:2.0px;stroke-linecap:butt;stroke-linejoin:miter;stroke-opacity:1"/>
<path class="bond-18 atom-10 atom-11" d="M 133.9,199.0 L 111.3,199.0" style="fill:none;fill-rule:evenodd;stroke:#000000;stroke-width:2.0px;stroke-linecap:butt;stroke-linejoin:miter;stroke-opacity:1"/>
<path class="bond-19 atom-10 atom-27" d="M 133.9,199.0 L 145.3,179.4" style="fill:none;fill-rule:evenodd;stroke:#000000;stroke-width:2.0px;stroke-linecap:butt;stroke-linejoin:miter;stroke-opacity:1"/>
<path class="bond-19 atom-10 atom-27" d="M 139.2,198.1 L 147.1,184.4" style="fill:none;fill-rule:evenodd;stroke:#000000;stroke-width:2.0px;stroke-linecap:butt;stroke-linejoin:miter;stroke-opacity:1"/>
<path class="bond-20 atom-11 atom-12" d="M 111.3,199.0 L 107.2,192.0" style="fill:none;fill-rule:evenodd;stroke:#000000;stroke-width:2.0px;stroke-linecap:butt;stroke-linejoin:miter;stroke-opacity:1"/>
<path class="bond-20 atom-11 atom-12" d="M 107.2,192.0 L 103.2,185.0" style="fill:none;fill-rule:evenodd;stroke:#0000FF;stroke-width:2.0px;stroke-linecap:butt;stroke-linejoin:miter;stroke-opacity:1"/>
<path class="bond-21 atom-11 atom-34" d="M 111.3,199.0 L 111.3,216.1" style="fill:none;fill-rule:evenodd;stroke:#000000;stroke-width:2.0px;stroke-linecap:butt;stroke-linejoin:miter;stroke-opacity:1"/>
<path class="bond-22 atom-11 atom-35" d="M 111.3,199.0 L 96.2,207.7" style="fill:none;fill-rule:evenodd;stroke:#000000;stroke-width:2.0px;stroke-linecap:butt;stroke-linejoin:miter;stroke-opacity:1"/>
<path class="bond-23 atom-12 atom-13" d="M 103.2,173.9 L 108.1,165.4" style="fill:none;fill-rule:evenodd;stroke:#0000FF;stroke-width:2.0px;stroke-linecap:butt;stroke-linejoin:miter;stroke-opacity:1"/>
<path class="bond-24 atom-12 atom-17" d="M 95.6,179.4 L 86.5,179.4" style="fill:none;fill-rule:evenodd;stroke:#0000FF;stroke-width:2.0px;stroke-linecap:butt;stroke-linejoin:miter;stroke-opacity:1"/>
<path class="bond-24 atom-12 atom-17" d="M 86.5,179.4 L 77.3,179.4" style="fill:none;fill-rule:evenodd;stroke:#000000;stroke-width:2.0px;stroke-linecap:butt;stroke-linejoin:miter;stroke-opacity:1"/>
<path class="bond-25 atom-13 atom-14" d="M 108.1,154.2 L 104.0,147.2" style="fill:none;fill-rule:evenodd;stroke:#0000FF;stroke-width:2.0px;stroke-linecap:butt;stroke-linejoin:miter;stroke-opacity:1"/>
<path class="bond-25 atom-13 atom-14" d="M 104.0,147.2 L 100.0,140.2" style="fill:none;fill-rule:evenodd;stroke:#000000;stroke-width:2.0px;stroke-linecap:butt;stroke-linejoin:miter;stroke-opacity:1"/>
<path class="bond-25 atom-13 atom-14" d="M 103.3,154.2 L 100.5,149.3" style="fill:none;fill-rule:evenodd;stroke:#0000FF;stroke-width:2.0px;stroke-linecap:butt;stroke-linejoin:miter;stroke-opacity:1"/>
<path class="bond-25 atom-13 atom-14" d="M 100.5,149.3 L 97.7,144.3" style="fill:none;fill-rule:evenodd;stroke:#000000;stroke-width:2.0px;stroke-linecap:butt;stroke-linejoin:miter;stroke-opacity:1"/>
<path class="bond-26 atom-14 atom-15" d="M 100.0,140.2 L 77.3,140.2" style="fill:none;fill-rule:evenodd;stroke:#000000;stroke-width:2.0px;stroke-linecap:butt;stroke-linejoin:miter;stroke-opacity:1"/>
<path class="bond-27 atom-14 atom-19" d="M 100.0,140.2 L 111.3,120.6" style="fill:none;fill-rule:evenodd;stroke:#000000;stroke-width:2.0px;stroke-linecap:butt;stroke-linejoin:miter;stroke-opacity:1"/>
<path class="bond-28 atom-15 atom-16" d="M 77.3,140.2 L 66.0,159.8" style="fill:none;fill-rule:evenodd;stroke:#000000;stroke-width:2.0px;stroke-linecap:butt;stroke-linejoin:miter;stroke-opacity:1"/>
<path class="bond-28 atom-15 atom-16" d="M 79.2,145.2 L 71.2,158.9" style="fill:none;fill-rule:evenodd;stroke:#000000;stroke-width:2.0px;stroke-linecap:butt;stroke-linejoin:miter;stroke-opacity:1"/>
<path class="bond-29 atom-15 atom-36" d="M 77.3,140.2 L 69.2,126.1" style="fill:none;fill-rule:evenodd;stroke:#000000;stroke-width:2.0px;stroke-linecap:butt;stroke-linejoin:miter;stroke-opacity:1"/>
<path class="bond-30 atom-16 atom-17" d="M 66.0,159.8 L 77.3,179.4" style="fill:none;fill-rule:evenodd;stroke:#000000;stroke-width:2.0px;stroke-linecap:butt;stroke-linejoin:miter;stroke-opacity:1"/>
<path class="bond-31 atom-16 atom-37" d="M 66.0,159.8 L 47.9,159.8" style="fill:none;fill-rule:evenodd;stroke:#000000;stroke-width:2.0px;stroke-linecap:butt;stroke-linejoin:miter;stroke-opacity:1"/>
<path class="bond-32 atom-17 atom-18" d="M 79.1,180.4 L 75.1,187.4" style="fill:none;fill-rule:evenodd;stroke:#000000;stroke-width:2.0px;stroke-linecap:butt;stroke-linejoin:miter;stroke-opacity:1"/>
<path class="bond-32 atom-17 atom-18" d="M 75.1,187.4 L 71.0,194.4" style="fill:none;fill-rule:evenodd;stroke:#FF0000;stroke-width:2.0px;stroke-linecap:butt;stroke-linejoin:miter;stroke-opacity:1"/>
<path class="bond-32 atom-17 atom-18" d="M 75.6,178.4 L 71.5,185.4" style="fill:none;fill-rule:evenodd;stroke:#000000;stroke-width:2.0px;stroke-linecap:butt;stroke-linejoin:miter;stroke-opacity:1"/>
<path class="bond-32 atom-17 atom-18" d="M 71.5,185.4 L 67.5,192.4" style="fill:none;fill-rule:evenodd;stroke:#FF0000;stroke-width:2.0px;stroke-linecap:butt;stroke-linejoin:miter;stroke-opacity:1"/>
<path class="bond-33 atom-19 atom-20" d="M 111.3,120.6 L 133.9,120.6" style="fill:none;fill-rule:evenodd;stroke:#000000;stroke-width:2.0px;stroke-linecap:butt;stroke-linejoin:miter;stroke-opacity:1"/>
<path class="bond-33 atom-19 atom-20" d="M 114.7,116.5 L 130.5,116.5" style="fill:none;fill-rule:evenodd;stroke:#000000;stroke-width:2.0px;stroke-linecap:butt;stroke-linejoin:miter;stroke-opacity:1"/>
<path class="bond-34 atom-19 atom-26" d="M 111.3,120.6 L 100.0,101.0" style="fill:none;fill-rule:evenodd;stroke:#000000;stroke-width:2.0px;stroke-linecap:butt;stroke-linejoin:miter;stroke-opacity:1"/>
<path class="bond-35 atom-20 atom-21" d="M 133.9,120.6 L 145.3,101.0" style="fill:none;fill-rule:evenodd;stroke:#000000;stroke-width:2.0px;stroke-linecap:butt;stroke-linejoin:miter;stroke-opacity:1"/>
<path class="bond-36 atom-20 atom-38" d="M 133.9,120.6 L 142.1,134.6" style="fill:none;fill-rule:evenodd;stroke:#000000;stroke-width:2.0px;stroke-linecap:butt;stroke-linejoin:miter;stroke-opacity:1"/>
<path class="bond-37 atom-21 atom-22" d="M 145.3,101.0 L 154.8,101.0" style="fill:none;fill-rule:evenodd;stroke:#000000;stroke-width:2.0px;stroke-linecap:butt;stroke-linejoin:miter;stroke-opacity:1"/>
<path class="bond-37 atom-21 atom-22" d="M 154.8,101.0 L 164.3,101.0" style="fill:none;fill-rule:evenodd;stroke:#33CCCC;stroke-width:2.0px;stroke-linecap:butt;stroke-linejoin:miter;stroke-opacity:1"/>
<path class="bond-38 atom-21 atom-23" d="M 145.3,101.0 L 133.9,81.4" style="fill:none;fill-rule:evenodd;stroke:#000000;stroke-width:2.0px;stroke-linecap:butt;stroke-linejoin:miter;stroke-opacity:1"/>
<path class="bond-38 atom-21 atom-23" d="M 140.0,100.1 L 132.1,86.4" style="fill:none;fill-rule:evenodd;stroke:#000000;stroke-width:2.0px;stroke-linecap:butt;stroke-linejoin:miter;stroke-opacity:1"/>
<path class="bond-39 atom-23 atom-24" d="M 133.9,81.4 L 111.3,81.4" style="fill:none;fill-rule:evenodd;stroke:#000000;stroke-width:2.0px;stroke-linecap:butt;stroke-linejoin:miter;stroke-opacity:1"/>
<path class="bond-40 atom-23 atom-39" d="M 133.9,81.4 L 142.1,67.3" style="fill:none;fill-rule:evenodd;stroke:#000000;stroke-width:2.0px;stroke-linecap:butt;stroke-linejoin:miter;stroke-opacity:1"/>
<path class="bond-41 atom-24 atom-25" d="M 111.3,81.4 L 107.2,74.3" style="fill:none;fill-rule:evenodd;stroke:#000000;stroke-width:2.0px;stroke-linecap:butt;stroke-linejoin:miter;stroke-opacity:1"/>
<path class="bond-41 atom-24 atom-25" d="M 107.2,74.3 L 103.2,67.3" style="fill:none;fill-rule:evenodd;stroke:#33CCCC;stroke-width:2.0px;stroke-linecap:butt;stroke-linejoin:miter;stroke-opacity:1"/>
<path class="bond-42 atom-24 atom-26" d="M 111.3,81.4 L 100.0,101.0" style="fill:none;fill-rule:evenodd;stroke:#000000;stroke-width:2.0px;stroke-linecap:butt;stroke-linejoin:miter;stroke-opacity:1"/>
<path class="bond-42 atom-24 atom-26" d="M 113.1,86.4 L 105.2,100.1" style="fill:none;fill-rule:evenodd;stroke:#000000;stroke-width:2.0px;stroke-linecap:butt;stroke-linejoin:miter;stroke-opacity:1"/>
<path class="bond-43 atom-26 atom-40" d="M 100.0,101.0 L 81.8,101.0" style="fill:none;fill-rule:evenodd;stroke:#000000;stroke-width:2.0px;stroke-linecap:butt;stroke-linejoin:miter;stroke-opacity:1"/>
<path class="bond-44 atom-27 atom-41" d="M 145.3,179.4 L 137.1,165.4" style="fill:none;fill-rule:evenodd;stroke:#000000;stroke-width:2.0px;stroke-linecap:butt;stroke-linejoin:miter;stroke-opacity:1"/>
<path class="atom-2" d="M 184.7 119.2 L 187.9 124.3 Q 188.2 124.8, 188.7 125.7 Q 189.2 126.6, 189.2 126.6 L 189.2 119.2 L 190.5 119.2 L 190.5 128.8 L 189.2 128.8 L 185.8 123.2 Q 185.4 122.6, 185.0 121.8 Q 184.6 121.1, 184.4 120.8 L 184.4 128.8 L 183.2 128.8 L 183.2 119.2 L 184.7 119.2 " fill="#0000FF"/>
<path class="atom-3" d="M 165.6 139.1 Q 165.6 136.8, 166.7 135.5 Q 167.9 134.3, 170.0 134.3 Q 172.1 134.3, 173.3 135.5 Q 174.4 136.8, 174.4 139.1 Q 174.4 141.5, 173.3 142.8 Q 172.1 144.1, 170.0 144.1 Q 167.9 144.1, 166.7 142.8 Q 165.6 141.5, 165.6 139.1 M 170.0 143.0 Q 171.5 143.0, 172.3 142.1 Q 173.1 141.1, 173.1 139.1 Q 173.1 137.3, 172.3 136.3 Q 171.5 135.3, 170.0 135.3 Q 168.5 135.3, 167.7 136.3 Q 167.0 137.2, 167.0 139.1 Q 167.0 141.1, 167.7 142.1 Q 168.5 143.0, 170.0 143.0 " fill="#FF0000"/>
<path class="atom-5" d="M 199.6 152.6 L 202.8 157.7 Q 203.1 158.2, 203.6 159.1 Q 204.1 160.0, 204.1 160.1 L 204.1 152.6 L 205.4 152.6 L 205.4 162.2 L 204.1 162.2 L 200.7 156.7 Q 200.3 156.0, 199.9 155.3 Q 199.5 154.5, 199.3 154.3 L 199.3 162.2 L 198.1 162.2 L 198.1 152.6 L 199.6 152.6 " fill="#0000FF"/>
<path class="atom-12" d="M 97.8 174.6 L 101.0 179.7 Q 101.3 180.2, 101.8 181.1 Q 102.3 182.0, 102.3 182.1 L 102.3 174.6 L 103.6 174.6 L 103.6 184.2 L 102.3 184.2 L 98.9 178.7 Q 98.5 178.0, 98.1 177.3 Q 97.7 176.5, 97.6 176.3 L 97.6 184.2 L 96.3 184.2 L 96.3 174.6 L 97.8 174.6 " fill="#0000FF"/>
<path class="atom-13" d="M 109.2 155.0 L 112.3 160.1 Q 112.6 160.6, 113.1 161.5 Q 113.6 162.4, 113.7 162.5 L 113.7 155.0 L 114.9 155.0 L 114.9 164.6 L 113.6 164.6 L 110.2 159.0 Q 109.8 158.4, 109.4 157.6 Q 109.0 156.9, 108.9 156.7 L 108.9 164.6 L 107.6 164.6 L 107.6 155.0 L 109.2 155.0 " fill="#0000FF"/>
<path class="atom-18" d="M 61.6 199.0 Q 61.6 196.7, 62.7 195.4 Q 63.9 194.2, 66.0 194.2 Q 68.1 194.2, 69.3 195.4 Q 70.4 196.7, 70.4 199.0 Q 70.4 201.4, 69.3 202.7 Q 68.1 204.0, 66.0 204.0 Q 63.9 204.0, 62.7 202.7 Q 61.6 201.4, 61.6 199.0 M 66.0 202.9 Q 67.5 202.9, 68.3 202.0 Q 69.1 201.0, 69.1 199.0 Q 69.1 197.2, 68.3 196.2 Q 67.5 195.2, 66.0 195.2 Q 64.5 195.2, 63.7 196.2 Q 63.0 197.1, 63.0 199.0 Q 63.0 201.0, 63.7 202.0 Q 64.5 202.9, 66.0 202.9 " fill="#FF0000"/>
<path class="atom-22" d="M 165.0 96.2 L 170.8 96.2 L 170.8 97.3 L 166.3 97.3 L 166.3 100.2 L 170.3 100.2 L 170.3 101.3 L 166.3 101.3 L 166.3 105.8 L 165.0 105.8 L 165.0 96.2 " fill="#33CCCC"/>
<path class="atom-25" d="M 97.1 57.0 L 102.8 57.0 L 102.8 58.1 L 98.4 58.1 L 98.4 61.0 L 102.3 61.0 L 102.3 62.1 L 98.4 62.1 L 98.4 66.6 L 97.1 66.6 L 97.1 57.0 " fill="#33CCCC"/>
<path class="atom-28" d="M 214.2 100.6 L 215.5 100.6 L 215.5 104.7 L 220.4 104.7 L 220.4 100.6 L 221.7 100.6 L 221.7 110.2 L 220.4 110.2 L 220.4 105.8 L 215.5 105.8 L 215.5 110.2 L 214.2 110.2 L 214.2 100.6 " fill="#000000"/>
<path class="atom-29" d="M 236.7 103.0 L 238.0 103.0 L 238.0 107.0 L 242.9 107.0 L 242.9 103.0 L 244.2 103.0 L 244.2 112.6 L 242.9 112.6 L 242.9 108.1 L 238.0 108.1 L 238.0 112.6 L 236.7 112.6 L 236.7 103.0 " fill="#000000"/>
<path class="atom-30" d="M 241.7 134.6 L 243.0 134.6 L 243.0 138.7 L 247.9 138.7 L 247.9 134.6 L 249.2 134.6 L 249.2 144.2 L 247.9 144.2 L 247.9 139.8 L 243.0 139.8 L 243.0 144.2 L 241.7 144.2 L 241.7 134.6 " fill="#000000"/>
<path class="atom-31" d="M 198.1 194.2 L 199.4 194.2 L 199.4 198.3 L 204.3 198.3 L 204.3 194.2 L 205.6 194.2 L 205.6 203.8 L 204.3 203.8 L 204.3 199.4 L 199.4 199.4 L 199.4 203.8 L 198.1 203.8 L 198.1 194.2 " fill="#000000"/>
<path class="atom-32" d="M 175.5 233.4 L 176.8 233.4 L 176.8 237.5 L 181.7 237.5 L 181.7 233.4 L 183.0 233.4 L 183.0 243.0 L 181.7 243.0 L 181.7 238.6 L 176.8 238.6 L 176.8 243.0 L 175.5 243.0 L 175.5 233.4 " fill="#000000"/>
<path class="atom-33" d="M 130.2 233.4 L 131.5 233.4 L 131.5 237.5 L 136.4 237.5 L 136.4 233.4 L 137.7 233.4 L 137.7 243.0 L 136.4 243.0 L 136.4 238.6 L 131.5 238.6 L 131.5 243.0 L 130.2 243.0 L 130.2 233.4 " fill="#000000"/>
<path class="atom-34" d="M 107.5 216.9 L 108.8 216.9 L 108.8 220.9 L 113.8 220.9 L 113.8 216.9 L 115.1 216.9 L 115.1 226.5 L 113.8 226.5 L 113.8 222.0 L 108.8 222.0 L 108.8 226.5 L 107.5 226.5 L 107.5 216.9 " fill="#000000"/>
<path class="atom-35" d="M 87.9 205.5 L 89.2 205.5 L 89.2 209.6 L 94.1 209.6 L 94.1 205.5 L 95.5 205.5 L 95.5 215.1 L 94.1 215.1 L 94.1 210.7 L 89.2 210.7 L 89.2 215.1 L 87.9 215.1 L 87.9 205.5 " fill="#000000"/>
<path class="atom-36" d="M 62.2 115.8 L 63.6 115.8 L 63.6 119.9 L 68.5 119.9 L 68.5 115.8 L 69.8 115.8 L 69.8 125.4 L 68.5 125.4 L 68.5 121.0 L 63.6 121.0 L 63.6 125.4 L 62.2 125.4 L 62.2 115.8 " fill="#000000"/>
<path class="atom-37" d="M 39.6 155.0 L 40.9 155.0 L 40.9 159.1 L 45.8 159.1 L 45.8 155.0 L 47.1 155.0 L 47.1 164.6 L 45.8 164.6 L 45.8 160.2 L 40.9 160.2 L 40.9 164.6 L 39.6 164.6 L 39.6 155.0 " fill="#000000"/>
<path class="atom-38" d="M 141.5 135.4 L 142.8 135.4 L 142.8 139.5 L 147.7 139.5 L 147.7 135.4 L 149.0 135.4 L 149.0 145.0 L 147.7 145.0 L 147.7 140.6 L 142.8 140.6 L 142.8 145.0 L 141.5 145.0 L 141.5 135.4 " fill="#000000"/>
<path class="atom-39" d="M 141.5 57.0 L 142.8 57.0 L 142.8 61.0 L 147.7 61.0 L 147.7 57.0 L 149.0 57.0 L 149.0 66.6 L 147.7 66.6 L 147.7 62.1 L 142.8 62.1 L 142.8 66.6 L 141.5 66.6 L 141.5 57.0 " fill="#000000"/>
<path class="atom-40" d="M 73.6 96.2 L 74.9 96.2 L 74.9 100.3 L 79.8 100.3 L 79.8 96.2 L 81.1 96.2 L 81.1 105.8 L 79.8 105.8 L 79.8 101.3 L 74.9 101.3 L 74.9 105.8 L 73.6 105.8 L 73.6 96.2 " fill="#000000"/>
<path class="atom-41" d="M 130.2 155.0 L 131.5 155.0 L 131.5 159.1 L 136.4 159.1 L 136.4 155.0 L 137.7 155.0 L 137.7 164.6 L 136.4 164.6 L 136.4 160.2 L 131.5 160.2 L 131.5 164.6 L 130.2 164.6 L 130.2 155.0 " fill="#000000"/>
<ellipse cx="530.8" cy="140.2" rx="7.5" ry="7.5" class="atom-0" style="fill:#DC3369;fill-rule:evenodd;stroke:#DC3369;stroke-width:1.0px;stroke-linecap:butt;stroke-linejoin:miter;stroke-opacity:1"/>
<ellipse cx="508.2" cy="140.3" rx="7.5" ry="7.5" class="atom-1" style="fill:#DC3369;fill-rule:evenodd;stroke:#DC3369;stroke-width:1.0px;stroke-linecap:butt;stroke-linejoin:miter;stroke-opacity:1"/>
<ellipse cx="496.9" cy="159.8" rx="7.5" ry="7.5" class="atom-2" style="fill:#DC3369;fill-rule:evenodd;stroke:#DC3369;stroke-width:1.0px;stroke-linecap:butt;stroke-linejoin:miter;stroke-opacity:1"/>
<ellipse cx="508.2" cy="179.5" rx="7.5" ry="7.5" class="atom-3" style="fill:#DC3369;fill-rule:evenodd;stroke:#DC3369;stroke-width:1.0px;stroke-linecap:butt;stroke-linejoin:miter;stroke-opacity:1"/>
<ellipse cx="474.2" cy="159.8" rx="7.5" ry="7.5" class="atom-4" style="fill:#DC3369;fill-rule:evenodd;stroke:#DC3369;stroke-width:1.0px;stroke-linecap:butt;stroke-linejoin:miter;stroke-opacity:1"/>
<ellipse cx="530.8" cy="162.8" rx="7.5" ry="7.5" class="atom-27" style="fill:#DC3369;fill-rule:evenodd;stroke:#DC3369;stroke-width:1.0px;stroke-linecap:butt;stroke-linejoin:miter;stroke-opacity:1"/>
<ellipse cx="550.4" cy="151.5" rx="7.5" ry="7.5" class="atom-28" style="fill:#DC3369;fill-rule:evenodd;stroke:#DC3369;stroke-width:1.0px;stroke-linecap:butt;stroke-linejoin:miter;stroke-opacity:1"/>
<ellipse cx="542.2" cy="120.6" rx="7.5" ry="7.5" class="atom-29" style="fill:#DC3369;fill-rule:evenodd;stroke:#DC3369;stroke-width:1.0px;stroke-linecap:butt;stroke-linejoin:miter;stroke-opacity:1"/>
<ellipse cx="462.9" cy="140.2" rx="7.5" ry="7.5" class="atom-30" style="fill:#DC3369;fill-rule:evenodd;stroke:#DC3369;stroke-width:1.0px;stroke-linecap:butt;stroke-linejoin:miter;stroke-opacity:1"/>
<path class="bond-0 atom-0 atom-1" d="M 530.8,140.2 L 522.1,140.2" style="fill:none;fill-rule:evenodd;stroke:#000000;stroke-width:2.0px;stroke-linecap:butt;stroke-linejoin:miter;stroke-opacity:1"/>
<path class="bond-0 atom-0 atom-1" d="M 522.1,140.2 L 513.4,140.2" style="fill:none;fill-rule:evenodd;stroke:#FF0000;stroke-width:2.0px;stroke-linecap:butt;stroke-linejoin:miter;stroke-opacity:1"/>
<path class="bond-1 atom-0 atom-27" d="M 530.8,140.2 L 530.8,157.3" style="fill:none;fill-rule:evenodd;stroke:#000000;stroke-width:2.0px;stroke-linecap:butt;stroke-linejoin:miter;stroke-opacity:1"/>
<path class="bond-2 atom-0 atom-28" d="M 530.8,140.2 L 545.9,148.9" style="fill:none;fill-rule:evenodd;stroke:#000000;stroke-width:2.0px;stroke-linecap:butt;stroke-linejoin:miter;stroke-opacity:1"/>
<path class="bond-3 atom-0 atom-29" d="M 530.8,140.2 L 538.9,126.1" style="fill:none;fill-rule:evenodd;stroke:#000000;stroke-width:2.0px;stroke-linecap:butt;stroke-linejoin:miter;stroke-opacity:1"/>
<path class="bond-4 atom-1 atom-2" d="M 504.9,146.0 L 500.9,152.9" style="fill:none;fill-rule:evenodd;stroke:#FF0000;stroke-width:2.0px;stroke-linecap:butt;stroke-linejoin:miter;stroke-opacity:1"/>
<path class="bond-4 atom-1 atom-2" d="M 500.9,152.9 L 496.9,159.8" style="fill:none;fill-rule:evenodd;stroke:#000000;stroke-width:2.0px;stroke-linecap:butt;stroke-linejoin:miter;stroke-opacity:1"/>
<path class="bond-5 atom-2 atom-3" d="M 498.6,158.8 L 502.7,165.8" style="fill:none;fill-rule:evenodd;stroke:#000000;stroke-width:2.0px;stroke-linecap:butt;stroke-linejoin:miter;stroke-opacity:1"/>
<path class="bond-5 atom-2 atom-3" d="M 502.7,165.8 L 506.7,172.8" style="fill:none;fill-rule:evenodd;stroke:#FF0000;stroke-width:2.0px;stroke-linecap:butt;stroke-linejoin:miter;stroke-opacity:1"/>
<path class="bond-5 atom-2 atom-3" d="M 495.1,160.8 L 499.1,167.8" style="fill:none;fill-rule:evenodd;stroke:#000000;stroke-width:2.0px;stroke-linecap:butt;stroke-linejoin:miter;stroke-opacity:1"/>
<path class="bond-5 atom-2 atom-3" d="M 499.1,167.8 L 503.2,174.8" style="fill:none;fill-rule:evenodd;stroke:#FF0000;stroke-width:2.0px;stroke-linecap:butt;stroke-linejoin:miter;stroke-opacity:1"/>
<path class="bond-6 atom-2 atom-4" d="M 496.9,159.8 L 487.7,159.8" style="fill:none;fill-rule:evenodd;stroke:#000000;stroke-width:2.0px;stroke-linecap:butt;stroke-linejoin:miter;stroke-opacity:1"/>
<path class="bond-6 atom-2 atom-4" d="M 487.7,159.8 L 478.6,159.8" style="fill:none;fill-rule:evenodd;stroke:#0000FF;stroke-width:2.0px;stroke-linecap:butt;stroke-linejoin:miter;stroke-opacity:1"/>
<path class="bond-7 atom-4 atom-5" d="M 471.0,165.4 L 467.0,172.4" style="fill:none;fill-rule:evenodd;stroke:#0000FF;stroke-width:2.0px;stroke-linecap:butt;stroke-linejoin:miter;stroke-opacity:1"/>
<path class="bond-7 atom-4 atom-5" d="M 467.0,172.4 L 462.9,179.4" style="fill:none;fill-rule:evenodd;stroke:#000000;stroke-width:2.0px;stroke-linecap:butt;stroke-linejoin:miter;stroke-opacity:1"/>
<path class="bond-8 atom-4 atom-30" d="M 471.0,154.2 L 468.6,150.0" style="fill:none;fill-rule:evenodd;stroke:#0000FF;stroke-width:2.0px;stroke-linecap:butt;stroke-linejoin:miter;stroke-opacity:1"/>
<path class="bond-8 atom-4 atom-30" d="M 468.6,150.0 L 466.1,145.8" style="fill:none;fill-rule:evenodd;stroke:#000000;stroke-width:2.0px;stroke-linecap:butt;stroke-linejoin:miter;stroke-opacity:1"/>
<path class="bond-9 atom-5 atom-6" d="M 462.9,179.4 L 474.2,199.0" style="fill:none;fill-rule:evenodd;stroke:#000000;stroke-width:2.0px;stroke-linecap:butt;stroke-linejoin:miter;stroke-opacity:1"/>
<path class="bond-9 atom-5 atom-6" d="M 461.1,184.4 L 469.0,198.1" style="fill:none;fill-rule:evenodd;stroke:#000000;stroke-width:2.0px;stroke-linecap:butt;stroke-linejoin:miter;stroke-opacity:1"/>
<path class="bond-10 atom-5 atom-26" d="M 462.9,179.4 L 440.3,179.4" style="fill:none;fill-rule:evenodd;stroke:#000000;stroke-width:2.0px;stroke-linecap:butt;stroke-linejoin:miter;stroke-opacity:1"/>
<path class="bond-11 atom-6 atom-7" d="M 474.2,199.0 L 462.9,218.6" style="fill:none;fill-rule:evenodd;stroke:#000000;stroke-width:2.0px;stroke-linecap:butt;stroke-linejoin:miter;stroke-opacity:1"/>
<path class="bond-12 atom-6 atom-31" d="M 474.2,199.0 L 492.4,199.0" style="fill:none;fill-rule:evenodd;stroke:#000000;stroke-width:2.0px;stroke-linecap:butt;stroke-linejoin:miter;stroke-opacity:1"/>
<path class="bond-13 atom-7 atom-8" d="M 462.9,218.6 L 440.3,218.6" style="fill:none;fill-rule:evenodd;stroke:#000000;stroke-width:2.0px;stroke-linecap:butt;stroke-linejoin:miter;stroke-opacity:1"/>
<path class="bond-13 atom-7 atom-8" d="M 459.5,214.6 L 443.7,214.6" style="fill:none;fill-rule:evenodd;stroke:#000000;stroke-width:2.0px;stroke-linecap:butt;stroke-linejoin:miter;stroke-opacity:1"/>
<path class="bond-14 atom-7 atom-32" d="M 462.9,218.6 L 471.0,232.7" style="fill:none;fill-rule:evenodd;stroke:#000000;stroke-width:2.0px;stroke-linecap:butt;stroke-linejoin:miter;stroke-opacity:1"/>
<path class="bond-15 atom-8 atom-9" d="M 440.3,218.6 L 428.9,199.0" style="fill:none;fill-rule:evenodd;stroke:#000000;stroke-width:2.0px;stroke-linecap:butt;stroke-linejoin:miter;stroke-opacity:1"/>
<path class="bond-16 atom-8 atom-33" d="M 440.3,218.6 L 432.2,232.7" style="fill:none;fill-rule:evenodd;stroke:#000000;stroke-width:2.0px;stroke-linecap:butt;stroke-linejoin:miter;stroke-opacity:1"/>
<path class="bond-17 atom-9 atom-10" d="M 428.9,199.0 L 406.3,199.0" style="fill:none;fill-rule:evenodd;stroke:#000000;stroke-width:2.0px;stroke-linecap:butt;stroke-linejoin:miter;stroke-opacity:1"/>
<path class="bond-18 atom-9 atom-26" d="M 428.9,199.0 L 440.3,179.4" style="fill:none;fill-rule:evenodd;stroke:#000000;stroke-width:2.0px;stroke-linecap:butt;stroke-linejoin:miter;stroke-opacity:1"/>
<path class="bond-18 atom-9 atom-26" d="M 434.2,198.1 L 442.1,184.4" style="fill:none;fill-rule:evenodd;stroke:#000000;stroke-width:2.0px;stroke-linecap:butt;stroke-linejoin:miter;stroke-opacity:1"/>
<path class="bond-19 atom-10 atom-11" d="M 406.3,199.0 L 402.2,192.0" style="fill:none;fill-rule:evenodd;stroke:#000000;stroke-width:2.0px;stroke-linecap:butt;stroke-linejoin:miter;stroke-opacity:1"/>
<path class="bond-19 atom-10 atom-11" d="M 402.2,192.0 L 398.2,185.0" style="fill:none;fill-rule:evenodd;stroke:#0000FF;stroke-width:2.0px;stroke-linecap:butt;stroke-linejoin:miter;stroke-opacity:1"/>
<path class="bond-20 atom-10 atom-34" d="M 406.3,199.0 L 406.3,216.1" style="fill:none;fill-rule:evenodd;stroke:#000000;stroke-width:2.0px;stroke-linecap:butt;stroke-linejoin:miter;stroke-opacity:1"/>
<path class="bond-21 atom-10 atom-35" d="M 406.3,199.0 L 391.2,207.7" style="fill:none;fill-rule:evenodd;stroke:#000000;stroke-width:2.0px;stroke-linecap:butt;stroke-linejoin:miter;stroke-opacity:1"/>
<path class="bond-22 atom-11 atom-12" d="M 398.2,173.9 L 403.1,165.4" style="fill:none;fill-rule:evenodd;stroke:#0000FF;stroke-width:2.0px;stroke-linecap:butt;stroke-linejoin:miter;stroke-opacity:1"/>
<path class="bond-23 atom-11 atom-16" d="M 390.6,179.4 L 381.5,179.4" style="fill:none;fill-rule:evenodd;stroke:#0000FF;stroke-width:2.0px;stroke-linecap:butt;stroke-linejoin:miter;stroke-opacity:1"/>
<path class="bond-23 atom-11 atom-16" d="M 381.5,179.4 L 372.3,179.4" style="fill:none;fill-rule:evenodd;stroke:#000000;stroke-width:2.0px;stroke-linecap:butt;stroke-linejoin:miter;stroke-opacity:1"/>
<path class="bond-24 atom-12 atom-13" d="M 403.1,154.2 L 399.0,147.2" style="fill:none;fill-rule:evenodd;stroke:#0000FF;stroke-width:2.0px;stroke-linecap:butt;stroke-linejoin:miter;stroke-opacity:1"/>
<path class="bond-24 atom-12 atom-13" d="M 399.0,147.2 L 395.0,140.2" style="fill:none;fill-rule:evenodd;stroke:#000000;stroke-width:2.0px;stroke-linecap:butt;stroke-linejoin:miter;stroke-opacity:1"/>
<path class="bond-24 atom-12 atom-13" d="M 398.3,154.2 L 395.5,149.3" style="fill:none;fill-rule:evenodd;stroke:#0000FF;stroke-width:2.0px;stroke-linecap:butt;stroke-linejoin:miter;stroke-opacity:1"/>
<path class="bond-24 atom-12 atom-13" d="M 395.5,149.3 L 392.7,144.3" style="fill:none;fill-rule:evenodd;stroke:#000000;stroke-width:2.0px;stroke-linecap:butt;stroke-linejoin:miter;stroke-opacity:1"/>
<path class="bond-25 atom-13 atom-14" d="M 395.0,140.2 L 372.3,140.2" style="fill:none;fill-rule:evenodd;stroke:#000000;stroke-width:2.0px;stroke-linecap:butt;stroke-linejoin:miter;stroke-opacity:1"/>
<path class="bond-26 atom-13 atom-18" d="M 395.0,140.2 L 406.3,120.6" style="fill:none;fill-rule:evenodd;stroke:#000000;stroke-width:2.0px;stroke-linecap:butt;stroke-linejoin:miter;stroke-opacity:1"/>
<path class="bond-27 atom-14 atom-15" d="M 372.3,140.2 L 361.0,159.8" style="fill:none;fill-rule:evenodd;stroke:#000000;stroke-width:2.0px;stroke-linecap:butt;stroke-linejoin:miter;stroke-opacity:1"/>
<path class="bond-27 atom-14 atom-15" d="M 374.2,145.2 L 366.2,158.9" style="fill:none;fill-rule:evenodd;stroke:#000000;stroke-width:2.0px;stroke-linecap:butt;stroke-linejoin:miter;stroke-opacity:1"/>
<path class="bond-28 atom-14 atom-36" d="M 372.3,140.2 L 364.2,126.1" style="fill:none;fill-rule:evenodd;stroke:#000000;stroke-width:2.0px;stroke-linecap:butt;stroke-linejoin:miter;stroke-opacity:1"/>
<path class="bond-29 atom-15 atom-16" d="M 361.0,159.8 L 372.3,179.4" style="fill:none;fill-rule:evenodd;stroke:#000000;stroke-width:2.0px;stroke-linecap:butt;stroke-linejoin:miter;stroke-opacity:1"/>
<path class="bond-30 atom-15 atom-37" d="M 361.0,159.8 L 342.9,159.8" style="fill:none;fill-rule:evenodd;stroke:#000000;stroke-width:2.0px;stroke-linecap:butt;stroke-linejoin:miter;stroke-opacity:1"/>
<path class="bond-31 atom-16 atom-17" d="M 374.1,180.4 L 370.1,187.4" style="fill:none;fill-rule:evenodd;stroke:#000000;stroke-width:2.0px;stroke-linecap:butt;stroke-linejoin:miter;stroke-opacity:1"/>
<path class="bond-31 atom-16 atom-17" d="M 370.1,187.4 L 366.0,194.4" style="fill:none;fill-rule:evenodd;stroke:#FF0000;stroke-width:2.0px;stroke-linecap:butt;stroke-linejoin:miter;stroke-opacity:1"/>
<path class="bond-31 atom-16 atom-17" d="M 370.6,178.4 L 366.5,185.4" style="fill:none;fill-rule:evenodd;stroke:#000000;stroke-width:2.0px;stroke-linecap:butt;stroke-linejoin:miter;stroke-opacity:1"/>
<path class="bond-31 atom-16 atom-17" d="M 366.5,185.4 L 362.5,192.4" style="fill:none;fill-rule:evenodd;stroke:#FF0000;stroke-width:2.0px;stroke-linecap:butt;stroke-linejoin:miter;stroke-opacity:1"/>
<path class="bond-32 atom-18 atom-19" d="M 406.3,120.6 L 428.9,120.6" style="fill:none;fill-rule:evenodd;stroke:#000000;stroke-width:2.0px;stroke-linecap:butt;stroke-linejoin:miter;stroke-opacity:1"/>
<path class="bond-32 atom-18 atom-19" d="M 409.7,116.5 L 425.5,116.5" style="fill:none;fill-rule:evenodd;stroke:#000000;stroke-width:2.0px;stroke-linecap:butt;stroke-linejoin:miter;stroke-opacity:1"/>
<path class="bond-33 atom-18 atom-25" d="M 406.3,120.6 L 395.0,101.0" style="fill:none;fill-rule:evenodd;stroke:#000000;stroke-width:2.0px;stroke-linecap:butt;stroke-linejoin:miter;stroke-opacity:1"/>
<path class="bond-34 atom-19 atom-20" d="M 428.9,120.6 L 440.3,101.0" style="fill:none;fill-rule:evenodd;stroke:#000000;stroke-width:2.0px;stroke-linecap:butt;stroke-linejoin:miter;stroke-opacity:1"/>
<path class="bond-35 atom-19 atom-38" d="M 428.9,120.6 L 437.1,134.6" style="fill:none;fill-rule:evenodd;stroke:#000000;stroke-width:2.0px;stroke-linecap:butt;stroke-linejoin:miter;stroke-opacity:1"/>
<path class="bond-36 atom-20 atom-21" d="M 440.3,101.0 L 449.8,101.0" style="fill:none;fill-rule:evenodd;stroke:#000000;stroke-width:2.0px;stroke-linecap:butt;stroke-linejoin:miter;stroke-opacity:1"/>
<path class="bond-36 atom-20 atom-21" d="M 449.8,101.0 L 459.3,101.0" style="fill:none;fill-rule:evenodd;stroke:#33CCCC;stroke-width:2.0px;stroke-linecap:butt;stroke-linejoin:miter;stroke-opacity:1"/>
<path class="bond-37 atom-20 atom-22" d="M 440.3,101.0 L 428.9,81.4" style="fill:none;fill-rule:evenodd;stroke:#000000;stroke-width:2.0px;stroke-linecap:butt;stroke-linejoin:miter;stroke-opacity:1"/>
<path class="bond-37 atom-20 atom-22" d="M 435.0,100.1 L 427.1,86.4" style="fill:none;fill-rule:evenodd;stroke:#000000;stroke-width:2.0px;stroke-linecap:butt;stroke-linejoin:miter;stroke-opacity:1"/>
<path class="bond-38 atom-22 atom-23" d="M 428.9,81.4 L 406.3,81.4" style="fill:none;fill-rule:evenodd;stroke:#000000;stroke-width:2.0px;stroke-linecap:butt;stroke-linejoin:miter;stroke-opacity:1"/>
<path class="bond-39 atom-22 atom-39" d="M 428.9,81.4 L 437.1,67.3" style="fill:none;fill-rule:evenodd;stroke:#000000;stroke-width:2.0px;stroke-linecap:butt;stroke-linejoin:miter;stroke-opacity:1"/>
<path class="bond-40 atom-23 atom-24" d="M 406.3,81.4 L 402.2,74.3" style="fill:none;fill-rule:evenodd;stroke:#000000;stroke-width:2.0px;stroke-linecap:butt;stroke-linejoin:miter;stroke-opacity:1"/>
<path class="bond-40 atom-23 atom-24" d="M 402.2,74.3 L 398.2,67.3" style="fill:none;fill-rule:evenodd;stroke:#33CCCC;stroke-width:2.0px;stroke-linecap:butt;stroke-linejoin:miter;stroke-opacity:1"/>
<path class="bond-41 atom-23 atom-25" d="M 406.3,81.4 L 395.0,101.0" style="fill:none;fill-rule:evenodd;stroke:#000000;stroke-width:2.0px;stroke-linecap:butt;stroke-linejoin:miter;stroke-opacity:1"/>
<path class="bond-41 atom-23 atom-25" d="M 408.1,86.4 L 400.2,100.1" style="fill:none;fill-rule:evenodd;stroke:#000000;stroke-width:2.0px;stroke-linecap:butt;stroke-linejoin:miter;stroke-opacity:1"/>
<path class="bond-42 atom-25 atom-40" d="M 395.0,101.0 L 376.9,101.0" style="fill:none;fill-rule:evenodd;stroke:#000000;stroke-width:2.0px;stroke-linecap:butt;stroke-linejoin:miter;stroke-opacity:1"/>
<path class="bond-43 atom-26 atom-41" d="M 440.3,179.4 L 432.2,165.4" style="fill:none;fill-rule:evenodd;stroke:#000000;stroke-width:2.0px;stroke-linecap:butt;stroke-linejoin:miter;stroke-opacity:1"/>
<path class="atom-1" d="M 503.8 140.2 Q 503.8 137.9, 504.9 136.6 Q 506.1 135.3, 508.2 135.3 Q 510.3 135.3, 511.5 136.6 Q 512.6 137.9, 512.6 140.2 Q 512.6 142.6, 511.5 143.9 Q 510.3 145.2, 508.2 145.2 Q 506.1 145.2, 504.9 143.9 Q 503.8 142.6, 503.8 140.2 M 508.2 144.1 Q 509.7 144.1, 510.4 143.1 Q 511.2 142.2, 511.2 140.2 Q 511.2 138.3, 510.4 137.4 Q 509.7 136.4, 508.2 136.4 Q 506.7 136.4, 505.9 137.4 Q 505.1 138.3, 505.1 140.2 Q 505.1 142.2, 505.9 143.1 Q 506.7 144.1, 508.2 144.1 " fill="#FF0000"/>
<path class="atom-3" d="M 503.8 179.4 Q 503.8 177.1, 504.9 175.8 Q 506.1 174.5, 508.2 174.5 Q 510.3 174.5, 511.5 175.8 Q 512.6 177.1, 512.6 179.4 Q 512.6 181.8, 511.5 183.1 Q 510.3 184.4, 508.2 184.4 Q 506.1 184.4, 504.9 183.1 Q 503.8 181.8, 503.8 179.4 M 508.2 183.3 Q 509.7 183.3, 510.4 182.4 Q 511.2 181.4, 511.2 179.4 Q 511.2 177.6, 510.4 176.6 Q 509.7 175.6, 508.2 175.6 Q 506.7 175.6, 505.9 176.6 Q 505.1 177.5, 505.1 179.4 Q 505.1 181.4, 505.9 182.4 Q 506.7 183.3, 508.2 183.3 " fill="#FF0000"/>
<path class="atom-4" d="M 472.1 155.0 L 475.3 160.1 Q 475.6 160.6, 476.1 161.5 Q 476.6 162.4, 476.6 162.5 L 476.6 155.0 L 477.9 155.0 L 477.9 164.6 L 476.6 164.6 L 473.2 159.0 Q 472.8 158.4, 472.4 157.6 Q 472.0 156.9, 471.8 156.7 L 471.8 164.6 L 470.6 164.6 L 470.6 155.0 L 472.1 155.0 " fill="#0000FF"/>
<path class="atom-11" d="M 392.9 174.6 L 396.0 179.7 Q 396.3 180.2, 396.8 181.1 Q 397.3 182.0, 397.4 182.1 L 397.4 174.6 L 398.6 174.6 L 398.6 184.2 L 397.3 184.2 L 393.9 178.7 Q 393.5 178.0, 393.1 177.3 Q 392.7 176.5, 392.6 176.3 L 392.6 184.2 L 391.3 184.2 L 391.3 174.6 L 392.9 174.6 " fill="#0000FF"/>
<path class="atom-12" d="M 404.2 155.0 L 407.3 160.1 Q 407.6 160.6, 408.1 161.5 Q 408.6 162.4, 408.7 162.5 L 408.7 155.0 L 409.9 155.0 L 409.9 164.6 L 408.6 164.6 L 405.2 159.0 Q 404.9 158.4, 404.4 157.6 Q 404.0 156.9, 403.9 156.7 L 403.9 164.6 L 402.7 164.6 L 402.7 155.0 L 404.2 155.0 " fill="#0000FF"/>
<path class="atom-17" d="M 356.6 199.0 Q 356.6 196.7, 357.7 195.4 Q 358.9 194.2, 361.0 194.2 Q 363.2 194.2, 364.3 195.4 Q 365.4 196.7, 365.4 199.0 Q 365.4 201.4, 364.3 202.7 Q 363.1 204.0, 361.0 204.0 Q 358.9 204.0, 357.7 202.7 Q 356.6 201.4, 356.6 199.0 M 361.0 202.9 Q 362.5 202.9, 363.3 202.0 Q 364.1 201.0, 364.1 199.0 Q 364.1 197.2, 363.3 196.2 Q 362.5 195.2, 361.0 195.2 Q 359.6 195.2, 358.8 196.2 Q 358.0 197.1, 358.0 199.0 Q 358.0 201.0, 358.8 202.0 Q 359.6 202.9, 361.0 202.9 " fill="#FF0000"/>
<path class="atom-21" d="M 460.0 96.2 L 465.8 96.2 L 465.8 97.3 L 461.3 97.3 L 461.3 100.2 L 465.3 100.2 L 465.3 101.3 L 461.3 101.3 L 461.3 105.8 L 460.0 105.8 L 460.0 96.2 " fill="#33CCCC"/>
<path class="atom-24" d="M 392.1 57.0 L 397.8 57.0 L 397.8 58.1 L 393.4 58.1 L 393.4 61.0 L 397.4 61.0 L 397.4 62.1 L 393.4 62.1 L 393.4 66.6 L 392.1 66.6 L 392.1 57.0 " fill="#33CCCC"/>
<path class="atom-27" d="M 527.1 158.0 L 528.4 158.0 L 528.4 162.1 L 533.3 162.1 L 533.3 158.0 L 534.6 158.0 L 534.6 167.6 L 533.3 167.6 L 533.3 163.2 L 528.4 163.2 L 528.4 167.6 L 527.1 167.6 L 527.1 158.0 " fill="#000000"/>
<path class="atom-28" d="M 546.7 146.7 L 548.0 146.7 L 548.0 150.8 L 552.9 150.8 L 552.9 146.7 L 554.2 146.7 L 554.2 156.3 L 552.9 156.3 L 552.9 151.9 L 548.0 151.9 L 548.0 156.3 L 546.7 156.3 L 546.7 146.7 " fill="#000000"/>
<path class="atom-29" d="M 538.4 115.8 L 539.7 115.8 L 539.7 119.9 L 544.6 119.9 L 544.6 115.8 L 545.9 115.8 L 545.9 125.4 L 544.6 125.4 L 544.6 121.0 L 539.7 121.0 L 539.7 125.4 L 538.4 125.4 L 538.4 115.8 " fill="#000000"/>
<path class="atom-30" d="M 459.1 135.4 L 460.4 135.4 L 460.4 139.5 L 465.4 139.5 L 465.4 135.4 L 466.7 135.4 L 466.7 145.0 L 465.4 145.0 L 465.4 140.6 L 460.4 140.6 L 460.4 145.0 L 459.1 145.0 L 459.1 135.4 " fill="#000000"/>
<path class="atom-31" d="M 493.1 194.2 L 494.4 194.2 L 494.4 198.3 L 499.3 198.3 L 499.3 194.2 L 500.6 194.2 L 500.6 203.8 L 499.3 203.8 L 499.3 199.4 L 494.4 199.4 L 494.4 203.8 L 493.1 203.8 L 493.1 194.2 " fill="#000000"/>
<path class="atom-32" d="M 470.5 233.4 L 471.8 233.4 L 471.8 237.5 L 476.7 237.5 L 476.7 233.4 L 478.0 233.4 L 478.0 243.0 L 476.7 243.0 L 476.7 238.6 L 471.8 238.6 L 471.8 243.0 L 470.5 243.0 L 470.5 233.4 " fill="#000000"/>
<path class="atom-33" d="M 425.2 233.4 L 426.5 233.4 L 426.5 237.5 L 431.4 237.5 L 431.4 233.4 L 432.7 233.4 L 432.7 243.0 L 431.4 243.0 L 431.4 238.6 L 426.5 238.6 L 426.5 243.0 L 425.2 243.0 L 425.2 233.4 " fill="#000000"/>
<path class="atom-34" d="M 402.5 216.9 L 403.8 216.9 L 403.8 220.9 L 408.8 220.9 L 408.8 216.9 L 410.1 216.9 L 410.1 226.5 L 408.8 226.5 L 408.8 222.0 L 403.8 222.0 L 403.8 226.5 L 402.5 226.5 L 402.5 216.9 " fill="#000000"/>
<path class="atom-35" d="M 382.9 205.5 L 384.2 205.5 L 384.2 209.6 L 389.2 209.6 L 389.2 205.5 L 390.5 205.5 L 390.5 215.1 L 389.2 215.1 L 389.2 210.7 L 384.2 210.7 L 384.2 215.1 L 382.9 215.1 L 382.9 205.5 " fill="#000000"/>
<path class="atom-36" d="M 357.3 115.8 L 358.6 115.8 L 358.6 119.9 L 363.5 119.9 L 363.5 115.8 L 364.8 115.8 L 364.8 125.4 L 363.5 125.4 L 363.5 121.0 L 358.6 121.0 L 358.6 125.4 L 357.3 125.4 L 357.3 115.8 " fill="#000000"/>
<path class="atom-37" d="M 334.6 155.0 L 335.9 155.0 L 335.9 159.1 L 340.8 159.1 L 340.8 155.0 L 342.1 155.0 L 342.1 164.6 L 340.8 164.6 L 340.8 160.2 L 335.9 160.2 L 335.9 164.6 L 334.6 164.6 L 334.6 155.0 " fill="#000000"/>
<path class="atom-38" d="M 436.5 135.4 L 437.8 135.4 L 437.8 139.5 L 442.7 139.5 L 442.7 135.4 L 444.0 135.4 L 444.0 145.0 L 442.7 145.0 L 442.7 140.6 L 437.8 140.6 L 437.8 145.0 L 436.5 145.0 L 436.5 135.4 " fill="#000000"/>
<path class="atom-39" d="M 436.5 57.0 L 437.8 57.0 L 437.8 61.0 L 442.7 61.0 L 442.7 57.0 L 444.0 57.0 L 444.0 66.6 L 442.7 66.6 L 442.7 62.1 L 437.8 62.1 L 437.8 66.6 L 436.5 66.6 L 436.5 57.0 " fill="#000000"/>
<path class="atom-40" d="M 368.6 96.2 L 369.9 96.2 L 369.9 100.3 L 374.8 100.3 L 374.8 96.2 L 376.1 96.2 L 376.1 105.8 L 374.8 105.8 L 374.8 101.3 L 369.9 101.3 L 369.9 105.8 L 368.6 105.8 L 368.6 96.2 " fill="#000000"/>
<path class="atom-41" d="M 425.2 155.0 L 426.5 155.0 L 426.5 159.1 L 431.4 159.1 L 431.4 155.0 L 432.7 155.0 L 432.7 164.6 L 431.4 164.6 L 431.4 160.2 L 426.5 160.2 L 426.5 164.6 L 425.2 164.6 L 425.2 155.0 " fill="#000000"/>
<text x="300" y="20" font-size="20" font-family="sans-serif" font-weight="normal" letter-spacing="0" text-anchor="middle" fill="black">cmet CHEMBL3402747_3400_7 -&gt; CHEMBL3402744_300_4 </text><text x="150" y="285" font-size="15" font-family="sans-serif" font-weight="normal" letter-spacing="0" text-anchor="middle" fill="black">CHEMBL3402747_3400_7</text><text x="450" y="285" font-size="15" font-family="sans-serif" font-weight="normal" letter-spacing="0" text-anchor="middle" fill="black">CHEMBL3402744_300_4</text></svg>
