<?xml version='1.0' encoding='ASCII' standalone='yes'?>
<svg xmlns="http://www.w3.org/2000/svg" xmlns:rdkit="http://www.rdkit.org/xml" xmlns:xlink="http://www.w3.org/1999/xlink" version="1.1" baseProfile="full" xml:space="preserve" width="600px" height="300px" viewBox="0 0 600 300">
<!-- END OF HEADER -->
<rect style="opacity:1.0;fill:#FFFFFF;stroke:none" width="600.0" height="300.0" x="0.0" y="0.0"> </rect>
<ellipse cx="175.6" cy="161.9" rx="8.0" ry="8.0" class="atom-4" style="fill:#588A93;fill-rule:evenodd;stroke:#588A93;stroke-width:1.0px;stroke-linecap:butt;stroke-linejoin:miter;stroke-opacity:1"/>
<ellipse cx="225.2" cy="123.0" rx="8.0" ry="8.0" class="atom-28" style="fill:#DC3369;fill-rule:evenodd;stroke:#DC3369;stroke-width:1.0px;stroke-linecap:butt;stroke-linejoin:miter;stroke-opacity:1"/>
<path class="bond-0 atom-0 atom-1" d="M 194.0,177.8 L 214.8,165.2" style="fill:none;fill-rule:evenodd;stroke:#000000;stroke-width:2.0px;stroke-linecap:butt;stroke-linejoin:miter;stroke-opacity:1"/>
<path class="bond-0 atom-0 atom-1" d="M 194.9,172.2 L 209.4,163.3" style="fill:none;fill-rule:evenodd;stroke:#000000;stroke-width:2.0px;stroke-linecap:butt;stroke-linejoin:miter;stroke-opacity:1"/>
<path class="bond-1 atom-0 atom-4" d="M 194.0,177.8 L 187.2,171.9" style="fill:none;fill-rule:evenodd;stroke:#000000;stroke-width:2.0px;stroke-linecap:butt;stroke-linejoin:miter;stroke-opacity:1"/>
<path class="bond-1 atom-0 atom-4" d="M 187.2,171.9 L 180.3,166.0" style="fill:none;fill-rule:evenodd;stroke:#0000FF;stroke-width:2.0px;stroke-linecap:butt;stroke-linejoin:miter;stroke-opacity:1"/>
<path class="bond-2 atom-0 atom-40" d="M 194.0,177.8 L 192.6,195.8" style="fill:none;fill-rule:evenodd;stroke:#000000;stroke-width:2.0px;stroke-linecap:butt;stroke-linejoin:miter;stroke-opacity:1"/>
<path class="bond-3 atom-1 atom-27" d="M 214.8,165.2 L 237.1,174.9" style="fill:none;fill-rule:evenodd;stroke:#000000;stroke-width:2.0px;stroke-linecap:butt;stroke-linejoin:miter;stroke-opacity:1"/>
<path class="bond-4 atom-1 atom-2" d="M 214.8,165.2 L 212.8,156.3" style="fill:none;fill-rule:evenodd;stroke:#000000;stroke-width:2.0px;stroke-linecap:butt;stroke-linejoin:miter;stroke-opacity:1"/>
<path class="bond-4 atom-1 atom-2" d="M 212.8,156.3 L 210.7,147.4" style="fill:none;fill-rule:evenodd;stroke:#0000FF;stroke-width:2.0px;stroke-linecap:butt;stroke-linejoin:miter;stroke-opacity:1"/>
<path class="bond-5 atom-2 atom-28" d="M 214.1,135.9 L 217.2,132.3" style="fill:none;fill-rule:evenodd;stroke:#0000FF;stroke-width:2.0px;stroke-linecap:butt;stroke-linejoin:miter;stroke-opacity:1"/>
<path class="bond-5 atom-2 atom-28" d="M 217.2,132.3 L 220.4,128.6" style="fill:none;fill-rule:evenodd;stroke:#000000;stroke-width:2.0px;stroke-linecap:butt;stroke-linejoin:miter;stroke-opacity:1"/>
<path class="bond-6 atom-2 atom-3" d="M 204.6,141.0 L 194.8,140.2" style="fill:none;fill-rule:evenodd;stroke:#0000FF;stroke-width:2.0px;stroke-linecap:butt;stroke-linejoin:miter;stroke-opacity:1"/>
<path class="bond-6 atom-2 atom-3" d="M 194.8,140.2 L 185.0,139.4" style="fill:none;fill-rule:evenodd;stroke:#000000;stroke-width:2.0px;stroke-linecap:butt;stroke-linejoin:miter;stroke-opacity:1"/>
<path class="bond-7 atom-3 atom-5" d="M 185.0,139.4 L 172.7,118.0" style="fill:none;fill-rule:evenodd;stroke:#000000;stroke-width:2.0px;stroke-linecap:butt;stroke-linejoin:miter;stroke-opacity:1"/>
<path class="bond-8 atom-3 atom-4" d="M 185.0,139.4 L 181.5,147.7" style="fill:none;fill-rule:evenodd;stroke:#000000;stroke-width:2.0px;stroke-linecap:butt;stroke-linejoin:miter;stroke-opacity:1"/>
<path class="bond-8 atom-3 atom-4" d="M 181.5,147.7 L 178.1,155.9" style="fill:none;fill-rule:evenodd;stroke:#0000FF;stroke-width:2.0px;stroke-linecap:butt;stroke-linejoin:miter;stroke-opacity:1"/>
<path class="bond-8 atom-3 atom-4" d="M 188.0,143.6 L 185.6,149.4" style="fill:none;fill-rule:evenodd;stroke:#000000;stroke-width:2.0px;stroke-linecap:butt;stroke-linejoin:miter;stroke-opacity:1"/>
<path class="bond-8 atom-3 atom-4" d="M 185.6,149.4 L 183.2,155.1" style="fill:none;fill-rule:evenodd;stroke:#0000FF;stroke-width:2.0px;stroke-linecap:butt;stroke-linejoin:miter;stroke-opacity:1"/>
<path class="bond-9 atom-5 atom-6" d="M 172.7,118.0 L 184.9,96.9" style="fill:none;fill-rule:evenodd;stroke:#000000;stroke-width:2.0px;stroke-linecap:butt;stroke-linejoin:miter;stroke-opacity:1"/>
<path class="bond-9 atom-5 atom-6" d="M 170.7,112.7 L 179.2,97.9" style="fill:none;fill-rule:evenodd;stroke:#000000;stroke-width:2.0px;stroke-linecap:butt;stroke-linejoin:miter;stroke-opacity:1"/>
<path class="bond-10 atom-5 atom-26" d="M 172.7,118.0 L 148.3,118.1" style="fill:none;fill-rule:evenodd;stroke:#000000;stroke-width:2.0px;stroke-linecap:butt;stroke-linejoin:miter;stroke-opacity:1"/>
<path class="bond-11 atom-6 atom-7" d="M 184.9,96.9 L 172.6,75.8" style="fill:none;fill-rule:evenodd;stroke:#000000;stroke-width:2.0px;stroke-linecap:butt;stroke-linejoin:miter;stroke-opacity:1"/>
<path class="bond-12 atom-6 atom-29" d="M 184.9,96.9 L 204.4,96.8" style="fill:none;fill-rule:evenodd;stroke:#000000;stroke-width:2.0px;stroke-linecap:butt;stroke-linejoin:miter;stroke-opacity:1"/>
<path class="bond-13 atom-7 atom-8" d="M 172.6,75.8 L 148.3,75.9" style="fill:none;fill-rule:evenodd;stroke:#000000;stroke-width:2.0px;stroke-linecap:butt;stroke-linejoin:miter;stroke-opacity:1"/>
<path class="bond-13 atom-7 atom-8" d="M 169.0,80.2 L 151.9,80.2" style="fill:none;fill-rule:evenodd;stroke:#000000;stroke-width:2.0px;stroke-linecap:butt;stroke-linejoin:miter;stroke-opacity:1"/>
<path class="bond-14 atom-7 atom-30" d="M 172.6,75.8 L 181.3,60.7" style="fill:none;fill-rule:evenodd;stroke:#000000;stroke-width:2.0px;stroke-linecap:butt;stroke-linejoin:miter;stroke-opacity:1"/>
<path class="bond-15 atom-8 atom-9" d="M 148.3,75.9 L 136.1,97.0" style="fill:none;fill-rule:evenodd;stroke:#000000;stroke-width:2.0px;stroke-linecap:butt;stroke-linejoin:miter;stroke-opacity:1"/>
<path class="bond-16 atom-8 atom-31" d="M 148.3,75.9 L 139.5,60.7" style="fill:none;fill-rule:evenodd;stroke:#000000;stroke-width:2.0px;stroke-linecap:butt;stroke-linejoin:miter;stroke-opacity:1"/>
<path class="bond-17 atom-9 atom-10" d="M 136.1,97.0 L 111.7,97.1" style="fill:none;fill-rule:evenodd;stroke:#000000;stroke-width:2.0px;stroke-linecap:butt;stroke-linejoin:miter;stroke-opacity:1"/>
<path class="bond-18 atom-9 atom-26" d="M 136.1,97.0 L 148.3,118.1" style="fill:none;fill-rule:evenodd;stroke:#000000;stroke-width:2.0px;stroke-linecap:butt;stroke-linejoin:miter;stroke-opacity:1"/>
<path class="bond-18 atom-9 atom-26" d="M 141.7,98.0 L 150.3,112.7" style="fill:none;fill-rule:evenodd;stroke:#000000;stroke-width:2.0px;stroke-linecap:butt;stroke-linejoin:miter;stroke-opacity:1"/>
<path class="bond-19 atom-10 atom-11" d="M 111.7,97.1 L 107.4,104.6" style="fill:none;fill-rule:evenodd;stroke:#000000;stroke-width:2.0px;stroke-linecap:butt;stroke-linejoin:miter;stroke-opacity:1"/>
<path class="bond-19 atom-10 atom-11" d="M 107.4,104.6 L 103.0,112.2" style="fill:none;fill-rule:evenodd;stroke:#0000FF;stroke-width:2.0px;stroke-linecap:butt;stroke-linejoin:miter;stroke-opacity:1"/>
<path class="bond-20 atom-10 atom-32" d="M 111.7,97.1 L 111.7,78.7" style="fill:none;fill-rule:evenodd;stroke:#000000;stroke-width:2.0px;stroke-linecap:butt;stroke-linejoin:miter;stroke-opacity:1"/>
<path class="bond-21 atom-10 atom-33" d="M 111.7,97.1 L 95.4,87.7" style="fill:none;fill-rule:evenodd;stroke:#000000;stroke-width:2.0px;stroke-linecap:butt;stroke-linejoin:miter;stroke-opacity:1"/>
<path class="bond-22 atom-11 atom-12" d="M 103.0,124.2 L 108.3,133.3" style="fill:none;fill-rule:evenodd;stroke:#0000FF;stroke-width:2.0px;stroke-linecap:butt;stroke-linejoin:miter;stroke-opacity:1"/>
<path class="bond-23 atom-11 atom-16" d="M 94.8,118.2 L 85.0,118.2" style="fill:none;fill-rule:evenodd;stroke:#0000FF;stroke-width:2.0px;stroke-linecap:butt;stroke-linejoin:miter;stroke-opacity:1"/>
<path class="bond-23 atom-11 atom-16" d="M 85.0,118.2 L 75.2,118.2" style="fill:none;fill-rule:evenodd;stroke:#000000;stroke-width:2.0px;stroke-linecap:butt;stroke-linejoin:miter;stroke-opacity:1"/>
<path class="bond-24 atom-12 atom-13" d="M 108.4,145.3 L 104.0,152.8" style="fill:none;fill-rule:evenodd;stroke:#0000FF;stroke-width:2.0px;stroke-linecap:butt;stroke-linejoin:miter;stroke-opacity:1"/>
<path class="bond-24 atom-12 atom-13" d="M 104.0,152.8 L 99.7,160.4" style="fill:none;fill-rule:evenodd;stroke:#000000;stroke-width:2.0px;stroke-linecap:butt;stroke-linejoin:miter;stroke-opacity:1"/>
<path class="bond-24 atom-12 atom-13" d="M 103.3,145.3 L 100.2,150.7" style="fill:none;fill-rule:evenodd;stroke:#0000FF;stroke-width:2.0px;stroke-linecap:butt;stroke-linejoin:miter;stroke-opacity:1"/>
<path class="bond-24 atom-12 atom-13" d="M 100.2,150.7 L 97.2,156.0" style="fill:none;fill-rule:evenodd;stroke:#000000;stroke-width:2.0px;stroke-linecap:butt;stroke-linejoin:miter;stroke-opacity:1"/>
<path class="bond-25 atom-13 atom-14" d="M 99.7,160.4 L 75.3,160.5" style="fill:none;fill-rule:evenodd;stroke:#000000;stroke-width:2.0px;stroke-linecap:butt;stroke-linejoin:miter;stroke-opacity:1"/>
<path class="bond-26 atom-13 atom-18" d="M 99.7,160.4 L 112.2,181.6" style="fill:none;fill-rule:evenodd;stroke:#000000;stroke-width:2.0px;stroke-linecap:butt;stroke-linejoin:miter;stroke-opacity:1"/>
<path class="bond-27 atom-14 atom-15" d="M 75.3,160.5 L 63.0,139.4" style="fill:none;fill-rule:evenodd;stroke:#000000;stroke-width:2.0px;stroke-linecap:butt;stroke-linejoin:miter;stroke-opacity:1"/>
<path class="bond-27 atom-14 atom-15" d="M 77.2,155.1 L 68.7,140.3" style="fill:none;fill-rule:evenodd;stroke:#000000;stroke-width:2.0px;stroke-linecap:butt;stroke-linejoin:miter;stroke-opacity:1"/>
<path class="bond-28 atom-14 atom-34" d="M 75.3,160.5 L 66.6,175.6" style="fill:none;fill-rule:evenodd;stroke:#000000;stroke-width:2.0px;stroke-linecap:butt;stroke-linejoin:miter;stroke-opacity:1"/>
<path class="bond-29 atom-15 atom-16" d="M 63.0,139.4 L 75.2,118.2" style="fill:none;fill-rule:evenodd;stroke:#000000;stroke-width:2.0px;stroke-linecap:butt;stroke-linejoin:miter;stroke-opacity:1"/>
<path class="bond-30 atom-15 atom-35" d="M 63.0,139.4 L 43.5,139.4" style="fill:none;fill-rule:evenodd;stroke:#000000;stroke-width:2.0px;stroke-linecap:butt;stroke-linejoin:miter;stroke-opacity:1"/>
<path class="bond-31 atom-16 atom-17" d="M 73.3,119.3 L 69.0,111.9" style="fill:none;fill-rule:evenodd;stroke:#000000;stroke-width:2.0px;stroke-linecap:butt;stroke-linejoin:miter;stroke-opacity:1"/>
<path class="bond-31 atom-16 atom-17" d="M 69.0,111.9 L 64.7,104.5" style="fill:none;fill-rule:evenodd;stroke:#FF0000;stroke-width:2.0px;stroke-linecap:butt;stroke-linejoin:miter;stroke-opacity:1"/>
<path class="bond-31 atom-16 atom-17" d="M 77.1,117.1 L 72.8,109.7" style="fill:none;fill-rule:evenodd;stroke:#000000;stroke-width:2.0px;stroke-linecap:butt;stroke-linejoin:miter;stroke-opacity:1"/>
<path class="bond-31 atom-16 atom-17" d="M 72.8,109.7 L 68.4,102.3" style="fill:none;fill-rule:evenodd;stroke:#FF0000;stroke-width:2.0px;stroke-linecap:butt;stroke-linejoin:miter;stroke-opacity:1"/>
<path class="bond-32 atom-18 atom-19" d="M 112.2,181.6 L 99.9,202.6" style="fill:none;fill-rule:evenodd;stroke:#000000;stroke-width:2.0px;stroke-linecap:butt;stroke-linejoin:miter;stroke-opacity:1"/>
<path class="bond-32 atom-18 atom-19" d="M 114.1,186.9 L 105.5,201.7" style="fill:none;fill-rule:evenodd;stroke:#000000;stroke-width:2.0px;stroke-linecap:butt;stroke-linejoin:miter;stroke-opacity:1"/>
<path class="bond-33 atom-18 atom-25" d="M 112.2,181.6 L 136.6,181.8" style="fill:none;fill-rule:evenodd;stroke:#000000;stroke-width:2.0px;stroke-linecap:butt;stroke-linejoin:miter;stroke-opacity:1"/>
<path class="bond-34 atom-19 atom-20" d="M 99.9,202.6 L 111.9,223.9" style="fill:none;fill-rule:evenodd;stroke:#000000;stroke-width:2.0px;stroke-linecap:butt;stroke-linejoin:miter;stroke-opacity:1"/>
<path class="bond-35 atom-19 atom-36" d="M 99.9,202.6 L 80.3,202.5" style="fill:none;fill-rule:evenodd;stroke:#000000;stroke-width:2.0px;stroke-linecap:butt;stroke-linejoin:miter;stroke-opacity:1"/>
<path class="bond-36 atom-20 atom-21" d="M 111.9,223.9 L 107.5,231.4" style="fill:none;fill-rule:evenodd;stroke:#000000;stroke-width:2.0px;stroke-linecap:butt;stroke-linejoin:miter;stroke-opacity:1"/>
<path class="bond-36 atom-20 atom-21" d="M 107.5,231.4 L 103.1,238.9" style="fill:none;fill-rule:evenodd;stroke:#33CCCC;stroke-width:2.0px;stroke-linecap:butt;stroke-linejoin:miter;stroke-opacity:1"/>
<path class="bond-37 atom-20 atom-22" d="M 111.9,223.9 L 136.3,224.1" style="fill:none;fill-rule:evenodd;stroke:#000000;stroke-width:2.0px;stroke-linecap:butt;stroke-linejoin:miter;stroke-opacity:1"/>
<path class="bond-37 atom-20 atom-22" d="M 115.6,219.5 L 132.7,219.7" style="fill:none;fill-rule:evenodd;stroke:#000000;stroke-width:2.0px;stroke-linecap:butt;stroke-linejoin:miter;stroke-opacity:1"/>
<path class="bond-38 atom-22 atom-23" d="M 136.3,224.1 L 148.7,203.1" style="fill:none;fill-rule:evenodd;stroke:#000000;stroke-width:2.0px;stroke-linecap:butt;stroke-linejoin:miter;stroke-opacity:1"/>
<path class="bond-39 atom-22 atom-37" d="M 136.3,224.1 L 144.9,239.3" style="fill:none;fill-rule:evenodd;stroke:#000000;stroke-width:2.0px;stroke-linecap:butt;stroke-linejoin:miter;stroke-opacity:1"/>
<path class="bond-40 atom-23 atom-24" d="M 148.7,203.1 L 158.7,203.2" style="fill:none;fill-rule:evenodd;stroke:#000000;stroke-width:2.0px;stroke-linecap:butt;stroke-linejoin:miter;stroke-opacity:1"/>
<path class="bond-40 atom-23 atom-24" d="M 158.7,203.2 L 168.8,203.3" style="fill:none;fill-rule:evenodd;stroke:#33CCCC;stroke-width:2.0px;stroke-linecap:butt;stroke-linejoin:miter;stroke-opacity:1"/>
<path class="bond-41 atom-23 atom-25" d="M 148.7,203.1 L 136.6,181.8" style="fill:none;fill-rule:evenodd;stroke:#000000;stroke-width:2.0px;stroke-linecap:butt;stroke-linejoin:miter;stroke-opacity:1"/>
<path class="bond-41 atom-23 atom-25" d="M 143.0,202.1 L 134.6,187.2" style="fill:none;fill-rule:evenodd;stroke:#000000;stroke-width:2.0px;stroke-linecap:butt;stroke-linejoin:miter;stroke-opacity:1"/>
<path class="bond-42 atom-25 atom-38" d="M 136.6,181.8 L 145.4,166.8" style="fill:none;fill-rule:evenodd;stroke:#000000;stroke-width:2.0px;stroke-linecap:butt;stroke-linejoin:miter;stroke-opacity:1"/>
<path class="bond-43 atom-26 atom-39" d="M 148.3,118.1 L 139.6,133.2" style="fill:none;fill-rule:evenodd;stroke:#000000;stroke-width:2.0px;stroke-linecap:butt;stroke-linejoin:miter;stroke-opacity:1"/>
<path class="bond-44 atom-27 atom-41" d="M 237.1,174.9 L 244.3,158.6" style="fill:none;fill-rule:evenodd;stroke:#000000;stroke-width:2.0px;stroke-linecap:butt;stroke-linejoin:miter;stroke-opacity:1"/>
<path class="bond-45 atom-27 atom-42" d="M 237.1,174.9 L 256.5,172.9" style="fill:none;fill-rule:evenodd;stroke:#000000;stroke-width:2.0px;stroke-linecap:butt;stroke-linejoin:miter;stroke-opacity:1"/>
<path class="bond-46 atom-27 atom-43" d="M 237.1,174.9 L 239.1,193.2" style="fill:none;fill-rule:evenodd;stroke:#000000;stroke-width:2.0px;stroke-linecap:butt;stroke-linejoin:miter;stroke-opacity:1"/>
<path class="atom-2" d="M 207.0 136.2 L 210.4 141.7 Q 210.8 142.3, 211.3 143.3 Q 211.8 144.2, 211.9 144.3 L 211.9 136.2 L 213.2 136.2 L 213.2 146.6 L 211.8 146.6 L 208.2 140.6 Q 207.8 139.9, 207.3 139.1 Q 206.9 138.3, 206.7 138.0 L 206.7 146.6 L 205.4 146.6 L 205.4 136.2 L 207.0 136.2 " fill="#0000FF"/>
<path class="atom-4" d="M 173.3 156.7 L 176.7 162.2 Q 177.0 162.7, 177.5 163.7 Q 178.1 164.7, 178.1 164.7 L 178.1 156.7 L 179.5 156.7 L 179.5 167.0 L 178.1 167.0 L 174.4 161.0 Q 174.0 160.3, 173.6 159.5 Q 173.1 158.7, 173.0 158.5 L 173.0 167.0 L 171.6 167.0 L 171.6 156.7 L 173.3 156.7 " fill="#0000FF"/>
<path class="atom-11" d="M 97.3 113.0 L 100.7 118.5 Q 101.0 119.0, 101.5 120.0 Q 102.1 121.0, 102.1 121.1 L 102.1 113.0 L 103.5 113.0 L 103.5 123.4 L 102.1 123.4 L 98.4 117.4 Q 98.0 116.7, 97.6 115.9 Q 97.1 115.1, 97.0 114.8 L 97.0 123.4 L 95.6 123.4 L 95.6 113.0 L 97.3 113.0 " fill="#0000FF"/>
<path class="atom-12" d="M 109.5 134.1 L 112.9 139.6 Q 113.3 140.1, 113.8 141.1 Q 114.3 142.1, 114.4 142.1 L 114.4 134.1 L 115.7 134.1 L 115.7 144.4 L 114.3 144.4 L 110.7 138.5 Q 110.3 137.7, 109.8 136.9 Q 109.4 136.1, 109.2 135.9 L 109.2 144.4 L 107.9 144.4 L 107.9 134.1 L 109.5 134.1 " fill="#0000FF"/>
<path class="atom-17" d="M 58.2 97.2 Q 58.2 94.7, 59.4 93.3 Q 60.6 91.9, 62.9 91.9 Q 65.2 91.9, 66.5 93.3 Q 67.7 94.7, 67.7 97.2 Q 67.7 99.7, 66.5 101.1 Q 65.2 102.6, 62.9 102.6 Q 60.7 102.6, 59.4 101.1 Q 58.2 99.7, 58.2 97.2 M 62.9 101.4 Q 64.5 101.4, 65.4 100.3 Q 66.2 99.3, 66.2 97.2 Q 66.2 95.2, 65.4 94.1 Q 64.5 93.1, 62.9 93.1 Q 61.4 93.1, 60.5 94.1 Q 59.7 95.1, 59.7 97.2 Q 59.7 99.3, 60.5 100.3 Q 61.4 101.4, 62.9 101.4 " fill="#FF0000"/>
<path class="atom-21" d="M 96.5 239.7 L 102.6 239.7 L 102.6 240.9 L 97.9 240.9 L 97.9 244.0 L 102.1 244.0 L 102.1 245.2 L 97.9 245.2 L 97.9 250.0 L 96.5 250.0 L 96.5 239.7 " fill="#33CCCC"/>
<path class="atom-24" d="M 169.6 198.2 L 175.7 198.2 L 175.7 199.4 L 171.0 199.4 L 171.0 202.6 L 175.2 202.6 L 175.2 203.8 L 171.0 203.8 L 171.0 208.6 L 169.6 208.6 L 169.6 198.2 " fill="#33CCCC"/>
<path class="atom-28" d="M 221.2 117.8 L 222.6 117.8 L 222.6 122.2 L 227.9 122.2 L 227.9 117.8 L 229.3 117.8 L 229.3 128.2 L 227.9 128.2 L 227.9 123.4 L 222.6 123.4 L 222.6 128.2 L 221.2 128.2 L 221.2 117.8 " fill="#000000"/>
<path class="atom-29" d="M 205.2 91.6 L 206.6 91.6 L 206.6 96.0 L 211.9 96.0 L 211.9 91.6 L 213.3 91.6 L 213.3 102.0 L 211.9 102.0 L 211.9 97.2 L 206.6 97.2 L 206.6 102.0 L 205.2 102.0 L 205.2 91.6 " fill="#000000"/>
<path class="atom-30" d="M 180.7 49.5 L 182.1 49.5 L 182.1 53.9 L 187.4 53.9 L 187.4 49.5 L 188.8 49.5 L 188.8 59.9 L 187.4 59.9 L 187.4 55.1 L 182.1 55.1 L 182.1 59.9 L 180.7 59.9 L 180.7 49.5 " fill="#000000"/>
<path class="atom-31" d="M 132.0 49.6 L 133.4 49.6 L 133.4 54.0 L 138.7 54.0 L 138.7 49.6 L 140.1 49.6 L 140.1 59.9 L 138.7 59.9 L 138.7 55.1 L 133.4 55.1 L 133.4 59.9 L 132.0 59.9 L 132.0 49.6 " fill="#000000"/>
<path class="atom-32" d="M 107.6 67.5 L 109.0 67.5 L 109.0 71.9 L 114.3 71.9 L 114.3 67.5 L 115.7 67.5 L 115.7 77.8 L 114.3 77.8 L 114.3 73.1 L 109.0 73.1 L 109.0 77.8 L 107.6 77.8 L 107.6 67.5 " fill="#000000"/>
<path class="atom-33" d="M 86.5 79.7 L 87.9 79.7 L 87.9 84.1 L 93.2 84.1 L 93.2 79.7 L 94.6 79.7 L 94.6 90.1 L 93.2 90.1 L 93.2 85.3 L 87.9 85.3 L 87.9 90.1 L 86.5 90.1 L 86.5 79.7 " fill="#000000"/>
<path class="atom-34" d="M 59.1 176.4 L 60.5 176.4 L 60.5 180.8 L 65.8 180.8 L 65.8 176.4 L 67.2 176.4 L 67.2 186.8 L 65.8 186.8 L 65.8 182.0 L 60.5 182.0 L 60.5 186.8 L 59.1 186.8 L 59.1 176.4 " fill="#000000"/>
<path class="atom-35" d="M 34.6 134.2 L 36.0 134.2 L 36.0 138.7 L 41.3 138.7 L 41.3 134.2 L 42.7 134.2 L 42.7 144.6 L 41.3 144.6 L 41.3 139.8 L 36.0 139.8 L 36.0 144.6 L 34.6 144.6 L 34.6 134.2 " fill="#000000"/>
<path class="atom-36" d="M 71.4 197.3 L 72.8 197.3 L 72.8 201.7 L 78.1 201.7 L 78.1 197.3 L 79.5 197.3 L 79.5 207.6 L 78.1 207.6 L 78.1 202.8 L 72.8 202.8 L 72.8 207.6 L 71.4 207.6 L 71.4 197.3 " fill="#000000"/>
<path class="atom-37" d="M 144.3 240.1 L 145.7 240.1 L 145.7 244.5 L 151.0 244.5 L 151.0 240.1 L 152.4 240.1 L 152.4 250.5 L 151.0 250.5 L 151.0 245.7 L 145.7 245.7 L 145.7 250.5 L 144.3 250.5 L 144.3 240.1 " fill="#000000"/>
<path class="atom-38" d="M 144.9 155.6 L 146.3 155.6 L 146.3 160.0 L 151.6 160.0 L 151.6 155.6 L 153.0 155.6 L 153.0 166.0 L 151.6 166.0 L 151.6 161.2 L 146.3 161.2 L 146.3 166.0 L 144.9 166.0 L 144.9 155.6 " fill="#000000"/>
<path class="atom-39" d="M 132.1 134.0 L 133.5 134.0 L 133.5 138.4 L 138.8 138.4 L 138.8 134.0 L 140.2 134.0 L 140.2 144.4 L 138.8 144.4 L 138.8 139.6 L 133.5 139.6 L 133.5 144.4 L 132.1 144.4 L 132.1 134.0 " fill="#000000"/>
<path class="atom-40" d="M 188.1 196.6 L 189.5 196.6 L 189.5 201.0 L 194.8 201.0 L 194.8 196.6 L 196.2 196.6 L 196.2 206.9 L 194.8 206.9 L 194.8 202.1 L 189.5 202.1 L 189.5 206.9 L 188.1 206.9 L 188.1 196.6 " fill="#000000"/>
<path class="atom-41" d="M 242.9 147.4 L 244.3 147.4 L 244.3 151.9 L 249.6 151.9 L 249.6 147.4 L 251.0 147.4 L 251.0 157.8 L 249.6 157.8 L 249.6 153.0 L 244.3 153.0 L 244.3 157.8 L 242.9 157.8 L 242.9 147.4 " fill="#000000"/>
<path class="atom-42" d="M 257.3 167.2 L 258.7 167.2 L 258.7 171.6 L 264.0 171.6 L 264.0 167.2 L 265.4 167.2 L 265.4 177.5 L 264.0 177.5 L 264.0 172.8 L 258.7 172.8 L 258.7 177.5 L 257.3 177.5 L 257.3 167.2 " fill="#000000"/>
<path class="atom-43" d="M 235.6 194.0 L 237.0 194.0 L 237.0 198.4 L 242.3 198.4 L 242.3 194.0 L 243.7 194.0 L 243.7 204.3 L 242.3 204.3 L 242.3 199.6 L 237.0 199.6 L 237.0 204.3 L 235.6 204.3 L 235.6 194.0 " fill="#000000"/>
<ellipse cx="475.6" cy="162.0" rx="8.0" ry="8.0" class="atom-3" style="fill:#588A93;fill-rule:evenodd;stroke:#588A93;stroke-width:1.0px;stroke-linecap:butt;stroke-linejoin:miter;stroke-opacity:1"/>
<path class="bond-0 atom-0 atom-1" d="M 537.1,174.9 L 514.8,165.2" style="fill:none;fill-rule:evenodd;stroke:#000000;stroke-width:2.0px;stroke-linecap:butt;stroke-linejoin:miter;stroke-opacity:1"/>
<path class="bond-1 atom-0 atom-28" d="M 537.1,174.9 L 544.3,158.6" style="fill:none;fill-rule:evenodd;stroke:#000000;stroke-width:2.0px;stroke-linecap:butt;stroke-linejoin:miter;stroke-opacity:1"/>
<path class="bond-2 atom-0 atom-29" d="M 537.1,174.9 L 556.5,172.9" style="fill:none;fill-rule:evenodd;stroke:#000000;stroke-width:2.0px;stroke-linecap:butt;stroke-linejoin:miter;stroke-opacity:1"/>
<path class="bond-3 atom-0 atom-30" d="M 537.1,174.9 L 539.1,193.2" style="fill:none;fill-rule:evenodd;stroke:#000000;stroke-width:2.0px;stroke-linecap:butt;stroke-linejoin:miter;stroke-opacity:1"/>
<path class="bond-4 atom-1 atom-2" d="M 514.8,165.2 L 494.0,177.8" style="fill:none;fill-rule:evenodd;stroke:#000000;stroke-width:2.0px;stroke-linecap:butt;stroke-linejoin:miter;stroke-opacity:1"/>
<path class="bond-4 atom-1 atom-2" d="M 509.4,163.3 L 494.8,172.2" style="fill:none;fill-rule:evenodd;stroke:#000000;stroke-width:2.0px;stroke-linecap:butt;stroke-linejoin:miter;stroke-opacity:1"/>
<path class="bond-5 atom-1 atom-5" d="M 514.8,165.2 L 512.8,156.3" style="fill:none;fill-rule:evenodd;stroke:#000000;stroke-width:2.0px;stroke-linecap:butt;stroke-linejoin:miter;stroke-opacity:1"/>
<path class="bond-5 atom-1 atom-5" d="M 512.8,156.3 L 510.7,147.4" style="fill:none;fill-rule:evenodd;stroke:#0000FF;stroke-width:2.0px;stroke-linecap:butt;stroke-linejoin:miter;stroke-opacity:1"/>
<path class="bond-6 atom-2 atom-3" d="M 494.0,177.8 L 486.8,171.6" style="fill:none;fill-rule:evenodd;stroke:#000000;stroke-width:2.0px;stroke-linecap:butt;stroke-linejoin:miter;stroke-opacity:1"/>
<path class="bond-6 atom-2 atom-3" d="M 486.8,171.6 L 479.7,165.4" style="fill:none;fill-rule:evenodd;stroke:#CCCC00;stroke-width:2.0px;stroke-linecap:butt;stroke-linejoin:miter;stroke-opacity:1"/>
<path class="bond-7 atom-2 atom-31" d="M 494.0,177.8 L 492.6,195.8" style="fill:none;fill-rule:evenodd;stroke:#000000;stroke-width:2.0px;stroke-linecap:butt;stroke-linejoin:miter;stroke-opacity:1"/>
<path class="bond-8 atom-3 atom-4" d="M 478.1,155.9 L 481.5,147.7" style="fill:none;fill-rule:evenodd;stroke:#CCCC00;stroke-width:2.0px;stroke-linecap:butt;stroke-linejoin:miter;stroke-opacity:1"/>
<path class="bond-8 atom-3 atom-4" d="M 481.5,147.7 L 485.0,139.4" style="fill:none;fill-rule:evenodd;stroke:#000000;stroke-width:2.0px;stroke-linecap:butt;stroke-linejoin:miter;stroke-opacity:1"/>
<path class="bond-9 atom-4 atom-5" d="M 485.0,139.4 L 494.8,140.2" style="fill:none;fill-rule:evenodd;stroke:#000000;stroke-width:2.0px;stroke-linecap:butt;stroke-linejoin:miter;stroke-opacity:1"/>
<path class="bond-9 atom-4 atom-5" d="M 494.8,140.2 L 504.6,141.0" style="fill:none;fill-rule:evenodd;stroke:#0000FF;stroke-width:2.0px;stroke-linecap:butt;stroke-linejoin:miter;stroke-opacity:1"/>
<path class="bond-9 atom-4 atom-5" d="M 487.6,144.0 L 494.4,144.6" style="fill:none;fill-rule:evenodd;stroke:#000000;stroke-width:2.0px;stroke-linecap:butt;stroke-linejoin:miter;stroke-opacity:1"/>
<path class="bond-9 atom-4 atom-5" d="M 494.4,144.6 L 501.3,145.2" style="fill:none;fill-rule:evenodd;stroke:#0000FF;stroke-width:2.0px;stroke-linecap:butt;stroke-linejoin:miter;stroke-opacity:1"/>
<path class="bond-10 atom-4 atom-6" d="M 485.0,139.4 L 472.7,118.0" style="fill:none;fill-rule:evenodd;stroke:#000000;stroke-width:2.0px;stroke-linecap:butt;stroke-linejoin:miter;stroke-opacity:1"/>
<path class="bond-11 atom-6 atom-7" d="M 472.7,118.0 L 484.9,96.9" style="fill:none;fill-rule:evenodd;stroke:#000000;stroke-width:2.0px;stroke-linecap:butt;stroke-linejoin:miter;stroke-opacity:1"/>
<path class="bond-11 atom-6 atom-7" d="M 470.7,112.7 L 479.2,97.9" style="fill:none;fill-rule:evenodd;stroke:#000000;stroke-width:2.0px;stroke-linecap:butt;stroke-linejoin:miter;stroke-opacity:1"/>
<path class="bond-12 atom-6 atom-27" d="M 472.7,118.0 L 448.3,118.1" style="fill:none;fill-rule:evenodd;stroke:#000000;stroke-width:2.0px;stroke-linecap:butt;stroke-linejoin:miter;stroke-opacity:1"/>
<path class="bond-13 atom-7 atom-8" d="M 484.9,96.9 L 472.6,75.8" style="fill:none;fill-rule:evenodd;stroke:#000000;stroke-width:2.0px;stroke-linecap:butt;stroke-linejoin:miter;stroke-opacity:1"/>
<path class="bond-14 atom-7 atom-32" d="M 484.9,96.9 L 504.4,96.8" style="fill:none;fill-rule:evenodd;stroke:#000000;stroke-width:2.0px;stroke-linecap:butt;stroke-linejoin:miter;stroke-opacity:1"/>
<path class="bond-15 atom-8 atom-9" d="M 472.6,75.8 L 448.3,75.9" style="fill:none;fill-rule:evenodd;stroke:#000000;stroke-width:2.0px;stroke-linecap:butt;stroke-linejoin:miter;stroke-opacity:1"/>
<path class="bond-15 atom-8 atom-9" d="M 469.0,80.2 L 451.9,80.2" style="fill:none;fill-rule:evenodd;stroke:#000000;stroke-width:2.0px;stroke-linecap:butt;stroke-linejoin:miter;stroke-opacity:1"/>
<path class="bond-16 atom-8 atom-33" d="M 472.6,75.8 L 481.3,60.7" style="fill:none;fill-rule:evenodd;stroke:#000000;stroke-width:2.0px;stroke-linecap:butt;stroke-linejoin:miter;stroke-opacity:1"/>
<path class="bond-17 atom-9 atom-10" d="M 448.3,75.9 L 436.1,97.0" style="fill:none;fill-rule:evenodd;stroke:#000000;stroke-width:2.0px;stroke-linecap:butt;stroke-linejoin:miter;stroke-opacity:1"/>
<path class="bond-18 atom-9 atom-34" d="M 448.3,75.9 L 439.5,60.7" style="fill:none;fill-rule:evenodd;stroke:#000000;stroke-width:2.0px;stroke-linecap:butt;stroke-linejoin:miter;stroke-opacity:1"/>
<path class="bond-19 atom-10 atom-11" d="M 436.1,97.0 L 411.7,97.1" style="fill:none;fill-rule:evenodd;stroke:#000000;stroke-width:2.0px;stroke-linecap:butt;stroke-linejoin:miter;stroke-opacity:1"/>
<path class="bond-20 atom-10 atom-27" d="M 436.1,97.0 L 448.3,118.1" style="fill:none;fill-rule:evenodd;stroke:#000000;stroke-width:2.0px;stroke-linecap:butt;stroke-linejoin:miter;stroke-opacity:1"/>
<path class="bond-20 atom-10 atom-27" d="M 441.7,98.0 L 450.3,112.7" style="fill:none;fill-rule:evenodd;stroke:#000000;stroke-width:2.0px;stroke-linecap:butt;stroke-linejoin:miter;stroke-opacity:1"/>
<path class="bond-21 atom-11 atom-12" d="M 411.7,97.1 L 407.4,104.6" style="fill:none;fill-rule:evenodd;stroke:#000000;stroke-width:2.0px;stroke-linecap:butt;stroke-linejoin:miter;stroke-opacity:1"/>
<path class="bond-21 atom-11 atom-12" d="M 407.4,104.6 L 403.0,112.2" style="fill:none;fill-rule:evenodd;stroke:#0000FF;stroke-width:2.0px;stroke-linecap:butt;stroke-linejoin:miter;stroke-opacity:1"/>
<path class="bond-22 atom-11 atom-35" d="M 411.7,97.1 L 411.7,78.7" style="fill:none;fill-rule:evenodd;stroke:#000000;stroke-width:2.0px;stroke-linecap:butt;stroke-linejoin:miter;stroke-opacity:1"/>
<path class="bond-23 atom-11 atom-36" d="M 411.7,97.1 L 395.4,87.7" style="fill:none;fill-rule:evenodd;stroke:#000000;stroke-width:2.0px;stroke-linecap:butt;stroke-linejoin:miter;stroke-opacity:1"/>
<path class="bond-24 atom-12 atom-13" d="M 403.0,124.2 L 408.3,133.3" style="fill:none;fill-rule:evenodd;stroke:#0000FF;stroke-width:2.0px;stroke-linecap:butt;stroke-linejoin:miter;stroke-opacity:1"/>
<path class="bond-25 atom-12 atom-17" d="M 394.8,118.2 L 385.0,118.2" style="fill:none;fill-rule:evenodd;stroke:#0000FF;stroke-width:2.0px;stroke-linecap:butt;stroke-linejoin:miter;stroke-opacity:1"/>
<path class="bond-25 atom-12 atom-17" d="M 385.0,118.2 L 375.2,118.2" style="fill:none;fill-rule:evenodd;stroke:#000000;stroke-width:2.0px;stroke-linecap:butt;stroke-linejoin:miter;stroke-opacity:1"/>
<path class="bond-26 atom-13 atom-14" d="M 408.4,145.3 L 404.0,152.8" style="fill:none;fill-rule:evenodd;stroke:#0000FF;stroke-width:2.0px;stroke-linecap:butt;stroke-linejoin:miter;stroke-opacity:1"/>
<path class="bond-26 atom-13 atom-14" d="M 404.0,152.8 L 399.7,160.4" style="fill:none;fill-rule:evenodd;stroke:#000000;stroke-width:2.0px;stroke-linecap:butt;stroke-linejoin:miter;stroke-opacity:1"/>
<path class="bond-26 atom-13 atom-14" d="M 403.3,145.3 L 400.2,150.7" style="fill:none;fill-rule:evenodd;stroke:#0000FF;stroke-width:2.0px;stroke-linecap:butt;stroke-linejoin:miter;stroke-opacity:1"/>
<path class="bond-26 atom-13 atom-14" d="M 400.2,150.7 L 397.2,156.0" style="fill:none;fill-rule:evenodd;stroke:#000000;stroke-width:2.0px;stroke-linecap:butt;stroke-linejoin:miter;stroke-opacity:1"/>
<path class="bond-27 atom-14 atom-15" d="M 399.7,160.4 L 375.3,160.5" style="fill:none;fill-rule:evenodd;stroke:#000000;stroke-width:2.0px;stroke-linecap:butt;stroke-linejoin:miter;stroke-opacity:1"/>
<path class="bond-28 atom-14 atom-19" d="M 399.7,160.4 L 412.2,181.6" style="fill:none;fill-rule:evenodd;stroke:#000000;stroke-width:2.0px;stroke-linecap:butt;stroke-linejoin:miter;stroke-opacity:1"/>
<path class="bond-29 atom-15 atom-16" d="M 375.3,160.5 L 363.0,139.4" style="fill:none;fill-rule:evenodd;stroke:#000000;stroke-width:2.0px;stroke-linecap:butt;stroke-linejoin:miter;stroke-opacity:1"/>
<path class="bond-29 atom-15 atom-16" d="M 377.3,155.1 L 368.7,140.3" style="fill:none;fill-rule:evenodd;stroke:#000000;stroke-width:2.0px;stroke-linecap:butt;stroke-linejoin:miter;stroke-opacity:1"/>
<path class="bond-30 atom-15 atom-37" d="M 375.3,160.5 L 366.6,175.6" style="fill:none;fill-rule:evenodd;stroke:#000000;stroke-width:2.0px;stroke-linecap:butt;stroke-linejoin:miter;stroke-opacity:1"/>
<path class="bond-31 atom-16 atom-17" d="M 363.0,139.4 L 375.2,118.2" style="fill:none;fill-rule:evenodd;stroke:#000000;stroke-width:2.0px;stroke-linecap:butt;stroke-linejoin:miter;stroke-opacity:1"/>
<path class="bond-32 atom-16 atom-38" d="M 363.0,139.4 L 343.5,139.4" style="fill:none;fill-rule:evenodd;stroke:#000000;stroke-width:2.0px;stroke-linecap:butt;stroke-linejoin:miter;stroke-opacity:1"/>
<path class="bond-33 atom-17 atom-18" d="M 373.3,119.3 L 369.0,111.9" style="fill:none;fill-rule:evenodd;stroke:#000000;stroke-width:2.0px;stroke-linecap:butt;stroke-linejoin:miter;stroke-opacity:1"/>
<path class="bond-33 atom-17 atom-18" d="M 369.0,111.9 L 364.7,104.5" style="fill:none;fill-rule:evenodd;stroke:#FF0000;stroke-width:2.0px;stroke-linecap:butt;stroke-linejoin:miter;stroke-opacity:1"/>
<path class="bond-33 atom-17 atom-18" d="M 377.1,117.1 L 372.8,109.7" style="fill:none;fill-rule:evenodd;stroke:#000000;stroke-width:2.0px;stroke-linecap:butt;stroke-linejoin:miter;stroke-opacity:1"/>
<path class="bond-33 atom-17 atom-18" d="M 372.8,109.7 L 368.4,102.3" style="fill:none;fill-rule:evenodd;stroke:#FF0000;stroke-width:2.0px;stroke-linecap:butt;stroke-linejoin:miter;stroke-opacity:1"/>
<path class="bond-34 atom-19 atom-20" d="M 412.2,181.6 L 399.9,202.6" style="fill:none;fill-rule:evenodd;stroke:#000000;stroke-width:2.0px;stroke-linecap:butt;stroke-linejoin:miter;stroke-opacity:1"/>
<path class="bond-34 atom-19 atom-20" d="M 414.1,186.9 L 405.5,201.7" style="fill:none;fill-rule:evenodd;stroke:#000000;stroke-width:2.0px;stroke-linecap:butt;stroke-linejoin:miter;stroke-opacity:1"/>
<path class="bond-35 atom-19 atom-26" d="M 412.2,181.6 L 436.6,181.8" style="fill:none;fill-rule:evenodd;stroke:#000000;stroke-width:2.0px;stroke-linecap:butt;stroke-linejoin:miter;stroke-opacity:1"/>
<path class="bond-36 atom-20 atom-21" d="M 399.9,202.6 L 411.9,223.9" style="fill:none;fill-rule:evenodd;stroke:#000000;stroke-width:2.0px;stroke-linecap:butt;stroke-linejoin:miter;stroke-opacity:1"/>
<path class="bond-37 atom-20 atom-39" d="M 399.9,202.6 L 380.3,202.5" style="fill:none;fill-rule:evenodd;stroke:#000000;stroke-width:2.0px;stroke-linecap:butt;stroke-linejoin:miter;stroke-opacity:1"/>
<path class="bond-38 atom-21 atom-22" d="M 411.9,223.9 L 407.5,231.4" style="fill:none;fill-rule:evenodd;stroke:#000000;stroke-width:2.0px;stroke-linecap:butt;stroke-linejoin:miter;stroke-opacity:1"/>
<path class="bond-38 atom-21 atom-22" d="M 407.5,231.4 L 403.1,238.9" style="fill:none;fill-rule:evenodd;stroke:#33CCCC;stroke-width:2.0px;stroke-linecap:butt;stroke-linejoin:miter;stroke-opacity:1"/>
<path class="bond-39 atom-21 atom-23" d="M 411.9,223.9 L 436.3,224.1" style="fill:none;fill-rule:evenodd;stroke:#000000;stroke-width:2.0px;stroke-linecap:butt;stroke-linejoin:miter;stroke-opacity:1"/>
<path class="bond-39 atom-21 atom-23" d="M 415.6,219.5 L 432.7,219.7" style="fill:none;fill-rule:evenodd;stroke:#000000;stroke-width:2.0px;stroke-linecap:butt;stroke-linejoin:miter;stroke-opacity:1"/>
<path class="bond-40 atom-23 atom-24" d="M 436.3,224.1 L 448.7,203.1" style="fill:none;fill-rule:evenodd;stroke:#000000;stroke-width:2.0px;stroke-linecap:butt;stroke-linejoin:miter;stroke-opacity:1"/>
<path class="bond-41 atom-23 atom-40" d="M 436.3,224.1 L 444.9,239.3" style="fill:none;fill-rule:evenodd;stroke:#000000;stroke-width:2.0px;stroke-linecap:butt;stroke-linejoin:miter;stroke-opacity:1"/>
<path class="bond-42 atom-24 atom-25" d="M 448.7,203.1 L 458.7,203.2" style="fill:none;fill-rule:evenodd;stroke:#000000;stroke-width:2.0px;stroke-linecap:butt;stroke-linejoin:miter;stroke-opacity:1"/>
<path class="bond-42 atom-24 atom-25" d="M 458.7,203.2 L 468.8,203.3" style="fill:none;fill-rule:evenodd;stroke:#33CCCC;stroke-width:2.0px;stroke-linecap:butt;stroke-linejoin:miter;stroke-opacity:1"/>
<path class="bond-43 atom-24 atom-26" d="M 448.7,203.1 L 436.6,181.8" style="fill:none;fill-rule:evenodd;stroke:#000000;stroke-width:2.0px;stroke-linecap:butt;stroke-linejoin:miter;stroke-opacity:1"/>
<path class="bond-43 atom-24 atom-26" d="M 443.0,202.1 L 434.6,187.2" style="fill:none;fill-rule:evenodd;stroke:#000000;stroke-width:2.0px;stroke-linecap:butt;stroke-linejoin:miter;stroke-opacity:1"/>
<path class="bond-44 atom-26 atom-41" d="M 436.6,181.8 L 445.4,166.8" style="fill:none;fill-rule:evenodd;stroke:#000000;stroke-width:2.0px;stroke-linecap:butt;stroke-linejoin:miter;stroke-opacity:1"/>
<path class="bond-45 atom-27 atom-42" d="M 448.3,118.1 L 439.6,133.2" style="fill:none;fill-rule:evenodd;stroke:#000000;stroke-width:2.0px;stroke-linecap:butt;stroke-linejoin:miter;stroke-opacity:1"/>
<path class="atom-3" d="M 472.6 165.4 Q 472.8 165.5, 473.2 165.7 Q 473.7 165.9, 474.2 166.0 Q 474.8 166.1, 475.3 166.1 Q 476.3 166.1, 476.9 165.6 Q 477.4 165.2, 477.4 164.3 Q 477.4 163.8, 477.1 163.4 Q 476.9 163.1, 476.4 162.9 Q 476.0 162.7, 475.3 162.5 Q 474.3 162.2, 473.8 161.9 Q 473.2 161.7, 472.8 161.1 Q 472.5 160.5, 472.5 159.6 Q 472.5 158.3, 473.3 157.5 Q 474.2 156.7, 476.0 156.7 Q 477.2 156.7, 478.5 157.3 L 478.2 158.4 Q 477.0 157.9, 476.0 157.9 Q 475.0 157.9, 474.5 158.3 Q 473.9 158.7, 473.9 159.4 Q 473.9 160.0, 474.2 160.3 Q 474.5 160.7, 474.9 160.9 Q 475.3 161.0, 476.0 161.3 Q 477.0 161.6, 477.5 161.8 Q 478.1 162.1, 478.5 162.7 Q 478.9 163.3, 478.9 164.3 Q 478.9 165.8, 477.9 166.5 Q 477.0 167.3, 475.4 167.3 Q 474.4 167.3, 473.7 167.1 Q 473.1 166.9, 472.2 166.6 L 472.6 165.4 " fill="#CCCC00"/>
<path class="atom-5" d="M 507.0 136.3 L 510.4 141.7 Q 510.8 142.3, 511.3 143.3 Q 511.8 144.2, 511.9 144.3 L 511.9 136.3 L 513.2 136.3 L 513.2 146.6 L 511.8 146.6 L 508.2 140.6 Q 507.8 139.9, 507.3 139.1 Q 506.9 138.3, 506.7 138.1 L 506.7 146.6 L 505.4 146.6 L 505.4 136.3 L 507.0 136.3 " fill="#0000FF"/>
<path class="atom-12" d="M 397.3 113.0 L 400.7 118.5 Q 401.0 119.0, 401.5 120.0 Q 402.1 121.0, 402.1 121.1 L 402.1 113.0 L 403.5 113.0 L 403.5 123.4 L 402.1 123.4 L 398.4 117.4 Q 398.0 116.7, 397.6 115.9 Q 397.1 115.1, 397.0 114.8 L 397.0 123.4 L 395.6 123.4 L 395.6 113.0 L 397.3 113.0 " fill="#0000FF"/>
<path class="atom-13" d="M 409.5 134.1 L 412.9 139.6 Q 413.3 140.1, 413.8 141.1 Q 414.3 142.1, 414.4 142.1 L 414.4 134.1 L 415.8 134.1 L 415.8 144.4 L 414.3 144.4 L 410.7 138.5 Q 410.3 137.7, 409.8 136.9 Q 409.4 136.1, 409.2 135.9 L 409.2 144.4 L 407.9 144.4 L 407.9 134.1 L 409.5 134.1 " fill="#0000FF"/>
<path class="atom-18" d="M 358.2 97.2 Q 358.2 94.7, 359.4 93.3 Q 360.6 91.9, 362.9 91.9 Q 365.2 91.9, 366.5 93.3 Q 367.7 94.7, 367.7 97.2 Q 367.7 99.7, 366.5 101.1 Q 365.2 102.6, 362.9 102.6 Q 360.7 102.6, 359.4 101.1 Q 358.2 99.7, 358.2 97.2 M 362.9 101.4 Q 364.5 101.4, 365.4 100.3 Q 366.2 99.3, 366.2 97.2 Q 366.2 95.2, 365.4 94.1 Q 364.5 93.1, 362.9 93.1 Q 361.4 93.1, 360.5 94.1 Q 359.7 95.1, 359.7 97.2 Q 359.7 99.3, 360.5 100.3 Q 361.4 101.4, 362.9 101.4 " fill="#FF0000"/>
<path class="atom-22" d="M 396.5 239.7 L 402.6 239.7 L 402.6 240.9 L 397.9 240.9 L 397.9 244.0 L 402.1 244.0 L 402.1 245.2 L 397.9 245.2 L 397.9 250.0 L 396.5 250.0 L 396.5 239.7 " fill="#33CCCC"/>
<path class="atom-25" d="M 469.6 198.2 L 475.8 198.2 L 475.8 199.4 L 471.0 199.4 L 471.0 202.5 L 475.2 202.5 L 475.2 203.7 L 471.0 203.7 L 471.0 208.6 L 469.6 208.6 L 469.6 198.2 " fill="#33CCCC"/>
<path class="atom-28" d="M 542.9 147.4 L 544.3 147.4 L 544.3 151.9 L 549.6 151.9 L 549.6 147.4 L 551.0 147.4 L 551.0 157.8 L 549.6 157.8 L 549.6 153.0 L 544.3 153.0 L 544.3 157.8 L 542.9 157.8 L 542.9 147.4 " fill="#000000"/>
<path class="atom-29" d="M 557.3 167.2 L 558.7 167.2 L 558.7 171.6 L 564.0 171.6 L 564.0 167.2 L 565.4 167.2 L 565.4 177.5 L 564.0 177.5 L 564.0 172.8 L 558.7 172.8 L 558.7 177.5 L 557.3 177.5 L 557.3 167.2 " fill="#000000"/>
<path class="atom-30" d="M 535.6 194.0 L 537.0 194.0 L 537.0 198.4 L 542.3 198.4 L 542.3 194.0 L 543.7 194.0 L 543.7 204.3 L 542.3 204.3 L 542.3 199.6 L 537.0 199.6 L 537.0 204.3 L 535.6 204.3 L 535.6 194.0 " fill="#000000"/>
<path class="atom-31" d="M 488.1 196.6 L 489.5 196.6 L 489.5 201.0 L 494.8 201.0 L 494.8 196.6 L 496.2 196.6 L 496.2 206.9 L 494.8 206.9 L 494.8 202.2 L 489.5 202.2 L 489.5 206.9 L 488.1 206.9 L 488.1 196.6 " fill="#000000"/>
<path class="atom-32" d="M 505.2 91.6 L 506.6 91.6 L 506.6 96.0 L 511.9 96.0 L 511.9 91.6 L 513.3 91.6 L 513.3 102.0 L 511.9 102.0 L 511.9 97.2 L 506.6 97.2 L 506.6 102.0 L 505.2 102.0 L 505.2 91.6 " fill="#000000"/>
<path class="atom-33" d="M 480.7 49.5 L 482.1 49.5 L 482.1 53.9 L 487.4 53.9 L 487.4 49.5 L 488.8 49.5 L 488.8 59.9 L 487.4 59.9 L 487.4 55.1 L 482.1 55.1 L 482.1 59.9 L 480.7 59.9 L 480.7 49.5 " fill="#000000"/>
<path class="atom-34" d="M 432.0 49.6 L 433.4 49.6 L 433.4 54.0 L 438.7 54.0 L 438.7 49.6 L 440.1 49.6 L 440.1 59.9 L 438.7 59.9 L 438.7 55.1 L 433.4 55.1 L 433.4 59.9 L 432.0 59.9 L 432.0 49.6 " fill="#000000"/>
<path class="atom-35" d="M 407.6 67.5 L 409.0 67.5 L 409.0 71.9 L 414.3 71.9 L 414.3 67.5 L 415.7 67.5 L 415.7 77.8 L 414.3 77.8 L 414.3 73.1 L 409.0 73.1 L 409.0 77.8 L 407.6 77.8 L 407.6 67.5 " fill="#000000"/>
<path class="atom-36" d="M 386.5 79.7 L 387.9 79.7 L 387.9 84.1 L 393.2 84.1 L 393.2 79.7 L 394.6 79.7 L 394.6 90.1 L 393.2 90.1 L 393.2 85.3 L 387.9 85.3 L 387.9 90.1 L 386.5 90.1 L 386.5 79.7 " fill="#000000"/>
<path class="atom-37" d="M 359.1 176.4 L 360.5 176.4 L 360.5 180.8 L 365.8 180.8 L 365.8 176.4 L 367.2 176.4 L 367.2 186.8 L 365.8 186.8 L 365.8 182.0 L 360.5 182.0 L 360.5 186.8 L 359.1 186.8 L 359.1 176.4 " fill="#000000"/>
<path class="atom-38" d="M 334.6 134.2 L 336.0 134.2 L 336.0 138.7 L 341.3 138.7 L 341.3 134.2 L 342.7 134.2 L 342.7 144.6 L 341.3 144.6 L 341.3 139.8 L 336.0 139.8 L 336.0 144.6 L 334.6 144.6 L 334.6 134.2 " fill="#000000"/>
<path class="atom-39" d="M 371.4 197.3 L 372.8 197.3 L 372.8 201.7 L 378.1 201.7 L 378.1 197.3 L 379.5 197.3 L 379.5 207.6 L 378.1 207.6 L 378.1 202.8 L 372.8 202.8 L 372.8 207.6 L 371.4 207.6 L 371.4 197.3 " fill="#000000"/>
<path class="atom-40" d="M 444.3 240.1 L 445.7 240.1 L 445.7 244.5 L 451.0 244.5 L 451.0 240.1 L 452.4 240.1 L 452.4 250.5 L 451.0 250.5 L 451.0 245.7 L 445.7 245.7 L 445.7 250.5 L 444.3 250.5 L 444.3 240.1 " fill="#000000"/>
<path class="atom-41" d="M 444.9 155.6 L 446.3 155.6 L 446.3 160.0 L 451.6 160.0 L 451.6 155.6 L 453.0 155.6 L 453.0 166.0 L 451.6 166.0 L 451.6 161.2 L 446.3 161.2 L 446.3 166.0 L 444.9 166.0 L 444.9 155.6 " fill="#000000"/>
<path class="atom-42" d="M 432.1 134.0 L 433.5 134.0 L 433.5 138.4 L 438.8 138.4 L 438.8 134.0 L 440.2 134.0 L 440.2 144.4 L 438.8 144.4 L 438.8 139.6 L 433.5 139.6 L 433.5 144.4 L 432.1 144.4 L 432.1 134.0 " fill="#000000"/>
<text x="300" y="20" font-size="20" font-family="sans-serif" font-weight="normal" letter-spacing="0" text-anchor="middle" fill="black">cmet CHEMBL3402748_5300_8 -&gt; CHEMBL3402751_2100_11 </text><text x="150" y="285" font-size="15" font-family="sans-serif" font-weight="normal" letter-spacing="0" text-anchor="middle" fill="black">CHEMBL3402748_5300_8</text><text x="450" y="285" font-size="15" font-family="sans-serif" font-weight="normal" letter-spacing="0" text-anchor="middle" fill="black">CHEMBL3402751_2100_11</text></svg>
