<?xml version='1.0' encoding='ASCII' standalone='yes'?>
<svg xmlns="http://www.w3.org/2000/svg" xmlns:rdkit="http://www.rdkit.org/xml" xmlns:xlink="http://www.w3.org/1999/xlink" version="1.1" baseProfile="full" xml:space="preserve" width="600px" height="300px" viewBox="0 0 600 300">
<!-- END OF HEADER -->
<rect style="opacity:1.0;fill:#FFFFFF;stroke:none" width="600.0" height="300.0" x="0.0" y="0.0"> </rect>
<path class="bond-0 atom-0 atom-1" d="M 59.1,169.2 L 56.8,161.4" style="fill:none;fill-rule:evenodd;stroke:#FF0000;stroke-width:2.0px;stroke-linecap:butt;stroke-linejoin:miter;stroke-opacity:1"/>
<path class="bond-0 atom-0 atom-1" d="M 56.8,161.4 L 54.6,153.5" style="fill:none;fill-rule:evenodd;stroke:#000000;stroke-width:2.0px;stroke-linecap:butt;stroke-linejoin:miter;stroke-opacity:1"/>
<path class="bond-0 atom-0 atom-1" d="M 62.9,168.1 L 60.7,160.3" style="fill:none;fill-rule:evenodd;stroke:#FF0000;stroke-width:2.0px;stroke-linecap:butt;stroke-linejoin:miter;stroke-opacity:1"/>
<path class="bond-0 atom-0 atom-1" d="M 60.7,160.3 L 58.5,152.4" style="fill:none;fill-rule:evenodd;stroke:#000000;stroke-width:2.0px;stroke-linecap:butt;stroke-linejoin:miter;stroke-opacity:1"/>
<path class="bond-1 atom-1 atom-2" d="M 56.5,153.0 L 48.5,151.0" style="fill:none;fill-rule:evenodd;stroke:#000000;stroke-width:2.0px;stroke-linecap:butt;stroke-linejoin:miter;stroke-opacity:1"/>
<path class="bond-1 atom-1 atom-2" d="M 48.5,151.0 L 40.5,148.9" style="fill:none;fill-rule:evenodd;stroke:#FF0000;stroke-width:2.0px;stroke-linecap:butt;stroke-linejoin:miter;stroke-opacity:1"/>
<path class="bond-2 atom-1 atom-3" d="M 56.5,153.0 L 70.4,138.7" style="fill:none;fill-rule:evenodd;stroke:#000000;stroke-width:2.0px;stroke-linecap:butt;stroke-linejoin:miter;stroke-opacity:1"/>
<path class="bond-3 atom-3 atom-4" d="M 70.4,138.7 L 75.8,133.2" style="fill:none;fill-rule:evenodd;stroke:#000000;stroke-width:2.0px;stroke-linecap:butt;stroke-linejoin:miter;stroke-opacity:1"/>
<path class="bond-3 atom-3 atom-4" d="M 75.8,133.2 L 81.1,127.7" style="fill:none;fill-rule:evenodd;stroke:#FF0000;stroke-width:2.0px;stroke-linecap:butt;stroke-linejoin:miter;stroke-opacity:1"/>
<path class="bond-4 atom-3 atom-21" d="M 70.4,138.7 L 59.0,127.6" style="fill:none;fill-rule:evenodd;stroke:#000000;stroke-width:2.0px;stroke-linecap:butt;stroke-linejoin:miter;stroke-opacity:1"/>
<path class="bond-5 atom-3 atom-22" d="M 70.4,138.7 L 81.9,149.8" style="fill:none;fill-rule:evenodd;stroke:#000000;stroke-width:2.0px;stroke-linecap:butt;stroke-linejoin:miter;stroke-opacity:1"/>
<path class="bond-6 atom-4 atom-5" d="M 87.6,125.2 L 95.6,127.2" style="fill:none;fill-rule:evenodd;stroke:#FF0000;stroke-width:2.0px;stroke-linecap:butt;stroke-linejoin:miter;stroke-opacity:1"/>
<path class="bond-6 atom-4 atom-5" d="M 95.6,127.2 L 103.7,129.3" style="fill:none;fill-rule:evenodd;stroke:#000000;stroke-width:2.0px;stroke-linecap:butt;stroke-linejoin:miter;stroke-opacity:1"/>
<path class="bond-7 atom-5 atom-6" d="M 103.7,129.3 L 111.1,147.8" style="fill:none;fill-rule:evenodd;stroke:#000000;stroke-width:2.0px;stroke-linecap:butt;stroke-linejoin:miter;stroke-opacity:1"/>
<path class="bond-8 atom-5 atom-17" d="M 103.7,129.3 L 119.0,116.5" style="fill:none;fill-rule:evenodd;stroke:#000000;stroke-width:2.0px;stroke-linecap:butt;stroke-linejoin:miter;stroke-opacity:1"/>
<path class="bond-8 atom-5 atom-17" d="M 108.5,130.4 L 119.3,121.5" style="fill:none;fill-rule:evenodd;stroke:#000000;stroke-width:2.0px;stroke-linecap:butt;stroke-linejoin:miter;stroke-opacity:1"/>
<path class="bond-9 atom-6 atom-7" d="M 111.1,147.8 L 106.4,155.2" style="fill:none;fill-rule:evenodd;stroke:#000000;stroke-width:2.0px;stroke-linecap:butt;stroke-linejoin:miter;stroke-opacity:1"/>
<path class="bond-9 atom-6 atom-7" d="M 106.4,155.2 L 101.7,162.7" style="fill:none;fill-rule:evenodd;stroke:#7F4C19;stroke-width:2.0px;stroke-linecap:butt;stroke-linejoin:miter;stroke-opacity:1"/>
<path class="bond-10 atom-6 atom-8" d="M 111.1,147.8 L 131.0,146.5" style="fill:none;fill-rule:evenodd;stroke:#000000;stroke-width:2.0px;stroke-linecap:butt;stroke-linejoin:miter;stroke-opacity:1"/>
<path class="bond-10 atom-6 atom-8" d="M 113.8,143.6 L 127.7,142.7" style="fill:none;fill-rule:evenodd;stroke:#000000;stroke-width:2.0px;stroke-linecap:butt;stroke-linejoin:miter;stroke-opacity:1"/>
<path class="bond-11 atom-8 atom-9" d="M 131.0,146.5 L 143.8,161.8" style="fill:none;fill-rule:evenodd;stroke:#000000;stroke-width:2.0px;stroke-linecap:butt;stroke-linejoin:miter;stroke-opacity:1"/>
<path class="bond-12 atom-8 atom-16" d="M 131.0,146.5 L 133.0,138.6" style="fill:none;fill-rule:evenodd;stroke:#000000;stroke-width:2.0px;stroke-linecap:butt;stroke-linejoin:miter;stroke-opacity:1"/>
<path class="bond-12 atom-8 atom-16" d="M 133.0,138.6 L 135.0,130.7" style="fill:none;fill-rule:evenodd;stroke:#CCCC00;stroke-width:2.0px;stroke-linecap:butt;stroke-linejoin:miter;stroke-opacity:1"/>
<path class="bond-13 atom-9 atom-10" d="M 143.8,161.8 L 136.9,180.5" style="fill:none;fill-rule:evenodd;stroke:#000000;stroke-width:2.0px;stroke-linecap:butt;stroke-linejoin:miter;stroke-opacity:1"/>
<path class="bond-13 atom-9 atom-10" d="M 146.5,166.0 L 141.7,179.1" style="fill:none;fill-rule:evenodd;stroke:#000000;stroke-width:2.0px;stroke-linecap:butt;stroke-linejoin:miter;stroke-opacity:1"/>
<path class="bond-14 atom-9 atom-15" d="M 143.8,161.8 L 163.4,158.4" style="fill:none;fill-rule:evenodd;stroke:#000000;stroke-width:2.0px;stroke-linecap:butt;stroke-linejoin:miter;stroke-opacity:1"/>
<path class="bond-15 atom-10 atom-11" d="M 136.9,180.5 L 149.7,195.8" style="fill:none;fill-rule:evenodd;stroke:#000000;stroke-width:2.0px;stroke-linecap:butt;stroke-linejoin:miter;stroke-opacity:1"/>
<path class="bond-16 atom-10 atom-23" d="M 136.9,180.5 L 120.1,183.4" style="fill:none;fill-rule:evenodd;stroke:#000000;stroke-width:2.0px;stroke-linecap:butt;stroke-linejoin:miter;stroke-opacity:1"/>
<path class="bond-17 atom-11 atom-12" d="M 149.7,195.8 L 169.3,192.4" style="fill:none;fill-rule:evenodd;stroke:#000000;stroke-width:2.0px;stroke-linecap:butt;stroke-linejoin:miter;stroke-opacity:1"/>
<path class="bond-17 atom-11 atom-12" d="M 151.9,191.4 L 165.7,189.0" style="fill:none;fill-rule:evenodd;stroke:#000000;stroke-width:2.0px;stroke-linecap:butt;stroke-linejoin:miter;stroke-opacity:1"/>
<path class="bond-18 atom-11 atom-24" d="M 149.7,195.8 L 144.1,211.1" style="fill:none;fill-rule:evenodd;stroke:#000000;stroke-width:2.0px;stroke-linecap:butt;stroke-linejoin:miter;stroke-opacity:1"/>
<path class="bond-19 atom-12 atom-13" d="M 169.3,192.4 L 176.2,173.7" style="fill:none;fill-rule:evenodd;stroke:#000000;stroke-width:2.0px;stroke-linecap:butt;stroke-linejoin:miter;stroke-opacity:1"/>
<path class="bond-20 atom-12 atom-25" d="M 169.3,192.4 L 179.2,204.3" style="fill:none;fill-rule:evenodd;stroke:#000000;stroke-width:2.0px;stroke-linecap:butt;stroke-linejoin:miter;stroke-opacity:1"/>
<path class="bond-21 atom-13 atom-14" d="M 176.2,173.7 L 184.6,172.2" style="fill:none;fill-rule:evenodd;stroke:#000000;stroke-width:2.0px;stroke-linecap:butt;stroke-linejoin:miter;stroke-opacity:1"/>
<path class="bond-21 atom-13 atom-14" d="M 184.6,172.2 L 193.1,170.8" style="fill:none;fill-rule:evenodd;stroke:#0000FF;stroke-width:2.0px;stroke-linecap:butt;stroke-linejoin:miter;stroke-opacity:1"/>
<path class="bond-22 atom-13 atom-15" d="M 176.2,173.7 L 163.4,158.4" style="fill:none;fill-rule:evenodd;stroke:#000000;stroke-width:2.0px;stroke-linecap:butt;stroke-linejoin:miter;stroke-opacity:1"/>
<path class="bond-22 atom-13 atom-15" d="M 171.2,174.0 L 162.3,163.2" style="fill:none;fill-rule:evenodd;stroke:#000000;stroke-width:2.0px;stroke-linecap:butt;stroke-linejoin:miter;stroke-opacity:1"/>
<path class="bond-23 atom-14 atom-26" d="M 198.1,173.8 L 199.4,175.8" style="fill:none;fill-rule:evenodd;stroke:#0000FF;stroke-width:2.0px;stroke-linecap:butt;stroke-linejoin:miter;stroke-opacity:1"/>
<path class="bond-23 atom-14 atom-26" d="M 199.4,175.8 L 200.7,177.8" style="fill:none;fill-rule:evenodd;stroke:#000000;stroke-width:2.0px;stroke-linecap:butt;stroke-linejoin:miter;stroke-opacity:1"/>
<path class="bond-24 atom-14 atom-29" d="M 197.1,166.8 L 199.9,159.2" style="fill:none;fill-rule:evenodd;stroke:#0000FF;stroke-width:2.0px;stroke-linecap:butt;stroke-linejoin:miter;stroke-opacity:1"/>
<path class="bond-24 atom-14 atom-29" d="M 199.9,159.2 L 202.7,151.6" style="fill:none;fill-rule:evenodd;stroke:#000000;stroke-width:2.0px;stroke-linecap:butt;stroke-linejoin:miter;stroke-opacity:1"/>
<path class="bond-25 atom-15 atom-28" d="M 163.4,158.4 L 167.2,142.4" style="fill:none;fill-rule:evenodd;stroke:#000000;stroke-width:2.0px;stroke-linecap:butt;stroke-linejoin:miter;stroke-opacity:1"/>
<path class="bond-26 atom-16 atom-17" d="M 133.4,125.6 L 126.2,121.0" style="fill:none;fill-rule:evenodd;stroke:#CCCC00;stroke-width:2.0px;stroke-linecap:butt;stroke-linejoin:miter;stroke-opacity:1"/>
<path class="bond-26 atom-16 atom-17" d="M 126.2,121.0 L 119.0,116.5" style="fill:none;fill-rule:evenodd;stroke:#000000;stroke-width:2.0px;stroke-linecap:butt;stroke-linejoin:miter;stroke-opacity:1"/>
<path class="bond-27 atom-17 atom-18" d="M 119.0,116.5 L 117.7,96.6" style="fill:none;fill-rule:evenodd;stroke:#000000;stroke-width:2.0px;stroke-linecap:butt;stroke-linejoin:miter;stroke-opacity:1"/>
<path class="bond-28 atom-18 atom-19" d="M 116.6,94.9 L 123.2,90.5" style="fill:none;fill-rule:evenodd;stroke:#000000;stroke-width:2.0px;stroke-linecap:butt;stroke-linejoin:miter;stroke-opacity:1"/>
<path class="bond-28 atom-18 atom-19" d="M 123.2,90.5 L 129.9,86.0" style="fill:none;fill-rule:evenodd;stroke:#FF0000;stroke-width:2.0px;stroke-linecap:butt;stroke-linejoin:miter;stroke-opacity:1"/>
<path class="bond-28 atom-18 atom-19" d="M 118.8,98.3 L 125.4,93.8" style="fill:none;fill-rule:evenodd;stroke:#000000;stroke-width:2.0px;stroke-linecap:butt;stroke-linejoin:miter;stroke-opacity:1"/>
<path class="bond-28 atom-18 atom-19" d="M 125.4,93.8 L 132.1,89.3" style="fill:none;fill-rule:evenodd;stroke:#FF0000;stroke-width:2.0px;stroke-linecap:butt;stroke-linejoin:miter;stroke-opacity:1"/>
<path class="bond-29 atom-18 atom-20" d="M 117.7,96.6 L 110.3,93.0" style="fill:none;fill-rule:evenodd;stroke:#000000;stroke-width:2.0px;stroke-linecap:butt;stroke-linejoin:miter;stroke-opacity:1"/>
<path class="bond-29 atom-18 atom-20" d="M 110.3,93.0 L 103.0,89.4" style="fill:none;fill-rule:evenodd;stroke:#FF0000;stroke-width:2.0px;stroke-linecap:butt;stroke-linejoin:miter;stroke-opacity:1"/>
<path class="bond-30 atom-27 atom-29" d="M 185.6,151.5 L 202.7,151.6" style="fill:none;fill-rule:evenodd;stroke:#000000;stroke-width:2.0px;stroke-linecap:butt;stroke-linejoin:miter;stroke-opacity:1"/>
<path class="bond-31 atom-29 atom-30" d="M 202.7,151.6 L 219.4,162.4" style="fill:none;fill-rule:evenodd;stroke:#000000;stroke-width:2.0px;stroke-linecap:butt;stroke-linejoin:miter;stroke-opacity:1"/>
<path class="bond-32 atom-29 atom-35" d="M 202.7,151.6 L 200.8,131.7" style="fill:none;fill-rule:evenodd;stroke:#000000;stroke-width:2.0px;stroke-linecap:butt;stroke-linejoin:miter;stroke-opacity:1"/>
<path class="bond-33 atom-30 atom-31" d="M 219.4,162.4 L 238.4,156.2" style="fill:none;fill-rule:evenodd;stroke:#000000;stroke-width:2.0px;stroke-linecap:butt;stroke-linejoin:miter;stroke-opacity:1"/>
<path class="bond-34 atom-30 atom-36" d="M 219.4,162.4 L 215.6,170.8" style="fill:none;fill-rule:evenodd;stroke:#000000;stroke-width:2.0px;stroke-linecap:butt;stroke-linejoin:miter;stroke-opacity:1"/>
<path class="bond-35 atom-30 atom-37" d="M 219.4,162.4 L 226.1,177.2" style="fill:none;fill-rule:evenodd;stroke:#000000;stroke-width:2.0px;stroke-linecap:butt;stroke-linejoin:miter;stroke-opacity:1"/>
<path class="bond-36 atom-31 atom-32" d="M 238.4,156.2 L 245.3,137.4" style="fill:none;fill-rule:evenodd;stroke:#000000;stroke-width:2.0px;stroke-linecap:butt;stroke-linejoin:miter;stroke-opacity:1"/>
<path class="bond-37 atom-31 atom-38" d="M 238.4,156.2 L 241.9,172.2" style="fill:none;fill-rule:evenodd;stroke:#000000;stroke-width:2.0px;stroke-linecap:butt;stroke-linejoin:miter;stroke-opacity:1"/>
<path class="bond-38 atom-31 atom-39" d="M 238.4,156.2 L 254.8,160.4" style="fill:none;fill-rule:evenodd;stroke:#000000;stroke-width:2.0px;stroke-linecap:butt;stroke-linejoin:miter;stroke-opacity:1"/>
<path class="bond-39 atom-32 atom-33" d="M 245.3,137.4 L 234.9,120.4" style="fill:none;fill-rule:evenodd;stroke:#000000;stroke-width:2.0px;stroke-linecap:butt;stroke-linejoin:miter;stroke-opacity:1"/>
<path class="bond-40 atom-32 atom-40" d="M 245.3,137.4 L 260.3,144.8" style="fill:none;fill-rule:evenodd;stroke:#000000;stroke-width:2.0px;stroke-linecap:butt;stroke-linejoin:miter;stroke-opacity:1"/>
<path class="bond-41 atom-32 atom-41" d="M 245.3,137.4 L 258.3,127.6" style="fill:none;fill-rule:evenodd;stroke:#000000;stroke-width:2.0px;stroke-linecap:butt;stroke-linejoin:miter;stroke-opacity:1"/>
<path class="bond-42 atom-33 atom-34" d="M 234.9,120.4 L 215.1,117.8" style="fill:none;fill-rule:evenodd;stroke:#000000;stroke-width:2.0px;stroke-linecap:butt;stroke-linejoin:miter;stroke-opacity:1"/>
<path class="bond-43 atom-33 atom-42" d="M 234.9,120.4 L 250.1,113.2" style="fill:none;fill-rule:evenodd;stroke:#000000;stroke-width:2.0px;stroke-linecap:butt;stroke-linejoin:miter;stroke-opacity:1"/>
<path class="bond-44 atom-33 atom-43" d="M 234.9,120.4 L 235.3,103.9" style="fill:none;fill-rule:evenodd;stroke:#000000;stroke-width:2.0px;stroke-linecap:butt;stroke-linejoin:miter;stroke-opacity:1"/>
<path class="bond-45 atom-34 atom-35" d="M 215.1,117.8 L 200.8,131.7" style="fill:none;fill-rule:evenodd;stroke:#000000;stroke-width:2.0px;stroke-linecap:butt;stroke-linejoin:miter;stroke-opacity:1"/>
<path class="bond-46 atom-34 atom-44" d="M 215.1,117.8 L 218.9,101.9" style="fill:none;fill-rule:evenodd;stroke:#000000;stroke-width:2.0px;stroke-linecap:butt;stroke-linejoin:miter;stroke-opacity:1"/>
<path class="bond-47 atom-34 atom-45" d="M 215.1,117.8 L 202.7,107.4" style="fill:none;fill-rule:evenodd;stroke:#000000;stroke-width:2.0px;stroke-linecap:butt;stroke-linejoin:miter;stroke-opacity:1"/>
<path class="bond-48 atom-35 atom-46" d="M 200.8,131.7 L 191.2,119.5" style="fill:none;fill-rule:evenodd;stroke:#000000;stroke-width:2.0px;stroke-linecap:butt;stroke-linejoin:miter;stroke-opacity:1"/>
<path class="bond-49 atom-35 atom-47" d="M 200.8,131.7 L 183.8,133.0" style="fill:none;fill-rule:evenodd;stroke:#000000;stroke-width:2.0px;stroke-linecap:butt;stroke-linejoin:miter;stroke-opacity:1"/>
<path class="atom-0" d="M 59.4 172.2 Q 59.4 170.8, 60.1 170.1 Q 60.7 169.3, 62.0 169.3 Q 63.2 169.3, 63.9 170.1 Q 64.6 170.8, 64.6 172.2 Q 64.6 173.6, 63.9 174.3 Q 63.2 175.1, 62.0 175.1 Q 60.7 175.1, 60.1 174.3 Q 59.4 173.6, 59.4 172.2 M 62.0 174.5 Q 62.8 174.5, 63.3 173.9 Q 63.8 173.3, 63.8 172.2 Q 63.8 171.1, 63.3 170.5 Q 62.8 170.0, 62.0 170.0 Q 61.1 170.0, 60.6 170.5 Q 60.2 171.1, 60.2 172.2 Q 60.2 173.3, 60.6 173.9 Q 61.1 174.5, 62.0 174.5 " fill="#FF0000"/>
<path class="atom-2" d="M 34.6 148.1 Q 34.6 146.8, 35.3 146.0 Q 36.0 145.2, 37.2 145.2 Q 38.5 145.2, 39.1 146.0 Q 39.8 146.8, 39.8 148.1 Q 39.8 149.5, 39.1 150.3 Q 38.4 151.0, 37.2 151.0 Q 36.0 151.0, 35.3 150.3 Q 34.6 149.5, 34.6 148.1 M 37.2 150.4 Q 38.1 150.4, 38.5 149.8 Q 39.0 149.3, 39.0 148.1 Q 39.0 147.0, 38.5 146.5 Q 38.1 145.9, 37.2 145.9 Q 36.3 145.9, 35.9 146.4 Q 35.4 147.0, 35.4 148.1 Q 35.4 149.3, 35.9 149.8 Q 36.3 150.4, 37.2 150.4 " fill="#FF0000"/>
<path class="atom-2" d="M 40.2 146.2 L 42.1 146.2 L 42.1 146.6 L 40.2 146.6 L 40.2 146.2 " fill="#FF0000"/>
<path class="atom-4" d="M 81.8 124.4 Q 81.8 123.0, 82.4 122.3 Q 83.1 121.5, 84.3 121.5 Q 85.6 121.5, 86.3 122.3 Q 86.9 123.0, 86.9 124.4 Q 86.9 125.8, 86.3 126.6 Q 85.6 127.3, 84.3 127.3 Q 83.1 127.3, 82.4 126.6 Q 81.8 125.8, 81.8 124.4 M 84.3 126.7 Q 85.2 126.7, 85.7 126.1 Q 86.1 125.5, 86.1 124.4 Q 86.1 123.3, 85.7 122.7 Q 85.2 122.2, 84.3 122.2 Q 83.5 122.2, 83.0 122.7 Q 82.6 123.3, 82.6 124.4 Q 82.6 125.5, 83.0 126.1 Q 83.5 126.7, 84.3 126.7 " fill="#FF0000"/>
<path class="atom-7" d="M 97.8 164.5 Q 98.4 164.7, 98.7 165.0 Q 98.9 165.3, 98.9 165.8 Q 98.9 166.6, 98.4 167.1 Q 97.9 167.5, 97.0 167.5 L 95.1 167.5 L 95.1 161.8 L 96.8 161.8 Q 97.7 161.8, 98.2 162.2 Q 98.7 162.6, 98.7 163.3 Q 98.7 164.2, 97.8 164.5 M 95.8 162.5 L 95.8 164.3 L 96.8 164.3 Q 97.3 164.3, 97.6 164.0 Q 97.9 163.8, 97.9 163.3 Q 97.9 162.5, 96.8 162.5 L 95.8 162.5 M 97.0 166.9 Q 97.5 166.9, 97.8 166.6 Q 98.1 166.3, 98.1 165.8 Q 98.1 165.4, 97.8 165.1 Q 97.5 164.9, 96.9 164.9 L 95.8 164.9 L 95.8 166.9 L 97.0 166.9 " fill="#7F4C19"/>
<path class="atom-7" d="M 99.9 163.4 L 100.0 164.0 Q 100.4 163.3, 101.1 163.3 Q 101.3 163.3, 101.6 163.4 L 101.5 164.1 Q 101.2 164.0, 101.0 164.0 Q 100.7 164.0, 100.4 164.1 Q 100.2 164.3, 100.0 164.6 L 100.0 167.5 L 99.3 167.5 L 99.3 163.4 L 99.9 163.4 " fill="#7F4C19"/>
<path class="atom-14" d="M 194.6 167.5 L 196.4 170.5 Q 196.6 170.8, 196.9 171.3 Q 197.2 171.8, 197.2 171.9 L 197.2 167.5 L 198.0 167.5 L 198.0 173.1 L 197.2 173.1 L 195.2 169.8 Q 195.0 169.5, 194.7 169.0 Q 194.5 168.6, 194.4 168.5 L 194.4 173.1 L 193.7 173.1 L 193.7 167.5 L 194.6 167.5 " fill="#0000FF"/>
<path class="atom-16" d="M 134.3 129.1 Q 134.4 129.1, 134.6 129.2 Q 134.9 129.3, 135.2 129.4 Q 135.5 129.4, 135.7 129.4 Q 136.3 129.4, 136.6 129.2 Q 136.9 128.9, 136.9 128.5 Q 136.9 128.2, 136.7 128.0 Q 136.6 127.8, 136.4 127.7 Q 136.1 127.6, 135.7 127.4 Q 135.2 127.3, 134.9 127.2 Q 134.6 127.0, 134.4 126.7 Q 134.2 126.4, 134.2 125.9 Q 134.2 125.2, 134.7 124.7 Q 135.2 124.3, 136.1 124.3 Q 136.8 124.3, 137.5 124.6 L 137.3 125.2 Q 136.6 124.9, 136.1 124.9 Q 135.6 124.9, 135.3 125.2 Q 135.0 125.4, 135.0 125.8 Q 135.0 126.1, 135.1 126.3 Q 135.3 126.5, 135.5 126.6 Q 135.8 126.7, 136.1 126.8 Q 136.6 127.0, 137.0 127.1 Q 137.3 127.3, 137.5 127.6 Q 137.7 127.9, 137.7 128.5 Q 137.7 129.2, 137.2 129.7 Q 136.6 130.1, 135.8 130.1 Q 135.3 130.1, 134.9 130.0 Q 134.5 129.9, 134.1 129.7 L 134.3 129.1 " fill="#CCCC00"/>
<path class="atom-19" d="M 131.7 85.5 Q 131.7 84.2, 132.3 83.4 Q 133.0 82.6, 134.2 82.6 Q 135.5 82.6, 136.2 83.4 Q 136.8 84.2, 136.8 85.5 Q 136.8 86.9, 136.2 87.7 Q 135.5 88.4, 134.2 88.4 Q 133.0 88.4, 132.3 87.7 Q 131.7 86.9, 131.7 85.5 M 134.2 87.8 Q 135.1 87.8, 135.6 87.2 Q 136.0 86.6, 136.0 85.5 Q 136.0 84.4, 135.6 83.8 Q 135.1 83.3, 134.2 83.3 Q 133.4 83.3, 132.9 83.8 Q 132.4 84.4, 132.4 85.5 Q 132.4 86.7, 132.9 87.2 Q 133.4 87.8, 134.2 87.8 " fill="#FF0000"/>
<path class="atom-20" d="M 97.2 87.8 Q 97.2 86.5, 97.9 85.7 Q 98.5 84.9, 99.8 84.9 Q 101.0 84.9, 101.7 85.7 Q 102.4 86.5, 102.4 87.8 Q 102.4 89.2, 101.7 90.0 Q 101.0 90.7, 99.8 90.7 Q 98.5 90.7, 97.9 90.0 Q 97.2 89.2, 97.2 87.8 M 99.8 90.1 Q 100.6 90.1, 101.1 89.5 Q 101.6 88.9, 101.6 87.8 Q 101.6 86.7, 101.1 86.1 Q 100.6 85.6, 99.8 85.6 Q 98.9 85.6, 98.4 86.1 Q 98.0 86.7, 98.0 87.8 Q 98.0 89.0, 98.4 89.5 Q 98.9 90.1, 99.8 90.1 " fill="#FF0000"/>
<path class="atom-20" d="M 102.8 85.9 L 104.7 85.9 L 104.7 86.3 L 102.8 86.3 L 102.8 85.9 " fill="#FF0000"/>
<path class="atom-21" d="M 53.9 122.0 L 54.7 122.0 L 54.7 124.4 L 57.6 124.4 L 57.6 122.0 L 58.4 122.0 L 58.4 127.6 L 57.6 127.6 L 57.6 125.0 L 54.7 125.0 L 54.7 127.6 L 53.9 127.6 L 53.9 122.0 " fill="#000000"/>
<path class="atom-22" d="M 82.5 149.8 L 83.3 149.8 L 83.3 152.2 L 86.2 152.2 L 86.2 149.8 L 87.0 149.8 L 87.0 155.4 L 86.2 155.4 L 86.2 152.8 L 83.3 152.8 L 83.3 155.4 L 82.5 155.4 L 82.5 149.8 " fill="#000000"/>
<path class="atom-23" d="M 115.0 181.1 L 115.8 181.1 L 115.8 183.5 L 118.7 183.5 L 118.7 181.1 L 119.4 181.1 L 119.4 186.7 L 118.7 186.7 L 118.7 184.1 L 115.8 184.1 L 115.8 186.7 L 115.0 186.7 L 115.0 181.1 " fill="#000000"/>
<path class="atom-24" d="M 140.6 211.7 L 141.3 211.7 L 141.3 214.1 L 144.2 214.1 L 144.2 211.7 L 145.0 211.7 L 145.0 217.4 L 144.2 217.4 L 144.2 214.8 L 141.3 214.8 L 141.3 217.4 L 140.6 217.4 L 140.6 211.7 " fill="#000000"/>
<path class="atom-25" d="M 179.9 204.9 L 180.6 204.9 L 180.6 207.3 L 183.5 207.3 L 183.5 204.9 L 184.3 204.9 L 184.3 210.6 L 183.5 210.6 L 183.5 207.9 L 180.6 207.9 L 180.6 210.6 L 179.9 210.6 L 179.9 204.9 " fill="#000000"/>
<path class="atom-26" d="M 200.7 178.5 L 201.5 178.5 L 201.5 180.9 L 204.4 180.9 L 204.4 178.5 L 205.1 178.5 L 205.1 184.1 L 204.4 184.1 L 204.4 181.5 L 201.5 181.5 L 201.5 184.1 L 200.7 184.1 L 200.7 178.5 " fill="#000000"/>
<path class="atom-27" d="M 180.6 148.6 L 181.3 148.6 L 181.3 151.0 L 184.2 151.0 L 184.2 148.6 L 185.0 148.6 L 185.0 154.3 L 184.2 154.3 L 184.2 151.7 L 181.3 151.7 L 181.3 154.3 L 180.6 154.3 L 180.6 148.6 " fill="#000000"/>
<path class="atom-28" d="M 165.8 136.1 L 166.5 136.1 L 166.5 138.5 L 169.4 138.5 L 169.4 136.1 L 170.2 136.1 L 170.2 141.8 L 169.4 141.8 L 169.4 139.2 L 166.5 139.2 L 166.5 141.8 L 165.8 141.8 L 165.8 136.1 " fill="#000000"/>
<path class="atom-36" d="M 211.7 171.5 L 212.5 171.5 L 212.5 173.9 L 215.4 173.9 L 215.4 171.5 L 216.1 171.5 L 216.1 177.1 L 215.4 177.1 L 215.4 174.5 L 212.5 174.5 L 212.5 177.1 L 211.7 177.1 L 211.7 171.5 " fill="#000000"/>
<path class="atom-37" d="M 225.4 177.8 L 226.2 177.8 L 226.2 180.2 L 229.1 180.2 L 229.1 177.8 L 229.8 177.8 L 229.8 183.5 L 229.1 183.5 L 229.1 180.8 L 226.2 180.8 L 226.2 183.5 L 225.4 183.5 L 225.4 177.8 " fill="#000000"/>
<path class="atom-38" d="M 240.5 172.8 L 241.3 172.8 L 241.3 175.2 L 244.1 175.2 L 244.1 172.8 L 244.9 172.8 L 244.9 178.4 L 244.1 178.4 L 244.1 175.8 L 241.3 175.8 L 241.3 178.4 L 240.5 178.4 L 240.5 172.8 " fill="#000000"/>
<path class="atom-39" d="M 255.5 158.3 L 256.3 158.3 L 256.3 160.7 L 259.1 160.7 L 259.1 158.3 L 259.9 158.3 L 259.9 163.9 L 259.1 163.9 L 259.1 161.3 L 256.3 161.3 L 256.3 163.9 L 255.5 163.9 L 255.5 158.3 " fill="#000000"/>
<path class="atom-40" d="M 261.0 143.4 L 261.7 143.4 L 261.7 145.8 L 264.6 145.8 L 264.6 143.4 L 265.4 143.4 L 265.4 149.0 L 264.6 149.0 L 264.6 146.4 L 261.7 146.4 L 261.7 149.0 L 261.0 149.0 L 261.0 143.4 " fill="#000000"/>
<path class="atom-41" d="M 259.0 122.6 L 259.7 122.6 L 259.7 125.0 L 262.6 125.0 L 262.6 122.6 L 263.4 122.6 L 263.4 128.2 L 262.6 128.2 L 262.6 125.6 L 259.7 125.6 L 259.7 128.2 L 259.0 128.2 L 259.0 122.6 " fill="#000000"/>
<path class="atom-42" d="M 250.7 109.0 L 251.5 109.0 L 251.5 111.4 L 254.4 111.4 L 254.4 109.0 L 255.1 109.0 L 255.1 114.7 L 254.4 114.7 L 254.4 112.0 L 251.5 112.0 L 251.5 114.7 L 250.7 114.7 L 250.7 109.0 " fill="#000000"/>
<path class="atom-43" d="M 233.2 97.6 L 234.0 97.6 L 234.0 100.0 L 236.9 100.0 L 236.9 97.6 L 237.6 97.6 L 237.6 103.3 L 236.9 103.3 L 236.9 100.7 L 234.0 100.7 L 234.0 103.3 L 233.2 103.3 L 233.2 97.6 " fill="#000000"/>
<path class="atom-44" d="M 217.5 95.6 L 218.2 95.6 L 218.2 98.0 L 221.1 98.0 L 221.1 95.6 L 221.9 95.6 L 221.9 101.2 L 221.1 101.2 L 221.1 98.6 L 218.2 98.6 L 218.2 101.2 L 217.5 101.2 L 217.5 95.6 " fill="#000000"/>
<path class="atom-45" d="M 197.6 102.2 L 198.4 102.2 L 198.4 104.6 L 201.3 104.6 L 201.3 102.2 L 202.1 102.2 L 202.1 107.8 L 201.3 107.8 L 201.3 105.2 L 198.4 105.2 L 198.4 107.8 L 197.6 107.8 L 197.6 102.2 " fill="#000000"/>
<path class="atom-46" d="M 186.2 113.2 L 187.0 113.2 L 187.0 115.6 L 189.9 115.6 L 189.9 113.2 L 190.7 113.2 L 190.7 118.9 L 189.9 118.9 L 189.9 116.3 L 187.0 116.3 L 187.0 118.9 L 186.2 118.9 L 186.2 113.2 " fill="#000000"/>
<path class="atom-47" d="M 178.7 130.4 L 179.5 130.4 L 179.5 132.8 L 182.4 132.8 L 182.4 130.4 L 183.1 130.4 L 183.1 136.1 L 182.4 136.1 L 182.4 133.5 L 179.5 133.5 L 179.5 136.1 L 178.7 136.1 L 178.7 130.4 " fill="#000000"/>
<path class="bond-0 atom-0 atom-1" d="M 367.2,187.2 L 375.4,185.7" style="fill:none;fill-rule:evenodd;stroke:#FF0000;stroke-width:2.0px;stroke-linecap:butt;stroke-linejoin:miter;stroke-opacity:1"/>
<path class="bond-0 atom-0 atom-1" d="M 375.4,185.7 L 383.6,184.3" style="fill:none;fill-rule:evenodd;stroke:#000000;stroke-width:2.0px;stroke-linecap:butt;stroke-linejoin:miter;stroke-opacity:1"/>
<path class="bond-0 atom-0 atom-1" d="M 367.9,191.1 L 376.1,189.6" style="fill:none;fill-rule:evenodd;stroke:#FF0000;stroke-width:2.0px;stroke-linecap:butt;stroke-linejoin:miter;stroke-opacity:1"/>
<path class="bond-0 atom-0 atom-1" d="M 376.1,189.6 L 384.3,188.2" style="fill:none;fill-rule:evenodd;stroke:#000000;stroke-width:2.0px;stroke-linecap:butt;stroke-linejoin:miter;stroke-opacity:1"/>
<path class="bond-1 atom-1 atom-2" d="M 384.0,186.2 L 388.9,192.1" style="fill:none;fill-rule:evenodd;stroke:#000000;stroke-width:2.0px;stroke-linecap:butt;stroke-linejoin:miter;stroke-opacity:1"/>
<path class="bond-1 atom-1 atom-2" d="M 388.9,192.1 L 393.8,198.0" style="fill:none;fill-rule:evenodd;stroke:#FF0000;stroke-width:2.0px;stroke-linecap:butt;stroke-linejoin:miter;stroke-opacity:1"/>
<path class="bond-2 atom-1 atom-3" d="M 384.0,186.2 L 390.8,167.5" style="fill:none;fill-rule:evenodd;stroke:#000000;stroke-width:2.0px;stroke-linecap:butt;stroke-linejoin:miter;stroke-opacity:1"/>
<path class="bond-3 atom-3 atom-4" d="M 390.8,167.5 L 393.6,159.9" style="fill:none;fill-rule:evenodd;stroke:#000000;stroke-width:2.0px;stroke-linecap:butt;stroke-linejoin:miter;stroke-opacity:1"/>
<path class="bond-3 atom-3 atom-4" d="M 393.6,159.9 L 396.3,152.4" style="fill:none;fill-rule:evenodd;stroke:#FF0000;stroke-width:2.0px;stroke-linecap:butt;stroke-linejoin:miter;stroke-opacity:1"/>
<path class="bond-4 atom-3 atom-21" d="M 390.8,167.5 L 406.7,173.3" style="fill:none;fill-rule:evenodd;stroke:#000000;stroke-width:2.0px;stroke-linecap:butt;stroke-linejoin:miter;stroke-opacity:1"/>
<path class="bond-5 atom-3 atom-22" d="M 390.8,167.5 L 374.9,161.7" style="fill:none;fill-rule:evenodd;stroke:#000000;stroke-width:2.0px;stroke-linecap:butt;stroke-linejoin:miter;stroke-opacity:1"/>
<path class="bond-6 atom-4 atom-5" d="M 400.9,148.2 L 409.1,146.8" style="fill:none;fill-rule:evenodd;stroke:#FF0000;stroke-width:2.0px;stroke-linecap:butt;stroke-linejoin:miter;stroke-opacity:1"/>
<path class="bond-6 atom-4 atom-5" d="M 409.1,146.8 L 417.3,145.3" style="fill:none;fill-rule:evenodd;stroke:#000000;stroke-width:2.0px;stroke-linecap:butt;stroke-linejoin:miter;stroke-opacity:1"/>
<path class="bond-7 atom-5 atom-6" d="M 417.3,145.3 L 431.6,159.2" style="fill:none;fill-rule:evenodd;stroke:#000000;stroke-width:2.0px;stroke-linecap:butt;stroke-linejoin:miter;stroke-opacity:1"/>
<path class="bond-8 atom-5 atom-17" d="M 417.3,145.3 L 426.0,127.4" style="fill:none;fill-rule:evenodd;stroke:#000000;stroke-width:2.0px;stroke-linecap:butt;stroke-linejoin:miter;stroke-opacity:1"/>
<path class="bond-8 atom-5 atom-17" d="M 422.2,144.4 L 428.3,131.8" style="fill:none;fill-rule:evenodd;stroke:#000000;stroke-width:2.0px;stroke-linecap:butt;stroke-linejoin:miter;stroke-opacity:1"/>
<path class="bond-9 atom-6 atom-7" d="M 431.6,159.2 L 430.5,167.3" style="fill:none;fill-rule:evenodd;stroke:#000000;stroke-width:2.0px;stroke-linecap:butt;stroke-linejoin:miter;stroke-opacity:1"/>
<path class="bond-9 atom-6 atom-7" d="M 430.5,167.3 L 429.3,175.5" style="fill:none;fill-rule:evenodd;stroke:#7F4C19;stroke-width:2.0px;stroke-linecap:butt;stroke-linejoin:miter;stroke-opacity:1"/>
<path class="bond-10 atom-6 atom-8" d="M 431.6,159.2 L 449.2,149.8" style="fill:none;fill-rule:evenodd;stroke:#000000;stroke-width:2.0px;stroke-linecap:butt;stroke-linejoin:miter;stroke-opacity:1"/>
<path class="bond-10 atom-6 atom-8" d="M 432.4,154.3 L 444.7,147.7" style="fill:none;fill-rule:evenodd;stroke:#000000;stroke-width:2.0px;stroke-linecap:butt;stroke-linejoin:miter;stroke-opacity:1"/>
<path class="bond-11 atom-8 atom-9" d="M 449.2,149.8 L 467.1,158.6" style="fill:none;fill-rule:evenodd;stroke:#000000;stroke-width:2.0px;stroke-linecap:butt;stroke-linejoin:miter;stroke-opacity:1"/>
<path class="bond-12 atom-8 atom-16" d="M 449.2,149.8 L 447.8,141.8" style="fill:none;fill-rule:evenodd;stroke:#000000;stroke-width:2.0px;stroke-linecap:butt;stroke-linejoin:miter;stroke-opacity:1"/>
<path class="bond-12 atom-8 atom-16" d="M 447.8,141.8 L 446.4,133.8" style="fill:none;fill-rule:evenodd;stroke:#CCCC00;stroke-width:2.0px;stroke-linecap:butt;stroke-linejoin:miter;stroke-opacity:1"/>
<path class="bond-13 atom-9 atom-10" d="M 467.1,158.6 L 468.5,178.5" style="fill:none;fill-rule:evenodd;stroke:#000000;stroke-width:2.0px;stroke-linecap:butt;stroke-linejoin:miter;stroke-opacity:1"/>
<path class="bond-13 atom-9 atom-10" d="M 471.3,161.3 L 472.3,175.2" style="fill:none;fill-rule:evenodd;stroke:#000000;stroke-width:2.0px;stroke-linecap:butt;stroke-linejoin:miter;stroke-opacity:1"/>
<path class="bond-14 atom-9 atom-15" d="M 467.1,158.6 L 483.7,147.5" style="fill:none;fill-rule:evenodd;stroke:#000000;stroke-width:2.0px;stroke-linecap:butt;stroke-linejoin:miter;stroke-opacity:1"/>
<path class="bond-15 atom-10 atom-11" d="M 468.5,178.5 L 486.4,187.3" style="fill:none;fill-rule:evenodd;stroke:#000000;stroke-width:2.0px;stroke-linecap:butt;stroke-linejoin:miter;stroke-opacity:1"/>
<path class="bond-16 atom-10 atom-23" d="M 468.5,178.5 L 454.8,187.7" style="fill:none;fill-rule:evenodd;stroke:#000000;stroke-width:2.0px;stroke-linecap:butt;stroke-linejoin:miter;stroke-opacity:1"/>
<path class="bond-17 atom-11 atom-12" d="M 486.4,187.3 L 503.0,176.1" style="fill:none;fill-rule:evenodd;stroke:#000000;stroke-width:2.0px;stroke-linecap:butt;stroke-linejoin:miter;stroke-opacity:1"/>
<path class="bond-17 atom-11 atom-12" d="M 486.7,182.3 L 498.3,174.5" style="fill:none;fill-rule:evenodd;stroke:#000000;stroke-width:2.0px;stroke-linecap:butt;stroke-linejoin:miter;stroke-opacity:1"/>
<path class="bond-18 atom-11 atom-24" d="M 486.4,187.3 L 487.6,203.7" style="fill:none;fill-rule:evenodd;stroke:#000000;stroke-width:2.0px;stroke-linecap:butt;stroke-linejoin:miter;stroke-opacity:1"/>
<path class="bond-19 atom-12 atom-13" d="M 503.0,176.1 L 501.6,156.2" style="fill:none;fill-rule:evenodd;stroke:#000000;stroke-width:2.0px;stroke-linecap:butt;stroke-linejoin:miter;stroke-opacity:1"/>
<path class="bond-20 atom-12 atom-25" d="M 503.0,176.1 L 518.0,183.5" style="fill:none;fill-rule:evenodd;stroke:#000000;stroke-width:2.0px;stroke-linecap:butt;stroke-linejoin:miter;stroke-opacity:1"/>
<path class="bond-21 atom-13 atom-14" d="M 501.6,156.2 L 508.5,151.6" style="fill:none;fill-rule:evenodd;stroke:#000000;stroke-width:2.0px;stroke-linecap:butt;stroke-linejoin:miter;stroke-opacity:1"/>
<path class="bond-21 atom-13 atom-14" d="M 508.5,151.6 L 515.4,147.0" style="fill:none;fill-rule:evenodd;stroke:#0000FF;stroke-width:2.0px;stroke-linecap:butt;stroke-linejoin:miter;stroke-opacity:1"/>
<path class="bond-22 atom-13 atom-15" d="M 501.6,156.2 L 483.7,147.5" style="fill:none;fill-rule:evenodd;stroke:#000000;stroke-width:2.0px;stroke-linecap:butt;stroke-linejoin:miter;stroke-opacity:1"/>
<path class="bond-22 atom-13 atom-15" d="M 497.2,158.5 L 484.6,152.4" style="fill:none;fill-rule:evenodd;stroke:#000000;stroke-width:2.0px;stroke-linecap:butt;stroke-linejoin:miter;stroke-opacity:1"/>
<path class="bond-23 atom-14 atom-26" d="M 521.0,146.4 L 527.1,149.4" style="fill:none;fill-rule:evenodd;stroke:#0000FF;stroke-width:2.0px;stroke-linecap:butt;stroke-linejoin:miter;stroke-opacity:1"/>
<path class="bond-23 atom-14 atom-26" d="M 527.1,149.4 L 533.2,152.4" style="fill:none;fill-rule:evenodd;stroke:#000000;stroke-width:2.0px;stroke-linecap:butt;stroke-linejoin:miter;stroke-opacity:1"/>
<path class="bond-24 atom-14 atom-28" d="M 517.9,141.6 L 517.5,135.1" style="fill:none;fill-rule:evenodd;stroke:#0000FF;stroke-width:2.0px;stroke-linecap:butt;stroke-linejoin:miter;stroke-opacity:1"/>
<path class="bond-24 atom-14 atom-28" d="M 517.5,135.1 L 517.0,128.7" style="fill:none;fill-rule:evenodd;stroke:#000000;stroke-width:2.0px;stroke-linecap:butt;stroke-linejoin:miter;stroke-opacity:1"/>
<path class="bond-25 atom-15 atom-27" d="M 483.7,147.5 L 482.6,131.0" style="fill:none;fill-rule:evenodd;stroke:#000000;stroke-width:2.0px;stroke-linecap:butt;stroke-linejoin:miter;stroke-opacity:1"/>
<path class="bond-26 atom-16 atom-17" d="M 443.3,129.8 L 434.7,128.6" style="fill:none;fill-rule:evenodd;stroke:#CCCC00;stroke-width:2.0px;stroke-linecap:butt;stroke-linejoin:miter;stroke-opacity:1"/>
<path class="bond-26 atom-16 atom-17" d="M 434.7,128.6 L 426.0,127.4" style="fill:none;fill-rule:evenodd;stroke:#000000;stroke-width:2.0px;stroke-linecap:butt;stroke-linejoin:miter;stroke-opacity:1"/>
<path class="bond-27 atom-17 atom-18" d="M 426.0,127.4 L 416.7,109.8" style="fill:none;fill-rule:evenodd;stroke:#000000;stroke-width:2.0px;stroke-linecap:butt;stroke-linejoin:miter;stroke-opacity:1"/>
<path class="bond-28 atom-18 atom-19" d="M 416.6,111.8 L 408.3,111.5" style="fill:none;fill-rule:evenodd;stroke:#000000;stroke-width:2.0px;stroke-linecap:butt;stroke-linejoin:miter;stroke-opacity:1"/>
<path class="bond-28 atom-18 atom-19" d="M 408.3,111.5 L 399.9,111.2" style="fill:none;fill-rule:evenodd;stroke:#FF0000;stroke-width:2.0px;stroke-linecap:butt;stroke-linejoin:miter;stroke-opacity:1"/>
<path class="bond-28 atom-18 atom-19" d="M 416.8,107.8 L 408.4,107.5" style="fill:none;fill-rule:evenodd;stroke:#000000;stroke-width:2.0px;stroke-linecap:butt;stroke-linejoin:miter;stroke-opacity:1"/>
<path class="bond-28 atom-18 atom-19" d="M 408.4,107.5 L 400.1,107.2" style="fill:none;fill-rule:evenodd;stroke:#FF0000;stroke-width:2.0px;stroke-linecap:butt;stroke-linejoin:miter;stroke-opacity:1"/>
<path class="bond-29 atom-18 atom-20" d="M 416.7,109.8 L 420.8,103.1" style="fill:none;fill-rule:evenodd;stroke:#000000;stroke-width:2.0px;stroke-linecap:butt;stroke-linejoin:miter;stroke-opacity:1"/>
<path class="bond-29 atom-18 atom-20" d="M 420.8,103.1 L 425.0,96.5" style="fill:none;fill-rule:evenodd;stroke:#FF0000;stroke-width:2.0px;stroke-linecap:butt;stroke-linejoin:miter;stroke-opacity:1"/>
<path class="atom-0" d="M 361.7 189.7 Q 361.7 188.3, 362.4 187.6 Q 363.1 186.8, 364.3 186.8 Q 365.6 186.8, 366.2 187.6 Q 366.9 188.3, 366.9 189.7 Q 366.9 191.1, 366.2 191.9 Q 365.5 192.6, 364.3 192.6 Q 363.1 192.6, 362.4 191.9 Q 361.7 191.1, 361.7 189.7 M 364.3 192.0 Q 365.2 192.0, 365.6 191.4 Q 366.1 190.8, 366.1 189.7 Q 366.1 188.6, 365.6 188.0 Q 365.2 187.5, 364.3 187.5 Q 363.4 187.5, 363.0 188.0 Q 362.5 188.6, 362.5 189.7 Q 362.5 190.8, 363.0 191.4 Q 363.4 192.0, 364.3 192.0 " fill="#FF0000"/>
<path class="atom-2" d="M 394.2 201.5 Q 394.2 200.2, 394.8 199.4 Q 395.5 198.7, 396.8 198.7 Q 398.0 198.7, 398.7 199.4 Q 399.4 200.2, 399.4 201.5 Q 399.4 202.9, 398.7 203.7 Q 398.0 204.5, 396.8 204.5 Q 395.5 204.5, 394.8 203.7 Q 394.2 202.9, 394.2 201.5 M 396.8 203.8 Q 397.6 203.8, 398.1 203.3 Q 398.6 202.7, 398.6 201.5 Q 398.6 200.4, 398.1 199.9 Q 397.6 199.3, 396.8 199.3 Q 395.9 199.3, 395.4 199.9 Q 395.0 200.4, 395.0 201.5 Q 395.0 202.7, 395.4 203.3 Q 395.9 203.8, 396.8 203.8 " fill="#FF0000"/>
<path class="atom-2" d="M 399.8 199.6 L 401.7 199.6 L 401.7 200.0 L 399.8 200.0 L 399.8 199.6 " fill="#FF0000"/>
<path class="atom-4" d="M 395.0 148.8 Q 395.0 147.4, 395.7 146.7 Q 396.4 145.9, 397.6 145.9 Q 398.9 145.9, 399.6 146.7 Q 400.2 147.4, 400.2 148.8 Q 400.2 150.2, 399.5 150.9 Q 398.9 151.7, 397.6 151.7 Q 396.4 151.7, 395.7 150.9 Q 395.0 150.2, 395.0 148.8 M 397.6 151.1 Q 398.5 151.1, 399.0 150.5 Q 399.4 149.9, 399.4 148.8 Q 399.4 147.7, 399.0 147.1 Q 398.5 146.6, 397.6 146.6 Q 396.8 146.6, 396.3 147.1 Q 395.8 147.7, 395.8 148.8 Q 395.8 149.9, 396.3 150.5 Q 396.8 151.1, 397.6 151.1 " fill="#FF0000"/>
<path class="atom-7" d="M 429.6 178.8 Q 430.2 178.9, 430.5 179.3 Q 430.7 179.6, 430.7 180.1 Q 430.7 180.9, 430.2 181.3 Q 429.7 181.8, 428.8 181.8 L 426.9 181.8 L 426.9 176.1 L 428.6 176.1 Q 429.5 176.1, 430.0 176.5 Q 430.5 176.9, 430.5 177.6 Q 430.5 178.5, 429.6 178.8 M 427.7 176.8 L 427.7 178.5 L 428.6 178.5 Q 429.1 178.5, 429.4 178.3 Q 429.7 178.1, 429.7 177.6 Q 429.7 176.8, 428.6 176.8 L 427.7 176.8 M 428.8 181.1 Q 429.3 181.1, 429.6 180.9 Q 429.9 180.6, 429.9 180.1 Q 429.9 179.6, 429.6 179.4 Q 429.3 179.2, 428.7 179.2 L 427.7 179.2 L 427.7 181.1 L 428.8 181.1 " fill="#7F4C19"/>
<path class="atom-7" d="M 431.7 177.7 L 431.8 178.2 Q 432.2 177.6, 432.9 177.6 Q 433.2 177.6, 433.5 177.7 L 433.3 178.3 Q 433.0 178.3, 432.8 178.3 Q 432.5 178.3, 432.2 178.4 Q 432.0 178.5, 431.9 178.8 L 431.9 181.8 L 431.1 181.8 L 431.1 177.7 L 431.7 177.7 " fill="#7F4C19"/>
<path class="atom-14" d="M 516.9 142.3 L 518.8 145.2 Q 518.9 145.5, 519.2 146.1 Q 519.5 146.6, 519.5 146.6 L 519.5 142.3 L 520.3 142.3 L 520.3 147.9 L 519.5 147.9 L 517.5 144.6 Q 517.3 144.2, 517.1 143.8 Q 516.8 143.4, 516.7 143.2 L 516.7 147.9 L 516.0 147.9 L 516.0 142.3 L 516.9 142.3 " fill="#0000FF"/>
<path class="atom-16" d="M 444.2 132.1 Q 444.2 132.2, 444.5 132.3 Q 444.8 132.4, 445.1 132.5 Q 445.4 132.5, 445.6 132.5 Q 446.2 132.5, 446.5 132.3 Q 446.8 132.0, 446.8 131.5 Q 446.8 131.2, 446.6 131.0 Q 446.5 130.8, 446.3 130.7 Q 446.0 130.6, 445.6 130.5 Q 445.1 130.4, 444.8 130.2 Q 444.5 130.1, 444.3 129.8 Q 444.1 129.5, 444.1 129.0 Q 444.1 128.3, 444.6 127.8 Q 445.1 127.4, 446.0 127.4 Q 446.7 127.4, 447.4 127.7 L 447.2 128.3 Q 446.5 128.0, 446.0 128.0 Q 445.5 128.0, 445.2 128.3 Q 444.9 128.5, 444.9 128.9 Q 444.9 129.2, 445.0 129.4 Q 445.2 129.5, 445.4 129.6 Q 445.7 129.7, 446.0 129.9 Q 446.5 130.0, 446.8 130.2 Q 447.2 130.3, 447.4 130.7 Q 447.6 131.0, 447.6 131.5 Q 447.6 132.3, 447.1 132.7 Q 446.5 133.2, 445.7 133.2 Q 445.2 133.2, 444.8 133.1 Q 444.4 132.9, 444.0 132.8 L 444.2 132.1 " fill="#CCCC00"/>
<path class="atom-19" d="M 394.2 109.1 Q 394.2 107.7, 394.8 107.0 Q 395.5 106.2, 396.8 106.2 Q 398.0 106.2, 398.7 107.0 Q 399.3 107.7, 399.3 109.1 Q 399.3 110.5, 398.7 111.2 Q 398.0 112.0, 396.8 112.0 Q 395.5 112.0, 394.8 111.2 Q 394.2 110.5, 394.2 109.1 M 396.8 111.4 Q 397.6 111.4, 398.1 110.8 Q 398.5 110.2, 398.5 109.1 Q 398.5 108.0, 398.1 107.4 Q 397.6 106.9, 396.8 106.9 Q 395.9 106.9, 395.4 107.4 Q 395.0 108.0, 395.0 109.1 Q 395.0 110.2, 395.4 110.8 Q 395.9 111.4, 396.8 111.4 " fill="#FF0000"/>
<path class="atom-20" d="M 424.7 92.9 Q 424.7 91.5, 425.3 90.8 Q 426.0 90.0, 427.3 90.0 Q 428.5 90.0, 429.2 90.8 Q 429.9 91.5, 429.9 92.9 Q 429.9 94.3, 429.2 95.1 Q 428.5 95.8, 427.3 95.8 Q 426.0 95.8, 425.3 95.1 Q 424.7 94.3, 424.7 92.9 M 427.3 95.2 Q 428.1 95.2, 428.6 94.6 Q 429.1 94.0, 429.1 92.9 Q 429.1 91.8, 428.6 91.2 Q 428.1 90.7, 427.3 90.7 Q 426.4 90.7, 425.9 91.2 Q 425.5 91.8, 425.5 92.9 Q 425.5 94.0, 425.9 94.6 Q 426.4 95.2, 427.3 95.2 " fill="#FF0000"/>
<path class="atom-20" d="M 430.3 90.9 L 432.2 90.9 L 432.2 91.4 L 430.3 91.4 L 430.3 90.9 " fill="#FF0000"/>
<path class="atom-21" d="M 407.3 171.5 L 408.1 171.5 L 408.1 173.9 L 411.0 173.9 L 411.0 171.5 L 411.7 171.5 L 411.7 177.2 L 411.0 177.2 L 411.0 174.6 L 408.1 174.6 L 408.1 177.2 L 407.3 177.2 L 407.3 171.5 " fill="#000000"/>
<path class="atom-22" d="M 369.8 157.8 L 370.6 157.8 L 370.6 160.2 L 373.5 160.2 L 373.5 157.8 L 374.3 157.8 L 374.3 163.5 L 373.5 163.5 L 373.5 160.9 L 370.6 160.9 L 370.6 163.5 L 369.8 163.5 L 369.8 157.8 " fill="#000000"/>
<path class="atom-23" d="M 449.8 186.8 L 450.5 186.8 L 450.5 189.2 L 453.4 189.2 L 453.4 186.8 L 454.2 186.8 L 454.2 192.5 L 453.4 192.5 L 453.4 189.9 L 450.5 189.9 L 450.5 192.5 L 449.8 192.5 L 449.8 186.8 " fill="#000000"/>
<path class="atom-24" d="M 485.6 204.3 L 486.4 204.3 L 486.4 206.7 L 489.3 206.7 L 489.3 204.3 L 490.0 204.3 L 490.0 210.0 L 489.3 210.0 L 489.3 207.4 L 486.4 207.4 L 486.4 210.0 L 485.6 210.0 L 485.6 204.3 " fill="#000000"/>
<path class="atom-25" d="M 518.7 182.0 L 519.5 182.0 L 519.5 184.5 L 522.3 184.5 L 522.3 182.0 L 523.1 182.0 L 523.1 187.7 L 522.3 187.7 L 522.3 185.1 L 519.5 185.1 L 519.5 187.7 L 518.7 187.7 L 518.7 182.0 " fill="#000000"/>
<path class="atom-26" d="M 533.9 151.0 L 534.6 151.0 L 534.6 153.4 L 537.5 153.4 L 537.5 151.0 L 538.3 151.0 L 538.3 156.7 L 537.5 156.7 L 537.5 154.1 L 534.6 154.1 L 534.6 156.7 L 533.9 156.7 L 533.9 151.0 " fill="#000000"/>
<path class="atom-27" d="M 480.1 124.7 L 480.9 124.7 L 480.9 127.1 L 483.8 127.1 L 483.8 124.7 L 484.5 124.7 L 484.5 130.4 L 483.8 130.4 L 483.8 127.8 L 480.9 127.8 L 480.9 130.4 L 480.1 130.4 L 480.1 124.7 " fill="#000000"/>
<path class="atom-28" d="M 514.6 122.4 L 515.3 122.4 L 515.3 124.8 L 518.2 124.8 L 518.2 122.4 L 519.0 122.4 L 519.0 128.0 L 518.2 128.0 L 518.2 125.4 L 515.3 125.4 L 515.3 128.0 L 514.6 128.0 L 514.6 122.4 " fill="#000000"/>
<text x="300" y="20" font-size="20" font-family="sans-serif" font-weight="normal" letter-spacing="0" text-anchor="middle" fill="black">ptp1b: 23476 -&gt; 23466</text><text x="300" y="35" font-size="15" font-family="sans-serif" font-weight="normal" letter-spacing="0" text-anchor="middle" fill="black"></text><text x="150" y="285" font-size="15" font-family="sans-serif" font-weight="normal" letter-spacing="0" text-anchor="middle" fill="black">23476</text><text x="450" y="285" font-size="15" font-family="sans-serif" font-weight="normal" letter-spacing="0" text-anchor="middle" fill="black">23466</text></svg>
