<?xml version='1.0' encoding='ASCII' standalone='yes'?>
<svg xmlns="http://www.w3.org/2000/svg" xmlns:rdkit="http://www.rdkit.org/xml" xmlns:xlink="http://www.w3.org/1999/xlink" version="1.1" baseProfile="full" xml:space="preserve" width="600px" height="300px" viewBox="0 0 600 300">
<!-- END OF HEADER -->
<rect style="opacity:1.0;fill:#FFFFFF;stroke:none" width="600.0" height="300.0" x="0.0" y="0.0"> </rect>
<path class="bond-0 atom-0 atom-6" d="M 167.7,158.8 L 173.4,141.1" style="fill:none;fill-rule:evenodd;stroke:#000000;stroke-width:2.0px;stroke-linecap:butt;stroke-linejoin:miter;stroke-opacity:1"/>
<path class="bond-1 atom-0 atom-9" d="M 169.2,157.7 L 172.9,163.0" style="fill:none;fill-rule:evenodd;stroke:#000000;stroke-width:2.0px;stroke-linecap:butt;stroke-linejoin:miter;stroke-opacity:1"/>
<path class="bond-1 atom-0 atom-9" d="M 172.9,163.0 L 176.6,168.2" style="fill:none;fill-rule:evenodd;stroke:#FF0000;stroke-width:2.0px;stroke-linecap:butt;stroke-linejoin:miter;stroke-opacity:1"/>
<path class="bond-1 atom-0 atom-9" d="M 166.2,159.9 L 169.8,165.1" style="fill:none;fill-rule:evenodd;stroke:#000000;stroke-width:2.0px;stroke-linecap:butt;stroke-linejoin:miter;stroke-opacity:1"/>
<path class="bond-1 atom-0 atom-9" d="M 169.8,165.1 L 173.5,170.3" style="fill:none;fill-rule:evenodd;stroke:#FF0000;stroke-width:2.0px;stroke-linecap:butt;stroke-linejoin:miter;stroke-opacity:1"/>
<path class="bond-2 atom-0 atom-10" d="M 167.7,158.8 L 159.9,160.5" style="fill:none;fill-rule:evenodd;stroke:#000000;stroke-width:2.0px;stroke-linecap:butt;stroke-linejoin:miter;stroke-opacity:1"/>
<path class="bond-2 atom-0 atom-10" d="M 159.9,160.5 L 152.1,162.2" style="fill:none;fill-rule:evenodd;stroke:#0000FF;stroke-width:2.0px;stroke-linecap:butt;stroke-linejoin:miter;stroke-opacity:1"/>
<path class="bond-3 atom-1 atom-8" d="M 106.4,139.2 L 108.7,131.9" style="fill:none;fill-rule:evenodd;stroke:#000000;stroke-width:2.0px;stroke-linecap:butt;stroke-linejoin:miter;stroke-opacity:1"/>
<path class="bond-3 atom-1 atom-8" d="M 108.7,131.9 L 111.1,124.7" style="fill:none;fill-rule:evenodd;stroke:#0000FF;stroke-width:2.0px;stroke-linecap:butt;stroke-linejoin:miter;stroke-opacity:1"/>
<path class="bond-4 atom-1 atom-11" d="M 106.4,139.2 L 111.4,144.6" style="fill:none;fill-rule:evenodd;stroke:#000000;stroke-width:2.0px;stroke-linecap:butt;stroke-linejoin:miter;stroke-opacity:1"/>
<path class="bond-4 atom-1 atom-11" d="M 111.4,144.6 L 116.3,150.1" style="fill:none;fill-rule:evenodd;stroke:#0000FF;stroke-width:2.0px;stroke-linecap:butt;stroke-linejoin:miter;stroke-opacity:1"/>
<path class="bond-4 atom-1 atom-11" d="M 110.7,138.3 L 114.1,142.1" style="fill:none;fill-rule:evenodd;stroke:#000000;stroke-width:2.0px;stroke-linecap:butt;stroke-linejoin:miter;stroke-opacity:1"/>
<path class="bond-4 atom-1 atom-11" d="M 114.1,142.1 L 117.6,146.0" style="fill:none;fill-rule:evenodd;stroke:#0000FF;stroke-width:2.0px;stroke-linecap:butt;stroke-linejoin:miter;stroke-opacity:1"/>
<path class="bond-5 atom-1 atom-12" d="M 106.4,139.2 L 98.6,140.9" style="fill:none;fill-rule:evenodd;stroke:#000000;stroke-width:2.0px;stroke-linecap:butt;stroke-linejoin:miter;stroke-opacity:1"/>
<path class="bond-5 atom-1 atom-12" d="M 98.6,140.9 L 90.8,142.6" style="fill:none;fill-rule:evenodd;stroke:#0000FF;stroke-width:2.0px;stroke-linecap:butt;stroke-linejoin:miter;stroke-opacity:1"/>
<path class="bond-6 atom-2 atom-3" d="M 142.7,131.3 L 160.9,127.4" style="fill:none;fill-rule:evenodd;stroke:#000000;stroke-width:2.0px;stroke-linecap:butt;stroke-linejoin:miter;stroke-opacity:1"/>
<path class="bond-7 atom-2 atom-4" d="M 142.7,131.3 L 137.1,149.0" style="fill:none;fill-rule:evenodd;stroke:#000000;stroke-width:2.0px;stroke-linecap:butt;stroke-linejoin:miter;stroke-opacity:1"/>
<path class="bond-7 atom-2 atom-4" d="M 145.4,135.1 L 141.4,147.5" style="fill:none;fill-rule:evenodd;stroke:#000000;stroke-width:2.0px;stroke-linecap:butt;stroke-linejoin:miter;stroke-opacity:1"/>
<path class="bond-8 atom-2 atom-5" d="M 142.7,131.3 L 130.2,117.6" style="fill:none;fill-rule:evenodd;stroke:#000000;stroke-width:2.0px;stroke-linecap:butt;stroke-linejoin:miter;stroke-opacity:1"/>
<path class="bond-9 atom-3 atom-6" d="M 160.9,127.4 L 173.4,141.1" style="fill:none;fill-rule:evenodd;stroke:#000000;stroke-width:2.0px;stroke-linecap:butt;stroke-linejoin:miter;stroke-opacity:1"/>
<path class="bond-9 atom-3 atom-6" d="M 160.0,131.9 L 168.7,141.6" style="fill:none;fill-rule:evenodd;stroke:#000000;stroke-width:2.0px;stroke-linecap:butt;stroke-linejoin:miter;stroke-opacity:1"/>
<path class="bond-10 atom-3 atom-13" d="M 160.9,127.4 L 165.5,112.9" style="fill:none;fill-rule:evenodd;stroke:#000000;stroke-width:2.0px;stroke-linecap:butt;stroke-linejoin:miter;stroke-opacity:1"/>
<path class="bond-11 atom-4 atom-10" d="M 137.1,149.0 L 142.0,154.5" style="fill:none;fill-rule:evenodd;stroke:#000000;stroke-width:2.0px;stroke-linecap:butt;stroke-linejoin:miter;stroke-opacity:1"/>
<path class="bond-11 atom-4 atom-10" d="M 142.0,154.5 L 147.0,159.9" style="fill:none;fill-rule:evenodd;stroke:#0000FF;stroke-width:2.0px;stroke-linecap:butt;stroke-linejoin:miter;stroke-opacity:1"/>
<path class="bond-12 atom-4 atom-11" d="M 137.1,149.0 L 129.3,150.7" style="fill:none;fill-rule:evenodd;stroke:#000000;stroke-width:2.0px;stroke-linecap:butt;stroke-linejoin:miter;stroke-opacity:1"/>
<path class="bond-12 atom-4 atom-11" d="M 129.3,150.7 L 121.5,152.4" style="fill:none;fill-rule:evenodd;stroke:#0000FF;stroke-width:2.0px;stroke-linecap:butt;stroke-linejoin:miter;stroke-opacity:1"/>
<path class="bond-13 atom-5 atom-8" d="M 130.2,117.6 L 122.4,119.3" style="fill:none;fill-rule:evenodd;stroke:#000000;stroke-width:2.0px;stroke-linecap:butt;stroke-linejoin:miter;stroke-opacity:1"/>
<path class="bond-13 atom-5 atom-8" d="M 122.4,119.3 L 114.7,120.9" style="fill:none;fill-rule:evenodd;stroke:#0000FF;stroke-width:2.0px;stroke-linecap:butt;stroke-linejoin:miter;stroke-opacity:1"/>
<path class="bond-13 atom-5 atom-8" d="M 128.7,121.7 L 123.2,122.9" style="fill:none;fill-rule:evenodd;stroke:#000000;stroke-width:2.0px;stroke-linecap:butt;stroke-linejoin:miter;stroke-opacity:1"/>
<path class="bond-13 atom-5 atom-8" d="M 123.2,122.9 L 117.8,124.1" style="fill:none;fill-rule:evenodd;stroke:#0000FF;stroke-width:2.0px;stroke-linecap:butt;stroke-linejoin:miter;stroke-opacity:1"/>
<path class="bond-14 atom-5 atom-14" d="M 130.2,117.6 L 134.9,103.1" style="fill:none;fill-rule:evenodd;stroke:#000000;stroke-width:2.0px;stroke-linecap:butt;stroke-linejoin:miter;stroke-opacity:1"/>
<path class="bond-15 atom-6 atom-33" d="M 173.4,141.1 L 180.9,139.5" style="fill:none;fill-rule:evenodd;stroke:#000000;stroke-width:2.0px;stroke-linecap:butt;stroke-linejoin:miter;stroke-opacity:1"/>
<path class="bond-15 atom-6 atom-33" d="M 180.9,139.5 L 188.5,137.8" style="fill:none;fill-rule:evenodd;stroke:#FF0000;stroke-width:2.0px;stroke-linecap:butt;stroke-linejoin:miter;stroke-opacity:1"/>
<path class="bond-16 atom-7 atom-10" d="M 143.9,180.4 L 146.2,173.2" style="fill:none;fill-rule:evenodd;stroke:#000000;stroke-width:2.0px;stroke-linecap:butt;stroke-linejoin:miter;stroke-opacity:1"/>
<path class="bond-16 atom-7 atom-10" d="M 146.2,173.2 L 148.5,166.0" style="fill:none;fill-rule:evenodd;stroke:#0000FF;stroke-width:2.0px;stroke-linecap:butt;stroke-linejoin:miter;stroke-opacity:1"/>
<path class="bond-17 atom-7 atom-15" d="M 143.9,180.4 L 131.3,174.7" style="fill:none;fill-rule:evenodd;stroke:#000000;stroke-width:2.0px;stroke-linecap:butt;stroke-linejoin:miter;stroke-opacity:1"/>
<path class="bond-18 atom-7 atom-16" d="M 143.9,180.4 L 158.9,185.3" style="fill:none;fill-rule:evenodd;stroke:#000000;stroke-width:2.0px;stroke-linecap:butt;stroke-linejoin:miter;stroke-opacity:1"/>
<path class="bond-19 atom-7 atom-17" d="M 143.9,180.4 L 139.2,194.9" style="fill:none;fill-rule:evenodd;stroke:#000000;stroke-width:2.0px;stroke-linecap:butt;stroke-linejoin:miter;stroke-opacity:1"/>
<path class="bond-20 atom-12 atom-18" d="M 86.0,139.9 L 82.9,135.5" style="fill:none;fill-rule:evenodd;stroke:#0000FF;stroke-width:2.0px;stroke-linecap:butt;stroke-linejoin:miter;stroke-opacity:1"/>
<path class="bond-20 atom-12 atom-18" d="M 82.9,135.5 L 79.8,131.2" style="fill:none;fill-rule:evenodd;stroke:#000000;stroke-width:2.0px;stroke-linecap:butt;stroke-linejoin:miter;stroke-opacity:1"/>
<path class="bond-21 atom-12 atom-19" d="M 87.2,146.3 L 84.9,153.6" style="fill:none;fill-rule:evenodd;stroke:#0000FF;stroke-width:2.0px;stroke-linecap:butt;stroke-linejoin:miter;stroke-opacity:1"/>
<path class="bond-21 atom-12 atom-19" d="M 84.9,153.6 L 82.6,160.8" style="fill:none;fill-rule:evenodd;stroke:#000000;stroke-width:2.0px;stroke-linecap:butt;stroke-linejoin:miter;stroke-opacity:1"/>
<path class="bond-22 atom-19 atom-20" d="M 82.6,160.8 L 76.9,178.5" style="fill:none;fill-rule:evenodd;stroke:#000000;stroke-width:2.0px;stroke-linecap:butt;stroke-linejoin:miter;stroke-opacity:1"/>
<path class="bond-23 atom-19 atom-21" d="M 82.6,160.8 L 64.9,155.1" style="fill:none;fill-rule:evenodd;stroke:#000000;stroke-width:2.0px;stroke-linecap:butt;stroke-linejoin:miter;stroke-opacity:1"/>
<path class="bond-24 atom-19 atom-22" d="M 82.6,160.8 L 100.3,166.5" style="fill:none;fill-rule:evenodd;stroke:#000000;stroke-width:2.0px;stroke-linecap:butt;stroke-linejoin:miter;stroke-opacity:1"/>
<path class="bond-25 atom-20 atom-29" d="M 76.9,178.5 L 74.6,185.7" style="fill:none;fill-rule:evenodd;stroke:#000000;stroke-width:2.0px;stroke-linecap:butt;stroke-linejoin:miter;stroke-opacity:1"/>
<path class="bond-25 atom-20 atom-29" d="M 74.6,185.7 L 72.3,192.9" style="fill:none;fill-rule:evenodd;stroke:#FF0000;stroke-width:2.0px;stroke-linecap:butt;stroke-linejoin:miter;stroke-opacity:1"/>
<path class="bond-26 atom-20 atom-30" d="M 76.9,178.5 L 68.8,177.0" style="fill:none;fill-rule:evenodd;stroke:#000000;stroke-width:2.0px;stroke-linecap:butt;stroke-linejoin:miter;stroke-opacity:1"/>
<path class="bond-27 atom-20 atom-31" d="M 76.9,178.5 L 84.2,181.9" style="fill:none;fill-rule:evenodd;stroke:#000000;stroke-width:2.0px;stroke-linecap:butt;stroke-linejoin:miter;stroke-opacity:1"/>
<path class="bond-28 atom-21 atom-23" d="M 64.9,155.1 L 61.8,161.9" style="fill:none;fill-rule:evenodd;stroke:#000000;stroke-width:2.0px;stroke-linecap:butt;stroke-linejoin:miter;stroke-opacity:1"/>
<path class="bond-29 atom-21 atom-24" d="M 64.9,155.1 L 67.8,140.1" style="fill:none;fill-rule:evenodd;stroke:#000000;stroke-width:2.0px;stroke-linecap:butt;stroke-linejoin:miter;stroke-opacity:1"/>
<path class="bond-30 atom-21 atom-25" d="M 64.9,155.1 L 49.9,150.3" style="fill:none;fill-rule:evenodd;stroke:#000000;stroke-width:2.0px;stroke-linecap:butt;stroke-linejoin:miter;stroke-opacity:1"/>
<path class="bond-31 atom-22 atom-26" d="M 100.3,166.5 L 98.8,174.0" style="fill:none;fill-rule:evenodd;stroke:#000000;stroke-width:2.0px;stroke-linecap:butt;stroke-linejoin:miter;stroke-opacity:1"/>
<path class="bond-32 atom-22 atom-27" d="M 100.3,166.5 L 105.4,158.2" style="fill:none;fill-rule:evenodd;stroke:#000000;stroke-width:2.0px;stroke-linecap:butt;stroke-linejoin:miter;stroke-opacity:1"/>
<path class="bond-33 atom-22 atom-28" d="M 100.3,166.5 L 114.1,169.1" style="fill:none;fill-rule:evenodd;stroke:#000000;stroke-width:2.0px;stroke-linecap:butt;stroke-linejoin:miter;stroke-opacity:1"/>
<path class="bond-34 atom-29 atom-32" d="M 68.3,196.8 L 62.0,198.2" style="fill:none;fill-rule:evenodd;stroke:#FF0000;stroke-width:2.0px;stroke-linecap:butt;stroke-linejoin:miter;stroke-opacity:1"/>
<path class="bond-34 atom-29 atom-32" d="M 62.0,198.2 L 55.7,199.6" style="fill:none;fill-rule:evenodd;stroke:#000000;stroke-width:2.0px;stroke-linecap:butt;stroke-linejoin:miter;stroke-opacity:1"/>
<path class="bond-35 atom-33 atom-37" d="M 194.5,140.5 L 199.2,145.7" style="fill:none;fill-rule:evenodd;stroke:#FF0000;stroke-width:2.0px;stroke-linecap:butt;stroke-linejoin:miter;stroke-opacity:1"/>
<path class="bond-35 atom-33 atom-37" d="M 199.2,145.7 L 204.0,150.9" style="fill:none;fill-rule:evenodd;stroke:#000000;stroke-width:2.0px;stroke-linecap:butt;stroke-linejoin:miter;stroke-opacity:1"/>
<path class="bond-36 atom-34 atom-35" d="M 229.0,178.4 L 210.8,182.4" style="fill:none;fill-rule:evenodd;stroke:#000000;stroke-width:2.0px;stroke-linecap:butt;stroke-linejoin:miter;stroke-opacity:1"/>
<path class="bond-36 atom-34 atom-35" d="M 225.5,175.4 L 212.7,178.2" style="fill:none;fill-rule:evenodd;stroke:#000000;stroke-width:2.0px;stroke-linecap:butt;stroke-linejoin:miter;stroke-opacity:1"/>
<path class="bond-37 atom-34 atom-39" d="M 229.0,178.4 L 234.6,160.8" style="fill:none;fill-rule:evenodd;stroke:#000000;stroke-width:2.0px;stroke-linecap:butt;stroke-linejoin:miter;stroke-opacity:1"/>
<path class="bond-38 atom-34 atom-40" d="M 229.0,178.4 L 234.1,184.1" style="fill:none;fill-rule:evenodd;stroke:#000000;stroke-width:2.0px;stroke-linecap:butt;stroke-linejoin:miter;stroke-opacity:1"/>
<path class="bond-38 atom-34 atom-40" d="M 234.1,184.1 L 239.3,189.8" style="fill:none;fill-rule:evenodd;stroke:#33CCCC;stroke-width:2.0px;stroke-linecap:butt;stroke-linejoin:miter;stroke-opacity:1"/>
<path class="bond-39 atom-35 atom-36" d="M 210.8,182.4 L 198.3,168.6" style="fill:none;fill-rule:evenodd;stroke:#000000;stroke-width:2.0px;stroke-linecap:butt;stroke-linejoin:miter;stroke-opacity:1"/>
<path class="bond-40 atom-35 atom-41" d="M 210.8,182.4 L 206.2,196.9" style="fill:none;fill-rule:evenodd;stroke:#000000;stroke-width:2.0px;stroke-linecap:butt;stroke-linejoin:miter;stroke-opacity:1"/>
<path class="bond-41 atom-36 atom-37" d="M 198.3,168.6 L 204.0,150.9" style="fill:none;fill-rule:evenodd;stroke:#000000;stroke-width:2.0px;stroke-linecap:butt;stroke-linejoin:miter;stroke-opacity:1"/>
<path class="bond-41 atom-36 atom-37" d="M 202.7,167.1 L 206.7,154.7" style="fill:none;fill-rule:evenodd;stroke:#000000;stroke-width:2.0px;stroke-linecap:butt;stroke-linejoin:miter;stroke-opacity:1"/>
<path class="bond-42 atom-36 atom-42" d="M 198.3,168.6 L 191.5,171.0" style="fill:none;fill-rule:evenodd;stroke:#000000;stroke-width:2.0px;stroke-linecap:butt;stroke-linejoin:miter;stroke-opacity:1"/>
<path class="bond-42 atom-36 atom-42" d="M 191.5,171.0 L 184.7,173.4" style="fill:none;fill-rule:evenodd;stroke:#33CCCC;stroke-width:2.0px;stroke-linecap:butt;stroke-linejoin:miter;stroke-opacity:1"/>
<path class="bond-43 atom-37 atom-38" d="M 204.0,150.9 L 222.1,147.0" style="fill:none;fill-rule:evenodd;stroke:#000000;stroke-width:2.0px;stroke-linecap:butt;stroke-linejoin:miter;stroke-opacity:1"/>
<path class="bond-44 atom-38 atom-39" d="M 222.1,147.0 L 234.6,160.8" style="fill:none;fill-rule:evenodd;stroke:#000000;stroke-width:2.0px;stroke-linecap:butt;stroke-linejoin:miter;stroke-opacity:1"/>
<path class="bond-44 atom-38 atom-39" d="M 221.3,151.6 L 230.0,161.2" style="fill:none;fill-rule:evenodd;stroke:#000000;stroke-width:2.0px;stroke-linecap:butt;stroke-linejoin:miter;stroke-opacity:1"/>
<path class="bond-45 atom-38 atom-43" d="M 222.1,147.0 L 226.8,132.5" style="fill:none;fill-rule:evenodd;stroke:#000000;stroke-width:2.0px;stroke-linecap:butt;stroke-linejoin:miter;stroke-opacity:1"/>
<path class="bond-46 atom-39 atom-44" d="M 234.6,160.8 L 250.1,157.4" style="fill:none;fill-rule:evenodd;stroke:#000000;stroke-width:2.0px;stroke-linecap:butt;stroke-linejoin:miter;stroke-opacity:1"/>
<path class="atom-8" d="M 110.9 118.9 L 112.6 121.7 Q 112.8 121.9, 113.1 122.4 Q 113.4 122.9, 113.4 123.0 L 113.4 118.9 L 114.1 118.9 L 114.1 124.1 L 113.4 124.1 L 111.5 121.1 Q 111.3 120.7, 111.1 120.3 Q 110.8 119.9, 110.8 119.8 L 110.8 124.1 L 110.1 124.1 L 110.1 118.9 L 110.9 118.9 " fill="#0000FF"/>
<path class="atom-9" d="M 174.9 172.5 Q 174.9 171.2, 175.5 170.5 Q 176.2 169.8, 177.3 169.8 Q 178.5 169.8, 179.1 170.5 Q 179.7 171.2, 179.7 172.5 Q 179.7 173.8, 179.1 174.5 Q 178.5 175.2, 177.3 175.2 Q 176.2 175.2, 175.5 174.5 Q 174.9 173.8, 174.9 172.5 M 177.3 174.6 Q 178.1 174.6, 178.6 174.1 Q 179.0 173.5, 179.0 172.5 Q 179.0 171.5, 178.6 170.9 Q 178.1 170.4, 177.3 170.4 Q 176.5 170.4, 176.1 170.9 Q 175.7 171.4, 175.7 172.5 Q 175.7 173.5, 176.1 174.1 Q 176.5 174.6, 177.3 174.6 " fill="#FF0000"/>
<path class="atom-10" d="M 148.4 160.1 L 150.1 162.9 Q 150.3 163.2, 150.5 163.7 Q 150.8 164.2, 150.8 164.2 L 150.8 160.1 L 151.5 160.1 L 151.5 165.4 L 150.8 165.4 L 149.0 162.3 Q 148.7 162.0, 148.5 161.6 Q 148.3 161.2, 148.2 161.0 L 148.2 165.4 L 147.5 165.4 L 147.5 160.1 L 148.4 160.1 " fill="#0000FF"/>
<path class="atom-11" d="M 117.7 150.3 L 119.5 153.1 Q 119.6 153.4, 119.9 153.9 Q 120.2 154.4, 120.2 154.4 L 120.2 150.3 L 120.9 150.3 L 120.9 155.6 L 120.2 155.6 L 118.3 152.5 Q 118.1 152.2, 117.9 151.8 Q 117.7 151.3, 117.6 151.2 L 117.6 155.6 L 116.9 155.6 L 116.9 150.3 L 117.7 150.3 " fill="#0000FF"/>
<path class="atom-12" d="M 87.1 140.5 L 88.8 143.3 Q 89.0 143.6, 89.3 144.1 Q 89.5 144.6, 89.6 144.6 L 89.6 140.5 L 90.3 140.5 L 90.3 145.8 L 89.5 145.8 L 87.7 142.7 Q 87.5 142.4, 87.2 141.9 Q 87.0 141.5, 87.0 141.4 L 87.0 145.8 L 86.3 145.8 L 86.3 140.5 L 87.1 140.5 " fill="#0000FF"/>
<path class="atom-13" d="M 164.5 107.1 L 165.2 107.1 L 165.2 109.3 L 167.9 109.3 L 167.9 107.1 L 168.6 107.1 L 168.6 112.3 L 167.9 112.3 L 167.9 109.9 L 165.2 109.9 L 165.2 112.3 L 164.5 112.3 L 164.5 107.1 " fill="#000000"/>
<path class="atom-14" d="M 133.8 97.2 L 134.6 97.2 L 134.6 99.5 L 137.2 99.5 L 137.2 97.2 L 138.0 97.2 L 138.0 102.5 L 137.2 102.5 L 137.2 100.1 L 134.6 100.1 L 134.6 102.5 L 133.8 102.5 L 133.8 97.2 " fill="#000000"/>
<path class="atom-15" d="M 126.6 170.8 L 127.3 170.8 L 127.3 173.0 L 130.0 173.0 L 130.0 170.8 L 130.7 170.8 L 130.7 176.1 L 130.0 176.1 L 130.0 173.6 L 127.3 173.6 L 127.3 176.1 L 126.6 176.1 L 126.6 170.8 " fill="#000000"/>
<path class="atom-16" d="M 159.5 183.5 L 160.2 183.5 L 160.2 185.7 L 162.9 185.7 L 162.9 183.5 L 163.6 183.5 L 163.6 188.7 L 162.9 188.7 L 162.9 186.3 L 160.2 186.3 L 160.2 188.7 L 159.5 188.7 L 159.5 183.5 " fill="#000000"/>
<path class="atom-17" d="M 136.1 195.5 L 136.9 195.5 L 136.9 197.7 L 139.5 197.7 L 139.5 195.5 L 140.3 195.5 L 140.3 200.8 L 139.5 200.8 L 139.5 198.3 L 136.9 198.3 L 136.9 200.8 L 136.1 200.8 L 136.1 195.5 " fill="#000000"/>
<path class="atom-18" d="M 75.5 125.3 L 76.2 125.3 L 76.2 127.6 L 78.9 127.6 L 78.9 125.3 L 79.6 125.3 L 79.6 130.6 L 78.9 130.6 L 78.9 128.2 L 76.2 128.2 L 76.2 130.6 L 75.5 130.6 L 75.5 125.3 " fill="#000000"/>
<path class="atom-23" d="M 58.3 162.5 L 59.0 162.5 L 59.0 164.7 L 61.7 164.7 L 61.7 162.5 L 62.4 162.5 L 62.4 167.7 L 61.7 167.7 L 61.7 165.3 L 59.0 165.3 L 59.0 167.7 L 58.3 167.7 L 58.3 162.5 " fill="#000000"/>
<path class="atom-24" d="M 66.3 134.3 L 67.0 134.3 L 67.0 136.5 L 69.7 136.5 L 69.7 134.3 L 70.4 134.3 L 70.4 139.5 L 69.7 139.5 L 69.7 137.1 L 67.0 137.1 L 67.0 139.5 L 66.3 139.5 L 66.3 134.3 " fill="#000000"/>
<path class="atom-25" d="M 45.2 146.8 L 45.9 146.8 L 45.9 149.1 L 48.6 149.1 L 48.6 146.8 L 49.3 146.8 L 49.3 152.1 L 48.6 152.1 L 48.6 149.7 L 45.9 149.7 L 45.9 152.1 L 45.2 152.1 L 45.2 146.8 " fill="#000000"/>
<path class="atom-26" d="M 96.2 174.6 L 96.9 174.6 L 96.9 176.9 L 99.6 176.9 L 99.6 174.6 L 100.3 174.6 L 100.3 179.9 L 99.6 179.9 L 99.6 177.5 L 96.9 177.5 L 96.9 179.9 L 96.2 179.9 L 96.2 174.6 " fill="#000000"/>
<path class="atom-27" d="M 105.4 152.3 L 106.1 152.3 L 106.1 154.6 L 108.8 154.6 L 108.8 152.3 L 109.5 152.3 L 109.5 157.6 L 108.8 157.6 L 108.8 155.2 L 106.1 155.2 L 106.1 157.6 L 105.4 157.6 L 105.4 152.3 " fill="#000000"/>
<path class="atom-28" d="M 114.6 167.0 L 115.4 167.0 L 115.4 169.2 L 118.1 169.2 L 118.1 167.0 L 118.8 167.0 L 118.8 172.2 L 118.1 172.2 L 118.1 169.8 L 115.4 169.8 L 115.4 172.2 L 114.6 172.2 L 114.6 167.0 " fill="#000000"/>
<path class="atom-29" d="M 68.8 196.2 Q 68.8 194.9, 69.5 194.2 Q 70.1 193.5, 71.3 193.5 Q 72.4 193.5, 73.1 194.2 Q 73.7 194.9, 73.7 196.2 Q 73.7 197.5, 73.0 198.2 Q 72.4 198.9, 71.3 198.9 Q 70.1 198.9, 69.5 198.2 Q 68.8 197.5, 68.8 196.2 M 71.3 198.3 Q 72.1 198.3, 72.5 197.8 Q 72.9 197.3, 72.9 196.2 Q 72.9 195.2, 72.5 194.7 Q 72.1 194.1, 71.3 194.1 Q 70.5 194.1, 70.0 194.6 Q 69.6 195.2, 69.6 196.2 Q 69.6 197.3, 70.0 197.8 Q 70.5 198.3, 71.3 198.3 " fill="#FF0000"/>
<path class="atom-30" d="M 64.1 173.8 L 64.8 173.8 L 64.8 176.1 L 67.5 176.1 L 67.5 173.8 L 68.2 173.8 L 68.2 179.1 L 67.5 179.1 L 67.5 176.7 L 64.8 176.7 L 64.8 179.1 L 64.1 179.1 L 64.1 173.8 " fill="#000000"/>
<path class="atom-31" d="M 84.8 180.5 L 85.5 180.5 L 85.5 182.7 L 88.2 182.7 L 88.2 180.5 L 88.9 180.5 L 88.9 185.7 L 88.2 185.7 L 88.2 183.3 L 85.5 183.3 L 85.5 185.7 L 84.8 185.7 L 84.8 180.5 " fill="#000000"/>
<path class="atom-32" d="M 51.1 197.5 L 51.8 197.5 L 51.8 199.7 L 54.5 199.7 L 54.5 197.5 L 55.2 197.5 L 55.2 202.8 L 54.5 202.8 L 54.5 200.3 L 51.8 200.3 L 51.8 202.8 L 51.1 202.8 L 51.1 197.5 " fill="#000000"/>
<path class="atom-33" d="M 189.1 137.2 Q 189.1 135.9, 189.7 135.2 Q 190.3 134.5, 191.5 134.5 Q 192.7 134.5, 193.3 135.2 Q 193.9 135.9, 193.9 137.2 Q 193.9 138.5, 193.3 139.2 Q 192.7 139.9, 191.5 139.9 Q 190.3 139.9, 189.7 139.2 Q 189.1 138.5, 189.1 137.2 M 191.5 139.3 Q 192.3 139.3, 192.7 138.8 Q 193.2 138.3, 193.2 137.2 Q 193.2 136.2, 192.7 135.7 Q 192.3 135.1, 191.5 135.1 Q 190.7 135.1, 190.3 135.6 Q 189.8 136.2, 189.8 137.2 Q 189.8 138.3, 190.3 138.8 Q 190.7 139.3, 191.5 139.3 " fill="#FF0000"/>
<path class="atom-40" d="M 239.9 189.6 L 243.0 189.6 L 243.0 190.2 L 240.6 190.2 L 240.6 191.8 L 242.7 191.8 L 242.7 192.4 L 240.6 192.4 L 240.6 194.8 L 239.9 194.8 L 239.9 189.6 " fill="#33CCCC"/>
<path class="atom-41" d="M 203.1 197.4 L 203.8 197.4 L 203.8 199.7 L 206.5 199.7 L 206.5 197.4 L 207.2 197.4 L 207.2 202.7 L 206.5 202.7 L 206.5 200.3 L 203.8 200.3 L 203.8 202.7 L 203.1 202.7 L 203.1 197.4 " fill="#000000"/>
<path class="atom-42" d="M 181.0 171.5 L 184.1 171.5 L 184.1 172.1 L 181.7 172.1 L 181.7 173.7 L 183.8 173.7 L 183.8 174.3 L 181.7 174.3 L 181.7 176.8 L 181.0 176.8 L 181.0 171.5 " fill="#33CCCC"/>
<path class="atom-43" d="M 225.8 126.7 L 226.5 126.7 L 226.5 128.9 L 229.2 128.9 L 229.2 126.7 L 229.9 126.7 L 229.9 132.0 L 229.2 132.0 L 229.2 129.5 L 226.5 129.5 L 226.5 132.0 L 225.8 132.0 L 225.8 126.7 " fill="#000000"/>
<path class="atom-44" d="M 250.7 154.2 L 251.4 154.2 L 251.4 156.4 L 254.1 156.4 L 254.1 154.2 L 254.8 154.2 L 254.8 159.5 L 254.1 159.5 L 254.1 157.0 L 251.4 157.0 L 251.4 159.5 L 250.7 159.5 L 250.7 154.2 " fill="#000000"/>
<path class="bond-0 atom-0 atom-8" d="M 446.0,127.6 L 443.5,134.7" style="fill:none;fill-rule:evenodd;stroke:#000000;stroke-width:2.0px;stroke-linecap:butt;stroke-linejoin:miter;stroke-opacity:1"/>
<path class="bond-0 atom-0 atom-8" d="M 443.5,134.7 L 441.1,141.9" style="fill:none;fill-rule:evenodd;stroke:#0000FF;stroke-width:2.0px;stroke-linecap:butt;stroke-linejoin:miter;stroke-opacity:1"/>
<path class="bond-1 atom-0 atom-13" d="M 446.0,127.6 L 460.9,132.6" style="fill:none;fill-rule:evenodd;stroke:#000000;stroke-width:2.0px;stroke-linecap:butt;stroke-linejoin:miter;stroke-opacity:1"/>
<path class="bond-2 atom-0 atom-14" d="M 446.0,127.6 L 431.0,122.5" style="fill:none;fill-rule:evenodd;stroke:#000000;stroke-width:2.0px;stroke-linecap:butt;stroke-linejoin:miter;stroke-opacity:1"/>
<path class="bond-3 atom-0 atom-15" d="M 446.0,127.6 L 450.8,113.2" style="fill:none;fill-rule:evenodd;stroke:#000000;stroke-width:2.0px;stroke-linecap:butt;stroke-linejoin:miter;stroke-opacity:1"/>
<path class="bond-4 atom-1 atom-2" d="M 415.8,166.4 L 428.1,180.3" style="fill:none;fill-rule:evenodd;stroke:#000000;stroke-width:2.0px;stroke-linecap:butt;stroke-linejoin:miter;stroke-opacity:1"/>
<path class="bond-4 atom-1 atom-2" d="M 420.5,166.0 L 429.0,175.8" style="fill:none;fill-rule:evenodd;stroke:#000000;stroke-width:2.0px;stroke-linecap:butt;stroke-linejoin:miter;stroke-opacity:1"/>
<path class="bond-5 atom-1 atom-6" d="M 415.8,166.4 L 421.8,148.8" style="fill:none;fill-rule:evenodd;stroke:#000000;stroke-width:2.0px;stroke-linecap:butt;stroke-linejoin:miter;stroke-opacity:1"/>
<path class="bond-6 atom-1 atom-37" d="M 415.8,166.4 L 408.2,167.9" style="fill:none;fill-rule:evenodd;stroke:#000000;stroke-width:2.0px;stroke-linecap:butt;stroke-linejoin:miter;stroke-opacity:1"/>
<path class="bond-6 atom-1 atom-37" d="M 408.2,167.9 L 400.6,169.4" style="fill:none;fill-rule:evenodd;stroke:#FF0000;stroke-width:2.0px;stroke-linecap:butt;stroke-linejoin:miter;stroke-opacity:1"/>
<path class="bond-7 atom-2 atom-3" d="M 428.1,180.3 L 446.3,176.7" style="fill:none;fill-rule:evenodd;stroke:#000000;stroke-width:2.0px;stroke-linecap:butt;stroke-linejoin:miter;stroke-opacity:1"/>
<path class="bond-8 atom-2 atom-16" d="M 428.1,180.3 L 423.2,194.7" style="fill:none;fill-rule:evenodd;stroke:#000000;stroke-width:2.0px;stroke-linecap:butt;stroke-linejoin:miter;stroke-opacity:1"/>
<path class="bond-9 atom-3 atom-4" d="M 446.3,176.7 L 458.6,190.6" style="fill:none;fill-rule:evenodd;stroke:#000000;stroke-width:2.0px;stroke-linecap:butt;stroke-linejoin:miter;stroke-opacity:1"/>
<path class="bond-9 atom-3 atom-4" d="M 450.9,176.3 L 459.5,186.1" style="fill:none;fill-rule:evenodd;stroke:#000000;stroke-width:2.0px;stroke-linecap:butt;stroke-linejoin:miter;stroke-opacity:1"/>
<path class="bond-10 atom-3 atom-9" d="M 446.3,176.7 L 452.3,159.1" style="fill:none;fill-rule:evenodd;stroke:#000000;stroke-width:2.0px;stroke-linecap:butt;stroke-linejoin:miter;stroke-opacity:1"/>
<path class="bond-11 atom-4 atom-5" d="M 458.6,190.6 L 466.4,189.1" style="fill:none;fill-rule:evenodd;stroke:#000000;stroke-width:2.0px;stroke-linecap:butt;stroke-linejoin:miter;stroke-opacity:1"/>
<path class="bond-11 atom-4 atom-5" d="M 466.4,189.1 L 474.2,187.5" style="fill:none;fill-rule:evenodd;stroke:#0000FF;stroke-width:2.0px;stroke-linecap:butt;stroke-linejoin:miter;stroke-opacity:1"/>
<path class="bond-12 atom-4 atom-17" d="M 458.6,190.6 L 453.7,205.0" style="fill:none;fill-rule:evenodd;stroke:#000000;stroke-width:2.0px;stroke-linecap:butt;stroke-linejoin:miter;stroke-opacity:1"/>
<path class="bond-13 atom-5 atom-11" d="M 477.9,183.8 L 480.3,176.6" style="fill:none;fill-rule:evenodd;stroke:#0000FF;stroke-width:2.0px;stroke-linecap:butt;stroke-linejoin:miter;stroke-opacity:1"/>
<path class="bond-13 atom-5 atom-11" d="M 480.3,176.6 L 482.7,169.4" style="fill:none;fill-rule:evenodd;stroke:#000000;stroke-width:2.0px;stroke-linecap:butt;stroke-linejoin:miter;stroke-opacity:1"/>
<path class="bond-13 atom-5 atom-11" d="M 475.1,180.4 L 476.8,175.4" style="fill:none;fill-rule:evenodd;stroke:#0000FF;stroke-width:2.0px;stroke-linecap:butt;stroke-linejoin:miter;stroke-opacity:1"/>
<path class="bond-13 atom-5 atom-11" d="M 476.8,175.4 L 478.5,170.4" style="fill:none;fill-rule:evenodd;stroke:#000000;stroke-width:2.0px;stroke-linecap:butt;stroke-linejoin:miter;stroke-opacity:1"/>
<path class="bond-14 atom-6 atom-7" d="M 420.3,149.8 L 418.0,146.5" style="fill:none;fill-rule:evenodd;stroke:#000000;stroke-width:2.0px;stroke-linecap:butt;stroke-linejoin:miter;stroke-opacity:1"/>
<path class="bond-14 atom-6 atom-7" d="M 418.0,146.5 L 415.7,143.1" style="fill:none;fill-rule:evenodd;stroke:#FF0000;stroke-width:2.0px;stroke-linecap:butt;stroke-linejoin:miter;stroke-opacity:1"/>
<path class="bond-14 atom-6 atom-7" d="M 423.3,147.7 L 421.0,144.4" style="fill:none;fill-rule:evenodd;stroke:#000000;stroke-width:2.0px;stroke-linecap:butt;stroke-linejoin:miter;stroke-opacity:1"/>
<path class="bond-14 atom-6 atom-7" d="M 421.0,144.4 L 418.7,141.0" style="fill:none;fill-rule:evenodd;stroke:#FF0000;stroke-width:2.0px;stroke-linecap:butt;stroke-linejoin:miter;stroke-opacity:1"/>
<path class="bond-15 atom-6 atom-8" d="M 421.8,148.8 L 429.6,147.2" style="fill:none;fill-rule:evenodd;stroke:#000000;stroke-width:2.0px;stroke-linecap:butt;stroke-linejoin:miter;stroke-opacity:1"/>
<path class="bond-15 atom-6 atom-8" d="M 429.6,147.2 L 437.4,145.7" style="fill:none;fill-rule:evenodd;stroke:#0000FF;stroke-width:2.0px;stroke-linecap:butt;stroke-linejoin:miter;stroke-opacity:1"/>
<path class="bond-16 atom-8 atom-9" d="M 442.6,148.1 L 447.4,153.6" style="fill:none;fill-rule:evenodd;stroke:#0000FF;stroke-width:2.0px;stroke-linecap:butt;stroke-linejoin:miter;stroke-opacity:1"/>
<path class="bond-16 atom-8 atom-9" d="M 447.4,153.6 L 452.3,159.1" style="fill:none;fill-rule:evenodd;stroke:#000000;stroke-width:2.0px;stroke-linecap:butt;stroke-linejoin:miter;stroke-opacity:1"/>
<path class="bond-17 atom-9 atom-10" d="M 452.3,159.1 L 460.1,157.5" style="fill:none;fill-rule:evenodd;stroke:#000000;stroke-width:2.0px;stroke-linecap:butt;stroke-linejoin:miter;stroke-opacity:1"/>
<path class="bond-17 atom-9 atom-10" d="M 460.1,157.5 L 467.9,156.0" style="fill:none;fill-rule:evenodd;stroke:#0000FF;stroke-width:2.0px;stroke-linecap:butt;stroke-linejoin:miter;stroke-opacity:1"/>
<path class="bond-17 atom-9 atom-10" d="M 455.3,162.3 L 460.8,161.2" style="fill:none;fill-rule:evenodd;stroke:#000000;stroke-width:2.0px;stroke-linecap:butt;stroke-linejoin:miter;stroke-opacity:1"/>
<path class="bond-17 atom-9 atom-10" d="M 460.8,161.2 L 466.3,160.1" style="fill:none;fill-rule:evenodd;stroke:#0000FF;stroke-width:2.0px;stroke-linecap:butt;stroke-linejoin:miter;stroke-opacity:1"/>
<path class="bond-18 atom-10 atom-11" d="M 473.1,158.4 L 477.9,163.9" style="fill:none;fill-rule:evenodd;stroke:#0000FF;stroke-width:2.0px;stroke-linecap:butt;stroke-linejoin:miter;stroke-opacity:1"/>
<path class="bond-18 atom-10 atom-11" d="M 477.9,163.9 L 482.7,169.4" style="fill:none;fill-rule:evenodd;stroke:#000000;stroke-width:2.0px;stroke-linecap:butt;stroke-linejoin:miter;stroke-opacity:1"/>
<path class="bond-19 atom-11 atom-12" d="M 482.7,169.4 L 490.5,167.9" style="fill:none;fill-rule:evenodd;stroke:#000000;stroke-width:2.0px;stroke-linecap:butt;stroke-linejoin:miter;stroke-opacity:1"/>
<path class="bond-19 atom-11 atom-12" d="M 490.5,167.9 L 498.4,166.3" style="fill:none;fill-rule:evenodd;stroke:#0000FF;stroke-width:2.0px;stroke-linecap:butt;stroke-linejoin:miter;stroke-opacity:1"/>
<path class="bond-20 atom-12 atom-18" d="M 503.1,169.0 L 506.2,173.4" style="fill:none;fill-rule:evenodd;stroke:#0000FF;stroke-width:2.0px;stroke-linecap:butt;stroke-linejoin:miter;stroke-opacity:1"/>
<path class="bond-20 atom-12 atom-18" d="M 506.2,173.4 L 509.2,177.9" style="fill:none;fill-rule:evenodd;stroke:#000000;stroke-width:2.0px;stroke-linecap:butt;stroke-linejoin:miter;stroke-opacity:1"/>
<path class="bond-21 atom-12 atom-19" d="M 502.0,162.5 L 504.5,155.4" style="fill:none;fill-rule:evenodd;stroke:#0000FF;stroke-width:2.0px;stroke-linecap:butt;stroke-linejoin:miter;stroke-opacity:1"/>
<path class="bond-21 atom-12 atom-19" d="M 504.5,155.4 L 506.9,148.2" style="fill:none;fill-rule:evenodd;stroke:#000000;stroke-width:2.0px;stroke-linecap:butt;stroke-linejoin:miter;stroke-opacity:1"/>
<path class="bond-22 atom-19 atom-20" d="M 506.9,148.2 L 524.5,154.1" style="fill:none;fill-rule:evenodd;stroke:#000000;stroke-width:2.0px;stroke-linecap:butt;stroke-linejoin:miter;stroke-opacity:1"/>
<path class="bond-23 atom-19 atom-21" d="M 506.9,148.2 L 512.9,130.6" style="fill:none;fill-rule:evenodd;stroke:#000000;stroke-width:2.0px;stroke-linecap:butt;stroke-linejoin:miter;stroke-opacity:1"/>
<path class="bond-24 atom-19 atom-22" d="M 506.9,148.2 L 492.0,143.1" style="fill:none;fill-rule:evenodd;stroke:#000000;stroke-width:2.0px;stroke-linecap:butt;stroke-linejoin:miter;stroke-opacity:1"/>
<path class="bond-25 atom-20 atom-23" d="M 524.5,154.1 L 527.7,147.5" style="fill:none;fill-rule:evenodd;stroke:#000000;stroke-width:2.0px;stroke-linecap:butt;stroke-linejoin:miter;stroke-opacity:1"/>
<path class="bond-26 atom-20 atom-24" d="M 524.5,154.1 L 542.1,160.1" style="fill:none;fill-rule:evenodd;stroke:#000000;stroke-width:2.0px;stroke-linecap:butt;stroke-linejoin:miter;stroke-opacity:1"/>
<path class="bond-27 atom-20 atom-25" d="M 524.5,154.1 L 521.4,169.1" style="fill:none;fill-rule:evenodd;stroke:#000000;stroke-width:2.0px;stroke-linecap:butt;stroke-linejoin:miter;stroke-opacity:1"/>
<path class="bond-28 atom-21 atom-26" d="M 512.9,130.6 L 497.9,125.5" style="fill:none;fill-rule:evenodd;stroke:#000000;stroke-width:2.0px;stroke-linecap:butt;stroke-linejoin:miter;stroke-opacity:1"/>
<path class="bond-29 atom-21 atom-27" d="M 512.9,130.6 L 520.9,132.3" style="fill:none;fill-rule:evenodd;stroke:#000000;stroke-width:2.0px;stroke-linecap:butt;stroke-linejoin:miter;stroke-opacity:1"/>
<path class="bond-30 atom-21 atom-28" d="M 512.9,130.6 L 518.8,113.0" style="fill:none;fill-rule:evenodd;stroke:#000000;stroke-width:2.0px;stroke-linecap:butt;stroke-linejoin:miter;stroke-opacity:1"/>
<path class="bond-31 atom-24 atom-32" d="M 542.1,160.1 L 549.4,162.6" style="fill:none;fill-rule:evenodd;stroke:#000000;stroke-width:2.0px;stroke-linecap:butt;stroke-linejoin:miter;stroke-opacity:1"/>
<path class="bond-31 atom-24 atom-32" d="M 549.4,162.6 L 556.7,165.0" style="fill:none;fill-rule:evenodd;stroke:#FF0000;stroke-width:2.0px;stroke-linecap:butt;stroke-linejoin:miter;stroke-opacity:1"/>
<path class="bond-32 atom-24 atom-33" d="M 542.1,160.1 L 547.0,145.7" style="fill:none;fill-rule:evenodd;stroke:#000000;stroke-width:2.0px;stroke-linecap:butt;stroke-linejoin:miter;stroke-opacity:1"/>
<path class="bond-33 atom-24 atom-34" d="M 542.1,160.1 L 537.2,174.5" style="fill:none;fill-rule:evenodd;stroke:#000000;stroke-width:2.0px;stroke-linecap:butt;stroke-linejoin:miter;stroke-opacity:1"/>
<path class="bond-34 atom-28 atom-29" d="M 518.8,113.0 L 533.8,118.0" style="fill:none;fill-rule:evenodd;stroke:#000000;stroke-width:2.0px;stroke-linecap:butt;stroke-linejoin:miter;stroke-opacity:1"/>
<path class="bond-35 atom-28 atom-30" d="M 518.8,113.0 L 503.9,107.9" style="fill:none;fill-rule:evenodd;stroke:#000000;stroke-width:2.0px;stroke-linecap:butt;stroke-linejoin:miter;stroke-opacity:1"/>
<path class="bond-36 atom-28 atom-31" d="M 518.8,113.0 L 521.2,105.9" style="fill:none;fill-rule:evenodd;stroke:#000000;stroke-width:2.0px;stroke-linecap:butt;stroke-linejoin:miter;stroke-opacity:1"/>
<path class="bond-36 atom-28 atom-31" d="M 521.2,105.9 L 523.6,98.7" style="fill:none;fill-rule:evenodd;stroke:#FF0000;stroke-width:2.0px;stroke-linecap:butt;stroke-linejoin:miter;stroke-opacity:1"/>
<path class="bond-37 atom-31 atom-36" d="M 527.8,94.8 L 534.0,93.5" style="fill:none;fill-rule:evenodd;stroke:#FF0000;stroke-width:2.0px;stroke-linecap:butt;stroke-linejoin:miter;stroke-opacity:1"/>
<path class="bond-37 atom-31 atom-36" d="M 534.0,93.5 L 540.3,92.3" style="fill:none;fill-rule:evenodd;stroke:#000000;stroke-width:2.0px;stroke-linecap:butt;stroke-linejoin:miter;stroke-opacity:1"/>
<path class="bond-38 atom-32 atom-35" d="M 560.4,169.4 L 561.5,175.2" style="fill:none;fill-rule:evenodd;stroke:#FF0000;stroke-width:2.0px;stroke-linecap:butt;stroke-linejoin:miter;stroke-opacity:1"/>
<path class="bond-38 atom-32 atom-35" d="M 561.5,175.2 L 562.7,181.0" style="fill:none;fill-rule:evenodd;stroke:#000000;stroke-width:2.0px;stroke-linecap:butt;stroke-linejoin:miter;stroke-opacity:1"/>
<path class="bond-39 atom-37 atom-41" d="M 394.8,166.8 L 390.1,161.4" style="fill:none;fill-rule:evenodd;stroke:#FF0000;stroke-width:2.0px;stroke-linecap:butt;stroke-linejoin:miter;stroke-opacity:1"/>
<path class="bond-39 atom-37 atom-41" d="M 390.1,161.4 L 385.4,156.1" style="fill:none;fill-rule:evenodd;stroke:#000000;stroke-width:2.0px;stroke-linecap:butt;stroke-linejoin:miter;stroke-opacity:1"/>
<path class="bond-40 atom-38 atom-39" d="M 360.8,128.2 L 379.1,124.5" style="fill:none;fill-rule:evenodd;stroke:#000000;stroke-width:2.0px;stroke-linecap:butt;stroke-linejoin:miter;stroke-opacity:1"/>
<path class="bond-40 atom-38 atom-39" d="M 364.3,131.3 L 377.1,128.7" style="fill:none;fill-rule:evenodd;stroke:#000000;stroke-width:2.0px;stroke-linecap:butt;stroke-linejoin:miter;stroke-opacity:1"/>
<path class="bond-41 atom-38 atom-43" d="M 360.8,128.2 L 354.9,145.8" style="fill:none;fill-rule:evenodd;stroke:#000000;stroke-width:2.0px;stroke-linecap:butt;stroke-linejoin:miter;stroke-opacity:1"/>
<path class="bond-42 atom-38 atom-44" d="M 360.8,128.2 L 355.8,122.4" style="fill:none;fill-rule:evenodd;stroke:#000000;stroke-width:2.0px;stroke-linecap:butt;stroke-linejoin:miter;stroke-opacity:1"/>
<path class="bond-42 atom-38 atom-44" d="M 355.8,122.4 L 350.7,116.7" style="fill:none;fill-rule:evenodd;stroke:#33CCCC;stroke-width:2.0px;stroke-linecap:butt;stroke-linejoin:miter;stroke-opacity:1"/>
<path class="bond-43 atom-39 atom-40" d="M 379.1,124.5 L 391.3,138.5" style="fill:none;fill-rule:evenodd;stroke:#000000;stroke-width:2.0px;stroke-linecap:butt;stroke-linejoin:miter;stroke-opacity:1"/>
<path class="bond-44 atom-39 atom-45" d="M 379.1,124.5 L 383.9,110.2" style="fill:none;fill-rule:evenodd;stroke:#000000;stroke-width:2.0px;stroke-linecap:butt;stroke-linejoin:miter;stroke-opacity:1"/>
<path class="bond-45 atom-40 atom-41" d="M 391.3,138.5 L 385.4,156.1" style="fill:none;fill-rule:evenodd;stroke:#000000;stroke-width:2.0px;stroke-linecap:butt;stroke-linejoin:miter;stroke-opacity:1"/>
<path class="bond-45 atom-40 atom-41" d="M 386.9,139.9 L 382.7,152.2" style="fill:none;fill-rule:evenodd;stroke:#000000;stroke-width:2.0px;stroke-linecap:butt;stroke-linejoin:miter;stroke-opacity:1"/>
<path class="bond-46 atom-40 atom-46" d="M 391.3,138.5 L 396.0,136.9" style="fill:none;fill-rule:evenodd;stroke:#000000;stroke-width:2.0px;stroke-linecap:butt;stroke-linejoin:miter;stroke-opacity:1"/>
<path class="bond-46 atom-40 atom-46" d="M 396.0,136.9 L 400.7,135.4" style="fill:none;fill-rule:evenodd;stroke:#33CCCC;stroke-width:2.0px;stroke-linecap:butt;stroke-linejoin:miter;stroke-opacity:1"/>
<path class="bond-47 atom-41 atom-42" d="M 385.4,156.1 L 367.1,159.7" style="fill:none;fill-rule:evenodd;stroke:#000000;stroke-width:2.0px;stroke-linecap:butt;stroke-linejoin:miter;stroke-opacity:1"/>
<path class="bond-48 atom-42 atom-43" d="M 367.1,159.7 L 354.9,145.8" style="fill:none;fill-rule:evenodd;stroke:#000000;stroke-width:2.0px;stroke-linecap:butt;stroke-linejoin:miter;stroke-opacity:1"/>
<path class="bond-48 atom-42 atom-43" d="M 368.1,155.2 L 359.5,145.4" style="fill:none;fill-rule:evenodd;stroke:#000000;stroke-width:2.0px;stroke-linecap:butt;stroke-linejoin:miter;stroke-opacity:1"/>
<path class="bond-49 atom-42 atom-47" d="M 367.1,159.7 L 362.3,174.1" style="fill:none;fill-rule:evenodd;stroke:#000000;stroke-width:2.0px;stroke-linecap:butt;stroke-linejoin:miter;stroke-opacity:1"/>
<path class="bond-50 atom-43 atom-48" d="M 354.9,145.8 L 339.3,148.9" style="fill:none;fill-rule:evenodd;stroke:#000000;stroke-width:2.0px;stroke-linecap:butt;stroke-linejoin:miter;stroke-opacity:1"/>
<path class="atom-5" d="M 475.6 184.4 L 477.3 187.2 Q 477.5 187.4, 477.8 187.9 Q 478.1 188.4, 478.1 188.5 L 478.1 184.4 L 478.8 184.4 L 478.8 189.6 L 478.1 189.6 L 476.2 186.6 Q 476.0 186.2, 475.8 185.8 Q 475.5 185.4, 475.5 185.3 L 475.5 189.6 L 474.8 189.6 L 474.8 184.4 L 475.6 184.4 " fill="#0000FF"/>
<path class="atom-7" d="M 412.5 138.7 Q 412.5 137.5, 413.1 136.8 Q 413.8 136.1, 414.9 136.1 Q 416.1 136.1, 416.7 136.8 Q 417.3 137.5, 417.3 138.7 Q 417.3 140.0, 416.7 140.7 Q 416.1 141.5, 414.9 141.5 Q 413.8 141.5, 413.1 140.7 Q 412.5 140.0, 412.5 138.7 M 414.9 140.9 Q 415.7 140.9, 416.2 140.3 Q 416.6 139.8, 416.6 138.7 Q 416.6 137.7, 416.2 137.2 Q 415.7 136.7, 414.9 136.7 Q 414.1 136.7, 413.7 137.2 Q 413.2 137.7, 413.2 138.7 Q 413.2 139.8, 413.7 140.3 Q 414.1 140.9, 414.9 140.9 " fill="#FF0000"/>
<path class="atom-8" d="M 438.8 142.5 L 440.6 145.3 Q 440.7 145.6, 441.0 146.1 Q 441.3 146.6, 441.3 146.6 L 441.3 142.5 L 442.0 142.5 L 442.0 147.8 L 441.3 147.8 L 439.4 144.7 Q 439.2 144.4, 439.0 144.0 Q 438.8 143.6, 438.7 143.4 L 438.7 147.8 L 438.0 147.8 L 438.0 142.5 L 438.8 142.5 " fill="#0000FF"/>
<path class="atom-10" d="M 469.3 152.8 L 471.0 155.6 Q 471.2 155.9, 471.5 156.4 Q 471.8 156.9, 471.8 156.9 L 471.8 152.8 L 472.5 152.8 L 472.5 158.1 L 471.7 158.1 L 469.9 155.0 Q 469.7 154.7, 469.5 154.3 Q 469.2 153.9, 469.2 153.7 L 469.2 158.1 L 468.5 158.1 L 468.5 152.8 L 469.3 152.8 " fill="#0000FF"/>
<path class="atom-12" d="M 499.8 163.1 L 501.5 165.9 Q 501.7 166.2, 502.0 166.7 Q 502.2 167.2, 502.2 167.2 L 502.2 163.1 L 502.9 163.1 L 502.9 168.4 L 502.2 168.4 L 500.4 165.4 Q 500.2 165.0, 499.9 164.6 Q 499.7 164.2, 499.6 164.1 L 499.6 168.4 L 499.0 168.4 L 499.0 163.1 L 499.8 163.1 " fill="#0000FF"/>
<path class="atom-13" d="M 461.5 130.9 L 462.2 130.9 L 462.2 133.1 L 464.9 133.1 L 464.9 130.9 L 465.6 130.9 L 465.6 136.1 L 464.9 136.1 L 464.9 133.7 L 462.2 133.7 L 462.2 136.1 L 461.5 136.1 L 461.5 130.9 " fill="#000000"/>
<path class="atom-14" d="M 426.3 119.0 L 427.0 119.0 L 427.0 121.2 L 429.7 121.2 L 429.7 119.0 L 430.4 119.0 L 430.4 124.2 L 429.7 124.2 L 429.7 121.8 L 427.0 121.8 L 427.0 124.2 L 426.3 124.2 L 426.3 119.0 " fill="#000000"/>
<path class="atom-15" d="M 449.9 107.3 L 450.6 107.3 L 450.6 109.6 L 453.3 109.6 L 453.3 107.3 L 454.0 107.3 L 454.0 112.6 L 453.3 112.6 L 453.3 110.2 L 450.6 110.2 L 450.6 112.6 L 449.9 112.6 L 449.9 107.3 " fill="#000000"/>
<path class="atom-16" d="M 420.1 195.3 L 420.8 195.3 L 420.8 197.5 L 423.5 197.5 L 423.5 195.3 L 424.2 195.3 L 424.2 200.6 L 423.5 200.6 L 423.5 198.1 L 420.8 198.1 L 420.8 200.6 L 420.1 200.6 L 420.1 195.3 " fill="#000000"/>
<path class="atom-17" d="M 450.6 205.6 L 451.3 205.6 L 451.3 207.9 L 454.0 207.9 L 454.0 205.6 L 454.7 205.6 L 454.7 210.9 L 454.0 210.9 L 454.0 208.4 L 451.3 208.4 L 451.3 210.9 L 450.6 210.9 L 450.6 205.6 " fill="#000000"/>
<path class="atom-18" d="M 509.4 178.5 L 510.1 178.5 L 510.1 180.7 L 512.8 180.7 L 512.8 178.5 L 513.5 178.5 L 513.5 183.7 L 512.8 183.7 L 512.8 181.3 L 510.1 181.3 L 510.1 183.7 L 509.4 183.7 L 509.4 178.5 " fill="#000000"/>
<path class="atom-22" d="M 487.3 139.6 L 488.0 139.6 L 488.0 141.8 L 490.7 141.8 L 490.7 139.6 L 491.4 139.6 L 491.4 144.9 L 490.7 144.9 L 490.7 142.4 L 488.0 142.4 L 488.0 144.9 L 487.3 144.9 L 487.3 139.6 " fill="#000000"/>
<path class="atom-23" d="M 527.2 141.6 L 527.9 141.6 L 527.9 143.9 L 530.6 143.9 L 530.6 141.6 L 531.3 141.6 L 531.3 146.9 L 530.6 146.9 L 530.6 144.5 L 527.9 144.5 L 527.9 146.9 L 527.2 146.9 L 527.2 141.6 " fill="#000000"/>
<path class="atom-25" d="M 518.7 169.7 L 519.4 169.7 L 519.4 171.9 L 522.1 171.9 L 522.1 169.7 L 522.8 169.7 L 522.8 175.0 L 522.1 175.0 L 522.1 172.5 L 519.4 172.5 L 519.4 175.0 L 518.7 175.0 L 518.7 169.7 " fill="#000000"/>
<path class="atom-26" d="M 493.2 122.0 L 493.9 122.0 L 493.9 124.2 L 496.6 124.2 L 496.6 122.0 L 497.3 122.0 L 497.3 127.3 L 496.6 127.3 L 496.6 124.8 L 493.9 124.8 L 493.9 127.3 L 493.2 127.3 L 493.2 122.0 " fill="#000000"/>
<path class="atom-27" d="M 521.5 130.2 L 522.3 130.2 L 522.3 132.4 L 524.9 132.4 L 524.9 130.2 L 525.7 130.2 L 525.7 135.4 L 524.9 135.4 L 524.9 133.0 L 522.3 133.0 L 522.3 135.4 L 521.5 135.4 L 521.5 130.2 " fill="#000000"/>
<path class="atom-29" d="M 534.3 116.3 L 535.1 116.3 L 535.1 118.6 L 537.7 118.6 L 537.7 116.3 L 538.5 116.3 L 538.5 121.6 L 537.7 121.6 L 537.7 119.1 L 535.1 119.1 L 535.1 121.6 L 534.3 121.6 L 534.3 116.3 " fill="#000000"/>
<path class="atom-30" d="M 499.2 104.4 L 499.9 104.4 L 499.9 106.6 L 502.6 106.6 L 502.6 104.4 L 503.3 104.4 L 503.3 109.7 L 502.6 109.7 L 502.6 107.2 L 499.9 107.2 L 499.9 109.7 L 499.2 109.7 L 499.2 104.4 " fill="#000000"/>
<path class="atom-31" d="M 522.3 95.4 Q 522.3 94.1, 523.0 93.4 Q 523.6 92.7, 524.8 92.7 Q 525.9 92.7, 526.6 93.4 Q 527.2 94.1, 527.2 95.4 Q 527.2 96.7, 526.5 97.4 Q 525.9 98.1, 524.8 98.1 Q 523.6 98.1, 523.0 97.4 Q 522.3 96.7, 522.3 95.4 M 524.8 97.5 Q 525.6 97.5, 526.0 97.0 Q 526.4 96.5, 526.4 95.4 Q 526.4 94.4, 526.0 93.9 Q 525.6 93.3, 524.8 93.3 Q 524.0 93.3, 523.5 93.9 Q 523.1 94.4, 523.1 95.4 Q 523.1 96.5, 523.5 97.0 Q 524.0 97.5, 524.8 97.5 " fill="#FF0000"/>
<path class="atom-32" d="M 557.3 166.1 Q 557.3 164.8, 557.9 164.1 Q 558.5 163.4, 559.7 163.4 Q 560.9 163.4, 561.5 164.1 Q 562.1 164.8, 562.1 166.1 Q 562.1 167.3, 561.5 168.1 Q 560.8 168.8, 559.7 168.8 Q 558.5 168.8, 557.9 168.1 Q 557.3 167.3, 557.3 166.1 M 559.7 168.2 Q 560.5 168.2, 560.9 167.7 Q 561.4 167.1, 561.4 166.1 Q 561.4 165.0, 560.9 164.5 Q 560.5 164.0, 559.7 164.0 Q 558.9 164.0, 558.4 164.5 Q 558.0 165.0, 558.0 166.1 Q 558.0 167.1, 558.4 167.7 Q 558.9 168.2, 559.7 168.2 " fill="#FF0000"/>
<path class="atom-33" d="M 546.0 139.9 L 546.7 139.9 L 546.7 142.1 L 549.4 142.1 L 549.4 139.9 L 550.1 139.9 L 550.1 145.1 L 549.4 145.1 L 549.4 142.7 L 546.7 142.7 L 546.7 145.1 L 546.0 145.1 L 546.0 139.9 " fill="#000000"/>
<path class="atom-34" d="M 534.1 175.1 L 534.8 175.1 L 534.8 177.3 L 537.5 177.3 L 537.5 175.1 L 538.2 175.1 L 538.2 180.3 L 537.5 180.3 L 537.5 177.9 L 534.8 177.9 L 534.8 180.3 L 534.1 180.3 L 534.1 175.1 " fill="#000000"/>
<path class="atom-35" d="M 561.3 181.6 L 562.0 181.6 L 562.0 183.9 L 564.7 183.9 L 564.7 181.6 L 565.4 181.6 L 565.4 186.9 L 564.7 186.9 L 564.7 184.5 L 562.0 184.5 L 562.0 186.9 L 561.3 186.9 L 561.3 181.6 " fill="#000000"/>
<path class="atom-36" d="M 540.9 89.1 L 541.6 89.1 L 541.6 91.4 L 544.3 91.4 L 544.3 89.1 L 545.0 89.1 L 545.0 94.4 L 544.3 94.4 L 544.3 92.0 L 541.6 92.0 L 541.6 94.4 L 540.9 94.4 L 540.9 89.1 " fill="#000000"/>
<path class="atom-37" d="M 395.2 170.0 Q 395.2 168.8, 395.8 168.1 Q 396.5 167.4, 397.6 167.4 Q 398.8 167.4, 399.4 168.1 Q 400.0 168.8, 400.0 170.0 Q 400.0 171.3, 399.4 172.0 Q 398.8 172.8, 397.6 172.8 Q 396.5 172.8, 395.8 172.0 Q 395.2 171.3, 395.2 170.0 M 397.6 172.2 Q 398.4 172.2, 398.9 171.6 Q 399.3 171.1, 399.3 170.0 Q 399.3 169.0, 398.9 168.5 Q 398.4 168.0, 397.6 168.0 Q 396.8 168.0, 396.4 168.5 Q 395.9 169.0, 395.9 170.0 Q 395.9 171.1, 396.4 171.6 Q 396.8 172.2, 397.6 172.2 " fill="#FF0000"/>
<path class="atom-44" d="M 347.0 111.6 L 350.1 111.6 L 350.1 112.2 L 347.7 112.2 L 347.7 113.8 L 349.9 113.8 L 349.9 114.4 L 347.7 114.4 L 347.7 116.8 L 347.0 116.8 L 347.0 111.6 " fill="#33CCCC"/>
<path class="atom-45" d="M 382.9 104.3 L 383.7 104.3 L 383.7 106.5 L 386.4 106.5 L 386.4 104.3 L 387.1 104.3 L 387.1 109.6 L 386.4 109.6 L 386.4 107.1 L 383.7 107.1 L 383.7 109.6 L 382.9 109.6 L 382.9 104.3 " fill="#000000"/>
<path class="atom-46" d="M 401.3 132.0 L 404.4 132.0 L 404.4 132.6 L 402.0 132.6 L 402.0 134.2 L 404.2 134.2 L 404.2 134.8 L 402.0 134.8 L 402.0 137.3 L 401.3 137.3 L 401.3 132.0 " fill="#33CCCC"/>
<path class="atom-47" d="M 359.1 174.7 L 359.8 174.7 L 359.8 176.9 L 362.5 176.9 L 362.5 174.7 L 363.3 174.7 L 363.3 179.9 L 362.5 179.9 L 362.5 177.5 L 359.8 177.5 L 359.8 179.9 L 359.1 179.9 L 359.1 174.7 " fill="#000000"/>
<path class="atom-48" d="M 334.6 146.8 L 335.3 146.8 L 335.3 149.0 L 338.0 149.0 L 338.0 146.8 L 338.7 146.8 L 338.7 152.0 L 338.0 152.0 L 338.0 149.6 L 335.3 149.6 L 335.3 152.0 L 334.6 152.0 L 334.6 146.8 " fill="#000000"/>
<text x="300" y="20" font-size="20" font-family="sans-serif" font-weight="normal" letter-spacing="0" text-anchor="middle" fill="black">p38: p38a_2z -&gt; p38a_3flw</text><text x="300" y="35" font-size="15" font-family="sans-serif" font-weight="normal" letter-spacing="0" text-anchor="middle" fill="black"></text><text x="150" y="285" font-size="15" font-family="sans-serif" font-weight="normal" letter-spacing="0" text-anchor="middle" fill="black">p38a_2z</text><text x="450" y="285" font-size="15" font-family="sans-serif" font-weight="normal" letter-spacing="0" text-anchor="middle" fill="black">p38a_3flw</text></svg>
