<?xml version='1.0' encoding='ASCII' standalone='yes'?>
<svg xmlns="http://www.w3.org/2000/svg" xmlns:rdkit="http://www.rdkit.org/xml" xmlns:xlink="http://www.w3.org/1999/xlink" version="1.1" baseProfile="full" xml:space="preserve" width="600px" height="300px" viewBox="0 0 600 300">
<!-- END OF HEADER -->
<rect style="opacity:1.0;fill:#FFFFFF;stroke:none" width="600.0" height="300.0" x="0.0" y="0.0"> </rect>
<path class="bond-0 atom-0 atom-6" d="M 124.1,141.7 L 118.0,159.8" style="fill:none;fill-rule:evenodd;stroke:#000000;stroke-width:2.0px;stroke-linecap:butt;stroke-linejoin:miter;stroke-opacity:1"/>
<path class="bond-1 atom-0 atom-9" d="M 122.6,142.8 L 120.2,139.3" style="fill:none;fill-rule:evenodd;stroke:#000000;stroke-width:2.0px;stroke-linecap:butt;stroke-linejoin:miter;stroke-opacity:1"/>
<path class="bond-1 atom-0 atom-9" d="M 120.2,139.3 L 117.8,135.9" style="fill:none;fill-rule:evenodd;stroke:#FF0000;stroke-width:2.0px;stroke-linecap:butt;stroke-linejoin:miter;stroke-opacity:1"/>
<path class="bond-1 atom-0 atom-9" d="M 125.7,140.6 L 123.4,137.2" style="fill:none;fill-rule:evenodd;stroke:#000000;stroke-width:2.0px;stroke-linecap:butt;stroke-linejoin:miter;stroke-opacity:1"/>
<path class="bond-1 atom-0 atom-9" d="M 123.4,137.2 L 121.0,133.7" style="fill:none;fill-rule:evenodd;stroke:#FF0000;stroke-width:2.0px;stroke-linecap:butt;stroke-linejoin:miter;stroke-opacity:1"/>
<path class="bond-2 atom-0 atom-10" d="M 124.1,141.7 L 132.2,140.1" style="fill:none;fill-rule:evenodd;stroke:#000000;stroke-width:2.0px;stroke-linecap:butt;stroke-linejoin:miter;stroke-opacity:1"/>
<path class="bond-2 atom-0 atom-10" d="M 132.2,140.1 L 140.2,138.5" style="fill:none;fill-rule:evenodd;stroke:#0000FF;stroke-width:2.0px;stroke-linecap:butt;stroke-linejoin:miter;stroke-opacity:1"/>
<path class="bond-3 atom-1 atom-8" d="M 186.7,162.9 L 184.2,170.3" style="fill:none;fill-rule:evenodd;stroke:#000000;stroke-width:2.0px;stroke-linecap:butt;stroke-linejoin:miter;stroke-opacity:1"/>
<path class="bond-3 atom-1 atom-8" d="M 184.2,170.3 L 181.7,177.7" style="fill:none;fill-rule:evenodd;stroke:#0000FF;stroke-width:2.0px;stroke-linecap:butt;stroke-linejoin:miter;stroke-opacity:1"/>
<path class="bond-4 atom-1 atom-11" d="M 186.7,162.9 L 181.8,157.2" style="fill:none;fill-rule:evenodd;stroke:#000000;stroke-width:2.0px;stroke-linecap:butt;stroke-linejoin:miter;stroke-opacity:1"/>
<path class="bond-4 atom-1 atom-11" d="M 181.8,157.2 L 176.8,151.6" style="fill:none;fill-rule:evenodd;stroke:#0000FF;stroke-width:2.0px;stroke-linecap:butt;stroke-linejoin:miter;stroke-opacity:1"/>
<path class="bond-4 atom-1 atom-11" d="M 182.4,163.7 L 178.9,159.8" style="fill:none;fill-rule:evenodd;stroke:#000000;stroke-width:2.0px;stroke-linecap:butt;stroke-linejoin:miter;stroke-opacity:1"/>
<path class="bond-4 atom-1 atom-11" d="M 178.9,159.8 L 175.4,155.8" style="fill:none;fill-rule:evenodd;stroke:#0000FF;stroke-width:2.0px;stroke-linecap:butt;stroke-linejoin:miter;stroke-opacity:1"/>
<path class="bond-5 atom-1 atom-12" d="M 186.7,162.9 L 194.7,161.3" style="fill:none;fill-rule:evenodd;stroke:#000000;stroke-width:2.0px;stroke-linecap:butt;stroke-linejoin:miter;stroke-opacity:1"/>
<path class="bond-5 atom-1 atom-12" d="M 194.7,161.3 L 202.8,159.7" style="fill:none;fill-rule:evenodd;stroke:#0000FF;stroke-width:2.0px;stroke-linecap:butt;stroke-linejoin:miter;stroke-opacity:1"/>
<path class="bond-6 atom-2 atom-3" d="M 149.3,170.4 L 130.6,174.1" style="fill:none;fill-rule:evenodd;stroke:#000000;stroke-width:2.0px;stroke-linecap:butt;stroke-linejoin:miter;stroke-opacity:1"/>
<path class="bond-7 atom-2 atom-4" d="M 149.3,170.4 L 155.4,152.3" style="fill:none;fill-rule:evenodd;stroke:#000000;stroke-width:2.0px;stroke-linecap:butt;stroke-linejoin:miter;stroke-opacity:1"/>
<path class="bond-7 atom-2 atom-4" d="M 146.6,166.4 L 150.9,153.8" style="fill:none;fill-rule:evenodd;stroke:#000000;stroke-width:2.0px;stroke-linecap:butt;stroke-linejoin:miter;stroke-opacity:1"/>
<path class="bond-8 atom-2 atom-5" d="M 149.3,170.4 L 161.9,184.7" style="fill:none;fill-rule:evenodd;stroke:#000000;stroke-width:2.0px;stroke-linecap:butt;stroke-linejoin:miter;stroke-opacity:1"/>
<path class="bond-9 atom-3 atom-6" d="M 130.6,174.1 L 118.0,159.8" style="fill:none;fill-rule:evenodd;stroke:#000000;stroke-width:2.0px;stroke-linecap:butt;stroke-linejoin:miter;stroke-opacity:1"/>
<path class="bond-9 atom-3 atom-6" d="M 131.6,169.4 L 122.8,159.4" style="fill:none;fill-rule:evenodd;stroke:#000000;stroke-width:2.0px;stroke-linecap:butt;stroke-linejoin:miter;stroke-opacity:1"/>
<path class="bond-10 atom-3 atom-13" d="M 130.6,174.1 L 125.6,188.9" style="fill:none;fill-rule:evenodd;stroke:#000000;stroke-width:2.0px;stroke-linecap:butt;stroke-linejoin:miter;stroke-opacity:1"/>
<path class="bond-11 atom-4 atom-10" d="M 155.4,152.3 L 150.5,146.7" style="fill:none;fill-rule:evenodd;stroke:#000000;stroke-width:2.0px;stroke-linecap:butt;stroke-linejoin:miter;stroke-opacity:1"/>
<path class="bond-11 atom-4 atom-10" d="M 150.5,146.7 L 145.5,141.0" style="fill:none;fill-rule:evenodd;stroke:#0000FF;stroke-width:2.0px;stroke-linecap:butt;stroke-linejoin:miter;stroke-opacity:1"/>
<path class="bond-12 atom-4 atom-11" d="M 155.4,152.3 L 163.4,150.7" style="fill:none;fill-rule:evenodd;stroke:#000000;stroke-width:2.0px;stroke-linecap:butt;stroke-linejoin:miter;stroke-opacity:1"/>
<path class="bond-12 atom-4 atom-11" d="M 163.4,150.7 L 171.5,149.1" style="fill:none;fill-rule:evenodd;stroke:#0000FF;stroke-width:2.0px;stroke-linecap:butt;stroke-linejoin:miter;stroke-opacity:1"/>
<path class="bond-13 atom-5 atom-8" d="M 161.9,184.7 L 169.9,183.1" style="fill:none;fill-rule:evenodd;stroke:#000000;stroke-width:2.0px;stroke-linecap:butt;stroke-linejoin:miter;stroke-opacity:1"/>
<path class="bond-13 atom-5 atom-8" d="M 169.9,183.1 L 177.9,181.5" style="fill:none;fill-rule:evenodd;stroke:#0000FF;stroke-width:2.0px;stroke-linecap:butt;stroke-linejoin:miter;stroke-opacity:1"/>
<path class="bond-13 atom-5 atom-8" d="M 163.6,180.5 L 169.2,179.4" style="fill:none;fill-rule:evenodd;stroke:#000000;stroke-width:2.0px;stroke-linecap:butt;stroke-linejoin:miter;stroke-opacity:1"/>
<path class="bond-13 atom-5 atom-8" d="M 169.2,179.4 L 174.8,178.2" style="fill:none;fill-rule:evenodd;stroke:#0000FF;stroke-width:2.0px;stroke-linecap:butt;stroke-linejoin:miter;stroke-opacity:1"/>
<path class="bond-14 atom-5 atom-14" d="M 161.9,184.7 L 156.9,199.5" style="fill:none;fill-rule:evenodd;stroke:#000000;stroke-width:2.0px;stroke-linecap:butt;stroke-linejoin:miter;stroke-opacity:1"/>
<path class="bond-15 atom-6 atom-34" d="M 118.0,159.8 L 110.2,161.3" style="fill:none;fill-rule:evenodd;stroke:#000000;stroke-width:2.0px;stroke-linecap:butt;stroke-linejoin:miter;stroke-opacity:1"/>
<path class="bond-15 atom-6 atom-34" d="M 110.2,161.3 L 102.4,162.9" style="fill:none;fill-rule:evenodd;stroke:#FF0000;stroke-width:2.0px;stroke-linecap:butt;stroke-linejoin:miter;stroke-opacity:1"/>
<path class="bond-16 atom-7 atom-10" d="M 149.0,119.9 L 146.5,127.3" style="fill:none;fill-rule:evenodd;stroke:#000000;stroke-width:2.0px;stroke-linecap:butt;stroke-linejoin:miter;stroke-opacity:1"/>
<path class="bond-16 atom-7 atom-10" d="M 146.5,127.3 L 144.0,134.7" style="fill:none;fill-rule:evenodd;stroke:#0000FF;stroke-width:2.0px;stroke-linecap:butt;stroke-linejoin:miter;stroke-opacity:1"/>
<path class="bond-17 atom-7 atom-15" d="M 149.0,119.9 L 164.3,125.1" style="fill:none;fill-rule:evenodd;stroke:#000000;stroke-width:2.0px;stroke-linecap:butt;stroke-linejoin:miter;stroke-opacity:1"/>
<path class="bond-18 atom-7 atom-16" d="M 149.0,119.9 L 133.6,114.7" style="fill:none;fill-rule:evenodd;stroke:#000000;stroke-width:2.0px;stroke-linecap:butt;stroke-linejoin:miter;stroke-opacity:1"/>
<path class="bond-19 atom-7 atom-17" d="M 149.0,119.9 L 153.9,105.2" style="fill:none;fill-rule:evenodd;stroke:#000000;stroke-width:2.0px;stroke-linecap:butt;stroke-linejoin:miter;stroke-opacity:1"/>
<path class="bond-20 atom-12 atom-18" d="M 207.7,162.5 L 208.9,164.3" style="fill:none;fill-rule:evenodd;stroke:#0000FF;stroke-width:2.0px;stroke-linecap:butt;stroke-linejoin:miter;stroke-opacity:1"/>
<path class="bond-20 atom-12 atom-18" d="M 208.9,164.3 L 210.2,166.2" style="fill:none;fill-rule:evenodd;stroke:#000000;stroke-width:2.0px;stroke-linecap:butt;stroke-linejoin:miter;stroke-opacity:1"/>
<path class="bond-21 atom-12 atom-21" d="M 206.5,155.8 L 209.0,148.5" style="fill:none;fill-rule:evenodd;stroke:#0000FF;stroke-width:2.0px;stroke-linecap:butt;stroke-linejoin:miter;stroke-opacity:1"/>
<path class="bond-21 atom-12 atom-21" d="M 209.0,148.5 L 211.5,141.1" style="fill:none;fill-rule:evenodd;stroke:#000000;stroke-width:2.0px;stroke-linecap:butt;stroke-linejoin:miter;stroke-opacity:1"/>
<path class="bond-22 atom-19 atom-20" d="M 244.6,140.3 L 228.3,150.3" style="fill:none;fill-rule:evenodd;stroke:#000000;stroke-width:2.0px;stroke-linecap:butt;stroke-linejoin:miter;stroke-opacity:1"/>
<path class="bond-23 atom-19 atom-24" d="M 244.6,140.3 L 244.4,132.5" style="fill:none;fill-rule:evenodd;stroke:#000000;stroke-width:2.0px;stroke-linecap:butt;stroke-linejoin:miter;stroke-opacity:1"/>
<path class="bond-23 atom-19 atom-24" d="M 244.4,132.5 L 244.2,124.7" style="fill:none;fill-rule:evenodd;stroke:#FF0000;stroke-width:2.0px;stroke-linecap:butt;stroke-linejoin:miter;stroke-opacity:1"/>
<path class="bond-24 atom-19 atom-25" d="M 244.6,140.3 L 260.5,137.2" style="fill:none;fill-rule:evenodd;stroke:#000000;stroke-width:2.0px;stroke-linecap:butt;stroke-linejoin:miter;stroke-opacity:1"/>
<path class="bond-25 atom-19 atom-26" d="M 244.6,140.3 L 250.2,154.8" style="fill:none;fill-rule:evenodd;stroke:#000000;stroke-width:2.0px;stroke-linecap:butt;stroke-linejoin:miter;stroke-opacity:1"/>
<path class="bond-26 atom-20 atom-21" d="M 228.3,150.3 L 211.5,141.1" style="fill:none;fill-rule:evenodd;stroke:#000000;stroke-width:2.0px;stroke-linecap:butt;stroke-linejoin:miter;stroke-opacity:1"/>
<path class="bond-27 atom-20 atom-27" d="M 228.3,150.3 L 238.1,161.5" style="fill:none;fill-rule:evenodd;stroke:#000000;stroke-width:2.0px;stroke-linecap:butt;stroke-linejoin:miter;stroke-opacity:1"/>
<path class="bond-28 atom-20 atom-28" d="M 228.3,150.3 L 223.7,157.6" style="fill:none;fill-rule:evenodd;stroke:#000000;stroke-width:2.0px;stroke-linecap:butt;stroke-linejoin:miter;stroke-opacity:1"/>
<path class="bond-29 atom-21 atom-22" d="M 211.5,141.1 L 211.1,122.0" style="fill:none;fill-rule:evenodd;stroke:#000000;stroke-width:2.0px;stroke-linecap:butt;stroke-linejoin:miter;stroke-opacity:1"/>
<path class="bond-30 atom-21 atom-29" d="M 211.5,141.1 L 195.4,138.6" style="fill:none;fill-rule:evenodd;stroke:#000000;stroke-width:2.0px;stroke-linecap:butt;stroke-linejoin:miter;stroke-opacity:1"/>
<path class="bond-31 atom-22 atom-23" d="M 211.1,122.0 L 227.4,112.1" style="fill:none;fill-rule:evenodd;stroke:#000000;stroke-width:2.0px;stroke-linecap:butt;stroke-linejoin:miter;stroke-opacity:1"/>
<path class="bond-32 atom-22 atom-30" d="M 211.1,122.0 L 195.1,125.2" style="fill:none;fill-rule:evenodd;stroke:#000000;stroke-width:2.0px;stroke-linecap:butt;stroke-linejoin:miter;stroke-opacity:1"/>
<path class="bond-33 atom-22 atom-31" d="M 211.1,122.0 L 205.5,107.6" style="fill:none;fill-rule:evenodd;stroke:#000000;stroke-width:2.0px;stroke-linecap:butt;stroke-linejoin:miter;stroke-opacity:1"/>
<path class="bond-34 atom-23 atom-24" d="M 227.4,112.1 L 234.2,115.8" style="fill:none;fill-rule:evenodd;stroke:#000000;stroke-width:2.0px;stroke-linecap:butt;stroke-linejoin:miter;stroke-opacity:1"/>
<path class="bond-34 atom-23 atom-24" d="M 234.2,115.8 L 241.0,119.6" style="fill:none;fill-rule:evenodd;stroke:#FF0000;stroke-width:2.0px;stroke-linecap:butt;stroke-linejoin:miter;stroke-opacity:1"/>
<path class="bond-35 atom-23 atom-32" d="M 227.4,112.1 L 217.5,100.9" style="fill:none;fill-rule:evenodd;stroke:#000000;stroke-width:2.0px;stroke-linecap:butt;stroke-linejoin:miter;stroke-opacity:1"/>
<path class="bond-36 atom-23 atom-33" d="M 227.4,112.1 L 236.7,100.5" style="fill:none;fill-rule:evenodd;stroke:#000000;stroke-width:2.0px;stroke-linecap:butt;stroke-linejoin:miter;stroke-opacity:1"/>
<path class="bond-37 atom-34 atom-38" d="M 96.4,160.2 L 91.6,154.7" style="fill:none;fill-rule:evenodd;stroke:#FF0000;stroke-width:2.0px;stroke-linecap:butt;stroke-linejoin:miter;stroke-opacity:1"/>
<path class="bond-37 atom-34 atom-38" d="M 91.6,154.7 L 86.7,149.2" style="fill:none;fill-rule:evenodd;stroke:#000000;stroke-width:2.0px;stroke-linecap:butt;stroke-linejoin:miter;stroke-opacity:1"/>
<path class="bond-38 atom-35 atom-36" d="M 61.6,120.5 L 80.3,116.8" style="fill:none;fill-rule:evenodd;stroke:#000000;stroke-width:2.0px;stroke-linecap:butt;stroke-linejoin:miter;stroke-opacity:1"/>
<path class="bond-38 atom-35 atom-36" d="M 65.1,123.7 L 78.2,121.1" style="fill:none;fill-rule:evenodd;stroke:#000000;stroke-width:2.0px;stroke-linecap:butt;stroke-linejoin:miter;stroke-opacity:1"/>
<path class="bond-39 atom-35 atom-40" d="M 61.6,120.5 L 55.4,138.6" style="fill:none;fill-rule:evenodd;stroke:#000000;stroke-width:2.0px;stroke-linecap:butt;stroke-linejoin:miter;stroke-opacity:1"/>
<path class="bond-40 atom-35 atom-41" d="M 61.6,120.5 L 56.4,114.6" style="fill:none;fill-rule:evenodd;stroke:#000000;stroke-width:2.0px;stroke-linecap:butt;stroke-linejoin:miter;stroke-opacity:1"/>
<path class="bond-40 atom-35 atom-41" d="M 56.4,114.6 L 51.2,108.7" style="fill:none;fill-rule:evenodd;stroke:#33CCCC;stroke-width:2.0px;stroke-linecap:butt;stroke-linejoin:miter;stroke-opacity:1"/>
<path class="bond-41 atom-36 atom-37" d="M 80.3,116.8 L 92.8,131.1" style="fill:none;fill-rule:evenodd;stroke:#000000;stroke-width:2.0px;stroke-linecap:butt;stroke-linejoin:miter;stroke-opacity:1"/>
<path class="bond-42 atom-36 atom-42" d="M 80.3,116.8 L 85.2,102.0" style="fill:none;fill-rule:evenodd;stroke:#000000;stroke-width:2.0px;stroke-linecap:butt;stroke-linejoin:miter;stroke-opacity:1"/>
<path class="bond-43 atom-37 atom-38" d="M 92.8,131.1 L 86.7,149.2" style="fill:none;fill-rule:evenodd;stroke:#000000;stroke-width:2.0px;stroke-linecap:butt;stroke-linejoin:miter;stroke-opacity:1"/>
<path class="bond-43 atom-37 atom-38" d="M 88.3,132.6 L 84.0,145.3" style="fill:none;fill-rule:evenodd;stroke:#000000;stroke-width:2.0px;stroke-linecap:butt;stroke-linejoin:miter;stroke-opacity:1"/>
<path class="bond-44 atom-37 atom-43" d="M 92.8,131.1 L 97.7,129.5" style="fill:none;fill-rule:evenodd;stroke:#000000;stroke-width:2.0px;stroke-linecap:butt;stroke-linejoin:miter;stroke-opacity:1"/>
<path class="bond-44 atom-37 atom-43" d="M 97.7,129.5 L 102.5,127.9" style="fill:none;fill-rule:evenodd;stroke:#33CCCC;stroke-width:2.0px;stroke-linecap:butt;stroke-linejoin:miter;stroke-opacity:1"/>
<path class="bond-45 atom-38 atom-39" d="M 86.7,149.2 L 68.0,152.9" style="fill:none;fill-rule:evenodd;stroke:#000000;stroke-width:2.0px;stroke-linecap:butt;stroke-linejoin:miter;stroke-opacity:1"/>
<path class="bond-46 atom-39 atom-40" d="M 68.0,152.9 L 55.4,138.6" style="fill:none;fill-rule:evenodd;stroke:#000000;stroke-width:2.0px;stroke-linecap:butt;stroke-linejoin:miter;stroke-opacity:1"/>
<path class="bond-46 atom-39 atom-40" d="M 69.0,148.3 L 60.2,138.2" style="fill:none;fill-rule:evenodd;stroke:#000000;stroke-width:2.0px;stroke-linecap:butt;stroke-linejoin:miter;stroke-opacity:1"/>
<path class="bond-47 atom-39 atom-44" d="M 68.0,152.9 L 63.0,167.7" style="fill:none;fill-rule:evenodd;stroke:#000000;stroke-width:2.0px;stroke-linecap:butt;stroke-linejoin:miter;stroke-opacity:1"/>
<path class="bond-48 atom-40 atom-45" d="M 55.4,138.6 L 39.5,141.8" style="fill:none;fill-rule:evenodd;stroke:#000000;stroke-width:2.0px;stroke-linecap:butt;stroke-linejoin:miter;stroke-opacity:1"/>
<path class="atom-8" d="M 179.4 178.3 L 181.2 181.1 Q 181.4 181.4, 181.6 181.9 Q 181.9 182.4, 181.9 182.5 L 181.9 178.3 L 182.7 178.3 L 182.7 183.7 L 181.9 183.7 L 180.0 180.5 Q 179.8 180.2, 179.6 179.8 Q 179.3 179.3, 179.3 179.2 L 179.3 183.7 L 178.6 183.7 L 178.6 178.3 L 179.4 178.3 " fill="#0000FF"/>
<path class="atom-9" d="M 114.6 131.4 Q 114.6 130.1, 115.2 129.4 Q 115.9 128.6, 117.1 128.6 Q 118.3 128.6, 118.9 129.4 Q 119.6 130.1, 119.6 131.4 Q 119.6 132.7, 118.9 133.5 Q 118.3 134.2, 117.1 134.2 Q 115.9 134.2, 115.2 133.5 Q 114.6 132.7, 114.6 131.4 M 117.1 133.6 Q 117.9 133.6, 118.3 133.0 Q 118.8 132.5, 118.8 131.4 Q 118.8 130.3, 118.3 129.8 Q 117.9 129.3, 117.1 129.3 Q 116.3 129.3, 115.8 129.8 Q 115.4 130.3, 115.4 131.4 Q 115.4 132.5, 115.8 133.0 Q 116.3 133.6, 117.1 133.6 " fill="#FF0000"/>
<path class="atom-10" d="M 141.6 135.3 L 143.4 138.1 Q 143.6 138.4, 143.9 138.9 Q 144.2 139.4, 144.2 139.5 L 144.2 135.3 L 144.9 135.3 L 144.9 140.7 L 144.1 140.7 L 142.2 137.6 Q 142.0 137.2, 141.8 136.8 Q 141.6 136.3, 141.5 136.2 L 141.5 140.7 L 140.8 140.7 L 140.8 135.3 L 141.6 135.3 " fill="#0000FF"/>
<path class="atom-11" d="M 172.9 145.9 L 174.7 148.7 Q 174.9 149.0, 175.2 149.5 Q 175.4 150.0, 175.5 150.1 L 175.5 145.9 L 176.2 145.9 L 176.2 151.3 L 175.4 151.3 L 173.5 148.1 Q 173.3 147.8, 173.1 147.4 Q 172.9 146.9, 172.8 146.8 L 172.8 151.3 L 172.1 151.3 L 172.1 145.9 L 172.9 145.9 " fill="#0000FF"/>
<path class="atom-12" d="M 204.2 156.5 L 206.0 159.3 Q 206.2 159.6, 206.5 160.1 Q 206.7 160.6, 206.8 160.7 L 206.8 156.5 L 207.5 156.5 L 207.5 161.9 L 206.7 161.9 L 204.8 158.7 Q 204.6 158.4, 204.4 157.9 Q 204.1 157.5, 204.1 157.4 L 204.1 161.9 L 203.4 161.9 L 203.4 156.5 L 204.2 156.5 " fill="#0000FF"/>
<path class="atom-13" d="M 122.4 189.5 L 123.1 189.5 L 123.1 191.8 L 125.9 191.8 L 125.9 189.5 L 126.6 189.5 L 126.6 194.9 L 125.9 194.9 L 125.9 192.4 L 123.1 192.4 L 123.1 194.9 L 122.4 194.9 L 122.4 189.5 " fill="#000000"/>
<path class="atom-14" d="M 153.7 200.1 L 154.4 200.1 L 154.4 202.4 L 157.2 202.4 L 157.2 200.1 L 157.9 200.1 L 157.9 205.5 L 157.2 205.5 L 157.2 203.0 L 154.4 203.0 L 154.4 205.5 L 153.7 205.5 L 153.7 200.1 " fill="#000000"/>
<path class="atom-15" d="M 164.9 123.3 L 165.6 123.3 L 165.6 125.6 L 168.4 125.6 L 168.4 123.3 L 169.1 123.3 L 169.1 128.7 L 168.4 128.7 L 168.4 126.2 L 165.6 126.2 L 165.6 128.7 L 164.9 128.7 L 164.9 123.3 " fill="#000000"/>
<path class="atom-16" d="M 128.8 111.1 L 129.5 111.1 L 129.5 113.4 L 132.3 113.4 L 132.3 111.1 L 133.0 111.1 L 133.0 116.5 L 132.3 116.5 L 132.3 114.0 L 129.5 114.0 L 129.5 116.5 L 128.8 116.5 L 128.8 111.1 " fill="#000000"/>
<path class="atom-17" d="M 153.0 99.1 L 153.7 99.1 L 153.7 101.4 L 156.4 101.4 L 156.4 99.1 L 157.2 99.1 L 157.2 104.5 L 156.4 104.5 L 156.4 102.1 L 153.7 102.1 L 153.7 104.5 L 153.0 104.5 L 153.0 99.1 " fill="#000000"/>
<path class="atom-18" d="M 210.4 166.8 L 211.1 166.8 L 211.1 169.1 L 213.9 169.1 L 213.9 166.8 L 214.6 166.8 L 214.6 172.2 L 213.9 172.2 L 213.9 169.7 L 211.1 169.7 L 211.1 172.2 L 210.4 172.2 L 210.4 166.8 " fill="#000000"/>
<path class="atom-24" d="M 241.7 121.3 Q 241.7 120.0, 242.3 119.3 Q 242.9 118.5, 244.1 118.5 Q 245.3 118.5, 246.0 119.3 Q 246.6 120.0, 246.6 121.3 Q 246.6 122.6, 246.0 123.4 Q 245.3 124.1, 244.1 124.1 Q 242.9 124.1, 242.3 123.4 Q 241.7 122.6, 241.7 121.3 M 244.1 123.5 Q 245.0 123.5, 245.4 122.9 Q 245.8 122.4, 245.8 121.3 Q 245.8 120.2, 245.4 119.7 Q 245.0 119.2, 244.1 119.2 Q 243.3 119.2, 242.9 119.7 Q 242.4 120.2, 242.4 121.3 Q 242.4 122.4, 242.9 122.9 Q 243.3 123.5, 244.1 123.5 " fill="#FF0000"/>
<path class="atom-25" d="M 261.2 133.9 L 261.9 133.9 L 261.9 136.2 L 264.6 136.2 L 264.6 133.9 L 265.4 133.9 L 265.4 139.3 L 264.6 139.3 L 264.6 136.8 L 261.9 136.8 L 261.9 139.3 L 261.2 139.3 L 261.2 133.9 " fill="#000000"/>
<path class="atom-26" d="M 249.4 155.4 L 250.1 155.4 L 250.1 157.7 L 252.9 157.7 L 252.9 155.4 L 253.6 155.4 L 253.6 160.8 L 252.9 160.8 L 252.9 158.3 L 250.1 158.3 L 250.1 160.8 L 249.4 160.8 L 249.4 155.4 " fill="#000000"/>
<path class="atom-27" d="M 238.7 161.9 L 239.5 161.9 L 239.5 164.2 L 242.2 164.2 L 242.2 161.9 L 243.0 161.9 L 243.0 167.3 L 242.2 167.3 L 242.2 164.8 L 239.5 164.8 L 239.5 167.3 L 238.7 167.3 L 238.7 161.9 " fill="#000000"/>
<path class="atom-28" d="M 219.6 158.2 L 220.3 158.2 L 220.3 160.5 L 223.1 160.5 L 223.1 158.2 L 223.8 158.2 L 223.8 163.6 L 223.1 163.6 L 223.1 161.1 L 220.3 161.1 L 220.3 163.6 L 219.6 163.6 L 219.6 158.2 " fill="#000000"/>
<path class="atom-29" d="M 190.6 135.5 L 191.3 135.5 L 191.3 137.8 L 194.1 137.8 L 194.1 135.5 L 194.8 135.5 L 194.8 140.9 L 194.1 140.9 L 194.1 138.4 L 191.3 138.4 L 191.3 140.9 L 190.6 140.9 L 190.6 135.5 " fill="#000000"/>
<path class="atom-30" d="M 190.3 123.1 L 191.0 123.1 L 191.0 125.4 L 193.8 125.4 L 193.8 123.1 L 194.5 123.1 L 194.5 128.5 L 193.8 128.5 L 193.8 126.0 L 191.0 126.0 L 191.0 128.5 L 190.3 128.5 L 190.3 123.1 " fill="#000000"/>
<path class="atom-31" d="M 202.1 101.6 L 202.8 101.6 L 202.8 103.9 L 205.6 103.9 L 205.6 101.6 L 206.3 101.6 L 206.3 107.0 L 205.6 107.0 L 205.6 104.5 L 202.8 104.5 L 202.8 107.0 L 202.1 107.0 L 202.1 101.6 " fill="#000000"/>
<path class="atom-32" d="M 212.7 95.1 L 213.4 95.1 L 213.4 97.4 L 216.2 97.4 L 216.2 95.1 L 216.9 95.1 L 216.9 100.5 L 216.2 100.5 L 216.2 98.0 L 213.4 98.0 L 213.4 100.5 L 212.7 100.5 L 212.7 95.1 " fill="#000000"/>
<path class="atom-33" d="M 237.2 94.5 L 237.9 94.5 L 237.9 96.8 L 240.7 96.8 L 240.7 94.5 L 241.4 94.5 L 241.4 99.9 L 240.7 99.9 L 240.7 97.4 L 237.9 97.4 L 237.9 99.9 L 237.2 99.9 L 237.2 94.5 " fill="#000000"/>
<path class="atom-34" d="M 96.8 163.5 Q 96.8 162.2, 97.5 161.5 Q 98.1 160.8, 99.3 160.8 Q 100.5 160.8, 101.2 161.5 Q 101.8 162.2, 101.8 163.5 Q 101.8 164.8, 101.1 165.6 Q 100.5 166.3, 99.3 166.3 Q 98.1 166.3, 97.5 165.6 Q 96.8 164.9, 96.8 163.5 M 99.3 165.7 Q 100.1 165.7, 100.6 165.2 Q 101.0 164.6, 101.0 163.5 Q 101.0 162.5, 100.6 161.9 Q 100.1 161.4, 99.3 161.4 Q 98.5 161.4, 98.0 161.9 Q 97.6 162.5, 97.6 163.5 Q 97.6 164.6, 98.0 165.2 Q 98.5 165.7, 99.3 165.7 " fill="#FF0000"/>
<path class="atom-41" d="M 47.4 103.5 L 50.6 103.5 L 50.6 104.1 L 48.1 104.1 L 48.1 105.8 L 50.3 105.8 L 50.3 106.4 L 48.1 106.4 L 48.1 108.9 L 47.4 108.9 L 47.4 103.5 " fill="#33CCCC"/>
<path class="atom-42" d="M 84.3 96.0 L 85.0 96.0 L 85.0 98.3 L 87.7 98.3 L 87.7 96.0 L 88.5 96.0 L 88.5 101.4 L 87.7 101.4 L 87.7 98.9 L 85.0 98.9 L 85.0 101.4 L 84.3 101.4 L 84.3 96.0 " fill="#000000"/>
<path class="atom-43" d="M 103.1 124.5 L 106.3 124.5 L 106.3 125.1 L 103.8 125.1 L 103.8 126.8 L 106.1 126.8 L 106.1 127.4 L 103.8 127.4 L 103.8 129.9 L 103.1 129.9 L 103.1 124.5 " fill="#33CCCC"/>
<path class="atom-44" d="M 59.8 168.3 L 60.5 168.3 L 60.5 170.6 L 63.3 170.6 L 63.3 168.3 L 64.0 168.3 L 64.0 173.7 L 63.3 173.7 L 63.3 171.2 L 60.5 171.2 L 60.5 173.7 L 59.8 173.7 L 59.8 168.3 " fill="#000000"/>
<path class="atom-45" d="M 34.6 139.6 L 35.4 139.6 L 35.4 141.9 L 38.1 141.9 L 38.1 139.6 L 38.8 139.6 L 38.8 145.0 L 38.1 145.0 L 38.1 142.5 L 35.4 142.5 L 35.4 145.0 L 34.6 145.0 L 34.6 139.6 " fill="#000000"/>
<path class="bond-0 atom-0 atom-6" d="M 424.1,148.4 L 418.0,166.4" style="fill:none;fill-rule:evenodd;stroke:#000000;stroke-width:2.0px;stroke-linecap:butt;stroke-linejoin:miter;stroke-opacity:1"/>
<path class="bond-1 atom-0 atom-8" d="M 422.6,149.5 L 420.2,146.0" style="fill:none;fill-rule:evenodd;stroke:#000000;stroke-width:2.0px;stroke-linecap:butt;stroke-linejoin:miter;stroke-opacity:1"/>
<path class="bond-1 atom-0 atom-8" d="M 420.2,146.0 L 417.8,142.5" style="fill:none;fill-rule:evenodd;stroke:#FF0000;stroke-width:2.0px;stroke-linecap:butt;stroke-linejoin:miter;stroke-opacity:1"/>
<path class="bond-1 atom-0 atom-8" d="M 425.7,147.3 L 423.4,143.9" style="fill:none;fill-rule:evenodd;stroke:#000000;stroke-width:2.0px;stroke-linecap:butt;stroke-linejoin:miter;stroke-opacity:1"/>
<path class="bond-1 atom-0 atom-8" d="M 423.4,143.9 L 421.0,140.4" style="fill:none;fill-rule:evenodd;stroke:#FF0000;stroke-width:2.0px;stroke-linecap:butt;stroke-linejoin:miter;stroke-opacity:1"/>
<path class="bond-2 atom-0 atom-9" d="M 424.1,148.4 L 432.2,146.8" style="fill:none;fill-rule:evenodd;stroke:#000000;stroke-width:2.0px;stroke-linecap:butt;stroke-linejoin:miter;stroke-opacity:1"/>
<path class="bond-2 atom-0 atom-9" d="M 432.2,146.8 L 440.2,145.2" style="fill:none;fill-rule:evenodd;stroke:#0000FF;stroke-width:2.0px;stroke-linecap:butt;stroke-linejoin:miter;stroke-opacity:1"/>
<path class="bond-3 atom-1 atom-7" d="M 486.7,169.7 L 484.2,177.0" style="fill:none;fill-rule:evenodd;stroke:#000000;stroke-width:2.0px;stroke-linecap:butt;stroke-linejoin:miter;stroke-opacity:1"/>
<path class="bond-3 atom-1 atom-7" d="M 484.2,177.0 L 481.7,184.4" style="fill:none;fill-rule:evenodd;stroke:#0000FF;stroke-width:2.0px;stroke-linecap:butt;stroke-linejoin:miter;stroke-opacity:1"/>
<path class="bond-4 atom-1 atom-10" d="M 486.7,169.7 L 481.7,164.0" style="fill:none;fill-rule:evenodd;stroke:#000000;stroke-width:2.0px;stroke-linecap:butt;stroke-linejoin:miter;stroke-opacity:1"/>
<path class="bond-4 atom-1 atom-10" d="M 481.7,164.0 L 476.8,158.4" style="fill:none;fill-rule:evenodd;stroke:#0000FF;stroke-width:2.0px;stroke-linecap:butt;stroke-linejoin:miter;stroke-opacity:1"/>
<path class="bond-4 atom-1 atom-10" d="M 482.3,170.5 L 478.9,166.5" style="fill:none;fill-rule:evenodd;stroke:#000000;stroke-width:2.0px;stroke-linecap:butt;stroke-linejoin:miter;stroke-opacity:1"/>
<path class="bond-4 atom-1 atom-10" d="M 478.9,166.5 L 475.4,162.6" style="fill:none;fill-rule:evenodd;stroke:#0000FF;stroke-width:2.0px;stroke-linecap:butt;stroke-linejoin:miter;stroke-opacity:1"/>
<path class="bond-5 atom-1 atom-11" d="M 486.7,169.7 L 494.7,168.1" style="fill:none;fill-rule:evenodd;stroke:#000000;stroke-width:2.0px;stroke-linecap:butt;stroke-linejoin:miter;stroke-opacity:1"/>
<path class="bond-5 atom-1 atom-11" d="M 494.7,168.1 L 502.7,166.5" style="fill:none;fill-rule:evenodd;stroke:#0000FF;stroke-width:2.0px;stroke-linecap:butt;stroke-linejoin:miter;stroke-opacity:1"/>
<path class="bond-6 atom-2 atom-3" d="M 449.3,177.1 L 430.5,180.8" style="fill:none;fill-rule:evenodd;stroke:#000000;stroke-width:2.0px;stroke-linecap:butt;stroke-linejoin:miter;stroke-opacity:1"/>
<path class="bond-7 atom-2 atom-4" d="M 449.3,177.1 L 455.4,159.0" style="fill:none;fill-rule:evenodd;stroke:#000000;stroke-width:2.0px;stroke-linecap:butt;stroke-linejoin:miter;stroke-opacity:1"/>
<path class="bond-7 atom-2 atom-4" d="M 446.6,173.1 L 450.9,160.5" style="fill:none;fill-rule:evenodd;stroke:#000000;stroke-width:2.0px;stroke-linecap:butt;stroke-linejoin:miter;stroke-opacity:1"/>
<path class="bond-8 atom-2 atom-5" d="M 449.3,177.1 L 461.8,191.4" style="fill:none;fill-rule:evenodd;stroke:#000000;stroke-width:2.0px;stroke-linecap:butt;stroke-linejoin:miter;stroke-opacity:1"/>
<path class="bond-9 atom-3 atom-6" d="M 430.5,180.8 L 418.0,166.4" style="fill:none;fill-rule:evenodd;stroke:#000000;stroke-width:2.0px;stroke-linecap:butt;stroke-linejoin:miter;stroke-opacity:1"/>
<path class="bond-9 atom-3 atom-6" d="M 431.5,176.1 L 422.7,166.1" style="fill:none;fill-rule:evenodd;stroke:#000000;stroke-width:2.0px;stroke-linecap:butt;stroke-linejoin:miter;stroke-opacity:1"/>
<path class="bond-10 atom-3 atom-12" d="M 430.5,180.8 L 425.5,195.5" style="fill:none;fill-rule:evenodd;stroke:#000000;stroke-width:2.0px;stroke-linecap:butt;stroke-linejoin:miter;stroke-opacity:1"/>
<path class="bond-11 atom-4 atom-9" d="M 455.4,159.0 L 450.5,153.4" style="fill:none;fill-rule:evenodd;stroke:#000000;stroke-width:2.0px;stroke-linecap:butt;stroke-linejoin:miter;stroke-opacity:1"/>
<path class="bond-11 atom-4 atom-9" d="M 450.5,153.4 L 445.5,147.7" style="fill:none;fill-rule:evenodd;stroke:#0000FF;stroke-width:2.0px;stroke-linecap:butt;stroke-linejoin:miter;stroke-opacity:1"/>
<path class="bond-12 atom-4 atom-10" d="M 455.4,159.0 L 463.4,157.4" style="fill:none;fill-rule:evenodd;stroke:#000000;stroke-width:2.0px;stroke-linecap:butt;stroke-linejoin:miter;stroke-opacity:1"/>
<path class="bond-12 atom-4 atom-10" d="M 463.4,157.4 L 471.5,155.8" style="fill:none;fill-rule:evenodd;stroke:#0000FF;stroke-width:2.0px;stroke-linecap:butt;stroke-linejoin:miter;stroke-opacity:1"/>
<path class="bond-13 atom-5 atom-7" d="M 461.8,191.4 L 469.8,189.8" style="fill:none;fill-rule:evenodd;stroke:#000000;stroke-width:2.0px;stroke-linecap:butt;stroke-linejoin:miter;stroke-opacity:1"/>
<path class="bond-13 atom-5 atom-7" d="M 469.8,189.8 L 477.9,188.3" style="fill:none;fill-rule:evenodd;stroke:#0000FF;stroke-width:2.0px;stroke-linecap:butt;stroke-linejoin:miter;stroke-opacity:1"/>
<path class="bond-13 atom-5 atom-7" d="M 463.5,187.2 L 469.1,186.1" style="fill:none;fill-rule:evenodd;stroke:#000000;stroke-width:2.0px;stroke-linecap:butt;stroke-linejoin:miter;stroke-opacity:1"/>
<path class="bond-13 atom-5 atom-7" d="M 469.1,186.1 L 474.7,185.0" style="fill:none;fill-rule:evenodd;stroke:#0000FF;stroke-width:2.0px;stroke-linecap:butt;stroke-linejoin:miter;stroke-opacity:1"/>
<path class="bond-14 atom-5 atom-13" d="M 461.8,191.4 L 456.8,206.2" style="fill:none;fill-rule:evenodd;stroke:#000000;stroke-width:2.0px;stroke-linecap:butt;stroke-linejoin:miter;stroke-opacity:1"/>
<path class="bond-15 atom-6 atom-33" d="M 418.0,166.4 L 410.2,168.0" style="fill:none;fill-rule:evenodd;stroke:#000000;stroke-width:2.0px;stroke-linecap:butt;stroke-linejoin:miter;stroke-opacity:1"/>
<path class="bond-15 atom-6 atom-33" d="M 410.2,168.0 L 402.4,169.5" style="fill:none;fill-rule:evenodd;stroke:#FF0000;stroke-width:2.0px;stroke-linecap:butt;stroke-linejoin:miter;stroke-opacity:1"/>
<path class="bond-16 atom-9 atom-15" d="M 444.0,141.4 L 446.5,134.0" style="fill:none;fill-rule:evenodd;stroke:#0000FF;stroke-width:2.0px;stroke-linecap:butt;stroke-linejoin:miter;stroke-opacity:1"/>
<path class="bond-16 atom-9 atom-15" d="M 446.5,134.0 L 449.0,126.6" style="fill:none;fill-rule:evenodd;stroke:#000000;stroke-width:2.0px;stroke-linecap:butt;stroke-linejoin:miter;stroke-opacity:1"/>
<path class="bond-17 atom-11 atom-14" d="M 507.6,169.3 L 508.9,171.1" style="fill:none;fill-rule:evenodd;stroke:#0000FF;stroke-width:2.0px;stroke-linecap:butt;stroke-linejoin:miter;stroke-opacity:1"/>
<path class="bond-17 atom-11 atom-14" d="M 508.9,171.1 L 510.2,173.0" style="fill:none;fill-rule:evenodd;stroke:#000000;stroke-width:2.0px;stroke-linecap:butt;stroke-linejoin:miter;stroke-opacity:1"/>
<path class="bond-18 atom-11 atom-20" d="M 506.5,162.7 L 509.0,155.3" style="fill:none;fill-rule:evenodd;stroke:#0000FF;stroke-width:2.0px;stroke-linecap:butt;stroke-linejoin:miter;stroke-opacity:1"/>
<path class="bond-18 atom-11 atom-20" d="M 509.0,155.3 L 511.5,147.9" style="fill:none;fill-rule:evenodd;stroke:#000000;stroke-width:2.0px;stroke-linecap:butt;stroke-linejoin:miter;stroke-opacity:1"/>
<path class="bond-19 atom-15 atom-16" d="M 449.0,126.6 L 464.3,131.8" style="fill:none;fill-rule:evenodd;stroke:#000000;stroke-width:2.0px;stroke-linecap:butt;stroke-linejoin:miter;stroke-opacity:1"/>
<path class="bond-20 atom-15 atom-17" d="M 449.0,126.6 L 455.1,108.6" style="fill:none;fill-rule:evenodd;stroke:#000000;stroke-width:2.0px;stroke-linecap:butt;stroke-linejoin:miter;stroke-opacity:1"/>
<path class="bond-21 atom-15 atom-45" d="M 449.0,126.6 L 433.7,121.4" style="fill:none;fill-rule:evenodd;stroke:#000000;stroke-width:2.0px;stroke-linecap:butt;stroke-linejoin:miter;stroke-opacity:1"/>
<path class="bond-22 atom-17 atom-46" d="M 455.1,108.6 L 457.6,101.2" style="fill:none;fill-rule:evenodd;stroke:#000000;stroke-width:2.0px;stroke-linecap:butt;stroke-linejoin:miter;stroke-opacity:1"/>
<path class="bond-22 atom-17 atom-46" d="M 457.6,101.2 L 460.1,93.8" style="fill:none;fill-rule:evenodd;stroke:#0000FF;stroke-width:2.0px;stroke-linecap:butt;stroke-linejoin:miter;stroke-opacity:1"/>
<path class="bond-22 atom-17 atom-46" d="M 452.3,105.1 L 454.4,98.9" style="fill:none;fill-rule:evenodd;stroke:#000000;stroke-width:2.0px;stroke-linecap:butt;stroke-linejoin:miter;stroke-opacity:1"/>
<path class="bond-22 atom-17 atom-46" d="M 454.4,98.9 L 456.5,92.6" style="fill:none;fill-rule:evenodd;stroke:#0000FF;stroke-width:2.0px;stroke-linecap:butt;stroke-linejoin:miter;stroke-opacity:1"/>
<path class="bond-22 atom-17 atom-46" d="M 459.5,107.6 L 461.6,101.3" style="fill:none;fill-rule:evenodd;stroke:#000000;stroke-width:2.0px;stroke-linecap:butt;stroke-linejoin:miter;stroke-opacity:1"/>
<path class="bond-22 atom-17 atom-46" d="M 461.6,101.3 L 463.8,95.1" style="fill:none;fill-rule:evenodd;stroke:#0000FF;stroke-width:2.0px;stroke-linecap:butt;stroke-linejoin:miter;stroke-opacity:1"/>
<path class="bond-23 atom-18 atom-19" d="M 544.6,147.2 L 528.2,157.1" style="fill:none;fill-rule:evenodd;stroke:#000000;stroke-width:2.0px;stroke-linecap:butt;stroke-linejoin:miter;stroke-opacity:1"/>
<path class="bond-24 atom-18 atom-23" d="M 544.6,147.2 L 544.4,139.4" style="fill:none;fill-rule:evenodd;stroke:#000000;stroke-width:2.0px;stroke-linecap:butt;stroke-linejoin:miter;stroke-opacity:1"/>
<path class="bond-24 atom-18 atom-23" d="M 544.4,139.4 L 544.2,131.6" style="fill:none;fill-rule:evenodd;stroke:#FF0000;stroke-width:2.0px;stroke-linecap:butt;stroke-linejoin:miter;stroke-opacity:1"/>
<path class="bond-25 atom-18 atom-24" d="M 544.6,147.2 L 560.5,144.1" style="fill:none;fill-rule:evenodd;stroke:#000000;stroke-width:2.0px;stroke-linecap:butt;stroke-linejoin:miter;stroke-opacity:1"/>
<path class="bond-26 atom-18 atom-25" d="M 544.6,147.2 L 550.2,161.7" style="fill:none;fill-rule:evenodd;stroke:#000000;stroke-width:2.0px;stroke-linecap:butt;stroke-linejoin:miter;stroke-opacity:1"/>
<path class="bond-27 atom-19 atom-20" d="M 528.2,157.1 L 511.5,147.9" style="fill:none;fill-rule:evenodd;stroke:#000000;stroke-width:2.0px;stroke-linecap:butt;stroke-linejoin:miter;stroke-opacity:1"/>
<path class="bond-28 atom-19 atom-26" d="M 528.2,157.1 L 538.1,168.3" style="fill:none;fill-rule:evenodd;stroke:#000000;stroke-width:2.0px;stroke-linecap:butt;stroke-linejoin:miter;stroke-opacity:1"/>
<path class="bond-29 atom-19 atom-27" d="M 528.2,157.1 L 523.7,164.4" style="fill:none;fill-rule:evenodd;stroke:#000000;stroke-width:2.0px;stroke-linecap:butt;stroke-linejoin:miter;stroke-opacity:1"/>
<path class="bond-30 atom-20 atom-21" d="M 511.5,147.9 L 511.1,128.8" style="fill:none;fill-rule:evenodd;stroke:#000000;stroke-width:2.0px;stroke-linecap:butt;stroke-linejoin:miter;stroke-opacity:1"/>
<path class="bond-31 atom-20 atom-28" d="M 511.5,147.9 L 495.4,145.4" style="fill:none;fill-rule:evenodd;stroke:#000000;stroke-width:2.0px;stroke-linecap:butt;stroke-linejoin:miter;stroke-opacity:1"/>
<path class="bond-32 atom-21 atom-22" d="M 511.1,128.8 L 527.4,119.0" style="fill:none;fill-rule:evenodd;stroke:#000000;stroke-width:2.0px;stroke-linecap:butt;stroke-linejoin:miter;stroke-opacity:1"/>
<path class="bond-33 atom-21 atom-29" d="M 511.1,128.8 L 495.1,132.0" style="fill:none;fill-rule:evenodd;stroke:#000000;stroke-width:2.0px;stroke-linecap:butt;stroke-linejoin:miter;stroke-opacity:1"/>
<path class="bond-34 atom-21 atom-30" d="M 511.1,128.8 L 505.5,114.4" style="fill:none;fill-rule:evenodd;stroke:#000000;stroke-width:2.0px;stroke-linecap:butt;stroke-linejoin:miter;stroke-opacity:1"/>
<path class="bond-35 atom-22 atom-23" d="M 527.4,119.0 L 534.3,122.7" style="fill:none;fill-rule:evenodd;stroke:#000000;stroke-width:2.0px;stroke-linecap:butt;stroke-linejoin:miter;stroke-opacity:1"/>
<path class="bond-35 atom-22 atom-23" d="M 534.3,122.7 L 541.1,126.4" style="fill:none;fill-rule:evenodd;stroke:#FF0000;stroke-width:2.0px;stroke-linecap:butt;stroke-linejoin:miter;stroke-opacity:1"/>
<path class="bond-36 atom-22 atom-31" d="M 527.4,119.0 L 517.6,107.7" style="fill:none;fill-rule:evenodd;stroke:#000000;stroke-width:2.0px;stroke-linecap:butt;stroke-linejoin:miter;stroke-opacity:1"/>
<path class="bond-37 atom-22 atom-32" d="M 527.4,119.0 L 536.7,107.4" style="fill:none;fill-rule:evenodd;stroke:#000000;stroke-width:2.0px;stroke-linecap:butt;stroke-linejoin:miter;stroke-opacity:1"/>
<path class="bond-38 atom-33 atom-37" d="M 396.3,166.8 L 391.5,161.3" style="fill:none;fill-rule:evenodd;stroke:#FF0000;stroke-width:2.0px;stroke-linecap:butt;stroke-linejoin:miter;stroke-opacity:1"/>
<path class="bond-38 atom-33 atom-37" d="M 391.5,161.3 L 386.7,155.8" style="fill:none;fill-rule:evenodd;stroke:#000000;stroke-width:2.0px;stroke-linecap:butt;stroke-linejoin:miter;stroke-opacity:1"/>
<path class="bond-39 atom-34 atom-35" d="M 361.6,127.1 L 380.3,123.4" style="fill:none;fill-rule:evenodd;stroke:#000000;stroke-width:2.0px;stroke-linecap:butt;stroke-linejoin:miter;stroke-opacity:1"/>
<path class="bond-39 atom-34 atom-35" d="M 365.1,130.3 L 378.2,127.7" style="fill:none;fill-rule:evenodd;stroke:#000000;stroke-width:2.0px;stroke-linecap:butt;stroke-linejoin:miter;stroke-opacity:1"/>
<path class="bond-40 atom-34 atom-39" d="M 361.6,127.1 L 355.4,145.2" style="fill:none;fill-rule:evenodd;stroke:#000000;stroke-width:2.0px;stroke-linecap:butt;stroke-linejoin:miter;stroke-opacity:1"/>
<path class="bond-41 atom-34 atom-40" d="M 361.6,127.1 L 356.4,121.2" style="fill:none;fill-rule:evenodd;stroke:#000000;stroke-width:2.0px;stroke-linecap:butt;stroke-linejoin:miter;stroke-opacity:1"/>
<path class="bond-41 atom-34 atom-40" d="M 356.4,121.2 L 351.2,115.3" style="fill:none;fill-rule:evenodd;stroke:#33CCCC;stroke-width:2.0px;stroke-linecap:butt;stroke-linejoin:miter;stroke-opacity:1"/>
<path class="bond-42 atom-35 atom-36" d="M 380.3,123.4 L 392.9,137.7" style="fill:none;fill-rule:evenodd;stroke:#000000;stroke-width:2.0px;stroke-linecap:butt;stroke-linejoin:miter;stroke-opacity:1"/>
<path class="bond-43 atom-35 atom-41" d="M 380.3,123.4 L 385.3,108.6" style="fill:none;fill-rule:evenodd;stroke:#000000;stroke-width:2.0px;stroke-linecap:butt;stroke-linejoin:miter;stroke-opacity:1"/>
<path class="bond-44 atom-36 atom-37" d="M 392.9,137.7 L 386.7,155.8" style="fill:none;fill-rule:evenodd;stroke:#000000;stroke-width:2.0px;stroke-linecap:butt;stroke-linejoin:miter;stroke-opacity:1"/>
<path class="bond-44 atom-36 atom-37" d="M 388.3,139.2 L 384.0,151.9" style="fill:none;fill-rule:evenodd;stroke:#000000;stroke-width:2.0px;stroke-linecap:butt;stroke-linejoin:miter;stroke-opacity:1"/>
<path class="bond-45 atom-36 atom-42" d="M 392.9,137.7 L 397.7,136.1" style="fill:none;fill-rule:evenodd;stroke:#000000;stroke-width:2.0px;stroke-linecap:butt;stroke-linejoin:miter;stroke-opacity:1"/>
<path class="bond-45 atom-36 atom-42" d="M 397.7,136.1 L 402.5,134.6" style="fill:none;fill-rule:evenodd;stroke:#33CCCC;stroke-width:2.0px;stroke-linecap:butt;stroke-linejoin:miter;stroke-opacity:1"/>
<path class="bond-46 atom-37 atom-38" d="M 386.7,155.8 L 368.0,159.5" style="fill:none;fill-rule:evenodd;stroke:#000000;stroke-width:2.0px;stroke-linecap:butt;stroke-linejoin:miter;stroke-opacity:1"/>
<path class="bond-47 atom-38 atom-39" d="M 368.0,159.5 L 355.4,145.2" style="fill:none;fill-rule:evenodd;stroke:#000000;stroke-width:2.0px;stroke-linecap:butt;stroke-linejoin:miter;stroke-opacity:1"/>
<path class="bond-47 atom-38 atom-39" d="M 369.0,154.8 L 360.2,144.8" style="fill:none;fill-rule:evenodd;stroke:#000000;stroke-width:2.0px;stroke-linecap:butt;stroke-linejoin:miter;stroke-opacity:1"/>
<path class="bond-48 atom-38 atom-43" d="M 368.0,159.5 L 363.0,174.2" style="fill:none;fill-rule:evenodd;stroke:#000000;stroke-width:2.0px;stroke-linecap:butt;stroke-linejoin:miter;stroke-opacity:1"/>
<path class="bond-49 atom-39 atom-44" d="M 355.4,145.2 L 339.5,148.3" style="fill:none;fill-rule:evenodd;stroke:#000000;stroke-width:2.0px;stroke-linecap:butt;stroke-linejoin:miter;stroke-opacity:1"/>
<path class="atom-7" d="M 479.3 185.0 L 481.1 187.9 Q 481.3 188.2, 481.6 188.7 Q 481.8 189.2, 481.9 189.2 L 481.9 185.0 L 482.6 185.0 L 482.6 190.4 L 481.8 190.4 L 479.9 187.3 Q 479.7 186.9, 479.5 186.5 Q 479.3 186.1, 479.2 186.0 L 479.2 190.4 L 478.5 190.4 L 478.5 185.0 L 479.3 185.0 " fill="#0000FF"/>
<path class="atom-8" d="M 414.6 138.0 Q 414.6 136.8, 415.3 136.0 Q 415.9 135.3, 417.1 135.3 Q 418.3 135.3, 418.9 136.0 Q 419.6 136.8, 419.6 138.0 Q 419.6 139.4, 418.9 140.1 Q 418.3 140.8, 417.1 140.8 Q 415.9 140.8, 415.3 140.1 Q 414.6 139.4, 414.6 138.0 M 417.1 140.2 Q 417.9 140.2, 418.4 139.7 Q 418.8 139.1, 418.8 138.0 Q 418.8 137.0, 418.4 136.5 Q 417.9 135.9, 417.1 135.9 Q 416.3 135.9, 415.8 136.4 Q 415.4 137.0, 415.4 138.0 Q 415.4 139.1, 415.8 139.7 Q 416.3 140.2, 417.1 140.2 " fill="#FF0000"/>
<path class="atom-9" d="M 441.6 142.0 L 443.4 144.8 Q 443.6 145.1, 443.9 145.6 Q 444.2 146.1, 444.2 146.2 L 444.2 142.0 L 444.9 142.0 L 444.9 147.4 L 444.1 147.4 L 442.2 144.3 Q 442.0 143.9, 441.8 143.5 Q 441.6 143.0, 441.5 142.9 L 441.5 147.4 L 440.8 147.4 L 440.8 142.0 L 441.6 142.0 " fill="#0000FF"/>
<path class="atom-10" d="M 472.9 152.6 L 474.7 155.5 Q 474.9 155.8, 475.1 156.3 Q 475.4 156.8, 475.4 156.8 L 475.4 152.6 L 476.2 152.6 L 476.2 158.0 L 475.4 158.0 L 473.5 154.9 Q 473.3 154.5, 473.1 154.1 Q 472.8 153.7, 472.8 153.6 L 472.8 158.0 L 472.1 158.0 L 472.1 152.6 L 472.9 152.6 " fill="#0000FF"/>
<path class="atom-11" d="M 504.2 163.3 L 506.0 166.1 Q 506.1 166.4, 506.4 166.9 Q 506.7 167.4, 506.7 167.5 L 506.7 163.3 L 507.4 163.3 L 507.4 168.7 L 506.7 168.7 L 504.8 165.5 Q 504.6 165.2, 504.3 164.8 Q 504.1 164.3, 504.0 164.2 L 504.0 168.7 L 503.3 168.7 L 503.3 163.3 L 504.2 163.3 " fill="#0000FF"/>
<path class="atom-12" d="M 422.3 196.1 L 423.0 196.1 L 423.0 198.4 L 425.8 198.4 L 425.8 196.1 L 426.5 196.1 L 426.5 201.5 L 425.8 201.5 L 425.8 199.1 L 423.0 199.1 L 423.0 201.5 L 422.3 201.5 L 422.3 196.1 " fill="#000000"/>
<path class="atom-13" d="M 453.6 206.8 L 454.3 206.8 L 454.3 209.1 L 457.1 209.1 L 457.1 206.8 L 457.8 206.8 L 457.8 212.2 L 457.1 212.2 L 457.1 209.7 L 454.3 209.7 L 454.3 212.2 L 453.6 212.2 L 453.6 206.8 " fill="#000000"/>
<path class="atom-14" d="M 510.3 173.6 L 511.0 173.6 L 511.0 175.9 L 513.8 175.9 L 513.8 173.6 L 514.5 173.6 L 514.5 179.0 L 513.8 179.0 L 513.8 176.5 L 511.0 176.5 L 511.0 179.0 L 510.3 179.0 L 510.3 173.6 " fill="#000000"/>
<path class="atom-16" d="M 464.9 130.1 L 465.7 130.1 L 465.7 132.4 L 468.4 132.4 L 468.4 130.1 L 469.2 130.1 L 469.2 135.5 L 468.4 135.5 L 468.4 133.0 L 465.7 133.0 L 465.7 135.5 L 464.9 135.5 L 464.9 130.1 " fill="#000000"/>
<path class="atom-23" d="M 541.7 128.2 Q 541.7 126.9, 542.3 126.1 Q 543.0 125.4, 544.2 125.4 Q 545.4 125.4, 546.0 126.1 Q 546.6 126.9, 546.6 128.2 Q 546.6 129.5, 546.0 130.2 Q 545.3 131.0, 544.2 131.0 Q 543.0 131.0, 542.3 130.2 Q 541.7 129.5, 541.7 128.2 M 544.2 130.4 Q 545.0 130.4, 545.4 129.8 Q 545.9 129.2, 545.9 128.2 Q 545.9 127.1, 545.4 126.6 Q 545.0 126.0, 544.2 126.0 Q 543.3 126.0, 542.9 126.6 Q 542.4 127.1, 542.4 128.2 Q 542.4 129.3, 542.9 129.8 Q 543.3 130.4, 544.2 130.4 " fill="#FF0000"/>
<path class="atom-24" d="M 561.2 140.8 L 561.9 140.8 L 561.9 143.1 L 564.7 143.1 L 564.7 140.8 L 565.4 140.8 L 565.4 146.2 L 564.7 146.2 L 564.7 143.7 L 561.9 143.7 L 561.9 146.2 L 561.2 146.2 L 561.2 140.8 " fill="#000000"/>
<path class="atom-25" d="M 549.3 162.3 L 550.1 162.3 L 550.1 164.6 L 552.8 164.6 L 552.8 162.3 L 553.6 162.3 L 553.6 167.7 L 552.8 167.7 L 552.8 165.2 L 550.1 165.2 L 550.1 167.7 L 549.3 167.7 L 549.3 162.3 " fill="#000000"/>
<path class="atom-26" d="M 538.7 168.7 L 539.4 168.7 L 539.4 171.0 L 542.2 171.0 L 542.2 168.7 L 542.9 168.7 L 542.9 174.1 L 542.2 174.1 L 542.2 171.7 L 539.4 171.7 L 539.4 174.1 L 538.7 174.1 L 538.7 168.7 " fill="#000000"/>
<path class="atom-27" d="M 519.5 165.0 L 520.3 165.0 L 520.3 167.3 L 523.0 167.3 L 523.0 165.0 L 523.8 165.0 L 523.8 170.4 L 523.0 170.4 L 523.0 167.9 L 520.3 167.9 L 520.3 170.4 L 519.5 170.4 L 519.5 165.0 " fill="#000000"/>
<path class="atom-28" d="M 490.6 142.3 L 491.3 142.3 L 491.3 144.6 L 494.1 144.6 L 494.1 142.3 L 494.8 142.3 L 494.8 147.7 L 494.1 147.7 L 494.1 145.2 L 491.3 145.2 L 491.3 147.7 L 490.6 147.7 L 490.6 142.3 " fill="#000000"/>
<path class="atom-29" d="M 490.3 129.8 L 491.0 129.8 L 491.0 132.1 L 493.8 132.1 L 493.8 129.8 L 494.5 129.8 L 494.5 135.2 L 493.8 135.2 L 493.8 132.8 L 491.0 132.8 L 491.0 135.2 L 490.3 135.2 L 490.3 129.8 " fill="#000000"/>
<path class="atom-30" d="M 502.1 108.4 L 502.9 108.4 L 502.9 110.7 L 505.6 110.7 L 505.6 108.4 L 506.3 108.4 L 506.3 113.8 L 505.6 113.8 L 505.6 111.3 L 502.9 111.3 L 502.9 113.8 L 502.1 113.8 L 502.1 108.4 " fill="#000000"/>
<path class="atom-31" d="M 512.8 101.9 L 513.5 101.9 L 513.5 104.2 L 516.3 104.2 L 516.3 101.9 L 517.0 101.9 L 517.0 107.3 L 516.3 107.3 L 516.3 104.8 L 513.5 104.8 L 513.5 107.3 L 512.8 107.3 L 512.8 101.9 " fill="#000000"/>
<path class="atom-32" d="M 537.3 101.4 L 538.0 101.4 L 538.0 103.7 L 540.8 103.7 L 540.8 101.4 L 541.5 101.4 L 541.5 106.8 L 540.8 106.8 L 540.8 104.3 L 538.0 104.3 L 538.0 106.8 L 537.3 106.8 L 537.3 101.4 " fill="#000000"/>
<path class="atom-33" d="M 396.8 170.2 Q 396.8 168.9, 397.4 168.1 Q 398.1 167.4, 399.3 167.4 Q 400.5 167.4, 401.1 168.1 Q 401.8 168.9, 401.8 170.2 Q 401.8 171.5, 401.1 172.2 Q 400.5 173.0, 399.3 173.0 Q 398.1 173.0, 397.4 172.2 Q 396.8 171.5, 396.8 170.2 M 399.3 172.4 Q 400.1 172.4, 400.5 171.8 Q 401.0 171.2, 401.0 170.2 Q 401.0 169.1, 400.5 168.6 Q 400.1 168.0, 399.3 168.0 Q 398.5 168.0, 398.0 168.6 Q 397.6 169.1, 397.6 170.2 Q 397.6 171.3, 398.0 171.8 Q 398.5 172.4, 399.3 172.4 " fill="#FF0000"/>
<path class="atom-40" d="M 347.4 110.0 L 350.6 110.0 L 350.6 110.7 L 348.1 110.7 L 348.1 112.3 L 350.4 112.3 L 350.4 112.9 L 348.1 112.9 L 348.1 115.4 L 347.4 115.4 L 347.4 110.0 " fill="#33CCCC"/>
<path class="atom-41" d="M 384.3 102.6 L 385.1 102.6 L 385.1 104.9 L 387.8 104.9 L 387.8 102.6 L 388.6 102.6 L 388.6 108.0 L 387.8 108.0 L 387.8 105.5 L 385.1 105.5 L 385.1 108.0 L 384.3 108.0 L 384.3 102.6 " fill="#000000"/>
<path class="atom-42" d="M 403.1 131.1 L 406.4 131.1 L 406.4 131.7 L 403.9 131.7 L 403.9 133.4 L 406.1 133.4 L 406.1 134.0 L 403.9 134.0 L 403.9 136.5 L 403.1 136.5 L 403.1 131.1 " fill="#33CCCC"/>
<path class="atom-43" d="M 359.7 174.9 L 360.5 174.9 L 360.5 177.2 L 363.2 177.2 L 363.2 174.9 L 364.0 174.9 L 364.0 180.3 L 363.2 180.3 L 363.2 177.8 L 360.5 177.8 L 360.5 180.3 L 359.7 180.3 L 359.7 174.9 " fill="#000000"/>
<path class="atom-44" d="M 334.6 146.2 L 335.3 146.2 L 335.3 148.5 L 338.1 148.5 L 338.1 146.2 L 338.8 146.2 L 338.8 151.6 L 338.1 151.6 L 338.1 149.1 L 335.3 149.1 L 335.3 151.6 L 334.6 151.6 L 334.6 146.2 " fill="#000000"/>
<path class="atom-45" d="M 428.8 117.8 L 429.5 117.8 L 429.5 120.1 L 432.3 120.1 L 432.3 117.8 L 433.0 117.8 L 433.0 123.2 L 432.3 123.2 L 432.3 120.7 L 429.5 120.7 L 429.5 123.2 L 428.8 123.2 L 428.8 117.8 " fill="#000000"/>
<path class="atom-46" d="M 460.1 87.8 L 461.9 90.7 Q 462.0 91.0, 462.3 91.5 Q 462.6 92.0, 462.6 92.0 L 462.6 87.8 L 463.3 87.8 L 463.3 93.2 L 462.6 93.2 L 460.7 90.1 Q 460.5 89.7, 460.2 89.3 Q 460.0 88.9, 459.9 88.7 L 459.9 93.2 L 459.2 93.2 L 459.2 87.8 L 460.1 87.8 " fill="#0000FF"/>
<text x="300" y="20" font-size="20" font-family="sans-serif" font-weight="normal" letter-spacing="0" text-anchor="middle" fill="black">p38: p38a_3fln -&gt; p38a_2t</text><text x="300" y="35" font-size="15" font-family="sans-serif" font-weight="normal" letter-spacing="0" text-anchor="middle" fill="black"></text><text x="150" y="285" font-size="15" font-family="sans-serif" font-weight="normal" letter-spacing="0" text-anchor="middle" fill="black">p38a_3fln</text><text x="450" y="285" font-size="15" font-family="sans-serif" font-weight="normal" letter-spacing="0" text-anchor="middle" fill="black">p38a_2t</text></svg>
