<?xml version='1.0' encoding='ASCII' standalone='yes'?>
<svg xmlns="http://www.w3.org/2000/svg" xmlns:rdkit="http://www.rdkit.org/xml" xmlns:xlink="http://www.w3.org/1999/xlink" version="1.1" baseProfile="full" xml:space="preserve" width="600px" height="300px" viewBox="0 0 600 300">
<!-- END OF HEADER -->
<rect style="opacity:1.0;fill:#FFFFFF;stroke:none" width="600.0" height="300.0" x="0.0" y="0.0"> </rect>
<path class="bond-0 atom-0 atom-2" d="M 129.0,175.5 L 122.8,172.4" style="fill:none;fill-rule:evenodd;stroke:#000000;stroke-width:2.0px;stroke-linecap:butt;stroke-linejoin:miter;stroke-opacity:1"/>
<path class="bond-0 atom-0 atom-2" d="M 122.8,172.4 L 116.6,169.4" style="fill:none;fill-rule:evenodd;stroke:#0000FF;stroke-width:2.0px;stroke-linecap:butt;stroke-linejoin:miter;stroke-opacity:1"/>
<path class="bond-0 atom-0 atom-2" d="M 128.6,171.6 L 124.2,169.5" style="fill:none;fill-rule:evenodd;stroke:#000000;stroke-width:2.0px;stroke-linecap:butt;stroke-linejoin:miter;stroke-opacity:1"/>
<path class="bond-0 atom-0 atom-2" d="M 124.2,169.5 L 119.9,167.4" style="fill:none;fill-rule:evenodd;stroke:#0000FF;stroke-width:2.0px;stroke-linecap:butt;stroke-linejoin:miter;stroke-opacity:1"/>
<path class="bond-1 atom-0 atom-3" d="M 129.0,175.5 L 142.6,166.4" style="fill:none;fill-rule:evenodd;stroke:#000000;stroke-width:2.0px;stroke-linecap:butt;stroke-linejoin:miter;stroke-opacity:1"/>
<path class="bond-2 atom-0 atom-13" d="M 129.0,175.5 L 129.9,189.0" style="fill:none;fill-rule:evenodd;stroke:#000000;stroke-width:2.0px;stroke-linecap:butt;stroke-linejoin:miter;stroke-opacity:1"/>
<path class="bond-3 atom-1 atom-3" d="M 141.5,150.0 L 142.6,166.4" style="fill:none;fill-rule:evenodd;stroke:#000000;stroke-width:2.0px;stroke-linecap:butt;stroke-linejoin:miter;stroke-opacity:1"/>
<path class="bond-3 atom-1 atom-3" d="M 138.4,152.7 L 139.2,164.1" style="fill:none;fill-rule:evenodd;stroke:#000000;stroke-width:2.0px;stroke-linecap:butt;stroke-linejoin:miter;stroke-opacity:1"/>
<path class="bond-4 atom-1 atom-9" d="M 141.5,150.0 L 147.2,146.2" style="fill:none;fill-rule:evenodd;stroke:#000000;stroke-width:2.0px;stroke-linecap:butt;stroke-linejoin:miter;stroke-opacity:1"/>
<path class="bond-4 atom-1 atom-9" d="M 147.2,146.2 L 152.9,142.4" style="fill:none;fill-rule:evenodd;stroke:#0000FF;stroke-width:2.0px;stroke-linecap:butt;stroke-linejoin:miter;stroke-opacity:1"/>
<path class="bond-5 atom-1 atom-11" d="M 141.5,150.0 L 135.3,146.9" style="fill:none;fill-rule:evenodd;stroke:#000000;stroke-width:2.0px;stroke-linecap:butt;stroke-linejoin:miter;stroke-opacity:1"/>
<path class="bond-5 atom-1 atom-11" d="M 135.3,146.9 L 129.1,143.9" style="fill:none;fill-rule:evenodd;stroke:#0000FF;stroke-width:2.0px;stroke-linecap:butt;stroke-linejoin:miter;stroke-opacity:1"/>
<path class="bond-6 atom-2 atom-7" d="M 114.1,165.4 L 113.6,158.7" style="fill:none;fill-rule:evenodd;stroke:#0000FF;stroke-width:2.0px;stroke-linecap:butt;stroke-linejoin:miter;stroke-opacity:1"/>
<path class="bond-6 atom-2 atom-7" d="M 113.6,158.7 L 113.2,151.9" style="fill:none;fill-rule:evenodd;stroke:#000000;stroke-width:2.0px;stroke-linecap:butt;stroke-linejoin:miter;stroke-opacity:1"/>
<path class="bond-7 atom-3 atom-4" d="M 142.6,166.4 L 157.4,173.6" style="fill:none;fill-rule:evenodd;stroke:#000000;stroke-width:2.0px;stroke-linecap:butt;stroke-linejoin:miter;stroke-opacity:1"/>
<path class="bond-8 atom-4 atom-5" d="M 157.4,173.6 L 171.0,164.5" style="fill:none;fill-rule:evenodd;stroke:#000000;stroke-width:2.0px;stroke-linecap:butt;stroke-linejoin:miter;stroke-opacity:1"/>
<path class="bond-8 atom-4 atom-5" d="M 157.6,169.5 L 167.1,163.1" style="fill:none;fill-rule:evenodd;stroke:#000000;stroke-width:2.0px;stroke-linecap:butt;stroke-linejoin:miter;stroke-opacity:1"/>
<path class="bond-9 atom-4 atom-14" d="M 157.4,173.6 L 158.3,187.1" style="fill:none;fill-rule:evenodd;stroke:#000000;stroke-width:2.0px;stroke-linecap:butt;stroke-linejoin:miter;stroke-opacity:1"/>
<path class="bond-10 atom-5 atom-6" d="M 171.0,164.5 L 169.9,148.1" style="fill:none;fill-rule:evenodd;stroke:#000000;stroke-width:2.0px;stroke-linecap:butt;stroke-linejoin:miter;stroke-opacity:1"/>
<path class="bond-11 atom-5 atom-29" d="M 171.0,164.5 L 177.0,167.4" style="fill:none;fill-rule:evenodd;stroke:#000000;stroke-width:2.0px;stroke-linecap:butt;stroke-linejoin:miter;stroke-opacity:1"/>
<path class="bond-11 atom-5 atom-29" d="M 177.0,167.4 L 183.1,170.4" style="fill:none;fill-rule:evenodd;stroke:#FF0000;stroke-width:2.0px;stroke-linecap:butt;stroke-linejoin:miter;stroke-opacity:1"/>
<path class="bond-12 atom-6 atom-8" d="M 168.8,146.9 L 171.6,144.5" style="fill:none;fill-rule:evenodd;stroke:#000000;stroke-width:2.0px;stroke-linecap:butt;stroke-linejoin:miter;stroke-opacity:1"/>
<path class="bond-12 atom-6 atom-8" d="M 171.6,144.5 L 174.3,142.1" style="fill:none;fill-rule:evenodd;stroke:#FF0000;stroke-width:2.0px;stroke-linecap:butt;stroke-linejoin:miter;stroke-opacity:1"/>
<path class="bond-12 atom-6 atom-8" d="M 171.0,149.3 L 173.7,147.0" style="fill:none;fill-rule:evenodd;stroke:#000000;stroke-width:2.0px;stroke-linecap:butt;stroke-linejoin:miter;stroke-opacity:1"/>
<path class="bond-12 atom-6 atom-8" d="M 173.7,147.0 L 176.5,144.6" style="fill:none;fill-rule:evenodd;stroke:#FF0000;stroke-width:2.0px;stroke-linecap:butt;stroke-linejoin:miter;stroke-opacity:1"/>
<path class="bond-13 atom-6 atom-9" d="M 169.9,148.1 L 163.7,145.0" style="fill:none;fill-rule:evenodd;stroke:#000000;stroke-width:2.0px;stroke-linecap:butt;stroke-linejoin:miter;stroke-opacity:1"/>
<path class="bond-13 atom-6 atom-9" d="M 163.7,145.0 L 157.5,142.0" style="fill:none;fill-rule:evenodd;stroke:#0000FF;stroke-width:2.0px;stroke-linecap:butt;stroke-linejoin:miter;stroke-opacity:1"/>
<path class="bond-14 atom-7 atom-11" d="M 113.2,151.9 L 118.9,148.1" style="fill:none;fill-rule:evenodd;stroke:#000000;stroke-width:2.0px;stroke-linecap:butt;stroke-linejoin:miter;stroke-opacity:1"/>
<path class="bond-14 atom-7 atom-11" d="M 118.9,148.1 L 124.5,144.3" style="fill:none;fill-rule:evenodd;stroke:#0000FF;stroke-width:2.0px;stroke-linecap:butt;stroke-linejoin:miter;stroke-opacity:1"/>
<path class="bond-14 atom-7 atom-11" d="M 116.7,153.5 L 120.7,150.8" style="fill:none;fill-rule:evenodd;stroke:#000000;stroke-width:2.0px;stroke-linecap:butt;stroke-linejoin:miter;stroke-opacity:1"/>
<path class="bond-14 atom-7 atom-11" d="M 120.7,150.8 L 124.7,148.2" style="fill:none;fill-rule:evenodd;stroke:#0000FF;stroke-width:2.0px;stroke-linecap:butt;stroke-linejoin:miter;stroke-opacity:1"/>
<path class="bond-15 atom-7 atom-12" d="M 113.2,151.9 L 107.0,148.8" style="fill:none;fill-rule:evenodd;stroke:#000000;stroke-width:2.0px;stroke-linecap:butt;stroke-linejoin:miter;stroke-opacity:1"/>
<path class="bond-15 atom-7 atom-12" d="M 107.0,148.8 L 100.8,145.8" style="fill:none;fill-rule:evenodd;stroke:#0000FF;stroke-width:2.0px;stroke-linecap:butt;stroke-linejoin:miter;stroke-opacity:1"/>
<path class="bond-16 atom-9 atom-10" d="M 155.0,138.0 L 154.5,131.3" style="fill:none;fill-rule:evenodd;stroke:#0000FF;stroke-width:2.0px;stroke-linecap:butt;stroke-linejoin:miter;stroke-opacity:1"/>
<path class="bond-16 atom-9 atom-10" d="M 154.5,131.3 L 154.1,124.5" style="fill:none;fill-rule:evenodd;stroke:#000000;stroke-width:2.0px;stroke-linecap:butt;stroke-linejoin:miter;stroke-opacity:1"/>
<path class="bond-17 atom-10 atom-15" d="M 154.1,124.5 L 168.1,123.6" style="fill:none;fill-rule:evenodd;stroke:#000000;stroke-width:2.0px;stroke-linecap:butt;stroke-linejoin:miter;stroke-opacity:1"/>
<path class="bond-18 atom-10 atom-16" d="M 154.1,124.5 L 140.0,125.4" style="fill:none;fill-rule:evenodd;stroke:#000000;stroke-width:2.0px;stroke-linecap:butt;stroke-linejoin:miter;stroke-opacity:1"/>
<path class="bond-19 atom-10 atom-17" d="M 154.1,124.5 L 153.2,111.0" style="fill:none;fill-rule:evenodd;stroke:#000000;stroke-width:2.0px;stroke-linecap:butt;stroke-linejoin:miter;stroke-opacity:1"/>
<path class="bond-20 atom-12 atom-18" d="M 98.6,141.8 L 98.9,136.5" style="fill:none;fill-rule:evenodd;stroke:#0000FF;stroke-width:2.0px;stroke-linecap:butt;stroke-linejoin:miter;stroke-opacity:1"/>
<path class="bond-20 atom-12 atom-18" d="M 98.9,136.5 L 99.2,131.1" style="fill:none;fill-rule:evenodd;stroke:#000000;stroke-width:2.0px;stroke-linecap:butt;stroke-linejoin:miter;stroke-opacity:1"/>
<path class="bond-21 atom-12 atom-19" d="M 96.2,146.2 L 90.5,150.0" style="fill:none;fill-rule:evenodd;stroke:#0000FF;stroke-width:2.0px;stroke-linecap:butt;stroke-linejoin:miter;stroke-opacity:1"/>
<path class="bond-21 atom-12 atom-19" d="M 90.5,150.0 L 84.8,153.8" style="fill:none;fill-rule:evenodd;stroke:#000000;stroke-width:2.0px;stroke-linecap:butt;stroke-linejoin:miter;stroke-opacity:1"/>
<path class="bond-22 atom-19 atom-20" d="M 84.8,153.8 L 75.7,140.2" style="fill:none;fill-rule:evenodd;stroke:#000000;stroke-width:2.0px;stroke-linecap:butt;stroke-linejoin:miter;stroke-opacity:1"/>
<path class="bond-23 atom-19 atom-21" d="M 84.8,153.8 L 71.2,162.9" style="fill:none;fill-rule:evenodd;stroke:#000000;stroke-width:2.0px;stroke-linecap:butt;stroke-linejoin:miter;stroke-opacity:1"/>
<path class="bond-24 atom-19 atom-22" d="M 84.8,153.8 L 92.1,164.6" style="fill:none;fill-rule:evenodd;stroke:#000000;stroke-width:2.0px;stroke-linecap:butt;stroke-linejoin:miter;stroke-opacity:1"/>
<path class="bond-25 atom-20 atom-23" d="M 75.7,140.2 L 69.4,143.4" style="fill:none;fill-rule:evenodd;stroke:#000000;stroke-width:2.0px;stroke-linecap:butt;stroke-linejoin:miter;stroke-opacity:1"/>
<path class="bond-26 atom-20 atom-24" d="M 75.7,140.2 L 85.8,131.5" style="fill:none;fill-rule:evenodd;stroke:#000000;stroke-width:2.0px;stroke-linecap:butt;stroke-linejoin:miter;stroke-opacity:1"/>
<path class="bond-27 atom-20 atom-25" d="M 75.7,140.2 L 68.5,129.4" style="fill:none;fill-rule:evenodd;stroke:#000000;stroke-width:2.0px;stroke-linecap:butt;stroke-linejoin:miter;stroke-opacity:1"/>
<path class="bond-28 atom-21 atom-26" d="M 71.2,162.9 L 67.2,158.3" style="fill:none;fill-rule:evenodd;stroke:#000000;stroke-width:2.0px;stroke-linecap:butt;stroke-linejoin:miter;stroke-opacity:1"/>
<path class="bond-29 atom-21 atom-27" d="M 71.2,162.9 L 78.4,173.7" style="fill:none;fill-rule:evenodd;stroke:#000000;stroke-width:2.0px;stroke-linecap:butt;stroke-linejoin:miter;stroke-opacity:1"/>
<path class="bond-30 atom-21 atom-28" d="M 71.2,162.9 L 59.9,170.5" style="fill:none;fill-rule:evenodd;stroke:#000000;stroke-width:2.0px;stroke-linecap:butt;stroke-linejoin:miter;stroke-opacity:1"/>
<path class="bond-31 atom-29 atom-33" d="M 188.4,169.9 L 193.9,166.2" style="fill:none;fill-rule:evenodd;stroke:#FF0000;stroke-width:2.0px;stroke-linecap:butt;stroke-linejoin:miter;stroke-opacity:1"/>
<path class="bond-31 atom-29 atom-33" d="M 193.9,166.2 L 199.3,162.6" style="fill:none;fill-rule:evenodd;stroke:#000000;stroke-width:2.0px;stroke-linecap:butt;stroke-linejoin:miter;stroke-opacity:1"/>
<path class="bond-32 atom-30 atom-31" d="M 226.6,144.3 L 227.7,160.7" style="fill:none;fill-rule:evenodd;stroke:#000000;stroke-width:2.0px;stroke-linecap:butt;stroke-linejoin:miter;stroke-opacity:1"/>
<path class="bond-32 atom-30 atom-31" d="M 223.5,147.0 L 224.3,158.4" style="fill:none;fill-rule:evenodd;stroke:#000000;stroke-width:2.0px;stroke-linecap:butt;stroke-linejoin:miter;stroke-opacity:1"/>
<path class="bond-33 atom-30 atom-35" d="M 226.6,144.3 L 211.9,137.1" style="fill:none;fill-rule:evenodd;stroke:#000000;stroke-width:2.0px;stroke-linecap:butt;stroke-linejoin:miter;stroke-opacity:1"/>
<path class="bond-34 atom-30 atom-36" d="M 226.6,144.3 L 232.5,140.4" style="fill:none;fill-rule:evenodd;stroke:#000000;stroke-width:2.0px;stroke-linecap:butt;stroke-linejoin:miter;stroke-opacity:1"/>
<path class="bond-34 atom-30 atom-36" d="M 232.5,140.4 L 238.3,136.4" style="fill:none;fill-rule:evenodd;stroke:#33CCCC;stroke-width:2.0px;stroke-linecap:butt;stroke-linejoin:miter;stroke-opacity:1"/>
<path class="bond-35 atom-31 atom-32" d="M 227.7,160.7 L 214.1,169.8" style="fill:none;fill-rule:evenodd;stroke:#000000;stroke-width:2.0px;stroke-linecap:butt;stroke-linejoin:miter;stroke-opacity:1"/>
<path class="bond-36 atom-31 atom-37" d="M 227.7,160.7 L 240.1,166.8" style="fill:none;fill-rule:evenodd;stroke:#000000;stroke-width:2.0px;stroke-linecap:butt;stroke-linejoin:miter;stroke-opacity:1"/>
<path class="bond-37 atom-32 atom-33" d="M 214.1,169.8 L 199.3,162.6" style="fill:none;fill-rule:evenodd;stroke:#000000;stroke-width:2.0px;stroke-linecap:butt;stroke-linejoin:miter;stroke-opacity:1"/>
<path class="bond-37 atom-32 atom-33" d="M 213.3,165.8 L 203.0,160.7" style="fill:none;fill-rule:evenodd;stroke:#000000;stroke-width:2.0px;stroke-linecap:butt;stroke-linejoin:miter;stroke-opacity:1"/>
<path class="bond-38 atom-32 atom-38" d="M 214.1,169.8 L 214.5,176.6" style="fill:none;fill-rule:evenodd;stroke:#000000;stroke-width:2.0px;stroke-linecap:butt;stroke-linejoin:miter;stroke-opacity:1"/>
<path class="bond-38 atom-32 atom-38" d="M 214.5,176.6 L 215.0,183.3" style="fill:none;fill-rule:evenodd;stroke:#33CCCC;stroke-width:2.0px;stroke-linecap:butt;stroke-linejoin:miter;stroke-opacity:1"/>
<path class="bond-39 atom-33 atom-34" d="M 199.3,162.6 L 198.2,146.2" style="fill:none;fill-rule:evenodd;stroke:#000000;stroke-width:2.0px;stroke-linecap:butt;stroke-linejoin:miter;stroke-opacity:1"/>
<path class="bond-40 atom-34 atom-35" d="M 198.2,146.2 L 211.9,137.1" style="fill:none;fill-rule:evenodd;stroke:#000000;stroke-width:2.0px;stroke-linecap:butt;stroke-linejoin:miter;stroke-opacity:1"/>
<path class="bond-40 atom-34 atom-35" d="M 202.1,147.6 L 211.7,141.2" style="fill:none;fill-rule:evenodd;stroke:#000000;stroke-width:2.0px;stroke-linecap:butt;stroke-linejoin:miter;stroke-opacity:1"/>
<path class="bond-41 atom-34 atom-39" d="M 198.2,146.2 L 191.6,141.8" style="fill:none;fill-rule:evenodd;stroke:#000000;stroke-width:2.0px;stroke-linecap:butt;stroke-linejoin:miter;stroke-opacity:1"/>
<path class="bond-42 atom-35 atom-40" d="M 211.9,137.1 L 211.0,123.5" style="fill:none;fill-rule:evenodd;stroke:#000000;stroke-width:2.0px;stroke-linecap:butt;stroke-linejoin:miter;stroke-opacity:1"/>
<path class="atom-2" d="M 113.3 165.9 L 114.8 168.4 Q 114.9 168.6, 115.2 169.1 Q 115.4 169.5, 115.4 169.6 L 115.4 165.9 L 116.0 165.9 L 116.0 170.6 L 115.4 170.6 L 113.8 167.9 Q 113.6 167.6, 113.4 167.2 Q 113.2 166.9, 113.1 166.8 L 113.1 170.6 L 112.5 170.6 L 112.5 165.9 L 113.3 165.9 " fill="#0000FF"/>
<path class="atom-8" d="M 175.9 141.1 Q 175.9 140.0, 176.5 139.3 Q 177.0 138.7, 178.0 138.7 Q 179.1 138.7, 179.6 139.3 Q 180.2 140.0, 180.2 141.1 Q 180.2 142.2, 179.6 142.8 Q 179.1 143.5, 178.0 143.5 Q 177.0 143.5, 176.5 142.8 Q 175.9 142.2, 175.9 141.1 M 178.0 143.0 Q 178.7 143.0, 179.1 142.5 Q 179.5 142.0, 179.5 141.1 Q 179.5 140.2, 179.1 139.7 Q 178.7 139.2, 178.0 139.2 Q 177.3 139.2, 176.9 139.7 Q 176.6 140.2, 176.6 141.1 Q 176.6 142.0, 176.9 142.5 Q 177.3 143.0, 178.0 143.0 " fill="#FF0000"/>
<path class="atom-9" d="M 154.1 138.5 L 155.7 141.0 Q 155.8 141.2, 156.1 141.7 Q 156.3 142.1, 156.3 142.2 L 156.3 138.5 L 156.9 138.5 L 156.9 143.2 L 156.3 143.2 L 154.7 140.5 Q 154.5 140.2, 154.3 139.8 Q 154.1 139.5, 154.0 139.4 L 154.0 143.2 L 153.4 143.2 L 153.4 138.5 L 154.1 138.5 " fill="#0000FF"/>
<path class="atom-11" d="M 125.8 140.4 L 127.3 142.9 Q 127.5 143.1, 127.7 143.6 Q 127.9 144.0, 128.0 144.1 L 128.0 140.4 L 128.6 140.4 L 128.6 145.1 L 127.9 145.1 L 126.3 142.4 Q 126.1 142.1, 125.9 141.7 Q 125.7 141.4, 125.7 141.2 L 125.7 145.1 L 125.1 145.1 L 125.1 140.4 L 125.8 140.4 " fill="#0000FF"/>
<path class="atom-12" d="M 97.4 142.3 L 99.0 144.8 Q 99.1 145.0, 99.4 145.5 Q 99.6 145.9, 99.6 146.0 L 99.6 142.3 L 100.2 142.3 L 100.2 147.0 L 99.6 147.0 L 98.0 144.3 Q 97.8 144.0, 97.6 143.6 Q 97.4 143.3, 97.3 143.1 L 97.3 147.0 L 96.7 147.0 L 96.7 142.3 L 97.4 142.3 " fill="#0000FF"/>
<path class="atom-13" d="M 128.3 189.5 L 128.9 189.5 L 128.9 191.5 L 131.3 191.5 L 131.3 189.5 L 131.9 189.5 L 131.9 194.2 L 131.3 194.2 L 131.3 192.0 L 128.9 192.0 L 128.9 194.2 L 128.3 194.2 L 128.3 189.5 " fill="#000000"/>
<path class="atom-14" d="M 156.6 187.6 L 157.3 187.6 L 157.3 189.6 L 159.6 189.6 L 159.6 187.6 L 160.3 187.6 L 160.3 192.3 L 159.6 192.3 L 159.6 190.1 L 157.3 190.1 L 157.3 192.3 L 156.6 192.3 L 156.6 187.6 " fill="#000000"/>
<path class="atom-15" d="M 168.6 121.1 L 169.3 121.1 L 169.3 123.1 L 171.6 123.1 L 171.6 121.1 L 172.3 121.1 L 172.3 125.7 L 171.6 125.7 L 171.6 123.6 L 169.3 123.6 L 169.3 125.7 L 168.6 125.7 L 168.6 121.1 " fill="#000000"/>
<path class="atom-16" d="M 135.9 123.3 L 136.5 123.3 L 136.5 125.2 L 138.9 125.2 L 138.9 123.3 L 139.5 123.3 L 139.5 127.9 L 138.9 127.9 L 138.9 125.8 L 136.5 125.8 L 136.5 127.9 L 135.9 127.9 L 135.9 123.3 " fill="#000000"/>
<path class="atom-17" d="M 151.2 105.8 L 151.8 105.8 L 151.8 107.8 L 154.2 107.8 L 154.2 105.8 L 154.8 105.8 L 154.8 110.5 L 154.2 110.5 L 154.2 108.3 L 151.8 108.3 L 151.8 110.5 L 151.2 110.5 L 151.2 105.8 " fill="#000000"/>
<path class="atom-18" d="M 97.6 126.0 L 98.2 126.0 L 98.2 127.9 L 100.6 127.9 L 100.6 126.0 L 101.2 126.0 L 101.2 130.6 L 100.6 130.6 L 100.6 128.5 L 98.2 128.5 L 98.2 130.6 L 97.6 130.6 L 97.6 126.0 " fill="#000000"/>
<path class="atom-22" d="M 92.2 165.1 L 92.8 165.1 L 92.8 167.1 L 95.2 167.1 L 95.2 165.1 L 95.8 165.1 L 95.8 169.7 L 95.2 169.7 L 95.2 167.6 L 92.8 167.6 L 92.8 169.7 L 92.2 169.7 L 92.2 165.1 " fill="#000000"/>
<path class="atom-23" d="M 65.2 142.2 L 65.9 142.2 L 65.9 144.2 L 68.2 144.2 L 68.2 142.2 L 68.9 142.2 L 68.9 146.9 L 68.2 146.9 L 68.2 144.7 L 65.9 144.7 L 65.9 146.9 L 65.2 146.9 L 65.2 142.2 " fill="#000000"/>
<path class="atom-24" d="M 86.3 127.1 L 86.9 127.1 L 86.9 129.1 L 89.3 129.1 L 89.3 127.1 L 89.9 127.1 L 89.9 131.8 L 89.3 131.8 L 89.3 129.6 L 86.9 129.6 L 86.9 131.8 L 86.3 131.8 L 86.3 127.1 " fill="#000000"/>
<path class="atom-25" d="M 64.8 124.2 L 65.4 124.2 L 65.4 126.2 L 67.8 126.2 L 67.8 124.2 L 68.4 124.2 L 68.4 128.9 L 67.8 128.9 L 67.8 126.7 L 65.4 126.7 L 65.4 128.9 L 64.8 128.9 L 64.8 124.2 " fill="#000000"/>
<path class="atom-26" d="M 63.1 153.3 L 63.7 153.3 L 63.7 155.3 L 66.1 155.3 L 66.1 153.3 L 66.7 153.3 L 66.7 157.9 L 66.1 157.9 L 66.1 155.8 L 63.7 155.8 L 63.7 157.9 L 63.1 157.9 L 63.1 153.3 " fill="#000000"/>
<path class="atom-27" d="M 78.5 174.2 L 79.2 174.2 L 79.2 176.2 L 81.5 176.2 L 81.5 174.2 L 82.2 174.2 L 82.2 178.9 L 81.5 178.9 L 81.5 176.7 L 79.2 176.7 L 79.2 178.9 L 78.5 178.9 L 78.5 174.2 " fill="#000000"/>
<path class="atom-28" d="M 55.8 169.7 L 56.4 169.7 L 56.4 171.7 L 58.8 171.7 L 58.8 169.7 L 59.4 169.7 L 59.4 174.4 L 58.8 174.4 L 58.8 172.2 L 56.4 172.2 L 56.4 174.4 L 55.8 174.4 L 55.8 169.7 " fill="#000000"/>
<path class="atom-29" d="M 183.6 171.7 Q 183.6 170.6, 184.1 170.0 Q 184.7 169.4, 185.7 169.4 Q 186.7 169.4, 187.3 170.0 Q 187.8 170.6, 187.8 171.7 Q 187.8 172.8, 187.3 173.5 Q 186.7 174.1, 185.7 174.1 Q 184.7 174.1, 184.1 173.5 Q 183.6 172.9, 183.6 171.7 M 185.7 173.6 Q 186.4 173.6, 186.8 173.1 Q 187.2 172.6, 187.2 171.7 Q 187.2 170.8, 186.8 170.3 Q 186.4 169.9, 185.7 169.9 Q 185.0 169.9, 184.6 170.3 Q 184.2 170.8, 184.2 171.7 Q 184.2 172.7, 184.6 173.1 Q 185.0 173.6, 185.7 173.6 " fill="#FF0000"/>
<path class="atom-36" d="M 238.8 132.8 L 241.6 132.8 L 241.6 133.4 L 239.5 133.4 L 239.5 134.8 L 241.4 134.8 L 241.4 135.3 L 239.5 135.3 L 239.5 137.5 L 238.8 137.5 L 238.8 132.8 " fill="#33CCCC"/>
<path class="atom-37" d="M 240.6 165.6 L 241.2 165.6 L 241.2 167.6 L 243.6 167.6 L 243.6 165.6 L 244.2 165.6 L 244.2 170.2 L 243.6 170.2 L 243.6 168.1 L 241.2 168.1 L 241.2 170.2 L 240.6 170.2 L 240.6 165.6 " fill="#000000"/>
<path class="atom-38" d="M 213.8 183.8 L 216.5 183.8 L 216.5 184.4 L 214.4 184.4 L 214.4 185.8 L 216.3 185.8 L 216.3 186.3 L 214.4 186.3 L 214.4 188.5 L 213.8 188.5 L 213.8 183.8 " fill="#33CCCC"/>
<path class="atom-39" d="M 187.4 138.0 L 188.0 138.0 L 188.0 140.0 L 190.4 140.0 L 190.4 138.0 L 191.1 138.0 L 191.1 142.6 L 190.4 142.6 L 190.4 140.5 L 188.0 140.5 L 188.0 142.6 L 187.4 142.6 L 187.4 138.0 " fill="#000000"/>
<path class="atom-40" d="M 209.0 118.4 L 209.6 118.4 L 209.6 120.4 L 212.0 120.4 L 212.0 118.4 L 212.6 118.4 L 212.6 123.0 L 212.0 123.0 L 212.0 120.9 L 209.6 120.9 L 209.6 123.0 L 209.0 123.0 L 209.0 118.4 " fill="#000000"/>
<path class="bond-0 atom-0 atom-1" d="M 407.6,133.9 L 407.2,150.3" style="fill:none;fill-rule:evenodd;stroke:#000000;stroke-width:2.0px;stroke-linecap:butt;stroke-linejoin:miter;stroke-opacity:1"/>
<path class="bond-1 atom-0 atom-7" d="M 407.6,133.9 L 422.0,126.1" style="fill:none;fill-rule:evenodd;stroke:#000000;stroke-width:2.0px;stroke-linecap:butt;stroke-linejoin:miter;stroke-opacity:1"/>
<path class="bond-1 atom-0 atom-7" d="M 411.3,135.6 L 421.4,130.1" style="fill:none;fill-rule:evenodd;stroke:#000000;stroke-width:2.0px;stroke-linecap:butt;stroke-linejoin:miter;stroke-opacity:1"/>
<path class="bond-2 atom-0 atom-34" d="M 407.6,133.9 L 401.9,130.5" style="fill:none;fill-rule:evenodd;stroke:#000000;stroke-width:2.0px;stroke-linecap:butt;stroke-linejoin:miter;stroke-opacity:1"/>
<path class="bond-2 atom-0 atom-34" d="M 401.9,130.5 L 396.2,127.0" style="fill:none;fill-rule:evenodd;stroke:#FF0000;stroke-width:2.0px;stroke-linecap:butt;stroke-linejoin:miter;stroke-opacity:1"/>
<path class="bond-3 atom-1 atom-2" d="M 408.2,151.7 L 405.1,153.8" style="fill:none;fill-rule:evenodd;stroke:#000000;stroke-width:2.0px;stroke-linecap:butt;stroke-linejoin:miter;stroke-opacity:1"/>
<path class="bond-3 atom-1 atom-2" d="M 405.1,153.8 L 402.1,156.0" style="fill:none;fill-rule:evenodd;stroke:#FF0000;stroke-width:2.0px;stroke-linecap:butt;stroke-linejoin:miter;stroke-opacity:1"/>
<path class="bond-3 atom-1 atom-2" d="M 406.2,149.0 L 403.2,151.2" style="fill:none;fill-rule:evenodd;stroke:#000000;stroke-width:2.0px;stroke-linecap:butt;stroke-linejoin:miter;stroke-opacity:1"/>
<path class="bond-3 atom-1 atom-2" d="M 403.2,151.2 L 400.2,153.4" style="fill:none;fill-rule:evenodd;stroke:#FF0000;stroke-width:2.0px;stroke-linecap:butt;stroke-linejoin:miter;stroke-opacity:1"/>
<path class="bond-4 atom-1 atom-3" d="M 407.2,150.3 L 413.1,153.9" style="fill:none;fill-rule:evenodd;stroke:#000000;stroke-width:2.0px;stroke-linecap:butt;stroke-linejoin:miter;stroke-opacity:1"/>
<path class="bond-4 atom-1 atom-3" d="M 413.1,153.9 L 418.9,157.5" style="fill:none;fill-rule:evenodd;stroke:#0000FF;stroke-width:2.0px;stroke-linecap:butt;stroke-linejoin:miter;stroke-opacity:1"/>
<path class="bond-5 atom-3 atom-4" d="M 421.2,161.7 L 421.0,168.5" style="fill:none;fill-rule:evenodd;stroke:#0000FF;stroke-width:2.0px;stroke-linecap:butt;stroke-linejoin:miter;stroke-opacity:1"/>
<path class="bond-5 atom-3 atom-4" d="M 421.0,168.5 L 420.8,175.3" style="fill:none;fill-rule:evenodd;stroke:#000000;stroke-width:2.0px;stroke-linecap:butt;stroke-linejoin:miter;stroke-opacity:1"/>
<path class="bond-6 atom-3 atom-5" d="M 423.5,157.6 L 429.6,154.3" style="fill:none;fill-rule:evenodd;stroke:#0000FF;stroke-width:2.0px;stroke-linecap:butt;stroke-linejoin:miter;stroke-opacity:1"/>
<path class="bond-6 atom-3 atom-5" d="M 429.6,154.3 L 435.6,151.0" style="fill:none;fill-rule:evenodd;stroke:#000000;stroke-width:2.0px;stroke-linecap:butt;stroke-linejoin:miter;stroke-opacity:1"/>
<path class="bond-7 atom-4 atom-21" d="M 420.8,175.3 L 406.8,174.9" style="fill:none;fill-rule:evenodd;stroke:#000000;stroke-width:2.0px;stroke-linecap:butt;stroke-linejoin:miter;stroke-opacity:1"/>
<path class="bond-8 atom-4 atom-22" d="M 420.8,175.3 L 434.9,175.6" style="fill:none;fill-rule:evenodd;stroke:#000000;stroke-width:2.0px;stroke-linecap:butt;stroke-linejoin:miter;stroke-opacity:1"/>
<path class="bond-9 atom-4 atom-23" d="M 420.8,175.3 L 420.5,188.8" style="fill:none;fill-rule:evenodd;stroke:#000000;stroke-width:2.0px;stroke-linecap:butt;stroke-linejoin:miter;stroke-opacity:1"/>
<path class="bond-10 atom-5 atom-6" d="M 435.6,151.0 L 441.5,154.6" style="fill:none;fill-rule:evenodd;stroke:#000000;stroke-width:2.0px;stroke-linecap:butt;stroke-linejoin:miter;stroke-opacity:1"/>
<path class="bond-10 atom-5 atom-6" d="M 441.5,154.6 L 447.3,158.1" style="fill:none;fill-rule:evenodd;stroke:#0000FF;stroke-width:2.0px;stroke-linecap:butt;stroke-linejoin:miter;stroke-opacity:1"/>
<path class="bond-10 atom-5 atom-6" d="M 439.1,149.3 L 443.2,151.8" style="fill:none;fill-rule:evenodd;stroke:#000000;stroke-width:2.0px;stroke-linecap:butt;stroke-linejoin:miter;stroke-opacity:1"/>
<path class="bond-10 atom-5 atom-6" d="M 443.2,151.8 L 447.3,154.3" style="fill:none;fill-rule:evenodd;stroke:#0000FF;stroke-width:2.0px;stroke-linecap:butt;stroke-linejoin:miter;stroke-opacity:1"/>
<path class="bond-11 atom-5 atom-8" d="M 435.6,151.0 L 436.0,134.6" style="fill:none;fill-rule:evenodd;stroke:#000000;stroke-width:2.0px;stroke-linecap:butt;stroke-linejoin:miter;stroke-opacity:1"/>
<path class="bond-12 atom-6 atom-11" d="M 451.9,158.3 L 458.0,155.0" style="fill:none;fill-rule:evenodd;stroke:#0000FF;stroke-width:2.0px;stroke-linecap:butt;stroke-linejoin:miter;stroke-opacity:1"/>
<path class="bond-12 atom-6 atom-11" d="M 458.0,155.0 L 464.0,151.6" style="fill:none;fill-rule:evenodd;stroke:#000000;stroke-width:2.0px;stroke-linecap:butt;stroke-linejoin:miter;stroke-opacity:1"/>
<path class="bond-13 atom-7 atom-8" d="M 422.0,126.1 L 436.0,134.6" style="fill:none;fill-rule:evenodd;stroke:#000000;stroke-width:2.0px;stroke-linecap:butt;stroke-linejoin:miter;stroke-opacity:1"/>
<path class="bond-14 atom-7 atom-24" d="M 422.0,126.1 L 422.3,112.5" style="fill:none;fill-rule:evenodd;stroke:#000000;stroke-width:2.0px;stroke-linecap:butt;stroke-linejoin:miter;stroke-opacity:1"/>
<path class="bond-15 atom-8 atom-9" d="M 436.0,134.6 L 450.4,126.7" style="fill:none;fill-rule:evenodd;stroke:#000000;stroke-width:2.0px;stroke-linecap:butt;stroke-linejoin:miter;stroke-opacity:1"/>
<path class="bond-15 atom-8 atom-9" d="M 439.7,136.3 L 449.8,130.8" style="fill:none;fill-rule:evenodd;stroke:#000000;stroke-width:2.0px;stroke-linecap:butt;stroke-linejoin:miter;stroke-opacity:1"/>
<path class="bond-16 atom-9 atom-10" d="M 450.4,126.7 L 456.2,130.3" style="fill:none;fill-rule:evenodd;stroke:#000000;stroke-width:2.0px;stroke-linecap:butt;stroke-linejoin:miter;stroke-opacity:1"/>
<path class="bond-16 atom-9 atom-10" d="M 456.2,130.3 L 462.1,133.9" style="fill:none;fill-rule:evenodd;stroke:#0000FF;stroke-width:2.0px;stroke-linecap:butt;stroke-linejoin:miter;stroke-opacity:1"/>
<path class="bond-17 atom-9 atom-25" d="M 450.4,126.7 L 450.7,113.2" style="fill:none;fill-rule:evenodd;stroke:#000000;stroke-width:2.0px;stroke-linecap:butt;stroke-linejoin:miter;stroke-opacity:1"/>
<path class="bond-18 atom-10 atom-11" d="M 464.3,138.1 L 464.2,144.9" style="fill:none;fill-rule:evenodd;stroke:#0000FF;stroke-width:2.0px;stroke-linecap:butt;stroke-linejoin:miter;stroke-opacity:1"/>
<path class="bond-18 atom-10 atom-11" d="M 464.2,144.9 L 464.0,151.6" style="fill:none;fill-rule:evenodd;stroke:#000000;stroke-width:2.0px;stroke-linecap:butt;stroke-linejoin:miter;stroke-opacity:1"/>
<path class="bond-18 atom-10 atom-11" d="M 461.0,140.0 L 460.9,144.8" style="fill:none;fill-rule:evenodd;stroke:#0000FF;stroke-width:2.0px;stroke-linecap:butt;stroke-linejoin:miter;stroke-opacity:1"/>
<path class="bond-18 atom-10 atom-11" d="M 460.9,144.8 L 460.8,149.5" style="fill:none;fill-rule:evenodd;stroke:#000000;stroke-width:2.0px;stroke-linecap:butt;stroke-linejoin:miter;stroke-opacity:1"/>
<path class="bond-19 atom-11 atom-12" d="M 464.0,151.6 L 469.9,155.2" style="fill:none;fill-rule:evenodd;stroke:#000000;stroke-width:2.0px;stroke-linecap:butt;stroke-linejoin:miter;stroke-opacity:1"/>
<path class="bond-19 atom-11 atom-12" d="M 469.9,155.2 L 475.7,158.8" style="fill:none;fill-rule:evenodd;stroke:#0000FF;stroke-width:2.0px;stroke-linecap:butt;stroke-linejoin:miter;stroke-opacity:1"/>
<path class="bond-20 atom-12 atom-13" d="M 480.3,158.9 L 486.4,155.6" style="fill:none;fill-rule:evenodd;stroke:#0000FF;stroke-width:2.0px;stroke-linecap:butt;stroke-linejoin:miter;stroke-opacity:1"/>
<path class="bond-20 atom-12 atom-13" d="M 486.4,155.6 L 492.4,152.3" style="fill:none;fill-rule:evenodd;stroke:#000000;stroke-width:2.0px;stroke-linecap:butt;stroke-linejoin:miter;stroke-opacity:1"/>
<path class="bond-21 atom-12 atom-26" d="M 477.6,163.0 L 476.8,168.3" style="fill:none;fill-rule:evenodd;stroke:#0000FF;stroke-width:2.0px;stroke-linecap:butt;stroke-linejoin:miter;stroke-opacity:1"/>
<path class="bond-21 atom-12 atom-26" d="M 476.8,168.3 L 476.1,173.6" style="fill:none;fill-rule:evenodd;stroke:#000000;stroke-width:2.0px;stroke-linecap:butt;stroke-linejoin:miter;stroke-opacity:1"/>
<path class="bond-22 atom-13 atom-14" d="M 492.4,152.3 L 500.3,166.7" style="fill:none;fill-rule:evenodd;stroke:#000000;stroke-width:2.0px;stroke-linecap:butt;stroke-linejoin:miter;stroke-opacity:1"/>
<path class="bond-23 atom-13 atom-15" d="M 492.4,152.3 L 506.8,144.4" style="fill:none;fill-rule:evenodd;stroke:#000000;stroke-width:2.0px;stroke-linecap:butt;stroke-linejoin:miter;stroke-opacity:1"/>
<path class="bond-24 atom-13 atom-27" d="M 490.9,148.4 L 490.0,148.9" style="fill:none;fill-rule:evenodd;stroke:#000000;stroke-width:1.0px;stroke-linecap:butt;stroke-linejoin:miter;stroke-opacity:1"/>
<path class="bond-24 atom-13 atom-27" d="M 489.3,144.4 L 487.5,145.5" style="fill:none;fill-rule:evenodd;stroke:#000000;stroke-width:1.0px;stroke-linecap:butt;stroke-linejoin:miter;stroke-opacity:1"/>
<path class="bond-24 atom-13 atom-27" d="M 487.8,140.5 L 485.0,142.0" style="fill:none;fill-rule:evenodd;stroke:#000000;stroke-width:1.0px;stroke-linecap:butt;stroke-linejoin:miter;stroke-opacity:1"/>
<path class="bond-25 atom-14 atom-28" d="M 500.3,166.7 L 507.0,164.0" style="fill:none;fill-rule:evenodd;stroke:#000000;stroke-width:2.0px;stroke-linecap:butt;stroke-linejoin:miter;stroke-opacity:1"/>
<path class="bond-26 atom-14 atom-29" d="M 500.3,166.7 L 489.3,174.6" style="fill:none;fill-rule:evenodd;stroke:#000000;stroke-width:2.0px;stroke-linecap:butt;stroke-linejoin:miter;stroke-opacity:1"/>
<path class="bond-27 atom-14 atom-30" d="M 500.3,166.7 L 506.6,178.2" style="fill:none;fill-rule:evenodd;stroke:#000000;stroke-width:2.0px;stroke-linecap:butt;stroke-linejoin:miter;stroke-opacity:1"/>
<path class="bond-28 atom-15 atom-16" d="M 506.8,144.4 L 512.9,141.1" style="fill:none;fill-rule:evenodd;stroke:#000000;stroke-width:2.0px;stroke-linecap:butt;stroke-linejoin:miter;stroke-opacity:1"/>
<path class="bond-28 atom-15 atom-16" d="M 512.9,141.1 L 518.9,137.8" style="fill:none;fill-rule:evenodd;stroke:#0000FF;stroke-width:2.0px;stroke-linecap:butt;stroke-linejoin:miter;stroke-opacity:1"/>
<path class="bond-29 atom-15 atom-31" d="M 506.8,144.4 L 500.5,132.9" style="fill:none;fill-rule:evenodd;stroke:#000000;stroke-width:2.0px;stroke-linecap:butt;stroke-linejoin:miter;stroke-opacity:1"/>
<path class="bond-30 atom-15 atom-32" d="M 506.8,144.4 L 510.4,149.5" style="fill:none;fill-rule:evenodd;stroke:#000000;stroke-width:2.0px;stroke-linecap:butt;stroke-linejoin:miter;stroke-opacity:1"/>
<path class="bond-31 atom-16 atom-17" d="M 523.5,137.6 L 533.8,142.5" style="fill:none;fill-rule:evenodd;stroke:#0000FF;stroke-width:2.0px;stroke-linecap:butt;stroke-linejoin:miter;stroke-opacity:1"/>
<path class="bond-32 atom-16 atom-20" d="M 521.6,133.7 L 522.9,123.1" style="fill:none;fill-rule:evenodd;stroke:#0000FF;stroke-width:2.0px;stroke-linecap:butt;stroke-linejoin:miter;stroke-opacity:1"/>
<path class="bond-33 atom-17 atom-18" d="M 538.3,141.2 L 542.8,136.4" style="fill:none;fill-rule:evenodd;stroke:#0000FF;stroke-width:2.0px;stroke-linecap:butt;stroke-linejoin:miter;stroke-opacity:1"/>
<path class="bond-33 atom-17 atom-18" d="M 542.8,136.4 L 547.3,131.6" style="fill:none;fill-rule:evenodd;stroke:#000000;stroke-width:2.0px;stroke-linecap:butt;stroke-linejoin:miter;stroke-opacity:1"/>
<path class="bond-33 atom-17 atom-18" d="M 537.3,137.5 L 540.4,134.1" style="fill:none;fill-rule:evenodd;stroke:#0000FF;stroke-width:2.0px;stroke-linecap:butt;stroke-linejoin:miter;stroke-opacity:1"/>
<path class="bond-33 atom-17 atom-18" d="M 540.4,134.1 L 543.6,130.8" style="fill:none;fill-rule:evenodd;stroke:#000000;stroke-width:2.0px;stroke-linecap:butt;stroke-linejoin:miter;stroke-opacity:1"/>
<path class="bond-34 atom-18 atom-19" d="M 547.3,131.6 L 544.1,125.9" style="fill:none;fill-rule:evenodd;stroke:#000000;stroke-width:2.0px;stroke-linecap:butt;stroke-linejoin:miter;stroke-opacity:1"/>
<path class="bond-34 atom-18 atom-19" d="M 544.1,125.9 L 541.0,120.1" style="fill:none;fill-rule:evenodd;stroke:#0000FF;stroke-width:2.0px;stroke-linecap:butt;stroke-linejoin:miter;stroke-opacity:1"/>
<path class="bond-35 atom-18 atom-33" d="M 547.3,131.6 L 561.2,133.4" style="fill:none;fill-rule:evenodd;stroke:#000000;stroke-width:2.0px;stroke-linecap:butt;stroke-linejoin:miter;stroke-opacity:1"/>
<path class="bond-36 atom-19 atom-20" d="M 537.1,117.7 L 525.6,119.9" style="fill:none;fill-rule:evenodd;stroke:#0000FF;stroke-width:2.0px;stroke-linecap:butt;stroke-linejoin:miter;stroke-opacity:1"/>
<path class="bond-36 atom-19 atom-20" d="M 536.0,121.2 L 527.9,122.8" style="fill:none;fill-rule:evenodd;stroke:#0000FF;stroke-width:2.0px;stroke-linecap:butt;stroke-linejoin:miter;stroke-opacity:1"/>
<path class="bond-37 atom-34 atom-38" d="M 390.9,126.9 L 385.0,130.1" style="fill:none;fill-rule:evenodd;stroke:#FF0000;stroke-width:2.0px;stroke-linecap:butt;stroke-linejoin:miter;stroke-opacity:1"/>
<path class="bond-37 atom-34 atom-38" d="M 385.0,130.1 L 379.2,133.3" style="fill:none;fill-rule:evenodd;stroke:#000000;stroke-width:2.0px;stroke-linecap:butt;stroke-linejoin:miter;stroke-opacity:1"/>
<path class="bond-38 atom-35 atom-36" d="M 350.4,149.0 L 350.8,132.6" style="fill:none;fill-rule:evenodd;stroke:#000000;stroke-width:2.0px;stroke-linecap:butt;stroke-linejoin:miter;stroke-opacity:1"/>
<path class="bond-38 atom-35 atom-36" d="M 353.7,146.6 L 354.0,135.1" style="fill:none;fill-rule:evenodd;stroke:#000000;stroke-width:2.0px;stroke-linecap:butt;stroke-linejoin:miter;stroke-opacity:1"/>
<path class="bond-39 atom-35 atom-40" d="M 350.4,149.0 L 364.4,157.5" style="fill:none;fill-rule:evenodd;stroke:#000000;stroke-width:2.0px;stroke-linecap:butt;stroke-linejoin:miter;stroke-opacity:1"/>
<path class="bond-40 atom-35 atom-41" d="M 350.4,149.0 L 344.1,152.4" style="fill:none;fill-rule:evenodd;stroke:#000000;stroke-width:2.0px;stroke-linecap:butt;stroke-linejoin:miter;stroke-opacity:1"/>
<path class="bond-40 atom-35 atom-41" d="M 344.1,152.4 L 337.9,155.8" style="fill:none;fill-rule:evenodd;stroke:#33CCCC;stroke-width:2.0px;stroke-linecap:butt;stroke-linejoin:miter;stroke-opacity:1"/>
<path class="bond-41 atom-36 atom-37" d="M 350.8,132.6 L 365.2,124.7" style="fill:none;fill-rule:evenodd;stroke:#000000;stroke-width:2.0px;stroke-linecap:butt;stroke-linejoin:miter;stroke-opacity:1"/>
<path class="bond-42 atom-36 atom-42" d="M 350.8,132.6 L 339.1,125.5" style="fill:none;fill-rule:evenodd;stroke:#000000;stroke-width:2.0px;stroke-linecap:butt;stroke-linejoin:miter;stroke-opacity:1"/>
<path class="bond-43 atom-37 atom-38" d="M 365.2,124.7 L 379.2,133.3" style="fill:none;fill-rule:evenodd;stroke:#000000;stroke-width:2.0px;stroke-linecap:butt;stroke-linejoin:miter;stroke-opacity:1"/>
<path class="bond-43 atom-37 atom-38" d="M 365.6,128.8 L 375.4,134.8" style="fill:none;fill-rule:evenodd;stroke:#000000;stroke-width:2.0px;stroke-linecap:butt;stroke-linejoin:miter;stroke-opacity:1"/>
<path class="bond-44 atom-37 atom-43" d="M 365.2,124.7 L 365.3,118.0" style="fill:none;fill-rule:evenodd;stroke:#000000;stroke-width:2.0px;stroke-linecap:butt;stroke-linejoin:miter;stroke-opacity:1"/>
<path class="bond-44 atom-37 atom-43" d="M 365.3,118.0 L 365.5,111.2" style="fill:none;fill-rule:evenodd;stroke:#33CCCC;stroke-width:2.0px;stroke-linecap:butt;stroke-linejoin:miter;stroke-opacity:1"/>
<path class="bond-45 atom-38 atom-39" d="M 379.2,133.3 L 378.8,149.7" style="fill:none;fill-rule:evenodd;stroke:#000000;stroke-width:2.0px;stroke-linecap:butt;stroke-linejoin:miter;stroke-opacity:1"/>
<path class="bond-46 atom-39 atom-40" d="M 378.8,149.7 L 364.4,157.5" style="fill:none;fill-rule:evenodd;stroke:#000000;stroke-width:2.0px;stroke-linecap:butt;stroke-linejoin:miter;stroke-opacity:1"/>
<path class="bond-46 atom-39 atom-40" d="M 375.1,148.0 L 365.0,153.5" style="fill:none;fill-rule:evenodd;stroke:#000000;stroke-width:2.0px;stroke-linecap:butt;stroke-linejoin:miter;stroke-opacity:1"/>
<path class="bond-47 atom-39 atom-44" d="M 378.8,149.7 L 384.9,154.5" style="fill:none;fill-rule:evenodd;stroke:#000000;stroke-width:2.0px;stroke-linecap:butt;stroke-linejoin:miter;stroke-opacity:1"/>
<path class="bond-48 atom-40 atom-45" d="M 364.4,157.5 L 364.1,171.1" style="fill:none;fill-rule:evenodd;stroke:#000000;stroke-width:2.0px;stroke-linecap:butt;stroke-linejoin:miter;stroke-opacity:1"/>
<path class="atom-2" d="M 396.3 156.6 Q 396.3 155.5, 396.9 154.9 Q 397.4 154.3, 398.5 154.3 Q 399.5 154.3, 400.0 154.9 Q 400.6 155.5, 400.6 156.6 Q 400.6 157.7, 400.0 158.4 Q 399.5 159.0, 398.5 159.0 Q 397.4 159.0, 396.9 158.4 Q 396.3 157.8, 396.3 156.6 M 398.5 158.5 Q 399.2 158.5, 399.5 158.0 Q 399.9 157.6, 399.9 156.6 Q 399.9 155.7, 399.5 155.2 Q 399.2 154.8, 398.5 154.8 Q 397.8 154.8, 397.4 155.2 Q 397.0 155.7, 397.0 156.6 Q 397.0 157.6, 397.4 158.0 Q 397.8 158.5, 398.5 158.5 " fill="#FF0000"/>
<path class="atom-3" d="M 420.2 156.5 L 421.7 159.0 Q 421.9 159.2, 422.1 159.7 Q 422.3 160.1, 422.4 160.1 L 422.4 156.5 L 423.0 156.5 L 423.0 161.2 L 422.3 161.2 L 420.7 158.5 Q 420.5 158.2, 420.3 157.8 Q 420.1 157.5, 420.1 157.3 L 420.1 161.2 L 419.5 161.2 L 419.5 156.5 L 420.2 156.5 " fill="#0000FF"/>
<path class="atom-6" d="M 448.6 157.2 L 450.1 159.7 Q 450.3 159.9, 450.5 160.3 Q 450.8 160.8, 450.8 160.8 L 450.8 157.2 L 451.4 157.2 L 451.4 161.8 L 450.7 161.8 L 449.1 159.1 Q 448.9 158.8, 448.7 158.5 Q 448.5 158.1, 448.5 158.0 L 448.5 161.8 L 447.9 161.8 L 447.9 157.2 L 448.6 157.2 " fill="#0000FF"/>
<path class="atom-10" d="M 463.4 132.9 L 464.9 135.4 Q 465.0 135.6, 465.3 136.1 Q 465.5 136.5, 465.5 136.5 L 465.5 132.9 L 466.2 132.9 L 466.2 137.6 L 465.5 137.6 L 463.9 134.9 Q 463.7 134.6, 463.5 134.2 Q 463.3 133.8, 463.2 133.7 L 463.2 137.6 L 462.6 137.6 L 462.6 132.9 L 463.4 132.9 " fill="#0000FF"/>
<path class="atom-12" d="M 477.0 157.9 L 478.5 160.3 Q 478.7 160.6, 478.9 161.0 Q 479.2 161.4, 479.2 161.5 L 479.2 157.9 L 479.8 157.9 L 479.8 162.5 L 479.2 162.5 L 477.5 159.8 Q 477.3 159.5, 477.1 159.1 Q 476.9 158.8, 476.9 158.7 L 476.9 162.5 L 476.3 162.5 L 476.3 157.9 L 477.0 157.9 " fill="#0000FF"/>
<path class="atom-16" d="M 520.2 134.2 L 521.7 136.7 Q 521.9 136.9, 522.1 137.4 Q 522.3 137.8, 522.4 137.8 L 522.4 134.2 L 523.0 134.2 L 523.0 138.9 L 522.3 138.9 L 520.7 136.2 Q 520.5 135.9, 520.3 135.5 Q 520.1 135.2, 520.1 135.0 L 520.1 138.9 L 519.4 138.9 L 519.4 134.2 L 520.2 134.2 " fill="#0000FF"/>
<path class="atom-17" d="M 535.0 141.3 L 536.5 143.7 Q 536.7 144.0, 536.9 144.4 Q 537.2 144.8, 537.2 144.9 L 537.2 141.3 L 537.8 141.3 L 537.8 145.9 L 537.2 145.9 L 535.5 143.2 Q 535.3 142.9, 535.1 142.5 Q 534.9 142.2, 534.9 142.1 L 534.9 145.9 L 534.3 145.9 L 534.3 141.3 L 535.0 141.3 " fill="#0000FF"/>
<path class="atom-19" d="M 538.4 114.9 L 539.9 117.4 Q 540.1 117.6, 540.3 118.1 Q 540.6 118.5, 540.6 118.5 L 540.6 114.9 L 541.2 114.9 L 541.2 119.6 L 540.5 119.6 L 538.9 116.9 Q 538.7 116.6, 538.5 116.2 Q 538.3 115.8, 538.3 115.7 L 538.3 119.6 L 537.7 119.6 L 537.7 114.9 L 538.4 114.9 " fill="#0000FF"/>
<path class="atom-20" d="M 522.3 118.0 L 523.8 120.4 Q 523.9 120.7, 524.2 121.1 Q 524.4 121.5, 524.4 121.6 L 524.4 118.0 L 525.1 118.0 L 525.1 122.6 L 524.4 122.6 L 522.8 119.9 Q 522.6 119.6, 522.4 119.2 Q 522.2 118.9, 522.1 118.8 L 522.1 122.6 L 521.5 122.6 L 521.5 118.0 L 522.3 118.0 " fill="#0000FF"/>
<path class="atom-21" d="M 402.6 172.6 L 403.2 172.6 L 403.2 174.5 L 405.6 174.5 L 405.6 172.6 L 406.3 172.6 L 406.3 177.2 L 405.6 177.2 L 405.6 175.1 L 403.2 175.1 L 403.2 177.2 L 402.6 177.2 L 402.6 172.6 " fill="#000000"/>
<path class="atom-22" d="M 435.4 173.3 L 436.1 173.3 L 436.1 175.3 L 438.4 175.3 L 438.4 173.3 L 439.1 173.3 L 439.1 178.0 L 438.4 178.0 L 438.4 175.8 L 436.1 175.8 L 436.1 178.0 L 435.4 178.0 L 435.4 173.3 " fill="#000000"/>
<path class="atom-23" d="M 418.6 189.3 L 419.3 189.3 L 419.3 191.3 L 421.6 191.3 L 421.6 189.3 L 422.3 189.3 L 422.3 194.0 L 421.6 194.0 L 421.6 191.8 L 419.3 191.8 L 419.3 194.0 L 418.6 194.0 L 418.6 189.3 " fill="#000000"/>
<path class="atom-24" d="M 420.5 107.3 L 421.2 107.3 L 421.2 109.3 L 423.5 109.3 L 423.5 107.3 L 424.2 107.3 L 424.2 112.0 L 423.5 112.0 L 423.5 109.8 L 421.2 109.8 L 421.2 112.0 L 420.5 112.0 L 420.5 107.3 " fill="#000000"/>
<path class="atom-25" d="M 448.9 108.0 L 449.6 108.0 L 449.6 110.0 L 452.0 110.0 L 452.0 108.0 L 452.6 108.0 L 452.6 112.6 L 452.0 112.6 L 452.0 110.5 L 449.6 110.5 L 449.6 112.6 L 448.9 112.6 L 448.9 108.0 " fill="#000000"/>
<path class="atom-26" d="M 473.8 174.1 L 474.5 174.1 L 474.5 176.1 L 476.8 176.1 L 476.8 174.1 L 477.5 174.1 L 477.5 178.7 L 476.8 178.7 L 476.8 176.6 L 474.5 176.6 L 474.5 178.7 L 473.8 178.7 L 473.8 174.1 " fill="#000000"/>
<path class="atom-27" d="M 482.7 135.6 L 483.4 135.6 L 483.4 137.6 L 485.7 137.6 L 485.7 135.6 L 486.4 135.6 L 486.4 140.2 L 485.7 140.2 L 485.7 138.1 L 483.4 138.1 L 483.4 140.2 L 482.7 140.2 L 482.7 135.6 " fill="#000000"/>
<path class="atom-28" d="M 507.5 160.8 L 508.1 160.8 L 508.1 162.8 L 510.5 162.8 L 510.5 160.8 L 511.1 160.8 L 511.1 165.4 L 510.5 165.4 L 510.5 163.3 L 508.1 163.3 L 508.1 165.4 L 507.5 165.4 L 507.5 160.8 " fill="#000000"/>
<path class="atom-29" d="M 485.2 173.9 L 485.8 173.9 L 485.8 175.9 L 488.2 175.9 L 488.2 173.9 L 488.8 173.9 L 488.8 178.6 L 488.2 178.6 L 488.2 176.4 L 485.8 176.4 L 485.8 178.6 L 485.2 178.6 L 485.2 173.9 " fill="#000000"/>
<path class="atom-30" d="M 506.3 178.8 L 507.0 178.8 L 507.0 180.7 L 509.4 180.7 L 509.4 178.8 L 510.0 178.8 L 510.0 183.4 L 509.4 183.4 L 509.4 181.3 L 507.0 181.3 L 507.0 183.4 L 506.3 183.4 L 506.3 178.8 " fill="#000000"/>
<path class="atom-31" d="M 497.1 127.7 L 497.8 127.7 L 497.8 129.7 L 500.1 129.7 L 500.1 127.7 L 500.8 127.7 L 500.8 132.4 L 500.1 132.4 L 500.1 130.2 L 497.8 130.2 L 497.8 132.4 L 497.1 132.4 L 497.1 127.7 " fill="#000000"/>
<path class="atom-32" d="M 510.6 150.0 L 511.3 150.0 L 511.3 152.0 L 513.7 152.0 L 513.7 150.0 L 514.3 150.0 L 514.3 154.6 L 513.7 154.6 L 513.7 152.5 L 511.3 152.5 L 511.3 154.6 L 510.6 154.6 L 510.6 150.0 " fill="#000000"/>
<path class="atom-33" d="M 561.7 131.4 L 562.4 131.4 L 562.4 133.4 L 564.8 133.4 L 564.8 131.4 L 565.4 131.4 L 565.4 136.1 L 564.8 136.1 L 564.8 133.9 L 562.4 133.9 L 562.4 136.1 L 561.7 136.1 L 561.7 131.4 " fill="#000000"/>
<path class="atom-34" d="M 391.4 125.4 Q 391.4 124.3, 392.0 123.7 Q 392.5 123.0, 393.6 123.0 Q 394.6 123.0, 395.2 123.7 Q 395.7 124.3, 395.7 125.4 Q 395.7 126.5, 395.1 127.2 Q 394.6 127.8, 393.6 127.8 Q 392.5 127.8, 392.0 127.2 Q 391.4 126.5, 391.4 125.4 M 393.6 127.3 Q 394.3 127.3, 394.7 126.8 Q 395.0 126.3, 395.0 125.4 Q 395.0 124.5, 394.7 124.0 Q 394.3 123.6, 393.6 123.6 Q 392.9 123.6, 392.5 124.0 Q 392.1 124.5, 392.1 125.4 Q 392.1 126.4, 392.5 126.8 Q 392.9 127.3, 393.6 127.3 " fill="#FF0000"/>
<path class="atom-41" d="M 334.6 154.6 L 337.4 154.6 L 337.4 155.1 L 335.2 155.1 L 335.2 156.5 L 337.1 156.5 L 337.1 157.0 L 335.2 157.0 L 335.2 159.2 L 334.6 159.2 L 334.6 154.6 " fill="#33CCCC"/>
<path class="atom-42" d="M 334.9 121.8 L 335.6 121.8 L 335.6 123.7 L 337.9 123.7 L 337.9 121.8 L 338.6 121.8 L 338.6 126.4 L 337.9 126.4 L 337.9 124.3 L 335.6 124.3 L 335.6 126.4 L 334.9 126.4 L 334.9 121.8 " fill="#000000"/>
<path class="atom-43" d="M 364.2 106.0 L 366.9 106.0 L 366.9 106.5 L 364.8 106.5 L 364.8 108.0 L 366.7 108.0 L 366.7 108.5 L 364.8 108.5 L 364.8 110.7 L 364.2 110.7 L 364.2 106.0 " fill="#33CCCC"/>
<path class="atom-44" d="M 385.4 154.0 L 386.1 154.0 L 386.1 156.0 L 388.4 156.0 L 388.4 154.0 L 389.1 154.0 L 389.1 158.7 L 388.4 158.7 L 388.4 156.5 L 386.1 156.5 L 386.1 158.7 L 385.4 158.7 L 385.4 154.0 " fill="#000000"/>
<path class="atom-45" d="M 362.2 171.6 L 362.8 171.6 L 362.8 173.6 L 365.2 173.6 L 365.2 171.6 L 365.8 171.6 L 365.8 176.3 L 365.2 176.3 L 365.2 174.1 L 362.8 174.1 L 362.8 176.3 L 362.2 176.3 L 362.2 171.6 " fill="#000000"/>
<text x="300" y="20" font-size="20" font-family="sans-serif" font-weight="normal" letter-spacing="0" text-anchor="middle" fill="black">p38: p38a_3fly -&gt; p38a_3fmh</text><text x="300" y="35" font-size="15" font-family="sans-serif" font-weight="normal" letter-spacing="0" text-anchor="middle" fill="black"></text><text x="150" y="285" font-size="15" font-family="sans-serif" font-weight="normal" letter-spacing="0" text-anchor="middle" fill="black">p38a_3fly</text><text x="450" y="285" font-size="15" font-family="sans-serif" font-weight="normal" letter-spacing="0" text-anchor="middle" fill="black">p38a_3fmh</text></svg>
