<?xml version='1.0' encoding='ASCII' standalone='yes'?>
<svg xmlns="http://www.w3.org/2000/svg" xmlns:rdkit="http://www.rdkit.org/xml" xmlns:xlink="http://www.w3.org/1999/xlink" version="1.1" baseProfile="full" xml:space="preserve" width="600px" height="300px" viewBox="0 0 600 300">
<!-- END OF HEADER -->
<rect style="opacity:1.0;fill:#FFFFFF;stroke:none" width="600.0" height="300.0" x="0.0" y="0.0"> </rect>
<path class="bond-0 atom-0 atom-1" d="M 72.9,152.5 L 91.6,160.8" style="fill:none;fill-rule:evenodd;stroke:#000000;stroke-width:2.0px;stroke-linecap:butt;stroke-linejoin:miter;stroke-opacity:1"/>
<path class="bond-0 atom-0 atom-1" d="M 74.1,157.5 L 87.1,163.3" style="fill:none;fill-rule:evenodd;stroke:#000000;stroke-width:2.0px;stroke-linecap:butt;stroke-linejoin:miter;stroke-opacity:1"/>
<path class="bond-1 atom-0 atom-3" d="M 72.9,152.5 L 56.5,164.5" style="fill:none;fill-rule:evenodd;stroke:#000000;stroke-width:2.0px;stroke-linecap:butt;stroke-linejoin:miter;stroke-opacity:1"/>
<path class="bond-2 atom-0 atom-11" d="M 72.9,152.5 L 70.8,132.3" style="fill:none;fill-rule:evenodd;stroke:#000000;stroke-width:2.0px;stroke-linecap:butt;stroke-linejoin:miter;stroke-opacity:1"/>
<path class="bond-3 atom-1 atom-5" d="M 91.6,160.8 L 93.7,181.0" style="fill:none;fill-rule:evenodd;stroke:#000000;stroke-width:2.0px;stroke-linecap:butt;stroke-linejoin:miter;stroke-opacity:1"/>
<path class="bond-4 atom-1 atom-30" d="M 91.6,160.8 L 105.1,150.9" style="fill:none;fill-rule:evenodd;stroke:#000000;stroke-width:2.0px;stroke-linecap:butt;stroke-linejoin:miter;stroke-opacity:1"/>
<path class="bond-5 atom-2 atom-3" d="M 58.6,184.8 L 56.5,164.5" style="fill:none;fill-rule:evenodd;stroke:#000000;stroke-width:2.0px;stroke-linecap:butt;stroke-linejoin:miter;stroke-opacity:1"/>
<path class="bond-5 atom-2 atom-3" d="M 62.4,181.3 L 60.8,167.2" style="fill:none;fill-rule:evenodd;stroke:#000000;stroke-width:2.0px;stroke-linecap:butt;stroke-linejoin:miter;stroke-opacity:1"/>
<path class="bond-6 atom-2 atom-4" d="M 58.6,184.8 L 77.3,193.1" style="fill:none;fill-rule:evenodd;stroke:#000000;stroke-width:2.0px;stroke-linecap:butt;stroke-linejoin:miter;stroke-opacity:1"/>
<path class="bond-7 atom-2 atom-31" d="M 58.6,184.8 L 45.1,194.7" style="fill:none;fill-rule:evenodd;stroke:#000000;stroke-width:2.0px;stroke-linecap:butt;stroke-linejoin:miter;stroke-opacity:1"/>
<path class="bond-8 atom-3 atom-32" d="M 56.5,164.5 L 40.8,157.6" style="fill:none;fill-rule:evenodd;stroke:#000000;stroke-width:2.0px;stroke-linecap:butt;stroke-linejoin:miter;stroke-opacity:1"/>
<path class="bond-9 atom-4 atom-5" d="M 77.3,193.1 L 93.7,181.0" style="fill:none;fill-rule:evenodd;stroke:#000000;stroke-width:2.0px;stroke-linecap:butt;stroke-linejoin:miter;stroke-opacity:1"/>
<path class="bond-9 atom-4 atom-5" d="M 77.3,188.0 L 88.9,179.6" style="fill:none;fill-rule:evenodd;stroke:#000000;stroke-width:2.0px;stroke-linecap:butt;stroke-linejoin:miter;stroke-opacity:1"/>
<path class="bond-10 atom-4 atom-8" d="M 77.3,193.1 L 79.9,201.0" style="fill:none;fill-rule:evenodd;stroke:#000000;stroke-width:2.0px;stroke-linecap:butt;stroke-linejoin:miter;stroke-opacity:1"/>
<path class="bond-10 atom-4 atom-8" d="M 79.9,201.0 L 82.4,208.9" style="fill:none;fill-rule:evenodd;stroke:#0000FF;stroke-width:2.0px;stroke-linecap:butt;stroke-linejoin:miter;stroke-opacity:1"/>
<path class="bond-11 atom-5 atom-6" d="M 93.7,181.0 L 110.2,193.0" style="fill:none;fill-rule:evenodd;stroke:#000000;stroke-width:2.0px;stroke-linecap:butt;stroke-linejoin:miter;stroke-opacity:1"/>
<path class="bond-12 atom-6 atom-7" d="M 110.2,193.0 L 107.7,200.9" style="fill:none;fill-rule:evenodd;stroke:#000000;stroke-width:2.0px;stroke-linecap:butt;stroke-linejoin:miter;stroke-opacity:1"/>
<path class="bond-12 atom-6 atom-7" d="M 107.7,200.9 L 105.1,208.8" style="fill:none;fill-rule:evenodd;stroke:#0000FF;stroke-width:2.0px;stroke-linecap:butt;stroke-linejoin:miter;stroke-opacity:1"/>
<path class="bond-12 atom-6 atom-7" d="M 105.6,194.1 L 103.8,199.7" style="fill:none;fill-rule:evenodd;stroke:#000000;stroke-width:2.0px;stroke-linecap:butt;stroke-linejoin:miter;stroke-opacity:1"/>
<path class="bond-12 atom-6 atom-7" d="M 103.8,199.7 L 102.0,205.2" style="fill:none;fill-rule:evenodd;stroke:#0000FF;stroke-width:2.0px;stroke-linecap:butt;stroke-linejoin:miter;stroke-opacity:1"/>
<path class="bond-13 atom-6 atom-9" d="M 110.2,193.0 L 129.6,186.6" style="fill:none;fill-rule:evenodd;stroke:#000000;stroke-width:2.0px;stroke-linecap:butt;stroke-linejoin:miter;stroke-opacity:1"/>
<path class="bond-14 atom-7 atom-8" d="M 101.1,212.4 L 86.5,212.4" style="fill:none;fill-rule:evenodd;stroke:#0000FF;stroke-width:2.0px;stroke-linecap:butt;stroke-linejoin:miter;stroke-opacity:1"/>
<path class="bond-15 atom-8 atom-33" d="M 81.0,216.0 L 77.6,220.7" style="fill:none;fill-rule:evenodd;stroke:#0000FF;stroke-width:2.0px;stroke-linecap:butt;stroke-linejoin:miter;stroke-opacity:1"/>
<path class="bond-15 atom-8 atom-33" d="M 77.6,220.7 L 74.2,225.4" style="fill:none;fill-rule:evenodd;stroke:#000000;stroke-width:2.0px;stroke-linecap:butt;stroke-linejoin:miter;stroke-opacity:1"/>
<path class="bond-16 atom-9 atom-13" d="M 129.6,186.6 L 149.0,180.3" style="fill:none;fill-rule:evenodd;stroke:#000000;stroke-width:2.0px;stroke-linecap:butt;stroke-linejoin:miter;stroke-opacity:1"/>
<path class="bond-17 atom-9 atom-34" d="M 129.6,186.6 L 134.8,202.5" style="fill:none;fill-rule:evenodd;stroke:#000000;stroke-width:2.0px;stroke-linecap:butt;stroke-linejoin:miter;stroke-opacity:1"/>
<path class="bond-18 atom-9 atom-35" d="M 129.6,186.6 L 124.4,170.8" style="fill:none;fill-rule:evenodd;stroke:#000000;stroke-width:2.0px;stroke-linecap:butt;stroke-linejoin:miter;stroke-opacity:1"/>
<path class="bond-19 atom-10 atom-11" d="M 84.4,122.3 L 77.6,127.3" style="fill:none;fill-rule:evenodd;stroke:#0000FF;stroke-width:2.0px;stroke-linecap:butt;stroke-linejoin:miter;stroke-opacity:1"/>
<path class="bond-19 atom-10 atom-11" d="M 77.6,127.3 L 70.8,132.3" style="fill:none;fill-rule:evenodd;stroke:#000000;stroke-width:2.0px;stroke-linecap:butt;stroke-linejoin:miter;stroke-opacity:1"/>
<path class="bond-20 atom-10 atom-25" d="M 90.1,121.5 L 98.0,125.0" style="fill:none;fill-rule:evenodd;stroke:#0000FF;stroke-width:2.0px;stroke-linecap:butt;stroke-linejoin:miter;stroke-opacity:1"/>
<path class="bond-20 atom-10 atom-25" d="M 98.0,125.0 L 105.8,128.5" style="fill:none;fill-rule:evenodd;stroke:#000000;stroke-width:2.0px;stroke-linecap:butt;stroke-linejoin:miter;stroke-opacity:1"/>
<path class="bond-21 atom-10 atom-29" d="M 86.8,116.7 L 85.9,108.3" style="fill:none;fill-rule:evenodd;stroke:#0000FF;stroke-width:2.0px;stroke-linecap:butt;stroke-linejoin:miter;stroke-opacity:1"/>
<path class="bond-21 atom-10 atom-29" d="M 85.9,108.3 L 85.0,100.0" style="fill:none;fill-rule:evenodd;stroke:#000000;stroke-width:2.0px;stroke-linecap:butt;stroke-linejoin:miter;stroke-opacity:1"/>
<path class="bond-22 atom-11 atom-12" d="M 69.9,134.1 L 62.3,130.7" style="fill:none;fill-rule:evenodd;stroke:#000000;stroke-width:2.0px;stroke-linecap:butt;stroke-linejoin:miter;stroke-opacity:1"/>
<path class="bond-22 atom-11 atom-12" d="M 62.3,130.7 L 54.6,127.4" style="fill:none;fill-rule:evenodd;stroke:#FF0000;stroke-width:2.0px;stroke-linecap:butt;stroke-linejoin:miter;stroke-opacity:1"/>
<path class="bond-22 atom-11 atom-12" d="M 71.6,130.4 L 63.9,127.0" style="fill:none;fill-rule:evenodd;stroke:#000000;stroke-width:2.0px;stroke-linecap:butt;stroke-linejoin:miter;stroke-opacity:1"/>
<path class="bond-22 atom-11 atom-12" d="M 63.9,127.0 L 56.3,123.6" style="fill:none;fill-rule:evenodd;stroke:#FF0000;stroke-width:2.0px;stroke-linecap:butt;stroke-linejoin:miter;stroke-opacity:1"/>
<path class="bond-23 atom-13 atom-14" d="M 149.0,180.3 L 164.2,193.9" style="fill:none;fill-rule:evenodd;stroke:#000000;stroke-width:2.0px;stroke-linecap:butt;stroke-linejoin:miter;stroke-opacity:1"/>
<path class="bond-23 atom-13 atom-14" d="M 154.0,179.3 L 164.6,188.8" style="fill:none;fill-rule:evenodd;stroke:#000000;stroke-width:2.0px;stroke-linecap:butt;stroke-linejoin:miter;stroke-opacity:1"/>
<path class="bond-24 atom-13 atom-18" d="M 149.0,180.3 L 153.2,160.4" style="fill:none;fill-rule:evenodd;stroke:#000000;stroke-width:2.0px;stroke-linecap:butt;stroke-linejoin:miter;stroke-opacity:1"/>
<path class="bond-25 atom-14 atom-15" d="M 164.2,193.9 L 183.5,187.6" style="fill:none;fill-rule:evenodd;stroke:#000000;stroke-width:2.0px;stroke-linecap:butt;stroke-linejoin:miter;stroke-opacity:1"/>
<path class="bond-26 atom-14 atom-36" d="M 164.2,193.9 L 160.7,210.3" style="fill:none;fill-rule:evenodd;stroke:#000000;stroke-width:2.0px;stroke-linecap:butt;stroke-linejoin:miter;stroke-opacity:1"/>
<path class="bond-27 atom-15 atom-16" d="M 183.5,187.6 L 187.7,167.6" style="fill:none;fill-rule:evenodd;stroke:#000000;stroke-width:2.0px;stroke-linecap:butt;stroke-linejoin:miter;stroke-opacity:1"/>
<path class="bond-27 atom-15 atom-16" d="M 180.2,183.7 L 183.1,169.8" style="fill:none;fill-rule:evenodd;stroke:#000000;stroke-width:2.0px;stroke-linecap:butt;stroke-linejoin:miter;stroke-opacity:1"/>
<path class="bond-28 atom-15 atom-37" d="M 183.5,187.6 L 195.8,198.6" style="fill:none;fill-rule:evenodd;stroke:#000000;stroke-width:2.0px;stroke-linecap:butt;stroke-linejoin:miter;stroke-opacity:1"/>
<path class="bond-29 atom-16 atom-17" d="M 187.7,167.6 L 172.5,154.0" style="fill:none;fill-rule:evenodd;stroke:#000000;stroke-width:2.0px;stroke-linecap:butt;stroke-linejoin:miter;stroke-opacity:1"/>
<path class="bond-30 atom-16 atom-19" d="M 187.7,167.6 L 207.1,161.3" style="fill:none;fill-rule:evenodd;stroke:#000000;stroke-width:2.0px;stroke-linecap:butt;stroke-linejoin:miter;stroke-opacity:1"/>
<path class="bond-31 atom-17 atom-18" d="M 172.5,154.0 L 153.2,160.4" style="fill:none;fill-rule:evenodd;stroke:#000000;stroke-width:2.0px;stroke-linecap:butt;stroke-linejoin:miter;stroke-opacity:1"/>
<path class="bond-31 atom-17 atom-18" d="M 170.9,158.9 L 157.3,163.3" style="fill:none;fill-rule:evenodd;stroke:#000000;stroke-width:2.0px;stroke-linecap:butt;stroke-linejoin:miter;stroke-opacity:1"/>
<path class="bond-32 atom-17 atom-38" d="M 172.5,154.0 L 176.0,137.6" style="fill:none;fill-rule:evenodd;stroke:#000000;stroke-width:2.0px;stroke-linecap:butt;stroke-linejoin:miter;stroke-opacity:1"/>
<path class="bond-33 atom-18 atom-39" d="M 153.2,160.4 L 140.9,149.4" style="fill:none;fill-rule:evenodd;stroke:#000000;stroke-width:2.0px;stroke-linecap:butt;stroke-linejoin:miter;stroke-opacity:1"/>
<path class="bond-34 atom-19 atom-20" d="M 207.1,161.3 L 213.3,141.9" style="fill:none;fill-rule:evenodd;stroke:#000000;stroke-width:2.0px;stroke-linecap:butt;stroke-linejoin:miter;stroke-opacity:1"/>
<path class="bond-34 atom-19 atom-20" d="M 211.9,159.6 L 216.3,146.1" style="fill:none;fill-rule:evenodd;stroke:#000000;stroke-width:2.0px;stroke-linecap:butt;stroke-linejoin:miter;stroke-opacity:1"/>
<path class="bond-35 atom-19 atom-23" d="M 207.1,161.3 L 223.6,173.2" style="fill:none;fill-rule:evenodd;stroke:#000000;stroke-width:2.0px;stroke-linecap:butt;stroke-linejoin:miter;stroke-opacity:1"/>
<path class="bond-36 atom-20 atom-21" d="M 213.3,141.9 L 222.1,141.9" style="fill:none;fill-rule:evenodd;stroke:#000000;stroke-width:2.0px;stroke-linecap:butt;stroke-linejoin:miter;stroke-opacity:1"/>
<path class="bond-36 atom-20 atom-21" d="M 222.1,141.9 L 230.9,141.9" style="fill:none;fill-rule:evenodd;stroke:#0000FF;stroke-width:2.0px;stroke-linecap:butt;stroke-linejoin:miter;stroke-opacity:1"/>
<path class="bond-37 atom-20 atom-40" d="M 213.3,141.9 L 203.9,129.0" style="fill:none;fill-rule:evenodd;stroke:#000000;stroke-width:2.0px;stroke-linecap:butt;stroke-linejoin:miter;stroke-opacity:1"/>
<path class="bond-38 atom-21 atom-22" d="M 234.9,145.4 L 238.9,157.7" style="fill:none;fill-rule:evenodd;stroke:#0000FF;stroke-width:2.0px;stroke-linecap:butt;stroke-linejoin:miter;stroke-opacity:1"/>
<path class="bond-39 atom-21 atom-24" d="M 236.3,138.3 L 241.0,131.8" style="fill:none;fill-rule:evenodd;stroke:#0000FF;stroke-width:2.0px;stroke-linecap:butt;stroke-linejoin:miter;stroke-opacity:1"/>
<path class="bond-39 atom-21 atom-24" d="M 241.0,131.8 L 245.7,125.3" style="fill:none;fill-rule:evenodd;stroke:#000000;stroke-width:2.0px;stroke-linecap:butt;stroke-linejoin:miter;stroke-opacity:1"/>
<path class="bond-40 atom-22 atom-23" d="M 237.2,163.3 L 230.4,168.3" style="fill:none;fill-rule:evenodd;stroke:#0000FF;stroke-width:2.0px;stroke-linecap:butt;stroke-linejoin:miter;stroke-opacity:1"/>
<path class="bond-40 atom-22 atom-23" d="M 230.4,168.3 L 223.6,173.2" style="fill:none;fill-rule:evenodd;stroke:#000000;stroke-width:2.0px;stroke-linecap:butt;stroke-linejoin:miter;stroke-opacity:1"/>
<path class="bond-40 atom-22 atom-23" d="M 232.8,161.5 L 228.0,165.0" style="fill:none;fill-rule:evenodd;stroke:#0000FF;stroke-width:2.0px;stroke-linecap:butt;stroke-linejoin:miter;stroke-opacity:1"/>
<path class="bond-40 atom-22 atom-23" d="M 228.0,165.0 L 223.2,168.5" style="fill:none;fill-rule:evenodd;stroke:#000000;stroke-width:2.0px;stroke-linecap:butt;stroke-linejoin:miter;stroke-opacity:1"/>
<path class="bond-41 atom-23 atom-41" d="M 223.6,173.2 L 223.6,190.1" style="fill:none;fill-rule:evenodd;stroke:#000000;stroke-width:2.0px;stroke-linecap:butt;stroke-linejoin:miter;stroke-opacity:1"/>
<path class="bond-42 atom-24 atom-42" d="M 245.7,125.3 L 259.2,135.2" style="fill:none;fill-rule:evenodd;stroke:#000000;stroke-width:2.0px;stroke-linecap:butt;stroke-linejoin:miter;stroke-opacity:1"/>
<path class="bond-43 atom-24 atom-43" d="M 245.7,125.3 L 232.1,115.5" style="fill:none;fill-rule:evenodd;stroke:#000000;stroke-width:2.0px;stroke-linecap:butt;stroke-linejoin:miter;stroke-opacity:1"/>
<path class="bond-44 atom-24 atom-44" d="M 245.7,125.3 L 255.0,112.4" style="fill:none;fill-rule:evenodd;stroke:#000000;stroke-width:2.0px;stroke-linecap:butt;stroke-linejoin:miter;stroke-opacity:1"/>
<path class="bond-45 atom-25 atom-26" d="M 105.8,128.5 L 122.3,116.5" style="fill:none;fill-rule:evenodd;stroke:#000000;stroke-width:2.0px;stroke-linecap:butt;stroke-linejoin:miter;stroke-opacity:1"/>
<path class="bond-46 atom-25 atom-45" d="M 105.8,128.5 L 117.6,139.8" style="fill:none;fill-rule:evenodd;stroke:#000000;stroke-width:2.0px;stroke-linecap:butt;stroke-linejoin:miter;stroke-opacity:1"/>
<path class="bond-47 atom-25 atom-46" d="M 105.8,128.5 L 96.9,141.9" style="fill:none;fill-rule:evenodd;stroke:#000000;stroke-width:2.0px;stroke-linecap:butt;stroke-linejoin:miter;stroke-opacity:1"/>
<path class="bond-48 atom-26 atom-27" d="M 122.3,116.5 L 121.4,108.2" style="fill:none;fill-rule:evenodd;stroke:#000000;stroke-width:2.0px;stroke-linecap:butt;stroke-linejoin:miter;stroke-opacity:1"/>
<path class="bond-48 atom-26 atom-27" d="M 121.4,108.2 L 120.5,99.9" style="fill:none;fill-rule:evenodd;stroke:#FF0000;stroke-width:2.0px;stroke-linecap:butt;stroke-linejoin:miter;stroke-opacity:1"/>
<path class="bond-49 atom-26 atom-47" d="M 122.3,116.5 L 139.0,111.7" style="fill:none;fill-rule:evenodd;stroke:#000000;stroke-width:2.0px;stroke-linecap:butt;stroke-linejoin:miter;stroke-opacity:1"/>
<path class="bond-50 atom-26 atom-48" d="M 122.3,116.5 L 129.5,131.2" style="fill:none;fill-rule:evenodd;stroke:#000000;stroke-width:2.0px;stroke-linecap:butt;stroke-linejoin:miter;stroke-opacity:1"/>
<path class="bond-51 atom-27 atom-28" d="M 116.8,94.8 L 109.2,91.4" style="fill:none;fill-rule:evenodd;stroke:#FF0000;stroke-width:2.0px;stroke-linecap:butt;stroke-linejoin:miter;stroke-opacity:1"/>
<path class="bond-51 atom-27 atom-28" d="M 109.2,91.4 L 101.5,88.0" style="fill:none;fill-rule:evenodd;stroke:#000000;stroke-width:2.0px;stroke-linecap:butt;stroke-linejoin:miter;stroke-opacity:1"/>
<path class="bond-52 atom-28 atom-29" d="M 101.5,88.0 L 85.0,100.0" style="fill:none;fill-rule:evenodd;stroke:#000000;stroke-width:2.0px;stroke-linecap:butt;stroke-linejoin:miter;stroke-opacity:1"/>
<path class="bond-53 atom-28 atom-49" d="M 101.5,88.0 L 89.7,76.7" style="fill:none;fill-rule:evenodd;stroke:#000000;stroke-width:2.0px;stroke-linecap:butt;stroke-linejoin:miter;stroke-opacity:1"/>
<path class="bond-54 atom-28 atom-50" d="M 101.5,88.0 L 110.5,74.6" style="fill:none;fill-rule:evenodd;stroke:#000000;stroke-width:2.0px;stroke-linecap:butt;stroke-linejoin:miter;stroke-opacity:1"/>
<path class="bond-55 atom-29 atom-51" d="M 85.0,100.0 L 68.4,104.8" style="fill:none;fill-rule:evenodd;stroke:#000000;stroke-width:2.0px;stroke-linecap:butt;stroke-linejoin:miter;stroke-opacity:1"/>
<path class="bond-56 atom-29 atom-52" d="M 85.0,100.0 L 77.8,85.3" style="fill:none;fill-rule:evenodd;stroke:#000000;stroke-width:2.0px;stroke-linecap:butt;stroke-linejoin:miter;stroke-opacity:1"/>
<path class="atom-7" d="M 102.7 209.5 L 104.6 212.6 Q 104.8 212.9, 105.1 213.4 Q 105.4 213.9, 105.4 214.0 L 105.4 209.5 L 106.2 209.5 L 106.2 215.3 L 105.4 215.3 L 103.4 211.9 Q 103.1 211.5, 102.9 211.1 Q 102.6 210.6, 102.5 210.5 L 102.5 215.3 L 101.8 215.3 L 101.8 209.5 L 102.7 209.5 " fill="#0000FF"/>
<path class="atom-8" d="M 82.3 209.5 L 84.2 212.6 Q 84.4 212.9, 84.7 213.4 Q 85.0 214.0, 85.0 214.0 L 85.0 209.5 L 85.8 209.5 L 85.8 215.3 L 85.0 215.3 L 83.0 212.0 Q 82.7 211.6, 82.5 211.1 Q 82.2 210.7, 82.2 210.5 L 82.2 215.3 L 81.4 215.3 L 81.4 209.5 L 82.3 209.5 " fill="#0000FF"/>
<path class="atom-10" d="M 85.9 117.4 L 87.8 120.4 Q 88.0 120.7, 88.3 121.3 Q 88.6 121.8, 88.6 121.9 L 88.6 117.4 L 89.4 117.4 L 89.4 123.1 L 88.6 123.1 L 86.6 119.8 Q 86.3 119.4, 86.1 119.0 Q 85.8 118.5, 85.8 118.4 L 85.8 123.1 L 85.0 123.1 L 85.0 117.4 L 85.9 117.4 " fill="#0000FF"/>
<path class="atom-12" d="M 49.5 124.0 Q 49.5 122.7, 50.2 121.9 Q 50.8 121.1, 52.1 121.1 Q 53.4 121.1, 54.1 121.9 Q 54.8 122.7, 54.8 124.0 Q 54.8 125.4, 54.1 126.2 Q 53.4 127.0, 52.1 127.0 Q 50.8 127.0, 50.2 126.2 Q 49.5 125.4, 49.5 124.0 M 52.1 126.4 Q 53.0 126.4, 53.5 125.8 Q 54.0 125.2, 54.0 124.0 Q 54.0 122.9, 53.5 122.3 Q 53.0 121.8, 52.1 121.8 Q 51.2 121.8, 50.8 122.3 Q 50.3 122.9, 50.3 124.0 Q 50.3 125.2, 50.8 125.8 Q 51.2 126.4, 52.1 126.4 " fill="#FF0000"/>
<path class="atom-21" d="M 232.4 139.0 L 234.3 142.0 Q 234.5 142.3, 234.8 142.9 Q 235.1 143.4, 235.1 143.5 L 235.1 139.0 L 235.9 139.0 L 235.9 144.7 L 235.1 144.7 L 233.1 141.4 Q 232.8 141.0, 232.6 140.6 Q 232.4 140.1, 232.3 140.0 L 232.3 144.7 L 231.5 144.7 L 231.5 139.0 L 232.4 139.0 " fill="#0000FF"/>
<path class="atom-22" d="M 238.8 158.3 L 240.7 161.4 Q 240.9 161.7, 241.2 162.2 Q 241.5 162.8, 241.5 162.8 L 241.5 158.3 L 242.2 158.3 L 242.2 164.1 L 241.5 164.1 L 239.4 160.8 Q 239.2 160.4, 238.9 159.9 Q 238.7 159.5, 238.6 159.3 L 238.6 164.1 L 237.9 164.1 L 237.9 158.3 L 238.8 158.3 " fill="#0000FF"/>
<path class="atom-27" d="M 117.5 96.2 Q 117.5 94.9, 118.2 94.1 Q 118.9 93.3, 120.1 93.3 Q 121.4 93.3, 122.1 94.1 Q 122.8 94.9, 122.8 96.2 Q 122.8 97.6, 122.1 98.4 Q 121.4 99.2, 120.1 99.2 Q 118.9 99.2, 118.2 98.4 Q 117.5 97.7, 117.5 96.2 M 120.1 98.6 Q 121.0 98.6, 121.5 98.0 Q 122.0 97.4, 122.0 96.2 Q 122.0 95.1, 121.5 94.5 Q 121.0 94.0, 120.1 94.0 Q 119.3 94.0, 118.8 94.5 Q 118.3 95.1, 118.3 96.2 Q 118.3 97.4, 118.8 98.0 Q 119.3 98.6, 120.1 98.6 " fill="#FF0000"/>
<path class="atom-30" d="M 105.8 145.9 L 106.5 145.9 L 106.5 148.3 L 109.5 148.3 L 109.5 145.9 L 110.3 145.9 L 110.3 151.7 L 109.5 151.7 L 109.5 149.0 L 106.5 149.0 L 106.5 151.7 L 105.8 151.7 L 105.8 145.9 " fill="#000000"/>
<path class="atom-31" d="M 39.9 193.9 L 40.7 193.9 L 40.7 196.4 L 43.7 196.4 L 43.7 193.9 L 44.4 193.9 L 44.4 199.7 L 43.7 199.7 L 43.7 197.0 L 40.7 197.0 L 40.7 199.7 L 39.9 199.7 L 39.9 193.9 " fill="#000000"/>
<path class="atom-32" d="M 35.6 153.4 L 36.4 153.4 L 36.4 155.9 L 39.3 155.9 L 39.3 153.4 L 40.1 153.4 L 40.1 159.2 L 39.3 159.2 L 39.3 156.5 L 36.4 156.5 L 36.4 159.2 L 35.6 159.2 L 35.6 153.4 " fill="#000000"/>
<path class="atom-33" d="M 69.4 226.1 L 70.2 226.1 L 70.2 228.5 L 73.1 228.5 L 73.1 226.1 L 73.9 226.1 L 73.9 231.8 L 73.1 231.8 L 73.1 229.2 L 70.2 229.2 L 70.2 231.8 L 69.4 231.8 L 69.4 226.1 " fill="#000000"/>
<path class="atom-34" d="M 133.7 203.1 L 134.5 203.1 L 134.5 205.6 L 137.4 205.6 L 137.4 203.1 L 138.2 203.1 L 138.2 208.9 L 137.4 208.9 L 137.4 206.2 L 134.5 206.2 L 134.5 208.9 L 133.7 208.9 L 133.7 203.1 " fill="#000000"/>
<path class="atom-35" d="M 121.0 164.4 L 121.8 164.4 L 121.8 166.8 L 124.7 166.8 L 124.7 164.4 L 125.5 164.4 L 125.5 170.2 L 124.7 170.2 L 124.7 167.5 L 121.8 167.5 L 121.8 170.2 L 121.0 170.2 L 121.0 164.4 " fill="#000000"/>
<path class="atom-36" d="M 157.7 211.0 L 158.5 211.0 L 158.5 213.4 L 161.4 213.4 L 161.4 211.0 L 162.2 211.0 L 162.2 216.7 L 161.4 216.7 L 161.4 214.1 L 158.5 214.1 L 158.5 216.7 L 157.7 216.7 L 157.7 211.0 " fill="#000000"/>
<path class="atom-37" d="M 196.4 198.3 L 197.2 198.3 L 197.2 200.7 L 200.2 200.7 L 200.2 198.3 L 201.0 198.3 L 201.0 204.1 L 200.2 204.1 L 200.2 201.4 L 197.2 201.4 L 197.2 204.1 L 196.4 204.1 L 196.4 198.3 " fill="#000000"/>
<path class="atom-38" d="M 174.5 131.2 L 175.3 131.2 L 175.3 133.7 L 178.2 133.7 L 178.2 131.2 L 179.0 131.2 L 179.0 137.0 L 178.2 137.0 L 178.2 134.3 L 175.3 134.3 L 175.3 137.0 L 174.5 137.0 L 174.5 131.2 " fill="#000000"/>
<path class="atom-39" d="M 135.7 143.9 L 136.5 143.9 L 136.5 146.3 L 139.5 146.3 L 139.5 143.9 L 140.3 143.9 L 140.3 149.6 L 139.5 149.6 L 139.5 147.0 L 136.5 147.0 L 136.5 149.6 L 135.7 149.6 L 135.7 143.9 " fill="#000000"/>
<path class="atom-40" d="M 199.1 122.6 L 199.8 122.6 L 199.8 125.0 L 202.8 125.0 L 202.8 122.6 L 203.6 122.6 L 203.6 128.3 L 202.8 128.3 L 202.8 125.7 L 199.8 125.7 L 199.8 128.3 L 199.1 128.3 L 199.1 122.6 " fill="#000000"/>
<path class="atom-41" d="M 221.4 190.7 L 222.2 190.7 L 222.2 193.2 L 225.1 193.2 L 225.1 190.7 L 225.9 190.7 L 225.9 196.5 L 225.1 196.5 L 225.1 193.8 L 222.2 193.8 L 222.2 196.5 L 221.4 196.5 L 221.4 190.7 " fill="#000000"/>
<path class="atom-42" d="M 259.9 134.4 L 260.7 134.4 L 260.7 136.9 L 263.6 136.9 L 263.6 134.4 L 264.4 134.4 L 264.4 140.2 L 263.6 140.2 L 263.6 137.5 L 260.7 137.5 L 260.7 140.2 L 259.9 140.2 L 259.9 134.4 " fill="#000000"/>
<path class="atom-43" d="M 226.9 110.5 L 227.7 110.5 L 227.7 113.0 L 230.6 113.0 L 230.6 110.5 L 231.4 110.5 L 231.4 116.3 L 230.6 116.3 L 230.6 113.6 L 227.7 113.6 L 227.7 116.3 L 226.9 116.3 L 226.9 110.5 " fill="#000000"/>
<path class="atom-44" d="M 255.3 105.9 L 256.1 105.9 L 256.1 108.4 L 259.1 108.4 L 259.1 105.9 L 259.9 105.9 L 259.9 111.7 L 259.1 111.7 L 259.1 109.1 L 256.1 109.1 L 256.1 111.7 L 255.3 111.7 L 255.3 105.9 " fill="#000000"/>
<path class="atom-45" d="M 118.3 139.7 L 119.1 139.7 L 119.1 142.2 L 122.0 142.2 L 122.0 139.7 L 122.8 139.7 L 122.8 145.5 L 122.0 145.5 L 122.0 142.9 L 119.1 142.9 L 119.1 145.5 L 118.3 145.5 L 118.3 139.7 " fill="#000000"/>
<path class="atom-46" d="M 92.2 142.5 L 93.0 142.5 L 93.0 145.0 L 96.0 145.0 L 96.0 142.5 L 96.7 142.5 L 96.7 148.3 L 96.0 148.3 L 96.0 145.6 L 93.0 145.6 L 93.0 148.3 L 92.2 148.3 L 92.2 142.5 " fill="#000000"/>
<path class="atom-47" d="M 139.6 107.9 L 140.4 107.9 L 140.4 110.4 L 143.4 110.4 L 143.4 107.9 L 144.1 107.9 L 144.1 113.7 L 143.4 113.7 L 143.4 111.1 L 140.4 111.1 L 140.4 113.7 L 139.6 113.7 L 139.6 107.9 " fill="#000000"/>
<path class="atom-48" d="M 129.0 131.9 L 129.8 131.9 L 129.8 134.4 L 132.8 134.4 L 132.8 131.9 L 133.5 131.9 L 133.5 137.7 L 132.8 137.7 L 132.8 135.0 L 129.8 135.0 L 129.8 137.7 L 129.0 137.7 L 129.0 131.9 " fill="#000000"/>
<path class="atom-49" d="M 84.6 71.0 L 85.3 71.0 L 85.3 73.4 L 88.3 73.4 L 88.3 71.0 L 89.1 71.0 L 89.1 76.7 L 88.3 76.7 L 88.3 74.1 L 85.3 74.1 L 85.3 76.7 L 84.6 76.7 L 84.6 71.0 " fill="#000000"/>
<path class="atom-50" d="M 110.6 68.2 L 111.4 68.2 L 111.4 70.6 L 114.3 70.6 L 114.3 68.2 L 115.1 68.2 L 115.1 73.9 L 114.3 73.9 L 114.3 71.3 L 111.4 71.3 L 111.4 73.9 L 110.6 73.9 L 110.6 68.2 " fill="#000000"/>
<path class="atom-51" d="M 63.2 102.8 L 64.0 102.8 L 64.0 105.2 L 66.9 105.2 L 66.9 102.8 L 67.7 102.8 L 67.7 108.5 L 66.9 108.5 L 66.9 105.9 L 64.0 105.9 L 64.0 108.5 L 63.2 108.5 L 63.2 102.8 " fill="#000000"/>
<path class="atom-52" d="M 73.8 78.8 L 74.6 78.8 L 74.6 81.3 L 77.5 81.3 L 77.5 78.8 L 78.3 78.8 L 78.3 84.6 L 77.5 84.6 L 77.5 81.9 L 74.6 81.9 L 74.6 84.6 L 73.8 84.6 L 73.8 78.8 " fill="#000000"/>
<path class="bond-0 atom-0 atom-1" d="M 373.6,137.4 L 390.9,148.2" style="fill:none;fill-rule:evenodd;stroke:#000000;stroke-width:2.0px;stroke-linecap:butt;stroke-linejoin:miter;stroke-opacity:1"/>
<path class="bond-0 atom-0 atom-1" d="M 374.1,142.5 L 386.2,150.1" style="fill:none;fill-rule:evenodd;stroke:#000000;stroke-width:2.0px;stroke-linecap:butt;stroke-linejoin:miter;stroke-opacity:1"/>
<path class="bond-1 atom-0 atom-3" d="M 373.6,137.4 L 355.6,146.9" style="fill:none;fill-rule:evenodd;stroke:#000000;stroke-width:2.0px;stroke-linecap:butt;stroke-linejoin:miter;stroke-opacity:1"/>
<path class="bond-2 atom-0 atom-11" d="M 373.6,137.4 L 374.4,117.0" style="fill:none;fill-rule:evenodd;stroke:#000000;stroke-width:2.0px;stroke-linecap:butt;stroke-linejoin:miter;stroke-opacity:1"/>
<path class="bond-3 atom-1 atom-5" d="M 390.9,148.2 L 390.2,168.6" style="fill:none;fill-rule:evenodd;stroke:#000000;stroke-width:2.0px;stroke-linecap:butt;stroke-linejoin:miter;stroke-opacity:1"/>
<path class="bond-4 atom-1 atom-25" d="M 390.9,148.2 L 406.0,140.3" style="fill:none;fill-rule:evenodd;stroke:#000000;stroke-width:2.0px;stroke-linecap:butt;stroke-linejoin:miter;stroke-opacity:1"/>
<path class="bond-5 atom-2 atom-3" d="M 354.9,167.3 L 355.6,146.9" style="fill:none;fill-rule:evenodd;stroke:#000000;stroke-width:2.0px;stroke-linecap:butt;stroke-linejoin:miter;stroke-opacity:1"/>
<path class="bond-5 atom-2 atom-3" d="M 359.1,164.4 L 359.6,150.1" style="fill:none;fill-rule:evenodd;stroke:#000000;stroke-width:2.0px;stroke-linecap:butt;stroke-linejoin:miter;stroke-opacity:1"/>
<path class="bond-6 atom-2 atom-4" d="M 354.9,167.3 L 372.1,178.1" style="fill:none;fill-rule:evenodd;stroke:#000000;stroke-width:2.0px;stroke-linecap:butt;stroke-linejoin:miter;stroke-opacity:1"/>
<path class="bond-7 atom-2 atom-26" d="M 354.9,167.3 L 339.8,175.3" style="fill:none;fill-rule:evenodd;stroke:#000000;stroke-width:2.0px;stroke-linecap:butt;stroke-linejoin:miter;stroke-opacity:1"/>
<path class="bond-8 atom-3 atom-27" d="M 355.6,146.9 L 341.3,138.0" style="fill:none;fill-rule:evenodd;stroke:#000000;stroke-width:2.0px;stroke-linecap:butt;stroke-linejoin:miter;stroke-opacity:1"/>
<path class="bond-9 atom-4 atom-5" d="M 372.1,178.1 L 390.2,168.6" style="fill:none;fill-rule:evenodd;stroke:#000000;stroke-width:2.0px;stroke-linecap:butt;stroke-linejoin:miter;stroke-opacity:1"/>
<path class="bond-9 atom-4 atom-5" d="M 372.9,173.1 L 385.5,166.4" style="fill:none;fill-rule:evenodd;stroke:#000000;stroke-width:2.0px;stroke-linecap:butt;stroke-linejoin:miter;stroke-opacity:1"/>
<path class="bond-10 atom-4 atom-8" d="M 372.1,178.1 L 373.6,186.4" style="fill:none;fill-rule:evenodd;stroke:#000000;stroke-width:2.0px;stroke-linecap:butt;stroke-linejoin:miter;stroke-opacity:1"/>
<path class="bond-10 atom-4 atom-8" d="M 373.6,186.4 L 375.0,194.7" style="fill:none;fill-rule:evenodd;stroke:#0000FF;stroke-width:2.0px;stroke-linecap:butt;stroke-linejoin:miter;stroke-opacity:1"/>
<path class="bond-11 atom-5 atom-6" d="M 390.2,168.6 L 404.8,182.8" style="fill:none;fill-rule:evenodd;stroke:#000000;stroke-width:2.0px;stroke-linecap:butt;stroke-linejoin:miter;stroke-opacity:1"/>
<path class="bond-12 atom-6 atom-7" d="M 404.8,182.8 L 401.2,190.2" style="fill:none;fill-rule:evenodd;stroke:#000000;stroke-width:2.0px;stroke-linecap:butt;stroke-linejoin:miter;stroke-opacity:1"/>
<path class="bond-12 atom-6 atom-7" d="M 401.2,190.2 L 397.6,197.5" style="fill:none;fill-rule:evenodd;stroke:#0000FF;stroke-width:2.0px;stroke-linecap:butt;stroke-linejoin:miter;stroke-opacity:1"/>
<path class="bond-12 atom-6 atom-7" d="M 400.0,183.2 L 397.5,188.4" style="fill:none;fill-rule:evenodd;stroke:#000000;stroke-width:2.0px;stroke-linecap:butt;stroke-linejoin:miter;stroke-opacity:1"/>
<path class="bond-12 atom-6 atom-7" d="M 397.5,188.4 L 395.0,193.5" style="fill:none;fill-rule:evenodd;stroke:#0000FF;stroke-width:2.0px;stroke-linecap:butt;stroke-linejoin:miter;stroke-opacity:1"/>
<path class="bond-13 atom-6 atom-9" d="M 404.8,182.8 L 424.9,179.3" style="fill:none;fill-rule:evenodd;stroke:#000000;stroke-width:2.0px;stroke-linecap:butt;stroke-linejoin:miter;stroke-opacity:1"/>
<path class="bond-14 atom-7 atom-8" d="M 393.0,200.7 L 378.5,198.6" style="fill:none;fill-rule:evenodd;stroke:#0000FF;stroke-width:2.0px;stroke-linecap:butt;stroke-linejoin:miter;stroke-opacity:1"/>
<path class="bond-15 atom-8 atom-28" d="M 372.8,201.2 L 368.6,205.5" style="fill:none;fill-rule:evenodd;stroke:#0000FF;stroke-width:2.0px;stroke-linecap:butt;stroke-linejoin:miter;stroke-opacity:1"/>
<path class="bond-15 atom-8 atom-28" d="M 368.6,205.5 L 364.4,209.8" style="fill:none;fill-rule:evenodd;stroke:#000000;stroke-width:2.0px;stroke-linecap:butt;stroke-linejoin:miter;stroke-opacity:1"/>
<path class="bond-16 atom-9 atom-13" d="M 424.9,179.3 L 444.9,175.8" style="fill:none;fill-rule:evenodd;stroke:#000000;stroke-width:2.0px;stroke-linecap:butt;stroke-linejoin:miter;stroke-opacity:1"/>
<path class="bond-17 atom-9 atom-29" d="M 424.9,179.3 L 427.7,195.8" style="fill:none;fill-rule:evenodd;stroke:#000000;stroke-width:2.0px;stroke-linecap:butt;stroke-linejoin:miter;stroke-opacity:1"/>
<path class="bond-18 atom-9 atom-30" d="M 424.9,179.3 L 422.0,162.8" style="fill:none;fill-rule:evenodd;stroke:#000000;stroke-width:2.0px;stroke-linecap:butt;stroke-linejoin:miter;stroke-opacity:1"/>
<path class="bond-19 atom-10 atom-11" d="M 389.5,109.0 L 382.0,113.0" style="fill:none;fill-rule:evenodd;stroke:#0000FF;stroke-width:2.0px;stroke-linecap:butt;stroke-linejoin:miter;stroke-opacity:1"/>
<path class="bond-19 atom-10 atom-11" d="M 382.0,113.0 L 374.4,117.0" style="fill:none;fill-rule:evenodd;stroke:#000000;stroke-width:2.0px;stroke-linecap:butt;stroke-linejoin:miter;stroke-opacity:1"/>
<path class="bond-20 atom-10 atom-31" d="M 392.5,104.0 L 392.8,97.3" style="fill:none;fill-rule:evenodd;stroke:#0000FF;stroke-width:2.0px;stroke-linecap:butt;stroke-linejoin:miter;stroke-opacity:1"/>
<path class="bond-20 atom-10 atom-31" d="M 392.8,97.3 L 393.0,90.7" style="fill:none;fill-rule:evenodd;stroke:#000000;stroke-width:2.0px;stroke-linecap:butt;stroke-linejoin:miter;stroke-opacity:1"/>
<path class="bond-21 atom-10 atom-32" d="M 395.3,109.3 L 401.0,112.9" style="fill:none;fill-rule:evenodd;stroke:#0000FF;stroke-width:2.0px;stroke-linecap:butt;stroke-linejoin:miter;stroke-opacity:1"/>
<path class="bond-21 atom-10 atom-32" d="M 401.0,112.9 L 406.7,116.5" style="fill:none;fill-rule:evenodd;stroke:#000000;stroke-width:2.0px;stroke-linecap:butt;stroke-linejoin:miter;stroke-opacity:1"/>
<path class="bond-22 atom-11 atom-12" d="M 373.3,118.8 L 366.3,114.4" style="fill:none;fill-rule:evenodd;stroke:#000000;stroke-width:2.0px;stroke-linecap:butt;stroke-linejoin:miter;stroke-opacity:1"/>
<path class="bond-22 atom-11 atom-12" d="M 366.3,114.4 L 359.4,110.0" style="fill:none;fill-rule:evenodd;stroke:#FF0000;stroke-width:2.0px;stroke-linecap:butt;stroke-linejoin:miter;stroke-opacity:1"/>
<path class="bond-22 atom-11 atom-12" d="M 375.5,115.3 L 368.5,110.9" style="fill:none;fill-rule:evenodd;stroke:#000000;stroke-width:2.0px;stroke-linecap:butt;stroke-linejoin:miter;stroke-opacity:1"/>
<path class="bond-22 atom-11 atom-12" d="M 368.5,110.9 L 361.5,106.6" style="fill:none;fill-rule:evenodd;stroke:#FF0000;stroke-width:2.0px;stroke-linecap:butt;stroke-linejoin:miter;stroke-opacity:1"/>
<path class="bond-23 atom-13 atom-14" d="M 444.9,175.8 L 458.0,191.4" style="fill:none;fill-rule:evenodd;stroke:#000000;stroke-width:2.0px;stroke-linecap:butt;stroke-linejoin:miter;stroke-opacity:1"/>
<path class="bond-23 atom-13 atom-14" d="M 450.0,175.5 L 459.2,186.5" style="fill:none;fill-rule:evenodd;stroke:#000000;stroke-width:2.0px;stroke-linecap:butt;stroke-linejoin:miter;stroke-opacity:1"/>
<path class="bond-24 atom-13 atom-18" d="M 444.9,175.8 L 451.9,156.7" style="fill:none;fill-rule:evenodd;stroke:#000000;stroke-width:2.0px;stroke-linecap:butt;stroke-linejoin:miter;stroke-opacity:1"/>
<path class="bond-25 atom-14 atom-15" d="M 458.0,191.4 L 478.1,187.9" style="fill:none;fill-rule:evenodd;stroke:#000000;stroke-width:2.0px;stroke-linecap:butt;stroke-linejoin:miter;stroke-opacity:1"/>
<path class="bond-26 atom-14 atom-33" d="M 458.0,191.4 L 452.3,207.0" style="fill:none;fill-rule:evenodd;stroke:#000000;stroke-width:2.0px;stroke-linecap:butt;stroke-linejoin:miter;stroke-opacity:1"/>
<path class="bond-27 atom-15 atom-16" d="M 478.1,187.9 L 485.1,168.8" style="fill:none;fill-rule:evenodd;stroke:#000000;stroke-width:2.0px;stroke-linecap:butt;stroke-linejoin:miter;stroke-opacity:1"/>
<path class="bond-27 atom-15 atom-16" d="M 475.3,183.7 L 480.2,170.3" style="fill:none;fill-rule:evenodd;stroke:#000000;stroke-width:2.0px;stroke-linecap:butt;stroke-linejoin:miter;stroke-opacity:1"/>
<path class="bond-28 atom-15 atom-34" d="M 478.1,187.9 L 488.2,200.1" style="fill:none;fill-rule:evenodd;stroke:#000000;stroke-width:2.0px;stroke-linecap:butt;stroke-linejoin:miter;stroke-opacity:1"/>
<path class="bond-29 atom-16 atom-17" d="M 485.1,168.8 L 472.0,153.2" style="fill:none;fill-rule:evenodd;stroke:#000000;stroke-width:2.0px;stroke-linecap:butt;stroke-linejoin:miter;stroke-opacity:1"/>
<path class="bond-30 atom-16 atom-19" d="M 485.1,168.8 L 505.2,165.3" style="fill:none;fill-rule:evenodd;stroke:#000000;stroke-width:2.0px;stroke-linecap:butt;stroke-linejoin:miter;stroke-opacity:1"/>
<path class="bond-31 atom-17 atom-18" d="M 472.0,153.2 L 451.9,156.7" style="fill:none;fill-rule:evenodd;stroke:#000000;stroke-width:2.0px;stroke-linecap:butt;stroke-linejoin:miter;stroke-opacity:1"/>
<path class="bond-31 atom-17 atom-18" d="M 469.7,157.7 L 455.7,160.1" style="fill:none;fill-rule:evenodd;stroke:#000000;stroke-width:2.0px;stroke-linecap:butt;stroke-linejoin:miter;stroke-opacity:1"/>
<path class="bond-32 atom-17 atom-35" d="M 472.0,153.2 L 477.7,137.6" style="fill:none;fill-rule:evenodd;stroke:#000000;stroke-width:2.0px;stroke-linecap:butt;stroke-linejoin:miter;stroke-opacity:1"/>
<path class="bond-33 atom-18 atom-36" d="M 451.9,156.7 L 441.8,144.5" style="fill:none;fill-rule:evenodd;stroke:#000000;stroke-width:2.0px;stroke-linecap:butt;stroke-linejoin:miter;stroke-opacity:1"/>
<path class="bond-34 atom-19 atom-20" d="M 505.2,165.3 L 514.1,147.0" style="fill:none;fill-rule:evenodd;stroke:#000000;stroke-width:2.0px;stroke-linecap:butt;stroke-linejoin:miter;stroke-opacity:1"/>
<path class="bond-34 atom-19 atom-20" d="M 510.2,164.3 L 516.5,151.5" style="fill:none;fill-rule:evenodd;stroke:#000000;stroke-width:2.0px;stroke-linecap:butt;stroke-linejoin:miter;stroke-opacity:1"/>
<path class="bond-35 atom-19 atom-23" d="M 505.2,165.3 L 519.8,179.5" style="fill:none;fill-rule:evenodd;stroke:#000000;stroke-width:2.0px;stroke-linecap:butt;stroke-linejoin:miter;stroke-opacity:1"/>
<path class="bond-36 atom-20 atom-21" d="M 514.1,147.0 L 522.8,148.2" style="fill:none;fill-rule:evenodd;stroke:#000000;stroke-width:2.0px;stroke-linecap:butt;stroke-linejoin:miter;stroke-opacity:1"/>
<path class="bond-36 atom-20 atom-21" d="M 522.8,148.2 L 531.4,149.5" style="fill:none;fill-rule:evenodd;stroke:#0000FF;stroke-width:2.0px;stroke-linecap:butt;stroke-linejoin:miter;stroke-opacity:1"/>
<path class="bond-37 atom-20 atom-37" d="M 514.1,147.0 L 506.5,132.5" style="fill:none;fill-rule:evenodd;stroke:#000000;stroke-width:2.0px;stroke-linecap:butt;stroke-linejoin:miter;stroke-opacity:1"/>
<path class="bond-38 atom-21 atom-22" d="M 534.9,153.4 L 537.2,166.4" style="fill:none;fill-rule:evenodd;stroke:#0000FF;stroke-width:2.0px;stroke-linecap:butt;stroke-linejoin:miter;stroke-opacity:1"/>
<path class="bond-39 atom-21 atom-24" d="M 537.2,146.9 L 542.8,141.1" style="fill:none;fill-rule:evenodd;stroke:#0000FF;stroke-width:2.0px;stroke-linecap:butt;stroke-linejoin:miter;stroke-opacity:1"/>
<path class="bond-39 atom-21 atom-24" d="M 542.8,141.1 L 548.5,135.2" style="fill:none;fill-rule:evenodd;stroke:#000000;stroke-width:2.0px;stroke-linecap:butt;stroke-linejoin:miter;stroke-opacity:1"/>
<path class="bond-40 atom-22 atom-23" d="M 534.9,171.5 L 527.4,175.5" style="fill:none;fill-rule:evenodd;stroke:#0000FF;stroke-width:2.0px;stroke-linecap:butt;stroke-linejoin:miter;stroke-opacity:1"/>
<path class="bond-40 atom-22 atom-23" d="M 527.4,175.5 L 519.8,179.5" style="fill:none;fill-rule:evenodd;stroke:#000000;stroke-width:2.0px;stroke-linecap:butt;stroke-linejoin:miter;stroke-opacity:1"/>
<path class="bond-40 atom-22 atom-23" d="M 530.8,169.1 L 525.5,171.9" style="fill:none;fill-rule:evenodd;stroke:#0000FF;stroke-width:2.0px;stroke-linecap:butt;stroke-linejoin:miter;stroke-opacity:1"/>
<path class="bond-40 atom-22 atom-23" d="M 525.5,171.9 L 520.2,174.7" style="fill:none;fill-rule:evenodd;stroke:#000000;stroke-width:2.0px;stroke-linecap:butt;stroke-linejoin:miter;stroke-opacity:1"/>
<path class="bond-41 atom-23 atom-38" d="M 519.8,179.5 L 517.4,196.1" style="fill:none;fill-rule:evenodd;stroke:#000000;stroke-width:2.0px;stroke-linecap:butt;stroke-linejoin:miter;stroke-opacity:1"/>
<path class="bond-42 atom-24 atom-39" d="M 548.5,135.2 L 560.2,146.6" style="fill:none;fill-rule:evenodd;stroke:#000000;stroke-width:2.0px;stroke-linecap:butt;stroke-linejoin:miter;stroke-opacity:1"/>
<path class="bond-43 atom-24 atom-40" d="M 548.5,135.2 L 536.8,123.9" style="fill:none;fill-rule:evenodd;stroke:#000000;stroke-width:2.0px;stroke-linecap:butt;stroke-linejoin:miter;stroke-opacity:1"/>
<path class="bond-44 atom-24 atom-41" d="M 548.5,135.2 L 559.7,123.6" style="fill:none;fill-rule:evenodd;stroke:#000000;stroke-width:2.0px;stroke-linecap:butt;stroke-linejoin:miter;stroke-opacity:1"/>
<path class="atom-7" d="M 394.5 198.2 L 396.4 201.3 Q 396.6 201.6, 396.9 202.1 Q 397.2 202.7, 397.2 202.7 L 397.2 198.2 L 398.0 198.2 L 398.0 204.0 L 397.2 204.0 L 395.2 200.6 Q 395.0 200.2, 394.7 199.8 Q 394.5 199.3, 394.4 199.2 L 394.4 204.0 L 393.6 204.0 L 393.6 198.2 L 394.5 198.2 " fill="#0000FF"/>
<path class="atom-8" d="M 374.4 195.3 L 376.3 198.4 Q 376.4 198.7, 376.8 199.2 Q 377.1 199.8, 377.1 199.8 L 377.1 195.3 L 377.8 195.3 L 377.8 201.1 L 377.0 201.1 L 375.0 197.8 Q 374.8 197.4, 374.5 196.9 Q 374.3 196.5, 374.2 196.3 L 374.2 201.1 L 373.5 201.1 L 373.5 195.3 L 374.4 195.3 " fill="#0000FF"/>
<path class="atom-10" d="M 391.1 104.6 L 393.0 107.7 Q 393.2 108.0, 393.5 108.5 Q 393.8 109.1, 393.8 109.1 L 393.8 104.6 L 394.6 104.6 L 394.6 110.4 L 393.8 110.4 L 391.8 107.1 Q 391.5 106.7, 391.3 106.2 Q 391.0 105.8, 391.0 105.6 L 391.0 110.4 L 390.2 110.4 L 390.2 104.6 L 391.1 104.6 " fill="#0000FF"/>
<path class="atom-12" d="M 354.5 106.2 Q 354.5 104.8, 355.2 104.1 Q 355.9 103.3, 357.1 103.3 Q 358.4 103.3, 359.1 104.1 Q 359.8 104.8, 359.8 106.2 Q 359.8 107.6, 359.1 108.4 Q 358.4 109.2, 357.1 109.2 Q 355.9 109.2, 355.2 108.4 Q 354.5 107.6, 354.5 106.2 M 357.1 108.6 Q 358.0 108.6, 358.5 108.0 Q 359.0 107.4, 359.0 106.2 Q 359.0 105.1, 358.5 104.5 Q 358.0 103.9, 357.1 103.9 Q 356.3 103.9, 355.8 104.5 Q 355.3 105.1, 355.3 106.2 Q 355.3 107.4, 355.8 108.0 Q 356.3 108.6, 357.1 108.6 " fill="#FF0000"/>
<path class="atom-21" d="M 533.0 147.0 L 534.9 150.0 Q 535.1 150.3, 535.4 150.9 Q 535.7 151.4, 535.7 151.5 L 535.7 147.0 L 536.5 147.0 L 536.5 152.8 L 535.7 152.8 L 533.7 149.4 Q 533.4 149.0, 533.2 148.6 Q 532.9 148.1, 532.9 148.0 L 532.9 152.8 L 532.1 152.8 L 532.1 147.0 L 533.0 147.0 " fill="#0000FF"/>
<path class="atom-22" d="M 536.5 167.1 L 538.4 170.1 Q 538.6 170.4, 538.9 171.0 Q 539.2 171.5, 539.2 171.5 L 539.2 167.1 L 540.0 167.1 L 540.0 172.8 L 539.2 172.8 L 537.2 169.5 Q 536.9 169.1, 536.7 168.7 Q 536.4 168.2, 536.4 168.1 L 536.4 172.8 L 535.6 172.8 L 535.6 167.1 L 536.5 167.1 " fill="#0000FF"/>
<path class="atom-25" d="M 406.7 135.8 L 407.4 135.8 L 407.4 138.3 L 410.4 138.3 L 410.4 135.8 L 411.2 135.8 L 411.2 141.6 L 410.4 141.6 L 410.4 138.9 L 407.4 138.9 L 407.4 141.6 L 406.7 141.6 L 406.7 135.8 " fill="#000000"/>
<path class="atom-26" d="M 334.6 174.0 L 335.4 174.0 L 335.4 176.4 L 338.3 176.4 L 338.3 174.0 L 339.1 174.0 L 339.1 179.7 L 338.3 179.7 L 338.3 177.1 L 335.4 177.1 L 335.4 179.7 L 334.6 179.7 L 334.6 174.0 " fill="#000000"/>
<path class="atom-27" d="M 336.1 133.2 L 336.9 133.2 L 336.9 135.7 L 339.9 135.7 L 339.9 133.2 L 340.6 133.2 L 340.6 139.0 L 339.9 139.0 L 339.9 136.3 L 336.9 136.3 L 336.9 139.0 L 336.1 139.0 L 336.1 133.2 " fill="#000000"/>
<path class="atom-28" d="M 359.2 210.0 L 360.0 210.0 L 360.0 212.4 L 362.9 212.4 L 362.9 210.0 L 363.7 210.0 L 363.7 215.7 L 362.9 215.7 L 362.9 213.1 L 360.0 213.1 L 360.0 215.7 L 359.2 215.7 L 359.2 210.0 " fill="#000000"/>
<path class="atom-29" d="M 426.1 196.5 L 426.9 196.5 L 426.9 198.9 L 429.8 198.9 L 429.8 196.5 L 430.6 196.5 L 430.6 202.3 L 429.8 202.3 L 429.8 199.6 L 426.9 199.6 L 426.9 202.3 L 426.1 202.3 L 426.1 196.5 " fill="#000000"/>
<path class="atom-30" d="M 419.1 156.3 L 419.9 156.3 L 419.9 158.8 L 422.8 158.8 L 422.8 156.3 L 423.6 156.3 L 423.6 162.1 L 422.8 162.1 L 422.8 159.4 L 419.9 159.4 L 419.9 162.1 L 419.1 162.1 L 419.1 156.3 " fill="#000000"/>
<path class="atom-31" d="M 390.9 84.3 L 391.7 84.3 L 391.7 86.7 L 394.6 86.7 L 394.6 84.3 L 395.4 84.3 L 395.4 90.0 L 394.6 90.0 L 394.6 87.4 L 391.7 87.4 L 391.7 90.0 L 390.9 90.0 L 390.9 84.3 " fill="#000000"/>
<path class="atom-32" d="M 407.4 115.5 L 408.2 115.5 L 408.2 117.9 L 411.1 117.9 L 411.1 115.5 L 411.9 115.5 L 411.9 121.2 L 411.1 121.2 L 411.1 118.6 L 408.2 118.6 L 408.2 121.2 L 407.4 121.2 L 407.4 115.5 " fill="#000000"/>
<path class="atom-33" d="M 448.7 207.7 L 449.5 207.7 L 449.5 210.1 L 452.5 210.1 L 452.5 207.7 L 453.3 207.7 L 453.3 213.5 L 452.5 213.5 L 452.5 210.8 L 449.5 210.8 L 449.5 213.5 L 448.7 213.5 L 448.7 207.7 " fill="#000000"/>
<path class="atom-34" d="M 488.9 200.7 L 489.7 200.7 L 489.7 203.1 L 492.6 203.1 L 492.6 200.7 L 493.4 200.7 L 493.4 206.5 L 492.6 206.5 L 492.6 203.8 L 489.7 203.8 L 489.7 206.5 L 488.9 206.5 L 488.9 200.7 " fill="#000000"/>
<path class="atom-35" d="M 476.8 131.1 L 477.6 131.1 L 477.6 133.6 L 480.5 133.6 L 480.5 131.1 L 481.3 131.1 L 481.3 136.9 L 480.5 136.9 L 480.5 134.2 L 477.6 134.2 L 477.6 136.9 L 476.8 136.9 L 476.8 131.1 " fill="#000000"/>
<path class="atom-36" d="M 436.6 138.1 L 437.4 138.1 L 437.4 140.6 L 440.4 140.6 L 440.4 138.1 L 441.1 138.1 L 441.1 143.9 L 440.4 143.9 L 440.4 141.2 L 437.4 141.2 L 437.4 143.9 L 436.6 143.9 L 436.6 138.1 " fill="#000000"/>
<path class="atom-37" d="M 502.3 126.1 L 503.1 126.1 L 503.1 128.6 L 506.1 128.6 L 506.1 126.1 L 506.9 126.1 L 506.9 131.9 L 506.1 131.9 L 506.1 129.2 L 503.1 129.2 L 503.1 131.9 L 502.3 131.9 L 502.3 126.1 " fill="#000000"/>
<path class="atom-38" d="M 514.7 196.8 L 515.4 196.8 L 515.4 199.2 L 518.4 199.2 L 518.4 196.8 L 519.2 196.8 L 519.2 202.5 L 518.4 202.5 L 518.4 199.9 L 515.4 199.9 L 515.4 202.5 L 514.7 202.5 L 514.7 196.8 " fill="#000000"/>
<path class="atom-39" d="M 560.9 146.5 L 561.7 146.5 L 561.7 149.0 L 564.6 149.0 L 564.6 146.5 L 565.4 146.5 L 565.4 152.3 L 564.6 152.3 L 564.6 149.6 L 561.7 149.6 L 561.7 152.3 L 560.9 152.3 L 560.9 146.5 " fill="#000000"/>
<path class="atom-40" d="M 531.6 118.2 L 532.4 118.2 L 532.4 120.6 L 535.3 120.6 L 535.3 118.2 L 536.1 118.2 L 536.1 123.9 L 535.3 123.9 L 535.3 121.3 L 532.4 121.3 L 532.4 123.9 L 531.6 123.9 L 531.6 118.2 " fill="#000000"/>
<path class="atom-41" d="M 560.4 117.7 L 561.2 117.7 L 561.2 120.2 L 564.2 120.2 L 564.2 117.7 L 564.9 117.7 L 564.9 123.5 L 564.2 123.5 L 564.2 120.8 L 561.2 120.8 L 561.2 123.5 L 560.4 123.5 L 560.4 117.7 " fill="#000000"/>
<text x="300" y="20" font-size="20" font-family="sans-serif" font-weight="normal" letter-spacing="0" text-anchor="middle" fill="black">cdk8: 39 -&gt; 32</text><text x="300" y="35" font-size="15" font-family="sans-serif" font-weight="normal" letter-spacing="0" text-anchor="middle" fill="black"></text><text x="150" y="285" font-size="15" font-family="sans-serif" font-weight="normal" letter-spacing="0" text-anchor="middle" fill="black">39</text><text x="450" y="285" font-size="15" font-family="sans-serif" font-weight="normal" letter-spacing="0" text-anchor="middle" fill="black">32</text></svg>
