<?xml version='1.0' encoding='ASCII' standalone='yes'?>
<svg xmlns="http://www.w3.org/2000/svg" xmlns:rdkit="http://www.rdkit.org/xml" xmlns:xlink="http://www.w3.org/1999/xlink" version="1.1" baseProfile="full" xml:space="preserve" width="600px" height="300px" viewBox="0 0 600 300">
<!-- END OF HEADER -->
<rect style="opacity:1.0;fill:#FFFFFF;stroke:none" width="600.0" height="300.0" x="0.0" y="0.0"> </rect>
<path class="bond-0 atom-0 atom-1" d="M 105.5,147.3 L 122.2,152.0" style="fill:none;fill-rule:evenodd;stroke:#000000;stroke-width:2.0px;stroke-linecap:butt;stroke-linejoin:miter;stroke-opacity:1"/>
<path class="bond-0 atom-0 atom-1" d="M 107.1,151.3 L 118.8,154.6" style="fill:none;fill-rule:evenodd;stroke:#000000;stroke-width:2.0px;stroke-linecap:butt;stroke-linejoin:miter;stroke-opacity:1"/>
<path class="bond-1 atom-0 atom-3" d="M 105.5,147.3 L 93.1,159.4" style="fill:none;fill-rule:evenodd;stroke:#000000;stroke-width:2.0px;stroke-linecap:butt;stroke-linejoin:miter;stroke-opacity:1"/>
<path class="bond-2 atom-0 atom-11" d="M 105.5,147.3 L 101.2,130.4" style="fill:none;fill-rule:evenodd;stroke:#000000;stroke-width:2.0px;stroke-linecap:butt;stroke-linejoin:miter;stroke-opacity:1"/>
<path class="bond-3 atom-1 atom-5" d="M 122.2,152.0 L 126.5,168.8" style="fill:none;fill-rule:evenodd;stroke:#000000;stroke-width:2.0px;stroke-linecap:butt;stroke-linejoin:miter;stroke-opacity:1"/>
<path class="bond-4 atom-1 atom-30" d="M 122.2,152.0 L 132.2,142.3" style="fill:none;fill-rule:evenodd;stroke:#000000;stroke-width:2.0px;stroke-linecap:butt;stroke-linejoin:miter;stroke-opacity:1"/>
<path class="bond-5 atom-2 atom-3" d="M 97.3,176.2 L 93.1,159.4" style="fill:none;fill-rule:evenodd;stroke:#000000;stroke-width:2.0px;stroke-linecap:butt;stroke-linejoin:miter;stroke-opacity:1"/>
<path class="bond-5 atom-2 atom-3" d="M 100.1,172.9 L 97.1,161.1" style="fill:none;fill-rule:evenodd;stroke:#000000;stroke-width:2.0px;stroke-linecap:butt;stroke-linejoin:miter;stroke-opacity:1"/>
<path class="bond-6 atom-2 atom-4" d="M 97.3,176.2 L 114.1,181.0" style="fill:none;fill-rule:evenodd;stroke:#000000;stroke-width:2.0px;stroke-linecap:butt;stroke-linejoin:miter;stroke-opacity:1"/>
<path class="bond-7 atom-2 atom-31" d="M 97.3,176.2 L 87.4,186.0" style="fill:none;fill-rule:evenodd;stroke:#000000;stroke-width:2.0px;stroke-linecap:butt;stroke-linejoin:miter;stroke-opacity:1"/>
<path class="bond-8 atom-3 atom-32" d="M 93.1,159.4 L 85.0,156.0" style="fill:none;fill-rule:evenodd;stroke:#000000;stroke-width:2.0px;stroke-linecap:butt;stroke-linejoin:miter;stroke-opacity:1"/>
<path class="bond-9 atom-4 atom-5" d="M 114.1,181.0 L 126.5,168.8" style="fill:none;fill-rule:evenodd;stroke:#000000;stroke-width:2.0px;stroke-linecap:butt;stroke-linejoin:miter;stroke-opacity:1"/>
<path class="bond-9 atom-4 atom-5" d="M 113.5,176.7 L 122.2,168.2" style="fill:none;fill-rule:evenodd;stroke:#000000;stroke-width:2.0px;stroke-linecap:butt;stroke-linejoin:miter;stroke-opacity:1"/>
<path class="bond-10 atom-4 atom-8" d="M 114.1,181.0 L 117.2,187.2" style="fill:none;fill-rule:evenodd;stroke:#000000;stroke-width:2.0px;stroke-linecap:butt;stroke-linejoin:miter;stroke-opacity:1"/>
<path class="bond-10 atom-4 atom-8" d="M 117.2,187.2 L 120.3,193.5" style="fill:none;fill-rule:evenodd;stroke:#0000FF;stroke-width:2.0px;stroke-linecap:butt;stroke-linejoin:miter;stroke-opacity:1"/>
<path class="bond-11 atom-5 atom-6" d="M 126.5,168.8 L 141.9,176.9" style="fill:none;fill-rule:evenodd;stroke:#000000;stroke-width:2.0px;stroke-linecap:butt;stroke-linejoin:miter;stroke-opacity:1"/>
<path class="bond-12 atom-6 atom-7" d="M 141.9,176.9 L 140.7,184.0" style="fill:none;fill-rule:evenodd;stroke:#000000;stroke-width:2.0px;stroke-linecap:butt;stroke-linejoin:miter;stroke-opacity:1"/>
<path class="bond-12 atom-6 atom-7" d="M 140.7,184.0 L 139.5,191.0" style="fill:none;fill-rule:evenodd;stroke:#0000FF;stroke-width:2.0px;stroke-linecap:butt;stroke-linejoin:miter;stroke-opacity:1"/>
<path class="bond-12 atom-6 atom-7" d="M 138.1,178.4 L 137.3,183.4" style="fill:none;fill-rule:evenodd;stroke:#000000;stroke-width:2.0px;stroke-linecap:butt;stroke-linejoin:miter;stroke-opacity:1"/>
<path class="bond-12 atom-6 atom-7" d="M 137.3,183.4 L 136.4,188.3" style="fill:none;fill-rule:evenodd;stroke:#0000FF;stroke-width:2.0px;stroke-linecap:butt;stroke-linejoin:miter;stroke-opacity:1"/>
<path class="bond-13 atom-6 atom-9" d="M 141.9,176.9 L 157.5,169.2" style="fill:none;fill-rule:evenodd;stroke:#000000;stroke-width:2.0px;stroke-linecap:butt;stroke-linejoin:miter;stroke-opacity:1"/>
<path class="bond-14 atom-7 atom-8" d="M 136.5,194.4 L 124.2,196.2" style="fill:none;fill-rule:evenodd;stroke:#0000FF;stroke-width:2.0px;stroke-linecap:butt;stroke-linejoin:miter;stroke-opacity:1"/>
<path class="bond-15 atom-8 atom-33" d="M 120.2,199.6 L 117.7,204.2" style="fill:none;fill-rule:evenodd;stroke:#0000FF;stroke-width:2.0px;stroke-linecap:butt;stroke-linejoin:miter;stroke-opacity:1"/>
<path class="bond-15 atom-8 atom-33" d="M 117.7,204.2 L 115.3,208.9" style="fill:none;fill-rule:evenodd;stroke:#000000;stroke-width:2.0px;stroke-linecap:butt;stroke-linejoin:miter;stroke-opacity:1"/>
<path class="bond-16 atom-9 atom-13" d="M 157.5,169.2 L 173.1,161.5" style="fill:none;fill-rule:evenodd;stroke:#000000;stroke-width:2.0px;stroke-linecap:butt;stroke-linejoin:miter;stroke-opacity:1"/>
<path class="bond-17 atom-9 atom-34" d="M 157.5,169.2 L 163.7,181.8" style="fill:none;fill-rule:evenodd;stroke:#000000;stroke-width:2.0px;stroke-linecap:butt;stroke-linejoin:miter;stroke-opacity:1"/>
<path class="bond-18 atom-9 atom-35" d="M 157.5,169.2 L 151.3,156.7" style="fill:none;fill-rule:evenodd;stroke:#000000;stroke-width:2.0px;stroke-linecap:butt;stroke-linejoin:miter;stroke-opacity:1"/>
<path class="bond-19 atom-10 atom-11" d="M 86.9,126.4 L 94.1,128.4" style="fill:none;fill-rule:evenodd;stroke:#0000FF;stroke-width:2.0px;stroke-linecap:butt;stroke-linejoin:miter;stroke-opacity:1"/>
<path class="bond-19 atom-10 atom-11" d="M 94.1,128.4 L 101.2,130.4" style="fill:none;fill-rule:evenodd;stroke:#000000;stroke-width:2.0px;stroke-linecap:butt;stroke-linejoin:miter;stroke-opacity:1"/>
<path class="bond-20 atom-10 atom-25" d="M 82.1,127.6 L 76.5,132.1" style="fill:none;fill-rule:evenodd;stroke:#0000FF;stroke-width:2.0px;stroke-linecap:butt;stroke-linejoin:miter;stroke-opacity:1"/>
<path class="bond-20 atom-10 atom-25" d="M 76.5,132.1 L 70.8,136.5" style="fill:none;fill-rule:evenodd;stroke:#000000;stroke-width:2.0px;stroke-linecap:butt;stroke-linejoin:miter;stroke-opacity:1"/>
<path class="bond-21 atom-10 atom-28" d="M 83.4,122.7 L 80.9,116.0" style="fill:none;fill-rule:evenodd;stroke:#0000FF;stroke-width:2.0px;stroke-linecap:butt;stroke-linejoin:miter;stroke-opacity:1"/>
<path class="bond-21 atom-10 atom-28" d="M 80.9,116.0 L 78.5,109.4" style="fill:none;fill-rule:evenodd;stroke:#000000;stroke-width:2.0px;stroke-linecap:butt;stroke-linejoin:miter;stroke-opacity:1"/>
<path class="bond-22 atom-11 atom-12" d="M 100.0,129.2 L 104.8,124.5" style="fill:none;fill-rule:evenodd;stroke:#000000;stroke-width:2.0px;stroke-linecap:butt;stroke-linejoin:miter;stroke-opacity:1"/>
<path class="bond-22 atom-11 atom-12" d="M 104.8,124.5 L 109.6,119.8" style="fill:none;fill-rule:evenodd;stroke:#FF0000;stroke-width:2.0px;stroke-linecap:butt;stroke-linejoin:miter;stroke-opacity:1"/>
<path class="bond-22 atom-11 atom-12" d="M 102.4,131.7 L 107.3,127.0" style="fill:none;fill-rule:evenodd;stroke:#000000;stroke-width:2.0px;stroke-linecap:butt;stroke-linejoin:miter;stroke-opacity:1"/>
<path class="bond-22 atom-11 atom-12" d="M 107.3,127.0 L 112.1,122.3" style="fill:none;fill-rule:evenodd;stroke:#FF0000;stroke-width:2.0px;stroke-linecap:butt;stroke-linejoin:miter;stroke-opacity:1"/>
<path class="bond-23 atom-13 atom-14" d="M 173.1,161.5 L 187.5,171.2" style="fill:none;fill-rule:evenodd;stroke:#000000;stroke-width:2.0px;stroke-linecap:butt;stroke-linejoin:miter;stroke-opacity:1"/>
<path class="bond-23 atom-13 atom-14" d="M 177.2,160.1 L 187.3,166.9" style="fill:none;fill-rule:evenodd;stroke:#000000;stroke-width:2.0px;stroke-linecap:butt;stroke-linejoin:miter;stroke-opacity:1"/>
<path class="bond-24 atom-13 atom-18" d="M 173.1,161.5 L 174.2,144.2" style="fill:none;fill-rule:evenodd;stroke:#000000;stroke-width:2.0px;stroke-linecap:butt;stroke-linejoin:miter;stroke-opacity:1"/>
<path class="bond-25 atom-14 atom-15" d="M 187.5,171.2 L 203.1,163.5" style="fill:none;fill-rule:evenodd;stroke:#000000;stroke-width:2.0px;stroke-linecap:butt;stroke-linejoin:miter;stroke-opacity:1"/>
<path class="bond-26 atom-14 atom-36" d="M 187.5,171.2 L 186.6,185.5" style="fill:none;fill-rule:evenodd;stroke:#000000;stroke-width:2.0px;stroke-linecap:butt;stroke-linejoin:miter;stroke-opacity:1"/>
<path class="bond-27 atom-15 atom-16" d="M 203.1,163.5 L 204.3,146.2" style="fill:none;fill-rule:evenodd;stroke:#000000;stroke-width:2.0px;stroke-linecap:butt;stroke-linejoin:miter;stroke-opacity:1"/>
<path class="bond-27 atom-15 atom-16" d="M 199.8,160.7 L 200.6,148.5" style="fill:none;fill-rule:evenodd;stroke:#000000;stroke-width:2.0px;stroke-linecap:butt;stroke-linejoin:miter;stroke-opacity:1"/>
<path class="bond-28 atom-15 atom-37" d="M 203.1,163.5 L 215.1,171.5" style="fill:none;fill-rule:evenodd;stroke:#000000;stroke-width:2.0px;stroke-linecap:butt;stroke-linejoin:miter;stroke-opacity:1"/>
<path class="bond-29 atom-16 atom-17" d="M 204.3,146.2 L 189.8,136.5" style="fill:none;fill-rule:evenodd;stroke:#000000;stroke-width:2.0px;stroke-linecap:butt;stroke-linejoin:miter;stroke-opacity:1"/>
<path class="bond-30 atom-16 atom-19" d="M 204.3,146.2 L 219.8,138.5" style="fill:none;fill-rule:evenodd;stroke:#000000;stroke-width:2.0px;stroke-linecap:butt;stroke-linejoin:miter;stroke-opacity:1"/>
<path class="bond-31 atom-17 atom-18" d="M 189.8,136.5 L 174.2,144.2" style="fill:none;fill-rule:evenodd;stroke:#000000;stroke-width:2.0px;stroke-linecap:butt;stroke-linejoin:miter;stroke-opacity:1"/>
<path class="bond-31 atom-17 atom-18" d="M 189.0,140.8 L 178.1,146.2" style="fill:none;fill-rule:evenodd;stroke:#000000;stroke-width:2.0px;stroke-linecap:butt;stroke-linejoin:miter;stroke-opacity:1"/>
<path class="bond-32 atom-17 atom-38" d="M 189.8,136.5 L 190.7,122.2" style="fill:none;fill-rule:evenodd;stroke:#000000;stroke-width:2.0px;stroke-linecap:butt;stroke-linejoin:miter;stroke-opacity:1"/>
<path class="bond-33 atom-18 atom-39" d="M 174.2,144.2 L 162.2,136.2" style="fill:none;fill-rule:evenodd;stroke:#000000;stroke-width:2.0px;stroke-linecap:butt;stroke-linejoin:miter;stroke-opacity:1"/>
<path class="bond-34 atom-19 atom-20" d="M 219.8,138.5 L 222.8,121.3" style="fill:none;fill-rule:evenodd;stroke:#000000;stroke-width:2.0px;stroke-linecap:butt;stroke-linejoin:miter;stroke-opacity:1"/>
<path class="bond-34 atom-19 atom-20" d="M 223.7,136.5 L 225.8,124.5" style="fill:none;fill-rule:evenodd;stroke:#000000;stroke-width:2.0px;stroke-linecap:butt;stroke-linejoin:miter;stroke-opacity:1"/>
<path class="bond-35 atom-19 atom-23" d="M 219.8,138.5 L 235.2,146.6" style="fill:none;fill-rule:evenodd;stroke:#000000;stroke-width:2.0px;stroke-linecap:butt;stroke-linejoin:miter;stroke-opacity:1"/>
<path class="bond-36 atom-20 atom-21" d="M 222.8,121.3 L 230.2,120.3" style="fill:none;fill-rule:evenodd;stroke:#000000;stroke-width:2.0px;stroke-linecap:butt;stroke-linejoin:miter;stroke-opacity:1"/>
<path class="bond-36 atom-20 atom-21" d="M 230.2,120.3 L 237.6,119.2" style="fill:none;fill-rule:evenodd;stroke:#0000FF;stroke-width:2.0px;stroke-linecap:butt;stroke-linejoin:miter;stroke-opacity:1"/>
<path class="bond-37 atom-20 atom-40" d="M 222.8,121.3 L 213.1,111.4" style="fill:none;fill-rule:evenodd;stroke:#000000;stroke-width:2.0px;stroke-linecap:butt;stroke-linejoin:miter;stroke-opacity:1"/>
<path class="bond-38 atom-21 atom-22" d="M 241.5,121.9 L 246.2,131.4" style="fill:none;fill-rule:evenodd;stroke:#0000FF;stroke-width:2.0px;stroke-linecap:butt;stroke-linejoin:miter;stroke-opacity:1"/>
<path class="bond-39 atom-21 atom-24" d="M 241.6,115.8 L 244.8,109.6" style="fill:none;fill-rule:evenodd;stroke:#0000FF;stroke-width:2.0px;stroke-linecap:butt;stroke-linejoin:miter;stroke-opacity:1"/>
<path class="bond-39 atom-21 atom-24" d="M 244.8,109.6 L 248.1,103.4" style="fill:none;fill-rule:evenodd;stroke:#000000;stroke-width:2.0px;stroke-linecap:butt;stroke-linejoin:miter;stroke-opacity:1"/>
<path class="bond-40 atom-22 atom-23" d="M 245.2,136.8 L 240.2,141.7" style="fill:none;fill-rule:evenodd;stroke:#0000FF;stroke-width:2.0px;stroke-linecap:butt;stroke-linejoin:miter;stroke-opacity:1"/>
<path class="bond-40 atom-22 atom-23" d="M 240.2,141.7 L 235.2,146.6" style="fill:none;fill-rule:evenodd;stroke:#000000;stroke-width:2.0px;stroke-linecap:butt;stroke-linejoin:miter;stroke-opacity:1"/>
<path class="bond-40 atom-22 atom-23" d="M 241.3,135.8 L 237.8,139.2" style="fill:none;fill-rule:evenodd;stroke:#0000FF;stroke-width:2.0px;stroke-linecap:butt;stroke-linejoin:miter;stroke-opacity:1"/>
<path class="bond-40 atom-22 atom-23" d="M 237.8,139.2 L 234.3,142.6" style="fill:none;fill-rule:evenodd;stroke:#000000;stroke-width:2.0px;stroke-linecap:butt;stroke-linejoin:miter;stroke-opacity:1"/>
<path class="bond-41 atom-23 atom-41" d="M 235.2,146.6 L 237.3,160.7" style="fill:none;fill-rule:evenodd;stroke:#000000;stroke-width:2.0px;stroke-linecap:butt;stroke-linejoin:miter;stroke-opacity:1"/>
<path class="bond-42 atom-24 atom-42" d="M 248.1,103.4 L 261.0,110.2" style="fill:none;fill-rule:evenodd;stroke:#000000;stroke-width:2.0px;stroke-linecap:butt;stroke-linejoin:miter;stroke-opacity:1"/>
<path class="bond-43 atom-24 atom-43" d="M 248.1,103.4 L 235.2,96.7" style="fill:none;fill-rule:evenodd;stroke:#000000;stroke-width:2.0px;stroke-linecap:butt;stroke-linejoin:miter;stroke-opacity:1"/>
<path class="bond-44 atom-24 atom-44" d="M 248.1,103.4 L 254.6,91.1" style="fill:none;fill-rule:evenodd;stroke:#000000;stroke-width:2.0px;stroke-linecap:butt;stroke-linejoin:miter;stroke-opacity:1"/>
<path class="bond-45 atom-25 atom-26" d="M 70.8,136.5 L 56.4,126.8" style="fill:none;fill-rule:evenodd;stroke:#000000;stroke-width:2.0px;stroke-linecap:butt;stroke-linejoin:miter;stroke-opacity:1"/>
<path class="bond-46 atom-25 atom-45" d="M 70.8,136.5 L 77.3,141.6" style="fill:none;fill-rule:evenodd;stroke:#000000;stroke-width:2.0px;stroke-linecap:butt;stroke-linejoin:miter;stroke-opacity:1"/>
<path class="bond-47 atom-25 atom-46" d="M 70.8,136.5 L 62.2,146.8" style="fill:none;fill-rule:evenodd;stroke:#000000;stroke-width:2.0px;stroke-linecap:butt;stroke-linejoin:miter;stroke-opacity:1"/>
<path class="bond-48 atom-26 atom-27" d="M 56.4,126.8 L 61.1,110.1" style="fill:none;fill-rule:evenodd;stroke:#000000;stroke-width:2.0px;stroke-linecap:butt;stroke-linejoin:miter;stroke-opacity:1"/>
<path class="bond-49 atom-26 atom-29" d="M 56.4,126.8 L 49.7,124.2" style="fill:none;fill-rule:evenodd;stroke:#000000;stroke-width:2.0px;stroke-linecap:butt;stroke-linejoin:miter;stroke-opacity:1"/>
<path class="bond-49 atom-26 atom-29" d="M 49.7,124.2 L 43.1,121.5" style="fill:none;fill-rule:evenodd;stroke:#FF0000;stroke-width:2.0px;stroke-linecap:butt;stroke-linejoin:miter;stroke-opacity:1"/>
<path class="bond-50 atom-26 atom-47" d="M 53.8,130.5 L 54.8,131.0" style="fill:none;fill-rule:evenodd;stroke:#000000;stroke-width:1.0px;stroke-linecap:butt;stroke-linejoin:miter;stroke-opacity:1"/>
<path class="bond-50 atom-26 atom-47" d="M 51.3,134.2 L 53.3,135.2" style="fill:none;fill-rule:evenodd;stroke:#000000;stroke-width:1.0px;stroke-linecap:butt;stroke-linejoin:miter;stroke-opacity:1"/>
<path class="bond-50 atom-26 atom-47" d="M 48.7,137.8 L 51.7,139.4" style="fill:none;fill-rule:evenodd;stroke:#000000;stroke-width:1.0px;stroke-linecap:butt;stroke-linejoin:miter;stroke-opacity:1"/>
<path class="bond-51 atom-27 atom-28" d="M 61.1,110.1 L 78.5,109.4" style="fill:none;fill-rule:evenodd;stroke:#000000;stroke-width:2.0px;stroke-linecap:butt;stroke-linejoin:miter;stroke-opacity:1"/>
<path class="bond-52 atom-27 atom-48" d="M 61.1,110.1 L 50.1,106.8" style="fill:none;fill-rule:evenodd;stroke:#000000;stroke-width:2.0px;stroke-linecap:butt;stroke-linejoin:miter;stroke-opacity:1"/>
<path class="bond-53 atom-27 atom-49" d="M 61.1,110.1 L 62.0,95.8" style="fill:none;fill-rule:evenodd;stroke:#000000;stroke-width:2.0px;stroke-linecap:butt;stroke-linejoin:miter;stroke-opacity:1"/>
<path class="bond-54 atom-28 atom-50" d="M 78.5,109.4 L 76.4,95.2" style="fill:none;fill-rule:evenodd;stroke:#000000;stroke-width:2.0px;stroke-linecap:butt;stroke-linejoin:miter;stroke-opacity:1"/>
<path class="bond-55 atom-28 atom-51" d="M 78.5,109.4 L 92.8,105.8" style="fill:none;fill-rule:evenodd;stroke:#000000;stroke-width:2.0px;stroke-linecap:butt;stroke-linejoin:miter;stroke-opacity:1"/>
<path class="bond-56 atom-29 atom-52" d="M 39.4,117.3 L 38.4,113.6" style="fill:none;fill-rule:evenodd;stroke:#FF0000;stroke-width:2.0px;stroke-linecap:butt;stroke-linejoin:miter;stroke-opacity:1"/>
<path class="bond-56 atom-29 atom-52" d="M 38.4,113.6 L 37.4,109.8" style="fill:none;fill-rule:evenodd;stroke:#000000;stroke-width:2.0px;stroke-linecap:butt;stroke-linejoin:miter;stroke-opacity:1"/>
<path class="atom-7" d="M 137.9 191.6 L 139.5 194.2 Q 139.7 194.5, 139.9 194.9 Q 140.2 195.4, 140.2 195.4 L 140.2 191.6 L 140.8 191.6 L 140.8 196.5 L 140.2 196.5 L 138.4 193.7 Q 138.2 193.3, 138.0 192.9 Q 137.8 192.6, 137.7 192.4 L 137.7 196.5 L 137.1 196.5 L 137.1 191.6 L 137.9 191.6 " fill="#0000FF"/>
<path class="atom-8" d="M 120.7 194.1 L 122.3 196.7 Q 122.5 197.0, 122.7 197.4 Q 123.0 197.9, 123.0 197.9 L 123.0 194.1 L 123.6 194.1 L 123.6 199.0 L 123.0 199.0 L 121.2 196.2 Q 121.0 195.8, 120.8 195.4 Q 120.6 195.1, 120.5 194.9 L 120.5 199.0 L 119.9 199.0 L 119.9 194.1 L 120.7 194.1 " fill="#0000FF"/>
<path class="atom-10" d="M 83.4 123.3 L 85.0 125.9 Q 85.2 126.1, 85.4 126.6 Q 85.7 127.0, 85.7 127.1 L 85.7 123.3 L 86.4 123.3 L 86.4 128.2 L 85.7 128.2 L 84.0 125.3 Q 83.8 125.0, 83.5 124.6 Q 83.3 124.2, 83.3 124.1 L 83.3 128.2 L 82.6 128.2 L 82.6 123.3 L 83.4 123.3 " fill="#0000FF"/>
<path class="atom-12" d="M 111.4 118.3 Q 111.4 117.1, 112.0 116.5 Q 112.6 115.8, 113.7 115.8 Q 114.8 115.8, 115.4 116.5 Q 115.9 117.1, 115.9 118.3 Q 115.9 119.5, 115.3 120.2 Q 114.8 120.9, 113.7 120.9 Q 112.6 120.9, 112.0 120.2 Q 111.4 119.5, 111.4 118.3 M 113.7 120.3 Q 114.4 120.3, 114.8 119.8 Q 115.2 119.3, 115.2 118.3 Q 115.2 117.3, 114.8 116.9 Q 114.4 116.4, 113.7 116.4 Q 112.9 116.4, 112.5 116.8 Q 112.1 117.3, 112.1 118.3 Q 112.1 119.3, 112.5 119.8 Q 112.9 120.3, 113.7 120.3 " fill="#FF0000"/>
<path class="atom-21" d="M 238.9 116.4 L 240.5 119.0 Q 240.7 119.2, 240.9 119.7 Q 241.2 120.2, 241.2 120.2 L 241.2 116.4 L 241.9 116.4 L 241.9 121.3 L 241.2 121.3 L 239.4 118.4 Q 239.2 118.1, 239.0 117.7 Q 238.8 117.3, 238.8 117.2 L 238.8 121.3 L 238.1 121.3 L 238.1 116.4 L 238.9 116.4 " fill="#0000FF"/>
<path class="atom-22" d="M 246.6 132.0 L 248.2 134.6 Q 248.4 134.8, 248.6 135.3 Q 248.9 135.8, 248.9 135.8 L 248.9 132.0 L 249.5 132.0 L 249.5 136.9 L 248.9 136.9 L 247.1 134.0 Q 246.9 133.7, 246.7 133.3 Q 246.5 132.9, 246.4 132.8 L 246.4 136.9 L 245.8 136.9 L 245.8 132.0 L 246.6 132.0 " fill="#0000FF"/>
<path class="atom-29" d="M 38.0 120.4 Q 38.0 119.2, 38.6 118.6 Q 39.2 117.9, 40.2 117.9 Q 41.3 117.9, 41.9 118.6 Q 42.5 119.2, 42.5 120.4 Q 42.5 121.6, 41.9 122.3 Q 41.3 123.0, 40.2 123.0 Q 39.2 123.0, 38.6 122.3 Q 38.0 121.6, 38.0 120.4 M 40.2 122.4 Q 41.0 122.4, 41.4 121.9 Q 41.8 121.4, 41.8 120.4 Q 41.8 119.4, 41.4 118.9 Q 41.0 118.5, 40.2 118.5 Q 39.5 118.5, 39.1 118.9 Q 38.7 119.4, 38.7 120.4 Q 38.7 121.4, 39.1 121.9 Q 39.5 122.4, 40.2 122.4 " fill="#FF0000"/>
<path class="atom-30" d="M 132.8 137.4 L 133.4 137.4 L 133.4 139.5 L 135.9 139.5 L 135.9 137.4 L 136.6 137.4 L 136.6 142.3 L 135.9 142.3 L 135.9 140.0 L 133.4 140.0 L 133.4 142.3 L 132.8 142.3 L 132.8 137.4 " fill="#000000"/>
<path class="atom-31" d="M 83.0 185.9 L 83.6 185.9 L 83.6 188.0 L 86.2 188.0 L 86.2 185.9 L 86.8 185.9 L 86.8 190.8 L 86.2 190.8 L 86.2 188.6 L 83.6 188.6 L 83.6 190.8 L 83.0 190.8 L 83.0 185.9 " fill="#000000"/>
<path class="atom-32" d="M 80.6 152.5 L 81.3 152.5 L 81.3 154.6 L 83.8 154.6 L 83.8 152.5 L 84.5 152.5 L 84.5 157.5 L 83.8 157.5 L 83.8 155.2 L 81.3 155.2 L 81.3 157.5 L 80.6 157.5 L 80.6 152.5 " fill="#000000"/>
<path class="atom-33" d="M 111.8 209.5 L 112.4 209.5 L 112.4 211.6 L 114.9 211.6 L 114.9 209.5 L 115.6 209.5 L 115.6 214.4 L 114.9 214.4 L 114.9 212.1 L 112.4 212.1 L 112.4 214.4 L 111.8 214.4 L 111.8 209.5 " fill="#000000"/>
<path class="atom-34" d="M 163.3 182.4 L 163.9 182.4 L 163.9 184.4 L 166.4 184.4 L 166.4 182.4 L 167.1 182.4 L 167.1 187.3 L 166.4 187.3 L 166.4 185.0 L 163.9 185.0 L 163.9 187.3 L 163.3 187.3 L 163.3 182.4 " fill="#000000"/>
<path class="atom-35" d="M 147.9 151.2 L 148.5 151.2 L 148.5 153.3 L 151.1 153.3 L 151.1 151.2 L 151.7 151.2 L 151.7 156.1 L 151.1 156.1 L 151.1 153.8 L 148.5 153.8 L 148.5 156.1 L 147.9 156.1 L 147.9 151.2 " fill="#000000"/>
<path class="atom-36" d="M 184.5 186.1 L 185.1 186.1 L 185.1 188.2 L 187.7 188.2 L 187.7 186.1 L 188.3 186.1 L 188.3 191.0 L 187.7 191.0 L 187.7 188.7 L 185.1 188.7 L 185.1 191.0 L 184.5 191.0 L 184.5 186.1 " fill="#000000"/>
<path class="atom-37" d="M 215.7 170.7 L 216.3 170.7 L 216.3 172.8 L 218.8 172.8 L 218.8 170.7 L 219.5 170.7 L 219.5 175.6 L 218.8 175.6 L 218.8 173.3 L 216.3 173.3 L 216.3 175.6 L 215.7 175.6 L 215.7 170.7 " fill="#000000"/>
<path class="atom-38" d="M 189.0 116.7 L 189.7 116.7 L 189.7 118.8 L 192.2 118.8 L 192.2 116.7 L 192.9 116.7 L 192.9 121.6 L 192.2 121.6 L 192.2 119.3 L 189.7 119.3 L 189.7 121.6 L 189.0 121.6 L 189.0 116.7 " fill="#000000"/>
<path class="atom-39" d="M 157.8 132.1 L 158.5 132.1 L 158.5 134.2 L 161.0 134.2 L 161.0 132.1 L 161.7 132.1 L 161.7 137.0 L 161.0 137.0 L 161.0 134.7 L 158.5 134.7 L 158.5 137.0 L 157.8 137.0 L 157.8 132.1 " fill="#000000"/>
<path class="atom-40" d="M 208.7 106.4 L 209.4 106.4 L 209.4 108.5 L 211.9 108.5 L 211.9 106.4 L 212.6 106.4 L 212.6 111.3 L 211.9 111.3 L 211.9 109.1 L 209.4 109.1 L 209.4 111.3 L 208.7 111.3 L 208.7 106.4 " fill="#000000"/>
<path class="atom-41" d="M 235.8 161.3 L 236.5 161.3 L 236.5 163.4 L 239.0 163.4 L 239.0 161.3 L 239.7 161.3 L 239.7 166.2 L 239.0 166.2 L 239.0 163.9 L 236.5 163.9 L 236.5 166.2 L 235.8 166.2 L 235.8 161.3 " fill="#000000"/>
<path class="atom-42" d="M 261.5 109.1 L 262.2 109.1 L 262.2 111.2 L 264.7 111.2 L 264.7 109.1 L 265.4 109.1 L 265.4 114.0 L 264.7 114.0 L 264.7 111.7 L 262.2 111.7 L 262.2 114.0 L 261.5 114.0 L 261.5 109.1 " fill="#000000"/>
<path class="atom-43" d="M 230.8 92.9 L 231.4 92.9 L 231.4 95.0 L 233.9 95.0 L 233.9 92.9 L 234.6 92.9 L 234.6 97.8 L 233.9 97.8 L 233.9 95.5 L 231.4 95.5 L 231.4 97.8 L 230.8 97.8 L 230.8 92.9 " fill="#000000"/>
<path class="atom-44" d="M 254.2 85.6 L 254.9 85.6 L 254.9 87.7 L 257.4 87.7 L 257.4 85.6 L 258.1 85.6 L 258.1 90.5 L 257.4 90.5 L 257.4 88.3 L 254.9 88.3 L 254.9 90.5 L 254.2 90.5 L 254.2 85.6 " fill="#000000"/>
<path class="atom-45" d="M 77.8 141.2 L 78.5 141.2 L 78.5 143.2 L 81.0 143.2 L 81.0 141.2 L 81.7 141.2 L 81.7 146.1 L 81.0 146.1 L 81.0 143.8 L 78.5 143.8 L 78.5 146.1 L 77.8 146.1 L 77.8 141.2 " fill="#000000"/>
<path class="atom-46" d="M 57.8 147.4 L 58.5 147.4 L 58.5 149.5 L 61.0 149.5 L 61.0 147.4 L 61.7 147.4 L 61.7 152.3 L 61.0 152.3 L 61.0 150.0 L 58.5 150.0 L 58.5 152.3 L 57.8 152.3 L 57.8 147.4 " fill="#000000"/>
<path class="atom-47" d="M 46.4 139.7 L 47.0 139.7 L 47.0 141.8 L 49.6 141.8 L 49.6 139.7 L 50.2 139.7 L 50.2 144.7 L 49.6 144.7 L 49.6 142.4 L 47.0 142.4 L 47.0 144.7 L 46.4 144.7 L 46.4 139.7 " fill="#000000"/>
<path class="atom-48" d="M 45.7 103.6 L 46.4 103.6 L 46.4 105.7 L 48.9 105.7 L 48.9 103.6 L 49.6 103.6 L 49.6 108.5 L 48.9 108.5 L 48.9 106.2 L 46.4 106.2 L 46.4 108.5 L 45.7 108.5 L 45.7 103.6 " fill="#000000"/>
<path class="atom-49" d="M 60.3 90.3 L 61.0 90.3 L 61.0 92.4 L 63.5 92.4 L 63.5 90.3 L 64.2 90.3 L 64.2 95.2 L 63.5 95.2 L 63.5 92.9 L 61.0 92.9 L 61.0 95.2 L 60.3 95.2 L 60.3 90.3 " fill="#000000"/>
<path class="atom-50" d="M 74.1 89.7 L 74.7 89.7 L 74.7 91.8 L 77.2 91.8 L 77.2 89.7 L 77.9 89.7 L 77.9 94.7 L 77.2 94.7 L 77.2 92.4 L 74.7 92.4 L 74.7 94.7 L 74.1 94.7 L 74.1 89.7 " fill="#000000"/>
<path class="atom-51" d="M 93.4 102.7 L 94.1 102.7 L 94.1 104.8 L 96.6 104.8 L 96.6 102.7 L 97.2 102.7 L 97.2 107.6 L 96.6 107.6 L 96.6 105.3 L 94.1 105.3 L 94.1 107.6 L 93.4 107.6 L 93.4 102.7 " fill="#000000"/>
<path class="atom-52" d="M 34.6 104.3 L 35.3 104.3 L 35.3 106.4 L 37.8 106.4 L 37.8 104.3 L 38.5 104.3 L 38.5 109.3 L 37.8 109.3 L 37.8 107.0 L 35.3 107.0 L 35.3 109.3 L 34.6 109.3 L 34.6 104.3 " fill="#000000"/>
<path class="bond-0 atom-0 atom-1" d="M 384.4,155.7 L 400.4,162.4" style="fill:none;fill-rule:evenodd;stroke:#000000;stroke-width:2.0px;stroke-linecap:butt;stroke-linejoin:miter;stroke-opacity:1"/>
<path class="bond-0 atom-0 atom-1" d="M 385.4,159.9 L 396.6,164.6" style="fill:none;fill-rule:evenodd;stroke:#000000;stroke-width:2.0px;stroke-linecap:butt;stroke-linejoin:miter;stroke-opacity:1"/>
<path class="bond-1 atom-0 atom-3" d="M 384.4,155.7 L 370.5,166.2" style="fill:none;fill-rule:evenodd;stroke:#000000;stroke-width:2.0px;stroke-linecap:butt;stroke-linejoin:miter;stroke-opacity:1"/>
<path class="bond-2 atom-0 atom-11" d="M 384.4,155.7 L 382.2,138.4" style="fill:none;fill-rule:evenodd;stroke:#000000;stroke-width:2.0px;stroke-linecap:butt;stroke-linejoin:miter;stroke-opacity:1"/>
<path class="bond-3 atom-1 atom-5" d="M 400.4,162.4 L 402.5,179.7" style="fill:none;fill-rule:evenodd;stroke:#000000;stroke-width:2.0px;stroke-linecap:butt;stroke-linejoin:miter;stroke-opacity:1"/>
<path class="bond-4 atom-1 atom-28" d="M 400.4,162.4 L 411.7,153.8" style="fill:none;fill-rule:evenodd;stroke:#000000;stroke-width:2.0px;stroke-linecap:butt;stroke-linejoin:miter;stroke-opacity:1"/>
<path class="bond-5 atom-2 atom-3" d="M 372.6,183.4 L 370.5,166.2" style="fill:none;fill-rule:evenodd;stroke:#000000;stroke-width:2.0px;stroke-linecap:butt;stroke-linejoin:miter;stroke-opacity:1"/>
<path class="bond-5 atom-2 atom-3" d="M 375.8,180.4 L 374.3,168.3" style="fill:none;fill-rule:evenodd;stroke:#000000;stroke-width:2.0px;stroke-linecap:butt;stroke-linejoin:miter;stroke-opacity:1"/>
<path class="bond-6 atom-2 atom-4" d="M 372.6,183.4 L 388.7,190.2" style="fill:none;fill-rule:evenodd;stroke:#000000;stroke-width:2.0px;stroke-linecap:butt;stroke-linejoin:miter;stroke-opacity:1"/>
<path class="bond-7 atom-2 atom-29" d="M 372.6,183.4 L 361.3,192.0" style="fill:none;fill-rule:evenodd;stroke:#000000;stroke-width:2.0px;stroke-linecap:butt;stroke-linejoin:miter;stroke-opacity:1"/>
<path class="bond-8 atom-3 atom-30" d="M 370.5,166.2 L 357.0,160.5" style="fill:none;fill-rule:evenodd;stroke:#000000;stroke-width:2.0px;stroke-linecap:butt;stroke-linejoin:miter;stroke-opacity:1"/>
<path class="bond-9 atom-4 atom-5" d="M 388.7,190.2 L 402.5,179.7" style="fill:none;fill-rule:evenodd;stroke:#000000;stroke-width:2.0px;stroke-linecap:butt;stroke-linejoin:miter;stroke-opacity:1"/>
<path class="bond-9 atom-4 atom-5" d="M 388.6,185.8 L 398.3,178.5" style="fill:none;fill-rule:evenodd;stroke:#000000;stroke-width:2.0px;stroke-linecap:butt;stroke-linejoin:miter;stroke-opacity:1"/>
<path class="bond-10 atom-4 atom-8" d="M 388.7,190.2 L 391.0,196.9" style="fill:none;fill-rule:evenodd;stroke:#000000;stroke-width:2.0px;stroke-linecap:butt;stroke-linejoin:miter;stroke-opacity:1"/>
<path class="bond-10 atom-4 atom-8" d="M 391.0,196.9 L 393.3,203.6" style="fill:none;fill-rule:evenodd;stroke:#0000FF;stroke-width:2.0px;stroke-linecap:butt;stroke-linejoin:miter;stroke-opacity:1"/>
<path class="bond-11 atom-5 atom-6" d="M 402.5,179.7 L 416.8,189.6" style="fill:none;fill-rule:evenodd;stroke:#000000;stroke-width:2.0px;stroke-linecap:butt;stroke-linejoin:miter;stroke-opacity:1"/>
<path class="bond-12 atom-6 atom-7" d="M 416.8,189.6 L 414.7,196.4" style="fill:none;fill-rule:evenodd;stroke:#000000;stroke-width:2.0px;stroke-linecap:butt;stroke-linejoin:miter;stroke-opacity:1"/>
<path class="bond-12 atom-6 atom-7" d="M 414.7,196.4 L 412.7,203.2" style="fill:none;fill-rule:evenodd;stroke:#0000FF;stroke-width:2.0px;stroke-linecap:butt;stroke-linejoin:miter;stroke-opacity:1"/>
<path class="bond-12 atom-6 atom-7" d="M 412.8,190.7 L 411.4,195.4" style="fill:none;fill-rule:evenodd;stroke:#000000;stroke-width:2.0px;stroke-linecap:butt;stroke-linejoin:miter;stroke-opacity:1"/>
<path class="bond-12 atom-6 atom-7" d="M 411.4,195.4 L 409.9,200.2" style="fill:none;fill-rule:evenodd;stroke:#0000FF;stroke-width:2.0px;stroke-linecap:butt;stroke-linejoin:miter;stroke-opacity:1"/>
<path class="bond-13 atom-6 atom-9" d="M 416.8,189.6 L 433.2,183.9" style="fill:none;fill-rule:evenodd;stroke:#000000;stroke-width:2.0px;stroke-linecap:butt;stroke-linejoin:miter;stroke-opacity:1"/>
<path class="bond-14 atom-7 atom-8" d="M 409.3,206.3 L 396.8,206.5" style="fill:none;fill-rule:evenodd;stroke:#0000FF;stroke-width:2.0px;stroke-linecap:butt;stroke-linejoin:miter;stroke-opacity:1"/>
<path class="bond-15 atom-8 atom-31" d="M 392.2,209.6 L 389.4,213.7" style="fill:none;fill-rule:evenodd;stroke:#0000FF;stroke-width:2.0px;stroke-linecap:butt;stroke-linejoin:miter;stroke-opacity:1"/>
<path class="bond-15 atom-8 atom-31" d="M 389.4,213.7 L 386.5,217.8" style="fill:none;fill-rule:evenodd;stroke:#000000;stroke-width:2.0px;stroke-linecap:butt;stroke-linejoin:miter;stroke-opacity:1"/>
<path class="bond-16 atom-9 atom-13" d="M 433.2,183.9 L 449.6,178.2" style="fill:none;fill-rule:evenodd;stroke:#000000;stroke-width:2.0px;stroke-linecap:butt;stroke-linejoin:miter;stroke-opacity:1"/>
<path class="bond-17 atom-9 atom-32" d="M 433.2,183.9 L 437.8,197.3" style="fill:none;fill-rule:evenodd;stroke:#000000;stroke-width:2.0px;stroke-linecap:butt;stroke-linejoin:miter;stroke-opacity:1"/>
<path class="bond-18 atom-9 atom-33" d="M 433.2,183.9 L 428.6,170.5" style="fill:none;fill-rule:evenodd;stroke:#000000;stroke-width:2.0px;stroke-linecap:butt;stroke-linejoin:miter;stroke-opacity:1"/>
<path class="bond-19 atom-10 atom-11" d="M 393.6,129.8 L 387.9,134.1" style="fill:none;fill-rule:evenodd;stroke:#0000FF;stroke-width:2.0px;stroke-linecap:butt;stroke-linejoin:miter;stroke-opacity:1"/>
<path class="bond-19 atom-10 atom-11" d="M 387.9,134.1 L 382.2,138.4" style="fill:none;fill-rule:evenodd;stroke:#000000;stroke-width:2.0px;stroke-linecap:butt;stroke-linejoin:miter;stroke-opacity:1"/>
<path class="bond-20 atom-10 atom-25" d="M 395.7,124.9 L 394.8,117.8" style="fill:none;fill-rule:evenodd;stroke:#0000FF;stroke-width:2.0px;stroke-linecap:butt;stroke-linejoin:miter;stroke-opacity:1"/>
<path class="bond-20 atom-10 atom-25" d="M 394.8,117.8 L 393.9,110.7" style="fill:none;fill-rule:evenodd;stroke:#000000;stroke-width:2.0px;stroke-linecap:butt;stroke-linejoin:miter;stroke-opacity:1"/>
<path class="bond-21 atom-10 atom-34" d="M 398.5,129.0 L 404.0,131.3" style="fill:none;fill-rule:evenodd;stroke:#0000FF;stroke-width:2.0px;stroke-linecap:butt;stroke-linejoin:miter;stroke-opacity:1"/>
<path class="bond-21 atom-10 atom-34" d="M 404.0,131.3 L 409.6,133.6" style="fill:none;fill-rule:evenodd;stroke:#000000;stroke-width:2.0px;stroke-linecap:butt;stroke-linejoin:miter;stroke-opacity:1"/>
<path class="bond-22 atom-11 atom-12" d="M 381.5,140.0 L 374.9,137.2" style="fill:none;fill-rule:evenodd;stroke:#000000;stroke-width:2.0px;stroke-linecap:butt;stroke-linejoin:miter;stroke-opacity:1"/>
<path class="bond-22 atom-11 atom-12" d="M 374.9,137.2 L 368.3,134.5" style="fill:none;fill-rule:evenodd;stroke:#FF0000;stroke-width:2.0px;stroke-linecap:butt;stroke-linejoin:miter;stroke-opacity:1"/>
<path class="bond-22 atom-11 atom-12" d="M 382.9,136.8 L 376.3,134.0" style="fill:none;fill-rule:evenodd;stroke:#000000;stroke-width:2.0px;stroke-linecap:butt;stroke-linejoin:miter;stroke-opacity:1"/>
<path class="bond-22 atom-11 atom-12" d="M 376.3,134.0 L 369.7,131.3" style="fill:none;fill-rule:evenodd;stroke:#FF0000;stroke-width:2.0px;stroke-linecap:butt;stroke-linejoin:miter;stroke-opacity:1"/>
<path class="bond-23 atom-13 atom-14" d="M 449.6,178.2 L 462.8,189.6" style="fill:none;fill-rule:evenodd;stroke:#000000;stroke-width:2.0px;stroke-linecap:butt;stroke-linejoin:miter;stroke-opacity:1"/>
<path class="bond-23 atom-13 atom-14" d="M 453.9,177.3 L 463.1,185.3" style="fill:none;fill-rule:evenodd;stroke:#000000;stroke-width:2.0px;stroke-linecap:butt;stroke-linejoin:miter;stroke-opacity:1"/>
<path class="bond-24 atom-13 atom-18" d="M 449.6,178.2 L 452.9,161.2" style="fill:none;fill-rule:evenodd;stroke:#000000;stroke-width:2.0px;stroke-linecap:butt;stroke-linejoin:miter;stroke-opacity:1"/>
<path class="bond-25 atom-14 atom-15" d="M 462.8,189.6 L 479.2,183.9" style="fill:none;fill-rule:evenodd;stroke:#000000;stroke-width:2.0px;stroke-linecap:butt;stroke-linejoin:miter;stroke-opacity:1"/>
<path class="bond-26 atom-14 atom-35" d="M 462.8,189.6 L 460.1,203.6" style="fill:none;fill-rule:evenodd;stroke:#000000;stroke-width:2.0px;stroke-linecap:butt;stroke-linejoin:miter;stroke-opacity:1"/>
<path class="bond-27 atom-15 atom-16" d="M 479.2,183.9 L 482.5,166.8" style="fill:none;fill-rule:evenodd;stroke:#000000;stroke-width:2.0px;stroke-linecap:butt;stroke-linejoin:miter;stroke-opacity:1"/>
<path class="bond-27 atom-15 atom-16" d="M 476.3,180.7 L 478.6,168.8" style="fill:none;fill-rule:evenodd;stroke:#000000;stroke-width:2.0px;stroke-linecap:butt;stroke-linejoin:miter;stroke-opacity:1"/>
<path class="bond-28 atom-15 atom-36" d="M 479.2,183.9 L 489.8,193.1" style="fill:none;fill-rule:evenodd;stroke:#000000;stroke-width:2.0px;stroke-linecap:butt;stroke-linejoin:miter;stroke-opacity:1"/>
<path class="bond-29 atom-16 atom-17" d="M 482.5,166.8 L 469.3,155.5" style="fill:none;fill-rule:evenodd;stroke:#000000;stroke-width:2.0px;stroke-linecap:butt;stroke-linejoin:miter;stroke-opacity:1"/>
<path class="bond-30 atom-16 atom-19" d="M 482.5,166.8 L 498.9,161.2" style="fill:none;fill-rule:evenodd;stroke:#000000;stroke-width:2.0px;stroke-linecap:butt;stroke-linejoin:miter;stroke-opacity:1"/>
<path class="bond-31 atom-17 atom-18" d="M 469.3,155.5 L 452.9,161.2" style="fill:none;fill-rule:evenodd;stroke:#000000;stroke-width:2.0px;stroke-linecap:butt;stroke-linejoin:miter;stroke-opacity:1"/>
<path class="bond-31 atom-17 atom-18" d="M 468.0,159.6 L 456.5,163.6" style="fill:none;fill-rule:evenodd;stroke:#000000;stroke-width:2.0px;stroke-linecap:butt;stroke-linejoin:miter;stroke-opacity:1"/>
<path class="bond-32 atom-17 atom-37" d="M 469.3,155.5 L 472.0,141.4" style="fill:none;fill-rule:evenodd;stroke:#000000;stroke-width:2.0px;stroke-linecap:butt;stroke-linejoin:miter;stroke-opacity:1"/>
<path class="bond-33 atom-18 atom-38" d="M 452.9,161.2 L 442.3,152.0" style="fill:none;fill-rule:evenodd;stroke:#000000;stroke-width:2.0px;stroke-linecap:butt;stroke-linejoin:miter;stroke-opacity:1"/>
<path class="bond-34 atom-19 atom-20" d="M 498.9,161.2 L 503.9,144.5" style="fill:none;fill-rule:evenodd;stroke:#000000;stroke-width:2.0px;stroke-linecap:butt;stroke-linejoin:miter;stroke-opacity:1"/>
<path class="bond-34 atom-19 atom-20" d="M 503.0,159.7 L 506.5,148.0" style="fill:none;fill-rule:evenodd;stroke:#000000;stroke-width:2.0px;stroke-linecap:butt;stroke-linejoin:miter;stroke-opacity:1"/>
<path class="bond-35 atom-19 atom-23" d="M 498.9,161.2 L 513.2,171.1" style="fill:none;fill-rule:evenodd;stroke:#000000;stroke-width:2.0px;stroke-linecap:butt;stroke-linejoin:miter;stroke-opacity:1"/>
<path class="bond-36 atom-20 atom-21" d="M 503.9,144.5 L 511.4,144.4" style="fill:none;fill-rule:evenodd;stroke:#000000;stroke-width:2.0px;stroke-linecap:butt;stroke-linejoin:miter;stroke-opacity:1"/>
<path class="bond-36 atom-20 atom-21" d="M 511.4,144.4 L 518.9,144.2" style="fill:none;fill-rule:evenodd;stroke:#0000FF;stroke-width:2.0px;stroke-linecap:butt;stroke-linejoin:miter;stroke-opacity:1"/>
<path class="bond-37 atom-20 atom-39" d="M 503.9,144.5 L 495.8,133.7" style="fill:none;fill-rule:evenodd;stroke:#000000;stroke-width:2.0px;stroke-linecap:butt;stroke-linejoin:miter;stroke-opacity:1"/>
<path class="bond-38 atom-21 atom-22" d="M 522.4,147.2 L 526.0,157.6" style="fill:none;fill-rule:evenodd;stroke:#0000FF;stroke-width:2.0px;stroke-linecap:butt;stroke-linejoin:miter;stroke-opacity:1"/>
<path class="bond-39 atom-21 atom-24" d="M 523.4,141.1 L 527.3,135.5" style="fill:none;fill-rule:evenodd;stroke:#0000FF;stroke-width:2.0px;stroke-linecap:butt;stroke-linejoin:miter;stroke-opacity:1"/>
<path class="bond-39 atom-21 atom-24" d="M 527.3,135.5 L 531.3,129.9" style="fill:none;fill-rule:evenodd;stroke:#000000;stroke-width:2.0px;stroke-linecap:butt;stroke-linejoin:miter;stroke-opacity:1"/>
<path class="bond-40 atom-22 atom-23" d="M 524.6,162.5 L 518.9,166.8" style="fill:none;fill-rule:evenodd;stroke:#0000FF;stroke-width:2.0px;stroke-linecap:butt;stroke-linejoin:miter;stroke-opacity:1"/>
<path class="bond-40 atom-22 atom-23" d="M 518.9,166.8 L 513.2,171.1" style="fill:none;fill-rule:evenodd;stroke:#000000;stroke-width:2.0px;stroke-linecap:butt;stroke-linejoin:miter;stroke-opacity:1"/>
<path class="bond-40 atom-22 atom-23" d="M 520.8,161.0 L 516.8,164.0" style="fill:none;fill-rule:evenodd;stroke:#0000FF;stroke-width:2.0px;stroke-linecap:butt;stroke-linejoin:miter;stroke-opacity:1"/>
<path class="bond-40 atom-22 atom-23" d="M 516.8,164.0 L 512.8,167.0" style="fill:none;fill-rule:evenodd;stroke:#000000;stroke-width:2.0px;stroke-linecap:butt;stroke-linejoin:miter;stroke-opacity:1"/>
<path class="bond-41 atom-23 atom-40" d="M 513.2,171.1 L 513.4,185.4" style="fill:none;fill-rule:evenodd;stroke:#000000;stroke-width:2.0px;stroke-linecap:butt;stroke-linejoin:miter;stroke-opacity:1"/>
<path class="bond-42 atom-24 atom-41" d="M 531.3,129.9 L 543.0,138.1" style="fill:none;fill-rule:evenodd;stroke:#000000;stroke-width:2.0px;stroke-linecap:butt;stroke-linejoin:miter;stroke-opacity:1"/>
<path class="bond-43 atom-24 atom-42" d="M 531.3,129.9 L 519.5,121.7" style="fill:none;fill-rule:evenodd;stroke:#000000;stroke-width:2.0px;stroke-linecap:butt;stroke-linejoin:miter;stroke-opacity:1"/>
<path class="bond-44 atom-24 atom-43" d="M 531.3,129.9 L 539.1,118.7" style="fill:none;fill-rule:evenodd;stroke:#000000;stroke-width:2.0px;stroke-linecap:butt;stroke-linejoin:miter;stroke-opacity:1"/>
<path class="bond-45 atom-25 atom-26" d="M 393.9,110.7 L 397.8,93.7" style="fill:none;fill-rule:evenodd;stroke:#000000;stroke-width:2.0px;stroke-linecap:butt;stroke-linejoin:miter;stroke-opacity:1"/>
<path class="bond-46 atom-25 atom-27" d="M 393.9,110.7 L 410.5,105.6" style="fill:none;fill-rule:evenodd;stroke:#000000;stroke-width:2.0px;stroke-linecap:butt;stroke-linejoin:miter;stroke-opacity:1"/>
<path class="bond-47 atom-25 atom-44" d="M 393.9,110.7 L 379.0,109.9" style="fill:none;fill-rule:evenodd;stroke:#000000;stroke-width:2.0px;stroke-linecap:butt;stroke-linejoin:miter;stroke-opacity:1"/>
<path class="bond-48 atom-26 atom-27" d="M 397.8,93.7 L 410.5,105.6" style="fill:none;fill-rule:evenodd;stroke:#000000;stroke-width:2.0px;stroke-linecap:butt;stroke-linejoin:miter;stroke-opacity:1"/>
<path class="bond-49 atom-26 atom-45" d="M 397.8,93.7 L 384.3,88.0" style="fill:none;fill-rule:evenodd;stroke:#000000;stroke-width:2.0px;stroke-linecap:butt;stroke-linejoin:miter;stroke-opacity:1"/>
<path class="bond-50 atom-26 atom-46" d="M 397.8,93.7 L 405.3,82.2" style="fill:none;fill-rule:evenodd;stroke:#000000;stroke-width:2.0px;stroke-linecap:butt;stroke-linejoin:miter;stroke-opacity:1"/>
<path class="bond-51 atom-27 atom-47" d="M 410.5,105.6 L 421.9,97.0" style="fill:none;fill-rule:evenodd;stroke:#000000;stroke-width:2.0px;stroke-linecap:butt;stroke-linejoin:miter;stroke-opacity:1"/>
<path class="bond-52 atom-27 atom-48" d="M 410.5,105.6 L 416.9,118.0" style="fill:none;fill-rule:evenodd;stroke:#000000;stroke-width:2.0px;stroke-linecap:butt;stroke-linejoin:miter;stroke-opacity:1"/>
<path class="atom-7" d="M 410.6 203.8 L 412.3 206.4 Q 412.4 206.7, 412.7 207.1 Q 412.9 207.6, 412.9 207.6 L 412.9 203.8 L 413.6 203.8 L 413.6 208.7 L 412.9 208.7 L 411.2 205.9 Q 411.0 205.5, 410.8 205.1 Q 410.6 204.8, 410.5 204.6 L 410.5 208.7 L 409.9 208.7 L 409.9 203.8 L 410.6 203.8 " fill="#0000FF"/>
<path class="atom-8" d="M 393.3 204.1 L 394.9 206.7 Q 395.0 207.0, 395.3 207.5 Q 395.6 207.9, 395.6 208.0 L 395.6 204.1 L 396.2 204.1 L 396.2 209.1 L 395.5 209.1 L 393.8 206.2 Q 393.6 205.9, 393.4 205.5 Q 393.2 205.1, 393.1 205.0 L 393.1 209.1 L 392.5 209.1 L 392.5 204.1 L 393.3 204.1 " fill="#0000FF"/>
<path class="atom-10" d="M 395.0 125.5 L 396.6 128.1 Q 396.7 128.3, 397.0 128.8 Q 397.3 129.3, 397.3 129.3 L 397.3 125.5 L 397.9 125.5 L 397.9 130.4 L 397.3 130.4 L 395.5 127.5 Q 395.3 127.2, 395.1 126.8 Q 394.9 126.4, 394.8 126.3 L 394.8 130.4 L 394.2 130.4 L 394.2 125.5 L 395.0 125.5 " fill="#0000FF"/>
<path class="atom-12" d="M 363.9 131.7 Q 363.9 130.5, 364.5 129.8 Q 365.1 129.2, 366.2 129.2 Q 367.3 129.2, 367.9 129.8 Q 368.4 130.5, 368.4 131.7 Q 368.4 132.9, 367.9 133.6 Q 367.3 134.2, 366.2 134.2 Q 365.1 134.2, 364.5 133.6 Q 363.9 132.9, 363.9 131.7 M 366.2 133.7 Q 366.9 133.7, 367.3 133.2 Q 367.7 132.7, 367.7 131.7 Q 367.7 130.7, 367.3 130.2 Q 366.9 129.7, 366.2 129.7 Q 365.4 129.7, 365.0 130.2 Q 364.6 130.7, 364.6 131.7 Q 364.6 132.7, 365.0 133.2 Q 365.4 133.7, 366.2 133.7 " fill="#FF0000"/>
<path class="atom-21" d="M 520.2 141.7 L 521.8 144.3 Q 522.0 144.6, 522.3 145.1 Q 522.5 145.5, 522.5 145.5 L 522.5 141.7 L 523.2 141.7 L 523.2 146.6 L 522.5 146.6 L 520.8 143.8 Q 520.6 143.5, 520.4 143.1 Q 520.2 142.7, 520.1 142.6 L 520.1 146.6 L 519.5 146.6 L 519.5 141.7 L 520.2 141.7 " fill="#0000FF"/>
<path class="atom-22" d="M 525.9 158.1 L 527.5 160.8 Q 527.7 161.0, 528.0 161.5 Q 528.2 161.9, 528.2 162.0 L 528.2 158.1 L 528.9 158.1 L 528.9 163.1 L 528.2 163.1 L 526.5 160.2 Q 526.3 159.9, 526.1 159.5 Q 525.9 159.1, 525.8 159.0 L 525.8 163.1 L 525.1 163.1 L 525.1 158.1 L 525.9 158.1 " fill="#0000FF"/>
<path class="atom-28" d="M 412.3 149.5 L 413.0 149.5 L 413.0 151.6 L 415.5 151.6 L 415.5 149.5 L 416.2 149.5 L 416.2 154.4 L 415.5 154.4 L 415.5 152.1 L 413.0 152.1 L 413.0 154.4 L 412.3 154.4 L 412.3 149.5 " fill="#000000"/>
<path class="atom-29" d="M 356.9 191.4 L 357.5 191.4 L 357.5 193.5 L 360.0 193.5 L 360.0 191.4 L 360.7 191.4 L 360.7 196.4 L 360.0 196.4 L 360.0 194.1 L 357.5 194.1 L 357.5 196.4 L 356.9 196.4 L 356.9 191.4 " fill="#000000"/>
<path class="atom-30" d="M 352.6 156.9 L 353.2 156.9 L 353.2 159.0 L 355.7 159.0 L 355.7 156.9 L 356.4 156.9 L 356.4 161.9 L 355.7 161.9 L 355.7 159.6 L 353.2 159.6 L 353.2 161.9 L 352.6 161.9 L 352.6 156.9 " fill="#000000"/>
<path class="atom-31" d="M 382.5 218.4 L 383.2 218.4 L 383.2 220.5 L 385.7 220.5 L 385.7 218.4 L 386.3 218.4 L 386.3 223.3 L 385.7 223.3 L 385.7 221.0 L 383.2 221.0 L 383.2 223.3 L 382.5 223.3 L 382.5 218.4 " fill="#000000"/>
<path class="atom-32" d="M 437.0 197.9 L 437.6 197.9 L 437.6 200.0 L 440.2 200.0 L 440.2 197.9 L 440.8 197.9 L 440.8 202.8 L 440.2 202.8 L 440.2 200.5 L 437.6 200.5 L 437.6 202.8 L 437.0 202.8 L 437.0 197.9 " fill="#000000"/>
<path class="atom-33" d="M 425.6 165.0 L 426.3 165.0 L 426.3 167.1 L 428.8 167.1 L 428.8 165.0 L 429.4 165.0 L 429.4 170.0 L 428.8 170.0 L 428.8 167.7 L 426.3 167.7 L 426.3 170.0 L 425.6 170.0 L 425.6 165.0 " fill="#000000"/>
<path class="atom-34" d="M 410.1 132.2 L 410.8 132.2 L 410.8 134.3 L 413.3 134.3 L 413.3 132.2 L 414.0 132.2 L 414.0 137.2 L 413.3 137.2 L 413.3 134.9 L 410.8 134.9 L 410.8 137.2 L 410.1 137.2 L 410.1 132.2 " fill="#000000"/>
<path class="atom-35" d="M 457.6 204.2 L 458.2 204.2 L 458.2 206.3 L 460.7 206.3 L 460.7 204.2 L 461.4 204.2 L 461.4 209.1 L 460.7 209.1 L 460.7 206.9 L 458.2 206.9 L 458.2 209.1 L 457.6 209.1 L 457.6 204.2 " fill="#000000"/>
<path class="atom-36" d="M 490.4 192.8 L 491.1 192.8 L 491.1 194.9 L 493.6 194.9 L 493.6 192.8 L 494.3 192.8 L 494.3 197.8 L 493.6 197.8 L 493.6 195.5 L 491.1 195.5 L 491.1 197.8 L 490.4 197.8 L 490.4 192.8 " fill="#000000"/>
<path class="atom-37" d="M 470.7 135.9 L 471.4 135.9 L 471.4 138.0 L 473.9 138.0 L 473.9 135.9 L 474.5 135.9 L 474.5 140.9 L 473.9 140.9 L 473.9 138.6 L 471.4 138.6 L 471.4 140.9 L 470.7 140.9 L 470.7 135.9 " fill="#000000"/>
<path class="atom-38" d="M 437.8 147.3 L 438.5 147.3 L 438.5 149.4 L 441.0 149.4 L 441.0 147.3 L 441.7 147.3 L 441.7 152.2 L 441.0 152.2 L 441.0 150.0 L 438.5 150.0 L 438.5 152.2 L 437.8 152.2 L 437.8 147.3 " fill="#000000"/>
<path class="atom-39" d="M 491.5 128.2 L 492.2 128.2 L 492.2 130.3 L 494.7 130.3 L 494.7 128.2 L 495.4 128.2 L 495.4 133.1 L 494.7 133.1 L 494.7 130.8 L 492.2 130.8 L 492.2 133.1 L 491.5 133.1 L 491.5 128.2 " fill="#000000"/>
<path class="atom-40" d="M 511.6 186.0 L 512.2 186.0 L 512.2 188.1 L 514.8 188.1 L 514.8 186.0 L 515.4 186.0 L 515.4 190.9 L 514.8 190.9 L 514.8 188.7 L 512.2 188.7 L 512.2 190.9 L 511.6 190.9 L 511.6 186.0 " fill="#000000"/>
<path class="atom-41" d="M 543.6 137.4 L 544.3 137.4 L 544.3 139.5 L 546.8 139.5 L 546.8 137.4 L 547.4 137.4 L 547.4 142.3 L 546.8 142.3 L 546.8 140.1 L 544.3 140.1 L 544.3 142.3 L 543.6 142.3 L 543.6 137.4 " fill="#000000"/>
<path class="atom-42" d="M 515.1 117.5 L 515.7 117.5 L 515.7 119.6 L 518.3 119.6 L 518.3 117.5 L 518.9 117.5 L 518.9 122.4 L 518.3 122.4 L 518.3 120.2 L 515.7 120.2 L 515.7 122.4 L 515.1 122.4 L 515.1 117.5 " fill="#000000"/>
<path class="atom-43" d="M 539.3 113.2 L 539.9 113.2 L 539.9 115.3 L 542.5 115.3 L 542.5 113.2 L 543.1 113.2 L 543.1 118.1 L 542.5 118.1 L 542.5 115.9 L 539.9 115.9 L 539.9 118.1 L 539.3 118.1 L 539.3 113.2 " fill="#000000"/>
<path class="atom-44" d="M 374.6 107.4 L 375.3 107.4 L 375.3 109.4 L 377.8 109.4 L 377.8 107.4 L 378.5 107.4 L 378.5 112.3 L 377.8 112.3 L 377.8 110.0 L 375.3 110.0 L 375.3 112.3 L 374.6 112.3 L 374.6 107.4 " fill="#000000"/>
<path class="atom-45" d="M 379.8 84.5 L 380.5 84.5 L 380.5 86.6 L 383.0 86.6 L 383.0 84.5 L 383.7 84.5 L 383.7 89.4 L 383.0 89.4 L 383.0 87.2 L 380.5 87.2 L 380.5 89.4 L 379.8 89.4 L 379.8 84.5 " fill="#000000"/>
<path class="atom-46" d="M 405.3 76.7 L 406.0 76.7 L 406.0 78.8 L 408.5 78.8 L 408.5 76.7 L 409.1 76.7 L 409.1 81.6 L 408.5 81.6 L 408.5 79.3 L 406.0 79.3 L 406.0 81.6 L 405.3 81.6 L 405.3 76.7 " fill="#000000"/>
<path class="atom-47" d="M 422.5 92.6 L 423.1 92.6 L 423.1 94.7 L 425.6 94.7 L 425.6 92.6 L 426.3 92.6 L 426.3 97.5 L 425.6 97.5 L 425.6 95.3 L 423.1 95.3 L 423.1 97.5 L 422.5 97.5 L 422.5 92.6 " fill="#000000"/>
<path class="atom-48" d="M 416.5 118.6 L 417.2 118.6 L 417.2 120.7 L 419.7 120.7 L 419.7 118.6 L 420.4 118.6 L 420.4 123.5 L 419.7 123.5 L 419.7 121.2 L 417.2 121.2 L 417.2 123.5 L 416.5 123.5 L 416.5 118.6 " fill="#000000"/>
<text x="300" y="20" font-size="20" font-family="sans-serif" font-weight="normal" letter-spacing="0" text-anchor="middle" fill="black">cdk8: 30 -&gt; 33</text><text x="300" y="35" font-size="15" font-family="sans-serif" font-weight="normal" letter-spacing="0" text-anchor="middle" fill="black"></text><text x="150" y="285" font-size="15" font-family="sans-serif" font-weight="normal" letter-spacing="0" text-anchor="middle" fill="black">30</text><text x="450" y="285" font-size="15" font-family="sans-serif" font-weight="normal" letter-spacing="0" text-anchor="middle" fill="black">33</text></svg>
