<?xml version='1.0' encoding='ASCII' standalone='yes'?>
<svg xmlns="http://www.w3.org/2000/svg" xmlns:rdkit="http://www.rdkit.org/xml" xmlns:xlink="http://www.w3.org/1999/xlink" version="1.1" baseProfile="full" xml:space="preserve" width="600px" height="300px" viewBox="0 0 600 300">
<!-- END OF HEADER -->
<rect style="opacity:1.0;fill:#FFFFFF;stroke:none" width="600.0" height="300.0" x="0.0" y="0.0"> </rect>
<path class="bond-0 atom-0 atom-1" d="M 109.2,145.0 L 124.2,149.8" style="fill:none;fill-rule:evenodd;stroke:#000000;stroke-width:2.0px;stroke-linecap:butt;stroke-linejoin:miter;stroke-opacity:1"/>
<path class="bond-0 atom-0 atom-1" d="M 110.5,148.7 L 121.0,152.1" style="fill:none;fill-rule:evenodd;stroke:#000000;stroke-width:2.0px;stroke-linecap:butt;stroke-linejoin:miter;stroke-opacity:1"/>
<path class="bond-1 atom-0 atom-3" d="M 109.2,145.0 L 97.5,155.6" style="fill:none;fill-rule:evenodd;stroke:#000000;stroke-width:2.0px;stroke-linecap:butt;stroke-linejoin:miter;stroke-opacity:1"/>
<path class="bond-2 atom-0 atom-11" d="M 109.2,145.0 L 105.9,129.6" style="fill:none;fill-rule:evenodd;stroke:#000000;stroke-width:2.0px;stroke-linecap:butt;stroke-linejoin:miter;stroke-opacity:1"/>
<path class="bond-3 atom-1 atom-5" d="M 124.2,149.8 L 127.5,165.2" style="fill:none;fill-rule:evenodd;stroke:#000000;stroke-width:2.0px;stroke-linecap:butt;stroke-linejoin:miter;stroke-opacity:1"/>
<path class="bond-4 atom-1 atom-29" d="M 124.2,149.8 L 133.6,141.3" style="fill:none;fill-rule:evenodd;stroke:#000000;stroke-width:2.0px;stroke-linecap:butt;stroke-linejoin:miter;stroke-opacity:1"/>
<path class="bond-5 atom-2 atom-3" d="M 100.9,170.9 L 97.5,155.6" style="fill:none;fill-rule:evenodd;stroke:#000000;stroke-width:2.0px;stroke-linecap:butt;stroke-linejoin:miter;stroke-opacity:1"/>
<path class="bond-5 atom-2 atom-3" d="M 103.5,168.0 L 101.1,157.2" style="fill:none;fill-rule:evenodd;stroke:#000000;stroke-width:2.0px;stroke-linecap:butt;stroke-linejoin:miter;stroke-opacity:1"/>
<path class="bond-6 atom-2 atom-4" d="M 100.9,170.9 L 115.9,175.7" style="fill:none;fill-rule:evenodd;stroke:#000000;stroke-width:2.0px;stroke-linecap:butt;stroke-linejoin:miter;stroke-opacity:1"/>
<path class="bond-7 atom-2 atom-30" d="M 100.9,170.9 L 91.5,179.5" style="fill:none;fill-rule:evenodd;stroke:#000000;stroke-width:2.0px;stroke-linecap:butt;stroke-linejoin:miter;stroke-opacity:1"/>
<path class="bond-8 atom-3 atom-31" d="M 97.5,155.6 L 87.3,153.6" style="fill:none;fill-rule:evenodd;stroke:#000000;stroke-width:2.0px;stroke-linecap:butt;stroke-linejoin:miter;stroke-opacity:1"/>
<path class="bond-9 atom-4 atom-5" d="M 115.9,175.7 L 127.5,165.2" style="fill:none;fill-rule:evenodd;stroke:#000000;stroke-width:2.0px;stroke-linecap:butt;stroke-linejoin:miter;stroke-opacity:1"/>
<path class="bond-9 atom-4 atom-5" d="M 115.5,171.8 L 123.7,164.4" style="fill:none;fill-rule:evenodd;stroke:#000000;stroke-width:2.0px;stroke-linecap:butt;stroke-linejoin:miter;stroke-opacity:1"/>
<path class="bond-10 atom-4 atom-8" d="M 115.9,175.7 L 118.5,181.5" style="fill:none;fill-rule:evenodd;stroke:#000000;stroke-width:2.0px;stroke-linecap:butt;stroke-linejoin:miter;stroke-opacity:1"/>
<path class="bond-10 atom-4 atom-8" d="M 118.5,181.5 L 121.1,187.3" style="fill:none;fill-rule:evenodd;stroke:#0000FF;stroke-width:2.0px;stroke-linecap:butt;stroke-linejoin:miter;stroke-opacity:1"/>
<path class="bond-11 atom-5 atom-6" d="M 127.5,165.2 L 141.2,173.0" style="fill:none;fill-rule:evenodd;stroke:#000000;stroke-width:2.0px;stroke-linecap:butt;stroke-linejoin:miter;stroke-opacity:1"/>
<path class="bond-12 atom-6 atom-7" d="M 141.2,173.0 L 139.9,179.3" style="fill:none;fill-rule:evenodd;stroke:#000000;stroke-width:2.0px;stroke-linecap:butt;stroke-linejoin:miter;stroke-opacity:1"/>
<path class="bond-12 atom-6 atom-7" d="M 139.9,179.3 L 138.5,185.6" style="fill:none;fill-rule:evenodd;stroke:#0000FF;stroke-width:2.0px;stroke-linecap:butt;stroke-linejoin:miter;stroke-opacity:1"/>
<path class="bond-12 atom-6 atom-7" d="M 137.7,174.2 L 136.8,178.7" style="fill:none;fill-rule:evenodd;stroke:#000000;stroke-width:2.0px;stroke-linecap:butt;stroke-linejoin:miter;stroke-opacity:1"/>
<path class="bond-12 atom-6 atom-7" d="M 136.8,178.7 L 135.8,183.1" style="fill:none;fill-rule:evenodd;stroke:#0000FF;stroke-width:2.0px;stroke-linecap:butt;stroke-linejoin:miter;stroke-opacity:1"/>
<path class="bond-13 atom-6 atom-9" d="M 141.2,173.0 L 155.5,166.5" style="fill:none;fill-rule:evenodd;stroke:#000000;stroke-width:2.0px;stroke-linecap:butt;stroke-linejoin:miter;stroke-opacity:1"/>
<path class="bond-14 atom-7 atom-8" d="M 135.8,188.6 L 124.5,189.8" style="fill:none;fill-rule:evenodd;stroke:#0000FF;stroke-width:2.0px;stroke-linecap:butt;stroke-linejoin:miter;stroke-opacity:1"/>
<path class="bond-15 atom-8 atom-32" d="M 120.8,192.8 L 118.4,196.9" style="fill:none;fill-rule:evenodd;stroke:#0000FF;stroke-width:2.0px;stroke-linecap:butt;stroke-linejoin:miter;stroke-opacity:1"/>
<path class="bond-15 atom-8 atom-32" d="M 118.4,196.9 L 116.1,201.0" style="fill:none;fill-rule:evenodd;stroke:#000000;stroke-width:2.0px;stroke-linecap:butt;stroke-linejoin:miter;stroke-opacity:1"/>
<path class="bond-16 atom-9 atom-13" d="M 155.5,166.5 L 169.9,160.1" style="fill:none;fill-rule:evenodd;stroke:#000000;stroke-width:2.0px;stroke-linecap:butt;stroke-linejoin:miter;stroke-opacity:1"/>
<path class="bond-17 atom-9 atom-33" d="M 155.5,166.5 L 160.7,178.1" style="fill:none;fill-rule:evenodd;stroke:#000000;stroke-width:2.0px;stroke-linecap:butt;stroke-linejoin:miter;stroke-opacity:1"/>
<path class="bond-18 atom-9 atom-34" d="M 155.5,166.5 L 150.3,154.9" style="fill:none;fill-rule:evenodd;stroke:#000000;stroke-width:2.0px;stroke-linecap:butt;stroke-linejoin:miter;stroke-opacity:1"/>
<path class="bond-19 atom-10 atom-11" d="M 93.1,125.5 L 99.5,127.6" style="fill:none;fill-rule:evenodd;stroke:#0000FF;stroke-width:2.0px;stroke-linecap:butt;stroke-linejoin:miter;stroke-opacity:1"/>
<path class="bond-19 atom-10 atom-11" d="M 99.5,127.6 L 105.9,129.6" style="fill:none;fill-rule:evenodd;stroke:#000000;stroke-width:2.0px;stroke-linecap:butt;stroke-linejoin:miter;stroke-opacity:1"/>
<path class="bond-20 atom-10 atom-25" d="M 89.5,122.1 L 86.6,116.4" style="fill:none;fill-rule:evenodd;stroke:#0000FF;stroke-width:2.0px;stroke-linecap:butt;stroke-linejoin:miter;stroke-opacity:1"/>
<path class="bond-20 atom-10 atom-25" d="M 86.6,116.4 L 83.7,110.8" style="fill:none;fill-rule:evenodd;stroke:#000000;stroke-width:2.0px;stroke-linecap:butt;stroke-linejoin:miter;stroke-opacity:1"/>
<path class="bond-21 atom-10 atom-27" d="M 88.7,125.9 L 82.8,129.0" style="fill:none;fill-rule:evenodd;stroke:#0000FF;stroke-width:2.0px;stroke-linecap:butt;stroke-linejoin:miter;stroke-opacity:1"/>
<path class="bond-21 atom-10 atom-27" d="M 82.8,129.0 L 76.9,132.0" style="fill:none;fill-rule:evenodd;stroke:#000000;stroke-width:2.0px;stroke-linecap:butt;stroke-linejoin:miter;stroke-opacity:1"/>
<path class="bond-22 atom-11 atom-12" d="M 104.8,128.4 L 109.3,124.3" style="fill:none;fill-rule:evenodd;stroke:#000000;stroke-width:2.0px;stroke-linecap:butt;stroke-linejoin:miter;stroke-opacity:1"/>
<path class="bond-22 atom-11 atom-12" d="M 109.3,124.3 L 113.9,120.2" style="fill:none;fill-rule:evenodd;stroke:#FF0000;stroke-width:2.0px;stroke-linecap:butt;stroke-linejoin:miter;stroke-opacity:1"/>
<path class="bond-22 atom-11 atom-12" d="M 106.9,130.8 L 111.5,126.6" style="fill:none;fill-rule:evenodd;stroke:#000000;stroke-width:2.0px;stroke-linecap:butt;stroke-linejoin:miter;stroke-opacity:1"/>
<path class="bond-22 atom-11 atom-12" d="M 111.5,126.6 L 116.0,122.5" style="fill:none;fill-rule:evenodd;stroke:#FF0000;stroke-width:2.0px;stroke-linecap:butt;stroke-linejoin:miter;stroke-opacity:1"/>
<path class="bond-23 atom-13 atom-14" d="M 169.9,160.1 L 182.6,169.3" style="fill:none;fill-rule:evenodd;stroke:#000000;stroke-width:2.0px;stroke-linecap:butt;stroke-linejoin:miter;stroke-opacity:1"/>
<path class="bond-23 atom-13 atom-14" d="M 173.6,158.9 L 182.6,165.3" style="fill:none;fill-rule:evenodd;stroke:#000000;stroke-width:2.0px;stroke-linecap:butt;stroke-linejoin:miter;stroke-opacity:1"/>
<path class="bond-24 atom-13 atom-18" d="M 169.9,160.1 L 171.4,144.4" style="fill:none;fill-rule:evenodd;stroke:#000000;stroke-width:2.0px;stroke-linecap:butt;stroke-linejoin:miter;stroke-opacity:1"/>
<path class="bond-25 atom-14 atom-15" d="M 182.6,169.3 L 197.0,162.8" style="fill:none;fill-rule:evenodd;stroke:#000000;stroke-width:2.0px;stroke-linecap:butt;stroke-linejoin:miter;stroke-opacity:1"/>
<path class="bond-26 atom-14 atom-35" d="M 182.6,169.3 L 181.3,182.2" style="fill:none;fill-rule:evenodd;stroke:#000000;stroke-width:2.0px;stroke-linecap:butt;stroke-linejoin:miter;stroke-opacity:1"/>
<path class="bond-27 atom-15 atom-16" d="M 197.0,162.8 L 198.6,147.1" style="fill:none;fill-rule:evenodd;stroke:#000000;stroke-width:2.0px;stroke-linecap:butt;stroke-linejoin:miter;stroke-opacity:1"/>
<path class="bond-27 atom-15 atom-16" d="M 194.1,160.1 L 195.2,149.2" style="fill:none;fill-rule:evenodd;stroke:#000000;stroke-width:2.0px;stroke-linecap:butt;stroke-linejoin:miter;stroke-opacity:1"/>
<path class="bond-28 atom-15 atom-36" d="M 197.0,162.8 L 207.5,170.4" style="fill:none;fill-rule:evenodd;stroke:#000000;stroke-width:2.0px;stroke-linecap:butt;stroke-linejoin:miter;stroke-opacity:1"/>
<path class="bond-29 atom-16 atom-17" d="M 198.6,147.1 L 185.8,137.9" style="fill:none;fill-rule:evenodd;stroke:#000000;stroke-width:2.0px;stroke-linecap:butt;stroke-linejoin:miter;stroke-opacity:1"/>
<path class="bond-30 atom-16 atom-19" d="M 198.6,147.1 L 212.9,140.7" style="fill:none;fill-rule:evenodd;stroke:#000000;stroke-width:2.0px;stroke-linecap:butt;stroke-linejoin:miter;stroke-opacity:1"/>
<path class="bond-31 atom-17 atom-18" d="M 185.8,137.9 L 171.4,144.4" style="fill:none;fill-rule:evenodd;stroke:#000000;stroke-width:2.0px;stroke-linecap:butt;stroke-linejoin:miter;stroke-opacity:1"/>
<path class="bond-31 atom-17 atom-18" d="M 184.9,141.8 L 174.9,146.3" style="fill:none;fill-rule:evenodd;stroke:#000000;stroke-width:2.0px;stroke-linecap:butt;stroke-linejoin:miter;stroke-opacity:1"/>
<path class="bond-32 atom-17 atom-37" d="M 185.8,137.9 L 187.1,125.0" style="fill:none;fill-rule:evenodd;stroke:#000000;stroke-width:2.0px;stroke-linecap:butt;stroke-linejoin:miter;stroke-opacity:1"/>
<path class="bond-33 atom-18 atom-38" d="M 171.4,144.4 L 160.9,136.8" style="fill:none;fill-rule:evenodd;stroke:#000000;stroke-width:2.0px;stroke-linecap:butt;stroke-linejoin:miter;stroke-opacity:1"/>
<path class="bond-34 atom-19 atom-20" d="M 212.9,140.7 L 216.1,125.3" style="fill:none;fill-rule:evenodd;stroke:#000000;stroke-width:2.0px;stroke-linecap:butt;stroke-linejoin:miter;stroke-opacity:1"/>
<path class="bond-34 atom-19 atom-20" d="M 216.5,139.0 L 218.7,128.2" style="fill:none;fill-rule:evenodd;stroke:#000000;stroke-width:2.0px;stroke-linecap:butt;stroke-linejoin:miter;stroke-opacity:1"/>
<path class="bond-35 atom-19 atom-23" d="M 212.9,140.7 L 226.6,148.5" style="fill:none;fill-rule:evenodd;stroke:#000000;stroke-width:2.0px;stroke-linecap:butt;stroke-linejoin:miter;stroke-opacity:1"/>
<path class="bond-36 atom-20 atom-21" d="M 216.1,125.3 L 222.8,124.5" style="fill:none;fill-rule:evenodd;stroke:#000000;stroke-width:2.0px;stroke-linecap:butt;stroke-linejoin:miter;stroke-opacity:1"/>
<path class="bond-36 atom-20 atom-21" d="M 222.8,124.5 L 229.6,123.8" style="fill:none;fill-rule:evenodd;stroke:#0000FF;stroke-width:2.0px;stroke-linecap:butt;stroke-linejoin:miter;stroke-opacity:1"/>
<path class="bond-37 atom-20 atom-39" d="M 216.1,125.3 L 207.8,116.1" style="fill:none;fill-rule:evenodd;stroke:#000000;stroke-width:2.0px;stroke-linecap:butt;stroke-linejoin:miter;stroke-opacity:1"/>
<path class="bond-38 atom-21 atom-22" d="M 233.0,126.3 L 237.0,135.2" style="fill:none;fill-rule:evenodd;stroke:#0000FF;stroke-width:2.0px;stroke-linecap:butt;stroke-linejoin:miter;stroke-opacity:1"/>
<path class="bond-39 atom-21 atom-24" d="M 233.3,120.8 L 236.4,115.4" style="fill:none;fill-rule:evenodd;stroke:#0000FF;stroke-width:2.0px;stroke-linecap:butt;stroke-linejoin:miter;stroke-opacity:1"/>
<path class="bond-39 atom-21 atom-24" d="M 236.4,115.4 L 239.6,109.9" style="fill:none;fill-rule:evenodd;stroke:#000000;stroke-width:2.0px;stroke-linecap:butt;stroke-linejoin:miter;stroke-opacity:1"/>
<path class="bond-40 atom-22 atom-23" d="M 236.0,139.9 L 231.3,144.2" style="fill:none;fill-rule:evenodd;stroke:#0000FF;stroke-width:2.0px;stroke-linecap:butt;stroke-linejoin:miter;stroke-opacity:1"/>
<path class="bond-40 atom-22 atom-23" d="M 231.3,144.2 L 226.6,148.5" style="fill:none;fill-rule:evenodd;stroke:#000000;stroke-width:2.0px;stroke-linecap:butt;stroke-linejoin:miter;stroke-opacity:1"/>
<path class="bond-40 atom-22 atom-23" d="M 232.5,138.9 L 229.2,141.9" style="fill:none;fill-rule:evenodd;stroke:#0000FF;stroke-width:2.0px;stroke-linecap:butt;stroke-linejoin:miter;stroke-opacity:1"/>
<path class="bond-40 atom-22 atom-23" d="M 229.2,141.9 L 225.9,144.9" style="fill:none;fill-rule:evenodd;stroke:#000000;stroke-width:2.0px;stroke-linecap:butt;stroke-linejoin:miter;stroke-opacity:1"/>
<path class="bond-41 atom-23 atom-40" d="M 226.6,148.5 L 228.0,161.4" style="fill:none;fill-rule:evenodd;stroke:#000000;stroke-width:2.0px;stroke-linecap:butt;stroke-linejoin:miter;stroke-opacity:1"/>
<path class="bond-42 atom-24 atom-41" d="M 239.6,109.9 L 251.0,116.4" style="fill:none;fill-rule:evenodd;stroke:#000000;stroke-width:2.0px;stroke-linecap:butt;stroke-linejoin:miter;stroke-opacity:1"/>
<path class="bond-43 atom-24 atom-42" d="M 239.6,109.9 L 228.2,103.4" style="fill:none;fill-rule:evenodd;stroke:#000000;stroke-width:2.0px;stroke-linecap:butt;stroke-linejoin:miter;stroke-opacity:1"/>
<path class="bond-44 atom-24 atom-43" d="M 239.6,109.9 L 245.8,99.0" style="fill:none;fill-rule:evenodd;stroke:#000000;stroke-width:2.0px;stroke-linecap:butt;stroke-linejoin:miter;stroke-opacity:1"/>
<path class="bond-45 atom-25 atom-26" d="M 83.7,110.8 L 69.7,118.0" style="fill:none;fill-rule:evenodd;stroke:#000000;stroke-width:2.0px;stroke-linecap:butt;stroke-linejoin:miter;stroke-opacity:1"/>
<path class="bond-46 atom-25 atom-44" d="M 83.7,110.8 L 77.9,99.6" style="fill:none;fill-rule:evenodd;stroke:#000000;stroke-width:2.0px;stroke-linecap:butt;stroke-linejoin:miter;stroke-opacity:1"/>
<path class="bond-47 atom-25 atom-45" d="M 83.7,110.8 L 95.4,104.8" style="fill:none;fill-rule:evenodd;stroke:#000000;stroke-width:2.0px;stroke-linecap:butt;stroke-linejoin:miter;stroke-opacity:1"/>
<path class="bond-48 atom-26 atom-27" d="M 69.7,118.0 L 76.9,132.0" style="fill:none;fill-rule:evenodd;stroke:#000000;stroke-width:2.0px;stroke-linecap:butt;stroke-linejoin:miter;stroke-opacity:1"/>
<path class="bond-49 atom-26 atom-28" d="M 69.7,118.0 L 66.8,112.4" style="fill:none;fill-rule:evenodd;stroke:#000000;stroke-width:2.0px;stroke-linecap:butt;stroke-linejoin:miter;stroke-opacity:1"/>
<path class="bond-49 atom-26 atom-28" d="M 66.8,112.4 L 63.9,106.9" style="fill:none;fill-rule:evenodd;stroke:#FF0000;stroke-width:2.0px;stroke-linecap:butt;stroke-linejoin:miter;stroke-opacity:1"/>
<path class="bond-50 atom-26 atom-46" d="M 69.7,118.0 L 58.0,124.1" style="fill:none;fill-rule:evenodd;stroke:#000000;stroke-width:2.0px;stroke-linecap:butt;stroke-linejoin:miter;stroke-opacity:1"/>
<path class="bond-51 atom-27 atom-47" d="M 76.9,132.0 L 80.3,141.2" style="fill:none;fill-rule:evenodd;stroke:#000000;stroke-width:2.0px;stroke-linecap:butt;stroke-linejoin:miter;stroke-opacity:1"/>
<path class="bond-52 atom-27 atom-48" d="M 76.9,132.0 L 65.2,138.0" style="fill:none;fill-rule:evenodd;stroke:#000000;stroke-width:2.0px;stroke-linecap:butt;stroke-linejoin:miter;stroke-opacity:1"/>
<path class="bond-53 atom-28 atom-49" d="M 59.9,103.9 L 54.5,103.6" style="fill:none;fill-rule:evenodd;stroke:#FF0000;stroke-width:2.0px;stroke-linecap:butt;stroke-linejoin:miter;stroke-opacity:1"/>
<path class="bond-53 atom-28 atom-49" d="M 54.5,103.6 L 49.0,103.4" style="fill:none;fill-rule:evenodd;stroke:#000000;stroke-width:2.0px;stroke-linecap:butt;stroke-linejoin:miter;stroke-opacity:1"/>
<path class="atom-7" d="M 137.0 186.1 L 138.4 188.5 Q 138.6 188.7, 138.8 189.2 Q 139.0 189.6, 139.1 189.6 L 139.1 186.1 L 139.7 186.1 L 139.7 190.6 L 139.0 190.6 L 137.5 188.0 Q 137.3 187.7, 137.1 187.4 Q 136.9 187.0, 136.9 186.9 L 136.9 190.6 L 136.3 190.6 L 136.3 186.1 L 137.0 186.1 " fill="#0000FF"/>
<path class="atom-8" d="M 121.3 187.9 L 122.8 190.2 Q 122.9 190.5, 123.2 190.9 Q 123.4 191.3, 123.4 191.3 L 123.4 187.9 L 124.0 187.9 L 124.0 192.3 L 123.4 192.3 L 121.8 189.7 Q 121.7 189.4, 121.5 189.1 Q 121.3 188.7, 121.2 188.6 L 121.2 192.3 L 120.6 192.3 L 120.6 187.9 L 121.3 187.9 " fill="#0000FF"/>
<path class="atom-10" d="M 89.9 122.6 L 91.4 124.9 Q 91.5 125.2, 91.7 125.6 Q 92.0 126.0, 92.0 126.0 L 92.0 122.6 L 92.6 122.6 L 92.6 127.0 L 92.0 127.0 L 90.4 124.5 Q 90.2 124.2, 90.0 123.8 Q 89.8 123.5, 89.8 123.4 L 89.8 127.0 L 89.2 127.0 L 89.2 122.6 L 89.9 122.6 " fill="#0000FF"/>
<path class="atom-12" d="M 115.5 119.0 Q 115.5 118.0, 116.0 117.4 Q 116.5 116.8, 117.5 116.8 Q 118.5 116.8, 119.0 117.4 Q 119.6 118.0, 119.6 119.0 Q 119.6 120.1, 119.0 120.7 Q 118.5 121.4, 117.5 121.4 Q 116.5 121.4, 116.0 120.7 Q 115.5 120.1, 115.5 119.0 M 117.5 120.9 Q 118.2 120.9, 118.6 120.4 Q 118.9 119.9, 118.9 119.0 Q 118.9 118.2, 118.6 117.7 Q 118.2 117.3, 117.5 117.3 Q 116.8 117.3, 116.5 117.7 Q 116.1 118.2, 116.1 119.0 Q 116.1 119.9, 116.5 120.4 Q 116.8 120.9, 117.5 120.9 " fill="#FF0000"/>
<path class="atom-21" d="M 230.8 121.3 L 232.2 123.7 Q 232.4 123.9, 232.6 124.4 Q 232.8 124.8, 232.9 124.8 L 232.9 121.3 L 233.4 121.3 L 233.4 125.8 L 232.8 125.8 L 231.3 123.2 Q 231.1 122.9, 230.9 122.6 Q 230.7 122.2, 230.6 122.1 L 230.6 125.8 L 230.1 125.8 L 230.1 121.3 L 230.8 121.3 " fill="#0000FF"/>
<path class="atom-22" d="M 237.2 135.7 L 238.7 138.1 Q 238.8 138.3, 239.1 138.7 Q 239.3 139.1, 239.3 139.2 L 239.3 135.7 L 239.9 135.7 L 239.9 140.1 L 239.3 140.1 L 237.7 137.6 Q 237.5 137.3, 237.4 136.9 Q 237.2 136.6, 237.1 136.5 L 237.1 140.1 L 236.5 140.1 L 236.5 135.7 L 237.2 135.7 " fill="#0000FF"/>
<path class="atom-28" d="M 60.4 104.0 Q 60.4 103.0, 61.0 102.4 Q 61.5 101.8, 62.5 101.8 Q 63.5 101.8, 64.0 102.4 Q 64.5 103.0, 64.5 104.0 Q 64.5 105.1, 64.0 105.7 Q 63.5 106.4, 62.5 106.4 Q 61.5 106.4, 61.0 105.7 Q 60.4 105.1, 60.4 104.0 M 62.5 105.8 Q 63.2 105.8, 63.5 105.4 Q 63.9 104.9, 63.9 104.0 Q 63.9 103.2, 63.5 102.7 Q 63.2 102.3, 62.5 102.3 Q 61.8 102.3, 61.4 102.7 Q 61.1 103.2, 61.1 104.0 Q 61.1 104.9, 61.4 105.4 Q 61.8 105.8, 62.5 105.8 " fill="#FF0000"/>
<path class="atom-29" d="M 134.1 137.0 L 134.7 137.0 L 134.7 138.9 L 137.0 138.9 L 137.0 137.0 L 137.6 137.0 L 137.6 141.4 L 137.0 141.4 L 137.0 139.4 L 134.7 139.4 L 134.7 141.4 L 134.1 141.4 L 134.1 137.0 " fill="#000000"/>
<path class="atom-30" d="M 87.5 179.3 L 88.1 179.3 L 88.1 181.2 L 90.4 181.2 L 90.4 179.3 L 91.0 179.3 L 91.0 183.7 L 90.4 183.7 L 90.4 181.7 L 88.1 181.7 L 88.1 183.7 L 87.5 183.7 L 87.5 179.3 " fill="#000000"/>
<path class="atom-31" d="M 83.3 151.0 L 83.9 151.0 L 83.9 152.8 L 86.2 152.8 L 86.2 151.0 L 86.8 151.0 L 86.8 155.4 L 86.2 155.4 L 86.2 153.3 L 83.9 153.3 L 83.9 155.4 L 83.3 155.4 L 83.3 151.0 " fill="#000000"/>
<path class="atom-32" d="M 112.8 201.5 L 113.4 201.5 L 113.4 203.4 L 115.6 203.4 L 115.6 201.5 L 116.3 201.5 L 116.3 206.0 L 115.6 206.0 L 115.6 203.9 L 113.4 203.9 L 113.4 206.0 L 112.8 206.0 L 112.8 201.5 " fill="#000000"/>
<path class="atom-33" d="M 160.2 178.6 L 160.8 178.6 L 160.8 180.5 L 163.1 180.5 L 163.1 178.6 L 163.7 178.6 L 163.7 183.1 L 163.1 183.1 L 163.1 181.0 L 160.8 181.0 L 160.8 183.1 L 160.2 183.1 L 160.2 178.6 " fill="#000000"/>
<path class="atom-34" d="M 147.3 149.9 L 147.9 149.9 L 147.9 151.8 L 150.2 151.8 L 150.2 149.9 L 150.8 149.9 L 150.8 154.4 L 150.2 154.4 L 150.2 152.3 L 147.9 152.3 L 147.9 154.4 L 147.3 154.4 L 147.3 149.9 " fill="#000000"/>
<path class="atom-35" d="M 179.3 182.7 L 179.9 182.7 L 179.9 184.6 L 182.2 184.6 L 182.2 182.7 L 182.8 182.7 L 182.8 187.1 L 182.2 187.1 L 182.2 185.1 L 179.9 185.1 L 179.9 187.1 L 179.3 187.1 L 179.3 182.7 " fill="#000000"/>
<path class="atom-36" d="M 208.0 169.8 L 208.6 169.8 L 208.6 171.7 L 210.9 171.7 L 210.9 169.8 L 211.5 169.8 L 211.5 174.2 L 210.9 174.2 L 210.9 172.2 L 208.6 172.2 L 208.6 174.2 L 208.0 174.2 L 208.0 169.8 " fill="#000000"/>
<path class="atom-37" d="M 185.6 120.1 L 186.2 120.1 L 186.2 122.0 L 188.5 122.0 L 188.5 120.1 L 189.1 120.1 L 189.1 124.5 L 188.5 124.5 L 188.5 122.5 L 186.2 122.5 L 186.2 124.5 L 185.6 124.5 L 185.6 120.1 " fill="#000000"/>
<path class="atom-38" d="M 156.9 133.0 L 157.5 133.0 L 157.5 134.9 L 159.8 134.9 L 159.8 133.0 L 160.4 133.0 L 160.4 137.4 L 159.8 137.4 L 159.8 135.4 L 157.5 135.4 L 157.5 137.4 L 156.9 137.4 L 156.9 133.0 " fill="#000000"/>
<path class="atom-39" d="M 203.8 111.4 L 204.4 111.4 L 204.4 113.3 L 206.7 113.3 L 206.7 111.4 L 207.3 111.4 L 207.3 115.9 L 206.7 115.9 L 206.7 113.8 L 204.4 113.8 L 204.4 115.9 L 203.8 115.9 L 203.8 111.4 " fill="#000000"/>
<path class="atom-40" d="M 226.5 161.9 L 227.1 161.9 L 227.1 163.8 L 229.4 163.8 L 229.4 161.9 L 230.0 161.9 L 230.0 166.4 L 229.4 166.4 L 229.4 164.3 L 227.1 164.3 L 227.1 166.4 L 226.5 166.4 L 226.5 161.9 " fill="#000000"/>
<path class="atom-41" d="M 251.5 115.5 L 252.1 115.5 L 252.1 117.4 L 254.4 117.4 L 254.4 115.5 L 255.0 115.5 L 255.0 120.0 L 254.4 120.0 L 254.4 117.9 L 252.1 117.9 L 252.1 120.0 L 251.5 120.0 L 251.5 115.5 " fill="#000000"/>
<path class="atom-42" d="M 224.2 99.9 L 224.8 99.9 L 224.8 101.8 L 227.1 101.8 L 227.1 99.9 L 227.7 99.9 L 227.7 104.3 L 227.1 104.3 L 227.1 102.3 L 224.8 102.3 L 224.8 104.3 L 224.2 104.3 L 224.2 99.9 " fill="#000000"/>
<path class="atom-43" d="M 245.6 94.0 L 246.2 94.0 L 246.2 95.9 L 248.5 95.9 L 248.5 94.0 L 249.1 94.0 L 249.1 98.5 L 248.5 98.5 L 248.5 96.4 L 246.2 96.4 L 246.2 98.5 L 245.6 98.5 L 245.6 94.0 " fill="#000000"/>
<path class="atom-44" d="M 74.7 94.6 L 75.3 94.6 L 75.3 96.5 L 77.6 96.5 L 77.6 94.6 L 78.2 94.6 L 78.2 99.1 L 77.6 99.1 L 77.6 97.0 L 75.3 97.0 L 75.3 99.1 L 74.7 99.1 L 74.7 94.6 " fill="#000000"/>
<path class="atom-45" d="M 95.9 101.4 L 96.5 101.4 L 96.5 103.3 L 98.8 103.3 L 98.8 101.4 L 99.4 101.4 L 99.4 105.8 L 98.8 105.8 L 98.8 103.8 L 96.5 103.8 L 96.5 105.8 L 95.9 105.8 L 95.9 101.4 " fill="#000000"/>
<path class="atom-46" d="M 54.0 123.0 L 54.6 123.0 L 54.6 124.9 L 56.8 124.9 L 56.8 123.0 L 57.4 123.0 L 57.4 127.4 L 56.8 127.4 L 56.8 125.4 L 54.6 125.4 L 54.6 127.4 L 54.0 127.4 L 54.0 123.0 " fill="#000000"/>
<path class="atom-47" d="M 79.6 141.7 L 80.2 141.7 L 80.2 143.6 L 82.4 143.6 L 82.4 141.7 L 83.0 141.7 L 83.0 146.2 L 82.4 146.2 L 82.4 144.1 L 80.2 144.1 L 80.2 146.2 L 79.6 146.2 L 79.6 141.7 " fill="#000000"/>
<path class="atom-48" d="M 61.2 137.0 L 61.8 137.0 L 61.8 138.9 L 64.0 138.9 L 64.0 137.0 L 64.6 137.0 L 64.6 141.4 L 64.0 141.4 L 64.0 139.4 L 61.8 139.4 L 61.8 141.4 L 61.2 141.4 L 61.2 137.0 " fill="#000000"/>
<path class="atom-49" d="M 45.0 101.0 L 45.6 101.0 L 45.6 102.9 L 47.9 102.9 L 47.9 101.0 L 48.5 101.0 L 48.5 105.5 L 47.9 105.5 L 47.9 103.4 L 45.6 103.4 L 45.6 105.5 L 45.0 105.5 L 45.0 101.0 " fill="#000000"/>
<path class="bond-0 atom-0 atom-1" d="M 423.8,153.4 L 439.2,156.4" style="fill:none;fill-rule:evenodd;stroke:#000000;stroke-width:2.0px;stroke-linecap:butt;stroke-linejoin:miter;stroke-opacity:1"/>
<path class="bond-0 atom-0 atom-1" d="M 425.5,156.9 L 436.3,159.0" style="fill:none;fill-rule:evenodd;stroke:#000000;stroke-width:2.0px;stroke-linecap:butt;stroke-linejoin:miter;stroke-opacity:1"/>
<path class="bond-1 atom-0 atom-3" d="M 423.8,153.4 L 413.4,165.2" style="fill:none;fill-rule:evenodd;stroke:#000000;stroke-width:2.0px;stroke-linecap:butt;stroke-linejoin:miter;stroke-opacity:1"/>
<path class="bond-2 atom-0 atom-10" d="M 423.8,153.4 L 421.7,147.3" style="fill:none;fill-rule:evenodd;stroke:#000000;stroke-width:2.0px;stroke-linecap:butt;stroke-linejoin:miter;stroke-opacity:1"/>
<path class="bond-2 atom-0 atom-10" d="M 421.7,147.3 L 419.6,141.2" style="fill:none;fill-rule:evenodd;stroke:#0000FF;stroke-width:2.0px;stroke-linecap:butt;stroke-linejoin:miter;stroke-opacity:1"/>
<path class="bond-3 atom-1 atom-5" d="M 439.2,156.4 L 444.3,171.3" style="fill:none;fill-rule:evenodd;stroke:#000000;stroke-width:2.0px;stroke-linecap:butt;stroke-linejoin:miter;stroke-opacity:1"/>
<path class="bond-4 atom-1 atom-29" d="M 439.2,156.4 L 447.3,147.1" style="fill:none;fill-rule:evenodd;stroke:#000000;stroke-width:2.0px;stroke-linecap:butt;stroke-linejoin:miter;stroke-opacity:1"/>
<path class="bond-5 atom-2 atom-3" d="M 418.5,180.1 L 413.4,165.2" style="fill:none;fill-rule:evenodd;stroke:#000000;stroke-width:2.0px;stroke-linecap:butt;stroke-linejoin:miter;stroke-opacity:1"/>
<path class="bond-5 atom-2 atom-3" d="M 420.7,176.8 L 417.2,166.4" style="fill:none;fill-rule:evenodd;stroke:#000000;stroke-width:2.0px;stroke-linecap:butt;stroke-linejoin:miter;stroke-opacity:1"/>
<path class="bond-6 atom-2 atom-4" d="M 418.5,180.1 L 433.9,183.1" style="fill:none;fill-rule:evenodd;stroke:#000000;stroke-width:2.0px;stroke-linecap:butt;stroke-linejoin:miter;stroke-opacity:1"/>
<path class="bond-7 atom-2 atom-30" d="M 418.5,180.1 L 410.4,189.4" style="fill:none;fill-rule:evenodd;stroke:#000000;stroke-width:2.0px;stroke-linecap:butt;stroke-linejoin:miter;stroke-opacity:1"/>
<path class="bond-8 atom-3 atom-31" d="M 413.4,165.2 L 400.2,162.6" style="fill:none;fill-rule:evenodd;stroke:#000000;stroke-width:2.0px;stroke-linecap:butt;stroke-linejoin:miter;stroke-opacity:1"/>
<path class="bond-9 atom-4 atom-5" d="M 433.9,183.1 L 444.3,171.3" style="fill:none;fill-rule:evenodd;stroke:#000000;stroke-width:2.0px;stroke-linecap:butt;stroke-linejoin:miter;stroke-opacity:1"/>
<path class="bond-9 atom-4 atom-5" d="M 433.1,179.3 L 440.4,171.0" style="fill:none;fill-rule:evenodd;stroke:#000000;stroke-width:2.0px;stroke-linecap:butt;stroke-linejoin:miter;stroke-opacity:1"/>
<path class="bond-10 atom-4 atom-8" d="M 433.9,183.1 L 437.2,188.5" style="fill:none;fill-rule:evenodd;stroke:#000000;stroke-width:2.0px;stroke-linecap:butt;stroke-linejoin:miter;stroke-opacity:1"/>
<path class="bond-10 atom-4 atom-8" d="M 437.2,188.5 L 440.4,193.9" style="fill:none;fill-rule:evenodd;stroke:#0000FF;stroke-width:2.0px;stroke-linecap:butt;stroke-linejoin:miter;stroke-opacity:1"/>
<path class="bond-11 atom-5 atom-6" d="M 444.3,171.3 L 458.8,177.4" style="fill:none;fill-rule:evenodd;stroke:#000000;stroke-width:2.0px;stroke-linecap:butt;stroke-linejoin:miter;stroke-opacity:1"/>
<path class="bond-12 atom-6 atom-7" d="M 458.8,177.4 L 458.2,183.9" style="fill:none;fill-rule:evenodd;stroke:#000000;stroke-width:2.0px;stroke-linecap:butt;stroke-linejoin:miter;stroke-opacity:1"/>
<path class="bond-12 atom-6 atom-7" d="M 458.2,183.9 L 457.6,190.4" style="fill:none;fill-rule:evenodd;stroke:#0000FF;stroke-width:2.0px;stroke-linecap:butt;stroke-linejoin:miter;stroke-opacity:1"/>
<path class="bond-12 atom-6 atom-7" d="M 455.5,179.1 L 455.0,183.6" style="fill:none;fill-rule:evenodd;stroke:#000000;stroke-width:2.0px;stroke-linecap:butt;stroke-linejoin:miter;stroke-opacity:1"/>
<path class="bond-12 atom-6 atom-7" d="M 455.0,183.6 L 454.6,188.1" style="fill:none;fill-rule:evenodd;stroke:#0000FF;stroke-width:2.0px;stroke-linecap:butt;stroke-linejoin:miter;stroke-opacity:1"/>
<path class="bond-13 atom-6 atom-9" d="M 458.8,177.4 L 472.3,169.4" style="fill:none;fill-rule:evenodd;stroke:#000000;stroke-width:2.0px;stroke-linecap:butt;stroke-linejoin:miter;stroke-opacity:1"/>
<path class="bond-14 atom-7 atom-8" d="M 455.2,193.6 L 444.2,196.1" style="fill:none;fill-rule:evenodd;stroke:#0000FF;stroke-width:2.0px;stroke-linecap:butt;stroke-linejoin:miter;stroke-opacity:1"/>
<path class="bond-15 atom-8 atom-32" d="M 440.9,199.4 L 438.9,203.9" style="fill:none;fill-rule:evenodd;stroke:#0000FF;stroke-width:2.0px;stroke-linecap:butt;stroke-linejoin:miter;stroke-opacity:1"/>
<path class="bond-15 atom-8 atom-32" d="M 438.9,203.9 L 437.0,208.3" style="fill:none;fill-rule:evenodd;stroke:#000000;stroke-width:2.0px;stroke-linecap:butt;stroke-linejoin:miter;stroke-opacity:1"/>
<path class="bond-16 atom-9 atom-11" d="M 472.3,169.4 L 485.8,161.3" style="fill:none;fill-rule:evenodd;stroke:#000000;stroke-width:2.0px;stroke-linecap:butt;stroke-linejoin:miter;stroke-opacity:1"/>
<path class="bond-17 atom-9 atom-33" d="M 472.3,169.4 L 478.7,180.1" style="fill:none;fill-rule:evenodd;stroke:#000000;stroke-width:2.0px;stroke-linecap:butt;stroke-linejoin:miter;stroke-opacity:1"/>
<path class="bond-18 atom-9 atom-34" d="M 472.3,169.4 L 465.8,158.6" style="fill:none;fill-rule:evenodd;stroke:#000000;stroke-width:2.0px;stroke-linecap:butt;stroke-linejoin:miter;stroke-opacity:1"/>
<path class="bond-19 atom-10 atom-23" d="M 416.4,138.0 L 409.8,136.7" style="fill:none;fill-rule:evenodd;stroke:#0000FF;stroke-width:2.0px;stroke-linecap:butt;stroke-linejoin:miter;stroke-opacity:1"/>
<path class="bond-19 atom-10 atom-23" d="M 409.8,136.7 L 403.2,135.4" style="fill:none;fill-rule:evenodd;stroke:#000000;stroke-width:2.0px;stroke-linecap:butt;stroke-linejoin:miter;stroke-opacity:1"/>
<path class="bond-20 atom-10 atom-35" d="M 420.9,135.9 L 423.8,132.6" style="fill:none;fill-rule:evenodd;stroke:#0000FF;stroke-width:2.0px;stroke-linecap:butt;stroke-linejoin:miter;stroke-opacity:1"/>
<path class="bond-20 atom-10 atom-35" d="M 423.8,132.6 L 426.7,129.2" style="fill:none;fill-rule:evenodd;stroke:#000000;stroke-width:2.0px;stroke-linecap:butt;stroke-linejoin:miter;stroke-opacity:1"/>
<path class="bond-21 atom-11 atom-12" d="M 485.8,161.3 L 499.5,168.9" style="fill:none;fill-rule:evenodd;stroke:#000000;stroke-width:2.0px;stroke-linecap:butt;stroke-linejoin:miter;stroke-opacity:1"/>
<path class="bond-21 atom-11 atom-12" d="M 489.4,159.7 L 499.0,165.0" style="fill:none;fill-rule:evenodd;stroke:#000000;stroke-width:2.0px;stroke-linecap:butt;stroke-linejoin:miter;stroke-opacity:1"/>
<path class="bond-22 atom-11 atom-16" d="M 485.8,161.3 L 485.5,145.5" style="fill:none;fill-rule:evenodd;stroke:#000000;stroke-width:2.0px;stroke-linecap:butt;stroke-linejoin:miter;stroke-opacity:1"/>
<path class="bond-23 atom-12 atom-13" d="M 499.5,168.9 L 513.0,160.8" style="fill:none;fill-rule:evenodd;stroke:#000000;stroke-width:2.0px;stroke-linecap:butt;stroke-linejoin:miter;stroke-opacity:1"/>
<path class="bond-24 atom-12 atom-36" d="M 499.5,168.9 L 499.7,181.9" style="fill:none;fill-rule:evenodd;stroke:#000000;stroke-width:2.0px;stroke-linecap:butt;stroke-linejoin:miter;stroke-opacity:1"/>
<path class="bond-25 atom-13 atom-14" d="M 513.0,160.8 L 512.8,145.1" style="fill:none;fill-rule:evenodd;stroke:#000000;stroke-width:2.0px;stroke-linecap:butt;stroke-linejoin:miter;stroke-opacity:1"/>
<path class="bond-25 atom-13 atom-14" d="M 509.8,158.5 L 509.7,147.5" style="fill:none;fill-rule:evenodd;stroke:#000000;stroke-width:2.0px;stroke-linecap:butt;stroke-linejoin:miter;stroke-opacity:1"/>
<path class="bond-26 atom-13 atom-37" d="M 513.0,160.8 L 524.5,167.2" style="fill:none;fill-rule:evenodd;stroke:#000000;stroke-width:2.0px;stroke-linecap:butt;stroke-linejoin:miter;stroke-opacity:1"/>
<path class="bond-27 atom-14 atom-15" d="M 512.8,145.1 L 499.0,137.5" style="fill:none;fill-rule:evenodd;stroke:#000000;stroke-width:2.0px;stroke-linecap:butt;stroke-linejoin:miter;stroke-opacity:1"/>
<path class="bond-28 atom-14 atom-17" d="M 512.8,145.1 L 526.3,137.0" style="fill:none;fill-rule:evenodd;stroke:#000000;stroke-width:2.0px;stroke-linecap:butt;stroke-linejoin:miter;stroke-opacity:1"/>
<path class="bond-29 atom-15 atom-16" d="M 499.0,137.5 L 485.5,145.5" style="fill:none;fill-rule:evenodd;stroke:#000000;stroke-width:2.0px;stroke-linecap:butt;stroke-linejoin:miter;stroke-opacity:1"/>
<path class="bond-29 atom-15 atom-16" d="M 498.6,141.4 L 489.2,147.0" style="fill:none;fill-rule:evenodd;stroke:#000000;stroke-width:2.0px;stroke-linecap:butt;stroke-linejoin:miter;stroke-opacity:1"/>
<path class="bond-30 atom-15 atom-38" d="M 499.0,137.5 L 498.8,124.5" style="fill:none;fill-rule:evenodd;stroke:#000000;stroke-width:2.0px;stroke-linecap:butt;stroke-linejoin:miter;stroke-opacity:1"/>
<path class="bond-31 atom-16 atom-39" d="M 485.5,145.5 L 474.0,139.2" style="fill:none;fill-rule:evenodd;stroke:#000000;stroke-width:2.0px;stroke-linecap:butt;stroke-linejoin:miter;stroke-opacity:1"/>
<path class="bond-32 atom-17 atom-18" d="M 526.3,137.0 L 527.7,121.4" style="fill:none;fill-rule:evenodd;stroke:#000000;stroke-width:2.0px;stroke-linecap:butt;stroke-linejoin:miter;stroke-opacity:1"/>
<path class="bond-32 atom-17 atom-18" d="M 529.6,135.0 L 530.6,124.0" style="fill:none;fill-rule:evenodd;stroke:#000000;stroke-width:2.0px;stroke-linecap:butt;stroke-linejoin:miter;stroke-opacity:1"/>
<path class="bond-33 atom-17 atom-21" d="M 526.3,137.0 L 540.7,143.2" style="fill:none;fill-rule:evenodd;stroke:#000000;stroke-width:2.0px;stroke-linecap:butt;stroke-linejoin:miter;stroke-opacity:1"/>
<path class="bond-34 atom-18 atom-19" d="M 527.7,121.4 L 534.2,119.9" style="fill:none;fill-rule:evenodd;stroke:#000000;stroke-width:2.0px;stroke-linecap:butt;stroke-linejoin:miter;stroke-opacity:1"/>
<path class="bond-34 atom-18 atom-19" d="M 534.2,119.9 L 540.8,118.4" style="fill:none;fill-rule:evenodd;stroke:#0000FF;stroke-width:2.0px;stroke-linecap:butt;stroke-linejoin:miter;stroke-opacity:1"/>
<path class="bond-35 atom-18 atom-40" d="M 527.7,121.4 L 518.1,113.0" style="fill:none;fill-rule:evenodd;stroke:#000000;stroke-width:2.0px;stroke-linecap:butt;stroke-linejoin:miter;stroke-opacity:1"/>
<path class="bond-36 atom-19 atom-20" d="M 544.6,120.6 L 549.4,128.6" style="fill:none;fill-rule:evenodd;stroke:#0000FF;stroke-width:2.0px;stroke-linecap:butt;stroke-linejoin:miter;stroke-opacity:1"/>
<path class="bond-37 atom-19 atom-22" d="M 544.2,115.1 L 546.7,109.2" style="fill:none;fill-rule:evenodd;stroke:#0000FF;stroke-width:2.0px;stroke-linecap:butt;stroke-linejoin:miter;stroke-opacity:1"/>
<path class="bond-37 atom-19 atom-22" d="M 546.7,109.2 L 549.2,103.4" style="fill:none;fill-rule:evenodd;stroke:#000000;stroke-width:2.0px;stroke-linecap:butt;stroke-linejoin:miter;stroke-opacity:1"/>
<path class="bond-38 atom-20 atom-21" d="M 548.9,133.9 L 544.8,138.5" style="fill:none;fill-rule:evenodd;stroke:#0000FF;stroke-width:2.0px;stroke-linecap:butt;stroke-linejoin:miter;stroke-opacity:1"/>
<path class="bond-38 atom-20 atom-21" d="M 544.8,138.5 L 540.7,143.2" style="fill:none;fill-rule:evenodd;stroke:#000000;stroke-width:2.0px;stroke-linecap:butt;stroke-linejoin:miter;stroke-opacity:1"/>
<path class="bond-38 atom-20 atom-21" d="M 545.3,133.2 L 542.4,136.5" style="fill:none;fill-rule:evenodd;stroke:#0000FF;stroke-width:2.0px;stroke-linecap:butt;stroke-linejoin:miter;stroke-opacity:1"/>
<path class="bond-38 atom-20 atom-21" d="M 542.4,136.5 L 539.6,139.7" style="fill:none;fill-rule:evenodd;stroke:#000000;stroke-width:2.0px;stroke-linecap:butt;stroke-linejoin:miter;stroke-opacity:1"/>
<path class="bond-39 atom-21 atom-41" d="M 540.7,143.2 L 543.6,155.8" style="fill:none;fill-rule:evenodd;stroke:#000000;stroke-width:2.0px;stroke-linecap:butt;stroke-linejoin:miter;stroke-opacity:1"/>
<path class="bond-40 atom-22 atom-42" d="M 549.2,103.4 L 561.4,108.6" style="fill:none;fill-rule:evenodd;stroke:#000000;stroke-width:2.0px;stroke-linecap:butt;stroke-linejoin:miter;stroke-opacity:1"/>
<path class="bond-41 atom-22 atom-43" d="M 549.2,103.4 L 537.0,98.2" style="fill:none;fill-rule:evenodd;stroke:#000000;stroke-width:2.0px;stroke-linecap:butt;stroke-linejoin:miter;stroke-opacity:1"/>
<path class="bond-42 atom-22 atom-44" d="M 549.2,103.4 L 554.2,91.7" style="fill:none;fill-rule:evenodd;stroke:#000000;stroke-width:2.0px;stroke-linecap:butt;stroke-linejoin:miter;stroke-opacity:1"/>
<path class="bond-43 atom-23 atom-24" d="M 403.2,135.4 L 387.8,132.4" style="fill:none;fill-rule:evenodd;stroke:#000000;stroke-width:2.0px;stroke-linecap:butt;stroke-linejoin:miter;stroke-opacity:1"/>
<path class="bond-44 atom-23 atom-45" d="M 403.2,135.4 L 405.7,122.7" style="fill:none;fill-rule:evenodd;stroke:#000000;stroke-width:2.0px;stroke-linecap:butt;stroke-linejoin:miter;stroke-opacity:1"/>
<path class="bond-45 atom-23 atom-46" d="M 403.2,135.4 L 400.7,148.1" style="fill:none;fill-rule:evenodd;stroke:#000000;stroke-width:2.0px;stroke-linecap:butt;stroke-linejoin:miter;stroke-opacity:1"/>
<path class="bond-46 atom-24 atom-25" d="M 387.8,132.4 L 381.2,131.1" style="fill:none;fill-rule:evenodd;stroke:#000000;stroke-width:2.0px;stroke-linecap:butt;stroke-linejoin:miter;stroke-opacity:1"/>
<path class="bond-46 atom-24 atom-25" d="M 381.2,131.1 L 374.5,129.8" style="fill:none;fill-rule:evenodd;stroke:#0000FF;stroke-width:2.0px;stroke-linecap:butt;stroke-linejoin:miter;stroke-opacity:1"/>
<path class="bond-47 atom-24 atom-47" d="M 387.8,132.4 L 385.3,145.1" style="fill:none;fill-rule:evenodd;stroke:#000000;stroke-width:2.0px;stroke-linecap:butt;stroke-linejoin:miter;stroke-opacity:1"/>
<path class="bond-48 atom-24 atom-48" d="M 387.8,132.4 L 390.3,119.7" style="fill:none;fill-rule:evenodd;stroke:#000000;stroke-width:2.0px;stroke-linecap:butt;stroke-linejoin:miter;stroke-opacity:1"/>
<path class="bond-49 atom-25 atom-26" d="M 371.4,126.6 L 369.3,120.6" style="fill:none;fill-rule:evenodd;stroke:#0000FF;stroke-width:2.0px;stroke-linecap:butt;stroke-linejoin:miter;stroke-opacity:1"/>
<path class="bond-49 atom-25 atom-26" d="M 369.3,120.6 L 367.2,114.5" style="fill:none;fill-rule:evenodd;stroke:#000000;stroke-width:2.0px;stroke-linecap:butt;stroke-linejoin:miter;stroke-opacity:1"/>
<path class="bond-50 atom-25 atom-49" d="M 370.1,131.9 L 367.2,135.3" style="fill:none;fill-rule:evenodd;stroke:#0000FF;stroke-width:2.0px;stroke-linecap:butt;stroke-linejoin:miter;stroke-opacity:1"/>
<path class="bond-50 atom-25 atom-49" d="M 367.2,135.3 L 364.3,138.6" style="fill:none;fill-rule:evenodd;stroke:#000000;stroke-width:2.0px;stroke-linecap:butt;stroke-linejoin:miter;stroke-opacity:1"/>
<path class="bond-51 atom-26 atom-27" d="M 366.1,113.5 L 370.0,109.0" style="fill:none;fill-rule:evenodd;stroke:#000000;stroke-width:2.0px;stroke-linecap:butt;stroke-linejoin:miter;stroke-opacity:1"/>
<path class="bond-51 atom-26 atom-27" d="M 370.0,109.0 L 373.9,104.4" style="fill:none;fill-rule:evenodd;stroke:#FF0000;stroke-width:2.0px;stroke-linecap:butt;stroke-linejoin:miter;stroke-opacity:1"/>
<path class="bond-51 atom-26 atom-27" d="M 368.4,115.5 L 372.4,111.0" style="fill:none;fill-rule:evenodd;stroke:#000000;stroke-width:2.0px;stroke-linecap:butt;stroke-linejoin:miter;stroke-opacity:1"/>
<path class="bond-51 atom-26 atom-27" d="M 372.4,111.0 L 376.3,106.5" style="fill:none;fill-rule:evenodd;stroke:#FF0000;stroke-width:2.0px;stroke-linecap:butt;stroke-linejoin:miter;stroke-opacity:1"/>
<path class="bond-52 atom-26 atom-28" d="M 367.2,114.5 L 351.8,111.5" style="fill:none;fill-rule:evenodd;stroke:#000000;stroke-width:2.0px;stroke-linecap:butt;stroke-linejoin:miter;stroke-opacity:1"/>
<path class="bond-53 atom-28 atom-50" d="M 351.8,111.5 L 354.3,98.8" style="fill:none;fill-rule:evenodd;stroke:#000000;stroke-width:2.0px;stroke-linecap:butt;stroke-linejoin:miter;stroke-opacity:1"/>
<path class="bond-54 atom-28 atom-51" d="M 351.8,111.5 L 349.3,124.2" style="fill:none;fill-rule:evenodd;stroke:#000000;stroke-width:2.0px;stroke-linecap:butt;stroke-linejoin:miter;stroke-opacity:1"/>
<path class="bond-55 atom-28 atom-52" d="M 351.8,111.5 L 338.6,108.9" style="fill:none;fill-rule:evenodd;stroke:#000000;stroke-width:2.0px;stroke-linecap:butt;stroke-linejoin:miter;stroke-opacity:1"/>
<path class="atom-7" d="M 456.4 190.9 L 457.8 193.2 Q 458.0 193.5, 458.2 193.9 Q 458.4 194.3, 458.5 194.3 L 458.5 190.9 L 459.1 190.9 L 459.1 195.3 L 458.4 195.3 L 456.9 192.8 Q 456.7 192.5, 456.5 192.1 Q 456.3 191.8, 456.3 191.7 L 456.3 195.3 L 455.7 195.3 L 455.7 190.9 L 456.4 190.9 " fill="#0000FF"/>
<path class="atom-8" d="M 441.0 194.4 L 442.5 196.8 Q 442.6 197.0, 442.9 197.4 Q 443.1 197.8, 443.1 197.9 L 443.1 194.4 L 443.7 194.4 L 443.7 198.9 L 443.1 198.9 L 441.5 196.3 Q 441.4 196.0, 441.2 195.6 Q 441.0 195.3, 440.9 195.2 L 440.9 198.9 L 440.3 198.9 L 440.3 194.4 L 441.0 194.4 " fill="#0000FF"/>
<path class="atom-10" d="M 417.7 136.2 L 419.1 138.6 Q 419.3 138.8, 419.5 139.3 Q 419.7 139.7, 419.8 139.7 L 419.8 136.2 L 420.3 136.2 L 420.3 140.7 L 419.7 140.7 L 418.2 138.1 Q 418.0 137.8, 417.8 137.5 Q 417.6 137.1, 417.5 137.0 L 417.5 140.7 L 417.0 140.7 L 417.0 136.2 L 417.7 136.2 " fill="#0000FF"/>
<path class="atom-19" d="M 542.0 115.6 L 543.5 118.0 Q 543.6 118.2, 543.8 118.6 Q 544.1 119.1, 544.1 119.1 L 544.1 115.6 L 544.7 115.6 L 544.7 120.1 L 544.1 120.1 L 542.5 117.5 Q 542.3 117.2, 542.1 116.8 Q 541.9 116.5, 541.9 116.4 L 541.9 120.1 L 541.3 120.1 L 541.3 115.6 L 542.0 115.6 " fill="#0000FF"/>
<path class="atom-20" d="M 550.1 129.1 L 551.6 131.5 Q 551.7 131.7, 551.9 132.1 Q 552.2 132.6, 552.2 132.6 L 552.2 129.1 L 552.8 129.1 L 552.8 133.6 L 552.2 133.6 L 550.6 131.0 Q 550.4 130.7, 550.2 130.3 Q 550.0 130.0, 550.0 129.9 L 550.0 133.6 L 549.4 133.6 L 549.4 129.1 L 550.1 129.1 " fill="#0000FF"/>
<path class="atom-25" d="M 371.4 127.2 L 372.8 129.5 Q 373.0 129.7, 373.2 130.2 Q 373.4 130.6, 373.4 130.6 L 373.4 127.2 L 374.0 127.2 L 374.0 131.6 L 373.4 131.6 L 371.8 129.0 Q 371.7 128.7, 371.5 128.4 Q 371.3 128.0, 371.2 127.9 L 371.2 131.6 L 370.6 131.6 L 370.6 127.2 L 371.4 127.2 " fill="#0000FF"/>
<path class="atom-27" d="M 375.5 102.7 Q 375.5 101.6, 376.1 101.0 Q 376.6 100.4, 377.6 100.4 Q 378.6 100.4, 379.1 101.0 Q 379.6 101.6, 379.6 102.7 Q 379.6 103.7, 379.1 104.4 Q 378.6 105.0, 377.6 105.0 Q 376.6 105.0, 376.1 104.4 Q 375.5 103.7, 375.5 102.7 M 377.6 104.5 Q 378.3 104.5, 378.6 104.0 Q 379.0 103.5, 379.0 102.7 Q 379.0 101.8, 378.6 101.3 Q 378.3 100.9, 377.6 100.9 Q 376.9 100.9, 376.5 101.3 Q 376.2 101.8, 376.2 102.7 Q 376.2 103.6, 376.5 104.0 Q 376.9 104.5, 377.6 104.5 " fill="#FF0000"/>
<path class="atom-29" d="M 447.8 142.3 L 448.4 142.3 L 448.4 144.2 L 450.7 144.2 L 450.7 142.3 L 451.3 142.3 L 451.3 146.8 L 450.7 146.8 L 450.7 144.7 L 448.4 144.7 L 448.4 146.8 L 447.8 146.8 L 447.8 142.3 " fill="#000000"/>
<path class="atom-30" d="M 406.4 189.7 L 407.0 189.7 L 407.0 191.6 L 409.3 191.6 L 409.3 189.7 L 409.9 189.7 L 409.9 194.2 L 409.3 194.2 L 409.3 192.1 L 407.0 192.1 L 407.0 194.2 L 406.4 194.2 L 406.4 189.7 " fill="#000000"/>
<path class="atom-31" d="M 396.2 160.0 L 396.8 160.0 L 396.8 161.8 L 399.1 161.8 L 399.1 160.0 L 399.7 160.0 L 399.7 164.4 L 399.1 164.4 L 399.1 162.3 L 396.8 162.3 L 396.8 164.4 L 396.2 164.4 L 396.2 160.0 " fill="#000000"/>
<path class="atom-32" d="M 434.1 208.9 L 434.7 208.9 L 434.7 210.8 L 437.0 210.8 L 437.0 208.9 L 437.6 208.9 L 437.6 213.3 L 437.0 213.3 L 437.0 211.3 L 434.7 211.3 L 434.7 213.3 L 434.1 213.3 L 434.1 208.9 " fill="#000000"/>
<path class="atom-33" d="M 478.6 180.6 L 479.2 180.6 L 479.2 182.5 L 481.5 182.5 L 481.5 180.6 L 482.1 180.6 L 482.1 185.1 L 481.5 185.1 L 481.5 183.0 L 479.2 183.0 L 479.2 185.1 L 478.6 185.1 L 478.6 180.6 " fill="#000000"/>
<path class="atom-34" d="M 462.4 153.6 L 463.0 153.6 L 463.0 155.5 L 465.3 155.5 L 465.3 153.6 L 465.9 153.6 L 465.9 158.1 L 465.3 158.1 L 465.3 156.0 L 463.0 156.0 L 463.0 158.1 L 462.4 158.1 L 462.4 153.6 " fill="#000000"/>
<path class="atom-35" d="M 427.3 124.4 L 427.9 124.4 L 427.9 126.3 L 430.1 126.3 L 430.1 124.4 L 430.7 124.4 L 430.7 128.8 L 430.1 128.8 L 430.1 126.8 L 427.9 126.8 L 427.9 128.8 L 427.3 128.8 L 427.3 124.4 " fill="#000000"/>
<path class="atom-36" d="M 498.0 182.4 L 498.6 182.4 L 498.6 184.3 L 500.9 184.3 L 500.9 182.4 L 501.5 182.4 L 501.5 186.9 L 500.9 186.9 L 500.9 184.8 L 498.6 184.8 L 498.6 186.9 L 498.0 186.9 L 498.0 182.4 " fill="#000000"/>
<path class="atom-37" d="M 525.0 166.3 L 525.6 166.3 L 525.6 168.2 L 527.9 168.2 L 527.9 166.3 L 528.5 166.3 L 528.5 170.7 L 527.9 170.7 L 527.9 168.7 L 525.6 168.7 L 525.6 170.7 L 525.0 170.7 L 525.0 166.3 " fill="#000000"/>
<path class="atom-38" d="M 497.0 119.5 L 497.6 119.5 L 497.6 121.4 L 499.9 121.4 L 499.9 119.5 L 500.5 119.5 L 500.5 124.0 L 499.9 124.0 L 499.9 121.9 L 497.6 121.9 L 497.6 124.0 L 497.0 124.0 L 497.0 119.5 " fill="#000000"/>
<path class="atom-39" d="M 470.0 135.7 L 470.6 135.7 L 470.6 137.6 L 472.9 137.6 L 472.9 135.7 L 473.5 135.7 L 473.5 140.1 L 472.9 140.1 L 472.9 138.1 L 470.6 138.1 L 470.6 140.1 L 470.0 140.1 L 470.0 135.7 " fill="#000000"/>
<path class="atom-40" d="M 514.1 108.8 L 514.7 108.8 L 514.7 110.7 L 516.9 110.7 L 516.9 108.8 L 517.5 108.8 L 517.5 113.2 L 516.9 113.2 L 516.9 111.2 L 514.7 111.2 L 514.7 113.2 L 514.1 113.2 L 514.1 108.8 " fill="#000000"/>
<path class="atom-41" d="M 542.5 156.3 L 543.1 156.3 L 543.1 158.2 L 545.4 158.2 L 545.4 156.3 L 546.0 156.3 L 546.0 160.8 L 545.4 160.8 L 545.4 158.7 L 543.1 158.7 L 543.1 160.8 L 542.5 160.8 L 542.5 156.3 " fill="#000000"/>
<path class="atom-42" d="M 561.9 107.3 L 562.5 107.3 L 562.5 109.2 L 564.8 109.2 L 564.8 107.3 L 565.4 107.3 L 565.4 111.8 L 564.8 111.8 L 564.8 109.7 L 562.5 109.7 L 562.5 111.8 L 561.9 111.8 L 561.9 107.3 " fill="#000000"/>
<path class="atom-43" d="M 533.0 95.0 L 533.6 95.0 L 533.6 96.9 L 535.8 96.9 L 535.8 95.0 L 536.4 95.0 L 536.4 99.4 L 535.8 99.4 L 535.8 97.4 L 533.6 97.4 L 533.6 99.4 L 533.0 99.4 L 533.0 95.0 " fill="#000000"/>
<path class="atom-44" d="M 553.6 86.7 L 554.2 86.7 L 554.2 88.6 L 556.5 88.6 L 556.5 86.7 L 557.1 86.7 L 557.1 91.1 L 556.5 91.1 L 556.5 89.1 L 554.2 89.1 L 554.2 91.1 L 553.6 91.1 L 553.6 86.7 " fill="#000000"/>
<path class="atom-45" d="M 404.5 117.8 L 405.1 117.8 L 405.1 119.7 L 407.4 119.7 L 407.4 117.8 L 408.0 117.8 L 408.0 122.2 L 407.4 122.2 L 407.4 120.2 L 405.1 120.2 L 405.1 122.2 L 404.5 122.2 L 404.5 117.8 " fill="#000000"/>
<path class="atom-46" d="M 398.4 148.6 L 399.0 148.6 L 399.0 150.5 L 401.3 150.5 L 401.3 148.6 L 401.9 148.6 L 401.9 153.1 L 401.3 153.1 L 401.3 151.0 L 399.0 151.0 L 399.0 153.1 L 398.4 153.1 L 398.4 148.6 " fill="#000000"/>
<path class="atom-47" d="M 383.0 145.6 L 383.6 145.6 L 383.6 147.5 L 385.9 147.5 L 385.9 145.6 L 386.5 145.6 L 386.5 150.1 L 385.9 150.1 L 385.9 148.0 L 383.6 148.0 L 383.6 150.1 L 383.0 150.1 L 383.0 145.6 " fill="#000000"/>
<path class="atom-48" d="M 389.1 114.7 L 389.7 114.7 L 389.7 116.6 L 391.9 116.6 L 391.9 114.7 L 392.5 114.7 L 392.5 119.2 L 391.9 119.2 L 391.9 117.1 L 389.7 117.1 L 389.7 119.2 L 389.1 119.2 L 389.1 114.7 " fill="#000000"/>
<path class="atom-49" d="M 360.2 139.0 L 360.9 139.0 L 360.9 140.9 L 363.1 140.9 L 363.1 139.0 L 363.7 139.0 L 363.7 143.5 L 363.1 143.5 L 363.1 141.4 L 360.9 141.4 L 360.9 143.5 L 360.2 143.5 L 360.2 139.0 " fill="#000000"/>
<path class="atom-50" d="M 353.1 93.8 L 353.7 93.8 L 353.7 95.7 L 356.0 95.7 L 356.0 93.8 L 356.6 93.8 L 356.6 98.3 L 356.0 98.3 L 356.0 96.2 L 353.7 96.2 L 353.7 98.3 L 353.1 98.3 L 353.1 93.8 " fill="#000000"/>
<path class="atom-51" d="M 347.0 124.7 L 347.6 124.7 L 347.6 126.6 L 349.9 126.6 L 349.9 124.7 L 350.5 124.7 L 350.5 129.1 L 349.9 129.1 L 349.9 127.1 L 347.6 127.1 L 347.6 129.1 L 347.0 129.1 L 347.0 124.7 " fill="#000000"/>
<path class="atom-52" d="M 334.6 106.2 L 335.2 106.2 L 335.2 108.1 L 337.5 108.1 L 337.5 106.2 L 338.1 106.2 L 338.1 110.7 L 337.5 110.7 L 337.5 108.6 L 335.2 108.6 L 335.2 110.7 L 334.6 110.7 L 334.6 106.2 " fill="#000000"/>
<text x="300" y="20" font-size="20" font-family="sans-serif" font-weight="normal" letter-spacing="0" text-anchor="middle" fill="black">cdk8: 35 -&gt; 27</text><text x="300" y="35" font-size="15" font-family="sans-serif" font-weight="normal" letter-spacing="0" text-anchor="middle" fill="black"></text><text x="150" y="285" font-size="15" font-family="sans-serif" font-weight="normal" letter-spacing="0" text-anchor="middle" fill="black">35</text><text x="450" y="285" font-size="15" font-family="sans-serif" font-weight="normal" letter-spacing="0" text-anchor="middle" fill="black">27</text></svg>
