<?xml version='1.0' encoding='ASCII' standalone='yes'?>
<svg xmlns="http://www.w3.org/2000/svg" xmlns:rdkit="http://www.rdkit.org/xml" xmlns:xlink="http://www.w3.org/1999/xlink" version="1.1" baseProfile="full" xml:space="preserve" width="600px" height="300px" viewBox="0 0 600 300">
<!-- END OF HEADER -->
<rect style="opacity:1.0;fill:#FFFFFF;stroke:none" width="600.0" height="300.0" x="0.0" y="0.0"> </rect>
<path class="bond-0 atom-0 atom-1" d="M 108.4,144.9 L 123.7,149.8" style="fill:none;fill-rule:evenodd;stroke:#000000;stroke-width:2.0px;stroke-linecap:butt;stroke-linejoin:miter;stroke-opacity:1"/>
<path class="bond-0 atom-0 atom-1" d="M 109.7,148.7 L 120.4,152.1" style="fill:none;fill-rule:evenodd;stroke:#000000;stroke-width:2.0px;stroke-linecap:butt;stroke-linejoin:miter;stroke-opacity:1"/>
<path class="bond-1 atom-0 atom-3" d="M 108.4,144.9 L 96.5,155.7" style="fill:none;fill-rule:evenodd;stroke:#000000;stroke-width:2.0px;stroke-linecap:butt;stroke-linejoin:miter;stroke-opacity:1"/>
<path class="bond-2 atom-0 atom-11" d="M 108.4,144.9 L 105.0,129.2" style="fill:none;fill-rule:evenodd;stroke:#000000;stroke-width:2.0px;stroke-linecap:butt;stroke-linejoin:miter;stroke-opacity:1"/>
<path class="bond-3 atom-1 atom-5" d="M 123.7,149.8 L 127.1,165.5" style="fill:none;fill-rule:evenodd;stroke:#000000;stroke-width:2.0px;stroke-linecap:butt;stroke-linejoin:miter;stroke-opacity:1"/>
<path class="bond-4 atom-1 atom-29" d="M 123.7,149.8 L 133.2,141.1" style="fill:none;fill-rule:evenodd;stroke:#000000;stroke-width:2.0px;stroke-linecap:butt;stroke-linejoin:miter;stroke-opacity:1"/>
<path class="bond-5 atom-2 atom-3" d="M 99.9,171.4 L 96.5,155.7" style="fill:none;fill-rule:evenodd;stroke:#000000;stroke-width:2.0px;stroke-linecap:butt;stroke-linejoin:miter;stroke-opacity:1"/>
<path class="bond-5 atom-2 atom-3" d="M 102.5,168.3 L 100.1,157.3" style="fill:none;fill-rule:evenodd;stroke:#000000;stroke-width:2.0px;stroke-linecap:butt;stroke-linejoin:miter;stroke-opacity:1"/>
<path class="bond-6 atom-2 atom-4" d="M 99.9,171.4 L 115.2,176.3" style="fill:none;fill-rule:evenodd;stroke:#000000;stroke-width:2.0px;stroke-linecap:butt;stroke-linejoin:miter;stroke-opacity:1"/>
<path class="bond-7 atom-2 atom-30" d="M 99.9,171.4 L 90.3,180.1" style="fill:none;fill-rule:evenodd;stroke:#000000;stroke-width:2.0px;stroke-linecap:butt;stroke-linejoin:miter;stroke-opacity:1"/>
<path class="bond-8 atom-3 atom-31" d="M 96.5,155.7 L 86.0,153.7" style="fill:none;fill-rule:evenodd;stroke:#000000;stroke-width:2.0px;stroke-linecap:butt;stroke-linejoin:miter;stroke-opacity:1"/>
<path class="bond-9 atom-4 atom-5" d="M 115.2,176.3 L 127.1,165.5" style="fill:none;fill-rule:evenodd;stroke:#000000;stroke-width:2.0px;stroke-linecap:butt;stroke-linejoin:miter;stroke-opacity:1"/>
<path class="bond-9 atom-4 atom-5" d="M 114.8,172.3 L 123.1,164.7" style="fill:none;fill-rule:evenodd;stroke:#000000;stroke-width:2.0px;stroke-linecap:butt;stroke-linejoin:miter;stroke-opacity:1"/>
<path class="bond-10 atom-4 atom-8" d="M 115.2,176.3 L 117.8,182.2" style="fill:none;fill-rule:evenodd;stroke:#000000;stroke-width:2.0px;stroke-linecap:butt;stroke-linejoin:miter;stroke-opacity:1"/>
<path class="bond-10 atom-4 atom-8" d="M 117.8,182.2 L 120.5,188.1" style="fill:none;fill-rule:evenodd;stroke:#0000FF;stroke-width:2.0px;stroke-linecap:butt;stroke-linejoin:miter;stroke-opacity:1"/>
<path class="bond-11 atom-5 atom-6" d="M 127.1,165.5 L 141.0,173.4" style="fill:none;fill-rule:evenodd;stroke:#000000;stroke-width:2.0px;stroke-linecap:butt;stroke-linejoin:miter;stroke-opacity:1"/>
<path class="bond-12 atom-6 atom-7" d="M 141.0,173.4 L 139.6,179.9" style="fill:none;fill-rule:evenodd;stroke:#000000;stroke-width:2.0px;stroke-linecap:butt;stroke-linejoin:miter;stroke-opacity:1"/>
<path class="bond-12 atom-6 atom-7" d="M 139.6,179.9 L 138.3,186.4" style="fill:none;fill-rule:evenodd;stroke:#0000FF;stroke-width:2.0px;stroke-linecap:butt;stroke-linejoin:miter;stroke-opacity:1"/>
<path class="bond-12 atom-6 atom-7" d="M 137.4,174.7 L 136.5,179.2" style="fill:none;fill-rule:evenodd;stroke:#000000;stroke-width:2.0px;stroke-linecap:butt;stroke-linejoin:miter;stroke-opacity:1"/>
<path class="bond-12 atom-6 atom-7" d="M 136.5,179.2 L 135.6,183.8" style="fill:none;fill-rule:evenodd;stroke:#0000FF;stroke-width:2.0px;stroke-linecap:butt;stroke-linejoin:miter;stroke-opacity:1"/>
<path class="bond-13 atom-6 atom-9" d="M 141.0,173.4 L 155.6,166.9" style="fill:none;fill-rule:evenodd;stroke:#000000;stroke-width:2.0px;stroke-linecap:butt;stroke-linejoin:miter;stroke-opacity:1"/>
<path class="bond-14 atom-7 atom-8" d="M 135.5,189.4 L 124.0,190.7" style="fill:none;fill-rule:evenodd;stroke:#0000FF;stroke-width:2.0px;stroke-linecap:butt;stroke-linejoin:miter;stroke-opacity:1"/>
<path class="bond-15 atom-8 atom-32" d="M 120.2,193.7 L 117.8,197.9" style="fill:none;fill-rule:evenodd;stroke:#0000FF;stroke-width:2.0px;stroke-linecap:butt;stroke-linejoin:miter;stroke-opacity:1"/>
<path class="bond-15 atom-8 atom-32" d="M 117.8,197.9 L 115.4,202.0" style="fill:none;fill-rule:evenodd;stroke:#000000;stroke-width:2.0px;stroke-linecap:butt;stroke-linejoin:miter;stroke-opacity:1"/>
<path class="bond-16 atom-9 atom-13" d="M 155.6,166.9 L 170.3,160.3" style="fill:none;fill-rule:evenodd;stroke:#000000;stroke-width:2.0px;stroke-linecap:butt;stroke-linejoin:miter;stroke-opacity:1"/>
<path class="bond-17 atom-9 atom-33" d="M 155.6,166.9 L 161.0,178.7" style="fill:none;fill-rule:evenodd;stroke:#000000;stroke-width:2.0px;stroke-linecap:butt;stroke-linejoin:miter;stroke-opacity:1"/>
<path class="bond-18 atom-9 atom-34" d="M 155.6,166.9 L 150.3,155.0" style="fill:none;fill-rule:evenodd;stroke:#000000;stroke-width:2.0px;stroke-linecap:butt;stroke-linejoin:miter;stroke-opacity:1"/>
<path class="bond-19 atom-10 atom-11" d="M 91.9,125.0 L 98.4,127.1" style="fill:none;fill-rule:evenodd;stroke:#0000FF;stroke-width:2.0px;stroke-linecap:butt;stroke-linejoin:miter;stroke-opacity:1"/>
<path class="bond-19 atom-10 atom-11" d="M 98.4,127.1 L 105.0,129.2" style="fill:none;fill-rule:evenodd;stroke:#000000;stroke-width:2.0px;stroke-linecap:butt;stroke-linejoin:miter;stroke-opacity:1"/>
<path class="bond-20 atom-10 atom-25" d="M 88.2,121.5 L 85.3,115.8" style="fill:none;fill-rule:evenodd;stroke:#0000FF;stroke-width:2.0px;stroke-linecap:butt;stroke-linejoin:miter;stroke-opacity:1"/>
<path class="bond-20 atom-10 atom-25" d="M 85.3,115.8 L 82.3,110.0" style="fill:none;fill-rule:evenodd;stroke:#000000;stroke-width:2.0px;stroke-linecap:butt;stroke-linejoin:miter;stroke-opacity:1"/>
<path class="bond-21 atom-10 atom-27" d="M 87.4,125.5 L 81.4,128.5" style="fill:none;fill-rule:evenodd;stroke:#0000FF;stroke-width:2.0px;stroke-linecap:butt;stroke-linejoin:miter;stroke-opacity:1"/>
<path class="bond-21 atom-10 atom-27" d="M 81.4,128.5 L 75.4,131.6" style="fill:none;fill-rule:evenodd;stroke:#000000;stroke-width:2.0px;stroke-linecap:butt;stroke-linejoin:miter;stroke-opacity:1"/>
<path class="bond-22 atom-11 atom-12" d="M 103.9,128.0 L 108.5,123.8" style="fill:none;fill-rule:evenodd;stroke:#000000;stroke-width:2.0px;stroke-linecap:butt;stroke-linejoin:miter;stroke-opacity:1"/>
<path class="bond-22 atom-11 atom-12" d="M 108.5,123.8 L 113.2,119.6" style="fill:none;fill-rule:evenodd;stroke:#FF0000;stroke-width:2.0px;stroke-linecap:butt;stroke-linejoin:miter;stroke-opacity:1"/>
<path class="bond-22 atom-11 atom-12" d="M 106.0,130.4 L 110.7,126.2" style="fill:none;fill-rule:evenodd;stroke:#000000;stroke-width:2.0px;stroke-linecap:butt;stroke-linejoin:miter;stroke-opacity:1"/>
<path class="bond-22 atom-11 atom-12" d="M 110.7,126.2 L 115.3,122.0" style="fill:none;fill-rule:evenodd;stroke:#FF0000;stroke-width:2.0px;stroke-linecap:butt;stroke-linejoin:miter;stroke-opacity:1"/>
<path class="bond-23 atom-13 atom-14" d="M 170.3,160.3 L 183.3,169.6" style="fill:none;fill-rule:evenodd;stroke:#000000;stroke-width:2.0px;stroke-linecap:butt;stroke-linejoin:miter;stroke-opacity:1"/>
<path class="bond-23 atom-13 atom-14" d="M 174.1,159.1 L 183.2,165.6" style="fill:none;fill-rule:evenodd;stroke:#000000;stroke-width:2.0px;stroke-linecap:butt;stroke-linejoin:miter;stroke-opacity:1"/>
<path class="bond-24 atom-13 atom-18" d="M 170.3,160.3 L 171.9,144.3" style="fill:none;fill-rule:evenodd;stroke:#000000;stroke-width:2.0px;stroke-linecap:butt;stroke-linejoin:miter;stroke-opacity:1"/>
<path class="bond-25 atom-14 atom-15" d="M 183.3,169.6 L 197.9,163.1" style="fill:none;fill-rule:evenodd;stroke:#000000;stroke-width:2.0px;stroke-linecap:butt;stroke-linejoin:miter;stroke-opacity:1"/>
<path class="bond-26 atom-14 atom-35" d="M 183.3,169.6 L 182.0,182.8" style="fill:none;fill-rule:evenodd;stroke:#000000;stroke-width:2.0px;stroke-linecap:butt;stroke-linejoin:miter;stroke-opacity:1"/>
<path class="bond-27 atom-15 atom-16" d="M 197.9,163.1 L 199.5,147.1" style="fill:none;fill-rule:evenodd;stroke:#000000;stroke-width:2.0px;stroke-linecap:butt;stroke-linejoin:miter;stroke-opacity:1"/>
<path class="bond-27 atom-15 atom-16" d="M 195.0,160.3 L 196.1,149.2" style="fill:none;fill-rule:evenodd;stroke:#000000;stroke-width:2.0px;stroke-linecap:butt;stroke-linejoin:miter;stroke-opacity:1"/>
<path class="bond-28 atom-15 atom-36" d="M 197.9,163.1 L 208.7,170.8" style="fill:none;fill-rule:evenodd;stroke:#000000;stroke-width:2.0px;stroke-linecap:butt;stroke-linejoin:miter;stroke-opacity:1"/>
<path class="bond-29 atom-16 atom-17" d="M 199.5,147.1 L 186.5,137.7" style="fill:none;fill-rule:evenodd;stroke:#000000;stroke-width:2.0px;stroke-linecap:butt;stroke-linejoin:miter;stroke-opacity:1"/>
<path class="bond-30 atom-16 atom-19" d="M 199.5,147.1 L 214.2,140.5" style="fill:none;fill-rule:evenodd;stroke:#000000;stroke-width:2.0px;stroke-linecap:butt;stroke-linejoin:miter;stroke-opacity:1"/>
<path class="bond-31 atom-17 atom-18" d="M 186.5,137.7 L 171.9,144.3" style="fill:none;fill-rule:evenodd;stroke:#000000;stroke-width:2.0px;stroke-linecap:butt;stroke-linejoin:miter;stroke-opacity:1"/>
<path class="bond-31 atom-17 atom-18" d="M 185.6,141.6 L 175.4,146.2" style="fill:none;fill-rule:evenodd;stroke:#000000;stroke-width:2.0px;stroke-linecap:butt;stroke-linejoin:miter;stroke-opacity:1"/>
<path class="bond-32 atom-17 atom-37" d="M 186.5,137.7 L 187.9,124.5" style="fill:none;fill-rule:evenodd;stroke:#000000;stroke-width:2.0px;stroke-linecap:butt;stroke-linejoin:miter;stroke-opacity:1"/>
<path class="bond-33 atom-18 atom-38" d="M 171.9,144.3 L 161.2,136.6" style="fill:none;fill-rule:evenodd;stroke:#000000;stroke-width:2.0px;stroke-linecap:butt;stroke-linejoin:miter;stroke-opacity:1"/>
<path class="bond-34 atom-19 atom-20" d="M 214.2,140.5 L 217.5,124.8" style="fill:none;fill-rule:evenodd;stroke:#000000;stroke-width:2.0px;stroke-linecap:butt;stroke-linejoin:miter;stroke-opacity:1"/>
<path class="bond-34 atom-19 atom-20" d="M 217.8,138.8 L 220.1,127.8" style="fill:none;fill-rule:evenodd;stroke:#000000;stroke-width:2.0px;stroke-linecap:butt;stroke-linejoin:miter;stroke-opacity:1"/>
<path class="bond-35 atom-19 atom-23" d="M 214.2,140.5 L 228.1,148.5" style="fill:none;fill-rule:evenodd;stroke:#000000;stroke-width:2.0px;stroke-linecap:butt;stroke-linejoin:miter;stroke-opacity:1"/>
<path class="bond-36 atom-20 atom-21" d="M 217.5,124.8 L 224.3,124.0" style="fill:none;fill-rule:evenodd;stroke:#000000;stroke-width:2.0px;stroke-linecap:butt;stroke-linejoin:miter;stroke-opacity:1"/>
<path class="bond-36 atom-20 atom-21" d="M 224.3,124.0 L 231.2,123.3" style="fill:none;fill-rule:evenodd;stroke:#0000FF;stroke-width:2.0px;stroke-linecap:butt;stroke-linejoin:miter;stroke-opacity:1"/>
<path class="bond-37 atom-20 atom-39" d="M 217.5,124.8 L 209.0,115.4" style="fill:none;fill-rule:evenodd;stroke:#000000;stroke-width:2.0px;stroke-linecap:butt;stroke-linejoin:miter;stroke-opacity:1"/>
<path class="bond-38 atom-21 atom-22" d="M 234.7,125.8 L 238.7,134.9" style="fill:none;fill-rule:evenodd;stroke:#0000FF;stroke-width:2.0px;stroke-linecap:butt;stroke-linejoin:miter;stroke-opacity:1"/>
<path class="bond-39 atom-21 atom-24" d="M 235.0,120.2 L 238.2,114.7" style="fill:none;fill-rule:evenodd;stroke:#0000FF;stroke-width:2.0px;stroke-linecap:butt;stroke-linejoin:miter;stroke-opacity:1"/>
<path class="bond-39 atom-21 atom-24" d="M 238.2,114.7 L 241.4,109.1" style="fill:none;fill-rule:evenodd;stroke:#000000;stroke-width:2.0px;stroke-linecap:butt;stroke-linejoin:miter;stroke-opacity:1"/>
<path class="bond-40 atom-22 atom-23" d="M 237.8,139.7 L 232.9,144.1" style="fill:none;fill-rule:evenodd;stroke:#0000FF;stroke-width:2.0px;stroke-linecap:butt;stroke-linejoin:miter;stroke-opacity:1"/>
<path class="bond-40 atom-22 atom-23" d="M 232.9,144.1 L 228.1,148.5" style="fill:none;fill-rule:evenodd;stroke:#000000;stroke-width:2.0px;stroke-linecap:butt;stroke-linejoin:miter;stroke-opacity:1"/>
<path class="bond-40 atom-22 atom-23" d="M 234.2,138.7 L 230.8,141.7" style="fill:none;fill-rule:evenodd;stroke:#0000FF;stroke-width:2.0px;stroke-linecap:butt;stroke-linejoin:miter;stroke-opacity:1"/>
<path class="bond-40 atom-22 atom-23" d="M 230.8,141.7 L 227.4,144.8" style="fill:none;fill-rule:evenodd;stroke:#000000;stroke-width:2.0px;stroke-linecap:butt;stroke-linejoin:miter;stroke-opacity:1"/>
<path class="bond-41 atom-23 atom-40" d="M 228.1,148.5 L 229.6,161.6" style="fill:none;fill-rule:evenodd;stroke:#000000;stroke-width:2.0px;stroke-linecap:butt;stroke-linejoin:miter;stroke-opacity:1"/>
<path class="bond-42 atom-24 atom-41" d="M 241.4,109.1 L 253.0,115.8" style="fill:none;fill-rule:evenodd;stroke:#000000;stroke-width:2.0px;stroke-linecap:butt;stroke-linejoin:miter;stroke-opacity:1"/>
<path class="bond-43 atom-24 atom-42" d="M 241.4,109.1 L 229.8,102.4" style="fill:none;fill-rule:evenodd;stroke:#000000;stroke-width:2.0px;stroke-linecap:butt;stroke-linejoin:miter;stroke-opacity:1"/>
<path class="bond-44 atom-24 atom-43" d="M 241.4,109.1 L 247.8,98.0" style="fill:none;fill-rule:evenodd;stroke:#000000;stroke-width:2.0px;stroke-linecap:butt;stroke-linejoin:miter;stroke-opacity:1"/>
<path class="bond-45 atom-25 atom-26" d="M 82.3,110.0 L 68.1,117.4" style="fill:none;fill-rule:evenodd;stroke:#000000;stroke-width:2.0px;stroke-linecap:butt;stroke-linejoin:miter;stroke-opacity:1"/>
<path class="bond-46 atom-25 atom-44" d="M 82.3,110.0 L 76.4,98.5" style="fill:none;fill-rule:evenodd;stroke:#000000;stroke-width:2.0px;stroke-linecap:butt;stroke-linejoin:miter;stroke-opacity:1"/>
<path class="bond-47 atom-25 atom-45" d="M 82.3,110.0 L 94.3,103.9" style="fill:none;fill-rule:evenodd;stroke:#000000;stroke-width:2.0px;stroke-linecap:butt;stroke-linejoin:miter;stroke-opacity:1"/>
<path class="bond-48 atom-26 atom-27" d="M 68.1,117.4 L 75.4,131.6" style="fill:none;fill-rule:evenodd;stroke:#000000;stroke-width:2.0px;stroke-linecap:butt;stroke-linejoin:miter;stroke-opacity:1"/>
<path class="bond-49 atom-26 atom-28" d="M 68.1,117.4 L 65.1,111.7" style="fill:none;fill-rule:evenodd;stroke:#000000;stroke-width:2.0px;stroke-linecap:butt;stroke-linejoin:miter;stroke-opacity:1"/>
<path class="bond-49 atom-26 atom-28" d="M 65.1,111.7 L 62.2,106.0" style="fill:none;fill-rule:evenodd;stroke:#FF0000;stroke-width:2.0px;stroke-linecap:butt;stroke-linejoin:miter;stroke-opacity:1"/>
<path class="bond-50 atom-26 atom-46" d="M 68.1,117.4 L 56.1,123.5" style="fill:none;fill-rule:evenodd;stroke:#000000;stroke-width:2.0px;stroke-linecap:butt;stroke-linejoin:miter;stroke-opacity:1"/>
<path class="bond-51 atom-27 atom-47" d="M 75.4,131.6 L 78.9,141.0" style="fill:none;fill-rule:evenodd;stroke:#000000;stroke-width:2.0px;stroke-linecap:butt;stroke-linejoin:miter;stroke-opacity:1"/>
<path class="bond-52 atom-27 atom-48" d="M 75.4,131.6 L 63.4,137.8" style="fill:none;fill-rule:evenodd;stroke:#000000;stroke-width:2.0px;stroke-linecap:butt;stroke-linejoin:miter;stroke-opacity:1"/>
<path class="bond-53 atom-28 atom-49" d="M 58.1,103.0 L 52.5,102.7" style="fill:none;fill-rule:evenodd;stroke:#FF0000;stroke-width:2.0px;stroke-linecap:butt;stroke-linejoin:miter;stroke-opacity:1"/>
<path class="bond-53 atom-28 atom-49" d="M 52.5,102.7 L 47.0,102.4" style="fill:none;fill-rule:evenodd;stroke:#000000;stroke-width:2.0px;stroke-linecap:butt;stroke-linejoin:miter;stroke-opacity:1"/>
<path class="atom-7" d="M 136.7 186.9 L 138.2 189.3 Q 138.4 189.5, 138.6 190.0 Q 138.8 190.4, 138.8 190.4 L 138.8 186.9 L 139.4 186.9 L 139.4 191.4 L 138.8 191.4 L 137.2 188.8 Q 137.0 188.5, 136.8 188.1 Q 136.6 187.8, 136.6 187.7 L 136.6 191.4 L 136.0 191.4 L 136.0 186.9 L 136.7 186.9 " fill="#0000FF"/>
<path class="atom-8" d="M 120.8 188.6 L 122.2 191.0 Q 122.4 191.3, 122.6 191.7 Q 122.9 192.1, 122.9 192.2 L 122.9 188.6 L 123.5 188.6 L 123.5 193.2 L 122.9 193.2 L 121.3 190.5 Q 121.1 190.2, 120.9 189.9 Q 120.7 189.5, 120.6 189.4 L 120.6 193.2 L 120.0 193.2 L 120.0 188.6 L 120.8 188.6 " fill="#0000FF"/>
<path class="atom-10" d="M 88.7 122.0 L 90.2 124.4 Q 90.3 124.7, 90.5 125.1 Q 90.8 125.5, 90.8 125.6 L 90.8 122.0 L 91.4 122.0 L 91.4 126.6 L 90.8 126.6 L 89.2 123.9 Q 89.0 123.6, 88.8 123.3 Q 88.6 122.9, 88.5 122.8 L 88.5 126.6 L 88.0 126.6 L 88.0 122.0 L 88.7 122.0 " fill="#0000FF"/>
<path class="atom-12" d="M 114.8 118.4 Q 114.8 117.3, 115.3 116.7 Q 115.8 116.1, 116.9 116.1 Q 117.9 116.1, 118.4 116.7 Q 118.9 117.3, 118.9 118.4 Q 118.9 119.5, 118.4 120.2 Q 117.8 120.8, 116.9 120.8 Q 115.8 120.8, 115.3 120.2 Q 114.8 119.5, 114.8 118.4 M 116.9 120.3 Q 117.5 120.3, 117.9 119.8 Q 118.3 119.3, 118.3 118.4 Q 118.3 117.5, 117.9 117.1 Q 117.5 116.6, 116.9 116.6 Q 116.2 116.6, 115.8 117.1 Q 115.4 117.5, 115.4 118.4 Q 115.4 119.3, 115.8 119.8 Q 116.2 120.3, 116.9 120.3 " fill="#FF0000"/>
<path class="atom-21" d="M 232.4 120.8 L 233.9 123.2 Q 234.1 123.4, 234.3 123.8 Q 234.5 124.3, 234.5 124.3 L 234.5 120.8 L 235.1 120.8 L 235.1 125.3 L 234.5 125.3 L 232.9 122.7 Q 232.7 122.4, 232.5 122.0 Q 232.3 121.7, 232.3 121.6 L 232.3 125.3 L 231.7 125.3 L 231.7 120.8 L 232.4 120.8 " fill="#0000FF"/>
<path class="atom-22" d="M 239.0 135.4 L 240.5 137.8 Q 240.6 138.0, 240.9 138.5 Q 241.1 138.9, 241.1 138.9 L 241.1 135.4 L 241.7 135.4 L 241.7 139.9 L 241.1 139.9 L 239.5 137.3 Q 239.3 137.0, 239.1 136.7 Q 238.9 136.3, 238.9 136.2 L 238.9 139.9 L 238.3 139.9 L 238.3 135.4 L 239.0 135.4 " fill="#0000FF"/>
<path class="atom-28" d="M 58.6 103.1 Q 58.6 102.0, 59.2 101.4 Q 59.7 100.8, 60.7 100.8 Q 61.7 100.8, 62.3 101.4 Q 62.8 102.0, 62.8 103.1 Q 62.8 104.2, 62.3 104.8 Q 61.7 105.5, 60.7 105.5 Q 59.7 105.5, 59.2 104.8 Q 58.6 104.2, 58.6 103.1 M 60.7 104.9 Q 61.4 104.9, 61.8 104.5 Q 62.2 104.0, 62.2 103.1 Q 62.2 102.2, 61.8 101.8 Q 61.4 101.3, 60.7 101.3 Q 60.0 101.3, 59.6 101.8 Q 59.3 102.2, 59.3 103.1 Q 59.3 104.0, 59.6 104.5 Q 60.0 104.9, 60.7 104.9 " fill="#FF0000"/>
<path class="atom-29" d="M 133.8 136.7 L 134.4 136.7 L 134.4 138.7 L 136.7 138.7 L 136.7 136.7 L 137.3 136.7 L 137.3 141.3 L 136.7 141.3 L 136.7 139.2 L 134.4 139.2 L 134.4 141.3 L 133.8 141.3 L 133.8 136.7 " fill="#000000"/>
<path class="atom-30" d="M 86.2 179.9 L 86.8 179.9 L 86.8 181.8 L 89.2 181.8 L 89.2 179.9 L 89.8 179.9 L 89.8 184.4 L 89.2 184.4 L 89.2 182.3 L 86.8 182.3 L 86.8 184.4 L 86.2 184.4 L 86.2 179.9 " fill="#000000"/>
<path class="atom-31" d="M 81.9 151.0 L 82.5 151.0 L 82.5 152.9 L 84.9 152.9 L 84.9 151.0 L 85.5 151.0 L 85.5 155.5 L 84.9 155.5 L 84.9 153.4 L 82.5 153.4 L 82.5 155.5 L 81.9 155.5 L 81.9 151.0 " fill="#000000"/>
<path class="atom-32" d="M 112.0 202.6 L 112.6 202.6 L 112.6 204.5 L 115.0 204.5 L 115.0 202.6 L 115.6 202.6 L 115.6 207.1 L 115.0 207.1 L 115.0 205.0 L 112.6 205.0 L 112.6 207.1 L 112.0 207.1 L 112.0 202.6 " fill="#000000"/>
<path class="atom-33" d="M 160.4 179.2 L 161.1 179.2 L 161.1 181.1 L 163.4 181.1 L 163.4 179.2 L 164.0 179.2 L 164.0 183.8 L 163.4 183.8 L 163.4 181.7 L 161.1 181.7 L 161.1 183.8 L 160.4 183.8 L 160.4 179.2 " fill="#000000"/>
<path class="atom-34" d="M 147.3 149.9 L 147.9 149.9 L 147.9 151.9 L 150.2 151.9 L 150.2 149.9 L 150.8 149.9 L 150.8 154.5 L 150.2 154.5 L 150.2 152.4 L 147.9 152.4 L 147.9 154.5 L 147.3 154.5 L 147.3 149.9 " fill="#000000"/>
<path class="atom-35" d="M 179.9 183.3 L 180.5 183.3 L 180.5 185.3 L 182.8 185.3 L 182.8 183.3 L 183.5 183.3 L 183.5 187.9 L 182.8 187.9 L 182.8 185.8 L 180.5 185.8 L 180.5 187.9 L 179.9 187.9 L 179.9 183.3 " fill="#000000"/>
<path class="atom-36" d="M 209.2 170.2 L 209.8 170.2 L 209.8 172.1 L 212.1 172.1 L 212.1 170.2 L 212.7 170.2 L 212.7 174.7 L 212.1 174.7 L 212.1 172.6 L 209.8 172.6 L 209.8 174.7 L 209.2 174.7 L 209.2 170.2 " fill="#000000"/>
<path class="atom-37" d="M 186.4 119.5 L 187.0 119.5 L 187.0 121.4 L 189.3 121.4 L 189.3 119.5 L 189.9 119.5 L 189.9 124.0 L 189.3 124.0 L 189.3 121.9 L 187.0 121.9 L 187.0 124.0 L 186.4 124.0 L 186.4 119.5 " fill="#000000"/>
<path class="atom-38" d="M 157.1 132.6 L 157.7 132.6 L 157.7 134.6 L 160.0 134.6 L 160.0 132.6 L 160.6 132.6 L 160.6 137.2 L 160.0 137.2 L 160.0 135.1 L 157.7 135.1 L 157.7 137.2 L 157.1 137.2 L 157.1 132.6 " fill="#000000"/>
<path class="atom-39" d="M 204.9 110.6 L 205.5 110.6 L 205.5 112.6 L 207.8 112.6 L 207.8 110.6 L 208.4 110.6 L 208.4 115.2 L 207.8 115.2 L 207.8 113.1 L 205.5 113.1 L 205.5 115.2 L 204.9 115.2 L 204.9 110.6 " fill="#000000"/>
<path class="atom-40" d="M 228.1 162.2 L 228.7 162.2 L 228.7 164.1 L 231.0 164.1 L 231.0 162.2 L 231.6 162.2 L 231.6 166.7 L 231.0 166.7 L 231.0 164.6 L 228.7 164.6 L 228.7 166.7 L 228.1 166.7 L 228.1 162.2 " fill="#000000"/>
<path class="atom-41" d="M 253.5 114.8 L 254.2 114.8 L 254.2 116.7 L 256.5 116.7 L 256.5 114.8 L 257.1 114.8 L 257.1 119.3 L 256.5 119.3 L 256.5 117.2 L 254.2 117.2 L 254.2 119.3 L 253.5 119.3 L 253.5 114.8 " fill="#000000"/>
<path class="atom-42" d="M 225.7 98.9 L 226.3 98.9 L 226.3 100.8 L 228.6 100.8 L 228.6 98.9 L 229.2 98.9 L 229.2 103.4 L 228.6 103.4 L 228.6 101.3 L 226.3 101.3 L 226.3 103.4 L 225.7 103.4 L 225.7 98.9 " fill="#000000"/>
<path class="atom-43" d="M 247.6 92.9 L 248.2 92.9 L 248.2 94.8 L 250.5 94.8 L 250.5 92.9 L 251.1 92.9 L 251.1 97.4 L 250.5 97.4 L 250.5 95.3 L 248.2 95.3 L 248.2 97.4 L 247.6 97.4 L 247.6 92.9 " fill="#000000"/>
<path class="atom-44" d="M 73.2 93.5 L 73.8 93.5 L 73.8 95.4 L 76.1 95.4 L 76.1 93.5 L 76.8 93.5 L 76.8 98.0 L 76.1 98.0 L 76.1 95.9 L 73.8 95.9 L 73.8 98.0 L 73.2 98.0 L 73.2 93.5 " fill="#000000"/>
<path class="atom-45" d="M 94.8 100.4 L 95.4 100.4 L 95.4 102.3 L 97.8 102.3 L 97.8 100.4 L 98.4 100.4 L 98.4 104.9 L 97.8 104.9 L 97.8 102.8 L 95.4 102.8 L 95.4 104.9 L 94.8 104.9 L 94.8 100.4 " fill="#000000"/>
<path class="atom-46" d="M 52.0 122.4 L 52.6 122.4 L 52.6 124.4 L 54.9 124.4 L 54.9 122.4 L 55.6 122.4 L 55.6 127.0 L 54.9 127.0 L 54.9 124.9 L 52.6 124.9 L 52.6 127.0 L 52.0 127.0 L 52.0 122.4 " fill="#000000"/>
<path class="atom-47" d="M 78.1 141.6 L 78.7 141.6 L 78.7 143.5 L 81.1 143.5 L 81.1 141.6 L 81.7 141.6 L 81.7 146.1 L 81.1 146.1 L 81.1 144.0 L 78.7 144.0 L 78.7 146.1 L 78.1 146.1 L 78.1 141.6 " fill="#000000"/>
<path class="atom-48" d="M 59.4 136.7 L 60.0 136.7 L 60.0 138.6 L 62.3 138.6 L 62.3 136.7 L 62.9 136.7 L 62.9 141.3 L 62.3 141.3 L 62.3 139.2 L 60.0 139.2 L 60.0 141.3 L 59.4 141.3 L 59.4 136.7 " fill="#000000"/>
<path class="atom-49" d="M 42.9 100.0 L 43.5 100.0 L 43.5 102.0 L 45.8 102.0 L 45.8 100.0 L 46.5 100.0 L 46.5 104.6 L 45.8 104.6 L 45.8 102.5 L 43.5 102.5 L 43.5 104.6 L 42.9 104.6 L 42.9 100.0 " fill="#000000"/>
<path class="bond-0 atom-0 atom-1" d="M 419.0,150.2 L 434.6,154.0" style="fill:none;fill-rule:evenodd;stroke:#000000;stroke-width:2.0px;stroke-linecap:butt;stroke-linejoin:miter;stroke-opacity:1"/>
<path class="bond-0 atom-0 atom-1" d="M 420.6,153.9 L 431.5,156.5" style="fill:none;fill-rule:evenodd;stroke:#000000;stroke-width:2.0px;stroke-linecap:butt;stroke-linejoin:miter;stroke-opacity:1"/>
<path class="bond-1 atom-0 atom-3" d="M 419.0,150.2 L 408.0,161.8" style="fill:none;fill-rule:evenodd;stroke:#000000;stroke-width:2.0px;stroke-linecap:butt;stroke-linejoin:miter;stroke-opacity:1"/>
<path class="bond-2 atom-0 atom-11" d="M 419.0,150.2 L 414.5,134.8" style="fill:none;fill-rule:evenodd;stroke:#000000;stroke-width:2.0px;stroke-linecap:butt;stroke-linejoin:miter;stroke-opacity:1"/>
<path class="bond-3 atom-1 atom-5" d="M 434.6,154.0 L 439.2,169.4" style="fill:none;fill-rule:evenodd;stroke:#000000;stroke-width:2.0px;stroke-linecap:butt;stroke-linejoin:miter;stroke-opacity:1"/>
<path class="bond-4 atom-1 atom-30" d="M 434.6,154.0 L 443.4,144.8" style="fill:none;fill-rule:evenodd;stroke:#000000;stroke-width:2.0px;stroke-linecap:butt;stroke-linejoin:miter;stroke-opacity:1"/>
<path class="bond-5 atom-2 atom-3" d="M 412.5,177.2 L 408.0,161.8" style="fill:none;fill-rule:evenodd;stroke:#000000;stroke-width:2.0px;stroke-linecap:butt;stroke-linejoin:miter;stroke-opacity:1"/>
<path class="bond-5 atom-2 atom-3" d="M 414.9,174.0 L 411.7,163.2" style="fill:none;fill-rule:evenodd;stroke:#000000;stroke-width:2.0px;stroke-linecap:butt;stroke-linejoin:miter;stroke-opacity:1"/>
<path class="bond-6 atom-2 atom-4" d="M 412.5,177.2 L 428.1,181.0" style="fill:none;fill-rule:evenodd;stroke:#000000;stroke-width:2.0px;stroke-linecap:butt;stroke-linejoin:miter;stroke-opacity:1"/>
<path class="bond-7 atom-2 atom-31" d="M 412.5,177.2 L 403.7,186.4" style="fill:none;fill-rule:evenodd;stroke:#000000;stroke-width:2.0px;stroke-linecap:butt;stroke-linejoin:miter;stroke-opacity:1"/>
<path class="bond-8 atom-3 atom-32" d="M 408.0,161.8 L 397.4,160.6" style="fill:none;fill-rule:evenodd;stroke:#000000;stroke-width:2.0px;stroke-linecap:butt;stroke-linejoin:miter;stroke-opacity:1"/>
<path class="bond-9 atom-4 atom-5" d="M 428.1,181.0 L 439.2,169.4" style="fill:none;fill-rule:evenodd;stroke:#000000;stroke-width:2.0px;stroke-linecap:butt;stroke-linejoin:miter;stroke-opacity:1"/>
<path class="bond-9 atom-4 atom-5" d="M 427.4,177.0 L 435.2,168.9" style="fill:none;fill-rule:evenodd;stroke:#000000;stroke-width:2.0px;stroke-linecap:butt;stroke-linejoin:miter;stroke-opacity:1"/>
<path class="bond-10 atom-4 atom-8" d="M 428.1,181.0 L 431.1,186.6" style="fill:none;fill-rule:evenodd;stroke:#000000;stroke-width:2.0px;stroke-linecap:butt;stroke-linejoin:miter;stroke-opacity:1"/>
<path class="bond-10 atom-4 atom-8" d="M 431.1,186.6 L 434.2,192.3" style="fill:none;fill-rule:evenodd;stroke:#0000FF;stroke-width:2.0px;stroke-linecap:butt;stroke-linejoin:miter;stroke-opacity:1"/>
<path class="bond-11 atom-5 atom-6" d="M 439.2,169.4 L 453.6,176.3" style="fill:none;fill-rule:evenodd;stroke:#000000;stroke-width:2.0px;stroke-linecap:butt;stroke-linejoin:miter;stroke-opacity:1"/>
<path class="bond-12 atom-6 atom-7" d="M 453.6,176.3 L 452.8,182.9" style="fill:none;fill-rule:evenodd;stroke:#000000;stroke-width:2.0px;stroke-linecap:butt;stroke-linejoin:miter;stroke-opacity:1"/>
<path class="bond-12 atom-6 atom-7" d="M 452.8,182.9 L 451.9,189.4" style="fill:none;fill-rule:evenodd;stroke:#0000FF;stroke-width:2.0px;stroke-linecap:butt;stroke-linejoin:miter;stroke-opacity:1"/>
<path class="bond-12 atom-6 atom-7" d="M 450.2,177.9 L 449.6,182.4" style="fill:none;fill-rule:evenodd;stroke:#000000;stroke-width:2.0px;stroke-linecap:butt;stroke-linejoin:miter;stroke-opacity:1"/>
<path class="bond-12 atom-6 atom-7" d="M 449.6,182.4 L 449.0,187.0" style="fill:none;fill-rule:evenodd;stroke:#0000FF;stroke-width:2.0px;stroke-linecap:butt;stroke-linejoin:miter;stroke-opacity:1"/>
<path class="bond-13 atom-6 atom-9" d="M 453.6,176.3 L 467.8,168.7" style="fill:none;fill-rule:evenodd;stroke:#000000;stroke-width:2.0px;stroke-linecap:butt;stroke-linejoin:miter;stroke-opacity:1"/>
<path class="bond-14 atom-7 atom-8" d="M 449.3,192.6 L 438.0,194.7" style="fill:none;fill-rule:evenodd;stroke:#0000FF;stroke-width:2.0px;stroke-linecap:butt;stroke-linejoin:miter;stroke-opacity:1"/>
<path class="bond-15 atom-8 atom-33" d="M 434.4,197.9 L 432.2,202.3" style="fill:none;fill-rule:evenodd;stroke:#0000FF;stroke-width:2.0px;stroke-linecap:butt;stroke-linejoin:miter;stroke-opacity:1"/>
<path class="bond-15 atom-8 atom-33" d="M 432.2,202.3 L 430.1,206.8" style="fill:none;fill-rule:evenodd;stroke:#000000;stroke-width:2.0px;stroke-linecap:butt;stroke-linejoin:miter;stroke-opacity:1"/>
<path class="bond-16 atom-9 atom-13" d="M 467.8,168.7 L 481.9,161.1" style="fill:none;fill-rule:evenodd;stroke:#000000;stroke-width:2.0px;stroke-linecap:butt;stroke-linejoin:miter;stroke-opacity:1"/>
<path class="bond-17 atom-9 atom-34" d="M 467.8,168.7 L 473.9,180.0" style="fill:none;fill-rule:evenodd;stroke:#000000;stroke-width:2.0px;stroke-linecap:butt;stroke-linejoin:miter;stroke-opacity:1"/>
<path class="bond-18 atom-9 atom-35" d="M 467.8,168.7 L 461.6,157.4" style="fill:none;fill-rule:evenodd;stroke:#000000;stroke-width:2.0px;stroke-linecap:butt;stroke-linejoin:miter;stroke-opacity:1"/>
<path class="bond-19 atom-10 atom-11" d="M 401.2,131.5 L 407.8,133.2" style="fill:none;fill-rule:evenodd;stroke:#0000FF;stroke-width:2.0px;stroke-linecap:butt;stroke-linejoin:miter;stroke-opacity:1"/>
<path class="bond-19 atom-10 atom-11" d="M 407.8,133.2 L 414.5,134.8" style="fill:none;fill-rule:evenodd;stroke:#000000;stroke-width:2.0px;stroke-linecap:butt;stroke-linejoin:miter;stroke-opacity:1"/>
<path class="bond-20 atom-10 atom-25" d="M 397.2,128.2 L 393.9,122.7" style="fill:none;fill-rule:evenodd;stroke:#0000FF;stroke-width:2.0px;stroke-linecap:butt;stroke-linejoin:miter;stroke-opacity:1"/>
<path class="bond-20 atom-10 atom-25" d="M 393.9,122.7 L 390.6,117.3" style="fill:none;fill-rule:evenodd;stroke:#000000;stroke-width:2.0px;stroke-linecap:butt;stroke-linejoin:miter;stroke-opacity:1"/>
<path class="bond-21 atom-10 atom-27" d="M 396.7,132.4 L 390.9,135.9" style="fill:none;fill-rule:evenodd;stroke:#0000FF;stroke-width:2.0px;stroke-linecap:butt;stroke-linejoin:miter;stroke-opacity:1"/>
<path class="bond-21 atom-10 atom-27" d="M 390.9,135.9 L 385.2,139.4" style="fill:none;fill-rule:evenodd;stroke:#000000;stroke-width:2.0px;stroke-linecap:butt;stroke-linejoin:miter;stroke-opacity:1"/>
<path class="bond-22 atom-11 atom-12" d="M 413.4,133.7 L 417.6,129.2" style="fill:none;fill-rule:evenodd;stroke:#000000;stroke-width:2.0px;stroke-linecap:butt;stroke-linejoin:miter;stroke-opacity:1"/>
<path class="bond-22 atom-11 atom-12" d="M 417.6,129.2 L 421.8,124.8" style="fill:none;fill-rule:evenodd;stroke:#FF0000;stroke-width:2.0px;stroke-linecap:butt;stroke-linejoin:miter;stroke-opacity:1"/>
<path class="bond-22 atom-11 atom-12" d="M 415.7,135.9 L 419.9,131.4" style="fill:none;fill-rule:evenodd;stroke:#000000;stroke-width:2.0px;stroke-linecap:butt;stroke-linejoin:miter;stroke-opacity:1"/>
<path class="bond-22 atom-11 atom-12" d="M 419.9,131.4 L 424.1,127.0" style="fill:none;fill-rule:evenodd;stroke:#FF0000;stroke-width:2.0px;stroke-linecap:butt;stroke-linejoin:miter;stroke-opacity:1"/>
<path class="bond-23 atom-13 atom-14" d="M 481.9,161.1 L 495.6,169.5" style="fill:none;fill-rule:evenodd;stroke:#000000;stroke-width:2.0px;stroke-linecap:butt;stroke-linejoin:miter;stroke-opacity:1"/>
<path class="bond-23 atom-13 atom-14" d="M 485.6,159.6 L 495.2,165.5" style="fill:none;fill-rule:evenodd;stroke:#000000;stroke-width:2.0px;stroke-linecap:butt;stroke-linejoin:miter;stroke-opacity:1"/>
<path class="bond-24 atom-13 atom-18" d="M 481.9,161.1 L 482.3,145.0" style="fill:none;fill-rule:evenodd;stroke:#000000;stroke-width:2.0px;stroke-linecap:butt;stroke-linejoin:miter;stroke-opacity:1"/>
<path class="bond-25 atom-14 atom-15" d="M 495.6,169.5 L 509.7,161.8" style="fill:none;fill-rule:evenodd;stroke:#000000;stroke-width:2.0px;stroke-linecap:butt;stroke-linejoin:miter;stroke-opacity:1"/>
<path class="bond-26 atom-14 atom-36" d="M 495.6,169.5 L 495.2,182.7" style="fill:none;fill-rule:evenodd;stroke:#000000;stroke-width:2.0px;stroke-linecap:butt;stroke-linejoin:miter;stroke-opacity:1"/>
<path class="bond-27 atom-15 atom-16" d="M 509.7,161.8 L 510.1,145.8" style="fill:none;fill-rule:evenodd;stroke:#000000;stroke-width:2.0px;stroke-linecap:butt;stroke-linejoin:miter;stroke-opacity:1"/>
<path class="bond-27 atom-15 atom-16" d="M 506.5,159.3 L 506.9,148.1" style="fill:none;fill-rule:evenodd;stroke:#000000;stroke-width:2.0px;stroke-linecap:butt;stroke-linejoin:miter;stroke-opacity:1"/>
<path class="bond-28 atom-15 atom-37" d="M 509.7,161.8 L 521.1,168.8" style="fill:none;fill-rule:evenodd;stroke:#000000;stroke-width:2.0px;stroke-linecap:butt;stroke-linejoin:miter;stroke-opacity:1"/>
<path class="bond-29 atom-16 atom-17" d="M 510.1,145.8 L 496.5,137.4" style="fill:none;fill-rule:evenodd;stroke:#000000;stroke-width:2.0px;stroke-linecap:butt;stroke-linejoin:miter;stroke-opacity:1"/>
<path class="bond-30 atom-16 atom-19" d="M 510.1,145.8 L 524.3,138.2" style="fill:none;fill-rule:evenodd;stroke:#000000;stroke-width:2.0px;stroke-linecap:butt;stroke-linejoin:miter;stroke-opacity:1"/>
<path class="bond-31 atom-17 atom-18" d="M 496.5,137.4 L 482.3,145.0" style="fill:none;fill-rule:evenodd;stroke:#000000;stroke-width:2.0px;stroke-linecap:butt;stroke-linejoin:miter;stroke-opacity:1"/>
<path class="bond-31 atom-17 atom-18" d="M 495.9,141.3 L 486.0,146.7" style="fill:none;fill-rule:evenodd;stroke:#000000;stroke-width:2.0px;stroke-linecap:butt;stroke-linejoin:miter;stroke-opacity:1"/>
<path class="bond-32 atom-17 atom-38" d="M 496.5,137.4 L 496.8,124.1" style="fill:none;fill-rule:evenodd;stroke:#000000;stroke-width:2.0px;stroke-linecap:butt;stroke-linejoin:miter;stroke-opacity:1"/>
<path class="bond-33 atom-18 atom-39" d="M 482.3,145.0 L 471.0,138.0" style="fill:none;fill-rule:evenodd;stroke:#000000;stroke-width:2.0px;stroke-linecap:butt;stroke-linejoin:miter;stroke-opacity:1"/>
<path class="bond-34 atom-19 atom-20" d="M 524.3,138.2 L 526.4,122.3" style="fill:none;fill-rule:evenodd;stroke:#000000;stroke-width:2.0px;stroke-linecap:butt;stroke-linejoin:miter;stroke-opacity:1"/>
<path class="bond-34 atom-19 atom-20" d="M 527.8,136.2 L 529.3,125.1" style="fill:none;fill-rule:evenodd;stroke:#000000;stroke-width:2.0px;stroke-linecap:butt;stroke-linejoin:miter;stroke-opacity:1"/>
<path class="bond-35 atom-19 atom-23" d="M 524.3,138.2 L 538.7,145.1" style="fill:none;fill-rule:evenodd;stroke:#000000;stroke-width:2.0px;stroke-linecap:butt;stroke-linejoin:miter;stroke-opacity:1"/>
<path class="bond-36 atom-20 atom-21" d="M 526.4,122.3 L 533.2,121.0" style="fill:none;fill-rule:evenodd;stroke:#000000;stroke-width:2.0px;stroke-linecap:butt;stroke-linejoin:miter;stroke-opacity:1"/>
<path class="bond-36 atom-20 atom-21" d="M 533.2,121.0 L 539.9,119.8" style="fill:none;fill-rule:evenodd;stroke:#0000FF;stroke-width:2.0px;stroke-linecap:butt;stroke-linejoin:miter;stroke-opacity:1"/>
<path class="bond-37 atom-20 atom-40" d="M 526.4,122.3 L 517.1,113.4" style="fill:none;fill-rule:evenodd;stroke:#000000;stroke-width:2.0px;stroke-linecap:butt;stroke-linejoin:miter;stroke-opacity:1"/>
<path class="bond-38 atom-21 atom-22" d="M 543.7,122.2 L 548.3,130.7" style="fill:none;fill-rule:evenodd;stroke:#0000FF;stroke-width:2.0px;stroke-linecap:butt;stroke-linejoin:miter;stroke-opacity:1"/>
<path class="bond-39 atom-21 atom-24" d="M 543.5,116.6 L 546.3,110.7" style="fill:none;fill-rule:evenodd;stroke:#0000FF;stroke-width:2.0px;stroke-linecap:butt;stroke-linejoin:miter;stroke-opacity:1"/>
<path class="bond-39 atom-21 atom-24" d="M 546.3,110.7 L 549.1,104.9" style="fill:none;fill-rule:evenodd;stroke:#000000;stroke-width:2.0px;stroke-linecap:butt;stroke-linejoin:miter;stroke-opacity:1"/>
<path class="bond-40 atom-22 atom-23" d="M 547.6,135.8 L 543.2,140.5" style="fill:none;fill-rule:evenodd;stroke:#0000FF;stroke-width:2.0px;stroke-linecap:butt;stroke-linejoin:miter;stroke-opacity:1"/>
<path class="bond-40 atom-22 atom-23" d="M 543.2,140.5 L 538.7,145.1" style="fill:none;fill-rule:evenodd;stroke:#000000;stroke-width:2.0px;stroke-linecap:butt;stroke-linejoin:miter;stroke-opacity:1"/>
<path class="bond-40 atom-22 atom-23" d="M 543.9,135.0 L 540.8,138.3" style="fill:none;fill-rule:evenodd;stroke:#0000FF;stroke-width:2.0px;stroke-linecap:butt;stroke-linejoin:miter;stroke-opacity:1"/>
<path class="bond-40 atom-22 atom-23" d="M 540.8,138.3 L 537.7,141.5" style="fill:none;fill-rule:evenodd;stroke:#000000;stroke-width:2.0px;stroke-linecap:butt;stroke-linejoin:miter;stroke-opacity:1"/>
<path class="bond-41 atom-23 atom-41" d="M 538.7,145.1 L 541.1,158.1" style="fill:none;fill-rule:evenodd;stroke:#000000;stroke-width:2.0px;stroke-linecap:butt;stroke-linejoin:miter;stroke-opacity:1"/>
<path class="bond-42 atom-24 atom-42" d="M 549.1,104.9 L 561.3,110.7" style="fill:none;fill-rule:evenodd;stroke:#000000;stroke-width:2.0px;stroke-linecap:butt;stroke-linejoin:miter;stroke-opacity:1"/>
<path class="bond-43 atom-24 atom-43" d="M 549.1,104.9 L 537.0,99.1" style="fill:none;fill-rule:evenodd;stroke:#000000;stroke-width:2.0px;stroke-linecap:butt;stroke-linejoin:miter;stroke-opacity:1"/>
<path class="bond-44 atom-24 atom-44" d="M 549.1,104.9 L 554.7,93.2" style="fill:none;fill-rule:evenodd;stroke:#000000;stroke-width:2.0px;stroke-linecap:butt;stroke-linejoin:miter;stroke-opacity:1"/>
<path class="bond-45 atom-25 atom-26" d="M 390.6,117.3 L 376.8,125.6" style="fill:none;fill-rule:evenodd;stroke:#000000;stroke-width:2.0px;stroke-linecap:butt;stroke-linejoin:miter;stroke-opacity:1"/>
<path class="bond-46 atom-25 atom-45" d="M 390.6,117.3 L 383.9,106.4" style="fill:none;fill-rule:evenodd;stroke:#000000;stroke-width:2.0px;stroke-linecap:butt;stroke-linejoin:miter;stroke-opacity:1"/>
<path class="bond-47 atom-25 atom-46" d="M 390.6,117.3 L 402.0,110.3" style="fill:none;fill-rule:evenodd;stroke:#000000;stroke-width:2.0px;stroke-linecap:butt;stroke-linejoin:miter;stroke-opacity:1"/>
<path class="bond-48 atom-26 atom-27" d="M 376.8,125.6 L 385.2,139.4" style="fill:none;fill-rule:evenodd;stroke:#000000;stroke-width:2.0px;stroke-linecap:butt;stroke-linejoin:miter;stroke-opacity:1"/>
<path class="bond-49 atom-26 atom-28" d="M 376.8,125.6 L 373.6,120.2" style="fill:none;fill-rule:evenodd;stroke:#000000;stroke-width:2.0px;stroke-linecap:butt;stroke-linejoin:miter;stroke-opacity:1"/>
<path class="bond-49 atom-26 atom-28" d="M 373.6,120.2 L 370.3,114.8" style="fill:none;fill-rule:evenodd;stroke:#FF0000;stroke-width:2.0px;stroke-linecap:butt;stroke-linejoin:miter;stroke-opacity:1"/>
<path class="bond-50 atom-26 atom-47" d="M 376.8,125.6 L 365.4,132.6" style="fill:none;fill-rule:evenodd;stroke:#000000;stroke-width:2.0px;stroke-linecap:butt;stroke-linejoin:miter;stroke-opacity:1"/>
<path class="bond-51 atom-27 atom-48" d="M 385.2,139.4 L 389.3,148.4" style="fill:none;fill-rule:evenodd;stroke:#000000;stroke-width:2.0px;stroke-linecap:butt;stroke-linejoin:miter;stroke-opacity:1"/>
<path class="bond-52 atom-27 atom-49" d="M 385.2,139.4 L 373.8,146.3" style="fill:none;fill-rule:evenodd;stroke:#000000;stroke-width:2.0px;stroke-linecap:butt;stroke-linejoin:miter;stroke-opacity:1"/>
<path class="bond-53 atom-28 atom-29" d="M 365.9,112.0 L 359.2,112.2" style="fill:none;fill-rule:evenodd;stroke:#FF0000;stroke-width:2.0px;stroke-linecap:butt;stroke-linejoin:miter;stroke-opacity:1"/>
<path class="bond-53 atom-28 atom-29" d="M 359.2,112.2 L 352.4,112.3" style="fill:none;fill-rule:evenodd;stroke:#000000;stroke-width:2.0px;stroke-linecap:butt;stroke-linejoin:miter;stroke-opacity:1"/>
<path class="bond-54 atom-29 atom-50" d="M 352.4,112.3 L 352.1,99.1" style="fill:none;fill-rule:evenodd;stroke:#000000;stroke-width:2.0px;stroke-linecap:butt;stroke-linejoin:miter;stroke-opacity:1"/>
<path class="bond-55 atom-29 atom-51" d="M 352.4,112.3 L 352.8,125.6" style="fill:none;fill-rule:evenodd;stroke:#000000;stroke-width:2.0px;stroke-linecap:butt;stroke-linejoin:miter;stroke-opacity:1"/>
<path class="bond-56 atom-29 atom-52" d="M 352.4,112.3 L 338.7,112.7" style="fill:none;fill-rule:evenodd;stroke:#000000;stroke-width:2.0px;stroke-linecap:butt;stroke-linejoin:miter;stroke-opacity:1"/>
<path class="atom-7" d="M 450.5 189.9 L 452.0 192.4 Q 452.1 192.6, 452.4 193.0 Q 452.6 193.5, 452.6 193.5 L 452.6 189.9 L 453.2 189.9 L 453.2 194.5 L 452.6 194.5 L 451.0 191.9 Q 450.8 191.6, 450.6 191.2 Q 450.4 190.8, 450.4 190.7 L 450.4 194.5 L 449.8 194.5 L 449.8 189.9 L 450.5 189.9 " fill="#0000FF"/>
<path class="atom-8" d="M 434.7 192.8 L 436.2 195.2 Q 436.4 195.5, 436.6 195.9 Q 436.8 196.3, 436.8 196.4 L 436.8 192.8 L 437.4 192.8 L 437.4 197.4 L 436.8 197.4 L 435.2 194.8 Q 435.0 194.4, 434.8 194.1 Q 434.6 193.7, 434.6 193.6 L 434.6 197.4 L 434.0 197.4 L 434.0 192.8 L 434.7 192.8 " fill="#0000FF"/>
<path class="atom-10" d="M 397.9 128.7 L 399.4 131.1 Q 399.5 131.4, 399.8 131.8 Q 400.0 132.2, 400.0 132.3 L 400.0 128.7 L 400.6 128.7 L 400.6 133.3 L 400.0 133.3 L 398.4 130.6 Q 398.2 130.3, 398.0 130.0 Q 397.8 129.6, 397.8 129.5 L 397.8 133.3 L 397.2 133.3 L 397.2 128.7 L 397.9 128.7 " fill="#0000FF"/>
<path class="atom-12" d="M 423.5 123.2 Q 423.5 122.1, 424.0 121.5 Q 424.6 120.9, 425.6 120.9 Q 426.6 120.9, 427.1 121.5 Q 427.7 122.1, 427.7 123.2 Q 427.7 124.3, 427.1 124.9 Q 426.6 125.5, 425.6 125.5 Q 424.6 125.5, 424.0 124.9 Q 423.5 124.3, 423.5 123.2 M 425.6 125.0 Q 426.3 125.0, 426.7 124.6 Q 427.0 124.1, 427.0 123.2 Q 427.0 122.3, 426.7 121.8 Q 426.3 121.4, 425.6 121.4 Q 424.9 121.4, 424.5 121.8 Q 424.1 122.3, 424.1 123.2 Q 424.1 124.1, 424.5 124.6 Q 424.9 125.0, 425.6 125.0 " fill="#FF0000"/>
<path class="atom-21" d="M 541.2 117.1 L 542.7 119.5 Q 542.8 119.7, 543.1 120.2 Q 543.3 120.6, 543.3 120.6 L 543.3 117.1 L 543.9 117.1 L 543.9 121.6 L 543.3 121.6 L 541.7 119.0 Q 541.5 118.7, 541.3 118.3 Q 541.1 118.0, 541.1 117.9 L 541.1 121.6 L 540.5 121.6 L 540.5 117.1 L 541.2 117.1 " fill="#0000FF"/>
<path class="atom-22" d="M 548.8 131.2 L 550.3 133.6 Q 550.4 133.9, 550.7 134.3 Q 550.9 134.7, 550.9 134.7 L 550.9 131.2 L 551.5 131.2 L 551.5 135.8 L 550.9 135.8 L 549.3 133.1 Q 549.1 132.8, 548.9 132.5 Q 548.7 132.1, 548.7 132.0 L 548.7 135.8 L 548.1 135.8 L 548.1 131.2 L 548.8 131.2 " fill="#0000FF"/>
<path class="atom-28" d="M 366.4 112.0 Q 366.4 110.9, 366.9 110.3 Q 367.5 109.6, 368.5 109.6 Q 369.5 109.6, 370.0 110.3 Q 370.6 110.9, 370.6 112.0 Q 370.6 113.1, 370.0 113.7 Q 369.5 114.3, 368.5 114.3 Q 367.5 114.3, 366.9 113.7 Q 366.4 113.1, 366.4 112.0 M 368.5 113.8 Q 369.2 113.8, 369.6 113.3 Q 369.9 112.9, 369.9 112.0 Q 369.9 111.1, 369.6 110.6 Q 369.2 110.2, 368.5 110.2 Q 367.8 110.2, 367.4 110.6 Q 367.0 111.1, 367.0 112.0 Q 367.0 112.9, 367.4 113.3 Q 367.8 113.8, 368.5 113.8 " fill="#FF0000"/>
<path class="atom-30" d="M 443.9 140.1 L 444.6 140.1 L 444.6 142.0 L 446.9 142.0 L 446.9 140.1 L 447.5 140.1 L 447.5 144.6 L 446.9 144.6 L 446.9 142.5 L 444.6 142.5 L 444.6 144.6 L 443.9 144.6 L 443.9 140.1 " fill="#000000"/>
<path class="atom-31" d="M 399.6 186.6 L 400.3 186.6 L 400.3 188.5 L 402.6 188.5 L 402.6 186.6 L 403.2 186.6 L 403.2 191.1 L 402.6 191.1 L 402.6 189.0 L 400.3 189.0 L 400.3 191.1 L 399.6 191.1 L 399.6 186.6 " fill="#000000"/>
<path class="atom-32" d="M 393.3 158.0 L 393.9 158.0 L 393.9 160.0 L 396.2 160.0 L 396.2 158.0 L 396.8 158.0 L 396.8 162.6 L 396.2 162.6 L 396.2 160.5 L 393.9 160.5 L 393.9 162.6 L 393.3 162.6 L 393.3 158.0 " fill="#000000"/>
<path class="atom-33" d="M 427.0 207.3 L 427.6 207.3 L 427.6 209.2 L 429.9 209.2 L 429.9 207.3 L 430.6 207.3 L 430.6 211.9 L 429.9 211.9 L 429.9 209.8 L 427.6 209.8 L 427.6 211.9 L 427.0 211.9 L 427.0 207.3 " fill="#000000"/>
<path class="atom-34" d="M 473.6 180.5 L 474.2 180.5 L 474.2 182.5 L 476.6 182.5 L 476.6 180.5 L 477.2 180.5 L 477.2 185.1 L 476.6 185.1 L 476.6 183.0 L 474.2 183.0 L 474.2 185.1 L 473.6 185.1 L 473.6 180.5 " fill="#000000"/>
<path class="atom-35" d="M 458.4 152.3 L 459.0 152.3 L 459.0 154.2 L 461.3 154.2 L 461.3 152.3 L 461.9 152.3 L 461.9 156.8 L 461.3 156.8 L 461.3 154.7 L 459.0 154.7 L 459.0 156.8 L 458.4 156.8 L 458.4 152.3 " fill="#000000"/>
<path class="atom-36" d="M 493.3 183.2 L 493.9 183.2 L 493.9 185.2 L 496.3 185.2 L 496.3 183.2 L 496.9 183.2 L 496.9 187.8 L 496.3 187.8 L 496.3 185.7 L 493.9 185.7 L 493.9 187.8 L 493.3 187.8 L 493.3 183.2 " fill="#000000"/>
<path class="atom-37" d="M 521.6 168.0 L 522.2 168.0 L 522.2 169.9 L 524.5 169.9 L 524.5 168.0 L 525.1 168.0 L 525.1 172.5 L 524.5 172.5 L 524.5 170.4 L 522.2 170.4 L 522.2 172.5 L 521.6 172.5 L 521.6 168.0 " fill="#000000"/>
<path class="atom-38" d="M 495.1 119.1 L 495.8 119.1 L 495.8 121.0 L 498.1 121.0 L 498.1 119.1 L 498.7 119.1 L 498.7 123.6 L 498.1 123.6 L 498.1 121.5 L 495.8 121.5 L 495.8 123.6 L 495.1 123.6 L 495.1 119.1 " fill="#000000"/>
<path class="atom-39" d="M 466.9 134.3 L 467.5 134.3 L 467.5 136.2 L 469.8 136.2 L 469.8 134.3 L 470.5 134.3 L 470.5 138.9 L 469.8 138.9 L 469.8 136.8 L 467.5 136.8 L 467.5 138.9 L 466.9 138.9 L 466.9 134.3 " fill="#000000"/>
<path class="atom-40" d="M 513.0 108.9 L 513.6 108.9 L 513.6 110.8 L 515.9 110.8 L 515.9 108.9 L 516.6 108.9 L 516.6 113.5 L 515.9 113.5 L 515.9 111.4 L 513.6 111.4 L 513.6 113.5 L 513.0 113.5 L 513.0 108.9 " fill="#000000"/>
<path class="atom-41" d="M 539.9 158.6 L 540.5 158.6 L 540.5 160.6 L 542.8 160.6 L 542.8 158.6 L 543.4 158.6 L 543.4 163.2 L 542.8 163.2 L 542.8 161.1 L 540.5 161.1 L 540.5 163.2 L 539.9 163.2 L 539.9 158.6 " fill="#000000"/>
<path class="atom-42" d="M 561.8 109.6 L 562.4 109.6 L 562.4 111.5 L 564.8 111.5 L 564.8 109.6 L 565.4 109.6 L 565.4 114.1 L 564.8 114.1 L 564.8 112.0 L 562.4 112.0 L 562.4 114.1 L 561.8 114.1 L 561.8 109.6 " fill="#000000"/>
<path class="atom-43" d="M 532.9 95.7 L 533.5 95.7 L 533.5 97.6 L 535.8 97.6 L 535.8 95.7 L 536.4 95.7 L 536.4 100.2 L 535.8 100.2 L 535.8 98.1 L 533.5 98.1 L 533.5 100.2 L 532.9 100.2 L 532.9 95.7 " fill="#000000"/>
<path class="atom-44" d="M 554.3 88.1 L 554.9 88.1 L 554.9 90.1 L 557.2 90.1 L 557.2 88.1 L 557.9 88.1 L 557.9 92.7 L 557.2 92.7 L 557.2 90.6 L 554.9 90.6 L 554.9 92.7 L 554.3 92.7 L 554.3 88.1 " fill="#000000"/>
<path class="atom-45" d="M 380.4 101.3 L 381.0 101.3 L 381.0 103.2 L 383.4 103.2 L 383.4 101.3 L 384.0 101.3 L 384.0 105.9 L 383.4 105.9 L 383.4 103.8 L 381.0 103.8 L 381.0 105.9 L 380.4 105.9 L 380.4 101.3 " fill="#000000"/>
<path class="atom-46" d="M 402.5 106.7 L 403.1 106.7 L 403.1 108.6 L 405.4 108.6 L 405.4 106.7 L 406.0 106.7 L 406.0 111.2 L 405.4 111.2 L 405.4 109.1 L 403.1 109.1 L 403.1 111.2 L 402.5 111.2 L 402.5 106.7 " fill="#000000"/>
<path class="atom-47" d="M 361.4 131.7 L 362.0 131.7 L 362.0 133.7 L 364.3 133.7 L 364.3 131.7 L 364.9 131.7 L 364.9 136.3 L 364.3 136.3 L 364.3 134.2 L 362.0 134.2 L 362.0 136.3 L 361.4 136.3 L 361.4 131.7 " fill="#000000"/>
<path class="atom-48" d="M 388.8 148.9 L 389.4 148.9 L 389.4 150.9 L 391.7 150.9 L 391.7 148.9 L 392.4 148.9 L 392.4 153.5 L 391.7 153.5 L 391.7 151.4 L 389.4 151.4 L 389.4 153.5 L 388.8 153.5 L 388.8 148.9 " fill="#000000"/>
<path class="atom-49" d="M 369.7 145.4 L 370.3 145.4 L 370.3 147.4 L 372.7 147.4 L 372.7 145.4 L 373.3 145.4 L 373.3 150.0 L 372.7 150.0 L 372.7 147.9 L 370.3 147.9 L 370.3 150.0 L 369.7 150.0 L 369.7 145.4 " fill="#000000"/>
<path class="atom-50" d="M 350.3 94.0 L 350.9 94.0 L 350.9 95.9 L 353.2 95.9 L 353.2 94.0 L 353.8 94.0 L 353.8 98.6 L 353.2 98.6 L 353.2 96.5 L 350.9 96.5 L 350.9 98.6 L 350.3 98.6 L 350.3 94.0 " fill="#000000"/>
<path class="atom-51" d="M 351.0 126.1 L 351.7 126.1 L 351.7 128.0 L 354.0 128.0 L 354.0 126.1 L 354.6 126.1 L 354.6 130.6 L 354.0 130.6 L 354.0 128.5 L 351.7 128.5 L 351.7 130.6 L 351.0 130.6 L 351.0 126.1 " fill="#000000"/>
<path class="atom-52" d="M 334.6 110.4 L 335.2 110.4 L 335.2 112.4 L 337.6 112.4 L 337.6 110.4 L 338.2 110.4 L 338.2 115.0 L 337.6 115.0 L 337.6 112.9 L 335.2 112.9 L 335.2 115.0 L 334.6 115.0 L 334.6 110.4 " fill="#000000"/>
<text x="300" y="20" font-size="20" font-family="sans-serif" font-weight="normal" letter-spacing="0" text-anchor="middle" fill="black">cdk8: 35 -&gt; 36</text><text x="300" y="35" font-size="15" font-family="sans-serif" font-weight="normal" letter-spacing="0" text-anchor="middle" fill="black"></text><text x="150" y="285" font-size="15" font-family="sans-serif" font-weight="normal" letter-spacing="0" text-anchor="middle" fill="black">35</text><text x="450" y="285" font-size="15" font-family="sans-serif" font-weight="normal" letter-spacing="0" text-anchor="middle" fill="black">36</text></svg>
