<?xml version='1.0' encoding='ASCII' standalone='yes'?>
<svg xmlns="http://www.w3.org/2000/svg" xmlns:rdkit="http://www.rdkit.org/xml" xmlns:xlink="http://www.w3.org/1999/xlink" version="1.1" baseProfile="full" xml:space="preserve" width="600px" height="300px" viewBox="0 0 600 300">
<!-- END OF HEADER -->
<rect style="opacity:1.0;fill:#FFFFFF;stroke:none" width="600.0" height="300.0" x="0.0" y="0.0"> </rect>
<path class="bond-0 atom-0 atom-1" d="M 72.9,157.6 L 92.4,164.3" style="fill:none;fill-rule:evenodd;stroke:#000000;stroke-width:2.0px;stroke-linecap:butt;stroke-linejoin:miter;stroke-opacity:1"/>
<path class="bond-0 atom-0 atom-1" d="M 74.5,162.5 L 88.1,167.2" style="fill:none;fill-rule:evenodd;stroke:#000000;stroke-width:2.0px;stroke-linecap:butt;stroke-linejoin:miter;stroke-opacity:1"/>
<path class="bond-1 atom-0 atom-3" d="M 72.9,157.6 L 57.4,171.1" style="fill:none;fill-rule:evenodd;stroke:#000000;stroke-width:2.0px;stroke-linecap:butt;stroke-linejoin:miter;stroke-opacity:1"/>
<path class="bond-2 atom-0 atom-10" d="M 72.9,157.6 L 71.3,149.4" style="fill:none;fill-rule:evenodd;stroke:#000000;stroke-width:2.0px;stroke-linecap:butt;stroke-linejoin:miter;stroke-opacity:1"/>
<path class="bond-2 atom-0 atom-10" d="M 71.3,149.4 L 69.7,141.2" style="fill:none;fill-rule:evenodd;stroke:#CCCC00;stroke-width:2.0px;stroke-linecap:butt;stroke-linejoin:miter;stroke-opacity:1"/>
<path class="bond-3 atom-1 atom-5" d="M 92.4,164.3 L 96.3,184.5" style="fill:none;fill-rule:evenodd;stroke:#000000;stroke-width:2.0px;stroke-linecap:butt;stroke-linejoin:miter;stroke-opacity:1"/>
<path class="bond-4 atom-1 atom-29" d="M 92.4,164.3 L 105.0,153.4" style="fill:none;fill-rule:evenodd;stroke:#000000;stroke-width:2.0px;stroke-linecap:butt;stroke-linejoin:miter;stroke-opacity:1"/>
<path class="bond-5 atom-2 atom-3" d="M 61.4,191.3 L 57.4,171.1" style="fill:none;fill-rule:evenodd;stroke:#000000;stroke-width:2.0px;stroke-linecap:butt;stroke-linejoin:miter;stroke-opacity:1"/>
<path class="bond-5 atom-2 atom-3" d="M 64.8,187.5 L 62.0,173.4" style="fill:none;fill-rule:evenodd;stroke:#000000;stroke-width:2.0px;stroke-linecap:butt;stroke-linejoin:miter;stroke-opacity:1"/>
<path class="bond-6 atom-2 atom-4" d="M 61.4,191.3 L 80.8,198.0" style="fill:none;fill-rule:evenodd;stroke:#000000;stroke-width:2.0px;stroke-linecap:butt;stroke-linejoin:miter;stroke-opacity:1"/>
<path class="bond-7 atom-2 atom-30" d="M 61.4,191.3 L 48.8,202.3" style="fill:none;fill-rule:evenodd;stroke:#000000;stroke-width:2.0px;stroke-linecap:butt;stroke-linejoin:miter;stroke-opacity:1"/>
<path class="bond-8 atom-3 atom-31" d="M 57.4,171.1 L 40.9,165.5" style="fill:none;fill-rule:evenodd;stroke:#000000;stroke-width:2.0px;stroke-linecap:butt;stroke-linejoin:miter;stroke-opacity:1"/>
<path class="bond-9 atom-4 atom-5" d="M 80.8,198.0 L 96.3,184.5" style="fill:none;fill-rule:evenodd;stroke:#000000;stroke-width:2.0px;stroke-linecap:butt;stroke-linejoin:miter;stroke-opacity:1"/>
<path class="bond-9 atom-4 atom-5" d="M 80.4,192.9 L 91.3,183.4" style="fill:none;fill-rule:evenodd;stroke:#000000;stroke-width:2.0px;stroke-linecap:butt;stroke-linejoin:miter;stroke-opacity:1"/>
<path class="bond-10 atom-4 atom-8" d="M 80.8,198.0 L 84.1,205.7" style="fill:none;fill-rule:evenodd;stroke:#000000;stroke-width:2.0px;stroke-linecap:butt;stroke-linejoin:miter;stroke-opacity:1"/>
<path class="bond-10 atom-4 atom-8" d="M 84.1,205.7 L 87.3,213.4" style="fill:none;fill-rule:evenodd;stroke:#0000FF;stroke-width:2.0px;stroke-linecap:butt;stroke-linejoin:miter;stroke-opacity:1"/>
<path class="bond-11 atom-5 atom-6" d="M 96.3,184.5 L 114.0,195.1" style="fill:none;fill-rule:evenodd;stroke:#000000;stroke-width:2.0px;stroke-linecap:butt;stroke-linejoin:miter;stroke-opacity:1"/>
<path class="bond-12 atom-6 atom-7" d="M 114.0,195.1 L 112.1,203.3" style="fill:none;fill-rule:evenodd;stroke:#000000;stroke-width:2.0px;stroke-linecap:butt;stroke-linejoin:miter;stroke-opacity:1"/>
<path class="bond-12 atom-6 atom-7" d="M 112.1,203.3 L 110.2,211.6" style="fill:none;fill-rule:evenodd;stroke:#0000FF;stroke-width:2.0px;stroke-linecap:butt;stroke-linejoin:miter;stroke-opacity:1"/>
<path class="bond-12 atom-6 atom-7" d="M 109.4,196.7 L 108.1,202.4" style="fill:none;fill-rule:evenodd;stroke:#000000;stroke-width:2.0px;stroke-linecap:butt;stroke-linejoin:miter;stroke-opacity:1"/>
<path class="bond-12 atom-6 atom-7" d="M 108.1,202.4 L 106.8,208.2" style="fill:none;fill-rule:evenodd;stroke:#0000FF;stroke-width:2.0px;stroke-linecap:butt;stroke-linejoin:miter;stroke-opacity:1"/>
<path class="bond-13 atom-6 atom-9" d="M 114.0,195.1 L 132.9,187.1" style="fill:none;fill-rule:evenodd;stroke:#000000;stroke-width:2.0px;stroke-linecap:butt;stroke-linejoin:miter;stroke-opacity:1"/>
<path class="bond-14 atom-7 atom-8" d="M 106.5,215.4 L 91.8,216.7" style="fill:none;fill-rule:evenodd;stroke:#0000FF;stroke-width:2.0px;stroke-linecap:butt;stroke-linejoin:miter;stroke-opacity:1"/>
<path class="bond-15 atom-8 atom-32" d="M 86.7,220.6 L 83.6,225.8" style="fill:none;fill-rule:evenodd;stroke:#0000FF;stroke-width:2.0px;stroke-linecap:butt;stroke-linejoin:miter;stroke-opacity:1"/>
<path class="bond-15 atom-8 atom-32" d="M 83.6,225.8 L 80.4,231.0" style="fill:none;fill-rule:evenodd;stroke:#000000;stroke-width:2.0px;stroke-linecap:butt;stroke-linejoin:miter;stroke-opacity:1"/>
<path class="bond-16 atom-9 atom-11" d="M 132.9,187.1 L 151.9,179.0" style="fill:none;fill-rule:evenodd;stroke:#000000;stroke-width:2.0px;stroke-linecap:butt;stroke-linejoin:miter;stroke-opacity:1"/>
<path class="bond-17 atom-9 atom-33" d="M 132.9,187.1 L 139.5,202.4" style="fill:none;fill-rule:evenodd;stroke:#000000;stroke-width:2.0px;stroke-linecap:butt;stroke-linejoin:miter;stroke-opacity:1"/>
<path class="bond-18 atom-9 atom-34" d="M 132.9,187.1 L 126.4,171.7" style="fill:none;fill-rule:evenodd;stroke:#000000;stroke-width:2.0px;stroke-linecap:butt;stroke-linejoin:miter;stroke-opacity:1"/>
<path class="bond-19 atom-10 atom-23" d="M 71.2,134.9 L 78.3,133.5" style="fill:none;fill-rule:evenodd;stroke:#CCCC00;stroke-width:2.0px;stroke-linecap:butt;stroke-linejoin:miter;stroke-opacity:1"/>
<path class="bond-19 atom-10 atom-23" d="M 78.3,133.5 L 85.5,132.1" style="fill:none;fill-rule:evenodd;stroke:#FF0000;stroke-width:2.0px;stroke-linecap:butt;stroke-linejoin:miter;stroke-opacity:1"/>
<path class="bond-19 atom-10 atom-23" d="M 71.9,139.0 L 79.1,137.6" style="fill:none;fill-rule:evenodd;stroke:#CCCC00;stroke-width:2.0px;stroke-linecap:butt;stroke-linejoin:miter;stroke-opacity:1"/>
<path class="bond-19 atom-10 atom-23" d="M 79.1,137.6 L 86.2,136.2" style="fill:none;fill-rule:evenodd;stroke:#FF0000;stroke-width:2.0px;stroke-linecap:butt;stroke-linejoin:miter;stroke-opacity:1"/>
<path class="bond-20 atom-10 atom-24" d="M 66.8,139.9 L 59.7,141.3" style="fill:none;fill-rule:evenodd;stroke:#CCCC00;stroke-width:2.0px;stroke-linecap:butt;stroke-linejoin:miter;stroke-opacity:1"/>
<path class="bond-20 atom-10 atom-24" d="M 59.7,141.3 L 52.5,142.7" style="fill:none;fill-rule:evenodd;stroke:#FF0000;stroke-width:2.0px;stroke-linecap:butt;stroke-linejoin:miter;stroke-opacity:1"/>
<path class="bond-20 atom-10 atom-24" d="M 66.1,135.9 L 58.9,137.3" style="fill:none;fill-rule:evenodd;stroke:#CCCC00;stroke-width:2.0px;stroke-linecap:butt;stroke-linejoin:miter;stroke-opacity:1"/>
<path class="bond-20 atom-10 atom-24" d="M 58.9,137.3 L 51.8,138.7" style="fill:none;fill-rule:evenodd;stroke:#FF0000;stroke-width:2.0px;stroke-linecap:butt;stroke-linejoin:miter;stroke-opacity:1"/>
<path class="bond-21 atom-10 atom-25" d="M 68.3,133.8 L 67.0,127.3" style="fill:none;fill-rule:evenodd;stroke:#CCCC00;stroke-width:2.0px;stroke-linecap:butt;stroke-linejoin:miter;stroke-opacity:1"/>
<path class="bond-21 atom-10 atom-25" d="M 67.0,127.3 L 65.8,120.8" style="fill:none;fill-rule:evenodd;stroke:#0000FF;stroke-width:2.0px;stroke-linecap:butt;stroke-linejoin:miter;stroke-opacity:1"/>
<path class="bond-22 atom-11 atom-12" d="M 151.9,179.0 L 168.3,191.4" style="fill:none;fill-rule:evenodd;stroke:#000000;stroke-width:2.0px;stroke-linecap:butt;stroke-linejoin:miter;stroke-opacity:1"/>
<path class="bond-22 atom-11 atom-12" d="M 156.8,177.6 L 168.3,186.2" style="fill:none;fill-rule:evenodd;stroke:#000000;stroke-width:2.0px;stroke-linecap:butt;stroke-linejoin:miter;stroke-opacity:1"/>
<path class="bond-23 atom-11 atom-16" d="M 151.9,179.0 L 154.4,158.6" style="fill:none;fill-rule:evenodd;stroke:#000000;stroke-width:2.0px;stroke-linecap:butt;stroke-linejoin:miter;stroke-opacity:1"/>
<path class="bond-24 atom-12 atom-13" d="M 168.3,191.4 L 187.3,183.3" style="fill:none;fill-rule:evenodd;stroke:#000000;stroke-width:2.0px;stroke-linecap:butt;stroke-linejoin:miter;stroke-opacity:1"/>
<path class="bond-25 atom-12 atom-35" d="M 168.3,191.4 L 166.3,208.2" style="fill:none;fill-rule:evenodd;stroke:#000000;stroke-width:2.0px;stroke-linecap:butt;stroke-linejoin:miter;stroke-opacity:1"/>
<path class="bond-26 atom-13 atom-14" d="M 187.3,183.3 L 189.8,162.9" style="fill:none;fill-rule:evenodd;stroke:#000000;stroke-width:2.0px;stroke-linecap:butt;stroke-linejoin:miter;stroke-opacity:1"/>
<path class="bond-26 atom-13 atom-14" d="M 183.5,179.8 L 185.3,165.5" style="fill:none;fill-rule:evenodd;stroke:#000000;stroke-width:2.0px;stroke-linecap:butt;stroke-linejoin:miter;stroke-opacity:1"/>
<path class="bond-27 atom-13 atom-36" d="M 187.3,183.3 L 200.7,193.5" style="fill:none;fill-rule:evenodd;stroke:#000000;stroke-width:2.0px;stroke-linecap:butt;stroke-linejoin:miter;stroke-opacity:1"/>
<path class="bond-28 atom-14 atom-15" d="M 189.8,162.9 L 173.3,150.5" style="fill:none;fill-rule:evenodd;stroke:#000000;stroke-width:2.0px;stroke-linecap:butt;stroke-linejoin:miter;stroke-opacity:1"/>
<path class="bond-29 atom-14 atom-17" d="M 189.8,162.9 L 208.7,154.8" style="fill:none;fill-rule:evenodd;stroke:#000000;stroke-width:2.0px;stroke-linecap:butt;stroke-linejoin:miter;stroke-opacity:1"/>
<path class="bond-30 atom-15 atom-16" d="M 173.3,150.5 L 154.4,158.6" style="fill:none;fill-rule:evenodd;stroke:#000000;stroke-width:2.0px;stroke-linecap:butt;stroke-linejoin:miter;stroke-opacity:1"/>
<path class="bond-30 atom-15 atom-16" d="M 172.1,155.5 L 158.8,161.2" style="fill:none;fill-rule:evenodd;stroke:#000000;stroke-width:2.0px;stroke-linecap:butt;stroke-linejoin:miter;stroke-opacity:1"/>
<path class="bond-31 atom-15 atom-37" d="M 173.3,150.5 L 175.4,133.7" style="fill:none;fill-rule:evenodd;stroke:#000000;stroke-width:2.0px;stroke-linecap:butt;stroke-linejoin:miter;stroke-opacity:1"/>
<path class="bond-32 atom-16 atom-38" d="M 154.4,158.6 L 140.9,148.4" style="fill:none;fill-rule:evenodd;stroke:#000000;stroke-width:2.0px;stroke-linecap:butt;stroke-linejoin:miter;stroke-opacity:1"/>
<path class="bond-33 atom-17 atom-18" d="M 208.7,154.8 L 213.3,134.8" style="fill:none;fill-rule:evenodd;stroke:#000000;stroke-width:2.0px;stroke-linecap:butt;stroke-linejoin:miter;stroke-opacity:1"/>
<path class="bond-33 atom-17 atom-18" d="M 213.4,152.8 L 216.6,138.7" style="fill:none;fill-rule:evenodd;stroke:#000000;stroke-width:2.0px;stroke-linecap:butt;stroke-linejoin:miter;stroke-opacity:1"/>
<path class="bond-34 atom-17 atom-21" d="M 208.7,154.8 L 226.3,165.4" style="fill:none;fill-rule:evenodd;stroke:#000000;stroke-width:2.0px;stroke-linecap:butt;stroke-linejoin:miter;stroke-opacity:1"/>
<path class="bond-35 atom-18 atom-19" d="M 213.3,134.8 L 222.1,134.0" style="fill:none;fill-rule:evenodd;stroke:#000000;stroke-width:2.0px;stroke-linecap:butt;stroke-linejoin:miter;stroke-opacity:1"/>
<path class="bond-35 atom-18 atom-19" d="M 222.1,134.0 L 230.9,133.2" style="fill:none;fill-rule:evenodd;stroke:#0000FF;stroke-width:2.0px;stroke-linecap:butt;stroke-linejoin:miter;stroke-opacity:1"/>
<path class="bond-36 atom-18 atom-39" d="M 213.3,134.8 L 202.8,122.7" style="fill:none;fill-rule:evenodd;stroke:#000000;stroke-width:2.0px;stroke-linecap:butt;stroke-linejoin:miter;stroke-opacity:1"/>
<path class="bond-37 atom-19 atom-20" d="M 235.3,136.6 L 240.3,148.3" style="fill:none;fill-rule:evenodd;stroke:#0000FF;stroke-width:2.0px;stroke-linecap:butt;stroke-linejoin:miter;stroke-opacity:1"/>
<path class="bond-38 atom-19 atom-22" d="M 236.0,129.4 L 240.2,122.4" style="fill:none;fill-rule:evenodd;stroke:#0000FF;stroke-width:2.0px;stroke-linecap:butt;stroke-linejoin:miter;stroke-opacity:1"/>
<path class="bond-38 atom-19 atom-22" d="M 240.2,122.4 L 244.4,115.3" style="fill:none;fill-rule:evenodd;stroke:#000000;stroke-width:2.0px;stroke-linecap:butt;stroke-linejoin:miter;stroke-opacity:1"/>
<path class="bond-39 atom-20 atom-21" d="M 239.0,154.4 L 232.7,159.9" style="fill:none;fill-rule:evenodd;stroke:#0000FF;stroke-width:2.0px;stroke-linecap:butt;stroke-linejoin:miter;stroke-opacity:1"/>
<path class="bond-39 atom-20 atom-21" d="M 232.7,159.9 L 226.3,165.4" style="fill:none;fill-rule:evenodd;stroke:#000000;stroke-width:2.0px;stroke-linecap:butt;stroke-linejoin:miter;stroke-opacity:1"/>
<path class="bond-39 atom-20 atom-21" d="M 234.4,153.0 L 230.0,156.8" style="fill:none;fill-rule:evenodd;stroke:#0000FF;stroke-width:2.0px;stroke-linecap:butt;stroke-linejoin:miter;stroke-opacity:1"/>
<path class="bond-39 atom-20 atom-21" d="M 230.0,156.8 L 225.5,160.7" style="fill:none;fill-rule:evenodd;stroke:#000000;stroke-width:2.0px;stroke-linecap:butt;stroke-linejoin:miter;stroke-opacity:1"/>
<path class="bond-40 atom-21 atom-40" d="M 226.3,165.4 L 227.8,182.3" style="fill:none;fill-rule:evenodd;stroke:#000000;stroke-width:2.0px;stroke-linecap:butt;stroke-linejoin:miter;stroke-opacity:1"/>
<path class="bond-41 atom-22 atom-41" d="M 244.4,115.3 L 259.1,124.2" style="fill:none;fill-rule:evenodd;stroke:#000000;stroke-width:2.0px;stroke-linecap:butt;stroke-linejoin:miter;stroke-opacity:1"/>
<path class="bond-42 atom-22 atom-42" d="M 244.4,115.3 L 229.7,106.5" style="fill:none;fill-rule:evenodd;stroke:#000000;stroke-width:2.0px;stroke-linecap:butt;stroke-linejoin:miter;stroke-opacity:1"/>
<path class="bond-43 atom-22 atom-43" d="M 244.4,115.3 L 252.8,101.3" style="fill:none;fill-rule:evenodd;stroke:#000000;stroke-width:2.0px;stroke-linecap:butt;stroke-linejoin:miter;stroke-opacity:1"/>
<path class="bond-44 atom-25 atom-26" d="M 68.0,114.7 L 74.3,109.2" style="fill:none;fill-rule:evenodd;stroke:#0000FF;stroke-width:2.0px;stroke-linecap:butt;stroke-linejoin:miter;stroke-opacity:1"/>
<path class="bond-44 atom-25 atom-26" d="M 74.3,109.2 L 80.6,103.7" style="fill:none;fill-rule:evenodd;stroke:#000000;stroke-width:2.0px;stroke-linecap:butt;stroke-linejoin:miter;stroke-opacity:1"/>
<path class="bond-45 atom-25 atom-44" d="M 62.2,116.2 L 55.4,113.9" style="fill:none;fill-rule:evenodd;stroke:#0000FF;stroke-width:2.0px;stroke-linecap:butt;stroke-linejoin:miter;stroke-opacity:1"/>
<path class="bond-45 atom-25 atom-44" d="M 55.4,113.9 L 48.6,111.6" style="fill:none;fill-rule:evenodd;stroke:#000000;stroke-width:2.0px;stroke-linecap:butt;stroke-linejoin:miter;stroke-opacity:1"/>
<path class="bond-46 atom-26 atom-27" d="M 80.6,103.7 L 90.6,85.7" style="fill:none;fill-rule:evenodd;stroke:#000000;stroke-width:2.0px;stroke-linecap:butt;stroke-linejoin:miter;stroke-opacity:1"/>
<path class="bond-47 atom-26 atom-28" d="M 80.6,103.7 L 70.0,86.1" style="fill:none;fill-rule:evenodd;stroke:#000000;stroke-width:2.0px;stroke-linecap:butt;stroke-linejoin:miter;stroke-opacity:1"/>
<path class="bond-48 atom-26 atom-45" d="M 80.6,103.7 L 93.6,114.3" style="fill:none;fill-rule:evenodd;stroke:#000000;stroke-width:2.0px;stroke-linecap:butt;stroke-linejoin:miter;stroke-opacity:1"/>
<path class="bond-49 atom-27 atom-28" d="M 90.6,85.7 L 70.0,86.1" style="fill:none;fill-rule:evenodd;stroke:#000000;stroke-width:2.0px;stroke-linecap:butt;stroke-linejoin:miter;stroke-opacity:1"/>
<path class="bond-50 atom-27 atom-46" d="M 90.6,85.7 L 107.1,91.4" style="fill:none;fill-rule:evenodd;stroke:#000000;stroke-width:2.0px;stroke-linecap:butt;stroke-linejoin:miter;stroke-opacity:1"/>
<path class="bond-51 atom-27 atom-47" d="M 90.6,85.7 L 93.2,69.0" style="fill:none;fill-rule:evenodd;stroke:#000000;stroke-width:2.0px;stroke-linecap:butt;stroke-linejoin:miter;stroke-opacity:1"/>
<path class="bond-52 atom-28 atom-48" d="M 70.0,86.1 L 66.7,69.5" style="fill:none;fill-rule:evenodd;stroke:#000000;stroke-width:2.0px;stroke-linecap:butt;stroke-linejoin:miter;stroke-opacity:1"/>
<path class="bond-53 atom-28 atom-49" d="M 70.0,86.1 L 53.7,92.3" style="fill:none;fill-rule:evenodd;stroke:#000000;stroke-width:2.0px;stroke-linecap:butt;stroke-linejoin:miter;stroke-opacity:1"/>
<path class="atom-7" d="M 108.1 212.3 L 110.0 215.3 Q 110.2 215.6, 110.5 216.2 Q 110.8 216.7, 110.8 216.8 L 110.8 212.3 L 111.6 212.3 L 111.6 218.1 L 110.8 218.1 L 108.7 214.7 Q 108.5 214.3, 108.2 213.9 Q 108.0 213.4, 107.9 213.3 L 107.9 218.1 L 107.2 218.1 L 107.2 212.3 L 108.1 212.3 " fill="#0000FF"/>
<path class="atom-8" d="M 87.6 214.1 L 89.5 217.1 Q 89.7 217.5, 90.0 218.0 Q 90.3 218.6, 90.3 218.6 L 90.3 214.1 L 91.1 214.1 L 91.1 219.9 L 90.3 219.9 L 88.2 216.5 Q 88.0 216.1, 87.7 215.7 Q 87.5 215.2, 87.4 215.1 L 87.4 219.9 L 86.7 219.9 L 86.7 214.1 L 87.6 214.1 " fill="#0000FF"/>
<path class="atom-10" d="M 67.4 139.4 Q 67.4 139.5, 67.7 139.6 Q 68.0 139.7, 68.3 139.8 Q 68.6 139.8, 68.9 139.8 Q 69.4 139.8, 69.7 139.6 Q 70.1 139.3, 70.1 138.8 Q 70.1 138.5, 69.9 138.3 Q 69.7 138.1, 69.5 138.0 Q 69.2 137.9, 68.8 137.8 Q 68.3 137.6, 68.0 137.5 Q 67.7 137.3, 67.5 137.0 Q 67.3 136.7, 67.3 136.2 Q 67.3 135.4, 67.7 135.0 Q 68.3 134.5, 69.2 134.5 Q 69.9 134.5, 70.7 134.8 L 70.5 135.5 Q 69.8 135.2, 69.3 135.2 Q 68.7 135.2, 68.4 135.4 Q 68.1 135.7, 68.1 136.1 Q 68.1 136.4, 68.2 136.6 Q 68.4 136.8, 68.6 136.9 Q 68.9 137.0, 69.3 137.1 Q 69.8 137.3, 70.1 137.4 Q 70.4 137.6, 70.6 137.9 Q 70.9 138.3, 70.9 138.8 Q 70.9 139.6, 70.3 140.1 Q 69.8 140.5, 68.9 140.5 Q 68.4 140.5, 68.0 140.4 Q 67.6 140.3, 67.1 140.1 L 67.4 139.4 " fill="#CCCC00"/>
<path class="atom-19" d="M 232.5 130.1 L 234.4 133.2 Q 234.6 133.5, 234.9 134.0 Q 235.2 134.6, 235.2 134.6 L 235.2 130.1 L 236.0 130.1 L 236.0 135.9 L 235.2 135.9 L 233.2 132.5 Q 232.9 132.1, 232.7 131.7 Q 232.4 131.2, 232.4 131.1 L 232.4 135.9 L 231.6 135.9 L 231.6 130.1 L 232.5 130.1 " fill="#0000FF"/>
<path class="atom-20" d="M 240.6 149.0 L 242.5 152.1 Q 242.7 152.4, 243.0 153.0 Q 243.3 153.5, 243.3 153.5 L 243.3 149.0 L 244.1 149.0 L 244.1 154.8 L 243.3 154.8 L 241.2 151.5 Q 241.0 151.1, 240.7 150.6 Q 240.5 150.2, 240.4 150.0 L 240.4 154.8 L 239.7 154.8 L 239.7 149.0 L 240.6 149.0 " fill="#0000FF"/>
<path class="atom-23" d="M 86.5 133.5 Q 86.5 132.1, 87.2 131.3 Q 87.9 130.5, 89.2 130.5 Q 90.5 130.5, 91.2 131.3 Q 91.9 132.1, 91.9 133.5 Q 91.9 134.9, 91.2 135.7 Q 90.5 136.5, 89.2 136.5 Q 87.9 136.5, 87.2 135.7 Q 86.5 134.9, 86.5 133.5 M 89.2 135.9 Q 90.1 135.9, 90.6 135.3 Q 91.1 134.7, 91.1 133.5 Q 91.1 132.4, 90.6 131.8 Q 90.1 131.2, 89.2 131.2 Q 88.3 131.2, 87.8 131.8 Q 87.3 132.4, 87.3 133.5 Q 87.3 134.7, 87.8 135.3 Q 88.3 135.9, 89.2 135.9 " fill="#FF0000"/>
<path class="atom-24" d="M 46.1 141.4 Q 46.1 140.0, 46.8 139.2 Q 47.5 138.4, 48.8 138.4 Q 50.1 138.4, 50.8 139.2 Q 51.5 140.0, 51.5 141.4 Q 51.5 142.8, 50.8 143.6 Q 50.1 144.4, 48.8 144.4 Q 47.5 144.4, 46.8 143.6 Q 46.1 142.8, 46.1 141.4 M 48.8 143.7 Q 49.7 143.7, 50.2 143.2 Q 50.7 142.6, 50.7 141.4 Q 50.7 140.2, 50.2 139.7 Q 49.7 139.1, 48.8 139.1 Q 47.9 139.1, 47.4 139.7 Q 46.9 140.2, 46.9 141.4 Q 46.9 142.6, 47.4 143.2 Q 47.9 143.7, 48.8 143.7 " fill="#FF0000"/>
<path class="atom-25" d="M 63.8 114.3 L 65.7 117.4 Q 65.9 117.7, 66.2 118.3 Q 66.5 118.8, 66.5 118.8 L 66.5 114.3 L 67.3 114.3 L 67.3 120.1 L 66.5 120.1 L 64.4 116.8 Q 64.2 116.4, 63.9 115.9 Q 63.7 115.5, 63.6 115.3 L 63.6 120.1 L 62.9 120.1 L 62.9 114.3 L 63.8 114.3 " fill="#0000FF"/>
<path class="atom-29" d="M 105.6 147.9 L 106.4 147.9 L 106.4 150.4 L 109.4 150.4 L 109.4 147.9 L 110.2 147.9 L 110.2 153.7 L 109.4 153.7 L 109.4 151.0 L 106.4 151.0 L 106.4 153.7 L 105.6 153.7 L 105.6 147.9 " fill="#000000"/>
<path class="atom-30" d="M 43.5 201.9 L 44.3 201.9 L 44.3 204.4 L 47.3 204.4 L 47.3 201.9 L 48.1 201.9 L 48.1 207.8 L 47.3 207.8 L 47.3 205.1 L 44.3 205.1 L 44.3 207.8 L 43.5 207.8 L 43.5 201.9 " fill="#000000"/>
<path class="atom-31" d="M 35.7 161.5 L 36.5 161.5 L 36.5 164.0 L 39.4 164.0 L 39.4 161.5 L 40.2 161.5 L 40.2 167.4 L 39.4 167.4 L 39.4 164.7 L 36.5 164.7 L 36.5 167.4 L 35.7 167.4 L 35.7 161.5 " fill="#000000"/>
<path class="atom-32" d="M 76.0 231.7 L 76.8 231.7 L 76.8 234.2 L 79.8 234.2 L 79.8 231.7 L 80.6 231.7 L 80.6 237.5 L 79.8 237.5 L 79.8 234.8 L 76.8 234.8 L 76.8 237.5 L 76.0 237.5 L 76.0 231.7 " fill="#000000"/>
<path class="atom-33" d="M 138.7 203.1 L 139.5 203.1 L 139.5 205.6 L 142.5 205.6 L 142.5 203.1 L 143.3 203.1 L 143.3 208.9 L 142.5 208.9 L 142.5 206.2 L 139.5 206.2 L 139.5 208.9 L 138.7 208.9 L 138.7 203.1 " fill="#000000"/>
<path class="atom-34" d="M 122.6 165.2 L 123.4 165.2 L 123.4 167.7 L 126.4 167.7 L 126.4 165.2 L 127.2 165.2 L 127.2 171.0 L 126.4 171.0 L 126.4 168.3 L 123.4 168.3 L 123.4 171.0 L 122.6 171.0 L 122.6 165.2 " fill="#000000"/>
<path class="atom-35" d="M 163.5 208.9 L 164.3 208.9 L 164.3 211.4 L 167.3 211.4 L 167.3 208.9 L 168.1 208.9 L 168.1 214.7 L 167.3 214.7 L 167.3 212.0 L 164.3 212.0 L 164.3 214.7 L 163.5 214.7 L 163.5 208.9 " fill="#000000"/>
<path class="atom-36" d="M 201.4 192.8 L 202.2 192.8 L 202.2 195.3 L 205.2 195.3 L 205.2 192.8 L 206.0 192.8 L 206.0 198.6 L 205.2 198.6 L 205.2 195.9 L 202.2 195.9 L 202.2 198.6 L 201.4 198.6 L 201.4 192.8 " fill="#000000"/>
<path class="atom-37" d="M 173.5 127.2 L 174.3 127.2 L 174.3 129.7 L 177.3 129.7 L 177.3 127.2 L 178.1 127.2 L 178.1 133.0 L 177.3 133.0 L 177.3 130.3 L 174.3 130.3 L 174.3 133.0 L 173.5 133.0 L 173.5 127.2 " fill="#000000"/>
<path class="atom-38" d="M 135.6 143.3 L 136.4 143.3 L 136.4 145.8 L 139.4 145.8 L 139.4 143.3 L 140.2 143.3 L 140.2 149.1 L 139.4 149.1 L 139.4 146.4 L 136.4 146.4 L 136.4 149.1 L 135.6 149.1 L 135.6 143.3 " fill="#000000"/>
<path class="atom-39" d="M 197.5 116.4 L 198.3 116.4 L 198.3 118.8 L 201.3 118.8 L 201.3 116.4 L 202.1 116.4 L 202.1 122.2 L 201.3 122.2 L 201.3 119.5 L 198.3 119.5 L 198.3 122.2 L 197.5 122.2 L 197.5 116.4 " fill="#000000"/>
<path class="atom-40" d="M 225.9 183.0 L 226.7 183.0 L 226.7 185.5 L 229.6 185.5 L 229.6 183.0 L 230.4 183.0 L 230.4 188.9 L 229.6 188.9 L 229.6 186.2 L 226.7 186.2 L 226.7 188.9 L 225.9 188.9 L 225.9 183.0 " fill="#000000"/>
<path class="atom-41" d="M 259.8 123.0 L 260.6 123.0 L 260.6 125.5 L 263.5 125.5 L 263.5 123.0 L 264.3 123.0 L 264.3 128.8 L 263.5 128.8 L 263.5 126.2 L 260.6 126.2 L 260.6 128.8 L 259.8 128.8 L 259.8 123.0 " fill="#000000"/>
<path class="atom-42" d="M 224.5 101.8 L 225.3 101.8 L 225.3 104.3 L 228.2 104.3 L 228.2 101.8 L 229.0 101.8 L 229.0 107.7 L 228.2 107.7 L 228.2 105.0 L 225.3 105.0 L 225.3 107.7 L 224.5 107.7 L 224.5 101.8 " fill="#000000"/>
<path class="atom-43" d="M 252.7 94.8 L 253.5 94.8 L 253.5 97.3 L 256.5 97.3 L 256.5 94.8 L 257.3 94.8 L 257.3 100.6 L 256.5 100.6 L 256.5 97.9 L 253.5 97.9 L 253.5 100.6 L 252.7 100.6 L 252.7 94.8 " fill="#000000"/>
<path class="atom-44" d="M 43.3 107.6 L 44.1 107.6 L 44.1 110.1 L 47.1 110.1 L 47.1 107.6 L 47.9 107.6 L 47.9 113.5 L 47.1 113.5 L 47.1 110.8 L 44.1 110.8 L 44.1 113.5 L 43.3 113.5 L 43.3 107.6 " fill="#000000"/>
<path class="atom-45" d="M 94.3 113.7 L 95.1 113.7 L 95.1 116.2 L 98.1 116.2 L 98.1 113.7 L 98.9 113.7 L 98.9 119.6 L 98.1 119.6 L 98.1 116.9 L 95.1 116.9 L 95.1 119.6 L 94.3 119.6 L 94.3 113.7 " fill="#000000"/>
<path class="atom-46" d="M 107.7 89.5 L 108.5 89.5 L 108.5 92.0 L 111.5 92.0 L 111.5 89.5 L 112.3 89.5 L 112.3 95.3 L 111.5 95.3 L 111.5 92.6 L 108.5 92.6 L 108.5 95.3 L 107.7 95.3 L 107.7 89.5 " fill="#000000"/>
<path class="atom-47" d="M 91.5 62.5 L 92.3 62.5 L 92.3 64.9 L 95.3 64.9 L 95.3 62.5 L 96.0 62.5 L 96.0 68.3 L 95.3 68.3 L 95.3 65.6 L 92.3 65.6 L 92.3 68.3 L 91.5 68.3 L 91.5 62.5 " fill="#000000"/>
<path class="atom-48" d="M 63.8 63.0 L 64.5 63.0 L 64.5 65.4 L 67.5 65.4 L 67.5 63.0 L 68.3 63.0 L 68.3 68.8 L 67.5 68.8 L 67.5 66.1 L 64.5 66.1 L 64.5 68.8 L 63.8 68.8 L 63.8 63.0 " fill="#000000"/>
<path class="atom-49" d="M 48.5 90.6 L 49.3 90.6 L 49.3 93.0 L 52.3 93.0 L 52.3 90.6 L 53.0 90.6 L 53.0 96.4 L 52.3 96.4 L 52.3 93.7 L 49.3 93.7 L 49.3 96.4 L 48.5 96.4 L 48.5 90.6 " fill="#000000"/>
<path class="bond-0 atom-0 atom-1" d="M 372.3,156.7 L 391.2,164.7" style="fill:none;fill-rule:evenodd;stroke:#000000;stroke-width:2.0px;stroke-linecap:butt;stroke-linejoin:miter;stroke-opacity:1"/>
<path class="bond-0 atom-0 atom-1" d="M 373.5,161.7 L 386.8,167.3" style="fill:none;fill-rule:evenodd;stroke:#000000;stroke-width:2.0px;stroke-linecap:butt;stroke-linejoin:miter;stroke-opacity:1"/>
<path class="bond-1 atom-0 atom-3" d="M 372.3,156.7 L 355.9,169.1" style="fill:none;fill-rule:evenodd;stroke:#000000;stroke-width:2.0px;stroke-linecap:butt;stroke-linejoin:miter;stroke-opacity:1"/>
<path class="bond-2 atom-0 atom-11" d="M 372.3,156.7 L 369.7,136.3" style="fill:none;fill-rule:evenodd;stroke:#000000;stroke-width:2.0px;stroke-linecap:butt;stroke-linejoin:miter;stroke-opacity:1"/>
<path class="bond-3 atom-1 atom-5" d="M 391.2,164.7 L 393.8,185.1" style="fill:none;fill-rule:evenodd;stroke:#000000;stroke-width:2.0px;stroke-linecap:butt;stroke-linejoin:miter;stroke-opacity:1"/>
<path class="bond-4 atom-1 atom-28" d="M 391.2,164.7 L 404.7,154.5" style="fill:none;fill-rule:evenodd;stroke:#000000;stroke-width:2.0px;stroke-linecap:butt;stroke-linejoin:miter;stroke-opacity:1"/>
<path class="bond-5 atom-2 atom-3" d="M 358.4,189.6 L 355.9,169.1" style="fill:none;fill-rule:evenodd;stroke:#000000;stroke-width:2.0px;stroke-linecap:butt;stroke-linejoin:miter;stroke-opacity:1"/>
<path class="bond-5 atom-2 atom-3" d="M 362.1,186.0 L 360.3,171.7" style="fill:none;fill-rule:evenodd;stroke:#000000;stroke-width:2.0px;stroke-linecap:butt;stroke-linejoin:miter;stroke-opacity:1"/>
<path class="bond-6 atom-2 atom-4" d="M 358.4,189.6 L 377.4,197.6" style="fill:none;fill-rule:evenodd;stroke:#000000;stroke-width:2.0px;stroke-linecap:butt;stroke-linejoin:miter;stroke-opacity:1"/>
<path class="bond-7 atom-2 atom-29" d="M 358.4,189.6 L 345.0,199.7" style="fill:none;fill-rule:evenodd;stroke:#000000;stroke-width:2.0px;stroke-linecap:butt;stroke-linejoin:miter;stroke-opacity:1"/>
<path class="bond-8 atom-3 atom-30" d="M 355.9,169.1 L 339.9,162.4" style="fill:none;fill-rule:evenodd;stroke:#000000;stroke-width:2.0px;stroke-linecap:butt;stroke-linejoin:miter;stroke-opacity:1"/>
<path class="bond-9 atom-4 atom-5" d="M 377.4,197.6 L 393.8,185.1" style="fill:none;fill-rule:evenodd;stroke:#000000;stroke-width:2.0px;stroke-linecap:butt;stroke-linejoin:miter;stroke-opacity:1"/>
<path class="bond-9 atom-4 atom-5" d="M 377.3,192.4 L 388.8,183.7" style="fill:none;fill-rule:evenodd;stroke:#000000;stroke-width:2.0px;stroke-linecap:butt;stroke-linejoin:miter;stroke-opacity:1"/>
<path class="bond-10 atom-4 atom-8" d="M 377.4,197.6 L 380.1,205.5" style="fill:none;fill-rule:evenodd;stroke:#000000;stroke-width:2.0px;stroke-linecap:butt;stroke-linejoin:miter;stroke-opacity:1"/>
<path class="bond-10 atom-4 atom-8" d="M 380.1,205.5 L 382.9,213.4" style="fill:none;fill-rule:evenodd;stroke:#0000FF;stroke-width:2.0px;stroke-linecap:butt;stroke-linejoin:miter;stroke-opacity:1"/>
<path class="bond-11 atom-5 atom-6" d="M 393.8,185.1 L 410.7,196.9" style="fill:none;fill-rule:evenodd;stroke:#000000;stroke-width:2.0px;stroke-linecap:butt;stroke-linejoin:miter;stroke-opacity:1"/>
<path class="bond-12 atom-6 atom-7" d="M 410.7,196.9 L 408.2,205.0" style="fill:none;fill-rule:evenodd;stroke:#000000;stroke-width:2.0px;stroke-linecap:butt;stroke-linejoin:miter;stroke-opacity:1"/>
<path class="bond-12 atom-6 atom-7" d="M 408.2,205.0 L 405.8,213.0" style="fill:none;fill-rule:evenodd;stroke:#0000FF;stroke-width:2.0px;stroke-linecap:butt;stroke-linejoin:miter;stroke-opacity:1"/>
<path class="bond-12 atom-6 atom-7" d="M 406.0,198.1 L 404.3,203.8" style="fill:none;fill-rule:evenodd;stroke:#000000;stroke-width:2.0px;stroke-linecap:butt;stroke-linejoin:miter;stroke-opacity:1"/>
<path class="bond-12 atom-6 atom-7" d="M 404.3,203.8 L 402.6,209.4" style="fill:none;fill-rule:evenodd;stroke:#0000FF;stroke-width:2.0px;stroke-linecap:butt;stroke-linejoin:miter;stroke-opacity:1"/>
<path class="bond-13 atom-6 atom-9" d="M 410.7,196.9 L 430.1,190.2" style="fill:none;fill-rule:evenodd;stroke:#000000;stroke-width:2.0px;stroke-linecap:butt;stroke-linejoin:miter;stroke-opacity:1"/>
<path class="bond-14 atom-7 atom-8" d="M 401.8,216.7 L 387.0,217.0" style="fill:none;fill-rule:evenodd;stroke:#0000FF;stroke-width:2.0px;stroke-linecap:butt;stroke-linejoin:miter;stroke-opacity:1"/>
<path class="bond-15 atom-8 atom-31" d="M 381.6,220.6 L 378.2,225.5" style="fill:none;fill-rule:evenodd;stroke:#0000FF;stroke-width:2.0px;stroke-linecap:butt;stroke-linejoin:miter;stroke-opacity:1"/>
<path class="bond-15 atom-8 atom-31" d="M 378.2,225.5 L 374.8,230.3" style="fill:none;fill-rule:evenodd;stroke:#000000;stroke-width:2.0px;stroke-linecap:butt;stroke-linejoin:miter;stroke-opacity:1"/>
<path class="bond-16 atom-9 atom-13" d="M 430.1,190.2 L 449.6,183.4" style="fill:none;fill-rule:evenodd;stroke:#000000;stroke-width:2.0px;stroke-linecap:butt;stroke-linejoin:miter;stroke-opacity:1"/>
<path class="bond-17 atom-9 atom-32" d="M 430.1,190.2 L 435.6,206.0" style="fill:none;fill-rule:evenodd;stroke:#000000;stroke-width:2.0px;stroke-linecap:butt;stroke-linejoin:miter;stroke-opacity:1"/>
<path class="bond-18 atom-9 atom-33" d="M 430.1,190.2 L 424.6,174.3" style="fill:none;fill-rule:evenodd;stroke:#000000;stroke-width:2.0px;stroke-linecap:butt;stroke-linejoin:miter;stroke-opacity:1"/>
<path class="bond-19 atom-10 atom-11" d="M 383.2,126.1 L 376.5,131.2" style="fill:none;fill-rule:evenodd;stroke:#0000FF;stroke-width:2.0px;stroke-linecap:butt;stroke-linejoin:miter;stroke-opacity:1"/>
<path class="bond-19 atom-10 atom-11" d="M 376.5,131.2 L 369.7,136.3" style="fill:none;fill-rule:evenodd;stroke:#000000;stroke-width:2.0px;stroke-linecap:butt;stroke-linejoin:miter;stroke-opacity:1"/>
<path class="bond-20 atom-10 atom-25" d="M 385.7,120.3 L 384.6,111.9" style="fill:none;fill-rule:evenodd;stroke:#0000FF;stroke-width:2.0px;stroke-linecap:butt;stroke-linejoin:miter;stroke-opacity:1"/>
<path class="bond-20 atom-10 atom-25" d="M 384.6,111.9 L 383.6,103.5" style="fill:none;fill-rule:evenodd;stroke:#000000;stroke-width:2.0px;stroke-linecap:butt;stroke-linejoin:miter;stroke-opacity:1"/>
<path class="bond-21 atom-10 atom-34" d="M 389.0,125.1 L 395.6,127.9" style="fill:none;fill-rule:evenodd;stroke:#0000FF;stroke-width:2.0px;stroke-linecap:butt;stroke-linejoin:miter;stroke-opacity:1"/>
<path class="bond-21 atom-10 atom-34" d="M 395.6,127.9 L 402.1,130.6" style="fill:none;fill-rule:evenodd;stroke:#000000;stroke-width:2.0px;stroke-linecap:butt;stroke-linejoin:miter;stroke-opacity:1"/>
<path class="bond-22 atom-11 atom-12" d="M 368.9,138.2 L 361.1,134.9" style="fill:none;fill-rule:evenodd;stroke:#000000;stroke-width:2.0px;stroke-linecap:butt;stroke-linejoin:miter;stroke-opacity:1"/>
<path class="bond-22 atom-11 atom-12" d="M 361.1,134.9 L 353.3,131.6" style="fill:none;fill-rule:evenodd;stroke:#FF0000;stroke-width:2.0px;stroke-linecap:butt;stroke-linejoin:miter;stroke-opacity:1"/>
<path class="bond-22 atom-11 atom-12" d="M 370.5,134.4 L 362.7,131.1" style="fill:none;fill-rule:evenodd;stroke:#000000;stroke-width:2.0px;stroke-linecap:butt;stroke-linejoin:miter;stroke-opacity:1"/>
<path class="bond-22 atom-11 atom-12" d="M 362.7,131.1 L 354.9,127.8" style="fill:none;fill-rule:evenodd;stroke:#FF0000;stroke-width:2.0px;stroke-linecap:butt;stroke-linejoin:miter;stroke-opacity:1"/>
<path class="bond-23 atom-13 atom-14" d="M 449.6,183.4 L 465.1,196.9" style="fill:none;fill-rule:evenodd;stroke:#000000;stroke-width:2.0px;stroke-linecap:butt;stroke-linejoin:miter;stroke-opacity:1"/>
<path class="bond-23 atom-13 atom-14" d="M 454.6,182.3 L 465.5,191.8" style="fill:none;fill-rule:evenodd;stroke:#000000;stroke-width:2.0px;stroke-linecap:butt;stroke-linejoin:miter;stroke-opacity:1"/>
<path class="bond-24 atom-13 atom-18" d="M 449.6,183.4 L 453.4,163.2" style="fill:none;fill-rule:evenodd;stroke:#000000;stroke-width:2.0px;stroke-linecap:butt;stroke-linejoin:miter;stroke-opacity:1"/>
<path class="bond-25 atom-14 atom-15" d="M 465.1,196.9 L 484.6,190.2" style="fill:none;fill-rule:evenodd;stroke:#000000;stroke-width:2.0px;stroke-linecap:butt;stroke-linejoin:miter;stroke-opacity:1"/>
<path class="bond-26 atom-14 atom-35" d="M 465.1,196.9 L 461.9,213.5" style="fill:none;fill-rule:evenodd;stroke:#000000;stroke-width:2.0px;stroke-linecap:butt;stroke-linejoin:miter;stroke-opacity:1"/>
<path class="bond-27 atom-15 atom-16" d="M 484.6,190.2 L 488.5,169.9" style="fill:none;fill-rule:evenodd;stroke:#000000;stroke-width:2.0px;stroke-linecap:butt;stroke-linejoin:miter;stroke-opacity:1"/>
<path class="bond-27 atom-15 atom-16" d="M 481.1,186.4 L 483.8,172.2" style="fill:none;fill-rule:evenodd;stroke:#000000;stroke-width:2.0px;stroke-linecap:butt;stroke-linejoin:miter;stroke-opacity:1"/>
<path class="bond-28 atom-15 atom-36" d="M 484.6,190.2 L 497.2,201.1" style="fill:none;fill-rule:evenodd;stroke:#000000;stroke-width:2.0px;stroke-linecap:butt;stroke-linejoin:miter;stroke-opacity:1"/>
<path class="bond-29 atom-16 atom-17" d="M 488.5,169.9 L 472.9,156.5" style="fill:none;fill-rule:evenodd;stroke:#000000;stroke-width:2.0px;stroke-linecap:butt;stroke-linejoin:miter;stroke-opacity:1"/>
<path class="bond-30 atom-16 atom-19" d="M 488.5,169.9 L 507.9,163.2" style="fill:none;fill-rule:evenodd;stroke:#000000;stroke-width:2.0px;stroke-linecap:butt;stroke-linejoin:miter;stroke-opacity:1"/>
<path class="bond-31 atom-17 atom-18" d="M 472.9,156.5 L 453.4,163.2" style="fill:none;fill-rule:evenodd;stroke:#000000;stroke-width:2.0px;stroke-linecap:butt;stroke-linejoin:miter;stroke-opacity:1"/>
<path class="bond-31 atom-17 atom-18" d="M 471.3,161.4 L 457.7,166.1" style="fill:none;fill-rule:evenodd;stroke:#000000;stroke-width:2.0px;stroke-linecap:butt;stroke-linejoin:miter;stroke-opacity:1"/>
<path class="bond-32 atom-17 atom-37" d="M 472.9,156.5 L 476.1,139.9" style="fill:none;fill-rule:evenodd;stroke:#000000;stroke-width:2.0px;stroke-linecap:butt;stroke-linejoin:miter;stroke-opacity:1"/>
<path class="bond-33 atom-18 atom-38" d="M 453.4,163.2 L 440.8,152.3" style="fill:none;fill-rule:evenodd;stroke:#000000;stroke-width:2.0px;stroke-linecap:butt;stroke-linejoin:miter;stroke-opacity:1"/>
<path class="bond-34 atom-19 atom-20" d="M 507.9,163.2 L 513.9,143.5" style="fill:none;fill-rule:evenodd;stroke:#000000;stroke-width:2.0px;stroke-linecap:butt;stroke-linejoin:miter;stroke-opacity:1"/>
<path class="bond-34 atom-19 atom-20" d="M 512.7,161.4 L 516.9,147.7" style="fill:none;fill-rule:evenodd;stroke:#000000;stroke-width:2.0px;stroke-linecap:butt;stroke-linejoin:miter;stroke-opacity:1"/>
<path class="bond-35 atom-19 atom-23" d="M 507.9,163.2 L 524.8,175.0" style="fill:none;fill-rule:evenodd;stroke:#000000;stroke-width:2.0px;stroke-linecap:butt;stroke-linejoin:miter;stroke-opacity:1"/>
<path class="bond-36 atom-20 atom-21" d="M 513.9,143.5 L 522.7,143.3" style="fill:none;fill-rule:evenodd;stroke:#000000;stroke-width:2.0px;stroke-linecap:butt;stroke-linejoin:miter;stroke-opacity:1"/>
<path class="bond-36 atom-20 atom-21" d="M 522.7,143.3 L 531.6,143.2" style="fill:none;fill-rule:evenodd;stroke:#0000FF;stroke-width:2.0px;stroke-linecap:butt;stroke-linejoin:miter;stroke-opacity:1"/>
<path class="bond-37 atom-20 atom-39" d="M 513.9,143.5 L 504.2,130.7" style="fill:none;fill-rule:evenodd;stroke:#000000;stroke-width:2.0px;stroke-linecap:butt;stroke-linejoin:miter;stroke-opacity:1"/>
<path class="bond-38 atom-21 atom-22" d="M 535.7,146.7 L 539.9,159.0" style="fill:none;fill-rule:evenodd;stroke:#0000FF;stroke-width:2.0px;stroke-linecap:butt;stroke-linejoin:miter;stroke-opacity:1"/>
<path class="bond-39 atom-21 atom-24" d="M 537.0,139.5 L 541.6,132.9" style="fill:none;fill-rule:evenodd;stroke:#0000FF;stroke-width:2.0px;stroke-linecap:butt;stroke-linejoin:miter;stroke-opacity:1"/>
<path class="bond-39 atom-21 atom-24" d="M 541.6,132.9 L 546.2,126.2" style="fill:none;fill-rule:evenodd;stroke:#000000;stroke-width:2.0px;stroke-linecap:butt;stroke-linejoin:miter;stroke-opacity:1"/>
<path class="bond-40 atom-22 atom-23" d="M 538.3,164.7 L 531.5,169.9" style="fill:none;fill-rule:evenodd;stroke:#0000FF;stroke-width:2.0px;stroke-linecap:butt;stroke-linejoin:miter;stroke-opacity:1"/>
<path class="bond-40 atom-22 atom-23" d="M 531.5,169.9 L 524.8,175.0" style="fill:none;fill-rule:evenodd;stroke:#000000;stroke-width:2.0px;stroke-linecap:butt;stroke-linejoin:miter;stroke-opacity:1"/>
<path class="bond-40 atom-22 atom-23" d="M 533.8,163.0 L 529.1,166.6" style="fill:none;fill-rule:evenodd;stroke:#0000FF;stroke-width:2.0px;stroke-linecap:butt;stroke-linejoin:miter;stroke-opacity:1"/>
<path class="bond-40 atom-22 atom-23" d="M 529.1,166.6 L 524.3,170.2" style="fill:none;fill-rule:evenodd;stroke:#000000;stroke-width:2.0px;stroke-linecap:butt;stroke-linejoin:miter;stroke-opacity:1"/>
<path class="bond-41 atom-23 atom-40" d="M 524.8,175.0 L 525.1,192.0" style="fill:none;fill-rule:evenodd;stroke:#000000;stroke-width:2.0px;stroke-linecap:butt;stroke-linejoin:miter;stroke-opacity:1"/>
<path class="bond-42 atom-24 atom-41" d="M 546.2,126.2 L 560.1,135.9" style="fill:none;fill-rule:evenodd;stroke:#000000;stroke-width:2.0px;stroke-linecap:butt;stroke-linejoin:miter;stroke-opacity:1"/>
<path class="bond-43 atom-24 atom-42" d="M 546.2,126.2 L 532.3,116.5" style="fill:none;fill-rule:evenodd;stroke:#000000;stroke-width:2.0px;stroke-linecap:butt;stroke-linejoin:miter;stroke-opacity:1"/>
<path class="bond-44 atom-24 atom-43" d="M 546.2,126.2 L 555.5,112.9" style="fill:none;fill-rule:evenodd;stroke:#000000;stroke-width:2.0px;stroke-linecap:butt;stroke-linejoin:miter;stroke-opacity:1"/>
<path class="bond-45 atom-25 atom-26" d="M 383.6,103.5 L 388.2,83.4" style="fill:none;fill-rule:evenodd;stroke:#000000;stroke-width:2.0px;stroke-linecap:butt;stroke-linejoin:miter;stroke-opacity:1"/>
<path class="bond-46 atom-25 atom-27" d="M 383.6,103.5 L 403.2,97.4" style="fill:none;fill-rule:evenodd;stroke:#000000;stroke-width:2.0px;stroke-linecap:butt;stroke-linejoin:miter;stroke-opacity:1"/>
<path class="bond-47 atom-25 atom-44" d="M 383.6,103.5 L 366.0,102.6" style="fill:none;fill-rule:evenodd;stroke:#000000;stroke-width:2.0px;stroke-linecap:butt;stroke-linejoin:miter;stroke-opacity:1"/>
<path class="bond-48 atom-26 atom-27" d="M 388.2,83.4 L 403.2,97.4" style="fill:none;fill-rule:evenodd;stroke:#000000;stroke-width:2.0px;stroke-linecap:butt;stroke-linejoin:miter;stroke-opacity:1"/>
<path class="bond-49 atom-26 atom-45" d="M 388.2,83.4 L 372.2,76.6" style="fill:none;fill-rule:evenodd;stroke:#000000;stroke-width:2.0px;stroke-linecap:butt;stroke-linejoin:miter;stroke-opacity:1"/>
<path class="bond-50 atom-26 atom-46" d="M 388.2,83.4 L 397.0,69.7" style="fill:none;fill-rule:evenodd;stroke:#000000;stroke-width:2.0px;stroke-linecap:butt;stroke-linejoin:miter;stroke-opacity:1"/>
<path class="bond-51 atom-27 atom-47" d="M 403.2,97.4 L 416.7,87.2" style="fill:none;fill-rule:evenodd;stroke:#000000;stroke-width:2.0px;stroke-linecap:butt;stroke-linejoin:miter;stroke-opacity:1"/>
<path class="bond-52 atom-27 atom-48" d="M 403.2,97.4 L 410.8,112.1" style="fill:none;fill-rule:evenodd;stroke:#000000;stroke-width:2.0px;stroke-linecap:butt;stroke-linejoin:miter;stroke-opacity:1"/>
<path class="atom-7" d="M 403.4 213.7 L 405.3 216.8 Q 405.5 217.1, 405.8 217.6 Q 406.1 218.2, 406.1 218.2 L 406.1 213.7 L 406.9 213.7 L 406.9 219.5 L 406.1 219.5 L 404.1 216.1 Q 403.8 215.8, 403.6 215.3 Q 403.3 214.8, 403.2 214.7 L 403.2 219.5 L 402.5 219.5 L 402.5 213.7 L 403.4 213.7 " fill="#0000FF"/>
<path class="atom-8" d="M 382.8 214.1 L 384.7 217.2 Q 384.9 217.5, 385.2 218.0 Q 385.5 218.6, 385.5 218.6 L 385.5 214.1 L 386.3 214.1 L 386.3 219.9 L 385.5 219.9 L 383.5 216.5 Q 383.2 216.2, 383.0 215.7 Q 382.7 215.2, 382.7 215.1 L 382.7 219.9 L 381.9 219.9 L 381.9 214.1 L 382.8 214.1 " fill="#0000FF"/>
<path class="atom-10" d="M 384.8 121.0 L 386.8 124.0 Q 386.9 124.4, 387.2 124.9 Q 387.5 125.5, 387.6 125.5 L 387.6 121.0 L 388.3 121.0 L 388.3 126.8 L 387.5 126.8 L 385.5 123.4 Q 385.3 123.0, 385.0 122.6 Q 384.8 122.1, 384.7 122.0 L 384.7 126.8 L 383.9 126.8 L 383.9 121.0 L 384.8 121.0 " fill="#0000FF"/>
<path class="atom-12" d="M 348.1 128.3 Q 348.1 126.9, 348.8 126.1 Q 349.5 125.3, 350.8 125.3 Q 352.0 125.3, 352.7 126.1 Q 353.4 126.9, 353.4 128.3 Q 353.4 129.7, 352.7 130.5 Q 352.0 131.3, 350.8 131.3 Q 349.5 131.3, 348.8 130.5 Q 348.1 129.7, 348.1 128.3 M 350.8 130.7 Q 351.6 130.7, 352.1 130.1 Q 352.6 129.5, 352.6 128.3 Q 352.6 127.2, 352.1 126.6 Q 351.6 126.0, 350.8 126.0 Q 349.9 126.0, 349.4 126.6 Q 348.9 127.2, 348.9 128.3 Q 348.9 129.5, 349.4 130.1 Q 349.9 130.7, 350.8 130.7 " fill="#FF0000"/>
<path class="atom-21" d="M 533.2 140.2 L 535.1 143.3 Q 535.3 143.6, 535.6 144.1 Q 535.9 144.7, 535.9 144.7 L 535.9 140.2 L 536.7 140.2 L 536.7 146.0 L 535.9 146.0 L 533.8 142.6 Q 533.6 142.3, 533.3 141.8 Q 533.1 141.3, 533.0 141.2 L 533.0 146.0 L 532.2 146.0 L 532.2 140.2 L 533.2 140.2 " fill="#0000FF"/>
<path class="atom-22" d="M 539.9 159.6 L 541.8 162.7 Q 542.0 163.0, 542.3 163.6 Q 542.6 164.1, 542.6 164.2 L 542.6 159.6 L 543.4 159.6 L 543.4 165.5 L 542.6 165.5 L 540.6 162.1 Q 540.3 161.7, 540.1 161.2 Q 539.8 160.8, 539.7 160.7 L 539.7 165.5 L 539.0 165.5 L 539.0 159.6 L 539.9 159.6 " fill="#0000FF"/>
<path class="atom-28" d="M 405.4 149.4 L 406.2 149.4 L 406.2 151.9 L 409.1 151.9 L 409.1 149.4 L 409.9 149.4 L 409.9 155.2 L 409.1 155.2 L 409.1 152.5 L 406.2 152.5 L 406.2 155.2 L 405.4 155.2 L 405.4 149.4 " fill="#000000"/>
<path class="atom-29" d="M 339.7 199.1 L 340.5 199.1 L 340.5 201.5 L 343.5 201.5 L 343.5 199.1 L 344.3 199.1 L 344.3 204.9 L 343.5 204.9 L 343.5 202.2 L 340.5 202.2 L 340.5 204.9 L 339.7 204.9 L 339.7 199.1 " fill="#000000"/>
<path class="atom-30" d="M 334.6 158.2 L 335.4 158.2 L 335.4 160.7 L 338.4 160.7 L 338.4 158.2 L 339.2 158.2 L 339.2 164.1 L 338.4 164.1 L 338.4 161.4 L 335.4 161.4 L 335.4 164.1 L 334.6 164.1 L 334.6 158.2 " fill="#000000"/>
<path class="atom-31" d="M 370.1 231.0 L 370.9 231.0 L 370.9 233.5 L 373.8 233.5 L 373.8 231.0 L 374.6 231.0 L 374.6 236.8 L 373.8 236.8 L 373.8 234.1 L 370.9 234.1 L 370.9 236.8 L 370.1 236.8 L 370.1 231.0 " fill="#000000"/>
<path class="atom-32" d="M 434.6 206.7 L 435.4 206.7 L 435.4 209.2 L 438.3 209.2 L 438.3 206.7 L 439.1 206.7 L 439.1 212.5 L 438.3 212.5 L 438.3 209.8 L 435.4 209.8 L 435.4 212.5 L 434.6 212.5 L 434.6 206.7 " fill="#000000"/>
<path class="atom-33" d="M 421.1 167.8 L 421.9 167.8 L 421.9 170.3 L 424.9 170.3 L 424.9 167.8 L 425.7 167.8 L 425.7 173.6 L 424.9 173.6 L 424.9 170.9 L 421.9 170.9 L 421.9 173.6 L 421.1 173.6 L 421.1 167.8 " fill="#000000"/>
<path class="atom-34" d="M 402.8 129.0 L 403.6 129.0 L 403.6 131.4 L 406.6 131.4 L 406.6 129.0 L 407.4 129.0 L 407.4 134.8 L 406.6 134.8 L 406.6 132.1 L 403.6 132.1 L 403.6 134.8 L 402.8 134.8 L 402.8 129.0 " fill="#000000"/>
<path class="atom-35" d="M 459.0 214.2 L 459.7 214.2 L 459.7 216.7 L 462.7 216.7 L 462.7 214.2 L 463.5 214.2 L 463.5 220.0 L 462.7 220.0 L 462.7 217.3 L 459.7 217.3 L 459.7 220.0 L 459.0 220.0 L 459.0 214.2 " fill="#000000"/>
<path class="atom-36" d="M 497.8 200.7 L 498.6 200.7 L 498.6 203.2 L 501.6 203.2 L 501.6 200.7 L 502.4 200.7 L 502.4 206.5 L 501.6 206.5 L 501.6 203.9 L 498.6 203.9 L 498.6 206.5 L 497.8 206.5 L 497.8 200.7 " fill="#000000"/>
<path class="atom-37" d="M 474.5 133.4 L 475.3 133.4 L 475.3 135.8 L 478.3 135.8 L 478.3 133.4 L 479.1 133.4 L 479.1 139.2 L 478.3 139.2 L 478.3 136.5 L 475.3 136.5 L 475.3 139.2 L 474.5 139.2 L 474.5 133.4 " fill="#000000"/>
<path class="atom-38" d="M 435.6 146.8 L 436.4 146.8 L 436.4 149.3 L 439.4 149.3 L 439.4 146.8 L 440.2 146.8 L 440.2 152.7 L 439.4 152.7 L 439.4 150.0 L 436.4 150.0 L 436.4 152.7 L 435.6 152.7 L 435.6 146.8 " fill="#000000"/>
<path class="atom-39" d="M 499.2 124.2 L 500.0 124.2 L 500.0 126.7 L 502.9 126.7 L 502.9 124.2 L 503.7 124.2 L 503.7 130.0 L 502.9 130.0 L 502.9 127.3 L 500.0 127.3 L 500.0 130.0 L 499.2 130.0 L 499.2 124.2 " fill="#000000"/>
<path class="atom-40" d="M 522.9 192.6 L 523.7 192.6 L 523.7 195.1 L 526.7 195.1 L 526.7 192.6 L 527.5 192.6 L 527.5 198.5 L 526.7 198.5 L 526.7 195.8 L 523.7 195.8 L 523.7 198.5 L 522.9 198.5 L 522.9 192.6 " fill="#000000"/>
<path class="atom-41" d="M 560.8 135.1 L 561.6 135.1 L 561.6 137.6 L 564.6 137.6 L 564.6 135.1 L 565.4 135.1 L 565.4 140.9 L 564.6 140.9 L 564.6 138.2 L 561.6 138.2 L 561.6 140.9 L 560.8 140.9 L 560.8 135.1 " fill="#000000"/>
<path class="atom-42" d="M 527.1 111.5 L 527.8 111.5 L 527.8 114.0 L 530.8 114.0 L 530.8 111.5 L 531.6 111.5 L 531.6 117.4 L 530.8 117.4 L 530.8 114.7 L 527.8 114.7 L 527.8 117.4 L 527.1 117.4 L 527.1 111.5 " fill="#000000"/>
<path class="atom-43" d="M 555.7 106.4 L 556.5 106.4 L 556.5 108.9 L 559.5 108.9 L 559.5 106.4 L 560.3 106.4 L 560.3 112.3 L 559.5 112.3 L 559.5 109.6 L 556.5 109.6 L 556.5 112.3 L 555.7 112.3 L 555.7 106.4 " fill="#000000"/>
<path class="atom-44" d="M 360.7 99.5 L 361.5 99.5 L 361.5 102.0 L 364.5 102.0 L 364.5 99.5 L 365.3 99.5 L 365.3 105.3 L 364.5 105.3 L 364.5 102.6 L 361.5 102.6 L 361.5 105.3 L 360.7 105.3 L 360.7 99.5 " fill="#000000"/>
<path class="atom-45" d="M 366.9 72.5 L 367.7 72.5 L 367.7 75.0 L 370.7 75.0 L 370.7 72.5 L 371.5 72.5 L 371.5 78.3 L 370.7 78.3 L 370.7 75.6 L 367.7 75.6 L 367.7 78.3 L 366.9 78.3 L 366.9 72.5 " fill="#000000"/>
<path class="atom-46" d="M 397.1 63.2 L 397.8 63.2 L 397.8 65.7 L 400.8 65.7 L 400.8 63.2 L 401.6 63.2 L 401.6 69.0 L 400.8 69.0 L 400.8 66.3 L 397.8 66.3 L 397.8 69.0 L 397.1 69.0 L 397.1 63.2 " fill="#000000"/>
<path class="atom-47" d="M 417.4 82.1 L 418.2 82.1 L 418.2 84.5 L 421.1 84.5 L 421.1 82.1 L 421.9 82.1 L 421.9 87.9 L 421.1 87.9 L 421.1 85.2 L 418.2 85.2 L 418.2 87.9 L 417.4 87.9 L 417.4 82.1 " fill="#000000"/>
<path class="atom-48" d="M 410.3 112.8 L 411.1 112.8 L 411.1 115.3 L 414.1 115.3 L 414.1 112.8 L 414.9 112.8 L 414.9 118.6 L 414.1 118.6 L 414.1 115.9 L 411.1 115.9 L 411.1 118.6 L 410.3 118.6 L 410.3 112.8 " fill="#000000"/>
<text x="300" y="20" font-size="20" font-family="sans-serif" font-weight="normal" letter-spacing="0" text-anchor="middle" fill="black">cdk8: 29 -&gt; 33</text><text x="300" y="35" font-size="15" font-family="sans-serif" font-weight="normal" letter-spacing="0" text-anchor="middle" fill="black"></text><text x="150" y="285" font-size="15" font-family="sans-serif" font-weight="normal" letter-spacing="0" text-anchor="middle" fill="black">29</text><text x="450" y="285" font-size="15" font-family="sans-serif" font-weight="normal" letter-spacing="0" text-anchor="middle" fill="black">33</text></svg>
