<?xml version='1.0' encoding='ASCII' standalone='yes'?>
<svg xmlns="http://www.w3.org/2000/svg" xmlns:rdkit="http://www.rdkit.org/xml" xmlns:xlink="http://www.w3.org/1999/xlink" version="1.1" baseProfile="full" xml:space="preserve" width="600px" height="300px" viewBox="0 0 600 300">
<!-- END OF HEADER -->
<rect style="opacity:1.0;fill:#FFFFFF;stroke:none" width="600.0" height="300.0" x="0.0" y="0.0"> </rect>
<path class="bond-0 atom-0 atom-2" d="M 111.8,174.8 L 117.3,153.0" style="fill:none;fill-rule:evenodd;stroke:#000000;stroke-width:2.0px;stroke-linecap:butt;stroke-linejoin:miter;stroke-opacity:1"/>
<path class="bond-1 atom-0 atom-22" d="M 111.8,174.8 L 109.5,183.7" style="fill:none;fill-rule:evenodd;stroke:#000000;stroke-width:2.0px;stroke-linecap:butt;stroke-linejoin:miter;stroke-opacity:1"/>
<path class="bond-1 atom-0 atom-22" d="M 109.5,183.7 L 107.2,192.6" style="fill:none;fill-rule:evenodd;stroke:#FF0000;stroke-width:2.0px;stroke-linecap:butt;stroke-linejoin:miter;stroke-opacity:1"/>
<path class="bond-2 atom-0 atom-24" d="M 111.8,174.8 L 130.3,179.5" style="fill:none;fill-rule:evenodd;stroke:#000000;stroke-width:2.0px;stroke-linecap:butt;stroke-linejoin:miter;stroke-opacity:1"/>
<path class="bond-3 atom-0 atom-25" d="M 111.8,174.8 L 97.0,172.8" style="fill:none;fill-rule:evenodd;stroke:#000000;stroke-width:2.0px;stroke-linecap:butt;stroke-linejoin:miter;stroke-opacity:1"/>
<path class="bond-4 atom-1 atom-2" d="M 138.9,147.0 L 117.3,153.0" style="fill:none;fill-rule:evenodd;stroke:#000000;stroke-width:2.0px;stroke-linecap:butt;stroke-linejoin:miter;stroke-opacity:1"/>
<path class="bond-4 atom-1 atom-2" d="M 134.5,143.6 L 119.4,147.8" style="fill:none;fill-rule:evenodd;stroke:#000000;stroke-width:2.0px;stroke-linecap:butt;stroke-linejoin:miter;stroke-opacity:1"/>
<path class="bond-5 atom-1 atom-6" d="M 138.9,147.0 L 144.5,125.2" style="fill:none;fill-rule:evenodd;stroke:#000000;stroke-width:2.0px;stroke-linecap:butt;stroke-linejoin:miter;stroke-opacity:1"/>
<path class="bond-6 atom-1 atom-21" d="M 138.9,147.0 L 142.0,150.9" style="fill:none;fill-rule:evenodd;stroke:#000000;stroke-width:2.0px;stroke-linecap:butt;stroke-linejoin:miter;stroke-opacity:1"/>
<path class="bond-6 atom-1 atom-21" d="M 142.0,150.9 L 145.1,154.7" style="fill:none;fill-rule:evenodd;stroke:#00CC00;stroke-width:2.0px;stroke-linecap:butt;stroke-linejoin:miter;stroke-opacity:1"/>
<path class="bond-7 atom-2 atom-3" d="M 117.3,153.0 L 101.3,137.3" style="fill:none;fill-rule:evenodd;stroke:#000000;stroke-width:2.0px;stroke-linecap:butt;stroke-linejoin:miter;stroke-opacity:1"/>
<path class="bond-8 atom-3 atom-4" d="M 101.3,137.3 L 106.9,115.6" style="fill:none;fill-rule:evenodd;stroke:#000000;stroke-width:2.0px;stroke-linecap:butt;stroke-linejoin:miter;stroke-opacity:1"/>
<path class="bond-8 atom-3 atom-4" d="M 106.5,135.2 L 110.4,120.0" style="fill:none;fill-rule:evenodd;stroke:#000000;stroke-width:2.0px;stroke-linecap:butt;stroke-linejoin:miter;stroke-opacity:1"/>
<path class="bond-9 atom-3 atom-15" d="M 101.3,137.3 L 91.9,140.0" style="fill:none;fill-rule:evenodd;stroke:#000000;stroke-width:2.0px;stroke-linecap:butt;stroke-linejoin:miter;stroke-opacity:1"/>
<path class="bond-9 atom-3 atom-15" d="M 91.9,140.0 L 82.5,142.6" style="fill:none;fill-rule:evenodd;stroke:#CCCC00;stroke-width:2.0px;stroke-linecap:butt;stroke-linejoin:miter;stroke-opacity:1"/>
<path class="bond-10 atom-4 atom-5" d="M 106.9,115.6 L 128.5,109.6" style="fill:none;fill-rule:evenodd;stroke:#000000;stroke-width:2.0px;stroke-linecap:butt;stroke-linejoin:miter;stroke-opacity:1"/>
<path class="bond-11 atom-4 atom-26" d="M 106.9,115.6 L 94.0,103.1" style="fill:none;fill-rule:evenodd;stroke:#000000;stroke-width:2.0px;stroke-linecap:butt;stroke-linejoin:miter;stroke-opacity:1"/>
<path class="bond-12 atom-5 atom-6" d="M 128.5,109.6 L 144.5,125.2" style="fill:none;fill-rule:evenodd;stroke:#000000;stroke-width:2.0px;stroke-linecap:butt;stroke-linejoin:miter;stroke-opacity:1"/>
<path class="bond-12 atom-5 atom-6" d="M 127.7,115.1 L 139.0,126.1" style="fill:none;fill-rule:evenodd;stroke:#000000;stroke-width:2.0px;stroke-linecap:butt;stroke-linejoin:miter;stroke-opacity:1"/>
<path class="bond-13 atom-5 atom-27" d="M 128.5,109.6 L 133.0,91.7" style="fill:none;fill-rule:evenodd;stroke:#000000;stroke-width:2.0px;stroke-linecap:butt;stroke-linejoin:miter;stroke-opacity:1"/>
<path class="bond-14 atom-6 atom-7" d="M 144.5,125.2 L 153.5,122.7" style="fill:none;fill-rule:evenodd;stroke:#000000;stroke-width:2.0px;stroke-linecap:butt;stroke-linejoin:miter;stroke-opacity:1"/>
<path class="bond-14 atom-6 atom-7" d="M 153.5,122.7 L 162.5,120.2" style="fill:none;fill-rule:evenodd;stroke:#FF0000;stroke-width:2.0px;stroke-linecap:butt;stroke-linejoin:miter;stroke-opacity:1"/>
<path class="bond-15 atom-7 atom-8" d="M 169.7,122.7 L 175.9,128.8" style="fill:none;fill-rule:evenodd;stroke:#FF0000;stroke-width:2.0px;stroke-linecap:butt;stroke-linejoin:miter;stroke-opacity:1"/>
<path class="bond-15 atom-7 atom-8" d="M 175.9,128.8 L 182.1,134.9" style="fill:none;fill-rule:evenodd;stroke:#000000;stroke-width:2.0px;stroke-linecap:butt;stroke-linejoin:miter;stroke-opacity:1"/>
<path class="bond-16 atom-8 atom-9" d="M 182.1,134.9 L 176.6,156.6" style="fill:none;fill-rule:evenodd;stroke:#000000;stroke-width:2.0px;stroke-linecap:butt;stroke-linejoin:miter;stroke-opacity:1"/>
<path class="bond-16 atom-8 atom-9" d="M 185.7,139.2 L 181.8,154.5" style="fill:none;fill-rule:evenodd;stroke:#000000;stroke-width:2.0px;stroke-linecap:butt;stroke-linejoin:miter;stroke-opacity:1"/>
<path class="bond-17 atom-8 atom-14" d="M 182.1,134.9 L 203.7,128.8" style="fill:none;fill-rule:evenodd;stroke:#000000;stroke-width:2.0px;stroke-linecap:butt;stroke-linejoin:miter;stroke-opacity:1"/>
<path class="bond-18 atom-9 atom-10" d="M 176.6,156.6 L 192.6,172.3" style="fill:none;fill-rule:evenodd;stroke:#000000;stroke-width:2.0px;stroke-linecap:butt;stroke-linejoin:miter;stroke-opacity:1"/>
<path class="bond-19 atom-9 atom-28" d="M 176.6,156.6 L 166.2,160.9" style="fill:none;fill-rule:evenodd;stroke:#000000;stroke-width:2.0px;stroke-linecap:butt;stroke-linejoin:miter;stroke-opacity:1"/>
<path class="bond-20 atom-10 atom-11" d="M 192.6,172.3 L 214.2,166.2" style="fill:none;fill-rule:evenodd;stroke:#000000;stroke-width:2.0px;stroke-linecap:butt;stroke-linejoin:miter;stroke-opacity:1"/>
<path class="bond-20 atom-10 atom-11" d="M 194.6,167.1 L 209.8,162.8" style="fill:none;fill-rule:evenodd;stroke:#000000;stroke-width:2.0px;stroke-linecap:butt;stroke-linejoin:miter;stroke-opacity:1"/>
<path class="bond-21 atom-10 atom-29" d="M 192.6,172.3 L 188.1,190.1" style="fill:none;fill-rule:evenodd;stroke:#000000;stroke-width:2.0px;stroke-linecap:butt;stroke-linejoin:miter;stroke-opacity:1"/>
<path class="bond-22 atom-11 atom-12" d="M 214.2,166.2 L 219.8,144.5" style="fill:none;fill-rule:evenodd;stroke:#000000;stroke-width:2.0px;stroke-linecap:butt;stroke-linejoin:miter;stroke-opacity:1"/>
<path class="bond-23 atom-11 atom-30" d="M 214.2,166.2 L 227.1,178.8" style="fill:none;fill-rule:evenodd;stroke:#000000;stroke-width:2.0px;stroke-linecap:butt;stroke-linejoin:miter;stroke-opacity:1"/>
<path class="bond-24 atom-12 atom-13" d="M 219.8,144.5 L 241.4,138.5" style="fill:none;fill-rule:evenodd;stroke:#000000;stroke-width:2.0px;stroke-linecap:butt;stroke-linejoin:miter;stroke-opacity:1"/>
<path class="bond-25 atom-12 atom-14" d="M 219.8,144.5 L 203.7,128.8" style="fill:none;fill-rule:evenodd;stroke:#000000;stroke-width:2.0px;stroke-linecap:butt;stroke-linejoin:miter;stroke-opacity:1"/>
<path class="bond-25 atom-12 atom-14" d="M 214.2,145.4 L 203.0,134.4" style="fill:none;fill-rule:evenodd;stroke:#000000;stroke-width:2.0px;stroke-linecap:butt;stroke-linejoin:miter;stroke-opacity:1"/>
<path class="bond-26 atom-13 atom-23" d="M 241.4,138.5 L 250.6,135.9" style="fill:none;fill-rule:evenodd;stroke:#000000;stroke-width:2.0px;stroke-linecap:butt;stroke-linejoin:miter;stroke-opacity:1"/>
<path class="bond-26 atom-13 atom-23" d="M 250.6,135.9 L 259.8,133.3" style="fill:none;fill-rule:evenodd;stroke:#0000FF;stroke-width:2.0px;stroke-linecap:butt;stroke-linejoin:miter;stroke-opacity:1"/>
<path class="bond-26 atom-13 atom-23" d="M 242.9,133.4 L 250.8,131.2" style="fill:none;fill-rule:evenodd;stroke:#000000;stroke-width:2.0px;stroke-linecap:butt;stroke-linejoin:miter;stroke-opacity:1"/>
<path class="bond-26 atom-13 atom-23" d="M 250.8,131.2 L 258.6,129.0" style="fill:none;fill-rule:evenodd;stroke:#0000FF;stroke-width:2.0px;stroke-linecap:butt;stroke-linejoin:miter;stroke-opacity:1"/>
<path class="bond-26 atom-13 atom-23" d="M 245.4,142.0 L 253.2,139.8" style="fill:none;fill-rule:evenodd;stroke:#000000;stroke-width:2.0px;stroke-linecap:butt;stroke-linejoin:miter;stroke-opacity:1"/>
<path class="bond-26 atom-13 atom-23" d="M 253.2,139.8 L 261.1,137.6" style="fill:none;fill-rule:evenodd;stroke:#0000FF;stroke-width:2.0px;stroke-linecap:butt;stroke-linejoin:miter;stroke-opacity:1"/>
<path class="bond-27 atom-14 atom-31" d="M 203.7,128.8 L 208.3,111.0" style="fill:none;fill-rule:evenodd;stroke:#000000;stroke-width:2.0px;stroke-linecap:butt;stroke-linejoin:miter;stroke-opacity:1"/>
<path class="bond-28 atom-15 atom-16" d="M 82.5,147.1 L 83.3,152.1" style="fill:none;fill-rule:evenodd;stroke:#CCCC00;stroke-width:2.0px;stroke-linecap:butt;stroke-linejoin:miter;stroke-opacity:1"/>
<path class="bond-28 atom-15 atom-16" d="M 83.3,152.1 L 84.1,157.1" style="fill:none;fill-rule:evenodd;stroke:#FF0000;stroke-width:2.0px;stroke-linecap:butt;stroke-linejoin:miter;stroke-opacity:1"/>
<path class="bond-28 atom-15 atom-16" d="M 78.1,147.8 L 78.9,152.8" style="fill:none;fill-rule:evenodd;stroke:#CCCC00;stroke-width:2.0px;stroke-linecap:butt;stroke-linejoin:miter;stroke-opacity:1"/>
<path class="bond-28 atom-15 atom-16" d="M 78.9,152.8 L 79.6,157.8" style="fill:none;fill-rule:evenodd;stroke:#FF0000;stroke-width:2.0px;stroke-linecap:butt;stroke-linejoin:miter;stroke-opacity:1"/>
<path class="bond-29 atom-15 atom-17" d="M 76.5,140.1 L 74.5,133.3" style="fill:none;fill-rule:evenodd;stroke:#CCCC00;stroke-width:2.0px;stroke-linecap:butt;stroke-linejoin:miter;stroke-opacity:1"/>
<path class="bond-29 atom-15 atom-17" d="M 74.5,133.3 L 72.6,126.4" style="fill:none;fill-rule:evenodd;stroke:#FF0000;stroke-width:2.0px;stroke-linecap:butt;stroke-linejoin:miter;stroke-opacity:1"/>
<path class="bond-29 atom-15 atom-17" d="M 80.8,138.9 L 78.9,132.1" style="fill:none;fill-rule:evenodd;stroke:#CCCC00;stroke-width:2.0px;stroke-linecap:butt;stroke-linejoin:miter;stroke-opacity:1"/>
<path class="bond-29 atom-15 atom-17" d="M 78.9,132.1 L 76.9,125.2" style="fill:none;fill-rule:evenodd;stroke:#FF0000;stroke-width:2.0px;stroke-linecap:butt;stroke-linejoin:miter;stroke-opacity:1"/>
<path class="bond-30 atom-15 atom-18" d="M 76.9,144.2 L 67.5,146.8" style="fill:none;fill-rule:evenodd;stroke:#CCCC00;stroke-width:2.0px;stroke-linecap:butt;stroke-linejoin:miter;stroke-opacity:1"/>
<path class="bond-30 atom-15 atom-18" d="M 67.5,146.8 L 58.1,149.4" style="fill:none;fill-rule:evenodd;stroke:#000000;stroke-width:2.0px;stroke-linecap:butt;stroke-linejoin:miter;stroke-opacity:1"/>
<path class="bond-31 atom-18 atom-19" d="M 58.1,149.4 L 55.6,140.6" style="fill:none;fill-rule:evenodd;stroke:#000000;stroke-width:2.0px;stroke-linecap:butt;stroke-linejoin:miter;stroke-opacity:1"/>
<path class="bond-31 atom-18 atom-19" d="M 55.6,140.6 L 53.1,131.7" style="fill:none;fill-rule:evenodd;stroke:#33CCCC;stroke-width:2.0px;stroke-linecap:butt;stroke-linejoin:miter;stroke-opacity:1"/>
<path class="bond-32 atom-18 atom-20" d="M 58.1,149.4 L 48.6,152.1" style="fill:none;fill-rule:evenodd;stroke:#000000;stroke-width:2.0px;stroke-linecap:butt;stroke-linejoin:miter;stroke-opacity:1"/>
<path class="bond-32 atom-18 atom-20" d="M 48.6,152.1 L 39.1,154.8" style="fill:none;fill-rule:evenodd;stroke:#33CCCC;stroke-width:2.0px;stroke-linecap:butt;stroke-linejoin:miter;stroke-opacity:1"/>
<path class="bond-33 atom-18 atom-32" d="M 58.1,149.4 L 63.1,167.2" style="fill:none;fill-rule:evenodd;stroke:#000000;stroke-width:2.0px;stroke-linecap:butt;stroke-linejoin:miter;stroke-opacity:1"/>
<path class="bond-34 atom-22 atom-33" d="M 109.9,200.0 L 114.5,204.5" style="fill:none;fill-rule:evenodd;stroke:#FF0000;stroke-width:2.0px;stroke-linecap:butt;stroke-linejoin:miter;stroke-opacity:1"/>
<path class="bond-34 atom-22 atom-33" d="M 114.5,204.5 L 119.1,209.0" style="fill:none;fill-rule:evenodd;stroke:#000000;stroke-width:2.0px;stroke-linecap:butt;stroke-linejoin:miter;stroke-opacity:1"/>
<path class="atom-7" d="M 163.2 119.2 Q 163.2 117.7, 163.9 116.8 Q 164.7 116.0, 166.1 116.0 Q 167.5 116.0, 168.3 116.8 Q 169.0 117.7, 169.0 119.2 Q 169.0 120.8, 168.3 121.6 Q 167.5 122.5, 166.1 122.5 Q 164.7 122.5, 163.9 121.6 Q 163.2 120.8, 163.2 119.2 M 166.1 121.8 Q 167.1 121.8, 167.6 121.1 Q 168.1 120.5, 168.1 119.2 Q 168.1 118.0, 167.6 117.3 Q 167.1 116.7, 166.1 116.7 Q 165.1 116.7, 164.6 117.3 Q 164.1 118.0, 164.1 119.2 Q 164.1 120.5, 164.6 121.1 Q 165.1 121.8, 166.1 121.8 " fill="#FF0000"/>
<path class="atom-15" d="M 77.9 145.6 Q 78.0 145.6, 78.3 145.7 Q 78.6 145.9, 78.9 145.9 Q 79.2 146.0, 79.5 146.0 Q 80.2 146.0, 80.5 145.7 Q 80.9 145.4, 80.9 144.9 Q 80.9 144.6, 80.7 144.3 Q 80.5 144.1, 80.2 144.0 Q 80.0 143.9, 79.5 143.8 Q 78.9 143.6, 78.6 143.4 Q 78.3 143.3, 78.0 142.9 Q 77.8 142.6, 77.8 142.0 Q 77.8 141.2, 78.3 140.7 Q 78.9 140.2, 80.0 140.2 Q 80.7 140.2, 81.5 140.6 L 81.3 141.3 Q 80.6 141.0, 80.0 141.0 Q 79.4 141.0, 79.0 141.2 Q 78.7 141.5, 78.7 141.9 Q 78.7 142.2, 78.9 142.5 Q 79.0 142.7, 79.3 142.8 Q 79.6 142.9, 80.0 143.0 Q 80.6 143.2, 80.9 143.4 Q 81.2 143.6, 81.5 143.9 Q 81.7 144.3, 81.7 144.9 Q 81.7 145.8, 81.1 146.3 Q 80.6 146.7, 79.6 146.7 Q 79.0 146.7, 78.6 146.6 Q 78.2 146.5, 77.7 146.3 L 77.9 145.6 " fill="#CCCC00"/>
<path class="atom-16" d="M 79.5 161.4 Q 79.5 159.9, 80.3 159.0 Q 81.0 158.1, 82.4 158.1 Q 83.8 158.1, 84.6 159.0 Q 85.4 159.9, 85.4 161.4 Q 85.4 162.9, 84.6 163.8 Q 83.8 164.7, 82.4 164.7 Q 81.0 164.7, 80.3 163.8 Q 79.5 162.9, 79.5 161.4 M 82.4 164.0 Q 83.4 164.0, 83.9 163.3 Q 84.5 162.7, 84.5 161.4 Q 84.5 160.1, 83.9 159.5 Q 83.4 158.9, 82.4 158.9 Q 81.5 158.9, 80.9 159.5 Q 80.4 160.1, 80.4 161.4 Q 80.4 162.7, 80.9 163.3 Q 81.5 164.0, 82.4 164.0 " fill="#FF0000"/>
<path class="atom-17" d="M 70.7 121.8 Q 70.7 120.3, 71.5 119.4 Q 72.2 118.6, 73.7 118.6 Q 75.1 118.6, 75.8 119.4 Q 76.6 120.3, 76.6 121.8 Q 76.6 123.4, 75.8 124.2 Q 75.0 125.1, 73.7 125.1 Q 72.3 125.1, 71.5 124.2 Q 70.7 123.4, 70.7 121.8 M 73.7 124.4 Q 74.6 124.4, 75.1 123.7 Q 75.7 123.1, 75.7 121.8 Q 75.7 120.6, 75.1 119.9 Q 74.6 119.3, 73.7 119.3 Q 72.7 119.3, 72.2 119.9 Q 71.6 120.6, 71.6 121.8 Q 71.6 123.1, 72.2 123.7 Q 72.7 124.4, 73.7 124.4 " fill="#FF0000"/>
<path class="atom-19" d="M 50.2 124.7 L 53.9 124.7 L 53.9 125.4 L 51.0 125.4 L 51.0 127.3 L 53.6 127.3 L 53.6 128.1 L 51.0 128.1 L 51.0 131.0 L 50.2 131.0 L 50.2 124.7 " fill="#33CCCC"/>
<path class="atom-20" d="M 34.6 152.3 L 38.4 152.3 L 38.4 153.0 L 35.5 153.0 L 35.5 155.0 L 38.1 155.0 L 38.1 155.7 L 35.5 155.7 L 35.5 158.7 L 34.6 158.7 L 34.6 152.3 " fill="#33CCCC"/>
<path class="atom-21" d="M 145.7 158.7 Q 145.7 157.1, 146.4 156.3 Q 147.2 155.4, 148.6 155.4 Q 149.9 155.4, 150.6 156.4 L 150.0 156.9 Q 149.5 156.2, 148.6 156.2 Q 147.6 156.2, 147.1 156.8 Q 146.6 157.5, 146.6 158.7 Q 146.6 159.9, 147.1 160.6 Q 147.6 161.2, 148.7 161.2 Q 149.4 161.2, 150.2 160.8 L 150.4 161.5 Q 150.1 161.7, 149.6 161.8 Q 149.1 162.0, 148.5 162.0 Q 147.2 162.0, 146.4 161.1 Q 145.7 160.3, 145.7 158.7 " fill="#00CC00"/>
<path class="atom-21" d="M 150.9 155.1 L 151.8 155.1 L 151.8 161.9 L 150.9 161.9 L 150.9 155.1 " fill="#00CC00"/>
<path class="atom-22" d="M 103.3 196.5 Q 103.3 195.0, 104.1 194.1 Q 104.8 193.3, 106.2 193.3 Q 107.6 193.3, 108.4 194.1 Q 109.1 195.0, 109.1 196.5 Q 109.1 198.0, 108.4 198.9 Q 107.6 199.8, 106.2 199.8 Q 104.8 199.8, 104.1 198.9 Q 103.3 198.1, 103.3 196.5 M 106.2 199.1 Q 107.2 199.1, 107.7 198.4 Q 108.2 197.8, 108.2 196.5 Q 108.2 195.3, 107.7 194.6 Q 107.2 194.0, 106.2 194.0 Q 105.3 194.0, 104.7 194.6 Q 104.2 195.2, 104.2 196.5 Q 104.2 197.8, 104.7 198.4 Q 105.3 199.1, 106.2 199.1 " fill="#FF0000"/>
<path class="atom-23" d="M 261.6 129.2 L 263.7 132.6 Q 263.9 132.9, 264.2 133.5 Q 264.5 134.1, 264.5 134.2 L 264.5 129.2 L 265.4 129.2 L 265.4 135.6 L 264.5 135.6 L 262.3 131.9 Q 262.0 131.5, 261.7 131.0 Q 261.5 130.5, 261.4 130.3 L 261.4 135.6 L 260.6 135.6 L 260.6 129.2 L 261.6 129.2 " fill="#0000FF"/>
<path class="atom-24" d="M 131.0 177.1 L 131.9 177.1 L 131.9 179.8 L 135.1 179.8 L 135.1 177.1 L 136.0 177.1 L 136.0 183.5 L 135.1 183.5 L 135.1 180.6 L 131.9 180.6 L 131.9 183.5 L 131.0 183.5 L 131.0 177.1 " fill="#000000"/>
<path class="atom-25" d="M 91.3 169.3 L 92.1 169.3 L 92.1 172.0 L 95.4 172.0 L 95.4 169.3 L 96.2 169.3 L 96.2 175.6 L 95.4 175.6 L 95.4 172.7 L 92.1 172.7 L 92.1 175.6 L 91.3 175.6 L 91.3 169.3 " fill="#000000"/>
<path class="atom-26" d="M 88.3 96.8 L 89.2 96.8 L 89.2 99.5 L 92.4 99.5 L 92.4 96.8 L 93.3 96.8 L 93.3 103.1 L 92.4 103.1 L 92.4 100.2 L 89.2 100.2 L 89.2 103.1 L 88.3 103.1 L 88.3 96.8 " fill="#000000"/>
<path class="atom-27" d="M 131.5 84.7 L 132.4 84.7 L 132.4 87.4 L 135.6 87.4 L 135.6 84.7 L 136.5 84.7 L 136.5 91.0 L 135.6 91.0 L 135.6 88.1 L 132.4 88.1 L 132.4 91.0 L 131.5 91.0 L 131.5 84.7 " fill="#000000"/>
<path class="atom-28" d="M 160.5 159.1 L 161.4 159.1 L 161.4 161.8 L 164.6 161.8 L 164.6 159.1 L 165.5 159.1 L 165.5 165.4 L 164.6 165.4 L 164.6 162.5 L 161.4 162.5 L 161.4 165.4 L 160.5 165.4 L 160.5 159.1 " fill="#000000"/>
<path class="atom-29" d="M 184.6 190.8 L 185.4 190.8 L 185.4 193.5 L 188.7 193.5 L 188.7 190.8 L 189.5 190.8 L 189.5 197.2 L 188.7 197.2 L 188.7 194.3 L 185.4 194.3 L 185.4 197.2 L 184.6 197.2 L 184.6 190.8 " fill="#000000"/>
<path class="atom-30" d="M 227.8 178.7 L 228.6 178.7 L 228.6 181.4 L 231.9 181.4 L 231.9 178.7 L 232.7 178.7 L 232.7 185.1 L 231.9 185.1 L 231.9 182.2 L 228.6 182.2 L 228.6 185.1 L 227.8 185.1 L 227.8 178.7 " fill="#000000"/>
<path class="atom-31" d="M 206.8 103.9 L 207.7 103.9 L 207.7 106.6 L 210.9 106.6 L 210.9 103.9 L 211.8 103.9 L 211.8 110.3 L 210.9 110.3 L 210.9 107.3 L 207.7 107.3 L 207.7 110.3 L 206.8 110.3 L 206.8 103.9 " fill="#000000"/>
<path class="atom-32" d="M 61.7 167.9 L 62.5 167.9 L 62.5 170.6 L 65.8 170.6 L 65.8 167.9 L 66.6 167.9 L 66.6 174.2 L 65.8 174.2 L 65.8 171.3 L 62.5 171.3 L 62.5 174.2 L 61.7 174.2 L 61.7 167.9 " fill="#000000"/>
<path class="atom-33" d="M 119.8 209.0 L 120.6 209.0 L 120.6 211.7 L 123.9 211.7 L 123.9 209.0 L 124.7 209.0 L 124.7 215.3 L 123.9 215.3 L 123.9 212.4 L 120.6 212.4 L 120.6 215.3 L 119.8 215.3 L 119.8 209.0 " fill="#000000"/>
<path class="bond-0 atom-0 atom-1" d="M 516.4,145.0 L 510.9,138.3" style="fill:none;fill-rule:evenodd;stroke:#FF0000;stroke-width:2.0px;stroke-linecap:butt;stroke-linejoin:miter;stroke-opacity:1"/>
<path class="bond-0 atom-0 atom-1" d="M 510.9,138.3 L 505.5,131.5" style="fill:none;fill-rule:evenodd;stroke:#000000;stroke-width:2.0px;stroke-linecap:butt;stroke-linejoin:miter;stroke-opacity:1"/>
<path class="bond-1 atom-0 atom-26" d="M 523.2,148.4 L 530.8,147.2" style="fill:none;fill-rule:evenodd;stroke:#FF0000;stroke-width:2.0px;stroke-linecap:butt;stroke-linejoin:miter;stroke-opacity:1"/>
<path class="bond-1 atom-0 atom-26" d="M 530.8,147.2 L 538.5,146.0" style="fill:none;fill-rule:evenodd;stroke:#000000;stroke-width:2.0px;stroke-linecap:butt;stroke-linejoin:miter;stroke-opacity:1"/>
<path class="bond-2 atom-1 atom-2" d="M 505.5,131.5 L 495.3,111.5" style="fill:none;fill-rule:evenodd;stroke:#000000;stroke-width:2.0px;stroke-linecap:butt;stroke-linejoin:miter;stroke-opacity:1"/>
<path class="bond-3 atom-1 atom-5" d="M 505.5,131.5 L 489.6,147.3" style="fill:none;fill-rule:evenodd;stroke:#000000;stroke-width:2.0px;stroke-linecap:butt;stroke-linejoin:miter;stroke-opacity:1"/>
<path class="bond-4 atom-1 atom-27" d="M 510.8,128.9 L 510.0,127.7" style="fill:none;fill-rule:evenodd;stroke:#000000;stroke-width:1.0px;stroke-linecap:butt;stroke-linejoin:miter;stroke-opacity:1"/>
<path class="bond-4 atom-1 atom-27" d="M 516.2,126.3 L 514.6,123.9" style="fill:none;fill-rule:evenodd;stroke:#000000;stroke-width:1.0px;stroke-linecap:butt;stroke-linejoin:miter;stroke-opacity:1"/>
<path class="bond-4 atom-1 atom-27" d="M 521.6,123.7 L 519.2,120.0" style="fill:none;fill-rule:evenodd;stroke:#000000;stroke-width:1.0px;stroke-linecap:butt;stroke-linejoin:miter;stroke-opacity:1"/>
<path class="bond-5 atom-2 atom-3" d="M 495.3,111.5 L 473.2,115.0" style="fill:none;fill-rule:evenodd;stroke:#000000;stroke-width:2.0px;stroke-linecap:butt;stroke-linejoin:miter;stroke-opacity:1"/>
<path class="bond-6 atom-2 atom-24" d="M 495.3,111.5 L 493.0,102.6" style="fill:none;fill-rule:evenodd;stroke:#000000;stroke-width:2.0px;stroke-linecap:butt;stroke-linejoin:miter;stroke-opacity:1"/>
<path class="bond-6 atom-2 atom-24" d="M 493.0,102.6 L 490.6,93.7" style="fill:none;fill-rule:evenodd;stroke:#33CCCC;stroke-width:2.0px;stroke-linecap:butt;stroke-linejoin:miter;stroke-opacity:1"/>
<path class="bond-7 atom-2 atom-25" d="M 495.3,111.5 L 504.5,108.0" style="fill:none;fill-rule:evenodd;stroke:#000000;stroke-width:2.0px;stroke-linecap:butt;stroke-linejoin:miter;stroke-opacity:1"/>
<path class="bond-7 atom-2 atom-25" d="M 504.5,108.0 L 513.7,104.5" style="fill:none;fill-rule:evenodd;stroke:#33CCCC;stroke-width:2.0px;stroke-linecap:butt;stroke-linejoin:miter;stroke-opacity:1"/>
<path class="bond-8 atom-3 atom-4" d="M 473.2,115.0 L 469.6,137.1" style="fill:none;fill-rule:evenodd;stroke:#000000;stroke-width:2.0px;stroke-linecap:butt;stroke-linejoin:miter;stroke-opacity:1"/>
<path class="bond-9 atom-3 atom-28" d="M 473.2,115.0 L 454.0,113.9" style="fill:none;fill-rule:evenodd;stroke:#000000;stroke-width:2.0px;stroke-linecap:butt;stroke-linejoin:miter;stroke-opacity:1"/>
<path class="bond-10 atom-3 atom-29" d="M 473.2,115.0 L 472.3,96.5" style="fill:none;fill-rule:evenodd;stroke:#000000;stroke-width:2.0px;stroke-linecap:butt;stroke-linejoin:miter;stroke-opacity:1"/>
<path class="bond-11 atom-4 atom-5" d="M 469.6,137.1 L 489.6,147.3" style="fill:none;fill-rule:evenodd;stroke:#000000;stroke-width:2.0px;stroke-linecap:butt;stroke-linejoin:miter;stroke-opacity:1"/>
<path class="bond-11 atom-4 atom-5" d="M 470.6,142.6 L 484.5,149.8" style="fill:none;fill-rule:evenodd;stroke:#000000;stroke-width:2.0px;stroke-linecap:butt;stroke-linejoin:miter;stroke-opacity:1"/>
<path class="bond-12 atom-4 atom-9" d="M 469.6,137.1 L 450.8,149.3" style="fill:none;fill-rule:evenodd;stroke:#000000;stroke-width:2.0px;stroke-linecap:butt;stroke-linejoin:miter;stroke-opacity:1"/>
<path class="bond-13 atom-5 atom-6" d="M 489.6,147.3 L 490.7,169.7" style="fill:none;fill-rule:evenodd;stroke:#000000;stroke-width:2.0px;stroke-linecap:butt;stroke-linejoin:miter;stroke-opacity:1"/>
<path class="bond-14 atom-6 atom-7" d="M 490.7,169.7 L 471.9,181.9" style="fill:none;fill-rule:evenodd;stroke:#000000;stroke-width:2.0px;stroke-linecap:butt;stroke-linejoin:miter;stroke-opacity:1"/>
<path class="bond-14 atom-6 atom-7" d="M 485.4,167.8 L 472.2,176.3" style="fill:none;fill-rule:evenodd;stroke:#000000;stroke-width:2.0px;stroke-linecap:butt;stroke-linejoin:miter;stroke-opacity:1"/>
<path class="bond-15 atom-6 atom-18" d="M 490.7,169.7 L 499.3,174.2" style="fill:none;fill-rule:evenodd;stroke:#000000;stroke-width:2.0px;stroke-linecap:butt;stroke-linejoin:miter;stroke-opacity:1"/>
<path class="bond-15 atom-6 atom-18" d="M 499.3,174.2 L 507.9,178.6" style="fill:none;fill-rule:evenodd;stroke:#CCCC00;stroke-width:2.0px;stroke-linecap:butt;stroke-linejoin:miter;stroke-opacity:1"/>
<path class="bond-16 atom-7 atom-8" d="M 471.9,181.9 L 451.9,171.7" style="fill:none;fill-rule:evenodd;stroke:#000000;stroke-width:2.0px;stroke-linecap:butt;stroke-linejoin:miter;stroke-opacity:1"/>
<path class="bond-17 atom-7 atom-30" d="M 471.9,181.9 L 472.8,200.4" style="fill:none;fill-rule:evenodd;stroke:#000000;stroke-width:2.0px;stroke-linecap:butt;stroke-linejoin:miter;stroke-opacity:1"/>
<path class="bond-18 atom-8 atom-9" d="M 451.9,171.7 L 450.8,149.3" style="fill:none;fill-rule:evenodd;stroke:#000000;stroke-width:2.0px;stroke-linecap:butt;stroke-linejoin:miter;stroke-opacity:1"/>
<path class="bond-18 atom-8 atom-9" d="M 456.2,168.1 L 455.4,152.4" style="fill:none;fill-rule:evenodd;stroke:#000000;stroke-width:2.0px;stroke-linecap:butt;stroke-linejoin:miter;stroke-opacity:1"/>
<path class="bond-19 atom-8 atom-31" d="M 451.9,171.7 L 443.8,178.4" style="fill:none;fill-rule:evenodd;stroke:#000000;stroke-width:2.0px;stroke-linecap:butt;stroke-linejoin:miter;stroke-opacity:1"/>
<path class="bond-20 atom-9 atom-10" d="M 450.8,149.3 L 442.6,145.1" style="fill:none;fill-rule:evenodd;stroke:#000000;stroke-width:2.0px;stroke-linecap:butt;stroke-linejoin:miter;stroke-opacity:1"/>
<path class="bond-20 atom-9 atom-10" d="M 442.6,145.1 L 434.5,140.9" style="fill:none;fill-rule:evenodd;stroke:#FF0000;stroke-width:2.0px;stroke-linecap:butt;stroke-linejoin:miter;stroke-opacity:1"/>
<path class="bond-21 atom-10 atom-11" d="M 427.2,141.4 L 419.6,146.3" style="fill:none;fill-rule:evenodd;stroke:#FF0000;stroke-width:2.0px;stroke-linecap:butt;stroke-linejoin:miter;stroke-opacity:1"/>
<path class="bond-21 atom-10 atom-11" d="M 419.6,146.3 L 412.0,151.2" style="fill:none;fill-rule:evenodd;stroke:#000000;stroke-width:2.0px;stroke-linecap:butt;stroke-linejoin:miter;stroke-opacity:1"/>
<path class="bond-22 atom-11 atom-12" d="M 412.0,151.2 L 392.0,141.0" style="fill:none;fill-rule:evenodd;stroke:#000000;stroke-width:2.0px;stroke-linecap:butt;stroke-linejoin:miter;stroke-opacity:1"/>
<path class="bond-22 atom-11 atom-12" d="M 406.9,153.7 L 393.0,146.5" style="fill:none;fill-rule:evenodd;stroke:#000000;stroke-width:2.0px;stroke-linecap:butt;stroke-linejoin:miter;stroke-opacity:1"/>
<path class="bond-23 atom-11 atom-17" d="M 412.0,151.2 L 413.1,173.6" style="fill:none;fill-rule:evenodd;stroke:#000000;stroke-width:2.0px;stroke-linecap:butt;stroke-linejoin:miter;stroke-opacity:1"/>
<path class="bond-24 atom-12 atom-13" d="M 392.0,141.0 L 373.2,153.2" style="fill:none;fill-rule:evenodd;stroke:#000000;stroke-width:2.0px;stroke-linecap:butt;stroke-linejoin:miter;stroke-opacity:1"/>
<path class="bond-25 atom-12 atom-32" d="M 392.0,141.0 L 391.1,122.5" style="fill:none;fill-rule:evenodd;stroke:#000000;stroke-width:2.0px;stroke-linecap:butt;stroke-linejoin:miter;stroke-opacity:1"/>
<path class="bond-26 atom-13 atom-14" d="M 373.2,153.2 L 363.8,148.3" style="fill:none;fill-rule:evenodd;stroke:#000000;stroke-width:2.0px;stroke-linecap:butt;stroke-linejoin:miter;stroke-opacity:1"/>
<path class="bond-26 atom-13 atom-14" d="M 363.8,148.3 L 354.3,143.5" style="fill:none;fill-rule:evenodd;stroke:#00CC00;stroke-width:2.0px;stroke-linecap:butt;stroke-linejoin:miter;stroke-opacity:1"/>
<path class="bond-27 atom-13 atom-15" d="M 373.2,153.2 L 374.3,175.6" style="fill:none;fill-rule:evenodd;stroke:#000000;stroke-width:2.0px;stroke-linecap:butt;stroke-linejoin:miter;stroke-opacity:1"/>
<path class="bond-27 atom-13 atom-15" d="M 377.8,156.3 L 378.6,172.0" style="fill:none;fill-rule:evenodd;stroke:#000000;stroke-width:2.0px;stroke-linecap:butt;stroke-linejoin:miter;stroke-opacity:1"/>
<path class="bond-28 atom-15 atom-16" d="M 374.3,175.6 L 382.7,179.9" style="fill:none;fill-rule:evenodd;stroke:#000000;stroke-width:2.0px;stroke-linecap:butt;stroke-linejoin:miter;stroke-opacity:1"/>
<path class="bond-28 atom-15 atom-16" d="M 382.7,179.9 L 391.1,184.2" style="fill:none;fill-rule:evenodd;stroke:#0000FF;stroke-width:2.0px;stroke-linecap:butt;stroke-linejoin:miter;stroke-opacity:1"/>
<path class="bond-29 atom-15 atom-33" d="M 374.3,175.6 L 358.7,185.7" style="fill:none;fill-rule:evenodd;stroke:#000000;stroke-width:2.0px;stroke-linecap:butt;stroke-linejoin:miter;stroke-opacity:1"/>
<path class="bond-30 atom-16 atom-17" d="M 397.4,183.8 L 405.2,178.7" style="fill:none;fill-rule:evenodd;stroke:#0000FF;stroke-width:2.0px;stroke-linecap:butt;stroke-linejoin:miter;stroke-opacity:1"/>
<path class="bond-30 atom-16 atom-17" d="M 405.2,178.7 L 413.1,173.6" style="fill:none;fill-rule:evenodd;stroke:#000000;stroke-width:2.0px;stroke-linecap:butt;stroke-linejoin:miter;stroke-opacity:1"/>
<path class="bond-30 atom-16 atom-17" d="M 397.3,178.5 L 402.8,174.9" style="fill:none;fill-rule:evenodd;stroke:#0000FF;stroke-width:2.0px;stroke-linecap:butt;stroke-linejoin:miter;stroke-opacity:1"/>
<path class="bond-30 atom-16 atom-17" d="M 402.8,174.9 L 408.3,171.4" style="fill:none;fill-rule:evenodd;stroke:#000000;stroke-width:2.0px;stroke-linecap:butt;stroke-linejoin:miter;stroke-opacity:1"/>
<path class="bond-31 atom-17 atom-34" d="M 413.1,173.6 L 422.1,179.7" style="fill:none;fill-rule:evenodd;stroke:#000000;stroke-width:2.0px;stroke-linecap:butt;stroke-linejoin:miter;stroke-opacity:1"/>
<path class="bond-32 atom-18 atom-19" d="M 510.6,185.1 L 507.5,191.0" style="fill:none;fill-rule:evenodd;stroke:#CCCC00;stroke-width:2.0px;stroke-linecap:butt;stroke-linejoin:miter;stroke-opacity:1"/>
<path class="bond-32 atom-18 atom-19" d="M 507.5,191.0 L 504.4,197.0" style="fill:none;fill-rule:evenodd;stroke:#FF0000;stroke-width:2.0px;stroke-linecap:butt;stroke-linejoin:miter;stroke-opacity:1"/>
<path class="bond-32 atom-18 atom-19" d="M 506.6,183.0 L 503.5,189.0" style="fill:none;fill-rule:evenodd;stroke:#CCCC00;stroke-width:2.0px;stroke-linecap:butt;stroke-linejoin:miter;stroke-opacity:1"/>
<path class="bond-32 atom-18 atom-19" d="M 503.5,189.0 L 500.4,195.0" style="fill:none;fill-rule:evenodd;stroke:#FF0000;stroke-width:2.0px;stroke-linecap:butt;stroke-linejoin:miter;stroke-opacity:1"/>
<path class="bond-33 atom-18 atom-20" d="M 511.7,175.3 L 516.0,170.5" style="fill:none;fill-rule:evenodd;stroke:#CCCC00;stroke-width:2.0px;stroke-linecap:butt;stroke-linejoin:miter;stroke-opacity:1"/>
<path class="bond-33 atom-18 atom-20" d="M 516.0,170.5 L 520.2,165.6" style="fill:none;fill-rule:evenodd;stroke:#FF0000;stroke-width:2.0px;stroke-linecap:butt;stroke-linejoin:miter;stroke-opacity:1"/>
<path class="bond-33 atom-18 atom-20" d="M 515.1,178.3 L 519.3,173.4" style="fill:none;fill-rule:evenodd;stroke:#CCCC00;stroke-width:2.0px;stroke-linecap:butt;stroke-linejoin:miter;stroke-opacity:1"/>
<path class="bond-33 atom-18 atom-20" d="M 519.3,173.4 L 523.6,168.6" style="fill:none;fill-rule:evenodd;stroke:#FF0000;stroke-width:2.0px;stroke-linecap:butt;stroke-linejoin:miter;stroke-opacity:1"/>
<path class="bond-34 atom-18 atom-21" d="M 513.4,181.4 L 522.0,185.8" style="fill:none;fill-rule:evenodd;stroke:#CCCC00;stroke-width:2.0px;stroke-linecap:butt;stroke-linejoin:miter;stroke-opacity:1"/>
<path class="bond-34 atom-18 atom-21" d="M 522.0,185.8 L 530.6,190.2" style="fill:none;fill-rule:evenodd;stroke:#000000;stroke-width:2.0px;stroke-linecap:butt;stroke-linejoin:miter;stroke-opacity:1"/>
<path class="bond-35 atom-21 atom-22" d="M 530.6,190.2 L 534.7,182.2" style="fill:none;fill-rule:evenodd;stroke:#000000;stroke-width:2.0px;stroke-linecap:butt;stroke-linejoin:miter;stroke-opacity:1"/>
<path class="bond-35 atom-21 atom-22" d="M 534.7,182.2 L 538.8,174.2" style="fill:none;fill-rule:evenodd;stroke:#33CCCC;stroke-width:2.0px;stroke-linecap:butt;stroke-linejoin:miter;stroke-opacity:1"/>
<path class="bond-36 atom-21 atom-23" d="M 530.6,190.2 L 539.3,194.7" style="fill:none;fill-rule:evenodd;stroke:#000000;stroke-width:2.0px;stroke-linecap:butt;stroke-linejoin:miter;stroke-opacity:1"/>
<path class="bond-36 atom-21 atom-23" d="M 539.3,194.7 L 548.0,199.1" style="fill:none;fill-rule:evenodd;stroke:#33CCCC;stroke-width:2.0px;stroke-linecap:butt;stroke-linejoin:miter;stroke-opacity:1"/>
<path class="bond-37 atom-21 atom-35" d="M 530.6,190.2 L 522.4,206.3" style="fill:none;fill-rule:evenodd;stroke:#000000;stroke-width:2.0px;stroke-linecap:butt;stroke-linejoin:miter;stroke-opacity:1"/>
<path class="atom-0" d="M 516.6 149.0 Q 516.6 147.5, 517.4 146.6 Q 518.1 145.8, 519.5 145.8 Q 521.0 145.8, 521.7 146.6 Q 522.5 147.5, 522.5 149.0 Q 522.5 150.5, 521.7 151.4 Q 520.9 152.3, 519.5 152.3 Q 518.1 152.3, 517.4 151.4 Q 516.6 150.6, 516.6 149.0 M 519.5 151.6 Q 520.5 151.6, 521.0 150.9 Q 521.6 150.3, 521.6 149.0 Q 521.6 147.8, 521.0 147.1 Q 520.5 146.5, 519.5 146.5 Q 518.6 146.5, 518.0 147.1 Q 517.5 147.7, 517.5 149.0 Q 517.5 150.3, 518.0 150.9 Q 518.6 151.6, 519.5 151.6 " fill="#FF0000"/>
<path class="atom-10" d="M 427.9 139.1 Q 427.9 137.5, 428.6 136.7 Q 429.4 135.8, 430.8 135.8 Q 432.2 135.8, 433.0 136.7 Q 433.7 137.5, 433.7 139.1 Q 433.7 140.6, 433.0 141.5 Q 432.2 142.4, 430.8 142.4 Q 429.4 142.4, 428.6 141.5 Q 427.9 140.6, 427.9 139.1 M 430.8 141.6 Q 431.8 141.6, 432.3 141.0 Q 432.8 140.3, 432.8 139.1 Q 432.8 137.8, 432.3 137.2 Q 431.8 136.6, 430.8 136.6 Q 429.8 136.6, 429.3 137.2 Q 428.8 137.8, 428.8 139.1 Q 428.8 140.4, 429.3 141.0 Q 429.8 141.6, 430.8 141.6 " fill="#FF0000"/>
<path class="atom-14" d="M 347.5 143.1 Q 347.5 141.6, 348.3 140.7 Q 349.0 139.9, 350.4 139.9 Q 351.7 139.9, 352.4 140.8 L 351.8 141.3 Q 351.3 140.6, 350.4 140.6 Q 349.5 140.6, 349.0 141.3 Q 348.5 141.9, 348.5 143.1 Q 348.5 144.4, 349.0 145.0 Q 349.5 145.7, 350.5 145.7 Q 351.2 145.7, 352.0 145.3 L 352.3 145.9 Q 352.0 146.2, 351.5 146.3 Q 351.0 146.4, 350.4 146.4 Q 349.0 146.4, 348.3 145.6 Q 347.5 144.7, 347.5 143.1 " fill="#00CC00"/>
<path class="atom-14" d="M 352.8 139.5 L 353.6 139.5 L 353.6 146.3 L 352.8 146.3 L 352.8 139.5 " fill="#00CC00"/>
<path class="atom-16" d="M 392.8 182.6 L 394.9 186.0 Q 395.1 186.3, 395.5 186.9 Q 395.8 187.5, 395.8 187.6 L 395.8 182.6 L 396.7 182.6 L 396.7 189.0 L 395.8 189.0 L 393.6 185.3 Q 393.3 184.9, 393.0 184.4 Q 392.7 183.9, 392.7 183.7 L 392.7 189.0 L 391.8 189.0 L 391.8 182.6 L 392.8 182.6 " fill="#0000FF"/>
<path class="atom-18" d="M 508.9 182.2 Q 508.9 182.2, 509.2 182.3 Q 509.5 182.4, 509.8 182.5 Q 510.2 182.6, 510.5 182.6 Q 511.1 182.6, 511.5 182.3 Q 511.8 182.0, 511.8 181.5 Q 511.8 181.1, 511.6 180.9 Q 511.5 180.7, 511.2 180.6 Q 510.9 180.5, 510.5 180.3 Q 509.9 180.2, 509.6 180.0 Q 509.2 179.9, 509.0 179.5 Q 508.8 179.2, 508.8 178.6 Q 508.8 177.8, 509.3 177.3 Q 509.8 176.8, 510.9 176.8 Q 511.7 176.8, 512.5 177.2 L 512.3 177.9 Q 511.5 177.5, 510.9 177.5 Q 510.3 177.5, 510.0 177.8 Q 509.6 178.0, 509.6 178.5 Q 509.6 178.8, 509.8 179.0 Q 510.0 179.2, 510.3 179.4 Q 510.5 179.5, 510.9 179.6 Q 511.5 179.8, 511.9 180.0 Q 512.2 180.1, 512.4 180.5 Q 512.7 180.9, 512.7 181.5 Q 512.7 182.4, 512.1 182.8 Q 511.5 183.3, 510.5 183.3 Q 510.0 183.3, 509.5 183.2 Q 509.1 183.1, 508.6 182.9 L 508.9 182.2 " fill="#CCCC00"/>
<path class="atom-19" d="M 497.5 200.0 Q 497.5 198.4, 498.3 197.6 Q 499.0 196.7, 500.4 196.7 Q 501.8 196.7, 502.6 197.6 Q 503.3 198.4, 503.3 200.0 Q 503.3 201.5, 502.6 202.4 Q 501.8 203.2, 500.4 203.2 Q 499.0 203.2, 498.3 202.4 Q 497.5 201.5, 497.5 200.0 M 500.4 202.5 Q 501.4 202.5, 501.9 201.9 Q 502.4 201.2, 502.4 200.0 Q 502.4 198.7, 501.9 198.1 Q 501.4 197.4, 500.4 197.4 Q 499.5 197.4, 498.9 198.1 Q 498.4 198.7, 498.4 200.0 Q 498.4 201.2, 498.9 201.9 Q 499.5 202.5, 500.4 202.5 " fill="#FF0000"/>
<path class="atom-20" d="M 522.5 163.1 Q 522.5 161.6, 523.3 160.7 Q 524.0 159.9, 525.4 159.9 Q 526.8 159.9, 527.6 160.7 Q 528.3 161.6, 528.3 163.1 Q 528.3 164.6, 527.6 165.5 Q 526.8 166.4, 525.4 166.4 Q 524.0 166.4, 523.3 165.5 Q 522.5 164.7, 522.5 163.1 M 525.4 165.7 Q 526.4 165.7, 526.9 165.0 Q 527.4 164.4, 527.4 163.1 Q 527.4 161.9, 526.9 161.2 Q 526.4 160.6, 525.4 160.6 Q 524.4 160.6, 523.9 161.2 Q 523.4 161.8, 523.4 163.1 Q 523.4 164.4, 523.9 165.0 Q 524.4 165.7, 525.4 165.7 " fill="#FF0000"/>
<path class="atom-22" d="M 539.0 167.1 L 542.7 167.1 L 542.7 167.8 L 539.8 167.8 L 539.8 169.7 L 542.4 169.7 L 542.4 170.5 L 539.8 170.5 L 539.8 173.4 L 539.0 173.4 L 539.0 167.1 " fill="#33CCCC"/>
<path class="atom-23" d="M 548.7 197.3 L 552.5 197.3 L 552.5 198.0 L 549.5 198.0 L 549.5 199.9 L 552.1 199.9 L 552.1 200.7 L 549.5 200.7 L 549.5 203.6 L 548.7 203.6 L 548.7 197.3 " fill="#33CCCC"/>
<path class="atom-24" d="M 487.7 86.7 L 491.5 86.7 L 491.5 87.4 L 488.5 87.4 L 488.5 89.3 L 491.2 89.3 L 491.2 90.0 L 488.5 90.0 L 488.5 93.0 L 487.7 93.0 L 487.7 86.7 " fill="#33CCCC"/>
<path class="atom-25" d="M 514.4 100.3 L 518.2 100.3 L 518.2 101.1 L 515.3 101.1 L 515.3 103.0 L 517.9 103.0 L 517.9 103.7 L 515.3 103.7 L 515.3 106.7 L 514.4 106.7 L 514.4 100.3 " fill="#33CCCC"/>
<path class="atom-26" d="M 539.2 142.4 L 540.1 142.4 L 540.1 145.1 L 543.3 145.1 L 543.3 142.4 L 544.2 142.4 L 544.2 148.7 L 543.3 148.7 L 543.3 145.8 L 540.1 145.8 L 540.1 148.7 L 539.2 148.7 L 539.2 142.4 " fill="#000000"/>
<path class="atom-27" d="M 521.8 116.2 L 522.7 116.2 L 522.7 118.9 L 525.9 118.9 L 525.9 116.2 L 526.8 116.2 L 526.8 122.5 L 525.9 122.5 L 525.9 119.6 L 522.7 119.6 L 522.7 122.5 L 521.8 122.5 L 521.8 116.2 " fill="#000000"/>
<path class="atom-28" d="M 448.3 110.6 L 449.2 110.6 L 449.2 113.3 L 452.4 113.3 L 452.4 110.6 L 453.3 110.6 L 453.3 116.9 L 452.4 116.9 L 452.4 114.0 L 449.2 114.0 L 449.2 116.9 L 448.3 116.9 L 448.3 110.6 " fill="#000000"/>
<path class="atom-29" d="M 469.6 89.4 L 470.4 89.4 L 470.4 92.1 L 473.7 92.1 L 473.7 89.4 L 474.5 89.4 L 474.5 95.7 L 473.7 95.7 L 473.7 92.8 L 470.4 92.8 L 470.4 95.7 L 469.6 95.7 L 469.6 89.4 " fill="#000000"/>
<path class="atom-30" d="M 470.5 201.1 L 471.3 201.1 L 471.3 203.8 L 474.6 203.8 L 474.6 201.1 L 475.5 201.1 L 475.5 207.5 L 474.6 207.5 L 474.6 204.6 L 471.3 204.6 L 471.3 207.5 L 470.5 207.5 L 470.5 201.1 " fill="#000000"/>
<path class="atom-31" d="M 438.1 177.9 L 439.0 177.9 L 439.0 180.6 L 442.2 180.6 L 442.2 177.9 L 443.1 177.9 L 443.1 184.3 L 442.2 184.3 L 442.2 181.4 L 439.0 181.4 L 439.0 184.3 L 438.1 184.3 L 438.1 177.9 " fill="#000000"/>
<path class="atom-32" d="M 388.4 115.4 L 389.3 115.4 L 389.3 118.1 L 392.5 118.1 L 392.5 115.4 L 393.4 115.4 L 393.4 121.8 L 392.5 121.8 L 392.5 118.8 L 389.3 118.8 L 389.3 121.8 L 388.4 121.8 L 388.4 115.4 " fill="#000000"/>
<path class="atom-33" d="M 353.0 184.6 L 353.8 184.6 L 353.8 187.3 L 357.1 187.3 L 357.1 184.6 L 357.9 184.6 L 357.9 190.9 L 357.1 190.9 L 357.1 188.0 L 353.8 188.0 L 353.8 190.9 L 353.0 190.9 L 353.0 184.6 " fill="#000000"/>
<path class="atom-34" d="M 422.8 178.7 L 423.6 178.7 L 423.6 181.4 L 426.9 181.4 L 426.9 178.7 L 427.8 178.7 L 427.8 185.1 L 426.9 185.1 L 426.9 182.1 L 423.6 182.1 L 423.6 185.1 L 422.8 185.1 L 422.8 178.7 " fill="#000000"/>
<path class="atom-35" d="M 517.9 207.0 L 518.8 207.0 L 518.8 209.7 L 522.0 209.7 L 522.0 207.0 L 522.9 207.0 L 522.9 213.3 L 522.0 213.3 L 522.0 210.4 L 518.8 210.4 L 518.8 213.3 L 517.9 213.3 L 517.9 207.0 " fill="#000000"/>
<text x="300" y="20" font-size="20" font-family="sans-serif" font-weight="normal" letter-spacing="0" text-anchor="middle" fill="black">hif2a: 43 -&gt; 25</text><text x="300" y="35" font-size="15" font-family="sans-serif" font-weight="normal" letter-spacing="0" text-anchor="middle" fill="black"></text><text x="150" y="285" font-size="15" font-family="sans-serif" font-weight="normal" letter-spacing="0" text-anchor="middle" fill="black">43</text><text x="450" y="285" font-size="15" font-family="sans-serif" font-weight="normal" letter-spacing="0" text-anchor="middle" fill="black">25</text></svg>
