<?xml version='1.0' encoding='ASCII' standalone='yes'?>
<svg xmlns="http://www.w3.org/2000/svg" xmlns:rdkit="http://www.rdkit.org/xml" xmlns:xlink="http://www.w3.org/1999/xlink" version="1.1" baseProfile="full" xml:space="preserve" width="600px" height="300px" viewBox="0 0 600 300">
<!-- END OF HEADER -->
<rect style="opacity:1.0;fill:#FFFFFF;stroke:none" width="600.0" height="300.0" x="0.0" y="0.0"> </rect>
<path class="bond-0 atom-0 atom-2" d="M 86.6,167.3 L 107.5,154.4" style="fill:none;fill-rule:evenodd;stroke:#000000;stroke-width:2.0px;stroke-linecap:butt;stroke-linejoin:miter;stroke-opacity:1"/>
<path class="bond-1 atom-0 atom-21" d="M 86.6,167.3 L 78.1,172.5" style="fill:none;fill-rule:evenodd;stroke:#000000;stroke-width:2.0px;stroke-linecap:butt;stroke-linejoin:miter;stroke-opacity:1"/>
<path class="bond-1 atom-0 atom-21" d="M 78.1,172.5 L 69.6,177.7" style="fill:none;fill-rule:evenodd;stroke:#FF0000;stroke-width:2.0px;stroke-linecap:butt;stroke-linejoin:miter;stroke-opacity:1"/>
<path class="bond-2 atom-0 atom-24" d="M 86.6,167.3 L 77.6,156.0" style="fill:none;fill-rule:evenodd;stroke:#000000;stroke-width:2.0px;stroke-linecap:butt;stroke-linejoin:miter;stroke-opacity:1"/>
<path class="bond-3 atom-0 atom-25" d="M 86.6,167.3 L 92.9,181.1" style="fill:none;fill-rule:evenodd;stroke:#000000;stroke-width:2.0px;stroke-linecap:butt;stroke-linejoin:miter;stroke-opacity:1"/>
<path class="bond-4 atom-1 atom-2" d="M 129.2,166.0 L 107.5,154.4" style="fill:none;fill-rule:evenodd;stroke:#000000;stroke-width:2.0px;stroke-linecap:butt;stroke-linejoin:miter;stroke-opacity:1"/>
<path class="bond-4 atom-1 atom-2" d="M 128.2,160.0 L 113.1,151.8" style="fill:none;fill-rule:evenodd;stroke:#000000;stroke-width:2.0px;stroke-linecap:butt;stroke-linejoin:miter;stroke-opacity:1"/>
<path class="bond-5 atom-1 atom-6" d="M 129.2,166.0 L 150.1,153.1" style="fill:none;fill-rule:evenodd;stroke:#000000;stroke-width:2.0px;stroke-linecap:butt;stroke-linejoin:miter;stroke-opacity:1"/>
<path class="bond-6 atom-1 atom-18" d="M 129.2,166.0 L 129.9,190.6" style="fill:none;fill-rule:evenodd;stroke:#000000;stroke-width:2.0px;stroke-linecap:butt;stroke-linejoin:miter;stroke-opacity:1"/>
<path class="bond-7 atom-2 atom-3" d="M 107.5,154.4 L 106.8,129.8" style="fill:none;fill-rule:evenodd;stroke:#000000;stroke-width:2.0px;stroke-linecap:butt;stroke-linejoin:miter;stroke-opacity:1"/>
<path class="bond-8 atom-3 atom-4" d="M 106.8,129.8 L 127.7,116.9" style="fill:none;fill-rule:evenodd;stroke:#000000;stroke-width:2.0px;stroke-linecap:butt;stroke-linejoin:miter;stroke-opacity:1"/>
<path class="bond-8 atom-3 atom-4" d="M 112.5,132.0 L 127.2,123.0" style="fill:none;fill-rule:evenodd;stroke:#000000;stroke-width:2.0px;stroke-linecap:butt;stroke-linejoin:miter;stroke-opacity:1"/>
<path class="bond-9 atom-3 atom-15" d="M 106.8,129.8 L 97.5,124.8" style="fill:none;fill-rule:evenodd;stroke:#000000;stroke-width:2.0px;stroke-linecap:butt;stroke-linejoin:miter;stroke-opacity:1"/>
<path class="bond-9 atom-3 atom-15" d="M 97.5,124.8 L 88.2,119.7" style="fill:none;fill-rule:evenodd;stroke:#CCCC00;stroke-width:2.0px;stroke-linecap:butt;stroke-linejoin:miter;stroke-opacity:1"/>
<path class="bond-10 atom-4 atom-5" d="M 127.7,116.9 L 149.4,128.5" style="fill:none;fill-rule:evenodd;stroke:#000000;stroke-width:2.0px;stroke-linecap:butt;stroke-linejoin:miter;stroke-opacity:1"/>
<path class="bond-11 atom-4 atom-26" d="M 127.7,116.9 L 127.1,96.6" style="fill:none;fill-rule:evenodd;stroke:#000000;stroke-width:2.0px;stroke-linecap:butt;stroke-linejoin:miter;stroke-opacity:1"/>
<path class="bond-12 atom-5 atom-6" d="M 149.4,128.5 L 150.1,153.1" style="fill:none;fill-rule:evenodd;stroke:#000000;stroke-width:2.0px;stroke-linecap:butt;stroke-linejoin:miter;stroke-opacity:1"/>
<path class="bond-12 atom-5 atom-6" d="M 144.6,132.4 L 145.1,149.6" style="fill:none;fill-rule:evenodd;stroke:#000000;stroke-width:2.0px;stroke-linecap:butt;stroke-linejoin:miter;stroke-opacity:1"/>
<path class="bond-13 atom-5 atom-27" d="M 149.4,128.5 L 158.5,121.3" style="fill:none;fill-rule:evenodd;stroke:#000000;stroke-width:2.0px;stroke-linecap:butt;stroke-linejoin:miter;stroke-opacity:1"/>
<path class="bond-14 atom-6 atom-7" d="M 150.1,153.1 L 158.9,157.9" style="fill:none;fill-rule:evenodd;stroke:#000000;stroke-width:2.0px;stroke-linecap:butt;stroke-linejoin:miter;stroke-opacity:1"/>
<path class="bond-14 atom-6 atom-7" d="M 158.9,157.9 L 167.8,162.6" style="fill:none;fill-rule:evenodd;stroke:#FF0000;stroke-width:2.0px;stroke-linecap:butt;stroke-linejoin:miter;stroke-opacity:1"/>
<path class="bond-15 atom-7 atom-8" d="M 175.7,162.3 L 184.2,157.1" style="fill:none;fill-rule:evenodd;stroke:#FF0000;stroke-width:2.0px;stroke-linecap:butt;stroke-linejoin:miter;stroke-opacity:1"/>
<path class="bond-15 atom-7 atom-8" d="M 184.2,157.1 L 192.7,151.9" style="fill:none;fill-rule:evenodd;stroke:#000000;stroke-width:2.0px;stroke-linecap:butt;stroke-linejoin:miter;stroke-opacity:1"/>
<path class="bond-16 atom-8 atom-9" d="M 192.7,151.9 L 191.9,127.3" style="fill:none;fill-rule:evenodd;stroke:#000000;stroke-width:2.0px;stroke-linecap:butt;stroke-linejoin:miter;stroke-opacity:1"/>
<path class="bond-16 atom-8 atom-9" d="M 197.5,148.0 L 197.0,130.8" style="fill:none;fill-rule:evenodd;stroke:#000000;stroke-width:2.0px;stroke-linecap:butt;stroke-linejoin:miter;stroke-opacity:1"/>
<path class="bond-17 atom-8 atom-14" d="M 192.7,151.9 L 214.3,163.5" style="fill:none;fill-rule:evenodd;stroke:#000000;stroke-width:2.0px;stroke-linecap:butt;stroke-linejoin:miter;stroke-opacity:1"/>
<path class="bond-18 atom-9 atom-10" d="M 191.9,127.3 L 212.9,114.4" style="fill:none;fill-rule:evenodd;stroke:#000000;stroke-width:2.0px;stroke-linecap:butt;stroke-linejoin:miter;stroke-opacity:1"/>
<path class="bond-19 atom-9 atom-28" d="M 191.9,127.3 L 182.3,120.4" style="fill:none;fill-rule:evenodd;stroke:#000000;stroke-width:2.0px;stroke-linecap:butt;stroke-linejoin:miter;stroke-opacity:1"/>
<path class="bond-20 atom-10 atom-11" d="M 212.9,114.4 L 234.5,126.0" style="fill:none;fill-rule:evenodd;stroke:#000000;stroke-width:2.0px;stroke-linecap:butt;stroke-linejoin:miter;stroke-opacity:1"/>
<path class="bond-20 atom-10 atom-11" d="M 213.8,120.5 L 228.9,128.6" style="fill:none;fill-rule:evenodd;stroke:#000000;stroke-width:2.0px;stroke-linecap:butt;stroke-linejoin:miter;stroke-opacity:1"/>
<path class="bond-21 atom-10 atom-19" d="M 212.9,114.4 L 212.6,104.2" style="fill:none;fill-rule:evenodd;stroke:#000000;stroke-width:2.0px;stroke-linecap:butt;stroke-linejoin:miter;stroke-opacity:1"/>
<path class="bond-21 atom-10 atom-19" d="M 212.6,104.2 L 212.3,94.1" style="fill:none;fill-rule:evenodd;stroke:#33CCCC;stroke-width:2.0px;stroke-linecap:butt;stroke-linejoin:miter;stroke-opacity:1"/>
<path class="bond-22 atom-11 atom-12" d="M 234.5,126.0 L 235.2,150.6" style="fill:none;fill-rule:evenodd;stroke:#000000;stroke-width:2.0px;stroke-linecap:butt;stroke-linejoin:miter;stroke-opacity:1"/>
<path class="bond-23 atom-11 atom-29" d="M 234.5,126.0 L 251.9,115.3" style="fill:none;fill-rule:evenodd;stroke:#000000;stroke-width:2.0px;stroke-linecap:butt;stroke-linejoin:miter;stroke-opacity:1"/>
<path class="bond-24 atom-12 atom-13" d="M 235.2,150.6 L 244.3,155.5" style="fill:none;fill-rule:evenodd;stroke:#000000;stroke-width:2.0px;stroke-linecap:butt;stroke-linejoin:miter;stroke-opacity:1"/>
<path class="bond-24 atom-12 atom-13" d="M 244.3,155.5 L 253.4,160.4" style="fill:none;fill-rule:evenodd;stroke:#00CC00;stroke-width:2.0px;stroke-linecap:butt;stroke-linejoin:miter;stroke-opacity:1"/>
<path class="bond-25 atom-12 atom-14" d="M 235.2,150.6 L 214.3,163.5" style="fill:none;fill-rule:evenodd;stroke:#000000;stroke-width:2.0px;stroke-linecap:butt;stroke-linejoin:miter;stroke-opacity:1"/>
<path class="bond-25 atom-12 atom-14" d="M 229.5,148.4 L 214.9,157.4" style="fill:none;fill-rule:evenodd;stroke:#000000;stroke-width:2.0px;stroke-linecap:butt;stroke-linejoin:miter;stroke-opacity:1"/>
<path class="bond-26 atom-14 atom-30" d="M 214.3,163.5 L 214.9,183.9" style="fill:none;fill-rule:evenodd;stroke:#000000;stroke-width:2.0px;stroke-linecap:butt;stroke-linejoin:miter;stroke-opacity:1"/>
<path class="bond-27 atom-15 atom-16" d="M 84.1,123.8 L 81.4,127.6" style="fill:none;fill-rule:evenodd;stroke:#CCCC00;stroke-width:2.0px;stroke-linecap:butt;stroke-linejoin:miter;stroke-opacity:1"/>
<path class="bond-27 atom-15 atom-16" d="M 81.4,127.6 L 78.7,131.5" style="fill:none;fill-rule:evenodd;stroke:#FF0000;stroke-width:2.0px;stroke-linecap:butt;stroke-linejoin:miter;stroke-opacity:1"/>
<path class="bond-27 atom-15 atom-16" d="M 80.1,120.9 L 77.4,124.8" style="fill:none;fill-rule:evenodd;stroke:#CCCC00;stroke-width:2.0px;stroke-linecap:butt;stroke-linejoin:miter;stroke-opacity:1"/>
<path class="bond-27 atom-15 atom-16" d="M 77.4,124.8 L 74.7,128.6" style="fill:none;fill-rule:evenodd;stroke:#FF0000;stroke-width:2.0px;stroke-linecap:butt;stroke-linejoin:miter;stroke-opacity:1"/>
<path class="bond-28 atom-15 atom-17" d="M 82.1,116.5 L 72.8,111.5" style="fill:none;fill-rule:evenodd;stroke:#CCCC00;stroke-width:2.0px;stroke-linecap:butt;stroke-linejoin:miter;stroke-opacity:1"/>
<path class="bond-28 atom-15 atom-17" d="M 72.8,111.5 L 63.5,106.5" style="fill:none;fill-rule:evenodd;stroke:#000000;stroke-width:2.0px;stroke-linecap:butt;stroke-linejoin:miter;stroke-opacity:1"/>
<path class="bond-29 atom-15 atom-20" d="M 85.3,112.7 L 88.8,106.2" style="fill:none;fill-rule:evenodd;stroke:#CCCC00;stroke-width:2.0px;stroke-linecap:butt;stroke-linejoin:miter;stroke-opacity:1"/>
<path class="bond-29 atom-15 atom-20" d="M 88.8,106.2 L 92.3,99.7" style="fill:none;fill-rule:evenodd;stroke:#FF0000;stroke-width:2.0px;stroke-linecap:butt;stroke-linejoin:miter;stroke-opacity:1"/>
<path class="bond-29 atom-15 atom-20" d="M 89.6,115.0 L 93.1,108.5" style="fill:none;fill-rule:evenodd;stroke:#CCCC00;stroke-width:2.0px;stroke-linecap:butt;stroke-linejoin:miter;stroke-opacity:1"/>
<path class="bond-29 atom-15 atom-20" d="M 93.1,108.5 L 96.6,102.0" style="fill:none;fill-rule:evenodd;stroke:#FF0000;stroke-width:2.0px;stroke-linecap:butt;stroke-linejoin:miter;stroke-opacity:1"/>
<path class="bond-30 atom-17 atom-31" d="M 63.5,106.5 L 72.9,89.1" style="fill:none;fill-rule:evenodd;stroke:#000000;stroke-width:2.0px;stroke-linecap:butt;stroke-linejoin:miter;stroke-opacity:1"/>
<path class="bond-31 atom-17 atom-32" d="M 63.5,106.5 L 54.1,123.8" style="fill:none;fill-rule:evenodd;stroke:#000000;stroke-width:2.0px;stroke-linecap:butt;stroke-linejoin:miter;stroke-opacity:1"/>
<path class="bond-32 atom-17 atom-33" d="M 63.5,106.5 L 45.4,96.7" style="fill:none;fill-rule:evenodd;stroke:#000000;stroke-width:2.0px;stroke-linecap:butt;stroke-linejoin:miter;stroke-opacity:1"/>
<path class="bond-33 atom-18 atom-22" d="M 129.9,190.6 L 140.7,190.3" style="fill:none;fill-rule:evenodd;stroke:#000000;stroke-width:2.0px;stroke-linecap:butt;stroke-linejoin:miter;stroke-opacity:1"/>
<path class="bond-33 atom-18 atom-22" d="M 140.7,190.3 L 151.6,190.0" style="fill:none;fill-rule:evenodd;stroke:#33CCCC;stroke-width:2.0px;stroke-linecap:butt;stroke-linejoin:miter;stroke-opacity:1"/>
<path class="bond-34 atom-18 atom-23" d="M 129.9,190.6 L 121.5,191.9" style="fill:none;fill-rule:evenodd;stroke:#000000;stroke-width:2.0px;stroke-linecap:butt;stroke-linejoin:miter;stroke-opacity:1"/>
<path class="bond-34 atom-18 atom-23" d="M 121.5,191.9 L 113.0,193.2" style="fill:none;fill-rule:evenodd;stroke:#33CCCC;stroke-width:2.0px;stroke-linecap:butt;stroke-linejoin:miter;stroke-opacity:1"/>
<path class="bond-35 atom-18 atom-34" d="M 129.9,190.6 L 130.5,210.9" style="fill:none;fill-rule:evenodd;stroke:#000000;stroke-width:2.0px;stroke-linecap:butt;stroke-linejoin:miter;stroke-opacity:1"/>
<path class="bond-36 atom-21 atom-35" d="M 65.8,184.6 L 66.0,192.6" style="fill:none;fill-rule:evenodd;stroke:#FF0000;stroke-width:2.0px;stroke-linecap:butt;stroke-linejoin:miter;stroke-opacity:1"/>
<path class="bond-36 atom-21 atom-35" d="M 66.0,192.6 L 66.3,200.5" style="fill:none;fill-rule:evenodd;stroke:#000000;stroke-width:2.0px;stroke-linecap:butt;stroke-linejoin:miter;stroke-opacity:1"/>
<path class="atom-7" d="M 168.5 164.8 Q 168.5 163.1, 169.4 162.2 Q 170.2 161.3, 171.7 161.3 Q 173.3 161.3, 174.1 162.2 Q 174.9 163.1, 174.9 164.8 Q 174.9 166.5, 174.1 167.5 Q 173.3 168.4, 171.7 168.4 Q 170.2 168.4, 169.4 167.5 Q 168.5 166.5, 168.5 164.8 M 171.7 167.6 Q 172.8 167.6, 173.4 166.9 Q 173.9 166.2, 173.9 164.8 Q 173.9 163.4, 173.4 162.8 Q 172.8 162.1, 171.7 162.1 Q 170.7 162.1, 170.1 162.7 Q 169.5 163.4, 169.5 164.8 Q 169.5 166.2, 170.1 166.9 Q 170.7 167.6, 171.7 167.6 " fill="#FF0000"/>
<path class="atom-13" d="M 254.2 162.5 Q 254.2 160.8, 255.0 159.9 Q 255.8 159.0, 257.4 159.0 Q 258.8 159.0, 259.6 160.0 L 258.9 160.5 Q 258.4 159.8, 257.4 159.8 Q 256.3 159.8, 255.8 160.5 Q 255.2 161.2, 255.2 162.5 Q 255.2 163.9, 255.8 164.6 Q 256.4 165.3, 257.5 165.3 Q 258.2 165.3, 259.1 164.9 L 259.4 165.6 Q 259.1 165.8, 258.5 166.0 Q 257.9 166.1, 257.3 166.1 Q 255.8 166.1, 255.0 165.2 Q 254.2 164.3, 254.2 162.5 " fill="#00CC00"/>
<path class="atom-13" d="M 260.0 158.6 L 260.9 158.6 L 260.9 166.0 L 260.0 166.0 L 260.0 158.6 " fill="#00CC00"/>
<path class="atom-15" d="M 83.2 120.5 Q 83.3 120.5, 83.6 120.7 Q 83.9 120.8, 84.3 120.9 Q 84.6 121.0, 85.0 121.0 Q 85.6 121.0, 86.0 120.7 Q 86.4 120.3, 86.4 119.8 Q 86.4 119.4, 86.2 119.2 Q 86.0 118.9, 85.7 118.8 Q 85.4 118.7, 84.9 118.5 Q 84.3 118.3, 83.9 118.2 Q 83.6 118.0, 83.3 117.6 Q 83.1 117.2, 83.1 116.6 Q 83.1 115.7, 83.7 115.2 Q 84.3 114.6, 85.4 114.6 Q 86.2 114.6, 87.2 115.0 L 86.9 115.8 Q 86.1 115.4, 85.5 115.4 Q 84.8 115.4, 84.4 115.7 Q 84.0 116.0, 84.0 116.5 Q 84.0 116.9, 84.2 117.1 Q 84.4 117.3, 84.7 117.4 Q 85.0 117.6, 85.5 117.7 Q 86.1 117.9, 86.5 118.1 Q 86.8 118.3, 87.1 118.7 Q 87.4 119.1, 87.4 119.8 Q 87.4 120.7, 86.7 121.3 Q 86.1 121.8, 85.0 121.8 Q 84.4 121.8, 83.9 121.6 Q 83.5 121.5, 82.9 121.3 L 83.2 120.5 " fill="#CCCC00"/>
<path class="atom-16" d="M 70.4 134.4 Q 70.4 132.7, 71.3 131.8 Q 72.1 130.8, 73.6 130.8 Q 75.2 130.8, 76.0 131.8 Q 76.8 132.7, 76.8 134.4 Q 76.8 136.1, 76.0 137.0 Q 75.2 138.0, 73.6 138.0 Q 72.1 138.0, 71.3 137.0 Q 70.4 136.1, 70.4 134.4 M 73.6 137.2 Q 74.7 137.2, 75.3 136.5 Q 75.8 135.8, 75.8 134.4 Q 75.8 133.0, 75.3 132.3 Q 74.7 131.6, 73.6 131.6 Q 72.6 131.6, 72.0 132.3 Q 71.4 133.0, 71.4 134.4 Q 71.4 135.8, 72.0 136.5 Q 72.6 137.2, 73.6 137.2 " fill="#FF0000"/>
<path class="atom-19" d="M 210.1 86.3 L 214.2 86.3 L 214.2 87.1 L 211.0 87.1 L 211.0 89.2 L 213.9 89.2 L 213.9 90.0 L 211.0 90.0 L 211.0 93.3 L 210.1 93.3 L 210.1 86.3 " fill="#33CCCC"/>
<path class="atom-20" d="M 93.6 96.5 Q 93.6 94.8, 94.4 93.9 Q 95.3 93.0, 96.8 93.0 Q 98.4 93.0, 99.2 93.9 Q 100.0 94.8, 100.0 96.5 Q 100.0 98.2, 99.2 99.1 Q 98.3 100.1, 96.8 100.1 Q 95.3 100.1, 94.4 99.1 Q 93.6 98.2, 93.6 96.5 M 96.8 99.3 Q 97.9 99.3, 98.4 98.6 Q 99.0 97.9, 99.0 96.5 Q 99.0 95.1, 98.4 94.4 Q 97.9 93.7, 96.8 93.7 Q 95.8 93.7, 95.2 94.4 Q 94.6 95.1, 94.6 96.5 Q 94.6 97.9, 95.2 98.6 Q 95.8 99.3, 96.8 99.3 " fill="#FF0000"/>
<path class="atom-21" d="M 62.5 180.2 Q 62.5 178.5, 63.3 177.6 Q 64.1 176.7, 65.7 176.7 Q 67.2 176.7, 68.0 177.6 Q 68.9 178.5, 68.9 180.2 Q 68.9 181.9, 68.0 182.9 Q 67.2 183.8, 65.7 183.8 Q 64.1 183.8, 63.3 182.9 Q 62.5 181.9, 62.5 180.2 M 65.7 183.0 Q 66.7 183.0, 67.3 182.3 Q 67.9 181.6, 67.9 180.2 Q 67.9 178.8, 67.3 178.2 Q 66.7 177.5, 65.7 177.5 Q 64.6 177.5, 64.0 178.1 Q 63.4 178.8, 63.4 180.2 Q 63.4 181.6, 64.0 182.3 Q 64.6 183.0, 65.7 183.0 " fill="#FF0000"/>
<path class="atom-22" d="M 152.4 186.4 L 156.5 186.4 L 156.5 187.2 L 153.3 187.2 L 153.3 189.3 L 156.2 189.3 L 156.2 190.1 L 153.3 190.1 L 153.3 193.4 L 152.4 193.4 L 152.4 186.4 " fill="#33CCCC"/>
<path class="atom-23" d="M 108.1 190.1 L 112.3 190.1 L 112.3 190.9 L 109.1 190.9 L 109.1 193.0 L 111.9 193.0 L 111.9 193.9 L 109.1 193.9 L 109.1 197.1 L 108.1 197.1 L 108.1 190.1 " fill="#33CCCC"/>
<path class="atom-24" d="M 71.4 148.2 L 72.4 148.2 L 72.4 151.2 L 75.9 151.2 L 75.9 148.2 L 76.9 148.2 L 76.9 155.2 L 75.9 155.2 L 75.9 152.0 L 72.4 152.0 L 72.4 155.2 L 71.4 155.2 L 71.4 148.2 " fill="#000000"/>
<path class="atom-25" d="M 92.2 181.9 L 93.1 181.9 L 93.1 184.9 L 96.7 184.9 L 96.7 181.9 L 97.6 181.9 L 97.6 188.9 L 96.7 188.9 L 96.7 185.6 L 93.1 185.6 L 93.1 188.9 L 92.2 188.9 L 92.2 181.9 " fill="#000000"/>
<path class="atom-26" d="M 124.3 88.8 L 125.2 88.8 L 125.2 91.8 L 128.8 91.8 L 128.8 88.8 L 129.7 88.8 L 129.7 95.8 L 128.8 95.8 L 128.8 92.6 L 125.2 92.6 L 125.2 95.8 L 124.3 95.8 L 124.3 88.8 " fill="#000000"/>
<path class="atom-27" d="M 159.2 115.0 L 160.2 115.0 L 160.2 117.9 L 163.7 117.9 L 163.7 115.0 L 164.7 115.0 L 164.7 121.9 L 163.7 121.9 L 163.7 118.7 L 160.2 118.7 L 160.2 121.9 L 159.2 121.9 L 159.2 115.0 " fill="#000000"/>
<path class="atom-28" d="M 176.1 114.5 L 177.0 114.5 L 177.0 117.4 L 180.6 117.4 L 180.6 114.5 L 181.5 114.5 L 181.5 121.4 L 180.6 121.4 L 180.6 118.2 L 177.0 118.2 L 177.0 121.4 L 176.1 121.4 L 176.1 114.5 " fill="#000000"/>
<path class="atom-29" d="M 252.7 109.7 L 253.7 109.7 L 253.7 112.6 L 257.2 112.6 L 257.2 109.7 L 258.2 109.7 L 258.2 116.6 L 257.2 116.6 L 257.2 113.4 L 253.7 113.4 L 253.7 116.6 L 252.7 116.6 L 252.7 109.7 " fill="#000000"/>
<path class="atom-30" d="M 212.3 184.6 L 213.3 184.6 L 213.3 187.6 L 216.8 187.6 L 216.8 184.6 L 217.8 184.6 L 217.8 191.6 L 216.8 191.6 L 216.8 188.4 L 213.3 188.4 L 213.3 191.6 L 212.3 191.6 L 212.3 184.6 " fill="#000000"/>
<path class="atom-31" d="M 72.4 81.3 L 73.4 81.3 L 73.4 84.3 L 76.9 84.3 L 76.9 81.3 L 77.9 81.3 L 77.9 88.3 L 76.9 88.3 L 76.9 85.1 L 73.4 85.1 L 73.4 88.3 L 72.4 88.3 L 72.4 81.3 " fill="#000000"/>
<path class="atom-32" d="M 49.1 124.6 L 50.1 124.6 L 50.1 127.6 L 53.6 127.6 L 53.6 124.6 L 54.6 124.6 L 54.6 131.6 L 53.6 131.6 L 53.6 128.4 L 50.1 128.4 L 50.1 131.6 L 49.1 131.6 L 49.1 124.6 " fill="#000000"/>
<path class="atom-33" d="M 39.1 91.3 L 40.1 91.3 L 40.1 94.3 L 43.6 94.3 L 43.6 91.3 L 44.6 91.3 L 44.6 98.3 L 43.6 98.3 L 43.6 95.0 L 40.1 95.0 L 40.1 98.3 L 39.1 98.3 L 39.1 91.3 " fill="#000000"/>
<path class="atom-34" d="M 127.9 211.7 L 128.8 211.7 L 128.8 214.7 L 132.4 214.7 L 132.4 211.7 L 133.3 211.7 L 133.3 218.7 L 132.4 218.7 L 132.4 215.5 L 128.8 215.5 L 128.8 218.7 L 127.9 218.7 L 127.9 211.7 " fill="#000000"/>
<path class="atom-35" d="M 63.7 201.3 L 64.6 201.3 L 64.6 204.3 L 68.2 204.3 L 68.2 201.3 L 69.1 201.3 L 69.1 208.3 L 68.2 208.3 L 68.2 205.0 L 64.6 205.0 L 64.6 208.3 L 63.7 208.3 L 63.7 201.3 " fill="#000000"/>
<path class="bond-0 atom-0 atom-1" d="M 514.9,130.4 L 508.4,123.6" style="fill:none;fill-rule:evenodd;stroke:#FF0000;stroke-width:2.0px;stroke-linecap:butt;stroke-linejoin:miter;stroke-opacity:1"/>
<path class="bond-0 atom-0 atom-1" d="M 508.4,123.6 L 501.9,116.8" style="fill:none;fill-rule:evenodd;stroke:#000000;stroke-width:2.0px;stroke-linecap:butt;stroke-linejoin:miter;stroke-opacity:1"/>
<path class="bond-1 atom-0 atom-26" d="M 522.9,133.6 L 531.1,131.5" style="fill:none;fill-rule:evenodd;stroke:#FF0000;stroke-width:2.0px;stroke-linecap:butt;stroke-linejoin:miter;stroke-opacity:1"/>
<path class="bond-1 atom-0 atom-26" d="M 531.1,131.5 L 539.3,129.5" style="fill:none;fill-rule:evenodd;stroke:#000000;stroke-width:2.0px;stroke-linecap:butt;stroke-linejoin:miter;stroke-opacity:1"/>
<path class="bond-2 atom-1 atom-2" d="M 501.9,116.8 L 488.9,95.9" style="fill:none;fill-rule:evenodd;stroke:#000000;stroke-width:2.0px;stroke-linecap:butt;stroke-linejoin:miter;stroke-opacity:1"/>
<path class="bond-3 atom-1 atom-5" d="M 501.9,116.8 L 486.0,135.6" style="fill:none;fill-rule:evenodd;stroke:#000000;stroke-width:2.0px;stroke-linecap:butt;stroke-linejoin:miter;stroke-opacity:1"/>
<path class="bond-4 atom-1 atom-27" d="M 507.4,113.5 L 506.4,112.2" style="fill:none;fill-rule:evenodd;stroke:#000000;stroke-width:1.0px;stroke-linecap:butt;stroke-linejoin:miter;stroke-opacity:1"/>
<path class="bond-4 atom-1 atom-27" d="M 513.0,110.2 L 511.0,107.7" style="fill:none;fill-rule:evenodd;stroke:#000000;stroke-width:1.0px;stroke-linecap:butt;stroke-linejoin:miter;stroke-opacity:1"/>
<path class="bond-4 atom-1 atom-27" d="M 518.5,107.0 L 515.5,103.2" style="fill:none;fill-rule:evenodd;stroke:#000000;stroke-width:1.0px;stroke-linecap:butt;stroke-linejoin:miter;stroke-opacity:1"/>
<path class="bond-5 atom-2 atom-3" d="M 488.9,95.9 L 465.1,101.8" style="fill:none;fill-rule:evenodd;stroke:#000000;stroke-width:2.0px;stroke-linecap:butt;stroke-linejoin:miter;stroke-opacity:1"/>
<path class="bond-6 atom-2 atom-23" d="M 488.9,95.9 L 485.5,86.5" style="fill:none;fill-rule:evenodd;stroke:#000000;stroke-width:2.0px;stroke-linecap:butt;stroke-linejoin:miter;stroke-opacity:1"/>
<path class="bond-6 atom-2 atom-23" d="M 485.5,86.5 L 482.1,77.1" style="fill:none;fill-rule:evenodd;stroke:#33CCCC;stroke-width:2.0px;stroke-linecap:butt;stroke-linejoin:miter;stroke-opacity:1"/>
<path class="bond-7 atom-2 atom-24" d="M 488.9,95.9 L 498.6,91.2" style="fill:none;fill-rule:evenodd;stroke:#000000;stroke-width:2.0px;stroke-linecap:butt;stroke-linejoin:miter;stroke-opacity:1"/>
<path class="bond-7 atom-2 atom-24" d="M 498.6,91.2 L 508.2,86.6" style="fill:none;fill-rule:evenodd;stroke:#33CCCC;stroke-width:2.0px;stroke-linecap:butt;stroke-linejoin:miter;stroke-opacity:1"/>
<path class="bond-8 atom-3 atom-4" d="M 465.1,101.8 L 463.3,126.3" style="fill:none;fill-rule:evenodd;stroke:#000000;stroke-width:2.0px;stroke-linecap:butt;stroke-linejoin:miter;stroke-opacity:1"/>
<path class="bond-9 atom-3 atom-28" d="M 465.1,101.8 L 444.0,102.5" style="fill:none;fill-rule:evenodd;stroke:#000000;stroke-width:2.0px;stroke-linecap:butt;stroke-linejoin:miter;stroke-opacity:1"/>
<path class="bond-10 atom-3 atom-29" d="M 465.1,101.8 L 462.3,81.7" style="fill:none;fill-rule:evenodd;stroke:#000000;stroke-width:2.0px;stroke-linecap:butt;stroke-linejoin:miter;stroke-opacity:1"/>
<path class="bond-11 atom-4 atom-5" d="M 463.3,126.3 L 486.0,135.6" style="fill:none;fill-rule:evenodd;stroke:#000000;stroke-width:2.0px;stroke-linecap:butt;stroke-linejoin:miter;stroke-opacity:1"/>
<path class="bond-11 atom-4 atom-5" d="M 464.8,132.3 L 480.8,138.8" style="fill:none;fill-rule:evenodd;stroke:#000000;stroke-width:2.0px;stroke-linecap:butt;stroke-linejoin:miter;stroke-opacity:1"/>
<path class="bond-12 atom-4 atom-9" d="M 463.3,126.3 L 443.9,141.4" style="fill:none;fill-rule:evenodd;stroke:#000000;stroke-width:2.0px;stroke-linecap:butt;stroke-linejoin:miter;stroke-opacity:1"/>
<path class="bond-13 atom-5 atom-6" d="M 486.0,135.6 L 489.4,159.9" style="fill:none;fill-rule:evenodd;stroke:#000000;stroke-width:2.0px;stroke-linecap:butt;stroke-linejoin:miter;stroke-opacity:1"/>
<path class="bond-14 atom-6 atom-7" d="M 489.4,159.9 L 470.0,175.0" style="fill:none;fill-rule:evenodd;stroke:#000000;stroke-width:2.0px;stroke-linecap:butt;stroke-linejoin:miter;stroke-opacity:1"/>
<path class="bond-14 atom-6 atom-7" d="M 483.5,158.3 L 469.9,168.9" style="fill:none;fill-rule:evenodd;stroke:#000000;stroke-width:2.0px;stroke-linecap:butt;stroke-linejoin:miter;stroke-opacity:1"/>
<path class="bond-15 atom-6 atom-19" d="M 489.4,159.9 L 499.3,164.0" style="fill:none;fill-rule:evenodd;stroke:#000000;stroke-width:2.0px;stroke-linecap:butt;stroke-linejoin:miter;stroke-opacity:1"/>
<path class="bond-15 atom-6 atom-19" d="M 499.3,164.0 L 509.1,168.0" style="fill:none;fill-rule:evenodd;stroke:#CCCC00;stroke-width:2.0px;stroke-linecap:butt;stroke-linejoin:miter;stroke-opacity:1"/>
<path class="bond-16 atom-7 atom-8" d="M 470.0,175.0 L 447.2,165.8" style="fill:none;fill-rule:evenodd;stroke:#000000;stroke-width:2.0px;stroke-linecap:butt;stroke-linejoin:miter;stroke-opacity:1"/>
<path class="bond-17 atom-7 atom-30" d="M 470.0,175.0 L 472.7,195.1" style="fill:none;fill-rule:evenodd;stroke:#000000;stroke-width:2.0px;stroke-linecap:butt;stroke-linejoin:miter;stroke-opacity:1"/>
<path class="bond-18 atom-8 atom-9" d="M 447.2,165.8 L 443.9,141.4" style="fill:none;fill-rule:evenodd;stroke:#000000;stroke-width:2.0px;stroke-linecap:butt;stroke-linejoin:miter;stroke-opacity:1"/>
<path class="bond-18 atom-8 atom-9" d="M 451.6,161.4 L 449.2,144.4" style="fill:none;fill-rule:evenodd;stroke:#000000;stroke-width:2.0px;stroke-linecap:butt;stroke-linejoin:miter;stroke-opacity:1"/>
<path class="bond-19 atom-8 atom-31" d="M 447.2,165.8 L 439.3,173.6" style="fill:none;fill-rule:evenodd;stroke:#000000;stroke-width:2.0px;stroke-linecap:butt;stroke-linejoin:miter;stroke-opacity:1"/>
<path class="bond-20 atom-9 atom-10" d="M 443.9,141.4 L 434.5,137.6" style="fill:none;fill-rule:evenodd;stroke:#000000;stroke-width:2.0px;stroke-linecap:butt;stroke-linejoin:miter;stroke-opacity:1"/>
<path class="bond-20 atom-9 atom-10" d="M 434.5,137.6 L 425.1,133.7" style="fill:none;fill-rule:evenodd;stroke:#FF0000;stroke-width:2.0px;stroke-linecap:butt;stroke-linejoin:miter;stroke-opacity:1"/>
<path class="bond-21 atom-10 atom-11" d="M 417.1,135.2 L 409.4,141.2" style="fill:none;fill-rule:evenodd;stroke:#FF0000;stroke-width:2.0px;stroke-linecap:butt;stroke-linejoin:miter;stroke-opacity:1"/>
<path class="bond-21 atom-10 atom-11" d="M 409.4,141.2 L 401.7,147.2" style="fill:none;fill-rule:evenodd;stroke:#000000;stroke-width:2.0px;stroke-linecap:butt;stroke-linejoin:miter;stroke-opacity:1"/>
<path class="bond-22 atom-11 atom-12" d="M 401.7,147.2 L 378.9,137.9" style="fill:none;fill-rule:evenodd;stroke:#000000;stroke-width:2.0px;stroke-linecap:butt;stroke-linejoin:miter;stroke-opacity:1"/>
<path class="bond-22 atom-11 atom-12" d="M 396.4,150.4 L 380.4,143.9" style="fill:none;fill-rule:evenodd;stroke:#000000;stroke-width:2.0px;stroke-linecap:butt;stroke-linejoin:miter;stroke-opacity:1"/>
<path class="bond-23 atom-11 atom-18" d="M 401.7,147.2 L 405.0,171.6" style="fill:none;fill-rule:evenodd;stroke:#000000;stroke-width:2.0px;stroke-linecap:butt;stroke-linejoin:miter;stroke-opacity:1"/>
<path class="bond-24 atom-12 atom-13" d="M 378.9,137.9 L 359.5,153.0" style="fill:none;fill-rule:evenodd;stroke:#000000;stroke-width:2.0px;stroke-linecap:butt;stroke-linejoin:miter;stroke-opacity:1"/>
<path class="bond-25 atom-12 atom-32" d="M 378.9,137.9 L 376.1,117.8" style="fill:none;fill-rule:evenodd;stroke:#000000;stroke-width:2.0px;stroke-linecap:butt;stroke-linejoin:miter;stroke-opacity:1"/>
<path class="bond-26 atom-13 atom-14" d="M 359.5,153.0 L 349.5,148.9" style="fill:none;fill-rule:evenodd;stroke:#000000;stroke-width:2.0px;stroke-linecap:butt;stroke-linejoin:miter;stroke-opacity:1"/>
<path class="bond-26 atom-13 atom-14" d="M 349.5,148.9 L 339.6,144.9" style="fill:none;fill-rule:evenodd;stroke:#33CCCC;stroke-width:2.0px;stroke-linecap:butt;stroke-linejoin:miter;stroke-opacity:1"/>
<path class="bond-27 atom-13 atom-15" d="M 359.5,153.0 L 362.8,177.4" style="fill:none;fill-rule:evenodd;stroke:#000000;stroke-width:2.0px;stroke-linecap:butt;stroke-linejoin:miter;stroke-opacity:1"/>
<path class="bond-27 atom-13 atom-15" d="M 364.8,156.0 L 367.2,173.0" style="fill:none;fill-rule:evenodd;stroke:#000000;stroke-width:2.0px;stroke-linecap:butt;stroke-linejoin:miter;stroke-opacity:1"/>
<path class="bond-28 atom-15 atom-16" d="M 362.8,177.4 L 385.6,186.6" style="fill:none;fill-rule:evenodd;stroke:#000000;stroke-width:2.0px;stroke-linecap:butt;stroke-linejoin:miter;stroke-opacity:1"/>
<path class="bond-29 atom-15 atom-33" d="M 362.8,177.4 L 346.9,189.7" style="fill:none;fill-rule:evenodd;stroke:#000000;stroke-width:2.0px;stroke-linecap:butt;stroke-linejoin:miter;stroke-opacity:1"/>
<path class="bond-30 atom-16 atom-17" d="M 385.6,186.6 L 387.0,196.7" style="fill:none;fill-rule:evenodd;stroke:#000000;stroke-width:2.0px;stroke-linecap:butt;stroke-linejoin:miter;stroke-opacity:1"/>
<path class="bond-30 atom-16 atom-17" d="M 387.0,196.7 L 388.3,206.7" style="fill:none;fill-rule:evenodd;stroke:#33CCCC;stroke-width:2.0px;stroke-linecap:butt;stroke-linejoin:miter;stroke-opacity:1"/>
<path class="bond-31 atom-16 atom-18" d="M 385.6,186.6 L 405.0,171.6" style="fill:none;fill-rule:evenodd;stroke:#000000;stroke-width:2.0px;stroke-linecap:butt;stroke-linejoin:miter;stroke-opacity:1"/>
<path class="bond-31 atom-16 atom-18" d="M 385.5,180.5 L 399.1,169.9" style="fill:none;fill-rule:evenodd;stroke:#000000;stroke-width:2.0px;stroke-linecap:butt;stroke-linejoin:miter;stroke-opacity:1"/>
<path class="bond-32 atom-18 atom-34" d="M 405.0,171.6 L 415.6,177.5" style="fill:none;fill-rule:evenodd;stroke:#000000;stroke-width:2.0px;stroke-linecap:butt;stroke-linejoin:miter;stroke-opacity:1"/>
<path class="bond-33 atom-19 atom-20" d="M 513.2,163.6 L 517.3,158.0" style="fill:none;fill-rule:evenodd;stroke:#CCCC00;stroke-width:2.0px;stroke-linecap:butt;stroke-linejoin:miter;stroke-opacity:1"/>
<path class="bond-33 atom-19 atom-20" d="M 517.3,158.0 L 521.5,152.4" style="fill:none;fill-rule:evenodd;stroke:#FF0000;stroke-width:2.0px;stroke-linecap:butt;stroke-linejoin:miter;stroke-opacity:1"/>
<path class="bond-33 atom-19 atom-20" d="M 517.2,166.5 L 521.3,160.9" style="fill:none;fill-rule:evenodd;stroke:#CCCC00;stroke-width:2.0px;stroke-linecap:butt;stroke-linejoin:miter;stroke-opacity:1"/>
<path class="bond-33 atom-19 atom-20" d="M 521.3,160.9 L 525.4,155.3" style="fill:none;fill-rule:evenodd;stroke:#FF0000;stroke-width:2.0px;stroke-linecap:butt;stroke-linejoin:miter;stroke-opacity:1"/>
<path class="bond-34 atom-19 atom-21" d="M 512.6,174.6 L 509.8,181.6" style="fill:none;fill-rule:evenodd;stroke:#CCCC00;stroke-width:2.0px;stroke-linecap:butt;stroke-linejoin:miter;stroke-opacity:1"/>
<path class="bond-34 atom-19 atom-21" d="M 509.8,181.6 L 506.9,188.6" style="fill:none;fill-rule:evenodd;stroke:#FF0000;stroke-width:2.0px;stroke-linecap:butt;stroke-linejoin:miter;stroke-opacity:1"/>
<path class="bond-34 atom-19 atom-21" d="M 508.1,172.8 L 505.2,179.8" style="fill:none;fill-rule:evenodd;stroke:#CCCC00;stroke-width:2.0px;stroke-linecap:butt;stroke-linejoin:miter;stroke-opacity:1"/>
<path class="bond-34 atom-19 atom-21" d="M 505.2,179.8 L 502.4,186.8" style="fill:none;fill-rule:evenodd;stroke:#FF0000;stroke-width:2.0px;stroke-linecap:butt;stroke-linejoin:miter;stroke-opacity:1"/>
<path class="bond-35 atom-19 atom-22" d="M 515.2,170.5 L 523.4,173.8" style="fill:none;fill-rule:evenodd;stroke:#CCCC00;stroke-width:2.0px;stroke-linecap:butt;stroke-linejoin:miter;stroke-opacity:1"/>
<path class="bond-35 atom-19 atom-22" d="M 523.4,173.8 L 531.5,177.1" style="fill:none;fill-rule:evenodd;stroke:#0000FF;stroke-width:2.0px;stroke-linecap:butt;stroke-linejoin:miter;stroke-opacity:1"/>
<path class="bond-36 atom-22 atom-25" d="M 535.5,182.8 L 536.9,192.8" style="fill:none;fill-rule:evenodd;stroke:#0000FF;stroke-width:2.0px;stroke-linecap:butt;stroke-linejoin:miter;stroke-opacity:1"/>
<path class="bond-36 atom-22 atom-25" d="M 536.9,192.8 L 538.3,202.9" style="fill:none;fill-rule:evenodd;stroke:#000000;stroke-width:2.0px;stroke-linecap:butt;stroke-linejoin:miter;stroke-opacity:1"/>
<path class="bond-37 atom-22 atom-35" d="M 538.4,175.8 L 544.6,171.0" style="fill:none;fill-rule:evenodd;stroke:#0000FF;stroke-width:2.0px;stroke-linecap:butt;stroke-linejoin:miter;stroke-opacity:1"/>
<path class="bond-37 atom-22 atom-35" d="M 544.6,171.0 L 550.8,166.2" style="fill:none;fill-rule:evenodd;stroke:#000000;stroke-width:2.0px;stroke-linecap:butt;stroke-linejoin:miter;stroke-opacity:1"/>
<path class="bond-38 atom-25 atom-36" d="M 538.3,202.9 L 559.1,200.0" style="fill:none;fill-rule:evenodd;stroke:#000000;stroke-width:2.0px;stroke-linecap:butt;stroke-linejoin:miter;stroke-opacity:1"/>
<path class="bond-39 atom-25 atom-37" d="M 538.3,202.9 L 517.5,205.7" style="fill:none;fill-rule:evenodd;stroke:#000000;stroke-width:2.0px;stroke-linecap:butt;stroke-linejoin:miter;stroke-opacity:1"/>
<path class="bond-40 atom-25 atom-38" d="M 538.3,202.9 L 541.1,222.9" style="fill:none;fill-rule:evenodd;stroke:#000000;stroke-width:2.0px;stroke-linecap:butt;stroke-linejoin:miter;stroke-opacity:1"/>
<path class="atom-0" d="M 515.7 134.6 Q 515.7 132.9, 516.6 131.9 Q 517.4 131.0, 518.9 131.0 Q 520.5 131.0, 521.3 131.9 Q 522.1 132.9, 522.1 134.6 Q 522.1 136.2, 521.3 137.2 Q 520.5 138.2, 518.9 138.2 Q 517.4 138.2, 516.6 137.2 Q 515.7 136.3, 515.7 134.6 M 518.9 137.4 Q 520.0 137.4, 520.6 136.7 Q 521.2 136.0, 521.2 134.6 Q 521.2 133.2, 520.6 132.5 Q 520.0 131.8, 518.9 131.8 Q 517.9 131.8, 517.3 132.5 Q 516.7 133.2, 516.7 134.6 Q 516.7 136.0, 517.3 136.7 Q 517.9 137.4, 518.9 137.4 " fill="#FF0000"/>
<path class="atom-10" d="M 417.9 132.1 Q 417.9 130.5, 418.7 129.5 Q 419.5 128.6, 421.1 128.6 Q 422.6 128.6, 423.4 129.5 Q 424.3 130.5, 424.3 132.1 Q 424.3 133.8, 423.4 134.8 Q 422.6 135.7, 421.1 135.7 Q 419.5 135.7, 418.7 134.8 Q 417.9 133.8, 417.9 132.1 M 421.1 135.0 Q 422.1 135.0, 422.7 134.2 Q 423.3 133.5, 423.3 132.1 Q 423.3 130.8, 422.7 130.1 Q 422.1 129.4, 421.1 129.4 Q 420.0 129.4, 419.4 130.1 Q 418.9 130.8, 418.9 132.1 Q 418.9 133.5, 419.4 134.2 Q 420.0 135.0, 421.1 135.0 " fill="#FF0000"/>
<path class="atom-14" d="M 334.6 140.2 L 338.8 140.2 L 338.8 141.0 L 335.5 141.0 L 335.5 143.2 L 338.4 143.2 L 338.4 144.0 L 335.5 144.0 L 335.5 147.2 L 334.6 147.2 L 334.6 140.2 " fill="#33CCCC"/>
<path class="atom-17" d="M 386.9 207.5 L 391.0 207.5 L 391.0 208.3 L 387.8 208.3 L 387.8 210.4 L 390.7 210.4 L 390.7 211.2 L 387.8 211.2 L 387.8 214.5 L 386.9 214.5 L 386.9 207.5 " fill="#33CCCC"/>
<path class="atom-19" d="M 510.2 171.6 Q 510.3 171.6, 510.6 171.8 Q 510.9 171.9, 511.3 172.0 Q 511.7 172.1, 512.0 172.1 Q 512.7 172.1, 513.0 171.8 Q 513.4 171.5, 513.4 170.9 Q 513.4 170.5, 513.2 170.3 Q 513.0 170.0, 512.8 169.9 Q 512.5 169.8, 512.0 169.6 Q 511.3 169.4, 511.0 169.3 Q 510.6 169.1, 510.3 168.7 Q 510.1 168.3, 510.1 167.7 Q 510.1 166.8, 510.7 166.3 Q 511.3 165.8, 512.5 165.8 Q 513.3 165.8, 514.2 166.1 L 514.0 166.9 Q 513.1 166.6, 512.5 166.6 Q 511.8 166.6, 511.4 166.8 Q 511.1 167.1, 511.1 167.6 Q 511.1 168.0, 511.3 168.2 Q 511.5 168.4, 511.7 168.5 Q 512.0 168.7, 512.5 168.8 Q 513.1 169.0, 513.5 169.2 Q 513.9 169.4, 514.1 169.8 Q 514.4 170.2, 514.4 170.9 Q 514.4 171.9, 513.8 172.4 Q 513.1 172.9, 512.0 172.9 Q 511.4 172.9, 511.0 172.7 Q 510.5 172.6, 509.9 172.4 L 510.2 171.6 " fill="#CCCC00"/>
<path class="atom-20" d="M 523.5 149.4 Q 523.5 147.7, 524.3 146.8 Q 525.1 145.9, 526.7 145.9 Q 528.2 145.9, 529.1 146.8 Q 529.9 147.7, 529.9 149.4 Q 529.9 151.1, 529.0 152.1 Q 528.2 153.0, 526.7 153.0 Q 525.2 153.0, 524.3 152.1 Q 523.5 151.1, 523.5 149.4 M 526.7 152.2 Q 527.7 152.2, 528.3 151.5 Q 528.9 150.8, 528.9 149.4 Q 528.9 148.0, 528.3 147.3 Q 527.7 146.6, 526.7 146.6 Q 525.6 146.6, 525.0 147.3 Q 524.5 148.0, 524.5 149.4 Q 524.5 150.8, 525.0 151.5 Q 525.6 152.2, 526.7 152.2 " fill="#FF0000"/>
<path class="atom-21" d="M 499.7 192.0 Q 499.7 190.3, 500.5 189.4 Q 501.4 188.5, 502.9 188.5 Q 504.4 188.5, 505.3 189.4 Q 506.1 190.3, 506.1 192.0 Q 506.1 193.7, 505.3 194.7 Q 504.4 195.6, 502.9 195.6 Q 501.4 195.6, 500.5 194.7 Q 499.7 193.7, 499.7 192.0 M 502.9 194.8 Q 504.0 194.8, 504.5 194.1 Q 505.1 193.4, 505.1 192.0 Q 505.1 190.7, 504.5 190.0 Q 504.0 189.3, 502.9 189.3 Q 501.8 189.3, 501.3 190.0 Q 500.7 190.6, 500.7 192.0 Q 500.7 193.4, 501.3 194.1 Q 501.8 194.8, 502.9 194.8 " fill="#FF0000"/>
<path class="atom-22" d="M 533.4 175.0 L 535.7 178.7 Q 535.9 179.1, 536.3 179.7 Q 536.6 180.4, 536.7 180.4 L 536.7 175.0 L 537.6 175.0 L 537.6 182.0 L 536.6 182.0 L 534.2 178.0 Q 533.9 177.5, 533.6 176.9 Q 533.3 176.4, 533.2 176.2 L 533.2 182.0 L 532.3 182.0 L 532.3 175.0 L 533.4 175.0 " fill="#0000FF"/>
<path class="atom-23" d="M 478.5 69.3 L 482.7 69.3 L 482.7 70.1 L 479.5 70.1 L 479.5 72.2 L 482.3 72.2 L 482.3 73.0 L 479.5 73.0 L 479.5 76.3 L 478.5 76.3 L 478.5 69.3 " fill="#33CCCC"/>
<path class="atom-24" d="M 509.0 81.7 L 513.1 81.7 L 513.1 82.5 L 509.9 82.5 L 509.9 84.6 L 512.8 84.6 L 512.8 85.4 L 509.9 85.4 L 509.9 88.7 L 509.0 88.7 L 509.0 81.7 " fill="#33CCCC"/>
<path class="atom-26" d="M 540.1 125.2 L 541.0 125.2 L 541.0 128.1 L 544.6 128.1 L 544.6 125.2 L 545.5 125.2 L 545.5 132.1 L 544.6 132.1 L 544.6 128.9 L 541.0 128.9 L 541.0 132.1 L 540.1 132.1 L 540.1 125.2 " fill="#000000"/>
<path class="atom-27" d="M 518.6 98.2 L 519.6 98.2 L 519.6 101.2 L 523.1 101.2 L 523.1 98.2 L 524.1 98.2 L 524.1 105.2 L 523.1 105.2 L 523.1 102.0 L 519.6 102.0 L 519.6 105.2 L 518.6 105.2 L 518.6 98.2 " fill="#000000"/>
<path class="atom-28" d="M 437.8 99.1 L 438.7 99.1 L 438.7 102.0 L 442.3 102.0 L 442.3 99.1 L 443.2 99.1 L 443.2 106.1 L 442.3 106.1 L 442.3 102.8 L 438.7 102.8 L 438.7 106.1 L 437.8 106.1 L 437.8 99.1 " fill="#000000"/>
<path class="atom-29" d="M 459.0 73.9 L 459.9 73.9 L 459.9 76.9 L 463.5 76.9 L 463.5 73.9 L 464.4 73.9 L 464.4 80.9 L 463.5 80.9 L 463.5 77.7 L 459.9 77.7 L 459.9 80.9 L 459.0 80.9 L 459.0 73.9 " fill="#000000"/>
<path class="atom-30" d="M 470.6 195.9 L 471.5 195.9 L 471.5 198.9 L 475.1 198.9 L 475.1 195.9 L 476.1 195.9 L 476.1 202.9 L 475.1 202.9 L 475.1 199.7 L 471.5 199.7 L 471.5 202.9 L 470.6 202.9 L 470.6 195.9 " fill="#000000"/>
<path class="atom-31" d="M 433.0 173.6 L 434.0 173.6 L 434.0 176.6 L 437.5 176.6 L 437.5 173.6 L 438.5 173.6 L 438.5 180.6 L 437.5 180.6 L 437.5 177.4 L 434.0 177.4 L 434.0 180.6 L 433.0 180.6 L 433.0 173.6 " fill="#000000"/>
<path class="atom-32" d="M 372.8 110.1 L 373.7 110.1 L 373.7 113.0 L 377.3 113.0 L 377.3 110.1 L 378.3 110.1 L 378.3 117.0 L 377.3 117.0 L 377.3 113.8 L 373.7 113.8 L 373.7 117.0 L 372.8 117.0 L 372.8 110.1 " fill="#000000"/>
<path class="atom-33" d="M 340.7 189.0 L 341.6 189.0 L 341.6 191.9 L 345.2 191.9 L 345.2 189.0 L 346.1 189.0 L 346.1 195.9 L 345.2 195.9 L 345.2 192.7 L 341.6 192.7 L 341.6 195.9 L 340.7 195.9 L 340.7 189.0 " fill="#000000"/>
<path class="atom-34" d="M 416.4 175.9 L 417.3 175.9 L 417.3 178.9 L 420.9 178.9 L 420.9 175.9 L 421.8 175.9 L 421.8 182.9 L 420.9 182.9 L 420.9 179.7 L 417.3 179.7 L 417.3 182.9 L 416.4 182.9 L 416.4 175.9 " fill="#000000"/>
<path class="atom-35" d="M 551.6 159.9 L 552.6 159.9 L 552.6 162.9 L 556.1 162.9 L 556.1 159.9 L 557.1 159.9 L 557.1 166.9 L 556.1 166.9 L 556.1 163.7 L 552.6 163.7 L 552.6 166.9 L 551.6 166.9 L 551.6 159.9 " fill="#000000"/>
<path class="atom-36" d="M 559.9 196.0 L 560.9 196.0 L 560.9 199.0 L 564.4 199.0 L 564.4 196.0 L 565.4 196.0 L 565.4 203.0 L 564.4 203.0 L 564.4 199.8 L 560.9 199.8 L 560.9 203.0 L 559.9 203.0 L 559.9 196.0 " fill="#000000"/>
<path class="atom-37" d="M 511.2 202.7 L 512.2 202.7 L 512.2 205.7 L 515.7 205.7 L 515.7 202.7 L 516.7 202.7 L 516.7 209.7 L 515.7 209.7 L 515.7 206.5 L 512.2 206.5 L 512.2 209.7 L 511.2 209.7 L 511.2 202.7 " fill="#000000"/>
<path class="atom-38" d="M 538.9 223.7 L 539.9 223.7 L 539.9 226.7 L 543.4 226.7 L 543.4 223.7 L 544.4 223.7 L 544.4 230.7 L 543.4 230.7 L 543.4 227.5 L 539.9 227.5 L 539.9 230.7 L 538.9 230.7 L 538.9 223.7 " fill="#000000"/>
<text x="300" y="20" font-size="20" font-family="sans-serif" font-weight="normal" letter-spacing="0" text-anchor="middle" fill="black">hif2a: 54 -&gt; 251</text><text x="300" y="35" font-size="15" font-family="sans-serif" font-weight="normal" letter-spacing="0" text-anchor="middle" fill="black"></text><text x="150" y="285" font-size="15" font-family="sans-serif" font-weight="normal" letter-spacing="0" text-anchor="middle" fill="black">54</text><text x="450" y="285" font-size="15" font-family="sans-serif" font-weight="normal" letter-spacing="0" text-anchor="middle" fill="black">251</text></svg>
