<?xml version='1.0' encoding='ASCII' standalone='yes'?>
<svg xmlns="http://www.w3.org/2000/svg" xmlns:rdkit="http://www.rdkit.org/xml" xmlns:xlink="http://www.w3.org/1999/xlink" version="1.1" baseProfile="full" xml:space="preserve" width="600px" height="300px" viewBox="0 0 600 300">
<!-- END OF HEADER -->
<rect style="opacity:1.0;fill:#FFFFFF;stroke:none" width="600.0" height="300.0" x="0.0" y="0.0"> </rect>
<path class="bond-0 atom-0 atom-1" d="M 230.4,145.8 L 225.3,137.0" style="fill:none;fill-rule:evenodd;stroke:#FF0000;stroke-width:2.0px;stroke-linecap:butt;stroke-linejoin:miter;stroke-opacity:1"/>
<path class="bond-0 atom-0 atom-1" d="M 225.3,137.0 L 220.2,128.2" style="fill:none;fill-rule:evenodd;stroke:#000000;stroke-width:2.0px;stroke-linecap:butt;stroke-linejoin:miter;stroke-opacity:1"/>
<path class="bond-1 atom-0 atom-28" d="M 237.2,150.3 L 246.1,150.3" style="fill:none;fill-rule:evenodd;stroke:#FF0000;stroke-width:2.0px;stroke-linecap:butt;stroke-linejoin:miter;stroke-opacity:1"/>
<path class="bond-1 atom-0 atom-28" d="M 246.1,150.3 L 255.0,150.2" style="fill:none;fill-rule:evenodd;stroke:#000000;stroke-width:2.0px;stroke-linecap:butt;stroke-linejoin:miter;stroke-opacity:1"/>
<path class="bond-2 atom-1 atom-2" d="M 220.2,128.2 L 212.1,103.9" style="fill:none;fill-rule:evenodd;stroke:#000000;stroke-width:2.0px;stroke-linecap:butt;stroke-linejoin:miter;stroke-opacity:1"/>
<path class="bond-3 atom-1 atom-5" d="M 220.2,128.2 L 199.5,143.4" style="fill:none;fill-rule:evenodd;stroke:#000000;stroke-width:2.0px;stroke-linecap:butt;stroke-linejoin:miter;stroke-opacity:1"/>
<path class="bond-4 atom-1 atom-29" d="M 225.1,126.7 L 224.6,125.5" style="fill:none;fill-rule:evenodd;stroke:#000000;stroke-width:1.0px;stroke-linecap:butt;stroke-linejoin:miter;stroke-opacity:1"/>
<path class="bond-4 atom-1 atom-29" d="M 230.1,125.1 L 229.1,122.8" style="fill:none;fill-rule:evenodd;stroke:#000000;stroke-width:1.0px;stroke-linecap:butt;stroke-linejoin:miter;stroke-opacity:1"/>
<path class="bond-4 atom-1 atom-29" d="M 235.1,123.6 L 233.5,120.1" style="fill:none;fill-rule:evenodd;stroke:#000000;stroke-width:1.0px;stroke-linecap:butt;stroke-linejoin:miter;stroke-opacity:1"/>
<path class="bond-4 atom-1 atom-29" d="M 240.0,122.0 L 238.0,117.5" style="fill:none;fill-rule:evenodd;stroke:#000000;stroke-width:1.0px;stroke-linecap:butt;stroke-linejoin:miter;stroke-opacity:1"/>
<path class="bond-5 atom-2 atom-3" d="M 212.1,103.9 L 186.5,104.1" style="fill:none;fill-rule:evenodd;stroke:#000000;stroke-width:2.0px;stroke-linecap:butt;stroke-linejoin:miter;stroke-opacity:1"/>
<path class="bond-6 atom-2 atom-22" d="M 212.1,103.9 L 211.0,93.4" style="fill:none;fill-rule:evenodd;stroke:#000000;stroke-width:2.0px;stroke-linecap:butt;stroke-linejoin:miter;stroke-opacity:1"/>
<path class="bond-6 atom-2 atom-22" d="M 211.0,93.4 L 209.8,83.0" style="fill:none;fill-rule:evenodd;stroke:#33CCCC;stroke-width:2.0px;stroke-linecap:butt;stroke-linejoin:miter;stroke-opacity:1"/>
<path class="bond-7 atom-2 atom-23" d="M 212.1,103.9 L 223.1,101.5" style="fill:none;fill-rule:evenodd;stroke:#000000;stroke-width:2.0px;stroke-linecap:butt;stroke-linejoin:miter;stroke-opacity:1"/>
<path class="bond-7 atom-2 atom-23" d="M 223.1,101.5 L 234.2,99.1" style="fill:none;fill-rule:evenodd;stroke:#33CCCC;stroke-width:2.0px;stroke-linecap:butt;stroke-linejoin:miter;stroke-opacity:1"/>
<path class="bond-8 atom-3 atom-4" d="M 186.5,104.1 L 178.8,128.5" style="fill:none;fill-rule:evenodd;stroke:#000000;stroke-width:2.0px;stroke-linecap:butt;stroke-linejoin:miter;stroke-opacity:1"/>
<path class="bond-9 atom-3 atom-30" d="M 186.5,104.1 L 165.1,99.6" style="fill:none;fill-rule:evenodd;stroke:#000000;stroke-width:2.0px;stroke-linecap:butt;stroke-linejoin:miter;stroke-opacity:1"/>
<path class="bond-10 atom-3 atom-31" d="M 186.5,104.1 L 188.6,83.1" style="fill:none;fill-rule:evenodd;stroke:#000000;stroke-width:2.0px;stroke-linecap:butt;stroke-linejoin:miter;stroke-opacity:1"/>
<path class="bond-11 atom-4 atom-5" d="M 178.8,128.5 L 199.5,143.4" style="fill:none;fill-rule:evenodd;stroke:#000000;stroke-width:2.0px;stroke-linecap:butt;stroke-linejoin:miter;stroke-opacity:1"/>
<path class="bond-11 atom-4 atom-5" d="M 178.9,134.8 L 193.4,145.3" style="fill:none;fill-rule:evenodd;stroke:#000000;stroke-width:2.0px;stroke-linecap:butt;stroke-linejoin:miter;stroke-opacity:1"/>
<path class="bond-12 atom-4 atom-9" d="M 178.8,128.5 L 155.4,139.0" style="fill:none;fill-rule:evenodd;stroke:#000000;stroke-width:2.0px;stroke-linecap:butt;stroke-linejoin:miter;stroke-opacity:1"/>
<path class="bond-13 atom-5 atom-6" d="M 199.5,143.4 L 197.0,168.9" style="fill:none;fill-rule:evenodd;stroke:#000000;stroke-width:2.0px;stroke-linecap:butt;stroke-linejoin:miter;stroke-opacity:1"/>
<path class="bond-14 atom-6 atom-7" d="M 197.0,168.9 L 173.7,179.4" style="fill:none;fill-rule:evenodd;stroke:#000000;stroke-width:2.0px;stroke-linecap:butt;stroke-linejoin:miter;stroke-opacity:1"/>
<path class="bond-14 atom-6 atom-7" d="M 191.4,165.8 L 175.1,173.1" style="fill:none;fill-rule:evenodd;stroke:#000000;stroke-width:2.0px;stroke-linecap:butt;stroke-linejoin:miter;stroke-opacity:1"/>
<path class="bond-15 atom-6 atom-18" d="M 197.0,168.9 L 205.8,175.2" style="fill:none;fill-rule:evenodd;stroke:#000000;stroke-width:2.0px;stroke-linecap:butt;stroke-linejoin:miter;stroke-opacity:1"/>
<path class="bond-15 atom-6 atom-18" d="M 205.8,175.2 L 214.6,181.5" style="fill:none;fill-rule:evenodd;stroke:#CCCC00;stroke-width:2.0px;stroke-linecap:butt;stroke-linejoin:miter;stroke-opacity:1"/>
<path class="bond-16 atom-7 atom-8" d="M 173.7,179.4 L 152.9,164.4" style="fill:none;fill-rule:evenodd;stroke:#000000;stroke-width:2.0px;stroke-linecap:butt;stroke-linejoin:miter;stroke-opacity:1"/>
<path class="bond-17 atom-7 atom-32" d="M 173.7,179.4 L 171.6,200.4" style="fill:none;fill-rule:evenodd;stroke:#000000;stroke-width:2.0px;stroke-linecap:butt;stroke-linejoin:miter;stroke-opacity:1"/>
<path class="bond-18 atom-8 atom-9" d="M 152.9,164.4 L 155.4,139.0" style="fill:none;fill-rule:evenodd;stroke:#000000;stroke-width:2.0px;stroke-linecap:butt;stroke-linejoin:miter;stroke-opacity:1"/>
<path class="bond-18 atom-8 atom-9" d="M 158.4,161.1 L 160.1,143.3" style="fill:none;fill-rule:evenodd;stroke:#000000;stroke-width:2.0px;stroke-linecap:butt;stroke-linejoin:miter;stroke-opacity:1"/>
<path class="bond-19 atom-8 atom-33" d="M 152.9,164.4 L 142.2,170.9" style="fill:none;fill-rule:evenodd;stroke:#000000;stroke-width:2.0px;stroke-linecap:butt;stroke-linejoin:miter;stroke-opacity:1"/>
<path class="bond-20 atom-9 atom-10" d="M 155.4,139.0 L 147.1,133.0" style="fill:none;fill-rule:evenodd;stroke:#000000;stroke-width:2.0px;stroke-linecap:butt;stroke-linejoin:miter;stroke-opacity:1"/>
<path class="bond-20 atom-9 atom-10" d="M 147.1,133.0 L 138.8,127.0" style="fill:none;fill-rule:evenodd;stroke:#FF0000;stroke-width:2.0px;stroke-linecap:butt;stroke-linejoin:miter;stroke-opacity:1"/>
<path class="bond-21 atom-10 atom-11" d="M 130.5,125.9 L 120.9,130.2" style="fill:none;fill-rule:evenodd;stroke:#FF0000;stroke-width:2.0px;stroke-linecap:butt;stroke-linejoin:miter;stroke-opacity:1"/>
<path class="bond-21 atom-10 atom-11" d="M 120.9,130.2 L 111.3,134.6" style="fill:none;fill-rule:evenodd;stroke:#000000;stroke-width:2.0px;stroke-linecap:butt;stroke-linejoin:miter;stroke-opacity:1"/>
<path class="bond-22 atom-11 atom-12" d="M 111.3,134.6 L 90.5,119.6" style="fill:none;fill-rule:evenodd;stroke:#000000;stroke-width:2.0px;stroke-linecap:butt;stroke-linejoin:miter;stroke-opacity:1"/>
<path class="bond-22 atom-11 atom-12" d="M 105.2,136.5 L 90.7,126.0" style="fill:none;fill-rule:evenodd;stroke:#000000;stroke-width:2.0px;stroke-linecap:butt;stroke-linejoin:miter;stroke-opacity:1"/>
<path class="bond-23 atom-11 atom-17" d="M 111.3,134.6 L 108.8,160.0" style="fill:none;fill-rule:evenodd;stroke:#000000;stroke-width:2.0px;stroke-linecap:butt;stroke-linejoin:miter;stroke-opacity:1"/>
<path class="bond-24 atom-12 atom-13" d="M 90.5,119.6 L 80.7,124.1" style="fill:none;fill-rule:evenodd;stroke:#000000;stroke-width:2.0px;stroke-linecap:butt;stroke-linejoin:miter;stroke-opacity:1"/>
<path class="bond-24 atom-12 atom-13" d="M 80.7,124.1 L 70.8,128.5" style="fill:none;fill-rule:evenodd;stroke:#0000FF;stroke-width:2.0px;stroke-linecap:butt;stroke-linejoin:miter;stroke-opacity:1"/>
<path class="bond-25 atom-12 atom-34" d="M 90.5,119.6 L 92.6,98.6" style="fill:none;fill-rule:evenodd;stroke:#000000;stroke-width:2.0px;stroke-linecap:butt;stroke-linejoin:miter;stroke-opacity:1"/>
<path class="bond-26 atom-13 atom-14" d="M 66.8,134.6 L 65.7,145.1" style="fill:none;fill-rule:evenodd;stroke:#0000FF;stroke-width:2.0px;stroke-linecap:butt;stroke-linejoin:miter;stroke-opacity:1"/>
<path class="bond-26 atom-13 atom-14" d="M 65.7,145.1 L 64.7,155.6" style="fill:none;fill-rule:evenodd;stroke:#000000;stroke-width:2.0px;stroke-linecap:butt;stroke-linejoin:miter;stroke-opacity:1"/>
<path class="bond-26 atom-13 atom-14" d="M 71.5,138.3 L 70.8,145.6" style="fill:none;fill-rule:evenodd;stroke:#0000FF;stroke-width:2.0px;stroke-linecap:butt;stroke-linejoin:miter;stroke-opacity:1"/>
<path class="bond-26 atom-13 atom-14" d="M 70.8,145.6 L 70.1,153.0" style="fill:none;fill-rule:evenodd;stroke:#000000;stroke-width:2.0px;stroke-linecap:butt;stroke-linejoin:miter;stroke-opacity:1"/>
<path class="bond-27 atom-14 atom-15" d="M 64.7,155.6 L 85.4,170.6" style="fill:none;fill-rule:evenodd;stroke:#000000;stroke-width:2.0px;stroke-linecap:butt;stroke-linejoin:miter;stroke-opacity:1"/>
<path class="bond-28 atom-14 atom-35" d="M 64.7,155.6 L 45.0,164.5" style="fill:none;fill-rule:evenodd;stroke:#000000;stroke-width:2.0px;stroke-linecap:butt;stroke-linejoin:miter;stroke-opacity:1"/>
<path class="bond-29 atom-15 atom-16" d="M 85.4,170.6 L 82.9,196.0" style="fill:none;fill-rule:evenodd;stroke:#000000;stroke-width:2.0px;stroke-linecap:butt;stroke-linejoin:miter;stroke-opacity:1"/>
<path class="bond-30 atom-15 atom-17" d="M 85.4,170.6 L 108.8,160.0" style="fill:none;fill-rule:evenodd;stroke:#000000;stroke-width:2.0px;stroke-linecap:butt;stroke-linejoin:miter;stroke-opacity:1"/>
<path class="bond-30 atom-15 atom-17" d="M 86.8,164.3 L 103.2,157.0" style="fill:none;fill-rule:evenodd;stroke:#000000;stroke-width:2.0px;stroke-linecap:butt;stroke-linejoin:miter;stroke-opacity:1"/>
<path class="bond-31 atom-16 atom-24" d="M 82.9,196.0 L 81.8,206.5" style="fill:none;fill-rule:evenodd;stroke:#000000;stroke-width:2.0px;stroke-linecap:butt;stroke-linejoin:miter;stroke-opacity:1"/>
<path class="bond-31 atom-16 atom-24" d="M 81.8,206.5 L 80.8,217.0" style="fill:none;fill-rule:evenodd;stroke:#0000FF;stroke-width:2.0px;stroke-linecap:butt;stroke-linejoin:miter;stroke-opacity:1"/>
<path class="bond-31 atom-16 atom-24" d="M 87.7,199.7 L 86.8,208.6" style="fill:none;fill-rule:evenodd;stroke:#000000;stroke-width:2.0px;stroke-linecap:butt;stroke-linejoin:miter;stroke-opacity:1"/>
<path class="bond-31 atom-16 atom-24" d="M 86.8,208.6 L 85.9,217.6" style="fill:none;fill-rule:evenodd;stroke:#0000FF;stroke-width:2.0px;stroke-linecap:butt;stroke-linejoin:miter;stroke-opacity:1"/>
<path class="bond-31 atom-16 atom-24" d="M 77.5,198.7 L 76.6,207.6" style="fill:none;fill-rule:evenodd;stroke:#000000;stroke-width:2.0px;stroke-linecap:butt;stroke-linejoin:miter;stroke-opacity:1"/>
<path class="bond-31 atom-16 atom-24" d="M 76.6,207.6 L 75.7,216.5" style="fill:none;fill-rule:evenodd;stroke:#0000FF;stroke-width:2.0px;stroke-linecap:butt;stroke-linejoin:miter;stroke-opacity:1"/>
<path class="bond-32 atom-17 atom-36" d="M 108.8,160.0 L 117.4,168.0" style="fill:none;fill-rule:evenodd;stroke:#000000;stroke-width:2.0px;stroke-linecap:butt;stroke-linejoin:miter;stroke-opacity:1"/>
<path class="bond-33 atom-18 atom-19" d="M 219.3,179.2 L 225.4,174.0" style="fill:none;fill-rule:evenodd;stroke:#CCCC00;stroke-width:2.0px;stroke-linecap:butt;stroke-linejoin:miter;stroke-opacity:1"/>
<path class="bond-33 atom-18 atom-19" d="M 225.4,174.0 L 231.5,168.8" style="fill:none;fill-rule:evenodd;stroke:#FF0000;stroke-width:2.0px;stroke-linecap:butt;stroke-linejoin:miter;stroke-opacity:1"/>
<path class="bond-33 atom-18 atom-19" d="M 222.6,183.1 L 228.7,177.9" style="fill:none;fill-rule:evenodd;stroke:#CCCC00;stroke-width:2.0px;stroke-linecap:butt;stroke-linejoin:miter;stroke-opacity:1"/>
<path class="bond-33 atom-18 atom-19" d="M 228.7,177.9 L 234.8,172.7" style="fill:none;fill-rule:evenodd;stroke:#FF0000;stroke-width:2.0px;stroke-linecap:butt;stroke-linejoin:miter;stroke-opacity:1"/>
<path class="bond-34 atom-18 atom-20" d="M 216.7,189.7 L 212.4,195.6" style="fill:none;fill-rule:evenodd;stroke:#CCCC00;stroke-width:2.0px;stroke-linecap:butt;stroke-linejoin:miter;stroke-opacity:1"/>
<path class="bond-34 atom-18 atom-20" d="M 212.4,195.6 L 208.1,201.6" style="fill:none;fill-rule:evenodd;stroke:#FF0000;stroke-width:2.0px;stroke-linecap:butt;stroke-linejoin:miter;stroke-opacity:1"/>
<path class="bond-34 atom-18 atom-20" d="M 212.5,186.7 L 208.3,192.6" style="fill:none;fill-rule:evenodd;stroke:#CCCC00;stroke-width:2.0px;stroke-linecap:butt;stroke-linejoin:miter;stroke-opacity:1"/>
<path class="bond-34 atom-18 atom-20" d="M 208.3,192.6 L 204.0,198.6" style="fill:none;fill-rule:evenodd;stroke:#FF0000;stroke-width:2.0px;stroke-linecap:butt;stroke-linejoin:miter;stroke-opacity:1"/>
<path class="bond-35 atom-18 atom-21" d="M 220.9,186.1 L 229.7,192.4" style="fill:none;fill-rule:evenodd;stroke:#CCCC00;stroke-width:2.0px;stroke-linecap:butt;stroke-linejoin:miter;stroke-opacity:1"/>
<path class="bond-35 atom-18 atom-21" d="M 229.7,192.4 L 238.5,198.7" style="fill:none;fill-rule:evenodd;stroke:#000000;stroke-width:2.0px;stroke-linecap:butt;stroke-linejoin:miter;stroke-opacity:1"/>
<path class="bond-36 atom-21 atom-25" d="M 238.5,198.7 L 244.5,190.4" style="fill:none;fill-rule:evenodd;stroke:#000000;stroke-width:2.0px;stroke-linecap:butt;stroke-linejoin:miter;stroke-opacity:1"/>
<path class="bond-36 atom-21 atom-25" d="M 244.5,190.4 L 250.5,182.1" style="fill:none;fill-rule:evenodd;stroke:#33CCCC;stroke-width:2.0px;stroke-linecap:butt;stroke-linejoin:miter;stroke-opacity:1"/>
<path class="bond-37 atom-21 atom-26" d="M 238.5,198.7 L 232.6,207.0" style="fill:none;fill-rule:evenodd;stroke:#000000;stroke-width:2.0px;stroke-linecap:butt;stroke-linejoin:miter;stroke-opacity:1"/>
<path class="bond-37 atom-21 atom-26" d="M 232.6,207.0 L 226.6,215.4" style="fill:none;fill-rule:evenodd;stroke:#33CCCC;stroke-width:2.0px;stroke-linecap:butt;stroke-linejoin:miter;stroke-opacity:1"/>
<path class="bond-38 atom-21 atom-27" d="M 238.5,198.7 L 247.4,205.1" style="fill:none;fill-rule:evenodd;stroke:#000000;stroke-width:2.0px;stroke-linecap:butt;stroke-linejoin:miter;stroke-opacity:1"/>
<path class="bond-38 atom-21 atom-27" d="M 247.4,205.1 L 256.3,211.5" style="fill:none;fill-rule:evenodd;stroke:#33CCCC;stroke-width:2.0px;stroke-linecap:butt;stroke-linejoin:miter;stroke-opacity:1"/>
<path class="atom-0" d="M 229.7 150.4 Q 229.7 148.6, 230.6 147.6 Q 231.5 146.7, 233.1 146.7 Q 234.7 146.7, 235.5 147.6 Q 236.4 148.6, 236.4 150.4 Q 236.4 152.1, 235.5 153.1 Q 234.7 154.1, 233.1 154.1 Q 231.5 154.1, 230.6 153.1 Q 229.7 152.1, 229.7 150.4 M 233.1 153.3 Q 234.2 153.3, 234.8 152.6 Q 235.4 151.8, 235.4 150.4 Q 235.4 148.9, 234.8 148.2 Q 234.2 147.5, 233.1 147.5 Q 232.0 147.5, 231.4 148.2 Q 230.8 148.9, 230.8 150.4 Q 230.8 151.8, 231.4 152.6 Q 232.0 153.3, 233.1 153.3 " fill="#FF0000"/>
<path class="atom-10" d="M 131.3 124.1 Q 131.3 122.3, 132.2 121.4 Q 133.0 120.4, 134.6 120.4 Q 136.3 120.4, 137.1 121.4 Q 138.0 122.3, 138.0 124.1 Q 138.0 125.8, 137.1 126.8 Q 136.2 127.8, 134.6 127.8 Q 133.0 127.8, 132.2 126.8 Q 131.3 125.8, 131.3 124.1 M 134.6 127.0 Q 135.8 127.0, 136.3 126.3 Q 136.9 125.5, 136.9 124.1 Q 136.9 122.6, 136.3 121.9 Q 135.8 121.2, 134.6 121.2 Q 133.5 121.2, 132.9 121.9 Q 132.3 122.6, 132.3 124.1 Q 132.3 125.5, 132.9 126.3 Q 133.5 127.0, 134.6 127.0 " fill="#FF0000"/>
<path class="atom-13" d="M 65.6 126.5 L 68.0 130.4 Q 68.2 130.8, 68.6 131.4 Q 69.0 132.1, 69.0 132.2 L 69.0 126.5 L 70.0 126.5 L 70.0 133.8 L 69.0 133.8 L 66.4 129.6 Q 66.1 129.1, 65.8 128.5 Q 65.5 128.0, 65.4 127.8 L 65.4 133.8 L 64.5 133.8 L 64.5 126.5 L 65.6 126.5 " fill="#0000FF"/>
<path class="atom-18" d="M 215.7 186.3 Q 215.8 186.3, 216.1 186.5 Q 216.5 186.6, 216.8 186.7 Q 217.2 186.8, 217.6 186.8 Q 218.3 186.8, 218.7 186.4 Q 219.1 186.1, 219.1 185.5 Q 219.1 185.1, 218.9 184.9 Q 218.7 184.6, 218.4 184.5 Q 218.1 184.4, 217.6 184.2 Q 216.9 184.0, 216.5 183.8 Q 216.1 183.6, 215.9 183.3 Q 215.6 182.9, 215.6 182.2 Q 215.6 181.3, 216.2 180.7 Q 216.8 180.2, 218.1 180.2 Q 218.9 180.2, 219.9 180.6 L 219.6 181.4 Q 218.8 181.0, 218.1 181.0 Q 217.4 181.0, 217.0 181.3 Q 216.6 181.6, 216.6 182.1 Q 216.6 182.5, 216.8 182.7 Q 217.0 183.0, 217.3 183.1 Q 217.6 183.2, 218.1 183.4 Q 218.8 183.6, 219.1 183.8 Q 219.5 184.0, 219.8 184.4 Q 220.1 184.8, 220.1 185.5 Q 220.1 186.5, 219.4 187.1 Q 218.8 187.6, 217.6 187.6 Q 217.0 187.6, 216.5 187.5 Q 216.0 187.3, 215.4 187.1 L 215.7 186.3 " fill="#CCCC00"/>
<path class="atom-19" d="M 234.0 167.3 Q 234.0 165.5, 234.8 164.6 Q 235.7 163.6, 237.3 163.6 Q 238.9 163.6, 239.8 164.6 Q 240.6 165.5, 240.6 167.3 Q 240.6 169.0, 239.7 170.0 Q 238.9 171.0, 237.3 171.0 Q 235.7 171.0, 234.8 170.0 Q 234.0 169.0, 234.0 167.3 M 237.3 170.2 Q 238.4 170.2, 239.0 169.5 Q 239.6 168.7, 239.6 167.3 Q 239.6 165.8, 239.0 165.1 Q 238.4 164.4, 237.3 164.4 Q 236.2 164.4, 235.6 165.1 Q 235.0 165.8, 235.0 167.3 Q 235.0 168.7, 235.6 169.5 Q 236.2 170.2, 237.3 170.2 " fill="#FF0000"/>
<path class="atom-20" d="M 199.5 204.6 Q 199.5 202.9, 200.4 201.9 Q 201.2 200.9, 202.8 200.9 Q 204.4 200.9, 205.3 201.9 Q 206.2 202.9, 206.2 204.6 Q 206.2 206.4, 205.3 207.4 Q 204.4 208.4, 202.8 208.4 Q 201.2 208.4, 200.4 207.4 Q 199.5 206.4, 199.5 204.6 M 202.8 207.5 Q 203.9 207.5, 204.5 206.8 Q 205.1 206.0, 205.1 204.6 Q 205.1 203.2, 204.5 202.5 Q 203.9 201.7, 202.8 201.7 Q 201.7 201.7, 201.1 202.4 Q 200.5 203.2, 200.5 204.6 Q 200.5 206.1, 201.1 206.8 Q 201.7 207.5, 202.8 207.5 " fill="#FF0000"/>
<path class="atom-22" d="M 207.2 74.9 L 211.5 74.9 L 211.5 75.7 L 208.1 75.7 L 208.1 77.9 L 211.1 77.9 L 211.1 78.7 L 208.1 78.7 L 208.1 82.1 L 207.2 82.1 L 207.2 74.9 " fill="#33CCCC"/>
<path class="atom-23" d="M 235.0 94.9 L 239.3 94.9 L 239.3 95.7 L 236.0 95.7 L 236.0 97.9 L 238.9 97.9 L 238.9 98.7 L 236.0 98.7 L 236.0 102.1 L 235.0 102.1 L 235.0 94.9 " fill="#33CCCC"/>
<path class="atom-24" d="M 78.8 217.9 L 81.1 221.7 Q 81.4 222.1, 81.7 222.8 Q 82.1 223.5, 82.1 223.5 L 82.1 217.9 L 83.1 217.9 L 83.1 225.1 L 82.1 225.1 L 79.6 220.9 Q 79.3 220.4, 78.9 219.9 Q 78.6 219.3, 78.5 219.1 L 78.5 225.1 L 77.6 225.1 L 77.6 217.9 L 78.8 217.9 " fill="#0000FF"/>
<path class="atom-25" d="M 251.3 174.3 L 255.6 174.3 L 255.6 175.2 L 252.3 175.2 L 252.3 177.4 L 255.3 177.4 L 255.3 178.2 L 252.3 178.2 L 252.3 181.6 L 251.3 181.6 L 251.3 174.3 " fill="#33CCCC"/>
<path class="atom-26" d="M 221.5 215.9 L 225.8 215.9 L 225.8 216.7 L 222.4 216.7 L 222.4 218.9 L 225.4 218.9 L 225.4 219.8 L 222.4 219.8 L 222.4 223.1 L 221.5 223.1 L 221.5 215.9 " fill="#33CCCC"/>
<path class="atom-27" d="M 257.2 210.0 L 261.5 210.0 L 261.5 210.9 L 258.1 210.9 L 258.1 213.1 L 261.1 213.1 L 261.1 213.9 L 258.1 213.9 L 258.1 217.3 L 257.2 217.3 L 257.2 210.0 " fill="#33CCCC"/>
<path class="atom-28" d="M 255.8 146.6 L 256.8 146.6 L 256.8 149.7 L 260.5 149.7 L 260.5 146.6 L 261.5 146.6 L 261.5 153.8 L 260.5 153.8 L 260.5 150.5 L 256.8 150.5 L 256.8 153.8 L 255.8 153.8 L 255.8 146.6 " fill="#000000"/>
<path class="atom-29" d="M 240.7 114.1 L 241.6 114.1 L 241.6 117.2 L 245.3 117.2 L 245.3 114.1 L 246.3 114.1 L 246.3 121.3 L 245.3 121.3 L 245.3 118.0 L 241.6 118.0 L 241.6 121.3 L 240.7 121.3 L 240.7 114.1 " fill="#000000"/>
<path class="atom-30" d="M 158.6 95.3 L 159.6 95.3 L 159.6 98.3 L 163.3 98.3 L 163.3 95.3 L 164.3 95.3 L 164.3 102.5 L 163.3 102.5 L 163.3 99.2 L 159.6 99.2 L 159.6 102.5 L 158.6 102.5 L 158.6 95.3 " fill="#000000"/>
<path class="atom-31" d="M 186.2 75.0 L 187.2 75.0 L 187.2 78.1 L 190.9 78.1 L 190.9 75.0 L 191.9 75.0 L 191.9 82.2 L 190.9 82.2 L 190.9 78.9 L 187.2 78.9 L 187.2 82.2 L 186.2 82.2 L 186.2 75.0 " fill="#000000"/>
<path class="atom-32" d="M 168.3 201.2 L 169.3 201.2 L 169.3 204.3 L 173.0 204.3 L 173.0 201.2 L 174.0 201.2 L 174.0 208.5 L 173.0 208.5 L 173.0 205.1 L 169.3 205.1 L 169.3 208.5 L 168.3 208.5 L 168.3 201.2 " fill="#000000"/>
<path class="atom-33" d="M 135.7 169.5 L 136.7 169.5 L 136.7 172.6 L 140.4 172.6 L 140.4 169.5 L 141.4 169.5 L 141.4 176.8 L 140.4 176.8 L 140.4 173.4 L 136.7 173.4 L 136.7 176.8 L 135.7 176.8 L 135.7 169.5 " fill="#000000"/>
<path class="atom-34" d="M 90.2 90.5 L 91.2 90.5 L 91.2 93.6 L 94.9 93.6 L 94.9 90.5 L 95.9 90.5 L 95.9 97.8 L 94.9 97.8 L 94.9 94.4 L 91.2 94.4 L 91.2 97.8 L 90.2 97.8 L 90.2 90.5 " fill="#000000"/>
<path class="atom-35" d="M 38.5 162.5 L 39.5 162.5 L 39.5 165.6 L 43.2 165.6 L 43.2 162.5 L 44.2 162.5 L 44.2 169.8 L 43.2 169.8 L 43.2 166.4 L 39.5 166.4 L 39.5 169.8 L 38.5 169.8 L 38.5 162.5 " fill="#000000"/>
<path class="atom-36" d="M 118.3 167.8 L 119.3 167.8 L 119.3 170.9 L 123.0 170.9 L 123.0 167.8 L 123.9 167.8 L 123.9 175.1 L 123.0 175.1 L 123.0 171.7 L 119.3 171.7 L 119.3 175.1 L 118.3 175.1 L 118.3 167.8 " fill="#000000"/>
<path class="bond-0 atom-0 atom-2" d="M 384.0,168.0 L 405.8,154.5" style="fill:none;fill-rule:evenodd;stroke:#000000;stroke-width:2.0px;stroke-linecap:butt;stroke-linejoin:miter;stroke-opacity:1"/>
<path class="bond-1 atom-0 atom-21" d="M 384.0,168.0 L 375.2,173.4" style="fill:none;fill-rule:evenodd;stroke:#000000;stroke-width:2.0px;stroke-linecap:butt;stroke-linejoin:miter;stroke-opacity:1"/>
<path class="bond-1 atom-0 atom-21" d="M 375.2,173.4 L 366.4,178.9" style="fill:none;fill-rule:evenodd;stroke:#FF0000;stroke-width:2.0px;stroke-linecap:butt;stroke-linejoin:miter;stroke-opacity:1"/>
<path class="bond-2 atom-0 atom-24" d="M 384.0,168.0 L 374.6,156.2" style="fill:none;fill-rule:evenodd;stroke:#000000;stroke-width:2.0px;stroke-linecap:butt;stroke-linejoin:miter;stroke-opacity:1"/>
<path class="bond-3 atom-0 atom-25" d="M 384.0,168.0 L 390.6,182.4" style="fill:none;fill-rule:evenodd;stroke:#000000;stroke-width:2.0px;stroke-linecap:butt;stroke-linejoin:miter;stroke-opacity:1"/>
<path class="bond-4 atom-1 atom-2" d="M 428.3,166.7 L 405.8,154.5" style="fill:none;fill-rule:evenodd;stroke:#000000;stroke-width:2.0px;stroke-linecap:butt;stroke-linejoin:miter;stroke-opacity:1"/>
<path class="bond-4 atom-1 atom-2" d="M 427.4,160.4 L 411.6,151.9" style="fill:none;fill-rule:evenodd;stroke:#000000;stroke-width:2.0px;stroke-linecap:butt;stroke-linejoin:miter;stroke-opacity:1"/>
<path class="bond-5 atom-1 atom-6" d="M 428.3,166.7 L 450.1,153.2" style="fill:none;fill-rule:evenodd;stroke:#000000;stroke-width:2.0px;stroke-linecap:butt;stroke-linejoin:miter;stroke-opacity:1"/>
<path class="bond-6 atom-1 atom-18" d="M 428.3,166.7 L 429.1,192.3" style="fill:none;fill-rule:evenodd;stroke:#000000;stroke-width:2.0px;stroke-linecap:butt;stroke-linejoin:miter;stroke-opacity:1"/>
<path class="bond-7 atom-2 atom-3" d="M 405.8,154.5 L 405.0,129.0" style="fill:none;fill-rule:evenodd;stroke:#000000;stroke-width:2.0px;stroke-linecap:butt;stroke-linejoin:miter;stroke-opacity:1"/>
<path class="bond-8 atom-3 atom-4" d="M 405.0,129.0 L 426.8,115.5" style="fill:none;fill-rule:evenodd;stroke:#000000;stroke-width:2.0px;stroke-linecap:butt;stroke-linejoin:miter;stroke-opacity:1"/>
<path class="bond-8 atom-3 atom-4" d="M 411.0,131.3 L 426.2,121.9" style="fill:none;fill-rule:evenodd;stroke:#000000;stroke-width:2.0px;stroke-linecap:butt;stroke-linejoin:miter;stroke-opacity:1"/>
<path class="bond-9 atom-3 atom-15" d="M 405.0,129.0 L 395.3,123.7" style="fill:none;fill-rule:evenodd;stroke:#000000;stroke-width:2.0px;stroke-linecap:butt;stroke-linejoin:miter;stroke-opacity:1"/>
<path class="bond-9 atom-3 atom-15" d="M 395.3,123.7 L 385.6,118.5" style="fill:none;fill-rule:evenodd;stroke:#CCCC00;stroke-width:2.0px;stroke-linecap:butt;stroke-linejoin:miter;stroke-opacity:1"/>
<path class="bond-10 atom-4 atom-5" d="M 426.8,115.5 L 449.3,127.7" style="fill:none;fill-rule:evenodd;stroke:#000000;stroke-width:2.0px;stroke-linecap:butt;stroke-linejoin:miter;stroke-opacity:1"/>
<path class="bond-11 atom-4 atom-26" d="M 426.8,115.5 L 426.2,94.4" style="fill:none;fill-rule:evenodd;stroke:#000000;stroke-width:2.0px;stroke-linecap:butt;stroke-linejoin:miter;stroke-opacity:1"/>
<path class="bond-12 atom-5 atom-6" d="M 449.3,127.7 L 450.1,153.2" style="fill:none;fill-rule:evenodd;stroke:#000000;stroke-width:2.0px;stroke-linecap:butt;stroke-linejoin:miter;stroke-opacity:1"/>
<path class="bond-12 atom-5 atom-6" d="M 444.3,131.7 L 444.9,149.6" style="fill:none;fill-rule:evenodd;stroke:#000000;stroke-width:2.0px;stroke-linecap:butt;stroke-linejoin:miter;stroke-opacity:1"/>
<path class="bond-13 atom-5 atom-27" d="M 449.3,127.7 L 458.8,120.1" style="fill:none;fill-rule:evenodd;stroke:#000000;stroke-width:2.0px;stroke-linecap:butt;stroke-linejoin:miter;stroke-opacity:1"/>
<path class="bond-14 atom-6 atom-7" d="M 450.1,153.2 L 459.3,158.2" style="fill:none;fill-rule:evenodd;stroke:#000000;stroke-width:2.0px;stroke-linecap:butt;stroke-linejoin:miter;stroke-opacity:1"/>
<path class="bond-14 atom-6 atom-7" d="M 459.3,158.2 L 468.5,163.2" style="fill:none;fill-rule:evenodd;stroke:#FF0000;stroke-width:2.0px;stroke-linecap:butt;stroke-linejoin:miter;stroke-opacity:1"/>
<path class="bond-15 atom-7 atom-8" d="M 476.8,162.8 L 485.6,157.4" style="fill:none;fill-rule:evenodd;stroke:#FF0000;stroke-width:2.0px;stroke-linecap:butt;stroke-linejoin:miter;stroke-opacity:1"/>
<path class="bond-15 atom-7 atom-8" d="M 485.6,157.4 L 494.4,152.0" style="fill:none;fill-rule:evenodd;stroke:#000000;stroke-width:2.0px;stroke-linecap:butt;stroke-linejoin:miter;stroke-opacity:1"/>
<path class="bond-16 atom-8 atom-9" d="M 494.4,152.0 L 493.7,126.4" style="fill:none;fill-rule:evenodd;stroke:#000000;stroke-width:2.0px;stroke-linecap:butt;stroke-linejoin:miter;stroke-opacity:1"/>
<path class="bond-16 atom-8 atom-9" d="M 499.4,148.0 L 498.9,130.1" style="fill:none;fill-rule:evenodd;stroke:#000000;stroke-width:2.0px;stroke-linecap:butt;stroke-linejoin:miter;stroke-opacity:1"/>
<path class="bond-17 atom-8 atom-14" d="M 494.4,152.0 L 516.9,164.1" style="fill:none;fill-rule:evenodd;stroke:#000000;stroke-width:2.0px;stroke-linecap:butt;stroke-linejoin:miter;stroke-opacity:1"/>
<path class="bond-18 atom-9 atom-10" d="M 493.7,126.4 L 515.4,112.9" style="fill:none;fill-rule:evenodd;stroke:#000000;stroke-width:2.0px;stroke-linecap:butt;stroke-linejoin:miter;stroke-opacity:1"/>
<path class="bond-19 atom-9 atom-28" d="M 493.7,126.4 L 483.6,119.2" style="fill:none;fill-rule:evenodd;stroke:#000000;stroke-width:2.0px;stroke-linecap:butt;stroke-linejoin:miter;stroke-opacity:1"/>
<path class="bond-20 atom-10 atom-11" d="M 515.4,112.9 L 538.0,125.1" style="fill:none;fill-rule:evenodd;stroke:#000000;stroke-width:2.0px;stroke-linecap:butt;stroke-linejoin:miter;stroke-opacity:1"/>
<path class="bond-20 atom-10 atom-11" d="M 516.4,119.3 L 532.2,127.8" style="fill:none;fill-rule:evenodd;stroke:#000000;stroke-width:2.0px;stroke-linecap:butt;stroke-linejoin:miter;stroke-opacity:1"/>
<path class="bond-21 atom-10 atom-19" d="M 515.4,112.9 L 515.1,102.4" style="fill:none;fill-rule:evenodd;stroke:#000000;stroke-width:2.0px;stroke-linecap:butt;stroke-linejoin:miter;stroke-opacity:1"/>
<path class="bond-21 atom-10 atom-19" d="M 515.1,102.4 L 514.8,91.8" style="fill:none;fill-rule:evenodd;stroke:#33CCCC;stroke-width:2.0px;stroke-linecap:butt;stroke-linejoin:miter;stroke-opacity:1"/>
<path class="bond-22 atom-11 atom-12" d="M 538.0,125.1 L 538.7,150.7" style="fill:none;fill-rule:evenodd;stroke:#000000;stroke-width:2.0px;stroke-linecap:butt;stroke-linejoin:miter;stroke-opacity:1"/>
<path class="bond-23 atom-11 atom-29" d="M 538.0,125.1 L 556.1,113.9" style="fill:none;fill-rule:evenodd;stroke:#000000;stroke-width:2.0px;stroke-linecap:butt;stroke-linejoin:miter;stroke-opacity:1"/>
<path class="bond-24 atom-12 atom-13" d="M 538.7,150.7 L 548.2,155.8" style="fill:none;fill-rule:evenodd;stroke:#000000;stroke-width:2.0px;stroke-linecap:butt;stroke-linejoin:miter;stroke-opacity:1"/>
<path class="bond-24 atom-12 atom-13" d="M 548.2,155.8 L 557.6,160.9" style="fill:none;fill-rule:evenodd;stroke:#00CC00;stroke-width:2.0px;stroke-linecap:butt;stroke-linejoin:miter;stroke-opacity:1"/>
<path class="bond-25 atom-12 atom-14" d="M 538.7,150.7 L 516.9,164.1" style="fill:none;fill-rule:evenodd;stroke:#000000;stroke-width:2.0px;stroke-linecap:butt;stroke-linejoin:miter;stroke-opacity:1"/>
<path class="bond-25 atom-12 atom-14" d="M 532.8,148.3 L 517.5,157.7" style="fill:none;fill-rule:evenodd;stroke:#000000;stroke-width:2.0px;stroke-linecap:butt;stroke-linejoin:miter;stroke-opacity:1"/>
<path class="bond-26 atom-14 atom-30" d="M 516.9,164.1 L 517.5,185.2" style="fill:none;fill-rule:evenodd;stroke:#000000;stroke-width:2.0px;stroke-linecap:butt;stroke-linejoin:miter;stroke-opacity:1"/>
<path class="bond-27 atom-15 atom-16" d="M 381.5,122.7 L 378.6,126.7" style="fill:none;fill-rule:evenodd;stroke:#CCCC00;stroke-width:2.0px;stroke-linecap:butt;stroke-linejoin:miter;stroke-opacity:1"/>
<path class="bond-27 atom-15 atom-16" d="M 378.6,126.7 L 375.8,130.7" style="fill:none;fill-rule:evenodd;stroke:#FF0000;stroke-width:2.0px;stroke-linecap:butt;stroke-linejoin:miter;stroke-opacity:1"/>
<path class="bond-27 atom-15 atom-16" d="M 377.3,119.8 L 374.4,123.8" style="fill:none;fill-rule:evenodd;stroke:#CCCC00;stroke-width:2.0px;stroke-linecap:butt;stroke-linejoin:miter;stroke-opacity:1"/>
<path class="bond-27 atom-15 atom-16" d="M 374.4,123.8 L 371.6,127.8" style="fill:none;fill-rule:evenodd;stroke:#FF0000;stroke-width:2.0px;stroke-linecap:butt;stroke-linejoin:miter;stroke-opacity:1"/>
<path class="bond-28 atom-15 atom-17" d="M 379.4,115.1 L 369.7,109.9" style="fill:none;fill-rule:evenodd;stroke:#CCCC00;stroke-width:2.0px;stroke-linecap:butt;stroke-linejoin:miter;stroke-opacity:1"/>
<path class="bond-28 atom-15 atom-17" d="M 369.7,109.9 L 360.0,104.7" style="fill:none;fill-rule:evenodd;stroke:#000000;stroke-width:2.0px;stroke-linecap:butt;stroke-linejoin:miter;stroke-opacity:1"/>
<path class="bond-29 atom-15 atom-20" d="M 382.6,111.2 L 386.3,104.4" style="fill:none;fill-rule:evenodd;stroke:#CCCC00;stroke-width:2.0px;stroke-linecap:butt;stroke-linejoin:miter;stroke-opacity:1"/>
<path class="bond-29 atom-15 atom-20" d="M 386.3,104.4 L 389.9,97.7" style="fill:none;fill-rule:evenodd;stroke:#FF0000;stroke-width:2.0px;stroke-linecap:butt;stroke-linejoin:miter;stroke-opacity:1"/>
<path class="bond-29 atom-15 atom-20" d="M 387.1,113.6 L 390.8,106.9" style="fill:none;fill-rule:evenodd;stroke:#CCCC00;stroke-width:2.0px;stroke-linecap:butt;stroke-linejoin:miter;stroke-opacity:1"/>
<path class="bond-29 atom-15 atom-20" d="M 390.8,106.9 L 394.4,100.1" style="fill:none;fill-rule:evenodd;stroke:#FF0000;stroke-width:2.0px;stroke-linecap:butt;stroke-linejoin:miter;stroke-opacity:1"/>
<path class="bond-30 atom-17 atom-31" d="M 360.0,104.7 L 369.7,86.6" style="fill:none;fill-rule:evenodd;stroke:#000000;stroke-width:2.0px;stroke-linecap:butt;stroke-linejoin:miter;stroke-opacity:1"/>
<path class="bond-31 atom-17 atom-32" d="M 360.0,104.7 L 350.2,122.8" style="fill:none;fill-rule:evenodd;stroke:#000000;stroke-width:2.0px;stroke-linecap:butt;stroke-linejoin:miter;stroke-opacity:1"/>
<path class="bond-32 atom-17 atom-33" d="M 360.0,104.7 L 341.1,94.5" style="fill:none;fill-rule:evenodd;stroke:#000000;stroke-width:2.0px;stroke-linecap:butt;stroke-linejoin:miter;stroke-opacity:1"/>
<path class="bond-33 atom-18 atom-22" d="M 429.1,192.3 L 440.4,191.9" style="fill:none;fill-rule:evenodd;stroke:#000000;stroke-width:2.0px;stroke-linecap:butt;stroke-linejoin:miter;stroke-opacity:1"/>
<path class="bond-33 atom-18 atom-22" d="M 440.4,191.9 L 451.7,191.6" style="fill:none;fill-rule:evenodd;stroke:#33CCCC;stroke-width:2.0px;stroke-linecap:butt;stroke-linejoin:miter;stroke-opacity:1"/>
<path class="bond-34 atom-18 atom-23" d="M 429.1,192.3 L 420.3,193.6" style="fill:none;fill-rule:evenodd;stroke:#000000;stroke-width:2.0px;stroke-linecap:butt;stroke-linejoin:miter;stroke-opacity:1"/>
<path class="bond-34 atom-18 atom-23" d="M 420.3,193.6 L 411.5,194.9" style="fill:none;fill-rule:evenodd;stroke:#33CCCC;stroke-width:2.0px;stroke-linecap:butt;stroke-linejoin:miter;stroke-opacity:1"/>
<path class="bond-35 atom-18 atom-34" d="M 429.1,192.3 L 429.7,213.4" style="fill:none;fill-rule:evenodd;stroke:#000000;stroke-width:2.0px;stroke-linecap:butt;stroke-linejoin:miter;stroke-opacity:1"/>
<path class="bond-36 atom-21 atom-35" d="M 362.4,186.0 L 362.6,194.3" style="fill:none;fill-rule:evenodd;stroke:#FF0000;stroke-width:2.0px;stroke-linecap:butt;stroke-linejoin:miter;stroke-opacity:1"/>
<path class="bond-36 atom-21 atom-35" d="M 362.6,194.3 L 362.8,202.6" style="fill:none;fill-rule:evenodd;stroke:#000000;stroke-width:2.0px;stroke-linecap:butt;stroke-linejoin:miter;stroke-opacity:1"/>
<path class="atom-7" d="M 469.3 165.4 Q 469.3 163.7, 470.2 162.7 Q 471.0 161.7, 472.6 161.7 Q 474.2 161.7, 475.1 162.7 Q 475.9 163.7, 475.9 165.4 Q 475.9 167.2, 475.1 168.2 Q 474.2 169.2, 472.6 169.2 Q 471.0 169.2, 470.2 168.2 Q 469.3 167.2, 469.3 165.4 M 472.6 168.3 Q 473.7 168.3, 474.3 167.6 Q 474.9 166.9, 474.9 165.4 Q 474.9 164.0, 474.3 163.3 Q 473.7 162.5, 472.6 162.5 Q 471.5 162.5, 470.9 163.3 Q 470.3 164.0, 470.3 165.4 Q 470.3 166.9, 470.9 167.6 Q 471.5 168.3, 472.6 168.3 " fill="#FF0000"/>
<path class="atom-13" d="M 558.4 163.0 Q 558.4 161.2, 559.3 160.3 Q 560.1 159.4, 561.7 159.4 Q 563.2 159.4, 564.0 160.4 L 563.4 161.0 Q 562.8 160.2, 561.7 160.2 Q 560.6 160.2, 560.1 160.9 Q 559.5 161.7, 559.5 163.0 Q 559.5 164.5, 560.1 165.2 Q 560.7 166.0, 561.9 166.0 Q 562.7 166.0, 563.6 165.5 L 563.9 166.2 Q 563.5 166.5, 562.9 166.6 Q 562.3 166.8, 561.7 166.8 Q 560.1 166.8, 559.3 165.8 Q 558.4 164.9, 558.4 163.0 " fill="#00CC00"/>
<path class="atom-13" d="M 564.4 158.9 L 565.4 158.9 L 565.4 166.7 L 564.4 166.7 L 564.4 158.9 " fill="#00CC00"/>
<path class="atom-15" d="M 380.5 119.3 Q 380.5 119.3, 380.9 119.5 Q 381.2 119.6, 381.6 119.7 Q 382.0 119.8, 382.3 119.8 Q 383.0 119.8, 383.4 119.5 Q 383.8 119.1, 383.8 118.6 Q 383.8 118.2, 383.6 117.9 Q 383.4 117.7, 383.1 117.5 Q 382.8 117.4, 382.3 117.2 Q 381.6 117.0, 381.3 116.9 Q 380.9 116.7, 380.6 116.3 Q 380.3 115.9, 380.3 115.2 Q 380.3 114.3, 381.0 113.8 Q 381.6 113.2, 382.8 113.2 Q 383.6 113.2, 384.6 113.6 L 384.4 114.4 Q 383.5 114.0, 382.8 114.0 Q 382.1 114.0, 381.7 114.3 Q 381.4 114.6, 381.4 115.1 Q 381.4 115.5, 381.6 115.7 Q 381.8 116.0, 382.0 116.1 Q 382.3 116.2, 382.8 116.4 Q 383.5 116.6, 383.9 116.8 Q 384.3 117.0, 384.5 117.4 Q 384.8 117.8, 384.8 118.6 Q 384.8 119.6, 384.2 120.1 Q 383.5 120.6, 382.4 120.6 Q 381.7 120.6, 381.2 120.5 Q 380.8 120.4, 380.2 120.1 L 380.5 119.3 " fill="#CCCC00"/>
<path class="atom-16" d="M 367.2 133.8 Q 367.2 132.0, 368.1 131.0 Q 368.9 130.1, 370.5 130.1 Q 372.1 130.1, 373.0 131.0 Q 373.8 132.0, 373.8 133.8 Q 373.8 135.5, 373.0 136.5 Q 372.1 137.5, 370.5 137.5 Q 368.9 137.5, 368.1 136.5 Q 367.2 135.5, 367.2 133.8 M 370.5 136.7 Q 371.6 136.7, 372.2 136.0 Q 372.8 135.2, 372.8 133.8 Q 372.8 132.3, 372.2 131.6 Q 371.6 130.9, 370.5 130.9 Q 369.4 130.9, 368.8 131.6 Q 368.2 132.3, 368.2 133.8 Q 368.2 135.2, 368.8 136.0 Q 369.4 136.7, 370.5 136.7 " fill="#FF0000"/>
<path class="atom-19" d="M 512.5 83.7 L 516.8 83.7 L 516.8 84.6 L 513.5 84.6 L 513.5 86.8 L 516.5 86.8 L 516.5 87.6 L 513.5 87.6 L 513.5 91.0 L 512.5 91.0 L 512.5 83.7 " fill="#33CCCC"/>
<path class="atom-20" d="M 391.3 94.3 Q 391.3 92.6, 392.2 91.6 Q 393.0 90.6, 394.7 90.6 Q 396.3 90.6, 397.1 91.6 Q 398.0 92.6, 398.0 94.3 Q 398.0 96.1, 397.1 97.1 Q 396.2 98.1, 394.7 98.1 Q 393.1 98.1, 392.2 97.1 Q 391.3 96.1, 391.3 94.3 M 394.7 97.3 Q 395.8 97.3, 396.3 96.5 Q 397.0 95.8, 397.0 94.3 Q 397.0 92.9, 396.3 92.2 Q 395.8 91.4, 394.7 91.4 Q 393.5 91.4, 392.9 92.2 Q 392.3 92.9, 392.3 94.3 Q 392.3 95.8, 392.9 96.5 Q 393.5 97.3, 394.7 97.3 " fill="#FF0000"/>
<path class="atom-21" d="M 358.9 181.4 Q 358.9 179.7, 359.8 178.7 Q 360.6 177.8, 362.2 177.8 Q 363.8 177.8, 364.7 178.7 Q 365.6 179.7, 365.6 181.4 Q 365.6 183.2, 364.7 184.2 Q 363.8 185.2, 362.2 185.2 Q 360.6 185.2, 359.8 184.2 Q 358.9 183.2, 358.9 181.4 M 362.2 184.4 Q 363.3 184.4, 363.9 183.6 Q 364.5 182.9, 364.5 181.4 Q 364.5 180.0, 363.9 179.3 Q 363.3 178.6, 362.2 178.6 Q 361.1 178.6, 360.5 179.3 Q 359.9 180.0, 359.9 181.4 Q 359.9 182.9, 360.5 183.6 Q 361.1 184.4, 362.2 184.4 " fill="#FF0000"/>
<path class="atom-22" d="M 452.5 187.9 L 456.8 187.9 L 456.8 188.7 L 453.5 188.7 L 453.5 190.9 L 456.4 190.9 L 456.4 191.8 L 453.5 191.8 L 453.5 195.1 L 452.5 195.1 L 452.5 187.9 " fill="#33CCCC"/>
<path class="atom-23" d="M 406.4 191.8 L 410.7 191.8 L 410.7 192.6 L 407.4 192.6 L 407.4 194.8 L 410.4 194.8 L 410.4 195.6 L 407.4 195.6 L 407.4 199.0 L 406.4 199.0 L 406.4 191.8 " fill="#33CCCC"/>
<path class="atom-24" d="M 368.2 148.2 L 369.2 148.2 L 369.2 151.3 L 372.9 151.3 L 372.9 148.2 L 373.9 148.2 L 373.9 155.4 L 372.9 155.4 L 372.9 152.1 L 369.2 152.1 L 369.2 155.4 L 368.2 155.4 L 368.2 148.2 " fill="#000000"/>
<path class="atom-25" d="M 389.8 183.2 L 390.8 183.2 L 390.8 186.3 L 394.5 186.3 L 394.5 183.2 L 395.5 183.2 L 395.5 190.4 L 394.5 190.4 L 394.5 187.1 L 390.8 187.1 L 390.8 190.4 L 389.8 190.4 L 389.8 183.2 " fill="#000000"/>
<path class="atom-26" d="M 423.2 86.3 L 424.2 86.3 L 424.2 89.4 L 427.9 89.4 L 427.9 86.3 L 428.9 86.3 L 428.9 93.6 L 427.9 93.6 L 427.9 90.2 L 424.2 90.2 L 424.2 93.6 L 423.2 93.6 L 423.2 86.3 " fill="#000000"/>
<path class="atom-27" d="M 459.6 113.5 L 460.6 113.5 L 460.6 116.6 L 464.3 116.6 L 464.3 113.5 L 465.3 113.5 L 465.3 120.8 L 464.3 120.8 L 464.3 117.5 L 460.6 117.5 L 460.6 120.8 L 459.6 120.8 L 459.6 113.5 " fill="#000000"/>
<path class="atom-28" d="M 477.1 113.0 L 478.1 113.0 L 478.1 116.1 L 481.8 116.1 L 481.8 113.0 L 482.8 113.0 L 482.8 120.3 L 481.8 120.3 L 481.8 116.9 L 478.1 116.9 L 478.1 120.3 L 477.1 120.3 L 477.1 113.0 " fill="#000000"/>
<path class="atom-29" d="M 556.9 108.0 L 557.9 108.0 L 557.9 111.1 L 561.6 111.1 L 561.6 108.0 L 562.6 108.0 L 562.6 115.3 L 561.6 115.3 L 561.6 111.9 L 557.9 111.9 L 557.9 115.3 L 556.9 115.3 L 556.9 108.0 " fill="#000000"/>
<path class="atom-30" d="M 514.8 186.1 L 515.8 186.1 L 515.8 189.1 L 519.5 189.1 L 519.5 186.1 L 520.5 186.1 L 520.5 193.3 L 519.5 193.3 L 519.5 190.0 L 515.8 190.0 L 515.8 193.3 L 514.8 193.3 L 514.8 186.1 " fill="#000000"/>
<path class="atom-31" d="M 369.3 78.5 L 370.3 78.5 L 370.3 81.6 L 374.0 81.6 L 374.0 78.5 L 375.0 78.5 L 375.0 85.8 L 374.0 85.8 L 374.0 82.4 L 370.3 82.4 L 370.3 85.8 L 369.3 85.8 L 369.3 78.5 " fill="#000000"/>
<path class="atom-32" d="M 345.0 123.6 L 346.0 123.6 L 346.0 126.7 L 349.7 126.7 L 349.7 123.6 L 350.7 123.6 L 350.7 130.8 L 349.7 130.8 L 349.7 127.5 L 346.0 127.5 L 346.0 130.8 L 345.0 130.8 L 345.0 123.6 " fill="#000000"/>
<path class="atom-33" d="M 334.6 88.9 L 335.6 88.9 L 335.6 92.0 L 339.3 92.0 L 339.3 88.9 L 340.3 88.9 L 340.3 96.2 L 339.3 96.2 L 339.3 92.8 L 335.6 92.8 L 335.6 96.2 L 334.6 96.2 L 334.6 88.9 " fill="#000000"/>
<path class="atom-34" d="M 427.0 214.2 L 428.0 214.2 L 428.0 217.3 L 431.7 217.3 L 431.7 214.2 L 432.6 214.2 L 432.6 221.5 L 431.7 221.5 L 431.7 218.1 L 428.0 218.1 L 428.0 221.5 L 427.0 221.5 L 427.0 214.2 " fill="#000000"/>
<path class="atom-35" d="M 360.1 203.4 L 361.1 203.4 L 361.1 206.5 L 364.8 206.5 L 364.8 203.4 L 365.8 203.4 L 365.8 210.6 L 364.8 210.6 L 364.8 207.3 L 361.1 207.3 L 361.1 210.6 L 360.1 210.6 L 360.1 203.4 " fill="#000000"/>
<text x="300" y="20" font-size="20" font-family="sans-serif" font-weight="normal" letter-spacing="0" text-anchor="middle" fill="black">hif2a: 235 -&gt; 54</text><text x="300" y="35" font-size="15" font-family="sans-serif" font-weight="normal" letter-spacing="0" text-anchor="middle" fill="black"></text><text x="150" y="285" font-size="15" font-family="sans-serif" font-weight="normal" letter-spacing="0" text-anchor="middle" fill="black">235</text><text x="450" y="285" font-size="15" font-family="sans-serif" font-weight="normal" letter-spacing="0" text-anchor="middle" fill="black">54</text></svg>
