<?xml version='1.0' encoding='ASCII' standalone='yes'?>
<svg xmlns="http://www.w3.org/2000/svg" xmlns:rdkit="http://www.rdkit.org/xml" xmlns:xlink="http://www.w3.org/1999/xlink" version="1.1" baseProfile="full" xml:space="preserve" width="600px" height="300px" viewBox="0 0 600 300">
<!-- END OF HEADER -->
<rect style="opacity:1.0;fill:#FFFFFF;stroke:none" width="600.0" height="300.0" x="0.0" y="0.0"> </rect>
<path class="bond-0 atom-0 atom-1" d="M 226.6,145.0 L 220.6,136.8" style="fill:none;fill-rule:evenodd;stroke:#FF0000;stroke-width:2.0px;stroke-linecap:butt;stroke-linejoin:miter;stroke-opacity:1"/>
<path class="bond-0 atom-0 atom-1" d="M 220.6,136.8 L 214.5,128.6" style="fill:none;fill-rule:evenodd;stroke:#000000;stroke-width:2.0px;stroke-linecap:butt;stroke-linejoin:miter;stroke-opacity:1"/>
<path class="bond-1 atom-0 atom-25" d="M 234.2,149.1 L 243.1,148.2" style="fill:none;fill-rule:evenodd;stroke:#FF0000;stroke-width:2.0px;stroke-linecap:butt;stroke-linejoin:miter;stroke-opacity:1"/>
<path class="bond-1 atom-0 atom-25" d="M 243.1,148.2 L 252.1,147.2" style="fill:none;fill-rule:evenodd;stroke:#000000;stroke-width:2.0px;stroke-linecap:butt;stroke-linejoin:miter;stroke-opacity:1"/>
<path class="bond-2 atom-1 atom-2" d="M 214.5,128.6 L 203.8,104.8" style="fill:none;fill-rule:evenodd;stroke:#000000;stroke-width:2.0px;stroke-linecap:butt;stroke-linejoin:miter;stroke-opacity:1"/>
<path class="bond-3 atom-1 atom-5" d="M 214.5,128.6 L 195.2,146.1" style="fill:none;fill-rule:evenodd;stroke:#000000;stroke-width:2.0px;stroke-linecap:butt;stroke-linejoin:miter;stroke-opacity:1"/>
<path class="bond-4 atom-1 atom-26" d="M 219.3,126.5 L 218.7,125.4" style="fill:none;fill-rule:evenodd;stroke:#000000;stroke-width:1.0px;stroke-linecap:butt;stroke-linejoin:miter;stroke-opacity:1"/>
<path class="bond-4 atom-1 atom-26" d="M 224.1,124.5 L 222.8,122.3" style="fill:none;fill-rule:evenodd;stroke:#000000;stroke-width:1.0px;stroke-linecap:butt;stroke-linejoin:miter;stroke-opacity:1"/>
<path class="bond-4 atom-1 atom-26" d="M 228.9,122.4 L 227.0,119.1" style="fill:none;fill-rule:evenodd;stroke:#000000;stroke-width:1.0px;stroke-linecap:butt;stroke-linejoin:miter;stroke-opacity:1"/>
<path class="bond-4 atom-1 atom-26" d="M 233.7,120.3 L 231.2,115.9" style="fill:none;fill-rule:evenodd;stroke:#000000;stroke-width:1.0px;stroke-linecap:butt;stroke-linejoin:miter;stroke-opacity:1"/>
<path class="bond-5 atom-2 atom-3" d="M 203.8,104.8 L 177.9,107.7" style="fill:none;fill-rule:evenodd;stroke:#000000;stroke-width:2.0px;stroke-linecap:butt;stroke-linejoin:miter;stroke-opacity:1"/>
<path class="bond-6 atom-2 atom-27" d="M 203.8,104.8 L 199.3,83.9" style="fill:none;fill-rule:evenodd;stroke:#000000;stroke-width:2.0px;stroke-linecap:butt;stroke-linejoin:miter;stroke-opacity:1"/>
<path class="bond-7 atom-2 atom-28" d="M 203.8,104.8 L 224.8,97.9" style="fill:none;fill-rule:evenodd;stroke:#000000;stroke-width:2.0px;stroke-linecap:butt;stroke-linejoin:miter;stroke-opacity:1"/>
<path class="bond-8 atom-3 atom-4" d="M 177.9,107.7 L 172.6,133.2" style="fill:none;fill-rule:evenodd;stroke:#000000;stroke-width:2.0px;stroke-linecap:butt;stroke-linejoin:miter;stroke-opacity:1"/>
<path class="bond-9 atom-3 atom-29" d="M 177.9,107.7 L 155.8,105.4" style="fill:none;fill-rule:evenodd;stroke:#000000;stroke-width:2.0px;stroke-linecap:butt;stroke-linejoin:miter;stroke-opacity:1"/>
<path class="bond-10 atom-3 atom-30" d="M 177.9,107.7 L 177.9,86.2" style="fill:none;fill-rule:evenodd;stroke:#000000;stroke-width:2.0px;stroke-linecap:butt;stroke-linejoin:miter;stroke-opacity:1"/>
<path class="bond-11 atom-4 atom-5" d="M 172.6,133.2 L 195.2,146.1" style="fill:none;fill-rule:evenodd;stroke:#000000;stroke-width:2.0px;stroke-linecap:butt;stroke-linejoin:miter;stroke-opacity:1"/>
<path class="bond-11 atom-4 atom-5" d="M 173.4,139.6 L 189.3,148.7" style="fill:none;fill-rule:evenodd;stroke:#000000;stroke-width:2.0px;stroke-linecap:butt;stroke-linejoin:miter;stroke-opacity:1"/>
<path class="bond-12 atom-4 atom-9" d="M 172.6,133.2 L 150.1,146.3" style="fill:none;fill-rule:evenodd;stroke:#000000;stroke-width:2.0px;stroke-linecap:butt;stroke-linejoin:miter;stroke-opacity:1"/>
<path class="bond-13 atom-5 atom-6" d="M 195.2,146.1 L 195.4,172.1" style="fill:none;fill-rule:evenodd;stroke:#000000;stroke-width:2.0px;stroke-linecap:butt;stroke-linejoin:miter;stroke-opacity:1"/>
<path class="bond-14 atom-6 atom-7" d="M 195.4,172.1 L 172.9,185.3" style="fill:none;fill-rule:evenodd;stroke:#000000;stroke-width:2.0px;stroke-linecap:butt;stroke-linejoin:miter;stroke-opacity:1"/>
<path class="bond-14 atom-6 atom-7" d="M 189.4,169.6 L 173.6,178.8" style="fill:none;fill-rule:evenodd;stroke:#000000;stroke-width:2.0px;stroke-linecap:butt;stroke-linejoin:miter;stroke-opacity:1"/>
<path class="bond-15 atom-6 atom-19" d="M 195.4,172.1 L 205.1,177.7" style="fill:none;fill-rule:evenodd;stroke:#000000;stroke-width:2.0px;stroke-linecap:butt;stroke-linejoin:miter;stroke-opacity:1"/>
<path class="bond-15 atom-6 atom-19" d="M 205.1,177.7 L 214.8,183.2" style="fill:none;fill-rule:evenodd;stroke:#CCCC00;stroke-width:2.0px;stroke-linecap:butt;stroke-linejoin:miter;stroke-opacity:1"/>
<path class="bond-16 atom-7 atom-8" d="M 172.9,185.3 L 150.2,172.3" style="fill:none;fill-rule:evenodd;stroke:#000000;stroke-width:2.0px;stroke-linecap:butt;stroke-linejoin:miter;stroke-opacity:1"/>
<path class="bond-17 atom-7 atom-31" d="M 172.9,185.3 L 172.9,206.8" style="fill:none;fill-rule:evenodd;stroke:#000000;stroke-width:2.0px;stroke-linecap:butt;stroke-linejoin:miter;stroke-opacity:1"/>
<path class="bond-18 atom-8 atom-9" d="M 150.2,172.3 L 150.1,146.3" style="fill:none;fill-rule:evenodd;stroke:#000000;stroke-width:2.0px;stroke-linecap:butt;stroke-linejoin:miter;stroke-opacity:1"/>
<path class="bond-18 atom-8 atom-9" d="M 155.4,168.4 L 155.4,150.2" style="fill:none;fill-rule:evenodd;stroke:#000000;stroke-width:2.0px;stroke-linecap:butt;stroke-linejoin:miter;stroke-opacity:1"/>
<path class="bond-19 atom-8 atom-32" d="M 150.2,172.3 L 140.4,179.8" style="fill:none;fill-rule:evenodd;stroke:#000000;stroke-width:2.0px;stroke-linecap:butt;stroke-linejoin:miter;stroke-opacity:1"/>
<path class="bond-20 atom-9 atom-10" d="M 150.1,146.3 L 140.9,141.0" style="fill:none;fill-rule:evenodd;stroke:#000000;stroke-width:2.0px;stroke-linecap:butt;stroke-linejoin:miter;stroke-opacity:1"/>
<path class="bond-20 atom-9 atom-10" d="M 140.9,141.0 L 131.7,135.8" style="fill:none;fill-rule:evenodd;stroke:#FF0000;stroke-width:2.0px;stroke-linecap:butt;stroke-linejoin:miter;stroke-opacity:1"/>
<path class="bond-21 atom-10 atom-11" d="M 123.3,135.8 L 114.1,141.2" style="fill:none;fill-rule:evenodd;stroke:#FF0000;stroke-width:2.0px;stroke-linecap:butt;stroke-linejoin:miter;stroke-opacity:1"/>
<path class="bond-21 atom-10 atom-11" d="M 114.1,141.2 L 105.0,146.5" style="fill:none;fill-rule:evenodd;stroke:#000000;stroke-width:2.0px;stroke-linecap:butt;stroke-linejoin:miter;stroke-opacity:1"/>
<path class="bond-22 atom-11 atom-12" d="M 105.0,146.5 L 82.4,133.5" style="fill:none;fill-rule:evenodd;stroke:#000000;stroke-width:2.0px;stroke-linecap:butt;stroke-linejoin:miter;stroke-opacity:1"/>
<path class="bond-22 atom-11 atom-12" d="M 99.0,149.1 L 83.2,140.0" style="fill:none;fill-rule:evenodd;stroke:#000000;stroke-width:2.0px;stroke-linecap:butt;stroke-linejoin:miter;stroke-opacity:1"/>
<path class="bond-23 atom-11 atom-18" d="M 105.0,146.5 L 105.1,172.5" style="fill:none;fill-rule:evenodd;stroke:#000000;stroke-width:2.0px;stroke-linecap:butt;stroke-linejoin:miter;stroke-opacity:1"/>
<path class="bond-24 atom-12 atom-13" d="M 82.4,133.5 L 59.9,146.7" style="fill:none;fill-rule:evenodd;stroke:#000000;stroke-width:2.0px;stroke-linecap:butt;stroke-linejoin:miter;stroke-opacity:1"/>
<path class="bond-25 atom-12 atom-33" d="M 82.4,133.5 L 82.3,112.0" style="fill:none;fill-rule:evenodd;stroke:#000000;stroke-width:2.0px;stroke-linecap:butt;stroke-linejoin:miter;stroke-opacity:1"/>
<path class="bond-26 atom-13 atom-14" d="M 59.9,146.7 L 50.1,141.1" style="fill:none;fill-rule:evenodd;stroke:#000000;stroke-width:2.0px;stroke-linecap:butt;stroke-linejoin:miter;stroke-opacity:1"/>
<path class="bond-26 atom-13 atom-14" d="M 50.1,141.1 L 40.3,135.5" style="fill:none;fill-rule:evenodd;stroke:#33CCCC;stroke-width:2.0px;stroke-linecap:butt;stroke-linejoin:miter;stroke-opacity:1"/>
<path class="bond-27 atom-13 atom-15" d="M 59.9,146.7 L 60.0,172.7" style="fill:none;fill-rule:evenodd;stroke:#000000;stroke-width:2.0px;stroke-linecap:butt;stroke-linejoin:miter;stroke-opacity:1"/>
<path class="bond-27 atom-13 atom-15" d="M 65.1,150.6 L 65.2,168.8" style="fill:none;fill-rule:evenodd;stroke:#000000;stroke-width:2.0px;stroke-linecap:butt;stroke-linejoin:miter;stroke-opacity:1"/>
<path class="bond-28 atom-15 atom-16" d="M 60.0,172.7 L 82.6,185.6" style="fill:none;fill-rule:evenodd;stroke:#000000;stroke-width:2.0px;stroke-linecap:butt;stroke-linejoin:miter;stroke-opacity:1"/>
<path class="bond-29 atom-15 atom-34" d="M 60.0,172.7 L 41.2,183.7" style="fill:none;fill-rule:evenodd;stroke:#000000;stroke-width:2.0px;stroke-linecap:butt;stroke-linejoin:miter;stroke-opacity:1"/>
<path class="bond-30 atom-16 atom-17" d="M 82.6,185.6 L 82.7,196.5" style="fill:none;fill-rule:evenodd;stroke:#000000;stroke-width:2.0px;stroke-linecap:butt;stroke-linejoin:miter;stroke-opacity:1"/>
<path class="bond-30 atom-16 atom-17" d="M 82.7,196.5 L 82.7,207.3" style="fill:none;fill-rule:evenodd;stroke:#00CC00;stroke-width:2.0px;stroke-linecap:butt;stroke-linejoin:miter;stroke-opacity:1"/>
<path class="bond-31 atom-16 atom-18" d="M 82.6,185.6 L 105.1,172.5" style="fill:none;fill-rule:evenodd;stroke:#000000;stroke-width:2.0px;stroke-linecap:butt;stroke-linejoin:miter;stroke-opacity:1"/>
<path class="bond-31 atom-16 atom-18" d="M 83.4,179.2 L 99.1,170.0" style="fill:none;fill-rule:evenodd;stroke:#000000;stroke-width:2.0px;stroke-linecap:butt;stroke-linejoin:miter;stroke-opacity:1"/>
<path class="bond-32 atom-18 atom-35" d="M 105.1,172.5 L 115.1,180.0" style="fill:none;fill-rule:evenodd;stroke:#000000;stroke-width:2.0px;stroke-linecap:butt;stroke-linejoin:miter;stroke-opacity:1"/>
<path class="bond-33 atom-19 atom-20" d="M 219.3,179.9 L 224.6,174.4" style="fill:none;fill-rule:evenodd;stroke:#CCCC00;stroke-width:2.0px;stroke-linecap:butt;stroke-linejoin:miter;stroke-opacity:1"/>
<path class="bond-33 atom-19 atom-20" d="M 224.6,174.4 L 229.9,168.9" style="fill:none;fill-rule:evenodd;stroke:#FF0000;stroke-width:2.0px;stroke-linecap:butt;stroke-linejoin:miter;stroke-opacity:1"/>
<path class="bond-33 atom-19 atom-20" d="M 223.1,183.5 L 228.3,178.0" style="fill:none;fill-rule:evenodd;stroke:#CCCC00;stroke-width:2.0px;stroke-linecap:butt;stroke-linejoin:miter;stroke-opacity:1"/>
<path class="bond-33 atom-19 atom-20" d="M 228.3,178.0 L 233.6,172.5" style="fill:none;fill-rule:evenodd;stroke:#FF0000;stroke-width:2.0px;stroke-linecap:butt;stroke-linejoin:miter;stroke-opacity:1"/>
<path class="bond-34 atom-19 atom-21" d="M 217.5,191.1 L 213.7,197.7" style="fill:none;fill-rule:evenodd;stroke:#CCCC00;stroke-width:2.0px;stroke-linecap:butt;stroke-linejoin:miter;stroke-opacity:1"/>
<path class="bond-34 atom-19 atom-21" d="M 213.7,197.7 L 209.9,204.4" style="fill:none;fill-rule:evenodd;stroke:#FF0000;stroke-width:2.0px;stroke-linecap:butt;stroke-linejoin:miter;stroke-opacity:1"/>
<path class="bond-34 atom-19 atom-21" d="M 213.0,188.5 L 209.2,195.2" style="fill:none;fill-rule:evenodd;stroke:#CCCC00;stroke-width:2.0px;stroke-linecap:butt;stroke-linejoin:miter;stroke-opacity:1"/>
<path class="bond-34 atom-19 atom-21" d="M 209.2,195.2 L 205.4,201.8" style="fill:none;fill-rule:evenodd;stroke:#FF0000;stroke-width:2.0px;stroke-linecap:butt;stroke-linejoin:miter;stroke-opacity:1"/>
<path class="bond-35 atom-19 atom-22" d="M 221.2,186.9 L 230.9,192.5" style="fill:none;fill-rule:evenodd;stroke:#CCCC00;stroke-width:2.0px;stroke-linecap:butt;stroke-linejoin:miter;stroke-opacity:1"/>
<path class="bond-35 atom-19 atom-22" d="M 230.9,192.5 L 240.6,198.0" style="fill:none;fill-rule:evenodd;stroke:#000000;stroke-width:2.0px;stroke-linecap:butt;stroke-linejoin:miter;stroke-opacity:1"/>
<path class="bond-36 atom-22 atom-23" d="M 240.6,198.0 L 235.4,207.0" style="fill:none;fill-rule:evenodd;stroke:#000000;stroke-width:2.0px;stroke-linecap:butt;stroke-linejoin:miter;stroke-opacity:1"/>
<path class="bond-36 atom-22 atom-23" d="M 235.4,207.0 L 230.2,216.1" style="fill:none;fill-rule:evenodd;stroke:#33CCCC;stroke-width:2.0px;stroke-linecap:butt;stroke-linejoin:miter;stroke-opacity:1"/>
<path class="bond-37 atom-22 atom-24" d="M 240.6,198.0 L 250.4,203.6" style="fill:none;fill-rule:evenodd;stroke:#000000;stroke-width:2.0px;stroke-linecap:butt;stroke-linejoin:miter;stroke-opacity:1"/>
<path class="bond-37 atom-22 atom-24" d="M 250.4,203.6 L 260.2,209.2" style="fill:none;fill-rule:evenodd;stroke:#33CCCC;stroke-width:2.0px;stroke-linecap:butt;stroke-linejoin:miter;stroke-opacity:1"/>
<path class="bond-38 atom-22 atom-36" d="M 240.6,198.0 L 250.9,179.9" style="fill:none;fill-rule:evenodd;stroke:#000000;stroke-width:2.0px;stroke-linecap:butt;stroke-linejoin:miter;stroke-opacity:1"/>
<path class="atom-0" d="M 226.5 149.6 Q 226.5 147.8, 227.4 146.9 Q 228.3 145.9, 229.9 145.9 Q 231.6 145.9, 232.4 146.9 Q 233.3 147.8, 233.3 149.6 Q 233.3 151.4, 232.4 152.4 Q 231.5 153.4, 229.9 153.4 Q 228.3 153.4, 227.4 152.4 Q 226.5 151.4, 226.5 149.6 M 229.9 152.6 Q 231.1 152.6, 231.7 151.9 Q 232.3 151.1, 232.3 149.6 Q 232.3 148.2, 231.7 147.4 Q 231.1 146.7, 229.9 146.7 Q 228.8 146.7, 228.2 147.4 Q 227.6 148.2, 227.6 149.6 Q 227.6 151.1, 228.2 151.9 Q 228.8 152.6, 229.9 152.6 " fill="#FF0000"/>
<path class="atom-10" d="M 124.1 133.4 Q 124.1 131.6, 125.0 130.6 Q 125.9 129.6, 127.5 129.6 Q 129.2 129.6, 130.0 130.6 Q 130.9 131.6, 130.9 133.4 Q 130.9 135.2, 130.0 136.2 Q 129.1 137.2, 127.5 137.2 Q 125.9 137.2, 125.0 136.2 Q 124.1 135.2, 124.1 133.4 M 127.5 136.4 Q 128.6 136.4, 129.2 135.6 Q 129.9 134.9, 129.9 133.4 Q 129.9 131.9, 129.2 131.2 Q 128.6 130.5, 127.5 130.5 Q 126.4 130.5, 125.8 131.2 Q 125.2 131.9, 125.2 133.4 Q 125.2 134.9, 125.8 135.6 Q 126.4 136.4, 127.5 136.4 " fill="#FF0000"/>
<path class="atom-14" d="M 35.1 130.0 L 39.5 130.0 L 39.5 130.9 L 36.1 130.9 L 36.1 133.1 L 39.1 133.1 L 39.1 134.0 L 36.1 134.0 L 36.1 137.4 L 35.1 137.4 L 35.1 130.0 " fill="#33CCCC"/>
<path class="atom-17" d="M 79.9 211.9 Q 79.9 210.1, 80.7 209.2 Q 81.6 208.2, 83.2 208.2 Q 84.8 208.2, 85.6 209.3 L 84.9 209.8 Q 84.3 209.0, 83.2 209.0 Q 82.1 209.0, 81.5 209.8 Q 80.9 210.5, 80.9 211.9 Q 80.9 213.4, 81.5 214.2 Q 82.2 214.9, 83.4 214.9 Q 84.2 214.9, 85.1 214.4 L 85.4 215.2 Q 85.0 215.4, 84.4 215.6 Q 83.9 215.7, 83.2 215.7 Q 81.6 215.7, 80.7 214.8 Q 79.9 213.8, 79.9 211.9 " fill="#00CC00"/>
<path class="atom-17" d="M 86.0 207.7 L 86.9 207.7 L 86.9 215.6 L 86.0 215.6 L 86.0 207.7 " fill="#00CC00"/>
<path class="atom-19" d="M 215.9 187.6 Q 216.0 187.6, 216.3 187.8 Q 216.7 187.9, 217.0 188.0 Q 217.4 188.1, 217.8 188.1 Q 218.5 188.1, 218.9 187.8 Q 219.3 187.4, 219.3 186.8 Q 219.3 186.4, 219.1 186.2 Q 218.9 185.9, 218.6 185.8 Q 218.3 185.7, 217.7 185.5 Q 217.1 185.3, 216.7 185.1 Q 216.3 184.9, 216.0 184.5 Q 215.8 184.1, 215.8 183.5 Q 215.8 182.5, 216.4 182.0 Q 217.0 181.4, 218.3 181.4 Q 219.1 181.4, 220.1 181.8 L 219.9 182.6 Q 219.0 182.2, 218.3 182.2 Q 217.6 182.2, 217.2 182.5 Q 216.8 182.8, 216.8 183.3 Q 216.8 183.7, 217.0 184.0 Q 217.2 184.2, 217.5 184.4 Q 217.8 184.5, 218.3 184.6 Q 219.0 184.9, 219.4 185.1 Q 219.8 185.3, 220.0 185.7 Q 220.3 186.1, 220.3 186.8 Q 220.3 187.9, 219.6 188.4 Q 219.0 189.0, 217.8 189.0 Q 217.2 189.0, 216.7 188.8 Q 216.2 188.7, 215.6 188.4 L 215.9 187.6 " fill="#CCCC00"/>
<path class="atom-20" d="M 232.6 166.3 Q 232.6 164.5, 233.5 163.5 Q 234.3 162.5, 236.0 162.5 Q 237.6 162.5, 238.5 163.5 Q 239.4 164.5, 239.4 166.3 Q 239.4 168.1, 238.5 169.1 Q 237.6 170.1, 236.0 170.1 Q 234.4 170.1, 233.5 169.1 Q 232.6 168.1, 232.6 166.3 M 236.0 169.3 Q 237.1 169.3, 237.7 168.5 Q 238.3 167.8, 238.3 166.3 Q 238.3 164.8, 237.7 164.1 Q 237.1 163.4, 236.0 163.4 Q 234.9 163.4, 234.2 164.1 Q 233.6 164.8, 233.6 166.3 Q 233.6 167.8, 234.2 168.5 Q 234.9 169.3, 236.0 169.3 " fill="#FF0000"/>
<path class="atom-21" d="M 201.7 207.7 Q 201.7 205.9, 202.5 204.9 Q 203.4 204.0, 205.0 204.0 Q 206.7 204.0, 207.5 204.9 Q 208.4 205.9, 208.4 207.7 Q 208.4 209.5, 207.5 210.5 Q 206.7 211.5, 205.0 211.5 Q 203.4 211.5, 202.5 210.5 Q 201.7 209.5, 201.7 207.7 M 205.0 210.7 Q 206.2 210.7, 206.8 210.0 Q 207.4 209.2, 207.4 207.7 Q 207.4 206.3, 206.8 205.5 Q 206.2 204.8, 205.0 204.8 Q 203.9 204.8, 203.3 205.5 Q 202.7 206.3, 202.7 207.7 Q 202.7 209.2, 203.3 210.0 Q 203.9 210.7, 205.0 210.7 " fill="#FF0000"/>
<path class="atom-23" d="M 225.5 216.9 L 229.8 216.9 L 229.8 217.8 L 226.4 217.8 L 226.4 220.0 L 229.5 220.0 L 229.5 220.9 L 226.4 220.9 L 226.4 224.3 L 225.5 224.3 L 225.5 216.9 " fill="#33CCCC"/>
<path class="atom-24" d="M 261.0 207.2 L 265.4 207.2 L 265.4 208.1 L 262.0 208.1 L 262.0 210.3 L 265.0 210.3 L 265.0 211.2 L 262.0 211.2 L 262.0 214.6 L 261.0 214.6 L 261.0 207.2 " fill="#33CCCC"/>
<path class="atom-25" d="M 252.9 143.1 L 253.9 143.1 L 253.9 146.2 L 257.7 146.2 L 257.7 143.1 L 258.7 143.1 L 258.7 150.5 L 257.7 150.5 L 257.7 147.0 L 253.9 147.0 L 253.9 150.5 L 252.9 150.5 L 252.9 143.1 " fill="#000000"/>
<path class="atom-26" d="M 234.1 111.8 L 235.1 111.8 L 235.1 114.9 L 238.9 114.9 L 238.9 111.8 L 239.9 111.8 L 239.9 119.2 L 238.9 119.2 L 238.9 115.8 L 235.1 115.8 L 235.1 119.2 L 234.1 119.2 L 234.1 111.8 " fill="#000000"/>
<path class="atom-27" d="M 195.4 75.7 L 196.4 75.7 L 196.4 78.8 L 200.2 78.8 L 200.2 75.7 L 201.2 75.7 L 201.2 83.1 L 200.2 83.1 L 200.2 79.7 L 196.4 79.7 L 196.4 83.1 L 195.4 83.1 L 195.4 75.7 " fill="#000000"/>
<path class="atom-28" d="M 225.7 93.0 L 226.7 93.0 L 226.7 96.1 L 230.5 96.1 L 230.5 93.0 L 231.5 93.0 L 231.5 100.4 L 230.5 100.4 L 230.5 97.0 L 226.7 97.0 L 226.7 100.4 L 225.7 100.4 L 225.7 93.0 " fill="#000000"/>
<path class="atom-29" d="M 149.1 101.4 L 150.1 101.4 L 150.1 104.5 L 153.9 104.5 L 153.9 101.4 L 154.9 101.4 L 154.9 108.7 L 153.9 108.7 L 153.9 105.3 L 150.1 105.3 L 150.1 108.7 L 149.1 108.7 L 149.1 101.4 " fill="#000000"/>
<path class="atom-30" d="M 174.9 77.9 L 175.9 77.9 L 175.9 81.1 L 179.7 81.1 L 179.7 77.9 L 180.7 77.9 L 180.7 85.3 L 179.7 85.3 L 179.7 81.9 L 175.9 81.9 L 175.9 85.3 L 174.9 85.3 L 174.9 77.9 " fill="#000000"/>
<path class="atom-31" d="M 170.1 207.6 L 171.1 207.6 L 171.1 210.8 L 174.8 210.8 L 174.8 207.6 L 175.8 207.6 L 175.8 215.0 L 174.8 215.0 L 174.8 211.6 L 171.1 211.6 L 171.1 215.0 L 170.1 215.0 L 170.1 207.6 " fill="#000000"/>
<path class="atom-32" d="M 133.7 179.0 L 134.7 179.0 L 134.7 182.1 L 138.5 182.1 L 138.5 179.0 L 139.5 179.0 L 139.5 186.4 L 138.5 186.4 L 138.5 183.0 L 134.7 183.0 L 134.7 186.4 L 133.7 186.4 L 133.7 179.0 " fill="#000000"/>
<path class="atom-33" d="M 79.4 103.8 L 80.4 103.8 L 80.4 106.9 L 84.2 106.9 L 84.2 103.8 L 85.2 103.8 L 85.2 111.2 L 84.2 111.2 L 84.2 107.8 L 80.4 107.8 L 80.4 111.2 L 79.4 111.2 L 79.4 103.8 " fill="#000000"/>
<path class="atom-34" d="M 34.6 182.1 L 35.6 182.1 L 35.6 185.3 L 39.4 185.3 L 39.4 182.1 L 40.4 182.1 L 40.4 189.5 L 39.4 189.5 L 39.4 186.1 L 35.6 186.1 L 35.6 189.5 L 34.6 189.5 L 34.6 182.1 " fill="#000000"/>
<path class="atom-35" d="M 115.9 179.1 L 116.9 179.1 L 116.9 182.2 L 120.7 182.2 L 120.7 179.1 L 121.7 179.1 L 121.7 186.4 L 120.7 186.4 L 120.7 183.0 L 116.9 183.0 L 116.9 186.4 L 115.9 186.4 L 115.9 179.1 " fill="#000000"/>
<path class="atom-36" d="M 250.6 171.7 L 251.6 171.7 L 251.6 174.8 L 255.4 174.8 L 255.4 171.7 L 256.4 171.7 L 256.4 179.1 L 255.4 179.1 L 255.4 175.7 L 251.6 175.7 L 251.6 179.1 L 250.6 179.1 L 250.6 171.7 " fill="#000000"/>
<path class="bond-0 atom-0 atom-1" d="M 528.0,157.7 L 522.2,149.2" style="fill:none;fill-rule:evenodd;stroke:#FF0000;stroke-width:2.0px;stroke-linecap:butt;stroke-linejoin:miter;stroke-opacity:1"/>
<path class="bond-0 atom-0 atom-1" d="M 522.2,149.2 L 516.3,140.8" style="fill:none;fill-rule:evenodd;stroke:#000000;stroke-width:2.0px;stroke-linecap:butt;stroke-linejoin:miter;stroke-opacity:1"/>
<path class="bond-1 atom-0 atom-26" d="M 535.4,161.9 L 544.4,161.1" style="fill:none;fill-rule:evenodd;stroke:#FF0000;stroke-width:2.0px;stroke-linecap:butt;stroke-linejoin:miter;stroke-opacity:1"/>
<path class="bond-1 atom-0 atom-26" d="M 544.4,161.1 L 553.4,160.4" style="fill:none;fill-rule:evenodd;stroke:#000000;stroke-width:2.0px;stroke-linecap:butt;stroke-linejoin:miter;stroke-opacity:1"/>
<path class="bond-2 atom-1 atom-2" d="M 516.3,140.8 L 506.3,116.8" style="fill:none;fill-rule:evenodd;stroke:#000000;stroke-width:2.0px;stroke-linecap:butt;stroke-linejoin:miter;stroke-opacity:1"/>
<path class="bond-3 atom-1 atom-5" d="M 516.3,140.8 L 496.6,157.8" style="fill:none;fill-rule:evenodd;stroke:#000000;stroke-width:2.0px;stroke-linecap:butt;stroke-linejoin:miter;stroke-opacity:1"/>
<path class="bond-4 atom-1 atom-27" d="M 521.2,138.8 L 520.6,137.8" style="fill:none;fill-rule:evenodd;stroke:#000000;stroke-width:1.0px;stroke-linecap:butt;stroke-linejoin:miter;stroke-opacity:1"/>
<path class="bond-4 atom-1 atom-27" d="M 526.1,136.9 L 524.9,134.7" style="fill:none;fill-rule:evenodd;stroke:#000000;stroke-width:1.0px;stroke-linecap:butt;stroke-linejoin:miter;stroke-opacity:1"/>
<path class="bond-4 atom-1 atom-27" d="M 531.0,134.9 L 529.2,131.6" style="fill:none;fill-rule:evenodd;stroke:#000000;stroke-width:1.0px;stroke-linecap:butt;stroke-linejoin:miter;stroke-opacity:1"/>
<path class="bond-4 atom-1 atom-27" d="M 535.8,133.0 L 533.4,128.6" style="fill:none;fill-rule:evenodd;stroke:#000000;stroke-width:1.0px;stroke-linecap:butt;stroke-linejoin:miter;stroke-opacity:1"/>
<path class="bond-5 atom-2 atom-3" d="M 506.3,116.8 L 480.3,118.9" style="fill:none;fill-rule:evenodd;stroke:#000000;stroke-width:2.0px;stroke-linecap:butt;stroke-linejoin:miter;stroke-opacity:1"/>
<path class="bond-6 atom-2 atom-28" d="M 506.3,116.8 L 505.7,107.5" style="fill:none;fill-rule:evenodd;stroke:#000000;stroke-width:2.0px;stroke-linecap:butt;stroke-linejoin:miter;stroke-opacity:1"/>
<path class="bond-7 atom-2 atom-29" d="M 506.3,116.8 L 527.5,110.4" style="fill:none;fill-rule:evenodd;stroke:#000000;stroke-width:2.0px;stroke-linecap:butt;stroke-linejoin:miter;stroke-opacity:1"/>
<path class="bond-8 atom-3 atom-4" d="M 480.3,118.9 L 474.3,144.3" style="fill:none;fill-rule:evenodd;stroke:#000000;stroke-width:2.0px;stroke-linecap:butt;stroke-linejoin:miter;stroke-opacity:1"/>
<path class="bond-9 atom-3 atom-25" d="M 480.3,118.9 L 480.9,92.9" style="fill:none;fill-rule:evenodd;stroke:#000000;stroke-width:2.0px;stroke-linecap:butt;stroke-linejoin:miter;stroke-opacity:1"/>
<path class="bond-10 atom-3 atom-30" d="M 475.1,117.6 L 474.9,118.9" style="fill:none;fill-rule:evenodd;stroke:#000000;stroke-width:1.0px;stroke-linecap:butt;stroke-linejoin:miter;stroke-opacity:1"/>
<path class="bond-10 atom-3 atom-30" d="M 469.8,116.3 L 469.5,118.8" style="fill:none;fill-rule:evenodd;stroke:#000000;stroke-width:1.0px;stroke-linecap:butt;stroke-linejoin:miter;stroke-opacity:1"/>
<path class="bond-10 atom-3 atom-30" d="M 464.6,115.0 L 464.1,118.8" style="fill:none;fill-rule:evenodd;stroke:#000000;stroke-width:1.0px;stroke-linecap:butt;stroke-linejoin:miter;stroke-opacity:1"/>
<path class="bond-10 atom-3 atom-30" d="M 459.3,113.7 L 458.7,118.7" style="fill:none;fill-rule:evenodd;stroke:#000000;stroke-width:1.0px;stroke-linecap:butt;stroke-linejoin:miter;stroke-opacity:1"/>
<path class="bond-11 atom-4 atom-5" d="M 474.3,144.3 L 496.6,157.8" style="fill:none;fill-rule:evenodd;stroke:#000000;stroke-width:2.0px;stroke-linecap:butt;stroke-linejoin:miter;stroke-opacity:1"/>
<path class="bond-11 atom-4 atom-5" d="M 475.0,150.8 L 490.6,160.2" style="fill:none;fill-rule:evenodd;stroke:#000000;stroke-width:2.0px;stroke-linecap:butt;stroke-linejoin:miter;stroke-opacity:1"/>
<path class="bond-12 atom-4 atom-9" d="M 474.3,144.3 L 451.5,156.8" style="fill:none;fill-rule:evenodd;stroke:#000000;stroke-width:2.0px;stroke-linecap:butt;stroke-linejoin:miter;stroke-opacity:1"/>
<path class="bond-13 atom-5 atom-6" d="M 496.6,157.8 L 496.0,183.8" style="fill:none;fill-rule:evenodd;stroke:#000000;stroke-width:2.0px;stroke-linecap:butt;stroke-linejoin:miter;stroke-opacity:1"/>
<path class="bond-14 atom-6 atom-7" d="M 496.0,183.8 L 473.2,196.4" style="fill:none;fill-rule:evenodd;stroke:#000000;stroke-width:2.0px;stroke-linecap:butt;stroke-linejoin:miter;stroke-opacity:1"/>
<path class="bond-14 atom-6 atom-7" d="M 490.1,181.2 L 474.1,189.9" style="fill:none;fill-rule:evenodd;stroke:#000000;stroke-width:2.0px;stroke-linecap:butt;stroke-linejoin:miter;stroke-opacity:1"/>
<path class="bond-15 atom-6 atom-19" d="M 496.0,183.8 L 505.6,189.6" style="fill:none;fill-rule:evenodd;stroke:#000000;stroke-width:2.0px;stroke-linecap:butt;stroke-linejoin:miter;stroke-opacity:1"/>
<path class="bond-15 atom-6 atom-19" d="M 505.6,189.6 L 515.1,195.4" style="fill:none;fill-rule:evenodd;stroke:#CCCC00;stroke-width:2.0px;stroke-linecap:butt;stroke-linejoin:miter;stroke-opacity:1"/>
<path class="bond-16 atom-7 atom-8" d="M 473.2,196.4 L 450.9,182.8" style="fill:none;fill-rule:evenodd;stroke:#000000;stroke-width:2.0px;stroke-linecap:butt;stroke-linejoin:miter;stroke-opacity:1"/>
<path class="bond-17 atom-7 atom-31" d="M 473.2,196.4 L 472.7,217.9" style="fill:none;fill-rule:evenodd;stroke:#000000;stroke-width:2.0px;stroke-linecap:butt;stroke-linejoin:miter;stroke-opacity:1"/>
<path class="bond-18 atom-8 atom-9" d="M 450.9,182.8 L 451.5,156.8" style="fill:none;fill-rule:evenodd;stroke:#000000;stroke-width:2.0px;stroke-linecap:butt;stroke-linejoin:miter;stroke-opacity:1"/>
<path class="bond-18 atom-8 atom-9" d="M 456.2,179.1 L 456.6,160.8" style="fill:none;fill-rule:evenodd;stroke:#000000;stroke-width:2.0px;stroke-linecap:butt;stroke-linejoin:miter;stroke-opacity:1"/>
<path class="bond-19 atom-8 atom-32" d="M 450.9,182.8 L 440.8,190.2" style="fill:none;fill-rule:evenodd;stroke:#000000;stroke-width:2.0px;stroke-linecap:butt;stroke-linejoin:miter;stroke-opacity:1"/>
<path class="bond-20 atom-9 atom-10" d="M 451.5,156.8 L 442.5,151.3" style="fill:none;fill-rule:evenodd;stroke:#000000;stroke-width:2.0px;stroke-linecap:butt;stroke-linejoin:miter;stroke-opacity:1"/>
<path class="bond-20 atom-9 atom-10" d="M 442.5,151.3 L 433.4,145.8" style="fill:none;fill-rule:evenodd;stroke:#FF0000;stroke-width:2.0px;stroke-linecap:butt;stroke-linejoin:miter;stroke-opacity:1"/>
<path class="bond-21 atom-10 atom-11" d="M 425.0,145.6 L 415.7,150.7" style="fill:none;fill-rule:evenodd;stroke:#FF0000;stroke-width:2.0px;stroke-linecap:butt;stroke-linejoin:miter;stroke-opacity:1"/>
<path class="bond-21 atom-10 atom-11" d="M 415.7,150.7 L 406.4,155.8" style="fill:none;fill-rule:evenodd;stroke:#000000;stroke-width:2.0px;stroke-linecap:butt;stroke-linejoin:miter;stroke-opacity:1"/>
<path class="bond-22 atom-11 atom-12" d="M 406.4,155.8 L 384.1,142.3" style="fill:none;fill-rule:evenodd;stroke:#000000;stroke-width:2.0px;stroke-linecap:butt;stroke-linejoin:miter;stroke-opacity:1"/>
<path class="bond-22 atom-11 atom-12" d="M 400.3,158.2 L 384.8,148.8" style="fill:none;fill-rule:evenodd;stroke:#000000;stroke-width:2.0px;stroke-linecap:butt;stroke-linejoin:miter;stroke-opacity:1"/>
<path class="bond-23 atom-11 atom-18" d="M 406.4,155.8 L 405.8,181.9" style="fill:none;fill-rule:evenodd;stroke:#000000;stroke-width:2.0px;stroke-linecap:butt;stroke-linejoin:miter;stroke-opacity:1"/>
<path class="bond-24 atom-12 atom-13" d="M 384.1,142.3 L 361.3,154.8" style="fill:none;fill-rule:evenodd;stroke:#000000;stroke-width:2.0px;stroke-linecap:butt;stroke-linejoin:miter;stroke-opacity:1"/>
<path class="bond-25 atom-12 atom-33" d="M 384.1,142.3 L 384.6,120.8" style="fill:none;fill-rule:evenodd;stroke:#000000;stroke-width:2.0px;stroke-linecap:butt;stroke-linejoin:miter;stroke-opacity:1"/>
<path class="bond-26 atom-13 atom-14" d="M 361.3,154.8 L 351.7,149.0" style="fill:none;fill-rule:evenodd;stroke:#000000;stroke-width:2.0px;stroke-linecap:butt;stroke-linejoin:miter;stroke-opacity:1"/>
<path class="bond-26 atom-13 atom-14" d="M 351.7,149.0 L 342.0,143.1" style="fill:none;fill-rule:evenodd;stroke:#33CCCC;stroke-width:2.0px;stroke-linecap:butt;stroke-linejoin:miter;stroke-opacity:1"/>
<path class="bond-27 atom-13 atom-15" d="M 361.3,154.8 L 360.7,180.9" style="fill:none;fill-rule:evenodd;stroke:#000000;stroke-width:2.0px;stroke-linecap:butt;stroke-linejoin:miter;stroke-opacity:1"/>
<path class="bond-27 atom-13 atom-15" d="M 366.4,158.8 L 366.0,177.1" style="fill:none;fill-rule:evenodd;stroke:#000000;stroke-width:2.0px;stroke-linecap:butt;stroke-linejoin:miter;stroke-opacity:1"/>
<path class="bond-28 atom-15 atom-16" d="M 360.7,180.9 L 383.0,194.4" style="fill:none;fill-rule:evenodd;stroke:#000000;stroke-width:2.0px;stroke-linecap:butt;stroke-linejoin:miter;stroke-opacity:1"/>
<path class="bond-29 atom-15 atom-34" d="M 360.7,180.9 L 341.6,191.3" style="fill:none;fill-rule:evenodd;stroke:#000000;stroke-width:2.0px;stroke-linecap:butt;stroke-linejoin:miter;stroke-opacity:1"/>
<path class="bond-30 atom-16 atom-17" d="M 383.0,194.4 L 382.7,205.2" style="fill:none;fill-rule:evenodd;stroke:#000000;stroke-width:2.0px;stroke-linecap:butt;stroke-linejoin:miter;stroke-opacity:1"/>
<path class="bond-30 atom-16 atom-17" d="M 382.7,205.2 L 382.5,216.1" style="fill:none;fill-rule:evenodd;stroke:#00CC00;stroke-width:2.0px;stroke-linecap:butt;stroke-linejoin:miter;stroke-opacity:1"/>
<path class="bond-31 atom-16 atom-18" d="M 383.0,194.4 L 405.8,181.9" style="fill:none;fill-rule:evenodd;stroke:#000000;stroke-width:2.0px;stroke-linecap:butt;stroke-linejoin:miter;stroke-opacity:1"/>
<path class="bond-31 atom-16 atom-18" d="M 383.9,187.9 L 399.9,179.2" style="fill:none;fill-rule:evenodd;stroke:#000000;stroke-width:2.0px;stroke-linecap:butt;stroke-linejoin:miter;stroke-opacity:1"/>
<path class="bond-32 atom-18 atom-35" d="M 405.8,181.9 L 415.5,189.5" style="fill:none;fill-rule:evenodd;stroke:#000000;stroke-width:2.0px;stroke-linecap:butt;stroke-linejoin:miter;stroke-opacity:1"/>
<path class="bond-33 atom-19 atom-20" d="M 517.7,203.4 L 513.7,209.9" style="fill:none;fill-rule:evenodd;stroke:#CCCC00;stroke-width:2.0px;stroke-linecap:butt;stroke-linejoin:miter;stroke-opacity:1"/>
<path class="bond-33 atom-19 atom-20" d="M 513.7,209.9 L 509.8,216.4" style="fill:none;fill-rule:evenodd;stroke:#FF0000;stroke-width:2.0px;stroke-linecap:butt;stroke-linejoin:miter;stroke-opacity:1"/>
<path class="bond-33 atom-19 atom-20" d="M 513.2,200.7 L 509.3,207.2" style="fill:none;fill-rule:evenodd;stroke:#CCCC00;stroke-width:2.0px;stroke-linecap:butt;stroke-linejoin:miter;stroke-opacity:1"/>
<path class="bond-33 atom-19 atom-20" d="M 509.3,207.2 L 505.3,213.7" style="fill:none;fill-rule:evenodd;stroke:#FF0000;stroke-width:2.0px;stroke-linecap:butt;stroke-linejoin:miter;stroke-opacity:1"/>
<path class="bond-34 atom-19 atom-21" d="M 519.7,192.4 L 525.2,186.9" style="fill:none;fill-rule:evenodd;stroke:#CCCC00;stroke-width:2.0px;stroke-linecap:butt;stroke-linejoin:miter;stroke-opacity:1"/>
<path class="bond-34 atom-19 atom-21" d="M 525.2,186.9 L 530.8,181.4" style="fill:none;fill-rule:evenodd;stroke:#FF0000;stroke-width:2.0px;stroke-linecap:butt;stroke-linejoin:miter;stroke-opacity:1"/>
<path class="bond-34 atom-19 atom-21" d="M 523.3,196.1 L 528.9,190.6" style="fill:none;fill-rule:evenodd;stroke:#CCCC00;stroke-width:2.0px;stroke-linecap:butt;stroke-linejoin:miter;stroke-opacity:1"/>
<path class="bond-34 atom-19 atom-21" d="M 528.9,190.6 L 534.4,185.1" style="fill:none;fill-rule:evenodd;stroke:#FF0000;stroke-width:2.0px;stroke-linecap:butt;stroke-linejoin:miter;stroke-opacity:1"/>
<path class="bond-35 atom-19 atom-22" d="M 521.5,199.3 L 531.0,205.1" style="fill:none;fill-rule:evenodd;stroke:#CCCC00;stroke-width:2.0px;stroke-linecap:butt;stroke-linejoin:miter;stroke-opacity:1"/>
<path class="bond-35 atom-19 atom-22" d="M 531.0,205.1 L 540.6,210.9" style="fill:none;fill-rule:evenodd;stroke:#000000;stroke-width:2.0px;stroke-linecap:butt;stroke-linejoin:miter;stroke-opacity:1"/>
<path class="bond-36 atom-22 atom-23" d="M 540.6,210.9 L 545.9,202.0" style="fill:none;fill-rule:evenodd;stroke:#000000;stroke-width:2.0px;stroke-linecap:butt;stroke-linejoin:miter;stroke-opacity:1"/>
<path class="bond-36 atom-22 atom-23" d="M 545.9,202.0 L 551.3,193.1" style="fill:none;fill-rule:evenodd;stroke:#33CCCC;stroke-width:2.0px;stroke-linecap:butt;stroke-linejoin:miter;stroke-opacity:1"/>
<path class="bond-37 atom-22 atom-24" d="M 540.6,210.9 L 550.2,216.7" style="fill:none;fill-rule:evenodd;stroke:#000000;stroke-width:2.0px;stroke-linecap:butt;stroke-linejoin:miter;stroke-opacity:1"/>
<path class="bond-37 atom-22 atom-24" d="M 550.2,216.7 L 559.8,222.6" style="fill:none;fill-rule:evenodd;stroke:#33CCCC;stroke-width:2.0px;stroke-linecap:butt;stroke-linejoin:miter;stroke-opacity:1"/>
<path class="bond-38 atom-22 atom-36" d="M 540.6,210.9 L 529.8,228.6" style="fill:none;fill-rule:evenodd;stroke:#000000;stroke-width:2.0px;stroke-linecap:butt;stroke-linejoin:miter;stroke-opacity:1"/>
<path class="bond-39 atom-25 atom-37" d="M 480.9,92.9 L 458.6,92.4" style="fill:none;fill-rule:evenodd;stroke:#000000;stroke-width:2.0px;stroke-linecap:butt;stroke-linejoin:miter;stroke-opacity:1"/>
<path class="bond-40 atom-25 atom-38" d="M 480.9,92.9 L 491.0,91.9" style="fill:none;fill-rule:evenodd;stroke:#000000;stroke-width:2.0px;stroke-linecap:butt;stroke-linejoin:miter;stroke-opacity:1"/>
<path class="bond-41 atom-25 atom-39" d="M 480.9,92.9 L 481.4,71.4" style="fill:none;fill-rule:evenodd;stroke:#000000;stroke-width:2.0px;stroke-linecap:butt;stroke-linejoin:miter;stroke-opacity:1"/>
<path class="atom-0" d="M 527.8 162.2 Q 527.8 160.5, 528.7 159.5 Q 529.5 158.5, 531.2 158.5 Q 532.8 158.5, 533.7 159.5 Q 534.6 160.5, 534.6 162.2 Q 534.6 164.0, 533.7 165.0 Q 532.8 166.1, 531.2 166.1 Q 529.6 166.1, 528.7 165.0 Q 527.8 164.0, 527.8 162.2 M 531.2 165.2 Q 532.3 165.2, 532.9 164.5 Q 533.5 163.7, 533.5 162.2 Q 533.5 160.8, 532.9 160.1 Q 532.3 159.3, 531.2 159.3 Q 530.1 159.3, 529.4 160.0 Q 528.8 160.8, 528.8 162.2 Q 528.8 163.7, 529.4 164.5 Q 530.1 165.2, 531.2 165.2 " fill="#FF0000"/>
<path class="atom-10" d="M 425.8 143.3 Q 425.8 141.5, 426.7 140.5 Q 427.6 139.6, 429.2 139.6 Q 430.9 139.6, 431.7 140.5 Q 432.6 141.5, 432.6 143.3 Q 432.6 145.1, 431.7 146.1 Q 430.8 147.1, 429.2 147.1 Q 427.6 147.1, 426.7 146.1 Q 425.8 145.1, 425.8 143.3 M 429.2 146.3 Q 430.4 146.3, 431.0 145.5 Q 431.6 144.8, 431.6 143.3 Q 431.6 141.9, 431.0 141.1 Q 430.4 140.4, 429.2 140.4 Q 428.1 140.4, 427.5 141.1 Q 426.9 141.8, 426.9 143.3 Q 426.9 144.8, 427.5 145.5 Q 428.1 146.3, 429.2 146.3 " fill="#FF0000"/>
<path class="atom-14" d="M 336.8 137.6 L 341.2 137.6 L 341.2 138.4 L 337.8 138.4 L 337.8 140.7 L 340.8 140.7 L 340.8 141.5 L 337.8 141.5 L 337.8 145.0 L 336.8 145.0 L 336.8 137.6 " fill="#33CCCC"/>
<path class="atom-17" d="M 379.6 220.7 Q 379.6 218.8, 380.4 217.9 Q 381.3 216.9, 382.9 216.9 Q 384.4 216.9, 385.2 218.0 L 384.6 218.5 Q 384.0 217.8, 382.9 217.8 Q 381.8 217.8, 381.2 218.5 Q 380.6 219.3, 380.6 220.7 Q 380.6 222.1, 381.2 222.9 Q 381.8 223.6, 383.0 223.6 Q 383.8 223.6, 384.8 223.1 L 385.1 223.9 Q 384.7 224.2, 384.1 224.3 Q 383.5 224.5, 382.9 224.5 Q 381.3 224.5, 380.4 223.5 Q 379.6 222.5, 379.6 220.7 " fill="#00CC00"/>
<path class="atom-17" d="M 385.7 216.5 L 386.6 216.5 L 386.6 224.4 L 385.7 224.4 L 385.7 216.5 " fill="#00CC00"/>
<path class="atom-19" d="M 516.2 199.9 Q 516.3 199.9, 516.6 200.1 Q 517.0 200.2, 517.4 200.3 Q 517.7 200.4, 518.1 200.4 Q 518.8 200.4, 519.2 200.1 Q 519.6 199.7, 519.6 199.1 Q 519.6 198.7, 519.4 198.5 Q 519.2 198.2, 518.9 198.1 Q 518.6 198.0, 518.1 197.8 Q 517.4 197.6, 517.0 197.4 Q 516.6 197.2, 516.4 196.8 Q 516.1 196.4, 516.1 195.8 Q 516.1 194.8, 516.7 194.3 Q 517.3 193.7, 518.6 193.7 Q 519.4 193.7, 520.4 194.1 L 520.2 194.9 Q 519.3 194.5, 518.6 194.5 Q 517.9 194.5, 517.5 194.8 Q 517.1 195.1, 517.1 195.6 Q 517.1 196.0, 517.3 196.3 Q 517.5 196.5, 517.8 196.6 Q 518.1 196.8, 518.6 196.9 Q 519.3 197.1, 519.7 197.4 Q 520.1 197.6, 520.4 198.0 Q 520.7 198.4, 520.7 199.1 Q 520.7 200.1, 520.0 200.7 Q 519.3 201.2, 518.2 201.2 Q 517.5 201.2, 517.0 201.1 Q 516.5 201.0, 515.9 200.7 L 516.2 199.9 " fill="#CCCC00"/>
<path class="atom-20" d="M 501.4 219.7 Q 501.4 217.9, 502.3 216.9 Q 503.1 215.9, 504.8 215.9 Q 506.4 215.9, 507.3 216.9 Q 508.2 217.9, 508.2 219.7 Q 508.2 221.4, 507.3 222.5 Q 506.4 223.5, 504.8 223.5 Q 503.1 223.5, 502.3 222.5 Q 501.4 221.5, 501.4 219.7 M 504.8 222.6 Q 505.9 222.6, 506.5 221.9 Q 507.1 221.1, 507.1 219.7 Q 507.1 218.2, 506.5 217.5 Q 505.9 216.7, 504.8 216.7 Q 503.6 216.7, 503.0 217.5 Q 502.4 218.2, 502.4 219.7 Q 502.4 221.1, 503.0 221.9 Q 503.6 222.6, 504.8 222.6 " fill="#FF0000"/>
<path class="atom-21" d="M 533.4 179.1 Q 533.4 177.3, 534.3 176.3 Q 535.2 175.3, 536.8 175.3 Q 538.4 175.3, 539.3 176.3 Q 540.2 177.3, 540.2 179.1 Q 540.2 180.8, 539.3 181.9 Q 538.4 182.9, 536.8 182.9 Q 535.2 182.9, 534.3 181.9 Q 533.4 180.9, 533.4 179.1 M 536.8 182.0 Q 537.9 182.0, 538.5 181.3 Q 539.1 180.5, 539.1 179.1 Q 539.1 177.6, 538.5 176.9 Q 537.9 176.1, 536.8 176.1 Q 535.7 176.1, 535.1 176.9 Q 534.5 177.6, 534.5 179.1 Q 534.5 180.5, 535.1 181.3 Q 535.7 182.0, 536.8 182.0 " fill="#FF0000"/>
<path class="atom-23" d="M 551.9 184.9 L 556.3 184.9 L 556.3 185.8 L 552.9 185.8 L 552.9 188.0 L 555.9 188.0 L 555.9 188.9 L 552.9 188.9 L 552.9 192.3 L 551.9 192.3 L 551.9 184.9 " fill="#33CCCC"/>
<path class="atom-24" d="M 560.6 220.7 L 565.0 220.7 L 565.0 221.6 L 561.6 221.6 L 561.6 223.8 L 564.6 223.8 L 564.6 224.7 L 561.6 224.7 L 561.6 228.1 L 560.6 228.1 L 560.6 220.7 " fill="#33CCCC"/>
<path class="atom-26" d="M 554.3 156.4 L 555.3 156.4 L 555.3 159.5 L 559.0 159.5 L 559.0 156.4 L 560.0 156.4 L 560.0 163.8 L 559.0 163.8 L 559.0 160.3 L 555.3 160.3 L 555.3 163.8 L 554.3 163.8 L 554.3 156.4 " fill="#000000"/>
<path class="atom-27" d="M 536.3 124.6 L 537.3 124.6 L 537.3 127.7 L 541.1 127.7 L 541.1 124.6 L 542.1 124.6 L 542.1 132.0 L 541.1 132.0 L 541.1 128.6 L 537.3 128.6 L 537.3 132.0 L 536.3 132.0 L 536.3 124.6 " fill="#000000"/>
<path class="atom-28" d="M 502.5 99.3 L 503.5 99.3 L 503.5 102.4 L 507.3 102.4 L 507.3 99.3 L 508.3 99.3 L 508.3 106.7 L 507.3 106.7 L 507.3 103.3 L 503.5 103.3 L 503.5 106.7 L 502.5 106.7 L 502.5 99.3 " fill="#000000"/>
<path class="atom-29" d="M 528.3 105.6 L 529.3 105.6 L 529.3 108.7 L 533.1 108.7 L 533.1 105.6 L 534.1 105.6 L 534.1 113.0 L 533.1 113.0 L 533.1 109.6 L 529.3 109.6 L 529.3 113.0 L 528.3 113.0 L 528.3 105.6 " fill="#000000"/>
<path class="atom-30" d="M 451.6 111.9 L 452.6 111.9 L 452.6 115.1 L 456.4 115.1 L 456.4 111.9 L 457.4 111.9 L 457.4 119.3 L 456.4 119.3 L 456.4 115.9 L 452.6 115.9 L 452.6 119.3 L 451.6 119.3 L 451.6 111.9 " fill="#000000"/>
<path class="atom-31" d="M 469.7 218.7 L 470.7 218.7 L 470.7 221.9 L 474.5 221.9 L 474.5 218.7 L 475.5 218.7 L 475.5 226.1 L 474.5 226.1 L 474.5 222.7 L 470.7 222.7 L 470.7 226.1 L 469.7 226.1 L 469.7 218.7 " fill="#000000"/>
<path class="atom-32" d="M 434.2 189.1 L 435.2 189.1 L 435.2 192.3 L 438.9 192.3 L 438.9 189.1 L 439.9 189.1 L 439.9 196.5 L 438.9 196.5 L 438.9 193.1 L 435.2 193.1 L 435.2 196.5 L 434.2 196.5 L 434.2 189.1 " fill="#000000"/>
<path class="atom-33" d="M 381.8 112.6 L 382.8 112.6 L 382.8 115.7 L 386.6 115.7 L 386.6 112.6 L 387.6 112.6 L 387.6 119.9 L 386.6 119.9 L 386.6 116.5 L 382.8 116.5 L 382.8 119.9 L 381.8 119.9 L 381.8 112.6 " fill="#000000"/>
<path class="atom-34" d="M 335.0 189.7 L 336.0 189.7 L 336.0 192.8 L 339.8 192.8 L 339.8 189.7 L 340.8 189.7 L 340.8 197.1 L 339.8 197.1 L 339.8 193.7 L 336.0 193.7 L 336.0 197.1 L 335.0 197.1 L 335.0 189.7 " fill="#000000"/>
<path class="atom-35" d="M 416.3 188.7 L 417.3 188.7 L 417.3 191.9 L 421.1 191.9 L 421.1 188.7 L 422.1 188.7 L 422.1 196.1 L 421.1 196.1 L 421.1 192.7 L 417.3 192.7 L 417.3 196.1 L 416.3 196.1 L 416.3 188.7 " fill="#000000"/>
<path class="atom-36" d="M 524.2 229.5 L 525.2 229.5 L 525.2 232.6 L 528.9 232.6 L 528.9 229.5 L 529.9 229.5 L 529.9 236.8 L 528.9 236.8 L 528.9 233.4 L 525.2 233.4 L 525.2 236.8 L 524.2 236.8 L 524.2 229.5 " fill="#000000"/>
<path class="atom-37" d="M 452.0 88.6 L 453.0 88.6 L 453.0 91.8 L 456.7 91.8 L 456.7 88.6 L 457.7 88.6 L 457.7 96.0 L 456.7 96.0 L 456.7 92.6 L 453.0 92.6 L 453.0 96.0 L 452.0 96.0 L 452.0 88.6 " fill="#000000"/>
<path class="atom-38" d="M 491.8 87.8 L 492.8 87.8 L 492.8 91.0 L 496.6 91.0 L 496.6 87.8 L 497.6 87.8 L 497.6 95.2 L 496.6 95.2 L 496.6 91.8 L 492.8 91.8 L 492.8 95.2 L 491.8 95.2 L 491.8 87.8 " fill="#000000"/>
<path class="atom-39" d="M 478.6 63.2 L 479.6 63.2 L 479.6 66.3 L 483.4 66.3 L 483.4 63.2 L 484.4 63.2 L 484.4 70.5 L 483.4 70.5 L 483.4 67.1 L 479.6 67.1 L 479.6 70.5 L 478.6 70.5 L 478.6 63.2 " fill="#000000"/>
<text x="300" y="20" font-size="20" font-family="sans-serif" font-weight="normal" letter-spacing="0" text-anchor="middle" fill="black">hif2a: 1 -&gt; 7a</text><text x="300" y="35" font-size="15" font-family="sans-serif" font-weight="normal" letter-spacing="0" text-anchor="middle" fill="black"></text><text x="150" y="285" font-size="15" font-family="sans-serif" font-weight="normal" letter-spacing="0" text-anchor="middle" fill="black">1</text><text x="450" y="285" font-size="15" font-family="sans-serif" font-weight="normal" letter-spacing="0" text-anchor="middle" fill="black">7a</text></svg>
