<?xml version='1.0' encoding='ASCII' standalone='yes'?>
<svg xmlns="http://www.w3.org/2000/svg" xmlns:rdkit="http://www.rdkit.org/xml" xmlns:xlink="http://www.w3.org/1999/xlink" version="1.1" baseProfile="full" xml:space="preserve" width="600px" height="300px" viewBox="0 0 600 300">
<!-- END OF HEADER -->
<rect style="opacity:1.0;fill:#FFFFFF;stroke:none" width="600.0" height="300.0" x="0.0" y="0.0"> </rect>
<path class="bond-0 atom-0 atom-1" d="M 98.3,177.1 L 107.6,178.4" style="fill:none;fill-rule:evenodd;stroke:#FF0000;stroke-width:2.0px;stroke-linecap:butt;stroke-linejoin:miter;stroke-opacity:1"/>
<path class="bond-0 atom-0 atom-1" d="M 107.6,178.4 L 116.8,179.8" style="fill:none;fill-rule:evenodd;stroke:#000000;stroke-width:2.0px;stroke-linecap:butt;stroke-linejoin:miter;stroke-opacity:1"/>
<path class="bond-1 atom-0 atom-26" d="M 91.5,180.6 L 87.7,185.4" style="fill:none;fill-rule:evenodd;stroke:#FF0000;stroke-width:2.0px;stroke-linecap:butt;stroke-linejoin:miter;stroke-opacity:1"/>
<path class="bond-1 atom-0 atom-26" d="M 87.7,185.4 L 83.9,190.2" style="fill:none;fill-rule:evenodd;stroke:#000000;stroke-width:2.0px;stroke-linecap:butt;stroke-linejoin:miter;stroke-opacity:1"/>
<path class="bond-2 atom-1 atom-2" d="M 116.8,179.8 L 137.8,187.6" style="fill:none;fill-rule:evenodd;stroke:#000000;stroke-width:2.0px;stroke-linecap:butt;stroke-linejoin:miter;stroke-opacity:1"/>
<path class="bond-3 atom-1 atom-5" d="M 116.8,179.8 L 117.7,157.4" style="fill:none;fill-rule:evenodd;stroke:#000000;stroke-width:2.0px;stroke-linecap:butt;stroke-linejoin:miter;stroke-opacity:1"/>
<path class="bond-4 atom-1 atom-27" d="M 114.7,185.3 L 116.1,185.7" style="fill:none;fill-rule:evenodd;stroke:#000000;stroke-width:1.0px;stroke-linecap:butt;stroke-linejoin:miter;stroke-opacity:1"/>
<path class="bond-4 atom-1 atom-27" d="M 112.5,190.8 L 115.3,191.5" style="fill:none;fill-rule:evenodd;stroke:#000000;stroke-width:1.0px;stroke-linecap:butt;stroke-linejoin:miter;stroke-opacity:1"/>
<path class="bond-4 atom-1 atom-27" d="M 110.4,196.3 L 114.6,197.4" style="fill:none;fill-rule:evenodd;stroke:#000000;stroke-width:1.0px;stroke-linecap:butt;stroke-linejoin:miter;stroke-opacity:1"/>
<path class="bond-5 atom-2 atom-3" d="M 137.8,187.6 L 151.7,170.0" style="fill:none;fill-rule:evenodd;stroke:#000000;stroke-width:2.0px;stroke-linecap:butt;stroke-linejoin:miter;stroke-opacity:1"/>
<path class="bond-6 atom-2 atom-22" d="M 137.8,187.6 L 133.8,195.6" style="fill:none;fill-rule:evenodd;stroke:#000000;stroke-width:2.0px;stroke-linecap:butt;stroke-linejoin:miter;stroke-opacity:1"/>
<path class="bond-6 atom-2 atom-22" d="M 133.8,195.6 L 129.8,203.7" style="fill:none;fill-rule:evenodd;stroke:#33CCCC;stroke-width:2.0px;stroke-linecap:butt;stroke-linejoin:miter;stroke-opacity:1"/>
<path class="bond-7 atom-2 atom-28" d="M 142.4,191.3 L 143.2,190.1" style="fill:none;fill-rule:evenodd;stroke:#000000;stroke-width:1.0px;stroke-linecap:butt;stroke-linejoin:miter;stroke-opacity:1"/>
<path class="bond-7 atom-2 atom-28" d="M 147.0,195.1 L 148.6,192.6" style="fill:none;fill-rule:evenodd;stroke:#000000;stroke-width:1.0px;stroke-linecap:butt;stroke-linejoin:miter;stroke-opacity:1"/>
<path class="bond-7 atom-2 atom-28" d="M 151.6,198.9 L 154.0,195.2" style="fill:none;fill-rule:evenodd;stroke:#000000;stroke-width:1.0px;stroke-linecap:butt;stroke-linejoin:miter;stroke-opacity:1"/>
<path class="bond-8 atom-3 atom-4" d="M 151.7,170.0 L 139.3,151.4" style="fill:none;fill-rule:evenodd;stroke:#000000;stroke-width:2.0px;stroke-linecap:butt;stroke-linejoin:miter;stroke-opacity:1"/>
<path class="bond-9 atom-3 atom-24" d="M 151.7,170.0 L 158.4,176.5" style="fill:none;fill-rule:evenodd;stroke:#000000;stroke-width:2.0px;stroke-linecap:butt;stroke-linejoin:miter;stroke-opacity:1"/>
<path class="bond-9 atom-3 atom-24" d="M 158.4,176.5 L 165.1,183.1" style="fill:none;fill-rule:evenodd;stroke:#33CCCC;stroke-width:2.0px;stroke-linecap:butt;stroke-linejoin:miter;stroke-opacity:1"/>
<path class="bond-10 atom-3 atom-29" d="M 154.3,169.6 L 153.6,168.2" style="fill:none;fill-rule:evenodd;stroke:#000000;stroke-width:1.0px;stroke-linecap:butt;stroke-linejoin:miter;stroke-opacity:1"/>
<path class="bond-10 atom-3 atom-29" d="M 156.8,169.1 L 155.6,166.5" style="fill:none;fill-rule:evenodd;stroke:#000000;stroke-width:1.0px;stroke-linecap:butt;stroke-linejoin:miter;stroke-opacity:1"/>
<path class="bond-10 atom-3 atom-29" d="M 159.4,168.7 L 157.5,164.8" style="fill:none;fill-rule:evenodd;stroke:#000000;stroke-width:1.0px;stroke-linecap:butt;stroke-linejoin:miter;stroke-opacity:1"/>
<path class="bond-11 atom-4 atom-5" d="M 139.3,151.4 L 117.7,157.4" style="fill:none;fill-rule:evenodd;stroke:#000000;stroke-width:2.0px;stroke-linecap:butt;stroke-linejoin:miter;stroke-opacity:1"/>
<path class="bond-11 atom-4 atom-5" d="M 134.8,148.0 L 119.7,152.2" style="fill:none;fill-rule:evenodd;stroke:#000000;stroke-width:2.0px;stroke-linecap:butt;stroke-linejoin:miter;stroke-opacity:1"/>
<path class="bond-12 atom-4 atom-9" d="M 139.3,151.4 L 144.8,129.7" style="fill:none;fill-rule:evenodd;stroke:#000000;stroke-width:2.0px;stroke-linecap:butt;stroke-linejoin:miter;stroke-opacity:1"/>
<path class="bond-13 atom-5 atom-6" d="M 117.7,157.4 L 101.7,141.8" style="fill:none;fill-rule:evenodd;stroke:#000000;stroke-width:2.0px;stroke-linecap:butt;stroke-linejoin:miter;stroke-opacity:1"/>
<path class="bond-14 atom-6 atom-7" d="M 101.7,141.8 L 107.2,120.1" style="fill:none;fill-rule:evenodd;stroke:#000000;stroke-width:2.0px;stroke-linecap:butt;stroke-linejoin:miter;stroke-opacity:1"/>
<path class="bond-14 atom-6 atom-7" d="M 106.9,139.7 L 110.7,124.5" style="fill:none;fill-rule:evenodd;stroke:#000000;stroke-width:2.0px;stroke-linecap:butt;stroke-linejoin:miter;stroke-opacity:1"/>
<path class="bond-15 atom-6 atom-19" d="M 101.7,141.8 L 92.3,144.4" style="fill:none;fill-rule:evenodd;stroke:#000000;stroke-width:2.0px;stroke-linecap:butt;stroke-linejoin:miter;stroke-opacity:1"/>
<path class="bond-15 atom-6 atom-19" d="M 92.3,144.4 L 82.9,147.1" style="fill:none;fill-rule:evenodd;stroke:#CCCC00;stroke-width:2.0px;stroke-linecap:butt;stroke-linejoin:miter;stroke-opacity:1"/>
<path class="bond-16 atom-7 atom-8" d="M 107.2,120.1 L 128.8,114.1" style="fill:none;fill-rule:evenodd;stroke:#000000;stroke-width:2.0px;stroke-linecap:butt;stroke-linejoin:miter;stroke-opacity:1"/>
<path class="bond-17 atom-7 atom-30" d="M 107.2,120.1 L 94.4,107.6" style="fill:none;fill-rule:evenodd;stroke:#000000;stroke-width:2.0px;stroke-linecap:butt;stroke-linejoin:miter;stroke-opacity:1"/>
<path class="bond-18 atom-8 atom-9" d="M 128.8,114.1 L 144.8,129.7" style="fill:none;fill-rule:evenodd;stroke:#000000;stroke-width:2.0px;stroke-linecap:butt;stroke-linejoin:miter;stroke-opacity:1"/>
<path class="bond-18 atom-8 atom-9" d="M 128.1,119.6 L 139.3,130.6" style="fill:none;fill-rule:evenodd;stroke:#000000;stroke-width:2.0px;stroke-linecap:butt;stroke-linejoin:miter;stroke-opacity:1"/>
<path class="bond-19 atom-8 atom-31" d="M 128.8,114.1 L 133.3,96.3" style="fill:none;fill-rule:evenodd;stroke:#000000;stroke-width:2.0px;stroke-linecap:butt;stroke-linejoin:miter;stroke-opacity:1"/>
<path class="bond-20 atom-9 atom-10" d="M 144.8,129.7 L 153.7,127.2" style="fill:none;fill-rule:evenodd;stroke:#000000;stroke-width:2.0px;stroke-linecap:butt;stroke-linejoin:miter;stroke-opacity:1"/>
<path class="bond-20 atom-9 atom-10" d="M 153.7,127.2 L 162.7,124.7" style="fill:none;fill-rule:evenodd;stroke:#FF0000;stroke-width:2.0px;stroke-linecap:butt;stroke-linejoin:miter;stroke-opacity:1"/>
<path class="bond-21 atom-10 atom-11" d="M 170.0,127.2 L 176.2,133.2" style="fill:none;fill-rule:evenodd;stroke:#FF0000;stroke-width:2.0px;stroke-linecap:butt;stroke-linejoin:miter;stroke-opacity:1"/>
<path class="bond-21 atom-10 atom-11" d="M 176.2,133.2 L 182.3,139.3" style="fill:none;fill-rule:evenodd;stroke:#000000;stroke-width:2.0px;stroke-linecap:butt;stroke-linejoin:miter;stroke-opacity:1"/>
<path class="bond-22 atom-11 atom-12" d="M 182.3,139.3 L 176.8,160.9" style="fill:none;fill-rule:evenodd;stroke:#000000;stroke-width:2.0px;stroke-linecap:butt;stroke-linejoin:miter;stroke-opacity:1"/>
<path class="bond-22 atom-11 atom-12" d="M 185.9,143.6 L 182.0,158.8" style="fill:none;fill-rule:evenodd;stroke:#000000;stroke-width:2.0px;stroke-linecap:butt;stroke-linejoin:miter;stroke-opacity:1"/>
<path class="bond-23 atom-11 atom-18" d="M 182.3,139.3 L 203.9,133.2" style="fill:none;fill-rule:evenodd;stroke:#000000;stroke-width:2.0px;stroke-linecap:butt;stroke-linejoin:miter;stroke-opacity:1"/>
<path class="bond-24 atom-12 atom-13" d="M 176.8,160.9 L 192.8,176.6" style="fill:none;fill-rule:evenodd;stroke:#000000;stroke-width:2.0px;stroke-linecap:butt;stroke-linejoin:miter;stroke-opacity:1"/>
<path class="bond-25 atom-12 atom-32" d="M 176.8,160.9 L 169.7,165.0" style="fill:none;fill-rule:evenodd;stroke:#000000;stroke-width:2.0px;stroke-linecap:butt;stroke-linejoin:miter;stroke-opacity:1"/>
<path class="bond-26 atom-13 atom-14" d="M 192.8,176.6 L 190.6,185.5" style="fill:none;fill-rule:evenodd;stroke:#000000;stroke-width:2.0px;stroke-linecap:butt;stroke-linejoin:miter;stroke-opacity:1"/>
<path class="bond-26 atom-13 atom-14" d="M 190.6,185.5 L 188.3,194.4" style="fill:none;fill-rule:evenodd;stroke:#33CCCC;stroke-width:2.0px;stroke-linecap:butt;stroke-linejoin:miter;stroke-opacity:1"/>
<path class="bond-27 atom-13 atom-15" d="M 192.8,176.6 L 214.4,170.5" style="fill:none;fill-rule:evenodd;stroke:#000000;stroke-width:2.0px;stroke-linecap:butt;stroke-linejoin:miter;stroke-opacity:1"/>
<path class="bond-27 atom-13 atom-15" d="M 194.9,171.4 L 209.9,167.1" style="fill:none;fill-rule:evenodd;stroke:#000000;stroke-width:2.0px;stroke-linecap:butt;stroke-linejoin:miter;stroke-opacity:1"/>
<path class="bond-28 atom-15 atom-16" d="M 214.4,170.5 L 219.9,148.8" style="fill:none;fill-rule:evenodd;stroke:#000000;stroke-width:2.0px;stroke-linecap:butt;stroke-linejoin:miter;stroke-opacity:1"/>
<path class="bond-29 atom-15 atom-33" d="M 214.4,170.5 L 227.2,183.0" style="fill:none;fill-rule:evenodd;stroke:#000000;stroke-width:2.0px;stroke-linecap:butt;stroke-linejoin:miter;stroke-opacity:1"/>
<path class="bond-30 atom-16 atom-17" d="M 219.9,148.8 L 241.4,142.8" style="fill:none;fill-rule:evenodd;stroke:#000000;stroke-width:2.0px;stroke-linecap:butt;stroke-linejoin:miter;stroke-opacity:1"/>
<path class="bond-31 atom-16 atom-18" d="M 219.9,148.8 L 203.9,133.2" style="fill:none;fill-rule:evenodd;stroke:#000000;stroke-width:2.0px;stroke-linecap:butt;stroke-linejoin:miter;stroke-opacity:1"/>
<path class="bond-31 atom-16 atom-18" d="M 214.4,149.7 L 203.2,138.8" style="fill:none;fill-rule:evenodd;stroke:#000000;stroke-width:2.0px;stroke-linecap:butt;stroke-linejoin:miter;stroke-opacity:1"/>
<path class="bond-32 atom-17 atom-23" d="M 241.4,142.8 L 250.6,140.2" style="fill:none;fill-rule:evenodd;stroke:#000000;stroke-width:2.0px;stroke-linecap:butt;stroke-linejoin:miter;stroke-opacity:1"/>
<path class="bond-32 atom-17 atom-23" d="M 250.6,140.2 L 259.9,137.6" style="fill:none;fill-rule:evenodd;stroke:#0000FF;stroke-width:2.0px;stroke-linecap:butt;stroke-linejoin:miter;stroke-opacity:1"/>
<path class="bond-32 atom-17 atom-23" d="M 243.0,137.7 L 250.8,135.5" style="fill:none;fill-rule:evenodd;stroke:#000000;stroke-width:2.0px;stroke-linecap:butt;stroke-linejoin:miter;stroke-opacity:1"/>
<path class="bond-32 atom-17 atom-23" d="M 250.8,135.5 L 258.6,133.3" style="fill:none;fill-rule:evenodd;stroke:#0000FF;stroke-width:2.0px;stroke-linecap:butt;stroke-linejoin:miter;stroke-opacity:1"/>
<path class="bond-32 atom-17 atom-23" d="M 245.4,146.3 L 253.2,144.1" style="fill:none;fill-rule:evenodd;stroke:#000000;stroke-width:2.0px;stroke-linecap:butt;stroke-linejoin:miter;stroke-opacity:1"/>
<path class="bond-32 atom-17 atom-23" d="M 253.2,144.1 L 261.1,141.9" style="fill:none;fill-rule:evenodd;stroke:#0000FF;stroke-width:2.0px;stroke-linecap:butt;stroke-linejoin:miter;stroke-opacity:1"/>
<path class="bond-33 atom-18 atom-34" d="M 203.9,133.2 L 208.4,115.4" style="fill:none;fill-rule:evenodd;stroke:#000000;stroke-width:2.0px;stroke-linecap:butt;stroke-linejoin:miter;stroke-opacity:1"/>
<path class="bond-34 atom-19 atom-20" d="M 76.9,144.6 L 75.0,137.8" style="fill:none;fill-rule:evenodd;stroke:#CCCC00;stroke-width:2.0px;stroke-linecap:butt;stroke-linejoin:miter;stroke-opacity:1"/>
<path class="bond-34 atom-19 atom-20" d="M 75.0,137.8 L 73.1,131.0" style="fill:none;fill-rule:evenodd;stroke:#FF0000;stroke-width:2.0px;stroke-linecap:butt;stroke-linejoin:miter;stroke-opacity:1"/>
<path class="bond-34 atom-19 atom-20" d="M 81.2,143.4 L 79.3,136.6" style="fill:none;fill-rule:evenodd;stroke:#CCCC00;stroke-width:2.0px;stroke-linecap:butt;stroke-linejoin:miter;stroke-opacity:1"/>
<path class="bond-34 atom-19 atom-20" d="M 79.3,136.6 L 77.4,129.7" style="fill:none;fill-rule:evenodd;stroke:#FF0000;stroke-width:2.0px;stroke-linecap:butt;stroke-linejoin:miter;stroke-opacity:1"/>
<path class="bond-35 atom-19 atom-21" d="M 82.5,151.8 L 82.7,159.0" style="fill:none;fill-rule:evenodd;stroke:#CCCC00;stroke-width:2.0px;stroke-linecap:butt;stroke-linejoin:miter;stroke-opacity:1"/>
<path class="bond-35 atom-19 atom-21" d="M 82.7,159.0 L 83.0,166.2" style="fill:none;fill-rule:evenodd;stroke:#FF0000;stroke-width:2.0px;stroke-linecap:butt;stroke-linejoin:miter;stroke-opacity:1"/>
<path class="bond-35 atom-19 atom-21" d="M 78.1,152.0 L 78.3,159.2" style="fill:none;fill-rule:evenodd;stroke:#CCCC00;stroke-width:2.0px;stroke-linecap:butt;stroke-linejoin:miter;stroke-opacity:1"/>
<path class="bond-35 atom-19 atom-21" d="M 78.3,159.2 L 78.5,166.4" style="fill:none;fill-rule:evenodd;stroke:#FF0000;stroke-width:2.0px;stroke-linecap:butt;stroke-linejoin:miter;stroke-opacity:1"/>
<path class="bond-36 atom-19 atom-25" d="M 77.4,148.6 L 68.0,151.3" style="fill:none;fill-rule:evenodd;stroke:#CCCC00;stroke-width:2.0px;stroke-linecap:butt;stroke-linejoin:miter;stroke-opacity:1"/>
<path class="bond-36 atom-19 atom-25" d="M 68.0,151.3 L 58.6,153.9" style="fill:none;fill-rule:evenodd;stroke:#000000;stroke-width:2.0px;stroke-linecap:butt;stroke-linejoin:miter;stroke-opacity:1"/>
<path class="bond-37 atom-25 atom-35" d="M 58.6,153.9 L 63.6,171.6" style="fill:none;fill-rule:evenodd;stroke:#000000;stroke-width:2.0px;stroke-linecap:butt;stroke-linejoin:miter;stroke-opacity:1"/>
<path class="bond-38 atom-25 atom-36" d="M 58.6,153.9 L 53.7,136.3" style="fill:none;fill-rule:evenodd;stroke:#000000;stroke-width:2.0px;stroke-linecap:butt;stroke-linejoin:miter;stroke-opacity:1"/>
<path class="bond-39 atom-25 atom-37" d="M 58.6,153.9 L 40.3,159.1" style="fill:none;fill-rule:evenodd;stroke:#000000;stroke-width:2.0px;stroke-linecap:butt;stroke-linejoin:miter;stroke-opacity:1"/>
<path class="atom-0" d="M 91.8 176.6 Q 91.8 175.1, 92.5 174.2 Q 93.3 173.4, 94.7 173.4 Q 96.1 173.4, 96.8 174.2 Q 97.6 175.1, 97.6 176.6 Q 97.6 178.1, 96.8 179.0 Q 96.1 179.9, 94.7 179.9 Q 93.3 179.9, 92.5 179.0 Q 91.8 178.1, 91.8 176.6 M 94.7 179.1 Q 95.7 179.1, 96.2 178.5 Q 96.7 177.8, 96.7 176.6 Q 96.7 175.3, 96.2 174.7 Q 95.7 174.1, 94.7 174.1 Q 93.7 174.1, 93.2 174.7 Q 92.7 175.3, 92.7 176.6 Q 92.7 177.9, 93.2 178.5 Q 93.7 179.1, 94.7 179.1 " fill="#FF0000"/>
<path class="atom-10" d="M 163.4 123.7 Q 163.4 122.1, 164.2 121.3 Q 164.9 120.4, 166.3 120.4 Q 167.7 120.4, 168.5 121.3 Q 169.2 122.1, 169.2 123.7 Q 169.2 125.2, 168.5 126.1 Q 167.7 126.9, 166.3 126.9 Q 164.9 126.9, 164.2 126.1 Q 163.4 125.2, 163.4 123.7 M 166.3 126.2 Q 167.3 126.2, 167.8 125.6 Q 168.3 124.9, 168.3 123.7 Q 168.3 122.4, 167.8 121.8 Q 167.3 121.2, 166.3 121.2 Q 165.4 121.2, 164.8 121.8 Q 164.3 122.4, 164.3 123.7 Q 164.3 124.9, 164.8 125.6 Q 165.4 126.2, 166.3 126.2 " fill="#FF0000"/>
<path class="atom-14" d="M 185.4 195.1 L 189.2 195.1 L 189.2 195.8 L 186.3 195.8 L 186.3 197.7 L 188.9 197.7 L 188.9 198.5 L 186.3 198.5 L 186.3 201.4 L 185.4 201.4 L 185.4 195.1 " fill="#33CCCC"/>
<path class="atom-19" d="M 78.4 150.0 Q 78.5 150.1, 78.8 150.2 Q 79.0 150.3, 79.4 150.4 Q 79.7 150.5, 80.0 150.5 Q 80.6 150.5, 81.0 150.2 Q 81.3 149.9, 81.3 149.4 Q 81.3 149.0, 81.1 148.8 Q 81.0 148.6, 80.7 148.5 Q 80.4 148.4, 80.0 148.2 Q 79.4 148.1, 79.1 147.9 Q 78.8 147.7, 78.5 147.4 Q 78.3 147.1, 78.3 146.5 Q 78.3 145.7, 78.8 145.2 Q 79.4 144.7, 80.4 144.7 Q 81.2 144.7, 82.0 145.1 L 81.8 145.7 Q 81.0 145.4, 80.5 145.4 Q 79.8 145.4, 79.5 145.7 Q 79.2 145.9, 79.2 146.4 Q 79.2 146.7, 79.3 146.9 Q 79.5 147.1, 79.8 147.2 Q 80.0 147.4, 80.5 147.5 Q 81.0 147.7, 81.4 147.9 Q 81.7 148.0, 82.0 148.4 Q 82.2 148.8, 82.2 149.4 Q 82.2 150.3, 81.6 150.7 Q 81.0 151.2, 80.1 151.2 Q 79.5 151.2, 79.1 151.1 Q 78.6 150.9, 78.1 150.7 L 78.4 150.0 " fill="#CCCC00"/>
<path class="atom-20" d="M 71.2 126.3 Q 71.2 124.8, 72.0 124.0 Q 72.7 123.1, 74.1 123.1 Q 75.5 123.1, 76.3 124.0 Q 77.0 124.8, 77.0 126.3 Q 77.0 127.9, 76.3 128.8 Q 75.5 129.6, 74.1 129.6 Q 72.7 129.6, 72.0 128.8 Q 71.2 127.9, 71.2 126.3 M 74.1 128.9 Q 75.1 128.9, 75.6 128.3 Q 76.1 127.6, 76.1 126.3 Q 76.1 125.1, 75.6 124.5 Q 75.1 123.8, 74.1 123.8 Q 73.2 123.8, 72.6 124.5 Q 72.1 125.1, 72.1 126.3 Q 72.1 127.6, 72.6 128.3 Q 73.2 128.9, 74.1 128.9 " fill="#FF0000"/>
<path class="atom-21" d="M 77.9 170.2 Q 77.9 168.7, 78.7 167.9 Q 79.4 167.0, 80.8 167.0 Q 82.2 167.0, 83.0 167.9 Q 83.7 168.7, 83.7 170.2 Q 83.7 171.8, 83.0 172.7 Q 82.2 173.5, 80.8 173.5 Q 79.4 173.5, 78.7 172.7 Q 77.9 171.8, 77.9 170.2 M 80.8 172.8 Q 81.8 172.8, 82.3 172.2 Q 82.9 171.5, 82.9 170.2 Q 82.9 169.0, 82.3 168.4 Q 81.8 167.7, 80.8 167.7 Q 79.9 167.7, 79.3 168.4 Q 78.8 169.0, 78.8 170.2 Q 78.8 171.5, 79.3 172.2 Q 79.9 172.8, 80.8 172.8 " fill="#FF0000"/>
<path class="atom-22" d="M 126.0 204.4 L 129.8 204.4 L 129.8 205.2 L 126.9 205.2 L 126.9 207.1 L 129.5 207.1 L 129.5 207.8 L 126.9 207.8 L 126.9 210.8 L 126.0 210.8 L 126.0 204.4 " fill="#33CCCC"/>
<path class="atom-23" d="M 261.6 133.6 L 263.7 136.9 Q 263.9 137.2, 264.2 137.8 Q 264.5 138.4, 264.5 138.5 L 264.5 133.6 L 265.4 133.6 L 265.4 139.9 L 264.5 139.9 L 262.3 136.2 Q 262.0 135.8, 261.8 135.3 Q 261.5 134.8, 261.4 134.7 L 261.4 139.9 L 260.6 139.9 L 260.6 133.6 L 261.6 133.6 " fill="#0000FF"/>
<path class="atom-24" d="M 165.8 182.5 L 169.6 182.5 L 169.6 183.2 L 166.7 183.2 L 166.7 185.1 L 169.3 185.1 L 169.3 185.8 L 166.7 185.8 L 166.7 188.8 L 165.8 188.8 L 165.8 182.5 " fill="#33CCCC"/>
<path class="atom-26" d="M 78.3 191.0 L 79.2 191.0 L 79.2 193.6 L 82.4 193.6 L 82.4 191.0 L 83.3 191.0 L 83.3 197.3 L 82.4 197.3 L 82.4 194.4 L 79.2 194.4 L 79.2 197.3 L 78.3 197.3 L 78.3 191.0 " fill="#000000"/>
<path class="atom-27" d="M 108.8 198.3 L 109.7 198.3 L 109.7 201.0 L 112.9 201.0 L 112.9 198.3 L 113.8 198.3 L 113.8 204.6 L 112.9 204.6 L 112.9 201.7 L 109.7 201.7 L 109.7 204.6 L 108.8 204.6 L 108.8 198.3 " fill="#000000"/>
<path class="atom-28" d="M 154.2 196.3 L 155.1 196.3 L 155.1 199.0 L 158.3 199.0 L 158.3 196.3 L 159.2 196.3 L 159.2 202.7 L 158.3 202.7 L 158.3 199.7 L 155.1 199.7 L 155.1 202.7 L 154.2 202.7 L 154.2 196.3 " fill="#000000"/>
<path class="atom-29" d="M 159.9 161.7 L 160.8 161.7 L 160.8 164.4 L 164.0 164.4 L 164.0 161.7 L 164.9 161.7 L 164.9 168.0 L 164.0 168.0 L 164.0 165.1 L 160.8 165.1 L 160.8 168.0 L 159.9 168.0 L 159.9 161.7 " fill="#000000"/>
<path class="atom-30" d="M 88.7 101.3 L 89.6 101.3 L 89.6 104.0 L 92.8 104.0 L 92.8 101.3 L 93.7 101.3 L 93.7 107.7 L 92.8 107.7 L 92.8 104.7 L 89.6 104.7 L 89.6 107.7 L 88.7 107.7 L 88.7 101.3 " fill="#000000"/>
<path class="atom-31" d="M 131.8 89.2 L 132.7 89.2 L 132.7 91.9 L 135.9 91.9 L 135.9 89.2 L 136.8 89.2 L 136.8 95.6 L 135.9 95.6 L 135.9 92.6 L 132.7 92.6 L 132.7 95.6 L 131.8 95.6 L 131.8 89.2 " fill="#000000"/>
<path class="atom-32" d="M 164.0 163.7 L 164.9 163.7 L 164.9 166.4 L 168.1 166.4 L 168.1 163.7 L 169.0 163.7 L 169.0 170.0 L 168.1 170.0 L 168.1 167.1 L 164.9 167.1 L 164.9 170.0 L 164.0 170.0 L 164.0 163.7 " fill="#000000"/>
<path class="atom-33" d="M 227.9 183.0 L 228.8 183.0 L 228.8 185.7 L 232.0 185.7 L 232.0 183.0 L 232.9 183.0 L 232.9 189.3 L 232.0 189.3 L 232.0 186.4 L 228.8 186.4 L 228.8 189.3 L 227.9 189.3 L 227.9 183.0 " fill="#000000"/>
<path class="atom-34" d="M 206.9 108.4 L 207.8 108.4 L 207.8 111.1 L 211.0 111.1 L 211.0 108.4 L 211.9 108.4 L 211.9 114.7 L 211.0 114.7 L 211.0 111.8 L 207.8 111.8 L 207.8 114.7 L 206.9 114.7 L 206.9 108.4 " fill="#000000"/>
<path class="atom-35" d="M 62.2 172.3 L 63.1 172.3 L 63.1 175.0 L 66.3 175.0 L 66.3 172.3 L 67.2 172.3 L 67.2 178.6 L 66.3 178.6 L 66.3 175.7 L 63.1 175.7 L 63.1 178.6 L 62.2 178.6 L 62.2 172.3 " fill="#000000"/>
<path class="atom-36" d="M 50.1 129.2 L 51.0 129.2 L 51.0 131.9 L 54.2 131.9 L 54.2 129.2 L 55.1 129.2 L 55.1 135.5 L 54.2 135.5 L 54.2 132.6 L 51.0 132.6 L 51.0 135.5 L 50.1 135.5 L 50.1 129.2 " fill="#000000"/>
<path class="atom-37" d="M 34.6 156.8 L 35.5 156.8 L 35.5 159.5 L 38.7 159.5 L 38.7 156.8 L 39.6 156.8 L 39.6 163.1 L 38.7 163.1 L 38.7 160.2 L 35.5 160.2 L 35.5 163.1 L 34.6 163.1 L 34.6 156.8 " fill="#000000"/>
<path class="bond-0 atom-0 atom-2" d="M 423.3,175.4 L 427.9,153.5" style="fill:none;fill-rule:evenodd;stroke:#000000;stroke-width:2.0px;stroke-linecap:butt;stroke-linejoin:miter;stroke-opacity:1"/>
<path class="bond-1 atom-0 atom-23" d="M 423.3,175.4 L 421.4,184.4" style="fill:none;fill-rule:evenodd;stroke:#000000;stroke-width:2.0px;stroke-linecap:butt;stroke-linejoin:miter;stroke-opacity:1"/>
<path class="bond-1 atom-0 atom-23" d="M 421.4,184.4 L 419.5,193.3" style="fill:none;fill-rule:evenodd;stroke:#FF0000;stroke-width:2.0px;stroke-linecap:butt;stroke-linejoin:miter;stroke-opacity:1"/>
<path class="bond-2 atom-0 atom-25" d="M 423.3,175.4 L 441.9,179.3" style="fill:none;fill-rule:evenodd;stroke:#000000;stroke-width:2.0px;stroke-linecap:butt;stroke-linejoin:miter;stroke-opacity:1"/>
<path class="bond-3 atom-0 atom-26" d="M 423.3,175.4 L 408.4,174.1" style="fill:none;fill-rule:evenodd;stroke:#000000;stroke-width:2.0px;stroke-linecap:butt;stroke-linejoin:miter;stroke-opacity:1"/>
<path class="bond-4 atom-1 atom-2" d="M 449.1,146.5 L 427.9,153.5" style="fill:none;fill-rule:evenodd;stroke:#000000;stroke-width:2.0px;stroke-linecap:butt;stroke-linejoin:miter;stroke-opacity:1"/>
<path class="bond-4 atom-1 atom-2" d="M 444.5,143.3 L 429.7,148.2" style="fill:none;fill-rule:evenodd;stroke:#000000;stroke-width:2.0px;stroke-linecap:butt;stroke-linejoin:miter;stroke-opacity:1"/>
<path class="bond-5 atom-1 atom-6" d="M 449.1,146.5 L 453.7,124.6" style="fill:none;fill-rule:evenodd;stroke:#000000;stroke-width:2.0px;stroke-linecap:butt;stroke-linejoin:miter;stroke-opacity:1"/>
<path class="bond-6 atom-1 atom-21" d="M 449.1,146.5 L 465.8,161.5" style="fill:none;fill-rule:evenodd;stroke:#000000;stroke-width:2.0px;stroke-linecap:butt;stroke-linejoin:miter;stroke-opacity:1"/>
<path class="bond-7 atom-2 atom-3" d="M 427.9,153.5 L 411.2,138.5" style="fill:none;fill-rule:evenodd;stroke:#000000;stroke-width:2.0px;stroke-linecap:butt;stroke-linejoin:miter;stroke-opacity:1"/>
<path class="bond-8 atom-3 atom-4" d="M 411.2,138.5 L 415.8,116.6" style="fill:none;fill-rule:evenodd;stroke:#000000;stroke-width:2.0px;stroke-linecap:butt;stroke-linejoin:miter;stroke-opacity:1"/>
<path class="bond-8 atom-3 atom-4" d="M 416.3,136.2 L 419.5,120.8" style="fill:none;fill-rule:evenodd;stroke:#000000;stroke-width:2.0px;stroke-linecap:butt;stroke-linejoin:miter;stroke-opacity:1"/>
<path class="bond-9 atom-3 atom-15" d="M 411.2,138.5 L 401.9,141.6" style="fill:none;fill-rule:evenodd;stroke:#000000;stroke-width:2.0px;stroke-linecap:butt;stroke-linejoin:miter;stroke-opacity:1"/>
<path class="bond-9 atom-3 atom-15" d="M 401.9,141.6 L 392.7,144.6" style="fill:none;fill-rule:evenodd;stroke:#CCCC00;stroke-width:2.0px;stroke-linecap:butt;stroke-linejoin:miter;stroke-opacity:1"/>
<path class="bond-10 atom-4 atom-5" d="M 415.8,116.6 L 437.1,109.7" style="fill:none;fill-rule:evenodd;stroke:#000000;stroke-width:2.0px;stroke-linecap:butt;stroke-linejoin:miter;stroke-opacity:1"/>
<path class="bond-11 atom-4 atom-27" d="M 415.8,116.6 L 402.4,104.6" style="fill:none;fill-rule:evenodd;stroke:#000000;stroke-width:2.0px;stroke-linecap:butt;stroke-linejoin:miter;stroke-opacity:1"/>
<path class="bond-12 atom-5 atom-6" d="M 437.1,109.7 L 453.7,124.6" style="fill:none;fill-rule:evenodd;stroke:#000000;stroke-width:2.0px;stroke-linecap:butt;stroke-linejoin:miter;stroke-opacity:1"/>
<path class="bond-12 atom-5 atom-6" d="M 436.6,115.3 L 448.3,125.7" style="fill:none;fill-rule:evenodd;stroke:#000000;stroke-width:2.0px;stroke-linecap:butt;stroke-linejoin:miter;stroke-opacity:1"/>
<path class="bond-13 atom-5 atom-28" d="M 437.1,109.7 L 440.9,91.7" style="fill:none;fill-rule:evenodd;stroke:#000000;stroke-width:2.0px;stroke-linecap:butt;stroke-linejoin:miter;stroke-opacity:1"/>
<path class="bond-14 atom-6 atom-7" d="M 453.7,124.6 L 462.6,121.7" style="fill:none;fill-rule:evenodd;stroke:#000000;stroke-width:2.0px;stroke-linecap:butt;stroke-linejoin:miter;stroke-opacity:1"/>
<path class="bond-14 atom-6 atom-7" d="M 462.6,121.7 L 471.4,118.9" style="fill:none;fill-rule:evenodd;stroke:#FF0000;stroke-width:2.0px;stroke-linecap:butt;stroke-linejoin:miter;stroke-opacity:1"/>
<path class="bond-15 atom-7 atom-8" d="M 478.6,120.9 L 485.2,126.8" style="fill:none;fill-rule:evenodd;stroke:#FF0000;stroke-width:2.0px;stroke-linecap:butt;stroke-linejoin:miter;stroke-opacity:1"/>
<path class="bond-15 atom-7 atom-8" d="M 485.2,126.8 L 491.7,132.6" style="fill:none;fill-rule:evenodd;stroke:#000000;stroke-width:2.0px;stroke-linecap:butt;stroke-linejoin:miter;stroke-opacity:1"/>
<path class="bond-16 atom-8 atom-9" d="M 491.7,132.6 L 487.1,154.5" style="fill:none;fill-rule:evenodd;stroke:#000000;stroke-width:2.0px;stroke-linecap:butt;stroke-linejoin:miter;stroke-opacity:1"/>
<path class="bond-16 atom-8 atom-9" d="M 495.4,136.8 L 492.1,152.1" style="fill:none;fill-rule:evenodd;stroke:#000000;stroke-width:2.0px;stroke-linecap:butt;stroke-linejoin:miter;stroke-opacity:1"/>
<path class="bond-17 atom-8 atom-14" d="M 491.7,132.6 L 512.9,125.7" style="fill:none;fill-rule:evenodd;stroke:#000000;stroke-width:2.0px;stroke-linecap:butt;stroke-linejoin:miter;stroke-opacity:1"/>
<path class="bond-18 atom-9 atom-10" d="M 487.1,154.5 L 503.7,169.5" style="fill:none;fill-rule:evenodd;stroke:#000000;stroke-width:2.0px;stroke-linecap:butt;stroke-linejoin:miter;stroke-opacity:1"/>
<path class="bond-19 atom-9 atom-29" d="M 487.1,154.5 L 480.2,158.8" style="fill:none;fill-rule:evenodd;stroke:#000000;stroke-width:2.0px;stroke-linecap:butt;stroke-linejoin:miter;stroke-opacity:1"/>
<path class="bond-20 atom-10 atom-11" d="M 503.7,169.5 L 525.0,162.5" style="fill:none;fill-rule:evenodd;stroke:#000000;stroke-width:2.0px;stroke-linecap:butt;stroke-linejoin:miter;stroke-opacity:1"/>
<path class="bond-20 atom-10 atom-11" d="M 505.5,164.2 L 520.4,159.3" style="fill:none;fill-rule:evenodd;stroke:#000000;stroke-width:2.0px;stroke-linecap:butt;stroke-linejoin:miter;stroke-opacity:1"/>
<path class="bond-21 atom-10 atom-24" d="M 503.7,169.5 L 501.8,178.5" style="fill:none;fill-rule:evenodd;stroke:#000000;stroke-width:2.0px;stroke-linecap:butt;stroke-linejoin:miter;stroke-opacity:1"/>
<path class="bond-21 atom-10 atom-24" d="M 501.8,178.5 L 499.9,187.5" style="fill:none;fill-rule:evenodd;stroke:#33CCCC;stroke-width:2.0px;stroke-linecap:butt;stroke-linejoin:miter;stroke-opacity:1"/>
<path class="bond-22 atom-11 atom-12" d="M 525.0,162.5 L 529.6,140.6" style="fill:none;fill-rule:evenodd;stroke:#000000;stroke-width:2.0px;stroke-linecap:butt;stroke-linejoin:miter;stroke-opacity:1"/>
<path class="bond-23 atom-11 atom-30" d="M 525.0,162.5 L 538.4,174.6" style="fill:none;fill-rule:evenodd;stroke:#000000;stroke-width:2.0px;stroke-linecap:butt;stroke-linejoin:miter;stroke-opacity:1"/>
<path class="bond-24 atom-12 atom-13" d="M 529.6,140.6 L 538.6,137.6" style="fill:none;fill-rule:evenodd;stroke:#000000;stroke-width:2.0px;stroke-linecap:butt;stroke-linejoin:miter;stroke-opacity:1"/>
<path class="bond-24 atom-12 atom-13" d="M 538.6,137.6 L 547.7,134.7" style="fill:none;fill-rule:evenodd;stroke:#00CC00;stroke-width:2.0px;stroke-linecap:butt;stroke-linejoin:miter;stroke-opacity:1"/>
<path class="bond-25 atom-12 atom-14" d="M 529.6,140.6 L 512.9,125.7" style="fill:none;fill-rule:evenodd;stroke:#000000;stroke-width:2.0px;stroke-linecap:butt;stroke-linejoin:miter;stroke-opacity:1"/>
<path class="bond-25 atom-12 atom-14" d="M 524.1,141.7 L 512.4,131.2" style="fill:none;fill-rule:evenodd;stroke:#000000;stroke-width:2.0px;stroke-linecap:butt;stroke-linejoin:miter;stroke-opacity:1"/>
<path class="bond-26 atom-14 atom-31" d="M 512.9,125.7 L 516.7,107.7" style="fill:none;fill-rule:evenodd;stroke:#000000;stroke-width:2.0px;stroke-linecap:butt;stroke-linejoin:miter;stroke-opacity:1"/>
<path class="bond-27 atom-15 atom-16" d="M 386.5,142.3 L 384.4,135.6" style="fill:none;fill-rule:evenodd;stroke:#CCCC00;stroke-width:2.0px;stroke-linecap:butt;stroke-linejoin:miter;stroke-opacity:1"/>
<path class="bond-27 atom-15 atom-16" d="M 384.4,135.6 L 382.2,128.9" style="fill:none;fill-rule:evenodd;stroke:#FF0000;stroke-width:2.0px;stroke-linecap:butt;stroke-linejoin:miter;stroke-opacity:1"/>
<path class="bond-27 atom-15 atom-16" d="M 390.8,140.9 L 388.6,134.2" style="fill:none;fill-rule:evenodd;stroke:#CCCC00;stroke-width:2.0px;stroke-linecap:butt;stroke-linejoin:miter;stroke-opacity:1"/>
<path class="bond-27 atom-15 atom-16" d="M 388.6,134.2 L 386.4,127.6" style="fill:none;fill-rule:evenodd;stroke:#FF0000;stroke-width:2.0px;stroke-linecap:butt;stroke-linejoin:miter;stroke-opacity:1"/>
<path class="bond-28 atom-15 atom-17" d="M 392.9,149.1 L 393.9,154.0" style="fill:none;fill-rule:evenodd;stroke:#CCCC00;stroke-width:2.0px;stroke-linecap:butt;stroke-linejoin:miter;stroke-opacity:1"/>
<path class="bond-28 atom-15 atom-17" d="M 393.9,154.0 L 394.9,158.9" style="fill:none;fill-rule:evenodd;stroke:#FF0000;stroke-width:2.0px;stroke-linecap:butt;stroke-linejoin:miter;stroke-opacity:1"/>
<path class="bond-28 atom-15 atom-17" d="M 388.5,150.0 L 389.5,154.9" style="fill:none;fill-rule:evenodd;stroke:#CCCC00;stroke-width:2.0px;stroke-linecap:butt;stroke-linejoin:miter;stroke-opacity:1"/>
<path class="bond-28 atom-15 atom-17" d="M 389.5,154.9 L 390.5,159.8" style="fill:none;fill-rule:evenodd;stroke:#FF0000;stroke-width:2.0px;stroke-linecap:butt;stroke-linejoin:miter;stroke-opacity:1"/>
<path class="bond-29 atom-15 atom-18" d="M 387.2,146.4 L 377.9,149.4" style="fill:none;fill-rule:evenodd;stroke:#CCCC00;stroke-width:2.0px;stroke-linecap:butt;stroke-linejoin:miter;stroke-opacity:1"/>
<path class="bond-29 atom-15 atom-18" d="M 377.9,149.4 L 368.7,152.4" style="fill:none;fill-rule:evenodd;stroke:#000000;stroke-width:2.0px;stroke-linecap:butt;stroke-linejoin:miter;stroke-opacity:1"/>
<path class="bond-30 atom-18 atom-19" d="M 368.7,152.4 L 371.5,161.1" style="fill:none;fill-rule:evenodd;stroke:#000000;stroke-width:2.0px;stroke-linecap:butt;stroke-linejoin:miter;stroke-opacity:1"/>
<path class="bond-30 atom-18 atom-19" d="M 371.5,161.1 L 374.4,169.8" style="fill:none;fill-rule:evenodd;stroke:#33CCCC;stroke-width:2.0px;stroke-linecap:butt;stroke-linejoin:miter;stroke-opacity:1"/>
<path class="bond-31 atom-18 atom-20" d="M 368.7,152.4 L 359.3,155.5" style="fill:none;fill-rule:evenodd;stroke:#000000;stroke-width:2.0px;stroke-linecap:butt;stroke-linejoin:miter;stroke-opacity:1"/>
<path class="bond-31 atom-18 atom-20" d="M 359.3,155.5 L 350.0,158.5" style="fill:none;fill-rule:evenodd;stroke:#33CCCC;stroke-width:2.0px;stroke-linecap:butt;stroke-linejoin:miter;stroke-opacity:1"/>
<path class="bond-32 atom-18 atom-32" d="M 368.7,152.4 L 363.0,135.1" style="fill:none;fill-rule:evenodd;stroke:#000000;stroke-width:2.0px;stroke-linecap:butt;stroke-linejoin:miter;stroke-opacity:1"/>
<path class="bond-33 atom-21 atom-22" d="M 465.8,161.5 L 472.6,167.5" style="fill:none;fill-rule:evenodd;stroke:#000000;stroke-width:2.0px;stroke-linecap:butt;stroke-linejoin:miter;stroke-opacity:1"/>
<path class="bond-33 atom-21 atom-22" d="M 472.6,167.5 L 479.3,173.6" style="fill:none;fill-rule:evenodd;stroke:#0000FF;stroke-width:2.0px;stroke-linecap:butt;stroke-linejoin:miter;stroke-opacity:1"/>
<path class="bond-33 atom-21 atom-22" d="M 470.8,160.0 L 476.6,165.1" style="fill:none;fill-rule:evenodd;stroke:#000000;stroke-width:2.0px;stroke-linecap:butt;stroke-linejoin:miter;stroke-opacity:1"/>
<path class="bond-33 atom-21 atom-22" d="M 476.6,165.1 L 482.3,170.3" style="fill:none;fill-rule:evenodd;stroke:#0000FF;stroke-width:2.0px;stroke-linecap:butt;stroke-linejoin:miter;stroke-opacity:1"/>
<path class="bond-33 atom-21 atom-22" d="M 464.8,166.6 L 470.6,171.8" style="fill:none;fill-rule:evenodd;stroke:#000000;stroke-width:2.0px;stroke-linecap:butt;stroke-linejoin:miter;stroke-opacity:1"/>
<path class="bond-33 atom-21 atom-22" d="M 470.6,171.8 L 476.3,176.9" style="fill:none;fill-rule:evenodd;stroke:#0000FF;stroke-width:2.0px;stroke-linecap:butt;stroke-linejoin:miter;stroke-opacity:1"/>
<path class="bond-34 atom-23 atom-33" d="M 422.3,200.5 L 427.2,204.9" style="fill:none;fill-rule:evenodd;stroke:#FF0000;stroke-width:2.0px;stroke-linecap:butt;stroke-linejoin:miter;stroke-opacity:1"/>
<path class="bond-34 atom-23 atom-33" d="M 427.2,204.9 L 432.1,209.3" style="fill:none;fill-rule:evenodd;stroke:#000000;stroke-width:2.0px;stroke-linecap:butt;stroke-linejoin:miter;stroke-opacity:1"/>
<path class="atom-7" d="M 472.1 117.7 Q 472.1 116.2, 472.9 115.3 Q 473.6 114.5, 475.0 114.5 Q 476.4 114.5, 477.2 115.3 Q 477.9 116.2, 477.9 117.7 Q 477.9 119.2, 477.2 120.1 Q 476.4 121.0, 475.0 121.0 Q 473.6 121.0, 472.9 120.1 Q 472.1 119.2, 472.1 117.7 M 475.0 120.3 Q 476.0 120.3, 476.5 119.6 Q 477.0 119.0, 477.0 117.7 Q 477.0 116.4, 476.5 115.8 Q 476.0 115.2, 475.0 115.2 Q 474.0 115.2, 473.5 115.8 Q 473.0 116.4, 473.0 117.7 Q 473.0 119.0, 473.5 119.6 Q 474.0 120.3, 475.0 120.3 " fill="#FF0000"/>
<path class="atom-13" d="M 548.4 133.9 Q 548.4 132.3, 549.1 131.5 Q 549.9 130.6, 551.3 130.6 Q 552.6 130.6, 553.3 131.6 L 552.7 132.0 Q 552.2 131.4, 551.3 131.4 Q 550.3 131.4, 549.8 132.0 Q 549.3 132.7, 549.3 133.9 Q 549.3 135.1, 549.8 135.8 Q 550.4 136.4, 551.4 136.4 Q 552.1 136.4, 552.9 136.0 L 553.2 136.7 Q 552.8 136.9, 552.3 137.0 Q 551.8 137.1, 551.3 137.1 Q 549.9 137.1, 549.1 136.3 Q 548.4 135.4, 548.4 133.9 " fill="#00CC00"/>
<path class="atom-13" d="M 553.7 130.3 L 554.5 130.3 L 554.5 137.0 L 553.7 137.0 L 553.7 130.3 " fill="#00CC00"/>
<path class="atom-15" d="M 388.2 147.7 Q 388.2 147.7, 388.5 147.8 Q 388.8 147.9, 389.1 148.0 Q 389.5 148.1, 389.8 148.1 Q 390.4 148.1, 390.7 147.8 Q 391.1 147.5, 391.1 147.0 Q 391.1 146.7, 390.9 146.4 Q 390.7 146.2, 390.5 146.1 Q 390.2 146.0, 389.8 145.9 Q 389.2 145.7, 388.8 145.5 Q 388.5 145.4, 388.3 145.0 Q 388.0 144.7, 388.0 144.1 Q 388.0 143.3, 388.6 142.8 Q 389.1 142.3, 390.2 142.3 Q 390.9 142.3, 391.8 142.7 L 391.6 143.4 Q 390.8 143.1, 390.2 143.1 Q 389.6 143.1, 389.3 143.3 Q 388.9 143.6, 388.9 144.0 Q 388.9 144.3, 389.1 144.5 Q 389.3 144.8, 389.5 144.9 Q 389.8 145.0, 390.2 145.1 Q 390.8 145.3, 391.1 145.5 Q 391.5 145.7, 391.7 146.0 Q 392.0 146.4, 392.0 147.0 Q 392.0 147.9, 391.4 148.4 Q 390.8 148.8, 389.8 148.8 Q 389.3 148.8, 388.8 148.7 Q 388.4 148.6, 387.9 148.4 L 388.2 147.7 " fill="#CCCC00"/>
<path class="atom-16" d="M 380.1 124.2 Q 380.1 122.7, 380.8 121.9 Q 381.6 121.0, 383.0 121.0 Q 384.4 121.0, 385.1 121.9 Q 385.9 122.7, 385.9 124.2 Q 385.9 125.8, 385.1 126.7 Q 384.4 127.5, 383.0 127.5 Q 381.6 127.5, 380.8 126.7 Q 380.1 125.8, 380.1 124.2 M 383.0 126.8 Q 384.0 126.8, 384.5 126.2 Q 385.0 125.5, 385.0 124.2 Q 385.0 123.0, 384.5 122.4 Q 384.0 121.7, 383.0 121.7 Q 382.0 121.7, 381.5 122.4 Q 381.0 123.0, 381.0 124.2 Q 381.0 125.5, 381.5 126.2 Q 382.0 126.8, 383.0 126.8 " fill="#FF0000"/>
<path class="atom-17" d="M 390.5 163.3 Q 390.5 161.8, 391.3 160.9 Q 392.0 160.1, 393.4 160.1 Q 394.8 160.1, 395.6 160.9 Q 396.3 161.8, 396.3 163.3 Q 396.3 164.8, 395.6 165.7 Q 394.8 166.6, 393.4 166.6 Q 392.0 166.6, 391.3 165.7 Q 390.5 164.8, 390.5 163.3 M 393.4 165.9 Q 394.4 165.9, 394.9 165.2 Q 395.4 164.6, 395.4 163.3 Q 395.4 162.0, 394.9 161.4 Q 394.4 160.8, 393.4 160.8 Q 392.5 160.8, 391.9 161.4 Q 391.4 162.0, 391.4 163.3 Q 391.4 164.6, 391.9 165.2 Q 392.5 165.9, 393.4 165.9 " fill="#FF0000"/>
<path class="atom-19" d="M 373.7 170.5 L 377.5 170.5 L 377.5 171.3 L 374.6 171.3 L 374.6 173.2 L 377.2 173.2 L 377.2 173.9 L 374.6 173.9 L 374.6 176.9 L 373.7 176.9 L 373.7 170.5 " fill="#33CCCC"/>
<path class="atom-20" d="M 345.5 156.2 L 349.3 156.2 L 349.3 157.0 L 346.4 157.0 L 346.4 158.9 L 349.0 158.9 L 349.0 159.6 L 346.4 159.6 L 346.4 162.6 L 345.5 162.6 L 345.5 156.2 " fill="#33CCCC"/>
<path class="atom-22" d="M 481.0 173.2 L 483.1 176.6 Q 483.3 176.9, 483.7 177.5 Q 484.0 178.1, 484.0 178.2 L 484.0 173.2 L 484.8 173.2 L 484.8 179.6 L 484.0 179.6 L 481.7 175.9 Q 481.5 175.5, 481.2 175.0 Q 480.9 174.5, 480.9 174.3 L 480.9 179.6 L 480.0 179.6 L 480.0 173.2 L 481.0 173.2 " fill="#0000FF"/>
<path class="atom-23" d="M 415.7 197.3 Q 415.7 195.8, 416.5 194.9 Q 417.2 194.1, 418.6 194.1 Q 420.0 194.1, 420.8 194.9 Q 421.5 195.8, 421.5 197.3 Q 421.5 198.8, 420.8 199.7 Q 420.0 200.6, 418.6 200.6 Q 417.2 200.6, 416.5 199.7 Q 415.7 198.8, 415.7 197.3 M 418.6 199.9 Q 419.6 199.9, 420.1 199.2 Q 420.7 198.6, 420.7 197.3 Q 420.7 196.0, 420.1 195.4 Q 419.6 194.8, 418.6 194.8 Q 417.7 194.8, 417.1 195.4 Q 416.6 196.0, 416.6 197.3 Q 416.6 198.6, 417.1 199.2 Q 417.7 199.9, 418.6 199.9 " fill="#FF0000"/>
<path class="atom-24" d="M 497.2 188.2 L 501.0 188.2 L 501.0 188.9 L 498.1 188.9 L 498.1 190.8 L 500.7 190.8 L 500.7 191.6 L 498.1 191.6 L 498.1 194.5 L 497.2 194.5 L 497.2 188.2 " fill="#33CCCC"/>
<path class="atom-25" d="M 442.7 176.8 L 443.5 176.8 L 443.5 179.5 L 446.8 179.5 L 446.8 176.8 L 447.6 176.8 L 447.6 183.2 L 446.8 183.2 L 446.8 180.2 L 443.5 180.2 L 443.5 183.2 L 442.7 183.2 L 442.7 176.8 " fill="#000000"/>
<path class="atom-26" d="M 402.7 170.7 L 403.6 170.7 L 403.6 173.4 L 406.8 173.4 L 406.8 170.7 L 407.7 170.7 L 407.7 177.0 L 406.8 177.0 L 406.8 174.1 L 403.6 174.1 L 403.6 177.0 L 402.7 177.0 L 402.7 170.7 " fill="#000000"/>
<path class="atom-27" d="M 396.7 98.5 L 397.5 98.5 L 397.5 101.2 L 400.8 101.2 L 400.8 98.5 L 401.6 98.5 L 401.6 104.9 L 400.8 104.9 L 400.8 101.9 L 397.5 101.9 L 397.5 104.9 L 396.7 104.9 L 396.7 98.5 " fill="#000000"/>
<path class="atom-28" d="M 439.2 84.6 L 440.1 84.6 L 440.1 87.3 L 443.3 87.3 L 443.3 84.6 L 444.2 84.6 L 444.2 91.0 L 443.3 91.0 L 443.3 88.0 L 440.1 88.0 L 440.1 91.0 L 439.2 91.0 L 439.2 84.6 " fill="#000000"/>
<path class="atom-29" d="M 474.5 157.7 L 475.4 157.7 L 475.4 160.4 L 478.6 160.4 L 478.6 157.7 L 479.5 157.7 L 479.5 164.0 L 478.6 164.0 L 478.6 161.1 L 475.4 161.1 L 475.4 164.0 L 474.5 164.0 L 474.5 157.7 " fill="#000000"/>
<path class="atom-30" d="M 539.2 174.3 L 540.0 174.3 L 540.0 177.0 L 543.2 177.0 L 543.2 174.3 L 544.1 174.3 L 544.1 180.6 L 543.2 180.6 L 543.2 177.7 L 540.0 177.7 L 540.0 180.6 L 539.2 180.6 L 539.2 174.3 " fill="#000000"/>
<path class="atom-31" d="M 515.1 100.6 L 515.9 100.6 L 515.9 103.3 L 519.2 103.3 L 519.2 100.6 L 520.0 100.6 L 520.0 106.9 L 519.2 106.9 L 519.2 104.0 L 515.9 104.0 L 515.9 106.9 L 515.1 106.9 L 515.1 100.6 " fill="#000000"/>
<path class="atom-32" d="M 359.2 128.0 L 360.1 128.0 L 360.1 130.7 L 363.3 130.7 L 363.3 128.0 L 364.2 128.0 L 364.2 134.3 L 363.3 134.3 L 363.3 131.4 L 360.1 131.4 L 360.1 134.3 L 359.2 134.3 L 359.2 128.0 " fill="#000000"/>
<path class="atom-33" d="M 432.8 209.0 L 433.7 209.0 L 433.7 211.7 L 436.9 211.7 L 436.9 209.0 L 437.8 209.0 L 437.8 215.4 L 436.9 215.4 L 436.9 212.4 L 433.7 212.4 L 433.7 215.4 L 432.8 215.4 L 432.8 209.0 " fill="#000000"/>
<text x="300" y="20" font-size="20" font-family="sans-serif" font-weight="normal" letter-spacing="0" text-anchor="middle" fill="black">hif2a: 289 -&gt; 35</text><text x="300" y="35" font-size="15" font-family="sans-serif" font-weight="normal" letter-spacing="0" text-anchor="middle" fill="black"></text><text x="150" y="285" font-size="15" font-family="sans-serif" font-weight="normal" letter-spacing="0" text-anchor="middle" fill="black">289</text><text x="450" y="285" font-size="15" font-family="sans-serif" font-weight="normal" letter-spacing="0" text-anchor="middle" fill="black">35</text></svg>
