<?xml version='1.0' encoding='ASCII' standalone='yes'?>
<svg xmlns="http://www.w3.org/2000/svg" xmlns:rdkit="http://www.rdkit.org/xml" xmlns:xlink="http://www.w3.org/1999/xlink" version="1.1" baseProfile="full" xml:space="preserve" width="600px" height="300px" viewBox="0 0 600 300">
<!-- END OF HEADER -->
<rect style="opacity:1.0;fill:#FFFFFF;stroke:none" width="600.0" height="300.0" x="0.0" y="0.0"> </rect>
<path class="bond-0 atom-0 atom-1" d="M 229.9,141.6 L 224.3,132.9" style="fill:none;fill-rule:evenodd;stroke:#0000FF;stroke-width:2.0px;stroke-linecap:butt;stroke-linejoin:miter;stroke-opacity:1"/>
<path class="bond-0 atom-0 atom-1" d="M 224.3,132.9 L 218.6,124.2" style="fill:none;fill-rule:evenodd;stroke:#000000;stroke-width:2.0px;stroke-linecap:butt;stroke-linejoin:miter;stroke-opacity:1"/>
<path class="bond-1 atom-0 atom-29" d="M 236.5,145.9 L 245.8,145.4" style="fill:none;fill-rule:evenodd;stroke:#0000FF;stroke-width:2.0px;stroke-linecap:butt;stroke-linejoin:miter;stroke-opacity:1"/>
<path class="bond-1 atom-0 atom-29" d="M 245.8,145.4 L 255.2,145.0" style="fill:none;fill-rule:evenodd;stroke:#000000;stroke-width:2.0px;stroke-linecap:butt;stroke-linejoin:miter;stroke-opacity:1"/>
<path class="bond-2 atom-0 atom-30" d="M 231.8,150.7 L 231.3,152.9" style="fill:none;fill-rule:evenodd;stroke:#0000FF;stroke-width:2.0px;stroke-linecap:butt;stroke-linejoin:miter;stroke-opacity:1"/>
<path class="bond-2 atom-0 atom-30" d="M 231.3,152.9 L 230.8,155.1" style="fill:none;fill-rule:evenodd;stroke:#000000;stroke-width:2.0px;stroke-linecap:butt;stroke-linejoin:miter;stroke-opacity:1"/>
<path class="bond-3 atom-1 atom-2" d="M 218.6,124.2 L 209.3,99.8" style="fill:none;fill-rule:evenodd;stroke:#000000;stroke-width:2.0px;stroke-linecap:butt;stroke-linejoin:miter;stroke-opacity:1"/>
<path class="bond-4 atom-1 atom-5" d="M 218.6,124.2 L 198.3,140.6" style="fill:none;fill-rule:evenodd;stroke:#000000;stroke-width:2.0px;stroke-linecap:butt;stroke-linejoin:miter;stroke-opacity:1"/>
<path class="bond-5 atom-1 atom-31" d="M 223.6,122.4 L 223.0,121.2" style="fill:none;fill-rule:evenodd;stroke:#000000;stroke-width:1.0px;stroke-linecap:butt;stroke-linejoin:miter;stroke-opacity:1"/>
<path class="bond-5 atom-1 atom-31" d="M 228.5,120.6 L 227.4,118.3" style="fill:none;fill-rule:evenodd;stroke:#000000;stroke-width:1.0px;stroke-linecap:butt;stroke-linejoin:miter;stroke-opacity:1"/>
<path class="bond-5 atom-1 atom-31" d="M 233.5,118.8 L 231.8,115.3" style="fill:none;fill-rule:evenodd;stroke:#000000;stroke-width:1.0px;stroke-linecap:butt;stroke-linejoin:miter;stroke-opacity:1"/>
<path class="bond-5 atom-1 atom-31" d="M 238.5,117.0 L 236.1,112.4" style="fill:none;fill-rule:evenodd;stroke:#000000;stroke-width:1.0px;stroke-linecap:butt;stroke-linejoin:miter;stroke-opacity:1"/>
<path class="bond-6 atom-2 atom-3" d="M 209.3,99.8 L 183.2,101.2" style="fill:none;fill-rule:evenodd;stroke:#000000;stroke-width:2.0px;stroke-linecap:butt;stroke-linejoin:miter;stroke-opacity:1"/>
<path class="bond-7 atom-2 atom-23" d="M 209.3,99.8 L 207.6,89.2" style="fill:none;fill-rule:evenodd;stroke:#000000;stroke-width:2.0px;stroke-linecap:butt;stroke-linejoin:miter;stroke-opacity:1"/>
<path class="bond-7 atom-2 atom-23" d="M 207.6,89.2 L 205.9,78.5" style="fill:none;fill-rule:evenodd;stroke:#33CCCC;stroke-width:2.0px;stroke-linecap:butt;stroke-linejoin:miter;stroke-opacity:1"/>
<path class="bond-8 atom-2 atom-24" d="M 209.3,99.8 L 220.4,96.8" style="fill:none;fill-rule:evenodd;stroke:#000000;stroke-width:2.0px;stroke-linecap:butt;stroke-linejoin:miter;stroke-opacity:1"/>
<path class="bond-8 atom-2 atom-24" d="M 220.4,96.8 L 231.5,93.9" style="fill:none;fill-rule:evenodd;stroke:#33CCCC;stroke-width:2.0px;stroke-linecap:butt;stroke-linejoin:miter;stroke-opacity:1"/>
<path class="bond-9 atom-3 atom-4" d="M 183.2,101.2 L 176.4,126.4" style="fill:none;fill-rule:evenodd;stroke:#000000;stroke-width:2.0px;stroke-linecap:butt;stroke-linejoin:miter;stroke-opacity:1"/>
<path class="bond-10 atom-3 atom-32" d="M 183.2,101.2 L 161.1,97.7" style="fill:none;fill-rule:evenodd;stroke:#000000;stroke-width:2.0px;stroke-linecap:butt;stroke-linejoin:miter;stroke-opacity:1"/>
<path class="bond-11 atom-3 atom-33" d="M 183.2,101.2 L 184.3,79.6" style="fill:none;fill-rule:evenodd;stroke:#000000;stroke-width:2.0px;stroke-linecap:butt;stroke-linejoin:miter;stroke-opacity:1"/>
<path class="bond-12 atom-4 atom-5" d="M 176.4,126.4 L 198.3,140.6" style="fill:none;fill-rule:evenodd;stroke:#000000;stroke-width:2.0px;stroke-linecap:butt;stroke-linejoin:miter;stroke-opacity:1"/>
<path class="bond-12 atom-4 atom-5" d="M 176.8,132.9 L 192.2,142.9" style="fill:none;fill-rule:evenodd;stroke:#000000;stroke-width:2.0px;stroke-linecap:butt;stroke-linejoin:miter;stroke-opacity:1"/>
<path class="bond-13 atom-4 atom-9" d="M 176.4,126.4 L 153.1,138.3" style="fill:none;fill-rule:evenodd;stroke:#000000;stroke-width:2.0px;stroke-linecap:butt;stroke-linejoin:miter;stroke-opacity:1"/>
<path class="bond-14 atom-5 atom-6" d="M 198.3,140.6 L 196.9,166.7" style="fill:none;fill-rule:evenodd;stroke:#000000;stroke-width:2.0px;stroke-linecap:butt;stroke-linejoin:miter;stroke-opacity:1"/>
<path class="bond-15 atom-6 atom-7" d="M 196.9,166.7 L 173.6,178.6" style="fill:none;fill-rule:evenodd;stroke:#000000;stroke-width:2.0px;stroke-linecap:butt;stroke-linejoin:miter;stroke-opacity:1"/>
<path class="bond-15 atom-6 atom-7" d="M 191.1,163.9 L 174.8,172.2" style="fill:none;fill-rule:evenodd;stroke:#000000;stroke-width:2.0px;stroke-linecap:butt;stroke-linejoin:miter;stroke-opacity:1"/>
<path class="bond-16 atom-6 atom-19" d="M 196.9,166.7 L 206.3,172.8" style="fill:none;fill-rule:evenodd;stroke:#000000;stroke-width:2.0px;stroke-linecap:butt;stroke-linejoin:miter;stroke-opacity:1"/>
<path class="bond-16 atom-6 atom-19" d="M 206.3,172.8 L 215.6,178.9" style="fill:none;fill-rule:evenodd;stroke:#CCCC00;stroke-width:2.0px;stroke-linecap:butt;stroke-linejoin:miter;stroke-opacity:1"/>
<path class="bond-17 atom-7 atom-8" d="M 173.6,178.6 L 151.7,164.3" style="fill:none;fill-rule:evenodd;stroke:#000000;stroke-width:2.0px;stroke-linecap:butt;stroke-linejoin:miter;stroke-opacity:1"/>
<path class="bond-18 atom-7 atom-34" d="M 173.6,178.6 L 172.5,200.1" style="fill:none;fill-rule:evenodd;stroke:#000000;stroke-width:2.0px;stroke-linecap:butt;stroke-linejoin:miter;stroke-opacity:1"/>
<path class="bond-19 atom-8 atom-9" d="M 151.7,164.3 L 153.1,138.3" style="fill:none;fill-rule:evenodd;stroke:#000000;stroke-width:2.0px;stroke-linecap:butt;stroke-linejoin:miter;stroke-opacity:1"/>
<path class="bond-19 atom-8 atom-9" d="M 157.2,160.7 L 158.1,142.4" style="fill:none;fill-rule:evenodd;stroke:#000000;stroke-width:2.0px;stroke-linecap:butt;stroke-linejoin:miter;stroke-opacity:1"/>
<path class="bond-20 atom-8 atom-35" d="M 151.7,164.3 L 133.8,176.4" style="fill:none;fill-rule:evenodd;stroke:#000000;stroke-width:2.0px;stroke-linecap:butt;stroke-linejoin:miter;stroke-opacity:1"/>
<path class="bond-21 atom-9 atom-10" d="M 153.1,138.3 L 144.3,132.5" style="fill:none;fill-rule:evenodd;stroke:#000000;stroke-width:2.0px;stroke-linecap:butt;stroke-linejoin:miter;stroke-opacity:1"/>
<path class="bond-21 atom-9 atom-10" d="M 144.3,132.5 L 135.4,126.8" style="fill:none;fill-rule:evenodd;stroke:#FF0000;stroke-width:2.0px;stroke-linecap:butt;stroke-linejoin:miter;stroke-opacity:1"/>
<path class="bond-22 atom-10 atom-11" d="M 126.9,126.2 L 117.4,131.0" style="fill:none;fill-rule:evenodd;stroke:#FF0000;stroke-width:2.0px;stroke-linecap:butt;stroke-linejoin:miter;stroke-opacity:1"/>
<path class="bond-22 atom-10 atom-11" d="M 117.4,131.0 L 107.9,135.9" style="fill:none;fill-rule:evenodd;stroke:#000000;stroke-width:2.0px;stroke-linecap:butt;stroke-linejoin:miter;stroke-opacity:1"/>
<path class="bond-23 atom-11 atom-12" d="M 107.9,135.9 L 86.0,121.6" style="fill:none;fill-rule:evenodd;stroke:#000000;stroke-width:2.0px;stroke-linecap:butt;stroke-linejoin:miter;stroke-opacity:1"/>
<path class="bond-23 atom-11 atom-12" d="M 101.8,138.1 L 86.4,128.1" style="fill:none;fill-rule:evenodd;stroke:#000000;stroke-width:2.0px;stroke-linecap:butt;stroke-linejoin:miter;stroke-opacity:1"/>
<path class="bond-24 atom-11 atom-18" d="M 107.9,135.9 L 106.5,162.0" style="fill:none;fill-rule:evenodd;stroke:#000000;stroke-width:2.0px;stroke-linecap:butt;stroke-linejoin:miter;stroke-opacity:1"/>
<path class="bond-25 atom-12 atom-13" d="M 86.0,121.6 L 62.7,133.5" style="fill:none;fill-rule:evenodd;stroke:#000000;stroke-width:2.0px;stroke-linecap:butt;stroke-linejoin:miter;stroke-opacity:1"/>
<path class="bond-26 atom-12 atom-36" d="M 86.0,121.6 L 87.1,100.1" style="fill:none;fill-rule:evenodd;stroke:#000000;stroke-width:2.0px;stroke-linecap:butt;stroke-linejoin:miter;stroke-opacity:1"/>
<path class="bond-27 atom-13 atom-14" d="M 62.7,133.5 L 53.3,127.4" style="fill:none;fill-rule:evenodd;stroke:#000000;stroke-width:2.0px;stroke-linecap:butt;stroke-linejoin:miter;stroke-opacity:1"/>
<path class="bond-27 atom-13 atom-14" d="M 53.3,127.4 L 43.8,121.2" style="fill:none;fill-rule:evenodd;stroke:#33CCCC;stroke-width:2.0px;stroke-linecap:butt;stroke-linejoin:miter;stroke-opacity:1"/>
<path class="bond-28 atom-13 atom-15" d="M 62.7,133.5 L 61.3,159.6" style="fill:none;fill-rule:evenodd;stroke:#000000;stroke-width:2.0px;stroke-linecap:butt;stroke-linejoin:miter;stroke-opacity:1"/>
<path class="bond-28 atom-13 atom-15" d="M 67.7,137.7 L 66.8,155.9" style="fill:none;fill-rule:evenodd;stroke:#000000;stroke-width:2.0px;stroke-linecap:butt;stroke-linejoin:miter;stroke-opacity:1"/>
<path class="bond-29 atom-15 atom-16" d="M 61.3,159.6 L 83.2,173.8" style="fill:none;fill-rule:evenodd;stroke:#000000;stroke-width:2.0px;stroke-linecap:butt;stroke-linejoin:miter;stroke-opacity:1"/>
<path class="bond-30 atom-15 atom-37" d="M 61.3,159.6 L 41.8,169.5" style="fill:none;fill-rule:evenodd;stroke:#000000;stroke-width:2.0px;stroke-linecap:butt;stroke-linejoin:miter;stroke-opacity:1"/>
<path class="bond-31 atom-16 atom-17" d="M 83.2,173.8 L 81.9,199.9" style="fill:none;fill-rule:evenodd;stroke:#000000;stroke-width:2.0px;stroke-linecap:butt;stroke-linejoin:miter;stroke-opacity:1"/>
<path class="bond-32 atom-16 atom-18" d="M 83.2,173.8 L 106.5,162.0" style="fill:none;fill-rule:evenodd;stroke:#000000;stroke-width:2.0px;stroke-linecap:butt;stroke-linejoin:miter;stroke-opacity:1"/>
<path class="bond-32 atom-16 atom-18" d="M 84.4,167.4 L 100.7,159.1" style="fill:none;fill-rule:evenodd;stroke:#000000;stroke-width:2.0px;stroke-linecap:butt;stroke-linejoin:miter;stroke-opacity:1"/>
<path class="bond-33 atom-17 atom-25" d="M 81.9,199.9 L 81.3,210.7" style="fill:none;fill-rule:evenodd;stroke:#000000;stroke-width:2.0px;stroke-linecap:butt;stroke-linejoin:miter;stroke-opacity:1"/>
<path class="bond-33 atom-17 atom-25" d="M 81.3,210.7 L 80.7,221.5" style="fill:none;fill-rule:evenodd;stroke:#0000FF;stroke-width:2.0px;stroke-linecap:butt;stroke-linejoin:miter;stroke-opacity:1"/>
<path class="bond-33 atom-17 atom-25" d="M 86.9,203.4 L 86.4,212.6" style="fill:none;fill-rule:evenodd;stroke:#000000;stroke-width:2.0px;stroke-linecap:butt;stroke-linejoin:miter;stroke-opacity:1"/>
<path class="bond-33 atom-17 atom-25" d="M 86.4,212.6 L 85.9,221.7" style="fill:none;fill-rule:evenodd;stroke:#0000FF;stroke-width:2.0px;stroke-linecap:butt;stroke-linejoin:miter;stroke-opacity:1"/>
<path class="bond-33 atom-17 atom-25" d="M 76.5,202.9 L 76.0,212.0" style="fill:none;fill-rule:evenodd;stroke:#000000;stroke-width:2.0px;stroke-linecap:butt;stroke-linejoin:miter;stroke-opacity:1"/>
<path class="bond-33 atom-17 atom-25" d="M 76.0,212.0 L 75.5,221.2" style="fill:none;fill-rule:evenodd;stroke:#0000FF;stroke-width:2.0px;stroke-linecap:butt;stroke-linejoin:miter;stroke-opacity:1"/>
<path class="bond-34 atom-18 atom-38" d="M 106.5,162.0 L 122.8,175.6" style="fill:none;fill-rule:evenodd;stroke:#000000;stroke-width:2.0px;stroke-linecap:butt;stroke-linejoin:miter;stroke-opacity:1"/>
<path class="bond-35 atom-19 atom-20" d="M 217.9,187.1 L 213.9,193.4" style="fill:none;fill-rule:evenodd;stroke:#CCCC00;stroke-width:2.0px;stroke-linecap:butt;stroke-linejoin:miter;stroke-opacity:1"/>
<path class="bond-35 atom-19 atom-20" d="M 213.9,193.4 L 209.8,199.7" style="fill:none;fill-rule:evenodd;stroke:#FF0000;stroke-width:2.0px;stroke-linecap:butt;stroke-linejoin:miter;stroke-opacity:1"/>
<path class="bond-35 atom-19 atom-20" d="M 213.6,184.3 L 209.5,190.6" style="fill:none;fill-rule:evenodd;stroke:#CCCC00;stroke-width:2.0px;stroke-linecap:butt;stroke-linejoin:miter;stroke-opacity:1"/>
<path class="bond-35 atom-19 atom-20" d="M 209.5,190.6 L 205.4,196.9" style="fill:none;fill-rule:evenodd;stroke:#FF0000;stroke-width:2.0px;stroke-linecap:butt;stroke-linejoin:miter;stroke-opacity:1"/>
<path class="bond-36 atom-19 atom-21" d="M 220.3,176.1 L 223.5,173.0" style="fill:none;fill-rule:evenodd;stroke:#CCCC00;stroke-width:2.0px;stroke-linecap:butt;stroke-linejoin:miter;stroke-opacity:1"/>
<path class="bond-36 atom-19 atom-21" d="M 223.5,173.0 L 226.7,170.0" style="fill:none;fill-rule:evenodd;stroke:#FF0000;stroke-width:2.0px;stroke-linecap:butt;stroke-linejoin:miter;stroke-opacity:1"/>
<path class="bond-36 atom-19 atom-21" d="M 223.8,179.9 L 227.1,176.9" style="fill:none;fill-rule:evenodd;stroke:#CCCC00;stroke-width:2.0px;stroke-linecap:butt;stroke-linejoin:miter;stroke-opacity:1"/>
<path class="bond-36 atom-19 atom-21" d="M 227.1,176.9 L 230.3,173.9" style="fill:none;fill-rule:evenodd;stroke:#FF0000;stroke-width:2.0px;stroke-linecap:butt;stroke-linejoin:miter;stroke-opacity:1"/>
<path class="bond-37 atom-19 atom-22" d="M 222.1,183.1 L 231.4,189.1" style="fill:none;fill-rule:evenodd;stroke:#CCCC00;stroke-width:2.0px;stroke-linecap:butt;stroke-linejoin:miter;stroke-opacity:1"/>
<path class="bond-37 atom-19 atom-22" d="M 231.4,189.1 L 240.7,195.2" style="fill:none;fill-rule:evenodd;stroke:#000000;stroke-width:2.0px;stroke-linecap:butt;stroke-linejoin:miter;stroke-opacity:1"/>
<path class="bond-38 atom-22 atom-26" d="M 240.7,195.2 L 235.1,203.9" style="fill:none;fill-rule:evenodd;stroke:#000000;stroke-width:2.0px;stroke-linecap:butt;stroke-linejoin:miter;stroke-opacity:1"/>
<path class="bond-38 atom-22 atom-26" d="M 235.1,203.9 L 229.5,212.6" style="fill:none;fill-rule:evenodd;stroke:#33CCCC;stroke-width:2.0px;stroke-linecap:butt;stroke-linejoin:miter;stroke-opacity:1"/>
<path class="bond-39 atom-22 atom-27" d="M 240.7,195.2 L 246.4,186.5" style="fill:none;fill-rule:evenodd;stroke:#000000;stroke-width:2.0px;stroke-linecap:butt;stroke-linejoin:miter;stroke-opacity:1"/>
<path class="bond-39 atom-22 atom-27" d="M 246.4,186.5 L 252.0,177.9" style="fill:none;fill-rule:evenodd;stroke:#33CCCC;stroke-width:2.0px;stroke-linecap:butt;stroke-linejoin:miter;stroke-opacity:1"/>
<path class="bond-40 atom-22 atom-28" d="M 240.7,195.2 L 250.2,201.3" style="fill:none;fill-rule:evenodd;stroke:#000000;stroke-width:2.0px;stroke-linecap:butt;stroke-linejoin:miter;stroke-opacity:1"/>
<path class="bond-40 atom-22 atom-28" d="M 250.2,201.3 L 259.6,207.5" style="fill:none;fill-rule:evenodd;stroke:#33CCCC;stroke-width:2.0px;stroke-linecap:butt;stroke-linejoin:miter;stroke-opacity:1"/>
<path class="atom-0" d="M 231.2 142.4 L 233.6 146.3 Q 233.9 146.7, 234.3 147.4 Q 234.6 148.1, 234.7 148.2 L 234.7 142.4 L 235.6 142.4 L 235.6 149.8 L 234.6 149.8 L 232.0 145.5 Q 231.7 145.0, 231.4 144.5 Q 231.1 143.9, 231.0 143.7 L 231.0 149.8 L 230.0 149.8 L 230.0 142.4 L 231.2 142.4 " fill="#0000FF"/>
<path class="atom-10" d="M 127.8 124.0 Q 127.8 122.3, 128.7 121.3 Q 129.5 120.3, 131.2 120.3 Q 132.8 120.3, 133.7 121.3 Q 134.6 122.3, 134.6 124.0 Q 134.6 125.8, 133.7 126.9 Q 132.8 127.9, 131.2 127.9 Q 129.6 127.9, 128.7 126.9 Q 127.8 125.8, 127.8 124.0 M 131.2 127.0 Q 132.3 127.0, 132.9 126.3 Q 133.5 125.5, 133.5 124.0 Q 133.5 122.6, 132.9 121.8 Q 132.3 121.1, 131.2 121.1 Q 130.1 121.1, 129.4 121.8 Q 128.8 122.6, 128.8 124.0 Q 128.8 125.5, 129.4 126.3 Q 130.1 127.0, 131.2 127.0 " fill="#FF0000"/>
<path class="atom-14" d="M 38.6 115.5 L 43.0 115.5 L 43.0 116.4 L 39.6 116.4 L 39.6 118.6 L 42.6 118.6 L 42.6 119.5 L 39.6 119.5 L 39.6 122.9 L 38.6 122.9 L 38.6 115.5 " fill="#33CCCC"/>
<path class="atom-19" d="M 216.7 183.5 Q 216.8 183.5, 217.2 183.7 Q 217.5 183.8, 217.9 183.9 Q 218.3 184.0, 218.7 184.0 Q 219.4 184.0, 219.8 183.7 Q 220.2 183.3, 220.2 182.7 Q 220.2 182.3, 220.0 182.1 Q 219.8 181.8, 219.5 181.7 Q 219.1 181.6, 218.6 181.4 Q 218.0 181.2, 217.6 181.0 Q 217.2 180.8, 216.9 180.4 Q 216.6 180.0, 216.6 179.4 Q 216.6 178.4, 217.2 177.9 Q 217.9 177.3, 219.1 177.3 Q 220.0 177.3, 221.0 177.7 L 220.7 178.5 Q 219.8 178.1, 219.2 178.1 Q 218.4 178.1, 218.0 178.4 Q 217.7 178.7, 217.7 179.2 Q 217.7 179.6, 217.9 179.9 Q 218.1 180.1, 218.4 180.3 Q 218.7 180.4, 219.2 180.5 Q 219.8 180.8, 220.2 181.0 Q 220.6 181.2, 220.9 181.6 Q 221.2 182.0, 221.2 182.7 Q 221.2 183.8, 220.5 184.3 Q 219.8 184.9, 218.7 184.9 Q 218.0 184.9, 217.5 184.7 Q 217.0 184.6, 216.5 184.3 L 216.7 183.5 " fill="#CCCC00"/>
<path class="atom-20" d="M 201.2 202.9 Q 201.2 201.1, 202.1 200.1 Q 203.0 199.1, 204.6 199.1 Q 206.2 199.1, 207.1 200.1 Q 208.0 201.1, 208.0 202.9 Q 208.0 204.7, 207.1 205.7 Q 206.2 206.7, 204.6 206.7 Q 203.0 206.7, 202.1 205.7 Q 201.2 204.7, 201.2 202.9 M 204.6 205.9 Q 205.7 205.9, 206.3 205.2 Q 206.9 204.4, 206.9 202.9 Q 206.9 201.5, 206.3 200.7 Q 205.7 200.0, 204.6 200.0 Q 203.5 200.0, 202.8 200.7 Q 202.2 201.4, 202.2 202.9 Q 202.2 204.4, 202.8 205.2 Q 203.5 205.9, 204.6 205.9 " fill="#FF0000"/>
<path class="atom-21" d="M 229.4 168.0 Q 229.4 166.2, 230.3 165.2 Q 231.1 164.2, 232.8 164.2 Q 234.4 164.2, 235.3 165.2 Q 236.2 166.2, 236.2 168.0 Q 236.2 169.8, 235.3 170.8 Q 234.4 171.8, 232.8 171.8 Q 231.1 171.8, 230.3 170.8 Q 229.4 169.8, 229.4 168.0 M 232.8 171.0 Q 233.9 171.0, 234.5 170.3 Q 235.1 169.5, 235.1 168.0 Q 235.1 166.6, 234.5 165.8 Q 233.9 165.1, 232.8 165.1 Q 231.6 165.1, 231.0 165.8 Q 230.4 166.5, 230.4 168.0 Q 230.4 169.5, 231.0 170.3 Q 231.6 171.0, 232.8 171.0 " fill="#FF0000"/>
<path class="atom-23" d="M 203.0 70.3 L 207.4 70.3 L 207.4 71.1 L 204.0 71.1 L 204.0 73.4 L 207.0 73.4 L 207.0 74.2 L 204.0 74.2 L 204.0 77.7 L 203.0 77.7 L 203.0 70.3 " fill="#33CCCC"/>
<path class="atom-24" d="M 232.3 89.3 L 236.7 89.3 L 236.7 90.2 L 233.3 90.2 L 233.3 92.4 L 236.3 92.4 L 236.3 93.3 L 233.3 93.3 L 233.3 96.7 L 232.3 96.7 L 232.3 89.3 " fill="#33CCCC"/>
<path class="atom-25" d="M 78.8 222.3 L 81.3 226.2 Q 81.5 226.6, 81.9 227.3 Q 82.3 228.0, 82.3 228.1 L 82.3 222.3 L 83.3 222.3 L 83.3 229.7 L 82.3 229.7 L 79.7 225.4 Q 79.4 224.9, 79.0 224.3 Q 78.7 223.8, 78.6 223.6 L 78.6 229.7 L 77.7 229.7 L 77.7 222.3 L 78.8 222.3 " fill="#0000FF"/>
<path class="atom-26" d="M 224.3 213.4 L 228.7 213.4 L 228.7 214.3 L 225.3 214.3 L 225.3 216.5 L 228.3 216.5 L 228.3 217.4 L 225.3 217.4 L 225.3 220.8 L 224.3 220.8 L 224.3 213.4 " fill="#33CCCC"/>
<path class="atom-27" d="M 252.8 169.6 L 257.2 169.6 L 257.2 170.5 L 253.8 170.5 L 253.8 172.7 L 256.8 172.7 L 256.8 173.6 L 253.8 173.6 L 253.8 177.0 L 252.8 177.0 L 252.8 169.6 " fill="#33CCCC"/>
<path class="atom-28" d="M 260.5 205.8 L 264.9 205.8 L 264.9 206.6 L 261.4 206.6 L 261.4 208.8 L 264.5 208.8 L 264.5 209.7 L 261.4 209.7 L 261.4 213.2 L 260.5 213.2 L 260.5 205.8 " fill="#33CCCC"/>
<path class="atom-29" d="M 256.0 141.1 L 257.0 141.1 L 257.0 144.2 L 260.8 144.2 L 260.8 141.1 L 261.8 141.1 L 261.8 148.5 L 260.8 148.5 L 260.8 145.0 L 257.0 145.0 L 257.0 148.5 L 256.0 148.5 L 256.0 141.1 " fill="#000000"/>
<path class="atom-30" d="M 226.8 156.0 L 227.8 156.0 L 227.8 159.1 L 231.6 159.1 L 231.6 156.0 L 232.6 156.0 L 232.6 163.4 L 231.6 163.4 L 231.6 159.9 L 227.8 159.9 L 227.8 163.4 L 226.8 163.4 L 226.8 156.0 " fill="#000000"/>
<path class="atom-31" d="M 239.0 108.6 L 240.0 108.6 L 240.0 111.8 L 243.8 111.8 L 243.8 108.6 L 244.8 108.6 L 244.8 116.0 L 243.8 116.0 L 243.8 112.6 L 240.0 112.6 L 240.0 116.0 L 239.0 116.0 L 239.0 108.6 " fill="#000000"/>
<path class="atom-32" d="M 154.5 93.4 L 155.5 93.4 L 155.5 96.5 L 159.2 96.5 L 159.2 93.4 L 160.2 93.4 L 160.2 100.8 L 159.2 100.8 L 159.2 97.3 L 155.5 97.3 L 155.5 100.8 L 154.5 100.8 L 154.5 93.4 " fill="#000000"/>
<path class="atom-33" d="M 181.6 71.4 L 182.6 71.4 L 182.6 74.5 L 186.4 74.5 L 186.4 71.4 L 187.4 71.4 L 187.4 78.8 L 186.4 78.8 L 186.4 75.3 L 182.6 75.3 L 182.6 78.8 L 181.6 78.8 L 181.6 71.4 " fill="#000000"/>
<path class="atom-34" d="M 169.4 201.0 L 170.4 201.0 L 170.4 204.1 L 174.2 204.1 L 174.2 201.0 L 175.2 201.0 L 175.2 208.4 L 174.2 208.4 L 174.2 205.0 L 170.4 205.0 L 170.4 208.4 L 169.4 208.4 L 169.4 201.0 " fill="#000000"/>
<path class="atom-35" d="M 127.2 175.3 L 128.2 175.3 L 128.2 178.4 L 131.9 178.4 L 131.9 175.3 L 133.0 175.3 L 133.0 182.7 L 131.9 182.7 L 131.9 179.2 L 128.2 179.2 L 128.2 182.7 L 127.2 182.7 L 127.2 175.3 " fill="#000000"/>
<path class="atom-36" d="M 84.5 91.8 L 85.5 91.8 L 85.5 95.0 L 89.3 95.0 L 89.3 91.8 L 90.3 91.8 L 90.3 99.2 L 89.3 99.2 L 89.3 95.8 L 85.5 95.8 L 85.5 99.2 L 84.5 99.2 L 84.5 91.8 " fill="#000000"/>
<path class="atom-37" d="M 35.1 167.7 L 36.1 167.7 L 36.1 170.9 L 39.9 170.9 L 39.9 167.7 L 40.9 167.7 L 40.9 175.1 L 39.9 175.1 L 39.9 171.7 L 36.1 171.7 L 36.1 175.1 L 35.1 175.1 L 35.1 167.7 " fill="#000000"/>
<path class="atom-38" d="M 123.6 175.1 L 124.6 175.1 L 124.6 178.2 L 128.4 178.2 L 128.4 175.1 L 129.4 175.1 L 129.4 182.5 L 128.4 182.5 L 128.4 179.1 L 124.6 179.1 L 124.6 182.5 L 123.6 182.5 L 123.6 175.1 " fill="#000000"/>
<path class="bond-0 atom-0 atom-1" d="M 528.3,157.7 L 522.4,149.2" style="fill:none;fill-rule:evenodd;stroke:#FF0000;stroke-width:2.0px;stroke-linecap:butt;stroke-linejoin:miter;stroke-opacity:1"/>
<path class="bond-0 atom-0 atom-1" d="M 522.4,149.2 L 516.6,140.8" style="fill:none;fill-rule:evenodd;stroke:#000000;stroke-width:2.0px;stroke-linecap:butt;stroke-linejoin:miter;stroke-opacity:1"/>
<path class="bond-1 atom-0 atom-26" d="M 535.7,161.9 L 544.7,161.2" style="fill:none;fill-rule:evenodd;stroke:#FF0000;stroke-width:2.0px;stroke-linecap:butt;stroke-linejoin:miter;stroke-opacity:1"/>
<path class="bond-1 atom-0 atom-26" d="M 544.7,161.2 L 553.8,160.4" style="fill:none;fill-rule:evenodd;stroke:#000000;stroke-width:2.0px;stroke-linecap:butt;stroke-linejoin:miter;stroke-opacity:1"/>
<path class="bond-2 atom-1 atom-2" d="M 516.6,140.8 L 506.5,116.7" style="fill:none;fill-rule:evenodd;stroke:#000000;stroke-width:2.0px;stroke-linecap:butt;stroke-linejoin:miter;stroke-opacity:1"/>
<path class="bond-3 atom-1 atom-5" d="M 516.6,140.8 L 496.8,157.8" style="fill:none;fill-rule:evenodd;stroke:#000000;stroke-width:2.0px;stroke-linecap:butt;stroke-linejoin:miter;stroke-opacity:1"/>
<path class="bond-4 atom-1 atom-27" d="M 521.4,138.8 L 520.8,137.7" style="fill:none;fill-rule:evenodd;stroke:#000000;stroke-width:1.0px;stroke-linecap:butt;stroke-linejoin:miter;stroke-opacity:1"/>
<path class="bond-4 atom-1 atom-27" d="M 526.3,136.8 L 525.1,134.6" style="fill:none;fill-rule:evenodd;stroke:#000000;stroke-width:1.0px;stroke-linecap:butt;stroke-linejoin:miter;stroke-opacity:1"/>
<path class="bond-4 atom-1 atom-27" d="M 531.2,134.9 L 529.4,131.6" style="fill:none;fill-rule:evenodd;stroke:#000000;stroke-width:1.0px;stroke-linecap:butt;stroke-linejoin:miter;stroke-opacity:1"/>
<path class="bond-4 atom-1 atom-27" d="M 536.1,132.9 L 533.7,128.5" style="fill:none;fill-rule:evenodd;stroke:#000000;stroke-width:1.0px;stroke-linecap:butt;stroke-linejoin:miter;stroke-opacity:1"/>
<path class="bond-5 atom-2 atom-3" d="M 506.5,116.7 L 480.4,118.8" style="fill:none;fill-rule:evenodd;stroke:#000000;stroke-width:2.0px;stroke-linecap:butt;stroke-linejoin:miter;stroke-opacity:1"/>
<path class="bond-6 atom-2 atom-28" d="M 506.5,116.7 L 505.8,107.3" style="fill:none;fill-rule:evenodd;stroke:#000000;stroke-width:2.0px;stroke-linecap:butt;stroke-linejoin:miter;stroke-opacity:1"/>
<path class="bond-7 atom-2 atom-29" d="M 506.5,116.7 L 527.8,110.3" style="fill:none;fill-rule:evenodd;stroke:#000000;stroke-width:2.0px;stroke-linecap:butt;stroke-linejoin:miter;stroke-opacity:1"/>
<path class="bond-8 atom-3 atom-4" d="M 480.4,118.8 L 474.4,144.3" style="fill:none;fill-rule:evenodd;stroke:#000000;stroke-width:2.0px;stroke-linecap:butt;stroke-linejoin:miter;stroke-opacity:1"/>
<path class="bond-9 atom-3 atom-25" d="M 480.4,118.8 L 481.0,92.7" style="fill:none;fill-rule:evenodd;stroke:#000000;stroke-width:2.0px;stroke-linecap:butt;stroke-linejoin:miter;stroke-opacity:1"/>
<path class="bond-10 atom-3 atom-30" d="M 475.2,117.5 L 475.0,118.8" style="fill:none;fill-rule:evenodd;stroke:#000000;stroke-width:1.0px;stroke-linecap:butt;stroke-linejoin:miter;stroke-opacity:1"/>
<path class="bond-10 atom-3 atom-30" d="M 469.9,116.2 L 469.6,118.7" style="fill:none;fill-rule:evenodd;stroke:#000000;stroke-width:1.0px;stroke-linecap:butt;stroke-linejoin:miter;stroke-opacity:1"/>
<path class="bond-10 atom-3 atom-30" d="M 464.6,114.9 L 464.2,118.7" style="fill:none;fill-rule:evenodd;stroke:#000000;stroke-width:1.0px;stroke-linecap:butt;stroke-linejoin:miter;stroke-opacity:1"/>
<path class="bond-10 atom-3 atom-30" d="M 459.4,113.6 L 458.7,118.6" style="fill:none;fill-rule:evenodd;stroke:#000000;stroke-width:1.0px;stroke-linecap:butt;stroke-linejoin:miter;stroke-opacity:1"/>
<path class="bond-11 atom-4 atom-5" d="M 474.4,144.3 L 496.8,157.8" style="fill:none;fill-rule:evenodd;stroke:#000000;stroke-width:2.0px;stroke-linecap:butt;stroke-linejoin:miter;stroke-opacity:1"/>
<path class="bond-11 atom-4 atom-5" d="M 475.1,150.8 L 490.7,160.3" style="fill:none;fill-rule:evenodd;stroke:#000000;stroke-width:2.0px;stroke-linecap:butt;stroke-linejoin:miter;stroke-opacity:1"/>
<path class="bond-12 atom-4 atom-9" d="M 474.4,144.3 L 451.5,156.8" style="fill:none;fill-rule:evenodd;stroke:#000000;stroke-width:2.0px;stroke-linecap:butt;stroke-linejoin:miter;stroke-opacity:1"/>
<path class="bond-13 atom-5 atom-6" d="M 496.8,157.8 L 496.2,184.0" style="fill:none;fill-rule:evenodd;stroke:#000000;stroke-width:2.0px;stroke-linecap:butt;stroke-linejoin:miter;stroke-opacity:1"/>
<path class="bond-14 atom-6 atom-7" d="M 496.2,184.0 L 473.3,196.5" style="fill:none;fill-rule:evenodd;stroke:#000000;stroke-width:2.0px;stroke-linecap:butt;stroke-linejoin:miter;stroke-opacity:1"/>
<path class="bond-14 atom-6 atom-7" d="M 490.2,181.3 L 474.2,190.1" style="fill:none;fill-rule:evenodd;stroke:#000000;stroke-width:2.0px;stroke-linecap:butt;stroke-linejoin:miter;stroke-opacity:1"/>
<path class="bond-15 atom-6 atom-19" d="M 496.2,184.0 L 505.7,189.8" style="fill:none;fill-rule:evenodd;stroke:#000000;stroke-width:2.0px;stroke-linecap:butt;stroke-linejoin:miter;stroke-opacity:1"/>
<path class="bond-15 atom-6 atom-19" d="M 505.7,189.8 L 515.3,195.6" style="fill:none;fill-rule:evenodd;stroke:#CCCC00;stroke-width:2.0px;stroke-linecap:butt;stroke-linejoin:miter;stroke-opacity:1"/>
<path class="bond-16 atom-7 atom-8" d="M 473.3,196.5 L 450.9,183.0" style="fill:none;fill-rule:evenodd;stroke:#000000;stroke-width:2.0px;stroke-linecap:butt;stroke-linejoin:miter;stroke-opacity:1"/>
<path class="bond-17 atom-7 atom-31" d="M 473.3,196.5 L 472.8,218.1" style="fill:none;fill-rule:evenodd;stroke:#000000;stroke-width:2.0px;stroke-linecap:butt;stroke-linejoin:miter;stroke-opacity:1"/>
<path class="bond-18 atom-8 atom-9" d="M 450.9,183.0 L 451.5,156.8" style="fill:none;fill-rule:evenodd;stroke:#000000;stroke-width:2.0px;stroke-linecap:butt;stroke-linejoin:miter;stroke-opacity:1"/>
<path class="bond-18 atom-8 atom-9" d="M 456.2,179.2 L 456.6,160.9" style="fill:none;fill-rule:evenodd;stroke:#000000;stroke-width:2.0px;stroke-linecap:butt;stroke-linejoin:miter;stroke-opacity:1"/>
<path class="bond-19 atom-8 atom-32" d="M 450.9,183.0 L 440.7,190.3" style="fill:none;fill-rule:evenodd;stroke:#000000;stroke-width:2.0px;stroke-linecap:butt;stroke-linejoin:miter;stroke-opacity:1"/>
<path class="bond-20 atom-9 atom-10" d="M 451.5,156.8 L 442.4,151.3" style="fill:none;fill-rule:evenodd;stroke:#000000;stroke-width:2.0px;stroke-linecap:butt;stroke-linejoin:miter;stroke-opacity:1"/>
<path class="bond-20 atom-9 atom-10" d="M 442.4,151.3 L 433.4,145.8" style="fill:none;fill-rule:evenodd;stroke:#FF0000;stroke-width:2.0px;stroke-linecap:butt;stroke-linejoin:miter;stroke-opacity:1"/>
<path class="bond-21 atom-10 atom-11" d="M 424.9,145.6 L 415.6,150.7" style="fill:none;fill-rule:evenodd;stroke:#FF0000;stroke-width:2.0px;stroke-linecap:butt;stroke-linejoin:miter;stroke-opacity:1"/>
<path class="bond-21 atom-10 atom-11" d="M 415.6,150.7 L 406.3,155.8" style="fill:none;fill-rule:evenodd;stroke:#000000;stroke-width:2.0px;stroke-linecap:butt;stroke-linejoin:miter;stroke-opacity:1"/>
<path class="bond-22 atom-11 atom-12" d="M 406.3,155.8 L 383.9,142.3" style="fill:none;fill-rule:evenodd;stroke:#000000;stroke-width:2.0px;stroke-linecap:butt;stroke-linejoin:miter;stroke-opacity:1"/>
<path class="bond-22 atom-11 atom-12" d="M 400.2,158.3 L 384.6,148.8" style="fill:none;fill-rule:evenodd;stroke:#000000;stroke-width:2.0px;stroke-linecap:butt;stroke-linejoin:miter;stroke-opacity:1"/>
<path class="bond-23 atom-11 atom-18" d="M 406.3,155.8 L 405.7,182.0" style="fill:none;fill-rule:evenodd;stroke:#000000;stroke-width:2.0px;stroke-linecap:butt;stroke-linejoin:miter;stroke-opacity:1"/>
<path class="bond-24 atom-12 atom-13" d="M 383.9,142.3 L 361.0,154.8" style="fill:none;fill-rule:evenodd;stroke:#000000;stroke-width:2.0px;stroke-linecap:butt;stroke-linejoin:miter;stroke-opacity:1"/>
<path class="bond-25 atom-12 atom-33" d="M 383.9,142.3 L 384.4,120.7" style="fill:none;fill-rule:evenodd;stroke:#000000;stroke-width:2.0px;stroke-linecap:butt;stroke-linejoin:miter;stroke-opacity:1"/>
<path class="bond-26 atom-13 atom-14" d="M 361.0,154.8 L 351.3,149.0" style="fill:none;fill-rule:evenodd;stroke:#000000;stroke-width:2.0px;stroke-linecap:butt;stroke-linejoin:miter;stroke-opacity:1"/>
<path class="bond-26 atom-13 atom-14" d="M 351.3,149.0 L 341.7,143.1" style="fill:none;fill-rule:evenodd;stroke:#33CCCC;stroke-width:2.0px;stroke-linecap:butt;stroke-linejoin:miter;stroke-opacity:1"/>
<path class="bond-27 atom-13 atom-15" d="M 361.0,154.8 L 360.4,181.0" style="fill:none;fill-rule:evenodd;stroke:#000000;stroke-width:2.0px;stroke-linecap:butt;stroke-linejoin:miter;stroke-opacity:1"/>
<path class="bond-27 atom-13 atom-15" d="M 366.1,158.9 L 365.7,177.1" style="fill:none;fill-rule:evenodd;stroke:#000000;stroke-width:2.0px;stroke-linecap:butt;stroke-linejoin:miter;stroke-opacity:1"/>
<path class="bond-28 atom-15 atom-16" d="M 360.4,181.0 L 382.8,194.5" style="fill:none;fill-rule:evenodd;stroke:#000000;stroke-width:2.0px;stroke-linecap:butt;stroke-linejoin:miter;stroke-opacity:1"/>
<path class="bond-29 atom-15 atom-34" d="M 360.4,181.0 L 341.2,191.5" style="fill:none;fill-rule:evenodd;stroke:#000000;stroke-width:2.0px;stroke-linecap:butt;stroke-linejoin:miter;stroke-opacity:1"/>
<path class="bond-30 atom-16 atom-17" d="M 382.8,194.5 L 382.5,205.4" style="fill:none;fill-rule:evenodd;stroke:#000000;stroke-width:2.0px;stroke-linecap:butt;stroke-linejoin:miter;stroke-opacity:1"/>
<path class="bond-30 atom-16 atom-17" d="M 382.5,205.4 L 382.3,216.3" style="fill:none;fill-rule:evenodd;stroke:#00CC00;stroke-width:2.0px;stroke-linecap:butt;stroke-linejoin:miter;stroke-opacity:1"/>
<path class="bond-31 atom-16 atom-18" d="M 382.8,194.5 L 405.7,182.0" style="fill:none;fill-rule:evenodd;stroke:#000000;stroke-width:2.0px;stroke-linecap:butt;stroke-linejoin:miter;stroke-opacity:1"/>
<path class="bond-31 atom-16 atom-18" d="M 383.7,188.0 L 399.7,179.3" style="fill:none;fill-rule:evenodd;stroke:#000000;stroke-width:2.0px;stroke-linecap:butt;stroke-linejoin:miter;stroke-opacity:1"/>
<path class="bond-32 atom-18 atom-35" d="M 405.7,182.0 L 415.4,189.6" style="fill:none;fill-rule:evenodd;stroke:#000000;stroke-width:2.0px;stroke-linecap:butt;stroke-linejoin:miter;stroke-opacity:1"/>
<path class="bond-33 atom-19 atom-20" d="M 517.9,203.6 L 513.9,210.1" style="fill:none;fill-rule:evenodd;stroke:#CCCC00;stroke-width:2.0px;stroke-linecap:butt;stroke-linejoin:miter;stroke-opacity:1"/>
<path class="bond-33 atom-19 atom-20" d="M 513.9,210.1 L 510.0,216.6" style="fill:none;fill-rule:evenodd;stroke:#FF0000;stroke-width:2.0px;stroke-linecap:butt;stroke-linejoin:miter;stroke-opacity:1"/>
<path class="bond-33 atom-19 atom-20" d="M 513.4,200.9 L 509.5,207.4" style="fill:none;fill-rule:evenodd;stroke:#CCCC00;stroke-width:2.0px;stroke-linecap:butt;stroke-linejoin:miter;stroke-opacity:1"/>
<path class="bond-33 atom-19 atom-20" d="M 509.5,207.4 L 505.5,213.9" style="fill:none;fill-rule:evenodd;stroke:#FF0000;stroke-width:2.0px;stroke-linecap:butt;stroke-linejoin:miter;stroke-opacity:1"/>
<path class="bond-34 atom-19 atom-21" d="M 519.9,192.5 L 525.4,187.0" style="fill:none;fill-rule:evenodd;stroke:#CCCC00;stroke-width:2.0px;stroke-linecap:butt;stroke-linejoin:miter;stroke-opacity:1"/>
<path class="bond-34 atom-19 atom-21" d="M 525.4,187.0 L 531.0,181.5" style="fill:none;fill-rule:evenodd;stroke:#FF0000;stroke-width:2.0px;stroke-linecap:butt;stroke-linejoin:miter;stroke-opacity:1"/>
<path class="bond-34 atom-19 atom-21" d="M 523.6,196.2 L 529.1,190.7" style="fill:none;fill-rule:evenodd;stroke:#CCCC00;stroke-width:2.0px;stroke-linecap:butt;stroke-linejoin:miter;stroke-opacity:1"/>
<path class="bond-34 atom-19 atom-21" d="M 529.1,190.7 L 534.7,185.2" style="fill:none;fill-rule:evenodd;stroke:#FF0000;stroke-width:2.0px;stroke-linecap:butt;stroke-linejoin:miter;stroke-opacity:1"/>
<path class="bond-35 atom-19 atom-22" d="M 521.7,199.5 L 531.3,205.3" style="fill:none;fill-rule:evenodd;stroke:#CCCC00;stroke-width:2.0px;stroke-linecap:butt;stroke-linejoin:miter;stroke-opacity:1"/>
<path class="bond-35 atom-19 atom-22" d="M 531.3,205.3 L 540.8,211.1" style="fill:none;fill-rule:evenodd;stroke:#000000;stroke-width:2.0px;stroke-linecap:butt;stroke-linejoin:miter;stroke-opacity:1"/>
<path class="bond-36 atom-22 atom-23" d="M 540.8,211.1 L 546.3,202.2" style="fill:none;fill-rule:evenodd;stroke:#000000;stroke-width:2.0px;stroke-linecap:butt;stroke-linejoin:miter;stroke-opacity:1"/>
<path class="bond-36 atom-22 atom-23" d="M 546.3,202.2 L 551.7,193.3" style="fill:none;fill-rule:evenodd;stroke:#33CCCC;stroke-width:2.0px;stroke-linecap:butt;stroke-linejoin:miter;stroke-opacity:1"/>
<path class="bond-37 atom-22 atom-24" d="M 540.8,211.1 L 550.5,216.9" style="fill:none;fill-rule:evenodd;stroke:#000000;stroke-width:2.0px;stroke-linecap:butt;stroke-linejoin:miter;stroke-opacity:1"/>
<path class="bond-37 atom-22 atom-24" d="M 550.5,216.9 L 560.2,222.8" style="fill:none;fill-rule:evenodd;stroke:#33CCCC;stroke-width:2.0px;stroke-linecap:butt;stroke-linejoin:miter;stroke-opacity:1"/>
<path class="bond-38 atom-22 atom-36" d="M 540.8,211.1 L 530.0,228.9" style="fill:none;fill-rule:evenodd;stroke:#000000;stroke-width:2.0px;stroke-linecap:butt;stroke-linejoin:miter;stroke-opacity:1"/>
<path class="bond-39 atom-25 atom-37" d="M 481.0,92.7 L 458.6,92.2" style="fill:none;fill-rule:evenodd;stroke:#000000;stroke-width:2.0px;stroke-linecap:butt;stroke-linejoin:miter;stroke-opacity:1"/>
<path class="bond-40 atom-25 atom-38" d="M 481.0,92.7 L 491.1,91.7" style="fill:none;fill-rule:evenodd;stroke:#000000;stroke-width:2.0px;stroke-linecap:butt;stroke-linejoin:miter;stroke-opacity:1"/>
<path class="bond-41 atom-25 atom-39" d="M 481.0,92.7 L 481.5,71.1" style="fill:none;fill-rule:evenodd;stroke:#000000;stroke-width:2.0px;stroke-linecap:butt;stroke-linejoin:miter;stroke-opacity:1"/>
<path class="atom-0" d="M 528.0 162.3 Q 528.0 160.5, 528.9 159.5 Q 529.8 158.5, 531.4 158.5 Q 533.1 158.5, 534.0 159.5 Q 534.8 160.5, 534.8 162.3 Q 534.8 164.1, 534.0 165.1 Q 533.1 166.1, 531.4 166.1 Q 529.8 166.1, 528.9 165.1 Q 528.0 164.1, 528.0 162.3 M 531.4 165.3 Q 532.6 165.3, 533.2 164.5 Q 533.8 163.8, 533.8 162.3 Q 533.8 160.8, 533.2 160.1 Q 532.6 159.3, 531.4 159.3 Q 530.3 159.3, 529.7 160.1 Q 529.1 160.8, 529.1 162.3 Q 529.1 163.8, 529.7 164.5 Q 530.3 165.3, 531.4 165.3 " fill="#FF0000"/>
<path class="atom-10" d="M 425.8 143.3 Q 425.8 141.5, 426.6 140.5 Q 427.5 139.5, 429.2 139.5 Q 430.8 139.5, 431.7 140.5 Q 432.6 141.5, 432.6 143.3 Q 432.6 145.1, 431.7 146.1 Q 430.8 147.1, 429.2 147.1 Q 427.5 147.1, 426.6 146.1 Q 425.8 145.1, 425.8 143.3 M 429.2 146.3 Q 430.3 146.3, 430.9 145.5 Q 431.5 144.8, 431.5 143.3 Q 431.5 141.8, 430.9 141.1 Q 430.3 140.4, 429.2 140.4 Q 428.0 140.4, 427.4 141.1 Q 426.8 141.8, 426.8 143.3 Q 426.8 144.8, 427.4 145.5 Q 428.0 146.3, 429.2 146.3 " fill="#FF0000"/>
<path class="atom-14" d="M 336.5 137.6 L 340.9 137.6 L 340.9 138.4 L 337.5 138.4 L 337.5 140.7 L 340.5 140.7 L 340.5 141.5 L 337.5 141.5 L 337.5 145.0 L 336.5 145.0 L 336.5 137.6 " fill="#33CCCC"/>
<path class="atom-17" d="M 379.3 220.9 Q 379.3 219.1, 380.2 218.1 Q 381.1 217.1, 382.7 217.1 Q 384.2 217.1, 385.0 218.2 L 384.3 218.8 Q 383.8 218.0, 382.7 218.0 Q 381.6 218.0, 381.0 218.7 Q 380.4 219.5, 380.4 220.9 Q 380.4 222.4, 381.0 223.1 Q 381.6 223.9, 382.8 223.9 Q 383.6 223.9, 384.6 223.4 L 384.9 224.2 Q 384.5 224.4, 383.9 224.6 Q 383.3 224.7, 382.7 224.7 Q 381.1 224.7, 380.2 223.7 Q 379.3 222.7, 379.3 220.9 " fill="#00CC00"/>
<path class="atom-17" d="M 385.5 216.7 L 386.4 216.7 L 386.4 224.6 L 385.5 224.6 L 385.5 216.7 " fill="#00CC00"/>
<path class="atom-19" d="M 516.4 200.1 Q 516.5 200.1, 516.9 200.2 Q 517.2 200.4, 517.6 200.5 Q 518.0 200.6, 518.3 200.6 Q 519.0 200.6, 519.4 200.2 Q 519.9 199.9, 519.9 199.3 Q 519.9 198.9, 519.6 198.6 Q 519.4 198.4, 519.1 198.2 Q 518.8 198.1, 518.3 197.9 Q 517.6 197.7, 517.2 197.6 Q 516.9 197.4, 516.6 197.0 Q 516.3 196.6, 516.3 195.9 Q 516.3 195.0, 516.9 194.4 Q 517.6 193.8, 518.8 193.8 Q 519.7 193.8, 520.6 194.2 L 520.4 195.0 Q 519.5 194.7, 518.8 194.7 Q 518.1 194.7, 517.7 195.0 Q 517.3 195.3, 517.3 195.8 Q 517.3 196.2, 517.5 196.4 Q 517.7 196.7, 518.0 196.8 Q 518.3 196.9, 518.8 197.1 Q 519.5 197.3, 519.9 197.5 Q 520.3 197.7, 520.6 198.1 Q 520.9 198.6, 520.9 199.3 Q 520.9 200.3, 520.2 200.9 Q 519.5 201.4, 518.4 201.4 Q 517.7 201.4, 517.2 201.3 Q 516.7 201.1, 516.1 200.9 L 516.4 200.1 " fill="#CCCC00"/>
<path class="atom-20" d="M 501.6 219.9 Q 501.6 218.1, 502.4 217.1 Q 503.3 216.1, 504.9 216.1 Q 506.6 216.1, 507.5 217.1 Q 508.3 218.1, 508.3 219.9 Q 508.3 221.7, 507.5 222.7 Q 506.6 223.7, 504.9 223.7 Q 503.3 223.7, 502.4 222.7 Q 501.6 221.7, 501.6 219.9 M 504.9 222.9 Q 506.1 222.9, 506.7 222.1 Q 507.3 221.4, 507.3 219.9 Q 507.3 218.4, 506.7 217.7 Q 506.1 216.9, 504.9 216.9 Q 503.8 216.9, 503.2 217.7 Q 502.6 218.4, 502.6 219.9 Q 502.6 221.4, 503.2 222.1 Q 503.8 222.9, 504.9 222.9 " fill="#FF0000"/>
<path class="atom-21" d="M 533.7 179.1 Q 533.7 177.4, 534.6 176.4 Q 535.4 175.4, 537.1 175.4 Q 538.7 175.4, 539.6 176.4 Q 540.5 177.4, 540.5 179.1 Q 540.5 180.9, 539.6 182.0 Q 538.7 183.0, 537.1 183.0 Q 535.4 183.0, 534.6 182.0 Q 533.7 181.0, 533.7 179.1 M 537.1 182.1 Q 538.2 182.1, 538.8 181.4 Q 539.4 180.6, 539.4 179.1 Q 539.4 177.7, 538.8 177.0 Q 538.2 176.2, 537.1 176.2 Q 535.9 176.2, 535.3 177.0 Q 534.7 177.7, 534.7 179.1 Q 534.7 180.6, 535.3 181.4 Q 535.9 182.1, 537.1 182.1 " fill="#FF0000"/>
<path class="atom-23" d="M 552.2 185.0 L 556.6 185.0 L 556.6 185.9 L 553.2 185.9 L 553.2 188.1 L 556.2 188.1 L 556.2 189.0 L 553.2 189.0 L 553.2 192.4 L 552.2 192.4 L 552.2 185.0 " fill="#33CCCC"/>
<path class="atom-24" d="M 561.0 220.9 L 565.4 220.9 L 565.4 221.8 L 562.0 221.8 L 562.0 224.0 L 565.0 224.0 L 565.0 224.9 L 562.0 224.9 L 562.0 228.3 L 561.0 228.3 L 561.0 220.9 " fill="#33CCCC"/>
<path class="atom-26" d="M 554.6 156.4 L 555.6 156.4 L 555.6 159.5 L 559.4 159.5 L 559.4 156.4 L 560.4 156.4 L 560.4 163.8 L 559.4 163.8 L 559.4 160.4 L 555.6 160.4 L 555.6 163.8 L 554.6 163.8 L 554.6 156.4 " fill="#000000"/>
<path class="atom-27" d="M 536.6 124.5 L 537.6 124.5 L 537.6 127.7 L 541.4 127.7 L 541.4 124.5 L 542.4 124.5 L 542.4 131.9 L 541.4 131.9 L 541.4 128.5 L 537.6 128.5 L 537.6 131.9 L 536.6 131.9 L 536.6 124.5 " fill="#000000"/>
<path class="atom-28" d="M 502.7 99.1 L 503.7 99.1 L 503.7 102.3 L 507.4 102.3 L 507.4 99.1 L 508.4 99.1 L 508.4 106.5 L 507.4 106.5 L 507.4 103.1 L 503.7 103.1 L 503.7 106.5 L 502.7 106.5 L 502.7 99.1 " fill="#000000"/>
<path class="atom-29" d="M 528.6 105.5 L 529.6 105.5 L 529.6 108.6 L 533.4 108.6 L 533.4 105.5 L 534.4 105.5 L 534.4 112.9 L 533.4 112.9 L 533.4 109.4 L 529.6 109.4 L 529.6 112.9 L 528.6 112.9 L 528.6 105.5 " fill="#000000"/>
<path class="atom-30" d="M 451.6 111.8 L 452.6 111.8 L 452.6 115.0 L 456.4 115.0 L 456.4 111.8 L 457.4 111.8 L 457.4 119.2 L 456.4 119.2 L 456.4 115.8 L 452.6 115.8 L 452.6 119.2 L 451.6 119.2 L 451.6 111.8 " fill="#000000"/>
<path class="atom-31" d="M 469.8 218.9 L 470.8 218.9 L 470.8 222.1 L 474.6 222.1 L 474.6 218.9 L 475.6 218.9 L 475.6 226.3 L 474.6 226.3 L 474.6 222.9 L 470.8 222.9 L 470.8 226.3 L 469.8 226.3 L 469.8 218.9 " fill="#000000"/>
<path class="atom-32" d="M 434.1 189.3 L 435.1 189.3 L 435.1 192.4 L 438.9 192.4 L 438.9 189.3 L 439.9 189.3 L 439.9 196.7 L 438.9 196.7 L 438.9 193.2 L 435.1 193.2 L 435.1 196.7 L 434.1 196.7 L 434.1 189.3 " fill="#000000"/>
<path class="atom-33" d="M 381.6 112.4 L 382.6 112.4 L 382.6 115.6 L 386.4 115.6 L 386.4 112.4 L 387.4 112.4 L 387.4 119.8 L 386.4 119.8 L 386.4 116.4 L 382.6 116.4 L 382.6 119.8 L 381.6 119.8 L 381.6 112.4 " fill="#000000"/>
<path class="atom-34" d="M 334.6 189.8 L 335.6 189.8 L 335.6 193.0 L 339.4 193.0 L 339.4 189.8 L 340.4 189.8 L 340.4 197.2 L 339.4 197.2 L 339.4 193.8 L 335.6 193.8 L 335.6 197.2 L 334.6 197.2 L 334.6 189.8 " fill="#000000"/>
<path class="atom-35" d="M 416.2 188.9 L 417.2 188.9 L 417.2 192.0 L 421.0 192.0 L 421.0 188.9 L 422.0 188.9 L 422.0 196.3 L 421.0 196.3 L 421.0 192.9 L 417.2 192.9 L 417.2 196.3 L 416.2 196.3 L 416.2 188.9 " fill="#000000"/>
<path class="atom-36" d="M 524.4 229.7 L 525.4 229.7 L 525.4 232.9 L 529.2 232.9 L 529.2 229.7 L 530.2 229.7 L 530.2 237.1 L 529.2 237.1 L 529.2 233.7 L 525.4 233.7 L 525.4 237.1 L 524.4 237.1 L 524.4 229.7 " fill="#000000"/>
<path class="atom-37" d="M 452.0 88.4 L 453.0 88.4 L 453.0 91.6 L 456.8 91.6 L 456.8 88.4 L 457.8 88.4 L 457.8 95.8 L 456.8 95.8 L 456.8 92.4 L 453.0 92.4 L 453.0 95.8 L 452.0 95.8 L 452.0 88.4 " fill="#000000"/>
<path class="atom-38" d="M 491.9 87.6 L 492.9 87.6 L 492.9 90.8 L 496.7 90.8 L 496.7 87.6 L 497.7 87.6 L 497.7 95.0 L 496.7 95.0 L 496.7 91.6 L 492.9 91.6 L 492.9 95.0 L 491.9 95.0 L 491.9 87.6 " fill="#000000"/>
<path class="atom-39" d="M 478.7 62.9 L 479.7 62.9 L 479.7 66.0 L 483.5 66.0 L 483.5 62.9 L 484.5 62.9 L 484.5 70.3 L 483.5 70.3 L 483.5 66.9 L 479.7 66.9 L 479.7 70.3 L 478.7 70.3 L 478.7 62.9 " fill="#000000"/>
<text x="300" y="20" font-size="20" font-family="sans-serif" font-weight="normal" letter-spacing="0" text-anchor="middle" fill="black">hif2a: 290 -&gt; 7a</text><text x="300" y="35" font-size="15" font-family="sans-serif" font-weight="normal" letter-spacing="0" text-anchor="middle" fill="black"></text><text x="150" y="285" font-size="15" font-family="sans-serif" font-weight="normal" letter-spacing="0" text-anchor="middle" fill="black">290</text><text x="450" y="285" font-size="15" font-family="sans-serif" font-weight="normal" letter-spacing="0" text-anchor="middle" fill="black">7a</text></svg>
