<?xml version='1.0' encoding='ASCII' standalone='yes'?>
<svg xmlns="http://www.w3.org/2000/svg" xmlns:rdkit="http://www.rdkit.org/xml" xmlns:xlink="http://www.w3.org/1999/xlink" version="1.1" baseProfile="full" xml:space="preserve" width="600px" height="300px" viewBox="0 0 600 300">
<!-- END OF HEADER -->
<rect style="opacity:1.0;fill:#FFFFFF;stroke:none" width="600.0" height="300.0" x="0.0" y="0.0"> </rect>
<path class="bond-0 atom-0 atom-1" d="M 218.9,143.0 L 214.1,135.6" style="fill:none;fill-rule:evenodd;stroke:#FF0000;stroke-width:2.0px;stroke-linecap:butt;stroke-linejoin:miter;stroke-opacity:1"/>
<path class="bond-0 atom-0 atom-1" d="M 214.1,135.6 L 209.3,128.1" style="fill:none;fill-rule:evenodd;stroke:#000000;stroke-width:2.0px;stroke-linecap:butt;stroke-linejoin:miter;stroke-opacity:1"/>
<path class="bond-1 atom-0 atom-28" d="M 225.1,146.8 L 232.9,146.5" style="fill:none;fill-rule:evenodd;stroke:#FF0000;stroke-width:2.0px;stroke-linecap:butt;stroke-linejoin:miter;stroke-opacity:1"/>
<path class="bond-1 atom-0 atom-28" d="M 232.9,146.5 L 240.7,146.1" style="fill:none;fill-rule:evenodd;stroke:#000000;stroke-width:2.0px;stroke-linecap:butt;stroke-linejoin:miter;stroke-opacity:1"/>
<path class="bond-2 atom-1 atom-2" d="M 209.3,128.1 L 201.3,107.0" style="fill:none;fill-rule:evenodd;stroke:#000000;stroke-width:2.0px;stroke-linecap:butt;stroke-linejoin:miter;stroke-opacity:1"/>
<path class="bond-3 atom-1 atom-5" d="M 209.3,128.1 L 191.8,142.1" style="fill:none;fill-rule:evenodd;stroke:#000000;stroke-width:2.0px;stroke-linecap:butt;stroke-linejoin:miter;stroke-opacity:1"/>
<path class="bond-4 atom-1 atom-29" d="M 209.3,128.1 L 224.5,118.0 L 226.4,121.9 Z" style="fill:#000000;fill-rule:evenodd;fill-opacity:1;stroke:#000000;stroke-width:1.0px;stroke-linecap:butt;stroke-linejoin:miter;stroke-opacity:1;"/>
<path class="bond-5 atom-2 atom-3" d="M 201.3,107.0 L 178.9,108.1" style="fill:none;fill-rule:evenodd;stroke:#000000;stroke-width:2.0px;stroke-linecap:butt;stroke-linejoin:miter;stroke-opacity:1"/>
<path class="bond-6 atom-2 atom-22" d="M 201.3,107.0 L 199.9,97.9" style="fill:none;fill-rule:evenodd;stroke:#000000;stroke-width:2.0px;stroke-linecap:butt;stroke-linejoin:miter;stroke-opacity:1"/>
<path class="bond-6 atom-2 atom-22" d="M 199.9,97.9 L 198.5,88.7" style="fill:none;fill-rule:evenodd;stroke:#33CCCC;stroke-width:2.0px;stroke-linecap:butt;stroke-linejoin:miter;stroke-opacity:1"/>
<path class="bond-7 atom-2 atom-23" d="M 201.3,107.0 L 210.9,104.5" style="fill:none;fill-rule:evenodd;stroke:#000000;stroke-width:2.0px;stroke-linecap:butt;stroke-linejoin:miter;stroke-opacity:1"/>
<path class="bond-7 atom-2 atom-23" d="M 210.9,104.5 L 220.5,102.0" style="fill:none;fill-rule:evenodd;stroke:#33CCCC;stroke-width:2.0px;stroke-linecap:butt;stroke-linejoin:miter;stroke-opacity:1"/>
<path class="bond-8 atom-3 atom-4" d="M 178.9,108.1 L 173.0,129.8" style="fill:none;fill-rule:evenodd;stroke:#000000;stroke-width:2.0px;stroke-linecap:butt;stroke-linejoin:miter;stroke-opacity:1"/>
<path class="bond-9 atom-3 atom-30" d="M 178.9,108.1 L 159.9,105.0" style="fill:none;fill-rule:evenodd;stroke:#000000;stroke-width:2.0px;stroke-linecap:butt;stroke-linejoin:miter;stroke-opacity:1"/>
<path class="bond-10 atom-3 atom-31" d="M 178.9,108.1 L 179.9,89.6" style="fill:none;fill-rule:evenodd;stroke:#000000;stroke-width:2.0px;stroke-linecap:butt;stroke-linejoin:miter;stroke-opacity:1"/>
<path class="bond-11 atom-4 atom-5" d="M 173.0,129.8 L 191.8,142.1" style="fill:none;fill-rule:evenodd;stroke:#000000;stroke-width:2.0px;stroke-linecap:butt;stroke-linejoin:miter;stroke-opacity:1"/>
<path class="bond-11 atom-4 atom-5" d="M 173.3,135.4 L 186.5,144.1" style="fill:none;fill-rule:evenodd;stroke:#000000;stroke-width:2.0px;stroke-linecap:butt;stroke-linejoin:miter;stroke-opacity:1"/>
<path class="bond-12 atom-4 atom-9" d="M 173.0,129.8 L 152.9,139.9" style="fill:none;fill-rule:evenodd;stroke:#000000;stroke-width:2.0px;stroke-linecap:butt;stroke-linejoin:miter;stroke-opacity:1"/>
<path class="bond-13 atom-5 atom-6" d="M 191.8,142.1 L 190.5,164.6" style="fill:none;fill-rule:evenodd;stroke:#000000;stroke-width:2.0px;stroke-linecap:butt;stroke-linejoin:miter;stroke-opacity:1"/>
<path class="bond-14 atom-6 atom-7" d="M 190.5,164.6 L 170.4,174.7" style="fill:none;fill-rule:evenodd;stroke:#000000;stroke-width:2.0px;stroke-linecap:butt;stroke-linejoin:miter;stroke-opacity:1"/>
<path class="bond-14 atom-6 atom-7" d="M 185.4,162.1 L 171.4,169.2" style="fill:none;fill-rule:evenodd;stroke:#000000;stroke-width:2.0px;stroke-linecap:butt;stroke-linejoin:miter;stroke-opacity:1"/>
<path class="bond-15 atom-6 atom-18" d="M 190.5,164.6 L 198.5,169.9" style="fill:none;fill-rule:evenodd;stroke:#000000;stroke-width:2.0px;stroke-linecap:butt;stroke-linejoin:miter;stroke-opacity:1"/>
<path class="bond-15 atom-6 atom-18" d="M 198.5,169.9 L 206.5,175.1" style="fill:none;fill-rule:evenodd;stroke:#CCCC00;stroke-width:2.0px;stroke-linecap:butt;stroke-linejoin:miter;stroke-opacity:1"/>
<path class="bond-16 atom-7 atom-8" d="M 170.4,174.7 L 151.6,162.4" style="fill:none;fill-rule:evenodd;stroke:#000000;stroke-width:2.0px;stroke-linecap:butt;stroke-linejoin:miter;stroke-opacity:1"/>
<path class="bond-17 atom-7 atom-32" d="M 170.4,174.7 L 169.3,193.3" style="fill:none;fill-rule:evenodd;stroke:#000000;stroke-width:2.0px;stroke-linecap:butt;stroke-linejoin:miter;stroke-opacity:1"/>
<path class="bond-18 atom-8 atom-9" d="M 151.6,162.4 L 152.9,139.9" style="fill:none;fill-rule:evenodd;stroke:#000000;stroke-width:2.0px;stroke-linecap:butt;stroke-linejoin:miter;stroke-opacity:1"/>
<path class="bond-18 atom-8 atom-9" d="M 156.3,159.3 L 157.2,143.6" style="fill:none;fill-rule:evenodd;stroke:#000000;stroke-width:2.0px;stroke-linecap:butt;stroke-linejoin:miter;stroke-opacity:1"/>
<path class="bond-19 atom-8 atom-33" d="M 151.6,162.4 L 142.5,168.4" style="fill:none;fill-rule:evenodd;stroke:#000000;stroke-width:2.0px;stroke-linecap:butt;stroke-linejoin:miter;stroke-opacity:1"/>
<path class="bond-20 atom-9 atom-10" d="M 152.9,139.9 L 145.3,135.0" style="fill:none;fill-rule:evenodd;stroke:#000000;stroke-width:2.0px;stroke-linecap:butt;stroke-linejoin:miter;stroke-opacity:1"/>
<path class="bond-20 atom-9 atom-10" d="M 145.3,135.0 L 137.7,130.0" style="fill:none;fill-rule:evenodd;stroke:#FF0000;stroke-width:2.0px;stroke-linecap:butt;stroke-linejoin:miter;stroke-opacity:1"/>
<path class="bond-21 atom-10 atom-11" d="M 130.4,129.4 L 122.2,133.6" style="fill:none;fill-rule:evenodd;stroke:#FF0000;stroke-width:2.0px;stroke-linecap:butt;stroke-linejoin:miter;stroke-opacity:1"/>
<path class="bond-21 atom-10 atom-11" d="M 122.2,133.6 L 114.0,137.7" style="fill:none;fill-rule:evenodd;stroke:#000000;stroke-width:2.0px;stroke-linecap:butt;stroke-linejoin:miter;stroke-opacity:1"/>
<path class="bond-22 atom-11 atom-12" d="M 114.0,137.7 L 95.2,125.4" style="fill:none;fill-rule:evenodd;stroke:#000000;stroke-width:2.0px;stroke-linecap:butt;stroke-linejoin:miter;stroke-opacity:1"/>
<path class="bond-22 atom-11 atom-12" d="M 108.7,139.6 L 95.5,131.0" style="fill:none;fill-rule:evenodd;stroke:#000000;stroke-width:2.0px;stroke-linecap:butt;stroke-linejoin:miter;stroke-opacity:1"/>
<path class="bond-23 atom-11 atom-17" d="M 114.0,137.7 L 112.7,160.2" style="fill:none;fill-rule:evenodd;stroke:#000000;stroke-width:2.0px;stroke-linecap:butt;stroke-linejoin:miter;stroke-opacity:1"/>
<path class="bond-24 atom-12 atom-13" d="M 95.2,125.4 L 75.1,135.5" style="fill:none;fill-rule:evenodd;stroke:#000000;stroke-width:2.0px;stroke-linecap:butt;stroke-linejoin:miter;stroke-opacity:1"/>
<path class="bond-25 atom-12 atom-34" d="M 95.2,125.4 L 96.2,106.8" style="fill:none;fill-rule:evenodd;stroke:#000000;stroke-width:2.0px;stroke-linecap:butt;stroke-linejoin:miter;stroke-opacity:1"/>
<path class="bond-26 atom-13 atom-14" d="M 75.1,135.5 L 73.8,157.9" style="fill:none;fill-rule:evenodd;stroke:#000000;stroke-width:2.0px;stroke-linecap:butt;stroke-linejoin:miter;stroke-opacity:1"/>
<path class="bond-26 atom-13 atom-14" d="M 79.4,139.1 L 78.5,154.8" style="fill:none;fill-rule:evenodd;stroke:#000000;stroke-width:2.0px;stroke-linecap:butt;stroke-linejoin:miter;stroke-opacity:1"/>
<path class="bond-27 atom-13 atom-27" d="M 75.1,135.5 L 67.0,130.2" style="fill:none;fill-rule:evenodd;stroke:#000000;stroke-width:2.0px;stroke-linecap:butt;stroke-linejoin:miter;stroke-opacity:1"/>
<path class="bond-27 atom-13 atom-27" d="M 67.0,130.2 L 58.9,124.9" style="fill:none;fill-rule:evenodd;stroke:#33CCCC;stroke-width:2.0px;stroke-linecap:butt;stroke-linejoin:miter;stroke-opacity:1"/>
<path class="bond-28 atom-14 atom-15" d="M 73.8,157.9 L 92.6,170.3" style="fill:none;fill-rule:evenodd;stroke:#000000;stroke-width:2.0px;stroke-linecap:butt;stroke-linejoin:miter;stroke-opacity:1"/>
<path class="bond-29 atom-14 atom-35" d="M 73.8,157.9 L 56.9,166.4" style="fill:none;fill-rule:evenodd;stroke:#000000;stroke-width:2.0px;stroke-linecap:butt;stroke-linejoin:miter;stroke-opacity:1"/>
<path class="bond-30 atom-15 atom-16" d="M 92.6,170.3 L 91.3,192.7" style="fill:none;fill-rule:evenodd;stroke:#000000;stroke-width:2.0px;stroke-linecap:butt;stroke-linejoin:miter;stroke-opacity:1"/>
<path class="bond-31 atom-15 atom-17" d="M 92.6,170.3 L 112.7,160.2" style="fill:none;fill-rule:evenodd;stroke:#000000;stroke-width:2.0px;stroke-linecap:butt;stroke-linejoin:miter;stroke-opacity:1"/>
<path class="bond-31 atom-15 atom-17" d="M 93.6,164.7 L 107.6,157.7" style="fill:none;fill-rule:evenodd;stroke:#000000;stroke-width:2.0px;stroke-linecap:butt;stroke-linejoin:miter;stroke-opacity:1"/>
<path class="bond-32 atom-16 atom-24" d="M 91.3,192.7 L 90.8,202.0" style="fill:none;fill-rule:evenodd;stroke:#000000;stroke-width:2.0px;stroke-linecap:butt;stroke-linejoin:miter;stroke-opacity:1"/>
<path class="bond-32 atom-16 atom-24" d="M 90.8,202.0 L 90.3,211.3" style="fill:none;fill-rule:evenodd;stroke:#0000FF;stroke-width:2.0px;stroke-linecap:butt;stroke-linejoin:miter;stroke-opacity:1"/>
<path class="bond-32 atom-16 atom-24" d="M 95.6,195.8 L 95.2,203.7" style="fill:none;fill-rule:evenodd;stroke:#000000;stroke-width:2.0px;stroke-linecap:butt;stroke-linejoin:miter;stroke-opacity:1"/>
<path class="bond-32 atom-16 atom-24" d="M 95.2,203.7 L 94.7,211.5" style="fill:none;fill-rule:evenodd;stroke:#0000FF;stroke-width:2.0px;stroke-linecap:butt;stroke-linejoin:miter;stroke-opacity:1"/>
<path class="bond-32 atom-16 atom-24" d="M 86.7,195.3 L 86.2,203.1" style="fill:none;fill-rule:evenodd;stroke:#000000;stroke-width:2.0px;stroke-linecap:butt;stroke-linejoin:miter;stroke-opacity:1"/>
<path class="bond-32 atom-16 atom-24" d="M 86.2,203.1 L 85.8,211.0" style="fill:none;fill-rule:evenodd;stroke:#0000FF;stroke-width:2.0px;stroke-linecap:butt;stroke-linejoin:miter;stroke-opacity:1"/>
<path class="bond-33 atom-17 atom-36" d="M 112.7,160.2 L 120.7,167.0" style="fill:none;fill-rule:evenodd;stroke:#000000;stroke-width:2.0px;stroke-linecap:butt;stroke-linejoin:miter;stroke-opacity:1"/>
<path class="bond-34 atom-18 atom-19" d="M 210.5,172.7 L 215.6,168.1" style="fill:none;fill-rule:evenodd;stroke:#CCCC00;stroke-width:2.0px;stroke-linecap:butt;stroke-linejoin:miter;stroke-opacity:1"/>
<path class="bond-34 atom-18 atom-19" d="M 215.6,168.1 L 220.6,163.4" style="fill:none;fill-rule:evenodd;stroke:#FF0000;stroke-width:2.0px;stroke-linecap:butt;stroke-linejoin:miter;stroke-opacity:1"/>
<path class="bond-34 atom-18 atom-19" d="M 213.6,176.0 L 218.6,171.4" style="fill:none;fill-rule:evenodd;stroke:#CCCC00;stroke-width:2.0px;stroke-linecap:butt;stroke-linejoin:miter;stroke-opacity:1"/>
<path class="bond-34 atom-18 atom-19" d="M 218.6,171.4 L 223.7,166.7" style="fill:none;fill-rule:evenodd;stroke:#FF0000;stroke-width:2.0px;stroke-linecap:butt;stroke-linejoin:miter;stroke-opacity:1"/>
<path class="bond-35 atom-18 atom-20" d="M 208.5,182.3 L 205.0,187.6" style="fill:none;fill-rule:evenodd;stroke:#CCCC00;stroke-width:2.0px;stroke-linecap:butt;stroke-linejoin:miter;stroke-opacity:1"/>
<path class="bond-35 atom-18 atom-20" d="M 205.0,187.6 L 201.4,193.0" style="fill:none;fill-rule:evenodd;stroke:#FF0000;stroke-width:2.0px;stroke-linecap:butt;stroke-linejoin:miter;stroke-opacity:1"/>
<path class="bond-35 atom-18 atom-20" d="M 204.7,179.8 L 201.2,185.2" style="fill:none;fill-rule:evenodd;stroke:#CCCC00;stroke-width:2.0px;stroke-linecap:butt;stroke-linejoin:miter;stroke-opacity:1"/>
<path class="bond-35 atom-18 atom-20" d="M 201.2,185.2 L 197.7,190.6" style="fill:none;fill-rule:evenodd;stroke:#FF0000;stroke-width:2.0px;stroke-linecap:butt;stroke-linejoin:miter;stroke-opacity:1"/>
<path class="bond-36 atom-18 atom-21" d="M 212.1,178.8 L 220.1,184.0" style="fill:none;fill-rule:evenodd;stroke:#CCCC00;stroke-width:2.0px;stroke-linecap:butt;stroke-linejoin:miter;stroke-opacity:1"/>
<path class="bond-36 atom-18 atom-21" d="M 220.1,184.0 L 228.1,189.3" style="fill:none;fill-rule:evenodd;stroke:#000000;stroke-width:2.0px;stroke-linecap:butt;stroke-linejoin:miter;stroke-opacity:1"/>
<path class="bond-37 atom-21 atom-25" d="M 228.1,189.3 L 223.2,196.7" style="fill:none;fill-rule:evenodd;stroke:#000000;stroke-width:2.0px;stroke-linecap:butt;stroke-linejoin:miter;stroke-opacity:1"/>
<path class="bond-37 atom-21 atom-25" d="M 223.2,196.7 L 218.3,204.2" style="fill:none;fill-rule:evenodd;stroke:#33CCCC;stroke-width:2.0px;stroke-linecap:butt;stroke-linejoin:miter;stroke-opacity:1"/>
<path class="bond-38 atom-21 atom-26" d="M 228.1,189.3 L 236.2,194.6" style="fill:none;fill-rule:evenodd;stroke:#000000;stroke-width:2.0px;stroke-linecap:butt;stroke-linejoin:miter;stroke-opacity:1"/>
<path class="bond-38 atom-21 atom-26" d="M 236.2,194.6 L 244.3,199.9" style="fill:none;fill-rule:evenodd;stroke:#33CCCC;stroke-width:2.0px;stroke-linecap:butt;stroke-linejoin:miter;stroke-opacity:1"/>
<path class="bond-39 atom-21 atom-37" d="M 228.1,189.3 L 237.9,174.4" style="fill:none;fill-rule:evenodd;stroke:#000000;stroke-width:2.0px;stroke-linecap:butt;stroke-linejoin:miter;stroke-opacity:1"/>
<path class="atom-0" d="M 218.5 147.0 Q 218.5 145.5, 219.3 144.6 Q 220.1 143.8, 221.5 143.8 Q 222.9 143.8, 223.6 144.6 Q 224.4 145.5, 224.4 147.0 Q 224.4 148.6, 223.6 149.4 Q 222.9 150.3, 221.5 150.3 Q 220.1 150.3, 219.3 149.4 Q 218.5 148.6, 218.5 147.0 M 221.5 149.6 Q 222.4 149.6, 223.0 148.9 Q 223.5 148.3, 223.5 147.0 Q 223.5 145.8, 223.0 145.1 Q 222.4 144.5, 221.5 144.5 Q 220.5 144.5, 220.0 145.1 Q 219.4 145.8, 219.4 147.0 Q 219.4 148.3, 220.0 148.9 Q 220.5 149.6, 221.5 149.6 " fill="#FF0000"/>
<path class="atom-10" d="M 131.1 127.6 Q 131.1 126.1, 131.9 125.2 Q 132.6 124.4, 134.1 124.4 Q 135.5 124.4, 136.2 125.2 Q 137.0 126.1, 137.0 127.6 Q 137.0 129.2, 136.2 130.0 Q 135.5 130.9, 134.1 130.9 Q 132.7 130.9, 131.9 130.0 Q 131.1 129.2, 131.1 127.6 M 134.1 130.2 Q 135.0 130.2, 135.6 129.5 Q 136.1 128.9, 136.1 127.6 Q 136.1 126.4, 135.6 125.7 Q 135.0 125.1, 134.1 125.1 Q 133.1 125.1, 132.6 125.7 Q 132.0 126.3, 132.0 127.6 Q 132.0 128.9, 132.6 129.5 Q 133.1 130.2, 134.1 130.2 " fill="#FF0000"/>
<path class="atom-18" d="M 207.5 179.1 Q 207.6 179.2, 207.9 179.3 Q 208.2 179.4, 208.5 179.5 Q 208.8 179.6, 209.1 179.6 Q 209.7 179.6, 210.1 179.3 Q 210.4 179.0, 210.4 178.5 Q 210.4 178.1, 210.3 177.9 Q 210.1 177.7, 209.8 177.6 Q 209.5 177.4, 209.1 177.3 Q 208.5 177.1, 208.2 177.0 Q 207.9 176.8, 207.6 176.5 Q 207.4 176.1, 207.4 175.6 Q 207.4 174.8, 207.9 174.3 Q 208.5 173.8, 209.5 173.8 Q 210.3 173.8, 211.1 174.1 L 210.9 174.8 Q 210.2 174.5, 209.6 174.5 Q 209.0 174.5, 208.6 174.8 Q 208.3 175.0, 208.3 175.5 Q 208.3 175.8, 208.4 176.0 Q 208.6 176.2, 208.9 176.3 Q 209.1 176.4, 209.6 176.6 Q 210.2 176.8, 210.5 176.9 Q 210.8 177.1, 211.1 177.5 Q 211.3 177.8, 211.3 178.5 Q 211.3 179.3, 210.7 179.8 Q 210.2 180.3, 209.2 180.3 Q 208.6 180.3, 208.2 180.2 Q 207.7 180.0, 207.2 179.8 L 207.5 179.1 " fill="#CCCC00"/>
<path class="atom-19" d="M 222.9 161.7 Q 222.9 160.2, 223.6 159.3 Q 224.4 158.5, 225.8 158.5 Q 227.2 158.5, 228.0 159.3 Q 228.7 160.2, 228.7 161.7 Q 228.7 163.2, 228.0 164.1 Q 227.2 165.0, 225.8 165.0 Q 224.4 165.0, 223.6 164.1 Q 222.9 163.3, 222.9 161.7 M 225.8 164.3 Q 226.8 164.3, 227.3 163.6 Q 227.8 163.0, 227.8 161.7 Q 227.8 160.5, 227.3 159.8 Q 226.8 159.2, 225.8 159.2 Q 224.8 159.2, 224.3 159.8 Q 223.8 160.4, 223.8 161.7 Q 223.8 163.0, 224.3 163.6 Q 224.8 164.3, 225.8 164.3 " fill="#FF0000"/>
<path class="atom-20" d="M 194.0 195.8 Q 194.0 194.2, 194.8 193.4 Q 195.5 192.5, 196.9 192.5 Q 198.4 192.5, 199.1 193.4 Q 199.9 194.2, 199.9 195.8 Q 199.9 197.3, 199.1 198.2 Q 198.3 199.1, 196.9 199.1 Q 195.5 199.1, 194.8 198.2 Q 194.0 197.3, 194.0 195.8 M 196.9 198.4 Q 197.9 198.4, 198.4 197.7 Q 199.0 197.0, 199.0 195.8 Q 199.0 194.5, 198.4 193.9 Q 197.9 193.3, 196.9 193.3 Q 196.0 193.3, 195.4 193.9 Q 194.9 194.5, 194.9 195.8 Q 194.9 197.1, 195.4 197.7 Q 196.0 198.4, 196.9 198.4 " fill="#FF0000"/>
<path class="atom-22" d="M 196.0 81.6 L 199.8 81.6 L 199.8 82.3 L 196.9 82.3 L 196.9 84.3 L 199.5 84.3 L 199.5 85.0 L 196.9 85.0 L 196.9 88.0 L 196.0 88.0 L 196.0 81.6 " fill="#33CCCC"/>
<path class="atom-23" d="M 221.2 98.1 L 225.0 98.1 L 225.0 98.9 L 222.1 98.9 L 222.1 100.8 L 224.7 100.8 L 224.7 101.5 L 222.1 101.5 L 222.1 104.5 L 221.2 104.5 L 221.2 98.1 " fill="#33CCCC"/>
<path class="atom-24" d="M 88.6 212.0 L 90.7 215.4 Q 90.9 215.7, 91.2 216.3 Q 91.6 216.9, 91.6 217.0 L 91.6 212.0 L 92.4 212.0 L 92.4 218.4 L 91.6 218.4 L 89.3 214.7 Q 89.1 214.3, 88.8 213.8 Q 88.5 213.3, 88.4 213.1 L 88.4 218.4 L 87.6 218.4 L 87.6 212.0 L 88.6 212.0 " fill="#0000FF"/>
<path class="atom-25" d="M 213.9 204.9 L 217.6 204.9 L 217.6 205.6 L 214.7 205.6 L 214.7 207.6 L 217.3 207.6 L 217.3 208.3 L 214.7 208.3 L 214.7 211.3 L 213.9 211.3 L 213.9 204.9 " fill="#33CCCC"/>
<path class="atom-26" d="M 245.0 198.4 L 248.8 198.4 L 248.8 199.2 L 245.9 199.2 L 245.9 201.1 L 248.5 201.1 L 248.5 201.8 L 245.9 201.8 L 245.9 204.8 L 245.0 204.8 L 245.0 198.4 " fill="#33CCCC"/>
<path class="atom-27" d="M 54.4 120.0 L 58.2 120.0 L 58.2 120.7 L 55.2 120.7 L 55.2 122.6 L 57.8 122.6 L 57.8 123.4 L 55.2 123.4 L 55.2 126.3 L 54.4 126.3 L 54.4 120.0 " fill="#33CCCC"/>
<path class="atom-28" d="M 241.4 142.7 L 242.3 142.7 L 242.3 145.4 L 245.6 145.4 L 245.6 142.7 L 246.4 142.7 L 246.4 149.1 L 245.6 149.1 L 245.6 146.2 L 242.3 146.2 L 242.3 149.1 L 241.4 149.1 L 241.4 142.7 " fill="#000000"/>
<path class="atom-29" d="M 226.9 114.8 L 227.8 114.8 L 227.8 117.5 L 231.0 117.5 L 231.0 114.8 L 231.9 114.8 L 231.9 121.1 L 231.0 121.1 L 231.0 118.2 L 227.8 118.2 L 227.8 121.1 L 226.9 121.1 L 226.9 114.8 " fill="#000000"/>
<path class="atom-30" d="M 154.2 101.3 L 155.0 101.3 L 155.0 104.0 L 158.3 104.0 L 158.3 101.3 L 159.2 101.3 L 159.2 107.7 L 158.3 107.7 L 158.3 104.7 L 155.0 104.7 L 155.0 107.7 L 154.2 107.7 L 154.2 101.3 " fill="#000000"/>
<path class="atom-31" d="M 177.7 82.5 L 178.5 82.5 L 178.5 85.2 L 181.8 85.2 L 181.8 82.5 L 182.7 82.5 L 182.7 88.8 L 181.8 88.8 L 181.8 85.9 L 178.5 85.9 L 178.5 88.8 L 177.7 88.8 L 177.7 82.5 " fill="#000000"/>
<path class="atom-32" d="M 166.6 194.0 L 167.5 194.0 L 167.5 196.7 L 170.7 196.7 L 170.7 194.0 L 171.6 194.0 L 171.6 200.4 L 170.7 200.4 L 170.7 197.4 L 167.5 197.4 L 167.5 200.4 L 166.6 200.4 L 166.6 194.0 " fill="#000000"/>
<path class="atom-33" d="M 136.8 167.4 L 137.7 167.4 L 137.7 170.1 L 140.9 170.1 L 140.9 167.4 L 141.8 167.4 L 141.8 173.8 L 140.9 173.8 L 140.9 170.8 L 137.7 170.8 L 137.7 173.8 L 136.8 173.8 L 136.8 167.4 " fill="#000000"/>
<path class="atom-34" d="M 93.9 99.7 L 94.8 99.7 L 94.8 102.4 L 98.1 102.4 L 98.1 99.7 L 98.9 99.7 L 98.9 106.1 L 98.1 106.1 L 98.1 103.2 L 94.8 103.2 L 94.8 106.1 L 93.9 106.1 L 93.9 99.7 " fill="#000000"/>
<path class="atom-35" d="M 51.2 164.9 L 52.1 164.9 L 52.1 167.6 L 55.3 167.6 L 55.3 164.9 L 56.2 164.9 L 56.2 171.2 L 55.3 171.2 L 55.3 168.3 L 52.1 168.3 L 52.1 171.2 L 51.2 171.2 L 51.2 164.9 " fill="#000000"/>
<path class="atom-36" d="M 121.5 166.5 L 122.3 166.5 L 122.3 169.2 L 125.6 169.2 L 125.6 166.5 L 126.4 166.5 L 126.4 172.9 L 125.6 172.9 L 125.6 169.9 L 122.3 169.9 L 122.3 172.9 L 121.5 172.9 L 121.5 166.5 " fill="#000000"/>
<path class="atom-37" d="M 237.9 167.3 L 238.8 167.3 L 238.8 170.0 L 242.1 170.0 L 242.1 167.3 L 242.9 167.3 L 242.9 173.7 L 242.1 173.7 L 242.1 170.7 L 238.8 170.7 L 238.8 173.7 L 237.9 173.7 L 237.9 167.3 " fill="#000000"/>
<path class="bond-0 atom-0 atom-2" d="M 412.5,182.9 L 417.5,161.0" style="fill:none;fill-rule:evenodd;stroke:#000000;stroke-width:2.0px;stroke-linecap:butt;stroke-linejoin:miter;stroke-opacity:1"/>
<path class="bond-1 atom-0 atom-24" d="M 412.5,182.9 L 431.2,187.2" style="fill:none;fill-rule:evenodd;stroke:#000000;stroke-width:2.0px;stroke-linecap:butt;stroke-linejoin:miter;stroke-opacity:1"/>
<path class="bond-2 atom-0 atom-25" d="M 412.5,182.9 L 397.6,181.3" style="fill:none;fill-rule:evenodd;stroke:#000000;stroke-width:2.0px;stroke-linecap:butt;stroke-linejoin:miter;stroke-opacity:1"/>
<path class="bond-3 atom-0 atom-26" d="M 412.5,182.9 L 408.3,200.9" style="fill:none;fill-rule:evenodd;stroke:#000000;stroke-width:2.0px;stroke-linecap:butt;stroke-linejoin:miter;stroke-opacity:1"/>
<path class="bond-4 atom-1 atom-2" d="M 439.0,154.4 L 417.5,161.0" style="fill:none;fill-rule:evenodd;stroke:#000000;stroke-width:2.0px;stroke-linecap:butt;stroke-linejoin:miter;stroke-opacity:1"/>
<path class="bond-4 atom-1 atom-2" d="M 434.4,151.0 L 419.4,155.7" style="fill:none;fill-rule:evenodd;stroke:#000000;stroke-width:2.0px;stroke-linecap:butt;stroke-linejoin:miter;stroke-opacity:1"/>
<path class="bond-5 atom-1 atom-6" d="M 439.0,154.4 L 444.0,132.4" style="fill:none;fill-rule:evenodd;stroke:#000000;stroke-width:2.0px;stroke-linecap:butt;stroke-linejoin:miter;stroke-opacity:1"/>
<path class="bond-6 atom-1 atom-21" d="M 439.0,154.4 L 455.5,169.7" style="fill:none;fill-rule:evenodd;stroke:#000000;stroke-width:2.0px;stroke-linecap:butt;stroke-linejoin:miter;stroke-opacity:1"/>
<path class="bond-7 atom-2 atom-3" d="M 417.5,161.0 L 401.0,145.6" style="fill:none;fill-rule:evenodd;stroke:#000000;stroke-width:2.0px;stroke-linecap:butt;stroke-linejoin:miter;stroke-opacity:1"/>
<path class="bond-8 atom-3 atom-4" d="M 401.0,145.6 L 406.0,123.7" style="fill:none;fill-rule:evenodd;stroke:#000000;stroke-width:2.0px;stroke-linecap:butt;stroke-linejoin:miter;stroke-opacity:1"/>
<path class="bond-8 atom-3 atom-4" d="M 406.2,143.4 L 409.7,128.0" style="fill:none;fill-rule:evenodd;stroke:#000000;stroke-width:2.0px;stroke-linecap:butt;stroke-linejoin:miter;stroke-opacity:1"/>
<path class="bond-9 atom-3 atom-15" d="M 401.0,145.6 L 391.6,148.5" style="fill:none;fill-rule:evenodd;stroke:#000000;stroke-width:2.0px;stroke-linecap:butt;stroke-linejoin:miter;stroke-opacity:1"/>
<path class="bond-9 atom-3 atom-15" d="M 391.6,148.5 L 382.3,151.4" style="fill:none;fill-rule:evenodd;stroke:#CCCC00;stroke-width:2.0px;stroke-linecap:butt;stroke-linejoin:miter;stroke-opacity:1"/>
<path class="bond-10 atom-4 atom-5" d="M 406.0,123.7 L 427.5,117.1" style="fill:none;fill-rule:evenodd;stroke:#000000;stroke-width:2.0px;stroke-linecap:butt;stroke-linejoin:miter;stroke-opacity:1"/>
<path class="bond-11 atom-4 atom-27" d="M 406.0,123.7 L 392.8,111.4" style="fill:none;fill-rule:evenodd;stroke:#000000;stroke-width:2.0px;stroke-linecap:butt;stroke-linejoin:miter;stroke-opacity:1"/>
<path class="bond-12 atom-5 atom-6" d="M 427.5,117.1 L 444.0,132.4" style="fill:none;fill-rule:evenodd;stroke:#000000;stroke-width:2.0px;stroke-linecap:butt;stroke-linejoin:miter;stroke-opacity:1"/>
<path class="bond-12 atom-5 atom-6" d="M 426.9,122.7 L 438.5,133.4" style="fill:none;fill-rule:evenodd;stroke:#000000;stroke-width:2.0px;stroke-linecap:butt;stroke-linejoin:miter;stroke-opacity:1"/>
<path class="bond-13 atom-5 atom-28" d="M 427.5,117.1 L 431.7,99.1" style="fill:none;fill-rule:evenodd;stroke:#000000;stroke-width:2.0px;stroke-linecap:butt;stroke-linejoin:miter;stroke-opacity:1"/>
<path class="bond-14 atom-6 atom-7" d="M 444.0,132.4 L 452.9,129.7" style="fill:none;fill-rule:evenodd;stroke:#000000;stroke-width:2.0px;stroke-linecap:butt;stroke-linejoin:miter;stroke-opacity:1"/>
<path class="bond-14 atom-6 atom-7" d="M 452.9,129.7 L 461.9,126.9" style="fill:none;fill-rule:evenodd;stroke:#FF0000;stroke-width:2.0px;stroke-linecap:butt;stroke-linejoin:miter;stroke-opacity:1"/>
<path class="bond-15 atom-7 atom-8" d="M 469.2,129.2 L 475.6,135.2" style="fill:none;fill-rule:evenodd;stroke:#FF0000;stroke-width:2.0px;stroke-linecap:butt;stroke-linejoin:miter;stroke-opacity:1"/>
<path class="bond-15 atom-7 atom-8" d="M 475.6,135.2 L 482.0,141.1" style="fill:none;fill-rule:evenodd;stroke:#000000;stroke-width:2.0px;stroke-linecap:butt;stroke-linejoin:miter;stroke-opacity:1"/>
<path class="bond-16 atom-8 atom-9" d="M 482.0,141.1 L 477.0,163.1" style="fill:none;fill-rule:evenodd;stroke:#000000;stroke-width:2.0px;stroke-linecap:butt;stroke-linejoin:miter;stroke-opacity:1"/>
<path class="bond-16 atom-8 atom-9" d="M 485.6,145.4 L 482.1,160.8" style="fill:none;fill-rule:evenodd;stroke:#000000;stroke-width:2.0px;stroke-linecap:butt;stroke-linejoin:miter;stroke-opacity:1"/>
<path class="bond-17 atom-8 atom-14" d="M 482.0,141.1 L 503.5,134.5" style="fill:none;fill-rule:evenodd;stroke:#000000;stroke-width:2.0px;stroke-linecap:butt;stroke-linejoin:miter;stroke-opacity:1"/>
<path class="bond-18 atom-9 atom-10" d="M 477.0,163.1 L 493.4,178.4" style="fill:none;fill-rule:evenodd;stroke:#000000;stroke-width:2.0px;stroke-linecap:butt;stroke-linejoin:miter;stroke-opacity:1"/>
<path class="bond-19 atom-9 atom-29" d="M 477.0,163.1 L 469.9,167.3" style="fill:none;fill-rule:evenodd;stroke:#000000;stroke-width:2.0px;stroke-linecap:butt;stroke-linejoin:miter;stroke-opacity:1"/>
<path class="bond-20 atom-10 atom-11" d="M 493.4,178.4 L 514.9,171.8" style="fill:none;fill-rule:evenodd;stroke:#000000;stroke-width:2.0px;stroke-linecap:butt;stroke-linejoin:miter;stroke-opacity:1"/>
<path class="bond-20 atom-10 atom-11" d="M 495.3,173.1 L 510.4,168.5" style="fill:none;fill-rule:evenodd;stroke:#000000;stroke-width:2.0px;stroke-linecap:butt;stroke-linejoin:miter;stroke-opacity:1"/>
<path class="bond-21 atom-10 atom-30" d="M 493.4,178.4 L 489.3,196.4" style="fill:none;fill-rule:evenodd;stroke:#000000;stroke-width:2.0px;stroke-linecap:butt;stroke-linejoin:miter;stroke-opacity:1"/>
<path class="bond-22 atom-11 atom-12" d="M 514.9,171.8 L 520.0,149.8" style="fill:none;fill-rule:evenodd;stroke:#000000;stroke-width:2.0px;stroke-linecap:butt;stroke-linejoin:miter;stroke-opacity:1"/>
<path class="bond-23 atom-11 atom-31" d="M 514.9,171.8 L 528.2,184.1" style="fill:none;fill-rule:evenodd;stroke:#000000;stroke-width:2.0px;stroke-linecap:butt;stroke-linejoin:miter;stroke-opacity:1"/>
<path class="bond-24 atom-12 atom-13" d="M 520.0,149.8 L 541.5,143.2" style="fill:none;fill-rule:evenodd;stroke:#000000;stroke-width:2.0px;stroke-linecap:butt;stroke-linejoin:miter;stroke-opacity:1"/>
<path class="bond-25 atom-12 atom-14" d="M 520.0,149.8 L 503.5,134.5" style="fill:none;fill-rule:evenodd;stroke:#000000;stroke-width:2.0px;stroke-linecap:butt;stroke-linejoin:miter;stroke-opacity:1"/>
<path class="bond-25 atom-12 atom-14" d="M 514.4,150.8 L 502.9,140.1" style="fill:none;fill-rule:evenodd;stroke:#000000;stroke-width:2.0px;stroke-linecap:butt;stroke-linejoin:miter;stroke-opacity:1"/>
<path class="bond-26 atom-13 atom-23" d="M 541.5,143.2 L 550.6,140.4" style="fill:none;fill-rule:evenodd;stroke:#000000;stroke-width:2.0px;stroke-linecap:butt;stroke-linejoin:miter;stroke-opacity:1"/>
<path class="bond-26 atom-13 atom-23" d="M 550.6,140.4 L 559.8,137.6" style="fill:none;fill-rule:evenodd;stroke:#0000FF;stroke-width:2.0px;stroke-linecap:butt;stroke-linejoin:miter;stroke-opacity:1"/>
<path class="bond-26 atom-13 atom-23" d="M 542.9,138.1 L 550.7,135.7" style="fill:none;fill-rule:evenodd;stroke:#000000;stroke-width:2.0px;stroke-linecap:butt;stroke-linejoin:miter;stroke-opacity:1"/>
<path class="bond-26 atom-13 atom-23" d="M 550.7,135.7 L 558.5,133.3" style="fill:none;fill-rule:evenodd;stroke:#0000FF;stroke-width:2.0px;stroke-linecap:butt;stroke-linejoin:miter;stroke-opacity:1"/>
<path class="bond-26 atom-13 atom-23" d="M 545.5,146.7 L 553.3,144.3" style="fill:none;fill-rule:evenodd;stroke:#000000;stroke-width:2.0px;stroke-linecap:butt;stroke-linejoin:miter;stroke-opacity:1"/>
<path class="bond-26 atom-13 atom-23" d="M 553.3,144.3 L 561.2,141.9" style="fill:none;fill-rule:evenodd;stroke:#0000FF;stroke-width:2.0px;stroke-linecap:butt;stroke-linejoin:miter;stroke-opacity:1"/>
<path class="bond-27 atom-14 atom-32" d="M 503.5,134.5 L 507.6,116.5" style="fill:none;fill-rule:evenodd;stroke:#000000;stroke-width:2.0px;stroke-linecap:butt;stroke-linejoin:miter;stroke-opacity:1"/>
<path class="bond-28 atom-15 atom-16" d="M 376.2,149.0 L 374.1,142.2" style="fill:none;fill-rule:evenodd;stroke:#CCCC00;stroke-width:2.0px;stroke-linecap:butt;stroke-linejoin:miter;stroke-opacity:1"/>
<path class="bond-28 atom-15 atom-16" d="M 374.1,142.2 L 372.0,135.5" style="fill:none;fill-rule:evenodd;stroke:#FF0000;stroke-width:2.0px;stroke-linecap:butt;stroke-linejoin:miter;stroke-opacity:1"/>
<path class="bond-28 atom-15 atom-16" d="M 380.5,147.7 L 378.4,140.9" style="fill:none;fill-rule:evenodd;stroke:#CCCC00;stroke-width:2.0px;stroke-linecap:butt;stroke-linejoin:miter;stroke-opacity:1"/>
<path class="bond-28 atom-15 atom-16" d="M 378.4,140.9 L 376.3,134.1" style="fill:none;fill-rule:evenodd;stroke:#FF0000;stroke-width:2.0px;stroke-linecap:butt;stroke-linejoin:miter;stroke-opacity:1"/>
<path class="bond-29 atom-15 atom-17" d="M 382.5,155.9 L 383.3,160.9" style="fill:none;fill-rule:evenodd;stroke:#CCCC00;stroke-width:2.0px;stroke-linecap:butt;stroke-linejoin:miter;stroke-opacity:1"/>
<path class="bond-29 atom-15 atom-17" d="M 383.3,160.9 L 384.2,165.9" style="fill:none;fill-rule:evenodd;stroke:#FF0000;stroke-width:2.0px;stroke-linecap:butt;stroke-linejoin:miter;stroke-opacity:1"/>
<path class="bond-29 atom-15 atom-17" d="M 378.0,156.7 L 378.9,161.7" style="fill:none;fill-rule:evenodd;stroke:#CCCC00;stroke-width:2.0px;stroke-linecap:butt;stroke-linejoin:miter;stroke-opacity:1"/>
<path class="bond-29 atom-15 atom-17" d="M 378.9,161.7 L 379.8,166.6" style="fill:none;fill-rule:evenodd;stroke:#FF0000;stroke-width:2.0px;stroke-linecap:butt;stroke-linejoin:miter;stroke-opacity:1"/>
<path class="bond-30 atom-15 atom-18" d="M 376.7,153.1 L 367.4,156.0" style="fill:none;fill-rule:evenodd;stroke:#CCCC00;stroke-width:2.0px;stroke-linecap:butt;stroke-linejoin:miter;stroke-opacity:1"/>
<path class="bond-30 atom-15 atom-18" d="M 367.4,156.0 L 358.0,158.9" style="fill:none;fill-rule:evenodd;stroke:#000000;stroke-width:2.0px;stroke-linecap:butt;stroke-linejoin:miter;stroke-opacity:1"/>
<path class="bond-31 atom-18 atom-19" d="M 358.0,158.9 L 360.7,167.7" style="fill:none;fill-rule:evenodd;stroke:#000000;stroke-width:2.0px;stroke-linecap:butt;stroke-linejoin:miter;stroke-opacity:1"/>
<path class="bond-31 atom-18 atom-19" d="M 360.7,167.7 L 363.4,176.5" style="fill:none;fill-rule:evenodd;stroke:#33CCCC;stroke-width:2.0px;stroke-linecap:butt;stroke-linejoin:miter;stroke-opacity:1"/>
<path class="bond-32 atom-18 atom-20" d="M 358.0,158.9 L 348.6,161.8" style="fill:none;fill-rule:evenodd;stroke:#000000;stroke-width:2.0px;stroke-linecap:butt;stroke-linejoin:miter;stroke-opacity:1"/>
<path class="bond-32 atom-18 atom-20" d="M 348.6,161.8 L 339.1,164.7" style="fill:none;fill-rule:evenodd;stroke:#33CCCC;stroke-width:2.0px;stroke-linecap:butt;stroke-linejoin:miter;stroke-opacity:1"/>
<path class="bond-33 atom-18 atom-33" d="M 358.0,158.9 L 352.6,141.3" style="fill:none;fill-rule:evenodd;stroke:#000000;stroke-width:2.0px;stroke-linecap:butt;stroke-linejoin:miter;stroke-opacity:1"/>
<path class="bond-34 atom-21 atom-22" d="M 455.5,169.7 L 462.1,175.9" style="fill:none;fill-rule:evenodd;stroke:#000000;stroke-width:2.0px;stroke-linecap:butt;stroke-linejoin:miter;stroke-opacity:1"/>
<path class="bond-34 atom-21 atom-22" d="M 462.1,175.9 L 468.8,182.1" style="fill:none;fill-rule:evenodd;stroke:#0000FF;stroke-width:2.0px;stroke-linecap:butt;stroke-linejoin:miter;stroke-opacity:1"/>
<path class="bond-34 atom-21 atom-22" d="M 460.5,168.2 L 466.2,173.5" style="fill:none;fill-rule:evenodd;stroke:#000000;stroke-width:2.0px;stroke-linecap:butt;stroke-linejoin:miter;stroke-opacity:1"/>
<path class="bond-34 atom-21 atom-22" d="M 466.2,173.5 L 471.9,178.8" style="fill:none;fill-rule:evenodd;stroke:#0000FF;stroke-width:2.0px;stroke-linecap:butt;stroke-linejoin:miter;stroke-opacity:1"/>
<path class="bond-34 atom-21 atom-22" d="M 454.4,174.8 L 460.1,180.1" style="fill:none;fill-rule:evenodd;stroke:#000000;stroke-width:2.0px;stroke-linecap:butt;stroke-linejoin:miter;stroke-opacity:1"/>
<path class="bond-34 atom-21 atom-22" d="M 460.1,180.1 L 465.7,185.4" style="fill:none;fill-rule:evenodd;stroke:#0000FF;stroke-width:2.0px;stroke-linecap:butt;stroke-linejoin:miter;stroke-opacity:1"/>
<path class="atom-7" d="M 462.6 125.8 Q 462.6 124.3, 463.3 123.5 Q 464.1 122.6, 465.5 122.6 Q 466.9 122.6, 467.7 123.5 Q 468.4 124.3, 468.4 125.8 Q 468.4 127.4, 467.7 128.3 Q 466.9 129.1, 465.5 129.1 Q 464.1 129.1, 463.3 128.3 Q 462.6 127.4, 462.6 125.8 M 465.5 128.4 Q 466.5 128.4, 467.0 127.8 Q 467.5 127.1, 467.5 125.8 Q 467.5 124.6, 467.0 124.0 Q 466.5 123.3, 465.5 123.3 Q 464.5 123.3, 464.0 123.9 Q 463.5 124.6, 463.5 125.8 Q 463.5 127.1, 464.0 127.8 Q 464.5 128.4, 465.5 128.4 " fill="#FF0000"/>
<path class="atom-15" d="M 377.7 154.4 Q 377.8 154.5, 378.1 154.6 Q 378.4 154.7, 378.7 154.8 Q 379.0 154.9, 379.4 154.9 Q 380.0 154.9, 380.3 154.6 Q 380.7 154.3, 380.7 153.8 Q 380.7 153.4, 380.5 153.2 Q 380.3 153.0, 380.0 152.9 Q 379.8 152.8, 379.3 152.6 Q 378.8 152.5, 378.4 152.3 Q 378.1 152.1, 377.8 151.8 Q 377.6 151.4, 377.6 150.9 Q 377.6 150.1, 378.1 149.6 Q 378.7 149.1, 379.8 149.1 Q 380.5 149.1, 381.3 149.4 L 381.1 150.1 Q 380.4 149.8, 379.8 149.8 Q 379.2 149.8, 378.8 150.1 Q 378.5 150.3, 378.5 150.8 Q 378.5 151.1, 378.7 151.3 Q 378.9 151.5, 379.1 151.6 Q 379.4 151.8, 379.8 151.9 Q 380.4 152.1, 380.7 152.2 Q 381.1 152.4, 381.3 152.8 Q 381.6 153.2, 381.6 153.8 Q 381.6 154.7, 381.0 155.1 Q 380.4 155.6, 379.4 155.6 Q 378.8 155.6, 378.4 155.5 Q 378.0 155.4, 377.5 155.2 L 377.7 154.4 " fill="#CCCC00"/>
<path class="atom-16" d="M 370.0 130.8 Q 370.0 129.2, 370.7 128.4 Q 371.5 127.5, 372.9 127.5 Q 374.3 127.5, 375.1 128.4 Q 375.8 129.2, 375.8 130.8 Q 375.8 132.3, 375.1 133.2 Q 374.3 134.1, 372.9 134.1 Q 371.5 134.1, 370.7 133.2 Q 370.0 132.3, 370.0 130.8 M 372.9 133.4 Q 373.9 133.4, 374.4 132.7 Q 374.9 132.1, 374.9 130.8 Q 374.9 129.5, 374.4 128.9 Q 373.9 128.3, 372.9 128.3 Q 371.9 128.3, 371.4 128.9 Q 370.9 129.5, 370.9 130.8 Q 370.9 132.1, 371.4 132.7 Q 371.9 133.4, 372.9 133.4 " fill="#FF0000"/>
<path class="atom-17" d="M 379.8 170.2 Q 379.8 168.7, 380.5 167.8 Q 381.3 167.0, 382.7 167.0 Q 384.1 167.0, 384.9 167.8 Q 385.6 168.7, 385.6 170.2 Q 385.6 171.8, 384.9 172.6 Q 384.1 173.5, 382.7 173.5 Q 381.3 173.5, 380.5 172.6 Q 379.8 171.8, 379.8 170.2 M 382.7 172.8 Q 383.7 172.8, 384.2 172.1 Q 384.7 171.5, 384.7 170.2 Q 384.7 169.0, 384.2 168.3 Q 383.7 167.7, 382.7 167.7 Q 381.7 167.7, 381.2 168.3 Q 380.7 169.0, 380.7 170.2 Q 380.7 171.5, 381.2 172.1 Q 381.7 172.8, 382.7 172.8 " fill="#FF0000"/>
<path class="atom-19" d="M 362.7 177.2 L 366.5 177.2 L 366.5 177.9 L 363.6 177.9 L 363.6 179.8 L 366.2 179.8 L 366.2 180.6 L 363.6 180.6 L 363.6 183.6 L 362.7 183.6 L 362.7 177.2 " fill="#33CCCC"/>
<path class="atom-20" d="M 334.6 162.3 L 338.4 162.3 L 338.4 163.0 L 335.5 163.0 L 335.5 165.0 L 338.1 165.0 L 338.1 165.7 L 335.5 165.7 L 335.5 168.7 L 334.6 168.7 L 334.6 162.3 " fill="#33CCCC"/>
<path class="atom-22" d="M 470.5 181.8 L 472.6 185.2 Q 472.8 185.5, 473.2 186.1 Q 473.5 186.7, 473.5 186.7 L 473.5 181.8 L 474.4 181.8 L 474.4 188.2 L 473.5 188.2 L 471.2 184.5 Q 471.0 184.0, 470.7 183.6 Q 470.4 183.1, 470.3 182.9 L 470.3 188.2 L 469.5 188.2 L 469.5 181.8 L 470.5 181.8 " fill="#0000FF"/>
<path class="atom-23" d="M 561.6 133.4 L 563.6 136.8 Q 563.9 137.1, 564.2 137.7 Q 564.5 138.3, 564.5 138.4 L 564.5 133.4 L 565.4 133.4 L 565.4 139.8 L 564.5 139.8 L 562.3 136.1 Q 562.0 135.7, 561.7 135.2 Q 561.5 134.7, 561.4 134.5 L 561.4 139.8 L 560.6 139.8 L 560.6 133.4 L 561.6 133.4 " fill="#0000FF"/>
<path class="atom-24" d="M 431.9 184.7 L 432.8 184.7 L 432.8 187.4 L 436.0 187.4 L 436.0 184.7 L 436.9 184.7 L 436.9 191.1 L 436.0 191.1 L 436.0 188.2 L 432.8 188.2 L 432.8 191.1 L 431.9 191.1 L 431.9 184.7 " fill="#000000"/>
<path class="atom-25" d="M 391.8 177.8 L 392.7 177.8 L 392.7 180.5 L 396.0 180.5 L 396.0 177.8 L 396.8 177.8 L 396.8 184.2 L 396.0 184.2 L 396.0 181.3 L 392.7 181.3 L 392.7 184.2 L 391.8 184.2 L 391.8 177.8 " fill="#000000"/>
<path class="atom-26" d="M 404.9 201.6 L 405.8 201.6 L 405.8 204.3 L 409.1 204.3 L 409.1 201.6 L 409.9 201.6 L 409.9 208.0 L 409.1 208.0 L 409.1 205.1 L 405.8 205.1 L 405.8 208.0 L 404.9 208.0 L 404.9 201.6 " fill="#000000"/>
<path class="atom-27" d="M 387.1 105.2 L 387.9 105.2 L 387.9 107.9 L 391.2 107.9 L 391.2 105.2 L 392.1 105.2 L 392.1 111.6 L 391.2 111.6 L 391.2 108.6 L 387.9 108.6 L 387.9 111.6 L 387.1 111.6 L 387.1 105.2 " fill="#000000"/>
<path class="atom-28" d="M 430.1 92.0 L 430.9 92.0 L 430.9 94.7 L 434.2 94.7 L 434.2 92.0 L 435.1 92.0 L 435.1 98.4 L 434.2 98.4 L 434.2 95.4 L 430.9 95.4 L 430.9 98.4 L 430.1 98.4 L 430.1 92.0 " fill="#000000"/>
<path class="atom-29" d="M 464.2 166.0 L 465.1 166.0 L 465.1 168.8 L 468.4 168.8 L 468.4 166.0 L 469.2 166.0 L 469.2 172.4 L 468.4 172.4 L 468.4 169.5 L 465.1 169.5 L 465.1 172.4 L 464.2 172.4 L 464.2 166.0 " fill="#000000"/>
<path class="atom-30" d="M 485.9 197.1 L 486.8 197.1 L 486.8 199.8 L 490.0 199.8 L 490.0 197.1 L 490.9 197.1 L 490.9 203.5 L 490.0 203.5 L 490.0 200.5 L 486.8 200.5 L 486.8 203.5 L 485.9 203.5 L 485.9 197.1 " fill="#000000"/>
<path class="atom-31" d="M 528.9 183.9 L 529.8 183.9 L 529.8 186.6 L 533.0 186.6 L 533.0 183.9 L 533.9 183.9 L 533.9 190.3 L 533.0 190.3 L 533.0 187.3 L 529.8 187.3 L 529.8 190.3 L 528.9 190.3 L 528.9 183.9 " fill="#000000"/>
<path class="atom-32" d="M 506.0 109.4 L 506.9 109.4 L 506.9 112.1 L 510.1 112.1 L 510.1 109.4 L 511.0 109.4 L 511.0 115.8 L 510.1 115.8 L 510.1 112.8 L 506.9 112.8 L 506.9 115.8 L 506.0 115.8 L 506.0 109.4 " fill="#000000"/>
<path class="atom-33" d="M 348.9 134.2 L 349.8 134.2 L 349.8 136.9 L 353.0 136.9 L 353.0 134.2 L 353.9 134.2 L 353.9 140.5 L 353.0 140.5 L 353.0 137.6 L 349.8 137.6 L 349.8 140.5 L 348.9 140.5 L 348.9 134.2 " fill="#000000"/>
<text x="300" y="20" font-size="20" font-family="sans-serif" font-weight="normal" letter-spacing="0" text-anchor="middle" fill="black">hif2a: 237 -&gt; 31</text><text x="300" y="35" font-size="15" font-family="sans-serif" font-weight="normal" letter-spacing="0" text-anchor="middle" fill="black"></text><text x="150" y="285" font-size="15" font-family="sans-serif" font-weight="normal" letter-spacing="0" text-anchor="middle" fill="black">237</text><text x="450" y="285" font-size="15" font-family="sans-serif" font-weight="normal" letter-spacing="0" text-anchor="middle" fill="black">31</text></svg>
