<?xml version='1.0' encoding='ASCII' standalone='yes'?>
<svg xmlns="http://www.w3.org/2000/svg" xmlns:rdkit="http://www.rdkit.org/xml" xmlns:xlink="http://www.w3.org/1999/xlink" version="1.1" baseProfile="full" xml:space="preserve" width="600px" height="300px" viewBox="0 0 600 300">
<!-- END OF HEADER -->
<rect style="opacity:1.0;fill:#FFFFFF;stroke:none" width="600.0" height="300.0" x="0.0" y="0.0"> </rect>
<path class="bond-0 atom-0 atom-3" d="M 169.9,197.6 L 165.0,204.2" style="fill:none;fill-rule:evenodd;stroke:#0000FF;stroke-width:2.0px;stroke-linecap:butt;stroke-linejoin:miter;stroke-opacity:1"/>
<path class="bond-0 atom-0 atom-3" d="M 165.0,204.2 L 160.2,210.7" style="fill:none;fill-rule:evenodd;stroke:#000000;stroke-width:2.0px;stroke-linecap:butt;stroke-linejoin:miter;stroke-opacity:1"/>
<path class="bond-0 atom-0 atom-3" d="M 165.1,197.1 L 161.7,201.7" style="fill:none;fill-rule:evenodd;stroke:#0000FF;stroke-width:2.0px;stroke-linecap:butt;stroke-linejoin:miter;stroke-opacity:1"/>
<path class="bond-0 atom-0 atom-3" d="M 161.7,201.7 L 158.3,206.3" style="fill:none;fill-rule:evenodd;stroke:#000000;stroke-width:2.0px;stroke-linecap:butt;stroke-linejoin:miter;stroke-opacity:1"/>
<path class="bond-1 atom-0 atom-5" d="M 171.0,190.4 L 167.6,182.7" style="fill:none;fill-rule:evenodd;stroke:#0000FF;stroke-width:2.0px;stroke-linecap:butt;stroke-linejoin:miter;stroke-opacity:1"/>
<path class="bond-1 atom-0 atom-5" d="M 167.6,182.7 L 164.2,175.0" style="fill:none;fill-rule:evenodd;stroke:#000000;stroke-width:2.0px;stroke-linecap:butt;stroke-linejoin:miter;stroke-opacity:1"/>
<path class="bond-2 atom-1 atom-2" d="M 132.9,193.0 L 136.3,200.7" style="fill:none;fill-rule:evenodd;stroke:#0000FF;stroke-width:2.0px;stroke-linecap:butt;stroke-linejoin:miter;stroke-opacity:1"/>
<path class="bond-2 atom-1 atom-2" d="M 136.3,200.7 L 139.6,208.4" style="fill:none;fill-rule:evenodd;stroke:#000000;stroke-width:2.0px;stroke-linecap:butt;stroke-linejoin:miter;stroke-opacity:1"/>
<path class="bond-2 atom-1 atom-2" d="M 137.7,193.6 L 140.1,199.0" style="fill:none;fill-rule:evenodd;stroke:#0000FF;stroke-width:2.0px;stroke-linecap:butt;stroke-linejoin:miter;stroke-opacity:1"/>
<path class="bond-2 atom-1 atom-2" d="M 140.1,199.0 L 142.4,204.4" style="fill:none;fill-rule:evenodd;stroke:#000000;stroke-width:2.0px;stroke-linecap:butt;stroke-linejoin:miter;stroke-opacity:1"/>
<path class="bond-3 atom-1 atom-4" d="M 134.0,185.8 L 138.8,179.2" style="fill:none;fill-rule:evenodd;stroke:#0000FF;stroke-width:2.0px;stroke-linecap:butt;stroke-linejoin:miter;stroke-opacity:1"/>
<path class="bond-3 atom-1 atom-4" d="M 138.8,179.2 L 143.6,172.7" style="fill:none;fill-rule:evenodd;stroke:#000000;stroke-width:2.0px;stroke-linecap:butt;stroke-linejoin:miter;stroke-opacity:1"/>
<path class="bond-4 atom-2 atom-3" d="M 139.6,208.4 L 160.2,210.7" style="fill:none;fill-rule:evenodd;stroke:#000000;stroke-width:2.0px;stroke-linecap:butt;stroke-linejoin:miter;stroke-opacity:1"/>
<path class="bond-5 atom-2 atom-29" d="M 139.6,208.4 L 130.0,221.4" style="fill:none;fill-rule:evenodd;stroke:#000000;stroke-width:2.0px;stroke-linecap:butt;stroke-linejoin:miter;stroke-opacity:1"/>
<path class="bond-6 atom-3 atom-30" d="M 160.2,210.7 L 166.9,226.1" style="fill:none;fill-rule:evenodd;stroke:#000000;stroke-width:2.0px;stroke-linecap:butt;stroke-linejoin:miter;stroke-opacity:1"/>
<path class="bond-7 atom-4 atom-5" d="M 143.6,172.7 L 164.2,175.0" style="fill:none;fill-rule:evenodd;stroke:#000000;stroke-width:2.0px;stroke-linecap:butt;stroke-linejoin:miter;stroke-opacity:1"/>
<path class="bond-7 atom-4 atom-5" d="M 146.3,177.2 L 160.7,178.8" style="fill:none;fill-rule:evenodd;stroke:#000000;stroke-width:2.0px;stroke-linecap:butt;stroke-linejoin:miter;stroke-opacity:1"/>
<path class="bond-8 atom-4 atom-9" d="M 143.6,172.7 L 135.4,153.7" style="fill:none;fill-rule:evenodd;stroke:#000000;stroke-width:2.0px;stroke-linecap:butt;stroke-linejoin:miter;stroke-opacity:1"/>
<path class="bond-9 atom-5 atom-6" d="M 164.2,175.0 L 176.5,158.3" style="fill:none;fill-rule:evenodd;stroke:#000000;stroke-width:2.0px;stroke-linecap:butt;stroke-linejoin:miter;stroke-opacity:1"/>
<path class="bond-10 atom-6 atom-7" d="M 176.5,158.3 L 168.3,139.3" style="fill:none;fill-rule:evenodd;stroke:#000000;stroke-width:2.0px;stroke-linecap:butt;stroke-linejoin:miter;stroke-opacity:1"/>
<path class="bond-10 atom-6 atom-7" d="M 171.5,157.1 L 165.7,143.8" style="fill:none;fill-rule:evenodd;stroke:#000000;stroke-width:2.0px;stroke-linecap:butt;stroke-linejoin:miter;stroke-opacity:1"/>
<path class="bond-11 atom-6 atom-31" d="M 176.5,158.3 L 186.8,160.8" style="fill:none;fill-rule:evenodd;stroke:#000000;stroke-width:2.0px;stroke-linecap:butt;stroke-linejoin:miter;stroke-opacity:1"/>
<path class="bond-12 atom-7 atom-8" d="M 168.3,139.3 L 147.7,137.0" style="fill:none;fill-rule:evenodd;stroke:#000000;stroke-width:2.0px;stroke-linecap:butt;stroke-linejoin:miter;stroke-opacity:1"/>
<path class="bond-13 atom-7 atom-11" d="M 168.3,139.3 L 173.1,132.8" style="fill:none;fill-rule:evenodd;stroke:#000000;stroke-width:2.0px;stroke-linecap:butt;stroke-linejoin:miter;stroke-opacity:1"/>
<path class="bond-13 atom-7 atom-11" d="M 173.1,132.8 L 177.9,126.3" style="fill:none;fill-rule:evenodd;stroke:#0000FF;stroke-width:2.0px;stroke-linecap:butt;stroke-linejoin:miter;stroke-opacity:1"/>
<path class="bond-14 atom-8 atom-9" d="M 147.7,137.0 L 135.4,153.7" style="fill:none;fill-rule:evenodd;stroke:#000000;stroke-width:2.0px;stroke-linecap:butt;stroke-linejoin:miter;stroke-opacity:1"/>
<path class="bond-14 atom-8 atom-9" d="M 149.2,142.0 L 140.5,153.7" style="fill:none;fill-rule:evenodd;stroke:#000000;stroke-width:2.0px;stroke-linecap:butt;stroke-linejoin:miter;stroke-opacity:1"/>
<path class="bond-15 atom-8 atom-32" d="M 147.7,137.0 L 141.0,121.6" style="fill:none;fill-rule:evenodd;stroke:#000000;stroke-width:2.0px;stroke-linecap:butt;stroke-linejoin:miter;stroke-opacity:1"/>
<path class="bond-16 atom-9 atom-10" d="M 135.4,153.7 L 114.8,151.4" style="fill:none;fill-rule:evenodd;stroke:#000000;stroke-width:2.0px;stroke-linecap:butt;stroke-linejoin:miter;stroke-opacity:1"/>
<path class="bond-17 atom-10 atom-12" d="M 114.8,151.4 L 102.4,168.0" style="fill:none;fill-rule:evenodd;stroke:#000000;stroke-width:2.0px;stroke-linecap:butt;stroke-linejoin:miter;stroke-opacity:1"/>
<path class="bond-17 atom-10 atom-12" d="M 109.6,151.4 L 101.0,163.1" style="fill:none;fill-rule:evenodd;stroke:#000000;stroke-width:2.0px;stroke-linecap:butt;stroke-linejoin:miter;stroke-opacity:1"/>
<path class="bond-18 atom-10 atom-14" d="M 114.8,151.4 L 106.5,132.4" style="fill:none;fill-rule:evenodd;stroke:#000000;stroke-width:2.0px;stroke-linecap:butt;stroke-linejoin:miter;stroke-opacity:1"/>
<path class="bond-19 atom-11 atom-21" d="M 183.5,123.0 L 192.3,124.0" style="fill:none;fill-rule:evenodd;stroke:#0000FF;stroke-width:2.0px;stroke-linecap:butt;stroke-linejoin:miter;stroke-opacity:1"/>
<path class="bond-19 atom-11 atom-21" d="M 192.3,124.0 L 201.2,125.0" style="fill:none;fill-rule:evenodd;stroke:#000000;stroke-width:2.0px;stroke-linecap:butt;stroke-linejoin:miter;stroke-opacity:1"/>
<path class="bond-20 atom-11 atom-33" d="M 179.0,119.1 L 176.4,113.2" style="fill:none;fill-rule:evenodd;stroke:#0000FF;stroke-width:2.0px;stroke-linecap:butt;stroke-linejoin:miter;stroke-opacity:1"/>
<path class="bond-20 atom-11 atom-33" d="M 176.4,113.2 L 173.9,107.3" style="fill:none;fill-rule:evenodd;stroke:#000000;stroke-width:2.0px;stroke-linecap:butt;stroke-linejoin:miter;stroke-opacity:1"/>
<path class="bond-21 atom-12 atom-13" d="M 102.4,168.0 L 81.9,165.7" style="fill:none;fill-rule:evenodd;stroke:#000000;stroke-width:2.0px;stroke-linecap:butt;stroke-linejoin:miter;stroke-opacity:1"/>
<path class="bond-22 atom-12 atom-34" d="M 102.4,168.0 L 109.2,183.4" style="fill:none;fill-rule:evenodd;stroke:#000000;stroke-width:2.0px;stroke-linecap:butt;stroke-linejoin:miter;stroke-opacity:1"/>
<path class="bond-23 atom-13 atom-16" d="M 81.9,165.7 L 73.6,146.7" style="fill:none;fill-rule:evenodd;stroke:#000000;stroke-width:2.0px;stroke-linecap:butt;stroke-linejoin:miter;stroke-opacity:1"/>
<path class="bond-23 atom-13 atom-16" d="M 84.4,161.2 L 78.6,147.9" style="fill:none;fill-rule:evenodd;stroke:#000000;stroke-width:2.0px;stroke-linecap:butt;stroke-linejoin:miter;stroke-opacity:1"/>
<path class="bond-24 atom-13 atom-35" d="M 81.9,165.7 L 72.2,178.8" style="fill:none;fill-rule:evenodd;stroke:#000000;stroke-width:2.0px;stroke-linecap:butt;stroke-linejoin:miter;stroke-opacity:1"/>
<path class="bond-25 atom-14 atom-15" d="M 106.5,132.4 L 85.9,130.0" style="fill:none;fill-rule:evenodd;stroke:#000000;stroke-width:2.0px;stroke-linecap:butt;stroke-linejoin:miter;stroke-opacity:1"/>
<path class="bond-25 atom-14 atom-15" d="M 102.9,136.1 L 88.5,134.5" style="fill:none;fill-rule:evenodd;stroke:#000000;stroke-width:2.0px;stroke-linecap:butt;stroke-linejoin:miter;stroke-opacity:1"/>
<path class="bond-26 atom-14 atom-36" d="M 106.5,132.4 L 116.1,119.3" style="fill:none;fill-rule:evenodd;stroke:#000000;stroke-width:2.0px;stroke-linecap:butt;stroke-linejoin:miter;stroke-opacity:1"/>
<path class="bond-27 atom-15 atom-16" d="M 85.9,130.0 L 73.6,146.7" style="fill:none;fill-rule:evenodd;stroke:#000000;stroke-width:2.0px;stroke-linecap:butt;stroke-linejoin:miter;stroke-opacity:1"/>
<path class="bond-28 atom-15 atom-19" d="M 85.9,130.0 L 81.1,123.4" style="fill:none;fill-rule:evenodd;stroke:#000000;stroke-width:2.0px;stroke-linecap:butt;stroke-linejoin:miter;stroke-opacity:1"/>
<path class="bond-28 atom-15 atom-19" d="M 81.1,123.4 L 76.4,116.8" style="fill:none;fill-rule:evenodd;stroke:#0000FF;stroke-width:2.0px;stroke-linecap:butt;stroke-linejoin:miter;stroke-opacity:1"/>
<path class="bond-29 atom-16 atom-17" d="M 73.6,146.7 L 53.9,140.2" style="fill:none;fill-rule:evenodd;stroke:#000000;stroke-width:2.0px;stroke-linecap:butt;stroke-linejoin:miter;stroke-opacity:1"/>
<path class="bond-30 atom-17 atom-18" d="M 53.9,140.2 L 54.1,119.4" style="fill:none;fill-rule:evenodd;stroke:#000000;stroke-width:2.0px;stroke-linecap:butt;stroke-linejoin:miter;stroke-opacity:1"/>
<path class="bond-30 atom-17 atom-18" d="M 58.1,137.1 L 58.2,122.6" style="fill:none;fill-rule:evenodd;stroke:#000000;stroke-width:2.0px;stroke-linecap:butt;stroke-linejoin:miter;stroke-opacity:1"/>
<path class="bond-31 atom-17 atom-37" d="M 53.9,140.2 L 40.0,150.1" style="fill:none;fill-rule:evenodd;stroke:#000000;stroke-width:2.0px;stroke-linecap:butt;stroke-linejoin:miter;stroke-opacity:1"/>
<path class="bond-32 atom-18 atom-19" d="M 54.1,119.4 L 62.5,116.8" style="fill:none;fill-rule:evenodd;stroke:#000000;stroke-width:2.0px;stroke-linecap:butt;stroke-linejoin:miter;stroke-opacity:1"/>
<path class="bond-32 atom-18 atom-19" d="M 62.5,116.8 L 70.9,114.1" style="fill:none;fill-rule:evenodd;stroke:#0000FF;stroke-width:2.0px;stroke-linecap:butt;stroke-linejoin:miter;stroke-opacity:1"/>
<path class="bond-33 atom-18 atom-38" d="M 54.1,119.4 L 40.4,109.3" style="fill:none;fill-rule:evenodd;stroke:#000000;stroke-width:2.0px;stroke-linecap:butt;stroke-linejoin:miter;stroke-opacity:1"/>
<path class="bond-34 atom-19 atom-20" d="M 75.0,109.6 L 77.7,101.6" style="fill:none;fill-rule:evenodd;stroke:#0000FF;stroke-width:2.0px;stroke-linecap:butt;stroke-linejoin:miter;stroke-opacity:1"/>
<path class="bond-34 atom-19 atom-20" d="M 77.7,101.6 L 80.4,93.5" style="fill:none;fill-rule:evenodd;stroke:#000000;stroke-width:2.0px;stroke-linecap:butt;stroke-linejoin:miter;stroke-opacity:1"/>
<path class="bond-35 atom-20 atom-39" d="M 80.4,93.5 L 63.7,88.0" style="fill:none;fill-rule:evenodd;stroke:#000000;stroke-width:2.0px;stroke-linecap:butt;stroke-linejoin:miter;stroke-opacity:1"/>
<path class="bond-36 atom-20 atom-40" d="M 80.4,93.5 L 97.1,99.1" style="fill:none;fill-rule:evenodd;stroke:#000000;stroke-width:2.0px;stroke-linecap:butt;stroke-linejoin:miter;stroke-opacity:1"/>
<path class="bond-37 atom-20 atom-41" d="M 80.4,93.5 L 85.7,77.5" style="fill:none;fill-rule:evenodd;stroke:#000000;stroke-width:2.0px;stroke-linecap:butt;stroke-linejoin:miter;stroke-opacity:1"/>
<path class="bond-38 atom-21 atom-22" d="M 201.2,125.0 L 209.5,144.0" style="fill:none;fill-rule:evenodd;stroke:#000000;stroke-width:2.0px;stroke-linecap:butt;stroke-linejoin:miter;stroke-opacity:1"/>
<path class="bond-38 atom-21 atom-22" d="M 206.2,126.2 L 212.0,139.5" style="fill:none;fill-rule:evenodd;stroke:#000000;stroke-width:2.0px;stroke-linecap:butt;stroke-linejoin:miter;stroke-opacity:1"/>
<path class="bond-39 atom-21 atom-26" d="M 201.2,125.0 L 213.5,108.3" style="fill:none;fill-rule:evenodd;stroke:#000000;stroke-width:2.0px;stroke-linecap:butt;stroke-linejoin:miter;stroke-opacity:1"/>
<path class="bond-40 atom-22 atom-23" d="M 209.5,144.0 L 230.1,146.3" style="fill:none;fill-rule:evenodd;stroke:#000000;stroke-width:2.0px;stroke-linecap:butt;stroke-linejoin:miter;stroke-opacity:1"/>
<path class="bond-41 atom-22 atom-42" d="M 209.5,144.0 L 204.8,152.2" style="fill:none;fill-rule:evenodd;stroke:#000000;stroke-width:2.0px;stroke-linecap:butt;stroke-linejoin:miter;stroke-opacity:1"/>
<path class="bond-42 atom-23 atom-24" d="M 230.1,146.3 L 242.4,129.6" style="fill:none;fill-rule:evenodd;stroke:#000000;stroke-width:2.0px;stroke-linecap:butt;stroke-linejoin:miter;stroke-opacity:1"/>
<path class="bond-42 atom-23 atom-24" d="M 228.6,141.3 L 237.2,129.7" style="fill:none;fill-rule:evenodd;stroke:#000000;stroke-width:2.0px;stroke-linecap:butt;stroke-linejoin:miter;stroke-opacity:1"/>
<path class="bond-43 atom-23 atom-43" d="M 230.1,146.3 L 236.8,161.7" style="fill:none;fill-rule:evenodd;stroke:#000000;stroke-width:2.0px;stroke-linecap:butt;stroke-linejoin:miter;stroke-opacity:1"/>
<path class="bond-44 atom-24 atom-25" d="M 242.4,129.6 L 234.1,110.6" style="fill:none;fill-rule:evenodd;stroke:#000000;stroke-width:2.0px;stroke-linecap:butt;stroke-linejoin:miter;stroke-opacity:1"/>
<path class="bond-45 atom-24 atom-44" d="M 242.4,129.6 L 260.0,131.6" style="fill:none;fill-rule:evenodd;stroke:#000000;stroke-width:2.0px;stroke-linecap:butt;stroke-linejoin:miter;stroke-opacity:1"/>
<path class="bond-46 atom-25 atom-26" d="M 234.1,110.6 L 213.5,108.3" style="fill:none;fill-rule:evenodd;stroke:#000000;stroke-width:2.0px;stroke-linecap:butt;stroke-linejoin:miter;stroke-opacity:1"/>
<path class="bond-46 atom-25 atom-26" d="M 230.5,114.4 L 216.1,112.8" style="fill:none;fill-rule:evenodd;stroke:#000000;stroke-width:2.0px;stroke-linecap:butt;stroke-linejoin:miter;stroke-opacity:1"/>
<path class="bond-47 atom-25 atom-45" d="M 234.1,110.6 L 243.7,97.6" style="fill:none;fill-rule:evenodd;stroke:#000000;stroke-width:2.0px;stroke-linecap:butt;stroke-linejoin:miter;stroke-opacity:1"/>
<path class="bond-48 atom-26 atom-27" d="M 213.5,108.3 L 205.2,89.3" style="fill:none;fill-rule:evenodd;stroke:#000000;stroke-width:2.0px;stroke-linecap:butt;stroke-linejoin:miter;stroke-opacity:1"/>
<path class="bond-49 atom-27 atom-28" d="M 205.2,89.3 L 201.8,81.6" style="fill:none;fill-rule:evenodd;stroke:#000000;stroke-width:2.0px;stroke-linecap:butt;stroke-linejoin:miter;stroke-opacity:1"/>
<path class="bond-49 atom-27 atom-28" d="M 201.8,81.6 L 198.5,73.9" style="fill:none;fill-rule:evenodd;stroke:#0000FF;stroke-width:2.0px;stroke-linecap:butt;stroke-linejoin:miter;stroke-opacity:1"/>
<path class="bond-49 atom-27 atom-28" d="M 200.4,88.7 L 197.5,82.1" style="fill:none;fill-rule:evenodd;stroke:#000000;stroke-width:2.0px;stroke-linecap:butt;stroke-linejoin:miter;stroke-opacity:1"/>
<path class="bond-49 atom-27 atom-28" d="M 197.5,82.1 L 194.7,75.6" style="fill:none;fill-rule:evenodd;stroke:#0000FF;stroke-width:2.0px;stroke-linecap:butt;stroke-linejoin:miter;stroke-opacity:1"/>
<path class="bond-49 atom-27 atom-28" d="M 208.0,85.3 L 205.1,78.8" style="fill:none;fill-rule:evenodd;stroke:#000000;stroke-width:2.0px;stroke-linecap:butt;stroke-linejoin:miter;stroke-opacity:1"/>
<path class="bond-49 atom-27 atom-28" d="M 205.1,78.8 L 202.3,72.3" style="fill:none;fill-rule:evenodd;stroke:#0000FF;stroke-width:2.0px;stroke-linecap:butt;stroke-linejoin:miter;stroke-opacity:1"/>
<path class="atom-0" d="M 171.2 191.1 L 173.2 194.2 Q 173.3 194.5, 173.6 195.0 Q 174.0 195.6, 174.0 195.6 L 174.0 191.1 L 174.8 191.1 L 174.8 196.9 L 173.9 196.9 L 171.9 193.5 Q 171.6 193.1, 171.4 192.7 Q 171.1 192.2, 171.1 192.1 L 171.1 196.9 L 170.3 196.9 L 170.3 191.1 L 171.2 191.1 " fill="#0000FF"/>
<path class="atom-1" d="M 130.0 186.4 L 132.0 189.5 Q 132.1 189.8, 132.5 190.4 Q 132.8 191.0, 132.8 191.0 L 132.8 186.4 L 133.6 186.4 L 133.6 192.3 L 132.8 192.3 L 130.7 188.9 Q 130.4 188.5, 130.2 188.0 Q 129.9 187.6, 129.9 187.5 L 129.9 192.3 L 129.1 192.3 L 129.1 186.4 L 130.0 186.4 " fill="#0000FF"/>
<path class="atom-11" d="M 179.3 119.7 L 181.2 122.8 Q 181.4 123.1, 181.7 123.7 Q 182.0 124.3, 182.0 124.3 L 182.0 119.7 L 182.8 119.7 L 182.8 125.6 L 182.0 125.6 L 179.9 122.2 Q 179.7 121.8, 179.4 121.3 Q 179.2 120.9, 179.1 120.7 L 179.1 125.6 L 178.3 125.6 L 178.3 119.7 L 179.3 119.7 " fill="#0000FF"/>
<path class="atom-19" d="M 72.5 110.3 L 74.4 113.4 Q 74.6 113.7, 74.9 114.2 Q 75.3 114.8, 75.3 114.8 L 75.3 110.3 L 76.0 110.3 L 76.0 116.1 L 75.2 116.1 L 73.2 112.7 Q 72.9 112.3, 72.7 111.9 Q 72.4 111.4, 72.4 111.3 L 72.4 116.1 L 71.6 116.1 L 71.6 110.3 L 72.5 110.3 " fill="#0000FF"/>
<path class="atom-28" d="M 195.6 67.4 L 197.5 70.5 Q 197.7 70.8, 198.0 71.4 Q 198.3 71.9, 198.4 71.9 L 198.4 67.4 L 199.1 67.4 L 199.1 73.2 L 198.3 73.2 L 196.3 69.9 Q 196.0 69.5, 195.8 69.0 Q 195.5 68.5, 195.4 68.4 L 195.4 73.2 L 194.7 73.2 L 194.7 67.4 L 195.6 67.4 " fill="#0000FF"/>
<path class="atom-29" d="M 125.0 222.1 L 125.8 222.1 L 125.8 224.6 L 128.8 224.6 L 128.8 222.1 L 129.6 222.1 L 129.6 228.0 L 128.8 228.0 L 128.8 225.3 L 125.8 225.3 L 125.8 228.0 L 125.0 228.0 L 125.0 222.1 " fill="#000000"/>
<path class="atom-30" d="M 166.2 226.8 L 167.0 226.8 L 167.0 229.2 L 170.0 229.2 L 170.0 226.8 L 170.8 226.8 L 170.8 232.6 L 170.0 232.6 L 170.0 229.9 L 167.0 229.9 L 167.0 232.6 L 166.2 232.6 L 166.2 226.8 " fill="#000000"/>
<path class="atom-31" d="M 187.5 158.6 L 188.3 158.6 L 188.3 161.1 L 191.3 161.1 L 191.3 158.6 L 192.1 158.6 L 192.1 164.4 L 191.3 164.4 L 191.3 161.7 L 188.3 161.7 L 188.3 164.4 L 187.5 164.4 L 187.5 158.6 " fill="#000000"/>
<path class="atom-32" d="M 137.1 115.1 L 137.9 115.1 L 137.9 117.6 L 140.9 117.6 L 140.9 115.1 L 141.7 115.1 L 141.7 121.0 L 140.9 121.0 L 140.9 118.2 L 137.9 118.2 L 137.9 121.0 L 137.1 121.0 L 137.1 115.1 " fill="#000000"/>
<path class="atom-33" d="M 170.0 100.7 L 170.8 100.7 L 170.8 103.2 L 173.8 103.2 L 173.8 100.7 L 174.6 100.7 L 174.6 106.6 L 173.8 106.6 L 173.8 103.9 L 170.8 103.9 L 170.8 106.6 L 170.0 106.6 L 170.0 100.7 " fill="#000000"/>
<path class="atom-34" d="M 108.4 184.1 L 109.2 184.1 L 109.2 186.6 L 112.2 186.6 L 112.2 184.1 L 113.0 184.1 L 113.0 190.0 L 112.2 190.0 L 112.2 187.3 L 109.2 187.3 L 109.2 190.0 L 108.4 190.0 L 108.4 184.1 " fill="#000000"/>
<path class="atom-35" d="M 67.2 179.5 L 68.0 179.5 L 68.0 182.0 L 71.0 182.0 L 71.0 179.5 L 71.8 179.5 L 71.8 185.3 L 71.0 185.3 L 71.0 182.6 L 68.0 182.6 L 68.0 185.3 L 67.2 185.3 L 67.2 179.5 " fill="#000000"/>
<path class="atom-36" d="M 116.5 112.8 L 117.3 112.8 L 117.3 115.3 L 120.3 115.3 L 120.3 112.8 L 121.1 112.8 L 121.1 118.6 L 120.3 118.6 L 120.3 115.9 L 117.3 115.9 L 117.3 118.6 L 116.5 118.6 L 116.5 112.8 " fill="#000000"/>
<path class="atom-37" d="M 34.7 149.3 L 35.5 149.3 L 35.5 151.8 L 38.5 151.8 L 38.5 149.3 L 39.3 149.3 L 39.3 155.2 L 38.5 155.2 L 38.5 152.4 L 35.5 152.4 L 35.5 155.2 L 34.7 155.2 L 34.7 149.3 " fill="#000000"/>
<path class="atom-38" d="M 35.1 104.2 L 35.9 104.2 L 35.9 106.7 L 38.9 106.7 L 38.9 104.2 L 39.7 104.2 L 39.7 110.1 L 38.9 110.1 L 38.9 107.4 L 35.9 107.4 L 35.9 110.1 L 35.1 110.1 L 35.1 104.2 " fill="#000000"/>
<path class="atom-39" d="M 58.4 84.0 L 59.2 84.0 L 59.2 86.5 L 62.2 86.5 L 62.2 84.0 L 63.0 84.0 L 63.0 89.9 L 62.2 89.9 L 62.2 87.2 L 59.2 87.2 L 59.2 89.9 L 58.4 89.9 L 58.4 84.0 " fill="#000000"/>
<path class="atom-40" d="M 97.7 97.1 L 98.5 97.1 L 98.5 99.6 L 101.5 99.6 L 101.5 97.1 L 102.3 97.1 L 102.3 103.0 L 101.5 103.0 L 101.5 100.3 L 98.5 100.3 L 98.5 103.0 L 97.7 103.0 L 97.7 97.1 " fill="#000000"/>
<path class="atom-41" d="M 84.6 70.9 L 85.4 70.9 L 85.4 73.4 L 88.4 73.4 L 88.4 70.9 L 89.2 70.9 L 89.2 76.8 L 88.4 76.8 L 88.4 74.1 L 85.4 74.1 L 85.4 76.8 L 84.6 76.8 L 84.6 70.9 " fill="#000000"/>
<path class="atom-42" d="M 200.5 152.9 L 201.3 152.9 L 201.3 155.4 L 204.3 155.4 L 204.3 152.9 L 205.1 152.9 L 205.1 158.8 L 204.3 158.8 L 204.3 156.1 L 201.3 156.1 L 201.3 158.8 L 200.5 158.8 L 200.5 152.9 " fill="#000000"/>
<path class="atom-43" d="M 236.0 162.4 L 236.8 162.4 L 236.8 164.9 L 239.8 164.9 L 239.8 162.4 L 240.6 162.4 L 240.6 168.2 L 239.8 168.2 L 239.8 165.5 L 236.8 165.5 L 236.8 168.2 L 236.0 168.2 L 236.0 162.4 " fill="#000000"/>
<path class="atom-44" d="M 260.7 129.0 L 261.5 129.0 L 261.5 131.5 L 264.5 131.5 L 264.5 129.0 L 265.3 129.0 L 265.3 134.9 L 264.5 134.9 L 264.5 132.2 L 261.5 132.2 L 261.5 134.9 L 260.7 134.9 L 260.7 129.0 " fill="#000000"/>
<path class="atom-45" d="M 244.1 91.0 L 244.9 91.0 L 244.9 93.5 L 247.9 93.5 L 247.9 91.0 L 248.7 91.0 L 248.7 96.9 L 247.9 96.9 L 247.9 94.2 L 244.9 94.2 L 244.9 96.9 L 244.1 96.9 L 244.1 91.0 " fill="#000000"/>
<path class="bond-0 atom-0 atom-1" d="M 426.5,164.5 L 431.5,144.4" style="fill:none;fill-rule:evenodd;stroke:#000000;stroke-width:2.0px;stroke-linecap:butt;stroke-linejoin:miter;stroke-opacity:1"/>
<path class="bond-0 atom-0 atom-1" d="M 431.3,162.5 L 434.8,148.4" style="fill:none;fill-rule:evenodd;stroke:#000000;stroke-width:2.0px;stroke-linecap:butt;stroke-linejoin:miter;stroke-opacity:1"/>
<path class="bond-1 atom-0 atom-5" d="M 426.5,164.5 L 441.4,178.9" style="fill:none;fill-rule:evenodd;stroke:#000000;stroke-width:2.0px;stroke-linecap:butt;stroke-linejoin:miter;stroke-opacity:1"/>
<path class="bond-2 atom-0 atom-30" d="M 426.5,164.5 L 416.9,168.5" style="fill:none;fill-rule:evenodd;stroke:#000000;stroke-width:2.0px;stroke-linecap:butt;stroke-linejoin:miter;stroke-opacity:1"/>
<path class="bond-3 atom-1 atom-2" d="M 431.5,144.4 L 451.5,138.7" style="fill:none;fill-rule:evenodd;stroke:#000000;stroke-width:2.0px;stroke-linecap:butt;stroke-linejoin:miter;stroke-opacity:1"/>
<path class="bond-4 atom-1 atom-10" d="M 431.5,144.4 L 425.5,138.6" style="fill:none;fill-rule:evenodd;stroke:#000000;stroke-width:2.0px;stroke-linecap:butt;stroke-linejoin:miter;stroke-opacity:1"/>
<path class="bond-4 atom-1 atom-10" d="M 425.5,138.6 L 419.6,132.8" style="fill:none;fill-rule:evenodd;stroke:#0000FF;stroke-width:2.0px;stroke-linecap:butt;stroke-linejoin:miter;stroke-opacity:1"/>
<path class="bond-5 atom-2 atom-3" d="M 451.5,138.7 L 466.3,153.1" style="fill:none;fill-rule:evenodd;stroke:#000000;stroke-width:2.0px;stroke-linecap:butt;stroke-linejoin:miter;stroke-opacity:1"/>
<path class="bond-5 atom-2 atom-3" d="M 450.8,143.9 L 461.2,154.0" style="fill:none;fill-rule:evenodd;stroke:#000000;stroke-width:2.0px;stroke-linecap:butt;stroke-linejoin:miter;stroke-opacity:1"/>
<path class="bond-6 atom-2 atom-31" d="M 451.5,138.7 L 455.6,122.2" style="fill:none;fill-rule:evenodd;stroke:#000000;stroke-width:2.0px;stroke-linecap:butt;stroke-linejoin:miter;stroke-opacity:1"/>
<path class="bond-7 atom-3 atom-4" d="M 466.3,153.1 L 461.3,173.2" style="fill:none;fill-rule:evenodd;stroke:#000000;stroke-width:2.0px;stroke-linecap:butt;stroke-linejoin:miter;stroke-opacity:1"/>
<path class="bond-8 atom-3 atom-11" d="M 466.3,153.1 L 486.3,147.5" style="fill:none;fill-rule:evenodd;stroke:#000000;stroke-width:2.0px;stroke-linecap:butt;stroke-linejoin:miter;stroke-opacity:1"/>
<path class="bond-9 atom-4 atom-5" d="M 461.3,173.2 L 441.4,178.9" style="fill:none;fill-rule:evenodd;stroke:#000000;stroke-width:2.0px;stroke-linecap:butt;stroke-linejoin:miter;stroke-opacity:1"/>
<path class="bond-9 atom-4 atom-5" d="M 457.2,170.1 L 443.2,174.1" style="fill:none;fill-rule:evenodd;stroke:#000000;stroke-width:2.0px;stroke-linecap:butt;stroke-linejoin:miter;stroke-opacity:1"/>
<path class="bond-10 atom-4 atom-7" d="M 461.3,173.2 L 467.3,179.1" style="fill:none;fill-rule:evenodd;stroke:#000000;stroke-width:2.0px;stroke-linecap:butt;stroke-linejoin:miter;stroke-opacity:1"/>
<path class="bond-10 atom-4 atom-7" d="M 467.3,179.1 L 473.3,184.9" style="fill:none;fill-rule:evenodd;stroke:#0000FF;stroke-width:2.0px;stroke-linecap:butt;stroke-linejoin:miter;stroke-opacity:1"/>
<path class="bond-11 atom-5 atom-6" d="M 441.4,178.9 L 439.3,187.2" style="fill:none;fill-rule:evenodd;stroke:#000000;stroke-width:2.0px;stroke-linecap:butt;stroke-linejoin:miter;stroke-opacity:1"/>
<path class="bond-11 atom-5 atom-6" d="M 439.3,187.2 L 437.2,195.4" style="fill:none;fill-rule:evenodd;stroke:#0000FF;stroke-width:2.0px;stroke-linecap:butt;stroke-linejoin:miter;stroke-opacity:1"/>
<path class="bond-12 atom-6 atom-9" d="M 439.2,201.8 L 445.2,207.6" style="fill:none;fill-rule:evenodd;stroke:#0000FF;stroke-width:2.0px;stroke-linecap:butt;stroke-linejoin:miter;stroke-opacity:1"/>
<path class="bond-12 atom-6 atom-9" d="M 445.2,207.6 L 451.2,213.4" style="fill:none;fill-rule:evenodd;stroke:#000000;stroke-width:2.0px;stroke-linecap:butt;stroke-linejoin:miter;stroke-opacity:1"/>
<path class="bond-12 atom-6 atom-9" d="M 443.9,200.6 L 448.1,204.7" style="fill:none;fill-rule:evenodd;stroke:#0000FF;stroke-width:2.0px;stroke-linecap:butt;stroke-linejoin:miter;stroke-opacity:1"/>
<path class="bond-12 atom-6 atom-9" d="M 448.1,204.7 L 452.3,208.7" style="fill:none;fill-rule:evenodd;stroke:#000000;stroke-width:2.0px;stroke-linecap:butt;stroke-linejoin:miter;stroke-opacity:1"/>
<path class="bond-13 atom-7 atom-8" d="M 475.3,191.3 L 473.2,199.5" style="fill:none;fill-rule:evenodd;stroke:#0000FF;stroke-width:2.0px;stroke-linecap:butt;stroke-linejoin:miter;stroke-opacity:1"/>
<path class="bond-13 atom-7 atom-8" d="M 473.2,199.5 L 471.1,207.8" style="fill:none;fill-rule:evenodd;stroke:#000000;stroke-width:2.0px;stroke-linecap:butt;stroke-linejoin:miter;stroke-opacity:1"/>
<path class="bond-13 atom-7 atom-8" d="M 470.6,192.7 L 469.2,198.5" style="fill:none;fill-rule:evenodd;stroke:#0000FF;stroke-width:2.0px;stroke-linecap:butt;stroke-linejoin:miter;stroke-opacity:1"/>
<path class="bond-13 atom-7 atom-8" d="M 469.2,198.5 L 467.7,204.3" style="fill:none;fill-rule:evenodd;stroke:#000000;stroke-width:2.0px;stroke-linecap:butt;stroke-linejoin:miter;stroke-opacity:1"/>
<path class="bond-14 atom-8 atom-9" d="M 471.1,207.8 L 451.2,213.4" style="fill:none;fill-rule:evenodd;stroke:#000000;stroke-width:2.0px;stroke-linecap:butt;stroke-linejoin:miter;stroke-opacity:1"/>
<path class="bond-15 atom-8 atom-32" d="M 471.1,207.8 L 483.0,219.3" style="fill:none;fill-rule:evenodd;stroke:#000000;stroke-width:2.0px;stroke-linecap:butt;stroke-linejoin:miter;stroke-opacity:1"/>
<path class="bond-16 atom-9 atom-33" d="M 451.2,213.4 L 447.0,229.9" style="fill:none;fill-rule:evenodd;stroke:#000000;stroke-width:2.0px;stroke-linecap:butt;stroke-linejoin:miter;stroke-opacity:1"/>
<path class="bond-17 atom-10 atom-20" d="M 413.8,130.8 L 405.2,133.2" style="fill:none;fill-rule:evenodd;stroke:#0000FF;stroke-width:2.0px;stroke-linecap:butt;stroke-linejoin:miter;stroke-opacity:1"/>
<path class="bond-17 atom-10 atom-20" d="M 405.2,133.2 L 396.7,135.6" style="fill:none;fill-rule:evenodd;stroke:#000000;stroke-width:2.0px;stroke-linecap:butt;stroke-linejoin:miter;stroke-opacity:1"/>
<path class="bond-18 atom-10 atom-34" d="M 417.6,126.3 L 419.2,119.9" style="fill:none;fill-rule:evenodd;stroke:#0000FF;stroke-width:2.0px;stroke-linecap:butt;stroke-linejoin:miter;stroke-opacity:1"/>
<path class="bond-18 atom-10 atom-34" d="M 419.2,119.9 L 420.8,113.5" style="fill:none;fill-rule:evenodd;stroke:#000000;stroke-width:2.0px;stroke-linecap:butt;stroke-linejoin:miter;stroke-opacity:1"/>
<path class="bond-19 atom-11 atom-12" d="M 486.3,147.5 L 501.2,161.9" style="fill:none;fill-rule:evenodd;stroke:#000000;stroke-width:2.0px;stroke-linecap:butt;stroke-linejoin:miter;stroke-opacity:1"/>
<path class="bond-19 atom-11 atom-12" d="M 491.4,146.7 L 501.8,156.8" style="fill:none;fill-rule:evenodd;stroke:#000000;stroke-width:2.0px;stroke-linecap:butt;stroke-linejoin:miter;stroke-opacity:1"/>
<path class="bond-20 atom-11 atom-16" d="M 486.3,147.5 L 491.3,127.4" style="fill:none;fill-rule:evenodd;stroke:#000000;stroke-width:2.0px;stroke-linecap:butt;stroke-linejoin:miter;stroke-opacity:1"/>
<path class="bond-21 atom-12 atom-13" d="M 501.2,161.9 L 521.1,156.2" style="fill:none;fill-rule:evenodd;stroke:#000000;stroke-width:2.0px;stroke-linecap:butt;stroke-linejoin:miter;stroke-opacity:1"/>
<path class="bond-22 atom-12 atom-35" d="M 501.2,161.9 L 497.0,178.4" style="fill:none;fill-rule:evenodd;stroke:#000000;stroke-width:2.0px;stroke-linecap:butt;stroke-linejoin:miter;stroke-opacity:1"/>
<path class="bond-23 atom-13 atom-14" d="M 521.1,156.2 L 526.2,136.1" style="fill:none;fill-rule:evenodd;stroke:#000000;stroke-width:2.0px;stroke-linecap:butt;stroke-linejoin:miter;stroke-opacity:1"/>
<path class="bond-23 atom-13 atom-14" d="M 517.8,152.2 L 521.4,138.1" style="fill:none;fill-rule:evenodd;stroke:#000000;stroke-width:2.0px;stroke-linecap:butt;stroke-linejoin:miter;stroke-opacity:1"/>
<path class="bond-24 atom-13 atom-36" d="M 521.1,156.2 L 533.0,167.8" style="fill:none;fill-rule:evenodd;stroke:#000000;stroke-width:2.0px;stroke-linecap:butt;stroke-linejoin:miter;stroke-opacity:1"/>
<path class="bond-25 atom-14 atom-17" d="M 526.2,136.1 L 544.5,126.4" style="fill:none;fill-rule:evenodd;stroke:#000000;stroke-width:2.0px;stroke-linecap:butt;stroke-linejoin:miter;stroke-opacity:1"/>
<path class="bond-26 atom-14 atom-15" d="M 526.2,136.1 L 511.3,121.7" style="fill:none;fill-rule:evenodd;stroke:#000000;stroke-width:2.0px;stroke-linecap:butt;stroke-linejoin:miter;stroke-opacity:1"/>
<path class="bond-27 atom-15 atom-16" d="M 511.3,121.7 L 491.3,127.4" style="fill:none;fill-rule:evenodd;stroke:#000000;stroke-width:2.0px;stroke-linecap:butt;stroke-linejoin:miter;stroke-opacity:1"/>
<path class="bond-27 atom-15 atom-16" d="M 509.4,126.5 L 495.5,130.5" style="fill:none;fill-rule:evenodd;stroke:#000000;stroke-width:2.0px;stroke-linecap:butt;stroke-linejoin:miter;stroke-opacity:1"/>
<path class="bond-28 atom-15 atom-19" d="M 511.3,121.7 L 515.0,114.2" style="fill:none;fill-rule:evenodd;stroke:#000000;stroke-width:2.0px;stroke-linecap:butt;stroke-linejoin:miter;stroke-opacity:1"/>
<path class="bond-28 atom-15 atom-19" d="M 515.0,114.2 L 518.6,106.7" style="fill:none;fill-rule:evenodd;stroke:#0000FF;stroke-width:2.0px;stroke-linecap:butt;stroke-linejoin:miter;stroke-opacity:1"/>
<path class="bond-29 atom-16 atom-37" d="M 491.3,127.4 L 479.4,115.8" style="fill:none;fill-rule:evenodd;stroke:#000000;stroke-width:2.0px;stroke-linecap:butt;stroke-linejoin:miter;stroke-opacity:1"/>
<path class="bond-30 atom-17 atom-18" d="M 544.5,126.4 L 540.9,106.0" style="fill:none;fill-rule:evenodd;stroke:#000000;stroke-width:2.0px;stroke-linecap:butt;stroke-linejoin:miter;stroke-opacity:1"/>
<path class="bond-30 atom-17 atom-18" d="M 539.9,124.1 L 537.4,109.8" style="fill:none;fill-rule:evenodd;stroke:#000000;stroke-width:2.0px;stroke-linecap:butt;stroke-linejoin:miter;stroke-opacity:1"/>
<path class="bond-31 atom-17 atom-38" d="M 544.5,126.4 L 560.1,134.1" style="fill:none;fill-rule:evenodd;stroke:#000000;stroke-width:2.0px;stroke-linecap:butt;stroke-linejoin:miter;stroke-opacity:1"/>
<path class="bond-32 atom-18 atom-19" d="M 540.9,106.0 L 532.1,104.8" style="fill:none;fill-rule:evenodd;stroke:#000000;stroke-width:2.0px;stroke-linecap:butt;stroke-linejoin:miter;stroke-opacity:1"/>
<path class="bond-32 atom-18 atom-19" d="M 532.1,104.8 L 523.3,103.5" style="fill:none;fill-rule:evenodd;stroke:#0000FF;stroke-width:2.0px;stroke-linecap:butt;stroke-linejoin:miter;stroke-opacity:1"/>
<path class="bond-33 atom-18 atom-39" d="M 540.9,106.0 L 552.4,94.2" style="fill:none;fill-rule:evenodd;stroke:#000000;stroke-width:2.0px;stroke-linecap:butt;stroke-linejoin:miter;stroke-opacity:1"/>
<path class="bond-34 atom-19 atom-21" d="M 518.5,99.5 L 514.6,92.1" style="fill:none;fill-rule:evenodd;stroke:#0000FF;stroke-width:2.0px;stroke-linecap:butt;stroke-linejoin:miter;stroke-opacity:1"/>
<path class="bond-34 atom-19 atom-21" d="M 514.6,92.1 L 510.7,84.8" style="fill:none;fill-rule:evenodd;stroke:#000000;stroke-width:2.0px;stroke-linecap:butt;stroke-linejoin:miter;stroke-opacity:1"/>
<path class="bond-35 atom-20 atom-26" d="M 396.7,135.6 L 391.7,155.7" style="fill:none;fill-rule:evenodd;stroke:#000000;stroke-width:2.0px;stroke-linecap:butt;stroke-linejoin:miter;stroke-opacity:1"/>
<path class="bond-36 atom-20 atom-22" d="M 396.7,135.6 L 381.8,121.2" style="fill:none;fill-rule:evenodd;stroke:#000000;stroke-width:2.0px;stroke-linecap:butt;stroke-linejoin:miter;stroke-opacity:1"/>
<path class="bond-36 atom-20 atom-22" d="M 391.6,136.4 L 381.2,126.3" style="fill:none;fill-rule:evenodd;stroke:#000000;stroke-width:2.0px;stroke-linecap:butt;stroke-linejoin:miter;stroke-opacity:1"/>
<path class="bond-37 atom-21 atom-40" d="M 510.7,84.8 L 526.1,76.7" style="fill:none;fill-rule:evenodd;stroke:#000000;stroke-width:2.0px;stroke-linecap:butt;stroke-linejoin:miter;stroke-opacity:1"/>
<path class="bond-38 atom-21 atom-41" d="M 510.7,84.8 L 495.4,92.9" style="fill:none;fill-rule:evenodd;stroke:#000000;stroke-width:2.0px;stroke-linecap:butt;stroke-linejoin:miter;stroke-opacity:1"/>
<path class="bond-39 atom-21 atom-42" d="M 510.7,84.8 L 502.9,70.1" style="fill:none;fill-rule:evenodd;stroke:#000000;stroke-width:2.0px;stroke-linecap:butt;stroke-linejoin:miter;stroke-opacity:1"/>
<path class="bond-40 atom-22 atom-23" d="M 381.8,121.2 L 361.9,126.9" style="fill:none;fill-rule:evenodd;stroke:#000000;stroke-width:2.0px;stroke-linecap:butt;stroke-linejoin:miter;stroke-opacity:1"/>
<path class="bond-41 atom-22 atom-27" d="M 381.8,121.2 L 386.9,101.1" style="fill:none;fill-rule:evenodd;stroke:#000000;stroke-width:2.0px;stroke-linecap:butt;stroke-linejoin:miter;stroke-opacity:1"/>
<path class="bond-42 atom-23 atom-24" d="M 361.9,126.9 L 356.8,147.0" style="fill:none;fill-rule:evenodd;stroke:#000000;stroke-width:2.0px;stroke-linecap:butt;stroke-linejoin:miter;stroke-opacity:1"/>
<path class="bond-42 atom-23 atom-24" d="M 365.2,130.9 L 361.6,145.0" style="fill:none;fill-rule:evenodd;stroke:#000000;stroke-width:2.0px;stroke-linecap:butt;stroke-linejoin:miter;stroke-opacity:1"/>
<path class="bond-43 atom-23 atom-43" d="M 361.9,126.9 L 350.0,115.3" style="fill:none;fill-rule:evenodd;stroke:#000000;stroke-width:2.0px;stroke-linecap:butt;stroke-linejoin:miter;stroke-opacity:1"/>
<path class="bond-44 atom-24 atom-25" d="M 356.8,147.0 L 362.8,152.8" style="fill:none;fill-rule:evenodd;stroke:#000000;stroke-width:2.0px;stroke-linecap:butt;stroke-linejoin:miter;stroke-opacity:1"/>
<path class="bond-44 atom-24 atom-25" d="M 362.8,152.8 L 368.8,158.6" style="fill:none;fill-rule:evenodd;stroke:#0000FF;stroke-width:2.0px;stroke-linecap:butt;stroke-linejoin:miter;stroke-opacity:1"/>
<path class="bond-45 atom-24 atom-44" d="M 356.8,147.0 L 339.9,151.8" style="fill:none;fill-rule:evenodd;stroke:#000000;stroke-width:2.0px;stroke-linecap:butt;stroke-linejoin:miter;stroke-opacity:1"/>
<path class="bond-46 atom-25 atom-26" d="M 374.6,160.6 L 383.1,158.2" style="fill:none;fill-rule:evenodd;stroke:#0000FF;stroke-width:2.0px;stroke-linecap:butt;stroke-linejoin:miter;stroke-opacity:1"/>
<path class="bond-46 atom-25 atom-26" d="M 383.1,158.2 L 391.7,155.7" style="fill:none;fill-rule:evenodd;stroke:#000000;stroke-width:2.0px;stroke-linecap:butt;stroke-linejoin:miter;stroke-opacity:1"/>
<path class="bond-46 atom-25 atom-26" d="M 376.0,155.9 L 382.0,154.2" style="fill:none;fill-rule:evenodd;stroke:#0000FF;stroke-width:2.0px;stroke-linecap:butt;stroke-linejoin:miter;stroke-opacity:1"/>
<path class="bond-46 atom-25 atom-26" d="M 382.0,154.2 L 388.0,152.5" style="fill:none;fill-rule:evenodd;stroke:#000000;stroke-width:2.0px;stroke-linecap:butt;stroke-linejoin:miter;stroke-opacity:1"/>
<path class="bond-47 atom-26 atom-45" d="M 391.7,155.7 L 397.3,162.7" style="fill:none;fill-rule:evenodd;stroke:#000000;stroke-width:2.0px;stroke-linecap:butt;stroke-linejoin:miter;stroke-opacity:1"/>
<path class="bond-48 atom-27 atom-28" d="M 386.9,101.1 L 380.9,95.3" style="fill:none;fill-rule:evenodd;stroke:#000000;stroke-width:2.0px;stroke-linecap:butt;stroke-linejoin:miter;stroke-opacity:1"/>
<path class="bond-48 atom-27 atom-28" d="M 380.9,95.3 L 374.9,89.5" style="fill:none;fill-rule:evenodd;stroke:#0000FF;stroke-width:2.0px;stroke-linecap:butt;stroke-linejoin:miter;stroke-opacity:1"/>
<path class="bond-49 atom-27 atom-29" d="M 386.3,99.1 L 394.6,96.8" style="fill:none;fill-rule:evenodd;stroke:#000000;stroke-width:2.0px;stroke-linecap:butt;stroke-linejoin:miter;stroke-opacity:1"/>
<path class="bond-49 atom-27 atom-29" d="M 394.6,96.8 L 402.9,94.4" style="fill:none;fill-rule:evenodd;stroke:#FF0000;stroke-width:2.0px;stroke-linecap:butt;stroke-linejoin:miter;stroke-opacity:1"/>
<path class="bond-49 atom-27 atom-29" d="M 387.5,103.1 L 395.7,100.7" style="fill:none;fill-rule:evenodd;stroke:#000000;stroke-width:2.0px;stroke-linecap:butt;stroke-linejoin:miter;stroke-opacity:1"/>
<path class="bond-49 atom-27 atom-29" d="M 395.7,100.7 L 404.0,98.4" style="fill:none;fill-rule:evenodd;stroke:#FF0000;stroke-width:2.0px;stroke-linecap:butt;stroke-linejoin:miter;stroke-opacity:1"/>
<path class="bond-50 atom-28 atom-46" d="M 372.9,83.1 L 374.5,76.6" style="fill:none;fill-rule:evenodd;stroke:#0000FF;stroke-width:2.0px;stroke-linecap:butt;stroke-linejoin:miter;stroke-opacity:1"/>
<path class="bond-50 atom-28 atom-46" d="M 374.5,76.6 L 376.2,70.2" style="fill:none;fill-rule:evenodd;stroke:#000000;stroke-width:2.0px;stroke-linecap:butt;stroke-linejoin:miter;stroke-opacity:1"/>
<path class="bond-51 atom-28 atom-47" d="M 369.1,87.5 L 362.1,89.5" style="fill:none;fill-rule:evenodd;stroke:#0000FF;stroke-width:2.0px;stroke-linecap:butt;stroke-linejoin:miter;stroke-opacity:1"/>
<path class="bond-51 atom-28 atom-47" d="M 362.1,89.5 L 355.1,91.5" style="fill:none;fill-rule:evenodd;stroke:#000000;stroke-width:2.0px;stroke-linecap:butt;stroke-linejoin:miter;stroke-opacity:1"/>
<path class="atom-6" d="M 435.0 196.1 L 436.9 199.2 Q 437.1 199.5, 437.4 200.1 Q 437.7 200.6, 437.7 200.6 L 437.7 196.1 L 438.5 196.1 L 438.5 202.0 L 437.7 202.0 L 435.7 198.6 Q 435.4 198.2, 435.2 197.7 Q 434.9 197.2, 434.8 197.1 L 434.8 202.0 L 434.1 202.0 L 434.1 196.1 L 435.0 196.1 " fill="#0000FF"/>
<path class="atom-7" d="M 474.9 184.7 L 476.8 187.9 Q 477.0 188.2, 477.3 188.7 Q 477.6 189.3, 477.6 189.3 L 477.6 184.7 L 478.4 184.7 L 478.4 190.6 L 477.6 190.6 L 475.5 187.2 Q 475.3 186.8, 475.0 186.4 Q 474.8 185.9, 474.7 185.8 L 474.7 190.6 L 473.9 190.6 L 473.9 184.7 L 474.9 184.7 " fill="#0000FF"/>
<path class="atom-10" d="M 415.4 127.0 L 417.3 130.1 Q 417.5 130.4, 417.8 131.0 Q 418.1 131.6, 418.1 131.6 L 418.1 127.0 L 418.9 127.0 L 418.9 132.9 L 418.1 132.9 L 416.0 129.5 Q 415.8 129.1, 415.5 128.6 Q 415.3 128.2, 415.2 128.0 L 415.2 132.9 L 414.4 132.9 L 414.4 127.0 L 415.4 127.0 " fill="#0000FF"/>
<path class="atom-19" d="M 519.1 100.2 L 521.0 103.3 Q 521.2 103.6, 521.5 104.1 Q 521.8 104.7, 521.8 104.7 L 521.8 100.2 L 522.6 100.2 L 522.6 106.0 L 521.8 106.0 L 519.8 102.6 Q 519.5 102.2, 519.3 101.8 Q 519.0 101.3, 518.9 101.2 L 518.9 106.0 L 518.2 106.0 L 518.2 100.2 L 519.1 100.2 " fill="#0000FF"/>
<path class="atom-25" d="M 370.4 158.5 L 372.4 161.6 Q 372.5 161.9, 372.9 162.4 Q 373.2 163.0, 373.2 163.0 L 373.2 158.5 L 374.0 158.5 L 374.0 164.3 L 373.1 164.3 L 371.1 160.9 Q 370.8 160.5, 370.6 160.1 Q 370.3 159.6, 370.3 159.5 L 370.3 164.3 L 369.5 164.3 L 369.5 158.5 L 370.4 158.5 " fill="#0000FF"/>
<path class="atom-28" d="M 370.7 83.7 L 372.6 86.8 Q 372.8 87.2, 373.1 87.7 Q 373.4 88.3, 373.5 88.3 L 373.5 83.7 L 374.2 83.7 L 374.2 89.6 L 373.4 89.6 L 371.4 86.2 Q 371.1 85.8, 370.9 85.4 Q 370.6 84.9, 370.6 84.8 L 370.6 89.6 L 369.8 89.6 L 369.8 83.7 L 370.7 83.7 " fill="#0000FF"/>
<path class="atom-29" d="M 404.1 95.4 Q 404.1 94.0, 404.8 93.2 Q 405.5 92.5, 406.8 92.5 Q 408.1 92.5, 408.8 93.2 Q 409.5 94.0, 409.5 95.4 Q 409.5 96.9, 408.8 97.7 Q 408.1 98.5, 406.8 98.5 Q 405.5 98.5, 404.8 97.7 Q 404.1 96.9, 404.1 95.4 M 406.8 97.8 Q 407.7 97.8, 408.2 97.2 Q 408.7 96.6, 408.7 95.4 Q 408.7 94.3, 408.2 93.7 Q 407.7 93.1, 406.8 93.1 Q 405.9 93.1, 405.4 93.7 Q 405.0 94.3, 405.0 95.4 Q 405.0 96.6, 405.4 97.2 Q 405.9 97.8, 406.8 97.8 " fill="#FF0000"/>
<path class="atom-30" d="M 411.7 166.8 L 412.4 166.8 L 412.4 169.3 L 415.4 169.3 L 415.4 166.8 L 416.2 166.8 L 416.2 172.7 L 415.4 172.7 L 415.4 170.0 L 412.4 170.0 L 412.4 172.7 L 411.7 172.7 L 411.7 166.8 " fill="#000000"/>
<path class="atom-31" d="M 454.2 115.7 L 455.0 115.7 L 455.0 118.2 L 458.0 118.2 L 458.0 115.7 L 458.8 115.7 L 458.8 121.6 L 458.0 121.6 L 458.0 118.8 L 455.0 118.8 L 455.0 121.6 L 454.2 121.6 L 454.2 115.7 " fill="#000000"/>
<path class="atom-32" d="M 483.7 219.3 L 484.5 219.3 L 484.5 221.8 L 487.5 221.8 L 487.5 219.3 L 488.3 219.3 L 488.3 225.1 L 487.5 225.1 L 487.5 222.4 L 484.5 222.4 L 484.5 225.1 L 483.7 225.1 L 483.7 219.3 " fill="#000000"/>
<path class="atom-33" d="M 443.8 230.6 L 444.6 230.6 L 444.6 233.1 L 447.6 233.1 L 447.6 230.6 L 448.4 230.6 L 448.4 236.5 L 447.6 236.5 L 447.6 233.8 L 444.6 233.8 L 444.6 236.5 L 443.8 236.5 L 443.8 230.6 " fill="#000000"/>
<path class="atom-34" d="M 419.4 106.9 L 420.2 106.9 L 420.2 109.4 L 423.2 109.4 L 423.2 106.9 L 424.0 106.9 L 424.0 112.8 L 423.2 112.8 L 423.2 110.1 L 420.2 110.1 L 420.2 112.8 L 419.4 112.8 L 419.4 106.9 " fill="#000000"/>
<path class="atom-35" d="M 493.8 179.1 L 494.6 179.1 L 494.6 181.6 L 497.6 181.6 L 497.6 179.1 L 498.4 179.1 L 498.4 184.9 L 497.6 184.9 L 497.6 182.2 L 494.6 182.2 L 494.6 184.9 L 493.8 184.9 L 493.8 179.1 " fill="#000000"/>
<path class="atom-36" d="M 533.7 167.7 L 534.5 167.7 L 534.5 170.2 L 537.5 170.2 L 537.5 167.7 L 538.3 167.7 L 538.3 173.6 L 537.5 173.6 L 537.5 170.9 L 534.5 170.9 L 534.5 173.6 L 533.7 173.6 L 533.7 167.7 " fill="#000000"/>
<path class="atom-37" d="M 474.2 110.0 L 475.0 110.0 L 475.0 112.5 L 478.0 112.5 L 478.0 110.0 L 478.8 110.0 L 478.8 115.9 L 478.0 115.9 L 478.0 113.2 L 475.0 113.2 L 475.0 115.9 L 474.2 115.9 L 474.2 110.0 " fill="#000000"/>
<path class="atom-38" d="M 560.8 132.6 L 561.6 132.6 L 561.6 135.1 L 564.6 135.1 L 564.6 132.6 L 565.4 132.6 L 565.4 138.5 L 564.6 138.5 L 564.6 135.8 L 561.6 135.8 L 561.6 138.5 L 560.8 138.5 L 560.8 132.6 " fill="#000000"/>
<path class="atom-39" d="M 553.1 88.2 L 553.9 88.2 L 553.9 90.7 L 556.9 90.7 L 556.9 88.2 L 557.6 88.2 L 557.6 94.1 L 556.9 94.1 L 556.9 91.4 L 553.9 91.4 L 553.9 94.1 L 553.1 94.1 L 553.1 88.2 " fill="#000000"/>
<path class="atom-40" d="M 526.7 72.1 L 527.5 72.1 L 527.5 74.6 L 530.5 74.6 L 530.5 72.1 L 531.3 72.1 L 531.3 78.0 L 530.5 78.0 L 530.5 75.3 L 527.5 75.3 L 527.5 78.0 L 526.7 78.0 L 526.7 72.1 " fill="#000000"/>
<path class="atom-41" d="M 490.1 91.5 L 490.9 91.5 L 490.9 94.0 L 493.9 94.0 L 493.9 91.5 L 494.7 91.5 L 494.7 97.4 L 493.9 97.4 L 493.9 94.7 L 490.9 94.7 L 490.9 97.4 L 490.1 97.4 L 490.1 91.5 " fill="#000000"/>
<path class="atom-42" d="M 498.7 63.5 L 499.5 63.5 L 499.5 66.0 L 502.5 66.0 L 502.5 63.5 L 503.3 63.5 L 503.3 69.4 L 502.5 69.4 L 502.5 66.7 L 499.5 66.7 L 499.5 69.4 L 498.7 69.4 L 498.7 63.5 " fill="#000000"/>
<path class="atom-43" d="M 344.7 109.5 L 345.5 109.5 L 345.5 112.0 L 348.5 112.0 L 348.5 109.5 L 349.3 109.5 L 349.3 115.4 L 348.5 115.4 L 348.5 112.7 L 345.5 112.7 L 345.5 115.4 L 344.7 115.4 L 344.7 109.5 " fill="#000000"/>
<path class="atom-44" d="M 334.6 149.7 L 335.4 149.7 L 335.4 152.2 L 338.4 152.2 L 338.4 149.7 L 339.2 149.7 L 339.2 155.6 L 338.4 155.6 L 338.4 152.9 L 335.4 152.9 L 335.4 155.6 L 334.6 155.6 L 334.6 149.7 " fill="#000000"/>
<path class="atom-45" d="M 397.9 163.4 L 398.7 163.4 L 398.7 165.9 L 401.7 165.9 L 401.7 163.4 L 402.5 163.4 L 402.5 169.3 L 401.7 169.3 L 401.7 166.5 L 398.7 166.5 L 398.7 169.3 L 397.9 169.3 L 397.9 163.4 " fill="#000000"/>
<path class="atom-46" d="M 374.8 63.6 L 375.6 63.6 L 375.6 66.1 L 378.6 66.1 L 378.6 63.6 L 379.4 63.6 L 379.4 69.5 L 378.6 69.5 L 378.6 66.8 L 375.6 66.8 L 375.6 69.5 L 374.8 69.5 L 374.8 63.6 " fill="#000000"/>
<path class="atom-47" d="M 349.8 89.4 L 350.6 89.4 L 350.6 91.9 L 353.6 91.9 L 353.6 89.4 L 354.4 89.4 L 354.4 95.3 L 353.6 95.3 L 353.6 92.6 L 350.6 92.6 L 350.6 95.3 L 349.8 95.3 L 349.8 89.4 " fill="#000000"/>
<text x="300" y="20" font-size="20" font-family="sans-serif" font-weight="normal" letter-spacing="0" text-anchor="middle" fill="black">pfkfb3: 24 -&gt; 34</text><text x="300" y="35" font-size="15" font-family="sans-serif" font-weight="normal" letter-spacing="0" text-anchor="middle" fill="black"></text><text x="150" y="285" font-size="15" font-family="sans-serif" font-weight="normal" letter-spacing="0" text-anchor="middle" fill="black">24</text><text x="450" y="285" font-size="15" font-family="sans-serif" font-weight="normal" letter-spacing="0" text-anchor="middle" fill="black">34</text></svg>
