<?xml version='1.0' encoding='ASCII' standalone='yes'?>
<svg xmlns="http://www.w3.org/2000/svg" xmlns:rdkit="http://www.rdkit.org/xml" xmlns:xlink="http://www.w3.org/1999/xlink" version="1.1" baseProfile="full" xml:space="preserve" width="600px" height="300px" viewBox="0 0 600 300">
<!-- END OF HEADER -->
<rect style="opacity:1.0;fill:#FFFFFF;stroke:none" width="600.0" height="300.0" x="0.0" y="0.0"> </rect>
<path class="bond-0 atom-0 atom-1" d="M 123.3,153.7 L 141.1,161.1" style="fill:none;fill-rule:evenodd;stroke:#000000;stroke-width:2.0px;stroke-linecap:butt;stroke-linejoin:miter;stroke-opacity:1"/>
<path class="bond-0 atom-0 atom-1" d="M 127.4,151.3 L 139.9,156.4" style="fill:none;fill-rule:evenodd;stroke:#000000;stroke-width:2.0px;stroke-linecap:butt;stroke-linejoin:miter;stroke-opacity:1"/>
<path class="bond-1 atom-0 atom-3" d="M 123.3,153.7 L 120.8,134.6" style="fill:none;fill-rule:evenodd;stroke:#000000;stroke-width:2.0px;stroke-linecap:butt;stroke-linejoin:miter;stroke-opacity:1"/>
<path class="bond-2 atom-0 atom-10" d="M 123.3,153.7 L 117.0,158.5" style="fill:none;fill-rule:evenodd;stroke:#000000;stroke-width:2.0px;stroke-linecap:butt;stroke-linejoin:miter;stroke-opacity:1"/>
<path class="bond-2 atom-0 atom-10" d="M 117.0,158.5 L 110.7,163.4" style="fill:none;fill-rule:evenodd;stroke:#0000FF;stroke-width:2.0px;stroke-linecap:butt;stroke-linejoin:miter;stroke-opacity:1"/>
<path class="bond-3 atom-1 atom-2" d="M 141.1,161.1 L 156.4,149.4" style="fill:none;fill-rule:evenodd;stroke:#000000;stroke-width:2.0px;stroke-linecap:butt;stroke-linejoin:miter;stroke-opacity:1"/>
<path class="bond-4 atom-1 atom-29" d="M 141.1,161.1 L 143.1,176.9" style="fill:none;fill-rule:evenodd;stroke:#000000;stroke-width:2.0px;stroke-linecap:butt;stroke-linejoin:miter;stroke-opacity:1"/>
<path class="bond-5 atom-2 atom-5" d="M 156.4,149.4 L 153.9,130.3" style="fill:none;fill-rule:evenodd;stroke:#000000;stroke-width:2.0px;stroke-linecap:butt;stroke-linejoin:miter;stroke-opacity:1"/>
<path class="bond-5 atom-2 atom-5" d="M 152.2,147.0 L 150.5,133.6" style="fill:none;fill-rule:evenodd;stroke:#000000;stroke-width:2.0px;stroke-linecap:butt;stroke-linejoin:miter;stroke-opacity:1"/>
<path class="bond-6 atom-2 atom-11" d="M 156.4,149.4 L 174.2,156.8" style="fill:none;fill-rule:evenodd;stroke:#000000;stroke-width:2.0px;stroke-linecap:butt;stroke-linejoin:miter;stroke-opacity:1"/>
<path class="bond-7 atom-3 atom-4" d="M 120.8,134.6 L 136.1,122.9" style="fill:none;fill-rule:evenodd;stroke:#000000;stroke-width:2.0px;stroke-linecap:butt;stroke-linejoin:miter;stroke-opacity:1"/>
<path class="bond-7 atom-3 atom-4" d="M 125.4,135.9 L 136.2,127.7" style="fill:none;fill-rule:evenodd;stroke:#000000;stroke-width:2.0px;stroke-linecap:butt;stroke-linejoin:miter;stroke-opacity:1"/>
<path class="bond-8 atom-3 atom-30" d="M 120.8,134.6 L 112.6,129.9" style="fill:none;fill-rule:evenodd;stroke:#000000;stroke-width:2.0px;stroke-linecap:butt;stroke-linejoin:miter;stroke-opacity:1"/>
<path class="bond-9 atom-4 atom-5" d="M 136.1,122.9 L 153.9,130.3" style="fill:none;fill-rule:evenodd;stroke:#000000;stroke-width:2.0px;stroke-linecap:butt;stroke-linejoin:miter;stroke-opacity:1"/>
<path class="bond-10 atom-4 atom-9" d="M 136.1,122.9 L 135.1,115.0" style="fill:none;fill-rule:evenodd;stroke:#000000;stroke-width:2.0px;stroke-linecap:butt;stroke-linejoin:miter;stroke-opacity:1"/>
<path class="bond-10 atom-4 atom-9" d="M 135.1,115.0 L 134.1,107.1" style="fill:none;fill-rule:evenodd;stroke:#0000FF;stroke-width:2.0px;stroke-linecap:butt;stroke-linejoin:miter;stroke-opacity:1"/>
<path class="bond-11 atom-5 atom-6" d="M 153.9,130.3 L 160.2,125.4" style="fill:none;fill-rule:evenodd;stroke:#000000;stroke-width:2.0px;stroke-linecap:butt;stroke-linejoin:miter;stroke-opacity:1"/>
<path class="bond-11 atom-5 atom-6" d="M 160.2,125.4 L 166.5,120.6" style="fill:none;fill-rule:evenodd;stroke:#0000FF;stroke-width:2.0px;stroke-linecap:butt;stroke-linejoin:miter;stroke-opacity:1"/>
<path class="bond-12 atom-6 atom-7" d="M 168.8,115.2 L 167.8,107.3" style="fill:none;fill-rule:evenodd;stroke:#0000FF;stroke-width:2.0px;stroke-linecap:butt;stroke-linejoin:miter;stroke-opacity:1"/>
<path class="bond-12 atom-6 atom-7" d="M 167.8,107.3 L 166.7,99.4" style="fill:none;fill-rule:evenodd;stroke:#000000;stroke-width:2.0px;stroke-linecap:butt;stroke-linejoin:miter;stroke-opacity:1"/>
<path class="bond-12 atom-6 atom-7" d="M 164.7,113.3 L 164.0,107.8" style="fill:none;fill-rule:evenodd;stroke:#0000FF;stroke-width:2.0px;stroke-linecap:butt;stroke-linejoin:miter;stroke-opacity:1"/>
<path class="bond-12 atom-6 atom-7" d="M 164.0,107.8 L 163.2,102.3" style="fill:none;fill-rule:evenodd;stroke:#000000;stroke-width:2.0px;stroke-linecap:butt;stroke-linejoin:miter;stroke-opacity:1"/>
<path class="bond-13 atom-7 atom-8" d="M 166.7,99.4 L 148.9,92.0" style="fill:none;fill-rule:evenodd;stroke:#000000;stroke-width:2.0px;stroke-linecap:butt;stroke-linejoin:miter;stroke-opacity:1"/>
<path class="bond-14 atom-7 atom-31" d="M 166.7,99.4 L 179.3,89.8" style="fill:none;fill-rule:evenodd;stroke:#000000;stroke-width:2.0px;stroke-linecap:butt;stroke-linejoin:miter;stroke-opacity:1"/>
<path class="bond-15 atom-8 atom-9" d="M 148.9,92.0 L 142.6,96.8" style="fill:none;fill-rule:evenodd;stroke:#000000;stroke-width:2.0px;stroke-linecap:butt;stroke-linejoin:miter;stroke-opacity:1"/>
<path class="bond-15 atom-8 atom-9" d="M 142.6,96.8 L 136.3,101.7" style="fill:none;fill-rule:evenodd;stroke:#0000FF;stroke-width:2.0px;stroke-linecap:butt;stroke-linejoin:miter;stroke-opacity:1"/>
<path class="bond-15 atom-8 atom-9" d="M 149.4,96.5 L 145.0,99.9" style="fill:none;fill-rule:evenodd;stroke:#000000;stroke-width:2.0px;stroke-linecap:butt;stroke-linejoin:miter;stroke-opacity:1"/>
<path class="bond-15 atom-8 atom-9" d="M 145.0,99.9 L 140.6,103.3" style="fill:none;fill-rule:evenodd;stroke:#0000FF;stroke-width:2.0px;stroke-linecap:butt;stroke-linejoin:miter;stroke-opacity:1"/>
<path class="bond-16 atom-8 atom-32" d="M 148.9,92.0 L 146.9,76.3" style="fill:none;fill-rule:evenodd;stroke:#000000;stroke-width:2.0px;stroke-linecap:butt;stroke-linejoin:miter;stroke-opacity:1"/>
<path class="bond-17 atom-10 atom-17" d="M 105.3,164.3 L 97.7,161.2" style="fill:none;fill-rule:evenodd;stroke:#0000FF;stroke-width:2.0px;stroke-linecap:butt;stroke-linejoin:miter;stroke-opacity:1"/>
<path class="bond-17 atom-10 atom-17" d="M 97.7,161.2 L 90.2,158.0" style="fill:none;fill-rule:evenodd;stroke:#000000;stroke-width:2.0px;stroke-linecap:butt;stroke-linejoin:miter;stroke-opacity:1"/>
<path class="bond-18 atom-10 atom-33" d="M 108.4,168.8 L 109.2,175.0" style="fill:none;fill-rule:evenodd;stroke:#0000FF;stroke-width:2.0px;stroke-linecap:butt;stroke-linejoin:miter;stroke-opacity:1"/>
<path class="bond-18 atom-10 atom-33" d="M 109.2,175.0 L 110.0,181.2" style="fill:none;fill-rule:evenodd;stroke:#000000;stroke-width:2.0px;stroke-linecap:butt;stroke-linejoin:miter;stroke-opacity:1"/>
<path class="bond-19 atom-11 atom-12" d="M 174.2,156.8 L 176.7,175.9" style="fill:none;fill-rule:evenodd;stroke:#000000;stroke-width:2.0px;stroke-linecap:butt;stroke-linejoin:miter;stroke-opacity:1"/>
<path class="bond-19 atom-11 atom-12" d="M 178.4,159.2 L 180.2,172.6" style="fill:none;fill-rule:evenodd;stroke:#000000;stroke-width:2.0px;stroke-linecap:butt;stroke-linejoin:miter;stroke-opacity:1"/>
<path class="bond-20 atom-11 atom-14" d="M 174.2,156.8 L 189.5,145.1" style="fill:none;fill-rule:evenodd;stroke:#000000;stroke-width:2.0px;stroke-linecap:butt;stroke-linejoin:miter;stroke-opacity:1"/>
<path class="bond-21 atom-12 atom-13" d="M 176.7,175.9 L 194.5,183.3" style="fill:none;fill-rule:evenodd;stroke:#000000;stroke-width:2.0px;stroke-linecap:butt;stroke-linejoin:miter;stroke-opacity:1"/>
<path class="bond-22 atom-12 atom-34" d="M 176.7,175.9 L 164.2,185.5" style="fill:none;fill-rule:evenodd;stroke:#000000;stroke-width:2.0px;stroke-linecap:butt;stroke-linejoin:miter;stroke-opacity:1"/>
<path class="bond-23 atom-13 atom-16" d="M 194.5,183.3 L 209.8,171.6" style="fill:none;fill-rule:evenodd;stroke:#000000;stroke-width:2.0px;stroke-linecap:butt;stroke-linejoin:miter;stroke-opacity:1"/>
<path class="bond-23 atom-13 atom-16" d="M 194.5,178.5 L 205.2,170.3" style="fill:none;fill-rule:evenodd;stroke:#000000;stroke-width:2.0px;stroke-linecap:butt;stroke-linejoin:miter;stroke-opacity:1"/>
<path class="bond-24 atom-13 atom-35" d="M 194.5,183.3 L 196.6,199.1" style="fill:none;fill-rule:evenodd;stroke:#000000;stroke-width:2.0px;stroke-linecap:butt;stroke-linejoin:miter;stroke-opacity:1"/>
<path class="bond-25 atom-14 atom-15" d="M 189.5,145.1 L 207.3,152.5" style="fill:none;fill-rule:evenodd;stroke:#000000;stroke-width:2.0px;stroke-linecap:butt;stroke-linejoin:miter;stroke-opacity:1"/>
<path class="bond-25 atom-14 atom-15" d="M 190.7,149.7 L 203.2,154.9" style="fill:none;fill-rule:evenodd;stroke:#000000;stroke-width:2.0px;stroke-linecap:butt;stroke-linejoin:miter;stroke-opacity:1"/>
<path class="bond-26 atom-14 atom-36" d="M 189.5,145.1 L 187.5,129.3" style="fill:none;fill-rule:evenodd;stroke:#000000;stroke-width:2.0px;stroke-linecap:butt;stroke-linejoin:miter;stroke-opacity:1"/>
<path class="bond-27 atom-15 atom-16" d="M 207.3,152.5 L 209.8,171.6" style="fill:none;fill-rule:evenodd;stroke:#000000;stroke-width:2.0px;stroke-linecap:butt;stroke-linejoin:miter;stroke-opacity:1"/>
<path class="bond-28 atom-15 atom-37" d="M 207.3,152.5 L 219.9,142.9" style="fill:none;fill-rule:evenodd;stroke:#000000;stroke-width:2.0px;stroke-linecap:butt;stroke-linejoin:miter;stroke-opacity:1"/>
<path class="bond-29 atom-16 atom-27" d="M 209.8,171.6 L 227.6,179.0" style="fill:none;fill-rule:evenodd;stroke:#000000;stroke-width:2.0px;stroke-linecap:butt;stroke-linejoin:miter;stroke-opacity:1"/>
<path class="bond-30 atom-17 atom-18" d="M 90.2,158.0 L 87.7,138.9" style="fill:none;fill-rule:evenodd;stroke:#000000;stroke-width:2.0px;stroke-linecap:butt;stroke-linejoin:miter;stroke-opacity:1"/>
<path class="bond-30 atom-17 atom-18" d="M 86.0,155.6 L 84.2,142.3" style="fill:none;fill-rule:evenodd;stroke:#000000;stroke-width:2.0px;stroke-linecap:butt;stroke-linejoin:miter;stroke-opacity:1"/>
<path class="bond-31 atom-17 atom-22" d="M 90.2,158.0 L 74.9,169.7" style="fill:none;fill-rule:evenodd;stroke:#000000;stroke-width:2.0px;stroke-linecap:butt;stroke-linejoin:miter;stroke-opacity:1"/>
<path class="bond-32 atom-18 atom-19" d="M 87.7,138.9 L 80.1,135.8" style="fill:none;fill-rule:evenodd;stroke:#000000;stroke-width:2.0px;stroke-linecap:butt;stroke-linejoin:miter;stroke-opacity:1"/>
<path class="bond-32 atom-18 atom-19" d="M 80.1,135.8 L 72.6,132.6" style="fill:none;fill-rule:evenodd;stroke:#0000FF;stroke-width:2.0px;stroke-linecap:butt;stroke-linejoin:miter;stroke-opacity:1"/>
<path class="bond-33 atom-18 atom-38" d="M 87.7,138.9 L 94.0,132.7" style="fill:none;fill-rule:evenodd;stroke:#000000;stroke-width:2.0px;stroke-linecap:butt;stroke-linejoin:miter;stroke-opacity:1"/>
<path class="bond-34 atom-19 atom-20" d="M 67.2,133.6 L 60.9,138.4" style="fill:none;fill-rule:evenodd;stroke:#0000FF;stroke-width:2.0px;stroke-linecap:butt;stroke-linejoin:miter;stroke-opacity:1"/>
<path class="bond-34 atom-19 atom-20" d="M 60.9,138.4 L 54.6,143.2" style="fill:none;fill-rule:evenodd;stroke:#000000;stroke-width:2.0px;stroke-linecap:butt;stroke-linejoin:miter;stroke-opacity:1"/>
<path class="bond-34 atom-19 atom-20" d="M 67.6,138.1 L 63.2,141.4" style="fill:none;fill-rule:evenodd;stroke:#0000FF;stroke-width:2.0px;stroke-linecap:butt;stroke-linejoin:miter;stroke-opacity:1"/>
<path class="bond-34 atom-19 atom-20" d="M 63.2,141.4 L 58.8,144.8" style="fill:none;fill-rule:evenodd;stroke:#000000;stroke-width:2.0px;stroke-linecap:butt;stroke-linejoin:miter;stroke-opacity:1"/>
<path class="bond-35 atom-20 atom-21" d="M 54.6,143.2 L 57.0,162.3" style="fill:none;fill-rule:evenodd;stroke:#000000;stroke-width:2.0px;stroke-linecap:butt;stroke-linejoin:miter;stroke-opacity:1"/>
<path class="bond-36 atom-20 atom-39" d="M 54.6,143.2 L 39.5,136.9" style="fill:none;fill-rule:evenodd;stroke:#000000;stroke-width:2.0px;stroke-linecap:butt;stroke-linejoin:miter;stroke-opacity:1"/>
<path class="bond-37 atom-21 atom-22" d="M 57.0,162.3 L 74.9,169.7" style="fill:none;fill-rule:evenodd;stroke:#000000;stroke-width:2.0px;stroke-linecap:butt;stroke-linejoin:miter;stroke-opacity:1"/>
<path class="bond-37 atom-21 atom-22" d="M 61.2,159.9 L 73.7,165.1" style="fill:none;fill-rule:evenodd;stroke:#000000;stroke-width:2.0px;stroke-linecap:butt;stroke-linejoin:miter;stroke-opacity:1"/>
<path class="bond-38 atom-21 atom-40" d="M 57.0,162.3 L 44.5,171.9" style="fill:none;fill-rule:evenodd;stroke:#000000;stroke-width:2.0px;stroke-linecap:butt;stroke-linejoin:miter;stroke-opacity:1"/>
<path class="bond-39 atom-22 atom-23" d="M 74.9,169.7 L 75.9,177.6" style="fill:none;fill-rule:evenodd;stroke:#000000;stroke-width:2.0px;stroke-linecap:butt;stroke-linejoin:miter;stroke-opacity:1"/>
<path class="bond-39 atom-22 atom-23" d="M 75.9,177.6 L 76.9,185.5" style="fill:none;fill-rule:evenodd;stroke:#CCCC00;stroke-width:2.0px;stroke-linecap:butt;stroke-linejoin:miter;stroke-opacity:1"/>
<path class="bond-40 atom-23 atom-24" d="M 79.5,186.6 L 86.3,185.7" style="fill:none;fill-rule:evenodd;stroke:#CCCC00;stroke-width:2.0px;stroke-linecap:butt;stroke-linejoin:miter;stroke-opacity:1"/>
<path class="bond-40 atom-23 atom-24" d="M 86.3,185.7 L 93.1,184.9" style="fill:none;fill-rule:evenodd;stroke:#FF0000;stroke-width:2.0px;stroke-linecap:butt;stroke-linejoin:miter;stroke-opacity:1"/>
<path class="bond-40 atom-23 atom-24" d="M 80.0,190.5 L 86.8,189.6" style="fill:none;fill-rule:evenodd;stroke:#CCCC00;stroke-width:2.0px;stroke-linecap:butt;stroke-linejoin:miter;stroke-opacity:1"/>
<path class="bond-40 atom-23 atom-24" d="M 86.8,189.6 L 93.6,188.7" style="fill:none;fill-rule:evenodd;stroke:#FF0000;stroke-width:2.0px;stroke-linecap:butt;stroke-linejoin:miter;stroke-opacity:1"/>
<path class="bond-41 atom-23 atom-25" d="M 75.2,191.1 L 68.4,192.0" style="fill:none;fill-rule:evenodd;stroke:#CCCC00;stroke-width:2.0px;stroke-linecap:butt;stroke-linejoin:miter;stroke-opacity:1"/>
<path class="bond-41 atom-23 atom-25" d="M 68.4,192.0 L 61.6,192.8" style="fill:none;fill-rule:evenodd;stroke:#FF0000;stroke-width:2.0px;stroke-linecap:butt;stroke-linejoin:miter;stroke-opacity:1"/>
<path class="bond-41 atom-23 atom-25" d="M 74.7,187.3 L 67.9,188.1" style="fill:none;fill-rule:evenodd;stroke:#CCCC00;stroke-width:2.0px;stroke-linecap:butt;stroke-linejoin:miter;stroke-opacity:1"/>
<path class="bond-41 atom-23 atom-25" d="M 67.9,188.1 L 61.1,189.0" style="fill:none;fill-rule:evenodd;stroke:#FF0000;stroke-width:2.0px;stroke-linecap:butt;stroke-linejoin:miter;stroke-opacity:1"/>
<path class="bond-42 atom-23 atom-26" d="M 77.8,192.4 L 78.8,200.2" style="fill:none;fill-rule:evenodd;stroke:#CCCC00;stroke-width:2.0px;stroke-linecap:butt;stroke-linejoin:miter;stroke-opacity:1"/>
<path class="bond-42 atom-23 atom-26" d="M 78.8,200.2 L 79.8,208.0" style="fill:none;fill-rule:evenodd;stroke:#000000;stroke-width:2.0px;stroke-linecap:butt;stroke-linejoin:miter;stroke-opacity:1"/>
<path class="bond-43 atom-26 atom-41" d="M 79.8,208.0 L 63.5,210.1" style="fill:none;fill-rule:evenodd;stroke:#000000;stroke-width:2.0px;stroke-linecap:butt;stroke-linejoin:miter;stroke-opacity:1"/>
<path class="bond-44 atom-26 atom-42" d="M 79.8,208.0 L 96.2,205.8" style="fill:none;fill-rule:evenodd;stroke:#000000;stroke-width:2.0px;stroke-linecap:butt;stroke-linejoin:miter;stroke-opacity:1"/>
<path class="bond-45 atom-26 atom-43" d="M 79.8,208.0 L 81.9,223.7" style="fill:none;fill-rule:evenodd;stroke:#000000;stroke-width:2.0px;stroke-linecap:butt;stroke-linejoin:miter;stroke-opacity:1"/>
<path class="bond-46 atom-27 atom-28" d="M 227.6,179.0 L 245.4,186.4" style="fill:none;fill-rule:evenodd;stroke:#000000;stroke-width:2.0px;stroke-linecap:butt;stroke-linejoin:miter;stroke-opacity:1"/>
<path class="bond-47 atom-27 atom-44" d="M 227.6,179.0 L 221.6,193.5" style="fill:none;fill-rule:evenodd;stroke:#000000;stroke-width:2.0px;stroke-linecap:butt;stroke-linejoin:miter;stroke-opacity:1"/>
<path class="bond-48 atom-27 atom-45" d="M 227.6,179.0 L 233.6,164.6" style="fill:none;fill-rule:evenodd;stroke:#000000;stroke-width:2.0px;stroke-linecap:butt;stroke-linejoin:miter;stroke-opacity:1"/>
<path class="bond-49 atom-28 atom-46" d="M 245.4,186.4 L 251.5,172.0" style="fill:none;fill-rule:evenodd;stroke:#000000;stroke-width:2.0px;stroke-linecap:butt;stroke-linejoin:miter;stroke-opacity:1"/>
<path class="bond-50 atom-28 atom-47" d="M 245.4,186.4 L 239.4,200.9" style="fill:none;fill-rule:evenodd;stroke:#000000;stroke-width:2.0px;stroke-linecap:butt;stroke-linejoin:miter;stroke-opacity:1"/>
<path class="bond-51 atom-28 atom-48" d="M 245.4,186.4 L 260.5,192.7" style="fill:none;fill-rule:evenodd;stroke:#000000;stroke-width:2.0px;stroke-linecap:butt;stroke-linejoin:miter;stroke-opacity:1"/>
<path class="atom-6" d="M 168.0 115.8 L 169.8 118.7 Q 170.0 119.0, 170.3 119.5 Q 170.6 120.0, 170.6 120.1 L 170.6 115.8 L 171.3 115.8 L 171.3 121.3 L 170.6 121.3 L 168.6 118.1 Q 168.4 117.7, 168.2 117.3 Q 167.9 116.9, 167.9 116.8 L 167.9 121.3 L 167.2 121.3 L 167.2 115.8 L 168.0 115.8 " fill="#0000FF"/>
<path class="atom-9" d="M 132.4 101.0 L 134.2 103.9 Q 134.4 104.2, 134.7 104.7 Q 135.0 105.2, 135.0 105.3 L 135.0 101.0 L 135.7 101.0 L 135.7 106.5 L 135.0 106.5 L 133.0 103.3 Q 132.8 102.9, 132.6 102.5 Q 132.3 102.1, 132.3 102.0 L 132.3 106.5 L 131.6 106.5 L 131.6 101.0 L 132.4 101.0 " fill="#0000FF"/>
<path class="atom-10" d="M 106.8 162.7 L 108.6 165.6 Q 108.7 165.9, 109.0 166.4 Q 109.3 166.9, 109.3 166.9 L 109.3 162.7 L 110.0 162.7 L 110.0 168.2 L 109.3 168.2 L 107.4 165.0 Q 107.2 164.6, 106.9 164.2 Q 106.7 163.8, 106.6 163.6 L 106.6 168.2 L 105.9 168.2 L 105.9 162.7 L 106.8 162.7 " fill="#0000FF"/>
<path class="atom-19" d="M 68.7 128.8 L 70.5 131.6 Q 70.6 131.9, 70.9 132.5 Q 71.2 133.0, 71.2 133.0 L 71.2 128.8 L 71.9 128.8 L 71.9 134.2 L 71.2 134.2 L 69.3 131.1 Q 69.1 130.7, 68.8 130.3 Q 68.6 129.8, 68.5 129.7 L 68.5 134.2 L 67.8 134.2 L 67.8 128.8 L 68.7 128.8 " fill="#0000FF"/>
<path class="atom-23" d="M 75.8 190.7 Q 75.9 190.8, 76.1 190.9 Q 76.4 191.0, 76.6 191.0 Q 76.9 191.1, 77.2 191.1 Q 77.7 191.1, 78.0 190.9 Q 78.3 190.6, 78.3 190.2 Q 78.3 189.9, 78.2 189.7 Q 78.0 189.5, 77.8 189.4 Q 77.6 189.3, 77.2 189.2 Q 76.7 189.0, 76.4 188.9 Q 76.1 188.7, 75.9 188.5 Q 75.7 188.2, 75.7 187.7 Q 75.7 187.0, 76.2 186.6 Q 76.6 186.1, 77.6 186.1 Q 78.2 186.1, 78.9 186.4 L 78.7 187.0 Q 78.1 186.8, 77.6 186.8 Q 77.1 186.8, 76.8 187.0 Q 76.5 187.2, 76.5 187.6 Q 76.5 187.9, 76.6 188.0 Q 76.8 188.2, 77.0 188.3 Q 77.2 188.4, 77.6 188.5 Q 78.1 188.7, 78.4 188.8 Q 78.7 189.0, 78.9 189.3 Q 79.1 189.6, 79.1 190.2 Q 79.1 190.9, 78.6 191.3 Q 78.1 191.7, 77.2 191.7 Q 76.8 191.7, 76.4 191.6 Q 76.0 191.5, 75.6 191.3 L 75.8 190.7 " fill="#CCCC00"/>
<path class="atom-24" d="M 94.0 186.4 Q 94.0 185.1, 94.6 184.3 Q 95.3 183.6, 96.5 183.6 Q 97.7 183.6, 98.3 184.3 Q 99.0 185.1, 99.0 186.4 Q 99.0 187.7, 98.3 188.5 Q 97.7 189.2, 96.5 189.2 Q 95.3 189.2, 94.6 188.5 Q 94.0 187.7, 94.0 186.4 M 96.5 188.6 Q 97.3 188.6, 97.7 188.0 Q 98.2 187.5, 98.2 186.4 Q 98.2 185.3, 97.7 184.8 Q 97.3 184.2, 96.5 184.2 Q 95.6 184.2, 95.2 184.8 Q 94.7 185.3, 94.7 186.4 Q 94.7 187.5, 95.2 188.0 Q 95.6 188.6, 96.5 188.6 " fill="#FF0000"/>
<path class="atom-25" d="M 55.7 191.4 Q 55.7 190.0, 56.4 189.3 Q 57.0 188.6, 58.2 188.6 Q 59.4 188.6, 60.1 189.3 Q 60.7 190.0, 60.7 191.4 Q 60.7 192.7, 60.1 193.4 Q 59.4 194.2, 58.2 194.2 Q 57.0 194.2, 56.4 193.4 Q 55.7 192.7, 55.7 191.4 M 58.2 193.6 Q 59.1 193.6, 59.5 193.0 Q 60.0 192.5, 60.0 191.4 Q 60.0 190.3, 59.5 189.7 Q 59.1 189.2, 58.2 189.2 Q 57.4 189.2, 56.9 189.7 Q 56.5 190.3, 56.5 191.4 Q 56.5 192.5, 56.9 193.0 Q 57.4 193.6, 58.2 193.6 " fill="#FF0000"/>
<path class="atom-29" d="M 141.5 177.5 L 142.2 177.5 L 142.2 179.8 L 145.0 179.8 L 145.0 177.5 L 145.7 177.5 L 145.7 183.0 L 145.0 183.0 L 145.0 180.4 L 142.2 180.4 L 142.2 183.0 L 141.5 183.0 L 141.5 177.5 " fill="#000000"/>
<path class="atom-30" d="M 107.7 125.6 L 108.4 125.6 L 108.4 127.9 L 111.2 127.9 L 111.2 125.6 L 111.9 125.6 L 111.9 131.1 L 111.2 131.1 L 111.2 128.5 L 108.4 128.5 L 108.4 131.1 L 107.7 131.1 L 107.7 125.6 " fill="#000000"/>
<path class="atom-31" d="M 179.9 85.0 L 180.7 85.0 L 180.7 87.3 L 183.5 87.3 L 183.5 85.0 L 184.2 85.0 L 184.2 90.4 L 183.5 90.4 L 183.5 87.9 L 180.7 87.9 L 180.7 90.4 L 179.9 90.4 L 179.9 85.0 " fill="#000000"/>
<path class="atom-32" d="M 144.3 70.2 L 145.1 70.2 L 145.1 72.5 L 147.8 72.5 L 147.8 70.2 L 148.6 70.2 L 148.6 75.6 L 147.8 75.6 L 147.8 73.1 L 145.1 73.1 L 145.1 75.6 L 144.3 75.6 L 144.3 70.2 " fill="#000000"/>
<path class="atom-33" d="M 108.3 181.8 L 109.1 181.8 L 109.1 184.1 L 111.9 184.1 L 111.9 181.8 L 112.6 181.8 L 112.6 187.3 L 111.9 187.3 L 111.9 184.8 L 109.1 184.8 L 109.1 187.3 L 108.3 187.3 L 108.3 181.8 " fill="#000000"/>
<path class="atom-34" d="M 159.3 184.9 L 160.0 184.9 L 160.0 187.2 L 162.8 187.2 L 162.8 184.9 L 163.5 184.9 L 163.5 190.4 L 162.8 190.4 L 162.8 187.8 L 160.0 187.8 L 160.0 190.4 L 159.3 190.4 L 159.3 184.9 " fill="#000000"/>
<path class="atom-35" d="M 194.9 199.7 L 195.6 199.7 L 195.6 202.0 L 198.4 202.0 L 198.4 199.7 L 199.1 199.7 L 199.1 205.2 L 198.4 205.2 L 198.4 202.7 L 195.6 202.7 L 195.6 205.2 L 194.9 205.2 L 194.9 199.7 " fill="#000000"/>
<path class="atom-36" d="M 184.9 123.2 L 185.6 123.2 L 185.6 125.5 L 188.4 125.5 L 188.4 123.2 L 189.2 123.2 L 189.2 128.7 L 188.4 128.7 L 188.4 126.2 L 185.6 126.2 L 185.6 128.7 L 184.9 128.7 L 184.9 123.2 " fill="#000000"/>
<path class="atom-37" d="M 220.5 138.0 L 221.3 138.0 L 221.3 140.4 L 224.1 140.4 L 224.1 138.0 L 224.8 138.0 L 224.8 143.5 L 224.1 143.5 L 224.1 141.0 L 221.3 141.0 L 221.3 143.5 L 220.5 143.5 L 220.5 138.0 " fill="#000000"/>
<path class="atom-38" d="M 94.6 127.3 L 95.3 127.3 L 95.3 129.6 L 98.1 129.6 L 98.1 127.3 L 98.9 127.3 L 98.9 132.8 L 98.1 132.8 L 98.1 130.2 L 95.3 130.2 L 95.3 132.8 L 94.6 132.8 L 94.6 127.3 " fill="#000000"/>
<path class="atom-39" d="M 34.6 133.1 L 35.4 133.1 L 35.4 135.4 L 38.1 135.4 L 38.1 133.1 L 38.9 133.1 L 38.9 138.5 L 38.1 138.5 L 38.1 136.0 L 35.4 136.0 L 35.4 138.5 L 34.6 138.5 L 34.6 133.1 " fill="#000000"/>
<path class="atom-40" d="M 39.6 171.3 L 40.3 171.3 L 40.3 173.6 L 43.1 173.6 L 43.1 171.3 L 43.9 171.3 L 43.9 176.8 L 43.1 176.8 L 43.1 174.3 L 40.3 174.3 L 40.3 176.8 L 39.6 176.8 L 39.6 171.3 " fill="#000000"/>
<path class="atom-41" d="M 58.6 207.7 L 59.3 207.7 L 59.3 210.1 L 62.1 210.1 L 62.1 207.7 L 62.8 207.7 L 62.8 213.2 L 62.1 213.2 L 62.1 210.7 L 59.3 210.7 L 59.3 213.2 L 58.6 213.2 L 58.6 207.7 " fill="#000000"/>
<path class="atom-42" d="M 96.8 202.8 L 97.6 202.8 L 97.6 205.1 L 100.4 205.1 L 100.4 202.8 L 101.1 202.8 L 101.1 208.2 L 100.4 208.2 L 100.4 205.7 L 97.6 205.7 L 97.6 208.2 L 96.8 208.2 L 96.8 202.8 " fill="#000000"/>
<path class="atom-43" d="M 80.2 224.4 L 80.9 224.4 L 80.9 226.7 L 83.7 226.7 L 83.7 224.4 L 84.5 224.4 L 84.5 229.8 L 83.7 229.8 L 83.7 227.3 L 80.9 227.3 L 80.9 229.8 L 80.2 229.8 L 80.2 224.4 " fill="#000000"/>
<path class="atom-44" d="M 218.1 194.1 L 218.8 194.1 L 218.8 196.4 L 221.6 196.4 L 221.6 194.1 L 222.4 194.1 L 222.4 199.5 L 221.6 199.5 L 221.6 197.0 L 218.8 197.0 L 218.8 199.5 L 218.1 199.5 L 218.1 194.1 " fill="#000000"/>
<path class="atom-45" d="M 232.9 158.5 L 233.6 158.5 L 233.6 160.8 L 236.4 160.8 L 236.4 158.5 L 237.2 158.5 L 237.2 163.9 L 236.4 163.9 L 236.4 161.4 L 233.6 161.4 L 233.6 163.9 L 232.9 163.9 L 232.9 158.5 " fill="#000000"/>
<path class="atom-46" d="M 250.7 165.9 L 251.5 165.9 L 251.5 168.2 L 254.2 168.2 L 254.2 165.9 L 255.0 165.9 L 255.0 171.3 L 254.2 171.3 L 254.2 168.8 L 251.5 168.8 L 251.5 171.3 L 250.7 171.3 L 250.7 165.9 " fill="#000000"/>
<path class="atom-47" d="M 235.9 201.5 L 236.6 201.5 L 236.6 203.8 L 239.4 203.8 L 239.4 201.5 L 240.2 201.5 L 240.2 207.0 L 239.4 207.0 L 239.4 204.4 L 236.6 204.4 L 236.6 207.0 L 235.9 207.0 L 235.9 201.5 " fill="#000000"/>
<path class="atom-48" d="M 261.1 191.1 L 261.9 191.1 L 261.9 193.4 L 264.6 193.4 L 264.6 191.1 L 265.4 191.1 L 265.4 196.6 L 264.6 196.6 L 264.6 194.0 L 261.9 194.0 L 261.9 196.6 L 261.1 196.6 L 261.1 191.1 " fill="#000000"/>
<path class="bond-0 atom-0 atom-3" d="M 466.7,153.9 L 450.3,163.9" style="fill:none;fill-rule:evenodd;stroke:#000000;stroke-width:2.0px;stroke-linecap:butt;stroke-linejoin:miter;stroke-opacity:1"/>
<path class="bond-0 atom-0 atom-3" d="M 462.3,152.1 L 450.7,159.1" style="fill:none;fill-rule:evenodd;stroke:#000000;stroke-width:2.0px;stroke-linecap:butt;stroke-linejoin:miter;stroke-opacity:1"/>
<path class="bond-1 atom-0 atom-5" d="M 466.7,153.9 L 466.3,134.6" style="fill:none;fill-rule:evenodd;stroke:#000000;stroke-width:2.0px;stroke-linecap:butt;stroke-linejoin:miter;stroke-opacity:1"/>
<path class="bond-2 atom-0 atom-10" d="M 466.7,153.9 L 483.6,163.2" style="fill:none;fill-rule:evenodd;stroke:#000000;stroke-width:2.0px;stroke-linecap:butt;stroke-linejoin:miter;stroke-opacity:1"/>
<path class="bond-3 atom-1 atom-2" d="M 432.9,135.4 L 433.3,154.6" style="fill:none;fill-rule:evenodd;stroke:#000000;stroke-width:2.0px;stroke-linecap:butt;stroke-linejoin:miter;stroke-opacity:1"/>
<path class="bond-3 atom-1 atom-2" d="M 436.8,138.2 L 437.1,151.7" style="fill:none;fill-rule:evenodd;stroke:#000000;stroke-width:2.0px;stroke-linecap:butt;stroke-linejoin:miter;stroke-opacity:1"/>
<path class="bond-4 atom-1 atom-4" d="M 432.9,135.4 L 449.4,125.4" style="fill:none;fill-rule:evenodd;stroke:#000000;stroke-width:2.0px;stroke-linecap:butt;stroke-linejoin:miter;stroke-opacity:1"/>
<path class="bond-5 atom-1 atom-31" d="M 432.9,135.4 L 425.4,130.0" style="fill:none;fill-rule:evenodd;stroke:#000000;stroke-width:2.0px;stroke-linecap:butt;stroke-linejoin:miter;stroke-opacity:1"/>
<path class="bond-6 atom-2 atom-3" d="M 433.3,154.6 L 450.3,163.9" style="fill:none;fill-rule:evenodd;stroke:#000000;stroke-width:2.0px;stroke-linecap:butt;stroke-linejoin:miter;stroke-opacity:1"/>
<path class="bond-7 atom-2 atom-14" d="M 433.3,154.6 L 426.5,158.8" style="fill:none;fill-rule:evenodd;stroke:#000000;stroke-width:2.0px;stroke-linecap:butt;stroke-linejoin:miter;stroke-opacity:1"/>
<path class="bond-7 atom-2 atom-14" d="M 426.5,158.8 L 419.6,163.0" style="fill:none;fill-rule:evenodd;stroke:#0000FF;stroke-width:2.0px;stroke-linecap:butt;stroke-linejoin:miter;stroke-opacity:1"/>
<path class="bond-8 atom-3 atom-32" d="M 450.3,163.9 L 450.6,179.8" style="fill:none;fill-rule:evenodd;stroke:#000000;stroke-width:2.0px;stroke-linecap:butt;stroke-linejoin:miter;stroke-opacity:1"/>
<path class="bond-9 atom-4 atom-5" d="M 449.4,125.4 L 466.3,134.6" style="fill:none;fill-rule:evenodd;stroke:#000000;stroke-width:2.0px;stroke-linecap:butt;stroke-linejoin:miter;stroke-opacity:1"/>
<path class="bond-9 atom-4 atom-5" d="M 450.1,130.1 L 461.9,136.6" style="fill:none;fill-rule:evenodd;stroke:#000000;stroke-width:2.0px;stroke-linecap:butt;stroke-linejoin:miter;stroke-opacity:1"/>
<path class="bond-10 atom-4 atom-9" d="M 449.4,125.4 L 449.2,117.4" style="fill:none;fill-rule:evenodd;stroke:#000000;stroke-width:2.0px;stroke-linecap:butt;stroke-linejoin:miter;stroke-opacity:1"/>
<path class="bond-10 atom-4 atom-9" d="M 449.2,117.4 L 449.1,109.4" style="fill:none;fill-rule:evenodd;stroke:#0000FF;stroke-width:2.0px;stroke-linecap:butt;stroke-linejoin:miter;stroke-opacity:1"/>
<path class="bond-11 atom-5 atom-6" d="M 466.3,134.6 L 473.2,130.4" style="fill:none;fill-rule:evenodd;stroke:#000000;stroke-width:2.0px;stroke-linecap:butt;stroke-linejoin:miter;stroke-opacity:1"/>
<path class="bond-11 atom-5 atom-6" d="M 473.2,130.4 L 480.1,126.3" style="fill:none;fill-rule:evenodd;stroke:#0000FF;stroke-width:2.0px;stroke-linecap:butt;stroke-linejoin:miter;stroke-opacity:1"/>
<path class="bond-12 atom-6 atom-7" d="M 482.7,121.3 L 482.6,113.3" style="fill:none;fill-rule:evenodd;stroke:#0000FF;stroke-width:2.0px;stroke-linecap:butt;stroke-linejoin:miter;stroke-opacity:1"/>
<path class="bond-12 atom-6 atom-7" d="M 482.6,113.3 L 482.4,105.3" style="fill:none;fill-rule:evenodd;stroke:#000000;stroke-width:2.0px;stroke-linecap:butt;stroke-linejoin:miter;stroke-opacity:1"/>
<path class="bond-12 atom-6 atom-7" d="M 478.8,119.0 L 478.7,113.4" style="fill:none;fill-rule:evenodd;stroke:#0000FF;stroke-width:2.0px;stroke-linecap:butt;stroke-linejoin:miter;stroke-opacity:1"/>
<path class="bond-12 atom-6 atom-7" d="M 478.7,113.4 L 478.6,107.8" style="fill:none;fill-rule:evenodd;stroke:#000000;stroke-width:2.0px;stroke-linecap:butt;stroke-linejoin:miter;stroke-opacity:1"/>
<path class="bond-13 atom-7 atom-8" d="M 482.4,105.3 L 465.5,96.1" style="fill:none;fill-rule:evenodd;stroke:#000000;stroke-width:2.0px;stroke-linecap:butt;stroke-linejoin:miter;stroke-opacity:1"/>
<path class="bond-14 atom-7 atom-33" d="M 482.4,105.3 L 496.1,97.0" style="fill:none;fill-rule:evenodd;stroke:#000000;stroke-width:2.0px;stroke-linecap:butt;stroke-linejoin:miter;stroke-opacity:1"/>
<path class="bond-15 atom-8 atom-9" d="M 465.5,96.1 L 458.6,100.3" style="fill:none;fill-rule:evenodd;stroke:#000000;stroke-width:2.0px;stroke-linecap:butt;stroke-linejoin:miter;stroke-opacity:1"/>
<path class="bond-15 atom-8 atom-9" d="M 458.6,100.3 L 451.7,104.4" style="fill:none;fill-rule:evenodd;stroke:#0000FF;stroke-width:2.0px;stroke-linecap:butt;stroke-linejoin:miter;stroke-opacity:1"/>
<path class="bond-15 atom-8 atom-9" d="M 465.4,100.6 L 460.6,103.5" style="fill:none;fill-rule:evenodd;stroke:#000000;stroke-width:2.0px;stroke-linecap:butt;stroke-linejoin:miter;stroke-opacity:1"/>
<path class="bond-15 atom-8 atom-9" d="M 460.6,103.5 L 455.8,106.5" style="fill:none;fill-rule:evenodd;stroke:#0000FF;stroke-width:2.0px;stroke-linecap:butt;stroke-linejoin:miter;stroke-opacity:1"/>
<path class="bond-16 atom-8 atom-34" d="M 465.5,96.1 L 465.1,80.1" style="fill:none;fill-rule:evenodd;stroke:#000000;stroke-width:2.0px;stroke-linecap:butt;stroke-linejoin:miter;stroke-opacity:1"/>
<path class="bond-17 atom-10 atom-11" d="M 483.6,163.2 L 484.1,182.5" style="fill:none;fill-rule:evenodd;stroke:#000000;stroke-width:2.0px;stroke-linecap:butt;stroke-linejoin:miter;stroke-opacity:1"/>
<path class="bond-17 atom-10 atom-11" d="M 487.6,166.0 L 487.9,179.5" style="fill:none;fill-rule:evenodd;stroke:#000000;stroke-width:2.0px;stroke-linecap:butt;stroke-linejoin:miter;stroke-opacity:1"/>
<path class="bond-18 atom-10 atom-13" d="M 483.6,163.2 L 500.1,153.2" style="fill:none;fill-rule:evenodd;stroke:#000000;stroke-width:2.0px;stroke-linecap:butt;stroke-linejoin:miter;stroke-opacity:1"/>
<path class="bond-19 atom-11 atom-12" d="M 484.1,182.5 L 501.0,191.7" style="fill:none;fill-rule:evenodd;stroke:#000000;stroke-width:2.0px;stroke-linecap:butt;stroke-linejoin:miter;stroke-opacity:1"/>
<path class="bond-20 atom-11 atom-35" d="M 484.1,182.5 L 470.3,190.8" style="fill:none;fill-rule:evenodd;stroke:#000000;stroke-width:2.0px;stroke-linecap:butt;stroke-linejoin:miter;stroke-opacity:1"/>
<path class="bond-21 atom-12 atom-26" d="M 501.0,191.7 L 517.5,181.7" style="fill:none;fill-rule:evenodd;stroke:#000000;stroke-width:2.0px;stroke-linecap:butt;stroke-linejoin:miter;stroke-opacity:1"/>
<path class="bond-21 atom-12 atom-26" d="M 501.5,186.9 L 513.0,179.9" style="fill:none;fill-rule:evenodd;stroke:#000000;stroke-width:2.0px;stroke-linecap:butt;stroke-linejoin:miter;stroke-opacity:1"/>
<path class="bond-22 atom-12 atom-36" d="M 501.0,191.7 L 501.3,207.7" style="fill:none;fill-rule:evenodd;stroke:#000000;stroke-width:2.0px;stroke-linecap:butt;stroke-linejoin:miter;stroke-opacity:1"/>
<path class="bond-23 atom-13 atom-25" d="M 500.1,153.2 L 517.0,162.5" style="fill:none;fill-rule:evenodd;stroke:#000000;stroke-width:2.0px;stroke-linecap:butt;stroke-linejoin:miter;stroke-opacity:1"/>
<path class="bond-23 atom-13 atom-25" d="M 500.8,158.0 L 512.7,164.4" style="fill:none;fill-rule:evenodd;stroke:#000000;stroke-width:2.0px;stroke-linecap:butt;stroke-linejoin:miter;stroke-opacity:1"/>
<path class="bond-24 atom-13 atom-37" d="M 500.1,153.2 L 499.8,137.3" style="fill:none;fill-rule:evenodd;stroke:#000000;stroke-width:2.0px;stroke-linecap:butt;stroke-linejoin:miter;stroke-opacity:1"/>
<path class="bond-25 atom-14 atom-15" d="M 414.2,163.2 L 407.1,159.3" style="fill:none;fill-rule:evenodd;stroke:#0000FF;stroke-width:2.0px;stroke-linecap:butt;stroke-linejoin:miter;stroke-opacity:1"/>
<path class="bond-25 atom-14 atom-15" d="M 407.1,159.3 L 400.0,155.4" style="fill:none;fill-rule:evenodd;stroke:#000000;stroke-width:2.0px;stroke-linecap:butt;stroke-linejoin:miter;stroke-opacity:1"/>
<path class="bond-26 atom-14 atom-38" d="M 416.9,168.0 L 417.1,174.3" style="fill:none;fill-rule:evenodd;stroke:#0000FF;stroke-width:2.0px;stroke-linecap:butt;stroke-linejoin:miter;stroke-opacity:1"/>
<path class="bond-26 atom-14 atom-38" d="M 417.1,174.3 L 417.2,180.6" style="fill:none;fill-rule:evenodd;stroke:#000000;stroke-width:2.0px;stroke-linecap:butt;stroke-linejoin:miter;stroke-opacity:1"/>
<path class="bond-27 atom-15 atom-16" d="M 400.0,155.4 L 399.5,136.1" style="fill:none;fill-rule:evenodd;stroke:#000000;stroke-width:2.0px;stroke-linecap:butt;stroke-linejoin:miter;stroke-opacity:1"/>
<path class="bond-27 atom-15 atom-16" d="M 396.0,152.6 L 395.7,139.1" style="fill:none;fill-rule:evenodd;stroke:#000000;stroke-width:2.0px;stroke-linecap:butt;stroke-linejoin:miter;stroke-opacity:1"/>
<path class="bond-28 atom-15 atom-20" d="M 400.0,155.4 L 383.5,165.4" style="fill:none;fill-rule:evenodd;stroke:#000000;stroke-width:2.0px;stroke-linecap:butt;stroke-linejoin:miter;stroke-opacity:1"/>
<path class="bond-29 atom-16 atom-17" d="M 399.5,136.1 L 392.4,132.2" style="fill:none;fill-rule:evenodd;stroke:#000000;stroke-width:2.0px;stroke-linecap:butt;stroke-linejoin:miter;stroke-opacity:1"/>
<path class="bond-29 atom-16 atom-17" d="M 392.4,132.2 L 385.3,128.3" style="fill:none;fill-rule:evenodd;stroke:#0000FF;stroke-width:2.0px;stroke-linecap:butt;stroke-linejoin:miter;stroke-opacity:1"/>
<path class="bond-30 atom-16 atom-39" d="M 399.5,136.1 L 406.7,130.4" style="fill:none;fill-rule:evenodd;stroke:#000000;stroke-width:2.0px;stroke-linecap:butt;stroke-linejoin:miter;stroke-opacity:1"/>
<path class="bond-31 atom-17 atom-18" d="M 379.9,128.4 L 373.0,132.6" style="fill:none;fill-rule:evenodd;stroke:#0000FF;stroke-width:2.0px;stroke-linecap:butt;stroke-linejoin:miter;stroke-opacity:1"/>
<path class="bond-31 atom-17 atom-18" d="M 373.0,132.6 L 366.1,136.8" style="fill:none;fill-rule:evenodd;stroke:#000000;stroke-width:2.0px;stroke-linecap:butt;stroke-linejoin:miter;stroke-opacity:1"/>
<path class="bond-31 atom-17 atom-18" d="M 379.9,133.0 L 375.0,135.9" style="fill:none;fill-rule:evenodd;stroke:#0000FF;stroke-width:2.0px;stroke-linecap:butt;stroke-linejoin:miter;stroke-opacity:1"/>
<path class="bond-31 atom-17 atom-18" d="M 375.0,135.9 L 370.2,138.9" style="fill:none;fill-rule:evenodd;stroke:#000000;stroke-width:2.0px;stroke-linecap:butt;stroke-linejoin:miter;stroke-opacity:1"/>
<path class="bond-32 atom-18 atom-19" d="M 366.1,136.8 L 366.6,156.1" style="fill:none;fill-rule:evenodd;stroke:#000000;stroke-width:2.0px;stroke-linecap:butt;stroke-linejoin:miter;stroke-opacity:1"/>
<path class="bond-33 atom-18 atom-40" d="M 366.1,136.8 L 352.0,129.1" style="fill:none;fill-rule:evenodd;stroke:#000000;stroke-width:2.0px;stroke-linecap:butt;stroke-linejoin:miter;stroke-opacity:1"/>
<path class="bond-34 atom-19 atom-20" d="M 366.6,156.1 L 383.5,165.4" style="fill:none;fill-rule:evenodd;stroke:#000000;stroke-width:2.0px;stroke-linecap:butt;stroke-linejoin:miter;stroke-opacity:1"/>
<path class="bond-34 atom-19 atom-20" d="M 371.0,154.1 L 382.8,160.6" style="fill:none;fill-rule:evenodd;stroke:#000000;stroke-width:2.0px;stroke-linecap:butt;stroke-linejoin:miter;stroke-opacity:1"/>
<path class="bond-35 atom-19 atom-41" d="M 366.6,156.1 L 352.8,164.4" style="fill:none;fill-rule:evenodd;stroke:#000000;stroke-width:2.0px;stroke-linecap:butt;stroke-linejoin:miter;stroke-opacity:1"/>
<path class="bond-36 atom-20 atom-21" d="M 383.5,165.4 L 383.6,173.3" style="fill:none;fill-rule:evenodd;stroke:#000000;stroke-width:2.0px;stroke-linecap:butt;stroke-linejoin:miter;stroke-opacity:1"/>
<path class="bond-36 atom-20 atom-21" d="M 383.6,173.3 L 383.8,181.3" style="fill:none;fill-rule:evenodd;stroke:#CCCC00;stroke-width:2.0px;stroke-linecap:butt;stroke-linejoin:miter;stroke-opacity:1"/>
<path class="bond-37 atom-21 atom-22" d="M 386.2,182.7 L 393.1,182.5" style="fill:none;fill-rule:evenodd;stroke:#CCCC00;stroke-width:2.0px;stroke-linecap:butt;stroke-linejoin:miter;stroke-opacity:1"/>
<path class="bond-37 atom-21 atom-22" d="M 393.1,182.5 L 400.0,182.4" style="fill:none;fill-rule:evenodd;stroke:#FF0000;stroke-width:2.0px;stroke-linecap:butt;stroke-linejoin:miter;stroke-opacity:1"/>
<path class="bond-37 atom-21 atom-22" d="M 386.3,186.5 L 393.2,186.4" style="fill:none;fill-rule:evenodd;stroke:#CCCC00;stroke-width:2.0px;stroke-linecap:butt;stroke-linejoin:miter;stroke-opacity:1"/>
<path class="bond-37 atom-21 atom-22" d="M 393.2,186.4 L 400.1,186.2" style="fill:none;fill-rule:evenodd;stroke:#FF0000;stroke-width:2.0px;stroke-linecap:butt;stroke-linejoin:miter;stroke-opacity:1"/>
<path class="bond-38 atom-21 atom-23" d="M 381.6,186.6 L 374.7,186.8" style="fill:none;fill-rule:evenodd;stroke:#CCCC00;stroke-width:2.0px;stroke-linecap:butt;stroke-linejoin:miter;stroke-opacity:1"/>
<path class="bond-38 atom-21 atom-23" d="M 374.7,186.8 L 367.8,186.9" style="fill:none;fill-rule:evenodd;stroke:#FF0000;stroke-width:2.0px;stroke-linecap:butt;stroke-linejoin:miter;stroke-opacity:1"/>
<path class="bond-38 atom-21 atom-23" d="M 381.5,182.8 L 374.6,182.9" style="fill:none;fill-rule:evenodd;stroke:#CCCC00;stroke-width:2.0px;stroke-linecap:butt;stroke-linejoin:miter;stroke-opacity:1"/>
<path class="bond-38 atom-21 atom-23" d="M 374.6,182.9 L 367.7,183.1" style="fill:none;fill-rule:evenodd;stroke:#FF0000;stroke-width:2.0px;stroke-linecap:butt;stroke-linejoin:miter;stroke-opacity:1"/>
<path class="bond-39 atom-21 atom-24" d="M 384.0,188.1 L 384.1,196.0" style="fill:none;fill-rule:evenodd;stroke:#CCCC00;stroke-width:2.0px;stroke-linecap:butt;stroke-linejoin:miter;stroke-opacity:1"/>
<path class="bond-39 atom-21 atom-24" d="M 384.1,196.0 L 384.3,203.9" style="fill:none;fill-rule:evenodd;stroke:#000000;stroke-width:2.0px;stroke-linecap:butt;stroke-linejoin:miter;stroke-opacity:1"/>
<path class="bond-40 atom-24 atom-42" d="M 384.3,203.9 L 367.8,204.3" style="fill:none;fill-rule:evenodd;stroke:#000000;stroke-width:2.0px;stroke-linecap:butt;stroke-linejoin:miter;stroke-opacity:1"/>
<path class="bond-41 atom-24 atom-43" d="M 384.3,203.9 L 400.8,203.6" style="fill:none;fill-rule:evenodd;stroke:#000000;stroke-width:2.0px;stroke-linecap:butt;stroke-linejoin:miter;stroke-opacity:1"/>
<path class="bond-42 atom-24 atom-44" d="M 384.3,203.9 L 384.7,219.9" style="fill:none;fill-rule:evenodd;stroke:#000000;stroke-width:2.0px;stroke-linecap:butt;stroke-linejoin:miter;stroke-opacity:1"/>
<path class="bond-43 atom-25 atom-26" d="M 517.0,162.5 L 517.5,181.7" style="fill:none;fill-rule:evenodd;stroke:#000000;stroke-width:2.0px;stroke-linecap:butt;stroke-linejoin:miter;stroke-opacity:1"/>
<path class="bond-44 atom-25 atom-45" d="M 517.0,162.5 L 530.8,154.1" style="fill:none;fill-rule:evenodd;stroke:#000000;stroke-width:2.0px;stroke-linecap:butt;stroke-linejoin:miter;stroke-opacity:1"/>
<path class="bond-45 atom-26 atom-27" d="M 517.5,181.7 L 534.4,191.0" style="fill:none;fill-rule:evenodd;stroke:#000000;stroke-width:2.0px;stroke-linecap:butt;stroke-linejoin:miter;stroke-opacity:1"/>
<path class="bond-46 atom-27 atom-28" d="M 534.4,191.0 L 541.7,195.0" style="fill:none;fill-rule:evenodd;stroke:#000000;stroke-width:2.0px;stroke-linecap:butt;stroke-linejoin:miter;stroke-opacity:1"/>
<path class="bond-46 atom-27 atom-28" d="M 541.7,195.0 L 549.0,199.0" style="fill:none;fill-rule:evenodd;stroke:#33CCCC;stroke-width:2.0px;stroke-linecap:butt;stroke-linejoin:miter;stroke-opacity:1"/>
<path class="bond-47 atom-27 atom-29" d="M 534.4,191.0 L 530.7,197.8" style="fill:none;fill-rule:evenodd;stroke:#000000;stroke-width:2.0px;stroke-linecap:butt;stroke-linejoin:miter;stroke-opacity:1"/>
<path class="bond-47 atom-27 atom-29" d="M 530.7,197.8 L 526.9,204.6" style="fill:none;fill-rule:evenodd;stroke:#33CCCC;stroke-width:2.0px;stroke-linecap:butt;stroke-linejoin:miter;stroke-opacity:1"/>
<path class="bond-48 atom-27 atom-30" d="M 534.4,191.0 L 538.1,184.2" style="fill:none;fill-rule:evenodd;stroke:#000000;stroke-width:2.0px;stroke-linecap:butt;stroke-linejoin:miter;stroke-opacity:1"/>
<path class="bond-48 atom-27 atom-30" d="M 538.1,184.2 L 541.8,177.5" style="fill:none;fill-rule:evenodd;stroke:#33CCCC;stroke-width:2.0px;stroke-linecap:butt;stroke-linejoin:miter;stroke-opacity:1"/>
<path class="atom-6" d="M 481.6 121.9 L 483.4 124.8 Q 483.6 125.1, 483.9 125.6 Q 484.1 126.1, 484.2 126.1 L 484.2 121.9 L 484.9 121.9 L 484.9 127.4 L 484.1 127.4 L 482.2 124.2 Q 482.0 123.8, 481.7 123.4 Q 481.5 123.0, 481.4 122.8 L 481.4 127.4 L 480.7 127.4 L 480.7 121.9 L 481.6 121.9 " fill="#0000FF"/>
<path class="atom-9" d="M 447.8 103.3 L 449.6 106.2 Q 449.8 106.5, 450.0 107.0 Q 450.3 107.6, 450.3 107.6 L 450.3 103.3 L 451.1 103.3 L 451.1 108.8 L 450.3 108.8 L 448.4 105.6 Q 448.2 105.3, 447.9 104.8 Q 447.7 104.4, 447.6 104.3 L 447.6 108.8 L 446.9 108.8 L 446.9 103.3 L 447.8 103.3 " fill="#0000FF"/>
<path class="atom-14" d="M 415.7 161.9 L 417.4 164.8 Q 417.6 165.1, 417.9 165.6 Q 418.2 166.1, 418.2 166.2 L 418.2 161.9 L 418.9 161.9 L 418.9 167.4 L 418.2 167.4 L 416.3 164.2 Q 416.0 163.8, 415.8 163.4 Q 415.6 163.0, 415.5 162.9 L 415.5 167.4 L 414.8 167.4 L 414.8 161.9 L 415.7 161.9 " fill="#0000FF"/>
<path class="atom-17" d="M 381.4 124.1 L 383.2 127.0 Q 383.4 127.3, 383.7 127.8 Q 384.0 128.3, 384.0 128.3 L 384.0 124.1 L 384.7 124.1 L 384.7 129.5 L 384.0 129.5 L 382.0 126.4 Q 381.8 126.0, 381.6 125.6 Q 381.3 125.2, 381.3 125.0 L 381.3 129.5 L 380.6 129.5 L 380.6 124.1 L 381.4 124.1 " fill="#0000FF"/>
<path class="atom-21" d="M 382.3 186.5 Q 382.4 186.5, 382.7 186.7 Q 382.9 186.8, 383.2 186.8 Q 383.5 186.9, 383.8 186.9 Q 384.3 186.9, 384.6 186.6 Q 384.9 186.4, 384.9 186.0 Q 384.9 185.7, 384.7 185.5 Q 384.6 185.3, 384.3 185.2 Q 384.1 185.1, 383.7 185.0 Q 383.2 184.8, 382.9 184.7 Q 382.7 184.5, 382.5 184.3 Q 382.3 184.0, 382.3 183.5 Q 382.3 182.8, 382.7 182.4 Q 383.2 181.9, 384.1 181.9 Q 384.7 181.9, 385.5 182.2 L 385.3 182.8 Q 384.6 182.6, 384.1 182.6 Q 383.6 182.6, 383.3 182.8 Q 383.0 183.0, 383.0 183.4 Q 383.0 183.7, 383.2 183.8 Q 383.3 184.0, 383.5 184.1 Q 383.8 184.2, 384.1 184.3 Q 384.6 184.5, 384.9 184.6 Q 385.2 184.8, 385.4 185.1 Q 385.6 185.4, 385.6 186.0 Q 385.6 186.7, 385.1 187.1 Q 384.6 187.5, 383.8 187.5 Q 383.3 187.5, 382.9 187.4 Q 382.6 187.3, 382.1 187.1 L 382.3 186.5 " fill="#CCCC00"/>
<path class="atom-22" d="M 400.7 184.2 Q 400.7 182.9, 401.3 182.2 Q 402.0 181.5, 403.2 181.5 Q 404.4 181.5, 405.0 182.2 Q 405.7 182.9, 405.7 184.2 Q 405.7 185.6, 405.0 186.3 Q 404.4 187.1, 403.2 187.1 Q 402.0 187.1, 401.3 186.3 Q 400.7 185.6, 400.7 184.2 M 403.2 186.5 Q 404.0 186.5, 404.5 185.9 Q 404.9 185.3, 404.9 184.2 Q 404.9 183.2, 404.5 182.6 Q 404.0 182.1, 403.2 182.1 Q 402.3 182.1, 401.9 182.6 Q 401.4 183.2, 401.4 184.2 Q 401.4 185.3, 401.9 185.9 Q 402.3 186.5, 403.2 186.5 " fill="#FF0000"/>
<path class="atom-23" d="M 362.1 185.1 Q 362.1 183.8, 362.8 183.0 Q 363.4 182.3, 364.6 182.3 Q 365.8 182.3, 366.5 183.0 Q 367.1 183.8, 367.1 185.1 Q 367.1 186.4, 366.5 187.2 Q 365.8 187.9, 364.6 187.9 Q 363.4 187.9, 362.8 187.2 Q 362.1 186.4, 362.1 185.1 M 364.6 187.3 Q 365.4 187.3, 365.9 186.7 Q 366.3 186.2, 366.3 185.1 Q 366.3 184.0, 365.9 183.5 Q 365.4 182.9, 364.6 182.9 Q 363.8 182.9, 363.3 183.5 Q 362.9 184.0, 362.9 185.1 Q 362.9 186.2, 363.3 186.7 Q 363.8 187.3, 364.6 187.3 " fill="#FF0000"/>
<path class="atom-28" d="M 549.7 197.6 L 552.9 197.6 L 552.9 198.2 L 550.4 198.2 L 550.4 199.8 L 552.6 199.8 L 552.6 200.5 L 550.4 200.5 L 550.4 203.0 L 549.7 203.0 L 549.7 197.6 " fill="#33CCCC"/>
<path class="atom-29" d="M 523.5 205.2 L 526.7 205.2 L 526.7 205.8 L 524.2 205.8 L 524.2 207.5 L 526.4 207.5 L 526.4 208.1 L 524.2 208.1 L 524.2 210.6 L 523.5 210.6 L 523.5 205.2 " fill="#33CCCC"/>
<path class="atom-30" d="M 542.0 171.4 L 545.3 171.4 L 545.3 172.0 L 542.8 172.0 L 542.8 173.7 L 545.0 173.7 L 545.0 174.3 L 542.8 174.3 L 542.8 176.8 L 542.0 176.8 L 542.0 171.4 " fill="#33CCCC"/>
<path class="atom-31" d="M 420.5 125.2 L 421.3 125.2 L 421.3 127.6 L 424.1 127.6 L 424.1 125.2 L 424.8 125.2 L 424.8 130.7 L 424.1 130.7 L 424.1 128.2 L 421.3 128.2 L 421.3 130.7 L 420.5 130.7 L 420.5 125.2 " fill="#000000"/>
<path class="atom-32" d="M 448.5 180.5 L 449.3 180.5 L 449.3 182.8 L 452.1 182.8 L 452.1 180.5 L 452.8 180.5 L 452.8 185.9 L 452.1 185.9 L 452.1 183.4 L 449.3 183.4 L 449.3 185.9 L 448.5 185.9 L 448.5 180.5 " fill="#000000"/>
<path class="atom-33" d="M 496.7 92.6 L 497.5 92.6 L 497.5 94.9 L 500.3 94.9 L 500.3 92.6 L 501.0 92.6 L 501.0 98.1 L 500.3 98.1 L 500.3 95.5 L 497.5 95.5 L 497.5 98.1 L 496.7 98.1 L 496.7 92.6 " fill="#000000"/>
<path class="atom-34" d="M 462.9 74.1 L 463.7 74.1 L 463.7 76.4 L 466.5 76.4 L 466.5 74.1 L 467.2 74.1 L 467.2 79.5 L 466.5 79.5 L 466.5 77.0 L 463.7 77.0 L 463.7 79.5 L 462.9 79.5 L 462.9 74.1 " fill="#000000"/>
<path class="atom-35" d="M 465.4 189.7 L 466.2 189.7 L 466.2 192.1 L 469.0 192.1 L 469.0 189.7 L 469.7 189.7 L 469.7 195.2 L 469.0 195.2 L 469.0 192.7 L 466.2 192.7 L 466.2 195.2 L 465.4 195.2 L 465.4 189.7 " fill="#000000"/>
<path class="atom-36" d="M 499.3 208.3 L 500.0 208.3 L 500.0 210.6 L 502.8 210.6 L 502.8 208.3 L 503.5 208.3 L 503.5 213.7 L 502.8 213.7 L 502.8 211.2 L 500.0 211.2 L 500.0 213.7 L 499.3 213.7 L 499.3 208.3 " fill="#000000"/>
<path class="atom-37" d="M 497.6 131.2 L 498.3 131.2 L 498.3 133.5 L 501.1 133.5 L 501.1 131.2 L 501.9 131.2 L 501.9 136.6 L 501.1 136.6 L 501.1 134.1 L 498.3 134.1 L 498.3 136.6 L 497.6 136.6 L 497.6 131.2 " fill="#000000"/>
<path class="atom-38" d="M 415.1 181.2 L 415.9 181.2 L 415.9 183.5 L 418.7 183.5 L 418.7 181.2 L 419.4 181.2 L 419.4 186.7 L 418.7 186.7 L 418.7 184.1 L 415.9 184.1 L 415.9 186.7 L 415.1 186.7 L 415.1 181.2 " fill="#000000"/>
<path class="atom-39" d="M 407.3 125.5 L 408.1 125.5 L 408.1 127.8 L 410.9 127.8 L 410.9 125.5 L 411.6 125.5 L 411.6 131.0 L 410.9 131.0 L 410.9 128.5 L 408.1 128.5 L 408.1 131.0 L 407.3 131.0 L 407.3 125.5 " fill="#000000"/>
<path class="atom-40" d="M 347.1 124.8 L 347.8 124.8 L 347.8 127.1 L 350.6 127.1 L 350.6 124.8 L 351.4 124.8 L 351.4 130.3 L 350.6 130.3 L 350.6 127.7 L 347.8 127.7 L 347.8 130.3 L 347.1 130.3 L 347.1 124.8 " fill="#000000"/>
<path class="atom-41" d="M 347.9 163.4 L 348.7 163.4 L 348.7 165.7 L 351.5 165.7 L 351.5 163.4 L 352.2 163.4 L 352.2 168.8 L 351.5 168.8 L 351.5 166.3 L 348.7 166.3 L 348.7 168.8 L 347.9 168.8 L 347.9 163.4 " fill="#000000"/>
<path class="atom-42" d="M 362.9 201.6 L 363.6 201.6 L 363.6 203.9 L 366.4 203.9 L 366.4 201.6 L 367.2 201.6 L 367.2 207.1 L 366.4 207.1 L 366.4 204.6 L 363.6 204.6 L 363.6 207.1 L 362.9 207.1 L 362.9 201.6 " fill="#000000"/>
<path class="atom-43" d="M 401.5 200.8 L 402.2 200.8 L 402.2 203.1 L 405.0 203.1 L 405.0 200.8 L 405.7 200.8 L 405.7 206.2 L 405.0 206.2 L 405.0 203.7 L 402.2 203.7 L 402.2 206.2 L 401.5 206.2 L 401.5 200.8 " fill="#000000"/>
<path class="atom-44" d="M 382.6 220.5 L 383.3 220.5 L 383.3 222.8 L 386.1 222.8 L 386.1 220.5 L 386.9 220.5 L 386.9 225.9 L 386.1 225.9 L 386.1 223.4 L 383.3 223.4 L 383.3 225.9 L 382.6 225.9 L 382.6 220.5 " fill="#000000"/>
<path class="atom-45" d="M 531.4 149.7 L 532.1 149.7 L 532.1 152.0 L 534.9 152.0 L 534.9 149.7 L 535.7 149.7 L 535.7 155.2 L 534.9 155.2 L 534.9 152.7 L 532.1 152.7 L 532.1 155.2 L 531.4 155.2 L 531.4 149.7 " fill="#000000"/>
<text x="300" y="20" font-size="20" font-family="sans-serif" font-weight="normal" letter-spacing="0" text-anchor="middle" fill="black">pfkfb3: 47 -&gt; 46</text><text x="300" y="35" font-size="15" font-family="sans-serif" font-weight="normal" letter-spacing="0" text-anchor="middle" fill="black"></text><text x="150" y="285" font-size="15" font-family="sans-serif" font-weight="normal" letter-spacing="0" text-anchor="middle" fill="black">47</text><text x="450" y="285" font-size="15" font-family="sans-serif" font-weight="normal" letter-spacing="0" text-anchor="middle" fill="black">46</text></svg>
