<?xml version='1.0' encoding='ASCII' standalone='yes'?>
<svg xmlns="http://www.w3.org/2000/svg" xmlns:rdkit="http://www.rdkit.org/xml" xmlns:xlink="http://www.w3.org/1999/xlink" version="1.1" baseProfile="full" xml:space="preserve" width="600px" height="300px" viewBox="0 0 600 300">
<!-- END OF HEADER -->
<rect style="opacity:1.0;fill:#FFFFFF;stroke:none" width="600.0" height="300.0" x="0.0" y="0.0"> </rect>
<path class="bond-0 atom-0 atom-3" d="M 177.0,151.9 L 159.0,163.1" style="fill:none;fill-rule:evenodd;stroke:#000000;stroke-width:2.0px;stroke-linecap:butt;stroke-linejoin:miter;stroke-opacity:1"/>
<path class="bond-0 atom-0 atom-3" d="M 172.0,149.9 L 159.4,157.8" style="fill:none;fill-rule:evenodd;stroke:#000000;stroke-width:2.0px;stroke-linecap:butt;stroke-linejoin:miter;stroke-opacity:1"/>
<path class="bond-1 atom-0 atom-5" d="M 177.0,151.9 L 176.2,130.6" style="fill:none;fill-rule:evenodd;stroke:#000000;stroke-width:2.0px;stroke-linecap:butt;stroke-linejoin:miter;stroke-opacity:1"/>
<path class="bond-2 atom-0 atom-21" d="M 177.0,151.9 L 195.8,161.8" style="fill:none;fill-rule:evenodd;stroke:#000000;stroke-width:2.0px;stroke-linecap:butt;stroke-linejoin:miter;stroke-opacity:1"/>
<path class="bond-3 atom-1 atom-2" d="M 139.4,131.9 L 140.2,153.2" style="fill:none;fill-rule:evenodd;stroke:#000000;stroke-width:2.0px;stroke-linecap:butt;stroke-linejoin:miter;stroke-opacity:1"/>
<path class="bond-3 atom-1 atom-2" d="M 143.8,134.9 L 144.3,149.8" style="fill:none;fill-rule:evenodd;stroke:#000000;stroke-width:2.0px;stroke-linecap:butt;stroke-linejoin:miter;stroke-opacity:1"/>
<path class="bond-4 atom-1 atom-4" d="M 139.4,131.9 L 157.4,120.6" style="fill:none;fill-rule:evenodd;stroke:#000000;stroke-width:2.0px;stroke-linecap:butt;stroke-linejoin:miter;stroke-opacity:1"/>
<path class="bond-5 atom-1 atom-30" d="M 139.4,131.9 L 131.0,126.1" style="fill:none;fill-rule:evenodd;stroke:#000000;stroke-width:2.0px;stroke-linecap:butt;stroke-linejoin:miter;stroke-opacity:1"/>
<path class="bond-6 atom-2 atom-3" d="M 140.2,153.2 L 159.0,163.1" style="fill:none;fill-rule:evenodd;stroke:#000000;stroke-width:2.0px;stroke-linecap:butt;stroke-linejoin:miter;stroke-opacity:1"/>
<path class="bond-7 atom-2 atom-20" d="M 140.2,153.2 L 132.7,157.9" style="fill:none;fill-rule:evenodd;stroke:#000000;stroke-width:2.0px;stroke-linecap:butt;stroke-linejoin:miter;stroke-opacity:1"/>
<path class="bond-7 atom-2 atom-20" d="M 132.7,157.9 L 125.1,162.6" style="fill:none;fill-rule:evenodd;stroke:#0000FF;stroke-width:2.0px;stroke-linecap:butt;stroke-linejoin:miter;stroke-opacity:1"/>
<path class="bond-8 atom-3 atom-31" d="M 159.0,163.1 L 159.6,180.7" style="fill:none;fill-rule:evenodd;stroke:#000000;stroke-width:2.0px;stroke-linecap:butt;stroke-linejoin:miter;stroke-opacity:1"/>
<path class="bond-9 atom-4 atom-5" d="M 157.4,120.6 L 176.2,130.6" style="fill:none;fill-rule:evenodd;stroke:#000000;stroke-width:2.0px;stroke-linecap:butt;stroke-linejoin:miter;stroke-opacity:1"/>
<path class="bond-9 atom-4 atom-5" d="M 158.3,125.9 L 171.4,132.9" style="fill:none;fill-rule:evenodd;stroke:#000000;stroke-width:2.0px;stroke-linecap:butt;stroke-linejoin:miter;stroke-opacity:1"/>
<path class="bond-10 atom-4 atom-9" d="M 157.4,120.6 L 157.1,111.9" style="fill:none;fill-rule:evenodd;stroke:#000000;stroke-width:2.0px;stroke-linecap:butt;stroke-linejoin:miter;stroke-opacity:1"/>
<path class="bond-10 atom-4 atom-9" d="M 157.1,111.9 L 156.8,103.1" style="fill:none;fill-rule:evenodd;stroke:#0000FF;stroke-width:2.0px;stroke-linecap:butt;stroke-linejoin:miter;stroke-opacity:1"/>
<path class="bond-11 atom-5 atom-6" d="M 176.2,130.6 L 183.8,125.9" style="fill:none;fill-rule:evenodd;stroke:#000000;stroke-width:2.0px;stroke-linecap:butt;stroke-linejoin:miter;stroke-opacity:1"/>
<path class="bond-11 atom-5 atom-6" d="M 183.8,125.9 L 191.3,121.2" style="fill:none;fill-rule:evenodd;stroke:#0000FF;stroke-width:2.0px;stroke-linecap:butt;stroke-linejoin:miter;stroke-opacity:1"/>
<path class="bond-12 atom-6 atom-7" d="M 194.1,115.6 L 193.8,106.8" style="fill:none;fill-rule:evenodd;stroke:#0000FF;stroke-width:2.0px;stroke-linecap:butt;stroke-linejoin:miter;stroke-opacity:1"/>
<path class="bond-12 atom-6 atom-7" d="M 193.8,106.8 L 193.5,98.1" style="fill:none;fill-rule:evenodd;stroke:#000000;stroke-width:2.0px;stroke-linecap:butt;stroke-linejoin:miter;stroke-opacity:1"/>
<path class="bond-12 atom-6 atom-7" d="M 189.8,113.1 L 189.6,107.0" style="fill:none;fill-rule:evenodd;stroke:#0000FF;stroke-width:2.0px;stroke-linecap:butt;stroke-linejoin:miter;stroke-opacity:1"/>
<path class="bond-12 atom-6 atom-7" d="M 189.6,107.0 L 189.3,100.8" style="fill:none;fill-rule:evenodd;stroke:#000000;stroke-width:2.0px;stroke-linecap:butt;stroke-linejoin:miter;stroke-opacity:1"/>
<path class="bond-13 atom-7 atom-8" d="M 193.5,98.1 L 174.7,88.1" style="fill:none;fill-rule:evenodd;stroke:#000000;stroke-width:2.0px;stroke-linecap:butt;stroke-linejoin:miter;stroke-opacity:1"/>
<path class="bond-14 atom-7 atom-32" d="M 193.5,98.1 L 208.5,88.7" style="fill:none;fill-rule:evenodd;stroke:#000000;stroke-width:2.0px;stroke-linecap:butt;stroke-linejoin:miter;stroke-opacity:1"/>
<path class="bond-15 atom-8 atom-9" d="M 174.7,88.1 L 167.2,92.8" style="fill:none;fill-rule:evenodd;stroke:#000000;stroke-width:2.0px;stroke-linecap:butt;stroke-linejoin:miter;stroke-opacity:1"/>
<path class="bond-15 atom-8 atom-9" d="M 167.2,92.8 L 159.7,97.5" style="fill:none;fill-rule:evenodd;stroke:#0000FF;stroke-width:2.0px;stroke-linecap:butt;stroke-linejoin:miter;stroke-opacity:1"/>
<path class="bond-15 atom-8 atom-9" d="M 174.7,93.1 L 169.4,96.4" style="fill:none;fill-rule:evenodd;stroke:#000000;stroke-width:2.0px;stroke-linecap:butt;stroke-linejoin:miter;stroke-opacity:1"/>
<path class="bond-15 atom-8 atom-9" d="M 169.4,96.4 L 164.2,99.7" style="fill:none;fill-rule:evenodd;stroke:#0000FF;stroke-width:2.0px;stroke-linecap:butt;stroke-linejoin:miter;stroke-opacity:1"/>
<path class="bond-16 atom-8 atom-33" d="M 174.7,88.1 L 174.1,70.5" style="fill:none;fill-rule:evenodd;stroke:#000000;stroke-width:2.0px;stroke-linecap:butt;stroke-linejoin:miter;stroke-opacity:1"/>
<path class="bond-17 atom-10 atom-11" d="M 103.4,154.5 L 102.6,133.2" style="fill:none;fill-rule:evenodd;stroke:#000000;stroke-width:2.0px;stroke-linecap:butt;stroke-linejoin:miter;stroke-opacity:1"/>
<path class="bond-17 atom-10 atom-11" d="M 99.0,151.4 L 98.5,136.6" style="fill:none;fill-rule:evenodd;stroke:#000000;stroke-width:2.0px;stroke-linecap:butt;stroke-linejoin:miter;stroke-opacity:1"/>
<path class="bond-18 atom-10 atom-15" d="M 103.4,154.5 L 85.3,165.8" style="fill:none;fill-rule:evenodd;stroke:#000000;stroke-width:2.0px;stroke-linecap:butt;stroke-linejoin:miter;stroke-opacity:1"/>
<path class="bond-19 atom-10 atom-20" d="M 103.4,154.5 L 111.3,158.7" style="fill:none;fill-rule:evenodd;stroke:#000000;stroke-width:2.0px;stroke-linecap:butt;stroke-linejoin:miter;stroke-opacity:1"/>
<path class="bond-19 atom-10 atom-20" d="M 111.3,158.7 L 119.2,162.9" style="fill:none;fill-rule:evenodd;stroke:#0000FF;stroke-width:2.0px;stroke-linecap:butt;stroke-linejoin:miter;stroke-opacity:1"/>
<path class="bond-20 atom-11 atom-12" d="M 102.6,133.2 L 94.7,129.0" style="fill:none;fill-rule:evenodd;stroke:#000000;stroke-width:2.0px;stroke-linecap:butt;stroke-linejoin:miter;stroke-opacity:1"/>
<path class="bond-20 atom-11 atom-12" d="M 94.7,129.0 L 86.8,124.8" style="fill:none;fill-rule:evenodd;stroke:#0000FF;stroke-width:2.0px;stroke-linecap:butt;stroke-linejoin:miter;stroke-opacity:1"/>
<path class="bond-21 atom-11 atom-34" d="M 102.6,133.2 L 110.4,126.9" style="fill:none;fill-rule:evenodd;stroke:#000000;stroke-width:2.0px;stroke-linecap:butt;stroke-linejoin:miter;stroke-opacity:1"/>
<path class="bond-22 atom-12 atom-13" d="M 80.8,125.1 L 73.3,129.8" style="fill:none;fill-rule:evenodd;stroke:#0000FF;stroke-width:2.0px;stroke-linecap:butt;stroke-linejoin:miter;stroke-opacity:1"/>
<path class="bond-22 atom-12 atom-13" d="M 73.3,129.8 L 65.8,134.5" style="fill:none;fill-rule:evenodd;stroke:#000000;stroke-width:2.0px;stroke-linecap:butt;stroke-linejoin:miter;stroke-opacity:1"/>
<path class="bond-22 atom-12 atom-13" d="M 80.8,130.1 L 75.6,133.4" style="fill:none;fill-rule:evenodd;stroke:#0000FF;stroke-width:2.0px;stroke-linecap:butt;stroke-linejoin:miter;stroke-opacity:1"/>
<path class="bond-22 atom-12 atom-13" d="M 75.6,133.4 L 70.3,136.7" style="fill:none;fill-rule:evenodd;stroke:#000000;stroke-width:2.0px;stroke-linecap:butt;stroke-linejoin:miter;stroke-opacity:1"/>
<path class="bond-23 atom-13 atom-14" d="M 65.8,134.5 L 66.6,155.8" style="fill:none;fill-rule:evenodd;stroke:#000000;stroke-width:2.0px;stroke-linecap:butt;stroke-linejoin:miter;stroke-opacity:1"/>
<path class="bond-24 atom-13 atom-35" d="M 65.8,134.5 L 50.1,126.2" style="fill:none;fill-rule:evenodd;stroke:#000000;stroke-width:2.0px;stroke-linecap:butt;stroke-linejoin:miter;stroke-opacity:1"/>
<path class="bond-25 atom-14 atom-15" d="M 66.6,155.8 L 85.3,165.8" style="fill:none;fill-rule:evenodd;stroke:#000000;stroke-width:2.0px;stroke-linecap:butt;stroke-linejoin:miter;stroke-opacity:1"/>
<path class="bond-25 atom-14 atom-15" d="M 71.4,153.5 L 84.5,160.5" style="fill:none;fill-rule:evenodd;stroke:#000000;stroke-width:2.0px;stroke-linecap:butt;stroke-linejoin:miter;stroke-opacity:1"/>
<path class="bond-26 atom-14 atom-36" d="M 66.6,155.8 L 51.6,165.2" style="fill:none;fill-rule:evenodd;stroke:#000000;stroke-width:2.0px;stroke-linecap:butt;stroke-linejoin:miter;stroke-opacity:1"/>
<path class="bond-27 atom-15 atom-16" d="M 85.3,165.8 L 85.7,174.5" style="fill:none;fill-rule:evenodd;stroke:#000000;stroke-width:2.0px;stroke-linecap:butt;stroke-linejoin:miter;stroke-opacity:1"/>
<path class="bond-27 atom-15 atom-16" d="M 85.7,174.5 L 86.0,183.3" style="fill:none;fill-rule:evenodd;stroke:#CCCC00;stroke-width:2.0px;stroke-linecap:butt;stroke-linejoin:miter;stroke-opacity:1"/>
<path class="bond-28 atom-16 atom-17" d="M 88.6,184.8 L 96.2,184.5" style="fill:none;fill-rule:evenodd;stroke:#CCCC00;stroke-width:2.0px;stroke-linecap:butt;stroke-linejoin:miter;stroke-opacity:1"/>
<path class="bond-28 atom-16 atom-17" d="M 96.2,184.5 L 103.8,184.3" style="fill:none;fill-rule:evenodd;stroke:#FF0000;stroke-width:2.0px;stroke-linecap:butt;stroke-linejoin:miter;stroke-opacity:1"/>
<path class="bond-28 atom-16 atom-17" d="M 88.8,189.1 L 96.4,188.8" style="fill:none;fill-rule:evenodd;stroke:#CCCC00;stroke-width:2.0px;stroke-linecap:butt;stroke-linejoin:miter;stroke-opacity:1"/>
<path class="bond-28 atom-16 atom-17" d="M 96.4,188.8 L 104.0,188.5" style="fill:none;fill-rule:evenodd;stroke:#FF0000;stroke-width:2.0px;stroke-linecap:butt;stroke-linejoin:miter;stroke-opacity:1"/>
<path class="bond-29 atom-16 atom-18" d="M 86.2,190.9 L 86.6,199.6" style="fill:none;fill-rule:evenodd;stroke:#CCCC00;stroke-width:2.0px;stroke-linecap:butt;stroke-linejoin:miter;stroke-opacity:1"/>
<path class="bond-29 atom-16 atom-18" d="M 86.6,199.6 L 86.9,208.3" style="fill:none;fill-rule:evenodd;stroke:#000000;stroke-width:2.0px;stroke-linecap:butt;stroke-linejoin:miter;stroke-opacity:1"/>
<path class="bond-30 atom-16 atom-19" d="M 83.6,189.2 L 76.0,189.5" style="fill:none;fill-rule:evenodd;stroke:#CCCC00;stroke-width:2.0px;stroke-linecap:butt;stroke-linejoin:miter;stroke-opacity:1"/>
<path class="bond-30 atom-16 atom-19" d="M 76.0,189.5 L 68.4,189.8" style="fill:none;fill-rule:evenodd;stroke:#FF0000;stroke-width:2.0px;stroke-linecap:butt;stroke-linejoin:miter;stroke-opacity:1"/>
<path class="bond-30 atom-16 atom-19" d="M 83.4,185.0 L 75.8,185.3" style="fill:none;fill-rule:evenodd;stroke:#CCCC00;stroke-width:2.0px;stroke-linecap:butt;stroke-linejoin:miter;stroke-opacity:1"/>
<path class="bond-30 atom-16 atom-19" d="M 75.8,185.3 L 68.2,185.5" style="fill:none;fill-rule:evenodd;stroke:#FF0000;stroke-width:2.0px;stroke-linecap:butt;stroke-linejoin:miter;stroke-opacity:1"/>
<path class="bond-31 atom-18 atom-37" d="M 86.9,208.3 L 68.7,208.9" style="fill:none;fill-rule:evenodd;stroke:#000000;stroke-width:2.0px;stroke-linecap:butt;stroke-linejoin:miter;stroke-opacity:1"/>
<path class="bond-32 atom-18 atom-38" d="M 86.9,208.3 L 105.1,207.6" style="fill:none;fill-rule:evenodd;stroke:#000000;stroke-width:2.0px;stroke-linecap:butt;stroke-linejoin:miter;stroke-opacity:1"/>
<path class="bond-33 atom-18 atom-39" d="M 86.9,208.3 L 87.5,225.8" style="fill:none;fill-rule:evenodd;stroke:#000000;stroke-width:2.0px;stroke-linecap:butt;stroke-linejoin:miter;stroke-opacity:1"/>
<path class="bond-34 atom-20 atom-40" d="M 122.3,168.2 L 122.5,175.1" style="fill:none;fill-rule:evenodd;stroke:#0000FF;stroke-width:2.0px;stroke-linecap:butt;stroke-linejoin:miter;stroke-opacity:1"/>
<path class="bond-34 atom-20 atom-40" d="M 122.5,175.1 L 122.8,182.0" style="fill:none;fill-rule:evenodd;stroke:#000000;stroke-width:2.0px;stroke-linecap:butt;stroke-linejoin:miter;stroke-opacity:1"/>
<path class="bond-35 atom-21 atom-22" d="M 195.8,161.8 L 213.8,150.5" style="fill:none;fill-rule:evenodd;stroke:#000000;stroke-width:2.0px;stroke-linecap:butt;stroke-linejoin:miter;stroke-opacity:1"/>
<path class="bond-35 atom-21 atom-22" d="M 200.7,163.7 L 213.4,155.8" style="fill:none;fill-rule:evenodd;stroke:#000000;stroke-width:2.0px;stroke-linecap:butt;stroke-linejoin:miter;stroke-opacity:1"/>
<path class="bond-36 atom-21 atom-24" d="M 195.8,161.8 L 196.5,183.1" style="fill:none;fill-rule:evenodd;stroke:#000000;stroke-width:2.0px;stroke-linecap:butt;stroke-linejoin:miter;stroke-opacity:1"/>
<path class="bond-37 atom-22 atom-23" d="M 213.8,150.5 L 232.6,160.5" style="fill:none;fill-rule:evenodd;stroke:#000000;stroke-width:2.0px;stroke-linecap:butt;stroke-linejoin:miter;stroke-opacity:1"/>
<path class="bond-38 atom-22 atom-41" d="M 213.8,150.5 L 213.2,133.0" style="fill:none;fill-rule:evenodd;stroke:#000000;stroke-width:2.0px;stroke-linecap:butt;stroke-linejoin:miter;stroke-opacity:1"/>
<path class="bond-39 atom-23 atom-26" d="M 232.6,160.5 L 233.4,181.8" style="fill:none;fill-rule:evenodd;stroke:#000000;stroke-width:2.0px;stroke-linecap:butt;stroke-linejoin:miter;stroke-opacity:1"/>
<path class="bond-39 atom-23 atom-26" d="M 228.5,163.8 L 229.0,178.7" style="fill:none;fill-rule:evenodd;stroke:#000000;stroke-width:2.0px;stroke-linecap:butt;stroke-linejoin:miter;stroke-opacity:1"/>
<path class="bond-40 atom-23 atom-42" d="M 232.6,160.5 L 247.6,151.1" style="fill:none;fill-rule:evenodd;stroke:#000000;stroke-width:2.0px;stroke-linecap:butt;stroke-linejoin:miter;stroke-opacity:1"/>
<path class="bond-41 atom-24 atom-25" d="M 196.5,183.1 L 215.3,193.0" style="fill:none;fill-rule:evenodd;stroke:#000000;stroke-width:2.0px;stroke-linecap:butt;stroke-linejoin:miter;stroke-opacity:1"/>
<path class="bond-41 atom-24 atom-25" d="M 201.4,180.8 L 214.5,187.8" style="fill:none;fill-rule:evenodd;stroke:#000000;stroke-width:2.0px;stroke-linecap:butt;stroke-linejoin:miter;stroke-opacity:1"/>
<path class="bond-42 atom-24 atom-43" d="M 196.5,183.1 L 181.6,192.5" style="fill:none;fill-rule:evenodd;stroke:#000000;stroke-width:2.0px;stroke-linecap:butt;stroke-linejoin:miter;stroke-opacity:1"/>
<path class="bond-43 atom-25 atom-26" d="M 215.3,193.0 L 233.4,181.8" style="fill:none;fill-rule:evenodd;stroke:#000000;stroke-width:2.0px;stroke-linecap:butt;stroke-linejoin:miter;stroke-opacity:1"/>
<path class="bond-44 atom-25 atom-29" d="M 215.3,193.0 L 217.4,201.5" style="fill:none;fill-rule:evenodd;stroke:#000000;stroke-width:2.0px;stroke-linecap:butt;stroke-linejoin:miter;stroke-opacity:1"/>
<path class="bond-44 atom-25 atom-29" d="M 217.4,201.5 L 219.6,210.0" style="fill:none;fill-rule:evenodd;stroke:#0000FF;stroke-width:2.0px;stroke-linecap:butt;stroke-linejoin:miter;stroke-opacity:1"/>
<path class="bond-45 atom-26 atom-27" d="M 233.4,181.8 L 240.2,187.5" style="fill:none;fill-rule:evenodd;stroke:#000000;stroke-width:2.0px;stroke-linecap:butt;stroke-linejoin:miter;stroke-opacity:1"/>
<path class="bond-45 atom-26 atom-27" d="M 240.2,187.5 L 247.0,193.2" style="fill:none;fill-rule:evenodd;stroke:#CCCC00;stroke-width:2.0px;stroke-linecap:butt;stroke-linejoin:miter;stroke-opacity:1"/>
<path class="bond-46 atom-27 atom-28" d="M 248.1,199.3 L 244.9,207.2" style="fill:none;fill-rule:evenodd;stroke:#CCCC00;stroke-width:2.0px;stroke-linecap:butt;stroke-linejoin:miter;stroke-opacity:1"/>
<path class="bond-46 atom-27 atom-28" d="M 244.9,207.2 L 241.7,215.1" style="fill:none;fill-rule:evenodd;stroke:#000000;stroke-width:2.0px;stroke-linecap:butt;stroke-linejoin:miter;stroke-opacity:1"/>
<path class="bond-47 atom-28 atom-29" d="M 241.7,215.1 L 232.6,214.5" style="fill:none;fill-rule:evenodd;stroke:#000000;stroke-width:2.0px;stroke-linecap:butt;stroke-linejoin:miter;stroke-opacity:1"/>
<path class="bond-47 atom-28 atom-29" d="M 232.6,214.5 L 223.5,213.9" style="fill:none;fill-rule:evenodd;stroke:#0000FF;stroke-width:2.0px;stroke-linecap:butt;stroke-linejoin:miter;stroke-opacity:1"/>
<path class="bond-47 atom-28 atom-29" d="M 239.3,210.7 L 232.9,210.3" style="fill:none;fill-rule:evenodd;stroke:#000000;stroke-width:2.0px;stroke-linecap:butt;stroke-linejoin:miter;stroke-opacity:1"/>
<path class="bond-47 atom-28 atom-29" d="M 232.9,210.3 L 226.5,209.8" style="fill:none;fill-rule:evenodd;stroke:#0000FF;stroke-width:2.0px;stroke-linecap:butt;stroke-linejoin:miter;stroke-opacity:1"/>
<path class="bond-48 atom-28 atom-44" d="M 241.7,215.1 L 250.7,229.5" style="fill:none;fill-rule:evenodd;stroke:#000000;stroke-width:2.0px;stroke-linecap:butt;stroke-linejoin:miter;stroke-opacity:1"/>
<path class="atom-6" d="M 192.9 116.3 L 194.9 119.5 Q 195.1 119.8, 195.4 120.4 Q 195.7 120.9, 195.7 121.0 L 195.7 116.3 L 196.5 116.3 L 196.5 122.3 L 195.7 122.3 L 193.6 118.8 Q 193.4 118.4, 193.1 118.0 Q 192.8 117.5, 192.8 117.3 L 192.8 122.3 L 192.0 122.3 L 192.0 116.3 L 192.9 116.3 " fill="#0000FF"/>
<path class="atom-9" d="M 155.4 96.4 L 157.3 99.6 Q 157.5 99.9, 157.8 100.4 Q 158.2 101.0, 158.2 101.0 L 158.2 96.4 L 159.0 96.4 L 159.0 102.4 L 158.1 102.4 L 156.0 98.9 Q 155.8 98.5, 155.5 98.0 Q 155.3 97.6, 155.2 97.4 L 155.2 102.4 L 154.4 102.4 L 154.4 96.4 L 155.4 96.4 " fill="#0000FF"/>
<path class="atom-12" d="M 82.5 120.3 L 84.5 123.4 Q 84.7 123.8, 85.0 124.3 Q 85.3 124.9, 85.3 124.9 L 85.3 120.3 L 86.1 120.3 L 86.1 126.3 L 85.3 126.3 L 83.2 122.8 Q 82.9 122.4, 82.7 121.9 Q 82.4 121.4, 82.3 121.3 L 82.3 126.3 L 81.5 126.3 L 81.5 120.3 L 82.5 120.3 " fill="#0000FF"/>
<path class="atom-16" d="M 84.4 189.1 Q 84.5 189.1, 84.7 189.2 Q 85.0 189.4, 85.3 189.4 Q 85.7 189.5, 86.0 189.5 Q 86.5 189.5, 86.9 189.2 Q 87.2 188.9, 87.2 188.5 Q 87.2 188.1, 87.0 187.9 Q 86.9 187.7, 86.6 187.6 Q 86.3 187.5, 85.9 187.4 Q 85.4 187.2, 85.1 187.1 Q 84.7 186.9, 84.5 186.6 Q 84.3 186.3, 84.3 185.7 Q 84.3 185.0, 84.8 184.5 Q 85.3 184.0, 86.3 184.0 Q 87.0 184.0, 87.8 184.4 L 87.6 185.0 Q 86.9 184.7, 86.4 184.7 Q 85.8 184.7, 85.5 185.0 Q 85.1 185.2, 85.1 185.6 Q 85.1 185.9, 85.3 186.1 Q 85.5 186.3, 85.7 186.4 Q 86.0 186.5, 86.4 186.7 Q 86.9 186.8, 87.2 187.0 Q 87.6 187.2, 87.8 187.5 Q 88.0 187.9, 88.0 188.5 Q 88.0 189.3, 87.5 189.7 Q 86.9 190.2, 86.0 190.2 Q 85.5 190.2, 85.0 190.1 Q 84.6 190.0, 84.2 189.8 L 84.4 189.1 " fill="#CCCC00"/>
<path class="atom-17" d="M 104.6 186.3 Q 104.6 184.8, 105.3 184.0 Q 106.0 183.2, 107.4 183.2 Q 108.7 183.2, 109.4 184.0 Q 110.1 184.8, 110.1 186.3 Q 110.1 187.7, 109.4 188.6 Q 108.7 189.4, 107.4 189.4 Q 106.0 189.4, 105.3 188.6 Q 104.6 187.8, 104.6 186.3 M 107.4 188.7 Q 108.3 188.7, 108.8 188.1 Q 109.3 187.5, 109.3 186.3 Q 109.3 185.1, 108.8 184.5 Q 108.3 183.9, 107.4 183.9 Q 106.4 183.9, 105.9 184.5 Q 105.4 185.1, 105.4 186.3 Q 105.4 187.5, 105.9 188.1 Q 106.4 188.7, 107.4 188.7 " fill="#FF0000"/>
<path class="atom-19" d="M 62.1 187.8 Q 62.1 186.4, 62.8 185.5 Q 63.5 184.7, 64.8 184.7 Q 66.2 184.7, 66.9 185.5 Q 67.6 186.4, 67.6 187.8 Q 67.6 189.3, 66.9 190.1 Q 66.2 190.9, 64.8 190.9 Q 63.5 190.9, 62.8 190.1 Q 62.1 189.3, 62.1 187.8 M 64.8 190.2 Q 65.8 190.2, 66.3 189.6 Q 66.8 189.0, 66.8 187.8 Q 66.8 186.6, 66.3 186.0 Q 65.8 185.4, 64.8 185.4 Q 63.9 185.4, 63.4 186.0 Q 62.9 186.6, 62.9 187.8 Q 62.9 189.0, 63.4 189.6 Q 63.9 190.2, 64.8 190.2 " fill="#FF0000"/>
<path class="atom-20" d="M 120.8 161.4 L 122.8 164.6 Q 123.0 164.9, 123.3 165.5 Q 123.6 166.1, 123.6 166.1 L 123.6 161.4 L 124.4 161.4 L 124.4 167.5 L 123.6 167.5 L 121.5 164.0 Q 121.2 163.6, 121.0 163.1 Q 120.7 162.6, 120.7 162.5 L 120.7 167.5 L 119.9 167.5 L 119.9 161.4 L 120.8 161.4 " fill="#0000FF"/>
<path class="atom-27" d="M 248.0 197.5 Q 248.0 197.5, 248.3 197.6 Q 248.6 197.7, 248.9 197.8 Q 249.2 197.9, 249.5 197.9 Q 250.1 197.9, 250.4 197.6 Q 250.7 197.3, 250.7 196.9 Q 250.7 196.5, 250.6 196.3 Q 250.4 196.1, 250.2 196.0 Q 249.9 195.9, 249.5 195.8 Q 248.9 195.6, 248.6 195.4 Q 248.3 195.3, 248.1 195.0 Q 247.9 194.6, 247.9 194.1 Q 247.9 193.3, 248.4 192.9 Q 248.9 192.4, 249.9 192.4 Q 250.6 192.4, 251.4 192.7 L 251.2 193.4 Q 250.5 193.1, 249.9 193.1 Q 249.3 193.1, 249.0 193.3 Q 248.7 193.6, 248.7 194.0 Q 248.7 194.3, 248.9 194.5 Q 249.0 194.7, 249.3 194.8 Q 249.5 194.9, 249.9 195.1 Q 250.5 195.2, 250.8 195.4 Q 251.1 195.6, 251.3 195.9 Q 251.6 196.3, 251.6 196.9 Q 251.6 197.7, 251.0 198.1 Q 250.5 198.6, 249.5 198.6 Q 249.0 198.6, 248.6 198.5 Q 248.2 198.3, 247.7 198.2 L 248.0 197.5 " fill="#CCCC00"/>
<path class="atom-29" d="M 219.2 210.7 L 221.1 213.9 Q 221.3 214.2, 221.6 214.7 Q 222.0 215.3, 222.0 215.3 L 222.0 210.7 L 222.8 210.7 L 222.8 216.7 L 221.9 216.7 L 219.8 213.2 Q 219.6 212.8, 219.3 212.3 Q 219.1 211.9, 219.0 211.7 L 219.0 216.7 L 218.2 216.7 L 218.2 210.7 L 219.2 210.7 " fill="#0000FF"/>
<path class="atom-30" d="M 125.6 120.9 L 126.4 120.9 L 126.4 123.5 L 129.5 123.5 L 129.5 120.9 L 130.3 120.9 L 130.3 126.9 L 129.5 126.9 L 129.5 124.1 L 126.4 124.1 L 126.4 126.9 L 125.6 126.9 L 125.6 120.9 " fill="#000000"/>
<path class="atom-31" d="M 157.4 181.4 L 158.2 181.4 L 158.2 183.9 L 161.3 183.9 L 161.3 181.4 L 162.1 181.4 L 162.1 187.4 L 161.3 187.4 L 161.3 184.6 L 158.2 184.6 L 158.2 187.4 L 157.4 187.4 L 157.4 181.4 " fill="#000000"/>
<path class="atom-32" d="M 209.2 83.8 L 210.0 83.8 L 210.0 86.3 L 213.1 86.3 L 213.1 83.8 L 213.9 83.8 L 213.9 89.8 L 213.1 89.8 L 213.1 87.0 L 210.0 87.0 L 210.0 89.8 L 209.2 89.8 L 209.2 83.8 " fill="#000000"/>
<path class="atom-33" d="M 171.6 63.8 L 172.4 63.8 L 172.4 66.4 L 175.5 66.4 L 175.5 63.8 L 176.3 63.8 L 176.3 69.8 L 175.5 69.8 L 175.5 67.1 L 172.4 67.1 L 172.4 69.8 L 171.6 69.8 L 171.6 63.8 " fill="#000000"/>
<path class="atom-34" d="M 111.1 121.4 L 111.9 121.4 L 111.9 124.0 L 115.0 124.0 L 115.0 121.4 L 115.8 121.4 L 115.8 127.5 L 115.0 127.5 L 115.0 124.7 L 111.9 124.7 L 111.9 127.5 L 111.1 127.5 L 111.1 121.4 " fill="#000000"/>
<path class="atom-35" d="M 44.7 121.6 L 45.5 121.6 L 45.5 124.1 L 48.5 124.1 L 48.5 121.6 L 49.4 121.6 L 49.4 127.6 L 48.5 127.6 L 48.5 124.8 L 45.5 124.8 L 45.5 127.6 L 44.7 127.6 L 44.7 121.6 " fill="#000000"/>
<path class="atom-36" d="M 46.2 164.1 L 47.0 164.1 L 47.0 166.6 L 50.1 166.6 L 50.1 164.1 L 50.9 164.1 L 50.9 170.1 L 50.1 170.1 L 50.1 167.3 L 47.0 167.3 L 47.0 170.1 L 46.2 170.1 L 46.2 164.1 " fill="#000000"/>
<path class="atom-37" d="M 63.3 206.0 L 64.1 206.0 L 64.1 208.6 L 67.1 208.6 L 67.1 206.0 L 68.0 206.0 L 68.0 212.0 L 67.1 212.0 L 67.1 209.3 L 64.1 209.3 L 64.1 212.0 L 63.3 212.0 L 63.3 206.0 " fill="#000000"/>
<path class="atom-38" d="M 105.8 204.5 L 106.6 204.5 L 106.6 207.1 L 109.7 207.1 L 109.7 204.5 L 110.5 204.5 L 110.5 210.5 L 109.7 210.5 L 109.7 207.7 L 106.6 207.7 L 106.6 210.5 L 105.8 210.5 L 105.8 204.5 " fill="#000000"/>
<path class="atom-39" d="M 85.3 226.5 L 86.1 226.5 L 86.1 229.1 L 89.2 229.1 L 89.2 226.5 L 90.0 226.5 L 90.0 232.5 L 89.2 232.5 L 89.2 229.8 L 86.1 229.8 L 86.1 232.5 L 85.3 232.5 L 85.3 226.5 " fill="#000000"/>
<path class="atom-40" d="M 120.6 182.7 L 121.4 182.7 L 121.4 185.3 L 124.5 185.3 L 124.5 182.7 L 125.3 182.7 L 125.3 188.7 L 124.5 188.7 L 124.5 185.9 L 121.4 185.9 L 121.4 188.7 L 120.6 188.7 L 120.6 182.7 " fill="#000000"/>
<path class="atom-41" d="M 210.7 126.3 L 211.5 126.3 L 211.5 128.8 L 214.6 128.8 L 214.6 126.3 L 215.4 126.3 L 215.4 132.3 L 214.6 132.3 L 214.6 129.5 L 211.5 129.5 L 211.5 132.3 L 210.7 132.3 L 210.7 126.3 " fill="#000000"/>
<path class="atom-42" d="M 248.3 146.2 L 249.1 146.2 L 249.1 148.8 L 252.2 148.8 L 252.2 146.2 L 253.0 146.2 L 253.0 152.2 L 252.2 152.2 L 252.2 149.4 L 249.1 149.4 L 249.1 152.2 L 248.3 152.2 L 248.3 146.2 " fill="#000000"/>
<path class="atom-43" d="M 176.2 191.3 L 177.0 191.3 L 177.0 193.9 L 180.1 193.9 L 180.1 191.3 L 180.9 191.3 L 180.9 197.4 L 180.1 197.4 L 180.1 194.6 L 177.0 194.6 L 177.0 197.4 L 176.2 197.4 L 176.2 191.3 " fill="#000000"/>
<path class="atom-44" d="M 250.6 230.2 L 251.5 230.2 L 251.5 232.7 L 254.5 232.7 L 254.5 230.2 L 255.3 230.2 L 255.3 236.2 L 254.5 236.2 L 254.5 233.4 L 251.5 233.4 L 251.5 236.2 L 250.6 236.2 L 250.6 230.2 " fill="#000000"/>
<path class="bond-0 atom-0 atom-1" d="M 433.1,130.3 L 429.5,151.3" style="fill:none;fill-rule:evenodd;stroke:#000000;stroke-width:2.0px;stroke-linecap:butt;stroke-linejoin:miter;stroke-opacity:1"/>
<path class="bond-0 atom-0 atom-1" d="M 436.7,134.2 L 434.3,148.9" style="fill:none;fill-rule:evenodd;stroke:#000000;stroke-width:2.0px;stroke-linecap:butt;stroke-linejoin:miter;stroke-opacity:1"/>
<path class="bond-1 atom-0 atom-4" d="M 433.1,130.3 L 453.0,122.9" style="fill:none;fill-rule:evenodd;stroke:#000000;stroke-width:2.0px;stroke-linecap:butt;stroke-linejoin:miter;stroke-opacity:1"/>
<path class="bond-2 atom-0 atom-29" d="M 433.1,130.3 L 426.5,123.4" style="fill:none;fill-rule:evenodd;stroke:#000000;stroke-width:2.0px;stroke-linecap:butt;stroke-linejoin:miter;stroke-opacity:1"/>
<path class="bond-3 atom-1 atom-2" d="M 429.5,151.3 L 445.9,164.9" style="fill:none;fill-rule:evenodd;stroke:#000000;stroke-width:2.0px;stroke-linecap:butt;stroke-linejoin:miter;stroke-opacity:1"/>
<path class="bond-4 atom-1 atom-10" d="M 429.5,151.3 L 421.1,154.5" style="fill:none;fill-rule:evenodd;stroke:#000000;stroke-width:2.0px;stroke-linecap:butt;stroke-linejoin:miter;stroke-opacity:1"/>
<path class="bond-4 atom-1 atom-10" d="M 421.1,154.5 L 412.6,157.6" style="fill:none;fill-rule:evenodd;stroke:#0000FF;stroke-width:2.0px;stroke-linecap:butt;stroke-linejoin:miter;stroke-opacity:1"/>
<path class="bond-5 atom-2 atom-3" d="M 445.9,164.9 L 465.9,157.4" style="fill:none;fill-rule:evenodd;stroke:#000000;stroke-width:2.0px;stroke-linecap:butt;stroke-linejoin:miter;stroke-opacity:1"/>
<path class="bond-5 atom-2 atom-3" d="M 447.4,159.8 L 461.4,154.6" style="fill:none;fill-rule:evenodd;stroke:#000000;stroke-width:2.0px;stroke-linecap:butt;stroke-linejoin:miter;stroke-opacity:1"/>
<path class="bond-6 atom-2 atom-30" d="M 445.9,164.9 L 443.0,182.1" style="fill:none;fill-rule:evenodd;stroke:#000000;stroke-width:2.0px;stroke-linecap:butt;stroke-linejoin:miter;stroke-opacity:1"/>
<path class="bond-7 atom-3 atom-5" d="M 465.9,157.4 L 469.4,136.5" style="fill:none;fill-rule:evenodd;stroke:#000000;stroke-width:2.0px;stroke-linecap:butt;stroke-linejoin:miter;stroke-opacity:1"/>
<path class="bond-8 atom-3 atom-21" d="M 465.9,157.4 L 482.3,171.0" style="fill:none;fill-rule:evenodd;stroke:#000000;stroke-width:2.0px;stroke-linecap:butt;stroke-linejoin:miter;stroke-opacity:1"/>
<path class="bond-9 atom-4 atom-5" d="M 453.0,122.9 L 469.4,136.5" style="fill:none;fill-rule:evenodd;stroke:#000000;stroke-width:2.0px;stroke-linecap:butt;stroke-linejoin:miter;stroke-opacity:1"/>
<path class="bond-9 atom-4 atom-5" d="M 452.8,128.2 L 464.2,137.7" style="fill:none;fill-rule:evenodd;stroke:#000000;stroke-width:2.0px;stroke-linecap:butt;stroke-linejoin:miter;stroke-opacity:1"/>
<path class="bond-10 atom-4 atom-9" d="M 453.0,122.9 L 454.5,114.3" style="fill:none;fill-rule:evenodd;stroke:#000000;stroke-width:2.0px;stroke-linecap:butt;stroke-linejoin:miter;stroke-opacity:1"/>
<path class="bond-10 atom-4 atom-9" d="M 454.5,114.3 L 455.9,105.6" style="fill:none;fill-rule:evenodd;stroke:#0000FF;stroke-width:2.0px;stroke-linecap:butt;stroke-linejoin:miter;stroke-opacity:1"/>
<path class="bond-11 atom-5 atom-6" d="M 469.4,136.5 L 477.9,133.3" style="fill:none;fill-rule:evenodd;stroke:#000000;stroke-width:2.0px;stroke-linecap:butt;stroke-linejoin:miter;stroke-opacity:1"/>
<path class="bond-11 atom-5 atom-6" d="M 477.9,133.3 L 486.4,130.1" style="fill:none;fill-rule:evenodd;stroke:#0000FF;stroke-width:2.0px;stroke-linecap:butt;stroke-linejoin:miter;stroke-opacity:1"/>
<path class="bond-12 atom-6 atom-7" d="M 490.0,125.3 L 491.4,116.7" style="fill:none;fill-rule:evenodd;stroke:#0000FF;stroke-width:2.0px;stroke-linecap:butt;stroke-linejoin:miter;stroke-opacity:1"/>
<path class="bond-12 atom-6 atom-7" d="M 491.4,116.7 L 492.9,108.1" style="fill:none;fill-rule:evenodd;stroke:#000000;stroke-width:2.0px;stroke-linecap:butt;stroke-linejoin:miter;stroke-opacity:1"/>
<path class="bond-12 atom-6 atom-7" d="M 486.2,122.0 L 487.2,116.0" style="fill:none;fill-rule:evenodd;stroke:#0000FF;stroke-width:2.0px;stroke-linecap:butt;stroke-linejoin:miter;stroke-opacity:1"/>
<path class="bond-12 atom-6 atom-7" d="M 487.2,116.0 L 488.2,109.9" style="fill:none;fill-rule:evenodd;stroke:#000000;stroke-width:2.0px;stroke-linecap:butt;stroke-linejoin:miter;stroke-opacity:1"/>
<path class="bond-13 atom-7 atom-8" d="M 492.9,108.1 L 476.5,94.5" style="fill:none;fill-rule:evenodd;stroke:#000000;stroke-width:2.0px;stroke-linecap:butt;stroke-linejoin:miter;stroke-opacity:1"/>
<path class="bond-14 atom-7 atom-31" d="M 492.9,108.1 L 509.7,101.8" style="fill:none;fill-rule:evenodd;stroke:#000000;stroke-width:2.0px;stroke-linecap:butt;stroke-linejoin:miter;stroke-opacity:1"/>
<path class="bond-15 atom-8 atom-9" d="M 476.5,94.5 L 468.0,97.7" style="fill:none;fill-rule:evenodd;stroke:#000000;stroke-width:2.0px;stroke-linecap:butt;stroke-linejoin:miter;stroke-opacity:1"/>
<path class="bond-15 atom-8 atom-9" d="M 468.0,97.7 L 459.5,100.8" style="fill:none;fill-rule:evenodd;stroke:#0000FF;stroke-width:2.0px;stroke-linecap:butt;stroke-linejoin:miter;stroke-opacity:1"/>
<path class="bond-15 atom-8 atom-9" d="M 475.4,99.4 L 469.5,101.7" style="fill:none;fill-rule:evenodd;stroke:#000000;stroke-width:2.0px;stroke-linecap:butt;stroke-linejoin:miter;stroke-opacity:1"/>
<path class="bond-15 atom-8 atom-9" d="M 469.5,101.7 L 463.5,103.9" style="fill:none;fill-rule:evenodd;stroke:#0000FF;stroke-width:2.0px;stroke-linecap:butt;stroke-linejoin:miter;stroke-opacity:1"/>
<path class="bond-16 atom-8 atom-32" d="M 476.5,94.5 L 479.4,77.2" style="fill:none;fill-rule:evenodd;stroke:#000000;stroke-width:2.0px;stroke-linecap:butt;stroke-linejoin:miter;stroke-opacity:1"/>
<path class="bond-17 atom-10 atom-11" d="M 406.6,156.3 L 399.9,150.7" style="fill:none;fill-rule:evenodd;stroke:#0000FF;stroke-width:2.0px;stroke-linecap:butt;stroke-linejoin:miter;stroke-opacity:1"/>
<path class="bond-17 atom-10 atom-11" d="M 399.9,150.7 L 393.2,145.2" style="fill:none;fill-rule:evenodd;stroke:#000000;stroke-width:2.0px;stroke-linecap:butt;stroke-linejoin:miter;stroke-opacity:1"/>
<path class="bond-18 atom-10 atom-33" d="M 409.0,162.4 L 407.9,169.2" style="fill:none;fill-rule:evenodd;stroke:#0000FF;stroke-width:2.0px;stroke-linecap:butt;stroke-linejoin:miter;stroke-opacity:1"/>
<path class="bond-18 atom-10 atom-33" d="M 407.9,169.2 L 406.7,176.0" style="fill:none;fill-rule:evenodd;stroke:#000000;stroke-width:2.0px;stroke-linecap:butt;stroke-linejoin:miter;stroke-opacity:1"/>
<path class="bond-19 atom-11 atom-12" d="M 393.2,145.2 L 396.8,124.2" style="fill:none;fill-rule:evenodd;stroke:#000000;stroke-width:2.0px;stroke-linecap:butt;stroke-linejoin:miter;stroke-opacity:1"/>
<path class="bond-19 atom-11 atom-12" d="M 389.6,141.3 L 392.0,126.7" style="fill:none;fill-rule:evenodd;stroke:#000000;stroke-width:2.0px;stroke-linecap:butt;stroke-linejoin:miter;stroke-opacity:1"/>
<path class="bond-20 atom-11 atom-16" d="M 393.2,145.2 L 373.3,152.6" style="fill:none;fill-rule:evenodd;stroke:#000000;stroke-width:2.0px;stroke-linecap:butt;stroke-linejoin:miter;stroke-opacity:1"/>
<path class="bond-21 atom-12 atom-13" d="M 396.8,124.2 L 390.0,118.7" style="fill:none;fill-rule:evenodd;stroke:#000000;stroke-width:2.0px;stroke-linecap:butt;stroke-linejoin:miter;stroke-opacity:1"/>
<path class="bond-21 atom-12 atom-13" d="M 390.0,118.7 L 383.3,113.1" style="fill:none;fill-rule:evenodd;stroke:#0000FF;stroke-width:2.0px;stroke-linecap:butt;stroke-linejoin:miter;stroke-opacity:1"/>
<path class="bond-22 atom-12 atom-34" d="M 396.8,124.2 L 406.1,119.4" style="fill:none;fill-rule:evenodd;stroke:#000000;stroke-width:2.0px;stroke-linecap:butt;stroke-linejoin:miter;stroke-opacity:1"/>
<path class="bond-23 atom-13 atom-14" d="M 377.4,111.8 L 368.9,114.9" style="fill:none;fill-rule:evenodd;stroke:#0000FF;stroke-width:2.0px;stroke-linecap:butt;stroke-linejoin:miter;stroke-opacity:1"/>
<path class="bond-23 atom-13 atom-14" d="M 368.9,114.9 L 360.4,118.1" style="fill:none;fill-rule:evenodd;stroke:#000000;stroke-width:2.0px;stroke-linecap:butt;stroke-linejoin:miter;stroke-opacity:1"/>
<path class="bond-23 atom-13 atom-14" d="M 376.3,116.7 L 370.4,118.9" style="fill:none;fill-rule:evenodd;stroke:#0000FF;stroke-width:2.0px;stroke-linecap:butt;stroke-linejoin:miter;stroke-opacity:1"/>
<path class="bond-23 atom-13 atom-14" d="M 370.4,118.9 L 364.5,121.1" style="fill:none;fill-rule:evenodd;stroke:#000000;stroke-width:2.0px;stroke-linecap:butt;stroke-linejoin:miter;stroke-opacity:1"/>
<path class="bond-24 atom-14 atom-15" d="M 360.4,118.1 L 356.9,139.1" style="fill:none;fill-rule:evenodd;stroke:#000000;stroke-width:2.0px;stroke-linecap:butt;stroke-linejoin:miter;stroke-opacity:1"/>
<path class="bond-25 atom-14 atom-35" d="M 360.4,118.1 L 347.1,107.1" style="fill:none;fill-rule:evenodd;stroke:#000000;stroke-width:2.0px;stroke-linecap:butt;stroke-linejoin:miter;stroke-opacity:1"/>
<path class="bond-26 atom-15 atom-16" d="M 356.9,139.1 L 373.3,152.6" style="fill:none;fill-rule:evenodd;stroke:#000000;stroke-width:2.0px;stroke-linecap:butt;stroke-linejoin:miter;stroke-opacity:1"/>
<path class="bond-26 atom-15 atom-16" d="M 362.1,137.8 L 373.5,147.3" style="fill:none;fill-rule:evenodd;stroke:#000000;stroke-width:2.0px;stroke-linecap:butt;stroke-linejoin:miter;stroke-opacity:1"/>
<path class="bond-27 atom-15 atom-36" d="M 356.9,139.1 L 340.0,145.4" style="fill:none;fill-rule:evenodd;stroke:#000000;stroke-width:2.0px;stroke-linecap:butt;stroke-linejoin:miter;stroke-opacity:1"/>
<path class="bond-28 atom-16 atom-17" d="M 373.3,152.6 L 371.8,161.3" style="fill:none;fill-rule:evenodd;stroke:#000000;stroke-width:2.0px;stroke-linecap:butt;stroke-linejoin:miter;stroke-opacity:1"/>
<path class="bond-28 atom-16 atom-17" d="M 371.8,161.3 L 370.4,169.9" style="fill:none;fill-rule:evenodd;stroke:#CCCC00;stroke-width:2.0px;stroke-linecap:butt;stroke-linejoin:miter;stroke-opacity:1"/>
<path class="bond-29 atom-17 atom-18" d="M 372.7,171.9 L 380.2,173.2" style="fill:none;fill-rule:evenodd;stroke:#CCCC00;stroke-width:2.0px;stroke-linecap:butt;stroke-linejoin:miter;stroke-opacity:1"/>
<path class="bond-29 atom-17 atom-18" d="M 380.2,173.2 L 387.6,174.4" style="fill:none;fill-rule:evenodd;stroke:#FF0000;stroke-width:2.0px;stroke-linecap:butt;stroke-linejoin:miter;stroke-opacity:1"/>
<path class="bond-29 atom-17 atom-18" d="M 372.0,176.1 L 379.5,177.4" style="fill:none;fill-rule:evenodd;stroke:#CCCC00;stroke-width:2.0px;stroke-linecap:butt;stroke-linejoin:miter;stroke-opacity:1"/>
<path class="bond-29 atom-17 atom-18" d="M 379.5,177.4 L 386.9,178.6" style="fill:none;fill-rule:evenodd;stroke:#FF0000;stroke-width:2.0px;stroke-linecap:butt;stroke-linejoin:miter;stroke-opacity:1"/>
<path class="bond-30 atom-17 atom-19" d="M 366.8,175.2 L 359.3,174.0" style="fill:none;fill-rule:evenodd;stroke:#CCCC00;stroke-width:2.0px;stroke-linecap:butt;stroke-linejoin:miter;stroke-opacity:1"/>
<path class="bond-30 atom-17 atom-19" d="M 359.3,174.0 L 351.9,172.7" style="fill:none;fill-rule:evenodd;stroke:#FF0000;stroke-width:2.0px;stroke-linecap:butt;stroke-linejoin:miter;stroke-opacity:1"/>
<path class="bond-30 atom-17 atom-19" d="M 367.5,171.0 L 360.0,169.8" style="fill:none;fill-rule:evenodd;stroke:#CCCC00;stroke-width:2.0px;stroke-linecap:butt;stroke-linejoin:miter;stroke-opacity:1"/>
<path class="bond-30 atom-17 atom-19" d="M 360.0,169.8 L 352.6,168.5" style="fill:none;fill-rule:evenodd;stroke:#FF0000;stroke-width:2.0px;stroke-linecap:butt;stroke-linejoin:miter;stroke-opacity:1"/>
<path class="bond-31 atom-17 atom-20" d="M 369.1,177.4 L 367.7,186.0" style="fill:none;fill-rule:evenodd;stroke:#CCCC00;stroke-width:2.0px;stroke-linecap:butt;stroke-linejoin:miter;stroke-opacity:1"/>
<path class="bond-31 atom-17 atom-20" d="M 367.7,186.0 L 366.2,194.6" style="fill:none;fill-rule:evenodd;stroke:#000000;stroke-width:2.0px;stroke-linecap:butt;stroke-linejoin:miter;stroke-opacity:1"/>
<path class="bond-32 atom-20 atom-37" d="M 366.2,194.6 L 348.3,191.5" style="fill:none;fill-rule:evenodd;stroke:#000000;stroke-width:2.0px;stroke-linecap:butt;stroke-linejoin:miter;stroke-opacity:1"/>
<path class="bond-33 atom-20 atom-38" d="M 366.2,194.6 L 384.2,197.6" style="fill:none;fill-rule:evenodd;stroke:#000000;stroke-width:2.0px;stroke-linecap:butt;stroke-linejoin:miter;stroke-opacity:1"/>
<path class="bond-34 atom-20 atom-39" d="M 366.2,194.6 L 363.3,211.8" style="fill:none;fill-rule:evenodd;stroke:#000000;stroke-width:2.0px;stroke-linecap:butt;stroke-linejoin:miter;stroke-opacity:1"/>
<path class="bond-35 atom-21 atom-22" d="M 482.3,171.0 L 478.7,191.9" style="fill:none;fill-rule:evenodd;stroke:#000000;stroke-width:2.0px;stroke-linecap:butt;stroke-linejoin:miter;stroke-opacity:1"/>
<path class="bond-35 atom-21 atom-22" d="M 485.9,174.8 L 483.5,189.5" style="fill:none;fill-rule:evenodd;stroke:#000000;stroke-width:2.0px;stroke-linecap:butt;stroke-linejoin:miter;stroke-opacity:1"/>
<path class="bond-36 atom-21 atom-26" d="M 482.3,171.0 L 502.2,163.5" style="fill:none;fill-rule:evenodd;stroke:#000000;stroke-width:2.0px;stroke-linecap:butt;stroke-linejoin:miter;stroke-opacity:1"/>
<path class="bond-37 atom-22 atom-23" d="M 478.7,191.9 L 495.1,205.5" style="fill:none;fill-rule:evenodd;stroke:#000000;stroke-width:2.0px;stroke-linecap:butt;stroke-linejoin:miter;stroke-opacity:1"/>
<path class="bond-38 atom-22 atom-40" d="M 478.7,191.9 L 461.9,198.2" style="fill:none;fill-rule:evenodd;stroke:#000000;stroke-width:2.0px;stroke-linecap:butt;stroke-linejoin:miter;stroke-opacity:1"/>
<path class="bond-39 atom-23 atom-24" d="M 495.1,205.5 L 515.1,198.1" style="fill:none;fill-rule:evenodd;stroke:#000000;stroke-width:2.0px;stroke-linecap:butt;stroke-linejoin:miter;stroke-opacity:1"/>
<path class="bond-39 atom-23 atom-24" d="M 496.6,200.4 L 510.6,195.2" style="fill:none;fill-rule:evenodd;stroke:#000000;stroke-width:2.0px;stroke-linecap:butt;stroke-linejoin:miter;stroke-opacity:1"/>
<path class="bond-40 atom-23 atom-41" d="M 495.1,205.5 L 492.2,222.8" style="fill:none;fill-rule:evenodd;stroke:#000000;stroke-width:2.0px;stroke-linecap:butt;stroke-linejoin:miter;stroke-opacity:1"/>
<path class="bond-41 atom-24 atom-25" d="M 515.1,198.1 L 518.6,177.1" style="fill:none;fill-rule:evenodd;stroke:#000000;stroke-width:2.0px;stroke-linecap:butt;stroke-linejoin:miter;stroke-opacity:1"/>
<path class="bond-42 atom-24 atom-42" d="M 515.1,198.1 L 528.4,209.1" style="fill:none;fill-rule:evenodd;stroke:#000000;stroke-width:2.0px;stroke-linecap:butt;stroke-linejoin:miter;stroke-opacity:1"/>
<path class="bond-43 atom-25 atom-26" d="M 518.6,177.1 L 502.2,163.5" style="fill:none;fill-rule:evenodd;stroke:#000000;stroke-width:2.0px;stroke-linecap:butt;stroke-linejoin:miter;stroke-opacity:1"/>
<path class="bond-43 atom-25 atom-26" d="M 513.4,178.3 L 501.9,168.9" style="fill:none;fill-rule:evenodd;stroke:#000000;stroke-width:2.0px;stroke-linecap:butt;stroke-linejoin:miter;stroke-opacity:1"/>
<path class="bond-44 atom-25 atom-27" d="M 518.6,177.1 L 526.8,174.0" style="fill:none;fill-rule:evenodd;stroke:#000000;stroke-width:2.0px;stroke-linecap:butt;stroke-linejoin:miter;stroke-opacity:1"/>
<path class="bond-44 atom-25 atom-27" d="M 526.8,174.0 L 535.1,171.0" style="fill:none;fill-rule:evenodd;stroke:#FF0000;stroke-width:2.0px;stroke-linecap:butt;stroke-linejoin:miter;stroke-opacity:1"/>
<path class="bond-45 atom-26 atom-43" d="M 502.2,163.5 L 505.1,146.3" style="fill:none;fill-rule:evenodd;stroke:#000000;stroke-width:2.0px;stroke-linecap:butt;stroke-linejoin:miter;stroke-opacity:1"/>
<path class="bond-46 atom-27 atom-28" d="M 539.2,165.9 L 540.6,157.3" style="fill:none;fill-rule:evenodd;stroke:#FF0000;stroke-width:2.0px;stroke-linecap:butt;stroke-linejoin:miter;stroke-opacity:1"/>
<path class="bond-46 atom-27 atom-28" d="M 540.6,157.3 L 542.1,148.7" style="fill:none;fill-rule:evenodd;stroke:#000000;stroke-width:2.0px;stroke-linecap:butt;stroke-linejoin:miter;stroke-opacity:1"/>
<path class="bond-47 atom-28 atom-44" d="M 542.1,148.7 L 560.0,151.7" style="fill:none;fill-rule:evenodd;stroke:#000000;stroke-width:2.0px;stroke-linecap:butt;stroke-linejoin:miter;stroke-opacity:1"/>
<path class="bond-48 atom-28 atom-45" d="M 542.1,148.7 L 524.1,145.7" style="fill:none;fill-rule:evenodd;stroke:#000000;stroke-width:2.0px;stroke-linecap:butt;stroke-linejoin:miter;stroke-opacity:1"/>
<path class="bond-49 atom-28 atom-46" d="M 542.1,148.7 L 545.0,131.4" style="fill:none;fill-rule:evenodd;stroke:#000000;stroke-width:2.0px;stroke-linecap:butt;stroke-linejoin:miter;stroke-opacity:1"/>
<path class="atom-6" d="M 488.0 126.0 L 490.0 129.2 Q 490.2 129.5, 490.5 130.1 Q 490.8 130.7, 490.8 130.7 L 490.8 126.0 L 491.6 126.0 L 491.6 132.0 L 490.8 132.0 L 488.7 128.6 Q 488.4 128.1, 488.2 127.7 Q 487.9 127.2, 487.8 127.1 L 487.8 132.0 L 487.1 132.0 L 487.1 126.0 L 488.0 126.0 " fill="#0000FF"/>
<path class="atom-9" d="M 455.2 98.9 L 457.2 102.1 Q 457.4 102.4, 457.7 103.0 Q 458.0 103.6, 458.0 103.6 L 458.0 98.9 L 458.8 98.9 L 458.8 104.9 L 458.0 104.9 L 455.9 101.5 Q 455.6 101.1, 455.4 100.6 Q 455.1 100.1, 455.0 100.0 L 455.0 104.9 L 454.3 104.9 L 454.3 98.9 L 455.2 98.9 " fill="#0000FF"/>
<path class="atom-10" d="M 408.3 155.7 L 410.3 158.9 Q 410.5 159.2, 410.8 159.8 Q 411.1 160.4, 411.1 160.4 L 411.1 155.7 L 411.9 155.7 L 411.9 161.7 L 411.1 161.7 L 409.0 158.3 Q 408.7 157.8, 408.5 157.4 Q 408.2 156.9, 408.1 156.8 L 408.1 161.7 L 407.3 161.7 L 407.3 155.7 L 408.3 155.7 " fill="#0000FF"/>
<path class="atom-13" d="M 379.0 107.7 L 381.0 110.8 Q 381.2 111.2, 381.5 111.7 Q 381.8 112.3, 381.8 112.3 L 381.8 107.7 L 382.6 107.7 L 382.6 113.7 L 381.8 113.7 L 379.7 110.2 Q 379.5 109.8, 379.2 109.3 Q 378.9 108.9, 378.9 108.7 L 378.9 113.7 L 378.1 113.7 L 378.1 107.7 L 379.0 107.7 " fill="#0000FF"/>
<path class="atom-17" d="M 368.1 175.7 Q 368.1 175.7, 368.4 175.8 Q 368.7 175.9, 369.0 176.0 Q 369.3 176.1, 369.6 176.1 Q 370.2 176.1, 370.5 175.8 Q 370.9 175.5, 370.9 175.0 Q 370.9 174.7, 370.7 174.5 Q 370.5 174.3, 370.3 174.2 Q 370.0 174.1, 369.6 173.9 Q 369.0 173.8, 368.7 173.6 Q 368.4 173.5, 368.2 173.1 Q 368.0 172.8, 368.0 172.3 Q 368.0 171.5, 368.5 171.1 Q 369.0 170.6, 370.0 170.6 Q 370.7 170.6, 371.5 170.9 L 371.3 171.6 Q 370.6 171.3, 370.0 171.3 Q 369.4 171.3, 369.1 171.5 Q 368.8 171.8, 368.8 172.2 Q 368.8 172.5, 369.0 172.7 Q 369.1 172.9, 369.4 173.0 Q 369.6 173.1, 370.0 173.2 Q 370.6 173.4, 370.9 173.6 Q 371.2 173.7, 371.5 174.1 Q 371.7 174.4, 371.7 175.0 Q 371.7 175.9, 371.1 176.3 Q 370.6 176.8, 369.7 176.8 Q 369.1 176.8, 368.7 176.6 Q 368.3 176.5, 367.8 176.3 L 368.1 175.7 " fill="#CCCC00"/>
<path class="atom-18" d="M 388.0 177.1 Q 388.0 175.7, 388.7 174.9 Q 389.4 174.1, 390.7 174.1 Q 392.1 174.1, 392.8 174.9 Q 393.5 175.7, 393.5 177.1 Q 393.5 178.6, 392.8 179.4 Q 392.1 180.3, 390.7 180.3 Q 389.4 180.3, 388.7 179.4 Q 388.0 178.6, 388.0 177.1 M 390.7 179.6 Q 391.7 179.6, 392.1 179.0 Q 392.6 178.3, 392.6 177.1 Q 392.6 176.0, 392.1 175.4 Q 391.7 174.8, 390.7 174.8 Q 389.8 174.8, 389.3 175.3 Q 388.8 175.9, 388.8 177.1 Q 388.8 178.4, 389.3 179.0 Q 389.8 179.6, 390.7 179.6 " fill="#FF0000"/>
<path class="atom-19" d="M 346.0 170.1 Q 346.0 168.6, 346.7 167.8 Q 347.5 167.0, 348.8 167.0 Q 350.1 167.0, 350.8 167.8 Q 351.6 168.6, 351.6 170.1 Q 351.6 171.5, 350.8 172.4 Q 350.1 173.2, 348.8 173.2 Q 347.5 173.2, 346.7 172.4 Q 346.0 171.5, 346.0 170.1 M 348.8 172.5 Q 349.7 172.5, 350.2 171.9 Q 350.7 171.3, 350.7 170.1 Q 350.7 168.9, 350.2 168.3 Q 349.7 167.7, 348.8 167.7 Q 347.9 167.7, 347.4 168.3 Q 346.9 168.9, 346.9 170.1 Q 346.9 171.3, 347.4 171.9 Q 347.9 172.5, 348.8 172.5 " fill="#FF0000"/>
<path class="atom-27" d="M 535.8 169.7 Q 535.8 168.2, 536.5 167.4 Q 537.2 166.6, 538.5 166.6 Q 539.9 166.6, 540.6 167.4 Q 541.3 168.2, 541.3 169.7 Q 541.3 171.1, 540.6 172.0 Q 539.8 172.8, 538.5 172.8 Q 537.2 172.8, 536.5 172.0 Q 535.8 171.2, 535.8 169.7 M 538.5 172.1 Q 539.4 172.1, 539.9 171.5 Q 540.4 170.9, 540.4 169.7 Q 540.4 168.5, 539.9 167.9 Q 539.4 167.3, 538.5 167.3 Q 537.6 167.3, 537.1 167.9 Q 536.6 168.5, 536.6 169.7 Q 536.6 170.9, 537.1 171.5 Q 537.6 172.1, 538.5 172.1 " fill="#FF0000"/>
<path class="atom-29" d="M 421.1 117.2 L 421.9 117.2 L 421.9 119.8 L 425.0 119.8 L 425.0 117.2 L 425.8 117.2 L 425.8 123.2 L 425.0 123.2 L 425.0 120.4 L 421.9 120.4 L 421.9 123.2 L 421.1 123.2 L 421.1 117.2 " fill="#000000"/>
<path class="atom-30" d="M 440.1 182.8 L 440.9 182.8 L 440.9 185.4 L 444.0 185.4 L 444.0 182.8 L 444.8 182.8 L 444.8 188.8 L 444.0 188.8 L 444.0 186.1 L 440.9 186.1 L 440.9 188.8 L 440.1 188.8 L 440.1 182.8 " fill="#000000"/>
<path class="atom-31" d="M 510.4 97.6 L 511.3 97.6 L 511.3 100.2 L 514.3 100.2 L 514.3 97.6 L 515.2 97.6 L 515.2 103.6 L 514.3 103.6 L 514.3 100.9 L 511.3 100.9 L 511.3 103.6 L 510.4 103.6 L 510.4 97.6 " fill="#000000"/>
<path class="atom-32" d="M 477.6 70.5 L 478.5 70.5 L 478.5 73.1 L 481.5 73.1 L 481.5 70.5 L 482.4 70.5 L 482.4 76.5 L 481.5 76.5 L 481.5 73.8 L 478.5 73.8 L 478.5 76.5 L 477.6 76.5 L 477.6 70.5 " fill="#000000"/>
<path class="atom-33" d="M 403.7 176.7 L 404.5 176.7 L 404.5 179.3 L 407.6 179.3 L 407.6 176.7 L 408.4 176.7 L 408.4 182.7 L 407.6 182.7 L 407.6 179.9 L 404.5 179.9 L 404.5 182.7 L 403.7 182.7 L 403.7 176.7 " fill="#000000"/>
<path class="atom-34" d="M 406.8 114.8 L 407.6 114.8 L 407.6 117.3 L 410.7 117.3 L 410.7 114.8 L 411.5 114.8 L 411.5 120.8 L 410.7 120.8 L 410.7 118.0 L 407.6 118.0 L 407.6 120.8 L 406.8 120.8 L 406.8 114.8 " fill="#000000"/>
<path class="atom-35" d="M 341.7 101.5 L 342.5 101.5 L 342.5 104.1 L 345.6 104.1 L 345.6 101.5 L 346.4 101.5 L 346.4 107.6 L 345.6 107.6 L 345.6 104.8 L 342.5 104.8 L 342.5 107.6 L 341.7 107.6 L 341.7 101.5 " fill="#000000"/>
<path class="atom-36" d="M 334.6 143.5 L 335.4 143.5 L 335.4 146.0 L 338.5 146.0 L 338.5 143.5 L 339.3 143.5 L 339.3 149.5 L 338.5 149.5 L 338.5 146.7 L 335.4 146.7 L 335.4 149.5 L 334.6 149.5 L 334.6 143.5 " fill="#000000"/>
<path class="atom-37" d="M 342.9 188.0 L 343.7 188.0 L 343.7 190.6 L 346.8 190.6 L 346.8 188.0 L 347.6 188.0 L 347.6 194.0 L 346.8 194.0 L 346.8 191.3 L 343.7 191.3 L 343.7 194.0 L 342.9 194.0 L 342.9 188.0 " fill="#000000"/>
<path class="atom-38" d="M 384.8 195.1 L 385.7 195.1 L 385.7 197.6 L 388.7 197.6 L 388.7 195.1 L 389.6 195.1 L 389.6 201.1 L 388.7 201.1 L 388.7 198.3 L 385.7 198.3 L 385.7 201.1 L 384.8 201.1 L 384.8 195.1 " fill="#000000"/>
<path class="atom-39" d="M 360.3 212.5 L 361.2 212.5 L 361.2 215.1 L 364.2 215.1 L 364.2 212.5 L 365.1 212.5 L 365.1 218.5 L 364.2 218.5 L 364.2 215.8 L 361.2 215.8 L 361.2 218.5 L 360.3 218.5 L 360.3 212.5 " fill="#000000"/>
<path class="atom-40" d="M 456.5 196.4 L 457.3 196.4 L 457.3 198.9 L 460.3 198.9 L 460.3 196.4 L 461.2 196.4 L 461.2 202.4 L 460.3 202.4 L 460.3 199.6 L 457.3 199.6 L 457.3 202.4 L 456.5 202.4 L 456.5 196.4 " fill="#000000"/>
<path class="atom-41" d="M 489.2 223.5 L 490.1 223.5 L 490.1 226.0 L 493.1 226.0 L 493.1 223.5 L 494.0 223.5 L 494.0 229.5 L 493.1 229.5 L 493.1 226.7 L 490.1 226.7 L 490.1 229.5 L 489.2 229.5 L 489.2 223.5 " fill="#000000"/>
<path class="atom-42" d="M 529.1 208.6 L 529.9 208.6 L 529.9 211.2 L 533.0 211.2 L 533.0 208.6 L 533.8 208.6 L 533.8 214.6 L 533.0 214.6 L 533.0 211.8 L 529.9 211.8 L 529.9 214.6 L 529.1 214.6 L 529.1 208.6 " fill="#000000"/>
<path class="atom-43" d="M 503.4 139.6 L 504.2 139.6 L 504.2 142.1 L 507.3 142.1 L 507.3 139.6 L 508.1 139.6 L 508.1 145.6 L 507.3 145.6 L 507.3 142.8 L 504.2 142.8 L 504.2 145.6 L 503.4 145.6 L 503.4 139.6 " fill="#000000"/>
<path class="atom-44" d="M 560.7 149.2 L 561.5 149.2 L 561.5 151.8 L 564.6 151.8 L 564.6 149.2 L 565.4 149.2 L 565.4 155.2 L 564.6 155.2 L 564.6 152.5 L 561.5 152.5 L 561.5 155.2 L 560.7 155.2 L 560.7 149.2 " fill="#000000"/>
<path class="atom-45" d="M 518.7 142.1 L 519.5 142.1 L 519.5 144.7 L 522.6 144.7 L 522.6 142.1 L 523.4 142.1 L 523.4 148.2 L 522.6 148.2 L 522.6 145.4 L 519.5 145.4 L 519.5 148.2 L 518.7 148.2 L 518.7 142.1 " fill="#000000"/>
<path class="atom-46" d="M 543.2 124.7 L 544.0 124.7 L 544.0 127.3 L 547.1 127.3 L 547.1 124.7 L 547.9 124.7 L 547.9 130.7 L 547.1 130.7 L 547.1 128.0 L 544.0 128.0 L 544.0 130.7 L 543.2 130.7 L 543.2 124.7 " fill="#000000"/>
<text x="300" y="20" font-size="20" font-family="sans-serif" font-weight="normal" letter-spacing="0" text-anchor="middle" fill="black">pfkfb3: 65 -&gt; 20</text><text x="300" y="35" font-size="15" font-family="sans-serif" font-weight="normal" letter-spacing="0" text-anchor="middle" fill="black"></text><text x="150" y="285" font-size="15" font-family="sans-serif" font-weight="normal" letter-spacing="0" text-anchor="middle" fill="black">65</text><text x="450" y="285" font-size="15" font-family="sans-serif" font-weight="normal" letter-spacing="0" text-anchor="middle" fill="black">20</text></svg>
