<?xml version='1.0' encoding='ASCII' standalone='yes'?>
<svg xmlns="http://www.w3.org/2000/svg" xmlns:rdkit="http://www.rdkit.org/xml" xmlns:xlink="http://www.w3.org/1999/xlink" version="1.1" baseProfile="full" xml:space="preserve" width="600px" height="300px" viewBox="0 0 600 300">
<!-- END OF HEADER -->
<rect style="opacity:1.0;fill:#FFFFFF;stroke:none" width="600.0" height="300.0" x="0.0" y="0.0"> </rect>
<path class="bond-0 atom-0 atom-3" d="M 167.7,155.5 L 150.1,165.4" style="fill:none;fill-rule:evenodd;stroke:#000000;stroke-width:2.0px;stroke-linecap:butt;stroke-linejoin:miter;stroke-opacity:1"/>
<path class="bond-0 atom-0 atom-3" d="M 163.1,153.5 L 150.8,160.4" style="fill:none;fill-rule:evenodd;stroke:#000000;stroke-width:2.0px;stroke-linecap:butt;stroke-linejoin:miter;stroke-opacity:1"/>
<path class="bond-1 atom-0 atom-5" d="M 167.7,155.5 L 167.9,135.3" style="fill:none;fill-rule:evenodd;stroke:#000000;stroke-width:2.0px;stroke-linecap:butt;stroke-linejoin:miter;stroke-opacity:1"/>
<path class="bond-2 atom-0 atom-10" d="M 167.7,155.5 L 185.0,165.8" style="fill:none;fill-rule:evenodd;stroke:#000000;stroke-width:2.0px;stroke-linecap:butt;stroke-linejoin:miter;stroke-opacity:1"/>
<path class="bond-3 atom-1 atom-2" d="M 133.0,135.0 L 132.8,155.1" style="fill:none;fill-rule:evenodd;stroke:#000000;stroke-width:2.0px;stroke-linecap:butt;stroke-linejoin:miter;stroke-opacity:1"/>
<path class="bond-3 atom-1 atom-2" d="M 137.0,138.0 L 136.8,152.2" style="fill:none;fill-rule:evenodd;stroke:#000000;stroke-width:2.0px;stroke-linecap:butt;stroke-linejoin:miter;stroke-opacity:1"/>
<path class="bond-4 atom-1 atom-4" d="M 133.0,135.0 L 150.5,125.1" style="fill:none;fill-rule:evenodd;stroke:#000000;stroke-width:2.0px;stroke-linecap:butt;stroke-linejoin:miter;stroke-opacity:1"/>
<path class="bond-5 atom-1 atom-28" d="M 133.0,135.0 L 125.4,129.1" style="fill:none;fill-rule:evenodd;stroke:#000000;stroke-width:2.0px;stroke-linecap:butt;stroke-linejoin:miter;stroke-opacity:1"/>
<path class="bond-6 atom-2 atom-3" d="M 132.8,155.1 L 150.1,165.4" style="fill:none;fill-rule:evenodd;stroke:#000000;stroke-width:2.0px;stroke-linecap:butt;stroke-linejoin:miter;stroke-opacity:1"/>
<path class="bond-7 atom-2 atom-16" d="M 132.8,155.1 L 125.4,159.3" style="fill:none;fill-rule:evenodd;stroke:#000000;stroke-width:2.0px;stroke-linecap:butt;stroke-linejoin:miter;stroke-opacity:1"/>
<path class="bond-7 atom-2 atom-16" d="M 125.4,159.3 L 118.0,163.4" style="fill:none;fill-rule:evenodd;stroke:#0000FF;stroke-width:2.0px;stroke-linecap:butt;stroke-linejoin:miter;stroke-opacity:1"/>
<path class="bond-8 atom-3 atom-29" d="M 150.1,165.4 L 149.9,182.0" style="fill:none;fill-rule:evenodd;stroke:#000000;stroke-width:2.0px;stroke-linecap:butt;stroke-linejoin:miter;stroke-opacity:1"/>
<path class="bond-9 atom-4 atom-5" d="M 150.5,125.1 L 167.9,135.3" style="fill:none;fill-rule:evenodd;stroke:#000000;stroke-width:2.0px;stroke-linecap:butt;stroke-linejoin:miter;stroke-opacity:1"/>
<path class="bond-9 atom-4 atom-5" d="M 151.1,130.1 L 163.2,137.3" style="fill:none;fill-rule:evenodd;stroke:#000000;stroke-width:2.0px;stroke-linecap:butt;stroke-linejoin:miter;stroke-opacity:1"/>
<path class="bond-10 atom-4 atom-9" d="M 150.5,125.1 L 150.6,116.8" style="fill:none;fill-rule:evenodd;stroke:#000000;stroke-width:2.0px;stroke-linecap:butt;stroke-linejoin:miter;stroke-opacity:1"/>
<path class="bond-10 atom-4 atom-9" d="M 150.6,116.8 L 150.7,108.4" style="fill:none;fill-rule:evenodd;stroke:#0000FF;stroke-width:2.0px;stroke-linecap:butt;stroke-linejoin:miter;stroke-opacity:1"/>
<path class="bond-11 atom-5 atom-6" d="M 167.9,135.3 L 175.2,131.2" style="fill:none;fill-rule:evenodd;stroke:#000000;stroke-width:2.0px;stroke-linecap:butt;stroke-linejoin:miter;stroke-opacity:1"/>
<path class="bond-11 atom-5 atom-6" d="M 175.2,131.2 L 182.6,127.0" style="fill:none;fill-rule:evenodd;stroke:#0000FF;stroke-width:2.0px;stroke-linecap:butt;stroke-linejoin:miter;stroke-opacity:1"/>
<path class="bond-12 atom-6 atom-7" d="M 185.5,122.0 L 185.6,113.6" style="fill:none;fill-rule:evenodd;stroke:#0000FF;stroke-width:2.0px;stroke-linecap:butt;stroke-linejoin:miter;stroke-opacity:1"/>
<path class="bond-12 atom-6 atom-7" d="M 185.6,113.6 L 185.7,105.3" style="fill:none;fill-rule:evenodd;stroke:#000000;stroke-width:2.0px;stroke-linecap:butt;stroke-linejoin:miter;stroke-opacity:1"/>
<path class="bond-12 atom-6 atom-7" d="M 181.5,119.4 L 181.5,113.6" style="fill:none;fill-rule:evenodd;stroke:#0000FF;stroke-width:2.0px;stroke-linecap:butt;stroke-linejoin:miter;stroke-opacity:1"/>
<path class="bond-12 atom-6 atom-7" d="M 181.5,113.6 L 181.6,107.8" style="fill:none;fill-rule:evenodd;stroke:#000000;stroke-width:2.0px;stroke-linecap:butt;stroke-linejoin:miter;stroke-opacity:1"/>
<path class="bond-13 atom-7 atom-8" d="M 185.7,105.3 L 168.3,95.0" style="fill:none;fill-rule:evenodd;stroke:#000000;stroke-width:2.0px;stroke-linecap:butt;stroke-linejoin:miter;stroke-opacity:1"/>
<path class="bond-14 atom-7 atom-30" d="M 185.7,105.3 L 200.3,97.0" style="fill:none;fill-rule:evenodd;stroke:#000000;stroke-width:2.0px;stroke-linecap:butt;stroke-linejoin:miter;stroke-opacity:1"/>
<path class="bond-15 atom-8 atom-9" d="M 168.3,95.0 L 160.9,99.2" style="fill:none;fill-rule:evenodd;stroke:#000000;stroke-width:2.0px;stroke-linecap:butt;stroke-linejoin:miter;stroke-opacity:1"/>
<path class="bond-15 atom-8 atom-9" d="M 160.9,99.2 L 153.6,103.3" style="fill:none;fill-rule:evenodd;stroke:#0000FF;stroke-width:2.0px;stroke-linecap:butt;stroke-linejoin:miter;stroke-opacity:1"/>
<path class="bond-15 atom-8 atom-9" d="M 168.1,99.8 L 162.9,102.7" style="fill:none;fill-rule:evenodd;stroke:#000000;stroke-width:2.0px;stroke-linecap:butt;stroke-linejoin:miter;stroke-opacity:1"/>
<path class="bond-15 atom-8 atom-9" d="M 162.9,102.7 L 157.8,105.6" style="fill:none;fill-rule:evenodd;stroke:#0000FF;stroke-width:2.0px;stroke-linecap:butt;stroke-linejoin:miter;stroke-opacity:1"/>
<path class="bond-16 atom-8 atom-31" d="M 168.3,95.0 L 168.5,78.4" style="fill:none;fill-rule:evenodd;stroke:#000000;stroke-width:2.0px;stroke-linecap:butt;stroke-linejoin:miter;stroke-opacity:1"/>
<path class="bond-17 atom-10 atom-11" d="M 185.0,165.8 L 184.8,185.9" style="fill:none;fill-rule:evenodd;stroke:#000000;stroke-width:2.0px;stroke-linecap:butt;stroke-linejoin:miter;stroke-opacity:1"/>
<path class="bond-17 atom-10 atom-11" d="M 189.0,168.8 L 188.9,182.9" style="fill:none;fill-rule:evenodd;stroke:#000000;stroke-width:2.0px;stroke-linecap:butt;stroke-linejoin:miter;stroke-opacity:1"/>
<path class="bond-18 atom-10 atom-15" d="M 185.0,165.8 L 202.6,155.9" style="fill:none;fill-rule:evenodd;stroke:#000000;stroke-width:2.0px;stroke-linecap:butt;stroke-linejoin:miter;stroke-opacity:1"/>
<path class="bond-19 atom-11 atom-12" d="M 184.8,185.9 L 202.1,196.2" style="fill:none;fill-rule:evenodd;stroke:#000000;stroke-width:2.0px;stroke-linecap:butt;stroke-linejoin:miter;stroke-opacity:1"/>
<path class="bond-20 atom-11 atom-32" d="M 184.8,185.9 L 170.1,194.2" style="fill:none;fill-rule:evenodd;stroke:#000000;stroke-width:2.0px;stroke-linecap:butt;stroke-linejoin:miter;stroke-opacity:1"/>
<path class="bond-21 atom-12 atom-13" d="M 202.1,196.2 L 219.7,186.3" style="fill:none;fill-rule:evenodd;stroke:#000000;stroke-width:2.0px;stroke-linecap:butt;stroke-linejoin:miter;stroke-opacity:1"/>
<path class="bond-21 atom-12 atom-13" d="M 202.8,191.2 L 215.1,184.3" style="fill:none;fill-rule:evenodd;stroke:#000000;stroke-width:2.0px;stroke-linecap:butt;stroke-linejoin:miter;stroke-opacity:1"/>
<path class="bond-22 atom-12 atom-33" d="M 202.1,196.2 L 202.0,212.8" style="fill:none;fill-rule:evenodd;stroke:#000000;stroke-width:2.0px;stroke-linecap:butt;stroke-linejoin:miter;stroke-opacity:1"/>
<path class="bond-23 atom-13 atom-14" d="M 219.7,186.3 L 219.9,166.1" style="fill:none;fill-rule:evenodd;stroke:#000000;stroke-width:2.0px;stroke-linecap:butt;stroke-linejoin:miter;stroke-opacity:1"/>
<path class="bond-24 atom-13 atom-27" d="M 219.7,186.3 L 227.0,190.6" style="fill:none;fill-rule:evenodd;stroke:#000000;stroke-width:2.0px;stroke-linecap:butt;stroke-linejoin:miter;stroke-opacity:1"/>
<path class="bond-24 atom-13 atom-27" d="M 227.0,190.6 L 234.2,194.9" style="fill:none;fill-rule:evenodd;stroke:#0000FF;stroke-width:2.0px;stroke-linecap:butt;stroke-linejoin:miter;stroke-opacity:1"/>
<path class="bond-25 atom-14 atom-15" d="M 219.9,166.1 L 202.6,155.9" style="fill:none;fill-rule:evenodd;stroke:#000000;stroke-width:2.0px;stroke-linecap:butt;stroke-linejoin:miter;stroke-opacity:1"/>
<path class="bond-25 atom-14 atom-15" d="M 215.3,168.1 L 203.1,160.9" style="fill:none;fill-rule:evenodd;stroke:#000000;stroke-width:2.0px;stroke-linecap:butt;stroke-linejoin:miter;stroke-opacity:1"/>
<path class="bond-26 atom-14 atom-34" d="M 219.9,166.1 L 234.6,157.9" style="fill:none;fill-rule:evenodd;stroke:#000000;stroke-width:2.0px;stroke-linecap:butt;stroke-linejoin:miter;stroke-opacity:1"/>
<path class="bond-27 atom-15 atom-35" d="M 202.6,155.9 L 202.7,139.2" style="fill:none;fill-rule:evenodd;stroke:#000000;stroke-width:2.0px;stroke-linecap:butt;stroke-linejoin:miter;stroke-opacity:1"/>
<path class="bond-28 atom-16 atom-17" d="M 112.4,163.4 L 105.1,159.1" style="fill:none;fill-rule:evenodd;stroke:#0000FF;stroke-width:2.0px;stroke-linecap:butt;stroke-linejoin:miter;stroke-opacity:1"/>
<path class="bond-28 atom-16 atom-17" d="M 105.1,159.1 L 97.9,154.8" style="fill:none;fill-rule:evenodd;stroke:#000000;stroke-width:2.0px;stroke-linecap:butt;stroke-linejoin:miter;stroke-opacity:1"/>
<path class="bond-29 atom-16 atom-36" d="M 115.2,168.5 L 115.1,175.1" style="fill:none;fill-rule:evenodd;stroke:#0000FF;stroke-width:2.0px;stroke-linecap:butt;stroke-linejoin:miter;stroke-opacity:1"/>
<path class="bond-29 atom-16 atom-36" d="M 115.1,175.1 L 115.0,181.7" style="fill:none;fill-rule:evenodd;stroke:#000000;stroke-width:2.0px;stroke-linecap:butt;stroke-linejoin:miter;stroke-opacity:1"/>
<path class="bond-30 atom-17 atom-18" d="M 97.9,154.8 L 98.1,134.6" style="fill:none;fill-rule:evenodd;stroke:#000000;stroke-width:2.0px;stroke-linecap:butt;stroke-linejoin:miter;stroke-opacity:1"/>
<path class="bond-30 atom-17 atom-18" d="M 93.9,151.7 L 94.0,137.6" style="fill:none;fill-rule:evenodd;stroke:#000000;stroke-width:2.0px;stroke-linecap:butt;stroke-linejoin:miter;stroke-opacity:1"/>
<path class="bond-31 atom-17 atom-22" d="M 97.9,154.8 L 80.3,164.7" style="fill:none;fill-rule:evenodd;stroke:#000000;stroke-width:2.0px;stroke-linecap:butt;stroke-linejoin:miter;stroke-opacity:1"/>
<path class="bond-32 atom-18 atom-19" d="M 98.1,134.6 L 90.8,130.3" style="fill:none;fill-rule:evenodd;stroke:#000000;stroke-width:2.0px;stroke-linecap:butt;stroke-linejoin:miter;stroke-opacity:1"/>
<path class="bond-32 atom-18 atom-19" d="M 90.8,130.3 L 83.5,126.0" style="fill:none;fill-rule:evenodd;stroke:#0000FF;stroke-width:2.0px;stroke-linecap:butt;stroke-linejoin:miter;stroke-opacity:1"/>
<path class="bond-33 atom-18 atom-37" d="M 98.1,134.6 L 105.8,128.9" style="fill:none;fill-rule:evenodd;stroke:#000000;stroke-width:2.0px;stroke-linecap:butt;stroke-linejoin:miter;stroke-opacity:1"/>
<path class="bond-34 atom-19 atom-20" d="M 77.9,125.9 L 70.5,130.1" style="fill:none;fill-rule:evenodd;stroke:#0000FF;stroke-width:2.0px;stroke-linecap:butt;stroke-linejoin:miter;stroke-opacity:1"/>
<path class="bond-34 atom-19 atom-20" d="M 70.5,130.1 L 63.2,134.2" style="fill:none;fill-rule:evenodd;stroke:#000000;stroke-width:2.0px;stroke-linecap:butt;stroke-linejoin:miter;stroke-opacity:1"/>
<path class="bond-34 atom-19 atom-20" d="M 77.7,130.7 L 72.5,133.6" style="fill:none;fill-rule:evenodd;stroke:#0000FF;stroke-width:2.0px;stroke-linecap:butt;stroke-linejoin:miter;stroke-opacity:1"/>
<path class="bond-34 atom-19 atom-20" d="M 72.5,133.6 L 67.4,136.5" style="fill:none;fill-rule:evenodd;stroke:#000000;stroke-width:2.0px;stroke-linecap:butt;stroke-linejoin:miter;stroke-opacity:1"/>
<path class="bond-35 atom-20 atom-21" d="M 63.2,134.2 L 63.0,154.4" style="fill:none;fill-rule:evenodd;stroke:#000000;stroke-width:2.0px;stroke-linecap:butt;stroke-linejoin:miter;stroke-opacity:1"/>
<path class="bond-36 atom-20 atom-38" d="M 63.2,134.2 L 48.7,125.7" style="fill:none;fill-rule:evenodd;stroke:#000000;stroke-width:2.0px;stroke-linecap:butt;stroke-linejoin:miter;stroke-opacity:1"/>
<path class="bond-37 atom-21 atom-22" d="M 63.0,154.4 L 80.3,164.7" style="fill:none;fill-rule:evenodd;stroke:#000000;stroke-width:2.0px;stroke-linecap:butt;stroke-linejoin:miter;stroke-opacity:1"/>
<path class="bond-37 atom-21 atom-22" d="M 67.6,152.5 L 79.8,159.6" style="fill:none;fill-rule:evenodd;stroke:#000000;stroke-width:2.0px;stroke-linecap:butt;stroke-linejoin:miter;stroke-opacity:1"/>
<path class="bond-38 atom-21 atom-39" d="M 63.0,154.4 L 48.3,162.7" style="fill:none;fill-rule:evenodd;stroke:#000000;stroke-width:2.0px;stroke-linecap:butt;stroke-linejoin:miter;stroke-opacity:1"/>
<path class="bond-39 atom-22 atom-23" d="M 80.3,164.7 L 80.2,173.0" style="fill:none;fill-rule:evenodd;stroke:#000000;stroke-width:2.0px;stroke-linecap:butt;stroke-linejoin:miter;stroke-opacity:1"/>
<path class="bond-39 atom-22 atom-23" d="M 80.2,173.0 L 80.1,181.3" style="fill:none;fill-rule:evenodd;stroke:#CCCC00;stroke-width:2.0px;stroke-linecap:butt;stroke-linejoin:miter;stroke-opacity:1"/>
<path class="bond-40 atom-23 atom-24" d="M 82.6,182.8 L 89.8,182.9" style="fill:none;fill-rule:evenodd;stroke:#CCCC00;stroke-width:2.0px;stroke-linecap:butt;stroke-linejoin:miter;stroke-opacity:1"/>
<path class="bond-40 atom-23 atom-24" d="M 89.8,182.9 L 97.0,183.0" style="fill:none;fill-rule:evenodd;stroke:#FF0000;stroke-width:2.0px;stroke-linecap:butt;stroke-linejoin:miter;stroke-opacity:1"/>
<path class="bond-40 atom-23 atom-24" d="M 82.5,186.8 L 89.7,186.9" style="fill:none;fill-rule:evenodd;stroke:#CCCC00;stroke-width:2.0px;stroke-linecap:butt;stroke-linejoin:miter;stroke-opacity:1"/>
<path class="bond-40 atom-23 atom-24" d="M 89.7,186.9 L 96.9,187.0" style="fill:none;fill-rule:evenodd;stroke:#FF0000;stroke-width:2.0px;stroke-linecap:butt;stroke-linejoin:miter;stroke-opacity:1"/>
<path class="bond-41 atom-23 atom-25" d="M 77.6,186.8 L 70.4,186.7" style="fill:none;fill-rule:evenodd;stroke:#CCCC00;stroke-width:2.0px;stroke-linecap:butt;stroke-linejoin:miter;stroke-opacity:1"/>
<path class="bond-41 atom-23 atom-25" d="M 70.4,186.7 L 63.2,186.6" style="fill:none;fill-rule:evenodd;stroke:#FF0000;stroke-width:2.0px;stroke-linecap:butt;stroke-linejoin:miter;stroke-opacity:1"/>
<path class="bond-41 atom-23 atom-25" d="M 77.6,182.8 L 70.4,182.7" style="fill:none;fill-rule:evenodd;stroke:#CCCC00;stroke-width:2.0px;stroke-linecap:butt;stroke-linejoin:miter;stroke-opacity:1"/>
<path class="bond-41 atom-23 atom-25" d="M 70.4,182.7 L 63.2,182.6" style="fill:none;fill-rule:evenodd;stroke:#FF0000;stroke-width:2.0px;stroke-linecap:butt;stroke-linejoin:miter;stroke-opacity:1"/>
<path class="bond-42 atom-23 atom-26" d="M 80.0,188.5 L 80.0,196.7" style="fill:none;fill-rule:evenodd;stroke:#CCCC00;stroke-width:2.0px;stroke-linecap:butt;stroke-linejoin:miter;stroke-opacity:1"/>
<path class="bond-42 atom-23 atom-26" d="M 80.0,196.7 L 79.9,205.0" style="fill:none;fill-rule:evenodd;stroke:#000000;stroke-width:2.0px;stroke-linecap:butt;stroke-linejoin:miter;stroke-opacity:1"/>
<path class="bond-43 atom-26 atom-40" d="M 79.9,205.0 L 62.6,204.8" style="fill:none;fill-rule:evenodd;stroke:#000000;stroke-width:2.0px;stroke-linecap:butt;stroke-linejoin:miter;stroke-opacity:1"/>
<path class="bond-44 atom-26 atom-41" d="M 79.9,205.0 L 97.1,205.1" style="fill:none;fill-rule:evenodd;stroke:#000000;stroke-width:2.0px;stroke-linecap:butt;stroke-linejoin:miter;stroke-opacity:1"/>
<path class="bond-45 atom-26 atom-42" d="M 79.9,205.0 L 79.7,221.6" style="fill:none;fill-rule:evenodd;stroke:#000000;stroke-width:2.0px;stroke-linecap:butt;stroke-linejoin:miter;stroke-opacity:1"/>
<path class="bond-46 atom-27 atom-43" d="M 239.9,195.0 L 245.8,191.6" style="fill:none;fill-rule:evenodd;stroke:#0000FF;stroke-width:2.0px;stroke-linecap:butt;stroke-linejoin:miter;stroke-opacity:1"/>
<path class="bond-46 atom-27 atom-43" d="M 245.8,191.6 L 251.7,188.3" style="fill:none;fill-rule:evenodd;stroke:#000000;stroke-width:2.0px;stroke-linecap:butt;stroke-linejoin:miter;stroke-opacity:1"/>
<path class="bond-47 atom-27 atom-44" d="M 237.0,200.1 L 236.9,206.6" style="fill:none;fill-rule:evenodd;stroke:#0000FF;stroke-width:2.0px;stroke-linecap:butt;stroke-linejoin:miter;stroke-opacity:1"/>
<path class="bond-47 atom-27 atom-44" d="M 236.9,206.6 L 236.9,213.2" style="fill:none;fill-rule:evenodd;stroke:#000000;stroke-width:2.0px;stroke-linecap:butt;stroke-linejoin:miter;stroke-opacity:1"/>
<path class="atom-6" d="M 184.2 122.6 L 186.0 125.6 Q 186.2 125.9, 186.5 126.5 Q 186.8 127.0, 186.8 127.0 L 186.8 122.6 L 187.6 122.6 L 187.6 128.3 L 186.8 128.3 L 184.8 125.0 Q 184.6 124.6, 184.3 124.2 Q 184.1 123.7, 184.0 123.6 L 184.0 128.3 L 183.3 128.3 L 183.3 122.6 L 184.2 122.6 " fill="#0000FF"/>
<path class="atom-9" d="M 149.5 102.1 L 151.4 105.1 Q 151.5 105.4, 151.8 105.9 Q 152.1 106.5, 152.2 106.5 L 152.2 102.1 L 152.9 102.1 L 152.9 107.8 L 152.1 107.8 L 150.1 104.5 Q 149.9 104.1, 149.6 103.7 Q 149.4 103.2, 149.3 103.1 L 149.3 107.8 L 148.6 107.8 L 148.6 102.1 L 149.5 102.1 " fill="#0000FF"/>
<path class="atom-16" d="M 113.9 162.2 L 115.8 165.2 Q 116.0 165.5, 116.3 166.0 Q 116.6 166.6, 116.6 166.6 L 116.6 162.2 L 117.4 162.2 L 117.4 167.9 L 116.6 167.9 L 114.6 164.6 Q 114.3 164.2, 114.1 163.7 Q 113.9 163.3, 113.8 163.2 L 113.8 167.9 L 113.0 167.9 L 113.0 162.2 L 113.9 162.2 " fill="#0000FF"/>
<path class="atom-19" d="M 79.5 121.5 L 81.3 124.5 Q 81.5 124.8, 81.8 125.4 Q 82.1 125.9, 82.1 125.9 L 82.1 121.5 L 82.9 121.5 L 82.9 127.2 L 82.1 127.2 L 80.1 123.9 Q 79.9 123.5, 79.6 123.1 Q 79.4 122.6, 79.3 122.5 L 79.3 127.2 L 78.6 127.2 L 78.6 121.5 L 79.5 121.5 " fill="#0000FF"/>
<path class="atom-23" d="M 78.5 186.8 Q 78.5 186.8, 78.8 186.9 Q 79.1 187.0, 79.4 187.1 Q 79.7 187.1, 79.9 187.1 Q 80.5 187.1, 80.8 186.9 Q 81.1 186.6, 81.1 186.2 Q 81.1 185.8, 81.0 185.7 Q 80.8 185.5, 80.6 185.4 Q 80.3 185.3, 79.9 185.1 Q 79.4 185.0, 79.1 184.8 Q 78.8 184.7, 78.6 184.4 Q 78.4 184.1, 78.4 183.6 Q 78.4 182.8, 78.9 182.4 Q 79.4 182.0, 80.3 182.0 Q 81.0 182.0, 81.7 182.3 L 81.5 182.9 Q 80.9 182.6, 80.3 182.6 Q 79.8 182.6, 79.5 182.8 Q 79.2 183.1, 79.2 183.5 Q 79.2 183.8, 79.3 184.0 Q 79.5 184.1, 79.7 184.2 Q 80.0 184.4, 80.3 184.5 Q 80.9 184.6, 81.2 184.8 Q 81.5 185.0, 81.7 185.3 Q 81.9 185.6, 81.9 186.2 Q 81.9 187.0, 81.4 187.4 Q 80.9 187.8, 80.0 187.8 Q 79.5 187.8, 79.1 187.7 Q 78.7 187.6, 78.3 187.4 L 78.5 186.8 " fill="#CCCC00"/>
<path class="atom-24" d="M 97.6 185.0 Q 97.6 183.7, 98.3 182.9 Q 99.0 182.1, 100.2 182.1 Q 101.5 182.1, 102.2 182.9 Q 102.9 183.7, 102.9 185.0 Q 102.9 186.4, 102.2 187.2 Q 101.5 188.0, 100.2 188.0 Q 99.0 188.0, 98.3 187.2 Q 97.6 186.4, 97.6 185.0 M 100.2 187.3 Q 101.1 187.3, 101.6 186.8 Q 102.1 186.2, 102.1 185.0 Q 102.1 183.9, 101.6 183.3 Q 101.1 182.8, 100.2 182.8 Q 99.4 182.8, 98.9 183.3 Q 98.4 183.9, 98.4 185.0 Q 98.4 186.2, 98.9 186.8 Q 99.4 187.3, 100.2 187.3 " fill="#FF0000"/>
<path class="atom-25" d="M 57.3 184.6 Q 57.3 183.2, 58.0 182.5 Q 58.7 181.7, 59.9 181.7 Q 61.2 181.7, 61.9 182.5 Q 62.6 183.2, 62.6 184.6 Q 62.6 186.0, 61.9 186.8 Q 61.2 187.6, 59.9 187.6 Q 58.7 187.6, 58.0 186.8 Q 57.3 186.0, 57.3 184.6 M 59.9 186.9 Q 60.8 186.9, 61.3 186.3 Q 61.7 185.7, 61.7 184.6 Q 61.7 183.5, 61.3 182.9 Q 60.8 182.3, 59.9 182.3 Q 59.1 182.3, 58.6 182.9 Q 58.1 183.5, 58.1 184.6 Q 58.1 185.8, 58.6 186.3 Q 59.1 186.9, 59.9 186.9 " fill="#FF0000"/>
<path class="atom-27" d="M 235.8 193.7 L 237.7 196.7 Q 237.8 197.0, 238.1 197.6 Q 238.4 198.1, 238.5 198.1 L 238.5 193.7 L 239.2 193.7 L 239.2 199.4 L 238.4 199.4 L 236.4 196.1 Q 236.2 195.7, 235.9 195.3 Q 235.7 194.8, 235.6 194.7 L 235.6 199.4 L 234.9 199.4 L 234.9 193.7 L 235.8 193.7 " fill="#0000FF"/>
<path class="atom-28" d="M 120.3 124.1 L 121.0 124.1 L 121.0 126.5 L 124.0 126.5 L 124.0 124.1 L 124.7 124.1 L 124.7 129.8 L 124.0 129.8 L 124.0 127.1 L 121.0 127.1 L 121.0 129.8 L 120.3 129.8 L 120.3 124.1 " fill="#000000"/>
<path class="atom-29" d="M 147.7 182.7 L 148.4 182.7 L 148.4 185.1 L 151.4 185.1 L 151.4 182.7 L 152.1 182.7 L 152.1 188.4 L 151.4 188.4 L 151.4 185.8 L 148.4 185.8 L 148.4 188.4 L 147.7 188.4 L 147.7 182.7 " fill="#000000"/>
<path class="atom-30" d="M 201.0 92.6 L 201.8 92.6 L 201.8 95.0 L 204.7 95.0 L 204.7 92.6 L 205.4 92.6 L 205.4 98.3 L 204.7 98.3 L 204.7 95.6 L 201.8 95.6 L 201.8 98.3 L 201.0 98.3 L 201.0 92.6 " fill="#000000"/>
<path class="atom-31" d="M 166.3 72.0 L 167.1 72.0 L 167.1 74.5 L 170.0 74.5 L 170.0 72.0 L 170.8 72.0 L 170.8 77.7 L 170.0 77.7 L 170.0 75.1 L 167.1 75.1 L 167.1 77.7 L 166.3 77.7 L 166.3 72.0 " fill="#000000"/>
<path class="atom-32" d="M 165.0 193.0 L 165.8 193.0 L 165.8 195.4 L 168.7 195.4 L 168.7 193.0 L 169.5 193.0 L 169.5 198.7 L 168.7 198.7 L 168.7 196.0 L 165.8 196.0 L 165.8 198.7 L 165.0 198.7 L 165.0 193.0 " fill="#000000"/>
<path class="atom-33" d="M 199.7 213.5 L 200.5 213.5 L 200.5 215.9 L 203.4 215.9 L 203.4 213.5 L 204.2 213.5 L 204.2 219.2 L 203.4 219.2 L 203.4 216.5 L 200.5 216.5 L 200.5 219.2 L 199.7 219.2 L 199.7 213.5 " fill="#000000"/>
<path class="atom-34" d="M 235.2 153.4 L 236.0 153.4 L 236.0 155.8 L 238.9 155.8 L 238.9 153.4 L 239.7 153.4 L 239.7 159.1 L 238.9 159.1 L 238.9 156.5 L 236.0 156.5 L 236.0 159.1 L 235.2 159.1 L 235.2 153.4 " fill="#000000"/>
<path class="atom-35" d="M 200.6 132.9 L 201.3 132.9 L 201.3 135.3 L 204.2 135.3 L 204.2 132.9 L 205.0 132.9 L 205.0 138.6 L 204.2 138.6 L 204.2 135.9 L 201.3 135.9 L 201.3 138.6 L 200.6 138.6 L 200.6 132.9 " fill="#000000"/>
<path class="atom-36" d="M 112.8 182.3 L 113.5 182.3 L 113.5 184.7 L 116.4 184.7 L 116.4 182.3 L 117.2 182.3 L 117.2 188.0 L 116.4 188.0 L 116.4 185.4 L 113.5 185.4 L 113.5 188.0 L 112.8 188.0 L 112.8 182.3 " fill="#000000"/>
<path class="atom-37" d="M 106.5 123.9 L 107.3 123.9 L 107.3 126.3 L 110.2 126.3 L 110.2 123.9 L 110.9 123.9 L 110.9 129.6 L 110.2 129.6 L 110.2 127.0 L 107.3 127.0 L 107.3 129.6 L 106.5 129.6 L 106.5 123.9 " fill="#000000"/>
<path class="atom-38" d="M 43.6 121.1 L 44.4 121.1 L 44.4 123.5 L 47.3 123.5 L 47.3 121.1 L 48.1 121.1 L 48.1 126.8 L 47.3 126.8 L 47.3 124.2 L 44.4 124.2 L 44.4 126.8 L 43.6 126.8 L 43.6 121.1 " fill="#000000"/>
<path class="atom-39" d="M 43.2 161.4 L 43.9 161.4 L 43.9 163.9 L 46.9 163.9 L 46.9 161.4 L 47.6 161.4 L 47.6 167.1 L 46.9 167.1 L 46.9 164.5 L 43.9 164.5 L 43.9 167.1 L 43.2 167.1 L 43.2 161.4 " fill="#000000"/>
<path class="atom-40" d="M 57.5 201.9 L 58.3 201.9 L 58.3 204.3 L 61.2 204.3 L 61.2 201.9 L 62.0 201.9 L 62.0 207.6 L 61.2 207.6 L 61.2 205.0 L 58.3 205.0 L 58.3 207.6 L 57.5 207.6 L 57.5 201.9 " fill="#000000"/>
<path class="atom-41" d="M 97.8 202.3 L 98.6 202.3 L 98.6 204.7 L 101.5 204.7 L 101.5 202.3 L 102.3 202.3 L 102.3 208.0 L 101.5 208.0 L 101.5 205.4 L 98.6 205.4 L 98.6 208.0 L 97.8 208.0 L 97.8 202.3 " fill="#000000"/>
<path class="atom-42" d="M 77.4 222.3 L 78.2 222.3 L 78.2 224.7 L 81.1 224.7 L 81.1 222.3 L 81.9 222.3 L 81.9 228.0 L 81.1 228.0 L 81.1 225.3 L 78.2 225.3 L 78.2 228.0 L 77.4 228.0 L 77.4 222.3 " fill="#000000"/>
<path class="atom-43" d="M 252.4 183.8 L 253.1 183.8 L 253.1 186.2 L 256.1 186.2 L 256.1 183.8 L 256.8 183.8 L 256.8 189.5 L 256.1 189.5 L 256.1 186.9 L 253.1 186.9 L 253.1 189.5 L 252.4 189.5 L 252.4 183.8 " fill="#000000"/>
<path class="atom-44" d="M 234.6 213.8 L 235.4 213.8 L 235.4 216.3 L 238.3 216.3 L 238.3 213.8 L 239.1 213.8 L 239.1 219.6 L 238.3 219.6 L 238.3 216.9 L 235.4 216.9 L 235.4 219.6 L 234.6 219.6 L 234.6 213.8 " fill="#000000"/>
<path class="bond-0 atom-0 atom-3" d="M 459.3,156.8 L 441.5,166.1" style="fill:none;fill-rule:evenodd;stroke:#000000;stroke-width:2.0px;stroke-linecap:butt;stroke-linejoin:miter;stroke-opacity:1"/>
<path class="bond-0 atom-0 atom-3" d="M 454.8,154.6 L 442.3,161.2" style="fill:none;fill-rule:evenodd;stroke:#000000;stroke-width:2.0px;stroke-linecap:butt;stroke-linejoin:miter;stroke-opacity:1"/>
<path class="bond-1 atom-0 atom-5" d="M 459.3,156.8 L 460.1,136.6" style="fill:none;fill-rule:evenodd;stroke:#000000;stroke-width:2.0px;stroke-linecap:butt;stroke-linejoin:miter;stroke-opacity:1"/>
<path class="bond-2 atom-0 atom-10" d="M 459.3,156.8 L 476.4,167.5" style="fill:none;fill-rule:evenodd;stroke:#000000;stroke-width:2.0px;stroke-linecap:butt;stroke-linejoin:miter;stroke-opacity:1"/>
<path class="bond-3 atom-1 atom-2" d="M 425.2,135.2 L 424.4,155.4" style="fill:none;fill-rule:evenodd;stroke:#000000;stroke-width:2.0px;stroke-linecap:butt;stroke-linejoin:miter;stroke-opacity:1"/>
<path class="bond-3 atom-1 atom-2" d="M 429.2,138.4 L 428.6,152.5" style="fill:none;fill-rule:evenodd;stroke:#000000;stroke-width:2.0px;stroke-linecap:butt;stroke-linejoin:miter;stroke-opacity:1"/>
<path class="bond-4 atom-1 atom-4" d="M 425.2,135.2 L 443.1,125.9" style="fill:none;fill-rule:evenodd;stroke:#000000;stroke-width:2.0px;stroke-linecap:butt;stroke-linejoin:miter;stroke-opacity:1"/>
<path class="bond-5 atom-1 atom-29" d="M 425.2,135.2 L 417.9,129.2" style="fill:none;fill-rule:evenodd;stroke:#000000;stroke-width:2.0px;stroke-linecap:butt;stroke-linejoin:miter;stroke-opacity:1"/>
<path class="bond-6 atom-2 atom-3" d="M 424.4,155.4 L 441.5,166.1" style="fill:none;fill-rule:evenodd;stroke:#000000;stroke-width:2.0px;stroke-linecap:butt;stroke-linejoin:miter;stroke-opacity:1"/>
<path class="bond-7 atom-2 atom-14" d="M 424.4,155.4 L 416.9,159.3" style="fill:none;fill-rule:evenodd;stroke:#000000;stroke-width:2.0px;stroke-linecap:butt;stroke-linejoin:miter;stroke-opacity:1"/>
<path class="bond-7 atom-2 atom-14" d="M 416.9,159.3 L 409.4,163.3" style="fill:none;fill-rule:evenodd;stroke:#0000FF;stroke-width:2.0px;stroke-linecap:butt;stroke-linejoin:miter;stroke-opacity:1"/>
<path class="bond-8 atom-3 atom-30" d="M 441.5,166.1 L 440.8,182.8" style="fill:none;fill-rule:evenodd;stroke:#000000;stroke-width:2.0px;stroke-linecap:butt;stroke-linejoin:miter;stroke-opacity:1"/>
<path class="bond-9 atom-4 atom-5" d="M 443.1,125.9 L 460.1,136.6" style="fill:none;fill-rule:evenodd;stroke:#000000;stroke-width:2.0px;stroke-linecap:butt;stroke-linejoin:miter;stroke-opacity:1"/>
<path class="bond-9 atom-4 atom-5" d="M 443.5,130.9 L 455.4,138.4" style="fill:none;fill-rule:evenodd;stroke:#000000;stroke-width:2.0px;stroke-linecap:butt;stroke-linejoin:miter;stroke-opacity:1"/>
<path class="bond-10 atom-4 atom-9" d="M 443.1,125.9 L 443.4,117.6" style="fill:none;fill-rule:evenodd;stroke:#000000;stroke-width:2.0px;stroke-linecap:butt;stroke-linejoin:miter;stroke-opacity:1"/>
<path class="bond-10 atom-4 atom-9" d="M 443.4,117.6 L 443.8,109.2" style="fill:none;fill-rule:evenodd;stroke:#0000FF;stroke-width:2.0px;stroke-linecap:butt;stroke-linejoin:miter;stroke-opacity:1"/>
<path class="bond-11 atom-5 atom-6" d="M 460.1,136.6 L 467.6,132.7" style="fill:none;fill-rule:evenodd;stroke:#000000;stroke-width:2.0px;stroke-linecap:butt;stroke-linejoin:miter;stroke-opacity:1"/>
<path class="bond-11 atom-5 atom-6" d="M 467.6,132.7 L 475.1,128.7" style="fill:none;fill-rule:evenodd;stroke:#0000FF;stroke-width:2.0px;stroke-linecap:butt;stroke-linejoin:miter;stroke-opacity:1"/>
<path class="bond-12 atom-6 atom-7" d="M 478.1,123.8 L 478.4,115.4" style="fill:none;fill-rule:evenodd;stroke:#0000FF;stroke-width:2.0px;stroke-linecap:butt;stroke-linejoin:miter;stroke-opacity:1"/>
<path class="bond-12 atom-6 atom-7" d="M 478.4,115.4 L 478.8,107.1" style="fill:none;fill-rule:evenodd;stroke:#000000;stroke-width:2.0px;stroke-linecap:butt;stroke-linejoin:miter;stroke-opacity:1"/>
<path class="bond-12 atom-6 atom-7" d="M 474.2,121.1 L 474.4,115.3" style="fill:none;fill-rule:evenodd;stroke:#0000FF;stroke-width:2.0px;stroke-linecap:butt;stroke-linejoin:miter;stroke-opacity:1"/>
<path class="bond-12 atom-6 atom-7" d="M 474.4,115.3 L 474.6,109.5" style="fill:none;fill-rule:evenodd;stroke:#000000;stroke-width:2.0px;stroke-linecap:butt;stroke-linejoin:miter;stroke-opacity:1"/>
<path class="bond-13 atom-7 atom-8" d="M 478.8,107.1 L 461.7,96.4" style="fill:none;fill-rule:evenodd;stroke:#000000;stroke-width:2.0px;stroke-linecap:butt;stroke-linejoin:miter;stroke-opacity:1"/>
<path class="bond-14 atom-7 atom-31" d="M 478.8,107.1 L 493.7,99.3" style="fill:none;fill-rule:evenodd;stroke:#000000;stroke-width:2.0px;stroke-linecap:butt;stroke-linejoin:miter;stroke-opacity:1"/>
<path class="bond-15 atom-8 atom-9" d="M 461.7,96.4 L 454.2,100.3" style="fill:none;fill-rule:evenodd;stroke:#000000;stroke-width:2.0px;stroke-linecap:butt;stroke-linejoin:miter;stroke-opacity:1"/>
<path class="bond-15 atom-8 atom-9" d="M 454.2,100.3 L 446.7,104.3" style="fill:none;fill-rule:evenodd;stroke:#0000FF;stroke-width:2.0px;stroke-linecap:butt;stroke-linejoin:miter;stroke-opacity:1"/>
<path class="bond-15 atom-8 atom-9" d="M 461.4,101.1 L 456.1,103.9" style="fill:none;fill-rule:evenodd;stroke:#000000;stroke-width:2.0px;stroke-linecap:butt;stroke-linejoin:miter;stroke-opacity:1"/>
<path class="bond-15 atom-8 atom-9" d="M 456.1,103.9 L 450.8,106.6" style="fill:none;fill-rule:evenodd;stroke:#0000FF;stroke-width:2.0px;stroke-linecap:butt;stroke-linejoin:miter;stroke-opacity:1"/>
<path class="bond-16 atom-8 atom-32" d="M 461.7,96.4 L 462.4,79.7" style="fill:none;fill-rule:evenodd;stroke:#000000;stroke-width:2.0px;stroke-linecap:butt;stroke-linejoin:miter;stroke-opacity:1"/>
<path class="bond-17 atom-10 atom-11" d="M 476.4,167.5 L 475.6,187.7" style="fill:none;fill-rule:evenodd;stroke:#000000;stroke-width:2.0px;stroke-linecap:butt;stroke-linejoin:miter;stroke-opacity:1"/>
<path class="bond-17 atom-10 atom-11" d="M 480.3,170.7 L 479.7,184.8" style="fill:none;fill-rule:evenodd;stroke:#000000;stroke-width:2.0px;stroke-linecap:butt;stroke-linejoin:miter;stroke-opacity:1"/>
<path class="bond-18 atom-10 atom-13" d="M 476.4,167.5 L 494.2,158.2" style="fill:none;fill-rule:evenodd;stroke:#000000;stroke-width:2.0px;stroke-linecap:butt;stroke-linejoin:miter;stroke-opacity:1"/>
<path class="bond-19 atom-11 atom-12" d="M 475.6,187.7 L 492.6,198.4" style="fill:none;fill-rule:evenodd;stroke:#000000;stroke-width:2.0px;stroke-linecap:butt;stroke-linejoin:miter;stroke-opacity:1"/>
<path class="bond-20 atom-11 atom-33" d="M 475.6,187.7 L 460.6,195.5" style="fill:none;fill-rule:evenodd;stroke:#000000;stroke-width:2.0px;stroke-linecap:butt;stroke-linejoin:miter;stroke-opacity:1"/>
<path class="bond-21 atom-12 atom-26" d="M 492.6,198.4 L 510.4,189.1" style="fill:none;fill-rule:evenodd;stroke:#000000;stroke-width:2.0px;stroke-linecap:butt;stroke-linejoin:miter;stroke-opacity:1"/>
<path class="bond-21 atom-12 atom-26" d="M 493.4,193.5 L 505.9,186.9" style="fill:none;fill-rule:evenodd;stroke:#000000;stroke-width:2.0px;stroke-linecap:butt;stroke-linejoin:miter;stroke-opacity:1"/>
<path class="bond-22 atom-12 atom-34" d="M 492.6,198.4 L 491.9,215.1" style="fill:none;fill-rule:evenodd;stroke:#000000;stroke-width:2.0px;stroke-linecap:butt;stroke-linejoin:miter;stroke-opacity:1"/>
<path class="bond-23 atom-13 atom-25" d="M 494.2,158.2 L 511.2,168.9" style="fill:none;fill-rule:evenodd;stroke:#000000;stroke-width:2.0px;stroke-linecap:butt;stroke-linejoin:miter;stroke-opacity:1"/>
<path class="bond-23 atom-13 atom-25" d="M 494.6,163.2 L 506.5,170.7" style="fill:none;fill-rule:evenodd;stroke:#000000;stroke-width:2.0px;stroke-linecap:butt;stroke-linejoin:miter;stroke-opacity:1"/>
<path class="bond-24 atom-13 atom-35" d="M 494.2,158.2 L 494.9,141.5" style="fill:none;fill-rule:evenodd;stroke:#000000;stroke-width:2.0px;stroke-linecap:butt;stroke-linejoin:miter;stroke-opacity:1"/>
<path class="bond-25 atom-14 atom-15" d="M 403.8,163.0 L 396.7,158.5" style="fill:none;fill-rule:evenodd;stroke:#0000FF;stroke-width:2.0px;stroke-linecap:butt;stroke-linejoin:miter;stroke-opacity:1"/>
<path class="bond-25 atom-14 atom-15" d="M 396.7,158.5 L 389.6,154.0" style="fill:none;fill-rule:evenodd;stroke:#000000;stroke-width:2.0px;stroke-linecap:butt;stroke-linejoin:miter;stroke-opacity:1"/>
<path class="bond-26 atom-14 atom-36" d="M 406.5,168.3 L 406.2,174.8" style="fill:none;fill-rule:evenodd;stroke:#0000FF;stroke-width:2.0px;stroke-linecap:butt;stroke-linejoin:miter;stroke-opacity:1"/>
<path class="bond-26 atom-14 atom-36" d="M 406.2,174.8 L 405.9,181.4" style="fill:none;fill-rule:evenodd;stroke:#000000;stroke-width:2.0px;stroke-linecap:butt;stroke-linejoin:miter;stroke-opacity:1"/>
<path class="bond-27 atom-15 atom-16" d="M 389.6,154.0 L 390.4,133.9" style="fill:none;fill-rule:evenodd;stroke:#000000;stroke-width:2.0px;stroke-linecap:butt;stroke-linejoin:miter;stroke-opacity:1"/>
<path class="bond-27 atom-15 atom-16" d="M 385.7,150.8 L 386.2,136.7" style="fill:none;fill-rule:evenodd;stroke:#000000;stroke-width:2.0px;stroke-linecap:butt;stroke-linejoin:miter;stroke-opacity:1"/>
<path class="bond-28 atom-15 atom-20" d="M 389.6,154.0 L 371.7,163.4" style="fill:none;fill-rule:evenodd;stroke:#000000;stroke-width:2.0px;stroke-linecap:butt;stroke-linejoin:miter;stroke-opacity:1"/>
<path class="bond-29 atom-16 atom-17" d="M 390.4,133.9 L 383.3,129.4" style="fill:none;fill-rule:evenodd;stroke:#000000;stroke-width:2.0px;stroke-linecap:butt;stroke-linejoin:miter;stroke-opacity:1"/>
<path class="bond-29 atom-16 atom-17" d="M 383.3,129.4 L 376.2,124.9" style="fill:none;fill-rule:evenodd;stroke:#0000FF;stroke-width:2.0px;stroke-linecap:butt;stroke-linejoin:miter;stroke-opacity:1"/>
<path class="bond-30 atom-16 atom-37" d="M 390.4,133.9 L 398.4,128.3" style="fill:none;fill-rule:evenodd;stroke:#000000;stroke-width:2.0px;stroke-linecap:butt;stroke-linejoin:miter;stroke-opacity:1"/>
<path class="bond-31 atom-17 atom-18" d="M 370.5,124.6 L 363.0,128.5" style="fill:none;fill-rule:evenodd;stroke:#0000FF;stroke-width:2.0px;stroke-linecap:butt;stroke-linejoin:miter;stroke-opacity:1"/>
<path class="bond-31 atom-17 atom-18" d="M 363.0,128.5 L 355.5,132.5" style="fill:none;fill-rule:evenodd;stroke:#000000;stroke-width:2.0px;stroke-linecap:butt;stroke-linejoin:miter;stroke-opacity:1"/>
<path class="bond-31 atom-17 atom-18" d="M 370.1,129.3 L 364.9,132.1" style="fill:none;fill-rule:evenodd;stroke:#0000FF;stroke-width:2.0px;stroke-linecap:butt;stroke-linejoin:miter;stroke-opacity:1"/>
<path class="bond-31 atom-17 atom-18" d="M 364.9,132.1 L 359.6,134.8" style="fill:none;fill-rule:evenodd;stroke:#000000;stroke-width:2.0px;stroke-linecap:butt;stroke-linejoin:miter;stroke-opacity:1"/>
<path class="bond-32 atom-18 atom-19" d="M 355.5,132.5 L 354.7,152.6" style="fill:none;fill-rule:evenodd;stroke:#000000;stroke-width:2.0px;stroke-linecap:butt;stroke-linejoin:miter;stroke-opacity:1"/>
<path class="bond-33 atom-18 atom-38" d="M 355.5,132.5 L 341.3,123.5" style="fill:none;fill-rule:evenodd;stroke:#000000;stroke-width:2.0px;stroke-linecap:butt;stroke-linejoin:miter;stroke-opacity:1"/>
<path class="bond-34 atom-19 atom-20" d="M 354.7,152.6 L 371.7,163.4" style="fill:none;fill-rule:evenodd;stroke:#000000;stroke-width:2.0px;stroke-linecap:butt;stroke-linejoin:miter;stroke-opacity:1"/>
<path class="bond-34 atom-19 atom-20" d="M 359.4,150.8 L 371.3,158.3" style="fill:none;fill-rule:evenodd;stroke:#000000;stroke-width:2.0px;stroke-linecap:butt;stroke-linejoin:miter;stroke-opacity:1"/>
<path class="bond-35 atom-19 atom-39" d="M 354.7,152.6 L 339.7,160.5" style="fill:none;fill-rule:evenodd;stroke:#000000;stroke-width:2.0px;stroke-linecap:butt;stroke-linejoin:miter;stroke-opacity:1"/>
<path class="bond-36 atom-20 atom-21" d="M 371.7,163.4 L 371.4,171.7" style="fill:none;fill-rule:evenodd;stroke:#000000;stroke-width:2.0px;stroke-linecap:butt;stroke-linejoin:miter;stroke-opacity:1"/>
<path class="bond-36 atom-20 atom-21" d="M 371.4,171.7 L 371.1,180.0" style="fill:none;fill-rule:evenodd;stroke:#CCCC00;stroke-width:2.0px;stroke-linecap:butt;stroke-linejoin:miter;stroke-opacity:1"/>
<path class="bond-37 atom-21 atom-22" d="M 373.5,181.6 L 380.7,181.9" style="fill:none;fill-rule:evenodd;stroke:#CCCC00;stroke-width:2.0px;stroke-linecap:butt;stroke-linejoin:miter;stroke-opacity:1"/>
<path class="bond-37 atom-21 atom-22" d="M 380.7,181.9 L 387.9,182.2" style="fill:none;fill-rule:evenodd;stroke:#FF0000;stroke-width:2.0px;stroke-linecap:butt;stroke-linejoin:miter;stroke-opacity:1"/>
<path class="bond-37 atom-21 atom-22" d="M 373.3,185.6 L 380.5,185.9" style="fill:none;fill-rule:evenodd;stroke:#CCCC00;stroke-width:2.0px;stroke-linecap:butt;stroke-linejoin:miter;stroke-opacity:1"/>
<path class="bond-37 atom-21 atom-22" d="M 380.5,185.9 L 387.7,186.2" style="fill:none;fill-rule:evenodd;stroke:#FF0000;stroke-width:2.0px;stroke-linecap:butt;stroke-linejoin:miter;stroke-opacity:1"/>
<path class="bond-38 atom-21 atom-23" d="M 368.4,185.4 L 361.2,185.1" style="fill:none;fill-rule:evenodd;stroke:#CCCC00;stroke-width:2.0px;stroke-linecap:butt;stroke-linejoin:miter;stroke-opacity:1"/>
<path class="bond-38 atom-21 atom-23" d="M 361.2,185.1 L 354.0,184.8" style="fill:none;fill-rule:evenodd;stroke:#FF0000;stroke-width:2.0px;stroke-linecap:butt;stroke-linejoin:miter;stroke-opacity:1"/>
<path class="bond-38 atom-21 atom-23" d="M 368.5,181.4 L 361.3,181.1" style="fill:none;fill-rule:evenodd;stroke:#CCCC00;stroke-width:2.0px;stroke-linecap:butt;stroke-linejoin:miter;stroke-opacity:1"/>
<path class="bond-38 atom-21 atom-23" d="M 361.3,181.1 L 354.1,180.8" style="fill:none;fill-rule:evenodd;stroke:#FF0000;stroke-width:2.0px;stroke-linecap:butt;stroke-linejoin:miter;stroke-opacity:1"/>
<path class="bond-39 atom-21 atom-24" d="M 370.8,187.2 L 370.4,195.4" style="fill:none;fill-rule:evenodd;stroke:#CCCC00;stroke-width:2.0px;stroke-linecap:butt;stroke-linejoin:miter;stroke-opacity:1"/>
<path class="bond-39 atom-21 atom-24" d="M 370.4,195.4 L 370.1,203.6" style="fill:none;fill-rule:evenodd;stroke:#000000;stroke-width:2.0px;stroke-linecap:butt;stroke-linejoin:miter;stroke-opacity:1"/>
<path class="bond-40 atom-24 atom-40" d="M 370.1,203.6 L 352.9,202.9" style="fill:none;fill-rule:evenodd;stroke:#000000;stroke-width:2.0px;stroke-linecap:butt;stroke-linejoin:miter;stroke-opacity:1"/>
<path class="bond-41 atom-24 atom-41" d="M 370.1,203.6 L 387.4,204.3" style="fill:none;fill-rule:evenodd;stroke:#000000;stroke-width:2.0px;stroke-linecap:butt;stroke-linejoin:miter;stroke-opacity:1"/>
<path class="bond-42 atom-24 atom-42" d="M 370.1,203.6 L 369.5,220.3" style="fill:none;fill-rule:evenodd;stroke:#000000;stroke-width:2.0px;stroke-linecap:butt;stroke-linejoin:miter;stroke-opacity:1"/>
<path class="bond-43 atom-25 atom-26" d="M 511.2,168.9 L 510.4,189.1" style="fill:none;fill-rule:evenodd;stroke:#000000;stroke-width:2.0px;stroke-linecap:butt;stroke-linejoin:miter;stroke-opacity:1"/>
<path class="bond-44 atom-25 atom-28" d="M 511.2,168.9 L 518.9,164.9" style="fill:none;fill-rule:evenodd;stroke:#000000;stroke-width:2.0px;stroke-linecap:butt;stroke-linejoin:miter;stroke-opacity:1"/>
<path class="bond-44 atom-25 atom-28" d="M 518.9,164.9 L 526.6,160.9" style="fill:none;fill-rule:evenodd;stroke:#CCCC00;stroke-width:2.0px;stroke-linecap:butt;stroke-linejoin:miter;stroke-opacity:1"/>
<path class="bond-45 atom-26 atom-43" d="M 510.4,189.1 L 524.6,198.0" style="fill:none;fill-rule:evenodd;stroke:#000000;stroke-width:2.0px;stroke-linecap:butt;stroke-linejoin:miter;stroke-opacity:1"/>
<path class="bond-46 atom-27 atom-28" d="M 546.1,170.3 L 538.8,165.7" style="fill:none;fill-rule:evenodd;stroke:#000000;stroke-width:2.0px;stroke-linecap:butt;stroke-linejoin:miter;stroke-opacity:1"/>
<path class="bond-46 atom-27 atom-28" d="M 538.8,165.7 L 531.6,161.1" style="fill:none;fill-rule:evenodd;stroke:#CCCC00;stroke-width:2.0px;stroke-linecap:butt;stroke-linejoin:miter;stroke-opacity:1"/>
<path class="bond-47 atom-27 atom-44" d="M 546.1,170.3 L 554.7,156.8" style="fill:none;fill-rule:evenodd;stroke:#000000;stroke-width:2.0px;stroke-linecap:butt;stroke-linejoin:miter;stroke-opacity:1"/>
<path class="bond-48 atom-27 atom-45" d="M 546.1,170.3 L 537.6,183.9" style="fill:none;fill-rule:evenodd;stroke:#000000;stroke-width:2.0px;stroke-linecap:butt;stroke-linejoin:miter;stroke-opacity:1"/>
<path class="bond-49 atom-27 atom-46" d="M 546.1,170.3 L 560.3,179.3" style="fill:none;fill-rule:evenodd;stroke:#000000;stroke-width:2.0px;stroke-linecap:butt;stroke-linejoin:miter;stroke-opacity:1"/>
<path class="atom-6" d="M 476.7 124.4 L 478.6 127.4 Q 478.8 127.7, 479.1 128.3 Q 479.4 128.8, 479.4 128.8 L 479.4 124.4 L 480.1 124.4 L 480.1 130.1 L 479.3 130.1 L 477.3 126.8 Q 477.1 126.4, 476.9 126.0 Q 476.6 125.5, 476.5 125.4 L 476.5 130.1 L 475.8 130.1 L 475.8 124.4 L 476.7 124.4 " fill="#0000FF"/>
<path class="atom-9" d="M 442.6 102.9 L 444.5 105.9 Q 444.7 106.2, 445.0 106.7 Q 445.3 107.3, 445.3 107.3 L 445.3 102.9 L 446.1 102.9 L 446.1 108.6 L 445.3 108.6 L 443.3 105.3 Q 443.0 104.9, 442.8 104.5 Q 442.5 104.0, 442.5 103.9 L 442.5 108.6 L 441.7 108.6 L 441.7 102.9 L 442.6 102.9 " fill="#0000FF"/>
<path class="atom-14" d="M 405.3 161.9 L 407.2 164.9 Q 407.4 165.2, 407.7 165.8 Q 408.0 166.3, 408.0 166.3 L 408.0 161.9 L 408.8 161.9 L 408.8 167.6 L 408.0 167.6 L 406.0 164.3 Q 405.7 163.9, 405.5 163.5 Q 405.3 163.0, 405.2 162.9 L 405.2 167.6 L 404.4 167.6 L 404.4 161.9 L 405.3 161.9 " fill="#0000FF"/>
<path class="atom-17" d="M 372.1 120.2 L 373.9 123.3 Q 374.1 123.6, 374.4 124.1 Q 374.7 124.6, 374.7 124.7 L 374.7 120.2 L 375.5 120.2 L 375.5 125.9 L 374.7 125.9 L 372.7 122.6 Q 372.5 122.3, 372.2 121.8 Q 372.0 121.4, 371.9 121.2 L 371.9 125.9 L 371.2 125.9 L 371.2 120.2 L 372.1 120.2 " fill="#0000FF"/>
<path class="atom-21" d="M 369.3 185.5 Q 369.4 185.5, 369.6 185.6 Q 369.9 185.7, 370.2 185.8 Q 370.5 185.8, 370.8 185.8 Q 371.3 185.8, 371.6 185.6 Q 372.0 185.3, 372.0 184.9 Q 372.0 184.5, 371.8 184.4 Q 371.6 184.2, 371.4 184.1 Q 371.2 184.0, 370.8 183.8 Q 370.2 183.7, 369.9 183.5 Q 369.6 183.4, 369.4 183.1 Q 369.2 182.8, 369.2 182.3 Q 369.2 181.5, 369.7 181.1 Q 370.2 180.7, 371.2 180.7 Q 371.8 180.7, 372.6 181.0 L 372.4 181.6 Q 371.7 181.3, 371.2 181.3 Q 370.6 181.3, 370.3 181.5 Q 370.0 181.8, 370.0 182.2 Q 370.0 182.5, 370.2 182.7 Q 370.3 182.8, 370.6 182.9 Q 370.8 183.0, 371.2 183.2 Q 371.7 183.3, 372.0 183.5 Q 372.3 183.7, 372.5 184.0 Q 372.8 184.3, 372.8 184.9 Q 372.8 185.7, 372.2 186.1 Q 371.7 186.5, 370.8 186.5 Q 370.3 186.5, 369.9 186.4 Q 369.5 186.3, 369.1 186.1 L 369.3 185.5 " fill="#CCCC00"/>
<path class="atom-22" d="M 388.4 184.3 Q 388.4 182.9, 389.1 182.2 Q 389.8 181.4, 391.1 181.4 Q 392.3 181.4, 393.0 182.2 Q 393.7 182.9, 393.7 184.3 Q 393.7 185.7, 393.0 186.5 Q 392.3 187.3, 391.1 187.3 Q 389.8 187.3, 389.1 186.5 Q 388.4 185.7, 388.4 184.3 M 391.1 186.6 Q 391.9 186.6, 392.4 186.1 Q 392.9 185.5, 392.9 184.3 Q 392.9 183.2, 392.4 182.6 Q 391.9 182.1, 391.1 182.1 Q 390.2 182.1, 389.7 182.6 Q 389.2 183.2, 389.2 184.3 Q 389.2 185.5, 389.7 186.1 Q 390.2 186.6, 391.1 186.6 " fill="#FF0000"/>
<path class="atom-23" d="M 348.2 182.7 Q 348.2 181.3, 348.8 180.6 Q 349.5 179.8, 350.8 179.8 Q 352.1 179.8, 352.7 180.6 Q 353.4 181.3, 353.4 182.7 Q 353.4 184.1, 352.7 184.9 Q 352.0 185.7, 350.8 185.7 Q 349.5 185.7, 348.8 184.9 Q 348.2 184.1, 348.2 182.7 M 350.8 185.0 Q 351.7 185.0, 352.1 184.4 Q 352.6 183.9, 352.6 182.7 Q 352.6 181.6, 352.1 181.0 Q 351.7 180.5, 350.8 180.5 Q 349.9 180.5, 349.4 181.0 Q 349.0 181.6, 349.0 182.7 Q 349.0 183.9, 349.4 184.4 Q 349.9 185.0, 350.8 185.0 " fill="#FF0000"/>
<path class="atom-28" d="M 527.5 161.5 Q 527.5 161.5, 527.8 161.7 Q 528.1 161.8, 528.4 161.8 Q 528.7 161.9, 528.9 161.9 Q 529.5 161.9, 529.8 161.6 Q 530.1 161.4, 530.1 160.9 Q 530.1 160.6, 529.9 160.4 Q 529.8 160.2, 529.6 160.1 Q 529.3 160.0, 528.9 159.9 Q 528.4 159.7, 528.1 159.6 Q 527.8 159.4, 527.6 159.1 Q 527.4 158.8, 527.4 158.3 Q 527.4 157.6, 527.9 157.2 Q 528.3 156.7, 529.3 156.7 Q 530.0 156.7, 530.7 157.0 L 530.5 157.6 Q 529.9 157.4, 529.3 157.4 Q 528.8 157.4, 528.5 157.6 Q 528.2 157.8, 528.2 158.2 Q 528.2 158.5, 528.3 158.7 Q 528.5 158.9, 528.7 159.0 Q 528.9 159.1, 529.3 159.2 Q 529.9 159.4, 530.2 159.6 Q 530.5 159.7, 530.7 160.0 Q 530.9 160.4, 530.9 160.9 Q 530.9 161.7, 530.4 162.1 Q 529.9 162.6, 529.0 162.6 Q 528.5 162.6, 528.1 162.4 Q 527.7 162.3, 527.2 162.2 L 527.5 161.5 " fill="#CCCC00"/>
<path class="atom-29" d="M 412.8 124.0 L 413.6 124.0 L 413.6 126.4 L 416.5 126.4 L 416.5 124.0 L 417.2 124.0 L 417.2 129.7 L 416.5 129.7 L 416.5 127.1 L 413.6 127.1 L 413.6 129.7 L 412.8 129.7 L 412.8 124.0 " fill="#000000"/>
<path class="atom-30" d="M 438.4 183.4 L 439.2 183.4 L 439.2 185.9 L 442.1 185.9 L 442.1 183.4 L 442.9 183.4 L 442.9 189.1 L 442.1 189.1 L 442.1 186.5 L 439.2 186.5 L 439.2 189.1 L 438.4 189.1 L 438.4 183.4 " fill="#000000"/>
<path class="atom-31" d="M 494.4 94.9 L 495.2 94.9 L 495.2 97.3 L 498.1 97.3 L 498.1 94.9 L 498.8 94.9 L 498.8 100.6 L 498.1 100.6 L 498.1 98.0 L 495.2 98.0 L 495.2 100.6 L 494.4 100.6 L 494.4 94.9 " fill="#000000"/>
<path class="atom-32" d="M 460.3 73.4 L 461.1 73.4 L 461.1 75.8 L 464.0 75.8 L 464.0 73.4 L 464.8 73.4 L 464.8 79.1 L 464.0 79.1 L 464.0 76.4 L 461.1 76.4 L 461.1 79.1 L 460.3 79.1 L 460.3 73.4 " fill="#000000"/>
<path class="atom-33" d="M 455.5 194.2 L 456.3 194.2 L 456.3 196.6 L 459.2 196.6 L 459.2 194.2 L 459.9 194.2 L 459.9 199.9 L 459.2 199.9 L 459.2 197.3 L 456.3 197.3 L 456.3 199.9 L 455.5 199.9 L 455.5 194.2 " fill="#000000"/>
<path class="atom-34" d="M 489.6 215.7 L 490.3 215.7 L 490.3 218.1 L 493.2 218.1 L 493.2 215.7 L 494.0 215.7 L 494.0 221.4 L 493.2 221.4 L 493.2 218.8 L 490.3 218.8 L 490.3 221.4 L 489.6 221.4 L 489.6 215.7 " fill="#000000"/>
<path class="atom-35" d="M 492.8 135.2 L 493.5 135.2 L 493.5 137.6 L 496.5 137.6 L 496.5 135.2 L 497.2 135.2 L 497.2 140.9 L 496.5 140.9 L 496.5 138.2 L 493.5 138.2 L 493.5 140.9 L 492.8 140.9 L 492.8 135.2 " fill="#000000"/>
<path class="atom-36" d="M 403.6 182.0 L 404.3 182.0 L 404.3 184.5 L 407.3 184.5 L 407.3 182.0 L 408.0 182.0 L 408.0 187.7 L 407.3 187.7 L 407.3 185.1 L 404.3 185.1 L 404.3 187.7 L 403.6 187.7 L 403.6 182.0 " fill="#000000"/>
<path class="atom-37" d="M 399.0 123.5 L 399.8 123.5 L 399.8 125.9 L 402.7 125.9 L 402.7 123.5 L 403.5 123.5 L 403.5 129.2 L 402.7 129.2 L 402.7 126.5 L 399.8 126.5 L 399.8 129.2 L 399.0 129.2 L 399.0 123.5 " fill="#000000"/>
<path class="atom-38" d="M 336.2 118.8 L 337.0 118.8 L 337.0 121.3 L 339.9 121.3 L 339.9 118.8 L 340.7 118.8 L 340.7 124.6 L 339.9 124.6 L 339.9 121.9 L 337.0 121.9 L 337.0 124.6 L 336.2 124.6 L 336.2 118.8 " fill="#000000"/>
<path class="atom-39" d="M 334.6 159.1 L 335.4 159.1 L 335.4 161.5 L 338.3 161.5 L 338.3 159.1 L 339.1 159.1 L 339.1 164.8 L 338.3 164.8 L 338.3 162.2 L 335.4 162.2 L 335.4 164.8 L 334.6 164.8 L 334.6 159.1 " fill="#000000"/>
<path class="atom-40" d="M 347.7 200.0 L 348.5 200.0 L 348.5 202.4 L 351.4 202.4 L 351.4 200.0 L 352.2 200.0 L 352.2 205.7 L 351.4 205.7 L 351.4 203.0 L 348.5 203.0 L 348.5 205.7 L 347.7 205.7 L 347.7 200.0 " fill="#000000"/>
<path class="atom-41" d="M 388.0 201.6 L 388.8 201.6 L 388.8 204.0 L 391.7 204.0 L 391.7 201.6 L 392.5 201.6 L 392.5 207.3 L 391.7 207.3 L 391.7 204.7 L 388.8 204.7 L 388.8 207.3 L 388.0 207.3 L 388.0 201.6 " fill="#000000"/>
<path class="atom-42" d="M 367.1 220.9 L 367.9 220.9 L 367.9 223.3 L 370.8 223.3 L 370.8 220.9 L 371.5 220.9 L 371.5 226.6 L 370.8 226.6 L 370.8 224.0 L 367.9 224.0 L 367.9 226.6 L 367.1 226.6 L 367.1 220.9 " fill="#000000"/>
<path class="atom-43" d="M 525.2 197.0 L 526.0 197.0 L 526.0 199.4 L 528.9 199.4 L 528.9 197.0 L 529.7 197.0 L 529.7 202.7 L 528.9 202.7 L 528.9 200.0 L 526.0 200.0 L 526.0 202.7 L 525.2 202.7 L 525.2 197.0 " fill="#000000"/>
<path class="atom-44" d="M 554.6 150.4 L 555.4 150.4 L 555.4 152.9 L 558.3 152.9 L 558.3 150.4 L 559.1 150.4 L 559.1 156.1 L 558.3 156.1 L 558.3 153.5 L 555.4 153.5 L 555.4 156.1 L 554.6 156.1 L 554.6 150.4 " fill="#000000"/>
<path class="atom-45" d="M 533.1 184.5 L 533.9 184.5 L 533.9 186.9 L 536.8 186.9 L 536.8 184.5 L 537.6 184.5 L 537.6 190.2 L 536.8 190.2 L 536.8 187.6 L 533.9 187.6 L 533.9 190.2 L 533.1 190.2 L 533.1 184.5 " fill="#000000"/>
<path class="atom-46" d="M 560.9 178.2 L 561.7 178.2 L 561.7 180.7 L 564.6 180.7 L 564.6 178.2 L 565.4 178.2 L 565.4 183.9 L 564.6 183.9 L 564.6 181.3 L 561.7 181.3 L 561.7 183.9 L 560.9 183.9 L 560.9 178.2 " fill="#000000"/>
<text x="300" y="20" font-size="20" font-family="sans-serif" font-weight="normal" letter-spacing="0" text-anchor="middle" fill="black">pfkfb3: 49 -&gt; 42</text><text x="300" y="35" font-size="15" font-family="sans-serif" font-weight="normal" letter-spacing="0" text-anchor="middle" fill="black"></text><text x="150" y="285" font-size="15" font-family="sans-serif" font-weight="normal" letter-spacing="0" text-anchor="middle" fill="black">49</text><text x="450" y="285" font-size="15" font-family="sans-serif" font-weight="normal" letter-spacing="0" text-anchor="middle" fill="black">42</text></svg>
