<?xml version='1.0' encoding='ASCII' standalone='yes'?>
<svg xmlns="http://www.w3.org/2000/svg" xmlns:rdkit="http://www.rdkit.org/xml" xmlns:xlink="http://www.w3.org/1999/xlink" version="1.1" baseProfile="full" xml:space="preserve" width="600px" height="300px" viewBox="0 0 600 300">
<!-- END OF HEADER -->
<rect style="opacity:1.0;fill:#FFFFFF;stroke:none" width="600" height="300" x="0" y="0"> </rect>
<rect style="opacity:1.0;fill:#FFFFFF;stroke:none" width="600" height="300" x="0" y="0"> </rect>
<rect style="opacity:1.0;fill:#FFFFFF;stroke:none" width="600" height="300" x="0" y="0"> </rect>
<path class="bond-0" d="M 247.962,164.851 L 261.158,171.026" style="fill:none;fill-rule:evenodd;stroke:#000000;stroke-width:2.0px;stroke-linecap:butt;stroke-linejoin:miter;stroke-opacity:1"/>
<path class="bond-1" d="M 247.962,164.851 L 253.89,152.182" style="fill:none;fill-rule:evenodd;stroke:#000000;stroke-width:2.0px;stroke-linecap:butt;stroke-linejoin:miter;stroke-opacity:1"/>
<path class="bond-2" d="M 247.962,164.851 L 242.034,177.519" style="fill:none;fill-rule:evenodd;stroke:#000000;stroke-width:2.0px;stroke-linecap:butt;stroke-linejoin:miter;stroke-opacity:1"/>
<path class="bond-3" d="M 247.962,164.851 L 232.438,157.587" style="fill:none;fill-rule:evenodd;stroke:#000000;stroke-width:2.0px;stroke-linecap:butt;stroke-linejoin:miter;stroke-opacity:1"/>
<path class="bond-4" d="M 232.438,157.587 L 218.386,167.399" style="fill:none;fill-rule:evenodd;stroke:#000000;stroke-width:2.0px;stroke-linecap:butt;stroke-linejoin:miter;stroke-opacity:1"/>
<path class="bond-4" d="M 228.368,156.248 L 218.531,163.116" style="fill:none;fill-rule:evenodd;stroke:#000000;stroke-width:2.0px;stroke-linecap:butt;stroke-linejoin:miter;stroke-opacity:1"/>
<path class="bond-5" d="M 232.438,157.587 L 230.967,140.511" style="fill:none;fill-rule:evenodd;stroke:#000000;stroke-width:2.0px;stroke-linecap:butt;stroke-linejoin:miter;stroke-opacity:1"/>
<path class="bond-6" d="M 218.386,167.399 L 219.611,181.619" style="fill:none;fill-rule:evenodd;stroke:#000000;stroke-width:2.0px;stroke-linecap:butt;stroke-linejoin:miter;stroke-opacity:1"/>
<path class="bond-7" d="M 218.386,167.399 L 202.862,160.135" style="fill:none;fill-rule:evenodd;stroke:#000000;stroke-width:2.0px;stroke-linecap:butt;stroke-linejoin:miter;stroke-opacity:1"/>
<path class="bond-8" d="M 202.862,160.135 L 191.137,168.322" style="fill:none;fill-rule:evenodd;stroke:#000000;stroke-width:2.0px;stroke-linecap:butt;stroke-linejoin:miter;stroke-opacity:1"/>
<path class="bond-9" d="M 202.862,160.135 L 201.391,143.059" style="fill:none;fill-rule:evenodd;stroke:#000000;stroke-width:2.0px;stroke-linecap:butt;stroke-linejoin:miter;stroke-opacity:1"/>
<path class="bond-9" d="M 206.056,157.279 L 205.027,145.326" style="fill:none;fill-rule:evenodd;stroke:#000000;stroke-width:2.0px;stroke-linecap:butt;stroke-linejoin:miter;stroke-opacity:1"/>
<path class="bond-10" d="M 201.391,143.059 L 207.283,138.945" style="fill:none;fill-rule:evenodd;stroke:#000000;stroke-width:2.0px;stroke-linecap:butt;stroke-linejoin:miter;stroke-opacity:1"/>
<path class="bond-10" d="M 207.283,138.945 L 213.174,134.831" style="fill:none;fill-rule:evenodd;stroke:#0000FF;stroke-width:2.0px;stroke-linecap:butt;stroke-linejoin:miter;stroke-opacity:1"/>
<path class="bond-11" d="M 201.391,143.059 L 185.867,135.795" style="fill:none;fill-rule:evenodd;stroke:#000000;stroke-width:2.0px;stroke-linecap:butt;stroke-linejoin:miter;stroke-opacity:1"/>
<path class="bond-12" d="M 217.713,134.309 L 224.34,137.41" style="fill:none;fill-rule:evenodd;stroke:#0000FF;stroke-width:2.0px;stroke-linecap:butt;stroke-linejoin:miter;stroke-opacity:1"/>
<path class="bond-12" d="M 224.34,137.41 L 230.967,140.511" style="fill:none;fill-rule:evenodd;stroke:#000000;stroke-width:2.0px;stroke-linecap:butt;stroke-linejoin:miter;stroke-opacity:1"/>
<path class="bond-12" d="M 218.248,138.344 L 222.887,140.515" style="fill:none;fill-rule:evenodd;stroke:#0000FF;stroke-width:2.0px;stroke-linecap:butt;stroke-linejoin:miter;stroke-opacity:1"/>
<path class="bond-12" d="M 222.887,140.515 L 227.526,142.685" style="fill:none;fill-rule:evenodd;stroke:#000000;stroke-width:2.0px;stroke-linecap:butt;stroke-linejoin:miter;stroke-opacity:1"/>
<path class="bond-13" d="M 230.967,140.511 L 242.692,132.324" style="fill:none;fill-rule:evenodd;stroke:#000000;stroke-width:2.0px;stroke-linecap:butt;stroke-linejoin:miter;stroke-opacity:1"/>
<path class="bond-14" d="M 185.867,135.795 L 171.814,145.607" style="fill:none;fill-rule:evenodd;stroke:#000000;stroke-width:2.0px;stroke-linecap:butt;stroke-linejoin:miter;stroke-opacity:1"/>
<path class="bond-15" d="M 185.867,135.795 L 184.396,118.719" style="fill:none;fill-rule:evenodd;stroke:#000000;stroke-width:2.0px;stroke-linecap:butt;stroke-linejoin:miter;stroke-opacity:1"/>
<path class="bond-15" d="M 182.231,133.528 L 181.202,121.575" style="fill:none;fill-rule:evenodd;stroke:#000000;stroke-width:2.0px;stroke-linecap:butt;stroke-linejoin:miter;stroke-opacity:1"/>
<path class="bond-16" d="M 184.396,118.719 L 196.121,110.532" style="fill:none;fill-rule:evenodd;stroke:#000000;stroke-width:2.0px;stroke-linecap:butt;stroke-linejoin:miter;stroke-opacity:1"/>
<path class="bond-17" d="M 184.396,118.719 L 168.872,111.455" style="fill:none;fill-rule:evenodd;stroke:#000000;stroke-width:2.0px;stroke-linecap:butt;stroke-linejoin:miter;stroke-opacity:1"/>
<path class="bond-18" d="M 168.872,111.455 L 154.82,121.267" style="fill:none;fill-rule:evenodd;stroke:#000000;stroke-width:2.0px;stroke-linecap:butt;stroke-linejoin:miter;stroke-opacity:1"/>
<path class="bond-18" d="M 168.727,115.737 L 158.89,122.606" style="fill:none;fill-rule:evenodd;stroke:#000000;stroke-width:2.0px;stroke-linecap:butt;stroke-linejoin:miter;stroke-opacity:1"/>
<path class="bond-19" d="M 168.872,111.455 L 167.647,97.2344" style="fill:none;fill-rule:evenodd;stroke:#000000;stroke-width:2.0px;stroke-linecap:butt;stroke-linejoin:miter;stroke-opacity:1"/>
<path class="bond-20" d="M 154.82,121.267 L 156.291,138.343" style="fill:none;fill-rule:evenodd;stroke:#000000;stroke-width:2.0px;stroke-linecap:butt;stroke-linejoin:miter;stroke-opacity:1"/>
<path class="bond-21" d="M 154.82,121.267 L 141.624,115.092" style="fill:none;fill-rule:evenodd;stroke:#000000;stroke-width:2.0px;stroke-linecap:butt;stroke-linejoin:miter;stroke-opacity:1"/>
<path class="bond-22" d="M 156.291,138.343 L 171.814,145.607" style="fill:none;fill-rule:evenodd;stroke:#000000;stroke-width:2.0px;stroke-linecap:butt;stroke-linejoin:miter;stroke-opacity:1"/>
<path class="bond-22" d="M 160.072,136.328 L 170.939,141.412" style="fill:none;fill-rule:evenodd;stroke:#000000;stroke-width:2.0px;stroke-linecap:butt;stroke-linejoin:miter;stroke-opacity:1"/>
<path class="bond-23" d="M 156.291,138.343 L 142.238,148.155" style="fill:none;fill-rule:evenodd;stroke:#000000;stroke-width:2.0px;stroke-linecap:butt;stroke-linejoin:miter;stroke-opacity:1"/>
<path class="bond-24" d="M 142.238,148.155 L 150.056,159.352" style="fill:none;fill-rule:evenodd;stroke:#000000;stroke-width:2.0px;stroke-linecap:butt;stroke-linejoin:miter;stroke-opacity:1"/>
<path class="bond-25" d="M 142.238,148.155 L 136.346,152.268" style="fill:none;fill-rule:evenodd;stroke:#000000;stroke-width:2.0px;stroke-linecap:butt;stroke-linejoin:miter;stroke-opacity:1"/>
<path class="bond-25" d="M 136.346,152.268 L 130.455,156.382" style="fill:none;fill-rule:evenodd;stroke:#0000FF;stroke-width:2.0px;stroke-linecap:butt;stroke-linejoin:miter;stroke-opacity:1"/>
<path class="bond-26" d="M 142.238,148.155 L 134.42,136.957" style="fill:none;fill-rule:evenodd;stroke:#000000;stroke-width:2.0px;stroke-linecap:butt;stroke-linejoin:miter;stroke-opacity:1"/>
<path class="bond-27" d="M 125.916,156.905 L 114.868,151.735" style="fill:none;fill-rule:evenodd;stroke:#0000FF;stroke-width:2.0px;stroke-linecap:butt;stroke-linejoin:miter;stroke-opacity:1"/>
<path class="bond-28" d="M 128.431,160.822 L 129.044,167.932" style="fill:none;fill-rule:evenodd;stroke:#0000FF;stroke-width:2.0px;stroke-linecap:butt;stroke-linejoin:miter;stroke-opacity:1"/>
<path class="bond-28" d="M 129.044,167.932 L 129.657,175.043" style="fill:none;fill-rule:evenodd;stroke:#000000;stroke-width:2.0px;stroke-linecap:butt;stroke-linejoin:miter;stroke-opacity:1"/>
<path class="bond-29" d="M 110.393,152.287 L 104.501,156.401" style="fill:none;fill-rule:evenodd;stroke:#0000FF;stroke-width:2.0px;stroke-linecap:butt;stroke-linejoin:miter;stroke-opacity:1"/>
<path class="bond-29" d="M 104.501,156.401 L 98.6092,160.515" style="fill:none;fill-rule:evenodd;stroke:#000000;stroke-width:2.0px;stroke-linecap:butt;stroke-linejoin:miter;stroke-opacity:1"/>
<path class="bond-29" d="M 110.587,156.332 L 106.463,159.211" style="fill:none;fill-rule:evenodd;stroke:#0000FF;stroke-width:2.0px;stroke-linecap:butt;stroke-linejoin:miter;stroke-opacity:1"/>
<path class="bond-29" d="M 106.463,159.211 L 102.339,162.091" style="fill:none;fill-rule:evenodd;stroke:#000000;stroke-width:2.0px;stroke-linecap:butt;stroke-linejoin:miter;stroke-opacity:1"/>
<path class="bond-30" d="M 98.6092,160.515 L 83.0855,153.251" style="fill:none;fill-rule:evenodd;stroke:#000000;stroke-width:2.0px;stroke-linecap:butt;stroke-linejoin:miter;stroke-opacity:1"/>
<path class="bond-31" d="M 98.6092,160.515 L 100.08,177.59" style="fill:none;fill-rule:evenodd;stroke:#000000;stroke-width:2.0px;stroke-linecap:butt;stroke-linejoin:miter;stroke-opacity:1"/>
<path class="bond-32" d="M 100.08,177.59 L 88.3551,185.777" style="fill:none;fill-rule:evenodd;stroke:#000000;stroke-width:2.0px;stroke-linecap:butt;stroke-linejoin:miter;stroke-opacity:1"/>
<path class="bond-33" d="M 100.08,177.59 L 115.604,184.854" style="fill:none;fill-rule:evenodd;stroke:#000000;stroke-width:2.0px;stroke-linecap:butt;stroke-linejoin:miter;stroke-opacity:1"/>
<path class="bond-33" d="M 103.862,175.575 L 114.728,180.66" style="fill:none;fill-rule:evenodd;stroke:#000000;stroke-width:2.0px;stroke-linecap:butt;stroke-linejoin:miter;stroke-opacity:1"/>
<path class="bond-34" d="M 115.604,184.854 L 129.657,175.043" style="fill:none;fill-rule:evenodd;stroke:#000000;stroke-width:2.0px;stroke-linecap:butt;stroke-linejoin:miter;stroke-opacity:1"/>
<path class="bond-35" d="M 115.604,184.854 L 116.829,199.075" style="fill:none;fill-rule:evenodd;stroke:#000000;stroke-width:2.0px;stroke-linecap:butt;stroke-linejoin:miter;stroke-opacity:1"/>
<path class="bond-36" d="M 128.93,176.595 L 135.364,179.605" style="fill:none;fill-rule:evenodd;stroke:#000000;stroke-width:2.0px;stroke-linecap:butt;stroke-linejoin:miter;stroke-opacity:1"/>
<path class="bond-36" d="M 135.364,179.605 L 141.797,182.616" style="fill:none;fill-rule:evenodd;stroke:#FF0000;stroke-width:2.0px;stroke-linecap:butt;stroke-linejoin:miter;stroke-opacity:1"/>
<path class="bond-36" d="M 130.383,173.49 L 136.817,176.501" style="fill:none;fill-rule:evenodd;stroke:#000000;stroke-width:2.0px;stroke-linecap:butt;stroke-linejoin:miter;stroke-opacity:1"/>
<path class="bond-36" d="M 136.817,176.501 L 143.25,179.511" style="fill:none;fill-rule:evenodd;stroke:#FF0000;stroke-width:2.0px;stroke-linecap:butt;stroke-linejoin:miter;stroke-opacity:1"/>
<path class="bond-37" d="M 83.0855,153.251 L 81.6144,136.175" style="fill:none;fill-rule:evenodd;stroke:#000000;stroke-width:2.0px;stroke-linecap:butt;stroke-linejoin:miter;stroke-opacity:1"/>
<path class="bond-37" d="M 79.4496,150.983 L 78.4199,139.03" style="fill:none;fill-rule:evenodd;stroke:#000000;stroke-width:2.0px;stroke-linecap:butt;stroke-linejoin:miter;stroke-opacity:1"/>
<path class="bond-38" d="M 83.0855,153.251 L 69.0328,163.062" style="fill:none;fill-rule:evenodd;stroke:#000000;stroke-width:2.0px;stroke-linecap:butt;stroke-linejoin:miter;stroke-opacity:1"/>
<path class="bond-39" d="M 81.6144,136.175 L 66.0907,128.911" style="fill:none;fill-rule:evenodd;stroke:#000000;stroke-width:2.0px;stroke-linecap:butt;stroke-linejoin:miter;stroke-opacity:1"/>
<path class="bond-40" d="M 81.6144,136.175 L 93.3396,127.988" style="fill:none;fill-rule:evenodd;stroke:#000000;stroke-width:2.0px;stroke-linecap:butt;stroke-linejoin:miter;stroke-opacity:1"/>
<path class="bond-41" d="M 66.0907,128.911 L 65.4782,121.8" style="fill:none;fill-rule:evenodd;stroke:#000000;stroke-width:2.0px;stroke-linecap:butt;stroke-linejoin:miter;stroke-opacity:1"/>
<path class="bond-41" d="M 65.4782,121.8 L 64.8657,114.69" style="fill:none;fill-rule:evenodd;stroke:#33CCCC;stroke-width:2.0px;stroke-linecap:butt;stroke-linejoin:miter;stroke-opacity:1"/>
<path class="bond-42" d="M 66.0907,128.911 L 52.0381,138.723" style="fill:none;fill-rule:evenodd;stroke:#000000;stroke-width:2.0px;stroke-linecap:butt;stroke-linejoin:miter;stroke-opacity:1"/>
<path class="bond-42" d="M 65.9452,133.193 L 56.1084,140.061" style="fill:none;fill-rule:evenodd;stroke:#000000;stroke-width:2.0px;stroke-linecap:butt;stroke-linejoin:miter;stroke-opacity:1"/>
<path class="bond-43" d="M 52.0381,138.723 L 38.8419,132.548" style="fill:none;fill-rule:evenodd;stroke:#000000;stroke-width:2.0px;stroke-linecap:butt;stroke-linejoin:miter;stroke-opacity:1"/>
<path class="bond-44" d="M 52.0381,138.723 L 53.5091,155.798" style="fill:none;fill-rule:evenodd;stroke:#000000;stroke-width:2.0px;stroke-linecap:butt;stroke-linejoin:miter;stroke-opacity:1"/>
<path class="bond-45" d="M 53.5091,155.798 L 47.4186,160.051" style="fill:none;fill-rule:evenodd;stroke:#000000;stroke-width:2.0px;stroke-linecap:butt;stroke-linejoin:miter;stroke-opacity:1"/>
<path class="bond-45" d="M 47.4186,160.051 L 41.3281,164.304" style="fill:none;fill-rule:evenodd;stroke:#33CCCC;stroke-width:2.0px;stroke-linecap:butt;stroke-linejoin:miter;stroke-opacity:1"/>
<path class="bond-46" d="M 53.5091,155.798 L 69.0328,163.062" style="fill:none;fill-rule:evenodd;stroke:#000000;stroke-width:2.0px;stroke-linecap:butt;stroke-linejoin:miter;stroke-opacity:1"/>
<path class="bond-46" d="M 57.2905,153.783 L 68.1571,158.868" style="fill:none;fill-rule:evenodd;stroke:#000000;stroke-width:2.0px;stroke-linecap:butt;stroke-linejoin:miter;stroke-opacity:1"/>
<path class="bond-47" d="M 69.0328,163.062 L 70.2579,177.283" style="fill:none;fill-rule:evenodd;stroke:#000000;stroke-width:2.0px;stroke-linecap:butt;stroke-linejoin:miter;stroke-opacity:1"/>
<path class="bond-48" d="M 171.814,145.607 L 173.04,159.827" style="fill:none;fill-rule:evenodd;stroke:#000000;stroke-width:2.0px;stroke-linecap:butt;stroke-linejoin:miter;stroke-opacity:1"/>
<path class="atom-5" d="M 214.371 130.82 L 215.961 133.391 Q 216.119 133.645, 216.372 134.104 Q 216.626 134.563, 216.64 134.591 L 216.64 130.82 L 217.284 130.82 L 217.284 135.674 L 216.619 135.674 L 214.912 132.863 Q 214.713 132.534, 214.501 132.157 Q 214.295 131.78, 214.233 131.663 L 214.233 135.674 L 213.603 135.674 L 213.603 130.82 L 214.371 130.82 " fill="#0000FF"/>
<path class="atom-13" d="M 127.113 155.54 L 128.703 158.111 Q 128.861 158.364, 129.114 158.824 Q 129.368 159.283, 129.382 159.31 L 129.382 155.54 L 130.026 155.54 L 130.026 160.393 L 129.361 160.393 L 127.654 157.583 Q 127.455 157.254, 127.243 156.877 Q 127.037 156.499, 126.975 156.383 L 126.975 160.393 L 126.345 160.393 L 126.345 155.54 L 127.113 155.54 " fill="#0000FF"/>
<path class="atom-14" d="M 111.589 148.276 L 113.179 150.847 Q 113.337 151.1, 113.591 151.56 Q 113.844 152.019, 113.858 152.046 L 113.858 148.276 L 114.503 148.276 L 114.503 153.13 L 113.838 153.13 L 112.131 150.319 Q 111.932 149.99, 111.719 149.613 Q 111.513 149.235, 111.452 149.119 L 111.452 153.13 L 110.821 153.13 L 110.821 148.276 L 111.589 148.276 " fill="#0000FF"/>
<path class="atom-19" d="M 142.952 182.32 Q 142.952 181.155, 143.528 180.503 Q 144.104 179.852, 145.18 179.852 Q 146.257 179.852, 146.832 180.503 Q 147.408 181.155, 147.408 182.32 Q 147.408 183.499, 146.826 184.171 Q 146.243 184.836, 145.18 184.836 Q 144.111 184.836, 143.528 184.171 Q 142.952 183.506, 142.952 182.32 M 145.18 184.288 Q 145.921 184.288, 146.318 183.794 Q 146.723 183.294, 146.723 182.32 Q 146.723 181.367, 146.318 180.887 Q 145.921 180.401, 145.18 180.401 Q 144.44 180.401, 144.035 180.881 Q 143.638 181.36, 143.638 182.32 Q 143.638 183.301, 144.035 183.794 Q 144.44 184.288, 145.18 184.288 " fill="#FF0000"/>
<path class="atom-23" d="M 63.1766 109.408 L 66.0628 109.408 L 66.0628 109.963 L 63.8279 109.963 L 63.8279 111.437 L 65.816 111.437 L 65.816 111.999 L 63.8279 111.999 L 63.8279 114.262 L 63.1766 114.262 L 63.1766 109.408 " fill="#33CCCC"/>
<path class="atom-26" d="M 38.0134 163.183 L 40.8996 163.183 L 40.8996 163.739 L 38.6647 163.739 L 38.6647 165.213 L 40.6528 165.213 L 40.6528 165.775 L 38.6647 165.775 L 38.6647 168.037 L 38.0134 168.037 L 38.0134 163.183 " fill="#33CCCC"/>
<path class="atom-29" d="M 253.327 146.9 L 253.985 146.9 L 253.985 148.964 L 256.467 148.964 L 256.467 146.9 L 257.125 146.9 L 257.125 151.754 L 256.467 151.754 L 256.467 149.512 L 253.985 149.512 L 253.985 151.754 L 253.327 151.754 L 253.327 146.9 " fill="#000000"/>
<path class="atom-30" d="M 238.799 177.948 L 239.457 177.948 L 239.457 180.011 L 241.939 180.011 L 241.939 177.948 L 242.597 177.948 L 242.597 182.801 L 241.939 182.801 L 241.939 180.56 L 239.457 180.56 L 239.457 182.801 L 238.799 182.801 L 238.799 177.948 " fill="#000000"/>
<path class="atom-31" d="M 261.587 169.688 L 262.245 169.688 L 262.245 171.751 L 264.726 171.751 L 264.726 169.688 L 265.385 169.688 L 265.385 174.542 L 264.726 174.542 L 264.726 172.3 L 262.245 172.3 L 262.245 174.542 L 261.587 174.542 L 261.587 169.688 " fill="#000000"/>
<path class="atom-32" d="M 217.958 182.048 L 218.616 182.048 L 218.616 184.111 L 221.097 184.111 L 221.097 182.048 L 221.756 182.048 L 221.756 186.902 L 221.097 186.902 L 221.097 184.66 L 218.616 184.66 L 218.616 186.902 L 217.958 186.902 L 217.958 182.048 " fill="#000000"/>
<path class="atom-33" d="M 186.91 167.52 L 187.568 167.52 L 187.568 169.583 L 190.05 169.583 L 190.05 167.52 L 190.708 167.52 L 190.708 172.374 L 190.05 172.374 L 190.05 170.132 L 187.568 170.132 L 187.568 172.374 L 186.91 172.374 L 186.91 167.52 " fill="#000000"/>
<path class="atom-34" d="M 243.121 128.272 L 243.779 128.272 L 243.779 130.336 L 246.261 130.336 L 246.261 128.272 L 246.919 128.272 L 246.919 133.126 L 246.261 133.126 L 246.261 130.884 L 243.779 130.884 L 243.779 133.126 L 243.121 133.126 L 243.121 128.272 " fill="#000000"/>
<path class="atom-35" d="M 196.55 106.48 L 197.208 106.48 L 197.208 108.544 L 199.69 108.544 L 199.69 106.48 L 200.348 106.48 L 200.348 111.334 L 199.69 111.334 L 199.69 109.092 L 197.208 109.092 L 197.208 111.334 L 196.55 111.334 L 196.55 106.48 " fill="#000000"/>
<path class="atom-36" d="M 165.502 91.9521 L 166.16 91.9521 L 166.16 94.0157 L 168.642 94.0157 L 168.642 91.9521 L 169.3 91.9521 L 169.3 96.8059 L 168.642 96.8059 L 168.642 94.5641 L 166.16 94.5641 L 166.16 96.8059 L 165.502 96.8059 L 165.502 91.9521 " fill="#000000"/>
<path class="atom-37" d="M 137.397 111.576 L 138.055 111.576 L 138.055 113.64 L 140.537 113.64 L 140.537 111.576 L 141.195 111.576 L 141.195 116.43 L 140.537 116.43 L 140.537 114.188 L 138.055 114.188 L 138.055 116.43 L 137.397 116.43 L 137.397 111.576 " fill="#000000"/>
<path class="atom-38" d="M 130.527 131.675 L 131.185 131.675 L 131.185 133.739 L 133.667 133.739 L 133.667 131.675 L 134.325 131.675 L 134.325 136.529 L 133.667 136.529 L 133.667 134.287 L 131.185 134.287 L 131.185 136.529 L 130.527 136.529 L 130.527 131.675 " fill="#000000"/>
<path class="atom-39" d="M 150.151 159.78 L 150.809 159.78 L 150.809 161.844 L 153.291 161.844 L 153.291 159.78 L 153.949 159.78 L 153.949 164.634 L 153.291 164.634 L 153.291 162.392 L 150.809 162.392 L 150.809 164.634 L 150.151 164.634 L 150.151 159.78 " fill="#000000"/>
<path class="atom-40" d="M 84.1286 184.975 L 84.7867 184.975 L 84.7867 187.039 L 87.2684 187.039 L 87.2684 184.975 L 87.9266 184.975 L 87.9266 189.829 L 87.2684 189.829 L 87.2684 187.587 L 84.7867 187.587 L 84.7867 189.829 L 84.1286 189.829 L 84.1286 184.975 " fill="#000000"/>
<path class="atom-41" d="M 115.176 199.503 L 115.834 199.503 L 115.834 201.567 L 118.316 201.567 L 118.316 199.503 L 118.974 199.503 L 118.974 204.357 L 118.316 204.357 L 118.316 202.115 L 115.834 202.115 L 115.834 204.357 L 115.176 204.357 L 115.176 199.503 " fill="#000000"/>
<path class="atom-42" d="M 93.7681 123.936 L 94.4262 123.936 L 94.4262 125.999 L 96.908 125.999 L 96.908 123.936 L 97.5661 123.936 L 97.5661 128.79 L 96.908 128.79 L 96.908 126.548 L 94.4262 126.548 L 94.4262 128.79 L 93.7681 128.79 L 93.7681 123.936 " fill="#000000"/>
<path class="atom-43" d="M 34.6154 129.032 L 35.2735 129.032 L 35.2735 131.095 L 37.7553 131.095 L 37.7553 129.032 L 38.4134 129.032 L 38.4134 133.885 L 37.7553 133.885 L 37.7553 131.644 L 35.2735 131.644 L 35.2735 133.885 L 34.6154 133.885 L 34.6154 129.032 " fill="#000000"/>
<path class="atom-44" d="M 68.6049 177.711 L 69.263 177.711 L 69.263 179.775 L 71.7448 179.775 L 71.7448 177.711 L 72.4029 177.711 L 72.4029 182.565 L 71.7448 182.565 L 71.7448 180.323 L 69.263 180.323 L 69.263 182.565 L 68.6049 182.565 L 68.6049 177.711 " fill="#000000"/>
<path class="atom-45" d="M 171.387 160.256 L 172.045 160.256 L 172.045 162.319 L 174.526 162.319 L 174.526 160.256 L 175.185 160.256 L 175.185 165.11 L 174.526 165.11 L 174.526 162.868 L 172.045 162.868 L 172.045 165.11 L 171.387 165.11 L 171.387 160.256 " fill="#000000"/>
<path class="bond-0" d="M 362.96,122.462 L 356.36,110.235" style="fill:none;fill-rule:evenodd;stroke:#000000;stroke-width:2.0px;stroke-linecap:butt;stroke-linejoin:miter;stroke-opacity:1"/>
<path class="bond-1" d="M 362.96,122.462 L 375.715,115.577" style="fill:none;fill-rule:evenodd;stroke:#000000;stroke-width:2.0px;stroke-linecap:butt;stroke-linejoin:miter;stroke-opacity:1"/>
<path class="bond-2" d="M 362.96,122.462 L 350.205,129.346" style="fill:none;fill-rule:evenodd;stroke:#000000;stroke-width:2.0px;stroke-linecap:butt;stroke-linejoin:miter;stroke-opacity:1"/>
<path class="bond-3" d="M 362.96,122.462 L 371.1,137.544" style="fill:none;fill-rule:evenodd;stroke:#000000;stroke-width:2.0px;stroke-linecap:butt;stroke-linejoin:miter;stroke-opacity:1"/>
<path class="bond-4" d="M 371.1,137.544 L 363.683,152.995" style="fill:none;fill-rule:evenodd;stroke:#000000;stroke-width:2.0px;stroke-linecap:butt;stroke-linejoin:miter;stroke-opacity:1"/>
<path class="bond-4" d="M 373.078,141.345 L 367.886,152.161" style="fill:none;fill-rule:evenodd;stroke:#000000;stroke-width:2.0px;stroke-linecap:butt;stroke-linejoin:miter;stroke-opacity:1"/>
<path class="bond-5" d="M 371.1,137.544 L 378.459,138.531" style="fill:none;fill-rule:evenodd;stroke:#000000;stroke-width:2.0px;stroke-linecap:butt;stroke-linejoin:miter;stroke-opacity:1"/>
<path class="bond-5" d="M 378.459,138.531 L 385.818,139.519" style="fill:none;fill-rule:evenodd;stroke:#0000FF;stroke-width:2.0px;stroke-linecap:butt;stroke-linejoin:miter;stroke-opacity:1"/>
<path class="bond-6" d="M 363.683,152.995 L 349.151,155.651" style="fill:none;fill-rule:evenodd;stroke:#000000;stroke-width:2.0px;stroke-linecap:butt;stroke-linejoin:miter;stroke-opacity:1"/>
<path class="bond-7" d="M 363.683,152.995 L 368.75,157.827" style="fill:none;fill-rule:evenodd;stroke:#000000;stroke-width:2.0px;stroke-linecap:butt;stroke-linejoin:miter;stroke-opacity:1"/>
<path class="bond-7" d="M 368.75,157.827 L 373.817,162.66" style="fill:none;fill-rule:evenodd;stroke:#0000FF;stroke-width:2.0px;stroke-linecap:butt;stroke-linejoin:miter;stroke-opacity:1"/>
<path class="bond-8" d="M 375.703,167.679 L 374.942,173.353" style="fill:none;fill-rule:evenodd;stroke:#0000FF;stroke-width:2.0px;stroke-linecap:butt;stroke-linejoin:miter;stroke-opacity:1"/>
<path class="bond-8" d="M 374.942,173.353 L 374.18,179.027" style="fill:none;fill-rule:evenodd;stroke:#000000;stroke-width:2.0px;stroke-linecap:butt;stroke-linejoin:miter;stroke-opacity:1"/>
<path class="bond-9" d="M 378.356,163.599 L 384.762,160.141" style="fill:none;fill-rule:evenodd;stroke:#0000FF;stroke-width:2.0px;stroke-linecap:butt;stroke-linejoin:miter;stroke-opacity:1"/>
<path class="bond-9" d="M 384.762,160.141 L 391.169,156.683" style="fill:none;fill-rule:evenodd;stroke:#000000;stroke-width:2.0px;stroke-linecap:butt;stroke-linejoin:miter;stroke-opacity:1"/>
<path class="bond-10" d="M 391.169,156.683 L 389.889,149.681" style="fill:none;fill-rule:evenodd;stroke:#000000;stroke-width:2.0px;stroke-linecap:butt;stroke-linejoin:miter;stroke-opacity:1"/>
<path class="bond-10" d="M 389.889,149.681 L 388.609,142.679" style="fill:none;fill-rule:evenodd;stroke:#0000FF;stroke-width:2.0px;stroke-linecap:butt;stroke-linejoin:miter;stroke-opacity:1"/>
<path class="bond-10" d="M 387.413,155.199 L 386.517,150.297" style="fill:none;fill-rule:evenodd;stroke:#000000;stroke-width:2.0px;stroke-linecap:butt;stroke-linejoin:miter;stroke-opacity:1"/>
<path class="bond-10" d="M 386.517,150.297 L 385.621,145.396" style="fill:none;fill-rule:evenodd;stroke:#0000FF;stroke-width:2.0px;stroke-linecap:butt;stroke-linejoin:miter;stroke-opacity:1"/>
<path class="bond-11" d="M 391.169,156.683 L 406.62,164.1" style="fill:none;fill-rule:evenodd;stroke:#000000;stroke-width:2.0px;stroke-linecap:butt;stroke-linejoin:miter;stroke-opacity:1"/>
<path class="bond-12" d="M 406.62,164.1 L 420.769,154.428" style="fill:none;fill-rule:evenodd;stroke:#000000;stroke-width:2.0px;stroke-linecap:butt;stroke-linejoin:miter;stroke-opacity:1"/>
<path class="bond-13" d="M 406.62,164.1 L 407.922,181.19" style="fill:none;fill-rule:evenodd;stroke:#000000;stroke-width:2.0px;stroke-linecap:butt;stroke-linejoin:miter;stroke-opacity:1"/>
<path class="bond-13" d="M 410.233,166.403 L 411.145,178.366" style="fill:none;fill-rule:evenodd;stroke:#000000;stroke-width:2.0px;stroke-linecap:butt;stroke-linejoin:miter;stroke-opacity:1"/>
<path class="bond-14" d="M 407.922,181.19 L 396.101,189.271" style="fill:none;fill-rule:evenodd;stroke:#000000;stroke-width:2.0px;stroke-linecap:butt;stroke-linejoin:miter;stroke-opacity:1"/>
<path class="bond-15" d="M 407.922,181.19 L 423.373,188.607" style="fill:none;fill-rule:evenodd;stroke:#000000;stroke-width:2.0px;stroke-linecap:butt;stroke-linejoin:miter;stroke-opacity:1"/>
<path class="bond-16" d="M 423.373,188.607 L 437.522,178.934" style="fill:none;fill-rule:evenodd;stroke:#000000;stroke-width:2.0px;stroke-linecap:butt;stroke-linejoin:miter;stroke-opacity:1"/>
<path class="bond-16" d="M 423.561,184.326 L 433.465,177.555" style="fill:none;fill-rule:evenodd;stroke:#000000;stroke-width:2.0px;stroke-linecap:butt;stroke-linejoin:miter;stroke-opacity:1"/>
<path class="bond-17" d="M 423.373,188.607 L 424.458,202.841" style="fill:none;fill-rule:evenodd;stroke:#000000;stroke-width:2.0px;stroke-linecap:butt;stroke-linejoin:miter;stroke-opacity:1"/>
<path class="bond-18" d="M 437.522,178.934 L 436.22,161.844" style="fill:none;fill-rule:evenodd;stroke:#000000;stroke-width:2.0px;stroke-linecap:butt;stroke-linejoin:miter;stroke-opacity:1"/>
<path class="bond-19" d="M 437.522,178.934 L 450.646,185.234" style="fill:none;fill-rule:evenodd;stroke:#000000;stroke-width:2.0px;stroke-linecap:butt;stroke-linejoin:miter;stroke-opacity:1"/>
<path class="bond-20" d="M 436.22,161.844 L 420.769,154.428" style="fill:none;fill-rule:evenodd;stroke:#000000;stroke-width:2.0px;stroke-linecap:butt;stroke-linejoin:miter;stroke-opacity:1"/>
<path class="bond-20" d="M 432.419,163.822 L 421.603,158.63" style="fill:none;fill-rule:evenodd;stroke:#000000;stroke-width:2.0px;stroke-linecap:butt;stroke-linejoin:miter;stroke-opacity:1"/>
<path class="bond-21" d="M 436.22,161.844 L 450.369,152.172" style="fill:none;fill-rule:evenodd;stroke:#000000;stroke-width:2.0px;stroke-linecap:butt;stroke-linejoin:miter;stroke-opacity:1"/>
<path class="bond-22" d="M 450.369,152.172 L 458.089,163.465" style="fill:none;fill-rule:evenodd;stroke:#000000;stroke-width:2.0px;stroke-linecap:butt;stroke-linejoin:miter;stroke-opacity:1"/>
<path class="bond-23" d="M 450.369,152.172 L 456.309,148.111" style="fill:none;fill-rule:evenodd;stroke:#000000;stroke-width:2.0px;stroke-linecap:butt;stroke-linejoin:miter;stroke-opacity:1"/>
<path class="bond-23" d="M 456.309,148.111 L 462.249,144.051" style="fill:none;fill-rule:evenodd;stroke:#0000FF;stroke-width:2.0px;stroke-linecap:butt;stroke-linejoin:miter;stroke-opacity:1"/>
<path class="bond-24" d="M 450.369,152.172 L 442.648,140.878" style="fill:none;fill-rule:evenodd;stroke:#000000;stroke-width:2.0px;stroke-linecap:butt;stroke-linejoin:miter;stroke-opacity:1"/>
<path class="bond-25" d="M 466.787,143.588 L 477.763,148.857" style="fill:none;fill-rule:evenodd;stroke:#0000FF;stroke-width:2.0px;stroke-linecap:butt;stroke-linejoin:miter;stroke-opacity:1"/>
<path class="bond-26" d="M 464.3,139.644 L 463.758,132.527" style="fill:none;fill-rule:evenodd;stroke:#0000FF;stroke-width:2.0px;stroke-linecap:butt;stroke-linejoin:miter;stroke-opacity:1"/>
<path class="bond-26" d="M 463.758,132.527 L 463.215,125.41" style="fill:none;fill-rule:evenodd;stroke:#000000;stroke-width:2.0px;stroke-linecap:butt;stroke-linejoin:miter;stroke-opacity:1"/>
<path class="bond-27" d="M 482.238,148.365 L 488.178,144.304" style="fill:none;fill-rule:evenodd;stroke:#0000FF;stroke-width:2.0px;stroke-linecap:butt;stroke-linejoin:miter;stroke-opacity:1"/>
<path class="bond-27" d="M 488.178,144.304 L 494.118,140.244" style="fill:none;fill-rule:evenodd;stroke:#000000;stroke-width:2.0px;stroke-linecap:butt;stroke-linejoin:miter;stroke-opacity:1"/>
<path class="bond-27" d="M 482.086,144.317 L 486.243,141.474" style="fill:none;fill-rule:evenodd;stroke:#0000FF;stroke-width:2.0px;stroke-linecap:butt;stroke-linejoin:miter;stroke-opacity:1"/>
<path class="bond-27" d="M 486.243,141.474 L 490.401,138.632" style="fill:none;fill-rule:evenodd;stroke:#000000;stroke-width:2.0px;stroke-linecap:butt;stroke-linejoin:miter;stroke-opacity:1"/>
<path class="bond-28" d="M 494.118,140.244 L 509.569,147.661" style="fill:none;fill-rule:evenodd;stroke:#000000;stroke-width:2.0px;stroke-linecap:butt;stroke-linejoin:miter;stroke-opacity:1"/>
<path class="bond-29" d="M 494.118,140.244 L 492.815,123.154" style="fill:none;fill-rule:evenodd;stroke:#000000;stroke-width:2.0px;stroke-linecap:butt;stroke-linejoin:miter;stroke-opacity:1"/>
<path class="bond-30" d="M 492.815,123.154 L 504.637,115.072" style="fill:none;fill-rule:evenodd;stroke:#000000;stroke-width:2.0px;stroke-linecap:butt;stroke-linejoin:miter;stroke-opacity:1"/>
<path class="bond-31" d="M 492.815,123.154 L 477.364,115.737" style="fill:none;fill-rule:evenodd;stroke:#000000;stroke-width:2.0px;stroke-linecap:butt;stroke-linejoin:miter;stroke-opacity:1"/>
<path class="bond-31" d="M 489.014,125.132 L 478.199,119.94" style="fill:none;fill-rule:evenodd;stroke:#000000;stroke-width:2.0px;stroke-linecap:butt;stroke-linejoin:miter;stroke-opacity:1"/>
<path class="bond-32" d="M 477.364,115.737 L 463.215,125.41" style="fill:none;fill-rule:evenodd;stroke:#000000;stroke-width:2.0px;stroke-linecap:butt;stroke-linejoin:miter;stroke-opacity:1"/>
<path class="bond-33" d="M 477.364,115.737 L 476.28,101.503" style="fill:none;fill-rule:evenodd;stroke:#000000;stroke-width:2.0px;stroke-linecap:butt;stroke-linejoin:miter;stroke-opacity:1"/>
<path class="bond-34" d="M 463.957,123.864 L 457.56,120.794" style="fill:none;fill-rule:evenodd;stroke:#000000;stroke-width:2.0px;stroke-linecap:butt;stroke-linejoin:miter;stroke-opacity:1"/>
<path class="bond-34" d="M 457.56,120.794 L 451.163,117.723" style="fill:none;fill-rule:evenodd;stroke:#FF0000;stroke-width:2.0px;stroke-linecap:butt;stroke-linejoin:miter;stroke-opacity:1"/>
<path class="bond-34" d="M 462.474,126.955 L 456.076,123.884" style="fill:none;fill-rule:evenodd;stroke:#000000;stroke-width:2.0px;stroke-linecap:butt;stroke-linejoin:miter;stroke-opacity:1"/>
<path class="bond-34" d="M 456.076,123.884 L 449.679,120.813" style="fill:none;fill-rule:evenodd;stroke:#FF0000;stroke-width:2.0px;stroke-linecap:butt;stroke-linejoin:miter;stroke-opacity:1"/>
<path class="bond-35" d="M 509.569,147.661 L 523.718,137.988" style="fill:none;fill-rule:evenodd;stroke:#000000;stroke-width:2.0px;stroke-linecap:butt;stroke-linejoin:miter;stroke-opacity:1"/>
<path class="bond-36" d="M 509.569,147.661 L 510.871,164.75" style="fill:none;fill-rule:evenodd;stroke:#000000;stroke-width:2.0px;stroke-linecap:butt;stroke-linejoin:miter;stroke-opacity:1"/>
<path class="bond-36" d="M 513.182,149.964 L 514.094,161.926" style="fill:none;fill-rule:evenodd;stroke:#000000;stroke-width:2.0px;stroke-linecap:butt;stroke-linejoin:miter;stroke-opacity:1"/>
<path class="bond-37" d="M 510.871,164.75 L 526.322,172.167" style="fill:none;fill-rule:evenodd;stroke:#000000;stroke-width:2.0px;stroke-linecap:butt;stroke-linejoin:miter;stroke-opacity:1"/>
<path class="bond-38" d="M 510.871,164.75 L 499.05,172.832" style="fill:none;fill-rule:evenodd;stroke:#000000;stroke-width:2.0px;stroke-linecap:butt;stroke-linejoin:miter;stroke-opacity:1"/>
<path class="bond-39" d="M 526.322,172.167 L 540.471,162.494" style="fill:none;fill-rule:evenodd;stroke:#000000;stroke-width:2.0px;stroke-linecap:butt;stroke-linejoin:miter;stroke-opacity:1"/>
<path class="bond-39" d="M 526.51,167.886 L 536.414,161.116" style="fill:none;fill-rule:evenodd;stroke:#000000;stroke-width:2.0px;stroke-linecap:butt;stroke-linejoin:miter;stroke-opacity:1"/>
<path class="bond-40" d="M 526.322,172.167 L 526.865,179.284" style="fill:none;fill-rule:evenodd;stroke:#000000;stroke-width:2.0px;stroke-linecap:butt;stroke-linejoin:miter;stroke-opacity:1"/>
<path class="bond-40" d="M 526.865,179.284 L 527.407,186.401" style="fill:none;fill-rule:evenodd;stroke:#33CCCC;stroke-width:2.0px;stroke-linecap:butt;stroke-linejoin:miter;stroke-opacity:1"/>
<path class="bond-41" d="M 540.471,162.494 L 553.595,168.794" style="fill:none;fill-rule:evenodd;stroke:#000000;stroke-width:2.0px;stroke-linecap:butt;stroke-linejoin:miter;stroke-opacity:1"/>
<path class="bond-42" d="M 540.471,162.494 L 539.169,145.405" style="fill:none;fill-rule:evenodd;stroke:#000000;stroke-width:2.0px;stroke-linecap:butt;stroke-linejoin:miter;stroke-opacity:1"/>
<path class="bond-43" d="M 539.169,145.405 L 545.308,141.208" style="fill:none;fill-rule:evenodd;stroke:#000000;stroke-width:2.0px;stroke-linecap:butt;stroke-linejoin:miter;stroke-opacity:1"/>
<path class="bond-43" d="M 545.308,141.208 L 551.446,137.012" style="fill:none;fill-rule:evenodd;stroke:#33CCCC;stroke-width:2.0px;stroke-linecap:butt;stroke-linejoin:miter;stroke-opacity:1"/>
<path class="bond-44" d="M 539.169,145.405 L 523.718,137.988" style="fill:none;fill-rule:evenodd;stroke:#000000;stroke-width:2.0px;stroke-linecap:butt;stroke-linejoin:miter;stroke-opacity:1"/>
<path class="bond-44" d="M 535.368,147.383 L 524.552,142.191" style="fill:none;fill-rule:evenodd;stroke:#000000;stroke-width:2.0px;stroke-linecap:butt;stroke-linejoin:miter;stroke-opacity:1"/>
<path class="bond-45" d="M 523.718,137.988 L 522.633,123.754" style="fill:none;fill-rule:evenodd;stroke:#000000;stroke-width:2.0px;stroke-linecap:butt;stroke-linejoin:miter;stroke-opacity:1"/>
<path class="bond-46" d="M 420.769,154.428 L 419.684,140.193" style="fill:none;fill-rule:evenodd;stroke:#000000;stroke-width:2.0px;stroke-linecap:butt;stroke-linejoin:miter;stroke-opacity:1"/>
<path class="atom-3" d="M 375.013 162.397 L 376.604 164.968 Q 376.762 165.221, 377.015 165.681 Q 377.269 166.14, 377.283 166.168 L 377.283 162.397 L 377.927 162.397 L 377.927 167.251 L 377.262 167.251 L 375.555 164.44 Q 375.356 164.111, 375.144 163.734 Q 374.938 163.357, 374.876 163.24 L 374.876 167.251 L 374.246 167.251 L 374.246 162.397 L 375.013 162.397 " fill="#0000FF"/>
<path class="atom-5" d="M 387.014 137.396 L 388.605 139.967 Q 388.762 140.221, 389.016 140.68 Q 389.27 141.14, 389.284 141.167 L 389.284 137.396 L 389.928 137.396 L 389.928 142.25 L 389.263 142.25 L 387.556 139.439 Q 387.357 139.11, 387.145 138.733 Q 386.939 138.356, 386.877 138.24 L 386.877 142.25 L 386.246 142.25 L 386.246 137.396 L 387.014 137.396 " fill="#0000FF"/>
<path class="atom-12" d="M 463.445 140.072 L 465.035 142.643 Q 465.193 142.897, 465.447 143.356 Q 465.7 143.816, 465.714 143.843 L 465.714 140.072 L 466.358 140.072 L 466.358 144.926 L 465.693 144.926 L 463.986 142.115 Q 463.788 141.786, 463.575 141.409 Q 463.369 141.032, 463.308 140.916 L 463.308 144.926 L 462.677 144.926 L 462.677 140.072 L 463.445 140.072 " fill="#0000FF"/>
<path class="atom-13" d="M 478.896 147.489 L 480.487 150.06 Q 480.644 150.314, 480.898 150.773 Q 481.152 151.232, 481.165 151.26 L 481.165 147.489 L 481.81 147.489 L 481.81 152.343 L 481.145 152.343 L 479.438 149.532 Q 479.239 149.203, 479.026 148.826 Q 478.821 148.449, 478.759 148.333 L 478.759 152.343 L 478.128 152.343 L 478.128 147.489 L 478.896 147.489 " fill="#0000FF"/>
<path class="atom-18" d="M 445.536 118.006 Q 445.536 116.841, 446.112 116.19 Q 446.688 115.538, 447.764 115.538 Q 448.841 115.538, 449.416 116.19 Q 449.992 116.841, 449.992 118.006 Q 449.992 119.186, 449.41 119.857 Q 448.827 120.522, 447.764 120.522 Q 446.695 120.522, 446.112 119.857 Q 445.536 119.192, 445.536 118.006 M 447.764 119.974 Q 448.505 119.974, 448.902 119.48 Q 449.307 118.98, 449.307 118.006 Q 449.307 117.053, 448.902 116.574 Q 448.505 116.087, 447.764 116.087 Q 447.024 116.087, 446.619 116.567 Q 446.222 117.047, 446.222 118.006 Q 446.222 118.987, 446.619 119.48 Q 447.024 119.974, 447.764 119.974 " fill="#FF0000"/>
<path class="atom-22" d="M 526.182 186.83 L 529.068 186.83 L 529.068 187.385 L 526.833 187.385 L 526.833 188.859 L 528.821 188.859 L 528.821 189.421 L 526.833 189.421 L 526.833 191.684 L 526.182 191.684 L 526.182 186.83 " fill="#33CCCC"/>
<path class="atom-25" d="M 551.875 133.305 L 554.761 133.305 L 554.761 133.861 L 552.526 133.861 L 552.526 135.335 L 554.514 135.335 L 554.514 135.897 L 552.526 135.897 L 552.526 138.159 L 551.875 138.159 L 551.875 133.305 " fill="#33CCCC"/>
<path class="atom-28" d="M 376.143 111.894 L 376.801 111.894 L 376.801 113.958 L 379.283 113.958 L 379.283 111.894 L 379.941 111.894 L 379.941 116.748 L 379.283 116.748 L 379.283 114.506 L 376.801 114.506 L 376.801 116.748 L 376.143 116.748 L 376.143 111.894 " fill="#000000"/>
<path class="atom-29" d="M 345.978 128.175 L 346.636 128.175 L 346.636 130.239 L 349.118 130.239 L 349.118 128.175 L 349.776 128.175 L 349.776 133.029 L 349.118 133.029 L 349.118 130.787 L 346.636 130.787 L 346.636 133.029 L 345.978 133.029 L 345.978 128.175 " fill="#000000"/>
<path class="atom-30" d="M 352.92 104.952 L 353.578 104.952 L 353.578 107.016 L 356.06 107.016 L 356.06 104.952 L 356.718 104.952 L 356.718 109.806 L 356.06 109.806 L 356.06 107.564 L 353.578 107.564 L 353.578 109.806 L 352.92 109.806 L 352.92 104.952 " fill="#000000"/>
<path class="atom-31" d="M 344.924 153.65 L 345.583 153.65 L 345.583 155.713 L 348.064 155.713 L 348.064 153.65 L 348.722 153.65 L 348.722 158.504 L 348.064 158.504 L 348.064 156.262 L 345.583 156.262 L 345.583 158.504 L 344.924 158.504 L 344.924 153.65 " fill="#000000"/>
<path class="atom-32" d="M 371.908 179.384 L 372.566 179.384 L 372.566 181.447 L 375.048 181.447 L 375.048 179.384 L 375.706 179.384 L 375.706 184.238 L 375.048 184.238 L 375.048 181.996 L 372.566 181.996 L 372.566 184.238 L 371.908 184.238 L 371.908 179.384 " fill="#000000"/>
<path class="atom-33" d="M 391.874 188.435 L 392.532 188.435 L 392.532 190.499 L 395.014 190.499 L 395.014 188.435 L 395.672 188.435 L 395.672 193.289 L 395.014 193.289 L 395.014 191.047 L 392.532 191.047 L 392.532 193.289 L 391.874 193.289 L 391.874 188.435 " fill="#000000"/>
<path class="atom-34" d="M 422.777 203.269 L 423.435 203.269 L 423.435 205.333 L 425.917 205.333 L 425.917 203.269 L 426.575 203.269 L 426.575 208.123 L 425.917 208.123 L 425.917 205.881 L 423.435 205.881 L 423.435 208.123 L 422.777 208.123 L 422.777 203.269 " fill="#000000"/>
<path class="atom-35" d="M 451.074 183.924 L 451.733 183.924 L 451.733 185.988 L 454.214 185.988 L 454.214 183.924 L 454.872 183.924 L 454.872 188.778 L 454.214 188.778 L 454.214 186.536 L 451.733 186.536 L 451.733 188.778 L 451.074 188.778 L 451.074 183.924 " fill="#000000"/>
<path class="atom-36" d="M 438.797 135.596 L 439.455 135.596 L 439.455 137.66 L 441.937 137.66 L 441.937 135.596 L 442.595 135.596 L 442.595 140.45 L 441.937 140.45 L 441.937 138.208 L 439.455 138.208 L 439.455 140.45 L 438.797 140.45 L 438.797 135.596 " fill="#000000"/>
<path class="atom-37" d="M 458.142 163.894 L 458.801 163.894 L 458.801 165.957 L 461.282 165.957 L 461.282 163.894 L 461.941 163.894 L 461.941 168.748 L 461.282 168.748 L 461.282 166.506 L 458.801 166.506 L 458.801 168.748 L 458.142 168.748 L 458.142 163.894 " fill="#000000"/>
<path class="atom-38" d="M 505.065 111.054 L 505.723 111.054 L 505.723 113.118 L 508.205 113.118 L 508.205 111.054 L 508.863 111.054 L 508.863 115.908 L 508.205 115.908 L 508.205 113.666 L 505.723 113.666 L 505.723 115.908 L 505.065 115.908 L 505.065 111.054 " fill="#000000"/>
<path class="atom-39" d="M 474.163 96.2205 L 474.821 96.2205 L 474.821 98.284 L 477.303 98.284 L 477.303 96.2205 L 477.961 96.2205 L 477.961 101.074 L 477.303 101.074 L 477.303 98.8325 L 474.821 98.8325 L 474.821 101.074 L 474.163 101.074 L 474.163 96.2205 " fill="#000000"/>
<path class="atom-40" d="M 494.823 171.996 L 495.482 171.996 L 495.482 174.059 L 497.963 174.059 L 497.963 171.996 L 498.621 171.996 L 498.621 176.85 L 497.963 176.85 L 497.963 174.608 L 495.482 174.608 L 495.482 176.85 L 494.823 176.85 L 494.823 171.996 " fill="#000000"/>
<path class="atom-41" d="M 554.024 167.485 L 554.682 167.485 L 554.682 169.548 L 557.163 169.548 L 557.163 167.485 L 557.822 167.485 L 557.822 172.338 L 557.163 172.338 L 557.163 170.097 L 554.682 170.097 L 554.682 172.338 L 554.024 172.338 L 554.024 167.485 " fill="#000000"/>
<path class="atom-42" d="M 520.517 118.471 L 521.175 118.471 L 521.175 120.535 L 523.656 120.535 L 523.656 118.471 L 524.315 118.471 L 524.315 123.325 L 523.656 123.325 L 523.656 121.083 L 521.175 121.083 L 521.175 123.325 L 520.517 123.325 L 520.517 118.471 " fill="#000000"/>
<path class="atom-43" d="M 417.567 134.911 L 418.226 134.911 L 418.226 136.975 L 420.707 136.975 L 420.707 134.911 L 421.366 134.911 L 421.366 139.765 L 420.707 139.765 L 420.707 137.523 L 418.226 137.523 L 418.226 139.765 L 417.567 139.765 L 417.567 134.911 " fill="#000000"/>
<text x="300" y="20" font-size="20" font-family="sans-serif" font-weight="normal" letter-spacing="0" text-anchor="middle" fill="black">cmet: CHEMBL3402753_200_13 -&gt; CHEMBL3402748_5300_8</text><text x="300" y="35" font-size="15" font-family="sans-serif" font-weight="normal" letter-spacing="0" text-anchor="middle" fill="black"></text><text x="150" y="285" font-size="15" font-family="sans-serif" font-weight="normal" letter-spacing="0" text-anchor="middle" fill="black">CHEMBL3402753_200_13</text><text x="450" y="285" font-size="15" font-family="sans-serif" font-weight="normal" letter-spacing="0" text-anchor="middle" fill="black">CHEMBL3402748_5300_8</text></svg>
